<?xml version="1.0" standalone="yes"?>
<svg xmlns="http://www.w3.org/2000/svg" width="2200" height="2200">
<path style="fill:#0b0b0b; stroke:none;" d="M1992 40C1992 76.0667 1992.4 110.182 1996.44 146C1997.37 154.232 2003.32 178.464 1997.74 185.171C1995.01 188.45 1985.82 186.01 1982 186.001C1970.43 185.973 1935.6 181.153 1930 194C1946.3 193.935 1962.64 193 1979 193C1983.9 193 1993.36 191.22 1997.26 194.822C2002.71 199.861 2000.73 216.092 2001.08 223C2002.37 248.346 2006.12 273.588 2006 299C2005.97 304.1 2008.02 326.975 2003.5 329.1C1997.63 331.861 1984.63 328 1978 328C1954.92 327.998 1930.99 329.824 1908 327.783C1898.46 326.935 1877.1 324.365 1871 333C1895.13 339.107 1925.25 333.002 1950 333C1991.1 332.997 2031.71 338 2073 338L2122 338C2124.93 338 2138.06 339.581 2135.73 333.372C2133.74 328.052 2112.02 330.999 2107 331C2080.42 331.008 2043.68 339.2 2018.15 330.933C2011.51 328.785 2011.02 307.249 2011 301C2010.93 278.333 2010.44 255.593 2008.86 233C2008.19 223.415 2004.15 207.179 2006.68 198.148C2008.51 191.646 2020.93 194 2026 194C2045.61 194 2065.5 193.367 2085 195.562C2087.91 195.889 2107.51 197.916 2106.68 193C2105.78 187.71 2087.99 190.095 2084 189.68C2066.22 187.83 2047.87 189 2030 189C2023.93 189 2013.65 190.775 2008.5 186.818C2002.82 182.456 2005.68 166.488 2004.65 160C2000.26 132.437 1998 103.989 1998 76C1998 65.8594 2004.09 44.5259 1992 40M662.989 60.2893C654.76 64.3208 647.626 75.5684 641.008 81.9221C619.589 102.485 601.626 125.835 581.096 147.136C576.105 152.314 563.308 172.407 556.826 173.695C552.589 174.538 543.038 152.611 541.191 149C529.891 126.908 517.202 105.535 506.805 83C504.884 78.8372 499.528 62.2329 494.146 62.1057C488.47 61.9714 501.343 86.7292 503.049 90C514.248 111.465 525.587 132.74 537.239 154.003C540.944 160.763 550.38 172.335 550.739 180.078C551.11 188.099 534.798 200.024 530.019 206C511.908 228.65 495.983 253.56 479.019 277.136C476.54 280.582 454.139 302.523 459.833 305.456C466.386 308.832 482.381 284.824 485.499 279.981C500.943 256.004 518.441 232.649 535.765 210.003C539.284 205.401 548.312 189.541 554.41 189.004C558.944 188.604 567.46 209.017 569.67 212.864C584.14 238.052 600.528 262.63 612.745 289C614.571 292.942 626.46 319.196 631.24 316.456C637.361 312.947 619.932 288.198 617.539 284.007C603.537 259.479 588.733 235.077 575.838 210C571.624 201.804 562.428 192.38 561.231 182.999C560.078 173.971 578.403 159.308 584.32 153.438C606.877 131.06 627.958 106.129 649.922 83C652.414 80.3765 674.467 54.6665 662.989 60.2893M1732 59.5852C1689.94 66.9077 1644.74 69.9888 1602 70C1589.42 70.0034 1557.74 68.6799 1548.96 79.5007C1544.78 84.6406 1547 100.48 1547 107C1547 134.323 1551.96 161.721 1553.86 189C1556.24 222.928 1550 257.103 1554.54 291C1555.16 295.634 1551.32 310.87 1551.97 312.24C1554.93 318.438 1591.98 314.914 1599 315.682C1616.4 317.588 1633.72 314.968 1651 317.36C1683.68 321.886 1720.94 333.12 1754 324.971C1771.65 320.619 1768.89 297.079 1763.5 283.498C1762.07 279.9 1757.13 280.185 1755.72 275.93C1750.41 259.888 1752.29 239.743 1750.88 223C1747.81 186.562 1747 150.705 1747 114C1747 101.317 1753.51 55.8398 1732 59.5852M182 254C176.899 241.38 182.982 228.598 181.76 216.118C178.623 184.087 173.813 148.212 177.438 116C178.299 108.354 175.182 80.4507 181.442 76.2598C187.095 72.4753 200.392 75 207 75C227.555 75 247.552 72.0183 268 72C275.763 71.9932 295.36 75.7043 295 64C240.044 74.5076 179.006 66.0884 123 68.9221C108.798 69.6406 92.9241 70.2756 79 67.345C77.4714 67.0232 66.0802 65.1582 68.5439 69.8044C71.1535 74.7261 84.2466 74.9834 89 74.999C108.745 75.0637 128.321 75.9988 148 76C153.922 76.0002 171.139 72.6152 172.716 80.0725C176.498 97.958 169.805 119.633 170.008 138C170.415 174.907 175.088 211.851 174.999 249C174.971 260.715 167.085 299.636 176.031 308.108C181.543 313.328 181.997 300.365 182 298C182.014 286.536 176.029 263.537 182 254M834.315 64.5439C829.31 67.1233 836.002 84.0747 835.823 89C834.875 115.126 833.476 140.027 835.783 166C838.369 195.115 839.844 225.788 837.863 255C837.246 264.098 832.813 285.722 838.384 293.48C842.284 298.911 865.051 294.66 871 293.574C903.394 287.662 935.199 287 968 287C974.789 287 998.867 294.406 1003.35 290.131C1012.07 281.819 975.515 279.947 972 280.019C940.233 280.664 907.127 278.658 876 286.699C870.397 288.146 849.299 292.929 845.822 286.499C841.462 278.435 845 260.126 845 251C845 221.707 847.292 191.094 843.786 162C840.684 136.261 841.846 110.873 841.99 85C842.007 81.9897 840.297 61.4617 834.315 64.5439M1734.65 66.0796C1740.34 66.4751 1739.98 78.1123 1740 82C1740.09 98.9988 1740 116.001 1740 133C1740 175.134 1741.98 219.053 1747.18 261C1748.3 270.102 1748.83 281.354 1751.91 289.974C1754.87 298.252 1762.07 299.462 1759.21 309.86C1756 321.546 1739.64 321.177 1730 320.981C1703.47 320.443 1676.46 314.096 1650 311.32C1633.79 309.62 1618.03 312.205 1602 309.335C1593.26 307.77 1569.05 312.271 1562.96 305.876C1559.61 302.365 1560.33 286.068 1560.08 281C1558.83 256.339 1560.98 231.6 1561 207C1561.02 179.675 1557.53 150.265 1554.68 123C1553.75 114.138 1550.27 93.1707 1555.26 85.4678C1561.88 75.2405 1589.45 77.0095 1600 77C1633.59 76.97 1667.51 73.2043 1701 70.8638C1711.44 70.1343 1724.63 65.3831 1734.65 66.0796M1368 75C1368 136.03 1359.34 196.025 1359 257C1358.92 272.366 1357.96 287.617 1358 303C1358.01 305.656 1358.16 318.965 1364.25 314.67C1369.48 310.978 1365 273.443 1365 266C1365 217.586 1370.38 169.7 1373.06 121.019C1373.53 112.493 1381.36 70.8357 1371.72 67.0396C1361.73 63.1045 1338.45 98.272 1331.96 105C1290.21 148.25 1256.92 198.879 1216.13 243C1204.99 255.055 1194.91 267.983 1184.93 281C1182.99 283.534 1174.77 291.804 1177.97 295.214C1181.49 298.969 1188.14 289.285 1189.66 287C1199.5 272.248 1210.69 258.452 1222.3 244.982C1259.7 201.578 1293.79 154.038 1333.98 113C1344.68 102.079 1355.44 82.8594 1368 75M662 413C631.578 420.923 626.194 462.633 603.637 478.312C598.896 481.607 591.809 475.539 587.001 474.28C572.557 470.5 556.312 463.4 541 466.478C529.528 468.783 524.484 478.725 516.543 486.017C491.061 509.419 478.797 535.477 493.615 571C497.674 580.731 502.654 590.406 509.571 598.437C512.347 601.661 520.219 606.608 520.445 611.118C520.977 621.732 498.931 647.504 492.816 657.04C491.165 659.615 481.771 669.693 486.79 672.677C490.594 674.938 496.776 663.405 498.246 661C504.417 650.908 517.079 621.617 527.543 616.455C534.222 613.159 554.604 622.984 563.992 621.493C598.674 615.987 638.18 578.851 634.78 543C633.491 529.407 627.713 515.954 619.684 505C616.078 500.081 607.375 491.781 609.313 485C617.591 456.043 652.799 439.59 662 413M166.008 423.489C85.9526 436.658 46.4512 546.394 85.361 613.864C97.3203 634.601 119.924 646.847 140.864 656.897C156.591 664.446 178.005 673.469 196 670.599C264.571 659.664 305.977 600.361 298.773 532C292.365 471.207 229.943 412.971 166.008 423.489M168 430.339C272.125 417.305 332.344 558.173 264.721 631.863C247.3 650.848 218.133 661.873 193.003 664.782C175.032 666.862 151.876 655.976 136.864 647.225C116.795 635.527 98.6424 626.891 87.6939 604.783C56.4061 541.602 93.9566 439.607 168 430.339M2015 435.438C1977.65 439.644 1937.5 447.1 1913.06 479C1904.42 490.273 1891.53 507.736 1889.37 522C1881.96 570.912 1922.42 624.765 1971 632.685C2008.81 638.849 2033.7 605.563 2033.99 571C2034.18 548.126 2015.68 525.021 1991.01 528.704C1988.88 529.022 1980.03 533.76 1984.87 536.475C1987.47 537.928 1993 534.211 1996 534.11C2004.54 533.824 2014.35 540.281 2019.19 547.019C2042.24 579.165 2014.79 629.477 1975.02 626.932C1932.1 624.187 1904.9 580.354 1895.58 543.783C1891.45 527.581 1898.77 514.627 1906.48 501C1926.74 465.239 1960.35 448.689 2000 443.823C2011.15 442.455 2026.04 437.57 2037 441.593C2117.74 471.236 2171.04 580.724 2114.2 654C2098.91 673.709 2077.68 686.747 2055 696.338C2029.95 706.928 1995.13 716.913 1968 711.552C1962.99 710.562 1932.84 693.576 1932.28 694.106C1924.09 701.943 1950.51 711.637 1954.56 712.938C1966.14 716.654 1981.9 714 1994 714C2073.86 714 2152.92 656.546 2146.86 570C2142.85 512.664 2077.05 428.45 2015 435.438M1229 436.723C1174.81 449.134 1136.58 517.075 1161.13 569C1188.21 626.26 1245.09 659.112 1308 643.683C1358.34 631.337 1403.38 562.067 1381.84 513C1357.81 458.261 1287.76 423.267 1229 436.723M1214 449C1206.99 466.115 1221.56 445.439 1232 449L1231 443C1273.71 443 1317.03 444.82 1348.46 477.64C1365.79 495.73 1384.01 520.788 1383.96 547C1383.94 560.852 1374.19 569.774 1367.66 580.922C1345.46 618.833 1326.11 636.669 1281 639.864C1228.07 643.612 1182.71 609.203 1164.44 560C1149.89 520.829 1172.97 462.19 1214 449M1645 568C1675.13 594.666 1693.42 635.724 1724 663.681C1731.8 670.813 1737.78 679.657 1746 686.348C1747.81 687.822 1755.79 693.943 1756.04 687.833C1756.36 679.886 1734.62 662.857 1729.04 657.68C1706.38 636.67 1688.06 613.436 1669.36 589.007C1664.26 582.343 1652.09 568.968 1653.43 560C1654.75 551.095 1667.54 539.739 1672.96 532.562C1686.47 514.656 1699.51 496.186 1715.08 479.96C1724.56 470.071 1740.46 458.113 1745 445C1734.02 446.423 1725.17 459.794 1718.54 467.783C1701.88 487.848 1685.2 507.723 1668.81 528C1664.61 533.193 1653.64 552.761 1647.09 553.677C1642.99 554.25 1631.22 535.262 1627.99 532.001C1606.91 510.727 1585.91 491.031 1566.47 468.139C1562.77 463.779 1546.05 441.14 1538.8 446.45C1533.75 450.158 1539.06 461.809 1540.75 466C1548.35 484.872 1546.31 505.553 1549.65 525.136C1550.88 532.396 1547.56 538.873 1548.12 546.002C1550.99 582.587 1551.99 620.092 1552 657C1552 665.365 1548 697.284 1559.3 700.239C1565.48 701.855 1569.67 687.172 1572.53 683.438C1586.94 664.573 1598.76 642.07 1609.68 621.04C1619.3 602.534 1637.38 587.263 1645 568M1560 690C1554.92 678.126 1558.94 662.669 1557.78 650C1553.72 605.442 1558.96 560.561 1554.32 516C1552.85 501.901 1553.06 488.732 1549.22 475C1548.57 472.682 1546.36 464.167 1550.21 463.302C1554.2 462.403 1560.46 471.317 1562.65 473.791C1572.42 484.813 1581.06 497.849 1592 507.68C1605.41 519.722 1638.43 541.496 1641.37 561.136C1642.68 569.842 1626.13 586.754 1621.4 593.96C1602.02 623.486 1585.8 665.866 1560 690M985.997 463.77C957.18 469.549 928.259 468.998 899 469C888.693 469.001 867.504 469.954 859.829 478.038C856.409 481.64 859.005 503.193 859 509C858.972 540.213 857.036 573.038 860.823 604C861.416 608.846 860.631 637.749 864.447 638.894C870.864 640.82 870.013 627.101 869.997 624C869.928 610.677 867.658 597.303 866.941 584C866.718 579.865 863.418 573.301 866.825 569.819C871.183 565.365 885.957 564.987 892 564.318C914.96 561.777 950.69 555.351 972.93 562.722C984.617 566.596 978 606.726 978 617C978 620.578 976.271 634.014 982.78 633.214C988.54 632.507 985 599.713 985 594C985 560.613 986.118 527.443 987.454 494C987.759 486.37 999.096 461.143 985.997 463.77M983.171 470.599C986.682 472.795 982.975 485.412 982.563 489C980.847 503.922 979.001 520.071 979 535C979 539.3 980.996 550.487 977.74 553.74C973.883 557.596 958.34 553.861 953 554.04C931.927 554.748 910.878 556.268 890 558.823C884.642 559.479 871.154 563.196 866.604 559.576C860.844 554.993 865 526.387 865 519C865 512.634 861.055 485.092 864.976 481.252C868.644 477.661 880.988 477.462 886 476.64C908.569 472.937 932.227 477.726 954.992 474.412C961.446 473.472 977.362 466.965 983.171 470.599M506 501C505.814 503.849 501.588 511.834 503.398 513.904C505.63 516.456 509.169 510.112 509.911 508.779C516.097 497.658 519.398 490.756 533 492C526.278 481.662 531.28 474.224 544.04 472.279C554.979 470.612 590.352 476.825 597.031 486.639C600.017 491.028 585.792 507.23 583.562 512C572.481 535.7 554.851 557.376 541.547 579.997C538.227 585.642 532.852 600.915 524.982 601.005C517.037 601.095 509.178 586.82 505.731 581C494.134 561.42 484.993 517.461 506 501M602.302 495.106C606.455 493.992 610.709 503.387 612.698 506C622.426 518.775 629.642 535.716 629.881 552C630.287 579.704 591.49 608.001 566.999 613.384C560.838 614.739 533.947 616.103 532.885 606.579C532.283 601.18 542.015 590.897 544.632 586C555.822 565.065 568.962 544.278 582.77 525C587.326 518.64 594.525 497.191 602.302 495.106M1255 499.01C1249.09 501.172 1245.24 506.478 1240.86 510.681C1233.27 517.974 1223.22 525.72 1222.25 537C1219.64 567.186 1259.84 602.47 1289.56 591.252C1338.78 572.678 1324.61 517.841 1281.04 504.9C1273.19 502.568 1263.45 495.919 1255 499.01M1256.39 504.832C1262.21 502.211 1273.2 508.408 1278.96 510.158C1312.49 520.348 1332.5 564.603 1292 582.683C1267.79 593.49 1226.9 569.664 1229.42 541.088C1230.14 532.89 1243.49 519.323 1249.5 514.462C1252.75 511.839 1252.27 506.69 1256.39 504.832M1406 973C1388.8 979.371 1369.12 1017.45 1359.69 1033C1356.02 1039.04 1351.22 1051.37 1344.7 1054.64C1335.94 1059.04 1312.22 1051.38 1302 1051.04C1263.24 1049.74 1224.55 1051.01 1186 1050C1189.87 1044.46 1195.65 1049.11 1199.46 1043.78C1247.78 976.221 1289.52 903.898 1342.4 839.319C1359.19 818.818 1377.8 799.547 1394.51 778.005C1400.25 770.613 1410.21 763.476 1412 754C1393.59 757.059 1368.58 799.571 1357.42 814C1312.67 871.852 1267.23 928.646 1226.77 990C1217.7 1003.75 1208.04 1023.63 1196.94 1035.42C1194.2 1038.33 1189.6 1037.29 1186.59 1040.29C1184.16 1042.72 1173.37 1054.62 1175.47 1058.04C1178.96 1063.72 1189.44 1056.74 1194 1056.23C1210.53 1054.35 1229.41 1055.51 1246 1056.4C1270.46 1057.7 1294.7 1056.78 1319 1059.32C1327.39 1060.2 1343.07 1067.87 1350.48 1066.28C1353.16 1065.7 1358.54 1047.32 1360.64 1043.78C1372.25 1024.3 1404.65 995.411 1406 973M941.093 776.363C931.922 778.488 921.264 803.544 915.756 811.139C898.099 835.488 870.929 853.857 849 874.139C846.912 876.07 825.237 897.669 832.295 896.959C839.932 896.191 849.459 882.552 855 877.698C875.85 859.435 901.094 839.921 918.183 818.059C921.602 813.686 936.549 785.741 942.382 787.76C949.756 790.313 960.869 809.492 965.699 815.959C983.64 839.982 1003.85 861.836 1021.63 886C1025.41 891.138 1038.71 919.627 1044.77 918.351C1054.65 916.266 1033.29 889.006 1030.42 884.993C1009.84 856.214 985.313 829.876 963.535 801.922C960.155 797.583 946.879 775.022 941.093 776.363M1513 1079L1513 1081C1576.57 1077.2 1639.46 1072.3 1703 1069.08C1721.91 1068.12 1739.34 1068.25 1758.04 1064.9C1762.93 1064.03 1771.51 1065.6 1775.39 1062.18C1778.63 1059.33 1769.63 1040.26 1770.14 1033C1772.59 997.964 1773.72 961.02 1770.1 926C1766.55 891.71 1765.07 857.306 1761.32 823C1760.57 816.198 1763.74 795.193 1760.1 790.604C1751.44 779.693 1712.9 789.673 1701 790.904C1651.91 795.982 1601.88 794.252 1553 800.567C1542.24 801.957 1512.57 801.813 1504.51 808.239C1500.53 811.41 1504.16 814.774 1508.03 814.634C1519.2 814.23 1532.63 811.269 1544 809.642C1593.11 802.617 1643 805.809 1692 798.861C1702.88 797.318 1740.66 789.674 1748.09 798.284C1757.2 808.841 1752.14 827.516 1752.01 840C1751.66 872.293 1754.32 905.725 1756.06 938C1757.63 967.135 1761.05 996.107 1761.47 1025.44C1761.55 1031.18 1766.46 1048.76 1762.28 1052.97C1757.74 1057.54 1747.83 1055.61 1742.08 1056.12C1725.29 1057.61 1709 1058.82 1692 1059.01C1652.88 1059.44 1609.66 1062.95 1571 1068.2C1563.78 1069.18 1558.04 1074.92 1551 1076.55C1539.46 1079.23 1524.93 1078.29 1513 1079M187 805C189.82 820.826 176.358 834.868 168.876 849C150.084 884.494 133.051 921.453 112.382 955.864C104.713 968.631 95.3972 981.84 90.6946 995.998C89.6725 999.075 84.1425 1004.44 85.543 1007.62C89.3384 1016.23 118.982 1014.14 127 1015.51C171.965 1023.2 216.971 1020.54 262 1024.78C271.555 1025.68 307.866 1029.17 309.235 1015.99C310.547 1003.36 294.75 981.504 289.027 970.32C270.569 934.252 248.195 897.936 226.095 864C215.011 846.981 198.219 824.12 202 804C196.722 804.723 192.367 805.53 187 805M193 819C203.645 829.224 207.501 847.572 215.516 860C237.894 894.699 262.274 930.945 280.584 968C286.336 979.641 291.826 991.419 297.25 1003.22C298.473 1005.88 303.283 1012.77 300.739 1015.5C294.823 1021.84 263.021 1018.03 254.981 1016.74C217.256 1010.66 176.324 1020.91 138.562 1011C130.891 1008.98 98.7489 1009.47 96.2409 1001.79C92.7699 991.163 115.871 961.924 121.269 952.783C146.972 909.255 167.396 862.587 193 819M630 828C647.621 822.77 611.072 862.429 606.102 869C576.794 907.75 542.039 942.577 513.875 982.04C505.218 994.17 494.117 1004.49 484.718 1016.06C483.001 1018.17 474.589 1024.78 477.928 1027.77C484.796 1033.91 508.558 1023.82 517 1022.9C551.799 1019.11 592.261 1013.08 627 1020.48C631.718 1021.49 662.169 1026.32 661.133 1017.38C660.908 1015.44 626.562 1013.96 622 1013.44C592.624 1010.11 559.4 1011.58 530 1014.22C516.969 1015.39 500.607 1022.25 488 1020C533.601 974.4 574.781 921.052 613.975 869.603C623.326 857.327 633.773 846.444 644.047 834.999C646.095 832.718 654.673 824.793 649.47 821.822C641.497 817.268 623.134 821.266 614 820.96C579.508 819.802 544.664 824.998 510 825C505.326 825 467.803 827.517 469.544 830.329C473.853 837.29 500.967 832 508 832C530.84 832 555.398 832.746 578 829.242C592.78 826.951 615.892 820.967 630 828M1947 839C2017.03 823.694 2089.6 825 2161 825C2159.56 827.846 2157.81 830.369 2156 833C2160.83 832.999 2184.86 834.154 2179.17 823.683C2175.02 816.057 2140.96 820 2133 820C2086.95 820 2030.53 814.033 1986 826.681C1978.54 828.801 1937.66 829.089 1936.32 838.218C1935.59 843.276 1949.47 850.863 1952.94 853.562C1970.01 866.849 1985.74 880.275 2004.14 892.073C2008.44 894.832 2026.89 902.74 2024.83 909.214C2022.21 917.454 2010.98 924.291 2005 930.038C1986.71 947.609 1967.2 965.054 1947 980.383C1943.96 982.692 1920.42 998.714 1921.54 1000.66C1924.63 1006.02 1956.6 1000.89 1963 1000.36C2001.51 997.188 2046.57 998.556 2085 1002.68C2090.32 1003.25 2129 1010.11 2129 1003.22C2129 997.488 2099.53 998.795 2095 998.32C2057.11 994.345 2018.9 998.48 1981 995.864C1976.64 995.563 1940.66 997.956 1940.64 993.86C1940.63 990.946 1959.11 979.386 1962.02 976.788C1981.03 959.834 1999.74 942.939 2019 926.294C2022.79 923.021 2037.88 916.13 2038.38 911.912C2039.31 904.167 2021.61 895.03 2016.01 891.664C1991.93 877.197 1965.18 860.725 1947 839M892.474 871.759C888.362 873.327 891 892.921 891 897C891 923.483 887.547 952.878 891.762 979.001C892.405 982.991 896.525 1010.3 903.195 1007.03C905.145 1006.07 899.103 980.932 898.58 977C894.972 949.836 898 923.304 898 896C898 893.02 899.492 869.082 892.474 871.759M959.246 882.183C956.054 882.987 960.976 903.114 960.997 907C961.127 930.718 962.993 954.315 963 978C963.001 981.702 962.08 1000.04 969.526 997.894C973.5 996.751 971.029 979.661 970.976 976C970.642 952.687 970.092 928.186 967.68 905C967.251 900.877 966.761 880.29 959.246 882.183M1765 933L1765 941C1762.12 938.62 1762.21 936.537 1763 933L1765 933M1765 946C1765.82 948.372 1765.95 950.487 1766 953L1764 953C1764.05 950.487 1764.18 948.372 1765 946M548 1418C530.305 1418 512.628 1417.66 495.003 1418.02C472.819 1418.48 450.271 1415.93 429.568 1413.91C426.873 1413.65 414.23 1417.11 414.786 1420.71C415.299 1424.03 423.593 1423.77 426 1423.94C438.537 1424.83 450.517 1423.94 463 1424.01C513.932 1424.3 567.28 1420.16 618 1425.22C636.05 1427.02 669.07 1439.44 686.488 1431.1C696.939 1426.1 664.602 1424 662 1424C625.411 1424 588.812 1411.48 552 1418C556.542 1396.88 554.32 1374.47 555.04 1353C556.512 1309.16 557 1264.91 557 1221C557 1205.06 557.728 1188.92 556.922 1173C556.586 1166.36 553.483 1155.56 555.958 1149.28C558.259 1143.45 574.75 1145.23 580 1144.68C605.817 1141.99 632.16 1144.93 658 1145C662.75 1145.01 688.046 1149.35 687.214 1142.22C686.594 1136.89 677.606 1138 674 1138C659.954 1137.99 646.028 1137 632 1137C583.243 1137 528.992 1147.18 481 1139.76C473.784 1138.64 433.54 1134.55 429.969 1141.71C427.105 1147.46 452.91 1146 456 1146C479.395 1146 502.597 1146.13 526 1146C533.72 1145.96 545.034 1143.47 549.113 1151.71C556.148 1165.92 551 1195.96 551 1212C551 1261.15 552.635 1311 549.941 1359.98C549.009 1376.93 541.115 1401.84 548 1418M794 1408C800.393 1420.8 830.492 1413 842 1412.05C889.109 1408.19 937.51 1407.98 985 1407.02C995.675 1406.8 1035.82 1415.27 1038.94 1404.99C1053.25 1357.71 1013.56 1288.92 966.68 1278.54C947.883 1274.38 930.818 1279.78 913.008 1281.24C893.494 1282.85 867.759 1280.14 848 1275.54C829.763 1271.3 810.959 1265.86 802.76 1247C796.355 1232.27 793.597 1210.99 792.155 1195C791.59 1188.74 788.418 1161.25 792.9 1157.26C801.257 1149.82 836.88 1156.12 848 1155.99C900.573 1155.41 950.483 1163 1002.14 1150.22C1015.04 1147.02 1027.17 1151.2 1040 1150.12C1042.59 1149.9 1051.73 1151.42 1052.89 1148.29C1054.84 1143.03 1042.98 1144.83 1041 1144.92C1027.11 1145.58 1014.08 1142.51 1000 1144.34C978.826 1147.08 956.257 1153.04 935 1153.82C900.532 1155.09 866.495 1148.9 832 1149C818.716 1149.04 805.286 1150.23 792 1150.7C789.029 1150.81 780.438 1147.77 778.969 1151.54C777.361 1155.67 783.775 1160.12 784.635 1164.04C787.498 1177.07 784.053 1190.75 787.224 1204C790.892 1219.33 788.524 1238.17 796.937 1252C819.101 1288.44 861.137 1282.17 896.93 1286.17C902.637 1286.8 902.182 1294.34 908.049 1294.45C914.567 1294.57 918.975 1286.77 925 1284.94C938.297 1280.91 966.445 1283.66 979 1289.5C1008.47 1303.22 1029.32 1342.75 1031.08 1374C1031.4 1379.8 1035.64 1398.08 1030.48 1401.96C1025.66 1405.59 1015.27 1402.28 1010 1401.33C996.328 1398.89 982.742 1401 969 1401C926.609 1401 881.231 1401.8 839 1405.78C824.959 1407.1 806.728 1402.84 794 1408M1283.28 1143.94C1277.64 1146.66 1280.89 1155.35 1281.16 1160C1281.97 1173.81 1279.11 1189.26 1277.68 1203C1272.03 1257.14 1270.98 1311.82 1271 1366C1271 1380.5 1267.5 1420.93 1291.68 1411.53C1359.67 1385.12 1411.96 1309.48 1382.42 1237.44C1368.88 1204.43 1344.34 1176.41 1315 1157.37C1308.27 1153 1291.67 1139.9 1283.28 1143.94M2024 1162C2013.53 1185.19 1994.41 1205.62 1979.44 1226C1963 1248.38 1949.74 1272.63 1933.17 1295C1929.42 1300.06 1902.48 1333.05 1909.87 1338.67C1913.71 1341.6 1920.29 1334.66 1923 1332.62C1934.4 1324.07 1945.7 1315.42 1957 1306.74C1989.21 1282 2024.76 1259.33 2058.66 1236.94C2071.2 1228.65 2089.61 1212.2 2104 1209C2078.81 1236.78 2062.4 1268.48 2042.82 1300C2028.78 1322.61 2011.56 1344.09 1999.74 1368.02C1993.26 1381.13 1983.76 1392.72 1977.75 1406C1976.26 1409.29 1972.24 1416.66 1975.97 1419.8C1978.92 1422.28 1985.82 1416.09 1988 1414.41C1998.48 1406.31 2009 1398.92 2020 1391.53C2053.26 1369.19 2087.65 1350.29 2124 1333.47C2129.31 1331.01 2158.14 1322.93 2158 1316.17C2157.9 1311.09 2143.8 1318.17 2142 1319.06C2125.81 1327.05 2108.99 1333.52 2093 1341.95C2078.41 1349.64 2062.7 1355.81 2049 1365.16C2028.9 1378.9 2006.29 1398.68 1984 1408C1991.95 1383.81 2013.23 1357.66 2026.97 1336C2048.09 1302.69 2066.24 1266.48 2090.07 1235C2099.7 1222.29 2111.01 1210.55 2121.68 1198.71C2123.21 1197.01 2132.85 1189.56 2130.04 1187.24C2126.37 1184.24 2119.91 1190.34 2116.98 1192.08C2104.29 1199.66 2092.94 1209.19 2080.08 1216.49C2039.91 1239.3 2002.69 1268.4 1964.14 1293.87C1951.02 1302.54 1935.36 1320.89 1920 1324C1954.19 1281.19 1983.72 1233.9 2014.87 1188.78C2022.3 1178.02 2029.29 1167.21 2037.52 1157.01C2038.9 1155.3 2045.96 1148.65 2043.03 1146.29C2037.75 1142.03 2012.64 1163.21 2008 1166.68C1981.34 1186.62 1952.38 1203.68 1925.22 1222.98C1921.8 1225.41 1898.86 1239 1900.1 1242.68C1901.71 1247.43 1910.18 1241.21 1912.24 1239.91C1923.37 1232.9 1932.43 1223.17 1943.46 1216.03L1976 1195.08C1992.08 1184.68 2007.45 1171.4 2024 1162M1286 1149C1350.44 1165.63 1410.53 1265.24 1375.35 1327.87C1360.26 1354.72 1337.91 1380.5 1310 1394.3C1304.76 1396.88 1290.64 1407.33 1284.67 1404.15C1272.05 1397.45 1279.01 1356.75 1277.67 1345C1270.38 1280.85 1287.23 1213.55 1286 1149M1666 1159.48C1651.17 1161.66 1630.06 1163.53 1617.32 1171.49C1585.26 1191.51 1598.28 1229.78 1616.82 1254.08C1624.96 1264.75 1650.68 1272.01 1655.18 1282.19C1658.38 1289.42 1658.68 1324.54 1655.18 1331.63C1653.22 1335.62 1634.44 1334.28 1636.97 1339.29C1639.28 1343.87 1650.22 1339.24 1654.06 1341.7C1657.37 1343.82 1656 1351.68 1656 1355C1656 1367.96 1656.42 1380.21 1657.92 1393C1658.35 1396.64 1657.81 1408.73 1663.82 1408.13C1668.99 1407.62 1664.51 1395.12 1664.22 1392C1663.36 1382.64 1657.92 1348.67 1665.28 1342.68C1666.98 1341.3 1674 1341.22 1674 1338.73C1674 1334.16 1664.66 1335.25 1662.86 1331.52C1659.33 1324.16 1659.61 1291.8 1663.82 1284.58C1665.66 1281.43 1676.37 1282.34 1680 1281C1694.43 1275.64 1708.26 1270.94 1718.81 1259C1751.18 1222.38 1714.15 1152.4 1666 1159.48M112 1384C109.249 1385.76 102.632 1391.42 107.53 1394.66C114.805 1399.48 131.009 1392.5 139 1392.21C166.823 1391.21 195.053 1390.56 223 1390.02C230.252 1389.88 251.634 1395.61 257.149 1391.42C261.341 1388.23 244.106 1366.98 241.435 1363C228.361 1343.53 216.445 1323.82 204.039 1304C198.813 1295.65 189.025 1285.67 186.654 1276.01C185.364 1270.75 193.472 1261.52 196.161 1257.22C206.699 1240.35 217.831 1224.11 228.835 1207.56C236.176 1196.52 242.171 1184.94 249.624 1174C250.753 1172.34 256.662 1164.38 252.41 1163.11C248.898 1162.06 241.323 1168.86 239.063 1171.3C231.485 1179.48 226.958 1198.62 219.551 1209C189.814 1250.66 167.549 1296.91 138.717 1339C132.967 1347.39 108.83 1374.72 112 1384M1625 1175C1623.83 1177.72 1618.46 1190.72 1625.83 1183.79C1635.15 1175.02 1641.04 1169.78 1654 1167.86C1668.47 1165.71 1682.35 1162.32 1695.96 1170.36C1747.99 1201.08 1721.42 1284.86 1661.78 1271.9C1650.64 1269.48 1642.21 1267.75 1632 1260.35C1612.19 1245.99 1582.68 1182.21 1625 1175M246 1384C214.642 1383.88 183.368 1385.08 152 1385C141.58 1384.98 127.593 1389.3 118 1387C132.635 1360.95 149.253 1337.2 165.369 1312C168.311 1307.4 177.913 1287.78 183.609 1287.62C188.271 1287.5 197.152 1307.05 199.473 1310.86C214.117 1334.92 234.585 1358.18 246 1384M114 1364C114.64 1352.35 103.87 1355.16 114 1364M116 1387.33C116.889 1387.33 116.889 1388.67 116 1388.67C115.111 1388.67 115.111 1387.33 116 1387.33M129 1517.76C113.227 1521.26 76.6681 1521.63 67.2565 1537.3C61.3244 1547.18 66.5418 1556.92 66.9563 1567C67.4153 1578.16 64.2926 1588.26 61.8786 1599C59.7909 1608.29 44.6141 1644.76 56.6451 1651.18C64.1941 1655.2 80.944 1649.84 89 1648.7C109.976 1645.75 131.859 1647.99 153 1648C159.352 1648 176.345 1645.5 181.322 1649.26C186.474 1653.15 183.904 1667.34 184.019 1673C184.389 1691.25 180.405 1719.75 187.141 1736.77C191.555 1747.93 205.615 1746.14 215 1748.74C230.858 1753.15 242.61 1747.87 258 1749.12C275.206 1750.51 296.854 1758.74 313.97 1753.4C315.945 1752.78 320.615 1749.89 318.03 1747.38C314.31 1743.77 307.854 1749.16 304.604 1743.71C300.294 1736.49 300.944 1722.33 299.815 1714C297.271 1695.23 293.026 1662.24 282.702 1646.15C272.895 1630.86 234.479 1637.66 220 1640.14C214.156 1641.14 201.811 1645.09 196.814 1640.18C192.14 1635.59 194.524 1624.88 193.601 1619C190.316 1598.08 192 1577.25 192 1556C192 1548.78 193.103 1534.12 188.818 1528.03C184.562 1521.97 164.48 1521.13 157.217 1518.7C148.981 1515.95 137.49 1515.88 129 1517.76M1974.44 1517.78C1882 1542.55 1836.11 1673.76 1898.58 1750.94C1923.95 1782.28 1971.97 1785.04 2007.56 1784C2019.36 1783.66 2031.09 1787.18 2043 1783.79C2063.49 1777.96 2080.76 1758.14 2092.02 1741C2121.75 1695.73 2132.72 1635 2085 1598.05C2071.95 1587.94 2052.33 1582.11 2036 1584.76C2031.55 1585.48 2012.39 1594.61 2009.62 1591.67C2005.67 1587.46 2009.94 1574.99 2010.55 1570C2013.44 1546.68 2019.8 1519.64 1990 1517.12C1985.04 1516.7 1979.27 1516.48 1974.44 1517.78M1979 1523.36C1986.03 1522.39 2003.38 1521.82 2006.31 1530.13C2013.91 1551.62 1999.48 1583.17 1997.89 1604.92C1995.32 1640.1 2001 1680.65 2001 1717C2001 1729.13 2006.45 1778.05 1991.56 1780.02C1976.38 1782.02 1957.67 1775.07 1944 1769.43C1929.98 1763.65 1913.76 1758.74 1903.38 1746.95C1843.27 1678.7 1886.84 1536.12 1979 1523.36M131 1524.32C141.611 1523.21 175.452 1524.89 182.396 1533.82C190.397 1544.11 185.382 1576.43 184.96 1589C184.513 1602.32 187.29 1614.75 187.388 1627.68C187.418 1631.65 190.203 1639.08 184.849 1639.85C158.154 1643.73 127.718 1635.61 102.217 1640.55C94.4134 1642.06 67.5432 1648.71 61.0499 1643.66C53.8276 1638.04 67.1254 1606.67 68.6391 1599C70.8878 1587.61 73.3464 1575.67 72.9545 1564C72.6946 1556.26 68.8461 1547.81 73.5857 1540.52C81.3831 1528.52 117.908 1525.69 131 1524.32M574 1605C579.805 1553.87 480.432 1502.88 446.097 1548.1C415.899 1587.87 456.179 1647.99 497 1660.08C506.256 1662.83 519.447 1663.45 528.999 1662.15C532.347 1661.69 539.153 1657.22 542.179 1659.26C547.49 1662.84 546.552 1680.15 549.625 1686.32C562.59 1712.35 597.817 1747.13 630 1731.07C656.924 1717.63 679.388 1686.44 671.264 1655C661.761 1618.23 608.847 1592.86 574 1605M918 1532C881.944 1576.11 852.972 1628.24 823.19 1677C818.201 1685.17 794.573 1719.36 802.083 1728.22C810.184 1737.77 837.25 1730 848 1730C892.456 1730.01 936.569 1732.01 981 1732C988.536 1732 1028.34 1732.38 1030.95 1725.63C1032.93 1720.52 1026.21 1715.36 1023.35 1712.08C1014.79 1702.24 1010.54 1689.12 1003.82 1678C974.894 1630.18 951.464 1576.3 918 1532M479 1546C474.832 1533.44 496.495 1538.23 503 1539.8C522.17 1544.43 544.204 1558.93 556.678 1574C575.519 1596.76 563.056 1638.65 536.997 1651.16C515.426 1661.52 485.251 1651.81 468.044 1636.66C440.625 1612.53 426.597 1541.12 479 1546M961 1619C927.561 1594.66 905.121 1607.58 869 1615C877.509 1597.27 890.459 1579.17 902.921 1564.02C905.675 1560.67 911.544 1549.29 916.115 1548.78C920.447 1548.29 927.483 1559.94 929.8 1563C940.244 1576.79 958.632 1601.9 961 1619M1682 1581C1678.81 1569.02 1658.37 1580.6 1650.71 1576.74C1646.67 1574.71 1648.08 1563.76 1647.68 1560C1647.52 1558.55 1646.96 1548.36 1643.62 1550.54C1636.47 1555.2 1648 1572.95 1641.42 1578.94C1637.25 1582.74 1604.83 1583.67 1605.43 1587.94C1607.04 1599.56 1639.35 1581.8 1643.18 1588.54C1648.09 1597.18 1645 1618.1 1645 1628C1645 1658.76 1647.9 1689.26 1648 1720C1648.03 1728.93 1655.34 1750.87 1648.18 1758.07C1643.95 1762.32 1634.16 1760.88 1628.68 1761.42C1614.21 1762.86 1573.69 1769.61 1561.58 1761.04C1553.81 1755.54 1548.74 1740.31 1544.09 1732.14C1542.24 1728.87 1529.96 1703.64 1526.41 1710.34C1523.35 1716.11 1533.59 1727.3 1536.11 1732C1541.92 1742.88 1549.28 1766.56 1562.01 1770.98C1567.91 1773.03 1577.62 1770.01 1584 1770C1603.73 1769.95 1623.35 1767.41 1642.99 1766.54C1647.08 1766.36 1649.98 1771.21 1653.5 1770.68C1657.83 1770.02 1659.11 1764.27 1665 1764.03C1690.53 1762.99 1713.52 1767.89 1739 1763.58C1754.21 1761.01 1760.26 1754.38 1761.9 1739C1762.2 1736.18 1765.19 1726.1 1761.41 1724.76C1755.59 1722.71 1753.1 1750.36 1747.93 1753.66C1728.83 1765.88 1701.12 1759.02 1680 1759C1675.13 1759 1659.37 1761.12 1656.64 1756.5C1653.05 1750.42 1656.43 1737.06 1655.78 1730C1653.37 1703.55 1652 1676.6 1652 1650C1652 1635.47 1653.07 1620.47 1651.78 1606C1651.35 1601.16 1647.69 1591.75 1650.29 1587.47C1654.27 1580.92 1675.07 1580.77 1682 1581M2038 1592.36C2076.25 1586.89 2105.56 1619.79 2111.65 1654.22C2119.1 1696.37 2080.62 1773.68 2035 1778.76C2025.93 1779.78 2011.38 1779 2007.5 1768.53C2003.78 1758.49 2007 1741.71 2007 1731L2007 1645C2007 1635.39 2002.75 1613.47 2007.52 1605.36C2012.26 1597.29 2029.47 1593.58 2038 1592.36M598 1608.4C624.542 1606.99 660.078 1633.1 665.517 1659.02C671.913 1689.48 645.399 1725.75 613.997 1727.85C582.715 1729.95 543.9 1686.66 550.234 1655.22C552.178 1645.57 567.125 1632.58 572.925 1624.26C575.337 1620.8 571.978 1617.54 573.965 1614.07C578.064 1606.9 591.003 1608.77 598 1608.4M908 1610.4C950.173 1603.86 970 1634.82 970 1673C970 1694.56 968.453 1719.92 942 1724.58C924.705 1727.63 904.147 1729.52 888.217 1720.25C862.365 1705.21 838.041 1659.7 859.674 1632.08C871.051 1617.56 890.751 1613.07 908 1610.4M1380.29 1615.09C1373.47 1617.64 1371.44 1635.06 1368.81 1641C1361.57 1657.36 1343.82 1680.14 1323.98 1680.82C1279.54 1682.36 1279.84 1608.55 1233 1615.36C1208.95 1618.86 1190.28 1631.08 1177.65 1652C1175.94 1654.84 1164.29 1683.35 1170.14 1683.36C1174.22 1683.36 1183.01 1655.1 1185.55 1651.04C1197.4 1632.06 1224.31 1617.61 1247 1623.06C1282.17 1631.51 1282.65 1692.08 1329 1686.76C1350.41 1684.31 1368.07 1660.55 1375.31 1642C1376.63 1638.62 1388.07 1612.17 1380.29 1615.09M295 1746C265.98 1740.86 223.018 1753 197.325 1737.17C191.272 1733.44 193.014 1724.03 192.999 1718C192.961 1702.03 191 1686.09 191 1670C191 1665.92 188.557 1653.2 191.3 1650.26C195.739 1645.5 218.292 1648.14 225 1647.3C239.345 1645.51 261.36 1639.94 274.587 1648.38C281.096 1652.54 282.866 1667.02 284.177 1674C288.681 1697.99 296.349 1721.7 295 1746M976 1647C988.3 1659.63 999.821 1682.81 1007 1699C989.611 1699.6 1020.95 1714.66 1023 1723C1004.26 1719.68 977.878 1724.27 959 1727C962.627 1716.89 973.23 1711.3 975.601 1700C979.074 1683.45 971.098 1662.02 976 1647M846 1652C846 1684.18 860.173 1701.08 882 1723C864.783 1727.35 843.935 1721.53 826 1723.56C822.593 1723.95 810.609 1726.69 809.057 1722.31C807.454 1717.79 814.64 1709.18 816.295 1705C823.739 1686.18 836.409 1670.56 844 1652L846 1652M1814 1912C1785.22 1917.85 1752.89 1937.29 1726 1949.57C1720.9 1951.9 1699.77 1964.39 1694.93 1960.68C1690.13 1957.01 1703.67 1943.41 1706.02 1941C1720.38 1926.3 1733.45 1911.25 1745.79 1895C1748.91 1890.9 1758.77 1883.74 1758.9 1878.43C1759.05 1871.64 1738.96 1893.2 1737.11 1896.04C1732.93 1902.49 1727.75 1907.83 1722.42 1913.32C1714.33 1921.66 1707.19 1930.78 1698 1938C1703.04 1916.74 1709.32 1896 1714.98 1875C1715.93 1871.45 1720.73 1856.62 1715.65 1854.76C1711.68 1853.31 1709.32 1867.46 1708.78 1870C1704.96 1888.01 1697.3 1905.2 1693.06 1923C1679.33 1980.65 1633.11 2015.76 1598.92 2061.96C1589.53 2074.65 1580.39 2087.55 1571.3 2100.44C1568.72 2104.1 1564.87 2112.8 1560.2 2114C1555.3 2115.25 1558.78 2099.01 1559.28 2097C1563.89 2078.62 1565.38 2054.92 1565.97 2036C1566.05 2033.69 1565.97 2012.86 1559.72 2016.54C1556.11 2018.67 1559.03 2041.19 1558.43 2046C1555.14 2072.62 1553.58 2098.3 1552.69 2125C1552.51 2130.27 1546.43 2148.42 1550.15 2152.12C1554.07 2156.01 1575.19 2141.15 1580 2138.82C1606.45 2126.01 1633.94 2108.69 1662 2099.68C1666.48 2098.24 1689.26 2093.61 1686.67 2089.22C1682.87 2082.8 1666.05 2090.29 1661 2092.5C1635.76 2103.51 1612.43 2118.06 1586.99 2128.67C1583 2130.34 1558.47 2144.82 1557.92 2138.79C1556.35 2121.53 1585.16 2089.67 1595.73 2077C1609.96 2059.93 1628.71 2045 1641.37 2026.92C1653.14 2010.11 1664.96 1983.84 1680.79 1970.88C1683.97 1968.29 1690.89 1971.08 1695 1970.01C1705.9 1967.16 1715.99 1961.67 1726.08 1956.85C1747.92 1946.41 1770.6 1937.64 1792.56 1927.5C1800.75 1923.72 1813.23 1922.83 1814 1912M2126 2126C2125.41 2101.08 2119.82 2075.19 2119.03 2050C2117.67 2006.67 2123 1962.87 2128.55 1920C2130.58 1904.35 2132.05 1888.71 2133.68 1873C2133.87 1871.15 2135.32 1857.59 2131.22 1859.11C2127.61 1860.44 2128.79 1870.89 2128.44 1874C2126.67 1889.73 2123.54 1905.24 2121.9 1921C2120 1939.35 2117.42 1957.66 2116.14 1976C2115.76 1981.44 2117.94 1991.8 2113.82 1996.14C2110.39 1999.74 2095.92 1996.88 2091 1997.04C2069.55 1997.76 2039.72 2002.71 2019.07 1996.04C2011.03 1993.44 2015.57 1978.36 2016.21 1972C2018.81 1945.94 2015.69 1919.92 2018.81 1894C2019.13 1891.35 2023.54 1864.23 2018.28 1866.11C2012.47 1868.18 2015.02 1886.99 2014.24 1892C2010.19 1918.17 2014.48 1945.13 2010.17 1971.14C2009.33 1976.23 2011.31 1992.89 2005.72 1994.86C1986.71 2001.55 1950.47 1992.51 1930 1991.82C1924.93 1991.64 1910.77 1994.01 1907.4 1989.18C1903.96 1984.27 1908.25 1970.64 1908.79 1965C1910.95 1942.22 1906.99 1917.26 1912 1895C1912.57 1892.46 1914.45 1868.17 1908.46 1871.54C1902.03 1875.17 1905.14 1913.14 1904.32 1921C1901.87 1944.52 1898.45 1971 1896.92 1993.43C1895.01 2021.51 1902.03 2052.37 1902 2081C1901.99 2096.01 1901.46 2110.97 1900.96 2126C1900.84 2129.59 1897.99 2139.41 1903.08 2140.89C1908.4 2142.45 1907.98 2125.95 1908 2123C1908.11 2102.83 1909.27 2082.12 1907.86 2062C1906.76 2046.15 1905.04 2029.89 1905 2014C1904.99 2009.97 1903.37 2001.1 1906.26 1997.88C1909.4 1994.37 1925.27 1997.91 1930.01 1997.99C1951.49 1998.34 1984.62 1993.66 2004.72 2001.39C2010.42 2003.59 2008 2017.12 2008 2022C2007.98 2044.35 2008.92 2066.62 2009.12 2089C2009.16 2093.77 2008.54 2115 2016.78 2115C2021.1 2114.99 2016.59 2102.98 2016.3 2101C2014.17 2086.31 2015.67 2070.81 2014.92 2056C2014.3 2043.78 2008.13 2014.28 2015.04 2003.72C2018.03 1999.15 2032.44 2002.54 2037 2002.86C2053.03 2003.98 2069.36 2005.42 2085.35 2004.55C2093.45 2004.11 2103.19 2000.36 2110.72 2005.47C2117.2 2009.87 2113 2025.25 2113 2032C2113 2055.4 2115.94 2078.68 2116 2102C2116.02 2111.14 2114.67 2124.05 2126 2126M300 1887C292.148 1906.64 268.028 1923.25 254.46 1939.32C209.048 1993.1 152.217 2036.88 113.107 2095.96C101.689 2113.21 84.9697 2129 70.7778 2144.08C67.5844 2147.47 56.7799 2158 63.5201 2163.03C68.4834 2166.74 73.6084 2151.77 76.0992 2149C89.9387 2133.63 104.485 2118.61 116.851 2101.99C149.612 2057.97 189.985 2023.99 225.639 1982.99C241.861 1964.34 258.041 1946.15 274.904 1928C281.963 1920.4 287.696 1910.05 297 1905C292.916 1917.43 293.147 1930.1 291.788 1943C290.873 1951.68 289.464 1960.33 288.441 1969C287.405 1977.78 282.983 1991.36 283.895 1999.79C284.57 2006.01 291.732 2001.11 293.06 1997.95C303.752 1972.47 294.312 1936.12 302.565 1909C304.246 1903.48 315.229 1882.34 311.488 1877.84C308.045 1873.7 289.605 1883.44 285 1884.7C255.359 1892.77 229.667 1907.4 203 1922.03C198.235 1924.65 175.051 1933.9 176.087 1939.97C177.616 1948.93 201.137 1931.51 204.864 1929.36C234.179 1912.41 266.275 1893.11 300 1887M160.667 1879.33C160.222 1879.78 161.278 1879.72 161.333 1879.67C161.778 1879.22 160.722 1879.28 160.667 1879.33M1154 2145C1151.79 2147.05 1138.72 2150.3 1142.03 2154.23C1145.16 2157.94 1153.15 2154.65 1157 2154.02C1170.28 2151.82 1184.59 2152.28 1198 2153.68C1235.86 2157.62 1276.02 2156.56 1314 2156.06C1330.65 2155.84 1346.07 2161.62 1363 2157.46C1372.34 2155.16 1399.43 2156.51 1405.5 2150.49C1410.01 2146.01 1406.73 2134.88 1407.14 2129C1408.73 2106.13 1407.48 2082.93 1407.02 2060C1406.2 2019.82 1404 1978.88 1404 1939C1404 1929.16 1409.18 1899.46 1403.96 1891.88C1392.61 1875.37 1347.39 1886.85 1333 1892.67C1284.96 1912.07 1261.53 1965.1 1263.45 2013C1264.2 2031.69 1275.81 2043.81 1268.73 2065C1257.26 2099.32 1220.25 2127.43 1185.92 2134.93C1173.05 2137.74 1160.15 2134.73 1148.01 2136.91C1134.98 2139.25 1149.59 2144.05 1154 2145M432 2152C436.967 2132.85 450.406 2117.02 458.387 2099C473.706 2064.42 486.98 2027.96 498.51 1992C504.83 1972.29 512.728 1954.02 520.033 1934.78C523.494 1925.67 524.027 1914.19 531 1907C533.304 1925.97 529.739 1945.77 532.214 1964.86C537.644 2006.77 545.942 2047.95 550.32 2090C551.813 2104.34 552.909 2119.59 553.002 2134C553.02 2136.68 552.571 2147.33 557.775 2145.78C562.032 2144.5 561.903 2133.63 562.687 2130C566.216 2113.69 573.574 2098.73 578.892 2083C591.766 2044.91 609.534 2006.63 628.013 1971C636.303 1955.02 644.181 1934.16 658 1922C658 1953.05 665.346 1982.31 668.118 2013C670.051 2034.41 672.868 2055.6 674.022 2077C675.257 2099.93 680.739 2122.39 684.242 2145C684.587 2147.22 685.577 2169.3 692.042 2163.67C699.18 2157.46 687.004 2125.39 686.096 2117C680.8 2068.07 672.606 2019.04 668.866 1970C667.547 1952.7 664.005 1936.59 664 1919C663.999 1916.05 665.176 1905 660.195 1905C656.235 1905 653.157 1915.12 651.766 1917.96C645.378 1931.01 635.043 1941.79 628.866 1954.98C611.122 1992.88 593.47 2030.22 577.603 2069C572.337 2081.87 568.211 2109.75 557 2118C557 2088.97 557.326 2054.76 549.741 2026.69C544.339 2006.71 542.083 1984.47 538.627 1964C535.602 1946.09 538.061 1926.15 537.999 1908C537.985 1903.89 537.713 1891 533.378 1888.82C529.248 1886.74 528.161 1896.92 527.341 1899C522.607 1910.99 517.612 1922.8 513.187 1935C494.623 1986.19 477.225 2038.91 455.757 2089C448.945 2104.89 439.363 2119.27 432.149 2135C429.752 2140.23 425.539 2148.67 432 2152M1361 1893.4C1368.49 1892.24 1392.01 1890.19 1396.74 1897.42C1405.02 1910.06 1399 1942.16 1399 1957C1399 2005.09 1404.47 2053.95 1400.22 2102C1399.17 2113.85 1405.1 2131.49 1399.18 2142.5C1396.95 2146.65 1382.49 2147.8 1378 2148.66C1329.35 2157.91 1277.02 2148.57 1228 2147.03C1216.12 2146.65 1204.91 2147.25 1193 2146.22C1191.23 2146.06 1181.64 2147.28 1181.64 2144.63C1181.64 2141.01 1205.41 2136.09 1209.32 2134.24C1233.44 2122.82 1254.59 2104.16 1268.04 2080.96C1277.85 2064.01 1281.23 2045.2 1276.9 2026C1275.11 2018.11 1270.16 2012.58 1270.16 2004C1270.14 1949.55 1305.1 1902.06 1361 1893.4M987 1940C983.677 1941.42 975.06 1941.88 972.949 1943.86C970.576 1946.09 973.749 1951.65 971.547 1955C961.796 1969.87 941.5 1993.44 926 2002C925.368 1974.56 907.494 1947.43 904.882 1919.08C904.529 1915.24 902.685 1895.95 898.326 1897.11C888.96 1899.6 880.065 1933.48 876.628 1942C858.143 1987.84 837.439 2032.66 820.074 2078.96C813.402 2096.75 806.01 2113.65 800.522 2132C799.053 2136.91 794.384 2147.63 796.843 2152.5C799.788 2158.33 812.431 2153.33 817 2152.61C835.835 2149.65 857 2148.99 876 2149C898.416 2149.01 919.762 2151.05 942.04 2149.12C946.528 2148.73 958.66 2153.11 961.498 2149.91C967.875 2142.72 955.346 2113.73 953.6 2105C949.05 2082.25 942.695 2059.8 937.892 2037C936.385 2029.84 930.26 2019.37 931.677 2012.14C933.989 2000.33 951.847 1986.2 959.997 1978C964.217 1973.76 971.774 1960.37 977.313 1958.64C982.447 1957.04 995.639 1985.56 998.056 1990C1014.74 2020.67 1026.97 2055.7 1046.02 2084.78C1049.52 2090.13 1062.89 2115.77 1067.21 2110.69C1074.95 2101.57 1051.2 2080.34 1047.43 2071C1030.27 2028.43 990.742 1984.58 987 1940M805 2149C807.456 2122.8 818.643 2099.01 828.046 2074.86C841.672 2039.87 854.424 2002.37 871.483 1969C878.109 1956.04 883.11 1942.31 889.035 1929C890.001 1926.83 892.78 1915.94 895.783 1916.43C899.466 1917.03 898.907 1926.41 899.131 1929C900.194 1941.28 904.145 1954.41 908.258 1966C923.607 2009.24 937.739 2054.55 945.139 2100C946.469 2108.17 957.954 2134.49 952.722 2141.18C948.076 2147.11 922.204 2144 915 2144C877.518 2144 841.906 2143 805 2149M1500.68 2115.53C1498.54 2116.85 1499.93 2121.48 1502.3 2119.6C1503.95 2118.29 1503.02 2114.09 1500.68 2115.53M1176 2143.33C1176.89 2143.33 1176.89 2144.67 1176 2144.67C1175.11 2144.67 1175.11 2143.33 1176 2143.33z"/>
</svg>
