<?xml version="1.0" standalone="yes"?>
<svg xmlns="http://www.w3.org/2000/svg" width="2200" height="2200">
<path style="fill:#0c0c0c; stroke:none;" d="M907 82C904.006 66.6899 908.999 48.6475 909 33C909 31.2383 907.923 13.6836 902.818 21.8252C899.988 26.3389 902.012 36.8013 901.999 42C901.964 56.9871 900.251 71.9871 899.982 87C899.017 140.872 891.676 197.875 893.384 250.882C894.006 270.185 892.105 289.294 891.997 309C891.987 310.859 890.065 331.381 896.77 325.67C900.59 322.417 899.193 311.414 899.059 307C898.698 295.055 895.531 266.538 902.26 256.461C905.795 251.167 915.647 253.338 921 252.772C932.191 251.59 948.505 247.247 958.136 241.312C984.887 224.828 992.831 176.307 997.639 148C1007.05 92.6055 956.236 43.4031 907 82M1638.81 21.4077C1634.75 24.304 1642.14 48.8186 1642.68 54C1644.98 76.1152 1643.57 98.7847 1644.02 121C1644.2 130.151 1647.43 141.934 1644.5 150.844C1642.63 156.537 1630.74 153 1626 153C1610.32 153 1591.14 155.489 1578 164.497C1548.38 184.801 1524.27 218.609 1528.18 256C1531.37 286.58 1563.66 322.98 1596.78 307.457C1627.15 293.227 1645.31 238.782 1648.68 208C1649.91 196.753 1646.25 168.854 1654.5 160.701C1666.73 148.625 1699.3 154.177 1715 152.783C1733.71 151.121 1749.6 153.935 1768 154.001C1771.88 154.015 1786.08 158.87 1785.21 151.334C1784.22 142.676 1761.75 146.295 1756 145.783C1733.69 143.795 1709.36 144.214 1687 146.146C1677.93 146.93 1664.29 154.054 1655.28 150.942C1649.96 149.103 1651.45 134.625 1651.2 130C1650 107.907 1648.01 84.9714 1648 63C1648 51.7434 1647.85 41.092 1645.74 30.0002C1645.3 27.7273 1642.86 18.5254 1638.81 21.4077M287 52C265.278 77.7729 243.153 103.036 221.638 129C214.689 137.386 204.995 155.914 194.845 160.181C176.977 167.693 150.551 160.075 131.438 164.759C116.355 168.454 98.3802 172.055 82.9993 173.078C80.172 173.266 68.2854 174.774 70.5439 179.846C73.3297 186.103 93.8235 178.044 99 177.1C128.743 171.678 159.604 167 190 167C163.936 202.353 141.756 243.449 113.883 277.007C111.057 280.411 86.3624 310.317 96.6743 310.813C102.33 311.085 117.529 283.205 121.326 278.32C147.715 244.37 164.238 197.657 197 169C197.388 202.517 192 236.134 192 270C192 274.329 190.751 301.759 197.484 300.677C203.12 299.772 200.047 285.553 200.008 282C199.794 262.799 198.591 243.097 200.682 224C202.757 205.052 198.061 178.679 204.819 161C209.14 149.698 222.176 139.255 229.576 129.69C250.446 102.713 271.793 74.1436 297 51C303.119 80.0537 286.672 120.64 282.944 150C280.13 172.169 276.21 193.634 275.078 216C273.891 239.45 273.59 263.567 274.88 287C275.086 290.739 270.563 310.502 276.827 308.317C286.611 304.902 281 268.564 281 260C281 209.173 285.783 159.01 295.68 109C298.456 94.9746 298.234 47.5422 314 47C312.893 44.5002 307.183 37.687 304.366 37.3196C299.978 36.7473 295.499 43.6526 291 44.6372C278.449 47.3843 264.768 47.9712 252 50.0835C202.199 58.3223 151.85 62.0273 102 68.3203C95.4041 69.1531 57.2745 70.7527 56.507 78.25C55.8775 84.4001 72.8219 79.1021 76 78.9597C96.6984 78.032 118.387 74.1536 139 71.5552C158.995 69.0347 179.078 65.6233 199 63.3276C228.406 59.939 257.535 54.7451 287 52M691 44.4382C628.198 51.4351 564.787 52.7273 502.864 65.686C487.182 68.9678 453.082 65.269 440.822 76.3057C436.569 80.1338 440 96.45 440 102C440 126.327 440.324 151.822 437.677 176C434.025 209.357 435.308 242.794 431.562 276C430.657 284.017 425.583 307.602 431.26 314.108C434.071 317.329 444.089 315.996 448 316C462.362 316.013 476.655 318.196 491 318.922C538.438 321.324 586.355 326 634 326C647.451 326 669.833 331.784 682.259 327.809C686.782 326.362 685.876 315.584 686.135 312C687.336 295.392 685.354 279.545 685.019 263C683.864 206.144 688.977 147.867 699.303 92C701.597 79.5886 711.663 42.1362 691 44.4382M688 50C688.736 61.8184 668.769 77.3262 661.002 84.9814C631.69 113.874 602.272 143.003 570.981 169.746C562.11 177.328 550.344 163.682 543.66 180C538.31 193.061 558.006 200.78 566.658 192.347C572.204 186.942 572.348 177.448 578.189 171.131C602.658 144.669 631.935 120.759 658.129 95.7424C671.113 83.3416 682.151 66.0701 697 56C696.992 119.498 672.647 182.778 677.136 247C678.367 264.605 679.005 282.336 679 300C678.999 304.887 680.19 315.228 676.181 318.865C668.945 325.43 640.656 320 631 320C584.637 319.999 536.41 315.381 490 312.136C476.91 311.221 464.042 309.049 451 308.136C447.709 307.906 439.898 309.46 437.822 306.178C433.144 298.783 437.979 281.403 437.999 273C438.08 240.153 442.866 207.547 443.96 175C444.731 152.025 446.872 128.975 446.997 106C447.027 100.535 444.797 85.1069 448.958 81.1816C459.328 71.3994 494.16 72.4155 508 70.5439C552.025 64.5903 596.173 61.8975 640 55.4785C655.15 53.2595 673.935 56.2258 688 50M937 73.5459C971.48 66.4634 989.922 104.229 991.864 132C995.333 181.634 971.082 238.426 919 245.639C893.673 249.147 902 218.609 902 200C902 173.398 904.582 147.444 905.922 121C906.373 112.108 904.008 96.8237 908.549 89.1182C913.823 80.1692 927.383 75.5212 937 73.5459M1303 124C1330.48 123.988 1361.76 125.201 1389 122.783C1393.21 122.408 1416.92 124.016 1415.35 117.316C1414.2 112.41 1403.58 113.946 1400 114.019C1383.58 114.352 1367.41 112.917 1351 113.002C1334.1 113.091 1313.39 119.753 1297 116.85C1286.13 114.924 1276.66 102.213 1266.22 97.7766C1239.17 86.2905 1220.67 93.1846 1194 99.978C1181.38 103.192 1169.35 108.301 1156.86 111.858C1154.19 112.621 1145.21 112.625 1144.92 116.413C1144.21 125.747 1173.77 114.401 1178 112.969C1205.48 103.664 1260.96 82.3545 1281.9 117.292C1282.35 118.049 1248.52 134.562 1244 138.284C1214.95 162.198 1184.74 209.408 1223.01 240.952C1251.81 264.692 1297.78 246.373 1312.27 214.783C1326.91 182.864 1321.01 152.103 1303 124M2022 96.4785C2005.31 97.7969 1974.85 91.9165 1960.15 100.26C1954.9 103.236 1952.19 113.924 1948.9 118.998C1938.45 135.154 1927.76 150.909 1917.97 167.484C1914.75 172.951 1891.12 204.316 1892.85 206.13C1897.49 210.995 1911.7 209.603 1918 209.922C1937.89 210.929 1985.72 201.176 2001.27 216.365C2003.89 218.929 2000.7 225.92 2002.08 229.68C2008.78 247.945 2003.54 283.267 2001.78 303C2001.46 306.643 1997.7 329.043 2003.82 328.214C2010.65 327.29 2008 307.682 2008 303C2008 278.334 2003.4 244.453 2011.51 221C2022.27 189.856 2050.49 157.86 2069.33 131.001C2072.85 125.987 2089.96 104.116 2087.11 98.7461C2086.39 97.3843 2074.25 96.4797 2072 96.1968C2056.43 94.2417 2037.56 95.2495 2022 96.4785M2012 103.538C2026.46 100.749 2043.28 103 2058 103C2062.55 103 2070.74 101.63 2073.41 106.468C2077.11 113.146 2065.14 125.646 2061.91 130.992C2050.49 149.906 2036.23 167.209 2024.9 186.217C2020.88 192.981 2015.63 205.307 2007 206.727C1984 210.51 1954.68 205.021 1931 205C1926.81 204.996 1908.97 206.14 1906.91 202.178C1903.47 195.58 1921.58 173.051 1925.19 167.003C1934.16 151.98 1944.14 137.692 1953.64 123.008C1956.67 118.32 1959.9 109.346 1965.2 106.939C1977.81 101.209 1998.19 106.2 2012 103.538M1287 125.518C1305.6 122.97 1312.18 154.343 1313.3 167C1316.25 200.144 1299.94 239.942 1263 244.554C1219.24 250.019 1203.64 209.267 1217.85 173.078C1226.23 151.724 1265.08 128.521 1287 125.518M1626 160.383C1648.74 159.441 1643.79 189.11 1643.08 203C1641.52 233.197 1618.69 302.727 1582 303.96C1547.22 305.128 1527.14 259.593 1535.58 230C1547.99 186.451 1582.46 162.186 1626 160.383M963 430C955.935 421.575 952.941 411.516 943.019 405.188C922.763 392.272 888.603 405.123 875.851 424.001C853.828 456.601 865.395 514.575 884.38 545.997C888.582 552.952 915.957 566.597 914.817 573.062C913.525 580.394 904.421 587.404 899.997 592.997C885.877 610.854 871.16 626.931 855 643.003C850.449 647.529 831.974 659.876 832.786 666.745C833.483 672.647 841.432 665.551 843 664.188C851.894 656.453 860.556 648.307 868.788 639.87C890.024 618.105 915.612 591.837 932.112 566.756C940.516 553.982 942.191 534.743 954 524C946.951 563.816 947.955 605.684 945.136 646C944.826 650.443 944.529 686.247 950.208 681.071C953.732 677.859 952.911 666.443 952.809 662C952.423 645.313 953 628.737 953 612C953 578.892 955.449 541.636 960.61 509C964.312 485.587 974.203 467.566 968.882 443C967.337 435.864 978.951 402.328 972.46 400.106C968.082 398.607 963.881 426.014 963 430M105.04 401.497C94.3968 403.331 61.1199 407.46 57.1709 418.971C55.4491 423.99 61.6851 429.164 62.6616 434C65.1345 446.246 65.2543 460.583 65.9416 473C68.4631 518.553 66 564.358 66 610C66 624.329 65.8779 638.664 66.0111 652.993C66.0443 656.565 64.5942 665.155 67.2604 667.893C76.5701 677.453 118.196 667.909 131 668.026C181.499 668.49 231.637 674.349 282 676.04C295.818 676.504 316.707 683.394 329.551 680.955C339.607 679.045 337.218 656.708 336.96 649C335.901 617.458 324.494 581.797 314.397 552.003C283.593 461.107 209.034 383.581 105.04 401.497M923 407.323C940.322 405.615 956.377 423.068 960.358 439C967.404 467.191 955.025 504.622 942.291 528.783C938.005 536.914 931.152 560.175 920.861 561.654C897.997 564.939 883.361 531.735 878.764 514.981C866.69 470.971 864.293 413.11 923 407.323M328 673C265.466 605.599 196.769 541.685 131 477.005C114.981 461.251 97.2121 448.941 80 434.731C76.9872 432.244 63.4657 425.529 65.5439 420.673C68.1358 414.618 87.6022 413.616 93.4381 411.617C128.59 399.578 176.882 410.345 210 423.618C276.165 450.135 298.285 526.6 317.332 587.96C325.528 614.363 335.045 645.213 328 673M676 587C676.325 589.253 679.58 599.843 683.466 595.108C688.078 589.49 687 562.855 687 555C687 520.34 683.589 486.95 677.005 453C675.561 445.556 678.639 432.705 676.083 426.553C675.16 424.333 667.468 417.224 665.04 417.204C661.128 417.173 657.455 422.854 652 422.98C630.72 423.472 609.045 417.888 588 415.68C575.239 414.341 544.592 409.131 533.217 413.829C517.99 420.118 498.46 441.905 485 452.598C475.792 459.913 456.991 469.591 452.888 481.217C450.936 486.748 454.136 501.2 453.982 508C453.453 531.317 453 554.628 453 578C453 597.521 452.637 615.736 454.341 635C454.694 638.987 451.333 649.316 453.326 652.058C455.796 655.456 480.374 654.682 486 656.127C501.891 660.21 517.116 660.399 533 663.543C557.604 668.413 574.365 677.139 597.76 661.503C625.6 642.897 650.196 609.348 676 587M659 429C654.935 439.91 632.834 449.76 623 455.576C610.71 462.845 599.41 475.635 586 480.594C576.261 484.196 564.981 480.895 555 481.121C542.082 481.413 528.036 484.88 515 486.111C501.222 487.412 489.699 485.077 476 485.003C472.578 484.984 463.631 486.557 461.4 483.219C459.01 479.644 465.823 474.767 468.041 472.997C478.177 464.907 489.178 457.79 499.438 449.849C508.678 442.697 525.298 423.284 536.136 420.748C575.205 411.606 619.732 434.261 659 429M1701 591C1712.56 584.949 1706.01 569.069 1706 558C1705.97 524.292 1701.85 492.946 1705.94 459C1706.79 451.951 1711.22 425.793 1704.45 421.33C1699.9 418.337 1699.11 458.051 1698.44 464C1695.01 494.248 1696.14 526.726 1698.78 557C1699.78 568.406 1697.58 579.898 1701 591M1610.77 429.408C1604.89 433.356 1610.73 457.054 1611.6 463C1615.96 492.789 1623.27 528.254 1617.54 558C1617.05 560.537 1616.19 580.605 1622.53 576.592C1629.91 571.928 1625.96 551.892 1625.31 545C1622.65 516.602 1618.01 486.23 1617.04 458C1616.94 454.942 1617.67 424.772 1610.77 429.408M664.719 436.242C669.394 435.979 669.275 446.935 669.718 450C671.988 465.735 677.491 480.918 678.011 497C678.733 519.356 688.125 552.012 678.713 573C670.67 590.935 646.458 606.377 632.003 619.078C625.572 624.729 607.766 647.82 598.588 646.781C592.717 646.116 594 634.83 594 631C593.999 613.954 594.389 597.001 594.96 580C595.807 554.743 597.99 529.207 600.8 504C601.568 497.114 598.645 483.934 601.464 478.225C606.634 467.757 627.494 459.445 637.078 453.156C643.59 448.882 656.985 436.677 664.719 436.242M72 664C75.5111 644.165 70.0611 623.091 71.0779 603C73.7633 549.94 78.7575 489.388 69 437C78.7117 438.492 87.1708 446.75 95.0779 452.187C120.147 469.426 141.564 494.54 163 516C169.14 522.147 187.76 535.069 188.575 544C189.446 553.554 169.207 568.499 163.438 575C145.059 595.71 127.013 616.7 108.135 636.999C97.833 648.078 87.593 661.04 72 664M1977 531C1975.77 538.104 1974.13 559.5 1981.87 563.769C1987.72 566.988 1984.51 555.55 1988.36 554.706C1993.97 553.475 2004.32 556.559 2009.92 557.894C2056.26 568.942 2104.07 573.515 2150 587C2139.75 591.793 2125.24 590.119 2114 592.954C2074.26 602.978 2035.36 609.51 1995.08 616.901C1982.07 619.288 1969.07 620.33 1956 622.303C1951.62 622.964 1944.84 627.25 1940.5 625.384C1932.12 621.782 1925.38 602.405 1917.32 595.878C1905.47 586.29 1889.29 582.189 1875 578.127C1872.25 577.346 1861.69 571.404 1860.11 576.347C1858.7 580.745 1868.31 583.165 1871 584.018C1884.85 588.407 1900.68 590.526 1912 600.342C1919.3 606.676 1925.44 614.242 1929.61 623.007C1931.06 626.047 1930.52 632.719 1934.29 633.882C1943.93 636.855 1960.98 627.172 1971 626.1C2010.32 621.898 2049.26 614.476 2087.96 606.42C2104.33 603.013 2120.49 597.621 2137.04 594.982C2143.45 593.96 2154.39 597.266 2153 588C2155.34 588.992 2165.8 595.375 2164.35 588.114C2162.74 580.057 2138.73 577.267 2132 576.086C2097.19 569.974 2062.95 560.879 2028 555.457C2017.86 553.884 1989.77 554.316 1984.78 543.82C1976.36 526.114 2002.29 528.33 2014 525.3C2045.91 517.049 2070.87 498.773 2050.23 466C2046.08 459.407 2040.6 453.542 2034 449.384C2008.76 433.486 1974.11 439.498 1947 443.646C1937.81 445.052 1919.08 448.368 1912.64 455.677C1910.05 458.612 1906.93 476.424 1907.05 481C1907.75 508.407 1934.5 511.062 1948.5 527.317C1951.54 530.852 1953.48 544.214 1948.64 546.893C1931.45 556.401 1899.63 555.348 1880 559.203C1874.75 560.234 1859.99 560.487 1857.54 565.955C1855.04 571.562 1874.73 565.969 1877 565.321C1896.24 559.839 1927.94 551.091 1947.86 554.94C1954.33 556.188 1950.89 572.985 1956.96 571.919C1964.91 570.52 1953.99 537.045 1957.48 531.719C1960.11 527.703 1972.77 530.983 1977 531M1950 517C1931.35 515.681 1903.85 489.876 1916.86 470C1928.2 452.683 1941.37 453.565 1959 454C1951.49 441.322 1981 445.999 1989 446C2017.13 446.002 2052.06 458.207 2053.38 491.997C2053.76 501.714 2036.77 510.936 2029 514.038C2015.61 519.378 1999.71 524.2 1985.07 523.635C1981.38 523.492 1979.16 516.596 1977.15 517.08C1970.92 518.581 1968.9 527.068 1958.28 521.937C1954.9 520.306 1954.4 513.926 1950.61 513.43C1948.72 513.183 1949.83 516.298 1950 517M1253 535C1253.8 526.554 1260.73 502.887 1254.76 495.914C1250.76 491.25 1236.02 494.47 1231 495.465C1211.93 499.246 1170.63 488.222 1156.83 502.802C1151.15 508.798 1157.92 532.941 1158.01 541C1158.12 551.278 1154.63 584.838 1162.04 592.152C1165.64 595.704 1182.6 590.911 1188 591.019C1214.44 591.548 1240.82 592 1267 592C1265.03 584.87 1258.7 586.718 1255.26 581.54C1252.75 577.763 1252.7 551.183 1255.26 547.744C1259.98 541.419 1273.55 548.059 1279 550.177C1300.84 558.659 1324.64 562.302 1347 569.352C1362.58 574.265 1378.04 580.765 1394 584.455C1396.65 585.068 1409.7 587.772 1407.89 581.349C1406.68 577.034 1381.92 573.036 1377 571.423C1351.42 563.044 1324.46 558.568 1299.44 549.054C1291.65 546.094 1279.77 546.539 1275 539C1305.62 539 1335.38 530.348 1366 530.007C1376.21 529.894 1393.8 533.857 1400 524C1390.69 520.411 1378.9 522.997 1369 523C1336.47 523.009 1303.3 530.808 1271 534C1292.92 509.946 1341.45 491.773 1371 478.529C1376.6 476.021 1404.39 468.333 1401.89 459.486C1400.24 453.609 1370.38 472.239 1366 474.439C1338.82 488.084 1311.8 502.191 1285 516.558C1274.21 522.34 1264.93 531.476 1253 535M555.129 487.865C560.557 487.237 591.507 485.971 594.73 489.848C598.358 494.213 593.167 514.208 592.445 520C588.974 547.872 591.251 576.168 588.32 604C587.266 614.006 591.56 658.872 580.931 660.629C552.872 665.266 516.793 658.879 489.078 650.585C484.305 649.157 465.083 646.67 462.814 643.178C459.544 638.145 461.365 628.735 460.67 623.003C458.071 601.572 460 580.827 460 559C460 542.773 459.009 526.188 460.136 510C460.408 506.096 459.213 496.823 461.98 493.947C465.709 490.072 481.789 492.876 487 493.255C511.053 495.003 531.655 490.581 555.129 487.865M1239 500.34C1256.52 498.935 1247.01 550.531 1247 564C1247 569.661 1249.4 582.696 1241.93 583.871C1224.87 586.552 1207.11 583.081 1190 583.081C1184.21 583.081 1174.06 586.465 1168.82 583.178C1165.54 581.117 1165.07 571.488 1165.01 567.993C1164.77 553.656 1164.14 539.298 1163.14 525C1162.87 521.212 1161.28 510.899 1164.8 508.327C1167.77 506.155 1172.42 510.216 1176.02 509.204C1196.27 503.501 1217.86 502.034 1239 500.34M93 663C97.563 652.649 109.22 644.462 116.646 636.078C134.693 615.704 152.41 595.125 170.64 574.864C174.509 570.564 190.345 547.931 196.68 549.961C206.004 552.948 217.143 570.063 224.019 577.007C246.207 599.417 269.855 620.272 292 642.563C295.517 646.103 320.734 667.216 318.456 671.138C316.753 674.071 307.634 669.553 305 669.239C291.464 667.623 277.63 668.768 264 668.078C206.978 665.191 150.056 659.585 93 663M1539.92 595.544C1535.05 598.291 1543.99 609.372 1545.64 611.96C1554.81 626.328 1573.68 637.633 1589.08 644.114C1629.15 660.984 1674.52 655.232 1716 648.408C1732.51 645.692 1756.3 640.864 1768.52 628.535C1771.05 625.991 1785.58 607.544 1777.6 605.106C1773.64 603.895 1770.45 612.509 1769.06 614.999C1762.27 627.156 1751.41 631.182 1739 636.145C1708.66 648.274 1657.91 653.611 1626 646.335C1600.94 640.619 1576.64 633.253 1557.88 614.787C1555.11 612.052 1543.64 593.444 1539.92 595.544M1963.28 669.311C1958.69 671.945 1961.37 681.423 1966.34 678.592C1970.8 676.051 1969.64 665.649 1963.28 669.311M563 1015C567.272 998.016 562.131 974.36 560.32 957C557.748 932.344 557.136 903.843 557.003 879C556.977 874.172 561.363 837.643 554.081 837.643C551.75 837.643 552.996 874.641 553 879C553.03 911.905 555.461 946.161 557.864 979C558.632 989.484 555.926 1006.69 563 1015M942 843C924.954 884.956 898.86 925.231 878.615 966C876.525 970.209 856.317 1001.58 861.672 1004.24C864.423 1005.6 880.829 972.901 882.559 969C896.398 937.795 913.14 907.726 927.881 876.999C932.77 866.808 945.143 854.854 944 843L942 843M1262 976C1268.51 960.241 1276.33 935.833 1287.54 923.177C1294.15 915.709 1304.08 914.345 1311 908C1304.11 906.664 1299.27 909.568 1293 912C1295.83 899.879 1304.22 884.79 1310.92 874.32C1312.58 871.72 1320.05 864.721 1316.78 861.224C1314.03 858.285 1306.97 871.209 1305.92 873C1297.04 888.034 1291.7 907.458 1280.02 920.598C1271.01 930.732 1251.59 939.85 1239.01 944.748C1234.11 946.656 1220.86 950.649 1218.54 955.615C1214.22 964.878 1251.66 975.489 1250.72 982.147C1248.4 998.525 1232.78 1016.98 1224.84 1031C1223.36 1033.6 1212.49 1045.02 1217.33 1047.46C1221.43 1049.52 1227.85 1036.72 1229.46 1034C1236.75 1021.64 1247.45 990.476 1259.34 983.047C1276.31 972.442 1291.47 1005.25 1303.62 1005.36C1309.64 1005.41 1297.83 994.082 1297 993.393C1287.39 985.401 1274.83 976.947 1262 976M159 871C161.35 889.896 191.697 904.223 206.438 912.395C210.421 914.604 227.357 918.392 227.357 923.805C227.357 927.78 216.208 930.91 213.32 932.649C197.735 942.034 179.975 946.749 164 955.343C160.577 957.185 145.228 964.083 148.399 969.457C150.164 972.448 164.584 960.532 168 959.041C185.176 951.545 202.552 944.558 218.992 935.513C223.147 933.228 233.62 929.755 234.894 924.629C236.495 918.19 222.181 913.524 218 911.733C194.682 901.746 178.847 885.825 159 871M2012 897C2003.82 894.028 2005.36 906.693 2004.78 912C2003.22 926.04 1998.19 936.257 1982.15 932.716C1971.8 930.433 1970.01 905.868 1961 900C1962.69 914.837 1984.97 942.28 1955 933C1955.46 946.274 1967.15 937.22 1974.66 942.039C1979.24 944.981 1981.42 951.489 1986 955C1985.25 939.666 1984.58 940.177 2001 938C1998.39 948.964 1997 959.708 1997 971C1998.76 968.703 1999.45 966.841 2000 964C2001.59 967.398 2001.95 970.265 2002 974C2014.55 969.039 2000.95 941.097 2014.32 935.839C2038.78 926.22 2034.98 966.488 2044.13 975.067C2050.47 980.999 2043.49 952.134 2042.67 950.001C2040.6 944.679 2036.95 940.283 2035 935C2039.7 934.718 2056.67 928.958 2059.46 933.822C2061.66 937.652 2057.56 945.463 2060 951C2064.21 945.926 2062.96 938.09 2067.59 933.501C2072.04 929.078 2082.13 930.992 2087.97 929.93C2089.65 929.626 2094.8 927.918 2092.59 925.231C2088.29 919.99 2075.14 930.31 2071.54 924.176C2067.15 916.699 2081.81 907.092 2073 900C2066.59 917.122 2066.08 925.203 2047 927.177C2042.5 927.642 2036.75 930.62 2033.12 926.498C2025.29 917.606 2026.81 902.082 2018.49 893.295C2014.05 888.607 2012.16 892.382 2012 897M2012 900C2012.03 901.714 2011.79 902.462 2011 904C2010.84 902.171 2011.06 901.605 2012 900M2017 906C2018.51 911.216 2024.12 919.491 2023.22 924.853C2022.59 928.674 2014.07 932.402 2012.64 927.498C2011.17 922.442 2013.7 911.145 2015 906L2017 906M1614 909C1621.43 922.453 1661.64 936.717 1658.69 955.695C1657.9 960.743 1626.53 977.266 1620.98 981.251C1618.19 983.258 1607.9 987.197 1610.89 992.392C1612.92 995.936 1621.05 987.791 1623 986.537C1632.74 980.278 1646.65 965.225 1658.85 964.748C1667.75 964.4 1659.29 984.152 1664.26 984.239C1668 984.304 1667.63 970.603 1667.94 968C1669.75 953.002 1670.47 929.637 1667 915C1658.92 920.536 1662.92 941.177 1663 950C1648.04 935.977 1636.51 913.553 1614 909M1683 989C1690.6 985.776 1687.26 976.551 1687.04 970C1686.57 956.025 1687.07 941.983 1687 928C1686.98 924.563 1687.66 915.691 1684.22 913.544C1680.54 911.252 1681 937.097 1681 940L1681 960C1681 969.864 1682.73 979.29 1683 989M2008 921C2008.68 923.3 2008.54 924.646 2008 927C2007.25 924.697 2007.25 923.303 2008 921M1277 929C1273.83 940.047 1265.62 966.991 1255.22 972.874C1249.18 976.285 1224.18 964.108 1225.32 957.21C1225.91 953.636 1235.15 951.099 1238.08 950.101C1252.11 945.329 1263.42 933.348 1277 929M2007 939C2006.66 942.689 2006.05 944.807 2003 947C2003.59 944.303 2003.9 941.758 2004 939L2007 939M1666 957L1666 960L1664 960L1664 957L1666 957M208 1284C196.985 1285.33 189.43 1296.81 180 1302C180.883 1295.33 177.237 1283.26 180.12 1277.65C185.517 1267.14 198.493 1261.49 203 1249C199.013 1250.92 195.313 1248.48 192 1250.36C186.665 1253.39 183.685 1259.89 178 1262C179.493 1256.1 174.667 1219.7 170.898 1224.01C167.734 1227.63 171.936 1240.28 171.993 1245C172.26 1267.21 172.296 1290.93 174.555 1313C174.875 1316.13 175.568 1339.52 179.783 1338.68C184.955 1337.65 180.319 1323.22 181.001 1320C183.863 1306.49 201.51 1295.71 208 1284M1969.01 1231.79C1957.16 1234.61 1965.52 1248.26 1974.97 1246.24C1985.47 1244 1977.33 1229.81 1969.01 1231.79M199 1239L198 1244C199.994 1242.46 200.41 1241.46 201 1239L199 1239M1977 1243C1974.11 1243.32 1972.95 1243.18 1971 1241C1973.39 1241.34 1974.94 1241.77 1977 1243M1626 1250C1626.15 1252.24 1626.26 1252.61 1628 1254C1627.64 1251.97 1627.48 1251.36 1626 1250M1669 1270C1666.12 1277.46 1667.65 1285.29 1666 1293C1658.42 1285.71 1651.21 1282.19 1641 1280C1643.39 1290.56 1658.93 1290.72 1665.19 1299.45C1669.26 1305.13 1670.91 1330.49 1664.54 1334.74C1658.94 1338.47 1642.56 1336.8 1636 1336C1638.13 1334.49 1667.4 1316.23 1656.48 1312.76C1651.33 1311.13 1639.19 1325.13 1635 1328.04C1620.15 1338.37 1611.37 1337.33 1594 1337C1601.03 1330.44 1622.36 1322.92 1622 1312C1607.47 1317.98 1596.24 1325.45 1583.78 1334.87C1580.96 1337 1570.8 1342.42 1575.57 1346.86C1583.23 1354 1603.99 1354.68 1614 1357.91C1616.14 1358.6 1625.72 1365.03 1625.97 1359.7C1626.38 1351.07 1603.24 1348.94 1598 1343C1607.98 1344.77 1619.36 1341.79 1628.9 1345.17C1640.35 1349.23 1648.69 1358.63 1661 1361C1660.22 1349.96 1647.52 1348.23 1641 1341C1647.21 1342.1 1659.44 1340 1664.5 1343.4C1671.22 1347.92 1666.26 1378.27 1662.53 1384C1660.34 1387.37 1645.47 1404.88 1647.62 1407.89C1650.28 1411.64 1665.71 1392.96 1668 1391C1668.08 1392.5 1667.99 1398.29 1670.86 1397.68C1673.93 1397.02 1672 1385.79 1673.37 1383.08C1680.18 1369.52 1700.88 1361.22 1702 1345C1690.94 1349.41 1685.64 1367.17 1674.15 1370.38C1670.88 1371.29 1670.42 1345.91 1673.14 1342.95C1677.4 1338.31 1684.73 1342.67 1688 1335C1684.45 1334.56 1676.6 1336.03 1673.9 1333.72C1671.88 1332 1671.01 1303.61 1672.9 1302.71C1676.92 1300.79 1703.22 1322.38 1703.38 1314.29C1703.51 1307.58 1679.79 1299.37 1675.15 1295.71C1668.36 1290.36 1671 1277.74 1671 1270L1669 1270M1974 1274C1974.48 1286.22 1975.84 1311.13 1989 1315.83C1992.46 1317.06 2020.74 1317.09 2016.59 1310.91C2011.28 1303.01 1992.35 1316 1985.3 1303.95C1980.1 1295.04 1984.49 1279.24 1974 1274M2049.11 1299.72C2040.05 1302.78 2046.29 1316 2054.95 1313.19C2065.61 1309.72 2059.79 1296.12 2049.11 1299.72M501 1302C505.846 1309.75 516.132 1314.27 519.421 1322.96C523.202 1332.96 518.859 1348.14 520.64 1359C521.582 1364.74 527.433 1378.64 525.424 1383.69C521.996 1392.29 509.499 1395.78 505.949 1406C504.136 1411.22 502.032 1438.21 510.124 1439.68C513.91 1440.36 512.028 1429.89 512.008 1428C511.927 1420.68 515.962 1387.12 530.121 1393.29C549.392 1401.69 534.451 1434.05 552 1437C544.927 1416.81 553.026 1397.06 528 1387C534.426 1377.33 525.197 1342.86 524 1330C530.52 1337.6 547.552 1366.46 557 1366C547.66 1348.11 533.548 1328.53 519.45 1314.08C514.646 1309.15 508.326 1301.34 501 1302M182 1304C182.176 1306.87 181.854 1307.8 180 1310C180.271 1307.51 180.645 1306.09 182 1304M875.824 1314.31C870.318 1318.42 879.026 1328.46 884.472 1324.09C889.88 1319.75 880.67 1310.69 875.824 1314.31M1280.03 1316.3C1272.69 1317.87 1278.47 1330.87 1284.03 1329.91C1290.97 1328.72 1286.12 1315.01 1280.03 1316.3M1236 1327C1238.04 1336.58 1233.9 1361.31 1240.69 1367.81C1245.25 1372.18 1270.38 1372.01 1267.46 1367.62C1263.63 1361.89 1249.99 1372.53 1244.5 1362.87C1238.81 1352.85 1249.63 1332.34 1236 1327M820 1338C820.513 1343.51 824.587 1363.69 817.543 1366.15C807.536 1369.66 814.161 1337.07 808.752 1341.97C805.257 1345.14 806.128 1356.56 805.989 1361C805.412 1379.36 807 1397.56 807 1416C807 1422.75 804.497 1433.94 812 1437C812.009 1431.11 810.65 1394.57 818.47 1396.22C822.765 1397.13 820.09 1429.26 820 1434C832.869 1429.08 821.772 1406.9 828.179 1397.1C831.601 1391.86 841.592 1388.37 840.646 1381.07C839.579 1372.84 828.5 1373.71 826.418 1367.29C823.806 1359.25 831.662 1340.87 820 1338M562 1339C563.465 1363.25 565.139 1387.53 565.96 1412C566.219 1419.74 563.171 1432.47 572 1436C571.904 1411.89 569.259 1388.01 568.992 1364C568.907 1356.35 570.154 1342.61 562 1339M1626 1340C1625.23 1341.18 1625.18 1341.23 1624 1342C1624.54 1340.37 1624.36 1340.54 1626 1340M1586 1342L1583 1343L1586 1342M1280 1395C1284.09 1391.19 1287.48 1357.69 1280.86 1356.32C1276.67 1355.46 1279.01 1391.07 1280 1395M811 1370C835.309 1380.06 803.122 1403.66 811 1370M827 1391C820.78 1372.62 842.681 1373.9 827 1391M527 1577C528.357 1565.08 522.422 1551.7 528.046 1540C545.563 1503.56 585.982 1515.31 605 1541C607.104 1526.86 581.335 1514.02 570 1512.37C534.964 1507.29 511.702 1548.1 527 1577M606 1542C606.522 1543.82 607.136 1545.31 608 1547C608.359 1544.55 607.885 1543.58 606 1542M1249 1627C1247.98 1617.25 1242.33 1609.09 1242.22 1599C1242.02 1581.61 1264.02 1570.81 1278.68 1578.99C1293.93 1587.5 1296.07 1602.39 1297.07 1618C1297.16 1619.34 1298.69 1632.73 1301.88 1629.59C1305.18 1626.34 1301.26 1613.21 1300.8 1609C1298.37 1586.75 1276.21 1558.98 1251.03 1574.67C1236.68 1583.6 1229.69 1619.04 1249 1627M79 1618C85.1804 1618.51 116.324 1610.28 119.002 1616.58C120.778 1620.76 117.045 1630.15 117 1635C122.154 1629.9 120.771 1620.99 125.92 1615.93C132.55 1609.41 161.151 1611.42 170 1613C164.989 1621.36 163.016 1631.34 163 1641C170.149 1634.7 167.588 1620.18 175.458 1613.82C183.747 1607.12 194.394 1612.9 195.553 1622C198.409 1644.4 194.119 1669.23 200 1691C196.416 1691.2 188.828 1694.8 185.824 1692.71C177.742 1687.09 192.92 1669.44 178 1666C181.444 1688.72 177.215 1712.15 177.959 1735C178.033 1737.25 176.132 1761.32 180.946 1756.85C190.914 1747.61 174.116 1703.43 190.07 1699.16C225.066 1689.79 220.965 1733.31 220.853 1752.99C220.836 1756.06 224.313 1764.51 228.058 1759.44C237.423 1746.74 227.617 1729.9 225.266 1717C224.294 1711.66 226.819 1704.9 223.252 1700.37C218.965 1694.93 208.788 1696.41 205.932 1690.72C200.315 1679.53 203.064 1660.21 202.997 1648C202.959 1640.93 198.074 1617.74 204.501 1613.26C210.848 1608.84 228.837 1614.05 237 1613C233.453 1623.81 228.413 1634.5 228 1646C238.133 1640.15 233.675 1621.58 242.338 1614.63C245.864 1611.81 253.657 1614.22 258 1613.94C259.983 1613.81 268.988 1613.21 267.44 1609.41C265.242 1604.02 250.562 1612.17 246.954 1606.52C245.11 1603.64 259.052 1581.95 252.981 1581.95C247.789 1581.95 242.256 1604.74 236.843 1607.94C227.276 1613.59 187.956 1608.77 177 1606C181.166 1598.72 185.61 1589.45 186 1581C176.973 1586.48 178.652 1599.8 170.58 1606.06C162.378 1612.42 138.39 1608.03 128 1609C132.029 1598.41 137.572 1588.59 138 1577C127.063 1581.87 131.334 1601.43 121.801 1608.06C110.288 1616.07 88.2982 1604.95 79 1618M528 1579C530.719 1590.11 541.27 1607.39 553 1610C546.352 1601.27 536.401 1585.49 528 1579M1271 1601C1264.38 1629.29 1276.52 1665.11 1277.04 1693.96C1277.11 1698 1275.84 1723.11 1281.63 1722.21C1284.99 1721.69 1283 1697.7 1283 1694C1282.98 1672.27 1279.82 1650.41 1277.21 1629C1276.11 1619.92 1277.74 1608.15 1271 1601M483 1676C500.314 1671.41 517.039 1667.74 535 1666C533.314 1671.11 524.286 1681.09 527.483 1686.4C529.863 1690.35 537.331 1689 541 1688.29C551.91 1686.18 563.939 1682.27 575 1682.02C578.823 1681.93 591.368 1683.95 594.081 1682.39C600.4 1678.76 586.628 1666.3 594.305 1663.5C605.333 1659.47 621.406 1662.03 633 1662C635.747 1661.99 644.951 1662.84 645.677 1658.86C646.597 1653.82 635.266 1655.61 633 1655.65C622.904 1655.83 598.106 1661.39 589.516 1656.6C575.927 1649.03 575.513 1613.14 559.805 1609.68C555.877 1608.82 548.832 1627.51 547.33 1631.14C544.495 1637.99 542.671 1655.56 535.547 1659.18C524.231 1664.93 483.602 1658.76 483 1676M561 1617C569.714 1627.11 578.83 1645.33 583 1658C574.787 1658 552.402 1663.47 545.87 1658.36C540.279 1653.98 557.677 1622.41 561 1617M839 1669C839 1665.47 838.336 1633.14 833.674 1635.73C829.437 1638.08 833.393 1648.53 833.702 1652C835.077 1667.48 832.964 1683.43 833.001 1699C833.006 1701.22 832.879 1716.22 838.248 1713.38C845.916 1709.31 836.301 1680.86 843.45 1673.04C856.117 1659.17 870.672 1647.58 883.997 1634.53C885.423 1633.13 896.617 1622.46 893.034 1620.5C888.925 1618.26 880.919 1629.34 878.602 1631.77C866.814 1644.15 852.682 1658.71 839 1669M2016 1628C2008.2 1630.75 2017.1 1643.49 2014.4 1649.87C2012 1655.51 2002.89 1654 1998 1654C1998.69 1651.29 1998.27 1625.65 1992.91 1629.54C1987.66 1633.36 2002.63 1661.18 1984.15 1655.38C1976.48 1652.97 1980.14 1635.27 1972 1630C1973.2 1648.76 1980.83 1656.03 1958 1656C1958.92 1649.27 1956.48 1636.42 1951 1632C1948.92 1641.06 1952.35 1680.18 1958 1687C1958.75 1683.5 1963.39 1643.41 1974.52 1665.28C1977.73 1671.58 1971.68 1681.24 1980 1685L1980 1674C1980 1668.03 1986.26 1652.78 1993.74 1663.5C1996.27 1667.12 1994.98 1673.77 1995.57 1677.99C1995.82 1679.76 1996.5 1684.96 1999.5 1683.89C2007.68 1681 1990.94 1652.22 2011.58 1659.76C2017.96 1662.1 2006.08 1685.36 2014 1685.36C2022.51 1685.36 2011.36 1651.46 2031.68 1659.2C2039.6 1662.22 2024.52 1690.43 2033.93 1690.43C2038.55 1690.43 2038.52 1678.2 2039.25 1675C2040.46 1669.72 2046.36 1657.96 2046.36 1654.1C2046.36 1650.4 2041.4 1647.39 2041.07 1643C2040.81 1639.51 2042.65 1630.99 2039.83 1628.39C2035.9 1624.77 2035.21 1665.7 2021.14 1650.92C2018.13 1647.77 2017.51 1632.93 2016 1628M558 1638C547.94 1656.41 576.103 1652.18 558 1638M1578 1687C1576.56 1676.47 1550.38 1680.39 1542.48 1669.96C1533.73 1658.4 1555.88 1646.63 1565 1644.72C1566.74 1644.36 1577.54 1644.58 1576.24 1641.24C1571.7 1629.59 1543.44 1647.98 1539.2 1652.26C1516.85 1674.81 1564.53 1685.21 1578 1687M1642 1639C1647.81 1648.94 1661.82 1648.58 1671 1655C1654.23 1657.22 1638.37 1653.93 1622 1654.46C1617.53 1654.6 1608.16 1654.44 1605.47 1658.88C1602 1664.58 1616.32 1661.91 1618 1661.64C1634.23 1658.99 1650.56 1663.68 1667 1660C1663.38 1666.23 1642.64 1669.24 1642.64 1674.9C1642.64 1679.66 1654.59 1675.7 1657 1675.2C1660.76 1674.43 1692.88 1661.45 1692.57 1659.14C1691.96 1654.48 1679.54 1652.66 1676 1650.83C1671.61 1648.56 1667.54 1645.77 1663 1643.78C1656.45 1640.92 1649.23 1637.46 1642 1639M886 1640C883.8 1667.34 882.727 1668.62 855 1667C865.98 1693.58 913.362 1657.49 886 1640M871.942 1655.83C864.803 1656.16 865.613 1665.17 871.937 1664.46C877.105 1663.87 878.142 1655.55 871.942 1655.83M1678 1659C1675.63 1658.25 1674.06 1657.41 1672 1656C1675.05 1654.84 1677.1 1655.91 1678 1659M1568.5 1657.36C1562.12 1661.06 1568.41 1672.55 1575.71 1667.68C1582.08 1663.44 1574.01 1654.17 1568.5 1657.36M533 1683C538.634 1666.15 565.257 1658.94 582.087 1664.04C585.839 1665.17 590.386 1671.56 586.888 1675.1C583.627 1678.4 572.548 1675.73 568 1676.52C563.257 1677.35 558.816 1678.6 554 1679.08C546.76 1679.8 540.461 1682.79 533 1683M1253 1697C1253.07 1704.87 1252.97 1714.34 1254.96 1721.96C1256.5 1727.87 1260.47 1733.36 1264.29 1738.02C1286.33 1764.97 1309.28 1736.47 1308.94 1711C1308.89 1707.36 1309.13 1690.18 1304.47 1689.32C1299.35 1688.38 1303.05 1701.81 1303.31 1704C1304.75 1715.97 1302.35 1742.33 1285.99 1743.93C1254.27 1747.03 1268.29 1704.52 1253 1697M220 1704C216.794 1702.51 215.299 1701.3 214 1698C217.794 1698.9 219.1 1700.21 220 1704M229 1712L232 1724C233.586 1719.31 233.24 1714.9 229 1712M775 1789L775 1792C776.797 1792 776.521 1791.99 778 1791L775 1789M599 1974C608.681 1921.86 538.805 1887.25 496.039 1901.8C485.811 1905.28 474.168 1919.86 467.464 1928C455.955 1941.98 452.185 1957.45 452.961 1975C453.157 1979.45 452.777 1990.58 458.13 1992.65C460.293 1993.49 457.766 1966.42 458.09 1962C460.168 1933.68 489.29 1904.99 517 1903.09C542.613 1901.33 570.185 1915.66 583.124 1938C587.079 1944.83 593.493 1972.06 599 1974M207 1912C206.776 1968.4 211.279 2027.08 205 2083C215.882 2074.38 212.441 2058.03 212.04 2046C210.986 2014.31 215.575 1981.55 212.783 1950C212.038 1941.58 216.141 1914.75 207 1912M96 2080C100.398 2062.62 98.7972 2039.79 97.2174 2022C96.7945 2017.24 93.7065 2003.37 97.5116 2000.24C103.451 1995.36 115.77 1996.39 123 1995.86C141.423 1994.53 159.417 1990.8 178 1991.01C183.094 1991.06 202.794 1997.55 204.776 1990.86C206.231 1985.96 184.561 1985.2 181 1985.1C159.82 1984.45 138.206 1988.58 117 1989.02C111.785 1989.13 104.035 1993.29 99.2873 1991.9C93.6523 1990.26 95.1677 1981.34 94.8638 1977C93.8371 1962.33 92.6667 1947.69 91.9221 1933C91.8002 1930.6 91.2805 1915.17 87.266 1916.08C84.0263 1916.81 87.9601 1948.79 88.438 1953C91.9652 1984.09 92.9854 2015.62 93.4624 2047C93.6024 2056.2 87.5257 2073.49 96 2080M147.872 1938.39C140.101 1941.57 140.759 1954.64 149.912 1951.81C158.062 1949.29 154.368 1935.73 147.872 1938.39M1585 2000C1591.72 2004.99 1597.58 2013.13 1606 2015C1604.41 2010.52 1585.73 1988.83 1581.04 1993.89C1577.38 1997.83 1582.41 2004.83 1579.64 2008.96C1577.5 2012.14 1565.97 2014.34 1563.82 2010.48C1554.8 1994.23 1581.18 1984.2 1579.56 1974.08C1578.56 1967.85 1569.6 1976.71 1568 1978C1570.13 1969.84 1571.41 1961.88 1569.24 1953.44C1568.8 1951.74 1566.38 1943.13 1563.13 1947.07C1560.79 1949.89 1565.14 1961 1564.82 1965C1563.62 1979.81 1544.76 1996.36 1546.43 2008.93C1547.22 2014.79 1553.7 2016.01 1555.4 2021.14C1557.44 2027.32 1555.22 2034.56 1556.21 2040.93C1556.48 2042.69 1557.83 2046.36 1560.29 2044.59C1566.43 2040.17 1558.89 2025.34 1562.4 2019.5C1566.22 2013.13 1579.79 2019.64 1584.92 2013.82C1587.16 2011.28 1585.01 2003.32 1585 2000M1979 1964C1974.22 1985.46 1939.17 1995.2 1938 2019C1952.04 2011.27 1965.84 1990.82 1976.94 1979C1980.65 1975.04 1986.59 1967.01 1979 1964M1985 1970C1987.28 1984.02 2006.83 1998.13 2014.86 2009.88C2016.94 2012.92 2024.57 2018.13 2023.96 2022.08C2023.02 2028.22 2011.23 2036.73 2006.99 2041C2004.71 2043.31 1989.82 2055.96 1995.53 2059.47C1999.72 2062.04 2029.86 2030.53 2030.33 2024.78C2031.88 2006.05 1999.61 1977.44 1985 1970M552.997 1972.46C538.654 1973.67 525.787 1979.12 512 1980.57C510.71 1980.7 496.77 1981.14 500.97 1984.81C509.632 1992.37 535.365 1979.4 545 1978.24C548.63 1977.81 557.308 1979.52 559.456 1975.6C561.352 1972.14 554.571 1972.33 552.997 1972.46M142.715 1997.54C138.978 1999.75 142.868 2009.63 142.974 2013C143.494 2029.54 141.006 2045.71 141 2062C140.999 2064.12 139.82 2079.77 143.861 2078.24C148.888 2076.34 146.596 2065.85 146.538 2062C146.289 2045.64 148.51 2029.39 147.96 2013C147.887 2010.84 147.372 1994.8 142.715 1997.54M1559 1997C1555.77 2020.65 1545.78 2005.52 1559 1997M525.96 1999.41C523.317 2001.64 525.246 2014.26 524.607 2018C521.335 2037.14 509.564 2060.43 537 2057.2C541.678 2056.65 545.744 2056.12 549.361 2052.79C560.029 2042.98 539.007 2019.82 534.876 2009.86C534.051 2007.87 529.526 1996.39 525.96 1999.41M625 2003C625.211 2005.74 625.303 2006.42 628 2007C627.259 2004.82 626.897 2004.28 625 2003M1987.21 2009.4C1981.51 2011.92 1985.46 2022.36 1990.88 2020.38C1997.2 2018.06 1993.56 2006.59 1987.21 2009.4M255 2022C256.598 2013.77 245.712 2012.44 255 2022M533 2016C534.667 2022.93 539.744 2027.63 542.691 2034C548.332 2046.19 535.103 2063.2 524.032 2051.97C520.076 2047.96 528.185 2017.69 533 2016M1970 2033L1979 2034C1977.08 2029.15 1945.03 2015.56 1947.63 2022.87C1951.63 2034.11 1971.23 2041.43 1978.47 2051C1980.7 2053.95 1982.74 2062.29 1987 2062.68C1995.36 2063.45 1981.41 2046.04 1979.68 2043.97C1976.55 2040.23 1973.1 2036.78 1970 2033M1249 2018C1247.78 2030.85 1241.96 2041.12 1237.66 2053C1237.11 2054.51 1234.36 2063.36 1238.04 2063.36C1240.45 2063.36 1242.89 2054.82 1243.83 2053C1247.99 2045.01 1260.52 2023.05 1249 2018M1269.03 2023.54C1266.57 2025.33 1270.72 2028.04 1272.11 2028.55C1289.9 2035.01 1288.38 2041.28 1287.56 2057.99C1287.5 2059.39 1288.29 2065.22 1291.01 2063.46C1305.76 2053.89 1283.95 2012.74 1269.03 2023.54M953 2036C947.317 2036.35 941.646 2036.82 936 2037.58C932.324 2038.08 928.666 2038.68 925 2039.24C887.307 2045.05 947.823 2048.81 953 2036M540 2047C535.108 2032.49 524.126 2044.23 540 2047M283 2045C284.386 2046.89 284.648 2046.99 287 2047C285.457 2045.73 284.952 2045.51 283 2045M928 2060C923.096 2060.01 918.801 2060.88 914 2061.65C910.691 2062.17 907.319 2061.9 904 2062.36C871.314 2066.86 922.227 2072.94 928 2060M1925.16 2075.53C1921.88 2075.98 1923.62 2080.08 1926.54 2079.36C1929.34 2078.67 1927.51 2075.21 1925.16 2075.53M908.997 2075.64C904.82 2076.56 872.003 2082.74 872.003 2085.32C872.003 2089.45 911.051 2083.41 915.031 2079.05C918.309 2075.45 910.778 2075.26 908.997 2075.64M1299 2091C1289.27 2077.97 1259.71 2087 1246 2087C1242.56 2087 1229.42 2085.09 1228.19 2089.53C1226.3 2096.33 1241.38 2092.05 1244 2092.01C1260.41 2091.74 1283.66 2094.87 1299 2091z"/>
</svg>
