<?xml version="1.0" standalone="yes"?>
<svg xmlns="http://www.w3.org/2000/svg" width="2200" height="2200">
<path style="fill:#0c0c0c; stroke:none;" d="M1369 177C1348.18 178.354 1300.17 140.931 1296.21 120C1293.65 106.492 1301.76 95.0515 1303 82C1288.79 87.0588 1273.82 110.375 1264.2 121.96C1246.8 142.917 1225.31 163.243 1203 179.609C1198.57 182.861 1167.76 200.61 1171.54 207.12C1172.9 209.478 1185.24 205.988 1188 205.678C1198.8 204.466 1225.62 199.26 1234.3 207.501C1250.58 222.974 1255.28 254.287 1261.56 275C1262.78 278.995 1267.94 296.131 1273.7 295.214C1276.98 294.693 1274.23 286.977 1274.1 285C1273.43 274.649 1277.41 263.68 1280.67 254C1283.62 245.268 1285.89 218.809 1291.58 213.244C1309.93 195.299 1355.73 198.384 1369 177M947 286C944.02 271.432 918.14 253.241 923.469 235.604C924.524 232.113 933.925 231.578 937 230.554C948.944 226.576 961.751 221.621 973 216C971.058 229.328 942.141 259.364 949.843 273.149C953.162 279.09 959.317 258.931 959.951 257C964.4 243.456 971.567 225.798 981.504 215.338C993.224 203.003 1007.8 198.924 1007.74 178.885C1007.71 170.979 985.815 163.995 980.556 157.761C970.148 145.423 971.958 123.825 968.235 109C966.186 100.844 961.105 97.9048 963 89C948.762 94.8721 933.711 131.637 925.31 145C910.131 169.149 888.368 182.677 865 198.061C860.789 200.833 831.324 219.805 835.4 225.15C836.917 227.139 860.669 217.498 865 216.651C885.623 212.62 898.025 219.31 913.723 232.782C928.826 245.743 921.713 280.366 947 286M1298 95L1295 98C1295.9 95.8765 1295.88 95.8992 1298 95M512 228C499.927 240.81 525.345 260.593 532.639 268.998C535.415 272.195 540.439 280.531 545.577 279.695C548.489 279.222 554.241 250.702 556.324 246C567.43 220.934 589.388 211.378 614 202.14C617.764 200.728 644.771 194.766 645.031 194.284C647.062 190.514 637.023 188.099 635.04 187.102C623.473 181.286 611.006 177.522 600 170.457C598.307 169.37 589.4 162.988 587.761 166.866C586.416 170.049 593.557 173.744 595.562 174.921C605.683 180.865 617.625 186.044 629 189C620.269 197.699 604.254 200.31 593 205C598.687 186.384 586.047 177.149 577.949 161.999C573.408 153.502 571.928 140.446 568.438 131C564.52 120.393 558.64 111.759 564 101C550.402 101.1 542.499 122.794 535.34 132C515.376 157.673 471.495 200.687 512 228M1293 100C1290.97 107.389 1296.12 128.279 1293.5 132.1C1291.27 135.356 1264.78 134.077 1260 134C1267.57 123.598 1280.57 104.454 1293 100M973 157C956.588 151.968 941.702 155.4 925 156C930.967 141.66 941.95 129.216 950.001 116C951.871 112.93 955.945 104.363 960.514 105.082C964.031 105.635 964.133 114.369 964.682 117C967.425 130.149 971.499 143.678 973 157M1683 103C1659.8 108.166 1643.86 141.302 1624.86 154.282C1601.52 170.227 1573.6 184.019 1548 196.881C1542.45 199.669 1523.42 207.088 1522.32 213.837C1521.54 218.658 1532.93 216.322 1535 215.819C1552.47 211.57 1572.16 217.114 1589 222.344C1604.66 227.207 1608.83 241.767 1623 246.912C1667.04 262.9 1693.53 232.226 1732 222.327C1745.16 218.94 1758.65 216.018 1772 213.57C1774.42 213.126 1784.3 213.624 1785.24 211.219C1786.86 207.044 1775.6 202.366 1773 201.004C1761.4 194.927 1744.08 185.608 1734.54 176.882C1721.92 165.338 1692.71 169.002 1680.42 157.499C1665.25 143.295 1680.35 117.409 1683 103M417 105L420 107L417 105M557 115C558.951 129.104 570.716 142.653 570 157C552.977 147.563 542.951 153.292 525 154C531.61 141.967 545.014 121.626 557 115M1671 117C1670.45 131.077 1671.89 142.974 1673 157C1668.62 155.768 1667.01 150.612 1662.86 149.979C1653.85 148.61 1644.14 152.988 1635 151C1644.55 139.932 1658.61 124.513 1671 117M1260 140L1259 141L1260 140M1258 142C1251.74 149.743 1243.64 161.065 1236 167C1237.6 153.296 1245.34 145.877 1258 142M1304 144C1309.26 147.229 1313.09 151.043 1315 157C1309.89 155.17 1303.2 150.035 1304 144M1288 150C1282.18 157.47 1267.41 166.367 1259 171C1261.44 158.939 1276.7 151.472 1288 150M1974 223C1953.18 220.24 1934.15 216.011 1913 215C1922.18 205.208 1937.16 200.165 1948 192.095C1950.58 190.175 1958.7 184.782 1957.25 180.752C1955.83 176.815 1944.59 187.882 1943 189.102C1931.48 197.924 1903.74 206.5 1898 220C1936.88 219.641 1976.48 222.011 2008.46 245.832C2021.52 255.559 2024.22 289.72 2042.73 292.464C2037.36 291.667 2046.32 263.716 2049.01 258C2058.03 238.836 2088.65 222.922 2089.93 202C2090.57 191.587 2083.81 184.972 2080 176C2099.35 182.372 2123.04 189.62 2140 201C2124.9 201.659 2088.53 203.559 2084 222C2103.21 215.381 2119.49 208.689 2140 204.787C2143.7 204.083 2157.77 208.647 2159.46 206.208C2161.5 203.259 2151.66 199.612 2150 198.779C2138.69 193.089 2126 187.67 2114 183.712C2089.85 175.744 2063.55 156.322 2039 153.258C2015.01 150.264 1967.36 172.174 1963.61 199C1962.37 207.888 1971.51 215.173 1974 223M1262 154L1259 159C1258.94 157.036 1259.3 155.876 1260 154L1262 154M1302 154C1306.09 160.152 1311.52 172.85 1304 178C1303.11 169.936 1298.46 161.579 1302 154M567 160C552.592 163.649 540.603 158.883 526 168.028C513.753 175.697 510.146 189.065 500 197C502.136 166.301 539.836 144.898 567 160M1294 162C1290.69 160.484 1288.18 158.937 1286 156C1290.74 156.244 1293.29 157.012 1294 162M1635 156.649C1652.37 154.728 1665.15 162.111 1680.4 166.013C1689.5 168.342 1708.38 166.198 1715.61 175.324C1721.65 182.948 1716.62 195.006 1714.62 203C1707.44 231.744 1689.58 243.532 1660 246.679C1649.22 247.826 1631.45 247.035 1622.32 240.535C1609.39 231.329 1589 191.831 1596.69 176.086C1601.75 165.708 1624.19 157.844 1635 156.649M2077 182L2067 178C2071.54 182.446 2082.22 188.291 2084.28 194.155C2090.71 212.504 2068.72 226.774 2056 234.863C2027.29 253.121 1983.71 239.51 1971.54 207C1963.53 185.588 1994.41 171.143 2009 163.996C2017.43 159.863 2029.62 155.265 2034 167C2036.08 163.189 2033.77 160.646 2032 157C2046.77 158.437 2071.66 166.623 2077 182M974 167C969.684 164.79 965.793 162.001 963 158C969.092 158.491 975.09 159.838 974 167M1312 198C1322.63 179.647 1332.55 180.362 1320 158C1324.94 158.71 1354.18 176.132 1352.24 181.319C1350.16 186.867 1318.29 196.26 1312 198M1257 162L1255 159C1257.2 159.994 1257.05 159.67 1257 162M1255 161C1254.35 165.892 1252.38 170.291 1251 175C1249.27 169.678 1251.38 164.984 1255 161M111 245C112.963 243.992 120.477 240.447 117.894 237.236C114.635 233.183 103.701 233.418 99 232.901C87.9199 231.683 66.2217 228.675 58 221C80.162 214.83 102.108 209.186 124 202C117.588 226.911 127.624 259.053 160 258.307C174.434 257.975 185.397 248.897 199 247C187.732 264.095 175.486 288.736 172 309C161.865 296.273 153.998 260.952 139 255C142.476 273.4 154.303 290.072 163.979 305.68C167.202 310.879 174.874 325.766 180 314C172.052 308.068 183.993 287.858 187.416 281C193.221 269.372 196.985 254.433 204.703 244.041C216.075 228.729 239.034 222.047 228.859 198C225.689 190.507 222.072 184.638 215.997 179.148C173.168 140.447 150.483 188.586 113 200.678C97.0488 205.824 80.935 210.432 65 215.573C61.1548 216.813 51.5473 217.384 49.5035 221.462C47.6386 225.184 60.7349 228.325 63 229.032C71.6101 231.72 110.923 236.537 111 245M980 165C989.144 168.365 982.096 173.935 980 165M1321 165C1324.61 172.101 1326.61 179.821 1319 185C1319.38 178.953 1318.62 170.469 1321 165M570 213C570.861 203.456 580.182 193.568 577.006 184C574.419 176.206 566.554 173.164 562 167C584.685 166.503 599.611 210.276 570 213M1231 166C1230.3 173.255 1234.15 193.358 1228.74 198.74C1224.57 202.886 1190.34 200.74 1183 201C1190.24 190.021 1218.44 170.764 1231 166M1282 166C1278.79 170.995 1274.12 174.611 1268 174C1271.87 169.748 1276.39 167.218 1282 166M544 167C539.44 172.19 529.194 177.698 523 181C526.307 171.694 534.645 167.599 544 167M941 168C937.411 172.419 932.91 175.203 928 178C928.944 171.231 934.761 168.872 941 168M158 252C178.323 246.056 206.817 239.591 218.819 220C235.831 192.231 185.915 173.075 167 173C183.03 151.789 223.043 185.653 226.522 203C230.878 224.715 206.478 237.786 190 245.722C182.701 249.238 165.252 259.156 158 252M531 181C537.3 168.282 560.513 172.447 539.004 179.242C536.412 180.061 533.649 180.403 531 181M1244 171C1244.02 176.228 1244.62 180.954 1246 186C1238.44 182.502 1239 176.822 1244 171M1268 186C1269.83 183.148 1272.04 180.703 1274.57 178.421C1295.71 159.352 1286.85 189.022 1268 186M989 189C989.562 185.543 987.557 177.499 989.315 175.009C990.633 173.142 1004.59 183.451 989 189M957 182C962.143 163.016 977.187 188.402 967.128 187.223C963.377 186.783 961.413 182.322 957 182M1003 181C1000.63 179.256 999.884 177.809 999 175C1002.17 176.247 1002.65 177.662 1003 181M1257 175L1257 179C1256.49 177.308 1256.49 176.692 1257 175M1267 175C1266.49 176.952 1266.27 177.457 1265 179C1265.31 176.709 1265.37 176.68 1267 175M954 176C952.673 179.176 951.301 180.089 948 181C949.31 177.742 950.59 176.796 954 176M192 183C188.406 181.834 185.362 181.039 183 178C187.108 178.363 189.781 179.442 192 183M566 178.333C566.889 178.333 566.889 179.667 566 179.667C565.111 179.667 565.111 178.333 566 178.333M926 178C924.515 185.363 920.518 195.983 914 200C916.344 192.431 918.92 182.298 926 178M967.667 178.333C967.222 178.778 968.278 178.722 968.333 178.667C968.777 178.223 967.722 178.278 967.667 178.333M1774 206C1761.16 217.267 1730.49 218.853 1714 223C1717.47 207.872 1723.5 194.173 1722 178C1741.43 180.706 1756.35 198.572 1774 206M558.01 180.667C563.266 179.314 562.835 185.982 558.642 186.718C553.99 187.535 553.696 181.777 558.01 180.667M168 181C163.319 187.007 150.377 193.356 143 195C147.682 186.827 158.923 182.033 168 181M1313 181C1312.64 183.027 1312.48 183.637 1311 185C1311.51 183.047 1311.73 182.543 1313 181M522 182.333L522.333 182.667C521.84 182.831 521.227 182.333 522 182.333M536 182C533.399 196.845 531.847 200.382 537 215C513.258 212.228 519.587 190.197 536 182M1255 182C1256.75 185.562 1258.26 189.094 1259 193C1254.47 190.978 1253.58 186.543 1255 182M1295 182C1293.13 189.118 1282.35 191.267 1276 193C1279.68 188.274 1289.44 184.411 1295 182M1602 221C1578.46 217.525 1558.13 210.541 1534 211C1541.37 200.852 1562.81 194.519 1574 188.846C1577.46 187.09 1584.21 181.224 1588.18 183.919C1594.61 188.287 1598.97 213.095 1602 221M146 183C145.227 184.176 145.176 184.227 144 185C144.545 183.365 144.365 183.545 146 183M516 183C515.019 192.569 512.005 201.253 512 211C504.01 204.403 508.316 187.964 516 183M546 183C545.174 191.868 546.035 196.038 550 204C536.572 203.536 535.983 189.586 546 183M206 227C216.361 206.38 207.527 201.606 197 184C212.9 188.171 226.574 219.647 206 227M895 184C893.737 189.448 892.446 204.245 888.876 208.063C884.297 212.961 857.39 216.166 851 215C863.327 203.728 879.961 191.299 895 184M946 184C946.58 188.157 944.907 189.151 941 190C941.839 186.787 943.162 185.681 946 184M954.604 185.227C959.076 184.106 969.008 194.45 962.687 196.455C955.658 198.685 947.7 186.956 954.604 185.227M143 186L142 187L143 186M928 187C928.053 188.806 927.799 189.262 927 191C926.843 189.172 927.062 188.605 928 187M551.134 189.323C555.031 188.72 556.15 195.667 552.049 196.215C548.362 196.707 547.592 189.871 551.134 189.323M182 189L182 191L177 191C178.778 189.796 179.878 189.399 182 189M1001 189C997.341 215.145 975.015 196.593 1001 189M1266 213C1259.43 213.538 1225.79 201.849 1237.28 191.086C1242 186.669 1262.71 209.586 1266 213M191 193C188.326 192.44 187.034 191.819 185 190C188.194 190.014 190.271 189.597 191 193M563.667 190.667C563.722 190.722 563.778 191.778 563.333 191.333C563.278 191.278 563.222 190.222 563.667 190.667M189 217C189.203 208.456 187.854 202.451 182 196C195.046 193.559 201.694 211.415 189 217M948 200C944.945 198.879 943.665 197.796 942 195C945.003 196.13 946.272 197.296 948 200M179 198C166.256 203.163 154.715 210.959 159 226C132.307 222.157 162.776 188.67 179 198M935 205C925.671 201.135 932.023 195.081 935 205M1499 198L1499 201L1501 198L1499 198M899 200C899.591 209.243 904.985 214.711 908 223C899.42 218.256 896.101 209.387 896 200L899 200M503 201L503 207C500.741 205.183 500.358 203.876 500 201L503 201M1281 202C1278.34 205.706 1275.27 205.191 1271 205C1273.68 201.754 1276.99 202.024 1281 202M144 203C143.26 207.828 141.237 211.376 138 215C137.468 209.65 140.029 206.365 144 203M169 212C176.008 201.033 182.042 212.847 169 212M517.667 206.667C517.722 206.722 517.778 207.778 517.333 207.333C517.278 207.278 517.222 206.222 517.667 206.667M934 213C928.349 212.883 923.469 211.103 918 210C921.79 204.814 930.867 208.415 934 213M539 207C540.391 208.406 541.074 209.271 542 211C539.533 210.209 538.385 209.654 539 207M503 208C504.986 210.876 506.207 213.596 507 217C503.673 214.711 502.084 212.054 503 208M207 210C208.832 224.138 185.749 234.63 174 236C184.493 225.625 197.368 222.234 207 210M519 210C520.844 211.635 521.827 212.837 523 215C520.756 213.561 519.66 212.594 519 210M567 211C566.006 224.272 529.029 230.355 521 221C537.659 219.732 551.111 215.459 567 211M183 212C180.655 215.96 160.015 228.358 162.864 218.33C163.766 215.155 179.524 212.852 183 212M512 212L511 213L512 212M962 212C961.455 213.635 961.635 213.455 960 214C960.773 212.824 960.824 212.773 962 212M959 213C958.098 214.923 957.924 214.999 956 216C956.482 213.636 956.636 213.482 959 213M1275 213C1273.64 214.483 1273.03 214.637 1271 215C1272.54 213.733 1273.05 213.511 1275 213M1256 216C1257.3 217.688 1257.81 217.833 1260 218C1257.62 219.627 1255.25 219.317 1256 216M1285 216C1284.08 236.962 1272.8 256.951 1270 278C1265.22 276.602 1265.09 269.335 1263.86 265C1260.15 251.873 1252.35 236.232 1251 223C1264.15 224.724 1272.74 217.86 1285 216M1262 217.333C1262.77 217.333 1262.16 217.831 1261.67 217.667L1262 217.333M137 219C142.321 227.331 149.627 230.781 155 238C143.289 237.771 132.486 232.51 137 219M514 223C511.876 222.101 511.899 222.124 511 220C513.124 220.899 513.101 220.876 514 223M560 223C557.23 233.968 535.656 236.048 527 232C536.933 227.39 549.467 226.938 560 223M152 229C150.824 228.227 150.773 228.176 150 227C151.635 227.545 151.455 227.365 152 229M556 234C552.887 248.441 545.101 258.591 546 274C530.266 268.05 514.519 244.273 513 228C520.7 229.629 524.678 236.144 532.003 238.025C540.19 240.129 548.137 235.587 556 234M194 234C186.298 243.884 161.043 249.969 149 249C159.327 242.48 181.798 236.635 194 234M2051 244C2048.04 249.301 2040.09 275.655 2035.47 277.239C2029.98 279.121 2020.37 252.334 2019 248C2029.8 248 2040.81 243.592 2051 244M881 516C880.647 526.159 870.451 528.12 863.003 533.129C850.784 541.348 834.307 557.003 835.115 573C838.837 646.635 952.802 616.836 968.724 566C974.692 546.948 956.344 545.235 950.542 532.56C948.27 527.597 952.738 522.124 950.976 517.078C946.657 504.714 934.391 488.011 927.801 476C925.877 472.493 922.324 467.019 917.981 466.446C909.083 465.27 898.502 478.344 893.323 483.96C884.781 493.222 872.103 502.963 866.01 513.97C860.86 523.271 877.772 517.9 881 516M1288 467C1274.56 481.586 1262.46 497.311 1249.14 512C1247.31 514.009 1236.23 525.693 1241.3 528.317C1245.96 530.734 1264.43 501.89 1268 498C1263.12 528.103 1224.84 538.399 1219.43 567C1216.77 581.016 1223.01 598.073 1235 606.097C1239.79 609.296 1248.48 609.347 1251.74 614.415C1257.11 622.76 1255.74 640.426 1264.71 646.789C1268.6 649.542 1272.55 643.242 1275 641C1274.1 643.709 1270.99 658.179 1268.85 658.634C1264.28 659.606 1253.32 631.188 1251.01 627C1248.97 623.296 1237.67 603.469 1234 616C1246.28 620.576 1253.65 646.519 1260.04 657.438C1262.03 660.845 1265.79 670.357 1270.58 670.357C1273.68 670.357 1274.91 659.385 1275.68 657C1279.76 644.35 1284.68 625.789 1291.47 614.702C1294.23 610.189 1303.48 607.789 1307.67 604.179C1323.29 590.738 1338.78 563.471 1322.68 545.048C1312.76 533.693 1295.13 536.411 1290.85 521.078C1287.58 509.387 1287.51 494.247 1287.65 482.078C1287.72 476.546 1292.2 471.827 1288 467M914 509L922 492C914.569 494.641 911.318 502.519 904 505C904.446 503.543 929.008 470.124 909.25 481.073C904.41 483.756 902.798 488.661 897 490C911.503 450.582 947.184 498.18 914 509M233 557C239.301 558.44 244.617 561.223 250 564.707C254.711 567.757 267.888 569.229 270.677 573.769C272.413 576.595 257.303 581.172 254.992 582.216C241.135 588.475 228.132 594.245 215 602.04C209.913 605.059 201.295 608.314 205 615C220.169 600.796 242.716 591.166 262 583.745C265.654 582.338 285.465 579.682 286.456 578.122C288.802 574.432 265.038 565.869 262 564.424C243.239 555.502 216.685 542.776 204.949 525C202.081 520.655 177.354 477.952 195 486C197.791 471.292 180.465 487.225 177.438 491.019C158.614 514.61 140.92 539.762 117.922 559.628C107.699 568.458 94.8344 574.057 84.5619 582.845C75.6444 590.475 65.8885 598.324 55 602.873C53.1111 603.662 44.6861 605.82 45.3231 608.802C46.0577 612.24 55.1197 608.494 57 608.05C67.4933 605.575 82.1255 606.527 93 607.078C117.619 608.324 145.347 621.418 169 618.821C184.596 617.108 198.93 606.699 210.922 597.442C221.909 588.96 240.934 572.294 233 557M1282 484C1282 499.606 1279.98 515.133 1265 524C1265.32 517.794 1277.54 486.595 1282 484M183 493C187.628 506.876 195.789 517.448 203 530C186.901 531.077 175.637 520.053 160 523C162.97 512.899 174.254 498.792 183 493M900 499C898.174 502.347 896.347 504.174 893 506C894.73 502.508 896.427 500.594 900 499M929 502L923 521C919.851 519.668 917.427 518.856 914 519C916.383 512.295 922.838 505.489 929 502M930 512C931.032 501.323 940.322 507.301 930 512M910 507C907.016 519.275 897.256 519.817 886 522C889.445 514.285 902.63 510.647 910 507M945 532C937.123 530.213 925.867 511.483 937.8 513.323C941.838 513.946 944.047 528.501 945 532M1283.67 512.667C1283.72 512.722 1283.78 513.778 1283.33 513.333C1283.28 513.278 1283.22 512.222 1283.67 512.667M2047 592C2049.44 575.36 2084.61 566.185 2099 562.656C2102.06 561.906 2120.11 560.303 2119.56 557.284C2118.31 550.455 2095.43 546.063 2090 542.601C2081.28 537.037 2065.53 527.903 2055.12 526.913C2050.93 526.515 2048.6 530.477 2043.99 529.248C2019.2 522.642 1989.73 508.847 1967.04 529.251C1946.66 547.577 1939.14 596.76 1973 606.893C1989.12 611.717 2009.06 605.605 2024 599.644C2031.64 596.598 2038.66 588.198 2047 592M1663 684C1665.22 673.227 1653.48 666.807 1651 657C1654.48 658.934 1661.01 668.565 1664.75 667.922C1669.67 667.077 1667.43 656.316 1668.02 653C1670.65 638.113 1682.04 626.761 1685.91 614.279C1687.26 609.899 1681.62 611.252 1680 613C1678.82 612.538 1671.83 611.414 1672.76 609.434C1675.44 603.71 1692.66 597.596 1697.78 590.922C1718.93 563.341 1701.93 532.619 1672 523.484C1639.32 513.511 1583.5 531.997 1588.48 575C1590.75 594.508 1604.14 601.336 1615.18 614.624C1631.23 633.941 1641.72 668.746 1663 684M515 602C528.957 610.528 543.084 613.747 557 603C553.985 616.563 542.924 627.463 540 641C529.441 632.101 526.198 611.86 514 606C515.165 625.72 537.134 637.654 536 658C550.322 652.409 552.286 614.543 564.722 602.579C568.241 599.193 579.039 599.643 584 598.026C601.323 592.378 618.527 586.046 636 580.882C638.92 580.019 655.952 579.755 656.346 579.074C661.366 570.405 644.908 571.033 642.144 568.696C626.576 555.53 612.318 545.888 593.04 538.408C578.375 532.717 569.443 522.283 552 522.524C529.537 522.833 502.867 547.537 482 555.692C472.697 559.328 440.34 568.413 435.544 576.934C432.666 582.046 450.474 583.72 453 584.334C469.24 588.283 485.838 590.03 501.996 594.388C507.879 595.975 511.144 607.383 515 602M919 532C932.614 532 963.743 540.775 965.742 557C967.183 568.691 955.553 580.583 948.005 587.957C928.588 606.925 902.835 614.909 876 611.761C845.745 608.211 830.578 569.613 852.097 548.07C863.429 536.725 881.572 525.044 898 523.236C904.303 522.543 925.678 520.847 919 532M2000 532C1999.39 528.803 1998.22 526.011 1997 523C2006.51 523 2015.95 523.032 2025 526.476C2037.71 531.314 2060.48 554.125 2054.17 569C2039.2 604.312 1974.46 617.059 1956.46 581C1944.84 557.722 1975.17 506.448 2000 532M1271 529C1277.99 521.102 1294.89 529.858 1271 529M1636 525.733C1654.86 519.744 1692.42 530.124 1699.76 550C1709.29 575.819 1685.34 600.709 1663 607.619C1650.89 611.367 1630.98 614.707 1619 609.554C1572.64 589.615 1600.37 537.05 1636 525.733M157 527C159.737 526.967 162.293 526.604 165 526.259C189.87 523.091 160.837 540.171 157 527M583 538C579.752 538 576.144 539.082 573 538.806C547.812 536.59 579.141 519.899 583 538M552 531L553 532C544.868 539.999 531.625 548.78 522 555C528.56 540.987 539.131 537.54 552 531M1265.68 532.153C1278.66 531.419 1281.94 537.563 1291.29 541.361C1293.2 542.138 1295.77 538.022 1298.14 537.856C1303.7 537.468 1316.18 543.712 1319.4 548.071C1335.72 570.15 1309.06 607.084 1284.92 609.509C1267.81 611.228 1243.21 610.15 1231.7 595.435C1212.18 570.496 1237.31 533.758 1265.68 532.153M210 545C202.531 544.259 197.793 541.614 194 535C200.548 535.98 206.567 539.238 210 545M515 535L513 539C515.785 538.266 516.832 537.471 515 535M2052 535C2061.69 536.379 2077.72 538.977 2083 548C2071.5 546.409 2062.35 537.86 2051 536L2052 535M557 536C554.981 556.832 520.152 559.72 538 587C527.512 585.929 518.952 574.039 524.023 564C530.656 550.869 544.415 542.605 557 536M182 539C180.222 540.204 179.122 540.601 177 541L177 538L182 539M186 608C195.995 593.397 218.709 585.355 220.837 565C221.371 559.889 212.632 539.152 212.851 539.065C222.399 535.27 231.692 560.383 230.245 567C226.615 583.605 202.011 603.973 186 608M153 542C151.479 550.761 147.549 555.728 139 558C141.378 551.006 146.509 545.456 153 542M174 542C171.66 547.393 162.016 555.784 157 559C158.123 550.238 165.444 543.44 174 542M524 542C522.976 545.804 521.694 547.56 518 549C519.68 546.078 521.378 544.119 524 542M555 547C559.94 540.073 563.066 547.76 555 547M2070 550C2061.7 550 2054.86 550.561 2051 542C2057.6 543.171 2065.12 545.268 2070 550M590 558C565.363 548.357 592.223 534.1 590 558M575 544C574.101 546.124 574.124 546.101 572 547C572.899 544.876 572.876 544.899 575 544M511 546C504.112 563.423 500.183 569.585 502 589C488.443 586.722 455.315 586.573 446 576C467.27 566.315 489.113 553.875 511 546M572 596C587.863 580.075 606.983 570.316 596 546C608.496 548.854 620.354 556.017 630.018 564.295C632.061 566.045 639.385 571.039 638.239 574.342C636.958 578.03 625.343 579.134 622 580.3C606.606 585.67 588.395 595.512 572 596M2088 549.333C2088.89 549.333 2088.89 550.667 2088 550.667C2087.11 550.667 2087.11 549.333 2088 549.333M176 550C175.101 552.124 175.124 552.101 173 553C173.899 550.876 173.876 550.899 176 550M206 553C206.779 555.443 207.754 557.674 208.803 560.011C216.632 577.443 197.423 560.339 204.942 551.958C209.219 547.192 225.164 564.141 206 553M556 550C552.324 564.229 541.24 568.227 549 584C526.638 583.656 544.395 554.188 556 550M2095 551L2092 552L2095 551M567 553C565.332 555.703 563.703 557.332 561 559C561.237 554.77 562.762 553.212 567 553M178 561C187.996 548.63 190.651 563.889 178 561M2073 555L2073 557C2067.85 557.471 2063.36 558.648 2060 554L2073 555M2105 554.333C2105.89 554.333 2105.89 555.667 2105 555.667C2104.11 555.667 2104.11 554.333 2105 554.333M597 556C596.075 571.049 585.079 584.661 571 590C574.953 582.758 589.926 558.917 597 556M2076 556L2075 557L2076 556M195 566C189.635 556.881 199.369 557.426 195 566M2094 560C2090.32 559.916 2087.39 559.46 2084 558C2087.83 556.724 2091.24 556.891 2094 560M144 559C135.827 584.836 131.004 560.767 144 559M554 579C555.456 576.143 557.179 573.63 559.126 571.074C576.338 548.488 576.481 582.386 554 579M582 560.333L582.333 560.667C581.84 560.831 581.227 560.333 582 560.333M157 561C156.814 564.107 159.119 587.298 159.021 587.375C154.197 591.197 153.604 564.25 155 561L157 561M514 593C510.202 590.298 499.267 562.643 507.99 562.643C507.912 562.643 513.446 589.777 514 593M2061 562L2060 563L2061 562M2073 564C2071.54 565.081 2070.75 565.436 2069 566C2070.54 564.733 2071.05 564.511 2073 564M118 566C116.264 584.637 123.535 593.448 132 609C115.994 605.058 102.764 601.91 86 602.003C82.1352 602.024 70.9653 605.572 68.1057 602.821C65.6223 600.431 77.3954 593.659 79 592.437C91.385 583.009 103.922 572.81 118 566M178.29 566.755C183.064 565.241 185.122 573.059 180.695 574.288C175.206 575.812 172.556 568.574 178.29 566.755M149 568C149 574.081 149.437 579.955 150 586C144.375 580.83 144.63 574.848 147 568L149 568M2062 568L2060 571L2062 568M190 569L190 573C189.493 571.307 189.493 570.692 190 569M205 569C204.36 571.546 203.679 572.986 202 575C201.372 571.616 201.851 570.445 205 569M211 573C210.637 575.027 210.483 575.637 209 577C209.511 575.047 209.733 574.543 211 573M610.333 575.667C610.278 575.722 610.222 576.778 610.667 576.333C610.723 576.277 610.777 575.223 610.333 575.667M170 576C174.552 578.461 177.816 579.53 183 579C179.154 584.328 170.095 583.536 170 576M206 577C203.224 590.982 188.898 601.031 175 602C180.028 594.231 196.894 578.846 206 577M148 599C139.3 596.101 133.663 591.416 132 582C138.945 584.722 145.061 592.308 148 599M164 582.333C164.889 582.333 164.889 583.667 164 583.667C163.111 583.667 163.111 582.333 164 582.333M124 583C128.81 588.562 133.109 596.251 136 603C128.766 600.33 123.043 590.765 124 583M542 592C533.568 598.944 523.73 592.224 521 583C529.062 586.197 532.392 591.895 542 592M167 593C164.401 595.26 162.423 595.777 159 596L159 593L167 593M546 597L543 598L546 597M181 607C171.935 618.763 146.89 613.558 140 602C154.587 604.485 166.249 607.303 181 607M1666 611C1665.06 613.506 1664.51 614.064 1662 615C1663.23 612.991 1663.99 612.228 1666 611M1268 630C1267.66 620.723 1259.62 619.922 1258 613C1268.17 614.802 1282.57 618.349 1268 630M1287 614L1279 629C1272.72 623.308 1279.95 613.9 1287 614M1633 630C1626.9 627.598 1622.92 621.099 1621 615C1629.35 616.209 1632.09 622.145 1633 630M1652 651C1648.74 647.946 1631.7 619.202 1642.47 617.323C1645.99 616.71 1652.49 647.196 1652 651M1669 620C1668.99 625.354 1669.59 630.628 1664 633C1664.21 627.498 1664.15 623.315 1669 620M1266 637.333C1266.77 637.333 1266.16 637.831 1265.67 637.667L1266 637.333M1663 639.333C1663.77 639.333 1663.16 639.831 1662.67 639.667L1663 639.333M1660 658C1658.1 656.723 1657.74 656.177 1657 654C1659.7 654.578 1659.79 655.261 1660 658M1655 883C1634.8 887.416 1613.95 891.287 1600.52 909C1577.4 939.501 1616.86 961.759 1643 962C1638.16 965.637 1627.83 963.63 1624.41 968.593C1622.08 971.96 1642.87 974.958 1646 975C1640.39 982.534 1631.93 971.321 1625.97 976.238C1624.04 977.827 1638.93 991.969 1644 992C1632.76 1014.45 1619.44 963.71 1612 959C1609.76 975.557 1624.85 994.866 1635.36 1006.13C1637.29 1008.21 1650.58 1022.89 1652.35 1014.97C1653.13 1011.47 1643.19 1007.21 1641 1004C1660.54 1014.25 1663.2 991.3 1672.42 978.003C1674.61 974.841 1687.89 966.475 1684.91 962.958C1679.95 957.106 1670.75 969.857 1668.34 973C1665.74 976.393 1652.73 1004.1 1648.92 999.444C1646.65 996.662 1653.3 993.424 1650.86 989.843C1648.5 986.381 1645.15 986.596 1644 982L1653 985L1650 980C1654.41 978.263 1663.03 974.19 1655 971C1658.72 969.094 1661.87 968.982 1666 969C1663.66 965.66 1660.14 964.47 1657 962C1680.74 961.964 1708.82 949.158 1732 943.103C1735.35 942.229 1754.57 941.524 1754.93 940.458C1756.58 935.698 1737.24 923.335 1734 919C1736.3 920.249 1750.23 930.53 1751.48 928.778C1753.72 925.624 1745.66 920.129 1743.64 918.853C1728.15 909.048 1720.29 899.296 1707 887C1705.94 893.362 1710.37 899.036 1714 904C1706.48 900.693 1696.48 893.461 1690 901C1680.24 886.14 1672.61 888.021 1689 892C1687.86 884.026 1681.91 877.137 1681.32 869C1680.92 863.483 1684.64 858.539 1685 853C1682.12 853.839 1681.71 855.115 1681 858C1675.13 852.055 1674.3 835.351 1674 827C1657.97 832.305 1644.86 854.641 1635.29 868C1633.41 870.616 1623.12 881.404 1626.33 884.674C1629.71 888.121 1648.32 879.338 1655 883M1999 894C1988.15 897.308 1981.32 905.811 1973 913C1970.48 903.213 1931.52 932.684 1924.22 937.429C1921.61 939.12 1909.73 944.094 1910.44 947.714C1911 950.548 1921.53 949.932 1924 950.509C1937.59 953.68 1947.81 960.745 1962 963.387C1975.81 965.958 1985.29 975.111 1998 978.122C2029.42 985.563 2065.52 973.485 2081.04 945C2091.38 926.012 2078.58 919.546 2069.74 904C2061.38 889.287 2055.4 871.528 2048.03 856C2043.13 845.668 2036.96 841.905 2037 830C2031.96 831.771 2029.24 842.351 2026.42 847C2019.3 858.731 1988.39 880.25 1999 894M1166 947C1171.93 955.037 1188.21 944.223 1196 942C1183.37 954.955 1191.57 959 1206 959C1198.63 964.731 1162.25 961.334 1160.08 949.749C1159.5 946.628 1167.96 942.695 1170 941.219C1175.4 937.318 1208.86 919.635 1207.63 913.51C1206.94 910.06 1194.87 919.278 1193 920.378C1182.94 926.307 1151.49 940.148 1146.67 950.293C1144.9 954.008 1160.36 956.854 1163 958.165C1175.32 964.279 1193.33 970.233 1207 971.816C1215.98 972.855 1236.78 969.516 1218 963L1221 968C1215.95 967.234 1211.14 966.1 1206 966C1225.48 947.491 1202.55 964.439 1195.54 952.297C1191.47 945.231 1214.34 934.817 1190 939C1196.67 934.577 1203.63 930.878 1210 926C1210.03 979.629 1296.69 996.39 1323.7 952.783C1339.52 927.256 1308.14 919.721 1296.9 903.561C1293.8 899.106 1294.18 886.285 1295 881C1300.78 887.402 1302.64 894.874 1312 897C1306.04 876.834 1293.19 862.52 1290 840L1294 841C1294.99 837.827 1295.32 835.311 1295 832C1269.94 845.339 1257.7 874.268 1240.24 892.089C1236.09 896.333 1228.71 896.962 1224.01 901.18C1217.51 907.016 1214.81 915.782 1208.66 921.374C1198.27 930.816 1178.78 941.152 1166 947M1669 840C1665.77 846.639 1662.51 854.675 1655 857C1657.95 850.354 1661.34 841.777 1669 840M911 893C896.973 894.906 878.606 891.895 866 899.2C834.008 917.74 838.278 960.57 870 976.943C894.335 989.503 923.2 971.735 944 982C953.183 958.344 1008.71 970.91 1018 946C1031.04 949.946 1013.41 937.371 1009 935.738C993.273 929.923 959.493 925.656 950.304 910.997C942.373 898.345 931.135 875.932 930.025 861.018C929.685 856.443 934.943 841.256 936.149 841.854C931.501 839.546 925.796 846.626 922.864 849.192C915.336 855.777 884.531 876.866 885.786 887.573C885.974 889.184 906.827 890.752 911 893M1671 844L1671 847C1670.3 845.446 1670.3 845.554 1671 844M2034 844.333C2034.77 844.333 2034.16 844.831 2033.67 844.667L2034 844.333M2037 846C2037.79 848.038 2037.98 848.835 2038 851C2036.77 849.037 2036.5 848.257 2037 846M1669 851C1667.67 856.088 1660.02 868.329 1656 859C1661.39 857.8 1664.52 853.93 1669 851M1287 852C1288.14 860.724 1284.83 868.651 1276 872C1276.95 865.206 1280.35 854.967 1287 852M2029 866C2030.06 860.801 2032.39 856.567 2035 852C2043.1 856.474 2034.47 863.716 2029 866M2028 853C2025.39 865.668 2017.07 889.104 2003 891C2007.36 887.445 2011.33 884.019 2014 879C2009.07 880.828 2005.89 885.103 2001 887C2005.53 875.066 2018.68 861.624 2028 853M927 855C924.959 864.505 925.138 871.529 915 876C917.089 869.284 920.106 857.856 927 855M1672 856C1675.52 860.2 1675.11 863.871 1674 869C1669.13 869.716 1665.42 872.963 1661 875C1663.3 868.154 1668.03 862 1672 856M1645 863.333C1645.89 863.333 1645.89 864.667 1645 864.667C1644.11 864.667 1644.11 863.333 1645 863.333M2044 863C2043.59 865.092 2043.78 865.02 2042 866L2044 863M1269 865C1265.91 872.466 1257.08 881.215 1250 885C1251.87 876.556 1260.63 867.195 1269 865M1636 877C1638.02 872.314 1640.58 868.626 1645 866C1642.39 876.971 1652.07 861.572 1655.59 866.843C1660.17 873.692 1639.43 876.788 1636 877M2037 865C2036.21 868.463 2035.64 871.451 2036 875C2028.51 872.84 2031.15 867.41 2037 865M912 868C910.696 877.456 907.359 885.568 897 886C899.009 878.341 905.842 872.6 912 868M1286 869C1289.38 880.746 1277.01 881.372 1277 877.801C1277 875.052 1282.54 871.43 1284 869L1286 869M929 872C931.612 878.845 929.382 881.902 923 885L927 872L929 872M2045.02 873.643C2048.34 873.653 2051.69 881.598 2047.5 882.152C2042.16 882.857 2039.52 873.625 2045.02 873.643M1673 873C1672.26 876.182 1671.19 876.643 1668 877C1668.99 874.147 1670.06 873.627 1673 873M1293 875.333C1293.77 875.333 1293.16 875.831 1292.67 875.667L1293 875.333M2020 887C2028.78 868.863 2037 885.824 2020 887M920 877C919.325 881.659 918.126 884.954 913 885C915.051 881.883 917.129 879.386 920 877M531 887C541.404 885.657 550.315 883.293 561 884.565C583.939 887.295 592.476 915.397 582.941 934.562C570.083 960.404 548.131 973.357 519 967.715C501.394 964.305 478.665 950.186 481.188 929C483.755 907.445 533.18 879.322 544 907C549.488 890.405 524.565 890.574 515 892.959C490.401 899.093 468.483 908.53 445 919.118C437.149 922.658 422.578 926.283 416.892 932.824C412.218 938.199 427.477 938.91 430 939.287C439.701 940.74 476.292 942.355 471 953C486.161 949.278 489.264 961.468 502 967.729C516.721 974.965 535.423 976.007 551 971.249C558.303 969.018 571.889 955.961 578 961C583.396 944.775 625.791 940.708 643 935.28C648.969 933.397 659.176 938.129 662 931C643.318 930.635 630.723 915.047 615 907.094C605.64 902.358 594.666 900.686 586.177 894.064C571.381 882.522 547.998 868.937 531 887M1674 886C1668.99 885.241 1663.88 884.331 1659 883C1664.61 879.327 1671.03 879.404 1674 886M186 881.524C164.73 885.288 160.999 902.79 146.56 914.061C140.271 918.971 126.675 921.883 118.96 925.54C115.836 927.021 95.6462 933.25 97.1057 937.445C99.2101 943.494 122.087 951.613 128.001 954.354C139.551 959.707 150.052 966.084 163 967.66C168.222 968.296 173.797 963.596 178.096 964.962C197.97 971.277 208.365 986.5 232 982.353C255.212 978.28 283.951 949.917 270.868 925C256.913 898.422 237.536 894.907 211.196 888.598C201.437 886.26 197.677 879.458 186 881.524M931 882C933.011 886.72 934.76 890.818 935 896C929.255 892.726 926.709 888.386 929 882L931 882M195 898C216.258 896.687 230.86 892.407 249.823 906.978C272.205 924.176 276.207 960.334 246 972.88C214.642 985.904 179.632 970.107 163.946 941C158.733 931.326 150.723 921.571 155.465 910C160.279 898.251 175.036 889.326 187 886.392C199.956 883.214 207.857 888.882 195 898M1291 899C1277.57 889.913 1289.63 879.147 1291 899M2057 888C2059.59 890.788 2061.07 893.307 2062 897C2043.07 892.731 2020.36 883.834 2008 907C2020.73 898.235 2034.35 892.28 2050 896.699C2085.53 906.727 2084.56 947.26 2057 965.412C2023.54 987.449 1947.72 966.492 1977.65 917C1987.27 901.094 2017.1 887.78 2035 885.603C2041.71 884.787 2051.91 890.951 2057 888M2056.67 885.667C2056.72 885.722 2056.78 886.778 2056.33 886.333C2056.28 886.278 2056.22 885.222 2056.67 885.667M1283 897C1276.98 895.745 1274 891.36 1270 887C1277.37 885.666 1281.26 890.123 1283 897M1662 891C1664.12 884.769 1673.02 889.129 1676.56 892.394C1685.8 900.921 1696.46 911.23 1695.87 924.996C1695.56 932.07 1689.39 935.339 1685.6 940.438C1681.1 946.488 1679.68 951.874 1672 955.597C1652.08 965.254 1605.76 957.436 1600.53 933C1595.44 909.225 1642.42 874.037 1662 891M1662 892C1662.55 893.635 1662.36 893.455 1664 894C1663.23 892.825 1663.18 892.773 1662 892M934 904C926.558 903.188 924.477 899.153 921 893C927.403 894.642 931.661 897.717 934 904M1245 896.42C1268.53 892.112 1296.22 905.266 1312.49 921.574C1326.9 936.015 1323.86 955.961 1304 963.996C1296.97 966.843 1289.3 969.38 1281.86 970.921C1264.3 974.563 1237.24 970.857 1225.51 955.992C1209.17 935.301 1217.08 901.532 1245 896.42M912 901C909.835 901.479 908.209 901.327 906 901C908.395 899.934 909.59 899.965 912 901M893 907C910.755 908.186 927.569 902.551 943.864 913.526C966.863 929.018 960.173 957.958 939 971.277C925.62 979.694 905.103 979.098 890 977.856C851.61 974.701 828.547 919.782 871 902.224C877.54 899.52 910.041 897.323 893 907M943 909C933.256 903.858 941.153 899.302 943 909M1702 903C1700.34 906.541 1698.83 908.086 1695 909C1696 904.797 1697.77 903.565 1702 903M488 904C487.518 906.364 487.364 906.518 485 907C485.902 905.077 486.076 905.001 488 904M614 915C607.107 912.128 595.418 911.096 591 905C599.379 905.172 609.516 907.29 614 915M1733 928C1723.23 925.319 1706.55 918.223 1705 907C1717.32 910.515 1726.53 916.641 1733 928M464 920C486.289 901.143 483.345 923.34 464 920M1973 913C1967.95 929.252 1939.03 945.998 1923 946C1926.21 937.163 1963.44 914.39 1973 913M615 923C606.988 921.254 600.834 921.579 595 915C601.526 915.865 611.306 917.191 615 923M1701 916C1707.67 920.963 1718.36 924.15 1723 931C1712.94 932.38 1704.76 938.281 1695 940C1697.81 933.125 1703.68 929.865 1711 930C1709.5 923.957 1705.59 926.21 1701 928C1700.92 924.005 1700 919.878 1701 916M588 931C590.811 926.788 590.99 922.957 591 918C599.177 921.13 596.631 931.769 588 931M132 933C148.372 915.666 156.755 930.04 132 933M475 921C473.507 926.458 467.982 926.681 463 927C465.937 923.627 470.869 922.533 475 921M625 924C641.279 935.382 616.91 936.996 608 937C612.752 931.449 620.531 930.565 625 924M964 927C961.402 926.503 960.526 926.141 959 924C961.325 924.689 962.468 925.148 964 927M442 925C440.773 927.008 440.009 927.773 438 929C438.854 926.475 439.508 925.97 442 925M460 926C458.271 928.592 457.041 929.317 454 930C455.119 926.807 456.716 926.375 460 926M642 930C637.783 932.373 635.126 931.206 633 927C636.199 927.649 639.021 928.666 642 930M475 928C475.545 931.229 475.701 933.795 475 937C471.666 935.579 468.701 934.442 466 932L475 928M979 930.333C979.889 930.333 979.889 931.667 979 931.667C978.111 931.667 978.111 930.333 979 930.333M979 938C969.466 939.678 962.836 945.467 962 932C966.53 933.506 976.048 934.797 979 938M1278.33 933.667C1278.28 933.722 1278.22 934.778 1278.67 934.333C1278.72 934.278 1278.78 933.222 1278.33 933.667M136 948C141.664 946.575 172.274 958.649 167.902 962.858C164.424 966.205 155.654 962.232 152 960.997C140.28 957.037 110.94 945.827 106 934C110.908 934.493 135.148 944.373 136 948M996 951C996.643 940.268 985.803 944.816 981 939C995.848 933.766 1023.95 942.084 996 951M1740 937C1730.72 937.56 1722.18 941.104 1713 942C1718.34 936.761 1734.07 929.831 1740 937M453 935C449.929 938.715 445.167 938.57 442 935L453 935M472 941C466.964 940.821 461.876 940.279 457 939C460.728 933.558 469.759 934.827 472 941M593 936C593.46 938.757 594.123 939.917 596 942C591.531 943.805 586.801 945.498 582 946C584.372 940.026 586.797 937.581 593 936M1965 936C1965.78 945.684 1971.13 953.388 1975 962C1965.6 960.859 1958.25 959.942 1964 951C1955.97 950.157 1949.31 947.971 1941 948C1947.22 942.429 1957.44 939.672 1965 936M143 937C141.073 939.325 139.973 939.439 137 939C139.06 937.77 140.615 937.338 143 937M145 942L145 939C156.449 939.053 157.226 943.244 145 942M478 941L479 942L478 944L476 943C476.545 941.365 476.365 941.545 478 941M1697 944L1697 946L1686 949C1689.37 945.8 1692.27 943.863 1697 944M1710 943.333L1710.33 943.667C1709.84 943.831 1709.23 943.333 1710 943.333M978 945C973.36 948.5 967.578 949.668 962 951C964.486 944.883 972.06 943.731 978 945M1309 944C1310.54 945.267 1311.05 945.489 1313 946C1311.46 944.733 1310.95 944.511 1309 944M984 950C979.552 956.057 950.093 972.466 943 973C951.729 959.078 968.184 952.058 984 950M993.667 952.667C993.722 952.722 993.778 953.778 993.333 953.333C993.278 953.278 993.222 952.222 993.667 952.667M1954 952L1954 954L1949 954L1949 952L1954 952M990 955C988.264 956.083 987.006 956.544 985 957L985 955L990 955M1646 967L1647 968L1644 970L1646 967M2063.71 973.761C2045.14 979.186 2055.03 1026.19 2035.18 1027.48C2034.75 1027.51 2053.83 990.263 2050.91 981.825C2049.1 976.617 2043.08 985.556 2040.84 985.224C2030.56 983.699 2004.18 976.932 1995.92 987.328C1992.88 991.154 2000.72 997.59 2002.94 1000C2009.17 1006.76 2024.6 1036.3 2035 1033.86C2052.71 1029.72 2054.96 1002.78 2060.48 989C2061.26 987.055 2068.21 972.448 2063.71 973.761M2029 1022C2018.4 1013.79 2007.09 998.812 1999 988C2021.62 988 2035.17 997.201 2029 1022M2031 988L2028 989L2031 988M2040 989C2038.97 992.664 2037.4 994.332 2034 996C2034.84 991.973 2035.91 990.021 2040 989M2032 990C2030.33 991.125 2030.67 991.125 2029 990L2032 990M2044 996L2043 1001C2042.61 998.811 2042.89 997.936 2044 996M2042 1003C2041.26 1005.18 2040.9 1005.72 2039 1007L2040 1003L2042 1003M1670 1197C1674.61 1222.83 1680.99 1250.65 1680 1277C1672.84 1269.35 1667.74 1255.92 1657 1252.76C1624.6 1243.23 1593.24 1282.27 1600.7 1312C1610.53 1351.15 1667.13 1355.47 1686.64 1320.99C1692.9 1309.93 1687.75 1295.28 1685.63 1284C1682.8 1268.92 1682.29 1249.78 1681.14 1234C1680.23 1221.56 1676.95 1209.5 1676.26 1197C1676.12 1194.6 1678.32 1186.23 1675.3 1185.11C1672.21 1183.95 1664.94 1195.01 1663 1197C1650.24 1210.05 1635.27 1222 1623.65 1236C1621.77 1238.26 1610.48 1250.58 1614.76 1253.46C1618.36 1255.87 1625.33 1241.57 1627.11 1239.52C1639.86 1224.79 1654.97 1209.37 1670 1197M1240 1251L1235 1251C1237.67 1245.95 1239.53 1240.74 1244 1237L1243 1245C1251.89 1242.84 1264.17 1227.09 1263 1242C1267.5 1240.68 1270.33 1232.93 1274.84 1233.43C1279.87 1233.98 1279.13 1241.29 1275.72 1243.3C1254.79 1255.62 1228.96 1253.72 1215.58 1279C1209.77 1289.97 1214.76 1302.59 1221.15 1312C1237.92 1336.71 1263.09 1341.71 1291 1338C1281.98 1350.58 1277.76 1364.44 1272.89 1379C1272.07 1381.43 1270.55 1391.76 1266.38 1390.36C1251.7 1385.44 1253.72 1344.29 1239 1338C1239.07 1355.71 1250.66 1371.39 1258.14 1386.98C1259.45 1389.72 1265.52 1402.55 1269.74 1399.03C1283.94 1387.19 1280.2 1358.06 1292.08 1343.49C1304.52 1328.23 1329.04 1326.29 1333.52 1304C1337.33 1285.07 1325.14 1260.43 1307 1252.94C1303.31 1251.42 1275.64 1248.85 1275.64 1250.87C1275.64 1237.74 1320.37 1256.43 1322.89 1250.34C1323.66 1248.5 1311.28 1237.98 1309.49 1235.86C1301.98 1227.02 1290.35 1183.55 1279 1187.94C1263.34 1194 1246.6 1223.38 1237.73 1237C1234.98 1241.23 1228.65 1249.21 1229.72 1254.64C1230.94 1260.79 1238.69 1253.14 1240 1251M1299 1231C1286.62 1230.57 1281 1204.54 1281 1194C1289.7 1198.26 1296.52 1221.88 1299 1231M1277 1201C1277.39 1207.32 1285.78 1220.89 1274 1221L1279 1212C1272.01 1214.71 1270.66 1226.19 1263.93 1227.81C1257.73 1229.31 1273.96 1203.89 1277 1201M93 1310C100.661 1301.36 118.204 1300.87 124.729 1293.11C126.648 1290.83 125.328 1286.05 121.93 1286.42C107.331 1288.01 85.4336 1308.62 73.0007 1316.5C69.8025 1318.53 59.7353 1323.4 59.7537 1327.93C59.7662 1331.01 65.0028 1330.92 67.0011 1330.84C83.1419 1330.19 85.87 1336.99 98 1345L97 1339C113.711 1343.86 133.07 1346.75 148.174 1351.68C167.167 1357.89 182.205 1367.62 204 1361.7C223.566 1356.38 239.32 1339.05 259 1332C253.41 1338.37 245.96 1340.31 243 1349C263.568 1344.42 276.742 1317.33 297 1311.24C303.358 1309.33 311.369 1316.41 318 1317C315.157 1309.18 304.972 1309.16 305 1300C291.482 1303.69 258.586 1283.49 248 1274C251.194 1273.17 252.07 1272.15 253 1269C233.402 1272.78 220.605 1273.68 215 1251C218.964 1254.87 229.074 1270.95 234 1260C212.875 1256.55 216.628 1226.94 220 1214C215.348 1214.3 211.133 1209.94 206.981 1211.19C190.949 1216.01 180.332 1241.55 169.637 1253.14C146.946 1277.71 125.637 1300.41 93 1310M1280 1222C1281.04 1230 1273.29 1227.87 1280 1222M201 1223C198.728 1228.58 194.115 1232.91 189 1236C191 1230.37 195.425 1225.28 201 1223M207.667 1224.67C207.722 1224.72 207.778 1225.78 207.333 1225.33C207.278 1225.28 207.222 1224.22 207.667 1224.67M194 1249C195.056 1232.56 222.892 1229.71 201.324 1245C198.989 1246.65 196.622 1247.88 194 1249M1251 1231L1250 1232L1251 1231M908 1247C922.239 1241.4 935.914 1235.44 951 1242.64C960.558 1247.2 962.766 1255.36 967.269 1264C969.841 1268.93 975.678 1272.03 977.237 1277.05C982.613 1294.35 968.379 1311.59 954.68 1320.09C932.07 1334.13 862.87 1316.35 871.306 1281C875.279 1264.36 896.433 1257.64 911 1255.48C918.642 1254.34 928.732 1253.46 930 1263C941.903 1253.14 921.177 1249.83 915 1250.04C898.697 1250.59 879.236 1257.53 866 1267C868.165 1267.48 869.791 1267.33 872 1267C856.367 1287.93 819.975 1308.92 796 1315C802.985 1321.03 812.796 1316.51 821 1316.55C835.557 1316.6 850.036 1319.66 864 1323.55C869.069 1324.96 879.637 1329.28 884.447 1325.75C889.233 1322.23 881.569 1316.88 879 1315C910.042 1320.43 890.667 1378.16 920.147 1389.13C925.909 1391.27 930.447 1384.31 932.585 1380C940.503 1364.02 947.4 1351.69 960.211 1339.2C961.577 1337.87 969.171 1329.41 964.527 1328.18C959.979 1326.97 952.734 1338.31 948 1340C949.384 1336.47 948.487 1330.68 950.245 1327.85C952.679 1323.95 961.25 1321.56 964.997 1318.54C977.714 1308.31 987.654 1290.83 982.315 1274C975.521 1252.59 952.074 1232.09 929 1235.6C921.543 1236.74 911.108 1239.42 908 1247M1293 1242C1281.57 1241.82 1288.03 1231.13 1293 1242M1310 1246C1303.91 1244.9 1298.5 1241.81 1296 1236C1302.33 1237.12 1307.27 1240.07 1310 1246M193 1241C188.299 1247.98 183.586 1252.38 176 1256L175 1255C179.699 1249.31 185.931 1243.38 193 1241M213 1241C213.854 1246.54 211.132 1247.61 206 1248C207.826 1244.65 209.653 1242.83 213 1241M1243.33 1248.67C1243.28 1248.72 1243.22 1249.78 1243.67 1249.33C1243.72 1249.28 1243.78 1248.22 1243.33 1248.67M1267.93 1250.91C1271.65 1251.36 1272.76 1255.59 1276.25 1256.24C1295.57 1259.83 1307.46 1254.32 1322.02 1273.13C1352.94 1313.06 1294.84 1337.84 1263 1333.74C1218.78 1328.04 1204.39 1277.57 1247 1258.12C1252.86 1255.45 1261.21 1250.09 1267.93 1250.91M210 1251C210.444 1254.88 211.934 1258.27 213 1262C197.697 1261.11 181.285 1263.19 171 1276C188.804 1270.47 218.633 1255.57 229 1282L229 1278C268.042 1321.08 205.053 1381.6 158 1352.98C148.133 1346.97 130.111 1336.04 127.67 1324C126.316 1317.32 126.575 1301.68 136 1302C132.85 1271.94 182.775 1251.85 206 1257C206.36 1253.68 206.935 1252.4 210 1251M1644 1266C1666.05 1254.55 1696.34 1295.68 1682.1 1318C1659.14 1353.99 1601.97 1341.21 1606.16 1296C1607.64 1279.97 1619.13 1265.57 1634 1260.14C1636.31 1259.3 1648.76 1253.83 1650.24 1256.86C1651.09 1258.61 1644.83 1263.91 1644 1266M959 1259L960 1260L959 1259M2047.33 1261.67C2047.28 1261.72 2047.22 1262.78 2047.67 1262.33C2047.72 1262.28 2047.78 1261.22 2047.33 1261.67M1972 1336C1942.91 1345.28 1921.98 1324.81 1892 1322C1900.57 1312.93 1944.03 1291.6 1956 1294C1958.21 1280.4 1943.07 1290.95 1936 1293.8C1916.43 1301.68 1897.52 1316.07 1877 1321L1877 1324C1889.53 1327.02 1904.1 1326.54 1916 1331.36C1928.4 1336.39 1940.12 1346.58 1954 1347.8C1963.34 1348.62 1969.23 1338.2 1977.08 1338.98C1998.57 1341.1 2020.41 1345.34 2042 1339.24C2055.82 1335.34 2059.08 1320.56 2072 1317.26C2095.63 1311.23 2121.99 1307.13 2145.95 1309.83C2148.73 1310.15 2152.72 1308.17 2149.95 1305.01C2144.32 1298.58 2122.52 1296.73 2114.11 1292.55C2105.76 1288.4 2093.16 1284.43 2085 1279.05C2078.78 1274.95 2071.93 1265.69 2064 1265.23C2057.21 1264.83 2054.79 1273.85 2047.98 1273.18C2036.4 1272.03 2021.81 1264.04 2011 1266.7C1976.43 1275.22 1936.73 1304.01 1972 1336M544 1378C547.493 1391.16 563.27 1351.97 558.593 1347.27C556.738 1345.4 547.954 1349.12 545 1349L545 1347C553.618 1345.68 561.713 1342.54 570 1340C562.294 1349.66 551.367 1377.67 554 1390C563.182 1380.07 568.99 1359.21 571 1346C579.081 1349.71 619.862 1350.98 612 1335C622.581 1333.71 659.787 1325.03 663 1314C643.777 1315.5 616.671 1256.6 593 1283C562.238 1253.54 491.118 1263.3 487.244 1313C485.821 1331.26 503.016 1334.7 512.499 1345.42C518.486 1352.2 522.526 1369.2 526.66 1378C529.21 1383.43 533.258 1396.67 540.72 1396.9C540.168 1396.88 538.886 1383.48 544 1378M603 1266C603.814 1269.26 604.74 1270.19 608 1271C606.799 1268.77 604.951 1267.62 603 1266M1744 1267L1747 1269C1746.02 1267.22 1746.09 1267.41 1744 1267M2073 1280C2069.86 1280.13 2067.07 1279.63 2064 1279C2059.87 1264.86 2067.56 1271.18 2073 1280M553 1270C548.806 1274.89 543.491 1277.8 541 1284C548.634 1278.19 555.185 1273.63 565 1273L563 1280C573.826 1273.33 598.621 1286.98 597.648 1301C596.158 1322.51 573.273 1335.34 555 1341.08C533.84 1347.74 486.603 1340.7 492.538 1309C497.928 1280.21 528.442 1271.47 553 1270M2023 1271C2022.47 1271.99 2018.27 1277.49 2020 1278.26C2023.1 1279.65 2031.61 1274.8 2036 1275.34C2052.56 1277.39 2065.39 1295.66 2061.48 1312C2050.21 1359.08 1924.09 1337.84 1976.48 1287.88C1980.58 1283.97 1989.63 1279.49 1995.03 1277.52C2004.79 1273.96 2012.49 1271 2023 1271M293 1308C282.39 1307.6 277.499 1306.51 267 1309C272.536 1293.43 252.758 1286.12 237 1282C244.038 1272.03 289.315 1298.84 293 1308M610 1300C610.725 1296.06 609.909 1292.86 609 1289C615.377 1293.45 624.821 1301.48 629 1308C619.797 1306.6 611.396 1304 602 1304C604.822 1287.56 601.977 1272.63 610 1300M2076 1281C2076.99 1282.48 2077 1282.2 2077 1284C2075.23 1283.02 2075.04 1282.78 2076 1281M2063 1283L2062 1284L2063 1283M864 1284C861.999 1289.06 857.213 1291.9 852 1293C854.115 1287.67 858.565 1285.22 864 1284M2073 1289C2069.59 1288.18 2066.29 1287.2 2063 1286C2067.01 1283.68 2071.63 1284.18 2073 1289M645 1313C635.273 1309.26 618.01 1295.14 615 1285C625.314 1288.75 642.706 1301.79 645 1313M468 1334C473.678 1329.89 475.684 1331.59 481 1335C479.454 1327.73 484.596 1306.41 479 1304C482.848 1299.38 488.673 1296.92 492 1292C473.858 1281.93 450.494 1307.78 434 1317.23C431.136 1318.88 413.336 1327.24 415.544 1331.25C418.947 1337.41 437.301 1331.64 443 1332.42C455.937 1334.17 465.749 1343.81 478.04 1346.58C480.98 1347.25 506.577 1348.43 501.03 1341.8C496.63 1336.54 475.001 1336.01 468 1334M874 1310C866.085 1306.19 860.818 1305 852 1305C854.904 1301.61 858.204 1300.78 856 1296C866.495 1286.8 871.152 1300.79 874 1310M2107 1299C2099.75 1297.58 2088 1297.97 2083 1292C2090.6 1292.01 2102.19 1292.25 2107 1299M247 1306C246.982 1301.6 246.578 1297.36 246 1293C254.957 1295.81 255.437 1301.19 247 1306M991 1293L992 1297C992.27 1295.09 992.06 1294.65 991 1293M2096 1303C2078.18 1307.67 2067.12 1313.42 2064 1293C2073.33 1295.27 2087.86 1298.29 2096 1303M267 1303C263.847 1302.07 262.829 1301.19 262 1298C265.26 1298.81 266.186 1299.74 267 1303M850 1300C846.43 1301.94 843.049 1302.78 839 1303C841.892 1298.59 845.234 1298.15 850 1300M2112 1299C2109.95 1299.75 2109.4 1299.66 2108 1298L2112 1299M474 1299C469.349 1304.15 463.455 1306.75 457 1309C460.531 1303.29 467.465 1299.93 474 1299M2115 1299L2119 1301C2116.84 1301.92 2114.55 1301.72 2115 1299M126 1302C124.953 1307.89 121.011 1313.94 121.832 1320C123.596 1333.01 136.734 1337.22 141 1348C126.636 1342.98 119.804 1336.66 104 1334C106.443 1328.31 112.822 1326.29 116 1321L93 1323C96.9227 1313.76 116.734 1304.89 126 1302M250 1312C257.26 1296.51 264.584 1309.6 250 1312M2097.67 1302.67C2097.72 1302.72 2097.78 1303.78 2097.33 1303.33C2097.28 1303.28 2097.22 1302.22 2097.67 1302.67M833 1304L832 1305L833 1304M992 1307L993 1308L992 1307M456 1309L455 1310L456 1309M612 1309L612 1311L609 1311L609 1309L612 1309M881 1323C860.483 1321.76 842.207 1311.52 821 1314C830.288 1301.13 874.153 1310.9 881 1323M285 1312C275.834 1323.12 264.874 1327.52 251 1330C256.395 1321.08 275.026 1312.37 285 1312M476 1317C473.579 1315.55 472.902 1314.68 472 1312C474.719 1313.22 475.386 1314.08 476 1317M602 1313C600.547 1315.3 599.541 1316 597 1317C598.092 1314.17 599.03 1313.6 602 1313M470 1318C466.45 1318.32 464 1319.29 461 1321.25C442.826 1333.14 464.024 1302.92 470 1318M649 1315C648.182 1322.05 624.929 1330.5 618.424 1328.02C614.721 1326.61 614.273 1319.77 617.686 1317.82C626.088 1313.04 639.383 1319.6 649 1315M90 1317C88.953 1320.92 86.806 1321.98 83 1323L86 1328C82.9931 1327.18 80.0925 1326.4 77 1326C79.2215 1320.61 84.6572 1318.51 90 1317M254 1319C252.723 1320.9 252.177 1321.26 250 1322C251.45 1320.39 252.051 1319.94 254 1319M611 1319C607.718 1329.33 590.555 1321.74 611 1319M469.863 1320.57C475.574 1320.08 472.307 1325.09 468.051 1325.26C461.995 1325.51 466.108 1320.9 469.863 1320.57M250 1323C248.047 1325.11 246.707 1326.05 244 1327C245.78 1324.28 246.756 1323.32 250 1323M906 1349C900.882 1342.73 900.313 1329.95 900 1322C915.826 1324.14 906.111 1337.11 906 1349M71 1324.33C71.8889 1324.33 71.8889 1325.67 71 1325.67C70.1111 1325.67 70.1111 1324.33 71 1324.33M603 1328C599.699 1336.05 576.503 1348.14 571 1339C586.573 1331.12 586.416 1327.9 603 1328M104 1325C100.796 1330.6 94.0391 1332.99 89 1328L104 1325M931 1327C927.983 1331.98 916.634 1330.59 915 1325C920.387 1326.48 925.425 1326.99 931 1327M239 1331C238.101 1333.12 238.124 1333.1 236 1334C236.899 1331.88 236.876 1331.9 239 1331M940 1333C938.457 1334.27 937.952 1334.49 936 1335C937.388 1333.26 937.762 1333.15 940 1333M915 1334C936.385 1338.52 918.104 1357.33 915 1334M1600 1343C1614.58 1358.26 1605.49 1398.52 1626.39 1410.92C1632.45 1414.52 1636.8 1402.89 1638.57 1399C1644.46 1386 1650.52 1373.64 1658.97 1362.04C1662.84 1356.72 1672.09 1348.69 1673.22 1342.18C1674.49 1334.85 1663.1 1345.88 1662 1349C1650 1342.56 1643.18 1352.09 1634 1358C1634.77 1355.61 1635.95 1352.05 1632.95 1350.54C1629.25 1348.68 1626.2 1358.25 1620.94 1355.26C1612.76 1350.61 1618.81 1334.73 1602.09 1337.3C1596.71 1338.13 1592.66 1352.48 1598.98 1353.68C1602.76 1354.39 1600.19 1344.67 1600 1343M937 1338C935.572 1341.15 934.368 1342.19 931 1343C932.446 1339.93 933.74 1338.92 937 1338M911 1340L910 1341L911 1340M598 1343C596.183 1345.26 594.876 1345.64 592 1346C594.034 1344.18 595.326 1343.56 598 1343M936 1345C934.964 1348.93 933.508 1350.95 930 1353C931.378 1349.4 932.728 1347.09 936 1345M945 1345C943.017 1351.21 928.062 1382.7 921.894 1383.68C910.931 1385.42 909.889 1360.85 910 1355C915.445 1359.42 912.588 1368.24 919.67 1371.97C924.859 1374.7 939.925 1348.1 945 1345M533 1355C527.519 1354.15 524.684 1351.78 522 1347C527.205 1347.93 531.039 1349.93 533 1355M1610 1347L1609 1348L1610 1347M539 1348C536.242 1350.14 534.432 1350.75 532 1348L539 1348M1611 1349L1611 1353C1610.49 1351.31 1610.49 1350.69 1611 1349M1630 1391C1631.78 1385.2 1633.88 1379.27 1636.93 1374C1638.91 1370.57 1641.31 1367.41 1643.44 1364.08C1662.03 1335.09 1641.42 1384.98 1636.09 1393C1634.81 1394.93 1631.01 1404.16 1628.28 1403.68C1623.03 1402.75 1617.45 1382.62 1630 1391M919 1352L917 1355L917 1352L919 1352M519 1353C538.466 1357.05 530.395 1375.02 519 1353M541 1354C540.101 1356.12 540.124 1356.1 538 1357C538.899 1354.88 538.876 1354.9 541 1354M930 1355L929 1356L930 1355M1612 1355C1615.37 1361.03 1616 1366.19 1616 1373L1614 1373C1613.4 1367.12 1610.76 1360.86 1612 1355M1642 1357C1639.8 1362.29 1637.05 1367.08 1632 1370C1634.72 1364.67 1636.86 1360.32 1642 1357M926.667 1358.67C926.722 1358.72 926.778 1359.78 926.333 1359.33C926.278 1359.28 926.222 1358.22 926.667 1358.67M551 1365C551.627 1356.9 557.194 1362.94 551 1365M534 1379C526.591 1373.01 536.107 1367.81 534 1379M543 1371L542 1374L541 1371L543 1371M1632 1371L1631 1372L1632 1371M1628 1376L1627 1381C1626.61 1378.81 1626.89 1377.94 1628 1376M1617.67 1379.67C1617.72 1379.72 1617.78 1380.78 1617.33 1380.33C1617.28 1380.28 1617.22 1379.22 1617.67 1379.67M1620 1382L1620 1385L1618 1385L1618 1382L1620 1382M199 1752C197.738 1721.39 154.924 1700.95 148.38 1672C146.66 1664.39 161.706 1643.07 165.663 1635.78C175.474 1617.72 182.268 1591.55 182.96 1571C183.323 1560.2 185.865 1539.96 170.992 1537.74C157.563 1535.74 150.646 1548.17 143.499 1557C125.69 1579 115.578 1608.56 124.957 1637C127.743 1645.45 143.076 1664.1 140.315 1672.46C134.722 1689.39 112.291 1705.89 102.08 1721C100.458 1723.4 91.5681 1736.6 93.2941 1738.89C96.1904 1742.74 102.862 1727.52 103.728 1726C111.812 1711.85 123.126 1701.08 133.764 1689C135.768 1686.72 140.519 1676.69 143.93 1677.2C148.388 1677.86 154.597 1690.5 157.261 1694C167.715 1707.74 177.094 1722.17 186.992 1736.32C190.887 1741.89 192.232 1749.31 199 1752M144 1666C126.582 1632.74 116.607 1593.7 144.059 1562C150.506 1554.56 158.834 1539.1 170.989 1542.5C181.951 1545.58 179.835 1566.37 178.639 1575C174.821 1602.57 165.142 1646.34 144 1666M884 1760C878.845 1731.52 874.377 1702.8 868.564 1675C866.96 1667.33 871.357 1652.69 865.716 1646.63C863.467 1644.21 852.69 1645.01 849 1644.31C829.25 1640.61 816.607 1639.95 797 1645C818.383 1619.15 845.751 1597.16 868.242 1572.06C870.859 1569.14 891.621 1552.64 890.894 1551.89C885.907 1546.76 868.746 1564.54 865.768 1567.84C846.955 1588.73 827.343 1610.52 806.871 1629.79C803.056 1633.38 784.285 1642.66 785.382 1648.65C785.89 1651.43 800.751 1648.52 803 1647.85C816.049 1643.95 849.663 1641.84 861.178 1651.26C866.021 1655.22 863.081 1672.17 863.636 1678C865.81 1700.83 872.814 1727.56 877.265 1751C877.948 1754.6 882.276 1771.84 885.399 1773.24C886.822 1773.87 897.971 1740.57 899.93 1737C915.059 1709.44 933.518 1684.53 947.61 1656C949.249 1652.68 961.782 1631.64 959.132 1629.39C955.795 1626.55 952.279 1636.22 951.57 1638C946.337 1651.16 939.025 1663.43 932.557 1676C926.305 1688.15 920.223 1698.74 912.499 1710C902.83 1724.1 895.283 1748.64 884 1760M1276 1597L1276 1600C1264.51 1600.63 1254.99 1609.43 1245 1614.22C1226.4 1623.13 1207.17 1630.14 1187 1634.17C1182.09 1635.15 1165.57 1641.85 1165.75 1647.94C1165.88 1652.39 1181.57 1659.87 1185 1663.03C1198.13 1675.14 1208.67 1692.48 1215.5 1709C1223.78 1729.03 1231.09 1747.47 1234.68 1769C1235.64 1774.76 1233.28 1787.68 1239 1790C1249.92 1760.58 1256.62 1733.62 1273.04 1706C1279.61 1694.95 1299.33 1679.93 1301 1668C1277.57 1674.93 1261.26 1717.26 1250.98 1737C1249.14 1740.53 1242.5 1763.48 1239.14 1763.48C1236.47 1763.48 1233.23 1736.99 1231.28 1733.44C1218.06 1709.33 1211.46 1680.78 1189.98 1661.86C1184.34 1656.89 1178.85 1648.57 1171 1648C1190 1634.04 1216.56 1632.9 1238 1622.82C1253.35 1615.61 1271.93 1600.19 1289 1600C1285.39 1591.91 1268.61 1593.24 1261.04 1590.98C1238.82 1584.36 1217.45 1571.62 1194 1568.95C1190.59 1568.56 1175.93 1562.09 1173.97 1565.76C1171.58 1570.23 1206.78 1576.79 1211 1578.01L1238 1585.85C1251.92 1589.84 1261 1597 1276 1597M1601 1763C1595.6 1707.17 1559.01 1654.45 1561 1597C1547.68 1600.45 1532.59 1636.68 1524.85 1648C1520.94 1653.7 1515.29 1657.5 1516 1665C1532.82 1649.7 1540.02 1619.25 1558 1607C1558.06 1649.86 1580.74 1687.74 1587.23 1729C1588.3 1735.8 1594.52 1768 1602.65 1768C1610.89 1768 1618.26 1733.75 1620.94 1727C1633.27 1695.95 1654.69 1668.12 1664.34 1636C1667.96 1623.94 1672.8 1609.25 1668 1597C1684.97 1606.56 1701.84 1644.46 1709.83 1662C1714.06 1671.3 1711.97 1681.31 1722 1687C1718.89 1657.08 1696.73 1632.02 1682.2 1607C1680.58 1604.2 1667.07 1581.75 1664.19 1584.39C1661.81 1586.56 1665.89 1595.02 1665.92 1598C1666.01 1610.54 1663.32 1622.94 1660.1 1635C1651.78 1666.11 1630.59 1693.83 1617.42 1723C1611.97 1735.07 1611.18 1754.01 1601 1763M553 1756C533.612 1735.72 524.5 1692.71 518.446 1666C517.037 1659.79 517.01 1633.99 509.668 1632.09C505.93 1631.12 512.924 1661 514.183 1666C520.654 1691.73 529.376 1744.87 551.534 1762.03C558.608 1767.51 560.232 1731.54 560.72 1728C566.487 1686.17 594.346 1646.5 597 1605C588.178 1610.39 584.519 1633.23 581.219 1643C568.328 1681.17 561.505 1717.08 553 1756M1942 1641C1942.72 1678.9 1958.69 1716.62 1964.84 1754C1967.03 1767.33 1970.43 1792.7 1982 1801C1989.9 1781.78 1992.67 1760.61 2002.41 1742C2018.22 1711.8 2045.23 1678.38 2050 1644C2068.7 1660.1 2078.54 1690.99 2089 1713C2103.02 1702.43 2107.75 1662.71 2109.67 1646C2109.97 1643.41 2110.43 1620.59 2103.81 1624.89C2101.67 1626.28 2105.14 1638.94 2105.05 1642C2104.59 1657.67 2098.55 1671.92 2094.94 1687C2094.21 1690.03 2093.63 1701.07 2089.69 1701.79C2085.53 1702.56 2082.74 1691.69 2081.45 1689C2074.31 1674.13 2069.36 1658.37 2058.44 1645.78C2056.6 1643.67 2050.68 1630.28 2047.71 1632.41C2042.49 1636.15 2041.73 1658.34 2038.62 1665C2024.78 1694.72 2006.51 1722.05 1993.26 1752C1991.49 1756 1981.74 1789.48 1979.87 1789.48C1976.15 1789.48 1972.3 1763.79 1971.27 1760C1962.44 1727.59 1959.77 1692.75 1949.87 1661C1948.49 1656.6 1945.58 1625.68 1942.04 1626.32C1940.3 1626.64 1935.15 1642.45 1933.53 1645.14C1924.43 1660.29 1913.98 1673.57 1899 1683C1896.91 1672.55 1892.97 1663.82 1889.3 1654C1886.93 1647.64 1885.19 1640.57 1883.42 1634C1882.62 1631.02 1878.21 1605.67 1874.67 1608.41C1870.73 1611.46 1874.92 1619.37 1875.65 1623C1878.82 1638.71 1884.93 1653.27 1890.52 1668.22C1892.41 1673.27 1893.28 1685.31 1900.1 1686.24C1917.04 1688.56 1933.31 1651.52 1942 1641M660 1753C662.836 1751.84 663.759 1750.8 665 1748C661.741 1748.81 660.814 1749.74 660 1753M188 1765C203.55 1763.92 196.132 1753.13 188 1765M1921 2096C1918.03 2074.55 1908.18 2053.65 1904.8 2032C1904.37 2029.23 1897.52 2016.29 1893.73 2018.54C1889.65 2020.97 1887.21 2032.67 1885.78 2037C1882.22 2047.79 1854.15 2090.67 1870 2097C1866.66 2080.9 1885.61 2036.38 1897 2025C1897.07 2042.57 1906.03 2072.33 1913.93 2088.22C1915.45 2091.28 1921.09 2107.53 1925.6 2105.46C1930.26 2103.31 1929.75 2094.15 1930.14 2090C1931.39 2076.4 1936.41 2062.63 1941.33 2050C1964.53 1990.45 1982.4 1933.25 1996 1871C2005.27 1892.09 2005.86 1917.72 2011.76 1940C2020.81 1974.14 2037.25 2014.59 2037.98 2050C2038.3 2065.51 2038.15 2079.94 2041.74 2095C2042.46 2098.03 2043.73 2108.36 2048.17 2108.36C2053.82 2108.36 2055.96 2092.94 2057.21 2089C2063.98 2067.64 2072.39 2047.24 2082 2027C2093 2043.7 2099.12 2064.98 2105 2084C2106.13 2087.67 2106.89 2102.41 2113.77 2100.71C2116.79 2099.96 2109.56 2083.23 2108.56 2080C2103.99 2065.3 2095.76 2025.66 2081 2019C2075 2039.47 2063.07 2059.79 2055.48 2080C2054.46 2082.72 2051.23 2098.48 2048.04 2098.48C2041.38 2098.48 2043.01 2060.84 2043 2056C2042.89 2010.6 2019.97 1964.53 2012.42 1920C2009.6 1903.39 2005.98 1887.19 2001.42 1871C2000.89 1869.1 1999.13 1856.02 1996.46 1857.11C1993.12 1858.47 1992.52 1868.88 1991.43 1872C1985.87 1887.86 1985.63 1905.59 1982.1 1922C1972.41 1967 1951.97 2011.62 1934.75 2054.22C1930.02 2065.91 1930.02 2087.37 1921 2096M82 1890C80.2555 1891.29 79.1938 1892.22 78 1894C80.4716 1893.16 81.8281 1892.69 82 1890M1348 2029C1335.26 2029.89 1325.66 2049.86 1319.05 2059.43C1301 2085.54 1286.86 2113.54 1271.77 2141.32C1267.23 2149.66 1263.38 2167.57 1256 2173C1253.25 2148.13 1225.95 2113.15 1211.51 2093C1206.68 2086.27 1190.34 2065.07 1190.62 2057.13C1190.8 2052.2 1206.07 2046.54 1209.86 2044.08C1229.98 2031.04 1247.63 2015.64 1266 2000.46C1269.83 1997.29 1287.04 1984.6 1284.33 1978.6C1282.2 1973.87 1269.46 1974.53 1265 1972.95C1245.41 1965.99 1224.87 1962.72 1205 1956.44C1200.34 1954.97 1184.13 1950.79 1183.08 1944.98C1182.51 1941.85 1192.76 1936.22 1195 1934.69C1207.62 1926.1 1220.49 1917.84 1233 1909.14C1234.82 1907.87 1248.85 1899.33 1246.03 1897.29C1241.58 1894.07 1233.06 1902.96 1229.86 1905.23C1215.45 1915.52 1200.27 1924.78 1186 1935.4C1184 1936.88 1168.56 1946.99 1169.54 1948.44C1172.81 1953.23 1186.58 1955.66 1192 1957.05C1210.67 1961.85 1229.25 1967.68 1248.08 1972.36C1253.83 1973.79 1271.71 1976.44 1274.58 1982.08C1277.38 1987.57 1259.23 1999.81 1256 2003C1241.7 2017.14 1224.53 2028.03 1207.78 2039.03C1200.36 2043.89 1188.77 2047.51 1183.79 2055.28C1181.96 2058.13 1197.43 2076.94 1199.67 2082.02C1210.72 2107.1 1231.69 2127.69 1242.6 2153C1244.91 2158.34 1251.77 2178.32 1257.45 2179.89C1265.37 2182.09 1272.49 2149.18 1275.62 2143.56C1292.12 2113.95 1308.17 2084.64 1326.35 2056C1332.51 2046.29 1342.6 2039.13 1348 2029M1677 1896C1688.3 1920.6 1723.37 1937.71 1744 1953.4C1750.37 1958.25 1768.16 1966.2 1769.11 1975.01C1769.8 1981.39 1759.81 1984.55 1755 1985.57C1739.34 1988.89 1719.51 1984.6 1704 1981.82C1701.14 1981.3 1688.15 1976.47 1686.53 1979C1685.22 1981.06 1690.94 1990.45 1691.78 1993C1697.12 2009.21 1706.54 2023.42 1713.14 2039C1715.67 2044.97 1721.75 2055.56 1721.36 2062.02C1721.01 2067.82 1715.15 2072.8 1712.91 2078C1704.02 2098.59 1691.85 2118.86 1677.18 2136C1672.58 2141.39 1662.24 2159.75 1655.08 2160.92C1651.84 2161.45 1640.25 2139.42 1638.54 2136C1629.48 2117.91 1621.93 2099.45 1611.18 2082.22C1604.55 2071.59 1594.02 2059.66 1596 2047C1593.92 2047.32 1584.01 2048.26 1584 2051.07C1583.99 2056.42 1600.72 2072.92 1603.92 2079C1620.31 2110.15 1638.29 2140.75 1652 2173C1677.48 2154.31 1694.3 2119.15 1710.78 2093C1714.37 2087.29 1727.51 2068.72 1727.19 2062.92C1725.85 2038.46 1702.65 2010.31 1696 1986C1715.55 1987.82 1760.48 2003.67 1773.74 1981.58C1779.75 1971.56 1763.13 1961.95 1757 1957.4C1742.32 1946.48 1724.87 1937.03 1711.44 1924.63C1701.26 1915.22 1691.02 1899.28 1677 1896M220 1914C226.127 1952.94 274.094 1980.4 291 2014C277.736 2011.65 240.393 2004.03 228.501 2010.58C221.633 2014.36 217.799 2043.29 215.661 2051C205.701 2086.94 181.265 2118.98 177 2157C170.706 2150.66 171.25 2128.37 169.433 2119C164.661 2094.39 155.811 2072.1 149.948 2048C148.019 2040.07 149.975 2030.79 147.499 2023.15C141.735 2005.36 104.547 2043.19 97.4926 2031.18C95.1811 2027.24 103.349 2007.83 104.848 2003C112.574 1978.1 131.49 1947.93 132 1922C123.059 1924.69 121.228 1943.22 117.928 1951C107.134 1976.46 103.108 2004.18 93.3339 2029.76C90.6329 2036.83 82.1347 2039.35 80 2047L91 2043C89.4525 2048.2 87.9927 2052.79 90 2058C94.2164 2052.92 92.6428 2045.21 96.803 2040.5C99.7481 2037.17 137.63 2022.83 141.256 2025.31C146.305 2028.76 144.759 2045.23 146.15 2051C151.979 2075.18 160.275 2098.46 165.446 2123C168.079 2135.5 169.875 2147.21 170.426 2160C170.509 2161.94 168.919 2172.33 173.445 2170.67C181.511 2167.72 188.363 2136.03 190.326 2128C197.063 2100.44 211.42 2076.32 221.241 2050C224.812 2040.43 224.441 2024.98 231.884 2017.5C236.291 2013.07 244.48 2015.93 250 2015.99C266.218 2016.18 282.76 2019.96 299 2018C286.011 1993.72 263.414 1975.87 248.261 1953C240.954 1941.97 231.431 1920.37 220 1914M913 1919.44C860.073 1925.37 815.268 1973.79 815.272 2028C815.277 2084.84 873.453 2130.97 928 2124.67C942.068 2123.05 953.617 2114.96 966 2108.67C987.343 2097.85 1015.93 2078.28 1023.1 2054C1032.64 2021.67 1001.47 1967.4 976.677 1948.6C970.3 1943.77 961.866 1945.38 955.04 1941.77C939.584 1933.59 933.422 1917.15 913 1919.44M947 1943C930.239 1941.27 903.543 1926.47 889 1942C911.751 1940.64 932.066 1942.43 954 1948.77C975.764 1955.06 986.254 1961.27 998.05 1982.98C1009.35 2003.78 1024.31 2029.03 1018.46 2054C1014.55 2070.72 997.747 2081.8 985.438 2091.96C933.676 2134.68 861.237 2127.89 830.182 2065C824.443 2053.38 819.691 2041.37 820.096 2028C821.374 1985.81 847.974 1943.44 889 1930.92C909.718 1924.6 934.244 1919.08 947 1943M572 1930C583.704 1951.03 603.197 1966.15 615.037 1987.04C627.045 2008.22 631.955 2033.63 645 2054C612.446 2041.96 587.39 2020.12 557 2004C554.493 2028.48 544.725 2052.96 539.819 2077.01C537.701 2087.39 538.235 2102.86 531 2111C530.585 2100.6 524.485 2091.93 522.122 2082C520.533 2075.32 518.821 2068.79 517.758 2062C517.324 2059.23 511.798 2030.64 507.477 2035.97C505.024 2039 510.722 2049.62 511.787 2053C516.669 2068.51 518.039 2084.59 524.081 2100C525.41 2103.39 527.829 2119.69 532.814 2118.92C541.748 2117.54 540.55 2098.89 541.361 2093C544.098 2073.11 549.449 2053.58 553.782 2034C554.782 2029.48 555.513 2016.6 559.968 2014.13C564.322 2011.71 579.032 2023.02 583 2025.18C605.76 2037.56 625.492 2055.09 651 2062C650.324 2047.08 639.259 2028.12 632.394 2015C621.156 1993.52 613.322 1972 595.96 1954C589.522 1947.33 581.624 1930.99 572 1930M610 1958C612.903 1965.33 622.983 1958.11 610 1958M467 1971L469 1975C469.558 1972.69 468.996 1972.24 467 1971z"/>
</svg>
