<?xml version="1.0" standalone="yes"?>
<svg xmlns="http://www.w3.org/2000/svg" width="2200" height="2200">
<path style="fill:#0e0e0e; stroke:none;" d="M125 282C103.51 259.942 98.1313 223.843 75 204C75.3893 213.719 81.4957 218.057 86.0207 226C94.3014 240.536 99.9849 258.177 111.136 270.864C113.675 273.752 124.938 293.649 127.52 290.351C136.861 278.419 137.052 245.137 140.419 230.019C147.555 197.981 158.076 166.746 166.214 135C170.891 116.754 172.164 96.5459 179 79C185.465 126.059 207.335 172.913 219.698 219.04C225.464 240.557 225.286 270.903 240 289C248.459 271.51 253.455 252.734 261.413 235C265.968 224.849 275.817 212.371 278 202C269.547 203.992 266.79 213.63 263.494 220.68C254.865 239.14 247.681 257.759 241 277C222.556 248.799 222.021 207.13 213.819 175C204.195 137.299 182.407 102.705 181 63C171.525 66.7517 169.338 105.078 166.705 115C152.421 168.828 130.752 226.668 125 282M533 85C554.78 106.235 592.461 133.74 621 144.156C625.468 145.786 651.224 156.519 649.241 162.665C646.289 171.816 626.708 174.439 619 175.443C597.618 178.23 575.684 194.071 558 205.659C554.794 207.76 532.658 216.435 534.106 220.259C535.812 224.764 557.505 211.917 560.431 209.872C574.784 199.839 593.001 187.651 610 182.874C624.218 178.878 644.667 179.01 655.108 166.057C661.422 158.226 635.892 147.01 630.997 144.453C612.108 134.585 591.433 123.669 574.446 110.675C561.825 101.02 549.541 86.3127 533 85M916 91C922.808 91.6328 925.736 90.8557 932 88C929.284 100.718 913.565 110.143 904 117.779C885.923 132.211 869.878 149.589 852 164.46C845.017 170.268 829.18 177.702 826.59 186.895C825.236 191.701 854.733 202.992 860 205.537C879.785 215.097 902.606 217.067 923 224.363C941.205 230.875 959.892 243.635 979 247C974.459 235.713 954.107 233.796 944 229.807C918.903 219.903 892.977 214.244 868 204.565C855.132 199.579 844.421 189.157 830 189C838.075 175.812 858.581 165.342 870.864 155.804C884.065 145.554 894.14 132.069 907 121.457C916.326 113.761 931.304 105.16 936.729 94.0083C942.463 82.2224 920.495 83.8994 916 91M1374 218C1366.39 184.908 1316 168.301 1287 164.419C1274.86 162.794 1244.16 158.492 1240.96 142.93C1239.54 136.015 1263.38 136.865 1268 135.992C1294.67 130.955 1312.16 125.921 1339 133.208C1345.39 134.943 1357.6 131.171 1359 140C1365.5 139.209 1372.62 142.293 1378 138C1340.87 125.525 1308.36 118.849 1270 131.335C1262.7 133.711 1225.32 131.1 1234.62 144.002C1258.14 176.65 1311.12 167.243 1342.99 189.66C1349.15 193.991 1361.92 201.751 1364.6 209.075C1366.52 214.325 1339.22 221.054 1335 223.306C1308.72 237.343 1288.03 263.991 1262.3 279.885C1260.27 281.139 1238.48 294.22 1245.81 297.241C1249.73 298.857 1274.97 276.618 1279 273.552C1306.83 252.375 1336.83 218.004 1374 218M1544 149C1557.02 148.519 1568.91 140.792 1582 138.64C1606.24 134.656 1632.55 135.042 1657 135.697C1663.94 135.883 1670.13 131.286 1677 133C1641.06 161.609 1603.98 189.812 1570 220.782C1564.86 225.463 1536.79 247.037 1540.68 255.139C1542.7 259.366 1564.01 257.517 1568.68 258.779C1598.2 266.763 1631.38 280 1662 280C1667.1 280 1693.4 288.06 1690.75 292.033C1697.1 282.479 1673.48 274.566 1668 274.14C1636.93 271.723 1604.44 266.674 1575 255.514C1571.06 254.021 1548.7 253.973 1548.95 249.576C1549.45 240.537 1567.85 229.403 1574 223.782C1599.21 200.741 1625.8 182.404 1653 162.141C1659.98 156.944 1684.89 139.957 1683.51 129.494C1682.94 125.125 1654.64 130.071 1650 130.009C1623.23 129.652 1597.55 131.995 1571 136.145C1562.71 137.44 1547.32 140.444 1544 149M817 132C818.277 133.897 818.823 134.259 821 135C819.723 133.103 819.177 132.741 817 132M1938 163L1932 162C1943.49 147.716 1967.64 147.977 1984 149.68C2016.71 153.085 2051.03 155.843 2084 154C2079.5 143.072 2050.69 148.032 2041 147.999C2012.15 147.901 1982.48 140.019 1954 146.007C1947.65 147.342 1928.8 153.118 1926.93 160.169C1925.37 166.08 1935.3 166.741 1938 163M974 185L977 190C974.48 189.593 972.37 188.953 970 188C972.298 194.755 983.054 188.313 974 185M2072 284C2088.57 273.191 2055.99 270.613 2049 270.454C2017.89 269.748 1986.96 278.339 1956 280.075C1951.91 280.305 1919.27 283.001 1923.03 287.241C1927.78 292.594 1948.62 285.987 1955 285.32C1983.79 282.313 2014.22 275.99 2043 276C2050.45 276.003 2068.91 276.422 2072 284M1304 449.464C1285.49 452.146 1248.44 453.044 1234 464.585C1220.82 475.12 1215.65 493.183 1208.74 508C1202.41 521.563 1192.89 534.022 1189.96 549C1182.72 585.996 1205.4 630.57 1239 647.669C1266.43 661.624 1309.15 653.796 1338.98 649.412C1362.73 645.923 1393.86 633.812 1409.62 615.038C1430.1 590.649 1435.39 521.006 1419.54 493.687C1413.03 482.48 1401.16 477.639 1390 472.502C1364.35 460.695 1332.77 445.296 1304 449.464M1347 479C1338.89 457.763 1301.91 459 1284 459C1315.58 445.764 1352.2 461.337 1381.08 473.882C1392.99 479.057 1407.6 484.212 1414.6 496.026C1427.6 517.976 1422.25 547.348 1418.11 571C1414.95 589.041 1414.84 607.839 1398.86 620.021C1372.16 640.384 1346.38 641.531 1315 644.221C1272.6 647.855 1241.84 655.229 1211.49 618.04C1180.77 580.41 1197.48 542.956 1214.67 505.001C1220.28 492.606 1226.2 471.054 1240 465.821C1260.86 457.916 1301.79 461.274 1323 467.61C1331.65 470.193 1338.29 477.248 1347 479M1624 467C1644.47 464.176 1669.93 455.092 1684 479C1654.8 476.164 1627.86 467.88 1599.08 479.041C1580.51 486.241 1559.93 498.71 1546.02 512.932C1497.17 562.86 1518.34 652.746 1579 686.581C1645.65 723.759 1757.24 693.04 1762.86 607C1766.45 552.114 1720.12 509.249 1686.46 472.116C1673.52 457.84 1636.3 446.303 1624 467M179 465C186.343 485.617 217.773 506.151 235 518.338C237.714 520.258 255.377 534.997 258.239 528.694C258.886 527.269 240.313 516.904 238 515.258C225.849 506.609 212.429 496.705 202.039 485.992C194.384 478.1 190.09 468.589 179 465M118 478C120.562 477.483 130.134 471.43 131.717 473.186C134.538 476.314 122.792 486.004 120.942 488.04C108.146 502.125 96.9113 518.616 87.3053 535C85.5258 538.035 74.1358 553.996 77.8719 556.456C81.9504 559.142 89.6954 541.663 90.9658 539C98.9935 522.172 111.654 505.894 124.185 492.177C128.482 487.473 139.092 479.357 138.013 472.188C136.494 462.095 118.953 471.044 118 478M1693 506C1699.71 503.438 1698.81 498.137 1698 492C1706.94 496.942 1710.49 507.56 1717.01 515C1740.83 542.193 1763.57 576.811 1757.07 615C1754.15 632.19 1745.54 650.511 1734.56 664C1730.59 668.875 1724.74 678.359 1718 673C1699.54 699.139 1646.04 701.169 1619 692C1623.86 679.493 1620.08 667.696 1620 654C1619.8 616.968 1612.23 579.548 1607.14 543C1605.11 528.468 1605.2 514.575 1605.92 500C1606.01 498.141 1605.3 485.398 1601.23 491.432C1595.57 499.811 1600.73 525.393 1602.24 535C1607.71 569.831 1611.48 604.959 1615.32 640C1616.25 648.53 1621.86 683.788 1614.74 689.619C1611.74 692.075 1604.08 686.611 1601 685.752C1585.84 681.525 1574.54 682.47 1563.25 669.416C1535.59 637.432 1510.42 591.71 1526.3 549C1541.64 507.711 1592.77 479.251 1635 477.078C1654.98 476.051 1699.02 479.333 1693 506M1984 681C1974.69 682.245 1972.6 647.933 1970.54 640C1961.16 603.936 1957.03 562.148 1957 525C1956.99 514.77 1955.38 504.142 1957.06 494.04C1957.5 491.401 1961.57 485.556 1959.14 483.322C1955.2 479.701 1953.05 492.107 1952.68 494C1950.59 504.601 1951.39 519.566 1952.42 530.32C1956.43 571.799 1959.09 613.04 1967.99 654C1969.46 660.721 1971.74 689.261 1977.45 692.456C1981.76 694.866 1983.85 683.317 1984 681M570 484L569 485L572 487L570 484M593 484C593.004 515.516 612.049 537.225 628.967 561.783C635.514 571.285 644.589 585.627 657 587C653.824 579.247 642.841 573.325 637.162 567C626.222 554.814 614.132 537.89 607.18 523C602.61 513.21 601.453 490.096 593 484M158.5 485.5C157.872 486.127 158.873 487.127 159.5 486.5C160.127 485.873 159.127 484.873 158.5 485.5M176 492C178.921 492.978 181.327 494.487 184 496C182.935 490.991 179.495 484.485 176 492M462 592C470.34 588.931 471.722 576.634 474.741 569.04C482.779 548.823 491.694 529.249 503.678 511C508.265 504.014 517.755 495.875 517 487C493.986 502.932 478.201 544.268 470.052 570C467.67 577.523 462.591 584.031 462 592M1668.72 498.728C1665.72 500.552 1668.99 528.345 1669 533C1669.09 569.751 1675.48 609.426 1679.32 646C1679.77 650.323 1681.39 687.419 1688.23 684.031C1689.47 683.419 1684.2 650.742 1684.04 646C1682.75 607.84 1674 570.138 1674 532C1674 528.885 1674.25 495.372 1668.72 498.728M2047.67 502.408C2040.5 506.944 2043.96 529.754 2044 537C2044.2 573.826 2052.84 611.22 2060.78 647C2061.77 651.451 2068.82 689.35 2071.33 688.239C2076.68 685.863 2065.96 650.538 2064.78 645C2056.98 608.414 2049.32 571.64 2049.96 534C2050.04 529.639 2051.77 499.818 2047.67 502.408M211 521C211.936 522.948 212.393 523.55 214 525C214.083 522.23 213.648 521.866 211 521M100 546C106.732 553.615 119.991 545.711 128 544.35C155.794 539.624 182.099 539.677 210 537.929C216.417 537.528 235.568 536.788 237.391 528.843C239.567 519.357 211.068 532.674 205 533.319C169.26 537.122 135.344 537.039 100 546M953.989 525.725C942.235 527.751 931.055 533.089 919 533.854C891.887 535.573 865.734 531.105 839 536.401C834.391 537.314 804.215 543.044 803.963 547.1C803.684 551.569 812.176 551.325 814.681 550.552C821.569 548.427 844.997 534.609 851.997 540.292C854.761 542.536 835.641 553.818 842.524 556.136C844.666 556.857 864.324 541.484 870 540.026C888.559 535.259 908.409 540.616 927 537.481C935.625 536.027 946.601 535.095 954.771 532.298C960.547 530.32 961.104 524.499 953.989 525.725M1345 535.438C1325.5 537.65 1306.11 540.952 1287 545.496C1274.5 548.469 1262.38 552.342 1250 555.696C1241.77 557.925 1229.4 562.327 1221.04 559.377C1217.16 558.008 1207.47 547.53 1203.09 551.241C1200.5 553.436 1207.42 558.144 1208.72 559.207C1215.46 564.711 1224.63 565.432 1233 564.078C1272.13 557.748 1310.77 546.071 1350.14 539.354C1361.68 537.384 1373.88 540.522 1385.22 541.596C1387.9 541.85 1395.86 545.655 1397.24 541.57C1398.78 537 1390.8 535.506 1388 535.629C1373.68 536.258 1359.33 533.812 1345 535.438M483 579C498.433 582.74 521.129 574.23 536 570.039C561.843 562.755 604.306 558.09 629 571C627.466 560.238 604.612 560.471 596 559.948C568.054 558.252 543.941 566.751 517 570.724C506.545 572.265 490.532 569.954 483 579M1362.46 582.249C1339.26 593.49 1316.33 587.578 1291 588.361C1280.16 588.696 1269.62 593.152 1259 594.702C1252.99 595.581 1225.22 595.52 1222.54 600.398C1220.28 604.524 1252.99 602.132 1257 601.194C1286.4 594.323 1312.57 597.987 1342 594.302C1349.01 593.424 1365.23 593.956 1370.29 588.543C1374.34 584.195 1366.04 580.515 1362.46 582.249M943 610C933.131 624.957 920.759 638.509 911.957 654.136C910.723 656.328 902.891 668.356 906.672 670.239C909.172 671.484 916.314 656.08 917.666 654C927.258 639.235 937.772 624.558 949.026 610.999C951.393 608.148 960.854 600.161 957.671 595.851C956.106 593.731 953.162 595.07 951.689 596.511C942.724 605.284 938.243 604.214 926 606.999C900.885 612.712 874.144 607.002 849 613.439C842.441 615.118 827.357 619.232 824.753 626.558C823.658 629.639 832.248 637.669 834.076 640C843.157 651.583 850.949 664.813 859.266 677C860.873 679.356 864.924 692.19 868.712 690.776C873.406 689.025 864.789 677.31 863.388 675.019C856.133 663.154 847.305 651.787 839.759 640C838.005 637.26 831.289 629.982 833.274 626.501C837.012 619.948 854.163 617.28 861.001 616.283C888.047 612.34 915.774 613.623 943 610M232.997 625.678C200.5 631.75 165.134 627.829 132 627.997C126.668 628.025 102.748 622.057 99.9695 627.752C97.5195 632.772 128.94 633.064 133 632.981C159.02 632.453 184.94 633.511 211 632.981C217.285 632.854 233.489 635.72 238.488 632.459C243.998 628.865 236.839 624.961 232.997 625.678M628 631L629 632L628 631M625 639.574C579.157 641.542 534.791 640.079 489 640.982C481.09 641.137 447.916 637.84 443.106 643.776C440.905 646.492 451.279 656.512 453.253 658.698C464.576 671.232 474.754 683.367 487.562 694.498C489.922 696.549 497.534 705.791 501.097 703.678C503.721 702.122 501.419 697.9 499.586 696.83C485.746 688.754 472.62 676.18 462.996 663C461.165 660.493 454.042 651.347 457.02 648.26C462.612 642.462 490.985 645 499 645C536.918 645 572.182 649.852 610 645.562C614.933 645.002 641.336 647.722 642.817 642.625C644.201 637.857 627.775 639.455 625 639.574M647 648C650.339 668.123 624.834 686.5 624 709C633.008 704.792 637.773 679.753 644.087 671C646.99 666.976 652.091 663.019 653.188 658C654.211 653.322 650.974 649.632 647 648M622.667 674.333C622.222 674.778 623.278 674.722 623.333 674.667C623.778 674.223 622.722 674.278 622.667 674.333M1595 689L1591 688C1593.05 687.249 1593.6 687.344 1595 689M1985.33 766.209C1984.7 766.872 1997.71 779.02 1996.09 785.999C1991.92 803.896 1968.59 809.304 1967.33 828.997C1965.43 858.532 2018.64 859.551 2033.61 843.739C2053.2 823.048 2030.43 787.06 2011.99 776.161C2006.95 773.18 1991.93 759.295 1985.33 766.209M2031 810L2027 808C2027.41 817.201 2035.76 830.165 2029.94 838.671C2018.85 854.864 1979.39 852.74 1973.76 832C1967.89 810.335 2006.22 799.879 2000 776C2016.74 778.768 2030.68 793.238 2031 810M251 809L244 811C244.974 806.251 241.865 788.003 235.027 788.003C231.504 788.003 232.491 796.736 231.92 798.981C229.442 808.715 220.736 815.204 213.139 820.992C186.023 841.654 153.963 852.288 125.001 869.555C116.704 874.501 99.5839 882.124 97.9469 893.007C96.3885 903.368 118.218 919.127 125.861 924.008C157.13 943.978 182.537 973.851 210.562 998.022C215.634 1002.4 240.685 1027.45 246.196 1023.65C253.231 1018.8 248.003 979.682 248 971C247.984 915.771 244.52 863.446 251 809M238 799C243.515 824.525 238.165 852.931 239.04 879C240.716 928.923 244 970.96 244 1019C232.686 1014.94 222.918 1000.44 213.779 992.667C187.271 970.126 161.003 945.214 133 924.299C126.31 919.302 97.7028 900.664 103.435 891.043C108.851 881.953 121.313 876.713 130 871.432C161.86 852.063 225.023 838.911 236 799L238 799M1279.09 801.297C1242.24 808.77 1213.32 828.77 1197.52 864C1195.04 869.536 1184.64 898.254 1190.82 902.178C1198.97 907.35 1219.48 900.006 1229 900C1267.19 899.976 1315.71 899.881 1353 891.233C1369.59 887.386 1373.35 873.038 1363.19 859C1348.66 838.928 1325.93 832.117 1307 817.968C1301.85 814.12 1285.68 799.96 1279.09 801.297M1193 898C1203.8 862.666 1226.53 801.828 1276 808.222C1300.41 811.377 1335.71 836.334 1352.98 853.079C1359.41 859.307 1368.92 873.528 1363.12 883.178C1359.62 888.995 1325.98 887.889 1319 888.005C1278.14 888.682 1233.34 891.769 1193 898M480 815C486.112 827.934 498.923 832.949 510.431 839.798C532.181 852.743 552.636 864.708 576 874.853C587.609 879.894 608.986 887.101 614.894 899.28C618.483 906.678 592.35 919.713 586.997 922.899C565.964 935.422 543.229 947.72 524 962.902C511.492 972.779 499.617 988.579 485 995C485 972.477 482.198 952.151 479.446 930C477.572 914.919 476.469 900.16 475.96 885C475.449 869.784 473.346 853.294 476.538 838.217C477.016 835.957 480.417 825.159 476.583 824.323C471.276 823.167 470.71 853.254 470.32 857C466.561 893.14 476.336 929.317 479.062 965C479.96 976.754 480.525 988.315 482.234 1000C482.48 1001.68 481.811 1010.36 484.258 1010.36C486.984 1010.36 488.252 1001.92 489.604 1000C495.514 991.613 506.165 984.021 514 977.398C538.688 956.528 567.142 940.23 595.019 924.04C604.438 918.569 613.98 907.327 625 906C613.057 872.394 551.44 863.397 525 844.55C513.277 836.194 493.239 818.477 480 815M1636 837C1640.52 850.246 1660.28 851.37 1671 857.106C1690.74 867.665 1722.44 892.524 1727.51 916.007C1734.34 947.641 1702.49 970.662 1678 982.373C1675.59 983.528 1653.78 993.404 1658.03 996.667C1662 999.714 1676.23 989.296 1680 987.313C1700.66 976.436 1725.84 963.154 1731.17 938C1741.69 888.292 1676.75 848.598 1636 837M1595 990C1590.01 978.689 1564.07 975.677 1555.79 964.209C1517.42 911.106 1567.99 871.238 1612 849C1603.85 883.889 1611.7 916.938 1612.96 952C1613.13 956.823 1614.08 989.279 1616.89 986.108C1622.56 979.701 1618.19 963.669 1618.02 956C1617.37 927.434 1610.65 899.726 1613.99 870.915C1614.81 863.841 1621.53 842.586 1607.14 844.231C1599.15 845.145 1586.79 854.229 1580 858.54C1535.72 886.661 1519.11 946.243 1567 979.286C1577.36 986.432 1582.17 990 1595 990M1640 849C1641.26 884.637 1650 919.016 1650 955C1650 959.058 1652.99 985.89 1656.25 983.593C1662.6 979.109 1654.01 960.266 1654 954C1653.94 927.151 1650.44 902.71 1647.96 876.003C1647.21 867.948 1648.23 851.562 1640 849M2007 856.583C1984.15 860.937 1946.26 866.411 1930.88 885.276C1891.69 933.317 1899.69 1014.02 1966 1032.9C1978.18 1036.37 1995.66 1033.59 2008 1031.5C2052.11 1024.04 2098.29 1010.39 2110.37 960C2121.44 913.812 2071.62 876.127 2035 865.898C2025.76 863.318 2016.72 854.729 2007 856.583M2010.27 860.829C2016.18 860.729 2031.47 869.549 2038 872.022C2083.52 889.272 2127.27 932.134 2094.06 982C2087.86 991.315 2078.61 1005.85 2068.82 1011.52C2057.54 1018.06 2042.54 1017.89 2030 1019.92C2011.69 1022.88 1994.92 1029.04 1976 1029.2C1932.88 1029.57 1903.04 973.865 1912.67 936C1924.39 889.908 1961.72 861.655 2010.27 860.829M909 864C910.558 873.649 920.751 884.312 926.699 892C943.856 914.176 969.867 954.915 1000 958L1000 961C981.815 963.721 959.075 986.252 945 997.643C943.49 998.865 925.596 1012.77 931.594 1013.69C936.007 1014.37 944.852 1004 948 1001.32C961.608 989.724 977.376 980.203 992 969.923C995.237 967.648 1011.61 963.934 1010.99 960.074C1010.15 954.84 986.858 950.56 982 945.964C964.394 929.304 948.592 913.263 933.798 894C926.442 884.423 920.008 869.63 909 864M867 1027C875.056 989.456 859.13 946.479 861.078 908C861.369 902.245 866.394 868.045 873.913 873.41C868.64 869.648 853.271 876.028 848 878.032C828.42 885.474 783.951 903.229 779.644 927.177C778.262 934.859 792.135 945.775 795.723 952.007C811.289 979.045 836.251 1017.43 867 1027M904 877C906.668 888.952 916.935 912.266 912 924C919.125 938.274 918.297 963.068 919.997 979C920.465 983.378 920.052 996.28 925.169 998.239C929.218 999.789 923.17 972.229 922.64 969C918.786 945.551 924.941 892.506 904 877M855 987C866.395 986.259 865.495 1018.05 860.716 1018.68C855.198 1019.4 846.174 1006.09 841.864 1002.67C822.497 987.288 810.579 967.484 797.326 947C792.75 939.927 781.392 931.643 787.34 922.999C799.712 905.021 820.696 895.289 840 886.781C842.931 885.49 858.101 877.104 860.084 880.844C862.123 884.689 857.198 893.784 856.588 898C854.642 911.46 855.224 924.536 856.923 937.981C859.018 954.567 862.207 971.289 855 987M131 884C131 885.797 131.014 885.521 132 887L134 884L131 884M1204 946C1210.12 955.904 1236.46 945.198 1246 943.019C1257.23 940.454 1269.6 943.566 1281 943.786C1298.97 944.133 1316.99 941 1335 941C1340.78 941 1359.05 936.127 1362.76 939.726C1373.62 950.259 1352.28 972 1345.9 980C1323.3 1008.29 1287.35 1044.01 1247 1037.72C1224.67 1034.23 1179.89 992.497 1190.94 967.107C1193.37 961.518 1226.14 953.443 1226.24 953.653C1223.18 946.962 1196.2 956.518 1189 953C1179.13 1002.82 1224.11 1055.93 1278 1040.48C1307.44 1032.05 1331.08 1005.42 1349.4 983C1357.22 973.437 1368.73 961.432 1371.71 949.019C1373.29 942.428 1365.55 938.153 1366 931C1328.12 938.64 1290.65 933.306 1253 935.527C1237.07 936.467 1219.89 943.163 1204 946M235 992L236 993L238 990L235 992M1254 1145.44C1252 1145.66 1244.24 1145.66 1246.41 1149.48C1251.21 1157.97 1262.99 1160.99 1264.76 1172C1267.85 1191.29 1250.57 1201.37 1251.06 1218C1251.3 1226.31 1257.33 1239.75 1267 1239.74C1290.78 1239.69 1322.01 1204.93 1316.57 1181C1312.33 1162.32 1271.43 1143.5 1254 1145.44M1303 1194C1302.93 1212.13 1270.81 1253.76 1257.87 1225C1251.92 1211.78 1266.42 1200.95 1269.14 1188C1272.6 1171.57 1265.11 1164.71 1259 1151C1274.31 1153.03 1304.78 1164.61 1311.77 1180C1315.34 1187.85 1312.2 1203.65 1303 1194M213 1177C223.434 1198.22 232.986 1223.96 238.433 1247C242.428 1263.9 244.838 1279.7 246.681 1297C248.56 1314.65 251.665 1332.37 258.062 1349C258.893 1351.16 264.611 1366.58 268.631 1362.03C271.509 1358.78 258.261 1332.22 257.019 1326C249.014 1285.92 245.396 1248.87 230.661 1210C226.092 1197.95 220.027 1185.52 217.025 1173C216.571 1171.11 215.59 1161.66 212.408 1162.32C209.592 1162.91 209.03 1170.78 208.549 1173C206 1184.76 203.718 1196.64 199.647 1208C186.13 1245.72 172.594 1280.28 164.999 1320C164.072 1324.85 152.318 1350.99 155.648 1353.46C158.903 1355.87 163.315 1341.84 164.094 1340C170.619 1324.61 172.36 1306.18 176.361 1289.92C180.303 1273.9 184.235 1258.54 189.842 1243C197.966 1220.48 207.502 1200.54 213 1177M895 1179C879.861 1219.82 866.636 1261.09 854.476 1303C851.63 1312.81 837.424 1340.28 853 1344C848.635 1327.62 857.467 1311.76 861.94 1296C871.806 1261.24 878.711 1220.93 896 1189C904.192 1227.88 919.879 1263.25 930.336 1302C932.095 1308.52 938.527 1336.37 946.145 1336.94C963.913 1338.29 980.38 1302.55 996 1296C988.269 1324.39 989 1353.67 989 1383C989 1393.31 984.552 1404.55 988 1414C996.03 1409.43 994.952 1397.3 994.997 1389C995.123 1366.07 994.749 1343.82 996.783 1321C997.237 1315.9 1002.23 1297.35 999.66 1293.82C997.049 1290.25 991.257 1293.21 988.897 1295.42C979.166 1304.52 966.328 1311.58 958.18 1321.38C956.163 1323.81 948.813 1332.25 945.465 1328.36C934.998 1316.2 933.831 1293.83 929.461 1279C923.044 1257.22 910.342 1237.37 904.019 1215.56C900.532 1203.54 904.113 1188.7 895 1179M540 1358C529.683 1345.19 522.775 1325.37 517.349 1310C516.423 1307.38 512.935 1294 509.783 1294C505.751 1294 503.384 1308.9 502.665 1312C498.141 1331.51 493.963 1352 487.232 1370.86C486.144 1373.92 477.793 1389.96 482.689 1391.89C486.325 1393.33 490.217 1377.53 490.926 1375C495.67 1358.06 499.958 1341.01 504.438 1324C505.131 1321.37 506.325 1308.52 509.823 1308.52C513.31 1308.52 515.762 1322.28 516.936 1325C521.32 1335.16 531.691 1366.08 543 1369C541.932 1326.38 573.335 1284.48 584.506 1245C585.771 1240.53 599.317 1207.02 603.455 1208.64C608.182 1210.5 609.903 1234.12 610.018 1239C610.701 1267.94 612.79 1301.89 619.769 1330C620.662 1333.59 628.826 1366.66 632.092 1363.59C636.161 1359.77 625.61 1333.46 624.283 1327.86C616.83 1296.42 616.913 1262.11 613.981 1230.04C613.546 1225.28 609.744 1201.06 604.561 1200.32C596.643 1199.2 586.236 1229 583.317 1235C564.151 1274.38 552.133 1316.13 540 1358M2056 1202C2062.14 1211.51 2074.93 1218.69 2082.38 1228.08C2106.34 1258.29 2117.42 1295.88 2105.07 1334C2095.06 1364.92 2026.86 1362.72 2002 1362.39C1996.26 1362.31 1989.26 1355.4 1986.36 1350.86C1968.2 1322.41 1952.72 1280.5 1976.8 1252.22C1997.06 1228.42 2037.39 1216.49 2066.99 1227.13C2073.75 1229.56 2073.34 1238.66 2078.46 1240.47C2083.18 1242.13 2083.93 1237.53 2082.27 1234.31C2063.26 1197.51 1997.38 1225.75 1976.15 1245.34C1947.45 1271.81 1959.96 1299.19 1971.91 1329C1978.35 1345.08 1980.74 1358.76 1997.32 1367.97C2004.76 1372.1 2018.88 1367.31 2026.99 1366.31C2051.58 1363.3 2077.68 1365.73 2099 1350.18C2112.05 1340.66 2110.8 1324.56 2112.32 1310C2116 1274.78 2108.83 1249.77 2084.13 1223C2075.85 1214.02 2068.75 1203.99 2056 1202M1605 1316C1601.23 1305.28 1614.66 1306.71 1622 1307.08C1632.4 1307.6 1641.89 1312.28 1652 1312.91C1668.01 1313.92 1681.54 1309.66 1697 1308.14C1702.18 1307.63 1722.14 1309.38 1722.33 1308.72C1726.03 1295.55 1699.13 1303.56 1694 1304.1C1667.44 1306.89 1649.42 1305.09 1623 1302.32C1609.74 1300.93 1602.72 1304.3 1591 1299C1589.59 1309.12 1579.33 1301.94 1573 1301C1576.87 1291.56 1585.73 1285.21 1589 1276C1583.28 1276.99 1580.43 1281.61 1576 1285C1596.82 1230.23 1656.97 1221.8 1700.49 1256.86C1711.29 1265.56 1718.51 1280.6 1724.21 1293.01C1725.21 1295.17 1728.24 1304.87 1732.19 1301.89C1737.84 1297.63 1722.1 1277.58 1719.77 1273C1705.48 1244.87 1670.06 1228.28 1639 1228.28C1598.72 1228.28 1582.47 1260.89 1569.72 1292C1567.89 1296.46 1555.38 1301.65 1556.19 1304.81C1557.23 1308.92 1565.05 1307.03 1568 1307.01C1580.9 1306.9 1592.28 1317.4 1605 1316M1204 1316L1205 1310C1185.91 1314.9 1183.96 1354.8 1184 1370C1184.01 1375.48 1182.91 1388.52 1189.15 1390.98C1209.93 1399.18 1243.36 1385.61 1264 1383.24C1302.69 1378.79 1344.87 1386 1384 1386L1383 1391C1387.15 1390.4 1393.81 1382.88 1388.06 1379.5C1384.15 1377.19 1363.44 1382.35 1357 1381.68C1316.94 1377.51 1278.5 1380.7 1239 1382.92C1228.52 1383.51 1200.38 1389.14 1191.57 1384.18C1180.69 1378.04 1201.2 1358.03 1203.91 1352C1207.86 1343.25 1199.73 1341.52 1200.26 1334.99C1201.43 1320.26 1227.42 1286.79 1241 1282.55C1257.81 1277.3 1292.57 1267.48 1309.79 1270.75C1325.43 1273.73 1353.55 1297.23 1365.86 1307.81C1380.46 1320.38 1388.63 1344.21 1386.68 1363C1386.56 1364.17 1385.29 1376.11 1389.33 1372.81C1396.42 1367.02 1391.03 1344.2 1389.01 1337.02C1381.13 1308.85 1360.72 1299.42 1338.98 1283.88C1330.63 1277.91 1322.89 1268.78 1313 1265.2C1305.73 1262.57 1294.1 1266.87 1286.78 1268.46C1268.44 1272.44 1242.39 1269.86 1227.56 1283.27C1217.51 1292.35 1213.89 1307.39 1204 1316M1884 1343C1884.02 1332.64 1892.17 1323.7 1903.88 1327.08C1918.63 1331.33 1929.09 1353.3 1947.84 1339.08C1968.77 1323.21 1946.24 1275.65 1922 1277.48C1910.23 1278.37 1912.11 1287.5 1906.47 1294.46C1900.67 1301.63 1854.01 1331.65 1884 1343M1882 1327C1886.02 1311.72 1899.3 1310.32 1909.39 1300.32C1913.6 1296.15 1912.27 1289.18 1916.7 1285.28C1920.02 1282.36 1925.28 1282.62 1928.96 1284.69C1944.1 1293.18 1965.53 1333.35 1936.86 1338.96C1921.42 1341.98 1917.8 1326.1 1906.82 1321.52C1900.01 1318.68 1888.6 1325.43 1882 1327M1205 1317C1202.51 1322.26 1199.49 1329.47 1194 1332C1195.35 1325.54 1198.79 1319.69 1205 1317M1560 1335C1562.41 1341.91 1563.17 1361.39 1569.08 1365.6C1575.01 1369.83 1593.13 1363.4 1601 1364.78C1613.82 1367.02 1626.9 1372.69 1640 1372.84C1655.79 1373.01 1670.64 1366.07 1686 1365.9C1698.86 1365.76 1715.26 1373.63 1726 1361.8C1728.96 1358.54 1724.96 1348.83 1724.35 1345C1723.78 1341.41 1725.44 1333.76 1722.06 1331.33C1719.2 1329.27 1712.33 1332.76 1709 1333.05C1695.87 1334.21 1683.24 1335.14 1670 1334.99C1655.22 1334.83 1640.81 1331.01 1626 1330.54C1604.79 1329.86 1580.6 1329.06 1560 1335M1571 1361C1570.2 1356.47 1566.77 1343.64 1569.4 1339.82C1572.63 1335.12 1588.76 1336.64 1594 1336.07C1621.77 1333.03 1648.59 1339.55 1676 1340.94C1686.96 1341.49 1705.75 1333.06 1715.72 1337.82C1722.64 1341.13 1721.85 1359.77 1714.97 1362.68C1703.59 1367.48 1687.67 1360.48 1675 1362.93C1662.34 1365.38 1651.22 1368.79 1638 1367.86C1615.56 1366.29 1593.63 1354.49 1571 1361M1187 1364C1187.46 1356.26 1189.53 1348.73 1190 1341C1206.37 1341.9 1197.06 1359.69 1187 1364M1580 1448C1573.75 1440.19 1549.07 1416.19 1558.4 1402.82C1561.77 1397.99 1581.51 1401.03 1587 1401C1600.33 1400.92 1612.73 1395.08 1626 1395.24C1638.37 1395.39 1651.06 1400.08 1664 1399.78C1680.12 1399.42 1695.86 1393.35 1712 1394.08C1715.12 1394.22 1724.63 1393.52 1726.7 1395.96C1729.22 1398.93 1725.9 1407.65 1725.03 1411C1720.38 1429.03 1709.32 1438.97 1693 1447C1713.65 1453.94 1725.98 1427.24 1729.82 1412C1731.08 1406.98 1736.21 1394.1 1729.84 1391.53C1711.36 1384.05 1687.83 1392.27 1669 1393.77C1644.22 1395.76 1620.03 1392.3 1595 1394C1585.12 1394.67 1560.89 1390.43 1552.82 1394.9C1548.36 1397.37 1551.99 1409.76 1553.21 1413.32C1557.97 1427.24 1562.67 1447.92 1580 1448M849 1528C832.341 1542.39 808.088 1545.63 791 1559.54C787.9 1562.06 775.86 1570.36 776.426 1574.79C777.274 1581.44 794.142 1576.22 798 1576.6C815.862 1578.37 835.347 1573.32 853 1570.07C857.91 1569.16 869.093 1566.01 872.935 1571.04C875.705 1574.67 867.385 1582.33 865.403 1585C856.24 1597.33 841.053 1606.82 835.156 1621C831.257 1630.38 842.722 1639.72 845.863 1648.44C854.398 1672.13 857.74 1697.54 869.141 1720.44C872.206 1726.59 875.026 1739.3 883.001 1740.9C889.667 1742.23 894.624 1731.71 896.771 1727C904.604 1709.81 915.06 1687.83 917 1669C923.614 1687.89 930.528 1707.55 940.541 1725C943.108 1729.47 947.52 1739.96 953.726 1740C961.951 1740.05 966.795 1716.7 969.824 1711C984.821 1682.77 1006.38 1638.37 1007 1606C999.606 1608.23 998.391 1625.1 996.258 1632C988.627 1656.69 978.372 1681.69 967.32 1705C965.535 1708.77 957.212 1735.03 952.358 1732.68C945.566 1729.39 943.377 1717.25 940.9 1711C935.557 1697.52 925.62 1665.73 916 1656C910.761 1676.58 903.741 1696.12 895.94 1716C894.207 1720.42 889.102 1733.04 883.668 1733.8C877.398 1734.68 872.783 1714.32 870.63 1710C860.275 1689.21 856.488 1665.21 850.082 1643C848.514 1637.56 841.161 1625.87 841.83 1620.88C843.174 1610.83 867.202 1591.43 874.106 1581.96C876.011 1579.35 884.667 1571.42 881.812 1568.01C878.137 1563.61 861.188 1562.94 856 1563.76C832.062 1567.53 808.793 1569.84 785 1573C793.741 1559.08 818.513 1548.58 833.236 1542.26C838.905 1539.82 852.122 1536.81 854.071 1529.94C855.743 1524.05 841.071 1520.17 836.96 1518.88C821.562 1514.04 804.769 1511.76 789 1508.12C787.228 1507.72 774.643 1504.23 774.643 1507.27C774.643 1511.51 797.323 1515.04 801 1516.44C807.488 1518.92 814.232 1518.94 821 1520.09C830.731 1521.74 839.395 1526.1 849 1528M1654 1604C1637.17 1617.74 1614.36 1633.3 1594 1641L1594 1633C1578.1 1647.5 1591.91 1651.22 1594.85 1666C1600.52 1694.47 1613.94 1715.52 1625.82 1742C1629.15 1749.4 1640.16 1772.56 1648.14 1774.78C1654.03 1776.41 1660.76 1755.22 1662.42 1751C1673.42 1723.05 1692.26 1698.77 1707.39 1673C1709.48 1669.43 1725.16 1646.7 1720.59 1644.5C1716.68 1642.62 1698.96 1678.21 1696.38 1683C1684.86 1704.37 1667.93 1722.95 1659.2 1746C1657.81 1749.68 1652.58 1766.85 1647.15 1765.92C1643.18 1765.24 1639.21 1756.12 1637.32 1753C1629.45 1740.04 1622.44 1726.4 1615.34 1713C1608.64 1700.36 1603.19 1688.03 1600 1674C1607.28 1679.98 1607.17 1690.96 1615 1696C1612.58 1683.09 1605.41 1672.32 1599.27 1661C1597.51 1657.77 1590.74 1652.2 1591.32 1648.42C1591.86 1644.91 1608.52 1639.85 1612.02 1637.74C1631.45 1625.99 1651.77 1602.69 1676 1602C1672.19 1593.03 1653.23 1598.76 1645 1597.74C1612.43 1593.73 1583.51 1594.98 1551 1595C1560.85 1585.5 1571.8 1576.53 1583 1568.66C1590.39 1563.47 1597.02 1557.53 1604 1551.82C1609.63 1547.22 1615.57 1540.3 1621.96 1536.96C1624.69 1535.53 1630.77 1538.82 1632.04 1535.48C1636.13 1524.76 1618.32 1533.62 1616 1535.52C1598.41 1549.89 1581.02 1564.27 1563.02 1578.12C1559.6 1580.76 1540.53 1591.92 1542.54 1596.5C1545.56 1603.37 1563.4 1599.62 1569 1598.94C1598.62 1595.37 1625.11 1604 1654 1604M2000 1704C2024.15 1710.46 2055.86 1702.53 2083 1700C2067.79 1718.3 2043.5 1733.3 2024 1746.82C2021.32 1748.68 2003.11 1755.8 2005.62 1760.13C2007.01 1762.53 2026.67 1763.01 2030 1762.52C2052.55 1759.19 2066.91 1752.26 2086.82 1767.18C2087.82 1767.93 2096.73 1773.71 2095.92 1768.91C2095.24 1764.9 2088.02 1761.14 2085 1759.01C2072.87 1750.47 2056.08 1751.72 2042 1754.24C2033.71 1755.72 2024.32 1762.04 2017 1755C2037.27 1749.92 2057.93 1727.65 2074 1714.84C2078.62 1711.15 2098.26 1701.5 2084.77 1696.14C2073.36 1691.61 2042.77 1698.14 2030 1700C2025.81 1700.61 2013.38 1705.6 2010.25 1701.33C2008.18 1698.52 2028.39 1677.42 2030.85 1674C2045.43 1653.72 2060.37 1632.6 2071.24 1610C2076.08 1599.94 2079.99 1583.25 2090.9 1577.81C2098.27 1574.13 2101.63 1595.37 2102.92 1600C2109.8 1624.67 2106.49 1652.02 2112.66 1677C2113.73 1681.33 2119.08 1707.79 2126.16 1702.67C2130.32 1699.67 2119.05 1678.15 2118.22 1673C2113.93 1646.43 2113.57 1616.83 2106.55 1591C2105.21 1586.05 2101.04 1568.76 2095.8 1567.07C2086.99 1564.2 2075.35 1592.14 2072.33 1598C2058.99 1623.91 2043.27 1649.17 2025.98 1672.68C2018.13 1683.35 2006.18 1692.39 2000 1704M148.509 1581.76C144.518 1583.08 146.91 1608.67 147.446 1613C151.136 1642.83 155.358 1672.84 152.32 1703C151.773 1708.43 152.935 1726.66 162.119 1724.94C169.412 1723.58 177.358 1712.32 183.562 1708C200.642 1696.08 218.798 1685.78 235.783 1673.34C239.814 1670.39 258.236 1662.96 256.239 1656.47C252.119 1643.09 214.809 1634.82 204 1626.94C188.025 1615.29 178.572 1596.84 161.008 1589.17C157.794 1587.77 152.029 1580.6 148.509 1581.76M117.834 1583.98C106.259 1582.12 92.9665 1586.89 81 1585.88C77.8896 1585.62 71.6509 1582.68 69.0083 1585.27C66.7531 1587.48 71.023 1597.24 70.2384 1601C65.8464 1622.07 69 1646.48 69 1668C69 1682.94 67.0949 1698.1 68.1362 1713C68.384 1716.54 67.752 1726.51 72.2841 1727.41C83.6791 1729.67 95.5574 1721.87 108 1724.48C110.49 1725.01 117.556 1728.47 119.578 1726.02C121.285 1723.95 118 1708.6 118 1705C118 1682.98 117 1661.05 117 1639C117 1624.6 119.836 1611.23 120.865 1597C121.128 1593.36 122.975 1584.81 117.834 1583.98M1199 1735C1202.85 1742.87 1213.56 1741.92 1221 1743.68C1247.05 1749.83 1271.95 1741.01 1298 1741C1279.27 1754.27 1256.33 1768.78 1235 1778.31C1231.27 1779.98 1214.21 1784.7 1215.32 1790.64C1215.87 1793.57 1233.94 1791 1237 1791C1254.15 1791 1270.42 1794.36 1286 1801.87C1292.94 1805.21 1298.53 1812.24 1306 1814C1300.14 1787.98 1251.17 1788.97 1232 1786C1240.7 1778.46 1252.58 1775.9 1262 1769.54C1268.56 1765.11 1274.81 1760.35 1281.08 1755.54C1287.6 1750.54 1300.31 1749 1305.07 1742.33C1311.37 1733.5 1290.33 1735.81 1287 1736.36C1269.33 1739.27 1248.92 1744.04 1231 1741.08C1225.82 1740.22 1215.59 1738.93 1213.8 1732.84C1211.65 1725.52 1222.58 1707.38 1225.13 1700C1237.5 1664.32 1264.63 1632 1274 1596C1290.71 1612.67 1284.69 1657.96 1287.72 1680C1288.39 1684.86 1289.3 1706.56 1294.46 1708.24C1300.33 1710.15 1309.6 1694.92 1312.2 1690.92C1327.1 1668.07 1345.84 1648.84 1362.36 1627.44C1364.96 1624.07 1381.34 1604.04 1385.26 1606.32C1389.19 1608.62 1388.88 1624.7 1389.43 1629C1392.57 1653.32 1393.51 1678.5 1394.01 1703C1394.1 1707.38 1392.73 1732.33 1399.53 1730.71C1403.62 1729.74 1401.17 1706.09 1400.78 1702C1398.27 1675.35 1395.88 1648.7 1393.1 1622C1392.56 1616.86 1392.21 1598.31 1385.23 1597.32C1380.44 1596.65 1370.59 1611.89 1367.38 1615.28C1349.55 1634.11 1333.15 1653.61 1317.68 1674.44C1315.06 1677.97 1302.47 1699.81 1298.3 1698.36C1293.59 1696.72 1293.34 1681.2 1292.9 1677C1290.6 1654.96 1291.02 1632.69 1285.74 1611C1284.87 1607.44 1281.15 1586.44 1276.09 1587.32C1268.85 1588.58 1259.98 1613.84 1257.1 1620C1243.47 1649.22 1230.79 1679.65 1216.79 1708.56C1212.44 1717.53 1210.6 1733.1 1199 1735M114 1721C99.4744 1719.13 87.515 1719.8 73 1722C73 1690.87 74.0762 1660.86 73.0404 1630C72.7298 1620.75 77.9631 1603.95 74 1596C78.1176 1590.35 114.736 1586.38 116.281 1593.17C118.251 1601.82 113.2 1613.07 113.019 1622C112.37 1653.95 108.414 1689.44 114 1721M153.291 1592.16C169.454 1587.52 190.183 1622.49 201.323 1630.71C210.07 1637.16 247.125 1646.92 248.677 1658.38C249.474 1664.26 233.106 1670.28 229.061 1673.16C213.875 1683.98 196.903 1692.59 182.04 1703.26C176.821 1707.01 167.774 1717.98 161.449 1718.5C154.762 1719.04 157.018 1699.85 156.997 1696C156.854 1669.81 156.391 1645.1 154.126 1619C153.725 1614.38 147.408 1593.85 153.291 1592.16M652 1730C654.059 1729.03 663.397 1726.07 663.717 1723.76C663.951 1722.08 654.29 1718.13 654.045 1712C653.003 1686.01 654.744 1655.37 656.078 1629C656.373 1623.16 664.894 1600.8 662.248 1598.37C651.36 1588.38 621.494 1597.11 609 1599.68C603.837 1600.74 593.626 1601.01 593.366 1608.1C592.609 1628.75 600.042 1650.29 599.47 1672C599.006 1689.64 596.196 1711.15 603.461 1727.85C608.605 1739.68 644.541 1719.62 652 1730M636 1600.32C639.628 1599.94 654.295 1597.88 656.308 1601.69C658.164 1605.19 651.213 1618.22 651.041 1623C650.262 1644.63 652.708 1666.3 651.959 1688C651.727 1694.75 650.844 1721.72 643.93 1722.79C639.107 1723.54 610.739 1726.83 608.219 1724.69C603.616 1720.79 604.005 1705.55 604 1700C603.98 1677.58 604.609 1655.37 603.978 1633C603.801 1626.73 595.589 1613.5 599.356 1607.9C604.113 1600.83 628.282 1601.12 636 1600.32M567 1747C567 1714.55 563.737 1683.19 562.078 1651C561.325 1636.39 564.18 1622.26 562 1608C529.938 1617.97 505.845 1635.02 478.019 1653.8C471.301 1658.34 451.817 1663.89 452.596 1673.92C453.589 1686.71 474.312 1695.92 483.437 1701.65C492.602 1707.4 498.809 1717.04 508.008 1722.68C527.084 1734.38 547.421 1739.15 567 1747M559 1613C558.982 1650.3 568.222 1692.99 562.65 1729.97C560.59 1743.65 541.218 1733.19 539 1724C516.86 1732.58 490.781 1701.95 473.864 1691.32C469.49 1688.57 456.345 1677.44 458.622 1671.2C460.106 1667.14 478.655 1658.63 483 1655.69C507.305 1639.22 530.825 1622.41 559 1613M1949 2094C1949 2076.96 1946.83 2061.71 1944 2045C1954.73 2048.94 1966.31 2047.69 1977 2044C1976.99 2067 1979.04 2088.15 1981.22 2111C1981.92 2118.34 1986.43 2132.62 1983.1 2139.48C1981.39 2143.01 1973.27 2140.73 1970 2141.25C1950.81 2144.27 1934.84 2142.08 1941.32 2164C1944.43 2174.49 1954.19 2176.04 1964 2176C1988.51 2175.89 2012.22 2170.98 2037 2171C2044.05 2171.01 2063.94 2179.16 2068.22 2171.54C2069.88 2168.59 2069.69 2164.47 2070.5 2161.22C2075.72 2140.19 2062.73 2140.23 2045 2141.05C2042.14 2141.18 2035.51 2144.23 2033.26 2141.99C2030.23 2138.99 2030.13 2127.17 2029.99 2123C2029.47 2107.74 2029.15 2092.19 2027.44 2077C2026.98 2072.93 2023.66 2059.97 2026.27 2056.86C2029.57 2052.93 2057.23 2052.26 2064 2050C2063.88 2079.43 2067.06 2096.2 2101 2092.68C2104.6 2092.31 2115.37 2094.34 2117.74 2091.91C2121.53 2088.01 2118.12 2074.37 2116.38 2070C2109.23 2051.98 2113.02 2030.36 2108.88 2011C2107.97 2006.77 2108.45 1995.06 2104.4 1992.82C2091.09 1985.47 2061.64 1997.86 2047 1998C2079.5 1964.34 2064.07 1890.56 2022.56 1871.42C2008.36 1864.87 1964.41 1873.12 1950 1878.66C1917.26 1891.26 1920.1 1947 1930.3 1973C1932.69 1979.07 1946.07 1992.22 1945.49 1998.14C1944.99 2003.3 1936.57 2002.98 1933 2003C1922.47 2003.06 1903.77 1999.54 1895.42 2007.56C1882.19 2020.28 1896.76 2060.12 1897.06 2076C1897.18 2082.13 1895.43 2094.71 1901.55 2098.71C1908.41 2103.21 1938.65 2092.99 1949 2094M100 1984C113.902 1984.62 125.966 1984.23 139.96 1982.16C143.928 1981.57 151.571 1977.98 155.078 1981.26C159.714 1985.6 145.521 2000.13 143.26 2004.02C134.31 2019.42 128.44 2037.18 118.662 2052C113.475 2059.86 104.709 2065.05 100 2073C117.42 2073 132.496 2072.42 149 2066.55C152.974 2065.13 163.328 2061.33 166.991 2065.14C170.361 2068.65 160.813 2078.96 158.971 2082C152.091 2093.37 145.771 2105.09 136.783 2115.04C132.956 2119.27 124.628 2125.19 124.886 2131.69C125.083 2136.65 140.759 2117.42 142.896 2115C155.679 2100.52 171.978 2077.92 179 2060C156.025 2059.56 134.435 2064.87 112 2070C123.129 2048.31 135.933 2021.64 150.575 2002C154.219 1997.11 166.943 1984.25 159.498 1977.94C148.764 1968.85 119.712 1980.29 107 1979C121.888 1962.27 133.911 1940.4 145.094 1920.96C149.348 1913.57 152.089 1901.2 159.316 1896.14C170.749 1888.14 194.41 1887.76 208 1887C202.389 1898.79 210.294 1912.11 216.595 1922C228.443 1940.6 244.819 1959.93 255 1979C248.169 1976.68 216.114 1969.64 211.918 1978.69C209.824 1983.2 214.325 1992.81 215.983 1997.14C223.058 2015.6 233.254 2032.03 247.398 2045.82C251.605 2049.92 269.806 2062.43 268.919 2068.6C267.63 2077.55 236.448 2077.18 230 2076.96C227.776 2076.89 218.763 2074.66 218.622 2078.5C218.09 2092.97 241.292 2109.22 248.538 2119.92C250.658 2123.05 258.573 2130.93 255.694 2134.96C251.145 2141.32 233.441 2136.68 227 2136.13C209.468 2134.61 196.314 2139.14 179 2140.78C170.062 2141.63 160.732 2138.87 152 2140.8C147.822 2141.72 122.129 2142.96 123.187 2146.54C125.509 2154.38 149.266 2146.83 154 2145.8C179.022 2140.34 209.454 2141.09 235 2141.96C241.698 2142.19 258.954 2144.72 261.967 2136.85C266.871 2124.05 234.071 2094.74 227 2083C241.072 2083 252.946 2082.79 266.04 2077.05C268.787 2075.85 276.972 2073.45 277 2069.68C277.061 2061.38 255.556 2048.34 250.001 2042.96C233.496 2026.97 220.982 2004.47 217 1982C230.654 1982 242.389 1982.09 256 1983.06C258.768 1983.26 266.517 1985.48 268.272 1982.32C268.569 1981.79 253.202 1969.2 251.312 1967C237.249 1950.63 221.622 1928.57 214.705 1908C212.742 1902.17 217.522 1875.42 218.05 1875.88C215.003 1873.18 210.246 1878.55 207.783 1879.88C199.03 1884.62 187.504 1883.21 178 1886.08C172.031 1887.88 158.744 1885.05 154.732 1887.81C148.366 1892.2 146.189 1908.78 142.245 1916C130.299 1937.86 107.492 1960.62 100 1984M1988 2151C1988 2122.8 1982 2094.93 1982 2067C1982 2061.78 1986.01 2041.24 1980.33 2038.58C1977.44 2037.22 1968.57 2042.36 1965 2042.76C1958.92 2043.44 1946.36 2039.13 1941.5 2041.56C1934.1 2045.25 1946.83 2078.89 1942.18 2087.5C1940.32 2090.94 1904.75 2094.19 1902.82 2091.18C1900.22 2087.09 1902.25 2078.71 1901.78 2074C1900.25 2058.69 1896.06 2043.52 1896.35 2028C1896.45 2023.04 1895.52 2012.69 1900.37 2009.8C1910.79 2003.6 1946.46 2015.31 1951.09 2002.08C1952.62 1997.72 1946.88 1994.22 1945.42 1990.65C1940.32 1978.14 1931.8 1967.93 1929.95 1954C1927.39 1934.69 1926.76 1899.77 1945.09 1887.11C1956.46 1879.25 1979.43 1878.71 1993 1877.98C2004.89 1877.34 2018.86 1872.91 2028.91 1881.4C2053.07 1901.8 2063.7 1933.89 2055.76 1964C2052.72 1975.53 2049.59 1987.58 2042.84 1997.66C2041.67 1999.41 2033.78 2005.17 2035.32 2007.2C2037.48 2010.06 2047.03 2004.52 2050 2004.14C2062.09 2002.61 2088.15 1992.27 2099.5 1997.86C2103.01 1999.59 2103.86 2011.31 2104.51 2015C2107.59 2032.32 2104.46 2051.41 2109.84 2068C2111.33 2072.61 2117.8 2085.19 2110.85 2087.51C2099.45 2091.31 2071.18 2091.54 2069.24 2075.98C2068.54 2070.28 2073.01 2048.46 2068.18 2045.44C2065.12 2043.53 2059.85 2047.49 2057 2048.52C2047.26 2052.02 2030.45 2045.19 2022.64 2050.4C2018.7 2053.02 2020.9 2067.68 2021.04 2072C2021.67 2090.9 2020.64 2113.88 2026.01 2132C2027.24 2136.17 2026.69 2146.29 2030.6 2148.75C2037.54 2153.11 2056.09 2141.64 2065.16 2147.47C2069.2 2150.07 2065.66 2169.31 2060.73 2170.24C2046.41 2172.93 2025.91 2164.11 2011.02 2164.12C1996.62 2164.13 1954.08 2183.22 1945.8 2163.95C1936.94 2143.33 1976.95 2146.89 1988 2151M537 1986C524.415 2018.85 511.358 2044.98 491.54 2075C488.511 2079.59 469.53 2098.03 471.544 2102.44C474.14 2108.11 500.195 2103.9 506 2104.02C515.335 2104.21 524.24 2110.09 532.962 2109.82C557.428 2109.06 578.456 2101.26 603 2109.85C608.197 2111.67 634.548 2116.54 637.241 2109.24C638.391 2106.12 620.583 2086.95 618.288 2082C605.408 2054.22 590.01 2024.99 587 1994C602.915 2009.87 615.381 2020.53 635 2032.88C637.509 2034.46 649.849 2044.6 652.464 2041.29C653.562 2039.89 642.319 2025.32 640.924 2023C628.611 2002.52 608.381 1990.25 597.804 1969C589.645 1952.61 582.025 1933.73 582.397 1915C582.492 1910.2 590.608 1892.75 588.031 1889.92C585.026 1886.61 575.473 1891.62 572 1892.48C560.874 1895.27 539.281 1903.89 528.322 1901.96C523.308 1901.08 521.981 1892.45 521.118 1892.75C518.936 1893.48 511.967 1900.23 512.318 1902.65C512.718 1905.41 516.53 1905.94 516.761 1909.14C518.21 1929.27 499.533 1956.02 490.331 1973C488.02 1977.27 465.935 2001.96 469.962 2005.86C474.495 2010.24 484.07 2006.89 489 2005.31C505.302 2000.09 520.715 1990.62 537 1986M1612 1947C1598.94 1979.81 1573.19 2003.4 1555.48 2033.08C1539.73 2059.46 1532.25 2090.95 1517 2117C1534.1 2120.3 1555.55 2115.23 1574 2117.54C1579.34 2118.21 1582.13 2117.11 1584 2112C1564.36 2113.91 1545.05 2109.26 1525 2112C1537.44 2067.56 1564.97 2033.58 1589.79 1996.21C1597.08 1985.25 1602.01 1973.2 1608.97 1962.1C1611.77 1957.63 1618.11 1953.32 1617.88 1947.4C1617.64 1941.34 1603.81 1942.86 1600 1943.14C1581.43 1944.48 1557.45 1943.08 1541 1951C1541.91 1941.21 1539.4 1905.52 1546.26 1899.05C1551.75 1893.89 1577.38 1905.87 1584 1906.78C1616.05 1911.18 1664.9 1886.78 1694 1905C1698.94 1902.54 1729.89 1895.88 1732.19 1900.32C1735.79 1907.3 1740.77 1949.22 1735.74 1955.16C1727.19 1965.27 1715.53 1935.42 1705.71 1954.14C1700.01 1965.01 1704.42 1983.36 1705.84 1995C1709.15 2022.04 1708 2048.99 1711.72 2076C1712.77 2083.62 1720.1 2108.56 1717.38 2114.52C1715.43 2118.81 1706.76 2118.12 1703 2117.78C1692.78 2116.85 1659.91 2122.08 1653.25 2114.15C1649.72 2109.95 1651.61 2096.57 1650.63 2091C1646.66 2068.39 1640.18 2048.29 1641 2025C1635.82 2026.11 1626.74 2043.72 1624.53 2049C1614.77 2072.28 1598 2090.21 1598 2117C1605.45 2115.41 1604.24 2100.77 1606 2095C1610.4 2080.59 1620.09 2068.43 1626.78 2055C1629.52 2049.48 1630.74 2041.42 1637 2039C1637.08 2059.64 1644.48 2077.98 1646.68 2098C1647.23 2103.04 1644.58 2117.32 1648.82 2120.74C1656.98 2127.31 1679.15 2121.82 1689 2122.02C1696.51 2122.17 1718.98 2127.56 1724.64 2120.74C1727.45 2117.34 1717.25 2094.78 1717.04 2089C1715.64 2051.11 1710.78 2013.75 1708.14 1976C1707.93 1973.01 1707.97 1969.99 1708.01 1967C1708.3 1941.21 1732.7 1973.43 1741.4 1957.79C1745.64 1950.16 1741.21 1936.14 1739.92 1928C1738.65 1920.04 1740.69 1899.65 1733.86 1894.22C1728.26 1889.77 1714.26 1896.81 1708 1897.67C1686.01 1900.7 1663.33 1896.78 1641 1897.91C1614.98 1899.22 1591.61 1898.27 1566 1896.14C1558.82 1895.55 1546 1888.73 1540.81 1895.38C1535.91 1901.67 1539.44 1912.66 1538.78 1920C1538.09 1927.83 1532.83 1948.75 1539.04 1954.96C1544.42 1960.34 1554.26 1955.08 1560 1953.62C1576.11 1949.52 1595.3 1948 1612 1947M581 1896C575.47 1926.96 581.524 1959.5 601.647 1984.92C614.155 2000.72 632.874 2011.2 640 2031C626.476 2025.74 610.46 2016.02 600.464 2005.35C596.309 2000.91 595.548 1987.26 586.251 1989.27C577.381 1991.19 586.863 2015.09 588.36 2020C598.327 2052.7 614.236 2078.39 630 2108C613.112 2107.97 597.693 2101.26 581 2100.14C564.539 2099.03 549.174 2103.26 533 2103.81C516.237 2104.38 497.481 2100 480 2100C485.413 2085.14 500.267 2070.88 508.875 2057.32C525.785 2030.69 537.929 2005.15 548 1976C526.049 1986.12 498.605 2003 474 2003C488.254 1981.15 502.617 1960.65 513.538 1936.68C516.371 1930.46 518.247 1910.96 523.04 1907.34C526.109 1905.02 534.961 1906.48 539 1905.55C553.012 1902.32 566.347 1896.54 581 1896M921 1905.45C890.641 1908.52 859.154 1902.94 829 1908.18C823.376 1909.16 808.281 1906.26 804.271 1910.25C798.384 1916.12 804.177 1938.56 804.444 1946C805.003 1961.6 807.602 1976.51 808.856 1992C809.266 1997.06 806.612 2006.24 809.3 2010.56C811.265 2013.71 840.201 2023.88 844.849 2024.65C848.825 2025.3 846.141 1999.18 846.68 1994C847.441 1986.68 845.301 1969.65 850.142 1963.82C852.79 1960.63 860.345 1962 864 1962C875.598 1962 896.177 1955.62 905.499 1964.13C911.819 1969.9 907.905 1990.39 906.702 1998C903.215 2020.04 896.361 2039.25 897.513 2062C898.189 2075.36 906.122 2103.32 899.178 2115.46C895.11 2122.57 868.599 2103.38 861.278 2114.49C856.967 2121.04 863.162 2164.58 871.022 2164.9C882.385 2165.38 892.973 2156.41 904 2154.52C929.408 2150.17 954.301 2148.94 980 2151.07C988.403 2151.76 1010.65 2158.91 1017.74 2151.74C1020.37 2149.08 1018.05 2143.13 1017.04 2140.22C1013.26 2129.23 1016.67 2109.63 1010.54 2100.5C1004.17 2091.02 971.533 2105.15 966.779 2096.67C957.967 2080.96 962.056 2054.11 962.922 2037C964.295 2009.87 961 1982.23 961 1955C961 1945.73 967.374 1915.06 961.831 1908.74C956.464 1902.63 928.827 1904.65 921 1905.45M959 1912C954.288 1921.72 956.453 1932.51 955.922 1943C954.382 1973.43 960.722 2005.06 958.727 2035C957.39 2055.06 952.408 2082.04 962.846 2100.85C969.329 2112.54 992.776 2100.81 1002.86 2102.82C1008.89 2104.03 1013.37 2137.81 1012.24 2143.79C1010.88 2151.01 993.875 2148.8 989 2147.48C960.474 2139.75 929.413 2143.83 901 2150.35C895.229 2151.68 874.999 2163.84 870.26 2158.87C867.158 2155.62 869.16 2146.21 868.782 2142C868.3 2136.62 863.445 2122.32 866.52 2117.83C869.028 2114.17 901.806 2122.02 908 2122C900.207 2101.79 898.982 2055.09 903.538 2034C907.651 2014.96 920.578 1982.79 912.962 1963.47C907.465 1949.54 872.78 1957 862 1957C856.692 1957 849.579 1955.88 845.685 1960.37C836.89 1970.5 840.819 2004.32 842 2017C835.628 2015.13 820.795 2011.49 816.257 2006.75C813.216 2003.57 815.301 1995.1 814.646 1991C812.24 1975.93 810.729 1962.25 809.921 1947C809.617 1941.25 803.644 1919.27 809.859 1915.56C817.922 1910.75 839.181 1912.37 849 1911.93C883.073 1910.4 925.697 1903.57 959 1912M1988.09 1925.72C1968.67 1932.08 1976.73 1974.4 1982.68 1987C1985.61 1993.21 1988.2 2006.24 1997.99 2002.79C2007.31 1999.5 2005.24 1989.61 2007.24 1982C2011.83 1964.52 2023.76 1914.03 1988.09 1925.72M1322 1926.58C1284.49 1933.84 1246.8 1933 1209 1933C1199.9 1933 1173.82 1934.43 1168.82 1943.66C1166.07 1948.74 1168.39 1957.98 1170.22 1963C1177.95 1984.23 1188.75 1991.64 1212 1983.42C1217.68 1981.41 1225.2 1973.96 1231.7 1976.86C1236.21 1978.88 1235.35 2004.14 1236.99 2009.98C1237.44 2011.6 1239.3 2020.37 1242.41 2018.9C1245.32 2017.54 1241.42 2010.82 1240.89 2008.92C1239.35 2003.39 1240.44 1973.23 1238.4 1971.93C1223.76 1962.64 1194.27 1992.23 1180.8 1976.73C1163.63 1956.95 1176.92 1943.8 1196 1939.04C1214.76 1934.36 1235.32 1938.9 1254 1938.92C1267.37 1938.93 1280.67 1935.16 1294 1935.01C1302.85 1934.91 1323.39 1927.87 1330.73 1931.48C1335.77 1933.95 1335.03 1942.34 1335.56 1947C1339.67 1983.23 1300.97 1951.27 1286.82 1972C1279.24 1983.1 1284.08 1997.12 1285.82 2009.08C1286.16 2011.37 1285.04 2021 1288.86 2021C1292.38 2021 1290.66 2011.85 1290.43 2010C1289.48 2002.28 1285.27 1981.15 1291.08 1974.85C1294.51 1971.12 1320.82 1968.56 1327 1969.23C1330.28 1969.59 1338.57 1974.72 1341.06 1972.22C1343.52 1969.74 1341 1960.41 1341 1957C1340.98 1941.4 1342.72 1922.57 1322 1926.58M1994.01 1929.37C2020.36 1926.3 2003.29 1967.42 2000.53 1979.08C1999.4 1983.87 2001.47 1995.39 1994.09 1996.21C1989.16 1996.76 1986.36 1984.51 1984.98 1981C1980.61 1969.88 1977.27 1931.32 1994.01 1929.37M1318 2152C1320.45 2137.5 1320.07 2117.12 1315.84 2103C1313.38 2094.76 1304.73 2078.85 1308.81 2070.25C1310.04 2067.66 1312.21 2067.9 1314.45 2068.99C1330.75 2077 1333.78 2068.04 1348.97 2066.32C1351.5 2066.03 1358.6 2072.19 1359.03 2067.66C1360.19 2055.53 1351.22 2041.16 1350.13 2029C1349.78 2025.09 1350.57 2017 1347.18 2014.26C1343.22 2011.06 1301.35 2014.73 1300.11 2018.46C1298.67 2022.74 1308 2022 1310 2022C1317.98 2021.98 1335.43 2014.14 1342.26 2019.26C1347.65 2023.31 1349.57 2049 1350.17 2055.97C1350.78 2063.04 1335.2 2068.81 1328.97 2068.89C1321.93 2068.99 1314.51 2059.83 1307.38 2062.87C1300.84 2065.66 1303.81 2076.75 1304.44 2082C1306.22 2097.01 1312.03 2110.52 1313.68 2126C1314.11 2130.09 1315.38 2139.87 1311.22 2142.52C1306.89 2145.28 1292.48 2145.45 1287 2146.02C1276.67 2147.1 1255.26 2152.79 1246.6 2145.08C1236.99 2136.52 1239.02 2102.22 1238.14 2090C1237.9 2086.71 1238.96 2072.2 1235.69 2070.76C1230.83 2068.62 1232.96 2087.01 1233.08 2089C1233.85 2102.77 1232.36 2137.67 1241.82 2148.16C1257.16 2165.17 1298.29 2142.41 1318 2152M1239 2064C1228.72 2053.36 1214.7 2067.89 1205.78 2060.94C1187.29 2046.54 1205.6 2026.31 1222 2024.34C1224.03 2024.1 1238.47 2026.05 1237.68 2022.46C1235.38 2012.13 1198.91 2025.51 1194.56 2029.94C1190.93 2033.65 1196.5 2043.64 1197.7 2048C1198.97 2052.61 1198.98 2063.68 1202.81 2066.74C1207.21 2070.26 1233.09 2065.03 1239 2064M248 2069L247 2073C249.177 2072.26 249.723 2071.9 251 2070L248 2069z"/>
</svg>
