<?xml version="1.0" standalone="yes"?>
<svg xmlns="http://www.w3.org/2000/svg" width="2200" height="2200">
<path style="fill:#0e0e0e; stroke:none;" d="M127 101C149.8 97.2539 170.399 89.8167 193.981 100.246C237.247 119.381 269.516 194.674 231.816 232.871C217.283 247.595 181.367 248.166 162 252.527C140.98 257.26 123.327 270.32 101.001 266.583C99.4358 266.321 90.4992 266.169 93.4076 270.068C104.537 284.988 145.039 263.122 157 259.862C180.947 253.336 208.992 253.108 230.981 240.356C253.612 227.231 259.93 177.707 249.561 156C233.485 122.346 205.234 97.0842 169 89.8997C157.598 87.6389 130.361 86.6084 127 101M546 95.8447C508.67 106.359 485.273 154.035 478.742 190C476.515 202.263 472.74 213.538 471.791 226C471.612 228.35 470.658 237.357 474.904 237.357C476.239 237.357 481.998 201.14 482.886 197C488.339 171.571 502.832 127.101 525.2 111.965C533.625 106.264 546.357 98.4597 557 101.604C585.366 109.982 592.958 171.572 597.261 196C598.036 200.398 602.099 230.967 605 230.894C614.018 230.67 602.653 198.181 602.007 194C597.977 167.913 591.878 138.04 578.874 115C572.005 102.828 561.069 91.6003 546 95.8447M976 218C956.011 218.462 939.102 228.341 918 226.864C906.588 226.065 895.717 223.822 885 219.796C871.995 214.91 848.803 191.697 852.469 176C856.897 157.037 883.799 132.386 899 121.784C909.481 114.474 937.072 104.039 949.997 106.303C955.129 107.202 956.496 113.872 960.429 114.677C963.762 115.359 962.253 108.726 961.495 107.467C953.844 94.7424 932.141 104.737 921.997 107.651C894.624 115.516 876.859 131.749 859.665 154C850.832 165.432 842.123 176.252 850.103 190.68C869.23 225.265 903.208 238.101 942 232.398C952.239 230.892 970.331 227.488 976 218M1202 119C1202 137.306 1204.47 155.915 1207.63 174C1210.06 187.914 1212.97 199.277 1219.2 212.04C1222.57 218.934 1226.8 226.052 1231.68 231.989C1250.37 254.726 1272.86 246.02 1288.4 226C1304 205.915 1305.99 171.514 1308.68 147C1309.92 135.625 1309.4 124.385 1311.38 113C1311.71 111.09 1314.18 104.019 1310.85 103.323C1305.87 102.28 1304.05 134.777 1304.1 138.783C1304.4 162.252 1298.86 202.589 1284.87 222C1279.67 229.218 1270.71 240.413 1261 240.698C1221.89 241.845 1213.16 180.673 1209.42 153C1208.21 144.085 1211.87 122.136 1202 119M1620 132C1628.42 125.696 1634.03 110.271 1647 111.259C1662 112.403 1658.01 136.579 1658 146C1657.98 174.155 1645.67 219.605 1616 231.309C1600.92 237.258 1594.06 225.138 1589.28 213C1580.93 191.794 1581.39 167.169 1592.81 147C1595.12 142.922 1610.84 126.804 1608.65 126.19C1598.04 123.223 1589.49 142.937 1586.16 149.96C1575 173.481 1573.22 213.601 1594.13 233.174C1610.05 248.078 1630.11 230.322 1639.02 216.864C1655.62 191.809 1677.42 144.151 1659.4 114.022C1648.14 95.1907 1621.33 116.386 1620 132M1923.87 145.36C1919.28 148.29 1939.66 165.81 1941.99 167.999C1962.68 187.456 1981.71 207.068 2004 224.831C2007.09 227.295 2022.07 243.869 2025.89 239.713C2029.21 236.104 2008.87 220.517 2006 218.406C1982.93 201.41 1964.9 181.048 1943.59 162.136C1940.41 159.306 1927.89 142.799 1923.87 145.36M855 445C860.247 452.855 873.481 451.951 882 451.997C904.695 452.121 930.154 446.629 952.078 448.137C955.906 448.4 976.892 464.585 979.894 455.704C980.364 454.314 958.007 442.629 954.96 442.528C922.224 441.442 888.088 445 855 445M548 589C556.142 584.01 549.862 571.872 548.997 564C546.209 538.643 542.164 513.723 540.882 488C540.554 481.399 545.199 463.513 537.503 459.544C532.914 457.177 535.999 487.418 536 491C536.01 524.273 542.485 556.473 548 589M1553.6 470.408C1549.58 472.895 1555.88 491.236 1555.98 496C1556.5 521.601 1557.1 546.441 1554.58 572C1554.33 574.588 1552.79 595 1557.64 592.456C1562.15 590.089 1559.85 573.518 1560.08 569C1561.33 544.231 1562.99 519.821 1560.78 495C1560.49 491.719 1560.16 466.347 1553.6 470.408M228.654 471.756C220.669 471.848 205.789 488.976 200 494.22C173.428 518.288 148.637 544.737 123.758 570.554C119.373 575.105 93.5239 601.053 95.2733 601.323C105.677 602.924 122.571 580.429 129 574C154.535 548.464 178.58 521.648 205 497C208.017 494.186 233.081 471.705 228.654 471.756M2089.97 478.761C2085.16 478.821 2088 501.877 2088 506C2088 532.332 2084.72 558.733 2085.01 585C2085.05 588.826 2084.39 608.357 2089.76 608.357C2094.03 608.357 2090.57 584.717 2090.66 581C2091.27 555.04 2091.77 528.932 2093.08 503C2093.28 499.103 2097.05 478.673 2089.97 478.761M1236 608.438C1223.56 609.841 1210.18 608.328 1198 610.856C1196.17 611.237 1185.91 612.633 1187.11 615.763C1188.33 618.952 1207.33 616 1211 616C1237.02 616 1259.82 612.319 1286 617C1293.26 618.298 1316.43 620.548 1322.35 615.751C1328.94 610.408 1309.92 610.168 1308 610.342C1284 612.52 1260.23 605.704 1236 608.438M1326.19 815.754C1318.62 818.565 1320.51 841.661 1319.8 848C1317.44 869.215 1316.46 890.66 1316.02 912C1315.81 922.329 1316.98 936.728 1311.18 945.794C1307.62 951.36 1297.35 948.032 1292 947.295C1272.57 944.616 1251.2 942.572 1232.32 937.282C1228.71 936.271 1211.58 930.166 1209.1 932.222C1204.64 935.917 1227.77 942.212 1230 942.584C1249.99 945.916 1269.81 949.996 1290 952.199C1296.26 952.882 1307.7 955.261 1313.5 952.179C1319.71 948.88 1320.23 932.063 1320.78 926C1323.19 899.604 1323.64 872.452 1324.97 846C1325.13 842.838 1330.53 814.144 1326.19 815.754M571 827C565.289 823.806 553.766 827 547 827C529.491 827 513.086 823.657 496.033 821.728C493.294 821.418 489.925 823.477 492.649 826.229C504.828 838.529 546.974 832 563 832C567.904 832 578.338 829.746 582.501 832.338C587.664 835.551 586.952 849.622 587.562 855C590.159 877.896 591.34 905.04 589.861 928C589.678 930.842 587.022 956.087 591.345 954.239C595.526 952.451 596.312 926.412 595.462 922C590.755 897.551 595.957 872.419 592.081 848C591.24 842.698 592.432 829.945 588.741 825.958C586.117 823.124 574.116 825.496 571 827M119 961C107.952 935.751 122.451 888.969 123.019 861C123.172 853.444 122.617 834.405 131.129 830.829C145.324 824.866 167.351 840.802 181 843.524C187.297 844.779 196.705 847.17 200 840C179.684 839.803 162.646 827.938 143 824.622C138.221 823.815 125.83 821.853 122.219 825.94C117.216 831.604 118.043 850.65 118.003 858C117.861 883.895 114.052 909.365 111.948 935C111.139 944.859 103.208 965.866 119 961M839 833C834.709 828.25 829.237 832.207 829.344 838.008C830.004 874.107 828.201 908.876 827.096 945C826.284 971.575 875.208 956.343 893 955.981C896.413 955.912 915.997 956.578 915.997 952.957C915.997 946.42 900.493 949.841 897 949.96C881.304 950.491 848.339 959.769 834.501 952.181C828.638 948.966 833.93 931.337 834.559 926C837.205 903.579 839.451 880.706 837.864 858C837.332 850.389 832.25 838.288 839 833M1562.94 833.26C1558.92 836.556 1560.12 846.396 1559.96 851C1559.38 867.805 1558.11 884.198 1558.92 901C1559.72 917.57 1556.91 934.468 1556.08 951C1555.86 955.204 1553.88 965.742 1556.34 969.197C1560.56 975.143 1578.6 971.653 1585 972.217C1610.56 974.471 1637.31 970.016 1663 970C1668.9 969.996 1687 971.027 1691.22 967.16C1695.4 963.327 1696.63 951.42 1698.44 946C1706.2 922.769 1712.08 897.431 1708.24 873C1707.18 866.234 1708.54 852.1 1702.24 847.604C1690.43 839.18 1661.06 849.709 1646 844.121C1624.77 836.243 1605.57 833.243 1583 832.993C1577.78 832.935 1567.34 829.646 1562.94 833.26M1915.37 836.522C1906.09 841.289 1917.82 874.193 1917.98 882C1918.39 901.379 1920.1 920.586 1920 940C1919.97 945.643 1916.03 956.399 1918.83 961.382C1920.87 965.004 1931.27 965.579 1935 965.861C1951.1 967.079 1967.07 964.816 1983 963.225C1987.09 962.816 1997.14 964.871 2000.19 961.605C2003.93 957.601 1986.61 958.013 1985 958.144C1972.45 959.161 1935.64 969.228 1925.94 958.141C1922.91 954.673 1926 937.063 1926 932C1926 913.453 1925.25 892.384 1922.52 874C1921.42 866.568 1915.76 853.722 1919.08 846.439C1921.32 841.511 1941.52 845.597 1946 846.462C1964.94 850.12 1984.11 845.856 2003 847.137C2008.27 847.494 2019.64 851.448 2024.11 847.646C2029.3 843.225 2005.64 841.396 2003 841.295C1980.82 840.446 1958.33 841.711 1936 840.96C1931.45 840.807 1918.4 834.962 1915.37 836.522M1568.81 838.824C1573.37 836.036 1585.59 838.988 1591 839.001C1617.4 839.063 1640.14 851 1666 851C1672.63 851 1695.33 848.422 1699.88 852.9C1703.93 856.896 1701.58 867.588 1702.89 872.922C1708.13 894.239 1702.94 923.397 1693.98 943.438C1691.93 948.022 1689.84 958.614 1685.32 961.186C1677.33 965.74 1661.89 963 1653 963C1632.18 963 1611.94 967 1591 967C1584.85 967 1566.53 970.51 1562.5 965.219C1558.07 959.401 1561.9 946.717 1561.99 940C1562.32 915.749 1562.75 891.228 1564.06 867C1564.33 861.98 1564.47 841.487 1568.81 838.824M1625 1193.59C1565.44 1205.71 1555.14 1264.91 1586.32 1308.22C1588.55 1311.31 1587.71 1317.38 1590.26 1319.66C1592.72 1321.86 1599.66 1319.62 1603 1320.58C1618.93 1325.15 1638.27 1331.79 1655 1328.46C1707.32 1318.03 1735.92 1242.69 1695.75 1201.82C1681.84 1187.68 1659.06 1199.98 1644.08 1199.41C1636.72 1199.13 1633.7 1191.83 1625 1193.59M1640 1200C1636.95 1205.08 1618.17 1217.11 1614.11 1206.52C1610.65 1197.5 1636.75 1199.25 1640 1200M99 1319C115.754 1305.96 112.268 1253.74 109.639 1235C108.944 1230.05 98.0533 1209.66 101.979 1206.4C107.676 1201.65 131.49 1209 139 1209C153.697 1209 168.173 1207.01 183 1207C186.803 1207 195.038 1205.02 197.616 1208.54C201.805 1214.26 198.114 1226.45 198.005 1233C197.623 1256.02 196 1278.92 196 1302C196 1305.49 194.977 1330.54 199.999 1329.68C205.499 1328.74 200.829 1305.46 201.136 1301C202.625 1279.43 201.029 1257.48 203.564 1236C204.58 1227.39 208.302 1211.32 203.315 1203.5C199.897 1198.15 187.216 1201.93 182 1201.99C161.631 1202.22 140.248 1203.81 120 1201.68C115.956 1201.26 98.0747 1196.51 95.8224 1199.86C89.7395 1208.92 102.531 1227.22 104.436 1236.04C110.511 1264.17 99.0412 1291.47 99 1319M848 1201C856.709 1222.93 904.661 1217.85 923 1219.54C930.114 1220.2 947.273 1214.62 948.91 1224.95C952.821 1249.63 947 1276.23 947 1301C947 1306.91 949.884 1323.54 945.74 1328.04C942.78 1331.25 927.45 1329.95 923 1330.01C902.368 1330.29 882.338 1333.47 861.997 1335.12C858.703 1335.39 836.437 1331.63 838.969 1337.33C841.478 1342.97 858.182 1341.19 863 1340.68C885.426 1338.29 907.997 1338.37 930.32 1335.97C935.68 1335.4 946.63 1340.51 951.178 1337.56C955.766 1334.59 953 1316.02 953 1311C953 1286.97 954.154 1262.99 954.96 1239C955.14 1233.64 957.581 1218.15 952.539 1214.8C945.21 1209.93 928.52 1213.35 920 1212.92C905.163 1212.17 889.574 1213.09 875 1209.83C865.652 1207.74 857.581 1202.08 848 1201M1680 1201C1671.05 1212.4 1647.22 1214.83 1634 1212C1645.11 1200.3 1665.14 1201.05 1680 1201M1610 1232C1615.76 1227.06 1619.39 1219.48 1627 1216.91C1637.32 1213.42 1649.62 1219.29 1661 1215.79C1666.23 1214.18 1678.54 1205.57 1683.79 1208.39C1689.19 1211.27 1687.25 1225.62 1688.18 1231C1691.51 1250.12 1697.66 1293.87 1683.52 1309.68C1672.21 1322.33 1633.08 1311.97 1617 1313.14C1610.46 1313.61 1601.6 1315.75 1596.81 1309.66C1592.97 1304.78 1598.23 1291.93 1598.78 1286C1600.65 1266.06 1594.05 1230.92 1603.86 1213.28C1606.02 1209.4 1618.97 1209.44 1619.49 1214.41C1619.92 1218.41 1611.29 1226.99 1610 1232M1240 1218C1232.35 1227.76 1228.07 1238.16 1224.59 1249.96C1221.67 1259.82 1219.89 1267.56 1220.01 1278C1220.3 1304.07 1243.67 1328.68 1270 1311.58C1292.06 1297.25 1299.25 1267.23 1291 1243C1286.37 1229.4 1272.11 1230.7 1264 1221C1274 1221 1309.19 1214.01 1316.04 1221.82C1319.18 1225.41 1316 1240.05 1316 1245C1316 1266.13 1320.22 1293.68 1311.68 1313.44C1309.89 1317.57 1312.98 1324.01 1308.69 1326.74C1303.2 1330.25 1293.11 1326.14 1287 1326.02C1265.45 1325.58 1244.58 1320.76 1223 1320.04C1216.65 1319.83 1201 1323.04 1197.82 1315.85C1194.07 1307.37 1196.47 1292.02 1196.94 1283C1198.02 1262.53 1198 1241.48 1198 1221C1186.86 1229.16 1191 1257.78 1191 1270C1191 1281.14 1185.18 1313.36 1192.26 1322.07C1196.94 1327.83 1215.3 1324.89 1222 1325C1243.18 1325.34 1264.94 1329.12 1286 1331.22C1295.39 1332.16 1306.74 1336.57 1314.72 1329.28C1319.9 1324.55 1318.27 1313.52 1319.06 1307C1321.66 1285.44 1321 1263.69 1321 1242C1321 1236.07 1324.86 1220.16 1319.4 1216.26C1315.01 1213.13 1305.15 1215 1300 1215C1282.3 1215 1265.71 1216.93 1248.01 1215.11C1231.39 1213.41 1203.11 1200.16 1188.89 1215.95C1185.41 1219.82 1192.76 1220.12 1194.96 1219.72C1212.32 1216.58 1221.8 1217 1240 1218M1694 1295C1698.59 1274.73 1695.46 1253.48 1692.94 1233C1692.43 1228.8 1688.05 1214.94 1694.31 1213.22C1699.96 1211.68 1705.97 1227.86 1706.68 1232C1709.33 1247.39 1712.45 1288.16 1694 1295M481 1213C476.222 1220.54 481.493 1229.58 481.922 1238C483.027 1259.71 482.006 1281.34 482 1303C481.998 1308.63 479.143 1325.92 483.822 1329.74C487.376 1332.64 495.647 1330.87 500 1331.32C516.312 1333.02 532.656 1332.34 549 1334.1C561.653 1335.46 591.18 1347.3 602.411 1338.18C608.285 1333.41 610.196 1321.05 611.285 1314C614.65 1292.21 616.974 1267.92 617 1246C617.008 1239.55 619.259 1220.74 610.64 1218.11C605.422 1216.51 610.35 1228.36 610.618 1230C613 1244.58 609.082 1259.44 609.003 1274C608.933 1286.76 610.682 1327.38 596.643 1334.18C582.788 1340.89 554.047 1327.88 539 1327.08C529.125 1326.56 496.722 1331.11 489.9 1323.96C485.829 1319.69 489 1300.95 489 1295C489 1273.02 494.895 1231.33 481 1213M1594.5 1217.08C1599.19 1217.82 1596.23 1230.07 1596.08 1233C1595.21 1250.09 1594.64 1267.04 1593.12 1284C1592.88 1286.66 1593.34 1302.36 1589.12 1301.68C1583.69 1300.79 1579.45 1289.34 1577.66 1285C1570.7 1268.18 1568.18 1246.03 1579.63 1231C1582.35 1227.43 1589.14 1216.24 1594.5 1217.08M1249 1223C1261.03 1218.6 1264.96 1230.06 1273.78 1235.44C1278.12 1238.09 1281.75 1236.16 1285.36 1241.39C1297.25 1258.58 1287.25 1293.91 1270.92 1304.53C1260.76 1311.14 1242.67 1316.48 1233.25 1304.97C1229.72 1300.66 1228.72 1291.45 1227.36 1286C1225.77 1279.65 1225.32 1272.52 1226.22 1266C1227.98 1253.32 1231.44 1241.1 1237.83 1230C1239.37 1227.33 1247.13 1214.26 1249 1223M1944 1325C1966.25 1321.47 1990.09 1327.51 2012.99 1320.76C2046.32 1310.94 2082.06 1273.95 2049.48 1241.36C2033.11 1224.98 2020.14 1229.03 2000.01 1228.09C1993.8 1227.81 1990.63 1221.74 1984.06 1222.15C1965.26 1223.32 1941.69 1244.49 1933.28 1260C1927.07 1271.47 1921.98 1288.68 1928.16 1300.98C1932.99 1310.59 1947.18 1312.83 1944 1325M1991 1230C1983.23 1232.19 1971.98 1235.56 1966 1241C1969.94 1240.46 1980.78 1236.43 1983.95 1239.3C1987.23 1242.27 1981.06 1251.83 1979.87 1255C1974 1270.56 1964.82 1285.15 1957.2 1299.86C1954.4 1305.27 1949.66 1309.21 1943.22 1307.54C1931.77 1304.57 1929.39 1290.82 1931.93 1281C1937.43 1259.66 1946.55 1247.62 1965 1236.17C1972.1 1231.76 1983.07 1223.67 1991 1230M2013 1231.34C2058.45 1225.71 2075.19 1304.04 2029.01 1308.93C2020.52 1309.83 2015.41 1292.85 2012.22 1287C2001.17 1266.73 1978.52 1235.61 2013 1231.34M1959 1306C1966.12 1292.29 1973.13 1278.55 1980.55 1265C1981.95 1262.44 1984.45 1251.93 1987.46 1251.32C1990.36 1250.74 1994.12 1260.98 1995.11 1263.08C1998.59 1270.47 2018.39 1299.52 2015.39 1306.5C2013.1 1311.84 2003.42 1307.41 1999.78 1306.56C1986.56 1303.46 1972.85 1309.13 1959 1306M251 1283C245.603 1270.41 238.724 1278.34 251 1283M243 1286L246 1287L243 1286M1963 1304C1969.43 1302.79 1972.15 1299.05 1974 1293C1969.37 1295.53 1965.76 1299.52 1963 1304M2016 1312C2011.35 1323.52 1983.91 1320.39 1974 1318.75C1971.35 1318.31 1960.99 1318.15 1960.32 1314.79C1959.55 1310.93 1971.12 1312.98 1973 1312.98C1986.59 1312.98 2002.73 1314.35 2016 1312M1659 1323C1655.17 1323 1622.3 1323.86 1623.32 1319.08C1624.95 1311.47 1655.49 1318.92 1659 1323M2018.06 1521.33C2015.14 1523.76 2017.83 1530.8 2017.96 1534C2018.46 1547.01 2015.31 1559.23 2015.02 1572C2014.99 1573.45 2014.4 1586.9 2018.11 1584.46C2021.31 1582.34 2019.91 1574.25 2020.22 1571C2021.43 1558.15 2023 1545.97 2023 1533C2023 1531.13 2023.41 1516.85 2018.06 1521.33M885.674 1529.41C881.583 1532.55 884 1547.29 884 1552C884 1570.82 887.889 1597.89 882.825 1615.72C881.062 1621.92 864.124 1616.4 859 1617.49C845.799 1620.27 830.703 1633.23 826.225 1646C820.214 1663.16 834.505 1680.75 849.562 1686.97C869.415 1695.18 903.218 1688.44 919 1674.66C923.904 1670.38 928.412 1665.62 932.997 1661C953.048 1640.81 932.48 1621.01 910 1616.82C904.673 1615.83 892.738 1618.28 888.862 1614.18C885.803 1610.94 888 1601.21 888 1597C888.001 1580.35 887.51 1563.62 888.556 1547C888.676 1545.1 890.022 1526.06 885.674 1529.41M87 1688C88.7813 1691.88 90.8218 1692.7 95 1693C94.4939 1695.15 90.8701 1702.56 94.4576 1703.37C99.4534 1704.5 98.5907 1696.31 101.501 1694.26C105.082 1691.74 112.712 1691.82 117 1691.33C135.578 1689.19 154.367 1692.91 173 1691.92C183.914 1691.34 194.179 1686.56 205 1685.32C211.688 1684.56 242.606 1684.49 245.394 1678.31C248.233 1672.02 232.111 1654.39 228.964 1649C220.383 1634.31 213.875 1616.44 204.955 1602.92C195.382 1588.42 184.965 1579.79 177.293 1563C174.693 1557.31 163.979 1528.72 155.498 1532.99C149.381 1536.08 145.965 1557.03 143.682 1563.44C132.973 1593.52 120.804 1622.97 110.065 1653.01C105.594 1665.51 102.627 1688.08 87 1688M133 1608C139.887 1585.72 154.695 1561.74 156 1538C165.383 1541.74 173.299 1564.96 177.532 1574C178.914 1576.95 183.323 1583.89 180.692 1587.04C178.015 1590.25 166.211 1587.8 162 1589.02C150.249 1592.42 143.875 1603.65 133 1608M525.019 1539.81C474.112 1554.52 491.337 1617.22 542 1602.4C552.576 1599.3 565.773 1592.34 569.214 1581C576.167 1558.09 546.905 1533.49 525.019 1539.81M518 1547C517.37 1553.51 515.062 1559.35 515 1566C520.321 1560.62 518.463 1547.41 529 1552L527 1543C577.551 1548.28 571.388 1601.93 522 1599.96C491.86 1598.75 490.122 1553.88 518 1547M1167 1616C1171.53 1627.61 1189.01 1625.01 1199 1625C1223.15 1624.98 1244.64 1620.85 1269 1623.79C1274.89 1624.5 1284.21 1621.89 1289.48 1624.82C1294.19 1627.44 1290.23 1644.36 1294.1 1649.96C1299.4 1657.61 1315.06 1662.8 1324 1659.81C1347.65 1651.91 1385.36 1592.82 1347 1580.1C1330.81 1574.73 1309.76 1582.95 1301.93 1598C1299.52 1602.63 1300.83 1616.87 1295.72 1618.46C1284.99 1621.79 1268.27 1617.06 1257 1617C1226.54 1616.84 1197.11 1619.92 1167 1616M1341 1583C1345.14 1587.56 1353.52 1589.31 1355.63 1595.13C1364.11 1618.46 1340.16 1656.17 1315 1653.78C1297.21 1652.09 1286.32 1629.68 1309 1627C1301.93 1617.52 1312.06 1616.69 1318 1623C1321.29 1607.23 1306.86 1618.14 1304.08 1610.49C1296.5 1589.61 1332.59 1587.79 1341 1583M1993 1740C1993 1702.72 1990.96 1646.77 2031.18 1630.8C2050.57 1623.09 2084.72 1628.98 2106 1627C2103.46 1620.59 2093.57 1623.08 2088 1623.69C2073.12 1625.34 2052.75 1629.1 2038.06 1625.59C2033.67 1624.55 2043.32 1598.66 2028.88 1591.94C2002.24 1579.53 1961.44 1622.61 1968.56 1648C1972.72 1662.82 1990.54 1650.69 1993.96 1658.29C1996.27 1663.41 1992.51 1669.92 1992.09 1675.06C1990.92 1689.34 1990.15 1703.75 1988.43 1718C1987.64 1724.57 1985.47 1737.2 1993 1740M166.002 1592.37C203.64 1586.79 222.622 1655.96 172 1663.63C158.981 1665.6 138.973 1665.13 130.026 1653.82C112.27 1631.37 143.287 1595.75 166.002 1592.37M2031 1598C2038.04 1615.39 2027.86 1630.59 2013 1640.52C2006.15 1645.1 1992.79 1644.53 1994 1652C1988.59 1652.5 1981.12 1654.64 1976.35 1651.06C1969.26 1645.74 1970.22 1619.92 1982 1632C1982.35 1615.21 1997.73 1597.31 2015 1595.57C2020.69 1595 2024.9 1599.16 2031 1598M1600 1633C1608 1613.68 1599.64 1594.31 1575 1597.74C1551.84 1600.96 1524.65 1631.23 1530.75 1655C1534.57 1669.87 1549.66 1670.75 1562 1666.58C1576.6 1661.66 1586.25 1642.23 1600 1639.27C1623.31 1634.25 1654.31 1632.11 1678 1634.22C1682.97 1634.66 1704.31 1638.02 1707.41 1634.1C1713.06 1626.97 1697.29 1628.7 1695 1628.86C1678.74 1630 1661.4 1628.87 1645 1629C1630.06 1629.12 1615.08 1632.98 1600 1633M199 1601C200.917 1603.59 202.553 1606.12 204 1609C199.254 1609.17 197.136 1605.24 199 1601M1557 1636C1555.47 1619.78 1559.42 1606.1 1578 1616C1575.32 1608.59 1570.65 1609.72 1564 1609C1571.77 1600.56 1598.55 1603.1 1599.83 1616C1601.77 1635.62 1558.55 1679.83 1539.46 1660.63C1532.39 1653.52 1533.34 1616.86 1548.46 1620.06C1550.38 1620.46 1554.3 1633.39 1557 1636M528.208 1610.33C525.083 1613.34 528.107 1623.23 528.56 1627C530.44 1642.61 529.953 1658.33 531.134 1674C531.303 1676.25 531.934 1692.36 537.26 1688.59C540.813 1686.08 537.392 1676.52 537.137 1673C535.979 1656.98 535.547 1641.02 533.673 1625C533.451 1623.1 532.47 1606.22 528.208 1610.33M864 1647C867.862 1641.54 867.712 1632.11 873.379 1628.2C882.422 1621.95 883.701 1646.7 884 1652C891.717 1644.82 881.251 1626.17 890.284 1621.82C904.683 1614.89 937.354 1629.28 936.935 1646.96C936.704 1656.7 916.268 1671.26 908.679 1675.96C887.245 1689.21 817.244 1688.59 830.803 1647C833.088 1639.99 859.919 1612.39 868.612 1623.26C870.3 1625.37 864.018 1642.57 864 1647M1882 1637C1889.55 1655.96 1927.17 1637.95 1941 1636.94C1947.53 1636.47 1959.08 1636.72 1963 1631C1934.75 1631.01 1909.5 1641.68 1882 1637M238 1674C193.282 1684.98 148.328 1687.57 102 1688C105.738 1674.5 111.645 1654.31 120 1643C130.379 1669.49 166.644 1679.34 189.521 1659.73C193.662 1656.18 208.237 1634 211.295 1634C218.495 1634 235.487 1667.26 238 1674M2164 1652C2165.64 1651.46 2165.45 1651.64 2166 1650C2164.83 1650.77 2164.77 1650.83 2164 1652M196 1672C196.654 1675.05 198.007 1674.94 201 1675C199.408 1672.95 198.551 1672.51 196 1672M303 1779L302 1783C303.656 1781.6 303.751 1781.05 303 1779M104 1855L104 1858L106 1855L104 1855M1695 1940C1709.75 1929.79 1678.28 1925.22 1672 1925.03C1643.01 1924.12 1613.13 1929.98 1584 1930.96C1581.03 1931.06 1553.74 1928.62 1558.47 1936.21C1560.84 1940.01 1569.58 1936.24 1573 1936.06C1581.79 1935.59 1618.48 1929.27 1622.85 1936.94C1627.7 1945.44 1623.07 1954.3 1623.21 1963.02C1623.6 1985.69 1623.73 2007.24 1622.14 2030C1621.85 2034.07 1619.2 2058.79 1625 2058.79C1630.27 2058.79 1628 2034.02 1628 2030C1628 2006.37 1630 1982.73 1630 1959C1630 1953.41 1627.81 1937.92 1631.83 1933.82C1635.22 1930.37 1643.61 1932.11 1648 1931.96C1659.67 1931.57 1690.47 1925.21 1695 1940M937.07 1932.76C930.667 1934.75 922.522 1962.47 917.931 1969C898.063 1997.26 875.256 2023.08 848 2044.68C843.385 2048.34 818.779 2065.41 822.525 2072.52C825.58 2078.33 851.111 2074.03 857 2074C887.607 2073.83 918.204 2070.98 949 2073.14C956.267 2073.64 976.408 2079.21 982.031 2073.13C984.593 2070.36 958.238 2068.29 954 2068.08C924.522 2066.59 894.469 2065.8 865 2067.86C859.964 2068.22 834.783 2072.71 832.323 2068.18C829.835 2063.6 855.234 2045.95 859.04 2042.65C884.929 2020.18 907.405 1996.35 925.3 1967C927.661 1963.13 942.187 1931.17 937.07 1932.76M1214 1936C1248.73 1936.98 1280.56 1946.27 1316 1940C1311.9 1950.21 1299.99 1957.48 1293.05 1966C1273.01 1990.61 1251.25 2012.11 1229.08 2034.98C1225.81 2038.36 1198.9 2059.77 1201.41 2062.72C1204.32 2066.15 1223.54 2062.61 1228 2062.22C1253.58 2059.95 1277.68 2062.65 1303 2064.02C1306.27 2064.2 1331.54 2067.88 1330.68 2063.14C1329.83 2058.45 1312.79 2059.39 1309 2058.86C1286.25 2055.69 1263.95 2051.01 1241 2056.23C1238.23 2056.86 1216.52 2059.76 1216.52 2056.16C1216.52 2051.2 1236.13 2036.87 1240 2033C1262.33 2010.67 1282.4 1987.3 1303.13 1963.6C1307.07 1959.11 1326.73 1943.41 1325.68 1937.28C1324.93 1932.93 1304.58 1934.91 1301 1935.03C1277.4 1935.77 1257.73 1937.05 1234 1933.24C1227.49 1932.2 1217.16 1928.27 1214 1936M431 1943C463.864 1956.84 498.191 1948.17 533 1953.32C552.598 1956.22 575.669 1965.21 595 1955C589.645 1970.38 561.406 1985.71 550.313 1998.22C528.904 2022.36 519.646 2053.26 499.502 2078C490.58 2088.96 463.904 2110.81 467 2126C474.974 2120.93 479.33 2110.23 485.365 2103.08C512.612 2070.77 527.755 2030.14 556.361 1999.56C570.083 1984.89 602.236 1969.43 608 1950C562.7 1950.02 518.607 1946 473 1946C463.977 1946 436.314 1937.42 431 1943M155 1951.46C114.814 1956.84 81.1023 1994.06 79.0779 2034C77.0698 2073.62 102.837 2119.7 148.864 2113.79C184.422 2109.22 216.456 2096 229.325 2059C246.609 2009.3 213.572 1943.61 155 1951.46M2003 1998C2019.26 1991.8 2047.99 1954.63 2062 1967C2061.99 1930.92 2009.87 2000.14 1993 1993.5C1976.92 1987.17 1959.04 1973.3 1945.22 1962.85C1942.54 1960.83 1932.94 1948.59 1929.41 1954.48C1926.78 1958.85 1939.31 1964.83 1942 1966.78C1953.72 1975.31 1965.64 1983.07 1978.08 1990.48C1980.76 1992.08 1989.36 1996.11 1989.36 1999.78C1989.36 2002.96 1974.79 2008.9 1972 2010.78C1956.03 2021.54 1938.31 2031.66 1922.53 2041.4C1918.43 2043.92 1903.11 2039.37 1907.05 2049.62C1908.96 2054.59 1926.78 2045.43 1930 2043.4C1946.49 2033 1963.35 2023.15 1980.04 2012.98C1984.75 2010.11 1993.16 2003.04 1998.99 2005.05C2018.15 2011.65 2041.45 2036.02 2058 2048.25C2061.1 2050.55 2074.91 2062.45 2078.59 2057.23C2081.11 2053.66 2064.61 2044.61 2062 2042.7C2042.83 2028.71 2017.71 2017.32 2003 1998M229 2040C210.291 2032.98 191.876 2032.55 172 2029.6C167.705 2028.97 154.301 2031.15 151.824 2027.18C149.474 2023.41 151.965 2015.29 151.998 2011C152.144 1992.38 160.675 1969.49 151 1957C179.312 1957.26 213.285 1967.85 224.154 1997.22C228.942 2010.15 227.474 2026.39 229 2040M144.833 1963.61C151.872 1963.67 148.075 1973.76 148.008 1978C147.798 1991.19 151.117 2014.65 146.061 2026.72C142.967 2034.1 116.817 2032.19 110 2031.96C104.481 2031.77 89.8557 2032.31 86.3187 2027.3C83.3597 2023.11 88.7732 2009.31 90.4859 2005C98.1654 1985.67 122.788 1963.44 144.833 1963.61M1122 2003C1123.31 2004.39 1124.3 2005.13 1126 2006C1124.72 2004.1 1124.18 2003.74 1122 2003M84 2032C97.809 2036.07 110.375 2038.2 125 2036.68C129.309 2036.23 141.618 2033.25 145.042 2036.28C147.775 2038.69 145.997 2047.64 146 2051L146 2091C146 2094.49 147.895 2105.15 144.362 2107.16C139.461 2109.94 128.035 2106.13 123 2104.73C90.5532 2095.69 84 2060.65 84 2032M153.292 2034.82C164.941 2029.14 198.118 2037.42 211 2039.37C215.1 2039.99 225.194 2042.08 226.905 2046.42C234.916 2066.75 197.412 2095.18 183 2101.99C178.031 2104.34 156.167 2110.53 152.26 2105.41C146.711 2098.15 151.555 2076.86 151.344 2068C151.199 2061.85 147.302 2037.74 153.292 2034.82M1575 2064.78C1570.69 2065.8 1545.84 2068.57 1550.56 2076.4C1551.87 2078.57 1572.92 2071.34 1578 2071.08C1607.83 2069.56 1639.05 2071 1669 2071C1676.89 2071 1699.01 2074.85 1705.11 2069.51C1711.32 2064.08 1679.14 2064 1676 2064C1653.42 2064 1630.79 2066 1608 2066C1597.49 2066 1585.12 2062.38 1575 2064.78z"/>
</svg>
