<?xml version="1.0" standalone="yes"?>
<svg xmlns="http://www.w3.org/2000/svg" width="2200" height="2200">
<path style="fill:#0f0f0f; stroke:none;" d="M893 89C900.383 96.2822 902.177 111.276 905.35 121C912.225 142.067 922.003 161.463 930.014 182C931.778 186.524 936.73 211.997 941.82 211.997C948.322 211.997 938.857 185.536 937.529 182C927.249 154.614 915.898 126.744 905.096 99.562C903.118 94.5857 899.496 75.887 893.696 74.625C887.694 73.3193 886.503 103.451 884.784 108C873.901 136.791 853.68 161.637 840.08 189C837.29 194.613 822.715 208.272 828.141 215.031C831.129 218.752 846.112 189.303 847.998 186.019C864.634 157.039 892.996 123.607 893 89M1326 97C1316.87 102.675 1311.31 122.405 1306.04 131.981C1293.9 154.042 1278.62 172.751 1262.62 192C1257.16 198.575 1253.44 208.578 1246 213C1242.95 182.355 1223.32 142.976 1208.79 116C1206.51 111.762 1199.32 84.6421 1193.66 88.0654C1188.78 91.0173 1201.89 114.797 1204.07 119C1216.6 143.198 1223.84 169.967 1233.81 195.217C1236.96 203.204 1237.91 217.142 1243.98 223.391C1248.76 228.307 1264.94 199.998 1268.3 196C1286.31 174.549 1301.86 152.499 1315.16 127.922C1320.72 117.665 1328.9 109.167 1326 97M2037 226C2008.31 196.762 1951.76 195.719 1924 166C1950.25 154.765 1976.38 139.62 1999.99 123.617C2008.85 117.616 2021.69 112.41 2024 101C2012.99 104.376 2002.75 115.644 1993 122C1976.27 132.909 1957.9 141.659 1940.32 151.121C1934.71 154.14 1916.2 161.164 1915.98 168.644C1915.84 173.859 1938.64 181.522 1943 183.373C1965.61 192.971 1987.39 204.966 2008.78 216.845C2016.84 221.318 2027.7 230.35 2037 226M156 249C163.084 242.095 161.747 213.719 162.784 203C163.157 199.153 162.591 188.515 166.78 186.441C170.558 184.571 175.163 191.681 176.999 194C185.144 204.292 193.999 214.5 203.045 224.001C205.192 226.255 212.44 236.414 216.127 232.37C219.911 228.221 210.221 222.345 207.866 219.94C202.574 214.536 172.07 187.213 175.418 179.504C177.495 174.722 186.019 171.395 190 168.288C201.825 159.062 213.361 149.802 224.602 139.901C227.026 137.767 237.401 134.876 238.155 132.514C240.82 124.173 224.484 133.058 223 134.296C205.733 148.707 185.243 160.801 169 176C165.833 159.803 174.975 141.54 175 125C161.091 130.457 174.308 160.476 163.257 166.456C159.573 168.45 151.279 157.243 149 155.04C135.838 142.317 124.113 130.256 113.174 115.553C112.023 114.007 103.574 104.866 102.428 111.008C101.462 116.189 110.596 122.747 113.526 126.078C124.818 138.919 136.439 150.797 148.327 163.118C151.786 166.703 163.032 175.05 160.593 180.853C157.87 187.33 147.614 191.149 142.04 194.632C128.337 203.193 114.629 211.77 101 220.414C98.6087 221.931 81.3238 228.743 81.7612 229.775C84.0818 235.25 98.232 228.932 101.32 227.046C115.366 218.466 129.383 210.456 143 201.163C145.822 199.237 153.509 191.999 157.144 193.033C159.708 193.763 157.053 204.914 156.783 207C155.102 219.978 148.189 236.883 156 249M506 151C498.212 147.958 492.696 141.591 487.11 135.602C483.784 132.036 480.315 128.614 477.058 124.981C448.443 93.0647 477.391 136.217 490 147.861C492.128 149.826 502.259 155.511 501.677 158.731C500.49 165.297 466.841 158.697 462 157.783C460.03 157.411 450.157 154.605 451.761 159.861C456.384 175.009 494.359 158.241 501.351 167.136C504.769 171.484 492.341 175.487 490.136 176.895C483.341 181.234 437.784 204.256 454 211C453.994 197.992 490.919 184.01 501 176C501.993 184.175 499.748 191.922 499.139 200C498.74 205.298 498.995 210.69 499 216C499.004 220.321 505.086 247.778 507.694 232.946C510.097 219.281 505.807 200.995 507.561 185.999C508.189 180.63 507.457 172.081 514.062 170.028C518.716 168.582 523.534 174.314 527 176.66C538.871 184.691 552.722 191.831 561.182 203.783C563.38 206.887 560.517 213.806 562.777 215.456C566.596 218.245 569.592 204.552 568.417 202.038C564.522 193.703 553.535 186.322 546.019 181.524C538.346 176.627 530.604 172.34 524 166C543.653 166 562.502 169.64 581.999 170.011C584.285 170.054 603.6 175.847 600.257 167.273C598.645 163.137 586.476 165.031 583 164.993C567.945 164.825 546.185 163.366 532 159C537.825 155.174 544.232 152.396 550 148.437C553.87 145.781 557.283 142.585 561 139.734C562.336 138.709 578.477 127.741 573.351 126.226C569.196 124.998 562.86 131.632 560 133.884C549.22 142.375 537.197 149.711 526 157.657C522.378 160.227 518.149 161.641 514.149 158.929C506.542 153.773 513.156 131.748 511.713 123.008C510.718 116.987 504.97 113.984 502 109C500.864 109.796 506 143.25 506 151M1569 110C1575.62 122.017 1593.89 124.948 1606 128.655C1638.6 138.629 1671.03 150.305 1705 155C1701.03 161.37 1690.82 163.155 1684 165.473C1664.93 171.957 1641.25 180.568 1621 180.981C1614.46 181.115 1590.08 176.093 1586.54 183.391C1584.83 186.921 1618.7 186.005 1624 186C1647.57 185.979 1674.46 176.022 1696 167.063C1701.36 164.835 1714.17 162.005 1717.89 157.818C1722.09 153.097 1689.83 145.227 1686 144.332C1661.06 138.509 1637.24 133.784 1613.04 125.183C1599.83 120.487 1582.75 110.156 1569 110M1240 503C1223.24 514.545 1219.95 540.75 1205 554C1208.27 535.161 1219.87 517.357 1226.78 499.68C1231.25 488.251 1233.7 474.435 1240 464C1244.82 476.311 1240.54 488.562 1241.01 501C1242.09 529.151 1242.51 557.685 1238.94 586C1237.84 594.753 1228.37 625.674 1235.22 632.67C1238.91 636.445 1240.61 625.594 1240.77 624C1241.98 612.074 1240.57 600.769 1243.91 589C1253.47 555.236 1250.72 507.526 1248 473C1261.32 501.442 1289.29 527.53 1298 558C1292.9 557.434 1291.37 558.936 1291 564C1296.04 563.39 1300.12 565.089 1305 566C1304.5 544.363 1281.06 514.428 1269.86 496.003C1265.34 488.557 1257.02 480.243 1255.32 471.562C1254.09 465.269 1258.11 458.746 1256.63 452.04C1255.25 445.768 1249.05 442.987 1248.92 436C1248.83 431.355 1255.16 410.975 1248.62 408.864C1243.66 407.262 1243.62 416.415 1243.81 418.922C1244.59 429.324 1244.78 446.287 1242.21 456.493C1240.93 461.571 1233.31 465.382 1230.99 471C1222.04 492.736 1213.2 514.953 1205 537C1202.35 544.141 1194.13 558.74 1196.58 566.469C1198.51 572.538 1208.87 555.764 1210.1 554.04C1220.43 539.463 1236.8 520.881 1240 503M183 426C180.642 440.551 181.161 455.336 180.136 470C179.871 473.792 181.593 482.251 178.181 484.911C174.652 487.661 165.55 481.262 161.999 479.957C149.228 475.266 136.515 470.361 125 462.861C121.643 460.674 114.889 453.653 110.509 455.065C107.95 455.89 107.573 472.039 108 475C118.49 460.797 146.792 480.619 160.217 486.014C165.277 488.047 176.761 489.838 177.937 496.107C179.138 502.515 181.197 529.757 175.499 533.741C170.559 537.195 160.841 535.723 155.008 537.309C143.479 540.443 132.986 546.299 122.864 552.333C120.058 554.005 108.92 556.894 108.426 560.332C107.406 567.425 119.587 560.837 121.32 559.705C129.527 554.347 166.379 532.355 175.74 543.822C185.639 555.947 165.816 582.193 178 593C182.496 580.012 176.076 551.942 184.076 541.685C187.342 537.497 196.268 538.216 201 537.027C213.209 533.958 226.723 530.398 237 523.042C238.986 521.621 249.857 518.056 248.894 515.217C247.72 511.752 237.179 509.12 233.992 507.864C222.524 503.345 211.767 496.108 200 492.468C195.789 491.166 187.825 491.13 185.58 486.637C179.194 473.861 198.985 431.301 183 426M863 569C856.076 541.469 846.961 490.413 819 476C820.462 487.632 832.677 499.1 837.587 510C850.86 539.466 865.302 576.113 861.441 608.003C860.883 612.612 855.592 643.41 862.657 642.456C866.421 641.948 868.127 606.06 868.682 601C872.503 566.219 897.084 537.819 913.86 508C918.214 500.261 932.883 481.566 926 474C911.629 505.664 892.436 544.629 870 571C870.641 537.3 874.828 503.706 875.96 470C876.081 466.395 877.782 433.174 871.634 439.649C867.021 444.507 870.034 465.221 869.997 472C869.875 494.352 866.054 516.754 866.001 539C865.98 547.779 868.76 561.832 863 569M1251 448C1262.78 456.017 1243.47 476.147 1249.2 455.011C1249.83 452.673 1250.48 450.367 1251 448M567 575C557.982 553.999 524.248 561.607 511.862 548.958C508.095 545.112 511.588 532.735 512.36 528C513.606 520.366 510.918 508.91 516.683 502.741C526.076 492.691 551.496 485.112 555 471C540.194 473.751 528.041 489.835 515 497C516.837 485.712 517.667 474.548 516.938 463.001C516.825 461.224 513.866 451.324 510.803 455.892C503.321 467.047 518.301 489.629 507.396 501.296C493.375 516.297 468.688 523.892 452.005 536.022C448.976 538.224 436.002 544.972 436.003 548.861C436.003 552.628 448.518 551.417 451 551.416C462.558 551.409 490.981 548.443 500.458 555.384C508.288 561.118 494.34 586.736 502.752 592.592C507.879 596.162 506.277 557.389 513.107 556.2C532.719 552.786 548.526 574.447 567 575M1945 468C1949.08 476.611 1967.57 479.839 1975.96 482.817C1999.62 491.212 2033.32 499.247 2048 522C2009.69 506.963 1978.19 525.688 1940 521.68C1928.45 520.468 1921.52 512.34 1911 510.126C1907.92 509.476 1902.24 512.195 1903.97 516.183C1906.14 521.177 1931.49 526.093 1937 526.679C1960.64 529.197 1982.67 520.259 2006 519.078C2018.01 518.471 2027.62 523.026 2039 525C2022.08 540.535 1993.28 546.193 1974 559.562C1971.39 561.373 1955.86 567.871 1955.98 570.94C1956.24 577.099 1976.97 564.024 1979 562.783C1998.06 551.123 2018.16 542.026 2038 531.862C2043.86 528.859 2055.44 527.661 2059.75 522.865C2062.58 519.711 2039.92 506.817 2036 503.876C2011.3 485.356 1975.53 473.134 1945 468M1522 517C1523.58 521.479 1526.8 524.826 1529 529C1516.78 530.165 1507.48 533.264 1495 531.479C1493.25 531.229 1486.17 530.159 1486.79 533.783C1487.38 537.287 1502.96 537.856 1506 537.959C1526.76 538.669 1547.51 538.186 1567 547.491C1585.35 556.252 1605.78 570.862 1621 584.328C1624.6 587.515 1634.8 602.022 1639.4 601.813C1652.15 601.235 1631.15 584.092 1629 582.162C1613.44 568.199 1590.01 549.184 1570 543C1588.62 538.287 1609.79 551.197 1625.78 559.4C1628.11 560.594 1641.65 568.112 1642.04 561.097C1642.33 555.812 1609.08 546.293 1604 542C1628.96 542 1659.65 536.746 1684 530.992C1687.53 530.16 1720.1 523.73 1710.7 519.878C1704.13 517.179 1690.42 524.661 1683 524.957C1656.32 526.022 1630.71 535.834 1604 536.838C1596.68 537.113 1590.33 532.498 1583 532.081C1566.37 531.134 1555.41 536.095 1541 525C1551.07 520.96 1561.89 521.269 1572 517.899C1587.45 512.752 1600.91 503.862 1617 499.804C1618.75 499.362 1644.08 494.814 1637.35 490.522C1631.83 486.997 1609.48 496.797 1603.32 499.125C1582.03 507.175 1543.57 527.094 1522 517M184.84 496.824C194.493 490.603 240.778 514.528 232.841 520.795C227.004 525.403 191.583 537.078 184.824 533.138C182.309 531.672 182.349 498.43 184.84 496.824M1638 505L1639 506L1638 505M509 507C507.847 515.695 510.462 543.078 503.204 548.714C500.06 551.156 491.688 547.72 488 547.321C475.013 545.914 462.048 546 449 546C459.58 530.836 491.557 512.572 509 507M1924 514C1925.99 514.957 1927.84 515.503 1930 516C1927.91 514.645 1926.49 514.271 1924 514M865 571.333C865.889 571.333 865.889 572.667 865 572.667C864.111 572.667 864.111 571.333 865 571.333M930 773C918.138 798.367 933.144 832.994 924.499 858.759C922.204 865.596 906.058 868.089 901.023 875.019C884.108 898.298 874.566 925.119 873.078 954C872.196 971.119 878.251 1029.19 907.999 1018.6C920.089 1014.3 924.041 999.178 926.275 988C931.978 959.471 930.031 931.758 929.04 903C928.738 894.228 923.474 864.426 937 868C935.714 870.019 934.815 871.756 934 874C973.844 861.39 963.187 919.74 971 940C976.085 935.49 974.299 924.235 973.682 918C971.767 898.628 971.574 884.336 954 871.935C948.577 868.108 931.869 864.976 930.247 858.495C923.88 833.051 942.343 796.908 930 773M1484 886C1491.6 878.66 1494.39 865.379 1501.34 857.008C1527.39 825.622 1566.71 799.156 1609 799.156C1633 799.156 1662.13 807.681 1679.85 824.293C1686.84 830.854 1696.19 845.278 1690.56 854.999C1679.21 874.618 1657.61 892.47 1642.23 909.04C1636.1 915.635 1632.74 926.53 1624 930.219C1603.94 938.68 1574.53 934.87 1553 936.783C1535.07 938.375 1487.81 939.894 1486 914L1484 914C1484.64 931.818 1501.95 936.839 1517 940.083C1550.88 947.385 1589.16 936.251 1623 935C1606.95 967.306 1557.91 991.933 1551 1028C1559.22 1024.42 1564.37 1011.76 1570.25 1005C1588.16 984.422 1606.27 952.01 1627.52 935.815C1633.39 931.338 1647.85 932.207 1655 931.96C1674.29 931.293 1693.66 928.785 1713 928C1728.36 927.376 1743.83 919.709 1759 920.487C1762.18 920.65 1772.3 927.958 1773.48 923.646C1775.24 917.193 1769.61 908.498 1766.91 903C1756.67 882.103 1737.46 866.314 1720.88 850.64C1659.62 792.731 1578.57 774.427 1514.86 839.999C1501.12 854.143 1486.86 865.053 1484 886M1692 833C1697.99 836.759 1703.85 843.532 1695 848C1694.35 842.967 1691.85 838.049 1692 833M1767 919C1751.17 914.417 1738.73 921.352 1723 922.889C1692.72 925.847 1662.32 927.176 1632 930C1647.5 906.562 1667.68 885.675 1686.86 865C1691.12 860.414 1699.97 845.014 1706.67 844.302C1712.14 843.721 1721.52 856.095 1725.32 859.64C1743.93 877.02 1761.71 893.501 1767 919M114 1029C116.53 1016.3 137.286 1002.02 147 994C155.073 1013.86 176.637 1033.27 192.259 1047.68C193.993 1049.28 213.046 1063.43 213.046 1058.98C213.046 1056.42 198.352 1047.98 196 1045.87C185.368 1036.3 149.59 1006.77 149.931 991C150.1 983.153 165.837 971.514 170.278 965C185.256 943.029 203.955 907.161 204.981 880C205.54 865.23 202.381 847.018 183 848.065C143.125 850.218 122.925 914.583 128.278 947C130.633 961.264 141.652 975.348 143.171 988.981C143.872 995.264 101.545 1025.36 114 1029M146 987C134.357 945.883 124.304 916.418 149.629 877C156.376 866.498 176.744 847.582 190.999 853.493C207.696 860.416 202.135 882.105 197.441 895C185.221 928.569 174.023 962.621 146 987M449 870C456.522 888.079 482.804 908.444 496.68 922.32C500.992 926.632 513.747 935.73 514.045 942.04C514.992 962.081 478.41 991.748 467.605 1007C463.703 1012.51 453.227 1023.49 456.129 1030.85C458.974 1038.07 480.467 1037.28 487 1036.67C512.603 1034.27 543.892 1042.72 567.783 1032.26C570.843 1030.92 584.55 1033.22 584.677 1032.63C585.489 1028.86 576.277 1027.35 574 1027.29C562.387 1027.02 550.887 1032.01 539 1032C527.998 1031.99 517.039 1031 506 1031C490.946 1031 472.595 1028.87 458 1032C469.748 999.599 511.778 977.338 517 943C537.616 956.647 558.472 982.729 572.443 1003C578.703 1012.08 585.219 1028.79 594 1035C593.348 1010.55 557.75 977.338 541.96 961C536.391 955.238 526.355 948.555 523.282 941.04C521.062 935.611 531.279 925.765 534.218 921.439C546.477 903.393 561.64 877.108 579 864L579 870C580.235 867.964 584.85 858.646 581.371 857.097C578.648 855.885 559.665 864.985 554 864.999C518.866 865.085 483.944 870 449 870M925 866C924.255 887.006 923.497 908.013 925.68 929C926.884 940.579 926.677 953.386 925.864 965C924.562 983.596 909.7 1040.3 886.379 1003C867.806 973.294 877.25 924.431 892.805 895.864C900.43 881.861 908 868.883 925 866M569 867C562.698 885.762 542.691 903.896 531.184 920C528.445 923.833 522.392 935.767 516.823 935.214C501.872 933.732 481.549 899.815 470.96 889.783C468.619 887.565 457.277 878.559 459.536 874.685C461.656 871.051 482.604 871.189 487 871.04C514.398 870.112 541.752 869.646 569 867M2085 1006C2076.76 1008.51 2071.29 1016.25 2063 1018.57C2048.48 1022.63 2039 989.143 2043.59 979.265C2046.06 973.942 2059.98 967.842 2065 964.298C2084.5 950.524 2103.64 927.13 2092.99 902C2090.76 896.73 2087.92 888.373 2081.86 886.502C2052.97 877.596 2041.02 928.78 2039.98 948C2039.7 953.221 2041.36 969.426 2036.7 972.146C2010.37 987.493 1971.46 964.757 1950.01 990.078C1937.51 1004.84 1930.07 1057.53 1962 1055.73C1974.01 1055.05 1985.78 1040.38 1991.48 1031C1992.5 1029.32 1999.98 1017.25 1995.91 1016.32C1993.1 1015.68 1988.72 1027.01 1987.5 1029C1981.69 1038.46 1967.98 1056.45 1955.05 1049.97C1930.12 1037.48 1945.94 987.915 1969 982.917C1984.4 979.578 2001.31 982.614 2017 980.661C2022.14 980.021 2031.62 975.884 2036.5 977.965C2050.49 983.941 2032.6 1031.33 2065 1022.12C2068.66 1021.08 2071.95 1019.02 2075 1016.8C2079.15 1013.77 2082.58 1010.53 2085 1006M2078.91 889.771C2090.73 888.131 2091.14 912.966 2090.98 920C2090.58 937.8 2067.07 968.492 2048.15 970.454C2039.71 971.328 2043.69 947.511 2044.15 943C2046.26 922.238 2055.44 893.028 2078.91 889.771M1161 943C1166.64 935.007 1161.17 923.124 1168.56 915.839C1191.04 893.709 1240.15 926.34 1264 932C1249.37 956.564 1236.01 982.199 1221.63 1007C1212.14 1023.36 1199.91 1038.21 1195 1057C1216.06 1061.14 1234.66 1061.43 1256 1060.98C1269.94 1060.69 1284.15 1055.94 1297 1050.93C1330.07 1038.04 1342.02 996.269 1320.2 968C1298.02 939.265 1253.38 920.474 1219 911.483C1188.7 903.559 1155.43 900.878 1161 943M1266.38 936.051C1273.86 932.778 1292 948.769 1298 952.312C1334.35 973.792 1338.53 1028.75 1296.78 1047.36C1275.76 1056.74 1248.7 1058.48 1226 1057.98C1221.43 1057.88 1205 1057.09 1202.92 1052.4C1200.39 1046.7 1209.4 1031.77 1212.47 1026.9C1225.94 1005.48 1239.44 984.085 1251.86 962C1254.89 956.606 1260.96 938.42 1266.38 936.051M1935 1183C1926.04 1207.43 1918.79 1232.53 1909.86 1257C1896.79 1292.79 1878.72 1329.65 1892.96 1367.98C1896.54 1377.62 1905.1 1387.46 1911.88 1395C1975.12 1465.41 2053.58 1362.13 2067.17 1300.03C2069.4 1289.83 2045.69 1293.74 2040.14 1295C2014.55 1300.76 1987.26 1309.42 1961 1310.92C1957.16 1311.14 1938.42 1314.56 1936.64 1310.31C1934.76 1305.81 1959.35 1283.07 1963.14 1279C1991.53 1248.49 2028.56 1225.4 2047 1187C2036.08 1186.65 2027.94 1210.46 2020.78 1217.44C1997.07 1240.57 1971.47 1262.08 1949.66 1287C1941.96 1295.8 1929.95 1304.75 1926 1316C1961.07 1316 1994.06 1310.61 2028 1302.55C2038.43 1300.08 2051.41 1301.49 2061 1297C2062.01 1313.16 2045.46 1338.61 2037.18 1352C2011.92 1392.85 1960.85 1444.95 1916 1393C1909.91 1385.94 1903.03 1378.42 1898.89 1370C1877.89 1327.28 1909.54 1273.33 1923.62 1233.08C1928.26 1219.82 1939.7 1197.1 1935 1183M791 1321C808.224 1324.75 831.502 1319.5 849 1317.68C855.675 1316.99 868.646 1314.52 874.577 1318.38C895.289 1331.87 873.26 1386.03 913 1382.9C937.388 1380.98 970.249 1346.25 979.496 1326C981.515 1321.58 993.65 1302.95 988.412 1299.34C983.495 1295.95 969.524 1299.57 964 1300.56C944.051 1304.15 924.094 1305.88 904 1308.23C898.132 1308.92 888.879 1314.05 883.284 1310.72C877.99 1307.57 880.173 1297.2 879.559 1292C877.388 1273.6 873.377 1254.5 873.019 1236C872.935 1231.67 877.884 1213 870.199 1213C866.226 1213 855.876 1237.78 853.752 1242C837.905 1273.5 812.126 1294.78 791 1321M609 1320C623.229 1305.77 615.175 1257.39 612.639 1239C612.162 1235.53 610.751 1214.81 607.863 1214.32C603.979 1213.67 602.707 1221.64 601.605 1224C596.597 1234.72 587.365 1242.36 579.688 1251C546.747 1288.07 518.116 1328.48 482.992 1364C472.916 1374.19 462.67 1385.63 450 1392.65C448.526 1393.46 436.089 1395.96 440.211 1399.45C448.342 1406.34 473.185 1380.44 477.96 1376C510.734 1345.52 548.588 1306.4 572.586 1269C579.757 1257.82 590.098 1249.75 597.617 1239C598.72 1237.42 603.056 1228.42 605.818 1231C610.106 1235 607.766 1247.71 608.136 1253C609.575 1273.55 604.473 1300.65 609 1320M869 1228C869 1245.91 870.477 1265.35 873.698 1283C874.903 1289.6 878.538 1305.55 874.678 1311.5C871.66 1316.15 863.854 1312.21 859.438 1313.06C844.716 1315.9 816.428 1320.14 802 1317C818.888 1300.67 837.421 1279.27 849.779 1259C854.782 1250.79 859.936 1231.66 869 1228M1363 1341C1378.66 1352.35 1397.43 1304.93 1381.06 1293.28C1370.41 1285.71 1360 1299.19 1353.9 1306C1339.6 1321.98 1330.37 1357.17 1331.4 1379C1331.67 1384.89 1332.51 1398.06 1339.14 1400.3C1350.28 1404.08 1368.84 1383.2 1374.15 1401.08C1377.53 1412.46 1365.7 1422.59 1356 1425.08C1335.06 1430.44 1303.37 1435.38 1284.03 1423.13C1262.58 1409.55 1275.97 1362.29 1283.01 1344C1294.91 1313.09 1301.77 1295.5 1325.19 1271.3C1333.83 1262.39 1341.11 1250.52 1354 1246.67C1369.3 1242.1 1383.97 1247.31 1399 1249C1381.67 1227.54 1340.65 1243.45 1326.8 1261.01C1317.57 1272.7 1304.85 1281.72 1296.37 1294.03C1277.68 1321.14 1263.88 1374.31 1269.32 1407C1275.56 1444.59 1356.6 1442.81 1375.36 1417.99C1381.25 1410.19 1381.49 1396.16 1372.9 1390.09C1364.32 1384.02 1344.2 1401.12 1339.04 1393.26C1328.38 1376.99 1343.56 1325.04 1354.81 1312C1359.63 1306.42 1366.04 1294.97 1375.13 1295.88C1396.85 1298.07 1374.06 1337.24 1363 1341M1642 1312C1643.56 1297.57 1635.25 1275.81 1620.56 1270.84C1612.71 1268.19 1604.53 1270.82 1597 1268.91C1575.68 1263.51 1561.78 1254.68 1540 1267.55C1533.3 1271.51 1526.52 1277.4 1523.98 1285C1519.88 1297.26 1522.24 1313.22 1521.98 1326C1521.6 1344.94 1517.01 1361.43 1523 1380C1538.66 1342.43 1502.3 1264.72 1568 1264.03C1576.38 1263.94 1584.09 1267.67 1592 1270C1583.53 1277.76 1575.71 1284.27 1570.46 1295C1553.96 1328.71 1600.86 1361.82 1615.79 1323C1618 1317.26 1616.27 1306.23 1615.76 1300C1614.87 1289.24 1606.5 1282.65 1603 1273C1625.92 1273.01 1645.45 1297.96 1634.28 1321C1626.64 1336.75 1606.48 1347.27 1594.01 1358.87C1587.07 1365.32 1580.07 1372.42 1586.24 1381.98C1600.78 1404.51 1619.81 1380.62 1628.86 1368C1639.13 1353.66 1633.44 1336.4 1640.2 1323.01C1653.73 1296.2 1686.39 1269.66 1707 1248C1697.66 1246.81 1690.44 1257.47 1685.34 1264C1672.4 1280.56 1658.36 1298.68 1642 1312M1595.88 1274.79C1601.03 1274.9 1604.52 1283.22 1606.74 1287C1613.76 1298.92 1615.21 1338.47 1593.96 1337.78C1558.02 1336.62 1569.35 1274.26 1595.88 1274.79M83 1309C88.7931 1308.45 100.643 1302.89 105.595 1304.13C114.297 1306.32 108.574 1331.66 107.059 1337C100.988 1358.39 82.9018 1376.54 78.345 1397C76.1458 1406.87 77.9473 1420.19 89.0102 1424.24C136.392 1441.58 159.025 1396.89 175.14 1362C180.987 1349.34 189.42 1319.18 180.958 1306.11C166.144 1283.22 132.123 1305.49 113.137 1298.44C102.071 1294.33 103.026 1275.52 86 1278.72C69.2291 1281.86 78.829 1298.81 69.7152 1303.18C64.3803 1305.74 31.6637 1297.26 30.4259 1304.32C29.7962 1307.91 47.3907 1307.55 50 1307.78C56.0366 1308.33 67.4185 1306.62 72.6195 1309.4C79.7101 1313.17 80.0001 1326.17 86.1039 1331.71C101.32 1345.53 85.3285 1313.12 83 1309M87.0488 1283.41C93.3518 1282.38 108.91 1289.97 103.652 1298.32C101.512 1301.71 91.7446 1303.16 88.0009 1303.69C74.8502 1305.56 77.7784 1284.92 87.0488 1283.41M146 1300.56C177.135 1293.92 177.487 1318.04 176.981 1340C176.391 1365.6 148.59 1415.4 122.864 1419.76C117.435 1420.68 111.503 1420.97 106 1421C56.3693 1421.27 102.306 1367.58 110.357 1346C113.926 1336.43 115.18 1326.13 114.989 1316C114.943 1313.54 112.258 1306.1 114.076 1304.4C117.171 1301.49 140.417 1301.75 146 1300.56M985 1303C972.099 1331.74 959.709 1351.09 932.32 1368.4C925.878 1372.47 917.885 1380.5 910 1380.79C891.2 1381.47 889.68 1348.85 885.728 1336C884.538 1332.13 879.425 1320.72 882.356 1317.08C884.732 1314.12 903.622 1313.2 908 1312.69C933.441 1309.71 959.434 1303.91 985 1303M148 1304L148 1306L155 1306C152.623 1304.48 150.819 1304.16 148 1304M83 1316C85.5479 1319.47 87.4543 1322.98 89 1327C84.644 1325.05 82.1698 1320.77 83 1316M1635 1329C1634.68 1345.9 1625.05 1381.33 1606 1386.34C1596.31 1388.88 1583.97 1379.52 1589.5 1369.15C1594.35 1360.07 1607.92 1352.34 1615.96 1346.13C1622.68 1340.95 1627.66 1333.16 1635 1329M1188 1337C1189.75 1337.64 1191.13 1337.86 1193 1338L1193 1336L1188 1337M146 1400L147 1401L146 1400M141 1404C138.773 1406.28 136.647 1408.27 135 1411C138.148 1409.28 140.496 1407.68 141 1404M1227 1663C1222.17 1668.27 1184.14 1694.62 1195 1699C1198.27 1691.06 1225.51 1665.41 1234.78 1665.62C1238.75 1665.72 1239.7 1671.47 1244 1672C1243.73 1666.01 1255.01 1666.04 1257.1 1670.5C1259.52 1675.65 1256.13 1685.4 1256.02 1691C1255.64 1709.77 1257.86 1728.82 1254 1747C1261.2 1745.31 1262.88 1737.51 1266.86 1732C1277.38 1717.42 1287 1701.9 1298.46 1688C1300.89 1685.05 1312.58 1673.5 1311.24 1669.64C1309.61 1664.93 1298.56 1667.7 1295 1667.48C1274.19 1666.19 1261.9 1667.19 1267.4 1643.14C1269.24 1635.1 1279.28 1626.76 1284.76 1620.86C1296.91 1607.8 1308.27 1593.4 1318.71 1579C1320.56 1576.45 1335.86 1559.75 1333.36 1558.5C1328.63 1556.12 1320.96 1566.92 1318.24 1569.68C1307.4 1580.68 1291.49 1598.95 1276 1603C1281.88 1575.62 1281 1546.97 1281 1519C1274.26 1521.67 1277.02 1534.9 1277 1541C1276.94 1559.85 1277.66 1587.32 1271.03 1605C1265.39 1620.03 1223.82 1638.12 1209.57 1645.16C1206.92 1646.46 1190.07 1655.31 1191.37 1657.36C1194.48 1662.33 1220.68 1661.02 1227 1663M2077 1743C2069.98 1734.52 2054.89 1733.79 2045 1730.53C2003.33 1716.77 1927.91 1711.69 1939.1 1650C1940.89 1640.15 1944.8 1632.14 1950.54 1624C1958.13 1613.23 1968.16 1607.02 1979 1600C1983.72 1613.32 1990.05 1626.11 1995.78 1639C1997.14 1642.05 1997.94 1650.8 2000.82 1652.44C2006.1 1655.46 2016.82 1645.95 2021 1643.49C2037.27 1633.88 2054.11 1627.43 2070 1617.1C2073.16 1615.05 2084.02 1610.93 2084.68 1606.93C2085.13 1604.19 2065.99 1597.6 2063 1596.75C2045.41 1591.81 2024.1 1593.98 2006 1594C2000.97 1594 1988.81 1597.77 1984.81 1594.72C1978.4 1589.84 1971.36 1566.83 1967.9 1559.01C1966.62 1556.1 1965.3 1546.98 1961.14 1547.43C1955.65 1548.02 1960.51 1557.42 1961.53 1560C1964.53 1567.56 1982.12 1587.07 1976.82 1595.59C1974.05 1600.04 1966.07 1602.07 1962 1605.42C1951.11 1614.36 1940.76 1626.29 1936.63 1640C1917.21 1704.35 1982.62 1718.79 2030 1730.74C2045.51 1734.66 2061.08 1741.49 2077 1743M1535 1650C1546.17 1638.93 1536.98 1630.95 1553 1638C1552.6 1635.69 1552.04 1634.1 1551 1632L1564 1632C1558.08 1669.47 1602.22 1685.31 1628.54 1661.14C1634.95 1655.24 1636.75 1640.25 1638 1632C1648.95 1640.06 1661.44 1660.36 1677.96 1655.57C1685.3 1653.44 1684.97 1641.01 1685 1635C1685.08 1618.63 1688.1 1599.13 1667 1592.65C1657.11 1589.61 1647.9 1597.37 1644.48 1606C1643.43 1608.66 1640.01 1618.95 1636.14 1618.22C1629.63 1616.98 1628.86 1604.05 1632.34 1600.19C1648.89 1581.86 1689.15 1579.08 1712 1578.04C1718.83 1577.73 1741.56 1579.94 1744 1573C1709.1 1573 1661.28 1570.97 1632.09 1593.87C1617.47 1605.33 1632.41 1613.55 1634.25 1625.18C1638.03 1649.07 1616.62 1666.18 1594.96 1665.09C1589.33 1664.81 1583.17 1667.77 1578.05 1664.71C1550.62 1648.29 1582.25 1630.22 1589.46 1617.92C1592.74 1612.32 1597.9 1594.57 1589.49 1591.14C1574.86 1585.19 1570.04 1618 1564.76 1624.18C1560.22 1629.49 1550.81 1622.53 1545.37 1624.24C1537.49 1626.7 1535.43 1643.21 1535 1650M974 1588L975 1589C958.174 1611.6 944.635 1637.23 927.702 1660.32C923.923 1665.47 913.145 1682.6 905.823 1681.88C894.836 1680.79 881.28 1667.74 871.997 1662.16C846.696 1646.95 819.574 1634.94 794 1620.17C789.826 1617.76 762.144 1597.35 759.027 1600.31C756.357 1602.84 769.549 1613.15 771.259 1614.94C785.932 1630.31 799.836 1646.02 815 1661.01C830.711 1676.54 847.596 1691.04 864 1705.81C867.212 1708.71 876.755 1720.36 880.863 1720.36C891.491 1720.34 898.545 1686.18 911.003 1691.9C928.881 1700.1 947.779 1714.39 964 1725.65C967.197 1727.87 978.022 1738.56 982.031 1736.56C985.199 1734.98 956.228 1715.34 952.783 1713.22C945.393 1708.67 913.614 1693.98 912.197 1685.47C911.614 1681.97 922.132 1674.42 924.414 1671.96C936.669 1658.76 946.528 1643.18 957.622 1629C966.776 1617.3 971.089 1603.01 977.782 1590.05C978.792 1588.09 986.887 1582.11 984.894 1580.15C980.964 1576.29 966.213 1587.1 962 1588.59C945.611 1594.42 926.989 1600.04 910.001 1604.06C904.79 1605.29 892.051 1605.63 889.323 1611.07C887.242 1615.22 916.539 1607.79 920 1606.52C927.248 1603.86 934.585 1601.68 942 1599.58C952.774 1596.53 964.081 1593.3 974 1588M302 1668C284.316 1668.63 267.585 1665.19 250 1663.87C244.416 1663.45 233.85 1664.61 229.678 1660.4C224.74 1655.4 224.987 1644.41 222.04 1638C212.855 1618.01 196.783 1595.91 174 1590.86C141.083 1583.58 120.23 1613.46 111.581 1641C109.957 1646.17 111.301 1664.89 107.281 1667.52C93.8204 1676.34 63.0411 1656.75 53.3919 1674.32C47.7415 1684.62 67.6612 1706.43 75.0002 1711.8C77.4679 1713.6 85.6027 1720.22 88.8943 1717.72C91.5126 1715.73 82.0793 1711.3 80.9998 1710.6C74.9653 1706.68 45.857 1677.31 64.0111 1674.29C72.7209 1672.84 101.593 1670.08 108.396 1675.94C112.915 1679.83 115.339 1694.9 118.254 1700.86C127.549 1719.89 149.783 1741.64 173 1739.66C200.289 1737.33 219.204 1718.52 229.955 1695C232.444 1689.56 230.934 1670.26 235.508 1667.83C248.4 1660.98 296.737 1685.54 302 1668M1299 1593C1294.05 1608.56 1278.29 1617.55 1270 1631C1267.34 1614.43 1286.34 1599.79 1299 1593M226 1663C198.684 1663 171.281 1666.55 144 1668.08C137.128 1668.46 120.562 1672.43 114.822 1667.74C110.892 1664.53 113.259 1654.27 113.831 1650C116.111 1632.95 126.354 1611.11 141.008 1601.34C184.698 1572.19 216.01 1628.88 226 1663M1589 1594C1588.98 1608.33 1584.61 1623.87 1569 1628C1570.29 1615.4 1576.4 1599.05 1589 1594M1660 1597.47C1682.37 1593.45 1679.75 1621.26 1679.08 1634C1678.86 1638.16 1680.91 1649.79 1675.54 1651.42C1648.24 1659.68 1627.82 1603.25 1660 1597.47M2076 1606C2066.12 1622.29 2038.91 1628.18 2023 1637.02C2018.93 1639.28 2009.62 1647.23 2004.72 1645.07C1996.5 1641.45 1986.75 1608.67 1985 1600C2016.75 1599.4 2045.19 1597.58 2076 1606M1268 1617C1264.76 1640.52 1245.66 1659.1 1221 1657.13C1215.69 1656.71 1207.7 1657.18 1204 1653C1227.38 1647.97 1244.3 1623.9 1268 1617M780 1620C788.769 1618.67 802.661 1630.2 810 1634.7C833.047 1648.82 859.14 1657.75 881.32 1673.52C886.742 1677.37 897.883 1679.82 900.894 1686.18C903.651 1692.01 884.905 1713.8 878.32 1712.14C867.676 1709.46 856.022 1692.21 847.992 1685.01C838.774 1676.73 829.203 1668.86 819.981 1660.56C805.828 1647.82 792.782 1634.09 780 1620M568.019 1623.67C553.159 1627.16 550.446 1665.54 566.206 1668.68C569.561 1669.35 565.616 1660.89 565.258 1660C561.751 1651.36 555.526 1633.94 568.162 1628.75C575.968 1625.54 586.131 1636.4 589.796 1642C599.508 1656.85 596.534 1679.36 583.496 1691.51C573.212 1701.09 551.335 1689.95 543.303 1703.11C534.9 1716.88 540.95 1733.82 552.019 1743.81C555.314 1746.79 563.923 1749.26 565.341 1753.6C566.968 1758.57 553.61 1781.18 556.816 1780.68C567.676 1778.97 565.304 1760.13 572.021 1755.18C576.903 1751.57 594.741 1752.87 602 1750.03C632.44 1738.16 607.557 1712.21 584.01 1718.68C574.014 1721.43 570.658 1745.85 564.735 1745.58C555.312 1745.14 544.826 1730.86 544.518 1722.08C543.572 1695.17 564.208 1705.76 580.997 1698.48C590.072 1694.54 596.179 1682.92 599.26 1674C605.086 1657.13 590.928 1618.27 568.019 1623.67M143 1634C144.173 1636.16 145.155 1637.36 147 1639C146.986 1635.7 146.183 1634.84 143 1634M1261 1646C1264.47 1664.31 1252.96 1661.8 1240 1661C1244.33 1655.52 1254.99 1650.01 1261 1646M114 1675C141.958 1675 169.222 1671.23 197 1669.13C203.422 1668.65 221.004 1664.21 226.178 1668.39C238.071 1677.99 215.351 1715.06 207.838 1721.58C167.671 1756.45 121.687 1717.44 114 1675M1304 1673C1291.31 1690.95 1278.66 1716.79 1261 1730C1258.34 1716.23 1260.51 1698.01 1261.78 1684C1262.11 1680.44 1261.06 1671.96 1264.8 1669.86C1273.75 1664.86 1293.82 1673.75 1304 1673M586.003 1722.47C593.645 1720.75 617.291 1724.4 611.557 1736.98C608.017 1744.74 593.405 1748.7 585.68 1750.45C564.902 1755.17 573.774 1725.23 586.003 1722.47M2123 1970C2085.76 1980.24 2042.45 1980.54 2004 1982.6C1985.62 1983.59 1964.42 1983.1 1947.14 1991.04C1931.24 1998.35 1908.05 2036.69 1924.1 2053.06C1928.09 2057.12 1944.4 2058.14 1950 2057.94C1981.07 2056.88 1992.15 2004.72 2022 2007.05C2041.35 2008.56 2059.07 2030.32 2074 2041.06C2079.61 2045.1 2087.37 2053.56 2095 2052.25C2113.9 2049 2120.22 2007.51 2124.22 1992.56C2125.5 1987.81 2123.51 1980.65 2127.04 1976.78C2133.97 1969.18 2155.95 1973.83 2165 1974C2156.18 1960.51 2134.37 1976.97 2127.08 1968.16C2124.39 1964.91 2127.85 1954.01 2128.31 1950C2129.96 1935.68 2130.17 1893.33 2106.86 1894.5C2097.06 1894.99 2085.76 1914.35 2078 1920.44C2055.08 1938.42 2027.48 1950.79 1999 1956.68C1991.44 1958.24 1980.64 1963.53 1973 1961.06C1954.86 1955.21 1956.81 1941.31 1964.12 1928C1974.82 1908.5 1991.84 1892.25 2014 1887C2007.61 1880.78 1992.73 1888.96 1987.08 1893.52C1971.72 1905.91 1938.14 1940.53 1961.05 1959.5C1971.51 1968.16 1980.83 1964.99 1993 1963.43C2019.5 1960.03 2054.62 1946.46 2075 1928.94C2080.96 1923.81 2106.36 1897.64 2110.99 1900.13C2136.98 1914.16 2113.25 1952.25 2123 1970M1618 1993C1606 2017.86 1622.63 2068.78 1653 2073.32C1675.79 2076.73 1695.37 2035.12 1692.17 2016.2C1690.78 2007.97 1685.67 2025.05 1685.36 2027C1684.08 2034.96 1682.24 2041.74 1678.53 2049C1657.19 2090.73 1628.88 2053.9 1621.42 2025C1619.48 2017.48 1617.26 2001.23 1623.04 1994.74C1627.91 1989.28 1644.81 1991.32 1652 1988.92C1674.65 1981.34 1716.15 1965.03 1729 1944C1717.45 1943.18 1707.71 1956.75 1698 1961.74C1673.04 1974.57 1651.82 1984.31 1624 1988C1630.68 1975.8 1644.78 1969.41 1650.69 1956.96C1661.75 1933.68 1647.08 1894.43 1614 1905.32C1588.16 1913.83 1552.2 1959.42 1579.13 1984.7C1588.92 1993.89 1605.4 1992.99 1618 1993M1616 1909.49C1629.31 1906.94 1657.56 1920.58 1655.14 1937.14C1653.02 1951.64 1639.49 1963.24 1630.04 1973.01C1625.78 1977.42 1622.38 1986.41 1615.96 1987.72C1557.33 1999.6 1571.5 1918 1616 1909.49M863 1920.96C845.005 1927.22 852.689 1956.77 868.974 1951.67C884.284 1946.88 882.077 1914.31 863 1920.96M444 2001C465.571 2019.6 510.792 2015.48 537 2012C528.705 2036.7 497.72 2049.41 492 2076C499.65 2073.22 502.708 2063.21 507.388 2057C517.736 2043.26 530.853 2026.24 543.464 2014.64C550.331 2008.32 562.322 2009.68 571 2008.68C598.013 2005.57 615.97 2003.06 641 2013C635.699 1989.31 592.021 2000.58 576 2003.37C572.333 2004.01 556.811 2007.97 554.525 2004.18C552.493 2000.81 568.071 1986.34 570.475 1983.56C584.55 1967.3 607.82 1943.22 613 1922C583.209 1938.85 574.377 1990.98 542.997 2006.5C511.813 2021.92 474.662 1997.62 444 2001M868.949 1923.46C879.628 1924.82 875.058 1949.1 865.064 1947.35C851.878 1945.04 854.383 1921.59 868.949 1923.46M911.008 1925.88C895.564 1930.95 901.167 1959.48 917.992 1953.17C932.57 1947.7 928.305 1920.2 911.008 1925.88M913.022 1929.83C924.597 1925.45 926.088 1944.74 916.949 1948.37C905.628 1952.88 902.643 1933.76 913.022 1929.83M1314 1931C1320.69 1949.64 1349.13 1952.93 1356.82 1970.14C1359.1 1975.26 1351.35 1981.85 1349.1 1986C1343.58 1996.21 1342.35 2027.65 1326.04 2022.98C1304.73 2016.89 1295.75 1991.75 1278.36 1979.9C1244.55 1956.86 1173.79 1976.76 1171 2023C1184.06 2011.98 1189.02 1992.11 1206 1984.47C1230.88 1973.28 1257.16 1968.84 1279.88 1987.56C1290.19 1996.06 1296.74 2007.67 1306.99 2016.18C1314.27 2022.22 1328.48 2024.1 1333.86 2029.5C1340.94 2036.62 1333.89 2050.59 1346.02 2057.46C1361.23 2066.07 1379.06 2059.57 1395 2059C1393.81 2057.08 1392.57 2055.64 1391 2054C1407.21 2046.38 1407.32 2020.12 1400.6 2006C1398.19 2000.94 1391.64 1996.2 1390.57 1990.78C1387.83 1976.97 1409.81 1973.13 1401.69 1956.03C1390.6 1932.65 1372.2 1966.88 1360.43 1964.85C1343.59 1961.94 1330.39 1936.67 1314 1931M1365 1969C1368.28 1965.56 1372.08 1962.88 1376 1960.22C1378.89 1958.25 1381.84 1956.06 1385 1954.56C1405.88 1944.63 1397.8 1984.07 1384.74 1984.38C1378.53 1984.52 1369.19 1973.04 1365 1969M841 1972C848.964 1968.16 860.954 1986.85 865.966 1992.49C882.916 2011.58 900.322 2033.2 913.518 2055C916.797 2060.42 924.054 2077.95 930.766 2078.92C936.699 2079.78 937.716 2055.08 937.922 2051C939.053 2028.65 946.22 2007.55 944.217 1985C943.903 1981.46 945.878 1966.26 940.842 1965.43C938.383 1965.02 940.1 1997.83 939.96 2002C939.635 2011.63 937.512 2021.59 934.397 2030.68C930.302 2042.63 931.05 2060.33 931 2073C921.523 2064.78 916.207 2050.49 909.479 2040C898.515 2022.91 883.039 2003.37 868.476 1989.14C865.344 1986.09 844.724 1958.94 841.718 1960.74C840.083 1961.72 841.307 1969.94 841 1972M840 2096C847.025 2093.22 843 2077.45 843 2071C842.998 2045.31 841.168 2019.61 838.804 1994C838.287 1988.4 838.907 1969.05 832.736 1966.56C831.239 1965.96 833.689 1992.99 834.088 1997C837.347 2029.79 839.933 2063.09 840 2096M102 2026C112.316 1982.92 157.346 1958.73 199 1979.56C224.136 1992.12 239.722 2013.46 255.306 2036C263.689 2048.13 270.155 2061.54 277.972 2074C280.339 2077.77 281.606 2086.06 286 2087C285.386 2070.45 271.279 2051.98 262.201 2038.52C236.758 2000.81 195.791 1950.37 143 1969.77C129.131 1974.87 111.228 1987.47 104.588 2001.04C100.626 2009.14 100.383 2023.06 94.3966 2029.58C89.1801 2035.26 67.6936 2033.88 64.7612 2039.54C63.3339 2042.29 91.6122 2039.84 93.8284 2041.96C104.809 2052.45 105.786 2069.81 119 2080.68C138.069 2096.36 189.687 2086.85 194.657 2060C199.394 2034.41 182.972 1980.25 148 1993.24C128.538 2000.47 125.108 2022.37 102 2026M1343 2019C1344.6 2009.99 1352.26 1976.91 1363.3 1975.3C1369.02 1974.47 1383.24 1987.14 1380.13 1993.02C1374.07 2004.48 1355.09 2015.26 1343 2019M2115.85 1976.49C2123.36 1976.49 2118.98 1990.75 2118.3 1995C2116.23 2007.89 2109.71 2041.55 2095.91 2046.91C2088.7 2049.71 2079.25 2040.15 2073.99 2036.19C2058.63 2024.58 2041.37 2004.04 2021 2002.36C1983.36 1999.25 1975.66 2069.7 1930.41 2050.78C1909.38 2041.98 1938.32 1999.97 1950.04 1995.23C1987.49 1980.1 2036.35 1985.08 2076 1982.94C2089.26 1982.23 2102.56 1976.48 2115.85 1976.49M1386.02 1995.08C1399.61 1996.99 1402.01 2029.7 1398.33 2039C1391.04 2057.44 1370.43 2058.91 1354 2055.73C1342.55 2053.52 1334.48 2036.25 1342.14 2026.36C1349.56 2016.78 1364.34 2014.4 1373.8 2007.96C1377.45 2005.48 1381.05 1994.38 1386.02 1995.08M129 2018C134.611 2010.74 142.742 1999.11 152 1996.58C182.425 1988.29 194.022 2038.93 189.637 2060C187.152 2071.94 171.567 2079.01 161 2081.49C133.821 2087.89 106.858 2075.77 102.304 2046C100.476 2034.05 106.386 2025.57 119.716 2026.63C124.313 2026.99 124.232 2038.44 125.684 2042C129.347 2050.98 140.706 2060.44 151 2059.58C165.898 2058.34 174.998 2033.73 164.794 2023.14C155.092 2013.07 141.255 2018 129 2018M130.501 2023.04C154.395 2013.08 182.065 2043.5 152.997 2055.46C137.928 2061.66 118.378 2028.09 130.501 2023.04M238 2094C232.968 2082.37 227.116 2090.21 238 2094z"/>
</svg>
