<?xml version="1.0" standalone="yes"?>
<svg xmlns="http://www.w3.org/2000/svg" width="2200" height="2200">
<path style="fill:#0e0e0e; stroke:none;" d="M18 139C36.6214 91.4624 70.3775 68.0608 115 45.3579C133.686 35.8506 158.658 24.1462 180 24.0688C232.899 23.8772 277.935 45.3267 319 76L314 76C316.835 84.3218 325.126 90.2573 329.313 98.0806C339.379 116.89 347.238 143.582 348 165C362.25 122.936 318.718 65.1345 285.32 47.6001C255.425 31.905 214.373 16.5457 180 18.666C144.124 20.8792 101.952 44.8833 73.0186 65.0276C47.1151 83.0623 18 104.576 18 139M986 18C993.106 39.3621 944.076 41.1311 967.28 64.7974C970.309 67.8872 974.482 69.5537 978 72C959.641 76.012 921.133 82.4639 917 105L921 104L918 110L917 106C902.419 115.723 905.472 129.26 908 144C895.011 129.866 882.281 116.02 862 114.218C855.865 113.672 842.941 120.322 838.678 118.396C835.451 116.939 835.653 111.347 833.262 108.896C817.385 92.6138 818.121 83.3303 814 62C800.904 73.2615 818.662 93.2693 821.348 104C822.712 109.448 818.45 114.457 819.51 119.974C820.167 123.39 825.73 127.057 824.501 130.419C823.096 134.264 808.62 162.085 805.596 163.085C798.527 165.425 791.846 157.527 784.027 162.003C776.597 166.255 777.303 175.309 771.341 180.138C767.93 182.9 752.652 178.127 751.786 183.217C751.121 187.122 768.014 184.726 770.828 187.814C776.567 194.11 776.338 202.679 786.001 205.794C791.988 207.724 802.104 202.216 806.198 204.495C810.541 206.913 816.577 226.898 818.447 231.986C821.358 239.905 810.559 236.388 806.722 239.9C803.251 243.077 791.576 264.734 792 269C798.414 263.586 805.07 245.211 810.284 242.833C817.598 239.497 820.426 249.816 826.912 249.153C861.54 245.614 878.471 248.109 906 222C906 228.446 905.218 235.05 908 241L911 238C919.277 267.027 934.14 280.917 960.003 294.964C966.21 298.335 987.551 300.722 990.146 305.284C999.466 321.673 984.272 349.951 966.244 332.628C954.962 321.786 961.945 309.909 960 297C947.155 311.645 956.827 325.839 965.461 338.656C966.967 340.892 965.327 346.777 967.628 347.924C969.891 349.051 978.131 347.789 982 349C980.259 346.522 978.927 345.781 976 345C995.245 329.165 1000.44 327.934 993 301C1034.29 307.938 1057.83 273.398 1064 237C1060.42 238.673 1059.37 242.002 1057 245C1058 228.348 1057.2 220.21 1050 205C1053.67 206.625 1057.03 208.3 1061 209C1048.54 194.559 1010.71 182.175 992 182C1002.43 173.302 1020.93 173.037 1033 165.458C1058.37 149.525 1045.59 111.819 1030.42 93C1026.29 87.8745 1015.07 82.8105 1012.68 77.3652C1010.49 72.3994 1016.29 62.8792 1015.69 57C1014.64 46.687 995.08 18.1411 986 18M991 23C997.45 33.8337 985.353 32.0535 991 23M992 36.4072C1005.5 35.8528 1012.56 51.4048 1011.38 63C1011.05 66.2512 1010.17 76.8062 1005.55 76.9211C975.634 77.6653 947.457 38.2368 992 36.4072M529 141C498.255 125.22 466.756 103.091 437.136 84.7383C432.204 81.6824 411.959 64.1504 406.822 68.7637C397.091 77.502 414.048 99.2485 417.589 107C429.945 134.041 448.305 156.847 466.698 180C474.325 189.602 489.614 203.653 493.698 214.922C495.496 219.884 485.792 228.049 483.199 231.96C472.59 247.958 459.769 263.459 450.272 280C448.473 283.132 438.052 299.048 441.046 301.766C446.418 306.643 460.679 302.049 466.136 299.594C486.342 290.503 507.957 283.468 527 272C527.984 288.44 531.042 308.641 537.061 324C538.001 326.399 545.682 353.324 547.389 346.488C550.96 332.184 537.577 303.733 534.642 289C533.56 283.567 529.188 274.561 533.645 269.755C544.376 258.183 575.142 256.811 578.137 277.026C581.365 298.813 564.854 330.402 554 348C562.634 349.643 565.609 339.376 568.745 333C577.378 315.443 576.83 294.887 584 277C598.947 287.214 617.375 290.038 634 296.293C651.624 302.925 666.545 312.991 686 313C678.095 286.184 648.407 259.59 631.1 238C626.722 232.539 608.957 219.827 610.06 212.361C610.77 207.556 620.135 200.909 623.236 197.136C633.646 184.473 646.058 169.648 653.458 155C659.216 143.602 664.225 116.106 675 110C668.633 103.191 660.322 109.093 653.36 112.636C635.841 121.552 619.215 131.761 602 141.135C598.415 143.087 587.734 151.847 583.781 150.282C580.086 148.818 577.972 129.152 576.921 125C571.752 104.576 568.566 82.4834 560.312 63C558.643 59.0613 553.487 44.095 547.345 46.5439C540.283 49.3599 539.396 71.7595 537.32 78.3201C534.782 86.342 533.895 95.6572 532.72 104C531.001 116.202 529.006 128.673 529 141M550.019 53.6245C555.624 53.4036 559.332 76.3247 560.674 80.3201C567.355 100.213 578.876 131.944 577.377 152.979C576.982 158.524 567.238 165.169 562 165.626C556.383 166.115 550.884 158.723 547 155.516C523.785 136.349 537.406 109.675 541.974 83C542.712 78.6917 544.19 53.8542 550.019 53.6245M46 241C35.8387 224.731 35.2762 200.51 37 182C24.6687 188.199 30.9669 202.573 32.8637 213.078C39.0434 247.303 58.2741 263.735 83.0007 285.672C123.04 321.194 186.237 331.328 234.997 305.287C249.277 297.66 255.456 280.689 267.704 273.055C271.331 270.794 277.763 275.048 282 274.718C291.014 274.015 296.288 266.87 301 260C302.831 265.143 297.085 291.889 299.677 293.239C303.608 295.286 305.772 278.113 305.997 276C306.669 269.714 304.429 258.627 306.075 253.38C307.047 250.283 312.156 251.364 314.137 248.669C319.832 240.918 319.243 229.81 317 221C314.129 222.018 312.033 222.377 309 222C313.217 217.556 314.414 214.02 313 208C312.317 209.506 312.174 210.315 312 212C308.658 210.367 309.018 199.436 309 195L307 195C307.01 198.521 307.018 201.594 308 205C305.282 202.108 304.726 190.109 304.452 190.047C297.894 188.564 299.198 229.573 303 235C303.519 230.692 303.017 226.343 303 222C304.559 224.279 309.567 238.576 302.778 237.677C299.021 237.179 289.258 227.479 288.477 223.786C284.238 203.739 294.74 181.99 288.083 161C279.6 134.249 251.955 113.767 228 101.18C219.843 96.8943 208.9 96.0852 201.424 90.5952C196.575 87.0349 198.159 79.0728 195.874 74.0083C191.054 63.3215 178.811 63.699 169 65C178.264 54.5999 190.487 56.9502 203 57C191.077 41.7698 164.188 59.3271 159.858 73C158.046 78.7202 159.043 88.9692 153.577 92.7671C143.438 99.812 130.128 100.587 120 108.596C99.8155 124.557 79.4018 151.816 70.2787 176C66.1719 186.887 66.4641 199.206 62.2973 209.971C57.2703 222.959 46.0084 224.234 46 241M172.019 69.8215C182.026 65.8489 203.096 81.6262 192.472 87.4824C191.535 87.999 162.826 90.4653 162.848 90.478C157.106 87.1646 168.187 71.343 172.019 69.8215M410 73C438.597 82.5725 469.209 106.557 495 122.569C504.484 128.457 519.869 135.757 526.178 145.155C529.785 150.528 526.948 159.979 526.32 166C524.6 182.487 522.978 207.899 501.135 212.155C491.259 214.079 479.943 189.29 474.721 183.136C449.67 153.612 413.736 113.066 410 73M982 80C991.335 95.7012 1002.04 80.0278 1014 83.9937C1035.51 91.1238 1044.81 125.988 1042.84 146C1040.89 165.856 1014.02 169.155 999 173.829C996.052 174.747 979.036 177.311 979.643 179.08C981.101 183.33 988.474 183.169 992 184.04C1004.69 187.176 1016.47 192.805 1028.78 197C1057.51 206.787 1058.4 247.353 1047 271L1051 270C1045.16 280.966 1009.79 310.466 997 296C1008.25 292.406 1019.36 288.239 1028 280C1008.16 280.077 964.171 311.974 950 280L955 281C950.869 278.101 945.836 275.456 941 274L943 280C939.147 278.444 937.028 276.63 935 273L940 273C903.416 247.196 904.777 175.8 917.029 134.438C920.503 122.708 920.226 112.527 928.507 102.008C939.73 87.7524 957.256 97.7166 969 87C959.246 87.0044 949.745 88.9856 940 89C953.028 80.0449 969.686 77.9814 985 76.3228C988.827 75.9082 999.319 75.9688 1001.25 80.5493C1004.06 87.2415 983.484 80.6262 982 80M1208 137C1190.54 103.592 1239.02 67.3875 1264.07 101.008C1275.12 115.842 1280.31 135.251 1284.32 153C1285.54 158.377 1290.52 167.601 1285.4 172.182C1269.85 186.094 1236.64 174.006 1230.73 201.019C1226.16 221.911 1248.8 263.087 1272.67 242.651C1285 232.105 1284.13 205.185 1291 191C1297.97 220.638 1316.93 229.739 1345 225.121C1352.3 223.919 1364.15 221.903 1369.22 216.029C1378.69 205.057 1383.62 184.597 1388.52 171C1397.32 146.617 1408.21 123.672 1413 98C1404.55 105.366 1402.33 120.652 1398.78 131C1391.53 152.182 1384.24 177.036 1372.44 196C1368.12 202.93 1366.9 212.651 1358.97 216.551C1329.61 230.99 1296.49 217.907 1294.22 183C1293.08 165.442 1308.37 125.688 1319.5 112.028C1329.37 99.9185 1360.29 121.327 1359.84 123.647C1362.02 112.326 1330.73 97.1663 1322 102.864C1305.01 113.966 1298.82 144.682 1294 163C1276.67 141.286 1279.43 68.4856 1231 81.8792C1212.8 86.9131 1206.79 100.437 1202.56 117C1200.53 124.952 1197.51 135.003 1208 137M173 91.4976C190.751 87.7483 202.188 102.704 181 107.532C167.85 110.528 154.901 95.3203 173 91.4976M76 271C118.827 276.673 104.941 212.078 66 212C73.392 168.397 104.191 103.383 154.235 96.1462C160.513 95.2385 167.051 113.445 179 112.595C190.555 111.772 192.63 95.7693 200.555 94.3821C205.626 93.4946 214.942 100.472 220 102.033C247.834 110.625 282.591 139.584 285.775 170C287.161 183.234 290.968 210.796 283.396 222.517C278.04 230.807 267.528 227.597 263.658 240C257.963 258.246 270.11 269.54 254.471 285.481C212.998 327.754 106.746 328.75 76 271M930 95C927.571 98.2583 924.86 101.114 922 104C921.477 98.8015 924.968 95.2827 930 95M1911 103C1913.88 124.647 1927.47 98.0574 1940 100.492C1957.76 103.942 1967.25 128.989 1966.98 145C1966.53 170.849 1914.17 126.235 1918.24 162.864C1919.88 177.539 1937.87 194.223 1952.3 184.209C1956.29 181.436 1962.2 169.022 1966.77 169.227C1975.34 169.609 1993.84 195.738 1998.2 202.983C2002.26 209.721 1989.88 219.163 1986.52 225C1978.16 239.528 1970.12 258.888 1972.26 276C1975.22 299.773 1989.7 306.798 2006.39 287C2013.16 278.968 2016.8 263.827 2025 258C2025.74 290.097 2065.52 320.843 2082.43 280C2089.55 262.806 2090.72 205.851 2059 217.276C2051.05 220.139 2032.53 245.034 2026.6 243.919C2025.76 243.76 2010.03 212.266 2009.94 210.119C2009.71 204.355 2039.66 188.074 2045 185.348C2065.12 175.073 2082.4 160.248 2102.04 148.994C2116.97 140.438 2137.06 134.201 2150 123C2139.27 120.986 2128.25 129.548 2119 133.951C2090.04 147.745 2063.59 167.626 2036.04 183.978C2028.21 188.627 2015.98 202.49 2006.23 202.187C2001.03 202.025 1993.15 187.689 1989.64 183.864C1984.39 178.149 1971.75 169.417 1969.79 161.783C1968.61 157.157 1972.92 150.136 1972.97 145C1973.12 130.932 1965.9 113.939 1955.92 104.089C1948.34 96.6082 1938.11 94.3391 1928 97.6475C1920.78 100.01 1918.53 108.093 1911 103M1538 106C1536.34 117.179 1546.22 129.89 1551.52 139C1564 160.474 1578.06 179.378 1592.05 200C1596.87 207.103 1607.15 216.18 1609.76 224.121C1611.35 228.977 1600.18 234.947 1597 237.313C1581.76 248.656 1570.71 258.814 1588.02 274.775C1631.82 315.162 1729.22 324.202 1741.6 247C1743.46 235.379 1743.17 218.145 1733.76 209.622C1729.2 205.49 1710.88 198.256 1710.6 191.697C1710.39 186.815 1717.89 179.394 1720.43 175.32C1729.18 161.285 1738.98 149.88 1744.34 134C1745.33 131.043 1752.59 116.598 1749.36 114.911C1743.19 111.687 1731.09 124.989 1727 128.479C1712.17 141.138 1697.04 151.964 1681.14 163.247C1676.66 166.425 1670.28 174.639 1664.68 175.142C1655.11 176 1640.69 166.185 1632 162.61C1596.48 148.005 1569.94 125.754 1538 106M825.659 109.891C832.279 106.675 836.333 122.606 831.559 125.476C824.963 129.44 819.374 112.945 825.659 109.891M665 113C660.572 141.917 641.133 165.588 624.341 188.32C620.709 193.238 610.37 210.47 602.96 207.592C590.601 202.794 576.015 169.267 584.822 157.417C589.31 151.377 598.604 147.997 604.922 144.258C622.56 133.821 644.706 116.642 665 113M855 117.607C870.308 114.524 890.266 127.896 896.892 141C911.991 170.864 913.141 234.235 872 242.868C793.943 259.248 788.27 131.046 855 117.607M933 121L937 120C934.953 119.249 934.404 119.344 933 121M1662 180C1651.04 190.583 1638.53 199.34 1627.48 210C1624.55 212.822 1620.24 220.713 1616 221.215C1609.35 222.003 1599.15 202.697 1596.01 198C1579.83 173.8 1553.72 148.884 1546 120C1558.81 124.434 1569.73 136.561 1582 142.87C1607.92 156.192 1636.9 165.626 1662 180M1745 120C1738.77 140.686 1723.5 175.074 1705.48 188.175C1701.44 191.113 1673.15 182.669 1672.32 177.601C1671.57 173.017 1685.72 165.348 1689 163.284C1708.76 150.858 1724.7 130.725 1745 120M1587 135C1589.36 137.447 1591.02 137.434 1592 134L1587 135M905 148C905.52 150.361 905.843 152.588 906 155L904 155C904.05 152.487 904.181 150.372 905 148M533 149C538.174 152.535 554.714 162.01 555.679 168.443C556.553 174.269 533.83 187.047 529 189C529.838 176.864 528.842 160.415 533 149M1929.05 152.822C1948.53 144.889 1973.91 171.198 1946.97 181.606C1932.28 187.284 1912.41 159.598 1929.05 152.822M579 160C577.775 169.537 581.513 176.832 583 186C565.209 179.555 565.045 168.797 579 160M177 161.6C158.18 165.207 147.313 179.43 151.5 199C153.881 210.13 164.672 227.26 178 224.487C192.785 221.41 206.173 208.142 206.701 193C207.25 177.284 194.129 158.318 177 161.6M787.147 164.586C808.148 158.23 812.594 196.02 797.992 201.138C774.091 209.516 769.464 169.938 787.147 164.586M176 171C184.147 154.789 199.527 178.344 201.399 187C208.067 217.838 165.63 232.15 155.821 198C152.69 187.102 161.99 162.128 176 171M559.199 172.928C567.102 170.917 579.434 189.72 581.571 196C588.616 216.705 580.745 245.121 557 250.78C544.468 253.766 527.002 234.977 527.001 224C527 201.819 533.616 179.438 559.199 172.928M808 177C809.593 180.398 809.951 183.265 810 187L807 187C807.005 183.554 806.888 180.281 808 177M1280.85 179.487C1288.05 179.468 1283.82 192.807 1283.32 197C1281.89 208.751 1275.57 242.419 1261 242.916C1239.6 243.644 1229.35 212.483 1238.03 196.162C1243.24 186.356 1270.38 179.515 1280.85 179.487M1701 196C1694.12 203.62 1689.43 216.679 1682.34 222.956C1673.6 230.684 1653.86 231.089 1643 236.188C1639.35 237.899 1633.27 241.256 1629.16 239.999C1624.19 238.483 1619.56 230.251 1617 226C1643.84 207.25 1664.34 162.471 1701 196M1705.86 197.302C1709.39 196.762 1728.46 208.954 1725.89 212.182C1722.32 216.677 1699.11 221.187 1693.16 221.638C1685.78 222.196 1699.7 198.244 1705.86 197.302M588 198C599.434 209.417 603.677 216.212 587 226C587.012 217.747 585.751 205.722 588 198M554.008 200.948C538.31 204.785 536.567 238.005 556.992 232.927C573.647 228.787 571.351 196.708 554.008 200.948M523 230C519.122 228.854 503.64 220.507 505.106 215.46C505.898 212.731 519.304 200.415 521.781 202.408C526.346 206.081 522.207 224.401 523 230M555.992 205.106C566.019 203.054 566.625 226.441 555 228.19C541.768 230.18 545.952 207.161 555.992 205.106M304 208C307.072 211.951 307.925 215.042 308 220C304.58 216.624 302.63 212.803 304 208M2003.91 213.544C2010.81 214.335 2015.89 228.407 2017.32 234C2022.47 254.21 2017.44 266.458 2003.89 282.959C2000.09 287.578 1993.95 296.21 1987.04 295.287C1979.53 294.284 1978.66 284.896 1977.57 279C1974.49 262.201 1981.47 242.129 1990.4 228C1992.59 224.531 1999.15 212.999 2003.91 213.544M1730.93 215.741C1745.29 216.025 1733.21 260.173 1729.9 266.993C1717.47 292.566 1684.96 303.472 1658 302.981C1636.5 302.589 1615.27 292.261 1599 279.092C1594.83 275.715 1575.85 262.713 1587.15 257.567C1592.87 254.964 1623.45 246.849 1628 249.01C1634.75 252.216 1653.62 274.059 1661.56 270.584C1671.06 266.422 1676.23 240.796 1682.2 232.331C1688.21 223.799 1720.22 215.53 1730.93 215.741M70.0674 216.831C96.2404 215.149 112.866 264.357 84 266.892C66.9933 268.385 61.3142 247.68 62.0805 234C62.3913 228.45 62.959 217.287 70.0674 216.831M604.992 217.643C610.944 217.643 618.112 229.411 621.809 233.438C637.101 250.097 650.033 268.884 664.767 285.999C666.676 288.216 681.967 307.098 676.352 308.681C671.07 310.17 659.814 303.433 655 301.333C638.815 294.273 622.753 288.561 606 282.928C600.295 281.01 589.484 278.194 586.3 272.625C583.675 268.032 587.235 260.838 587.764 256C588.964 245.032 585.919 217.643 604.992 217.643M61 219C60.7823 221.76 60.2108 224.298 59.6548 227.004C55.0848 249.239 48.3443 223.718 61 219M499.019 220.087C514.925 216.023 532.848 254.936 525.699 266.444C522.677 271.309 512.989 272.726 508.136 275.276C492.148 283.677 474.253 294.041 456.003 296.628C442.807 298.499 452.219 284.726 455.447 279C464.085 263.676 476.824 248.568 487.019 234C489.752 230.094 494.071 221.351 499.019 220.087M2070.29 220.039C2079.46 221 2079.75 237.558 2080.08 244C2081.01 262.359 2081.23 297.519 2054 294.842C2038.98 293.364 2025.71 267.077 2027.96 253C2029.97 240.448 2057.19 218.665 2070.29 220.039M18 227C18 265.755 44.518 311.635 76.1362 333.246C84.9944 339.301 92.703 348.471 104 349C93.471 335.608 73.7983 330.124 62.3817 316.96C38.4782 289.396 31.8843 259.146 18 227M310.311 228.322C312.865 227.852 316.626 233.809 313.492 234.71C310.299 235.629 307.035 228.926 310.311 228.322M1585 253C1589.57 246.016 1604.19 234.258 1611.94 231.238C1616.26 229.553 1623.64 238.509 1622.94 242.549C1621.44 251.104 1591.66 252.474 1585 253M1679 229C1675.82 236.831 1667.73 260.678 1660.42 264.611C1655.55 267.233 1632.21 251.162 1633.08 245.479C1634.29 237.58 1671.85 230.268 1679 229M275.126 230.825C289.309 224.846 276.956 258.342 270.516 261.456C265.616 263.826 265.834 234.742 275.126 230.825M286.778 234.106C291.786 232.602 296.407 242.432 297.323 246C299.517 254.549 292.55 267.372 283.992 269.966C263.632 276.139 283.098 235.211 286.778 234.106M582 238C585.477 248.162 582.704 259.951 580 270C572.951 266.525 563.099 260.806 559 254C568.164 250.889 573.777 242.683 582 238M52 239C57.689 245.642 63.4467 253.198 65 262C57.9667 258.162 49.3667 247.465 52 239M529 239C544.556 253.42 555.709 254.208 531 265C529.035 258.19 525.155 245.266 529 239M825.144 241.094C827.625 240.339 829.083 244.116 826.528 244.906C823.958 245.701 822.399 241.929 825.144 241.094M311 242C309.723 243.897 309.177 244.259 307 245C308.45 243.392 309.051 242.936 311 242M348 243C343.607 255.414 340.781 273.053 333.924 283.981C310.817 320.811 253.453 347.172 211 348C252.389 362.022 301.561 321.078 328.562 295.816C339.407 285.669 353.208 258.473 348 243M187 256C187.482 258.364 187.636 258.518 190 259L187 256M940 273L941 274L940 273M957 281C960.445 282.889 962.502 282.738 966 281C962.965 280.212 960.109 280.72 957 281M976 295C974.494 295.683 973.685 295.826 972 296C973.506 295.317 974.314 295.174 976 295M981 394C980.186 390.58 980.833 388.28 982 385C976.075 386.457 975.368 391.4 981 394M99 427C99.7408 429.177 100.103 429.723 102 431C102.074 428.17 101.732 427.734 99 427M89 456C145.615 459.388 202.187 440 259 440C238.396 467.581 201.05 483.439 176 507.08C166.665 515.891 155.588 537.51 143.959 542.042C126.422 548.876 95.1509 528.924 80 542C98.2683 548.324 124.662 546.998 144 547C138.763 556.893 134.946 567.865 133.457 579C132.461 586.444 131.67 596.726 133.76 603.999C152.419 668.914 273.385 599.725 206.999 560.151C200.13 556.056 194.996 552.242 187 550.767C175.144 548.581 164.186 543.73 152 543C168.116 510.547 208.178 485.692 237 465.524C242.406 461.742 267.944 446.247 265.438 438.521C262.98 430.942 232.851 436.602 227 437.302C192.045 441.482 156.928 445.087 122 450C114.845 451.007 91.6745 449.25 89 456M1537 552C1531.92 549.342 1527.33 545.46 1523.75 540.96C1492.62 501.908 1556.6 480.37 1582.02 467.51C1588.64 464.158 1609.25 446.076 1616.24 448.517C1621.56 450.375 1620.73 470.381 1621.24 475C1624.29 503.023 1626.47 531.762 1626.98 560C1627.07 564.771 1623.63 591.263 1630.24 592.677C1632.07 593.069 1631.57 562.98 1631.65 559C1632.22 528.906 1625.72 498.682 1625.06 469C1624.96 464.257 1625.23 441.612 1619.4 440.238C1613.14 438.762 1593.48 453.781 1587.78 457.435C1565.67 471.612 1512.92 484.159 1510.17 517C1508.29 539.352 1534.22 546.081 1536.79 564C1538.9 578.643 1537 595.167 1537 610C1537 613.675 1535.35 623.039 1538.67 625.592C1542.78 628.748 1542 614.549 1542 613C1542 605.502 1536.86 568.32 1542.83 564.498C1550.85 559.359 1573.55 574.385 1583.56 572.141C1620.17 563.936 1594.09 510.329 1573.68 498.236C1536.81 476.391 1537 529.559 1537 552M1874 472C1886.74 489.689 1926.09 501.833 1946 509.943C1951.65 512.246 1967.44 512.651 1970.73 517.501C1973.54 521.635 1970.64 529.426 1970.22 534C1968.2 556.082 1957.97 561.517 1948.43 581C1945.83 586.323 1944.43 600.314 1940.18 603.74C1936.54 606.682 1916.88 600.797 1916.32 603.261C1914.77 610.086 1938.14 607.768 1940.6 611.685C1945.5 619.462 1935.17 636.919 1950.01 639.491C1972.61 643.407 1969.34 606.372 1975.86 596.156C1982.63 585.548 1999.7 576.639 1997.27 561.003C1995.13 547.232 1980.13 556.721 1975.54 550.38C1972.56 546.261 1974.4 523.611 1977.5 519.656C1980.01 516.458 1992.07 519 1996 519C2010.62 519 2035.03 523.775 2045.84 511.323C2058.9 496.279 2060.52 473.939 2044.9 460.541C2025.42 443.831 1991.72 462.766 1982.27 483.328C1979.86 488.59 1975.63 509.994 1969.85 510.68C1938 514.46 1902.98 480.988 1874 472M847 454C832.028 476.936 827.824 520.175 821.125 547.001C819.874 552.012 811.606 573.033 816.829 576.585C827.565 583.888 859.215 554.726 867.74 563.919C870.764 567.18 869 576.855 869 581C869 595.176 869.88 610.124 872.882 624C873.494 626.828 872.247 642.253 876.722 640.894C879.53 640.042 884.951 621.573 886.383 618C894.751 597.123 910.084 580.905 921.594 562C923.607 558.694 931.23 542.371 928.041 539.262C918.545 530.002 883.995 551.629 874 554C876.108 542.73 880.178 531.643 879.207 520C878.924 516.597 876.256 507.789 878.907 505.219C887.403 496.985 917.562 498.887 929 497.562C968.189 493.024 1020.38 489.459 1057 475C1043.16 470.312 1021.97 476.052 1008 478.798C978.199 484.657 948.232 490.777 918 493.904C907.926 494.946 879.305 493.621 872.082 501.252C869.471 504.011 873.704 513.444 873.924 517C874.599 527.88 873.479 543.783 868.539 553.713C863.594 563.654 830.564 569.995 820 573C821.057 543.564 836.116 511.076 842.332 482C844.284 472.871 851.036 463.26 849 454L847 454M2025 457.496C2058.17 451.578 2058.84 509.734 2030 514.594C2022.32 515.887 1984.05 517.842 1979.28 511.958C1976.2 508.16 1980.92 498.938 1982.22 495C1987.98 477.45 2006.4 460.815 2025 457.496M1292 532C1298.08 514.607 1298.97 498.715 1288.76 482.321C1275.9 461.672 1251.41 466.165 1240 485C1243.96 486.241 1247.86 487.58 1252 488C1244.55 476.217 1261.09 470.866 1271 473.763C1286.81 478.388 1304.3 520.969 1285.56 531.53C1279.88 534.733 1271.24 527.182 1266 525.416C1253.66 521.261 1237.14 526.501 1230.17 538.021C1222.96 549.931 1229.14 577.609 1245 579.473C1258.6 581.072 1274.75 561.958 1281.19 552.041C1284.86 546.405 1287.6 536.717 1295.79 537.129C1299.22 537.302 1308.35 567.292 1316.01 572.358C1337.95 586.88 1387.3 548.223 1395 529C1382 535.377 1372.72 546.598 1360.99 554.777C1351.92 561.104 1341.54 569.778 1330 570.825C1315.27 572.161 1301.51 552.166 1304.72 538.263C1305.77 533.704 1316.38 529.759 1319.98 526.876C1329.91 518.912 1359.25 475.552 1334.91 467.968C1311.11 460.55 1300.51 495.587 1299.96 512C1299.71 519.445 1301.34 531.325 1292 532M1303 531C1303.98 521.328 1303.78 511.704 1305.07 502C1306.34 492.386 1324.56 457.871 1336.83 475.246C1349.27 492.858 1318.47 526.477 1303 531M630 498C596.547 497.691 565.22 497.758 532 502.551C509.898 505.74 487.529 510.476 466 516.439C447.959 521.436 426.614 528.233 413.526 542.328C390.014 567.648 393.761 604.297 427 616.845C440.572 621.969 454.665 622.366 468 616.062C476.015 612.272 491.64 600.734 500.823 602.386C517.848 605.448 515.168 646.235 531.099 650.998C538.695 653.269 547.459 642.57 551.96 638.007C568.325 621.417 580.726 602.009 596.728 585.441C600 582.053 617.817 571.793 617.805 568.046C617.776 558.78 606.822 542.921 597 545.195C572.537 550.858 548.958 571.818 526 582.478C520.416 585.071 511.894 594.376 505.315 592.759C496.182 590.514 483.543 561.632 477.619 554.01C474.808 550.393 468.217 542.385 462.649 544.826C459.322 546.285 471.037 553.801 472.419 555.228C479.614 562.649 497.763 582.968 497.914 593.76C498.005 600.251 467.699 611.348 462 613.342C407.87 632.279 382.677 561.06 430.783 535.305C473.359 512.511 526.776 507.233 574 502.32C585.72 501.101 622.618 506.939 630 498M1551.05 499.685C1575.64 491.439 1589.19 519.83 1594.99 538C1597.78 546.755 1599.17 562.739 1587.86 566.396C1579.53 569.091 1547.26 564.374 1542.3 556.518C1539.28 551.735 1541.99 538.73 1542 533C1542.01 524.648 1541.5 502.888 1551.05 499.685M1252 528.638C1257.9 527.107 1283.59 533.388 1283.05 541.129C1282.21 553.171 1259.94 572.167 1249 575.048C1238.59 577.79 1233.68 564.088 1233.1 556C1232.07 541.713 1237.34 532.439 1252 528.638M923 543C920.523 564.79 900.227 584.654 888.984 602.758C884.983 609.2 883.247 619.707 877 624C877 607.794 866.182 574.803 875.26 560.402C881.884 549.893 911.444 544.491 923 543M150.184 548.822C157.741 545.531 166.978 550.916 174.04 552.987C187.26 556.863 200.712 557.658 211.603 567.635C226.932 581.677 222.007 609.062 204 617.077C183.97 625.992 157.066 629.892 141.564 609.941C133.378 599.406 136.119 554.948 150.184 548.822M613 568C588.712 577.474 573.768 610.132 555.997 628C551.446 632.576 539.943 648.252 532.317 645.975C527.724 644.604 526.115 636.816 524.452 633C519.191 620.929 511.446 610.013 506 598C528.745 589.941 552.374 575.048 573 562.444C580.155 558.072 591.663 547.413 600.898 548.968C607.276 550.042 611.33 562.641 613 568M1974 590C1975.38 580.749 1971.16 567.987 1974.5 559.501C1976.52 554.379 1988.98 555.522 1991.61 559.526C1997.57 568.602 1982.13 587.349 1974 590M1966.25 562.087C1969.82 561.025 1969.98 576.568 1970.16 579C1971.17 592.407 1966.85 600.854 1953.01 603.356C1940.24 605.664 1957.04 564.824 1966.25 562.087M1967.04 602.907C1971.95 602.481 1961.93 634.791 1952.03 634.791C1943.92 634.791 1944.53 616.197 1946.94 611.283C1948.74 607.603 1962.94 603.263 1967.04 602.907M1257 826C1250.58 834.041 1246.09 840.063 1248.47 851C1249.37 855.139 1255.42 862.809 1253.92 866.736C1249.24 878.915 1230.21 882.253 1230.12 899C1230.01 919.867 1256.87 921.131 1269.58 911.407C1288.42 897.002 1260.17 879.511 1263.23 867C1265.18 859.019 1278.54 854.503 1277.6 845C1277.08 839.767 1265.08 827.047 1266.69 824.088C1271.86 814.618 1295.75 798.213 1306 794.505C1311.71 792.438 1326.13 791.387 1328 785C1298.26 785.57 1286.73 808.485 1262.98 820.56C1254.66 824.791 1244.47 819.457 1235.01 825.531C1227.26 830.498 1217.75 847.436 1230.07 853.429C1230.99 853.878 1234.32 854.834 1234.36 852.849C1234.41 849.93 1229.42 847.757 1229.25 843.978C1228.59 829.897 1245.66 823.426 1257 826M546 883C535.666 872.401 543.777 862.245 551.829 852C566.046 833.91 586.47 815.41 598 796C570.549 805.961 551.815 844.054 536.72 866.922C531.377 875.015 515.859 868.667 508.346 878.538C495.809 895.008 509.303 911.63 512.885 927C516.499 942.508 510.039 955.767 526.027 968.558C563.813 998.788 608.979 946.507 603.446 908C601.91 897.314 595.695 879.831 587.511 872.561C572.509 859.231 551.256 863.793 546 883M1722 811L1722 809C1693.61 803.975 1666.39 814.542 1639.12 812.458C1632.24 811.931 1626.9 800.693 1619 798.742C1583.56 789.985 1542.31 800.093 1526.29 835.32C1515.08 859.986 1521.22 889.242 1533.33 912C1537.28 919.429 1549.98 932.884 1550.6 940.632C1552.04 958.773 1532.7 972.212 1539.41 993C1543.77 1006.52 1563.37 1026.63 1579 1023.65C1601.28 1019.41 1596.55 988.51 1591.24 974.001C1585.85 959.298 1566.04 953.745 1558.84 939.864C1556.61 935.554 1559.83 931.055 1561.26 927C1565.13 916.052 1563.57 895.643 1569.77 886.649C1572.31 882.966 1581.46 893.557 1584.02 895.021C1594.23 900.854 1616.66 905.788 1627 898.403C1643.58 886.557 1648.97 859.263 1647.88 840C1647.6 835.094 1638.78 821.745 1641.27 817.991C1643.97 813.938 1656.64 814.23 1661 813.68C1681.42 811.102 1701.94 814.631 1722 811M1632 817C1609.54 821.806 1568.93 832.073 1562.37 858C1560.26 866.312 1566.63 872.579 1567.16 880.217C1567.85 890.243 1562.76 907.276 1559.68 917C1558.62 920.344 1557.18 931.641 1553.42 932.894C1545.83 935.423 1532.83 899.857 1530.46 894.32C1515.68 859.83 1531.37 818.47 1566 805.505C1584.41 798.613 1623.91 792.639 1632 817M1908 963C1927.25 962.704 1941.29 926.191 1956 915C1963.15 941.942 1985.11 963.151 1985 992C1994.98 988.013 1995.74 965.459 1996.8 956C1999.62 930.767 2007.01 906.164 2009.76 881C2010.69 872.506 2006.6 857.502 2012.86 850.645C2016.89 846.23 2025.6 845.583 2031 843.422C2052.78 834.698 2078.07 832.435 2101 828.322C2106.03 827.419 2130.61 822.226 2131.68 816.791C2132.62 811.959 2122.36 816.009 2121 816.64C2108.83 822.283 2093.38 826.516 2080 827.875C2042.43 831.688 2007.51 846.418 1970 850.942C1957.31 852.472 1932.91 845.992 1922.34 853.265C1917.45 856.632 1922.61 865.443 1924.99 869C1931.54 878.792 1950.45 896.263 1950.07 909C1949.57 925.899 1916.98 949.113 1908 963M1571 872C1563.58 866.389 1567.74 853.18 1573.38 847.538C1582.91 838.016 1618.54 816.799 1632.78 820.313C1639.33 821.931 1642.65 835.31 1642.91 841C1643.69 858.102 1639.79 886.546 1622.86 895.499C1608.76 902.958 1562.02 887.576 1576.72 868.085C1584.56 857.682 1592.95 858.295 1601.22 866.981C1601.68 867.468 1607.24 873.23 1607.8 870.997C1608.86 866.786 1596.56 855.708 1593 854.694C1584.35 852.233 1572.42 864.495 1571 872M1258 864C1255.33 857.949 1245.81 828.22 1262.08 829.786C1283.37 831.835 1265.96 858.444 1258 864M874 974C890.302 964.707 902.759 945.036 917.565 932.937C921.438 929.773 929.95 920.512 935 920.84C947.846 921.676 956.446 938.262 968 941C966.475 929.937 958.6 910.148 964.338 899.303C973.988 881.06 1005.27 876.14 1014 857C1000.93 860.588 988.455 873.752 978 882.011C975.726 883.808 968.24 891.877 965.039 890.375C959.61 887.829 966.963 851.667 967.661 846C967.965 843.529 968.791 832.519 963.939 833.323C959.82 834.006 955.594 846.662 953.654 850.136C945.706 864.36 937.528 881.346 927.108 893.897C924.719 896.775 919.606 904.987 915.724 905.36C909.002 906.005 898.295 896.803 892.783 893.398C877.497 883.956 860.548 875.956 844 868.974C840.83 867.636 823.769 856.491 822.536 858.649C819.282 864.338 838.698 871.743 842 873.226C860.424 881.506 880.313 889.836 897 901.32C900.275 903.574 912.209 908.098 912.577 912.338C913.021 917.453 905.663 923.35 903.107 927.32C896.358 937.802 873.999 962.904 874 974M962 843C964.688 857.195 962.81 894.183 950.997 902.395C944.748 906.738 931.506 919.791 923.966 910.017C920.631 905.693 929.979 897.177 932.281 893.922C943.576 877.945 950.349 858.452 962 843M162 939C154.1 917.628 167.859 897.214 176.482 875C178.192 870.597 187.063 852.388 184.601 848.649C181.645 844.161 171.146 856.667 169 858.559C154.359 871.472 137.836 886.368 120.003 894.727C108.499 900.119 103.595 875.176 93.2062 877.283C88.7728 878.182 90.0009 887.885 90 891C89.9984 896.474 91.8408 906.097 87.4985 910.278C80.2964 917.211 60.9668 916.086 57.3297 926.388C53.9718 935.898 80.6668 941.287 85.4921 946.285C100.177 961.495 103.548 999.126 111.802 1019C113.227 1022.43 118.91 1040.45 122.478 1040.75C128.103 1041.23 128.875 1019.12 129.981 1015C135.343 995.015 141.81 974.718 147.876 955C150.366 946.904 152.403 939.67 162 939M2004 850C1996.81 866.431 1980.52 880.566 1968 892.993C1965.61 895.363 1958.39 905.315 1954.66 904.679C1949.32 903.772 1933.21 874.398 1929.6 869C1928.03 866.646 1923.41 861.05 1925.4 858.042C1928.53 853.308 1941.4 856.888 1946 856.981C1966.14 857.39 1984.33 853.012 2004 850M2006 857C2002.62 893.338 2002.72 942.604 1987 976C1979.35 960.354 1972.65 943.054 1965.44 926.997C1963.48 922.627 1957.44 915.075 1958.4 910.217C1962.07 891.601 1994.69 874.658 2004 857L2006 857M175 860C172.702 884.28 158.319 907.317 150 930C144.28 927.085 117.268 908.492 120.543 900.752C122.752 895.532 133.443 891.687 138 888.775C150.104 881.04 163.823 871.114 173 860L175 860M562.003 870.468C584.71 865.245 593.109 887.751 597.801 905C604.882 931.028 582.297 968.658 556 973.245C538.567 976.285 505.283 952.438 518.448 932.982C521.144 928.997 526.98 931.496 531 930.106C538.746 927.426 545.455 920.293 548.812 913C554.507 900.628 542.808 874.883 562.003 870.468M1256.84 871.282C1262.5 870.828 1266.06 880.97 1267.76 885.003C1273.57 898.834 1268.99 911.396 1253 912.994C1223.01 915.99 1236.65 872.901 1256.84 871.282M515 923C508.707 913.131 504.048 895.934 510.383 885.011C513.271 880.033 523.073 871.358 529.491 874.825C535.458 878.049 519.249 918.039 515 923M537 879C545.643 888.091 550.234 902.267 543.518 914C541.121 918.187 529.231 931.82 523.279 925.733C519.456 921.823 528.834 900.969 530.438 896C532.293 890.253 533.416 883.936 537 879M96 885C111.33 895.912 112.859 901.973 95 909C94.319 902.286 94.5905 891.583 96 885M959 903L960 930C940.948 921.96 933.021 909.561 959 903M150 937C139.973 941.975 98.0639 953.056 91.8996 937.742C86.7143 924.861 99.5015 902.698 114.783 905.639C123.396 907.297 144.871 929.549 150 937M929 916C925.939 923.996 910.231 936.166 902 938C906.727 928.998 913.864 921.716 919 913C922.338 914.362 925.42 915.505 929 916M88 917L85 940C58.3537 932.428 63.2501 922.335 88 917M145 943C144.197 963.353 134.491 986.803 127.818 1006C126.832 1008.84 124.285 1025.5 120.959 1024.92C116.59 1024.16 112.959 1009.76 111.753 1006C105.46 986.371 98.4494 966.87 93 947C112.102 947.364 126.781 948.273 145 943M1554 943C1573.14 952.035 1613.41 1001.56 1579.98 1018.62C1562.95 1027.3 1541.16 994.322 1542.15 980C1543.07 966.747 1550.99 955.508 1554 943M1541 1356C1547.96 1347.61 1551.15 1330.46 1555.22 1320C1563 1299.97 1572.96 1280.7 1585.12 1263C1587.95 1258.89 1598.91 1239.2 1603.36 1238.29C1607.68 1237.4 1624.99 1248.45 1624.81 1253.13C1624.46 1262.41 1603.84 1270.65 1600.23 1281C1587.79 1316.63 1622.44 1329.99 1645.73 1305.68C1656.37 1294.58 1652.76 1276.25 1644.64 1264.93C1641.67 1260.8 1634.13 1255.48 1634.72 1249.86C1635.37 1243.66 1640.16 1239.37 1645.01 1236.2C1662.05 1225.1 1676.15 1212.54 1673.43 1190C1672.5 1182.35 1670.01 1172.49 1661 1171.21C1638.97 1168.07 1625.69 1197.49 1615.71 1212C1612.56 1216.58 1604.66 1230.05 1598.01 1226.57C1579.48 1216.85 1589.77 1182.14 1603.04 1173.06C1617.87 1162.92 1633.52 1162.41 1650 1157.09C1677.13 1148.33 1701.31 1139.18 1730 1137C1713.09 1121.06 1666.37 1147.04 1648 1152.25C1616.03 1161.3 1579.82 1167.47 1583.54 1210C1584.39 1219.8 1600.17 1230.84 1596.71 1237.97C1578.25 1276.1 1541.02 1310.4 1541 1356M641 1304C593.332 1305.12 543.292 1375.11 492.136 1342.84C467.373 1327.21 467.929 1289.14 470.682 1264C477.601 1200.81 520.046 1170.49 579 1160.36C589.781 1158.5 603.996 1150.9 615 1153.47C651.028 1161.88 614.211 1218.27 594.755 1223.9C590.83 1225.03 585.034 1218.06 582.002 1216.02C571.061 1208.64 559.484 1196.05 546 1194C549.103 1206.44 590.086 1216.52 587.493 1230.72C586.65 1235.34 577.584 1238.07 574 1239.96C561.169 1246.76 544.255 1252.32 533.001 1261.36C528.783 1264.74 518.185 1274.24 522.87 1280.47C535.475 1297.25 574.143 1283.22 587 1274.7C596.129 1268.64 609.234 1261.89 606.598 1249C605.536 1243.81 596.732 1234.65 598.999 1229.87C609.03 1208.69 646.598 1193.34 633.576 1164C621.429 1136.63 580.476 1154.61 559 1158.88C494.732 1171.67 459.658 1227.99 464.136 1292C464.763 1300.96 465.939 1310.6 469.284 1318.98C493.132 1378.74 558.489 1347.57 599 1326.05C610.319 1320.04 633.272 1313.88 641 1304M1211 1248C1202.92 1259.82 1191.89 1270.76 1180.42 1279.37C1177.89 1281.27 1167.6 1287.36 1167.64 1290.75C1167.68 1293.83 1186.74 1289.18 1189 1288.58C1204.59 1284.47 1241.41 1275.17 1251.03 1261.6C1255.02 1255.98 1220.96 1249.78 1225.11 1244.99C1236.72 1231.56 1271.63 1240.75 1282 1226C1261.35 1227.24 1242.83 1235.12 1223 1240C1228.93 1227.43 1243.8 1195.27 1254.35 1186.99C1263.11 1180.11 1278.58 1176.94 1289 1172.98C1301.37 1168.28 1314.74 1162.57 1328 1161.15C1330.63 1160.87 1340.91 1161.47 1341.68 1157.93C1342.53 1154 1325.14 1156.45 1323 1156.92C1304.19 1160.97 1285.47 1168.17 1267.68 1175.48C1245.03 1184.79 1256.99 1168.11 1241.91 1157.26C1228.94 1147.92 1210.69 1150.58 1197 1156.84C1166.14 1170.94 1136.03 1224.38 1178.08 1245.46C1188.51 1250.69 1199.92 1248.62 1211 1248M1214 1156.36C1224.57 1154.9 1263.04 1167.83 1245.46 1184C1230.39 1197.85 1193.51 1193.04 1181.57 1209.2C1174.03 1219.41 1214.29 1241.71 1203.93 1244.29C1178.26 1250.69 1159.18 1226.6 1162.61 1202.92C1165.84 1180.71 1193 1159.27 1214 1156.36M1659.86 1175.55C1667.6 1176.99 1669.22 1188.68 1668.84 1195C1667.47 1217.61 1654.22 1222.6 1638.22 1235.27C1635.44 1237.47 1631.56 1247.57 1628.06 1247.04C1624.85 1246.55 1621.74 1243.21 1619.02 1241.6C1615.77 1239.69 1606.96 1236.79 1606.3 1232.52C1605.36 1226.39 1626.55 1202.16 1631.62 1198.03C1634.52 1195.66 1638.53 1197.9 1640.92 1195.36C1646.85 1189.04 1647.15 1173.19 1659.86 1175.55M175 1225C168.61 1201.25 122.768 1230.68 114.043 1239.14C111.67 1241.44 103.016 1256.79 100.054 1253.35C82.0541 1232.44 108.339 1205.06 126.96 1199.3C178.476 1183.36 228.564 1191 282 1191C271.649 1181.11 249.23 1185.4 236 1184.96C199.092 1183.72 164.134 1180.46 129 1194.1C118.791 1198.06 107.913 1199.88 100.655 1209.04C84.4445 1229.51 98.4944 1243.98 98.2285 1265C98.116 1273.89 90.9511 1282.94 89.603 1292C86.089 1315.62 100.514 1346.82 126 1351.47C139.78 1353.99 178.727 1342.51 166.716 1322C153.24 1298.99 114.32 1292.06 105.235 1264.98C102.737 1257.53 111.796 1247.65 116.706 1242.78C132.821 1226.8 153.435 1217.88 175 1225M1246 1189C1242.65 1200.59 1228.38 1236.79 1215.69 1239.9C1208.55 1241.65 1182.16 1218.3 1185.46 1211.32C1187.86 1206.24 1198.27 1205.94 1203 1204.88C1217.89 1201.52 1231.19 1193.04 1246 1189M902 1289C907.469 1292.75 914.666 1309.6 908.598 1315.13C896.482 1326.16 841.409 1343.9 870.617 1369.2C880.836 1378.04 897.84 1362.83 903.513 1354.86C911.681 1343.4 910.481 1322.35 921.03 1314.04C938.829 1300.02 959.872 1289.7 981 1281.71C996.937 1275.69 1017.13 1267.07 1022 1249C996.224 1268.25 971.783 1279.38 942.922 1293.72C932.786 1298.76 924.271 1308.76 913 1311C918.876 1300.61 909.119 1288.28 903 1280C914.133 1276.56 924.333 1270.58 935 1266.01C966.354 1252.56 974.764 1219.55 940 1202.9C907.014 1187.1 862.67 1200.83 842.57 1231.22C832.563 1246.36 869.112 1259.17 879 1265.22C881.557 1266.79 894.963 1274.11 891.214 1278.04C880.203 1289.58 846.978 1286.27 832.32 1291.21C828.859 1292.38 813.312 1293.73 816.323 1300.41C819.584 1307.64 842.195 1307.34 849 1308.18C857.993 1309.28 897.314 1318.49 902.724 1310.5C906.316 1305.19 902.871 1294.75 902 1289M899 1273C890.65 1271.15 882.286 1262.87 875 1258.24C867.993 1253.79 848.771 1247.02 845.146 1239.78C841.204 1231.89 861.708 1219.05 867.118 1215.14C887.637 1200.32 959.416 1188.91 959.813 1232C959.994 1251.68 936.159 1260.39 922 1267.24C918.413 1268.97 906.729 1275.89 903.039 1272.69C898.038 1268.36 902.731 1249.24 897.841 1242.22C892.849 1235.04 897.721 1267.04 899 1273M1966 1283C1989.31 1259.68 2013.65 1239.02 2045 1227.1C2069.46 1217.81 2095.79 1215.94 2120 1207C2109.39 1203.43 2092.41 1209.06 2081.86 1211.79C2047.05 1220.81 2015.68 1232.63 1987 1255.12C1977.35 1262.69 1969.77 1277.31 1958.92 1282.7C1947.81 1288.23 1925.33 1284.01 1913 1284C1910.63 1284 1898.99 1282.08 1898.32 1285.1C1897.62 1288.3 1908.03 1289.93 1910 1290.67C1917.03 1293.31 1943.22 1301.63 1943.88 1310.22C1945.13 1326.4 1937 1345.79 1937 1363C1937 1367.33 1938.88 1377.77 1935.18 1380.86C1927.56 1387.21 1907.1 1382.47 1899 1379.77C1896.82 1379.04 1889.56 1380.21 1893.09 1383.77C1903.11 1393.88 1924.28 1384.14 1935.88 1387.94C1953.21 1393.62 1951.84 1422.94 1979 1416.24C1994.78 1412.34 1993.69 1391.08 2010 1389.32C2026.52 1387.54 2046.12 1389.08 2062 1384.47C2064.96 1383.61 2073.91 1385.86 2075.46 1383.31C2077.04 1380.72 2063.49 1375.76 2061.44 1374.31C2049.88 1366.17 2024.2 1354.67 2017.24 1342.52C2013.97 1336.83 2022.71 1298.39 2024.91 1291C2026.43 1285.86 2032.33 1276.31 2028.52 1270.84C2025.95 1267.15 2016.13 1271.48 2013 1272.71C1998.1 1278.56 1982 1282.04 1966 1283M591.919 1237.07C601.89 1236.21 603.731 1254.07 598.716 1259.56C586.084 1273.38 566.632 1282.53 548 1282.78C544.585 1282.83 527.024 1281.37 526.467 1277.5C525.718 1272.31 534.277 1265.67 538.078 1263.36C550.879 1255.61 577.13 1238.33 591.919 1237.07M1245 1260C1232.19 1272.41 1197.82 1284.77 1180 1286C1186.26 1275.97 1199.72 1267.9 1207.72 1258.68C1210.25 1255.76 1212.97 1248.29 1217.23 1247.78C1223.74 1247 1237.93 1257.72 1245 1260M1630 1254C1635.95 1259.97 1642.11 1266.17 1645.58 1274C1665.9 1319.94 1581.6 1328.95 1605.77 1279.05C1611.09 1268.06 1624.08 1264.61 1630 1254M99 1268C105.896 1270.86 110.219 1279.05 115.687 1284.04C127.277 1294.62 139.495 1303.23 151.856 1312.82C155.894 1315.95 164.996 1322.82 163.589 1328.68C154.41 1366.97 103.505 1340.98 96.455 1316C91.3733 1297.99 100.128 1284.74 99 1268M2022.48 1275.19C2027.31 1276.82 2021.09 1287.05 2020.48 1290C2019.13 1296.54 2018.21 1340.82 2007.93 1338.24C1993.02 1334.49 1979.41 1322.25 1965.7 1315.61C1962.09 1313.86 1953.21 1310.52 1953.06 1305.69C1952.42 1284.49 1990.78 1283.39 2005 1280.08C2009.57 1279.02 2017.97 1273.67 2022.48 1275.19M820 1300C831.609 1289.05 862.549 1291.1 878 1286.27C881.487 1285.18 894.11 1280.47 897.06 1282.4C900.823 1284.86 900.645 1306.15 896.499 1308.1C886.718 1312.7 862.726 1305.37 852 1304.2C841.574 1303.06 830.14 1302.58 820 1300M1957 1289C1955.25 1292.45 1951.25 1302.84 1947.48 1303.91C1943.14 1305.15 1919.04 1291.74 1916 1288C1928.84 1288 1944.57 1285.96 1957 1289M1951.44 1312.28C1955.47 1311.49 1961.68 1316.95 1965 1318.86C1973.79 1323.88 2005.81 1335.96 2009.03 1345.24C2011.45 1352.18 2002.18 1383.28 1994.9 1385.06C1987.19 1386.95 1946.56 1387.65 1942.48 1380.5C1936.54 1370.12 1941.87 1338.26 1944.76 1327C1945.67 1323.44 1946.98 1313.14 1951.44 1312.28M910 1321C909.564 1333.25 893.924 1378.29 874.397 1366.72C846.553 1350.22 898.465 1324.8 910 1321M2062 1381C2048.1 1383.15 2033.17 1382.35 2019 1384.06C2015.58 1384.47 2007.11 1386.79 2004.38 1383.82C2002.25 1381.51 2012.93 1348.81 2015.5 1348.4C2024.34 1347 2056.44 1374.03 2062 1381M1996 1391C1982.69 1417.31 1953.72 1419.67 1944 1388C1960.25 1388.58 1980.33 1387.03 1996 1391M1925 1546C1931.48 1555.46 1963.63 1556.28 1975 1559.08C1978.08 1559.84 1989.17 1562.88 1990.89 1558.39C1992.81 1553.42 1977.36 1552.19 1974.88 1551.24C1957.28 1544.48 1944.37 1541.08 1925 1546M856 1569C854.913 1551.81 882.34 1544.87 883.825 1566C885.581 1590.98 858.883 1596.73 853.747 1619C850.125 1634.71 864.948 1640.31 868 1654L862 1653C873.89 1667.41 890.26 1646.03 892.769 1635C894.929 1625.5 898.026 1615.28 893.337 1606C891.325 1602.02 881.971 1597.17 881.776 1593.64C880.94 1578.57 896.062 1566.68 884.882 1551.15C873.532 1535.37 841.57 1559.8 856 1569M1969 1552L1965 1551C1967.05 1550.25 1967.6 1550.34 1969 1552M1906 1608C1918.33 1601.05 1931.7 1570.87 1938 1558C1925.11 1556.33 1906.45 1597.01 1906 1608M1920 1617C1934.22 1604.07 1953.97 1578.81 1961 1561C1942.99 1563.42 1921.61 1599.09 1920 1617M1941 1621C1952.95 1614.01 1958.79 1592.34 1966.48 1581.04C1968.15 1578.59 1975.15 1569.17 1969.33 1566.76C1966.3 1565.5 1961.33 1576.96 1960.08 1579C1952.1 1592.13 1941.56 1605.2 1941 1621M522 1607C518.138 1600.85 508.729 1595.91 508.486 1588.02C508.22 1579.38 521.644 1575.81 527.08 1581.5C536.774 1591.65 524.974 1610.87 531.129 1623C537.53 1635.61 554.587 1632.9 557 1646C537.346 1633.17 497.338 1660.66 515.939 1682.4C531.597 1700.69 557.36 1680.05 560.353 1663C561.844 1654.5 564.153 1639.83 556.462 1633.8C548.194 1627.32 538.885 1631.6 534.126 1619C529.358 1606.38 543.199 1573.01 519 1574.1C495.425 1575.16 502.618 1606.68 522 1607M875 1599C873.213 1603.34 869.35 1603.74 865 1604C866.941 1599.65 870.554 1599.29 875 1599M877.938 1604.83C887.677 1604.34 892.095 1639.95 878.992 1641.58C857.654 1644.23 857.397 1605.85 877.938 1604.83M890 1618C887.455 1614.62 886.062 1611.08 885 1607C889.794 1609.1 889.898 1613.2 890 1618M1223 1675C1232.45 1672.98 1242.94 1633.95 1249 1625C1255.06 1634.43 1256.88 1645.16 1259.1 1656C1259.72 1659.04 1258.98 1666.66 1262.5 1667.99C1270.92 1671.19 1302.64 1659.54 1312 1656.75C1314.75 1655.93 1326.6 1652.99 1323.81 1648.3C1316.88 1636.68 1280.8 1663.41 1269.27 1657.48C1256.31 1650.82 1266.5 1618.99 1252.62 1609.97C1247.94 1606.94 1242.74 1620.86 1241.02 1624C1232.48 1639.65 1223 1656.87 1223 1675M1890.85 1618.39C1885.71 1622.02 1896.3 1629.66 1899 1630.91C1903.94 1633.2 1940.41 1637.27 1944.11 1634.65C1948.48 1631.55 1938.83 1627.91 1937 1627.49C1925.17 1624.79 1914.52 1625.71 1903 1621.1C1900.28 1620.01 1893.64 1616.42 1890.85 1618.39M196 1681C188.4 1680.88 182.919 1675.47 176.008 1680.65C163.946 1689.69 158.049 1717.73 139 1715.21C102.924 1710.42 113.807 1652.12 133.003 1636.02C139.916 1630.22 154.408 1621.74 163.657 1627.38C180.547 1637.68 169.846 1664.72 162.833 1678C160.311 1682.77 153.924 1693.78 147.07 1691.42C124.225 1683.52 184.884 1635.11 150 1634.23C123.604 1633.57 141.591 1658.2 141.766 1668.14C141.912 1676.44 131.441 1691.18 144.03 1696.18C163.748 1704.01 185.072 1647.38 176.167 1634.52C162.599 1614.92 141.807 1620.86 126.943 1636.06C112.183 1651.16 106.256 1679.22 114.111 1699C121.726 1718.17 144.08 1727.59 159.734 1710.9C166.587 1703.59 168.369 1691.8 176.163 1685.45C182.523 1680.27 189.353 1687.7 196 1681M1904 1627C1902.19 1627.57 1901.93 1627.47 1900 1627C1901.81 1626.43 1902.07 1626.53 1904 1627M146.008 1639.69C162.189 1634.63 155.145 1659.35 146.094 1660.68C135.792 1662.18 136.417 1642.69 146.008 1639.69M545.99 1646.55C564.043 1645.78 552.884 1680.73 537.997 1681.62C506.356 1683.51 524.347 1647.48 545.99 1646.55M880 1646C876.902 1653.29 870.094 1646.35 880 1646M1659 1690C1647.59 1669.78 1688.43 1686.87 1669 1672C1676.16 1669.89 1675.38 1666.26 1668 1667C1668.46 1663.56 1668.28 1661.23 1667 1658C1653.35 1672.32 1623.87 1664.55 1605 1661.36C1599.86 1660.5 1586.36 1655.95 1581.84 1658.83C1577.42 1661.65 1594 1689.17 1598.1 1691.8C1609.39 1699.04 1646.87 1694.91 1659 1690M1594 1665C1610.09 1666.51 1624.61 1671 1641 1671C1643.8 1671 1654 1669.49 1654.7 1673.5C1656.28 1682.63 1642.39 1687.35 1636 1687.07C1619.92 1686.35 1599.99 1682.03 1594 1665M148 1981C166.089 1964.52 176.161 1926.24 186.825 1904C188.041 1901.46 200.138 1879.88 197.513 1879.43C191.064 1878.31 183.726 1896.5 181.914 1901C174.494 1919.42 164.67 1937.03 156.334 1955C152.514 1963.24 145.949 1971.5 148 1981M176 1888L165 1894C166.494 1890 168.057 1886.18 169 1882C160.959 1884.73 159.885 1893.82 157.35 1901C152.113 1915.84 144.189 1929.28 136.634 1943C134.747 1946.43 125.81 1958.18 129.872 1961.74C136.887 1967.88 142.603 1951.94 144.631 1948C153.871 1930.07 174.175 1908.34 176 1888M107 1961C113.784 1959.17 116.869 1948.59 120.319 1943C130.995 1925.71 146.131 1908.19 153 1889C146.417 1890.79 143.207 1896.96 138 1901C140.027 1895.64 142.799 1890.63 144 1885C126.422 1891.49 109.004 1943.37 107 1961M828 1962C836.285 1955.88 847.196 1954.66 850 1944L846 1944C854.421 1919.11 874.562 1961.94 861 1962C858.541 1983.52 836.023 1989.49 826.737 2006.32C821.254 2016.25 839.864 2011.63 843.374 2005.97C847.695 1999 850.905 1989.57 858 1985C858 1993.04 858.156 2001 857.177 2009C856.696 2012.93 853.351 2041.7 859.68 2040.68C864.607 2039.88 865.984 2014.54 865.999 2010C866.031 2000.31 862.749 1988.4 864.604 1979C866.309 1970.36 877.761 1964.45 877.709 1955.07C877.685 1950.87 873.013 1949.93 872.287 1945.89C870.803 1937.64 875.532 1926.1 866 1922C866 1928.92 866.832 1936.15 866 1943C847.874 1920.66 871.528 1916.86 875 1895C857.215 1901.25 829.661 1943.58 828 1962M1187 1948C1192.96 1938.84 1201.99 1930.91 1213 1929C1205.78 1944.35 1190.22 1960.79 1189 1978C1194.69 1975.59 1197.36 1968.76 1201 1964C1201.03 1970.16 1205.16 1978.29 1203.16 1984C1196.71 2002.45 1172.74 2015.86 1169 2036C1179.34 2028.9 1186.86 2012.43 1197.14 2007.48C1200.38 2005.92 1215.34 2008.56 1221 2007.9C1234.36 2006.34 1245.89 1999.04 1259 1997C1251.11 1984.1 1229.25 1996.31 1217.16 1992.49C1207.23 1989.36 1225.71 1979.19 1229 1978C1226.33 1981.32 1223.34 1984.46 1221 1988C1231.33 1984.52 1255.2 1965.57 1259 1955C1241.93 1956.42 1228.34 1972.98 1212 1978C1212 1951.27 1212.68 1928.27 1238 1913.56C1239.93 1912.44 1256.23 1904.36 1252.78 1901.35C1249.67 1898.63 1240.08 1907.4 1237 1908.59C1222.74 1914.11 1205.31 1922.4 1194.14 1933.16C1190.18 1936.97 1182.71 1942.57 1187 1948M1981 2021C1985.98 2019.03 1983.45 2009.61 1987.41 2009.1C1997.32 2007.83 1989.76 2024.13 1995.36 2026.07C1999.26 2027.42 1998.44 2019.67 2000.72 2018.42C2003.14 2017.08 2008.33 2019.68 2011 2020C2000 1994.7 2001.1 1966.04 2003.14 1937C2003.71 1928.87 2009.02 1919.55 2008 1912L2004 1914C2004.95 1911.39 2005.27 1909.75 2005 1907C1987.81 1918.42 1975.26 1944.25 1963.26 1961C1960.34 1965.07 1949.93 1974.03 1951.18 1979.44C1953.04 1987.43 1976.02 1995.02 1981.34 2003.08C1984.53 2007.9 1981.33 2015.6 1981 2021M1535 1962C1545.35 1959.92 1555.08 1949.63 1564 1944C1562.66 1946.26 1535.92 1971.34 1543.32 1971.36C1546.7 1971.36 1554.99 1959.17 1559 1957C1558.57 1968.73 1550.6 1979.78 1550.42 1990.85C1550.27 1999.64 1558.99 1991.76 1559 1985C1565.39 1988.95 1565.71 1993.12 1566 2000C1588.22 1997.64 1578.28 2044.87 1577.01 2056C1576.5 2060.43 1573.03 2069.75 1578.14 2072.59C1582.67 2075.11 1583.18 2055.27 1583.7 2052C1585.68 2039.51 1585.3 2026.29 1593.41 2016.01C1602.46 2004.53 1624.89 1989.89 1628 1976C1610.77 1979.89 1604.06 2007.41 1588.17 2011.36C1583.3 2012.57 1578.32 1997.26 1575.72 1994C1565.68 1981.42 1554.59 1962.52 1569.21 1947.32C1577.27 1938.94 1596.94 1930.66 1598 1918C1582.08 1926.45 1541.82 1944.77 1535 1962M1247 1919C1245.03 1931.25 1236.15 1935.09 1229 1944C1238.62 1945.71 1259.36 1925.26 1247 1919M1998 1928C1997.59 1934.9 1997.92 1943.69 1995 1950C1991.84 1943.17 1993.33 1934.79 1996 1928L1998 1928M1990 1938C1989.95 1951.77 1986.5 1965.22 1985.96 1979C1985.85 1981.79 1985.54 1990.75 1982.28 1991.9C1977.97 1993.42 1964.69 1982.33 1964.85 1977.96C1965.35 1964.62 1981.05 1948.72 1988 1938L1990 1938M510 1975C505.275 1965.63 502.434 1947.27 491 1944C492.473 1954.78 504.091 1969.98 502.226 1979.96C500.094 1991.36 466.931 2012.13 472.02 2024.33C473.918 2028.88 481.671 2020.34 483.136 2019.08C492.299 2011.2 498.029 2000.52 508 1993C509.868 2000 518.059 2007.82 517.381 2015C516.693 2022.28 498.1 2047.12 504.185 2053.89C506.703 2056.7 520.897 2033.1 523.153 2030.66C536.941 2015.7 544.829 1991.81 554.705 1974C559.234 1965.83 566.477 1959.17 569 1950C545.15 1954.96 540.501 1993.13 521 2005C521.562 1998.69 515.234 1987.85 517.365 1983.31C525.036 1966.99 541.776 1964.19 544 1943C531.164 1946.94 518.339 1964.76 510 1975M1994 1957C1997.53 1970.94 1994.87 1987.94 1993 2002C1983.41 1997.67 1986.37 1962.86 1994 1957M196 2063C179.527 2043.75 188.516 2058.17 207 2054L206 2061C223.882 2053.73 227.344 2023.7 224 2008C214.335 2026.89 201.989 2032.61 182 2042C194.366 2022.77 228.826 2012.82 237 1992C219.618 1993.56 205.922 2014.28 189 2020C193.236 2016.11 197.695 2012.1 202.138 2008.44C205.116 2005.99 208.544 2004.22 211.438 2001.64C232.193 1983.19 188.757 1988.97 179.426 2003.01C178.128 2004.96 174.721 2009.67 171.926 2007.03C167.355 2002.71 183.302 1994.59 177.488 1993.73C172.401 1992.98 167.617 1999.79 166.575 2004C164.472 2012.49 174.385 2010.76 174.411 2018.03C174.442 2027.09 150.162 2043.07 152.541 2047.16C155.873 2052.88 168.717 2035.84 173.174 2038.06C177.225 2040.08 165.848 2048.67 167.622 2052.14C169.281 2055.38 175.924 2051.49 178.606 2052.23C185.451 2054.11 187.173 2062.14 196 2063M202.524 1994.85C210.327 1990.93 190.166 2017.87 182.155 2020.24C177.344 2021.66 180.787 2011.82 181.921 2010.32C184.397 2007.06 199.144 1996.55 202.524 1994.85M1229 1997C1227.03 1999.76 1225.33 2000.46 1222 2001C1223.98 1998.35 1225.78 1997.66 1229 1997M842 1998C840.479 2003.22 837.694 2007.21 833 2010C834.118 2004.53 837.148 2000.72 842 1998M193 2024C190.145 2029.02 185.964 2032.56 180 2032C183.632 2028.17 188.044 2025.75 193 2024M185 2049C186.974 2043.99 211.732 2026.27 217.02 2030.42C223.034 2035.14 206.238 2049.76 202 2050.63C196.156 2051.83 190.83 2048.46 185 2049M771 2084L774 2082L771 2084z"/>
</svg>
