<?xml version="1.0" standalone="yes"?>
<svg xmlns="http://www.w3.org/2000/svg" width="2200" height="2200">
<path style="fill:#0c0c0c; stroke:none;" d="M1940 93C1950.76 91.8093 1956.53 77.1748 1967 77.3479C1984.88 77.6436 1988.36 104.6 1980.8 115.997C1966.61 137.392 1911.69 137.417 1923.08 175C1925.54 183.146 1931.22 189.556 1935 197C1931.3 197 1907.64 193.178 1907.64 196.804C1907.64 201.256 1925.83 201.984 1929 201.941C1952.92 201.617 1976.09 197.455 2000 197C1995.51 185.669 1960.7 203.324 1967.51 178C1971.65 162.612 1994.31 165.444 2005 157.29C2031.39 137.155 2048.99 56.0298 1998 56C2002.37 52.9229 2007.93 51.4771 2011 47C1991.49 45.1655 1950.09 77.4097 1940 93M1947 194C1951.96 180.565 1947.69 164.01 1956.01 152.008C1966.17 137.334 1985.37 136.626 1997.55 124.637C2018.31 104.209 2003.39 73.4978 1978 68C2007.08 39.0891 2026.24 78.8992 2025.97 105C2025.78 124.23 2014.23 148.651 1996.78 157.673C1988.42 162 1977.64 159.837 1970.1 166.358C1954.53 179.824 1972.22 194 1947 194M1216 68C1197.64 86.5254 1188.27 106.684 1173.47 128C1171.84 130.351 1157.46 147.115 1162.85 149.246C1170.34 152.211 1184.86 126.757 1196.98 127.623C1210.39 128.582 1199.35 150.678 1206.8 156.938C1216.64 165.198 1254.69 140.772 1261 133C1244.4 132.4 1228.76 155.885 1211.29 153.185C1206.17 152.392 1209.79 134.418 1207.64 130.01C1202.61 119.724 1193.07 123.456 1184 124C1187.18 119.201 1193.64 115.006 1198 111C1199.22 115.962 1202.2 116.755 1207 117C1202.38 103.457 1219.58 100.298 1223.51 114C1224.5 117.435 1220.33 127.128 1223.86 129.116C1228.63 131.798 1234.99 124.137 1238.35 121.87C1245.76 116.875 1268.46 124.427 1270 114C1261.88 115.742 1253.27 115 1245 115C1252.96 102.033 1278.51 89.8154 1282 76C1272.46 78.8569 1263.42 88.5791 1253.02 87.7083C1245.74 87.0981 1245.77 78.3167 1239.95 75.2605C1232.72 71.4622 1222.03 76.8479 1215 79C1216.19 75.1384 1217.88 71.782 1216 68M1970 74C1974.39 68.6594 1980.55 72.0139 1986 74.2192C2001.21 80.3713 2002.35 94.594 2000.78 108.999C1998.37 131.052 1970.91 129.58 1958.35 143.097C1952.56 149.342 1946.99 156.24 1946.15 165C1945.51 171.786 1947.9 187.637 1944.18 193.149C1940.81 198.135 1933.58 187.245 1932.18 185C1926.68 176.13 1925.14 165.664 1929.59 156C1939.91 133.613 2016.94 123.53 1983.33 83.3284C1979.78 79.092 1975.06 76.0444 1970 74M1258 92C1255.32 99.2876 1240.44 118.812 1231.37 113.393C1224.82 109.488 1228.02 99.4539 1218 97.6125C1210.6 96.2529 1203.73 102.986 1197 105C1200.38 92.0986 1222.68 74.9934 1236.8 79.5039C1246.16 82.4944 1245.16 91.9739 1258 92M165.586 82.541C151.462 89.8745 158.105 119.486 159.217 132C159.473 134.875 159.528 148.95 165.557 145.592C174.903 140.388 168.715 102.572 169.679 93C169.876 91.0381 170.275 80.1064 165.586 82.541M1600 107C1594.2 102.229 1585.45 98.9607 1582 108C1594.52 104.303 1588.49 116.736 1588 125C1590.15 123.487 1596.09 108.941 1597.62 111.003C1600.18 114.459 1591.17 124.756 1595.64 127.239C1596.91 127.947 1602.9 121.753 1609 125C1607.46 116.508 1613.43 108.715 1610 101C1607.4 104.004 1605.91 107.528 1604 111C1603.58 97.5237 1612.04 99.4478 1622 96C1620.93 103.523 1621.51 124.086 1615.4 129.005C1603.38 138.671 1557.86 127.86 1564.8 154.892C1569.65 173.784 1588.65 138.182 1590.88 140.187C1593.22 142.287 1588.1 155.854 1589 160C1593.92 155.515 1593.77 141.909 1599.91 139.643C1603.93 138.163 1597.39 157.74 1597 160C1619.1 159.997 1598.11 152.567 1610 151C1608.66 147.641 1609.59 129.011 1615.36 136.611C1620.15 142.932 1615.11 174.662 1614.2 183C1613.82 186.443 1614.35 194.358 1610.5 196.042C1602.13 199.712 1594.63 190.398 1587.85 188.032C1579.48 185.111 1565.91 186.99 1557 187C1554.49 187.003 1540.64 186.824 1540.64 190.912C1540.64 193.143 1556.87 191.991 1559 192.003C1566.55 192.044 1579.05 190.707 1586 193.188C1591.48 195.143 1595.17 200.494 1601 201.629C1604.61 202.332 1615.26 201.549 1617.53 198.181C1622.45 190.865 1620.72 171.479 1620.14 163C1619.07 147.479 1621.91 130.371 1623.77 115C1624.18 111.661 1629.26 90.4517 1629.11 90.3438C1625.64 87.835 1620.51 92.115 1617 92.7268C1607.63 94.3601 1597.31 94.0234 1588 92.3667C1577.22 90.4487 1549.34 76.5256 1538.83 85.2598C1535.39 88.1133 1537.74 102.39 1537.18 107C1534.38 129.847 1532.24 153.022 1531.08 176C1530.92 179.206 1529.99 203.279 1532.87 202.677C1536.62 201.892 1535.96 179.659 1536.01 176C1536.29 154.687 1539.89 133.186 1542.2 112C1542.69 107.486 1540.97 93.321 1545.06 90.6978C1555.18 84.2056 1575.89 95.1094 1586 97.0559C1589.66 97.7598 1597.21 96.9468 1600.09 99.3545C1602.26 101.167 1600.63 104.852 1600 107M1554 101C1553 105.038 1551.28 108.925 1550.48 113C1545.59 137.883 1582.41 115.331 1554 101M1567 104C1571.61 111.029 1565.67 116.489 1568.29 122.653C1571.13 129.345 1591.27 118.963 1572 120C1581.2 112.65 1579.69 104.386 1567 104M491 137C492.415 134.093 506.713 108.197 498.265 110.187C491.842 111.7 489.38 126.965 486.614 132C481.644 141.045 473.356 153.375 473.214 163.981C473.009 179.168 496.333 194.668 510 193.936C535.995 192.543 534.867 174.253 534.941 155C534.983 144.146 538.308 133.129 526.957 126.166C513.034 117.627 502.936 134.388 491 137M1560 109C1565.44 127.019 1547.46 117.546 1560 109M1572 112C1574.04 108.725 1576.66 111.41 1572 112M880 208C888.04 208.768 894.854 193.005 901 188C900.319 213.806 894.008 225.291 879 245C890.58 246.949 896.639 231.61 904 225C904.048 227.459 910.337 249.37 913.351 243.071C916.501 236.487 903.625 213.129 904.033 204C904.178 200.754 903.851 191.133 909.147 192.381C915.863 193.963 920.5 200.625 927 203C926.101 190.658 908.241 191.439 910.643 177C913.518 159.725 939.725 153.403 934.431 132C926.453 99.7439 892.396 124.191 886.878 144C881.987 161.562 902.454 159.732 903.387 171.067C904.441 183.859 885.501 196.58 880 208M1234 117C1231.1 127.218 1223.32 117.771 1234 117M914 121C926.772 121.145 920.543 129.273 914 121M893 142L898 145C892.948 128.179 924.423 119.803 929.151 134.107C937.734 160.071 885.985 172.575 893 142M533 150C522.494 146.266 516.683 136.965 505 134C517.652 118.226 532.977 136.164 533 150M1553 153C1553.12 146.884 1555.96 138.705 1551 134C1547.7 143.008 1544.19 153.383 1544 163C1553.56 161.249 1557.5 160.09 1561.18 150C1561.78 148.345 1567.72 133.151 1563.32 134.761C1558.29 136.604 1557.15 149.001 1553 153M503.68 138.767C537.098 133.855 531.836 179.493 502 183.597C479.253 186.725 480.824 142.126 503.68 138.767M1575.88 140.888C1583.52 139.941 1578.07 153.858 1572.14 154.789C1565.56 155.82 1570.26 141.584 1575.88 140.888M532 168C533.648 180.05 521.104 187.041 511.003 190.08C509.412 190.559 502.824 191.06 504.106 187.53C505.461 183.796 518.35 180.25 521.786 177.316C525.334 174.286 528.207 170.776 532 168M483 173L482 174L483 173M1873 466C1890.08 463.542 1901.46 426.357 1921.5 433.12C1927.93 435.291 1919.67 454.95 1918.19 459C1912.14 475.585 1879.03 524.055 1909 533C1894.99 504.548 1913.12 485.428 1922.37 457C1923.61 453.192 1927.2 430.643 1930.24 430.643C1942.85 430.643 1931.4 448.266 1931 453C1932.31 451.789 1937.74 444.736 1939.68 447.003C1942.8 450.657 1936.65 461.603 1934.96 465C1929.04 476.948 1919.22 493.08 1922.64 507C1926 520.731 1953.32 530.248 1962 517C1951.06 517.043 1938.87 520.85 1930.24 511.813C1923.99 505.258 1924.39 485.248 1936 486C1938.5 474.829 1951.29 472.863 1961 471.801C1977.46 470 2019.15 472.654 2029 457C1999.06 462.874 1963.66 461.107 1936 474C1938.74 467.924 1944.05 442.223 1948.28 439.861C1961.74 432.359 1972.35 441.637 1985 442.212C1993.53 442.599 2002.69 437.751 2011 436.175C2017.61 434.922 2026.87 434.874 2031 429C2015.8 429.289 2001.86 436.384 1987 437.337C1980.66 437.744 1974.71 433.089 1968 433.008C1952.68 432.822 1945.08 438.917 1935 425C1942.4 424.337 1958.76 420.573 1964.41 415.581C1965.58 414.549 1970.66 404.909 1969.89 404.311C1965.16 400.629 1942.28 412.931 1937 415.101C1931.21 417.48 1924.62 422.211 1918.08 421.969C1914.05 421.82 1910.63 416.829 1906.45 418.566C1895.32 423.193 1876.74 454.72 1873 466M1595 416C1586.26 432.063 1580.93 467.52 1566 478C1566.38 471.603 1570.39 461.778 1565 457C1562.79 463.351 1561.54 500.357 1553.32 500.357C1547.49 500.357 1550.16 475.211 1547.68 471.571C1544.97 467.607 1543.03 474.394 1540.02 473.36C1537.23 472.4 1534.7 462.643 1530.94 468.276C1528.6 471.786 1534.29 477.358 1535.07 481.001C1537.48 492.32 1541.13 506.475 1540.94 518C1540.65 535.795 1521.16 547.344 1519.06 563.841C1518.18 570.803 1536.03 545.016 1538 540C1538.48 544.331 1536.81 547.163 1535 551C1542.57 549.718 1543.4 545.012 1547 539C1546.53 558.594 1532.38 575.453 1532 595C1542.76 584.794 1545.88 564.917 1551 551C1552.25 555.938 1552 560.932 1552 566L1559 558C1559.76 562.163 1560.97 565.013 1564 568C1565.48 555.372 1557.31 535.803 1564.94 524.097C1572.24 512.903 1594.48 506.21 1606 499.956C1608.71 498.486 1620 494.595 1620 491.039C1620 485.962 1608.75 491.332 1607 492.247C1593.33 499.403 1580.13 507.269 1565 511C1571.44 499.306 1579.97 488.461 1588.22 478C1589.92 475.847 1597.23 469.115 1595.38 465.969C1593.63 463.001 1572.09 479.694 1572.14 476.472C1572.48 457.367 1601.31 436.189 1595 416M895 423C901.504 440.421 893.037 449.259 886.514 466C877.719 488.575 870.504 512.637 863.964 536C861.924 543.288 849.17 567.375 854.517 573.031C857.235 575.906 861.714 568.034 862.926 566.338C869.544 557.076 874.891 546.975 882.017 538C895.142 521.469 908.727 502.047 925.007 488.526C929.176 485.064 943.047 476.525 940.913 469.494C939.893 466.132 933.724 467.169 931.177 465.74C926.339 463.027 922.24 455.685 919.519 451C913.773 441.108 907.774 424.644 895 423M1910 428L1909 429L1910 428M1196 452C1185.27 459.746 1200.6 484.459 1175 484C1188.15 504.788 1201.64 500.646 1218 491C1217.09 496.101 1216.71 501.077 1215 506C1237.96 520.191 1201.35 532.418 1197 542C1208.02 540.758 1212.23 535.244 1221 530C1220.73 533.422 1219.77 536.618 1219.3 540C1219.02 541.995 1221.27 559.1 1224.06 553.351C1225.96 549.455 1222.02 506.541 1233.5 513.453C1244.93 520.333 1226.8 551.26 1228 561C1235.37 553.433 1239.08 538.355 1239.86 528C1240.21 523.388 1237.95 514.103 1242.36 511.04C1251.91 504.407 1257.8 532.725 1274 518C1261.96 514.702 1261.27 518.253 1254 506C1266.97 501.933 1285.75 519.759 1294 502C1285.38 503.24 1276.77 509.353 1272 499C1278.32 498.851 1297.56 484.74 1294.43 484.237C1288.4 483.266 1279.54 498.173 1273.9 492.955C1270.63 489.927 1274.35 482.95 1273.32 479.07C1271.86 473.611 1265.42 476.209 1263.88 472.9C1260.23 465.037 1278.2 463.528 1282 465C1282.56 447.067 1259.39 469.88 1257.48 466.435C1252.46 457.408 1275.45 453.91 1278 448C1270.96 449.499 1263.1 450.823 1257.1 455.08C1254.56 456.888 1251.57 463.169 1248.06 462.677C1234.29 460.745 1262.2 443.134 1266 442C1260.72 437.512 1253.31 440.438 1248.16 444.198C1240.87 449.521 1242.69 459.052 1236.72 464.337C1224.19 475.426 1196.39 470.865 1196 452M908.596 450.106C913.513 448.646 924.776 468.671 925.133 472.864C925.692 479.436 902.859 505.837 896.075 506.599C891.347 507.131 895.306 498.67 895.979 497C900.56 485.64 903.23 474.135 904.822 462C905.19 459.196 905.135 451.133 908.596 450.106M934 466C936.109 464.046 937.048 462.707 938 460C934.9 461.375 934.134 462.625 934 466M892 469C891.546 492.855 887.629 528.336 868 544C868.778 525 880.622 484.115 892 469M1212 471C1226.31 471.671 1219.17 483.341 1212 471M1218 489C1211.03 489.347 1207.51 495.941 1201 496.609C1182.71 498.483 1192.15 462.366 1213.93 479.694C1217.26 482.344 1217.86 484.906 1218 489M1227 484C1230.11 485.794 1231.98 488.05 1234 491C1233.9 484.713 1232.19 480.074 1239.03 476.871C1242.38 475.303 1255.44 472.645 1255.31 479.164C1254.77 505.64 1214.96 518.753 1227 484M1270 498C1265.31 498.437 1260.72 498.981 1256 499C1266.49 478.62 1266.62 472.494 1270 498M2023 482C2013.49 482.22 2004.57 487.636 1995 487.175C1979.86 486.447 1967.04 478.156 1951 480.261C1946.93 480.795 1927.23 493.022 1937.23 497.239C1938.61 497.824 1944.19 487.485 1947.04 486.284C1970.34 476.487 2004.03 506.546 2023 482M172.587 486.408C162.179 492.767 139.499 529.802 138.828 542.136C138.502 548.121 143.996 556.472 146.219 562C148.318 567.223 162.29 596.768 169.197 594.239C176.395 591.603 166.713 567.329 165.203 563C162.354 554.833 154.593 547.502 153.269 539C151.451 527.325 165.739 510.312 170.536 500C171.108 498.77 178.178 482.992 172.587 486.408M1544 487C1545.11 490.281 1545 493.554 1545 497L1543 497C1543 493.554 1542.89 490.28 1544 487M1570 487.333C1570.89 487.333 1570.89 488.667 1570 488.667C1569.11 488.667 1569.11 487.333 1570 487.333M556.162 495.224C552.116 496.404 553.065 505.694 552.6 509C550.838 521.521 555.351 543.759 548.74 554.678C543.133 563.939 528.374 568.109 519 571.002C516.426 571.797 507.054 574.175 506.441 577.205C505.088 583.897 525.611 577.344 528 577.145C551.341 575.197 574.324 579.014 595.927 566.777C602.698 562.941 598.102 558.234 592.997 555.44C583.64 550.32 566.292 556.291 559.612 551.042C553.441 546.193 558.43 514.524 559.639 507C560.057 504.399 562.2 493.463 556.162 495.224M1551 502C1550.36 505.786 1549.7 508.478 1546 510C1546.31 505.887 1546.75 503.164 1551 502M1251 503L1253 506C1250.75 505.527 1249.88 505.139 1251 503M1534 531C1518.68 528.551 1522.2 541.137 1534 531M1520.5 539.5C1519.87 540.127 1520.87 541.127 1521.5 540.5C1522.13 539.873 1521.13 538.873 1520.5 539.5M866 545.333C866.773 545.333 866.16 545.831 865.667 545.667L866 545.333M251 549L252 550L251 549M273 559C274.098 551.26 264.723 550.224 273 559M581 566L582 562C576.288 562.109 564.608 566.566 559.656 564.101C551.488 560.036 573.636 556.014 576 556.099C587.078 556.495 598.285 565.308 581 566M551 560C550.66 566.464 544.355 566.848 539 566C542.507 563.047 546.729 561.589 551 560M847 864C864.663 860.011 877.927 843.395 890.915 830.783C893.603 828.172 900.097 815.52 903.713 815.52C907.104 815.52 904.207 826.143 904.061 828C903.473 835.47 891.311 875.339 904 868C904.947 869.49 906.841 872.165 908.487 869.488C910.645 865.977 908.004 859.966 908.487 856C909.926 844.171 915.57 832.124 913.762 820C912.593 812.162 908.404 809.337 911 801C887.421 807.19 857.742 843.055 847 864M1571 867C1570.78 861.656 1570.82 828.741 1564.45 830.87C1556.76 833.438 1561.35 845.507 1561.76 851C1563.18 870.193 1558.93 893.749 1566 912C1576.85 898.491 1564.8 873.592 1584.05 861.862C1600.51 851.834 1620.44 884.982 1634 862C1628.37 862.785 1622.77 866.823 1617 865.264C1604.97 862.013 1610.16 850.45 1619.02 846.638C1632.78 840.714 1648.31 857.55 1659 841C1646.84 842.864 1625.62 837.686 1615.02 842.81C1608.83 845.802 1608.21 854.124 1602.81 857.093C1600.41 858.411 1587.06 856.392 1587.82 852.917C1589.58 844.866 1602.66 834.648 1610 832.065C1614.56 830.459 1622.44 831.323 1624 826C1614.18 826.577 1608.83 815.921 1620.01 812.2C1633.31 807.772 1656.28 820.833 1667 808C1653.47 808.257 1627.79 803.107 1616.02 808.906C1606.21 813.74 1611.99 821.172 1607.09 827.278C1603.01 832.375 1594.21 834.145 1589.36 839.226C1581.62 847.342 1578.6 858.582 1571 867M458 1051C455.246 1022.73 455.987 995.27 456 967C462.814 972.396 460 988.099 460 996C468.124 988.94 464 976.641 464 967C469.435 974.003 468.639 984.773 472 993C475.024 978.834 460.152 952.983 471.206 940.646C474.349 937.138 481.105 942.615 481.573 946.109C483.924 963.662 487.767 983.402 488 1001C501.553 979.351 476.584 941.201 492 921C496.001 939.309 495.335 958.448 499.009 976.922C501.498 989.44 508.111 1002.1 511 1015C515.525 1001.64 507.753 982.769 503.835 970C498.851 953.753 497.288 933.828 498.783 917C499.807 905.468 499.625 892.863 511 886C510.896 912.199 505.738 940.755 513.843 966C515.789 972.062 513.697 980.647 519 985C518.133 979.541 517.918 974.522 518 969L522 973C529.361 948.717 521.724 912.355 522 887C514.357 886.001 523.206 867.375 526 864C528.667 876.4 527 904.402 537 913C536.937 897.697 523.275 865.93 537 854C537.416 875.862 544.477 900.81 549.832 922.007C551.392 928.184 551.227 939.767 556 944C562.371 916.733 544.258 877.807 541.401 850C540.166 837.975 553.257 831.671 547 818C545.384 825.443 525.825 841.851 516.472 837.116C508.668 833.165 530.026 822.837 533 822C530.998 816.067 535.342 814.608 540 812C532.671 809.572 523.864 814.987 516 815L517 810C503.778 810.279 500.193 839.11 494.5 848C466.712 891.394 450 940.163 450 993C450 1007.65 452.593 1022.34 453 1037C453.111 1040.98 453.87 1050.11 458 1051M899 812C893.377 825.381 877.162 838.534 865 846C870.84 834.638 887.505 817.371 899 812M210 904C212.343 894.74 206.141 877.894 211.325 870.362C216.818 862.382 228.888 879.288 232.26 868.967C232.791 867.341 231.786 850.426 230.7 849.26C228.043 846.406 217.968 846.414 214 844.651C199.119 838.037 175.687 819.408 158.073 826.94C145.352 832.38 157.405 855.402 154.18 861.011C151.481 865.704 127.382 886.278 131.098 890.953C134.028 894.639 140.094 887.069 141.804 885.312C147.639 879.319 160.412 858.023 169.003 859.787C175.575 861.136 201.374 863.754 204.129 870.059C208.703 880.528 200.745 893.646 210 904M160.504 830.862C174.845 823.725 211.421 846.521 223.713 852.803C227.209 854.589 227.495 860.418 224.256 862.7C220.967 865.017 212.901 863.064 209 862.982C195.493 862.695 167.718 858.312 156.571 850.429C155.231 849.482 158.434 831.892 160.504 830.862M538 833C535.257 839.064 527.768 843.955 522 847C523.263 839.426 530.936 834.784 538 833M554 834C554.174 839.985 558.416 849.061 563 853C561.379 846.275 560.035 838.104 554 834M549 840C550.919 848.155 549.523 855.731 550 864C551.454 861.475 552.591 859.67 555 858C557.303 880.033 571.008 900.365 574 922C578.527 914.746 573.086 906.185 570.838 898.962C565.021 880.275 562.513 854.981 549 840M850 917C867.763 906.978 889.123 865.632 892 845C874.052 849.728 850.07 899.68 850 917M520 850C518.437 859.03 512.875 853.305 520 850M525 853L523 856L525 853M497 863C496.806 867.159 496.344 870.303 493 873C493.629 869.131 494.577 866.109 497 863M511 866C511 875.449 512.036 880.948 502 884C503.141 877.3 506.526 872.191 509 866L511 866M1243 867.516C1225.67 870.342 1200.08 865.105 1186.72 880.049C1178.88 888.816 1188.38 897.899 1191.29 906C1193.5 912.164 1194.64 926.427 1199.28 930.716C1208.64 939.364 1253.7 941.574 1266 939.705C1278.13 937.862 1283.65 917.198 1289.28 908.088C1293.07 901.967 1304.91 898.827 1305.34 890.764C1306.54 868.141 1257.4 865.168 1243 867.516M158 905C162.605 902.216 190.547 875.538 185.06 871.466C178.904 866.897 157.819 898.999 158 905M1247.08 872.384C1257.91 871.105 1296.73 872.679 1298.13 888.138C1299.25 900.435 1267.59 905.804 1259 906.763C1242.95 908.554 1218.06 907.339 1203 901.75C1197.05 899.543 1187.13 896.489 1189.15 888.019C1193.9 868.154 1232.39 874.117 1247.08 872.384M838 957C849.055 933.285 872.214 916.825 883 894C866.045 893.193 850.767 930.084 839 940C842.996 921.714 850.881 894.414 848 876C844.467 877.486 840.193 878.956 839.284 883.137C836.249 897.093 827.449 946.808 838 957M502 888C501.219 890.926 500.478 892.259 498 894C498.683 890.96 499.408 889.729 502 888M1929 888C1928.95 901.467 1925.17 914.665 1923.68 928C1923.33 931.154 1920.79 939.306 1923.23 941.894C1922.14 940.735 1938.18 919.394 1945.76 919.964C1952.11 920.441 1954.17 929.097 1961.01 929.555C1969.11 930.098 1975.27 921.418 1983 922.039C2000.03 923.406 2046.09 948.071 2056 925C2048.34 926.059 2040.96 931.394 2033 930.261C2026.54 929.342 2022.5 923.126 2016 922.205C2005.43 920.709 1996.19 923.957 1987 917C1991.17 915.553 1993.88 914.481 1995 910C1990.84 910.581 1983.48 915.981 1979.73 914.614C1973.43 912.316 1985.37 900.194 1988.08 899.063C2001.49 893.463 2018.8 908.364 2029 893C2016.96 893.556 1989.76 890.085 1980.27 898.005C1971.25 905.532 1978.35 918.764 1967.03 923.591C1953.83 929.221 1946.91 908.176 1930 923C1930.4 912.772 1938.94 895.738 1929 888M477 894C475.763 895.901 474.901 896.763 473 898C473.316 894.952 473.952 894.317 477 894M2089 902C2079.32 904.139 2074.11 905.897 2064 905.139C2055.2 904.479 2046.75 906.173 2040.05 912.268C2038.21 913.94 2032.25 920.012 2036.3 922.456C2038.31 923.67 2047.79 912.574 2050.44 911.14C2062.17 904.8 2082.53 918.589 2089 902M1283 906C1280.97 942.168 1230.59 937.508 1205.28 927.415C1202.54 926.319 1195.69 909.447 1197.45 907.097C1199.2 904.751 1215.37 908.989 1219 909.001C1242.96 909.079 1259.04 910.611 1283 906M229 908C230.543 909.267 231.048 909.489 233 910C231.637 908.517 231.027 908.363 229 908M558 909C556.662 920.422 558.694 934.359 563 945C567.895 935.244 562.398 918.2 558 909M477.667 914.667C477.722 914.722 477.777 915.778 477.333 915.333C477.278 915.278 477.222 914.222 477.667 914.667M535 917C535.545 918.635 535.365 918.455 537 919C536.227 917.824 536.175 917.773 535 917M477 920C475.365 919.455 475.545 919.635 475 918C476.176 918.773 476.227 918.824 477 920M472 921C471 923.541 470.301 924.547 468 926C468.902 923.325 469.579 922.447 472 921M556 945C555.875 947.153 555.571 948.918 555 951C559.423 951.491 559.037 946.997 556 945M518 957C518.642 958.75 518.859 960.127 519 962L517 962C517.141 960.127 517.358 958.75 518 957M519 968C517.365 967.455 517.545 967.635 517 966C518.175 966.773 518.227 966.824 519 968M517 988L519 991L517 988M490.333 1002.67C490.278 1002.72 490.222 1003.78 490.667 1003.33C490.722 1003.28 490.778 1002.22 490.333 1002.67M326.333 1004.67C326.277 1004.72 326.223 1005.78 326.667 1005.33C326.722 1005.28 326.778 1004.22 326.333 1004.67M491 1006L490 1011C490.964 1009.11 491.25 1008.1 491 1006M492 1015L493 1016L492 1015M509 1033L510 1034L509 1033M457 1053C456.014 1054.48 456 1054.2 456 1056C457.766 1055.02 457.956 1054.78 457 1053M457 1060C458.635 1059.45 458.455 1059.64 459 1058C457.825 1058.77 457.773 1058.82 457 1060M148 1074C150.177 1073.26 150.723 1072.9 152 1071C149.261 1071.21 148.578 1071.3 148 1074M1309 1190C1310.48 1204.84 1296.77 1183.99 1295 1179C1292.39 1181.5 1280.71 1205.25 1274.25 1199.89C1270.57 1196.85 1271.49 1184.73 1269 1180C1263.16 1187.45 1273.06 1198.1 1271.19 1207C1266.87 1227.58 1237.17 1250.32 1242 1273C1255.22 1259.69 1258.78 1229.87 1274 1219C1276.12 1232.98 1281.97 1248.96 1281.02 1263C1280.45 1271.39 1273.42 1279.27 1282 1286C1288.43 1259.56 1288.94 1234.43 1306 1211C1307.01 1215.66 1308.46 1219.94 1313 1222L1309 1207C1320.49 1217.78 1321.52 1237.35 1324.19 1252C1325.32 1258.22 1324.46 1267.99 1331 1271C1328.11 1254.73 1326.62 1238.12 1322.82 1222C1321.02 1214.33 1314.56 1207.29 1316.04 1199C1317.82 1189.09 1330.11 1183.23 1333 1173C1325.22 1177.14 1318.23 1191.57 1309 1190M1954 1252C1945.73 1252.53 1937.56 1256.08 1930.31 1250.09C1922.82 1243.91 1916.81 1223.37 1929.03 1219.1C1939.49 1215.45 1948.58 1224.2 1959 1223.82C1963.35 1223.66 1970.56 1219.96 1974.54 1221.68C1981.93 1224.86 1979.7 1235.89 1991 1236.82C2002.6 1237.77 2007.21 1229.01 2016.14 1224.26C2023.3 1220.44 2033.07 1223.25 2037 1214C2030.1 1214.73 2018.03 1216.99 2012 1220.31C2004.94 1224.19 2000.14 1232.64 1991 1231.75C1973.99 1230.09 1989.67 1213.09 1989.11 1212.78C1983.74 1209.78 1968.94 1217.4 1963 1218.52C1951.07 1220.77 1936.62 1213.76 1924 1214C1928.56 1206.92 1934.42 1191.74 1943.17 1189.08C1950.77 1186.78 1949.97 1205.46 1954.2 1201.21C1961.29 1194.1 1951.53 1181.82 1943 1183.57C1928.41 1186.57 1919.87 1210.21 1917.72 1223C1915.94 1233.58 1919.17 1247.68 1927.68 1254.7C1934.54 1260.36 1949.79 1261.27 1954 1252M2019 1185C2004.83 1187.02 1982.08 1183.39 1971.1 1193.32C1968.02 1196.1 1960.58 1218.31 1967.78 1214.33C1972.61 1211.66 1970.61 1197.43 1981 1193.17C1990.53 1189.25 2015.33 1199.49 2019 1185M463 1190C459.882 1208.77 487.226 1237.75 496.172 1254C500.048 1261.04 501.216 1271.99 510 1274C507.602 1263.47 501.146 1255.23 498 1245C504.522 1253.57 509.051 1270.99 518 1276C521.859 1247.78 479.054 1227.78 475 1203C491.957 1212.1 511.251 1231.17 530 1235C528.04 1226.55 517.909 1222.4 511 1218.36C494.94 1208.98 479.384 1198.94 463 1190M1291 1226C1291.15 1221.78 1292.88 1193.93 1296.45 1193.32C1311.61 1190.74 1296.12 1222.67 1291 1226M929 1197C917.864 1224.52 911.596 1266.38 907.765 1296C905.948 1310.04 907.167 1332.72 896 1344C896 1324.99 897 1306.04 897 1287C897 1284.73 898.251 1268.43 894.078 1269.32C890.155 1270.17 892 1285.92 892 1289C892 1310.87 892.199 1332.32 893 1354C905.494 1349.22 919.162 1301.03 920 1288C916.269 1291.77 914.032 1296.5 910 1300C917.014 1265.48 924.479 1240.36 956 1221C952.387 1229.36 946.355 1237.4 941.287 1244.98C938.969 1248.45 919.573 1278 924.318 1278C928.559 1278 931.917 1267.04 933.775 1264.04C942.285 1250.29 951.059 1235.64 961.129 1223C965.861 1217.06 978.693 1212.87 981.332 1206.84C982.439 1204.31 974.927 1202.61 974 1199C956.85 1209.52 943.87 1230.96 924 1239C926.028 1228.12 934.745 1207.01 929 1197M1289 1197C1292.41 1212.69 1284.97 1232.12 1284 1248C1270.77 1236.45 1277.03 1206.46 1289 1197M1571 1254C1580.16 1260.49 1582.38 1278.51 1581.91 1289C1581.8 1291.41 1578.44 1301.61 1582.31 1302.21C1583.76 1302.44 1597.07 1270.93 1602 1267C1604.45 1280.24 1600.25 1292.75 1600 1306C1611.14 1302.16 1610.76 1280.87 1614 1270C1619.7 1275.03 1621.97 1305.23 1624.14 1305.68C1624.46 1305.74 1634.58 1272.95 1638 1269C1638 1275.67 1635.57 1284.02 1642 1288C1644.6 1277.54 1643.79 1269.8 1649 1260C1632.57 1253.5 1647.11 1213.09 1625 1203.37C1599.85 1192.31 1574.94 1233.74 1567.62 1252C1566.02 1255.99 1561.11 1278.03 1567.35 1279.71C1571.47 1280.82 1570.65 1257.74 1571 1254M1607 1272C1607 1260.34 1605.57 1250.29 1599.45 1240.14C1597.33 1236.63 1587.86 1230.59 1588.32 1226.74C1589.81 1214.46 1617.74 1202.34 1627.38 1210.29C1650.14 1229.06 1620.8 1258.77 1607 1272M160 1228C165.808 1242.58 152.758 1278.84 149.062 1295C148.244 1298.57 141.727 1315.3 144.081 1317.69C150.882 1324.58 154.375 1299.77 154.849 1297C158.407 1276.25 161.74 1224.71 190 1228.27C193.561 1228.72 200.618 1229.87 201.359 1234.15C204.439 1251.95 188.871 1282.68 185.633 1301C184.629 1306.68 185.2 1318.19 180.501 1322.18C170.747 1330.45 145.428 1319.86 133 1323C139.629 1327.64 181.498 1333.94 186.665 1326.36C194.101 1315.45 193.61 1286.57 197.062 1273C199.16 1264.75 211.635 1235.17 206.178 1228.71C194.978 1215.47 173.664 1226.92 160 1228M540 1223C530.147 1244.37 517.928 1279.48 517 1303C525.73 1303.96 510.201 1329.88 506 1334C506 1318.95 505.477 1304.02 504.96 1289C504.899 1287.23 504.113 1274.26 500.36 1276.54C496.908 1278.65 499.991 1290.39 500 1294C500.048 1312.76 502.66 1331.37 502 1350C515.762 1344.66 526.945 1308.15 534.537 1295.32C535.473 1293.74 546.434 1278 540.751 1278C534.271 1278 527.988 1296.52 522 1300C529.015 1276.02 541.484 1248.15 542 1223L540 1223M1585 1278C1584.98 1266.69 1576.3 1258.27 1575.99 1248C1575.84 1243.06 1580.84 1232.52 1586.94 1234.3C1610.36 1241.13 1599.62 1269.64 1585 1278M495 1240C496.267 1241.54 496.489 1242.05 497 1244C495.727 1242.51 495.272 1241.9 495 1240M1636 1245C1642.17 1261.01 1633.37 1267.79 1626 1281C1614.06 1266.38 1621.35 1253.62 1636 1245M529 1489C529.777 1497 539.896 1529.41 528 1530C528 1540.32 530.754 1552.78 522 1560C522 1544.11 522.721 1526.14 528 1511C517.224 1514.79 519.952 1553.08 518.892 1563C517.802 1573.2 507.935 1581.47 505.934 1592C502.245 1611.43 508.97 1617.79 513.567 1635C516.711 1646.77 514.76 1658.97 518.922 1671C521.449 1678.3 522.074 1690.3 528 1695C530.626 1684.66 542.624 1670.22 547.538 1659C561.348 1627.46 573.875 1595.03 588.758 1564C594.833 1551.33 612.597 1535.23 613 1522C606.087 1525.68 601.134 1532.18 595 1537C598.21 1530.07 603.884 1524.78 605 1517C589.955 1525.74 588.086 1559.33 570.888 1565.36C567.63 1566.5 568.483 1549.45 568.88 1547C571.855 1528.6 583.966 1510.9 591 1494C588.43 1493.53 587.225 1492.09 585 1491C575.784 1508.44 560.101 1521.24 552.217 1540C551.176 1542.48 546.6 1554.13 542.139 1549.97C529.525 1538.22 549.406 1499.14 529 1489M1276 1511L1279 1508C1277.08 1508.9 1277 1509.08 1276 1511M577 1509C574.93 1522.29 570.299 1544.97 555 1545C557.376 1534.82 566.954 1513.16 577 1509M1188 1613C1207.19 1609.09 1218.26 1586.97 1236 1581C1232.61 1590.47 1207.44 1623.36 1217 1630C1219.26 1624 1223.98 1619.43 1225 1613C1230.6 1617.21 1238.26 1651.98 1234.29 1658.36C1233.2 1660.11 1221.18 1664.4 1218 1667C1220.15 1661.96 1224 1658.1 1226 1653C1203.86 1665.6 1207.21 1710.21 1215.49 1730C1219.43 1739.43 1230.81 1743.56 1237 1734C1227.13 1736.22 1218.7 1734.9 1216 1724C1238.31 1734.32 1244.59 1706.8 1247.62 1690C1252.48 1663.03 1228.37 1636.2 1230.76 1608C1232.42 1588.36 1258.15 1564.86 1273.01 1554.68C1282.52 1548.16 1289.83 1538.9 1299.02 1532.33C1300.82 1531.05 1308.2 1526.99 1306.3 1523.78C1304.58 1520.9 1298.51 1525.46 1297.06 1526.62C1288.29 1533.63 1279.2 1538.81 1269 1544C1270.35 1537.2 1284.22 1520.74 1278.74 1514.07C1274.79 1509.26 1270.42 1519.79 1268.92 1522C1261.44 1533.02 1256.36 1547.7 1247.37 1557.45C1232.19 1573.92 1195.34 1592.36 1188 1613M306 1536C287.216 1560.27 287.314 1584.63 255 1595C261.553 1585.89 272.306 1579.52 278 1570C232.871 1588.82 216.98 1662.94 225 1706C228.201 1696.55 225.288 1684.89 226.22 1675C228.518 1650.62 234.012 1623.02 249.297 1603.15C256.94 1593.21 277 1595.49 286.253 1583.96C295.114 1572.91 292.125 1553.21 305 1546C300.954 1565.04 299.142 1588.93 287.06 1604.96C272.878 1623.78 251.829 1629.92 242.653 1654C231.436 1683.44 244.937 1717.55 235.596 1747.32C232.69 1756.58 204.983 1782.63 194.822 1770.39C192.546 1767.65 194.088 1763.25 197.261 1762.02C218.779 1753.68 234.151 1736.3 226 1711C219.432 1725.01 225.652 1753.72 202.011 1757.19C195.577 1758.14 195.514 1752.73 196.144 1748C197.845 1735.23 200.008 1723.01 198.881 1710C197.995 1699.77 191.996 1694.94 196 1685C170.984 1688.22 166.545 1664.44 177.788 1644.17C180.622 1639.07 186.392 1643.33 191 1641.97C201.861 1638.75 205.865 1624.85 218 1625C213.413 1614.7 200.459 1625.7 193 1627C195.849 1621.72 198.696 1616.85 205 1616C202.483 1601.39 210.713 1585.67 203.75 1570C192.398 1544.46 156.28 1534.75 143.417 1564C136.571 1579.56 134.513 1605.3 138.417 1622C141.972 1637.21 150.807 1647.73 149.528 1665C148.306 1681.49 132.5 1677.63 127.75 1687.08C125.85 1690.86 128.828 1702.08 128.361 1707C127.357 1717.58 121.319 1725.99 121.222 1737.61C121.058 1757.37 117.412 1777.4 114.917 1797C114.602 1799.47 110.466 1815.33 115 1815.33C118.036 1815.33 116.927 1802.47 118.5 1800C127.046 1786.58 123.555 1760.6 126.611 1743C127.461 1738.11 127.914 1725.71 134 1725C133.528 1723.58 133.186 1723.19 132 1722C139.541 1718.29 134.78 1713.49 128 1717C130.725 1709.32 131.313 1697.93 135.241 1691.16C140.114 1682.77 149.739 1680.35 153.685 1670C156.427 1662.81 153.68 1648.59 159.24 1642.97C161.67 1640.52 170.614 1642.05 174 1642C171.238 1654.91 164.813 1671.38 172.365 1683.97C179.511 1695.89 192.851 1694.9 194.763 1712C197.702 1738.29 185.904 1763.66 188.801 1790C189.352 1795 189.888 1812.69 195.438 1814.89C197.397 1815.67 190.146 1781.25 194.579 1778.58C203.627 1773.12 217.069 1776.24 226.201 1768.38C257.384 1741.54 235.416 1695.04 245.61 1661C253.983 1633.04 280.075 1628.12 292.879 1605.98C304.376 1586.11 300.239 1555.98 314 1539C311.198 1538.22 308.645 1537.21 306 1536M842 1604C859.421 1623.01 842.312 1636.35 840 1656C850.284 1655.7 859.69 1662.93 870 1664C869.564 1655.47 875.544 1647.67 876.258 1639C876.952 1630.57 872.067 1623.48 875.586 1615C884.426 1593.69 905.436 1584.65 891 1559C887.219 1566.76 892.73 1572.18 891.738 1580C890.148 1592.54 881.185 1600.77 872 1608C873.086 1600.84 875.19 1595.15 879 1589C852.398 1592.01 892.174 1660.13 856.004 1653.67C853.394 1653.21 849.971 1651.95 849.878 1648.81C849.627 1640.34 855.725 1631.01 855.956 1622C856.168 1613.75 850.575 1607.85 849.887 1600.01C849.16 1591.73 859.438 1591.31 864.999 1588.32C878.54 1581.04 892.207 1567.54 882.634 1551.03C874.815 1537.54 847.694 1543.39 839.981 1554.02C835.145 1560.69 835.434 1569.97 829.852 1575.68C825.779 1579.85 809.492 1590.93 810.423 1597.5C810.75 1599.81 816.637 1600.7 818.32 1602.32C827.097 1610.8 835.009 1620.7 842 1604M535 1547C535.432 1553.53 531.388 1552.99 533 1547L535 1547M838 1567C840.916 1555.93 866.304 1539.08 876.741 1551.12C889.639 1565.99 870.405 1586.3 855.085 1587.02C830.443 1588.16 851.577 1560.01 838 1567M172 1575C168.659 1572.6 166.964 1567.86 161.999 1568.75C158.431 1569.38 148.314 1580.37 145.133 1576.22C141.962 1572.09 157.121 1547.7 159 1558C176.197 1538.6 174.747 1560.86 172 1575M562 1549C561.518 1551.36 561.364 1551.52 559 1552L562 1549M176 1575C176.149 1538.55 201.289 1568.59 201.902 1589C201.991 1591.95 200.727 1605.36 196.534 1605.36C183.413 1605.36 204.358 1563.56 185.096 1567.43C181.079 1568.24 179.647 1573.3 176 1575M559 1556C558.692 1563.72 554.867 1570.38 554 1578C559.624 1574.97 558.163 1567.05 564 1565C566.526 1579.28 555.029 1607.72 543.761 1617C536.012 1623.39 518.881 1625.6 515 1614C530.39 1611.91 522.209 1591.88 524.661 1582C528.042 1568.37 533.384 1575.12 534.134 1585C534.362 1588.01 534.82 1590.98 535 1594L539 1593C537.25 1586.19 537.003 1579.01 537 1572C544.304 1580.02 539.541 1592.17 548 1600C545.109 1584.48 538.021 1560.8 559 1556M538 1566L537 1567L538 1566M581 1568C578.005 1582.81 570.914 1599.18 563 1612C560.823 1600.34 570.814 1574.11 581 1568M189 1570C189.309 1573.33 189.928 1576.65 189.742 1580C188.084 1609.81 170.147 1576.8 189 1570M523 1571.33C523.773 1571.33 523.16 1571.83 522.667 1571.67L523 1571.33M167 1587C151.107 1580.51 169.182 1563.44 167 1587M513 1609L511 1609C510.233 1605.43 510.825 1573.89 518.363 1577.11C520.381 1577.97 513.83 1605.13 513 1609M1979 1654C1950.14 1656.34 1949.13 1695.08 1970.01 1708.79C2001.95 1729.77 2032.47 1672.55 2015.91 1647C2008.38 1635.38 1981.38 1642.33 1981.11 1635.97C1980.14 1612.94 1997.33 1599.71 2004 1580C1982.81 1591.28 1968.43 1631.79 1979 1654M157 1635C140.592 1631 141.886 1611.39 142.003 1598C142.031 1594.83 143.248 1580.9 148.785 1582.29C152.889 1583.32 150.296 1590.52 149.564 1593C144.461 1610.32 149.295 1619.86 157 1635M170 1582C173.787 1583.77 184.681 1602.41 181.719 1606.04C176.78 1612.09 168.707 1596.83 168.564 1593C168.429 1589.37 169.748 1585.64 170 1582M837 1582C840.932 1589.72 835.325 1614.95 827 1603C829.827 1601.31 831.366 1599.86 833 1597C830.639 1597.52 828.412 1597.84 826 1598C823.458 1589.1 828.252 1585.18 837 1582M155 1603C153.59 1596.43 154 1589.69 154 1583C163.856 1587.14 163.398 1597.61 155 1603M1200 1617C1209.39 1612.56 1222.66 1600.52 1227 1591C1218.02 1595.23 1200.38 1606.07 1200 1617M175 1612C168.553 1611.87 162.988 1610.3 157 1608L163 1598C167.871 1601.08 172.997 1606.58 175 1612M186 1607C185.197 1616.63 179.085 1628.11 171 1616C178.411 1616.47 180.713 1611.24 186 1607M192.703 1609.43C198.886 1610.44 189.981 1627.43 184.551 1626.7C181.774 1626.32 189.819 1608.95 192.703 1609.43M152 1609C154.485 1610.97 162.962 1613.98 163.895 1616.65C164.763 1619.14 159.378 1621.26 160.64 1623.17C161.553 1624.55 178.638 1618.55 174.677 1627.74C169.69 1639.31 148.449 1620.41 152 1609M1539 1611.17C1525.74 1614.21 1518.76 1628.46 1523.03 1641C1524.27 1644.65 1529.43 1648.88 1528.92 1652.78C1528.01 1659.78 1518.62 1667.65 1516.8 1676C1513.36 1691.81 1534.52 1703.89 1548 1700.96C1560.32 1698.28 1577.45 1684.68 1574.51 1669.98C1573.45 1664.74 1566.98 1661.74 1566.5 1656.78C1566 1651.65 1571.41 1645.53 1571.88 1640C1573.37 1622.56 1557.17 1607.02 1539 1611.17M509 1614C511.156 1616.51 512.139 1618.81 513 1622C509.233 1620.4 507.904 1618.01 509 1614M1546.5 1616.15C1552.26 1618.35 1555.44 1658.46 1536.22 1650.06C1518.28 1642.22 1528.06 1609.12 1546.5 1616.15M1558 1655C1560.21 1648.31 1562.74 1642.12 1563 1635C1556.36 1639.66 1559.32 1649.5 1552 1653C1553.62 1647 1552.08 1623.98 1555.82 1621.02C1560.47 1617.35 1566.72 1626.37 1567.58 1630C1569.97 1640.14 1567.33 1649.87 1558 1655M545 1622C543.711 1631.61 538.723 1671.81 528.04 1674.89C523.966 1676.07 523.62 1666.32 523.191 1664C521.054 1652.45 517.11 1636.49 520 1625C520.642 1626.75 520.859 1628.13 521 1630C529.374 1627.8 536.823 1624.79 545 1622M182 1631C180.018 1633.65 178.224 1634.34 175 1635C176.391 1631.48 178.361 1631.19 182 1631M197 1631C190.257 1642.9 177.681 1633.65 197 1631M154 1647C150.932 1644.53 150.326 1641.85 150 1638C154.197 1639.66 153.965 1642.87 154 1647M2000.84 1642.92C2009.2 1638.56 2015.85 1654.48 2016.7 1660C2018.99 1674.98 2011.89 1694.78 1998 1702.22C1975.48 1714.28 1948.49 1693.1 1963.66 1669.22C1966.5 1664.75 1983.36 1651.08 1986.89 1662.41C1988.46 1667.44 1978.52 1663.56 1979.21 1667.28C1979.77 1670.38 1983.63 1670.85 1985.96 1669.73C1996.25 1664.79 1995.08 1645.93 2000.84 1642.92M1991.5 1644.42C1996.39 1645.56 1993.83 1658.73 1988.44 1657.24C1980.71 1655.09 1982.81 1642.39 1991.5 1644.42M1534 1657.76C1556.78 1652.99 1537.91 1675.78 1544.53 1677.81C1549.77 1679.42 1551.37 1661.34 1561 1662.45C1581.7 1664.82 1561.51 1691.64 1551 1694.57C1525.2 1701.75 1509.28 1662.93 1534 1657.76M1229.31 1667.07C1236.33 1665.09 1236.11 1676.02 1236.56 1680C1237.84 1691.31 1243.36 1718.55 1226.94 1722.45C1218.5 1724.46 1215.45 1714.36 1215.08 1708C1214.45 1697.06 1214.97 1671.1 1229.31 1667.07M1241 1693C1240.83 1690.14 1237.94 1668.64 1241.22 1668.64C1248.57 1668.64 1244.25 1690.12 1241 1693M2089 1733C2099.58 1734.64 2091.6 1725.62 2089 1733M133 1737L132 1752C134.351 1747.45 134.643 1741.85 133 1737M131 1754L130 1761L132 1761C131.95 1758.49 131.819 1756.37 131 1754M129 1775C126.715 1781.43 124.052 1789.89 130 1795C129.878 1788.58 130.012 1781.28 129 1775M2040 1963C2028 1961.75 1999.97 1953.05 1992.96 1942.54C1989.43 1937.25 1988.5 1918.76 1988.09 1912C1987.63 1904.73 1989.8 1867.71 1982.3 1864.76C1978.22 1863.15 1972.61 1879.22 1971.38 1882C1963.97 1898.75 1953.09 1926.77 1934 1931.78C1930.33 1932.75 1906.89 1936.51 1906.32 1939.59C1904.65 1948.72 1937.25 1953.28 1939.95 1963.01C1943.65 1976.32 1949.28 1991.44 1951.64 2005C1952.19 2008.14 1953.39 2019.34 1958.41 2018.68C1979.67 2015.85 1967.4 1971 1986.03 1965.5C1999.32 1961.58 2030.57 1973.63 2040 1963M1981 1873C1985.95 1894.15 1981.18 1917.8 1987 1939C1963.92 1933.51 1987.55 1912.4 1977.4 1907.43C1971.02 1904.29 1968.77 1923.32 1965.97 1926.03C1962.62 1929.26 1951.62 1929.53 1947 1930C1951.14 1920.39 1960.33 1912.41 1965.53 1903C1970.6 1893.82 1973.28 1880.05 1981 1873M911 1882C915.42 1882.57 919.769 1880.2 924 1879L923 1883C930.964 1879.98 936.356 1877.53 945 1876C934.941 1870.21 919.812 1876.29 911 1882M946.667 1875.33C946.222 1875.78 947.278 1875.72 947.333 1875.67C947.778 1875.22 946.722 1875.28 946.667 1875.33M952.667 1877.33C952.222 1877.78 953.278 1877.72 953.333 1877.67C953.778 1877.22 952.722 1877.28 952.667 1877.33M957 1879C963.665 1890.2 975.037 1896.82 976.756 1911C978.845 1928.23 972.381 1947.99 966.635 1964C951.689 2005.65 930.175 2079.56 873 2073.52C802.975 2066.13 789.861 1974.2 841 1936C843.17 1954.35 865.707 1957.13 875 1942C866.684 1944.17 833.42 1948.86 848.169 1928.26C861.003 1910.33 896.17 1893.93 918 1896.44C923.287 1897.05 953.456 1908.79 950.773 1913.04C956.198 1904.46 929.232 1894.17 924 1893.37C897.742 1889.34 881.668 1902.22 859.68 1913.3C855.193 1915.56 850.606 1911.09 846.199 1913.9C840.075 1917.81 841.065 1927.53 836.653 1933C821.825 1951.38 805.386 1968.21 802.34 1993C797.733 2030.49 838.995 2079.14 877 2077.96C937.198 2076.08 964.068 1996.78 975.663 1947C980.156 1927.71 987.256 1882.81 957 1879M901 1888L902 1889L907 1886C904.371 1885.79 903.24 1886.55 901 1888M1257 1902.46C1226.16 1905.17 1198.73 1924.83 1188.8 1955C1178.56 1986.1 1206.7 2016.1 1238 2013.86C1275.43 2011.19 1285.19 1969.32 1285 1939C1284.91 1925.43 1272.72 1901.08 1257 1902.46M185 1975C186.885 1947.23 164.545 1907.07 212 1907C174.644 1892.57 164.683 1956.36 185 1975M1244 1931C1253.96 1928.1 1264.14 1918.06 1275.68 1924.34C1283.07 1928.35 1281 1941.15 1281 1948C1281 1971.36 1272.74 1997.55 1249 2006.95C1206.36 2023.84 1177.65 1972.9 1200.72 1939C1210.62 1924.45 1227.15 1910.57 1245 1907.5C1249.73 1906.69 1275.61 1905.5 1270.29 1916.65C1267.45 1922.62 1249.7 1924.9 1244 1931M905 1919C930.178 1912.88 915.286 1935.09 918 1949C911.445 1945.84 910.716 1942.69 909 1936C904.004 1939.27 905.733 1942.93 907 1948C904.967 1947.24 891.195 1939.61 890.323 1943.22C888.895 1949.13 918.158 1957.15 921.937 1948.85C925.635 1940.74 929.074 1926.35 924.889 1918C919.431 1907.12 907.57 1905.85 905 1919M224 1911C225.431 1914.63 227.368 1916.57 231 1918C229.116 1914.95 226.925 1913.06 224 1911M1651 1911C1646.19 1917.27 1644.64 1927.1 1638.74 1932.25C1629.5 1940.3 1615.85 1940.46 1608.07 1950.54C1599.18 1962.06 1600.57 1981.16 1591.01 1991.46C1587.44 1995.3 1563.64 1989.4 1563.64 1993.82C1563.64 1999.9 1584.74 1994.8 1587.8 1998.8C1590.89 2002.83 1582.23 2020.31 1582 2026L1586 2024C1585.22 2029.47 1583.72 2034.52 1585 2040C1590.02 2033.53 1592.64 2021.9 1595 2014C1597.2 2028.63 1588.08 2034.59 1596 2049C1603.16 2045.85 1605.52 2036.27 1606 2029C1603.47 2033.02 1601.65 2036.83 1598 2040C1600.71 2031.49 1603.39 2021.62 1608 2014C1616.19 2025.65 1607.82 2034.33 1606 2047C1614.08 2043.85 1617.76 2040.58 1620 2032C1617.53 2033.96 1615.91 2036.48 1614 2039C1613.14 2027.59 1618.33 2020.32 1629 2019C1625.34 2030.61 1619.53 2042.13 1617 2054C1621.47 2051.33 1622.43 2043.32 1626.98 2041.89C1631.68 2040.4 1629.33 2058.38 1635.61 2051.23C1646.88 2038.38 1643.88 2006.73 1656 1998C1656.25 2005.12 1656.49 2010.96 1655 2018C1659.43 2014.29 1668.34 1979.62 1665.78 2008C1665.54 2010.67 1665.16 2013.31 1665 2016L1667 2016C1667.93 2000.64 1668.63 1996.64 1683 1993C1678.7 1989.54 1674.2 1989.89 1669 1991C1668.74 1980.04 1667.48 1958.3 1661.97 1949C1658.4 1942.98 1647.66 1938.72 1645.76 1932.86C1643.46 1925.75 1652.52 1918.61 1651 1911M848 1923C848.337 1913.49 855.349 1919.28 848 1923M232 1918L233 1919L232 1918M526 1946C533.857 1946.28 540.773 1936.15 547.003 1932.05C557.453 1925.17 569.747 1921.89 582 1920C562.574 1909.97 538.682 1935.08 526 1946M1215 1952C1232.27 1948.15 1230.28 1908.63 1220.21 1932.08C1219.13 1934.61 1218.88 1937.37 1218.14 1940C1217.01 1944.08 1215.49 1947.76 1215 1952M587 1927C599.05 1930.48 609.763 1929.32 618.515 1940.04C626.573 1949.91 625.013 1963.13 625 1975C624.961 2009.6 611.25 2050.29 582 2070.75C545.399 2096.35 506.645 2076.5 497.787 2035C494.944 2021.68 497.431 2009.1 500 1996C479.198 2020.93 497.849 2067.73 523 2081.64C541.953 2092.12 568.574 2086.86 585.32 2074.11C617.341 2049.74 630.617 2004.14 629.942 1965C629.611 1945.81 611.01 1913.18 587 1927M1247 1956C1264.33 1951.87 1258.53 1918.11 1253.26 1937C1252.51 1939.71 1251.86 1942.4 1250.76 1945C1249.19 1948.74 1247.58 1951.95 1247 1956M1934 1940C1940.94 1950.3 1954.67 1941.58 1962.46 1950.04C1969.63 1957.82 1957.28 1986.6 1956 1996C1949.4 1994.07 1945.21 1967.67 1945 1961C1966.56 1969.66 1916.53 1944.58 1913 1940C1928.61 1940.49 1947.06 1927.18 1962.52 1931.4C1966.93 1932.6 1967.62 1940.65 1962.85 1941.84C1955.07 1943.78 1942.37 1940.16 1934 1940M1644.15 1939.26C1650.56 1937.82 1661.4 1955.42 1657.21 1957.24C1658.55 1956.66 1630.12 1942.4 1644.15 1939.26M1969 1938L1968 1939L1969 1938M201 1939C196.133 1955.78 193.182 1973.29 185.115 1989C182.692 1993.72 168.869 2009.24 171 1995C164.622 1999.06 166.522 2010.03 175.008 2006.42C189.091 2000.43 209.56 1952.79 201 1939M596 1951C594.727 1932.04 572.565 1939.33 566.331 1951C564.726 1954.01 561.078 1962.5 567.078 1963.7C568.698 1964.02 573.356 1948.76 576.122 1946.37C584.374 1939.22 589.226 1947.02 596 1951M1989 1948C1963.9 1945.43 1982.53 1932.55 1989 1948M1636 1941L1636 1944C1634.88 1942.33 1634.88 1942.67 1636 1941M139 1943C136.343 1955.16 137 1967.63 137 1980L130 1978C136.794 1992.73 127.264 2020.21 139 2031C138.52 2023.04 134.502 2014.25 141 2008C145.468 2023.88 156.557 2037.12 163.46 2052C164.436 2054.1 171.299 2065.71 173.9 2058.31C177.195 2048.93 162.329 2029.6 158.008 2022C152.372 2012.09 143.029 1995.38 142.034 1984C140.791 1969.78 144.7 1957.17 141 1943L139 1943M1635 1950L1630 1949L1630 1947C1633.08 1946.69 1633.84 1947.14 1635 1950M527 1964C526.747 1945.99 542.531 1956.16 551 1959C545.455 1938.7 513.526 1954.7 527 1964M1618 1950.33C1618.89 1950.33 1618.89 1951.67 1618 1951.67C1617.11 1951.67 1617.11 1950.33 1618 1950.33M1616 1952L1615 1953L1616 1952M1974.27 1953.51C1980.58 1952.34 1980.84 1960.94 1975.06 1961.38C1970.65 1961.71 1970.11 1954.28 1974.27 1953.51M1648 1953L1648 1960C1645.15 1957.55 1645.7 1955.75 1648 1953M1649 1974C1625.59 1961.78 1647.42 1947.23 1649 1974M2021 1962C2016.65 1962 1985 1962.75 1985 1958.94C1985 1953.92 2018.02 1959.46 2021 1962M1654 1960C1655.06 1962.7 1655.67 1965.12 1656 1968C1651.56 1966.82 1651.29 1964.23 1652 1960L1654 1960M1625.58 1962.88C1627.71 1961.68 1630.48 1964.31 1628.14 1965.97C1626.05 1967.45 1623.13 1964.26 1625.58 1962.88M1973.53 1966.08C1977.01 1966.74 1964.91 2012.92 1959.51 2010.89C1953.96 2008.81 1970.76 1965.56 1973.53 1966.08M1222 1967.02C1217.94 1968.46 1209.8 1980.13 1218.65 1979.43C1222.55 1979.13 1217.84 1970.59 1224.98 1973.17C1234.26 1976.54 1238.38 1989.44 1249.96 1984.4C1251.66 1983.65 1264.2 1974.07 1258.65 1974.14C1253.19 1974.2 1249.12 1981.46 1243.48 1980.24C1235.25 1978.46 1231.83 1963.54 1222 1967.02M863 1998C870.393 1997.74 878.852 1997.81 886 1996C882.854 1989.75 877.034 1990.93 871 1992C872.905 1984.83 876.265 1978.29 878 1971C870.756 1974.04 865.547 1990.74 863 1998M1622.36 1971.89C1630.46 1968.39 1625.82 1989.01 1620.63 1991.51C1610.39 1996.44 1617.34 1974.06 1622.36 1971.89M1628 1992C1629.97 1986.91 1631.07 1976.53 1635.15 1972.91C1639.02 1969.47 1648.02 1976.12 1649.08 1980.12C1651.74 1990.07 1634.49 1992.76 1628 1992M1608 1974C1610.15 1998.62 1596.85 1978.41 1608 1974M1612 1977C1610.36 1976.45 1610.55 1976.64 1610 1975C1611.18 1975.77 1611.23 1975.82 1612 1977M578 1993C572.286 1993.59 561.45 2001.29 556.542 1999.08C552.885 1997.43 553.892 1974.36 542.674 1981.32C544.241 1980.35 548.893 2000.25 550.822 2002.5C556.719 2009.38 574.162 1998.25 578 1993M1665 1991C1662.17 1989.91 1661.6 1988.97 1661 1986C1663.83 1987.09 1664.4 1988.03 1665 1991M1649 1988L1649 1992L1647 1992L1647 1988L1649 1988M1648 1994C1645.33 1999.69 1637.84 2005.93 1633 2010C1632.95 2006.91 1633.51 2004.05 1634 2001C1629.07 2005.05 1627.5 2011.24 1621 2013C1623.06 1996.08 1633.73 1996.66 1648 1994M1615 2014C1599.94 2005.57 1620.58 1994.64 1620.11 2000.96C1619.74 2005.8 1614.99 2008 1615 2014M1598 2001C1595.64 2000.52 1595.48 2000.36 1595 1998C1597.12 1998.9 1597.1 1998.88 1598 2001M848 2026C848.433 2020 853.557 2015.32 860 2016.39C879.36 2019.59 899.392 2033.4 916 2012C905.302 2010.72 896.199 2020.26 885 2019.95C875.408 2019.68 866.752 2009.82 858 2010.89C851.721 2011.66 834.969 2023.16 848 2026M519 2013C531.77 2033.09 551.276 2028.14 572 2023C560.701 2011.84 547.891 2026.09 536.043 2023.41C528.795 2021.78 527.337 2012.88 519 2013M1641 2012C1638.3 2018.51 1635.13 2034.15 1628 2036C1629.62 2026.9 1632.45 2016.61 1641 2012M1643 2018C1643.41 2021.04 1642.45 2022.26 1640 2024C1640.88 2021.87 1641.78 2019.95 1643 2018M1622 2023L1620 2029C1621.72 2026.88 1622.4 2025.71 1622 2023M854 2038C852.996 2037.77 847.517 2036.39 850.002 2034.27C853.866 2030.97 867.529 2036.62 872 2037.52C884.954 2040.14 911.027 2038.24 919 2026C905.892 2028.46 892.663 2034.96 879 2033.75C870.425 2032.98 854.398 2025.23 846.519 2030.38C837.821 2036.07 846.397 2044.56 854 2038M595 2034C588.111 2032.95 582.66 2039.42 576 2040.35C570.231 2041.16 564.802 2037.34 559.001 2038.72C556.483 2039.32 550.677 2041.96 551.323 2045.4C551.792 2047.89 560.168 2043.35 562 2043.32C577.122 2043.07 582.661 2045.66 595 2034M1636 2033C1635.99 2036.47 1635.85 2039.63 1635 2043C1633.31 2039.4 1634.25 2036.45 1636 2033M147 2051C160.819 2045.35 147.217 2028.62 147 2051M147.5 2061.5C146.873 2062.13 147.873 2063.13 148.5 2062.5C149.127 2061.87 148.127 2060.87 147.5 2061.5M142 2090C140.747 2100.56 138.163 2112.38 136 2123C142.842 2118.17 146.188 2097.34 142 2090M133.333 2127.67C133.278 2127.72 133.222 2128.78 133.667 2128.33C133.722 2128.28 133.778 2127.22 133.333 2127.67M132 2133L132 2137C132.507 2135.31 132.507 2134.69 132 2133z"/>
</svg>
