<?xml version="1.0" standalone="yes"?>
<svg xmlns="http://www.w3.org/2000/svg" width="2200" height="2200">
<path style="fill:#0f0f0f; stroke:none;" d="M1238 46.446C1223.03 48.2974 1179.41 57.3657 1178.07 76C1177.45 84.6858 1180.82 95.9937 1186.35 102.779C1187.41 104.082 1192.59 110.882 1194.65 108.09C1195.63 106.758 1182.26 84.5559 1182.32 79C1182.52 62.8176 1224.1 53.1804 1237 51.9846C1266.63 49.238 1296.55 53.8057 1326 55.8638C1356.78 58.0149 1387.51 55.9548 1406.07 85.7827C1432.34 127.993 1402.56 188.935 1357 197.502C1341.11 200.49 1325.89 204.125 1310.98 209.236C1308.5 210.084 1296.64 212.654 1296.64 215.853C1296.64 219.902 1314.48 210.162 1317.15 218.078C1321.36 230.545 1318.74 246.197 1318.08 259C1317.93 261.841 1315.77 271.756 1317.98 273.633C1323.78 278.538 1322.99 262.806 1323 261C1323.05 251.368 1318.77 218.086 1324.64 211.46C1328.11 207.553 1363.49 197.624 1366.48 201.918C1369.12 205.706 1364.68 220.291 1364.21 225C1362.14 245.636 1361 266.238 1361 287C1361 290.838 1358.11 311.919 1362.82 312.493C1366.98 313.001 1366 289.448 1366 286C1366 264.756 1367.84 244.09 1369.78 223C1370.46 215.641 1369.02 204.883 1373.71 198.706C1383.35 186.011 1404.29 186.056 1411.18 167.999C1413.91 160.861 1411.8 151.756 1414.26 144.002C1424.85 110.519 1414.13 72.0015 1380 56.8311C1367.35 51.2075 1354.27 53.1255 1341 51.5593C1308.5 47.7239 1270.57 42.4187 1238 46.446M97 289C82.6079 244.73 83.966 187.913 142 185.96C149.059 185.722 174.121 180.116 178.858 185.822C183.074 190.9 178.381 204.041 178.078 210C177.019 230.801 172.409 250.941 171.981 272C171.839 278.99 168.482 288.025 173 294C182.446 267.087 178.541 234.267 183.698 206C187.448 185.444 184.216 163.885 186.358 143.136C187.869 128.492 186.52 113.528 188.339 99C189.293 91.3838 193.637 81.5525 190.72 74.0007C187.045 64.4873 170.926 51.1924 160.008 56.26C143.32 64.0056 149.375 85.031 145.904 99C141.148 118.135 139.999 134.631 128.863 152C115.97 172.109 90.6041 195.614 85.7933 219C82.9472 232.835 79.5602 285.021 97 289M114 183C118.448 171.945 128.053 163.309 134.078 153C145.965 132.662 151.97 108.537 152 85C152.009 77.7126 153.818 62.2368 163.156 60.6165C172.211 59.0452 184.065 67.54 186.419 76.0779C188.654 84.1812 184.261 93.9109 183.328 102C181.471 118.083 182.366 134.783 181.038 151C180.485 157.757 183.276 169.692 179.499 175.474C176.561 179.969 167.761 179.736 163 179.781C146.483 179.935 130.295 182.85 114 183M1995 121C1989.24 153.552 2003.15 195.277 2013.25 226C2017.43 238.692 2028.47 261.862 2026.9 275C2023.7 301.613 1984.64 322.15 1977 348C1992.13 342.066 2004.74 315.821 2014.04 303C2038.66 269.051 2065.55 236.194 2092.38 203.922C2101.42 193.049 2108.81 180.881 2118 170.078C2119.07 168.82 2127.44 160.646 2123.23 159.105C2118.02 157.202 2107.33 175.348 2104.7 178.864C2087.84 201.406 2070.51 223.35 2052.42 244.861C2049.48 248.365 2035.37 270.21 2030.76 267.677C2025.75 264.922 2023.65 240.861 2021.78 235C2011.52 202.806 1992.52 156.357 1999.28 122.008C2001.64 110.058 2021.03 106.829 2022.23 94C2023.23 83.2861 1997.87 69.6731 1989 71.5132C1971.56 75.1311 1943.82 108.312 1966.05 122.613C1975.38 128.618 1985.48 122.266 1995 121M2000 79C1990.93 86.0591 2020.17 81.1016 2016.29 95.002C2014.4 101.737 2006.34 106.794 2001 110.661C1996.65 113.806 1991.97 116.244 1987 118.254C1938.54 137.867 1978.58 54.3213 2000 79M448 245C437.941 253.19 439.832 280.89 454.998 282.798C468.423 284.487 480.208 269.168 487.704 260C514.097 227.718 529.008 180.164 541.737 141C546.648 125.892 552.734 96.6072 563 85C568.761 110.741 561.944 138.142 560.136 164C558.372 189.235 561.523 214.694 558.904 240C557.769 250.969 549.095 286.786 562 292C560.991 238.947 565.951 184.935 568.919 132C569.573 120.337 576.45 86.1445 563.47 79.4077C558.984 77.0789 556.382 86.1785 555.397 89C550.89 101.906 547.69 114.665 541.484 127C521.351 167.016 513.045 211.226 488.715 250C483.386 258.492 458.393 291.074 447.927 272.93C443.401 265.084 447.921 253.562 448 245M1686 87C1668.03 80.415 1643.91 100.763 1631 111.105C1587.33 146.102 1557.17 199.625 1541.92 253C1537.64 267.98 1537.28 317.753 1562 316C1556.04 305.626 1547.83 301.143 1545.43 288C1540.81 262.729 1551.1 235.977 1562.15 214C1583.42 171.688 1606.69 134.565 1645 105C1643.58 121.088 1628.46 132.447 1639.81 149.981C1659.17 179.872 1709.54 135.962 1715.42 114C1719.37 99.2073 1692.43 62.7888 1677.41 79.1523C1675.7 81.0132 1697.16 85.5867 1700 87.6426C1726.73 106.98 1696.47 138.549 1676 148.909C1668.41 152.753 1658.21 159.53 1650.02 153.499C1629.01 138.025 1646.75 106.543 1664 96.5244C1670.42 92.7944 1681.48 92.6389 1686 87M1611 349C1602.48 337.505 1581.86 337.82 1570 330.817C1542.43 314.533 1520.22 279.783 1516.26 248C1511.87 212.823 1530.85 179.145 1555 155C1558.19 151.81 1583.43 133.982 1581.11 132.396C1577.39 129.862 1563.07 140.031 1560 142.478C1541.1 157.557 1529.86 177.466 1518.14 198C1484.34 257.185 1547.56 346.491 1611 349M831 289C834.685 280.434 826.811 271.815 822.478 265.04C814.497 252.558 794.063 218.477 803.947 203.099C810.893 192.294 831.663 191.817 843 190.783C881.418 187.28 923.656 183.079 962 186.786C968.289 187.394 1004.97 188.071 1007.24 193.724C1009.07 198.285 991.172 205.262 988 206.471C968.049 214.073 946.625 218.61 926 224.105C923.957 224.65 905.275 229.298 908.106 231.878C912.214 235.622 925.475 229.2 930 227.88C951.381 221.644 974.795 217.809 995 208.323C999.54 206.191 1018.9 198.964 1014.03 191.46C1007.65 181.615 974.382 182.025 964 182.001C923.838 181.906 883.397 181.992 843 184.864C830.695 185.739 806.772 188.372 798.94 199.369C793.722 206.695 797.732 220.391 800.286 228C807.882 250.632 819.869 268.082 831 289M1857 716C1870.52 712.6 1885.58 692.815 1895.08 682.981C1924.52 652.506 1954.93 620.619 1982.19 588.215C1992.16 576.369 2003.66 565.873 2013.66 554C2016.18 551.009 2020.89 541.922 2025.14 541.557C2029.42 541.189 2039.06 548.367 2043 550.465C2057.34 558.1 2071.66 564.939 2087 570.292C2096.71 573.68 2101.45 570.637 2093 563C2082.67 571.554 2054 550.356 2044 545.53C2040.2 543.695 2031.91 541.524 2030.11 537.283C2028.46 533.394 2034.32 527.58 2036.4 524.68C2043.63 514.574 2055.64 496.449 2067.98 492.378C2073.64 490.513 2084.86 497.821 2090 500.216C2105.25 507.313 2136.29 528.609 2153 525C2140.63 508.752 2109.79 505.584 2093 496.563C2088.73 494.266 2077.65 491.657 2075.32 487.276C2072.9 482.7 2095.26 467.941 2100 469.381C2129.15 478.245 2153.44 504.615 2183 513C2179.02 496.543 2135.91 484.073 2122 476.065C2118.59 474.1 2102.43 467.303 2103.2 462.554C2104.29 455.848 2122.76 444.286 2127.68 439.019C2130.3 436.217 2154.13 415.218 2151.26 414.106C2146.16 412.14 2136.19 424.914 2133 427.866C2115.25 444.281 2097.83 460.841 2079 476.041C2047.98 501.083 2026.17 531.72 2000.6 562C1974.45 592.969 1944.89 621.799 1917.78 652C1906.67 664.373 1895.32 678.303 1882.86 689.241C1874.21 696.843 1860.99 704.702 1857 716M118 433C120.656 444.802 130.141 456.795 135.112 468C143.139 486.09 147.636 505.853 156.206 523.68C160.266 532.125 173.89 553.691 172.423 562.661C171.73 566.903 165.958 570.356 163.14 573.226C154.099 582.435 141.729 601.735 130.901 607.499C116.775 615.016 84.5178 613.237 97.1637 641.919C105.59 661.031 124.107 646.397 132.914 636.999C137.362 632.253 143.6 623.993 143.253 617.026C143.062 613.177 138.077 610.698 139.184 606.882C141.727 598.114 153.872 587.238 160.4 581.11C163.056 578.618 169.985 568.498 173.804 569.081C179.025 569.877 183.674 583.797 185.745 588C193.598 603.94 201.558 619.277 211.551 633.999C214.167 637.853 219.688 647.328 225.007 647.757C228.692 648.055 215.73 632.086 214.488 629.959C205.213 614.082 196.083 598.66 188.201 582C185.959 577.261 180.028 569.653 182.316 564.217C190.318 545.206 213.559 533.367 221 515C239.196 526.69 262.706 515.699 268.899 494C272.223 482.354 261.771 470.906 250.003 471.066C229.376 471.347 227.836 498.566 219.988 510.882C213.639 520.847 202.922 527.781 195.594 537C193.005 540.256 182.139 559.981 177.503 558.239C171.348 555.927 166.117 534.827 163.829 529C154.291 504.703 146.365 479.384 134.752 456C130.344 447.123 128.882 435.795 118 433M905 444C899.149 422.077 880.705 467.4 877.182 475.04C855.411 522.261 833.929 573.74 803.134 615.96C794.72 627.495 789.906 639.25 783.939 652C783.004 653.998 776.826 664.162 782.902 664.239C786.564 664.285 791.284 654.714 792.974 652C801.564 638.213 807.828 622.404 815.392 608C821.244 596.854 828.553 580.704 838.343 572.539C850.028 562.791 882.501 558.002 898 558C888.409 541.315 856.04 564.381 844 567C851.37 551.256 864.558 537.456 874.185 523C884.874 506.947 893.434 484.907 908 472C912.964 499.807 906.505 517.129 903.115 544C902.316 550.333 898.796 564.705 907 567C904.504 553.065 910.125 539.706 911 526C916.243 532.075 914 543.388 914 551C914 572.716 916.979 596.56 913.358 618C911.867 626.826 903.664 647.585 912 654C913.205 651.675 915.573 643.741 918.302 643.081C920.252 642.61 920.913 655.374 924.286 650.351C928.841 643.568 924.004 633.615 927.945 626C947.826 587.587 971.606 540.34 999.091 507C1007.05 497.352 1021 474.967 1032 470C1027.82 487.644 1027.84 506.222 1024.01 524C1019.17 546.426 1011.06 568.958 1010.03 592C1009.45 605.093 1007.96 617.808 1008 631C1008 632.42 1008.67 645.529 1012.77 640.913C1015.27 638.103 1012.85 630.544 1013.16 627C1014.36 612.945 1015.33 599.215 1016.08 585C1017.96 549.586 1034.32 515.211 1038.56 480C1039.22 474.532 1047.5 451.103 1043.14 447.408C1040.79 445.412 1036.76 452.755 1035 454C1035.49 444.403 1027.27 452.081 1023.92 455.442C1015.48 463.905 1009.78 475.022 1003.35 485C984.446 514.33 967.412 545.557 950.354 576C943.877 587.558 937.624 607.952 926 615C925.022 587.402 920.452 560.913 921.019 533C921.413 513.585 927.015 494.512 926.646 475C926.364 460.049 923.679 422.41 905 444M914 439C916.48 446.927 917.07 454.474 909 459C908.552 451.318 909.74 446.301 912 439L914 439M901 443C906.608 456.056 884.802 489.227 873 496C876.416 480.18 888.161 452.985 901 443M1004 492C1009.37 481.964 1015.71 471.915 1022.78 463.003C1024.02 461.436 1028.23 454.694 1030.98 456.544C1034.12 458.663 1028.37 465.329 1027.08 466.922C1020.4 475.149 1014.42 488.226 1004 492M905 458C909.111 467.614 898.557 476.444 893.622 484.019C881.671 502.361 870.007 520.94 857.583 539C853.19 545.388 848.427 555.961 841 559C846.769 540.316 860.764 523.36 868 505C873.063 510.103 876.31 498.669 879.028 495C887.259 483.888 894.529 466.784 905 458M917 459C917.506 465.959 919.387 479.885 914 485C913.22 476.624 908.916 464.67 917 459M1038 461L1037 462L1038 461M1668 530C1642.11 506.053 1709.63 501.727 1686.86 531C1684.47 534.069 1681.88 537.059 1678.96 539.632C1674.84 543.258 1670.42 546.035 1665 547C1668.68 538.959 1657.29 532.562 1655.61 540.149C1654.54 544.999 1659.49 548.53 1660.29 553C1663.19 569.151 1670.43 602.446 1696 592.158C1722.56 581.471 1749.49 534.917 1740.2 506.001C1735.5 491.379 1720.66 480.269 1707.56 473.801C1696.66 468.421 1683.81 468.69 1672 467.864C1586.16 461.863 1534.97 560.415 1567.36 634.997C1572.91 647.787 1529.85 665.011 1559.01 681.876C1571.96 689.37 1607.29 673.143 1609.23 657.922C1611.67 638.687 1583.12 645.024 1575.2 638.499C1564.77 629.908 1564.34 608.327 1563.22 596C1557.26 530.653 1601.5 472.941 1668 473C1686.53 473.017 1708.79 475.104 1722.58 489.305C1744.48 511.858 1734.54 546.807 1717.16 569.68C1711.92 576.572 1689.76 597.967 1680.49 587.095C1675.04 580.706 1661.5 563.829 1667.12 554.402C1673.94 542.96 1695.35 540.268 1695.91 522.981C1696.59 501.718 1670.79 498.447 1659.81 513.041C1653.67 521.19 1656.23 532.797 1668 530M440.408 469.257C436.504 474.107 471.919 478.198 476 478.914C514.222 485.614 553.174 493.421 592 495C597.518 495.224 630.942 500.776 633.031 496.561C635.344 491.894 599.314 490.096 595 490C557.404 489.161 515.842 483.243 479.04 475.327C473.072 474.044 444.436 464.252 440.408 469.257M227 501C228.422 493.016 234.048 486.086 242 484C236.814 471.817 256.476 474.953 261.396 481.18C272.79 495.603 240.177 527.395 228.851 514.073C222.174 506.219 241.819 500.312 239.257 493.969C238.272 491.528 228.86 500.177 227 501M1169 641C1173.19 650.407 1186.66 652.487 1189.65 665C1192.97 678.917 1161.49 687.245 1152.36 681.772C1143.97 676.745 1144 667.052 1154 665L1154 662L1149 661C1156.54 657.511 1167.32 661.016 1172 653C1167.21 653.001 1158.39 655.113 1154.42 652.138C1149.01 648.082 1148.98 635.197 1148.07 629C1144.47 604.367 1146.18 590.725 1153.94 567C1168.36 522.909 1219.84 493.708 1264 486.758C1292 482.353 1308.7 489.926 1334 500.292C1342.94 503.954 1353.84 505.2 1360.25 513.06C1380.24 537.541 1369.02 593.208 1337 602.571C1313.54 609.43 1253.62 611.853 1258.5 571C1259.7 560.989 1269.8 554.906 1275 547C1261.22 544.871 1250.71 566.281 1253.87 578C1259.41 598.582 1283.74 614.855 1305 613.352C1317.9 612.44 1337.21 610.262 1348 602.802C1374.41 584.543 1385.51 536.464 1364.5 510.01C1357.27 500.919 1342.54 498.064 1332 494.11C1305.88 484.314 1290.7 477.55 1262 481.456C1204.7 489.256 1146.58 535.519 1139.2 595C1137.38 609.633 1142.26 622.825 1144.53 637C1145.29 641.769 1148.48 649.257 1147.69 653.864C1145.76 665.093 1133.86 676.258 1149.09 685.716C1184.86 707.944 1215.25 642.405 1169 641M530 492C520.435 490.716 516.839 513.725 514.522 521C504.616 552.099 500.632 592.082 486.199 620.94C479.973 633.388 452.933 631.404 459.086 652.997C464.747 672.869 505.039 658.718 509.293 643.999C513.386 629.835 491.365 631.936 491.629 622.93C492.803 582.871 513.667 528.294 530 492M2053.41 514.204C2051.86 515.718 2085.46 533.573 2089.48 528.227C2091.55 525.467 2057 510.677 2053.41 514.204M1659 539C1665.34 541.914 1659.46 548.056 1659 539M2005 574C2009.33 583.974 2034.18 587.791 2043.96 591.143C2073.67 601.329 2102.33 622.144 2129 638.358C2133.28 640.957 2162.3 656.416 2165.59 652.133C2168.14 648.821 2132.92 635.664 2129.05 632.967C2092.33 607.357 2048.91 584.421 2005 574M111 626C111.766 625.05 121.241 604.704 125.246 614.862C126.421 617.84 117.275 624.726 121.531 626.652C121.507 626.641 148.891 602.371 134.793 627C133.582 629.115 132.254 631.13 130.685 632.999C126.161 638.392 118.704 646.245 111 646.152C97.9667 645.996 97.7293 627.435 104.242 620.023C110.068 613.392 111.397 620.912 111 626M918 628C917.892 632.305 917.634 635.378 914 638C914.353 634.561 915.084 631.331 916 628L918 628M489.604 631.136C495.52 629.231 507.533 637.236 504.429 643.914C501.225 650.806 488.887 655.428 482 657.258C466.303 661.429 457.269 647.169 469.402 635.387C478.202 626.841 478.064 639.492 483.992 639.481C487.662 639.473 486.26 632.212 489.604 631.136M1580 646.487C1586.54 645.237 1607.72 646.971 1603.73 658.562C1600.18 668.865 1582.78 676.518 1573 678.418C1559.07 681.125 1549.78 668.479 1557.9 656.019C1563.48 647.449 1571.14 648.179 1580 646.487M1208 1028C1212.09 959.653 1217.25 889.735 1244.48 826C1254.41 802.747 1270.04 766.076 1302 773.626C1325.48 779.173 1311.75 812.188 1307.4 827C1306.11 831.415 1305.61 842.027 1302.1 845.033C1296.41 849.907 1284.22 828.639 1276.53 830.63C1274.57 831.137 1294.22 851.638 1301.76 850.616C1309.03 849.63 1311.29 829.78 1312.68 824C1318.75 798.587 1323.2 754.456 1281 770.666C1260.16 778.669 1251.59 799.222 1242.96 818C1222.24 863.106 1209.72 917.348 1207.96 967C1207.52 979.554 1197.46 1019.29 1208 1028M348 772C266.889 844.807 182.225 914.103 105.783 992.136C87.1889 1011.12 68.0251 1029.52 49.8204 1048.86C42.0841 1057.09 30.601 1065.53 28 1077C41.6463 1074.38 60.8346 1044.17 71 1034C98.5996 1006.4 127.303 979.99 155.003 952.524C167.196 940.433 183.417 919.365 199.217 912.363C213.522 906.024 229.162 942.516 245 940C238.283 930.188 225.306 921.643 216 914.284C213.699 912.464 205.979 909.834 206.426 906.182C206.84 902.8 216.644 896.232 219.261 893.757C222.355 890.833 226.42 885.052 230.995 884.823C235.126 884.617 257.504 901.34 259.239 897.942C263.152 890.277 230.627 885.592 235.969 876.272C240.909 867.656 251.761 861.552 258.866 854.841C279.164 835.673 301.921 819.426 322.04 800.137C328.578 793.869 351.072 782.437 348 772M316 816C317.891 824.869 341.176 841.068 349 846C348.211 834.807 327.032 817.246 316 816M898 869C903.506 882.988 927.951 893.794 932.339 874C935.893 857.963 938.338 833.374 921.554 823.332C905.541 813.751 877.951 836.617 869.676 849C850.197 878.149 856.053 931.852 859.682 965C861.13 978.223 861.859 991.706 862.008 1005C862.03 1007.01 861.714 1017.36 864.992 1017.36C867.897 1017.36 865.512 980.323 865.18 975.922C862.468 940.05 851.244 874.493 878.5 845.354C886.472 836.831 909.081 819.712 920.858 828.977C930.227 836.347 938.843 873.298 924.008 879.518C915.848 882.94 905.588 870.237 898 869M515 1002C498.912 959.321 490.218 918.334 502.762 873.001C507.473 855.974 515.044 834.269 534 829.2C568.578 819.953 597.857 864.334 575.439 892.949C566.225 904.709 545.779 893.174 542.322 881.02C541.254 877.264 546.412 874.396 545.247 871.512C543.14 866.295 537.156 872.031 536.476 875.03C533.056 890.097 558.223 909.409 571.981 902.38C616.622 879.576 561.854 787.781 517.237 833.158C487.57 863.329 485.297 925.854 496.588 964C499.434 973.617 502.723 1000.6 515 1002M315 891C298.825 882.923 281.169 857.158 264 855C276.083 884.639 326.529 886.655 326.065 923C325.746 947.943 306.054 961.148 283.687 967.137C272.716 970.076 252.665 960.912 251.188 948.999C248.856 930.199 261.279 911.252 277.136 901.165C285.208 896.031 301.908 892.354 304 905C309.934 900.056 303.633 893.172 297.992 891.317C290.892 888.982 281.323 892.672 275.043 896.107C244.622 912.747 229.364 971.55 278 972C275.939 975.194 267.606 997.797 266.937 998.039C262.237 999.74 252.514 989.14 249 986.662C231.693 974.461 213.699 963.367 197 950.327C194.021 948 180.109 934.807 176.674 936.072C172.138 937.743 200.133 959.371 203 961.478C227.638 979.576 254.625 1002.77 281 1017.58C284.847 1019.74 306.634 1029.67 309.67 1026.74C312.644 1023.86 302.585 1020.15 301 1019C305.358 1018.02 309.938 1017.71 313.997 1015.71C336.579 1004.62 318.927 988.895 306.555 978.965C304.355 977.2 295.544 972.121 296.761 968.747C298.108 965.013 314.046 958.679 317.919 955.161C335.591 939.109 333.026 918.33 323 899C326.382 899.346 329.64 900.176 333 900.639C334.513 900.848 352.104 901.175 347.67 897.268C339.15 889.76 310.043 898.024 319.66 873C325.383 858.107 345.313 862.95 349 853C324.963 853.003 310.954 866.921 315 891M1252 1013C1261.85 1000.31 1255.04 974.021 1255.04 959C1255.04 931.152 1263.54 905.955 1283.08 886.019C1295.95 872.886 1327.94 863.066 1338.36 885.001C1350.69 910.943 1303.61 912.74 1292 912C1307.02 936.114 1360.68 900.413 1337.84 876.487C1318.19 855.895 1286.72 872.508 1271.94 890.218C1247.7 919.283 1242.93 977.155 1252 1013M1947 872.85C1929.91 875.78 1917.22 922.507 1941 919.327C1953 917.722 1964.76 903.143 1962.23 891C1960.76 883.934 1956.22 871.267 1947 872.85M1946 877.712C1962.95 874.144 1959.4 911.267 1940.98 914.471C1922.74 917.644 1933.68 880.303 1946 877.712M1601 891.682C1580 897.476 1566.1 962.827 1599 953.237C1614.12 948.83 1631.61 928.62 1633.61 913C1635.95 894.805 1615.75 887.615 1601 891.682M1613 915C1613.69 907.91 1612.2 901.961 1612 895C1650.91 902.807 1610.1 958.076 1589.11 949.178C1575.07 943.228 1587.88 910.65 1593.4 902.277C1596.24 897.969 1602.82 894.375 1607.14 898.807C1610.95 902.716 1610.45 910.173 1613 915M2011 899.526C1999.96 901.522 1980.61 922.354 1976.72 933C1971.82 946.392 1982.69 956.182 1996 954.345C2011.69 952.181 2033.87 938.624 2040.83 923.999C2049.28 906.252 2024.53 897.081 2011 899.526M568 1014C570.505 998.912 559.102 978.357 557.215 963C555.672 950.448 561.389 938.743 567.35 928.001C572.015 919.593 579.281 907.039 590.438 909.125C605.587 911.957 616.218 946.49 600.734 954.538C596.375 956.804 582.709 954.233 582.761 947.9C582.808 942.219 589.943 939.235 590 933C573.616 945.238 575.321 960.564 598 960.526C623.87 960.483 611.107 909.806 592 904.637C576.747 900.511 568.201 915.595 562.159 927C549.677 950.559 549.685 992.644 568 1014M2011 916C2007.97 911.803 2003.84 912.022 1999 912C2004.01 899.205 2035.28 901.804 2037.43 916.001C2040.16 933.991 1996.88 958.684 1982.42 946.756C1965.56 932.841 2000.12 915.45 2011 916M1334 950C1338.75 949.086 1343.09 945.888 1348 945.936C1359.97 946.053 1365.45 960.046 1359.11 969C1352.42 978.466 1339.1 991.921 1326.86 993.563C1312.22 995.529 1307.94 976.465 1312.69 966.331C1315.7 959.911 1322.26 960.25 1326 955C1296.22 951.551 1302.56 1013.76 1340 992.643C1346.2 989.149 1351.36 984.023 1356.27 978.942C1361.25 973.792 1367.65 966.794 1366.7 959.038C1364.75 943.123 1342.65 934.514 1334 950M284.346 973.619C294.858 970.606 324.034 991.969 320.954 1003.98C319.148 1011.02 307.993 1013.41 302 1015.04C277.277 1021.73 259.379 980.772 284.346 973.619M229.078 1173.78C201.825 1176.82 192.571 1228.03 229 1223.76C260.97 1220.01 264.367 1169.84 229.078 1173.78M229 1185L227 1178C231.288 1178.15 235.998 1178.39 239.981 1180.15C268.96 1192.92 231.507 1233.47 212.365 1216.4C202.203 1207.33 214.746 1174.33 229 1185M966 1187C976.168 1180.15 983.63 1190.24 983.949 1201C984.308 1213.14 976.837 1224.32 967 1230.95C949.796 1242.55 935.796 1227.99 938.259 1210C939.792 1198.8 949.992 1192.62 958 1186C934.186 1182.18 927.614 1221.51 941.222 1234.82C962.755 1255.88 997.561 1215.06 987.021 1193C983.705 1186.06 963.712 1169.16 966 1187M280 1214C277.787 1202.63 269.758 1207.78 280 1214M493 1415C503.919 1382.11 503.765 1346.7 512.292 1313.14C517.522 1292.55 528.61 1275.04 537.44 1256C541.926 1246.32 562.225 1209.53 575.812 1213.22C582.666 1215.09 581.369 1226.89 580.261 1232C576.769 1248.1 572.744 1256.95 557 1260C560.912 1265.71 569.403 1265.1 573.629 1259.85C581.024 1250.67 595.165 1215.27 577.973 1208.84C561.272 1202.6 543.63 1236.41 536.96 1247.04C512.125 1286.61 502.081 1329.08 497.882 1375C496.789 1386.96 486.378 1403.49 493 1415M1332 1313C1326.42 1308.31 1306.38 1290.26 1304 1308C1351.7 1295.54 1311.12 1377.47 1289.19 1363.69C1274.77 1354.64 1282.27 1306.79 1304 1320C1303.13 1307.49 1292.12 1308.17 1285.78 1317.02C1272.61 1335.43 1273.76 1377.42 1305 1369C1303.32 1374.44 1284.26 1402.31 1290.68 1406.46C1292.58 1407.69 1299.84 1390.34 1300.95 1388C1308.86 1371.4 1319.07 1357.76 1328.09 1342C1331.01 1336.89 1331.55 1327.68 1335.68 1323.78C1343.46 1316.45 1358.96 1323.22 1368 1319C1360.43 1312.35 1344.41 1316.12 1335 1317C1342.76 1292.51 1361.91 1266.09 1376.23 1244.92C1379.77 1239.68 1379.18 1233.05 1383 1228C1383 1267.33 1373.57 1309.67 1365.61 1348C1363.83 1356.53 1359.31 1382.89 1369 1387C1369 1345.29 1377.6 1304.19 1384.46 1263C1386 1253.74 1392.81 1223.32 1387.37 1215.65C1383.08 1209.59 1375.83 1231.51 1375.06 1234C1366.48 1261.97 1338.36 1284.4 1332 1313M120 1411C116.995 1360.79 109.781 1306.05 128.406 1258C134.233 1242.97 161.47 1214.84 180 1221.93C194.823 1227.61 200.059 1253.92 184.914 1262.4C176.269 1267.23 166.692 1259.72 158 1259C164.296 1268.87 179.078 1269.78 189 1266C175.21 1292.53 163.84 1324.77 163.003 1355C162.879 1359.47 161.912 1397.86 166.267 1394.03C173.031 1388.09 168.533 1361.64 169.136 1353C171.407 1320.52 182.44 1256.19 220 1244.91C237.831 1239.55 243.047 1256.61 235.349 1270C227.634 1283.41 215.577 1285.09 202 1288C231.116 1314.51 268.453 1225.88 219 1239.76C209.858 1242.32 204.647 1250.94 196 1254C202.55 1241.48 194.195 1219.04 179 1216.56C168.175 1214.8 154.721 1222.14 146.313 1228.26C106.31 1257.39 111.096 1321.75 114 1365C114.828 1377.33 110.581 1401.99 120 1411M1890 1370C1864.09 1395.26 1917.93 1425.03 1938 1395C1934.75 1394.03 1933.08 1394.66 1930 1396C1939.93 1378.43 1949.85 1360.96 1960.83 1344C1963.58 1339.75 1968.36 1328.32 1973.48 1326.82C1980.27 1324.83 1998.26 1343.53 2003.34 1347.91C2014.28 1357.35 2066.91 1400.33 2024 1403.72C2016 1404.36 2007.96 1401.29 2000 1401C2012.3 1411.54 2053.38 1410.12 2046.21 1386C2040.31 1366.12 2013.38 1349.81 1998.1 1337.43C1993.68 1333.86 1978.89 1326.01 1978.98 1319.82C1979.24 1301.9 2010.31 1284.2 2015 1266C2003.7 1268.61 1990.98 1294.58 1984.26 1304C1981.86 1307.35 1977.22 1315.83 1972.62 1316.21C1967.42 1316.64 1958.81 1305.06 1955 1302.02C1939.53 1289.65 1910.32 1269.9 1904.09 1250C1900.71 1239.23 1914.7 1222.22 1926 1224.57C1936.9 1226.83 1940.52 1240.13 1950 1244C1942.26 1209.25 1894.46 1217.41 1898.16 1251.86C1898.73 1257.1 1905.59 1261.18 1908.68 1265.14C1920.64 1280.4 1936.02 1293 1951 1305.19C1954.9 1308.37 1969.86 1317.59 1968.89 1323.35C1965.88 1341.18 1942.27 1362.46 1933.96 1379C1930.73 1385.43 1927.02 1398.82 1920.72 1402.78C1896.37 1418.08 1888.98 1384.82 1890 1370M1516 1419C1522.62 1375.75 1542.26 1335.32 1550 1292C1565.07 1305.12 1575.11 1337.17 1584.53 1355C1587.53 1360.68 1595.86 1368.97 1595.84 1375.56C1595.83 1384.44 1581.91 1399.74 1577.86 1408C1576.82 1410.12 1572.75 1417.58 1575.86 1419.46C1580.44 1422.21 1582.17 1411.14 1582.83 1409C1585.8 1399.31 1593.1 1381.87 1604 1386C1603.41 1354.75 1636.67 1328.99 1644 1298C1629.11 1307.01 1621.91 1337.85 1611.32 1352C1608.95 1355.16 1603.78 1367.3 1599.48 1367.52C1594.3 1367.79 1586.61 1347.98 1584.38 1344C1572.17 1322.22 1547.08 1291.19 1557.44 1265C1559.78 1259.07 1574.63 1226.21 1583.22 1231.22C1603.67 1243.14 1566.17 1261.22 1577 1268C1581.01 1259.75 1591.31 1255.36 1593.46 1246C1596 1234.97 1585.94 1221.47 1574.56 1228.46C1565.2 1234.22 1560.86 1246.58 1556.26 1256C1539.91 1289.43 1536.59 1332.27 1524.81 1368C1522.04 1376.42 1505.65 1414.61 1516 1419M1622 1233C1625.93 1238.22 1632.45 1239.99 1635.71 1246.02C1652.9 1277.76 1587.69 1269.23 1621 1248C1608.73 1241.47 1604.11 1268.48 1615.18 1274.39C1641.08 1288.21 1655.8 1227.87 1622 1233M1232 1402C1239.99 1369.91 1220.74 1330.33 1227.55 1297C1231.02 1279.97 1237.98 1256.03 1255 1247.62C1268.17 1241.11 1274.93 1258.58 1268.05 1267.99C1261.82 1276.53 1250.62 1275.63 1245 1283C1257.3 1282.98 1270.43 1277.41 1274.9 1264.78C1279.16 1252.76 1269.02 1239.09 1256.02 1242.56C1212.47 1254.19 1223.97 1327.55 1224 1359C1224.01 1370.15 1223.21 1393.93 1232 1402M1993 1282C2006.97 1272.64 2029.19 1234.93 2051.9 1249.94C2060.43 1255.59 2054.46 1268.99 2064 1273C2063.8 1263.84 2063.8 1251.81 2055.82 1245.69C2035.43 1230.04 1996.56 1262.57 1993 1282M534 1416C541.499 1412.94 546.427 1388.98 548.217 1381C554.669 1352.24 564.039 1317.8 580.234 1293C589.45 1278.89 599.879 1260.2 616.999 1254.53C631.552 1249.71 629.362 1278.72 627.415 1286C625.892 1291.7 621.792 1300.23 615.979 1302.61C613.649 1303.56 602.643 1298.51 602.643 1301.4C602.643 1306.85 613.253 1308.53 616.999 1307.5C633.47 1302.95 643.059 1252.77 622.979 1249.31C606.48 1246.46 591.023 1268.76 583.157 1280.08C561.57 1311.14 552.359 1346.56 543.756 1382.98C541.161 1393.97 534.346 1404.55 534 1416M849 1405C855.088 1396.38 852.863 1382.11 854.115 1372C857.306 1346.23 858.515 1320.46 868.216 1296C873.489 1282.71 881.483 1268.43 893 1259.63C901.346 1253.25 912.766 1254.32 912.679 1267C912.586 1280.72 897.148 1287.04 894 1299C906.891 1293.78 932.175 1255.09 905.997 1250.85C889.037 1248.1 877.277 1268.97 870.384 1281C849.815 1316.9 848.687 1364.59 849 1405M55 1271C36.6707 1274.74 35.0001 1301.73 50.0431 1310.96C70.1109 1323.26 102.454 1283.23 81.989 1267.53C80.8364 1266.64 71.6433 1261.69 71.6433 1266.1C71.6433 1272.94 86.9865 1273.07 83.9292 1285C78.3393 1306.81 42.1119 1319.81 44.0775 1288.01C44.5302 1280.68 51.7267 1277.03 55 1271M467 1281C469.783 1270.44 491.394 1289.35 488.79 1299C483.748 1317.69 447.043 1331.4 430 1324.41C407.883 1315.35 415.91 1291.04 431 1279.64C437.44 1274.77 444.57 1274.91 452 1273C445.627 1266.29 434.013 1272.13 428 1276.66C414.785 1286.61 403.464 1307.38 417.317 1321.73C434.17 1339.2 461.276 1329.02 478.078 1317.39C485.656 1312.14 495.73 1304.6 493.438 1294C491.295 1284.1 476.458 1269 465.159 1272.51C459.252 1274.35 463.97 1279.26 467 1281M894 1412C894.321 1377.29 907.039 1336.97 925.933 1308C932.517 1297.91 941.274 1284.73 953 1280.15C960.506 1277.22 971.231 1280.41 971.968 1289.56C972.963 1301.91 957.857 1316.35 953 1327C969.56 1327.52 990.475 1274.67 959 1275.01C945.434 1275.16 935.456 1286.5 928.285 1296.86C912.092 1320.27 901.143 1346.12 895.224 1374C893.02 1384.39 885.789 1403.29 894 1412M1641 1294C1641.9 1296.12 1641.88 1296.1 1644 1297C1643.52 1294.64 1643.36 1294.48 1641 1294M204 1315C212.711 1312.58 220.023 1305.85 229 1304.32C261.601 1298.77 246.497 1340.58 233.419 1352.05C229.765 1355.26 221.758 1361.47 216.545 1358.69C208.851 1354.6 213.647 1324.39 221.731 1323.08C224.483 1322.64 227.769 1329.42 230 1331C229.559 1325.55 224.375 1309.41 217.599 1319.15C211.498 1327.92 200.792 1358.35 216.097 1363.31C231.872 1368.42 246.082 1346.69 251.462 1335C267.078 1301.06 219.832 1287.33 204 1315M634.001 1323.71C610.951 1329.6 593.101 1396.9 632 1387.24C645.715 1383.83 664.58 1369.02 668.282 1355C673.729 1334.37 653.298 1318.77 634.001 1323.71M626 1334C634.341 1322.51 658.382 1326.88 663.113 1340C668.986 1356.29 653.88 1370.77 641 1378.37C633.919 1382.56 618.323 1387.42 613.94 1376.95C610.399 1368.49 614.463 1353.75 618.47 1346.03C620.855 1341.43 629.587 1339.01 626 1334M1267 1695C1268.6 1703.03 1275.73 1709.53 1275.67 1718C1275.52 1736.65 1261.91 1761.23 1247.78 1772.59C1241.67 1777.51 1231.48 1783.73 1224.02 1778.4C1205.79 1765.35 1214.85 1735.01 1217.7 1717C1226.8 1659.49 1252.28 1604.22 1264.56 1547C1268.14 1530.32 1264.74 1480.07 1292.68 1493.74C1323.01 1508.57 1309.7 1553.32 1303.94 1578.92C1302.75 1584.23 1293.4 1608.81 1298.79 1612.46C1302.64 1615.06 1307.13 1586.28 1307.81 1583C1312.53 1560.11 1322.07 1527.23 1312.18 1504.32C1306.61 1491.42 1283.37 1481.84 1271.16 1490.27C1259.98 1497.98 1266 1508.86 1265.09 1519C1263.91 1532.1 1261.01 1546.87 1258.52 1560C1247.88 1616.19 1223.44 1670.1 1210.99 1726C1207.4 1742.09 1204.05 1777.66 1225 1784.31C1254.79 1793.77 1274.52 1745.88 1279.84 1725C1282.32 1715.27 1278.07 1697.56 1267 1695M1586 1512C1578.05 1527.81 1579.86 1550.69 1576.22 1568C1565.33 1619.85 1558.92 1671.86 1548.8 1724C1546.02 1738.35 1540.52 1782.35 1561 1786.63C1571.56 1788.84 1578.76 1780.08 1584.93 1773C1598.09 1757.93 1611.32 1729.41 1608.08 1709C1607 1702.2 1608.54 1687.24 1600.65 1683.75C1596.45 1681.9 1600.89 1700.03 1601.14 1703C1603.22 1727.88 1597.53 1747.8 1581.98 1768C1576.46 1775.16 1560.17 1791.31 1555.07 1773.98C1546.39 1744.5 1556.69 1711.21 1562.19 1682C1568.25 1649.81 1569.82 1617.99 1576.48 1586C1580.23 1567.95 1595.81 1529.04 1586 1512M1966 1522C1954.64 1547.5 1952.43 1580.73 1947.58 1608C1940.89 1645.69 1933.66 1681.76 1929.68 1720C1928.31 1733.15 1918.46 1783.38 1942 1780.73C1972.3 1777.31 1992.91 1738.53 1991.82 1711C1991.52 1703.31 1984.16 1683.65 1974 1692C2003.06 1705.88 1978.07 1751.96 1961 1765.2C1955.98 1769.1 1946.01 1778.46 1939.05 1776.66C1924.72 1772.95 1932.3 1726.25 1933.56 1715C1938.63 1669.96 1945.34 1623 1956.98 1579C1960.37 1566.18 1972.72 1533.69 1966 1522M1983 1532C2022.84 1514.08 2019.76 1571.36 2001.43 1590.27C1989.83 1602.23 1973.24 1594.74 1970.97 1579C1970.06 1572.7 1970.88 1566.34 1971.02 1560C1971.22 1550.99 1973.88 1542.35 1977 1534C1953.59 1542.83 1963.8 1619.56 1999 1598.83C2003.41 1596.24 2007.11 1592.03 2010.46 1588.22C2015.05 1582.97 2017.81 1575.66 2019.74 1569C2022.16 1560.64 2022.66 1551.07 2019.16 1543C2014.99 1533.41 1985.88 1510.58 1983 1532M72 1724C56.5063 1727.6 68.9533 1742.08 78.0075 1744.99C87.3485 1747.99 92.1341 1739.35 101 1740C101.753 1707.32 131.601 1672.29 147.089 1645C153.063 1634.47 158.595 1617.75 169 1611C164.355 1635.14 179.772 1657.11 204.997 1641.15C214.005 1635.45 214.604 1624.46 223 1619C223 1642.31 223.945 1665.64 224.001 1689C224.018 1696.11 228.323 1706.36 226.1 1713C221.018 1728.18 189.119 1730.42 190 1712C180.169 1718.02 191.49 1725.25 198 1728.14C209.313 1733.16 223.865 1728.89 230.073 1717.92C235.699 1707.98 228.027 1692.86 228.001 1682C227.916 1646.18 228.593 1612.4 221.419 1577C220.302 1571.49 215.431 1538.39 209.84 1537.32C206.838 1536.75 202.79 1545.97 201.437 1548C193.771 1559.5 185.771 1571.03 179.09 1583.14C160.132 1617.48 137.383 1649.51 118.471 1684C109.729 1699.94 101.855 1726.42 88.3252 1738.31C77.5338 1747.8 68.8345 1733.56 72 1724M430 1680C427.376 1694.5 425.41 1713.05 431.564 1726.96C437.652 1740.71 451.606 1742.1 460.994 1730.34C482.723 1703.11 481.502 1657.74 504 1633C506.353 1671.27 541.329 1656.02 557 1637C563.248 1666.12 559.009 1702.25 548.922 1730C544.715 1741.57 526.481 1759.36 516.604 1741.72C511.903 1733.32 517.439 1723.55 517 1715C491.105 1735.83 529.872 1771.91 549.942 1740.08C576.246 1698.37 562.503 1636.79 556.182 1592C554.411 1579.45 547.257 1566.56 542.104 1555C541.062 1552.66 538.836 1544.22 535.241 1544.79C530.745 1545.5 520.676 1575.77 518.449 1581C502.38 1618.7 490.871 1659.39 472.587 1696C468.471 1704.24 456.512 1740.05 443.049 1733.75C423.138 1724.44 443.559 1688.65 430 1680M208 1546C216.433 1560.01 219.871 1585.66 221 1602C217.135 1600.38 202.504 1581.87 197.323 1587.13C195.994 1588.47 211.91 1598.98 213.551 1600.87C221.615 1610.2 216.946 1623.51 209.118 1631.52C180.274 1661.02 160.861 1621.24 182 1596C175.735 1594.29 181.714 1586.76 183.676 1582.98C189.613 1571.54 199.017 1555.07 208 1546M970 1589C935.903 1564.93 897.338 1579.38 862 1565C859.348 1574.28 856.841 1583.8 853.864 1593C851.827 1599.29 849.648 1605.85 847.159 1611.97C842.247 1624.05 819.145 1621.95 813.229 1612C798.501 1587.22 830.101 1559.65 853 1572C850.156 1559.52 836.633 1560.33 827.136 1565.28C806.67 1575.93 791.247 1614.17 821 1624.75C828.14 1627.29 836.494 1622.07 844 1622C835.604 1656.1 818.031 1689.46 817.043 1725C816.793 1733.99 826.078 1761.61 839.676 1753.72C846.789 1749.6 849.499 1735 852.726 1728C861.809 1708.29 873.69 1686.33 889.001 1671C893.003 1666.99 898.969 1658.7 904.844 1657.57C911.868 1656.21 913.931 1670.52 913.992 1675C914.264 1695.01 905.597 1717.45 910.146 1737C912.876 1748.73 921.764 1764.42 934.582 1751.66C967.387 1719.01 976 1655.76 976 1612C976 1590.49 973.797 1566.84 953 1554.85C935.467 1544.74 908.432 1546.01 889 1549.25C886.146 1549.73 865.093 1554.95 868.544 1560.09C869.701 1561.82 894.819 1553.03 899 1552.4C926.392 1548.29 966.645 1555.36 970 1589M537 1554C541.712 1567.95 550.82 1582.14 552 1597C541.957 1595.68 528.289 1598.55 527 1611C556.12 1586.98 566.64 1624.28 546.26 1643.8C528.18 1661.12 508.591 1652.22 508.188 1628C507.775 1603.19 527.218 1577.05 535 1554L537 1554M1918.08 1572.56C1901.99 1575.91 1892.47 1596.95 1893.1 1612C1893.48 1620.99 1899.27 1633.12 1910 1631C1922.95 1628.45 1940.27 1611.08 1942.65 1598C1945.16 1584.24 1932.34 1569.59 1918.08 1572.56M871 1589C866.425 1589.3 863.053 1590.97 859 1593C863.342 1560.24 923.33 1573.95 947 1580.5C954.905 1582.69 972.629 1592.57 970.817 1602.98C964.981 1636.51 903.789 1623.12 885.001 1615.43C871.181 1609.78 858.231 1601.34 871 1589M1922 1577.4C1954.26 1575.81 1929.77 1625.52 1908.01 1626.5C1898.5 1626.92 1897.95 1614.77 1898.01 1608C1898.12 1594.89 1908.16 1578.09 1922 1577.4M232.5 1581.5C231.873 1582.13 232.872 1583.13 233.5 1582.5C234.127 1581.87 233.127 1580.87 232.5 1581.5M182 1596L190 1593C186.493 1589.24 183.673 1592.12 182 1596M858 1597C870.594 1619.5 908.973 1634.14 934 1629.3C944.57 1627.26 954.429 1625.33 962.981 1618.34C964.409 1617.18 969.632 1610.94 971.748 1613.11C976.358 1617.82 970.459 1636.32 969.487 1642C964.67 1670.17 960.351 1700.73 945.783 1726C942.43 1731.82 931.561 1755.45 922.371 1751.53C916.854 1749.19 915.056 1738.24 914.298 1733C911.608 1714.43 919.247 1694.83 918.992 1676C918.896 1668.95 915.124 1653.13 905.992 1652.56C899.241 1652.14 891.238 1662.67 887.136 1666.98C871.112 1683.84 858.633 1704.9 848.644 1726C846.274 1731.01 839.618 1754 832.027 1749.29C805.441 1732.82 833.299 1673.92 839.786 1653C842.083 1645.59 843.216 1621.53 854 1624C850.122 1614.95 851.788 1604.98 858 1597M515 1614C516.911 1614.27 517.353 1614.06 519 1613C517.236 1613.18 516.669 1613.34 515 1614M332.333 1682.67C332.278 1682.72 332.222 1683.78 332.667 1683.33C332.722 1683.28 332.778 1682.22 332.333 1682.67M144 1751L144 1755C147.704 1754.02 147.704 1751.98 144 1751M2046 1893C2051.64 1918.81 2040.39 1941.7 2033.45 1966C2025.55 1993.67 2020.74 2023.52 2016.64 2052C2014.7 2065.46 2001.6 2093.24 2010.81 2106.11C2013.82 2110.32 2018.31 2100.81 2019.14 2099C2024.81 2086.58 2034.75 2075.96 2039.2 2063C2052.65 2023.84 2074.59 1980.76 2093.69 1944C2100.04 1931.79 2118.87 1902.13 2117 1889C2098.87 1904.12 2089.38 1942.31 2081.15 1963.99C2070.69 1991.57 2055.01 2017.68 2041.76 2044C2032.87 2061.66 2026.71 2080.34 2014 2096C2012.42 2081.94 2019 2066.78 2021.24 2053C2030.28 1997.4 2056.65 1939.47 2049 1884C2036.87 1888.97 2027.4 1918.67 2021.01 1930C1998.12 1970.52 1984.23 2015.39 1960.91 2056C1951.31 2072.72 1944.61 2092.82 1925 2100.75C1901.83 2110.12 1899.33 2085.22 1897.78 2068C1894.27 2028.93 1904.4 1992.59 1913.21 1955C1914.73 1948.53 1928.59 1912.99 1926.18 1913C1916.64 1913.05 1910.41 1949.78 1908.16 1957C1897.16 1992.26 1888.73 2030.9 1892.68 2068C1894.01 2080.47 1893.27 2095.33 1903.18 2104.76C1923.6 2124.16 1951.32 2082.85 1962.39 2071.33C1974.76 2058.44 1980.48 2035.13 1987.62 2019C2006.19 1977.08 2020.9 1931.66 2046 1893M1217 1935C1202.12 1987.81 1190.64 2040.33 1185.78 2095C1184.78 2106.29 1180.05 2143.22 1195.01 2146.52C1205.26 2148.78 1214.23 2139.93 1219.1 2132C1232.78 2109.73 1235.69 2086.13 1256.32 2067.54C1271.79 2053.59 1303.69 2061.82 1322.68 2050.79C1372.04 2022.12 1397.46 1973 1370.2 1922C1362.02 1906.69 1354.6 1898.41 1337.44 1892.16C1327.69 1888.6 1317.62 1893.01 1308 1895.12C1282.52 1900.7 1263.2 1906.74 1246.39 1929C1233.35 1946.26 1225.58 1971.76 1251.56 1982.71C1253.41 1983.48 1263.72 1983.89 1261.32 1979.4C1259.97 1976.88 1252.58 1977.21 1250.01 1975.79C1242.26 1971.53 1239.11 1962.55 1239.08 1954C1238.98 1931.02 1275.6 1904.59 1296 1900.36C1301.56 1899.21 1307.15 1902.61 1313 1901.64C1323.53 1899.91 1329.7 1894.19 1341 1897.92C1363.63 1905.41 1376.85 1938.35 1379.66 1960C1384.08 1994.08 1340.49 2041.14 1310 2050.82C1283.98 2059.07 1263.08 2051.82 1243.32 2074C1228.02 2091.17 1226.38 2113.72 1213.56 2131.86C1210.08 2136.8 1200.22 2145.95 1193.8 2140.18C1186.52 2133.61 1189.55 2106.99 1190.56 2098C1194.96 2058.92 1201.16 2020.76 1208.56 1982C1210.32 1972.77 1224.08 1940.63 1217 1935M1584 1920C1573.88 1925.86 1567.31 1951.55 1561.91 1962C1542.99 1998.66 1490.62 2079.3 1532 2115.86C1544.72 2127.1 1566.5 2124.66 1575.92 2109.98C1577.79 2107.06 1579.42 2092.78 1583.78 2092.78C1584.15 2092.78 1581.68 2106.49 1587 2108C1587.1 2043.86 1634.56 1974.49 1697 1956.72C1706.8 1953.94 1710.18 1973.68 1722 1969.9C1743.08 1963.16 1752.71 1930.54 1746.5 1911C1741.04 1893.83 1724.37 1902.76 1717 1892C1680.85 1907.16 1640.68 1912.26 1613.41 1945C1598.91 1962.4 1590.83 1989.5 1584.6 2011C1575.43 2042.64 1593.26 2085.21 1568.58 2110.51C1552.6 2126.9 1529.26 2113.71 1525.17 2094C1518.51 2061.92 1533.72 2037.03 1543.94 2007C1553.44 1979.1 1583.58 1950.12 1584 1920M1706 1899C1702.6 1911.4 1697.2 1922.97 1695.36 1936C1694.71 1940.63 1697.92 1948.51 1695.09 1952.28C1689.48 1959.79 1671.35 1963.83 1663 1968.27C1646.32 1977.13 1631.08 1990.64 1620.02 2006C1608.81 2021.57 1603.21 2038.04 1595.23 2055C1592.36 2061.1 1592.46 2069.62 1587 2074C1568.44 2000.81 1626.05 1904.23 1706 1899M1721 1965C1723.6 1958.34 1727.75 1952.09 1729 1945C1724.4 1948.26 1721.38 1959.96 1715.72 1960.68C1710.67 1961.32 1699.69 1946.48 1699.15 1942C1697.25 1926.12 1706.29 1903.87 1722.36 1901.25C1757.73 1895.47 1745.96 1958.17 1721 1965M224 1945C228.339 1943.31 231.098 1936.6 236.018 1937.09C259.718 1939.42 240.592 1982.33 228.992 1988.27C218.323 1993.74 210.575 1979.71 209.109 1971C206.544 1955.76 215.005 1940.97 226 1931C218.224 1929.09 214.805 1938.41 211.503 1943.78C202.237 1958.86 200.118 1977.63 214.446 1990.51C238.338 2012 259.191 1956.56 246.764 1938.09C238.766 1926.2 225.856 1933.23 224 1945M154 1933C144.744 1946.11 144.877 1973.06 142.076 1989C135.315 2027.49 126.644 2066.02 117.768 2104C115.209 2114.95 112.597 2148.5 124.662 2154.72C133.107 2159.07 142.36 2149.91 148 2144.78C160.673 2133.26 195.478 2102.49 174.202 2083.85C173.098 2082.89 169.036 2081.07 169.236 2084.09C169.773 2092.21 177.302 2096.51 173.912 2106C169.057 2119.59 153.073 2132.15 143.001 2141.98C139.73 2145.17 134.301 2151.67 129.022 2149.93C119.73 2146.88 119.792 2123.86 120.027 2116C120.453 2101.78 127.484 2086.92 130.292 2072.99C136.386 2042.76 142.292 2012.33 148.365 1982C150.747 1970.1 159.775 1944.1 154 1933M857 1939C847.474 1955.93 843.828 1974.99 837.44 1992.98C825.189 2027.49 811.737 2064.97 810.981 2102C810.732 2114.25 805.741 2126.87 809.851 2139C816.979 2160.03 845.882 2157.79 862 2150.68C900.689 2133.63 861.644 2090.32 869.935 2064C873.644 2052.22 889.261 2043.11 900 2038.76C928.375 2027.28 993.196 2017.65 1020 2036.01C1050.31 2056.78 990.569 2075.56 974 2080.65C971.697 2081.36 949.949 2087.75 953.969 2090.8C957.981 2093.84 969.707 2086.94 974 2085.72C991.978 2080.6 1005.66 2072.92 1022 2064.63C1028.08 2061.55 1038.17 2056.58 1036.45 2048C1032.97 2030.6 1008.62 2024.26 994 2022.79C958.791 2019.26 887.9 2022.74 867.207 2057C853.266 2080.08 884.407 2109.3 873.172 2132.68C859.402 2161.34 812.346 2156.05 814.078 2122C815.744 2089.26 820.978 2054.24 831.395 2023C840.356 1996.13 855.007 1967.06 859 1939L857 1939M546 1940C532.342 1955.99 526.128 1977.87 517.978 1997C503.887 2030.08 489.047 2062.37 476.549 2096C471.796 2108.79 467.654 2147.17 449.021 2146.32C432.938 2145.58 441.925 2108.92 443.342 2100C451.154 2050.83 474.819 2001.84 478 1952C468.32 1958.8 467.087 1981.11 464.465 1992C455.539 2029.08 440.257 2070.08 436.963 2108C435.964 2119.5 429.769 2159.42 454 2151.14C476.067 2143.59 479.675 2108.72 485.059 2090C494.966 2055.55 512.813 2024 526.756 1991C532.324 1977.82 535.978 1957.57 547 1948C547.104 1966.54 554.949 1985.78 555.922 2005C557.577 2037.7 553.63 2070.45 554.915 2103C555.398 2115.26 552.184 2126.73 554.698 2139C555.148 2141.2 556.02 2150 559.196 2150C563.46 2150 560.778 2141.02 560.342 2139C557.533 2125.97 560.151 2112.22 560.008 2099C559.63 2064.19 561.592 2029.88 560.033 1995C559.252 1977.52 557.524 1954.12 546 1940M243 2136C251.951 2128.61 250.214 2110.58 251.918 2100C257.416 2065.87 258.128 2034.49 270.543 2001.32C273.668 1992.98 280.537 1958.19 295.756 1966.91C311.995 1976.22 292.525 2000.23 305 2010C305 1998.26 309.913 1983.2 305.756 1972C299.74 1955.8 281.737 1960.29 274.583 1973C255.786 2006.39 250.115 2053.63 246.783 2091C245.502 2105.36 241.282 2121.68 243 2136M224 2052C224.214 2050.13 224.21 2048.87 224 2047C234.951 2053.63 240.236 2095.96 221.022 2089.95C201.849 2083.96 207.853 2038.02 228 2037C218.511 2028.83 211.762 2041.49 208.64 2049.22C203.423 2062.13 203.642 2083.45 215.478 2092.91C234.989 2108.52 241.183 2072.06 238.172 2060C236.73 2054.22 232.12 2043.14 225.165 2042.32C218.709 2041.56 220.927 2049.73 224 2052M1351.31 2035.54C1345.99 2038.13 1344.57 2051.85 1343.62 2057C1339.59 2078.87 1331.94 2100.08 1328.47 2122C1328.06 2124.57 1324.83 2148.58 1330.66 2146.24C1333.52 2145.09 1333.6 2124.77 1334.26 2121C1338.16 2098.88 1344.38 2076.75 1349.94 2055C1350.43 2053.11 1357.73 2032.42 1351.31 2035.54M1301 2065C1293.82 2066.86 1293.33 2075.81 1291.57 2082C1286.88 2098.5 1283.64 2115.4 1279.44 2132C1278.36 2136.27 1274.81 2150.82 1279.58 2153.59C1284.78 2156.61 1284.05 2136.55 1284.82 2133C1289.67 2110.38 1297.31 2087.77 1301 2065z"/>
</svg>
