<?xml version="1.0" standalone="yes"?>
<svg xmlns="http://www.w3.org/2000/svg" width="2200" height="2200">
<path style="fill:#0f0f0f; stroke:none;" d="M1237 314C1254.09 240.823 1234.92 162.682 1262.13 90C1276.85 50.6702 1322.57 29.9473 1354.73 67.0024C1386.19 103.238 1352.24 193.552 1299.32 186.001C1271.2 181.989 1278.15 142.388 1285.67 124C1288.23 117.74 1292.93 106.508 1300.08 104.52C1335.65 94.634 1353.73 148.923 1316.01 156.142C1305.57 158.139 1300.06 128.003 1321 128C1311.58 144.018 1327 134.795 1327 131.738C1327 120.98 1305.94 120.596 1302.67 130.011C1293.03 157.761 1323.97 172.145 1338.36 145.998C1350.22 124.456 1337.36 104.562 1315 100.205C1309.12 99.0586 1302.29 95.5635 1296.71 99.3542C1264.47 121.245 1262.58 210.042 1318 188.691C1376.84 166.02 1395.51 70.9578 1330 47.0051C1322.58 44.2913 1311.97 40.6543 1304 41.2808C1278.4 43.2935 1265.53 67.9558 1257.81 89C1239.55 138.803 1236.13 197.424 1236 250C1235.97 264.972 1226.9 302.906 1237 314M788 304C783.89 282.475 800.354 256.218 809.743 237C829.007 197.567 845.649 156.029 864.037 116C875.139 91.835 877.577 70.5952 905 58.1909C928.411 47.6013 974.164 44.3079 997 56.9888C1022.01 70.8767 1022.33 106.638 1010.67 129C999.926 149.616 971.835 153.447 952 145.382C948.297 143.876 926.656 130.118 925.106 134.434C923.907 137.77 933.861 141.874 936 143.092C949.655 150.869 962.155 155.07 978 153.861C1023.05 150.425 1035.2 93.9954 1010.24 62.0193C990.245 36.3948 925.763 40.2683 900 55.1499C872.335 71.1301 870.118 90.4871 857.736 117C838.817 157.508 821.105 198.295 802.827 239C796.649 252.759 771.431 292.971 788 304M493 63C493 119.004 470.999 172.85 463.562 228C461.523 243.123 459.716 256.711 461.32 272C461.638 275.028 460.757 283.52 463.2 285.592C466.918 288.746 468.831 278.772 468.943 277C469.728 264.558 472.558 252.568 471.922 240C469.492 191.981 488.369 145.612 497.418 99C500.038 85.5044 498.453 55.5173 518 54.0698C542.271 52.2725 583.209 55.8962 599.656 76.0024C612.626 91.8577 621.579 148.941 605.776 164.637C591.736 178.58 572.094 177.162 554 178.078C552.15 178.172 530.153 180.907 536.631 184.053C542.782 187.041 556.254 183.419 563 183.078C580.096 182.212 601.024 179.698 612.572 165.098C626.96 146.907 617.256 89.6626 603.575 73.0076C587.169 53.0344 540.806 43.4111 516 48.4468C505.912 50.4946 502.364 65.3154 493 63M1559 341C1565.48 339.227 1566.98 328.887 1567.67 323C1569.89 304.137 1569 284.004 1569 265C1569 226.71 1579.39 195.425 1587.96 159C1595.87 125.401 1598.29 96.9399 1625.04 72.2275C1644.14 54.5806 1689.17 58.2141 1698.57 86C1709.75 119.054 1700.81 160.663 1683.46 189.999C1680.47 195.058 1659.18 220.974 1660.99 220.679C1671.54 218.96 1685.38 196.687 1690.19 188C1707.8 156.177 1723.89 88.967 1686 65.0269C1647.15 40.4741 1608.87 71.9709 1594.12 108C1589.62 119.003 1590.25 131.594 1586.93 143C1577.09 176.881 1566.62 208.499 1564.14 244C1561.86 276.563 1565.25 308.766 1559 341M958 73.4387C932.157 76.4111 925.101 133.201 960 129.357C972.626 127.966 989.224 122.299 995.215 109.999C1006.49 86.8567 977.127 71.2388 958 73.4387M1983 73.679C1952.76 79.8088 1946.61 126.278 1984 118.553C2011.79 112.813 2012.01 67.7979 1983 73.679M959 86L959 83C957.719 82.9558 950.578 82.8738 952.544 79.7917C958.045 71.1685 980.819 81.6333 985.815 85.9453C1006.52 103.816 976.126 125.547 957.998 125.774C934.028 126.075 935.236 87.6912 959 86M1983.02 78.8242C2003.14 71.4675 2006.16 106.162 1987 113.455C1955.4 125.479 1956.98 88.3438 1983.02 78.8242M1525 83C1526.6 86.6863 1529.57 89.24 1531 93C1510.04 88.2104 1508.47 122.009 1527 122.533C1547.97 123.125 1543.88 85.0972 1525 83M560 89.9644C541.207 90.9321 530.29 108.14 527.323 125C525.388 135.997 529.334 150.275 543 149.897C558.987 149.455 577.233 132.764 579.676 117C581.412 105.798 572.815 89.3044 560 89.9644M1532.65 94.6606C1541.93 98.5642 1535.87 121.736 1525.05 117.888C1511.92 113.216 1518.78 88.8206 1532.65 94.6606M562.003 94.928C572.178 95.7944 574.771 108.855 573.739 117C572.106 129.884 555.785 146.39 542.019 145.431C531.592 144.704 530.74 132.649 532.704 125C535.592 113.755 548.347 93.7651 562.003 94.928M1167.93 96.1243C1139.2 96.2917 1124.09 143.044 1159 143.78C1183.06 144.287 1193.62 124.316 1178.1 107C1175.12 103.68 1173.04 96.0945 1167.93 96.1243M1157.35 104.775C1174.66 98.1023 1193.29 127.319 1171 136.333C1144.59 147.01 1130.6 115.09 1157.35 104.775M77 141C126.682 134.863 188.276 102.062 239 119.424C256.611 125.451 260.912 148.591 260.997 165C261.186 201.365 236.159 254.141 205 273.799C175.958 292.122 135.94 265.439 135 234C154.803 250.126 176.526 260.466 184.938 225C192.148 194.602 153.903 177.691 136.386 203C105.665 247.386 153.531 287.304 197 281.88C214.413 279.708 226.786 261.506 235.421 248C257.238 213.877 277.467 168.941 258.072 129C251.083 114.607 236.142 113.195 222 111.446C189.421 107.416 148.364 117.934 117 126.481C105.678 129.566 82.0696 127.89 77 141M1915 130C1919.24 139.176 1940.83 135.992 1950 136C1986.03 136.032 2022.24 142.947 2058 143C2054.1 133.408 2032.83 135.24 2024 134.32C1988.29 130.602 1950.9 130 1915 130M1976.91 159.725C1946.3 157.245 1917.35 224.676 1958 228.775C1983.68 231.364 2031.58 206.027 2006.38 176.187C2001.8 170.765 1994.98 170.768 1989.02 167.855C1984.69 165.737 1981.89 160.128 1976.91 159.725M896.22 160.922C868.933 172.165 872.837 231.696 906 218.924C916.538 214.866 930.147 203.319 929.473 191C928.716 177.166 912.814 154.084 896.22 160.922M1972.97 162.943C1978.56 162.412 1979.58 169.897 1984.23 171.683C1990.54 174.11 1997.33 173.679 2002.49 178.75C2025.5 201.326 1986.23 222.294 1967 223.856C1924.36 227.32 1945.13 165.59 1972.97 162.943M905.217 166.605C934.847 167.1 925.289 215.76 897 214.963C873.027 214.287 879.396 166.173 905.217 166.605M150 201L148 197C181.542 188.512 193.407 236.908 163.997 246.189C143.798 252.564 124.026 210.912 150 201M1158 214.498C1123.16 218.968 1127.61 275.414 1162 270.729C1197.02 265.958 1199.59 209.162 1158 214.498M1158.61 218.249C1164.6 219.757 1181.89 224.769 1184.83 231.179C1192.18 247.192 1168.25 269.101 1153 265.481C1130.58 260.16 1135.34 212.393 1158.61 218.249M1512 240C1520.73 245.905 1529.68 277.141 1511.02 270.99C1493.83 265.324 1499.75 240.324 1495 228C1481.8 236.123 1498.61 277.867 1513.99 277.508C1534.62 277.025 1529 247.483 1518.67 238.749C1516.2 236.653 1506.39 229.524 1504.83 236.134C1503.82 240.43 1509.99 246.231 1512 240M1908 258C1930.13 268.35 1973.57 256.387 1997 252.758C2000.58 252.203 2024 251.505 2024 247.078C2024 242.936 2000.15 246.943 1997 247.313C1975.33 249.859 1953.69 252.423 1932 254.68C1924.27 255.484 1914.41 252.852 1908 258M466 249C466.586 251.662 466.586 253.338 466 256C465.136 253.405 465.136 251.595 466 249M1991 286C2023.56 286.148 1992.71 314.254 1975 315.355C1967.46 315.823 1948.1 302.927 1956.87 294.124C1960.81 290.164 1973.67 291.101 1979 291L1979 288C1973.68 288 1968.32 287.804 1963 288.039C1946.2 288.781 1948.23 306.069 1958.76 315.211C1973.66 328.154 2011.4 314.295 2012.67 293.999C2013.28 284.261 1994.56 275.87 1991 286M1238.33 314.667C1238.28 314.722 1238.22 315.778 1238.67 315.333C1238.72 315.278 1238.78 314.222 1238.33 314.667M537 442C530.674 450.076 533.608 466.073 532.436 476C528.975 505.308 524.005 534.54 522 564C521.715 568.184 516.432 601.357 520.297 601.357C526.535 601.357 527.451 569.952 527.856 565C529.855 540.604 530.717 515.145 535.283 491C537.794 477.723 543.286 454.667 537 442M1251 443.698C1224.95 450.901 1232.29 491.178 1260 482.974C1290.31 473.999 1279.59 435.792 1251 443.698M1253 448C1248.94 474.818 1269.27 430.422 1275.83 461.217C1280.93 485.133 1217.94 483.604 1243.68 454.482C1246.31 451.507 1249.26 449.268 1253 448M2029 578C2036.77 570.864 2038.7 546.322 2040.34 536C2044.78 508.096 2051.55 479.915 2065 456C2052.52 453.231 2049.92 473.495 2047.58 482C2039.31 512.072 2029.05 546.65 2029 578M607 457C601.694 494.406 595 533.155 595 571C601.023 566.874 600.523 552.011 601 545C602.465 523.47 607.383 502.537 609.129 481C609.693 474.043 612.651 462.365 607 457M1956 575C1946.69 545.42 1955.06 516.153 1958.82 486C1959.34 481.865 1964.4 458.835 1963.74 458.767C1954.53 457.81 1954.33 480.486 1953.42 486C1949.92 507.029 1945.97 529.679 1946 551C1946.01 560.083 1946.79 570.746 1956 575M1671.74 461.466C1666.47 464.993 1667.66 487.693 1666.2 494C1659.23 524.287 1647.1 552.654 1637.44 582.003C1636.58 584.619 1631.17 613.297 1638.31 610.239C1640.9 609.125 1641.96 584.294 1643.49 580C1653.59 551.621 1666.44 522.82 1671.74 493C1672.44 489.052 1675.56 458.908 1671.74 461.466M1596 471C1586.99 484.191 1587.12 501.741 1583.98 517C1578.64 542.974 1565.69 570.251 1566.03 597C1566.12 604.689 1575.02 616.726 1580 605C1564.26 604.837 1573.19 582.25 1574.9 573C1579.16 550.083 1585.77 526.797 1590.94 504C1592.98 495.006 1598.73 479.981 1596 471M1901 491C1902.34 499.259 1911.98 503.872 1908.7 514C1901.17 537.24 1868.64 521.498 1877.42 498C1881.85 486.164 1894.83 491.1 1899 483C1887.69 483 1879.52 484.384 1873.6 495.218C1867.39 506.597 1870.95 527.627 1886 529.794C1910.12 533.266 1928.19 497.067 1901 491M1516 497C1517.81 497.574 1518.07 497.465 1520 497C1518.19 496.426 1517.93 496.535 1516 497M2012 508C1989.47 502.916 1982.22 535.414 2001.01 545.396C2024.17 557.703 2043.44 519.416 2027.9 503.022C2020.47 495.183 2009 494.427 2012 508M1511 498C1505.56 505.924 1500.14 510.571 1497.1 520.217C1494.99 526.912 1494.37 533.889 1496.58 540.68C1498.16 545.519 1501.08 551.698 1504.62 555.377C1537.6 589.601 1587.31 509.694 1537.03 507.398C1528.33 507.001 1531.18 516.716 1537 519C1536.67 516.121 1536.06 513.699 1535 511C1587.48 512.596 1517.5 594.413 1501.68 541C1500.06 535.509 1499.6 529.682 1500.34 524C1501.73 513.34 1511 507.472 1513 498L1511 498M2018 515C2016.4 509.414 2015.01 504.888 2015 499C2038.45 507.544 2032.94 545.566 2007.01 542.473C1995.3 541.076 1990.4 517.971 1999.9 511.3C2004.92 507.781 2013.21 513.499 2018 515M858 501.438C849.72 502.37 841.323 502 833 502C829.471 502 795.163 501.354 801.289 507.751C804.294 510.889 814.975 509 819 509C835.999 509 853.039 507.456 870 508.041C875.433 508.228 888.39 513.287 892.947 509.711C900.192 504.025 862.846 500.893 858 501.438M2106.04 502.578C2085.18 507.349 2076.17 556.518 2102 551.356C2114.23 548.911 2125.69 537.599 2126.88 524.922C2127.98 513.269 2119.09 499.595 2106.04 502.578M2108.03 506.745C2129.46 503.945 2120.11 543.885 2101.01 546.211C2082.81 548.427 2091.55 508.9 2108.03 506.745M1195 516C1221.57 516 1247.39 511.998 1274 512C1278.56 512 1299.18 516.255 1298.03 513.036C1295.48 505.888 1281.89 507.002 1276 507C1255.35 506.994 1235.48 508.131 1215 510.438C1208.57 511.162 1198.12 509.014 1195 516M1708 513C1714.45 514.032 1720.7 512.174 1726.83 515.448C1761.11 533.752 1678.03 596.516 1686.52 548C1687.32 543.482 1688.95 539.096 1691.03 535.019C1694.94 527.332 1701.83 521.739 1706 514C1684.91 516.875 1666.73 571.722 1698 571.959C1719.09 572.119 1742.3 542.766 1737.48 522.001C1734.53 509.302 1717.51 504.906 1708 513M104.408 552.131C100.46 556.301 120.403 556.987 122 557.04C141 557.68 159.949 558 179 558C183.242 558 195.741 560.104 198.592 556.319C202.058 551.719 182.103 553.009 180 552.997C162.444 552.902 143.445 553.525 126 551.562C121.606 551.067 107.747 548.602 104.408 552.131M1208 589.52C1206.46 589.789 1198.1 591.625 1201.31 594.781C1203.54 596.974 1215.51 593.009 1219 593.001C1235.14 592.961 1254.12 593.544 1270 596.78C1275.46 597.892 1290.26 603.172 1295.17 600.16C1303.56 595.013 1275.1 591.599 1272 590.895C1254.26 586.87 1225.96 586.397 1208 589.52M97 637C121.995 642.375 151.828 641.458 177 637.713C180.332 637.217 206.073 634.745 202.592 629.988C199.296 625.483 182.543 631.139 178 631.911C159.408 635.07 137.76 635.678 119 633.562C111.817 632.751 100.89 629.292 97 637M1201.76 636.26C1187.08 646.599 1199.21 697.372 1221 682.278C1230.44 675.739 1241.2 663.224 1239.66 651C1237.85 636.719 1213.82 627.765 1201.76 636.26M1213 645C1209.52 635.425 1228.57 639.351 1232.26 643.526C1242.39 655.017 1221.54 686.651 1208.72 678.496C1198.6 672.061 1192.7 632.603 1213 645M285 750C286.506 750.683 287.315 750.826 289 751C287.494 750.317 286.685 750.174 285 750M294 750C296.371 750.819 298.487 750.95 301 751C298.628 750.181 296.513 750.05 294 750M304 750C306.678 750.914 309.173 750.974 312 751C309.322 750.086 306.827 750.026 304 750M314 750C316.371 750.819 318.487 750.95 321 751C318.628 750.181 316.513 750.05 314 750M327 750C333.939 752.351 342.72 751 350 751C343.061 748.649 334.281 750 327 750M383 750C390.479 752.534 400.147 751 408 751C400.521 748.466 390.853 750 383 750M413 750C438.473 758.63 478.99 751 506 751L717 751C691.527 742.37 651.01 750 624 750L413 750M750 750C777.852 759.436 822.454 751 852 751C824.148 741.564 779.546 750 750 750M855 750C869.65 754.964 891.519 751 907 751C892.35 746.036 870.481 750 855 750M914 750C920.122 752.074 927.584 751 934 751C927.878 748.926 920.416 750 914 750M937 750C939.064 750.725 940.804 750.909 943 751C940.936 750.275 939.196 750.091 937 750M944 750C945.506 750.683 946.315 750.826 948 751C946.494 750.317 945.685 750.174 944 750M951 750C952.506 750.683 953.315 750.826 955 751C953.494 750.317 952.685 750.174 951 750M975.667 750.333C975.222 750.778 976.278 750.722 976.333 750.667C976.777 750.223 975.722 750.278 975.667 750.333M1426 750C1426 751.797 1426.01 751.521 1427 753L1429 750L1426 750M937 918C920.12 932.499 902.614 936.244 901.158 963C899.888 986.32 942.362 1001.93 959.919 990.782C980.591 977.656 969.092 956.266 969.332 937C969.59 916.197 975.013 895.037 975 874C974.996 868.469 973.517 838.718 966.823 837.544C969.257 837.971 955.285 852.628 953 854.188C932.423 868.238 885.19 918 937 918M597 842L597 845L600 845L600 842L597 842M557 846C558.846 850.76 562.289 852.485 567 854C566.936 849.841 589.93 848.9 593.667 851.722C597.465 854.591 585.987 891.482 600 880C598.105 897.795 591.408 921.504 595 939C588.795 937.645 582.943 936.974 577 939.653C563.85 945.58 549.331 967.095 561.561 980.734C569.674 989.782 594.019 986.676 600 977C593.481 974.782 597.545 958.697 598.075 953C599.936 932.981 599.261 913.003 602 893C603.108 884.912 601.319 870.201 613 876C609.321 862.382 606.789 854.621 621 851C606.706 840.269 573.987 847.165 557 846M603 851C601.853 853.797 600.495 856.372 599 859C597.847 854.963 598.849 852.138 603 851M146 917C151.137 931.657 134.068 956.1 134 973C148.63 961.548 139.216 923.788 161.003 915.263C164.483 913.901 172.852 911.589 175.818 914.829C179.013 918.318 177.998 925.677 178 930C178.007 941.464 179.143 953.646 180.72 965C180.982 966.883 181.348 975.382 184.735 974.677C187.892 974.019 185.027 956.03 184.992 953C184.935 947.971 184.233 942.979 183.562 938C182.473 929.917 182 922.156 182 914L187 916C186.284 908.383 183 902.397 183 894C183 888.68 183.231 883.299 182.68 878C182.213 873.517 184.278 858.957 180.883 856.065C175.951 851.864 171.329 865.285 170.449 868C166.663 879.684 157.773 912.138 146 917M964 915C953.803 912.699 922.112 918.771 916.359 908.476C909.874 896.872 940.7 866.984 949.019 861.421C952.548 859.061 958.702 852.591 963.453 854.991C967.008 856.786 965.137 866.673 965.186 870C965.41 885.091 964.007 899.981 964 915M605 857L605 862L603 862C603.399 859.878 603.796 858.778 605 857M969 861L969 865C968.493 863.308 968.493 862.692 969 861M1218 877C1212.23 856.813 1259.28 870.929 1271 870.995C1275.12 871.018 1289.98 868.635 1292.6 871.958C1296.32 876.672 1290.2 899.412 1290.06 906C1289.53 930.365 1290.29 954.574 1288.92 979C1288.35 989.217 1282.43 999.91 1284 1010C1293.1 1002.21 1292 985.762 1292 975C1292 948.722 1293.64 922.256 1293.99 896C1294.07 890.071 1302.67 864.647 1301.7 864.182C1297.05 861.942 1285.63 866 1280 866C1261.53 866 1240.82 858.767 1223 861.268C1213.4 862.616 1208.66 871.276 1218 877M599 862C598.982 866.402 598.578 870.64 598 875C596.527 870.651 596.54 865.929 599 862M177 863C178.452 870.425 181.486 900.825 176.178 906.181C172.658 909.733 161.872 910.259 157 911C160.34 896.159 168.671 875.735 177 863M970 866C970.623 870.698 970.993 875.258 971 880C969.158 875.623 967.647 870.327 970 866M1997 899C2018.98 899.418 2040.85 898 2063 898C2055.65 921.048 2054.28 954.608 2054.01 979C2053.93 985.812 2059.79 1004.63 2054.5 1009.18C2042.18 1019.75 2009.7 1011.06 1995 1011C1997.17 1016.47 2004 1014.88 2009 1015.89C2018.44 1017.8 2053.92 1020.02 2059.72 1010.7C2064.34 1003.26 2058.04 991.039 2058 983C2057.9 963.003 2061.01 941.859 2063.43 922C2064.14 916.183 2066.77 900.608 2063.65 895.584C2061.82 892.633 2052.2 894.109 2049 894.026C2039.02 893.769 2002.94 891.616 1997 899M1602 985C1593.43 984.837 1580.84 981.519 1573.23 986.937C1557.14 998.398 1569.86 1029.98 1581 1040L1582 1039C1574.66 1027.26 1563.89 1008.96 1572.17 995.06C1579.52 982.73 1627.72 987.486 1638 994C1645.51 984.377 1669.57 983.938 1681 982C1676.77 1001.58 1673.98 1029.48 1679 1049C1684.4 1033.07 1681.59 1010.13 1684.24 993C1684.69 990.106 1687.51 977.173 1683.48 976.272C1674.84 974.343 1646.26 993.373 1639.26 983.491C1635.75 978.539 1637.79 965.748 1638.44 960C1640.51 941.562 1643.63 923.394 1646 905C1634.31 909.09 1612.56 916.172 1603.51 924.741C1588.25 939.173 1590.48 970.931 1602 985M969 907C968.803 917.377 965.159 927.678 965.355 938C965.619 951.89 974.235 970.615 963.24 982.678C954.935 991.79 947.701 986.073 938 984.735C921.624 982.478 904.239 984.226 905.476 961C906.409 943.469 918.634 930.839 934 924.908C946.175 920.209 964.351 911.838 960 932C965.53 924.755 964.28 914.571 969 907M1639 915L1640 916C1636.19 932.29 1634.64 948.325 1634.04 965C1633.89 969.116 1635.64 980.74 1632.73 983.743C1623.04 993.742 1599.47 983.746 1596.51 972C1588.06 938.425 1613.09 923.568 1639 915M583 941.498C601.022 939.115 595.569 978.066 585.893 979.93C553.087 986.25 557.931 944.812 583 941.498M2052 957C2049.68 953.607 2046.81 952.372 2043 951L2053 950C2043.36 942.257 2019.29 950.555 2007 949.922C2005.22 949.83 1992.64 947.19 1992.64 950.043C1992.64 952.642 2004 953.786 2006 954.254C2020.4 957.634 2036.94 954.864 2052 957M200.992 1177.51C192.876 1177.91 190.418 1187.84 199.029 1187.19C206.23 1186.64 210.617 1177.04 200.992 1177.51M204 1180C202.479 1182.45 201.875 1182.9 199 1183C200.592 1180.95 201.449 1180.51 204 1180M181 1183C178.309 1182.75 175.666 1182.34 172.997 1181.92C153.428 1178.81 172.326 1193.46 181 1183M197 1182L197 1185L195 1185L195 1182L197 1182M171 1187C171.545 1188.64 171.365 1188.45 173 1189C172.227 1187.82 172.176 1187.77 171 1187M1624 1190L1624 1194C1638.91 1194.51 1650.18 1191.52 1665 1190C1658.97 1183.25 1634.04 1192.13 1624 1190M151 1224C172.176 1219.6 192.161 1215.68 214 1214.99C219.934 1214.8 229.04 1211.86 234.676 1214.04C238.554 1215.54 237.42 1223.64 237.463 1227C237.572 1235.43 240.627 1269.48 234.178 1274.74C230.609 1277.65 222.367 1275.84 218 1276.32C203.829 1277.88 170.651 1276.75 160 1286C174.003 1289.48 197.648 1283.55 212 1281C217.525 1280.02 229.576 1276.62 234.178 1281.04C238.289 1284.99 237.796 1300.32 238.562 1306C239.375 1312.03 244.876 1330.43 238.697 1334.2C223.639 1343.4 198.043 1340.29 181 1342.71C174.411 1343.64 165.438 1342.13 161 1348C181.806 1347.26 202.147 1342.47 223 1341.98C228.612 1341.85 241.264 1340.09 244.178 1334.44C247.72 1327.57 243.201 1314.08 241.797 1306.96C238.53 1290.39 239 1272.79 239.015 1256C239.025 1245.33 238.482 1229.41 241.828 1219.33C242.866 1216.2 251.818 1211.43 249.108 1209.08C245.2 1205.68 233.186 1210.98 228 1211C208.505 1211.05 189.221 1212.33 170 1215.48C162.688 1216.69 153.114 1214.99 151 1224M927 1267C920.368 1268.98 914.785 1272.32 909 1276.08C895.091 1285.11 891.66 1308.76 908.049 1318.47C921.148 1326.23 930.25 1322.83 943 1316.83C945.498 1315.65 952.974 1315.22 954.456 1313.25C957.189 1309.63 946.092 1310.67 945 1311C928.026 1316.16 900.291 1322.21 902.172 1293C903.357 1274.61 929.205 1271.64 942 1269.09C943.572 1268.78 956.461 1264.28 952.894 1261.4C948.354 1257.72 934.838 1264.43 927.218 1258.62C920.627 1253.59 914.656 1245.39 924 1240C926.92 1225.45 938.945 1228.6 949 1230C946.888 1224.95 942.157 1222.26 937 1221C950.008 1212.66 945.389 1224.51 956 1226C947.634 1197.18 913.899 1228.48 912.901 1247C912.512 1254.23 922.256 1262.41 927 1267M2039 1282C2018.22 1261.46 1998.32 1253.33 1985 1225C1982.89 1231.86 1987.92 1240 1991 1246C1979.75 1243.26 1977.65 1234.44 1972 1226C1967.95 1244.76 2005.19 1262.92 2017.99 1272.14C2022.69 1275.53 2025.32 1280.76 2030 1284L2027 1276C2040 1290.55 1982.96 1302.49 1975 1315C1982.6 1312.73 1989.6 1308.81 1997 1306C1982.82 1317.67 1969.24 1333.36 1957 1347C1965.13 1348.32 1970.86 1340.35 1975.95 1335C1990.57 1319.66 2001.95 1305.99 2021 1295.92C2023.63 1294.54 2034.49 1286.78 2037.29 1288.53C2040.62 1290.63 2038 1306.17 2038 1310C2038 1316.71 2037.15 1323.33 2037.06 1330C2036.93 1339.49 2037.89 1348.44 2037 1358C2042.93 1355.65 2042.07 1346.49 2041.99 1341C2041.73 1323.85 2046.46 1298.89 2043 1283C2045.04 1283.79 2045.84 1283.98 2048 1284C2031.74 1270.55 2057.69 1231.26 2045.59 1214.89C2041.98 1210 2040.47 1222.31 2040.67 1224C2042.87 1242.22 2042.88 1263.91 2039 1282M1447 1221C1441.35 1258.49 1442.87 1301.04 1442 1339C1425.19 1310.62 1410.51 1280.52 1393.06 1252.99C1388.58 1245.94 1382.12 1229.21 1376 1225C1366.55 1252.22 1378.03 1282.49 1378.96 1310C1379.41 1323.37 1373.67 1339.05 1376.28 1351.97C1377.29 1356.94 1381.09 1357.51 1383 1353L1379 1354C1389.69 1317.51 1376.74 1278.48 1379 1241C1401.15 1274.96 1416.32 1324.61 1445 1353C1448.34 1309.02 1447.36 1265.04 1450 1221L1447 1221M471 1349C477.527 1331.92 517.067 1311.45 533 1303C531.012 1312.26 523.012 1351.22 530 1357C530.969 1340.84 532.735 1319.21 538 1304C550.156 1320.1 583.345 1349.71 602 1357C600.669 1343.3 569.119 1321.9 558 1313.81C553.943 1310.85 540.011 1303.69 541.159 1297.39C542.155 1291.92 558.401 1283.22 563.008 1280.05C569.085 1275.88 575.545 1272.27 582 1268.72C590.43 1264.09 599.699 1253.89 610 1256C607.401 1245.43 596.814 1253.93 590.999 1256.97C576.857 1264.37 548.195 1278.4 540 1292C537.257 1281.16 536.478 1231.13 547 1227C539.617 1221.2 537.022 1229.56 537.066 1236C537.196 1254.87 532.728 1274.14 535 1293C513.594 1277.09 497.343 1255.4 477.001 1238.41C474.979 1236.72 453.12 1221.28 454.081 1227.09C455.023 1232.78 466.941 1237.13 471 1240.5C485.22 1252.31 498.246 1266.64 512 1279.14C515.973 1282.75 528.706 1291.72 527.919 1297.82C527.253 1302.99 515.007 1308.53 511 1311.13C493.459 1322.5 476.246 1334.25 458.505 1344.91C448.85 1350.71 469.263 1349.05 471 1349M1240 1323L1238 1323C1238 1307.35 1235.42 1291.56 1233.68 1276C1233.08 1270.58 1230.27 1262.93 1235 1259C1231.7 1252.73 1229.86 1241.8 1223 1239C1229.91 1269.43 1232.05 1301.04 1235.56 1332C1236.49 1340.2 1234.1 1360.34 1245.91 1359.88C1250.78 1359.69 1266.92 1332.81 1273 1328C1273.6 1332.4 1274.35 1336.75 1275.67 1341C1289.3 1384.71 1297.93 1315.53 1303 1312C1287.56 1307.09 1297.74 1288.15 1306 1281C1309.31 1291.67 1317.34 1302.84 1318.36 1314C1319.52 1326.6 1304.47 1347.8 1321 1353C1316.91 1341.02 1319.73 1335.33 1321 1323L1327 1327C1328.94 1318.64 1322.5 1312.14 1323.24 1304C1325.19 1282.31 1334.77 1247.48 1328 1227C1320.59 1233.06 1319.4 1245.11 1312.48 1250.09C1298.27 1260.34 1289.72 1230.87 1281 1227C1281.71 1234.64 1281.66 1242.45 1283 1250C1269.3 1248.05 1253.18 1249.19 1240 1253C1240.59 1246.71 1240.56 1241.52 1248 1242C1245.48 1238.36 1248.64 1226.64 1242.36 1226.64C1236.81 1226.64 1237.09 1245.29 1236.96 1249C1236.07 1273.59 1240 1298.27 1240 1323M1246 1232C1244.35 1234.65 1242.65 1236.35 1240 1238C1241.03 1234.31 1242.26 1232.91 1246 1232M1327 1234C1321.53 1261.91 1309.27 1256.46 1325 1234L1327 1234M1286 1237C1287.52 1241.39 1287.98 1245.37 1288 1250L1286 1250C1285.74 1245.6 1284.61 1241.26 1286 1237M1685 1238C1684.86 1252.78 1675.33 1263.53 1671.01 1277C1663.3 1301.03 1658.79 1326.62 1652 1351C1634.77 1332.11 1630.48 1296.8 1623.37 1273C1621.5 1266.73 1620.26 1248.06 1612.72 1245.76C1606.58 1243.89 1598.91 1274.36 1597.19 1279C1587.29 1305.63 1582.16 1334.57 1582 1363C1581.98 1367.2 1580.16 1390.94 1588.47 1389.57C1591.41 1389.09 1586.75 1379.73 1586.41 1378C1584.01 1365.44 1586.96 1352.53 1587.86 1340C1588.75 1327.75 1591.2 1315.95 1594.02 1304C1597.94 1287.43 1607.96 1270.61 1610 1254C1628.31 1272.06 1631.44 1317.95 1641.59 1341.99C1644.47 1348.82 1646.92 1361.89 1653 1366C1655.12 1335.53 1667.83 1297.44 1678.83 1269C1681.5 1262.07 1695.6 1242.6 1685 1238M1647 1240L1648 1241L1647 1240M1268 1283C1271.19 1281.42 1279.49 1273.83 1283.04 1275.68C1290.09 1279.33 1275.17 1291.84 1270.42 1291.16C1265.85 1290.49 1256.62 1258.96 1256 1254C1264.68 1254.33 1296.06 1252.51 1282.02 1271.3C1278.45 1276.09 1272 1278.47 1268 1283M1292 1254C1295.29 1258.37 1296.98 1263.54 1291 1266C1291.49 1262.03 1291.15 1257.87 1292 1254M1252 1283C1247.29 1277.92 1241.89 1268.22 1241.51 1261.13C1241.28 1256.78 1248.42 1253.03 1251.74 1256.27C1256.17 1260.57 1252 1277.2 1252 1283M1309 1256C1307.1 1259.02 1305.44 1260.09 1302 1261L1301 1255L1309 1256M1319 1260C1317.07 1265.61 1313.4 1270.43 1308 1273C1310.13 1267.75 1314.62 1263.48 1319 1260M1257 1266C1266.21 1293.8 1249.29 1288.75 1257 1266M1297.71 1269.03C1302.47 1269.21 1298.17 1276.42 1294.37 1275.72C1289.54 1274.83 1294.5 1268.9 1297.71 1269.03M1323 1268C1323 1276.94 1326.07 1294.3 1319 1301C1314.11 1288.58 1304.88 1274.16 1323 1268M1244 1275C1250.3 1293.44 1267.21 1338.2 1243 1352C1243.66 1333.59 1243.02 1315.48 1243 1297C1242.99 1290.08 1240.18 1281.11 1244 1275M1303 1278.33C1303.89 1278.33 1303.89 1279.67 1303 1279.67C1302.11 1279.67 1302.11 1278.33 1303 1278.33M1296 1280C1295.49 1281.95 1295.27 1282.46 1294 1284C1294.36 1282.21 1294.84 1281.45 1296 1280M1291 1287C1291.04 1289.17 1290.61 1290.9 1290 1293C1289.39 1290.49 1289.71 1289.24 1291 1287M1265 1288C1264.81 1293.44 1263.48 1295.85 1258 1297C1260.44 1294.29 1261.7 1291.39 1263 1288L1265 1288M1283 1290C1282.9 1314.73 1260 1302.27 1283 1290M1268 1303C1265.97 1302.18 1265.27 1301.75 1264 1300C1266.77 1299.92 1267.13 1300.35 1268 1303M1293 1299C1292.46 1311.64 1292.91 1314.88 1279 1317C1283.93 1311.26 1287.44 1304.06 1293 1299M1256 1338C1258.21 1325.57 1258.17 1313.51 1257 1301C1277.48 1306.24 1270.18 1330.17 1256 1338M1998 1305L1997 1306L1998 1305M1294 1317C1294 1323.17 1296.28 1348.49 1286.85 1349.57C1280.19 1350.34 1275.31 1329.31 1276.65 1324.49C1277.75 1320.49 1290.29 1317.85 1294 1317M16.3333 1570.67C16.2776 1570.72 16.2223 1571.78 16.6667 1571.33C16.7221 1571.28 16.7779 1570.22 16.3333 1570.67M16 1585L16 1588C16.6961 1586.45 16.6961 1586.55 16 1585M470 1730C496.731 1688.61 498.215 1635.67 521 1593C526.492 1610.84 524.852 1632.7 522.42 1651C521.266 1659.68 516.867 1674.8 521.619 1682.83C526.473 1691.03 533.062 1677.93 534.943 1674C542.627 1657.94 557.155 1635.56 559 1618C566.879 1649.64 542.198 1687.57 555 1720C558.06 1710.97 555.599 1699.47 556.078 1690C557.151 1668.79 559.413 1646.98 562.758 1626C563.236 1623 568.638 1597.65 565.199 1598.32C560.835 1599.18 557.023 1617.04 555.459 1621C547.863 1640.2 538.492 1666.08 524 1681C519.509 1660.07 526 1634.54 526 1613C526 1607.51 527.502 1592.74 522.128 1589.19C516.292 1585.33 508.373 1615.95 506.941 1620C498.451 1644.01 492.431 1668.31 482.563 1692C478.088 1702.74 468.757 1718.21 470 1730M180 1589C171.433 1603.68 168.675 1622.92 163.207 1639C156.199 1659.61 145.573 1678.96 137.216 1699C133.135 1708.79 122.009 1726.39 132 1735C140.395 1688.54 164.93 1642.57 180 1597C182.521 1629.88 181.773 1662.12 182.255 1695C182.356 1701.91 180.935 1723.64 189 1726C187.006 1692.69 187.517 1659.3 185.236 1626C184.421 1614.1 188.396 1599.06 180 1589M16.3333 1599.67C16.2777 1599.72 16.2222 1600.78 16.6667 1600.33C16.7221 1600.28 16.7779 1599.22 16.3333 1599.67M861 1599C861 1616.39 864 1633.61 864 1651C864 1656.47 866.062 1665.6 860 1668L860 1671C873.855 1676.49 851.962 1718.29 868 1722C866.374 1711.37 861.151 1679.33 869.814 1670.94C873.262 1667.6 882.416 1668.18 887 1667.42C891.476 1666.67 906.489 1661.58 909.662 1665.83C917.909 1676.87 900.395 1701.83 913 1713C913 1688.88 917.835 1665.83 918 1642C918.035 1636.94 917.078 1620.4 922 1619C920.985 1617.22 916.349 1610.89 914.59 1615.53C910.172 1627.2 918.259 1647.02 910.74 1657.32C904.742 1665.53 877.426 1662.61 868 1665C868 1651.74 871.529 1607.7 861 1599M1266.44 1603.86C1244.73 1609.99 1240.99 1666.27 1244.46 1684C1246.25 1693.13 1248.92 1711.45 1262.99 1708.18C1270.7 1706.38 1275.12 1695.45 1277.98 1689C1286.81 1669.11 1289.63 1650.11 1283.57 1629C1281.46 1621.66 1277.57 1600.71 1266.44 1603.86M16 1606L16 1609C16.6961 1607.45 16.6961 1607.55 16 1606M1254 1644C1249.43 1636.21 1259.91 1604.37 1270.82 1607.35C1277.01 1609.03 1278.82 1623.82 1280.22 1629C1284.89 1646.31 1286.29 1697.3 1261.99 1702.87C1243.96 1707 1245.34 1651.14 1254 1644M2011 1730C2021.6 1732.9 2022 1683.01 2022 1674L2027 1677L2028 1676C2018.59 1659.49 2026.08 1637.67 2025 1619C2026.87 1619.21 2028.13 1619.21 2030 1619C2015.94 1599.71 1967.78 1629.79 1966.83 1649C1965.15 1683.3 1999.32 1662.37 2015.5 1672.69C2024.71 1678.56 2014.47 1721.48 2011 1730M1611 1615C1611.9 1619.38 1612.23 1621.77 1608 1624C1628.87 1642.57 1614.12 1687.76 1612.23 1713C1611.85 1717.99 1617.33 1731.46 1620 1721C1612.82 1718.95 1616.82 1708.34 1617.58 1703C1620.09 1685.23 1623.55 1667.03 1621.83 1649C1621.37 1644.22 1617.59 1631.55 1621.6 1627.94C1636.07 1614.9 1677.02 1629.28 1695 1625C1689.93 1637.31 1688.16 1651.05 1685.34 1664C1683.41 1672.88 1680.84 1682.04 1679.48 1691C1677.94 1701.11 1678.4 1710.88 1678.92 1721C1678.97 1721.91 1678.83 1731.79 1681.33 1730.24C1683.99 1728.58 1681.99 1711.47 1682.3 1708C1684.29 1685.85 1690.32 1663.9 1694.44 1642C1695.34 1637.2 1706.55 1618.3 1708.03 1620.06C1703.37 1614.54 1689.37 1622 1682 1622C1665.21 1622 1635.43 1627.29 1620.14 1622.5C1616.15 1621.25 1614.84 1616.7 1611 1615M2019 1668C2010.62 1667.84 2002.36 1667.77 1994 1667.72C1953.62 1667.49 1976.94 1632.18 1999 1622.07C2004.18 1619.69 2014.41 1613.52 2019.74 1619.22C2026.8 1626.77 2017.18 1657.48 2019 1668M16 1623L16 1631C16.9675 1628.12 16.9675 1625.88 16 1623M16 1667L16 1674C16.8644 1671.4 16.8644 1669.6 16 1667M16.3333 1679.67C16.2777 1679.72 16.2222 1680.78 16.6667 1680.33C16.7222 1680.28 16.7778 1679.22 16.3333 1679.67M1251.67 1680.33C1251.22 1680.78 1252.28 1680.72 1252.33 1680.67C1252.78 1680.22 1251.72 1680.28 1251.67 1680.33M16.3333 1685.67C16.2777 1685.72 16.2222 1686.78 16.6667 1686.33C16.7222 1686.28 16.7778 1685.22 16.3333 1685.67M16.3333 1704.67C16.2779 1704.72 16.2222 1705.78 16.6667 1705.33C16.7223 1705.28 16.7778 1704.22 16.3333 1704.67M16 1711L16 1716C16.6306 1713.99 16.6306 1713.01 16 1711M1948 1724C1947.01 1725.48 1947 1725.2 1947 1727C1948.29 1725.56 1948.4 1725.77 1948 1724M16 1727L16 1730C16.6961 1728.45 16.6961 1728.55 16 1727M16 1736L16 1744C16.9676 1741.12 16.9676 1738.88 16 1736M16 1810L16 1813C16.6961 1811.45 16.6961 1811.55 16 1810M16.3333 1858.67C16.2778 1858.72 16.2222 1859.78 16.6667 1859.33C16.7223 1859.28 16.7777 1858.22 16.3333 1858.67M16 1924L16 1927C16.6961 1925.45 16.6961 1925.55 16 1924M1548 1944C1555.72 1958.01 1567.87 1974.27 1579.23 1985.68C1583.38 1989.85 1593.42 1997.4 1593.08 2004C1592.74 2010.51 1583.86 2018.42 1580.65 2024C1571.34 2040.16 1558.21 2061.93 1558 2081C1569.46 2071.21 1577.19 2040.02 1584.94 2025.92C1587.41 2021.42 1592.32 2008.95 1598.12 2008.08C1602.2 2007.47 1611.65 2020.96 1614 2024C1621.23 2033.36 1629.45 2042.31 1634.76 2053C1638.91 2061.33 1640.01 2072.65 1647 2079C1646.75 2059.99 1636.04 2040.99 1623.77 2027C1618.61 2021.11 1604.82 2010.52 1603.53 2002.68C1602.74 1997.94 1609.81 1991.57 1612.35 1988C1622.94 1973.13 1636.03 1962.25 1649 1950C1634.22 1950.43 1620.28 1969.82 1612.03 1980.96C1609.68 1984.14 1603.25 1996.48 1599.06 1996.48C1595.06 1996.48 1590.55 1988.28 1587.85 1985.76C1577.92 1976.53 1561.38 1944.16 1548 1944M16.3333 1944.67C16.2778 1944.72 16.2222 1945.78 16.6667 1945.33C16.7222 1945.28 16.7778 1944.22 16.3333 1944.67M533 1946C530.148 1951.22 479.542 1960.77 511 1972C509.984 1969.29 504.965 1964.51 506.322 1961.67C509.305 1955.42 532.628 1952.63 535.551 1959.15C546.397 1983.35 546.609 2014.06 547.922 2040C548.353 2048.52 545.689 2066.28 553 2072C550.729 2034.35 552.82 1991.75 539 1956C559.803 1951.22 579.021 1952.6 600 1953C586.526 1935.16 548.797 1959.12 533 1946M16.3333 1948.67C16.2778 1948.72 16.2222 1949.78 16.6667 1949.33C16.7222 1949.28 16.7778 1948.22 16.3333 1948.67M870 1948C877.948 1969.03 901.371 1990.43 915.344 2008.14C942.367 2042.37 961.475 2079.26 995 2108C995.979 2096.63 981.655 2088.75 974.041 2082.3C965.352 2074.94 956.837 2061.27 952 2051C958.919 2054.31 962.573 2062.28 970 2064C963.705 2044.08 936.751 2037.07 928.778 2016.14C926.645 2010.54 936.515 2003.81 940.001 2000.68C951.677 1990.21 961.292 1978.48 970.858 1966.14C974.724 1961.15 978.044 1953.65 985 1954C979.114 1946.01 971.543 1958.17 968.059 1963C958.996 1975.57 947.767 1985.9 937.04 1997C934.206 1999.93 928.998 2008.53 924.255 2007.92C916.632 2006.93 909.95 1989.99 907.078 1984.01C900.267 1969.81 886.165 1951.66 870 1948M1254 1948C1247.88 1966.08 1258.36 1986.56 1252.34 2005C1246.93 2021.56 1228.2 2032.55 1217.17 2015C1201.05 1989.36 1228.83 1961.91 1252 1956C1242.88 1951.29 1234.93 1956.77 1228 1962.64C1214.99 1973.67 1204.73 1992.6 1210.22 2010C1217.69 2033.62 1243.13 2033.88 1253 2012C1260.91 2035.88 1246.73 2068.93 1260 2091C1266.16 2066.64 1259 2035.13 1259 2010C1286.49 2020.53 1311.49 1996.27 1292.18 1970.01C1280.94 1954.72 1263.45 1960.66 1254 1948M1896 2121C1893.42 2120.42 1871.62 2115.6 1872.32 2118.88C1873 2122.03 1880.6 2122.16 1883 2122.63C1894.14 2124.8 1904.09 2130.65 1915 2133C1912.43 2126.72 1904.43 2125.85 1901.82 2119.82C1899.06 2113.42 1901.89 2093.17 1910.04 2091.22C1916.22 2089.74 1926 2094.41 1932 2096C1936.48 2089.46 1944.47 2093.84 1951 2094.54C1962.49 2095.75 1989.06 2100.38 1999.32 2094.18C2003.7 2091.53 2002.49 2070.41 2003.79 2065C2010.14 2038.54 2015.82 2007 2017.72 1980C2018.18 1973.41 2015.13 1957.02 2008 1955C2010.48 1981.6 2009.81 2012.66 2004.46 2038.99C2003.12 2045.56 1998.02 2050.15 1997 2057C1999.18 2056.26 1999.72 2055.9 2001 2054C2001.66 2060.47 1999.24 2088.13 1993.72 2091.4C1986.31 2095.77 1969.29 2091.59 1961 2090.57C1954.98 2089.83 1933.69 2091.2 1931.04 2084.54C1927.58 2075.85 1934.79 2057.91 1936.6 2049C1942.32 2020.91 1948 1993.92 1948 1965L1953 1972C1953.37 1969.1 1949.5 1948.41 1945.87 1950.62C1941.92 1953.04 1942.01 1981.79 1942 1987C1941.92 2016.34 1937.15 2057.13 1927.52 2084.85C1924.59 2093.29 1912.19 2084.91 1906.4 2088.3C1896.99 2093.81 1896.88 2111.61 1896 2121M16.3333 1954.67C16.2778 1954.72 16.2223 1955.78 16.6667 1955.33C16.7222 1955.28 16.7778 1954.22 16.3333 1954.67M1262.39 1959.19C1290.22 1952.14 1310.28 2001.52 1277 2009.3C1255.69 2014.29 1259.47 1991.11 1258.22 1977C1257.81 1972.43 1256.23 1960.75 1262.39 1959.19M154 1977C144.382 1962.31 185.222 1979.32 191.598 1987.03C202.744 2000.51 212.317 2037 199.569 2051.74C184.75 2068.88 150.444 2076 129 2076C134.695 2088.61 166.716 2073.11 176 2070.1C224.565 2054.36 217.369 1974.66 166 1967.08C161.208 1966.37 151.962 1964.06 147.512 1966.58C140.912 1970.32 150.388 1976.4 154 1977M16 1966L16 1970C16.5072 1968.31 16.5072 1967.69 16 1966M2053 1966L2053 1969C2054.12 1967.33 2054.12 1967.67 2053 1966M892 1967L895 1975C892.217 1972.76 891.196 1970.53 892 1967M897 1977C898.554 1978.97 899.804 1980.8 901 1983C898.465 1981.34 897.16 1980.08 897 1977M902 1984L901 1985L902 1984M16 2055L16 2058C16.6961 2056.45 16.6961 2056.55 16 2055M227 2066C227.626 2068.79 228.21 2069.37 231 2070C229.801 2067.98 229.007 2067.24 227 2066M246 2075L250 2075C249.023 2071.3 246.977 2071.3 246 2075M16 2080L16 2089C17.0259 2086.09 17.3371 2083.02 18 2080L16 2080M16.3333 2093.67C16.2778 2093.72 16.2222 2094.78 16.6667 2094.33C16.7222 2094.28 16.7778 2093.22 16.3333 2093.67M16 2105L16 2115C17.1102 2111.78 17.2777 2108.34 18 2105L16 2105M16 2117L16 2123C16.7545 2120.7 16.7545 2119.3 16 2117M2126 2126L2127 2127L2126 2126M16 2135L16 2138C16.6961 2136.45 16.6961 2136.55 16 2135z"/>
</svg>
