<?xml version="1.0" standalone="yes"?>
<svg xmlns="http://www.w3.org/2000/svg" width="2200" height="2200">
<path style="fill:#0e0e0e; stroke:none;" d="M16.3333 20.6667C16.2779 20.7222 16.2221 21.7776 16.6667 21.3333C16.7227 21.2773 16.7773 20.2229 16.3333 20.6667M134 78C137.247 124.992 132.639 172.185 136.783 219C137.775 230.212 133.419 256.853 142 265C144.754 252.343 140.749 236.891 140.077 224C138.91 201.58 139.793 179.381 140 157C154.45 164.596 183.382 161.692 199 157.865C202.223 157.076 215.04 155.933 216.24 152.621C217.155 150.094 211.788 145.403 210.809 142.957C206.668 132.607 202.21 123.044 199.737 112C198.617 107 201.662 83.3284 200.07 81.7734C194.59 76.4209 194.541 94.8772 194.32 97C193.018 109.519 189.134 140.363 200 149C199.792 138.859 197.458 129.298 198 119C201.527 130.131 203.776 140.473 209 151C191.581 153.611 175.892 157 158 157C154.003 157 142.448 157.456 140.023 153.523C137.782 149.888 140.463 140.106 140.866 136C142.13 123.102 140.524 108.898 139.597 96.0046C139.177 90.1567 141.904 80.302 134 78M142.5 92.5C141.873 93.1274 142.872 94.1277 143.5 93.5C144.127 92.8726 143.127 91.8726 142.5 92.5M17 93L17 98C17.6306 95.9946 17.6306 95.0054 17 93M2062 211C2052.46 206.57 2043.76 213.83 2036.79 219.746C2023.83 230.734 2003.93 258.824 2023.2 274.215C2029.92 279.588 2062.19 284.954 2066 276L2061 276C2070.14 264.204 2065.99 241.747 2066 227C2066.03 188.704 2066.45 151.04 2070 113C2074.92 114.062 2079.99 114.533 2085 115L2080 110C2083.43 109.186 2111.71 103.285 2110.89 101.54C2108.59 96.614 2068.73 104.975 2066.28 110.281C2054.42 135.951 2062.01 183.139 2062 211M1578 281L1580 281C1580.47 236.77 1587.47 192.301 1588.96 148C1589.16 142.039 1594.92 109.231 1588.78 106.864C1586.53 105.997 1584.06 142.497 1584.01 147C1583.51 191.7 1578 236.228 1578 281M594 118C583.664 120.531 586 139.617 586 148C586 168.824 588.637 190.576 592.703 211C594.444 219.743 600.543 233.117 598.475 241.915C593.939 261.218 568.485 259.05 554 260.823C548.815 261.458 537.732 264.755 534.887 258.569C517.873 221.57 532.408 168.599 527 129C521.918 137.117 526.299 151.657 525.93 161C524.643 193.587 523.998 226.776 530 259L525 257C525.612 261.349 527.972 263.05 531 266C512.919 266.318 494.994 268.589 477 270.067C472.341 270.449 462.923 274.932 458.822 271.722C452.472 266.752 457.991 241.376 458 234C458.027 211.227 459.073 188.786 456.79 166C455.211 150.239 449.247 131.627 451 116C452.994 117.845 454.486 119.016 457 120C455.916 117.381 450.963 110.103 448.221 115.512C444.045 123.753 450.306 145.792 451.446 155C454.85 182.511 455.324 209.342 453.922 237C453.431 246.696 449.23 267.874 453.822 276.484C456.733 281.944 483.914 273.863 490 273.199C517.469 270.2 544.69 267.245 572 263.132C583.528 261.396 597.364 257.092 602.059 245C605.407 236.375 598.563 220.997 597.084 212C592.791 185.901 581.997 142.693 594 118M1702 202C1702.52 204.361 1702.84 206.588 1703 209L1705 209C1704.84 183.473 1663.09 223.864 1662.16 239C1661.55 249 1668 261.03 1678 264.101C1687.83 267.12 1699.69 259.499 1699 275C1709.35 271.36 1707.06 251.225 1707 243C1706.79 213.616 1712.41 182.25 1714.83 153C1715.2 148.572 1716.13 117.167 1710.21 118.176C1706.1 118.876 1709.95 147.633 1710 152C1710.31 178.816 1704.91 204.505 1703.09 231C1702.61 238.011 1706.21 253.844 1701.68 259.539C1699.89 261.788 1693.63 259.053 1691 259.005C1678.34 258.774 1667.5 256.524 1666.22 241C1664.75 222.933 1689.4 210.236 1702 202M16 131L16 134C16.6962 132.446 16.6962 132.554 16 131M1319 291C1318.89 294.898 1318.15 298.283 1317 302C1321.15 298.694 1322.9 291.85 1325 287C1320.13 281.922 1326 266.009 1326 259C1322.64 261.825 1322.7 266.51 1320 270C1319.8 264.403 1318.24 259.409 1317 254L1321 256C1313.73 227.958 1315.19 192.988 1315 164C1314.99 161.434 1312.28 135.159 1306.94 140.106C1302.17 144.521 1310.2 159.14 1311.39 164.008C1315.1 179.197 1317.62 207.388 1314.18 222.713C1313.22 226.971 1302.67 225.819 1299.01 227.511C1286.43 233.322 1266.09 247.008 1267.95 263C1270.72 286.725 1298.79 296.546 1319 291M851 289C886.822 295.672 926.795 282.322 962 281.295C973.1 280.972 995.276 287.936 999.536 271.86C1004.97 251.37 994.162 214.782 990.302 194C988.15 182.408 984.134 167.248 991 157C980.685 157.774 985.117 177.534 985.783 185C987.745 207.027 993.314 228.865 994.011 251C994.204 257.12 997.83 266.073 994.393 271.618C985.087 286.634 963.255 274.865 950 276.239C944.753 276.782 934.262 281.718 930.744 275.576C926.048 267.378 928.387 252.188 927.922 243C926.642 217.714 919.449 190.739 926 166C916.226 169.659 918.229 183.447 918.867 192C920.871 218.906 920.378 249.817 925 276C917.274 274.661 916.304 280.358 909.874 281.717C898.494 284.122 865.445 289.311 855.266 283.955C849.719 281.037 854.936 259.079 854.68 253C853.404 222.673 848.305 182.665 855 153C853.584 153.472 853.187 153.813 852 155C852.117 152.806 853.137 139.796 846.821 143.662C844.757 144.925 849.952 178.005 850.008 183C850.311 210.329 854.345 239.875 851.78 267C851.158 273.58 846.486 278.724 845.707 284.432C844.736 291.554 849.41 299.077 847.716 306.871C845.489 317.119 823.231 306.297 822.603 314.802C822.549 315.529 845.174 315.779 847.852 314.61C855.058 311.465 852.326 295.18 851 289M2056.85 215.646C2062.79 215.391 2061.98 223.945 2062 228C2062.04 236.133 2066.05 274.159 2054.8 275.498C2005.11 281.41 2017.76 217.329 2056.85 215.646M1309.97 229.199C1315.63 229.159 1314.87 238.404 1314.94 242C1315.14 251.546 1321.61 288.334 1309.99 288.774C1261.94 290.592 1264.71 229.521 1309.97 229.199M16.3333 241.667C16.2778 241.722 16.2225 242.778 16.6667 242.333C16.7221 242.278 16.7779 241.222 16.3333 241.667M16.3333 248.667C16.2778 248.722 16.2222 249.778 16.6667 249.333C16.7221 249.278 16.7779 248.222 16.3333 248.667M1319 273C1320.01 275.981 1319.99 278.863 1320 282L1318 282C1318.01 278.863 1317.99 275.98 1319 273M927 284L916 284C919.266 279.556 923.733 279.476 927 284M2012 314L2011 318C2012.75 316.727 2013.18 316.026 2014 314L2012 314M884 454C890.72 504.115 872.004 558.566 872 610C871.999 622.815 866.83 655.271 882 661C870.31 631.024 878 596.414 878 565C898.858 586.205 924.761 609.074 941.119 633.912C942.733 636.361 959.535 648.565 960.652 643.469C961.858 637.963 946.051 631.13 942.925 626.992C924.871 603.089 897.921 586.953 883 561C893.935 562.658 903.26 563.924 914 560.171C928.57 555.081 944.563 549.897 953.049 536C976.447 497.683 915.947 457.378 884 454M888 459C917.055 467.195 976.982 503.652 945.06 539.861C936.552 549.512 890.523 571.82 880.84 553.299C877.376 546.673 881.981 531.164 882.999 524C886.174 501.669 889.337 481.337 888 459M222 592C205.58 592.151 187.797 596.267 173.008 586.157C160.728 577.762 147.803 542.592 163.06 531.902C174.723 523.73 196.998 530.209 210 530C202.374 518.354 172.97 522.881 161 525C168.626 507.545 178.004 486.805 194.008 475.448C200.439 470.885 217.09 466.507 217.755 479.041C218.159 486.653 212.469 494.541 211 502C221.487 493.365 229.763 463.928 206.96 465.306C177.592 467.081 153.846 518.796 152.137 544C150.385 569.841 161.884 588.086 185 596.721C193.094 599.744 217.998 601.427 222 592M539 533C536.668 532.537 535.332 532.537 533 533C537.881 550.467 532.261 593.149 513.992 602.033C504.589 606.605 481.755 599.351 487 586C469.645 567.599 489.647 515.836 498.593 497C501.227 491.453 511.995 471.222 519.845 474.275C538.463 481.517 529.653 518.374 527.261 532C526.258 537.713 523.112 546.635 528 551C530.756 531.582 547.311 480.261 520.992 469.367C514.096 466.513 506.36 477.104 503.299 482.007C492.757 498.896 484.584 518.438 480.574 538C477.271 554.116 475.623 580 483.339 594.997C490.384 608.688 513.008 610.592 523.299 599.594C541.196 580.466 532.384 554.897 539 533M608 544C594.345 532.568 572.493 540.776 556 538.861C551.039 538.285 540.916 533.182 539 540C557.028 542.584 573.116 541.23 591 542.335C597.311 542.725 601.415 547.854 608 547C607.546 570.897 610 594.119 610 618C618.7 614.941 614.764 592.25 613.95 585C610.828 557.195 615.296 530.706 615.985 503C616.123 497.458 620.835 479.892 615.416 476.086C612.441 473.998 610.306 508.502 610.039 514C609.554 523.97 609.251 534.101 608 544M547 1532C545.457 1520.46 532.149 1524.5 524.864 1528.32C514.177 1533.93 509.562 1546.34 509.442 1558C509.215 1580.1 529.838 1586.33 528.48 1608.9C527.78 1620.53 498.35 1620.97 503.723 1640C507.424 1653.11 522.748 1650.48 527.596 1659.42C532.306 1668.11 516.375 1719.23 547.997 1698.07C551.351 1695.83 554.462 1693.32 556.775 1689.98C562.923 1681.1 566.298 1662.44 553.992 1657.16C548.938 1654.99 535.37 1655.57 534.063 1648.85C532.933 1643.05 532.814 1621.05 536.822 1616.78C544.347 1608.76 560.49 1610.81 558.253 1595C555.977 1578.92 540.952 1586.39 534.017 1577.96C532.381 1575.97 533.559 1565.15 533.335 1562C533.191 1559.97 535.194 1549.55 530.346 1551.11C524.429 1553 529.543 1571.37 525.637 1576.58C522.359 1580.94 518.147 1574.88 516.893 1571.96C507.424 1549.94 522.028 1525.27 547 1532M885 1673C896.699 1709.39 921.454 1693.1 940 1673C940.031 1693.01 974.209 1722.14 988.355 1698.68C1004.26 1672.29 1013.51 1624.84 1001.95 1595.86C980.853 1542.97 915.645 1534.71 874.059 1569C851.919 1587.26 850.969 1615.63 842.069 1640C837.965 1651.24 829.805 1663.16 832.375 1675.78C835.136 1689.35 854.807 1701.94 868 1695.29C877.926 1690.28 880.252 1682 885 1673M916 1553.32C969.532 1547.41 1013.9 1589.55 999.76 1644C995.845 1659.07 990.668 1673.86 987.02 1689C986.048 1693.04 983.938 1702.24 978.59 1702.77C962.507 1704.35 943.555 1686.75 945.239 1671C947.249 1652.2 970.238 1619.33 952.155 1601.03C947.348 1596.16 933.441 1591.04 927 1588.42C916.198 1584.03 903.799 1597.61 898.119 1605.01C881.981 1626.03 886.319 1650.06 879.019 1674.96C876.7 1682.87 869.789 1694.72 860 1693.5C825.468 1689.2 841.013 1660.05 846.329 1640C856.299 1602.41 869.691 1558.44 916 1553.32M153 1560C158.335 1585.18 181.011 1592.5 163 1618C157.656 1605.67 138.426 1585.97 126 1581C131.069 1598.15 153.739 1604.65 160.05 1621.32C162.002 1626.48 155.516 1633.46 153.376 1638C147.656 1650.12 138.267 1667.09 142.803 1681C147.503 1695.41 177.445 1710.42 187.137 1692.94C205.077 1660.58 156.431 1629.82 175.679 1604.42C181.576 1596.64 211.708 1636.61 215.628 1612C217.78 1598.49 216.44 1585.08 204.856 1576.07C194.129 1567.72 178.816 1582.14 178 1593C166.482 1585.04 166.293 1564.92 153 1560M1248 1696C1254.81 1690.42 1257.85 1680.07 1263 1673C1263.03 1692.91 1262.13 1716.86 1267.04 1736.08C1267.78 1738.94 1269.27 1759.39 1272.5 1756.89C1277.8 1752.81 1272.21 1738.18 1271.36 1733C1268.26 1714.14 1266.1 1686.91 1267.14 1668.03C1268.09 1650.95 1288.42 1637.41 1285 1621C1276.23 1628.98 1274.91 1641.76 1267 1650C1267 1629.06 1267.72 1608.9 1269.14 1588C1269.37 1584.59 1271.94 1569.51 1267 1568.79C1262.05 1568.06 1261.93 1591.42 1262.04 1595C1262.66 1614.88 1266.56 1642.67 1262.17 1662C1259.56 1673.47 1246.39 1684.12 1248 1696M194.078 1579.66C207.578 1575.75 211.09 1593.68 211.051 1603C211.04 1605.62 212.874 1613.77 209.249 1614.78C193.302 1619.22 167.155 1587.46 194.078 1579.66M534.362 1584.92C550.811 1578.01 563.899 1601.46 543.001 1609.54C530.194 1614.49 528.99 1587.17 534.362 1584.92M918.999 1592.6C925.419 1590.95 928.986 1596.22 934.019 1599.01C949.914 1607.82 952.356 1606.56 952.957 1628C953.648 1652.64 933.846 1685.75 909 1692.15C895.465 1695.64 890.613 1673.95 888.504 1665C883.94 1645.62 897.242 1598.17 918.999 1592.6M1622 1647C1622.81 1633.47 1618.76 1620.42 1621.01 1607C1621.31 1605.25 1621.35 1598.3 1617.69 1599.76C1614.67 1600.97 1613.99 1610.21 1612.98 1613C1607.74 1627.51 1610.98 1644.8 1604.82 1658.82C1601.73 1665.85 1592.96 1668.43 1589.77 1676C1586.95 1682.68 1583.96 1690.77 1592.09 1694.85C1611.75 1704.72 1601.99 1653.37 1617.29 1658.6C1625.89 1661.54 1621.37 1700.36 1627.96 1700.36C1630.16 1700.36 1634.18 1678.14 1635.17 1675C1638.37 1664.8 1634.84 1652.42 1637.96 1644C1642.45 1631.9 1655.84 1624.63 1660.05 1611.01C1661.72 1605.61 1657.4 1598.74 1651.1 1600.89C1636.66 1605.82 1638.55 1638.19 1622 1647M1995 1656C1989.95 1659.57 1955.99 1676.21 1963.31 1681.73C1987.68 1700.12 2065.33 1675.42 2037.2 1638.24C2027.64 1625.61 2010.43 1624.97 1996 1625C1992.82 1625.01 1979.26 1628.44 1977.44 1626.17C1973.31 1620.99 2004.68 1609.91 1997.43 1604.55C1982.47 1593.5 1930.27 1613.71 1935.04 1635C1940.09 1657.5 1978.56 1652.47 1995 1656M1642 1631C1642.41 1626.38 1647.91 1602.06 1655.17 1605.89C1661.96 1609.47 1645.6 1628.8 1642 1631M1989 1607C1985.64 1616.11 1969.97 1619.23 1967.89 1627.16C1966.36 1632.96 1992.58 1647.08 1997 1652C1982.42 1651.99 1949.04 1651.23 1940.87 1636.99C1929.17 1616.6 1977.71 1607 1989 1607M529.178 1618.64C534.144 1621.36 535.654 1658.99 517.008 1649.07C499.124 1639.56 516.831 1611.9 529.178 1618.64M1615 1623C1617.26 1631.85 1622.43 1652.02 1610 1655C1611.54 1645.84 1610.11 1630.67 1615 1623M148 1682C147.995 1673.7 149.573 1667.94 150.787 1660C151.621 1654.54 152.193 1651.06 154.505 1645.96C156.401 1641.77 159.792 1629.67 165.134 1628.92C171.196 1628.08 176.278 1640.73 178.054 1645C183.009 1656.89 194.658 1691.09 175.011 1697.13C164.249 1700.43 155.423 1682.95 148 1682M1966 1680C1969.8 1671.88 1991.19 1662.77 1999 1657.32C2000.6 1656.21 2009.45 1652.65 2008.92 1650.38C2008.38 1648.08 2001.24 1648.67 1999.32 1647.7C1992.16 1644.07 1985.72 1637.33 1981 1631C1992.64 1627.95 2013.23 1627.54 2024 1633.64C2044.77 1645.41 2035.34 1668.14 2019 1678.18C2003.36 1687.79 1982.93 1680.16 1966 1680M1632 1647C1633.89 1658 1635.79 1668.38 1628 1678C1624.89 1666.38 1620.04 1654.2 1632 1647M542.033 1658.53C566.962 1656.65 560.019 1695.43 539.008 1696.8C523.757 1697.8 528.396 1659.55 542.033 1658.53M1603 1669C1602.29 1672.33 1601.52 1675.64 1600.92 1679C1596.3 1705.18 1585.79 1674.93 1603 1669M1600 1961C1591.95 1955.69 1584.43 1946.3 1575 1944C1577.94 1954.15 1590.92 1958.12 1596 1967C1586.41 1967 1569.87 1968.14 1562.37 1974.85C1554.58 1981.82 1561.53 1998.06 1570 2001.1C1577.42 2003.76 1586.38 1998.46 1594 1998C1589.73 2008.27 1578.11 2013.97 1574 2024C1583.8 2021.85 1590.59 2011.07 1597 2004C1597.88 2016.78 1606.18 2049.65 1625.88 2037.64C1632.03 2033.89 1635.21 2018.62 1640.42 2017.14C1646.88 2015.3 1666.47 2038.02 1671.46 2028.66C1673.13 2025.52 1638.36 2013.57 1640.86 2005.42C1642.34 2000.62 1669.14 1998.9 1674.34 1994.82C1698.32 1975.99 1653.72 1963.72 1642 1963C1646.35 1953.18 1658.51 1947.32 1661 1937C1655.71 1938.32 1639.2 1958.58 1637.06 1957.36C1635.38 1956.4 1637.87 1948.73 1637.95 1947C1638.35 1938.52 1637.79 1927.46 1632.77 1920.21C1627.12 1912.05 1614.85 1916.49 1609.14 1921.83C1596.63 1933.54 1600.28 1945.7 1600 1961M1624.82 1920.02C1633.81 1920.52 1633.06 1940.13 1632.99 1946C1632.79 1964.15 1626.85 1968.58 1608.15 1966.09C1600.69 1965.1 1606.6 1955.27 1606.43 1950.92C1605.99 1939.22 1606.06 1918.97 1624.82 1920.02M1268 1989C1261.88 2004.52 1236.98 2021.47 1236.88 2039C1236.82 2048.11 1263.21 2068.17 1271.88 2066.95C1276.72 2066.28 1284.24 2056.77 1287.78 2053.42C1290.73 2050.63 1304.99 2042.4 1305.78 2039.72C1308.52 2030.45 1292.24 1997.85 1286 1991C1306.16 1987.24 1330.7 1958.07 1308.54 1938.93C1297.47 1929.36 1289.88 1941.79 1279.86 1940.91C1272.81 1940.29 1268.68 1931.53 1260.78 1932.44C1219.49 1937.2 1229.17 1989 1268 1989M1943 2029C1957.78 2027.44 1980.87 2046.48 1996.21 2034.62C2010.61 2023.48 2003.27 1975.34 2003 1959C2002.9 1953.37 2003.85 1941.01 2000.06 1936.6C1993.98 1929.54 1949.8 1928.9 1944.52 1936.68C1939.02 1944.78 1947.93 1960.53 1948.82 1969C1950.76 1987.27 1946.64 2011.45 1943 2029M1999 1975C1985.01 1967.81 1965.87 1950.66 1958 1937C1967.75 1937.58 1986.43 1932.79 1994.4 1939.82C2000.56 1945.26 1998.72 1967.13 1999 1975M902.992 1937.88C872.529 1946.94 866.507 2001.78 861.223 2027C858.789 2038.62 853.489 2053.14 863.397 2062.54C874.99 2073.54 881.659 2058.52 890.898 2058.52C897.066 2058.52 899.206 2068.63 906.783 2066.32C946.077 2054.32 940.991 1998.98 928.841 1971C925.308 1962.87 915.149 1934.27 902.992 1937.88M1261 1937.42C1280.3 1935.98 1277.23 1983.37 1268.89 1984.41C1235.15 1988.63 1226.32 1940.02 1261 1937.42M1294 1940.58C1316.08 1936.82 1314.76 1980.84 1296 1984.64C1293.14 1985.22 1282.34 1987.19 1280.28 1985C1271.42 1975.6 1281.2 1942.77 1294 1940.58M494 1941.52C452.313 1943.83 494.092 1976.9 504.517 1988.27C512.071 1996.5 513.836 2010.06 527.999 2008.81C541.893 2007.6 539.664 1989.67 537.679 1980C534.296 1963.51 512.549 1940.49 494 1941.52M1992 1979C1978.24 1978.33 1968.42 1974.31 1954 1977C1954 1970.25 1946.54 1947.61 1951.26 1942.97C1954.18 1940.1 1960.46 1946.74 1962.44 1948.54C1971.18 1956.46 1987.91 1967.9 1992 1979M902 1944C896.656 1975.8 892.8 2007.99 889.78 2040C888.869 2049.66 884.144 2067 870.548 2061.16C858.832 2056.13 865.247 2037.24 866.495 2028.22C869.814 2004.22 874.414 1953.77 902 1944M908.165 1946.32C915.346 1945.09 922.621 1968.23 925.1 1973C937.729 1997.29 937.67 2015.93 925.609 2040.08C921.538 2048.23 917.558 2059.59 907 2061.13C898.1 2062.42 893.137 2050.34 894.354 2043.22C897.967 2022.08 903.72 1995.51 904.013 1974C904.07 1969.86 903.046 1947.2 908.165 1946.32M483.604 1947.82C501.234 1938.08 529.005 1965.03 532.731 1980C533.902 1984.71 536.727 1999.57 531.315 2002.59C527.428 2004.76 521.026 1998.24 518.158 1996.18C507.786 1988.7 493.441 1974.16 485.247 1964C482.503 1960.6 477.974 1950.93 483.604 1947.82M143 1953.66C132.945 1955.68 123.343 1955.46 114 1960.48C87.234 1974.86 90.2619 1996.72 112 2014.16C127.284 2026.43 156.75 2032.29 176 2027.95C217.068 2018.68 174.86 1947.24 143 1953.66M489.106 1954.6C486.762 1956.29 491.984 1959.18 493.033 1959.62C504.892 1964.58 512.29 1969.26 520.16 1980C521.544 1981.89 526.006 1990.1 529.246 1988.25C533.237 1985.97 525.886 1977.75 524.443 1975.78C519.68 1969.3 499.796 1946.9 489.106 1954.6M175 1978C163.046 1975.97 153.989 1976.43 142 1976.69C139.959 1976.73 131.521 1974.18 131.52 1978.04C131.518 1982.52 148.766 1994.67 152 1999C144.892 2000.16 137.155 2000.07 130 1999.32C119.622 1998.24 98.7431 1999.75 96.8911 1984.93C95.863 1976.7 107.257 1969.3 113 1965.48C132.816 1952.31 162.524 1957.42 175 1978M1640.03 1967.04C1669.91 1962.17 1687.39 1991.43 1650 1998.7C1630.87 2002.42 1628.37 1968.94 1640.03 1967.04M1624 1970C1619.88 1976.24 1613.53 1976.94 1610 1970C1614.72 1970.24 1619.28 1970.24 1624 1970M1599 1972C1598.97 1989.53 1598.99 1993.98 1582 1997C1578.14 1997.68 1572.02 1999.29 1568.8 1996.18C1561.96 1989.56 1563.37 1974.45 1574.77 1975.61C1578.97 1976.03 1580.76 1981.7 1584 1984C1583.25 1974.53 1590.66 1973.48 1599 1972M1630 1973C1628.87 1981.53 1630.81 1988.61 1632 1997C1619.29 1988.89 1612.65 1978.74 1630 1973M1602 1989C1605.59 1967.63 1615.66 1982.7 1602 1989M1993 1983C1985.67 1994.65 1963.94 2011.42 1951 2016C1951 1997.55 1948.52 1977.33 1973 1979.1C1980.12 1979.61 1985.68 1983.49 1993 1983M107 2003C119.66 2000.96 137.225 2003.17 150 2004.56C152.889 2004.88 163.313 2005.78 162.574 2000.33C161.818 1994.75 145.814 1988.18 143 1981C154.789 1980.78 167.038 1978.16 177.871 1984.66C187.793 1990.62 191.064 2014.51 181.153 2021.94C176.519 2025.41 167.363 2022.23 161.992 2022.09C139.559 2021.53 123.386 2020.1 107 2003M1612.08 1987.05C1616.87 1985.74 1628.32 1996.35 1621.67 1998.45C1613.56 2001 1597.32 1991.08 1612.08 1987.05M1994.93 1989.02C1999.29 1988.23 1998.01 1997.63 1998 2000C1997.96 2007.33 1997 2029.27 1988.97 2031.07C1982.36 2032.55 1953.69 2032.9 1953 2022.98C1952.53 2016.21 1988.14 1990.25 1994.93 1989.02M1274 1991C1273 2007.66 1271.36 2024.31 1271.02 2041C1270.94 2044.88 1273.26 2056.14 1270.66 2059.04C1266.65 2063.52 1241.42 2043.69 1241.87 2037.96C1243.18 2021.23 1264.5 2005.8 1271 1991L1274 1991M1275 2057C1275.6 2036 1278 2015.01 1278 1994C1304.73 2003.7 1298.4 2047.61 1275 2057M1605.28 1999.26C1611.86 1997.9 1631.69 2003.48 1634.36 2010.02C1636.78 2015.94 1627.03 2033.63 1620.76 2034.66C1605.68 2037.17 1596.88 2001 1605.28 1999.26z"/>
</svg>
