<?xml version="1.0" standalone="yes"?>
<svg xmlns="http://www.w3.org/2000/svg" width="2200" height="2200">
<path style="fill:#0e0e0e; stroke:none;" d="M137 112C134.961 125.447 123.29 163.361 133.822 174.763C146.383 188.362 178.616 185.351 186.718 203.511C189.168 209.003 176.605 220.42 177 228C191.636 218.542 203.297 190.073 213.349 175.561C214.531 173.855 221.22 158.643 216.796 158.643C213.412 158.643 211.192 166.619 210.118 169C205.836 178.488 199.661 190.922 192 198C195.218 173.732 191 147.569 191 123C191 117.964 193.288 101.847 189.738 98.2598C183.534 91.9917 150.243 97.229 143 101C145.038 96.8162 147.241 92.6885 150.285 89.1362C151.352 87.8906 159.142 71.9175 152.612 75.5439C142.856 80.9609 131.975 106.111 125.058 115.562C123.65 117.486 115.039 128.352 119.408 130.239C120.978 130.917 132.624 113.585 137 112M488 153C482.869 137.459 483.783 119.513 494.625 106.049C500.226 99.092 516.838 92.6465 522.717 103.667C524.253 106.545 510.088 124.412 507.827 128C498.09 143.443 490.295 168.837 493.099 187C496.088 206.363 509.559 214.877 527.68 205.517C557.098 190.323 559.137 131.656 539.938 108.563C533.133 100.378 519.639 88.947 508 90.5083C489.776 92.9529 481.19 116.05 479.602 132C478.769 140.369 477.838 150.681 488 153M190 184C174.582 182.909 159.364 135.835 154.295 123C152.743 119.073 143.831 109.888 145.622 105.861C148.291 99.8604 182.775 100.029 185.604 104.607C188.562 109.392 186 122.326 186 128C186 146.051 184.597 166.665 190 184M535.723 112.2C543.909 113.656 547.658 132.364 548.542 139C551.431 160.698 540.569 210.521 510.003 204.713C499.77 202.769 498.003 188.521 498.016 180C498.042 162.281 510.478 107.711 535.723 112.2M188 193C180.902 193.669 174.443 187.405 168 184.759C158.905 181.024 145.15 179.542 138.604 171.631C127.783 158.552 139.861 128.058 140 113C150.26 117.038 148.54 128.825 153.029 137C163.856 156.721 174.537 175.531 188 193M1576.01 115.94C1571.72 117.661 1566.43 123.533 1568.96 128.499C1571.57 133.609 1585.25 131.732 1585.36 139.937C1585.42 144.072 1578.59 148.887 1576.36 152.136C1568.68 163.372 1554.12 208.151 1584.96 198.017C1611.83 189.187 1596.7 158.859 1595.07 142C1594.15 132.494 1604.47 129 1605.22 120.993C1605.88 113.997 1580.51 114.132 1576.01 115.94M1599 121C1593.76 136.506 1581.84 134.247 1576 120C1583.52 118.947 1591.36 120.999 1599 121M1183 212C1180.65 223.696 1193.76 220.492 1202 221.217C1221.52 222.935 1241.48 218.626 1261 217.751C1265.69 217.541 1282.91 221.195 1285.89 217.87C1289.45 213.904 1257.4 213.896 1256.85 207.853C1255.88 197.179 1258.99 185.506 1260.46 175C1262.21 162.597 1260.59 148.992 1262.28 136.001C1262.47 134.508 1262.91 124.947 1258.79 128.187C1255.58 130.714 1256.24 145.771 1255.7 150C1252.29 176.202 1264.94 219.309 1227.08 214.789C1223.95 214.415 1218.05 215.229 1215.38 214.061C1212.08 212.619 1210.81 201.368 1210.3 198C1207.78 181.24 1211.48 161.825 1212.77 145C1213.01 141.767 1218.02 124 1212.89 124.003C1204.01 124.008 1208.03 145.318 1207.55 150C1206.05 164.875 1204.31 181.05 1205.11 196C1205.35 200.399 1210.66 210.286 1207.72 214.1C1203.95 218.994 1187.69 213.547 1183 212M842 156C848.495 146.552 866.71 165.743 874 173C863.213 173 845.327 169.397 836.086 175.861C828.658 181.057 821.947 201.622 834.03 205.52C867.194 216.218 906.857 197.125 940 210C938.321 197.58 912.313 186.648 904 177C911.624 178.346 920.364 178.545 928 177.181C942.108 174.661 967 157.099 944.989 144.421C925.821 133.38 888.714 129.553 868 135.154C857.366 138.03 839.346 141.721 842 156M1948 176C1955.1 175.045 1980.93 162.726 1986.19 166.218C1993.01 170.75 1996.05 212.522 1979 202C1984.02 197.701 1987.9 178.788 1976.08 182.668C1962.23 187.214 1975.16 199.898 1970.44 206.111C1967.51 209.971 1952.31 214.284 1954.07 220.566C1954.82 223.267 1975.07 207.934 1979 208.246C1990.81 209.187 1999.97 246.326 2013.74 222.542C2023.68 205.373 1997.03 210.651 1995.28 202.85C1993.45 194.664 1990.62 169.783 1993.04 162.217C1995.12 155.746 2003.08 151.262 2006.18 145C2008.52 140.299 2006.59 133.265 2000.9 132.05C1984.12 128.469 1990.25 155.407 1982.81 160.796C1974.2 167.031 1950.6 165.307 1948 176M884 136.321C899.092 134.779 930.028 142.1 942.842 150.284C960.84 161.78 936.019 171.315 926 172.554C915.229 173.887 892.622 175.622 883 171.199C877.201 168.534 849.815 153.982 852.742 145.736C855.343 138.407 877.605 136.974 884 136.321M1991 157C1986.17 131.993 2016.98 136.876 1991 157M1613 137.526C1610.76 137.882 1593.9 145.895 1601.53 147.739C1607.8 149.253 1612.75 139.275 1618.42 146.659C1625.22 155.515 1628.91 190.011 1644.99 187.215C1655.6 185.371 1655.92 172.286 1651.6 165C1643.4 151.179 1631.44 134.6 1613 137.526M1621 142C1634.61 143.952 1639.76 156.308 1646.06 166.783C1648.25 170.427 1651.88 178.819 1645.48 181.031C1636.01 184.305 1624.03 148.695 1621 142M1587.9 146.323C1591.82 145.77 1595.5 156.112 1596.28 159C1598.92 168.85 1595.07 192.692 1582 193.366C1564.11 194.289 1576.62 147.912 1587.9 146.323M848.997 176.412C862.83 175.855 887.626 175.398 901 182.685C904.492 184.587 926.419 200.523 920.686 202.504C914.107 204.779 904.839 201.15 898 201.059C881.198 200.836 849.248 209.637 834.822 200.187C822.912 192.385 840.415 176.757 848.997 176.412M1977.04 187.323C1981.89 186.577 1981.16 197.215 1976.82 197.919C1971.92 198.714 1972.54 188.017 1977.04 187.323M1998.5 211.863C2005.76 208.305 2015.66 218.753 2006.79 223.721C1998.81 228.195 1991.42 215.335 1998.5 211.863M920 503C929.427 492.808 911.711 478.319 902.431 475.157C893.51 472.118 874.252 480.46 867 485.744C841.561 504.282 817.507 566.156 871 558.576C881.65 557.066 890.102 544.385 899 539C892.828 547.264 880.456 556.909 879.502 568C877.823 587.501 909.074 587.423 919.999 580.719C938.894 569.124 929.474 546.899 936.94 530.14C939.306 524.828 947.458 523.733 952 520.821C963.181 513.653 991.884 486.949 982.204 472.508C974.588 461.146 959.145 473.824 952.981 480.01C938.467 494.58 913.818 536.64 887.019 527.34C860.71 518.209 878.755 468.835 905 484.164C912.822 488.732 915.269 495.938 920 503M924 519C928.223 511.35 936.142 505.078 941.523 498.007C945.059 493.361 948.865 489.146 952.97 485C957.803 480.118 981.853 460.923 981.534 480.865C981.436 486.959 974.439 491.594 971.152 496.078C958.611 513.185 944.796 527.969 924 519M876 485C873.084 498.117 861.507 528.42 887.019 531.879C895.127 532.978 901.323 525.751 909 526C903.786 532.913 896.556 536.476 890 541.874C884.685 546.25 879.471 551.002 873.217 554.012C855.867 562.361 838.9 552.149 841.229 533C843.435 514.865 858.104 491.113 876 485M1244 533C1237.8 523.077 1233.41 513.126 1225.72 504.008C1223.96 501.929 1218.28 494.469 1215.26 498.605C1212.01 503.055 1234.03 521.013 1236.46 528.008C1246.79 557.796 1226.88 576.904 1203 590C1234.12 597.257 1241.81 555.708 1246.63 536C1247.53 532.321 1249.06 518.281 1252.02 516.316C1254.92 514.382 1261.03 522.029 1263.02 523.554C1271.76 530.263 1287.22 528.811 1289.72 515.999C1293.04 498.937 1275.33 476.021 1257.58 490.121C1249.02 496.925 1245.98 522.616 1244 533M144.078 488.619C113.397 492.991 115.819 547.559 115.004 570.04C114.681 578.931 111.599 601.077 126.008 599.812C156.081 597.171 171.274 542.688 169.919 518C169.289 506.536 157.753 486.67 144.078 488.619M1944 491C1947.49 517.299 1947.03 547.811 1936 572C1944.28 572.73 1953.45 577.846 1961.77 573.837C1978.75 565.661 1968.06 526.42 1970.46 512C1971.44 506.079 1971.05 495.62 1978.06 493.501C1998.68 487.273 1996.23 539.63 1990.94 551.136C1989.95 553.287 1984.86 568.997 1990.15 568.997C1994.34 568.997 2000.17 559.103 2002.1 556C2011.13 541.446 2017.95 525.942 2024.17 510C2025.32 507.034 2035.55 492.783 2032.43 491.759C2026.66 489.862 2021.78 501.042 2020.83 505C2016.99 520.99 2005.9 547.519 1993 558C2001.46 536.645 1989.51 510.484 2002 491C1995.22 490.368 1971.99 485.506 1967.34 491.202C1965.16 493.87 1966.9 501.54 1966.4 505C1963.99 521.577 1968.15 537.697 1964.78 554C1963.07 562.266 1959.83 575.967 1947.28 568.7C1940.41 564.717 1946.25 552.253 1948.34 547C1952.29 537.099 1955.6 495.55 1944 491M557 508C553.998 537.275 551.986 565.24 552 595C558.299 592.191 561.676 583.566 565.74 578.217C579.295 560.38 588.889 541.313 599.933 522C602.284 517.888 613.844 501.22 611.477 496.941C609.683 493.698 596.413 493.995 593 494.097C582.859 494.398 569.863 496.746 560 494.88C550.404 493.063 543.616 487.576 533.078 490.906C513.634 497.051 506.827 520.945 508.137 539C508.568 544.937 513.581 552.916 511.292 558.438C508.872 564.275 482.282 593.469 494.078 596.178C506.441 599.018 527.995 587.26 527.573 573.04C527.385 566.68 517.898 561.029 519.884 554.856C523.817 542.626 546.832 516.114 557 508M119 568C124.768 570.534 128.59 579.178 136 576.178C149.438 570.737 169.391 519.113 147.774 513.707C138.9 511.487 132.167 522.076 125 525C125.785 505.092 146.17 479.729 161.417 505.041C166.436 513.375 164.442 525.734 163.92 535C162.95 552.177 153.818 573.222 142.301 585.839C131.568 597.596 119.679 598.143 118.131 580.562C117.773 576.498 118.977 572.133 119 568M1265.26 491.604C1284.2 484.827 1293.19 519.103 1277.47 523.975C1261.7 528.866 1247.87 497.828 1265.26 491.604M538.078 493.471C572.189 487.092 535.361 529.87 528.682 538C526.161 541.067 522.054 548.497 517.88 549.375C511.245 550.772 513.917 532.059 513.982 529C514.298 514.092 521.223 496.622 538.078 493.471M607 499C595.168 519.854 586.572 541.888 572.927 561.999C570.133 566.118 562.985 580.997 557.325 580.997C553.019 580.997 555.508 569.202 556.078 567C559.472 553.879 550.829 528.298 562 519C547.525 491.381 596.643 501.411 607 499M1651 512C1661.07 530.138 1634.76 546.91 1622 532C1615.34 535.805 1609.59 549.141 1601 547.751C1587.26 545.525 1583.89 516.76 1589.07 515.103C1578.42 518.511 1582.02 539.02 1587.49 544.637C1598.61 556.067 1605.28 551.573 1617 545C1614.16 558.238 1606.08 606.243 1588 576C1584.7 585.806 1594.21 594.142 1603.9 590.058C1610.08 587.457 1613.03 578.837 1615 573C1620.51 579.53 1640.59 603.558 1648 585C1616.01 587.976 1622.63 563.514 1624 542C1633.56 545.279 1649.1 540.153 1655.22 531.914C1660.23 525.159 1661.2 513.357 1651 512M145.978 517.711C152.829 516.739 153.982 526.088 153.765 531C153.302 541.424 146.932 571.21 133.68 571.932C124.032 572.458 121.991 559.807 122.001 553C122.021 538.698 129.267 520.082 145.978 517.711M930 525C925.706 530.443 912.813 533.884 906 535C911.351 526.187 920.105 520.435 930 525M927.794 531.76C934.943 531.742 931.273 546.045 930.562 550C928.052 563.97 924.332 581.645 906 581.586C863.133 581.449 902.33 531.822 927.794 531.76M516 561C518.402 566.782 524.156 572.426 521.385 578.922C519.122 584.225 502.226 598.268 496.4 590.74C493.129 586.513 512.572 564.61 516 561M189.667 673.333C189.222 673.778 190.278 673.722 190.333 673.667C190.778 673.223 189.722 673.278 189.667 673.333M213 683C216.47 675.799 204.116 671.322 213 683M174 795C164.763 809.331 171.346 843.176 167.637 861C164.88 874.254 148.911 886.528 142 898C152.755 899.631 159.758 879.243 167 873C168.312 895.559 153.212 899.966 149 919C157.014 915.768 160.705 908.247 167 903C166.527 919.663 172.059 934.319 170.341 951.562C170.196 953.015 169.855 965.16 173.888 961.031C177.55 957.282 176 947.747 176 943C176 925.989 169.367 912.16 173.524 895C178.55 874.247 199.657 859.156 205 838C191.964 845.107 179.676 872.498 174 886C165.512 873.585 176.085 858.679 182.696 848.007C183.676 846.426 190.65 837.043 185.536 836.316C180.326 835.575 177.688 846.096 172 847C177.985 837.028 182.059 804.12 174 795M1978 963C1989.4 960.19 1995.5 940.327 2001 931C2004.14 934.966 2027.02 953.764 2025.54 948.849C2022.86 939.99 2004.96 934.494 2006.39 924.981C2008.27 912.561 2022.54 902.849 2025 889C2002.3 891.204 2001.79 856.324 2009.71 844C2011.81 840.74 2021.02 832.31 2016.07 828.19C2009.23 822.501 2004.09 852.357 1997.29 852.357C1991.43 852.357 1983.6 819.697 1972.89 826.365C1971.6 827.172 1993.06 852.639 1992.49 859.217C1991.33 872.406 1969.94 878.932 1968.91 893C1967.88 906.984 1992.95 913.872 1996.27 926.257C1998.84 935.832 1980.07 953.255 1978 963M1280 831.449C1247.71 834.856 1222.52 888.435 1223.46 918C1224.22 942.076 1240.15 962.917 1267 957.716C1277.53 955.676 1282.13 944.678 1285.63 936C1296.66 908.643 1285.92 890.428 1279.21 864C1277.97 859.082 1266.13 844.287 1268.78 840.946C1279.33 827.666 1307.02 845.086 1311.96 856.104C1315.13 863.182 1312.15 872.749 1311.18 880C1310.99 881.429 1308.93 893.938 1313.37 891.332C1317.3 889.022 1316 878.897 1316.89 875C1321.83 853.296 1304.69 828.844 1280 831.449M1597 959C1604.26 955.544 1613.73 951.254 1622 952.298C1630.12 953.324 1639.32 961.186 1647.14 953.595C1651.17 949.682 1649.99 927.96 1650 922C1650.07 891.382 1649.59 862.437 1653 832C1639.02 833.247 1612.6 826.035 1601.6 836.016C1596.61 840.547 1600.34 859.223 1599.86 866C1597.87 894.56 1589.89 930.908 1597 959M1644 838C1633.14 852.542 1617.38 872.048 1603 883C1603.24 870.625 1605 858.433 1605 846C1616.96 851.459 1605.75 838.913 1612.38 836.504C1618.44 834.307 1637.51 836.588 1644 838M1646 842C1646.73 848.096 1647.42 885.372 1643.18 888.197C1634.05 894.272 1615.68 887.572 1605 890C1611.71 871.122 1634.19 859.221 1644 842L1646 842M1260.23 847.283C1269.88 846.515 1272.93 863.8 1275.41 870C1283.77 890.879 1290.19 913.36 1280.93 935C1277.69 942.561 1274.5 951.984 1265 952.863C1217.49 957.254 1227.84 899.351 1242.79 873C1246.67 866.149 1250.03 848.095 1260.23 847.283M530 870C526.479 889.893 530.129 917.557 531.258 938C531.418 940.897 531.039 960.942 534.404 958.592C539.775 954.843 536.5 941.357 536.295 936C535.723 921.024 537.413 906.03 535.554 891C534.867 885.442 531.511 875.702 534.547 870.501C537.285 865.812 558.164 866.926 564 865L564 863C542.936 857.626 506.976 863.52 486 868.98C482.474 869.898 462.711 871.398 462.761 874.698C462.867 881.665 492.202 870.744 494.523 873.9C497.139 877.458 494.99 888.609 495.001 893C495.04 909.398 495.593 925.578 495.096 942C495.01 944.852 495.542 962.121 498.394 962.574C503.139 963.328 501.022 928.794 501.562 924C502.765 913.311 494.278 880.39 501.822 872.939C507.179 867.649 523.047 870 530 870M886 916C882.397 901.791 880.92 884.342 867.99 874.723C849.604 861.045 828.26 882.012 830.306 902C831.367 912.359 839.979 919.322 850 920.643C856.685 921.525 879.789 908.412 878.165 907.106C892.036 918.263 868.874 954.658 860 961.083C856.833 963.377 843.337 965.434 842.544 966.799C841.073 969.331 845.202 971.505 847.031 971.973C854.547 973.898 863.933 964.186 868.992 959.672C886.128 944.379 891.771 913.871 901.635 893C903.365 889.341 912.919 864.533 910.1 862.544C906.842 860.245 903.732 872.273 903.135 874C898.092 888.572 892.507 901.958 886 916M1996 863C2002.51 870.626 2009.31 884.809 2014 894C2001.55 891.003 1988.81 891.193 1976 890C1979.86 879.824 1989.3 871.489 1996 863M852 873.78C872.865 868.818 883.43 909.393 860.992 914.573C831.583 921.362 826.079 879.945 852 873.78M1644 943C1627.51 938.86 1625.78 921.99 1617.58 911C1615.09 907.665 1606.3 899.772 1609.42 894.907C1612.63 889.894 1623.52 894.535 1628 894.849C1631.99 895.128 1638.65 892.663 1642.18 894.829C1650.31 899.824 1643.67 934.511 1644 943M2017 896C2015.24 914.775 2002.54 924.753 1989.55 910.997C1987.43 908.751 1974 898.766 1977.11 895.3C1981.31 890.606 2009.79 897.139 2017 896M1603.28 901.643C1606.68 901.643 1611.14 909.561 1612.82 912C1621.15 924.128 1625.34 932.64 1635.93 944.007C1637.25 945.432 1642.54 951.406 1637.69 951.956C1635.3 952.225 1600.83 948.062 1601.06 948.48C1596.77 940.932 1599.22 920.439 1600.51 912C1600.77 910.253 1600.85 901.643 1603.28 901.643M1236 937L1238 940L1236 937M165 1053C165.01 1055.35 165.105 1055.61 167 1057C166.489 1055.05 166.267 1054.54 165 1053M265.5 1157.5C264.872 1158.13 265.873 1159.13 266.5 1158.5C267.127 1157.87 266.128 1156.87 265.5 1157.5M1970 1245C1986.64 1254.4 2027.1 1251.22 2041.45 1236.19C2050.43 1226.8 2057.87 1190.09 2046.81 1181C2027.51 1165.15 1991.38 1196.76 1982.14 1212C1978.9 1217.36 1976.99 1231.78 1971.25 1234.72C1969.23 1235.75 1956.22 1219.33 1953.08 1217.26C1931.54 1203.13 1908.13 1204.87 1897.43 1231C1896.25 1233.88 1891.2 1243.89 1892.09 1246.64C1900.64 1272.95 1966.94 1277.45 1970 1245M2030 1182.68C2046.8 1183.05 2047.76 1214.29 2042.18 1224.97C2034.32 1239.99 2002.72 1248.35 1987 1247.23C1969.15 1245.95 1976.77 1230.6 1981.89 1220C1989.44 1204.36 2010.82 1182.25 2030 1182.68M2044 1184L2043 1185L2044 1184M513 1261C519.794 1258.48 521.661 1251.4 527 1247C526.993 1261.58 518.042 1266.37 514 1279C518.297 1277.92 520.664 1274.75 524 1272C527.3 1289.8 508.883 1292.2 508 1309C514.029 1305.18 518.686 1292.17 525.853 1291.08C530.335 1290.4 529.964 1302.4 529.992 1305C530.149 1319.03 524.86 1336.58 528 1350C544.483 1337.94 527.722 1300.14 533.076 1284.04C537.318 1271.28 553.771 1265.65 556 1251C546.456 1258.87 540.778 1271.67 530 1278C530 1254.85 552.742 1245.41 556 1224C546.436 1231.42 542.635 1243.65 533 1251C533.024 1235.16 546.204 1228.01 548 1214C541.159 1217 539.299 1225.04 533 1229C534.685 1220.38 536.28 1206.64 534.399 1198C533.919 1195.8 530.216 1185.55 526.586 1189.89C519.887 1197.9 529.991 1225.98 527.64 1237C525.634 1246.4 515.428 1251.6 513 1261M1646 1238L1652 1238C1651.98 1234.66 1652.63 1233.35 1655 1231C1654.39 1234.03 1654.61 1235.23 1656 1238C1677.23 1220.84 1662.12 1195.25 1638 1194.08C1622.15 1193.31 1606.28 1204.53 1594 1213.58C1584.66 1220.46 1574.79 1227.53 1566 1235.08C1550.1 1248.74 1537.66 1280.59 1569 1285.53C1578.8 1287.08 1586.93 1277.48 1596 1278.37C1604.83 1279.24 1610.68 1288.69 1621.01 1287.86C1646.44 1285.83 1659.64 1257.47 1646 1238M1250 1196.73C1228.94 1202.28 1197.74 1234.3 1184.56 1251C1178.57 1258.59 1171.37 1275.3 1186.16 1280.05C1188.16 1280.69 1194.33 1279.53 1193.68 1276.34C1193.02 1273.13 1183.57 1272.69 1182.36 1266C1179.79 1251.85 1204.11 1237.9 1216 1243.18C1233.63 1251.01 1244.19 1269.56 1246.77 1288C1247.59 1293.89 1243.96 1300.19 1246.18 1305.78C1250.01 1315.39 1263.32 1316.72 1272 1314.09C1286.07 1309.82 1316.09 1279.56 1302.2 1263.37C1297.8 1258.24 1289.71 1261.28 1284 1258.46C1268.72 1250.91 1240.21 1231.59 1238.85 1213.01C1236.94 1186.85 1271.76 1214.42 1275.66 1216.46C1277.88 1217.61 1278.71 1214.5 1278.78 1212.93C1279.27 1202.92 1258.22 1194.56 1250 1196.73M1629 1199.35C1657.01 1195.31 1673.52 1223.68 1643.65 1237.56C1632.47 1242.75 1620.84 1225.5 1606.95 1237.59C1588.35 1253.78 1604.66 1277.87 1573 1281.2C1551.2 1283.49 1553.36 1258.83 1560.85 1247.01C1571.73 1229.84 1596.02 1219.24 1612.79 1209.77C1618.91 1206.31 1621.28 1200.46 1629 1199.35M192 1234C193.828 1227.75 189.815 1222.42 183 1222.47C170.495 1222.57 156.484 1242.19 146.861 1240.69C138.163 1239.32 121.549 1217.39 114.945 1210.92C112.941 1208.96 112.983 1199.51 109.64 1201.37C103.235 1204.93 106.95 1210.79 110.952 1214.24C119.426 1221.55 139.825 1236.53 143.3 1247.08C145.601 1254.07 120.238 1291.43 142.957 1294.68C145.971 1295.11 145.268 1291.59 144.476 1289.97C138.993 1278.77 136.105 1265.38 145.994 1254.54C153.287 1246.54 159.92 1268.17 167.481 1252.04C171.067 1244.38 154.043 1257.6 153.004 1245.33C151.757 1230.62 184.171 1230.86 192 1234M1922 1212.48C1948.6 1207.07 1989.75 1252.78 1949 1260.65C1935.69 1263.22 1913.48 1260.75 1904.43 1249.96C1894.69 1238.34 1908.71 1215.18 1922 1212.48M1208 1237C1210.94 1232.14 1225.46 1213.38 1231.78 1215.1C1235.73 1216.18 1237.75 1225.89 1240.32 1229C1247.83 1238.1 1257.4 1244.9 1267 1251.57C1272 1255.04 1300.27 1270.51 1300.66 1273.03C1303.34 1290.39 1270.8 1320.74 1254.15 1307.4C1247.35 1301.95 1251.81 1291.51 1250.28 1284C1246.11 1263.45 1232.25 1237.27 1208 1237M75 1228L75 1231L80 1231L80 1228L75 1228M871 1281C867.876 1281.9 852.272 1289.42 857.185 1294.6C859.179 1296.7 870.036 1283.37 873.915 1283.6C895.491 1284.87 880.915 1315.4 880 1323C909.894 1311.29 879.849 1292.79 880.764 1277.01C881.131 1270.69 893.696 1259.37 898.008 1255C899.791 1253.19 916.623 1237.46 913.894 1235.62C910.909 1233.62 904.799 1241.28 903.217 1243C897.646 1249.08 882.876 1272.74 874.763 1273.69C863.69 1274.99 855.644 1259.55 841.003 1263.4C838.827 1263.97 824.135 1272.19 830.649 1274.98C834.759 1276.73 841.875 1269.07 846 1268.13C855.48 1265.97 865.368 1274.47 871 1281M1640 1246C1634.93 1249.72 1630.71 1254.28 1625 1257.06C1620.66 1259.17 1608.03 1266.98 1603.5 1265.97C1595.85 1264.25 1605.41 1245.18 1608.96 1242.76C1620.97 1234.59 1651.97 1241.03 1648.62 1259C1646.22 1271.93 1633.64 1280.89 1621 1281.85C1615.95 1282.24 1604.47 1281.9 1603.79 1274.93C1602.97 1266.65 1635.69 1257.63 1640 1246M1627 1590C1627.08 1581.67 1629.61 1571.81 1626 1564C1621.77 1575.61 1625.9 1588.59 1621.92 1600C1617.55 1612.55 1576.35 1663.94 1617 1661.83C1622.2 1661.56 1626.92 1658.95 1632 1658C1629.77 1655.3 1623.48 1655.98 1622.46 1653.14C1620.08 1646.52 1624.75 1631.79 1626.24 1625C1629.7 1609.18 1625.74 1586.76 1647.08 1579.94C1656.82 1576.82 1664.95 1595.48 1673.14 1598.07C1679.09 1599.95 1683.49 1592.08 1689 1591C1685.24 1581.01 1683.19 1566.74 1670.98 1562.81C1661.08 1559.62 1656.71 1569.49 1648.46 1570.34C1640 1571.22 1631.45 1555.35 1629 1549C1610.78 1557.84 1639.78 1563.48 1642.36 1573.36C1643.74 1578.64 1630.62 1587.16 1627 1590M1279 1551.5C1238.68 1558.54 1213.71 1616.97 1221.92 1655C1226.52 1676.32 1242.9 1706.44 1269 1702.2C1316.04 1694.56 1338.95 1636.09 1320.94 1594.68C1312.71 1575.75 1308.28 1546.39 1279 1551.5M1259 1652C1265.72 1663.86 1284.71 1660.47 1287.28 1646.78C1289.09 1637.15 1279.85 1630.06 1277 1622C1319.15 1619.45 1295.1 1573.09 1284 1555C1311.29 1556.23 1315.26 1586.94 1317 1607.78C1317.52 1613.96 1324.25 1616.9 1324.47 1623.04C1325.46 1651.09 1306.21 1684.02 1279 1692.06C1249.67 1700.73 1229.71 1637.79 1255.01 1625.4C1274.13 1616.04 1294.43 1650.07 1274.78 1655.21C1269.86 1656.5 1263.9 1652.79 1259 1652M1273 1696C1232.25 1706.31 1221.54 1643.68 1229.17 1616C1232.78 1602.93 1244.18 1570.98 1257.02 1565.24C1285.7 1552.44 1308.07 1582.96 1293.02 1609.67C1289.11 1616.6 1270.12 1623.69 1264.38 1615.72C1260.89 1610.87 1255.71 1597.12 1259.39 1591.53C1262.07 1587.47 1277.2 1592.27 1275.68 1589.54C1271.39 1581.79 1258.71 1581.61 1254.58 1589.03C1248.09 1600.7 1258.7 1607.35 1257.18 1617.56C1256.44 1622.53 1245.95 1627.15 1243.66 1633C1237.4 1648.96 1236.96 1673.94 1252.24 1686.16C1258.18 1690.9 1266.69 1691.62 1273 1696M913 1561.44C905.526 1562.28 894.479 1562.13 888.268 1566.86C880.348 1572.9 878.652 1585.05 875.971 1593.86C869.326 1615.72 862.021 1636.77 862 1660C861.983 1678.69 868.265 1705.49 892 1703.85C935.374 1700.85 962.942 1664.61 967.193 1623C970.297 1592.62 946.852 1557.63 913 1561.44M593 1625C574.374 1625.83 584.631 1606.33 582.426 1596C578.544 1577.82 558.839 1564.44 541 1566.16C498.026 1570.3 482.306 1652.59 501.502 1684C518.059 1711.09 555.635 1693.04 569.343 1673.78C580.255 1658.45 583.894 1640.08 593 1625M907 1567.56C927.102 1564.36 951.258 1572.93 955.281 1595C956.361 1600.92 968.15 1624.12 957.852 1626.63C953.128 1627.79 923.678 1629.57 921.415 1626.18C919.009 1622.57 926.371 1612.08 921.384 1609.76C917.81 1608.1 919.767 1633.06 905.509 1624.94C900.847 1622.28 908.626 1604.9 902.962 1604.48C900.588 1604.3 899.397 1617.85 898.687 1619.94C896.161 1627.36 880.975 1630.42 874.287 1627.18C867.98 1624.12 874.554 1611.74 875.739 1607C880.853 1586.53 884.524 1571.13 907 1567.56M1665.98 1567.61C1676.16 1567.4 1686.22 1591.95 1674.81 1592.4C1664.13 1592.82 1641.39 1568.1 1665.98 1567.61M1934 1624C1945.49 1616.24 1948.52 1598.33 1958.12 1588.22C1963.62 1582.43 1970.66 1573.24 1979 1571.75C2005.22 1567.05 2002.01 1616.09 1995.68 1629.99C1988.29 1646.21 1966.61 1656.9 1965 1676C1975.13 1671.73 1982.58 1642.07 1993.53 1641.89C1993.28 1641.89 1987.24 1678.22 1991.28 1683.03C1994.49 1686.87 1994.99 1676.14 1995 1675C1995.09 1661.12 2000.5 1648.48 2001 1635C2011.53 1647.88 2017.88 1676.94 2039.92 1675.58C2065.09 1674.03 2068.93 1641.05 2065.71 1623C2065.21 1620.19 2068.53 1607.76 2066.51 1606.76C2061.76 1604.4 2060.4 1621.66 2060.63 1623.96C2062.13 1639.04 2062.92 1670.06 2039 1669.37C2027.54 1669.04 2003.06 1640.46 2008.09 1629C2014.57 1614.2 2037.83 1604.24 2041 1589C2025.85 1594.13 2013.74 1612.85 2003 1624C2003.81 1609.41 2008.25 1584.85 1996.8 1573.19C1973.57 1549.54 1936.37 1603.7 1934 1624M503 1627C505.005 1618.53 503.264 1608.61 506.521 1600.68C515.85 1577.97 545.381 1561.49 566.599 1579.18C578.596 1589.18 573.839 1602.97 576.478 1616C577.241 1619.77 582.6 1626.58 578.472 1629.68C574.863 1632.38 545.931 1632.63 543.9 1629.14C542.067 1625.99 546.876 1613.2 541.521 1612.08C536.146 1610.96 539.766 1627.17 535.499 1628.86C526.796 1632.3 512.763 1625.71 503 1627M179 1636C179 1650.81 177.973 1665.2 165.426 1675.42C162.192 1678.06 140.643 1676.12 140.643 1681.19C140.643 1685.35 162.173 1682.29 164.992 1681.18C176.816 1676.52 192.388 1655.95 196 1644C202.991 1649.78 236.709 1696.96 246 1664C237.936 1665.26 231.373 1670.41 223.011 1666.28C214.712 1662.17 208.044 1641.37 217.284 1635.02C225.917 1629.09 249.686 1643.47 253 1630C247.006 1630.79 219.883 1632.68 216.445 1627.18C213.938 1623.17 220.763 1613.22 222.959 1610C232.403 1596.16 237.82 1590.32 253 1599C254.894 1588.82 240.269 1588.31 233.136 1590.6C219.213 1595.08 211.921 1631.62 198.069 1630.91C179.466 1629.97 184.531 1591.05 162.68 1593.47C160.241 1593.74 144.556 1598.9 145.761 1601.72C147.875 1606.67 161.159 1598.39 164.978 1598.97C172.527 1600.12 178.246 1618.33 178.826 1624.99C180.363 1642.65 143.561 1624.64 137.609 1628.44C132.032 1632 145.288 1635.09 147 1635.56C158.001 1638.59 167.882 1638.07 179 1636M1621.72 1612.08C1624.85 1612.76 1622.82 1620.99 1622.57 1623C1621.87 1628.55 1620.65 1656.69 1613.92 1656.07C1593.47 1654.2 1609.21 1630.57 1614.33 1622C1615.46 1620.11 1618.89 1611.47 1621.72 1612.08M185 1623C187.172 1625.81 188.612 1628.74 190 1632C183.993 1632.8 183.371 1627.85 185 1623M917 1656C911.919 1624.23 938.321 1633.58 960 1632C957.529 1663.32 937.474 1689.2 907 1695.78C897.782 1697.77 881.972 1702.58 875.317 1692.86C868.469 1682.86 858.136 1642.43 870.781 1633.3C873.999 1630.98 880.244 1633.27 884 1632.92C887.159 1632.62 892.152 1629.37 895.171 1630.92C898.405 1632.59 894.506 1642.31 898.93 1642.36C901.498 1642.39 903.334 1621.72 912.964 1632.82C919.128 1639.93 903.806 1651.65 917 1656M508 1639L503 1636C506.271 1628.88 533.073 1630.65 536.171 1637.28C537.996 1641.19 532.768 1655.98 538.269 1657.38C541.5 1658.19 542.031 1640.35 544.182 1637.69C546.313 1635.04 580.176 1634.97 581.159 1635.96C586.447 1641.31 575.177 1657.45 572.28 1662.31C561.185 1680.93 536.453 1703.15 513.118 1688.76C502.651 1682.3 491.515 1638.02 508 1639M209 1649C194.462 1643.09 207.15 1631.6 209.04 1635.56C210.614 1638.87 208.732 1645.24 209 1649M184 1656C178.764 1631.94 203.731 1636.52 184 1656M1619 2006C1617.02 2005.15 1615.66 2004.36 1614 2003C1632.89 2005.58 1651.48 2006.27 1670 2009C1668.03 1999.2 1676.06 1994.83 1681.12 1987C1693.6 1967.71 1727.4 1944.81 1726.51 1920C1725.56 1893.63 1683.12 1886.95 1664 1893.58C1657.46 1895.85 1651.02 1904.19 1644.45 1904.96C1638.42 1905.66 1629.31 1894.18 1622.99 1892.17C1599.33 1884.61 1571.11 1900.56 1563.8 1924C1558.42 1941.23 1579.01 1963.62 1585.66 1978.22C1588.68 1984.84 1589.42 1992.41 1594.03 1998.21C1599.29 2004.82 1611.49 2016.97 1619 2006M1662 2001C1646.61 2001 1632.2 1998.51 1617 1998.04C1612.25 1997.9 1602.64 2001.06 1599.39 1996.4C1594.25 1989.01 1604.3 1976.49 1607.84 1970.65C1613.21 1961.8 1614.23 1950.18 1619.25 1941C1624.79 1930.85 1634.39 1922.54 1639 1912C1630.39 1918.43 1618.11 1930.99 1614.01 1941.01C1608.39 1954.72 1605.06 1977.29 1593 1987C1589.86 1967.66 1564.5 1945.78 1568.64 1926C1576.48 1888.61 1627.13 1886.71 1644.74 1916.08C1658.85 1939.62 1650.21 1976.67 1662 2001M1666 1998C1665.24 1976.46 1657.48 1954.13 1653.55 1933C1652.45 1927.07 1647.25 1914.88 1649 1909.33C1656.13 1886.69 1706.18 1895.35 1717 1909.1C1735.01 1931.97 1696.24 1958.99 1684.29 1975C1678.77 1982.39 1674.85 1994.02 1666 1998M1927 2034C1936.83 2028.55 1956.58 2014.55 1962.98 2005.99C1964.59 2003.83 1970.17 1992.07 1973.84 1994.42C1976.41 1996.07 1973.34 2002.78 1973.11 2005.08C1972.06 2015.5 1968.12 2028.77 1970 2039C1982.84 2031.32 1970.12 2000.94 1980.47 1995.19C1983.18 1993.69 1986.75 2001.47 1987.84 2003C1994.28 2012.11 2000.63 2020.48 2006.65 2029.71C2007.84 2031.53 2014.68 2038.3 2015.82 2032.9C2016.48 2029.83 2011.24 2025.68 2009.9 2023C2003.39 2009.99 1975.04 1989.62 1983.56 1974.32C1989.19 1964.22 2014.69 1980.89 2018 1971C2011.46 1970.13 1985.75 1970.04 1982.74 1964.63C1976.41 1953.27 1991.88 1916.24 1977 1911C1977 1916.7 1981.07 1950.33 1974.5 1951.75C1963.68 1954.1 1948.68 1926.87 1943.76 1920C1942.83 1918.7 1935.6 1907.8 1933.61 1911.03C1931.37 1914.65 1938.41 1922.18 1940.13 1925C1947.07 1936.33 1954.98 1945 1965.14 1953.62C1967.71 1955.81 1975.58 1959.41 1974.92 1963.6C1973.75 1970.97 1939.81 1964.04 1937.11 1972.61C1935.56 1977.51 1943.82 1976.36 1946 1975.73C1953.54 1973.56 1979.13 1964.48 1976.48 1979.98C1972.83 2001.37 1932.03 2011.85 1927 2034M2029 1919C2016.81 1920.87 2000.55 1935.33 1992.08 1944.02C1990.36 1945.79 1982.23 1953.01 1983.76 1955.89C1985.23 1958.67 1993.94 1949.08 1995 1948.1C2005.19 1938.7 2021.5 1930.7 2029 1919M952 1927C926.156 1925.91 902.008 1923.97 876 1926.29C871.617 1926.68 849.747 1920.34 852.824 1931.91C855.562 1942.22 914.144 1913.37 900.959 1945.5C895.773 1958.13 860.342 1933.86 852.892 1951.49C851.04 1955.88 859.877 1962.76 862.299 1966.01C872.213 1979.3 886.396 1993.49 893.853 2008.08C895.838 2011.96 900.424 2024.68 906.352 2023.68C906.996 2023.57 913.005 2008.43 914.367 2006.32C923.178 1992.66 934.739 1981.94 944.496 1969C947.193 1965.42 954.322 1958.29 951.073 1953.46C942.026 1940.01 902.055 1956.37 905.656 1935.02C908.464 1918.37 943.998 1939.58 952 1927M1245 1944C1239.61 1943.37 1234.25 1943.32 1230 1947C1240.66 1949.34 1266.3 1945.72 1272.48 1957.22C1278.13 1967.75 1235.7 1965.1 1229 1964C1238.98 1980.56 1262.03 2014.82 1281 2021C1281.67 2004.86 1304.91 1985.99 1314.27 1973.04C1316.2 1970.37 1323.14 1966.75 1323.68 1963.76C1324.4 1959.7 1315.14 1960.99 1313.22 1961.35C1306.74 1962.53 1283.09 1970.41 1278.82 1962.5C1265.08 1937.06 1311.95 1949.87 1320.03 1943.83C1325.22 1939.95 1304.48 1940.38 1303 1940.56C1298.68 1941.07 1294.35 1941 1290 1941C1297.65 1934.74 1305.85 1929.56 1316 1930C1313.97 1921.73 1305.48 1924.84 1299 1924.98C1282.47 1925.36 1266.58 1925.43 1250 1926.04C1245.19 1926.22 1231.98 1927.58 1232.79 1934.88C1233.24 1939.01 1242.5 1939.83 1245 1944M1299 1929C1288.16 1943.74 1253.74 1951.93 1244 1933C1260.76 1929.4 1282.15 1929.17 1299 1929M896 1932L896 1935C896.696 1933.45 896.696 1933.55 896 1932M520 1989C517.38 1989 488.377 1989.79 492.408 1993.85C496.39 1997.86 513.162 1992.68 518.837 1993.82C524.655 1994.99 529.359 2008.76 530.188 2014C531.556 2022.64 519.399 2029.2 518 2038C523.97 2035.54 526.495 2028.44 531 2024C531.817 2026.18 538.148 2041.98 541.658 2037.11C544.553 2033.09 537.41 2025.38 537.279 2021C537.094 2014.87 545.954 2004.62 550.22 2000.57C556.016 1995.07 570.577 2011.29 574 1997C569.906 1997.3 546.781 1993.32 558.638 1986.35C565.195 1982.5 575.774 1995.51 577 1983C545.732 1983.23 583.251 1961.21 575.167 1955.8C562.242 1947.14 537.046 1946 522 1946C517.831 1946 506.88 1944.25 504.522 1948.91C501.373 1955.12 514.037 1965.56 511.203 1972.36C509.324 1976.87 495.643 1969.75 495.643 1974.17C495.643 1978.35 516.692 1980.85 520 1989M1272 1947L1272 1950L1270 1947L1272 1947M144 1988C146.974 1995.51 157.844 1990.63 163.624 1994.15C181.445 2005 167.434 2019.6 163 2032C168.402 2030.64 171.719 2022.28 177.727 2022.43C180.761 2022.5 183.917 2031.6 186.798 2028.68C190.576 2024.85 182.426 2018.01 182.208 2014.08C181.941 2009.27 191.659 1999.38 195.239 1996.5C198.538 1993.85 224.374 1995.89 222.894 1991.35C221.555 1987.25 203.2 1988.89 199 1988C207.697 1978.43 218.194 1961.96 220 1949C201.947 1951.39 170.166 1940.88 154.284 1950.74C140.527 1959.28 169.46 1980.45 161.081 1987.7C158.11 1990.27 147.905 1988 144 1988M903 2013C896.732 2009.97 897.019 2004.07 892.783 1999.22C880.1 1984.7 866.742 1968.12 856 1952C862.996 1950.23 896.016 1948.71 900.219 1954.82C908.516 1966.89 902.171 1998.64 903 2013M213 1954C208.014 1968.91 190.814 2006.19 169.138 1985.82C165.546 1982.44 153.32 1956.15 158.84 1952.86C170.509 1945.9 199.114 1956.97 213 1954M510 1952C518.029 1952.01 525.957 1953 534 1953C539.502 1953 565.068 1953.7 566.706 1960.6C571.796 1982.06 530.205 1979.43 520.346 1975.02C514.329 1972.33 511.503 1957.86 510 1952M906 2010C906.827 1996.28 907.639 1983.82 906.503 1970C906.193 1966.23 904.088 1957.23 906.477 1954.02C909.196 1950.36 943.306 1951.6 944.233 1956.42C945.136 1961.13 940.509 1967.5 937.901 1971C929.733 1981.97 916.448 2001.98 906 2010M1312 1966C1309.37 1977.61 1297.76 1987.68 1290.7 1996.96C1289.21 1998.92 1284.6 2006.22 1281.39 2004.46C1277.31 2002.24 1279.24 1992.67 1279.02 1988.86C1277.69 1965.85 1291.21 1969.26 1312 1966M1277 2010C1262.53 2004.7 1259.83 1991.45 1250.68 1981.08C1248.8 1978.95 1240.91 1974.2 1242.11 1970.74C1243.74 1966.03 1268.75 1968.79 1271.18 1972.78C1277.07 1982.46 1273.66 1999.06 1277 2010M555 1983C549.411 2000.52 520.526 1987.66 523.426 1982.91C526.486 1977.89 548.612 1984.01 555 1983M191 1993C185.044 2009.92 174.893 2007.77 170 1992L191 1993M530.841 1995.91C539.799 1990.99 549.926 2004.21 536.746 2009.46C532.276 2011.24 526.9 1998.07 530.841 1995.91z"/>
</svg>
