<?xml version="1.0" standalone="yes"?>
<svg xmlns="http://www.w3.org/2000/svg" width="2200" height="2200">
<path style="fill:#0c0c0c; stroke:none;" d="M974 110C994.921 97.6965 972.387 83.657 972.494 99.9998C972.516 103.322 973.737 106.664 974 110M1253 98C1264.97 109.525 1267.74 127.044 1273.62 142C1281.36 161.673 1291.81 180.292 1299.6 200C1301.45 204.692 1313.69 229.776 1310.15 232.681C1306.68 235.528 1289.53 231.379 1285 230.64C1267.41 227.77 1247.27 231.54 1229.92 233.785C1226.31 234.253 1204.78 231.797 1207.11 239.588C1208.88 245.545 1233.21 240.471 1238 240.136C1270.65 237.854 1303.55 241.179 1336 241.003C1340.35 240.979 1370.36 243.184 1370.36 237.919C1370.36 233.231 1354.95 235 1352 235C1330.53 235 1321.96 235.4 1311.03 216C1295.65 188.687 1281.57 152.896 1271.84 123C1269.3 115.173 1263.52 92.582 1252.97 91.929C1246.42 91.5239 1241.05 119.277 1239.3 125C1231.21 151.557 1220.67 176.423 1212.53 203C1211.13 207.581 1202.73 224.938 1206.2 228.894C1208.67 231.712 1212.32 221.33 1212.8 220C1217.18 207.906 1219.84 195.344 1223.28 183C1226.64 170.953 1232.76 160.368 1237.89 149C1245.09 133.059 1248.36 114.829 1253 98M981 92C982.434 99.1824 976.161 96.2627 981 92M975 98C976.081 99.4585 976.436 100.248 977 102C974.351 101.432 973.645 100.412 975 98M979 127C976.123 123.314 976.685 118.793 974 115C971.307 126.066 952.672 153.392 955 160L947 162C952.605 156.544 957.308 138.529 951 132C948.611 135.472 938.621 147.13 946 148C944.535 153.942 925.855 186.103 918.073 183.94C914.604 182.976 921.603 155.129 914.392 158.786C910.2 160.911 912.954 169.342 912.436 173C911.255 181.336 888.137 209.699 892.511 215.038C895.996 219.293 909.901 193.42 913.399 191.687C936.223 180.379 968.177 164.405 979.905 140.078C982.472 134.753 990.702 117.034 984.432 112.087C978.126 107.111 978.421 124.339 979 127M948.333 112.667C948.277 112.723 948.222 113.777 948.667 113.333C948.722 113.278 948.778 112.222 948.333 112.667M953 116C948.79 118.534 946.716 118.24 946 113C921.047 121.563 951.523 140.344 953 116M1960 158C1960 152.293 1959.78 146.608 1961.03 141C1961.9 137.087 1963.34 133.276 1965.7 130.004C1981.8 107.687 1995.41 136.463 1997.73 152C1997.96 153.557 1996.54 168.744 2001.43 165.634C2005.72 162.907 2002.48 149.648 2001.13 146C1996.51 133.584 1988.96 107.656 1970 117.15C1960.87 121.724 1945.85 152.179 1960 158M544 213C536.074 207.673 532.546 189.186 532.021 180C531.828 176.617 531.65 167.086 527.02 166.323C521.225 165.368 528.76 181.906 524.458 184.138C518.498 187.23 502.977 184 496 184C502.632 195.003 517.137 186.104 525.719 191.26C537.558 198.372 542.252 227.093 541.968 239C541.918 241.083 541.229 253.28 546.291 251.239C551.736 249.043 548.989 225.902 549.001 221C549.059 196.931 559.13 174.142 567.7 152.001C570.134 145.711 574.272 129.798 568.881 123.983C566.705 121.637 563.49 123.542 562.934 126.209C560.903 135.954 566.895 151.206 555.82 159.007C552.303 161.484 555.788 146.165 547.811 152.395C543.216 155.983 546.084 165.343 546.661 170C548.452 184.433 543.284 198.416 544 213M915.008 133.693C905.406 134.199 905.762 146.704 914.941 146.704C924.294 146.704 927.561 133.031 915.008 133.693M977 138L974 136C976.092 136.406 976.02 136.217 977 138M917 138C915.457 139.267 914.952 139.489 913 140C914.363 138.517 914.973 138.363 917 138M883 188C885.843 202.268 870.985 249.35 887 257C888.164 237.537 877.556 190.882 899 183C894.998 172.48 895.545 156.1 897 145C902.584 149.272 904.383 154.334 908 160C908.606 153.914 900.262 135.299 891.968 142.716C885.026 148.923 862.252 195.699 883 188M868 176L870 176C870.237 158.149 881.367 155.352 888 142C871.649 147.987 866.6 159.316 868 176M153.892 149.191C149.165 152.95 161.503 153.95 163 153.981C177.355 154.279 191.612 154.996 206 155C209.265 155.001 218.409 156.898 220.67 154.13C225.219 148.561 210.992 149 209 149C197.697 148.999 162.462 142.374 153.892 149.191M1975 148C1975.59 154.315 1975.76 160.808 1977.12 167C1978.11 171.545 1978.69 176.351 1978.92 181C1981.16 225.254 1991.82 152.212 1975 148M1578 157L1578 161L1580 161L1580 157L1578 157M535 159C535.818 161.026 536.252 161.727 538 163C537.064 161.052 536.608 160.45 535 159M892 159L892 179C886.566 178.983 882.397 183.007 877 184C880.306 175.309 885.612 167.619 889 159L892 159M943 159C942.886 162.486 942.758 164.732 940 167C940.103 164.242 940.413 161.697 941 159L943 159M906 162C905.6 165.092 904.817 167.993 904 171C907.133 168.369 907.985 165.667 906 162M553 167C554.286 170.53 554.651 174.267 555 178C552.413 174.554 551.653 171.138 553 167M1949 172C1943.27 161.03 1925.29 167.192 1923.61 178C1920.61 197.25 1926.46 220.01 1929.4 239C1929.71 241.017 1931.99 262.954 1936.54 257.127C1938.88 254.123 1935.02 241.683 1934.48 238C1931.37 216.74 1914.67 167.448 1949 172M166 206C158.479 207.852 136.954 216.843 129.862 211.603C125.14 208.115 127 179.381 127 173C112.545 179.44 130.818 203.595 122.911 211.937C120.471 214.51 116.181 213.856 113 214.154C98.3015 215.53 96.9884 211.688 95.2141 197C94.8952 194.36 95.9089 179.439 90.9289 180.323C87.9223 180.857 90.889 214.264 92.9496 218.182C97.3343 226.518 116.677 216.643 123.716 221.179C131.399 226.129 123.393 238.793 128.534 245.031C131.09 248.131 131.223 224.419 129 220C136.977 218.762 170.409 211.924 176.279 216.301C181.01 219.828 173.508 246.357 181.646 246.357C186.243 246.357 183.209 230.636 183.078 228C182.347 213.304 181.245 142.18 177.217 188C176.732 193.517 178.036 199.546 177.06 204.949C175.895 211.401 167.659 212.478 166 206M1603 170C1605.06 182.095 1597.57 194.822 1584.48 187.208C1581.14 185.266 1581.79 177.003 1577.36 177.003C1567.75 177.003 1585.39 204.887 1588.44 207.154C1601.46 216.829 1618.35 214.036 1626.42 199.999C1628.56 196.275 1627.56 187.772 1630.82 185.377C1635.44 181.979 1650.24 183.135 1656 183.019C1660.24 182.932 1687.18 185.482 1685.26 178.163C1683.84 172.785 1676.28 177.726 1673 177.658C1659.48 177.376 1646.72 178.489 1633 178.911C1629.74 179.011 1621.96 174.061 1619.9 175.465C1615.14 178.714 1623.74 190.675 1621.3 195.992C1613.08 213.898 1582.9 209.204 1583 189C1601.43 203.349 1621.18 181.123 1603 170M154.365 180.702C150.802 182.285 153.669 189.122 157.297 187.466C161.153 185.706 158.047 179.066 154.365 180.702M2002.79 183.408C1998.51 186.556 2002.61 199.785 2005.93 202.414C2010.71 206.203 2040.59 208.436 2045.11 204.053C2050.74 198.592 2014.19 199.488 2010.41 197.259C2007.82 195.739 2007.55 179.912 2002.79 183.408M561 192L562 198C563.427 195.316 563.264 194.051 561 192M212 194C211.784 195.681 211.784 196.319 212 198C213.081 196.542 213.436 195.752 214 194L212 194M2069 201C2079.05 205.066 2104.83 198.172 2103.66 217.077C2102.98 228.036 2073.36 231.331 2076.33 235.16C2078.47 237.919 2086.92 236.122 2090 235.914C2105.08 234.899 2113.28 220.692 2105.58 207.003C2100.09 197.26 2076.88 190.997 2069 201M509 202L524 202L524 199C518.902 199 512.526 197.73 509 202M1953 225C1955.33 235.688 1974.18 228.938 1982 227.702C2004.17 224.199 2025.69 224.53 2048 224.981C2053.23 225.087 2068.08 227.465 2071.71 222.969C2076.44 217.118 2034.66 218 2029 218C2018.78 218 2008.26 218.215 1998.08 219.118C1982.94 220.462 1968.43 224.993 1953 225M2053.5 242.23C2045.8 245.512 2055.33 258.139 2063.71 253.851C2071.54 249.846 2059.72 239.578 2053.5 242.23M2035 253C2030.11 236.281 1991.18 253.659 2023.98 252.976C2027.77 252.897 2031.22 252.408 2035 253M1964 249C1967.37 253.708 1990.5 256.906 1988.92 248.336C1988.31 245.052 1967.36 248.462 1964 249M313.333 296.667C313.278 296.722 313.222 297.778 313.667 297.333C313.722 297.278 313.778 296.222 313.333 296.667M1035 399L1036 394C1032.4 394.963 1032.37 396.592 1035 399M205.314 465.617C198.478 468.784 210.858 477.144 215.479 474.972C222.588 471.631 210.801 463.075 205.314 465.617M178 475C170.62 485.236 165.685 496.507 158.89 507C154.132 514.346 150.602 522.139 146.82 530C144.558 534.703 142.059 539.178 140.038 544C139.406 545.508 128.153 568.949 136.311 565.894C138.733 564.988 142.781 551.775 144.351 549C153.914 532.102 163.548 513.577 171.665 496C174.433 490.006 183.18 480.8 178 475M1369.4 478.761C1363.81 480.494 1366.89 492.388 1372.73 490.894C1377.96 489.557 1374 477.335 1369.4 478.761M335.849 479.74C311.066 478.069 282.033 484.199 257 485.695C254.441 485.848 230.108 489.032 235.851 493.708C239.582 496.746 254.18 491.214 259 491.041C282.37 490.201 313.641 493.201 335.849 485.281C339.249 484.069 340.281 480.039 335.849 479.74M542.947 487.437C538.043 490.696 544.037 498.931 549.587 494.708C554.785 490.753 546.906 484.806 542.947 487.437M842 519L841 513C861.232 527.197 818.909 529.776 821.106 536.402C822.068 539.304 829.085 536.158 831 535.765C837.161 534.501 874.089 533.066 863.636 550.178C859.269 557.327 813.22 547.779 814.892 556.786C815.789 561.62 828.341 560.711 832 560.484C841.486 559.896 880.575 551.125 886.818 557.84C891.018 562.358 886.101 596.234 894.382 594.678C902.254 593.198 890.512 561.926 895.72 556.942C899.22 553.592 906.678 555.945 911 555.993C925.345 556.152 939.692 555.882 954 556.115C963.277 556.265 974.279 558.871 972 546C956.306 551.448 936.406 548 920 548C929.587 537.043 935.864 533.515 950 532.64C954.316 532.372 968.783 535.645 971.456 531.366C974.787 526.034 950.153 527.625 948.885 524.951C947.561 522.16 958.221 515.994 960 514C962.302 517.479 998.027 518.885 1002.67 515.972C1010.25 511.212 992.505 509.885 991 509.972C987.686 510.164 984.319 510 981 510L965 510C966.876 507.018 978.008 501.931 973.049 497.958C969.177 494.856 951.409 512.334 947.68 515.375C931.31 528.724 899.542 560.76 875.041 548.014C860.707 540.557 848.881 515.693 837.339 503.942C833.989 500.531 829.325 491.002 824.069 490.708C817.743 490.354 833.897 507.112 828.646 510.256C821.01 514.829 806.116 508.789 799.892 515.887C796.923 519.273 835.15 518.58 842 519M836 506L838 510C836.004 508.756 835.442 508.308 836 506M465 582C471.332 591.666 490.793 584.363 499 580C503.043 594.726 517.963 602.671 526 583C520.853 583.598 513.37 588.572 508.44 587.135C494.832 583.17 523.818 558.988 525 557C517.585 557.615 508.545 562.481 501.105 559.248C494.967 556.581 492.615 545.291 498.365 541.124C508.823 533.544 529.456 536.1 541.686 531.529C549.388 528.65 530.977 527.456 528 528.181C524.328 529.075 520.712 529.689 517 530.36C511.346 531.381 505.627 532.781 500 534C502.79 528.721 521.797 514.924 519.774 509.545C517.865 504.47 494.376 532.08 491.543 534.315C489.499 535.927 482.984 536.348 482.106 538.652C480.692 542.362 488.918 542.309 490.161 544.576C492.764 549.328 500.785 564.343 502.097 569.173C504.913 579.543 471.506 581.496 465 582M1268.82 513.529C1264.38 516.147 1268.41 530.332 1274.52 526.547C1280.08 523.102 1275.05 509.857 1268.82 513.529M23 523C24.672 524.125 24.328 524.125 26 523L23 523M325 533C325.567 521.333 306.784 526.703 299 527.158C270.48 528.827 242.268 532.885 214 534.864C206.987 535.355 185.765 531.906 181.668 539.511C180.346 541.965 210.639 540.169 215 539.864C249.734 537.435 290.458 527.543 325 533M1659.75 546.408C1655.46 550.049 1660.76 575.507 1662.85 573.592C1667.01 569.776 1662.39 544.172 1659.75 546.408M1318.97 559.664C1295.33 560.623 1271.88 568.685 1248 569.922C1245.65 570.044 1224.49 570.351 1228.97 575.246C1232.34 578.932 1246.38 576.093 1251 575.561C1267.69 573.642 1284.29 571.34 1301 569.325C1306.99 568.603 1317.4 569.853 1322.49 566.397C1326.69 563.546 1322.73 559.512 1318.97 559.664M189.617 567.544C182.796 571.99 195.42 586.505 185.967 593.394C180.123 597.652 156.418 596.412 149 594.843C146.311 594.275 137.505 589.936 135.745 593.677C133.466 598.523 146.295 600.404 149 600.742C160.549 602.182 182.736 604.759 191.794 596.949C198.333 591.309 192.688 565.542 189.617 567.544M268.85 568.544C265.46 570.486 271.769 582.7 266.716 587.455C256.773 596.814 242.311 593.863 230 594.871C226.995 595.118 218.078 594.848 217.426 599.132C216.717 603.79 228.861 601.186 231 601.078C244.085 600.415 259.427 602.41 270.694 593.84C276.87 589.142 275.966 564.467 268.85 568.544M2002.83 568.287C1999.47 570.898 2003.93 587.749 2008.13 584.613C2015.81 578.88 2011.15 561.822 2002.83 568.287M1621.8 577.301C1617.59 580.387 1618.97 591.925 1625.63 587.199C1632.44 582.37 1628.71 572.24 1621.8 577.301M1339 579C1341.21 588.862 1344.94 623.245 1354 627C1353.26 615.357 1352.79 582.168 1339 579M347 583L347 586C347.696 584.446 347.696 584.554 347 583M1215 636C1212.57 622.274 1210.5 608.601 1207.55 595C1207.15 593.164 1204.8 582.083 1201.11 584.544C1198.04 586.592 1202.27 595.209 1202.65 598C1204.02 607.86 1204.34 631.761 1215 636M348 599C340.888 599.531 334.162 597.394 327 598.698C320.476 599.886 316.358 598.99 310 597.615C307.621 597.1 286.034 595.308 293.531 600.51C301.625 606.127 347.2 609.659 348 599M2002 601C2003.29 606.782 1998.49 642.922 2004.9 643.136C2009.76 643.298 2008.99 633.923 2009 631C2009.02 621.034 2013.47 605.124 2002 601M1653 602.449C1628.21 605.327 1645.11 611.934 1660.5 610.075C1666.83 609.309 1658 601.869 1653 602.449M1616 614C1612.15 604.146 1582.95 606.087 1585.11 613.842C1585.95 616.878 1610.8 613.31 1616 614M1564 611C1564.14 614.576 1568.71 641.802 1573.35 639.894C1579.54 637.347 1567.7 613.44 1564 611M886.904 614.585C879.448 616.275 883.307 629.787 890.054 627.935C897.686 625.84 893.674 613.05 886.904 614.585M1625.6 617.544C1615.97 623.557 1622.48 655.122 1639.47 640.772C1640.58 639.836 1641.89 637.87 1640.11 636.843C1636.89 634.99 1632.82 638.703 1629.54 636.644C1627.09 635.101 1629.79 614.923 1625.6 617.544M1173.57 805.654C1166.99 808.683 1180.84 813.773 1183 813.914C1204.35 815.31 1225.68 812.102 1247 814.32C1251.56 814.795 1267.31 817.699 1270.59 813.792C1274.71 808.902 1250.34 808.563 1248 808.32C1228.49 806.29 1207.53 806.096 1188 807.661C1183.91 807.989 1176.97 804.088 1173.57 805.654M1188 824C1190.02 833.961 1209.01 855.727 1219 858C1216.95 848.407 1198.04 825.339 1188 824M1211 828C1212.08 839.762 1233.65 863.49 1244 869C1245.08 857.248 1221.7 832.156 1211 828M1235 830C1238.56 842.04 1247.41 856.073 1254.96 865.999C1256.27 867.724 1261.25 877.883 1264.31 874.935C1267.96 871.422 1261.25 864.731 1259.4 862C1253.01 852.6 1247.61 831.65 1235 830M567.74 852.504C563.689 854.684 566.751 864.621 571.224 862.332C575.431 860.179 572.765 849.799 567.74 852.504M1333.52 853.289C1328.3 856.792 1335.86 868.023 1341.17 865.116C1346.17 862.387 1339.82 849.063 1333.52 853.289M2077 942C2082.23 942.68 2081.65 960.922 2087.67 957.25C2091.74 954.764 2085.49 940.742 2085.08 937C2083.11 918.859 2087.76 900.856 2084.25 883C2083.32 878.284 2085.87 870.919 2081.75 867.333C2075.04 861.497 2055.17 865.499 2047 865.972C2019.37 867.571 1992.14 867.713 1965 870.917C1956.88 871.875 1940.49 870.16 1934.33 876.333C1933.41 877.264 1941.83 908.723 1942 915C1942.45 931.08 1936.02 962.29 1951.33 971.861C1956.88 975.327 1976.48 970.142 1983 969.222C2004.32 966.212 2029.48 964.942 2051 967.083C2074.88 969.46 2099.28 968.241 2123 969.889C2126.25 970.114 2143.73 970.071 2144.58 966.75C2145.98 961.322 2138.59 959.872 2135 960C2121.82 960.471 2102.63 956.564 2090 959.75C2057.99 967.827 2019.44 956.899 1985.03 960.028C1975.13 960.927 1958.23 970.34 1949.33 961.5C1942.18 954.394 1947 925.645 1947 916C1947 909.472 1941.85 886.677 1944.72 882.333C1950.27 873.927 1965.44 879.263 1973 877.583C1998.52 871.912 2024.86 872 2051 872C2056.84 872 2073.33 869.175 2077.67 873.333C2082.13 877.621 2079 884.841 2079 890C2079 906.519 2080.07 925.775 2077 942M899 911C904.668 911.377 927.429 899.433 929.662 901.959C932.164 904.791 928.958 912.019 927.993 915C923.817 927.902 922.193 942.108 917.457 954.438C916.373 957.26 913.71 970.124 919.864 969.493C924.342 969.034 925.17 955.442 925.815 952C928.47 937.844 939.029 918.661 937.327 905C936.885 901.456 938.534 892.619 934.635 890.657C925.218 885.919 908.944 908.18 899.475 904.383C883.248 897.877 911.743 870.021 905.868 869.565C902.254 869.285 898.155 876.684 896.158 879.003C891.096 884.88 861.736 907.979 867.251 916.353C870.795 921.734 882.798 894.867 889.198 899.867C898.809 907.376 899.121 927.29 908.867 936.351C914.772 941.84 901.622 914.709 899 911M510 906C502.195 904.025 494.476 905.336 487 908C490.745 895.156 499.083 892.47 511 891.952C513.384 891.849 519.726 889.636 520.999 892.598C522.587 896.292 508.692 918.997 514.142 918.997C522.568 918.997 525.689 894.789 528.813 889.579C530.372 886.979 535.422 887.427 538 886C532.54 882.853 535.398 877.247 533 872C522.058 883.123 517.222 887.956 500 886C521.599 857.327 486.815 890.115 480.887 905.997C475.541 920.32 505.295 911.422 510 906M1504.05 870.549C1497.98 871.512 1495.87 881.532 1502.99 880.79C1510.69 879.986 1515.68 868.705 1504.05 870.549M548 901C549.255 897.153 551.047 893.604 552.882 890C553.703 888.388 561.252 874.201 554.231 875.316C551.162 875.803 547.811 885.502 546.611 888.079C540.397 901.426 532.06 914.968 532 930C543.837 920.538 541.223 907.067 559 906C555.995 915.143 551.097 922.014 551 932C559.49 930.318 560.735 913.981 566.111 908.028C572.348 901.121 584.867 903.119 593 903.917C595.392 904.151 600.659 902.985 598.25 899.333C594.267 893.294 575.473 901.72 571.639 898.333C570.045 896.926 577.685 881.155 579 881C578.749 879.086 577.539 872.591 574.086 874.544C561.203 881.829 570.548 900.908 548 901M590.137 880.761C584.062 882.307 586.936 893.843 592.572 892.239C598.314 890.604 596.358 879.179 590.137 880.761M1977 881C1983.27 884.644 1992.84 884.985 2000 886C1995.32 879.001 1984.43 881 1977 881M1249.83 883.28C1244.61 887.435 1254.72 895.258 1259.12 890.917C1263.48 886.612 1253.87 880.07 1249.83 883.28M908.18 885.081C902.828 885.843 902.889 895.885 908.915 895.112C914.318 894.418 913.345 884.346 908.18 885.081M1951 883L1952 884L1951 883M135 926C140.387 923.635 144.353 916.363 148.401 912.045C151.578 908.655 155.151 905.831 158.54 902.676C160.111 901.213 175.131 888.777 167.742 887.283C157.668 885.245 133.956 916.741 135 926M1645.87 899.271C1641.52 903.013 1650.86 912.911 1655.43 909.108C1660.49 904.902 1650.62 895.189 1645.87 899.271M1781 898C1782.39 913.438 1801.64 907.238 1781 898M1558 906C1556.57 919.478 1580.93 914.039 1558 906M574.05 915.127C565.534 917.587 567.797 931.545 576.971 929.127C585.956 926.758 583.055 912.526 574.05 915.127M1733 917C1735.15 930.134 1746.35 921.302 1733 917M2138 917.96C2125.55 919.122 2129.88 933.706 2139.95 932.608C2149.57 931.56 2148.23 917.006 2138 917.96M174.085 919.544C170.915 921.602 174.568 930.198 178.2 927.592C181.204 925.438 177.076 917.602 174.085 919.544M579 924C571.952 922.201 577.591 915.901 579 924M942 918C942.363 920.027 942.517 920.637 944 922C943.489 920.048 943.267 919.543 942 918M153 919C154.766 930.192 165.076 944.912 176 948.829C178.45 949.708 187.691 947.969 184.592 943.711C181.673 939.698 171.329 940.242 166.42 933.999C162.193 928.625 160.374 920.007 153 919M1173 925C1176.36 933.555 1189.29 931.091 1197 931.783C1220.95 933.933 1242.9 932 1267 932C1271.29 932 1293.65 935.314 1295.46 932.328C1300.11 924.649 1270.88 924.96 1268 925.019C1251.33 925.357 1234.59 929.411 1218 929.376C1203.65 929.346 1188.14 925.125 1173 925M1648 930C1652.34 941.389 1650.19 953.154 1651.56 965C1651.82 967.207 1651.65 975.4 1655.63 974.677C1658.99 974.066 1657.02 964.354 1657 962C1656.95 953.014 1660.8 931.344 1648 930M1510 938C1513.67 945.976 1527.99 941.303 1535 940.431C1551.43 938.385 1568.5 940.183 1584.99 941.059C1590.05 941.328 1599.72 944.109 1604.03 940.458C1606.11 938.694 1574.91 933.335 1569.96 933.059C1562.04 932.618 1553.94 932.877 1546.01 933.01C1534.01 933.211 1522.17 937.886 1510 938M1704.33 942.319C1699.61 946.767 1714.91 950.897 1717 951.239C1724.1 952.4 1761.09 952.634 1765.67 947.788C1769.91 943.309 1757.85 942.034 1756 942.008C1743.74 941.838 1730.87 945.913 1719 944.84C1715.7 944.542 1707.02 939.778 1704.33 942.319M2076 943L2076 948C2078.35 946.146 2078.3 944.903 2076 943M1202 946C1204 958.62 1215.16 973.333 1220.82 985C1221.6 986.604 1226.18 996.064 1229 993.677C1231.41 991.63 1225.51 983.709 1224.49 981.68C1218.94 970.653 1213.08 952.55 1202 946M1588 947C1588.72 954.413 1587.79 970.516 1594 975C1595.03 967.236 1598.14 949.569 1588 947M1292 949C1291.99 959.959 1288.1 970.009 1287.82 981C1287.78 982.694 1288.89 993.145 1292.77 989.031C1298.42 983.038 1293.05 965.884 1298 958C1296.17 954.472 1295.39 951.3 1292 949M1542 949C1542.39 952.649 1543.48 955.743 1544.58 959.217C1545.29 961.439 1545.73 963.721 1546.2 966C1550.55 987.039 1554.51 954.254 1542 949M1703 965C1703.76 968.539 1712.52 992.038 1717.14 990.317C1721.8 988.582 1706.86 966.476 1703 965M1760 965C1760.71 972.65 1759.95 987.779 1769 990C1768.18 981.508 1768.58 969.119 1760 965M1979 998C1982.09 996.142 1989.74 991.736 1990.22 987.841C1990.57 984.965 1984.71 978.217 1981.82 980.967C1978.6 984.037 1980.14 993.632 1979 998M2117.46 981.544C2112.63 983.886 2118.25 994.265 2123.45 991.329C2127.36 989.124 2121.1 979.778 2117.46 981.544M2046.67 983.408C2041.05 986.665 2047.52 1000.08 2053.48 995.953C2058.33 992.597 2051.7 980.492 2046.67 983.408M1799 995C1801.8 993.335 1802.88 992.055 1804 989C1800.34 989.926 1799.51 991.312 1799 995M1731.67 992.333C1731.22 992.778 1732.28 992.722 1732.33 992.667C1732.78 992.222 1731.72 992.278 1731.67 992.333M2114 1019C2113.92 1023.03 2113.39 1026.99 2113.04 1031C2112.83 1033.35 2112.44 1035.66 2112.14 1038C2109.23 1061.09 2129.72 1026.22 2114 1019M1980 1021C1980.01 1025.39 1980.39 1029.63 1980.78 1034C1981.05 1036.99 1981 1040 1981 1043C1981.01 1069.64 1992.27 1028.8 1980 1021M2046 1022C2046.42 1026.1 2047.52 1029.97 2048.29 1034C2049.18 1038.6 2048.45 1042.43 2047.85 1046.97C2047.54 1049.31 2049.33 1055.39 2052.69 1052.09C2058.53 1046.36 2052.55 1024.85 2046 1022M1766.79 1023.86C1711.62 1023.1 1656.22 1027.86 1601 1028.98C1587.89 1029.25 1575.01 1028.85 1562 1030.92C1559.47 1031.32 1549.83 1031.35 1551.11 1035.86C1552.39 1040.38 1559.86 1038.49 1563 1037.89C1576.13 1035.4 1588.53 1034 1602 1034C1636.79 1034 1671.18 1030.31 1706 1031.02C1724.44 1031.39 1750.01 1036.88 1767.71 1030.5C1771.5 1029.14 1770.98 1023.92 1766.79 1023.86M2081 1040C2080.45 1042.07 2080.15 1043.87 2080 1046C2082.16 1043.67 2082.68 1042.75 2081 1040M127 1236C134.068 1231.01 130.444 1224.28 132.438 1217C135.503 1205.81 140.407 1195.44 147.273 1186.09C150.584 1181.57 163.264 1169.51 168.138 1178.28C171.448 1184.24 169.791 1192.61 169.217 1199C167.848 1214.26 172.897 1234.41 168.496 1248.85C165.907 1257.35 154.961 1255.45 149 1259.42C138.425 1266.48 132.314 1277.85 126.876 1289C122.254 1298.48 121.179 1312.6 133 1317C131.919 1299.37 130.911 1285.93 145.72 1273.04C148.836 1270.33 164.13 1259.88 167.171 1265.51C172.231 1274.89 168.476 1303.83 168.097 1315C167.97 1318.73 170.008 1326.08 167.7 1329.19C159.132 1340.7 137.869 1339.59 132.069 1356.01C129.393 1363.58 128.308 1374.63 132.169 1382C135.049 1387.49 143.32 1393.89 146 1385C125.152 1385.18 143.799 1336.42 165.583 1341.33C169.396 1342.19 168 1351.24 168 1354C168 1361.2 161.77 1398.16 172.056 1399.56C177.666 1400.31 175.007 1389.85 175 1387C174.972 1374.92 176.295 1363.7 176.972 1352C177.152 1348.89 174.429 1340.46 179.028 1339.97C186.556 1339.18 208.414 1359.71 209.556 1366.97C210.363 1372.11 201.39 1379.25 205.722 1384.67C205.352 1384.2 218.461 1382.46 221 1383C217.99 1367.15 213.006 1353.78 200.643 1342.76C194.014 1336.85 177.577 1332.43 176.206 1323C174.048 1308.15 175 1292.01 175 1277C175 1273.26 173.478 1264.81 176.822 1262.16C181.756 1258.26 190.67 1266.24 193.981 1269.24C210.986 1284.64 207.081 1296.37 207 1316C219.383 1309.12 220.233 1283.8 221 1271C216.927 1271.87 217.593 1278.2 213.889 1278.64C209.812 1279.13 198.512 1264.14 195 1261.22C190.773 1257.71 178.26 1255.53 176.111 1251.89C168.996 1239.85 174.955 1201.06 176.778 1187C177.331 1182.73 173.264 1178.89 174.056 1175.19C175.044 1170.57 200.321 1184.18 202.75 1187.03C210.3 1195.89 212.34 1210.7 212 1222C211.873 1226.21 207.614 1233.78 210.722 1237.67C213.115 1240.66 218.008 1235.58 219.361 1233.61C223.995 1226.86 218.388 1210.41 217.222 1203C208.984 1150.66 138.172 1154.2 126.806 1207C124.702 1216.77 123.92 1226.35 127 1236M490 1203C491.381 1193.52 508.523 1159.16 518.06 1183C522.466 1194.02 513.269 1205.35 514 1216C517.868 1211.21 520.885 1207.05 522.367 1201C523.558 1196.14 524.637 1191.03 524.683 1186C525.018 1149.02 464.322 1186.1 490 1203M624 1171C626.813 1175.92 631.664 1178.61 634 1172C630.581 1172.08 627.38 1171.45 624 1171M497.5 1184.5C496.873 1185.13 497.872 1186.13 498.5 1185.5C499.128 1184.87 498.127 1183.87 497.5 1184.5M1643 1223C1657 1194.98 1618.48 1212.51 1643 1223M499 1213C494.561 1222.79 488.22 1231.61 485.034 1242C483.516 1246.95 484.491 1255.59 480.937 1259.49C476.146 1264.73 460.955 1244.66 459.187 1250.47C457.631 1255.59 476.108 1266.18 478.719 1271.1C483.367 1279.85 476.661 1295.82 489 1301C488.813 1295.95 483.933 1283.15 487.217 1278.98C488.979 1276.75 508.975 1294.1 510.396 1297.02C516.373 1309.3 508.354 1326.68 520 1337C522.345 1327.59 520.695 1313.58 519 1304C540.335 1314.95 539.357 1337.54 540.864 1359C541.614 1369.69 541.138 1382.98 552 1389C551.208 1375.02 548.142 1359 545.919 1345C545.503 1342.38 542.577 1331.19 544.397 1329.31C546.372 1327.28 551.976 1334 553.019 1335.21C556.189 1338.9 587.115 1369.44 586.897 1359.97C586.781 1354.92 578.517 1350.58 575.178 1347.58C565.176 1338.6 553.519 1327.38 545.638 1316.56C541.646 1311.08 547.327 1302.52 542.165 1297.85C535.663 1291.97 538.977 1308.26 532.812 1304.87C519.956 1297.81 511.714 1269.01 527 1259C516.489 1237.32 511.29 1280.82 511 1289C504.613 1282.88 489.246 1275.48 488.38 1266C487.12 1252.2 510.381 1218.58 499 1213M531 1238C528.52 1228.27 538.161 1219.55 541.892 1232C544.942 1242.19 538.097 1253.48 538 1264C549.957 1256.6 555.779 1217.67 534.975 1217.71C524.893 1217.73 519.019 1236.3 531 1238M612 1220C612.221 1225.53 613.105 1229.92 618 1233C616.764 1228.14 616.209 1223.14 612 1220M561 1221C562.386 1228.58 565.489 1256.32 572 1259C573.638 1249.53 570.482 1225.35 561 1221M521 1241C521.364 1244.47 522.283 1246.97 524 1250C524.571 1246.29 523.946 1243.4 521 1241M914 1277C913.944 1271.03 913.219 1265.1 910.856 1259.56C909.058 1255.34 907.012 1250.66 903.683 1247.43C886.538 1230.76 871.311 1252.49 871.019 1269C870.961 1272.33 870.83 1283.66 875.419 1284.68C878.647 1285.39 876.163 1275.37 876.126 1274C875.875 1264.68 879.452 1249.48 891 1248.67C906.276 1247.6 904.931 1270.55 914 1277M1259 1282C1256.26 1265.13 1274.86 1245.77 1290.45 1261.54C1298.47 1269.66 1295.59 1284.15 1305 1290C1304.97 1272.07 1293.27 1244.03 1270 1251.03C1255.72 1255.32 1245.28 1271.49 1259 1282M1712 1374C1712 1361.79 1720.66 1340.77 1713.42 1330.38C1709.87 1325.29 1699.16 1328.83 1694 1329.44C1677.45 1331.39 1659.54 1330.54 1643 1329C1646.75 1312.93 1646.4 1292.41 1644.68 1276C1644.51 1274.39 1642.46 1255.72 1638.37 1260.11C1635.72 1262.94 1638.63 1273.49 1639.06 1277C1640.27 1287.04 1645.16 1317.78 1639.52 1326.18C1636.07 1331.32 1584.96 1325.16 1590.09 1335.65C1592.16 1339.88 1611.73 1334.01 1617 1334C1638.08 1333.95 1658.93 1336 1680 1336C1686.05 1336 1700.33 1332.88 1705.4 1335.6C1716.66 1341.63 1696.39 1367.52 1712 1374M556 1284C556 1293.15 554.053 1308.6 560 1316C567.694 1299.6 554.017 1279.69 580 1279C578.115 1276.84 544.755 1271.53 541.501 1274.12C529.298 1283.83 549.433 1286.41 556 1284M605.667 1274.33C605.222 1274.78 606.278 1274.72 606.333 1274.67C606.778 1274.22 605.722 1274.28 605.667 1274.33M609 1274L610 1275L609 1274M149 1277C150.635 1276.45 150.455 1276.64 151 1275C149.365 1275.55 149.545 1275.36 149 1277M554 1282C550.885 1282.26 548.091 1282.5 545 1282C548.273 1278.19 552.185 1276.02 554 1282M1695 1316C1696.46 1308.44 1692.64 1299.68 1698.42 1293.23C1713.05 1276.93 1722.95 1299.11 1721 1312C1744.9 1302.55 1704.71 1264.45 1692.61 1289.14C1690.82 1292.8 1689.88 1297.97 1689.4 1302C1688.74 1307.51 1691.14 1312.29 1695 1316M529 1285L529 1288C532.491 1288.55 535.509 1288.55 539 1288L539 1286C535.573 1285.25 532.51 1284.77 529 1285M1279 1287C1264.93 1310.59 1278.76 1352.63 1247 1358.18C1244.08 1358.69 1224.35 1358.35 1227.41 1363.86C1231.24 1370.76 1250.95 1363.26 1257 1362.35C1284.49 1358.26 1316.31 1354.44 1344 1358C1345.77 1343.83 1346.52 1330.73 1348.59 1316C1349.05 1312.7 1347.8 1305.47 1342.67 1307.89C1331.24 1313.28 1341.85 1340.43 1336.66 1348.31C1331.82 1355.67 1307.74 1351.73 1300 1352.28C1295.77 1352.58 1272.07 1355.95 1269.75 1352.82C1267.5 1349.77 1272.27 1340.34 1273.07 1337C1276.07 1324.52 1288.53 1297.93 1279 1287M891.201 1289.41C889.344 1291.22 890.851 1322.5 891.146 1327C891.227 1328.23 892.287 1337.71 895.248 1335.46C899.761 1332.02 897.462 1303.64 896.559 1298C896.344 1296.66 894.445 1286.24 891.201 1289.41M142.667 1289.33C142.222 1289.78 143.278 1289.72 143.333 1289.67C143.778 1289.22 142.722 1289.28 142.667 1289.33M140 1293C141.176 1292.23 141.227 1292.18 142 1291C140.365 1291.55 140.545 1291.36 140 1293M2008 1292C2007.72 1299.71 2003.95 1331.34 1998.18 1335.67C1994.38 1338.52 1979.9 1337.79 1975 1337.96C1972.87 1338.03 1960.18 1337.6 1964.33 1343.09C1970.27 1350.95 1989.78 1338.91 1997.18 1344.34C2004.49 1349.71 1994.18 1355.72 1990 1357C1992.91 1361.49 2008.02 1377.98 2013.04 1379.36C2015.94 1380.15 2033.62 1380.14 2032.14 1375.14C2030.36 1369.13 2018.2 1373.29 2014.03 1372.5C2008.33 1371.42 2007.81 1365.54 2006 1361C2010 1360.8 2014 1360.98 2018 1361C2020.33 1361.01 2022.68 1360.98 2025 1361.26C2050.81 1364.38 2004.48 1353.39 2004.37 1347.07C2004.25 1340.14 2013.7 1342.94 2018 1342.99C2033.2 1343.16 2047.95 1344.98 2063 1347C2056.92 1326.73 2018.15 1347.88 2008.26 1334.31C2000.07 1323.07 2022.92 1301.49 2008 1292M138 1299C138 1303.75 137.829 1308.37 139 1313C140.554 1308.41 140.432 1303.22 138 1299M594 1311C580.73 1314.32 592.971 1319.46 594 1311M146 1383C149.382 1372.19 151.25 1362.54 156 1352C147.71 1356.44 138.942 1374.7 146 1383M196 1357C195.299 1360.21 195.455 1362.77 196 1366C198.241 1362.97 198.528 1360.7 198 1357L196 1357M606 1418C608.694 1404 608.58 1388.88 604.461 1375.08C603.936 1373.32 600.459 1361.25 597.736 1362.76C595.148 1364.2 599.349 1373.93 599.962 1376C602.847 1385.76 598.6 1412.25 606 1418M199 1366C188.711 1389.92 210.274 1384.01 199 1366M451 1447C473.305 1454.56 508.367 1448 532 1448L715 1448L715 1446L451 1447M752 1447C762.142 1450.44 776.323 1448 787 1448L863 1448C853.123 1444.65 839.394 1447 829 1447C805.604 1447 774.418 1441.33 752 1447M933.401 1598.76C929.897 1600.32 930.804 1609.83 930.118 1613C927.027 1627.27 926.927 1645.34 927.01 1660C927.035 1664.47 930.653 1676.62 924.716 1678.46C909.563 1683.16 884.179 1679 868 1679C863.637 1679 853.396 1680.96 849.94 1677.96C846.421 1674.91 848 1666.14 848 1662C848 1647.61 848.739 1633.35 849.018 1619C849.056 1617.07 849.968 1599.03 843.84 1603.41C839.907 1606.22 842 1618.74 842 1623C842 1636.64 833.113 1675.71 843.287 1686.11C845.656 1688.53 852.497 1684.46 856.003 1685.07C874.584 1688.28 892.394 1683.23 911 1684.26C915.537 1684.51 928.475 1688.43 932.063 1686.43C936.299 1684.06 934.315 1673.85 934.456 1670C935.093 1652.52 936.048 1634.8 935.882 1617.32C935.862 1615.18 936.925 1597.2 933.401 1598.76M135 1708C134.342 1681.37 134.341 1654.23 134.952 1627C135.032 1623.45 135.184 1603.28 129.117 1604.32C122.637 1605.43 127.937 1625.73 127.543 1630C125.805 1648.86 115.571 1698.04 135 1708M1217 1687C1215.36 1669.37 1217.36 1651.59 1215.78 1634C1215.52 1631.07 1215.57 1619.06 1211.79 1618.32C1208.11 1617.6 1208.21 1632.64 1208.3 1635C1208.84 1649.16 1202.84 1680.25 1209.81 1692.41C1210.47 1693.55 1224.84 1690.99 1228 1690.99C1244.55 1691.03 1262.57 1691.3 1279 1689.3C1283.15 1688.8 1293.12 1690.6 1294.83 1685.81C1299.69 1672.18 1298.33 1644.02 1299.66 1629C1299.87 1626.71 1300.13 1612.84 1299.04 1611.7C1295.77 1608.31 1284.5 1609.22 1280 1608.98C1263.94 1608.11 1248.04 1603.09 1232 1603C1228.16 1602.98 1215.01 1601.43 1212.97 1605.73C1210.42 1611.08 1228.05 1612.4 1231 1613.14C1246.02 1616.93 1278.92 1606.17 1291.18 1616.26C1295.79 1620.06 1290.42 1641.43 1289.52 1647C1288.23 1654.91 1292.18 1673.19 1287.74 1679.27C1283.96 1684.46 1272.64 1683.99 1267 1684C1251.13 1684.04 1232.15 1681.74 1217 1687M118 1616C117.276 1622.46 116.003 1628.44 116 1635L118 1635C118.828 1628.56 121.741 1621.98 118 1616M1560.89 1617.28C1554.67 1622.28 1573.14 1624.48 1575 1624.68C1591.58 1626.42 1609.31 1627.98 1626 1628C1631.18 1628 1639.35 1629.46 1643.38 1625.41C1646.41 1622.37 1645.08 1618.81 1640.93 1618.35C1622.48 1616.28 1600.49 1619.44 1581 1618.06C1576.55 1617.74 1564.5 1614.38 1560.89 1617.28M505.534 1619.76C500.961 1621.34 502.004 1636.15 502 1640C501.985 1657.03 503.532 1673.95 502.96 1691C502.82 1695.15 499.334 1707.03 501.069 1710.37C502.264 1712.68 517.086 1711.86 520 1711.96C535.752 1712.49 553.483 1707.68 569 1704.81C573.181 1704.03 581.733 1704.78 585.149 1702.55C591.433 1698.45 575.368 1698.05 574 1698.12C558.247 1698.9 541.764 1700.48 526 1699.9C522.327 1699.77 511.771 1701.75 509.797 1697.72C503.595 1685.04 510 1651.63 510 1637C510 1634.28 511.495 1617.7 505.534 1619.76M1972 1703C1991.56 1703.18 2011.41 1702.04 2031 1703.08C2036.25 1703.36 2047.49 1707.94 2051.18 1702.5C2062.17 1686.28 2056.31 1655.78 2061.16 1637C2061.79 1634.56 2061.12 1622.79 2055.86 1626.41C2052.19 1628.93 2053.12 1640.06 2052.96 1644C2052.62 1652.66 2051.61 1694.32 2044.4 1698.52C2035.42 1703.75 2001.63 1697.57 1990 1697.96C1983.43 1698.18 1974.97 1695.6 1972 1703M512 1704C510.001 1706.25 508.968 1706.45 506 1706C508.138 1704.52 509.397 1704.14 512 1704M520.667 1705.67C520.722 1705.72 520.778 1706.78 520.333 1706.33C520.278 1706.28 520.222 1705.22 520.667 1705.67M1950 1978C1954.25 1997.84 1993.11 2017.62 2008 2030.46C2011.31 2033.31 2023.54 2048.27 2028.31 2044.02C2031.65 2041.04 2015.81 2028.34 2012.95 2026.12C1993.98 2011.34 1972.98 1985.63 1950 1978M1949 1992C1953.36 1984.8 1944.81 1984.4 1944.6 1990.07C1943.94 2007.62 1947.17 2022.84 1943.82 2041C1943.43 2043.16 1941.74 2054.48 1946.88 2052.89C1951.11 2051.59 1950.23 2042.4 1950.76 2039C1952.24 2029.43 1960.24 1996.8 1949 1992M214 1993C207.808 2013.12 210.131 2036.2 209.078 2057C208.937 2059.79 206.833 2078.92 212.474 2076.38C217.909 2073.93 215.433 2062.4 215.354 2058C215.056 2041.41 216.15 2023.58 217.905 2007C218.407 2002.26 223.295 1990.73 217.708 1987.94C203.539 1980.87 169.922 1987.51 154 1988.04C151.355 1988.13 134.497 1988.59 135.323 1992.78C136.179 1997.12 150.981 1994.78 154 1994.44C173.425 1992.25 194.444 1993 214 1993M464.416 1992.56C458.918 1995.1 458.953 2007.03 459.445 2012C461.018 2027.89 458 2045.75 458 2062C458 2064.57 457.063 2083.04 463.247 2080.03C466.962 2078.22 464.003 2064.54 464 2061C463.987 2045.98 465.841 2031.07 466.008 2016C466.05 2012.18 465.114 2002.72 467.899 1999.86C470.539 1997.15 480.265 1998.4 484 1998.14C498.356 1997.14 532.117 2006.83 543.789 1997.28C550.159 1992.07 530.998 1993 529 1993C512.372 1993 479.222 1985.7 464.416 1992.56M1237.22 1998.52C1233.27 2001.72 1250.63 2012.28 1252.56 2013.82C1267.68 2025.89 1284.54 2035.54 1300.56 2046.27C1303.69 2048.37 1313.47 2058.61 1317.37 2055.26C1322.27 2051.06 1307.53 2043.58 1305 2041.86C1288.72 2030.8 1272.04 2020.2 1256 2008.76C1253.22 2006.78 1240.95 1995.5 1237.22 1998.52M1655.88 2003.76C1649.82 2005.34 1642.88 2015.86 1638 2019.91C1624.35 2031.24 1609.01 2040.17 1595 2051C1593.43 2052.22 1574.97 2066.26 1583.31 2067.21C1588.97 2067.86 1595.94 2058.17 1599.92 2054.92C1615.06 2042.56 1633.04 2033.9 1646.98 2019.98C1648.26 2018.7 1663.59 2001.75 1655.88 2003.76M845 2097C867.274 2100.74 892.349 2102.03 915 2102C917.95 2102 937.739 2099.41 935.239 2093.7C933.909 2090.67 918.364 2095.98 915 2096C897.97 2096.11 881.059 2094 864 2094C858.179 2094 849.046 2092.1 845 2097z"/>
</svg>
