<?xml version="1.0" standalone="yes"?>
<svg xmlns="http://www.w3.org/2000/svg" width="2200" height="2200">
<path style="fill:#0d0d0d; stroke:none;" d="M541 30C541.057 68.2686 518.107 114.295 499.651 148C493.008 160.132 471.188 185.109 472 198C493.389 179.929 509.271 143.018 518.54 117C523.283 103.686 528.238 81.4819 539 72C538.419 92.5449 534.438 113.336 534.019 134C533.661 151.59 536.366 174.222 530.573 190.999C527.557 199.734 518.824 204.804 514.674 213C502.084 237.863 489.67 270.017 487 298C494.237 295.885 495.257 278.439 497.185 272C502.712 253.54 509.582 212.784 529 204C526.431 229.876 523.243 255.731 523 282C533.904 270.026 529.945 235.708 531.134 220C531.351 217.124 531.766 200.643 535.402 200.643C542.802 200.643 542.842 218.309 542.989 223C543.448 237.625 539.847 285.02 556 292C554.226 279.057 548.864 266.885 547.214 253.922C545.267 238.617 547.497 223.378 544.705 208C543.387 200.746 535.26 196.194 534.722 189.938C531.046 147.146 543 101.953 543 59C561.574 76.6394 561.437 123.04 567.136 147C569.531 157.072 577.768 164.338 579 174C585.712 168.451 571.55 148.013 569.84 139.992C562.095 103.669 546.741 65.1069 544 30L541 30M1946 168L1949 157C1940.36 160.761 1945.07 170.855 1943.12 178C1938.36 195.445 1927.05 210.858 1921.32 228C1919.03 234.839 1916.16 251.311 1907 250C1908.37 253.639 1911.08 256.175 1912 260C1916.29 259.085 1920.9 252.747 1926 250.694C1936.65 246.404 1951.67 245.278 1963 243.389C1965.28 243.008 1982.69 241.203 1978.64 245.667C1968.42 256.926 1925.93 243.425 1919 260C1933.26 259.867 1948.94 256.074 1962.92 253.204C1967.74 252.216 1975.63 247.811 1980.42 250.48C1985.26 253.179 1986.98 263.645 1991 268C1994.47 262.21 1990.78 252.012 1994.83 247.814C1999.07 243.409 2011.26 243.781 2017 243.056C2036.56 240.585 2063.96 231.972 2080 242C2079.37 234.264 2073.76 230.955 2071.7 224.214C2058.79 181.937 2027.87 142.119 2011 99C2008.49 100.793 2007.69 101.997 2007 105C1996.02 93.0085 1996 72.2117 1996 57C1996 52.8176 1998.27 38.1279 1994.39 35.5439C1991.59 33.6748 1988.83 62.6719 1988.44 66C1984.83 96.6077 1976.1 118.74 1959.89 145C1955.47 152.153 1953.1 163.176 1946 168M145 181C155.801 159.902 179.277 158.349 197.783 150.168C210.303 144.633 222.231 132.343 232 123.032C234.255 120.882 264.162 111.148 257.001 105.407C255.621 104.301 231.523 114.985 229.019 117.24C218.217 126.961 209.111 137.471 196 144.469C180.365 152.814 169.058 151.755 154 164.36C151.798 166.204 131.464 181.273 131.323 180.484C132.287 185.867 153.489 187.581 158 188.563C167.838 190.703 173.118 197.935 182 201.653C192.323 205.975 205.91 207.098 217 208.106C220.78 208.449 231.714 211.788 233.426 215.493C237.109 223.467 223.258 242.217 219.763 249C209.299 269.307 201.872 264.183 184 271.254C158.332 281.411 124.666 291.857 100.022 271.338C77.5855 252.658 75.5818 219.016 76.9219 193C78.7117 158.255 85.2569 117.839 112.228 92.2839C134.586 71.0999 171.315 60.6555 201 56.6489C215.895 54.6384 238.888 68.4883 245.219 81C246.588 83.7073 247.542 104.055 250.687 102.333C259.948 97.2588 247.486 69.6365 242.407 64.8403C216.958 40.8113 165.645 55.8052 139 69.4768C89.1236 95.0686 75.8905 141.017 72.9195 194C71.3617 221.78 72.2244 249.545 93.0847 271.621C119.63 299.713 156.325 286.117 187 276.218C196.285 273.221 204.747 276.553 213.598 269.869C219.557 265.369 221.914 255.496 225.336 249.136C229.167 242.016 244.619 220.529 241.396 212.404C238.661 205.509 223.077 204.534 217 203.228C191.114 197.662 170.938 183.419 145 181M1288 68L1288 71C1288.7 69.446 1288.7 69.5537 1288 68M1249 125C1257.73 119.089 1256.1 95.8269 1257.2 86C1257.45 83.7483 1259.93 75.1562 1257.34 73.7612C1254.2 72.0649 1253.12 83.5422 1252.94 85C1251.3 98.2183 1249.02 111.664 1249 125M1266 77C1299.46 77.5464 1275.55 104.571 1278.34 127C1284.61 177.362 1285.71 233.42 1279 284C1268.55 279.994 1246.01 288.578 1239.42 284.107C1232.59 279.476 1236.2 259.76 1236.87 253C1239.59 225.195 1233.84 187.161 1244.48 161.083C1247.62 153.376 1261.46 162.674 1264 154C1240.62 155.78 1244.59 144.918 1243.18 125C1243 122.337 1245.76 113.086 1242.51 111.751C1237.68 109.771 1239.04 124.932 1239.29 127C1239.9 132.211 1243.08 149.548 1239.38 153.397C1229.82 163.34 1189.33 149.778 1184 165C1196.81 164.755 1227.3 153.436 1238.36 159.717C1243.75 162.777 1237.95 185.708 1237.32 191C1234.33 215.748 1232 240.06 1232 265C1232 270.618 1228.18 284.943 1231.61 289.218C1234.55 292.873 1242.31 288.83 1246 288.082C1260.19 285.207 1269.18 284.385 1283 289C1285.22 272.256 1284.07 254.869 1284.92 238C1285.21 232.257 1283.44 222.607 1287.24 217.743C1290.63 213.408 1302.8 211.892 1308 210.508C1324.69 206.061 1351.86 204.165 1366 195C1350.24 190.063 1325.17 201.132 1310 205.514C1305.44 206.831 1292.92 212.331 1288.63 210.216C1283.7 207.785 1287 181.413 1287 176C1287 143.278 1276.5 98.5515 1298 74C1289.3 72.4958 1271.46 68.4111 1266 77M1620 72C1619.73 81.0137 1610.41 95.3 1601 88C1600.76 100.248 1600.36 110.653 1602 123C1599.06 118.946 1595.12 108.135 1590.05 106.761C1584.29 105.202 1575.96 122.839 1573.79 127.001C1560.36 152.739 1555.2 171.952 1560.25 201C1564.84 227.32 1576.93 232.63 1592.4 251.129C1607.87 269.621 1613.8 286.822 1642.59 286.838C1645.72 286.84 1648.18 281.429 1651.02 280.002C1660.9 275.045 1670.94 269.903 1681 265.295C1701.01 256.128 1728.66 238.248 1733 214C1741.45 220.884 1744.45 232.312 1755 237C1750.71 227.22 1743.98 220.922 1741.41 210.003C1738.48 197.572 1742.36 188.354 1734.42 175.136C1728.67 165.549 1719.99 152.139 1711.69 144.768C1707.18 140.768 1701.28 141.149 1697.65 135.93C1691.39 126.934 1688.1 102.56 1679 98L1679 102C1672.63 98.1201 1669.79 90.3794 1662.98 87.2354C1648.19 80.4082 1631.93 80.9363 1620 72M1636 111C1632.49 108.182 1622.85 84.626 1629.92 83.3232C1634.57 82.4683 1636 107.481 1636 111M1644 93C1631.06 80.7874 1654.58 85.2107 1651.38 89.9971C1650.29 91.6243 1645.92 90.8992 1644 93M1614.93 89.9695C1620.25 88.1924 1621.14 103.885 1618.42 105.239C1615.73 106.573 1606.81 92.6809 1614.93 89.9695M993 107C994.629 114.272 984.921 118.366 984 126C996.382 116.263 1007.51 109.199 1022 102.454C1024.22 101.421 1032.58 95.3977 1034.75 97.28C1037.88 99.989 1028.8 115.74 1027.6 119C1020.14 139.253 1022.69 174.873 1010.2 191.795C1002.9 201.679 973.616 205.774 962 208.85C924.68 218.734 887.103 229.918 850.438 241.818C837.388 246.053 812.387 254.056 799.504 246.226C795.135 243.571 797.815 227.732 798.081 223C799.255 202.055 805.868 181.005 808 160C808.693 153.178 811.847 141.431 804 138C804.426 163.93 799.1 189.36 795.82 215C794.768 223.225 790.186 238.327 794.605 245.86C804.065 261.987 832.685 249.825 846 247.379C886.897 239.864 926.03 221.101 967 212.318C977.431 210.082 1008.8 203.902 1015.1 195.414C1019.2 189.897 1017.35 177.658 1018.57 171C1021.86 153.125 1025.99 132.571 1033.18 115.922C1035.06 111.568 1043.05 96.9016 1037.39 93.3479C1031.92 89.9138 1000.6 104.919 993 107M1665 93C1672.21 101.498 1681.39 108.372 1683 120C1676.55 117.083 1664.12 100.13 1665 93M1998 96C2008.54 123.589 2018.66 152.259 2033.46 177.993C2042.56 193.815 2060.02 212.526 2062 231C2047.63 228.952 2028.18 229.335 2014 232.652C2008.63 233.909 1996.96 239.835 1992.11 234.904C1990.54 233.301 1991.26 231.19 1993.33 230.594C2008.61 226.191 2022.67 218.131 2024.73 200C2027.76 173.472 2002.83 159.242 1993.94 138.783C1989.81 129.273 1994.41 106.271 1996 96L1998 96M1625 101L1634 118C1625.37 115.611 1621.02 109.591 1625 101M1667 108C1663.75 106.158 1662.27 104.517 1661 101C1664.48 102.479 1665.64 104.525 1667 108M1653 102C1658.17 107.497 1657.99 114.816 1658 122L1655 122C1654.58 115.481 1651.01 108.367 1653 102M1612 104C1615.72 106.145 1616.71 109.885 1617 114C1612.15 112.724 1610.66 108.684 1612 104M1606 109C1616.73 124.748 1600.49 121.645 1606 109M1644 109C1646.19 112.512 1654 139.879 1650.58 141.239C1642.74 144.354 1642.7 112.894 1644 109M816 146C826.434 155.219 846.794 146.392 859 144.825C900.556 139.492 944.388 116.083 986 116C982.645 106.46 953.765 119.327 946 120.679C902.566 128.242 859.305 138.673 816 146M1593 116C1596.45 120.825 1599.46 124.968 1600 131C1594.83 128.778 1590.47 121.398 1593 116M1641 116L1641 123C1637.33 120.592 1636.6 117.896 1641 116M1984 117C1983.38 127.329 1984.44 136.757 1972 138C1974.35 130.786 1977.92 123.399 1982 117L1984 117M1625 150C1622.92 159.495 1620 160.461 1613.44 167.126C1610.92 169.685 1598.27 187.367 1597.1 187.56C1589.06 188.878 1590.59 169.892 1591.06 166C1592.63 153.06 1606.51 125.179 1619 120L1619 126C1621.27 123.439 1623.22 120.921 1625 118C1631.55 121.408 1645.84 134.496 1645.14 142.764C1644.28 152.729 1630.93 156.501 1625 150M1660 119C1662.51 120.119 1675.67 129.179 1674.89 131.451C1673.81 134.658 1662.37 137.397 1660.3 134.448C1657.93 131.062 1659.99 123.038 1660 119M1684 134C1670.23 128.576 1683.54 115.192 1684 134M1578 126C1579.69 129.266 1579.93 132.355 1580 136C1577.2 132.944 1576.69 129.92 1578 126M1584 126C1586.83 129.419 1588.61 133.586 1585 137C1584.71 133.305 1583.39 129.654 1584 126M1665 127C1665.21 129.739 1665.3 130.422 1668 131C1667.26 128.823 1666.9 128.277 1665 127M1597 132C1596.54 137.198 1595.02 142.675 1590 145C1590.07 139.231 1591.32 136.368 1595 132L1597 132M1573 137C1574.14 140.654 1574.77 144.179 1575 148C1570.22 145.18 1568.24 140.913 1573 137M1678 143C1670.66 140.035 1677.36 134.46 1678 143M1687 146C1678.41 139.666 1687.46 136.918 1687 146M1956 178C1958.23 167.73 1962.99 155.691 1969.43 147.284C1971.42 144.692 1979.19 141.734 1981.46 145.678C1982.62 147.705 1959.83 175.806 1956 178M1581 145C1587.31 153.76 1588 161.789 1586 172C1581.59 166.888 1578.83 151.499 1581 145M1703 145C1709.65 149.408 1715.55 156.325 1718 164C1711.03 161.919 1702.22 152.767 1703 145M1665.67 146.667C1665.72 146.722 1665.78 147.778 1665.33 147.333C1665.28 147.278 1665.22 146.222 1665.67 146.667M1680.68 148.105C1686.8 145.737 1695.5 174.33 1689.84 175.679C1689.82 175.686 1677.3 149.414 1680.68 148.105M1652 148C1652.85 152.333 1653.73 156.586 1654 161L1652 161C1651.89 156.488 1650.51 152.423 1650 148L1652 148M1678 161C1672.27 160.292 1670.31 153.069 1670 148C1675.13 150.234 1676.11 156.11 1678 161M2009 165C2003.42 160.749 1998.62 155.011 1995 149C2002.27 150.887 2007.81 157.684 2009 165M1579 182L1584 181L1581 188C1575.65 183.107 1572.66 174.984 1571 168L1578 176C1577.32 167.34 1572.15 159.663 1571 151C1580.65 155.412 1582.59 173.761 1579 182M1994 151C1998.47 160.49 2012.44 167.818 2013.79 178.001C2016.95 201.927 1979.29 234.545 1998 199C1995.34 200.825 1993.16 202.271 1990 203C1992.67 187.942 1984.89 163.904 1994 151M1658 152C1662.34 156.142 1664.31 161.091 1665 167C1658.26 165.418 1656.03 158.288 1658 152M1983 153C1983 168.817 1984.56 184.272 1982.44 200C1982.01 203.156 1982.44 213.694 1978.5 214.695C1971.34 216.513 1964.54 201.835 1962.14 197C1955.9 184.371 1970.19 157.851 1983 153M1701 154C1704.14 157.759 1703.01 161.387 1703 166L1701 166C1700.62 161.898 1699.7 157.985 1701 154M1293 161C1296.19 168.805 1308.98 166 1316 166C1337.93 166 1370.94 173.336 1391 164C1361.9 154.141 1323.51 165.046 1293 161M1631 161L1631 164L1627 164L1627 161L1631 161M1643 163L1644 171C1639.82 169.277 1639.5 167.091 1641 163L1643 163M1177 164C1174.8 168.415 1161.58 201.963 1163.59 203.456C1165.94 205.208 1169.15 196.334 1169.83 195C1174.69 185.52 1177.81 174.591 1179 164L1177 164M1625 171C1619.07 172.449 1620.72 178.531 1615 180C1614.84 172.828 1622.53 156.75 1625 171M2037 165.333C2037.77 165.333 2037.16 165.831 2036.67 165.667L2037 165.333M1564 166L1564 177L1561 177C1561.02 173.232 1561.21 169.691 1562 166L1564 166M1679 215C1683.94 194.4 1675.01 184.142 1667 166C1680.94 168.349 1698.77 210.072 1679 215M1636 167.333L1636.33 167.667C1635.84 167.831 1635.23 167.333 1636 167.333M1374 169C1374.82 177.852 1374.52 184.424 1372 193C1381.38 190.651 1381.31 173.649 1374 169M1635 169C1634.42 173.508 1633.36 176.26 1629 178C1629.71 173.625 1631.16 171.254 1635 169M1665 171C1664.04 173.477 1662.79 175.038 1661 177C1689.56 176.279 1678.96 244.306 1648 238.377C1618.08 232.648 1630.31 191.549 1648.28 181.273C1654.48 177.724 1651.5 171.091 1661 175L1660 171L1665 171M1640 173C1640.14 176.719 1639.16 178.07 1636 180L1638 173L1640 173M1731 181C1726.11 179.954 1722.86 177.709 1721 173C1726.01 174.026 1728.98 176.279 1731 181M1607 179C1609.32 184.111 1608.15 188.67 1607 194C1602.53 189.052 1602.9 184.136 1607 179M1688 179C1690.89 182.369 1692.37 185.604 1693 190C1689.81 186.957 1687.31 183.558 1688 179M1562 180C1566.28 184.701 1570.23 192.607 1562 195C1561.95 190.073 1560.52 184.732 1562 180M1722 181C1729.01 186.482 1733.42 194.095 1734 203C1726.6 198.713 1720.11 189.931 1722 181M1588.21 184.64C1590.98 184.657 1596.97 194.894 1592.89 195.685C1589.45 196.35 1585.04 184.62 1588.21 184.64M1953 186C1954.52 188.378 1954.84 190.18 1955 193L1952 193C1952.05 190.487 1952.18 188.371 1953 186M2019 186C2023.77 196.2 2021.37 212.308 2011 218C2013.66 207.958 2015.04 195.449 2019 186M1615 187C1620.11 197.25 1611.25 196.539 1615 187M1947 189C1950.13 200.434 1952.06 211.934 1962 219.476C1966.48 222.872 1973.07 222.909 1977.18 226.519C1979.47 228.531 1979.87 234.51 1977.74 236.781C1967.26 247.962 1939.42 233.141 1928 243C1931.44 243.442 1933.04 244.115 1935 247L1919 249C1922.7 229.891 1938.74 208.839 1945 189L1947 189M2048 190C2050.47 192.165 2051.78 193.949 2053 197C2050.13 195.175 2048.31 193.474 2048 190M1707 191C1707.95 193.686 1708.63 196.178 1709 199C1705.94 196.681 1705.17 194.444 1707 191M1696 194C1697.86 196.991 1699.28 199.547 1700 203C1697.39 200.273 1695.33 197.887 1696 194M1600 209C1592.49 190.472 1608.9 200.41 1600 209M1587 196C1587.32 203.867 1590 210.974 1590 219C1583.5 216.853 1579.85 198.516 1587 196M1160 207C1161.81 212.159 1169.22 211.509 1174 211.509C1188.72 211.509 1204.41 211.611 1219 210.62C1223.3 210.328 1231.26 207.449 1231.37 202.138C1231.45 198.381 1218.58 202.419 1216 203.309C1200.26 208.735 1176.4 209.071 1160 207M1609 199L1607 204C1606.46 202.018 1606.57 201.039 1607 199L1609 199M1622 212C1608.19 206.767 1620.34 194.624 1622 212M2012 203C2010.92 212.298 2004.87 229.255 1993 224C2002.32 218.8 2004.87 210.196 2012 203M1609 206C1609.67 229.121 1602.26 208.368 1609 206M1715 223C1726.5 223.726 1723.31 213.814 1722 206C1739.45 208.383 1719.26 240.402 1715 223M1690 212C1691.4 221.845 1700.77 227.501 1702 237C1695.49 234.468 1678.9 216.857 1690 212M1616 218L1616 213C1619.94 214.105 1619.98 216.938 1616 218M1969 218C1966.49 217.064 1965.94 216.505 1965 214C1967.53 214.854 1968.03 215.508 1969 218M1569 216C1570.63 219.359 1571.67 222.272 1572 226C1567.67 224.735 1566.47 219.53 1569 216M1626 218C1625.71 225.4 1628.41 231.225 1631 238C1620.65 237.243 1615.64 222.693 1626 218M1593 222L1594 227C1592.77 225.037 1592.5 224.257 1593 222M1679 225C1679.06 231.022 1681.12 237.094 1680 243C1673.73 236.854 1669.61 230.226 1679 225M2067 225C2068.3 226.594 2068.54 227.018 2069 229C2067 227.756 2066.44 227.309 2067 225M1574 229C1578.1 232.709 1582.75 236.544 1586 241C1580.84 239.166 1574.79 234.74 1574 229M1708 230C1719.05 231.893 1711.79 241.612 1708 230M2056 232C2053.6 234.878 2051.4 234.878 2049 232L2056 232M1634 233C1634.08 235.735 1633.73 236.084 1631 236L1634 233M1694 236C1698.8 240.291 1706.41 248.245 1696 250C1695.74 245.196 1692.86 240.75 1694 236M1600 247C1592.25 241.224 1597.78 235.51 1600 247M1669 237C1668.02 238.783 1668.09 238.594 1666 239L1669 237M1672 244C1673.36 245.662 1674.15 247.024 1675 249C1672.65 247.581 1671.63 246.785 1672 244M1691 248C1688.88 247.101 1688.9 247.123 1688 245C1690.12 245.899 1690.1 245.876 1691 248M1657 252C1652.89 251.574 1651.4 249.814 1650 246C1653.31 247.409 1655 249.021 1657 252M1642.68 250.081C1646.19 250.725 1645.42 258.255 1641.65 257.456C1638.23 256.733 1639.17 249.436 1642.68 250.081M1663 248C1665.72 252.162 1667.5 256.022 1668 261C1664.39 257.965 1661.81 252.691 1663 248M1678 249C1691.72 257.422 1676.79 262.51 1678 249M1620 276C1613.38 275.464 1592.08 254.612 1600.43 251.754C1603.43 250.726 1617.55 272.534 1620 276M1656 254C1659.57 259.068 1668.48 268.056 1660 272C1658.94 265.892 1654.11 260.301 1656 254M1624 256C1625.71 258.955 1625.92 261.612 1626 265C1623.49 262.09 1622.81 259.704 1624 256M1646.3 259.323C1649.74 258.698 1654.35 272.907 1651.42 273.894C1645.86 275.771 1641.1 260.266 1646.3 259.323M1636 260L1635 261L1636 260M1642 279C1632 276.615 1639.8 267.534 1642 279M1633 280C1620.9 278.966 1627.47 270.341 1633 280M211 525C207.966 522.633 205.33 519.938 202 518C203.208 523.001 221.865 541.067 220.358 544.005C218.331 547.955 199.194 548.916 195 548.979C170.377 549.345 149.107 549.225 125 556.783C119.21 558.598 110.182 558.306 107.265 551.807C103.858 544.215 110.379 535.364 113.711 529C121.519 514.09 130.737 497.775 136.474 482C140.906 469.815 146.144 457.411 151.138 445.438C151.711 444.064 157.027 432.301 151.408 434.106C147.622 435.321 146.396 444.731 145.187 448C139.889 462.331 133.854 476.075 127.556 490C119.77 507.217 110.601 523.583 103.249 540.999C101.04 546.233 95.1318 552.298 95.1686 558.218C95.2216 566.738 110.381 580.276 116.005 586C134.052 604.37 146.832 627.841 165.129 645.68C171.649 652.037 177.473 660.628 187 662C185.641 652.852 191.381 643.546 194.455 635C201.764 614.677 207.676 596.235 218.723 577.764C223.925 569.065 221.227 559.553 231 554C219.762 548.882 236.503 553.461 241 556C240.244 549.933 233.443 527.476 233 545C230.989 543.721 230.655 543.289 230 541C219.522 540.989 214.479 522.024 209.399 514.136C193.388 489.275 160.189 457.612 160 426C151.305 428.895 161.436 447.766 164.427 453C178.053 476.835 200.241 500.385 211 525M2078 430C2080.02 446.859 2064.24 447.729 2055.77 459.001C2041.23 478.338 2028 498.778 2012.68 518C2006.55 525.694 1998.39 538.45 1989 542L1990 537C1954.47 518.006 1941.84 461.99 1909 440C1911.25 456.066 1927.54 470.645 1936 484L1929 481C1931.12 498.637 1954.52 518.26 1966.08 530.68C1969.9 534.784 1981.8 544.571 1981.19 550.569C1980.34 559.073 1962.87 572.126 1957 578C1937.55 597.45 1902.33 624.266 1896 652L1904 643L1905 647C1912.35 639.222 1915.96 628.14 1924.01 620C1937.78 606.069 1953.46 598.011 1966.46 583.201C1970.75 578.305 1982.17 558.661 1988.86 558.643C1994.59 558.626 2003.34 572.169 2007.04 576C2024.03 593.577 2039.55 612.544 2055 631C2056.42 628.349 2057.31 625.925 2058 623C2061.9 626.244 2063.2 628.935 2063 634C2079.03 629.655 2072.01 609.794 2072 595C2071.96 554.808 2073.62 516.022 2078.44 476C2079.77 464.91 2088.45 433.604 2078 430M2066 454C2064.34 457.739 2062.56 459.96 2059 462C2060.44 459.154 2062.19 456.631 2064 454L2066 454M2072 457C2075.26 496.754 2066.08 537.426 2064.08 577C2063.78 582.936 2065.9 612.401 2060.22 615.033C2055.78 617.09 2046.65 605.153 2043.86 602.543C2030.96 590.473 2019.14 577.337 2007.58 564C2004.09 559.975 1996.78 553.803 1996.88 548C1997.03 539.881 2010.16 529.192 2015.33 523.562C2032.91 504.434 2049.87 470.364 2072 457M838 675C850.592 664.151 861.655 641.382 868 626C870.545 629.806 881.336 651.677 886.501 649.894C893.495 647.48 873.389 624.085 873.903 619.96C875.463 607.446 896.059 588.542 903.454 578.137C910.363 568.415 935.842 585.269 947.58 571.644C956.554 561.227 953.606 548.225 945.553 539C942.633 535.654 934.694 530.063 935.758 525C940.382 503.005 964.646 487.564 969 463C959.986 466.422 946.034 481.316 941.836 490C939.252 495.345 933.673 511.036 928.412 513.677C924.805 515.487 919.455 507.188 917.58 505C908.171 494.016 898.829 483.021 890.697 471.04C889.77 469.674 880.887 457.626 879.066 462.851C877.263 468.025 887.414 478.882 889.973 483.019C905.499 508.12 935.355 521.412 908.289 551.517C905.096 555.069 892.707 544.459 889 543.198C874.137 538.145 852.242 530.377 838.501 540.251C833.866 543.583 836.685 555.157 837.236 560C839.531 580.157 865.132 601.768 863.711 620.783C863.222 627.324 856.325 630.004 853.458 634.752C847.746 644.212 836.677 663.356 838 675M1515 627C1521.74 626.722 1520.22 635.513 1526.15 636.728C1536.36 638.826 1559.29 623.816 1565.91 616.96C1582.18 600.129 1596.65 580.278 1611.08 561.922C1615.85 555.849 1622.81 543.561 1632 544.336C1646.02 545.519 1658.17 576.401 1671 584.114C1675.76 586.977 1705.35 606.499 1700 591C1736.21 598.622 1740.4 531.377 1717.56 514.788C1704.15 505.05 1670.66 502.027 1656.24 510.995C1649.35 515.286 1640.12 532.388 1631.02 531.222C1624.69 530.412 1618.2 521.188 1614 517.001C1603.15 506.182 1587.03 485.305 1573 479.546C1555.71 472.447 1537.75 476.388 1521.32 472.345C1518.31 471.604 1518.85 468.365 1519 466C1508.36 468.722 1516.15 491.526 1513.29 499.646C1507.8 515.224 1512.41 529.713 1512.9 546C1513.7 572.315 1507.97 601.155 1515 627M1176 569C1171.48 558.411 1179.95 541.524 1173 533C1173 560.489 1174.32 588.506 1172.92 616C1172.55 623.426 1167.67 640.761 1174 646C1177.93 633.097 1175.56 620.624 1177.37 607C1181.56 575.451 1187 544.454 1187 512C1187 504.61 1194.14 471.908 1182.97 470.316C1176.73 469.426 1177 488.586 1177 492C1177 517.732 1176 543.294 1176 569M1181 517C1181 512.623 1179.38 475.643 1183 475.643C1185.27 475.643 1184.27 513.889 1181 517M1193 477C1197.3 486.573 1209.41 491.339 1217 498.22C1235.32 514.819 1260.22 554.473 1285 560C1281.64 562.757 1277.8 562.207 1274 564C1292.02 572.34 1328.04 550.171 1345 543.342C1352.56 540.301 1360.36 538.366 1365 531C1339.72 531.582 1314.84 559.983 1289.02 553.473C1279.72 551.128 1273.09 537.553 1264 532.722C1255.16 528.027 1244.34 520.53 1239 512C1244.52 514.809 1249 519.237 1255 521C1246.81 507.721 1222.8 495.237 1210.02 485.871C1204.05 481.495 1201.06 475.835 1193 477M1548 479C1538.06 483.276 1528.12 483.587 1519 489C1519.01 476.554 1539.05 469.065 1548 479M1554 489L1559 488L1556 482C1561.55 482.615 1564.83 484.806 1567 490C1566.58 489.91 1560.37 488.48 1561.64 490.743C1564.02 494.986 1583.71 499.58 1588.78 501.85C1605.15 509.17 1609.56 530.412 1626 536C1620.46 549.826 1604.45 561.082 1594.64 571.976C1572.06 597.06 1560.72 621.004 1526 632C1523.82 627.539 1522.86 623.894 1524 619L1530 624C1523.26 586.929 1511.21 539.448 1521.75 501.001C1524.21 492.016 1552.99 475.1 1554 489M1585 496C1577.9 493.199 1571.7 489.058 1567 483C1574.77 483.919 1581.8 488.748 1585 496M1939 489C1945.95 497.559 1957.78 509.079 1960 520C1953.62 514.105 1937.03 498.156 1939 489M431 494C431.532 509.462 465.465 510.856 478 510.972C505.111 511.224 532.428 497.673 559 498.339C573.029 498.691 587.534 508.47 602 509.745C614.036 510.807 623.813 503.871 635 501.685C642.256 500.267 645.985 506.867 653 502C649.67 536.285 654.919 579.91 664 613C653.465 610.781 632.475 627.797 624.939 620.178C614.066 609.184 631.888 579.98 621.06 571.002C616.233 566.998 600.949 579.249 594 578.331C585.501 577.209 578.437 570.575 570 569.862C552.014 568.341 528.23 574.844 509 574.844C499.179 574.844 483.332 570.622 477 580C483.615 581.696 481.842 617.536 477.623 623.171C473.866 628.187 442.214 621.338 435 622.268C431.059 622.776 425.218 626.574 421.509 623.903C416.609 620.374 420.789 606.204 421 601C421.975 576.987 426.781 553.077 426.992 529C427.023 525.371 427.305 500.643 423.225 500.643C420.544 500.643 422.008 527.502 421.999 531C421.941 555.343 418.287 579.731 416.92 604C416.498 611.479 413.331 624.593 421.46 629.73C426.006 632.603 431.343 627.728 436.003 627.404C447.032 626.638 476.655 636.111 485.185 629.622C487.249 628.052 482.481 621.425 482.46 618.981C482.397 611.424 482.405 584.953 488.499 580.306C497.516 573.43 521.356 578.123 532 578.864C544.457 579.731 556.676 575.899 569 576.045C578.387 576.156 586.604 582.738 596 582.911C603.523 583.05 611.092 577.619 618 575C618 584.618 612.603 620.954 623.284 625.918C631.557 629.763 644.537 621.393 652 618.505C656.515 616.758 666.906 619.714 669.603 615.513C671.636 612.347 665.681 593.811 665.216 589C662.928 565.344 660.215 541.57 657.562 518C656.489 508.471 658.183 499.845 649 494C648.786 495.871 648.79 497.127 649 499C631.283 494.048 621.311 505.593 604 504.5C589.511 503.586 570.651 490.121 557 492.815C521.19 499.88 462.767 519.628 431 494M1636 537C1654.92 520.592 1688.63 497.631 1714.65 517.858C1727.49 527.845 1734.3 571.775 1714.91 579.138C1702.91 583.696 1677.14 563.875 1666 558.301C1655.13 552.865 1644.67 545.515 1636 537M1373 519C1372.28 522.361 1372.03 525.566 1372 529C1370.31 528.135 1368.82 527.522 1367 527C1375.76 555.302 1364.93 598.495 1362.86 628C1362.37 635.005 1358.04 658.995 1364.75 663.755C1365.97 664.625 1369.29 634.498 1369.63 629C1371.85 593.112 1374.98 555.069 1375 519L1373 519M2004 520C1999.7 524.321 1995.48 528.354 1993 534C1997.83 530.343 2001.26 525.718 2005 521L2004 520M1184 522C1183.75 525.315 1183.46 527.677 1181 530C1181.05 527.192 1181.3 524.72 1182 522L1184 522M1182 532C1183.6 536.732 1183 542.046 1183 547L1181 547C1181 542.046 1180.4 536.732 1182 532M929.744 534.643C934.172 534.643 946.976 565.977 936.852 566.801C932.88 567.124 916.168 560.826 915.329 556.653C914.361 551.845 924.444 534.643 929.744 534.643M867 546C862.878 550.514 853.862 546.432 848 547C853.023 540.773 860.593 543.801 867 546M1282 553C1276.92 550.968 1273.57 547.812 1271 543C1275.77 544.867 1279.26 548.734 1282 553M905 560C895.809 558.718 884.974 553.085 879 546C887.038 544.904 901.706 552.478 905 560M222 549C214.247 575.775 201.045 599.089 192.724 626C190.896 631.91 187.368 650.87 180.634 652.913C174.624 654.736 163.382 637.913 160.07 634C145.332 616.586 131.919 598.056 116.681 581C110.576 574.168 101.698 567.08 104 557C120.65 567.764 139.673 557.088 157 553.379C177.335 549.026 201.038 551.148 222 549M868 614C860.953 599.484 850.869 584.341 846.469 569C845.241 564.719 840.802 557.871 843.549 553.508C850.829 541.951 891.977 560.981 896.603 568.853C901.131 576.559 874.567 610.06 868 614M1182 556L1179 557L1182 556M1292 557C1290.47 559.141 1289.6 559.503 1287 560C1288.53 557.859 1289.4 557.497 1292 557M912 562C917.282 563.728 924.472 564.484 928 569C921.649 568.561 915.8 567.323 911 563L912 562M1662 564C1666.41 567.768 1671.14 571.94 1674 577C1668.77 574.868 1662.77 569.87 1662 564M1694 577C1686.11 575.9 1675.02 571.369 1670 565C1678.45 564.122 1688.55 570.956 1694 577M1710 584C1702.84 590.754 1685.79 583.213 1680 577C1688.7 576.079 1701.39 581.775 1710 584M1956 589C1954.54 591.61 1952.96 593.735 1951 596C1950.84 592.292 1952.92 590.748 1956 589M2068 595C2071.47 600.538 2070.56 609.853 2069 616C2064 611.568 2065.59 600.628 2068 595M1285 602C1277.9 615.77 1264.04 613.602 1251.04 617.56C1233.1 623.021 1216.79 633.213 1200 641.352C1195.05 643.75 1175.7 648.913 1174.3 654.289C1173.55 657.175 1208.61 643.807 1215 641.74C1232.73 636.003 1249.34 626.387 1267 620.129C1272.04 618.343 1279.49 613 1284.86 614.017C1311.22 619.007 1326.98 653.175 1354 659C1343.87 643.38 1314.65 629.882 1299.32 618.559C1292.76 613.713 1290.38 605.812 1285 602M1518 608C1519.55 612.026 1519.96 615.704 1520 620L1518 620C1517.86 615.97 1516.86 611.905 1518 608M1294 610C1302.57 624.57 1342.94 652.899 1360 656C1355.97 649.611 1348.03 646.704 1342 642.424C1328.26 632.67 1310.76 613.39 1294 610M886 843C889.338 844.362 892.42 845.505 896 846C888.267 838.937 877.521 835.631 869.979 828.277C862.743 821.221 858.675 810.552 850 805C851.576 812.121 857.666 817.344 862 823C840.697 811.263 850.647 818.073 831.979 827.743C829.01 829.28 821.263 827.922 819.522 830.917C817.99 833.554 821.657 842.036 821 846L826 844C830.585 863.126 853.166 879.675 865.222 895C869.69 900.681 878.642 909.008 877.381 917C875.402 929.548 858.888 941.96 851.147 951.32C846.994 956.341 836.744 975.273 829.921 975.521C814.727 976.074 808.927 953.231 791 955C793.65 970.136 825.192 968.528 826 986C850.394 970.825 864.452 922.121 892 921C872.447 896.031 841.996 868.894 828.177 840.584C826.99 838.152 844.939 819.404 848.368 820.181C870.108 825.105 893.749 859.911 908.564 875.217C914.409 881.256 921.771 891.572 930.824 892.773C933.034 893.067 949.793 872.714 953.229 869.255C962.366 860.055 983.148 840.136 985.221 826.999C987.859 810.284 965.382 788.565 954 779C958.841 777.458 976.275 766.644 979.059 767.081C983.479 767.773 992.392 781.319 995.655 784.888C1009.68 800.231 1024.53 818.263 1039.34 832.553C1044.8 837.833 1059.21 839.402 1062.25 846.344C1065.52 853.801 1055.62 866.301 1053 873C1047.9 859.894 1021.22 846.893 1025 835C1018.61 836.838 1016.16 835.928 1010 834C1014.64 869.207 967.481 876.146 962 907C977.873 895.263 992.168 879.306 1004.74 864C1008.18 859.811 1014.27 847.17 1020.4 847.057C1031.16 846.859 1041.75 865.131 1046.66 872.68C1047.87 874.534 1050.51 884.112 1052.92 883.239C1058.1 881.363 1069.14 849.607 1067.1 844.265C1064.01 836.182 1049.44 834.11 1043.18 828.874C1028.46 816.562 1018.46 798.03 1003.04 785.113C998.194 781.057 983.841 759.648 979.127 760.354C974.733 761.012 972.83 766.923 968.912 768.92C964.802 771.015 949.503 773.172 947.76 777.714C946.58 780.79 956.125 786.411 957.919 788.605C964.905 797.151 981.984 810.643 981.264 822.981C980.896 829.279 972.257 835.574 968.111 839.68C955.5 852.166 945.5 874.883 930.68 884.22C926.255 887.007 920.773 879.655 917.997 876.96C907.196 866.468 894.095 855.783 886 843M481 842C483.588 832.031 492.816 825.054 495 815C485.73 818.578 481.72 832.035 476.809 840.007C465.653 858.121 451.975 878.295 437.524 893.796C429.506 902.397 418.475 893.054 411.58 900.284C405.292 906.878 398.07 922.696 402.396 931.895C407.066 941.825 427.966 940.838 437 943.892C450.558 948.474 459.849 961.153 467.016 973.078C480.257 995.113 501.169 1018.5 511.657 1042C516.823 1053.58 510.17 1070.05 515.822 1080.5C518.146 1084.8 527.922 1083 532 1083C518.498 1071.11 521.199 1049.23 513.419 1033.02C493.299 991.082 464.602 951.194 422.003 933.939C411.937 929.862 411.546 919.909 414.906 911.07C418.157 902.517 431.961 908.163 438.055 901.716C457.065 881.601 475.286 858.584 492.784 836.96C500.271 827.707 510.069 820.743 514 809L509 810C510.191 801.054 516.968 777.465 530.79 781.062C544.957 784.749 552.998 806.689 560.544 816.864C575.657 837.239 598.476 855.673 617.04 873.037C626.16 881.568 658.517 886.77 659.97 897.01C662.983 918.259 640.892 920.783 633.746 936.432C622.706 960.607 602.103 981.179 587.597 1004C579.844 1016.2 572.107 1037.58 561.784 1046.91C559.39 1049.07 555.446 1043.45 553.447 1046.11C551.486 1048.71 557.146 1054.15 557.398 1057.08C557.798 1061.74 549.296 1088.98 561.797 1081.74C569.313 1077.38 566.421 1063.2 568.494 1056.14C570.622 1048.88 578.761 1041.11 582.956 1034.68C590.608 1022.95 597.468 1010.69 605.21 999C617.415 980.575 628.047 960.9 641 943C641.094 948.838 638.164 958.294 645 961C644.99 954.51 642.093 945.011 645.259 939.097C653.7 923.328 673.448 911.175 670.849 890.029C669.178 876.432 643.008 881.248 634 877.925C607.254 868.061 599.172 826.754 574 817C576.33 822.61 581.065 826.678 584 832C567.189 822.631 565.541 795.356 552.064 780.718C531.167 758.02 506.668 780.021 500.04 801C498.057 807.277 500.732 814.773 497.821 820.68C493.966 828.503 486.712 835.495 481 842M522 777C519.765 779.25 518.072 780.211 515 781C516.956 778.115 518.561 777.442 522 777M1719 781C1715.37 790.462 1700.66 786.328 1692 786.129C1672.98 785.691 1653.97 789.841 1635 789.981C1630.88 790.011 1627.96 785.088 1625.99 785.192C1625.69 785.208 1616.27 794.178 1616 795C1618.6 794.647 1620.6 794.061 1623 793C1622.35 814.59 1622.9 836.157 1623 858C1623.03 863.28 1625.36 876.106 1619.52 879.178C1613.27 882.461 1601.72 879.607 1595 879.136C1579.77 878.07 1564.07 881.393 1549.07 880.151C1544.12 879.742 1542.9 865.319 1540.35 867.969C1530.45 878.27 1534 893.048 1534 906C1534 938.308 1537.97 969.959 1541 1002C1559.68 993.675 1577.12 992.072 1598 986.959C1603.6 985.588 1615.55 980.185 1620 985C1624.66 983.062 1629.85 980.769 1632 976C1624.01 974.083 1626.46 962.732 1625.79 956C1624.15 939.588 1620.76 906.258 1628.06 891.281C1632.06 883.085 1646.32 887.578 1653 887.922C1677.5 889.184 1701.41 882.868 1721 898C1722.22 896.251 1728 892.656 1728 890.871C1727.99 887.113 1721.58 886.617 1722.09 880.989C1724.08 858.905 1722.1 836.342 1724.12 814C1725.36 800.189 1729.92 791.093 1719 781M543 782C546.925 784.389 550.209 786.675 552 791C547.504 789.745 543.609 786.857 543 782M1974 792L1984 788C1977.8 799.729 1962.35 798.78 1953.51 806.678C1942.76 816.27 1936.23 856.715 1945 868C1929.41 870.412 1917.08 866.347 1901.04 871.594C1880.72 878.242 1873.1 928.082 1886.35 942.774C1898.76 956.54 1925.37 958.191 1941.85 963.501C1947.32 965.261 1946.84 971.338 1944 975L1943 970C1936.81 975.495 1942.1 984.651 1944.25 991C1950.23 1008.59 1966.25 1031.46 1986 1034.97C1989.72 1035.63 2016.8 1031.12 2012.89 1028.26C2009.74 1025.96 2001.5 1030.14 1998 1030.64C1988.51 1031.99 1979 1028.44 1973 1021C1984.97 1021 1998.14 1026.74 2009.92 1023.42C2022.39 1019.91 2038.43 991.973 2046.17 981.783C2052.92 972.891 2053.3 945.98 2062 944C2059.97 946.273 2058.4 948.3 2057 951C2063.63 949.467 2066.72 943.254 2071.72 939.08C2082.49 930.095 2092.44 920.444 2095.2 906C2100.97 875.894 2077.48 840.677 2047 845C2049.41 822.889 2024.02 793.433 2003 789.021C1994.37 787.21 1978.68 781.938 1974 792M524 788L535 789C531.981 785.347 527.893 785.761 524 788M1716 879C1695.77 874.69 1668.87 883.16 1647 881.217C1642.38 880.807 1633.82 882.781 1629.84 880.178C1626.14 877.755 1629.9 864.888 1629.98 861C1630.29 845.977 1629.26 830.896 1627.56 816C1627.03 811.328 1625.1 801.548 1628.82 797.822C1636.03 790.613 1661.57 793.356 1671 793.859C1680.07 794.342 1693.2 796.075 1701.92 795.174C1705.88 794.766 1709.81 789.714 1714.18 791.959C1718.21 794.031 1716 809.041 1716 813L1716 879M2029 839C2037.52 833.166 2029.83 820.99 2029 813C2044 823.146 2048.25 849.755 2025.96 853.32C2013.04 855.385 1999.44 846.856 1986 849.343C1978.26 850.775 1964.6 861.136 1956.59 856.603C1946.78 851.056 1952.23 835.415 1955.61 828C1964.37 808.789 1979.88 795.648 2000 803C1997.06 798.567 1992.05 797.173 1989 793C2017.39 793.047 2027.47 813.41 2029 839M561 800C565.026 803.676 567.028 807.657 568 813C563.523 810.948 560.59 804.86 561 800M1967 806L1949 833C1946.68 820.666 1955.2 808.451 1967 806M163 1083C166.415 1081.49 167.308 1079.61 168 1076C169.409 1077.56 172.171 1084.08 174.943 1081.67C178.694 1078.4 175.33 1069.75 178.763 1065C193.2 1045.01 209.82 1025.11 221 1003C218.801 1027.94 189.924 1049.23 184 1074C193.84 1069.77 198.678 1053.76 204.093 1045C221.686 1016.54 232.276 981.447 252.811 955.089C261.113 944.432 288.641 949.104 301 943C289.364 939.378 270.355 946.26 258 947C266.328 934.27 282.29 941.796 289 932C273.632 931.991 275.549 927.167 278 915C275.093 916.063 270.564 920.947 267.494 919.685C261.028 917.027 253.648 904.187 248.871 898.999C231.774 880.431 213.514 861.223 199.707 840.001C196.665 835.325 185.757 812.898 181.676 812.008C173.376 810.199 166.517 818.594 161.758 824.04C148.971 838.672 135.886 852.982 123.55 868.008C105.443 890.064 88.4779 913.041 70.4153 935.136C67.0068 939.306 49.7106 949.802 49.7917 952.039C50.1171 961.016 71.6129 974.64 77.9821 981.018C98.4784 1001.55 118.49 1022.49 139 1043C153.543 1057.54 164.842 1062.97 163 1083M179 815C177.443 827.13 185.886 835.974 193.259 845C208.869 864.11 224.783 882.981 240.484 902C244.524 906.894 263.486 926.519 260.553 932.532C257.775 938.226 245.147 935.859 240 936.438C217.828 938.933 195.138 937.065 173 940L175 891L177 891L178 936L181 936C180.957 907.189 176.909 878.779 175.96 850C175.473 835.227 168.68 827.865 177 815L179 815M863 823L862 824L863 823M865 824L864 825L865 824M168 828C167.493 854.804 164.333 882.285 166.137 909C166.519 914.659 170.672 934.623 166.722 938.74C163.587 942.007 152.214 939.991 148 940.001C130.706 940.042 113.352 941 96 941C93.471 941 74.6433 942.308 74.6433 939.828C74.6433 938.024 81.6133 935.896 82.9926 934.759C89.6017 929.315 94.6456 921.691 99.8972 915C122.537 886.154 146.324 859.123 166 828L168 828M1262 834C1249.08 833.523 1227.57 825.092 1215.5 832.402C1205.4 838.511 1199.39 855.48 1195.67 866C1184.08 898.771 1186.6 941.697 1212.24 967.78C1234.26 990.189 1250.22 980.112 1277 983.86C1294.86 986.36 1311.05 986.192 1329 985.993C1332.46 985.954 1344.48 986.612 1346.47 983.315C1347.94 980.873 1344.98 965.061 1345 961C1345.11 941.224 1348.08 921.844 1347.08 902C1346.13 883.312 1353.67 852.424 1346.57 835.322C1344.06 829.279 1330.92 833.025 1326 832.742C1309.15 831.77 1294.74 829.988 1278 831.041C1272.99 831.355 1260.14 823.771 1262 834M1284 843C1279.71 827.66 1317.96 836.872 1327 837.481C1330.5 837.717 1340.98 834.853 1342.36 839.501C1347.53 856.837 1341.14 882.54 1342.78 901C1344.44 919.669 1341.02 939.252 1341 958C1341 962.895 1343.4 975.199 1340.6 979.178C1337.19 984.036 1319.58 980.585 1314 981.572C1299.27 984.179 1284.65 979.531 1270 978.218C1245.93 976.06 1234.73 984.716 1215.24 963.922C1179.82 926.151 1186.98 853.453 1239.35 836.108C1250.03 832.571 1272.34 841.914 1284 843M1232 835C1228.08 841.431 1215.43 845.271 1209 850C1208.34 837.641 1222.69 835.177 1232 835M2056 848.374C2068.61 846.45 2073.27 858.72 2077.98 868C2088.3 888.321 2082.5 902.478 2074.13 921C2070.4 929.246 2066.4 940.086 2056.05 941.271C2047.06 942.302 2049 926.369 2049 921C2049 903.029 2048 885.024 2048 867C2048 859.158 2046.03 849.896 2056 848.374M1947 849C1949.72 855.025 1950.64 860.527 1949 867C1944.61 863.102 1945.23 854.217 1947 849M172 850C173.337 864.357 172.337 878.646 171 893L169 893C169 878.906 167.538 863.907 170 850L172 850M2040 857C2038.23 856.045 2037.39 855.433 2036 854C2038.77 853.917 2039.13 854.352 2040 857M2028 864C2029.45 861.699 2030.46 861 2033 860C2023.78 883.437 2001.33 876.034 1982 875.297C1975.86 875.063 1964.53 881.31 1961.51 872.934C1959 865.965 1973.18 861.574 1978 860.285C1996.13 855.437 2010.74 853.125 2028 864M143 856C138.996 865.775 130.468 873.772 124 882C122.98 873.024 135.805 860.071 143 856M2042 865C2041.99 882.634 2041 900.311 2041 918C2041 921.397 2042.85 933.288 2039.18 935.071C2030.81 939.136 2021.41 917.802 2021.08 912C2019.68 887.577 2024.03 880.468 2042 865M1920 871.498C1955.41 866.807 1945.91 894.346 1945.48 919C1945.36 925.594 1949.13 948.046 1940.83 949.706C1928.61 952.153 1895.09 949.07 1888.39 936.774C1877.42 916.639 1897.56 874.471 1920 871.498M932 872L932 875L934 872L932 872M1956 880C1974.8 885.607 1983.4 912.665 1976.56 929C1973.91 935.313 1965.26 953.19 1955.36 949.052C1950.8 947.143 1952.92 935.823 1953.32 932C1955.16 914.363 1956.03 897.633 1956 880M1977 940C1979.4 931.712 1985.79 922.933 1985.36 914C1984.83 903.056 1973.03 892.166 1968 883C1974.91 880.605 2012.31 877.061 2016.48 883.822C2020.21 889.867 2015.37 908.091 2016.96 915.999C2018 921.138 2030.38 932.436 2027.67 936.197C2024.84 940.135 2015.69 937.128 2012 936.261C1999.89 933.417 1988.3 935.295 1977 940M2087 880C2096.55 893.341 2091.57 926.78 2073 931C2076.39 921.057 2085.09 913.145 2087.76 903C2089.75 895.412 2084.8 887.536 2087 880M1709 881C1708.05 885.413 1702.77 884 1699 884C1702.12 881.968 1705.34 881.506 1709 881M1717 884L1717 886L1711 886C1713.06 884.77 1714.62 884.338 1717 884M1543 935C1549.25 944.986 1546.48 971.406 1545 983C1565.21 959.601 1531.09 913.898 1544.82 888.501C1547.14 884.21 1556.96 885.996 1561 886C1575.31 886.013 1589.64 887 1604 887C1608.36 887 1616.75 885.534 1620.1 889.042C1623.76 892.881 1620.64 906.102 1620.22 911C1618.62 929.462 1626.17 957.37 1619.21 974.579C1617.38 979.097 1608.08 979.454 1604 979.902C1589.6 981.485 1575.19 984.596 1561 987.478C1556.98 988.295 1548.41 992.187 1544.82 989.04C1536.82 982.027 1541.62 944.717 1543 935M667 889L667 897L665 897L664 889L667 889M171 899L170 900L171 899M957 909C968.572 927.892 978.824 926.373 996 936.118C1015.71 947.303 1020.11 958.639 1006.49 976.059C1004.15 979.052 998.939 989.256 994.734 989.136C988.067 988.946 981.748 977.038 977.058 973.048C965.803 963.474 925.542 943.163 914.157 952.769C899.694 964.973 888.417 984.378 877.819 999.974C872.267 1008.14 863.954 1010.44 869.004 1021.86C874.743 1034.84 889.852 1037.16 898.648 1046.72C902.612 1051.03 918.081 1066.72 904 1068C903.706 1072.16 897.687 1082.56 892.067 1079.58C886.993 1076.89 885.318 1068.57 882.075 1064.22C876.724 1057.05 865.74 1049.43 858.904 1043.42C850.268 1035.83 837.759 1035.75 829.078 1028.52C816.009 1017.63 808.657 1001.02 796.324 989.88C791.447 985.475 779.254 984.282 776.727 977.662C774.495 971.812 785.41 957.957 790 955L788 950C782.582 953.813 765.842 976.432 771.73 982.934C778.3 990.188 790.677 990.775 797.079 998.372C806.713 1009.8 815.111 1026.99 828.049 1035.07C836.856 1040.57 847.958 1041.26 855.863 1048.42C864.738 1056.47 883.547 1083.12 895.008 1082.96C901.656 1082.87 905.23 1079.55 910.309 1075.82C914.223 1072.95 924.641 1063.51 924.133 1058.19C923.803 1054.72 915.744 1052.94 913.354 1050.61C904.134 1041.63 895.304 1032.16 885.921 1023.32C883.249 1020.8 874.854 1016.61 873.761 1013.27C872.71 1010.05 879.097 1005.21 880.842 1002.96C888.246 993.396 893.539 982.648 901.993 974C906.905 968.975 915.229 953.001 922.865 952.742C927.448 952.586 933.72 959.51 938 961.415C948.76 966.205 960.14 966.742 970 974.051C979.369 980.995 985.24 993.122 996 998C1000.51 986.188 1024.54 969.593 1024.36 957.609C1024.3 953.429 1017.69 949.48 1015 946.922C1001.55 934.135 991.052 933.32 976.298 924.62C967.94 919.691 967.798 911.145 957 909M254 911C258.392 915.166 262.02 920.62 267 924L265 928C260.527 923.744 252.698 917.829 254 911M274 933C270.827 932.823 269.855 932.245 270 929C271.884 930.199 272.731 931.139 274 933M257 938C252.93 950.22 242.745 948 232 948L232 946L238 946C223.05 942.217 205.206 947.223 190.019 948.059C185.787 948.292 176.717 952.591 173.453 948.208C169.182 942.472 189.016 942.237 192 942.079C213.687 940.931 235.582 942.199 257 938M1954 966C1964.92 944.029 1992.53 936.385 2015 941.372C2023.87 943.34 2049.05 938.171 2040.86 957.421C2039.15 961.44 2023.95 960.297 2020 961.072C1998.28 965.337 1976.34 963.495 1954 966M60 955C69.2225 935.682 122.226 944 141 944C145.243 944 166.671 941.488 167.755 946.236C169.214 952.627 146.711 951 143 951C114.498 951 88.0355 952.788 60 955M227 949L227 951L218 951C220.616 948.416 223.475 948.815 227 949M174 1062C175.548 1036.13 174.509 1010.9 173.981 985C173.828 977.452 169.701 962.606 173.859 955.833C175.812 952.652 184.727 954.032 188 953.682C202.277 952.152 216.692 953.488 231 952.217C233.829 951.966 245.722 950.112 246.753 953.579C248.755 960.311 235.159 974.564 231.721 980C218.813 1000.41 206.115 1020.64 191.656 1040C186.479 1046.93 182.056 1058.16 174 1062M1924.65 953.8C1928.31 951.708 1950.31 955.384 1944.17 959.189C1939.41 962.141 1920.79 956.005 1924.65 953.8M1951 961C1952.35 950.696 1960.03 957.548 1951 961M171 1068C160.622 1063.77 150.716 1049.04 142.96 1041C123.846 1021.18 104.304 1001.54 85.9974 980.962C79.649 973.825 68.971 966.655 65 958C90.8094 957.762 117.212 953.865 143 955.242C149.165 955.572 162.397 951.653 167.238 956.045C171.7 960.094 169.985 978.986 169.999 985C170.065 1012.84 170.017 1040.26 171 1068M179 959C176.793 967.721 176.793 980.279 179 989C182.002 980.137 179.906 969.355 182 960L179 959M623 962C616.098 984.812 595.099 1007.01 583.403 1028C581.925 1030.65 572.117 1048.94 568.239 1045.59C564.704 1042.54 577.018 1028.23 578.823 1025C588.474 1007.74 605.643 971.524 623 962M2034.67 964.667C2034.72 964.722 2034.78 965.778 2034.33 965.333C2034.28 965.278 2034.22 964.222 2034.67 964.667M2026 965C2024.18 967.259 2022.88 967.642 2020 968C2021.82 965.741 2023.12 965.358 2026 965M2030.67 965.667C2030.72 965.722 2030.78 966.778 2030.33 966.333C2030.28 966.278 2030.22 965.222 2030.67 965.667M1996 970C1989.91 973.886 1970.65 976.283 1966 970C1975.98 968.677 1985.94 970 1996 970M1998 970.333C1998.77 970.333 1998.16 970.831 1997.67 970.667L1998 970.333M2042 970C2041.79 977.234 2039.12 982.052 2033 986C2034.79 980.228 2036.16 972.669 2042 970M2033 975C2024.78 1010.81 2003.01 1020.84 1971 1007C1972.87 1009.34 1974.04 1011.17 1975 1014C1964.16 1012.66 1936.95 984.939 1953.51 976.404C1958.86 973.644 1970.81 978.565 1977 978.565C1995.43 978.567 2014.61 976.092 2033 975M473 979C482.751 986.845 494.166 1002.48 499 1014C490.293 1009.27 472.567 989.534 473 979M222.667 1001.67C222.722 1001.72 222.778 1002.78 222.333 1002.33C222.278 1002.28 222.222 1001.22 222.667 1001.67M1971 1022C1966.42 1020.76 1963.68 1018.46 1962 1014C1966.51 1015.45 1969.3 1017.52 1971 1022M874.667 1019.67C874.722 1019.72 874.778 1020.78 874.333 1020.33C874.278 1020.28 874.222 1019.22 874.667 1019.67M878 1022C882.274 1025.7 886.605 1028.76 889 1034C883.679 1032.41 877.677 1028.11 878 1022M564 1060L564 1068C561.965 1064.99 562.194 1063.11 564 1060M562 1073L560 1076L560 1073L562 1073M898 1239C888.694 1225.86 881.826 1176.66 888 1162C874.94 1155.5 882.433 1182.11 883.302 1189C885.6 1207.22 894.2 1229.23 894.047 1247C893.932 1260.4 884.175 1277.08 878.673 1289C876.329 1294.08 868.42 1320.48 862.136 1320.48C857.738 1320.48 851.473 1296.94 849.748 1293C841.235 1273.54 831.116 1256.85 825.758 1236C823.516 1227.28 823.655 1210.3 817 1204C813.874 1213.11 818.061 1221.87 819.682 1231C825.752 1265.17 854.069 1294.17 858.022 1328C859.814 1343.33 832.056 1379.6 820.959 1388.78C811.343 1396.73 804.269 1405.59 792 1409C799.514 1417.68 810.394 1404.53 816 1399.56C830.106 1387.07 840.267 1374.08 849.535 1357.56C852.158 1352.89 855.846 1339.38 861.323 1337.64C865.984 1336.16 888.449 1369.89 886.923 1374.24C882.193 1387.73 860.109 1394.45 860 1410C867.679 1405.16 888.15 1383.18 896.992 1385.68C902.79 1387.31 907.436 1395.61 912.003 1399.37C920.244 1406.16 931.169 1409.57 940 1415.91C942.207 1417.5 954.509 1425.04 956.972 1422.64C960.399 1419.32 947.903 1413.6 945.96 1412.88C934.603 1408.63 902.89 1393.85 901.074 1380.08C900.375 1374.78 926.657 1355.65 930.757 1351C932.267 1349.29 936.358 1341.79 939.346 1343.43C946.494 1347.33 953.274 1366.26 959.115 1373C974.797 1391.11 1002.59 1409.7 1026 1415C1021.51 1403.99 1008.37 1402.38 999 1397.8C983.592 1390.27 968.251 1379.11 958.378 1365C954.134 1358.94 941.743 1344.89 944.117 1337.05C945.798 1331.5 964.437 1321.77 960.477 1314.87C957.102 1308.99 941.448 1327.06 936.794 1323.12C930.706 1317.96 927.577 1303.31 923.805 1296.14C916.323 1281.9 903.309 1266.19 900.584 1250C897.969 1234.46 904.732 1208.39 906.459 1192.22C906.873 1188.34 906.837 1154.98 901.06 1156.32C897.147 1157.23 901.81 1173.25 902.242 1176C905.527 1196.93 898.747 1218.2 898 1239M71 1301C76.6735 1316.38 94.3912 1330.46 111 1335.24C117.242 1337.03 124.173 1333.12 129.99 1336.32C143.782 1343.9 153.273 1367.22 164.776 1378.56C168.064 1381.8 173.451 1390.51 178.659 1390.38C185.939 1390.19 194.269 1357.11 197.543 1351C211.599 1324.76 236.309 1306.12 255.398 1284.02C259.861 1278.85 270.942 1273.21 273.239 1266.87C274.389 1263.69 259.004 1267.75 261 1259C250.596 1261.64 244.154 1251.79 237 1245.02C218.592 1227.61 212.094 1209.83 198.942 1187C196.644 1183.01 188.705 1157.92 185.311 1158.72C173.728 1161.45 166.969 1183.42 160.62 1192C138.275 1222.21 119.943 1246.61 93.1382 1272.68C86.3015 1279.33 80.8315 1302.09 71 1301M212 1228C198.573 1230.32 184.054 1227.03 171 1229.35C159.811 1231.34 149.872 1237.84 138 1239C145.444 1220.17 159.793 1203.48 169.598 1186C172.116 1181.51 176.236 1168 182.679 1168C187.158 1168 189.741 1178.37 191.245 1181.56C198.361 1196.66 207.23 1211.97 212 1228M1160 1184C1172.31 1223.7 1148.56 1268.55 1155.44 1308.92C1156.85 1317.17 1168.4 1327.13 1173.92 1333C1193.67 1353.97 1201.71 1364.07 1233 1355.54C1247.17 1351.68 1260.19 1352.13 1274.01 1347.9C1293.02 1342.08 1310.8 1367.34 1323 1345C1319.83 1346.02 1317.01 1347.6 1314 1349C1317 1337.58 1332.17 1329.63 1339.82 1321C1352.47 1306.71 1358.11 1285.92 1372 1273C1372.61 1276.14 1372.7 1278.3 1376 1279C1374.26 1253.86 1367.25 1229.13 1359.58 1205C1357 1196.89 1355.89 1184.58 1347 1181C1354.65 1200.6 1369.28 1232.63 1367.5 1254C1366.91 1261.12 1358.59 1269.75 1354.38 1275.32C1342.27 1291.33 1331.06 1314.75 1314 1326C1319.17 1301.89 1318.32 1273.4 1315.56 1249C1314.79 1242.18 1316.45 1229.83 1311 1225C1311 1254.57 1313.85 1283.39 1311.22 1313C1310.44 1321.79 1313.6 1336.54 1306.16 1343.18C1301.93 1346.96 1293.12 1344.11 1288 1344C1272.6 1343.66 1260.44 1348.08 1245 1347.41C1235.29 1346.98 1209.09 1359.79 1201.16 1348.4C1196 1340.98 1202.09 1318.24 1202.99 1309.76C1205.5 1286.14 1201.99 1251.5 1197 1228C1225.19 1228 1250.63 1218.47 1278 1217.08C1287.3 1216.6 1305.57 1224.11 1313 1220.59C1328.22 1213.4 1332.79 1191.62 1345 1181C1331.71 1178.1 1322.61 1210.68 1311 1215.64C1303.43 1218.88 1286.15 1211.93 1277 1212.52C1249.16 1214.31 1225.74 1225.87 1197 1222L1198 1217C1185.66 1219.27 1175.43 1204.83 1169 1196C1205.11 1196.33 1241 1197.57 1277 1193.61C1297.42 1191.36 1318.39 1182.36 1339 1179C1333.72 1172.61 1292.52 1183.64 1284 1186.63C1273.35 1190.38 1260.28 1188.71 1249 1189.78C1216.65 1192.83 1188.92 1195.66 1160 1184M1909 1189C1925.5 1186.65 1933.36 1222.09 1938.66 1233.96C1945.77 1249.9 1968.59 1279.86 1968.12 1297C1967.94 1303.44 1961.53 1310.31 1958.82 1316C1951.59 1331.2 1945 1352.48 1935.26 1365.84C1929.85 1373.24 1920.32 1371.36 1917 1381C1935.95 1378.26 1953.8 1368.92 1974 1367.73C1985.4 1367.05 1997.08 1372.06 2009 1372C2012.62 1371.98 2038.38 1369.53 2039.07 1368.17C2041.3 1363.78 2030.68 1338.86 2028.02 1334C2016.72 1313.31 2011.3 1295.18 2004.51 1273C2002.26 1265.63 1995.96 1258.96 1995.92 1251C1995.86 1233.89 2014.43 1210.63 2022.56 1196C2024 1193.41 2034.04 1181.02 2032.59 1179.17C2027.52 1172.73 2010.8 1178 2004 1178L1929 1178C1919.27 1178 1909.56 1177.08 1909 1189M1602 1181C1605.48 1203.37 1602.7 1226.48 1601.47 1249C1601.16 1254.81 1604.81 1268.43 1600.73 1273.13C1599.11 1275 1580.03 1272.91 1575 1274.67C1554.77 1281.77 1535.66 1304.95 1531.45 1326C1524.28 1361.78 1562.92 1417.11 1601.5 1385.76C1605.55 1382.46 1604.54 1367.25 1605.1 1362C1606.98 1344.15 1608.18 1324.94 1607.94 1307C1607.85 1300.11 1604.05 1288.68 1606.86 1282.28C1609.32 1276.68 1618.45 1279.92 1623 1279.7C1632.31 1279.24 1654.58 1278.03 1661.92 1272.5C1668.09 1267.85 1682.41 1258.23 1685.82 1251.54C1695.74 1232.09 1672.7 1198.28 1657 1189.53C1639.4 1179.73 1621.12 1180.92 1602 1181M1973 1290C1963.65 1285.73 1958.73 1267.88 1955.16 1259C1944.69 1232.97 1926.86 1207.51 1918 1181C1944.11 1181.24 1972.24 1181.21 1998 1182.87C2001.87 1183.11 2021.76 1179.3 2023.05 1181.86C2025.96 1187.65 2012.74 1204.86 2009.96 1210C1996.25 1235.3 1980.63 1262.17 1973 1290M1620 1183.54C1647.64 1183.08 1673.56 1202.75 1679 1229C1680.15 1234.54 1683.66 1243.16 1681.17 1248.66C1672.33 1268.21 1642.07 1274.62 1623 1274.84C1619.65 1274.87 1609.67 1275.29 1607.3 1272.74C1604.56 1269.8 1606.87 1256.23 1606.7 1252C1606.05 1236.41 1601.2 1183.85 1620 1183.54M642 1189C645.159 1222.17 652 1255.23 652 1289C652 1299.33 653.637 1318.02 646.675 1326.5C640.39 1334.16 611.708 1334.28 602 1335.15C587.149 1336.49 569.247 1342.7 554.562 1341.52C525.327 1339.18 499.009 1325.3 470 1324C479.256 1297.81 494.569 1273.3 506.006 1248C509.257 1240.81 518.773 1226.19 513 1219C506.492 1240.83 490.093 1265.03 480.226 1287C476.793 1294.64 472.989 1308.85 466.245 1314.1C452.226 1325.02 419.752 1291.76 419 1279C422.034 1278.61 418.078 1263.65 417.995 1259C417.586 1235.96 412.419 1220.34 427 1203C420.4 1201.26 413.218 1201.03 410.844 1209.01C408.626 1216.46 411.531 1227.27 411.922 1235C412.962 1255.55 407.405 1287.07 425.066 1302.22C429.869 1306.34 460.996 1320.87 461.344 1324.42C462.385 1335.06 446.128 1359.66 441.587 1370C440.587 1372.28 432.288 1384.79 439.041 1384.79C443.888 1384.79 445.67 1375.38 447.279 1372C451.259 1363.63 459.196 1332.78 468.185 1330.08C482.197 1325.87 503.527 1338.54 517 1341.34C549.066 1348.01 573.722 1340.03 605 1339.4C615.565 1339.18 640.259 1340.38 648.721 1333.4C657.026 1326.54 656.812 1311.76 657.018 1302C657.586 1275.23 654.278 1248.79 652.922 1222C652.449 1212.65 653.509 1191.73 642 1189M1167 1200C1174.22 1206.1 1189.48 1218.71 1193.74 1227.02C1203.77 1246.55 1197 1287.24 1197 1309C1197 1314.27 1199.79 1347.75 1193.51 1348.68C1188.11 1349.48 1172.14 1326.36 1168.66 1322C1151.56 1300.61 1159.71 1248.62 1165.22 1222C1166.71 1214.79 1164.64 1206.95 1167 1200M211 1233C210.802 1254.42 210.614 1275.58 209.136 1297C208.879 1300.73 212.251 1314.36 209.1 1316.45C203.292 1320.3 184.827 1316.82 178 1316.22C162.335 1314.83 140.228 1316.55 126 1321C126 1301.74 127.473 1281.63 131.462 1262.78C132.433 1258.19 129.948 1248.54 134.44 1245.57C138.708 1242.75 141.42 1250.19 145.05 1251.2C149.534 1252.45 155.221 1247.96 159 1246C157.101 1245.99 140.073 1248.84 142.761 1242.63C144.115 1239.51 155.936 1239.29 159 1238.54C175.947 1234.42 193.722 1234.68 211 1233M213 1318C216.462 1297.39 216.006 1275.92 216 1255C215.999 1250.76 212.854 1236.76 217.553 1234.54C220.908 1232.96 238.088 1259.39 242.007 1262.71C244.091 1264.48 250.725 1266.54 251.16 1269.41C252.866 1280.7 221.616 1312.67 213 1318M125.106 1247.43C128.877 1246.9 127.047 1263.39 126.864 1266C125.689 1282.81 123.096 1299.12 122.997 1316C122.966 1321.41 122.606 1328.98 115.973 1330.35C105.058 1332.61 79.8055 1313.41 80.3185 1302C81.0602 1285.51 102.417 1266.86 114 1257.42C116.923 1255.03 121.299 1247.95 125.106 1247.43M137 1250L137 1253C137.696 1251.45 137.696 1251.55 137 1250M239 1253C243.385 1256.02 247.668 1258.6 249 1264C244.612 1261.5 240.022 1258.2 239 1253M897 1256C908.707 1269.53 917.424 1292.78 925.222 1309C927.649 1314.05 933.255 1321.91 932.277 1327.78C931.065 1335.06 917.049 1343.82 912.04 1349C907.855 1353.33 898.376 1368.36 891.94 1368.36C886.442 1368.36 878.764 1352.17 876.002 1348C872.633 1342.91 865.391 1335.39 865.46 1328.99C865.543 1321.38 873.489 1312.73 876.722 1306C884.512 1289.78 889.72 1272.36 897 1256M1224 1259L1230 1260C1228.34 1256.84 1226.15 1255.67 1224 1259M1993 1257C1997.79 1279.03 2005.78 1308.37 2018.04 1327.78C2022.08 1334.19 2034.42 1353.08 2030.96 1361.18C2029.56 1364.47 2017.3 1366.08 2014 1366.54C1995.64 1369.1 1980.12 1361.21 1962 1365.06C1958.18 1365.87 1943.27 1370.17 1941.6 1364.5C1939.29 1356.66 1951.68 1339.49 1955.57 1333C1969.98 1308.98 1978.5 1281.89 1991 1257L1993 1257M1370 1262C1369.92 1274.53 1362.17 1266.98 1370 1262M263 1269C260.084 1276.92 251.176 1283.25 246 1290C244.374 1281.56 254.942 1269.77 263 1269M73 1272C74.1755 1271.23 74.2268 1271.18 75 1270C73.3648 1270.55 73.5451 1270.36 73 1272M1366 1272C1362.45 1291.18 1333.29 1330.85 1315 1338C1319.27 1321.71 1338.59 1309.02 1347.48 1295C1352.5 1287.1 1356.8 1275.79 1366 1272M1587 1276.64C1603.54 1276.06 1601.85 1290.46 1601.99 1303C1602.2 1321.72 1601.01 1340.3 1601 1359C1601 1363.74 1602.1 1377.46 1599.65 1381.21C1597.17 1385.02 1587.21 1386.61 1583 1386.9C1515.65 1391.53 1527.06 1278.76 1587 1276.64M209 1321C204.13 1338.11 189.751 1353.06 181.897 1369C180.26 1372.32 180.24 1386.03 175.269 1383.91C153.587 1374.69 151.77 1337.57 130 1330C153.335 1316.84 183.671 1322.52 209 1321M136 1322C133.687 1323.89 131.956 1324.54 129 1325C131.05 1322.49 132.802 1322.21 136 1322M933 1332C932.594 1334.09 932.783 1334.02 931 1335L933 1332M711 1340C710.784 1341.68 710.784 1342.32 711 1344C711.507 1342.31 711.507 1341.69 711 1340M336 1343C336.545 1344.64 336.365 1344.45 338 1345C337.227 1343.82 337.175 1343.77 336 1343M1309.67 1345.67C1309.72 1345.72 1309.78 1346.78 1309.33 1346.33C1309.28 1346.28 1309.22 1345.22 1309.67 1345.67M1200 1356.33L1200.33 1356.67C1199.84 1356.83 1199.23 1356.33 1200 1356.33M552 1439C563.254 1429.84 554.37 1392.64 547.439 1382.47C545.58 1379.75 533.193 1371.32 530.574 1375.84C528.573 1379.29 533.881 1392.91 534.841 1397C536.084 1402.3 538.571 1407 540.634 1412C544.3 1420.88 550.079 1429.57 552 1439M547 1401C542.338 1397.7 540.425 1391.37 539 1386C544.904 1387.64 546.366 1395.56 547 1401M549 1417.33C549.773 1417.33 549.16 1417.83 548.667 1417.67L549 1417.33M901 1537C883.402 1562.91 873.519 1596.63 860.139 1625C847.966 1650.81 827.956 1682.27 825 1711C833.583 1704.96 841.19 1679.26 844 1669C845.243 1684.44 832.134 1702.34 828 1717C836.116 1713.77 838.952 1699.7 841.342 1692C846.181 1676.41 853.249 1661.49 858.459 1646C860.236 1640.72 861.677 1629.54 865.918 1625.82C873.492 1619.16 881.573 1639.43 888.177 1639.35C892.96 1639.3 895.864 1634.75 900.997 1636.22C907.737 1638.15 913.697 1647.13 920.864 1646.57C928.134 1646 933.768 1635.47 942.384 1639.54C949.62 1642.96 952.78 1654.09 957.601 1659.92C970.374 1675.37 984.181 1695.67 999 1709C997.595 1691.3 980.668 1678.3 970.894 1665C952.965 1640.61 937.546 1611.63 923.232 1585C918.855 1576.86 912.657 1547.53 904 1545C904.286 1549.89 906.291 1554.2 907 1559C900.073 1552.09 901.39 1545.64 903 1537L901 1537M2102 1542C2098.91 1556.39 2099.99 1568.99 2093.97 1583C2089.17 1594.15 2080.16 1601.79 2072.74 1611.04C2049.89 1639.52 2013.58 1678.71 1973 1674C1959.32 1672.41 1939.14 1661.2 1929.73 1651.64C1926.14 1648 1924.37 1632.96 1922.88 1633.54C1913.4 1637.24 1913.92 1652 1914.5 1660C1915.59 1675.11 1918.88 1692.99 1924.72 1707C1927.77 1714.29 1935.93 1724.92 1933.11 1733C1928.62 1745.86 1919.92 1757.66 1914.08 1770C1912.51 1773.3 1907.27 1779.59 1909.96 1783.27C1915.29 1790.58 1926.38 1778.45 1930 1775.04C1945.55 1760.37 1963.54 1743.13 1980.44 1730.3C1991.46 1721.94 2007.7 1720.05 2020 1710.51C2060.45 1679.14 2079.21 1638.16 2096.05 1591C2101.95 1574.46 2115.86 1554.97 2112 1537C2108.34 1539.37 2106.76 1543.66 2102 1542M2108 1548L2108 1552L2106 1552L2106 1548L2108 1548M898 1553C906.35 1572.87 920.984 1592.67 930.629 1613.02C932.965 1617.95 940.957 1627.09 940.223 1632.58C939.936 1634.72 922.309 1641.81 919.864 1641.72C913.861 1641.52 908.498 1635.15 903 1633.12C891.492 1628.89 878.717 1634.29 869.281 1620.32C866.003 1615.47 872.276 1607.27 874.353 1603C881.761 1587.77 887.709 1566.13 898 1553M531 1570C531.994 1574.17 535.463 1578.64 534.779 1583C533.038 1594.1 507.309 1629 496.922 1633.18C485.326 1637.84 463.936 1632.45 452 1631C457.116 1643.7 469.665 1654.64 472.328 1669C473.339 1674.45 467.46 1679.89 464.597 1684C456.999 1694.9 446.456 1720.77 432 1722C433.365 1731.89 429.608 1760.44 442 1737L437 1739L440 1729L442 1729C447.042 1741.73 486.552 1724.03 497.538 1732.84C507.341 1740.71 504.206 1765.88 520 1769C501.421 1724.56 562.179 1732.03 586 1726C579.104 1721.68 566.95 1724 559 1724L559 1722C574.365 1721.46 591.008 1717.36 606 1722C605.97 1704.01 584.652 1688.05 585.888 1671.14C586.603 1661.35 601.41 1654.88 604 1645C597.405 1648.88 593.076 1655.41 587 1660C592.142 1653.68 599.47 1646.87 602 1639C563.181 1651.6 544.363 1603.95 544 1574L538 1579C536.565 1574.72 535.669 1571.23 531 1570M548 1607C541.983 1604.84 538.952 1599.75 535 1595C539.658 1610.83 557.217 1621.18 562 1638C549.316 1637.99 519.094 1642.8 508.571 1635.2C504.771 1632.45 510.654 1626.51 512.256 1624C517.839 1615.28 524.2 1597.57 535 1595C534.181 1579.9 546.336 1603.33 548 1607M126 1739C113.493 1730.73 108.061 1712.02 101.407 1699.22C95.4176 1687.7 71.4418 1662.63 73.3309 1649.92C75.7818 1633.44 96.6077 1624.13 109 1618.01C116.795 1614.16 122.733 1604.84 131 1602.5C140.241 1599.89 148.961 1604.74 158 1604.98C176.798 1605.47 195.163 1600.94 213.992 1604.39C226.327 1606.65 237.317 1642.94 241.563 1654C243.968 1660.26 247.029 1670.25 255 1670C242.918 1651.37 237.903 1615.97 220.517 1601.96C207.704 1591.64 183.424 1599.38 169 1599.91C156.612 1600.36 145.321 1596.85 133 1598C134.173 1595.56 134.718 1593.69 135 1591C112.405 1599.23 92.2974 1617.56 76.3028 1635.28C71.8214 1640.24 59.7518 1649.58 63.2077 1657.57C64.6621 1660.93 68.6179 1658.26 71.0661 1659.96C89.2226 1672.59 98.5082 1705.07 108.965 1723.68C111.726 1728.59 119.302 1744.02 126 1739M1144 1727C1158.94 1723.25 1178.21 1699.55 1190 1689.21C1225.06 1658.44 1268.94 1613.48 1317 1605C1310.68 1624.58 1290.18 1669.61 1274 1629C1262.02 1638.04 1291.93 1649.18 1288.57 1657.3C1285.79 1664.03 1269.68 1671.22 1263.94 1676.01C1242.97 1693.52 1222.09 1711.09 1201 1728.49C1194.92 1733.51 1181.62 1748.68 1173.22 1748.38C1161.76 1747.98 1162.61 1725.95 1154 1722C1154.88 1734.75 1169.04 1745.76 1168 1757C1184.62 1752.41 1200.48 1735.46 1213 1724.22C1238.75 1701.11 1281.24 1679.19 1297.18 1650.08C1303.96 1637.7 1312.81 1630.1 1317.93 1616C1319 1613.06 1323.22 1605.01 1320.09 1602.4C1311.47 1595.2 1284.32 1616.34 1276.01 1619.81C1239.21 1635.17 1201.67 1670.49 1172.56 1698.67C1163.63 1707.32 1147.94 1714.7 1144 1727M2089 1601C2077.04 1639.58 2056.31 1674 2026.02 1700.45C2016.93 1708.38 2004.2 1720.96 1992 1723C1992.52 1722 1996.73 1715.67 1994.28 1715.08C1990.48 1714.16 1975.91 1729.12 1972.88 1732.15C1957.77 1747.25 1935.41 1772.78 1915 1780C1920.23 1763.47 1930.39 1748.98 1937 1733L1943 1735C1932.4 1713.48 1923.75 1693.03 1919.77 1669C1918.66 1662.36 1915.69 1649.04 1921 1644C1922.45 1656 1937.03 1661.04 1946 1667.16C1988.99 1696.54 2032.39 1659.04 2061.98 1629C2069.8 1621.06 2078.84 1605.26 2089 1601M118 1605C114.216 1609.95 110.252 1613.1 104 1614C108.106 1609.81 112.393 1606.8 118 1605M1264.5 1614.5C1263.87 1615.13 1264.87 1616.13 1265.5 1615.5C1266.13 1614.87 1265.13 1613.87 1264.5 1614.5M939 1619C941.405 1622.11 942.968 1625.21 944 1629C941.39 1626.07 938.977 1623.03 939 1619M946 1631C951.96 1636.58 957.664 1646.13 960 1654C953.967 1649.92 944.033 1638.83 946 1631M1553 1633C1565.42 1699.68 1648.25 1729.89 1708 1731.02C1722.94 1731.3 1767.36 1732.89 1775.24 1715.51C1776.16 1713.49 1760.16 1707.51 1758 1706.56C1739.24 1698.29 1720.57 1683.22 1701 1678L1704 1683C1665.74 1681.64 1623.96 1682.51 1589 1664.41C1574.67 1656.98 1566.57 1639.11 1553 1633M482 1636L482 1638L472 1638L472 1636L482 1636M475 1667C472.465 1657.25 466.309 1649.36 463 1640C469.218 1640.12 482.803 1640.14 487.431 1644.73C492.075 1649.33 479.535 1664.97 475 1667M501 1642C516.751 1642 551.531 1635.6 564.815 1644.82C569.899 1648.35 577.798 1662.77 575.637 1668.99C572.692 1677.47 563.242 1684.73 557.32 1691.08C543.748 1705.64 527.301 1737.99 502.198 1724.67C495.718 1721.23 492.954 1706.39 489.887 1700C486.265 1692.45 480.756 1682.7 479.024 1674.56C475.84 1659.59 501.727 1653.44 501 1642M593 1644C588.102 1666.03 576.513 1661.65 571 1644C578.259 1644 585.826 1645.02 593 1644M77.3333 1651.67C77.2778 1651.72 77.2222 1652.78 77.6667 1652.33C77.7223 1652.28 77.7777 1651.22 77.3333 1651.67M69 1654L69 1656L66 1656L66 1654L69 1654M851 1654L848 1665C847.053 1660.9 848.695 1657.38 851 1654M1566 1654C1597.21 1676.19 1629.49 1682.77 1667 1686.68C1682.05 1688.25 1702.17 1683.18 1716 1690.3C1728.89 1696.95 1740.34 1704.29 1754 1709.44C1756.57 1710.41 1766.03 1712.82 1764.89 1716.85C1762.41 1725.7 1721.27 1728.78 1713 1727.79C1672.86 1722.95 1611.88 1717.29 1585.75 1681.23C1580.51 1674 1563.89 1663.93 1566 1654M257 1674C240.454 1693.99 228.878 1740.98 205 1751.18C185.257 1759.61 160.184 1753 140 1749.64C132.681 1748.42 119.653 1746.78 116 1755C146.662 1753.91 192.748 1771.37 218.259 1748.29C227.961 1739.51 234.274 1719.65 240.352 1708C244.867 1699.35 259.224 1684.32 257 1674M538 1723C544.37 1712.51 567.707 1678.94 580.032 1677.32C584.77 1676.7 601.766 1709.8 599.419 1714.18C597.551 1717.66 587.283 1716 584 1716C567.897 1716 553.681 1722.7 538 1723M477 1677C482.769 1693.51 491.05 1709.24 496 1726C481.154 1725.94 466.543 1722.19 452 1722C456.808 1709.76 465.849 1684.19 477 1677M457 1704C454.901 1709.73 451.808 1719.42 446 1722C447.106 1715.04 451.842 1708.65 457 1704M313 1705L315 1708L315 1705L313 1705M446 1723C445.684 1726.11 444.896 1726.84 442 1728C442.912 1725.39 443.683 1724.51 446 1723M437 1725L436 1726L437 1725M462 1726C455.213 1734.98 442.767 1724.21 462 1726M512 1752C508.575 1749.77 499.323 1733.87 505.425 1731.5C507.948 1730.52 522.315 1729.54 522.36 1733.5C522.415 1738.35 514.279 1747.31 512 1752M408.5 1802.5C407.873 1803.13 408.873 1804.13 409.5 1803.5C410.127 1802.87 409.127 1801.87 408.5 1802.5M229 1869C229.578 1871.7 230.261 1871.79 233 1872C231.723 1870.1 231.177 1869.74 229 1869M1250 1997C1242.98 2008.78 1231.89 2019.58 1225.74 2031.25C1222.44 2037.5 1222.52 2044.86 1218.6 2051C1216.33 2054.55 1210.92 2066.35 1205.69 2065.7C1198.38 2064.78 1195.16 2038.71 1193.7 2033C1193.23 2031.16 1192.11 2021.76 1188.68 2023.1C1184.86 2024.6 1189.18 2033.57 1189.7 2036.02C1191.46 2044.27 1202.82 2069.67 1200.9 2075.92C1198.03 2085.31 1185.02 2099.02 1178.02 2105.68C1176.12 2107.48 1168.4 2113.1 1169.75 2116.31C1172.07 2121.82 1205.17 2120 1211 2120C1249.29 2120 1284.75 2112.19 1322 2107.86C1337.05 2106.11 1362.52 2094.19 1335 2089C1338.78 2104.64 1312.21 2103.97 1299 2107.64C1282 2112.36 1265.62 2109.4 1249 2110.61C1223.73 2112.43 1201.06 2118.61 1175 2114C1182.73 2105.97 1189.97 2098.21 1197.34 2089.7C1198.92 2087.89 1202.17 2080.57 1205.06 2081.08C1216.36 2083.1 1221.14 2107.07 1236 2109C1233.66 2099.81 1255.88 2081.07 1261.08 2070C1277.29 2035.53 1266.37 1993.2 1283.34 1959C1287.34 1950.94 1295.14 1938.03 1302.7 1933C1305.38 1931.21 1317.31 1935.27 1317.24 1929.99C1317.14 1923.08 1293.76 1920.96 1289.82 1917.74C1286.89 1915.34 1289.52 1902.64 1284.91 1902.64C1280.31 1902.64 1284.46 1914.94 1280.82 1917.3C1274.04 1921.68 1238.61 1920.03 1231.25 1916.86C1218.22 1911.25 1239.71 1883.74 1233.76 1876.79C1230.59 1873.08 1228.05 1882.32 1227.63 1884C1225.9 1890.76 1227.65 1911.53 1221.5 1915.26C1216.85 1918.08 1199.59 1913.77 1197.76 1918.65C1194.88 1926.32 1220.03 1921.68 1221.62 1926.29C1227.93 1944.58 1204.74 2012.71 1250 1997M1551 2030C1546.54 2022.87 1549.03 2012.07 1549.91 2004C1552.43 1980.8 1557.24 1957.59 1563.15 1935C1565.62 1925.55 1571.26 1903.94 1561.68 1896.94C1549.71 1888.21 1538.66 1912.49 1534.67 1920C1521.77 1944.26 1516.17 1975.16 1511.07 2002C1509.35 2011.03 1502.47 2022.15 1509 2030C1522.33 1999 1522.86 1961.15 1535.27 1929C1538.15 1921.55 1546.91 1899.68 1556.93 1900.09C1566.22 1900.46 1560.89 1923.74 1559.88 1929C1554.77 1955.5 1547.15 1981.05 1544.32 2008C1543.76 2013.31 1540.99 2032.96 1549.1 2033.27C1559.91 2033.69 1557.98 2008.73 1559.59 2001C1565.39 1973.17 1573.09 1947.26 1583.98 1921C1586.43 1915.08 1591.79 1897.23 1599.1 1896.44C1612.87 1894.96 1617.87 1907.84 1616.42 1919C1613.05 1944.79 1605.83 1972.24 1605.01 1998C1604.78 2005.19 1600.24 2025.37 1611.17 2027.39C1623.49 2029.68 1630.64 2010.52 1634.66 2002C1644.25 1981.68 1648.69 1953.82 1654.51 1931.96C1656.68 1923.78 1661.1 1908.13 1670.91 1905.76C1679.1 1903.79 1672.93 1930.37 1672.2 1934C1667.69 1956.69 1660.98 1980.82 1661 2004C1661.01 2011.57 1660.28 2023.81 1666.51 2029.31C1686.5 2046.98 1715.72 2015.39 1735.08 2017.75C1748.52 2019.38 1754.11 2038.99 1755.64 2050C1759.28 2076.26 1737.33 2092.16 1720.04 2107.45C1698.93 2126.11 1667.49 2143.35 1638 2137.56C1620.3 2134.08 1602.45 2122.72 1586 2116.05C1563.69 2107.01 1541.76 2104.02 1531 2080C1546.85 2081.48 1561.62 2077.33 1577 2078.2C1593.43 2079.12 1606.52 2085.56 1624 2084.96C1633.03 2084.65 1644.26 2084.55 1653 2083.3C1657.24 2082.69 1661.34 2077.36 1665.67 2078.29C1673.87 2080.05 1654.21 2101.77 1674 2102.78C1685.72 2103.37 1686.45 2087.66 1687 2079L1690 2079C1688.99 2112.7 1716.11 2057.53 1694 2088C1692.6 2052.98 1679.75 2103.14 1669.61 2097.17C1663.82 2093.77 1681.86 2061.25 1672.97 2053.41C1672.24 2052.77 1667.35 2070.22 1663.87 2072.58C1651.63 2080.88 1630.71 2079.95 1616 2080C1592.76 2080.07 1572.81 2075.74 1549 2076.92C1544.1 2077.17 1530.19 2073.28 1527.93 2079.28C1525.71 2085.17 1534.4 2096.72 1538.36 2100.46C1550.14 2111.6 1585.37 2124.54 1601 2128.26C1616.25 2131.89 1630.13 2142.08 1646 2142.92C1687.56 2145.12 1743.63 2108.39 1759.18 2070C1766.09 2052.95 1757.99 2026.87 1743.68 2016.01C1723.69 2000.85 1692.61 2040.22 1669.42 2025.72C1663.47 2022 1666 2007.94 1666 2002C1666 1977.61 1672.84 1951.86 1677.78 1928C1679.03 1921.92 1682.69 1898.22 1671.03 1899.89C1661.27 1901.29 1655.24 1916.07 1652.51 1924C1644.67 1946.78 1641.48 1971.98 1633.29 1994C1630.92 2000.37 1621.48 2023.62 1612.46 2021.71C1605.52 2020.24 1609.47 1996.85 1610.22 1992C1613.66 1969.74 1631.05 1920.36 1618.64 1900.24C1604.22 1876.85 1587.17 1900.93 1581.44 1915C1566.77 1951.04 1551.75 1990.42 1551 2030M874 1976C869.038 1965.39 870.791 1948.81 868.775 1937C866.378 1922.96 843.874 1902.49 832.241 1920.06C821.123 1936.86 824.354 1958.16 821.602 1977C820.995 1981.15 822.95 1989.84 820.604 1993.18C817.533 1997.55 803.81 1994.61 799 1995.3C784.603 1997.34 775.494 2006.29 771.481 2020C763.2 2048.3 787.367 2087.25 812 2100.05C820.668 2104.55 830.692 2101.61 839 2105.7C862.486 2117.26 882.84 2130.15 909.922 2124.44C942.892 2117.49 972.902 2105.85 984.574 2071C988.373 2059.65 989.037 2046.83 989.864 2035C990.134 2031.13 988.427 2023.03 991.822 2020.26C995.748 2017.05 1006.19 2019 1011 2019C1032.89 2019.02 1052.34 2030.53 1073 2032C1062.89 2016.87 1029.53 2014.92 1013 2014.08C1006.75 2013.76 995.609 2016.29 990.421 2012.18C982.475 2005.88 976.849 1980.77 973.57 1971C963.489 1940.96 951.184 1925.46 923 1912.27C916.701 1909.32 903.294 1901.2 896.476 1905.39C887.03 1911.19 883.481 1929.16 880.605 1939C877.05 1951.16 876.858 1963.76 874 1976M899.304 1909.96C906.032 1907.48 917.062 1914.24 923 1916.93C950.052 1929.17 963.686 1949.28 971.737 1978C973.173 1983.12 987.252 2009.31 980.63 2012.08C972.992 2015.27 959.618 2003.37 952.864 2000.68C937.594 1994.59 915.357 1994.35 899.178 1993.04C893.061 1992.54 881.913 2001.64 876.279 1995.74C873.272 1992.59 877.406 1977.95 878.481 1974C882.373 1959.7 882.401 1916.18 899.304 1909.96M1231.5 1912.5C1230.87 1913.13 1231.87 1914.13 1232.5 1913.5C1233.13 1912.87 1232.13 1911.87 1231.5 1912.5M842.003 1918.49C868.518 1913.07 867.153 1959.74 868.199 1975C868.552 1980.15 871.165 1995.18 864.852 1996.73C857.353 1998.58 831.454 2002.47 826.52 1994.4C823.88 1990.08 826.058 1979.86 826.555 1975C827.913 1961.73 823.74 1922.22 842.003 1918.49M1228.5 1924.82C1234.31 1921.7 1274.87 1924.6 1276.68 1931.58C1277.75 1935.7 1273.11 1943.12 1271.75 1947C1267.03 1960.43 1262.47 1984.89 1249.03 1992.39C1221 2008.04 1224.14 1958.26 1225.14 1944C1225.44 1939.72 1224.3 1927.08 1228.5 1924.82M1299 1927C1296.24 1935.21 1288.24 1943.05 1283 1950C1281.91 1944.23 1284.59 1938.07 1284 1932C1289.94 1931.85 1293.77 1929.52 1299 1927M448 1961C455.213 1966.08 469.868 1962.63 478 1960.56C494.548 1956.35 517.048 1951.13 534.001 1951C538.729 1950.97 557.445 1950.95 559.858 1954.39C562.814 1958.59 561 1968.07 561 1973C561 1988.97 561.671 2005.09 560.339 2021C559.047 2036.43 559.538 2050.54 560.399 2066C560.769 2072.65 564.021 2084.64 561.445 2090.8C558.463 2097.92 544.238 2097.56 538 2098.85C515.653 2103.48 499.314 2102.02 476 2102.02C469.043 2102.02 456.44 2107.31 450.371 2103.74C441.51 2098.52 443 2084.59 443 2076C443 2049.79 446.733 2024.1 448.078 1998C448.495 1989.9 453.252 1970.13 444 1966C444.305 1999.02 439.655 2031.85 438.981 2065C438.692 2079.24 435.583 2094.19 446.197 2105.63C453.686 2113.71 469.489 2106.27 479 2107.35C501.042 2109.84 518.743 2108.81 540.078 2104.21C547.581 2102.59 561.172 2101.21 565.381 2093.81C569.312 2086.9 566 2073.82 566 2066C589.28 2079.93 626.389 2057.97 634.036 2033.91C638.987 2018.35 629.627 1996.72 617.879 1986.38C611.316 1980.61 601.151 1981.78 593 1980.18C581.838 1977.99 575.751 1977.18 565 1981C565.359 1970.86 572.166 1940.58 564.168 1932.97C561.171 1930.12 562.06 1947.48 554.989 1947.73C520.542 1948.97 482.841 1951.86 448 1961M63 2063C91.3085 2062.17 88.5576 2090.61 97 2107C93.5609 2107.44 91.9559 2108.11 90 2111C99.3523 2111.7 98.492 2114.14 94 2120C115.658 2120 158.903 2118.09 158 2149C162.511 2148.32 177.149 2148.66 179.817 2145.18C186.007 2137.09 182.299 2125.17 196.008 2121.17C204.532 2118.68 231.051 2123.86 236.031 2114.33C237.635 2111.26 230.863 2110.56 230.57 2107.71C230.04 2102.55 230.393 2086.57 232.869 2082C243.594 2062.21 259.284 2062.63 260 2043C250.267 2047.51 236.737 2028.67 232.004 2021C225.038 2009.71 234.108 1993.49 226.84 1982.9C220.006 1972.95 208.245 1979.86 199.043 1976.06C191.56 1972.97 170.579 1941.78 172 1934C158.756 1936.35 145.274 1964.39 134.68 1973.41C124.846 1981.79 109.692 1970.46 100.762 1978.02C87.6787 1989.1 96.6743 2007.37 91.3959 2021.18C85.2976 2037.13 68.6922 2045.99 63 2063M1279 1942C1278.74 1955.44 1275.79 1970.91 1264 1979C1265.85 1968.68 1272.22 1950.01 1279 1942M2027 1943C2001.39 1975.69 1986.3 2016.42 1969.33 2054C1967.61 2057.81 1953 2088.23 1949.2 2084.89C1944.43 2080.72 1947.94 2060.1 1947.79 2054C1947.11 2026.7 1945.49 1998.14 1942.44 1971C1941.44 1962.1 1944.1 1949.07 1935 1944C1932.52 1954.59 1936.29 1968.08 1936.7 1979C1937.45 1998.6 1935.46 2019.89 1931 2039C1925.3 2016.49 1932.53 1990.95 1928.1 1968C1927.3 1963.86 1929.44 1948.76 1924.8 1947.11C1922.09 1946.14 1920.04 1973.39 1919.55 1977C1915.12 2008.99 1912.02 2041.69 1912 2074C1906.89 2068.08 1909 2057.41 1909 2050C1909 2030.98 1907.88 2011.98 1906.92 1993C1906.71 1988.72 1907.66 1968.38 1903.46 1966.76C1898.22 1964.75 1897.39 1990.75 1897.13 1994C1895.28 2016.85 1889.02 2039.17 1887.13 2062C1886.59 2068.55 1887.1 2083.79 1882 2088C1885.2 2060.66 1880.95 2032.34 1884.58 2005C1885.63 1997.08 1887.93 1979.33 1881 1974C1874.92 1998.01 1878.78 2024.6 1868 2048C1879.2 2046.76 1875.01 2021.86 1881 2014C1877.99 2046.37 1875.32 2082.89 1881 2115C1889.87 2109.58 1886.23 2092.25 1887.57 2083C1892.11 2051.7 1898.89 2020.35 1902 1989L1904 1989C1904 2029.37 1906.81 2069.32 1910 2109C1918.75 2105.55 1916.09 2082.46 1916.21 2074C1916.7 2038.88 1920.74 2004 1924 1969C1932.13 1990.09 1930.57 2033.31 1928.87 2056C1928.38 2062.67 1924.29 2087 1929.14 2091.89C1934.04 2096.84 1934.99 2077.7 1935.05 2075.97C1935.83 2054.77 1938 2033.34 1938 2012L1941 2012C1941.75 2033.05 1943 2053.87 1943 2075C1943 2079.81 1940.48 2095.12 1948 2093L1946 2102C1955.72 2098.01 1961.9 2078.08 1966.29 2068.92C1980.6 2039.1 1993.63 2008.41 2008.76 1979C2012.79 1971.18 2031.56 1951.16 2027 1943M173 1946C172.227 1947.18 172.175 1947.23 171 1948C171.545 1946.36 171.365 1946.55 173 1946M2023 2063C2021.09 2035.78 2029.67 2005.33 2032.04 1978C2032.38 1974 2037.24 1953.63 2032.59 1951.76C2029.83 1950.66 2027.42 1979.92 2027.14 1984C2024.89 2016.06 2011.05 2057.58 2019 2089C2028.01 2081.57 2025.14 2070.15 2027.97 2060C2033.65 2039.6 2039.24 2019.22 2045.64 1999C2047.94 1991.73 2048.14 1981.96 2053 1976C2053 2003.25 2051.77 2029.96 2050.09 2057C2049.87 2060.51 2046.15 2084.22 2050.78 2081.59C2055.58 2078.87 2054.89 2064.16 2056.08 2059C2060.14 2041.46 2062.22 2006.14 2074 1993C2073.97 2014.6 2066.13 2035.45 2066.01 2057C2065.98 2062.23 2065.33 2076.08 2071.41 2078.46C2079.47 2081.6 2083.87 2060.68 2085.4 2056C2093.38 2031.55 2101.26 1998.64 2102 1973C2106.63 1978.92 2103.64 1989.92 2103.14 1997C2101.9 2014.4 2101 2031.53 2101 2049C2101 2054.63 2099.28 2063.95 2102.94 2068.69C2111.91 2080.33 2114.1 2048.73 2114.57 2045C2118.69 2012.29 2127.92 1981.01 2131 1948C2123.01 1952.61 2124.84 1968.09 2123.39 1976C2119.69 1996.3 2112.73 2016.38 2111.06 2037C2110.41 2044.92 2111.2 2060.63 2105 2066C2105 2038.13 2104.34 2009.74 2106.78 1982C2107.1 1978.33 2109.12 1954.28 2102.92 1959.91C2098.02 1964.37 2097.96 1977.8 2096.5 1984C2092.09 2002.78 2086.85 2022.9 2084.34 2042C2082.98 2052.32 2080.75 2068.22 2071 2074C2070.96 2048.47 2075.99 2023.31 2076 1998C2076 1988.42 2077.66 1976.8 2071 1969C2069.48 1987.07 2066.61 2032.08 2053 2045C2057.39 2012.83 2057 1979.43 2057 1947C2048.4 1952.82 2046.49 1974.29 2044.99 1984C2042.35 2001.17 2034.26 2017.22 2029.93 2034C2027.5 2043.39 2028.39 2054.81 2023 2063M183 1977C168.309 1974.95 159.984 1975.96 145 1977C147.495 1971.32 160.715 1951.27 167.989 1953.54C172.53 1954.96 180.943 1972.31 183 1977M180 1963L180 1966C179.304 1964.45 179.304 1964.55 180 1963M1274 1977C1266.23 2007.59 1271.62 2046.76 1254.42 2074C1249.94 2081.09 1243.98 2095.1 1234.12 2096.12C1229.53 2096.59 1210.95 2078.01 1212.17 2072.92C1215.57 2058.8 1228.69 2048.05 1235.84 2035.98C1247.18 2016.85 1252.53 1989.73 1274 1977M565 2017C565 2009.17 561.646 1990.76 567.744 1984.9C573.282 1979.57 582.677 1982.94 589 1984.29C606.423 1988.02 618.017 1985.59 625.997 2005C638.124 2034.5 601.39 2083.67 568.284 2063.29C564.031 2060.67 563.726 2051.38 566.26 2047.44C572.095 2038.37 586.803 2037.5 593.1 2027.67C605.828 2007.8 572.226 2014.17 565 2017M124 1986C119.066 1995.43 109.472 2004.67 101 2011C97.8007 1990.99 106.369 1987.06 124 1986M141.003 1986.78C173.731 1983.04 203.516 1984.18 217.999 2018.44C227.026 2039.79 221.078 2079.54 206.001 2095C201.627 2099.48 197.653 2106.82 190.992 2107.79C161.755 2112.06 141.179 2107.43 120.038 2088.83C115.137 2084.52 106.496 2080.12 103.94 2073.95C93.6886 2049.22 106.815 2022.02 121.753 2004C126.638 1998.1 132.653 1987.73 141.003 1986.78M219 2002C213.974 1999.11 210.892 1995.48 209 1990C217.949 1989.48 217.676 1994.55 219 2002M823 2000C818.801 2012.09 819.203 2031.15 824 2043C828.369 2030.38 826.735 2013.09 825 2000C833.298 2001.43 841.34 2004.81 850 2003.41C854.19 2002.73 864.476 1998.7 868.178 2001.35C871.44 2003.68 868.645 2027.04 874.051 2025.92C880.401 2024.6 871.271 2005.36 876.833 2001.4C882.457 1997.39 900.225 1998.35 907 1999.18C931.936 2002.23 962.208 2003.49 983.396 2018.39C990.968 2023.72 983.961 2055.26 981.802 2063C971.243 2100.81 927.722 2127.71 888 2122.21C869.447 2119.64 854.941 2106.64 838.783 2099.82C832.378 2097.12 823.881 2099.31 817 2097.33C805.222 2093.96 794.571 2081.48 788.113 2071.56C765.799 2037.3 773.202 1989.42 823 2000M586 2018C583.179 2028.4 573.82 2036.18 564 2040C566.873 2023.77 567.225 2018.07 586 2018M589 2021C589.648 2023.81 589.161 2025.11 587 2027C587.497 2024.84 588.042 2022.99 589 2021M230 2066C230 2060.63 226.883 2038.76 231.23 2035.39C234.958 2032.5 246.449 2047.34 246.717 2050.78C247.134 2056.13 234.157 2063.69 230 2066M92 2062C86.8259 2061.32 83.8556 2058.2 81 2054C94.7694 2041.87 88.6101 2046.17 92 2062M80 2050C78.2918 2053.68 76.7995 2056.36 73 2058C73.9897 2053.66 75.299 2050.52 80 2050M80 2058C81.1915 2059.99 82.1396 2061.85 83 2064C80.6404 2062.88 78.9279 2061.76 77 2060C78.1863 2058.81 78.5838 2058.47 80 2058M88 2066C89.1952 2067.99 90.1345 2069.85 91 2072C88.2512 2070.31 86.8767 2069.2 88 2066M2023 2067C2022.78 2069.74 2022.39 2071.63 2021 2074C2020.5 2071.41 2020.53 2069.6 2021 2067L2023 2067M1208 2070.33C1208.77 2070.33 1208.16 2070.83 1207.67 2070.67L1208 2070.33M1911 2079C1912.54 2081.73 1912.41 2082.97 1910 2085C1910.09 2082.8 1910.28 2081.06 1911 2079M109 2085.33C109.773 2085.33 109.16 2085.83 108.667 2085.67L109 2085.33M1948 2087C1947.85 2089.24 1947.74 2089.61 1946 2091C1946.56 2089.25 1946.92 2088.46 1948 2087M116 2091C117.416 2091.47 117.814 2091.81 119 2093C116.998 2093.73 115.895 2093.22 116 2091M123 2107C118.119 2107 109.882 2108.58 105.509 2106.18C102.853 2104.72 101.687 2094.33 104.84 2093.03C110.129 2090.84 120.467 2103.23 123 2107M1224 2093C1225.19 2094.19 1225.53 2094.58 1226 2096C1224.01 2095.15 1223.3 2094.99 1224 2093M220 2094C220.088 2110.01 221.536 2109.07 205 2109C209.093 2103.52 214.066 2097.48 220 2094M122 2116C95.5813 2119.5 113.934 2106.23 122 2116M131 2116L131 2118L128 2119C127.784 2117.32 127.784 2116.68 128 2115L131 2116M151 2120C156.615 2120.89 175.071 2116.64 178.469 2121.77C181.258 2125.99 171.066 2130.64 168.136 2130.96C163.033 2131.53 153.559 2124.08 151 2120M159 2135C161.041 2137.27 162.132 2139.07 163 2142C160.077 2140.15 158.552 2138.55 159 2135z"/>
</svg>
