<?xml version="1.0" standalone="yes"?>
<svg xmlns="http://www.w3.org/2000/svg" width="2200" height="2200">
<path style="fill:#0e0e0e; stroke:none;" d="M986 102C990.365 102.664 994.862 103.448 998.68 105.791C999.702 106.418 1015.66 113.167 1012.46 107.843C1004.11 93.9819 962.525 101.559 975 79C971.287 80.3059 968.868 82.3171 966 85C966.571 65.2502 979.708 36.8892 997.003 26.637C1011.98 17.7607 1025.33 44.3457 1025.92 56C1026.44 66.2021 1025.51 78.5564 1018.84 86.7646C1014.48 92.1343 1008.48 92.8865 1006 100C1039.26 89.2695 1040.02 31.5437 1006 19.9087C986.983 13.4055 970.205 51.9214 965.923 65C964.376 69.7261 964.594 77.7322 960.734 81.2383C957.07 84.5669 943.836 80.4741 939 80.1362C919.973 78.8066 901.764 77.6589 883 82.1506C876.802 83.6343 865.276 91.9475 859.263 89.9934C852.539 87.8083 847.164 69.1177 843.07 63.3201C837.558 55.5142 816.48 29.3523 805.203 39.3762C793.915 49.4109 793.825 79.9077 793.079 94C792.853 98.2595 791.37 107.461 793.822 111.139C796.633 115.357 818.483 110.61 818.474 116.443C818.464 123.32 810.619 131.522 808.285 138C803.904 150.161 803.435 164.187 803.435 177C803.435 191.316 805.948 208.336 812.986 221C816.998 228.219 824.968 232.993 827.434 241.001C829.729 248.455 828.266 280.325 836.421 282.78C843.635 284.952 857.104 281.962 865 282.003C902.658 282.198 942.021 272.623 967.958 242.024C972.696 236.434 968.339 227.299 972.685 221.008C978.604 212.44 987.916 207.259 993.543 198C1012.53 166.758 1006.52 131.029 986 102M531 281C538.242 277.566 538.151 266.806 540.329 260C544.884 245.764 552.101 211.108 566.25 203.098C573.046 199.251 573.086 226.287 572.959 230C571.945 259.678 543.98 262.531 534 286C552.08 281.463 575.663 255.783 577.763 237C579.129 224.783 574.68 210.616 578 199C566.468 192.574 584.824 169.557 588.01 160.019C599.421 125.858 615.737 94.3152 617.626 58C617.933 52.0793 627.158 36.0408 623.577 31.0278C621.21 27.7153 615.723 42.3833 613.596 43.4021C597.927 50.9065 581.793 57.5718 566.217 68.0554C560.279 72.0525 553.182 70.5696 547 74.2188C531.971 83.0906 516.677 96.49 503.319 107.783C492.421 116.998 485.649 132.069 474.541 140.37C470.178 143.629 457.712 136.202 451 137.419C428.165 141.561 417.487 165.125 416.478 186C416.176 192.231 421.178 220.357 429.822 220.357C435.658 220.357 440.522 188.095 447.612 187.468C453.286 186.967 464.73 198.044 468.783 201.374C483.294 213.297 501.8 224.591 518.078 234.04C523.152 236.986 536.265 241.721 538.424 247.5C541.425 255.533 532.164 272.559 531 281M829 105C828.293 99.6533 825.682 95.6609 821 93C821.969 98.2153 824.861 101.844 828 106C818.595 110.437 817.546 99.5867 813 93C812.849 98.4761 808.181 120.541 798.822 105.198C795.617 99.9446 797.894 87.0532 798.019 81C798.168 73.7397 800.503 45.8198 808.637 43.1196C824.089 37.9907 853.817 77.2671 851.259 90.7397C849.867 98.0737 835.159 102.998 829 105M607.922 48.9106C615.022 48.6682 605.891 89.511 604.599 96C596.603 136.141 568.959 165.514 555.697 203C554.083 207.56 543.895 239.812 541.488 240.159C535.431 241.035 530.709 233.162 525.864 230.909C506.712 222.007 485.299 210.192 470.888 194.724C467.638 191.236 453.309 186.792 454.227 181.368C456.505 167.903 469.31 156.092 477.276 146.002C504.031 112.112 531.254 93.252 568 72.9329C578.465 67.1462 596.011 49.3174 607.922 48.9106M1170 73C1166.27 91.0486 1188.95 108.457 1186.05 127C1182.86 147.374 1162.2 168.766 1156.25 190C1150.98 208.833 1160.13 229.386 1155.02 247C1152.39 256.061 1132.16 282.416 1137.42 291.27C1142.58 299.971 1168.37 277.698 1172.98 274.141C1187.99 262.57 1229.83 269.697 1250 267.327C1257.01 266.504 1268.6 264.25 1275 267.521C1286.46 273.376 1306.02 299.319 1320.67 293.622C1322.86 292.771 1325.98 290.278 1325.71 287.646C1325.13 282.199 1319.25 277.803 1318.32 272C1317.41 266.359 1320.92 234.546 1315 258C1309.2 235.067 1322.02 220.63 1329.41 200C1339.19 172.732 1340.26 151.791 1327 126C1331.42 129.601 1334.65 134.881 1340 137C1338.23 113.846 1345.42 84.9858 1351 63C1335.52 67.98 1324.26 92.2346 1308 94.521C1295.29 96.3079 1276.01 74.6821 1263 71L1264 76C1261.64 75.4797 1259.41 75.1572 1257 75C1256.94 68.5259 1248.86 71.1714 1245 73.3569C1238.64 76.9583 1227.61 91.3838 1219.99 89.7571C1206.9 86.9622 1193.5 72.4709 1182 65.7676C1178.99 64.0127 1171.41 58.188 1167.85 61.033C1162.29 65.4858 1176.01 68.2732 1178 69.478C1186.86 74.8521 1211.45 84.9114 1215.49 94.5942C1216.33 96.606 1193.05 121.308 1190.24 118.997C1179.83 110.437 1179.78 84.3787 1170 73M1340 77C1340 94.2332 1339.66 110.905 1338 128C1329.1 124.202 1315.62 107.392 1311 99C1320.39 92.0728 1328.76 80.7646 1340 77M1294 245C1296.4 238.254 1311.81 227.663 1309.8 220.003C1309.27 217.982 1300.67 228.126 1299.86 229C1289.79 239.888 1278.79 252.864 1265 259.139C1250.18 265.881 1228.05 265.085 1212 264.997C1205.46 264.962 1195 265.774 1196 257C1182.45 261.681 1171.46 239.214 1164 230C1163.19 232.087 1162.47 233.314 1161 235C1145.93 202.801 1172.82 160.652 1188 134C1189.57 136.887 1191.26 138.544 1194.13 135.693C1202.61 127.269 1208.09 116.673 1217.2 108.644C1223.26 103.291 1233.73 100.625 1238 95C1234.36 94.7651 1232.06 93.9846 1229 92L1239 83C1250.17 89.8555 1269.87 76.1135 1284.68 85.9438C1329.98 116.017 1341.25 160.122 1320.57 208C1314.82 221.32 1306.97 237.288 1294 245M1243 81.3333C1243.89 81.3333 1243.89 82.6667 1243 82.6667C1242.11 82.6667 1242.11 81.3333 1243 81.3333M145 118C125.836 118.857 114.349 126.89 97.4359 118.461C94.5541 117.025 93.0137 119.883 92 122C86.1011 120.42 81.3025 125.161 75 125C78.1342 127.707 80.9351 127.94 85 128C80.6362 152.426 106.095 178.779 97 201C102.446 203.003 104.8 206.16 111 206L111 209C109.834 209.087 102.247 211.745 106.803 213.268C110.154 214.389 114.78 205.76 118.086 204.526C126.425 201.415 146.788 197.478 155.52 198.716C159.293 199.251 158.45 210.989 159.794 213.959C164.251 223.802 175.09 227.586 185 225.177C206.135 220.04 206.612 199.055 221.346 190.685C232.564 184.311 278.857 191.225 267 172L272 170C261.519 161.027 261.648 129.608 265.124 117.243C266.643 111.841 273.932 113.665 274 107C262.622 111.057 235.621 116.709 224.404 110.604C219.81 108.103 218.93 100.12 216.16 96C208.338 84.3655 199.415 81.8547 186 83.3228C168.338 85.2556 131.445 94.7566 145 118M970 215C969.909 158.82 874.602 171.887 841 183C850.606 162.681 880.323 159.271 886.276 137C891.806 116.314 861.611 101.891 847.354 116.346C837.796 126.037 835.191 161.313 853 163C837.949 184.357 822.615 200.943 826 230C820.34 226.764 822.04 223.253 820 218L819 222C801.201 202.808 803.051 138.736 822.637 120.642C827.488 116.16 837.212 116.901 843 113.2C849.572 108.997 852.55 100.419 859.162 96.7815C892.059 78.6875 942.631 75.5662 973.484 97.9177C1005.47 121.09 1015.59 197.673 970 215M182 113C183.559 110.368 184.934 107.866 186 105C176.595 112.634 169.386 115.117 157.001 114.825C152.871 114.727 142.789 111.98 146.085 106.028C155.821 88.449 186.038 87.0464 201.997 93.1289C206.556 94.8662 220.23 105.703 213.17 111.499C207.85 115.866 188.955 112.868 182 113M1599 174C1590.09 185.629 1590.05 204.094 1592 218C1602.12 212.224 1607.03 201.114 1616 194C1616.83 207.839 1616.01 221.186 1616 235C1595.03 224.693 1576.73 219 1553 219C1563.85 243.463 1594.45 245.781 1612.68 261.239C1620.97 268.274 1609.62 300.917 1620.34 303.894C1624.77 305.124 1621.97 281.107 1622.35 277C1625.04 248.052 1619.9 218.843 1622 190C1632.42 211.406 1628.11 250.534 1626.92 274C1626.34 285.448 1624.34 303.702 1634 312C1636.72 297.228 1623.74 275.725 1632.5 261.257C1640.32 248.344 1666.06 248.455 1676.65 236.821C1681.99 230.964 1686.93 217.434 1679 212C1678.92 232.37 1666.95 238.638 1650 246.72C1646.65 248.317 1636.39 254.135 1632.86 251.664C1627.58 247.96 1633.88 236.137 1637.06 233.335C1650.02 221.889 1660.48 214.486 1678 212C1674.47 199.557 1645.7 219.176 1641 223.259C1639.22 224.802 1634.56 230.862 1631.74 229.44C1630.43 228.782 1628.82 208.079 1629.95 206.495C1633.01 202.211 1648.33 208.13 1653.78 203.389C1658.24 199.517 1652.37 185.539 1652 180C1661.12 184.833 1694.94 169.045 1687.62 156.465C1683.29 149.016 1659.46 148.773 1658.08 140.782C1657.55 137.682 1666.71 133.177 1668.62 130.949C1678.08 119.935 1677.8 86.21 1658.02 100.576L1648 108C1647.81 99.8074 1641.69 86.3801 1631.04 90.425C1627.24 91.8706 1625.2 98.2253 1621.7 98.7981C1614.51 99.9746 1613.29 89.042 1604 94.668C1598.19 98.1895 1595.11 110.422 1590.32 112.196C1580.08 115.989 1576.35 101.701 1566.56 116.003C1554.34 133.847 1579.83 137.094 1578.48 147.264C1577.54 154.278 1567.16 156.363 1566.32 162.8C1565.55 168.796 1594.19 172.223 1599 174M1619 121C1620.45 114.295 1624.94 93.9016 1634.79 95.3228C1645.72 96.8994 1648.6 117.726 1638.6 122.135C1633.64 124.322 1624.66 120.591 1619 121M1608.96 98.0908C1620.77 95.7192 1618.12 122.867 1608.95 124.293C1593.61 126.68 1595.62 100.77 1608.96 98.0908M850 99C845.428 107.075 838.021 112.166 829 114C834.519 107.333 842.291 102.773 850 99M1663.99 103.289C1680.35 102.434 1666.37 136.233 1654.02 136.133C1633.92 135.969 1651.44 103.945 1663.99 103.289M1213 105L1212 106L1213 105M942.003 111.829C918.509 117.53 910.409 171.199 938 165.337C953.446 162.055 963.61 153.564 961.763 137C960.781 128.193 953.734 108.982 942.003 111.829M1597 147C1587.03 144.726 1549.74 124.61 1575.46 114.104C1592.18 107.274 1597.5 137.614 1597 147M943.974 116.009C955.319 115.651 958.286 139.094 956.637 146.999C954.627 156.64 942.575 159.42 934.01 159.678C917.219 160.185 926.236 116.569 943.974 116.009M255 116C250.638 133.936 225.542 152.093 213.644 166.007C209.471 170.889 204.742 179.89 198.874 182.61C195.587 184.133 167.84 189.897 166.761 187.178C165.258 183.389 177.947 174.278 180.438 171.861C192.612 160.044 210.702 141.954 215 125C185.697 147.233 179.643 187.05 138 192.32C133.693 192.865 110.989 199.139 108.969 195.162C104.842 187.038 129.62 169.398 134.465 164.018C144.409 152.977 157.621 132.062 171.04 125.862C185.043 119.392 206.213 125.367 220.823 124.475C231.451 123.827 244.201 118.083 255 116M853 131C839.622 113.192 872.849 111.106 879.958 122.107C889.784 137.313 863.799 167.767 848.803 156.74C842.048 151.772 842.08 129.793 853 131M166 118C164.25 118.642 162.873 118.859 161 119C162.75 118.358 164.128 118.141 166 118M147 119L146 120L147 119M1598 123C1607.38 130.042 1595.54 132.006 1598 123M165 124C155.713 141.493 136.885 157.115 123 171C119.888 174.113 112.32 184.877 107.347 184.214C103.765 183.738 103.647 175.612 103.324 173.001C102.388 165.411 91.2479 139.165 98.039 133.338C100.534 131.197 110.403 132.17 114 131.416C130.956 127.858 148.167 127.393 165 124M1611 165C1592.86 168.302 1601.39 136.625 1609.1 129.751C1616.32 123.314 1638.2 125.409 1645.08 135.118C1647.92 139.119 1642.87 141.55 1644.54 144.324C1648.98 151.678 1660.45 154.918 1652.35 167.713C1647.05 176.094 1635.06 170.51 1628 169.989C1616.99 169.176 1606.53 183.796 1611 165M255 126C249.208 142.479 263.736 151.739 260.262 166.517C259.401 170.181 251.044 171.139 248 172.079C234.613 176.21 220.099 181.942 206 182C213.211 166.861 239.416 132.355 255 126M260 126C261.683 129.62 261.933 132.119 261 136C259.807 132.723 259.268 129.426 260 126M1196 126C1194.8 128.057 1193.75 129.38 1192 131C1192.61 128.084 1193.28 127.219 1196 126M89 130C91.8159 133.267 91.9882 135.863 91 140C88.8665 136.832 88.0413 133.741 89 130M256 132C257.816 134.471 257.528 135.301 255 137C255.141 135.127 255.358 133.75 256 132M450.999 141.521C453.336 141.146 464.337 142.209 465.249 144.826C466.347 147.977 460.122 154.422 458.527 157C451.302 168.675 446.492 182.7 438.898 193.841C437.453 195.961 428.959 208.357 427.12 208.357C423.853 208.357 421.276 188.884 421.623 186C423.711 168.655 430.165 144.871 450.999 141.521M1658.59 149.326C1662.04 148.441 1681.14 156.777 1681.57 160.338C1682.35 166.692 1667.09 175.113 1662 176.271C1649.08 179.212 1658.54 149.338 1658.59 149.326M1599 167C1590.45 166.966 1582.45 164.333 1574 164C1581.5 142.614 1594.19 149.978 1599 167M94 151L94 154L92 154L92 151L94 151M266 180C252.002 180.273 238.017 183.731 224 184C232.573 177.839 259.671 168.942 266 180M1603 175C1616.76 190.517 1611.17 196.475 1595 209C1596.05 197.78 1596.39 184.564 1603 175M1633.15 176.546C1646.59 173.817 1656.4 198.702 1646.85 201.29C1629.86 205.898 1620.92 179.03 1633.15 176.546M1624 177L1624 180L1622 180L1622 177L1624 177M866 179.616C890.778 177.926 938.424 173.52 957.911 192.179C970.869 204.588 966.797 224.086 958.524 237C944.202 259.355 918.754 274.318 890.008 276.832C877.868 277.893 865.22 275.936 853 276.003C849.827 276.02 842.674 277.892 840.381 275.138C833.629 267.03 839.146 248.276 839.495 239C840.443 213.83 831.702 181.956 866 179.616M1613.67 179.667C1613.72 179.722 1613.78 180.778 1613.33 180.333C1613.28 180.278 1613.22 179.222 1613.67 179.667M1623 182C1621.61 183.894 1621.35 183.99 1619 184C1620.46 182.919 1621.25 182.564 1623 182M183 192L177 192C179.22 189.511 180.51 189.972 183 192M568 190C567.101 192.124 567.124 192.101 565 193L566 190L568 190M209.851 191.604C217.779 191.154 209.209 202.667 207.384 204.999C200.842 213.364 190.122 221.729 179 221.929C172.487 222.047 156.642 212.276 164.744 204.588C172.718 197.022 199.016 192.22 209.851 191.604M155.667 193.667C155.722 193.722 155.778 194.778 155.333 194.333C155.278 194.278 155.222 193.222 155.667 193.667M166 196L166 199L163 199L163 196L166 196M564 198L563 199L564 198M836 201C835.902 208.159 837.557 228.014 830 231C830.04 220.817 833.039 211.165 833 201L836 201M145 207C149.303 207.407 152.248 206.375 155 203C150.719 202.803 148.064 204.035 145 207M1567.89 224.84C1575.68 219.566 1604.39 232.493 1610.89 237.298C1614.28 239.801 1619.23 249.063 1614.16 252.522C1605.85 258.189 1580.43 241.477 1574.08 236.384C1572.22 234.894 1564.04 227.445 1567.89 224.84M965 234C964.711 238.033 964.063 239.963 960 241C961.284 238.11 962.659 236.128 965 234M834 237L834 243C831.959 241.046 831.805 239.808 832 237L834 237M1165 237L1166 241C1164.34 239.596 1164.25 239.047 1165 237M1277 263C1282.32 257.621 1286.97 257.68 1294 259C1292.73 254.143 1303.53 237.308 1307.82 241.969C1311.35 245.807 1310.71 281.702 1303.79 282.038C1297.15 282.361 1282.52 267.152 1277 263M1180 254C1174.96 252.907 1171.55 249.604 1168 246C1173.58 246.299 1176.75 249.705 1180 254M1291.67 246.667C1291.72 246.722 1291.78 247.778 1291.33 247.333C1291.28 247.278 1291.22 246.222 1291.67 246.667M1141 288C1143.76 280.735 1153.15 251.005 1160.63 248.761C1163.39 247.937 1179.76 261.728 1178.46 264.224C1173.84 273.11 1150.51 286.345 1141 288M1276 257L1275 258L1276 257M1314 277C1317.15 281.365 1320.37 285.846 1322 291C1315.72 289.238 1312 283.426 1314 277M1310 287C1308.36 286.455 1308.54 286.635 1308 285C1309.64 285.545 1309.45 285.365 1310 287M444 813C437.365 816.967 433.402 825.35 425.003 826.481C416.244 827.66 416.987 817.867 417.001 812C417.028 799.996 421.593 776.002 438 777.293C455.794 778.693 458.581 805.732 456.555 818C456.23 819.966 451.657 834.447 456.783 833.574C459.841 833.053 460.144 817.951 460.876 815C465.152 797.748 453.447 773.041 433 773C441.29 764.771 449.701 757.554 460 752C449.911 748.604 442.112 757.824 435.595 764.185C420.497 778.919 402.473 806.148 413.921 828.675C420.567 841.753 444.761 824.168 444 813M500 751C506.337 773.682 496.033 792.24 485.465 812C465.081 850.117 429.476 883.859 425.22 929C423.624 945.926 428.045 997.703 456 990.436C473.451 985.9 485.224 963.531 494.882 950.136C505.362 935.602 516.617 921.677 526.877 907C543.009 883.925 558.458 853.13 579 834C575.83 883.686 543.664 925.273 525.042 970.007C518.977 984.577 509.359 1009.85 527.019 1020.11C538.315 1026.68 555.238 1021.96 567 1019C591.141 1012.92 617.094 1005.53 642 1004C636.018 1012.36 615.644 1013.45 606 1015.96C603.206 1016.69 595.412 1014.63 593.969 1017.8C590.774 1024.82 604.032 1023.95 607 1022.85C622.407 1017.12 636.764 1011.77 652 1005.93C657.313 1003.9 663.185 1007.03 667 1002C664.524 1001.84 658.95 1001.96 658.536 998.539C657.642 991.146 662.808 983.27 661.352 975C658.517 958.9 631.011 917.599 667 921.225C671.095 921.638 675.195 922.63 679 924.201C715.739 939.369 682.448 995.32 677.081 1022C676.04 1027.18 664.219 1059 675.938 1059C675.841 1059 682.255 1024.23 683.445 1019C690.188 989.347 723.418 931.363 678 917.383C667.872 914.266 648.44 911.401 643.608 924.041C634.585 947.64 665.05 968.906 653.802 992.921C648.628 1003.97 634.225 1001.1 624 1002.57C599.476 1006.11 575.517 1014.04 551 1017.06C541.517 1018.22 529.904 1019.35 523.94 1009.95C514.306 994.769 532.189 965.339 539.197 952C560.916 910.662 584.096 867.563 585 820C573.903 824.378 564.69 844.453 557.844 854C535.854 884.663 512.689 914.954 491.36 946.019C483.994 956.747 465.822 988.551 450.003 985.423C431.951 981.854 430.988 950.716 431 937C431.045 886.709 471.944 846.64 495.034 805.078C500.215 795.753 519.8 753.693 500 751M647 751C657.79 780.586 609.35 816.621 593.181 837.136C574.803 860.455 598.305 858.279 614 848.222C619.317 844.815 624.801 841.691 630 838.096C638.664 832.105 646.466 824.995 654.99 818.839C664.389 812.051 677.975 833.297 690 818C684.01 816.72 677.778 820.27 672.059 817.393C668.243 815.474 666.73 805.237 662.756 806.501C645.376 812.028 627.474 834.161 610.96 843.632C607.75 845.473 596.656 854.452 592.943 851.555C588.824 848.342 604.297 832.472 606.444 830C621.738 812.391 639.624 795.919 650.605 775C654.383 767.802 659.199 751.905 647 751M941 900C935.138 917.395 917.506 928.545 902 936.293C892.794 940.893 881.196 941.448 878.845 928.007C874.678 904.18 894.599 861.671 902.274 839C903.183 836.317 908.164 812.139 902.217 813.323C899.284 813.907 897.021 832.459 894 836C890.309 823.616 882.023 812.076 872.997 803C865.319 795.278 854.315 779.945 843 777.703C833.379 775.797 818.489 791.445 811 796.439C792.957 808.471 772.714 829.855 768.438 852C762.993 880.21 778.293 920.354 811 920.882C823.894 921.09 833.185 912.827 844 907.271C859.25 899.438 870.961 890.038 884 879C878.375 896.136 862.874 933.451 883.22 945.818C891.331 950.748 898.092 944.557 905 940.808C922.491 931.314 936.025 919.58 948.628 904C968.859 878.989 968.414 845.323 975.983 816C981.77 793.581 996.389 770.155 1009 751C998.335 751.375 992.345 768.426 987.97 777C972.909 806.515 970.946 835.09 961.29 866C958.969 873.432 950.168 900.844 941 900M1028 751C1086.2 788.389 1054.59 861.642 1008.86 894.038C996.512 902.789 983.627 911.491 971 919.885C966.13 923.122 956.857 926.834 955.146 932.992C953.313 939.587 963.992 939.582 968 939.864C976.446 940.457 1015.77 938.136 1013.88 953.019C1010.9 976.34 980.481 999.075 964.078 1012.8C958.336 1017.61 952.448 1027.18 944.997 1029.06C937.618 1030.92 927.675 1027.09 920 1027.01C872.459 1026.48 796.278 1001.08 824.88 939.242C826.045 936.723 824.356 926.007 820.256 929.969C815.663 934.41 815.484 948.92 814.801 955C809.815 999.361 839.644 1012.79 876 1028.81C892.067 1035.89 912.085 1031.48 929 1033.22C934.8 1033.82 943.056 1038.7 948.664 1036.17C954.664 1033.46 960.352 1023.95 965.155 1019.32C978.583 1006.35 994.55 995.417 1005.54 980.078C1019.62 960.424 1025.35 939.852 995 936.328C991.268 935.895 962.381 935.735 963.643 931.982C966.775 922.667 998.069 905.836 1007 901.218C1043.18 882.514 1064.64 841.589 1065.96 802C1066.61 782.358 1049.32 751.013 1028 751M1337 751C1356.77 797.36 1388.16 839.157 1410.26 884C1414.75 893.132 1425.71 903.77 1428.33 912.864C1430.17 919.284 1421.95 931.698 1420.03 938C1414.36 956.647 1414.68 978.902 1417.43 998C1418.29 1004.02 1417.95 1012.95 1423 1017C1422.95 986.279 1417.92 960.127 1428.19 930.04C1429.47 926.27 1432.19 918.494 1436.26 917.039C1438.91 916.092 1446.43 918.636 1447.89 915.462C1449.06 912.926 1438.64 912.836 1438.7 908.617C1438.84 899.39 1448.98 892.718 1449 882C1445.16 886.123 1436.57 905.677 1430.86 904.919C1423.15 903.895 1417.58 886.938 1414.8 881C1403.65 857.173 1411.74 838.339 1407.84 814C1407.37 811.045 1403.33 786.737 1397.81 791.106C1393.4 794.596 1397.72 819.324 1398.07 825C1398.57 833.077 1400.22 840.974 1401 849C1379.49 834.411 1370.31 795.27 1355.91 774C1350.76 766.386 1347.23 751.363 1337 751M1703 770L1707 770C1684.26 731.205 1655.8 779.737 1665.4 807C1669.97 819.968 1687.42 833.737 1697.69 817.86C1707.58 802.58 1707.6 786.637 1703 770M1684.4 760.023C1707.99 756.283 1706.11 816.856 1686.96 819.535C1661.37 823.115 1663.72 763.301 1684.4 760.023M207 781C209.884 794.503 225.203 801.859 228.519 816C232.971 834.985 226.97 852.416 224.457 871C221.321 894.191 221.466 915.929 215.746 939C212.822 950.797 197.994 997.082 177.513 981.654C172.562 977.924 186.492 969.336 188.978 966.997C199.763 956.852 222.238 940.516 204.476 924.528C199.123 919.709 186.245 929.005 180 930.199C167.587 932.572 156.956 917.759 153.191 907C148.188 892.704 163.882 894.91 167.498 889.15C169.906 885.316 165.673 880.464 169.798 874.999C181.579 859.389 218.888 831.01 209 812C217.492 818.748 213.496 832.788 219.208 837.592C224.567 842.099 220.577 815.531 216.656 811.156C203.009 795.927 150.504 791.735 150 818C154.962 814.113 156.426 809.24 163 807C161.219 815.461 153.665 823.98 150.333 832C134.952 869.029 126.7 916.48 142.333 954C147.459 966.302 163.694 988.876 175 995C179.427 997.398 193.121 1000.53 196.833 996C201.331 990.513 177.991 987.446 175 988L175 986C199.469 993.575 213.016 970.658 218.241 950C224.65 924.668 225.702 899.76 229.222 874.36C231.537 857.656 238.163 841.148 235.36 824C232.666 807.517 223.931 787.561 207 781M840 783.61C847.016 782.652 853.737 789.733 858.302 794.146C870.323 805.768 893.149 825.433 892.477 844C891.318 876.021 848.736 911.377 817.997 914.82C780.227 919.05 772.518 883.243 774.078 853C775.405 827.274 814.216 787.132 840 783.61M2119 792.732C2094.69 795.704 2081.01 848.394 2116 843.782C2149.61 839.352 2160.62 787.645 2119 792.732M1265 795C1268.34 806.324 1257.43 814.148 1250.57 822C1233.41 841.645 1219.91 862.5 1201 880.981C1195.38 886.476 1173.77 898.553 1178.28 907.992C1186.85 925.889 1225.69 928.09 1241.68 936.331C1247.96 939.568 1254.67 940.96 1259.78 946.147C1265.91 952.373 1263.94 964.451 1274 962C1276.24 973.087 1285.91 986.38 1292.06 995.94C1294 998.957 1300.4 1004.97 1299.64 1008.81C1298.82 1012.98 1287.16 1018.91 1284 1022C1270.13 1035.62 1254.36 1048.52 1237 1057.41C1230.87 1060.55 1221.42 1065.1 1215.15 1059.66C1207.23 1052.77 1212.72 1041.32 1214.4 1033C1219.07 1009.86 1231.75 930.768 1182 951.306C1175.52 953.982 1170.34 958.305 1165 962.759C1157.58 968.951 1149.85 976.355 1145.29 985C1134.94 1004.62 1160.74 1031.33 1178 1036.3C1183.66 1037.93 1201.89 1042.72 1204 1035C1181.89 1031.19 1151.57 1024.3 1148.43 996C1146.41 977.863 1182.49 949.215 1200 955.802C1245.24 972.819 1190.67 1036.03 1208.6 1060.98C1224.82 1083.54 1268.08 1043.74 1281.01 1032.09C1284.6 1028.86 1292.88 1018.38 1298.03 1018.6C1304.2 1018.87 1304.73 1032.5 1309.36 1035.67C1322.41 1044.59 1358.46 1047.67 1371 1037C1357.16 1033.76 1326 1045.19 1315.96 1030.6C1310.96 1023.33 1317 1009.99 1319.58 1003C1323.4 992.66 1322.32 980.335 1325.86 970C1328.42 962.526 1335.76 956.52 1335.62 948C1335.5 940.983 1328.85 934.721 1326.92 928C1316.95 893.285 1296.23 862.743 1285.4 828C1281.95 816.949 1274.55 806.927 1276 795C1272.27 795.277 1268.73 795.362 1265 795M1569 796.438C1565.9 796.788 1539 803.584 1552.29 804.942C1570.82 806.836 1604.6 791.541 1622.06 802.698C1630.84 808.308 1623.12 848.905 1621.64 858C1621.18 860.834 1619.05 874.115 1624.72 873.493C1628.87 873.038 1627.57 859.221 1628.08 856C1630.05 843.6 1637.56 809.168 1629.74 798.542C1627.1 794.945 1618.89 797.115 1615 796.922C1599.85 796.169 1584.15 794.728 1569 796.438M2117.9 798.833C2125.09 797.322 2126.92 810.429 2128.38 815C2132.1 826.634 2138.25 834.541 2120 838.615C2089.22 845.484 2098.37 802.94 2117.9 798.833M2129 800C2133.88 800.868 2142.16 802.688 2143.88 808.163C2144.83 811.211 2141.64 822.196 2137.12 820.894C2132.39 819.529 2129.92 804.337 2129 800M196 805C199.487 806.112 202.893 807.045 206 809C202.186 808.813 198.569 807.317 195 806L196 805M183 807C177.854 810.796 171.115 813.205 165 815C169.323 807.645 175.057 807.012 183 807M1310 1013C1301.36 996.567 1281.63 976.381 1278.69 958C1276.61 944.966 1307.59 940.07 1301.78 935.359C1287.89 924.087 1277.12 935.374 1262.98 934.582C1246.59 933.665 1229.08 924.253 1214 918.503C1207.64 916.079 1189.65 912.707 1187.83 904.973C1186.17 897.953 1199.78 889.203 1204 885C1222.14 866.94 1235.92 846.665 1252.96 828C1255.88 824.811 1267.38 807.567 1271.66 808.323C1274.64 808.849 1275.9 817.625 1276.92 820C1282.28 832.397 1285.27 845.447 1290.56 858C1301.91 884.967 1327.18 918.387 1329.4 948C1329.97 955.634 1322.66 964.041 1320.18 971C1315.3 984.661 1315.55 999.428 1310 1013M150 880C155.027 890.414 147.521 893.887 146.942 904.217C146.503 912.046 156.289 926.05 161.497 931.5C175.664 946.326 200.996 918.933 204.132 940C205.238 947.426 175.923 979.083 167.92 977.239C153.898 974.007 144.243 947.032 141.262 935C133.946 905.474 142.075 860.355 155.28 833C160.609 821.962 179.66 806.328 193.756 812.94C200.658 816.178 198.024 828.023 194.874 832.981C187.452 844.664 165.178 884.614 150 880M202 813C209.709 816.107 208.086 831.46 203.785 829.239C202.324 828.484 202.625 815.513 202 813M1402.67 813.667C1402.72 813.722 1402.78 814.778 1402.33 814.333C1402.28 814.278 1402.22 813.222 1402.67 813.667M1728 815C1728.55 856.311 1716.29 902.932 1726 944C1737.84 937.954 1729.88 927.431 1729.98 918C1730.27 892.644 1729.17 868.278 1732.21 843C1733.31 833.784 1737.85 820.639 1728 815M1590.34 819.27C1579.96 825.41 1578.09 841.732 1567.44 849.177C1564.89 850.958 1557.54 852.667 1558.97 856.915C1561.53 864.54 1578.51 871.383 1578.48 879.724C1578.46 884.831 1561.86 882.585 1559.54 887.313C1557.29 891.932 1584.94 887.348 1588.43 885.08C1594.77 880.958 1564.73 863.186 1568.41 855.515C1569.86 852.472 1593.55 825.013 1595.27 825.125C1598.1 825.31 1600.84 828.031 1603 829.621C1619.86 842.028 1605.62 842.469 1597.9 855.268C1596.23 858.047 1597.9 861.432 1601.29 859.767C1606.35 857.281 1620.68 843.821 1619.75 838.019C1618.65 831.027 1597.38 815.108 1590.34 819.27M1201 823C1206.83 836.791 1239.31 827.088 1211.14 823.76C1207.64 823.346 1204.53 823.813 1201 823M1538.31 831.761C1533.41 833.464 1535 845.13 1535 849C1535 867.365 1535.99 885.619 1536 904C1536 906.926 1535.06 923.561 1540.78 921.894C1546.6 920.199 1542.11 906.198 1541.98 902.019C1541.43 884.129 1538.59 864.813 1540.22 847C1540.41 844.909 1543.75 829.872 1538.31 831.761M2018.16 848.761C2012.92 850.425 2011.05 862.419 2010.35 867C2007.27 887.358 2002.05 906.803 1998.64 927C1998.16 929.881 1996.87 947.413 2004.2 944.287C2005.67 943.658 2004.36 927.094 2004.92 924C2008.39 904.879 2013.25 886.183 2016.48 867C2016.88 864.632 2023.34 847.118 2018.16 848.761M954 850C955.453 852.301 956.459 853 959 854C958.169 850.807 957.289 850.152 954 850M1694 929C1663.95 942.052 1636.51 946.54 1603 945.033C1599.27 944.865 1574 938.029 1574 943.783C1574 948.15 1599.19 950.443 1603 950.783C1625.51 952.788 1651.2 950.38 1673 944.463C1682.01 942.018 1693.24 939.921 1694 929M1284 938C1278.64 943.334 1270.64 950.104 1266 941L1284 938M2132 943C2136.62 945.892 2147.82 942.639 2150.04 948.284C2153.86 957.986 2144.63 972.494 2141.22 981C2132.31 1003.17 2142.57 1037.23 2125.22 1055.65C2122.95 1058.07 2085.72 1049.92 2088.11 1056.5C2088.43 1057.4 2127.06 1063.43 2128.76 1061.46C2141.03 1047.25 2138.97 1024.23 2141.36 1007C2143.13 994.262 2148.25 983.192 2151.61 971C2152.82 966.603 2161.24 945.771 2159.46 942.762C2156.54 937.803 2136.55 941.772 2132 943M1900 974C1914.28 975.856 1927.3 983.037 1942 984.695C1981.95 989.201 2024.8 988 2065 988C2079.14 988 2093.96 986.741 2108 988.432C2109.48 988.611 2121.25 989.873 2118.63 985.501C2114.61 978.781 2083.29 983 2076 983C2033.47 983 1989.35 983.703 1947 979.804C1937.85 978.961 1904.28 964.682 1900 974M1201 1044C1203.12 1043.1 1203.1 1043.12 1204 1041C1201.64 1041.48 1201.48 1041.64 1201 1044M1484 1190C1484.26 1207.24 1515.7 1229.53 1528.94 1239.68C1564.05 1266.6 1601.1 1293 1635 1321.4C1653.03 1336.51 1671.59 1361.12 1695 1368C1691.86 1359.72 1681.79 1355.71 1675 1350.74C1659.16 1339.14 1645.74 1320.36 1628 1312C1672.97 1284.67 1723.34 1263.28 1769.44 1237.14C1780.07 1231.11 1813.06 1221.08 1816 1209C1767.24 1223.2 1715.52 1259.67 1672 1285.55C1659.08 1293.24 1634.09 1296.99 1626 1310C1610.69 1292.41 1574.72 1263.26 1553 1255C1570.43 1236.72 1591.6 1222.08 1608.96 1203.3C1632.31 1178.05 1657.14 1142.49 1688 1126C1690.58 1145.25 1689.97 1164.86 1693.57 1184C1698.22 1208.69 1708.14 1235.19 1710 1260C1717.18 1255.45 1710.15 1240.3 1709 1233C1704.68 1205.38 1695.07 1178.26 1695 1150C1694.99 1144.84 1697.47 1120.37 1689.76 1119.95C1679.26 1119.4 1663.04 1138.95 1656.57 1145.97C1632.72 1171.84 1607.86 1197.93 1582.68 1222.55C1576.73 1228.38 1557.32 1249.53 1549 1249C1542.6 1248.59 1534.59 1238.09 1530 1234.06C1514.28 1220.25 1500.63 1202.42 1484 1190M788 1185C795.693 1183.09 803.299 1173.82 811 1170.01C833.333 1158.96 856.833 1149.19 880 1140.09C882.894 1138.96 911.666 1131.19 908.592 1127.87C904.639 1123.61 882.818 1134.37 878 1135.98C854.889 1143.74 831.848 1153.78 810 1164.63C800.313 1169.44 790.293 1173.21 788 1185M1273 1128C1275.96 1142.39 1299.26 1157.55 1309.32 1167.78C1311.65 1170.15 1319.43 1179.59 1323.29 1176.91C1327.99 1173.65 1315.08 1165.4 1313.22 1163.64C1301.58 1152.64 1288.17 1133.78 1273 1128M57 1131C57.8663 1133.65 58.2302 1134.08 61 1134C59.5501 1132.39 58.9487 1131.94 57 1131M149 1279C134.551 1302.88 95.7628 1333.71 101 1364C134.493 1354.59 165.539 1350.04 200 1345.82C208.152 1344.82 230.302 1348.36 236.09 1341.94C239.8 1337.82 232.471 1329.49 230.441 1326C223.879 1314.73 217.531 1303.81 210.165 1293C208.453 1290.49 202.13 1283.93 203.022 1280.66C203.981 1277.15 214.967 1275.92 218 1275.21C230.432 1272.3 240.129 1268.4 248.143 1258C285.073 1210.05 243.797 1151.27 189 1145.24C154.234 1141.41 117.858 1164.35 103.963 1196C87.5802 1233.32 108.73 1273.27 149 1279M1239.33 1149.31C1216.26 1158.31 1196.75 1178.07 1175 1189.87C1172.96 1190.98 1153.17 1202.36 1157.65 1203.86C1163.67 1205.88 1173.02 1197.2 1177.98 1194.65C1196.93 1184.92 1217.26 1171.1 1234.86 1159.08C1236.67 1157.85 1246.9 1146.36 1239.33 1149.31M179 1150.33C207.964 1147.46 249.02 1173.57 257.048 1201C268.205 1239.13 238.72 1271.55 202.097 1274.28C187.005 1275.4 189.62 1229.52 174.295 1229.52C169.518 1229.52 164.064 1250.11 162.302 1254C150.716 1279.58 135.928 1274.61 115.158 1257.3C105.212 1249 106 1234.72 106 1223C106 1182.37 139.791 1154.22 179 1150.33M942 1165C961.344 1158.28 985.957 1164.37 1006 1164C978.097 1199.8 979.204 1248.11 976.136 1292C975.125 1306.47 977.533 1324.14 972.133 1337.86C964.98 1356.04 922.593 1355.38 914 1375C929.921 1370.93 945.004 1359.11 959 1350.83C962.854 1348.55 970.812 1350.09 973.146 1346.49C979.644 1336.47 978.114 1317.53 979.118 1306.04C981.838 1274.93 983.47 1242.9 987.58 1212C989.395 1198.36 994.564 1187.74 1001.62 1176C1003.32 1173.17 1011.03 1166.11 1009.9 1162.7C1008.59 1158.79 997.25 1159.9 994 1159.3C982.816 1157.26 947.485 1152.37 942 1165M1851 1194C1855.98 1191.56 1861.52 1189.18 1864 1184C1856.8 1184.51 1851.28 1186.09 1851 1194M1374 1192C1359.15 1189.12 1338.76 1213.21 1327.22 1221.11C1325.16 1222.52 1310.9 1229.66 1314.92 1233.15C1317.9 1235.73 1328.18 1226.7 1331 1225.07C1346.95 1215.83 1360.37 1195.85 1379 1192C1377.94 1188.02 1375.1 1188.06 1374 1192M2027 1208C2023.29 1216.81 2042.17 1242.34 2034.41 1247.66C2026.44 1253.14 1994.45 1246.9 1984 1247.01C1978.42 1247.06 1969.67 1245.49 1968 1252C1984.84 1250.43 2022.85 1245.09 2037.72 1254.26C2042.05 1256.93 2053.3 1296.47 2049.27 1299.06C2042.94 1303.14 2029.14 1299.04 2022 1299C1995.54 1298.86 1969.44 1296.78 1943 1297C1964.63 1306.59 1997.6 1303.73 2021 1303.99C2028.33 1304.07 2045.48 1300.75 2051.52 1305.04C2059.99 1311.06 2055.57 1334.68 2053.78 1343C2047.95 1370.06 2028.48 1403.12 1995.22 1390.74C1980.51 1385.26 1937.41 1362.45 1946.08 1343.45C1953.83 1326.47 1976.71 1345.11 1984 1331C1972.57 1331.67 1956.33 1326.51 1945.74 1332.81C1928.12 1343.32 1946.06 1364.34 1954.92 1371.7C1977.54 1390.5 2002.01 1406.54 2031 1391.99C2050.24 1382.34 2058.76 1356.14 2060.78 1336C2061.3 1330.78 2057.57 1308.08 2061.54 1305.82C2067.4 1302.49 2079.35 1304.34 2086 1303.86C2100.4 1302.82 2116.33 1300.09 2130 1295.45C2135.19 1293.69 2150.09 1287.72 2148.24 1280.24C2146.54 1273.37 2129.81 1269.35 2124 1267.33C2107.79 1261.68 2092.05 1256.5 2075 1253.64C2066.74 1252.25 2053.44 1253.63 2046.2 1249.5C2039.07 1245.42 2035.07 1216.89 2029 1208C2047.67 1207.97 2066.31 1205.01 2085 1205C2106.22 1204.99 2129.25 1205.22 2150 1200.26C2152.41 1199.68 2170.76 1198.04 2169.24 1194.68C2167.73 1191.37 2156.75 1194.37 2154 1194.68C2138.2 1196.45 2121.84 1199.66 2106 1199.98C2060.52 1200.9 2013.18 1200.38 1968 1205.32C1963.34 1205.83 1926.83 1207.98 1926.32 1210.34C1925.37 1214.82 1946.4 1212.59 1949 1212.32C1975.03 1209.59 2000.79 1208.5 2027 1208M534 1291C528.331 1317.36 544.406 1339.64 572 1322.78C593.377 1309.71 599.89 1286.06 615 1268C617.062 1284.98 610.536 1303.21 614.121 1320C614.815 1323.25 614.553 1333.85 618.952 1334.68C621.193 1335.1 619.714 1307.63 619.646 1304C618.985 1268.45 627.801 1234.9 631 1200C621.816 1204.22 623.948 1227.81 621.176 1237C613.002 1264.09 587.569 1321.28 554 1321.78C539.945 1321.99 531.593 1303.01 540.26 1291.78C545.724 1284.7 562.386 1286.75 569.919 1281C583.415 1270.69 587.495 1221.93 565.999 1217.01C558.448 1215.28 551.404 1226.16 549.28 1232C544.516 1245.09 540.883 1279.79 527.997 1284.97C495.155 1298.17 500.656 1245.19 472.148 1255.8C450.82 1263.74 493.58 1290.45 487.823 1295.16C471.974 1308.13 440.828 1301.51 434.717 1283C428.128 1263.04 435 1234.21 444 1216C445.943 1224.08 449.854 1232.12 459 1233C455.309 1226.6 448.171 1221.42 449.18 1213.09C449.681 1208.95 458.26 1202.35 462.351 1205.25C468.914 1209.91 447.908 1215.65 453.609 1218.06C462.165 1221.69 475.266 1206.64 466.396 1200.39C455.902 1192.98 440.505 1209.59 437.22 1218C428.707 1239.79 418.228 1278.56 435.404 1298.94C444.686 1309.95 477.035 1306.87 488.981 1300.97C493.512 1298.73 496.223 1292.77 501.144 1291.64C510.326 1289.53 524.012 1291.97 534 1291M877 1220C895.654 1224.71 917.776 1211.14 936 1208C916.283 1224.53 889.129 1237.49 866 1248.72C861.546 1250.88 842.994 1258.66 848.289 1266.14C851.686 1270.94 861.31 1268.49 866 1267.69C882.972 1264.82 899.615 1256.69 917 1256C896.773 1268.95 872.695 1275.48 852.96 1289.36C847.017 1293.54 835.405 1300.43 835.769 1308.99C836.087 1316.45 845.267 1317.77 851 1317.96C867.1 1318.48 883.917 1315.5 900 1314.42C903.971 1314.15 919.063 1312.36 919.919 1318.36C922.197 1334.34 877.654 1338.16 873.274 1351.04C870.131 1360.28 884.058 1363.42 890 1360C854.44 1350.84 926.504 1336.98 924.071 1318.1C923.115 1310.68 911.376 1310.98 906 1310.64C889.697 1309.62 873.219 1312.73 857 1313.86C852.46 1314.18 842.45 1315.51 840.505 1309.85C837.9 1302.27 854.643 1293.07 859.562 1289.81C878.595 1277.2 902.225 1268.72 923 1259.32C926.043 1257.94 943.378 1252.07 942.677 1248.32C942.002 1244.71 914.808 1251.24 911 1252.02C903.332 1253.58 895.632 1255.19 888 1256.91C876.326 1259.54 864.588 1262.11 853 1265C858.338 1255.37 871.769 1251.29 881 1246.14C903.543 1233.56 937.593 1221.44 954 1201C937.545 1197.44 913.001 1208.7 897 1213.02C890.448 1214.79 882.17 1215.4 877 1220M1747 1238C1763.57 1229.3 1779.41 1219 1797 1212.32C1803.06 1210.02 1814.11 1207.96 1816 1201C1797.51 1205.81 1780.89 1215.17 1764 1223.74C1757.74 1226.92 1747.84 1230.11 1747 1238M844 1373C842.723 1364.62 850.648 1358.75 848 1351C844.662 1355.23 842.604 1362.88 838.439 1365.98C831.766 1370.95 812.71 1365.43 811.244 1356.91C808.561 1341.34 814.709 1324.41 816.662 1309C819.689 1285.11 818.231 1259.97 826.564 1237C827.952 1233.18 834.609 1201.92 831.276 1203.11C827.603 1204.41 826.697 1212.79 825.894 1216C822.591 1229.19 819.344 1242.6 816.919 1256C812.325 1281.39 813.414 1307.66 808.003 1333C806.564 1339.74 803.748 1359.62 808.164 1365.28C814.912 1373.92 834.305 1372.66 844 1373M562.231 1223.89C569.937 1221.12 573.065 1233.93 574.201 1239C577.284 1252.75 575.453 1275.07 560 1280.11C530.748 1289.66 546.122 1255.84 552.276 1240C554.273 1234.86 556.361 1226 562.231 1223.89M194 1276C188.246 1277.44 161.889 1283.13 159.018 1275.4C157.94 1272.49 173.413 1237.64 175.06 1237.64C179.943 1237.64 191.78 1270.98 194 1276M918 1255L917 1256L918 1255M2045 1255C2070.84 1255.92 2098.18 1261.17 2122 1271.09C2125.86 1272.7 2144.5 1276.39 2143.68 1282.08C2142.82 1287.98 2130.6 1290.66 2126 1291.89C2111.19 1295.87 2073.73 1306.78 2059.42 1299.42C2052 1295.6 2046.55 1263.27 2045 1255M493 1282C489.357 1280.49 485.4 1279.47 482.011 1277.42C477.506 1274.69 470.426 1263.84 479.206 1261.14C490.285 1257.73 492.936 1275.14 493 1282M1414 1289C1410.09 1278.33 1386.47 1281.67 1377 1280.78C1338.2 1277.12 1297.97 1268.44 1259 1268.01C1251.8 1267.93 1220.04 1259.07 1216.54 1265.57C1214.44 1269.48 1225.21 1269.33 1227 1269.65C1239.14 1271.77 1250.85 1272.05 1263 1273.72C1311.91 1280.45 1364.76 1289 1414 1289M104 1360C105.364 1337.93 125.877 1318.05 138.308 1301C142.229 1295.62 147.865 1285.17 154.048 1282.4C160.151 1279.66 169.466 1284 176 1283.88C181.664 1283.78 190.626 1279.23 195.805 1281.56C206.864 1286.54 220.056 1314.2 225.501 1324.86C226.917 1327.64 233.981 1335.67 231.6 1338.74C228.217 1343.1 202.95 1340.64 197 1341.22C164.416 1344.37 134.687 1348.5 104 1360M1934 1297C1936.37 1297.82 1938.49 1297.95 1941 1298C1938.63 1297.18 1936.51 1297.05 1934 1297M1973.67 1310.33C1973.22 1310.78 1974.28 1310.72 1974.33 1310.67C1974.78 1310.22 1973.72 1310.28 1973.67 1310.33M1513 1369C1511.99 1379.86 1512.08 1389.39 1515 1400C1517.83 1391.64 1516.15 1377.16 1513 1369M931 1414C955.285 1410.23 979.177 1394.85 1003 1387.32C1009.49 1385.27 1023.16 1384.9 1026 1378C1000 1380.66 976.979 1389.07 954 1400.74C946.698 1404.45 935.816 1407.18 931 1414M1268 1484.44C1241.89 1487.41 1243.99 1537.33 1270 1533.71C1283.18 1531.88 1308.31 1502.4 1299.06 1488.28C1294.45 1481.24 1275.14 1483.63 1268 1484.44M1267.32 1486.61C1303.03 1475.93 1298.27 1519.76 1271.86 1526.45C1250.64 1531.83 1251.41 1491.37 1267.32 1486.61M2067 1518C2065.41 1513.96 2060.96 1508.51 2062.06 1504.01C2066.14 1487.31 2093.28 1497.98 2096.22 1510C2099.61 1523.84 2086.58 1534.96 2075 1538.9C2072.84 1539.63 2060.19 1541.35 2063.11 1545.54C2066.53 1550.46 2081.36 1553.64 2087 1555.83C2101.21 1561.33 2113.79 1568.61 2124.67 1579.28C2129.63 1584.14 2139.81 1593.24 2135.16 1600.98C2123.91 1619.67 2086.15 1615 2068 1615C2062.66 1615 2048.71 1616.95 2045.48 1611.4C2043.06 1607.25 2045 1597.76 2045 1593C2045 1576.24 2044.46 1559.55 2044.18 1543C2044.1 1538.53 2051.43 1524.22 2046.72 1521.54C2041.88 1518.8 2040.07 1537.47 2040.02 1540C2039.65 1558.02 2039.82 1575.96 2039.29 1594C2039.16 1598.47 2041.42 1609.53 2036.5 1612.18C2027.83 1616.83 2004.4 1609.63 1995 1607.8C1991.61 1607.14 1983.1 1603.84 1980.33 1606.95C1976.62 1611.1 1996.47 1613.66 1999 1614.08C2012.61 1616.32 2056.63 1614.04 2042.18 1641.52C2039.61 1646.39 2026.86 1646.12 2022 1647.26C2004.35 1651.42 1976.69 1658 1976.57 1681C1976.4 1712.12 2027.62 1737.68 2052 1720C2052 1729.35 2053.12 1738.77 2054.64 1748C2056.27 1757.9 2056.51 1768.67 2060.5 1777.98C2061.25 1779.71 2066.81 1788.15 2068.99 1783.16C2070.74 1779.13 2063.74 1767.78 2063.01 1763C2060.12 1744.05 2058.41 1724.29 2058.02 1705C2057.85 1696.86 2063.99 1677.61 2051 1680C2050.98 1664.2 2051.31 1650.43 2049.95 1635.99C2049.68 1633.12 2045.93 1623.16 2048.04 1621.18C2052 1617.49 2064.05 1620.97 2069 1621C2089.33 1621.11 2107.58 1620.78 2127 1613.99C2134.26 1611.45 2144.68 1606.2 2143.27 1596.99C2137.71 1560.82 2093.75 1564.7 2077 1543C2105.79 1540.6 2112.91 1496.65 2082 1490.58C2063.06 1486.86 2042.92 1509.03 2067 1518M144 1504C148.471 1502.3 153.187 1499.14 153 1494C149.011 1496.63 146.219 1499.78 144 1504M1720 1515C1738.19 1505.63 1733.69 1542.77 1733.98 1557C1734.73 1593.68 1735.05 1630.37 1737.02 1667C1737.61 1678.01 1737.49 1701.07 1746 1709C1745.97 1685.89 1741.25 1662.22 1740.08 1639C1738.65 1610.73 1741.72 1582.21 1739.22 1554C1738.29 1543.51 1741.36 1511.03 1734.06 1503.63C1728.67 1498.17 1721.26 1511.07 1720 1515M1012.89 1506.23C1004.32 1507.57 994.726 1516.94 988 1522C970.172 1535.41 952.662 1549.43 935.136 1563.14C933.042 1564.77 911.149 1582.94 920.041 1583C925.736 1583.04 938.607 1568.38 943.215 1564.63C965.847 1546.19 994.438 1530.43 1015.39 1510.91C1017.84 1508.63 1015.98 1505.74 1012.89 1506.23M775 1509C748.781 1542.96 764.468 1563.61 768.677 1602C771.658 1629.19 762.072 1655.1 763.041 1682C763.674 1699.57 774.378 1713.05 774.019 1731C773.657 1749.08 775.997 1769.05 777.79 1787C778.04 1789.5 777.969 1804.5 782.702 1802.89C787.113 1801.39 783.22 1788.3 782.824 1785C780.816 1768.31 777.746 1747.68 778.01 1731C778.308 1712.19 768.2 1696.4 768.026 1678C767.773 1651.26 777.645 1626.23 774.773 1599C772.753 1579.85 761.373 1560.74 763.16 1541C764.253 1528.93 774.351 1520.51 777 1509L775 1509M148 1562C144.16 1550.48 120.542 1579.6 117.228 1561.98C114.147 1545.61 123.306 1523.99 139 1516.97C157.163 1508.85 176.546 1523.17 176.985 1542C177.439 1561.44 173.003 1581.53 167.41 1600C165.867 1605.09 163.638 1615.82 158.856 1618.68C148.573 1624.84 127.2 1622.46 115 1626C110.826 1627.21 78.1065 1636.82 84.0864 1644.35C86.5139 1647.41 98.1094 1637.49 101 1636.18C119.335 1627.87 138.951 1628.53 158 1624C152.362 1650.15 133.896 1672.42 128.227 1699C126.201 1708.5 130.337 1731.05 124.843 1738.26C118.042 1747.2 100.563 1744.32 93 1754C102.625 1752.63 115.348 1743.31 124.757 1744.69C129.274 1745.35 132.398 1754.81 137.003 1757.3C150.162 1764.41 171.657 1762.07 185 1756.9C212.786 1746.14 224.956 1714.79 249.026 1702.54C268.008 1692.87 314.392 1671.98 307.848 1643C302.786 1620.59 253.131 1621.12 236 1619.32C223.989 1618.06 208.85 1615.98 215.896 1598.78C225.17 1576.14 254.663 1566.28 277 1567.86C279.563 1568.05 297.621 1570.65 295.894 1565.36C292.902 1556.19 254.825 1562.01 248 1564.38C233.386 1569.46 216.571 1580.01 210.367 1595C207.961 1600.82 213.546 1610.72 209.171 1615.18C205.846 1618.56 172.466 1619.76 169.001 1616.66C165.608 1613.63 174.564 1594.37 175.618 1590C181.436 1565.89 193.485 1521.13 161 1511.16C137.74 1504.02 121.488 1520.84 113.877 1541C110.785 1549.19 107.73 1567.63 118.586 1572.25C128.04 1576.27 138.473 1562.63 148 1562M1617 1510C1587.86 1510.83 1557.15 1522.7 1531 1534.69C1528.12 1536.01 1501.65 1547.63 1506.7 1551.67C1509.7 1554.05 1527.51 1543.73 1531 1541.97C1551.42 1531.68 1572.02 1524.45 1594 1518.29C1600.43 1516.48 1614.26 1516.93 1617 1510M1132.11 1513.21C1129.93 1515.33 1148.7 1522.55 1150.88 1524.23C1166.49 1536.27 1175.38 1555.7 1192 1567.5C1195.02 1569.65 1204.76 1579.15 1208.89 1575.65C1213.64 1571.62 1197.36 1563.26 1194.96 1561.55C1178.63 1549.92 1169.52 1527.76 1152.92 1517.86C1149.21 1515.65 1136.08 1509.34 1132.11 1513.21M574 1537C572.916 1519.11 546.79 1510.04 535.485 1524.02C528.731 1532.37 522.112 1547.09 524.833 1558C531.207 1583.56 559.38 1578.18 570.517 1559.35C573.366 1554.54 570.269 1534 563.012 1534C555.398 1534 565.675 1548.76 565.606 1552C565.439 1559.84 551.289 1569.12 544 1568.75C521.212 1567.61 532.644 1527.73 547.003 1522.69C558.82 1518.53 565.495 1533.7 574 1537M45 1519C49.0755 1523.29 57.1514 1522.79 62 1520C56.4885 1518.58 50.6082 1517.9 45 1519M1056 1524C1062.78 1584.41 1060.98 1645.11 1061 1706C1061 1718.09 1058.45 1760.34 1071 1766C1068.74 1733.21 1065.64 1701.1 1066.01 1668C1066.34 1638.05 1069.85 1608.79 1064.63 1579C1062.59 1567.35 1069.22 1527.36 1056 1524M1366 1534C1351.44 1535.55 1336.21 1548.44 1323.68 1555.51C1294.72 1571.85 1267.31 1589.61 1236 1601.32C1226.01 1605.06 1215.34 1608.99 1206 1614.13C1204.77 1614.81 1196.61 1618.34 1197.76 1620.34C1200.4 1624.92 1234.35 1607.61 1239 1605.79C1271.98 1592.9 1301.02 1573.11 1332 1556.3C1341.28 1551.27 1361.75 1544.02 1366 1534M410.97 1539.2C406.439 1543.15 427.831 1546.72 430 1547.08C453.514 1551.01 480.149 1569.36 503 1578.24C508.56 1580.4 525.486 1591.17 530.99 1585.84C536.786 1580.23 511.29 1573.94 508 1572.74C495.293 1568.12 482.322 1565.8 470.136 1559.48C458.24 1553.3 448.548 1544.09 435 1541.76C429.958 1540.9 415.112 1535.58 410.97 1539.2M786 1538C790.143 1556.14 838.415 1554.8 853 1556.32C857.222 1556.76 873.909 1560.74 875.854 1555.54C879.21 1546.57 858.61 1551.16 855 1550.46C832.082 1546.05 808.912 1542.58 786 1538M1580 1608C1596.73 1604.27 1624.48 1576.54 1637.98 1564.86C1640.76 1562.46 1656.15 1553.2 1653.37 1549.07C1650.24 1544.42 1636.69 1557.86 1634 1560C1618.16 1572.59 1587 1588.3 1580 1608M413 1578C410.01 1615.9 410.674 1655.65 411.026 1694C411.074 1699.25 409.606 1729.36 415.742 1729.36C422.284 1729.36 417.151 1698.57 417.048 1694C416.391 1664.71 419.999 1635.24 416.711 1606C415.58 1595.95 421.07 1586.33 413 1578M951 1709C976.856 1695.22 1005.42 1659.78 1020.85 1635C1024.83 1628.6 1035.93 1606.31 1024.74 1601.67C1025.03 1601.79 1019.05 1626.69 1015.94 1632C1003.44 1653.34 984.069 1670.26 968.242 1689C962.996 1695.21 952.911 1700.95 951 1709M1324 1611L1324 1616C1327.44 1613.51 1330.08 1604.3 1322.97 1605.68C1302.14 1609.72 1274.53 1645.14 1259.22 1659.3C1256.99 1661.35 1238.85 1677.01 1242.93 1679.36C1247.56 1682.03 1259.84 1666.45 1263 1663.72C1281.51 1647.76 1301.66 1620.8 1324 1611M1596 1679C1593.8 1670.92 1585.08 1666.67 1579.61 1660.78C1569.93 1650.36 1559.89 1637.6 1553.28 1625C1551.79 1622.16 1547.61 1605.65 1543.75 1607.89C1537.31 1611.64 1546.73 1626.24 1548.96 1630C1558.92 1646.71 1575.81 1673.89 1596 1679M514.386 1613.03C502.387 1617.3 488.598 1633.26 479.003 1641.66C477.26 1643.19 466.418 1652.64 475.084 1652.81C480.287 1652.92 484.161 1646.36 487.217 1643.04C495.799 1633.7 509.503 1628.06 516.908 1617.69C518.774 1615.08 518.144 1611.69 514.386 1613.03M161 1645C179.28 1643.88 198.48 1640.4 216 1635C220.738 1650.5 247.259 1683.76 240.053 1699.72C237.275 1705.87 224.874 1708.42 219 1710.35C198.553 1717.05 178.048 1725.72 157 1730.08C152.26 1731.07 135.868 1739.23 132.26 1735.13C128.354 1730.7 131.278 1717.38 131.785 1712C134.012 1688.38 143.754 1666.97 154.44 1646C157.556 1639.88 159.527 1626.92 166.315 1623.82C176.027 1619.38 195.457 1621.14 205.974 1622.11C209.323 1622.41 216.597 1626.54 212.714 1630.8C201.43 1643.19 171.137 1629.5 161 1645M1198 1781C1201.66 1776.38 1201.04 1768.77 1202 1763L1197 1766C1197 1730.18 1196.19 1687.91 1184.52 1654C1183.04 1649.71 1184.8 1622.08 1180.24 1622.79C1174.3 1623.7 1176.49 1652.37 1177.94 1656.78C1186.41 1682.7 1189.34 1712.52 1191.78 1740C1193 1753.68 1188.79 1769.43 1198 1781M246 1698C244.891 1679.96 234.263 1668.12 226.491 1653C221.823 1643.91 220.737 1632.14 217 1623C238.232 1623 285.96 1622.17 300.947 1640.34C306.719 1647.34 299.534 1657.04 295.442 1663.1C284.334 1679.56 265.537 1693.38 246 1698M1623 1726C1630.26 1724.1 1633.62 1712.59 1638.03 1707C1651.81 1689.55 1665.71 1672.26 1679.72 1655C1682.88 1651.1 1699.13 1637.53 1693.26 1631.97C1689.79 1628.68 1676.85 1649.06 1674.56 1652C1658.72 1672.31 1627.52 1699.99 1623 1726M1405 1634C1407.07 1646.36 1397.34 1655.02 1391.48 1664.99C1374.81 1693.32 1349.72 1716.35 1331.68 1744C1326.06 1752.62 1320.96 1761.51 1315.1 1770C1314.32 1771.14 1308.68 1777.93 1311.01 1779.24C1314.79 1781.37 1332.25 1751.33 1334.41 1748C1353.53 1718.6 1377.91 1693.52 1398.22 1665C1402.88 1658.45 1417.82 1639.61 1405 1634M787 1647C789.429 1653.13 808.501 1653.45 815 1655.29C845.642 1663.92 878.924 1661.99 910 1669C907.886 1661.05 888.204 1660.28 881 1658.78C851.215 1652.57 817.301 1647 787 1647M2045 1649L2041 1657C2047.33 1659.91 2044.8 1670.03 2045.57 1676C2047.3 1689.39 2057.74 1723.21 2033.24 1720.95C2013.54 1719.14 1970.75 1696.36 1985.96 1671.12C1995.9 1654.61 2027.22 1649.1 2045 1649M529 1660.02C510.113 1666.5 491.041 1674.37 472 1680.13C469.435 1680.9 451.265 1684.44 455.892 1688.82C459.697 1692.42 470.894 1688.3 475 1686.56C489.445 1680.43 502.576 1673.94 518 1670.25C522.985 1669.06 536.605 1668.94 540.108 1665.74C545.963 1660.4 531.824 1659.05 529 1660.02M1231 1702C1236.24 1713.53 1253.65 1708.19 1264 1707.98C1297.44 1707.3 1332.49 1698.25 1366 1695L1366 1692C1320.76 1692.07 1276.32 1702 1231 1702M235 1710C219.636 1730.57 192.163 1755.69 165 1755.99C157.194 1756.08 132.808 1757.38 133.951 1744.14C134.491 1737.88 152.072 1735.56 157 1734.3C182.835 1727.7 208.831 1714.08 235 1710M1570 1721C1572.15 1729.3 1582.93 1729.65 1590 1730.57C1610.39 1733.2 1630.66 1736.22 1651 1739C1648.01 1731.96 1636.65 1732.56 1630 1731.41C1609.98 1727.97 1589.99 1724.39 1570 1721M451 1738C455.162 1748.41 475.372 1741.43 484 1740.44C512.249 1737.19 540.51 1742.56 569 1738.55C573.492 1737.91 594.314 1734.51 596.031 1730.65C598.578 1724.91 565.976 1733.54 562 1733.87C525.554 1736.91 487.531 1738 451 1738M951 1791C966.716 1782.31 974.085 1760.37 988.001 1748.77C989.997 1747.1 1003.43 1739.81 1001.46 1736.79C998.683 1732.54 986.258 1743.37 984.078 1745.21C972.829 1754.68 953.732 1776.38 951 1791M793 1761C818.699 1766.51 846.311 1780.01 872 1783C865.939 1768.54 826.054 1761.38 812 1757.88C805.373 1756.23 797.397 1754.5 793 1761M2073 1775C2081.94 1792.06 2060.95 1793.26 2046 1795.06C2010.54 1799.33 1985.27 1792.4 1951 1786C1954.61 1793.9 1972.99 1798.08 1981 1799.88C2007.34 1805.79 2057.64 1808.26 2080.93 1791.46C2089.17 1785.52 2081.13 1775.36 2073 1775M943.695 1852.29C938.716 1855.84 936.491 1869.27 935.601 1875C933.245 1890.17 930.248 1905.68 929.137 1921C928.703 1926.99 930.2 1937.37 926.617 1942.5C923.117 1947.51 910.367 1944.76 905.04 1945.06C885.753 1946.13 866.41 1949.03 847 1949.92C842.906 1950.11 823.478 1948.92 822.786 1954.08C821.857 1960.99 842.452 1957.17 846 1957.04C864.238 1956.38 882.831 1953.61 901 1951.68C906.928 1951.05 919.074 1948.64 924.458 1951.7C932.247 1956.12 916.869 1991.8 926.354 1994.89C930.898 1996.38 929.858 1956.07 934.781 1952.26C939.039 1948.96 949.861 1951 955 1951C971.799 1951 988.262 1949.98 1005 1949.08C1010.05 1948.8 1020.3 1948.93 1023.99 1944.76C1029.31 1938.75 1006.87 1942.96 1004 1943.02C986.975 1943.36 970.108 1945 953 1945C948.664 1945 938.362 1946.88 934.958 1943.74C931.411 1940.47 934.823 1928.35 935 1924C935.95 1900.61 942.32 1878.26 948.046 1856.07C948.814 1853.09 946.874 1850.02 943.695 1852.29M2092 1852C2087.03 1860.03 2088.94 1880.59 2081.5 1885.74C2077 1888.86 2069.03 1886.21 2064 1886.04C2043.96 1885.37 1996.09 1889.94 2027 1916.4C2031.61 1920.34 2035.89 1924.03 2042 1925C2037.84 1917.95 2019.96 1909.6 2021.3 1900.2C2022.03 1895.17 2031.2 1894.59 2035 1893.78C2046.44 1891.35 2069.68 1886.97 2080.5 1892.82C2087.42 1896.56 2079.56 1930.66 2077.74 1937.44C2075.64 1945.26 2079.55 1962.19 2074.74 1968.19C2071.85 1971.79 2062.27 1971.4 2058 1972.58C2042.64 1976.82 2027.22 1980.5 2012 1985.2C2008.2 1986.38 1997.36 1990.85 1993.8 1988.62C1990.33 1986.44 1989.86 1976.72 1988.98 1973C1986.04 1960.67 1981.4 1948.35 1975.78 1937.02C1974.2 1933.84 1966.73 1926.93 1967.75 1923.54C1972.76 1906.94 2006.66 1893.2 1983.51 1871.4C1969.36 1858.08 1927.73 1861.68 1919.2 1880.08C1916.81 1885.23 1923.95 1905.28 1928.54 1899.89C1930.78 1897.26 1924.63 1890.66 1923.98 1888C1922.41 1881.6 1928.99 1876.57 1934 1874.1C1947.19 1867.6 1986.96 1865.79 1984.51 1889C1983.42 1899.34 1971.61 1917.18 1961.02 1919.68C1952.85 1921.62 1923.1 1911.05 1926.77 1932.85C1928.9 1945.56 1955.99 1927.86 1961.88 1929.85C1972.99 1933.6 1991 1980.31 1985.65 1990.79C1982.23 1997.5 1964.71 1999.4 1958 2001.82C1930.48 2011.77 1901.43 2018.61 1875 2031.41C1865.65 2035.93 1851.41 2041.19 1851 2053C1882.62 2032.79 1915.75 2021.73 1951 2009.42C1956.99 2007.33 1980.56 1996.44 1985.81 2001.66C1993.97 2009.77 1973.25 2046.08 1970.32 2055C1967.5 2063.58 1968.06 2073.6 1962.12 2080.86C1936.91 2111.62 1879.54 2098.34 1851 2080C1851.39 2091.24 1860.9 2092.64 1870 2095.38C1888.86 2101.06 1913.35 2109.28 1933 2103.66C1970.96 2092.81 1978.52 2058.54 1989.37 2024C1991.64 2016.76 1990.13 2003.22 1994.82 1997.46C2001.76 1988.95 2024.79 1986.75 2035 1983C2025.98 2002.62 2067.85 2012.73 2073.75 2026.03C2077.33 2034.09 2069.58 2034.53 2069.61 2039.08C2069.66 2046 2074.58 2054.03 2073.62 2063C2073.13 2067.52 2068.63 2073.15 2071.41 2077.58C2075.93 2084.81 2078.25 2072.72 2078.56 2070C2080.18 2056.09 2083.54 2042.17 2083 2029C2113.05 2043.27 2150.52 2040.69 2183 2045C2181.87 2037.42 2165.46 2037.84 2159 2037.06C2139.88 2034.74 2119.62 2034.1 2101 2029.1C2095.62 2027.65 2085.44 2025.45 2082.94 2019.86C2079.38 2011.9 2077.2 1979.02 2084.34 1973.02C2096.87 1962.47 2117.79 1960.86 2132 1952.3C2142.7 1945.86 2162.35 1928.21 2157.66 1914C2151.4 1895.01 2127.72 1892.34 2111 1890.44C2106.01 1889.87 2095.62 1891.19 2091.96 1887.06C2087.45 1881.98 2091.86 1860.83 2101 1865C2099.83 1859.28 2096.24 1855.8 2092 1852M564 1853.59C552.698 1854.29 544.355 1858.77 536.001 1866.24C534.907 1867.21 524.041 1877.45 529.453 1878.21C534.798 1878.97 542.836 1867.05 548.04 1864.74C563.73 1857.76 573.942 1861.97 589 1868.43C612.958 1878.7 633.45 1897.02 658.019 1905.66C661.316 1906.82 672.581 1915.88 673.868 1915.68C685.782 1913.83 663.995 1900.94 662 1900.05C634.33 1887.69 595.21 1851.66 564 1853.59M226 1899C224.024 1880.65 260.231 1860.52 268.176 1880.06C270.635 1886.11 266.033 1890.36 264.869 1895.85C264.264 1898.7 266.378 1899.77 268.645 1898.11C276.277 1892.52 277.422 1874.56 267.938 1870.4C257.845 1865.97 240.53 1869.05 231 1873.69C221.388 1878.37 212.103 1892.87 226 1899M1222 1876.52C1169.79 1882.73 1179.59 1961.32 1232 1954.94C1273.74 1949.86 1262.71 1871.68 1222 1876.52M140 1961C116.558 1963.36 90.5995 1928.51 90.5271 1905C90.4679 1885.79 118.212 1890.98 129 1893.87C131.914 1894.64 141.347 1901.32 142.695 1895.73C144.226 1889.38 133.842 1888.6 130 1887.9C116.164 1885.37 104.065 1881.57 91.1049 1890.2C81.607 1896.53 84.1011 1909.18 87.7118 1918C95.9798 1938.19 110.403 1959.9 127 1974C106.55 1974.93 81.685 1971.8 63.0001 1981.7C41.0107 1993.34 44.856 2036.28 59.1465 2052.99C66.5782 2061.68 77.9107 2070.02 89 2073.32C93.5216 2074.66 108.055 2074.8 110.556 2078.82C115.025 2086 103.721 2100.08 110.785 2109.77C116.316 2117.37 138.713 2123.1 143.031 2110.52C145.21 2104.17 129.845 2091.65 128 2106C142.92 2105.57 127.316 2114.67 119.225 2109.22C107.533 2101.34 115.186 2077.66 128 2076C124.329 2066.04 111.574 2071.99 103 2070.49C87.6598 2067.82 73.1898 2060.35 63.3791 2047.99C50.7544 2032.09 47.5172 1996 68 1985.33C100.396 1968.44 150.65 1975.38 170.543 2006C181.094 2022.24 174.882 2038.37 174.081 2056C173.616 2066.23 178.742 2084.94 193 2081.48C211.427 2077.02 210.659 2049.15 205.576 2035.07C204.592 2032.34 199.925 2028.24 197.902 2032.51C193.766 2041.25 203.702 2053.47 198.693 2063.99C195.798 2070.07 188.639 2073.86 183.862 2066.79C179.403 2060.2 185.615 2048.22 185.895 2041C186.701 2020.22 175.867 1976.59 153 1975C157.93 1968.03 168.623 1965.13 174.856 1958.86C187.842 1945.8 199.263 1922.01 202.717 1904C203.418 1900.35 209.474 1879.69 205.343 1878.11C200.015 1876.06 197.927 1896.02 197.414 1899C194.053 1918.51 181.709 1945.83 165.992 1958.4C160.893 1962.48 128.576 1977.24 140 1961M1220 1883.41C1255.5 1877.32 1265.97 1942.86 1233 1949.06C1189.91 1957.17 1175.22 1891.09 1220 1883.41M1445.67 1885.54C1442.47 1887.52 1441.54 1899.43 1440.93 1903C1438 1920.13 1433.4 1937.81 1431.34 1955C1431.02 1957.71 1430.71 1975.19 1435.04 1973.89C1439.35 1972.6 1440.41 1962.67 1441.75 1959C1448.15 1941.49 1449 1923.42 1449 1905C1449 1902.83 1449.84 1882.97 1445.67 1885.54M564 1892C558.376 1898.35 551.321 1903.41 547.188 1911C536.444 1930.73 521.237 1989.86 485 1974.96C465.007 1966.73 475 1954.41 484.472 1944.21C485.796 1942.78 487.082 1939.63 483.922 1939.68C471.705 1939.85 460.883 1955.51 466.153 1966.56C472.515 1979.9 487.284 1983.93 501 1980.03C533.154 1970.9 538.848 1941.48 551.666 1916C554.968 1909.44 569.682 1898.83 564 1892M2082 1968C2083.68 1949.97 2083.62 1931.84 2086.65 1914C2087.46 1909.28 2086.22 1898.62 2090.12 1895.27C2093.52 1892.35 2102.93 1895.25 2107 1895.68C2120.29 1897.09 2155.1 1899.14 2152.63 1920C2149.03 1950.49 2103.95 1957.88 2082 1968M1667 2018C1657.4 2015.28 1649.32 2009.01 1639 2009.04C1608.36 2009.13 1613.67 2047.46 1628 2063C1631.78 2067.1 1638.76 2078.1 1645.74 2075.33C1660.93 2069.31 1659.75 2038.43 1671 2028C1676.33 2056.17 1703.06 2102.92 1736 2082.51C1742.65 2078.4 1772.35 2049.87 1755 2043C1754.97 2060.14 1731.85 2091.4 1712 2081.54C1696.52 2073.85 1672.45 2037.48 1671.58 2019.78C1671.14 2010.81 1676.73 1996.7 1679.37 1988C1681.25 1981.81 1683.19 1960.29 1690.14 1958.64C1698.34 1956.68 1709.93 1962.1 1718 1963.64C1742.22 1968.28 1765.89 1974.01 1790 1979.31C1797.28 1980.91 1805.71 1987.15 1813 1986C1796.85 1965.98 1745.2 1962.25 1721 1958.3C1713.16 1957.02 1696.83 1956.35 1690.52 1951.64C1684.29 1946.98 1691.53 1917.8 1693.17 1911C1693.7 1908.78 1698.1 1899.14 1693.74 1898.32C1689.81 1897.59 1688.51 1907.61 1688.02 1910C1686.59 1916.92 1686.28 1946.27 1680.5 1949.42C1669.59 1955.34 1633.76 1944.22 1622.78 1939.79C1620.19 1938.74 1605.77 1931.39 1604.11 1935.69C1602.16 1940.68 1617.1 1944.37 1620 1945.27C1634.5 1949.73 1648.06 1951.66 1663 1953.72C1667.01 1954.27 1676.23 1953.62 1679.04 1956.82C1682.01 1960.21 1678.76 1969.14 1677.86 1973C1674.49 1987.48 1668.03 2003.27 1667 2018M1550 1902C1546.7 1921.45 1544.21 1960 1532.2 1975.8C1521.66 1989.69 1486.5 2000.88 1484 2019C1501.2 2011.47 1515.48 1995.53 1530 1984C1527.5 2004.59 1503.76 2048.16 1519.64 2066.62C1527.34 2075.58 1542.39 2071.2 1552 2067.98C1575.81 2060.02 1592.77 2035.78 1577.23 2010.89C1574.61 2006.69 1573.09 2015.64 1573.18 2017C1574.59 2039.66 1578.52 2053.13 1552 2062C1543.48 2064.85 1528.64 2070.4 1522.74 2060.41C1513.75 2045.18 1528.71 2014.42 1532.33 1999C1533.91 1992.31 1534 1984.09 1539.29 1979.14C1543.45 1975.24 1572.52 1960.9 1571.68 1956.34C1570.6 1950.48 1542.03 1970.2 1539 1972C1542.15 1955.76 1563.36 1915.36 1550 1902M1933 1904L1933 1907L1937 1907L1937 1904L1933 1904M1210 2006C1220.94 2003.13 1230.28 1991.51 1241 1986.53C1272.68 1971.82 1303.51 1958.97 1334 1941.42C1343.88 1935.74 1354 1930.84 1364 1925.41C1365.79 1924.44 1373.56 1920.97 1370.89 1917.87C1366.7 1913 1336.9 1932.63 1332 1935.53C1302.22 1953.13 1272.97 1968.04 1241 1981.15C1229.86 1985.72 1212.97 1992.93 1210 2006M1940 1923.59C1954.31 1919.57 1954.7 1927.49 1941 1931.21C1931.13 1933.89 1931.67 1925.93 1940 1923.59M210.011 1930.63C208.481 1930.93 201.132 1933.86 204.892 1936.19C213.624 1941.58 230.926 1934.6 233.282 1951C235.865 1968.99 188.834 1987 219.078 2003.93C222.437 2005.81 226.158 2006.84 230 2006.93C234.234 2007.04 239.829 2006.81 243.849 2005.41C248.598 2003.74 247.04 1999.75 242.929 1998.66C235.031 1996.55 219.389 2003.24 216.386 1990.85C211.517 1970.78 256.987 1962.14 233.155 1938.32C230.369 1935.54 226.641 1934.23 223 1932.95C218.802 1931.47 214.531 1929.72 210.011 1930.63M461 2111C453.309 2111.95 446.992 2117.75 439 2116.26C383.86 2105.98 409.346 2049.01 435.897 2023.62C463.367 1997.36 464.798 2043.14 488 2039.71C496.673 2038.42 504.344 2029.52 511 2024.38C533.846 2006.72 552.367 1982.2 572.783 1961.78C576.632 1957.93 597.174 1938.86 592.656 1932.79C589.899 1929.08 581.92 1942.52 580.32 1944.32C567.847 1958.32 553.323 1970.39 541.581 1985C529.531 1999.98 508.631 2029.03 488 2031.8C472.146 2033.92 472.566 2013.28 459 2009.04C433.4 2001.05 402.683 2045.77 395.985 2066C388.474 2088.69 408.514 2111.04 427 2119.22C438.163 2124.16 457.263 2127.67 461 2111M643 2027C633.097 2038.88 614.337 2044.89 602 2054.71C599.358 2056.81 588.919 2061.4 590.224 2065.69C592.092 2071.82 605.407 2061.25 608 2059.67C621.518 2051.45 634.681 2042.68 648 2034.16C649.972 2032.9 659.326 2025.06 660.972 2029.48C662.704 2034.13 654.096 2038.6 652 2042C655.81 2041.79 659.294 2040.84 663 2040C660.459 2049.21 658.561 2058.61 656.824 2068C655.694 2074.1 655.323 2115.79 660.528 2112.03C665.95 2108.12 662.032 2094.61 662.003 2089C661.904 2070.01 678.203 2033.47 666.506 2016.82C662.111 2010.56 641.751 2020.84 636 2022.08C629.342 2023.52 612.321 2025.59 608.102 2018.33C606.541 2015.64 611.019 2011.33 608.898 2009.45C604.192 2005.28 593.372 2016.74 589.902 2003.98C586.359 1990.96 617.714 1962.75 624.817 1953C626.05 1951.31 636.703 1935.99 628.992 1936C625.105 1936.01 611.266 1960.98 607.744 1964.99C599.65 1974.21 580.686 1991.82 580.848 2005C581.156 2030.06 627.054 2030.72 643 2027M2076 1976C2073.75 1988.69 2077.67 2002.88 2073 2015C2062.8 2008.13 2056.35 1994.15 2052 1983C2060.08 1981.01 2067.67 1976.67 2076 1976M1448 1977C1447.54 1979.33 1447.54 1980.67 1448 1983C1448.75 1980.7 1448.75 1979.3 1448 1977M2048 1986C2047.37 1989.22 2047.37 1991.78 2048 1995C2043.23 1994.03 2040.42 1992.26 2038 1988C2041.44 1986.71 2044.31 1985.86 2048 1986M1344 1995C1347.1 1997.71 1353.02 1997.59 1354 1993C1350.54 1993.34 1347.32 1993.96 1344 1995M1408 2013C1411.8 2019.16 1422.89 2022.59 1422.36 2031C1420.26 2064.53 1356.68 2071.87 1345.87 2040C1330.4 1994.41 1401.44 1986.11 1407 2029C1415.08 2025.66 1407.59 2018.6 1404.37 2014C1396.42 2002.64 1386.5 1994.56 1372 1994.04C1328.96 1992.5 1329.09 2059.25 1370 2066.48C1387.85 2069.63 1409.25 2059.5 1420.57 2045.96C1431.96 2032.34 1425.37 2015.64 1408 2013M2052 1999C2050.82 1998.23 2050.77 1998.18 2050 1997C2051.64 1997.55 2051.46 1997.36 2052 1999M918 2001.54C867.953 2011.16 870.572 2106.04 932 2094.48C957.894 2089.61 957.653 2069.03 958.365 2048.02C958.559 2042.28 964.142 2039.07 963.688 2033C962.143 2012.31 937.04 1997.88 918 2001.54M937 2018C961.887 2016.29 959.882 2077.44 938.783 2087.37C886.873 2111.81 875.381 2036.37 911.003 2010.83C918.297 2005.6 948.553 2003.93 937 2018M1147 2014C1147.73 2036.38 1173.41 2055.1 1189 2067.75C1191.48 2069.76 1206.64 2083.64 1209.53 2080C1212.54 2076.21 1198.3 2067.46 1196 2065.66C1183.7 2056.04 1172 2045.36 1162.38 2033C1157.23 2026.38 1155.55 2017.15 1147 2014M1640 2015.55C1666.04 2015.39 1662.8 2028.57 1656.07 2047C1654.23 2052.03 1649.3 2068.78 1642.73 2069.04C1622.76 2069.83 1608.02 2015.74 1640 2015.55M650 2024C648.55 2025.61 647.949 2026.06 646 2027C647.263 2025.37 648.1 2024.87 650 2024M957 2028C957.986 2029.48 958 2029.2 958 2031C956.234 2030.02 956.045 2029.78 957 2028M959 2033L957 2036L957 2033L959 2033M456 2037C444.785 2040.1 455.785 2050.96 456 2037M410.571 2065.29C406.382 2068.19 440.801 2082.2 448.03 2075.72C449.662 2074.26 416.5 2061.19 410.571 2065.29M673 2083C673.01 2085.35 673.105 2085.61 675 2087L675 2083L673 2083M308 2096C305.528 2084.6 296.889 2091.57 308 2096M1372 2098C1360.05 2095.93 1343.74 2104.97 1331 2105.86C1299.12 2108.09 1267.79 2104.44 1236 2104.01C1225.37 2103.86 1192.69 2102.19 1192 2088C1180 2091.19 1193.94 2103.28 1200 2104.81C1239.01 2114.67 1283.19 2111.01 1323 2111C1337.83 2111 1361.34 2109.6 1372 2098M803 2127C810.252 2135.14 823.984 2133.43 834 2132.92C858.819 2131.67 880.401 2130.97 904.871 2136.17C920.741 2139.55 896.626 2176.47 904.813 2181.15C910.41 2184.34 911.476 2167.63 912.136 2165C916.192 2148.83 918.665 2140.81 907 2130C930.208 2130 956.172 2124.5 979 2128.99C981.583 2129.5 998.487 2130.69 997.677 2126.08C996.407 2118.85 958.962 2123.97 953 2124C916.38 2124.21 879.556 2124.99 843 2126.92C831.095 2127.55 813.64 2122.94 803 2127M895 2129C898.061 2129.11 900.985 2129.46 904 2130C900.607 2131.06 897.484 2130.46 894 2130L895 2129M1059 2181C1067.28 2183.44 1075.54 2173.5 1079 2167C1071.29 2170.11 1065.69 2176.24 1059 2181z"/>
</svg>
