<?xml version="1.0" standalone="yes"?>
<svg xmlns="http://www.w3.org/2000/svg" width="2200" height="2200">
<path style="fill:#0d0d0d; stroke:none;" d="M942 38C948.365 38.4436 969.481 45.6914 967.155 54.821C964.633 64.7129 940.744 79.4819 933 86.1396C900.52 114.063 869.193 143.706 833 167C850.253 135.416 878.629 114.599 888.291 78C892.721 61.2207 888.405 40.3679 867 41.3054C850.091 42.0461 828.32 53.0781 816.328 64.6047C804.919 75.572 804.176 87.7021 820 94C818.379 89.78 811.784 83.9023 812.796 79.3438C816.901 60.8452 864.952 37.9673 879.756 52.5005C887.244 59.8508 884.61 71.9822 882.299 81C876.006 105.56 856.675 125.918 842.32 145.992C839.868 149.422 817.787 173.025 830.071 173.399C840.581 173.72 853.064 159.744 861 154.059C889.105 133.929 913.692 109.996 940 87.7578C945.743 82.9036 966.411 57.9922 974.038 60.5437C983.128 63.585 991.829 82.3384 996.681 90C1013.25 116.159 1023.13 144.857 1036.94 172.36C1041.46 181.37 1043.9 195.575 1052 202C1045.06 166.055 1024.95 126.631 1006.86 95C1001.51 85.6487 980.043 64.5945 980.478 54.2141C980.859 45.1309 1013.37 24.5969 1021 19C1003.55 13.4014 990.912 45.6589 975.758 48.4963C970.458 49.4888 961.097 37.3555 956 35.0115C950.833 32.6353 944.539 32.1926 942 38M597 199C583.551 196.116 543.21 202.928 541.323 221C540.676 227.198 553.746 240.664 556.085 248C557.661 252.943 557.236 268.292 559.907 271.16C565.006 276.633 594.068 266.498 602.978 268.284C611.952 270.083 620.244 296.251 609.756 300.634C597.573 305.726 570.212 296.766 558.019 293.015C552.138 291.206 543.688 284.735 537.822 290.284C524.882 302.524 539.962 341.068 516 348C522.122 350.074 529.584 349 536 349C526.102 341.514 537.804 319.665 540.734 309C541.604 305.835 541.251 297.112 544.501 295.581C548.283 293.799 557.199 299.98 561 301.221C570.948 304.467 609.875 314.435 617.197 305.716C623.449 298.271 619.825 266.198 610.584 261.84C599.456 256.593 575.628 270.399 566.781 263.733C561.331 259.626 560.893 243.386 558.269 237.007C556.422 232.519 549.306 225.961 550.055 221.048C551.846 209.304 581.741 204.552 591 204.083C594.56 203.903 604.575 206.706 606.456 202.536C609.893 194.918 584.475 180.194 580 175C599.537 174.922 620.576 170.999 640 169.214C645.841 168.677 658.564 165.729 663.127 170.814C666.965 175.09 658.59 185 656.648 189C650.307 202.054 646.327 215.94 640.333 228.96C638.177 233.643 630.976 239.172 631.764 244.716C633.297 255.487 673.325 245.141 678.821 253.862C681.047 257.392 674.451 265.044 672.697 268C666.158 279.023 653.936 291.733 652.756 304.978C651.494 319.135 683.824 311.059 690.155 318.781C694.152 323.657 680.234 343.607 678 349C685.539 348.467 703.485 323.594 700.413 316.148C695.357 303.896 664.965 315.308 661.099 301.816C656.683 286.405 712.405 247.552 673 245.071C668.663 244.797 664.339 244.207 660 244.038C653.577 243.787 647.381 242.604 641 242C648.289 223.41 655.907 205.037 664.647 187C666.965 182.217 674.897 171.684 673.039 166.284C670.331 158.415 643.404 162.214 637 162.783C599.358 166.126 563.867 172.399 526 171C540.163 148.17 560.448 126.828 566.874 99C568.654 91.2891 572.964 64.2905 580.277 60.8215C586.927 57.6667 597.848 60.9937 605 61C625.986 61.0188 647.091 61.6433 668 59.7827C673.59 59.2854 693.778 59.1553 695.894 52.3086C698.893 42.6062 675.716 45.9802 672 47C676.879 49.5166 682.437 47.9397 687 51C659.612 56.1006 628.866 57.2278 601 54.8818C593.463 54.2473 583.94 49.8052 577 49.9536C547.817 50.5776 511.698 60.1184 482 65.8113C472.63 67.6074 423.247 77.0183 423.625 59.0186C423.762 52.4736 435.091 49.6665 440 48.3984C458 43.748 476.635 45.364 495 43.8713C546.44 39.6904 605.318 37.0232 657 42.5593C671.234 44.084 691.666 36.0076 704.723 45.1235C712.776 50.7451 710.283 98.0186 706.219 106.9C702.852 114.255 688.948 115.085 682 117.325C655.733 125.797 629.554 123.566 603 128.706C599.297 129.423 570.095 133.305 572.106 138.362C573.475 141.806 584.422 137.991 587 137.542C603.201 134.719 618.654 133.236 635 131.783C654.447 130.054 673.516 126.44 692.078 120.569C697.504 118.853 705.997 119.128 710.285 115.138C714.854 110.888 713.998 102.635 714 97C714.005 81.1328 719.618 57.1738 714.396 42.2061C712.267 36.1042 702.966 38.2727 698 37.7751C680.64 36.0354 664.554 37 647 37C590.069 37 533.612 39.6877 477 39.9976C461.305 40.0835 424.871 37.8748 416.379 55.0212C413.817 60.1943 420.959 70.74 425.656 73.1858C440.864 81.1052 460.585 73.175 476.845 85.0027C480.015 87.3086 491.826 95.6753 490.239 100.179C488.958 103.813 476.154 102.929 473 103.217C454.361 104.917 432.593 104.452 414 101.861C409.862 101.284 393.941 98.2788 392.039 103.499C390.456 107.844 395.66 116.131 395.921 121C396.22 126.576 389.26 145.625 392.27 148.74C395.087 151.657 404.28 150.001 408 150C426.94 149.995 453.29 138.648 459.062 164C460.101 168.56 460.205 173.345 459.863 178C458.276 199.592 426.338 194.042 411 194.001C407.103 193.99 393.85 190.614 392.603 195.274C390.931 201.519 397.679 211.348 399.809 217C402.345 223.726 400.318 237.898 403.308 242.48C405.874 246.411 413.302 243.28 417 243.081C427.723 242.505 442.518 243.07 452.979 245.365C459.087 246.706 471.757 266.542 467.899 272.499C462.603 280.677 429.805 278.008 421 278C417.66 277.997 408.593 275.942 406.308 278.862C403.916 281.92 407.528 287.604 407.68 291C408.065 299.635 400.577 324.589 407.822 330.974C411.053 333.822 417.279 330.336 421 330.105C431.74 329.438 443.15 331 454 331C472.289 331 512.945 336.521 525.858 320.278C532.549 311.862 527.984 288.363 525.798 279C520.378 255.789 509.915 216.218 517.703 193.019C527.204 164.716 585.446 177.721 597 199M1806 349C1797.13 333.922 1775.25 325.44 1760.56 317.182C1719.23 293.949 1675.21 277.73 1639.01 245.942C1629.43 237.534 1613.07 226.435 1608.29 214.258C1606.03 208.505 1629.94 203.517 1634 201.761C1659.46 190.739 1694.98 179.786 1714.85 159.741C1723.51 151.002 1708.01 137.01 1703.56 128.864C1688.26 100.819 1674.58 62.49 1646 45.0437C1618.7 28.3772 1580.19 35.6233 1553 48.9761C1541.98 54.3901 1526.82 63.6199 1525.24 77C1521.83 105.875 1550.15 130.762 1558.87 157C1563.91 172.146 1555.09 200.41 1552.37 215.989C1550.14 228.798 1509.99 232.775 1499 235.634C1489.81 238.023 1479.45 241.361 1485.8 252.981C1493.72 267.459 1537.46 283.754 1552.18 271.74C1562.22 263.545 1549.2 231.326 1561.28 224.744C1567.34 221.444 1593.7 213.056 1599.91 215.52C1615.61 221.743 1632.56 249.284 1647 260.124C1682.97 287.134 1724.67 305.757 1765 325.277C1778.62 331.871 1791.37 345.466 1806 349M1186 73C1184.13 69.1416 1179.88 64.5757 1181.13 60.0007C1182.55 54.7844 1197.73 41.6555 1203.78 45.7786C1210.92 50.6475 1208.39 68.1238 1207.18 75C1203.09 98.2952 1197.02 121.569 1193.94 145C1192.99 152.263 1192.68 170.252 1187.5 175.403C1182.2 180.671 1159.67 185.976 1152.03 187.608C1148.77 188.303 1145.83 182.878 1143.87 184.407C1140.37 187.135 1143.49 193.345 1142.43 197C1139.33 207.586 1126.25 214.867 1125.48 226C1123.29 257.403 1182.98 241.714 1183 269L1186 269C1186 265.062 1184.92 257.778 1190.15 256.737C1203.16 254.149 1224.49 261.241 1238 262.679C1260.81 265.106 1286.54 263.315 1309 259C1284.99 280.464 1236.61 271.607 1218.2 303.155C1211.91 313.942 1222.38 319.449 1231 323.079C1246.43 329.578 1276.01 342.522 1291.96 332.605C1316.51 317.345 1301.98 284.921 1315.24 265.453C1323.66 253.099 1356.05 255.775 1369 255C1365.38 247.114 1352.74 252.947 1346 253C1361.37 240.145 1387.37 233.799 1405 222.811C1411.62 218.684 1422.83 214.501 1424 206C1397.97 219.806 1374.88 235.651 1347.14 246.516C1341.58 248.691 1324.35 257.689 1318.86 253.604C1315.75 251.289 1318.86 243.034 1319.54 240C1322.63 226.166 1325.14 213.08 1326.94 199C1327.25 196.612 1331.85 183.692 1327.08 183.761C1322.81 183.823 1322.2 197.029 1321.82 200C1320.18 213.074 1318.57 242.01 1310.78 252.499C1306.88 257.754 1291 256.823 1285 257.011C1260.95 257.767 1237.95 257.764 1214 254.58C1207.55 253.723 1190.15 254.651 1186.82 247.716C1181.44 236.517 1186.87 192.119 1193.94 182.241C1198.62 175.706 1212.72 173.709 1220 171.173C1236.69 165.363 1256.73 157.714 1269.3 144.821C1301.7 111.585 1249.26 40.6472 1211 39.1775C1195.16 38.5691 1156.71 62.5671 1186 73M1576 72C1573.3 91.115 1568.61 110.77 1565.32 130C1564.94 132.241 1564.34 148.474 1561.3 147.239C1557.48 145.69 1553.34 132.715 1551.34 129C1543.3 114.075 1521.38 86.2856 1534.56 69.043C1555.06 42.2507 1602.8 36.9385 1633 44.6064C1665.4 52.8325 1681.47 99.1804 1696.14 125C1699.41 130.751 1713.89 148.57 1711.5 154.821C1708.95 161.463 1695 167.159 1689 170.237C1668.47 180.775 1647.59 190.961 1626 199.092C1619.94 201.373 1607.8 207.397 1601.33 205.082C1590.78 201.31 1573.66 172.089 1569.18 162C1557.38 135.393 1584.6 99.7861 1576 72M1210 44C1249.99 45.5747 1300.86 123.086 1255.94 149.24C1241.65 157.558 1225.63 164.063 1210 169.335C1207.14 170.299 1197.05 175.925 1194.9 172.157C1191.59 166.363 1198.92 147.591 1200.08 141C1204.96 113.179 1223.35 70.2991 1210 44M557 60.3203C582.6 57.6343 563.344 95.5137 557.277 110C550.866 125.308 540.776 141.434 531.219 155.001C527.45 160.35 518.898 164.145 516.552 170.097C504.317 201.144 510.602 242.863 518.401 275C522.778 293.034 526.141 320.269 502 323.543C479.622 326.577 455.482 325.599 433 324.979C429.469 324.882 412.658 323.418 411.504 320.491C409.657 315.804 411.232 286.196 415.501 283.958C422.438 280.321 442.364 282.57 451 281.361C456.983 280.524 476.663 284.648 475.73 274.97C475.019 267.598 466.112 241.516 458.804 239.142C446.134 235.027 422.845 244.792 411.685 236.616C408.1 233.99 402.156 210.994 401.472 206.062C400.013 195.558 417.699 200.49 423 200.704C441.651 201.455 463.945 199.794 466.705 180C470.887 150.005 454.309 141.442 429 142.944C424.31 143.222 401.027 147.343 399.84 141.616C399.209 138.573 400.054 109.497 401.268 108.262C405.181 104.285 421.676 108.9 427 108.979C446.207 109.264 482.15 115.104 499.643 106.439C509.81 101.403 473.209 78.5264 474.761 74.6772C476.21 71.0847 490.46 70.3435 494 69.4387C514.061 64.3113 536.358 62.4861 557 60.3203M1851 161C1872.39 157.966 1899.29 156.121 1918.14 168.794C1922.57 171.776 1934.03 177.706 1933.5 184.04C1932.52 195.933 1920.74 218.779 1914.12 228.922C1911.53 232.895 1902.45 240.873 1906.29 246.219C1908.95 249.928 1918.68 251.107 1922.86 252.758C1945.25 261.592 1971.14 253.904 1994 258C1981.51 277.182 1976.06 300.115 1963.05 319C1960.11 323.257 1954.85 334.632 1949.7 336.156C1942.36 338.327 1928.33 320.949 1923.7 316.32C1900.63 293.277 1877.24 268.499 1851 249C1851.17 260.391 1861.34 266.143 1869.14 273.217C1888.51 290.793 1906.5 310.568 1926.32 327.496C1930.59 331.141 1948.1 349.051 1953.43 345.108C1970.41 332.549 1980.08 298.846 1989.17 280.438C1992.82 273.045 1996.31 260.33 2005.01 257.597C2038.53 247.067 2060.08 279.884 2087 292.181C2090.68 293.863 2114.48 309.056 2115.89 304.56C2117.33 299.984 2103.21 293.418 2099.94 291.658C2084.73 283.463 2071.51 274.017 2056.96 264.698C2054.51 263.13 2043.52 258.641 2043.52 255.48C2043.52 254.251 2077.52 252.395 2080.8 251.458C2090.83 248.595 2105.99 219.65 2106.85 210C2109.27 183.122 2100.11 156.001 2095.42 130C2094.44 124.552 2099.1 106.948 2091.17 105.888C2084.43 104.989 2075.73 129.878 2072.95 135C2062.37 154.508 2051.86 175.448 2039.33 193.783C2031.15 205.769 2016.59 218.768 2013 233C1995.26 222.916 1979.09 207.167 1963 194.562C1958.67 191.171 1947.31 185.354 1945.85 179.841C1944.93 176.346 1950 168.752 1950.97 165C1955.98 145.486 1965.23 130.074 1973.83 112C1979.29 100.53 1984.37 88.8813 1990.55 77.7827C1991.63 75.8555 1995.54 67.6472 1989.98 68.4409C1981.5 69.6526 1977.4 88.4087 1974.92 95C1967.61 114.465 1953.56 130.985 1947.74 151C1946.14 156.504 1945.45 171.003 1939.6 173.718C1934.3 176.17 1924.06 165.041 1920 162.331C1906.22 153.138 1884.04 152.501 1868 153.04C1861.21 153.268 1851.62 152.664 1851 161M204 178C221.161 180.114 237.477 164.982 252.96 159.019C256.29 157.736 260.891 152.317 264.554 153.127C274.213 155.262 277.37 189.554 273.177 196C253.446 226.329 232.449 255.92 213.222 286.554C205.142 299.428 193.443 312.331 189 327C216.52 304.295 238.636 259.86 258.185 230C265.114 219.417 271.288 205.209 281 197C281.84 207.08 300.696 249.56 314.656 244.992C319.439 243.426 321.667 233.381 324.285 229.441C335.982 211.84 348.999 193.737 349 172C339.664 188.381 329.843 226.464 312.503 235.894C308.142 238.266 304.228 230.853 302.457 228C296.764 218.826 284.242 202.315 285.197 191C285.988 181.624 299.59 170.169 305.989 164.218C307.247 163.048 314.063 157.837 311.03 155.705C304.601 151.185 285.945 178.054 282 182C273.098 153.441 274.528 127.929 265.269 100C262.549 91.7957 251.676 76.3989 241.156 78.6597C233.511 80.3027 247.81 104.009 249.46 109C252.581 118.44 262.936 132.859 262.11 142.823C261.277 152.857 221.26 169.049 212 171.341C205.718 172.896 182.107 169.674 180.054 176.547C178.124 183.009 191.538 180.2 195 181.585C211.339 188.121 238.604 194.043 221.24 215.772C199.707 242.718 162.57 222.363 149.943 199C142.207 184.685 143.665 167.537 143.981 152C144.067 147.807 145.832 118.643 139.801 118.643C135.716 118.643 136.998 129.598 137 132C137.014 147.153 135.803 163.021 137.661 178C140.614 201.808 155.855 233.778 184 235.86C201.963 237.189 243.879 221.758 234.738 196.099C230.279 183.584 210.945 186.733 204 178M263 125C255.342 118.179 249.506 95.9189 246 86C259.801 90.9072 266.381 111.634 263 125M172 108C184.738 107.35 175.84 98.2148 172 108M2089 120C2089.03 141.297 2096.47 165.927 2099.05 187.562C2100.36 198.532 2104.29 208.369 2098.11 219C2084.35 242.687 2071.29 249 2044 249C2036.04 249 2019.34 247.354 2017.36 236.763C2015.94 229.145 2033.93 210.43 2038.7 204.302C2058.35 179.059 2072.18 148.128 2087 120L2089 120M264 127C265.459 129.407 265.834 131.188 266 134C264.431 131.61 263.704 129.859 264 127M89 277C102.191 279.957 85.7663 252.341 83.8684 247C77.7768 229.857 69.1695 214.677 62.2168 198C59.0162 190.323 59.3563 181.204 53.5771 174.931C49.8664 170.904 46.1314 173.586 42.5643 170.964C37.3172 167.108 33.9742 156.307 38.7132 151.365C45.7612 144.016 63.8505 151.195 69.8015 157.239C85.198 172.878 98.9583 212.375 126.705 181.745C129.214 178.975 130.196 173.961 125.007 173.752C114.467 173.328 110.338 188.726 97.0411 182.094C79.4212 173.305 67.3294 123.372 37.0506 143.169C26.3329 150.177 29.475 161.137 35.3348 169.997C47.3265 188.128 61.4117 204.464 69.1916 226C74.1354 239.685 75.0699 256.305 81.0345 271.04C82.9402 275.748 87.7349 305.396 93.6269 304.456C98.8713 303.62 89.833 280.757 89 277M317.162 151.083C313.835 151.548 315.736 155.728 318.542 154.92C321.323 154.119 319.605 150.742 317.162 151.083M1566 167C1576.91 179.128 1587.58 195.015 1596 209C1589.14 211.531 1565.42 222.955 1558.86 217.699C1552.39 212.512 1563.43 174.398 1566 167M1815 171C1796.8 189.057 1791.74 205.682 1816 224C1815.66 212.817 1803.86 205.752 1803.59 195C1803.33 185.162 1818.38 181.626 1815 171M1184.7 182.862C1189.87 183.816 1185.94 197.442 1185.4 201C1183.29 214.943 1188.35 251.46 1171 248.853C1159.89 247.185 1134.25 241.041 1131.26 227.997C1129.85 221.85 1137 215.407 1140.24 211.003C1150.01 197.713 1164.8 179.188 1184.7 182.862M1942.1 187.558C1949.17 187.084 1960 199.247 1965.22 203.445C1981.93 216.908 2032.35 248.671 1982.92 252.881C1970.58 253.932 1924.16 253.142 1917.01 241.552C1914.45 237.411 1919.35 232.297 1921.4 229C1926.06 221.529 1932.41 188.207 1942.1 187.558M1549.7 227.902C1554.59 228.666 1550.01 261.209 1546.64 265.178C1541.93 270.71 1520.37 266.711 1514 265.465C1508.69 264.427 1483.65 252.815 1489.93 245.088C1497.33 235.976 1523.22 236.152 1534 232.349C1538.43 230.786 1544.88 227.151 1549.7 227.902M2024 252C2017.96 250.639 2013.15 250.633 2007 251C2010.12 240.163 2020.51 242.284 2024 252M116 259L116 266L119 266L119 259L116 259M260 262C259.925 264.771 260.229 265.075 263 265L263 263L260 262M85 266C86.6566 267.641 87.3264 268.767 88 271C85.2428 270.195 84.1802 268.83 85 266M1309 266C1306.78 283.242 1306.14 319.227 1287.97 328.279C1274.48 335.002 1246.88 324.815 1234.44 318.586C1230.72 316.723 1220.9 313.956 1220.74 308.898C1220.51 301.575 1233.72 294.767 1239 291.722C1258.19 280.658 1287.14 269.885 1309 266M126.5 280.5C125.872 281.128 126.873 282.127 127.5 281.5C128.127 280.873 127.128 279.873 126.5 280.5M144.357 307.758C141.81 308.708 142.568 313.917 145.452 312.895C148.013 311.988 147.219 306.69 144.357 307.758M551 348C556.294 349.793 562.457 349 568 349C562.561 346.192 556.845 347.225 551 348M588 348C593.014 349.699 598.751 349 604 349C599.279 346.103 593.34 347.951 588 348M281 640C266.449 628.279 237.456 629.756 220 619.732C187.38 601.002 173.625 547.151 129 553C161.063 523.167 200.719 508.347 239 489C241.621 531.714 272.619 518.862 298 501.259C303.513 497.436 320.031 488.473 321.776 481.879C323.064 477.016 312.983 475.613 310 474.641C295.251 469.834 285.878 469.079 270.981 474.144C261.603 477.333 251.802 478.214 243 483C235.712 460.007 226.973 431.11 226.04 407C225.886 403.003 223.491 385.924 215.52 390.365C211.346 392.69 219.305 402.698 218.095 407C208.937 439.551 169.856 468.123 147 491C144.114 493.889 122.223 514.432 125.408 517.975C129.035 522.011 145.473 501.594 147.941 499.003C167.302 478.68 189.456 459.878 205.879 437C207.863 434.235 218.866 413.812 222.518 418.568C226.782 424.121 226.224 439.947 227.51 447C229.174 456.122 238.828 473.866 235.335 482.764C232.532 489.901 211.724 494.614 205 497.799C180.602 509.357 157.976 522.303 136.96 539.368C131.587 543.73 119.58 549.57 117.864 556.796C116.993 560.464 121.628 560.578 124.009 560.308C139.739 558.522 150.635 560.355 164 569.968C175.969 578.577 178.848 591.67 188.158 602C207.497 623.456 250.624 647.672 281 640M2151 528C2146.4 493.44 2136 461.615 2136 426C2136 421.677 2139.58 394.643 2134.33 394.643C2128.73 394.643 2131 423.77 2131 428C2131 452.92 2132.79 478.88 2139.44 503C2141.68 511.124 2143.65 522.974 2151 528M808 550C806.526 558.176 805.587 570.77 811.978 577.315C815.926 581.358 824.764 580.767 830 582.332C846.707 587.328 880.318 596.146 896.997 587.74C917.458 577.428 903.142 550.694 890.992 540.524C883.831 534.53 876.107 529.183 868 524.575C857.127 518.395 845.75 510.881 833 510C846.742 482.538 867.752 456.543 887.255 432.999C892.133 427.111 907.654 413.307 904.079 404.303C902.17 399.494 873.791 403.215 868 402.922C841.559 401.583 815.773 394.616 789.136 400.078C777.98 402.365 765.905 404.645 762.088 417.001C760.125 423.356 764.688 429.839 765.981 436C770.488 457.48 772.209 470.766 788.136 486.978C794.024 492.971 812.479 501.293 812.819 510.003C814.135 543.732 783.795 570.494 776.202 603C774.795 609.023 767.762 617.01 769.138 623.019C773.435 641.786 797.42 666.78 816 671.019C819.431 671.801 828.377 680.603 830.88 677.353C833.831 673.523 827.854 668.183 824.844 666.682C808.327 658.442 795.589 655.731 785.398 637.981C771.222 613.289 787.574 570.17 808 550M643 512C651.487 527.219 657.554 525.326 670 516C670 535.885 673.446 559.584 669.242 579C668.129 584.137 669.458 593.282 664.635 596.542C639.581 613.47 600.762 616.562 573.007 629.851C566.075 633.171 546.739 643.402 546.984 652.55C547.134 658.149 566.64 662.13 571 663.667C594.695 672.025 624.207 689.677 650 680.698C668.825 674.146 673.056 640.109 673.922 623C674.225 617.019 671.651 605.489 675.822 600.664C684.187 590.988 714.898 593.856 716 579C702.101 584.394 688.107 589.138 674 594C674 554.479 674.211 516.4 683.323 478C684.297 473.896 691.23 445.269 683.075 445.925C678.989 446.254 677.731 457.896 677.034 461C673.874 475.061 675.64 493.389 668.363 506C666.155 509.828 660.411 518.207 655.067 516.456C647.325 513.92 645.27 496.799 645.042 490C644.417 471.344 656.195 429.466 638.446 414.833C634.822 411.845 631.721 415.612 627.882 415.057C609.196 412.354 597.731 413.629 582.438 426.556C577.231 430.957 569.753 443.744 562.783 444.695C555.565 445.68 529.761 413.19 522.028 424.523C519.277 428.555 527.967 439.368 529.995 443.217C534.631 452.017 540.291 466.834 552.999 464.594C557.373 463.822 560.759 458.002 565.136 458.605C571.342 459.461 578.249 467.296 582.999 471.007C589.038 475.725 606.596 494.475 614.856 492.696C623.078 490.925 613.755 483.722 610.997 482.207C599.696 476.001 590.373 467.627 580 460.079C577.468 458.236 569.808 455.338 569.565 451.761C569.271 447.433 577.298 441.704 580.001 439C589.914 429.082 608.714 413.207 623.992 420.722C637.04 427.141 634.096 444.199 635.554 456C640.057 492.432 641.909 522.999 607 544.44C577.699 562.437 552.357 547.716 526 532.523C520.427 529.31 504.325 526.044 502.142 519.678C495.857 501.352 505.944 469.333 506.922 450C507.563 437.333 507.469 424.669 508.277 412C508.394 410.164 507.92 400.077 503.717 403.969C499.191 408.161 501.944 425.008 501.32 431C498.477 458.329 504.325 490.306 496.794 516.845C495.176 522.547 486.519 519.746 482 520.236C470.372 521.498 457.284 524.714 448.11 532.068C418.495 555.812 443.663 626.06 484.949 619.549C491.96 618.443 492.543 608.567 493.4 603C496.1 585.46 497.532 567.522 499.67 549.993C500.186 545.758 497.72 531.92 502.501 529.979C512.705 525.838 536.971 545.493 546 549.832C579.545 565.95 632.448 553.856 643 512M895 410C892.579 420.66 882.368 429.901 875.62 438.136C863.394 453.057 853.026 469.009 842.333 485C839.686 488.957 829.327 508.652 823.482 504.108C818.443 500.191 822.096 485.483 822.861 480C825.878 458.356 826.227 435.821 827 414C819.107 416.909 818.64 426.447 819.225 434C820.916 455.846 815.201 477.237 815 499C785.84 489.984 778.379 464.833 773.654 439.136C771.542 427.654 764.205 416.621 778.008 409.463C810.177 392.781 860.368 410 895 410M1900 453C1901.68 446.834 1927.19 443.332 1934 441.63C1964.14 434.095 1997.13 428.159 2028 425.134C2035.9 424.361 2057.77 426.715 2062 419C2020.52 419 1977.4 426.927 1937 435.783C1931.4 437.011 1888.63 447.779 1900 453M1224 424C1213.31 469.78 1216.68 519.497 1210.14 566C1208.04 580.926 1197.34 608.775 1204.48 622.912C1208.84 631.539 1221.31 634.164 1230 635.164C1252.08 637.705 1288.13 639.191 1308.72 630.138C1314.51 627.592 1310.96 616.855 1311.66 612C1314.09 595.009 1315.37 577.126 1313.68 560C1313.31 556.209 1315.33 546.593 1311.39 544.447C1306.04 541.527 1266.78 559.665 1269.87 563.403C1276.22 571.061 1296.4 552.298 1305.5 554.356C1309.41 555.24 1308.22 565.926 1308.56 569C1309.99 581.677 1310.57 605.44 1304.62 616.978C1301.12 623.753 1290.91 626.132 1284 627.67C1266.84 631.491 1220.55 637.753 1210.39 617.951C1205.16 607.761 1213.11 585.845 1214.84 575C1220.23 541.288 1219.75 506.803 1224.33 473C1225.88 461.587 1235.21 431.342 1224 424M1663 426C1640.46 432.105 1616.08 448.565 1598 463.019C1595.77 464.799 1577.93 478.618 1581.89 481.464C1585.05 483.737 1597.42 470.35 1600 468.345C1614.26 457.245 1629.85 448.045 1646 439.998C1652.74 436.642 1661.89 434.358 1663 426M532 433C537.115 434.689 560.458 447.689 555.108 454.414C546.211 465.598 533.121 439.347 532 433M594 433L595 434L594 433M1354 447C1353.64 456.126 1364.18 461.957 1362.61 471.96C1361.91 476.459 1358.35 480.592 1354.9 483.347C1321.32 510.209 1319.27 438.513 1343.86 457.868C1349.55 462.344 1352.78 469.165 1359 473C1358.07 461.485 1339 437.736 1326.42 449.565C1321.46 454.228 1319.63 464.551 1320.66 471C1321.59 476.825 1322.26 483.929 1325.96 488.764C1344.69 513.27 1389.24 468.954 1354 447M1954 464C1955.79 470.37 1976.85 465.104 1983 464.995C2010.14 464.514 2039.7 463.637 2060.94 484.134C2093.63 515.671 2084.72 568.165 2047 589.963C2034.85 596.983 2020.25 604.067 2006 598.569C1959.29 580.549 1958.56 493.421 2010 487C2000.81 471.643 1982.34 489.331 1977.24 499.184C1965.46 521.909 1963.44 550.103 1972.39 573.96C1988.71 617.453 2034.09 608.304 2062.86 585.912C2097.82 558.705 2092.54 496.813 2055.92 473.062C2043.64 465.098 2029.5 461.184 2015 459.962C1994.1 458.202 1974.58 460.167 1954 464M2062 469C2062.94 470.948 2063.39 471.55 2065 473C2065.07 470.17 2064.73 469.734 2062 469M313 480C306.249 492.562 271.14 517.456 256.049 510.957C250.011 508.357 240.592 491.802 247.504 486.416C255.529 480.162 274.992 477.331 285 476.236C295.102 475.131 303.257 478.988 313 480M1649.29 497.544C1645.32 498.205 1644.45 515.508 1643.85 519C1639.86 542.33 1641.45 567.3 1639.93 591C1639.65 595.381 1633.18 615.997 1641.74 615.997C1645.35 615.997 1645.99 594.759 1646.44 591C1649.27 567.002 1646.68 542.79 1650.14 519C1650.56 516.151 1656.11 496.406 1649.29 497.544M818 523C815.121 508.681 829.638 508.748 818 523M831.234 515.281C848.108 511.183 885.778 539.55 894.622 552.008C901.959 562.344 906.31 577.477 890.561 582.193C875.939 586.571 828.44 582.346 817.899 570.414C808.633 559.925 816.848 518.774 831.234 515.281M71.2355 521.625C65.0813 524.23 84.3782 548.5 83.918 554.933C83.4799 561.058 62.5682 558.666 62.5682 570.794C62.5682 579.179 85.7314 571.393 90.8159 574.26C99.3949 579.098 105.162 597.294 111.095 605.104C118.963 615.462 123.481 630.531 129.953 642C131.754 645.191 134.463 654.315 139.723 652.375C146.975 649.701 133.64 635.803 135.186 630C137.521 621.241 162.322 591.615 141.997 589.366C133.852 588.464 120.341 597.63 113.262 593.035C107.228 589.118 111.4 579.712 109.06 574.029C106.858 568.679 101.205 568.318 97.5181 564.58C89.6565 556.609 85.5604 540.911 80.1178 531C78.6971 528.413 75.4125 519.857 71.2355 521.625M1590 521.864C1558.57 532.586 1577.19 603.86 1609.98 591.171C1632.94 582.284 1614.85 513.389 1590 521.864M480 526.361C483.388 525.891 493.002 524.353 495.177 527.822C497.879 532.13 494.046 540.402 493.448 545C491.553 559.578 491.165 574.369 489.785 589C489.282 594.339 489.965 612.297 482.759 613.519C451.987 618.736 434.052 571.516 442.029 548C447.23 532.669 465.934 528.309 480 526.361M1591.24 527.865C1608.09 521.293 1625.42 579.024 1607.88 585.081C1582.22 593.94 1568.35 536.792 1591.24 527.865M155 537C156.567 543.553 160.456 551.471 167 554C165.61 547.717 160.405 540.498 155 537M1699 541C1699.98 550.402 1703.2 561.224 1710 568C1710.66 559.7 1704.39 547.216 1699 541M167 556C167 557.797 167.014 557.521 168 559L170 556L167 556M751 570C755.859 568.221 760.866 566.252 764 562C758.26 562.461 751.94 563.539 751 570M89 567L69 569C72.6715 563.549 85.8739 559.11 89 567M2085.12 570.524C2082.49 571.07 2083.26 574.597 2085.88 574.123C2088.55 573.64 2087.69 569.991 2085.12 570.524M101 572C102.969 575.622 104.328 578.924 105 583C101.754 580.197 99.4428 576.207 101 572M1261.37 590.261C1247.54 598.926 1282.26 595.88 1268.84 603.491C1261.88 607.439 1244.08 593.185 1243.85 593.649C1237.03 606.997 1268.58 615.232 1276.58 606.675C1285.18 597.464 1270.59 584.478 1261.37 590.261M130 629C126.866 625.845 115.492 604.878 118.348 601.108C121.002 597.605 141.972 591.898 143.91 597.502C146.18 604.065 132.78 622.329 130 629M664.717 602.653C670.633 602.967 668.155 626.47 667.68 631C665.237 654.281 659.407 677.902 632 676.959C611.511 676.255 592.287 664.892 573 659.038C569.051 657.839 554.842 655.87 555.245 650.052C555.764 642.574 572.245 635.737 578 633.097C597.882 623.977 618.276 618.225 639 611.286C645.841 608.996 657.761 602.284 664.717 602.653M1504 602C1505.63 614.521 1521.64 617.796 1531 623.273C1553.02 636.169 1575.29 648.665 1596.87 662.264C1606.21 668.149 1614.42 678.889 1625 682C1619.36 667.889 1601.51 658.909 1589.02 651.759C1561.43 635.972 1533.94 612.889 1504 602M1733 610.012C1710.93 617.893 1692.25 655.627 1677.68 673.019C1675.52 675.587 1658.9 694.292 1660.61 694.438C1666.69 694.956 1677.9 680.457 1681.83 676.42C1697.23 660.571 1710.48 641.507 1724.44 624.34C1728.01 619.945 1738.36 617.989 1740.21 613.647C1742.12 609.2 1735.47 609.131 1733 610.012M1120 612C1121.96 625.621 1138.53 638.242 1149 645.838C1167.02 658.913 1183.86 675.42 1198.68 692C1206.34 700.577 1214.44 714.568 1227 715C1204.64 685.066 1175.49 660.135 1147 636.359C1138.82 629.534 1130.57 614.404 1120 612M1998 637C2007.25 643.689 2031.27 636.416 2042 634.639C2075.32 629.122 2119.63 613.713 2153 618C2149.37 606.574 2124.97 614.843 2116 616.498C2076.87 623.714 2036.81 628.519 1998 637M595 679L594 684C597.054 683.346 596.936 681.993 597 679L595 679M1328 770C1324.24 787.392 1325.46 807.422 1327.44 825C1327.96 829.662 1330.5 842.722 1326.42 846.042C1310.77 858.795 1273.97 836.909 1257.99 846.517C1252.97 849.541 1265.33 858.767 1268 861C1267.16 857.293 1265.32 854.964 1263 852L1310 852C1314.5 851.996 1322.74 850.475 1326.32 853.822C1331.88 859.007 1327.81 874.208 1328.04 881C1328.9 906.75 1331 932.167 1331 958C1331 964.141 1328.95 987.279 1334.39 990.592C1338.76 993.256 1336.57 962.96 1336.22 959C1333.13 924.232 1333 887.08 1333 852L1338 853C1331.83 828.186 1338.93 793.381 1330 770L1328 770M2005 932C2021.73 918.742 2039.07 898.583 2048 879L2047 878C2034.52 886.266 2018.06 925.723 2002.08 925.375C1997.1 925.267 1991.6 915.58 1988.98 912C1978.91 898.246 1970.41 883.201 1956.92 872.264C1953.79 869.724 1941.5 858.841 1937.19 863.776C1934.65 866.684 1944.4 870.555 1946 871.562C1957.77 878.98 1966.52 889.933 1974.84 900.92C1979.48 907.043 1995.02 923.325 1994.56 930.68C1994.25 935.592 1985.48 941.434 1982.01 944.301C1969.66 954.489 1962.39 972.044 1947.68 979.137C1936.75 984.406 1911.66 990.111 1901.82 979.264C1895.79 972.615 1903.05 959.053 1899.77 951C1886.18 917.632 1884.79 882.244 1888.68 846C1889.9 834.665 1888.61 819.99 1894.98 810.044C1903.66 796.462 1924.12 793.082 1938 787.605C1989.13 767.433 2066.25 765.898 2096.1 821C2125.18 874.693 2132.33 964.958 2071 999.957C2039.75 1017.79 1984.06 1016.9 1949 1013.78C1934.44 1012.48 1916.39 1009.25 1904.22 1000.86C1898.58 996.968 1895.02 985.978 1888.94 984.087C1881.49 981.773 1881.24 993.156 1885.37 996.624C1923.82 1028.91 2003.46 1026.21 2050 1013.52C2066.7 1008.97 2084.02 1001.63 2095.6 987.992C2141.19 934.305 2131.29 811.423 2061.56 779.638C2020.87 761.09 1969.99 769.626 1930 784.554C1916.36 789.648 1897.52 793.652 1889.2 807.008C1873.1 832.85 1880.68 884.408 1883.68 913C1885.39 929.271 1891.34 942.639 1893.7 958C1894.92 965.992 1891.1 976.225 1896.72 982.86C1923.22 1014.15 1962.61 972.253 1979.08 955.008C1982.5 951.426 1995.49 936.508 2000.36 936.625C2006.1 936.762 2014.52 947.692 2019 951.144C2029.23 959.027 2041.12 968.662 2054 971.502C2055.52 971.837 2070.79 973.669 2068.89 969.538C2067.97 967.521 2046.77 963.486 2043 961.344C2037.55 958.242 2032.25 954.633 2027.31 950.76C2019.67 944.767 2012.53 938.131 2005 932M1553 850C1534.84 844.697 1563.79 805.045 1574.01 798.537C1610.85 775.063 1666.81 781.997 1708 786.32C1719.42 787.518 1730.99 788.823 1742 792.339C1743.78 792.909 1751.06 795.942 1751.68 792.366C1753.1 784.164 1713.65 780.822 1707.68 779.538C1669.29 771.275 1600.72 769.901 1568.08 794.996C1553.19 806.444 1545.35 825.529 1540.04 843C1537.04 852.881 1546.25 855.591 1553 850M1192 1005C1189.38 1007.28 1188.84 1009.68 1188 1013C1183.22 1006.64 1186 997.5 1186 990L1186 933C1186.01 928.033 1184.32 912.295 1188.37 909.218C1191.68 906.7 1201.64 907.142 1206 906.103C1224.26 901.749 1242.09 898 1261 898C1263.33 898 1283.58 899.239 1282.24 896.519C1280.19 892.385 1264.01 893.024 1260 893.003C1242.95 892.911 1225.49 895.588 1209 899.734C1204.09 900.97 1192.4 904.942 1187.82 901.62C1183.67 898.606 1186 884.62 1186 880C1186 858.658 1184.68 837.323 1183.96 816C1183.8 811.114 1184.54 792.01 1178.84 790.224C1173.68 788.608 1175.89 798.916 1176.32 801C1179.28 815.445 1181 829.17 1181 844C1181 891.059 1181.11 937.98 1181 985C1180.98 992.698 1176.85 1026.11 1186.49 1029.24C1193.37 1031.47 1192.75 1008.5 1192 1005M981.615 791.544C974.584 796.126 983.289 827.88 984.178 835C989.74 879.582 989 924.129 989 969C989 974.352 987.75 1016.04 993.559 1013.21C999.225 1010.46 994.006 978.352 994 972C993.961 928.06 997.328 882.575 990.997 839C989.22 826.767 986.198 814.213 985.118 801.96C984.999 800.606 985.354 789.107 981.615 791.544M425 803C420.747 815.344 439.634 811.45 446 810.389C465.356 807.163 485.645 804.843 505 802.917C510.246 802.395 520.704 800.32 524.667 805.111C530.269 811.885 524.802 842.101 523.917 851C523.58 854.382 520.659 865.778 527.083 865.778C531.777 865.778 532.65 859.674 531.694 856.222C527.4 840.711 540.297 810.505 530.889 797.333C527.567 792.682 501.852 796.837 496 797C474.701 797.592 444.391 812.464 425 803M587 800C577.502 804.133 579.956 819.512 580.003 828C580.106 847.004 579.25 865.976 578.993 885C578.92 890.412 580.051 903.978 576.74 908.274C573.961 911.881 565.793 909.982 562 909.36C548.175 907.093 533.843 908.17 520.04 905.665C515.596 904.859 504.721 899.494 501.969 906.278C500.037 911.044 538.803 914.649 544.04 914.941C551.362 915.349 570.415 913.127 576.179 917.338C580.862 920.759 578.863 937.761 579.04 943C579.881 967.821 581.902 991.068 580.136 1016C579.259 1028.39 579.641 1042.73 581.479 1055C581.935 1058.04 582.91 1065.86 587.558 1065.21C591.903 1064.61 587.519 1053.53 587.237 1051C585.43 1034.79 586.653 1019.16 586.981 1003C587.722 966.514 583.109 928.801 584.036 894C584.825 864.37 591.869 829.04 587 800M1677 816C1682.57 820.804 1718.36 815.638 1718.36 825.775C1718.36 828.4 1705.12 827.02 1703 827.22C1689.36 828.508 1672.32 834.584 1664.05 846.078C1648.95 867.043 1704.52 902.434 1722.87 888.278C1735.8 878.302 1734.42 832.199 1722.78 821.661C1711.33 811.294 1690.93 812.517 1677 816M784.394 827.408C779.397 830.409 782.853 852.433 783.04 858C784.118 890.088 785.822 921.904 785.997 954C786.019 957.929 784.268 989.705 790.542 987.813C794.88 986.505 792.081 956.901 791.981 952C791.335 920.171 790.357 888.77 788.136 857C787.866 853.138 789.698 824.222 784.394 827.408M1749 826C1748.43 830.799 1747.03 835.072 1747 840C1753.47 837.311 1756.79 829.279 1749 826M1704 832.328C1726.88 829.687 1725.02 841.838 1725 861C1724.99 868.3 1725.45 884.115 1715.94 885.71C1701.05 888.205 1663.12 870.002 1667.78 851.019C1670.83 838.613 1693.37 833.554 1704 832.328M1740 838C1740.39 842.064 1741.13 844.359 1745 846C1743.9 842.705 1742.41 840.499 1740 838M133 841C131.421 849.352 135.951 858.361 145.001 859.637C154.713 861.007 165.476 855.217 175 853.641C185.542 851.895 196.395 853.755 207 852.562C211.394 852.067 226.974 849.463 229.762 853.822C232.364 857.889 218.361 882.598 217.122 889C210.849 921.394 223.32 955.054 220.878 987C220.439 992.749 212.356 1027.09 224.039 1027.24C226.416 1027.27 225.105 992.867 225.221 988C226.059 952.671 217.976 918.051 224.734 883C226.161 875.6 241.548 854.916 235.665 849.744C229.401 844.236 213.641 846.704 206 847.562C183.525 850.085 146.369 859.54 133 841M502 1020C490.956 1031.19 448.238 1036.1 443.539 1014C435.282 975.172 451.957 931.493 454.861 893C455.455 885.132 460.839 850.36 447.121 850.106C443.695 850.042 442.96 854.003 444.26 856.466C453.293 873.57 449.077 893.028 445.739 912C441.424 936.528 440.599 960.273 438.864 985C438.045 996.667 434.8 1009.88 439.805 1020.98C449.458 1042.39 473.389 1024.77 486.117 1035.4C492.165 1040.45 478.647 1056.23 495.977 1060.33C497.828 1060.76 501.783 1060.22 500.456 1057.39C498.828 1053.91 494.159 1052.72 492.47 1048.97C483.945 1030.06 516.713 1040.31 518.214 1028.21C518.167 1028.59 503.866 1030.25 502 1020M86.9607 853.339C83.7889 855.48 90.0414 863.112 90.6095 866.003C92.9197 877.759 91.7945 893.32 89.2021 905C82.2651 936.256 74.1881 967.742 74.0025 1000C73.9229 1013.85 72.5195 1029.21 88.0002 1035.65C99.0254 1040.24 114.776 1030.49 126 1029.24C138.545 1027.83 151.257 1024.54 163 1030.72C164.847 1031.69 171.544 1037.15 173.456 1034.11C178.356 1026.34 148.857 1019.5 144.078 1020.44C131.647 1022.89 99.3256 1035.32 88.1471 1029.57C76.8079 1023.74 78.771 1008.26 79 998C79.678 967.61 87.7127 938.454 93.9595 909C96.6456 896.335 98.7979 877.756 96.2936 865C95.6694 861.82 92.6417 849.502 86.9607 853.339M2043 863C2037.29 852.656 2031.53 861.912 2043 863M1656 874C1660.79 861.716 1645.45 866.02 1656 874M845 899C840.743 899.628 837.227 900.009 833 899C865.066 885.975 901.755 881.715 936 879.134C940.782 878.773 966.997 878.599 966.997 872.099C966.997 868.793 933.519 872.896 929 873.44C895.641 877.456 864.118 883.027 832 892.641C826.579 894.263 805.045 895.213 802.969 900.275C802.127 902.331 840.727 909.064 845 899M1706 871C1703.8 872.859 1702.9 874.263 1702 877C1704.15 875.174 1705.67 873.841 1706 871M1740 878L1740 885C1741.77 882.172 1741.91 880.755 1740 878M126 889C128.321 895.3 137.679 898.596 138.504 905.04C141.556 928.852 124.389 962.185 148.081 981.374C163.589 993.935 186.918 971.2 186.918 955C186.918 914.284 162.117 899.53 126 889M1574 980C1568.52 989.521 1549.65 969.926 1550.62 963C1553.53 942.324 1584.43 925.254 1586 904C1571.64 908.026 1551.44 946.442 1546 960C1536.11 947.37 1527.4 929.47 1520.31 915C1519.44 913.222 1513.53 899.75 1510.35 903.028C1507.98 905.485 1514.45 916.575 1515.69 919C1522.91 933.097 1534.89 946.691 1539.48 962.001C1542 970.371 1526.69 985.4 1521.98 991.975C1520.59 993.92 1514.73 999.32 1516.59 1002.09C1519.03 1005.72 1540.78 972.755 1545.29 972.383C1553.38 971.718 1561.26 988.106 1568.99 990.764C1576.28 993.271 1577.47 984.254 1574 980M177 931C172.813 928.291 169.612 924.494 165.999 921.08C163.449 918.67 160.72 916.514 158 914.304C134.7 895.375 180.742 909.124 177 931M171 942C180.801 938.995 182.906 951.66 181.713 959C180.408 967.026 170.127 976.22 162.783 979.188C138.649 988.939 141.671 941.49 140.441 930C139.976 925.663 139.301 913.122 143.182 910.098C146.155 907.781 151.972 913.952 154 915.641C162.292 922.547 173.81 930.396 171 942M1214 1025C1221.79 1019.72 1225.94 1007.66 1231.26 1000C1244.92 980.329 1257.89 959.361 1276 943.328C1285.84 934.618 1304.21 925.704 1307 912C1275.34 926.359 1249.72 961.865 1231.1 990C1224.25 1000.36 1214.39 1012.1 1214 1025M953.809 914.8C944.336 914.526 937.121 923.98 929.882 928.823C906.46 944.495 886.027 961.147 866.001 980.992C862.787 984.177 837.821 1007.55 841.531 1008.39C850.76 1010.49 865.39 990.61 871 985C892.483 963.517 915.236 943.734 942.001 929.033C944.027 927.92 965.327 915.133 953.809 914.8M1621.54 921.441C1619.54 921.799 1623.28 933.933 1622.25 937C1616.57 953.865 1614.32 969.898 1606.74 987C1599.23 1003.93 1582.22 1020.05 1565 1026.84C1560.65 1028.55 1541.6 1026.18 1540.47 1027.86C1536.24 1034.11 1553.19 1035.91 1556 1035.94C1589.76 1036.37 1617 989.888 1624.61 962C1626.27 955.878 1636.66 918.733 1621.54 921.441M1636 940C1637.75 939.436 1638.54 939.081 1640 938C1637.3 937.146 1636.61 937.149 1636 940M1268 959C1271.18 958.263 1271.64 957.194 1272 954C1269.17 955.092 1268.6 956.03 1268 959M1045.54 986.408C1039.67 990.356 1044.07 1002.98 1045.56 1008C1049.69 1021.94 1052.09 1052.41 1033 1056.51C1014.37 1060.52 959.817 1068.04 945.604 1052.55C937.709 1043.95 947.217 1019 934.893 1014.85C906.602 1005.31 871.195 1025 843 1025.96C822.705 1026.65 803.194 1027.95 783 1029.92C778.122 1030.4 766.359 1026.72 763.544 1032.32C761.157 1037.07 778.561 1036.95 781 1036.66C802.231 1034.14 822.59 1032.23 844 1031.99C864.634 1031.76 885.607 1025.02 906 1022.67C912.76 1021.89 922.375 1018.47 928.949 1021.08C941.383 1026.02 932.279 1049.93 941.032 1059.1C956.441 1075.26 997.755 1064.97 1017 1063.22C1024.43 1062.54 1032.63 1064.32 1039.9 1062.63C1059.84 1058.02 1051.46 1016.06 1050.1 1003C1049.85 1000.65 1049.62 983.661 1045.54 986.408M1394 1031C1392.81 1032.19 1392.47 1032.58 1392 1034C1393.82 1033.14 1394.39 1032.93 1394 1031M551 1217C557.371 1234.09 603.235 1221.43 617 1219.77C621.395 1219.24 632.39 1214.76 635.818 1218.66C641.918 1225.59 640.334 1247.94 641.32 1257C644.349 1284.85 645.346 1327.15 661 1351C663.491 1339.25 656.09 1322.78 654.089 1311C648.997 1281.03 643.985 1249.36 642.15 1219.03C641.474 1207.85 661.389 1216.03 659.677 1205.64C658.764 1200.1 644.083 1211.15 641.494 1203.81C634.958 1185.26 638.029 1163.19 634.678 1144C634.046 1140.38 633.855 1126.07 628.356 1126.79C622.002 1127.61 628.604 1142.95 629.591 1146.22C633.895 1160.47 633.71 1178.13 634.962 1193C635.333 1197.4 637.643 1204.64 634.961 1208.58C631.465 1213.71 618.661 1213.96 613 1214.68C591.918 1217.34 572.136 1217.08 551 1217M879 1138C879.928 1147.92 883.134 1157.47 885.858 1167C888.042 1174.64 889.052 1181.07 889.024 1189C889.012 1192.08 895.854 1220.27 900.034 1209.49C901.487 1205.74 896.656 1199.93 896.147 1196C893.94 1178.95 890.605 1163.73 886.504 1147C885.554 1143.12 885.73 1129.13 880.404 1128.32C875.11 1127.52 867.488 1142.31 864.914 1145.98C850.76 1166.14 838.227 1186.22 822.288 1205C819.944 1207.76 804.493 1224.84 808.062 1228.17C812.699 1232.5 824.388 1211.88 826.931 1208.94C845.538 1187.41 858.178 1156.91 879 1138M2101.97 1138.87C2078.77 1140.63 2063.17 1174.23 2050.08 1190C2048.51 1191.89 2032.86 1209.91 2037.55 1210.57C2043.44 1211.41 2052.83 1196.04 2055.97 1192C2066.16 1178.88 2075 1164.68 2087.14 1153.21C2091.3 1149.27 2104.17 1145.62 2106.46 1142.16C2108.13 1139.62 2103.42 1138.76 2101.97 1138.87M1896.97 1145.13C1896.4 1145.59 1920.26 1155.3 1924.22 1157.57C1945.84 1169.99 1969.49 1181.14 1994 1186.19C1999.33 1187.3 2014.5 1191.16 2018.97 1186.77C2023.31 1182.51 1997.71 1181.05 1995 1180.36C1969.65 1173.94 1946.61 1163 1923.78 1150.41C1918.31 1147.4 1903 1140.27 1896.97 1145.13M245 1249C247.395 1240.27 254.352 1220.21 243 1215C245.102 1230.85 243.846 1250.78 235.595 1265C233.215 1269.1 214.96 1281.48 215.323 1283.72C216.623 1291.74 229.738 1280.51 232 1279C227.864 1286.33 221.858 1294.2 219 1302C229.333 1298.18 234.412 1281.84 239.075 1273C252.699 1247.19 272.745 1222.22 275 1192C285.358 1218.86 285.854 1250.34 297.007 1278C300.764 1287.32 304.753 1302.21 315 1306C312.559 1288.84 299.9 1269.69 294.042 1253C286.81 1232.4 284.604 1210.46 281.691 1189C281.204 1185.42 277.725 1153.74 271.813 1158.19C268.009 1161.05 272.4 1179.78 271.344 1185C267.219 1205.39 260.172 1233.8 245 1249M254.667 1165.33C254.222 1165.78 255.278 1165.72 255.333 1165.67C255.778 1165.22 254.722 1165.28 254.667 1165.33M484.078 1168.78C471.73 1172.42 445.163 1183.75 436.567 1193.1C434.001 1195.89 436.147 1199.47 434.285 1202.56C416.044 1232.86 401.181 1276.9 422.74 1311C446.842 1349.12 501.153 1357.22 542 1344.44C549.43 1342.11 556.453 1339.1 563 1334.86C611.514 1303.43 559.198 1248.29 541.799 1214.6C532.141 1195.91 522.149 1191.56 506.078 1179.19C499.448 1174.09 493.556 1165.98 484.078 1168.78M1206.97 1171.36C1202.88 1174.74 1223.24 1189.31 1226 1191.46C1246.33 1207.29 1269.69 1222.14 1287.22 1241.02C1290.8 1244.88 1300.91 1259.08 1307.39 1253.18C1309.75 1251.03 1294.2 1239.59 1290.86 1236C1273.56 1217.4 1250.19 1204.44 1230.92 1187.9C1227.71 1185.14 1211.64 1167.5 1206.97 1171.36M564 1315C570.865 1304.66 570.099 1289.86 568 1278C592.841 1288.81 572.479 1323.57 558 1332.24C529.703 1349.18 486.837 1348.06 457 1335.95C419.573 1320.77 412.72 1274.08 421.758 1239C425.278 1225.34 430.449 1205.12 447.04 1202.52C461.505 1200.25 474.381 1212.41 483.559 1221.88C499.443 1238.27 521.613 1264.53 543 1273C539.902 1263.93 529.017 1257.58 522 1251.57C504.505 1236.6 488.84 1217.88 470 1204.75C462.122 1199.26 452.177 1194.03 443 1199C442.753 1192.01 456.589 1189.71 461.922 1186.95C469.23 1183.17 477.592 1175.39 486 1174.67C494.159 1173.97 515.048 1190.49 521.914 1195.82C534.658 1205.7 533.14 1219.71 538.827 1233C543.609 1244.18 552.688 1253 557.838 1264C565.884 1281.19 564.648 1296.71 564 1315M295 1185L298 1187C297.02 1185.22 297.092 1185.41 295 1185M1265 1207C1262.74 1191.11 1250.71 1195.98 1265 1207M1878 1223C1882.79 1233.67 1900.78 1229.75 1905.7 1238.94C1910.31 1247.57 1883.9 1271.08 1882.96 1280.97C1882.26 1288.26 1896.53 1289.33 1897.68 1283.84C1898.39 1280.39 1889.2 1283.67 1888 1284C1889.03 1277.3 1893.41 1272.65 1896.82 1267C1900.5 1260.88 1906.28 1247.47 1913.05 1244.46C1928.65 1237.51 1955.12 1271.69 1969 1271C1957.11 1250.47 1931.91 1254.16 1918.96 1237.98C1911.35 1228.47 1945.36 1205.37 1941.38 1197.57C1939.04 1192.99 1929.32 1206.35 1928.03 1208C1923.5 1213.75 1918.11 1230.08 1910.84 1232.2C1902.04 1234.76 1887.87 1223.11 1878 1223M1985 1305C2001.31 1299.52 2017.81 1281.27 2032 1271.22C2054.13 1255.55 2079 1244.97 2102 1230.78C2107.61 1227.31 2125.15 1202.25 2129.06 1202.57C2139.48 1203.41 2128.45 1236.13 2126.99 1241C2116.39 1276.49 2099.98 1308.97 2094.48 1346C2093.43 1353.09 2099.25 1381.97 2095.09 1385.74C2086.64 1393.42 2053.31 1388.35 2042 1389.14C2012.63 1391.19 1984.44 1393.17 1955 1389.8C1928.34 1386.74 1903.08 1378.71 1876 1378C1883.36 1387.54 1909.58 1386.62 1921 1388.59C1968.91 1396.83 2011.34 1393.52 2059.36 1393.65C2072.06 1393.69 2108.06 1395.96 2116 1385C2112.36 1384.09 2105.6 1385.65 2102.82 1383.1C2096.3 1377.12 2099.51 1350.07 2100.76 1342C2106.34 1305.96 2121.75 1272.19 2133.82 1238C2136 1231.81 2144.87 1190.58 2128.21 1195.91C2121.78 1197.97 2116.59 1209.06 2112.48 1214C2105.53 1222.35 2096.44 1228.41 2087 1233.65C2073.06 1241.38 2058.68 1248.16 2045 1256.4C2027.98 1266.65 1992.46 1285.97 1985 1305M78 1362C72.9683 1340.92 53.9916 1325.99 52.104 1303C50.1055 1278.66 57.5301 1249.53 66.3305 1227C70.1607 1217.19 79.7238 1207.16 81 1197C68.1385 1201.76 62.3937 1224.2 58.2977 1236C44.888 1274.62 39.7603 1334.7 78 1362M154 1206C159.147 1213.42 176.441 1224.36 184 1230C180.353 1215.92 168.246 1207.48 154 1206M1266 1208L1267 1209L1266 1208M885.333 1209.67C885.278 1209.72 885.222 1210.78 885.667 1210.33C885.722 1210.28 885.778 1209.22 885.333 1209.67M877 1212L880 1210L877 1212M1268 1210L1269 1211L1268 1210M1551 1342C1541.76 1346.26 1556.98 1353.64 1549.45 1358.07C1542.57 1362.12 1534.72 1343.22 1526.51 1346.8C1522.36 1348.61 1530.84 1353.67 1532 1354.57C1553.88 1371.65 1528.26 1374.25 1523 1392C1533.47 1390.84 1542.45 1370.15 1550.16 1371.08C1577.99 1374.45 1558.52 1397.13 1551.16 1409C1549.8 1411.19 1539.42 1423.67 1544.31 1424.82C1549.77 1426.11 1556.59 1411.76 1559.02 1407.98C1569.06 1392.42 1569.04 1387.2 1587 1392C1586.21 1386.39 1580.02 1385.09 1579.14 1380.03C1577.06 1368.12 1606.66 1379.88 1613 1380C1609.48 1374.72 1587.6 1371.35 1588.39 1365.31C1590.13 1351.9 1615.28 1330.65 1624 1320C1625.95 1317.62 1636.69 1308.36 1634.83 1305.11C1633.54 1302.85 1622.37 1315.64 1621.09 1316.98C1610.43 1328.11 1601.26 1340.35 1591.18 1352C1588.63 1354.95 1584.55 1362.81 1580.28 1363.22C1575.26 1363.71 1560.41 1354.74 1563.38 1348.89C1576.11 1323.86 1606.83 1304.69 1615 1278C1625.26 1285.85 1635.77 1293.58 1648 1298.11C1656.28 1301.18 1664.23 1302 1673 1302C1697.61 1301.99 1720.68 1282.69 1707.72 1257.08C1695.2 1232.33 1633.05 1196.27 1608.71 1221.41C1586.64 1244.2 1619.24 1264.59 1607.14 1282.92C1595.14 1301.09 1578.63 1315.75 1566.71 1334C1562.98 1339.71 1556.85 1352.32 1551 1342M873.667 1216.33C873.222 1216.78 874.278 1216.72 874.333 1216.67C874.778 1216.22 873.722 1216.28 873.667 1216.33M1634 1217L1642 1217C1639.02 1218.01 1636.14 1217.99 1633 1218L1634 1217M105 1283C111.286 1262.54 128.486 1242.17 132 1222C110.254 1235.35 112.342 1266.71 99.0172 1284.84C92.3293 1293.94 79.0687 1297.25 71.5126 1306.02C69.7697 1308.04 61.6864 1314.05 67.1768 1316.47C69.7288 1317.59 93.3641 1296.19 99 1294C93.204 1311.64 101.758 1340.9 126 1335C120.052 1330.46 112.587 1330.56 107.188 1324.75C71.8267 1286.74 150.996 1278.89 169 1270C174.45 1311.11 178.389 1353.02 184.522 1394C185.356 1399.57 187.682 1430.66 193.999 1431.57C198.787 1432.27 202.111 1404.1 202.72 1400C207.832 1365.59 218.562 1328.06 244.003 1303.02C247.964 1299.12 278.997 1284.33 278.997 1281.11C278.997 1274.32 251.299 1288.45 249.003 1289.95C231.42 1301.4 216.6 1326.23 210.562 1346C205.175 1363.64 203.897 1401.44 193 1415C192.903 1366.09 176.637 1316.37 174 1268C178.422 1272.68 181.899 1279.25 187 1283C186.128 1278.72 180.832 1271.46 181.923 1267.42C183.725 1260.74 203.193 1257.8 208 1251C198.089 1252.83 183.423 1265.03 174 1262C178.109 1259.21 182.263 1257.38 186.992 1255.88C189.876 1254.96 192.559 1253.9 195.32 1252.67C228.353 1237.97 173.548 1254.96 170.905 1252.45C158.674 1240.84 167.725 1230.59 167 1218C149.541 1228.22 169.634 1246.21 163.714 1257.58C156.551 1271.34 119.196 1280.62 105 1283M1647 1218L1647 1220L1643 1220L1643 1218L1647 1218M543 1221C550.702 1229.4 558.405 1242.56 560 1254C552.848 1247.55 540.468 1231.31 543 1221M953 1228C934.734 1252.45 898.181 1268.58 873 1285.5C858.57 1295.19 843.183 1302.55 843 1322C850.492 1318.83 851.629 1306.5 859.019 1301.29C885.299 1282.75 913.567 1266.67 940 1248.5C943.931 1245.8 966.44 1227.4 963.469 1222.8C959.684 1216.94 934.069 1231.27 929 1233.6C900.624 1246.61 869.395 1244.7 840 1253.04C834.362 1254.64 815.912 1256.45 812.33 1260.21C808.893 1263.82 817.237 1264.92 819.003 1264.84C827.225 1264.46 835.23 1260.94 843 1258.52C880.028 1247 918.69 1249.89 953 1228M1627 1259C1624.84 1261.25 1620.07 1269.36 1616.79 1269.36C1601.49 1269.36 1603.27 1230.66 1614.09 1224.6C1635.91 1212.38 1678.23 1233.84 1693.99 1248.23C1702.37 1255.87 1710.14 1269.49 1704.38 1281C1691.91 1305.92 1630.93 1301.3 1621.3 1274.96C1619.65 1270.44 1625.96 1263.65 1627 1259M1422 1228C1409.31 1259.67 1364.91 1292.06 1338 1311.96C1331.52 1316.75 1303.58 1330.37 1306.07 1340.43C1306.48 1342.12 1336.6 1320.02 1341 1316.83C1364.1 1300.09 1387.7 1278.24 1406.68 1257C1413.94 1248.87 1424.15 1239.43 1425 1228L1422 1228M631.79 1236.41C626.207 1237.82 598.327 1254.44 602.346 1255.14C614.014 1257.16 634.67 1235.69 631.79 1236.41M807 1246C806.62 1249.33 806.643 1251.91 808 1255L809 1246L807 1246M246 1250C245.101 1252.12 245.124 1252.1 243 1253C243.902 1251.08 244.076 1251 246 1250M561 1255.33C561.889 1255.33 561.889 1256.67 561 1256.67C560.111 1256.67 560.111 1255.33 561 1255.33M760 1256C761.292 1259.35 762.706 1260.6 766 1262C764.72 1258.6 763.403 1257.28 760 1256M563 1258C564.416 1260.67 565.367 1263.05 566 1266C563.448 1263.72 562.454 1261.4 563 1258M1247 1261C1239.23 1259.44 1232.35 1266.64 1226 1270.38C1208.8 1280.49 1192.36 1289.42 1176.1 1301.13C1173.47 1303.03 1155.48 1312.27 1156.76 1315.3C1159.84 1322.57 1176.31 1308.29 1179.04 1306.32C1199.08 1291.89 1231.46 1279.97 1247 1261M174 1262L174 1264L170 1264L170 1262L174 1262M167 1263C166.606 1266.4 165.231 1267.1 162 1268C163.44 1265.61 164.625 1264.48 167 1263M164 1266L165 1267L164 1266M568 1271C568.642 1272.75 568.859 1274.13 569 1276L567 1276C567.141 1274.13 567.358 1272.75 568 1271M280 1272L279 1276C280.748 1274.73 281.182 1274.03 282 1272L280 1272M920 1369C899.097 1356.49 886.128 1311.59 860 1310C861.048 1314.91 867.982 1319.58 871.389 1323.31C883.721 1336.78 894.859 1351.16 906.778 1365C909.356 1367.99 919.484 1382.49 923.889 1375.89C935.239 1358.89 927.444 1326.9 927.444 1308C927.444 1298.25 931.663 1290.12 934 1281C923.805 1281.35 922.408 1291.3 921.959 1300C920.782 1322.82 920.466 1346.3 920 1369M1205 1315C1207.3 1324.68 1224.14 1333.17 1232 1338.65C1251.05 1351.93 1269.67 1365.89 1288 1380.11C1297.47 1387.46 1308.75 1398.06 1321 1400C1318.68 1390.26 1301.63 1383.47 1294 1377.55C1269.9 1358.88 1235.16 1321.33 1205 1315M1262 1319C1262.15 1323.24 1262.54 1325.34 1267 1326C1265.94 1322.72 1265.47 1320.01 1262 1319M1158.01 1353.46C1153.42 1356.55 1173.45 1372.33 1176 1374.54C1192.91 1389.2 1212.66 1404.18 1232 1415.51C1238.48 1419.3 1248.37 1425.14 1255.47 1419.41C1260.09 1415.67 1240.08 1413.64 1236 1411.36C1216.94 1400.67 1197.77 1385.04 1182 1370.08C1178.6 1366.85 1163.36 1349.86 1158.01 1353.46M1557.49 1359.08C1564.22 1357.18 1585.69 1373.33 1571.78 1376.92C1565.18 1378.62 1547.46 1361.92 1557.49 1359.08M1327 1372C1326.3 1374.72 1326.05 1377.19 1326 1380C1327.05 1377.27 1327.46 1374.89 1327 1372M500 1391C493.95 1381.16 491.034 1389.81 500 1391M1678 1483C1689.74 1486.98 1706.62 1484 1719 1484C1707.26 1480.02 1690.38 1483 1678 1483M1721 1483L1722 1484L1721 1483M1758 1483C1774.5 1488.59 1799.55 1484 1817 1484C1800.5 1478.41 1775.45 1483 1758 1483M1850 1483C1854.16 1484.41 1858.64 1484 1863 1484C1858.84 1482.59 1854.36 1483 1850 1483M1872 1483L1873 1484L1872 1483M1875 1483C1876.75 1483.64 1878.13 1483.86 1880 1484C1878.25 1483.36 1876.87 1483.14 1875 1483M1882 1483C1897.44 1488.23 1920.67 1484 1937 1484C1921.56 1478.77 1898.33 1483 1882 1483M881 1535C879.973 1542.52 873.355 1541.51 868 1545.21C854.836 1554.3 839.822 1558.51 827.218 1568.86C807.062 1585.4 793.885 1632.52 812.516 1654.84C824.69 1669.43 844.719 1673.8 857 1686C823.938 1694.91 810.502 1732.55 803.664 1762C801.729 1770.33 789.81 1797.49 804 1798C798.806 1787.34 804.96 1775.77 807.832 1765C815.358 1736.78 821.588 1710.88 848.941 1695.2C858.225 1689.87 876.841 1680.94 887.528 1687.66C891.261 1690 888.005 1702.01 888 1706C887.982 1722.17 888.944 1741.93 891.361 1758C891.758 1760.64 892.1 1778.43 894.813 1777.87C899.18 1776.97 896.131 1757.49 896.027 1754C895.44 1734.19 881.053 1679.18 912 1685.3C941.299 1691.09 956.401 1731.12 959.685 1757C960.651 1764.62 955.213 1790.31 962 1793C963.105 1761.84 963.602 1741.49 949.339 1713C944.577 1703.49 940.446 1695.57 930.999 1690.03C929.054 1688.89 921.496 1686.16 922.081 1683.15C922.54 1680.79 935.451 1677.49 938 1675.82C952.286 1666.44 961.028 1660.61 969.955 1645.44C991.176 1609.37 967.198 1560.95 931.999 1545.46C915.978 1538.4 897.068 1540.58 881 1535M890.073 1542.68C897.215 1540.75 904.144 1545.73 911 1546.4C988.789 1553.95 989.43 1662.21 917 1679.41C912.654 1680.45 897.676 1682.18 894.685 1678.18C890.343 1672.36 893.207 1658.86 893.103 1652C892.741 1628.23 892.957 1604.7 890.962 1581C890.376 1574.03 884.073 1544.3 890.073 1542.68M890 1680C873.074 1680 859.84 1682.45 844 1674.55C810.652 1657.93 795.956 1613.08 820.545 1582C832.589 1566.78 847.401 1562.99 862.992 1554.05C867.679 1551.36 875.245 1543.06 880.976 1548.82C887.716 1555.6 884.227 1571.45 885.479 1580C890.205 1612.28 881.547 1648.71 890 1680M2075 1547L2076 1548L2075 1547M1667 1783C1662.72 1777.76 1655.77 1776.01 1652 1770C1676.28 1770.01 1716.59 1773.13 1735.66 1756.62C1758.54 1736.8 1762.47 1699.57 1731.92 1683.38C1725.59 1680.03 1714.99 1682 1708 1682C1715.31 1670.16 1732.19 1664.23 1740.72 1652C1763.6 1619.21 1740.61 1598.47 1716.4 1577.8C1712.86 1574.78 1715.1 1570.01 1711 1567L1711 1574C1701.97 1569.26 1682.99 1542.87 1671.53 1548.83C1666.36 1551.52 1675.91 1559.11 1668.81 1561.5C1639.68 1571.32 1596.34 1552.42 1573.42 1581.48C1554.13 1605.93 1558.36 1642.14 1557.49 1671C1556.92 1689.88 1550.39 1707.28 1553.82 1727C1555.83 1738.6 1552.74 1756.65 1561.26 1765.82C1574.28 1779.82 1600.04 1789.66 1619 1785.5C1626.77 1783.79 1633.27 1776.44 1641.01 1775.87C1651 1775.13 1657.31 1785 1667 1783M1673 1553C1685.85 1552.61 1695.97 1568.51 1705.01 1575.78C1725.39 1592.16 1759.35 1607.51 1743.24 1641C1733.2 1661.87 1712.19 1674.85 1691 1681.56C1686.02 1683.14 1671.59 1688.19 1667.58 1682.14C1662.51 1674.51 1669.69 1656.26 1670.74 1648C1673.83 1623.88 1685.69 1574.07 1673 1553M33 1755C42.7346 1760.09 52.8006 1757.25 63 1759.51C93.4583 1766.24 121.728 1772.57 153 1776.25C163.011 1777.42 169.558 1785.78 179 1788.17C192.154 1791.49 212.159 1790 226 1790C240.61 1790 255.36 1794.04 269 1799.45C271.538 1800.46 280.252 1804.47 281.943 1800.18C286.195 1789.39 270.323 1763.39 267.005 1753C263.706 1742.67 256.569 1736.05 253.039 1726C246.228 1706.6 242.461 1682.95 233.094 1665C229.753 1658.6 223.029 1656.12 218.921 1650.6C212.713 1642.26 205.878 1625.09 202.748 1615C197.917 1599.42 186.821 1587.69 181.416 1572.99C180.409 1570.26 177.5 1557 174.012 1557C170.091 1557 170.409 1568.35 169.689 1571C166 1584.57 157.444 1598.69 149.283 1610C112.374 1661.14 75.6502 1708.71 33 1755M1914 1568C1907.45 1568.8 1905.31 1581.35 1905.05 1587C1904.22 1605.06 1904.12 1626.16 1914.28 1641.98C1922.89 1655.39 1951.28 1654.44 1965 1663C1967.21 1664.38 1978.48 1667 1978.48 1669.66C1978.48 1672.76 1971.18 1675.16 1969 1676.34C1958.22 1682.17 1947.44 1687.77 1937 1694.22C1919.59 1704.97 1888.71 1729.33 1901.5 1753.98C1910.03 1770.41 1924.8 1775.81 1937.76 1786.56C1948.33 1795.32 1960.4 1802.56 1975 1803C1971.25 1794.32 1959.39 1795.52 1952.02 1792.13C1938.62 1785.97 1906.69 1765.24 1904.8 1748.96C1900.87 1715.13 1937.45 1697.71 1963 1684.47C1970.19 1680.74 1979.32 1673.04 1987 1671.28C1993.74 1669.73 2011.74 1673.22 2017.68 1676.8C2028.13 1683.1 2028.63 1692.91 2032.91 1703C2045.8 1733.36 2041.02 1757.96 2041 1790C2048.4 1784.06 2047.74 1762.04 2048.04 1753C2049.27 1716.35 2037.28 1668.17 1994 1668C2010.68 1649.07 2057.87 1651.93 2059.84 1621C2061.6 1593.29 2039.98 1581.35 2017.92 1570.07C2013.47 1567.8 1995.8 1557.11 1991.54 1563.66C1990.93 1564.61 2012.6 1572.63 2015.56 1574.33C2035.95 1586.02 2076.96 1613.47 2043.98 1638C2032.45 1646.58 2015.09 1650.68 2002.02 1657.17C1996.85 1659.74 1990.99 1665.38 1984.99 1665.36C1973.77 1665.32 1965.9 1656.86 1956 1653.04C1945.8 1649.1 1929.64 1650.52 1921.26 1643.9C1904.71 1630.83 1904.39 1584.72 1914 1568M1633 1566.34C1640.62 1565.66 1665.27 1565.45 1670.18 1571.59C1673.53 1575.77 1671.06 1583.1 1671.01 1588C1670.82 1604.4 1667.59 1620.63 1667.04 1637C1666.77 1645.06 1666.44 1682.7 1657.89 1683.85C1645.6 1685.51 1636.27 1679.39 1624.96 1677.34C1608.18 1674.29 1574.97 1682.7 1563.04 1665.63C1555.52 1654.86 1564.21 1630.72 1568.3 1620C1571.91 1610.51 1569.02 1600.57 1573.19 1591C1582.9 1568.68 1611.99 1568.21 1633 1566.34M440 1799C442.014 1792.23 444.544 1785.62 447 1779C442.061 1781.02 439.976 1785.79 437 1790C429.983 1744.65 444.422 1705.57 492 1696.54C495.301 1695.91 508.404 1692.77 510.743 1695.04C514.349 1698.53 513.11 1710.41 512.882 1715C512.155 1729.69 512.911 1746.29 514.217 1761C514.483 1763.99 516.419 1794.26 522.102 1791.24C523.579 1790.45 519.077 1770.94 518.865 1768C517.245 1745.62 513.298 1717.35 516.42 1695.14C517.58 1686.89 553.304 1681.45 561 1677.04C586.916 1662.18 595.396 1638.67 607.604 1613C609.683 1608.63 624.417 1577.41 613.791 1575.32C615.953 1575.75 604.875 1608.8 602.919 1613C589.189 1642.48 578.445 1663.87 547.68 1677.64C541.289 1680.5 525.533 1687.47 518.608 1684.62C513.397 1682.47 514.313 1669.64 514.078 1665C513.033 1644.36 514.242 1623.63 512.914 1603C512.735 1600.22 507.519 1579.86 505.409 1580.32C499.854 1581.54 507.751 1600.64 507.94 1604C509.266 1627.53 515.314 1661.2 510.833 1683.93C508.953 1693.47 478.346 1694.32 470 1697.35C439.417 1708.46 437.601 1733 432.426 1761C430.537 1771.23 429.887 1793.08 440 1799M175 1672C157.02 1665.65 147.871 1682.64 136.302 1694.9C119.605 1712.6 99.5965 1727.36 77.0026 1735.11C70.7775 1737.25 57.5454 1747.46 50.6486 1744.02C48.4178 1742.91 71.2454 1712.58 75.0213 1709.2C107.3 1680.31 129.507 1646.51 154.248 1611C158.187 1605.35 171.948 1571.27 177.311 1580.15C185.22 1593.26 169.45 1603.62 167.55 1615C164.415 1633.78 170.358 1654.14 175 1672M1260 1582C1254.04 1595.82 1228.14 1596.66 1217 1607.07C1203.47 1619.71 1188.36 1632.15 1183.66 1651C1181.56 1659.42 1187.94 1669.71 1183.34 1677.59C1179.69 1683.84 1169.49 1676.4 1166 1684C1170.38 1684.15 1179.91 1682.76 1183.22 1685.83C1188.55 1690.79 1187.84 1704.32 1191.19 1711C1202.23 1733.02 1211.52 1746.63 1231 1760.84C1237.13 1765.31 1262.52 1774.48 1262 1780C1282.52 1779.5 1303.34 1776.86 1319.98 1763.44C1359.63 1731.45 1361.62 1660.54 1339.88 1620.01C1338.03 1616.57 1341.8 1611.68 1340.5 1609.91C1339.35 1608.34 1331.97 1610.89 1329 1608.77C1316.51 1599.81 1307.19 1585.18 1291 1582.34C1281.11 1580.6 1268.01 1587.73 1260 1582M183 1586C198.867 1603.56 202.675 1630.64 213.494 1650.98C217.157 1657.87 225.787 1660.12 229.278 1667.04C238.501 1685.32 241.935 1708.41 249.05 1728C257.715 1751.86 271.947 1770.29 276 1797C263.718 1785.46 257.039 1770.56 244.981 1759.07C234.905 1749.46 218.916 1742.63 211.063 1730.85C205.104 1721.91 205.303 1707.72 200.286 1698.02C195.715 1689.18 185.469 1684.63 180.879 1675.96C165.843 1647.55 173.635 1613.63 183 1586M1247 1669C1241.55 1673.33 1247.8 1688.86 1242.5 1690.4C1236.76 1692.06 1230.56 1686.44 1224 1687.98C1197.95 1694.09 1181.18 1673.52 1188.39 1649C1193.63 1631.2 1210.92 1616.36 1225.32 1605.69C1229.52 1602.57 1252.52 1590.85 1257.04 1594.36C1260.59 1597.12 1257.03 1610.88 1257 1615C1256.88 1638.15 1251.33 1659.24 1249 1682C1271.37 1661.45 1249.76 1616.81 1262.69 1593.32C1273.41 1573.83 1306.19 1593.22 1316 1602.12C1319.37 1605.18 1328.07 1610.57 1327.75 1615.77C1327.36 1622.23 1313.38 1630.75 1309.01 1634.97C1294.81 1648.67 1280.06 1661.91 1264.82 1674.42C1262 1676.73 1253.79 1687.35 1249.7 1685.38C1245.07 1683.15 1246.93 1672.96 1247 1669M1330.92 1620.11C1337.1 1618.84 1341.56 1630.61 1343.1 1635C1348.77 1651.17 1352.69 1664.01 1349.63 1681C1348.81 1685.58 1349.2 1693.71 1343.79 1695.5C1328.19 1700.65 1314.96 1690.01 1301 1687.49C1291.74 1685.81 1279.59 1690.74 1271 1693.66C1266.75 1695.11 1257.85 1695.45 1255.54 1690.28C1253.3 1685.26 1268.68 1675.58 1272 1672.99C1285.63 1662.35 1299.3 1649.16 1311.44 1636.79C1316.14 1631.99 1324.13 1621.49 1330.92 1620.11M1565.28 1673.62C1575.51 1674.13 1585.92 1680.26 1596 1682.04C1611.2 1684.72 1624.7 1682.92 1640 1687.12C1645.03 1688.51 1658.18 1686.13 1661.74 1689.34C1664.47 1691.8 1662.64 1699.65 1662.94 1703C1664.29 1718.27 1662.01 1732.79 1662 1748C1662 1752.12 1664.32 1761.99 1661.04 1765.04C1654.83 1770.82 1631.38 1772.12 1623 1771.86C1603.44 1771.24 1598.43 1759.03 1583.78 1749.15C1572.36 1741.44 1561 1740.92 1557.72 1725C1554.98 1711.74 1558.38 1697.86 1561.15 1685C1561.79 1682.01 1560.49 1673.38 1565.28 1673.62M231 1755C214.623 1752.8 193.471 1752.39 178 1746.76C163.484 1741.48 152.758 1728.76 137.864 1723.11C129.969 1720.12 120.274 1722.6 112 1722C116.99 1713.54 127.352 1708.61 134.672 1702.3C143.265 1694.9 153.902 1674.63 166.019 1673.61C193.621 1671.29 197.268 1717.39 206.821 1731.86C212.963 1741.17 225.318 1745.52 231 1755M1248 1700C1252.1 1691.13 1261.67 1700.28 1269 1698.66C1279.13 1696.41 1289.21 1691.4 1299.96 1692.28C1316.65 1693.64 1327.5 1701.53 1346 1699C1344.39 1722.28 1330.74 1753.01 1310 1764.76C1301.07 1769.82 1288.66 1776.96 1280 1768C1276.75 1777.84 1259.43 1770.99 1252 1768.01C1224.85 1757.13 1212.01 1740.31 1198.31 1716C1196.07 1712.02 1186.1 1690.08 1190.98 1686.4C1195.28 1683.14 1211.73 1694.29 1218 1693.55C1230.29 1692.11 1237.15 1693.44 1248 1700M1694 1685.61C1701.5 1684.66 1725.63 1684.31 1731.52 1688.82C1759.64 1710.35 1752.59 1757.94 1714 1763.18C1702.71 1764.72 1691.84 1760.65 1680 1763.34C1676.93 1764.04 1670.82 1766.74 1667.94 1764.65C1664.51 1762.17 1666 1753.65 1666 1750C1666 1736.02 1668.97 1721.93 1667.67 1708C1667.31 1704.14 1664.37 1693.29 1667.28 1690.26C1669.55 1687.89 1689.84 1686.14 1694 1685.61M265 1793C253.975 1792.09 244.154 1786.2 233 1785.22C216.873 1783.79 197.472 1787.21 182 1784.22C173.4 1782.55 167.296 1775.22 159 1772.62C145.139 1768.29 121.816 1766.45 106.96 1765.12C91.3318 1763.72 77.7749 1757.06 63 1755.24C55.9529 1754.38 44.1362 1757.79 39 1752C59.4957 1746.15 80.8593 1740.46 100.726 1732.55C110.017 1728.85 122.054 1722.49 134.72 1725.7C153.898 1730.54 166.207 1748.44 185 1753.58C200.59 1757.84 220.319 1751.59 235.078 1757.85C247.275 1763.03 258.162 1782.11 265 1793M1629 1776C1603.41 1794.72 1555.49 1770.56 1559 1739C1575.47 1748.23 1589.76 1766.24 1606.02 1773.69C1613.04 1776.91 1621.66 1774.27 1629 1776M1969 1791C1969.9 1793.12 1969.88 1793.1 1972 1794C1971.52 1791.64 1971.36 1791.48 1969 1791M53 1897C106.667 1897.08 157.297 1908.1 210 1915.05C223.909 1916.89 237.99 1920.2 252 1920.92C256.471 1921.15 265.675 1918.57 269.333 1921.4C274.025 1925.02 266.542 1926.57 264 1926C262.308 1946.27 245.882 1965.26 243 1987C221.295 1976.59 194.328 1975.48 171 1979C175.857 1990.41 181.563 2006.88 176.499 2020.68C174.766 2025.39 151.187 2025.94 147.976 2022.18C145.186 2018.91 148.251 2008.38 147.844 2004C146.869 1993.49 140.035 1979.84 130.997 1974.12C114.553 1963.72 82.5061 1969.72 70.6017 1956.44C58.7078 1943.16 67.7551 1908.66 49 1900C51.0741 1915.77 60.1625 1930.6 62.0116 1946.97C62.6862 1952.95 58.5968 1959.03 58.0944 1965.01C56.8608 1979.7 59.3691 1995.18 56.6856 2009.89C54.2479 2023.25 42.7182 2055.75 52.7299 2067.48C67.5859 2084.88 103.187 2065.62 121 2070.72C137.117 2075.33 133.92 2094.63 148 2097.51C163.656 2100.71 176.764 2080.79 188.09 2075.61C200.406 2069.97 220.96 2076.97 234 2077C240.218 2077.01 253.97 2077.47 257.156 2070.73C261.901 2060.69 255.783 2045.18 253.672 2035C249.478 2014.78 244.727 1990.84 248.949 1971C250.905 1961.81 258.8 1947.09 265.014 1940C268.497 1936.02 278.068 1927.22 277.628 1921.4C277.354 1917.77 269.608 1917.16 267 1917.04C253.582 1916.42 241.291 1914.52 228 1912.41C211.486 1909.79 193.226 1904.4 177 1903.12C163.443 1902.05 149.42 1905.4 136 1903.79C121.21 1902.01 111.241 1895 95 1895C87.2391 1895 55.6316 1890.37 53 1897M847 2112C848.755 2117.06 848.531 2122.55 853 2126C852.986 2096.19 845.397 2061.41 872.008 2039.42C904.378 2012.67 977.636 2014.02 980.935 1956C981.87 1939.55 976.125 1922.12 970.489 1907C969.174 1903.47 971.804 1896.49 968.472 1894.34C960.699 1889.31 944.805 1893.83 937 1896.46C910.459 1905.4 876.531 1926.79 861.558 1951C836.106 1992.16 851.721 2040.67 846.562 2086C845.918 2091.66 836.097 2130.36 847.644 2130.36C850.208 2130.36 846.912 2114.53 847 2112M852 2060C851.085 2034.19 845.011 1995.53 854.116 1971C862.96 1947.17 886.121 1930.28 906 1916.47C919.419 1907.15 943.884 1890.59 961.501 1897.5C966.794 1899.58 970.822 1920.56 971.701 1926C976.9 1958.2 972.664 1980.25 945 2001.86C924.555 2017.83 897.918 2019.3 876 2032.05C863.877 2039.11 861.68 2052.73 852 2060M545 1964C539.326 1963.47 540.256 1966.77 542 1971L528 1970C530.435 1975.92 536.705 1974.27 542 1974C535.639 2009.94 536.265 2050.55 539.417 2087C539.841 2091.9 535.357 2117.51 529.855 2117.2C518.906 2116.57 511.422 2105.13 504.418 2098.45C491.433 2086.07 474.908 2077.34 463.796 2062.66C456.197 2052.62 458.933 2034.05 439 2039C480.275 2078.55 516.334 2142.6 586 2121.34C599.835 2117.11 619.387 2109.31 631 2100.51C633.495 2098.62 642.314 2093.22 641.679 2089.49C641.258 2087 622.03 2100.77 619 2102.19C599.931 2111.13 582.002 2118.7 561 2120.69C555.834 2121.18 542.877 2122.7 538.762 2118.93C534.036 2114.6 543 2089.79 543 2083C543 2053 544.352 2023.69 544.981 1994C545.18 1984.65 543.32 1963.55 551.683 1956.96C555.67 1953.82 563.999 1956.2 569 1953.94C587.009 1945.78 600.356 1933.65 616 1922.2C622.8 1917.22 630.095 1917.04 634 1909C615.253 1911 602.088 1930.32 586.864 1939.7C568.138 1951.24 539.566 1954.73 519.137 1944.57C512.333 1941.19 508.404 1934.3 501.999 1930.37C490.503 1923.32 490.045 1915.1 481.716 1906.97C480.417 1905.7 472.387 1899.76 471.441 1904.29C470.926 1906.75 479.075 1912.43 480.461 1915.02C486.847 1926.97 503.67 1942.17 516.019 1948.09C528.771 1954.2 545.298 1946.37 545 1964M1529 1950C1538.46 1953.27 1556.87 1947.1 1555 1961C1557.84 1958.68 1559.4 1954.37 1563.11 1953.28C1568.59 1951.66 1574.52 1956.75 1579 1952C1574.68 1951.57 1571.3 1950.93 1568 1948C1579.29 1947.32 1619 1945.87 1622.76 1961.3C1624.46 1968.29 1617.93 1983.99 1617.22 1992C1616.64 1998.5 1619.44 2009.95 1615.74 2015.54C1610.37 2023.66 1588.89 2027.08 1580.44 2033.39C1561.55 2047.5 1552.22 2074.02 1542.97 2095C1540.74 2100.07 1534.83 2114.98 1539.28 2120.09C1542.02 2123.25 1559.18 2121.15 1564 2122L1564 2124C1563.14 2124.4 1559.12 2126.09 1561.22 2127.69C1571.72 2135.73 1609.18 2119.76 1619 2114.59C1624.55 2111.67 1635.23 2097.23 1639.82 2096.97C1649.65 2096.42 1665.5 2113.44 1677 2115.48C1698.54 2119.29 1713.24 2101.91 1721 2126C1729.06 2118.6 1719.35 2093.79 1718.32 2084C1716.24 2064.21 1713.42 2046.24 1696.86 2032.62C1690.26 2027.19 1677.19 2026.13 1672.26 2019.28C1663.82 2007.58 1661.19 1987.47 1652.14 1974.01C1648.23 1968.18 1635.69 1964.13 1633.73 1958.49C1631.56 1952.27 1646.86 1941.04 1651 1937.71C1673.7 1919.42 1699.57 1912.64 1727 1921C1725.93 1906 1697.59 1910.87 1688 1914.26C1673.67 1919.32 1659.75 1923.57 1648.36 1934.2C1643.35 1938.88 1633.28 1954.67 1626.3 1955.21C1619.06 1955.76 1608.15 1945.95 1600 1944.73C1582.39 1942.09 1571.3 1947.43 1555 1948.25C1548.11 1948.59 1533.94 1944.61 1529 1950M1917 1956C1933.61 1954.85 1951.22 1947.49 1968 1951.93C2021.23 1966.02 2012 2040.61 2012 2081C2021.09 2074.74 2016.31 2056.69 2017.32 2047C2021.75 2004.39 2003.75 1946.33 1953 1947.1C1942.13 1947.27 1924.32 1946.04 1917 1956M65 1956C67.3897 1963.41 75.9065 1965.81 83 1967.38C98.0644 1970.72 119.024 1967.81 131.474 1979.58C144.187 1991.59 151.402 2021.43 129 2021C131.996 2025.43 138.889 2024.82 141.178 2029.42C146.614 2040.34 140.099 2063.2 139 2075C131.541 2072.36 124.208 2065.52 116 2065.75C99.7329 2066.21 73.4089 2076.11 58.1075 2066.52C51.0093 2062.07 52.4518 2051.09 53.9049 2044C58.0288 2023.87 61.8818 2003.55 62.9218 1983C63.3254 1975.03 59.5955 1962.45 65 1956M1629.26 1963.34C1644.47 1960.48 1659.29 1991.47 1663.78 2002C1665.34 2005.65 1670.24 2017.29 1663.72 2018.7C1658.84 2019.75 1624.01 2017.14 1621.86 2013.22C1618.36 2006.82 1620.8 1964.93 1629.26 1963.34M1927.67 1966.33C1927.22 1966.78 1928.28 1966.72 1928.33 1966.67C1928.78 1966.22 1927.72 1966.28 1927.67 1966.33M185 2071C169.154 2059.58 181 2023.67 181 2007C181 2001.43 178.729 1989.13 182.94 1984.82C195.988 1971.47 238.139 1986.41 244.484 2000C248.943 2009.55 246.884 2022.7 248.217 2033C249.311 2041.45 258.251 2062.82 251.858 2070.08C245.095 2077.76 203.674 2072.78 194.15 2070.71C191.404 2070.12 189.831 2063.87 188.359 2064.2C186.198 2064.68 185.534 2069.31 185 2071M1265 1987.5C1220.81 1994.33 1213.5 2041.58 1212.04 2079C1211.58 2090.86 1213.73 2103.18 1214.78 2115C1214.94 2116.8 1214.04 2126 1217 2126C1220.59 2126 1218.8 2116.78 1218.53 2115C1216.92 2104.19 1214.17 2089.79 1215.28 2079C1219.91 2033.91 1233.63 1976.83 1292 1996.55C1298.59 1998.78 1321.91 2009.97 1325.83 2015.35C1330.2 2021.33 1329.88 2033.77 1331.26 2041C1335.24 2061.7 1338.4 2075.71 1339.14 2097C1339.59 2109.85 1331.5 2119.85 1331.04 2132C1330.96 2134.23 1330.38 2144.51 1334.73 2143.68C1338.05 2143.04 1336.08 2132.54 1336.54 2130C1339.07 2115.87 1342.92 2103.46 1344.22 2089C1345.99 2069.25 1342.15 2031.13 1330.94 2014.06C1327.15 2008.29 1319.82 2007.8 1314.08 2004.86C1299.47 1997.37 1282.81 1984.76 1265 1987.5M1623.36 2020.96C1628.89 2018.76 1662.56 2019.55 1665.02 2025.5C1668.71 2034.4 1658.59 2054.91 1654.93 2063C1652.88 2067.54 1645.04 2085.6 1640.38 2086.89C1635.29 2088.31 1631.21 2077.21 1629.32 2074C1624.82 2066.36 1611.15 2025.82 1623.36 2020.96M1613.63 2022.98C1617.51 2023.43 1615.02 2031.46 1615.06 2034C1615.22 2043.41 1618.61 2056.96 1621.38 2066C1623.69 2073.53 1636.41 2085.5 1635.72 2092.9C1633.98 2111.84 1588.05 2124.16 1573 2122.32C1569.25 2121.87 1546.23 2117.04 1544.78 2114.49C1539.48 2105.19 1549.35 2089.96 1553.52 2082C1564.55 2060.97 1582.02 2019.3 1613.63 2022.98M1672.28 2026.33C1701.09 2020.4 1711.39 2064.47 1713.32 2083C1713.85 2088.12 1717.47 2099.78 1715.14 2104.31C1713.53 2107.45 1705.19 2108.75 1702 2109.47C1689.04 2112.38 1646.45 2110.3 1644.9 2090.99C1644.17 2081.8 1655.32 2070.25 1658.75 2062C1661.04 2056.49 1667.47 2027.31 1672.28 2026.33M146 2029C151.22 2029.01 171.663 2028.72 174.171 2033.5C177.584 2040 171.75 2051.51 173.149 2059C174.286 2065.09 183.195 2073.05 179.208 2078.76C173.414 2087.07 146.106 2100.28 140.95 2086.98C138.608 2080.94 143.736 2074.88 144.631 2069C146.582 2056.17 148.279 2041.87 146 2029M1694 2121C1695.23 2123.01 1695.99 2123.77 1698 2125L1699 2120L1694 2121z"/>
</svg>
