<?xml version="1.0" standalone="yes"?>
<svg xmlns="http://www.w3.org/2000/svg" width="2200" height="2200">
<path style="fill:#0f0f0f; stroke:none;" d="M2018 305C2031.46 305.002 2068.76 316.644 2068 295C2063.29 296.004 2062.92 302.531 2057 303.75C2026.55 310.023 1990 298.283 1990 264C1990 258.45 1988.15 248.754 1991.33 244C2003.45 225.924 2034.62 223.666 2053 215.583C2079.99 203.712 2094.94 177.4 2097.92 150C2100.16 129.388 2078.62 95.4453 2059 88.7222C2053.68 86.8999 2025.69 85.5659 2024.11 82.3333C2022.11 78.2471 2026.79 69.8237 2028.17 66C2030.65 59.1187 2034.18 16.0742 2043 32C2048.88 25.072 2034.76 16.2734 2028.07 17.3271C2008.72 20.3792 1971.88 39.3625 1963.18 58.0405C1955.01 75.5935 1972.23 83.4583 1986.14 87.4985C1989.9 88.5925 1999.37 87.5952 1999.42 93.1477C1999.77 132.164 1988.86 165.631 1981.03 203C1979.09 212.293 1982.21 221.336 1979.91 231C1974.68 252.974 1959.95 282.393 1972.5 305.9C1981.84 323.389 2020.72 316.601 2036 319.304C2038.11 319.678 2056.59 321.631 2054.89 317.608C2053.79 314.995 2045.38 315.598 2043 315.302C2033.8 314.156 2024.71 311.811 2018 305M772 51C790.388 41.804 795.166 32.7112 817 37L816 32C850.344 26.5371 886.766 34.7307 905.657 70.0024C909.774 77.6885 909.772 90.3423 912 99C907.167 94.2654 905.633 87.8833 898.981 84.9521C876.546 75.0662 849.682 95.5552 841.937 116.04C832.24 141.69 845.306 182.388 867.321 197.938C893.225 216.235 926.102 204.904 954 206L954 203C935.674 201.221 918.548 207.756 900 204.67C855.264 197.224 838.728 156.025 846 115C848.621 125.332 850.939 138.115 858.722 146.318C870.496 158.728 900.122 155.137 910.318 142.463C921.573 128.471 917.651 85.624 911.719 70.0024C908.653 61.9312 898.266 55.3279 892.019 49.6873C864.691 25.0161 847.907 22.2366 813 28.5408C799.828 30.9197 774.367 33.4653 772 51M2021 27C2021 44.8271 2015.31 69.1726 2003.62 83.1758C1997.6 90.3813 1972.29 79.1619 1968.58 72.8784C1955.34 50.4409 2004.24 29.2905 2021 27M2026 27.3333C2026.77 27.3333 2026.16 27.8313 2025.67 27.6667L2026 27.3333M1234 59L1241 58C1236.32 65.0999 1219.64 90.1694 1212 92C1213.36 103.38 1200.52 117.421 1196.41 128C1183.05 162.384 1171 202.887 1171 240C1171 252.712 1170.65 272.259 1182 280C1180.64 264.072 1173.9 249.124 1175.14 232C1177.64 197.384 1193.37 165.879 1198 132C1220.4 145.955 1242.5 162.492 1245.86 191C1247.78 207.299 1237.54 240.987 1248 254C1256.2 223.863 1253.62 184.725 1238.14 158.041C1231.76 147.036 1197.94 132.949 1204.14 120.236C1207.28 113.808 1213.54 99.8276 1220.09 96.7488C1226.78 93.5996 1238.95 100.649 1245 103.51C1270.18 115.422 1279.94 123.979 1295.02 147C1297.81 151.256 1313.37 181.574 1314.05 179.429C1315.79 174 1307.25 161.9 1304.85 157C1291.82 130.379 1281.8 118.154 1256 104.172C1251.75 101.87 1223.99 92.2415 1224.51 88.7236C1231.19 43.6165 1289.97 67.6338 1316 77.5024C1325.25 81.0088 1346.57 88.2275 1346 100C1358.48 95.6106 1338.31 83.2727 1334 80.8618C1316.8 71.2437 1294.43 63.6787 1275 61.2847C1271.59 60.8643 1255.44 59.7461 1254.63 55.79C1252.36 44.6316 1292.01 38.2083 1292.34 32.8318C1292.83 24.6113 1282.39 31.8748 1279.71 33.3979C1269.65 39.1206 1259.39 47.2705 1249 52.0132C1243.54 54.5078 1237.28 52.9824 1234 59M2029 29C2030.63 35.4514 2029.4 54.7742 2024 59C2024 47.9568 2022.91 38.6094 2029 29M1575 63C1573.58 60.5635 1565.43 58.802 1565.63 57.8318C1567.07 51.0356 1584.2 52.9998 1589 53C1614.65 53.0015 1638.12 56.3418 1664 53.2854C1670.52 52.5154 1687.4 56.3862 1690 49C1656.44 49.3103 1623.62 52.7388 1590 49.3208C1582.73 48.582 1563.32 48.446 1561.3 57.863C1560.21 63.0127 1571.75 62.0613 1575 63M2021 57C2020.96 66.7942 2020.1 84.4131 2008 86C2009.42 76.0396 2013.89 64.2988 2021 57M1561 63C1551.34 71.6926 1557.17 83.2092 1555.82 95C1551.33 134.17 1559.51 170.385 1607 174.264C1615.99 174.998 1659.43 172.412 1660.83 184.008C1661.92 193.037 1645.72 194.174 1640 195.982C1622.13 201.632 1585.3 203.632 1575.42 222.328C1563.81 244.33 1584.98 282.215 1571 300C1583.93 305.28 1601.46 300.824 1618 301.007C1635.73 301.204 1651.86 306.113 1669 308.705C1672.29 309.202 1697.08 312.35 1697.4 307.812C1697.73 303.083 1673.69 304.191 1670 303.761C1646.76 301.057 1624.78 298 1601 298C1594.55 298 1581.87 299.976 1579.26 291.878C1571.38 267.415 1570.98 221.498 1597.96 211.798C1615.15 205.618 1633.41 203.842 1650.68 197.691C1656.15 195.744 1665.74 192.172 1665.67 185C1665.54 170.633 1648.84 172.457 1639 171.955C1615.08 170.733 1584.82 169.674 1566.61 150.802C1544.11 127.479 1567.56 88.8782 1561 63M202 139C184.766 134.238 169.758 130.81 153 139.579C146.532 142.963 136.225 156.508 129.081 156.483C115.281 156.436 94.4169 127.913 80 148C97.5242 151.596 111.215 145.076 125 162C114.035 166.472 111.321 183.4 109.013 194C102.822 222.428 108.574 250.366 114.22 278C116.906 291.147 120.468 307.849 137 310.16C159.454 313.298 194.122 273.644 194.604 253C195.499 214.659 168.109 174.661 132 162C146.244 148.408 202.972 116.395 209 156C218.017 152.821 207.768 138.516 204.097 133.008C198.508 124.622 189.297 121.112 182.784 113.844C171.93 101.733 169.585 89.8147 153.864 81.636C127.755 68.0532 84.2413 76.168 76.6285 107C74.9396 113.84 67.8741 144.875 74.773 149.456C78.0332 151.621 76.6301 135.668 76.7686 134C78.1774 117.031 79.88 96.5564 96.0007 86.7908C115.164 75.1824 149.922 81.1526 165.676 95.6982C171.372 100.958 172.826 109.902 178.279 115.774C186.068 124.161 196.485 128.459 202 139M431 85C433.91 92.3738 439.212 93.9309 439 103C441.249 100.712 443.262 98.6907 446 97L441 91C455.253 96.9561 468.011 106.01 482 112.723C485.206 114.261 494.348 116.709 492.813 121.729C489.204 133.53 470.011 142.708 460.438 148.756C457.007 150.924 449.225 155.935 450.187 160.794C452.015 170.03 480.1 176.576 488 178.81C491.291 179.74 501.32 180.991 501.056 185.927C500.571 194.955 468.203 211.118 461 216.056C459.18 217.304 447.402 224.391 449.544 227.226C452.072 230.572 459.603 222.51 461.32 221.078C468.64 214.974 488.138 197.86 498 199.375C517.092 202.309 534.112 210.377 551 219.477C553.583 220.869 564.637 230.122 567.456 226.264C569.705 223.187 555.123 216.511 553 215.628C536.745 208.865 513.486 202.696 499 194C507.653 191.14 514.916 184.459 523 180.201C531.149 175.909 558.171 165.624 560.895 156.385C562.082 152.362 553.44 142.787 549.971 141.535C531.928 135.021 506.578 125.087 493 111C511.189 108.489 530.213 95.6599 548 89.665C553.55 87.7947 563.44 86.6667 566 81C537.949 81.5754 514.748 108.232 488.865 109.62C471.394 110.557 450.07 87.5315 431 85M887 88.4565C920.82 87.3315 916.429 148.415 885.997 149.834C841.697 151.9 842.434 89.939 887 88.4565M2011 88C2010.89 96.135 2004.94 104.031 2003.39 112C2001.51 121.731 2006.86 139.535 1999 147C1995.3 131.814 1998.77 97.467 2011 88M2018 88C2022.74 111.547 2015.19 162.482 1996 179C1996.3 165.812 2004.2 155.452 2006.75 143C2010.86 122.875 2004.23 106.127 2018 88M2073 106C2055.83 100.391 2040.62 92.0081 2022 92C2027.28 76.9883 2068.04 96.5593 2073 106M1991 232C1991.35 194.602 2011.85 166.995 2019.74 132C2021.28 125.145 2017.37 100.26 2023.6 96.8218C2030.16 93.2061 2042.61 98.5669 2049 100.666C2069.54 107.412 2097.88 121.62 2093.09 149C2090.35 164.733 2085.85 185.489 2071.96 195.315C2061.14 202.967 2041.55 205.777 2029 211.936C2016.21 218.208 2004.93 228.211 1991 232M498.38 122.888C502.551 121.267 508.649 125.926 512.003 128.006C520.287 133.144 553.969 143.638 553.861 153.86C553.756 163.724 520.128 178.325 512 181.406C502.732 184.919 477.415 169.332 467 166.577C463.314 165.603 456.086 164.808 455.283 160.051C454.531 155.596 461.968 152.432 465.003 150.801C477.211 144.24 486.06 127.676 498.38 122.888M186 236C182.699 235.108 181.029 235.406 178 237C190.607 240.678 183.035 251.455 182.662 261C181.929 279.772 157.765 306.919 137 305.786C115.952 304.639 121.735 280.99 118.364 268.354C111.182 241.429 103.357 197.108 120.245 171.24C132.076 153.117 171.224 190.521 175.613 203C178.959 212.514 186.056 226.108 186 236M2066 202C2058.13 212.94 2034.8 219.898 2022 222C2027.73 210.317 2053.75 202.44 2066 202M1988.67 206.667C1988.72 206.722 1988.78 207.778 1988.33 207.333C1988.28 207.278 1988.22 206.222 1988.67 206.667M1987 245C1985.86 257.191 1982.88 270.118 1987.39 282C1990.06 289.019 1996.58 293.095 1999 300C1976.9 297.555 1965.45 254.855 1987 245M189 253C188.774 256.249 188.178 258.962 187 262C185.881 258.352 186.642 255.933 189 253M1976 287C1981.2 291.921 1986.72 299.092 1993.48 301.852C2003.32 305.873 2018.43 303.93 2024 316C2006.25 316 1967.4 312.384 1976 287M1584.67 292.333C1584.22 292.778 1585.28 292.722 1585.33 292.667C1585.78 292.222 1584.72 292.278 1584.67 292.333M1250 499C1251.21 498.549 1257.69 494.555 1257.51 498.116C1257.25 503.108 1243.75 508.935 1240.58 513.008C1225.58 532.262 1206.94 577.225 1242 588C1231.17 602.198 1219.39 610.276 1219.44 630C1219.48 652.072 1243.23 683.791 1268 669.351C1287.68 657.877 1296.18 622.855 1279.77 605.602C1276.68 602.346 1255.52 591.354 1255.52 588.844C1255.52 582.133 1287.28 570.293 1292.68 565.302C1322.18 537.988 1281.21 514.714 1265 499C1274.44 498.622 1281.24 492.868 1289 488.025C1295.57 483.92 1301.21 479.247 1305.85 473C1343.52 422.348 1240.03 399.721 1233.24 455C1230.81 474.857 1249.84 483.357 1250 499M1282 426.328C1304.32 424.235 1310.65 446.759 1305.4 465C1302 476.851 1279.5 493.772 1267 494.312C1245.88 495.224 1230.34 467.255 1238.54 449C1246.24 431.863 1265.47 427.877 1282 426.328M1567 446C1582.38 450.449 1580.47 480.055 1581.78 494C1582.17 498.168 1583.95 507.885 1581.1 511.257C1575.32 518.103 1558.75 516.845 1556 527C1560.93 526.252 1576.83 516.3 1580.86 519.337C1585.35 522.726 1580.89 547.565 1580.32 553C1577.57 579.408 1557.81 646.671 1594 655.363C1611.93 659.67 1634.57 633.651 1635.89 617C1637.37 598.322 1622.87 586.773 1606 582.679C1599.12 581.009 1591.92 580.249 1585 582C1594.87 594.422 1620.04 583.58 1629.97 604C1641.92 628.565 1591.55 673.254 1580.48 640.853C1576.33 628.683 1582 616.788 1584 605C1580.2 606.333 1579.96 609.35 1579 613C1574.41 602.981 1581.82 584.011 1583.18 573C1585.01 558.137 1580.88 531.596 1587.58 518.507C1590.6 512.603 1602.34 510.937 1608 508.962C1618.97 505.13 1630.88 500.88 1641.86 507.534C1666.46 522.432 1654.83 565.366 1631 574.454C1616.5 579.982 1600.77 571.737 1586 576C1590.32 580.869 1599.02 578.32 1605 579.22C1633.91 583.57 1655.84 568.566 1660.42 538C1663.56 517.079 1647.22 509.337 1634 499C1641.5 496.373 1664.45 482.987 1666 499C1674.59 494.605 1669.17 490.582 1662 490C1664.32 485.126 1670.07 478.819 1668.96 473.085C1665.42 454.786 1630.55 442.382 1615 440.663C1604.16 439.465 1592.8 443.363 1582.09 442.196C1576.54 441.592 1579.25 432.664 1575.9 432.642C1576.37 432.645 1567.95 444.707 1567 446M906 534C908.608 531.697 908.832 529.405 909 526C914.506 532.38 912 544.977 912 553C891.167 534.578 890.859 503.101 869.661 483.423C864.223 478.375 859.76 471.016 852 470C857.013 484.107 874.538 489.828 881.285 503.019C887.612 515.389 890.485 529.958 897.245 542C900.944 548.588 909.543 554.06 911.738 561.139C918.876 584.166 916.228 617.094 916.956 641C917.295 652.126 902.484 694.402 920.008 697.127C928.67 698.474 947.826 681.027 953.478 674.864C973.253 653.3 991.309 630.123 1013 610.698C1017.26 606.887 1034.53 593.438 1033.7 587.395C1033.17 583.576 1027.16 588.215 1026 589C1039.4 563.446 1036.24 520.151 1027 493C1024.32 485.13 1024.65 476.992 1019.12 470.184C1006.38 454.495 986.128 447.394 967 444.074C955.455 442.071 927.312 432.468 917.045 441.819C909.583 448.616 913.031 462.188 913.476 471C914.52 491.661 904.851 513.676 906 534M981 638C974.405 625.16 967.289 604.844 957.585 594.303C945.978 581.694 924.524 572.574 917.396 556C914.658 549.634 917.262 538.945 916.952 532C916.034 511.452 917.154 491.587 917.957 471C918.175 465.425 915.054 448.019 920.685 444.822C931.271 438.811 953.252 445.313 964 447.915C982.164 452.313 1001.59 456.345 1014.48 471.258C1019.06 476.565 1018.73 483.755 1021.1 490C1029.11 511.156 1034.73 549.509 1029.3 572C1022.34 600.833 999.644 616.51 981 638M1612 445.557C1626.25 445.664 1670.66 460.145 1662.51 479.879C1656.69 493.984 1620.65 497.182 1608 501.813C1602.65 503.771 1595.5 511.03 1589.5 510.16C1585.33 509.555 1587.06 498.905 1586.96 496C1586.57 485.286 1575.1 457.908 1579.91 448.822C1582.68 443.589 1606.57 445.516 1612 445.557M452 467C457.985 479.179 478.835 498.704 480.265 511C481.867 524.778 463.351 548.018 459.987 562C454.387 585.278 491.446 608.99 507 618.201C513.159 621.849 517.659 627.786 524 631.069C530.424 634.396 559.245 633.236 548 646C566.016 644.156 584.674 658.678 600.78 647.678C621.174 633.749 616.888 613.826 616.36 593C615.242 548.835 607.88 508.886 569.823 480.34C544.522 461.361 498.731 479.658 487 509C474.039 497.788 468.335 468.592 452 467M565 642C569.793 635.771 574.889 641.23 581 642C573.439 630.616 570.62 616.937 563.475 606.003C557.257 596.488 547.159 590.288 540.796 581C530.873 566.516 529.323 551.198 516.215 537.019C510.867 531.233 490.682 519.122 490.633 510.922C490.603 505.856 498.14 500.442 501.191 496.93C514.774 481.297 543.381 469.928 561.981 480.484C604.917 504.852 610.562 552.351 611.008 596C611.21 615.776 616.281 639.626 591 647.923C582.135 650.832 573.578 643.271 565 642M1979 580C1976.96 594.928 1975.77 610.18 1973.23 625C1972.21 630.952 1967.5 638.781 1969.98 644.813C1973.47 653.292 2003.35 665.314 2011.2 658.178C2015.23 654.514 2014 646.859 2014 642C2014 627.202 2007.63 571.669 2030 588C2030.61 574.155 2018.62 581.215 2014.81 574.491C2010.53 566.908 2012.72 555.31 2010.3 547C2006.65 534.432 2001.45 503.509 1989.66 496.26C1983.87 492.705 1974.39 496.208 1968 495.92C1935.44 494.449 1901.87 508.122 1887.14 540.04C1875.44 565.402 1893.79 595.896 1882.48 623C1876.25 637.921 1900.52 671.858 1917.49 662.507C1937.64 651.405 1920.11 606.234 1931.28 590.205C1935.78 583.755 1961.39 579.499 1968.63 582.149C1971.69 583.271 1969.75 590.357 1972.06 590.357C1973.76 590.357 1976.84 581.567 1979 580M1931 507L1927 506C1940.99 500.14 1956.46 501.711 1971 500.856C1974.91 500.626 1984.14 497.959 1986.51 502.604C1989.72 508.923 1978.49 534.34 1976.91 542C1975.36 549.477 1978.26 570.746 1972.18 575.743C1968.15 579.058 1958.94 577.75 1954 578.478C1948.55 579.282 1934.43 584.736 1929.85 581.093C1925.95 577.994 1926.57 569.527 1925.66 565C1923.15 552.538 1924.97 517.749 1931 507M1260.32 503.036C1273.48 500.039 1298.54 531.14 1297.51 543C1295.69 563.933 1267.53 580.673 1249 585.211C1233.53 588.999 1227.64 568.849 1225.96 558C1223.17 540.045 1242.13 507.179 1260.32 503.036M2009 577C2001.94 575.75 1984.12 579.385 1978.9 574.74C1975.6 571.807 1978.59 561.854 1978.86 558C1980.12 540.616 1987.8 524.184 1989 507C1997.17 510.136 1997.09 519.499 1998.99 526.922C2003.33 543.953 2008.66 559.057 2009 577M1919.84 513.845C1925.41 513.432 1923.03 527.333 1923.44 531C1924.51 540.706 1919.83 549.225 1920.02 559C1920.14 565.38 1924.12 575.671 1922.75 581.474C1922.1 584.22 1918.32 584.83 1916 585.142C1871.95 591.077 1886.77 516.299 1919.84 513.845M485.272 516.098C490.845 514.59 503.164 529.749 507.059 533.25C523.7 548.205 525.64 564.022 536.852 581C542.987 590.291 553.131 596.427 558.776 606.003C562.178 611.774 572.085 634.309 562.929 637.274C554.697 639.94 548.54 631.975 541 630.447C517.182 625.619 462.538 595.029 463.684 564C463.894 558.324 469.688 555.607 471.604 550.783C474.547 543.374 473.665 519.24 485.272 516.098M234 527C216.482 550.023 214.73 580.53 201.395 606C199.826 608.997 192.515 629.594 190.719 629.919C186.209 630.735 168.447 611.785 165.681 607.999C158.272 597.856 159.62 582.679 156.277 571C152.629 558.255 137.364 539.459 126.702 531.822C117.335 525.112 106.517 534.478 103.222 543C95.7834 562.237 95.4416 583.459 88.5117 603C83.1479 618.125 71.3074 632.739 70 649C91.1221 633.979 97.2557 587.042 103.143 564C105.351 555.36 105.032 542.986 112.381 536.604C122.714 527.631 136.72 549.325 142.411 556C154.577 570.267 151.792 590.783 160.379 607C169.86 624.904 189.999 628.186 190 651C166.273 645.457 140.315 643.847 116 645.078C109.146 645.425 90.6133 649.595 85.0018 644.769C82.4415 642.568 88.1803 642.035 89 642C86.8837 632.995 74.237 642.897 77.8185 646.778C86.2671 655.933 111.387 650.639 122 649.446C137.827 647.667 155.212 651.481 171 653C175.764 653.458 185.713 653.333 189.283 656.844C193.76 661.246 191.054 671.371 193.325 676.955C195.303 681.818 199.272 681.607 201 677C194.404 675.293 196.39 662.949 195 657C222.062 661.102 253.629 655.572 278 666C275.994 656.621 266.569 654.784 264.922 645C261.435 624.281 255.196 603.78 252.332 583C249.698 563.889 250.173 540.492 234 527M232 534C241.473 538.094 242.899 550.128 244.391 559C248.202 581.653 251.986 603.576 257.032 626C258.105 630.769 265.02 651.307 261.082 654.7C251.435 663.012 221.639 655.54 210 654.923C205.459 654.682 196.444 655.157 194.751 649.794C189.098 631.891 205.909 604.48 213.363 589C221.676 571.735 225.737 552.241 232 534M917 562C936.805 582.375 954.123 596.89 967.088 622C969.965 627.572 979.431 635.627 977.246 642.444C974.662 650.505 959.005 655.797 953.217 661.984C947.953 667.612 927.671 694.552 919.379 691.973C910.794 689.302 917.785 667.955 917.988 662C918.749 639.669 919.714 617.471 918.96 595C918.62 584.887 913.946 571.749 917 562M1983.82 580.822C2015.74 560.707 2009 616.457 2009 632C2009 636.81 2011.52 652.434 2007.18 655.48C2000.5 660.167 1979.06 650.281 1975.3 644.365C1969.2 634.779 1980.63 607.258 1980.99 596C1981.1 592.447 1980.38 582.992 1983.82 580.822M1917.99 589.39C1930.4 589.013 1921.84 634.555 1920.66 644C1920.14 648.191 1919.12 657.729 1913.73 658.504C1881.7 663.113 1890.08 626.589 1892.74 611.922C1893.74 606.369 1890.62 596.432 1894.38 591.822C1897.65 587.816 1913.02 589.541 1917.99 589.39M1247 592.692C1285.12 586.432 1299.04 658.884 1263 666.877C1220.51 676.299 1208.61 598.998 1247 592.692M642 600C642.01 602.352 642.105 602.614 644 604L644 600L642 600M271 603C271.545 604.635 271.365 604.455 273 605C272.227 603.825 272.175 603.773 271 603M296 613C292.381 602.596 285.98 608.104 296 613M1527 611C1529.05 609.408 1529.49 608.551 1530 606C1526.97 606.856 1526.72 607.919 1527 611M320 635C321.894 636.733 322.418 637.092 324 635L320 635M946.667 673.667C946.722 673.722 946.778 674.778 946.333 674.333C946.278 674.278 946.222 673.222 946.667 673.667M945 676C943.772 678.009 943.009 678.772 941 680C942.33 678.247 943.247 677.33 945 676M2002 1014C1998.06 1008.95 1993.09 1005.08 1987 1003C2005.23 988.175 2027.69 985.782 2047.92 976.216C2058.65 971.143 2073.63 955.706 2081.64 946.92C2099.57 927.239 2117.29 900.411 2116.99 873C2116.6 836.679 2108.26 794.071 2075.56 771.667C2067.09 765.862 2047.28 770.024 2037 769.999C2001.57 769.915 1945.77 767.192 1918.45 795.163C1872.79 841.908 1873.03 947.381 1942 972.994C1949.02 975.604 1950.03 981.962 1955.2 986.477C1965.32 995.318 1988.29 1012.92 2002 1014M2037 975C2042.49 965.644 2052.37 959.483 2056.64 949C2063.37 932.502 2049.13 906.827 2036.95 896.338C2028.6 889.142 2010.29 888.34 2007.6 875.999C2002.94 854.626 2015.29 799.77 1991 788C1996.23 810.91 1998.08 829.28 1999.09 853C1999.3 857.865 2005.27 869.153 2003.06 873.256C2000.99 877.108 1975.9 879.221 1970.02 883.706C1943.57 903.889 1939.9 938.707 1943 969C1877.91 945.965 1876.66 838.762 1922.57 796.662C1943.58 777.399 1983.38 776.271 2010 774.922C2023.3 774.248 2042.2 771.672 2055 775.872C2057.05 776.546 2067.7 783.194 2069.36 780.903C2069.97 780.052 2062.73 773.764 2062 772C2081.94 772.818 2090.6 795.002 2099.88 809.217C2129.77 855.03 2107.23 921.087 2068.04 953.224C2058.3 961.212 2050.75 974.655 2037 975M1605 789C1602.45 805.494 1570.7 797.051 1555 796.999C1552.59 796.991 1534.46 793.935 1535.32 797.923C1536.01 801.117 1549.29 800.785 1552 800.922C1562.37 801.448 1602.94 796.106 1606.45 808.07C1611.6 825.617 1608.01 840.897 1610.36 858C1611.17 863.903 1615.34 878.065 1612.44 883.421C1610.13 887.694 1598.9 883.905 1595 884.225C1585.4 885.011 1575.26 891.288 1568.06 897.231C1554.42 908.493 1526.91 941.27 1537.5 960.919C1543.18 971.442 1562.54 979.849 1572.78 985.239C1580.63 989.37 1588.87 996.568 1598 997C1584.87 981.706 1548.99 976.69 1540.94 957.901C1531.83 936.62 1568.06 898.497 1585.08 891.193C1594.09 887.326 1614.84 883.841 1614 898C1624.49 893.013 1617.17 881.873 1617.46 873C1617.89 859.359 1619.14 840.292 1616.06 827C1614.76 821.396 1609.25 809.086 1613.27 803.781C1617.55 798.117 1638.46 798.677 1645 799.136C1653.2 799.711 1660.64 800.459 1667 806C1672.05 798.992 1662.2 797.475 1657 796.824C1643.12 795.087 1626.47 800.839 1613.45 797.833C1609.57 796.938 1608.12 791.34 1605 789M1189 827C1188.1 821.348 1190.09 808.711 1183.75 805.544C1178.93 803.138 1168.36 835.526 1169 840C1160.93 838.207 1154.03 834.363 1146.03 838.785C1131.52 846.801 1140.3 874.039 1150.06 882.543C1154.75 886.635 1175.17 890.552 1176.53 893.461C1182.61 906.459 1180.3 923.581 1185.94 936.997C1195.99 960.872 1228.03 971.33 1249.86 959.797C1265.06 951.77 1276.25 931.984 1283.79 917C1286.4 911.804 1287.78 901.735 1291.92 897.841C1296.91 893.146 1305.68 900.905 1311 901.341C1326.52 902.612 1341.21 889.211 1340.38 873.217C1340.18 869.466 1337.99 865.281 1336.3 861.999C1322.33 834.823 1300.38 862 1284.91 844.197C1281.68 840.485 1284.71 825.982 1285 821C1277.98 823.801 1276.85 833.517 1272 839C1272.52 830.311 1273.66 822.506 1271 814C1261.88 821.328 1263.41 831.599 1257 840C1257.04 829.894 1262.33 819.051 1254 811C1251.37 817.045 1249.28 827.02 1244 831C1243.54 824.869 1240.52 820.45 1238 815C1229.78 820.786 1233.33 836.006 1226 844C1226.65 833.194 1230.23 820.504 1226.62 810C1225.93 807.969 1223.97 799.937 1220.6 801.106C1215.55 802.856 1211.09 824.912 1207 830C1207.05 826.716 1213.37 793.778 1204.07 796.761C1195.84 799.403 1193.46 820.443 1189 827M1205 802C1205 815.904 1208.14 839.016 1191 838C1195.32 827.025 1199.12 813.62 1202 802L1205 802M1222 808C1224.36 820.679 1221.81 833.256 1223 846C1200.83 840.196 1214.33 821.454 1222 808M1571 809C1582.84 825.895 1591.27 809.012 1571 809M1184 810C1184 816.587 1188.89 830.898 1186.14 836.396C1184.32 840.016 1174.03 840.553 1173.52 835.716C1172.67 827.616 1179.02 817.287 1182 810L1184 810M1582 816C1579.72 814.119 1578.4 812.593 1577 810C1580.51 810.952 1581.25 812.523 1582 816M221 821C215.371 806.732 193.645 811.537 182 812.942C152.225 816.533 86.8381 818.384 72.7657 851.003C59.3709 882.05 92.4342 894.297 114.438 905.385C118.995 907.681 126.551 906.538 129.958 910.604C133.464 914.788 137.32 948.552 130.598 949.333C126.596 949.798 122.884 944.304 118.981 943.325C108.006 940.57 94.2405 939.726 83.0084 941.148C74.4926 942.226 69.9653 958.975 75.4951 965.38C78.003 968.286 101.491 968.411 107 970.141C134.272 978.704 178.902 990.34 206 979.431C216.17 975.337 232.993 969.084 233.873 956C236.386 918.633 177.669 926.712 160.822 910.879C156.129 906.469 158.228 873.47 158.11 866.011C157.86 850.219 199.657 857.633 207.518 851.964C217.044 845.094 208.712 829.23 210.384 820.442C211.113 816.605 218.649 820.5 221 821M83 846C98.9225 819.45 141.216 829.453 166 821.099C172.869 818.784 197.061 812.342 203.179 817.262C207.083 820.402 209.271 845.994 203.501 847.825C182.862 854.372 158.584 853.975 137 851.679C119.42 849.809 100.535 846.693 83 846M1255 820C1254.13 832.468 1258.47 849.413 1247 841C1246.49 844.687 1245.66 846.074 1242 847C1244.32 838.321 1249.56 827.155 1255 820M1269 822C1269.52 851.547 1254.62 846.61 1267 822L1269 822M1238 824C1239.02 827 1240.13 851.192 1232.92 845.391C1229.63 842.75 1236.69 827.537 1238 824M810 945C827.851 954.477 837.193 974.357 856.04 983.07C908.698 1007.41 966.158 969.441 1001.74 933.313C1020.95 913.81 1028.76 884.809 1036.34 860C1037.41 856.47 1043.83 834.168 1038.64 833.323C1033.85 832.546 1030.9 841.741 1029.47 844.864C1023.56 857.758 1014.95 869.876 1007.64 882C1001.5 892.186 990.476 892.941 981 898.686C961.25 910.661 938.565 936.661 915 939.739C907.555 940.711 892.728 942.731 888.501 934.893C882.543 923.844 891.674 910.508 877.957 902.072C871.354 898.011 864.401 903.609 859 907.245C844.616 916.929 817.132 928.717 810 945M1281 833C1280.98 848.002 1272.29 844.371 1281 833M1153 840.642C1170.61 838.488 1172.17 859.868 1173.86 872C1174.55 876.948 1177.44 887.475 1169.93 888.414C1148.79 891.054 1130.67 843.372 1153 840.642M1036 842C1035 843.924 1034.92 844.099 1033 845C1033.9 842.876 1033.88 842.899 1036 842M1174 850C1176.87 851.066 1179.37 852.441 1182 854C1180.19 849.622 1176.89 846.687 1174 843C1182.67 842.996 1204.72 838.649 1211.31 844.831C1228.56 860.991 1197.25 921.127 1180.18 884.959C1175.55 875.153 1176.27 860.683 1174 850M1032 846C1037.66 862.731 1023.54 887.211 1015.97 901.236C991.552 946.538 934.579 995.11 880 983.656C858.999 979.248 822.295 966.624 816 941C818.92 941.589 821.309 942.743 824 944L819 937C831.228 932.502 845.75 922.848 856.103 914.857C860.832 911.206 868.199 903.541 874.951 905.136C886.771 907.928 881.877 925.206 883.868 933C887.222 946.133 903.984 946.54 915 944.583C946.585 938.971 965.722 903.589 996 895C991.493 905.625 973.888 907.84 972 920C1001.66 900.68 1016.22 876.43 1032 846M79.6451 849.9C85.0388 847.381 94.5147 852.692 100 853.602C122.459 857.326 132.12 856.387 129.321 884C128.908 888.073 132.83 901.922 129.189 904.152C119.489 910.095 79.0499 885.105 76.004 875.979C74.3969 871.163 74.239 852.425 79.6451 849.9M1237 854C1251.34 845.35 1252.77 892.647 1247.18 901.159C1246.27 902.537 1211.63 899.553 1211 898.178C1209.44 894.747 1213.35 887.472 1214.22 884C1217.26 871.853 1219 861.569 1219 849C1223.82 850.154 1235.81 848.421 1237 854M1282 860C1281.93 858.632 1281.07 847.638 1285.21 851.106C1289.15 854.406 1284.2 865.032 1283.46 869C1280.42 885.443 1287.43 894.937 1268 899.68C1264.8 900.46 1258.01 902.484 1255.26 899.74C1249.52 894.015 1253.03 859.646 1253 851C1268.31 854.108 1273.09 846.244 1282 860M1293.5 852.407C1297.55 851.729 1322.43 850.415 1325.46 852.822C1340.3 864.612 1338.4 893.173 1318 896.894C1300.03 900.172 1287.62 891.276 1289.56 874C1289.99 870.232 1288.55 853.237 1293.5 852.407M133 855C137.284 856.071 148.856 855.278 151.722 858.26C157.719 864.499 158.457 898.853 153.221 906.168C145.181 917.404 135.275 897.625 134.681 892C134.104 886.536 135.032 881.419 134.823 876C134.548 868.896 132.415 862.178 133 855M563 895C559.423 901.054 546.602 917.057 538.997 916.288C529.788 915.358 515.894 902.658 506.504 909.26C495.224 917.191 521.167 934.273 512.782 941.615C504.651 948.734 452.937 953.636 472 973C466.876 977.235 445.627 991.963 445.76 998.702C445.792 1000.29 467.8 1007.65 471 1008.68C496.214 1016.81 531.781 1019.48 552.895 1000.23C560.88 992.956 565.675 982.294 558.003 973.204C555.498 970.236 546.12 968.382 547.327 963.86C551.829 946.98 565.581 932.437 574.634 918C579.506 910.231 576.209 900.589 580.142 893.019C584.282 885.049 594.976 879.733 601 873C596.351 872.621 591.238 870.828 586.993 873.293C583.181 875.508 577.46 884.134 572.922 883.56C560.463 881.982 554.053 858.427 536.351 867.94C526.297 873.343 556.249 894.402 563 895M538 871C546.634 869.332 571.991 876.845 570.574 888.809C569.47 898.133 550.704 887.886 547.795 884.676C544.111 880.612 541.365 875.382 538 871M1994 993L1994 995C1978.51 999.513 1951.88 981.897 1946.49 964.992C1935.61 930.936 1959.27 879.951 1997.21 878.501C2003.18 878.273 2010.49 886.602 2016 889.199C2050.93 905.673 2066.85 943.001 2033.92 971.648C2024.96 979.445 2011.57 985.692 2000 988.323C1997.3 988.937 1984.82 987.164 1983.64 988.916C1981.84 991.597 1992.78 992.809 1994 993M586 881C583.835 883.472 582.051 884.782 579 886C581.167 883.427 582.83 882.12 586 881M571.93 895.752C581.428 893.966 565.552 932.499 556.79 934.894C552.586 936.043 546.39 922.647 546.948 919.323C548.018 912.953 565.756 896.913 571.93 895.752M1286 900C1277.21 943.503 1226.75 986.943 1192.21 939.861C1184.85 929.83 1183.39 907.317 1182 895C1219.44 903.878 1247.81 908.076 1286 900M136 909C156.448 910.254 153.948 916.984 155.136 934C155.44 938.347 158.113 947.32 155.523 951.178C151.986 956.447 139.374 953.75 137.89 947.948C136.472 942.41 137.92 935.772 137.32 930C136.592 922.992 136.93 916.014 136 909M511.287 911.69C527.229 906.984 548.926 926.387 522.706 934.189C515.15 936.437 503.752 913.914 511.287 911.69M162.365 918.225C175.235 914.512 211.601 929.206 220.385 938.418C226.087 944.396 235.814 961.169 221.903 965.224C218.044 966.349 211.919 962.635 208 961.82C199.184 959.986 165.989 961.031 160.338 954.74C157.334 951.396 157.424 919.65 162.365 918.225M524 940C525.483 936.405 539.392 922.563 543.377 924.065C546.729 925.328 551.963 936.717 548.448 939.278C542.586 943.548 530.77 940.01 524 940M553 943C546.732 971.824 525.583 958.832 505 953C519.937 938.305 533.904 945.142 553 943M218 967C213.18 974.792 204.149 974.844 196.32 977.662C174.217 985.618 131.18 972.681 109 965.886C101.363 963.546 81.2914 966.258 77.9209 956.802C72.1956 940.74 105.977 946.721 112.992 946.992C123.216 947.386 132.039 956.001 143 957.639C167.927 961.363 193.255 961.652 218 967M490 955C487.447 961.724 478.956 967.218 473 971C470.086 957.602 479.111 955.308 490 955M478 972C492.312 957.728 501.743 955.138 520.999 960.651C524.437 961.636 535.048 963.624 535.679 968.13C536.335 972.814 526.305 977.667 523 979.352C509.356 986.307 488.943 982.436 478 972M255 962L256 963L255 962M543 970.78C557.597 969.893 559.887 983.378 553.196 992.999C546.134 1003.15 534.918 1007.14 523 1008.73C502.93 1011.41 423.494 1000.27 473.438 976.832C478.238 974.58 483.019 980.914 487 982.831C494.057 986.231 506.235 987.196 514 986.439C525.285 985.339 532.29 971.431 543 970.78M1960 985L1956 983C1958.22 982.631 1958.73 983.141 1960 985M1913 1267C1914.38 1271.28 1915.29 1277.63 1920 1279C1920 1273.86 1917.81 1264.53 1921.48 1260.34C1925.72 1255.5 1941.87 1256.04 1948 1256C1967.11 1255.87 1987.1 1251.79 2006 1248.58C2012.94 1247.4 2033.8 1246.54 2036 1239C2006.49 1240.16 1977.88 1250.34 1948 1250.98C1942.41 1251.1 1926.17 1256.19 1921.86 1252.78C1918.83 1250.38 1921.15 1242.11 1921.9 1239C1925.16 1225.52 1929.4 1211.22 1936.01 1199C1942.86 1186.35 1947.13 1170.55 1955.82 1159.08C1978.15 1129.63 2009.09 1120.32 2044 1120C2041.75 1133.02 2048.28 1146.28 2046.84 1160C2046.06 1167.4 2039.45 1171.2 2037.81 1178C2035.56 1187.29 2035.6 1200.75 2034 1211C2044.64 1200.02 2039.75 1187.03 2042 1174L2044 1174C2052.61 1221.26 2027 1261.38 2027 1309C2027 1318.51 2033.07 1351.42 2025.19 1357.74C2020.08 1361.83 2003.71 1359.41 1997 1360.44C1967.66 1364.94 1939.77 1370.51 1910 1366C1914.38 1376.07 1931.32 1372.99 1940 1372.22C1965.5 1369.95 1994.48 1361.04 2019.95 1363.33C2029.82 1364.22 2025.28 1380.55 2032.15 1381.68C2038.84 1382.78 2031.63 1368.16 2032.9 1366.15C2034.94 1362.9 2048.63 1368.68 2052 1369C2047.89 1362.39 2035.45 1364.09 2032.96 1357.72C2029.86 1349.81 2032 1332.78 2032 1324C2031.99 1283.56 2043.58 1253.46 2052.32 1215C2055.43 1201.35 2049.85 1187.65 2049.59 1174C2049.19 1152.66 2053.21 1141.96 2046 1120L2054 1122C2053.33 1113.75 2038.28 1117 2032 1117C2005.83 1117 1990.08 1123.61 1970 1140.56C1935.65 1169.56 1928.2 1211.08 1916.68 1251.89C1914.99 1257.89 1904.13 1255.32 1902.92 1261.07C1900.76 1271.23 1903.02 1291.13 1902.09 1303C1900.4 1324.69 1894.33 1340.82 1900.31 1363C1901.1 1365.92 1902.94 1382.81 1907.48 1380.99C1912.2 1379.11 1902.57 1346.47 1901.61 1341C1898.21 1321.53 1909.98 1301.06 1910 1281C1910.01 1276.61 1907.44 1263.93 1912.38 1261.33C1916.22 1259.31 1917.61 1265.46 1913 1267M175 1127C176.752 1126.44 177.542 1126.08 179 1125C176.648 1125.01 176.386 1125.11 175 1127M810 1391C809.226 1382.73 815.182 1376.22 815.856 1368C818.23 1339.03 822.366 1311.6 826.697 1283C833.183 1240.17 827.723 1192.34 824 1149C830.863 1149.28 836.295 1144.87 843 1144.52C856.476 1143.82 871.158 1149.39 885 1149.65C894.475 1149.82 903.515 1145.53 913 1146.14C927.975 1147.09 940.854 1157.58 956 1156.84C971.195 1156.11 986.921 1155.87 1002 1157.56C1006.11 1158.02 1013.94 1156.57 1017.04 1159.82C1027.28 1170.56 1012.95 1193.13 1013.18 1204C1013.61 1223.29 1015.06 1242.58 1008.82 1261C993.979 1304.81 938.022 1335.3 898 1349.53C878.842 1356.34 863.915 1358.52 844 1361.3C840.258 1361.82 823.184 1360.5 826.649 1364.49C832.324 1371.02 841.955 1365.37 849 1365.66C875.53 1366.75 905.375 1354.43 929 1342.94C958.247 1328.71 1005.11 1293.53 1014.86 1260.86C1020.74 1241.15 1016.94 1222.22 1018.26 1202C1019 1190.68 1031.12 1168.09 1021.92 1156.77C1016.37 1149.94 998.699 1153.04 991 1153C975.535 1152.91 958.184 1153.61 943 1150.74C927.785 1147.86 916.27 1141.14 900 1143.6C874.905 1147.41 846.78 1135.18 823.46 1145.05C810.467 1150.55 822.803 1186.56 821.353 1197.01C818.893 1214.74 827.115 1231.47 826.232 1249C824.639 1280.61 816.791 1317.59 810.402 1349C808.784 1356.95 812.284 1365.04 810.493 1373C809.332 1378.16 803.798 1383.3 804.228 1388.68C804.473 1391.73 807.851 1391.14 810 1391M454 1285L460 1281C459.98 1294.71 456.792 1309.44 459.94 1323C466.687 1352.06 503.377 1362.92 524.819 1340.72C541.304 1323.66 536.257 1307.97 540.801 1288C543.733 1275.11 550.641 1260.4 549 1247L542 1251C541.648 1232.63 532.51 1209.53 535.924 1192C537.773 1182.51 553.404 1179.79 553.266 1170.01C553.025 1152.75 526.354 1157.89 523.486 1172C521.617 1181.19 528.469 1185.88 530.417 1194C533.562 1207.1 532.513 1219.88 534.265 1233C535.014 1238.61 539.264 1245.79 536.8 1251.44C527.846 1271.95 512.004 1293.87 490.158 1294.96C487.112 1295.11 486.92 1301.46 483.306 1298.93C474.699 1292.93 483.657 1272.34 470.9 1265.93C456.809 1258.85 455.482 1276.05 454 1285M98 1177C90.9298 1168.41 108.529 1163.86 115 1164.21C137.404 1165.42 156.566 1164.38 170.772 1186.22C187.55 1212.01 151.964 1244.33 163 1270C150.92 1271.44 139.922 1270.59 129 1276.97C122.353 1280.85 117.531 1285.07 112.525 1290.86C72.7454 1336.95 148.172 1368.41 185.981 1350.27C211.268 1338.14 217.672 1296.94 196.855 1278.54C191.119 1273.46 167.635 1267.62 166.698 1260.53C165.901 1254.5 171.884 1245.94 173.301 1240C179.232 1215.11 186.929 1191.04 164.001 1172.58C147.176 1159.04 114.929 1152.29 95.2063 1165.4C89.4076 1169.26 91.4654 1176.31 98 1177M533 1178C532.626 1181.06 532.773 1183.92 533 1187C521.683 1182.07 527.94 1159.26 540.981 1162.11C555.716 1165.32 544.75 1182.67 533 1178M1156 1340C1177.81 1339.8 1206.93 1298.42 1221.08 1283.96C1224.91 1280.05 1233.95 1266.9 1239.32 1266.08C1246.04 1265.06 1262.04 1281.06 1265.73 1286C1273.48 1296.35 1285.86 1305.35 1292.25 1316.01C1300.04 1329.01 1297.42 1342.5 1312 1351C1314.72 1343.64 1305.83 1340.99 1303.79 1334C1297.19 1311.32 1281.13 1292.62 1264.12 1275.89C1257.48 1269.36 1248.89 1267.54 1244 1259C1247.21 1261.43 1250.11 1262.95 1254 1264C1242 1246.81 1291.33 1231.59 1279.1 1204.02C1269.11 1181.48 1232.79 1177.26 1219.48 1200.15C1214.1 1209.42 1215.4 1229.53 1221.54 1238C1225.28 1243.17 1237.72 1253.96 1236.15 1261C1234.54 1268.24 1223.15 1275.61 1218.32 1281C1199.41 1302.1 1173.62 1318.62 1156 1340M1576 1320C1583.86 1316.32 1583.38 1300.55 1587 1293C1593.15 1280.19 1594.51 1266.17 1599.68 1253C1606.41 1235.82 1621.63 1213.1 1618 1194C1639.18 1214.18 1642.62 1265.4 1642.99 1293C1643.12 1302.62 1636.82 1329.57 1647 1334C1645.58 1296.62 1648.54 1256.33 1636.09 1220C1633.95 1213.75 1626.18 1188.64 1617.83 1188.64C1613.07 1188.64 1608.54 1216.29 1607.4 1221C1599.25 1254.83 1580.65 1284.95 1576 1320M1245 1189.38C1290.61 1183.66 1278.95 1250.14 1243 1252.57C1235.67 1253.06 1229.37 1242.97 1225.68 1237.78C1212.77 1219.61 1222.18 1192.24 1245 1189.38M542 1255C538.707 1286.67 530.957 1378.62 474.099 1341.17C459.347 1331.45 463.436 1301.01 464.36 1286C464.574 1282.53 461.046 1271.62 463.88 1269.48C474.946 1261.12 476.97 1302.85 484.127 1304C511.101 1308.31 527.427 1272.11 540 1255L542 1255M181 1286C178.668 1277.44 169.089 1277.37 166 1270C202.216 1279.27 221.838 1317.85 185.922 1344.4C172.299 1354.46 127.752 1348.33 115.043 1338.44C96.5056 1324.02 105.489 1301.6 120.218 1288.72C138.365 1272.84 161.933 1270.88 181 1286M580 1393C581.081 1395.12 581.879 1395.92 584 1397L584 1392L580 1393M1258.58 1495.54C1249.91 1500.65 1256.74 1540.46 1255.78 1550C1253.34 1574.09 1257.6 1595.43 1256.9 1619C1255.97 1650.83 1249.68 1683.98 1242.8 1715C1240.23 1726.56 1243.13 1739.13 1241.54 1751C1241.33 1752.56 1241.54 1760.81 1245.21 1758.46C1252 1754.1 1248.98 1715.37 1250.02 1707C1253.65 1677.71 1259.49 1649.66 1260.92 1620C1262.04 1596.9 1258.16 1574.49 1259.86 1551C1260.91 1536.58 1258.83 1522.17 1260.32 1508C1260.47 1506.58 1262.61 1493.17 1258.58 1495.54M1536 1503C1537.54 1515.79 1553.03 1527.21 1562.14 1535.12C1582.72 1553 1601.04 1573.66 1620.74 1592.28C1626.1 1597.35 1645.75 1607.12 1646.93 1614.23C1648.63 1624.54 1620.68 1646.58 1614.01 1652.86C1592.05 1673.52 1572.63 1696.17 1551.92 1718C1541.79 1728.68 1526.89 1740.91 1524 1756C1530.55 1753.08 1532.65 1744.59 1540 1742.5C1551.9 1739.12 1566.82 1742.99 1579 1743C1610.71 1743.03 1642.32 1744 1674 1744C1689.46 1744 1700.27 1745.08 1715 1748.27C1718.41 1749.02 1727.03 1750.55 1729.89 1747.88C1731.5 1746.38 1721.33 1738.47 1719.94 1737.07C1708.54 1725.56 1710.78 1700.45 1699 1692C1698.85 1696.2 1700.02 1699.94 1701 1704C1690.47 1697.12 1690.84 1675.99 1687.63 1665C1684.02 1652.62 1674.6 1641.22 1668.55 1630C1664.17 1621.9 1654.99 1618.32 1657 1608C1644.09 1611.92 1626.11 1590.94 1618.4 1582C1601.42 1562.31 1579.12 1544.54 1560.02 1526.84C1551.65 1519.1 1546.48 1508.21 1536 1503M1913 1539C1913.9 1535.54 1911.91 1529.56 1915.5 1527.35C1926.94 1520.31 1963.54 1546.49 1972.94 1553.08C1981.18 1558.85 1981.77 1571.48 1985.87 1580C1995.46 1599.88 2007.08 1613.4 2008.86 1637C2010.98 1665.13 2003.97 1704.1 1983.08 1724.34C1973.29 1733.82 1934.71 1748.35 1934 1762C1937.56 1760.54 1940.14 1759.44 1944 1760C1951.13 1750.56 1961.66 1747.96 1970.92 1741.35C1993.22 1725.44 2019.58 1699.13 2051 1709.89C2067.29 1715.47 2087.81 1734.63 2096.47 1749C2097.75 1751.12 2102.95 1768.14 2105.8 1765.59C2108.65 1763.05 2105.57 1754.81 2104.44 1752C2099.27 1739.16 2094.6 1721.81 2088.01 1710C2075.5 1687.61 2052.47 1676.07 2038.91 1654.96C2032.21 1644.53 2031.14 1630.31 2024.23 1620.08C2015.09 1606.55 2001.61 1596.31 1993.05 1582C1987.45 1572.63 1987.53 1558.38 1979.38 1550.76C1968.41 1540.5 1902.61 1504.08 1913 1539M577 1565L578 1561C563.252 1564.13 546.397 1557.06 531 1558.14C510.189 1559.6 492.963 1571.22 476.011 1582.1C472.601 1584.29 465.959 1580.23 465.52 1580.97C463.619 1584.18 468.401 1588.23 466.983 1592C454.534 1625.12 429.001 1662.56 461.166 1695.9C466.916 1701.86 474.07 1702.86 481 1706.6C487.059 1709.86 503.112 1718.7 509.793 1718.07C518.651 1717.23 532.33 1708.57 541 1705.11C584.116 1687.89 610.23 1665.93 600.823 1616C597.369 1597.66 599.613 1570.79 577 1565M522 1630C517.349 1626.65 515.462 1605.52 510.699 1605.52C503.947 1605.52 497.691 1633.46 489.999 1627.11C486.422 1624.16 484.179 1618.06 482.138 1614C464.266 1578.41 507.749 1564 537 1564C541.263 1564 566.413 1563 567.256 1567.37C568.273 1572.63 558.47 1581.24 555.576 1585C544.882 1598.91 530.556 1614.99 522 1630M516 1640C516.309 1644.98 504.85 1677.31 500.256 1673.03C485.721 1659.51 488.361 1621.71 508.445 1614.11C513.482 1612.2 512.068 1643.18 525.911 1629.4C540.673 1614.7 551.145 1597.24 563.636 1580.86C566.975 1576.49 571.194 1564.96 578.331 1568.88C593.664 1577.29 589.381 1590.31 593.086 1604C603.173 1641.27 598.747 1681.41 556 1695.04C550.676 1696.73 542.857 1701.27 537.277 1700.92C532.119 1700.59 531.94 1688.71 531.438 1685C529.517 1670.77 529.486 1649.1 516 1640M148 1595.44C123.228 1598.15 85.4173 1611.86 76.3897 1638C64.0823 1673.64 80.4349 1705.96 108.672 1724.59C116.073 1729.47 127.198 1738.34 136.922 1737.43C173.078 1734.05 213.21 1713.93 226.831 1678C230.626 1667.99 228.614 1627.71 221.138 1619.67C206.762 1604.2 168.769 1593.17 148 1595.44M470.732 1597.64C473.259 1597.64 477.591 1612.48 478.872 1615C490.133 1637.18 481.624 1643.3 469.889 1663.68C467.851 1667.22 462.976 1680 458.217 1680C454.231 1680 452.493 1664.06 451.704 1661C447.324 1644.01 453.276 1627.35 460.562 1612C462.248 1608.45 465.739 1597.64 470.732 1597.64M145 1600.34C165.453 1597.79 205.265 1606.38 217.852 1624.2C222.49 1630.77 220.462 1639.55 220.997 1647C222.644 1669.91 219.554 1703.86 189.997 1711.08C184.054 1712.53 175.013 1705.98 170 1703.27C137.489 1685.71 142.758 1667.85 145.684 1637C146.239 1631.15 155.64 1603.95 156.189 1603.76C150.838 1605.59 146.897 1617.3 144.65 1622C134.402 1643.42 132.329 1674.83 149.144 1693C158.454 1703.06 174.069 1705.36 183.031 1714.58C186.053 1717.69 179.163 1722.67 176.863 1723.79C148.981 1737.43 105.149 1731 87.6685 1702.99C81.4733 1693.07 82.2328 1682.96 80.7047 1672C79.0848 1660.38 76.7931 1645.97 82.6436 1635C93.549 1614.56 123.376 1603.03 145 1600.34M816 1737C812.792 1724.62 812.109 1698.69 819 1688C824.315 1712.77 809.434 1753.44 832 1771C823.879 1725.25 807.338 1650.2 864 1626.93C881.11 1619.9 905.558 1621.41 924 1620.14C947.957 1618.48 972.764 1626.99 997 1627C1000.79 1627 1018.65 1628.49 1020.24 1624.55C1023.6 1616.23 1000.02 1621.99 997.997 1622.21C971.669 1625.06 944.5 1616 918 1616C943.064 1603.8 978.394 1621.97 1005 1619C995.93 1612.17 973.384 1612.75 962 1611.86C924.097 1608.91 852.489 1604.36 829.275 1644C816.231 1666.27 813.584 1688.14 810.265 1713C809.328 1720.02 806.971 1735.74 816 1737M2007 1609C2023.72 1621.94 2024.67 1641.27 2035.85 1658C2053.89 1684.97 2083.66 1696.89 2089 1732C2074.76 1724.57 2064.87 1706.1 2048 1704.35C2036.44 1703.15 2023.07 1705.08 2012 1708.31C2009.32 1709.09 2001.55 1713.64 1999.06 1711.56C1997.25 1710.04 2006.67 1690.44 2007.73 1687C2012.17 1672.64 2015.52 1652.95 2013.66 1638C2012.49 1628.57 2006.92 1618.1 2007 1609M889 1618C886.936 1618.72 885.195 1618.91 883 1619C885.3 1617.63 886.346 1617.57 889 1618M1722 1745C1714.1 1744.98 1708.44 1740.39 1701 1739.95C1647.8 1736.77 1593.45 1739 1540 1739C1544.14 1727.36 1557.22 1718.46 1565.55 1709.78C1585.54 1688.98 1605.63 1668.03 1625.56 1647.14C1629.85 1642.64 1647.93 1616.79 1653.58 1619.97C1676.76 1633.01 1680.96 1669.89 1688.44 1692C1695.02 1711.44 1709.07 1729.3 1722 1745M843 1636C841.55 1637.61 840.949 1638.06 839 1639C840.273 1637.25 840.974 1636.82 843 1636M838 1642C836.427 1644 834.999 1645.43 833 1647L832 1646C833.953 1643.89 835.293 1642.95 838 1642M486 1646C490.359 1659.28 494.382 1674.2 502 1686C503.377 1681.22 514.119 1652.64 518.822 1652.64C521.962 1652.64 523.586 1660.76 524.213 1663C525.908 1669.05 531.827 1699.74 528.692 1704.08C517.82 1719.16 467.163 1703.65 462.11 1689C458.463 1678.42 480.201 1656.33 484 1646L486 1646M1532 1760C1533.92 1759.1 1534 1758.92 1535 1757C1532.64 1757.48 1532.48 1757.64 1532 1760M2082 1771C2081.74 1778.85 2089.62 1775.17 2094 1773C2090.13 1770.98 2086.07 1772.8 2082 1771M648.333 1803.67C648.278 1803.72 648.222 1804.78 648.667 1804.33C648.722 1804.28 648.778 1803.22 648.333 1803.67M824 1864C818.741 1885.9 819.521 1908.49 819.981 1931C820.185 1940.97 819.601 1954.67 826.556 1962.73C835.92 1973.6 851.702 1976.81 863.997 1982.79C867.403 1984.45 875.624 1986.09 876.358 1990.58C877.853 1999.71 863.99 2017.51 859.314 2025C849.193 2041.22 846.45 2060.64 838.815 2078C835.182 2086.26 827.243 2094.48 828 2104C858.926 2074.54 854.004 2016.26 886 1987C886.014 2016.77 889.146 2049.48 891.137 2079C891.395 2082.83 889.115 2108 892.211 2108C898.272 2108 897.026 2083.03 896.989 2079C896.706 2048.2 891.049 2017.23 891 1987C903.981 1989.79 918.363 1984.91 930.992 1987.96C942.536 1990.76 964.481 2021.22 969.319 2032C974.636 2043.85 973.06 2067.87 972.99 2081C972.955 2087.6 970.675 2097.74 979 2100C976.393 2079.08 981.054 2054.32 975.24 2034C971.909 2022.36 954.985 2001.58 946.508 1992.88C934.674 1980.74 921.208 1984 906 1984C901.701 1984 891.718 1985.61 890.404 1979.79C888.452 1971.17 896.328 1959.96 901.459 1954C915.268 1937.96 926.939 1922.25 937.59 1904C941.442 1897.4 949.529 1892.33 948 1884C923.855 1902.78 914.264 1938.1 891 1959C897.154 1930.24 897.176 1897.62 886 1870C878.471 1876.69 887.691 1897.57 889.407 1906C893.023 1923.76 892 1964.04 882.506 1979.87C878.008 1987.37 856.371 1975.1 850 1972.42C826.831 1962.64 817.854 1931.15 822.863 1907C825.128 1896.08 833.395 1873.08 824 1864M1908 2122C1921.13 2130.52 1926.86 2149.87 1939.3 2161.28C1950.36 2171.42 1982.1 2177.5 1997 2177.96C2044.22 2179.4 2086.16 2149.69 2093.62 2101C2095.7 2087.37 2098.26 2070.81 2097.98 2057C2097.86 2050.86 2093.69 2042.27 2094.73 2036.68C2095.83 2030.77 2101.87 2024.94 2104 2019C2111.07 1999.3 2118.64 1969.09 2114.56 1948C2109.5 1921.9 2093.64 1911.68 2081 1891C2068.86 1897.99 2069.48 1915.8 2063.12 1929C2049.15 1957.96 2033.03 1996.6 2007.99 2017.59C1995.86 2027.77 1980.41 2031.16 1964.86 2029.98C1951.64 2028.98 1931.08 2025.85 1921.82 2038.05C1909.56 2054.22 1908.79 2077.76 1909.01 2097C1909.09 2104.41 1915.4 2117.86 1908 2122M2080 1900C2108.7 1911.21 2112.18 1953.17 2108.12 1979C2096.51 2052.73 2032.12 2103.2 1959 2109.13C1949.81 2109.87 1925.32 2120.88 1918.24 2117.56C1911.97 2114.62 1913.13 2103.59 1912.82 2098C1911.84 2080.24 1912.42 2054.98 1925.27 2041.07C1940.87 2024.17 1972.17 2040.21 1992 2031.96C2028.52 2016.76 2048.61 1968.72 2064.34 1935C2069.4 1924.17 2079.43 1912.08 2080 1900M1170 1917C1179.49 1911.9 1185.39 1911.21 1196 1912.67C1258.12 1921.23 1234.43 1987 1240 2029L1235 2025C1229.96 2040.62 1212.48 2048.43 1200.04 2057.69C1188.59 2066.21 1178.44 2078.37 1168.99 2089.04C1165.06 2093.48 1151.41 2101.7 1151.22 2107.76C1151.04 2113.82 1168.52 2110.15 1172 2110.3C1188.63 2111.02 1202.86 2116.74 1220 2112.86C1225.31 2111.65 1238.49 2108.06 1243.18 2112.04C1245.11 2113.67 1245.02 2116.73 1245.53 2118.99C1249.52 2136.36 1251.65 2112.11 1252.58 2111.63C1255.15 2110.3 1267 2117.4 1267 2112.16C1267 2105.51 1251.4 2107.73 1248.94 2102.72C1241.92 2088.43 1241.32 2058.45 1238 2042C1240.75 2043.65 1242.72 2045.76 1245 2048C1244.24 2034.56 1241.4 2018.71 1242.67 2005C1244.89 1980.98 1251.88 1953.79 1236.6 1932.08C1226.58 1917.84 1181.21 1889.36 1170 1917M1544 2054C1533.6 2058.39 1537.8 2077.47 1540.08 2086C1545.78 2107.4 1566.12 2135.56 1593 2129.37C1605.78 2126.43 1615.7 2114.08 1624.14 2105C1648.06 2079.25 1665.12 2046.07 1679.3 2014.22C1682.58 2006.84 1698.86 1974.98 1691.15 1968.26C1684.35 1962.32 1663.83 1966.24 1655 1964.47C1626.5 1958.77 1598.04 1947.31 1570 1939.48C1565.8 1938.3 1536.02 1929.76 1534.54 1931.99C1531.17 1937.06 1567.03 1943.89 1571 1944.86C1598.42 1951.62 1624.61 1962.44 1652 1969.37C1661.21 1971.7 1676.44 1967.34 1684.38 1971.78C1687.1 1973.3 1685.15 1983.25 1684.8 1986C1680.56 2019.51 1655.92 2048.55 1637.79 2075C1625.7 2092.65 1616.42 2111.92 1595.98 2122.56C1587.72 2126.86 1579.7 2122.09 1572 2118.74C1547.53 2108.1 1538.43 2080.3 1544 2054M465 1963C461.517 1978.87 465.601 2021.44 477.508 2033.25C498.099 2053.68 548.778 2041.04 566.157 2021.5C574.078 2012.59 590.512 1991.3 594.197 1980C595.087 1977.27 597.271 1965.33 594.267 1963.62C591.142 1961.85 589.659 1968.24 589.371 1970.01C587.07 1984.12 578.749 1991.38 570.941 2003C553.313 2029.23 517.003 2048.22 485.011 2032.69C464.691 2022.83 477.773 1978.26 465 1963M1682 1974L1683 1975L1682 1974M35 2017C52.361 2012.43 64.4606 1988.1 85 1989.58C107.28 1991.18 121.523 2020.09 141 2017.63C163.41 2014.8 177.368 1989.6 199 1987.19C213.478 1985.57 227.332 2002.97 238.992 2010.48C240.716 2011.59 249.991 2021.78 251.332 2018.35C253.381 2013.11 243.297 2008.13 240 2006.13C226.617 1998 218.866 1983.61 202 1983.1C178.445 1982.39 163.91 2010.94 141 2012.83C127.503 2013.94 120.361 1997.43 109.922 1991.72C83.9936 1977.56 49.0631 1992.86 35 2017M1235 2038L1236 2039C1229.02 2057.28 1251.91 2086.34 1242.1 2104.18C1240.07 2107.88 1226.91 2106.14 1223 2106.9C1200.87 2111.16 1179.99 2105.48 1158 2107C1173.58 2078.6 1209.67 2056.68 1235 2038M2091 2043C2091.33 2078.7 2089.3 2134.34 2056.84 2158.86C2025.62 2182.44 1959.77 2177.25 1935.66 2149.04C1930.44 2142.93 1923.15 2139.2 1921 2131L1927 2131L1923 2122C1951.61 2112.2 1989.39 2117.19 2016 2103.22C2043.2 2088.94 2062.89 2053.88 2091 2043M1922 2127C1919.88 2126.1 1919.9 2126.12 1919 2124C1921.36 2124.48 1921.52 2124.64 1922 2127M1942 2137L1945 2138L1942 2137z"/>
</svg>
