<?xml version="1.0" standalone="yes"?>
<svg xmlns="http://www.w3.org/2000/svg" width="2200" height="2200">
<path style="fill:#111111; stroke:none;" d="M1355 53C1340.35 21.748 1317.25 27.3948 1295.23 50.7827C1268.92 78.7329 1268.81 113.261 1259 149C1253.06 139.115 1252.38 128.276 1243.6 119.368C1227.7 103.237 1193.35 102.845 1181 124C1185.8 124.469 1188.41 121.945 1192 119C1182.43 151.302 1178.92 181.032 1182.22 215C1183.58 229.09 1188.31 248.076 1206 245.424C1237.23 240.739 1238.48 211.784 1257 194C1252.19 212.868 1260.89 261.859 1291 252.005C1313.83 244.535 1317.22 225.6 1331 211C1331.89 229.087 1347.13 238.087 1362 244C1360.61 240.559 1358.2 237.972 1356 235C1366.79 233.078 1375.44 222.352 1383 215C1372.08 213.377 1359.49 239.466 1347.78 229.178C1335.7 218.562 1347.77 191.264 1348.01 178C1348.22 165.533 1356.32 155.772 1357.6 144C1358.78 133.239 1354.36 120.998 1354.47 110C1354.76 79.4858 1361.49 46.7812 1368 17C1360.45 18.125 1357.93 45.5073 1355 53M1345 112C1338.47 109.41 1342.4 96.1992 1341 90C1339.27 95.2183 1340.14 110.462 1336.74 113.722C1333.5 116.827 1323.11 113.188 1319 113.118C1308.19 112.933 1296.36 115.904 1287.71 122.558C1275.9 131.637 1278.03 147.539 1264 156C1266.64 130.327 1279.21 105.386 1281 80C1278.78 82.1538 1277.43 84.2498 1276 87C1274.51 80.196 1281.46 71.9753 1285.52 67C1295.66 54.5986 1322.31 22.7642 1341.87 36.468C1364.65 52.425 1347.17 90.8362 1345 112M1937 64C1939.99 75.5583 1932.46 95.7795 1930.47 108C1925.74 137.069 1923.96 165.415 1921.34 194.68C1920.14 208.056 1926.27 237.764 1945.96 221.635C1955.15 214.105 1958.18 201.448 1966 193C1964.87 205.245 1962.42 216.046 1960 228C1971.28 219.97 1968.47 200.877 1969.08 189C1970.63 158.459 1975.88 128.208 1976.9 97.438C1977.17 89.292 1989.24 64.2043 1979 60C1978.94 63.4041 1978.59 66.6482 1978 70C1970.31 63.8613 1962.68 57.2063 1952 59.3577C1946.1 60.5469 1943.4 65.0107 1937 64M1564 61L1564 95C1558.72 92.5381 1555.04 90.6665 1553 85C1542.11 91.718 1537.4 81.2957 1528.49 84.0083C1525.1 85.0425 1525.46 90.8894 1521.9 92.9082C1512.61 98.1858 1476.31 115.205 1489 130C1490.88 117.579 1502.42 108.228 1513 102.349C1515.82 100.781 1523.69 95.176 1526.19 99.4917C1532.44 110.29 1528 133.823 1528 146C1528 189.784 1524.91 232.781 1517.37 276C1515.15 288.687 1512.21 302.216 1511.67 315C1511.54 317.957 1509.79 326.679 1513.6 328.239C1517.51 329.841 1520.83 316.199 1524.26 314.738C1532.54 311.216 1544.2 316.767 1552.98 312.439C1568.21 304.935 1576.37 287.978 1591 281C1590.69 286.358 1586.98 308.793 1587 293C1583.57 298.484 1587.91 303.65 1585.67 308.99C1582.53 316.476 1574.21 316.11 1568 319C1584.89 324.719 1587.8 307.565 1597 299C1597.36 305.906 1601.33 310.645 1602.31 317.003C1603.49 324.682 1593.8 346.354 1603 350C1601.77 328.595 1604.77 325.477 1621 316C1617.45 328.262 1611.65 338.691 1606 350C1618.41 346.976 1619.07 325.913 1625.48 317.327C1632.22 308.308 1637.06 320.584 1637 326C1645.44 318.732 1653.2 319.607 1664 316C1663.53 318.598 1663.5 320.411 1664 323C1671.55 313.454 1684.23 300.867 1689 290C1683.87 293.161 1680.02 297.723 1675 301C1692.38 233.483 1713.8 172.661 1691 103C1697.47 100.268 1696.16 90.2581 1703.1 88.6377C1717.33 85.3186 1729.38 99.9907 1743 98C1734.54 86.231 1713.24 84 1700 84C1700.88 81.1536 1704.94 69.5193 1700.43 68.1057C1695.09 66.4292 1691.52 78.3101 1687.74 80.4197C1675.48 87.2637 1661.6 84.4036 1648.87 94.4097C1644.15 98.1187 1645.87 104.411 1639 107C1639.32 103.121 1639.05 99.7502 1638 96C1634.69 100.364 1636.99 105.751 1635.25 110.715C1633.41 115.944 1623.04 126.65 1618.2 117.682C1615.26 112.237 1618.81 101.091 1618.57 95.04C1618.46 92.4622 1616.81 89.9822 1614 89.8318C1605.1 89.3562 1604.01 109.979 1598.69 114.364C1599.82 113.432 1571.11 99.5239 1569.18 97.2043C1562.99 89.7576 1576.69 65.4629 1564 61M1932 120C1933.42 110.611 1936.14 101.436 1937.2 92C1938.99 76.0156 1957.68 46.053 1973.58 71.1848C1988.32 94.491 1951.05 119.972 1932 120M1700 72C1699.12 77.6597 1697.86 83.8887 1691 83C1693.57 78.7092 1695.62 74.6055 1700 72M1676 85C1666.73 97.8594 1649.84 101.716 1644 118L1642 118C1638.78 106.378 1664.99 85.1702 1676 85M1529 86C1531.15 87.1755 1532.53 88.0635 1534 90C1530.38 90.7158 1527.88 90.1335 1529 86M1691.43 89.0278C1696.69 87.0237 1695.3 96.6003 1691.66 97.8943C1688.3 99.0898 1688.42 90.1746 1691.43 89.0278M983 249C974.342 245.764 964.01 249.441 955 247.425C942.178 244.557 932.442 236.488 921 230.767C917.406 228.97 902.873 225.96 902.292 221.618C901.233 213.698 914.707 203.134 918.54 196.99C932.051 175.334 944.911 152.052 953.581 128C955.928 121.489 965.483 98.3696 957 95C955.762 126.408 936.378 164.444 918.833 190C916.392 193.556 901.597 216.705 897.698 214.677C892.152 211.792 888.336 194.672 885.925 189C874.514 162.161 870.164 114.42 913 121C907.38 108.624 893.168 115.502 886.019 121.728C873.109 132.972 873 149.064 873 165C862.94 158.777 861.065 143.425 854.765 134.043C847.704 123.528 834.407 113.619 824.997 104.933C821.213 101.44 811.948 89.6533 806.392 90.3047C800.945 90.9431 809.931 98.2415 811.009 99.0002C822.598 107.165 831.899 117.468 841.497 127.646C853.484 140.36 866.902 158.037 872.86 175C877.651 188.643 874.32 203.793 884.681 216.174C895.504 229.108 912.544 229.085 926 237.308C943.285 247.871 962.431 257.661 983 249M1679 89C1677.54 94.3508 1675.8 99.7219 1674.08 105C1670.01 117.499 1649.39 133.129 1653.56 110.003C1655.02 101.87 1671.4 90.7849 1679 89M1687 89C1685.36 96.1238 1683.45 103.533 1680 110C1678.05 103.309 1680.16 91.9739 1687 89M1535.5 94.4072C1541.73 96.186 1539 129.097 1539 135C1539 177.619 1537.99 221.928 1530.69 263.981C1528.6 276.033 1525.12 287.92 1522.92 300C1522.53 302.122 1521.88 310.361 1518.26 309.677C1514.34 308.937 1517.44 300.221 1517.82 298C1519.88 286.077 1521.11 273.964 1523.08 262C1530.02 219.706 1532 175.827 1532 133C1532 126.543 1525.49 91.5474 1535.5 94.4072M1547 105C1538.44 94.646 1552.96 89.6926 1547 105M1614 93C1614.53 97.0039 1615.1 100.946 1614.92 105C1614.75 108.67 1610.99 132.509 1602.31 121.16C1598.37 116.004 1609.39 96.0823 1614 93M1550 113C1550.27 87.9219 1563.3 102.48 1550 113M1725 98L1724 103C1725.61 101.28 1726.24 100.229 1727 98L1725 98M1551 172C1551 152.766 1550.03 134.987 1554.34 116C1554.88 113.626 1557.75 97.8267 1562.26 100.544C1565.27 102.356 1563.09 115.728 1562.92 119C1562.22 132.804 1566.88 165.26 1551 172M1974 99C1972.99 109.801 1976.5 141.474 1968 148C1962.17 134.46 1950.67 132.575 1943 122C1959.68 121.605 1961.91 106.259 1974 99M462 100L461 101C466.577 110.103 476.966 105.119 486 106.642C505.38 109.91 533.652 113.698 543.003 134C546.136 140.801 532.118 158.18 527.848 164C512.259 185.25 483.068 237.746 517 253.398C529.745 259.278 540.534 247.636 546.109 237C557.268 215.714 560.979 187.795 557.242 164C556.102 156.742 548.716 142.585 551.784 136C561.351 115.469 594.977 106.491 610.927 125.561C618.689 134.842 616.627 148.964 619 160C635.973 109.899 573.027 98.7559 548 134C531.577 112.216 510.259 105.785 484 101.65C476.181 100.418 469.626 103.213 462 100M72 270C88.0805 267.932 102.363 277.073 117 266.417C131.166 256.104 144.288 242.019 157.001 229.922C160.604 226.494 167.007 216.834 172.098 216.081C177.082 215.345 182.274 231.488 184.176 235C194.084 253.293 234.544 273.579 243 242C237.383 245.199 232.62 252.059 226 253.06C206.152 256.062 174.441 233.777 178.727 211.078C180.126 203.669 191.524 193.557 195.857 187C205.737 172.05 214.514 154.043 219.992 137C223.1 127.332 225.607 110.545 214.973 104.644C198.414 95.4558 184.143 110.782 178.043 125C170.004 143.734 168.363 163.861 169.04 184C169.32 192.324 174.768 205.549 168.928 212.602C152.37 232.599 127.646 254.459 105 266.947C96.102 271.854 76.8754 258.518 72 270M1566 148C1566.01 140.063 1563.16 109.194 1569.14 104.09C1575.71 98.4824 1595.73 115.116 1595.9 121.956C1596.03 127.072 1571.04 144.841 1566 148M1691 105C1690.12 124.771 1698.5 143.341 1698.99 163C1699.92 201.216 1690.81 234.482 1680.71 271C1677.16 283.81 1675.14 304.348 1663 311.596C1658.72 314.152 1649.02 318.851 1644.79 313.411C1640.77 308.252 1652.52 278.709 1654.43 272C1665.87 231.856 1674.03 190.68 1683.35 150C1685.14 142.186 1685.44 106.85 1691 105M202 106.332C217.63 104.431 218.687 116.655 217.051 129C214.411 148.922 203.6 170.265 191.643 186.217C188.923 189.846 182.259 203.997 177.263 203.997C173.986 203.997 173.202 179.49 173.096 176C172.506 156.506 176.675 109.412 202 106.332M1545 109C1548.3 118.744 1546.49 135.151 1544 145C1539.56 137.909 1542.35 116.828 1545 109M1213 111.458C1237.79 107.896 1247.1 129.449 1254.58 147.864C1267.36 179.36 1238.67 236.419 1204 241.369C1188.17 243.63 1187.34 221.584 1185.94 210C1182.84 184.238 1177.57 116.548 1213 111.458M1685 111C1684.91 121.163 1684.35 150.021 1677 157C1672.06 141.197 1678.96 126.484 1682 111L1685 111M1676 113C1674.88 119.683 1673.63 126.231 1673 133C1665.15 127.477 1668.91 117.355 1676 113M1651 114C1652.73 123.277 1645.96 123.148 1649 114L1651 114M1322 115C1314.03 125.547 1292.68 134.287 1281 141C1279.55 121.396 1307.21 115.583 1322 115M1637 118L1636 119L1637 118M1333.34 120.573C1343.15 125.86 1339.63 147.547 1338.45 156C1334.26 186.273 1321.79 235.354 1289 238.029C1284.85 238.368 1279.53 243.556 1275.57 241.6C1269.41 238.566 1268.24 224.873 1266.29 219C1254.85 184.668 1272.8 152.233 1299.86 133.326C1307.43 128.042 1323.09 115.046 1333.34 120.573M1343 120C1342.79 122.739 1342.7 123.422 1340 124L1341 120L1343 120M1352 123C1352 147.858 1346.32 171.148 1341 196C1332.91 183.046 1345.37 154.805 1346.04 140C1346.28 134.639 1346.21 125.03 1352 123M1627 125C1624.36 129.467 1620.68 138.276 1615.74 140.469C1610.6 142.757 1604.98 131.753 1606.7 127.785C1611.1 117.614 1613 138.203 1613 140C1617.11 132.668 1615.56 122.277 1627 125M1634 179C1634.7 161.432 1644.32 143.6 1647 126C1662.56 133.146 1643.63 172.287 1634 179M1655 137C1655.2 123.982 1665.24 128.269 1655 137M1935.15 126.631C1947.65 122.874 1963.33 141.132 1967.21 150.981C1975.02 170.839 1959.59 214.556 1937 219.929C1929.64 221.68 1924.92 217.604 1925.17 210C1925.82 189.288 1926.44 168.675 1928.13 148C1928.59 142.426 1928.57 128.608 1935.15 126.631M1636 127C1635.5 129.598 1635.14 130.474 1633 132L1634 127L1636 127M1645 127C1643.4 136.419 1640.24 157.677 1633 164C1634.44 153.172 1632.85 131.893 1645 127M1596 209C1593.17 196.658 1583.93 190.758 1580.41 180.7C1578.51 175.269 1585.64 163.388 1587.28 158C1588.71 153.315 1590.12 148.649 1591.67 144C1596.93 128.142 1605.38 125.411 1607.81 145C1609.57 159.108 1602.18 172.892 1602 187C1601.93 193.15 1602.93 206.573 1596 209M1631 128C1629.36 144.04 1619.89 165.021 1609 177C1608.57 161.295 1616.95 136.47 1631 128M1660 182C1656.67 174.784 1650.6 130.14 1665.89 130.625C1669.94 130.753 1670.83 140.201 1670.88 143C1671.1 155.265 1665.15 171.028 1660 182M1591 132C1593.21 147.72 1581.25 177.967 1567 181C1563.12 159.107 1569.97 141.994 1591 132M548 142C552.819 170.423 558.627 200.105 546.507 228C542.529 237.157 533.907 252.564 521.999 250.572C504.097 247.577 502.073 231.574 506.691 217C515.452 189.348 530.628 166.218 546 142L548 142M1633 147C1632.5 152.34 1631.94 157.718 1631 163C1627.92 158.036 1629.94 152.4 1631 147L1633 147M1654 153C1654 163.31 1654.58 174.197 1658 184C1634.09 184.615 1644.51 166.694 1652 153L1654 153M1273 154L1270 160C1269.44 156.891 1270.44 155.724 1273 154M1549 157C1547.67 167.019 1551.37 180.129 1542 187C1542.16 178.903 1541.85 161.777 1549 157M1624 162C1622.96 170.901 1617.87 191.358 1609 195C1611.46 183.504 1616.24 172.237 1622 162L1624 162M1266 164C1266.68 173.207 1260.38 182.445 1260.04 192C1259.4 209.838 1265.53 223.109 1269 240C1250.84 232.696 1253.9 175.542 1266 164M1669 164C1670.13 167.458 1669.11 195.357 1665.82 195.357C1657.4 195.357 1667.2 167.672 1669 164M1630 165C1630.21 168.848 1631.37 172.718 1627 174C1627.26 170.419 1627.83 167.885 1630 165M1563 168L1563 180L1561 180C1561.08 175.82 1561.37 171.883 1563 168M1559 170C1558.47 175.585 1558.11 180.537 1552 182C1552.76 176.714 1554.88 173.365 1559 170M1625 175C1624.8 178.569 1624.54 180.757 1621 182C1621.44 179.505 1622.07 177.356 1623 175L1625 175M1626.67 175.667C1626.72 175.722 1626.78 176.778 1626.33 176.333C1626.28 176.278 1626.22 175.222 1626.67 175.667M878 181C884.692 193.248 889.496 206.58 896 219C884.659 216.012 874.3 191.987 878 181M1563 182C1562.99 200.03 1566.74 229.815 1553 244C1553.51 229.495 1552.31 192.263 1563 182M1641.1 183.272C1646.58 182.811 1656.26 188.18 1656.65 194.049C1657.18 202.029 1653.09 210.583 1650.73 218C1645.52 234.381 1646.32 271.314 1623 272.643C1610.1 273.377 1612.8 262.614 1614.86 254C1619.18 236.018 1622.9 218.837 1630.71 202C1633.04 196.981 1634.07 183.862 1641.1 183.272M1566 210C1559.34 190.033 1580.03 171.949 1570.28 200C1569.08 203.447 1567.66 206.753 1566 210M1633 183C1633.41 185.431 1632.96 186.704 1632 189C1631.82 186.713 1632.13 185.122 1633 183M1558 184C1557.38 190.673 1556.46 197.458 1555 204C1552.76 197.607 1550.73 187.34 1558 184M1590 211C1598.59 206.945 1592.47 225.512 1591.49 228.922C1587.38 243.151 1582.01 258.942 1566 264C1566 240.312 1562.17 208.925 1577.56 188.429C1585.22 178.227 1590.45 206.836 1590 211M1627 185L1626 186L1627 185M1625 186C1620.45 204.538 1619.06 235.324 1604 249C1604.92 233.655 1609.78 192.943 1625 186M1551 189C1548.65 209.042 1548.72 231.716 1548 252C1536.27 244.007 1537.25 194.232 1551 189M1330 195C1331.01 197.98 1330.99 200.863 1331 204L1329 204C1329.01 200.863 1328.99 197.98 1330 195M1338 195L1339 223C1331.33 217.107 1334.92 203.369 1335 195L1338 195M1662 196C1667.23 212.715 1660.79 250.972 1643 259C1644.37 248.626 1648.44 222.122 1656 215C1656 221.087 1655.8 226.962 1655 233C1661.12 222.081 1657.88 207.998 1660 196L1662 196M1612 200C1611.43 205.416 1609.58 210.802 1605 214C1607.07 209.396 1608.47 204.793 1610 200L1612 200M1324 215C1322.94 219.156 1321.98 222.053 1318 224C1319.38 220.187 1320.69 217.423 1324 215M1563 232C1563 237.469 1566.15 265.335 1560.81 267.267C1546.04 272.61 1559.32 236.141 1563 232M1599 236L1594 258C1590.38 251.656 1592.03 239.291 1599 236M1615 236C1614.07 245.751 1611.14 255.447 1609 265C1600.97 258.505 1609.48 242.176 1615 236M1289.17 240.604C1294.43 238.761 1302.31 242.474 1293.93 245.439C1289.12 247.143 1282.58 242.911 1289.17 240.604M1539 241C1546.56 262.58 1541.3 283.562 1532 304C1526.87 295.643 1534.27 250.167 1539 241M1283 245L1282 246L1283 245M1657 248C1657.55 252.084 1656.28 255.631 1654 259C1654.13 255.19 1655.36 251.431 1657 248M1574 291C1573.97 279.514 1585.95 269.987 1586 257C1603.61 262.302 1579.65 285.772 1574 291M1599 257C1598.59 259.092 1598.78 259.02 1597 260L1599 257M1580 258.333C1580.89 258.333 1580.89 259.667 1580 259.667C1579.11 259.667 1579.11 258.333 1580 258.333M1647 261C1645.28 265.28 1643.05 267.792 1639 270C1640.97 266.046 1643.18 263.257 1647 261M1652 261C1653.21 270.852 1644.76 320.127 1629.83 311.122C1625.82 308.705 1630.64 300.058 1631.6 297C1636.46 281.481 1641.36 273.56 1652 261M1585 262C1581.48 275.192 1572.2 295.322 1561 302.997C1558.23 304.892 1548.74 313.244 1545.36 308.974C1540.49 302.833 1549.27 271.64 1560.61 274.098C1569.26 275.972 1559.12 290.358 1568 294C1562.58 279.758 1572.7 268.74 1585 262M1577 265C1574.13 268.944 1570.87 270.552 1566 270C1569.23 266.621 1572.27 264.831 1577 265M1603.29 267.106C1608.41 265.383 1606.29 281.879 1603.42 283.239C1600.13 284.801 1598.88 268.592 1603.29 267.106M1555 270C1552.75 271.48 1552.25 271.48 1550 270C1552 269.699 1553 269.699 1555 270M1638 271C1630.74 280.87 1625.33 280.678 1614 280C1620.62 283.243 1626.05 283.139 1633 281C1632.4 285.527 1628.34 306.781 1623.42 307.717C1610.91 310.094 1603.73 281.913 1612.04 275.017C1613.58 273.744 1634.22 271.527 1638 271M1531 281C1530.56 283.767 1530.12 285.168 1528 287C1528.15 284.866 1528.45 283.066 1529 281L1531 281M1597 298C1597.08 281.603 1606.49 292.197 1597 298M1529 290C1528.99 311.817 1522.15 312.764 1527 290L1529 290M1532 310C1533.02 307.629 1534.12 305.314 1535.24 302.989C1547.14 278.272 1543.96 312.698 1532 310M1605 296C1605.84 300.463 1604.57 306.095 1601 309C1601.06 303.849 1601.77 300.107 1605 296M1623 315C1619.1 314.202 1610.71 317.198 1608.04 315.518C1605.39 313.842 1605.59 302.312 1608.63 301.105C1612.05 299.741 1621.94 312.132 1623 315M1631 306C1631.77 307.176 1631.82 307.227 1633 308C1632.45 306.365 1632.64 306.545 1631 306M1514 323C1514.03 308.744 1521.78 316.893 1514 323M210 464C201.029 488.901 180.928 513.258 167.617 536.217C155.84 556.531 148.671 586.281 143.043 609C139.604 622.881 138.407 636.878 147.483 648.32C149.272 650.577 153.371 658.513 157.117 657.287C160.563 656.158 152.697 648.971 151.9 647.952C141.916 635.188 144.919 619.873 148.505 605C161.689 550.316 192.025 508.161 219 460C205.457 456.579 196.654 468.342 184 467.797C136.7 465.757 84.1306 438.739 86 386C63.9182 395.836 100.006 438.49 108.295 446.723C136.246 474.484 175.838 470.906 210 464M476 447C494.305 433.355 511.313 425.747 533 418.5C577.701 403.564 652.434 456.47 643.678 507C642.244 515.275 635.31 522.542 631.694 530C613.815 566.871 581.157 598.868 541 610.592C527.617 614.499 516.224 611.887 503 613.526C475.672 616.914 427.383 606.308 413.169 576.997C408.555 567.48 403.878 534.81 407.535 525.003C410.835 516.153 427.313 511.301 433.997 504.959C443.957 495.511 451.865 481.934 463.078 474.067C477.4 464.019 526.495 460.694 542 470C514.93 473.633 504.316 495.856 497.261 520C495.323 526.632 490.852 542.234 495.829 548.256C507.015 561.789 535.399 556.072 544.038 542.981C547.519 537.705 546.583 526.922 551.499 523.212C559.899 516.872 573.118 521.006 581.612 514.841C593.713 506.06 577.945 476.651 568.832 471.25C563.28 467.959 555.124 469.478 549 467.742C524.195 460.713 486.005 456.569 463 469.85C450.584 477.017 443.041 491.052 432.96 500.921C424.813 508.896 410.951 512.243 404.822 522.019C393.368 540.289 408.718 581.478 421.656 594.656C428.325 601.45 438.817 603.089 447 607.255C505.981 637.279 569.201 612.314 612.978 566C633.072 544.742 653.492 510.824 645.952 481C633.695 432.517 566.362 403.206 522 417.448C508.711 421.714 477.453 430.287 476 447M937 635C928.999 632.773 919.068 640.247 912 643.433C889.877 653.406 868.261 668.796 844.258 652.246C834.035 645.198 812.699 626.097 807.828 614.931C791.998 578.644 808.348 517.165 830.797 487.007C842.928 470.712 860.933 460.025 878 449.913C908.561 431.807 952.409 408.934 983.672 439.269C993.638 448.938 995.163 458.358 998.53 471C1011 517.834 990.124 550.389 955.217 581.658C939.293 595.921 907.685 621.643 885.147 605.256C876.836 599.212 877.897 588.184 878.008 579C878.313 553.723 899.956 528.712 912.382 508C917.631 499.251 926.5 485.023 919.194 475.166C906.815 458.462 866.794 470.315 864 490C869.042 486.386 871.37 480.656 877.019 477.5C889.833 470.344 923.435 467.883 916.285 491C906.98 521.084 877.341 543.238 874.22 576C872.944 589.403 872.848 606.35 888.04 611.694C912.743 620.383 938.429 601.834 956 586.438C993.312 553.745 1015.45 519.046 1002.2 469C998.7 455.783 996.468 445.249 985.742 435.346C958.063 409.788 932.868 422.477 904 433.389C834.751 459.567 797.55 515.45 800.04 589C801.206 623.418 841.095 674.518 881 662.742C899.978 657.142 919.834 644.776 937 635M1232 626C1221.83 620.084 1208.75 624.095 1199.06 618.414C1168.9 600.726 1161.09 559.842 1167.34 527C1176.77 477.486 1214.55 425.742 1267 425.728C1278.57 425.724 1296.03 424.421 1305.85 431.909C1355.12 469.513 1327.28 544.433 1282 571.838C1259.66 585.359 1222.61 593.781 1203.25 571.146C1196.4 563.137 1203.47 542.55 1206.16 534C1216.58 500.967 1243.25 466.373 1280 467C1270.86 453.158 1247.38 469.797 1238.8 477.763C1215.58 499.331 1191.55 536.089 1198.28 569.989C1199.73 577.287 1208.61 577.815 1214 581.215C1234.85 594.363 1260.6 589.179 1282 576.462C1317.73 555.234 1343.42 506.689 1334.4 465C1325.61 424.391 1266.1 406.954 1232 425.739C1181.7 453.448 1164.07 511.019 1163.02 563C1162.31 598.004 1194.55 635.479 1232 626M166 427C169.111 431.927 171.803 426.75 166 427M567 447C564.396 449.16 562.62 451.033 561 454C564.38 452.62 567.291 450.973 567 447M2025 498C2007.75 503.106 2001.04 529.319 1995 544C1993.56 532.021 2001.72 520.125 1994.05 509.049C1969.57 473.685 1939.93 523.405 1938.51 548C1938.1 555.054 1941.65 570.05 1945.96 575.684C1949.49 580.282 1962.15 583.534 1957.33 591.021C1946.72 607.473 1894.93 662.995 1881.72 620C1877.44 606.051 1883.53 586.59 1886.94 573C1897.71 530.136 1929.51 463.84 1979 453.979C2003.22 449.152 2029.32 477.411 2045.08 491.637C2050.55 496.58 2059.56 499.978 2062.6 507.048C2065.49 513.774 2063.96 526.697 2063.34 534C2058.62 589.699 2021.03 646.181 1967 664.753C1922.41 680.08 1856.23 677.963 1860 615C1845.45 624.949 1866.69 659.388 1876.26 666.816C1899.83 685.099 1931.54 677.277 1958 671.204C1983.55 665.34 2006.69 648.223 2025 629.997C2040.14 614.922 2050.49 596.277 2057 576C2063.43 555.966 2073 529.172 2067.19 508.001C2064.7 498.925 2053.71 493.17 2047 487.302C2029.7 472.173 2004.65 443.911 1978 449.937C1925.95 461.705 1894.38 527.126 1883.32 573C1879.78 587.691 1870.86 609.107 1878.09 623.921C1891.83 652.11 1918.19 636.076 1934 621.134C1965.46 591.392 2016.12 542.536 2025 498M1577 591C1579.75 603.645 1572.75 619.053 1580.48 630.816C1600.01 660.548 1630.89 634.338 1643.74 613C1667.94 572.797 1678.96 516.335 1640.91 480.166C1635.58 475.093 1628.77 473.618 1622.02 471.345C1565.96 452.487 1549.99 520.684 1527.96 557.04C1517.59 574.145 1499.16 609.105 1511.26 629.697C1538.12 675.408 1567.31 616.69 1577 591M1610 501C1590.96 521.316 1587.37 558.11 1576.86 583C1569.47 600.503 1562.57 617.433 1550.62 632.516C1547.28 636.737 1539.6 646.047 1533.18 643.923C1524.35 641.004 1526.64 631.808 1521.81 627.102C1519.32 624.684 1515.42 632.584 1513.93 626.705C1507.03 599.525 1523.61 573.7 1535.08 551C1555.55 510.479 1578.29 450.701 1633.78 478.924C1642.2 483.205 1644.46 491.746 1649.76 498.68C1679.7 537.894 1653.92 616.878 1612.78 638.703C1576.6 657.896 1578.41 594.066 1583.3 576C1589.85 551.844 1609 525.958 1610 501M545 472.582C558.871 470.569 572.362 481.679 578.635 493.001C581.074 497.402 584.897 507.468 579.499 511.237C574.898 514.45 553.605 520.183 548.623 517.515C539.717 512.746 527.725 488.917 514.656 505.199C501.112 522.072 539.907 520.683 543.7 524.338C551.237 531.601 536.158 547.119 530.003 549.071C501.276 558.18 495.352 538.336 502.663 515C509.544 493.037 520.701 476.11 545 472.582M1969 500.688C1978.59 497.698 1992.41 507.396 1993.79 517C1996.15 533.36 1986.32 568.22 1968.98 574.204C1927.55 588.507 1940.93 509.443 1969 500.688M514 511C527.773 486.021 559.129 532.871 526 517.052C521.883 515.086 518.378 512.381 514 511M2015 511L2013 515C2012.43 513.191 2012.53 512.931 2013 511L2015 511M426 593L425 594L426 593M640 963C605.397 966.617 582.189 1009.85 548 1014C549.059 1009.39 528.523 1012.58 524 1013.22C494.085 1017.45 453.78 1004.23 433.194 985C422.479 974.988 418.282 958.059 413.556 945C398.1 902.3 394.749 837.252 427.111 800C443.606 781.013 480.84 771.712 504 764.528C515.325 761.015 524.912 752.473 537 751C521.404 745.719 486.651 764.758 472 771.402C456.266 778.537 435.085 784.428 423.459 798.043C405.851 818.663 405.833 835.961 402.66 861C397.228 903.871 399.082 947.859 426.878 983.914C454.415 1019.63 541.404 1034.31 576 1005.07C594.637 989.32 623.977 980.528 640 963M585 750C616.53 772.972 659.845 768.744 678.846 808.001C700.119 851.951 673.571 899.649 634.981 923.604C625.329 929.596 609.41 942.266 597.019 939.422C581.125 935.775 580.375 914.364 579.96 902C579.01 873.715 585.765 830.113 621 828L621 825C592.586 825 570.565 847.16 557.845 871C552.87 880.325 548.47 896.59 540 903C541.589 876.454 544.562 844.023 542 818C519.824 832.703 526.318 872.497 501 887C511.108 866.379 509.858 842.185 486.992 830.255C481.788 827.54 451.233 812.979 447.106 823.401C445.731 826.873 461.964 824.98 464 825.009C480.523 825.238 502.903 845.113 504.226 862C507.211 900.098 462.286 919.286 455 952C464.837 946.548 471.393 933.709 478.226 925C494.081 904.794 512.793 884.311 525.555 862C530.888 852.676 529.752 839.973 537 832C537 859.428 537.562 886.619 536.981 914C536.804 922.367 530.908 929.935 532 938C539.721 931.228 539.181 919.83 542.789 911C552.09 888.235 566.376 849.845 591 840C585.406 854.268 577.205 866.493 575.001 882C572.585 898.99 573.825 943.469 599 944.755C612.67 945.453 626.279 932.981 637 926.301C685.934 895.812 713.782 827.885 664.999 783.602C653.307 772.989 643.064 767.358 627 765.908C611.412 764.501 601.039 750.066 585 750M1635 760C1650.06 795.141 1634.91 813.01 1619.19 845C1595.95 892.271 1570.09 937.047 1533.76 975.775C1526.72 983.274 1515.06 990.61 1504.56 991.842C1497.71 992.647 1484.6 984.005 1483 995C1488.69 993.831 1494.24 994.947 1500 995C1493.47 1002.76 1483.39 1006.7 1483 1018C1509.45 992.222 1534.85 997.69 1570 996.976C1583.35 996.705 1595.62 990.67 1609 990.54C1619.89 990.435 1631.14 994.952 1642 996.302C1661.23 998.692 1675.07 995.576 1693 1005.97C1709.33 1015.43 1707.37 1033.33 1719 1044C1718.88 1030.97 1711.61 1022.16 1706 1011C1714.09 1015.41 1727.25 1030.15 1735 1031C1725.12 1013.57 1703.1 1010.33 1697 991C1707.65 994.738 1742.65 1004.54 1749 991C1730.83 998.487 1708.55 990.884 1691 984.775C1683.72 982.243 1675.58 977.667 1668.03 976.556C1663.36 975.869 1659.85 979.752 1655.55 976.828C1621.75 953.827 1624.26 903.183 1627.33 868C1628.34 856.535 1627.27 843.855 1631.47 833C1638.8 814.006 1652.71 796.258 1668.96 784.073C1670.73 782.742 1683.88 773.873 1680.9 771.359C1677.9 768.837 1672.51 775.328 1670.78 776.996C1662.65 784.834 1653.82 794.14 1645 801C1647.63 791.915 1648.46 761.627 1635 760M2076 918C2073.47 919.109 2071.29 920.457 2069 922L2072 903C2077.8 906.78 2086.59 913.36 2094 912.138C2108.68 909.715 2118.71 885.475 2111.32 873.145C2094.75 845.508 2069.03 875.533 2069 896C2057.1 890.152 2032.21 888.68 2023.49 880.358C2017.96 875.09 2017.01 864.037 2014.38 857C2012.27 851.349 2008.31 843.141 2010.16 837C2015.64 818.756 2038.26 803.788 2046.66 785.136C2048.63 780.784 2056.46 769.55 2051.45 765.416C2038.41 754.654 2018.62 761.443 2012.83 776C2005.42 794.641 2013.67 853.371 1981 853.198C1971.6 853.148 1963.94 838.062 1957.92 832.438C1942.06 817.612 1922.23 810.846 1905.26 797.283C1900.47 793.451 1894.84 781.077 1890.18 779.001C1887.16 777.653 1877.86 780.875 1875.04 782.376C1858.15 791.386 1862.9 818.816 1876.24 828.398C1893.77 840.995 1930.05 841.18 1951 847.048C1957.63 848.904 1972.71 849.624 1973.54 858.981C1974.1 865.399 1960.2 876.557 1955.96 880.864C1939.76 897.332 1903.64 941.991 1935.12 961.598C1956.91 975.17 1988.02 961.943 1994.52 937C1998.05 923.424 1992.64 906.366 1990.1 893C1989.34 888.991 1979.14 862.763 1981.73 861.622C1986.09 859.707 1999.69 871.129 2004.01 873.116C2022.83 881.772 2023.49 896.063 2035.4 911C2043.75 921.476 2058.08 932.8 2063.21 945.217C2067.19 954.888 2060.89 966.909 2065.86 975.864C2078.99 999.54 2099.42 987.622 2094.25 963C2089.77 941.618 2070.29 941.313 2076 918M2009 829L2012.32 797C2013.29 787.736 2014.41 775.377 2021.38 768.428C2026.67 763.157 2044.05 760.991 2048.61 768.793C2051.35 773.479 2043.98 781.988 2042.11 786C2035.66 799.819 2024.17 823.137 2009 829M1419 782C1404.53 800.511 1385.72 829.679 1362 836.396C1348.79 840.135 1324.28 822.909 1311 818.076C1286.95 809.328 1264.3 820.39 1242 815.182C1228.1 811.934 1218.77 793.26 1206 788C1209.23 802.848 1232.94 805.009 1234.92 818.903C1235.42 822.408 1217.82 836.627 1215.42 842C1197.73 881.544 1175.93 927.225 1125 924C1126.88 932.841 1142.83 927.621 1148 925.25C1156.32 921.438 1165.81 921.172 1173 914.917C1182.35 906.779 1192.73 888.138 1204 884C1192.51 922.587 1205.92 962.615 1188.56 1000C1184.12 1009.58 1174.62 1011.42 1169 1019C1199.93 1016.81 1195.74 976.959 1203 956C1209.49 971.828 1221.64 984.276 1221.84 1002C1222.13 1029.1 1198.82 1048.69 1196 1074C1203.65 1065.91 1205.97 1054.56 1213 1046C1212.05 1052.28 1209.66 1059.09 1215 1064C1215 1037.77 1222.09 1005.47 1251 996.783C1258.81 994.437 1270.74 996.936 1279 997C1263.01 1010.16 1248.79 1025.54 1240.93 1045C1238.27 1051.58 1236.56 1064.36 1243 1069C1236.46 1019.66 1291.56 997.6 1324 974C1324 1006.78 1333.88 1027.98 1370 1028C1359.94 1021.95 1345.99 1024.32 1337.62 1014.78C1313.89 987.74 1337.04 964.699 1347.73 940C1351.78 930.625 1350.97 917.027 1357 909C1362.86 932.409 1366.63 935.501 1389 942.797C1395.11 944.791 1402.25 949.663 1408 945C1397.38 941.833 1375.42 938.536 1367.7 930.52C1355.4 917.741 1359.07 890.096 1357.86 874C1357.33 866.826 1349.87 848.213 1355.97 842.241C1360.71 837.599 1372.88 836.447 1379 832.288C1390.62 824.399 1397.03 812.428 1406.08 802.019C1410.66 796.743 1420.13 789.718 1419 782M1965 846C1949.68 842.311 1934.45 838.293 1919 835.478C1908.18 833.506 1881.61 830.384 1874.24 822.842C1866.71 815.128 1864.55 790.427 1877.05 785.865C1888.45 781.703 1897.33 796.845 1904.1 802.716C1922.14 818.379 1954.2 821.536 1965 846M123 993C109.296 988.348 101.994 982.535 90.9221 972.42C81.7557 964.045 69.1356 952.506 64.0012 941C39.611 886.341 85.0748 831.738 130 808.51C159.076 793.476 184.072 784.594 215 800.774C228.041 807.596 232.859 823.36 238.801 836C246.676 852.752 254.145 866.777 251.742 886C245.92 932.558 188.673 990.66 140.107 975.499C127.957 971.706 136.719 925.332 142.363 917.233C146.239 911.67 161.283 915.266 167.783 913.047C187.154 906.431 202.505 892.39 208.123 872C210.546 863.207 209.265 849.143 199.951 844.663C182.302 836.174 158.125 877.824 150.864 889C148.762 892.236 145.017 903.166 141.36 904.357C137.122 905.737 132.563 892.456 129.258 896.892C124.252 903.609 138.29 909.084 138.428 914.556C138.846 931.132 120.394 960.954 133.604 976.756C138.138 982.18 146.67 980.978 153 981.861C182.339 985.951 201.56 969.639 219.901 949C235.161 931.828 255.066 906.733 256.861 883C258.118 866.384 252.545 852.477 245.13 838C239.689 827.378 235.201 811.177 226.414 802.951C198.824 777.123 157.456 788.012 129 804.399C109.584 815.58 90.1591 827.788 75.2654 845C44.3633 880.713 49.6845 937.39 81.0075 968.999C91.2412 979.327 106.722 999.253 123 993M824 811C811.948 809.992 824.85 820.293 823 829C821.058 826.896 819.63 825.169 817 824C824.776 860.515 830.95 897.674 810.217 932C801.305 946.756 780.804 955.72 776 972C783.772 970.156 786.75 961.673 793.137 957.435C806.076 948.851 823.2 948.291 838 950.332C869.707 954.704 912.953 1011.68 944.031 981.65C947.894 977.916 937.102 979.077 936 979.243C902.852 984.255 896.83 955.753 896.917 928C897.009 898.628 909.686 863.849 931.22 843.198C940.56 834.241 960.968 833.986 966 821C935.127 825.742 907.252 851.072 876 858.612C864.079 861.489 842.739 860.683 835.376 848.683C828.803 837.973 830.561 819.229 827.153 807.159C825.359 800.802 822.673 806.827 824 811M1261 817C1256.54 819.512 1252.05 819.951 1247 820L1247 818L1261 817M1295 820C1291.82 823.589 1265.27 828.616 1262.76 822.677C1260.42 817.145 1291.59 818.818 1295 820M1217 849C1217.96 843.234 1237.16 813.897 1244.6 821.209C1245.37 821.961 1220.49 847.136 1217 849M1254 824.689C1274.99 822.454 1300.74 827.121 1321 833.284C1328.75 835.64 1337.54 834.344 1342.72 842.18C1355.8 861.969 1346.48 884.24 1340.47 904C1329.41 940.442 1326.83 988.748 1278.86 993.489C1249.67 996.374 1212.56 979.769 1204.63 950C1199.99 932.542 1203.13 906.547 1205.85 889C1209.33 866.598 1227.29 827.533 1254 824.689M828 827L828 832L826 832C826.399 829.878 826.796 828.778 828 827M2006 839C2006.76 850.918 2012.5 863.049 2017 874C2011.34 873.605 1986 863.8 1986 857.036C1986 852.008 2001.78 841.434 2006 839M923 844C918.417 857.551 908.599 869.135 902.428 882C887.544 913.035 885.518 977.808 926 984C911.408 994.945 893.588 972.969 883 965.582C858.728 948.647 831.205 941.74 803 949C820.888 914.944 826.738 891.004 831 853C838.796 855.121 844.994 861.102 853 862.5C877.447 866.768 902.087 854.897 923 844M1625 844C1627.77 885.48 1612.22 925.272 1638.03 963.92C1647.83 978.604 1670.35 981.647 1678 995C1657.22 990.395 1626.29 985.928 1605 987.141C1593.3 987.807 1582.39 993.542 1570.78 994.245C1554.6 995.226 1541.94 987.133 1526 989C1545.07 965.847 1568.26 943.716 1584.09 918C1598.01 895.37 1607.91 863.911 1625 844M194.997 848.647C209.219 847.06 206.108 869.687 202.565 877C193.241 896.247 177.452 910.674 155.001 910.777C141.853 910.838 148.512 898.568 153.057 892C162.586 878.231 175.887 850.78 194.997 848.647M1977.67 856.667C1977.72 856.722 1977.78 857.778 1977.33 857.333C1977.28 857.278 1977.22 856.222 1977.67 856.667M1975.06 866.323C1981.12 865.457 1985.26 889.651 1985.98 894C1989.73 916.714 1997.55 957.744 1964 962.636C1904.43 971.323 1935.24 905.819 1957.91 883.68C1962.38 879.314 1968.42 867.271 1975.06 866.323M2086 868.521C2114.5 861.919 2117.59 902.606 2094 907.557C2068.97 912.81 2064.84 873.423 2086 868.521M1354 884C1354.44 907.483 1348.97 948.783 1327 963C1335.69 936.874 1339.28 908.799 1352 884L1354 884M2027 887C2048.1 887.75 2069.18 891.794 2066.56 916C2066.17 919.671 2068.24 928.437 2064.49 930.583C2051.9 937.796 2029.48 896.153 2027 887M2066 941C2062.99 939.195 2061.88 937.38 2061 934C2064.61 935.467 2065.5 937.182 2066 941M2072 938C2084.37 949.582 2094.03 957.951 2088 976C2086.92 979.236 2085.33 987.997 2080.79 987.997C2065.5 987.997 2066.98 946.025 2072 938M1667 983C1664.88 982.101 1664.9 982.124 1664 980C1666.12 980.899 1666.1 980.876 1667 983M1223 1011C1224.44 1005.45 1221.39 988.508 1224.34 985.262C1227.97 981.263 1245 988.239 1245.68 993.042C1246.34 997.733 1227.01 1008.77 1223 1011M1684 986C1687.57 987.626 1690.34 989.087 1693 992C1688.88 992.064 1683.78 990.961 1684 986M1522 992C1520.15 996.03 1516.82 996.525 1514 993C1516.83 992.064 1519.02 991.805 1522 992M1682 991C1687.68 994.245 1696.24 996.707 1699 1003C1693.08 1002.17 1681.69 998.292 1682 991M550.667 1009.33C550.222 1009.78 551.278 1009.72 551.333 1009.67C551.778 1009.22 550.722 1009.28 550.667 1009.33M534 1016C532.494 1016.68 531.685 1016.83 530 1017C531.506 1016.32 532.315 1016.17 534 1016M1938 1183C1938.6 1174.25 1942.52 1164.42 1938.15 1156C1925.9 1132.36 1902.04 1141.04 1892.93 1161C1886.74 1174.58 1899 1215.17 1917 1214.8C1927.33 1214.59 1930.45 1201.78 1937 1196C1927.95 1214.49 1919.92 1241.62 1902.64 1254.38C1895.09 1259.95 1853.73 1262.01 1855.79 1280.7C1856.9 1290.88 1873.52 1285.34 1878 1282.43C1885.81 1277.37 1897.09 1264.13 1906 1262.85C1937.61 1258.29 1971.02 1282.73 1992.9 1248C2007.19 1225.32 2014.93 1189.96 2008.82 1164C2002.85 1138.62 1994.82 1124.91 1967.22 1136.82C1945.87 1146.03 1951.47 1169.54 1938 1183M1201 1204C1207.98 1190.86 1194.08 1183.78 1188 1196C1178.4 1185.39 1154.74 1199.45 1148.69 1210.07C1146.27 1214.32 1148.29 1219.39 1147 1224C1157.54 1220.68 1167.45 1214.38 1177.98 1211.43C1184.82 1209.51 1192.31 1212.8 1198.01 1210.57C1213.09 1204.68 1226.76 1192.78 1241 1185C1238.76 1208.96 1231.63 1231.76 1233.78 1256C1234.6 1265.25 1234.16 1278.91 1247 1279.66C1259.84 1280.42 1265.01 1260.87 1275.78 1260.48C1281.61 1260.26 1286.53 1273.26 1291.08 1276.17C1301.03 1282.54 1311.26 1261.95 1316 1256C1312.13 1285.17 1325.3 1276.32 1340 1263C1339.51 1268.26 1337.79 1283.14 1346.78 1283.24C1351.37 1283.29 1357.45 1266.37 1359 1278C1367.08 1275.21 1371.3 1268.39 1375 1261C1375.67 1264.44 1375.31 1267.52 1375 1271C1382.54 1267.88 1386.14 1260.26 1392 1255C1392.44 1278.01 1412.35 1253.6 1415 1270L1422 1267L1422 1270C1424.82 1269.36 1425.85 1269.03 1428 1271C1430.34 1262.12 1433.36 1252.15 1434 1243C1431.03 1245.13 1429.24 1248.13 1427 1251C1427.7 1246.83 1428.78 1243.22 1428 1239C1425.89 1241.6 1425.3 1243.67 1425 1247L1421 1245C1414.79 1267.79 1418.68 1248.01 1411 1241C1405.05 1247.65 1402.11 1256.43 1395 1262L1394 1244C1387.49 1245.9 1384.12 1258.48 1379 1263C1379.11 1259.91 1379.41 1256.99 1380.26 1254C1389.32 1222.08 1367 1272.48 1362.13 1269.89C1359.66 1268.58 1367.6 1242.18 1368 1238C1364.84 1239.29 1341.1 1303.19 1343.08 1264C1343.26 1260.32 1343.87 1256.69 1344 1253C1335.34 1256.73 1333.52 1270.26 1324.11 1273.68C1318.47 1275.72 1318.3 1265.19 1318.52 1262C1319.38 1249.24 1330.88 1235.08 1329 1223C1316.97 1235.34 1315.17 1255.15 1302.8 1267.86C1289.05 1282 1280.32 1257.47 1281 1246C1270.04 1253.27 1264.52 1267.17 1251.99 1273.38C1235.35 1281.64 1237.92 1252.52 1237.7 1244C1237.26 1226.96 1239.11 1197.35 1246.8 1182.04C1251.6 1172.51 1261.98 1166.99 1266.47 1157C1269.14 1151.06 1273.81 1134.1 1263.99 1132.43C1246.21 1129.38 1247.63 1169.31 1241.64 1178.61C1234.91 1189.03 1211.79 1197.97 1201 1204M1987 1135L1992 1135C1989.79 1136.15 1988.51 1136.2 1986 1136L1987 1135M1248 1175C1245.99 1167.46 1251.68 1138.08 1261.17 1136.61C1271.4 1135.03 1261.75 1158.64 1259.46 1161.96C1256.14 1166.75 1251.5 1170.35 1248 1175M1553.16 1138.28C1539.34 1145.53 1547.52 1167.52 1558 1173.32C1561.91 1175.48 1571.19 1175.17 1573.26 1179.48C1575.78 1184.72 1571.8 1200.62 1569.63 1205.83C1565.68 1215.37 1536.95 1213.85 1529.26 1218.96C1506.86 1233.83 1505.1 1261.81 1510.47 1286C1512.69 1296.03 1515.24 1307.55 1526 1311.49C1542.36 1317.48 1555.92 1302.35 1560 1288C1565 1270.39 1567.96 1253.03 1570.76 1235C1571.47 1230.39 1571.06 1218.32 1574.82 1215.26C1578.68 1212.12 1591.2 1213.51 1595.93 1214.15C1605.7 1215.46 1598.36 1238.3 1597.92 1245C1597.31 1254.39 1589.96 1253.81 1584.46 1259.92C1576.85 1268.36 1570.03 1292.99 1577.6 1303.26C1583.3 1310.99 1587.77 1300.19 1589.14 1296C1591.99 1287.24 1598.74 1252.56 1613.28 1262.04C1622.41 1268 1613.05 1298.48 1616.53 1307.95C1619.11 1314.99 1629.69 1317.09 1636 1314.18C1653.85 1305.93 1661.95 1279.81 1644.85 1267.05C1639.57 1263.11 1624.38 1261.93 1621.56 1256.33C1619.07 1251.4 1626.45 1227.94 1629.25 1223.15C1633.48 1215.92 1646.1 1220.72 1653 1219.32C1669.03 1216.06 1686.81 1194.02 1680.92 1177C1675.9 1162.51 1659.64 1156.39 1648.62 1169.16C1636.88 1182.75 1631.59 1230.68 1608.4 1211.38C1604.49 1208.13 1608.67 1199.34 1609.28 1195C1609.83 1191.07 1609.02 1184.81 1611.82 1181.69C1615.18 1177.95 1621.79 1179.15 1625.95 1176.39C1634.65 1170.62 1635.99 1153.12 1628.17 1145.88C1602.61 1122.22 1613.97 1166.04 1608.74 1172.14C1605.95 1175.39 1586.92 1171.93 1583.19 1170.08C1575.41 1166.22 1578.25 1125.11 1553.16 1138.28M1906 1259C1909.87 1248.8 1918.49 1241.3 1923.94 1232C1933.9 1215.01 1942.09 1194.48 1948.88 1176C1953.06 1164.62 1957.11 1149.29 1969 1143.77C1981.34 1138.04 1990.04 1158.75 1992.76 1157.46C2001 1153.55 1993.4 1143.64 1991 1139C2004.07 1141.73 2002.88 1154.31 2005.38 1165C2011.14 1189.62 2003.75 1231.97 1986.44 1251.1C1966.46 1273.18 1932.78 1259 1906 1259M1554.35 1141.89C1569.08 1135.9 1586.03 1166.92 1573.62 1171.5C1557.68 1177.37 1539.36 1147.98 1554.35 1141.89M1614.61 1144.94C1628.12 1138.51 1635.11 1167.92 1622.95 1173.69C1607.27 1181.14 1608.83 1147.69 1614.61 1144.94M1931 1194C1924.42 1194.76 1921.31 1201.6 1930 1200C1910.87 1227.11 1890.61 1185.19 1894.86 1166C1899.31 1145.97 1923.88 1135.04 1935.05 1157.01C1941.19 1169.08 1932.64 1182.17 1931 1194M1987 1145C1995.5 1146.92 1993.27 1153.78 1987 1145M546 1357C543.834 1352.12 514.863 1347.17 508 1343.72C495.239 1337.31 486.685 1305.52 486.028 1292C484.566 1261.93 509.895 1257.57 535 1259.03C539.691 1259.3 554.987 1263.04 558.278 1258.67C562.776 1252.69 560.19 1234.97 559.222 1228C556.819 1210.7 560.753 1191.92 563.611 1175C564.217 1171.41 563.547 1162.07 566.333 1159.69C572.485 1154.44 587.086 1157.53 594 1159.69C625.351 1169.49 629 1200.17 629 1230C629 1237.15 621.575 1267.99 631 1270C631 1242.78 628.767 1215.81 629.583 1189C630.658 1153.67 562.224 1143.83 539 1156.76C504.315 1176.06 487.864 1217.78 483.217 1255C482.412 1261.45 487.227 1265.33 486.613 1271.03C482.09 1312.97 493.394 1360.12 546 1357M230 1284L229 1283C217.678 1288.9 182.448 1316.51 169.601 1309.16C166.692 1307.5 170.073 1295.48 169.785 1292C168.111 1271.75 173.961 1252.77 175.952 1233C177.893 1213.74 171.984 1182.49 180.247 1165.09C185.445 1154.15 207.677 1164.78 213.524 1170.32C218.202 1174.74 223.945 1178.3 228.363 1182.86C235.655 1190.4 234.89 1203.21 242 1211C244.544 1195.98 230.972 1180.04 221 1170.91C189.68 1142.23 139.926 1153.73 120.085 1191C103.498 1222.16 103.911 1270.19 126.209 1298.09C148.708 1326.23 185.966 1312.3 210 1297.14C217 1292.73 225.286 1291.33 230 1284M561 1160C554.892 1177.59 554.136 1204.37 555.078 1223C555.432 1230.01 559.555 1247.24 554.74 1253.06C551.37 1257.13 541.494 1254.64 537 1254.4C522.026 1253.6 507.822 1258.94 493 1259C494.237 1255.84 495.801 1253.59 498 1251C491.61 1250.42 490.622 1255.56 490 1261C482.425 1258.33 492.506 1229.97 494.255 1223C501.783 1192.97 528 1155.97 561 1160M940 1319C930.776 1321.36 910.604 1324.96 902.678 1317.22C899.08 1313.7 900.078 1306.55 899.982 1302C899.732 1290.22 893.411 1261.19 902.635 1251.86C913.202 1241.17 947.616 1245.62 961 1247.6C964.975 1248.19 975.17 1248.5 977.805 1251.8C980.007 1254.56 974.635 1274.52 974 1279L978 1274C976.592 1288.52 966.755 1295.98 954 1301C961.69 1308.61 975.337 1292.2 978.312 1286C982.57 1277.12 979.213 1269.79 980.951 1261C984.443 1243.34 998.755 1224.81 991.435 1206C983.334 1185.18 965.944 1181.3 948 1173.55C936.05 1168.4 926.415 1159.77 913 1157.55C896.487 1154.83 867.479 1167.85 855.078 1178.13C826.256 1202.02 821.694 1253.58 831.619 1288C839.355 1314.84 884.401 1322.27 909 1324.13C919.301 1324.91 933.578 1329.97 940 1319M175 1160C168.388 1209.87 170.607 1261.17 164 1311C157.296 1309.52 131.884 1303.2 131.761 1294.19C131.724 1291.47 137.504 1288.39 139 1286C118.409 1292.4 114.101 1267.89 114.003 1250C113.801 1213.28 127.312 1155.76 175 1160M908 1161.46C918.545 1159.95 930.417 1168.77 939.04 1173.54C955.419 1182.6 973.107 1182.83 984.457 1200.08C990.928 1209.91 991.041 1235.34 980.625 1243.18C974.482 1247.8 963.773 1244.09 957 1243.26C942.222 1241.45 911.197 1237.01 899.685 1249.64C890.924 1259.26 895.228 1287.16 896.562 1299C897.009 1302.97 899.447 1314.12 893.834 1315.16C888.807 1316.09 882.082 1313.65 877 1313.09C866.513 1311.94 847.873 1307.03 840.853 1298.64C823.451 1277.84 831.855 1222.59 841.129 1200C850.632 1176.85 885.02 1164.75 908 1161.46M1664.99 1166.53C1676.24 1166.9 1679.51 1181.27 1676.98 1190C1672.76 1204.51 1659.89 1217.93 1644 1216.86C1618.35 1215.14 1647.31 1165.95 1664.99 1166.53M1609 1178C1607.01 1186.39 1607.18 1200.44 1602.51 1207.58C1599.7 1211.86 1577.63 1212.66 1574.38 1208.74C1572.04 1205.93 1577.31 1178.64 1580.6 1176.82C1588.02 1172.74 1601.02 1177.85 1609 1178M1252 1188C1254.36 1187.52 1254.52 1187.36 1255 1185C1252.88 1185.9 1252.9 1185.88 1252 1188M1270 1197C1275.75 1183.78 1262.11 1189.95 1270 1197M1198 1205C1186.36 1200.55 1202.99 1182.75 1198 1205M1181 1193C1183.81 1197.09 1185.79 1201.21 1190 1204C1182.24 1205.24 1176.14 1200.78 1181 1193M1169 1209C1168.39 1204.27 1165.14 1201.44 1164 1197C1171.34 1198.86 1179.49 1202.72 1169 1209M1161 1208C1162.04 1201.71 1166.43 1206.19 1161 1208M1180 1206L1180 1208L1176 1208L1176 1206L1180 1206M1154.77 1208.64C1158.27 1208.64 1156.44 1217.35 1152.45 1216.68C1148.76 1216.05 1151.85 1208.64 1154.77 1208.64M1165 1211L1165 1213L1162 1213L1162 1211L1165 1211M1169 1212C1167.33 1213.12 1167.67 1213.12 1166 1212L1169 1212M1561 1213.51C1573.98 1211.61 1566.3 1231.7 1566.04 1239C1565.35 1258.02 1560.14 1306.32 1536 1309.63C1512.86 1312.81 1513 1276.4 1513 1262C1513.01 1232.33 1533.02 1217.6 1561 1213.51M1600 1256C1602.8 1242.84 1605 1228.47 1605 1215C1609.66 1216.36 1620.93 1218.42 1623.6 1222.74C1632.67 1237.4 1614.13 1258.5 1600 1256M120.5 1226.5C119.873 1227.13 120.872 1228.13 121.5 1227.5C122.128 1226.87 121.127 1225.87 120.5 1226.5M1580 1302C1578.33 1295.4 1578.94 1251.67 1594.42 1259.55C1601.75 1263.27 1585.17 1298.29 1580 1302M1898 1260C1891.96 1270.59 1870.66 1290.17 1858 1280C1868.23 1271.6 1883.5 1256.39 1898 1260M1621.51 1263.24C1649.01 1254.99 1661.21 1302.05 1633 1311.15C1613.05 1317.58 1620.01 1287.91 1620 1278C1619.99 1274.91 1617.61 1264.41 1621.51 1263.24M390 1305C392.897 1305.6 395.251 1306.98 398 1308C396.623 1303.28 392.889 1298.09 390 1305M172 1647C164.319 1641.87 166.124 1628.39 154.999 1626.39C144.557 1624.51 136.249 1636.8 132.82 1645C125.522 1662.46 117.974 1725.64 145.859 1729C158.91 1730.57 165.904 1691.67 168.779 1683C180.462 1647.76 183.133 1606.68 188.427 1570C190.257 1557.32 191.443 1530.67 199.483 1520.53C203.217 1515.81 212.827 1525.5 214.119 1529.02C215.879 1533.82 214.895 1539.92 216.048 1545C216.678 1547.78 217.611 1550.42 218.812 1553C230.025 1577.09 236.562 1539.19 242.526 1535.04C246.636 1532.18 255.441 1534.02 260 1535C257.318 1540.48 260.093 1566.6 270.247 1560.89C279.687 1555.59 284.302 1511.53 304.635 1524.38C317.261 1532.37 297.63 1548.71 303.267 1557.58C307.328 1563.96 319.186 1560.8 323 1556C319.022 1556.24 310 1558.93 307.138 1555.06C301.426 1547.33 324.189 1526.08 304.949 1519.69C280.44 1511.54 281.173 1547.11 269.356 1555C263.046 1559.21 260.095 1543.82 261.968 1540.03C265.966 1531.94 274.203 1535 280 1530C275.168 1528.18 271.049 1528.71 266 1529C270.228 1515.26 264.801 1496.77 248.301 1509.55C242.593 1513.97 242.104 1523.2 236.584 1526.74C233.045 1529.01 224.783 1528.6 221.544 1525.88C213.273 1518.92 234.509 1485.72 216 1483C218.153 1488.29 223.083 1518.48 213.539 1519.64C207.679 1520.35 202.843 1512.54 196 1513C196 1503.02 194.068 1491.96 199 1483C185.302 1484.87 193.069 1513.58 192.941 1523C192.383 1564.19 172.169 1605.9 172 1647M1980 1540C1980.95 1548.67 1976.01 1558.31 1974.79 1567C1970.54 1597.53 1959.01 1661.56 1920 1667.68C1901.37 1670.59 1887.11 1653.36 1872 1646C1880.4 1668.21 1916.48 1676.56 1935 1664.9C1957.01 1651.04 1979.74 1605.51 1976 1579C1987.48 1580.87 1999.29 1588.59 2011 1588.31C2041.92 1587.57 2048.3 1556.76 2039 1534C2066.66 1538.94 2091.51 1549.99 2120 1551C2116.32 1542.74 2103.41 1545.34 2096 1544.92C2081.26 1544.09 2061.14 1535.74 2047 1530.68C2033.21 1525.75 2036.82 1516.8 2029.22 1507.36C2022.09 1498.52 2004.06 1488.06 1993 1485.84C1959.99 1479.2 1900.26 1493.56 1904.2 1538C1905.62 1554.07 1928.88 1602.21 1950.86 1594.13C1971.57 1586.52 1971.94 1556.3 1980 1540M2002 1495L1992 1501C1992.24 1497.58 1992.07 1495.76 1990 1493C1988.4 1498.04 1987.42 1509.42 1982.98 1512.66C1973.65 1519.48 1949.84 1507.75 1939.96 1506.74C1933.82 1506.12 1928.45 1509.11 1922 1508C1935.15 1487.28 1956.27 1489 1977 1489C1984.59 1489 1997.08 1488.18 2002 1495M2030 1524C2024.61 1522.93 1991.21 1517.12 1989.89 1514.36C1986.45 1507.16 1999.44 1499.38 2005 1499.08C2019.03 1498.32 2028.7 1511.35 2030 1524M1538 1579C1535.88 1563.81 1516.41 1540.74 1523.96 1524.57C1525.19 1521.93 1531.52 1521.07 1534 1519.67C1552.91 1508.97 1560.72 1518.08 1580 1519.5C1604.25 1521.28 1628 1508.43 1653 1511.33C1677.91 1514.22 1702.3 1533.77 1726 1534C1687.87 1494.75 1628.96 1514.84 1584 1514.99C1561.91 1515.06 1543.33 1503.31 1521.82 1517.8C1517.94 1520.42 1519.53 1530.18 1520.18 1534C1522.46 1547.4 1525.84 1570.71 1538 1579M256.979 1508.63C266.864 1506.8 268.342 1528.19 260.756 1530.26C239.495 1536.06 238.881 1511.97 256.979 1508.63M1925 1512C1921.23 1518.83 1914.67 1522.89 1911 1530C1907.92 1520.55 1917.1 1514.54 1925 1512M1925 1577C1928.11 1577.7 1929.69 1578.79 1932 1581C1934.17 1572.75 1925.38 1571.11 1921.75 1564.95C1916.38 1555.85 1916.61 1549.1 1916.12 1539C1914.77 1511.67 1937.49 1513.72 1957 1515.14C1961.04 1515.43 1979.6 1515 1980.76 1519.69C1981.6 1523.07 1977.51 1528.37 1977.06 1532C1974.74 1550.66 1969.22 1571.04 1956.06 1584.93C1947.73 1593.72 1929.38 1587.63 1925 1577M1989.74 1521.82C1994.84 1518.89 2006.81 1522.67 2012 1524.33C2020.35 1526.99 2029.82 1527.86 2034.75 1536.34C2040.29 1545.86 2029.79 1575.21 2020.91 1580.46C2014.13 1584.47 1983.36 1582.08 1980.5 1573.73C1977.36 1564.54 1983.1 1552.95 1984.59 1544C1985.47 1538.73 1984.37 1524.91 1989.74 1521.82M220.509 1531.4C241.772 1525.22 240.522 1553.32 227.078 1556.03C220.615 1557.33 215.145 1532.95 220.509 1531.4M1217 1583C1218.6 1569.73 1204.9 1551.73 1215.8 1539.33C1221.49 1532.85 1245.19 1544.81 1253 1546.43C1284.89 1553.01 1314.97 1567.22 1348 1563.06C1355.47 1562.11 1372.29 1562.02 1377 1556C1354.57 1556 1333.39 1563.55 1311 1557.48C1289.94 1551.78 1267.99 1547.4 1247.08 1541.26C1239.33 1538.98 1226.28 1530.74 1218.32 1532.16C1200.42 1535.37 1207.05 1575.22 1217 1583M1582 1598C1585.92 1585.13 1579.19 1574.29 1588.93 1562.22C1617.78 1526.45 1663.33 1528.95 1665.92 1580C1667.41 1609.27 1659.85 1639.19 1642.63 1662.99C1632.85 1676.52 1608.42 1681.09 1600.58 1661.66C1598.52 1656.56 1607.34 1639.75 1609.04 1634C1615.18 1613.22 1617.99 1591.64 1618 1570C1610.33 1573.04 1613.01 1589.18 1613 1596C1612.98 1615.15 1605.61 1642.99 1595 1659C1589.35 1649.78 1578.9 1632.9 1566 1634.52C1547.21 1636.88 1541.85 1674.84 1557.08 1684.05C1574.86 1694.8 1582.64 1670.32 1597 1667.14C1609.33 1664.4 1614.97 1685.37 1628 1680.65C1667.41 1666.39 1680.19 1584.12 1664.2 1550.36C1654.25 1529.35 1635.76 1532.22 1618 1536.72C1589.54 1543.93 1573.27 1569.77 1582 1598M1911 1551C1908.76 1544.69 1908.01 1538.67 1908 1532C1914.07 1533.64 1916.63 1547.74 1911 1551M2040 1549C2042.19 1559.22 2038.54 1570.8 2029 1576C2031.4 1567.81 2035.11 1555.93 2040 1549M1176 1663C1176.11 1675.16 1175.14 1707.76 1193.02 1709.45C1208.06 1710.87 1224.98 1673.49 1229 1662C1231.52 1669.07 1233.79 1686.85 1241.22 1690.25C1246.82 1692.82 1251.1 1684.38 1253.88 1680.86C1263.91 1668.19 1272.02 1653.53 1279 1639C1282.12 1653.33 1271.92 1670.04 1279.7 1683.77C1290.02 1701.97 1322.27 1676.63 1326 1664C1320.05 1668.45 1315.32 1674.37 1309 1678.35C1266.9 1704.92 1281.58 1637.25 1288.67 1616C1290.64 1610.08 1293.18 1604.2 1294 1598C1285.1 1603.22 1283.58 1617.88 1280.44 1627C1275.81 1640.45 1266.93 1652.55 1260.2 1665C1257.17 1670.61 1250.85 1683.3 1244.22 1685.11C1238.78 1686.6 1234.23 1664.97 1234.41 1661C1235.6 1633.71 1253.26 1609.3 1255 1582C1248.27 1586.55 1247.1 1600.56 1244.21 1608C1234.65 1632.66 1229.19 1658.22 1215.17 1681C1211.65 1686.73 1200.03 1709.14 1191.22 1704.07C1174.7 1694.57 1188.44 1672.61 1176 1663M842 1650C847.198 1645.33 850.474 1641.13 851 1634C852.515 1641.1 848.769 1646.44 846.71 1653C842.398 1666.74 837.548 1703.6 819.019 1705.35C812.83 1705.94 808 1695.54 802 1693C821.466 1742.08 847.055 1671.12 851 1651C854.644 1667.75 846.237 1686.58 852.702 1702.99C863.397 1730.14 883.079 1685.1 886 1676C889.753 1685.24 884.321 1694.57 891.081 1703.83C903.466 1720.81 919.13 1697.51 920 1685C914.078 1690.85 913.935 1701.67 904.992 1705.04C887.806 1711.53 885.887 1667.28 895.718 1661.3C898.089 1659.85 905.927 1664.59 909 1665C905.968 1660.98 898.917 1659.15 897.84 1653.9C895.454 1642.27 906.003 1630.45 906.796 1619C907.123 1614.28 904.25 1606.24 898.073 1608.27C883.711 1612.98 884.692 1637.64 869 1643C869.755 1635.62 872.92 1628.34 873.266 1621C873.793 1609.8 861.938 1600.75 853.564 1611.11C848.281 1617.64 843.42 1641.52 842 1650M859 1620L857 1620C855.764 1624.05 854.352 1627.76 854 1632L852 1632C852.649 1628.35 852.885 1624.66 853.465 1621C854.698 1613.23 864.194 1604.35 869.06 1615.24C871.72 1621.19 867.334 1629.75 866.944 1636C866.762 1638.92 865.738 1643.72 869.3 1645.07C879.167 1648.82 889.18 1623.85 893.208 1617.79C895.171 1614.84 900.986 1607.65 902.617 1615.15C907.191 1636.17 885.359 1670.54 877.111 1689C874.773 1694.23 867.601 1712.33 859.322 1706.35C853.107 1701.87 855 1689.56 855 1683C855 1662.26 860.523 1640.41 859 1620M615 1702C612.364 1703.59 604.707 1709.17 602.32 1704.37C599.608 1698.93 612.374 1690.03 611.411 1683.25C608.608 1663.5 577.331 1704.61 575.322 1703.59C566.715 1699.24 596.059 1669.24 573.992 1668.53C561.395 1668.13 551.368 1690.9 544.096 1699C541.644 1701.73 536.97 1708.9 532.501 1707.81C520.74 1704.95 550.588 1673.24 536.852 1669.67C519.766 1665.23 513.546 1710.24 494.099 1707.29C486.817 1706.19 485.048 1693.7 485.003 1688C484.841 1667.51 499.748 1652.66 497.68 1633C495.695 1614.14 475.092 1610.45 461.779 1623.16C459.932 1624.92 457.986 1631.09 462.622 1628.67C466.805 1626.49 469.226 1622.52 474.001 1620.97C509.677 1609.34 484.361 1655.37 482.52 1666C481.34 1672.81 481.994 1680.11 482 1687C482.006 1693.77 483.682 1709.92 492.187 1711.71C504.1 1714.23 518.031 1695.73 523.426 1687C525.594 1683.49 530.112 1673.48 535.441 1674.32C540.512 1675.13 515.775 1707.15 531.199 1711.47C549.612 1716.63 556.946 1674.35 572.97 1672.32C584.072 1670.91 563.331 1701.91 574.07 1707.61C588.664 1715.36 590.066 1677.05 605.472 1683.01C612.876 1685.87 590.686 1702.8 602.287 1709.36C608.016 1712.6 614.397 1707.75 615 1702M147 1726C124.485 1713.95 123.029 1649.95 144.266 1633.86C161.106 1621.1 170.492 1652.13 167.153 1664C164.355 1673.95 161.133 1683.8 159.167 1693.97C157.084 1704.75 152.021 1714.98 147 1726M1566.98 1637.06C1595.35 1637.43 1598.08 1681.98 1565 1681.9C1543.63 1681.85 1551.12 1636.86 1566.98 1637.06M1589 1942C1596.52 1935.81 1598.51 1924.43 1603.06 1916C1614.67 1894.47 1622.84 1877.26 1630 1854C1641.09 1872.14 1651.54 1890.04 1661.27 1909C1665.61 1917.45 1668.45 1928.92 1677 1934C1672.86 1912.76 1655.55 1887.49 1644.44 1869C1642.15 1865.2 1634.87 1850.57 1630.01 1850.57C1624.43 1850.57 1622.53 1868.79 1621.15 1873C1614.35 1893.89 1587.25 1919.99 1589 1942M1252 1856C1241.62 1885.13 1216.01 1919.1 1188 1933C1194.3 1941.28 1205.44 1925.86 1210.22 1921.57C1227.09 1906.45 1246.17 1885.62 1252 1863C1270.91 1880.23 1278.46 1914.47 1299 1929C1292.51 1908.48 1277.02 1889.86 1264.18 1873C1259.94 1867.43 1257.85 1860.14 1252 1856M862 1907C854.937 1924.95 846.292 1944.51 836.276 1961C833.766 1965.13 824.247 1977.63 819.26 1969.71C810.63 1956 832.325 1925.06 833 1910C814.031 1922 818.773 1970.53 793.82 1979.24C789.432 1980.77 791.299 1964.17 791.57 1962C793.884 1943.42 803.177 1927.61 807 1910C791.568 1915.9 788.001 1950.82 788 1965C788 1969.09 785.472 1986.19 792.107 1985.49C802.966 1984.34 808.296 1964.28 816 1958C813.828 1994.59 838.813 1964.91 846.67 1949C847.967 1946.38 851.219 1936.44 855.108 1937.08C859.46 1937.8 858.144 1944.32 857.249 1947C855.23 1953.05 849.509 1960.3 851.981 1966.98C857.072 1980.73 876.56 1972.87 882 1964C875.408 1966.24 865.068 1973.34 858.325 1968.06C851.105 1962.41 861.32 1950.38 862.473 1944C863.31 1939.37 857.619 1934.02 859.304 1930.39C870.888 1905.42 889.311 1930.5 895 1942C903.086 1917.23 873.65 1913.35 859 1925C860.424 1919 865.457 1913 862 1907M122 2026C128.491 2041.63 122.306 2056.84 126 2072C138.941 2056.43 140.045 2019.45 139.999 2000C139.977 1990.77 135.48 1974.64 144.508 1967.97C151.567 1962.75 164.294 1973.86 166.834 1980C172.991 1994.89 159.996 2016.35 167.822 2030.28C171.495 2036.82 182.938 2036.53 189 2035.44C206.629 2032.26 217.871 2015.56 219 1998C213.145 2004.04 211.422 2013.26 206.136 2019.99C200.258 2027.48 178.248 2039.91 172.063 2025.84C161.943 2002.82 187.071 1968.99 148 1963C157.051 1948.55 182.613 1934.84 200 1936.54C208.882 1937.42 216.905 1942.98 226 1944C203.626 1907.85 159.43 1952.07 140 1963C144.293 1947.59 148.935 1933.24 149 1917C140.305 1920.88 138.711 1948.05 137.081 1957C132.147 1984.08 123.219 2032.91 102.659 2052.59C87.0695 2067.52 70.1992 2038.17 66.7598 2024C66.4071 2022.55 65.7074 2005.02 61.2488 2009.97C51.6089 2020.68 81.3341 2061 92 2062.45C110.585 2064.99 116.819 2038.49 122 2026M517 1919C524.337 1953.08 492.941 1983.11 474.463 2009.9C469.532 2017.04 462.142 2018.4 460.399 2028C457.121 2046.05 458.005 2066.66 454.515 2083.72C453.752 2087.46 449.093 2088.85 446 2090C445.953 2078.34 440.215 2035.04 430 2030C431.447 2051.76 441.886 2121.88 471 2078C471.575 2079.41 473.264 2084.61 475.586 2082.03C481.781 2075.14 476.808 2059.59 484.035 2052.9C487.497 2049.7 496.178 2053.97 501 2052.22C514.219 2047.43 534.396 2029.21 537 2015C524.119 2023.51 515.686 2043.22 500.04 2048.63C495.564 2050.17 489.085 2047.35 484 2048C489.827 2028.42 500.948 2011.22 507.526 1992C511.067 1981.65 511.838 1967.55 519.344 1959.15C530.954 1946.15 572.682 1941.94 567.653 1968C564.498 1984.35 544.367 1988.58 536 2000C567.049 2006.76 563.37 2069.59 538 2081.73C523.736 2088.56 512.036 2075.04 500 2070C507.976 2091.98 541.706 2090.6 553.479 2074C565.745 2056.7 562.738 2029.57 555.759 2011C554.086 2006.55 547.685 2002.67 547.079 1998.29C546.266 1992.43 567.159 1979.8 569.958 1973C585.136 1936.11 537.66 1945.9 520 1952C522.599 1943.06 532.191 1922.95 517 1919M1630 1922C1634.71 1934.86 1640.81 1952.95 1633.2 1966.76C1628.99 1974.38 1612.05 1979.54 1605.1 1985.7C1588.49 2000.43 1576.08 2029.74 1578.11 2052C1579.69 2069.33 1601.42 2067.21 1609.16 2055.99C1624.71 2033.45 1635.75 1999.25 1636 1972C1658.71 1978.63 1682.81 2002.22 1670.68 2029C1666.2 2038.89 1655.63 2042.5 1650 2051C1682.12 2043.32 1684.54 1998.96 1663.64 1978.38C1658.23 1973.05 1641.59 1972.55 1638.9 1966.54C1633.14 1953.66 1649.55 1928.72 1630 1922M1247 1929C1250.56 1956.14 1244.5 1989.72 1232.83 2014C1228.03 2024 1223.47 2036.66 1211 2038.63C1201.04 2040.2 1192 2037.77 1184.38 2031.18C1180.33 2027.67 1178.65 2020.65 1173 2020C1181.23 2039.12 1208.33 2055.96 1225.48 2035.74C1243.35 2014.68 1248.71 1989.55 1249.01 1963C1249.1 1954.6 1256.24 1932.77 1247 1929M2004 1961C2008.39 1971.02 2006.69 1985.55 2003.83 1996C2003.36 1997.73 1999.89 2005.93 2003.12 2006.68C2006.06 2007.35 2007.64 1997.8 2008.14 1996C2010.42 1987.84 2017.45 1958.26 2004 1961M508 1969C507.294 1986.86 493.47 2028.05 480 2040C479.989 2032.5 474.74 2023.62 475.512 2017C476.973 2004.47 496.79 1974.32 508 1969M1629.71 1974.92C1635 1974.41 1629.92 1994.59 1629.01 1998C1625.19 2012.29 1612.92 2060.61 1594.92 2062.06C1579.05 2063.34 1579.94 2043.97 1582.96 2034C1589.07 2013.82 1604.51 1977.36 1629.71 1974.92M134 1987C139.731 1999.26 137.588 2034.32 129 2045C124.93 2027.61 123.641 2002.85 134 1987M1193 1988C1193.47 1993.03 1193.99 1997.93 1194 2003C1197.15 1998.77 1199.22 1990.19 1193 1988M1192 2006L1191 2010C1192.06 2008.35 1192.27 2007.91 1192 2006M473 2020C476.33 2029 477.117 2037.52 478 2047C463.601 2043.73 460.839 2028.43 473 2020M458 2081C455.485 2066.79 457.489 2053.71 461 2040C480.815 2048.71 474.109 2070.05 458 2081M475 2065C473.182 2070.42 470.185 2075.11 466 2079C466.95 2073.34 469.524 2067.43 475 2065z"/>
</svg>
