<?xml version="1.0" standalone="yes"?>
<svg xmlns="http://www.w3.org/2000/svg" width="2200" height="2200">
<path style="fill:#0e0e0e; stroke:none;" d="M1879 391L1879 394C1880.8 394 1880.52 393.986 1882 393L1879 391M88 990C104.448 978.522 102.201 945.537 116.601 931.685C122.253 926.249 138.491 926.004 146 926C141.911 917.1 121.315 925.851 120.735 921.146C120.215 916.934 126.96 907.105 129.11 903.32C137.32 888.87 145.539 874.429 153.799 860C155.818 856.474 165.997 842.85 161.195 839.106C158.933 837.342 141.732 868.635 139.083 873C124.782 896.56 115.005 921.65 103.915 946C97.6745 959.701 88.3567 974.512 88 990M852 842C853.419 845.958 855.324 847.982 859 850C871.745 827.276 903.159 855.391 903.951 873C904.715 889.999 894.227 901.769 877 903.554C872.622 904.008 861.897 897.569 859.461 903.362C852.098 920.872 855.484 952.488 857.562 971C857.823 973.328 855.713 995.359 860.521 993.239C865.422 991.078 862.774 976.009 862.313 972C860.438 955.714 857.35 926.82 862.501 911.156C864.424 905.309 872.544 909.403 877 908.667C883.748 907.552 897.706 901.675 902.457 896.694C919.227 879.111 902.132 842.933 881 837.709C870.367 835.08 861.814 842.51 852 842M498 846C492.467 870.501 496.541 892.753 493.761 917C492.883 924.659 481.333 937.082 492 941C492.382 924.203 515.979 908.209 529.776 921.24C543.98 934.654 543.259 963.369 532.882 978.951C528.769 985.127 508.542 991.299 502.808 984.396C503.141 984.797 500.207 961.776 496.766 977.952C492.795 996.623 526.275 992.53 534.016 984.998C550.638 968.827 550.587 923.762 526.922 913.265C515.319 908.118 508.446 914.544 498 918C502.992 901.113 495.67 880.77 498.301 863C499.09 857.674 505.451 848.62 498 846M1330.81 855.417C1309.43 860.282 1282.88 854.94 1260 857.32C1255.25 857.814 1239.78 856.316 1237.76 861.995C1236.39 865.863 1254.49 863.327 1257 863.051C1276.59 860.891 1307.05 855.73 1325.73 863.421C1331.07 865.618 1327.81 886.051 1331.69 884.653C1336.46 882.93 1335.23 854.411 1330.81 855.417M1926.63 863.544C1920.23 867.295 1924.57 888.938 1924.83 895C1926.12 926.017 1929 956.865 1929 988C1929 990.825 1928.69 1020.85 1934.06 1017.47C1936.87 1015.71 1933.02 1003.21 1933 1000C1932.94 988.865 1925.93 950.071 1933.04 942.042C1937.95 936.493 1961.59 936.714 1969 936.003C1972 935.714 1996.78 937.853 1994.24 931.799C1993.18 929.292 1983.42 930.827 1981 930.561C1968.59 929.198 1944.92 940.054 1934.28 933.722C1925.41 928.437 1928.82 888.735 1929.02 879C1929.05 877.312 1931.33 860.79 1926.63 863.544M1556 1020C1551.18 1008.35 1536.3 1005.7 1532.62 994.877C1530.35 988.209 1544.56 984.535 1549.04 984.935C1566.12 986.461 1582.72 981.902 1600 984.28C1604.21 984.859 1615.39 987.128 1618.74 983.74C1622.15 980.283 1617.9 970.672 1616.51 967C1610.11 950.115 1604.97 934.944 1602.08 917C1601.68 914.519 1601.67 897.895 1598.18 899.106C1591.97 901.261 1597.45 913.044 1597.87 917.003C1599.55 932.57 1602.71 947.528 1608.72 962C1610.2 965.567 1615.53 974.449 1612.77 978.171C1609.74 982.261 1595.48 978.305 1591 978.078C1577.76 977.408 1551.91 975.786 1540 981.083C1535.92 982.901 1525.82 988.69 1526.44 994.041C1527.1 999.72 1535.05 1004.59 1538.76 1008.32C1544.54 1014.13 1547.46 1018.74 1556 1020M105 1161C106.683 1179.07 98.4482 1205.02 104 1220C92.7112 1219.5 78.8153 1220.74 68 1218.15C65.8584 1217.64 57.4258 1213.53 56.1024 1216.71C54.5522 1220.42 63.5802 1224.25 66.0261 1224.49C80.431 1225.95 93.4707 1224.8 108 1227C108 1210.25 110 1194.03 110 1177C110 1171.85 111.097 1162.78 105 1161M543 1168C543 1192.79 546.177 1229.15 533.923 1251C520.686 1274.6 485.026 1298.1 480 1325C497.803 1314.9 511.372 1286.74 524.368 1271C527.268 1267.49 535.676 1253.39 540.742 1254.08C547.863 1255.06 555.225 1273.39 558.483 1279C567.398 1294.35 589.284 1325.18 607 1330C605.53 1317.68 582.986 1304.85 575.546 1295C565.713 1281.98 550.171 1264.48 544.963 1249C541.049 1237.37 545.915 1219.18 546 1207C546.055 1199.1 552.87 1170.89 543 1168M1995 1229C1968.37 1224.93 1969.7 1248.29 1951 1255C1956.88 1238.89 1955.52 1219.97 1957.22 1202C1958.01 1193.65 1962.03 1185.35 1960 1177C1944.47 1189.98 1950.88 1220.06 1947.74 1238C1946.79 1243.4 1942.51 1255.5 1944.87 1260.51C1946.82 1264.65 1956.17 1264.92 1959.73 1268.32C1966.94 1275.21 1972.49 1286.3 1977.17 1295.04C1983.73 1307.3 1994.59 1317.7 2000.46 1329.88C2001.45 1331.93 2006.76 1340.93 2010.02 1338.46C2014.27 1335.23 2001.1 1321.97 1999.21 1319.97C1988.41 1308.5 1983.69 1293.67 1974.53 1281C1970.73 1275.74 1961 1266.74 1959.56 1260.61C1957.5 1251.79 1989.27 1235 1995 1229M873 1205C868.55 1188.2 897.92 1186.58 906.594 1195.26C918.892 1207.57 914.345 1225.72 906.362 1238.97C904.451 1242.15 895.036 1248.17 896.721 1252.31C897.935 1255.29 914.474 1258.68 918 1260.07C926.688 1263.47 931.159 1272.4 933.455 1281C933.805 1282.31 935.223 1289.45 937.943 1286.89C954.406 1271.42 909.419 1253.51 907.816 1248.49C905.897 1242.48 917.812 1228.44 918.742 1221C922.608 1190.02 891.04 1172.72 869.069 1196.02C863.478 1201.95 863.923 1208.38 873 1205M1207 1301C1201.47 1289.17 1205 1269.95 1205 1257C1205 1233.93 1202.04 1208.72 1198 1186C1190.52 1190.65 1196.7 1203.46 1196.96 1211C1197.81 1235.8 1200 1260.11 1200 1285C1200 1289.75 1197.24 1311.12 1202.45 1313.24C1205.1 1314.32 1208.3 1306.36 1209.45 1304.7C1212.16 1300.78 1233.73 1272.77 1229.1 1269.54C1225.84 1267.27 1208.66 1297.16 1207 1301M1601 1220C1603.77 1272.31 1584.12 1324.81 1581 1377C1597.92 1369.39 1626.15 1329.02 1630 1311C1610.34 1318.54 1606.68 1356.02 1586 1364C1594.66 1319.82 1597.75 1275.21 1605 1231C1621.39 1250.52 1648.59 1230.93 1656 1210C1643.73 1213.33 1633.16 1239.56 1619 1236.68C1610.75 1235 1608.72 1223.3 1601 1220M63 1227C60.1183 1248.73 64.2277 1271.2 64.9596 1293C65.7566 1316.74 63.608 1341.64 66 1365C85.2474 1351.74 59.9562 1314.04 70.6979 1295.58C73.3762 1290.98 88.4619 1294.21 93 1294.19C99.5936 1294.17 105.341 1289.3 112 1290.94C125.949 1294.39 140.909 1305.78 155 1306C150.67 1296.1 118.534 1283.75 108 1285.33C99.0939 1286.66 79.174 1293.93 71.6034 1285.49C62.1276 1274.92 77.2002 1231.99 63 1227M1974 1236C1971.94 1241.27 1967.28 1244.49 1963 1248L1962 1247C1965.58 1242.44 1968.31 1237.88 1974 1236M968 1424C970.642 1427.53 973.473 1430.36 977 1433L978 1432C975.429 1427.84 973.062 1424.52 968 1424M1253 1590C1253.58 1614.71 1265.05 1638.54 1243.99 1658.96C1239.63 1663.19 1231.62 1669.97 1225 1669.12C1212.02 1667.47 1209.77 1653.96 1207.15 1644C1200.51 1618.76 1210.08 1578.81 1230.09 1561.19C1234.66 1557.16 1241.66 1552.51 1247.94 1555.17C1250.34 1556.19 1258.09 1566.8 1260.68 1563.9C1264.99 1559.11 1254.29 1552.11 1251 1550.96C1235.17 1545.41 1222.98 1559.98 1216.03 1572C1201.52 1597.09 1184.42 1683.94 1238 1675.47C1260.5 1671.92 1263.32 1628.73 1261.44 1612C1260.55 1604.08 1261.87 1593.66 1253 1590M1555 1721C1552.74 1718.4 1552.22 1716.42 1552 1713C1544.85 1718.76 1550.78 1725.8 1551 1733C1562.96 1725.48 1562.24 1702.39 1563.14 1690C1565.4 1658.88 1570.55 1626.21 1578.08 1596C1579.81 1589.07 1579.23 1571.56 1584.6 1566.94C1589.11 1563.06 1599.46 1565 1605 1565C1624.04 1565 1643.93 1570.2 1662 1568C1655.06 1585.96 1658.89 1601.51 1657.76 1619C1657.09 1629.36 1652.64 1637.59 1653 1648C1667.43 1641.35 1670.19 1598.37 1670.92 1584C1671.17 1579.12 1673.14 1566.9 1668.5 1563.75C1660.75 1558.49 1644.6 1563.28 1636 1562.01C1624.42 1560.3 1591.75 1553.92 1581.52 1560.46C1576.09 1563.93 1573.73 1592.11 1572.22 1599C1563.64 1638.25 1556.42 1680.85 1555 1721M94 1680C103.094 1676.23 104.775 1659.46 107.628 1651C116.871 1623.58 133.716 1597.14 140 1569L142 1569C143.837 1577.69 153.958 1599.76 163 1602C161.893 1595.71 146.711 1560.8 139.307 1564.41C132.36 1567.79 129.632 1585.29 126.7 1592C114.69 1619.49 98.2965 1650.03 94 1680M1898 1734C1904.63 1727.66 1906.63 1713.65 1909.71 1705C1922.4 1669.35 1915.62 1624.59 1933.72 1591.08C1945.03 1570.12 1978.2 1573.78 1976 1600C1987.18 1592.13 1976.66 1577.51 1967 1574.09C1955.48 1570 1942.61 1577.54 1933 1583C1933.43 1580.92 1937.72 1566.06 1931.4 1568.11C1924.61 1570.31 1925.52 1599.35 1923.88 1606C1916.53 1635.72 1915.5 1666.15 1908.45 1695.78C1905.46 1708.37 1894.64 1720.51 1898 1734M856 1573C844.248 1607.97 846.449 1647.04 840.46 1683C839.75 1687.26 831.38 1717 837.8 1717C842.217 1717 843.676 1690.97 844.478 1687C846.205 1678.46 845.789 1654.74 851.814 1648.82C854.489 1646.19 895.518 1639.37 896.74 1640.83C901.568 1646.6 897.065 1662.99 897 1670C906.893 1662.77 907.003 1630.68 907 1619C906.999 1615.25 908.258 1604.3 902.909 1603.3C901.053 1602.96 897.796 1614.85 897.623 1617.2C897.294 1621.64 900.804 1628.45 897.171 1632.18C892.954 1636.51 856.151 1646.41 852.256 1641.06C850.164 1638.19 853.151 1626.65 853.562 1623C854.964 1610.55 861.467 1584.14 856 1573M1664 1576C1663.64 1578.03 1663.48 1578.64 1662 1580C1662.51 1578.05 1662.73 1577.54 1664 1576M503.688 1579.76C501.233 1581.08 506.342 1590.85 506.878 1593C509.891 1605.06 515.292 1616.36 521.611 1627C523.107 1629.52 526.374 1637.13 530.371 1635.46C535.695 1633.22 549.055 1603.64 545.821 1603.64C539.221 1603.64 538.248 1629.31 528.245 1626.36C518.458 1623.47 513.054 1597.43 510.569 1589.08C510.078 1587.43 506.22 1578.4 503.688 1579.76M499 1583C491.301 1611.07 493.355 1642.07 493.007 1671C492.905 1679.48 487.537 1694.1 495 1700C504.95 1665.51 500.317 1618.91 501 1583L499 1583M1246 1664C1242.61 1668.04 1239.29 1670.36 1234 1671C1237.1 1667.36 1241.4 1665.15 1246 1664M1196 1778C1186.05 1767.77 1180.65 1777.45 1196 1778M1941 1890C1932.49 1895.5 1933.4 1908.96 1931.92 1918C1927.38 1945.79 1929.15 1974.88 1926.87 2003C1926.32 2009.86 1921.88 2032.05 1926.82 2037.07C1934.88 2045.23 1960.26 2044.42 1971 2045.09C1988.42 2046.16 2004.59 2056.35 2021 2061.3C2026.97 2063.1 2036.53 2062.87 2041.4 2067.03C2051.19 2075.41 2034.34 2090.98 2041.16 2099.03C2042.6 2100.74 2053.09 2072.6 2049.18 2065.73C2044.17 2056.94 2022.77 2062.59 2019.14 2051.76C2015.6 2041.2 2029.51 2016.19 2021.87 2008.11C2018.98 2005.05 2017.93 2014.93 2017.8 2016C2017.12 2021.88 2017.45 2047.92 2011.72 2049.85C2004.58 2052.25 1993.44 2045.4 1987 2042.9C1970.94 2036.67 1945.75 2044.44 1931.64 2032.78C1925.89 2028.03 1930.58 2002.95 1931.22 1996C1934.45 1960.53 1937.56 1925.43 1941 1890M111 2009L120 2009L120 2007L116 2008C117.489 1983.12 121.607 1934.02 154 1929.58C160.941 1928.62 169.355 1934.25 176 1936C173.281 1915.81 141.677 1925.52 132.447 1934.6C113.6 1953.14 115.631 1985.38 111 2009M872 2070C879.76 2066.9 885.269 2047.56 889.259 2040C904.179 2011.74 923.875 1985.46 938 1957C924.45 1954.57 907.946 1942.74 896 1935.68C893.477 1934.19 884.626 1925.07 881.833 1926.6C877.81 1928.81 887.642 1935.8 889.118 1936.8C896.817 1942.01 926.67 1951.9 927.233 1962.16C927.726 1971.12 914.613 1985.67 910.024 1993C897.21 2013.46 873.102 2045.41 872 2070M484 1939C486.743 1958.68 531.303 1939.54 538.74 1947.9C543.087 1952.78 538.931 1965.48 537.937 1971C534.062 1992.54 535.91 2013.57 533.68 2035C533.198 2039.64 528.699 2058.47 532.2 2061.59C536.323 2065.27 538.309 2040.58 538.425 2038C539.483 2014.49 538.526 1991.21 543.738 1968C544.952 1962.59 542.77 1949.55 549.148 1947.43C553.324 1946.04 564.76 1950.88 567.332 1946.24C570.604 1940.34 549.952 1938.57 547.019 1938.32C538.605 1937.6 527.826 1943.06 519 1943.84C507.635 1944.86 495.07 1941.35 484 1939M1209 1998L1201 2001C1201.33 1984.9 1215.57 1956.77 1230 1949.07C1241.13 1943.13 1260.19 1942.19 1266.16 1956.43C1269.67 1964.83 1263.18 1985.87 1261.76 1995C1256.97 2025.75 1250.29 2057.82 1250 2089C1257.16 2086.48 1255.86 2067.62 1256 2061C1264.47 2074.1 1266.15 2085.85 1285 2082.94C1292.63 2081.77 1314.98 2067.29 1305 2059C1292.74 2085.01 1265.2 2082.4 1259.4 2054C1255.03 2032.6 1264.71 1996.37 1269.53 1975C1271.8 1964.96 1277.23 1952.32 1275 1942C1271.91 1945.48 1271.22 1949.59 1270 1954C1241.49 1927.02 1219.09 1944.04 1204.95 1976C1201.48 1983.85 1194.39 1991.74 1196.78 2000.96C1198.97 2009.46 1207.01 2003.16 1209 1998M1571 1950C1578.45 1965.61 1598.08 1983.6 1610.7 1995.72C1615.84 2000.66 1628.11 2004.59 1628.62 2013C1629.24 2023.27 1612.78 2031.15 1612 2043C1622.64 2039.18 1626.96 2017.8 1639.01 2017.8C1645.1 2017.8 1649.29 2025.96 1653.09 2029.68C1667.09 2043.41 1676.31 2057.49 1684.74 2072.07C1686.15 2074.52 1692.88 2070.92 1693.89 2069.32C1696.21 2065.69 1685.55 2056.76 1683.34 2054C1672.34 2040.23 1651.27 2027.51 1643.24 2012.37C1640.31 2006.85 1655.04 1991 1657 1985C1646.73 1985.74 1641.18 2008.42 1633.24 2006.36C1616.56 2002.02 1600.42 1976.97 1589.48 1964.87C1585.13 1960.06 1577.81 1949.78 1571 1950M187 1997C201.918 1995.66 198.647 1984.04 187 1997M404 2098C406.477 2089.01 394.274 2088.75 404 2098z"/>
</svg>
