<?xml version="1.0" standalone="yes"?>
<svg xmlns="http://www.w3.org/2000/svg" width="2200" height="2200">
<path style="fill:#0b0b0b; stroke:none;" d="M1948 180C1957.57 177.818 1961.58 164.612 1968 158C1967.19 180.771 1965.42 204.2 1967.14 227C1968.47 244.645 1973.1 264.471 1970 282C1982.09 278.501 1973.61 239.423 1972.44 229C1969.84 205.874 1976.46 179.739 1970.65 157.148C1968.71 149.595 1950.28 152.184 1944.94 145.476C1937.49 136.128 1945.15 111.287 1954.2 105.24C1960.85 100.794 1970.42 102 1978 102C1976.18 112.295 1977.63 123.675 1979 134C1983.39 130.918 1987.82 100.652 1984.17 96.8142C1977.22 89.5168 1956.39 96.0371 1950.19 101.507C1940.45 110.091 1930.59 139.467 1941.6 150.333C1945.11 153.806 1958.69 153.673 1959.63 158.483C1960.92 165.022 1950.49 174.217 1948 180M192 101C184.24 120.269 184.031 147.312 185.078 168C185.223 170.875 185.4 191.232 187.783 190.239C192.207 188.395 190 172.929 190 169C190 146.013 191.841 123.82 194 101L192 101M1304 184C1301.89 199.735 1296.85 220.887 1289.5 234.999C1286.5 240.761 1280.37 244.079 1278 250C1294.79 246.606 1294.68 227.956 1300.54 215C1318.45 175.406 1311.56 102.884 1252 113.352C1244.74 114.628 1224.6 131.653 1240.79 133.797C1241.67 133.913 1243.64 120.304 1253 118.545C1286.71 112.214 1310.87 142.643 1304.59 174.93C1302.49 185.735 1263.61 174.362 1265.28 182.385C1266.81 189.698 1298.43 184.841 1304 184M517 119C517.655 146.261 516.459 174.719 515.078 202C514.609 211.261 517.261 225.898 513.858 234.499C512.304 238.426 504.312 236.923 501 237.217C489.587 238.231 467.329 239.872 457.822 231.76C449.61 224.753 460.423 202.99 453 196C450.71 201.501 449.654 207.027 450.197 213C450.698 218.516 449.914 230.917 453.285 235.31C463.728 248.92 495.154 239.998 509 242.27C517.77 243.708 525.277 250.663 534.115 251.825C538.115 252.351 568.175 249.995 568.175 246C568.175 242.854 559.726 244.104 558 244.308C545.341 245.807 534.673 249.699 523.216 241.497C515.133 235.71 520 210.108 520 201C520 180.847 518.96 160.04 520.804 140C521.34 134.169 523.419 121.543 517 119M935 190C922.466 197.458 919.43 226.403 925 239C916.067 238.133 892.173 237.906 885.501 232.179C880.246 227.667 887.078 217.54 879.636 214.752C874.462 212.814 874.883 227.062 869.757 228.362C860.527 230.704 833.979 226.407 825.442 222.275C818.919 219.118 824.46 203.33 824.861 198C826.731 173.195 828.262 150.649 832 126C818.87 129.082 822.334 167.858 821.96 179C821.567 190.683 813.819 216.103 819.822 226.421C821.868 229.939 835.946 228.95 840 229.637C852.893 231.823 863.766 237.724 873.568 240.793C878.885 242.457 888.266 238.084 895 239.358C909.652 242.13 926.916 245.632 940.96 249.656C944.785 250.752 955.387 256.257 957.674 249.334C961.232 238.562 932 245.209 929.517 240.499C923.452 228.989 933.614 202.359 935 190M1663 212C1655.23 219.291 1628.4 241.472 1623.64 218.999C1621.73 209.977 1628.25 196.09 1630 187C1587.1 208.762 1594.57 157.857 1598 132C1589.72 135.436 1584 182.418 1590.82 189.005C1596.99 194.961 1617.47 193.164 1621.52 199.821C1626.98 208.777 1611.96 222.815 1625.5 231.624C1636.22 238.599 1667.27 225.501 1663 212M105.645 148.408C100.764 151.427 101.331 175.449 105.604 178.819C116.142 187.129 152.081 186.732 165 185.318C169.064 184.873 178.771 185.793 181.81 182.771C187.348 177.263 168.292 179.77 167 179.863C152.937 180.879 121.546 182.047 109.384 174.398C105.048 171.672 109.954 145.742 105.645 148.408M262 420C263.923 419.099 263.999 418.924 265 417C262.265 416.916 261.915 417.265 262 420M503 492C502.528 489.25 501.831 486.664 501 484C510.641 484.014 535.094 484.187 540.235 494.198C545.044 503.563 534.212 521.001 531.357 530C522.892 556.686 502.547 602.07 517.556 628.912C530.207 651.534 578.502 634.423 578 611C569.327 616.633 564.474 626.723 555 631.461C532.693 642.618 516.818 623.595 516.177 602.978C515.96 595.977 520.845 589.654 522.378 583C526.974 563.054 531.919 543.526 538.592 524C541.699 514.908 549.332 500.726 544.315 491.198C535.068 473.638 467.999 478.39 503 492M917 615C906.636 618.666 899.672 630.43 888 631.382C836.147 635.611 852.936 554.488 858.299 526C859.073 521.892 867.441 491.778 865.259 490.761C860.018 488.32 854.847 519.464 854.083 523C848.53 548.732 846.143 567.976 848.543 594C849.412 603.416 846.985 612.098 854.129 619.915C869.605 636.851 911.354 647.055 917 615M943.571 492.408C936.446 497.089 939.851 519.676 939.982 527C940.56 559.259 932 590.543 932 623C932 627.552 931.008 662.11 934.642 660.894C939.992 659.104 937 627.453 937 622C937 589.305 946.567 557.495 944.922 525C944.667 519.965 945.121 491.389 943.571 492.408M192 633C182.623 633 163.998 639.404 156.185 634.06C142.891 624.968 147.943 604.596 151.08 592C157.466 566.364 158.168 533.468 160 507L167 511C166.992 507.134 166.519 495.259 159.479 500.236C152.998 504.818 152.167 522.768 152.019 530C151.668 547.032 150.246 567.157 147.601 584C145.795 595.5 140.041 608.194 142.621 620C146.964 639.882 158.547 641.809 176 639.36C181.897 638.532 189.089 639.232 192 633M164 549C167.103 549.509 167.835 548.912 169 546C166.536 546.59 165.536 547.006 164 549M1622 1725C1632.59 1720.09 1636.28 1704.27 1647.22 1700.54C1652.21 1698.84 1682.09 1728.51 1684.17 1720.56C1686.97 1709.84 1651.9 1701.98 1657.11 1691.28C1666.67 1671.61 1695.83 1661.95 1704 1641C1680.48 1644.04 1672.12 1683.93 1650.65 1688.19C1646.2 1689.07 1641.49 1682.61 1638.56 1680.05C1629.68 1672.28 1618.6 1666.45 1608.96 1659.62C1604.92 1656.75 1586.04 1649.6 1585.12 1645.42C1583.41 1637.66 1602.1 1623.71 1607 1618.96C1616.3 1609.95 1625.94 1601.29 1634.96 1592C1637.46 1589.43 1641.92 1582.27 1646.22 1583.56C1660.02 1587.7 1680.25 1612.26 1689.66 1623C1692.18 1625.87 1699.95 1639.01 1704.77 1633.8C1708.69 1629.55 1697.52 1620.83 1694.87 1618.04C1684.61 1607.27 1672.88 1597.69 1661.86 1587.7C1658.81 1584.94 1650.44 1579.82 1652.35 1574.78C1657.12 1562.19 1677.59 1546.53 1686.99 1537C1688.92 1535.04 1699.79 1526.1 1698.24 1522.98C1696.11 1518.7 1681.57 1534.42 1680.02 1536C1672.42 1543.76 1656.91 1569 1645.68 1570.47C1637.83 1571.5 1619.61 1554.68 1613 1550.14C1611.27 1548.95 1603.54 1543.12 1602.11 1547.35C1598.71 1557.38 1639.3 1567.27 1638.91 1578.65C1638.69 1585.32 1625.57 1594.21 1621 1598.14C1607.68 1609.61 1573.61 1633.18 1571.32 1651.71C1571.1 1653.46 1586.67 1655.21 1590 1656.95C1603.8 1664.18 1635.03 1678.51 1642 1692.9C1646.24 1701.66 1617.64 1711.42 1622 1725M1906 1523C1907.67 1529.53 1915.68 1533.37 1921 1536.89C1934.91 1546.07 1947.39 1558.01 1962 1566C1943.51 1579.27 1927.14 1600.38 1912.82 1618C1911.52 1619.6 1895.63 1640.1 1903.19 1638.92C1908.59 1638.07 1914.98 1624.11 1918.3 1620C1927.25 1608.95 1951.25 1572.32 1966 1571.45C1972.87 1571.04 1982.76 1581.14 1988 1584.98C1992.41 1588.21 2000.01 1592.11 2002.98 1596.73C2005.97 1601.39 1997.51 1609.75 1994.78 1613C1982.83 1627.21 1971.97 1642.33 1960.56 1657C1958.7 1659.4 1945.78 1673.75 1950.85 1676.46C1956.68 1679.57 1963.3 1663.46 1965.47 1660.14C1975.58 1644.7 1988.28 1630.65 1999.5 1616C2001.92 1612.84 2007.38 1602.77 2012.12 1603.72C2024.69 1606.23 2042.17 1627.2 2051 1636C2054.02 1639.01 2061.75 1644.09 2060.41 1649.08C2056.39 1664.08 2033.27 1684.03 2023.33 1696.28C2020.77 1699.43 2002.2 1727.65 2009.24 1726.68C2014.93 1725.89 2019.89 1712.49 2022.43 1708.02C2031.93 1691.34 2046.05 1676.45 2058.58 1662C2061.27 1658.9 2075.35 1647.94 2073.89 1643.67C2073.1 1641.35 2065.07 1637.96 2063 1635.97C2052.61 1626 2042.44 1616.79 2031 1608.06C2027.57 1605.45 2017.7 1599.57 2017.64 1594.78C2017.57 1590.05 2024.75 1583.4 2027.51 1579.79C2036.95 1567.41 2046.57 1555.23 2056.22 1543C2058.19 1540.51 2070.29 1528.81 2066.71 1525.41C2063.2 1522.07 2053.67 1536.78 2052.07 1539C2042.33 1552.47 2031.95 1566.14 2021.44 1579C2018.49 1582.61 2013.65 1591.16 2008 1589.64C2003.19 1588.34 1998.91 1583.01 1995 1580.09C1990.32 1576.61 1974.84 1570.12 1974.08 1563.9C1973.19 1556.61 1994.73 1538.11 2000 1533.08C2001.53 1531.62 2010.64 1525.47 2009.24 1522.89C2007.06 1518.87 1991.07 1534.17 1989.48 1536C1984.3 1541.96 1974.86 1557.33 1966.78 1558.76C1960.93 1559.79 1951.11 1550.29 1947 1546.81C1935.76 1537.26 1921.06 1525.08 1906 1523M481 1568C472.236 1599.49 451.976 1632.33 439.455 1663C435.455 1672.8 425.199 1687.97 427.465 1698.95C429.466 1708.65 444.393 1708.74 452 1709.04C475.183 1709.94 498.814 1718.44 522 1721.34C528.165 1722.11 542.043 1726.83 546.877 1721.26C554.903 1712 545.538 1691.5 544.328 1681C542.807 1667.8 543.334 1654.29 541.952 1641C541.567 1637.3 543.486 1630.13 539.499 1627.94C531.48 1623.54 518.705 1632.78 511.001 1634.72C505.722 1636.05 493.772 1636.84 490.027 1640.82C485.192 1645.95 475.208 1683.82 484.046 1685.89C489.262 1687.12 490.988 1654.63 494.605 1649.07C498.181 1643.56 523.377 1635.75 529.97 1635.16C540.631 1634.21 537.61 1672.71 538.137 1680C538.728 1688.18 546.683 1705.68 542.491 1712.72C539.412 1717.88 529.924 1716.07 525 1715.42C509.235 1713.33 494.345 1710.73 479 1706.61C470.979 1704.46 433.966 1705.38 433.599 1694.9C433.282 1685.85 441.723 1673.35 445.019 1665C453.288 1644.06 460.617 1622.53 469.828 1602C474.729 1591.08 483.496 1580.27 484 1568L481 1568M228 1671C231.574 1650.47 198.1 1669.81 194.197 1659.56C191.151 1651.56 201.927 1623.67 205.809 1616C207.225 1613.21 216.378 1605.15 214.776 1602.82C211.852 1598.56 200.712 1596.25 196 1594.41C172.741 1585.33 146.526 1587.81 122 1587.04C115.071 1586.82 96.461 1585.71 92.4076 1592.64C91.1692 1594.75 113.361 1593 118 1593C140.713 1593 159.406 1590.19 182 1596.25C187.056 1597.61 198.994 1599.44 201.701 1604.45C204.173 1609.03 198.182 1615.93 196.557 1620C192.72 1629.62 192.132 1662.97 179.973 1664.79C172.691 1665.89 130.643 1661.85 129.426 1670.92C128.773 1675.79 139.707 1673.3 142 1673.14C148.607 1672.67 178.627 1667.24 182.701 1671.96C185.764 1675.5 183.457 1686.65 183.134 1691C182.124 1704.56 177.709 1725.89 180.759 1738.86C182.894 1747.94 228.161 1744.8 228.03 1742.91C227.143 1730.1 193.7 1742.49 188.338 1735.18C186.146 1732.19 187.997 1724.58 188 1721C188.01 1710.17 184.784 1677.52 194.499 1670.34C202.432 1664.48 219.507 1668.37 228 1671M1208.19 1589.4C1200.47 1592.91 1196.13 1607.95 1192.33 1615C1184.03 1630.43 1176.62 1652.59 1183.06 1670C1191.54 1692.92 1229 1699.72 1249.78 1692.03C1259.29 1688.51 1267.4 1681.98 1274.8 1675.17C1280.05 1670.34 1282.45 1663.63 1286.7 1658C1311.39 1625.31 1273.05 1614.48 1247 1618.66C1241.57 1619.53 1230.83 1619.3 1226.6 1622.94C1222.73 1626.28 1222.8 1635.26 1221.39 1640C1220.01 1644.65 1216.54 1651.82 1218.3 1656.7C1219.69 1660.57 1223.44 1658.76 1224.58 1655.85C1227.63 1648.14 1226.73 1633.27 1234.24 1628.3C1246.85 1619.97 1283.5 1616.4 1287.63 1636C1289.66 1645.62 1280.8 1658.26 1275.3 1665.66C1257.06 1690.19 1196.11 1703.85 1187.03 1663.08C1183.69 1648.09 1194.89 1606.58 1208.5 1598.08C1213.24 1595.12 1227.33 1598.74 1233 1599.14C1240.08 1599.63 1281.28 1605.34 1281.21 1598.08C1281.15 1592.51 1269.87 1593.41 1266 1593.14C1251.62 1592.12 1237.4 1592.85 1223 1592.02C1218.8 1591.78 1211.89 1587.71 1208.19 1589.4M820 1614C825.215 1622.2 840.39 1619.42 849 1620.32C874.087 1622.94 904.367 1624.8 928 1632C928.685 1616.64 912.693 1622.8 902 1621.68C876.717 1619.03 845.233 1606.72 820 1614M920 1631C907.149 1643.57 906.653 1687.4 907.048 1705C907.211 1712.27 910.429 1722.86 907.06 1729.72C904.653 1734.61 895.535 1733.05 891 1733.56C878.73 1734.94 855.31 1731.68 845.649 1741.2C839.462 1747.29 855.35 1744.76 857 1744.48C872.992 1741.79 889.819 1741.51 906 1740C901.304 1752.18 900.886 1772.68 899.941 1786C899.812 1787.81 898.316 1804.45 904.208 1798.35C915.052 1787.13 903.508 1755.73 914.126 1743.5C919.821 1736.94 961.153 1742.24 961.351 1733.92C961.58 1724.3 919.586 1739.31 914.822 1730.5C905.807 1713.83 916.129 1673.2 918.325 1655C919.201 1647.75 923.586 1637.79 920 1631M1607 2029C1605.7 2031.12 1604.33 2033.07 1602.79 2035.02C1587.97 2053.8 1614.28 2033.72 1616.12 2033.67C1625.55 2033.37 1634.46 2046.47 1643.67 2045.18C1656.66 2043.35 1623.94 2028.11 1620 2027C1627.68 2019.47 1635.18 2010.04 1644 2003.91C1647.15 2001.72 1654.78 2000.34 1655.46 1995.9C1656.1 1991.65 1649.09 1986.22 1646.78 1983.04C1640.72 1974.7 1622.9 1944.18 1613 1946C1617.36 1931.81 1623.39 1918.11 1628.12 1904C1628.73 1902.19 1633.34 1889.42 1628.06 1890.32C1624.26 1890.97 1622.71 1900 1621.82 1903C1618.29 1914.89 1615.26 1930.42 1608.31 1940.79C1602.81 1949 1577.26 1946 1568 1946C1563.55 1946 1532.51 1944.02 1534.11 1949.65C1535.51 1954.61 1545.37 1952.62 1549 1952.66C1556.9 1952.73 1596.29 1946.77 1600.22 1954.06C1602.71 1958.7 1596.5 1968.6 1595.06 1973C1589.02 1991.51 1581.62 2025.64 1607 2029M906 1906C897.411 1927.91 889.528 1951.92 877.136 1972C858.302 2002.52 834.239 2029.69 830.322 2067C828.293 2086.33 874.574 2070.14 885 2070.01C890.922 2069.93 901.613 2071.24 905.517 2065.72C911.867 2056.73 906.139 2044.07 903.369 2035C897.592 2016.09 888.416 1991.58 887.483 1972C886.927 1960.32 904.356 1955.96 904.357 1947.43C904.357 1943.8 895.065 1950.36 894 1951C897.047 1941.16 904.791 1911.7 913.996 1906.7C924.882 1900.8 936.59 1914.6 944 1901C929.09 1896.94 914.219 1898.06 899 1899.14C895.362 1899.39 886.463 1898.78 883.969 1901.81C877.674 1909.45 903.524 1906.15 906 1906M1205 2071C1219.08 2062.89 1209.83 2032.12 1225.28 2024.82C1230.24 2022.47 1256.69 2021.57 1259.02 2027.46C1261.36 2033.37 1254.87 2044.98 1253.61 2051C1253 2053.9 1246.95 2072.55 1252.97 2071.68C1260.38 2070.6 1260.36 2051.44 1262.12 2046C1263.67 2041.2 1264.08 2034.53 1267.24 2030.48C1269.57 2027.49 1275.5 2027.28 1276.11 2022.96C1276.59 2019.59 1272.15 2019.55 1271.84 2016.59C1271.16 2010.01 1279.74 1986.84 1283.78 1981.63C1290.64 1972.81 1327.86 1978.42 1329.03 1971.03C1330.76 1960.14 1288.37 1969.71 1286.15 1968.22C1275.69 1961.17 1267.68 1939.41 1263.08 1928C1261.7 1924.55 1259.63 1913.23 1256.42 1911.54C1256.48 1911.57 1235.67 1915.09 1233 1915.48C1228.9 1916.08 1220.91 1915.3 1217.51 1917.46C1207.9 1923.55 1246.4 1919.56 1246.35 1925.15C1246.27 1935.61 1237.66 1948.53 1233.97 1958.22C1224.2 1983.8 1217.37 2011.59 1211.11 2038C1208.55 2048.81 1202.77 2059.6 1205 2071M1937 1963C1927.78 1961.36 1916.71 1952.54 1907.14 1957.61C1901.3 1960.69 1899.01 1970.39 1896.16 1975.92C1887.39 1992.98 1878.99 2022.15 1909 2025.73C1924.52 2027.58 1934.01 2014.21 1945 2006C1944.04 2012.77 1943.02 2018.25 1944.91 2025C1956.71 2067.26 2006.01 2030.42 2006 2001C2006 1990.02 2003.26 1978.83 1991 1976C1996.47 1967.08 2006.28 1960.97 2008.46 1950C2019.55 1894.03 1924.92 1907.74 1937 1963M1968 1919.51C2006.4 1910.71 2014.61 1964.28 1980 1972.48C1973.46 1974.03 1961.07 1976.27 1955 1973.15C1930.19 1960.43 1945.45 1924.68 1968 1919.51M1255 1924C1260.41 1938.76 1277.51 1959.42 1279.21 1974C1279.91 1980.07 1274.76 1988.09 1273.21 1994C1271.64 1999.95 1268.68 2014.31 1262.45 2017.1C1254.8 2020.52 1233.06 2017.96 1224 2018C1228.47 1984.67 1243.99 1955.71 1253 1924L1255 1924M519.432 1947.25C485.915 1967.72 449.937 1974.14 437.185 2019C422.155 2071.87 484.54 2104.91 527.864 2080.28C561.677 2061.05 578.664 2020.16 571.483 1982C568.693 1967.17 536.526 1936.81 519.432 1947.25M1615 1951C1619.18 1967.53 1639.35 1977.13 1643.54 1992.88C1645.45 2000.05 1615.63 2026.11 1607.99 2023.62C1605.01 2022.64 1597.04 2020.13 1595.51 2017.23C1594.04 2014.41 1596.93 2004.47 1597.33 2001C1598.93 1987.11 1600.13 1957.09 1615 1951M523 1954.62C545.239 1948.96 566.581 1975.27 566.981 1995C567.688 2029.83 552.048 2069.5 515 2078.61C478.64 2087.56 425.829 2066.45 442.679 2020C456.443 1982.06 485.362 1964.21 523 1954.62M108 2025C116.467 2037.13 133.803 2025.67 142.1 2034.01C148.281 2040.22 139.188 2073.81 137.438 2082C136.876 2084.63 134.065 2096.83 140.033 2095.92C145.704 2095.05 143.898 2084.81 144.328 2081C145.568 2070.04 144.694 2043.15 151.241 2034.54C155.734 2028.64 180.242 2032.91 187 2033.69C192.012 2034.26 202.386 2033.2 206.44 2036.26C210.525 2039.34 205.586 2048.42 204.209 2052C198.622 2066.5 191.674 2082.39 190.152 2098C189.704 2102.6 185.555 2114.95 192.148 2116.56C198.053 2118 207.833 2111.54 214 2110.52C222.095 2109.17 237.06 2114.64 243.643 2111.53C248.959 2109.01 250.907 2096.21 251.639 2091C254.55 2070.26 254.187 2049.55 258.938 2029C262.21 2014.85 268.479 1998.33 269.008 1984C269.15 1980.17 271.622 1972.23 268.178 1969.38C262.833 1964.95 249.48 1967 243 1967C221.832 1967 200.001 1968.04 179 1965.56C172.366 1964.78 156.505 1959.21 150.824 1963.61C147.756 1965.98 149.273 1973.52 148.839 1977C147.545 1987.39 149.679 2016.82 142.186 2024.18C135.714 2030.54 116.591 2023.16 108 2025M1917 1962.59C1953.72 1957.52 1947.59 2014.73 1915 2019.54C1879.62 2024.76 1893.08 1965.88 1917 1962.59M158.501 1970.94C163.255 1968.93 173.653 1972.82 179 1972.99C198.805 1973.61 219.266 1972.46 239 1974.22C243.855 1974.65 259.655 1972.82 262.16 1977.6C267.774 1988.34 254.099 2020.92 252.287 2033C249.643 2050.64 248.567 2068.44 245.755 2086C244.998 2090.72 245.155 2100.57 239.654 2102.5C234.227 2104.4 226.697 2102.85 221 2103.04C214.395 2103.26 203.556 2108.62 197.504 2106.47C192.442 2104.68 196.898 2090.64 197.827 2087C201.72 2071.73 209.078 2057.97 213.637 2043C214.706 2039.49 218.904 2031.63 215.835 2028.32C204.374 2015.96 163.231 2036.87 151.281 2023.76C148.884 2021.13 151.684 2015.09 151.904 2012C152.412 2004.84 150.94 1974.13 158.501 1970.94M1949 1976C1951.21 1978.31 1952.3 1979.89 1953 1983C1949.21 1982.11 1948.58 1979.7 1949 1976M878.88 1980.64C883.134 1980.64 885.495 1993.78 886.718 1997.08C891.767 2010.68 892.742 2026.09 897.483 2040C899.411 2045.66 903.777 2053.38 901.496 2059.54C899.926 2063.78 891.714 2063.73 888 2063.92C873.088 2064.69 856.789 2070.42 842.032 2069.29C832.1 2068.53 839.248 2052.63 840.757 2047C845.579 2029.01 855.955 2009.13 867.202 1994.32C869.69 1991.04 874.188 1980.64 878.88 1980.64M1979 1980.48C1997.77 1977.05 2000.01 1996.32 1999.44 2010C1998.89 2023.29 1984.63 2034.95 1972 2037.04C1951.6 2040.4 1947.58 2014.46 1951.66 2000C1956.04 1984.45 1964.87 1983.07 1979 1980.48z"/>
</svg>
