<?xml version="1.0" standalone="yes"?>
<svg xmlns="http://www.w3.org/2000/svg" width="2200" height="2200">
<path style="fill:#0d0d0d; stroke:none;" d="M1555 231C1563.14 224.615 1559.71 216.624 1559.71 208C1559.71 191.33 1560.28 172.365 1564 156C1564.96 151.77 1563.31 142.152 1566.82 139.257C1571.3 135.558 1584.34 136.364 1590 136.078C1632.99 133.904 1634 174.982 1634 207C1634 214.029 1630.88 232.135 1636.61 237.178C1642.29 242.18 1672 241.644 1674.34 232.598C1675.02 229.984 1676.5 208.361 1672.71 210.544C1664.16 215.472 1675.16 229.912 1661.68 234.054C1649.79 237.705 1641.57 229.105 1640.2 218C1636.66 189.541 1647.71 152.903 1618.08 134.965C1607.14 128.344 1595.05 130.373 1583 131.022C1578.94 131.24 1570.31 133.915 1567.26 130.178C1560.98 122.485 1567.38 91.5823 1568.57 82C1568.97 78.7483 1572.57 67.7407 1567.8 66.6494C1561.42 65.1868 1563 77.6846 1563 81C1563 90.8625 1565.52 125.709 1558.5 132.256C1549.07 141.048 1509.7 131.877 1504.76 147.19C1502.95 152.798 1515.39 147.7 1517 147.264C1524.8 145.153 1554.64 132.877 1559.18 143.148C1562.3 150.221 1557.9 163.521 1556.86 171C1554.47 188.174 1550.75 214.2 1555 231M522 70.5564C510.716 72.0186 499.401 73.5764 488 73.9597C480.931 74.1975 474.035 74.5896 467 75.4363C463.93 75.8057 431.523 78.417 437.892 83.7437C441.833 87.0398 456.12 83.6526 461 83.0581C480.712 80.656 505.34 73.7102 525.078 76.3706C533.16 77.46 553.312 81.4995 560.292 75.7622C564.539 72.2717 556.105 70.1653 553.997 70.0513C544.133 69.5176 531.72 69.2969 522 70.5564M485 88C471.059 92.0364 484.203 117.851 480.74 127.577C478.776 133.093 463.074 135.202 458 136.706C455.641 137.405 442.619 140.479 444.106 144.299C447.031 151.815 475.34 130.084 480.178 138.544C484.975 146.932 480.576 168.726 479.279 178C478.869 180.931 475.86 189.851 480.169 191.136C484.745 192.5 486.271 184.91 485.654 182C483.42 171.467 480.091 137.92 493.03 133.508C503.264 130.017 553.348 123.166 557.114 136.062C559.959 145.806 548.391 178.524 557.692 184.592C562.84 187.951 562.992 176.204 562.999 174C563.037 161.579 566.076 143.884 562.278 132.044C554.354 107.341 501.909 135.68 487.501 126.662C479.839 121.866 484.854 95.6831 485 88M1254 108.497C1243.18 110.298 1233.08 112.784 1222 113.019C1215.31 113.16 1208.71 113.966 1202 114.002C1198.4 114.022 1170.13 118.951 1176.53 121.886C1182.14 124.458 1192.04 120.558 1198 120.136C1216.53 118.824 1235.52 116 1254 116C1259.23 116 1277.16 118.82 1279.99 113.348C1283.4 106.77 1257.31 107.946 1254 108.497M1987 114.438C1967.21 116.644 1946.89 114.326 1927 115.041C1923.99 115.149 1908.4 116.268 1910.11 121.625C1911.74 126.78 1926.41 121.351 1930 121.096C1945.83 119.974 1962.05 120.868 1977.92 120.461C1982.22 120.35 1991.64 121.932 1995.17 119.491C2001.6 115.037 1989 114.216 1987 114.438M190 129C185.913 145.347 185.139 167.147 186.129 184C186.577 191.638 189.064 208.236 185.042 214.871C176.923 228.264 130.37 229.119 116 230C116.205 228.74 117.651 222.639 114.992 222.643C112.705 222.646 113.034 229.705 110.435 228.357C107.439 226.803 108.041 214.064 108.008 211C107.814 193.493 110.329 175.414 108.783 158C108.488 154.687 106.8 128.185 103.068 132.892C100.495 136.136 104.988 151.324 104.999 156C105.052 178.333 104.881 200.667 105.003 223C105.031 228.275 109.146 246.681 115 234C132.52 238.433 157.694 231.63 175 227.738C180.501 226.501 190.408 225.766 193.644 220.318C199.489 210.476 192.12 178.456 193.129 166C193.91 156.354 192.138 144.238 195.523 135.104C196.884 131.431 203.486 127.252 199.737 122.84C196.632 119.186 186.786 124.55 183 125.432C166.576 129.259 148.792 134.559 132 135.868C128.223 136.163 114.811 133.622 112.408 136.24C107.004 142.127 137.207 140.689 140.001 139.907C146.226 138.164 152.751 137.542 159 135.808C169.335 132.939 179.415 130.891 190 129M848 126.656C845.061 126.728 816.927 130.433 821.106 134.784C824.269 138.078 838.53 134.011 843 134.001C861.653 133.956 880.297 135.912 899 134.921C902.389 134.742 914.876 134.385 916.239 130.647C918.287 125.026 896.696 127.993 894 127.999C887.678 128.014 881.291 128.27 875 127.562C866.225 126.574 856.83 126.438 848 126.656M1186 146C1213.27 152.792 1244.6 138.718 1273 143.813C1280.68 145.192 1294.4 148.016 1298 139C1271.23 139.103 1244.79 138.827 1218 138.998C1209.05 139.054 1191.46 137.983 1186 146M2020 136C1992.47 136.041 1965.08 139.639 1938 144.368C1934.9 144.909 1911.46 147.002 1912.86 150.524C1914.56 154.794 1934.25 151.114 1938 150.528C1957.31 147.516 1976.33 143.128 1996 143.002C2004.21 142.95 2015.22 143.827 2020 136M178.948 167.806C162.06 166.094 140.924 174.213 124 176.339C121.66 176.633 106.433 180.023 113.634 184.528C117.228 186.777 125.047 183.284 129 182.72C142.928 180.734 168.979 180.606 180.83 175.476C185.663 173.385 183.308 168.248 178.948 167.806M2003 173.439C1986.82 175.298 1970.28 177.412 1954 177.96C1943.4 178.317 1933.17 179.261 1922.78 181.462C1917.39 182.605 1882.32 181.535 1882.92 188.984C1883.27 193.169 1907.99 189.342 1911.86 188.793C1942.79 184.407 1973.63 181.007 2005 181C2012.45 180.998 2039.03 185.792 2041.65 178.919C2045.08 169.908 2009.01 172.748 2003 173.439M588 200C585.213 189.075 577.288 191.792 568 193.277C541.335 197.538 512.322 189.598 487 195.35C482.618 196.345 462.424 197.269 460.544 200.792C456 209.307 486.595 201.475 489 201.099C502.989 198.912 516.936 203.729 531 203.981C550.039 204.322 568.918 200 588 200M225.947 432.441C219.169 433.486 228.55 453.597 229.999 457.783C239.365 484.839 246.745 511.755 251.607 540C252.384 544.515 254.33 569.63 260.841 568.677C269.545 567.402 259.239 547.412 258.239 543C251.929 515.137 246.08 488.204 237.408 461C235.987 456.54 231.792 431.54 225.947 432.441M187.933 440.441C179.89 441.793 191.696 463.545 192.736 468C199.513 497.03 211.913 524.728 221.337 553C222.903 557.699 228.172 584.684 234.735 582.894C242.561 580.76 231.092 560.623 229.632 555.997C220.484 527.014 208.304 499.293 200.275 470C199.054 465.545 194.841 439.28 187.933 440.441M153.14 447.544C146.834 448.617 152.676 475.565 153.673 480C160.547 510.557 164.983 541.574 171.561 572C172.467 576.188 173.872 600.874 180.9 598.894C186.557 597.301 178.848 575.551 177.579 571.078C169.238 541.671 166.009 510.07 159.438 480C158.566 476.009 155.557 447.132 153.14 447.544M115.379 456.408C108.47 460.547 114.242 479.955 115.965 486C124.406 515.616 136.521 544.298 140.691 575C141.257 579.168 144.616 606.386 151.665 602.592C158.769 598.769 147.936 582.208 147 576C142.496 546.134 130.979 517.174 123.299 488C122.095 483.429 117.596 455.079 115.379 456.408M441 474C446.181 479.836 459.236 475.224 466 474.001C483.46 470.842 515.501 459.609 532.708 465.509C538.616 467.535 533.939 480.754 533.122 485C529.301 504.841 524.923 524.863 522.875 545C522.478 548.901 517.019 563.752 521.811 566.049C528.415 569.215 528.534 549.569 528.864 546C531.049 522.355 536.177 499.178 541.34 476C542.535 470.632 553.443 460.33 552.695 457.508C551.743 453.912 529.842 458.129 526 458.562C498.278 461.684 467.525 464.572 441 474M821 530C824.437 520.001 829.796 528.08 837.078 527.336C847.885 526.233 856.468 522.619 863.416 513.997C899.151 469.651 824.594 432.66 811.831 485C810.308 491.243 811.011 500.686 812.163 507C813.342 513.469 815.512 526.241 821 530M835 507C830.913 503.375 825.239 465.003 831.647 465.003C838.585 465.003 835.093 502.095 835 507M845 506C842.575 501.789 838.846 463.987 843.778 464.783C849.23 465.663 845.47 501.059 845 506M867 494L865 494C864.75 491.323 864.395 488.664 864.056 485.996C860.096 454.842 855.349 497.516 852 504C850.946 497.466 847.483 472.094 851.601 466.984C861.116 455.177 867.381 489.891 867 494M64 472C66.352 471.99 66.6139 471.895 68 470C66.0477 470.511 65.543 470.733 64 472M822 474C821.895 479.538 821.422 484.962 819 490C817.504 484.854 819.214 478.466 822 474M1930 479.863C1914.99 484.071 1896.05 487.749 1889.32 504.003C1880.71 524.811 1890.71 559.291 1919 552.017C1936 547.644 1955.48 532.894 1957.82 514C1959.4 501.171 1947.52 474.952 1930 479.863M1275 498C1272.05 504.255 1270.94 512.064 1266 517C1266.35 507.255 1268.83 499.07 1272 490C1262.97 490.647 1263.74 500.145 1262.61 507C1259.94 523.25 1266.25 541.792 1285 543.528C1316.39 546.434 1331.92 499.107 1305 482.5C1293.3 475.282 1272.5 497.463 1275 498M2021 483.887C1990.66 493.553 1979.77 566.106 2022.98 552.777C2052.84 543.567 2059.53 471.615 2021 483.887M825.667 484.667C825.722 484.722 825.778 485.778 825.333 485.333C825.278 485.278 825.222 484.222 825.667 484.667M1922 534C1919.25 523.268 1926.87 505.295 1930.28 495C1931.56 491.126 1933.97 481.056 1940.11 486.825C1946.97 493.282 1924.92 525.772 1922 534M1293 527C1293.87 522.578 1301.16 490.99 1299.12 491.761C1290.62 494.979 1290.81 516.916 1283 523C1285.06 514.369 1286.69 490.111 1296.37 486.696C1316.79 479.495 1299.44 521.689 1293 527M1910 524C1911.42 513.608 1914.37 503.43 1919.04 494.003C1919.77 492.523 1923.54 485.515 1926.08 487.544C1928.46 489.455 1913.19 521.471 1910 524M825 487C830.237 495.171 830.113 509.398 832 519C818.084 518.648 821.626 496.901 825 487M860 488C864.161 495.227 863.622 508.637 856 513C857.051 505.159 856.622 495.172 860 488M2028 488.333C2028.89 488.333 2028.89 489.667 2028 489.667C2027.11 489.667 2027.11 488.333 2028 488.333M1894 527C1894.65 519.572 1903.66 503.834 1897 499C1924.99 471.175 1907.62 523.302 1894 527M2020 490C2014.56 498.05 2006.67 519.234 1998 523C1998.71 513.348 2009.65 491.55 2020 490M1596 490.663C1566.65 497.532 1547.28 569.203 1593 559.246C1610.25 555.488 1624.79 533.739 1621.57 516C1619.74 505.973 1607.68 487.929 1596 490.663M1678 490.575C1660.16 493.893 1653.02 517.717 1653 534C1652.99 544.546 1654.63 557.792 1669 555.172C1697.55 549.969 1720.39 482.69 1678 490.575M2012 537C2016.98 525.253 2022.67 513.76 2027.3 501.864C2028.53 498.689 2029.71 491.115 2034.22 491.087C2042.14 491.039 2039.54 499.09 2037.03 503.001C2030.38 513.321 2022.3 530.162 2012 537M1286 491C1283.76 499.064 1279.08 510.147 1272 515C1274.05 507.319 1279.19 495.398 1286 491M2025 491C2026.7 503.704 2012.24 521.671 2003 529L2002 528C2009.31 516.194 2014.33 500.189 2025 491M819 495C818.227 496.175 818.175 496.227 817 497C817.545 495.365 817.365 495.545 819 495M1680 495.529C1692.21 492.579 1698.51 505.484 1697.44 516C1696.33 526.808 1680.64 546.874 1670 549.454C1657.55 552.474 1657.82 540.846 1658.02 532C1658.33 518.45 1665.03 499.147 1680 495.529M1949 495C1955.43 508.123 1947.92 524.634 1939 535C1937.8 526.098 1943.41 501.938 1949 495M1604 500C1581.31 500.258 1589.83 531.304 1573 542C1573 529.967 1574.23 513.388 1583.13 504.171C1587.23 499.929 1600.66 490.488 1604 500M1311 502C1315.18 507.861 1316.77 517.47 1309 521C1309.57 514.931 1309.06 507.737 1311 502M1897 502L1891 518C1889.16 512.097 1892 505.401 1897 502M1588 542C1588.21 536.021 1592.05 497.085 1604.17 504.825C1610.15 508.646 1592.08 538.426 1588 542M2043 504C2043 509.137 2039.55 546.755 2028.9 542.239C2023.1 539.784 2039.76 507.089 2043 504M1203 506.858C1164.31 518.075 1162.36 586.134 1211 571.235C1239.68 562.449 1234.28 497.789 1203 506.858M840 507C840.494 511.802 841.873 516.322 843 521C836.36 519.3 838.005 512.164 840 507M1613 509C1618.99 523.908 1614.83 541.593 1600 550C1602.27 538.805 1605.41 517.533 1613 509M1940 509C1936.24 522.854 1937.08 543.31 1920 546C1925.92 533.698 1931.56 521.032 1938 509L1940 509M1208 553C1208 548.704 1212.29 515.512 1208.8 515.625C1201.43 515.863 1199.14 551.985 1196 558C1194.8 552.415 1196 545.759 1196 540C1196 535.606 1196.01 531.32 1196.91 527C1197.63 523.593 1196.77 516.65 1198.47 513.918C1203.27 506.179 1216.66 513.808 1218.75 520.019C1220.34 524.757 1212.07 549.813 1208 553M849 511C850.773 514.492 852.727 517.732 848 519C849.81 516.105 847.281 513.521 849 511M1281 512C1280.45 519.917 1277.55 526.936 1278 535C1272.44 532.948 1269.43 528.651 1268 523C1274.2 521.563 1276.53 516.03 1281 512M1195 515C1193.12 523.784 1192.19 543.493 1185 549C1186.88 538.375 1183.36 520.472 1195 515M1305 518C1305.53 526.867 1304.97 532.051 1296 536C1297.34 529.771 1300.48 523.844 1303 518L1305 518M1919 519C1918.32 523.945 1915.8 551.516 1907.55 546.907C1902.88 544.296 1916.34 522.493 1919 519M1891 520L1890 521L1891 520M1290 522C1287.13 542.263 1278.2 535.991 1290 522M1906 522C1905.24 529.458 1902.48 536.501 1902 544C1889.32 538.794 1897.14 526.962 1906 522M1999 524.333C1999.77 524.333 1999.16 524.831 1998.67 524.667L1999 524.333M1224 528C1224.72 530.064 1224.91 531.805 1225 534C1223.71 531.762 1223.39 530.512 1224 528M2012 528C2009.98 534.426 2007.27 540.172 2007 547C1990.44 542.555 2004.19 532.78 2012 528M2027 528C2022.83 540.413 2025.11 548.975 2010 549C2013.64 542.105 2020.16 531.858 2027 528M1182 530C1182 537.89 1179.09 565.671 1191 550C1192.48 555.855 1192 561.992 1192 568C1176.04 562.949 1173.46 542.865 1182 530M1293 530.333C1293.89 530.333 1293.89 531.667 1293 531.667C1292.11 531.667 1292.11 530.333 1293 530.333M1601 530C1599.9 538.445 1597.91 554.297 1588 555C1589.54 546.59 1595.21 536.273 1601 530M1226 536L1225 548L1223 548C1223.56 543.818 1223.72 539.608 1226 536M1219 537C1219 540.155 1221.07 569.727 1211.68 564.375C1209.52 563.146 1217.17 539.807 1219 537M1583 537C1583.95 542.348 1583 546.723 1582 552C1574.77 548.656 1579.34 541.787 1583 537M1569 542L1571 548C1568.71 546.131 1568.24 544.878 1569 542M1205 544C1209.7 573.133 1191.28 568.314 1205 544M572 550.622C569.605 551.167 552.011 556.687 556.892 560.675C561.84 564.719 569.133 558.315 574 557.338C587.854 554.559 611.324 563.193 623.495 557.021C626.416 555.54 625.819 551.461 622.715 550.718C610.306 547.748 584.518 547.775 572 550.622M1158.67 558.333C1158.22 558.778 1159.28 558.722 1159.33 558.667C1159.78 558.222 1158.72 558.278 1158.67 558.333M1623 641C1620.58 633.37 1617.83 625.757 1615.88 618C1614.61 613 1613.17 608.03 1612.03 603C1611.51 600.689 1608.91 582.546 1605.79 584.544C1602.36 586.743 1604.88 594.916 1605.44 598C1607.8 611.099 1610.93 625.573 1615.7 638C1616.84 640.975 1620.42 653.386 1624.73 652.677C1628.1 652.121 1630.55 640.847 1631.82 638C1636.26 628.008 1656.64 592.943 1650.91 583.185C1646.45 575.571 1617.64 570.686 1614.11 581.481C1613.98 581.865 1641.53 578.317 1645.16 587.185C1648.96 596.487 1629.55 633.571 1623 641M2013 589L2016 591C2015.02 589.216 2015.09 589.406 2013 589M1957 594.446C1947.93 595.366 1932.78 592.41 1925.82 599.946C1919.82 606.443 1930.57 630.553 1933.06 638C1934.82 643.283 1942.64 676.389 1948.92 675.574C1955.14 674.767 1959.04 655.941 1961 651C1968.52 632.083 1997.02 590.386 1957 594.446M1950 667C1940.74 659.262 1934.5 629.949 1931.5 618C1930.55 614.212 1927.15 606.564 1929.59 602.985C1934.32 596.032 1971.17 595.768 1974.36 604.322C1976.02 608.79 1970.14 616.873 1968.48 621C1962.31 636.319 1956.46 651.813 1950 667M1582 891C1575.21 912.388 1574.65 934.848 1572.86 957C1572.35 963.3 1567.28 974.76 1571.26 980.499C1578.89 991.49 1615.07 982.005 1626 982.216C1630.34 982.299 1640.44 986.156 1642.79 980.538C1645.27 974.612 1638.48 960.979 1636.65 955C1632.12 940.185 1628.53 922.39 1618.72 910C1610.65 899.812 1595.91 892.066 1589.26 881.502C1581.3 868.861 1591.03 832.989 1591 818C1590.99 812.148 1592 799.163 1585.68 796.181C1576.2 791.717 1555.48 797.394 1545 798.136C1537.35 798.678 1523.94 796.667 1517.28 800.604C1511.99 803.732 1513.01 815.656 1513 821C1512.96 836.131 1504.38 881.29 1515.96 891.96C1527.3 902.409 1570.3 893.493 1582 891M1992 872C2005.27 930.276 1909.58 941.191 1908.88 877C1908.8 869.27 1908.63 861.189 1911.86 854C1916.54 843.585 1925.7 833.391 1934.11 825.777C1942.8 817.913 1952.57 806.344 1965 805.058C2016.34 799.748 2020.46 865.883 2013.54 900C2006.05 936.966 1963.63 957.591 1947.45 990C1937.65 1009.62 1940.36 1033.73 1960.08 1045.61C1966.16 1049.27 1973.18 1053.22 1980 1055.26C2007.9 1063.61 2054.11 1027.77 2037.97 997.003C2030.62 982.993 2009.1 975.476 1995 982.174C1982.86 987.94 1970.24 1001.09 1978.83 1014.88C1989.12 1031.41 2013.67 1029.38 2015.23 1008C2015.69 1001.68 2007.95 995.14 2002.51 1000.5C1999.78 1003.2 2019.42 1017.39 1999.99 1020.94C1991.39 1022.51 1981.32 1012.51 1982.11 1004C1984.6 977.201 2029.04 981.213 2034.37 1004C2039.05 1023.99 2014.22 1050.35 1995 1051.82C1982.85 1052.75 1967.48 1044.55 1958.23 1037.16C1943.13 1025.08 1946.47 1003.11 1954.93 988.085C1968.95 963.165 1995.38 946.15 2010.63 922C2034.01 884.989 2026.18 796.166 1967 799.198C1955.27 799.799 1945.21 809.028 1936.9 816.348C1911.65 838.61 1882.64 888.309 1918.88 916.686C1959.55 948.528 2026.27 898.436 1989.42 854.239C1965.93 826.06 1918.45 863.673 1940.19 894.973C1961.8 926.101 1981.85 884.633 1992 872M1570 801.32C1593.7 798.856 1590.58 840.019 1584.52 856.756C1581.23 865.845 1567.87 856.661 1563.22 862.076C1559.99 865.838 1563.14 876.853 1561.5 881.795C1559.1 889.023 1541.32 889.483 1535 889.856C1530.65 890.113 1522.25 890.338 1519.31 886.499C1510.66 875.205 1518 838.181 1518 824C1518 819.004 1516.26 809.786 1519.26 805.502C1523.59 799.31 1561.37 802.218 1570 801.32M1201 821C1191.71 840.863 1197.64 870.293 1193.82 892C1192.98 896.738 1191.06 910.781 1196.38 913.688C1198.61 914.907 1209.5 909.355 1213 909.04C1231.61 907.369 1254.17 907.826 1272 904C1272 924.13 1276.71 943.798 1274.44 964C1273.86 969.104 1272.24 983.094 1276.82 986.733C1281.66 990.577 1300.27 987.059 1307 988C1314.22 989.01 1333.64 992.106 1339.5 987.176C1343.8 983.563 1343.93 973.171 1343.99 968C1344.19 950.634 1345 933.359 1345 916C1345 910 1347.21 898.889 1339.93 896.362C1323.56 890.676 1302.96 902.683 1285 898.496C1281.54 897.69 1273.57 898.164 1271.3 895.178C1268.62 891.659 1270.96 880.268 1271.44 876C1273.04 861.779 1273 846.329 1273 832C1273 827.568 1275 816.381 1271.18 813.26C1265.99 809.021 1242.21 809.45 1235 809.078C1227.15 808.674 1217.69 807.868 1210 809.604C1207.78 810.106 1200.24 813.854 1205.32 816.47C1207.57 817.628 1213.94 813.153 1217 813.03C1226.66 812.64 1262.77 812.626 1268.74 820.579C1276.36 830.726 1266.76 868.484 1266.06 881.04C1265.8 885.756 1267.63 896.843 1261.72 898.856C1255.23 901.066 1246.23 898.024 1239 899.74C1231.67 901.479 1206.17 908.702 1199.82 905.368C1195.58 903.142 1199.3 886.919 1199.92 883C1202.01 869.799 1209.37 831.413 1201 821M854 856C855.993 857.192 857.847 858.14 860 859C858.495 849.779 866.499 843.837 865 835C850.596 844.112 830.892 821.57 815.244 840.391C798.373 860.681 843.612 878.073 854 856M957 856C956.117 851.014 956.842 845.263 952.759 841.684C947.887 837.414 941.999 831.313 935 831.451C916.495 831.816 907.897 862.74 930 864.869C941.393 865.966 947.415 855.04 957 856M837.832 837.106C844.823 835.441 835.712 850.082 832.056 851.239C827.495 852.681 832.665 838.336 837.832 837.106M926 858C929.104 851.115 935.657 843.405 935 836C946.914 838.598 932.95 856.275 926 858M469 875C470.348 869.278 468.695 863.201 472.786 858.29C479.009 850.818 493.385 858.253 496.135 866.021C502.079 882.818 453.173 898.8 461.811 865.957C462.911 861.774 464.435 857.726 466.668 854.003C469.86 848.679 473.818 845.583 480 845C466.844 829.106 451.362 871.632 457.384 882.938C468.168 903.184 511.133 882.179 500.753 860.105C490.177 837.616 451.405 859.444 469 875M929 840C928.02 845.569 925.269 850.244 925 856C915.991 852.319 922.66 842.655 929 840M821 841C820.098 842.923 819.924 842.999 818 844C818.899 841.876 818.876 841.899 821 841M945 841L946 845C944.344 843.596 944.249 843.047 945 841M544 842.623C516.805 848.734 518.219 887.475 547 881.403C568.939 876.775 570.856 836.588 544 842.623M828 842C821.088 858.896 837.615 861.025 849 855L850 856C837.637 867.06 817.397 863.779 817 845L819 845L819 850C821.957 846.729 823.738 843.606 828 842M842 853C845.068 837.003 854.852 848.61 842 853M173 847.76C146.251 855.381 149.25 902.437 178 893.314C200.715 886.107 201.913 839.522 173 847.76M545 848.364C565.451 845.486 561.802 874.369 545 876.713C523.491 879.712 524.428 851.258 545 848.364M102 853C101.63 846.855 94.5908 849.573 92.0257 853.101C87.3495 859.533 84.6689 869.16 84.1148 877C80.3446 930.353 170.973 884.725 119.695 858.344C114.293 855.564 107.981 853.866 102 853M1989 866C1984.59 861.808 1980.52 855.753 1973.99 854.804C1966.05 853.649 1947.69 867.273 1949.51 876C1952.08 888.395 1976.98 890.734 1975.39 892.71C1957.53 914.931 1930.2 882.987 1943.28 862.019C1954.39 844.202 1983.06 845.07 1989 866M947 850C945.468 857.445 940.255 860.465 933 861C936.117 855.113 940.242 850.878 947 850M179.992 851.547C197.475 850.958 190.53 888.544 172.962 888.894C148.955 889.372 157.936 852.29 179.992 851.547M104.019 858.826C129.277 857.91 140.052 895.817 110 896.956C84.0243 897.94 84.0089 859.551 104.019 858.826M1980 886C1977.99 880.062 1979.52 874.006 1973.83 869.613C1970.57 867.09 1960.13 867.823 1961.24 874.062C1961.31 874.414 1976.39 871.27 1973.85 882.392C1971.75 891.591 1954.97 881.577 1954.71 874.981C1954.33 865.302 1972.24 855.167 1979.65 862.365C1987.9 870.375 1981.78 877.304 1980 886M1213.33 863.667C1213.28 863.722 1213.22 864.778 1213.67 864.333C1213.72 864.278 1213.78 863.222 1213.33 863.667M1569.8 865.822C1583.84 857.227 1587.14 881.709 1579.5 885.818C1565.64 893.263 1561.49 870.912 1569.8 865.822M1589 888C1620.58 913.038 1625.63 942.118 1638 978C1624.59 977.947 1586.46 985.946 1575.86 976.74C1572 973.387 1577.52 960.524 1577.86 956C1579.5 934.289 1578 907.606 1589 888M1278.28 902.01C1282.05 901.387 1301.15 904.262 1302.94 907.501C1305.9 912.872 1306.12 936.479 1298.79 938.418C1282.5 942.733 1277.65 929.745 1276.99 917C1276.81 913.446 1272.66 902.939 1278.28 902.01M1332 901.324C1345.26 900.053 1339.62 954.2 1339.78 966C1339.85 970.843 1338.65 982.778 1332.85 983.939C1324.61 985.59 1286.02 987.5 1280.26 981.74C1276.26 977.742 1279.67 965.016 1279.92 960C1280.12 956.034 1277.5 945.156 1280.28 942.261C1286.13 936.17 1298.77 950.145 1304.69 942.498C1312.2 932.811 1303.18 912.364 1310.82 905.116C1315.47 900.703 1326.08 901.891 1332 901.324M880 910C876.74 916.63 846.592 923.197 860 925C851.611 934.917 862.175 966.058 872 944C874.789 953.326 868.557 960.769 862 967C859.563 956.902 854.295 922.631 845 919C848.458 933.508 850.337 947.846 855.35 961.999C856.467 965.153 858.871 974.769 863.889 973.257C873.865 970.251 879.448 949.701 886.303 942.612C891.469 937.27 899.051 939.953 903 931C898.224 931.768 894.527 934.505 890 936C896.232 913.815 899.253 918.995 880 910M494 920C493.592 918.244 491.58 914.485 489.706 917.732C485.414 925.168 495.004 971.589 503.118 974.634C507.468 976.267 512.78 968.469 515.433 965.863C526.206 955.28 534.26 945.429 539.174 931C540.423 927.331 545.375 917.67 541.279 914.521C534.574 909.366 521.38 915.553 514 916C507.188 916.412 500.196 917.013 494 920M504 969C501.797 958.656 490.988 935.414 495.84 925.46C498.305 920.405 532.447 915.921 535.596 919.96C545.203 932.279 512.585 964.429 504 969M307 919C307.899 921.124 307.876 921.101 310 922C309.518 919.636 309.364 919.482 307 919M891 919C887.392 927.203 884.431 939.53 877 945C877.378 934.495 879.117 921.189 891 919M875 922C874.863 925.457 870.208 947.614 864.63 945.239C851.176 939.511 867.467 923.455 875 922M93 933C94.1182 950.515 106.005 965.441 111.139 982.003C112.372 985.982 115.088 996.456 121.054 995.136C131.691 992.783 145.762 958.837 150.573 949.562C152.625 945.606 157.921 937.938 154.168 933.726C139.405 917.155 109.245 933.228 93 933M128 963C127.7 957.696 134.919 943.176 130.773 939.106C127.608 935.998 120.757 960.928 120 964C116.497 957.046 126.08 940.735 120.841 936.106C115.897 931.738 111.972 954.89 107.639 949.108C95.3099 932.659 155.12 918.572 135.023 952.438C132.834 956.127 130.855 959.781 128 963M105 936C103.67 939.389 103.104 942.364 103 946C96.5523 943.348 97.8105 935.703 105 936M149 937C148.545 941.269 147.467 944.347 144 947C144.623 943.497 145.728 940.318 147 937L149 937M116 953C114.668 960.503 111.219 975.718 123 969C115 994.46 133.446 960.089 139 956C137.244 968.245 126.75 978.735 122 990C111.645 983.572 107.096 961.598 116 953M124 963C124.424 964.897 124.329 966.056 124 968C123.369 965.994 123.369 965.005 124 963M404 1022C405.635 1021.45 405.455 1021.64 406 1020C404.824 1020.77 404.773 1020.82 404 1022M18 1127C16.2755 1144.43 41.7326 1149.46 42.5611 1164C43.4993 1180.46 18.2028 1196.15 18 1214C28.8821 1201.55 33.0178 1182.72 44.9115 1171.43C49.7029 1166.89 75.625 1195.69 76.5359 1202.22C77.257 1207.39 68.5402 1214.9 65.7844 1219C55.1929 1234.77 42.8443 1249.21 32.337 1265C28.6576 1270.53 25.0366 1281.78 17 1280C18.1872 1285.24 18.1982 1289.76 17 1295C24.9867 1291.1 30.0743 1302.72 35.7778 1308.97C40.692 1314.36 50.5871 1321.3 53.1944 1328C58.3993 1341.38 26.2789 1365.23 24 1378C37.1576 1369.06 51.6531 1346.98 57 1332C65.8709 1341.63 98.9983 1364.91 99.4541 1378.14C99.6917 1385.04 87.8361 1396.17 83.658 1401.32C71.3787 1416.45 63.6278 1431.27 56 1449C64.9414 1447.75 65.2384 1437.9 68.298 1431C73.9622 1418.23 84.7271 1407.14 92.998 1396C95.5374 1392.58 100.098 1382.5 104.892 1382.17C108.827 1381.9 113.514 1388.73 116.026 1391.14C124.618 1399.36 147.82 1415.2 151.333 1426.36C153.751 1434.05 136.488 1448.74 153 1449C144.496 1418.93 176.623 1448.99 188 1449C182.568 1441.65 167.713 1439.37 164.976 1430.86C163.682 1426.84 170.022 1418.68 171.647 1415C178.516 1399.46 187.697 1385.31 195.113 1370C196.912 1366.29 200.641 1353.73 205.344 1353.08C211.071 1352.3 222.668 1367.27 226.682 1371.18C233.612 1377.93 251.867 1390.54 253.876 1400.14C256.771 1413.97 238.44 1435.93 234 1449C245.441 1446.37 255.974 1413.81 259 1403C271.152 1415.17 289.738 1448.37 308 1449C296.423 1435.13 281.946 1423.9 271.559 1409.04C268.947 1405.3 262.398 1401.67 261.979 1396.92C260.684 1382.24 277.551 1359.66 283.943 1347C287.127 1340.69 296.231 1313.52 304.258 1313.52C308.821 1313.52 314.082 1321.08 316.999 1324C328.112 1335.14 336.796 1350.26 349 1360C347.439 1336.29 313.917 1327.59 307.675 1307.68C305.087 1299.43 323.505 1275.03 328.114 1268C329.745 1265.51 332.999 1258.59 336.258 1258.08C340.596 1257.4 346.201 1267.3 349 1270C348.863 1261.04 340.086 1257.78 339.415 1249.99C338.53 1239.7 348.95 1229.15 349 1218C344.645 1223.62 340.028 1245.15 333.259 1246.89C329.738 1247.79 325.614 1241.26 323.667 1239.17C317.749 1232.83 295.13 1211.93 296.692 1203.08C302.206 1171.82 339.771 1147.71 349 1118C341.083 1119.9 336.215 1130.74 331.718 1137C318.534 1155.34 300.097 1179.62 293 1201C281.636 1191.64 272.039 1178.91 262.196 1167.97C259.465 1164.93 253.176 1159.51 254.344 1154.98C257.952 1141 276.261 1130.89 283 1118C266.957 1119.14 262.905 1148.87 249.823 1150.92C246.249 1151.48 241.298 1144.29 239.136 1142.08C231.265 1134.02 222.072 1118.19 210 1118C210.128 1129.13 188.883 1149.98 182.045 1159.44C180.187 1162.01 176.729 1170.27 173.131 1170.38C168.442 1170.51 162.268 1160.12 159.594 1156.98C147.179 1142.41 133.873 1137.06 144 1118C138.515 1118.76 137.623 1125.28 133.052 1125.92C128.45 1126.56 122.859 1118.41 117 1118C120.594 1122.18 128.171 1127.11 128.738 1133C129.351 1139.36 120.034 1147.35 116.499 1152C105.642 1166.28 89.7382 1182.34 83 1199C77.4362 1194.63 50.4661 1169.18 51.6758 1163C54.7764 1147.16 76.4832 1133.73 82 1118C71.4725 1120.37 62.6506 1139.44 56.6312 1148.01C54.6761 1150.79 50.5504 1158.49 46.2872 1157.36C40.396 1155.8 33.7954 1144.41 29.7826 1140C25.8304 1135.66 21.7121 1131.56 18 1127M215.144 1125.06C220.24 1125.8 225.569 1133.57 229 1137C250.619 1158.63 243.733 1164.26 228.721 1188C226.089 1192.16 217.759 1211.41 211.853 1210.7C207.408 1210.16 200.505 1200.77 197.438 1197.68C176.109 1176.17 177.713 1170.16 195.574 1146C198.792 1141.65 209.001 1124.17 215.144 1125.06M83 1201C97.9664 1192.43 109.987 1166.63 120.687 1153C123.12 1149.9 129.607 1137.92 133.487 1137.32C136.775 1136.82 141.028 1142.98 142.967 1145C148.65 1150.93 169.785 1168.06 170.018 1176.22C170.178 1181.79 162.675 1188.93 159.481 1193C150.312 1204.68 141.95 1217.47 133.515 1229.7C131.209 1233.04 125.291 1244.36 120.78 1244.36C116.961 1244.36 112.778 1237.54 110.567 1235C101.614 1224.71 89.5016 1212.87 83 1201M1646 1179C1644.59 1193.91 1638.71 1209.68 1634.32 1224C1633.14 1227.84 1628.73 1237.53 1631.35 1241.18C1633.65 1244.41 1641.59 1243 1645 1243C1653.09 1243 1691.07 1246.59 1691.76 1234.93C1693.02 1213.34 1691.38 1179.44 1684.37 1159C1682.43 1153.35 1677.38 1140.5 1671.94 1137.39C1667 1134.57 1661.72 1146.16 1659.45 1148.92C1651.12 1159.06 1633.12 1182.63 1635.32 1196.82C1636.37 1203.61 1643.7 1181.66 1646 1179M1669.02 1146.64C1676.31 1146.54 1679.03 1160.02 1680.82 1165C1686.29 1180.23 1684.41 1201.82 1684.96 1218C1685.1 1222.2 1687.32 1231.57 1685.16 1235.18C1681.48 1241.33 1645.04 1238.64 1638.29 1237.58C1632.6 1236.68 1640.23 1219.74 1641.22 1216C1645.86 1198.55 1647.9 1175.43 1657.5 1160C1659.63 1156.58 1664.35 1146.7 1669.02 1146.64M1588 1149C1564.89 1153.23 1568 1191.61 1562.46 1212C1560.78 1218.19 1554.04 1232 1557.83 1238.18C1563.87 1248.02 1588.95 1238.94 1596.97 1238.22C1600.09 1237.95 1605.67 1244.6 1607.13 1241.43C1611.58 1231.78 1600.65 1207.79 1597.98 1198C1593.4 1181.22 1588 1166.59 1588 1149M1581 1155C1585.78 1174.1 1591.95 1192.86 1596.75 1212C1597.95 1216.76 1602.7 1227.59 1600.14 1232.2C1596.91 1238.02 1565.97 1241.56 1563.54 1233.72C1561.38 1226.73 1565.99 1216.66 1567.83 1210C1572.74 1192.21 1572.28 1171.5 1581 1155M251 1160C260.561 1172.32 283.582 1189.4 287.934 1204C290.779 1213.55 271.258 1237.89 265.893 1245.86C264.312 1248.21 259.202 1256.36 256.128 1256.36C251.175 1256.35 241.461 1242.46 238 1239C232.491 1233.49 217.483 1223.05 216.759 1214.78C216.304 1209.58 222.929 1203.99 225.602 1200C234.149 1187.25 240.481 1171.2 251 1160M1913 1237C1918.28 1251.87 1961.53 1239.25 1973 1237C1973 1269.81 1977.63 1302.25 1977.99 1335C1978.08 1342.46 1974.5 1365.24 1980.25 1370.71C1985.53 1375.73 1987.82 1362.6 1988 1360L1984 1362C1983.45 1332.86 1982.83 1302.99 1979.56 1274C1978.71 1266.44 1974.11 1246.13 1979.26 1239.82C1981.6 1236.95 2000.33 1235.44 2001.4 1239.33C2003.16 1245.68 1999.64 1255.97 2000.14 1263C2001.57 1283.51 2004.62 1303.35 2004 1324C2015.91 1319.61 2023.96 1298.15 2031 1288C2031.9 1289.88 2034.06 1295.68 2037.2 1294.03C2039.49 1292.83 2036.5 1281.59 2038.97 1278C2044.88 1269.41 2065.72 1256.24 2066.72 1246.03C2067.51 1237.99 2047.9 1259.22 2046.32 1261C2042.36 1265.48 2038.74 1270.3 2034 1274C2032.98 1256.95 2027.68 1242.49 2030 1225C2016.42 1225.94 1990.05 1228.27 1978 1234C1978 1218.39 1979.41 1202.53 1978.96 1187C1978.89 1184.63 1980.63 1171.88 1977.93 1172.32C1971.98 1173.29 1973.29 1182.97 1973.26 1187C1973.18 1198.15 1977.45 1221.76 1972.18 1231.5C1969.99 1235.54 1961.83 1233.84 1958 1234.58C1942.75 1237.53 1928.51 1238.44 1913 1237M578.538 1179.76C575.291 1181.44 577.661 1190.28 577.866 1193C578.414 1200.26 586.221 1230.83 579.454 1234.88C571.645 1239.54 552.518 1236.13 544 1234.57C517.137 1229.67 476.157 1222.21 461.138 1252C443.342 1287.3 450.452 1348.81 490 1367.7C510.983 1377.72 538.23 1371.55 558 1361.92C586.353 1348.11 602.673 1314.79 597.841 1285C596.249 1275.18 583.985 1249.64 590.278 1240.69C595.216 1233.66 627.545 1237.31 636 1236.92C638.833 1236.8 651.068 1237.9 649.592 1232.45C648.591 1228.75 638.727 1231.92 636 1231.98C624.273 1232.25 600.967 1238.49 590.461 1234.04C584.008 1231.31 582.369 1198.9 582.008 1191.99C581.932 1190.56 581.534 1178.22 578.538 1179.76M173.346 1180.11C176.898 1179.16 180.403 1184.85 182.328 1187C188.107 1193.48 208.528 1207.26 209.075 1216C209.399 1221.17 200.961 1227.43 198.062 1231.22C187.699 1244.74 177.62 1258.53 167.622 1272.32C165.024 1275.9 160.548 1287.19 155.794 1287.92C150.163 1288.78 125.167 1255.24 124.899 1249.22C124.664 1243.94 131.788 1238.07 134.516 1234C143.244 1220.97 151.98 1207.44 161.574 1195C164.139 1191.67 169.26 1181.2 173.346 1180.11M1318 1268C1309.61 1268.78 1280.29 1278.43 1273.97 1272.72C1271.39 1270.4 1273.96 1262.18 1273.99 1259C1274.09 1250.12 1283.04 1211.25 1277.18 1206.24C1265.43 1196.21 1240.31 1198.06 1226 1196.44C1224.26 1196.24 1207.74 1194.21 1211.41 1199.29C1214.02 1202.89 1225.09 1200.99 1229 1201C1239.2 1201.02 1266.59 1202.04 1272.96 1211.42C1276.83 1217.12 1271.11 1227.87 1270.34 1234C1268.5 1248.69 1276.03 1283.08 1251 1273C1245.94 1283.03 1231.44 1276.02 1223 1276.29C1218.26 1276.44 1213.31 1281.67 1208.91 1280.78C1205.77 1280.14 1198.62 1276.63 1198.57 1272.95C1198.5 1268.04 1203.86 1262.65 1205.4 1258C1209.27 1246.39 1211.02 1233.15 1209.42 1221C1208.67 1215.23 1211.62 1203.33 1205 1201C1205 1215.98 1207.41 1232.24 1204 1246.92C1201.95 1255.73 1193.74 1265.27 1193.52 1273.98C1193.39 1279.56 1198.36 1281.48 1203 1282C1201.05 1285.49 1192 1290.27 1192 1293.8C1192 1298.32 1200.83 1292.99 1202 1292.16C1209.48 1286.85 1238.23 1273.7 1246.7 1283.9C1249.68 1287.5 1246.96 1301.45 1246.44 1306C1244.38 1323.9 1243.21 1343.01 1243.01 1361C1242.94 1366.75 1239.64 1380.1 1245.42 1383.72C1251.47 1387.51 1270.04 1384.06 1277 1382.92C1285.37 1381.54 1306.11 1382.94 1312.18 1376.97C1316.29 1372.92 1312.45 1359.71 1313.4 1354C1316.42 1336.03 1319.41 1318.13 1321.66 1300C1322.54 1292.91 1320.45 1282.95 1323.78 1276.41C1324.57 1274.87 1350.54 1278.31 1356 1276.17C1387.05 1263.98 1401.3 1216.55 1371.92 1194C1366.35 1189.73 1359.76 1188.07 1353 1186.87C1304.48 1178.25 1301.04 1234.81 1318 1268M1336 1191.36C1389.93 1183.45 1399.27 1265.75 1348 1272.73C1305.47 1278.52 1300.22 1196.61 1336 1191.36M58 1325C49.7948 1319.59 25.2173 1297.03 24.6968 1286.78C23.9791 1272.66 49.8962 1246.39 58.5216 1236C64.1356 1229.24 71.9276 1210.01 80.8039 1207.76C84.5758 1206.81 88.1792 1213.68 90.2089 1216C95.4976 1222.04 118.813 1244.08 115.817 1252C105.558 1279.13 71.4979 1298.51 58 1325M291 1209C303.007 1214.28 311.961 1232.61 321 1242C323.765 1244.87 330.835 1249.88 330.982 1254.21C331.218 1261.18 320.558 1272.83 317.123 1279C314.479 1283.75 308.642 1300.94 302.685 1301.68C298.669 1302.18 294.465 1296.47 292.008 1294C286.338 1288.29 259.338 1266.96 260.862 1258.88C264.164 1241.4 285.439 1226.55 291 1209M212.409 1220.09C218.447 1218.65 232.917 1237.92 237 1242C241.295 1246.3 253.007 1254.69 253.658 1261.14C254.232 1266.83 246.817 1274.53 243.881 1279C234.412 1293.41 224.238 1307.18 215.374 1322C213.042 1325.9 208.669 1339.63 204.414 1341.11C200.945 1342.33 195.059 1334.06 192.999 1332C183.623 1322.61 163.31 1306.93 159.522 1294C157.944 1288.61 166.064 1280.28 168.819 1276C178.071 1261.61 189.447 1248.77 199.58 1235.02C202.506 1231.05 207.219 1221.32 212.409 1220.09M2026 1231C2019.47 1247.2 2031.34 1262.58 2029.41 1279C2028.2 1289.21 2014.69 1304.31 2009 1313C2004.63 1290.38 1994.89 1234.23 2026 1231M1200 1234C1199.01 1235.48 1199 1235.2 1199 1237C1200.77 1236.02 1200.96 1235.78 1200 1234M490 1235.36C511.541 1232.26 534.573 1241.17 556.217 1240.46C562.089 1240.27 577.553 1236.98 582.197 1240.96C587.08 1245.14 587.93 1265.43 589.278 1272C598.118 1315.1 579.245 1358.7 531 1365.99C487.368 1372.59 455.528 1338.13 456.008 1295C456.259 1272.39 463.167 1239.23 490 1235.36M2009 1245C2009.56 1247.67 2010.18 1248.97 2012 1251C2012.61 1247.61 2012.26 1246.29 2009 1245M857 1325C856.944 1319.05 855.996 1313.62 854 1308L850 1312C840.852 1294.78 828.963 1276.56 823 1258C835.064 1267.52 845.468 1279.47 857 1289.67C859.943 1292.28 866.863 1300.17 871.336 1298.9C874.87 1297.9 877.991 1288.95 879.804 1285.98C885.823 1276.13 893.935 1265.2 903 1258C903.003 1265.18 908.067 1307.92 918.583 1305.75C922.134 1305.02 926.48 1296.6 929.019 1294C938.607 1284.18 948.793 1270.5 961 1264C958.079 1273.17 953.286 1312.47 945.716 1316.32C928.116 1325.27 901.276 1325.13 882 1324.71C875.022 1324.56 862.483 1316.61 859 1326C864.351 1326.9 878.856 1326.7 882.399 1331.14C884.904 1334.28 882.391 1342.35 882.136 1346C881.214 1359.19 881.004 1372.78 881 1386C880.998 1394.14 877.366 1410.68 887.107 1414.82C891.498 1416.69 924.75 1418.12 926.479 1415.44C929.296 1411.07 925 1397.51 925 1392C925 1372.31 925.233 1349.36 929.284 1330.07C931.465 1319.68 947.662 1327.33 952.516 1320.5C955.818 1315.85 954.629 1307.45 955.622 1302C958.297 1287.31 971.34 1265.37 968 1251C954.42 1258.72 922.46 1283.55 919 1299C908.078 1287.03 907 1261.36 907 1246C895.981 1251.06 885.456 1268.01 878.701 1277.86C876.64 1280.87 872.773 1290.36 868.721 1290.52C859.379 1290.89 838.786 1265.59 831.992 1258.96C829.319 1256.35 823.042 1247.68 818.521 1249.67C812.978 1252.11 821.423 1266.48 822.753 1270C828.285 1284.61 841.628 1319.18 857 1325M1570 1263C1589.52 1260.4 1609.38 1259.32 1629 1258C1634.39 1257.64 1644.92 1254.61 1649.36 1258.82C1655.56 1264.7 1646.82 1283.42 1644.2 1289.68C1633.99 1314.04 1621.47 1364.8 1599 1380C1595.49 1354.61 1580.92 1323.71 1570.97 1300C1566.11 1288.4 1557.11 1275.93 1558 1263C1548.4 1265.25 1557.84 1283.68 1560.3 1289C1571.21 1312.65 1579.13 1338.37 1587.65 1363C1589.45 1368.21 1593.13 1385.5 1599.28 1386.99C1607.6 1388.99 1620.83 1358.13 1623.8 1352C1634.65 1329.57 1646.58 1302.81 1653.96 1279C1655.44 1274.25 1659.81 1256.99 1655.28 1253.41C1646.77 1246.68 1623.7 1253.74 1614 1254.79C1603.11 1255.97 1575.37 1250.23 1570 1263M119.927 1254.32C125.219 1253.59 137.168 1272.77 140.461 1276.78C143.947 1281.03 152.24 1287.95 151.728 1294C151.193 1300.32 142.301 1308.86 138.704 1314C129.64 1326.95 123.89 1341.55 115.691 1355C113.48 1358.63 108.419 1371.02 103.843 1371.68C97.6305 1372.57 84.597 1354.37 80.5626 1350.22C75.3651 1344.87 62.1455 1335.85 61.2834 1328C60.6986 1322.68 67.6082 1316.04 70.4313 1312C80.7692 1297.19 93.392 1283.76 105.142 1270C108.363 1266.23 114.729 1255.04 119.927 1254.32M259 1263C267.025 1276.06 296.926 1292.16 299.942 1306.47C300.94 1311.21 293.449 1318.79 291.382 1322.98C283.026 1339.94 274.115 1356.55 266.781 1374C265.489 1377.08 260.05 1392.95 256.656 1393C249.578 1393.12 236.696 1376.69 232 1372C226.18 1366.18 210.062 1354.76 208.162 1346.6C206.815 1340.81 215.375 1328.96 218.173 1324C229.512 1303.89 243.105 1279.74 259 1263M17.5 1266.5C16.8726 1267.13 17.8725 1268.13 18.5 1267.5C19.1274 1266.87 18.1275 1265.87 17.5 1266.5M1319 1272C1318.1 1297.51 1314.78 1325.12 1309.14 1350C1307.8 1355.91 1310.13 1367.7 1306.15 1372.31C1301.46 1377.73 1283.87 1377.03 1277 1378C1270.33 1378.94 1254.78 1381.95 1248.82 1378.18C1244.23 1375.27 1247.82 1361.48 1248 1357C1248.73 1339.02 1251.01 1321.01 1251.92 1303C1252.18 1297.86 1249.89 1287.07 1254.04 1283.18C1257.83 1279.64 1264.18 1282.08 1268.68 1280.89C1285.1 1276.52 1302.56 1276.44 1319 1272M158 1296C166.225 1314.74 196.327 1327.71 200.938 1346.98C202.149 1352.04 195.603 1359.71 193.357 1364C185.792 1378.45 179.896 1395.35 168.738 1407.56C165.632 1410.96 159.217 1421.98 153.92 1420.89C142.222 1418.51 126.888 1396.12 118.36 1387.81C115.154 1384.68 108.914 1380.8 108.304 1376C107.541 1370 117.014 1360.08 119.971 1355C130.552 1336.81 139.006 1307.2 158 1296M896.003 1328.33C900.584 1327.78 920.553 1326.62 923.198 1330.19C928.058 1336.74 920.022 1366.9 920.001 1376C919.987 1381.92 923.303 1410.66 917.844 1411.68C879.365 1418.85 886.684 1390.8 886.992 1363C887.104 1352.96 882.656 1329.93 896.003 1328.33M164 1420C163.455 1421.64 163.635 1421.45 162 1422C162.545 1420.36 162.365 1420.55 164 1420M161 1424L160 1425L161 1424M160 1427L159 1428L160 1427M111 1601C122.089 1619.05 141.387 1634.49 148.485 1655C153.411 1669.23 134.162 1691.61 139.901 1703.44C142.264 1708.3 146.303 1699.91 146.694 1698C149.208 1685.71 151.35 1673.26 154 1661C167.09 1677.99 182.531 1696.01 198.136 1710.66C201.699 1714 212.613 1723.38 218.031 1718.8C219.407 1717.64 203.349 1707.86 200.92 1705.4C190.081 1694.4 155.824 1666.85 155.663 1651C155.495 1634.52 160.643 1617.64 160.981 1601C161.112 1594.59 159.488 1583.81 163.937 1578.49C169.538 1571.81 192.606 1573.52 201 1572.56C203.629 1572.26 212.997 1572.93 212.997 1568.8C212.997 1563.85 204.408 1566.83 202 1567.29C195.365 1568.57 170.18 1574.19 164.958 1569.7C162.048 1567.2 164 1556.59 164 1553C164 1535.31 164.354 1517.06 169 1500C145.725 1505.76 169.832 1556.35 156.876 1569.1C148.058 1577.78 114.541 1555.9 107 1550.78C104.624 1549.17 94.5866 1540.08 92.0654 1543.56C88.8805 1547.96 110.637 1559.71 114 1561.66C122.962 1566.85 132.886 1571.77 143 1574.27C146.366 1575.11 154.449 1574.66 156.52 1577.82C162.039 1586.22 154.811 1619.67 153.677 1630C153.424 1632.31 153.044 1644.48 149.816 1644.48C146.42 1644.48 142.024 1634.51 140.438 1632C135.079 1623.5 122.334 1600.22 111 1601M2011 1538C2004.71 1541.84 1986.59 1564.33 1980.04 1562.38C1971.47 1559.82 1956.43 1534.29 1950.5 1527C1948.59 1524.66 1943.35 1515.35 1939.49 1516.76C1934.23 1518.69 1948.72 1533.95 1950.4 1535.99C1955.83 1542.6 1976.51 1559.86 1974.92 1569.08C1972.06 1585.69 1942.3 1589.28 1940 1607C1950.19 1602.93 1961.92 1591.46 1969.98 1583.86C1972.21 1581.76 1976.69 1574.66 1980.22 1575.21C1986.13 1576.12 1994.42 1593.17 1997.43 1598C2011.59 1620.65 2027.08 1642.83 2040.29 1666C2041.65 1668.39 2052.63 1689.36 2056.68 1683.15C2058.24 1680.75 2049.16 1671.05 2048 1668C2096.64 1676.17 2072.62 1628.32 2067 1603C2079.03 1607.17 2090.83 1600.72 2098.29 1590.86C2100.22 1588.31 2109.97 1576.04 2103.75 1573.89C2099.51 1572.42 2097.13 1583.36 2095.64 1585.78C2089.92 1595.05 2077.36 1600.74 2068 1595C2067.3 1597.72 2067.05 1600.19 2067 1603C2058.13 1592.8 2053.15 1578.84 2044.69 1568C2039.43 1561.27 2034.32 1554.18 2029.72 1546.98C2027.54 1543.57 2013.84 1515.45 2013.88 1515.44C2003.47 1517.31 2021.31 1544.23 2023.89 1548C2040.53 1572.29 2056.59 1594.47 2067.41 1622C2070.82 1630.7 2078 1644.51 2073.49 1653.96C2069.54 1662.22 2052.2 1667.64 2044.62 1661.28C2026.23 1645.86 2015.1 1613.87 2001.54 1594C1997.4 1587.93 1985.97 1577.34 1985.18 1570.14C1983.93 1558.82 2010.88 1551.47 2011 1538M1564.85 1527.54C1562.01 1529.42 1557.57 1543.12 1554.94 1546.93C1541.59 1566.26 1523.55 1580.98 1526.25 1607C1529.08 1634.36 1557.81 1644.52 1576.5 1623.74C1583.36 1616.11 1582.64 1604.07 1578.84 1595C1577.46 1591.73 1571.32 1583.49 1566.87 1586.5C1563.04 1589.1 1573.73 1597.75 1574.55 1601.01C1578.5 1616.68 1564.45 1634.58 1547 1629.4C1537.39 1626.54 1532.22 1613.09 1532.02 1604C1531.46 1578.81 1548.81 1564.78 1563 1545.78C1564.39 1543.93 1571.52 1523.12 1564.85 1527.54M1630 1526C1630.21 1548.41 1636.35 1570.6 1632.64 1593C1631.93 1597.28 1631.45 1611.53 1626.4 1613.24C1622.65 1614.51 1615.37 1603.42 1613.22 1601C1599.18 1585.19 1595.01 1565.17 1584.49 1547.78C1582.99 1545.3 1577.82 1528.82 1575.33 1529.32C1571.62 1530.07 1573.62 1537.86 1574.29 1540C1577.59 1550.56 1584.02 1560.66 1588.12 1571C1592.98 1583.27 1601.29 1596.1 1609.94 1606C1613.96 1610.59 1623.29 1617.52 1623.56 1624C1624.31 1641.43 1602.31 1669.51 1592.78 1683C1587.39 1690.63 1580.03 1701.72 1591 1708C1587.82 1690.97 1611.05 1663.81 1619.95 1648.78C1623.17 1643.35 1624.35 1635.28 1628.52 1630.57C1631.91 1626.74 1641.82 1639.06 1643.89 1633.23C1645.29 1629.32 1633.97 1623.96 1632.68 1619.99C1630.67 1613.83 1636.78 1598.78 1638 1592C1640.91 1575.83 1638.54 1558.13 1636.28 1542C1635.46 1536.12 1636.24 1528.55 1630 1526M542 1674C533.685 1679.74 531.957 1664.52 535.444 1663.18C556.076 1655.23 580.625 1669.45 601.756 1653.85C613.07 1645.5 612.647 1616.06 599 1610C599.106 1621.36 608.552 1635.45 601.138 1645.9C591.242 1659.85 565.827 1657.7 551 1658.03C546.163 1658.14 535.59 1659.9 532.822 1654.54C526.654 1642.6 531.046 1619.07 531.288 1606.14C531.538 1592.81 526.932 1574.31 523.777 1561C522.611 1556.08 524.007 1536.19 518.367 1534.11C512.263 1531.85 517.356 1547.54 517.743 1549C520.389 1559 529.809 1596.57 521.58 1604.2C505.101 1619.48 479.18 1606.05 471.383 1589C463.258 1571.23 469.101 1544.6 477 1528C458.988 1529.75 461.552 1579.86 466.984 1592C473.299 1606.11 486.371 1615.31 502 1614.95C506.986 1614.84 520.306 1609.29 524.06 1612.8C527.82 1616.33 526 1626.35 526 1631C526.001 1645.03 526.76 1660.35 530.183 1674C532.516 1683.3 543.797 1685.24 542 1674M1231 1617C1228.09 1647.72 1221.02 1679.75 1235.66 1709C1242.53 1722.72 1250.85 1736.43 1268.83 1730.4C1270.79 1729.74 1275.27 1725.52 1271.44 1724.11C1264.87 1721.7 1258.2 1728.04 1251.18 1723.08C1241.03 1715.91 1236.19 1696.52 1234.01 1685C1227.21 1649.18 1236.86 1612.47 1232.05 1576C1231 1568.02 1226.76 1534.39 1218.55 1531.11C1214.86 1529.63 1222.66 1558.74 1223.25 1562C1228.26 1589.21 1235.2 1635.27 1190.18 1630.86C1154.98 1627.42 1175.1 1574.26 1183.43 1558C1184.51 1555.88 1197.52 1536.32 1191.32 1538.11C1185.23 1539.86 1179.87 1553.88 1176.9 1559C1160.26 1587.7 1161.12 1655.27 1211 1630.74C1218.83 1626.89 1224.71 1622.99 1231 1617M895 1688C900.14 1677.43 893.611 1662.32 892.001 1651C888.2 1624.27 885.596 1595.99 883.93 1569C883.674 1564.87 883.79 1532.01 882.124 1532.32C873.951 1533.84 878.608 1562.34 878.925 1568C880.497 1596.03 885.196 1623.92 886.93 1652C887.574 1662.44 887.616 1680.06 895 1688M580 1618C577.914 1600.05 577.2 1582.12 575.32 1564C574.995 1560.87 577.709 1547.29 572.946 1548.01C566.299 1549.01 570.066 1562.61 570.562 1567C572.308 1582.47 563.444 1608.16 580 1618M832 1557C821.968 1557.02 815.488 1560.67 807.997 1567.26C782.475 1589.7 781.629 1628.88 823 1631.86C828.545 1632.26 857.442 1631.94 858.677 1624.75C859.73 1618.62 845.114 1624.14 843 1624.69C826.515 1629.05 799.992 1626.75 794.05 1607C785.087 1577.21 824.946 1574.84 832 1557M830 1566C829.014 1567.48 829 1567.2 829 1569C830.766 1568.02 830.955 1567.78 830 1566M237 1576C231.763 1604 232.099 1620.96 208.962 1641.65C205.166 1645.04 184.681 1656.72 186.959 1662.41C188.486 1666.23 211.034 1647.22 214.177 1644.16C238.206 1620.75 236.163 1606.96 239 1576L237 1576M936 1596C967.079 1596.12 1004.31 1651.47 960 1660.39C954.968 1661.41 949.925 1658.79 945 1658C951.882 1674.19 978.346 1662.96 983.517 1651C991.648 1632.18 979.239 1610.35 964.216 1599.37C957.625 1594.56 940.724 1584.42 936 1596M1678 1598C1668.93 1618.91 1684.04 1642.11 1684.6 1663.97C1684.76 1670.57 1672.46 1670.47 1673.32 1674.72C1674.23 1679.17 1684.54 1671.93 1686.62 1678.17C1691.34 1692.27 1687.9 1722.27 1702 1731C1701.65 1713.99 1693.69 1697.82 1692.15 1681.01C1691.52 1674.22 1700.21 1672.36 1699.68 1669.18C1698.97 1664.94 1691.63 1667.46 1690.06 1662.83C1683.17 1642.42 1681.21 1619.13 1680 1598L1678 1598M1993 1631C1978.05 1643.98 1980.15 1669.27 1966.82 1683.98C1937.32 1716.5 1895.78 1675.31 1899.13 1641C1900.53 1626.66 1917.11 1611.54 1931 1617C1931.84 1607.57 1919.63 1609.27 1914 1612.67C1902.28 1619.74 1891.71 1634.54 1894.36 1648.78C1900.42 1681.32 1930.82 1720.06 1966 1692.49C1981.22 1680.56 1991.05 1649.79 1993 1631M1266 1703C1294.08 1699.39 1312.92 1676.75 1297.02 1649C1293.26 1642.45 1278 1628.58 1269.75 1636.91C1267.05 1639.63 1285.07 1643.53 1288.38 1647.26C1297.7 1657.78 1298.98 1671.63 1292.73 1683.98C1287.02 1695.26 1267.97 1691.7 1266 1703M1637.52 1657.54C1632.8 1660.23 1637.57 1670.44 1638.78 1674C1644.54 1690.86 1649.17 1708.43 1652.44 1726C1652.91 1728.51 1655.9 1744.16 1661.08 1740.42C1663.79 1738.46 1658.52 1727.78 1657.89 1725C1654.04 1708.1 1649.69 1691.57 1644.58 1675C1643.83 1672.56 1640.72 1655.73 1637.52 1657.54M875 1893C878.543 1891.08 881.505 1888.35 885.019 1886.36C912.239 1870.94 898.961 1907.65 904.768 1921.85C907.45 1928.41 918.295 1922.38 919.128 1927.33C920.118 1933.22 912.927 1941.85 907.098 1942.19C897.266 1942.76 896.604 1921.66 887.001 1920.54C879.392 1919.66 878.095 1934.15 878 1939C862.967 1929.7 872.902 1890.61 878 1878L870 1881C870.008 1867.91 879.864 1872.05 882 1862C870.476 1864.45 840.204 1863.81 833.278 1875.36C829.68 1881.36 832.963 1897.83 833.003 1905C833.035 1910.94 832.508 1924.68 837.121 1929.12C841.426 1933.26 855.983 1925.27 861.724 1926.4C865.827 1927.21 867.297 1935.84 869.408 1938.96C871.374 1941.87 874.107 1944.32 874.029 1948.08C873.665 1965.7 865.326 1984.72 862.337 2002C860.207 2014.31 863.286 2029.51 863.922 2042C864.361 2050.61 862.995 2067.32 868.343 2074.5C871.562 2078.82 878.776 2076.36 883 2075.3C892.438 2072.92 926.267 2077.47 929.843 2066.89C932.009 2060.48 929.153 2051.63 929.019 2045C928.687 2028.62 935.214 2004.71 928.189 1989.3C923.992 1980.08 905.318 1960.67 907.993 1949.45C908.085 1949.07 927.254 1924.28 928.243 1923.82C933.934 1921.18 941.369 1923.6 946.197 1918.42C954.411 1909.59 945.417 1874.3 941.366 1864.07C938.05 1855.7 926.622 1864.33 921 1866.35C910.949 1869.98 875.116 1878.32 875 1893M931.933 1866.71C938.06 1865.42 938.851 1873.66 939.52 1878C941.159 1888.64 950.392 1914.84 935 1917.58C925.043 1919.35 926.775 1898.92 921.844 1890.99C919.342 1886.97 908.979 1880.7 908.323 1876.88C907.973 1874.84 929.01 1867.32 931.933 1866.71M866 1869C863.992 1880.35 861.745 1894.69 861.118 1906C860.905 1909.84 864.287 1917.74 861.137 1920.66C856.813 1924.66 846.556 1923.07 841 1925C830.839 1898.68 835.051 1871.49 866 1869M909.501 1884.64C921.323 1884.64 929.784 1920.13 914.026 1919.95C902.481 1919.81 906.339 1884.64 909.501 1884.64M479 1888.52C424.303 1897.79 414.957 2012.93 481 2002.36C515.533 1996.83 537.05 1970.81 538.919 1936C540.492 1906.69 505.937 1883.95 479 1888.52M443 1935C443.437 1939.69 443.994 1944.4 445 1949C450.402 1938.45 444.097 1925.65 451.123 1915.05C455.483 1908.47 464.215 1908.06 470 1903L458 1904C479.612 1883.32 518.892 1893.23 530.996 1920C538.963 1937.62 528.729 1968.71 516.299 1981.9C503.167 1995.84 467.343 2005.56 451.239 1991.49C441.094 1982.63 431.232 1945.37 443 1935M138 2025C141.735 2017.24 146.904 2008.91 145 2000C130.951 2014.67 131.597 2031.59 109 2040.41C76.6799 2053.02 56.8846 2002.8 63.0207 1977C65.4386 1966.83 78.1576 1963.29 87 1961.63C89.7418 1961.12 98.3567 1960.34 98.3567 1956.2C98.3567 1951.94 83.1349 1956.08 81 1956.83C45.1705 1969.32 54.543 2031.41 86 2046.09C105.561 2055.22 142.736 2031.05 160 2022C161.011 2025.81 162.607 2029.32 164 2033L149 2032C152.81 2034.92 167.671 2044.3 168.531 2033.93C168.916 2029.28 163.058 2023.92 166.628 2019.75C169.49 2016.41 196.945 2004.53 190.807 1998.1C188.203 1995.37 168.326 2017.46 161.774 2013.72C156.523 2010.73 153.108 1993.62 151.21 1988C144.146 1967.09 135.695 1944.95 126.323 1925C125.069 1922.33 115.852 1896.28 112.248 1900.1C107.374 1905.28 119.843 1925.04 122.155 1930C131.953 1951.01 139.666 1973.27 147.719 1995C149.647 2000.2 157.434 2011.22 155.321 2016.68C153.414 2021.6 142.597 2023.81 138 2025M867 1901C867.016 1905.08 867.288 1908.98 868 1913C864.477 1909.9 864.298 1905.43 865 1901L867 1901M164 1911C160.125 1922.31 169.18 1936.84 174.288 1947C186.675 1971.63 193.869 1998.85 205.017 2024C208.981 2032.94 211.796 2046.12 220 2052C223.752 2040.5 210.322 2025.54 206.194 2015C192.843 1980.9 175.594 1946.2 166 1911L164 1911M867 1915.33C867.889 1915.33 867.889 1916.67 867 1916.67C866.111 1916.67 866.111 1915.33 867 1915.33M496.757 1917.14C477.516 1914.56 467.792 1927.92 470.633 1944C471.57 1949.31 472.267 1960.9 478.78 1962.52C484.573 1963.96 511.214 1956.63 512.892 1950.65C514.191 1946.03 507.818 1939.11 506.008 1935C504.171 1930.83 501.962 1917.84 496.757 1917.14M492.971 1922.72C497.364 1922.74 507.684 1944.27 506.739 1948.52C505.858 1952.47 486.911 1957.02 483.062 1956.77C467.835 1955.76 474.992 1922.64 492.971 1922.72M209.903 1924.54C205.296 1927.64 212.051 1941.21 213.336 1945C220.137 1965.07 233.634 1983.88 243.001 2003C244.321 2005.69 251.214 2025.22 254.374 2023.89C258.941 2021.98 249.14 2003.92 247.728 2001C238.268 1981.47 224.547 1962.71 218.054 1942C217.345 1939.74 212.385 1922.88 209.903 1924.54M887 1925C890.909 1931 895.116 1936.39 898 1943C883.408 1945.82 879.156 1936.94 887 1925M880.494 1947.86C899.377 1938.68 908.194 1963.68 913.088 1976C914.553 1979.69 921.789 1989.95 916.49 1992.94C910.693 1996.2 876.104 1999.77 871.278 1994.74C867.032 1990.31 875.196 1950.44 880.494 1947.86M530 2092C536.802 2083.96 533.539 2074.66 534.081 2065C535.162 2045.71 538.628 2026.27 540.681 2007C541.462 1999.66 541.035 1988.75 546 1983C546.831 1999.87 565.18 2023.12 573.438 2038C576.042 2042.69 584.062 2054.59 582.803 2060.08C578.661 2078.11 539.749 2075.1 537 2095C546.592 2091.61 587.36 2073.13 589.319 2062.78C591.59 2050.78 573.518 2027.12 567.888 2017C561.34 2005.23 552.851 1991.87 548.835 1979C548.195 1976.95 548.508 1965.74 544.981 1966.3C539.532 1967.18 537.023 1991.35 536.446 1996C532.484 2027.88 530 2059.89 530 2092M913 1997.64C916.04 1997.52 922.527 1996.22 924.74 1998.84C927.478 2002.08 926 2010.04 926 2014C926 2025.5 930.155 2054.36 924.74 2063.85C920.803 2070.76 884.444 2071.49 876.14 2071.2C869.993 2070.98 870.548 2060.36 870.096 2056C868.804 2043.55 861.477 2014.86 867.822 2003.69C870.681 1998.65 906.249 1997.92 913 1997.64z"/>
</svg>
