<?xml version="1.0" standalone="yes"?>
<svg xmlns="http://www.w3.org/2000/svg" width="2200" height="2200">
<path style="fill:#0d0d0d; stroke:none;" d="M1028 314C1010.89 310.662 994.576 330.844 979 336.314C954.429 344.943 925.53 340.851 900 344.309C884.521 346.406 863.453 352.852 848.04 348.414C840.254 346.172 828.478 335.173 823.397 328.981C801.818 302.685 807.897 275.596 808.96 245C809.622 225.932 808.711 206.88 812.283 188C824.786 121.913 885.419 28.4773 964 55.488C998.261 67.2646 1015.04 101.794 1022.01 135C1037.19 207.278 992.618 299.266 917 316.263C888.308 322.712 867.333 302.657 862.516 275C856.139 238.386 867.056 179.213 892.323 151.217C907.487 134.416 923.293 122.432 942 110.07C947.673 106.32 962.54 102.396 968.017 108.501C977.607 119.194 969.186 137.973 968 150C986.01 145.622 982.89 88.2493 955 98.3506C891.757 121.256 864.433 178.842 856.942 241C853.867 266.511 857.602 307.041 884.003 320.492C913.084 335.31 952.181 309.022 973.001 291.323C1030.66 242.305 1046.42 155.434 1010.4 88C981.251 33.4294 904.291 36.2224 864.564 77.2175C820.883 122.294 808.946 171.65 804.64 232C803.042 254.391 797.253 277.722 802.679 300C807.135 318.296 819.061 339.249 836.217 348.275C847.484 354.203 869.426 350 882 350C922.734 350 967.585 351.768 1003 330.256C1010.13 325.926 1023.54 320.839 1028 314M541 105C545.248 104.23 548.984 102.521 553 101C552.998 120.749 549.56 140.381 548.062 160C547.357 169.224 549.317 182.215 546.278 190.851C544.351 196.327 524.669 195.961 520.94 192.178C511.667 182.775 525.898 160.963 518 151C516.244 159.901 518.849 189.623 509.93 193.16C504.26 195.408 495.947 192.24 490 192.04C474.665 191.525 460.256 193.674 445 190.715C441.992 190.131 426.265 184.097 425.323 189.125C424.645 192.744 442.174 194.982 445 195.701C461.115 199.799 479.475 196.217 496 197.077C500.453 197.309 510.798 196.852 513.178 201.461C522.274 219.071 506.291 260.929 500.162 277.997C497.755 284.703 491.451 290.716 492 298C483.79 300.154 479.442 308.632 470.997 310.433C450.801 314.74 446.421 290.435 445.118 276C444.743 271.851 445.09 261.815 440.466 259.728C435.281 257.388 439.424 275.768 439.687 278C442.09 298.436 449.568 319.831 475.001 314.55C505.264 308.266 513.583 248.281 517.609 224C518.701 217.419 516.924 207.175 519.822 201.303C522.114 196.659 539.074 197.929 542.638 200.822C549.365 206.281 544.007 229.173 544 237C543.971 268.793 534.692 312.729 544 343C548.366 337.083 545.473 326.187 546.416 318.96C549.914 292.156 548 264.004 548 237C548 228.943 546.503 209.873 551.822 203.483C555.283 199.324 587.723 196.39 590.682 200.824C594.294 206.238 587.762 225.59 586.86 232C583.981 252.48 581.601 280.499 590.722 299.78C603.855 327.541 638.631 301.635 643.959 283C644.638 280.623 649.796 261.295 644.139 262.323C639.93 263.088 640.152 276.615 639.234 279.993C635.355 294.262 624.795 306.578 609 303.415C580.732 297.755 589.681 243.358 593.261 223C594.399 216.529 594.373 204.674 598.814 199.567C606.351 190.897 640.986 198.971 652 199C645.001 184.347 609.802 202.889 602.477 190.396C598.874 184.249 604.085 173.339 604.885 167C606.594 153.453 605.318 139.751 599.963 127C595.471 116.304 587.452 106.716 578 100.024C573.631 96.9309 563.484 96.8438 561.564 91.8447C559.771 87.1763 562.048 47.9404 558.346 49.2236C550.801 51.8386 556.779 86.0439 554.138 92.9001C551.974 98.5205 544.254 99.8816 541 105M1203 81C1217.25 83.7488 1231.94 82.1926 1246 85.2388C1259.02 88.0613 1271.87 95.9155 1285 97.7349C1291.25 98.6011 1313.25 96.2983 1316.48 102.496C1320.52 110.23 1315.01 132.165 1314.22 141C1311.07 176.101 1311.09 211.214 1306.82 246C1306 252.708 1306.54 285.563 1298.87 286.776C1284.45 289.056 1291.89 252.184 1292 245C1292.48 216.202 1294.55 184.819 1297.15 156C1298.21 144.325 1304.56 128.509 1302.67 117.051C1301.63 110.724 1282.74 106.87 1277.42 109.079C1268.46 112.803 1269.52 151.904 1267.56 161C1260.8 192.356 1258.31 225.266 1253.3 257C1251.79 266.547 1248.19 285.696 1253.8 293.997C1263.47 308.302 1276.62 304.904 1290.99 307.287C1293.43 307.692 1302.28 313.968 1296.45 315.641C1273.23 322.307 1244.5 303.007 1221 303C1215.19 302.998 1199.63 304.209 1196.72 297.724C1192.57 288.489 1201.2 266.066 1202.54 256C1206.31 227.734 1202.19 198.515 1205.56 170C1207.99 149.433 1209.83 126.661 1210 106C1210.03 102.439 1214.73 84.1714 1206.5 86.1868C1201.04 87.5234 1204.05 101.932 1204.01 106C1203.83 126.68 1200.77 147.306 1200.03 168C1198.82 201.587 1198.97 235.712 1194.14 269C1193 276.898 1184.81 298.741 1190.94 305.211C1194.34 308.796 1203.4 307.734 1208 308.302C1224.32 310.318 1238.84 311.076 1255 314.482C1267.08 317.03 1295.64 328.389 1306.83 321.929C1314.54 317.476 1302.28 304.323 1297 302.49C1283.64 297.859 1269.75 304.903 1259.32 291.956C1254.31 285.734 1256.81 268.718 1257.69 261C1260.95 232.289 1264.71 201.216 1270.68 173C1273.91 157.764 1276.2 142.443 1278.18 127C1278.83 121.901 1279.48 113.963 1286.03 113.321C1305.74 111.388 1294.61 139.625 1294.08 150C1292.07 189.281 1286.06 227.948 1284.08 267C1283.63 275.943 1291.39 313.423 1306.33 291.396C1312.55 282.23 1310.05 264.62 1311.6 254C1316.92 217.589 1317.04 179.778 1320.13 143C1320.89 133.836 1328.86 105.054 1324.36 97.8457C1319.9 90.6909 1299.19 94.218 1292 93.959C1269.03 93.1309 1248.17 79.1304 1224 78.9976C1217.31 78.9607 1207.65 74.8848 1203 81M1651 146C1652.35 143.613 1652.93 141.745 1653 139C1654.87 138.859 1656.25 138.642 1658 138L1655 138C1662.79 132.576 1670.7 127.79 1676.45 119.922C1677.49 118.505 1680.61 111.521 1682.85 112.082C1687.16 113.16 1678.49 134.128 1677.38 137C1668.19 160.795 1650.7 186.123 1636.29 207C1634.08 210.203 1613.87 234.2 1617.67 236.372C1622.1 238.909 1644.02 222.322 1649 219.677C1680.93 202.705 1712.2 172.91 1746 161C1723.06 208.651 1689.03 245.22 1654.32 284C1649.24 289.677 1628.72 322.294 1622.17 321.705C1613.79 320.952 1600.75 301.758 1595 296C1585.48 286.467 1561.59 266.843 1559.38 253C1558.54 247.761 1563.3 243.187 1566.68 239.959C1576.38 230.716 1592.61 206.342 1604 202C1611.99 183.575 1635.23 164.943 1648 149C1635.38 148.93 1608.84 183.427 1609 195L1607 192C1605.61 193.314 1604.87 194.298 1604 196L1607 195C1604.32 197.263 1600.93 197.115 1601 201C1587.11 206.444 1572.65 227.487 1562.04 237.922C1558.34 241.562 1551.01 247.051 1551.74 252.993C1553.3 265.576 1579.93 287.409 1588.44 296.999C1594.38 303.697 1614.26 329.686 1623.13 330.685C1629.92 331.449 1651.15 297.681 1655.68 292C1685.92 254.063 1718.11 223.361 1741.35 179.758C1744.18 174.465 1765.13 150.078 1762.69 145.512C1759.84 140.212 1741.84 155.146 1739 157.438C1715.96 176.037 1688.53 189.256 1664.04 205.883C1661.07 207.9 1638.6 222.421 1636.46 219.774C1634.91 217.847 1652.31 189.559 1654.85 186C1672.09 161.764 1683.23 138.926 1689.59 110C1691.17 102.799 1698.27 93.6904 1696.44 86.1772C1694.98 80.2161 1690.27 86.6672 1688.93 89.012C1680.42 103.913 1672.19 116.081 1660.68 129C1656.41 133.803 1648.76 138.993 1651 146M1944 95C1942.08 99.9829 1942 104.715 1942 110C1943.23 107.939 1943.66 106.385 1944 104C1960.3 112.319 1968.79 134.959 1972.12 152C1979.72 190.835 1975.04 233.019 1985 271C1996.82 260.608 2001.5 231.855 2004.51 217C2011.24 183.803 2029.78 150.266 2031 116C2040.13 122.896 2039.61 142.597 2039.96 153C2041.07 186.14 2045 218.772 2045 252C2057.76 248.797 2066.24 238.183 2074.9 229.052C2094.09 208.809 2119.32 183.533 2125 155C2116.75 164.208 2112.46 176.911 2105.21 187C2089.9 208.307 2069 229.348 2048 245C2051.34 210.535 2045.87 173.613 2043.92 139C2043.71 135.327 2037.26 106.509 2031.33 111.969C2024.8 117.976 2022.11 141.366 2020.5 150C2015.56 176.548 2007.66 204.784 1998.09 230C1994.81 238.628 1991.88 251.563 1984 257C1991.66 221.243 1983.67 163.618 1969.93 130C1964.65 117.072 1957.21 101.405 1944 95M562.306 101.79C570.834 98.1287 580.992 109.529 585.813 115.001C599.636 130.69 602.577 154.329 599.1 174C597.768 181.541 599.449 189.855 590.919 193.532C586.566 195.409 581.607 194.84 577 195.32C571.549 195.889 558.379 198.523 553.829 194.74C546.165 188.369 555.946 152.402 555.997 143C556.042 134.922 553.188 105.703 562.306 101.79M537 106L537 108L540 108L540 106L537 106M2141 110C2131.07 154.678 2121.26 199.015 2111.78 244C2107.65 263.596 2099.59 287.188 2113.18 304.812C2125.32 320.547 2162.55 291.471 2158 277C2146.39 283.179 2136.35 302.835 2122.01 303.12C2104.11 303.476 2111.86 267.335 2113.49 258C2119.68 222.654 2126.29 186.708 2135 152C2137.81 140.774 2147.23 120.816 2141 110M189 191C178.749 171.697 166.741 154.058 151.854 137.962C150.58 136.585 134.076 119.132 133.565 125.588C133.199 130.213 141.216 136.937 144.059 140C154.448 151.193 163.079 162.794 172.125 175C173.896 177.39 184.32 189.629 179.156 192.346C173.417 195.367 153.102 187.336 147 185.389C128.437 179.466 97.1959 171.852 78 176C86.0267 186.2 102.105 184.153 114 185.062C132.422 186.469 167.65 191.19 182.853 202.001C192.41 208.798 191.439 224.812 190.82 235C189.152 262.487 189 290.476 189 318C195.342 315.088 192.655 305.876 193.196 300C194.89 281.598 195 263.495 195 245C195 240.742 192.924 226.958 196.848 224.13C198.789 222.731 210.314 233.052 212.432 234.79C228.051 247.606 243.297 261.715 257.695 275.804C259.524 277.594 274.482 290.933 275.985 285.575C277.261 281.024 264.969 272.659 261.997 270.066C245.912 256.032 231.555 238.984 213.885 226.852C209.83 224.068 193.62 213.622 196.709 207.107C198.728 202.85 218.429 206.204 223 205.885C246.88 204.218 269.051 200.481 292.885 199.912C299.865 199.745 311.286 200.704 314 193C286.751 193.519 260.006 194.518 233 197.823C226.432 198.627 209.498 202.856 209 193C205.76 193.52 199.681 196.535 197.149 193.308C194.359 189.75 196.995 179.428 197 175C197.022 156.142 201.998 137.683 202 119C195.598 121.614 196.749 130.028 195.376 136C191.628 152.294 196.733 176.689 189 191M529 120L530 121L529 120M525 127L526 128L525 127M1662 131.333C1662.89 131.333 1662.89 132.667 1662 132.667C1661.11 132.667 1661.11 131.333 1662 131.333M521 141L521 146C521.886 143.872 521.915 143.109 521 141M1647 145L1648 146L1647 145M1939 147C1940.63 146.455 1940.46 146.635 1941 145C1939.36 145.545 1939.55 145.365 1939 147M520.667 150.333C520.222 150.778 521.278 150.722 521.333 150.667C521.778 150.222 520.722 150.278 520.667 150.333M1640 156L1639 157L1640 156M1747 159L1746 160L1747 159M1938 160L1938 166C1938.75 163.697 1938.75 162.303 1938 160M1626 171L1625 172L1626 171M1939 173L1940 174L1939 173M1939 175C1939.2 176.552 1939.23 176.656 1940 178L1939 175M1939 179L1940 180L1939 179M1939 181C1939.02 187.101 1939.67 193.043 1941 199C1942.15 193.634 1941.53 185.891 1939 181M210 189L211 190L210 189M1942 200C1942 204.751 1941.83 209.372 1943 214C1944.39 209.423 1943.82 204.39 1942 200M1600 205C1601.18 204.227 1601.23 204.176 1602 203C1600.36 203.545 1600.55 203.364 1600 205M1597 207L1596 208L1597 207M1942 215C1942 246.28 1935.46 270.165 1923.28 299C1920.83 304.788 1909.21 325.149 1900.45 319.223C1884.6 308.498 1902.7 265.979 1887 258C1883.55 277.663 1891.51 347.069 1920.72 316.136C1925.26 311.321 1925.07 302.257 1927.76 296.136C1939.97 268.441 1944 245.098 1944 215L1942 215M173 217C174.277 218.897 174.823 219.259 177 220C175.723 218.103 175.177 217.741 173 217M179 217L180 218L179 217M169 221C170.582 223.092 171.106 222.733 173 221L169 221M164.333 226.667C164.278 226.722 164.222 227.778 164.667 227.333C164.722 227.278 164.778 226.222 164.333 226.667M161 227C161.773 228.176 161.824 228.227 163 229C162.455 227.365 162.635 227.545 161 227M154.667 233.333C154.222 233.778 155.278 233.722 155.333 233.667C155.777 233.223 154.722 233.278 154.667 233.333M146 239C147.175 238.227 147.227 238.175 148 237C146.365 237.545 146.545 237.365 146 239M137 245L138 246L137 245M130 249C133.04 249.408 134.256 248.455 136 246C133.791 246.824 131.959 247.695 130 249M125 253C126.778 253.956 127.021 253.766 128 252L125 253M117.967 255.615C111.877 256.447 104.322 269.207 112.088 268.033C116.548 267.359 127.964 254.25 117.967 255.615M1849 452C1854.55 437.816 1852.78 413.16 1865.04 403.125C1885.07 386.733 1935.73 410.212 1939.68 434C1947.04 478.288 1939 537.707 1928.94 581C1924.49 600.143 1914.14 618.046 1913.08 638C1912.1 656.423 1916.72 697.867 1942.98 697.667C1949.54 697.617 1952.82 689.819 1956.21 685.32C1967.9 669.83 1973.9 656.728 1977.72 638C1991.29 571.32 1985.97 500.509 2001 435C1989.35 443.299 1989 489.113 1989 503C1988.99 536.999 1983.09 570.563 1977.76 604C1975.38 618.913 1976.02 634.539 1971.46 649C1967.37 661.999 1956.26 685.529 1943.21 691.561C1937.39 694.25 1930.47 685.773 1927.23 681.999C1916.21 669.147 1915.93 648.035 1917.18 632C1918.56 614.343 1928.68 598.042 1932.66 581C1941.3 544.031 1944.54 502.834 1942.51 464.981C1941.74 450.823 1946.45 434.247 1939.5 421.007C1926.68 396.587 1876.95 384.641 1857.74 406.081C1845.89 419.308 1849 435.304 1849 452M2002 431C2007.2 427.956 2012.61 418.015 2018.58 417.34C2041.25 414.779 2034.34 463.957 2033.99 475C2032.35 527.04 2019 578.474 2019 631C2019 643.01 2014.25 697.468 2036.9 695.119C2053.57 693.391 2061.74 655.789 2063.58 643C2067.7 614.364 2077.44 586.535 2081.9 558C2085.66 533.965 2082.12 509.934 2087.81 486C2091.87 468.961 2093.61 452.654 2105.45 438.328C2108.68 434.415 2114.79 426.773 2120.74 428.231C2141.27 433.258 2132.14 483.117 2130.3 497C2123.36 549.46 2100.34 599.017 2094.35 651.68C2091.66 675.382 2087.74 705.646 2064 716C2086.65 723.675 2094.96 678.64 2096.98 663.019C2104.62 603.871 2127.49 547.922 2136.29 489C2138.9 471.529 2145.02 437.768 2127.7 425.803C2106.68 411.284 2089.59 460.143 2086.04 472.217C2078.97 496.205 2080.87 524.195 2078.86 549C2076.2 581.746 2067.73 619.671 2057.72 651C2055.91 656.661 2053.91 662.379 2051.97 668C2047.84 680.022 2032.71 698.164 2025.56 677C2019.71 659.661 2019.98 632.75 2023.23 614.864C2026.77 595.348 2028.78 572.914 2029 553C2029.33 523.382 2039.65 493.515 2038.81 464C2038.49 453.073 2040.94 435.948 2036.3 426.007C2027.08 406.279 2008.3 412.793 2002 431M1625.1 449.271C1620.98 450.814 1620.71 457.098 1625.99 455.266C1630.57 453.678 1630.25 447.343 1625.1 449.271M149.014 456.087C139.682 459.028 135.451 482.795 132.062 491C118.67 523.426 100.711 553.747 87.2229 586.007C84.2267 593.174 71.8367 609.021 74.0878 616.702C77.3694 627.9 108.364 644.737 117.998 651.618C127.189 658.183 155.564 692.91 167.307 688.001C171.136 686.401 170.996 662.559 171 658C171.021 634.669 170 611.363 170 588C170 581.756 167.833 566.788 172.211 561.786C175.224 558.343 182.527 571 183.971 573C193.233 585.83 202.413 598.373 212.952 610.217C214.485 611.94 222.506 625.49 224.948 617.624C226.879 611.4 220.228 592.781 218.496 586C210.356 554.121 187.879 520.315 172.188 491C168.921 484.895 157.51 453.409 149.014 456.087M2015 456C2013 517.967 2006.91 589.544 1984.24 648C1977.15 666.285 1973.08 689.94 1956.91 702.976C1928.21 726.129 1880 711.614 1865.58 682C1855.93 662.194 1858.05 637.329 1857.65 616C1857.06 585.07 1851.09 554.669 1850 524C1844.29 540.854 1851.63 562.674 1851.98 580C1852.68 614.634 1843.18 685.054 1877.02 708.146C1890.32 717.222 1906.7 717 1922 717C1932.65 717 1944.25 717.61 1954 712.734C1986.87 696.295 1978.29 648.671 1998 624C1998.13 647.648 1976.4 716.977 2014 717C1988.43 697.078 2000.74 681.188 2002.87 653C2006.28 607.767 2008.08 562.05 2013.07 516.864C2014.78 501.356 2025.14 469.466 2015 456M217 604C203.105 596.447 194.682 577.144 185.145 565C182.338 561.425 175.962 551.78 170.517 552.489C166.948 552.953 166.162 572.573 166.04 576C165.15 600.929 166 626.044 166 651C166 655.501 167.503 678.828 159.759 678.108C150.828 677.279 134.162 657.766 127 651.715C115.742 642.203 85.9687 627.22 80.3974 613.915C77.8188 607.756 86.621 596.191 89.4609 590.864C100.22 570.682 110.757 550.356 121.2 530C129.512 513.797 133.115 496.283 140.935 480C142.713 476.299 145.912 464.401 151.557 465.649C157.013 466.855 161.04 480.56 163.385 485C173.762 504.642 181.197 525.727 192.393 545C203.567 564.233 215.522 580.891 217 604M1576 470.438C1556.81 472.598 1534.16 476.321 1515 473.074C1509.49 472.139 1494.59 467.523 1490.26 472.822C1487.26 476.499 1488.82 486.559 1489.22 491C1490.52 505.626 1490 520.318 1490 535C1490 578.653 1487.7 622.547 1492.94 666C1494.07 675.339 1490.88 699.972 1498.18 706.748C1503.55 711.73 1523.08 710.399 1530 709.783C1544.11 708.525 1555.97 703.005 1568.99 698.099C1572.02 696.958 1578.05 700.164 1579.78 698.216C1586.93 690.205 1584.67 665.526 1587.26 655C1598.03 611.195 1606.29 567.296 1614.44 522.922C1616.47 511.873 1631.59 482.876 1625.39 472.542C1621.98 466.853 1583.11 469.638 1576 470.438M1622 476C1619.2 504.114 1609.14 532.297 1602.89 560C1597.37 584.47 1594.18 609.012 1586.23 633C1583.43 641.448 1582.71 675.291 1575 678C1572.11 656.421 1560.83 638.957 1553.02 619C1544.46 597.142 1539.11 572.631 1532.93 550C1531.36 544.269 1520.98 508.579 1517.82 514.512C1512.98 523.616 1529.84 555.363 1533.38 565C1544.67 595.771 1552.03 625.853 1565.7 656C1568.38 661.907 1576.22 682.71 1572.58 688.417C1559.77 708.466 1518.36 702.172 1500 701C1501.63 663.589 1494.97 625.364 1493.08 588C1492.16 569.852 1496 552.097 1496 534C1496 524.144 1488.46 484.322 1495.76 478.421C1503.57 472.12 1517.39 479.201 1526 478.521C1558.04 475.992 1590.42 478.25 1622 476M581 587C572.684 603.775 555.037 616.115 542 629.007C526.603 644.233 514.428 661.717 499.644 677.058C494.165 682.744 480.751 702.404 473.769 704.012C468.389 705.251 462.879 695.264 459.861 692C446.113 677.132 433.867 660.53 421.719 646.043C419.791 643.743 414.96 643.772 413.418 646.504C410.306 652.017 419.009 660.075 422.32 663.438C434.49 675.801 447.116 688.08 458.68 701C461.824 704.513 467.691 714.189 472.941 714.239C478.616 714.293 494.991 689.392 499.992 684.783C508.227 677.192 512.538 667.066 520.086 659C536.249 641.729 554.764 626.77 570.436 609C578.045 600.371 590.64 589.001 592 577C563.522 583.054 534.825 597.748 508 609.285C503.838 611.075 484.95 622.568 481.287 618.953C478.182 615.89 490.089 594.595 491.589 590C501.665 559.137 526.442 529.685 531 497C522.591 499.36 519.863 513.666 516.499 521C505.188 545.661 494.244 570.967 483.673 596C480.973 602.394 467.48 620.324 475.819 626.719C481.318 630.936 497.788 620.178 503 617.62C527.151 605.77 554.627 592.694 581 587M1269 581C1274.4 578.956 1291.73 578.861 1294.74 575.178C1297.31 572.027 1296.03 564.799 1295.99 561C1295.89 551.319 1297.64 517.051 1289.63 511.247C1279.2 503.683 1244.46 511.297 1233.28 515.597C1226.85 518.073 1231.49 528.469 1232.41 533C1234.35 542.595 1237.71 568.968 1233.31 577.716C1229.56 585.166 1205.45 581.026 1199 579.398C1196.59 578.79 1188.24 576.38 1187.28 580.358C1186 585.714 1201.75 588.123 1205 588.656C1209.99 589.473 1232.34 588.844 1234.18 592.37C1238.59 600.843 1236.98 623.189 1237 633C1237.01 635.918 1235.47 645.306 1239.35 646.351C1244.47 647.728 1242.02 635.432 1242 633C1241.94 622.14 1234.57 596.854 1241.14 587.664C1245.39 581.72 1264.33 573.762 1269 581M1277 515.42C1290.89 513.084 1292.66 558.358 1288.06 567.716C1286.38 571.124 1282.28 571.109 1279 570.739C1264.92 569.154 1256.14 577.364 1243.15 577.796C1237.6 577.98 1239.74 569.51 1239.42 566C1238.46 555.572 1234.11 533.951 1238.32 524.39C1239.96 520.686 1271.35 516.369 1277 515.42M806 690C834.19 687.884 860.221 656.77 891 658.845C904.743 659.772 931.673 672.253 944 679.1C949.905 682.38 957.549 691.838 965.501 688.921C968.995 687.639 969.554 679.149 970.165 676C972.866 662.099 971.319 647.159 973.28 633C973.83 629.024 975.637 620.592 970.716 618.517C965.5 616.318 953.601 624.26 949 626.638C933.754 634.519 910.943 649.65 894 651.656C884.551 652.774 877.683 645.69 870 641.551C855.104 633.528 836.778 622.216 821 617C834.214 603.504 859.772 602.227 877 596.72C880.357 595.648 894.883 591.474 895.559 587.734C896.618 581.872 881.921 576.523 878.136 574.386C857.962 562.995 839.801 549.895 820.321 537.581C817.102 535.546 800.525 521.396 798.458 524.087C796.234 526.983 802.355 534.279 803.436 537C807.624 547.542 808.472 560.896 810.562 572C815.001 595.587 809.194 620.478 808.295 644C807.653 660.826 811.524 673.777 806 690M812.466 539.541C816.368 539.002 824.854 547.162 827.922 549.451C841.528 559.603 855.978 565.592 869.96 574.739C873.218 576.871 884.16 583.048 883.574 587.62C883.043 591.763 872.06 591.843 869 592.542C853.659 596.044 837.412 606.163 822.14 607.859C817.173 608.41 817.498 602.333 817.721 599C818.787 583.06 813.924 570.214 812.929 555C812.767 552.519 808.93 540.03 812.466 539.541M880 657C861.203 657.442 835.598 681.212 818.365 677.321C813.774 676.285 815.043 668.417 814.815 665C814.144 654.923 809.433 630.279 816.34 621.889C819.317 618.273 828.966 627.272 831.68 628.904C844.157 636.405 874.253 642.799 880 657M962 682C943.363 671.853 921.671 662.719 901 658C909.157 645.052 936.209 636.849 950 631.068C953.104 629.767 963.118 623.549 966.194 625.462C969.645 627.609 967.03 636.813 966.529 640C964.339 653.928 967.079 668.724 962 682M856 1000C894.961 993.375 880.042 913.882 880 886C891.543 890.154 904.033 905.676 917.019 902.191C939.302 896.209 956.327 893.708 962.484 867C964.169 859.69 961.104 851.256 963.384 844.166C965.016 839.09 976.231 842.686 975.456 837.118C974.683 831.556 964.341 834.862 961.685 829.845C955.786 818.702 959.1 807.585 946.921 798.977C926.22 784.345 877.317 771.01 862.655 802C860.055 807.495 865.188 815.166 865.783 821C866.34 826.469 864.325 839.367 865.734 843.256C869.588 853.896 874.479 859.808 875.522 873C878.014 904.536 881.915 952.008 871.512 982C868.455 990.812 859.035 992.39 856 1000M888 790.505C908.575 785.938 913 792.171 913 811C913 816.423 916.334 832.974 909.851 834.642C903.21 836.352 880.888 843.301 875.604 838.95C870.913 835.087 873.098 824.37 872.989 819.001C872.7 804.684 866.655 795.243 888 790.505M921.284 793.146C930.391 790.772 950.918 808.894 953.205 817.136C954.012 820.047 957.085 832.205 953.477 833.421C949.744 834.679 920.496 834.84 918.88 832.176C916.09 827.575 915.821 794.57 921.284 793.146M1221 797.468C1213 798.048 1193.76 794.765 1188.69 802.664C1182.61 812.121 1190 843.165 1190 855C1190 908.175 1194.37 966.774 1203.52 1019C1207.08 1039.27 1225.91 1057.08 1247 1054.76C1298.31 1049.12 1328.46 969.253 1284.92 934.526C1252.54 908.703 1249.93 976.217 1251.47 992C1252.23 999.727 1240.41 1011.21 1234.04 1002.5C1228.4 994.789 1233.29 970.581 1232.96 961C1231.66 923.397 1226.12 882.527 1229.69 845C1230.6 835.388 1234.65 796.476 1221 797.468M1222 803C1228.65 853.144 1226.24 908.314 1226.36 959C1226.38 969.241 1221.87 1006.27 1233.03 1009.95C1266.87 1021.15 1254.09 970.234 1257.74 954.003C1260.15 943.284 1269.54 928.518 1281.46 939.526C1301.68 958.188 1305.13 1001.18 1289.01 1023C1273.11 1044.53 1243.44 1060.35 1220.66 1039.42C1204.99 1025.02 1206.64 996.68 1205.96 977C1204.59 937.381 1196 897.924 1196 858C1196 845.487 1190.11 818.418 1195.08 807.501C1197.2 802.824 1216.81 803.955 1222 803M1531 807.475C1526.64 807.962 1522.35 808.969 1518 809.543C1515.06 809.931 1500.87 807.377 1499.76 809.795C1497.09 815.651 1516.61 815.042 1519 814.861C1534.78 813.667 1549.35 817.836 1565 816.764C1572.78 816.231 1584.3 813.726 1588.18 823.086C1593.07 834.882 1585.83 853.209 1583.62 865C1576.43 903.438 1561.93 1010.1 1624 1007.95C1644.08 1007.26 1648.61 981.495 1653.02 966C1662.83 931.518 1657.65 892.473 1660.14 857C1661.18 842.135 1661.16 823.365 1677 816.772C1695.81 808.943 1713.88 821.949 1733 821.078C1736.3 820.927 1746.43 824.002 1748.67 821.703C1754.43 815.784 1735.92 815.001 1734 815C1709.9 814.993 1680.05 797.626 1661.68 822.041C1654.34 831.804 1656 855.958 1656 868C1655.99 898.184 1654.7 930.388 1648.72 960C1645.41 976.431 1640.62 1003.13 1619 1001.92C1587.04 1000.12 1582.19 962.295 1583.04 937C1584.06 906.691 1590.67 876.868 1592.03 847C1592.41 838.68 1597.32 824.588 1592.18 817.196C1585.53 807.62 1542.48 806.194 1531 807.475M1903 822C1917.06 812.864 1939.83 816.639 1956 817.471C1974.61 818.428 1993.16 814.553 2012 816.696C2019.22 817.517 2040.85 814.843 2044.31 822.156C2059.52 854.291 2038.69 897.423 2046 931C2023.23 918.046 1977.28 929 1951 929C1947.48 929 1918.2 927.381 1925.31 934.071C1928.17 936.76 1942.73 934 1947 934C1969.42 934 1991.67 934.201 2014 932.217C2018.11 931.853 2040.48 929.549 2042.02 934.015C2043.81 939.219 2021.17 955.557 2017 958.196C1991.42 974.371 1966.11 997.185 1943.96 1017.68C1939.97 1021.37 1924.07 1039.18 1918.61 1037.96C1908.79 1035.76 1917.66 997.563 1918.54 991C1924.25 948.828 1918.61 904.848 1923.32 862C1924.11 854.8 1934.71 824.259 1922.11 824.103C1916.69 824.036 1920.88 834.101 1920.81 837C1920.51 849.86 1918.46 863.265 1916.6 876C1911.52 910.78 1918.8 946.708 1914.55 981C1912.28 999.359 1903.05 1031.1 1912.84 1048.42C1916.09 1054.17 1942.81 1048.59 1948 1046.51C1978 1034.45 2008.11 1034.02 2039 1041.7C2050.06 1044.46 2058.33 1051.23 2070 1053C2068.72 1043.91 2054.41 1040.93 2047 1037.75C2021.43 1026.76 1988.5 1028.74 1962 1034.66C1957.3 1035.71 1929.28 1048.17 1926.76 1041.19C1925.09 1036.55 1940.06 1027.27 1943.08 1024.4C1961.88 1006.47 1984.25 993.623 2002.96 976.039C2016.6 963.227 2044.52 948.49 2052.67 931.687C2054.75 927.396 2048.66 914.308 2049.14 908C2051.11 881.849 2057.45 846.642 2050.28 821.041C2046.35 807.013 2028.89 811.619 2018 811.078C1990.38 809.704 1958.25 807.341 1931 811.139C1920.04 812.668 1907.03 808.932 1903 822M160 828C160.808 834.943 165.983 840.105 166.813 847C171.672 887.349 170.811 934.133 169.981 975C169.678 989.935 169.18 1004.08 169.922 1019C170.115 1022.88 167.827 1031.14 170.289 1034.29C175.01 1040.34 182.315 1012.75 183.457 1010C193.553 985.677 209.179 953.355 211 927C232.421 940.129 254.651 950.416 277 961.677C279.753 963.065 297.254 974.093 298.897 969.17C302.265 959.079 279.489 946.876 274.222 941.713C267.32 934.947 263.332 925.648 256.176 919.1C237.125 901.666 213.992 889.035 194.34 872.607C180.025 860.641 176.212 831.131 160 828M925.029 840.39C931.768 839.14 951.144 837.293 956.178 842.744C970.87 858.649 946.072 892.884 930 895.664C909.08 899.284 914.203 842.398 925.029 840.39M909.927 841.906C916.647 842.879 916.944 895.612 906.949 895.071C890.564 894.184 889.163 879.331 885.858 869.273C883.632 862.496 876.378 859.695 877.855 850.365C878.899 843.774 904.38 841.103 909.927 841.906M173 852C180.678 860.307 184.062 870.951 193.079 878.381C218.556 899.375 244.314 915.734 266.266 940.997C271.445 946.958 280.705 950.896 284 958C264.293 951.571 246.363 939.567 228 930.118C224.135 928.129 213.872 919.092 209.586 921.28C204.856 923.695 203.056 940.029 201.513 945C196.218 962.064 189.106 1003.69 174 1014C169.189 1000.14 174.272 985.232 173.952 971C173.36 944.624 172.253 918.301 170.922 892C170.265 879.022 167.547 864.299 173 852M565 947C553.209 938.742 538.666 934.695 527.217 926.042C513.239 915.476 504.052 900.362 492.76 887.438C490.723 885.107 473.664 864.8 471.687 867.969C467.977 873.917 486.259 889.156 489.519 893C507.589 914.308 521.19 929.984 546 943.583C550.341 945.963 561.372 954.876 565.911 954.494C572.487 953.939 571.958 938.54 571.503 934C570.161 920.607 552.448 877.085 579.008 873.714C602.012 870.793 596.001 902.623 596 916C595.997 957.422 583.343 991.067 546 1013.78C538.481 1018.35 529.438 1017.04 521 1017C473.962 1016.74 448.828 962.154 450.097 919C450.4 908.678 451.239 897.393 455.828 888C458.155 883.236 464.611 878.927 465.696 873.937C466.649 869.553 462.325 870.103 460.129 872.096C442.46 888.136 443.931 919.01 448.506 940C458.659 986.582 483.201 1039.79 542 1023.24C588.803 1010.08 601.997 953.659 602 913C602.001 904.029 605.73 884.228 600.74 876.634C588.089 857.381 561.68 871.576 559.339 890C556.793 910.05 568.348 928.084 565 947M817.888 963.408C802.514 973.911 837.969 1012.86 852.108 1001.69C854.999 999.401 850.544 998.16 848.929 997.766C831.869 993.599 824.248 983.858 822.716 968.03C822.516 965.96 820.78 961.432 817.888 963.408M849.782 1146.36C841.584 1151.22 837.918 1176.36 833.375 1185C810.08 1229.28 799.082 1284 785.83 1332C781.783 1346.66 779.287 1360.91 777.775 1376C777.529 1378.46 773.843 1391.24 779.709 1389.58C792.682 1385.89 803.046 1367.27 814.081 1359.51C859.015 1327.93 897.707 1286.78 936.782 1248.32C948.061 1237.22 958.91 1225.47 969.871 1214.04C972.63 1211.16 981.04 1205.99 981.677 1202C982.528 1196.67 958.195 1190.79 954 1190.08C926.95 1185.55 900.464 1169.95 875 1158.7C869.633 1156.33 855.494 1142.98 849.782 1146.36M800 1362C808.01 1346.91 820.99 1333.99 829.615 1319C847.47 1287.97 861.533 1255.37 880.753 1225C887.675 1214.06 892.952 1205.66 895.59 1193C895.878 1191.62 899.675 1180.12 895.06 1181.76C891.143 1183.16 890.049 1191.56 889.061 1195C885.418 1207.68 878.772 1218.31 872.797 1230C853.415 1267.92 832.321 1305.65 810.255 1342C803.984 1352.33 793.507 1376.44 782 1381C784.081 1324.68 810.303 1270.05 826.403 1217C831.209 1201.16 838.251 1187.15 844.728 1172C846.913 1166.89 847.655 1157.65 851.999 1153.89C856.32 1150.15 873.1 1163.42 878 1165.59C898.723 1174.76 921.324 1188.51 943 1192.7C950.628 1194.17 967.286 1194.32 970.456 1203.32C971.973 1207.63 965.573 1211.63 962.999 1214.08C953.299 1223.32 945.076 1233.55 936.102 1243.44C907.061 1275.42 872.869 1305.87 839.001 1332.56C827.091 1341.94 815.568 1358.47 800 1362M1616.02 1154.26C1586.59 1169.37 1582.4 1225.04 1585.23 1253C1586.09 1261.61 1591.98 1269.4 1591.84 1278C1591.5 1299.5 1582.63 1325.83 1605.02 1340.97C1616.2 1348.53 1630.72 1343.21 1637.71 1333C1644.67 1322.83 1637.3 1298.61 1644.82 1291.96C1650.04 1287.34 1665.01 1294.78 1671 1295.64C1682.45 1297.28 1701.13 1294.87 1710.79 1302.09C1717 1306.72 1715.11 1317.32 1718.02 1324C1722.62 1334.57 1742.15 1342.35 1752.92 1336.74C1770.28 1327.69 1766.57 1303.59 1766.04 1288C1764.76 1250.23 1789.48 1194.95 1757.44 1166.5C1749.5 1159.44 1736.32 1170.72 1731.59 1177.04C1727.36 1182.69 1729.63 1194.85 1724.22 1198.96C1721.11 1201.32 1712.95 1198.82 1709 1199.36C1695.65 1201.18 1660.03 1201.85 1649.38 1192.62C1639.55 1184.09 1634.82 1144.61 1616.02 1154.26M132 1364C142.986 1368.7 161.813 1359.47 173 1356.82C183.018 1354.44 194.747 1356 205 1356C209.143 1356 224.968 1358.46 227.473 1355.1C231.909 1349.15 226.383 1322.84 226.033 1315C224.552 1281.85 221.311 1249.35 222.019 1216C222.247 1205.25 229.693 1184.95 224.576 1175.17C220.812 1167.97 210.687 1169.36 204 1168.23C197.195 1167.09 190.998 1162.93 184 1163.18C170.655 1163.66 158.754 1169.83 145 1168.86C138.955 1168.44 120.936 1162.61 117.077 1168.5C109.684 1179.78 112.98 1197.36 113.864 1210C115.77 1237.27 116.22 1264.7 118.136 1292C119.472 1311.03 122.794 1329.89 123.008 1349C123.07 1354.56 122.319 1367.12 126.813 1371.11C131.452 1375.23 132.24 1366.59 132 1364M1632 1172L1609 1178C1610.51 1165.27 1624.57 1160.71 1632 1172M1757 1177C1752.37 1175.21 1747.95 1173.56 1743 1173C1748.68 1167.67 1755.38 1169.25 1757 1177M175 1170.44C183.144 1168.91 215.005 1171.03 218.716 1179.27C223.606 1190.11 217.257 1205.7 216.814 1217C216.155 1233.8 224.082 1258.2 203 1262.45C186.993 1265.68 154.975 1259.68 139 1255.12C134.823 1253.93 123.959 1253.63 121.293 1250.18C116.017 1243.35 119.254 1218.77 118.96 1210C118.716 1202.75 113.589 1178.42 119.822 1173.39C123.894 1170.1 133.333 1173.6 138 1174.18C151.446 1175.83 162.018 1172.88 175 1170.44M560 1305C543.706 1289.06 540.49 1262.65 533.781 1242C527.408 1222.38 516.746 1202.46 514 1182C503.778 1184.99 520.517 1220.53 522.847 1228C528.097 1244.82 531.97 1263.9 539.287 1280C543.736 1289.79 555.024 1303.37 555.787 1314C556.636 1325.83 543.64 1346.73 537.986 1357C531.299 1369.15 525.497 1381.76 518.977 1394C517.408 1396.94 512.451 1404.1 516.361 1406.78C526.52 1413.75 542.125 1402.86 552 1401.28C564.084 1399.35 578.62 1398.71 591 1397.39C594.891 1396.98 603.774 1397.9 606.028 1393.58C607.542 1390.68 596.459 1372.46 593.852 1369.74C580.923 1356.28 578.338 1343.75 570.208 1328C566.915 1321.62 560.089 1317 562.606 1309C573.289 1275.07 586.636 1241.82 600.412 1209C603.431 1201.81 614.018 1180.85 607.94 1173.5C606.037 1171.2 597.597 1202.3 595.329 1207C582.423 1233.76 560.934 1275.08 560 1305M1742 1173L1739 1175L1742 1173M1600 1184C1599.99 1173.23 1608.85 1178.4 1600 1184M1718 1295C1713.07 1298.86 1707.72 1294.24 1702 1294.03C1683.35 1293.33 1662.07 1283.47 1644.01 1285.06C1626.22 1286.64 1649.16 1334.56 1623 1338.76C1611.58 1340.59 1599.68 1332.77 1597.5 1320.98C1595.26 1308.82 1603.56 1296.89 1603.59 1285.07C1603.61 1280.47 1598.71 1278.64 1598.53 1273.97C1597.68 1252.94 1598.25 1211 1607.1 1192.06C1610.79 1184.18 1629.82 1183.38 1634.92 1190.42C1637.61 1194.15 1636.02 1200.67 1636 1205C1654.65 1196.46 1688.98 1204.96 1711 1205.08C1716.29 1205.11 1723.7 1209.22 1728.71 1207.28C1736.17 1204.4 1732.54 1187.66 1741.22 1181.94C1746.57 1178.42 1760.9 1181.82 1765.07 1186.46C1772.09 1194.28 1767.05 1211.69 1766.22 1221C1764.47 1240.5 1762.24 1261.65 1762.01 1281C1761.85 1294.32 1765.14 1309.25 1759.73 1322C1754.89 1333.43 1737.47 1334.99 1728.35 1327.28C1716.92 1317.62 1724.69 1305.45 1718 1295M2007 1182.67C1959.55 1195.11 1970.45 1276.09 1979.1 1310C1981 1317.46 1998.8 1341.34 1993.81 1348.18C1991.19 1351.75 1980.97 1349.99 1977 1350.44C1957.07 1352.68 1938.63 1343.48 1919 1342.06C1914.11 1341.71 1901.38 1337.83 1898 1342.51C1895.61 1345.82 1897.96 1354.93 1898.01 1359C1898.18 1373.58 1910.76 1421.45 1932 1415.4C1947.06 1411.1 1972.15 1386.43 1982.86 1374.86C1987.14 1370.22 1992.1 1356.12 1999.01 1355.21C2005.12 1354.39 2009.77 1366.86 2011.93 1371C2019.02 1384.55 2029.03 1406.67 2048.78 1400.05C2059.1 1396.59 2083.74 1370.6 2079.49 1358.44C2075.58 1347.27 2031.84 1349 2022 1349C2018.05 1349 2006.77 1350.88 2004.38 1346.82C2002.19 1343.11 2014.24 1318.1 2016.16 1313C2026.4 1285.83 2046.41 1242.77 2041.55 1214.02C2039.36 1201.05 2021.58 1178.85 2007 1182.67M1998 1344C1994.71 1331.68 1986.39 1321.31 1983.54 1309C1979.5 1291.61 1980.62 1274.55 1978.84 1257C1977.54 1244.17 1973.27 1235.1 1978.1 1222C1982.51 1210.04 1998.36 1184.99 2014 1188.04C2026.96 1190.58 2039.41 1208.51 2039.91 1221C2040.36 1232.17 2034.24 1242.56 2031.08 1253C2024.51 1274.7 2019.16 1296.18 2010.13 1317C2006.03 1326.45 2006 1336.5 1998 1344M1292 1193.46C1228.08 1202.35 1181.25 1301.28 1221.76 1353.9C1233.62 1369.31 1251.16 1358.4 1266 1357.73C1284.47 1356.89 1301.63 1366.51 1319 1370.38C1325.97 1371.93 1332.97 1368.96 1340 1370.88C1349.09 1373.36 1367.23 1385.05 1376.61 1381.09C1383.16 1378.32 1369.82 1372.87 1368 1372.21C1346.13 1364.36 1339.73 1336.77 1318.04 1323.99C1314.65 1321.99 1298.89 1310 1300.08 1305.7C1300.61 1303.8 1314.37 1311.24 1316 1312.08C1331.99 1320.25 1346.39 1325.31 1361.84 1311.72C1391.62 1285.55 1387.15 1226.98 1355.78 1204.2C1340.77 1193.3 1309.93 1190.97 1292 1193.46M1268 1307C1271.64 1303.22 1274.35 1293.75 1280.97 1294.47C1288.6 1295.29 1296.9 1310.59 1301.58 1316C1317.16 1334 1342.7 1340.25 1348 1367C1321.29 1363.53 1296.26 1353.36 1269 1351.24C1256.96 1350.31 1246.65 1358.38 1234 1355.49C1225.35 1353.52 1223.5 1345.03 1220 1338C1210.6 1319.11 1208.61 1291.1 1216.3 1271C1227.54 1241.64 1260.24 1205.04 1292 1198.48C1301.32 1196.56 1308.2 1200.93 1317 1202.3C1329.09 1204.18 1340.08 1200.75 1351.86 1207.25C1381.96 1223.86 1379.77 1267.6 1368.69 1294C1353.78 1329.54 1318.42 1309.27 1295 1296.25C1291.06 1294.06 1285.19 1286.1 1280.74 1285.93C1274.85 1285.7 1268.34 1302.27 1268 1307M29 1202L31 1205C31.9856 1203.52 32 1203.8 32 1202L29 1202M1594 1207C1596.78 1217.99 1601.62 1250.94 1592 1259C1590.72 1245.22 1584.6 1218.52 1594 1207M218 1265C218 1286.52 222.948 1307.67 222.999 1329C223.01 1333.68 225.213 1346.26 221.178 1349.5C212.009 1356.86 182.837 1349.64 171 1351.25C164.76 1352.1 132.778 1364.35 129.338 1360.12C126.634 1356.79 129.061 1345.42 128.562 1341C126.353 1321.42 124.616 1301.65 122.962 1282C122.563 1277.25 119.243 1263.7 123.822 1260.34C129.557 1256.13 142.768 1263.27 149 1263.88C170.94 1266.03 197.014 1271.42 218 1265M300 1283C302.611 1274.85 292.061 1273.59 300 1283M1600 1285C1599.75 1289.66 1597.99 1301.94 1593 1303C1593.13 1296.22 1592.09 1286.72 1600 1285M1594 1304.33C1594.89 1304.33 1594.89 1305.67 1594 1305.67C1593.11 1305.67 1593.11 1304.33 1594 1304.33M558.504 1324.97C562.671 1323.25 566.027 1331.29 567.178 1334C574.28 1350.71 582.902 1360.92 592.098 1376C593.658 1378.56 598.724 1389.03 595.373 1391.19C580.717 1400.6 556.154 1393.38 540 1398.46C537.154 1399.35 524.563 1404.22 522.713 1400.14C521.193 1396.78 528.697 1386.27 530.277 1383C537.222 1368.62 544.598 1354.61 551.125 1340C552.613 1336.67 555.023 1326.41 558.504 1324.97M1991 1354C1983.3 1374.74 1962.51 1386.32 1946.14 1399.62C1939.7 1404.85 1931.78 1414.31 1923 1408.31C1910.56 1399.81 1904.33 1378.38 1903.5 1364C1903.29 1360.43 1900.57 1351.04 1904.51 1349.04C1910.76 1345.85 1917.03 1350.4 1923.08 1350.29C1946.17 1349.87 1967.31 1357.14 1991 1354M2068 1364L2073 1363C2070.32 1382.37 2049.93 1402.57 2030.06 1390.82C2021.77 1385.92 2011.3 1363.12 2009 1354C2019.8 1354 2066.22 1351.22 2068 1364M903 1567C902.276 1556.21 890.376 1549.87 881 1547C888.67 1530.98 842.171 1545.2 836.937 1558.01C833.757 1565.79 838.083 1573.32 836.604 1580.51C836.057 1583.17 832.002 1583.23 832.3 1586.28C832.881 1592.23 839.152 1595.2 836.812 1602C821.236 1647.26 785.243 1687.16 773.251 1734.11C772.209 1738.19 776.181 1740.28 776.356 1744.12C776.64 1750.34 767.263 1762.07 769.709 1767.15C770.933 1769.69 775.417 1767.41 777.513 1768.93C780.644 1771.21 789.211 1784.36 789.464 1788.08C790.063 1796.92 776.558 1809.92 772 1817C785.982 1816.01 785.086 1798.04 796.067 1793.37C804.701 1789.71 819.067 1795.6 830 1790.96C853.083 1781.14 868.112 1744.97 879.082 1724C881.267 1719.82 897.984 1689.36 902.48 1699.18C905.054 1704.8 896.307 1713.52 893.618 1718C885.098 1732.2 864.869 1751.43 862.346 1767.85C860.742 1778.29 877.267 1764.25 879 1761C874.199 1763.57 870.381 1766.59 865 1768C870.714 1758.52 878.211 1745.84 886 1738C883.786 1746.86 884.243 1760.43 879.617 1768.01C875.171 1775.28 857.374 1792.89 858.487 1801.49C859.594 1810.04 892.946 1767.2 888 1792C899.071 1790.94 908.306 1804.94 918.054 1795.53C935.846 1778.37 921.741 1754.31 931.862 1737.92C946.764 1713.79 971.136 1691.98 991.003 1672C999.892 1663.06 1013.77 1653.21 1018 1641C992.745 1648.46 967.776 1689.39 949.785 1707.86C946.199 1711.55 931.402 1730.88 926.347 1729.24C915.12 1725.59 939.424 1701.54 942.478 1697.99C959.217 1678.57 975.258 1658.11 992.295 1639.04C1003.04 1627.02 1015.29 1622.88 1017 1605C999.288 1622.75 980.938 1646.65 953 1652C967.371 1630.51 985.881 1610.98 1001.1 1589.86C1003.55 1586.46 1011.51 1570.04 1016.58 1571.64C1024.17 1574.05 1019.64 1589.64 1020 1595C1028.73 1584.23 1024.01 1555.11 1006 1557.54C984.904 1560.38 975.76 1579.17 959 1589C966.321 1577.8 989.18 1566.87 992 1555C982.503 1557.85 973.871 1569.13 967 1576C948.649 1594.35 931.593 1614.26 914.416 1633.19C911.051 1636.9 893.883 1660.42 889.341 1657.9C879.042 1652.18 902.665 1624.22 906.568 1618C908.227 1615.36 910.768 1608.74 914.138 1607.98C917.873 1607.13 916.318 1620.15 921 1622C915.714 1585.69 948.665 1551.28 965.883 1520C968.129 1515.92 985.648 1488.94 979.162 1485.75C973.823 1483.12 961.378 1500.6 958.454 1504C942.479 1522.56 924.638 1555.34 903 1567M177 1689C177.643 1705.3 172.176 1743.09 185.363 1755.15C191.812 1761.05 204.226 1760.13 211 1755.3C232.465 1739.99 262.332 1713.73 277.237 1692C301.961 1655.95 302.719 1611.33 298.321 1570C296.886 1556.52 296.191 1539.17 289.215 1527.04C282.471 1515.32 265.528 1512.05 254 1506.99C218.553 1491.44 186.309 1480.45 153 1508.49C106.87 1547.32 69.2436 1619.27 78.048 1680C78.6239 1683.97 74.008 1688.39 75.1021 1691.54C76.16 1694.59 81.8254 1692.06 83.4362 1696.17C91.0864 1715.69 96.4828 1736.06 104.022 1755.96C106.84 1763.4 112.276 1773.59 121.981 1771.33C130.173 1769.43 134.409 1758.28 138.782 1751.96C151.474 1733.62 161.647 1703.94 177 1689M194 1493.7C206.478 1491.77 230.618 1501.13 242 1506.5C254.917 1512.58 275.263 1516.48 284.358 1528.05C294.563 1541.03 293.012 1563.46 294.135 1579C298.063 1633.34 288.278 1672.66 248.816 1711.7C237.879 1722.52 212.314 1755.25 196 1754.67C176.251 1753.96 182.928 1708.9 181.783 1696C179.226 1667.21 198.502 1663.13 214.283 1643.97C226.471 1629.18 231.843 1613.2 236.516 1595C240.161 1580.8 247.228 1559.82 229 1552.76C210.482 1545.6 194.347 1561.18 189.301 1578C180.037 1608.89 185.647 1641.4 177.792 1672C173.056 1690.45 160.309 1708.96 150.45 1724.99C145.842 1732.49 126.992 1767.84 118.009 1766.35C110.981 1765.19 108.019 1754.67 106.003 1749C99.414 1730.48 95.7698 1710.62 90.4989 1692C85.4297 1674.09 79.2987 1662.27 80.5931 1642C81.6903 1624.81 91.0306 1609.06 98.5409 1594C117.748 1555.48 146.185 1501.12 194 1493.7M974 1493C968.785 1519.49 946.847 1546.88 932.212 1569.14C930.271 1572.09 919.907 1592.69 915.931 1590.38C913.672 1589.06 908.74 1571.41 909.943 1569C920.012 1548.84 941.356 1529.39 956.108 1512.36C961.546 1506.08 966.113 1496.27 974 1493M1288 1663C1291.03 1677.2 1286.02 1689.29 1283.85 1703C1276.99 1746.46 1263.93 1780.12 1216 1791.46C1187.16 1798.28 1132.69 1780.66 1143.78 1742C1152.22 1712.62 1180.8 1704.81 1196 1683C1158.88 1688.19 1122.65 1744.98 1147.68 1776.77C1162.28 1795.32 1191.26 1797.63 1213 1795.9C1237.68 1793.93 1274.2 1769.51 1280.42 1745C1284 1730.91 1287.77 1717.45 1289.44 1703C1289.78 1700.01 1289.62 1690.9 1293.77 1690.2C1298.04 1689.48 1308.07 1708.28 1310.66 1711.66C1318.93 1722.48 1330.7 1744.99 1345.13 1748.34C1364.95 1752.93 1365.75 1712.14 1359 1702C1359.22 1711.15 1364.13 1743.52 1347.03 1743.14C1342.22 1743.03 1335.47 1734.08 1332.36 1730.78C1319.96 1717.64 1305.29 1699.64 1296.44 1683.92C1293.87 1679.35 1291.83 1662.19 1299.2 1660.65C1321.84 1655.93 1337.25 1691.45 1356 1694C1355.78 1696.47 1355.92 1697.77 1357 1700C1360.89 1678.45 1319.95 1668.95 1311 1655C1343.1 1650.69 1382.34 1617.55 1400.21 1591.96C1418.27 1566.09 1391.33 1549.99 1368 1552.16C1334.42 1555.27 1316.16 1588.97 1300.2 1613.96C1297.82 1617.67 1285.86 1644.99 1286.78 1645.36C1281.51 1643.22 1279.87 1625.94 1277.8 1621C1267.72 1596.92 1257.24 1568.6 1241.8 1547.37C1236.44 1540 1224.05 1537.67 1216.01 1541.7C1202.03 1548.72 1203.56 1565.56 1208.78 1577.78C1220.37 1604.94 1236.95 1621.09 1261 1637.97C1266.35 1641.72 1288.48 1650.37 1285.97 1658.72C1284.28 1664.36 1266.16 1667.71 1261 1669.54C1241.12 1676.6 1220.74 1682.11 1201 1689.59C1194.93 1691.89 1185.41 1691.88 1181.33 1697.83C1176.4 1705.03 1202.9 1693.72 1205 1692.83C1231.76 1681.5 1262.59 1677.24 1288 1663M1281 1643C1261.08 1640.82 1236.99 1615.12 1224.08 1601C1220.38 1596.95 1215.52 1580.66 1211 1580C1211.31 1571.74 1207.87 1558.86 1210.14 1551.3C1213.34 1540.61 1233.49 1542.21 1238.27 1550.05C1256.16 1579.37 1270.44 1610.51 1281 1643M1635 1555C1654.32 1557.93 1668.22 1549.41 1688.01 1550.43C1690.27 1550.55 1704.28 1550.83 1702.24 1545.75C1700.82 1542.22 1688.02 1543.95 1685 1544.22C1671.32 1545.43 1644.08 1542.1 1635 1555M841 1589C840.937 1573.06 836.31 1558.35 853 1550.76C855.971 1549.41 863.529 1543.79 866.679 1547.27C870.658 1551.66 846.247 1586.91 841 1589M879.037 1551.75C886.587 1550.31 903.271 1563.95 901.824 1572C899.483 1585.03 878.509 1602.37 870.489 1613C868.235 1615.99 863.919 1624.07 859.833 1624.57C854.802 1625.2 850.576 1609.7 850.774 1606C851.43 1593.75 865.357 1575.36 871.033 1564.32C873.177 1560.15 873.486 1552.8 879.037 1551.75M183 1664C183.634 1636.44 184.619 1599.78 195.246 1574C200.562 1561.1 217.947 1551.42 230.801 1558.6C240.57 1564.06 234.921 1583.75 232.438 1592C222.987 1623.38 212.324 1646.02 183 1664M871 1554C869.937 1566.76 859.618 1579.84 853.773 1591.04C852.741 1593.02 848.384 1602.26 845.007 1599.59C841.39 1596.74 846.926 1590.04 848.6 1587.68C856.048 1577.16 862.363 1565.1 869 1554L871 1554M1361 1556.69C1381.56 1550.99 1414.49 1563.37 1398.45 1588.99C1382.81 1614 1337.75 1649.01 1307.78 1654.5C1288.29 1658.07 1293.82 1633.74 1299.09 1624C1312.63 1598.97 1331.31 1564.93 1361 1556.69M1929 1558C1927.42 1564.88 1926.41 1575.77 1930 1582C1931.34 1576.67 1930.6 1572.19 1929 1567C1942.25 1569.43 1952.17 1586.02 1960.04 1596C1977.26 1617.84 1998.19 1650.76 2027 1658C2001.34 1692.22 1962.4 1725.18 1927 1749C1925.8 1716.93 1925.24 1682.93 1928.22 1651C1930.12 1630.56 1937.61 1602.74 1930 1583C1927.13 1592.84 1929.7 1605.64 1928.78 1616C1924.72 1661.78 1932.24 1716.74 1919 1760C1932.55 1758.24 1952.44 1736.82 1963 1727.85C2001.16 1695.43 2035.25 1657.52 2073 1624.33C2084.92 1613.84 2097.32 1603.8 2108.96 1593C2111.28 1590.85 2117.98 1581.43 2121.39 1582.08C2128.07 1583.36 2127 1620.24 2127 1626C2127 1671.44 2127.29 1718.71 2130 1764C2136.89 1758.31 2134.98 1724.47 2135 1715C2135.11 1667.05 2124.7 1617.53 2127 1570C2117.89 1573.51 2110.34 1586.12 2103 1592.68C2079.64 1613.56 2054.42 1642.9 2027 1658L2029 1653C1983.38 1635.46 1970.51 1580.06 1929 1558M1561 1646L1562 1641L1551 1646C1549.71 1624.43 1552.78 1602.33 1549 1581C1540.61 1588.41 1545.16 1626.91 1546.32 1638C1546.72 1641.87 1546.02 1652.01 1550.7 1653.6C1556.29 1655.49 1567.03 1650.66 1573 1650.14C1594.91 1648.25 1618.09 1648.58 1639 1642C1635.96 1651.59 1640.42 1666.07 1641.86 1676C1644.41 1693.6 1644.61 1712.26 1643.52 1730C1643.14 1736.09 1648.56 1750.42 1643.42 1754.96C1638.15 1759.61 1627.88 1754.99 1622 1753.9C1609.05 1751.5 1580.27 1746.85 1570 1757C1589.12 1758.78 1606.74 1754.8 1626 1759.38C1631.9 1760.78 1641.4 1764.38 1646.5 1759.4C1652.63 1753.4 1647.04 1739.44 1647 1732C1646.89 1712.44 1648.08 1692.44 1645.66 1673C1644.61 1664.55 1639.98 1649.36 1643.82 1641.35C1646.16 1636.47 1653.52 1636.84 1658 1637.32C1673.58 1639.01 1685.33 1640.05 1701 1636.19C1704.87 1635.23 1713.97 1631.44 1717 1635.74C1725.98 1648.49 1720.04 1689.95 1719 1705C1730.43 1697.39 1724.01 1661.07 1724 1648C1724 1643.58 1725.14 1632.32 1720.5 1629.82C1711.93 1625.2 1697.7 1632.25 1689 1633.6C1673.54 1636.01 1657.74 1630.91 1642 1633C1644.86 1615.95 1643.75 1594.26 1642.22 1577C1642.01 1574.69 1642.69 1558.14 1637.52 1560.11C1634.05 1561.42 1637.09 1575.92 1637.44 1579C1638.71 1590.28 1642.01 1624.29 1636.82 1633.73C1633.79 1639.24 1624.75 1641.44 1619 1641.85C1599.78 1643.21 1580.37 1644.84 1561 1646M919 1664C916.476 1653 925.876 1644.82 932.095 1637C948.057 1616.92 962.943 1595.2 980.981 1577.01C985.632 1572.32 1001.97 1558.93 1009.45 1562.08C1016.3 1564.98 993.508 1585.49 991 1588C975.025 1603.98 959.684 1620.99 944.816 1638C937.109 1646.82 929.757 1658.85 919 1664M535 1734C540.592 1719.4 538.581 1695.26 547.604 1683.05C554.605 1673.57 568.765 1670.38 578.32 1664.13C596.093 1652.49 614.279 1636.67 629.941 1622.3C642.398 1610.88 651.174 1592.28 634.518 1579.45C622.871 1570.47 603.506 1580.06 594.003 1588.15C573.987 1605.17 564.225 1630.9 553.135 1654C549.467 1661.64 547.892 1672.7 541.796 1678.72C526.564 1693.76 496.547 1702.4 478 1714.2C464.17 1722.99 448.58 1731.91 436 1742.35C433.023 1744.82 423.755 1750.72 425.658 1755.5C427.924 1761.2 445.429 1741.19 449.059 1738.6C470.502 1723.28 492.363 1708.35 516.04 1696.69C519.817 1694.83 535.243 1685.17 538.953 1688.25C543.327 1691.88 536.493 1710.48 535.12 1715C532.529 1723.52 532.81 1733.18 527.683 1740.77C520.911 1750.8 467.738 1780.39 493.052 1797.11C505.214 1805.14 511.459 1800.31 518.305 1789C526.236 1775.9 523.634 1758.49 531.861 1746C547.559 1722.17 579.857 1711.33 602.992 1696.95C608.009 1693.83 632.978 1672.54 637.564 1674.39C640.649 1675.63 628.095 1698.24 626.812 1701C614.82 1726.79 609.63 1753.65 602.875 1781C602.063 1784.29 595.253 1806.11 598.257 1806.68C602.004 1807.38 604.083 1799.46 604.621 1797C607.177 1785.34 609.081 1773.52 612.283 1762C620.503 1732.43 628.222 1695.17 646.755 1670.02C653.466 1660.91 665.77 1657.85 673.441 1649.52C679.722 1642.7 685.902 1628.58 675.65 1622.14C661.177 1613.04 649.546 1652.74 644.716 1660.99C630.471 1685.33 587.687 1698.57 565 1713.51C556.307 1719.23 544.742 1731.69 535 1734M904.836 1578.64C910.996 1578.64 912.724 1593.66 912.442 1598C911.622 1610.59 896.708 1624.62 890.336 1635C888.375 1638.19 885.46 1646 880.92 1646C876.344 1646 864.035 1633.61 864.423 1628.99C865.329 1618.21 886.764 1596.52 894.144 1588.68C896.641 1586.03 900.754 1578.64 904.836 1578.64M630.959 1581.6C643.97 1582.82 641.248 1603.36 635.492 1610.08C619.39 1628.87 596.102 1648.75 575 1661.7C569.939 1664.81 558.55 1673.67 552.51 1673.09C547.883 1672.64 563.021 1641.95 565.014 1638C578.536 1611.19 595.519 1578.28 630.959 1581.6M1001 1583C988.72 1602.91 972.649 1620.65 958.227 1639C949.936 1649.55 944.716 1659.7 930 1660C941.522 1640.1 963.779 1621.84 978.755 1604C984.865 1596.72 991.801 1586.27 1001 1583M1018 1597L1019 1598L1018 1597M957 1598C949.12 1613.19 934.597 1631.65 921 1642C921.907 1628.33 945.418 1604.64 957 1598M843 1604C841.911 1627.49 817.377 1657.72 807.21 1679C803.687 1686.37 800.473 1699.7 792 1702C797.137 1677.26 815.054 1650.19 826.941 1628C831.112 1620.22 834.485 1607.85 843 1604M847 1612C849.77 1616.33 856.534 1625.87 855.896 1631C855.136 1637.12 847.876 1643.93 844.58 1649C834.054 1665.2 822.898 1694.71 802 1698C808.941 1674.15 829.527 1629.67 847 1612M256 1615C256.741 1617.18 257.103 1617.72 259 1619C258.259 1616.82 257.897 1616.28 256 1615M649 1659C652.654 1652.99 665.327 1621.03 675.498 1626.41C689.476 1633.8 656.768 1658.31 649 1659M824 1689C825.113 1676.27 842.847 1657.63 850.103 1647C852.516 1643.47 855.829 1635.98 861.019 1636.4C884.822 1638.32 876.042 1671.37 860.896 1678.07C849.664 1683.04 835.766 1684.79 824 1689M914 1640C914.35 1644.99 902.308 1673.68 895.459 1670.46C886.329 1666.18 909.812 1642.66 914 1640M979 1645C970.305 1664.45 948.713 1683.04 934.675 1699C932.264 1701.74 923.166 1715.42 918.754 1712.61C907.19 1705.24 919.258 1693.18 924.532 1686.98C939.402 1669.52 954.784 1649.67 979 1645M881.243 1658.19C890.095 1656.09 883.398 1673.68 875.989 1675.26C865.129 1677.57 877.145 1659.16 881.243 1658.19M916 1662C913.943 1665.37 911.807 1666.97 908 1668C909.804 1664.03 911.478 1661.85 916 1662M939 1662C933.507 1672.52 920.429 1691.96 909 1696C911.645 1679.6 922.757 1665.5 939 1662M890 1670C890 1671.8 889.986 1671.52 889 1673L887 1670L890 1670M912 1670C911.119 1675.75 907.845 1680.05 905 1685C906.186 1683.81 906.584 1683.47 908 1683C907.871 1691.38 901.327 1691.06 905 1686C892.01 1683.64 906.342 1672.25 912 1670M847 1750C854.999 1748.15 858.916 1739.04 866 1735C860.194 1752.66 847.532 1777.23 830.992 1786.92C826.704 1789.43 798.293 1796.2 799.304 1785.73C800.016 1778.36 811.775 1765.94 816.244 1760C832.295 1738.66 848.767 1717.42 866.069 1697.08C868.831 1693.83 886.752 1668.48 892.472 1677.84C895.495 1682.79 884.329 1693.51 881.676 1697C869.65 1712.82 855.438 1732.09 847 1750M873 1680C869.318 1693.32 849.854 1716.88 838 1724C840.846 1711.15 859.25 1681.52 873 1680M853.849 1683.7C861.952 1682.77 847.808 1700.35 846.179 1703C834.4 1722.13 822.269 1740.93 810.457 1760C807.853 1764.21 799.186 1782.03 793.896 1781.81C776.705 1781.1 782.688 1753.8 787.839 1746C806.487 1717.78 815.868 1688.06 853.849 1683.7M888 1696C885.848 1706.56 876.873 1721.14 867 1726C870.69 1714.73 880.328 1706.24 886 1696L888 1696M783 1745C783.549 1739.47 798.244 1698.88 806.052 1704.63C808.96 1706.77 803.427 1713.13 802.258 1715C796.172 1724.74 791.796 1737.38 783 1745M888 1750C887.274 1743.61 902.067 1705.76 910.386 1708.97C927.804 1715.7 894.607 1746.23 888 1750M792 1712C789.78 1717.05 786.661 1721.43 786 1727C781.411 1722.57 786.101 1712.7 792 1712M917.643 1728.64C922.665 1728.64 921.191 1736.98 919.627 1739.44C916.218 1744.79 896.131 1769.48 889.482 1768.57C884.815 1767.94 890.492 1759.48 891.548 1758C895.537 1752.4 910.662 1728.64 917.643 1728.64M922 1743C915.408 1755.95 903.561 1765.4 898 1779C901.874 1775.63 921.05 1747.37 924.659 1748.76C928.267 1750.15 926.132 1758.25 926.04 1761C925.763 1769.31 923.323 1792.26 912.021 1793.69C904.724 1794.6 889.732 1783.18 891.848 1775.04C894.131 1766.26 913.316 1745.36 922 1743M522.668 1752.35C527.424 1753.22 522.755 1762.36 522.282 1765C520.924 1772.59 514.377 1799.3 503.914 1798.05C474.088 1794.49 509.92 1750.01 522.668 1752.35M885 1771C884.481 1778.44 879.6 1783.06 873 1786C873.848 1779.18 878.713 1773.57 885 1771M76 2061C70.0182 2081.73 71.0464 2102.77 69.9214 2124C69.6344 2129.42 65.5959 2144.94 76.8621 2142.82C88.7947 2140.57 99.292 2114.3 108.823 2106.65C111.602 2104.42 115.798 2105.85 118.024 2103.85C120.545 2101.6 117.415 2096.54 119.059 2093.54C123.558 2085.33 132.454 2078.05 138.58 2071C158.67 2047.87 179.948 2025.52 198.343 2001C207.735 1988.48 218.203 1965.95 230.704 1956.89C240.812 1949.56 259.537 1981.21 263.635 1977.03C269.162 1971.4 262.068 1934.37 261.058 1926C260.682 1922.88 260.994 1912.95 256.72 1912.32C251.342 1911.53 247.024 1922.23 245.237 1925.87C237.766 1941.06 225.135 1955.08 215.469 1969C192.894 2001.5 166.547 2029.47 140.439 2059C135.678 2064.38 120.987 2088.48 113.992 2088.48C109.471 2088.48 104.496 2080.02 101.68 2077.1C94.6218 2069.78 84.8107 2065.76 76 2061M256 1924C258.95 1937.75 258.691 1952.96 260 1967C234.929 1953.7 236.261 1942.25 256 1924M80.4228 2072.1C88.6885 2069.53 109.246 2088.01 109.273 2096C109.292 2101.74 83.7386 2132.43 77.9787 2133.91C73.5853 2135.04 73.2058 2123.52 73.296 2121C73.5853 2112.93 70.9782 2075.03 80.4228 2072.1z"/>
</svg>
