<?xml version="1.0" standalone="yes"?>
<svg xmlns="http://www.w3.org/2000/svg" width="2200" height="2200">
<path style="fill:#0c0c0c; stroke:none;" d="M343 750C345.372 750.819 347.487 750.95 350 751C347.628 750.181 345.513 750.05 343 750M383 750C408.476 758.631 448.985 751 476 751C450.524 742.369 410.015 750 383 750M479 750C481.981 751.013 484.863 750.988 488 751C485.02 749.987 482.137 750.012 479 750M1671 873C1656.93 873.441 1643.28 871.449 1629 872.06C1625.4 872.214 1617.78 869.638 1615.26 872.568C1611.05 877.468 1613.31 888.014 1612.68 894C1610.8 911.911 1606.2 927.991 1604.24 946C1603.84 949.623 1602.08 966.695 1607.2 967.677C1609.8 968.176 1609.9 943.545 1610.48 940C1611.47 933.97 1610.16 925.422 1613.82 920.217C1627.26 901.137 1659.01 894.405 1671 873M1659 876C1653.87 890.543 1628.47 907.841 1614 912C1619.16 881.278 1626.33 872.957 1659 876M1232 876C1223.31 893.751 1243.14 900.158 1248.13 915C1249.48 919.012 1234.38 975.045 1263.95 950.635C1274.09 942.264 1276.86 930.135 1267.38 920.447C1264.71 917.71 1258.09 916.071 1257.58 911.821C1256.38 901.8 1270.44 885.257 1275 877C1259.44 879.038 1263.12 899.547 1253.14 906.997C1246.54 911.928 1234 881.391 1234 876L1232 876M1957 971C1961.55 987.4 1985.96 974.711 1997 971.922C2000.91 970.932 2011.5 970.67 2012.89 965.889C2013.96 962.242 2004.29 958.487 2002.08 956.581C1994.18 949.77 1979.53 937.138 1974.4 928.319C1970.09 920.917 1978.61 909.246 1979.3 902C1979.57 899.171 1977.6 888.328 1973.14 889.969C1967.99 891.867 1967.73 903.404 1967.08 908C1965.33 920.222 1972.18 971.897 1957 971M908 891C891.515 893.113 875.507 916.414 865 928C864.997 922.698 875.92 892.554 874.625 892.106C869.716 890.409 865.267 903.914 864.094 907C859.515 919.047 850.539 952.279 858.822 963.841C865.503 973.167 878.574 954.505 880.99 948.562C885.104 938.443 869.645 935.437 870.963 929.543C874.123 915.411 899.383 902.43 908 891M160 938C164.936 922.042 170.251 907.866 187.9 903.692C189.693 903.268 191.485 901.705 189.351 900.193C180.888 894.197 167.345 909.116 163.498 915.001C152.97 931.106 145.156 967.594 161.369 982.635C170.636 991.233 181.809 982.738 187.753 974.999C199.328 959.93 207.811 940.403 203.495 921C201.43 911.718 186.699 899.414 179.106 911.258C185.733 900.92 216.598 936.797 189.008 942.097C175.136 944.762 177.772 923.646 160 938M575 903.763C554.078 909.63 538.716 947.363 535.61 967C533.257 981.875 542.15 995.934 559 991.517C581.211 985.695 594.302 950.129 594.959 930C595.285 920.036 587.725 900.195 575 903.763M577.373 907.966C580.313 906.79 583.976 911.283 580.529 912.792C577.516 914.112 573.838 909.379 577.373 907.966M568.213 913.028C573.906 912.021 572.855 921.001 571.756 924C568.862 931.893 561.049 936.758 558.542 945C555.046 956.492 560.004 964.902 559.993 976C559.988 981.229 559.046 986.535 552.989 987.605C542.795 989.406 539.547 977.728 540.441 970C541.856 957.774 554.337 915.483 568.213 913.028M566 980C566.351 969.934 561.114 962.146 561.867 952C562.355 945.42 579.974 910.823 588.178 918.83C601.095 931.436 578.579 974.597 566 980M1254.32 920.961C1270.84 914.74 1273.33 943.245 1258 949.049C1243.09 954.691 1245.2 924.395 1254.32 920.961M197 945C196.482 951.214 193.655 956.579 190.702 962C188.57 965.916 185.848 969.483 183.11 972.992C160.859 1001.5 145.832 941.487 170.835 936.683C175.093 935.865 178.022 943.849 181.158 945.936C186.33 949.379 191.738 946.608 197 945M864.604 935.999C880.046 929.827 876.229 955.859 865.019 960.457C859.781 962.605 859.549 938.02 864.604 935.999M1971 945C1972.78 945.885 1973.55 946.565 1975 948C1975.72 944.163 1974.76 940.785 1974 937C1979.36 938.901 2002.74 957.564 2001.68 963.55C2000.64 969.403 1977.31 975.239 1972.82 971.614C1967.67 967.455 1970.89 950.884 1971 945M1190 1194C1196.95 1210.58 1217.57 1229.39 1228.53 1245C1231.57 1249.32 1240.61 1257.65 1240.5 1263C1240.31 1272.48 1210.71 1291.12 1203 1295.98C1200.59 1297.5 1189.53 1302.65 1191.54 1306.57C1193.8 1310.97 1205.97 1309 1210 1309C1226.92 1309 1244.27 1307.9 1261 1310.82C1265 1311.51 1276.64 1314.56 1279.72 1310.98C1291.05 1297.84 1250.59 1273.89 1253.6 1263.14C1255.18 1257.52 1264.75 1253.12 1269 1249.62C1280.36 1240.26 1288.74 1227.96 1298.45 1217.01C1300.91 1214.23 1308.09 1209.87 1308.68 1206.11C1309.56 1200.49 1285.48 1202 1282 1202C1251.4 1202 1219.71 1192.24 1190 1194M460 1203L468 1201C469.36 1213.29 486.417 1234.36 493.739 1245C496.806 1249.45 504.908 1256.19 504.66 1262C504.28 1270.89 485.415 1284.53 479.569 1290.99C477.849 1292.89 470.731 1298.24 472.065 1301.33C473.451 1304.54 485.888 1304.35 489 1304.68C506.888 1306.58 525.091 1306.47 543 1308.16C546.984 1308.53 560.287 1318.13 562.351 1314.48C564.567 1310.57 554.275 1303.23 551.999 1301.02C543.972 1293.23 513.287 1274.72 515.944 1261.08C519.279 1243.96 562.438 1227.53 559.236 1207.5C558.453 1202.61 538.009 1205.18 534 1204.86C515.385 1203.33 498.337 1193.81 479 1194.01C471.024 1194.09 460.931 1193.27 460 1203M849 1213C865.343 1209.08 889.938 1244.15 902 1254C892.67 1260.11 884.203 1273.8 874.778 1281.53C861.717 1292.24 846.2 1297.68 831 1304C835.299 1309.72 848.344 1307.32 855 1306.86C872.039 1305.69 893.083 1307.33 909 1311L908 1305C914.364 1305 920.661 1304.96 927 1305.54C931.045 1305.92 935.021 1305.39 939 1304.64C967.565 1299.27 935.723 1277.48 923.019 1266.18C920.741 1264.15 912.469 1258.83 913.074 1255.28C915.158 1243.06 945.198 1228.16 953.118 1217.92C955.019 1215.46 964.214 1206.51 961.031 1203.26C957.073 1199.22 937.628 1202.85 932 1203.04C909.603 1203.79 887.537 1195.05 865 1195C859.243 1194.99 847.147 1192.76 842.571 1196.93C838.538 1200.6 849.514 1207.42 849 1213M507 1252C493.634 1244.07 478.33 1213.86 471 1200C479.013 1198.28 504.306 1197.38 509.218 1205.6C515.932 1216.85 507 1239.56 507 1252M954 1206C950.188 1220.76 930.897 1231.2 920.319 1241.3C917.125 1244.36 911.961 1251.26 906.999 1250.68C901.149 1250.01 895.969 1241.3 891.922 1237.57C878.364 1225.06 859.645 1213.9 848 1200C883.041 1195.83 918.24 1210.74 954 1206M1204 1201C1226.71 1199.1 1251.7 1206 1275 1206C1278.97 1206 1295.53 1203.98 1297.24 1208.78C1298.43 1212.14 1289.56 1219.48 1287.62 1222C1280.78 1230.87 1260.18 1258.97 1247.34 1258.08C1242.61 1257.75 1237.13 1248.1 1234.54 1244.64C1224.04 1230.58 1211.54 1216.96 1204 1201M553 1209C548.449 1222.15 525.863 1249.19 512 1252C512 1236.25 515.854 1220.79 516 1205C528.767 1208.14 539.83 1209 553 1209M1231 1227C1238.79 1228.1 1245.46 1235.19 1251.96 1235.64C1258.19 1236.06 1262.3 1224.86 1259.72 1220.15C1253.31 1208.42 1234.71 1218.55 1231 1227M2020.86 1218.08C2017.02 1218.7 2012.44 1229.29 2018.06 1227.89C2021.47 1227.05 2025.81 1217.28 2020.86 1218.08M154.092 1217.82C149.564 1219.33 172.981 1259.3 171.498 1269C169.001 1285.34 140.892 1300.33 141.602 1314.85C141.83 1319.51 152.996 1317.97 156 1318.34C168.334 1319.87 180.699 1320.01 193 1322.02C196.88 1322.65 203.646 1326.5 207.392 1325C213.487 1322.55 204.967 1314.2 203.142 1311.92C195.814 1302.75 179.034 1282.07 179.173 1270C179.376 1252.43 204.378 1238.46 205.717 1222.91C206.114 1218.31 199.015 1218.09 196 1218.02C185.379 1217.77 163.526 1214.69 154.092 1217.82M196 1224C194.18 1229.15 181.11 1260 175.914 1260C170.563 1260 161.375 1229.66 164.345 1226.26C167.913 1222.18 190.347 1224.01 196 1224M1610 1249C1615.58 1247.71 1632.34 1239.15 1633.92 1252.04C1635.11 1261.72 1609 1273.12 1607.35 1286C1605.41 1301.13 1624.47 1298.25 1631.78 1291.91C1648.65 1277.26 1638.34 1257.58 1657 1244.91C1658.68 1243.76 1671.17 1236.93 1669.46 1234.67C1665.33 1229.24 1648.13 1245.71 1644.04 1247.02C1633.99 1250.24 1613.86 1223.98 1610 1249M1966 1263C1970.5 1260.04 1973.19 1255.16 1978.14 1252.71C1984.68 1249.47 2006.23 1256.46 2004.32 1265.9C2003.59 1269.5 1998.56 1272.49 1996.25 1275.08C1989.13 1283.05 1971.12 1317.33 1996 1313.66C2022.53 1309.74 2009.2 1282.71 2013.98 1268.16C2018.1 1255.58 2041.58 1252.19 2052 1253C2044.97 1236.25 2021.82 1257.95 2012.04 1259.07C2007.02 1259.65 2002.91 1253.49 1999 1251.11C1987.97 1244.4 1962.46 1244.48 1966 1263M945 1298C938.054 1299.48 913.78 1304.61 908.3 1298.74C905.12 1295.33 905.01 1265.06 905 1259C918.701 1264.1 939.606 1284.5 945 1298M1638 1259C1640.78 1270.06 1631.45 1296.41 1616.21 1293.16C1603.04 1290.35 1621.32 1271.23 1625 1268.34C1629.22 1265.03 1633.29 1261.6 1638 1259M901 1266C901.549 1275.15 907.311 1291.18 901.74 1299.54C893.284 1312.23 864.625 1302 853 1302C860.559 1292.43 889.617 1270.17 901 1266M545 1304C522.651 1303.63 501.431 1299.08 479 1300C482.368 1293.67 502.284 1267.77 510.06 1267.98C513.606 1268.08 516.647 1273.54 518.499 1276C525.39 1285.15 540.729 1294.34 545 1304M1274 1307C1251.32 1302.13 1225.13 1305 1202 1305C1206.92 1294.13 1225.69 1285.67 1234.66 1277.68C1237.69 1274.99 1242.15 1268.57 1246.75 1268.92C1257.67 1269.75 1272.13 1297.54 1274 1307M2008 1271C2009.66 1278.74 2008.98 1318.27 1991.37 1308.65C1979.58 1302.21 2001.68 1274.92 2008 1271M1625.14 1272.91C1619.57 1274.45 1621.61 1283.57 1626.98 1282.24C1633.16 1280.7 1632.05 1271.01 1625.14 1272.91M198 1317C181.724 1314.09 165.081 1316.09 149 1312C154.302 1302.38 163.167 1295.36 168.879 1286C169.961 1284.23 172.262 1276.83 175.014 1277.32C182.504 1278.67 195.237 1310.08 198 1317M557 1604C541.238 1630.97 519.181 1600.56 500 1607.62C480.306 1614.86 485.915 1622.17 483.002 1638C482.487 1640.8 478.847 1653.04 482.549 1654.24C487.962 1655.99 495.993 1643.64 502 1642.79C510.52 1641.59 540.586 1651.89 547.586 1644.93C552.026 1640.51 553.114 1628.9 554.879 1623C556.683 1616.97 562.929 1609.26 557 1604M552 1616C545.895 1633.58 535.609 1642.22 516.019 1640.87C510.929 1640.53 507.202 1635.92 501.997 1636.74C495.84 1637.72 491.329 1643.21 486 1646C488.376 1632.19 490.925 1608.84 510 1610.29C517.345 1610.85 521.412 1618.64 528 1621.08C536.052 1624.06 544.683 1618.66 552 1616M1182.86 1617.54C1179.58 1617.14 1179.17 1622.41 1182.22 1622.92C1185.35 1623.44 1186.08 1617.94 1182.86 1617.54M1592.36 1618.54C1587.03 1621.35 1593.42 1640.18 1593.88 1645C1596.55 1672.91 1600.73 1701.22 1604.42 1729C1604.87 1732.42 1605.37 1760.17 1610.64 1758.24C1616.18 1756.21 1621.46 1737.28 1623.89 1732C1635.06 1707.74 1644.41 1680.87 1658.14 1658C1659.72 1655.36 1672.45 1631.12 1668.59 1630.32C1663.71 1629.32 1657.82 1648.57 1656.07 1652C1646.26 1671.26 1637.26 1698.73 1609.13 1687.63C1597.86 1683.19 1598.96 1644.67 1597 1634C1596.58 1631.69 1596.7 1616.26 1592.36 1618.54M1230 1700C1238.2 1689.12 1236.43 1656.37 1235.34 1643C1234.77 1636.06 1237.51 1628.15 1228.97 1625.23C1219.61 1622.02 1210.53 1631.47 1205.47 1638.22C1196.54 1650.1 1177.15 1692.05 1160.05 1690.99C1152.9 1690.55 1153.36 1673.3 1149.35 1674.76C1140.76 1677.91 1152.23 1697 1159 1697.22C1180.83 1697.92 1196.11 1660.6 1206.57 1646C1209.77 1641.54 1220.97 1624.8 1228.06 1631.83C1242.52 1646.16 1219.65 1682.63 1230 1700M2022 1688C2016.51 1677.12 2030.6 1662.51 2037.57 1653.92C2039.24 1651.88 2047.1 1644.23 2043.14 1641.41C2036.48 1636.67 2021.46 1667.52 2019.02 1672C2012.54 1683.89 1982.18 1704.38 1967.82 1691.02C1961.88 1685.49 1962.19 1663.98 1960.6 1656C1960.02 1653.11 1955.73 1627.93 1952.23 1631.97C1948.44 1636.33 1955.1 1652.77 1956.07 1658C1960.78 1683.54 1962.26 1709.33 1965.86 1735C1966.55 1739.9 1967.85 1762.36 1975.05 1762.36C1980.03 1762.36 1985.49 1745.92 1987.33 1742C1994.2 1727.35 2005.98 1693.16 2022 1688M831 1664C833.842 1653.78 845.121 1636.76 856.572 1649.19C866.576 1660.05 862.08 1684.55 860.68 1698C860.226 1702.36 856.565 1715.06 861.335 1717.59C866.82 1720.5 869.958 1705.33 871.157 1702C877.825 1683.47 882.259 1661.08 900.003 1648.72C904.764 1645.4 925.203 1649.08 926.239 1646.7C928.296 1641.98 909.572 1640.54 907 1640.85C894.725 1642.31 888.369 1652.7 881.958 1662C875.626 1671.18 873.081 1683.8 866 1692C866.491 1678.14 873.706 1636.42 848 1637.95C838.618 1638.51 820.44 1655.43 831 1664M153 1638.84C146.647 1640.89 125.57 1659.23 143.647 1659C146.627 1658.96 143.391 1652.68 145.431 1650.26C152.901 1641.41 165.517 1644.37 171.568 1653.02C175.053 1658.01 132.2 1707.97 165 1703.14C191.257 1699.27 176.025 1668.47 185.148 1656.41C189.85 1650.19 198.888 1643.84 207 1644.34C209.066 1644.47 218.3 1649.86 218.919 1646.45C222.761 1625.23 180.339 1650.84 180.078 1650.82C169.744 1649.9 166.085 1634.64 153 1638.84M1989.4 1649.37C1984.8 1651.82 1982.32 1668.25 1988.61 1664.89C1994.03 1662 1997.37 1645.11 1989.4 1649.37M178 1663C179.286 1670.35 175.588 1705.96 160.51 1695.61C151.692 1689.55 172.597 1666.44 178 1663M1236 1688L1237 1693C1239.9 1690.9 1239.22 1689.09 1236 1688M1637 1691C1631.55 1709.71 1620.47 1726.61 1612 1744C1609.54 1736.74 1602.58 1699.36 1608.82 1694.26C1613.4 1690.52 1630.79 1691.59 1637 1691M2007 1693C2002.57 1708.58 1991.27 1724.78 1983.43 1739C1982.15 1741.32 1978.01 1752.36 1975.05 1752.36C1972.17 1752.36 1972.01 1742.91 1971.78 1741C1970.77 1732.53 1963.63 1707.94 1968.4 1700.78C1971.73 1695.77 2000.28 1694.35 2007 1693M866.667 1695.67C866.722 1695.72 866.778 1696.78 866.333 1696.33C866.278 1696.28 866.222 1695.22 866.667 1695.67M37 1906L40 1904C37.9076 1904.41 37.9802 1904.22 37 1906M2026 1941C2034.45 1935.19 2038.96 1925.56 2048 1920C2034.41 1944.17 2014.41 1967.74 1997.5 1990C1992.2 1996.97 1978.56 2006.93 1977.53 2015.93C1976.67 2023.34 1986.82 2019.28 1990 2018C1986.75 2030.04 1987.99 2044.76 2002 2049.34C2010.98 2052.28 2021.86 2047.56 2026 2058C2029.23 2053.61 2032.39 2049.12 2038.79 2050.64C2041.44 2051.27 2046.84 2059.1 2049.59 2056.15C2051.61 2053.99 2046.32 2049.71 2048.19 2046.39C2053.92 2036.19 2065.09 2022.48 2072.62 2013.04C2083.86 1998.96 2104.21 1990.93 2113 1975C2099.13 1977.47 2089.9 1991.63 2077 1997C2083.7 1982.57 2091.74 1964.13 2095.19 1949C2096.62 1942.73 2088.79 1939.6 2091.26 1933.95C2092.67 1930.73 2106.38 1911.54 2104.93 1910.62C2095.88 1904.88 2079.16 1919.05 2071 1920.76C2065.43 1921.93 2060.11 1917.75 2054 1919C2068.13 1899.12 2026.08 1924.58 2026 1941M2089 1916C2086.73 1921.05 2080.58 1925.53 2075 1925C2078.89 1920.54 2083.18 1917.32 2089 1916M2049 1919L2048 1920L2049 1919M2043 1934C2044.98 1930.3 2066.98 1915.46 2065.72 1925.87C2065.36 1928.86 2046.72 1932.29 2043 1934M2091 1924C2085.42 1939.21 2078.24 1930.07 2091 1924M2046 1954C2047.53 1950.09 2070.98 1922.28 2074.24 1928.77C2076.35 1932.97 2050.06 1951.83 2046 1954M2063 1951C2071.44 1927.47 2091.86 1941.47 2063 1951M2042 1935C2041.23 1936.18 2041.18 1936.23 2040 1937C2040.55 1935.36 2040.36 1935.55 2042 1935M2052 1936.33C2052.77 1936.33 2052.16 1936.83 2051.67 1936.67L2052 1936.33M2091 1945C2090.8 1948.57 2090.54 1950.76 2087 1952C2086.8 1948.16 2087.48 1946.64 2091 1945M2041 1948C2039.15 1950.52 2038.09 1951.53 2035 1952C2036.95 1949.89 2038.29 1948.95 2041 1948M2084 1950C2083.2 1963.19 2072.92 1980.41 2060 1985C2063.85 1975.66 2074.69 1954 2084 1950M2076 1951C2068.22 1965.56 2057.08 1990.26 2043 1999C2046.94 1988.07 2055.42 1979.22 2059 1968C2050.41 1969.39 2045.9 1977.2 2038 1980C2045.94 1967.86 2060.79 1952.66 2076 1951M545 1998C549.994 2021.28 539.196 2047.8 537 2071C543.89 2069.74 542.555 2056.59 544.015 2051C550.394 2026.55 547.413 2004.58 548.015 1980C548.172 1973.6 556.608 1955.79 550.896 1953.99C537.815 1949.87 548.438 1992.97 542.667 1994.27C539.076 1995.08 533.539 1989.35 531 1987.33C520.074 1978.64 514.814 1965.27 504.573 1956.32C494.12 1947.18 505.011 1967.01 507.452 1970.04C510.195 1973.44 513.109 1976.8 516.089 1980C520.108 1984.31 529.493 1989.98 531.698 1995.29C532.979 1998.36 527.87 2005.24 526.525 2008C520.317 2020.76 513.456 2033.22 507.319 2046C506.153 2048.43 498.129 2060.65 504.149 2061.53C508.455 2062.16 511.489 2048.09 512.9 2045C521.171 2026.92 530.035 2010.95 545 1998M1206 2086C1214.65 2084.72 1217.48 2064.91 1222.12 2058C1235.34 2038.33 1247.73 2019.29 1258.25 1998C1263.98 1986.39 1266.72 1971.84 1278 1964C1280.21 1996.03 1278.36 2030.37 1284.3 2062C1285.03 2065.86 1284.88 2091 1288.86 2091C1293.58 2091 1290.23 2064.43 1289.62 2061C1285.01 2035 1287.05 2009.22 1284.32 1983C1283.57 1975.81 1285.84 1962.35 1280.11 1956.71C1273.56 1950.27 1261.57 1978.85 1259.66 1983C1244.41 2016.22 1210.8 2049.91 1206 2086M902 1972C902 1985.46 903.997 1998.63 905.217 2012L907.783 2039C908.194 2043.63 905.214 2073.59 909.353 2074.21C913.762 2074.88 912.851 2056.34 912.959 2053C913.688 2030.68 909.65 2007.2 907.32 1985C906.884 1980.84 909.853 1958.2 906.535 1957.11C900.991 1955.27 890.627 1980.8 888.504 1985C877.422 2006.92 864.816 2029.07 852.45 2050.22C849.732 2054.86 838.282 2067.93 840.846 2073.35C842.783 2077.44 848.172 2068.27 848.986 2067C854.732 2058 858.809 2048.37 863.808 2039C868.634 2029.96 873.377 2020.56 879.016 2012C887.275 1999.46 892.711 1983.55 902 1972M1669 1983C1671.06 1994.48 1669.81 2006.51 1672.76 2018C1674.77 2025.87 1677.4 2033.87 1678 2042C1678.26 2045.57 1683.36 2076.7 1687.17 2070.17C1689.75 2065.75 1685.54 2054.76 1684.6 2050C1681.05 2032.06 1676.65 2014.17 1674.56 1996C1674.13 1992.26 1675.93 1972.04 1671.62 1971.32C1666.96 1970.54 1656.91 1990.31 1654.48 1994C1642.04 2012.87 1632.52 2033.23 1618.09 2050.96C1615.42 2054.23 1604.27 2065.56 1606.61 2070.13C1609.04 2074.87 1629.05 2045.3 1631.49 2042C1636.94 2034.62 1641.76 2026.81 1646.56 2019C1653.84 2007.17 1659.57 1993.3 1669 1983M147 2010C141.216 2006.47 120.666 1978.06 115.516 1979.86C110.459 1981.64 120.734 1992.48 122.139 1994C126.873 1999.12 136.261 2005.18 138.396 2012C141.002 2020.32 125.831 2037.51 122.28 2045C121.328 2047.01 114.408 2062 120.099 2062C123.111 2062 124.153 2053.14 125.261 2051C130.829 2040.24 136.6 2026.94 146 2019C145.302 2030.66 144.481 2042.29 145.078 2054C145.134 2055.1 146.284 2066.87 148.88 2063.89C151.85 2060.49 148.996 2046.59 149 2042C149.016 2024.43 161.874 1989.22 155.043 1973.61C150.697 1963.67 149.04 1991.76 148.921 1994C148.636 1999.39 147.194 2004.59 147 2010M2023 1971C2022.93 1978.04 2016.26 1981.17 2012 1986L2011 1985C2014.17 1979.8 2017.93 1974.47 2023 1971M2052 1975C2042.64 1996.73 2025.43 2023.28 2001 2030C2004.67 2011.97 2036.35 1983.33 2052 1975M287 1977L287 1980C288.797 1980 288.522 1979.99 290 1979L287 1977M1947 1978.8C1921.8 1986.52 1905.62 2022.83 1904 2047C1902.93 2063 1908.91 2085.04 1930 2079.12C1958.29 2071.18 1967.01 2033.99 1967 2009C1967 1998.17 1963.3 1973.8 1947 1978.8M309 1987C307.057 1978.13 300.66 1983.36 309 1987M2033 1980C2032.11 1983.91 2030.76 1985.57 2027 1987C2028.27 1983.48 2029.75 1981.84 2033 1980M484.849 1982.33C479.554 1986.31 481.476 2010.8 482.129 2017C482.373 2019.31 484.509 2026.16 488.182 2023.59C493.141 2020.13 492.493 1994.91 491.834 1989C491.521 1986.2 488.952 1979.25 484.849 1982.33M1954 1983C1951.97 1984.53 1945.48 1987.88 1946.2 1991.05C1946.24 1991.21 1957.26 1988.72 1959.66 1995.03C1968.38 2017.95 1955.94 2071.36 1927 2074.75C1909.71 2076.78 1906.39 2057.27 1908.37 2044C1911.91 2020.25 1927.05 1985.8 1954 1983M2076 1983C2075.11 1989.6 2069.95 1993.63 2064 1996C2067.22 1990.84 2070.64 1986.05 2076 1983M2059 1991C2057.52 1996.72 2054.13 2001.09 2049 2004C2050.98 1998.44 2053.77 1993.92 2059 1991M1999 2011C2000.54 2007.08 2013.4 1990.7 2018.11 1994.97C2025.13 2001.33 2003.22 2010.63 1999 2011M2069 1999C2066.62 2007.86 2058.44 2013.12 2052 2019C2050.88 2011.49 2062.64 2001.3 2069 1999M1994 2004C1992.83 2011.09 1987.74 2014.5 1981 2016C1983.93 2010.64 1988.31 2006.29 1994 2004M2041 2007C2039.87 2014.94 2035.08 2022.19 2028 2026C2030.65 2018.52 2033.74 2010.89 2041 2007M1937.76 2015.76C1928.31 2015.86 1925.93 2037.92 1935.86 2036.68C1942.32 2035.87 1943.41 2015.7 1937.76 2015.76M2005 2015C1996.52 2035.51 1989.02 2014.28 2005 2015M2026 2018C2023.9 2027.7 2016.96 2035.79 2017 2046C1982.04 2041.35 2010.26 2029.2 2026 2018M2050 2019L2049 2020L2050 2019M2041 2020C2040.1 2022.68 2039.42 2023.55 2037 2025C2038.01 2022.53 2038.8 2021.51 2041 2020M2056 2020C2054.04 2023.84 2051.97 2026.24 2048 2028C2050.03 2024.27 2052.33 2022.11 2056 2020M887.586 2024.41C882.512 2026.98 875.777 2044.39 885.822 2039.63C890.801 2037.27 894.8 2020.75 887.586 2024.41M2046 2029C2044.24 2031.35 2042.81 2032.15 2040 2033C2041.95 2030.89 2043.29 2029.95 2046 2029M2030 2034C2027.64 2037.08 2025.43 2039.17 2022 2041C2023.41 2036.67 2025.19 2033.84 2030 2034M2050 2033C2046.54 2039 2041.77 2042.53 2035 2044C2038.21 2038.45 2044.07 2035.14 2050 2033M2032 2044C2029.94 2044.72 2028.2 2044.91 2026 2045L2026 2043C2028.13 2043.15 2029.93 2043.45 2032 2044M1271 2070C1266.66 2070.01 1262.32 2070.53 1258 2070.46C1255 2070.42 1252.01 2070.03 1249 2070.01C1223.1 2069.8 1264.88 2086.64 1271 2070z"/>
</svg>
