<?xml version="1.0" standalone="yes"?>
<svg xmlns="http://www.w3.org/2000/svg" width="2200" height="2200">
<path style="fill:#0d0d0d; stroke:none;" d="M1948 140C1951.52 132.225 1959.41 133.842 1967 132.713C1984.39 130.127 2001.38 127 2019 127C1999.34 152.658 1975.7 187.448 1951 208C1951.87 198.639 1950.34 190.289 1949.32 181C1948.63 174.654 1949.44 168.286 1948.08 162C1947.5 159.315 1941.72 134.791 1938.4 138.969C1935.79 142.272 1938.55 154.368 1939.9 158C1944.43 170.185 1944.83 185.956 1945.01 199C1945.06 202.627 1943.61 217.738 1949.07 217.222C1957.1 216.463 1964.6 203.045 1968.46 197.078C1979.85 179.461 1995.57 162.282 2009.98 147C2013.33 143.445 2027.89 129.388 2023.08 123.94C2019.72 120.142 2009.43 121.938 2005 122.438C1989.27 124.213 1972.71 128.588 1957 128.981C1953.98 129.057 1936.99 127.952 1936.32 131.139C1936.04 132.491 1946.36 137.597 1948 140M1216 140C1216.41 166.712 1266.81 186.965 1285 200.877C1288.71 203.716 1306.32 220.749 1311.03 216.122C1314.35 212.864 1293.39 199.643 1290.43 196.993C1276.37 184.404 1257.46 177.961 1243.04 165.597C1234.38 158.175 1226.81 143.93 1216 140M596 141C586.258 160.067 581.892 190.04 587 211C580.517 208.488 578.799 201.373 574.164 196.63C560.18 182.318 540.128 153.021 520 149C522.416 161.907 536.677 169.684 545.925 177.582C557.109 187.134 564.951 199.125 573.913 210.42C576.594 213.799 588.518 228.973 593.259 225.071C596.717 222.224 596.004 212.075 595.661 208C594.225 190.94 595.977 177.099 597 160C607.108 161.495 600.306 145.626 596 141M1565 237C1589.47 236.988 1613.17 230.191 1637 225.574C1640.51 224.894 1657.63 226.4 1658.15 225.429C1661.13 219.819 1656.29 209.03 1656.04 203C1655.19 182.441 1653.87 167.513 1660 148C1652.25 149.54 1649.6 156.324 1643 158C1644.34 155.198 1654.34 144.876 1650.58 142.536C1649.26 141.713 1630.71 160.6 1628 162.949C1610.73 177.944 1596.55 195.306 1580.54 211.463C1575.47 216.571 1564.09 220.676 1561.47 227.505C1560.04 231.21 1569.34 227.757 1565 237M859 153C849.243 150.791 852.245 162.474 851.698 169C850.231 186.528 852.36 204.623 847.368 222C846.333 225.606 833.424 239.638 835.969 241.713C840.877 245.714 854.817 231.216 860.756 231.166C866.284 231.119 863.953 242.482 868.922 241.677C873.125 240.996 878.861 228.54 881.879 225.32C894.829 211.507 908.596 198.663 923 186.398C927.526 182.545 953.793 161.085 951.239 154.608C948.753 148.304 933.73 164.872 931.981 166.42C917.915 178.867 903.115 190.886 888 202.031C884.39 204.692 876.134 212.783 871.52 212.523C868.036 212.328 869.999 199.53 870 197C870.004 183.744 865.988 171.896 864.949 159C864.648 155.269 866.065 145.905 863.02 143.33C858.542 139.543 859.001 151.314 859 153M209 159C208.863 166.176 206.72 172.911 206.144 180C205.79 184.346 205.814 188.656 205.313 193C200.627 233.591 213.497 178.374 215.42 164C215.856 160.741 218.428 150.574 215.16 148.389C210.805 145.478 197.842 157.814 194.32 160.437C180.653 170.617 166.603 180.726 152.68 190.592C147.58 194.206 139.683 195.012 137.525 201.933C133.754 214.029 160.94 192.348 162.785 190.982C168.895 186.461 175.404 183.036 181.562 178.703C190.812 172.193 198.784 164.092 209 159M1212 150C1210.84 171.448 1216.61 192.566 1215.97 214C1215.82 218.953 1210.25 233.177 1217.22 235.469C1233.21 240.731 1262.42 224.775 1279 222.444C1281.51 222.091 1300.28 223.246 1296.75 217.689C1293.94 213.275 1285.97 216.343 1282 216.811C1267.09 218.565 1252.76 223.877 1238 226.488C1234.23 227.156 1222.47 232.055 1220.34 227.746C1218.3 223.615 1222.11 213.939 1221.99 209.01C1221.66 195.886 1218.41 182.18 1217.09 169C1216.52 163.366 1217.96 152.361 1212 150M1648 163C1651.14 175.435 1648.89 190.937 1650.32 204C1650.71 207.525 1653.33 214.967 1650.72 217.983C1648.2 220.894 1636.14 220.624 1632.08 221.815C1612.75 227.485 1591.91 230.138 1572 234C1579.02 220.827 1596.6 212.604 1608 203.432C1622.97 191.392 1634.2 176.122 1648 163M1619 187C1614.97 193.579 1608.71 199.264 1602 203C1605.6 196.309 1612.45 190.725 1619 187M841 194C843.951 193.367 846.333 192.415 849 191C845.471 190.196 843.241 191.217 841 194M858 212L855 212L855 198C860.951 200.092 858.391 207.042 858 212M876 221L875 222L876 221M860 224C858.723 225.897 858.177 226.259 856 227C857.323 225.206 857.906 224.749 860 224M872 224L870 227L872 224M1997 485C1987.96 486.928 1991.63 494.918 1990.97 502.059C1989.41 518.959 1989.61 536.042 1988.93 553C1988.75 557.638 1985.44 569.689 1989.51 573.031C1995.59 578.023 1995 557.373 1995 555C1995 550.669 1994.93 546.331 1995.02 542C1995.17 534.464 1995.54 526.497 1996.32 519C1997.5 507.683 1996.62 496.341 1997 485M1625.74 494.544C1621.66 497.214 1625.82 511.83 1625.96 516C1626.55 533.625 1625.41 552.528 1623.17 570C1622.89 572.218 1618.67 589.276 1625.54 585.469C1630.19 582.896 1629.81 572.561 1629.96 568C1630.52 551.286 1634.83 532.575 1632.47 516C1632.12 513.594 1630.01 491.753 1625.74 494.544M829 506C847.146 512.922 883.533 502.045 904 502.001C907.615 501.993 926.439 505.654 925.574 499.375C924.826 493.944 906.798 495.982 903 496.003C887.19 496.089 839.341 493.145 829 506M144 510L142 504C134.29 509.58 149.581 518.937 154 521.746C175.883 535.655 194.386 554.113 216.014 568.018C220.766 571.074 229.769 588.828 230.123 588.592C234.298 585.813 234.688 575.437 235.353 571C237.638 555.755 238.465 540.074 241.887 525C242.93 520.402 249.409 509.706 245.448 506.002C239.99 500.897 229.573 503.631 223 504.073C204.724 505.301 187.494 509 169 509C161.226 509 150.638 505.874 144 510M230 571C217.876 564.794 209.666 554.648 198.96 546.903C184.834 536.684 162.667 526.825 152 513C173.755 514.335 194.273 515.033 216 511.183C220.502 510.386 235.284 505.727 238.644 510.083C241.002 513.14 236.882 522.527 236.119 526C232.883 540.736 231.397 555.997 230 571M508 513C505.755 523.009 516.515 521.501 523 519C519.915 515.681 512.44 515.503 508 513M1248 513C1242.3 531.207 1247 558.672 1247 578C1247 582.04 1244.97 596.997 1251.74 596.997C1257.99 596.997 1253.07 580.307 1253.03 577C1252.78 555.481 1255.32 534.286 1250 513L1248 513M837 517C837.994 520.19 838.921 521.65 842 523C841.252 519.523 840.507 517.952 837 517M2050.13 518.028C2043.56 519.093 2031.05 536.392 2044.01 534.51C2053.78 533.092 2062.9 515.957 2050.13 518.028M2051 523L2051 527L2048 527L2048 523L2051 523M877.008 525.09C864.719 527.155 865.85 549.237 878.999 547.646C892.837 545.972 890.251 522.865 877.008 525.09M1959.43 526.408C1953.46 529.053 1947.73 545.663 1958.02 541.528C1965.73 538.43 1968.33 522.459 1959.43 526.408M880 528C878.797 532.737 875.1 535.586 871 538C872.131 532.842 874.763 529.289 880 528M1675 533.789C1662.35 536.108 1661.42 553.733 1676 551.329C1687.28 549.47 1686.5 531.682 1675 533.789M878 540C878 542.626 876.237 541.791 874 541C882.831 532.869 885.39 540.098 878 540M1679 539L1679 545C1674.95 543.573 1674.9 540.37 1679 539M1213.02 550.536C1200.44 552.339 1210.13 567.592 1220.97 565.609C1232.85 563.437 1219.58 549.598 1213.02 550.536M527.073 550.803C518.718 553.775 527.377 567.352 533.701 565.111C549.121 559.647 540.725 545.948 527.073 550.803M1217 554C1216.39 556.915 1215.72 557.781 1213 559L1214 554L1217 554M534 558C532.825 557.227 532.773 557.175 532 556C533.635 556.545 533.455 556.365 534 558M580.999 586.524C556.092 590.235 527.194 591.993 502 592C499.076 592.001 477.673 591.311 477.316 593.265C476.165 599.562 499.635 598.003 503 598C524.559 597.981 546.234 594.236 568 593.993C572.277 593.945 586.037 594.027 588.332 589.705C590.399 585.814 582.718 586.268 580.999 586.524M644 625L645 630C646.451 627.564 646.26 626.705 644 625M287 634C289.711 634.472 291.615 635.655 294 637C292.971 632.192 288.982 625.869 287 634M17 655L17 679C19.1777 672.572 19.1777 661.428 17 655M319.583 660.278C318.652 660.816 319.485 662.26 320.417 661.722C321.348 661.184 320.515 659.74 319.583 660.278M17 681L17 688C17.8643 685.405 17.8644 683.595 17 681M17 690L17 693C17.6961 691.446 17.6961 691.554 17 690M17 696L17 700C17.5073 698.307 17.5072 697.692 17 696M17 702L17 716C18.4792 711.634 18.4792 706.366 17 702M17 752L17 758C17.7545 755.697 17.7545 754.303 17 752M17 760L17 777C18.7004 771.981 18.7005 765.019 17 760M17 779L17 783C17.5073 781.307 17.5073 780.693 17 779M17 787L17 796C18.0631 792.853 18.0631 790.147 17 787M182 885C202.845 864.294 170.086 850.272 175.283 873.767C176.172 877.786 180.419 880.964 182 885M182 874C175.75 869.022 183.506 866.323 182 874M1304 881C1286.93 903.863 1266.94 924.246 1248.57 945.96C1245.42 949.688 1229.27 961.985 1232.51 967.248C1235.27 971.726 1251.11 952.041 1253.44 949.68C1270.38 932.528 1301.07 905.731 1306 881L1304 881M527.593 887.426C521.787 890.748 522 930.509 522 938C522 940.346 520.887 953.916 526.568 950.592C530.922 948.046 528.091 938.986 528.019 935C527.906 928.66 534.447 883.503 527.593 887.426M1944.33 887.399C1938.87 892.043 1958.78 898.972 1961 899.824C1981.8 907.789 2001.71 918.424 2021 929.564C2024.95 931.848 2036.44 941.45 2041.11 937.718C2046.1 933.724 2025.6 924.734 2023 923.204C2004 912.016 1983.79 901.827 1963 894.583C1960.12 893.579 1945.82 886.133 1944.33 887.399M914 893L916 897C906.948 899.396 901.526 909.296 895.661 916C884.812 928.403 872.664 939.583 861.036 951.218C859.409 952.845 844.026 969.61 850.438 970.677C855.225 971.473 864.032 956.215 867.079 953C880.836 938.482 895.154 924.474 908.967 910C911.981 906.841 923.233 897.273 922.459 892.52C921.905 889.123 915.575 892.367 914 893M1624.93 892.183C1619.16 893.254 1608.94 910.775 1615.93 909.351C1621.14 908.291 1633.95 890.513 1624.93 892.183M178 896C175.503 899.596 174.912 901.744 176 906C166.606 909.722 165.101 957.71 171 965C179.703 954.502 177.284 925.548 178.04 912C178.354 906.382 181.186 901.139 178 896M1238.98 896.516C1224.96 898.398 1227.22 918.164 1239.94 916.946C1250.33 915.952 1252.49 894.704 1238.98 896.516M1245 908C1240.62 905.73 1238.65 905.015 1234 907C1235.32 897.008 1244.67 898.406 1245 908M1558.39 915.307C1554.4 919.812 1574.38 926.985 1577 927.892C1598.17 935.216 1620.05 937.801 1641 946.131C1644.47 947.509 1658.58 955.689 1661.47 951.126C1664.59 946.223 1644.9 940.652 1642 939.682C1621.4 932.774 1599.21 929.91 1579 922.257C1576.18 921.19 1560 913.485 1558.39 915.307M1962 924.807C1952.97 926.878 1941.92 949.359 1955.09 946.706C1966.86 944.334 1980.42 920.582 1962 924.807M1958 936C1957.1 937.922 1956.92 937.999 1955 939L1958 936M907.051 938.367C897.86 940.619 899.44 959.538 910.002 956.69C921.41 953.613 917.8 935.734 907.051 938.367M907 942C909.454 945.398 909.137 948.067 908 952C905.941 948.71 905.766 945.669 907 942M524.283 985.282C517.034 989.515 522.106 1005.97 530.511 1001.67C540.009 996.816 533.996 979.61 524.283 985.282M244.5 991.5C243.873 992.127 244.873 993.127 245.5 992.5C246.128 991.873 245.127 990.873 244.5 991.5M529 991C530.03 992.948 530.136 993.783 530 996C528.765 994.037 528.5 993.257 529 991M17 1118L18 1119L17 1118M17 1140L17 1449L19 1449C15.7883 1377.18 18.0638 1304.88 18.0001 1233C17.9762 1205.97 25.6358 1165.49 17 1140M158 1157L159 1158L158 1157M105 1180C107.464 1179.41 108.464 1178.99 110 1177C107.536 1177.59 106.536 1178.01 105 1180M2017.01 1209.99C2007.06 1213.25 2006.67 1228.09 2017.96 1223.79C2026.65 1220.48 2030.05 1205.71 2017.01 1209.99M1971.93 1212.15C1965.44 1213.22 1960.58 1226.85 1969.05 1225.35C1974.84 1224.33 1980.01 1210.81 1971.93 1212.15M918.082 1213.47C910.864 1216.24 907.166 1235.65 917.046 1232.46C926.012 1229.56 928.746 1209.37 918.082 1213.47M2018 1214C2016.55 1215.61 2015.95 1216.06 2014 1217L2015 1213C2016.8 1213 2016.52 1213.01 2018 1214M880.997 1217.29C870.291 1220.81 873.356 1237.97 882.971 1234.97C891.037 1232.45 890.729 1214.09 880.997 1217.29M922 1218C920.72 1221.4 919.403 1222.72 916 1224C917.461 1220.72 918.464 1218.95 922 1218M1995.76 1237.1C1979.29 1243.55 1958.59 1259.65 1956.55 1279C1953.21 1310.69 1990.86 1323.97 2016 1313.86C2041.51 1303.6 2042.53 1266.1 2024.96 1249.09C2019.89 1244.18 2003.07 1234.24 1995.76 1237.1M1646 1239.45C1628.86 1241.19 1606.55 1251.13 1600.36 1269C1591.29 1295.21 1615.55 1325.24 1642 1322.85C1660.73 1321.15 1680 1308.12 1684.48 1289C1689.81 1266.27 1670.78 1236.93 1646 1239.45M490 1245C494.208 1253.73 495.097 1262.49 504.111 1271.78C513.901 1281.87 534.114 1291.51 540 1304C537.152 1304.45 527.324 1310.6 534.111 1313.17C531.105 1312.03 554.425 1307.21 551.667 1309.28C555.82 1306.17 549.251 1301.77 552.139 1298.39C561.514 1287.42 573.143 1278.03 582.361 1266.97C584.342 1264.6 593.847 1257.42 588.667 1253.97C585.12 1251.61 574.505 1254.37 570 1253.92C553.376 1252.26 537.825 1250 521 1250C516.556 1250 500.913 1251.33 501 1246C497.133 1246.27 493.78 1245.1 490 1245M1266 1244C1259.9 1246.15 1261 1257.5 1261 1263C1261 1275.31 1263 1287.67 1261.83 1300C1261.44 1304.13 1258.72 1312.9 1261.07 1316.56C1267.61 1326.76 1268 1294.78 1268 1292C1268 1285.29 1267 1278.72 1267 1272C1267 1261.82 1268.99 1253.73 1266 1244M1990.14 1244.59C2029.28 1233.1 2050.42 1297.76 2013 1309.22C2001.94 1312.6 1979.64 1312.26 1971.18 1303.81C1953.53 1286.18 1967.4 1251.26 1990.14 1244.59M1635 1245.59C1684.26 1234.04 1696.59 1305.75 1649 1316.21C1602.08 1326.52 1587.06 1256.83 1635 1245.59M899.182 1248.33C889.494 1257.75 896.91 1294.3 895.783 1307C895.647 1308.53 893.691 1324.22 898.327 1321.33C901.597 1319.3 900.871 1309.39 901.21 1306C902.818 1289.91 903.444 1273.97 904.948 1258.04C905.128 1256.13 902.814 1244.8 899.182 1248.33M499 1250C512.256 1262.03 563.033 1259.73 581 1259C576.839 1268.45 555.211 1294.09 545 1295.17C532.821 1296.46 499.049 1261.98 499 1250M1660 1250L1659 1254C1659.94 1252.39 1660.16 1251.83 1660 1250M171.457 1260.4C156.955 1267.15 136.297 1301.75 127.431 1315C125.706 1317.58 116.966 1330.41 118.623 1333.33C118.627 1333.34 141.762 1330.85 145 1330.6C166.088 1328.99 187.869 1331.62 210 1329.32C214.822 1328.82 223.381 1331.7 227.473 1329.46C234.615 1325.56 227.209 1316.53 223.914 1313C211.184 1299.38 198.031 1287.6 186.407 1273C183.949 1269.91 176.109 1258.24 171.457 1260.4M172.861 1267.43C176.774 1267.94 181.546 1277.04 183.68 1280C192.179 1291.78 202.737 1299.99 213 1310.02C215.093 1312.06 225.893 1320.14 222.67 1323.76C219.934 1326.83 205.269 1324.76 201 1325.06C179.241 1326.6 153.571 1330.57 132.192 1325.72C125.502 1324.2 133.724 1315.55 135.677 1313C144.276 1301.75 154.543 1291.78 162.405 1280C164.222 1277.28 168.85 1266.9 172.861 1267.43M1283.03 1331.27C1275.59 1332.05 1272.84 1346.39 1282.03 1345.09C1290.63 1343.87 1292.81 1330.24 1283.03 1331.27M1240.93 1333.21C1234.71 1334.44 1227.4 1349.88 1236.13 1348.03C1242.36 1346.71 1249.48 1331.51 1240.93 1333.21M1240 1340C1238.36 1339.45 1238.55 1339.64 1238 1338C1239.18 1338.77 1239.23 1338.82 1240 1340M17 1484L17 1816C25.6298 1790.53 18 1750.01 18 1723C18 1667.97 19 1613.04 19 1558C19 1536.03 24.0316 1504.76 17 1484M1262.77 1583.41C1257.18 1587.45 1264.95 1605.75 1259.75 1612.2C1255.69 1617.22 1245.58 1615.03 1240.48 1620.32C1224.48 1636.96 1214.52 1668.07 1233.14 1685.76C1240.02 1692.29 1248.5 1691.57 1255.72 1696.24C1260.24 1699.17 1256.17 1721.43 1260.55 1719.38C1267.7 1716.02 1262.15 1701.87 1266.26 1696.82C1268.99 1693.47 1278.86 1693.26 1283 1691.22C1297.41 1684.1 1314.26 1666.01 1308.12 1648C1304.21 1636.54 1289.26 1620.27 1280.41 1613.34C1276.94 1610.63 1269.88 1613.59 1267.4 1610.16C1265.99 1608.21 1268.53 1579.23 1262.77 1583.41M174 1595.64C155.541 1599.92 135.637 1610.1 130.005 1630C122.051 1658.1 149.247 1691.8 179 1685.62C206.581 1679.89 220.672 1654.57 213.921 1628C210.452 1614.35 189.845 1591.96 174 1595.64M558 1598.63C545.357 1601.46 523.898 1603.92 517.501 1617.01C505.595 1641.36 529.624 1675.43 557 1669.38C570.052 1666.5 593.488 1653.07 594.801 1637.86C596.222 1621.39 575.687 1594.66 558 1598.63M897.078 1601.03C875.866 1609.45 858.657 1629.3 861.409 1653C863.72 1672.91 896.775 1692.86 915.997 1685.74C933.156 1679.38 951.489 1656.22 947.498 1637C943.558 1618.02 919.262 1592.22 897.078 1601.03M181.922 1601.8C225.759 1607.82 216.237 1686.03 171 1680.56C117.438 1674.07 130.419 1594.73 181.922 1601.8M537 1608L533 1616C541.865 1611.58 554.337 1601.71 564.864 1604C577.084 1606.66 592.646 1627.27 587.72 1640C583.098 1651.94 568.345 1660.35 556.783 1664.16C526.265 1674.21 505.457 1617.8 537 1608M903.456 1607.03C947.357 1598.5 954.597 1672.69 913 1680.3C860.804 1689.85 852.322 1616.97 903.456 1607.03M1583 1611C1584.05 1623.6 1597.35 1625.69 1600.28 1635.99C1601.56 1640.49 1591.17 1655.46 1591.02 1663C1590.45 1691.3 1614.2 1703.11 1640 1700.78C1645.54 1700.28 1654.18 1694.25 1658.73 1695.04C1664.54 1696.04 1671.64 1716.75 1678.19 1713.33C1686.19 1709.16 1665.67 1693.55 1666.29 1688.3C1666.95 1682.78 1675.72 1678.46 1677.25 1672C1681.42 1654.34 1664.8 1626.04 1648.68 1619.08C1630.12 1611.06 1621.16 1629.65 1606.96 1631.05C1598.1 1631.93 1590.48 1613.96 1583 1611M2058 1611C2048.49 1614.7 2038.91 1630.71 2029.46 1631.8C2025.23 1632.29 2022.09 1624.89 2017.97 1623.6C1997.44 1617.16 1975.29 1622.64 1966.74 1644C1963.76 1651.45 1961.25 1661.04 1962.92 1669C1964.03 1674.31 1969.51 1683.87 1967.63 1689C1965.57 1694.6 1935.57 1714.67 1939.5 1719.98C1941.67 1722.89 1947.64 1716.31 1949 1715.06C1955.65 1708.94 1966.41 1695.28 1975.22 1692.97C1999.92 1686.48 2025.33 1709.94 2040.18 1676.22C2041.94 1672.23 2044.32 1668.46 2044.65 1664C2045.27 1655.51 2033.08 1641.42 2035.5 1635.4C2039.63 1625.12 2054.62 1622.4 2058 1611M485 1613C484.905 1618.93 478.484 1625.55 484 1630C485.229 1628.04 486.346 1626.61 488 1625C488.055 1627.81 488.302 1630.28 489 1633C495.988 1623.72 498.434 1613.58 485 1613M1266.54 1618.84C1278 1612.82 1299.08 1638.33 1302.4 1647C1309.26 1664.89 1292.31 1681.17 1277.86 1687.72C1257.29 1697.05 1263.37 1649.59 1264.68 1637C1265.08 1633.13 1262.73 1620.85 1266.54 1618.84M1252.98 1619.44C1263.69 1618.51 1258.23 1665.06 1258.74 1674C1258.94 1677.46 1260.23 1689.39 1255.58 1690.2C1216.6 1696.92 1224.4 1621.94 1252.98 1619.44M975.042 1623.27C970.366 1627.15 976.057 1639.93 980.96 1635.25C985.333 1631.08 981.765 1617.68 975.042 1623.27M1651 1626C1640.83 1624.2 1631.47 1625.17 1624 1633C1643.8 1629.49 1664.18 1632.02 1671.54 1655C1673.75 1661.92 1671.59 1686.3 1659.22 1683.24C1650.89 1681.18 1639.54 1661.91 1632.44 1655.95C1627.27 1651.61 1611.94 1643.52 1611.41 1636.16C1610.49 1623.37 1644.23 1617.68 1651 1626M1996 1630C2002.17 1630 2020.67 1627.98 2022.9 1636.37C2024.74 1643.3 2003.6 1659.51 1999.02 1663.92C1994.37 1668.4 1982.7 1683.04 1976.05 1683C1964 1682.92 1969.29 1652.91 1971.63 1647C1973.61 1641.99 1995.28 1616.31 1996 1630M1982 1688C1989.57 1673.92 2006.86 1663.55 2017.78 1651.96C2020.29 1649.29 2026.13 1639.64 2030.66 1642.11C2044.03 1649.41 2038.59 1677.58 2028.81 1685.2C2016.43 1694.86 1995.86 1691.3 1982 1688M1604.62 1641.97C1609.33 1640.31 1615.01 1648.05 1618 1650.66C1623.89 1655.82 1664.57 1686.45 1647.99 1693.22C1633.24 1699.23 1608.55 1695.57 1600.46 1681C1596.03 1673.01 1592.7 1646.19 1604.62 1641.97M486.083 1644.47C480.522 1646.7 476.203 1664.06 484.968 1661.03C491.893 1658.64 495.337 1640.74 486.083 1644.47M967.027 1654.41C960.214 1658.72 969.656 1675.75 977.499 1670.59C985.183 1665.54 972.781 1650.76 967.027 1654.41M976 1666C964.378 1662.96 971.917 1655.61 976 1666M151.321 1702.22C145.027 1703.79 145.161 1723.49 154 1721.01C163.044 1718.47 159.781 1700.12 151.321 1702.22M195.561 1704.62C190.957 1706.44 190.902 1720.78 196.688 1719.25C205.533 1716.9 203.345 1701.56 195.561 1704.62M154 1714C146.887 1711.5 153.861 1702.24 154 1714M198 1710C197.134 1712.65 196.77 1713.08 194 1713C195.45 1711.39 196.051 1710.94 198 1710M17 1851L17 1942C19.8041 1933.72 18 1922.69 18 1914C18 1894.77 23.2336 1869.4 17 1851M1939 1920C1936.17 1906 1913.05 1895.18 1900.42 1904.99C1880.99 1920.09 1876.46 1944.82 1883 1966C1887.72 1961.97 1882.87 1950.34 1884.23 1944C1888.87 1922.28 1920.21 1885.39 1934.93 1921.56C1939.31 1932.33 1925.44 1940.52 1938 1952C1923.18 1965.16 1923.33 1976 1931 1993C1918.87 1990.85 1911.07 1998.1 1900 1998.11C1872.73 1998.12 1891.95 1944.16 1921 1956.71C1922.28 1957.26 1929.61 1960.11 1928.24 1955.91C1926.12 1949.41 1908.47 1946.3 1903.14 1948.92C1891.97 1954.42 1877.82 1976.54 1880 1989C1854.78 1990.24 1853.25 2021.44 1862.85 2038C1866.16 2043.71 1872.37 2045.82 1875.78 2050.76C1878.76 2055.07 1876.68 2062.04 1879.17 2066.95C1883.8 2076.06 1903.55 2078.78 1911 2073C1917.51 2091.99 1913.78 2132.14 1884.11 2107.45C1872.09 2097.45 1886.67 2086.16 1882.12 2076.89C1879.13 2070.8 1873.74 2097.37 1874.19 2101C1877.06 2124.21 1901.82 2112.42 1913.58 2115.05C1917.48 2115.92 1919.8 2123.7 1924.08 2125.69C1930.53 2128.69 1937.61 2125.59 1943.55 2127.92C1953.53 2131.83 1949.48 2146.04 1965 2146.92C1978.97 2147.71 1996.89 2146.34 2007.9 2136.62C2012 2133 2012.42 2123.9 2016.5 2121.7C2021.66 2118.92 2029.32 2121.96 2035 2119.91C2043.21 2116.95 2045.55 2108.07 2052.48 2104.4C2056.8 2102.1 2062.3 2105.33 2067 2103.24C2081.4 2096.82 2096.74 2078.01 2096.98 2062C2097.14 2051.32 2089.48 2048.58 2087.01 2040.14C2084.25 2030.72 2093.99 2023.52 2087.04 2012.01C2080.46 2001.11 2069.39 2003.21 2061.82 1996.04C2054.22 1988.84 2060.89 1965.42 2066.46 1958.64C2075.79 1947.27 2094.6 1966.64 2097.01 1975C2101.29 1989.89 2090.79 1993.44 2084 2004C2104.74 2005.89 2106.98 1979.37 2099.51 1966C2090.36 1949.62 2076.23 1959.79 2065.82 1950.96C2062.08 1947.79 2061.73 1938.44 2058.42 1934.02C2053.22 1927.09 2041.25 1925.8 2037.39 1920.18C2035.07 1916.79 2036.97 1911.01 2034.77 1907C2027.35 1893.49 2009.14 1884.84 1994 1888.87C1981.91 1892.08 1975.34 1901.55 1964.86 1906.84C1954.36 1912.14 1947.97 1910.51 1939 1920M1997 1893.36C2010.18 1891.84 2040.17 1904.08 2031.74 1922.28C2030.86 1924.17 2006.47 1937.83 2003.86 1938.32C1988.08 1941.34 1988.65 1930.34 1982.2 1921.02C1979.8 1917.56 1971.86 1913.93 1971.32 1909.78C1970.25 1901.54 1990.86 1894.08 1997 1893.36M1958 1913.49C1975.56 1912.43 1988.6 1932.92 1976.07 1946.14C1974 1948.32 1970.97 1954.84 1967.6 1954.84C1965.09 1954.84 1939 1947.41 1938.25 1946.49C1929.09 1935.19 1946.35 1914.2 1958 1913.49M2024 1937C2021.64 1938.07 2011.81 1939.24 2016.65 1934.02C2021.24 1929.06 2035.65 1927.37 2042 1928.31C2057.76 1930.66 2066.84 1962.57 2053.92 1973.07C2050.4 1975.94 2043 1970.74 2039 1970.27C2035.1 1969.81 2026.97 1973.55 2023.91 1971.48C2025.11 1972.29 2009.54 1941.36 2009.43 1942.28C2009.8 1939.12 2020.91 1940.18 2024 1937M1990 1987C1988.9 1980.29 1978.38 1982.11 1976.18 1971C1975.32 1966.6 1973 1961.51 1973.92 1957C1983.18 1911.28 2047.68 1978.43 2003.86 1989.94C1999.79 1991.02 1994.21 1987.5 1990 1987M17 1944L18 1945L17 1944M531.714 1947.54C525.74 1951.04 534.356 1965.15 530.1 1970.26C526.341 1974.78 518.245 1974.42 513.914 1978.81C497.89 1995.06 489.13 2028.83 509.022 2045.68C516.59 2052.08 526.59 2050.16 534.576 2054.74C538.053 2056.74 538.55 2078.14 541.105 2076.46C546.581 2072.85 540.408 2060.61 544.822 2055.69C548.466 2051.62 557.15 2052.04 562 2049.49C576.49 2041.85 588.123 2024.85 583.238 2008C575.987 1982.98 549.206 1987.43 538.26 1970.58C536.832 1968.38 537.278 1944.29 531.714 1947.54M1958 2005C1952.61 2002.9 1946.16 1998.48 1941.36 1995.12C1907.76 1971.6 1958.64 1933.78 1969.01 1968C1970.35 1972.44 1971.63 1977.27 1971.71 1981.94C1971.87 1990.46 1958.91 1994.96 1958 2005M170.992 1963.47C147.803 1966.23 147.231 1990.74 135.001 2004.4C131.668 2008.12 106.643 2007.1 106.643 2009.06C106.643 2018.09 129.705 2011.05 132.843 2013.72C136.336 2016.7 134.207 2029.16 136.871 2034C145.024 2048.81 172.385 2060.81 189 2058.81C216.797 2055.47 220.409 2030.67 231.604 2012.3C235.146 2006.49 252.26 2013.25 253.214 2006.92C253.893 2002.42 236.082 2005.65 233.024 2002.33C226.91 1995.68 226.424 1982.1 220.198 1974.1C211.565 1963.02 183.802 1961.94 170.992 1963.47M876 2067C882.941 2062.59 877.796 2054.6 882.822 2050.22C889.217 2044.65 901.428 2047.02 908.78 2040.75C927.79 2024.54 920.041 1997.51 900.981 1984.42C895.95 1980.96 889.484 1982 884.362 1979.2C879.916 1976.77 884.359 1966.21 879.602 1965.32C876.134 1964.67 875.24 1976.92 872.64 1979.16C856.021 1993.45 834.492 1999.17 841.798 2027C846.909 2046.47 863.198 2041.47 873.171 2051.81C876.156 2054.91 874.58 2062.8 876 2067M1646 1994C1632.15 1992.15 1618.88 1965.46 1604.01 1965.64C1603.16 1965.65 1595.09 1973.12 1592 1974.08C1574.76 1979.42 1569.79 1990.26 1561.86 2004.68C1560.88 2006.45 1555.64 2007.53 1555.64 2009.02C1555.64 2010.27 1561.72 2012.69 1562.65 2015.09C1574.2 2044.71 1607.44 2065.12 1632.68 2037.77C1638.89 2031.05 1638.69 2019.96 1644.18 2013.82C1645.91 2011.88 1653 2012.21 1653 2009.08C1653 2002.84 1634.69 2008.3 1646 1994M174 1967C173.168 1968.35 169.434 1972.25 171.183 1973.86C173.635 1976.12 185.639 1970.91 189 1970.46C204.067 1968.42 231.653 1980.64 225.348 2000.72C223.672 2006.05 204.955 2006.94 200 2006.99C185.733 2007.16 171.171 2008.9 157 2007.18C154.083 2006.82 145.205 2007.65 143.439 2005.1C139.344 1999.19 152.41 1982.72 155.61 1978.24C159.988 1972.1 166.921 1968.94 174 1967M1183 2010C1190.18 2022.22 1203.43 2009.45 1211.08 2015.97C1221.45 2024.79 1220.79 2042.04 1237.32 2048.41C1251.61 2053.92 1276.18 2049.02 1283.97 2034.98C1287.97 2027.78 1287.4 2016.8 1292.18 2010.44C1295.37 2006.2 1311.36 2011.44 1311.36 2007.07C1311.36 2001.95 1294.65 2002.66 1291.51 2000.18C1274.7 1986.89 1272.38 1964.74 1244 1971.83C1223.42 1976.97 1225.43 1997.81 1211.68 2008.19C1203.15 2014.63 1192.17 2009.06 1183 2010M2047 2002C2058.18 2008.03 2026.66 2023.47 2018.23 2021.59C2013.58 2020.56 2015.08 2011.56 2013.73 2008C2007.96 1992.78 2016.73 1974.35 2037 1975.13C2050.78 1975.66 2062.61 1994.75 2047 2002M1260 1986C1256.44 1978.33 1250.49 1978.77 1243 1979C1253.9 1965.81 1286.61 1985.7 1284.14 2001.5C1283.57 2005.15 1273.8 2004.67 1271 2004.86C1258.68 2005.73 1246.34 2006.42 1234 2007.08C1230.94 2007.24 1223.51 2010.01 1221.03 2007.66C1218.31 2005.1 1224.81 1997.4 1226.08 1995.04C1232.77 1982.67 1248.27 1981.56 1260 1986M1599.5 1977.85C1603.62 1979.35 1603.16 2001.16 1600.74 2004.46C1597.97 2008.24 1574.99 2008.3 1570.51 2006.5C1565.56 2004.51 1570.97 1996.56 1572.62 1994C1576.51 1988.01 1591.06 1974.76 1599.5 1977.85M1605 1976C1612.61 1977.04 1642.72 1994.24 1635.55 2005.02C1633.35 2008.33 1609.77 2007.1 1607.82 2003.5C1604.19 1996.79 1606.36 1983.71 1605 1976M537 2049C511.51 2048.06 492.721 2022.87 506.965 1998.7C510.163 1993.27 520.588 1971.75 530.181 1978.36C534.272 1981.18 532.995 1992.69 533 1997C533.02 2014.09 534.009 2032.15 537 2049M540.822 1980.92C545.601 1978.52 564.456 1989.82 567.981 1993.5C583.422 2009.6 582.58 2033.17 561.002 2043.75C533.995 2057 539 2023.6 539 2004C539 1999.85 536.632 1983.02 540.822 1980.92M874 1985C874 1998.97 873.207 2013.14 875.139 2027C875.706 2031.07 877.814 2039.63 874.06 2042.74C862.854 2052.02 848.668 2032.94 846.725 2024C842.544 2004.75 857.116 1990.97 874 1985M881.822 1985.83C888.674 1981.65 898.563 1990.37 902.934 1994.38C915.56 2005.99 921.197 2027.41 902.992 2038.25C877.121 2053.66 881.552 2025.64 880.96 2008C880.806 2003.43 877.056 1988.74 881.822 1985.83M1987 1988C1985.27 1991.06 1982.21 1993.22 1980 1996C2016.54 1982.65 2019.9 2042.53 1991 2045.81C1948.92 2050.59 1953.11 1981.48 1987 1988M1876 1994.61C1908.85 1985.36 1896.96 2037.67 1877.82 2044.07C1870.95 2046.37 1867.37 2036.33 1865.32 2031.68C1860.25 2020.13 1860.93 1998.86 1876 1994.61M1957 2033C1941.5 2032.75 1913.76 2048.04 1902 2032C1905.01 2031.69 1907.13 2032.05 1910 2033C1907.1 2028.11 1898.13 2028.94 1897.37 2023.85C1893.4 1997.06 1931.16 1991.83 1946.78 2004.4C1956.96 2012.59 1953.1 2021.69 1957 2033M2040 2021C2043.04 2017.05 2048.15 2015.83 2051.41 2011.9C2065.39 1995.05 2091.77 2011.79 2083.68 2033C2081.86 2037.76 2075.1 2050.34 2068.52 2048.81C2064.32 2047.84 2063.52 2039.19 2061.64 2036C2057.12 2028.35 2048.92 2021.95 2040 2021M220.93 2008.44C229.811 2007.72 223.562 2022.87 221.551 2027C216.345 2037.68 200.27 2051.82 188 2053.32C174.9 2054.92 149.951 2044.18 143.365 2033C140.937 2028.88 137.037 2017.48 141.26 2013.26C145.792 2008.73 157.623 2013.8 163.008 2013.97C182.457 2014.59 201.782 2009.98 220.93 2008.44M1271 2009.32C1300.85 2006.21 1275.5 2042.69 1257 2044.82C1242.43 2046.49 1232.27 2040.93 1222.91 2029.92C1220.43 2027.01 1214.42 2017.78 1218.86 2014.17C1228.8 2006.08 1258.53 2010.62 1271 2009.32M518.148 2011.26C507.793 2017.08 518.537 2026.21 527.392 2021.2C535.522 2016.6 524.774 2007.54 518.148 2011.26M900.853 2010.61C892.783 2010.77 885.742 2023.86 896.01 2023.85C902.183 2023.85 909.078 2010.45 900.853 2010.61M1570.82 2010.9C1574.57 2008.83 1598.18 2009.07 1600.62 2012.51C1603.09 2016.01 1601.99 2040.08 1598.18 2042.09C1588.01 2047.48 1562.12 2015.71 1570.82 2010.9M1609.43 2010.82C1637.2 1996.6 1643.58 2029.01 1619 2041.46C1598.46 2051.87 1602.09 2014.58 1609.43 2010.82M523 2016L522 2017L523 2016M1256.97 2020.53C1247.5 2021.22 1245.19 2033.88 1255.99 2032.53C1263.03 2031.64 1265.03 2019.93 1256.97 2020.53M2032 2026.33C2061.34 2023.6 2072.73 2070.27 2043 2077.21C2030.32 2080.18 2010.19 2068.97 2006.7 2056.97C2006.19 2055.22 2003.7 2049.64 2000.99 2052.11C1998.02 2054.82 2004.17 2066.07 2005.44 2069C2011.12 2082.07 2010.53 2104.03 1992 2106.76C1953.53 2112.45 1964.62 2076.49 1978.28 2054.47C1981.78 2048.83 1991.51 2051.61 1997 2048.71C2014.04 2039.72 2010.77 2028.3 2032 2026.33M1926 2044C1923.15 2049.38 1913.72 2069.33 1908.52 2071.92C1885.41 2083.41 1870.12 2042 1894 2035.08C1900.3 2033.26 1917.03 2043.92 1926 2044M1314.56 2037.48C1311.31 2039.28 1314.89 2042.85 1317.68 2041.56C1321.56 2039.76 1317.63 2035.79 1314.56 2037.48M1944 2038.51C1984.91 2029.23 1971.31 2077.74 1941.96 2084.58C1903.79 2093.48 1916.7 2044.7 1944 2038.51M1306 2039C1305.92 2041.77 1306.35 2042.13 1309 2043C1308.06 2041.05 1307.61 2040.45 1306 2039M2085 2044C2094.42 2063.38 2089.03 2090.1 2065 2098.76C2054.37 2102.58 2048.82 2089.07 2051.12 2080.36C2053.14 2072.69 2063.3 2067.07 2066.13 2058.07C2068.02 2052.05 2078.69 2049.37 2083 2044L2085 2044M2014 2074C2020.46 2076.04 2041.79 2080.55 2045.75 2084.82C2051.75 2091.28 2044.61 2093.85 2042.59 2098.03C2040.87 2101.61 2044.81 2104.4 2041.16 2108.92C2033.39 2118.53 2013.16 2120.19 2008.25 2106.66C2005.66 2099.54 2015.93 2084.52 2014 2074M1962 2080C1959.07 2094.92 1956.96 2120.09 1938 2123.56C1922.18 2126.46 1911.96 2103.85 1923.12 2092.9C1928.46 2087.67 1953.59 2083.81 1962 2080M1960 2106C1969.86 2108.72 1978.46 2112.65 1989 2111.86C1993.85 2111.5 2001.81 2108.01 2005.93 2111.82C2012.55 2117.95 2008.64 2129.37 2002.81 2134.49C1989.46 2146.24 1951.43 2149 1950.44 2125.08C1950.17 2118.43 1958.48 2112.75 1960 2106z"/>
</svg>
