<?xml version="1.0" standalone="yes"?>
<svg xmlns="http://www.w3.org/2000/svg" width="2200" height="2200">
<path style="fill:#0e0e0e; stroke:none;" d="M2059 132C2038.12 115.674 1987.44 100.646 1961 101.06C1955.22 101.15 1933.31 102.84 1929.96 107.149C1928.13 109.511 1931.02 122.191 1931 126C1930.91 143.61 1930.77 161.482 1929 179C1927.33 195.454 1930.74 213.205 1928.52 229C1927.76 234.373 1922.93 246.719 1926.28 251.455C1928.02 253.916 1949.24 251.331 1954 251.78C1979.24 254.159 2004.71 256.36 2030 257.484C2035.25 257.717 2049.61 263.196 2053.71 258.74C2060.34 251.55 2030.91 225.474 2027.1 220.008C2020.26 210.212 2008.45 206.355 2000.28 197.738C1981.18 177.577 1962.82 150.539 1952.69 125C1951.25 121.352 1940.64 113.194 1940.64 112.117C1940.65 109.04 1950.78 107.661 1953 107.146C1967.55 103.772 1983.39 108.995 1997 114.074C2015.43 120.951 2039.23 131.594 2059 132M2044 252C2005.92 251.275 1967.86 244.652 1930 245C1934.51 226.289 1931.11 209.09 1932.08 190C1933.31 165.632 1937 141.465 1937 117C1951.19 121.907 1952.31 140.191 1960.54 151C1973.18 167.575 1983.27 187.086 1998.14 201.856C2013.61 217.226 2037.54 229.255 2044 252M1658 127C1637.89 162.87 1601.96 192.788 1576.48 225.003C1567.8 235.967 1551.7 252.507 1548 266C1554.95 263.337 1555.89 261.214 1563 265C1565.17 255.794 1580.27 259.829 1588 258.997C1613.63 256.24 1639.3 251.127 1665 248.011C1671.08 247.274 1677.36 259.428 1677.63 259.031C1685.36 247.532 1678.15 222.526 1677.14 208C1675.62 186.396 1672.74 164.586 1671.9 143C1671.67 136.955 1676.17 124.41 1671.14 119.961C1666.51 115.877 1650.53 123.556 1645 124.967C1626.66 129.646 1608.61 130.578 1590 128.439C1585.63 127.937 1573.89 126.188 1571.54 131.391C1568.92 137.198 1597.95 134.899 1602 134.981C1609.78 135.139 1617.3 134.428 1625 133.433C1636.32 131.972 1646.98 130.021 1658 127M260 121C260.406 123.092 260.217 123.02 262 124L260 121M1666 130C1666.24 156.37 1672.15 182.541 1673.04 209C1673.31 217.177 1677.07 230.955 1673.18 238.542C1669.72 245.286 1651.51 244.54 1645 245.325C1617.08 248.693 1590.93 253.614 1563 251C1581.19 218.984 1608.89 194.366 1632.89 167C1642.67 155.845 1652.91 137.06 1666 130M882 132.593C856.385 137.822 898.163 141.337 906.469 138.506C912.069 136.597 887.23 131.525 882 132.593M543 142C540.557 143.977 537.67 145.899 535.817 148.482C520.02 170.502 557.829 163.339 543 142M1273.24 146.544C1264.42 150.419 1266.12 174.371 1266.12 182C1266.12 183.97 1264.93 194.404 1268.9 193.677C1272.68 192.986 1275.82 157.292 1276.77 152.011C1277.16 149.829 1276.71 145.02 1273.24 146.544M455 256C457.846 257.849 456.88 264.204 459.254 264.179C465.447 264.113 467.069 254.63 473.031 253.101C500.286 246.11 527.696 242.002 556 244.052C561.439 244.446 585.257 255.576 587.475 250.584C589.509 246.004 582.143 234.943 581.03 230C576.773 211.089 576.153 191.582 574.814 172.305C574.533 168.258 574.605 151.469 567.155 153.562C561.618 155.118 557.98 169.221 555.981 174C548.256 192.461 542.014 218.712 529 234C523.438 214.423 523.132 194.321 523.002 174C522.969 168.814 524.008 155.405 518.503 152.466C514.034 150.079 506.55 172.301 504.882 176C494.337 199.388 481.752 224.959 466.939 245.968C463.644 250.64 457.974 251.302 455 256M876 240C871.986 221.294 873 201.044 873 182C873 177.658 874.734 164.137 870.167 161.544C866.141 159.257 857.125 180.662 855.922 184.003C846.58 209.932 833.135 233.862 818.29 257C815.724 261 800.788 276.019 802.889 278.755C806.939 284.03 814.508 275.588 819.001 274.189C835.885 268.933 852.911 262.957 870 258.392C883.027 254.911 900.958 253.103 914 257.354C918.42 258.794 934.8 266.345 938.451 263.916C942.321 261.341 937.267 248.089 936.772 244C934.24 223.103 934.829 200.488 930.239 180C929.346 176.014 928.374 157.643 922.889 157.643C916.468 157.643 911.591 173.39 909.349 177.997C899.929 197.349 889.094 223.163 876 240M1183 275C1224.52 277.485 1267.54 277.142 1309 273.328C1317.22 272.571 1334.65 283.713 1341.27 279.585C1345.43 276.991 1337.06 261.888 1335.7 258C1328.34 236.975 1317.96 213.588 1313.05 192C1312.03 187.532 1311.54 168.152 1305.84 167.323C1300.37 166.529 1293.75 185.022 1291.69 189C1279.43 212.656 1275.43 240.424 1259 262C1259 237.612 1260.35 208.249 1252.84 185C1251.56 181.038 1250.44 163.998 1245.6 163.426C1238.05 162.533 1229 184.588 1225.8 189.96C1213.79 210.149 1203.83 234.489 1189.83 253C1185.6 258.592 1173.46 270.902 1177.34 278.849C1180.87 286.06 1183.76 279.658 1183 275M568 163C573.622 189.184 574.964 217.464 579 244C564.574 239.279 550.224 236.872 535 238C539.592 218.767 553.875 176.567 568 163M517 165C519.309 189.787 520.064 213.707 525 238C506.857 238.82 491.043 247.263 473 248C484.937 219.21 503.662 194.147 515 165L517 165M158 249C158 227.791 155.412 207.989 152.823 187C152.364 183.276 152.221 166.906 146.038 168.025C138.687 169.356 136.682 181.341 134.72 187C128.38 205.292 123.788 226.685 115.558 244C111.916 251.663 101.926 252.463 99.5437 257.397C98.0877 260.413 104.285 264.553 106.512 265.608C110.947 267.709 114.928 261.473 120.003 262.078C146.493 265.237 172.442 262.851 199 265.217C203.378 265.608 226.265 269.912 227.266 264.844C231.58 243.001 211.98 211.477 209.965 189C209.602 184.956 210.785 166.572 204.029 168.106C198.114 169.449 194.013 181.367 190.961 186C178.531 204.863 172.975 232.568 158 249M922 168C923.675 194.235 925.403 231.245 934 256C915.625 255.483 898.307 249.202 879 251C887.812 221.308 906.839 195.605 920 168L922 168M1244 170C1249.3 192.536 1248.95 212.243 1251.32 235C1252.19 243.393 1256.04 258.664 1252.12 266.517C1246.89 276.989 1211.46 269.841 1202 270.177C1198.17 270.312 1190.01 272.397 1187.1 268.781C1184.22 265.212 1198.09 249.891 1200.09 246.136C1211.93 223.932 1225.04 186.453 1244 170M868 173C868 192.037 868.583 209.995 870.129 229C870.559 234.29 874.718 245.739 871.7 250.336C864.678 261.032 829.091 267.425 817 270C831.356 237.04 851.5 206.351 866 173L868 173M147 176C147.408 197.462 152 218.387 152 240C152 244.02 154.767 258.013 151.413 260.256C141.842 266.659 125.034 257.336 115 256C126.288 230.165 132.154 201.165 145 176L147 176M203 178C205.002 199.058 212.732 218.234 215.861 239C216.519 243.373 221.089 256.124 217.7 259.74C214.943 262.681 206.554 260.092 203 260.019C188.304 259.716 174.615 261.482 160 262C165.118 238.02 185.285 194.99 203 178M1304 178C1314.8 209.179 1325.49 239.291 1331 272C1314.31 268.702 1300.95 269.219 1284 270.078C1278.62 270.35 1268.4 273.101 1263.65 269.563C1260.21 267.008 1271.4 250.713 1273.44 247.438C1286.43 226.616 1286.39 196.068 1304 178M89.3333 247.667C89.2781 247.722 89.2221 248.778 89.6667 248.333C89.7228 248.277 89.7775 247.222 89.3333 247.667M177 275C177.511 276.952 177.733 277.457 179 279C178.99 276.648 178.895 276.386 177 275M210 558C214.795 559.664 248.177 558.974 247.894 558.134C244.27 547.388 209.216 551.458 201 551C211.606 577.433 170.408 627.694 146.659 597.842C119.9 564.207 154.618 497.133 185.136 477.12C195.155 470.55 220.009 464.974 223.054 483.003C224.069 489.012 219.413 495.33 218 501C241.732 495.235 221.811 462.968 202 465.239C155.609 470.555 110.572 562.12 141.765 600.914C170.684 636.879 207.486 584.99 210 558M577 563C584.217 564.277 591.715 564.382 599 563.562C604.274 562.968 627.638 568.613 629.894 566.658C634.156 562.966 617.716 558.759 616 558.441C605.577 556.507 569.915 552.692 561.969 560.373C560.777 561.525 575.678 568.655 576.41 574.001C577.501 581.967 568.286 592.044 563.451 597.561C553.781 608.595 536.714 618.99 523.041 607.572C494.201 583.489 512.057 542.562 522.403 515C529.532 496.007 544.015 473.436 567 473.062C578.625 472.873 583.282 482.272 592 488C595.588 465.411 558.929 466.048 546.68 473.667C517.127 492.049 501.98 537.757 502 571C502.01 587.898 508.656 608.15 525.32 615.771C551.123 627.573 595.016 587.721 577 563M2024 490.457C2015.06 491.667 1984.36 490.199 1978.54 494.55C1959.68 508.634 1961.22 548.692 1956.98 570C1955.92 575.316 1948.99 591.853 1953.83 596.057C1957.77 599.482 1975.7 591.131 1981 590.322C2000.76 587.308 2023.87 588.459 2044 590.145C2050.01 590.648 2056.86 596.098 2062.72 595.027C2067.54 594.144 2065.59 586.375 2065.86 583C2066.76 571.754 2070.22 559.642 2073.86 549C2077.35 538.802 2089.37 516.834 2085.84 506.22C2079.93 488.423 2038.86 488.447 2024 490.457M916 494.861C880.729 498.325 905.626 539.425 903.636 556C902.296 567.171 889.544 574.733 888.383 587C885.728 615.033 924.522 614.132 942.793 609.724C950.356 607.899 927.79 588.66 930.723 579C933.188 570.879 942.435 566.2 942.659 557C943.012 542.55 929.398 533.786 931.228 517C931.985 510.061 945.574 503.005 944.592 500.925C941.897 495.208 921.933 494.278 916 494.861M1605 495.481C1601.88 495.953 1576.66 500.874 1582.56 505.139C1586.16 507.737 1602.95 501.335 1608 500.739C1622.9 498.982 1662.23 496.796 1674.72 506.035C1680.55 510.344 1678.01 521.091 1676.61 527C1672.16 545.904 1671.3 565.764 1669.2 585C1668.72 589.359 1669.91 606.115 1665.5 607.858C1658.17 610.757 1646.61 606.465 1639 606.078C1620.75 605.149 1603.26 610.685 1585 608.139C1579.84 607.42 1566.48 609.083 1562.9 605.178C1559.17 601.111 1563.13 589.798 1563.85 585C1566.81 565.366 1570.31 545.749 1572.22 526C1572.45 523.598 1577.34 500.743 1571.55 503.625C1566.33 506.226 1567.3 523.942 1566.94 529C1565.48 549.624 1559.97 569.698 1556.58 590C1555.59 595.99 1552.34 608.206 1556.98 613.345C1560.11 616.815 1575.61 611.956 1581 612.562C1602.49 614.979 1623.59 609.316 1645 611.217C1650.55 611.71 1666.48 616.708 1670.63 613.956C1678.72 608.597 1673.89 577.432 1675.62 568C1678.09 554.563 1688.38 518.885 1682.38 507.008C1673.99 490.401 1620.97 493.061 1605 495.481M2061 590C2025.31 582.435 1993.76 586.616 1958 590C1960.16 567.733 1964.65 516.393 1980.31 500.793C1984.55 496.576 1999.14 500.305 2005 499.861C2022.48 498.538 2069.87 485.981 2080.92 507.097C2084.15 513.271 2077.2 524.999 2075.21 531C2069.03 549.655 2061.03 570.127 2061 590M930 502C925.853 512.314 921.208 523.878 925.567 535C928.298 541.969 936.013 548.574 937 556C938.18 564.884 925.092 571.772 923.645 581C921.877 592.265 933.776 598.013 939 606C922.581 604.623 885.079 611.469 895.424 581C898.338 572.418 907.17 565.975 908.825 557C911.54 542.273 888.354 506.257 916 502.276C920.573 501.618 925.389 502 930 502M1309 624C1309 598.633 1309.86 573.316 1310 548C1310.05 539.645 1313.56 526.379 1306.44 519.801C1291.54 506.038 1258.25 516.601 1241 517.86C1235.03 518.296 1206.9 510.711 1205.83 511.708C1200.96 516.244 1201.14 530.746 1201 537C1200.55 557.401 1196.23 577.585 1196.01 598C1195.95 602.98 1193.16 618.684 1196.84 622.117C1199.94 625.015 1219.64 619.013 1225 619.001C1251.8 618.937 1282.9 618.978 1309 624M2019.12 517.761C2011.43 520.554 2007.11 554.398 2011.46 552.894C2017.15 550.927 2020.86 517.128 2019.12 517.761M1262 519.339C1271.6 518.144 1298 517.235 1304.74 525.802C1311.05 533.818 1305.36 565.022 1304.32 575C1303.46 583.232 1308.61 614.232 1297.76 616.716C1275.26 621.869 1251.65 611.952 1229 613.078C1222.93 613.38 1207.8 617.866 1202.83 613.74C1199.36 610.864 1201.86 597.295 1202.08 593C1202.94 575.951 1204.63 559.033 1205.86 542C1206.27 536.465 1206 526.105 1210.74 522.182C1216.7 517.255 1226.47 522.046 1233 522.764C1243.02 523.866 1252.19 520.559 1262 519.339M546.679 526.33C540.005 530.261 538.995 550.562 550.683 543.496C558.041 539.047 554.968 521.447 546.679 526.33M1602 551.46C1600.23 551.713 1587.94 557.181 1594.53 558.742C1598.06 559.578 1619.57 557.41 1623.43 556.028C1627.88 554.436 1605.98 550.895 1602 551.46M1244.53 560.267C1238.11 564.436 1243.08 578.846 1250.36 574.67C1257.64 570.49 1253.84 554.216 1244.53 560.267M1645 856.644C1625.93 859.717 1617.21 880.685 1622.72 898C1624.28 902.899 1632.77 913.266 1629.8 918.366C1621.48 932.691 1599.95 934.711 1594.98 954C1592.91 962.028 1600.39 968.286 1608 967.815C1631.25 966.379 1636.3 939.376 1639.82 922.184C1640.41 919.313 1647.5 915.641 1646.24 912.931C1644.92 910.095 1638.54 914.868 1636.1 912.945C1628.14 906.645 1624.45 888.328 1627 879C1629.41 870.16 1637.36 862.49 1646.98 862.502C1650.33 862.506 1658.31 872.437 1659.47 868.47C1661.66 860.987 1650.96 855.683 1645 856.644M1929 907C1930.3 916.578 1938.83 913.27 1944.3 918.501C1957.69 931.321 1959.79 961.825 1934.01 950.014C1927.79 947.162 1924.78 940.541 1918 939C1920.98 954.923 1951.23 967.268 1960.5 949.86C1965.85 939.806 1955.8 927.816 1952 919C1970.01 912.624 1987.76 896.383 1997.42 880C2005.67 866.022 1992.81 856.154 1979 857.835C1960.57 860.078 1947.33 870.36 1943.71 889C1942.68 894.261 1945.07 905.915 1941.71 910.06C1939.29 913.049 1931.6 908.065 1929 907M1269 957C1254.98 953.797 1256.6 941.293 1257 930C1241.5 931.676 1255.75 973.675 1276 963.833C1324.84 940.09 1253.85 901.874 1279.17 874.167C1283.12 869.839 1293.5 865.979 1299 869C1301.14 870.177 1306.37 878.311 1307.83 877.5C1312.07 875.146 1304.44 865.237 1302 864C1291.07 858.453 1272.96 869.547 1269.33 880C1260.87 904.361 1284.19 910.749 1287 931C1289.42 948.458 1270.63 954.357 1269 957M1980.78 863.833C2009.25 868.399 1969.12 914.948 1952.2 912.092C1944.54 910.799 1947.02 895.936 1948.3 891C1951.99 876.741 1963.69 861.09 1980.78 863.833M146.066 886.282C141.135 888.814 139.845 900.177 146.831 896.67C152.941 893.603 155.18 881.602 146.066 886.282M898 908C920.082 893.442 900.77 882.59 898 908M122.03 918.964C120.299 919.235 115.316 921.256 117.969 923.665C124.379 929.484 156.897 923.976 166 924.001C169.387 924.01 177.328 926.411 180.108 924.612C186.008 920.797 170.335 919.012 169 918.993C153.55 918.78 137.424 916.551 122.03 918.964M545 921.594C538.145 922.995 532.105 926.673 525 926.957C520.287 927.145 515.679 926.807 511 926.32C509.04 926.116 488.525 926.785 495.674 931.478C505.879 938.176 535.92 929.87 546.992 927.227C550.083 926.489 557.639 929.81 559.476 927.211C563.711 921.221 547.407 921.102 545 921.594M1634 923C1633.79 933.858 1617.68 977.281 1601.37 961.571C1589.79 950.418 1624.63 925.83 1634 923M862 938L861 933C880.765 933.002 900.287 933.484 920 934.864C922.517 935.04 940.692 937.481 937.592 932.494C934.759 927.934 923.516 930.151 919 929.922C903.578 929.141 888.49 928.001 873 928C869.007 928 860.138 926.07 856.849 928.579C852.472 931.918 859.228 936.935 862 938M521.703 948.365C516.684 951.365 517.572 961.898 524.94 957.702C531.233 954.118 527.8 944.72 521.703 948.365M897.008 948.4C893.203 950.012 884.942 963.863 893.051 961.251C897.975 959.666 904.185 945.359 897.008 948.4M569 985C574.088 983.657 570.343 979.912 569 985M1674 1208C1672.21 1182.36 1638.2 1201.68 1633.19 1216C1629.95 1225.26 1630.1 1237.23 1634.89 1245.86C1637.64 1250.83 1646.85 1259.18 1644.87 1265.52C1643.57 1269.71 1631.69 1271.35 1628 1273.17C1614.52 1279.8 1593.72 1298.71 1601.17 1315.95C1611.93 1340.9 1646.44 1304.78 1650.82 1292C1652.76 1286.33 1652.18 1277.09 1655.82 1272.4C1659.31 1267.92 1676.93 1267.29 1677.68 1263.68C1678.92 1257.63 1655.02 1265.3 1652.94 1263.88C1642.42 1256.66 1635.49 1234 1637.28 1222C1640.43 1200.86 1659.49 1198.81 1674 1208M1966 1268C1966 1291.82 1987.63 1302.05 2005.84 1283.84C2019.13 1270.55 2023.91 1238.55 2017.05 1221.04C2010.69 1204.79 1988.58 1199.84 1975.58 1211.42C1973 1213.72 1963.02 1226.12 1970.32 1228.89C1972.4 1229.68 1975.73 1220.57 1977.15 1219.07C1984.14 1211.63 1995.35 1207.98 2003.91 1214.64C2023.44 1229.81 2013.42 1286.23 1986 1288.01C1970.5 1289.01 1975.07 1274.51 1966 1268M130 1302C121.629 1306.33 123.709 1315.68 131.044 1320.02C142.157 1326.59 153.593 1328.6 163.873 1319.67C193.375 1294.06 150.794 1265.04 160.926 1237C163.395 1230.17 169.506 1222.67 177 1221.25C180.813 1220.54 191.825 1228.7 192.223 1224.69C193.206 1214.75 177.637 1215.2 172.003 1217.75C161.637 1222.43 154.745 1235.4 152.004 1246C145.203 1272.29 183.678 1285.62 161.444 1313.95C149.876 1328.69 129.432 1318.3 130 1302M937 1248C942.674 1221.04 908.697 1230.14 899.166 1244C879.364 1272.8 909.521 1285.91 907.919 1314C907.274 1325.31 894.034 1350.47 880.003 1347.81C875.844 1347.02 863.767 1331.24 862.886 1332.11C857.74 1337.14 869.392 1347.7 873.001 1349.83C881.973 1355.13 893.279 1350.09 899.463 1342.87C908.884 1331.88 918.445 1313.7 912.539 1299C908.455 1288.83 896.231 1277.07 896.304 1266C896.391 1252.92 911.62 1228.21 927.756 1235.71C932.121 1237.73 933.211 1244.76 937 1248M1179 1309C1183.25 1338.5 1217.15 1322.73 1228.93 1310C1242.15 1295.72 1226.96 1281.6 1231.52 1267.28C1234.74 1257.21 1259.88 1261.18 1261.75 1242.86C1263.09 1229.74 1244.26 1226.78 1236.27 1233.64C1228.36 1240.43 1229.72 1252.7 1223.2 1259.2C1219.16 1263.22 1209.32 1259.41 1206.47 1263.91C1202.39 1270.33 1222.63 1265.92 1224.18 1268.58C1228.27 1275.59 1227.51 1299.34 1223.08 1306C1207.49 1329.43 1197.25 1316.03 1179 1309M1242.01 1234.82C1261.03 1227.39 1255.86 1251.59 1242 1256.89C1224.47 1263.59 1232.82 1238.41 1242.01 1234.82M500 1318C501.622 1325.44 507.104 1339.97 514.097 1343.74C527.953 1351.22 550.338 1335.01 554.114 1322C561.018 1298.21 536.033 1280.87 541.809 1257C545.076 1243.5 571.304 1233.29 568 1254C575.266 1252.13 575.189 1241.57 569.368 1237.69C562.366 1233.01 549.929 1238.3 544.156 1242.94C518.477 1263.57 551.69 1290.8 549.501 1313C548.308 1325.1 533.174 1344.39 519.021 1340.38C508.023 1337.26 511.29 1320.71 500 1318M172.485 1243.36C168.392 1245.85 172.484 1252.09 176.466 1249.64C180.337 1247.25 176.395 1240.99 172.485 1243.36M1241.54 1244.51C1239.14 1245.82 1242.02 1249.2 1244.01 1247.62C1245.81 1246.19 1243.37 1243.52 1241.54 1244.51M919 1251C907.987 1258.93 922.279 1264.7 919 1251M1644.79 1272.07C1651.4 1272.94 1646.66 1288.08 1645.38 1292C1641.05 1305.32 1625.51 1321.22 1610.06 1317.57C1600.74 1315.36 1605.02 1303.66 1608.01 1298C1613.67 1287.25 1630.99 1270.25 1644.79 1272.07M1625.53 1289.29C1621.76 1291.67 1622.98 1298.91 1627.93 1296.03C1632.85 1293.17 1630.93 1285.88 1625.53 1289.29M514 1321C527.616 1321.62 536.823 1298.38 529.45 1300.57C524.863 1301.94 518.718 1317.01 514 1321M886 1320C891.318 1302.8 875.983 1315.37 886 1320M1639.33 1483.67C1639.28 1483.72 1639.22 1484.78 1639.67 1484.33C1639.72 1484.28 1639.78 1483.22 1639.33 1483.67M1374.67 1484.33C1374.22 1484.78 1375.28 1484.72 1375.33 1484.67C1375.78 1484.22 1374.72 1484.28 1374.67 1484.33M1487 1484C1488.75 1484.64 1490.13 1484.86 1492 1485C1490.25 1484.36 1488.87 1484.14 1487 1484M1534.67 1484.33C1534.22 1484.78 1535.28 1484.72 1535.33 1484.67C1535.78 1484.22 1534.72 1484.28 1534.67 1484.33M1538 1484L1539 1485L1538 1484M1565 1484C1567.98 1485.01 1570.86 1484.99 1574 1485C1571.02 1483.99 1568.14 1484.01 1565 1484M1577.67 1484.33C1577.22 1484.78 1578.28 1484.72 1578.33 1484.67C1578.78 1484.22 1577.72 1484.28 1577.67 1484.33M1599 1484C1604.29 1485.79 1610.46 1485 1616 1485C1610.71 1483.21 1604.54 1484 1599 1484M1641 1484C1650.62 1487.26 1663.88 1485 1674 1485C1664.38 1481.74 1651.12 1484 1641 1484M1675 1484C1681.94 1486.35 1690.72 1485 1698 1485C1691.06 1482.65 1682.28 1484 1675 1484M1716 1484C1722.94 1486.35 1731.72 1485 1739 1485C1732.06 1482.65 1723.28 1484 1716 1484M1742.67 1484.33C1742.22 1484.78 1743.28 1484.72 1743.33 1484.67C1743.78 1484.22 1742.72 1484.28 1742.67 1484.33M1758 1484C1762.73 1485.6 1768.05 1485 1773 1485C1768.27 1483.4 1762.95 1484 1758 1484M1797 1484C1802.85 1485.98 1809.87 1485 1816 1485C1810.15 1483.02 1803.13 1484 1797 1484M186 1683C188.475 1689.99 192.464 1702.44 198.324 1707.14C204.256 1711.9 212.956 1710.36 217.735 1717.19C226.085 1729.11 226.328 1776.18 219.74 1788.98C213.298 1801.49 187.044 1800.73 175 1802.21C125.71 1808.27 72.6395 1799.73 45.8228 1753C31.6354 1728.28 42.1344 1696.43 54.2127 1673C84.9027 1613.46 172.649 1573.08 225.74 1634C255.19 1667.79 251.873 1709.54 248.864 1751C248.433 1756.94 241.451 1790.54 240.712 1790.68C244.89 1789.9 248.672 1779.55 249.502 1776C253.231 1760.06 254.518 1743.25 256.436 1727C263.061 1670.85 229.406 1598.25 164 1599.06C105.079 1599.79 62.0803 1632.52 42.2907 1688C35.9839 1705.68 30.3931 1724.23 36.1109 1743C41.9399 1762.14 59.8891 1781.07 75.1438 1793.55C80.7577 1798.14 89.3642 1798.36 96 1801.06C121.06 1811.26 168.012 1813.08 194 1804.88C204.364 1801.61 224.283 1801.18 226.564 1786.92C229.451 1768.88 233.523 1731.42 223.466 1715.22C218.101 1706.58 209.519 1707.72 202.274 1702.61C196.572 1698.58 190.784 1683.58 189.042 1677C184.491 1659.82 215.023 1633.2 193.949 1617.6C179.713 1607.07 171.146 1631.75 171.008 1642C170.834 1654.95 179.678 1665.48 180.045 1677C180.641 1695.72 168.172 1719.58 162.166 1737C159.097 1745.9 158.035 1764.23 147.908 1768.57C133.143 1774.9 140.916 1737.24 137.74 1732.46C130.537 1721.62 118.248 1735.17 110.501 1732.02C106.383 1730.35 108.164 1721.47 107.761 1718C106.658 1708.47 95.8566 1695.49 85 1697.88C60.6572 1703.24 47.7591 1748.81 79 1754.72C98.8292 1758.47 112.313 1726.03 130.716 1734.82C138.375 1738.48 125.681 1786.73 149.999 1774.62C160.3 1769.48 162.937 1755.1 165.339 1745C168.698 1730.87 176.607 1692.95 186 1683M1170 1796C1169.99 1788.44 1168.82 1777.46 1162 1773L1165 1785C1112.98 1752.08 1121.1 1658.11 1163.35 1622.72C1192.92 1597.96 1251.97 1598.08 1287 1609.62C1307.59 1616.4 1338.67 1635.81 1349.33 1655.04C1377.22 1705.41 1361.54 1801.32 1297 1815C1334.46 1827.69 1359.64 1769.07 1363.31 1742C1365.99 1722.23 1369.91 1698.74 1365.38 1679C1357.72 1645.68 1320.94 1616.25 1290 1605.13C1248.78 1590.31 1182.91 1594.37 1151.15 1627.09C1111.26 1668.19 1115.03 1766.95 1170 1796M1866 1779C1852.98 1720.82 1882.15 1656.01 1934 1624.98C1981.87 1596.35 2052.98 1627.77 2073.61 1677C2090.28 1716.8 2073.97 1783.45 2027 1795.01C2017.06 1797.46 2004.67 1787.3 1994 1786.61C1980.21 1785.72 1956.4 1809.42 1945.98 1791.95C1940.67 1783.04 1951.81 1763.16 1957.1 1756C1975.04 1731.68 2011.51 1723.55 2010.94 1687C2010.3 1645.76 1948.24 1633.56 1949.12 1681C1949.46 1699.17 1973.33 1727.81 1991.44 1709.52C2003.29 1697.55 1999.78 1678.32 1996 1664C2018.71 1677.83 2000.42 1715.32 1984.99 1726.69C1977.21 1732.42 1968.03 1734.78 1961.23 1742.04C1955.33 1748.34 1951.65 1755.49 1947.63 1763C1943.13 1771.43 1933.3 1789.86 1942.28 1798.31C1958.15 1813.25 1978.46 1792.55 1995 1791.25C2008.11 1790.22 2016.76 1803.2 2031 1799.12C2081.64 1784.6 2094.65 1717.38 2078.31 1674C2065.67 1640.42 2036.67 1627.59 2006 1616.31C1994.32 1612.01 1981.77 1605.14 1969 1607.46C1920.63 1616.25 1868.57 1668.77 1860.09 1718C1856.32 1739.88 1850.66 1780.82 1872.12 1795.86C1897.36 1813.54 1942.93 1795.62 1924.37 1761.13C1921.27 1755.36 1915.7 1755.45 1910 1754.06C1883.71 1747.65 1878.15 1759.06 1866 1779M184 1669C175.499 1660.52 171.141 1626.01 186.024 1621.01C200.625 1616.11 194.661 1645.3 192.175 1651C189.541 1657.03 186.794 1663.04 184 1669M458 1789C424.449 1783.48 422.707 1741.75 430.459 1714C443.549 1667.14 484.349 1625.32 535 1629.14C556.525 1630.76 583.436 1640.28 594.661 1660C614.411 1694.69 589.454 1766.23 560.997 1789.66C542.555 1804.84 513.466 1796.2 492 1796C502.956 1780.34 528.535 1765.13 506 1744C531.566 1744.16 513.334 1773.67 531.049 1779.98C555.487 1788.68 553.892 1728.26 547 1717C556.638 1715.68 565.461 1714.65 572.618 1707.39C597.314 1682.37 565.684 1640.9 535 1659.35C510.46 1674.1 511.175 1696.39 528.538 1714.79C532.962 1719.48 540.197 1718.49 543.834 1724.11C549.3 1732.55 547.382 1763.9 541.146 1771.69C537.159 1776.67 531.626 1775.8 529.166 1769.99C526.208 1763 529.589 1754.9 525.694 1748.02C516.657 1732.05 491.724 1738.63 481.605 1749.24C465.981 1765.62 465.55 1790.72 489 1799.2C508.6 1806.29 546.524 1806.85 564.04 1794.5C597.005 1771.25 616.131 1695.47 599.683 1659C577.662 1610.17 495.398 1616.31 465.757 1650C451.303 1666.43 438.752 1682.16 429.162 1702C420.495 1719.94 418.535 1754.7 427.056 1773C431.787 1783.16 446.771 1801.19 458 1789M1483 1694C1501.05 1669.34 1511.81 1644.33 1544 1634.55C1599.96 1617.54 1657.59 1682.47 1654.92 1735C1653.04 1772.13 1622.85 1799.83 1591 1815C1601.25 1818.47 1607.91 1811.13 1615.89 1806.02C1636.35 1792.9 1655.67 1770.88 1658.67 1746C1663.73 1704.15 1637.04 1647.21 1593.96 1633.44C1552.49 1620.19 1483.03 1640.91 1483 1694M930 1816C943.842 1814.17 949.485 1785.69 950.764 1774C954.727 1737.78 937.885 1677.05 904.959 1657.34C870.628 1636.79 791.204 1636.18 769.458 1676C753.795 1704.68 752.208 1750.39 761.796 1781C765.748 1793.62 773.706 1809.8 787 1815.06C806.406 1822.74 827.582 1814.02 820.073 1791C814.621 1774.28 792.138 1772.8 779.107 1780.64C776.702 1782.08 773.665 1790.48 771.906 1790.48C768.343 1790.48 766.533 1779.55 765.936 1777C759.267 1748.57 757.357 1702.14 775.128 1677.08C795.808 1647.92 830.939 1650.52 861 1652.87C874.143 1653.89 894.165 1655.44 904.904 1663.8C933.36 1685.97 951.716 1741.79 945.68 1777C943.194 1791.5 934.621 1802.46 930 1816M1255 1816C1247.61 1803.73 1250.98 1786.07 1251 1772C1251 1768.57 1250.21 1759.27 1254.7 1757.96C1258.27 1756.92 1264.4 1761.8 1268 1762.65C1277.9 1765.01 1301.33 1768.45 1309.96 1762.31C1327.14 1750.1 1320.69 1729.63 1324.77 1713C1328.91 1696.17 1347.56 1675.68 1331.65 1658.13C1317.78 1642.81 1298.09 1671.03 1298 1684C1297.94 1694.16 1297.78 1704.16 1303.7 1712.97C1306.97 1717.83 1314.51 1720.13 1315.72 1726.05C1321.63 1754.99 1286.04 1765.86 1264 1754.44C1254.25 1749.39 1254.83 1729.62 1258.82 1720.1C1261.38 1714 1270.39 1711.12 1274.6 1705.98C1286.7 1691.25 1289.97 1661.18 1268 1652.28C1242.9 1642.12 1221.75 1674.01 1228.84 1696C1233.01 1708.94 1246.03 1713.77 1251.66 1724.31C1254.15 1728.98 1251.28 1740.68 1248.63 1744.93C1240.84 1757.48 1207.63 1764.59 1196.8 1752.54C1191.74 1746.91 1191.32 1732.22 1192.14 1725.04C1193.35 1714.39 1202.69 1712.09 1208.29 1704.82C1213.7 1697.78 1214.07 1678.15 1210.82 1670.08C1204.19 1653.6 1174.85 1650.54 1163.16 1662.16C1147.45 1677.75 1153.79 1697.2 1169.08 1710.59C1173.32 1714.31 1182.87 1716.29 1185.3 1721.32C1191.65 1734.51 1181.14 1753.97 1199 1760.52C1209.07 1764.21 1220.71 1765.38 1231 1761.6C1234.13 1760.45 1243.55 1753.35 1246.6 1756.2C1256.69 1765.63 1231.91 1815.18 1255 1816M1510 1696C1522.05 1691.63 1530.35 1673.06 1541 1665C1539.33 1682.88 1536.12 1700.35 1532.9 1718C1531.96 1723.15 1527.49 1732.55 1530.4 1737.51C1532.8 1741.61 1541.73 1742.69 1546 1743C1538.36 1762.9 1520.98 1816 1556 1816C1539.11 1808.79 1532.88 1768.62 1548.56 1755.83C1556.57 1749.3 1585.07 1757.23 1597 1753.13C1621.22 1744.8 1611.93 1694.52 1584 1700.51C1570.62 1703.38 1561.92 1713.71 1559.28 1727C1558.71 1729.87 1560.56 1740.89 1558.77 1742.35C1555.41 1745.09 1541.11 1736.39 1538.51 1733.93C1534.39 1730.04 1537.56 1722.74 1538.36 1718C1540.88 1702.99 1543.88 1688.14 1545.82 1673C1546.2 1670.06 1549.81 1655.33 1546.21 1654.11C1542.6 1652.88 1537.07 1660.9 1534.99 1663C1526.4 1671.68 1512.53 1683.57 1510 1696M1257 1656.41C1291.14 1652.75 1280.93 1712.84 1251.56 1715.5C1244.7 1716.13 1237.18 1703.28 1234.86 1698C1227.61 1681.44 1238.16 1658.42 1257 1656.41M1975 1656.37C2000.68 1654.39 2003.12 1707.03 1980 1709.47C1952.39 1712.4 1942.75 1658.86 1975 1656.37M1322.99 1659.81C1341.81 1658.8 1328.74 1714.03 1314.82 1715.13C1306.74 1715.78 1303.53 1703.92 1302.91 1698C1301.43 1683.87 1303.42 1660.86 1322.99 1659.81M546 1660.42C579.566 1654.43 588.274 1704.47 555 1710.56C520.02 1716.96 512.463 1666.4 546 1660.42M1171.92 1661.64C1182.11 1659.21 1199.72 1660.38 1205.83 1670.09C1214.63 1684.06 1204.66 1711.75 1187.76 1714.85C1165.43 1718.95 1143.62 1668.4 1171.92 1661.64M835 1815C851.758 1820.68 877.277 1816 895 1816C900.457 1816 910.461 1817.92 915.315 1815.18C928.201 1807.89 917.814 1770.49 910.074 1762.8C895.922 1748.74 884.089 1758.5 868 1758.45C855.514 1758.42 842.219 1749.26 834.358 1739.92C820.819 1723.84 855.512 1685.8 827.99 1671.79C796.924 1655.98 781.059 1699.61 795.243 1722C798.824 1727.65 811.733 1741.99 819.592 1733.9C819.553 1733.94 804.983 1725.82 802.83 1722.99C792.254 1709.09 790.905 1678.35 813 1674.42C848.263 1668.16 823.545 1719.98 824.423 1733C824.913 1740.27 830.991 1745.83 836.218 1750.18C845.386 1757.82 856.513 1765.35 869 1764.86C881.61 1764.37 890.793 1756.08 902.979 1764.42C911.504 1770.25 922.901 1803.85 909.717 1810.18C892.725 1818.33 853.942 1815 835 1815M83 1704.45C105.549 1700.65 111.704 1745.18 90 1748.71C59.7489 1753.64 57.2171 1708.79 83 1704.45M1583 1706.45C1611.6 1700.59 1612.77 1745.76 1585 1751.41C1556.43 1757.21 1558.98 1711.37 1583 1706.45M503 1743C501.222 1744.2 500.122 1744.6 498 1745L498 1743L503 1743M492.078 1750.45C520.129 1744.29 508.743 1786.09 488.007 1789.61C467.515 1793.1 476.393 1753.89 492.078 1750.45M1891 1800C1892.07 1796.24 1893.15 1792.94 1893 1789C1881.3 1804.83 1868.5 1786.43 1873.37 1772C1879.08 1755.09 1906.95 1748.96 1919.32 1762.55C1929.4 1773.62 1920.56 1793.29 1908 1797.05C1902.41 1798.73 1896.84 1799.89 1891 1800M789.008 1781.63C807.217 1776.81 830.455 1807.38 809.949 1813.5C789.521 1819.6 762.63 1788.6 789.008 1781.63M1483 1799C1483.06 1808.25 1500 1817.2 1500 1812.97C1500 1811.4 1485.29 1801.46 1483 1799M576 1993C550.81 2006.39 551.313 2045.65 585 2050.48C617.776 2055.19 610.135 2000.15 589 1990.04C571.859 1981.85 551.544 1992.73 539.417 2004.32C514.985 2027.68 501.948 2077.38 514.478 2110C518.623 2120.79 542.469 2152.15 557.403 2141.74C564.038 2137.11 566.271 2112.78 567 2105C578.664 2113.19 575.341 2138.47 593 2141.71C619.103 2146.5 644.223 2120.35 655.024 2099.96C680.39 2052.07 675.383 1990.08 638.451 1949.6C608.425 1916.7 560.662 1921.73 525 1939.24C463.598 1969.38 426.959 2065.1 477.363 2121.96C484.3 2129.78 495.196 2141.92 505 2145.84C507.176 2146.71 522.993 2147.62 520.239 2141.94C519.423 2140.25 511.035 2141.33 509 2140.69C501.381 2138.31 494.924 2131.18 489.224 2125.84C466.332 2104.41 458.372 2070.45 460.08 2040C464.45 1962.1 564.458 1897.55 630.999 1949.51C683.14 1990.22 677.684 2115.18 607 2134.19C587.58 2139.41 583.492 2122.66 577.234 2108C575.793 2104.62 572.55 2090.58 567.1 2092.11C550.055 2096.87 568.767 2154.86 535.175 2129.04C493.24 2096.8 521.85 1993.58 576 1993M976 2144C961.593 2144.65 948.104 2155.17 934 2158.62C894.201 2168.37 855.779 2160.98 824 2134.65C777.251 2095.91 775.159 2027.64 806.732 1979C818.1 1961.49 831.747 1944.41 853 1939.54C886.415 1931.89 927.329 1942.29 950.464 1968.16C986.996 2009 983.637 2092.29 936 2123C939.056 2102.85 927.469 2070.23 904.505 2095.3C898.542 2101.81 902.402 2116.77 895.845 2120.32C881.826 2127.93 861.333 2125.29 846 2128C856.663 2096.48 898.797 2069.62 898.807 2035C898.812 2017.31 887.84 1992.62 881.952 1976C880.669 1972.38 877.627 1960.12 873.783 1958.76C870.824 1957.71 864.576 1972.13 862.86 1974.56C852.587 1989.1 835.822 2011.81 835 2030C853.537 2022.51 851.651 1981.85 871.516 1972.32C875.154 1970.58 883.134 2003.65 884.917 2008C888.545 2016.85 894.048 2026.16 893.88 2036C893.494 2058.65 868.671 2079.34 856.999 2097.01C853.909 2101.69 836.565 2127.93 841.564 2131.74C853.128 2140.56 883.581 2125.85 896.727 2126.85C909.028 2127.79 914.306 2137.61 930 2132.17C950.948 2124.91 960.289 2107.67 969.242 2089C987.491 2050.96 981.934 1996.19 952.543 1963.54C914.734 1921.55 841.181 1920.08 808.739 1968.02C797.97 1983.93 788.571 1997.99 784.146 2017C766.845 2091.3 818.516 2168 898 2168C919.045 2168 963.493 2163.92 976 2144M214 2153C208.739 2155.2 206.32 2160.93 200.992 2163.06C179.098 2171.83 136.244 2170.88 114 2163.4C70.1496 2148.64 33.7836 2071.42 52.7027 2027.32C61.084 2007.79 76.8905 1987.81 92.0026 1973.02C104.947 1960.35 121.309 1957.29 138 1952.76C172.605 1943.36 214.793 1940.35 237.783 1976C261.485 2012.75 259.627 2073.3 231.793 2107.32C225.255 2115.31 213.726 2129.1 203.021 2131.37C193.882 2133.31 187.131 2105.41 183.981 2099C180.308 2091.52 175.312 2082.7 176.578 2074C180.045 2050.15 198.172 2031.09 194.654 2005C192.075 1985.88 175.064 1977.26 158.442 1988.09C142.197 1998.67 146.985 2023.69 156.409 2037C159.365 2041.18 168.348 2047.44 169.138 2052.2C171.219 2064.73 158.95 2079.22 155.481 2091C153.794 2096.73 150.892 2128.3 141.968 2125.81C127.688 2121.83 118.792 2098.85 105 2092C104.469 2103.11 127.265 2120.76 135.436 2127.7C137.646 2129.58 144.4 2137.7 147.533 2135.07C164.187 2121.1 151.842 2087.62 170 2073C173.242 2091.16 180.953 2107.41 188.95 2124C190.784 2127.8 193.316 2138.57 198.203 2139.17C207.047 2140.26 227.149 2122.2 233.097 2116.24C266.166 2083.11 265.45 2020.43 246.08 1981.14C225.7 1939.8 177.755 1934.71 139 1947.21C123.783 1952.12 108.921 1954.27 95.0026 1963.5C62.6982 1984.94 41.0817 2031.34 44.1438 2069C48.4587 2122.07 89.8117 2173 144 2173C163.562 2173 209.729 2177.53 214 2153M1609 2005C1614.01 1987.94 1644.16 1973.87 1657.15 1991.17C1682.61 2025.08 1663.53 2097.6 1630 2118.58C1570.78 2155.62 1551.23 2063.45 1551 2022C1550.95 2011.7 1548.9 2002.73 1551.39 1993C1554.22 1981.92 1554.46 1966.96 1563.32 1958.45C1572.41 1949.72 1590.31 1950.02 1602 1948.67C1643.16 1943.92 1677.35 1947.46 1694.52 1991C1708.83 2027.29 1712.96 2093.17 1693.44 2128C1687.37 2138.84 1674.87 2143.91 1668 2154C1724.26 2130.72 1716.35 2028.7 1696.6 1983.32C1691.05 1970.57 1682.37 1958.81 1671.78 1949.69C1649.66 1930.64 1596.16 1939.87 1571 1947.57C1552.5 1953.22 1546.48 1982.66 1541.86 1999C1536.63 2017.51 1543.72 2037.11 1548.3 2055C1559.07 2097.05 1571.38 2140.85 1624 2133.11C1669.1 2126.47 1676.48 2053.24 1670.84 2018C1668.65 2004.32 1665.03 1981.38 1649.64 1975.95C1607.38 1961.05 1570.02 2047.92 1616 2061.62C1647.61 2071.03 1667.7 2023.56 1642.64 2005.94C1634.58 2000.27 1617.95 2003.07 1609 2005M1273 2112C1263.32 2109.73 1267.12 2098.21 1276 2098.53C1310.83 2099.78 1279.78 2147.71 1259.62 2124.76C1240.97 2103.53 1270.03 2070.96 1265.59 2048.13C1264.47 2042.37 1255.68 2041.63 1251 2040.54C1241.37 2038.29 1220.7 2032.75 1213.63 2025.72C1210.58 2022.68 1214.4 2012.66 1215.57 2009C1219.25 1997.47 1226.01 1963.45 1240.01 1961.25C1275.04 1955.72 1321.98 1996.05 1331.03 2028C1335.36 2043.28 1331.34 2061.37 1331.02 2077C1330.53 2101.13 1323.98 2132.06 1301.78 2146.25C1244.72 2182.71 1164.5 2112.06 1154.93 2056C1149.88 2026.46 1161.97 2005.09 1177.05 1981.54C1178.57 1979.17 1176.73 1977.47 1174.23 1978.33C1155.44 1984.8 1148.34 2030 1148.96 2046C1150.55 2086.72 1175.89 2110.13 1204.56 2133.98C1219.3 2146.23 1239.69 2161.62 1260 2161.94C1319.16 2162.88 1337 2109.25 1337 2059C1337 2048.13 1339.2 2034.45 1335.96 2024C1327.69 1997.27 1294.69 1967.31 1268 1958.72C1229.88 1946.44 1223.92 1969.62 1213.92 2001C1211.89 2007.39 1201.59 2025.28 1205.92 2031.41C1214.33 2043.32 1252.4 2037.93 1258.04 2052.35C1267.49 2076.49 1225.24 2126.69 1269 2136.7C1301.05 2144.03 1315.26 2087.24 1273 2093.38C1259.29 2095.37 1253.94 2116.58 1270 2119.25C1279.05 2120.75 1285.28 2107.92 1275.14 2104.27C1269.79 2102.35 1272.27 2109.6 1273 2112M172 2064C172.827 2059.79 176.475 2051.72 175.081 2047.69C171.765 2038.11 156.942 2034.12 153.806 2020.98C150.053 2005.26 163.676 1976.35 182.813 1991.76C197.437 2003.54 188.521 2057.07 172 2064M586.04 1995.4C608.207 1998.09 607.831 2047.18 585 2044.54C556.053 2041.2 555.883 1991.74 586.04 1995.4M1547 2009L1547 2017C1545.71 2014.11 1545.9 2011.95 1547 2009M1627 2010.54C1652.07 2008.57 1653.15 2051.55 1630 2053.85C1596.71 2057.15 1595.59 2013.01 1627 2010.54M904 2127C909.809 2117.75 900.612 2111.24 905.166 2102.18C922.254 2068.18 952.48 2128.89 917 2129.82C912.529 2129.93 908.189 2128.39 904 2127M1657 2100C1655.87 2106.02 1652.43 2109.41 1647 2112C1649.83 2107.35 1652.2 2102.79 1657 2100M1645 2114C1644.82 2115.76 1644.66 2116.33 1644 2118C1643.73 2116.09 1643.94 2115.65 1645 2114M1652 2159C1657.68 2161.6 1661.61 2160.11 1666 2156C1661.17 2155.31 1656.56 2157.58 1652 2159M1644 2161C1627.87 2165.4 1615.45 2166.6 1599 2165C1604.39 2174.81 1644.28 2171.77 1644 2161z"/>
</svg>
