<?xml version="1.0" standalone="yes"?>
<svg xmlns="http://www.w3.org/2000/svg" width="2200" height="2200">
<path style="fill:#171717; stroke:none;" d="M114.5 489.5C113.872 490.128 114.873 491.127 115.5 490.5C116.127 489.873 115.128 488.872 114.5 489.5M395 579C393.108 567.738 383.873 572.246 395 579M419 600C419.511 601.952 419.733 602.457 421 604C420.99 601.648 420.895 601.386 419 600M340 924L341 928C341.27 926.089 341.06 925.647 340 924M481 984C481.545 985.635 481.365 985.455 483 986C482.227 984.824 482.176 984.773 481 984z"/>
</svg>
