<?xml version="1.0" standalone="yes"?>
<svg xmlns="http://www.w3.org/2000/svg" width="2200" height="2200">
<path style="fill:#0f0f0f; stroke:none;" d="M1409.33 16.6667C1409.28 16.7217 1409.22 17.7781 1409.67 17.3333C1409.72 17.2771 1409.78 16.2229 1409.33 16.6667M1416 17C1425.88 20.3489 1439.59 18 1450 18C1440.12 14.6509 1426.41 17 1416 17M1484 17C1511.85 26.4358 1556.46 18 1586 18C1663.02 18 1740.19 17.5408 1817 19L1817 17L1484 17M1850 17C1860.41 20.5261 1875.04 18 1886 18L1962 18C1951.59 14.4736 1936.96 17 1926 17L1850 17M167 63C168.075 74.0618 169.926 104.966 161.138 113.178C156.457 117.553 141.562 117.618 135 120.452C114.31 129.389 97.8406 152.25 97 175C105.95 167.36 107.27 150.43 115.402 141.04C123.57 131.608 134.993 124.787 147 121.635C149.77 120.908 158.223 116.984 159.531 121.428C161.481 128.053 155.518 141.442 153.685 148C148.308 167.236 144.294 187.313 140.742 207C139.921 211.546 137.139 238.099 131.852 236.112C108.825 227.454 112.314 190.859 114.438 172C116.099 157.256 119.222 142.644 136 152C132.324 137.902 121.557 142.358 115.199 152C108.038 162.859 108.71 179.434 108.078 192C107.41 205.27 110.343 219.939 118.185 230.92C122.054 236.338 131.771 239.865 132.393 247.019C133.288 257.317 128.737 270.86 126.68 281C126.24 283.166 123.78 290.938 126.674 292.239C130.476 293.948 131.446 283.845 131.717 282C132.811 274.541 133.529 250.765 139.685 246.26C147.7 240.395 164.971 240.072 175 234C204.58 216.09 225.364 173.187 204.911 141.698C199.594 133.513 191.644 125.396 183 120.823C179.222 118.824 169.542 117.493 167.623 113.518C160.848 99.4858 181.753 76.1648 167 63M1341 84C1328.16 103.668 1312.8 119.997 1298 138C1297.49 133.38 1299.32 127.869 1294 126L1294 135C1283.48 124.093 1267.48 111.702 1274 97C1267.62 98.1711 1262.18 99.457 1266.33 107.001C1273.91 120.766 1290.54 132.047 1296.06 146C1302.98 163.492 1287.77 193.187 1283 210C1273.05 201.287 1244.75 147.819 1238 189C1241.67 186.036 1244.65 177.619 1250.02 177.562C1256.65 177.491 1278.55 209.746 1279.71 216.174C1280.75 221.965 1274.15 231.19 1272.7 236.997C1266.91 260.118 1251.89 306.991 1225 313.164C1208.62 316.925 1195.9 283.801 1213 282C1203.19 266.746 1200.11 292.902 1201.75 300C1205.76 317.382 1225.32 322.314 1238 310.914C1257.18 293.666 1266.07 269.825 1274.18 246C1276.07 240.449 1278.75 223.304 1283.76 220.243C1287.15 218.172 1297.12 226.889 1301 227.956C1311.75 230.914 1331.08 223.136 1337 214C1326.31 215.49 1317.12 224.584 1306 223.777C1273.81 221.443 1296.43 182.626 1300.21 165C1302.08 156.302 1299.12 146.915 1304.34 139.078C1310.69 129.546 1318.93 120.874 1326.17 112C1332.59 104.128 1342.04 94.5393 1343 84L1341 84M917 120C919.365 118.414 925.081 107.588 927.415 108.643C932.241 110.825 923.44 126.091 922.108 129C913.5 147.809 905.298 177.071 891 192C890.862 177.262 887.128 127.319 872 121C876.409 146.411 889.404 172.479 887.683 199C884.749 244.239 845.864 218.145 830 196C826.072 219.888 866.493 218.783 870.018 234.317C871.387 240.35 860.73 252.958 857.66 258C844.476 279.649 828.946 300.687 817 323C824.895 322.655 828.174 312.846 831.996 307C842.989 290.188 852.972 272.899 863.82 255.997C866.944 251.13 872.105 236.484 879.045 237.028C897.437 238.468 896.924 291.301 896.646 306C896.513 313.032 891.457 324.152 899 328C899.988 300.122 897 273.115 897 245C911.986 250.781 927.72 259.421 944 260C939.249 243.737 933.181 228.512 929 212C921.591 223.382 932.146 243.716 936 255C925.791 252.006 904.671 246.972 897.821 238.542C878.98 215.354 905.47 171.617 916.169 151C921.388 140.942 938.06 116.537 929.837 105.218C923.673 96.7341 917.955 115.963 917 120M167.265 120.297C190.105 115.033 207.028 150.139 208.199 167C210.427 199.1 182.273 235.389 150 240.562C133.551 243.199 140.191 227.999 142.438 218C147.611 194.978 152.599 171.923 158.22 149C159.621 143.286 160.477 121.862 167.265 120.297M500 187C516.814 172.436 530.271 154.373 547.438 139.954C561.697 127.978 589.497 115.793 600.79 137.001C608.454 151.392 607.195 168.26 607.066 184C606.752 222.4 603.445 253.768 566 274.431C550.978 282.719 531.885 289.456 515 282.451C480.873 268.293 488.389 200.091 498.826 173C503.202 161.642 514.169 141.206 528 142C516.794 128.633 499.088 162.648 495.51 171C483.114 199.936 480.309 241.47 495.904 270C511.657 298.819 545.149 291.189 568.999 277.876C608.906 255.6 612 217.906 612 177C612 159.496 612.029 138.449 597.618 125.556C578.067 108.063 547.321 133.405 533.922 147.04C522.554 158.609 506.371 171.839 500 187M1918 299C1924.06 306.546 1942.9 311.328 1946.18 318.276C1949.01 324.289 1941.12 345.503 1947.67 349.031C1952.36 351.557 1950.07 320.327 1952.26 317.797C1958.39 310.716 1973.21 320.615 1979.43 307.978C1988.13 290.281 1982.85 258.942 1980.67 240C1979.99 234.05 1975.25 222.245 1977.05 216.722C1978.48 212.366 1992.32 213.307 1995.72 214.501C2001.79 216.635 1999.97 230.96 2000 236C2000.1 254.747 2001.51 278.415 2010.98 294.992C2015.44 302.796 2029.14 304.499 2031.5 312.105C2034.06 320.378 2028.12 348.38 2039 350C2037.64 342.304 2031.46 313.469 2037.54 308.023C2046.32 300.161 2066.71 303.181 2072 291C2065.39 293.019 2042.47 305.142 2036.82 300.815C2032.89 297.805 2035.18 286.434 2034.78 282C2033.31 265.429 2034 248.639 2034 232C2034 227.784 2032.24 218.101 2035.82 215.039C2041.99 209.767 2073.87 212.193 2083 211.222C2085.92 210.912 2098 210.795 2098 206.089C2098 202.45 2085.97 205.788 2084 205.997C2072.14 207.263 2048.14 214.275 2037.37 207.499C2032.18 204.231 2034.76 172.435 2034 165C2018.58 170.441 2046.26 207.178 2019 209.089C2015.24 209.353 2007.56 211.919 2005.12 207.682C1999.03 197.118 2015.76 174.221 2002 167C2002 173.745 2001.87 180.298 2001.06 187C2000.45 192.031 2000.23 196.949 1999.95 201.997C1999.45 210.947 1982.81 214.121 1976.82 208.178C1966.21 197.661 1979.05 157.244 1964 153C1965.38 167.171 1966.5 180.855 1968.91 195C1969.54 198.661 1972.27 206.843 1969.14 209.818C1964.74 214.005 1951.93 213.371 1946 215C1946 196.692 1942.59 178.379 1941.96 160C1941.91 158.546 1939.92 141.804 1936.77 146.892C1926.16 164.02 1947.92 195.639 1940.96 213.576C1939.02 218.574 1914 221.733 1909 220.304C1907.36 219.834 1899.01 214.895 1898.32 218.469C1895.84 231.289 1938.44 218.999 1941.62 222.149C1944.89 225.394 1943.99 235.718 1944 240C1944.04 256.364 1945 272.619 1945 289C1945 292.816 1947.26 306.323 1944.1 308.714C1938.7 312.799 1923.49 300.561 1918 299M508 233C508.01 226.43 508.086 220.85 513 216C512.556 222.13 513.17 226.852 516.884 231.992C547.495 274.351 602.528 187.738 556.997 182.269C535.667 179.706 523.181 193.205 512.551 209C508.328 215.275 499.796 226.379 508 233M552 186.5C566.126 183.508 573.438 197.837 569.896 210C565.655 224.561 553.826 235.338 539 238.162C523.005 241.208 513.493 223.766 518.508 210C523.295 196.861 539.115 189.228 552 186.5M1602 213C1602 241.94 1627.47 270.708 1659 267.845C1665.22 267.28 1687.78 254.483 1691.78 258.259C1695.77 262.025 1686.55 282.721 1684.35 287C1673.28 308.526 1648.17 323.353 1624 310.52C1601.01 298.311 1590.1 274.036 1587.36 249C1586.33 239.571 1600.43 223.409 1593 218C1583.2 244.739 1579.07 264.126 1595.3 291C1610.43 316.055 1651.65 331.991 1675.74 308.729C1690.85 294.139 1702.12 258.288 1705.27 238C1706.94 227.227 1702.66 208.508 1712.32 200.741C1725.91 189.808 1770.31 194.994 1765 218C1777.23 210.519 1765.12 199.269 1757 195.064C1745.16 188.932 1725.13 190.257 1713.01 195.067C1693.85 202.667 1706.66 231.323 1696.88 245.949C1676.41 276.566 1631.09 261.631 1612.82 238.96C1606.84 231.546 1608.12 218.416 1602 213M889 211C889.035 219.733 890.919 228.276 891 237C874.751 231.698 882.396 223.422 887 211L889 211M2031 213C2028.97 234.836 2028.79 258.088 2029.88 280C2030.08 284.029 2033.35 300.195 2029.46 302.13C2020.4 306.629 2012.11 289.112 2010.32 283C2005.65 266.992 2005.05 248.651 2005 232C2004.99 227.972 2002.34 218.251 2005.82 215.384C2010.44 211.582 2024.99 213.56 2031 213M1972 214C1972.5 227.818 1974.88 242.202 1976.32 256C1977.77 269.891 1980.76 292.945 1974.86 305.93C1972.4 311.349 1955.93 316.696 1951.5 311.178C1947.85 306.627 1949.84 294.457 1950.3 289C1951.7 272.296 1949.09 254.808 1949 238C1948.97 233.354 1946.13 224.699 1948.48 220.597C1951.58 215.192 1966.42 214.762 1972 214M193 433C195.192 469.627 188.315 511.183 196 547C189.606 544.322 185.548 536.066 181 546L189 543C185.746 551.143 169.812 551.85 162 552C165.625 541.31 167.532 528.693 173.69 519.078C178.651 511.334 187.607 507.094 192 499C162.206 505.071 169.981 561.631 140.155 555.697C133.697 554.412 137.693 540.681 137.739 536C137.91 518.652 140.717 500.215 138.671 483C137.979 477.174 129.192 467.929 137 466L137 463C119.083 463.177 100.924 464.163 101 445C92.4417 448.007 99.1622 461.036 92.7716 466.301C84.0922 473.451 68.3237 472.919 58 477C65.8717 483.119 86.0076 474.443 95 472C95 480.378 93.9303 489.817 99 497C100.867 489.02 96.0548 479.043 101 472C107.651 501.718 103.513 532.238 107 562C83.6697 562.218 62.8187 569.216 39 565C48.8252 587.018 91.7716 557.902 104.16 568.262C109.692 572.889 100.899 606.582 100.096 614C99.7839 616.883 93.4935 643.765 98.5987 642.677C101.926 641.968 102.64 627.942 103.184 625C106.208 608.641 103.974 584.077 110.822 569.243C112.836 564.88 124.212 561.612 128.496 563.738C133.062 566.005 129.904 580.86 129.184 585C125.527 606.022 123.801 627.787 121.78 649C121.464 652.32 115.576 671.698 120.081 672.677C123.963 673.521 126.988 649.238 126.999 646C127.071 625.958 131.134 604.772 134.36 585C135.385 578.718 133.574 570.176 136.781 564.461C138.737 560.977 155.132 557.115 156.953 561.52C159.86 568.55 155.569 583.884 156.136 592C156.792 601.376 157.517 610.605 156.437 620C154.932 633.1 154.98 646.58 150 659C158.331 658.042 159.723 641.774 160 635C160.727 617.221 161 599.786 161 582C161 576.103 158.989 565.515 162.26 560.365C171.009 546.587 191.585 554.964 193.602 568C198.332 598.573 189 633.88 189 665C194.702 659.942 192.825 642.417 193.016 635C193.523 615.343 197.925 595.693 198.922 576C199.243 569.657 197.059 558.124 201.252 552.779C206.268 546.385 226.437 546.726 234 545.902C251.87 543.954 270.012 539.208 288 539.007C293.236 538.949 302.863 537.59 305.861 543.244C308.068 547.406 303.161 553.9 302 558C321.394 547.25 307.781 535 292 535C261.83 535 228.376 539.029 199 546C202.042 531.824 194.475 510.202 200.822 497.415C203.272 492.479 213.211 491.119 218 489.76C231.957 485.8 243.769 477.5 257 472C255.638 475.338 254.495 478.42 254 482C255.929 480.451 267.392 469.083 260.665 467.767C250.344 465.749 226.506 482.394 216 486.012C212.587 487.187 204.343 492.212 200.94 489.761C197.243 487.099 199 476.952 199 473C199 460.212 202.305 443.175 193 433M883 445C883.311 455.924 888.277 481.079 880.85 490.283C878.456 493.251 866.905 493.98 862.941 495.003C852.397 497.726 842.958 503.308 834 509.333C829.355 512.457 812.947 525.62 824 530C824.315 520.846 831.755 514.141 840 511C837.994 544.428 820.042 576.51 823.346 611C825.286 631.247 839.188 629.049 847.74 641.494C852.302 648.131 850.224 659.769 849 667C859.202 659.208 848.132 648.574 854.26 640.803C856.721 637.682 864.34 637.147 868 636.038C877.476 633.164 907.671 620.552 916.362 627.26C919.319 629.542 918.011 635.739 918 639C924.892 634.232 927.319 616.766 930.426 609C941.355 581.682 963.503 534.792 938.866 509.06C930.63 500.458 916.644 494.555 905 492.431C900.298 491.573 889.647 494.322 886.361 490.287C879.602 481.988 898.169 449.433 883 445M2046 471C2053.47 468.58 2058.29 509.325 2052.18 514.818C2040.31 525.484 2011.51 508.155 2001 520C2018.76 520.026 2035.23 523.311 2053 520C2053 537.51 2049.04 553.804 2046.69 571C2045.99 576.104 2045.52 586.755 2040.72 589.741C2035.02 593.281 2024.41 591.004 2018 591C1997.7 590.989 1940.84 585.262 1938.64 556.457C1938.21 550.738 1950.85 542.045 1955 539.119C1974.34 525.482 1996.79 513.736 2020 508.687C2024.21 507.771 2049.56 505.279 2049.68 505.955C2048.2 497.419 2022.11 503.289 2017 504.438C1993.36 509.758 1973.37 523.094 1953 535.503C1947.24 539.011 1933.81 548.521 1933.83 556.003C1933.88 586.564 1990.66 595.237 2012 595.96C2018.23 596.171 2034.26 593.407 2039.18 597.278C2043.9 601.001 2038.12 615.099 2037.34 620C2033.29 645.459 2042.08 668.054 2039 692C2048.62 689.498 2044.2 676.655 2041.94 670C2035.84 652.042 2035.45 614.469 2046.94 598.206C2052.46 590.401 2073.29 592.661 2082 591.79C2108.52 589.14 2131.1 580.865 2156 571.702C2163.48 568.951 2178.32 563.37 2180.93 554.92C2184.18 544.405 2166.16 538.686 2160 534.599C2139.12 520.736 2116.64 517.406 2092 515.217C2083.68 514.478 2068.76 519.102 2061.5 515.178C2055.33 511.844 2058.07 478.96 2055.86 471.218C2053.44 462.782 2045.89 459.888 2046 471M115 462C112.298 464.895 108.818 465.413 105 466C107.591 462.215 110.614 462.067 115 462M110 561C114.516 539.746 110.586 517.44 109.059 496C108.642 490.141 103.676 476.763 107.278 471.741C114.346 461.89 129.703 469.595 133.356 478C140.347 494.086 130.922 515.151 131.112 531.783C131.186 538.247 134.818 549.658 130.74 555.396C127.657 559.736 115.03 560.154 110 561M495 486C509.8 476.123 533.105 490.371 546 498.037C563.598 508.499 585.667 514.283 595.635 534C602.035 546.657 600.922 566.119 600.997 580C601.036 587.119 603.606 604.519 598.74 610.238C595.955 613.512 585.799 609.412 582 609.137C568.993 608.196 554.496 610.909 542 614.457C524.903 619.311 477.218 646.375 472.207 611C466.706 572.16 500.706 528.968 491 490C481.58 495.678 483.925 518.141 482.698 528C479.514 553.598 449.527 621.727 487.003 633.215C521.693 643.85 557.935 598.783 594.863 615.361C603.32 619.157 595.924 653.819 597 663C604.249 651.874 594.889 628.018 606 620C595.687 591.37 615.429 552.012 596.116 525.001C581.643 504.76 544.551 490.525 522 481.276C513.767 477.899 497.043 473.842 495 486M1200 520C1199.58 513.386 1213.45 502.928 1214.3 508.411C1215.32 514.979 1208.28 528.291 1206.44 535C1201.38 553.4 1197.51 573.031 1195.33 592C1194.73 597.187 1191.19 616.322 1196.5 619.178C1203.22 622.786 1213.58 616.71 1219.32 613.634C1232.42 606.614 1247.22 601.531 1262 600.217C1273.3 599.213 1306.15 603.597 1314 596C1301.08 591.568 1269.83 601.366 1260.82 593.858C1250.83 585.532 1266.66 566.99 1273 563.018C1293.77 550.001 1313.28 534.91 1334.04 521.871C1342.77 516.385 1358.45 509.581 1364 501C1352.74 502.28 1347.37 509.813 1338 515.05C1311.76 529.725 1288.25 552.636 1261 565C1262.4 549.942 1276.14 508.456 1263 497C1263.07 514.91 1260.58 531.188 1258.68 549C1258.02 555.201 1259.12 565.017 1254.56 569.833C1243.76 581.233 1225.92 591.045 1212.86 599.917C1210.41 601.584 1199.28 609.726 1198.22 603.785C1194.43 582.446 1207.94 546.744 1213.56 526C1215.47 518.919 1217.71 506.54 1224.15 502.159C1242.32 489.787 1276.93 492.401 1298 489.823C1316.88 487.512 1336.14 489.561 1355 487.438C1359.06 486.981 1371.4 484.897 1373.7 489.501C1377.13 496.383 1358.07 516.467 1354.28 522C1336.36 548.11 1322.92 579.103 1321 611C1331.2 598.266 1331.49 573.351 1338.33 558C1346.45 539.8 1359.5 524.902 1369.59 508C1372.63 502.888 1380.16 495.384 1379.94 489.1C1379.53 477.303 1344.31 482.56 1337 483.32C1297.86 487.391 1259.86 491.814 1221.08 497.691C1213.47 498.845 1186.91 511.197 1200 520M1591 487C1597.32 494.126 1609.17 495.97 1591 492C1592.91 495.451 1597.89 498.388 1598.63 502.222C1599.97 509.193 1593.65 519.564 1591.36 526C1583.83 547.134 1576.41 568.466 1567.34 589C1563.3 598.169 1552.34 616.733 1556.02 626.952C1559.87 637.672 1575.49 636.208 1584 633.96C1611.59 626.673 1638.3 612.295 1665.32 602.716C1671.32 600.587 1689.76 602.014 1693.03 599.498C1695.75 597.406 1688.77 591.18 1688.66 588.431C1688.39 581.956 1693.39 568.094 1696.16 562.148C1700.03 553.855 1710.79 560.773 1717 561C1712.68 554.355 1702.58 556.979 1699.49 552.178C1692.08 540.673 1717.94 512.149 1723 504C1719.5 504.982 1716.36 506.636 1713 508C1715.29 492.757 1698.33 485.933 1686 483.323C1654.34 476.621 1622.33 486.279 1591 487M1659 486C1654.62 501.076 1651.84 516.43 1649.43 531.981C1648.94 535.163 1648.97 545.886 1645.36 547.239C1642.01 548.49 1636.26 540.053 1634.44 538.003C1627.47 530.149 1605 509.991 1606.07 499C1607.91 480.192 1645.99 486 1659 486M1667.22 486.656C1680.6 483.336 1714.63 490.229 1708.15 509.903C1703.89 522.856 1675.99 536.866 1665 544.422C1661.42 546.888 1656.59 552.798 1652.13 553.222C1646.53 553.754 1651.7 540.006 1652.14 537C1653.76 525.998 1653.81 489.984 1667.22 486.656M841 509C846.904 505.401 873.497 489.92 879.921 496.96C883.919 501.343 877.119 522.33 876.151 528C871.882 552.984 864.265 577.348 858.438 602C856.562 609.936 855.022 627.094 849.635 633.157C845.096 638.266 834.689 629.817 832.358 625.978C820.12 605.824 830.986 564.953 836.777 544C839.684 533.484 848.267 518.753 841 509M922 623C905.032 619.673 889.47 625.655 873 629.678C869.379 630.563 858.512 636.065 855.345 632.7C851.773 628.904 860.226 607.809 861.643 603C869.058 577.837 876.333 551.824 881 526C882.09 519.967 881.703 500.546 886.501 497.039C891.542 493.355 904.432 497.078 910 498.35C947.344 506.879 946.259 535.891 940.618 567C937.055 586.65 926.176 603.748 922 623M1579 575C1594.21 585.714 1612.82 570.07 1629 570C1621.03 579.911 1605.87 589.492 1595 596.158C1592.91 597.439 1581.52 599.53 1582.2 602.654C1583.12 606.848 1596.33 598.731 1598 597.707C1611.97 589.141 1626.49 571.619 1642 567C1640.35 577.815 1637.22 601.09 1630.2 609.476C1623.49 617.485 1603.77 622.889 1594 626.409C1585.88 629.335 1566.57 636.899 1560.42 626.584C1557.22 621.203 1562.55 610.198 1564.62 605C1571.8 586.956 1579.18 569.043 1586.4 551C1590.86 539.857 1595.07 528.472 1598.6 517C1599.29 514.784 1599.47 506.842 1602.35 506.323C1605.81 505.7 1610.81 514.724 1612.56 517C1617.82 523.847 1647.03 551.477 1643.78 558.938C1637.33 573.722 1592.57 573.887 1579 575M1706 519C1698.86 541.65 1697.16 552.804 1674 557.557C1670.58 558.258 1657.76 563.212 1655.54 559.072C1653.44 555.142 1663.69 549.746 1666 547.965C1678.19 538.565 1691.65 524.604 1706 519M2047 590C2051.54 573.44 2055.33 556.084 2057.2 539C2057.65 534.91 2056.43 523 2060.5 520.819C2065.96 517.895 2076.91 519.998 2083 520C2106.17 520.007 2132.49 522.123 2153 533.784C2158.05 536.653 2176.51 547.092 2175.68 553.842C2174.58 562.715 2152.16 569.908 2145 572.129C2111.81 582.43 2081.55 586.781 2047 590M511 567C511.328 558.327 518.685 552.301 519 544C499.96 555.054 494.175 605.932 527 598.377C543.165 594.657 567.077 571.222 564.072 553C560.085 528.827 533.321 532.114 521.635 548.001C517.466 553.668 513.815 560.562 511 567M543 538.513C556.811 537.599 561.173 550.956 557.932 562C553.658 576.567 538.346 594.024 522 594.519C510.676 594.862 507.182 585.462 510.661 576C515.761 562.132 526.064 539.634 543 538.513M1686 587C1682.2 584.982 1658.99 568.664 1662.41 564.104C1664.77 560.957 1689.2 557.25 1691.08 560.829C1693.79 565.995 1686.89 581.121 1686 587M172 560C169.604 566.214 167.428 572.311 167 579C169.895 573.144 172.789 566.42 174 560L172 560M1684 594C1667.53 595.872 1651.28 602.989 1636 609C1634.8 602.025 1642.94 567.976 1650.07 566.218C1659.76 563.829 1679.91 586.025 1684 594M1197 616C1202.07 604.837 1230.52 591.859 1241 583.932C1242.97 582.444 1253.16 573.456 1255.48 576.098C1257.49 578.381 1255.15 594.457 1252.49 596.338C1240.54 604.77 1211.63 615.065 1197 616M1912 780C1920.48 819.339 1937.5 861.639 1950.55 900C1954.76 912.396 1965.91 923.865 1966.94 937C1968.46 956.613 1953.31 964.306 1941.63 978.078C1937.6 982.825 1929.17 991.115 1930.7 997.989C1933.17 1009.04 1970.25 1018.12 1979.9 1025.08C1995.63 1036.42 1994.07 1081.2 2019 1083C2008.38 1066.25 1996.31 1050.04 1990 1031C2002.29 1038.23 2017.56 1052.51 2030 1057.1C2032.39 1057.98 2043.48 1064.7 2044.54 1062.35C2046.84 1057.26 2034 1041.9 2031.48 1037.22C2019.19 1014.39 2006.48 992.18 1992.85 970C1988.99 963.726 1978.09 952.929 1981.89 945.001C1991.89 924.112 2023.29 907.993 2040.36 892.846C2044.86 888.855 2054.37 875.664 2061 877.969C2078.28 883.983 2098.12 915.885 2107.76 930.639C2111.27 936.005 2118.22 950.181 2125 941C2109.27 935.865 2090.47 901.297 2079.48 888C2076.41 884.293 2064.4 876.485 2065.08 871.353C2066.77 858.617 2096.42 844.726 2107 842C2104.51 841.343 2102.55 841.584 2100 842C2104.88 833.727 2121.72 820.968 2104.99 814.056C2083.04 804.986 2053.25 818.909 2034 828.747C2027.62 832.008 2017.25 841.434 2010 840.89C1988.25 839.259 1953.62 810.21 1937.01 797.087C1929.17 790.896 1922.3 781.889 1912 780M708.333 786.667C708.278 786.722 708.222 787.778 708.667 787.333C708.723 787.277 708.778 786.222 708.333 786.667M1921 789C1949.48 809.623 1980.17 825.739 2009 845C1981.98 870.38 1975.83 888.164 1967 923C1946.9 900.719 1936.6 848.141 1929.9 819C1927.95 810.494 1919.37 797.296 1921 789M1262 910C1264.78 903.285 1271.07 898.197 1275 892L1274 891C1270.18 894.982 1266.53 898.826 1262 902C1268.12 871.113 1277.97 842.473 1282 811C1267.59 816.916 1254.32 843.775 1245.07 856C1225.91 881.308 1205.83 905.922 1189.09 933C1181.74 944.895 1172.82 968.788 1162.09 977.233C1157.82 980.592 1153.85 972.172 1150.11 974.451C1157.85 969.735 1153.92 1002.2 1151.26 999.677C1153.7 1001.98 1162.64 987.536 1165 986C1158.48 1005.04 1142.56 1021.37 1138 1041C1148.8 1037.04 1157.97 1018.16 1162.32 1008C1164.09 1003.86 1166.38 992.98 1171.84 992.081C1175.54 991.473 1178.92 1002.56 1180.6 1005C1186.46 1013.51 1214.36 1053.07 1221 1042C1225.36 1050.08 1233.14 1036.59 1238 1034C1236.21 1039.17 1232.57 1042.94 1229 1047L1230 1048C1238.97 1039.07 1238.9 1029.72 1246.61 1021.1C1274.82 989.53 1315.42 953.039 1352 932C1341.8 928.607 1332.19 939.177 1325 944.993C1308.38 958.44 1291.51 971.832 1275.26 985.737C1270.88 989.48 1260.32 1000.55 1254.5 1000.48C1250.04 1000.43 1252 974.802 1252 971C1252 944.099 1257.89 922.489 1286 913C1282.97 905.106 1293.06 894.797 1297.45 888.217C1311.11 867.734 1325.34 852.455 1343 834.993C1346.65 831.387 1367.73 814.042 1356 811C1357.55 820.152 1340.81 835.223 1333 838C1337.85 828.956 1344.04 823.369 1351 816L1350 815C1344.02 818.345 1339.44 822.939 1334 827C1336.63 821.195 1341.6 816.192 1343 810C1333.25 813.861 1330.22 828.144 1324.18 836C1306.25 859.305 1287.23 894.142 1262 910M860 898C860.022 890.033 865.898 855.647 858 853C857.982 864.901 860.949 890.797 854.06 900.74C849.189 907.771 838.895 911.159 832.136 916.055C827.249 919.596 820.537 926.484 814.398 927.403C803.968 928.965 796.002 917.602 784 922.863C777.335 925.785 757.999 945.732 774 948C768.463 926.441 795.334 922.074 809 932C796.413 935.291 786.517 946.675 774 949C772.715 957.889 772.663 961.852 783 964C781.302 960.181 777.763 958.068 775 955C786.156 952.405 803.924 930.687 816 935.743C846.617 948.56 841.116 967.722 837.942 994C837.347 998.925 832.46 1025.85 837.615 1028.24C839.945 1029.32 843.048 993.288 843.758 989C845.185 980.382 847.443 971.726 848 963C867.731 981.25 870.376 1008.77 903 1003C902.914 1007.53 897.774 1038.36 904.896 1038.36C906.699 1038.36 906.476 1003.28 909.166 999.158C917.355 986.598 950.924 976.891 965 973C965.87 987.502 961.296 1021.36 968 1033C972.152 1022.74 974.126 1006.99 972.522 996C971.624 989.856 967.312 976.892 970.338 971.263C978.654 955.797 1012.85 957.413 1023 941C1007.7 943.689 977.026 921.755 970.84 904.997C968.021 897.359 971.897 885.121 972.007 877C972.1 870.069 977.193 848.355 971.106 843.408C967.503 840.479 969 854.601 968.979 856C968.756 871.006 966.139 885.982 966 901C943.369 886.798 952.995 864.815 931 855C931.75 857.373 932.588 858.935 934 861C914.763 865.116 923.228 838.429 921.543 826C921.072 822.53 919.539 811.572 914.112 812.305C910.308 812.818 915.422 821.933 915.739 824.003C917.246 833.84 920.515 853.458 916.178 862.676C914.067 867.164 905.135 870.457 901 872.977C887.522 881.191 874.039 890.856 860 898M2016 843C2038.79 833.53 2057.4 822.426 2082 816.624C2088.96 814.983 2105.48 815.453 2108.46 824.011C2111.02 831.385 2089.84 843.745 2085 847.753C2079.13 852.616 2068.55 867.199 2061.54 868.823C2054.16 870.535 2021.87 848.554 2016 843M909 818L909 823C909.631 820.994 909.631 820.006 909 818M548 826C540.948 837.669 514.964 825.7 502 832.923C468.803 851.418 439.544 891.677 429.201 928C419.937 960.535 421.906 1003.38 436.5 1034C441.753 1045.02 462.403 1053.68 465.064 1063.31C465.951 1066.53 458.512 1079.79 461.9 1081.24C465.223 1082.66 471.502 1073.38 473 1071C469.344 1070.07 468.505 1068.69 468 1065C479.628 1068.87 475.206 1034.44 493.156 1029.54C515.297 1023.51 532.808 1048.55 551.008 1048.92C573.165 1049.38 598.419 1019.46 616 1008C610.999 1025.73 598.61 1040.66 595 1059C609.459 1043.66 618.96 1013.95 626.061 995C641.222 954.533 674.985 921.441 636.86 881.215C623.536 867.157 607.772 855.714 589 850.359C580.651 847.977 564.224 849.411 557.495 844.619C552.767 841.252 550.942 830.907 548 826M118 878L113 879C135.744 831.288 215.531 817.77 249.524 860.001C268.767 883.906 264.953 916.744 267.654 945.236C269.764 967.498 258.789 987.231 259.308 1007.73C259.404 1011.54 264.196 1011.69 267 1012C260.34 1002.92 270.539 981.813 272.236 971C276.412 944.407 269.607 912.845 268 886C295.078 903.078 314.518 929.884 319.395 962C323.344 988 301.787 1011.14 275 1008C280.325 1001.33 286.771 993.632 288 985C269.012 1002.08 260.304 1043.68 236.981 1054.57C222.738 1061.23 212.621 1028.85 196 1030.16C169.579 1032.25 158.266 1067.16 132.225 1068.8C123.849 1069.33 118.676 1056.41 116.435 1050C110.077 1031.83 108.93 1012.93 106.281 994C105.519 988.561 102.406 977.452 104.613 972.365C106.94 967.003 128.316 966.811 134 965.582C159.343 960.101 189.36 958.27 213 947.078C219.893 943.814 232.447 939.323 234.45 930.981C236.508 922.41 226.384 914.722 221.007 909.785C206.112 896.11 186.562 881.453 165 882.05C134.214 882.903 99.8657 903.384 76 920.925C67.5084 927.166 51.6546 940.333 55.6937 952.921C61.6962 971.629 95.4303 960.916 99.4985 973.206C107.116 996.22 103.185 1023.27 110.951 1047C113.723 1055.47 117.586 1069.06 127.003 1072.26C148.104 1079.42 163.611 1052.48 178.022 1042.78C181.909 1040.16 186.703 1041.76 191 1040C183.869 1034.67 198.449 1033.75 202 1034.93C213.724 1038.84 216.367 1054.82 228 1059.26C252.2 1068.49 258.987 1021.1 274.213 1013.36C278.907 1010.97 283.918 1015.67 289 1014.19C310.115 1008.04 325.496 987.646 323.91 966C322.024 940.268 307.941 913.487 288.996 896.17C282.943 890.636 272.699 888.189 267.649 882.686C262.534 877.112 260.85 867.454 256.616 861C247.297 846.796 230.34 837.037 214 833.235C182.454 825.896 153.783 832.903 128.996 853.31C122.155 858.943 109.777 870.807 108.452 879.981C107.224 888.484 116.31 881.459 118 878M1597 920C1565.03 915.447 1561.78 854.78 1572 832C1563 830.6 1565.24 844.79 1564.92 851C1563.86 871.553 1563.73 889.763 1574.83 908C1578.44 913.931 1589.48 928.41 1597 920M1333 832C1329.89 840.654 1324.41 846.582 1318 853C1318.34 845.393 1327.35 836.5 1333 832M506 847C515.156 853.873 533.394 842.788 541.002 850.26C543.244 852.462 541.022 860.039 541.003 863C540.944 872.321 545.512 898.109 538.876 905.176C533.207 911.214 517.539 904.72 520 896C497.754 905.353 500.095 882.485 485.922 874.346C473.593 867.266 453.195 894.64 450.105 904C440.096 934.324 487.029 947.441 509 952.141C513.56 953.117 528.657 951.812 531.178 955.822C537.358 965.653 528 996.999 528 1009C528 1011.15 526.847 1025.69 531.683 1024.05C535.964 1022.6 533.222 1011.28 533.478 1008C534.32 997.214 531.278 963.993 539.241 956.257C545.4 950.274 568.323 951.542 577 949.089C600.989 942.305 631.636 907.187 627 881C639.947 883.896 646.96 900.404 649.531 912C655.96 940.985 635.056 977.865 618.974 1000.9C615.279 1006.19 608.148 1008.92 603 1012.62C590.363 1021.72 566.875 1047.52 550 1044.71C531.644 1041.66 516.918 1021.82 495 1024.52C482.341 1026.08 475.044 1058.47 465.895 1056.57C444.508 1052.13 436.763 1024.54 431.86 1007C415.565 948.689 442.474 891.554 483.36 851.195C497.003 837.728 510.913 830.496 530 835.322C533.481 836.202 543.329 834.885 544.333 839.262C545.941 846.277 512.267 846.991 506 847M1174 844C1171.97 834.542 1167.61 839.724 1174 844M1272 839C1271.94 841.994 1272.05 843.346 1269 844L1270 839L1272 839M1266 840C1260.32 862.955 1257.87 902.299 1245.72 921.992C1237.16 935.882 1206.31 951.961 1191 957C1193.76 945.567 1204.02 934.693 1210.49 925C1223.13 906.076 1234.03 886.762 1247.14 868C1252.57 860.244 1257.19 843.992 1266 840M2013.08 847.784C2019.51 847.376 2026.66 853.588 2032 856.522C2037.7 859.658 2052.97 865.37 2054.9 872.182C2056.06 876.274 2047.09 881.545 2044.56 883.784C2032.91 894.102 2019.29 903.063 2008.44 914.12C2002.79 919.875 1985.55 941.135 1977.28 941.005C1968.92 940.873 1972.17 917.553 1972.92 913C1976.04 894.037 1988.12 849.366 2013.08 847.784M611 867C592.848 868.691 578.127 875.061 564.121 886.938C559.071 891.221 555.552 907.063 547.503 906.141C543.569 905.69 545.925 896.51 545.982 894C546.26 881.736 542.064 863.871 546.142 852.284C547.952 847.141 558.788 848.861 563 849.078C576.726 849.786 603.023 854.697 611 867M1273 849C1271.93 855.353 1270.6 861.564 1270 868L1267 868C1267.64 861.721 1268.76 853.793 1273 849M1533 977C1541.78 970.672 1567.6 961.728 1575.74 975.263C1581.28 984.478 1576.51 996.991 1583.98 1006.91C1588.42 1012.81 1595.02 1013.29 1600.56 1017.42C1614.65 1027.94 1628.32 1047.18 1646 1051C1640.54 1045.15 1632.23 1041.92 1628 1035C1629.78 1035.46 1639.04 1039.52 1639.68 1036.54C1640.25 1033.87 1620.79 1026.3 1618.08 1023.78C1612.11 1018.25 1597.85 1009.25 1595.76 1001.24C1595.23 999.21 1598.42 989.81 1598 985C1595.58 987 1595.38 993.113 1592.5 993.813C1581.09 996.594 1581.37 972.853 1582.46 967C1584.88 954.123 1593.28 944.126 1602.4 935.258C1614.58 923.415 1640.86 922.261 1627 943C1630.65 942.496 1641.85 939.252 1641.34 934.884C1640.57 928.131 1623.78 918.863 1624.64 916.098C1626.14 911.296 1635.26 906.437 1639 903.298C1652.7 891.804 1666.48 880.027 1682 871.027C1684.65 869.493 1698.01 857.234 1698.8 858.106C1701.04 860.572 1694.9 870.144 1694 873C1694.62 872.614 1713.35 851.64 1713.36 857.636C1713.35 851.644 1698.57 852.046 1695 852.439C1675.93 854.539 1659.03 858.516 1643.04 870.363C1621.36 886.426 1599.62 917.057 1585.76 940C1581.51 947.027 1580.84 960.591 1575.76 966.13C1567.6 975.017 1536.13 952.916 1533 977M1678 859C1669.77 868.736 1655.31 872.622 1645.44 881.041C1633.39 891.317 1622.74 911.63 1608 917C1619.43 892.739 1651.05 863.794 1678 859M931 872C939.29 869.115 944.826 884.487 949.393 890C953.841 895.369 960.655 900.759 963.617 907.136C967.693 915.914 967.66 957.28 963.961 966.365C960.237 975.512 930.801 982.048 922 985.753C918.848 987.08 910.297 990.379 909.42 984.716C905.386 958.648 913.224 924.929 917.242 899C918.488 890.965 917.268 877.507 920.822 870.421C923.443 865.193 931.608 865.37 931 872M916 869C915.783 892.475 909.266 915.516 908.078 939C907.27 954.961 910.904 976.553 905.499 991.708C904.754 993.795 893.374 998.84 890.882 999.358C877.984 1002.04 848.241 960.187 850.522 950C853.475 936.814 852.971 916.93 859.501 905.184C867.231 891.282 901.513 875.429 916 869M575 887C570.689 891.425 565.596 895.365 560 898C567.923 875.708 633.22 855.395 623.541 895C617.714 918.844 593.675 940.34 571 946.172C565.729 947.528 539.322 954.099 538.887 945.852C538.524 938.96 540.378 917.787 545.685 913.082C553.46 906.19 576.27 900.096 575 887M1674 870C1671.29 873.096 1669.13 874.648 1665 875C1667.4 871.599 1669.91 870.493 1674 870M491 885C488.394 884.088 487.511 883.317 486 881C488.607 881.912 489.489 882.683 491 885M474.995 883.478C486.758 881.401 509.217 904.561 522 908.986C525.202 910.095 536.568 910.928 538.04 913.822C540.185 918.038 535.034 947.725 530.716 948.708C512.322 952.898 471.263 940.53 458.802 926.613C446.435 912.8 456.656 886.716 474.995 883.478M579 918C588.961 915.468 601.446 893.866 603 884C591.962 887.006 580.41 907.203 579 918M104 949C96.6379 951.942 101.199 963.65 95.7133 964.638C84.6421 966.631 54.4638 960.126 60.5999 944C66.81 927.679 88.6284 913.435 104 906.57C112.197 902.91 133.358 893.482 131 910C136.149 905.513 136.116 901.421 130 898C147.709 872.144 192.7 890.68 211 904.861C216.636 909.229 233.222 922.432 229.633 930.979C226.169 939.228 212.785 943.093 205 945.282C181.94 951.764 158.102 954.991 135 961.221C127.818 963.158 111.774 968.576 104.822 964.178C101.015 961.771 103.371 952.552 104 949M1648 886C1646.07 889.003 1644.04 891.116 1641 893C1642.83 889.652 1644.65 887.826 1648 886M1287 892C1283.41 900.024 1274.76 911.733 1266 914C1269.04 905.966 1279.61 896.22 1287 892M1216 903C1211.98 914.076 1197.21 940.584 1186 945C1189.68 932.866 1205.13 909.419 1216 903M473 907C478.869 922.507 500.135 935.698 516 936C510.137 922.686 486.935 909.12 473 907M846 953C842.05 951.384 817.813 932.129 820.106 928.92C822.436 925.657 852.277 907.396 853.582 909.086C858.746 915.775 846.589 944.479 846 953M968 914C974.351 916.514 1007.09 940.77 1005.11 947.421C1003.76 951.969 972.936 966.941 969.26 963.681C962.914 958.053 968 922.708 968 914M1266 915C1263.91 918.363 1261.53 920.227 1258 922C1260.02 918.325 1262.04 916.419 1266 915M1612 921C1611.23 922.176 1611.18 922.227 1610 923C1610.54 921.365 1610.36 921.545 1612 921M497 924C499.596 925.786 501.339 927.327 503 930C499.549 929.069 496.826 927.912 497 924M1245 930C1243.64 931.483 1243.03 931.637 1241 932C1242.54 930.733 1243.05 930.511 1245 930M1239 939C1231.77 949.909 1214.13 958.395 1203 965C1219.25 963.99 1230.52 946.125 1245 941C1244.8 962.474 1235.56 985.016 1231.22 1006C1229.59 1013.92 1233.74 1023.44 1224 1027.08C1218.56 1029.11 1213.54 1022.54 1210.04 1019.32C1201.51 1011.46 1174.05 992.842 1177.67 980C1183.5 959.284 1221.02 947.055 1239 939M1601 942C1596.5 965.215 1642.37 981.414 1660 979C1642.89 961.195 1611.35 972.655 1603 942L1601 942M1894 965C1904.03 969.721 1907.23 984.772 1914.2 993C1933.54 1015.83 1954.86 1036.87 1976 1058C1985.39 1067.39 1994.59 1082.84 2009 1083C1981.73 1049.72 1944.5 1023.15 1917.22 989C1910.53 980.63 1905.02 971.374 1902.1 961C1901.35 958.335 1902.1 949.017 1899.38 947.761C1896.29 946.332 1894.8 962.704 1894 965M1233 956C1235.39 954.56 1236.52 953.375 1238 951C1235.71 952.446 1234.52 953.745 1233 956M1976 951C1987.57 983.239 2014.74 1016.94 2032 1047C2024.85 1047.22 2018.23 1041.38 2012 1038.25C1981.29 1022.82 1968.05 985.93 1973 951L1976 951M1248 956C1249.41 969.821 1247.21 984.095 1248.14 998C1248.38 1001.64 1249.48 1010 1243.48 1010C1239.87 1010 1241.96 999.26 1242.02 997C1242.32 985.029 1241.82 966.504 1248 956M1968 959C1967.16 979.068 1973.77 1000.58 1981 1019C1973.36 1017.47 1940.93 1005.41 1937.08 998.764C1931.37 988.916 1960.04 961.933 1968 959M1173.67 972.667C1173.72 972.722 1173.78 973.778 1173.33 973.333C1173.28 973.278 1173.22 972.222 1173.67 972.667M282 974C282.545 975.635 282.365 975.455 284 976C283.227 974.825 283.175 974.773 282 974M1172 975C1170.97 979.526 1169.42 982.285 1165 984C1165.73 979.281 1167.18 976.218 1172 975M1585 976C1585.9 978.124 1585.88 978.101 1588 979C1587.1 977.077 1586.92 977.001 1585 976M1290 986C1279.04 995.718 1247.52 1017.14 1246 1032C1256.65 1023.49 1288.18 999.144 1290 986M1238 996C1238.01 998.712 1240.36 1016.3 1236.09 1016.36C1232.77 1016.41 1236.77 997.956 1238 996M1185 1000C1186.44 1001.45 1187.11 1002.22 1188 1004C1185.86 1002.87 1184.9 1002.43 1185 1000M1586 1000C1589.2 1002.61 1591.56 1005.1 1593 1009C1588.86 1007.32 1585.19 1004.89 1586 1000M1191 1009C1198.54 1014.04 1222.37 1028.25 1214 1038C1208.22 1031.76 1190.43 1017.55 1191 1009M1231 1027C1229.78 1029.72 1228.92 1030.39 1226 1031C1227.47 1028.83 1228.6 1028.06 1231 1027M1223 1035C1220.99 1038.65 1219.22 1040.57 1215 1041C1217.41 1038.22 1219.53 1036.29 1223 1035M1228 1037C1226.55 1039.42 1225.67 1040.1 1223 1041C1224.64 1039.16 1225.84 1038.17 1228 1037M1261 1039C1262.45 1041.42 1263.33 1042.1 1266 1043C1264.55 1040.58 1263.68 1039.9 1261 1039M1209.5 1046.5C1208.87 1047.13 1209.87 1048.13 1210.5 1047.5C1211.13 1046.87 1210.13 1045.87 1209.5 1046.5M1216 1058C1218.34 1055.24 1219.71 1052.37 1221 1049C1216.49 1050.26 1216.28 1053.74 1216 1058M1226 1051C1227.63 1050.46 1227.46 1050.63 1228 1049C1226.36 1049.55 1226.55 1049.36 1226 1051M234 1172C236.205 1189.15 230.834 1203.17 231.059 1220C231.136 1225.76 235.125 1235.43 230.07 1239.93C225.986 1243.58 194.295 1233.44 193.321 1228.76C191.028 1217.73 203.898 1198.16 209 1189C191.341 1187.43 197.605 1222.58 185.678 1228.52C171.066 1235.8 141.197 1229.55 124 1233.68C119.949 1234.65 105.756 1237.64 105.837 1243.26C106.013 1255.42 124.842 1267.9 129.275 1278.96C131.832 1285.34 108.496 1303.99 124 1308C123.754 1304.9 123.749 1302.01 124.665 1299C135.475 1263.49 153.662 1329.83 169 1314C160.651 1310.53 137.267 1292.66 139.184 1282C141.523 1269 169.177 1262.06 180 1261C169.389 1288.23 169.433 1322.17 170.019 1351C170.18 1358.95 168.443 1375.71 175 1381C175 1352.51 174.636 1325.39 177.897 1297C179.016 1287.26 179.315 1271.49 185.097 1263.27C191.301 1254.46 206.359 1255.52 213 1247C203.328 1247.2 195.124 1252.32 186 1255C187.135 1249.67 187.364 1238.45 194.069 1237.33C206.207 1235.29 219.982 1253.12 230.956 1246.18C246.473 1236.36 244.65 1206.53 243.216 1191C242.565 1183.94 242.23 1174 234 1172M1624 1301C1612.26 1296.49 1598.6 1291.87 1586 1291C1595.31 1302.31 1620.94 1296.79 1625 1313C1599.72 1305.92 1575.28 1289.99 1549 1287C1552.47 1283 1563.38 1284.46 1564 1280C1577.31 1282.87 1589.7 1290.17 1603 1293C1596.38 1282.77 1578.91 1282.93 1569 1276.88C1565.2 1274.56 1560.65 1268.59 1555.92 1268.83C1548.37 1269.2 1540.11 1276.84 1534.01 1280.69C1526.28 1285.58 1512.51 1289.63 1515 1301C1522.14 1289.34 1529.04 1291.05 1529.12 1305C1529.2 1320.01 1519.18 1341.6 1524.08 1355.94C1526.32 1362.5 1538.27 1364.46 1544 1367C1541.43 1359.53 1528.13 1360.32 1527.39 1353.46C1524.96 1330.89 1540.07 1310.8 1530 1288C1553.56 1291.22 1574.95 1300.46 1597 1308.69C1603.77 1311.21 1616.55 1312.37 1621.48 1317.64C1624.84 1321.23 1623.04 1327.53 1623 1332C1625.36 1327.44 1626.55 1323.14 1626 1318C1662.18 1329.32 1698.75 1322.11 1734 1312.81C1744.21 1310.12 1764.75 1293.47 1769 1308C1773.12 1304.12 1770.67 1298.77 1776 1295C1775.83 1313.7 1771.15 1333.77 1767.12 1352C1765.84 1357.81 1766.15 1366.84 1762.22 1371.56C1755.61 1379.5 1736.57 1384.13 1727 1387.6C1688.07 1401.69 1651.09 1403.7 1611 1393.2C1589.9 1387.67 1570.78 1376.46 1549 1372.84C1543.02 1371.85 1532.49 1367.65 1528 1373C1574.04 1383.82 1620.69 1408.24 1669 1404.86C1703.97 1402.42 1730.89 1384.73 1764 1378C1762.71 1382.7 1762.05 1387.12 1762 1392L1765 1392C1768.58 1356.98 1779 1323.64 1779 1288C1771.9 1288.71 1761.04 1265.22 1755 1280C1766.78 1275.66 1770.91 1290.22 1760.97 1295.69C1744.18 1304.93 1723.83 1312.42 1705 1316.28C1700.28 1317.25 1681.7 1319.26 1688.34 1308.5C1698.49 1292.04 1738.29 1299.54 1752 1284C1731.57 1286.12 1704.85 1294.62 1687 1305C1683.99 1282.94 1679.36 1260.1 1672.33 1239C1667.89 1225.68 1658.84 1210.24 1659.44 1196C1659.71 1189.76 1665.48 1185.02 1667 1179C1656.94 1182.99 1652.64 1196.45 1647.44 1205C1629.34 1234.73 1620.61 1266.1 1624 1301M437 1239C452.206 1243.74 466.514 1239.92 482 1240.21C513.826 1240.83 543.893 1241.17 575 1247C545.141 1260.98 503.541 1255.74 477.236 1279.66C455.681 1299.26 460.246 1361.11 459 1389C461.325 1386.12 461.82 1383.67 462 1380C490.956 1404.88 512.474 1391.9 546 1388.24C555.098 1387.24 572.867 1393.12 579 1385C564.91 1384.98 552.096 1382.3 538 1384.94C524.924 1387.39 512.718 1394.6 499 1393.91C459.988 1391.92 467.026 1356.8 467.96 1329C468.308 1318.62 465.826 1303.23 471.277 1294.02C486.002 1269.15 523.245 1265.04 549 1258.49C559.742 1255.75 597.031 1244.86 604.842 1257.6C607.936 1262.64 599.715 1284.52 598.715 1291C593.592 1324.21 583.051 1358.21 583 1392C589.949 1389.97 589.829 1366.7 590.926 1360C595.874 1329.75 599.611 1298.58 607.542 1269C609.353 1262.24 617.786 1260.81 618.306 1257.93C619.101 1253.51 603.126 1251.2 601 1247C610.793 1246.89 618.807 1241.97 627 1237C626.386 1284.02 630.949 1331.01 629.981 1378C629.488 1401.98 624.036 1425.9 624 1450L627 1450C627.31 1416.56 635.626 1383.67 633.922 1350C632.165 1315.29 622.275 1267.69 631 1234C618.113 1236.11 607.062 1246.97 593.96 1247.86C578.524 1248.92 563.606 1238.64 548 1237.22C511.617 1233.9 473.431 1237.02 437 1237C439.583 1234.81 441.559 1233.08 443 1230L436 1233C442.977 1213.14 464.465 1204.14 483 1198.74C526.246 1186.15 590.643 1193.31 625 1225C608.046 1225.07 590.027 1232.83 574 1238C585.087 1240.87 641.35 1216.08 633 1241C640.448 1238.22 641.556 1233.09 637 1227C638.271 1227.12 647.71 1228.72 646.239 1225.32C644.646 1221.63 636.138 1223.28 633 1222.32C624.132 1219.63 615.415 1212.4 607 1208.26C561.332 1185.79 481.712 1175.77 442.079 1216.04C427.483 1230.87 435.995 1249.17 436 1268C436.012 1310.18 437.051 1353.98 432.68 1396C431.277 1409.48 431.285 1423.64 433.541 1437C434.027 1439.88 434.251 1448.58 438.166 1449.21C442.226 1449.87 439.001 1439.73 438.709 1438C436.531 1425.11 436.753 1412.06 437.019 1399C437.677 1366.55 438.435 1333.45 440.078 1301C441.079 1281.22 444.747 1257.61 437 1239M1208 1251C1218.52 1244.37 1251 1244.76 1256.22 1261.32C1257.43 1265.14 1247.44 1282.55 1244.44 1285.7C1239.12 1291.28 1228.87 1284.95 1223 1282.8C1202.7 1275.39 1179.21 1258.24 1168.16 1286C1165.94 1291.56 1164.14 1297.12 1163 1303C1168.99 1294.29 1171.28 1274.78 1184 1273.23C1197.39 1271.59 1215.06 1283.42 1227 1288.55C1230.81 1290.18 1240.48 1291.26 1238.13 1297.07C1235.71 1303.03 1222.51 1324.92 1216.73 1327.56C1212.23 1329.63 1204.14 1326.67 1199 1327.24C1180.97 1329.22 1161.68 1339.38 1155 1357C1162.72 1352.04 1167.89 1343.94 1176 1339.08C1180.21 1336.55 1212.61 1324.23 1213.3 1334.37C1213.71 1340.36 1206.21 1350.01 1203.26 1355C1193.17 1372.08 1162.44 1430.94 1200 1435C1195.96 1429.63 1188.72 1427.65 1186.06 1421C1180.16 1406.18 1194.84 1378.71 1202.01 1366C1204.45 1361.67 1216.91 1333.62 1221.48 1337.13C1225.61 1340.31 1221.36 1349.25 1220 1353C1214.8 1367.25 1210.14 1382.21 1206.66 1397C1206.01 1399.75 1201.62 1414.91 1205.32 1415.68C1208.52 1416.34 1208.71 1407.76 1208.96 1406C1210.37 1396.14 1212.89 1381.49 1218 1373C1219.38 1389.46 1200.79 1446.08 1229 1450L1228 1446C1235.26 1450.06 1242.89 1451.05 1251 1449C1244.79 1445.11 1236.18 1447.89 1230.89 1441.73C1216.12 1424.54 1224.24 1377.68 1229.76 1358C1231.74 1350.91 1234.17 1326.46 1243.06 1325.5C1264.82 1323.17 1292.23 1341.8 1307 1356C1308.97 1357.9 1321.93 1372.89 1324.46 1368.43C1326.58 1364.68 1311.81 1354.64 1309.3 1352.1C1290.13 1332.65 1270.32 1329.06 1246.08 1321.04C1241.47 1319.51 1242.02 1315.85 1243.56 1312.01C1248.28 1300.22 1264.4 1301.79 1275 1302.02C1301.1 1302.57 1341.6 1325.45 1336 1354C1350.54 1342.75 1334.65 1328.76 1325.79 1318.99C1305.64 1296.78 1275.7 1295.35 1248 1300C1252.95 1292.85 1262.8 1271.75 1273 1277C1272.46 1275.11 1271.9 1273.76 1271 1272C1307.31 1264.21 1312.1 1291.97 1334 1310C1333.32 1281.33 1298.32 1263.52 1273 1268C1285.15 1251.71 1299.75 1237.81 1313.7 1223.14C1316.81 1219.87 1329 1213.12 1329.68 1209.07C1330.64 1203.28 1317.96 1212.93 1317 1213.7C1306.23 1222.42 1294.79 1232.44 1287 1244C1288.48 1235.71 1294.82 1229.63 1298 1222L1292 1225C1295.74 1213.88 1305.91 1207.25 1311 1197C1296.34 1204.84 1284 1227.21 1273.58 1240C1270.29 1244.04 1265.66 1253.48 1260.75 1255.44C1248.86 1260.18 1214.76 1220.81 1208 1251M1628 1282C1621.54 1262.93 1635.46 1237.75 1642.98 1221C1644.04 1218.64 1650.55 1200.59 1654.31 1202.74C1658 1204.85 1649.64 1218.43 1648.46 1221C1639.34 1240.84 1635.24 1261.64 1628 1282M240 1204C240 1210.84 241.357 1221.92 236 1227C234.206 1219.64 236.301 1211.27 238 1204L240 1204M1656 1210C1671.65 1231.39 1674.82 1264.71 1679.57 1290C1680.53 1295.08 1686.31 1313.89 1682.16 1317.51C1676.49 1322.44 1643.92 1317.07 1636 1315.69C1631.59 1314.93 1625.24 1312.34 1628.75 1306.68C1631.31 1302.56 1640.82 1302.73 1645 1300C1641.85 1300.01 1632.43 1302.46 1630.34 1300.02C1626.59 1295.67 1632.59 1281.72 1633.94 1277C1640.23 1254.94 1644.86 1230.27 1656 1210M1289 1232C1287.61 1236.29 1271.92 1264.45 1267.67 1262.9C1261.71 1260.72 1285.22 1234.03 1289 1232M156 1234.32C168.032 1233.01 199.962 1234.81 180.197 1254.07C173.714 1260.39 158.24 1261.26 150 1265.67C145.631 1268.01 139.241 1276.11 134.699 1276.68C128.706 1277.44 111.095 1248.75 114.282 1243.4C119.872 1234.03 146.337 1235.38 156 1234.32M836 1234C831.005 1250.78 830.223 1272.76 833.582 1290C834.954 1297.04 844.061 1310.8 841.988 1317.51C840.567 1322.11 826.989 1324.88 823 1327.35C810.32 1335.2 800.682 1348.56 791.438 1360C785.615 1367.2 780.452 1380.93 794.018 1384.9C799.192 1386.41 789.843 1370.58 791.098 1368C797.441 1354.94 815.553 1337.42 828 1330.25C831.703 1328.11 839.916 1322.16 844.323 1325.12C859 1334.96 831.951 1368.78 826.808 1380C825.611 1382.61 818.907 1398.61 824.221 1399.68C827.347 1400.3 829.304 1388.19 829.794 1386C831.726 1377.38 841.653 1350.31 850.984 1347.64C855.664 1346.3 860.381 1358.86 862.035 1362C871.23 1379.46 880.911 1396.92 895.003 1411C897.748 1413.74 910.362 1426.86 915.031 1422.94C917.393 1420.96 900.33 1408.37 898.014 1406.14C884.093 1392.73 875.246 1374.97 865.648 1358.44C863.019 1353.91 855.798 1344.37 857.582 1339.02C861.141 1328.35 887.506 1318.9 895.436 1328.2C901.935 1335.82 898.517 1347.6 905.878 1355.71C909.035 1359.18 919.634 1359.59 922.592 1355.27C924.17 1352.97 909.855 1352.63 907.49 1347.97C904.121 1341.33 905.867 1332.42 901.716 1326.61C889.2 1309.11 865.644 1325.34 853 1334C849.683 1317.54 862.76 1314.96 878 1313.32C905.183 1310.4 931.68 1316.09 959 1311.19C963.904 1310.31 991.357 1306 991.357 1299.21C991.357 1296.08 981.339 1300.57 980 1300.99C973.602 1302.99 948.254 1313.42 944.363 1304.72C937.314 1288.94 938.6 1269.01 960 1273C949.777 1252.38 920.949 1290.91 941 1308C917.737 1311.08 895.346 1305.09 872 1309.57C866.592 1310.61 852.318 1318.74 847.736 1315.08C827.898 1299.25 837.99 1254.83 838 1234L836 1234M1942 1244C1948.14 1251.33 1966.42 1248.37 1975 1247.3C1998.98 1244.32 2033.12 1231.54 2055.79 1244.88C2063.29 1249.29 2062.91 1266.31 2062.99 1274C2063.3 1302.13 2057.41 1331.06 2060 1359L2062 1359C2063.73 1330.11 2068.18 1300.94 2066.13 1272C2065.58 1264.1 2066.63 1250.28 2061.76 1243.6C2056.48 1236.36 2039.83 1237 2032 1237C2004.1 1237 1969.13 1238.76 1942 1244M1940 1269C1933.35 1269.06 1933.06 1274.46 1933 1280C1935.53 1279.27 1937.68 1278.24 1940 1277C1930.66 1305.58 1932.84 1337.33 1933 1367C1933.05 1375.76 1934.84 1394.2 1944 1398C1941.24 1382.43 1928.7 1350.66 1936.94 1335.38C1939.42 1330.78 1963.83 1337.13 1964.02 1341.83C1964.57 1355.58 1943.9 1369.09 1943 1384C1956.74 1377.33 1956.2 1350.71 1970.34 1343.53C1975.62 1340.84 1986.51 1345.12 1992 1346.34C2010.32 1350.4 2029.5 1352.94 2047 1360.1C2050.06 1361.35 2067.94 1374.28 2069.24 1371.2C2071.72 1365.32 2053.61 1358.39 2050 1356.77C2032.5 1348.93 2012.66 1345.58 1994 1341.44C1990.24 1340.61 1976.24 1340.04 1974.6 1336.2C1972.84 1332.09 1983.55 1318.05 1985.64 1314C1997.99 1290.09 2016.16 1269.47 2029 1246C2020.89 1246.61 2013.62 1261.75 2009.43 1268C1997.31 1286.06 1985.4 1320.14 1968.52 1333.34C1964.33 1336.62 1957.3 1333.36 1953 1331.72C1933.93 1324.46 1938.03 1318.38 1940 1299C1941.06 1288.54 1951.03 1267.27 1948.99 1258.26C1946.82 1248.65 1939.25 1263.93 1940 1269M134 1249L131 1251C133.047 1251.71 134.397 1251.29 134 1249M2040 1249C2035.97 1253.2 2033.03 1258.06 2030 1263L2031 1264C2034.29 1259.71 2040.3 1254.72 2040 1249M1266 1265C1264.91 1267.83 1263.97 1268.4 1261 1269C1261.74 1265.82 1262.81 1265.36 1266 1265M2028 1267L2029 1268L2028 1267M1261 1272C1259.57 1275.53 1258.21 1277.89 1255 1280C1255.78 1275.87 1257.04 1273.61 1261 1272M1564 1280C1557.8 1280.98 1551.27 1280.99 1545 1281L1546 1286L1539 1284C1544.51 1274.48 1557.43 1268.89 1564 1280M542 1274.48C520.136 1277.62 488.121 1310.05 491.365 1334C494.415 1356.52 524.028 1361.95 542 1359.54C563.071 1356.72 590.813 1334.12 591.29 1311C591.684 1291.84 559.421 1271.99 542 1274.48M504 1313L504 1327C513.785 1319.98 504.523 1304.94 522 1308C520.021 1305.32 511.768 1304.1 511.563 1301.5C510.482 1287.78 540.65 1276.7 551 1278.52C587.551 1284.96 592.823 1319.32 568.397 1342.66C556.416 1354.1 538.634 1355.9 523 1354.91C503.948 1353.72 484.429 1327.56 504 1313M523 1336C528.225 1337.93 529.816 1345 536.005 1345.33C560.213 1346.6 566.323 1290.01 533.043 1311.54C529.45 1313.87 526.742 1317.07 525.048 1321C522.984 1325.79 523.008 1330.89 523 1336M1237 1310C1235.16 1314.36 1233.44 1317.12 1229 1319C1230.06 1314.32 1232.51 1311.67 1237 1310M544.157 1312.83C560.73 1305.99 549.441 1335.81 539.006 1339.74C524.864 1345.07 536.639 1315.93 544.157 1312.83M534 1317C532.379 1322.78 529.915 1329.39 526 1334C524.635 1327.3 528.658 1322.49 532 1317L534 1317M1227 1328L1227 1322C1232.42 1323.82 1229.76 1333.31 1224.69 1334.08C1219.98 1334.8 1220.27 1326.85 1227 1328M407 1335C407.606 1325.13 399.205 1327.34 407 1335M1528 1375C1528.9 1377.12 1528.88 1377.1 1531 1378C1530.1 1375.88 1530.12 1375.9 1528 1375M1218 1411C1220.16 1419.22 1220.84 1428.51 1221 1437C1216.16 1430.62 1215.46 1418.49 1218 1411M2046 1515C2056.86 1527.15 2058.65 1565.11 2038 1548L2042 1546C2009.9 1530.23 1962.78 1517.3 1927 1523.26C1907.07 1526.58 1898.09 1565.18 1910 1580C1911.21 1572.45 1909.93 1563.74 1910 1556C1918.42 1580.22 1899.68 1600.64 1904.54 1626C1907.6 1641.99 1924.94 1638.84 1930 1652C1931.74 1644.65 1933.17 1644.02 1941 1644C1930.79 1661.9 1910.71 1676.14 1898.3 1693C1893.3 1699.78 1885.39 1707.38 1890 1716L1884 1715C1886.1 1720.29 1899.62 1721.57 1905 1724.57C1922.42 1734.29 1954.12 1738.85 1973 1730.67C1989.09 1723.7 1999.54 1711.48 2017 1705.69C2031.96 1700.73 2045.47 1709.55 2060 1697C2045.2 1694.38 2030.86 1699.89 2016 1699C2019.2 1693.78 2025.14 1690.62 2030 1687C2031.15 1689.96 2031.9 1691.16 2035 1692C2031.95 1679.25 2046.32 1679.26 2052 1670C2045.07 1672.45 2038.09 1678.71 2031 1679.9C2019.25 1681.88 1999.34 1669.78 1990 1663.61C1986.27 1661.15 1970.32 1652.21 1973.19 1646.64C1991.32 1611.39 2068.39 1616.09 2072 1567C2049.13 1585.72 2036.74 1607.32 2007 1619C2029.05 1593.52 2045.16 1582.29 2055.58 1549C2059.28 1537.16 2062.19 1518.61 2046 1515M531 1522C530.402 1526.51 532.189 1528.72 536 1531C534.884 1528 533.716 1525.13 533 1522L531 1522M1959 1526L1959 1528C1945.16 1527.92 1932.65 1528.91 1919 1531C1929.3 1521.6 1946.47 1525.56 1959 1526M1646 1566C1653.38 1562.67 1649.63 1552.51 1656.15 1548.25C1669.15 1539.74 1694.68 1534.97 1710 1532C1707.41 1535.33 1704.5 1538.01 1703 1542C1706.25 1540.84 1722.16 1529.9 1711.77 1527.74C1703.31 1525.97 1688.12 1533.04 1680 1535.68C1656.34 1543.36 1630.59 1554.52 1606 1558.06C1601.89 1558.65 1571.96 1563.51 1574.11 1569.48C1575.69 1573.9 1588.16 1566.74 1591 1565.97C1604.91 1562.19 1651.14 1541.76 1646 1566M1971 1617C1974 1605.03 1980.23 1594.84 1981.02 1582C1981.15 1579.94 1983.57 1571.95 1981.3 1570.76C1978.62 1569.36 1975.9 1579.48 1975.17 1581C1969.94 1591.95 1961.99 1602.12 1959 1614C1964.24 1606.22 1967.49 1594.84 1975 1589C1974.4 1595.31 1969.47 1624.36 1961.33 1624.36C1957.32 1624.36 1954.85 1614.83 1953.29 1612C1946.49 1599.63 1937.06 1588.19 1934 1574C1945.27 1577.31 1955.89 1583.11 1966 1589C1958.77 1577.35 1937.72 1577.72 1932.11 1565.86C1929.56 1560.48 1939.27 1556.19 1942.56 1553.69C1958.35 1541.71 1974.71 1546.14 1992 1541C1976.77 1536.53 1962.99 1538.5 1949 1546.15C1944.17 1548.79 1932.81 1560.79 1927.41 1559.26C1906.67 1553.35 1920.38 1533.16 1935 1531.34C1961.89 1527.99 1996.18 1531.8 2021 1542.92C2028.88 1546.45 2045 1553.01 2043.53 1564C2041.58 1578.64 2014.13 1589.43 2003 1595.97C1992.72 1602 1981.91 1613.15 1971 1617M1913 1537C1912.36 1539.55 1911.68 1540.99 1910 1543C1910.47 1540.26 1911.13 1539.06 1913 1537M938 1661C940.175 1650.33 931.537 1645.63 930.204 1636C926.272 1607.6 935.721 1575.72 957.005 1556.15C965.464 1548.38 977.771 1540.83 989.971 1543.37C992.92 1543.99 995.494 1548.41 998.063 1548.37C1000.31 1548.33 1000.45 1545.12 999.633 1543.71C991.486 1529.57 962.817 1544.89 955 1551.41C932.244 1570.37 906.207 1639.8 938 1661M1253 1624C1246.56 1607.18 1243.64 1587.81 1246.44 1570C1247.3 1564.56 1254.21 1553.54 1247 1551C1237.59 1580.49 1247.01 1603.8 1250 1633C1233.59 1618.53 1224.65 1571.86 1200 1568.32C1189 1566.75 1176.56 1586.92 1172.3 1595C1157.93 1622.2 1173.22 1654.49 1206 1656C1196.88 1645.59 1181.03 1643.96 1173.13 1632.1C1163.58 1617.77 1178.72 1572.14 1199.08 1573.3C1211.16 1573.98 1222.29 1597.72 1226.89 1607C1231.36 1616.01 1242.06 1626.84 1244.1 1636.44C1245.48 1642.9 1228.15 1673.18 1222.59 1676.74C1214.7 1681.79 1201.99 1679.99 1193 1685.03C1187.22 1688.27 1160.56 1704.95 1179 1708C1169.93 1692.55 1210.71 1682.96 1221 1682C1211.81 1705.67 1200.25 1727.91 1191.98 1752C1188.44 1762.31 1184.54 1776.24 1192.91 1785.49C1199.76 1793.06 1209.56 1789.07 1218 1791.6C1223.3 1793.2 1226.15 1798.44 1230 1802C1227.62 1778.57 1196.17 1796.56 1191.66 1773C1187.81 1752.91 1207.5 1719.85 1215.66 1702C1217.85 1697.2 1221.44 1683.17 1227.15 1682.08C1242.36 1679.17 1243.61 1695.47 1250.21 1703.95C1252.41 1706.77 1259.12 1713.69 1263.14 1710.06C1274.88 1699.45 1246.8 1683.22 1243.7 1677.82C1238.98 1669.55 1243.08 1663.11 1245 1655C1235.97 1660.15 1237.67 1670.37 1240 1679C1235.64 1678.23 1231.42 1678.01 1227 1678C1228.93 1672.79 1231.88 1667.93 1234.44 1663C1236.85 1658.39 1242.32 1644.61 1246.83 1642.32C1250.79 1640.32 1257.05 1650.37 1258.69 1653C1266.44 1665.5 1268.68 1689.55 1279 1699C1278.45 1684.2 1270.73 1669.4 1265 1656C1276.87 1661.76 1288.62 1664.8 1302 1663.86C1303.88 1663.73 1314 1663.76 1314 1661C1314 1657.74 1302.06 1659 1300.02 1659.02C1285.82 1659.2 1268.62 1656.3 1259.71 1643.98C1249.81 1630.28 1259.16 1618.92 1266.36 1606.68C1279.73 1583.96 1292.01 1562.75 1308 1542C1297.05 1542.56 1293.54 1552.78 1288.29 1561C1275.44 1581.12 1263.27 1602.43 1253 1624M540 1551C535.801 1572.49 541.793 1602.57 542 1625L540 1625C539.94 1621.83 534.83 1596.11 532.309 1599.97C529.75 1603.89 535.511 1617.13 535.863 1622C537.086 1638.92 530.683 1653.58 529 1670C523.26 1667.12 494.54 1654.41 492.662 1649.55C487.661 1636.59 508.417 1623.26 484.999 1613.97C450.213 1600.16 420.121 1645.31 439 1675C440.729 1664.61 436.171 1655.25 439 1644C441.798 1655.12 436.837 1674.46 451.008 1680.06C464.735 1685.48 471.435 1667.78 481.217 1663.2C486.782 1660.59 520.761 1670.5 523.516 1676.42C525.502 1680.68 519.987 1688.46 517.903 1692C510.306 1704.92 502.626 1717.71 494.036 1730C491.975 1732.95 486.454 1743.35 481.866 1742.01C475.196 1740.07 477.682 1720.62 474 1715C471.955 1722.91 472.142 1749.16 485.823 1745.11C498.791 1741.28 514.103 1707.67 520.156 1696C522.321 1691.83 525.792 1679.15 531.193 1678.44C541.42 1677.11 537.336 1694 537 1699C535.749 1717.61 531.728 1736.28 533.139 1755C533.33 1757.54 534.286 1772.49 538.077 1771.24C543.686 1769.39 537.903 1746.85 538.562 1741C539.386 1733.68 538.536 1726.3 539.602 1719C541.195 1708.1 540.692 1696.76 543 1686C557.875 1701.45 555.699 1721.54 561.597 1741C562.419 1743.71 565.905 1758.48 569.824 1757.68C574.705 1756.68 565.534 1730.61 564.677 1727C563.056 1720.17 551.211 1684.53 556.587 1680.5C561.688 1676.68 570.184 1681.1 576 1680C569.819 1673.27 557.291 1679.95 552.424 1672.72C530.473 1640.11 552.529 1587.48 542 1551L540 1551M1639 1555C1620.65 1574.11 1617.24 1607.02 1599.06 1624.28C1581.16 1641.28 1543.06 1628.72 1524.97 1648.76C1515.58 1659.17 1541.5 1674.57 1539.62 1685.59C1538.47 1692.35 1519.53 1691.46 1516 1700C1523.1 1698.61 1536.07 1691.22 1542.87 1693C1558.59 1697.11 1562.45 1732.3 1555.75 1743.82C1549.08 1755.27 1527.63 1752.48 1521.54 1761.88C1519.89 1764.44 1549.67 1753.81 1554 1751C1553.23 1763.03 1549.38 1774.54 1555.72 1785.92C1559.23 1792.22 1569.55 1799.07 1574.02 1789.93C1578.94 1779.86 1569.7 1746.75 1576.23 1742.56C1598.93 1728.01 1622.37 1736.57 1646 1732C1634.87 1717.8 1603.64 1727.73 1590 1732.08C1586.27 1733.26 1574.12 1739.32 1570.92 1736.94C1560.28 1729.03 1572.26 1706.5 1575.64 1698C1588.79 1664.97 1641.12 1659 1674 1652C1672.49 1654.55 1671.79 1656.05 1672 1659C1689.13 1645.73 1662.31 1649.93 1655 1651.74C1631.4 1657.57 1608.71 1667.97 1585 1673C1588.33 1661.9 1596.36 1634.36 1606.57 1628.76C1616.78 1623.16 1652.05 1618.81 1652 1636C1660.92 1632.86 1653.43 1622.58 1647 1621.34C1633.09 1618.65 1617.52 1621.91 1604 1625C1612.49 1608.62 1619.27 1590.43 1629.38 1575C1632.72 1569.92 1641.6 1561.29 1639 1555M1643 1555L1643 1557L1646 1557L1646 1555L1643 1555M1917 1558C1920.72 1560.85 1923.25 1563.63 1925 1568C1922.46 1568.76 1920.33 1569.74 1918 1571C1917.35 1566.85 1916.43 1562.16 1917 1558M888 1592C900.201 1590.61 907.397 1624.49 909.076 1634C909.716 1637.62 910.309 1648.36 915.754 1648.36C919.453 1648.36 908.766 1615.05 907.617 1611C901.144 1588.22 867.746 1556.32 842 1562.62C830.91 1565.34 790.73 1583.41 798.836 1600.43C798.086 1598.85 816.766 1578.63 823 1575.29C844.812 1563.59 876.511 1564.62 888 1592M1957 1631C1946.92 1624 1929.72 1596.82 1923.48 1585.99C1921.05 1581.77 1919.58 1573.04 1925.45 1570.54C1930.39 1568.44 1932.98 1581.07 1934.13 1584C1939.91 1598.62 1957.25 1615.08 1957 1631M2044 1571C2038.73 1596.53 1992.48 1634.61 1967 1638C1978.24 1601.2 2019.62 1599.37 2042 1571L2044 1571M796 1587C797.226 1577.7 798.365 1575.36 808 1578C803.3 1566.68 789.107 1577.65 796 1587M1915.28 1585.32C1917.77 1584.87 1922.91 1592.35 1924.96 1593.94C1932.42 1599.69 1962.42 1634.89 1945 1639.52C1923.39 1645.26 1920.57 1620.69 1915.6 1605C1914.57 1601.76 1908.51 1586.57 1915.28 1585.32M127 1700C120.841 1685.61 116.621 1672.84 115 1657C125.726 1663.54 163.951 1681.87 136.97 1697.42C129.473 1701.74 116.453 1697.14 112 1702C126.769 1703.03 85.1728 1719.71 81 1726C98.007 1722.33 129.811 1694.64 137.819 1727C140.631 1738.37 133.425 1750.14 138 1762C142.741 1758.08 147.962 1742.54 155.144 1743.4C164.067 1744.47 186.25 1767.84 192 1763C194.057 1764.75 195.366 1765.43 198 1766C196.09 1754.59 225.436 1721.6 231 1733L233 1733C233.841 1728.39 232.714 1725.27 231 1721C237.154 1724.62 242.704 1729.34 250 1730C246.272 1720.58 234.643 1717.04 228.383 1709.64C213.203 1691.68 225.013 1675.21 238 1663L237 1662C233.194 1665.05 229.208 1667.54 225 1670C230.472 1662.66 238.272 1658.56 244 1652C232.573 1650.65 230.231 1663.66 221.019 1666.36C216.904 1667.56 216.675 1660.74 218.599 1658.68C221.911 1655.13 229.585 1654.05 234 1652C230.062 1649.73 225.835 1651.53 222 1649C229.832 1648.88 230.663 1644.77 236 1640C221.702 1636.7 201.156 1622.85 204 1604C182.234 1612.65 203.82 1650.44 172.029 1651.61C161.9 1651.98 159.163 1615.34 157.792 1607C157.376 1604.47 155.791 1591.04 149.925 1594.5C148.467 1595.36 150.906 1603.81 150.473 1606C147.954 1618.77 151.379 1640.28 145.181 1651.5C139.152 1662.41 113.653 1644.87 107.865 1647.93C103.753 1650.1 110.811 1659.4 111.657 1662C115.506 1673.85 112.135 1695.44 127 1700M1910 1601C1916.82 1610.71 1920.58 1627.68 1925 1639C1906.88 1636.77 1904.34 1615.64 1910 1601M153 1614C156.682 1620.37 168.713 1660.86 151.363 1653.1C146.221 1650.8 150.978 1619.23 153 1614M970.051 1616C959.782 1619.68 966.451 1632.57 965.664 1640C963.155 1663.69 957.941 1678.67 984 1690.44C989.053 1692.73 994.18 1696.74 999.979 1694.69C1021.97 1686.93 993.028 1640.56 986.047 1629C982.803 1623.63 978.254 1613.06 970.051 1616M466 1648C467.624 1652.27 477.638 1656.52 477.214 1660.05C475.613 1673.4 451.137 1684.93 445.428 1668C441.327 1655.83 442.651 1633.48 450.84 1623.21C458.511 1613.58 483.628 1615.62 491.395 1624.4C506.124 1641.05 477.728 1650.49 466 1648M202 1617C208.371 1626.84 217.537 1635.83 223 1646C207.781 1651.3 197.405 1631.83 200 1617L202 1617M972.199 1620.11C977.216 1620.02 980.981 1627.38 983.165 1631C990.252 1642.75 998.729 1659.64 1002.08 1673C1003.39 1678.21 1004.66 1688.91 996.97 1689.53C965.699 1692.05 968.605 1662.59 970.355 1644C970.758 1639.73 964.723 1620.24 972.199 1620.11M1965 1627L1965 1635C1962.15 1631.91 1962.19 1630.11 1965 1627M1597 1631C1594.88 1640.59 1585.72 1671.4 1576.68 1675.84C1556.32 1685.84 1546.15 1687.21 1534.48 1668C1532.09 1664.06 1527.28 1658.18 1528.56 1653.24C1529.93 1647.96 1539.56 1645.8 1544 1644.23C1560.59 1638.38 1579.47 1632.66 1597 1631M206 1649C201.141 1648.36 196.859 1648.36 192 1649C193.474 1630.66 201.116 1632.83 206 1649M867 1632.67C839.968 1637.53 812.946 1701.34 857 1694.72C871.472 1692.54 896.957 1670.23 898.587 1655C899.584 1645.69 875.447 1631.15 867 1632.67M877 1640C867.479 1640.61 860.751 1646.12 852 1649C856.029 1641.51 869.835 1630.07 877 1640M1956 1644C1954.27 1641.59 1953.34 1639.94 1953 1637C1956.28 1638.85 1959.91 1641.68 1957.29 1645.78C1945.84 1663.7 1922.2 1676.24 1908.94 1694C1906.7 1697 1897.71 1713.76 1894.1 1713.21C1886.83 1712.12 1901.78 1694.68 1903.51 1692.68C1915.97 1678.21 1934.81 1644.24 1956 1644M539 1641C541.679 1649.56 545.658 1677.97 531 1671C536.083 1661.64 533.899 1649.85 539 1641M195 1642C196.388 1643.74 196.762 1643.85 199 1644C197.457 1642.73 196.952 1642.51 195 1642M877 1643.58C914.332 1644.4 872.751 1691.04 853 1690.6C842.543 1690.37 835.268 1676.97 839.614 1667.68C845.201 1655.73 863.485 1643.28 877 1643.58M1963 1648C1957.02 1664.81 1927.72 1684.11 1915.32 1697.92C1910.6 1703.18 1906.41 1713.25 1900 1716C1903.08 1694.4 1942.71 1654.48 1963 1648M208 1655C199.543 1658 193.47 1665.49 185 1668C186.413 1658.77 198.746 1644.87 208 1655M1941 1676C1945.92 1686.35 1950.7 1697.91 1960 1705C1959.98 1691.32 1959.55 1679.6 1962.1 1666C1962.56 1663.54 1963.26 1653.86 1966.34 1653.32C1970.1 1652.67 1972.7 1660.56 1973.92 1662.99C1979.56 1674.13 1987.24 1684.08 1997 1691.87C1999.2 1693.62 2007.11 1697.52 2005.46 1701.21C1998.24 1717.31 1944.88 1730.19 1930 1724.61C1926.61 1723.34 1908.15 1717.96 1907.95 1714.93C1907.48 1707.4 1921.26 1695.41 1926.06 1690.56C1930.93 1685.64 1935.15 1679.79 1941 1676M185 1654C184.116 1658.15 180.539 1674 175.078 1674C170.688 1674 168.458 1661.49 169.865 1658.46C171.909 1654.06 180.905 1654.25 185 1654M511 1663C504.583 1666.71 488.069 1662.64 486 1655C494.202 1656.58 503.197 1659.96 511 1663M127 1657C152.247 1659.35 140.715 1670.93 127 1657M169 1677C163.172 1675.19 147.926 1671.43 147.49 1663.89C147.118 1657.44 158.311 1655.97 162.577 1658.46C167.091 1661.1 168.444 1672.21 169 1677M1960 1659C1958.31 1671.98 1956 1683.73 1956 1697C1940.18 1685.02 1942.91 1667.08 1960 1659M208.802 1662.16C223.122 1662.17 207.697 1690.33 196.866 1690.48C166.658 1690.87 192.319 1662.15 208.802 1662.16M1978 1661C1989.98 1667 2000.07 1674.94 2013 1679.33C2015.49 1680.17 2024.36 1681.44 2024.36 1684.98C2024.36 1690.85 2011.72 1696.67 2006.99 1694.43C1996.06 1689.24 1980.43 1673.15 1978 1661M546 1666C549.793 1676.33 541.556 1674.83 546 1666M165 1682C160.709 1683.88 152.068 1691.67 147.542 1690.72C143.692 1689.91 146.189 1678.57 147.604 1676.37C151.148 1670.87 162.45 1678.36 165 1682M544 1679C555.575 1679.85 548.155 1693.36 544 1679M1578 1680C1574.72 1690.69 1570.46 1710.5 1562 1718C1559.55 1711.43 1547.4 1697.55 1549.22 1690.74C1550.66 1685.37 1572.93 1680.87 1578 1680M217 1681C217.286 1688.96 221.615 1697.24 220 1705C213.49 1701.75 207.591 1697.64 202 1693C206.326 1688.23 210.956 1683.42 217 1681M151 1731C139.334 1721.38 141.337 1701.28 154.001 1693.07C156.84 1691.23 167.262 1682.54 170.732 1685.39C173.762 1687.87 169.94 1694.55 168.661 1697C162.725 1708.35 156.447 1719.39 151 1731M1534 1684L1533 1688C1534.79 1686.68 1535.25 1686.09 1536 1684L1534 1684M177 1687C202.233 1695.6 180.933 1712.68 177 1687M1247 1687C1254.15 1691.69 1260.03 1698.01 1260 1707C1254.12 1703.49 1246.17 1694.3 1247 1687M174 1695C179.452 1711.35 169.368 1725.66 154 1734C157.959 1722.52 165.627 1703.74 174 1695M195 1753C193.3 1741.75 182.76 1720.61 185.544 1710.22C191.101 1689.47 221.657 1703.63 224.54 1718.08C226.849 1729.66 203.273 1746.82 195 1753M2016 1701C2013.67 1703.89 2011.64 1704.41 2008 1704C2010.65 1701.55 2012.39 1700.74 2016 1701M138.735 1702.06C143.794 1701.08 142.186 1716.13 139.219 1717.24C132.728 1719.66 127.652 1704.2 138.735 1702.06M180 1713C184.568 1727.16 190.091 1742.21 192 1757C185.252 1755.81 158.521 1744.29 159.316 1735.98C160.007 1728.75 174.491 1717.13 180 1713M1980 1721C1971.31 1728.49 1961.07 1729.99 1950 1730C1956.91 1724.78 1971.4 1721.69 1980 1721M1921 1725C1917.53 1725.63 1915.25 1724.69 1913 1722C1915.85 1722.74 1918.36 1723.69 1921 1725M139 1750C136.798 1719.45 157.313 1739.36 139 1750M1565 1732C1566.63 1737.38 1567.14 1741.27 1561 1743C1561.77 1739.04 1562.71 1735.34 1565 1732M1565.81 1746.11C1574.27 1745.95 1577.74 1788.02 1566.79 1789.21C1553.64 1790.65 1552.56 1746.34 1565.81 1746.11M870 1817L867 1811C872.095 1814.63 875.628 1816.9 882 1817C861.452 1795.39 857.33 1787.36 865 1759C861.165 1761.21 849.842 1769.01 848.686 1773.2C846.376 1781.56 861.759 1815.83 870 1817M449 1768L450 1769L449 1768M904 1817C922.36 1817 924.916 1805.77 933.897 1792C936.081 1788.65 943.129 1779.94 939.173 1775.89C935.427 1772.06 930.78 1780.67 929.221 1782.98C921.402 1794.58 910.336 1804.54 904 1817M854 1775C855.16 1776.99 855.233 1777.69 855 1780C853.765 1778.04 853.5 1777.26 854 1775M921 1802L919 1805L921 1802M137 1951L139 1940C114.529 1966.91 85.2553 1988.16 55 2010.43C49.5952 2014.41 29.6797 2034.95 24 2027C18.5601 2031.31 25.8096 2036.19 29 2040L25 2039C24.2619 2043.68 14.7632 2053.03 18.5551 2057.97C20.6595 2060.72 29.4109 2052.34 33.6585 2054.17C40.1132 2056.97 58.1877 2083.76 58.679 2090.56C59.4098 2100.68 48.3231 2114.63 44.8067 2124C40.8216 2134.61 33.7255 2149.27 34.5383 2160.82C34.8696 2165.53 38.8201 2168.77 39 2174C45.7041 2169.32 47.0516 2159.67 53 2154C53.146 2159.02 47.6718 2169.83 54 2171C52.167 2161.76 64.5016 2167.03 66 2160C49.974 2157.85 75.4926 2113.96 76 2103C92.4474 2115.3 101.121 2136.1 117.136 2149.5C126.504 2157.33 145.873 2155.05 130 2146L132 2152C117.403 2147.52 100.245 2129.84 94 2116C100.857 2119.94 123.351 2149.75 131.897 2139.89C134.509 2136.88 126.014 2126.87 123.802 2124.88C110.657 2113.07 91.2998 2103 86.7958 2084.08C84.9317 2076.25 96.3752 2059.15 99.6647 2052C112.282 2024.58 123.605 1973.12 152 1958C149.166 1969.07 148.557 1981.38 144.205 1992C140.454 2001.15 132.701 2008.56 130 2018C133.092 2017.6 135.993 2016.82 139 2016C137.351 2042.87 120.799 2068.94 130.296 2097C132.25 2102.77 132.793 2111.44 138 2115C138 2098 143.346 2083.58 145.802 2067C146.969 2059.12 145.695 2047.04 149.26 2040.01C151.201 2036.18 168.511 2021.68 172.635 2025.85C176.648 2029.9 177.476 2043.41 178.875 2049C183.78 2068.62 189.971 2108.11 209 2119C200.109 2095.32 190.721 2073.79 183.858 2049C181.864 2041.8 175.628 2027.51 177.998 2020.22C180.174 2013.52 194.588 2005.31 200 2000.76C207.857 1994.14 216.042 1985.35 227 1986C226.3 1982.84 228.778 1974.75 233.551 1977.3C246.959 1984.49 242.413 2009.99 234 2017L235 2018C251.58 2007.46 257.364 2050.67 265.494 2064C268.758 2069.35 277.867 2084.56 285 2076C273.37 2074.26 269.352 2063.52 264.629 2054C253.194 2030.95 246.788 2004.45 239 1980C251.415 1991.29 258.146 2021.89 262.024 2038C262.706 2040.84 266.828 2056.34 271.652 2054.24C274.836 2052.85 269.201 2044.08 268.57 2042C265.486 2031.81 256.707 2015.47 257.302 2005.04C257.896 1994.62 284.283 1975.78 293 1971C293.254 1984.36 294.017 2007.1 304 2017C310.611 1999.97 285.912 1972.47 301 1957C302.376 1963.48 300.023 1975.13 303 1980C303.97 1978.4 304.72 1977.34 306 1976C307.005 1980.65 307.261 1985.38 308.439 1990C309.285 1993.32 309.959 1996.65 310.686 2000C317.992 2033.63 318.222 1976.17 321.501 1974.67C327.985 1971.7 343.42 1988.14 350 1991C347.975 1975.4 322.075 1975.7 320.222 1963.89C317.116 1944.1 347.733 1936.05 350 1919C340.905 1926.57 332.93 1935.32 324 1943C325.268 1927.22 335.37 1914.63 340 1900C317.076 1910.22 327.932 1949.68 306 1963C305.64 1947.36 307.888 1927.52 303.55 1912.35C296.648 1888.23 263.804 1857.11 237.019 1866.91C219.943 1873.16 214.383 1899.37 204.16 1910.19C197.917 1916.79 183.212 1918.99 175.258 1923.33C161.234 1930.98 150.536 1940.95 137 1951M235 1895C216.557 1897.16 225.249 1878.28 235.003 1872.12C253.471 1860.46 276.349 1879.85 286.999 1894C289.293 1897.05 301.623 1912 297.074 1915.99C294.235 1918.48 290.939 1912.5 288.995 1914.32C283.719 1919.26 282.085 1932.69 270 1931.82C250.437 1930.42 213.989 1915.29 235 1895M474 1889L481 1883C478.56 1901.42 468.728 1943.59 495 1948C490.996 1953.53 482.744 1952.9 479.53 1959.41C470.931 1976.82 472.933 2005.31 499 2003.26C509.107 2002.46 513.95 1994.69 522 1990C522 2020.74 514.425 2044.56 493.886 2068C479.238 2084.72 466.814 2094.28 452.054 2072C440.76 2054.95 453.305 2044.97 462.803 2030C467.675 2022.32 473.166 2011.82 463 2006C466.599 2021.98 452.833 2043.3 441 2054C438.951 2039.31 434.889 2025 432.731 2010C432.488 2008.32 429.139 1999.69 426.936 2004.57C417.814 2024.79 440.933 2043.06 437.891 2060C434.602 2078.32 414.432 2092.89 411.471 2112C410.207 2120.15 419.344 2124.52 426 2126C424.073 2121.44 417.311 2120.05 416.181 2115.66C412.628 2101.85 434.845 2075.53 441 2064C446.057 2071.64 453.301 2089.58 462.195 2092.98C481.366 2100.29 510.096 2061.15 516.05 2047C531.184 2011.03 520.855 1983.79 518.024 1948C516.959 1934.53 522.134 1917.74 521.546 1903C520.55 1878.01 484.001 1857.74 474 1889M1911 1876C1911.99 1882.09 1915.32 1885.72 1921 1888C1918.9 1882.68 1916.57 1878.07 1911 1876M516 1897C508.993 1894.08 505.571 1886.78 497 1886.56C494.119 1886.48 486.301 1891.92 484.417 1889.9C480.618 1885.84 488.927 1879.73 492.021 1878.93C503.147 1876.06 514.422 1886.63 516 1897M1904 1887C1905.63 1893.79 1914.53 1901.8 1920 1906C1919.12 1897.35 1911.24 1890.87 1904 1887M493.052 1891.82C500.555 1888.78 518.797 1899.93 506.929 1904.68C497.823 1908.32 478.358 1897.79 493.052 1891.82M1205 1981C1219.87 1971.26 1231.72 1933.64 1237.44 1917C1238.42 1914.15 1247.26 1897.74 1243.34 1896.11C1239.42 1894.47 1234.97 1912.37 1233.85 1915C1225.25 1935.32 1208.03 1959.26 1205 1981M222 1897C216.591 1910.77 206.089 1899.23 222 1897M1234 1965C1239.85 1964.3 1243.43 1955.57 1246.54 1951C1255.95 1937.22 1273.64 1913.43 1276 1897C1269.5 1899.72 1265.84 1909.15 1262.39 1915C1252.71 1931.4 1242.47 1947.95 1234 1965M1172 2010C1195.66 1996.9 1215.24 1981.35 1242 1974.36C1248.46 1972.67 1268.38 1962.56 1267 1975C1272.77 1969.1 1275.62 1966.11 1284 1965C1284.32 1973.02 1284.95 1998 1291 2003C1291 1988.73 1291.06 1975.02 1288 1961C1273.39 1964.57 1283.67 1951.18 1287.56 1945C1296 1931.62 1316.05 1913.61 1318 1898C1295.06 1911.28 1291.13 1947.17 1270.68 1962.18C1265.98 1965.63 1257.57 1964.44 1252 1966.29C1229.28 1973.83 1182.04 1985.38 1172 2010M1918 1910C1921.76 1922.29 1932.01 1937.22 1939.27 1948C1942.15 1952.27 1949.5 1958.49 1949.29 1964C1947.81 2002.05 1884.87 2000.28 1880.25 2033C1878.11 2048.21 1900.35 2050.41 1901.12 2062.08C1901.69 2070.84 1893.92 2083.69 1891.11 2092C1885.23 2109.39 1881.76 2128.05 1877.99 2146C1876.44 2153.4 1874.83 2185.37 1886 2165L1878 2168C1888.17 2122.54 1897.42 2078.62 1917.33 2036C1926.37 2016.64 1932.01 1998.82 1951 1988C1956.27 2000.45 1971.42 2014.58 1972.58 2028C1975.21 2058.4 1959.87 2098.15 1974 2127C1976.93 2117.83 1974 2104.69 1974 2095C1974 2074.28 1976 2053.69 1976 2033C2006.17 2061.64 2024.9 2111.45 2048.22 2146C2054.34 2155.07 2063.09 2179.06 2073 2183C2052.95 2119.71 1978 2069.72 1978 2002C2001.74 2022.91 2014.13 2060.78 2029.12 2088C2030.89 2091.21 2042.6 2116.05 2045.19 2114.46C2050.15 2111.4 2042.56 2101.09 2040.92 2098.04C2032.53 2082.44 2020.39 2067.01 2015 2050C2053.91 2058.27 2103.25 2033.46 2142 2026.19C2152.28 2024.26 2176.99 2025.93 2184 2018C2140.66 2023.75 2098.99 2029.16 2057 2042.36C2047.63 2045.3 2021.53 2052.91 2014 2042.56C2011.16 2038.66 2026 2028.2 2028.56 2025.82C2041.8 2013.53 2070.73 1995.66 2074.97 1977.04C2076.97 1968.27 2059.59 1966.34 2054 1965.69C2028.54 1962.7 2005.84 1969.2 1981 1972C1984.64 1953.42 1986.09 1934.27 1991.17 1916C1991.66 1914.23 1997.72 1898.4 1993.98 1899.76C1983.71 1903.51 1970.11 1933.57 1964.19 1943C1962.27 1946.05 1957.17 1957.36 1953.05 1957.36C1949.1 1957.36 1944.79 1948.61 1942.83 1945.78C1935.42 1935.07 1929.23 1916.99 1918 1910M957 1972C944.741 1980.39 950.145 1953.83 951.266 1948C953.85 1934.57 959.949 1913.44 973.008 1906.48C985.909 1899.61 1010.49 1911.28 1011 1926C1026.2 1909.62 983.28 1895.59 971.008 1902.03C954.075 1910.92 937.266 1956.7 945.159 1974.86C948.916 1983.51 955.933 1979.75 957 1972M512.891 1906.1C516.002 1905.19 515.979 1910.12 513.473 1910.9C510.144 1911.93 509.899 1906.98 512.891 1906.1M220.509 1909.04C224.929 1909.97 222.056 1917.74 217.266 1916.43C212.333 1915.08 216.782 1908.26 220.509 1909.04M489.424 1910.15C498.144 1907.05 518.184 1914.63 500.999 1920.62C493.063 1923.39 479.07 1913.82 489.424 1910.15M518 1913L518 1918C517.369 1915.99 517.369 1915.01 518 1913M514 1914C513.02 1915.78 513.092 1915.59 511 1916L514 1914M850 2028L851 2027C850.174 2022.14 851.619 2017.83 852 2013C827.243 2034.91 801.879 1990.36 809.684 1965C819.432 1933.33 847.459 1926 878 1926C887.363 1926 899.94 1924.78 907.981 1930.6C922.785 1941.31 923.306 1959.89 923 1976C939.92 1968.89 920.344 1939.05 915 1930C926.757 1931.99 934.758 1932.86 934 1946C941.408 1943.4 939.382 1931.71 932.982 1928.84C917.279 1921.81 887.874 1913.71 871 1915.09C825.448 1918.83 774.439 1976.1 820 2014.79C828.378 2021.9 839.635 2025.08 850 2028M1987 1915C1986.6 1926.17 1981.73 1977.83 1968.08 1976.94C1962.54 1976.58 1955.68 1966.24 1957.14 1961.04C1960.86 1947.86 1977.05 1924.26 1987 1915M207 1917C201.745 1931.63 225.653 1941.66 228.665 1958.92C229.729 1965.01 220.918 1968.99 217 1972.06C204.402 1981.94 188.654 2002.72 174 2008C171.779 1970.88 162.003 1931.88 207 1917M481 1919C492.889 1928.91 494.836 1929.55 498 1945C486.06 1943.5 477.023 1930.93 481 1919M884 1920C879.237 1922.09 874.082 1921.04 869 1921C873.494 1918.19 879.01 1918.74 884 1920M301 1936C290.019 1928.12 301 1911.93 301 1936M516 1932C503.78 1923.69 518.48 1915.83 516 1932M222 1929L224 1929L224 1922C230.357 1924.49 229.747 1929.27 228 1935C232.678 1930.92 232.635 1927.84 232 1922C237.089 1922.86 242.076 1924.36 247 1925.9C250.971 1927.15 263.752 1930.17 265.239 1934.52C266.542 1938.32 239.527 1957.54 235.342 1956.72C229.254 1955.52 225.588 1939.88 223.291 1935.04C221.736 1931.76 215.975 1927.58 217.136 1923.55C218.771 1917.86 221.942 1927.36 222 1929M212 1929C208.386 1927.53 207.504 1925.82 207 1922C210.441 1923.5 211.252 1925.39 212 1929M504.649 1926.11C511.096 1925.97 512.859 1943.36 504.409 1943.36C497.612 1943.36 497.21 1926.26 504.649 1926.11M294 1956C293.302 1945.9 289.981 1935.91 288 1926C296.078 1929.41 301.286 1949.98 294 1956M284 1931C289.468 1949.9 296.564 1968.79 275 1980C277.349 1972.86 282.93 1966.64 283.693 1959C284.741 1948.51 269.827 1936.53 284 1931M836 1936C839.57 1941.41 854.216 1937.58 858 1933C850.396 1933.03 843.459 1935.95 836 1936M249 1958C250.943 1954.84 271.907 1937.67 274.239 1942.67C276.513 1947.55 252.944 1957.58 249 1958M1039 2035C1022.09 2045.14 1021.6 2073.87 1004.91 2082.61C993.705 2088.48 986.135 2070.06 984.326 2062C978.2 2034.72 975.391 2003.91 978.32 1976C978.737 1972.03 984.141 1947.48 978.96 1946.32C975.987 1945.66 973.274 1978.13 973.078 1982C971.624 2010.71 971.872 2042.89 982.125 2069.98C986.419 2081.32 998.91 2098.38 1011.3 2084.68C1016.93 2078.46 1020.09 2069.51 1024.34 2062.32C1029.38 2053.79 1036.49 2044.58 1039 2035M258 1989L262 1990C255.158 2007.41 241.515 1978.79 241.955 1970.94C242.24 1965.85 252.291 1962.05 256 1959.79C260.125 1957.27 271.653 1946.26 276.558 1947.37C281.322 1948.45 279.852 1958.82 279.098 1962C276.542 1972.76 270.22 1987.46 258 1989M901 1946C901.378 1950.4 902.172 1954.56 902 1959L908 1954C908.511 1955.95 908.733 1956.46 910 1958C909.935 1951.97 906.847 1947.64 901 1946M512.58 1948.28C515.354 1948.96 513.56 1952.51 511.184 1952.23C507.955 1951.83 509.849 1947.6 512.58 1948.28M499 1952L499 1948C502.704 1948.98 502.704 1951.02 499 1952M164 1949L161 1954C160.628 1951.22 161.648 1950.42 164 1949M167 1952C167.553 1965.62 175.315 2000.02 170.171 2011.7C167.582 2017.58 155.458 2025.62 150 2029C147.232 2010.63 151.323 1964.33 167 1952M865 1953C869.032 1962.83 866.643 1961.11 863 1971C867.37 1969.43 869.695 1966.99 872 1963C883.698 1981.85 884.136 2012.45 886.562 2034C887.415 2041.58 888.867 2054.35 883.264 2060.52C874.206 2070.49 855.433 2063.3 846 2058.29C844.99 2057.76 835.643 2052.1 835.643 2055.39C835.643 2059.14 844.32 2062.08 847 2063.33C857.328 2068.12 876.754 2073.29 886.506 2064.26C892.417 2058.79 891.002 2046.22 891 2039C890.994 2017.6 887.298 1993.54 881.255 1973C878.507 1963.66 875.983 1953.82 865 1953M500.956 1958.77C511.586 1958.61 511.817 1979.33 499.998 1979.76C486.517 1980.26 487.528 1958.97 500.956 1958.77M319 1959C318.094 1963.22 317.428 1965.87 313 1967C313.833 1962.96 315.147 1960.64 319 1959M1963 1979C1956.04 1981.96 1948.57 1986.36 1941 1987L1945 1980L1950 1982C1948.49 1976.2 1950.69 1972.56 1952 1967C1957.21 1969.18 1960.35 1974.18 1963 1979M314 2001C313.608 1996.96 312.76 1993.01 312.146 1989C311.737 1986.32 311.323 1983.66 310.777 1981C305.879 1957.19 326.37 1990.78 314 2001M2013 1970.33C2022.53 1969.23 2064.64 1965.02 2069.46 1975.6C2071.37 1979.79 2061.63 1988.8 2058.95 1991.32C2046.82 2002.72 2034.3 2013.92 2022.86 2026C2020.16 2028.87 2013.28 2037.58 2008.87 2037.42C2004.25 2037.26 2000.2 2026.31 1998.17 2023C1990.57 2010.61 1973.24 1995.42 1980.82 1979.27C1984.35 1971.76 2005.72 1971.17 2013 1970.33M518 1973C517.074 1977.52 515.351 1980.27 511 1982C512.762 1978.28 514.839 1975.64 518 1973M123 1974C108.695 1992.86 83.2846 2005.86 65.0186 2020.82C57.0561 2027.33 48.3505 2037.79 38 2040C39.9167 2032.52 51.2339 2026.7 57 2021.93C74.701 2007.27 100.349 1979.48 123 1974M131 1975C129.308 1979.13 127.779 1982.16 123 1982C125.268 1978.64 127.176 1976.45 131 1975M480 1978L493 1996C485.252 1995.45 475.159 1985.99 480 1978M1976 1989C1965.8 1982.78 1977.32 1973.8 1976 1989M1972 2019C1967.9 2013.66 1952.75 1994.24 1955.58 1987.46C1960.06 1976.73 1970.24 1988.39 1973.01 1993C1977.28 2000.11 1974.07 2011.38 1972 2019M333 1984L334 1985L333 1984M117 1985L118 1986C116.55 1987.61 115.949 1988.06 114 1989C114.936 1987.05 115.392 1986.45 117 1985M517 1986C513.465 1991.71 507.601 1995.73 501 1997C504.627 1991.39 510.945 1988.48 517 1986M1603 1986C1603.64 1991.27 1611.11 1991.2 1611.44 1995.97C1611.6 1998.42 1598.74 2034.51 1598.5 2034.52C1584.86 2035.26 1566.47 2008.51 1552 2005C1553.04 2028.43 1555.6 2051.6 1557 2075C1552.05 2068.02 1550.26 2046.41 1542 2044C1543.24 2059.44 1551.85 2074.59 1556.28 2089.32C1562.51 2110.06 1565.25 2131.47 1572.42 2152C1575.37 2160.46 1578.19 2180.46 1588 2183C1578.81 2161.5 1569.22 2137.45 1567 2114C1585.18 2132.85 1599.08 2152.57 1622 2167C1620.66 2152.82 1603.33 2148.2 1594 2139.82C1577.82 2125.29 1562.27 2103.1 1560 2081C1565.56 2087.06 1565.78 2096.05 1573 2101C1563.84 2074.79 1562.96 2056.73 1562.86 2030.96C1562.84 2024.88 1554.41 2023.01 1556.55 2016.29C1558.08 2011.44 1565.66 2017.43 1568 2018.81C1577.37 2024.34 1592.8 2032.94 1597.73 2043C1601.09 2049.85 1597.86 2063.29 1598.02 2071C1598.38 2088.65 1600.34 2106.3 1606.36 2123C1608.62 2129.25 1627.21 2172.75 1637.05 2162.11C1636.17 2163.06 1619.72 2142.19 1617.34 2137C1603.86 2107.71 1600.09 2077.9 1602 2046C1636.07 2070.24 1659.04 2113.22 1704 2091.23C1707.84 2089.35 1715.79 2090.32 1718.59 2086.85C1722.1 2082.51 1710.3 2083.77 1709 2084C1708.64 2081.14 1708.18 2079.88 1706 2078C1699.18 2086.21 1682.12 2064.91 1677 2059.96C1652.2 2035.98 1636.56 1999.22 1603 1986M109 1992C103.037 2010.68 89.3885 2029.54 80.201 2047C78.2706 2050.67 74.6315 2062.76 70.3632 2063.89C64.1387 2065.55 47.1137 2047.48 43 2043C61.1858 2027.4 86.5038 1999.9 109 1992M1295 1993L1296 1994L1295 1993M1604 1994C1603.19 1997.29 1603.19 1999.71 1604 2003C1605.7 1999.67 1605.94 1997.24 1604 1994M193.667 1995.67C193.722 1995.72 193.778 1996.78 193.333 1996.33C193.278 1996.28 193.222 1995.22 193.667 1995.67M192 1998C191.227 1999.18 191.175 1999.23 190 2000C190.545 1998.36 190.365 1998.55 192 1998M1616.46 1999.24C1624.27 1997.5 1636.12 2016.78 1639.87 2022C1650.57 2036.84 1661.13 2052.95 1675.08 2065C1680.77 2069.91 1697.28 2079.82 1699.24 2087.09C1700.42 2091.47 1692.04 2094.67 1689 2095.67C1665.31 2103.5 1636.95 2072.31 1622.08 2058.15C1616.63 2052.96 1608.02 2047.69 1604.7 2040.78C1601.83 2034.81 1609.3 2000.83 1616.46 1999.24M1931 1999C1925.37 2013.48 1916.48 2026.61 1910.62 2041C1909.26 2044.33 1907.73 2054.9 1903.44 2055.7C1895.67 2057.13 1879.8 2038.53 1883.98 2031C1891.57 2017.32 1916.1 2002.56 1931 1999M112 2002C110.999 2003.92 110.922 2004.1 109 2005C109.899 2002.88 109.876 2002.9 112 2002M188 2002C186.773 2004.01 186.009 2004.77 184 2006C185.33 2004.25 186.247 2003.33 188 2002M141 2008C140.625 2011.28 140.193 2012.88 137 2014C137.683 2010.96 138.408 2009.73 141 2008M177.667 2010.67C177.722 2010.72 177.778 2011.78 177.333 2011.33C177.278 2011.28 177.222 2010.22 177.667 2010.67M1169 2018C1177.46 2022.87 1191.65 2019.79 1201 2019.14C1222.92 2017.6 1244.11 2017.61 1266 2019.14C1275.13 2019.77 1288.73 2022.76 1297 2018C1259.81 2008.59 1206.21 2008.95 1169 2018M147 2015C148.822 2022.46 148.858 2032.96 140 2035L145 2015L147 2015M172 2016C170.32 2017.63 170.291 2017.69 168 2018C169.543 2016.73 170.048 2016.51 172 2016M100 2018C98.3151 2032.49 86.0229 2063.25 74 2072C75.2572 2057.1 89.1961 2028.4 100 2018M108 2023C104.261 2035.51 94.8921 2064.7 84 2072C90.3716 2055.12 98.5951 2039.39 106 2023L108 2023M25 2026L28 2027L25 2026M923 2137C923 2125.64 919.634 2113.1 922 2102C922.942 2105 924.476 2122.53 928.821 2121.68C932.865 2120.89 929.185 2107.69 928.904 2105C926.935 2086.14 926 2068 926 2049C926 2045.51 928.043 2029 922.295 2029C917.726 2029 920.513 2051.66 920.463 2055C920.152 2075.38 915.475 2095.62 916.97 2116C917.447 2122.5 917.534 2132.72 923 2137M135 2091C135.051 2078.24 137.09 2065.68 137.93 2053C138.129 2050.01 138.466 2041.49 143.51 2042.32C147.107 2042.92 144.452 2051.81 144.201 2054C143.056 2064 143.094 2084.06 135 2091M36 2042C34.0766 2044.82 32.2171 2045.89 29 2047C30.4851 2043.48 32.287 2042.62 36 2042M42 2054C39.2102 2052.05 38.0517 2050.23 37 2047C40.6144 2048.47 41.4961 2050.18 42 2054M49 2053C51.9302 2054.81 54.4931 2056.92 57.0415 2059.24C80.8954 2080.96 48.7568 2070.62 49 2053M44 2059C51.6496 2062.9 61.3794 2075.88 64 2084C57.024 2082.27 43.8895 2066.36 44 2059M25 2069C27.9121 2070.06 30.9493 2070.45 34 2071C33.0225 2066.44 28.6254 2068.62 25 2069M73 2075C72.6212 2078 72.2214 2079.91 70 2082C69.7721 2079.27 70.0777 2077.58 71 2075L73 2075M68 2087L68 2090C66.2032 2090 66.4785 2089.99 65 2089L68 2087M83 2089C85.2845 2091.16 86.6416 2093.16 88 2096C84.6159 2094.51 82.5101 2092.9 83 2089M98 2113C90.6451 2109.14 82.2358 2103.96 79 2096C86.8421 2098.64 94.151 2105.77 98 2113M73 2099C71.7964 2106.4 68.4004 2119.82 61 2123C63.2073 2115.81 65.5789 2102.21 73 2099M112 2119C115.884 2122.61 119.334 2125.87 121 2131C116.478 2128.23 113.925 2124.34 111 2120L112 2119M843.571 2120.34C840.829 2121.13 862.975 2138.61 866 2141.32C886.903 2160.05 903.537 2192.52 936.997 2181.75C944.642 2179.29 970.081 2155 967.686 2154.98C946.605 2154.76 939.107 2187.34 912 2176.73C893.848 2169.63 878.398 2145.72 864 2132.79C859.996 2129.2 849.838 2118.53 843.571 2120.34M56 2131C56.7413 2140.16 49.7383 2156.12 41 2160C44.6553 2150.34 48.993 2138.73 56 2131M45 2137C44.633 2142.2 42.52 2152.39 37 2154C38.761 2147.82 40.3121 2141.6 45 2137M61 2139C59.3648 2138.45 59.5451 2138.64 59 2137C60.1755 2137.77 60.2268 2137.82 61 2139z"/>
</svg>
