<?xml version="1.0" standalone="yes"?>
<svg xmlns="http://www.w3.org/2000/svg" width="2200" height="2200">
<path style="fill:#0d0d0d; stroke:none;" d="M1981 81C1980.22 87.02 1971.14 95.5376 1964.85 90.1353C1955.07 81.7263 1958.07 62.1204 1944 57C1946.14 67.583 1961.03 80.4258 1958.58 91.7571C1957.4 97.2339 1946.4 98.1401 1942 99.0044C1925.63 102.222 1907.7 99.5027 1892 105C1898.68 113.256 1934.8 104.692 1945 102.715C1950.34 101.679 1959.84 96.5752 1963.26 103.155C1978.07 131.615 1943.23 136.748 1923 148.002C1920.02 149.659 1897.26 160.399 1899.41 163.021C1902.97 167.375 1915.54 158.546 1919 156.663C1928.06 151.739 1960.22 127.625 1970.36 132.109C1974.18 133.796 1974.64 143.456 1975.44 147C1976.17 150.268 1978.37 155.015 1977.48 158.364C1976.2 163.164 1965.11 165.754 1961 167.281C1948.63 171.876 1905.8 181.391 1908 199C1920.12 186.422 1958.41 164.796 1976.72 166.881C1983.26 167.627 1987.5 208.364 1984.7 213.855C1973.95 234.972 1933.5 233.505 1917 248C1931.61 250.755 1954.27 237.397 1967 230.988C1970.17 229.395 1981.55 220.691 1984.74 223.906C1990.2 229.408 1986 247.943 1986 255C1986 282.513 1984.68 341.655 1948 344L1948 346C1991.85 345.995 1989.83 278.498 1990 247C1990.06 235.818 1987.31 205.238 2008.48 210.02C2014.03 211.273 2017.84 229.209 2019.86 234C2027.58 252.299 2036.53 283.73 2056 292.753C2073.76 300.979 2106.27 289.924 2113 271C2102.98 276.508 2094.18 284.854 2083 288.259C2050.68 298.105 2037.23 263.388 2028.39 239C2026 232.407 2013.13 213.319 2016.53 206.695C2023.39 193.297 2062.81 183.788 2076 177C2055.21 172.672 2035 200.725 2015.35 199.241C2009.86 198.827 2000.08 163.177 2003.9 159.104C2014.1 148.238 2042.56 151.204 2056 147C2039.41 141.378 2016.16 158.169 2001.72 152.158C1996.99 150.19 1989.41 125.55 1993.54 122.365C2008.69 110.7 2026.65 125.629 2038 134C2031.5 104.79 2005.06 124.03 1990.78 114.703C1985.93 111.531 1987.26 97.2405 1985 92C2039.51 73.0701 2086.28 39.6902 2139 18C2128.07 14.5989 2107.45 30.0259 2098 35.3928C2073.8 49.1375 2047.59 58.9231 2023 71.7576C2010.36 78.3511 1994.37 86.4507 1981 81M1535 247C1535.97 230.852 1538.58 217.022 1544.85 202C1545.81 199.681 1549.86 187.427 1553.56 189.434C1558.95 192.348 1551.83 204.838 1551.01 209.001C1546.9 229.736 1542.41 249.282 1525 264C1525.45 259.991 1527.52 256.715 1529 253C1522.31 255.826 1522.11 264.658 1523 271C1535.99 265.274 1539.3 248.469 1550 240C1550.32 257 1556.15 285.049 1574 292.048C1581.19 294.87 1591.69 289.242 1597.32 292.415C1602.02 295.064 1604.06 301.801 1609.01 304.852C1621.46 312.527 1641.17 306.318 1650.11 295.795C1663.11 280.489 1640.22 275.596 1640.3 263C1640.33 256.719 1648.38 247.892 1650.95 242C1655.88 230.705 1658.3 216.298 1657.96 204C1657.63 192.343 1654.92 181.582 1650.07 171C1648.34 167.214 1641.99 159.69 1642.98 155.499C1644.96 147.162 1668.75 140.248 1676 138.247C1677.85 137.735 1687.33 137.293 1686.68 134.136C1685.4 127.947 1663.25 137.494 1660 138.802C1652.48 141.834 1644.25 148.697 1636 149.124C1629.92 149.439 1624.76 143.993 1619 142.588C1604.38 139.021 1589.93 144.829 1577.99 152.708C1573.17 155.893 1553.57 179.154 1550.44 174.704C1530.46 146.284 1530.56 103.322 1557.04 79.3394C1566.72 70.5735 1606.43 38.8594 1619.89 47.8242C1627.56 52.9287 1626.84 66.8279 1627 75L1629 75C1629.65 64.3301 1632.7 47.6846 1619.77 42.0659C1611.62 38.5208 1601.74 45.5125 1594.98 49.3262C1574.2 61.0505 1553.14 72.8416 1540.62 94C1529.31 113.108 1528.4 134.247 1536.19 155C1539.09 162.722 1549.36 175.937 1548.45 184C1546.78 198.852 1518.11 232.019 1535 247M1977.85 93.5486C1984.16 93.2861 1990.92 121.702 1977.26 121.354C1969.15 121.147 1961.15 94.2441 1977.85 93.5486M1230 188C1237.87 179.496 1245.7 140.408 1259.14 139.683C1266.8 139.27 1260.28 147.759 1258.72 150.041C1251.03 161.296 1243.35 173.83 1239.46 187C1234.04 205.35 1242.93 222.043 1239.64 239C1236.98 252.732 1205.35 270.971 1193 275C1194.02 270.063 1210.17 248.492 1210.24 248.629C1208.47 245.013 1201.46 250.966 1200.1 252.247C1194.91 257.139 1187.98 268.339 1188.54 275.85C1189.1 283.198 1200.76 277.342 1204 275.54C1218.32 267.561 1229.14 254.444 1243 246C1244.28 251.51 1246.85 257.332 1250.08 261.992C1280.61 305.938 1328.31 247.116 1348 224C1354.87 238.012 1363.17 251.357 1368.68 266C1370.65 271.246 1371.19 280.964 1377 283C1376.14 261.542 1351.1 238.201 1352.61 219C1354.09 200.301 1368.88 180.2 1371.54 160C1372.54 152.44 1366.53 140.359 1369.97 134.019C1376.05 122.788 1397.76 118.719 1400.25 104.963C1402.21 94.1606 1385.71 95.7625 1380 98C1383.7 99.4375 1392.89 99.7783 1394.24 104.324C1395.61 108.963 1371.19 127.504 1366.36 127.875C1362.09 128.204 1344.52 108.64 1340 105C1352.78 102.139 1366.86 102.111 1379 97C1365.9 92.5635 1349.1 100.954 1336 102.631C1321.98 104.425 1309.32 99.3989 1295.02 104.85C1273.56 113.033 1252.39 127.402 1229 117.24C1223.25 114.743 1185.82 103.325 1183.15 112.499C1181.15 119.35 1194.05 125.638 1199 126.819C1214.3 130.47 1242.41 119.578 1252.92 135.666C1255.22 139.196 1248.51 146.166 1246.72 149C1239.31 160.742 1232.38 174.191 1230 188M475 104C479.235 115.185 496.674 118.656 507 121.992C509.48 122.793 519.395 123.375 519.919 126.364C520.721 130.948 498.28 132.415 493.524 137.458C478.514 153.371 482.297 175.88 476.625 195C474.597 201.836 472.457 214.278 479 219C477.721 211.201 475.89 201.777 481 195C483.065 204.602 492.071 237.415 488.372 245.58C483.002 257.436 456.663 255.873 447 254C451.169 270.193 484.053 245.699 490.925 251.043C502.76 260.248 504.148 276.273 520 283.941C567.818 307.071 610.138 264.35 616.639 218C619.227 199.545 612.538 173.917 617.927 157.007C620.929 147.588 633.928 135.004 641 128C629.261 116.427 611.597 125.95 596 122.635C585.488 120.401 578.211 108.886 567 107.236C549.156 104.609 539.208 120.783 524 121.341C506.737 121.974 490.732 108.472 475 104M831 287C829.136 282.472 824 280.671 822.542 275.951C819.118 264.867 831.706 256.951 835 248C847.06 259.023 850.426 272.252 867 279.827C875.485 283.704 892.613 278.8 898.5 284.37C916.166 301.08 925.719 346.446 954 350C940.894 333.298 926.467 318.87 914.621 301C911.382 296.114 903.698 287.49 903.859 281.317C903.99 276.289 920.101 270.208 924 267.419C939.183 256.558 956.273 241.01 962.858 223C968.589 207.327 959.893 188.254 964.661 175.085C967.543 167.125 985.201 163.639 981.605 153C977.358 140.431 959.89 129.796 949 123.573C915.847 104.626 873.626 92.875 840.008 119.601C822.176 133.778 836.908 153.475 838.385 171C839.311 181.989 827.935 195.804 827.139 208C826.352 220.062 835.603 229.934 835.229 240.981C834.903 250.627 820.104 259.329 817.677 270C815.253 280.657 821.309 284.861 831 287M1299 107C1296.65 110.351 1293.96 111.272 1290 112C1292.4 108.778 1295.11 107.754 1299 107M1272 139C1281.82 130.014 1306.61 99.9197 1323.54 110.301C1327.22 112.554 1329.12 119.592 1332 123C1331.52 119.417 1327.57 111.938 1330.08 108.83C1336.67 100.682 1360.41 125.015 1360.76 131.921C1361.04 137.513 1348.92 144.454 1344.99 147.563C1324.75 163.572 1289.73 155.737 1272 139M845 170C840.865 166.766 840.379 160.839 838.89 156C830.483 128.665 844.964 120.135 869 111.295C897.869 100.677 924.667 114.446 949.04 128.62C963.482 137.019 989.973 155.48 964.066 167.829C959.114 170.19 943.959 151.956 938 148.92C912.005 135.677 855.125 131.393 845 170M586 124C583.876 123.823 568.446 123.183 570.081 128.228C570.493 129.499 586.57 126.38 588.997 127.404C596.133 130.411 605.99 144.201 609.064 151.217C612.968 160.122 599.61 167.409 593.993 171.757C584.963 178.747 575.025 193.947 563.783 197.157C554.296 199.866 546.65 193.933 536 199L534 193C535.648 191.627 535.749 191.17 536 189L532 191C532 178.134 529.907 143.435 543.223 136.324C547.886 133.834 571.248 137.69 569.53 140.118C572.749 135.567 558.679 130.342 556 130L564 124C553.533 124.199 543.354 125.625 533 123C548.831 113.277 573.382 103.78 586 124M1226 124C1214.2 123.982 1193.92 125.471 1187 114C1197.16 114.193 1219.75 115.108 1226 124M1289 117C1284.59 122.91 1268.04 145.475 1262 132C1271.48 126.953 1276.99 116.326 1289 117M168 118C167.16 121.36 167.31 128.497 164.866 130.961C162.341 133.507 155.454 132.232 152 133.857C140.766 139.144 123.78 148.258 112 150.642C105.716 151.914 88.1218 149.696 84.1869 155.821C80.1186 162.155 106.561 175.741 106.354 184C105.478 218.992 98.8784 245.318 108.245 281C112.353 296.651 120.82 314.161 139 315.844C154.196 317.251 168.762 308.542 181 300.451C185.524 297.459 193.256 288.426 198.845 288.6C203.503 288.745 209.101 297.092 214 299C195.061 272.907 230.673 258.659 237.216 232C240.192 219.876 234.912 211.193 232.354 200.007C230.719 192.859 240.804 190.302 239.031 183.923C236.446 174.626 224.221 172.783 217.001 169.078C206.951 163.921 198.396 154.685 188.573 148.661C183.144 145.332 181.502 134.647 175.997 133.106C174.744 132.755 163.229 140.018 158 140C164.391 131.786 173.184 133.303 168 118M1335 122L1340 123C1339.04 119.404 1337.41 119.369 1335 122M1269 121C1264.14 132.778 1254.09 132.923 1246 124C1253.97 123.988 1261.16 121.542 1269 121M491 123C491.626 125.791 492.209 126.375 495 127C493.773 124.991 493.008 124.227 491 123M1987 124C1987.41 129.208 1989.22 133.963 1990.5 139C2001.06 180.749 1959.6 130.803 1987 124M546 128C542.771 132.425 537.273 134.027 534.468 139.021C527.538 151.36 529.471 166.768 526 180C520.323 171.843 517.378 158.601 509 153C513.654 169.433 543.621 202.848 533.733 220.761C527.807 231.497 505.568 240.234 495 246C477.219 202.073 489.311 127.916 546 128M597 127C601.864 127.002 631.841 126.077 633.459 128.872C635.525 132.44 619.517 149.357 615.682 149.357C609.242 149.357 598.886 132.368 597 127M484 174C484.54 161.96 490.001 143.256 501 137L501 143L503 143C503.149 140.098 508.712 130.433 509.682 137.369C510.518 143.345 489.187 170.254 484 174M176 138C176.622 140.395 176.902 142.526 177 145C174.502 142.723 174.46 140.953 176 138M1349 216C1342.61 209.443 1317.64 185.618 1317.64 177.155C1317.64 169.522 1345.95 151.534 1352.04 146.14C1354.38 144.066 1360.37 137.213 1364 139.407C1368.49 142.123 1368.06 154.491 1367.98 159C1367.62 179.772 1356.55 197.368 1349 216M156 141.817C166.916 142.032 173.241 157.283 161.893 156.917C157.842 156.787 138.586 154.457 136.106 151.821C130.477 145.838 153.191 141.761 156 141.817M1270.18 144.856C1274.31 144.921 1287.36 154.202 1287.36 158.661C1287.36 163.218 1273.51 167.662 1271.15 173.019C1262.39 192.839 1272.66 209.66 1255.16 226.137C1253.01 228.157 1248.44 235.252 1245.13 235.038C1241.09 234.777 1240.02 215.314 1240 212C1239.89 192.829 1247.75 175.075 1257.76 159.041C1260.11 155.272 1264.96 144.773 1270.18 144.856M134 144C130.697 149.625 126.422 151.805 120 152C123.137 147.011 128.556 145.583 134 144M927 190C925.877 171.706 895.001 135.962 877.647 160.1C872.824 166.809 878 193.726 878 203C878 207.227 879.203 224.738 870.449 222.239C862.823 220.062 847.289 183.357 848.325 176C850.159 162.979 857.419 154.596 868 162C867.288 119.876 990.948 154.48 940 183.86C935.741 186.316 931.815 188.849 927 190M175.03 147.426C179.386 146.878 181.518 158.319 176.708 158.708C169.155 159.319 168.808 148.208 175.03 147.426M1631 152C1626.52 158.459 1617.11 161.345 1611 166.274C1601.83 173.669 1595.68 183.886 1586.97 192.007C1583.83 194.934 1577.03 204.973 1572.15 203.779C1550.97 198.604 1566.43 174.002 1582 174C1572.15 164.861 1556.64 184.486 1556.45 184.207C1553.54 179.957 1567.62 167.075 1570.11 164.491C1586.51 147.486 1609.62 143.725 1631 152M1252 150C1251.01 151.479 1251 151.203 1251 153C1252.29 151.557 1252.4 151.766 1252 150M203 165C192.969 162.775 185.078 162.289 184 151C190.368 153.369 200.05 158.659 203 165M112 156C109.626 161.148 106.523 165.205 106 171C107.997 168.436 109.61 165.896 111.104 163.007C122.393 141.166 121.288 174.011 109.681 175.926C105.77 176.571 88.7919 161.66 91.4076 157.744C94.051 153.786 107.732 156 112 156M148 215C137.392 208.316 127.701 196.078 119.019 187C116.608 184.479 111.053 176.87 118 177C116.46 170.769 120.436 165.416 127 166C123.138 150.443 156.662 155.103 162.994 162.179C165.359 164.821 161.722 171.967 161.081 175C158.209 188.584 151.873 201.629 148 215M1328 159C1325.68 163.104 1318.28 172.462 1312.86 171.725C1309.9 171.322 1298.48 163.34 1300.54 159.685C1303.4 154.634 1323.05 158.954 1328 159M1635.82 159.063C1643.38 157.763 1648.48 175.866 1650.47 181C1657.44 199.041 1654.61 224.512 1646.95 242C1644.87 246.731 1640.49 257.619 1634.9 258.913C1619.09 262.578 1618.71 237.512 1616.53 229C1609.82 202.744 1598.98 185.013 1623 167.369C1626.59 164.729 1631.3 159.841 1635.82 159.063M882 215C882.545 199.628 883.538 184.383 883 169C889.437 168.154 880.722 163.363 882.75 160.694C885.146 157.542 895.687 158.673 899 159.417C909.735 161.827 929.752 179.845 922.278 192.917C917.903 200.567 890.642 213.62 882 215M1993.65 160.977C1998.19 161.458 1999.2 170.573 2000.34 174C2003.18 182.608 2016.35 218.564 1991.64 211.774C1988.79 210.992 1989.59 201.489 1989.1 199C1987.47 190.76 1977.39 159.252 1993.65 160.977M171.187 162.83C183.184 160.156 182.606 177.558 183.567 185C185.927 203.281 190.837 217.602 167.999 222.435C140.063 228.347 159.118 196.161 162.804 181.96C164.146 176.788 164.747 164.266 171.187 162.83M1270 210C1271.39 199.554 1269.96 179.037 1277.24 170.937C1284.56 162.803 1307.36 160.66 1307.36 176.651C1307.36 182.969 1275.97 206.82 1270 210M535 263L534 258C531.824 263.438 533.749 266.906 536 272C545.958 256.516 566.734 266.026 576.252 241.32C579.439 233.047 581.151 221.259 577.325 213C575.37 208.782 565.978 202.593 569.646 197.679C577.124 187.662 590.523 178.206 600.972 171.639C602.895 170.431 607.927 163.199 610.216 164.544C616.902 168.473 613.194 197.287 612.438 204C608.607 238.044 594.448 284.433 552 285.959C533.827 286.612 516.337 280.354 504.425 265.981C501.688 262.68 495.209 253.316 497.006 248.722C498.907 243.862 512.607 239.65 517 236.761C521.014 234.121 527.924 226.724 532.713 226.28C538.616 225.733 537.468 258.351 535 263M191 210C190.82 200.54 182.221 175.613 186.862 167.84C194.253 155.462 223.945 182.588 224.251 191.951C224.497 199.527 197.241 208.026 191 210M228 191C226.663 188.047 219.314 178.853 220.74 175.969C220.844 175.758 243.32 182.117 228 191M842 177C844.012 188.947 837.109 215.714 834 228C822.54 212.734 835.135 191.785 840 177L842 177M919 264C922.821 257.038 928.983 250.331 929.552 242C930.052 234.683 923.646 231.38 922.258 225C921.23 220.271 926.102 203.829 927.825 198.701C929.625 193.343 955.998 173.967 960.635 178.883C964.661 183.152 964.022 194.562 963.997 200C963.894 222.237 941.246 258.165 919 264M1266 222C1266 233.119 1260.67 262.501 1279 262C1255.89 241.329 1275.32 214.453 1290.68 197.96C1294.85 193.48 1304.9 180.954 1311.65 181C1318.56 181.048 1345.63 215.119 1344.16 222C1339.84 242.307 1302.43 268.714 1283 272.433C1268.05 275.295 1244.68 260.207 1246.8 243.04C1247.64 236.195 1260.49 225.645 1266 222M110 185C126.003 190.896 149.839 217.277 141.297 233.956C137.988 240.417 113.841 255.659 107.259 247.957C95.9284 234.699 109.412 199.916 110 185M846 186C850.306 192.631 867.611 217.846 864.98 225.366C862.946 231.18 845.63 239.224 840 241C839.018 224.599 836.701 200.561 846 186M1603 188C1604.78 207.064 1612.05 224.985 1614 244C1588.84 234.923 1593.23 208.068 1601 188L1603 188M1596 191C1594.99 195.762 1591.97 216.246 1588.01 218.464C1584.12 220.635 1577.72 211.428 1578.24 208.136C1579.2 201.99 1590.93 193.701 1596 191M1559 197C1572.73 206.738 1566.88 216.965 1554 225C1553.34 216.147 1555.24 205.056 1559 197M213 228C209.445 225.237 193.003 221.775 193.003 217.891C193.003 212.228 223.97 196.554 227.702 200.66C242.705 217.164 227.931 243.946 217.777 258C215.28 261.457 208.466 274.538 203.283 273.677C200.089 273.146 198.512 256.156 197.795 253C193.262 233.047 190.633 223.581 213 228M541 200C567.126 198.448 546.856 217.339 541 200M923 199C922.772 205.415 922.029 219.192 916.837 223.74C913.883 226.328 898.52 223.768 898.52 228.98C898.52 239.233 917.294 229.502 921.204 233.51C931.557 244.12 912.987 274.741 899.417 272.617C886.337 270.569 877.339 231.495 883.26 221.266C888.412 212.365 913.264 201.747 923 199M562 205.205C574.227 203.734 581.193 233.454 571.76 234.075C562.09 234.711 541.848 207.628 562 205.205M540 206C547.669 216.748 536.719 215.758 540 206M1576 252C1577.53 261.304 1587.19 261.648 1590.29 270.011C1595.82 284.94 1589.17 298.85 1572.04 286.237C1558.3 276.118 1547.71 241.317 1558.63 227C1561.56 223.161 1568.82 211.165 1574.71 212.969C1592.33 218.357 1594.76 271.649 1576 252M548 215C554.019 223.694 566.059 229.799 570.954 238.406C576.444 248.06 557.48 261.977 549.011 260.484C534.944 258.003 538.997 221.282 548 215M189 217C188.336 221.464 186.238 221.85 182 222C183.522 218.668 185.495 217.815 189 217M876 223C878.768 226.85 878.141 230.437 878 235C873.919 231.824 874.258 227.543 876 223M145 234C147.757 222.036 157.657 232.166 145 234M198 280C185.692 268.165 169.782 246.172 162 231C168.151 228.175 182.627 222.138 189.023 227.219C195.261 232.176 198.69 271.838 198 280M868 228C873.633 238.67 883.791 284.006 883 256C887.64 261.5 891.115 269.396 894 276C884.909 279.147 864.811 280.988 869 267C866.403 268.688 865.288 270.182 864 273C855.871 270.594 837.43 256.005 843.34 245.499C847.297 238.467 861.297 232.468 868 228M1593 231C1597.13 234.008 1600.76 237.385 1604.32 241.038C1613.63 250.579 1615.4 277.03 1596.42 264.388C1590.71 260.582 1591.03 237.03 1593 231M116 291C122.66 288.615 125.295 282.896 133 284C128.13 270.788 135.941 234.334 156.864 235.057C166.081 235.376 192.732 272.927 193.798 281.981C194.682 289.491 180.9 295.792 175.783 299.24C156.649 312.133 124.918 318.919 116 291M600 239C592.357 241.235 586.751 241.488 579 240C582.719 248.76 595.568 245.04 601 240L600 239M136 245C133.79 260.846 122.636 275.726 116 290C100.915 264.048 112.033 253.824 136 245M1619 255C1641.23 268.199 1615.73 279.146 1600 286C1598.16 280.39 1596.32 274.758 1595 269C1611.07 273.197 1612.45 268.751 1619 255M1635.14 268.321C1641.27 267.62 1651.41 282.465 1650 287.997C1647.63 297.359 1634.77 303.011 1626 303.664C1587.59 306.522 1614.34 270.696 1635.14 268.321M1169 457C1171.33 454.055 1173.17 451.691 1174 448C1158.6 457.912 1170.49 465.095 1183 457.258C1211.11 439.652 1235.98 413.075 1266 399C1266.12 411.871 1271.56 435.59 1263.07 446.716C1252.41 460.687 1229.19 440.781 1218.97 447.432C1215.36 449.782 1227.7 453.308 1229 453.569C1240.46 455.864 1251.52 454.218 1263 454C1260.76 461.284 1261.32 472.596 1256.1 478.506C1251.79 483.396 1240.99 483.192 1235 484.623C1219.05 488.436 1201.45 493.782 1185 494.307C1178.89 494.502 1173.98 490.059 1168 491C1181.36 508.969 1237.91 490.673 1256 485C1255.47 491.682 1253.73 506.351 1248.54 510.931C1237.71 520.478 1218.59 520.393 1211 534C1221.97 534.978 1238.96 520.762 1250 517C1248.22 527.055 1254.17 553.969 1247.18 561.197C1241.41 567.158 1193.59 569.139 1192.08 558.717C1191.57 555.167 1198.88 551.382 1201 549C1195.39 548.2 1181.11 556.376 1185.93 563.363C1192.76 573.257 1220.71 569.751 1231 568.68C1235.02 568.262 1244.95 565.593 1247.72 569.542C1250.86 574.009 1249.43 599.491 1243.85 601.396C1223.68 608.277 1183.79 602.586 1167 590L1193 587C1189.39 576.154 1163 588.31 1155 589C1167.16 604.843 1198.71 607.984 1217 608C1222.34 608.005 1241.32 604.988 1244.86 608.9C1247.92 612.282 1245.59 620.958 1245.22 625C1243.79 640.652 1239.02 656.314 1239 672C1249.98 653.603 1241.89 628.287 1250.82 610.303C1252.55 606.82 1260.28 606.63 1261.48 610.72C1263.4 617.289 1259.64 629.082 1259 636C1264.63 629.043 1260.47 613.183 1267.49 608.252C1274.79 603.128 1306.82 609.9 1309.67 602.426C1311.72 597.056 1272.07 603.052 1268.86 600.042C1265.6 596.989 1268.41 587.885 1268.79 584C1270.83 562.547 1292.02 554.415 1313 557C1309.88 543.981 1281.17 558.061 1272 559C1278.17 543.387 1278.72 514.503 1291.56 502.683C1304.01 491.212 1331.08 495.464 1346 496C1338.5 485.546 1316.59 491.85 1306 493.144C1303.17 493.49 1295.52 497.503 1293.29 494.935C1282.37 482.379 1308.05 475.643 1314 474.426C1340.33 469.037 1352.29 467.569 1375 484C1372.75 474.045 1362.53 471.42 1356 465C1369.3 465 1381.76 463.637 1395 466C1387.32 454.137 1363.56 461.261 1352 462.261C1341.14 463.2 1322.94 454.005 1316 446C1326.39 446 1333.41 451.104 1343 452C1332.77 439.658 1320.36 447.982 1310.45 440.421C1299.9 432.371 1305.56 421.434 1300.94 411.129C1299.31 407.501 1294.19 404.823 1290.5 407.279C1273.96 418.289 1318.3 442.863 1282 447.557C1278.98 447.947 1275.2 448.818 1272.19 448.178C1266.18 446.903 1271.56 411.696 1270.74 405C1270.44 402.527 1269.76 392.109 1265.85 393.103C1259.62 394.688 1250.47 404.204 1245 408.103C1229.08 419.454 1212.91 430.517 1197 441.94C1189.15 447.578 1179.28 457.746 1169 457M651 508C644.919 500.567 633.412 507.758 627 511.439C611.543 520.313 590.687 544.037 571 535.99C532.008 520.053 541.929 454.716 545.147 423C546.085 413.757 551.25 404.248 549 395C540.23 401.592 539.583 419.856 537.849 430C532.376 462.04 533.708 533.397 575 543.044C601.602 549.259 624.172 509.857 651 508M98 521C78.4222 485.403 128.952 445.764 156 425.143C161.853 420.681 189.119 398.795 197.021 406.267C199.953 409.041 195.07 417.182 193.777 420C188.189 432.176 178.163 445.31 168.965 455C149.657 475.339 137.005 505.473 115.696 523.499C104.268 533.166 82.6783 522.3 72.825 538.524C58.1832 562.633 106.641 594.794 126 594C123.046 589.688 118.749 586.247 114 584.018C101.438 578.122 89.2654 575.026 80.8111 562.993C72.2885 550.862 73.5315 535.788 90 532.478C97.2408 531.022 104.716 532.563 112 531L109 537C115.674 533.399 119.136 531.013 127 531C108.486 541.148 98.9127 549.178 88 568L89 569C113.356 539.725 131.849 528.194 170 530.864C175.354 531.238 193.34 529.253 196.178 534.501C205.996 552.659 186.163 590.274 203 606C203 587.953 202 570.037 202 552C202 547.601 200.1 537.093 204.501 534.338C211.746 529.804 236.58 538.497 245 540C236.431 531.813 208.398 536.357 203.477 526.716C200.733 521.339 202.998 510.031 203 504C203.006 481.939 204.406 458.852 207.602 437C208.638 429.917 208.743 415.441 215.339 411.007C221.138 407.109 228.116 417.271 231.192 421.041C242.124 434.437 247.95 452.886 249 470L254 468C250.286 457.828 249.985 447.244 245.221 437.019C242.806 431.835 239.935 426.619 236.554 422.002C232.782 416.848 221.848 401.345 214.062 404.528C206.668 407.552 205.484 420.247 204.32 427C200.475 449.305 198.818 472.407 198.04 495C197.795 502.119 199.914 519.757 195.74 525.458C191.8 530.841 159.873 526.212 153 525.438C147.147 524.779 126.913 528.377 122.995 524.604C119.175 520.926 138.02 501.977 140.529 499C159.152 476.9 179.641 453.094 194 428C197.716 421.506 210.883 403.939 196.973 400.76C186.576 398.384 174.304 407.442 166 412.481C139.893 428.326 113.434 455.234 95.7269 479.999C87.2923 491.796 73.6245 516.986 98 521M1956 485C1943.44 472.319 1938.78 454.669 1922 445.285C1916.67 442.303 1904.78 434.606 1904 445C1915.24 443.289 1925.27 454.265 1931.91 462.04C1946.72 479.376 1972.15 511.757 1950.88 533.903C1942.89 542.221 1890.55 565.354 1906 541C1898.42 540.309 1891.73 551.527 1899.37 556.381C1914.37 565.924 1951.28 546.166 1958.58 532.999C1962.68 525.619 1962 517.122 1962 509C1966.07 512.956 1973.99 523.063 1973.77 528.96C1973.47 537.335 1961.37 549.898 1957.03 557C1945.54 575.824 1932.7 597.31 1928 619C1934.5 616.189 1936.51 605.996 1939.51 600C1947.71 583.6 1956.44 567.741 1965.8 552C1968.41 547.601 1972.22 537.474 1977.33 535.565C1990.52 530.634 1983.31 555.327 1981.12 558.997C1966.86 582.847 1939.31 610.435 1932 637C1941.18 631.801 1947.6 619.721 1953.18 611C1965.21 592.169 1982.94 572.372 1990 551C1994.3 554.614 2004.68 563.796 2005.06 569.554C2005.46 575.542 1998.39 585.723 1995.75 591C1988.53 605.451 1982.11 620.646 1977 636C1994.61 621.545 1993.28 588.723 2008.71 573.864C2012.97 569.764 2027.24 588.395 2031.03 581.237C2034.18 575.291 2009.54 571.292 2015.18 559.997C2023.74 542.863 2033.2 526.199 2044.86 511C2046.55 508.8 2058.07 498.268 2057.24 496.276C2054.61 489.934 2042.51 504.873 2041.07 507.04C2030.4 523.07 2013.2 542.452 2010 562C1980.77 536.787 2027.88 494.04 2045 471C2036.7 471.076 2031.77 480.054 2027.21 486C2015.9 500.755 2007.26 525.102 1993.76 537.13C1989.52 540.911 1983.37 530.435 1982.81 527C1981.87 521.298 1988.98 514.486 1991.81 510C1995.34 504.399 1998.58 498.635 2002.06 493C2007.38 484.37 2016.8 472.014 2018 462C2003.89 471.457 1985.18 506.767 1980 523C1962.77 506.646 1965.07 485.172 1955.24 466C1948.58 453.026 1933.53 440.577 1944.39 425.655C1951.68 415.637 1968.26 410.709 1980 409.293C1982.66 408.972 1991.83 405.983 1993.24 409.812C1994.34 412.818 1987.35 418.226 1986 421C1992.21 418.802 2006.34 410.11 1995.79 403.306C1978.82 392.358 1934.86 416.694 1935.03 436C1935.18 453.637 1952.69 467.25 1956 485M446 502C439.27 500.297 428.828 503.192 423.685 497.539C406.83 479.012 438.973 435.705 451.236 423.564C459.263 415.618 473.997 403.076 485.957 410.468C498.889 418.461 497.247 435.929 496.981 449C496.381 478.553 484.752 505.997 506 532C506.83 519.814 496.8 507.447 496.088 495C494.655 469.922 510.274 441.517 498.374 417C481.013 381.23 441.037 424.844 429.729 443C420.946 457.102 413.304 477.116 416.266 493.997C418.327 505.749 437.974 508.926 446 502M1298 425C1288.16 417.344 1295.11 403.202 1298 425M1651 415C1643.88 450.996 1605.49 484.07 1572 496.082C1556.03 501.812 1541.03 494.257 1533.05 480.151C1532.27 478.772 1529.14 475.383 1528.13 478.571C1523.95 491.766 1549.67 502.788 1559 502.98C1586.94 503.555 1609.5 480.652 1628.09 462.794C1630.96 460.031 1645.06 441.043 1647 444.432C1652.16 453.437 1641.55 504.904 1631.94 508.642C1627.26 510.46 1591.64 514.071 1591.64 517.209C1591.64 521.102 1599.97 519.277 1602 519.136C1613.45 518.34 1623.8 515.384 1635 513C1634.12 527.566 1632.43 542.07 1619 549.335C1617.69 550.045 1608.66 553.976 1610.54 556.293C1613.07 559.393 1624.16 552.115 1627 551C1626.63 578.71 1610.28 580.62 1587 588C1595.04 599.441 1615.01 576.766 1620.6 583.838C1623.12 587.023 1619.61 594.599 1618.84 598C1615.8 611.285 1613.98 616.975 1600.98 622.96C1596.43 625.053 1580.5 628.183 1578.76 632.971C1577.08 637.601 1597.95 629.704 1600 628.77C1604.73 626.611 1609.15 623.904 1614 622C1612.84 626.9 1603.67 656.871 1609.24 658.894C1612.87 660.212 1617.11 624.242 1620.6 620.561C1641.06 599.018 1685.54 598.514 1711 586C1684.85 577.14 1645.28 606.266 1621 614C1622.65 604.734 1621.86 587.953 1627.81 580.404C1634.12 572.404 1651.71 568.433 1661 564.976C1688.31 554.811 1712.96 538.004 1743 538L1743 535C1712.5 533.174 1686.72 549.492 1659 560.309C1654.49 562.069 1633.98 574.31 1630.12 570.804C1626.15 567.201 1633.17 549.322 1637.14 547.187C1659.82 535 1684.59 526.391 1708 515.74C1711.8 514.013 1729.87 511.411 1731.24 508.326C1732.88 504.617 1724.4 505.449 1723 505.709C1713.66 507.443 1704.68 511.729 1696 515.449C1687.92 518.912 1679.99 522.738 1672 526.401C1659.76 532.011 1647.41 536.832 1635 542C1635.8 534.179 1636.88 518.328 1642.48 512.519C1649.27 505.484 1664 504.316 1673 501.627C1697.58 494.283 1721.39 486.669 1745 476.596C1750.98 474.046 1783.91 467.128 1784.68 462.137C1785.43 457.269 1773.84 461.606 1772 462.158C1758.31 466.272 1745.12 472.041 1732 477.66C1720.64 482.526 1708.72 486.218 1697 490.111C1678.91 496.122 1660.22 500.403 1642 506C1643.82 496.6 1644.22 466.012 1651.6 460.002C1653.34 458.58 1677.31 474.117 1682 475.602C1704.61 482.767 1722.77 478.032 1739.92 461.774C1744.17 457.744 1764.53 431.047 1747.06 429.745C1745.17 429.604 1743.86 431.115 1744.3 432.972C1746.88 443.638 1749.44 445.218 1738.92 455.959C1719.44 475.86 1691.25 478.112 1668 462.28C1662.61 458.611 1654.4 452.264 1654.51 445C1654.69 432.237 1668.63 421.517 1651 415M803 545C783.413 522.849 784.895 500.692 799.122 475.438C803.42 467.809 818.166 439.434 828.996 450.298C838.531 459.862 836.045 476.907 835.134 489C832.993 517.399 828.029 548.711 833.583 577C835.381 586.163 839.516 595.358 846.583 601.591C850.536 605.077 859.489 605.552 860.716 611.14C862.564 619.559 865.512 654.411 861.284 661.314C856.681 668.826 828.594 641.559 824.864 638.479C823.105 637.026 815.637 630.969 813.544 634.485C811.616 637.724 828.377 649.698 831.078 651.852C838.778 657.991 857.937 664.329 862.616 672.241C868.64 682.425 859.596 714.479 877 717C875.485 708.908 862.809 681.453 868.738 674.276C870.767 671.82 878.884 676.974 881 677.886C892.012 682.637 900.203 681.662 897 695C899.899 693.126 908.462 682.939 905.601 679.26C903.67 676.777 895.966 677.656 893 676.699C877.238 671.618 866.73 667.018 865.217 650C864.189 638.427 861.678 618.069 865.744 607.157C867.825 601.573 875.635 598.079 879.861 594.193C891.657 583.348 901.496 567.487 915 559C917.884 586.182 942.921 613.476 965 627C965.801 618.313 951.636 611.563 946.008 605.981C935.254 595.318 921.334 573.67 920.037 558.019C919.583 552.539 931.379 548.857 934.981 544.989C945.818 533.355 954.855 517.852 960.462 502.96C965.276 490.174 976.212 465.811 972.119 452.099C965.043 428.395 928.525 450.708 920.855 461.078C907.703 478.86 904.178 503.343 906.22 525C906.997 533.243 912.956 544.996 910.928 552.999C906.967 568.635 878.381 591.273 865 599C865 580.257 863.465 560.631 865.562 542C867.076 528.545 867.468 515.376 869.992 502C872.621 488.075 873.523 473.142 874.783 459C874.911 457.553 875.76 444.16 872.519 445.761C867.38 448.301 868.838 467.992 868.139 473C864.017 502.568 862.584 532.249 861.078 562C860.772 568.035 864.513 599.005 857.716 600.49C842.869 603.734 837.619 574.421 836.446 565C832.712 535.022 840.002 504.076 840 474C839.999 464.045 839.245 446.539 826.992 443.585C817.333 441.257 809.88 451.287 805.068 458C793.525 474.104 779.345 499.441 784.059 520.078C786.297 529.877 790.911 544.598 803 545M1305 443L1304 444L1305 443M945.32 447.012C970.21 440.805 965.928 461.8 963.984 477C961.264 498.258 943.402 543.286 919.265 547.824C912.677 549.063 909.339 520.922 909.079 516C907.909 493.911 920.446 453.215 945.32 447.012M1338 464C1331.63 466.333 1305.57 474.462 1299.9 470.504C1296.27 467.972 1300.7 448.672 1305.19 447.808C1311.88 446.518 1331.14 460.733 1338 464M1262 478C1264.66 460.513 1265.7 453.619 1284 451.313C1286.59 450.987 1293.6 448.541 1295.72 450.378C1298.33 452.641 1295.76 460.239 1295.13 463C1291.92 476.978 1275.64 477.873 1262 478M1287.85 478.508C1295.15 478.398 1288.39 492.663 1286.43 495.812C1283.13 501.114 1265.57 507.389 1259.33 506.779C1254.81 506.339 1259.22 488.36 1261.24 485.597C1264.84 480.672 1281.98 478.597 1287.85 478.508M795.5 502.5C794.872 503.127 795.873 504.127 796.5 503.5C797.128 502.873 796.127 501.873 795.5 502.5M1284 504C1280.1 523.853 1274.32 558.393 1254 562C1254 532.129 1248.44 509.826 1284 504M424 533C429.311 542.582 441.438 547.691 448.637 556.007C459.763 568.862 466.255 588.127 482.001 596.594C508.437 610.81 549.004 575.154 569.008 561.701C577.991 555.66 600.21 540.127 600 560C612.631 549.566 593.663 542.814 584 547.463C558.362 559.797 516.586 604.481 485 591.841C467.502 584.839 461.308 561.604 448.914 549.079C446.058 546.192 435.228 540.062 435.479 535.494C435.631 532.725 442.31 533.95 444 534C438.865 528.173 430.241 530.461 424 533M1262.91 565.469C1269.43 565.592 1267.06 601.91 1257.98 602.183C1247.51 602.499 1247.97 565.187 1262.91 565.469M74 593C78.3305 588.064 82.1793 582.34 84 576C78.1891 579.595 75.6651 586.605 74 593M1977 607C1977.59 609.464 1978.01 610.464 1980 612L1980 607L1977 607M1237.67 675.333C1237.22 675.778 1238.28 675.722 1238.33 675.667C1238.78 675.222 1237.72 675.278 1237.67 675.333M1317 766.795C1293.96 773.256 1292.35 797.498 1276.91 810.819C1271.58 815.425 1260.91 813.534 1254.22 817.495C1228.32 832.825 1210.07 855.586 1203.26 885C1192.42 931.912 1233.36 981.422 1283 967.979C1314.71 959.392 1314.7 932.868 1330.1 910.198C1334.74 903.384 1346.62 900.327 1352.97 894.636C1366.15 882.814 1375.9 858.6 1376 841C1376.17 809.961 1359.39 754.91 1317 766.795M1332 772C1328.83 775.889 1327.25 778.925 1327 784C1339.46 766.201 1341.25 783.662 1343 795C1344.2 792.197 1344.69 783.626 1346.99 782.065C1350.4 779.75 1355.43 786.631 1357.3 788.681C1366.01 798.209 1369.34 807.297 1370.8 820C1373.39 842.636 1368.99 872.795 1351.27 889.213C1347.79 892.438 1335.13 904.561 1329.82 901.505C1326.28 899.467 1327.18 886.737 1326.79 883C1325.29 868.758 1322.12 851.03 1313.86 839.003C1305.86 827.355 1285.65 833.383 1282.02 815.764C1277.76 795.077 1313.46 767.309 1332 772M1545 1011C1525.21 976.279 1510.1 947.035 1513.14 905C1517.79 840.602 1588.1 780.196 1652 786.22C1718.48 792.486 1782.87 869.15 1776.77 937C1774.85 958.353 1755.89 989.817 1740.83 1004.54C1716.62 1028.22 1683.23 1027.84 1652 1030.78C1611.32 1034.61 1586.1 1024.38 1554 1000.91C1538.45 989.548 1542.45 977.436 1535.12 963.851C1533.77 961.345 1531.08 963.631 1530.29 965.287C1526.57 973.028 1533.48 985.579 1537.54 992C1549.46 1010.86 1582.14 1031.07 1604 1034.4C1643.71 1040.46 1705.65 1039.62 1738.86 1014.02C1755.08 1001.53 1766.68 978.262 1775.19 960C1788.11 932.288 1778.39 897.15 1765.73 871C1737.02 811.738 1679.76 764.883 1610 784.455C1546.98 802.136 1497.45 873.621 1509.19 939C1512.41 956.981 1521.17 1009.62 1545 1011M898 843C894.72 852.448 900.148 868.635 894.74 876.506C891.781 880.813 870.135 882.994 868.039 877.616C863.511 866 878.612 841.663 868 834C865.887 842.497 866.462 875.202 861.178 880.001C854.402 886.157 829.811 878.997 821 879C817.092 879.002 807.836 878.607 807.761 884.648C807.715 888.388 817.848 885.127 820 885.043C828.201 884.724 855.312 883.222 861.219 888.822C866.778 894.092 863.604 908.096 864.217 915C866.294 938.383 866.625 962.052 872.136 985C872.881 988.101 877.452 1013.58 882.315 1011.24C885.973 1009.48 876.203 983.938 875.343 980C870.7 958.741 872.583 935.718 869.786 914.136C868.899 907.294 864.246 894.709 868.26 888.365C871.332 883.51 887.644 883.481 892.794 884.601C899.119 885.976 898.103 905.587 898.679 911C901.649 938.917 902.146 967.041 905.199 995C905.575 998.445 908.04 1026.4 910.775 1025.24C916.188 1022.94 909.662 996.008 909.058 991C905.342 960.167 897.93 917.863 902.42 887.167C903.285 881.256 914.293 885.401 918 886.264C927.383 888.448 957.252 902.127 965.498 897.459C970.062 894.875 966.833 883.403 967.136 879C968.5 859.243 970.331 838.771 968.321 819C967.876 814.621 971.496 800.964 966.646 798.625C960.486 795.655 962.935 815.711 962.981 818C963.348 836.056 962.293 854.004 961.995 872C961.926 876.194 962.438 888.263 957.539 890.065C947.369 893.807 926.613 881.746 916 880.196C911.932 879.602 904.931 879.802 902.696 875.577C897.828 866.374 906.92 849.111 898 843M179 924C176.722 906.62 144.223 911.538 132 911.96C128.623 912.076 118.985 914.255 116.763 911.263C110.287 902.545 120.8 877.392 124.706 869C143.992 827.557 172.726 814.518 214 831C210.76 815.142 188.705 814.987 176 816.57C145.129 820.415 126.088 846.346 116.144 874C112.975 882.815 113.804 906.285 108.178 912.219C102.854 917.835 85.6634 915.449 79 913.709C76.931 913.169 69.3019 908.569 68.0278 911.622C62.6911 924.408 104.608 918.8 108.334 921.22C114.762 925.394 118.672 944.104 123.474 951C143.522 979.793 175.78 998.834 211 987.958C217.937 985.815 253.351 981.15 248.915 968.062C247.921 965.129 245.039 964.661 242.849 966.569C230.581 977.26 216.927 982.26 200 984.702C165.708 989.65 120.196 960.024 117.327 923.088C116.872 917.222 127.887 917.607 132 917.22C149.784 915.545 162.428 919.494 179 924M1267.99 817.453C1271.36 817.195 1274.56 818.193 1273.88 822.129C1269.81 845.866 1262.21 865.008 1274.88 887.922C1280.55 898.168 1291.3 907.33 1303 909.474C1307.29 910.261 1319.84 908.146 1322.69 911.262C1326.03 914.912 1318.7 925.562 1317.07 929C1308.02 948.139 1295 962.18 1273 964.535C1196.2 972.757 1192.98 873.961 1237.69 835.642C1246.41 828.164 1255.76 818.386 1267.99 817.453M1286 854C1295.58 850.009 1292.4 831.261 1303.98 835.941C1318.35 841.748 1321.17 872.897 1323 886C1323.69 890.913 1326.79 903.174 1319.85 904.716C1288.56 911.674 1271.48 881.625 1272.02 855C1272.13 849.558 1272.41 825.758 1278.67 823.761C1290.57 819.966 1287.87 849.387 1286 854M607 925C600.493 932.412 604.003 943.848 604 953C603.994 975.97 599.955 996.286 582.209 1012.19C578.466 1015.54 565.683 1023.46 560.451 1022.04C557.45 1021.23 555.627 1015.91 553 1014C553.331 1017.99 554.498 1021.31 556 1025C548.059 1024.52 538.557 1026.18 531 1023.82C524.145 1021.68 485.92 1009.73 499.459 996.792C505.518 991.005 515.682 995.333 523 993.24C543.371 987.413 574.868 962.474 565.595 938C558.47 919.198 526.756 917.853 510 912.287C501.689 909.527 491.268 909.766 489.325 898.999C484.674 873.226 510.019 834.33 536 829.202C541.307 828.154 548.736 827.646 553.775 830.061C555.739 831.001 558.043 837.958 559.615 837.239C565.739 834.437 560.006 825.587 555.97 824.251C521.187 812.738 461.757 876.139 487.563 908.938C502.279 927.64 564.307 916.675 561.193 949C559.574 965.809 536.372 985.528 520 988.34C510.808 989.919 498.447 984.79 492.343 995.127C484.415 1008.55 505.115 1022.98 516 1026.26C565.052 1041.07 603.366 1016.9 609.698 966C611.104 954.697 614.584 933.914 607 925M1952 903C1946.15 886.107 1943.92 824.693 1916.01 827.641C1901.34 829.19 1901 861.555 1901 872C1901 916.021 1914.48 963.207 1942.82 998C1960.84 1020.11 2003.01 1045.63 2024.8 1012C2043.09 983.786 2025.4 928.986 2006.04 905.118C1993.63 889.825 1963.62 885.636 1952 903M1953 934C1954.83 925.012 1952.58 913.422 1957.82 905.482C1967.46 890.888 1994.29 899.693 2003.19 911.021C2020.7 933.306 2038.08 988.334 2017.5 1012.94C2003.08 1030.18 1970.71 1020.28 1957.71 1006.78C1936.25 984.484 1929.08 959.211 1919.09 931.011C1917.34 926.058 1912.39 925.574 1910.28 921.51C1905.41 912.125 1907 897.233 1907 887C1907 873.466 1904.95 858.071 1908.96 845C1911.17 837.795 1916.53 831.116 1923.9 837.366C1940.03 851.043 1943.9 886.171 1946.54 906C1947.79 915.394 1945.36 926.981 1953 934M1639.32 843.761C1635.66 845.167 1638.09 857.007 1638.44 860C1640.4 876.574 1642.05 894.982 1646.74 911C1647.79 914.571 1651.62 928.653 1657.34 926.913C1659.75 926.179 1652.81 911.729 1652.13 909C1647.99 892.477 1646.55 874.913 1644.45 858C1644.16 855.695 1644.25 841.866 1639.32 843.761M1597 846C1581.68 850.941 1591.45 892.223 1595.28 904C1596.25 906.972 1601.43 921.632 1606.39 919.279C1610.01 917.561 1601.83 904.786 1600.83 902C1594.87 885.426 1593.71 863.11 1597 846M1283 855C1273.66 877.911 1287.13 867.659 1283 855M1695.08 924.761C1690.68 926.375 1688.51 946.283 1686.58 951C1680.43 966.111 1666.95 979.686 1651 984.122C1626.23 991.009 1600.22 970.047 1586.38 951.981C1584.48 949.497 1572.87 928.478 1570.24 931.106C1564.57 936.761 1584.01 957.821 1587.48 961.864C1606.96 984.574 1636.38 998.211 1664.98 984.322C1679.77 977.139 1689.55 962.546 1693.8 947C1694.36 944.966 1700.73 922.693 1695.08 924.761M551 1010L552 1011L551 1010M817 1161C807.81 1163.77 812.519 1183.6 813.602 1191C817.481 1217.49 819.094 1245.26 820.04 1272C820.327 1280.1 820.62 1295.66 830 1298C827.568 1281.14 880.652 1291 892 1291C887.959 1306.04 879.392 1320.31 874.042 1335C872.393 1339.53 868.744 1349.24 875 1351L876 1341C889.358 1350.54 909.102 1350.49 925 1350.99C942.376 1351.53 959.503 1356.91 977 1358.14C980.653 1358.39 990.858 1361.53 993.718 1358.7C998.084 1354.38 980.488 1331.06 977.262 1326.78C961.065 1305.3 945.417 1283.98 929.912 1262.04C927.642 1258.83 916.931 1241.44 913.281 1242.08C909.967 1242.67 908.619 1254.13 907 1257C901.008 1226.45 892.873 1191.13 897 1160C875.051 1160.58 853.78 1151.31 832 1152.8C828.976 1153.01 814.071 1151.08 812.761 1153.75C810.605 1158.16 825.226 1157.86 827 1157.68C841.19 1156.24 877.356 1157.51 888.396 1167.86C892.966 1172.15 891.753 1184.98 892.75 1191C895.392 1206.93 895.38 1223.14 898.089 1239C899.452 1246.98 904.716 1255.9 904.014 1264C901.379 1294.41 875.559 1282.89 855 1283C847.116 1283.05 832.002 1287.22 826.461 1279.41C820.67 1271.26 823.215 1252.7 822.804 1243C821.644 1215.63 817.107 1188.48 817 1161M515 1169C530.664 1172.36 556.623 1161.01 569.616 1172.78C574.888 1177.56 571.247 1187.83 571.04 1194C570.564 1208.2 566.884 1239.49 575.586 1251.46C578.137 1254.97 586.21 1253 590 1253C600.275 1252.99 629.694 1246.11 637.178 1253.9C639.61 1256.43 643.908 1295.1 642.057 1296.66C638.58 1299.59 628.074 1293.94 624 1293.36C613.049 1291.82 581.368 1288.76 572.571 1295.58C569.839 1297.71 577.639 1312.37 577.929 1317C579.304 1338.92 584.557 1368.71 580 1390C564.041 1380.32 551.414 1376.18 533 1379C543.574 1359.41 539.535 1337.29 537.32 1316C536.773 1310.74 539.383 1298.67 533.716 1295.8C511.429 1284.52 480.89 1295.56 459.148 1286.98C450.821 1283.7 456.435 1248.31 451.556 1253.75C447.329 1258.47 445.25 1287.79 450.52 1291.4C456.059 1295.18 465.785 1291.98 472 1292.01C485.101 1292.08 519.539 1293.03 529.499 1301.9C533.624 1305.57 531.976 1314.06 532.003 1319C532.082 1333.56 536.048 1348.47 533.213 1363C532.315 1367.6 523.021 1375.9 525.106 1379.65C528.947 1386.56 551.318 1382.99 559 1385.99C564.788 1388.25 576.622 1398.35 582.716 1397C589.018 1395.61 585.622 1377.45 585.217 1373C583.569 1354.93 584.773 1337.04 583.967 1319C583.758 1314.32 580.23 1303.79 582.62 1299.73C584.675 1296.23 592.884 1299.54 596 1299.7C610.236 1300.4 619.951 1298.1 634 1302.23C637.044 1303.12 648.503 1306.73 650.356 1303.44C652.878 1298.96 646.93 1286.06 646.003 1281C644.822 1274.56 648.622 1254.48 644.722 1250.24C630.68 1234.98 592.51 1260.47 579.822 1244.58C559.802 1219.5 603.475 1163.05 554 1163C547.228 1162.99 540.72 1163.5 534 1164.3C527.545 1165.07 518.172 1161 512.365 1163.82C505.488 1167.17 511.515 1179.9 512.897 1185C516.617 1198.71 527.489 1230.23 518.396 1243.48C515.787 1247.28 507.82 1244.19 504 1243.98C490.362 1243.21 476.712 1244 463 1244C461.678 1244 447.017 1243.83 451.892 1247.69C458.495 1252.91 480.006 1248.93 488 1248.22C496.074 1247.5 516.827 1254.68 522.499 1251.56C526.984 1249.1 524.975 1237.43 525.377 1233.08C527.473 1210.41 517.482 1190.84 515 1169M1618.22 1173.76C1611.59 1176.02 1611.65 1197.25 1609.71 1203C1605.84 1214.49 1599.19 1248.31 1588.74 1254.62C1579.38 1260.26 1562.02 1254.41 1552 1253.32C1547.47 1252.83 1529.47 1252.9 1531.45 1260.91C1534.89 1274.8 1567.38 1289.22 1579 1295.73C1583.46 1298.24 1595.44 1300.52 1596.31 1306.49C1597.21 1312.62 1590.99 1322.06 1589.26 1328C1584.34 1344.85 1579.51 1363.46 1578.14 1381C1577.84 1384.79 1572.3 1400.76 1575.52 1402.46C1579.79 1404.71 1589.34 1391.68 1591.68 1389C1603.1 1375.92 1613.24 1361.76 1625.08 1349C1627.49 1346.4 1633.74 1336.52 1637.49 1336.52C1640.79 1336.52 1645.54 1345.58 1647.39 1348C1656.87 1360.37 1669.39 1370.51 1678.31 1383.22C1680.38 1386.17 1684.2 1400.97 1689.58 1398.46C1694.72 1396.06 1693.35 1377.15 1694.71 1372C1702.83 1341.14 1690.78 1310.41 1704.16 1282C1707.1 1275.76 1721.81 1254.41 1716.04 1247.82C1709.62 1240.49 1674.46 1250.17 1666 1252.45C1661.35 1253.69 1653.98 1258.19 1650.08 1253.67C1637.11 1238.61 1633.93 1210.36 1626.98 1192C1625.86 1189.03 1623.02 1172.13 1618.22 1173.76M1983 1173.45C1916.48 1180.35 1902.26 1262.55 1913.3 1316C1917.25 1335.13 1922.99 1355.59 1939 1368.28C1953.17 1379.51 1968.75 1380 1986 1380C1994.69 1380 2003.59 1380.61 2012 1377.99C2026.92 1373.35 2037.78 1361.39 2049 1351.32C2051.88 1348.73 2059.81 1343.41 2058.04 1338.62C2055.67 1332.21 2045.78 1343.87 2043.86 1345.51C2028.33 1358.82 2002.93 1362.9 1985.08 1352.5C1939.51 1325.95 1931.42 1244.15 1973 1211.99C1982.93 1204.3 1996.56 1200.36 2009 1200.03C2013.4 1199.91 2021.8 1206.11 2024.03 1200.82C2032.05 1181.83 1994.87 1172.21 1983 1173.45M88 1294C85.5398 1306.8 112.048 1304.73 120 1306.44C141.658 1311.09 171.304 1303.24 190.861 1315.06C230.705 1339.15 176.45 1361.5 153 1359.86C141.424 1359.05 128.892 1362.4 117.692 1360.93C107.782 1359.63 114.095 1350.89 101 1356C118.194 1373.01 179.295 1370.11 198.785 1354C219.498 1336.88 205.107 1311.56 182 1306.8C167.625 1303.85 153.416 1304.91 139 1303C148.882 1300.14 159.149 1300.78 169 1298.1C195.592 1290.85 203.771 1272.77 174.217 1260.73C149.775 1250.77 119.023 1262.19 95.0288 1254.19C89.165 1252.24 83.9808 1238.1 88.3001 1232.9C93.1125 1227.1 123.688 1235.35 131 1235.86C161.914 1238.03 191.132 1238.64 222 1236.14C230.59 1235.45 244.763 1238.43 252.491 1234.18C265.294 1227.14 239.847 1193.37 245.621 1184.84C246.755 1183.17 275.057 1191.32 276.958 1194.15C282.977 1203.09 279.253 1219.74 280.32 1230C284.112 1266.45 279.488 1303.63 285.816 1340C286.688 1345.01 288.01 1383.5 292.646 1382.68C296.683 1381.96 294.061 1370.65 293.789 1368C292.181 1352.28 290.089 1336.86 289.997 1321C289.813 1288.87 286.396 1254.33 284.136 1222C283.444 1212.1 287.008 1195.76 280.716 1187.28C277.797 1183.35 251.024 1177.74 245.089 1176.42C238.666 1174.99 239.491 1184.04 240.322 1187.78C241.963 1195.17 256.101 1224.2 244.852 1228.04C209.73 1240.02 162.041 1233.07 126 1229.78C113.872 1228.68 97.0964 1223.04 85.1554 1225.72C78.9277 1227.11 81.9568 1255.49 86.4989 1259.01C90.5006 1262.11 102.848 1259 108 1259C126.697 1259 156.056 1256.51 173 1264.83C177.666 1267.12 189.066 1273.15 189.679 1279C190.401 1285.88 172.227 1291.84 167 1293.2C145.712 1298.74 108.191 1302.88 88 1294M2031 1360C2012.26 1389.96 1943.93 1376.49 1929.97 1349C1907.15 1304.06 1908.35 1252.45 1932.75 1208.02C1945.02 1185.66 1989.89 1164.3 2011.7 1186.42C2013.83 1188.57 2015.3 1191.95 2011.7 1193.41C1988.11 1203 1968.71 1200.53 1953.5 1226C1930.63 1264.28 1940.82 1336.57 1984.01 1358.52C2002.51 1367.93 2012.8 1359.81 2031 1360M1619 1187C1627.77 1206.51 1631.87 1227.74 1641.25 1247C1643.19 1250.98 1645.96 1263.6 1650.26 1265.26C1653.06 1266.34 1658.33 1260.42 1661.14 1259.48C1667.91 1257.21 1703.77 1246.76 1708.6 1252.96C1713.29 1258.99 1698.43 1280 1696.06 1286C1684.65 1314.88 1682.6 1346.43 1682 1378C1668.95 1368.48 1656.45 1352.9 1647.99 1339.22C1646.09 1336.16 1644.32 1321.24 1643.15 1320.68C1637.84 1318.17 1631.33 1335.01 1628.77 1338C1615.99 1352.94 1598.95 1379.64 1582 1389C1584.95 1368.17 1588.06 1345.78 1595.51 1326C1597.31 1321.2 1608.43 1308.26 1606.59 1304.21C1601.88 1293.86 1565.4 1281.09 1555 1274.95C1551.8 1273.06 1539.56 1265.39 1541.11 1260.73C1542.36 1256.93 1551.24 1258.55 1554 1258.79C1561.27 1259.41 1590.75 1265.93 1595.3 1262.22C1599.18 1259.07 1597.64 1250.58 1599.42 1246C1606.23 1228.53 1609.42 1202.25 1619 1187M1205 1230C1197.73 1208.04 1163.26 1186.42 1143.52 1208.12C1119.57 1234.46 1118.61 1270.62 1134.82 1301C1141.45 1313.43 1151.86 1319.4 1165 1323.25C1169 1324.43 1177.05 1323.59 1180.14 1326.26C1186.61 1331.86 1172 1347.69 1179.87 1353.89C1182.34 1355.84 1184.6 1339.49 1191.03 1339.08C1204.69 1338.19 1217.73 1347.93 1230 1352.74C1246.16 1359.09 1264.63 1356.37 1280 1362.04C1282.97 1363.14 1293.67 1372.2 1296.54 1368.08C1299.04 1364.5 1290.58 1350.8 1289.02 1347C1282.56 1331.3 1261.54 1299.04 1264.56 1282C1267.22 1266.97 1292.52 1263.87 1289 1247C1283.97 1249.98 1265.5 1274.4 1260.64 1271.68C1256.79 1269.52 1255.08 1257.06 1253.86 1253C1249 1236.81 1244.08 1218.69 1235.61 1204C1232.91 1199.32 1224.66 1185.46 1217.52 1189.36C1207.29 1194.96 1212.32 1221.03 1205 1230M1261 1286C1262.81 1311.54 1285.58 1333.62 1287 1359C1258.39 1354.19 1235.49 1349.14 1208.68 1337.6C1204.48 1335.8 1185.3 1335.59 1186.75 1328.97C1188.04 1323.09 1201.32 1322.08 1206 1319.03C1217.22 1311.73 1223.12 1301.01 1225.42 1288C1228.41 1271.08 1214.42 1258.44 1209.94 1243.96C1207.49 1236.03 1213.01 1224.89 1214.6 1217C1215.35 1213.27 1216.42 1196.21 1220.58 1195.35C1226.53 1194.11 1232.12 1208.05 1234.17 1212C1241.65 1226.37 1257.87 1261.96 1257.19 1277.9C1257.16 1278.47 1241.04 1303.08 1249.65 1299.43C1254.84 1297.24 1255.16 1288.71 1261 1286M1201 1230C1193.47 1229.1 1187.83 1228.08 1186 1237C1195.21 1232.03 1204.11 1236.48 1202.74 1248C1200.71 1265.04 1192.73 1283.52 1187.82 1300C1186.41 1304.76 1186.69 1315.36 1182.82 1318.72C1170.66 1329.27 1143.88 1307.44 1138.81 1298C1124.52 1271.42 1124.8 1241.41 1143.28 1217C1159.12 1196.08 1192.76 1207.65 1201 1230M1210 1250C1220.27 1266.04 1225.36 1290.54 1212.82 1306.9C1208.68 1312.29 1199.36 1321.38 1191.52 1318.48C1187.36 1316.93 1191.27 1307.9 1192 1305C1195.07 1292.8 1196.46 1271.37 1205 1262C1203.73 1285.64 1208.36 1254.92 1210 1250M915 1252C935.613 1274.26 952.031 1302.1 971.081 1326C974.646 1330.47 987.995 1346.53 985.916 1352.63C984.152 1357.82 965.93 1353.28 962 1352.44C942.213 1348.21 922.072 1346.76 902 1344.44C895.152 1343.65 885.047 1344.02 881.357 1336.64C878.074 1330.06 892.358 1294.71 899.265 1292.52C902.849 1291.38 920.3 1296.23 921.394 1292.23C925.188 1278.35 903.215 1270.39 915 1252M914 1288C911.062 1287.94 902.425 1288.57 901.046 1285.19C900.206 1283.14 903.765 1273.71 906.539 1274.32C909.373 1274.94 912.746 1285.42 914 1288M101.469 1363.76C93.6512 1366.4 106.127 1392.53 112.051 1394.24C128.462 1398.97 151.911 1395.41 169 1395.12C194.65 1394.68 220.291 1396.46 246 1395.08C252.861 1394.71 280.2 1402.51 284.535 1396.95C287.079 1393.69 280.243 1389.23 277.861 1388.57C268.801 1386.08 256.366 1389.79 247 1389.98C203.975 1390.85 159.656 1393.25 117.008 1387.85C107.291 1386.62 107.19 1361.83 101.469 1363.76M915 1384L916 1380C912.83 1380.8 912.068 1382.09 915 1384M142 1548C138.874 1525.98 135.056 1514.07 140 1493C121.135 1495.05 127.518 1544.49 142 1548M1908 1589C1900.6 1588.7 1842.73 1576.84 1872 1597L1873 1596L1870 1589C1879.35 1589.18 1902.85 1589.06 1908.88 1597.36C1913.93 1604.32 1913.55 1617.74 1915.7 1626C1917.02 1631.06 1922.8 1648.17 1918.35 1652.1C1910.36 1659.17 1877.85 1645.03 1873.5 1658.21C1867.76 1675.6 1888.91 1713.63 1894.06 1731C1895.79 1736.8 1904.88 1752.6 1895.11 1753.95C1884.79 1755.38 1878.76 1748.84 1870.01 1748.05C1867.09 1747.79 1863.7 1752.12 1866.63 1754.26C1872.11 1758.27 1903.77 1765.19 1906.38 1755.64C1907.74 1750.65 1902.4 1741.85 1901.04 1737C1895.96 1718.81 1888.76 1701.24 1883.84 1683C1882.59 1678.35 1876.16 1661.71 1881.29 1659.28C1887.98 1656.12 1916.83 1654.34 1921.72 1660.42C1928.45 1668.78 1928.93 1687.64 1931.35 1698C1932.23 1701.78 1939.75 1730.47 1942.31 1729.03C1945.66 1727.14 1940.98 1714.98 1940.3 1712C1936.92 1697.24 1924.83 1675.74 1928.65 1660.25C1929.82 1655.47 1937.39 1657.13 1941 1656.64C1953.92 1654.88 1966.99 1650.07 1980 1650C1976.61 1669.13 1983.49 1690.38 1987.66 1709C1989.21 1715.92 1989.61 1725 1997 1728C1995.32 1703.8 1977.67 1675.91 1983.64 1651.14C1984.94 1645.73 1992.63 1645.96 1997 1645.44C2006.68 1644.3 2039.04 1643.4 2046.39 1649.93C2049.97 1653.12 2048.95 1661.53 2049.74 1666C2051.9 1678.12 2055.68 1689.66 2056.78 1702C2057.22 1706.91 2055.31 1715.2 2058.38 1719.38C2061.64 1723.81 2090.14 1718.7 2092.53 1713.79C2096 1706.67 2068 1715.67 2064.38 1710.5C2058.71 1702.39 2056.62 1674.22 2056.08 1664C2055.84 1659.54 2058.41 1649.39 2055.7 1645.82C2052.18 1641.2 2038.21 1643.3 2033 1642.77C2026.82 1642.15 2020.98 1638.19 2015 1637.94C2007.51 1637.62 1989.75 1647.63 1983.12 1641.1C1978.88 1636.91 1978.5 1620.94 1977.58 1615C1976.89 1610.53 1973.52 1601.73 1975.08 1597.5C1976.37 1594 1983.99 1594.63 1987 1594.32C2000.5 1592.92 2020.42 1590.48 2010 1606C2014.72 1605.63 2027.29 1604.44 2029.46 1599.37C2030.87 1596.07 2022.62 1588.19 2021.31 1584.44C2017.05 1572.22 2016.03 1557.8 2013.92 1545C2013.39 1541.78 2010.9 1534.82 2013.86 1532.26C2017.66 1528.98 2029.24 1530.88 2034 1531.04C2039.12 1531.21 2044.23 1532.08 2049 1533.98C2056.3 1536.89 2063.76 1537.8 2071 1541C2073.31 1528.6 2016.28 1517.83 2006.9 1526.26C2003.87 1528.98 2007.45 1536.67 2007.98 1540C2009.33 1548.34 2020.07 1582.25 2014.16 1588.16C2010.82 1591.5 1999.5 1589 1995 1589C1989.84 1589 1979.06 1591.03 1974.78 1587.74C1962.92 1578.64 1962.09 1538.99 1958.32 1525C1957.41 1521.63 1960.15 1496.68 1957.26 1497.32C1949.53 1499.04 1954.22 1530.7 1955.32 1536C1957.69 1547.4 1971.72 1576.63 1967.15 1587.28C1963.74 1595.22 1925.34 1591.29 1918.07 1589.72C1912.39 1588.49 1912.68 1581.37 1910.44 1577C1903.32 1563.13 1901.71 1541.59 1898.94 1526C1898.41 1523.01 1901.07 1505.34 1895.67 1507.11C1890.13 1508.92 1894.09 1523.24 1894.7 1527C1898.11 1547.86 1903.06 1568.48 1908 1589M264 1525C255.93 1507.44 234.652 1536.41 230.324 1543C229.26 1544.62 223.539 1553.77 228.193 1554.68C231.169 1555.26 236.732 1544.22 238.212 1542C245.281 1531.38 251.387 1526.79 264 1525M20 1533C24.3189 1552.04 57.0285 1567.93 75 1568C72.4448 1562.16 64.4162 1562.24 59 1559.97C45.4449 1554.28 33.2167 1535.11 20 1533M876 1536.52C870.999 1537.36 842.657 1541.07 840.822 1543.85C834.53 1553.35 838 1576 838 1587C838 1626.36 840.908 1666.76 843.866 1706C844.607 1715.82 842.208 1745.69 849.26 1752.74C852.767 1756.25 865.936 1754.24 871 1755.57C893.416 1761.48 919.015 1771.25 942.775 1765.72C948.341 1764.42 946.988 1750.56 946.999 1746C947.049 1725.04 946.488 1702.83 944.32 1682C941.558 1655.45 944.878 1626.39 948.058 1600C949.556 1587.57 953.833 1566.94 948.613 1555.15C946.266 1549.84 937.773 1550.22 933 1548.05C914.697 1539.73 896.536 1533.06 876 1536.52M847 1549C848.321 1553.82 849.064 1557.83 852 1562C850.908 1531.17 904.582 1540.37 923.864 1549.36C928.732 1551.63 940.591 1554.37 942.937 1559.27C952.65 1579.53 940.665 1621.14 939.136 1643C937.446 1667.17 937.817 1693.94 940.32 1718C941.389 1728.27 945.578 1748 940.178 1757.43C937.969 1761.29 925.031 1760.94 921 1760.97C904.327 1761.13 888.121 1754.61 872 1751.23C866.733 1750.12 857.949 1750.96 854.258 1746.33C847.534 1737.9 850.905 1714.58 849.687 1704C845.482 1667.48 846.037 1630.64 842.783 1594C841.723 1582.07 838.517 1558.55 847 1549M537 1740C536.869 1726.05 528.362 1714.65 526.303 1701C520.819 1664.64 516.705 1627.73 515.981 1591C515.882 1585.98 507.104 1552.35 501.531 1555.32C497.352 1557.55 501.756 1573.07 502.228 1577C505.04 1600.37 509.115 1623.6 511.942 1647C512.274 1649.75 515.254 1672.48 513.635 1672.48C509.701 1672.48 505.703 1654.21 504.676 1651C497.237 1627.71 492.557 1603.54 486.001 1580C485.183 1577.06 480.069 1552.31 476.619 1554.54C471.436 1557.9 478.491 1576.41 479.613 1581C485.182 1603.8 474.672 1631.33 471.287 1654C470.641 1658.33 468.997 1681.36 463.122 1681.36C458.899 1681.36 458.139 1662.4 457.696 1659C454.454 1634.08 451.98 1608.99 449.319 1584C448.898 1580.04 448.105 1556.42 440.494 1558.86C436.613 1560.11 444.419 1589.35 444.904 1594C447.765 1621.41 451.406 1648.7 455.065 1676C457.033 1690.68 464.707 1692.6 460.258 1708C456.797 1719.98 453.646 1731.96 450.445 1744C449.751 1746.61 446.962 1754.43 449.877 1756.46C452.645 1758.38 458.487 1734.02 459.069 1731C464.486 1702.92 470.88 1676.68 505.992 1684.83C533.067 1691.11 509.09 1738.44 537 1740M151 1562.46C134.481 1564.65 119.118 1567.28 105 1576.96C49.9779 1614.7 81.1922 1702.8 128 1733.09C141.697 1741.96 173.621 1746.7 190 1744.66C205.201 1742.77 219.301 1738.48 233 1731.58C274.631 1710.6 290.09 1655.56 264.613 1617C239.707 1579.3 196.405 1556.42 151 1562.46M156 1723C153.801 1725.59 152.237 1727.84 151 1731C145.409 1728.57 143.083 1723.24 139 1719C138.19 1725.73 142.777 1728.7 146 1734C129.739 1732.96 119.349 1721.11 109.122 1709.56C82.8433 1679.89 66.7923 1623.46 97.0991 1591.01C159.033 1524.68 307.417 1599.31 265.646 1689.98C252.718 1718.05 222.814 1735.59 193 1740C176.965 1742.37 157.562 1741.47 156 1723M853 1568C852.237 1571.25 852.325 1573.73 853 1577C854.063 1573.85 854.063 1571.15 853 1568M1714 1664C1708.09 1662.2 1697.44 1662.12 1692.58 1658.74C1686.74 1654.68 1684.21 1642.03 1679.83 1636.14C1673.5 1627.63 1666.68 1629.31 1659.58 1624.1C1650.59 1617.5 1646.13 1609.29 1634 1606.72C1621.41 1604.06 1607.88 1607.17 1598.06 1615.47C1589.49 1622.72 1588.97 1639.29 1575.03 1631.99C1566.44 1627.49 1570.05 1600.23 1574.17 1592.36C1575.56 1589.71 1579.22 1590.52 1580.46 1588.23C1585.62 1578.72 1569.85 1575.62 1566.94 1574.59C1563.74 1573.46 1561.65 1569 1558.05 1569C1547.91 1569.01 1541.74 1606.37 1540.46 1614C1536.87 1635.43 1533.39 1656.67 1529.38 1678C1528.11 1684.75 1522.76 1696.96 1525.06 1703.61C1526.21 1706.92 1548.83 1721.82 1552.31 1723.33C1558.23 1725.91 1556.36 1712.53 1556.74 1710C1557.87 1702.44 1561.46 1663.23 1569.13 1662.45C1587.49 1660.58 1588.35 1679.26 1596.62 1690C1607.46 1704.06 1624.47 1713.86 1642 1716.52C1655.35 1718.55 1668.72 1716.13 1678.91 1706.73C1684.27 1701.8 1688.34 1686.04 1697 1687.87C1714.76 1691.62 1707.16 1722.27 1706.99 1737C1706.95 1741.04 1702.87 1750.56 1707.41 1752.8C1712.9 1755.52 1732.2 1758.51 1737.18 1753.88C1742.06 1749.34 1741.17 1729.71 1742.14 1723C1745.69 1698.58 1750.5 1674.16 1755.4 1650C1757.34 1640.41 1762.15 1627.89 1755.22 1619.27C1748.19 1610.52 1728.16 1603.7 1721.59 1616.33C1715.37 1628.27 1714.48 1650.59 1714 1664M1558.42 1578.23C1571.77 1575.23 1567.3 1595.96 1567.03 1602C1565.88 1627.76 1562.01 1655.77 1556.78 1681C1555.68 1686.28 1555.14 1708.21 1548.65 1709.18C1543.35 1709.98 1532.13 1704.61 1531.42 1698.95C1530.36 1690.49 1534.83 1679.42 1536.25 1671C1539.77 1650.07 1542.23 1628.65 1547.1 1608C1548.46 1602.24 1551.7 1579.73 1558.42 1578.23M853 1580C853.002 1584.11 852.987 1588 854 1592C855.791 1587.89 855.395 1583.76 853 1580M1206 1583.63C1183.85 1588.55 1174.98 1632.62 1187.88 1648.84C1210.82 1677.66 1249.58 1687.85 1279.86 1705.46C1297.58 1715.77 1315.78 1729.77 1338 1723.95C1372.08 1715.02 1352.93 1669.83 1340.71 1652C1315.3 1614.92 1278.39 1597.2 1236 1590.9C1226.67 1589.52 1215.3 1581.57 1206 1583.63M1198 1638C1195.2 1640.83 1193.8 1643.1 1193 1647C1178.28 1636.44 1190.06 1597.35 1204.01 1590.5C1210.87 1587.14 1210.99 1593.38 1216.24 1594.25C1230.87 1596.69 1243.74 1598.41 1240.7 1619C1238.25 1635.61 1203.93 1664.01 1198 1638M1913 1595C1924.61 1595.02 1959.42 1589.91 1968.4 1596.26C1973.2 1599.65 1973.29 1611.67 1973.94 1617C1974.71 1623.36 1979.56 1637.95 1975.74 1643.5C1971.9 1649.07 1932.48 1655.79 1926.7 1651.74C1917.99 1645.63 1914.85 1605.89 1913 1595M1205 1655C1221.11 1653.04 1241.7 1636.03 1245.38 1620C1246.52 1615.02 1240.06 1598.81 1243.55 1596.82C1251.59 1592.24 1291.43 1608.04 1293.49 1617.16C1295.84 1627.55 1280.75 1644.35 1275.86 1653C1271.18 1661.28 1265.44 1683.24 1258.76 1688.64C1255.71 1691.11 1246.94 1685.71 1244 1684.32C1231.46 1678.42 1212.7 1666.65 1205 1655M485 1598C493.611 1614.31 493.63 1635.62 499.957 1653C501.778 1658.01 508.031 1668.42 504.903 1673.5C499.659 1682.02 479.754 1679.69 471 1680C474.976 1654.45 476.799 1622.21 485 1598M850 1608C850 1614.02 846.878 1635.48 854 1637C853.823 1628.38 853.33 1615.95 850 1608M1627 1611L1627 1614C1623.9 1613.71 1622.07 1613.36 1620 1611L1627 1611M1616 1612C1614.98 1616.75 1611.8 1625.08 1606 1620C1603.89 1621.3 1602.46 1621.72 1600 1622C1603.33 1616.3 1609.65 1613.25 1616 1612M1636.78 1614.03C1648.07 1609.66 1654.19 1634.36 1644.58 1637.44C1631.38 1641.66 1629.54 1616.83 1636.78 1614.03M1716 1675C1717.48 1675.79 1722.23 1679.62 1723.66 1677.22C1725.64 1673.87 1718.73 1667.94 1718.71 1663.96C1718.65 1648.82 1723.92 1607.25 1745.98 1619.21C1757.85 1625.65 1752.28 1637.32 1750.1 1648C1745.22 1671.9 1741.3 1695.99 1736.94 1720C1735.56 1727.57 1737.25 1742.15 1732.74 1748.4C1729.29 1753.17 1717.21 1750.12 1714.64 1745.58C1709.88 1737.19 1711.71 1717.62 1712.04 1708C1712.41 1697.02 1714.98 1685.96 1716 1675M1275 1698C1253.64 1687.79 1280.47 1653.75 1289.68 1639C1292.38 1634.67 1296.13 1621.85 1301.26 1620.22C1315.42 1615.7 1298.27 1647.43 1296.9 1650C1293.6 1656.14 1291.63 1662.85 1288.35 1669C1283.3 1678.49 1281.11 1689.07 1275 1698M1627 1633C1608.95 1626.61 1624.99 1612.93 1627 1633M1598 1624C1612.98 1635.7 1600.25 1648.05 1603 1635C1589.52 1642.99 1588.22 1634.69 1598 1624M1656.42 1631.32C1667.28 1627.7 1674.27 1641.77 1664.58 1644.4C1657.31 1646.38 1647.64 1634.24 1656.42 1631.32M1316.21 1632.29C1321.34 1631.68 1329.15 1644.67 1332.11 1648.14C1343.97 1662 1369.96 1713.11 1335 1718.63C1322.18 1720.65 1286.49 1714.83 1282.14 1699.5C1280.09 1692.3 1291.08 1675.92 1293.79 1669C1296.9 1661.05 1305.97 1633.51 1316.21 1632.29M1614.6 1634.04C1623.3 1630.9 1630.69 1646.86 1621.58 1649.84C1612.97 1652.65 1607.78 1636.51 1614.6 1634.04M307 1635.45C303.664 1635.86 300.348 1636.48 297 1636.78C260.858 1640.08 322.956 1646.06 334.495 1641.5C342.988 1638.14 311.696 1634.86 307 1635.45M1570.28 1637.3C1582.15 1633.77 1590.29 1654.47 1581.5 1657.46C1568.65 1661.82 1558.15 1640.9 1570.28 1637.3M1675 1637C1678.28 1640.59 1680.02 1644.24 1681 1649C1673.78 1648.49 1671.38 1643.3 1675 1637M1633.45 1641.09C1639.63 1639.03 1651.81 1649.42 1642.72 1652.49C1634.51 1655.26 1623.09 1644.54 1633.45 1641.09M1653.6 1647C1659.48 1644.64 1672.2 1655.61 1664.31 1659.06C1658.48 1661.61 1645.44 1650.27 1653.6 1647M1686 1683C1675.82 1717.17 1640.13 1717.86 1614.22 1699.9C1597.34 1688.2 1589.08 1668.18 1589 1648C1613.44 1657.78 1636.04 1671.43 1660.85 1680.44C1663.88 1681.54 1665.05 1686.36 1667.7 1686.8C1671.71 1687.48 1678.06 1681.14 1686 1683M1607 1649C1605.87 1651.46 1605.13 1651.46 1604 1649L1607 1649M1675 1652C1677.89 1656.2 1681.32 1655.59 1686 1655C1683.72 1671.42 1662.6 1660.68 1675 1652M1624 1659C1619.57 1658.48 1615.85 1657.58 1613 1654C1617.88 1654.1 1621.69 1654.3 1624 1659M1643 1668C1622.33 1660.97 1644.75 1649.09 1643 1668M1651.42 1659.56C1657.1 1659.05 1673.02 1671.91 1661.79 1674.27C1653.3 1676.06 1643 1660.3 1651.42 1659.56M1694.61 1665.85C1705.23 1660.06 1719.47 1678.3 1708.2 1684.12C1697.79 1689.49 1688.03 1669.45 1694.61 1665.85M1685.67 1666.67C1685.72 1666.72 1685.78 1667.78 1685.33 1667.33C1685.28 1667.28 1685.22 1666.22 1685.67 1666.67M1686 1673C1683.25 1680.79 1670.21 1676.36 1671 1668C1676.19 1669.52 1680.52 1672.33 1686 1673M1321.11 1673.8C1308.32 1677.37 1313.59 1709.05 1329.98 1704.49C1347.74 1699.54 1343.14 1667.66 1321.11 1673.8M1324.99 1682.46C1335.89 1681.22 1338.29 1697.55 1327.9 1699.35C1319.2 1700.86 1314.98 1683.6 1324.99 1682.46M34 1696.44C3.75446 1700 30.8669 1705.82 45.6863 1702.29C53.3731 1700.46 37.2762 1696.06 34 1696.44M283 1754C283.321 1763.03 307.116 1772.9 315 1778.17C317.154 1779.6 323.973 1785.68 326.67 1783.03C330.052 1779.71 319.79 1774.64 317.919 1773.38C306.558 1765.74 297.027 1756.15 283 1754M214 1770C212.464 1781.2 218.039 1794.44 221.523 1805C222.114 1806.79 225.086 1815.57 228.292 1813.46C231.449 1811.37 226.711 1804.28 225.826 1802C222.473 1793.36 223.415 1774.31 214 1770M71 1816C81.1348 1815.64 89.6094 1792.88 101 1786.81C102.796 1785.85 112.577 1782.71 111.239 1779.69C109.292 1775.3 98.3043 1781.73 96 1783.04C82.3966 1790.81 73.9456 1800.73 71 1816M1978 2076C1969.57 2073.2 1978.59 2112.96 1980.14 2120C1980.8 2123.01 1979.72 2132.67 1983.26 2133.89C1988.6 2135.75 1985.93 2121.07 1985.92 2119C1985.83 2106.93 1985.96 2094.01 1984.68 2082C1984.32 2078.6 1981.82 2070.89 1984.86 2068.26C1992.57 2061.6 2028.16 2077.82 2031.05 2066.86C2032.17 2062.61 2022.57 2061.2 2020 2060.11C2012.39 2056.88 1983.24 2060.35 1981.16 2050.86C1969.16 1996.05 1980.15 1941.5 1984 1887C1971.44 1891.87 1973.25 1917.74 1973.02 1929C1972.42 1958.33 1972 1987.62 1972 2017C1972 2027.02 1976.47 2042.87 1972.62 2052.28C1970.58 2057.27 1959.02 2054.78 1955 2054.31C1940.88 2052.69 1923.24 2045.75 1910.5 2055.34C1899.17 2063.88 1924.42 2071.45 1923.77 2076.01C1923.24 2079.76 1913.95 2089.03 1915.74 2092.17C1918.22 2096.53 1929.61 2076.26 1929.65 2073.05C1929.74 2066.66 1912.76 2065.8 1915.43 2061.11C1917.8 2056.95 1928.22 2057.89 1932 2058.66C1946.2 2061.54 1969.14 2064.21 1978 2076M1615 1890C1608.33 1904.32 1610.17 1919.55 1608.78 1935C1604.78 1979.62 1607.82 2028.92 1615.51 2073C1618.18 2088.33 1620.03 2103.98 1624.24 2119C1624.86 2121.21 1627.37 2132.91 1631.26 2131.24C1634.56 2129.83 1631.15 2121.21 1630.45 2119C1626.32 2105.96 1623.38 2092.61 1622 2079C1617.37 2033.41 1608.53 1986.03 1613.32 1940C1614.33 1930.27 1622.34 1895.75 1615 1890M93 1983C96.5405 1994.11 113.407 1998.35 116.084 2007.46C117.384 2011.89 110.804 2020.95 110.237 2026C107.776 2047.9 118.579 2064.87 138.003 2074.63C164.936 2088.16 195.355 2081.56 219.32 2064.61C229.633 2057.32 242.01 2040.66 236.852 2026.96C233.268 2017.44 222.57 2011.11 215 2005C233.324 2000.21 234.646 1984.96 247.579 1974.68C252.326 1970.9 259.288 1975.66 264.532 1971.07C268.428 1967.67 268.508 1961.7 267.419 1957C264.212 1943.16 243.923 1927.41 245 1915C231.446 1914.51 223.009 1904.62 210 1901.46C169.443 1891.61 131.132 1894.93 95 1915.11C87.1595 1919.49 77.9607 1915.02 71.6603 1923.19C61.7375 1936.05 59.4443 1955.91 64.8063 1970.98C69.4163 1983.94 81.4376 1990.82 93 1983M246 1963L243 1963C242.471 1958.85 241.555 1956.33 238 1954C238.011 1959.5 243.57 1968.35 242.367 1972.52C229.922 2015.56 156.18 2002.77 126 1991C128.178 2008.21 113.657 2000.45 105.766 1993.11C94.1304 1982.3 95.8018 1974.74 92.1344 1961C90.8684 1956.26 89.1614 1951.8 84 1951C86.0596 1917.42 116.035 1906.44 145 1902.94C191.122 1897.37 244.915 1906.08 246 1963M1670.13 1903.54C1662.94 1906.8 1667 1937.89 1667 1945C1667 1989.11 1670.42 2033.16 1675.2 2077C1676.52 2089.15 1676.98 2100.97 1679.53 2113C1680.01 2115.24 1681.93 2124.72 1686.18 2122.38C1689.19 2120.71 1685.64 2113.29 1685.05 2111C1682.01 2099.24 1681.8 2086.99 1680.3 2075C1674.87 2031.45 1672.24 1986.85 1672 1943C1671.97 1937.59 1672.66 1902.4 1670.13 1903.54M509 1962C505.988 1938.55 522.211 1908.28 550 1910.14C568.92 1911.4 590.342 1927.36 601.412 1942C628.079 1977.27 615.406 2026.24 590.753 2058.96C583.654 2068.38 571.825 2071.99 566.091 2083C558.966 2096.68 573.625 2121.73 562.991 2127.4C544.209 2137.41 536.985 2116.25 524 2111C525.107 2133 559.835 2143.28 573.396 2125.84C582.977 2113.52 564.67 2099.19 571.975 2085C579.397 2070.58 595.708 2064.13 603.437 2048.99C612.187 2031.85 622.407 2010.52 622.957 1991C624.005 1953.82 591.334 1907.33 552 1904.14C533.164 1902.62 512.799 1916.73 505.822 1934C502.413 1942.44 497.935 1957.75 509 1962M86 1922C84.2237 1941.26 75.5393 1950.16 84.54 1970C85.8607 1972.91 88.4247 1979.11 84.3137 1981.13C76.6412 1984.9 70.3118 1971.2 68.7501 1966C64.0889 1950.48 67.8713 1926.13 86 1922M1216 1925.44C1165.52 1931.16 1147.74 1976.63 1175.12 2018C1181.98 2028.37 1193.05 2033.05 1200.42 2042.14C1205.66 2048.6 1206.18 2058.54 1215.01 2062.06C1225.8 2066.36 1240.88 2056.6 1250.63 2065.42C1264.58 2078.04 1265.17 2113.48 1275.03 2131C1286.07 2150.65 1333.61 2152.8 1354 2148.6C1413.66 2136.3 1394.73 2059.82 1350 2042.26C1332.62 2035.44 1308.72 2051.16 1295.42 2034.95C1285.72 2023.12 1292.86 2002.08 1290.48 1988C1285.81 1960.32 1246.09 1922.02 1216 1925.44M242 1927C251.234 1932.37 265.781 1952.02 262.457 1963.75C260.906 1969.23 252.549 1970.51 250.341 1964.85C247.736 1958.18 249.639 1949.21 247.377 1942C245.806 1936.99 241.743 1932.33 242 1927M103.129 1931.31C90.8462 1937.43 99.4552 1978.62 113.938 1971.57C125.86 1965.76 116.541 1924.63 103.129 1931.31M1216 2043C1214.32 2036.6 1207.87 2041.23 1205.17 2035.77C1202.12 2029.63 1205.88 2021.07 1201.86 2015.43C1197.32 2009.05 1198.78 2031.63 1199 2034C1175.76 2025.86 1158.81 1982.45 1168.36 1960.04C1176.73 1940.42 1201.63 1929.05 1222 1930.5C1250.17 1932.5 1282.23 1965.6 1285.66 1992C1287.68 2007.59 1280.67 2025.82 1291.54 2038.99C1305.51 2055.91 1327.16 2039.7 1344 2045.62C1390.43 2061.96 1407.42 2127.52 1352 2145.04C1344.8 2147.31 1335.5 2145.08 1328 2144.99C1316.83 2144.87 1293.31 2143 1284.56 2135.8C1263.43 2118.41 1272.03 2081.01 1255.17 2062.65C1242.8 2049.17 1224.43 2065.54 1213.86 2055.49C1208.47 2050.37 1205.98 2041.55 1216 2043M216 1942C218.114 1944.87 219.66 1946.7 223 1948C221.589 1937.16 201.814 1926.89 200.129 1943C199.378 1950.18 198.959 1960.45 202.601 1966.93C206.253 1973.43 215.325 1973.04 218.178 1965.97C221.33 1958.16 215.859 1949.84 216 1942M107.027 1936.43C111.613 1935.84 118.563 1965.27 110.813 1966.21C101.231 1967.38 97.8475 1937.59 107.027 1936.43M208 1941C210.395 1944.45 219.694 1966 209.96 1966C200.448 1966 204.642 1945.15 208 1941M1551 1945L1551 1948L1553 1945L1551 1945M527 1968C533.11 1965.86 530.021 1956.08 536.62 1955.01C543.602 1953.88 550.52 1960.26 555.711 1963.96C590.155 1988.51 558.48 2019.64 556 2050C561.97 2047.34 563.551 2037.55 566.399 2032C576.582 2012.16 585.29 1984.05 566.978 1966.05C553.133 1952.44 527.118 1938.52 527 1968M86 1956C87.1604 1959.34 87.775 1962.47 88 1966C85.016 1962.83 83.7414 1959.95 86 1956M1004 1973C991.968 1975.76 978.966 1967.72 967 1966.33C937.187 1962.86 896.758 1961.53 869.04 1974.85C846.722 1985.57 855 2047.31 855 2069C855 2076.87 852.309 2094.61 860.244 2099.44C867.259 2103.7 904.191 2113.04 907.499 2102.81C910.962 2092.1 902.772 2074 909.604 2064.64C912.774 2060.29 925.933 2060.23 931 2057.61C942.929 2051.44 948.462 2037.39 958.362 2031.73C970.169 2024.99 985.424 2032.28 998 2033.17C1001.67 2033.43 1009.7 2037.53 1012.61 2034.14C1016.4 2029.72 1011.58 2020.51 1010.14 2016C1005.99 2003.03 1001.61 1986.52 1004 1973M988 2028C975.41 2027.41 959.564 2024.52 951 2017C946.828 2031.77 914.781 2009.1 906.861 2025.15C898.683 2041.72 903.041 2061.09 903.001 2078C902.989 2083.01 905.342 2096.22 901.178 2099.77C894.861 2105.16 865.714 2099.19 862.644 2091.8C853.719 2070.31 861 2036.92 861 2014C861 2005.49 859.724 1993.76 864.306 1986.14C869.565 1977.4 882.08 1977.42 891 1975.75C914.596 1971.35 933.818 1967.86 958 1971.4C964.02 1972.28 978.491 1970.21 982.894 1975.24C985.114 1977.78 978.606 1989.63 978.97 1994C979.691 2002.65 990.467 2002.24 991.718 2008.24C992.83 2013.57 986.597 2020.55 988 2028M991 1980C992.097 1982.63 993.066 1985.11 993.189 1988C994.216 2012.22 977.357 1989.35 991 1980M999 1992C999.683 1993.51 999.826 1994.31 1000 1996L998 1996C998.206 1994.5 998.399 1993.36 999 1992M538 2029C546.048 2025.6 546.644 1996.64 536.872 1996.64C535.375 1996.64 538 2024.58 538 2029M161 2005C155.038 2004.68 150.384 2004.44 146 2000C151.225 2000.27 158.568 1999.7 161 2005M147 2008C140.219 2007.99 133.669 2007.21 127 2006C128.906 1999.19 145.248 2001.98 147 2008M174 2004.33C174.773 2004.33 174.16 2004.83 173.667 2004.67L174 2004.33M1002 2004L1002 2011C997.536 2008.57 997.536 2006.43 1002 2004M200 2006.37C222.771 2005.02 236.717 2029.69 227.074 2048C218.592 2064.11 192.631 2075.99 175 2076.92C147.865 2078.36 114.221 2064.68 115.089 2033C115.275 2026.24 115.807 2016.31 121.507 2011.6C126.276 2007.66 137.933 2013.72 144 2013.27C165.083 2011.71 178.462 2007.65 200 2006.37M1623 2008C1623.04 2018.11 1621.69 2038.87 1630 2046C1630 2035.92 1630.4 2026.04 1631 2016L1626 2017C1625.94 2013.25 1626.01 2010.48 1623 2008M488 2022L489 2021C484.55 2013.37 465.655 2013.4 468.408 2017.11C470.834 2020.38 483.499 2019.06 488 2022M1005 2016C1003.89 2031.18 981.424 2018.73 1005 2016M192 2060C193.062 2055.43 185.66 2020.09 181.306 2021.76C174.765 2024.27 187.301 2056.73 192 2060M146 2025C136.983 2030.74 141.551 2048.3 146.36 2055.93C147.493 2057.72 152.35 2062.35 153.134 2057.69C154.035 2052.32 147.884 2044.79 147.237 2039C146.708 2034.28 147.004 2029.68 146 2025M931 2046C928.857 2043.79 926.617 2041.63 924.991 2038.99C913.536 2020.4 946.282 2021.77 949.195 2032.1C952.38 2043.41 916.561 2065.36 909.278 2054.5C906.961 2051.04 910.066 2024.33 915.248 2026.76C922.388 2030.12 915.709 2048.4 931 2046M1009 2027L1009 2029L1006 2029L1006 2027L1009 2027M267 2059C268.635 2058.46 268.455 2058.64 269 2057C267.825 2057.77 267.773 2057.82 267 2059M283 2062C285.663 2063.34 287.248 2064.6 289 2067C290.35 2062.43 287.122 2057.57 283 2062z"/>
</svg>
