<?xml version="1.0" standalone="yes"?>
<svg xmlns="http://www.w3.org/2000/svg" width="2200" height="2200">
<path style="fill:#0d0d0d; stroke:none;" d="M1186 33C1179.37 45.7122 1193.26 43.5845 1203 46.6382C1223.65 53.1096 1245.23 52.9587 1266 59.4626C1269.52 60.5664 1290.65 72.3105 1292.03 69.3972C1294.65 63.8457 1272.9 55.9912 1269 54.7168C1249.32 48.2896 1199.73 51.946 1188 33L1186 33M83 137C87.3868 126.256 128.254 130 139 130C144.12 130 152.24 128.43 154.822 134.148C160.709 147.183 160.033 164.045 162.147 178C166.75 208.379 170.342 241.465 178.594 271C180.165 276.623 182.045 309.556 185.41 311.031C192.389 314.088 187.26 289.703 186.656 287C180.501 259.477 176.25 230.922 172.138 203C168.623 179.135 162.479 155.106 161 131C188.487 135.866 218.269 137.361 246 140C243.223 125.598 235.414 134.94 225 133.913C210.829 132.516 197.593 127.013 183 127C177.625 126.995 166.404 129.151 161.909 125.858C150.181 117.267 156.989 78.6494 157 66C157.003 62.3826 159.949 48.5549 155.384 47.1057C149.395 45.2046 151 61.2166 151 64C151 78.5928 150.144 92.4016 151.68 107C152.101 111.003 154.318 120.863 151.722 124.178C148.906 127.774 139.037 126 135 126C119.296 126 103.665 127 88 127C84.3357 127 74.7176 125.424 72.5439 129.369C70.6428 132.818 80.8685 136.163 83 137M1270 203C1273.65 180.244 1231.78 185.903 1220 188.698C1216.18 189.606 1206.73 195.258 1204.04 190.571C1182.03 152.161 1240.19 135.846 1267.99 144.11C1275.82 146.436 1276.65 153.178 1282 158C1287.19 136.57 1258.2 138.34 1245 139.081C1233.92 139.702 1212.05 152.104 1202.28 148.098C1197.2 146.013 1195.44 118.491 1196 113C1198.86 115.972 1201.5 118.803 1205 121C1205.3 118.544 1205.29 116.459 1205 114C1212.4 115.781 1219.65 118.037 1227 119.906C1231.53 121.058 1236.37 122 1241 122.639C1243.8 123.026 1262.32 125.956 1262.57 124.359C1263.5 118.499 1250.33 118.161 1247 117.978C1232.49 117.179 1207.07 101.212 1195 112C1194.17 106.805 1189.63 95.2166 1192.4 90.6016C1195.81 84.9287 1207.79 87.5713 1213 87.9407C1233.12 89.3674 1252.32 94.7139 1272 97C1267.98 80.873 1219.31 84.1738 1206 82.082C1202.07 81.4641 1191.9 83.6472 1189.5 80.418C1184.34 73.4832 1191.41 62.3071 1192 55C1175.27 61.7297 1185.97 94.5718 1188.86 107C1195.82 137.004 1197.65 169.345 1199.86 200C1200.39 207.33 1202.49 218.879 1201.14 225.874C1200.49 229.214 1194.76 231.249 1195.32 234.599C1195.79 237.424 1201.6 237.344 1203.1 240.226C1209.29 252.144 1198.96 273.908 1213 277.712C1230.24 282.384 1250.48 272.162 1268 270.904C1270.02 270.759 1285.26 269.011 1282.59 265.692C1280.04 262.512 1271.39 265.472 1268 265.782C1256.21 266.858 1230.7 277.486 1220.21 273.139C1206.26 267.359 1242.61 260.63 1241.04 259.309C1230.57 250.5 1201.51 268.769 1208.38 239.446C1209.36 235.271 1248.27 241.397 1254 241.856C1256.45 242.053 1267 243.015 1266.89 238.783C1266.74 232.738 1254.99 236.425 1252 236.525C1241.79 236.867 1213.21 237.99 1207.26 227.794C1189.86 197.977 1233.22 187.261 1253.99 192.151C1260.47 193.676 1264.49 199.601 1270 203M531 142C531.547 156.252 518.791 156.282 512.081 145.999C499.78 127.149 518.626 91.8555 541 109.485C563.962 127.578 555.221 147.27 542.91 169C537.507 178.538 529.164 193.679 516 189.138C466.054 171.908 459.973 78.8838 521 74.1396C533.431 73.1733 543.894 79.0015 554 85.6729C561.725 90.7725 569.44 96.2598 575.699 103.144C612.331 143.436 551.721 186.882 539.605 223C533.555 241.037 539.672 270 561 274.586C582.646 279.241 598.856 260.632 604.084 242C607.103 231.24 604.741 213.455 591 211.29C573.669 208.559 550.948 237.912 571.062 246.05C590.787 254.031 585.945 220.279 577.774 228.962C575.267 231.625 579.48 235.471 577.039 238.071C575.001 240.242 571.942 238.017 571.278 235.79C567.141 221.903 586.704 211.591 595.101 224.051C609.501 245.422 573.481 281.383 552.196 262.493C529.075 241.973 552.923 208.004 565.319 190C582.362 165.248 606.117 131.087 582.46 102.019C575.496 93.4631 565.954 87.4072 557 81.189C544.107 72.2351 530.907 66.5125 515 69.5371C462.071 79.6013 461.597 142.482 490.78 175.32C498.587 184.105 508.093 197.439 521 198.317C533.85 199.19 542.545 182.311 547.851 173C561.922 148.306 572.629 114.564 538 100.365C493.342 82.0532 493.235 169.91 526.922 159.395C537.211 156.184 541.423 131.817 528.04 132.106C523.063 132.213 520.467 150.222 523.833 149.375C526.645 148.668 528.534 143.716 531 142M886 95C878.166 105.333 900.81 116.04 901.956 125.96C902.861 133.792 871.94 159.29 865 163.69C858.906 167.554 834.756 142.255 828 138.397C825.825 137.155 816.603 131.338 814.544 134.63C812.449 137.979 822.16 141.47 824 142.598C834.333 148.93 849.825 158.157 856.353 168.626C858.763 172.49 852.237 176.683 849.94 179.048C841.818 187.414 832.339 203.813 821.609 208.68C818.352 210.158 812.188 202.024 810.196 199.922C803.312 192.661 796.073 182.905 793.809 172.993C792.928 169.138 795.9 162.997 794.346 159.892C793.43 158.062 791.261 159.438 790.417 160.531C776.771 178.207 816.715 206.745 816 225C832.515 217.688 841.966 178.512 861.922 176.323C866.504 175.821 870.608 183.113 873.219 186C882.646 196.423 892.508 206.446 902.157 216.64C903.932 218.515 910.497 230.944 913.983 227.821C921.88 220.744 894.357 201.119 890.718 197.309C884.859 191.174 870.47 179.097 868.643 171.001C867.102 164.169 898.698 136.899 905.106 134.302C909.596 132.482 917.107 144.124 919.438 147.136C928.872 159.327 939.52 170.25 950 181.562C952.622 184.392 957.607 192.051 961.973 191.755C964.906 191.556 969.114 185.791 966.168 183.391C952.271 172.063 935.802 160.313 923.038 144C920.244 140.429 911.525 132.275 913.422 127.323C916.893 118.266 958.141 82.6599 954 104C964.763 103.304 978.441 138.475 983.784 147.864C985.807 151.418 989.981 160.997 994.831 160.997C1000.48 160.997 990.601 147.653 989.567 146C979.578 130.037 971.104 115.028 965.224 97.0076C963.883 92.8967 968.572 83.8047 965.721 81.2024C962.66 78.4089 953.53 86.2969 951 87.9473C938.644 96.0093 923.531 118.061 909.233 121.287C902.656 122.771 890.212 99.6355 886 95M1907 114C1912.3 109.751 1911.86 101.292 1920.01 100.336C1930.26 99.1318 1936.2 109.05 1945 111.713C1969.47 119.115 2026.82 134.785 2021.58 171.852C2021.04 175.696 1992.87 187.364 1987.83 194.007C1982.95 200.441 1984.52 220.031 1978.92 221.771C1959.54 227.792 1920.23 224.173 1910.11 203.999C1905.28 194.364 1909 179.524 1909 169C1909 153.197 1912.29 114.576 1933 112C1923.26 99.5874 1912.77 126.295 1909.84 133C1902.29 150.31 1896.58 201.57 1912.18 215.443C1934.51 235.289 1958.93 224.766 1984.97 226.984C1991.08 227.504 1992.93 234.678 1999.04 235.713C2040.18 242.671 2097.52 244.301 2087.06 186C2085.46 177.056 2082.9 168.086 2078.71 160C2055.97 116.1 1995.47 116.922 1954 101.093C1936.69 94.4846 1907.98 87.4946 1907 114M2025 232C2030.8 223.786 2042.07 217.912 2043.53 206.864C2045.11 194.913 2031.55 192.097 2027.4 183.735C2023.11 175.107 2029.03 163.501 2023.7 154.019C2015.8 139.976 1997.5 131.065 1987 119C2017.7 115.902 2060.65 135.494 2074.14 163C2085.96 187.101 2089.99 227.089 2056.78 234.598C2045.95 237.048 2035.55 233.01 2025 232M1559 216C1552.95 210.667 1548.6 203.967 1542 199.078C1536.83 195.25 1523.4 180.531 1516.5 182.226C1512.05 183.322 1514.84 194.019 1515.38 197C1518.09 212.01 1524.68 226.679 1529.72 241C1530.61 243.512 1534.86 261.875 1539.3 258.592C1544 255.116 1537.06 244.565 1535.41 241C1528.35 225.741 1520.08 206.955 1519 190C1530.9 196.091 1541.88 206.218 1550.86 216C1553.48 218.861 1557.83 228.009 1561.82 228.677C1565.64 229.318 1564.7 213.438 1564.44 211C1562.2 190.118 1565.77 168.861 1563 148C1575.13 158.699 1580.64 185.163 1587.1 200C1589.23 204.903 1591.96 216.13 1597.27 218.456C1602.29 220.652 1603.63 202.065 1604.19 199C1608.46 175.473 1614.41 153.158 1620 130L1622 130C1626.24 151.613 1628.97 173.147 1631.7 195C1632.16 198.712 1632.4 214.65 1636.37 215.894C1641.01 217.348 1646.32 200.242 1647.77 197C1657.48 175.356 1668.39 153.029 1677 131C1686.54 142.878 1678.71 180.081 1677.92 195C1677.62 200.662 1674.47 212.998 1680.49 216.894C1684.97 219.797 1692.13 204.006 1693.76 201C1703.73 182.614 1718.2 156.808 1736 145C1733.17 163.641 1727.05 181.499 1723.58 200C1722.59 205.24 1721.45 215.957 1728.11 218.05C1734.62 220.097 1741.35 211.107 1744.93 206.959C1756.81 193.163 1769.98 179.634 1784 168C1783.13 191.535 1769.69 219.289 1762.93 242C1761.71 246.105 1755.09 263.471 1760.76 266.272C1765.44 268.581 1767.26 246.388 1768.26 243C1773.9 223.772 1780.49 205.125 1786.38 186C1788.06 180.552 1792.06 169.957 1789.06 164.504C1785.51 158.062 1775.87 167.646 1773 170.213C1761.91 180.147 1751.85 190.725 1741.68 201.554C1739.69 203.678 1733.93 212.376 1730.41 210.582C1725.38 208.02 1730.22 195.892 1731.09 192C1733.77 180.097 1747.22 149.936 1741.14 138.553C1737.92 132.518 1725.08 147.644 1722.8 150.078C1707.22 166.696 1698.3 192.213 1682 207C1682.46 182.685 1694.17 142.343 1680 121C1666.45 134.41 1657.66 156.427 1650.82 174C1647.49 182.565 1644.83 196.525 1637 202C1637 191.54 1635.87 181.334 1634.24 171C1633.09 163.702 1631.54 156.386 1631.07 149C1630.81 144.83 1630.23 141.045 1629.16 137C1618.3 96.0178 1604.77 169.672 1601.66 184C1601.07 186.684 1598.82 204.48 1595.96 204.48C1593.01 204.48 1589.28 190.513 1588.32 188C1583.22 174.621 1576.22 148.052 1563.63 139.969C1557.4 135.971 1559 154.16 1559 157L1559 216M1235 162.486C1230.65 163.074 1226.37 164.169 1222 164.672C1219.02 165.016 1216 165.054 1213 164.925C1188.85 163.886 1239.12 177.774 1246.46 166.382C1249.13 162.23 1236.59 162.271 1235 162.486M2010 183C2008.78 184.744 2000.53 191.498 2002.39 193.579C2004.69 196.159 2013.53 183.395 2017.84 188.903C2024.37 197.255 2000.01 221.534 1990.28 218.023C1972.93 211.764 2002.52 185.112 2010 183M2029.21 193.592C2038.54 193.413 2038.54 207.78 2035.36 212.999C2028.35 224.509 2017.47 230.783 2004 229.914C1984.28 228.641 2008.91 217.57 2013.27 211.957C2017.1 207.031 2021.26 193.745 2029.21 193.592M1211.52 209.939C1207.98 211.946 1244.43 228.701 1252.03 221.791C1252.05 221.771 1219.17 205.612 1211.52 209.939M237 217L236 221C238.096 219.606 238.332 219.148 237 217M574 319C573.174 335.226 555.441 327.784 550.088 317.992C546.901 312.164 547.485 297.254 557 297.326C561.423 297.36 562.997 302.788 567.106 303.215C570.076 303.524 571.777 300.635 571.031 297.992C566.077 280.453 544.521 294.146 542.501 306C539.534 323.411 570.389 349.343 579.381 326.997C586.139 310.198 559.248 303.139 558.984 315.059C558.778 324.396 569.359 322.6 574 319M331 315C330.915 317.735 331.265 318.084 334 318L331 315M680 385.642C657.694 390.308 644.954 418.3 648.406 439C649.845 447.629 654.393 456.478 662.019 461.116C666.032 463.556 675.877 463.493 677.499 468.225C682.354 482.394 677.537 504.006 678.04 519C679.289 556.204 682 593.794 682 631C682 652.846 681.017 674.359 680.048 696C679.877 699.813 677.203 716.257 683.854 715.568C688.107 715.127 686.249 699.613 686.698 696C689.327 674.855 688.11 652.293 687.99 631C687.82 600.863 687.975 569.071 685.864 539C684.274 516.346 679.779 490.636 683.94 468.07C686.063 456.553 713.805 456.138 715.86 438C718.296 416.501 712.141 410.93 698.296 396.805C692.656 391.051 689.49 383.657 680 385.642M682 459C682.871 452.704 686.367 447.348 687 441C680.881 444.393 677.308 458.04 670.873 458.52C660.398 459.3 654.778 445.23 653.406 437C650.622 420.303 662.523 393.154 681.676 391.576C698.429 390.195 675.054 402.033 674.761 401.422C676.523 405.093 698.409 403.692 702.997 406.749C728.495 423.742 703.754 455.248 682 459M420 392.546C402.253 396.14 393.138 419.019 398.295 435C400.827 442.845 403.805 450.115 411.041 454.729C415.525 457.587 425.561 458.753 427.396 464.147C433.311 481.537 429.846 506.621 431.136 525C433.77 562.524 440 599.305 440 637C440 656.984 440.37 677.025 441.04 697C441.129 699.639 441.01 715.856 444.783 715.214C449.626 714.391 446.086 697.326 446.019 694C445.558 671.321 445 648.688 445 626C444.999 573.735 426.564 518.019 434.206 466.011C436.27 451.964 467.457 454.509 467.417 435C467.382 418.584 435.563 389.394 420 392.546M443 411C441.806 411.294 426.898 413.134 431.785 416.655C438.379 421.406 448.438 414.701 455.732 422.147C478.966 445.865 412.323 476.431 403.099 434C401.963 428.773 401.54 423.171 403.127 418C409.421 397.494 431.523 391.471 443 411M790.343 400.271C780.422 406.235 786.921 424.234 799.596 415.148C804.778 411.433 797.603 395.906 790.343 400.271M793 413L790 411C792.092 411.406 792.02 411.217 793 413M549.567 433.544C541.845 437.53 547 460.769 547 468C547 503.501 548.876 541.806 553.32 577C554.066 582.91 557.021 617.874 557.923 617.456C565.247 614.062 560.651 587.416 559.584 581C553.8 546.248 552 506.287 552 471C552 466.188 551.414 432.59 549.567 433.544M958.889 459.525C954.175 462.406 968.228 473.242 969.992 475.007C983.065 488.084 992.07 504.716 1003.74 519C1005.61 521.289 1012.73 533.669 1016.24 532.24C1021.7 530.016 1010.55 517.982 1008.91 516.319C995.328 502.565 987.568 483.913 973.961 470.019C971.65 467.658 962.906 457.071 958.889 459.525M175 487.438C151.84 490.066 107.278 491.856 108.068 524C108.426 538.558 118.94 552.601 119.968 567C120.973 581.082 119.479 616.838 129.285 627.129C150.879 649.793 187.374 643.674 215 646.218C234.874 648.048 254.871 652.893 274.938 648.716C282.775 647.085 282.998 636.295 282.999 630C282.999 621.581 279.373 613.256 279.73 605C280.415 589.16 287.634 576.999 282.378 561C277.483 546.099 265.25 545.917 258.695 534.987C252.742 525.06 257.747 511.064 250.803 500C238.851 480.958 194.714 485.202 175 487.438M169 493.323C187.783 491.261 233.336 486.02 246.474 502.099C258.562 516.892 252.888 542.15 248.096 558C246.88 562.023 247.167 574.038 241.787 574.531C221.623 576.379 195.674 566.039 175 564.155C161.2 562.898 142.775 564.618 130.575 556.418C116.763 547.134 105.519 517.584 122.266 505.241C133.289 497.117 155.613 494.792 169 493.323M262.206 544.625C282.638 543.16 279.97 580.286 277.438 591C276.272 595.934 275.445 604.844 268.949 605.369C261.735 605.951 248.781 590.081 249.891 583.169C250.919 576.775 257.295 573.089 257.864 565C258.164 560.725 255.627 545.097 262.206 544.625M924.041 551.053C912.415 555.829 918.115 574.693 928.812 569.635C937.104 565.715 935.041 546.535 924.041 551.053M133.051 564.01C155.667 560.84 184.983 574.234 208 575.864C219.17 576.655 232.654 574.212 242.404 581.458C247.774 585.449 250.56 597.3 254.674 602.99C260.837 611.511 267.717 607.242 274.064 612.276C280.978 617.759 279.909 640.612 270.938 643.517C256.102 648.322 238.79 644.017 224 642.066C197.404 638.557 161.376 646.021 139.166 627.054C128.12 617.621 127.758 593.458 127.078 580C126.813 574.768 125.894 565.013 133.051 564.01M827.95 568.539C822.93 571.378 838.759 585.648 840.823 588C854.966 604.115 870.939 621.291 887.038 635.463C890.184 638.232 899.251 649.524 904.13 645.689C907.006 643.429 904.321 635.963 901.52 634.629C879.549 624.161 863.75 603.334 846.1 585.68C843.438 583.018 832.394 566.024 827.95 568.539M251 571.333C251.889 571.333 251.889 572.667 251 572.667C250.111 572.667 250.111 571.333 251 571.333M504.936 589.389C499.284 593.149 504.184 622.073 509.513 617.972C512.69 615.528 511.882 584.768 504.936 589.389M612.181 598.761C605.182 601.404 608.49 627.661 613.587 625.894C617.542 624.524 613.286 598.344 612.181 598.761M541.685 655.267C532.515 661.827 547.951 674.643 555.576 669.737C565.255 663.509 549.098 649.965 541.685 655.267M1070.99 681.257C1050.35 679.749 1055.53 705.395 1071 707.15C1083.88 708.611 1082.66 682.11 1070.99 681.257M1073 702C1070.27 701.744 1069.6 701.235 1068 699C1070.46 699.59 1071.46 700.006 1073 702M195 1518.46C178.163 1520.74 164.402 1529.79 153.04 1542.02C138.651 1557.5 117.625 1581.59 117.121 1604C116.538 1629.91 137.506 1657.54 152.516 1677C156.503 1682.17 167.526 1688.31 169.358 1694.36C170.274 1697.38 165.75 1699.45 165.079 1702.18C163.176 1709.91 164.207 1720.1 162.078 1729C156.606 1751.87 156.089 1775.92 150.899 1798.35C150.324 1800.84 155.813 1815.71 158.775 1815.21C163.321 1814.46 161.868 1793.84 162.777 1790C167.501 1770.06 172.623 1749.97 176.957 1730C178.605 1722.41 177.19 1712.05 181.483 1705.28C186.357 1697.6 201.077 1696.4 209 1694.44C227.465 1689.87 250.574 1684.11 264.704 1670.48C283.371 1652.47 302.325 1615.7 298.735 1589C291.939 1538.46 241.939 1512.11 195 1518.46M194 1523.36C269.964 1512.83 317.83 1582.62 275.954 1648C256.806 1677.89 221.437 1691 187 1695.54C167.098 1698.17 187.858 1671.56 178.78 1667.76C173.434 1665.52 178.283 1690.86 168.931 1686.55C159.104 1682.02 151.461 1667.5 145.346 1659C133.234 1642.15 121.986 1625.53 122.038 1604C122.115 1571.77 162.894 1527.67 194 1523.36M2033 1524.68C1966.55 1523.81 1913.29 1565.53 1895.65 1628C1882.21 1675.6 1878.84 1740.93 1945 1743.92C1975.73 1745.31 2033.05 1729.58 2053.55 1705.54C2069.54 1686.79 2079.64 1650.93 2088.83 1628C2105.11 1587.34 2084.78 1525.36 2033 1524.68M2032 1611C2023.52 1593.33 1999.95 1588.43 1983 1596.29C1955.41 1609.09 1898.6 1662.12 1938.02 1693.49C1945.72 1699.62 1960.5 1704.58 1970 1707.23C1980.06 1710.04 1998.34 1707.94 2008 1703.99C2028.27 1695.71 2045.06 1678.04 2065 1670C2060 1703.54 2034.13 1715.14 2006.08 1725.6C1964.21 1741.22 1914.7 1751.33 1893.3 1702C1885.09 1683.08 1892.64 1662.91 1897.1 1644C1908.96 1593.7 1936.87 1541.25 1995 1533.7C2024.45 1529.87 2061.36 1524.27 2078.95 1556C2112.97 1617.38 2063.86 1674.03 2009 1698.92C1987.05 1708.88 1938.58 1703.01 1931.74 1676C1922.56 1639.78 1963.41 1597.67 1998 1597.02C2013.92 1596.72 2019.05 1606.19 2032 1611M811 1536C815.479 1554.77 822.988 1571.35 825 1591C818.16 1584.14 807.534 1571.45 797 1572C800.436 1577.24 808.492 1579.8 810.495 1585.73C814.247 1596.83 807.96 1617.22 807.136 1629C806.131 1643.37 810.814 1656.81 810.993 1671C811.14 1682.66 806.606 1698.3 811.634 1709C828.504 1744.9 884.996 1758.97 921 1762.31C943.95 1764.44 968.552 1752.14 974.802 1729C980.022 1709.68 964.879 1686.69 957.723 1670C951.299 1655.02 948.624 1639.07 941.576 1624C938.095 1616.56 930.44 1609.21 929.029 1601C927.381 1591.41 940.525 1597.7 942 1586C926.948 1594.2 942.76 1579.32 945 1576C926.563 1578.46 907.815 1608.96 901.948 1626C900.053 1631.5 900.502 1654.48 891.366 1654.48C886.883 1654.48 875.699 1638.15 872 1634.78C863.178 1626.76 847.364 1616.04 842.589 1604.99C832.583 1581.84 840.276 1546.88 811 1536M1517 1652C1511.81 1634.7 1571.83 1641.49 1571 1661C1585.04 1650.93 1592.62 1633.16 1604.7 1620.71C1613.58 1611.56 1620.28 1600.35 1629.09 1591C1634.49 1585.28 1641.45 1581.52 1646.91 1575.96C1649.87 1572.94 1652.48 1569.42 1654.95 1566C1664.24 1553.14 1653.9 1545.99 1642 1542.63C1621.28 1536.78 1601.2 1549.69 1581 1546.79C1562.14 1544.09 1546.63 1540.3 1528.74 1544.01C1525.39 1544.7 1518.43 1540.43 1516.33 1544.27C1513.71 1549.04 1528.2 1546.23 1529.4 1550.27C1531.04 1555.79 1526.65 1564.56 1525.42 1570C1521.26 1588.47 1516.2 1606.64 1511.63 1625C1509.47 1633.66 1505.02 1648.55 1517 1652M1633 1544C1628.86 1549.51 1621.2 1549.32 1615 1548C1620.02 1543.97 1626.89 1545.08 1633 1544M1167 1725C1168.85 1723.47 1169.31 1722.33 1170 1720C1173.86 1722.16 1176.93 1723.97 1180 1720C1167.26 1717.12 1175.67 1692.66 1184.29 1688.3C1194.22 1683.29 1189.36 1716.93 1203.84 1709.57C1219.96 1701.39 1212.97 1671.33 1228 1662C1228.05 1667.22 1229 1671.91 1230.08 1677C1231.29 1682.65 1230.51 1696.86 1237.35 1699.46C1242.42 1701.38 1246.54 1692.38 1248.22 1689C1254.84 1675.73 1262.52 1658.58 1273 1648C1271.05 1662.27 1275.47 1694.24 1290.34 1667C1302.77 1644.25 1307.12 1618.24 1318.53 1595C1323.08 1585.73 1336.39 1577.41 1331.82 1566.04C1326.25 1552.18 1301.24 1551.31 1289 1549.52C1245.69 1543.18 1195.71 1554.74 1169.2 1593.32C1150.89 1619.97 1163.3 1643.28 1163.95 1672C1164.22 1683.88 1158.39 1697.31 1160.32 1708.96C1161.39 1715.36 1167.01 1717.8 1167 1725M1539 1548C1538.14 1571.39 1528.07 1594.72 1524.72 1618C1524.3 1620.9 1522.17 1638.59 1517.02 1636.9C1511.51 1635.08 1519.46 1619.78 1520.04 1616C1522.32 1601.01 1526.17 1556.74 1539 1548M1574 1550C1569.07 1551.67 1561.67 1552.14 1558 1548C1563.55 1548.01 1568.68 1548.33 1574 1550M1544.28 1550.84C1547.37 1550.12 1563.05 1552.91 1563.51 1556.5C1564.14 1561.36 1556.87 1572.27 1554.84 1577C1549.76 1588.82 1547.83 1601.31 1546.18 1614C1545.51 1619.12 1544.81 1636.53 1538.76 1637.67C1534.7 1638.44 1526.57 1636.74 1525.91 1631.81C1523.67 1615.14 1533.28 1588.39 1537.37 1572C1538.47 1567.6 1539.34 1552 1544.28 1550.84M1240 1696C1231.59 1688.59 1239.52 1662.73 1227.12 1658.72C1222.76 1657.31 1219.97 1666.21 1218.74 1669C1214.41 1678.84 1211.68 1697.19 1203.15 1704.15C1197.01 1709.16 1194.42 1686.87 1188.9 1684.23C1177.86 1678.93 1169.51 1705.73 1169 1713C1160.82 1709.67 1167.69 1664.41 1165.58 1653.01C1154.32 1592.18 1200.67 1558.92 1256 1552.44C1271.25 1550.65 1320.4 1549.37 1327.17 1567.02C1331.26 1577.67 1309.25 1605.2 1305.47 1617C1301.27 1630.08 1294.07 1667.29 1280.33 1673.46C1273.08 1676.71 1279.57 1645.4 1274.44 1643.64C1270.35 1642.24 1265.61 1652.39 1263.95 1655C1255.52 1668.35 1247.54 1682.14 1240 1696M1595 1556C1579.18 1566.22 1576.73 1601.87 1574.15 1619C1573.35 1624.32 1574.12 1634.93 1570.62 1639.18C1567.59 1642.85 1545.86 1641.15 1544.74 1636.5C1543.47 1631.27 1547.2 1622.3 1548.19 1617C1551.13 1601.33 1554.12 1563.32 1570.26 1554.9C1582.88 1548.31 1604.26 1552.36 1618.04 1552.87C1627.43 1553.21 1645.61 1546.36 1651.89 1557.76C1655.91 1565.04 1632.5 1578.42 1628 1582.02C1612.92 1594.06 1598.16 1609.09 1588.53 1626C1586.17 1630.14 1584.03 1643.59 1577.27 1642.68C1572.38 1642.02 1575.56 1632.82 1575.99 1630C1578.05 1616.58 1580.26 1603.23 1583.34 1590C1586.1 1578.14 1591.87 1567.57 1595 1556M829 1571C833.807 1580.6 835 1589.41 835 1600C829.193 1595.82 825.23 1577.15 829 1571M475 1778C481.941 1774.74 485.522 1764.23 489.667 1758C502.745 1738.35 511.508 1707.05 528 1691C529.55 1704.68 554.252 1719.46 552.808 1730.78C550.612 1747.99 518.294 1759.16 526.209 1782C533.838 1804.01 568.021 1809.6 576.875 1786C581.026 1774.93 574.4 1759.03 569.185 1749.32C567.321 1745.85 560.992 1735.63 562.544 1731.87C568.924 1716.39 610.512 1714.09 611.439 1696C612.419 1676.88 584.341 1671.66 585.046 1652C585.687 1634.13 604.918 1606.78 614.669 1592C616.547 1589.15 630.299 1576.45 628.553 1574C625.272 1569.39 615.53 1581.92 613.985 1584C603.43 1598.24 594.745 1617.14 586.752 1633C581.892 1642.64 575.974 1656.03 583.461 1666C589.046 1673.44 610.444 1685.01 605.437 1696.86C601.664 1705.79 587.344 1708.45 580 1713.48C575.153 1716.8 564.902 1727.33 558.615 1726.63C554.547 1726.17 548.251 1715.96 545.66 1712.86C539.736 1705.78 529.221 1694.13 530.7 1684C532.569 1671.19 557.389 1637.86 541.794 1626.82C530.436 1618.79 520.149 1640.93 518.325 1649C515.313 1662.33 526.846 1677.34 522.791 1689C512.47 1718.68 478.731 1747.68 475 1778M824 1705C817.794 1699.21 816.507 1684.14 816.354 1676C815.824 1647.98 817.042 1618.44 817 1590C830.091 1595.26 825.476 1606.87 827.354 1618C831.876 1644.8 830.735 1678.38 824 1705M1610 1606C1608.16 1613 1602.14 1619.36 1596 1623C1598.05 1616.06 1603.69 1609.48 1610 1606M831 1607C835.681 1611.99 834.391 1617.78 833 1624C830.416 1619.51 829.549 1611.98 831 1607M926 1607C942.371 1621.51 947.458 1651.33 953.79 1671C956.274 1678.72 961.862 1684.84 963 1693C948.299 1675.95 936.063 1649.79 930.575 1628C928.972 1621.63 924.192 1613.5 926 1607M814 1613C815.367 1627.67 818.122 1644.45 815 1659C810.573 1646.91 807.808 1624.71 814 1613M921 1614C928.263 1624.21 929.607 1639.39 934.698 1650.86C943.063 1669.72 957.097 1686.28 963.336 1706C965.726 1713.56 967.733 1731.01 961.199 1737.08C937.403 1759.18 891.949 1737.69 864 1738.7C855.334 1739.01 836.719 1734.3 835.323 1723.22C834.927 1720.07 845.316 1711.64 847.557 1708.82C857.176 1696.72 869.917 1679.69 883.217 1671.66C888.202 1668.66 891.904 1672.62 897 1668C899.35 1672.19 899.961 1676.37 901 1681C908.192 1672.39 898.073 1668.06 899.898 1659C902.697 1645.1 914.565 1627.02 921 1614M838 1615C847.757 1622.76 879.134 1649.63 880.436 1661.88C881.066 1667.81 869.818 1671.85 866 1675.02C850.898 1687.59 845.192 1708.8 830 1720C826.002 1704.45 831.376 1687.68 832.782 1672C834.422 1653.73 832.024 1632.54 838 1615M911 1619C909.748 1625.5 908.91 1632.26 904 1637C903.375 1630.28 906.486 1623.86 911 1619M854 1624L853 1625L854 1624M526 1679C521.872 1666.19 519.15 1651.19 526.567 1639C528.644 1635.59 533.67 1628.29 538.576 1629.97C549.95 1633.87 531.903 1674.49 526 1679M872 1641L877 1646C874.123 1645.63 872.912 1644.16 871 1642L872 1641M1538 1663L1540 1663C1540.54 1657.22 1541.66 1651.64 1543 1646C1536.44 1649.13 1538 1656.74 1538 1663M889 1661.33C889.889 1661.33 889.889 1662.67 889 1662.67C888.111 1662.67 888.111 1661.33 889 1661.33M875 1675C867.798 1683.89 858.193 1695.77 848 1701C851.665 1691.1 863.813 1675.97 875 1675M815 1694C816.461 1698.44 818.176 1702.7 820 1707C814.493 1704.85 811.832 1699.29 815 1694M178 1702C175.408 1700.27 174.683 1699.04 174 1696C177.059 1697.48 177.842 1698.6 178 1702M176 1703C174.651 1717.15 171.784 1759.54 160 1768C160.474 1749.37 166.62 1720.1 174 1703L176 1703M556.662 1736.6C560.899 1736.78 564.188 1746.81 565.722 1750C570.913 1760.81 582.937 1797.75 559.999 1797.77C532.11 1797.8 524.997 1776.08 538.889 1755C542.303 1749.82 549.172 1736.3 556.662 1736.6M966 1739C953.496 1772.98 888.935 1756.75 867 1744C888.348 1739.43 912.338 1751.17 934 1750.99C945.783 1750.89 955.094 1742.45 966 1739M887 2023C863.318 2029.73 843.239 2041.34 822.68 2054.74C818.199 2057.66 804.662 2065.49 804.643 2071.51C804.631 2074.91 826.24 2087.66 830.008 2089.29C852.497 2099.05 894.848 2117.21 917.951 2098.58C933.01 2086.43 919.022 2057.51 910.354 2044.98C905.049 2037.31 901.104 2026.12 896.567 2019.91C894.364 2016.9 885.451 2014.99 881.751 2010.86C860.463 1987.1 835.866 1959.92 818.277 1933.44C813.727 1926.59 827.571 1918.16 832 1914.3C843.353 1904.43 880.922 1878.93 871.38 1860.01C858.301 1834.07 810.898 1858.58 796 1869.04C791.719 1872.04 777.054 1880.53 777.102 1886.26C777.196 1897.39 798.612 1916.43 805.3 1924.79C830.488 1956.26 858.846 1991.9 887 2023M837 1852.51C846.643 1850.37 872.315 1854.29 867.906 1869C862.399 1887.38 841.691 1900.6 828 1912.46C823.867 1916.04 818.658 1923.9 813.214 1925.24C807.015 1926.77 782.445 1893.51 783.649 1886.89C786.38 1871.88 823.636 1855.46 837 1852.51M1542 1875.52C1475.27 1887.33 1506.53 1986.81 1511.82 2030C1513.48 2043.54 1512 2077.42 1521.74 2087.39C1526.56 2092.31 1531.53 2085.39 1536.78 2086.38C1555.08 2089.84 1568.23 2095.82 1588 2092.48C1623.69 2086.46 1662.43 2068.12 1685.34 2039C1699.18 2021.4 1713.03 2002.95 1726.25 1984.96C1730.44 1979.26 1732.11 1969.16 1737.7 1964.79C1743.89 1959.95 1741.24 1980.29 1746.74 1971.5C1752.25 1962.71 1736.04 1948.54 1730 1944.6C1698.55 1924.05 1652.78 1916.08 1616 1918.06C1599.37 1918.95 1573.36 1931.03 1557.3 1922.94C1552.23 1920.38 1555.45 1911.66 1557.46 1908C1564.25 1895.66 1579.84 1876.59 1554 1875.08C1550.05 1874.85 1545.9 1874.83 1542 1875.52M1535 2082C1516.18 2089.15 1521.04 2056.03 1518.82 2044C1512.91 2012.07 1506 1976.47 1506 1944C1506 1933.67 1503.91 1920.7 1507.94 1911C1513.5 1897.65 1547.23 1860.49 1563.97 1882.6C1568.28 1888.28 1559.4 1898.42 1556.54 1903.01C1549.2 1914.79 1545.02 1930 1556.55 1941.42C1564.68 1949.48 1577.44 1952.86 1584.95 1961.14C1596.71 1974.11 1594.59 1999.85 1592.9 2016C1589.75 2046.18 1574.4 2073.55 1543 2079.3C1538.59 2080.1 1535.76 2075.47 1532.43 2076.01C1529.59 2076.48 1534.49 2081.41 1535 2082M1919 1880.48C1895.4 1883.96 1882.81 1898.4 1873.65 1919C1871.26 1924.38 1865.04 1936.57 1870.02 1942.19C1876.87 1949.92 1907.56 1946.94 1907.26 1963.67C1907.26 1963.54 1860.96 1957.23 1862.32 1970.14C1862.73 1974.11 1876.05 1991.99 1880.18 1992C1889.69 1992.01 1898.73 1977.35 1903.37 1997C1905.62 2006.52 1901.35 2015.64 1900.32 2025C1896.74 2057.61 1887.56 2117.95 1927.04 2132.95C1942.09 2138.67 1954.84 2121.01 1953.52 2107.92C1950.61 2078.98 1929.46 2056.06 1938.2 2025C1942.37 2010.21 1949.76 1996.85 1967.9 2003.17C2000.93 2014.66 1974.52 2080.45 1975.02 2106C1975.26 2118.64 1978.7 2141.98 1996 2140.26C2012.71 2138.61 2022.99 2119.23 2027.36 2105C2038.85 2067.6 2040.43 2025.81 2043.14 1987C2044.04 1974.05 2045.98 1952.56 2036.68 1942.1C2014.16 1916.77 1981.35 1955.34 1956.24 1934.33C1938.27 1919.29 1955.07 1875.16 1919 1880.48M1866 1970C1882.27 1965.93 1897.86 1964.27 1912 1975C1919.19 1941.41 1867.57 1952.35 1875.93 1924C1881.78 1904.18 1894.77 1888.84 1916 1885.6C1922.4 1884.63 1933.09 1883.74 1937.58 1889.64C1948.81 1904.44 1938.32 1929.31 1957.08 1940.19C1982 1954.65 2012.04 1924.51 2032.61 1944.58C2042.6 1954.34 2040.02 1977.34 2039.14 1990C2036.71 2024.67 2032.02 2059.17 2025.1 2093.01C2022.13 2107.54 2016.97 2127.32 2001.99 2134.13C1983.05 2142.74 1979.83 2116.01 1980.02 2103C1980.44 2074.8 2007.41 2005.42 1964.32 1998.12C1948.02 1995.35 1941.98 2004.57 1936.36 2017.32C1922.4 2049.02 1941.81 2072.35 1948.91 2102C1951.29 2111.91 1950.28 2120.44 1941 2125.97C1925.18 2135.4 1908.91 2116.57 1904.49 2102C1898.2 2081.28 1903.18 2047.56 1905.22 2026C1906.17 2015.94 1911.87 2004.98 1907.99 1995C1899.96 1974.35 1891.34 1988.81 1879.48 1985.81C1875.65 1984.85 1868.94 1973.32 1866 1970M1542 2082C1590.42 2080.09 1613.95 2003.05 1592.47 1965C1587.74 1956.63 1549.81 1941.21 1555.9 1929.82C1558.5 1924.96 1587.9 1927.56 1594 1926.54C1610.04 1923.87 1630.85 1920.08 1647 1922.3C1664.74 1924.73 1680.6 1933.32 1698 1936.56C1707.62 1938.35 1733.78 1944.84 1735.24 1957.04C1736.73 1969.59 1715.54 1990.42 1708.38 1999.44C1680.04 2035.08 1652.97 2075.97 1604 2085.06C1591.09 2087.46 1549.4 2098.14 1542 2082M1221 1942.53C1200.82 1943.76 1195.18 1957.63 1187.27 1974C1169.89 2009.95 1175.51 2043.31 1171.68 2081C1170.8 2089.67 1165.98 2131.99 1174.38 2136.46C1176.42 2137.54 1175.25 2114.18 1175.68 2110C1176.38 2103.25 1173.77 2095.62 1175.46 2089.14C1180.7 2069.12 1195.1 2050.62 1200.92 2030C1203.08 2022.35 1205.12 1999.2 1217 2000.89C1226.79 2002.28 1235.28 2010.55 1237.28 2020C1241.18 2038.42 1238.13 2058.29 1240.44 2077C1242.25 2091.61 1249.13 2105.35 1254.17 2119C1257.51 2128.02 1266.68 2152.86 1279 2152.2C1301.86 2151 1302.99 2104.75 1303 2089C1303.02 2044.27 1298.24 1989.8 1260 1959.61C1250.22 1951.89 1234.05 1941.73 1221 1942.53M1176 2074C1172.68 2055.59 1174.99 2033.26 1178.43 2015C1182.01 1995.92 1188.86 1964.98 1204.38 1951.58C1223.24 1935.31 1257.82 1958.58 1269.12 1974.01C1292.77 2006.28 1299 2045.18 1299 2084C1299 2098 1299.51 2144.68 1279.99 2147.83C1268.61 2149.67 1261.25 2125.65 1258.47 2118C1245.87 2083.22 1245.64 2053.06 1240.03 2017C1238.46 2006.91 1219.92 1991.26 1209.42 1998.94C1188.87 2013.97 1195.38 2055.45 1176 2074M394 2075C406.128 2072.51 417.429 2082.14 430 2081.07C449.807 2079.38 470.456 2063.42 491.99 2071.32C502.449 2075.16 498.531 2085.45 503.803 2092.96C511.874 2104.46 536.993 2111.55 549.912 2104.62C564.202 2096.95 560.095 2066.26 553.544 2055C544.3 2039.11 533.248 2039.91 521.501 2031.04C516.544 2027.3 518.827 2018.57 509.999 2018.77C502.945 2018.93 496.943 2025.96 491 2029C489.47 2007.22 461.707 2034.05 455 2039C466.925 1998.57 431.147 2042.51 419 2052C421.572 2045.17 438.324 2025.38 432.478 2017.89C428.718 2013.07 417.298 2026.66 415.078 2029C400.968 2043.85 389.994 2055.57 394 2075M39 2048C35.7904 2046.51 27.341 2038.76 23.9504 2041.34C19.5732 2044.67 21.5961 2060.4 22.672 2065C24.5281 2072.93 30.8394 2078.64 31.7228 2087C33.5692 2104.48 23.7511 2123.61 42.0188 2136.2C45.6879 2138.72 49.686 2138.98 54 2139C91.8205 2139.15 59.5978 2098.99 64.4674 2080.52C70.7675 2056.64 100.456 2066.22 110 2081C103.874 2079.97 93.9287 2076.4 88.8216 2081.86C78.115 2093.3 96.2677 2133.25 112.019 2133.32C147.509 2133.47 131.833 2078.03 168 2075.88C170.991 2075.7 184.219 2076.76 184.919 2080.54C185.649 2084.48 173.638 2091.55 171.926 2096.02C166.221 2110.89 186.056 2126.45 198.217 2131.08C224.007 2140.91 257.066 2116.86 258.86 2090C259.958 2073.58 249.785 2059.52 238.543 2048.48C195.627 2006.32 160.649 2069.92 118 2061.47C100.897 2058.08 99.6314 2042.51 90.5167 2031.16C84.6335 2023.83 70.2019 2019.56 61 2019.24C45.8455 2018.7 39.2379 2035.52 39 2048M430 2022C426.264 2033.79 411.057 2048.75 413 2061C422.283 2054.46 443.201 2022.73 454.448 2024.42C459.949 2025.24 446.822 2042.27 455.285 2042.24C472.759 2042.17 481.543 2007.54 487 2038C491.951 2034.59 506.58 2019.14 513.063 2024.27C516.969 2027.36 514.622 2033.63 520.129 2036.06C529.799 2040.34 535.931 2037.2 543.312 2047.24C551.261 2058.05 566.211 2091.27 546.938 2100.26C535.508 2105.59 514.317 2101.68 507.284 2090.86C501.389 2081.79 505.448 2071.62 492 2067.15C467.981 2059.15 447.853 2077.43 426 2076.41C395.416 2074.99 392.425 2058.89 412.003 2038.01C417.212 2032.45 422.704 2024.64 430 2022M27 2047C34.012 2050.29 36.8117 2055.75 42 2061C44.3939 2048.75 39.1886 2026.79 58 2023.85C90.9533 2018.71 91.21 2059.27 120 2065.18C158.606 2073.1 191.902 2016.49 230.997 2047.84C237.023 2052.67 242.084 2058.69 246.499 2065C253.027 2074.34 256.273 2085.59 253.283 2097C244.87 2129.11 187.069 2144.07 174.883 2106C170.269 2091.58 193.357 2089.55 193.357 2079.42C193.357 2072.8 165.635 2071.15 161 2072.85C137.317 2081.53 136.288 2134.12 110 2129.15C99.741 2127.21 85.3879 2092.14 93.8218 2085.26C105.635 2075.62 114.154 2097.19 120.964 2095.79C125.042 2094.96 117.709 2085.21 116.784 2084C109.774 2074.79 103.801 2066.45 92 2063.21C86.9981 2061.83 82.8338 2062.49 78.0026 2064.13C35.9085 2078.39 84.0796 2112.15 65.2853 2131.41C57.8919 2138.99 41.2901 2134.91 37.5013 2125.68C31.9495 2112.15 38.0147 2098.68 36.6424 2085C35.3058 2071.67 27 2061.89 27 2047M887.785 2027.86C892.63 2027.63 897.875 2035.78 900.69 2039.01C910.292 2050.03 925.588 2075.25 918.558 2090.94C914.431 2100.15 895.705 2100.25 887 2100.74C866.924 2101.87 845.465 2092.82 828 2083.99C824.275 2082.11 811.702 2074.64 811.945 2069.91C812.217 2064.62 824.029 2058.96 828 2056.34C844.666 2045.36 867.012 2028.87 887.785 2027.86z"/>
</svg>
