<?xml version="1.0" standalone="yes"?>
<svg xmlns="http://www.w3.org/2000/svg" width="2200" height="2200">
<path style="fill:#0f0f0f; stroke:none;" d="M1582 46C1575.93 40.9043 1568.23 29.7253 1568 45C1560.37 37.896 1559.08 50.0967 1559 56C1545.71 46.1162 1545.01 33.9431 1545 60C1542.26 57.9336 1526.64 42.5786 1533 55C1530.31 53.5715 1527.99 52.5745 1525 52C1526.13 61.4329 1524.22 71.0876 1525 81C1507.61 62.6868 1505.7 83.2146 1511 98C1503.99 92.7693 1499.79 95.0369 1501 104C1498.52 102.551 1494.36 97.8499 1491.35 98.3203C1481.76 99.8213 1484.68 122.724 1491 127C1495.29 118.551 1492.21 112.124 1491 103C1496.61 107.235 1500.22 116.313 1507 118C1506.47 114.945 1500.89 102.595 1504.82 100.603C1508.25 98.8657 1514.28 109.796 1517.13 103.646C1519.78 97.9255 1511.54 82.7974 1512 75C1532.16 90.03 1530.69 90.1008 1525 67C1530.07 72.2366 1530.88 81.0786 1538 84C1536.46 76.719 1532.11 70.3232 1531 63L1538 68C1537.74 64.7971 1537.06 62.032 1536 59C1540.45 61.5156 1543.57 65.8831 1548 68C1548 62.0405 1547.28 55.9045 1548 50C1552.27 54.6633 1555.13 60.7405 1556 67C1560.75 63.1975 1570.98 45.6907 1571 42C1573.37 44.0481 1579.87 53.521 1583.26 52.2388C1586.67 50.9534 1588.62 34.666 1590.56 31.0027C1596.31 20.1609 1605.29 19.8149 1616 18C1596.02 11.2285 1584.33 28.0977 1582 46M1630 17C1646.46 23.5728 1664.3 25.157 1680 33.4375C1683.81 35.447 1694.67 38.4148 1693.57 44.4985C1692.69 49.3936 1681.21 43.2234 1679 42.2034C1661.73 34.2195 1645.27 29.6658 1627 37.5312C1624.6 38.5657 1612.64 39.8457 1612.64 42.7827C1612.64 45.2546 1623.87 46.1809 1626 47.0874C1637.99 52.2012 1652.41 58.4243 1661.74 67.6399C1672.92 78.6782 1693.1 92.6489 1700.64 106.097C1704.17 112.404 1702.76 121.089 1704.39 128C1710.01 151.855 1712.31 170.61 1711.08 195C1710.36 209.085 1716.5 236.85 1698.04 241.925C1670.02 249.627 1665.88 211.019 1667.14 193C1669.42 160.397 1654.69 140.863 1636.87 115C1617.12 86.3398 1612.37 65.2925 1571.03 72.2871C1554.17 75.1396 1559.76 102.26 1562.79 113C1571.23 142.988 1584.5 170.511 1591.7 201C1593.96 210.59 1601.55 226.101 1598.76 235.863C1593.09 255.652 1559.76 285.139 1539 286.837C1524.9 287.99 1505.22 282.355 1501.44 267C1498.93 256.747 1499.56 200.976 1520.52 210.865C1530.61 215.629 1513.84 246.924 1536 242.312C1579.88 233.181 1565.47 183.387 1532.99 169.363C1516.88 162.403 1499.69 170.266 1484 160C1484.96 173.633 1505.89 171.947 1516 172.003C1533.36 172.098 1558.62 188.975 1559.91 208C1560.76 220.492 1548.19 243.181 1532.1 237.903C1518.65 233.488 1536.31 209.162 1520.93 206.303C1494.2 201.332 1491.28 256.604 1498.34 272.999C1503.8 285.677 1518.44 289.98 1531 291.209C1559.41 293.989 1591.77 262.215 1602.98 238C1607.01 229.291 1599.08 209.796 1596.34 201C1587.94 174.067 1579.81 147.816 1570.22 121C1565.99 109.168 1556.79 85.7012 1571.05 77.1233C1598.13 60.8354 1620.02 89.0298 1629.16 109.68C1637.6 128.739 1653.74 142.834 1660.77 163C1670.02 189.56 1648.84 238.109 1689.22 245.639C1723.68 252.067 1717.9 192.742 1718 171C1718.07 154.959 1711.17 139.66 1708.4 124C1707.2 117.23 1708.27 107.977 1704.2 102.121C1685.3 74.9448 1652.72 59.2781 1626 42C1638.37 38.5518 1649.19 35.4861 1662 39.5679C1670.98 42.4297 1685.98 53.8484 1695.72 49.1777C1705.98 44.2542 1691.38 34.1482 1687 32.2358C1668.1 23.9819 1650.88 17 1630 17M83 254C63.2913 235.827 61.4806 218.863 55.2021 194C44.8594 153.043 47.1562 80.0659 89 57.3572C139.426 29.991 196.669 56.4587 215.835 108C220.772 121.276 225.124 138.72 220.852 152.852C217.483 163.999 195.957 149.717 192.097 144.844C178.581 127.782 181.36 98.0525 166.893 84.2651C161.097 78.7424 148.521 68.2227 140 68.5112C120 69.1887 112.278 100.984 116.341 116C123.008 140.635 154.284 156.106 168.462 177C181.733 196.556 193.162 225.694 201.362 248C205.741 259.911 206.529 271.611 214.822 281.919C222.941 292.011 250.154 304.278 262.672 295.957C271.229 290.268 276.224 276.709 281.089 268C294.351 244.258 302.38 227.245 306.32 200C309.84 175.666 311.996 150.877 304.933 127C287.009 66.4058 225.219 28.313 166 20.2034C148.667 17.8296 126.369 23.5017 109 25.6611C87.6824 28.3115 62.9389 24.9419 43.9624 37.1799C-8.63219 71.0984 24.2815 154.376 41.3567 201C47.3474 217.357 62.7182 253.529 83 254M234 46C227.435 48.1418 221.389 43.9675 217 51C238.314 42.6577 242.778 61.9727 259 67C257.244 64.6982 255.951 62.7334 255 60C259.658 63.0325 266.126 69.7395 257 71C259.891 74.5818 264.027 72.8503 267.562 75.5459C275.43 81.5466 281.356 90.8428 286.738 99C312.365 137.837 307.038 189.041 295.631 232C288.977 257.061 263.522 306.671 232 289.457C209.526 277.184 205.494 245.958 195.96 224C180.102 187.481 162.191 162.865 134.42 134.67C123.508 123.592 116.3 108.971 120.884 93C128.066 67.978 148.774 71.5481 163.676 86.7603C177.718 101.094 175.545 130.834 190.338 147.952C194.751 153.058 218.491 167.79 224.279 159.579C229.358 152.374 226.179 140.067 226 132C225.163 94.3628 193.336 54.0708 157 43.7876C145.871 40.6382 135.16 43.5437 124 44.7827C37.4694 54.3896 38.6391 154.049 57 221C47.6525 214.939 42.8368 194.316 39.244 184C35.5336 173.346 35.0173 162.711 32.1379 152C24.537 123.726 6.2245 78.98 30.268 53.1387C54.4282 27.1721 96.8732 31.2756 129 27C128.324 28.8455 122.171 36.6438 124.593 37.9995C126.66 39.1567 130.719 31.8621 132.375 30.7673C139.168 26.2788 149.154 26.0071 157 26C184.998 25.9749 208.943 33.6809 234 46M384 42C384 76.4648 377.382 119.25 384.284 152.922C386.843 165.407 409.929 174.537 405 189C415.508 189.568 428.499 158.247 437.445 148C439.815 145.286 444.822 137.52 448.841 137.52C452.302 137.52 456.77 144.71 458.93 146.992C468.467 157.07 477.792 167.346 487.756 177.007C489.998 179.182 496.702 189.228 500.247 186.894C504.454 184.125 505.184 172.596 506.646 168C513.029 147.921 513.469 127.797 516.121 107C516.893 100.941 521.775 83.7764 515 82C516.734 78.9636 518.797 76.2925 520 73C514.415 73.5359 510.343 79.1514 504.997 78.8767C494.479 78.3364 485.126 72.4265 474 74C474.311 72.1082 475.669 67.2222 472.576 66.7844C466.264 65.8911 461.659 73.2734 453 70.8369C428.42 63.9204 409.832 45.438 384 42M456 76C453.235 82.7688 444.253 87.7974 439.078 92.9419C424.074 107.857 404.713 132.555 387 143C384.321 125.686 390.05 108.209 390.922 91C391.586 77.8936 387.159 65.7373 385 53C394.303 65.1934 408.404 99.2964 424 103C411.041 89.1575 390.059 65.6062 388 46C412.49 50.3789 431.802 71.728 456 76M783 179C795.409 175.843 783.08 158.882 783.093 151C783.121 132.339 790.97 104.549 809 95.6204C820.313 90.0183 844.416 94.7952 842.866 111C841.883 121.265 835.611 128.632 832.546 138C824.74 161.861 817.963 185.737 811.111 210C807.855 221.53 802.073 233.678 804.431 246C807.857 263.907 825.297 278.699 839.588 288.069C845.554 291.981 858.512 300.396 864 302C866.554 288.573 897.648 287.444 908 278.751C919.766 268.87 936.073 256.722 943.259 242.864C951.475 227.018 951.309 208.46 957.589 192C963.217 177.251 959.363 156.178 978 150.364C1010.47 140.234 989.517 192.277 992.997 204.999C996.293 217.049 1010.93 226.518 1019.8 213.761C1029.44 199.904 1024.36 181.697 1020.52 167C1012.09 134.742 1004.02 91.4353 966 81.4028C932.227 72.4905 902.825 100.78 879 121C885.203 102.01 894.8 83.3328 881.156 64.1362C861.647 36.6882 790.536 41.9832 771.683 69.0083C765.142 78.384 767.493 95.4033 769.25 106C771.151 117.467 769.189 129.838 771.978 141C775.257 154.127 782.865 165.11 783 179M880 109C874.142 103.679 865.112 125.921 865.617 132.971C865.933 137.399 871.439 138.602 871.716 143.137C873.828 177.752 861.583 214.141 861.005 249C860.905 255.037 860.347 290.86 854.852 290.477C846.625 289.904 838.239 282.082 832 277.372C790.195 245.813 819.607 185.666 834.517 145C838.771 133.396 846.579 121.79 846.485 109C846.22 73.0708 798.583 93.8928 789.32 112C783.454 123.467 784.931 138.698 779 149C773.186 133.08 765.103 83.9026 776.519 70.0991C783.852 61.2324 797.498 58.7266 808 55.8303C847.256 45.0044 898.355 57.3599 880 109M149 63C147.234 60.4001 131.119 49.3374 128.761 53.7222C126.908 57.1675 146.28 62.8394 149 63M466 75.6475C469.97 74.5466 501.31 79.9683 500.677 83.9863C500.051 87.9619 491.89 91.9458 489 94.2834C479.18 102.226 462.002 125.165 450.07 127.715C443.261 129.17 428.249 112.676 430.523 106.04C433.818 96.4229 456.182 78.3704 466 75.6475M1303 81.438C1257.71 86.5361 1207.2 99.1357 1175.31 134.665C1162.85 148.542 1146.45 165.678 1155.36 185.982C1161.35 199.623 1187.88 213.347 1201 219.301C1206.25 221.686 1216.3 222.82 1219.88 227.46C1227.55 237.385 1226.26 254.348 1227.14 266C1228.49 283.906 1233.01 299.885 1237.75 317C1238.82 320.837 1239.77 344.231 1244.94 344.016C1248.14 343.882 1245.42 327.899 1246.27 325C1251.27 307.96 1261.18 289.344 1268.62 273C1273.6 262.075 1271.02 231.747 1277.64 225.104C1287.27 215.435 1306.4 211.662 1319 207.683C1322.67 206.524 1333.19 206.794 1334.46 202.698C1336.99 194.526 1329.81 181.029 1328.04 173C1323.24 151.166 1322.4 128.902 1318.92 107C1317.88 100.428 1319.53 89.0764 1315.62 83.5015C1313.05 79.8374 1306.76 81.0144 1303 81.438M507.133 84.2024C517.052 82.2351 513.009 98.0374 512.437 103C510.169 122.684 510.074 143.089 504.054 162C503.061 165.117 501.584 177.77 498.333 178.895C494.896 180.085 488.155 171.97 486 169.922C477.759 162.094 455.749 145.485 453.752 134C452.715 128.036 460.164 122.949 464 119.564C474.349 110.434 493.34 86.9377 507.133 84.2024M946 83.3416C992.782 77.2559 1007.7 130.952 1016.02 166C1019.34 179.966 1027.02 201.072 1013.82 212.626C1004.33 220.924 997.349 205.828 997.043 198C996.574 186.001 1004.54 174.331 1003.54 163C1002.51 151.294 986.142 140.25 975 146.09C954.882 156.635 953.869 188.347 949.162 209C940.859 245.436 909.965 287.695 868.149 289.563C862.099 289.833 864.985 276.684 865.001 273.001C865.075 255.35 867.082 236.801 868.081 219C869.221 198.653 873.161 178.273 875.559 158C876.489 150.138 874.451 139.206 877.145 132C884.221 113.064 926.401 85.8911 946 83.3416M1276 221C1283.52 200.608 1311.28 202.767 1322 188C1310.92 189.292 1299.57 195.887 1291 202.726C1287.96 205.155 1280.86 213.326 1276.68 212.678C1273.29 212.151 1268.77 190.72 1267.34 187C1260.31 168.714 1255.24 152.209 1245.11 135C1240.12 126.526 1230.94 119.807 1227 111C1231.75 112.626 1235.42 115.999 1240 118C1238.97 115.441 1231.97 110.573 1232.76 108.39C1238.63 92.1748 1276.4 90.6484 1289.78 87.4802C1294.88 86.2734 1304.34 82.696 1309.31 85.5801C1314.41 88.5344 1312.69 101.951 1313.52 107C1317.2 129.545 1318.01 152.741 1324.03 175C1325.43 180.166 1332.07 195.316 1328.65 200.063C1326.5 203.062 1318.4 203.428 1315 204.727C1301.54 209.867 1288.91 214.441 1276 221M2082 201C2078.53 188.707 2046.15 197.948 2036.44 190.237C2032.14 186.82 2036.78 172.853 2037.74 168C2039.14 160.952 2038.09 148.975 2041.94 143.07C2048.72 132.672 2075.66 135.032 2087 131C2076.64 120.216 2058.87 136.755 2046.28 133.604C2041.35 132.369 2036.74 119.326 2031.96 115.755C2015.61 103.557 1978.1 104.321 1967.96 125.019C1956.69 148.026 2013.08 141.621 2022 140.68C2026.35 140.22 2036.03 137.645 2037.03 144.081C2037.83 149.172 2034.56 155.98 2033.57 161C2032.49 166.471 2032.07 184.835 2027.5 187.814C2015.84 195.417 1986.34 170.711 1972.84 184.604C1943.4 214.91 1979.49 239.768 2010 237.558C2033.08 235.886 2021.57 203.943 2034.8 196.536C2042.61 192.164 2071.81 201 2082 201M424.974 111.283C429.535 110.634 445.21 128.71 444.685 133.078C443.899 139.607 415.647 174.162 408.957 174.311C403.992 174.422 399.422 165.299 396.659 162C384.47 147.446 406.344 113.932 424.974 111.283M1219 112L1216 113L1219 112M2003 112.457C2009.68 112.198 2048.39 121.318 2036.16 134.178C2030.71 139.909 2009.55 137.398 2002 137.782C1994.75 138.152 1974.97 139.682 1971.89 130.872C1967.28 117.665 1995.01 112.766 2003 112.457M1210.44 114.405C1214.36 115.065 1214.62 133.508 1214.86 137C1216.35 158.29 1215.06 179.749 1217.7 201C1218.19 204.953 1222.65 220.089 1215.85 219.673C1191.06 218.155 1155.89 191.005 1158.11 166C1159.64 148.62 1181.69 131.177 1195 122.387C1198.36 120.166 1206.25 113.698 1210.44 114.405M1224 115C1248.61 138.685 1268.21 181.685 1270.49 215.992C1270.89 221.87 1261.44 224.859 1262.2 228.588C1262.83 231.719 1268.55 226.779 1270.22 229.641C1273.44 235.176 1270.11 245.917 1270 252C1269.72 268.348 1258.94 284.864 1253.36 300C1252.24 303.01 1249.24 314.98 1245.17 314.998C1240.03 315.02 1237.1 290.908 1236.38 287C1233.75 272.717 1233.26 258.246 1230.92 244C1230.33 240.426 1227.16 231.223 1230.26 228.3C1233.03 225.693 1244.17 228 1248 228C1243.62 221.607 1232.46 226.673 1229.06 220.499C1225.7 214.385 1227.16 200.034 1227.02 193C1226.56 170.497 1218.52 136.175 1224 115M1487 115L1489 119C1487.59 117.481 1487.15 117.011 1487 115M1219 119C1219.99 146.907 1221.3 176.199 1224 204C1213.9 194.413 1219.43 151.866 1218.96 138C1218.75 131.876 1215.69 124.516 1219 119M874 125C873.055 127.694 872.243 129.238 870 131C871.029 128.42 872.012 126.94 874 125M1984 186.369C1992.34 185.284 2021.48 187.714 2027.03 194.729C2031.6 200.502 2019.29 229.715 2011.98 230.794C2001.42 232.352 1978.41 230.401 1971.11 221.796C1961.78 210.799 1969.94 188.199 1984 186.369M166.407 388.543C164.264 389.758 164.438 395.44 167.457 394.24C170.151 393.168 169.372 386.861 166.407 388.543M195 424L199 423C198.201 431.087 204.907 424.912 204.241 420.206C203.119 412.286 195.355 419.038 195 424M1162 431C1162.89 449.093 1183.77 459.933 1185.24 476.041C1187.83 504.604 1181.9 537.292 1179.86 566C1179.21 575.232 1174.04 590.086 1177.82 598.823C1180.93 605.988 1193.41 610.346 1200 613.477C1223.37 624.578 1245.52 629.449 1271 632.438C1284.69 634.044 1298.77 635.132 1312 639.097C1315.4 640.116 1323.83 645.686 1327.14 643.544C1332.19 640.269 1325.58 605.585 1323.41 600C1311.38 569.055 1310.22 538.42 1305.7 506C1304.23 495.453 1297.18 480.147 1298.36 470C1299.8 457.564 1307.93 443.831 1313.81 433.003C1315.43 430.02 1321.84 423.291 1318.15 419.939C1310.92 413.368 1287.36 421.532 1280 424.799C1249.4 438.377 1223.42 465.141 1187.18 464.455C1173.24 464.191 1172.54 435.969 1162 431M200 422L199 423L200 422M1313 423C1310.33 434.184 1302.62 444.135 1298.73 455C1289.35 481.254 1281.8 508.091 1271.48 534C1269.12 539.916 1265.29 566.814 1259.4 568.894C1254.98 570.454 1244.63 551.186 1242.12 547.864C1228.71 530.086 1215.67 512.578 1203.39 494C1199.83 488.621 1190.68 478.628 1190.73 472.089C1190.81 460.784 1217.33 462.132 1224 460.835C1257.92 454.244 1276.14 423.34 1313 423M1542 491C1579.7 488.725 1533.95 474.536 1536 487C1517.13 488.805 1536.99 516.502 1527.06 524.858C1521.45 529.581 1485.75 520.535 1484.79 526.217C1483.64 532.933 1522.9 527.788 1525.58 531.822C1529.83 538.21 1521.45 565.026 1522.16 574C1525.5 616.005 1566.83 609.105 1598 608C1593.27 621.53 1604.6 622.323 1599 607C1609.37 606.632 1625.75 609.777 1634.86 604.297C1647.38 596.767 1639.74 556.429 1638 544C1637.38 539.595 1633.88 527.542 1637.82 524.257C1643.41 519.606 1659.09 521.008 1666 521C1684.55 520.978 1703.1 516 1722 516C1726.12 516 1748.77 518.818 1750.46 516.075C1752.65 512.513 1744.86 511.227 1743 511.225C1731.72 511.215 1720.33 512 1709 512C1691.55 512 1674.38 514.584 1657.08 516.118C1651.3 516.631 1642.89 520.929 1637.24 518.401C1628.78 514.612 1632.35 491.775 1624.48 484.509C1617.6 478.159 1601.26 486.209 1592.5 481.181C1587.71 478.434 1589.16 451.241 1587.61 445C1587.12 443.014 1585.75 434.621 1582.44 435.323C1579.57 435.934 1584.89 460.418 1585.08 464C1585.32 468.582 1587.71 475.323 1586.08 479.718C1583.84 485.804 1574.64 480.787 1571.28 485.606C1565.92 493.304 1575.15 519.286 1566.58 523.95C1540.2 538.3 1544.52 505.24 1542 491M170 447L171 448L170 447M1296 479C1297.22 531.845 1313.92 585.701 1323 637C1287.87 634.088 1246.06 628 1214 613.615C1204.48 609.343 1187.45 606.646 1182.52 595.914C1179.02 588.29 1183.73 575.175 1183.99 567C1184.88 538.596 1190.6 509.399 1188 481C1195.69 484.092 1201.01 496.269 1205.5 503C1217.24 520.636 1230.13 537.209 1242.77 554.217C1245.5 557.897 1255.97 579.029 1261.6 576.464C1265.48 574.695 1265.9 565.62 1267.19 562C1272.49 547.231 1275.84 531.805 1281.25 517C1285.81 504.55 1292.5 492.505 1293 479L1296 479M1590 490C1588.13 498.729 1595.2 533.002 1575.82 523.042C1570.48 520.298 1572.73 492.586 1576.82 489.26C1582.26 484.835 1614.21 485.685 1620.48 488.047C1625.26 489.845 1632.88 514.07 1629.68 518.219C1626.92 521.798 1597.37 523.579 1593.9 520.7C1588.62 516.32 1594.63 497.179 1590 490M1535 528C1533.43 523.261 1534.17 518.899 1533.92 514C1533.74 510.598 1532.82 507.358 1532.36 504C1528.75 477.72 1550.37 517.899 1535 528M597 499C551.41 502.824 507.163 507.878 462.008 514.268C454.561 515.321 421.709 525.448 427.093 536.507C428.789 539.991 436.741 541.792 439.992 543.817C460.463 556.564 512.06 552.674 515.389 581.074C515.964 585.973 505.032 594.704 501.717 597.981C488.849 610.703 477.039 624.659 469.122 641.003C467.357 644.645 456.919 656.771 459.891 660.078C463.989 664.638 478.917 664.84 485 666.742C513.294 675.585 543.527 676.617 573 675.155C578.631 674.876 598.578 683.958 601.588 680.156C606.158 674.386 592.262 656.107 587.957 652.617C568.397 636.76 528.84 608.395 530.11 579.003C530.837 562.186 560.516 530.597 573.04 520.504C580.831 514.225 594.529 509.696 597 499M129 503C117.472 508.594 126.152 513.782 129 503M586 503C583.404 512.29 572.166 516.213 565.321 522.077C556.133 529.95 550.523 541.034 543.607 550.776C541.208 554.154 534.891 563.769 530.946 564.914C525.281 566.558 517.172 555.652 513 553L516 563C497.026 559.727 468.305 554.625 451.04 546.034C447.537 544.291 431.224 536.602 434.106 531.71C440.641 520.615 464.144 520.157 475 518.359C494.485 515.134 513.215 509.432 533 507.321C550.812 505.421 568.504 507.17 586 503M842 504C838.908 511.418 845.026 515.789 849.681 521C860.657 533.288 870.497 545.559 880 559C863.842 554.133 830.016 543.659 814 551C824.827 560.589 850.93 563.491 865 567.662C868.376 568.662 880.777 570.163 882.239 573.575C883.503 576.526 873.726 578.519 872 579.22C865.661 581.795 833.216 584.368 831.33 587.372C826.808 594.573 844.299 591.083 847 590.864C864.098 589.475 878.275 576.481 895 576C881.871 605.888 841.853 623.419 831 654C857.408 652.443 868.083 624.236 879.494 605C881.817 601.086 893.698 581.949 898.723 583.081C901.052 583.606 901.789 593.906 902.176 596C904.797 610.174 905.408 623.114 910 637C916.789 633.038 912.84 627.253 914.842 621C919.616 606.087 926.67 591.957 931.248 577C932.302 573.56 937.905 562.947 935.674 559.918C926.967 548.1 901.865 558.226 892 553.468C872.191 543.914 857.01 519.393 842 504M1592 530C1589.37 533.234 1572.02 536.491 1574.97 529.462C1576.61 525.548 1598.57 524.944 1603 524.438C1609.82 523.66 1624.79 520.064 1630.52 524.822C1634.79 528.373 1633.88 536.052 1634.44 541C1635.9 553.882 1641.83 587.854 1634.58 598.653C1631.16 603.733 1604.2 605.615 1600.32 601.1C1598.42 598.896 1598.65 593.764 1598.33 591C1598.03 588.336 1598.06 585.673 1597.92 583C1596.68 559.332 1616.26 582.265 1625.18 573.362C1629.35 569.198 1627.09 530.078 1622.5 527.175C1614.18 521.917 1601.32 534.201 1592 530M92 531C94.364 530.518 94.5176 530.364 95 528C92.8763 528.899 92.8993 528.876 92 531M1564.97 528.428C1572.93 528.32 1567.54 535.798 1572.5 538.564C1577.11 541.128 1587.63 534.22 1591.18 539.822C1593.38 543.297 1590.1 560.866 1594.34 561.919C1597.4 562.677 1596.03 549.729 1595.94 548C1595.38 537.47 1605.69 526.612 1618.5 530.587C1621.23 531.436 1623.74 567.042 1619.5 568.421C1605.1 573.098 1579.5 566 1564 566C1558.44 566 1550.02 567.509 1545.29 563.937C1540.48 560.305 1539.5 534.582 1544.81 530.685C1549.17 527.495 1559.75 528.498 1564.97 528.428M1534.99 530.752C1540.23 529.555 1536.07 562.398 1541.73 567.178C1553.01 576.721 1584.49 559.445 1593.66 572.861C1595.88 576.103 1593.86 583.171 1594.14 587C1594.51 592.244 1598.22 600.787 1591.85 603.613C1567.46 614.44 1532.28 602.997 1527.46 577C1526.06 569.42 1525.68 532.882 1534.99 530.752M156 540C157.665 542.796 158.945 543.879 162 545C160.554 541.93 159.26 540.924 156 540M89.9376 541.932C86.5267 542.952 78.9413 552.668 86.0142 551.358C90.6005 550.509 97.895 539.551 89.9376 541.932M849 557C854.051 557.008 889.846 560.419 887.894 566.476C885.951 572.509 852.23 560.865 849 557M910 621C903.345 608.11 901.097 571.53 906.075 558.829C907.983 553.962 927.464 560.903 929.135 564.526C933.807 574.655 914.436 610.693 910 621M525 566C526.267 567.543 526.489 568.048 527 570C525.004 568.756 524.443 568.308 525 566M519.439 571.641C521.82 571.641 523.647 576.997 520.835 576.997C518.55 576.997 516.815 571.641 519.439 571.641M598 677C564.03 668.2 524.525 676.124 491 663.475C486.333 661.714 468.823 659.572 466.365 656.722C463.148 652.993 473.156 642.377 474.783 638.922C482.226 623.115 495.416 611.648 506.775 598.788C510.125 594.995 514.935 586.539 520.348 585.627C529.078 584.154 534.143 603.839 537.966 609.521C553.466 632.563 591.591 650.157 598 677M869 615C865.084 626.659 854.884 640.88 843 645C847.438 634.429 859.738 621.599 869 615M1724 689C1724.55 690.635 1724.36 690.455 1726 691C1725.23 689.825 1725.18 689.773 1724 689M427 1065C428.175 1064.23 428.227 1064.18 429 1063C427.365 1063.55 427.545 1063.36 427 1065M1726 2149C1726.52 2152.63 1727.54 2153.79 1731 2155C1729.95 2151.85 1729 2150.46 1726 2149z"/>
</svg>
