<?xml version="1.0" standalone="yes"?>
<svg xmlns="http://www.w3.org/2000/svg" width="2200" height="2200">
<path style="fill:#0f0f0f; stroke:none;" d="M514.048 40.0979C504.128 43.238 502.23 81.3542 501.212 91C495.537 144.812 494.949 200.828 492.079 255C491.302 269.657 490.299 285.483 492.938 300C493.773 304.59 495.517 313.476 502.013 312.167C517.251 309.096 514.48 275.367 517.46 264.217C523.9 240.113 521.354 213.672 523.137 189C525.388 157.849 531 127.36 531 96C531 80.9375 532.102 65.8103 525.526 52C523.244 47.2085 521.49 37.7419 514.048 40.0979M499 309C497.059 241.5 501.755 173.079 504.04 105C504.546 89.9392 507.221 72.6211 510.676 58C511.295 55.384 512.505 42.8477 516.697 44.1057C529.209 47.8604 526.942 92.8596 526.997 103C527.277 154.204 520.561 209.156 514.44 260C512.813 273.513 513.679 302.617 499 309M856 181C846.818 175.484 842.736 161.404 838.562 152C828.737 129.866 818.827 95.5989 796 83C789.33 95.6707 795.514 108.481 810 114C808.854 110.889 792.358 94.7817 797.475 91.6248C802.111 88.7642 817.012 114.148 818.907 118.019C834.677 150.229 853.135 180.614 853 216C835.705 191.824 824.702 161.225 810.61 135C805.074 124.697 799.405 109.252 790 102C791.45 114.685 801.71 126.92 807.624 138C822.356 165.602 839.828 194.728 850.105 224.32C860.103 253.11 841.784 289.79 848.365 319.989C850.291 328.824 861.866 329.456 865.889 321.937C871.511 311.432 871.778 294.722 873 283C879.352 289.805 880.981 299.578 886.835 306.804C895.352 317.318 905.914 308.153 902.741 297C896.123 273.732 877.074 244.855 877.016 221C876.924 183.836 889.623 146.16 885.438 109C884.339 99.2375 885.261 81.0183 877.256 73.792C870.345 67.5527 863.279 93.4983 861.596 98.0779C853.064 121.295 853.738 156.713 856 181M875 76C886.833 123.239 874.001 166.465 874 214C869.82 213.109 856.949 187.988 857.111 183C858.242 148.109 860.675 108.961 873 76L875 76M1260 159C1257.16 138.632 1236.34 118.24 1222.86 104.01C1218.52 99.4275 1205 89.4749 1200.89 100.196C1199.73 103.217 1214.12 116.589 1216.65 121C1227.9 140.64 1242.67 157.866 1253.3 178.003C1256.37 183.829 1263.02 189.862 1263.68 196.639C1264.58 205.874 1244.33 221.217 1238.76 228C1228.11 240.945 1209.4 261.85 1204.93 278C1202.9 285.308 1209.32 290.651 1207 298C1226.92 298.935 1248.99 259.615 1264 248C1264 265.141 1262.74 284.093 1265.52 301C1266.38 306.275 1267.4 315.445 1273.4 317.547C1279.39 319.645 1287.44 308.667 1289.16 303.999C1295.36 287.196 1293 267.552 1293 250C1305.99 261.778 1311.29 282.073 1324.02 294.997C1327.75 298.781 1334.6 307.229 1340.85 305.073C1350.75 301.66 1341.5 284.942 1338.56 279.993C1328.45 262.949 1319.4 245.82 1310.72 228C1308.25 222.924 1300.79 214.716 1301.24 209C1301.95 200.048 1316.34 189.144 1321.43 182C1333.85 164.544 1348.27 147.055 1354.12 126C1355.95 119.411 1354.71 99.9653 1343.08 105.435C1333.11 110.119 1325.1 124.624 1318.58 133.136C1311.79 142 1305.31 152.54 1297 160C1298.35 137.507 1299.02 118.259 1290.79 97C1287.2 87.7371 1277.83 72.2146 1268.21 87.0674C1256.14 105.687 1274.33 142.398 1260 159M162 84C169.09 94.8965 183.164 97.7954 194 103.506C209.302 111.571 223.593 123.422 233.192 138C247.317 159.452 250.921 200.836 243.009 225C237.421 242.067 220.407 257.305 200.008 247.278C182.259 238.553 187.414 204.652 189 189C189.814 180.96 193.106 168.792 183 166C183.962 181.096 185.612 206.372 175.251 218.901C168.361 227.232 149.423 234.939 140.878 224.794C129.368 211.128 134.745 162.739 158.992 165.394C173.672 167.001 166.078 181.798 174 188C174.221 164.072 158.902 151.76 140.163 173.314C121.734 194.511 126.998 247.226 165 232.678C173.085 229.582 176.465 222.676 183 218C183.004 246.597 216.787 272.713 240.896 245.158C250.502 234.178 251 210.673 251 197C251 149.234 228.964 110.676 183 93.603C175.515 90.8228 170.214 84.5405 162 84M1278.32 85.1057C1284.85 83.4766 1287.94 100.871 1289.67 105C1296.16 120.458 1296.83 146.432 1294.08 163C1293.22 168.164 1286.83 178.96 1281.02 179.574C1275.35 180.174 1267.27 166.716 1266.45 162C1263.2 143.413 1267.69 118.863 1269.07 100C1269.39 95.5972 1273.49 86.3115 1278.32 85.1057M1206 98C1207.82 100.034 1208.44 101.326 1209 104C1205.88 102.773 1204.97 101.258 1206 98M1212 100C1235.75 115.519 1265.21 154.861 1263 184C1248.53 170.263 1237.35 145.695 1225.98 129C1221.89 123.003 1215.76 115.428 1218 108C1213.74 106.958 1211.58 104.491 1212 100M1953 140C1941.31 164.964 1942.73 201.996 1939.21 229.136C1937.97 238.722 1940.95 251.008 1936.28 259.901C1931.23 269.496 1913.02 272.118 1905.1 280.097C1898.16 287.088 1891.98 306.773 1897.82 315.959C1908.78 333.183 1937.7 330.887 1955 332.137C1998.98 335.315 2036.08 338.447 2079 325.58C2092.76 321.453 2117.64 310.92 2122.39 295.993C2126.24 283.89 2107.17 277.206 2098 275.623C2068.43 270.521 2025.7 262.404 1996 267C2000.86 273.741 2012.61 271.549 2020 272.32C2042.65 274.683 2065.29 277.901 2088 279.078C2095.33 279.457 2116.53 282.682 2118.8 291.495C2122.32 305.198 2082.39 320.367 2073 323.135C2030.48 335.671 1985.54 332.577 1942 327.436C1928.99 325.899 1904.14 324.986 1899.39 309.438C1887.14 269.404 1948.76 271.211 1968 269.306C1974.31 268.681 1983.79 273.85 1989.24 269.178C1995.56 263.756 1996.1 251.513 1998.17 244C2003.15 225.937 2008.12 207.507 2017 191C2013.96 190.225 2011.14 190.029 2008 190C2015.73 173.403 2015.33 155.468 2019 138C2036.57 151.67 2039.91 144.286 2043.91 126C2044.73 122.279 2050.5 108.148 2046.41 105.84C2028.19 95.542 1987.69 106.194 1967 104.861C1959.54 104.381 1946.18 100.976 1939.24 103.862C1934.92 105.658 1924.66 130.125 1928.02 133.761C1932.91 139.06 1946.43 137.966 1953 140M1296 204C1297.54 192.526 1294.51 178.948 1297.59 168.007C1301.29 154.829 1318.54 138.752 1327.1 128C1329.83 124.575 1343 105.396 1348.22 109.098C1355.62 114.356 1348.31 129.886 1346.26 136C1340.16 154.169 1314.12 196.746 1296 204M2043 110C2042.07 116.137 2039.92 137.359 2034.32 140.501C2027.43 144.364 2021.43 129.904 2015.21 139.097C2010.38 146.222 2015.52 168.208 2007.22 172.073C2001.84 174.579 1990.77 164.108 1985.98 161.82C1968.39 153.406 1950.7 160.521 1960 136C1953.23 135.938 1941.24 136.372 1935.73 131.826C1929.92 127.029 1936.95 111.324 1943.05 109.501C1952.12 106.791 1962.78 110.204 1972 109.903C1995.71 109.128 2019.27 109.545 2043 110M1568 145C1568 140.299 1573.31 123.899 1570.77 121.146C1564.71 114.587 1565 142.231 1565 144C1565.02 166.702 1564.86 190.525 1561.52 213C1559.9 223.944 1553.42 241.877 1558.94 252.576C1561.64 257.809 1574.92 256.935 1580 256.993C1601.55 257.238 1622.59 261.819 1644 262.922C1648.94 263.177 1664.58 265.359 1667.48 260.256C1673.27 250.091 1667 218.334 1667 206C1667 187.867 1675.27 148.785 1666.5 133.107C1662.43 125.836 1651.89 128.467 1645 126.956C1626.39 122.878 1599.02 110.222 1580.46 122.239C1572.07 127.677 1575.03 139.691 1568 145M1611 187C1619.32 182.491 1620.74 191.611 1614.68 196.06C1597.24 208.854 1601.61 176.594 1603 170C1601.03 171.778 1599.2 173.531 1597 175C1598.19 157.572 1622.05 149.373 1632 165.059C1643.11 182.574 1632.85 236.102 1604.08 227.388C1578.61 219.674 1574.6 177.104 1574.74 156.562C1574.8 148.882 1573.93 132.195 1581.28 127.209C1598.33 115.643 1628.61 125.23 1646 131.184C1651.28 132.991 1661.81 131.474 1664.18 137.073C1671.14 153.578 1662.42 187.505 1663.04 206C1663.4 216.795 1669.4 247.536 1662.5 256.178C1656.01 264.299 1625.86 254.653 1617 254.085C1604.61 253.29 1575.05 257.005 1564.82 250.197C1561.33 247.872 1562.8 237.602 1563.18 234C1564.53 220.917 1561.96 190.506 1567.75 179.649C1569.79 175.823 1574.74 193.003 1575.53 195C1581.72 210.71 1600.44 244.206 1621.67 228.256C1637.69 216.222 1645.09 187.505 1637.57 170C1634.17 162.083 1626.15 149.96 1616 151.498C1594.97 154.684 1584.02 187.562 1603.1 200.06C1611.6 205.624 1624.02 197.014 1621.46 187.03C1619.72 180.277 1612.31 180.422 1611 187M2008 177C2003.84 197.61 1987.81 186.3 1973 183.5C1967.22 182.407 1956.25 182.735 1951.94 178.198C1939.51 165.093 1960.91 160.011 1969 161.642C1973.74 162.597 1978.39 163.553 1983 165.057C1991.86 167.947 1998.74 176.157 2008 177M1267 171C1275.19 179.417 1280.4 186.377 1268 194C1266.44 187.322 1264.93 177.619 1267 171M1294 174L1294 196C1283.17 191.564 1283.1 178.316 1294 174M2010 194C2005.18 211.075 1998.56 227.896 1993.57 245C1991.92 250.661 1991.41 260.125 1986.44 264.042C1982.06 267.495 1972.41 264.738 1967 265.457C1960.2 266.36 1949.44 270.332 1943.51 265.079C1939.3 261.353 1942.82 253.731 1943.06 249C1943.87 233.227 1945.93 217.696 1947.06 202C1947.35 197.9 1946.99 186.903 1950.92 184.439C1954.13 182.427 1963.42 186.336 1967 187.119C1980.98 190.178 1995.69 195.895 2010 194M1279.82 189.316C1291.12 188.043 1300.57 218.29 1284.05 220.456C1277.73 221.284 1263.78 191.123 1279.82 189.316M857 194C875.186 212.821 871.035 237.818 871 261C865.789 259.482 863.244 248.864 861.602 244C856.659 229.359 849.721 209.073 857 194M1268 203C1277.99 214.783 1283.56 228.085 1268 237C1268 228.137 1264.24 210.485 1268 203M1264 207C1264 216.761 1266.99 231.92 1263.64 241C1259.08 253.359 1242.02 261.958 1233 271.001C1228.89 275.124 1217.53 292.518 1210.53 287.149C1202.99 281.363 1213.15 270.086 1216.74 265C1228.33 248.601 1245.05 214.776 1264 207M1297 213C1306.65 223.542 1311.31 239.411 1317.76 252C1326.32 268.7 1339.31 282.45 1340 302C1311.88 292.543 1288.43 240.339 1297 213M1294 219C1293.04 223.451 1292.82 227.782 1291 232C1286.19 226.801 1287.24 221.488 1294 219M1282.3 230.283C1287.85 229.749 1290.91 242.049 1290.62 246C1289.31 263.426 1290.16 281.739 1286.8 299C1285.86 303.785 1280.16 312.997 1274.49 312.997C1270.39 312.997 1269.1 296.196 1269.02 293C1268.67 279.543 1261.22 232.309 1282.3 230.283M854 238C868.298 258.923 869.406 278.106 866.304 302C865.561 307.728 864.951 325.241 855.458 323.949C849.185 323.095 851.999 308.143 852 304C852.006 284.469 848.615 256.486 854 238M878 240C882.896 256.674 890.79 272.408 895.916 289C896.937 292.303 901.181 304.108 897.161 306.534C891.321 310.059 884.974 295.492 883.258 292C876.388 278.026 868.661 254.918 878 240M508 393.557C499.842 395.169 490.312 397.509 483.04 401.617C445.332 422.921 458.081 476.73 470.498 510C473.63 518.394 481.327 529.618 482.377 538.217C484.01 551.605 464.272 573.173 462.027 588C455.827 628.934 481.448 653.159 517 666.078C527.174 669.775 537.744 675.391 549 673.262C593.938 664.761 617.906 599.468 618.241 560C618.335 549.05 610.525 536.246 611.915 526C612.899 518.756 621.613 513.086 625.959 507.823C637.849 493.423 653.277 476.653 653.903 457C654.421 440.718 643.67 430.475 631 421.796C622.951 416.282 612.044 418.522 603 415.495C580.91 408.102 559.784 402.765 537 398.241C526.847 396.226 518.778 391.427 508 393.557M535 517C548.95 525.396 602.349 509.447 604 532C618.22 531.283 613.507 568.926 612.864 578C610.663 609.037 582.117 666.786 546 668.911C534.897 669.565 521.936 664.603 512 659.976C501.93 655.287 490.383 651.361 482.117 643.625C457.509 620.596 466.507 586.532 476.788 559.999C487.716 531.795 515.528 501.786 547 514C538.339 500.23 522.289 506.042 511 513.04C508.296 514.716 499.712 524.509 496.608 521.108C491.617 515.642 489.989 504.008 488.778 497C485.834 479.969 470.918 447.234 488.003 434.564C496.903 427.964 515.329 432.581 526 432.904C550.436 433.642 599.153 417.266 612.178 451.001C619.819 470.792 598.513 496.895 588 511C612.619 505.513 623.732 453.015 605.126 438.503C580.615 419.385 558.972 427.338 531 427.981C519.591 428.243 504.827 424.887 493.922 427.414C463.405 434.487 481.479 486.72 487.145 506C488.733 511.404 499.48 532.68 487.353 533.016C479.767 533.226 473.751 506.638 471.662 501C460.7 471.417 453.175 421.996 486.019 404.448C520.363 386.098 570.394 411.175 604 420.742C620.368 425.402 638.25 424.64 647.237 443.118C657.139 463.477 639.733 482.818 628.554 498C623.695 504.6 614.937 517.358 608.2 521.711C603.194 524.946 592.522 516.389 587 515.489C571.676 512.991 550.127 513.754 535 517M931 575C960.37 555.037 931.623 605.881 919.846 584.802C908.745 564.933 930.909 545.968 948 544.938C953.579 544.602 960.427 539.048 964.458 545.214C969.068 552.264 966.746 562.407 965.121 570C962.506 582.22 958.067 596.587 945.959 603.094C921.299 616.347 892.751 602.049 893.026 574C893.405 535.426 967.51 464.018 986.844 526C997.47 560.064 981.283 607.932 955.864 631.542C923.553 661.556 885.624 644.064 873.685 606C859.741 561.54 868.128 502.494 908.93 476.703C928.301 464.458 955.333 460.867 978 461.836C985.273 462.148 999.954 464.745 1003 472C1026.58 470.281 1032.41 524.336 1030.68 541C1025.75 588.353 1011.29 622.251 975.438 652.636C963.484 662.768 950.639 675.882 934 676.915C923.043 677.594 912.727 675.804 902 673.914C814.171 658.433 833.963 539.077 865.116 482C879.601 455.461 905.411 421.749 940 424.617C947.507 425.24 951.507 430.374 958 433C955.389 421.556 943.069 419.919 933 420.907C913.236 422.845 893.277 435.113 880.26 450.001C839.523 496.592 812.779 594.722 849.626 650.981C870.87 683.416 936.305 692.513 964.921 668.146C978.227 656.817 993.437 649.001 1004.28 635C1034.19 596.4 1051.56 516.694 1019.76 474.241C994.849 440.994 925.498 458.37 899 478.499C857.891 509.727 849.799 594.835 881.839 636.68C899.71 660.02 939.802 654.517 958.959 635.914C988.86 606.878 1009.66 544.219 982.013 507.871C967.213 488.413 945.918 495.51 928.922 507.886C903.526 526.377 878.99 562.464 891.799 594.783C899.128 613.274 934.16 617.152 949.992 606.912C967.246 595.752 975.405 565.21 970.551 546.008C968.127 536.42 957.726 537.028 950 538.427C934.362 541.256 919.16 547.32 914.629 565C906.901 595.156 941.555 606.014 949.211 576C952.804 561.911 930.228 558.792 931 575M1968 687C1970.91 671.601 1965.91 651.041 1966 635C1966.15 607.112 1966 600.976 1995 595.742C1999.24 594.975 2011.72 590.017 2014.94 593.832C2017.85 597.272 2015.88 616.801 2015.98 622C2016.56 650.514 2016.18 680.329 1978 673C1981.26 686.241 2010.39 674.38 2016.24 667.656C2025.81 656.653 2020.38 623.954 2020.9 609.742C2021.06 605.304 2019.29 596.455 2022.26 592.822C2026.27 587.912 2050.18 590.295 2056 591.652C2058.35 592.199 2066.28 595.975 2067.89 592.459C2069.08 589.869 2059.46 588.289 2058 587.922C2049.19 585.714 2031.86 591.281 2024.64 586.48C2020.58 583.779 2022.4 545.849 2024.38 540.644C2026.65 534.686 2060.14 530.899 2067 529.725C2068.94 529.393 2080.36 530.64 2080.36 528.787C2080.36 524.281 2070.96 523.006 2068 523.647C2062.92 524.747 2025.71 526.414 2023.74 523.01C2017.26 511.803 2026.23 475.714 2030.16 464C2031.07 461.29 2039.42 448.869 2038.9 447.586C2036.13 440.834 2002.47 443.314 1996 442.915C1989.79 442.531 1974.45 435.113 1969.56 438.87C1964.36 442.879 1966.93 451.506 1966.99 457C1967.18 474.016 1968 490.95 1968 508C1968 511.936 1970.78 523.807 1967.86 526.598C1964.53 529.767 1954.19 526.172 1950 526.041C1934.13 525.545 1917.97 526 1902 526C1898.82 526 1883.43 523.976 1881.76 526.675C1880.22 529.173 1899.03 530.971 1901 530.993C1917.53 531.177 1935.7 529.487 1952 531.236C1956.15 531.681 1965.26 531.457 1968.16 534.704C1972.11 539.128 1967.87 548.198 1966.75 553C1963.82 565.607 1968.64 579.046 1965.04 591.989C1962.73 600.274 1955.77 598.188 1949 597.081C1929.33 593.867 1912.4 593.802 1893 597.544C1889.49 598.221 1877.78 594.624 1875.76 598.538C1873.44 603.036 1897.67 601.641 1900 601C1907.81 598.851 1915.93 598.482 1924 599.218C1931.5 599.902 1953.84 599.304 1958.96 605.042C1962.14 608.608 1961 619.448 1961 624C1961.01 638.119 1955.48 677.864 1968 687M2031 450C2021.68 474.098 2013.68 508.267 2019 534C2007.74 534 1983.39 537.189 1974.82 528.015C1971.23 524.169 1973 514.856 1973 510C1973 493.967 1972 477.989 1972 462C1972 458.464 1969.93 445.622 1972.96 443.439C1975.95 441.286 1985.58 445.605 1989 446.318C2002.72 449.179 2017.08 448.154 2031 450M1289 622C1284.06 596.844 1272.58 573.156 1266.84 548C1263.52 533.455 1266.52 518.524 1263.39 504C1262.43 499.585 1257.15 468.348 1252.33 469.323C1249.46 469.902 1252.3 478.091 1252.32 480C1252.4 490.713 1250.48 501.419 1249 512C1242.66 557.345 1235.97 602.953 1228 648C1213.16 601.191 1202.37 552.439 1194.6 504C1192.71 492.162 1190.07 481.055 1190 469C1189.99 466.94 1190.58 459.003 1187.08 459.003C1183.93 459.003 1185 468.144 1185 470C1185 482.153 1185.14 493.981 1183.07 506C1174.35 556.685 1155.22 604.995 1144 655C1139.88 638.835 1142.04 620.587 1140.86 604C1138.57 571.727 1134.52 539.376 1134.06 507C1133.93 497.964 1141.99 463.167 1133 461C1135.83 482.389 1128.95 507.691 1130.08 530C1132.72 582.211 1139.21 633.823 1139 686C1148.31 681.891 1149.03 651.719 1151.7 642C1160.81 608.908 1170.8 576.156 1179.68 543C1182.64 531.931 1182.66 512.631 1190 504C1190.78 544.865 1206.94 589.541 1217 629C1218.08 633.223 1226.98 667.05 1229.78 666.574C1232.31 666.145 1233.87 631.706 1234.55 627C1240.69 584.465 1254.83 542.359 1255 499C1263.63 510.693 1259.01 534.614 1261.52 549C1267.58 583.739 1291.6 617.717 1291 653C1299.12 649.684 1294.7 622.769 1295.83 614C1300.46 577.847 1305.76 537.307 1326 506C1334.87 543.961 1349.4 581.588 1355.84 620C1356.52 624.055 1361.77 655.997 1363.89 655.997C1365.86 655.997 1368.58 625.897 1369.06 622C1373.74 583.979 1386.65 547.725 1392 510C1405.79 539.4 1407.83 582.985 1415.21 615C1416.4 620.17 1418.68 647.22 1423.22 648.894C1423.74 649.087 1428.48 615.724 1429.06 611C1430.81 596.557 1427.83 581.199 1430.78 567C1436.29 540.501 1450 514.303 1450 487C1441.92 493.028 1442.16 509.868 1439.39 519C1434.07 536.581 1427.02 554.582 1425.34 573C1423.78 589.984 1426.68 607.175 1423 624C1407.03 590.513 1402.86 543.613 1397.48 507C1396.18 498.171 1402.39 471.303 1390.89 466.761C1393.4 467.752 1391.11 500.388 1389.36 506C1376.5 547.107 1369.64 589.447 1364 632C1353.8 606.797 1350.68 577.245 1343.06 551C1338.67 535.879 1329.35 516.879 1329.69 501C1329.93 489.78 1334.91 479.169 1335.77 468C1335.94 465.863 1336.12 457.605 1332.13 458.323C1323.43 459.889 1325.55 491.613 1323.79 498C1316.01 526.196 1301.43 550.622 1295.58 580C1293.29 591.478 1296.36 613.031 1289 622M1568 641C1582.19 625.471 1620.35 633.694 1629.17 616.949C1634.21 607.402 1630.94 590.565 1631 580C1631.14 554.741 1634 529.366 1634 504C1634 499.025 1640.16 474.033 1639.46 472.763C1637.67 469.54 1629.02 471.062 1626 470.96C1616.41 470.635 1592.45 460.492 1584.37 465.94C1577.46 470.594 1580.02 498.738 1578.93 507C1574.8 538.416 1573.54 571.286 1571.92 603C1571.29 615.318 1566.13 628.808 1568 641M1586 467C1595.58 472.026 1608.52 473.55 1619 476.205C1621.97 476.959 1629.42 475.766 1631.1 478.822C1634.08 484.242 1630 499.55 1630 506C1630 532.749 1628.51 559.39 1626.3 586.026C1625.61 594.277 1629.42 610.953 1623.4 617.356C1615.27 625.995 1585.61 625.901 1574 627C1578.04 583.716 1577.6 539.873 1584.65 497C1586.21 487.537 1583.14 475.748 1586 467M126.001 497.164C114.367 501.792 105.797 520.063 106.61 532C108.648 561.913 131.979 635.913 175 619.239C222.531 600.817 203.694 533.791 172.04 509.565C160.96 501.085 140.577 491.365 126.001 497.164M1604.14 498.544C1597.37 500.946 1599.04 515.971 1607.68 512.156C1614.13 509.308 1611.27 496.013 1604.14 498.544M127.019 502.604C131.995 501.087 169.936 503.345 160.661 514.021C158.051 517.027 150.788 512.085 148 511.184C138.74 508.191 117.207 512.806 118.646 526C120.529 543.271 147.634 545.494 157.499 557.296C164.441 565.603 160.002 584.969 160 595C159.999 599.114 165.583 614.837 162.495 615.963C153.92 619.089 139.084 605.408 134.158 599.997C126.887 592.011 126.158 582.953 123.477 573C118.771 555.526 96.2892 511.973 127.019 502.604M1603.6 503.087C1606.41 501.787 1608.77 508.138 1605.68 509.258C1602.83 510.288 1601.13 504.233 1603.6 503.087M168 617C168.302 613.707 167.375 605.525 169.899 603.257C178.649 595.4 191.868 602.689 193.891 585C196.114 565.562 170.808 568.171 165.862 556.676C161.05 545.493 168.272 524.836 166 512C207.496 526.683 211.891 605.748 168 617M161 553C152.607 549.726 123.114 536.313 122.98 526C122.753 508.573 150.231 512.119 158.403 520.062C164.49 525.978 161 545.012 161 553M2050 528C2043.41 532.44 2030.86 532.924 2023 533C2025.82 525.877 2043.61 526.264 2050 528M1604.26 532.289C1597.97 535.891 1596.72 557.857 1606.85 552.689C1614.83 548.614 1612.78 527.413 1604.26 532.289M1967 596C1971.78 583.06 1973 569.709 1973 556C1973 551.517 1971.57 539.571 1974.4 536.025C1975.61 534.498 2016.6 538.116 2018.74 540.26C2022.12 543.645 2020.15 556.501 2019.92 561C2019.58 567.67 2021.01 581.043 2016.82 586.499C2011.23 593.781 1976.44 595.106 1967 596M2077 534C2062.92 539.563 2076.17 616.602 2076 568L2076 554C2076 547.286 2076.96 540.697 2077 534M1602 537C1610.9 535.273 1608.65 559.713 1602 537M1895 591C1893.41 570.82 1885.4 557.788 1895 538C1878.64 537.439 1886.1 584.269 1895 591M166 597C167.5 585.683 165.399 575.27 165 564C191.363 571.23 198.984 596.95 166 597M1605.31 569.504C1597.51 572.818 1591.92 597.604 1603.01 593.67C1613.06 590.104 1615.17 565.309 1605.31 569.504M1609 576C1606.49 575.064 1605.94 574.506 1605 572C1607.51 572.936 1608.06 573.494 1609 576M1603.25 578.565C1610.34 578.097 1607.54 588.911 1602.15 589.574C1597.62 590.132 1599.11 578.839 1603.25 578.565M1596.24 601.305C1588.91 603.026 1589.6 621.219 1597.79 618.817C1604.02 616.987 1603.46 599.612 1596.24 601.305M1596.31 605.323C1600.31 604.658 1601.57 613.81 1597.75 614.813C1592.83 616.103 1592.04 606.034 1596.31 605.323M1576 775C1578.95 786.528 1616.07 774.325 1625.32 773.761C1657.58 771.794 1703.94 774.319 1725.41 803.001C1748.19 833.433 1737.52 887.625 1693 884.866C1680.16 884.069 1667.94 886.7 1655 884.672C1645.67 883.211 1636.7 877.123 1627 878.196C1607.89 880.309 1621.16 910.255 1631 916C1628.72 907.697 1616.54 894.695 1623.02 885.285C1628.25 877.681 1647.68 887.609 1655 888.64C1675.52 891.531 1716.32 892.874 1731.17 875.525C1742.68 862.072 1741.54 844.109 1738.04 828C1725.66 771.12 1662.85 764.969 1613 769.104C1599.65 770.212 1590.23 776.886 1576 775M1694 834C1664.23 831.943 1628.95 810.105 1600 825.703C1582.53 835.117 1580.67 855.505 1577.77 873C1574.04 895.442 1584.86 918.269 1589.04 940C1593.94 965.486 1592.55 995.646 1601 1020L1603 1020C1603.23 1016.58 1602.32 1013.4 1602 1010C1609.29 1016.1 1607.59 1027.01 1616.1 1032.7C1630.52 1042.35 1643.29 1034.64 1644.78 1018C1647.12 991.889 1639.23 965.802 1639 939.999C1638.97 936.275 1638.59 909.697 1634.02 909.641C1629.78 909.589 1633.95 927.751 1634.29 930C1637.56 951.859 1638.09 974.045 1641 996C1625.49 990.667 1615.48 993.74 1609 1011C1597.36 983.069 1596.23 953.43 1589.88 924C1586.46 908.163 1578.31 891.541 1580.34 875C1582.37 858.468 1587.78 835.488 1605.03 828.867C1629.51 819.466 1651.88 833.402 1676 835.997C1682.7 836.718 1697.15 840.404 1702 835C1686.01 826.528 1671.56 807.303 1652 803.538C1640.21 801.268 1626.55 804.018 1615 806.481C1606.56 808.281 1595.76 806.693 1588.02 810.719C1524.06 843.998 1541.77 937.45 1553 993C1547.16 990.915 1542.87 985.033 1536.02 986.806C1528.89 988.654 1517.35 1012.8 1519.15 1015C1516.4 1011.65 1518.24 1002.18 1517.88 998C1516.63 983.247 1514.03 968.933 1514 954C1513.9 910.564 1515.67 875.891 1530.61 834.864C1538.73 812.569 1552.43 789.689 1576 782C1553.01 770.194 1531.67 822.301 1525.18 837C1506.03 880.32 1504.31 934.673 1511.92 981C1515.7 1004.07 1510.83 1018.32 1532.16 1032.58C1546.23 1041.99 1567.15 1036.26 1568.84 1018C1570.19 1003.54 1559.86 1003.7 1557.05 991.992C1549.39 960.069 1540.15 924.128 1546.26 891C1549.73 872.187 1557.33 843.036 1571.1 829.062C1595.77 804.012 1640.48 802.664 1670 818.401C1678.43 822.894 1688.96 825.061 1694 834M765 1002C782.253 1006.72 796.671 1015.37 815 1016.86C849.083 1019.62 881.655 1009.21 914.997 1009.11C931.725 1009.06 950.779 1016.14 967 1020.84C976.584 1023.61 991.516 1019.35 1001 1016.83C1002.81 1016.35 1011.81 1013.3 1009.46 1009.99C1007.81 1007.68 976.771 1017.33 971 1016.04C953.257 1012.11 935.269 1005.56 917 1005.05C884.679 1004.14 852.75 1012.72 820 1011.98C811.316 1011.78 775.007 1007.69 773.684 996.122C773.018 990.293 781.035 981.005 783.637 976C792.205 959.52 801.417 942.162 808.443 925C816.528 905.25 829.731 886.901 839.742 868C851.39 846.007 866.72 802.636 889 790C889.688 803.498 909.322 821.35 916.798 833C939.255 867.991 962.988 902.647 985.648 937.562C994.17 950.693 1011.42 972.474 1011.69 988.812C1011.77 994.179 973.364 999.657 967 1000.01C949.95 1000.94 941.204 993.479 925 990.547C895.879 985.278 865.544 985.366 844.218 958.785C829.922 940.967 831.135 909.057 839.321 889C842.709 880.698 851.454 867.745 861 869C860.456 867.106 859.904 865.76 859 864C875.611 857.579 900.791 855.535 916.864 865.306C943.827 881.699 958.514 927.973 929.959 950.547C920.68 957.882 910.957 954.238 901 951.159C876.517 943.588 859.379 927.184 869.648 900C876.733 881.244 889.08 880.911 905 886.876C911.85 889.443 923.787 895.29 923.334 904.008C922.838 913.546 901.066 941.741 890.817 929.557C886.005 923.836 888.674 906.248 896.221 903.543C899.709 902.293 903.838 906.826 907 908C903.134 882.898 873.328 914.843 887.048 931.775C901.483 949.588 934.346 914.509 926.958 898.126C924.177 891.959 914.765 887.548 909.019 884.768C881.644 871.527 859.463 889.466 862.118 921C864.081 944.315 903.167 966.379 925 958.228C941.356 952.122 948.15 934.189 949.621 918C955.844 849.482 849.983 829.769 831.862 897C821.405 935.797 838.604 971.723 876 986.758C892.667 993.46 913.33 991.963 928.021 997.426C953.137 1006.76 968.903 1005.08 995 999.143C1000.83 997.817 1012.81 999.698 1016.66 994.043C1021.8 986.501 1003.87 961.829 1000.81 953.997C983.974 910.943 947.297 864.452 919.115 828C910.861 817.325 903.166 806.194 895.582 795C893.9 792.518 893.011 783.955 889.114 784.279C874.807 785.47 859.999 823.06 853.627 833.922C821.792 888.188 790.94 944.636 765 1002M2007 809.083C1993.61 813.816 1982.98 829.306 1974.73 840C1946.71 876.309 1937.01 926.949 1937 972C1936.99 990.097 1920.84 1036.32 1949 1034.95C1962.34 1034.3 1967.89 1018.4 1967.99 1007C1968.06 998.587 1962.26 993.572 1961.62 986C1959.46 960.368 1968.28 919.535 1978.2 896C1981.77 887.521 1991.66 856.791 2004.66 859.245C2010.7 860.385 2016.65 879.897 2019.55 885C2033.97 910.425 2036.88 952.263 2030.94 980.981C2029.25 989.137 2021.75 994.186 2020.96 1003C2019.73 1016.54 2035.45 1027.31 2048 1024.47C2074.15 1018.57 2063.28 996.752 2064.91 980C2068.18 946.236 2067.08 912.611 2063.23 879C2061.86 866.997 2062.83 853.24 2057.82 842C2052.19 829.366 2022.75 803.514 2007 809.083M2060 984C2054.77 982.069 2040.75 982.268 2037.26 978.74C2033.19 974.615 2037 956.705 2037 951C2037 929.234 2034.83 909.911 2026 890C2022.74 882.652 2013.8 855.809 2004.91 854.826C1992.37 853.438 1982.8 876.333 1978.5 885C1967.28 907.676 1965.08 932.488 1960.82 957C1957.77 974.491 1960.3 988.05 1940 995C1949.06 943.795 1942.74 895.072 1972.79 848.922C1979.95 837.924 1995.25 815.476 2009 812.614C2023.11 809.677 2050.88 832.348 2054.29 845C2066.35 889.744 2060.42 938.503 2060 984M485 895C465.274 902.247 453.714 932.193 459.382 951.783C463.438 965.8 479.995 979.791 495 974.989C504.686 971.889 510.174 963.768 517 957C531.961 990.42 566.886 966.08 575.901 942.922C583.992 922.138 565.468 911.716 565.692 894C565.876 879.51 580.761 866.335 573.702 851C560.758 822.883 537.221 836.741 533 860C527.44 849.499 526.057 837.351 512 836.406C507.984 836.136 480.222 840.837 483.761 848.136C483.6 847.802 511.42 839.662 516.973 841.94C539.083 851.01 520.323 893.159 500.32 891.549C483.428 890.19 468.707 879.691 469.062 861C469.237 851.765 488.034 834.015 487.705 833.965C481.729 833.046 474.912 839.995 471.478 844.078C455.902 862.6 470.183 882.891 485 895M550 838C547.288 844.39 542.651 839.041 550 838M557 847C559.378 836.89 570.205 851.019 570.844 856C571.639 862.209 568.882 886.261 561.658 888.442C557.949 889.561 553.396 884.036 550 882.908C545.597 881.447 539.414 886.288 536.98 880.884C531.787 869.354 539.17 831.826 557 847M183 869C181.896 862.371 183.558 856.889 182 850C174.859 852.007 179.921 870.77 178.81 877C175.598 895.019 164.228 913.275 156.981 930C154.747 935.158 148.94 942.057 149.481 947.912C149.976 953.259 162.806 929.401 164 925C164.429 934.074 148.243 962.854 162 967C160.437 953.235 166.027 925.041 176 915C175.928 922.828 175.568 931.263 174.395 939C169.534 971.071 188.185 965.753 199.957 941C207.588 924.954 216.257 888.925 210.458 871.474C209.281 867.93 204.009 867.081 202.02 863.834C199.982 860.508 205.17 847.02 199.712 847.002C190.37 846.972 187.64 863.828 183 869M196.667 856.667C196.722 856.722 196.778 857.778 196.333 857.333C196.278 857.278 196.222 856.222 196.667 856.667M1209 870C1210.09 900.709 1216.31 938.748 1210.73 968.922C1206.89 989.671 1191.31 1006.93 1192 1029C1190.44 1029.08 1187.67 1053.43 1187 1060C1193.31 1057.15 1190.66 1043.38 1196.33 1042.08C1198 1041.7 1193.6 1078.64 1193 1083C1203.95 1079.9 1197.54 1050.76 1204.12 1042.5C1215.84 1027.81 1215.04 1066.25 1221.06 1062.38C1222.68 1061.33 1221.6 1052.59 1223 1050C1223.54 1052.65 1224.01 1054.16 1226 1056C1225.87 1049.13 1223.5 1041.96 1232 1040C1227.94 1038.23 1225.47 1036.79 1223 1033C1218.56 1039.08 1197.82 1042.11 1194.78 1032.89C1193.11 1027.83 1198.81 1016.25 1199 1010L1201 1014C1204.77 1008.14 1209.47 999.755 1211 993C1208.19 994.918 1206.4 997.614 1204 1000C1205.49 992.945 1208.5 978.119 1215.4 974.345C1221.38 971.073 1236.93 975.999 1244 975.999C1266.46 975.999 1289.99 974.83 1312 970.444C1317.41 969.366 1336.92 960.453 1341.1 962.661C1344.64 964.534 1341.32 985.177 1339 988C1339.29 985.541 1339.3 983.456 1339 981C1329.56 990.795 1319.38 1013.6 1317 1027C1327.89 1016.63 1329.42 999.713 1339 989C1340.47 1005.08 1336.15 1019.33 1336 1035C1351.65 1023.27 1347.21 987.968 1346.4 971C1346.27 968.172 1351.27 953.856 1349.14 952.759C1346.85 951.583 1327.94 963.338 1323 963.852C1296.89 966.567 1271.34 969.96 1245 971.764C1238.25 972.227 1220.53 972.755 1216.26 966.437C1211.32 959.118 1219.2 950.011 1219.9 942.974C1220.84 933.467 1215.01 927.488 1215 918C1226.57 922.529 1241.71 918 1254 918C1285.81 918 1316.82 925.578 1347 913C1346.8 923.71 1345 934.25 1345 945C1356.15 940.126 1350 907.177 1350 897C1350 892.865 1353.38 874.504 1351.6 872.26C1348.81 868.729 1325.23 867.503 1320 866.841C1287.22 862.696 1237.88 882.896 1209 870M180 921C180.021 906.667 181.212 891.524 186.264 878C187.095 875.776 190.523 865.6 193.852 866.323C197.389 867.092 193.131 877.109 192.589 879C189.658 889.227 187.902 914.381 180 921M531 867C534.951 882.612 536.026 906.318 517.847 914.456C514.384 916.006 503.48 900.736 504.063 897.48C504.589 894.54 512.744 891.803 514.997 889.812C522.396 883.272 524.881 874.352 531 867M1216 916C1216 908.429 1211.35 884.693 1216.26 879.174C1221.65 873.122 1238.66 876.086 1246 875.32C1272.02 872.606 1296.3 867.618 1322 871.449C1326.89 872.178 1342.98 873.539 1346.08 876.946C1348.67 879.79 1346 889.221 1346 893C1345.97 924.422 1302.98 917.882 1280 914.72C1259.49 911.898 1236.41 913.519 1216 916M201 885C202.449 883.565 203.222 882.885 205 882C201.804 901.019 197.235 954.949 177 963C178.627 936.035 193.606 913.373 202 888C195.058 893.033 193.307 902.95 189 910C187.506 898.833 203.973 851.254 201 885M137 885C131.477 877.69 120.297 878.566 112 876.993C105.654 875.789 82.716 870.536 77.6075 873.514C73.257 876.051 74.6112 889.566 74.2174 894C72.4275 914.155 68.7523 940.867 71.2021 960.674C71.6146 964.009 80.5062 965.109 83.0779 964.13C101.134 957.258 117.649 928.743 125.168 912C128.661 904.222 128.5 888.247 137 885M76 958C84.8718 935.344 71.3145 905.781 80.5264 883.206C83.5793 875.725 122.854 879.284 126.526 886.229C128.986 890.88 123.995 902.611 122.057 907C115.383 922.114 93.9149 956.821 76 958M543.649 886.822C547.814 884.43 559.836 891.856 555.351 894.332C551.792 896.297 539.275 889.334 543.649 886.822M487 897.779C498.461 893.792 508.504 908.126 513.029 917C521.133 932.89 512.57 964.42 495 970.248C456.318 983.079 455.049 908.893 487 897.779M553 907C565.321 893.067 570.061 909.187 573.261 924C575.947 936.432 569.63 951.125 560.842 959.872C529.254 991.312 509.794 936.052 524.44 912C529.104 904.341 554.313 887.133 553 907M202 919L201 920L202 919M1216 938C1216.68 941.268 1216.76 943.748 1216 947C1214.94 943.853 1214.94 941.147 1216 938M1334 956C1344.67 948.514 1334 933.204 1334 956M1611 947C1611 962.385 1614.1 974.394 1618 989C1622.76 980.347 1613 957.835 1613 947L1611 947M175 972C176.277 973.897 176.823 974.259 179 975C178.422 972.302 177.739 972.211 175 972M2043 984L2040 991C2047.92 983.398 2049.99 988.161 2050 997C2052.86 993.636 2053.69 990.362 2054 986C2073.05 994.168 2059.36 1022.78 2041 1020.27C2018.52 1017.19 2022.62 985.84 2043 984M1956 989L1957 994C1954.14 992.835 1953.69 992.076 1954 989L1956 989M1536.33 990.83C1551.16 984.561 1580.54 1019.38 1557.95 1030.14C1530.65 1043.14 1510.34 1001.81 1536.33 990.83M1631 1006C1630.55 1001.64 1628.32 998.647 1626 995C1642.55 992.319 1645.84 1022.98 1634.87 1031.2C1606.83 1052.2 1607.53 979.985 1631 1006M1956 1007C1959.49 1002.95 1958.66 999.015 1958 994C1970.16 999.048 1963.04 1028.85 1950.96 1030.42C1940.94 1031.72 1929.39 1020.53 1939 1012C1939.08 1015.88 1940.07 1019.26 1941 1023C1946.48 1016.69 1939.55 1009.25 1942.22 1002.08C1947.26 988.577 1955.16 998.056 1956 1007M1236 1038C1243.18 1040.05 1253.42 1035.67 1261 1035.14C1278.5 1033.91 1291.12 1039.68 1308 1032C1301.8 1028.62 1295.55 1033.59 1289 1033.51C1271.49 1033.29 1252.28 1028.68 1236 1038M1319 1034L1319 1039C1320.48 1037.13 1320.77 1036.37 1321 1034L1319 1034M1314 1035C1305 1046.86 1301.28 1059.09 1301 1074C1306.49 1063.73 1306.07 1049.85 1314 1041C1313.9 1050.43 1310.57 1059.5 1310 1069L1312 1066L1313 1075C1321.29 1068.2 1319.84 1042.9 1314 1035M1188 1038C1187.01 1039.48 1187 1039.2 1187 1041C1188.29 1039.56 1188.4 1039.77 1188 1038M1222 1041L1222 1043L1219 1043L1219 1041L1222 1041M1310 1071C1307.95 1074.89 1306.86 1078.7 1306 1083C1309.58 1082.23 1311.49 1074.05 1310 1071M453 1117C453.943 1119.86 457.577 1125.22 455.133 1127.97C451.851 1131.65 429.596 1131.12 432.106 1139.48C434.122 1146.2 454.363 1141.45 459 1140.63C476.362 1137.56 492.007 1123.73 511 1126.42C520.058 1127.71 529.04 1136.83 538 1140C524.149 1144.1 530.124 1150.56 541 1154.34C555.871 1159.5 577.703 1166.28 590 1176C574.616 1181.05 557.979 1184.36 542 1186.83C539.274 1187.25 526.395 1186.53 527.323 1191.68C528.101 1196.01 539.028 1194.97 542 1195.01C556.334 1195.18 575.352 1192.34 589 1195C578.81 1200.95 564.311 1205.5 552.438 1206.03C543.941 1206.41 534.278 1200.34 528 1209C544.854 1213.27 579.89 1207.16 593 1217C579.583 1217.02 565.445 1219.14 552 1220.62C549.278 1220.91 540.316 1220.41 539.106 1223.62C537.692 1227.37 547.849 1229.62 550 1230.32C562.822 1234.53 573.399 1238 587 1238C580.228 1246.7 559.629 1239.44 555.544 1245.74C553.47 1248.94 564.329 1251.33 566 1251.95C578.165 1256.53 594.192 1264.45 601 1276C595.231 1276.11 589.74 1277.75 584 1277.96C580.555 1278.08 559.071 1278.44 560.323 1284.92C561.345 1290.22 592.238 1305.03 598 1308.33C600.067 1309.51 612.548 1315.06 611.919 1317.69C611.065 1321.26 600.016 1316.95 598 1316.32C582.301 1311.43 566.291 1320.42 550 1320C551.525 1315.57 551.204 1310.21 546 1309C546.237 1311.71 547.768 1317.46 543.708 1317.96C533.135 1319.26 515.545 1310.86 505.003 1308.29C491.829 1305.08 469.359 1306.13 456 1309C466.704 1289.28 493.176 1282.45 508.653 1268.08C515.015 1262.18 512.872 1250.76 502.981 1251.25C491.439 1251.82 481.131 1259.57 469 1260C475.387 1255.47 484.733 1253.77 492.001 1250.66C496.656 1248.67 501.373 1246.83 506 1244.77C508.375 1243.72 523.309 1239.09 521.894 1235.52C520.517 1232.06 511.726 1232.95 509 1233.48C493.262 1236.53 483.067 1237.87 467 1234.14C464.75 1233.62 450.52 1232.59 450.52 1230C450.52 1227.3 465.615 1225.81 468 1225.14C481.584 1221.34 509.986 1219.11 516 1204C489.263 1204 464.064 1205.81 438 1204C446.326 1190.69 469.062 1185.53 483 1180.84C486.472 1179.67 498.659 1179.2 500.456 1176.33C502.554 1172.97 486.172 1171.35 484 1171.07C467.322 1168.87 447.655 1169.18 431 1169C437.63 1158.55 469.071 1147.53 481 1142.96C483.894 1141.85 499.091 1139.51 499.677 1136.76C500.618 1132.35 481.67 1134.67 479.354 1135.72C458.129 1145.35 440.696 1163.98 416 1165C424.31 1183.63 466.62 1175 482 1175C467.885 1185.78 435.565 1187 428 1206C438.727 1206.25 448.078 1212.24 459 1211.98C474.612 1211.6 489.891 1205.11 506 1208C491.371 1218.37 466.253 1221.39 449 1225.81C442.617 1227.45 431.56 1223.84 428 1230C455.422 1243.82 484.481 1239.1 513 1236C495.241 1247.92 471.836 1253.7 452 1261.47C445.032 1264.2 433.093 1263.41 430 1271C447.163 1270.67 469.345 1265.73 486 1261.42C491.185 1260.08 502.388 1252.81 507.208 1257.82C513.652 1264.53 493.724 1271.76 490.217 1274.1C472.032 1286.21 453.274 1312.84 430 1312C434.766 1322.64 444.944 1314.76 453 1314.07C472.644 1312.38 495.883 1309.06 514.852 1316.42C521.433 1318.97 520.748 1332.16 521.075 1338C522.012 1354.7 520.005 1394.03 542 1396.59C548.603 1397.36 558.482 1388.63 558.628 1381.94C558.946 1367.35 545.482 1341.3 552.705 1327.5C554.924 1323.26 565.826 1323.84 570 1322.98C583.878 1320.12 614.277 1316.55 625 1328C627.557 1321.65 618.664 1316.17 614 1313.07C599.004 1303.08 582.809 1291.49 566 1285C578.161 1279.81 597.723 1279.02 611 1279C604.387 1262.78 580.873 1260.71 572 1247C580.592 1246.48 595.836 1244.58 601 1237C586.304 1236.86 560.651 1234.36 549 1225C560.294 1222.56 595.688 1228.67 602.456 1216.62C604.222 1213.48 594.733 1211.85 593 1211.36C582.672 1208.44 570.656 1210 560 1210C566.987 1206.29 597.093 1203.93 598.677 1194.9C599.397 1190.79 587.16 1191.99 585 1192C569.97 1192.08 555.034 1192.14 540 1192C551.398 1182.16 585.729 1193 593.592 1177.45C596.325 1172.04 586.698 1167.87 583 1166.76C568.621 1162.42 543.329 1155.9 533 1145C543.624 1143.12 554.183 1146.63 565 1145.86C566.595 1145.75 575.568 1145.43 574.239 1142.22C572.481 1137.96 561.422 1140.36 558 1140.39C547.347 1140.47 532.677 1135.38 525 1128C529.559 1128.04 535.252 1130.21 537 1125C518.633 1123.29 501.563 1122.27 483.011 1123.03C476.047 1123.31 472.748 1129.61 465.089 1127.44C459.549 1125.86 458.155 1119.48 453 1117M881 1318C859.768 1344.32 822.826 1350.51 798 1372C818.653 1379.73 839.57 1376.54 861 1379.06C872.022 1380.35 879.3 1386.07 891 1384C888.801 1390.7 886.549 1417.91 891.822 1423.18C894.154 1425.51 922.698 1426.94 922.109 1428.43C925.68 1419.41 926.412 1392.18 922.219 1383.32C917.204 1372.73 903.261 1370.2 896 1379C903.993 1380.11 911.025 1374.86 917.355 1383.19C927.897 1397.06 920.298 1427.01 900.07 1422.27C886.448 1419.08 902.881 1387.65 891.384 1381.9C867.314 1369.86 835.196 1377.55 809 1371C826.763 1355.76 849.561 1348.96 868 1334.93C872.224 1331.72 884.855 1325.55 885.677 1319.87C886.362 1315.14 871.126 1309.08 867.562 1307.45C847.485 1298.27 821.54 1290.24 800 1284C808.906 1278.48 819.837 1278.32 829.059 1272.96C842.387 1265.21 850.244 1254.3 862 1244.83C865.321 1242.16 882.869 1231.24 877.116 1225.47C871.527 1219.86 861.699 1223.34 855 1222.51C839.78 1220.61 814.763 1218.48 802 1210C815.049 1205.19 823.611 1192.71 834.078 1184.04C849.585 1171.19 867.013 1162.44 882.864 1150.44C888.496 1146.17 899.907 1128.64 906.779 1128.64C911.261 1128.64 918.924 1150.8 922.478 1154.64C941.023 1174.65 961.713 1191.59 978.791 1213C981.667 1216.61 995.256 1230.32 993.365 1235.18C992.242 1238.06 982.673 1237.41 980 1238.02C963.961 1241.7 951.083 1237 935 1237C948.117 1255.77 965.297 1250.81 984 1260.1C995.849 1265.98 1007.52 1277.11 1021 1279C1012.72 1266.77 984.065 1254.58 970 1250.48C959.751 1247.49 949.388 1249.75 943 1239C962.42 1246.4 974.192 1242.18 994 1240.46C996.371 1240.25 1011.27 1244.4 1010.68 1241.2C1009.96 1237.35 997.837 1232.15 995.008 1227.99C977.34 1202.03 955.707 1182.46 934.136 1160.04C925.311 1150.87 919.145 1141.73 914.068 1130C913.126 1127.82 911.628 1119 908.661 1119C902.853 1119 888.179 1139.56 883.864 1143.92C864.573 1163.43 836.931 1174.04 816.981 1194.01C814.38 1196.61 789.325 1212.94 789.106 1212.41C790.045 1214.67 799.611 1215.26 802 1216.24C816.554 1222.19 836.319 1224.75 852 1225.86C855.012 1226.08 871.599 1224.89 870.795 1230.15C869.956 1235.63 859.899 1240.13 856.118 1243.52C841.002 1257.06 830.181 1271.05 809 1275.6C804.553 1276.56 778.217 1280.43 776.761 1283.67C776.273 1284.76 798.487 1287.02 802 1288.52C827.306 1299.35 854.623 1311.71 881 1318M1960 1392C1957.45 1391.35 1940.81 1389.76 1945.22 1383.74C1951.16 1375.65 1988.76 1384.72 1998 1384.88C2045.99 1385.7 2091.29 1342.08 2070.16 1292C2061.86 1272.33 2036.48 1264.27 2019 1256.26C2013.56 1253.76 1998.5 1249.51 1997.72 1242.42C1994.02 1208.42 2053.32 1185.72 2032.17 1151C2006.77 1109.32 1922.58 1119.64 1904.04 1162C1890.46 1193.04 1909.97 1217.27 1935.44 1233.24C1945.71 1239.68 1961.2 1241.03 1964.84 1255C1967.95 1266.9 1963.69 1279 1954 1286.13C1934.38 1300.58 1901.92 1297.35 1901.12 1332C1900.6 1354.58 1917.38 1371.84 1933.68 1384.9C1940.38 1390.27 1951.58 1399.15 1960 1392M1931 1374C1911.9 1376.83 1902.44 1336.21 1907.47 1323C1910.24 1315.72 1917.6 1303.09 1925.09 1299.86C1940.66 1293.13 1961.46 1295.83 1968.2 1275C1982.99 1229.33 1913.19 1233.83 1905.81 1197C1902.53 1180.64 1904.82 1167.23 1913.46 1153.04C1915.54 1149.62 1929.36 1134.28 1931 1143C1950.88 1125.59 1991.04 1124.7 2013.04 1139.08C2023.37 1145.84 2034.57 1155.26 2032.73 1169C2029.79 1191.02 2005.12 1207.17 1998.63 1229C1997.27 1233.59 1992.15 1239.72 1994.01 1244.64C1998.71 1257.13 2023.38 1261.4 2034 1266.43C2066.57 1281.88 2078.2 1313.34 2063.82 1347C2047.78 1384.51 2000.72 1381.42 1968 1379.14C1958.44 1378.47 1930.77 1387.44 1931 1374M473 1134C462.851 1137.46 449.695 1137.99 439 1138C445.261 1130.72 464.78 1130.47 473 1134M149 1294C156.68 1293.28 166.077 1292.37 172.992 1288.74C205.002 1271.93 188.432 1237.2 157 1237C153.226 1236.97 141.909 1233.69 139.106 1236.28C135.602 1239.51 147.635 1241.64 149 1241.77C161.206 1243.01 185.029 1242.12 186.402 1260C187.836 1278.67 168.704 1286.33 154 1289.86C150.856 1290.62 138.362 1291.41 137.106 1294.67C136.498 1296.24 161.561 1305.43 164.536 1308.49C194.59 1339.36 154.423 1348.44 130 1353C130.006 1300.98 141.245 1248.09 128 1197C143.087 1196.97 146.054 1187.57 138 1176C146.463 1175.84 162.779 1170.16 170.38 1174.82C176.181 1178.38 167.775 1201.4 184.789 1198.59C198.441 1196.35 190.387 1179.76 183.645 1174.18C172.997 1165.38 142.109 1167.1 131.204 1175.12C120.717 1182.83 124.983 1202.53 126.819 1213C132.751 1246.82 127 1280.9 127 1315C127 1323.64 120.548 1347.51 126.822 1354.03C136.791 1364.4 177.664 1346.75 180.278 1334C184.672 1312.56 161.35 1304.27 149 1294M177.781 1178.11C183.475 1176.4 193.118 1192.34 185.713 1194.29C177.545 1196.44 170.547 1180.27 177.781 1178.11M133.439 1180.11C138.594 1178.49 142.265 1191.17 135.881 1192.89C128.954 1194.76 128.642 1181.61 133.439 1180.11M1581 1410C1581.82 1389.27 1596.27 1371.2 1607.57 1355C1615.55 1343.56 1619.45 1329.51 1629.48 1319.27C1649.5 1298.83 1683.92 1299.93 1703.98 1318.18C1720.6 1333.3 1725.04 1352.68 1722.87 1374C1722.19 1380.76 1717.35 1389.32 1718.88 1395.99C1720.29 1402.14 1727.23 1404.52 1730 1410C1732.96 1407.76 1740.84 1400.59 1745.07 1404.26C1746.98 1405.92 1741.44 1412.3 1746.03 1412.19C1750.09 1412.08 1749.92 1404.97 1754.15 1404.16C1769.35 1401.29 1783.2 1411.35 1797.34 1397C1806.89 1387.31 1801.42 1350.53 1799.94 1338C1793.38 1282.2 1763.01 1206.49 1700 1193.49C1678.24 1189 1658.39 1197.26 1638.97 1205.43C1582.29 1229.28 1541.66 1271.78 1517.94 1329C1511 1345.76 1489.83 1392.17 1504.14 1409.17C1508.04 1413.81 1519.64 1412.04 1525 1412C1543.11 1411.85 1563.67 1404.59 1581 1410M1775 1402C1787.28 1376.57 1776.94 1358.25 1769.74 1333C1764.69 1315.26 1763.19 1295.77 1755.2 1279C1739.34 1245.73 1700.14 1223.79 1665 1225.04C1612.53 1226.92 1581.91 1273.95 1553.79 1311.92C1537.14 1334.4 1529.88 1359.53 1519.42 1385C1517.81 1388.92 1510.16 1408.43 1506.9 1405.11C1502.1 1400.22 1505.6 1387.79 1506.13 1382C1508.34 1357.96 1518.22 1331.88 1529.89 1311C1565.71 1246.95 1655.84 1160.57 1732 1213.98C1775.47 1244.46 1790.09 1296.47 1797 1346C1799.92 1366.91 1802.13 1399.82 1775 1402M1290 1220C1296.45 1213.63 1310.32 1214.08 1319 1214C1305.27 1206.45 1290.24 1222.77 1279.54 1219.75C1276.16 1218.8 1278.38 1201.63 1273.43 1203.76C1272.26 1204.27 1269.55 1223.72 1268 1227L1273 1226C1266.81 1262.94 1243 1196.32 1268 1212C1269.34 1205.47 1263.63 1200.29 1257.88 1205.69C1249.76 1213.31 1255.05 1222.67 1250.7 1230.32C1242.55 1244.67 1220.98 1251.47 1219 1270C1230.36 1261.6 1236.24 1245.88 1248.08 1237.9C1255.83 1232.67 1259.39 1245.4 1267.99 1242.05C1276.32 1238.81 1273.1 1229.22 1279.28 1225.24C1284.29 1222.02 1291.44 1224.02 1297 1223.17C1311.56 1220.92 1327.61 1214.85 1342 1214.3C1360.05 1213.61 1355.97 1243.97 1375.68 1236.35C1390.04 1230.8 1394.03 1198.28 1374.93 1197.08C1361.98 1196.26 1364.73 1208.9 1356.28 1212.2C1352.15 1213.81 1343.23 1210.08 1338 1210.87C1321.63 1213.33 1306.88 1219.4 1290 1220M1370.1 1201.61C1385.97 1196.58 1388.65 1228.42 1373.86 1232.43C1355.71 1237.35 1357.45 1205.61 1370.1 1201.61M123 1227L126 1229C125.02 1227.22 125.092 1227.41 123 1227M1538 1400C1546.49 1394.2 1553.43 1367.02 1559.17 1357C1578.72 1322.85 1601.47 1297.43 1634 1275.28C1650.47 1264.06 1674.16 1254.27 1693.92 1262.78C1723.19 1275.38 1755.32 1323.12 1755.98 1355C1756.24 1367.33 1757.35 1402.02 1738.15 1400.46C1732.13 1399.97 1734.82 1388.96 1735.22 1385C1736.78 1369.75 1742.53 1353.31 1741.86 1338C1740.47 1305.97 1677.67 1276.27 1650 1283.96C1608.9 1295.4 1588.73 1342.54 1569.72 1376C1566.22 1382.16 1562.58 1401.08 1558.05 1404.7C1552.42 1409.19 1521.4 1408.87 1514 1407C1522.86 1389.31 1526.72 1368.93 1534.86 1351C1545.37 1327.86 1559.94 1310.76 1575.5 1291C1600.7 1259.01 1619.03 1234.82 1662 1228.48C1696.12 1223.44 1736.29 1248.93 1751.2 1280C1759.33 1296.96 1761.64 1317.92 1766.72 1336C1771.73 1353.8 1786.55 1377.38 1773.97 1395.77C1770.44 1400.93 1756.9 1405.31 1754.24 1396.64C1750.82 1385.47 1761.91 1364.14 1760.84 1351C1758.31 1319.95 1722.28 1267.25 1692 1257.56C1669.41 1250.32 1649.73 1261.96 1631 1273.41C1589.03 1299.06 1546.74 1350.76 1538 1400M1375 1239C1375.06 1253.42 1374.69 1272.55 1380 1286C1359.79 1282.54 1354.19 1311.6 1366.27 1323.8C1377.66 1335.31 1395.62 1324.88 1395.75 1310C1395.84 1299.86 1385.61 1293.97 1382.63 1285C1378.06 1271.29 1378.01 1253.37 1378 1239L1375 1239M1204 1264C1189.19 1265.42 1183.92 1287.19 1189 1299C1178.9 1306.38 1169.17 1327.77 1167 1340C1178.31 1333.58 1181.81 1311.6 1189.27 1301.32C1196.87 1290.86 1211.91 1296.04 1214.79 1277C1216.25 1267.3 1203.85 1255.6 1204 1264M1207 1270C1205.71 1267.98 1204.81 1266.24 1204 1264C1220.41 1265.57 1207.08 1296.59 1194.16 1294.3C1187.47 1293.12 1191.98 1264.2 1207 1270M942 1325C943.788 1330.08 954.261 1331.17 959 1333.87C972.614 1341.64 1013.35 1353.99 1018.36 1370.08C1020.52 1376.99 1000.78 1378.67 997 1380.14C978.649 1387.26 958.896 1377.36 940.985 1375.19C935.182 1374.49 930.671 1378.49 925 1379C930.546 1383.16 934.092 1378.78 940.008 1380.04C962.414 1384.79 980.962 1388.11 1003 1381.77C1007.88 1380.37 1023.39 1380.25 1024.7 1373.28C1025.92 1366.74 1014.35 1359.72 1010 1356.93C992.963 1345.97 972.135 1333.47 953 1327C969.519 1313.49 993.614 1306.76 1012 1295.48C1014.25 1294.11 1029.51 1285.8 1027.46 1282.77C1024.81 1278.87 1009.83 1291.63 1007 1293.29C988.121 1304.32 963.406 1320.92 942 1325M1651 1287.48C1677.49 1281.97 1734.38 1307.54 1735.92 1337C1736.74 1352.78 1733.04 1369.33 1731.32 1385C1730.94 1388.47 1732.77 1399.49 1727.75 1400.07C1717.74 1401.23 1727.76 1369.92 1728 1364C1729.12 1336.27 1706.17 1305.02 1678 1299.45C1631.84 1290.31 1610.8 1343.54 1590.34 1373C1584.79 1381 1583.37 1403.02 1572.05 1403.73C1554.63 1404.82 1575.97 1370.98 1578.86 1366C1595.28 1337.77 1614.64 1295.05 1651 1287.48M1372.1 1289.88C1385.54 1285.1 1401.23 1316.24 1382.98 1322.79C1364.05 1329.59 1357.35 1295.13 1372.1 1289.88M408 1308L412 1307C412.814 1309.09 413.532 1310.31 415 1312C414.726 1307.63 409.763 1300.49 408 1308M524 1318C552.122 1319.3 547.123 1339.32 550.353 1361C551.278 1367.21 557.072 1378.04 554.779 1383.87C545.141 1408.39 531.434 1379.45 529.647 1369.14C528.54 1362.75 526.734 1356.47 526.008 1350C524.81 1339.34 525.033 1328.63 524 1318M528.5 1320.5C527.873 1321.13 528.873 1322.13 529.5 1321.5C530.127 1320.87 529.127 1319.87 528.5 1320.5M1373 1336C1374.9 1334.72 1375.26 1334.18 1376 1332C1373.3 1332.58 1373.21 1333.26 1373 1336M1159 1341C1158.06 1351.07 1155.19 1360.86 1155 1371C1161.2 1368.55 1160.96 1353.11 1161 1347C1164.35 1347.59 1167.6 1347.94 1171 1348C1169.39 1353.86 1170.54 1364.49 1166.76 1369.2C1161.62 1375.61 1151.7 1377.66 1146.56 1385.22C1139.17 1396.1 1128.59 1446.65 1156.92 1432.06C1185.9 1417.14 1175.19 1389.5 1173.23 1366C1172.86 1361.66 1178.59 1344.63 1175.68 1342.06C1175.04 1341.49 1162.32 1342.17 1159 1341M1374 1354C1372.05 1361.18 1370.63 1380.69 1379 1384C1377.79 1375.13 1378.79 1361.59 1374 1354M1163 1382C1164.47 1373.46 1173.12 1374.77 1173.89 1383.02C1175.09 1395.81 1172.07 1412.74 1163.44 1422.8C1158.76 1428.27 1147.2 1433.9 1143.17 1424.9C1138.18 1413.78 1146.8 1373.81 1163 1382M1367.24 1382.86C1356.14 1385.54 1354.47 1426.87 1374.68 1421.39C1393.85 1416.2 1381.81 1379.35 1367.24 1382.86M1368.23 1387.32C1375.88 1385.79 1390.08 1413.05 1373.99 1416.43C1359.21 1419.54 1362.2 1388.53 1368.23 1387.32M1987 1441L1988 1442L1987 1441M1912 1601C1891.54 1579.18 1927.49 1539.36 1951.96 1541.53C1982.08 1544.21 1987.81 1590.68 1988 1613C1988.05 1618.13 1989.26 1643.45 1993.15 1643.77C2001.55 1644.46 2042.22 1638.06 2047.02 1631.44C2051.48 1625.29 2049.53 1609.46 2050.14 1602C2051.9 1580.69 2056.82 1543.37 2077.22 1531.2C2092.26 1522.23 2111.55 1524.71 2119.22 1541C2122 1546.91 2120.85 1555.1 2123.83 1560.48C2125.67 1563.83 2134.65 1562.75 2137.16 1560.62C2143.63 1555.12 2132.37 1528.44 2128.71 1523C2111.25 1497.01 2095.62 1492.32 2065 1501.6C2036.52 1510.23 2023.56 1546.57 2021.89 1574C2021.35 1582.82 2027.12 1608.98 2012.28 1607.96C2006.7 1607.58 2008.7 1578.25 2007.65 1573C2001.91 1544.2 1970.45 1500.17 1937.04 1515.43C1915.77 1525.14 1898.58 1544.55 1900.09 1569C1900.69 1578.89 1895.8 1604.23 1912 1601M1993 1640C1997.36 1611.54 1993.78 1565.62 1968.96 1545.62C1951.83 1531.81 1930.83 1539.4 1915.22 1553.76C1912.58 1556.19 1908.2 1568.19 1905.89 1568.68C1903.04 1569.28 1903.84 1563.32 1903.97 1562C1905.95 1541.89 1935.03 1510.32 1957 1515.94C1979.28 1521.64 1997.59 1549.96 2002.3 1571C2003.55 1576.58 2002.53 1614.87 2007.21 1614.63C2036.35 1613.14 2024.03 1581.62 2028.71 1560C2036.94 1521.93 2058.4 1498.69 2099 1501.08C2115.09 1502.03 2130.5 1527.28 2131.01 1542C2131.11 1544.9 2134.87 1555.78 2132.14 1557.46C2129.79 1558.9 2119.27 1533.36 2116.45 1529.97C2104.62 1515.72 2080.4 1522.15 2069.08 1534C2051.85 1552.05 2050.08 1575.85 2045.94 1599C2044.42 1607.47 2046.76 1621.91 2040.32 1628.44C2033.67 1635.16 2003.01 1638.7 1993 1640M510 1543C495.912 1539.18 485.52 1531.18 470 1534.6C431.121 1543.18 471.343 1581.75 486 1591C475.752 1590.94 465.303 1585.58 455 1587.87C439.078 1591.41 428.636 1616.8 438.642 1629.99C448.18 1642.57 468.769 1639.45 474.279 1657.01C479.857 1674.79 481.295 1699.28 483.815 1718C485.064 1727.27 485.841 1741.06 495.099 1746.3C503.399 1751 509.149 1739.56 510.35 1732.99C512.802 1719.57 510.723 1689.53 504 1678C524.215 1682.31 536.411 1713.91 555.997 1721.83C566.191 1725.95 566.76 1713.95 565.721 1707C563.776 1693.99 552.074 1678.86 544 1669C553.311 1672.09 562.775 1677.45 572 1681.25C576.322 1683.03 580.524 1685.17 585 1686.56C605.169 1692.8 607.985 1681.39 602.003 1664C597.274 1650.26 582.691 1639.01 572.665 1628.76C568.148 1624.15 555.148 1613.89 547.892 1617.77C545.295 1619.16 562.802 1625.63 564.981 1627.43C573.89 1634.77 612.533 1668.85 600.1 1683.42C596.265 1687.91 584.404 1680.86 580 1679.32C565.802 1674.34 551.396 1669.17 539.225 1660.07C532.698 1655.19 530.24 1645.03 522 1643C524.972 1662.54 547.812 1677.76 555.987 1696C558.287 1701.13 564.05 1709.93 561.171 1715.71C558.031 1722 545.453 1707.65 542.562 1705.31C530.956 1695.95 515.653 1682.78 506.675 1670.88C502.862 1665.83 503.735 1658.17 499 1654C495.077 1672.16 504.858 1699.07 505.92 1718C506.263 1724.12 507.641 1736.88 502.398 1741.36C493.362 1749.07 489.309 1726.52 488.801 1722C485.642 1693.91 478.001 1667.68 478 1639C473.638 1641.29 474.199 1644.62 475 1649C462.984 1642.55 471.682 1639.74 475 1632C468.387 1632.55 462.765 1636.27 456 1635.9C432.885 1634.64 435.819 1608.45 448.417 1596.46C456.699 1588.58 471.097 1592.87 481 1594.48C482.985 1594.81 496.278 1596.74 495.559 1593.07C494.111 1585.69 466.856 1572.17 461.291 1564C450.715 1548.48 466.665 1536.41 482 1537.19C504.072 1538.3 509.316 1562.87 528 1566C525.077 1558.51 511.996 1550.91 512.644 1543C513.529 1532.21 531.932 1500.77 544.654 1514.21C554.338 1524.43 550 1537.59 550 1550C558.992 1546.04 553.952 1532.84 559.704 1525.68C570.432 1512.33 588.894 1511.05 588.452 1532C588.199 1543.98 577.875 1554.07 570.9 1563C568.819 1565.66 560.981 1574.17 564.321 1577.92C567.217 1581.17 576.079 1573.2 580 1573.47C589.583 1574.12 624.211 1596.56 621.099 1607.56C616.373 1624.26 582.91 1618.15 572 1614.04C570.418 1613.44 556.643 1605.99 556.643 1610.03C556.643 1613 570.426 1618.06 573 1619.05C586.873 1624.38 616.222 1627.54 624.229 1611C633.08 1592.71 585.032 1562.58 570 1573C575.671 1555.07 597.135 1545.97 591.124 1524C583.61 1496.53 569.407 1521.68 555.222 1521.56C550.535 1521.52 547.253 1509.52 541.856 1507.72C526.264 1502.52 508.849 1529.8 510 1543M844 1535C833.995 1539.25 844.046 1553.4 847.012 1560C854.06 1575.68 860.313 1593.72 869.961 1608C874.584 1614.84 883.896 1621.06 880 1630C894.754 1637.52 882.27 1633.59 892.343 1627.77C923.617 1609.7 921.328 1582.49 923.763 1549C924.513 1538.67 932.42 1526.57 943.96 1532.01C965.145 1542.01 985.134 1608.65 961.912 1623.25C952.242 1629.33 932.36 1630.95 921 1631C919.081 1631.01 908.592 1630.32 909.323 1634.1C910.138 1638.3 920.146 1636.92 923 1636.72C933.338 1636.01 954.688 1634.43 963.957 1639.26C972.626 1643.77 982.393 1670.24 966.553 1671.74C944.865 1673.79 933.781 1657.64 916 1651C917.971 1665.15 937.239 1672.69 943.358 1687C945.522 1692.06 946.691 1702.97 939.933 1705.33C932.147 1708.05 913.156 1677.86 909.21 1672C908.329 1670.69 902.122 1660.33 899.954 1664.67C897.964 1668.66 907.88 1679.48 909.784 1683C917.292 1696.87 922.121 1715.42 922 1731C909.537 1719.76 902.169 1703.23 895.708 1688.14C894.603 1685.55 890.005 1672.64 887.051 1672.64C882.22 1672.64 888.695 1684.67 889.382 1686C895.05 1696.97 902.239 1710.81 903.65 1723C903.966 1725.73 905.435 1734.03 901.819 1735.36C897.316 1737.01 891.645 1725.94 890.045 1723C883.129 1710.28 880.523 1697.57 876.205 1684C875.48 1681.72 874.335 1671.68 872.388 1670.76C869.185 1669.25 868.145 1677.44 867.902 1679C866.996 1684.8 856.844 1707.58 850.302 1708.38C846.028 1708.89 849.694 1696.03 850.129 1694C853.26 1679.4 861.789 1666.27 863 1651C853.927 1656.89 845.645 1686.2 844.26 1697C843.662 1701.67 842.635 1715.29 851.008 1713.03C861.185 1710.29 865.958 1691.63 872 1684C875.428 1699.68 878.948 1713.13 887.556 1727C900.912 1748.52 906.951 1737.23 907 1719L922 1738C934.413 1724.67 921.732 1703.72 916 1690C924.35 1694.7 926.725 1708.11 936.019 1711.08C961.526 1719.24 941.939 1676.13 938 1670C946.045 1673.35 962.441 1679.27 970.978 1675.42C985.442 1668.89 977.824 1643.26 967.856 1636.21C960.593 1631.07 951.263 1633.69 943 1633C955.753 1628.08 967.339 1631.1 974.356 1616C984.6 1593.95 967.584 1526.02 938 1526.04C928.283 1526.05 922.449 1534.35 919.971 1543C913.407 1565.91 920.825 1584.86 908.208 1607C898.739 1623.61 890.214 1628.14 878.43 1611.44C875.324 1607.03 872.327 1602.82 869.882 1598C865.514 1589.39 861.476 1580.83 857.562 1572C852.509 1560.6 843.403 1547.76 844 1535M865 1648C860.868 1625.28 840.991 1595.43 829.063 1575.56C827.481 1572.93 816.956 1551.93 815.042 1554.1C813.197 1556.19 822.566 1574.25 824.217 1577C834.077 1593.44 843.136 1610.95 851.963 1628.01C855.56 1634.96 856.968 1644.69 865 1648M40 1566C53.7693 1591.44 84.531 1607.35 99 1632C73.5281 1629.59 45.5352 1607.26 20 1617C40.062 1661.43 41.5408 1711.68 63.7368 1754C69.8775 1765.71 75.5633 1774.06 83.1542 1785C84.7726 1787.33 85.5771 1794.17 88.3376 1795.14C96.2911 1797.91 93.6145 1772.7 94.4311 1770.06C101.623 1746.83 101.544 1716.8 100 1691C128.985 1723.52 136.687 1773.5 168 1805C179.883 1779.8 178.864 1744.35 184.202 1717C185.229 1711.74 185.086 1691.26 188.036 1688.26C191.584 1684.66 203.123 1687.4 207.864 1686.79C221.182 1685.06 237.568 1680.71 251 1682.74C260.591 1684.19 278.172 1692.84 287.499 1688.96C298.17 1684.52 283.192 1655.32 279.575 1650C257.431 1617.4 215.885 1611.92 185 1592C205.51 1587.59 229.542 1588.3 248 1576.83C251.742 1574.5 264.721 1564.59 261.504 1558.93C257.754 1552.34 217.972 1558.58 210 1559.14C172.977 1561.72 135.979 1568 99 1568C83.1303 1568 53.2094 1561.31 40 1566M162 1790C152.526 1761.49 127.798 1730.99 113.345 1704C111.704 1700.94 99.1148 1677.19 96.3267 1680C93.6444 1682.71 96 1696.12 96 1700C96 1719.35 92.3482 1737.04 91.073 1756C90.8052 1759.98 91.6853 1778.88 86.5723 1779.68C75.632 1781.39 68.9927 1753.29 64.3877 1747C51.2736 1729.07 51.7501 1704.24 47.0867 1683C42.3149 1661.26 31.4023 1640.2 27 1619C55.2104 1619.04 79.8396 1636 108 1636C97.7008 1618.41 77.8839 1604.99 64.995 1589C62.7547 1586.22 51.7501 1576.42 53.105 1572.69C54.4201 1569.07 91.721 1573 97 1573C137.505 1573 177.173 1564.04 218 1564C223.029 1564 252.835 1558.87 254.456 1561.96C257.522 1567.79 242.683 1574.47 239 1575.92C221.587 1582.78 196.845 1589.17 178 1588.53C175.541 1588.44 156.52 1583.82 156.52 1587.14C156.52 1589.76 187.824 1598.35 192 1600.23C220.864 1613.17 265.922 1627.99 279.976 1659C281.964 1663.39 290.864 1684.33 281.852 1685.19C272.442 1686.08 260.747 1679.3 251 1678.24C236.511 1676.66 218.598 1679.87 204 1681.22C200.667 1681.53 181.899 1681.4 181.213 1682.51C178.911 1686.21 182.905 1697.1 182.296 1702C179.645 1723.33 175.865 1744.88 171.821 1766C170.322 1773.82 169.238 1785.45 162 1790M51 1562L52 1563L51 1562M1184 1563C1184.31 1580.03 1179.68 1600.02 1179.04 1619C1177.98 1650.51 1181.34 1682.35 1180.99 1714C1180.79 1731.96 1174.56 1753.44 1179 1771C1185.41 1767.04 1193.39 1766.31 1198.08 1759.91C1205.98 1749.14 1205 1730.69 1205 1718C1205 1689.98 1204 1662.05 1204 1634C1204 1624.01 1201.45 1582.95 1211.46 1577.7C1217.53 1574.52 1250.47 1575.13 1254.6 1581.48C1259.75 1589.4 1254.53 1619.33 1253.44 1629C1250.09 1658.75 1252.34 1691.89 1252.01 1722C1251.8 1740.24 1253.78 1756.02 1236 1763C1236.18 1718.07 1228.64 1669.4 1234.58 1625C1235.81 1615.82 1243.66 1583.98 1232 1581C1235.84 1602.68 1229.2 1625.28 1228.46 1647C1227.68 1669.78 1232.98 1692.23 1233 1715C1233.01 1730.85 1228.11 1750.95 1234 1766C1221.14 1766 1208.54 1767.42 1196 1770.2C1194.64 1770.5 1183.41 1770.86 1184.76 1773.46C1186.25 1776.33 1194.52 1774.98 1197 1774.6C1209.39 1772.69 1221.59 1771.84 1234 1770.44C1266.56 1766.77 1299.46 1759.59 1332 1757.14C1347.42 1755.98 1368.57 1761.9 1382.79 1758.77C1386.54 1757.94 1394.75 1749.14 1386 1750C1392.92 1712.95 1394.24 1675.66 1395.02 1638C1395.11 1633.7 1397.32 1599.89 1394.67 1601.54C1387.91 1605.78 1390.04 1639.42 1390 1647C1389.86 1673.08 1389.81 1700.25 1385.76 1726C1384.74 1732.47 1385.46 1746.56 1380.31 1751.18C1374.1 1756.76 1353.19 1752.51 1345 1753C1368.48 1729.06 1361.51 1660.88 1359.14 1627C1358.29 1614.95 1362.09 1599.87 1356 1589C1367.76 1589.01 1377.51 1594.85 1389 1594.85C1391.25 1594.85 1398.61 1597.22 1399.31 1593.72C1400.22 1589.08 1390.37 1589.98 1388 1590.04C1375.48 1590.37 1361.99 1583.03 1349 1582.06C1314.45 1579.49 1277.84 1574.53 1243.93 1571.28C1226.54 1569.61 1207.13 1575.48 1190.03 1570.66C1185.18 1569.29 1189.01 1564.34 1184 1563M1197.99 1576.35C1209.54 1575.56 1200.1 1607.95 1200.01 1616C1199.59 1654.02 1200.24 1692.03 1200 1730C1199.94 1739.2 1200.59 1764.65 1186.28 1764.39C1181.07 1764.3 1183.76 1728.39 1184.64 1723C1190.68 1685.97 1181.29 1648.09 1184.79 1611C1185.97 1598.43 1181.4 1577.49 1197.99 1576.35M1298 1578C1284.82 1589.48 1289.79 1601.73 1289.99 1620C1290.34 1650.97 1291.52 1682.2 1288.32 1713C1287.38 1722.03 1281.85 1750.9 1293.06 1754.8C1319.89 1764.13 1315.92 1732.21 1316 1717C1316.25 1670.85 1317.22 1624.68 1312 1579C1316.16 1580.78 1331.51 1581.59 1333.4 1584.82C1338.88 1594.16 1330.1 1620.51 1331.32 1632C1334.75 1664.24 1336.83 1692.74 1331.7 1725C1330.78 1730.8 1332.46 1749.12 1328.18 1752.76C1319.66 1760.01 1301.54 1757.28 1291.32 1759.76C1282.86 1761.81 1262.59 1766.65 1254.5 1763.5C1249.47 1761.54 1254.16 1752.47 1254.7 1749C1256.98 1734.4 1256.98 1719.73 1257.87 1705C1259.83 1672.8 1255.34 1640.03 1258.68 1608C1259.32 1601.88 1257.47 1583.55 1261.28 1579.18C1265.24 1574.64 1292.19 1576.64 1298 1578M1304.31 1580.61C1314.63 1581.15 1310.63 1613.34 1311.32 1620C1314.75 1652.99 1311.38 1687.79 1311.01 1721C1310.86 1733.87 1315.9 1753.72 1296.15 1752.15C1288.48 1751.54 1291.87 1721.08 1292.56 1715C1296.5 1680.32 1294 1645.73 1294 1611C1294 1601.69 1288.78 1579.8 1304.31 1580.61M1612 1630C1593.78 1618.8 1576.75 1597.83 1553 1604.05C1523.64 1611.75 1531.06 1654.24 1557 1661C1554 1655.32 1548.99 1651.23 1547 1645C1551.02 1647.35 1554.32 1648.77 1559 1649C1555.53 1641.65 1547.75 1638.62 1546 1630L1551 1631C1541 1597.26 1580.08 1618.12 1592 1626.23C1596.04 1628.98 1604.8 1633.04 1605.16 1638.69C1605.5 1643.91 1593.36 1670.16 1588.6 1672.32C1583.61 1674.58 1573.83 1670.69 1568 1671.32C1550.1 1673.28 1521.68 1683.02 1511.78 1699.04C1505.81 1708.7 1509.5 1726.76 1515.23 1735.92C1520.98 1745.11 1530.77 1745.27 1535 1735C1519.51 1744.14 1523.93 1704.73 1529.24 1697.05C1539.66 1682 1582.07 1682.64 1582.91 1706C1583.5 1722.47 1552.53 1737.71 1549 1754C1568.36 1749.71 1580.68 1723.04 1596.66 1712.67C1599.11 1711.09 1600.34 1703.67 1603.1 1703.64C1605.67 1703.61 1619.75 1714.53 1625 1716C1621.52 1720.44 1617.44 1724.52 1613 1728C1614.8 1724.3 1615.8 1721.12 1616 1717C1603.24 1727.56 1588.11 1754.01 1580.33 1768.99C1579.36 1770.86 1564.76 1788.69 1574.21 1788.25C1578.74 1788.04 1580.54 1779.63 1583.99 1776.98C1601.7 1763.33 1610.54 1738.81 1626 1724C1626 1739.38 1627 1754.63 1627 1770C1627 1773.09 1625.63 1783.85 1630.14 1784.68C1634.13 1785.4 1632 1768.67 1632 1766C1634.22 1768.29 1637.64 1780.24 1640.7 1779.68C1644.93 1778.9 1641.07 1763.83 1640.46 1761C1635.52 1738.01 1641 1717.81 1641 1695C1654.34 1706.31 1655.66 1727.91 1650 1742C1653.22 1742.44 1654.28 1743.24 1656 1746L1650 1745C1650.73 1754.54 1667.27 1768.84 1676 1772C1675.6 1769.69 1675.04 1768.1 1674 1766C1693.12 1768.64 1675.56 1750.51 1683.76 1741.37C1693.58 1730.44 1738.39 1721.04 1708 1705C1709.15 1709.85 1701.64 1730.08 1696.59 1722.02C1695.33 1720.01 1706.32 1704 1700.98 1704C1694.06 1704 1691.63 1722.98 1681.96 1723.82C1670.36 1724.84 1668.08 1710.99 1664.85 1703.01C1658.14 1686.41 1645.5 1679.15 1647 1660C1644.46 1661.93 1643.08 1664.6 1641 1667C1642.14 1648.59 1655.03 1643.25 1668.98 1654.71C1678.84 1662.8 1684.04 1675.88 1687 1688L1677 1683C1677.88 1686.58 1686.12 1693.64 1689.16 1688.38C1699.3 1670.81 1667.44 1649.56 1658 1642C1676.5 1642.2 1710.54 1666.13 1708 1687C1705.78 1684.44 1703.84 1681.85 1702 1679C1697.15 1699.13 1724.97 1687.83 1720.39 1669.03C1717.15 1655.73 1699.3 1640.64 1687 1636.15C1682.67 1634.57 1666.48 1635.55 1664.94 1630.69C1663.16 1625.09 1689.68 1603.24 1675.63 1596.83C1663.25 1591.18 1656.64 1624.32 1646.7 1622.8C1639.5 1621.7 1646.72 1590.23 1642.4 1584.66C1639.37 1580.77 1635 1586.34 1634.02 1589.09C1628.78 1603.81 1617.2 1615.15 1612 1630M1334 1754C1334 1733.93 1339.77 1714.85 1339.99 1695C1340.26 1670.69 1334.95 1646.98 1335 1623C1335.02 1611.61 1331.32 1580.67 1348.8 1588.28C1359.56 1592.97 1354.48 1619.65 1355.14 1629C1357.11 1657.21 1354.29 1684.88 1353.03 1713C1352.22 1731.19 1353.43 1746.64 1334 1754M1641 1596C1640.99 1598.35 1640.89 1598.61 1639 1600L1639 1596L1641 1596M1674 1600L1674 1603L1672 1603L1672 1600L1674 1600M1546 1613C1542.33 1622.24 1540.65 1626.98 1541 1637C1532.06 1630.01 1536.27 1616.47 1546 1613M1664.67 1613.67C1664.72 1613.72 1664.78 1614.78 1664.33 1614.33C1664.28 1614.28 1664.22 1613.22 1664.67 1613.67M1662 1617.33C1662.89 1617.33 1662.89 1618.67 1662 1618.67C1661.11 1618.67 1661.11 1617.33 1662 1617.33M1659 1622C1658.59 1624.09 1658.78 1624.02 1657 1625L1659 1622M1627 1646C1619 1638.21 1631.77 1630.72 1627 1646M1715 1680L1712 1680C1708.16 1658.82 1695.46 1651 1678 1640C1694.97 1634.35 1720.66 1664.66 1715 1680M1624 1662L1622 1667C1621.46 1665.02 1621.57 1664.04 1622 1662L1624 1662M1619 1669C1618.06 1671.51 1617.51 1672.06 1615 1673C1615.97 1670.51 1616.47 1669.85 1619 1669M1630 1671L1627 1673C1627.98 1671.22 1627.91 1671.41 1630 1671M1595 1675.33L1595.33 1675.67C1594.84 1675.83 1594.23 1675.33 1595 1675.33M1545 1684C1548.86 1676.11 1586.01 1671.77 1584.56 1681.01C1584.3 1682.64 1550.19 1683.21 1545 1684M1625 1676C1624.64 1686.69 1625.5 1698.3 1628 1709C1612.04 1700.01 1611.11 1687.04 1625 1676M959.667 1679.33C959.222 1679.78 960.278 1679.72 960.333 1679.67C960.778 1679.22 959.722 1679.28 959.667 1679.33M1630 1682C1629.85 1684.13 1629.55 1685.93 1629 1688C1627.66 1685.29 1628.09 1684.31 1630 1682M1591 1684C1590.23 1685.18 1590.18 1685.23 1589 1686C1589.55 1684.36 1589.37 1684.54 1591 1684M1573 1688C1582.3 1685.31 1582.9 1695.75 1573 1688M1591 1688L1589 1691L1591 1688M1657 1714C1654.68 1711.81 1643.41 1692.34 1645.94 1690.61C1651.04 1687.12 1656.97 1710.8 1657 1714M1585 1695.33L1585.33 1695.67C1584.84 1695.83 1584.23 1695.33 1585 1695.33M1522 1696.33C1522.77 1696.33 1522.16 1696.83 1521.67 1696.67L1522 1696.33M1519 1700C1519 1707.14 1519.02 1713.92 1520 1721C1512.62 1716.66 1511.31 1704.71 1519 1700M1662 1715C1664.86 1717.9 1665.65 1719.96 1665 1724C1662.38 1721.22 1661.08 1718.82 1662 1715M1517 1724C1520.94 1728.42 1522.75 1732.07 1523 1738C1518.27 1735.83 1514.92 1728.94 1517 1724M1667 1725L1670 1732C1664.75 1732.74 1664.66 1728.76 1667 1725M1682 1728C1680.79 1732.32 1677.75 1731.63 1676 1728L1682 1728M1690 1729L1687 1731L1690 1729M1661 1738.33C1661.89 1738.33 1661.89 1739.67 1661 1739.67C1660.11 1739.67 1660.11 1738.33 1661 1738.33M1676 1744C1670.06 1741.58 1675.06 1737.59 1676 1744M1663 1742C1664.65 1747.37 1666.91 1752.47 1668 1758C1662.7 1754.66 1660.09 1748.14 1661 1742L1663 1742M1601 1747.33C1601.77 1747.33 1601.16 1747.83 1600.67 1747.67L1601 1747.33M1676 1747C1676.99 1750.62 1677.5 1754.28 1678 1758C1672.63 1755.59 1671.82 1751.02 1676 1747M1596.67 1752.67C1596.72 1752.72 1596.78 1753.78 1596.33 1753.33C1596.28 1753.28 1596.22 1752.22 1596.67 1752.67M1243 1764L1243 1766L1240 1766L1240 1764L1243 1764M467 1767C467.773 1768.18 467.824 1768.23 469 1769C468.455 1767.36 468.635 1767.55 467 1767M93 1796L96 1798C95.0198 1796.22 95.0924 1796.41 93 1796M1911 1990L1906 1990C1908.38 1994.58 1923 2007.73 1922.52 2010.86C1919.81 2028.42 1886.95 2053.95 1900.26 2074.56C1904.82 2081.62 1916.92 2080.82 1921.85 2087.29C1926.75 2093.72 1917.7 2104.56 1928.01 2106.47C1938.74 2108.46 1948.68 2098.93 1959 2101.66C1966.79 2103.72 1985.57 2116.83 1993.44 2113.12C2001.29 2109.42 1995.86 2085.23 1998.94 2078.12C2002.92 2068.95 2013.8 2068.22 2020.12 2063.57C2022.88 2061.55 2021.51 2055.4 2024.53 2052.42C2026.4 2050.58 2032.08 2049.69 2032.89 2047.3C2034.19 2043.5 2019.19 2034.28 2016.96 2030.55C2010.78 2020.21 2010.66 1998.15 2009 1986C2026.03 1994.69 2035.19 2020.91 2056 2021C2045.34 2004.6 2021.71 1993.97 2009.98 1976.96C2003.07 1966.95 2006.16 1947.75 1998.14 1939.65C1992.25 1933.7 1985.31 1945.1 1979.66 1941.22C1966.09 1931.92 1964.43 1910.71 1958 1897C1949.79 1903.35 1959.47 1914.15 1960.15 1922C1961.22 1934.53 1955.79 1970.69 1946.11 1979.46C1939.7 1985.27 1912.19 1961.16 1906.02 1957.17C1903.9 1955.8 1896.65 1948.51 1894.28 1951.09C1886.62 1959.44 1907.96 1983 1911 1990M155 1961C159.706 1967.67 167.061 1961.21 171.21 1956.91C181.838 1945.9 187.46 1930.88 198 1920C197.955 1931.36 195.761 1942.7 194.856 1954C194.697 1955.99 192.187 1964.02 195.402 1964.68C199.699 1965.56 199.929 1953.33 199.982 1951C200.37 1934.11 203.539 1918.25 207 1902C199.333 1903.9 196.285 1912.91 192.316 1919C182.949 1933.38 172.754 1955.94 155 1961M85 1997C92.6048 1993.89 89.4315 1982.46 87.8166 1976C82.8737 1956.24 75.2127 1936.91 71 1917C88.367 1927.75 94.3851 1953.5 114 1964C112.675 1951.05 85.9774 1928.73 77.9929 1917C76.9248 1915.43 68.1652 1902.1 66.5533 1907.53C58.4103 1934.94 88.2384 1968.48 85 1997M941 2079C936.173 2065.54 933.758 2077.3 926.533 2074.57C923.685 2073.49 921.887 2067.15 919 2065C902.026 2080.93 912.001 2062.31 899.617 2058.75C895.53 2057.58 891.266 2063.29 887.001 2063.53C874.671 2064.21 879.869 2054.79 868 2063C869.341 2048.52 861.832 2014.27 869.498 2002.44C872.652 1997.57 878.451 2008.68 884.008 2007.15C890.748 2005.29 893.013 1996.46 899.049 1994.76C903.404 1993.54 906.772 2005.88 911.206 2007.52C918.245 2010.11 918.109 1997.65 924.069 1997.64C928.993 1997.64 932.612 2008.45 937 2011C935.71 2004.65 930.13 1990.25 921.1 1993.66C917.91 1994.87 915.445 2002.48 912.14 2001.92C905.859 2000.86 907.823 1987.29 899.938 1988.75C892.446 1990.15 890.88 2000.49 884.005 2002.11C877.978 2003.54 875.87 1993.81 868 1996C869.652 1983.17 873.557 1961.96 872 1950C860.416 1958.03 862.748 1981.37 863.459 1994C865.311 2026.9 864.807 2060.81 866.487 2094C867.038 2104.87 868.697 2129.46 878.563 2136.82C892.375 2147.12 931.246 2141.38 945.217 2134.72C948.192 2133.3 960.997 2133.75 960.997 2129.23C960.997 2125.22 946.329 2129.4 944 2130C945.722 2081.41 945 2033.57 945 1985C945 1968.99 949.962 1938.11 940.819 1924.24C931.433 1910 890.54 1938.02 879 1941.82C874.82 1943.2 860.528 1944.73 861.28 1951.36C861.285 1951.41 876.37 1947.02 879 1946.26C890.084 1943.02 925.921 1917.7 935.499 1926.58C942.694 1933.25 938.395 1953.11 939.32 1962C942.762 1995.08 950.533 2046.95 941 2079M1965 1929C1980.51 1948.59 1985.26 1955.43 1976.72 1979C1975.19 1983.23 1974.95 1991.88 1970.87 1994.61C1967.01 1997.19 1950.64 1986.85 1951.96 1981.94C1955.44 1968.99 1973.81 1964.27 1978 1951C1969.52 1955.52 1964.37 1964.23 1956 1969C1958.14 1956.6 1960.73 1940.73 1965 1929M590 1986C597.18 1978.92 612.919 1964.39 613 1954C598.442 1965.27 591.31 1981.93 574 1990.36C566.473 1994.02 551.603 1990.45 542.438 1992.76C529.786 1995.93 526.666 2000.3 541.996 1997.31C544.676 1996.79 547.283 1996.28 550 1996L548 2001C551.95 2000.96 555.261 2001.09 558 1998L551 1996C556.203 1994.66 561.693 1994.05 567 1995C543.367 2014.4 521.786 2005.56 503.185 1984C500.537 1980.93 482.83 1952.22 480.718 1953.54C477.678 1955.45 477.781 1962.85 476.422 1965.96C471.922 1976.25 466.147 1986.58 461.42 1997C453.748 2013.91 444.833 2029.9 446.173 2049C452.407 2137.82 549.803 2157.82 608.949 2101.12C620.806 2089.75 631.417 2058.06 635.581 2042C641.839 2017.86 626.677 1991.52 622.019 1968C619.794 1956.76 623.896 1947.09 624 1936C607.425 1946.23 617.38 1981.18 590 1986M1261 2091C1268.21 2101.55 1271.54 2066.03 1273.09 2059C1278.71 2033.39 1280 2004.16 1280 1978C1280 1971.36 1284.01 1958.97 1281.57 1953.14C1274.19 1935.49 1220.46 1925.72 1211.28 1945.19C1205.08 1958.33 1208.02 1975.06 1206.78 1989C1203.82 2022.38 1197.15 2061.76 1200.11 2095C1201.01 2105.16 1209.03 2105.85 1216.86 2108.85C1235.29 2115.9 1254.81 2111.98 1261 2091M1235 1940.4C1247.04 1939.73 1268.8 1941.4 1275.72 1953.41C1279.46 1959.89 1276.1 1978.48 1275.32 1986C1272.57 2012.41 1272.66 2039.02 1266.91 2065C1262.73 2083.91 1256.48 2108.06 1233 2108.61C1225.47 2108.78 1207.57 2105.36 1204.17 2097.84C1199.97 2088.56 1206.11 2071 1206.87 2061C1208.78 2035.6 1210.54 2010.47 1211.55 1985C1211.99 1973.89 1209.65 1957.58 1214.8 1947.35C1217.77 1941.46 1229.27 1940.72 1235 1940.4M1995 1941C1996.69 1950.32 1999.65 1958.88 2002 1968C1990.97 1963.43 1982.76 1948.44 1995 1941M1556 1943C1566.15 1972.85 1557.73 2005.25 1552.58 2036C1550.67 2047.45 1545.51 2072.07 1552.26 2082.49C1556.11 2088.45 1569.64 2088.74 1576 2088.96C1600.48 2089.79 1621.85 2092.44 1646 2095.57C1652.6 2096.42 1667.42 2101.85 1673.18 2097.4C1678.13 2093.57 1674.84 2074.86 1675.04 2069C1675.99 2040.62 1677.76 2012.27 1679.03 1984C1679.3 1978.06 1684.8 1956.3 1679.46 1952.68C1673.9 1948.92 1665.22 1950.69 1659 1948.78C1628.98 1939.53 1587.33 1942.53 1556 1943M1565 1957C1575.04 1969.11 1578.66 2002.39 1578.98 2018C1579.1 2023.86 1575.87 2036.54 1578.48 2041.47C1582.69 2049.41 1610.84 2050.35 1619 2050.94C1624.07 2051.31 1638.25 2057.63 1642.18 2054.77C1646.02 2051.98 1644 2040.2 1644 2036C1644 2020.82 1645.85 2003.78 1649.36 1989C1650.53 1984.08 1655.77 1975.3 1652.6 1970.5C1649.06 1965.16 1638.17 1969.3 1633 1968.77C1615.87 1967.01 1598.82 1956.83 1582.39 1969.62C1578.01 1973.04 1586.6 1987.91 1588.94 1992C1597.18 2006.39 1606.52 2044.06 1630.7 2029.4C1637 2025.57 1632.58 2001.08 1633.22 1994C1633.42 1991.77 1635.68 1983.99 1632.36 1983.14C1630.48 1982.65 1597.41 1988.76 1597.44 1988.64C1596.51 1993.14 1610.6 2018.05 1616.05 2016.21C1640.12 2008.11 1602.88 2000.49 1605.91 1993.45C1608.15 1988.24 1624.86 1989.16 1630 1988C1629.77 2000.21 1634.99 2035.86 1613.07 2027.04C1604.21 2023.48 1594.09 1994.75 1590.12 1986C1588.62 1982.7 1584.22 1975.38 1586.98 1971.96C1596.21 1960.53 1622.16 1971.77 1633 1973.58C1637.05 1974.26 1643.77 1970.97 1647.16 1972.88C1650.86 1974.97 1646.24 1985.92 1645.5 1989C1642.09 2003.28 1640.42 2018.37 1639.96 2033C1639.86 2036.28 1641.12 2046.62 1638.17 2048.58C1634.39 2051.08 1621.86 2045.15 1617 2045.02C1608.95 2044.79 1589.94 2045.06 1584.1 2038.73C1579.76 2034.04 1583.4 2018.35 1582.67 2012C1580.21 1990.6 1575.36 1968.52 1569 1948C1594.49 1947.82 1623.65 1947.62 1649 1951.6C1654.84 1952.52 1670.22 1953.62 1674.52 1956.33C1680.15 1959.87 1675.31 1980.27 1674.54 1986C1671.09 2011.81 1670 2037.96 1670 2064C1670 2069.91 1673.08 2088.7 1668.74 2092.96C1665.72 2095.93 1648.27 2090.67 1644 2089.9C1620.7 2085.72 1601.53 2084.33 1578 2083.98C1572.97 2083.9 1559.35 2083.78 1556.82 2078.63C1552.19 2069.23 1555.47 2047.14 1557.08 2037C1561.39 2009.87 1565.11 1984.4 1565 1957M1220 1950C1225.08 1955.64 1233.67 1957.96 1241 1958C1238.46 1951.58 1226.21 1950.04 1220 1950M1254.17 1952.12C1247.31 1954.99 1250.14 1971 1258.85 1967.95C1265.89 1965.49 1264.53 1947.78 1254.17 1952.12M1900 1957C1905.7 1961.74 1911.56 1966.34 1917.8 1970.34C1921.64 1972.79 1925.33 1975.54 1929 1978.25C1934.61 1982.39 1945.17 2001.13 1928.85 1998.83C1918.82 1997.42 1894.68 1966.44 1900 1957M1254 1958C1263.68 1960.65 1254.74 1968.26 1254 1958M2011 2026C2003.06 2021.74 1971.02 1999.77 1992 1992C1982.55 1982.16 1988.47 1972.01 1986 1960C2006.83 1965.1 2009.9 2008.73 2011 2026M624 2056C618.804 2054.17 616.974 2032.32 613.89 2026C608.761 2015.49 601.605 2010 592 2003.83C589.512 2002.23 581.207 1999.3 581.207 1995.87C581.207 1991.42 605.842 1981.88 610.208 1973.99C611.188 1972.21 613.569 1964.59 616.569 1965.75C619.579 1966.92 619.454 1975.31 620.14 1978C622.963 1989.09 629.714 2005.94 629.725 2017C629.739 2030.28 624.271 2042.87 624 2056M157 2147C187.07 2119.57 167.394 2090.54 173.365 2056C174.898 2047.13 184.303 2040.82 189.378 2033.94C203.877 2014.3 207.735 1992.37 186.882 1975.67C159.537 1953.78 83.4969 1966.86 93.618 2012C99.6977 2039.11 129.83 2051.11 138.557 2077C146.407 2100.29 138.356 2127.87 157 2147M494 1988L486 1983C491.878 1992.5 505.475 1997.1 512 2007C481.193 2012.22 458.992 2031.03 456 2063C441.261 2039.55 462.497 2011.96 471.59 1991C473.638 1986.28 477.161 1969.87 481.434 1967.54C486.515 1964.78 494.384 1984.01 494 1988M1231 1980C1235.36 1977.1 1248.1 1974.48 1250.4 1981.15C1256.18 1997.98 1249 2026.93 1249 2045C1249 2051.6 1250.85 2064.11 1245.26 2069.05C1241.42 2072.45 1216.99 2067.78 1216.04 2062.93C1212.27 2043.64 1222.92 2015.75 1224.79 1996C1225.04 1993.34 1227.87 1971.64 1224.92 1971.64C1220.34 1971.64 1220.02 1989.92 1220 1993C1219.88 2012.12 1214.65 2031.11 1212.3 2050C1211.72 2054.68 1208.51 2066.19 1212.82 2069.74C1218.93 2074.78 1247.02 2078.15 1251.4 2070.59C1255.17 2064.06 1254 2053.27 1254 2046C1254 2026.2 1261.48 1996.82 1255.15 1978.11C1252.2 1969.38 1224.37 1970.49 1231 1980M150 1971.54C156.261 1970.97 162.854 1972.89 169 1973.86C175.089 1974.81 179.89 1976.33 184.68 1980.36C217.757 2008.24 176.272 2028.82 168.766 2055C164.384 2070.28 183.366 2110.11 160 2112.14C143.186 2113.6 145.037 2074.09 136.194 2061.44C123.999 2043.99 70.7573 2001.41 109.079 1978.61C112.542 1976.54 119.435 1975.37 123.432 1974.62C131.441 1973.12 141.734 1972.28 150 1971.54M1982 1981C1981.74 1988.7 1980.66 1996.38 1982 2004C1970.51 1999.7 1977.76 1989.77 1980 1981L1982 1981M1943 1992C1941.61 2009.64 1930.28 1999.59 1943 1992M171.18 1993.99C161.665 1997.75 157.228 2033.74 173.981 2027.18C176.466 2026.2 190.911 2007.42 190.677 2006.21C190.026 2002.87 174.862 1992.54 171.18 1993.99M1954.54 1993.82C1968.99 1990.92 1972.18 2016.25 1962.51 2017.08C1949.89 2018.16 1936.14 1997.5 1954.54 1993.82M1922 2004C1918.26 2001.86 1915.61 1999.42 1913 1996C1917.99 1996.33 1921.46 1998.91 1922 2004M172.334 1999.97C181.28 1996.71 181.516 2020.07 172.021 2023.03C164.074 2025.51 172.12 2000.05 172.334 1999.97M616 2080C615.297 2098.06 590.786 2112 576 2117.66C539.894 2131.5 481.817 2142.25 466.748 2093C459.743 2070.11 454.987 2037.7 480 2023.2C493.987 2015.1 546.939 1996.54 547 2025L550 2025C549.709 1991.19 594.42 2002.72 608.133 2022.45C615.259 2032.7 621.38 2056.87 617.036 2069C615.182 2074.18 606.703 2079.85 606.472 2084.99C606.391 2086.79 614.896 2080.59 616 2080M1611 2004C1624.4 2006.8 1612.13 2015.76 1611 2004M1929 2004C1932.34 2005.71 1935.6 2007.08 1938 2010C1934.1 2009.06 1931.23 2007.36 1928 2005L1929 2004M125.002 2005.67C111.911 2008.16 111.479 2038.27 124.01 2036.83C139.346 2035.07 143.028 2002.25 125.002 2005.67M1982 2033C1954.45 2024.56 1980.39 1990.68 1981.02 2021C1981.1 2025.02 1981.76 2028.99 1982 2033M126 2021C121.131 2016.64 121.22 2006.45 129.506 2011.33C135.799 2015.04 132.194 2032.59 124.222 2032.07C116.35 2031.57 121.2 2022.42 126 2021M1943 2012C1945.16 2012.81 1964.82 2023.48 1959.32 2026.25C1956.85 2027.5 1944.12 2014.97 1942 2013L1943 2012M1930.9 2014.71C1939.19 2015.35 1927.14 2059.09 1926.32 2067C1925.93 2070.7 1927.79 2081.31 1921.85 2080.88C1892.29 2078.72 1907.78 2046.2 1915.59 2031C1918.66 2025.04 1922.52 2014.07 1930.9 2014.71M1987 2014C2003.57 2026.04 2010.09 2031.04 2014 2051C1994.87 2047.19 1981.06 2034.38 1987 2014M1928 2084C1931.02 2068.64 1933.08 2053.44 1935.86 2038C1936.31 2035.48 1937.23 2023.95 1940.96 2024.43C1965.25 2027.52 1939.53 2080.88 1928 2084M1952 2025C1953.79 2028.31 1955.29 2031.3 1956 2035C1953.24 2032.07 1950.75 2029.08 1952 2025M1983 2054C1976.68 2052.35 1952.96 2037.56 1964.65 2029.03C1975.1 2021.4 1982.32 2048.88 1983 2054M572.871 2028.72C552.662 2026.9 545.695 2061.34 565.001 2063.78C583.596 2066.14 585.899 2029.9 572.871 2028.72M565.439 2032.87C577.681 2028.26 582.684 2055.87 568.992 2060.07C554.706 2064.46 554.601 2036.96 565.439 2032.87M632 2032C632.642 2033.75 632.859 2035.13 633 2037L631 2037C631.141 2035.13 631.358 2033.75 632 2032M501 2036C497.078 2037.72 490.664 2039.36 487.803 2042.6C463.087 2070.56 522.469 2089.43 510.091 2049C508.423 2043.55 504.04 2040.5 501 2036M632 2039L632 2042L630 2042L630 2039L632 2039M2016 2040C2027.53 2044.16 2018.26 2054.65 2016 2040M488 2055C490.129 2045.76 492.665 2042.84 500 2050C499.183 2046.99 498.4 2044.09 498 2041C508.515 2045.02 512.984 2069.22 497.981 2070.29C475.077 2071.93 507.246 2051.98 488 2055M1956.6 2044.1C1962.7 2042.23 1966.99 2056.27 1968.51 2060C1974.66 2075.07 1982.77 2088.2 1962 2094.22C1956.95 2095.69 1936.1 2090.23 1936.17 2083.74C1936.23 2077.15 1944.78 2066.08 1947.76 2060C1949.39 2056.67 1952.91 2045.23 1956.6 2044.1M562 2050C568.965 2047.53 564.691 2042.94 562 2050M1987 2045C1992.74 2046.78 2009.25 2050.94 2010.11 2058.12C2011.21 2067.31 1998.51 2067.95 1993.31 2064.33C1986.81 2059.81 1987 2052.09 1987 2045M1973 2054C1980.37 2059.47 1990.04 2074.71 1980 2083C1978.79 2074.82 1970.61 2061.74 1973 2054M899 2062C901.246 2068.67 904.851 2073.81 908 2080C911.973 2076.89 915.528 2073.37 920 2071C924.968 2083.18 926.812 2080.05 935 2074C940.382 2083.82 941.695 2087.15 940.864 2099C940.321 2106.74 942.649 2122.92 937.759 2129.24C928.765 2140.87 912.491 2135.36 902 2130.91C894.517 2127.74 884.598 2126.3 878.644 2120.38C871.731 2113.5 866.948 2072.46 873.325 2064.65C874.066 2063.74 893.461 2065.44 899 2062M1988 2065C1990.66 2066.91 1992.79 2068.29 1996 2069C1994.78 2073.8 1992.69 2077.14 1988 2079C1987.96 2074.4 1986.71 2069.43 1988 2065M517 2074C518.642 2078.13 521.53 2079.25 524.996 2081.77C541.942 2094.14 537.197 2088.28 546 2070C536.212 2070.53 526.711 2073.33 517 2074M536 2099C535.513 2118.76 513.226 2117.15 502.156 2105.9C497.012 2100.67 495.522 2092.49 490 2088C490.894 2118.02 516.694 2118 537.184 2113.66C541.137 2112.82 544.665 2117.82 549.001 2117.64C557.636 2117.27 569.549 2108.9 575.997 2103.6C578.959 2101.17 601.833 2078.63 592.443 2074.11C591.965 2073.88 583.397 2090.1 581.74 2092C576 2098.58 556.945 2116.05 547.003 2112C540.95 2109.53 539.887 2103.4 536 2099M533 2085C532.151 2083.13 527.586 2079.63 527.635 2078.02C527.79 2072.84 544.497 2077.12 533 2085M1964 2096C1967.48 2095.59 1984.34 2094.49 1985.44 2093.81C1988.64 2091.85 1987.21 2082.64 1991.66 2082.64C1994.66 2082.64 1992.61 2103.98 1991.18 2106.45C1987.48 2112.82 1966.77 2100.27 1964 2096M1212.06 2083.47C1202.53 2085.02 1211.12 2098.7 1218.62 2097.5C1225.05 2096.48 1218.37 2082.44 1212.06 2083.47M1250 2097C1254.83 2085.97 1235.63 2085.52 1250 2097M1227 2092C1230.46 2092.52 1233.68 2092.82 1237 2094C1235.08 2088.07 1230.85 2086.59 1227 2092M1215 2088L1215 2091L1213 2088L1215 2088M1949 2099C1943.67 2099.39 1937.43 2103.36 1932.21 2102.27C1923.77 2100.51 1938.17 2082.25 1949 2099M153.287 2117.82C169.863 2114.24 173.237 2137.13 158.631 2138.89C151.982 2139.69 147.286 2119.12 153.287 2117.82M897 2135C889.429 2134.93 879.897 2135.2 879 2126C884.715 2127.69 893.376 2130.14 897 2135z"/>
</svg>
