<?xml version="1.0" standalone="yes"?>
<svg xmlns="http://www.w3.org/2000/svg" width="2200" height="2200">
<path style="fill:#0f0f0f; stroke:none;" d="M129 18C138.662 43.3811 148.059 67.241 154.092 94C157.646 109.768 157.489 130.761 165 145C145.695 144.959 117.292 118.708 100 109.602C95.6816 107.327 84.0337 95.9341 78.8251 99.3848C71.6376 104.147 93.0344 111.939 96 113.518C112.901 122.514 135.16 132.312 147.75 147.021C150.799 150.583 159.302 157.859 158.394 163.04C156.948 171.293 140.528 186.755 131.997 183.121C128.428 181.6 116.188 171.028 112.408 175.201C110.631 177.163 126.285 188.813 125.375 194.999C123.904 204.994 108.88 209.415 104 218C109.796 217.466 122.894 203.633 126.84 205.625C130.209 207.325 125.392 225.752 124.817 229C120.737 252.021 116.494 266.189 106.255 287C104.07 291.442 98.0524 301.843 105.155 304.782C113.005 308.031 117.327 297.696 119.05 292C128.015 262.369 147.757 250.743 173 233C173.001 254.948 178.153 277.236 177.785 299C177.688 304.761 174.273 320.057 183.03 321.406C186.262 321.904 191.775 319.587 191.688 315.766C191.503 307.565 186.323 301.035 187.225 292C189.153 272.691 199.246 254.057 200 235C204.153 238.944 206.33 243.979 208.957 249C231.298 291.702 208.887 213.167 215.509 205.409C226.89 192.076 244.27 193.834 258.999 192.675C263.637 192.31 268.61 189.337 268.429 184.085C267.905 168.897 227.415 196.046 224.081 176.718C223.352 172.49 235.043 167.014 238 165.336C254.668 155.875 299.781 123.001 253 123C255.977 113.306 248.495 108.395 242.912 118.004C238.135 126.226 235.792 135.281 232.194 144C229.965 149.402 227.036 154.502 225.018 160C223.147 165.1 212.484 182.434 206.822 169.813C200.774 156.333 197.508 121.202 201.321 107C202.167 103.847 209.618 88.9868 203.759 88.4319C196.553 87.7493 197.502 101.473 196.097 106C191.98 119.261 181.295 142.882 169 150C167.701 117.045 156.884 80.2937 146.924 49C143.863 39.3821 140.385 20.729 129 18M1665 31C1657.65 48.9644 1648.29 66.8389 1639.16 84C1637.47 87.1711 1632.91 100.014 1628.94 100.155C1623.8 100.339 1617.18 89.3081 1613.92 86.0854C1606.98 79.231 1597.25 74.9937 1590.8 67.7783C1585.73 62.1011 1584.03 54.3186 1579 49C1576.87 61.6553 1589.4 80.3872 1594.38 92C1595.75 95.1855 1601.88 104.638 1598.2 107.718C1592.8 112.231 1588.07 102.205 1586.09 98.9993C1579.58 88.4326 1570.93 66.7444 1561 60C1562.07 75.1406 1570.24 92.0432 1574 107C1544.58 105.959 1517.17 94.6794 1489 88C1492.33 95.9209 1501.81 96.2002 1509 98.7097C1531.98 106.731 1580.66 102.328 1577 134C1567.76 132.228 1557.11 138.029 1548 134.683C1529.35 127.829 1518.26 107.549 1502 98C1504.46 116.949 1533.03 126.674 1545 139C1530.24 139.001 1520.97 139.728 1507 136C1507.56 138.674 1508.18 139.966 1510 142C1504.4 142.794 1499.43 143.292 1497 149C1510.09 144.69 1515.5 146.728 1526 155.718C1528.51 157.87 1536.12 162.535 1533.21 166.571C1525.65 177.069 1506.69 174.044 1499 183C1516.29 187.044 1538.46 183.954 1557 186.919C1561.64 187.661 1573.4 187.48 1575.38 193.002C1576.95 197.372 1567.68 208.02 1565.71 212C1555.72 232.093 1544.99 252.412 1534.05 272C1531.72 276.179 1518.17 290.186 1522.04 295.061C1528.07 302.646 1547.58 289.153 1553 285.73C1565.2 278.028 1579.28 275.01 1591.22 267.812C1594.29 265.957 1602.63 260.204 1606.18 263.018C1612.37 267.932 1608.92 292.781 1609 300C1624.01 288.891 1631.08 264.366 1641 249C1645.8 265.93 1658.18 291.003 1657 308C1666.48 299.156 1675.67 278.885 1677 266C1688.17 271.201 1697.97 290.983 1711 289C1697.62 274.224 1695.75 258.048 1685 242C1703.53 245.154 1736.91 267.756 1750.94 280.314C1757.69 286.362 1756.29 298.81 1765 302C1764.27 281.491 1753.29 260.472 1746.95 241C1745.72 237.227 1738.47 222.617 1740.82 219.158C1742.67 216.425 1753.38 220.643 1756 221.216C1766.45 223.499 1799.35 225.071 1800 238C1808.98 234.441 1799.51 224.662 1795 221.463C1782.88 212.88 1765.78 209.788 1754.81 200.667C1752.89 199.063 1743.31 193.131 1744.43 190.263C1745.93 186.446 1757.38 182.098 1761 180.288C1776.8 172.382 1799.87 169.983 1811.65 155.631C1819.24 146.385 1804.88 139.187 1798 135.656C1777.42 125.095 1754.89 132.561 1733 127C1741.24 119.243 1746.89 109.002 1755.26 101.485C1759.62 97.5669 1765.72 97.0205 1769 92C1754.24 92.2878 1740.26 98.5259 1726 101C1730.84 89.9084 1737.36 73.7312 1740 63C1726.56 67.1809 1702.65 84.4036 1689.22 83.3379C1678.89 82.5176 1667.04 39.7881 1667 31L1665 31M1665 44C1670.83 57.8035 1679.48 73.5879 1683 88C1671.23 89.7551 1646.45 110.919 1635.44 106.081C1630.44 103.888 1638.95 93.6792 1640.53 91C1648.49 77.4495 1652.73 54.1707 1665 44M823 135C827.531 144.232 849.625 168.722 839.655 180.843C832.085 190.046 811.297 191.601 807 201C818.733 201.991 829.604 208.76 841.864 210.028C845.952 210.45 850.772 207.638 853.958 211.502C868.288 228.889 840.773 268.842 831 282C836.107 283.528 846.411 289.982 851.503 288.411C855.479 287.184 853.013 279.033 853.239 276C853.869 267.509 854.092 248.565 861.734 243.003C868.089 238.378 857 277.783 868 258C870.838 265.012 870.745 293.084 876.827 296.375C881.445 298.873 883.523 282.434 884.105 280C888.922 259.852 903.48 241.985 907 222C921.613 234.725 925.528 283.622 948.786 284.763C955.234 285.079 950.545 272.863 949.642 270C945.692 257.465 943.44 244.849 940.876 232C940.39 229.563 936.423 221.305 939.001 219.495C946.083 214.522 978.041 243.793 982.456 235.56C984.282 232.154 972.226 225.116 970.136 222.957C963.338 215.934 937.623 190.621 937.742 181.303C937.878 170.736 967.315 154.792 976 151.978C978.868 151.049 991.019 152.657 991.894 150.238C993.237 146.528 985.311 144.421 983 144.126C976.992 143.358 952.079 149.93 948.272 144.138C944.972 139.116 957.925 116.904 962.105 113.801C964.485 112.034 973.098 111.025 973.677 107.883C974.45 103.69 964.658 102.48 962.214 103.592C950.079 109.116 939.147 118.63 926 123C926.013 119.848 929.242 98.0029 925.843 98.0029C916.1 98.0029 927.613 135.615 909.984 134.437C904.798 134.091 900.69 122.8 898.278 119C888.665 103.855 877.628 90.0203 869.277 74C868.018 71.5857 860.962 54.1538 858.693 55.5439C854.766 57.9497 854.112 68.9336 854.019 73C853.644 89.5454 854.599 106.546 856.32 123C856.78 127.398 860.69 141.766 855.557 144.1C845.555 148.646 832.968 135.148 823 135M863 147C865.944 122.34 860.09 90.9124 858 66C864.825 67.7878 865.839 76.4719 868.925 82C876.681 95.8933 886.372 108.722 895.101 122C897.861 126.199 905.028 134.59 902.633 139.893C898.359 149.359 872.027 146.46 863 147M1724.93 73.7432C1733.31 72.9556 1725.03 97.2073 1722.64 101.532C1720 106.286 1706.06 107.2 1701.03 107.141C1695.83 107.08 1687.29 92.3047 1690.93 88.0757C1696.09 82.0754 1717.1 74.479 1724.93 73.7432M1592 75C1598.97 77.4836 1630.33 101.689 1625.67 109.499C1622.57 114.699 1610.12 111.179 1606.28 108.579C1599.91 104.265 1594.13 82.5312 1592 75M1576 90C1578.99 96.011 1582.67 101.686 1585 108C1576.52 107.699 1573.67 97.4771 1576 90M1682.9 92.2993C1687.89 93.3123 1693.94 104.928 1689.42 108.879C1683.32 114.211 1658.76 119.881 1651.01 117.955C1627.19 112.036 1674.78 90.6504 1682.9 92.2993M1221 172C1205.02 172.002 1190.23 177.848 1175 181.881C1172.5 182.543 1159.46 182.66 1161.11 187.583C1162.42 191.513 1171.12 189.151 1174 189.038C1186.51 188.546 1200.39 186.425 1213 185C1206.77 196.871 1197.64 209.133 1188.43 218.861C1184.99 222.496 1176.63 227.21 1176.25 232.704C1175.96 236.797 1182.06 234.57 1184 234C1181.85 236.284 1172.34 240.836 1172.79 243.973C1173.47 248.78 1183.1 245.759 1185.44 244.221C1201.83 233.425 1213.48 224.673 1233 219C1233 235.878 1228.77 242.472 1220.93 257C1220.08 258.572 1215.18 266.87 1219.2 267.677C1222.88 268.416 1229.35 251.759 1232 249C1232.09 251.614 1229.8 271.449 1233.6 270.677C1239.54 269.469 1236.83 252.159 1237.05 248C1237.51 239.466 1253.52 218.972 1261.96 216.761C1266.21 215.648 1272.37 226.058 1275.04 228.68C1289.12 242.558 1294.34 266.757 1310 278C1314.47 258.891 1303.71 232.128 1303 212C1306.64 214.651 1310.38 217.269 1314.22 219.625C1316.71 221.158 1319.38 222.363 1322 223.658C1350.75 237.862 1316.05 195.061 1318.68 187.397C1321.26 179.865 1348.64 172.009 1356 171C1350.41 164.188 1327.8 158.789 1319 157C1325.11 148.715 1340.09 145.619 1344 138C1328.14 134.662 1306.29 158.531 1292.49 153.021C1285.92 150.394 1284.42 120.723 1283 114C1289.38 119.878 1294.15 143.008 1303.2 144.214C1309.68 145.078 1299.16 130.64 1298.3 129C1291.4 115.954 1284.88 100.122 1272 92C1271.21 97.3818 1269.35 101.41 1266.45 106C1264.08 109.762 1257.41 124.047 1252.98 124.918C1246.09 126.274 1237.08 88.6201 1228.76 92.9695C1221.85 96.5879 1231.21 130.166 1223.28 134.284C1212.16 140.061 1192.47 129.944 1183.22 124.184C1181.91 123.367 1173 117.595 1173 122.405C1173.01 126.8 1184.39 130.925 1187.36 133.719C1198.63 144.338 1215.14 157.345 1221 172M1750 101C1746.68 105.306 1743.01 109.268 1739.54 113.438C1737.23 116.206 1735.39 119.323 1732.84 121.893C1730.63 124.115 1721.2 130.52 1718.69 125.178C1711.79 110.483 1739.8 98.5198 1750 101M1234 104C1238.78 111.457 1256.97 135.488 1242.73 141.474C1224.44 149.169 1231.39 110.756 1234 104M1264 141C1241.78 127.329 1287.5 92.3818 1274.22 118C1272.55 121.225 1271.23 124.573 1270.04 128C1268.44 132.593 1266.15 136.663 1264 141M1631 109.333C1631.77 109.333 1631.16 109.831 1630.67 109.667L1631 109.333M1713.97 109.39C1723.52 109.09 1715.83 125.101 1710.77 125.684C1706.32 126.198 1700.4 115.617 1702.02 111.822C1703.2 109.04 1711.43 109.47 1713.97 109.39M1634 111C1634.99 112.479 1635 112.203 1635 114C1633.23 113.021 1633.04 112.778 1634 111M1579.86 112.829C1586.94 108.203 1602.77 123.406 1593.85 129.232C1582 136.965 1573.68 116.876 1579.86 112.829M1594 113C1609.92 113.246 1604.08 132.268 1594 113M1637 113.333C1637.89 113.333 1637.89 114.667 1637 114.667C1636.11 114.667 1636.11 113.333 1637 113.333M1665 121C1669.7 117.553 1705.56 107.622 1699.97 122.44C1699.28 124.274 1668.92 121.806 1665 121M1615 115C1611.72 120.385 1608.26 119.527 1606 114L1615 115M954 115C952.372 123.013 941.172 156.205 927.814 145.614C912.029 133.097 945.898 117.204 954 115M448 134C454.592 153.317 462.205 152.849 441 152C443.928 156.633 450.398 157.283 452.916 161.479C455.238 165.348 450.171 169.438 452.873 173.661C465.764 193.815 483.579 207.305 492.948 231C495.544 237.564 481.848 262.731 482.947 263.456C486.805 265.999 495.842 247.288 499 245C501.034 263.114 498.503 266.112 482 276.108C478.75 278.077 466.085 280.941 465.323 284.965C464.73 288.094 472.027 289.63 474 290C472.981 285.406 500.587 266.046 504.264 268.304C518.64 277.13 502.926 309.522 501 319C510.335 316.88 518.928 302.652 524.075 294.997C535.79 277.575 551.328 252.917 568.214 240.329C576.638 234.049 586.732 265.246 596.152 259.487C603.438 255.033 584.243 229.409 588.038 222.085C592.072 214.302 607.568 203.124 616 200.751C619.258 199.835 628.46 203.326 630.375 200.127C632.49 196.594 621.769 194.869 620 194.344C609.984 191.368 595.666 192.638 585 192C595.289 175.503 606.971 165.827 626 166C622.386 157.959 613.356 159.781 606 158.702C594.538 157.021 572.367 151.965 562.266 146.794C554.8 142.972 558.274 119.531 552.599 118.323C548.728 117.5 546.483 141.701 540.422 142.756C511.311 147.819 478.083 124.685 448 134M1644 122C1640.68 122.715 1624.51 127.294 1623.07 123.56C1619.3 113.807 1640.95 119.365 1644 122M228 165C230.319 157.334 240.574 122.145 248.083 119.76C251.107 118.8 271.667 133.157 268.683 139C263.017 150.1 239.348 160.912 228 165M1279 118C1281.42 121.865 1287.75 152.811 1284.16 155.178C1277.8 159.368 1267.98 151.575 1267.83 145C1267.65 137.875 1275.76 124.596 1279 118M1619 120C1617.01 125.244 1614.75 128.246 1609 129C1610.77 123.819 1613.63 121.126 1619 120M195 122C198.463 135.5 202.662 155.145 201 169C195.878 166.676 178.12 159.866 176.388 154.551C174.264 148.032 190.483 126.929 195 122M1977 133C1983.29 129.192 1987.43 126.805 1995 128C1978.52 143.544 1960.84 149.169 1949.56 171.003C1931.2 206.559 1943.3 254.273 1982 270.842C2029.62 291.232 2086.12 259.582 2091.68 209C2093.06 196.385 2090.32 178.911 2086.12 167C2072.74 129.055 2048.39 131.234 2015 126.639C2006.23 125.432 1976.49 116.724 1977 133M1701 160C1688.59 151.422 1665.68 138.336 1660 124C1671.81 125.325 1705.1 122.52 1707.6 138.001C1708.73 145.03 1703.35 153.512 1701 160M1644 126.32C1660.24 124.637 1673.29 143.382 1685 152.68C1688.37 155.355 1696.81 158.826 1697.82 163.361C1699.35 170.226 1676.76 195.846 1669.99 196.561C1650.19 198.652 1633.89 168.774 1624.39 155C1621.3 150.51 1611.91 142.087 1614.44 136.097C1618.27 127.025 1635.87 127.164 1644 126.32M1601 129L1600 130L1601 129M1725 131C1721.77 135.708 1718.21 140.134 1714 144C1710.66 134.852 1715.78 129.908 1725 131M1730.24 132.832C1741.25 128.244 1781.62 133.909 1793 138.22C1797.51 139.929 1810.42 144.024 1808.89 150.742C1807.86 155.312 1797.54 159.825 1793.68 161.926C1777.72 170.621 1757.92 180.196 1741.01 186.763C1734.13 189.433 1726.62 180.771 1724.16 174.96C1718.4 161.361 1712.13 140.37 1730.24 132.832M553 134C553.172 137.842 553.999 141.299 555 145C547.033 144.722 545.524 137.32 553 134M2053 137L2046 136C2048.94 134.313 2050.71 134.447 2053 137M919 135C918.703 138.764 917.712 142.304 917 146C910.3 142.696 913.52 137.497 919 135M1589 167C1587.38 160.692 1583.09 146.416 1585.84 140.346C1587.93 135.743 1603.89 132.235 1606.45 137.501C1608.74 142.208 1592.68 163.23 1589 167M456.335 136.645C471.087 131.45 505.937 140.614 521 144.375C525.695 145.547 535.348 145.23 539.13 147.822C543.625 150.9 530.427 178.151 525.797 179.7C512.142 184.268 472.787 167.536 462.56 158.639C460.223 156.606 453.324 137.705 456.335 136.645M1252.13 138.323C1255.76 137.794 1262.45 147.099 1257.49 148.318C1251.27 149.846 1245.35 139.312 1252.13 138.323M1579 137C1573.33 148.733 1562.09 149.757 1555 139C1563.21 139.447 1570.81 137.29 1579 137M2032 137C2034.46 138.562 2036.38 139.083 2037 142C2034.15 140.945 2032.45 140.114 2032 137M2061 141C2054.71 139.961 2059.19 135.566 2061 141M1227 169C1217.13 163.173 1205.81 147.075 1199 138C1220.94 138 1232.17 144.903 1227 169M1996 140C1995.26 142.561 1994.48 142.983 1992 144C1992.94 141.495 1993.49 140.936 1996 140M1562 152C1543.89 159.798 1533.41 166.562 1521 145C1535.63 144.123 1552.79 136.473 1562 152M910 143C908.837 147.544 906.323 147.961 902 147C904.533 144.631 906.591 143.629 910 143M2054 152C2043.23 153.598 2033.87 139.172 2054 152M1585 165C1580.57 162.662 1571.54 157.491 1569.54 152.691C1568.12 149.259 1576.35 143.717 1579.32 145.047C1582.75 146.578 1584.53 161.377 1585 165M1609.02 145.426C1612.6 144.938 1621.99 188.892 1617.71 189.665C1610.69 190.934 1593.14 178.295 1593.29 170.981C1593.38 166.191 1598.34 161.062 1600.55 157C1602.21 153.949 1605 145.972 1609.02 145.426M2065 144L2064 145L2065 144M1232 155C1231.94 151.596 1231.59 148.352 1231 145C1238.89 146.34 1238.34 151.034 1232 155M154 146C173.724 156.555 157.045 161.66 154 146M1712 146C1711.56 148.767 1711.12 150.168 1709 152C1708.85 148.807 1709.36 147.805 1712 146M839 147C845.723 147.759 857.051 152.79 858.635 160.021C859.764 165.177 856.962 178.234 848.703 175.266C843.128 173.262 840.215 152.392 839 147M567 189C560.704 187.86 537.877 186.112 534.319 181.179C531.745 177.61 543.432 149.55 547.281 148.738C559.536 146.155 566.59 180.129 567 189M964 149C959.047 156.702 940.085 173.032 931 175C940.027 155.322 942.688 150.986 964 149M1320 149C1316.1 153.774 1312.13 155.713 1306 156C1309.2 151.34 1314.66 150.052 1320 149M886 150C879.384 159.948 867.918 163.59 862 151L886 150M1234 165C1241.48 138.876 1265.85 161.985 1234 165M1616 150C1627.26 162.641 1642.14 179.197 1650 194C1643.67 193.618 1630.85 193.633 1625.74 189.635C1620.79 185.75 1614.77 156.12 1616 150M603 163C599.613 170.176 585.107 192.223 575.629 188.801C567.102 185.721 561.862 159.205 561 151C575.431 154.052 588.78 159.81 603 163M899 191C894.343 188.129 874.346 169.202 877.399 163.282C880.698 156.885 908.562 143.364 912.942 153.638C916.531 162.058 901.425 182.404 899 191M938 151C936.438 156.881 933.851 166.327 928 169C927.957 158.227 924.623 151.029 938 151M1713 153C1714.75 159.433 1717.7 165.393 1719 172C1709.1 168.124 1707.37 161.894 1711 153L1713 153M1545 166C1549.21 162.145 1558.97 154.419 1564.92 154.876C1584.04 156.343 1592.17 193.183 1570 183.575C1565.96 181.824 1562.59 178.862 1559 176.368C1554.21 173.035 1549.46 169.778 1545 166M1269 161L1256 161C1259.22 154.189 1265.06 155.133 1269 161M2075 158C2073.36 157.455 2073.55 157.635 2073 156C2074.18 156.774 2074.23 156.824 2075 158M2067 162C2065.14 160.731 2064.2 159.884 2063 158C2065.51 158.936 2066.06 159.494 2067 162M172.591 160.237C183.229 157.493 216.533 177.625 189 184.6C176.12 187.863 166.634 161.773 172.591 160.237M917.964 160.643C921.769 160.643 924.805 172.123 925.122 174.999C925.93 182.321 911.625 197.051 904.294 197C900.513 196.974 912.85 160.643 917.964 160.643M1306 160C1297.91 183.453 1282.23 158.589 1306 160M862 160C870.341 162.425 862.904 169.678 862 160M2009 163C2006.26 162.789 2005.58 162.698 2005 160C2007.18 160.741 2007.72 161.103 2009 163M1288 167C1284.37 165.535 1281.68 163.854 1279 161C1283.96 161.076 1287.71 161.338 1288 167M1340 169C1334.68 176.052 1305.18 191.167 1299.68 177.753C1297.48 172.376 1312.19 161.067 1317 161.439C1325.1 162.064 1332.1 167.625 1340 169M497 232C492.542 205.377 461.554 187.938 459 164C473.177 165.551 489.448 179.855 503 185.615C507.583 187.564 514.998 189.122 517.73 193.802C521.357 200.016 503.036 229.247 497 232M1271.98 164.642C1294.59 166.225 1290.18 196.291 1271.86 195.093C1265.93 194.705 1244.72 188.766 1242.53 182.812C1237.13 168.109 1263.42 164.043 1271.98 164.642M1705.23 167.04C1729.06 169.21 1730.71 207.729 1702 204.717C1685.89 203.027 1700.61 166.62 1705.23 167.04M164 166C166.334 170.65 173.311 182.932 168.049 187.743C165.039 190.495 146.378 192.143 145.305 186.661C144.372 181.899 160.397 168.706 164 166M870.545 167.969C879.015 167.024 903.557 201.159 889.775 204.281C885.489 205.252 865.759 205.995 863.262 202.48C859.177 196.728 861.365 168.992 870.545 167.969M2006 179C2035.5 153.334 2090.86 190.441 2059.82 225.999C2050.32 236.879 2035.95 246.895 2021 247.58C1982.71 249.332 1967.26 207.25 1985.22 179.03C1987.55 175.376 2005.22 161.354 2009.38 168.784C2010.58 170.924 2006.52 176.578 2006 179M2040 167.333C2040.89 167.333 2040.89 168.667 2040 168.667C2039.11 168.667 2039.11 167.333 2040 167.333M1244 168C1238.19 182.855 1229.56 169.569 1244 168M1561 183C1548.77 182.561 1536.17 179.615 1524 178C1534.47 163.359 1552.15 170.624 1561 183M859 176C858.374 182.718 860.379 196.557 855 201C854.862 190.698 845.152 180.193 859 176M1220 176C1216.46 182.716 1210.6 181.57 1204 180C1208.7 177.172 1214.58 176.346 1220 176M1226.36 177.32C1229.63 176.915 1233.68 183.345 1229.49 184.281C1224.43 185.411 1220.4 178.058 1226.36 177.32M1696 177C1694.84 188.967 1690.74 202.754 1677 198C1680.76 190.889 1688.41 180.006 1696 177M2080 178L2079 179L2080 178M212 194C201.778 184.992 221.386 173.959 212 194M503 182C514.937 176.344 532.318 195.402 511.004 185.245C508.364 183.987 505.786 182.882 503 182M1590 180C1591.65 191.404 1581.3 183.869 1590 180M1604 188C1598.26 187.878 1593.88 187.384 1593 181C1597.55 182.303 1600.83 184.495 1604 188M265 187C260.371 187.995 255.722 188.358 251 188C255.677 184.723 260.838 181.692 265 187M963 224C939.77 212.63 934.58 208.834 930 183C939.052 187.293 962.457 213.895 963 224M1303 188C1297.73 190.356 1295.72 188.461 1295 183C1298.51 183.822 1300.52 185.414 1303 188M174 184C175.16 185.993 175.233 186.686 175 189C173.765 187.037 173.5 186.257 174 184M204 184C204.333 198.376 209.949 204.41 195 213C185.269 194.567 181.716 189.908 204 184M236 187C231.534 193.598 220.566 197.369 213 199C219.543 185.457 222.005 185.43 236 187M843.759 185.541C847.837 186.042 853.843 200.598 850.73 203.748C847.277 207.242 833.496 205.179 829 204.54C808.968 201.692 837.202 184.736 843.759 185.541M531.331 186.22C538.228 185.493 564.405 190.048 569.149 195.058C573.532 199.687 558.251 214.087 553.816 214.68C547.192 215.565 517.669 187.658 531.331 186.22M1220.08 187.05C1222.92 186.192 1227.39 187.429 1226.27 191.145C1223.23 201.232 1197.99 232.308 1187.28 233.235C1181.65 233.723 1186.56 227.118 1187.93 225.646C1196.32 216.64 1208.55 190.531 1220.08 187.05M1279 198C1289.6 180.473 1297.13 195.156 1279 198M926 187C928.72 194.651 929.785 202.989 931 211L915 209C917.569 201.675 920.921 192.917 926 187M134 189C132.722 192.844 130.277 192.844 129 189L134 189M1255 205C1248.66 205.003 1243.98 206.201 1238 208C1237.97 190.763 1248 185.31 1255 205M1329 221C1321.3 218.574 1294.36 207.049 1297.91 197.127C1306.26 173.77 1327.04 213.186 1329 221M1594 198C1589.6 196.544 1585.07 194.299 1583 190C1588.84 190.811 1593.13 191.5 1594 198M124 263C128.056 247.989 129.644 231.45 131.554 216C132.319 209.814 130.279 201.291 134.501 196.149C139.525 190.029 146.519 193.844 153 194.502C157.473 194.957 164.19 192.411 168.219 194.822C173.202 197.803 173.57 220.647 172.26 225.844C169.553 236.581 133.978 257.578 124 263M175 192C200.834 199.123 178.629 244.054 175.864 205C175.555 200.636 175.017 196.388 175 192M1232 192C1234.51 210.463 1226.21 222.129 1206 224C1211.58 212.979 1222.85 200.217 1232 192M1633 227C1620.27 221.418 1599.56 207.269 1597 193C1618.63 192.244 1629.56 206 1633 227M1792 226C1778.6 224.015 1751.04 219.863 1739.42 213.139C1736.37 211.371 1730.67 198.287 1733.36 195.279C1736.52 191.741 1744.46 197.361 1746.86 199.417C1759.35 210.101 1782.89 212.351 1792 226M609 198C604.749 202.43 590.401 217.112 584.265 217.005C579.763 216.926 576.162 200.003 579.694 197.083C583.802 193.687 603.677 196.841 609 198M916 195C912.8 211.693 901.009 203.118 916 195M1255 195C1277.55 199.433 1258.82 209.371 1255 195M1625 195C1631.3 195.248 1670.42 199.063 1660.07 213.584C1654.86 220.9 1628.24 200.489 1625 195M1523 293C1538.95 271.634 1553.43 247.576 1564.95 222.993C1567.78 216.969 1574.19 198.191 1581.4 196.686C1598.77 193.063 1610.39 242.148 1606.04 253.694C1603.89 259.41 1591.31 263.561 1586 265.579C1566.48 272.997 1543.93 292.905 1523 293M524.362 199.305C528.956 198.613 550.156 214.757 549.717 219.51C548.969 227.605 516.325 256.24 508.206 257.13C505.063 257.475 500.837 242.931 500.589 240C500.04 233.507 518.072 200.251 524.362 199.305M1294 203C1286.55 201.237 1292.26 196.176 1294 203M1714 205C1735.42 191.894 1732.14 219.527 1714 205M2080 198C2080.85 202.112 2083.78 208.769 2078 210C2078.37 205.982 2078.66 201.813 2080 198M1662.63 200.027C1665.81 198.701 1669.24 204.024 1665.61 205.247C1663.08 206.098 1659.75 201.225 1662.63 200.027M898 200L899 205C897.765 203.037 897.5 202.257 898 200M1688 205C1686.76 209.019 1686.56 214.833 1683.88 218.152C1673.69 230.78 1659.71 202.702 1677 202.462C1680.55 202.413 1684.57 204.128 1688 205M571.837 206.081C581.437 207.288 582.133 231.216 570.167 230.935C557.122 230.628 557.504 204.279 571.837 206.081M1305 265C1297.62 259.668 1299.43 251.766 1295.18 245.04C1289.61 236.235 1280.19 229.311 1273.8 221C1270.82 217.124 1266.74 211.943 1270.63 207.284C1277.65 198.868 1291.15 205.94 1295.73 213.021C1302.51 223.505 1303.87 252.364 1305 265M1629 206C1634.64 206.416 1652.86 214.935 1653.68 221.298C1654.19 225.255 1646.58 235.582 1642.1 233.592C1633.91 229.957 1632.4 213.379 1629 206M1690 214C1689.82 210.818 1690.25 208.095 1691 205C1698.76 207.295 1695.91 210.938 1690 214M889 207C887.912 211.582 869.491 230.358 865.003 226.902C856.961 220.709 861.933 208.691 871 208.067C877.018 207.654 882.979 207.561 889 207M1237 234C1238.53 222.48 1235.23 210.507 1250.02 208.93C1252.12 208.707 1258.75 206.262 1260.03 208.792C1262.47 213.593 1241.28 231.642 1237 234M1753 276C1734.51 269.932 1717.89 254.895 1701 245.335C1697.18 243.175 1684.41 238.859 1683.9 233.982C1681.52 211.219 1717.27 205.059 1731.42 215.241C1741.68 222.628 1751.28 263.513 1753 276M1959 209C1960.42 211.6 1961.31 214.117 1962 217C1958.48 216.246 1957.51 212.009 1959 209M199 222C197.064 208.164 211.795 214.348 199 222M876 283C875.973 273.208 870.306 258.886 872.478 250.001C874.762 240.659 884.451 234.379 886.046 224.985C887.098 218.783 897.179 205.403 904.382 212.742C908.278 216.713 901.554 225.257 899.781 229C893.75 241.733 886.449 254.445 882.425 268C880.997 272.81 881.186 281.177 876 283M1611 254C1610.98 239.145 1606.28 225.99 1602 212C1609.76 213.714 1641.79 231.488 1637.53 241.734C1634.41 249.259 1617.91 251.656 1611 254M947 279C931.437 272.651 925.81 246.06 918.884 232C917.31 228.806 910.255 217.594 913.346 214.301C916.09 211.378 929.974 214.959 931.621 218.284C939.438 234.07 943.997 261.555 947 279M2073 213.333C2073.89 213.333 2073.89 214.667 2073 214.667C2072.11 214.667 2072.11 213.333 2073 213.333M1313 215.333C1313.77 215.333 1313.16 215.831 1312.67 215.667L1313 215.333M1671 227C1655.52 220.047 1667.87 209.882 1671 227M209 216C209.993 219.923 215.116 245.207 211.457 246.894C204.519 250.095 206.123 219.139 207 216L209 216M181 288C177.535 274.309 175.303 246.939 177.829 233.144C178.597 228.949 188.276 219.655 192.761 220.761C197.78 221.999 198.974 228.903 197.718 233C193.338 247.275 189.817 277.028 181 288M512 301C512 291.566 506.208 271.349 509.403 263.401C513.03 254.377 530.405 244.042 537.967 237.776C542.522 234.001 551.099 219.946 557.88 223.87C560.765 225.54 567.274 231.144 566.736 234.926C565.93 240.587 557.064 246.74 553.54 250.922C542.916 263.531 526.853 295.119 512 301M881 223C879.319 229.698 874.925 239.226 869 243C867.759 233.493 871.972 226.894 881 223M1647 238C1665.33 213.28 1669.05 236.675 1647 238M1682 225C1679.87 233.034 1675.55 226.713 1682 225M1952 229C1949.88 228.101 1949.9 228.124 1949 226C1951.12 226.9 1951.1 226.876 1952 229M591 254C587.812 250.966 565.646 230.23 580.331 228.316C586.24 227.545 590.716 249.564 591 254M1977 228C1980.22 231.484 1983.47 234.826 1987 238C1982.11 237.684 1976.69 233.14 1977 228M861 229C862.881 232.418 862.166 236.112 858 237C858.399 233.774 859.036 231.597 861 229M1669.32 232.944C1680.69 231.164 1681.25 253.816 1673.54 255.894C1663.43 258.618 1648.75 236.164 1669.32 232.944M2077 232C2076.1 234.124 2076.12 234.101 2074 235L2075 232L2077 232M2072 238L2071 239L2072 238M2066.67 241.667C2066.72 241.722 2066.78 242.778 2066.33 242.333C2066.28 242.278 2066.22 241.222 2066.67 241.667M1662 296C1652.1 291.933 1649.6 267.693 1647.12 258C1646.34 254.942 1642.63 247.794 1645.68 245.261C1652.94 239.248 1674.84 259.939 1673.64 267.019C1671.86 277.512 1663.05 285.562 1662 296M1961 245.333C1961.77 245.333 1961.16 245.831 1960.67 245.667L1961 245.333M1682 246C1686.98 253.271 1691.24 261.309 1693 270C1681.62 265.968 1674.6 257.322 1682 246M1965.67 248.667C1965.72 248.722 1965.78 249.778 1965.33 249.333C1965.28 249.278 1965.22 248.222 1965.67 248.667M2031 249L2031 251L2028 251L2028 249L2031 249M1635 250C1631.93 260.839 1621.71 282.038 1612 288C1612 265.07 1609.6 256.027 1635 250M1968 250L1972 255L1971 256C1968.89 254.016 1967.82 252.916 1968 250M853 259C851.399 267.44 848.164 275.33 847 284C835.633 277.772 845.374 267.413 851 259L853 259M1989 262C1986.88 261.101 1986.9 261.124 1986 259C1988.12 259.899 1988.1 259.876 1989 262M117 277C116.932 280.499 113.894 304.334 106.906 300.375C102.594 297.931 114.519 279.367 117 277M1767.33 290.667C1767.28 290.722 1767.22 291.778 1767.67 291.333C1767.72 291.278 1767.78 290.222 1767.33 290.667M182 304C189.341 320.625 177.817 316.348 182 304M1927 651C1950.13 646.274 1954.11 610.859 1974.04 603.082C1983.32 599.461 1997.91 605.712 2008 604.694C2040.94 601.372 2073.68 601.566 2107 597L2106 603C2111.1 600.249 2115.08 597.444 2121 597C2114.3 608.464 2106.86 640.314 2092.9 644.496C2056.55 655.386 2009.73 638.877 1972 644.139C1961.52 645.601 1941.4 643.117 1935 653C1990.74 649.638 2045.05 647.9 2101 650C2102.17 634.262 2118.79 611.826 2126.61 598.001C2127.82 595.858 2137.39 583.889 2136.52 582.67C2134.54 579.92 2127.85 585.953 2126 587C2138.07 537.949 2129.32 481.212 2134.68 431C2135.98 418.829 2135.37 408.046 2134.3 396C2134.16 394.416 2136.01 383.697 2132.22 385.106C2128.91 386.333 2129.95 393.437 2130.35 396C2132.39 408.892 2131.33 420.088 2130 433C2124.7 484.428 2128.65 536.628 2119 588C2120.3 588.347 2124.15 590.059 2121.17 591.699C2112.86 596.273 2083.6 596.795 2073 597.657C2056.56 598.996 2038.01 594.565 2021 595.287C2015.76 595.509 2011.4 599.846 2006 599.583C1996.89 599.141 1978.46 594.309 1970.02 598.125C1953.9 605.408 1951.26 635.506 1932 640C1943.94 601.492 1945 557.972 1945 518C1945 500.646 1940.2 476.578 1944.82 460.04C1947.55 450.25 1956.12 443.599 1961.74 435.562C1973.65 418.5 1985.33 401.226 1997 384C1981.37 386.085 1966.5 420.93 1957.78 433.019C1952.68 440.105 1944.2 446.667 1941.27 455C1933.12 478.146 1940.78 512.522 1939.96 537C1938.67 575.394 1932.28 613.061 1927 651M1974 591C1975.4 541.696 1986.67 492.821 1992.78 444C1994.04 433.906 1992.88 399.03 2000.41 392.721C2004.99 388.883 2018.1 392.299 2024 391.885C2048.97 390.135 2073.52 396.187 2098 390.027C2102.33 388.938 2120.43 391.257 2122.07 386.804C2123.18 383.771 2101.05 384.867 2098 385.42C2071.38 390.247 2047.2 384.923 2020 387.405C2011.62 388.17 1999.26 383.515 1994.29 393.031C1990 401.233 1992.64 415.757 1991.13 425C1984.94 462.976 1985.35 508.617 1974.48 545C1972.11 552.897 1965.09 587.471 1974 591M36 588L31 589C34.5622 557.276 49.924 529.706 62.2497 501C74.6071 472.22 84.1743 437.697 112 419.58C140.769 400.849 178.752 401.032 210.922 399.825C218.845 399.528 227.235 390.458 235.459 389.959C253.172 388.886 276.598 413.242 286.916 426.018C330.62 480.13 332.403 559.494 307.975 622C300.717 640.573 292.655 662.458 277.78 676.395C225.744 725.151 122.064 687.995 82.3705 641C66.473 622.178 65 595.571 65 572C65 548.769 66.9165 516.481 78.9951 496C108.281 446.341 184.374 429.556 233 457.457C277.496 482.989 288.114 554.72 269.999 600C258.399 628.995 219.924 655.325 188 646.543C166.849 640.724 141.344 626.671 131.264 605.993C113.447 569.444 130.354 488.795 176 481.487C217.004 474.922 233.805 530.226 227.797 561C225.877 570.839 220.375 596.916 206.051 595.181C199.997 594.448 199.155 585.622 197.859 581C194.812 570.132 198.874 532.579 188 530C190.992 537.956 189 546.628 189 555C189 561.359 189.713 567.991 187.294 574C184.551 580.815 181.083 596.524 172 597.559C164.318 598.434 157.084 582.086 156.222 575.922C153.184 554.209 158.235 528.745 182 529C181.346 533.239 181.821 536.891 183 541C194.979 532.123 174.993 517.725 165.097 525.545C147.468 539.476 142.402 593.401 168.137 602.869C181.837 607.909 188.089 583.518 190 575C195.124 582.943 192.365 597.352 204.001 600.352C221.735 604.924 230.163 573.983 232.597 562C239.461 528.199 227.242 496.029 196 479.99C172.061 467.7 142.64 487.007 133.268 509C116.806 547.631 112.585 598.476 144.32 628.647C183.611 666 244.863 656.214 271.484 609C289.246 577.498 286.063 515.404 267.516 485C225.766 416.557 125.759 431.11 80.3983 486.003C54.7393 517.053 51.8386 591.56 66.7735 628C71.9088 640.53 84.2659 650.038 93.6389 659.202C133.878 698.543 228.906 722.498 276.882 683.621C323.959 645.471 337.397 551.178 326.163 495C319.376 461.061 295.676 422.499 268.04 402.436C260.714 397.117 255.291 388.292 245.992 386.466C222.874 381.926 189.202 394.925 166 399.418C138.712 404.703 109.996 406.627 91.5837 431.441C76.7085 451.488 67.5009 475.368 57.648 498C44.8829 527.322 29.1776 557.57 26.2181 590C24.8483 605.01 30.9645 617.373 30.9993 632C31.0505 653.55 36.2387 674.524 36.9596 696C37.0353 698.255 35.8344 717.45 40.3262 715.031C45.4484 712.272 41.538 689.052 41.1287 684C38.6147 652.971 30.344 618.585 36 588M528 410C528 435.757 529.789 463.637 525.481 489C523.451 500.954 514.359 510.985 514 523C494.282 510.513 478.975 481.736 466.985 462.136C463.254 456.038 455.13 438.211 447.303 437.401C443.584 437.016 453.94 459.404 455.681 462.96C467.805 487.732 490.315 503.116 506 525C477.308 520.608 449.102 519 420 519C416.433 519 391.874 516.418 392.761 518.769C394.54 523.484 407.768 529.847 412 532.852C429.453 545.245 445.439 558.286 462 571.818C466.228 575.272 479.602 581.807 480.833 587.255C482.11 592.902 475.627 602.055 473.275 607C467.076 620.033 455.954 640.283 454 654C467.061 647.967 479.511 627.427 487.801 616C490.286 612.574 494.674 601.625 499.399 601.063C505.011 600.395 512.726 613.863 515.086 618.078C522.918 632.066 531.556 645.454 536.165 661C537.97 667.086 537.352 677.544 543.958 680.894C551.624 684.782 548.982 668.018 548.524 665C546.019 648.479 535.513 620.062 539.2 604.007C541.027 596.053 550.376 591.862 552 583C561.879 591.311 570.063 603.45 580.79 610.671C585.335 613.73 586.615 606.433 585.175 603.432C578.64 589.816 560.863 589.124 557 571C569.844 576.618 594.269 592.554 603.54 603.26C606.332 606.485 611.523 622.977 618.188 620.031C624.553 617.218 614.065 606.401 612.47 603.997C604.06 591.314 607 562.093 607 547C617.755 549.705 669.726 570.263 660 546C649.697 559.631 639.967 548.335 626 546.198C621.416 545.497 609.782 545.459 608.175 539.93C597.457 503.053 635.233 459.787 627 424C598.972 444.932 579.366 477.379 558.496 505C553.347 511.816 539.639 532.729 530.821 515.546C519.767 494.005 539.157 456.757 534 432C532.573 425.15 535.557 413.305 528 410M910 418.457C901.616 419.223 896.495 424.892 888.999 425.983C877.532 427.651 867.571 422.29 856.603 430.317C846.591 437.646 843.547 449.842 838.863 460.562C823.94 494.719 825 539.008 825 576L825 625C824.999 628.624 822.638 639.081 825.278 641.722C830.489 646.932 861.49 638.061 869 637.379C909.69 633.683 951.268 636.28 992 630.639C996.035 630.08 1005.85 629.549 1008.5 626.186C1012.73 620.815 1009.33 607.309 1008.86 601C1007.23 578.664 1006 556.452 1006 534C1006 510.746 1004.27 487.162 1002.22 464C1001.53 456.314 1004.08 446.082 1000.38 439.051C997.389 433.372 986.96 427.167 980.999 425.081C965.785 419.756 945.08 426.836 930.008 426.577C922.091 426.441 919.262 417.611 910 418.457M911.992 422.468C919.17 422.618 921.748 431.419 929 431.609C949.895 432.155 976.682 421.33 994.576 439.615C1002.07 447.269 997.997 468.962 998 479C998.01 513.29 1002.33 547.695 1002.98 582C1003.12 589.819 1009.13 616.117 1003.74 621.76C996.094 629.767 965.486 628.107 955 627.919C938.291 627.618 922.642 632.699 906 633.862C892.447 634.81 878.674 631.931 865 633.22C855.024 634.16 842.028 638.498 832.292 637.479C827.492 636.977 830 623.585 830 620L830 561C830 526.383 826.599 455.728 859.446 433.083C869.547 426.119 880.905 433.422 890.96 430.305C899.103 427.779 902.386 422.268 911.992 422.468M1422 554C1412.08 552.694 1398.03 560.678 1388.5 553.759C1384.19 550.631 1386.16 541.599 1385.92 537C1385.07 520.196 1386 503.785 1386 487C1386 473.961 1387 461.001 1387 448C1387 444.867 1388.2 436.073 1383.68 435.311C1365.78 432.301 1341.18 441.609 1322 440.96C1289.77 439.868 1260.6 425.998 1228 426C1216.76 426.001 1200.16 425.757 1191.17 433.578C1184.48 439.391 1184.85 450.787 1183.72 459C1180.14 484.945 1186 511.085 1186 537C1186 561.304 1185.2 586.827 1182.68 611C1181.39 623.409 1177.68 639.417 1185.75 650.346C1187.91 653.262 1213.46 651.827 1220 655.459C1237.78 665.328 1241.44 657.538 1260 656.139C1287.46 654.069 1316.16 651.155 1344 651.003C1354.33 650.946 1378.55 655.398 1387.06 649.586C1391.84 646.32 1388.12 632.782 1388.02 628C1387.64 610.166 1380.56 579.138 1387.14 562.501C1389.36 556.889 1414.91 561.793 1422 554M1748 428C1744.76 441.587 1747.94 452.66 1746.78 466C1743.42 504.788 1740.94 543.139 1743.87 582C1744.83 594.849 1740.23 620.685 1748 631C1753.2 610 1747.62 585.21 1746.14 564C1744.15 535.548 1746.51 505.178 1750.06 477C1751.22 467.749 1755.35 433.094 1748 428M1212 431.361C1233.03 428.466 1255.83 430.697 1276 436.574C1279.68 437.648 1293.38 440.058 1294.84 443.501C1297.56 449.91 1292.84 462.195 1292.22 469C1290.37 489.302 1290.43 509.71 1288.32 530C1287.73 535.7 1291.13 553.098 1283.85 554.716C1264.13 559.101 1232.13 557.409 1212 555.32C1206.82 554.783 1195.03 557.213 1191.26 552.876C1186.41 547.281 1190.43 528.295 1189.78 521C1187.29 492.884 1175.47 436.39 1212 431.361M622 435C619.649 459.841 611.231 484.375 606.914 509C605.672 516.087 606.07 532.609 601.396 538.1C598.817 541.128 592.021 537.881 589 537.076C580.387 534.78 555.648 535.323 551.022 527.212C547.644 521.289 561.371 508.276 564.661 504C579.04 485.318 599.861 444.07 622 435M1380 517C1374.35 506.564 1377.14 494.093 1369.27 484C1362.34 475.113 1340.68 455.215 1328.02 461.622C1314.66 468.385 1310.77 496.563 1310.08 510C1309.1 529.008 1318.34 538.036 1323 555C1316.67 555 1298.53 558.601 1294.26 553.197C1290.47 548.4 1292.84 533.908 1293.04 528C1293.71 508.058 1295.36 487.902 1296.87 468C1297.31 462.15 1296.69 449.731 1299.82 444.824C1302.3 440.938 1315.12 444.977 1319 445.436C1334.65 447.284 1350.26 441.737 1366 442.019C1369.44 442.081 1379.11 441.546 1381.18 444.822C1384.36 449.861 1382.21 463.266 1381.56 469C1379.81 484.553 1380.06 501.339 1380 517M1569 469C1554.15 531.304 1558.34 603.315 1558 667C1567.92 657.925 1564.26 632.492 1565.14 620C1568.37 573.752 1570 524.391 1570 478C1590.81 493.696 1609.91 510.075 1632 523.762C1637.04 526.882 1652.88 535.972 1653.81 542.237C1655.26 551.995 1632.24 572.43 1626.14 579C1606.96 599.643 1590.08 623.724 1575.84 648C1570.24 657.547 1561.76 666.283 1562 678C1571.36 669.954 1576.23 653.572 1583.18 643.136C1598.58 620.001 1616.6 599.693 1633.72 577.993C1637.65 573.008 1654.14 546.192 1660.1 547.643C1669.57 549.952 1681.47 568.443 1687.14 575.903C1696.16 587.777 1710.78 595.915 1720.5 607.157C1727.48 615.245 1732.69 628.496 1742 634C1740.31 605.321 1695.79 579.998 1679.34 559C1675.92 554.635 1663.9 545.614 1663.6 540.276C1663.17 532.788 1681.15 519.15 1685.85 514C1698.17 500.531 1707.75 484.577 1720.12 471.001C1727.74 462.639 1739.06 454.313 1742 443C1717.55 452.349 1696.73 494.6 1680 513.997C1675.86 518.801 1665.63 534.58 1659.7 536.015C1652.93 537.656 1642.33 524.3 1636.99 520.988C1612.91 506.053 1592.98 482.932 1569 469M1244 448.257C1221.62 457.081 1211.12 498.723 1219.35 519C1226.21 535.881 1236.08 549.481 1256 541.769C1280.66 532.221 1286.51 493.263 1279.35 471C1274.78 456.812 1260.72 441.664 1244 448.257M1245 452.991C1262.66 447.289 1273.34 461.433 1276.59 477C1281.3 499.527 1274.65 531.646 1250 538.855C1235.21 543.181 1228.67 530.979 1223.75 519C1216.36 500.987 1223.45 459.95 1245 452.991M468 474C463.164 469.146 457.95 462.609 456 456C462.665 458.652 466.037 467.456 468 474M866 476C869.744 466.63 906.069 464.927 913.539 470.94C921.584 477.415 919.845 520.066 915.178 528.481C911.047 535.93 885.106 528.962 877 537C873.955 521.429 881.595 504.362 878 489C867.685 499.443 873.479 528.011 871.24 542C868.683 557.971 855.606 588.05 864.743 603.234C876.488 622.75 915.042 608.886 933 610.136C939.73 610.605 953.898 611.029 958.834 605.315C963.483 599.932 961.745 588.579 962.078 582C962.958 564.623 964.897 547.149 967.999 530C970.397 516.747 982.141 474.951 968.753 465.972C961.259 460.946 952.803 465.709 945 465.973C924.649 466.661 903.105 461.512 883.136 464.217C878.412 464.857 855.992 468.85 866 476M1334 482C1357.49 451.738 1383.63 505.752 1372.38 528C1365.95 540.729 1343.77 562.18 1328.24 551.834C1316.41 543.955 1314.76 524.728 1315.02 512C1315.26 499.907 1317.76 483.983 1323 473.008C1324.77 469.302 1336.15 457.247 1339.26 466.564C1340.48 470.203 1334.82 477.968 1334 482M914 606C917.356 589.358 916.537 572.889 918.438 556C918.939 551.552 917.343 542.151 920.822 538.862C924.515 535.371 940.575 537.505 946 537C939.699 531.402 928.072 532.483 920 532C921.843 518.102 923.144 503.027 922.992 489C922.942 484.335 919.511 474.894 921.862 470.822C924.837 465.669 966.331 468.368 968.515 472.175C972.109 478.44 968.497 490.095 968.07 497C966.539 521.772 960.417 546.237 958.217 571C957.552 578.487 960.78 595.409 955.178 601.197C947.285 609.352 924.4 605.031 914 606M470 476C472.143 478.195 473.632 480.254 475 483C472.738 481.147 470.898 479.228 469 477L470 476M874 483C875.52 487.324 879.384 487.613 882 484C879.28 483.302 876.808 483.055 874 483M525 506C526.812 513.315 526.361 520.269 518 522C519.286 516.238 521.093 510.515 525 506M543 529C525.508 532.866 533.395 515.417 543 529M1379 522C1393.08 546.46 1375.4 559.738 1352 555C1359.07 542.525 1372.23 535.493 1379 522M408 523C432.698 523 457.345 525.458 482 526.018C487.149 526.135 504.61 526.076 507.614 530.803C511.569 537.026 493.856 564.555 490.67 571C489.206 573.963 486.962 580.962 482.804 580.762C476.367 580.453 468.413 571.602 463.802 567.637C456.442 561.308 449.76 552.546 441.915 547.104C431.142 539.632 415.239 534.491 408 523M528 525C525.681 527.039 524.067 527.633 521 528C522.08 524.312 524.506 524.365 528 525M523.498 532.406C525.646 532.143 528.284 536.21 525.502 536.502C523.422 536.721 520.677 532.751 523.498 532.406M537 533C536.307 537.507 534.864 540.482 531 543C531.207 538.028 531.733 534.319 537 533M505 578C508.194 570.222 505.473 539.392 512.853 535.625C516.607 533.709 525.968 547.619 526.064 550.861C526.289 558.38 511.928 576.323 505 578M551 560C546.715 558.114 538.074 550.717 537.264 545.93C536.551 541.717 542.787 533.369 547.515 535.825C551.759 538.029 550.982 555.425 551 560M890 536.339C922.601 532.285 912.877 550.102 912.04 575C911.794 582.339 915.872 605.137 905.93 606.801C895.66 608.521 876.262 611.817 868.94 601.737C860.779 590.503 871.951 567.838 873.639 556C874.353 551 873.497 543.832 877.24 539.814C879.882 536.978 886.372 536.79 890 536.339M606 597C589.101 593.367 540.162 562.188 556.26 539.604C560.595 533.523 597.872 540.811 601.178 546.683C606.661 556.419 604.875 585.176 606 597M535 552C537.596 553.704 556.63 573.886 550.078 572.677C546.751 572.063 537.224 556.176 534 553L535 552M504 553C503.996 561.906 505.727 576.844 502.635 584.989C500.156 591.517 492.188 592.77 490.088 584.919C488.033 577.24 499.293 560.584 502 553L504 553M1261 652C1277.84 631.16 1293.75 590.96 1270.82 568.188C1263.55 560.976 1250.43 565.518 1245 558C1252.02 558.028 1281.86 556.3 1285.98 560.824C1289.54 564.729 1286.83 577.134 1286.32 582C1284.7 597.621 1283.57 614.286 1283.04 630C1282.86 635.245 1284.8 645.667 1280.78 649.818C1276.86 653.868 1266.12 652 1261 652M526.874 560.323C529.029 559.962 538.754 598.444 528.93 600.366C499.899 606.043 510.359 563.088 526.874 560.323M1226 559C1223.29 565.94 1216.91 570.873 1213.99 578C1203.68 603.219 1207.65 623.348 1213 648C1207.45 647.067 1190.14 648.102 1187.04 643.638C1178.65 631.555 1188.93 594.547 1189 580C1189.02 575.36 1188.03 563.492 1191.94 560.26C1198.04 555.21 1217.95 560.068 1226 559M1384 646C1370.17 645.04 1358.17 645.122 1344 647C1352.03 638.896 1360.88 632.334 1367.83 623C1383.84 601.523 1367.19 557.213 1336 564.935C1306.55 572.224 1304.73 634.868 1330 647C1322.95 649.403 1293.8 654.267 1288.04 648.74C1284.97 645.794 1288 633.169 1288 629C1288.02 612.275 1289.65 594.639 1291.56 578C1292.07 573.597 1290.09 564.462 1292.6 560.84C1294.75 557.74 1304.53 560.037 1308 559.68C1326.02 557.821 1343.99 560 1362 560C1365.64 560 1379.07 557.718 1381.18 560.862C1384.5 565.83 1382 579.128 1382 585C1382 605.432 1384 625.588 1384 646M533 560C542.584 563.629 558.902 594.997 539.375 594.997C535.091 594.997 533.084 564.382 533 560M1237 561.942C1248.08 562.615 1265.85 565.918 1271.97 576.019C1285.54 598.417 1274.43 653.92 1242 652.704C1205.77 651.346 1212.21 623.395 1213.93 596C1214.7 583.818 1220.95 560.967 1237 561.942M1350 593C1357.17 587.822 1351.82 579.062 1351 572C1387.11 580.919 1366.18 636.49 1339 643.197C1328.46 645.797 1320.52 635.908 1318.09 627C1314.09 612.401 1318.77 581.398 1331.09 571.527C1344.97 560.397 1350 583.548 1350 593M467 635C465.798 628.418 479.541 594.646 485.749 591.087C498.355 583.859 490.229 604.81 487.94 608C485.511 611.387 482.91 614.644 480.438 618C476.151 623.82 471.029 629.02 467 635M546 677C530.714 662.59 529.97 628.515 515.35 610.783C513.794 608.896 501.021 595.365 503.85 593.59C506.205 592.112 515.912 602.983 519 604.101C522.902 605.514 531.002 602.475 533.781 605.036C538.212 609.12 536.725 621.546 537.139 627C538.421 643.882 545.842 659.908 546 677M204 845C184.076 830.582 146.482 829.129 127 843.639C120.466 848.505 110.386 854.865 111 864C120.537 855.913 129.137 843.082 142 839.583C153.952 836.332 194.817 835.854 201.303 848.971C206.648 859.78 191.967 880.892 185.419 888.723C180.808 894.237 175.928 884.269 171.951 881.93C163.009 876.67 140.621 867.048 132.313 879.358C123.811 891.955 146.893 905.727 154 912C155.696 911.088 157.142 910.511 159 910C151.042 929.872 117.34 920.713 116.048 949C113.949 994.945 178.777 1004.2 202 969C177.181 979.311 157.978 994.904 130.048 979.216C104.906 965.094 123.107 929.391 146 926C141.195 935.441 128.772 950.782 133.047 962.551C135.274 968.683 164.11 972.231 167.322 966.716C178.818 946.976 153.657 937.049 156.268 922.214C159.671 902.877 184.274 913.615 189.67 906.058C192.174 902.551 186.55 897.932 187.28 894C189.251 883.384 201.267 876.343 203.805 866C204.546 862.979 202.484 855.33 205.822 853.585C216.305 848.102 224.498 880.285 225.397 886C230.24 916.781 225.417 945.165 202 967C216.699 966.236 223.869 943.457 227.367 932C233.423 912.166 232.153 883.65 222.976 864.993C219.781 858.498 209.507 851.488 207.895 845.686C205.805 838.168 220.932 809.194 229.008 808.766C238.288 808.275 245.06 816.861 253 820C232.043 783.289 210.15 822.919 204 845M1930 841C1938.88 843.781 1952.52 841 1962 841C1987.31 841 2010.59 840.697 2035.14 836.354C2046.11 834.412 2055.54 835.701 2064 827C2049.51 827.46 2032.66 835.583 2017 836.856C1988.65 839.161 1957.7 833.4 1930 841M1532 871C1532.75 865.974 1533.73 861.089 1534 856C1525.47 864.997 1526.35 885.256 1525.96 897C1524.96 926.767 1525.3 957.42 1523.14 987C1522.6 994.341 1514.72 1022.78 1520.18 1027.74C1523.57 1030.81 1533.59 1027.83 1538 1028.22C1551.05 1029.35 1568.09 1030.74 1581 1029.81C1588.39 1029.27 1598.58 1024.62 1605.85 1027.82C1616.4 1032.46 1605.18 1053.57 1613 1061C1613.67 1049.73 1614.99 1039.07 1612 1028C1652.77 1027.98 1693.35 1027 1734 1027C1744.96 1027 1772.49 1032.03 1781.5 1025.74C1788.29 1021 1782.29 992.509 1781.44 985C1777.24 947.756 1782.62 895.991 1758 866C1757.43 874.373 1766.96 881.905 1768.64 890C1774.93 920.442 1774.86 953.986 1777.06 985C1777.65 993.267 1782.45 1012.2 1778.42 1019.5C1776.33 1023.27 1767.71 1022.29 1764 1022.68C1749.46 1024.19 1734.65 1020.48 1720 1022.46C1656.27 1031.07 1585.73 1024 1521 1024C1531.57 989.692 1525.51 948.559 1528.78 913C1529.76 902.374 1527.15 886.297 1533.15 877.086C1538.3 869.176 1549.4 865.804 1556.92 860.761C1589.58 838.86 1635.2 833.914 1675 836.059C1692.84 837.02 1716.29 845.672 1733 837C1740.22 846.897 1750.37 851.975 1756 864C1760.92 834.468 1718.5 834.258 1700 834.007C1659.04 833.451 1614.14 829.976 1575 844.088C1559.51 849.674 1547.89 865.678 1532 871M467 857C476.758 878.307 465.291 923.707 460.389 946C458.779 953.321 460.216 965.518 456.278 971.889C452.125 978.606 437.622 972.394 436 980C455.584 980 452.121 978 455 996C459.776 991.539 456.991 980.574 462.494 977.58C471.053 972.923 486.948 980.412 496 980.92C512.094 981.823 527.824 978.106 544 978.959C557.223 979.657 569.771 984.777 583 986.045C595.073 987.203 624.299 999.755 635.178 991.393C638.884 988.545 637 978.144 637 974C637 956.981 636.71 939.956 638.217 923C639.568 907.8 641.719 892.48 646.849 878C648.379 873.682 653.997 864.155 650.881 859.785C646.652 853.854 617.117 848.011 610 849.447C601.63 851.135 594.757 857.031 586 857.844C545.806 861.578 507.19 850.691 467 857M1214 850C1209.59 864.144 1213.64 877.819 1213.99 892C1214.71 921.636 1215.17 952.287 1215 982C1214.93 993.651 1208.44 1019.11 1214.93 1028.71C1219.17 1034.97 1230.79 1031.11 1237 1031.01C1255.95 1030.7 1274.96 1033 1294 1033C1300.05 1033 1311.04 1035.45 1314 1029C1290.56 1029 1267.24 1026.27 1244 1026.01C1237.37 1025.93 1222.12 1029.74 1216.9 1024.78C1211.05 1019.23 1217.17 990.056 1217.24 982C1217.6 939.561 1209.53 891.814 1216 850L1214 850M914 910C911.3 949.078 877.359 979.808 876 1018C916.781 1012.53 978.88 1016.51 1017 1033C1014.35 1015.75 988.66 990.138 977.755 976.813C957.324 951.85 940.693 919.546 924.219 892C919.805 884.62 906.509 845.685 892.298 853.103C883.76 857.56 877.876 878.824 872.788 887C855.109 915.405 835.493 943.078 813.217 968.003C806.219 975.833 801.021 984.963 794.262 992.893C792.987 994.389 786.249 998.308 787.106 1000.52C789.09 1005.64 829.273 1007.89 834.805 1006.42C848.076 1002.9 856.143 977.651 861.734 966.864C873.566 944.032 891.208 922.127 914 910M536 939C530.686 942.652 529.378 948.203 522 946C530.442 956.016 511.796 965.308 515.316 970.393C517.488 973.532 526.719 972 530 972C544.721 972 559.265 970.461 574 971.038C576.889 971.151 592.867 974.351 586.679 980.662C580.21 987.26 550.717 974.427 542 974.538C520.769 974.811 501.165 977.149 480 973.76C475.187 972.99 465.666 974.807 461.829 971.616C457.435 967.963 462.966 950.868 464.178 946C469.33 925.308 470.183 903.139 472.562 882C473.29 875.534 470.866 864.119 476.266 859.284C480.98 855.062 491.169 857 497 857C517.665 857 538.375 860.836 559 862.78C590.883 865.785 614.947 843.731 645.479 860.821C651.303 864.081 641.322 883.979 640.288 889C635.553 911.979 633 934.435 633 958C633 964.135 636.314 982.511 632.7 987.171C630.212 990.379 621.548 988.054 618 987.995C612.048 987.896 594.029 987.531 590.999 981.276C587.521 974.097 594.794 955.086 586.539 950.822C576.94 945.864 530.679 959.756 536 939M1952 859C1961.86 855.14 1971.88 861.245 1981 857C1980.39 864.046 1965.04 893.456 1956.24 884.764C1950.61 879.207 1961.77 865.084 1954 863C1952.87 873.104 1951 882.746 1951 893C1967.87 884.847 1973.92 895.997 1985 876C1983.11 876.544 1981.76 877.096 1980 878C1980.65 869.367 1985.15 861.553 1986 853C1979.24 854.601 1950.89 851.198 1952 859M2040 853.52C2018.96 856.761 2014.16 858.125 2011.76 880C2011.3 884.215 2007.84 892.519 2011.82 895.917C2012.52 896.512 2046.02 894.142 2048.5 893.402C2052.49 892.209 2050.33 882.999 2050.01 880.003C2049 870.536 2055.26 851.168 2040 853.52M1923 855C1923 883.769 1919.8 910.541 1916.56 939C1915.82 945.494 1918.71 962.561 1915.04 967.334C1906.96 977.847 1889.97 964.446 1882 975C1899.98 977.019 1875.67 1011.97 1890.48 1018.04C1893.69 1019.35 1933.32 1014.07 1934.12 1012.18C1935.11 1009.83 1931.05 1005.3 1930.37 1002.96C1928.49 996.57 1923.75 959.43 1939.46 971.242C1943.54 974.313 1941.89 984.609 1941.45 989C1940.01 1003.25 1940.06 1017.65 1938.44 1032C1937.94 1036.4 1935.71 1050.66 1941.46 1052.42C1944.94 1053.48 1972.34 1041.25 1972.36 1039.71C1972.39 1036.12 1965.73 1031.41 1964.81 1027C1962.54 1016.14 1964.76 1004.91 1964.98 994C1965.24 981.372 1964.66 964.157 1983.68 971.142C1988.89 973.057 1985.31 985.869 1985.08 990C1984.28 1004.23 1969.07 1037.76 1976.82 1050.18C1979.47 1054.41 1988.54 1050.42 1992 1049.45C2009.79 1044.51 2020.73 1044.79 2038 1047C2033.32 1028.03 2029.29 1009.75 2028.07 990C2027.65 983.18 2029.07 972.249 2022 969C2056.11 954.345 2037.96 1023.61 2039 1041C2051.19 1039.25 2058.65 1036.3 2071 1038C2063.55 1014.9 2065.16 993.854 2062 970C2075.18 975.594 2061.55 1011.4 2070.04 1022.7C2073.54 1027.35 2080.35 1024.19 2085 1023.48C2099.81 1021.2 2112.47 1024.7 2127 1025C2118.63 1006.96 2131.85 977.871 2117.66 961.822C2110.18 953.364 2071.05 961.702 2061 963C2061.39 961.49 2063.43 955.946 2060.72 955.323C2058.11 954.722 2058.93 964.084 2054.49 964.616C2045.91 965.646 2036.69 962.66 2028 963.079C2005.84 964.148 1959.85 975.692 1943 960C1940.26 966.927 1920.74 968.553 1919.68 959.93C1917.19 939.541 1924.08 919.871 1926.55 900C1928.41 885.069 1926.14 869.917 1926 855L1923 855M894 856C913.65 872.672 916.354 893.641 931.104 913.503C946.553 934.307 958.91 958.268 974.754 978.938C985.936 993.525 1002.74 1009.91 1009 1028C967.026 1019.52 922.069 1005.89 879 1015C885.996 986.798 906.536 963.094 912.482 935C913.443 930.458 921.016 910.434 915.48 907.961C906.598 903.992 892.312 919.574 887.21 925.041C867.094 946.593 858.707 984.737 835.118 1001.11C827.451 1006.43 805.621 999.066 796 1000C799.754 986.818 827.222 946.479 841 946C838.393 937.442 849.463 931.877 853.046 924.864C863.793 903.829 878.61 873.702 894 856M2041.93 856.822C2049 855.763 2045.41 867.409 2043.84 870.903C2040.06 879.321 2027.14 892.584 2017.38 892.688C2013.32 892.731 2016.61 866.814 2018.72 863.363C2021.97 858.06 2036.23 857.674 2041.93 856.822M1568 857C1568 896.704 1560.09 933.03 1555.28 972C1554.85 975.496 1550.73 1008.98 1557 1006.65C1557.78 1006.36 1559.76 976.342 1559.96 972C1561.26 943.655 1569.77 914.669 1572.17 886C1572.7 879.624 1574.89 859.422 1568 857M2070 861C2070.11 864.061 2070.46 866.985 2071 870C2072.1 866.616 2071.77 864.074 2070 861M1318 867C1311.55 896.509 1313.4 930.853 1312.99 961C1312.91 967.453 1306.23 985.117 1310.27 990.178C1316.55 998.053 1347.06 988.941 1356 989.026C1358.24 989.047 1369.03 991.723 1369.68 988.685C1370.6 984.323 1359.18 984.571 1357 984.721C1341.64 985.78 1326.36 987.081 1311 988C1318.37 959.201 1317.96 927.643 1318 898C1318.01 887.429 1322.27 877.59 1320 867L1318 867M1651 867C1658.99 912.125 1647.02 957.153 1647 1002C1653.25 993.989 1653.65 976.932 1654.02 967C1654.87 944.307 1656 921.812 1656 899C1656 892.395 1658.17 869.098 1651 867M1690 868C1690.33 886.989 1690.69 908.234 1687.5 926.981C1685.13 940.924 1678.29 954.784 1678 969C1692.48 949.409 1691.51 917.206 1693.14 894C1693.66 886.449 1697.23 872.953 1690 868M1729 875C1738.41 909.119 1734 943.44 1734 978C1746.39 957.74 1740.49 921.256 1737.42 899C1736.47 892.093 1736.75 877.811 1729 875M500 887C506.035 895.363 498.811 912.212 504.3 917.7C507.511 920.911 521.5 916.712 525.981 916.757C531.234 916.811 544.352 922.574 548.394 920.516C550.006 919.695 547.439 893.196 545.178 890.604C537.773 882.108 523.814 892.379 515.266 887.154C511.76 885.011 514.132 880.523 511.421 878.544C511.385 878.518 502.296 886.19 500 887M186 904C181.322 902.689 176.079 898.775 171.078 900.707C165.755 902.765 163.566 909.155 157 908.274C149.659 907.29 128.378 890.364 136.064 881.818C150.508 865.759 181.536 889.83 186 904M1599 890C1601.3 888.178 1603.44 886.43 1606 885C1606 923.776 1594 960.988 1594 1000C1600.39 995.626 1598.7 981.275 1599.56 974C1602.3 950.759 1606.32 928.213 1609.68 905C1610.56 898.931 1613.67 885.735 1608.2 880.969C1604.43 877.684 1599.89 887.484 1599 890M1976 883C1975.06 884.949 1974.61 885.55 1973 887C1972.91 884.306 1973.48 884.005 1976 883M2072 884C2069.34 901.35 2073 921.318 2073 939C2073 944.601 2070.79 954.538 2077 957C2077 936.445 2082.89 902.104 2072 884M1257 886C1248.87 909.497 1249.03 953.308 1252 978C1256.65 973.583 1255.47 963.098 1255.78 957C1256.64 940.309 1265.77 900.005 1257 886M577 888C575.203 895.146 568.133 917.867 573.26 924.06C576.929 928.492 588.072 925.014 593 925.015C612.59 925.021 618 931.503 618 907C614.406 912.393 615.239 919.049 611 924C611.163 915.504 623.346 897.497 620.171 891.607C617.384 886.438 584.836 891.798 577 888M535 892C532.979 907.241 534.124 911.526 518 913.176C515.687 913.413 511.287 915.383 509.26 913.644C506.355 911.151 507.063 893.642 510.814 892.036C515.465 890.045 529.339 892.022 535 892M541 903L545 899C545.63 903.269 543.493 906.769 543 911L540 911C538.371 900.171 542.88 888.171 541 903M609 894C606.848 906.514 597.438 933.993 578.542 920.722C574.851 918.129 575.858 899.237 579.803 896.822C585.475 893.349 602.007 894.679 609 894M617 894L616 900C615.291 897.431 615.586 896.251 617 894M1970 921C1971.57 931.989 2031.43 929.862 2034 921C2013.84 922.204 1989.71 925.45 1970 921M151.008 928.322C162.087 926.808 173.245 962.981 162.536 965.784C158.507 966.839 138.562 963.978 136.921 959.717C134.632 953.774 144.271 929.243 151.008 928.322M521 969C524.821 944.889 545.672 956.033 562 955.999C567.676 955.987 579.199 952.535 584.139 955.822C599.859 966.283 570.191 966.871 566 966.446C559.897 965.827 554.057 967.435 548 967.864C538.963 968.504 529.975 967.411 521 969M2113.76 964.822C2123.04 966.792 2124.62 1010.97 2119.74 1017.42C2117.4 1020.51 2112.09 1018.45 2109 1017.93C2098.22 1016.11 2084.19 1023.41 2074.5 1020.41C2069.47 1018.86 2068.2 975.414 2071.3 970.938C2077.37 962.183 2104.46 962.846 2113.76 964.822M2030 1039C2012.15 1039 1996.49 1046.18 1979 1048C1981.5 1028.58 1985.65 1009.34 1988.48 990C1989.09 985.844 1988.03 972.832 1990.86 970.219C1995.86 965.619 2018.25 967.646 2021.74 973.39C2029.68 986.441 2028.46 1023.25 2030 1039M2040 1036C2044.79 1021.28 2046.91 1001.5 2047 986C2047.02 982.847 2046.12 970.588 2049.58 969.308C2060.04 965.443 2059.29 981.501 2059.78 987C2061.85 1010.31 2068.51 1033.64 2040 1036M1925 971C1923.24 979.19 1930.96 1003.06 1927.51 1008.2C1923.62 1013.97 1897.35 1013.3 1890 1017C1891.47 991.01 1890.03 967.041 1925 971M1945.88 971.822C1967.93 956.533 1960.29 1010.9 1961.21 1020C1961.71 1024.99 1966.28 1035.8 1961.69 1039.14C1929.61 1062.45 1945.98 1015.5 1946 998C1946 993.957 1943.26 973.641 1945.88 971.822M1251 979C1250.61 988.673 1243.03 1002.08 1247.82 1011.58C1252.13 1020.11 1289.8 1020.14 1299 1021.1C1311.22 1022.36 1323.71 1022.37 1336 1021.96C1338.05 1021.89 1347 1022.05 1347 1018.8C1347 1015.19 1327.98 1017 1325 1017C1306.38 1017 1288.06 1015.78 1270 1011.74C1265 1010.62 1256.76 1011.86 1252.54 1008.74C1246.53 1004.29 1253.34 985.901 1251 979M1681 1031C1675.31 1040.56 1679.36 1058.31 1680 1069C1685.68 1061.94 1685.1 1038.93 1681 1031M1580 1033C1577.48 1042.95 1576.89 1060.34 1583 1069C1585.41 1057.93 1582 1044.42 1582 1033L1580 1033M1703 1035C1702.07 1051.54 1711.73 1065.21 1710 1083C1724.19 1077.16 1712.31 1040.66 1703 1035M1647 1081C1646.74 1076.71 1646.47 1039.15 1641.31 1040.32C1640.5 1040.51 1643.62 1078 1647 1081M1941 1198C1961.42 1187.49 1974.48 1192.72 1996 1195.86C2042.93 1202.7 2079.82 1216.91 2099.77 1263C2114.85 1297.83 2107.38 1360.38 2063 1372C2070.86 1335.03 2067.01 1295.48 2067 1258C2067 1248.66 2070.92 1224.47 2060 1221C2068.79 1256.73 2063.93 1298.49 2062.08 1335C2061.55 1345.37 2065.47 1365.66 2059.82 1374.58C2055.63 1381.19 2042.85 1385.14 2036 1388.33C1991.97 1408.87 1949.96 1378.62 1932.12 1338C1916.66 1302.78 1933.72 1265.91 1948.46 1234C1952.23 1225.84 1967.43 1200.74 1979.58 1205.74C1984.33 1207.69 1976.88 1234.69 1976.32 1240C1973.04 1271.24 1967.32 1301.85 1963.22 1333C1962.09 1341.53 1955.13 1360.21 1967 1363C1959.77 1352.58 1965.4 1337.85 1967.69 1326C1973.14 1297.86 1975.96 1269.23 1981 1241C1982.77 1231.1 1979.87 1212.43 1989 1206C1987.46 1202.21 1986.86 1199.09 1987 1195C1978.4 1203.62 1966.87 1203.99 1958.04 1213.01C1935.82 1235.71 1918.32 1284.06 1922.26 1316C1926.59 1351.17 1954.41 1389.44 1990 1398.44C2030.13 1408.6 2092.89 1369.15 2106.3 1332C2129.28 1268.37 2081.45 1211.46 2023 1196.64C2005.31 1192.15 1949.84 1174.11 1941 1198M1568 1224C1570.6 1219.88 1569.84 1214.12 1574.24 1211.12C1580.02 1207.2 1589.42 1209.26 1596 1208.92C1614.75 1207.97 1637.94 1204.41 1656 1210C1645.97 1196.54 1607.2 1203.91 1592 1204C1585.95 1204.03 1575.59 1202.36 1570.74 1206.92C1566.68 1210.75 1568 1218.97 1568 1224M177 1246C173.48 1239.02 164.74 1241 158 1241C142.713 1241 116.579 1237.43 105.884 1250.09C75.354 1286.23 53.8306 1358.23 79.0849 1403C112.835 1462.83 196.078 1407.96 173.713 1353C165.939 1333.9 138.643 1345.13 128.004 1354.43C111.13 1369.17 127.365 1387.7 117.012 1401.57C108.503 1412.96 95.3622 1394.28 95.7523 1386C97.0753 1357.93 115.254 1316.82 138.715 1302.1C146.695 1297.09 154.638 1286.51 165 1291.69C176.385 1297.38 182.186 1311.64 186.405 1322.71C198.908 1355.54 203.918 1387.48 179.61 1416.96C158.611 1442.43 124.386 1438.8 96 1440.04C84.204 1440.56 69.347 1443.69 58.0039 1438.99C38.4846 1430.9 39 1391.26 39 1374C39 1316.32 46.6626 1240.64 107.285 1213.85C113.26 1211.21 121.612 1214.39 128 1213.71C149.679 1211.4 190.939 1206.51 206.211 1226.09C213.472 1235.4 213.395 1270.98 222 1274C221.854 1258.23 219.637 1233.86 207.82 1222.19C194.047 1208.58 176.38 1209.4 158.68 1209.1C118.764 1208.43 87.4399 1211.89 61.3181 1247.02C34.7786 1282.71 31.8728 1352.12 35.7834 1395C37.0292 1408.66 39.8325 1436.19 54.2603 1443.08C64.5927 1448.01 78.0955 1445 89 1445C120.938 1444.99 159.635 1446.53 182.54 1418.84C206.851 1389.46 204.236 1356.07 190.389 1323C185.012 1310.16 180.048 1296.04 167.32 1288.69C154.754 1281.43 144.848 1293.37 134.996 1299.87C112.223 1314.89 104.188 1342.33 96.5589 1367C94.1316 1374.85 89.6325 1389.76 92.9799 1397.73C96.0084 1404.95 115.196 1411.56 120.818 1404.4C124.668 1399.49 123.285 1388.8 122.783 1383C121.147 1364.07 155.437 1326.49 169.278 1353.09C182.442 1378.38 155.766 1421.85 130 1426.46C111.315 1429.81 92.5571 1415.44 82.8032 1401C61.0133 1368.75 74.8608 1314.32 89.2216 1282C94.1417 1270.93 102.946 1254.56 114.085 1248.62C128.767 1240.79 160.467 1245.84 177 1246M2035 1209C2047.56 1245.6 2037.3 1297.38 2032.56 1335C2030.82 1348.8 2025.78 1364.12 2028 1378C2034.16 1367.53 2034.03 1350.88 2035.57 1339C2039.45 1308.91 2043 1279.37 2043 1249C2043 1239.17 2045.95 1213.46 2035 1209M1660 1211L1661 1212L1660 1211M1666 1214C1682.22 1242.61 1726.23 1254.61 1731.74 1292C1738.18 1335.75 1717.53 1380.04 1677 1401.85C1643.9 1419.66 1579.18 1416.73 1560.06 1379C1549.24 1357.64 1550.41 1322.47 1550 1299C1549.84 1290.4 1546.98 1281.15 1551.18 1273C1559.44 1256.99 1580.31 1247.65 1587 1232C1541.54 1251.49 1544.26 1296.63 1548.68 1337C1550.22 1351.06 1548.95 1368.51 1556.83 1381C1569.93 1401.75 1593.92 1413.67 1618 1415.85C1672.75 1420.79 1737.57 1376.01 1737.57 1317C1737.56 1285.52 1722.71 1264.75 1701.87 1242.94C1691.49 1232.08 1680.7 1218.93 1666 1214M855 1230C876.735 1222.31 884.909 1221.34 908 1226C897.344 1210.34 863.961 1215.25 855 1230M1602 1217C1599.4 1260.36 1595.53 1305.27 1587.7 1348C1585.9 1357.83 1581.69 1386.22 1593 1391C1585.03 1351.49 1596.05 1300.87 1602.34 1261C1603.7 1252.41 1610.35 1220.88 1602 1217M2012 1219C2025 1249.83 2008.4 1302.02 2002.5 1334C2000.44 1345.16 1992.42 1371.31 2001 1380C2001 1339.56 2013.06 1298.18 2017.94 1258C2019.07 1248.72 2024.21 1221.1 2012 1219M1188 1244C1192.06 1227.74 1228.18 1224.89 1245 1228.28C1297.88 1238.96 1333.05 1248.8 1369 1293C1369.55 1281.48 1353.8 1269.82 1346.24 1262.78C1320.36 1238.67 1270.88 1219.16 1235 1222.5C1218.95 1224 1179.13 1223.39 1188 1244M914 1227C919.117 1236.04 928.824 1241.38 933.563 1251C947.048 1278.38 945.752 1314.89 939.287 1344C937.316 1352.88 921.127 1387.36 908.281 1381.54C900.651 1378.09 901.57 1352.39 900.26 1345C893.58 1307.33 894.028 1268.41 886 1231C879.099 1237.14 886.73 1258.38 887.04 1267C888.392 1304.62 892.012 1348.1 903 1384C859.117 1379.85 838.035 1326.51 838 1288C837.981 1266.66 835.173 1239.54 861 1238C858.69 1235.26 855.963 1233 854 1230C834.058 1236.89 834 1263.8 834 1281C834 1328.25 852.045 1371.35 898.871 1386.5C902.564 1387.69 903.538 1395.99 905.989 1396C908.144 1396 907.3 1388.56 909.462 1386.97C921 1378.47 929.108 1375.09 935.571 1361C949.657 1330.29 951.198 1292.31 940.456 1260C936.423 1247.87 927.742 1230.07 914 1227M477 1229C481.069 1264.8 491 1298.58 491 1335C491 1341.21 487.094 1369.8 490.638 1373.1C497.819 1379.79 524.594 1374.05 534 1374C574.14 1373.78 613.929 1377 654 1377C648.322 1348.46 650.591 1318.12 649.022 1289C648.602 1281.21 650.837 1261.94 646.662 1255.62C642.829 1249.82 611.898 1252.78 605 1253.42C565.457 1257.07 526.293 1243.22 487 1254C485.852 1246.5 484.635 1232.47 477 1229M1245 1359C1234.83 1318.19 1233.24 1272.83 1239 1231C1228.65 1234.08 1232 1252.6 1232 1261C1232 1284.72 1232.1 1309.36 1234.22 1333C1235.04 1342.15 1236.68 1353.61 1245 1359M1325 1368C1340.97 1350.33 1378.5 1339.45 1373 1308C1369.74 1317.28 1368.49 1323.95 1361.99 1332C1358.5 1336.34 1354.9 1340.59 1350.86 1344.44C1347.43 1347.71 1334.73 1361.62 1328.9 1356.87C1324.6 1353.37 1327 1335.26 1327 1330C1326.98 1311.76 1327.18 1268.3 1309 1258C1318.49 1282.41 1323.99 1308.68 1324 1335C1324 1341.24 1327.12 1354.12 1323.5 1359.32C1319.61 1364.91 1303.42 1366.89 1297 1368.04C1275.65 1371.86 1256.77 1373.99 1235 1374C1224.67 1374 1215.48 1377.11 1208.42 1367.55C1188.29 1340.31 1177.84 1295.69 1193.96 1265C1198.81 1255.75 1204.14 1239.08 1217 1240C1204.35 1227.53 1187.35 1267.8 1184.87 1277C1176.98 1306.26 1187.95 1349.09 1207.32 1371.99C1221.82 1389.13 1273.76 1377.2 1293 1372.19C1299.29 1370.55 1320.9 1363.16 1325 1368M1658 1237C1656.26 1255.72 1661.96 1275.06 1662.92 1294C1664.47 1324.49 1661.58 1358.08 1668 1388C1673.15 1378.02 1669.52 1362.79 1669.03 1352C1667.9 1326.66 1666.36 1301.33 1665.08 1276C1664.49 1264.47 1664.84 1246.74 1658 1237M1281 1364C1283.87 1333.85 1280.56 1305.08 1280.02 1275C1279.82 1263.87 1283.78 1252.99 1283 1242C1276.46 1246.48 1277 1259.73 1277 1267C1276.99 1290.07 1279.05 1312.97 1279 1336C1278.98 1343.72 1274.54 1358.27 1281 1364M648 1372C639.953 1371.83 616.142 1380.05 610.942 1370.5C606.536 1362.41 614.435 1347.43 615 1339C608.619 1341.2 599.806 1337.43 593 1337.08C576.914 1336.25 554.437 1335.58 538.882 1338.49C529.855 1340.19 529.48 1361.26 526.819 1367.63C524.433 1373.35 502.365 1372.28 497.284 1370.4C491.637 1368.3 495 1351.14 495 1346C495 1323.6 494.207 1303.03 490.487 1281C489.685 1276.26 485.219 1261.8 488.9 1258.06C492.565 1254.34 507.533 1256.6 513 1255.52C544.382 1249.32 575.211 1261.14 607 1257.56C613.161 1256.87 640.029 1254.4 643.16 1260.5C647.158 1268.28 644.908 1287.08 645.008 1296C645.286 1321.08 645.674 1347.03 648 1372M574 1293C572.675 1284.86 575.875 1271.29 571.499 1264.35C568.019 1258.83 536.976 1258.26 534.378 1261.1C531.881 1263.84 532.25 1273.27 531.38 1277C530.526 1280.66 527.53 1292.79 531.039 1295.6C536.318 1299.82 566.153 1293 574 1293M548 1280L545 1283C538.5 1257.3 574.783 1257.39 570.145 1286.63C569.141 1292.97 545.63 1294.61 548 1280M551 1266C548.746 1273.81 551.779 1280.19 552 1288C557.272 1283.65 556.553 1269.8 551 1266M539 1267C542.881 1272.72 538.251 1281.64 537 1288L542 1287C537.171 1300.76 530.648 1276.72 539 1267M605.398 1271.94C600.672 1274.39 599.408 1298.6 603.822 1301.52C605.489 1302.62 634.91 1300.98 637.275 1300C643.704 1297.33 641.694 1277.78 638.063 1273.6C633.913 1268.83 610.813 1269.13 605.398 1271.94M616 1280C608.918 1276.59 615.417 1272.23 616 1280M626.365 1274.84C637.18 1269.83 641.269 1291.89 635.178 1295.04C621.893 1301.93 617.62 1278.89 626.365 1274.84M607 1283C608.47 1286.84 611.519 1295.82 606 1297C606.565 1292.29 604.853 1287.3 607 1283M617 1290L619 1296C615.227 1295.11 614.915 1293.09 617 1290M607 1370C579.664 1360.67 559.925 1359.05 531 1368C531.415 1361.24 532.446 1349.41 538.404 1345.05C542.934 1341.74 550.732 1344.19 556 1343.92C568.09 1343.31 597.992 1333.35 608.002 1344.18C611.262 1347.71 606.827 1364.77 607 1370M602 1373C587.414 1372.48 572.529 1370.08 558 1370.08C551.772 1370.08 543.866 1373.13 539 1368C555.941 1367.97 589.969 1354.53 602 1373M1171 1816C1145.86 1776.37 1122.51 1714.48 1136.77 1667C1149.56 1624.38 1203.26 1570.13 1247 1559.88C1272.66 1553.86 1293.78 1561.64 1319 1562.92C1341.42 1564.06 1363.57 1559.59 1385 1568.51C1433.7 1588.75 1402.26 1672.66 1359 1678C1362.28 1668.83 1368.34 1652.17 1363.1 1643C1349.69 1619.51 1309.05 1625.88 1298.69 1647C1289.81 1665.1 1319.57 1681.11 1334 1683.59C1338.58 1684.38 1349.82 1681.8 1352.93 1685.94C1355.27 1689.04 1347.57 1699.05 1345.84 1702C1335.43 1719.76 1316.36 1728.86 1298 1736C1309.8 1697.88 1251.27 1673.75 1227.74 1702.36C1217.92 1714.32 1212.98 1743.65 1233.01 1749.08C1241.44 1751.36 1250.41 1750.61 1259 1751.56C1270.48 1752.83 1281.65 1747.27 1293 1746C1288.4 1758.5 1282.31 1768.85 1275.03 1779.99C1249.56 1819.03 1205.66 1801.96 1188.59 1765C1169.41 1723.47 1175.09 1683.25 1203.68 1647C1216.59 1630.63 1228.33 1614.99 1251 1619C1235.21 1594.89 1198.42 1646.11 1191.87 1658C1167.74 1701.8 1167.81 1748.07 1198.93 1788.96C1211.52 1805.49 1241.9 1814.1 1259.98 1801.93C1272.9 1793.23 1284.28 1775.93 1290.83 1762C1293.65 1756.01 1293.65 1747.09 1298.28 1742.34C1308.73 1731.63 1325.65 1729.04 1337.35 1719.28C1348.47 1710.01 1350.95 1693.45 1360.58 1683.45C1369.32 1674.37 1383.71 1674.24 1392.48 1663.96C1424.03 1626.94 1418.86 1572.63 1369 1559.45C1353.7 1555.4 1336.17 1559.54 1320.44 1558.32C1296.1 1556.44 1274.64 1551.2 1250 1555.46C1193.96 1565.15 1135.15 1636.59 1129.32 1691C1127.64 1706.69 1135.19 1722.73 1137.56 1738C1140.78 1758.66 1146.83 1808.53 1171 1816M1569 1570C1569.59 1572.63 1570.76 1574.63 1572 1577C1564.17 1578.33 1567.87 1611.53 1568.02 1619C1568.94 1664.39 1563.8 1711.89 1568 1757C1573.02 1745.01 1570.36 1728.79 1571.08 1716C1572.99 1682.01 1573.19 1648.08 1573 1614C1572.94 1604.63 1576.22 1574.19 1569 1570M796.5 1585.5C795.873 1586.13 796.873 1587.13 797.5 1586.5C798.127 1585.87 797.127 1584.87 796.5 1585.5M143 1749C148.92 1757.6 163.87 1755 173 1755C182.663 1755 214.782 1755.38 221.264 1748.5C226.773 1742.65 225.95 1731.37 227.444 1724C228.604 1718.28 231.517 1706.06 227.74 1700.94C216.802 1686.08 170.133 1675.85 155.237 1687.25C141.454 1697.8 155.457 1714.16 168.003 1718.55C176.666 1721.58 190.84 1711.84 196.222 1714.69C203.18 1718.38 178.64 1733.48 176 1734.71C142.121 1750.43 107.151 1719.61 108.126 1685C108.662 1665.99 126.903 1642.52 140.401 1630.46C147.753 1623.89 161.009 1626.12 170 1624.47C222.531 1614.78 246.485 1649.92 256.085 1697C258.986 1711.23 262.162 1730.76 256.743 1744.96C246.602 1771.53 196.674 1759 174 1759C154.635 1759 135.333 1757.06 116 1756.08C108.607 1755.7 98.8827 1757.84 92.0991 1754.28C63.4247 1739.22 68.2338 1691.65 71.2366 1665C75.0047 1631.56 128.461 1593.35 161 1594.88C164.748 1595.06 191.251 1596.56 189.456 1593.73C187.194 1590.17 175.779 1590.4 172 1590.14C151.89 1588.72 134.266 1596.67 117.32 1606.87C75.1495 1632.26 46.2887 1687.49 72.1299 1736.68C93.7824 1777.89 163.647 1759.13 203 1763.32C218.504 1764.97 248.404 1769.96 257.01 1752.96C266.118 1734.96 263.09 1711.71 258.796 1693C247.913 1645.58 222.571 1609.37 169 1620.28C159.213 1622.28 145.884 1619.73 137.917 1627C124.22 1639.51 106.715 1661.83 105.144 1681C102.266 1716.13 131.786 1753.06 170 1741.45C180.708 1738.2 191.571 1733.34 198.114 1723.96C200.699 1720.25 205.431 1712.78 198.675 1710.21C189.77 1706.81 180.959 1718.47 171 1714.91C158.722 1710.52 144.691 1693.81 164 1687.69C177.847 1683.29 218.371 1691.27 225.302 1705.45C228.126 1711.23 224.301 1723.08 222.862 1729C221.715 1733.72 220.959 1740.93 217.403 1744.5C212.754 1749.17 205.431 1745.7 199.783 1746.6C180.329 1749.67 162.774 1749.03 143 1749M1643 1593C1638.11 1601.73 1638.78 1615.08 1637.79 1625C1635.26 1650.28 1633.8 1677.63 1635.08 1703C1635.54 1712.13 1634.99 1730.34 1643 1736C1633.39 1704.97 1638.68 1666.14 1641.13 1633.99C1642.08 1621.51 1647.1 1605.1 1643 1593M1606 1605C1612.45 1602.03 1607.28 1597.63 1606 1605M1682 1599L1683 1600L1682 1599M1680 1601C1669.88 1626.57 1674 1658.05 1674 1685C1674 1695.53 1670.1 1706.91 1674 1717C1676.83 1690.58 1676.15 1664.52 1677.04 1638C1677.44 1626.22 1681.86 1612.57 1680 1601M1605 1734C1615.1 1706.32 1615.99 1667.19 1615.04 1638C1614.93 1634.62 1615.04 1607.29 1610.14 1608.32C1607.33 1608.92 1609.94 1634.37 1610.32 1638C1613.64 1669.95 1605 1702.04 1605 1734M1702 1608C1705.21 1632.15 1704.94 1657.75 1702.78 1682C1701.99 1690.9 1698.73 1705.96 1707 1712C1703.48 1687.19 1708 1661.15 1708 1636C1708 1627.43 1710.19 1613.36 1702 1608M929 1658C920.997 1681.04 921.862 1707.5 916.484 1731C913.252 1745.13 903.417 1765.74 907.579 1780.76C909.689 1788.37 937.988 1789.96 945 1791.24C947.939 1791.77 955.061 1796.08 957.083 1792.35C959.9 1787.14 958.907 1777.91 960.602 1772C968.807 1743.39 969.69 1699.44 964.543 1670C963.146 1662.01 955.911 1614.28 950 1622L955 1622C952.001 1638.94 958.694 1656.26 960.742 1673C963.547 1695.92 961.933 1720.01 961 1743C960.605 1752.72 959.57 1779.92 952.741 1787.02C948.87 1791.05 912.198 1780.71 911.865 1775.86C910.785 1760.14 917.537 1745.8 920.221 1731C925.004 1704.63 926.867 1676.88 937 1652C928.485 1652.62 908.402 1665.43 901.007 1656.18C897.95 1652.36 907.311 1644.06 903.353 1642.14C894.006 1637.61 878.118 1643.11 872 1633C891.391 1634.34 889.171 1618.82 904 1613C905.658 1618.38 905.732 1620.64 904 1626C915.717 1625.23 914.294 1618.91 924.022 1616.58C936.137 1613.67 947.322 1617.65 960 1613C953.818 1609.13 947.658 1613.03 941 1612.63C923.566 1611.6 904.633 1607.44 888 1613.94C883.886 1615.55 875.005 1613.21 872.483 1616.54C869.436 1620.58 870.305 1627.23 869.302 1631.94C868.024 1637.95 863.485 1651.13 867.158 1656.64C870.199 1661.2 880.273 1659.84 885 1660.04C902.012 1660.78 912.012 1663.94 929 1658M459 1638C475.48 1626.76 471.883 1647.76 473.658 1659C477.693 1684.54 476.007 1707.35 476 1733C475.999 1738.07 473.18 1757.26 477.822 1760.18C483.031 1763.45 493.575 1758.6 499 1757.58C516.439 1754.28 534.464 1753.88 552 1751.08C557.099 1750.27 570.299 1751.55 573.159 1746.26C576.213 1740.62 567.886 1708.26 565.591 1701.15C561.554 1688.64 521.033 1705.09 520.8 1698.83C520.478 1690.16 526.534 1683.06 526.967 1675.84C527.655 1664.36 522.731 1650.35 522.981 1638C523.072 1633.54 525.718 1618.38 522.722 1615.26C519.149 1611.54 509.836 1615.88 506 1617.17C497.377 1620.05 454.247 1630.23 459 1638M557 1715C559.39 1713.84 561.359 1713.28 564 1713C562.104 1717.62 558.293 1718.34 558 1724L565 1721C571.015 1739.44 555.158 1727.37 545.819 1735.24C542.23 1738.26 544.971 1744.76 541.197 1747.74C537.419 1750.73 527.682 1749.75 523 1750.13C508.191 1751.33 493.634 1755.98 479 1757C483.779 1730 484.395 1695.96 479.633 1669C478.347 1661.72 471.541 1638.21 477.077 1632.22C480.001 1629.06 488.937 1628.18 493 1626.24C497.283 1624.2 513.789 1615.51 518.1 1618.44C521.605 1620.83 518.92 1638.03 518.431 1642C517.063 1653.09 522.707 1663.56 521.433 1674C520.33 1683.03 513.418 1694.17 516.3 1703.71C518.37 1710.57 564.172 1691.97 563.134 1705.07C562.842 1708.76 558.354 1711.53 557 1715M880 1618C879.224 1621.43 877.985 1623.14 875 1625C874.102 1620.43 875.675 1619.15 880 1618M880 1626C884.074 1617.51 893.331 1627.04 880 1626M1981 1626.62C1968.86 1627.61 1933.88 1623.34 1924.75 1630.06C1917.92 1635.1 1920.54 1648.37 1919.85 1656C1917.77 1678.72 1911.57 1701.14 1909.94 1724C1909.56 1729.29 1905.38 1746.5 1909.59 1750.13C1914.27 1754.18 1941.27 1747.87 1949 1748.68C1974.71 1751.38 2001.98 1747.16 2028 1747.16C2047.22 1747.15 2068.93 1750.83 2087.84 1748.5C2093.65 1747.78 2085.23 1724.93 2084.3 1720C2079.28 1693.25 2091.76 1654.03 2075.96 1629.5C2072.82 1624.63 2057.18 1628.37 2052 1628.54C2028.44 1629.35 2004.53 1624.69 1981 1626.62M865 1628L864 1632L868 1631L865 1628M1730 1629C1727.9 1656.63 1733.23 1695.71 1745 1721C1752.02 1702.21 1736.16 1674.27 1734.22 1655C1733.34 1646.14 1735.97 1636.48 1730 1629M2087 1743C2029.93 1743 1966.5 1735.19 1911 1747C1915.28 1719.05 1918.15 1690.9 1922.91 1663C1923.96 1656.84 1921.58 1639.34 1925.04 1635C1929.35 1629.6 1948.59 1632.99 1955 1633C1983.26 1633.03 2011.41 1632.69 2040 1633.01C2046.72 1633.08 2068.65 1629.07 2072.82 1634.5C2077.51 1640.6 2077.47 1655.47 2078.44 1663C2082.1 1691.26 2077.64 1715.45 2087 1743M1317 1632.79C1326.88 1631.61 1351.46 1632.42 1357.68 1641.13C1361.74 1646.82 1362.24 1678.08 1353.79 1679.68C1337.83 1682.7 1315.37 1676.49 1304.64 1663.82C1296.37 1654.06 1303.84 1634.35 1317 1632.79M872.534 1642.02C876.193 1640.61 876.534 1645.97 873.128 1646.9C869.918 1647.78 870.131 1642.95 872.534 1642.02M894 1644C892.494 1644.68 891.685 1644.83 890 1645C891.81 1643.76 891.777 1643.82 894 1644M1330.13 1645.15C1324.22 1646.96 1327.78 1662.62 1331.96 1661.24C1337.61 1659.38 1337.91 1642.76 1330.13 1645.15M894 1653C889.939 1654.4 886.846 1655.2 883 1653C878.838 1656.39 873.929 1655.29 869 1654C872.943 1648.98 878.921 1648.13 885 1648L884 1652C887.864 1647.15 890.748 1647.85 894 1653M1331.04 1648.32C1334.49 1647.68 1334.4 1656.36 1331.89 1656.36C1329.1 1656.36 1327.83 1648.92 1331.04 1648.32M1951 1665C1938.14 1669.97 1935.92 1693.22 1934.15 1705C1933.62 1708.47 1930.94 1718.48 1936.17 1719.71C1941.33 1720.93 1938.06 1709.75 1938.47 1707C1940.66 1692.18 1948.86 1678.89 1951 1665M1975 1673C1970.35 1686.39 1967.32 1702.89 1966 1717C1973.48 1711.67 1979.55 1680.86 1975 1673M2006.25 1693.19C2001.54 1694.96 2002.52 1707.5 2007.53 1705.89C2011.57 1704.6 2013.15 1690.6 2006.25 1693.19M1267 1694.41C1284.43 1693.69 1305.37 1722.27 1294.74 1738.48C1290.69 1744.65 1273.82 1746.65 1267 1746.95C1257.51 1747.38 1237.17 1749.14 1229.42 1743.1C1218.62 1734.69 1221.39 1711.97 1231.27 1704C1241.39 1695.83 1254.42 1694.92 1267 1694.41M553 1725C550.822 1718.32 550.174 1712.89 552 1706C545.354 1706.79 510.734 1719.24 532.239 1726.92C537.747 1728.88 546.971 1725.02 553 1725M541 1721C546.466 1706.53 551.718 1720.24 541 1721M1251.93 1714.68C1245.42 1715.9 1237.11 1733.32 1247.07 1732.04C1255.52 1730.96 1259.86 1713.2 1251.93 1714.68M537 1716C531.317 1723.37 527.55 1714.25 537 1716M1252 1717C1252.55 1719.07 1252.85 1720.87 1253 1723C1250.74 1720.95 1250.57 1719.68 1252 1717M1246.7 1725.09C1248.76 1724.28 1250.37 1728.08 1248.3 1728.91C1246.24 1729.72 1244.63 1725.92 1246.7 1725.09M556 1737C566.884 1734.37 561.505 1746.79 556 1737M547 1738C559.084 1741.75 548.511 1753.19 547 1738M568 1738C569.179 1741.62 568.771 1743.02 565 1744C565.517 1741.38 566.174 1739.95 568 1738M1604 1747C1606.51 1746.06 1607.06 1745.51 1608 1743C1605.49 1743.94 1604.94 1744.49 1604 1747M564 1745L561 1746L564 1745M1317 1815C1335.44 1821.14 1352.45 1786.78 1359.62 1773.99C1361 1771.53 1370.49 1755.82 1367.26 1753.76C1365.13 1752.41 1358.29 1769.12 1357.2 1771C1347.73 1787.34 1335.84 1808.8 1317 1815M1568 1762L1569 1765L1570 1762L1568 1762M1572 1896L1573 1897L1572 1896M1588 1896C1593.59 1897.92 1600.12 1897.98 1606 1898C1600.41 1896.08 1593.88 1896.02 1588 1896M63 1899L67 1898C64.9535 1897.25 64.4043 1897.34 63 1899M1546 1898C1549.39 1899.06 1552.52 1898.46 1556 1898C1552.65 1897.02 1549.44 1897.68 1546 1898M1528 1904C1523.53 1906.8 1520.68 1909.64 1520 1915C1523.13 1911.88 1527.39 1908.51 1528 1904M1639 1905C1646.98 1913.42 1657.58 1918.86 1665.17 1928.04C1675.78 1940.89 1679.44 1954.81 1687 1969C1693.33 1947.11 1658.36 1909.2 1639 1905M1919 1928C1948.84 1911.18 2011.76 1927.67 2039.98 1943.88C2049.13 1949.13 2054.59 1957.26 2058.12 1967C2062.92 1980.26 2060 1998.06 2060 2012C2060 2067.17 2033.86 2153.06 1983 2182C1991.1 2184.62 1998.34 2176.52 2003.96 2171.6C2020.01 2157.55 2030.68 2132.12 2039.46 2113C2056.64 2075.61 2066.93 2034.42 2064.18 1993C2063.14 1977.21 2063.96 1961.97 2052.46 1949.23C2039.73 1935.12 2018.58 1931.57 2001 1927.46C1982.51 1923.14 1931.28 1906.02 1919 1928M1523 2066C1524.61 2057.8 1514.61 2044.56 1512.5 2036C1505.94 2009.32 1511.07 1979.55 1515.68 1953C1517.26 1943.91 1519.49 1928.5 1530.14 1925.48C1552.51 1919.14 1569.56 1931.23 1591 1932C1584.11 1927.02 1574.24 1924.02 1566 1922.12C1555.46 1919.68 1533.73 1917.73 1524.24 1924.04C1513.23 1931.37 1511.87 1951.13 1510.14 1963C1504.44 2002.21 1506.56 2029.96 1523 2066M1926 2183C1919.39 2175.4 1910.55 2170.73 1905.03 2162C1880.65 2123.48 1875.19 2065.37 1877.93 2021C1879.29 1999.04 1880.56 1970.65 1899.04 1955.45C1915.96 1941.53 1943.61 1943.99 1964 1944C1959.51 1938.93 1949.23 1940.99 1943 1941C1920.94 1941.05 1897.5 1945.29 1885.52 1966C1859.22 2011.5 1872.19 2086.81 1887.68 2134C1893.16 2150.68 1905.42 2181.57 1926 2183M2012 1956C2006.82 1961.49 2004.62 1967.76 1998 1972C2000.36 1975.67 1999.85 1982.25 2002.82 1985.04C2016.15 1997.56 2012.35 1959.05 2012 1956M1545 1960C1548.63 1969.3 1561.73 1975.84 1571 1978C1566.59 1971.4 1552.66 1961.7 1545 1960M2010 1968C2010.95 1970.87 2011.31 1972.99 2011 1976C2007.55 1973.43 2007.24 1971.32 2010 1968M690 1969L690 1973L692 1973C692.216 1971.32 692.216 1970.68 692 1969L690 1969M1623 1970L1628 1980C1631.2 1977.03 1633.84 1975.37 1638 1974C1633.75 1971.28 1627.98 1970.56 1623 1970M1935 1991C1947.68 1979.4 1931.77 1967.13 1933.68 1982.02C1934.08 1985.11 1934.95 1987.84 1935 1991M345 1981C342.855 1971.01 335.824 1975.06 345 1981M1182 1981C1188.92 1983.74 1185 1996.85 1185 2003C1185 2026.16 1183.97 2049 1181.17 2072C1180.47 2077.71 1176.65 2096.39 1184.12 2099.34C1180.52 2097.92 1184.67 2066.48 1185.56 2060C1188.19 2040.85 1188.98 2021.32 1189 2002C1189.01 1996.88 1188.04 1984.38 1193.1 1981.3C1197.71 1978.5 1215.08 1985.25 1221 1985.8C1231.67 1986.8 1237.46 1984.47 1245 1993C1245.35 1978.99 1186.9 1970.28 1182 1981M1310 2019C1310.15 2035.51 1310.2 2052.49 1311.05 2069C1311.37 2075.24 1315.92 2082.28 1321 2075C1313.6 2073.58 1315 2066.06 1315 2060C1315 2042.91 1313.91 2026.91 1312 2010C1301.68 2016.95 1298.27 2031.87 1287.96 2039.4C1280.6 2044.77 1271.65 2037.58 1265 2043C1275.5 2047.22 1281.7 2058.04 1279.68 2070C1278.53 2076.78 1271.39 2085.77 1264.19 2080.27C1245.53 2066.02 1256.85 2024.18 1259.44 2005C1260.56 1996.66 1259.15 1981.99 1270 1981C1264.91 1968.8 1258.24 1985.36 1257.44 1991C1254.23 2013.67 1246.37 2042.37 1252.19 2065C1254.58 2074.3 1263.08 2093.85 1275.76 2084.19C1291.7 2072.05 1276.38 2061.24 1278.33 2048.42C1278.91 2044.63 1286.62 2044.79 1289.3 2042.94C1298.09 2036.88 1301.38 2024.67 1310 2019M106 2126C109.346 2132.63 117.503 2131.54 124 2132.9C143.247 2136.93 160.837 2130.95 180 2131C188.921 2131.02 199.462 2136.24 205 2127C179.55 2131.8 148.005 2128.53 122 2128C125.081 2117.05 122 2100.67 122 2089C122 2052.16 117.13 2014.73 122 1978C113.845 1983.19 117.508 1996.59 116.562 2005C113.33 2033.72 118 2063.18 118 2092C118 2106.74 124.271 2126.16 106 2126M581 1988C579.771 2053.01 574.871 2118.01 575 2183L577 2183C577 2146.9 574.471 2106.62 579.481 2071C582.692 2048.17 593.355 2008.87 584.825 1986.62C583.238 1982.48 574.202 1985.84 571 1985.84C555.99 1985.88 540.994 1983.35 526 1983C522.79 1982.92 510.258 1978.34 509.29 1982.19C508.009 1987.27 523.051 1986.66 526 1986.86C543.499 1988.1 563.962 1993.28 581 1988M851 2124C848.28 2106.81 844.848 2082.42 849.744 2065.28C851.304 2059.82 871.687 2060.3 874.616 2064.5C880.213 2072.52 875.591 2093.39 876.078 2103C876.215 2105.7 876.031 2114.71 879.622 2115.46C886.851 2116.96 886.643 2099.72 886 2096C884.236 2101.17 885.024 2105.65 880 2109C880 2101.7 880.157 2094.28 879.62 2087C879.245 2081.91 876.517 2070.1 879.52 2065.72C881.676 2062.57 903.444 2063.66 905.526 2066.74C910.455 2074.04 901.316 2097.08 903.567 2106.92C905.115 2113.69 911.581 2117.7 916 2111C902.012 2112.43 906.055 2077.12 910.417 2068.08C913.409 2061.89 957.746 2062.98 963.593 2066.83C966.48 2068.73 963.432 2076.17 963.134 2079C962.343 2086.52 955.561 2117.24 965 2120C963.031 2108.88 962.202 2081.28 969.123 2071.78C971.468 2068.57 994.682 2081.78 993.574 2075.21C992.669 2069.86 974.405 2069.87 971.517 2063.66C967.546 2055.11 979.908 2028.26 967 2026C968.374 2033.22 971.374 2055.57 965.179 2061.04C961.203 2064.55 914.946 2062.42 912.267 2058.5C904.738 2047.46 918.569 2012.75 920 2000C909.657 2006.39 899.834 2026.03 899 2038C904.25 2030.69 906.597 2021.47 913 2015C912.051 2025.18 911.395 2050.4 905.74 2058.5C902.923 2062.53 881.908 2061.74 879.477 2057.5C871.487 2043.57 881.43 2003.3 884 1988C877.476 1989.39 878.275 2000.76 877.972 2006C877.399 2015.9 880.657 2049.52 875.278 2056.67C872.982 2059.72 852.8 2058.98 850.806 2055.67C848.752 2052.26 850.767 2039.27 850.944 2035C851.644 2018.21 847.174 2001.37 848 1985C840.835 1987.18 844.445 1996.2 844.865 2002C845.997 2017.65 849.064 2037.37 845.819 2052.83C843.953 2061.72 820.806 2050.76 819.323 2058.22C818.327 2063.23 842.037 2059.12 844.523 2062.82C854.49 2077.67 832.878 2112.19 851 2124M508 1989C502.345 2005.33 503.69 2024.03 501.42 2041C500.858 2045.2 497.701 2055.57 501.822 2058.7C507.169 2062.76 522.843 2054.24 529 2053.36C534.154 2052.63 546.069 2055.43 550.041 2051.78C552.419 2049.59 547.014 2041.67 546.273 2038.98C541.599 2022.03 542.203 2017 523 2017C524.445 2014.78 525.838 2013.55 528 2012C525.738 2011.61 513.684 2015.21 515.106 2018.46C517.69 2024.36 532.632 2020.51 536.86 2023.42C542.076 2027.01 543.776 2043.01 546 2049C535.991 2048.03 512.875 2057.79 505.542 2054.13C501.49 2052.11 505.096 2041.46 505.562 2038C507.717 2022.02 510 2005.11 510 1989L508 1989M1683 2010L1681 2014C1682.86 2012.73 1683.37 2012.22 1683 2010M1680 2015L1681 2016L1680 2015M1650 2025C1624.84 2031.84 1623.19 2077.61 1592 2079.12C1572.84 2080.05 1560.34 2059.98 1554.03 2045C1553.1 2042.79 1548.41 2026.44 1545.72 2027.76C1542.72 2029.24 1548.4 2041.55 1549.16 2044C1554.74 2062.06 1565.65 2074.77 1583 2082.08C1611.34 2094.02 1638.21 2043.95 1650 2025M1664 2044L1665 2045L1664 2044M1637 2078C1647.25 2070.27 1657.24 2058.47 1663 2047C1653.78 2052.89 1642.06 2068.32 1637 2078M1526 2067C1530.34 2077.2 1546.03 2087.84 1557 2089C1546.65 2081.24 1535.8 2075.78 1526 2067M207 2125C207.574 2107.6 208.686 2090.26 211 2073C192.372 2073 176.103 2079.95 158 2080.96C152.255 2081.28 139.059 2079.99 136.284 2086.24C125.302 2111 148.308 2110 165 2110C169.65 2110 183.145 2111.34 186.592 2107.89C189.418 2105.06 169.943 2105 168 2105L153.003 2105.13C144.467 2105.18 129.414 2095.49 142.365 2087.26C146.51 2084.62 153.32 2086.24 158 2085.86C167.835 2085.05 196.154 2070.37 204.138 2078.82C213.154 2088.36 195.832 2114.4 207 2125M1633 2081L1634 2082L1633 2081M1897 2084C1904.9 2089.93 1921.3 2087.3 1931 2088.22C1959.61 2090.93 2000.53 2091.43 2023 2111C2023.99 2099.98 2004.5 2095.78 1996 2093.18C1970.04 2085.21 1923.2 2075.8 1897 2084M1565 2092C1566.75 2092.64 1568.13 2092.86 1570 2093C1568.25 2092.36 1566.87 2092.14 1565 2092M1614 2094L1617 2092C1614.91 2092.41 1614.98 2092.22 1614 2094M1606 2096C1607.98 2096.54 1608.96 2096.43 1611 2096C1609.02 2095.46 1608.04 2095.57 1606 2096M1590 2097L1593 2098L1590 2097z"/>
</svg>
