<?xml version="1.0" standalone="yes"?>
<svg xmlns="http://www.w3.org/2000/svg" width="2200" height="2200">
<path style="fill:#0e0e0e; stroke:none;" d="M1582 46C1586.42 39.9302 1587.46 31.8047 1593.38 26.696C1619.34 4.29248 1637.64 54.407 1625.56 74C1621.18 81.1138 1612.07 89.021 1603.11 84.9736C1592.29 80.0906 1595.04 30.4338 1607 30C1599.06 19.9636 1595.45 37.1196 1594.7 43C1593.3 53.928 1591.02 67.0994 1593.51 78C1595.88 88.3936 1605.6 89.491 1602.14 101.734C1600.07 109.048 1579.33 99.1982 1582 116C1586.62 110.228 1601.48 101.425 1604.53 114.051C1606.03 120.227 1605.69 127.623 1606.4 134C1607.69 145.554 1589 169.204 1576.59 157.499C1560.26 142.099 1572.92 92.9534 1598 100C1595.1 86.4155 1580.78 97.5159 1576 104.008C1564.83 119.161 1557.81 177.736 1592 162.29C1598.9 159.172 1601.93 152.822 1608 149C1597.76 196.712 1604.44 246.548 1598 295C1588.06 279.54 1580.27 328.868 1586.34 339.433C1591.84 348.992 1606.38 333.615 1607.61 326.957C1612.4 300.97 1595.57 271.1 1611 248L1606 249C1608.17 242.963 1617.38 246.68 1622.51 242.297C1633.35 233.024 1644.17 215.043 1647.04 201C1649.29 190.003 1633.76 168.225 1621.06 171.771C1614.13 173.707 1612.56 183.292 1610 189C1606.58 167.397 1617.65 144.516 1616.71 124C1616.23 113.487 1603.96 106.822 1607.61 95.0513C1609.52 88.8862 1618.08 87.8684 1622.42 83.6284C1632.15 74.0979 1635.18 62.2363 1633.77 49C1630.15 14.9155 1583.44 7.05298 1582 46M61 73C64.4113 61.1895 97.6984 74.655 107 76.3789C132.071 81.0256 170.974 81.8662 190.845 99.6592C204.952 112.291 209.933 132.047 222 146L223 145C203.473 115.824 198.34 90.1084 160 81.177C134.633 75.2678 107.844 70.3538 82 65.7578C75.7759 64.6509 53.2089 59.1125 61 73M967 107C979.408 132.049 989.315 152.122 988.992 181C988.751 202.592 979.742 222.597 969.335 241C960.439 256.731 949.567 272.255 935 283.301C905.748 305.485 849.282 317.409 825.145 279.952C807.13 251.996 807.679 208.444 814 177C817.59 159.142 826.868 126.501 843 116L841 120L842 121C859.28 101.956 861.414 109.772 880 120C877.231 110.63 869.238 104.916 860 103C888.003 69.2122 932.113 107.687 964 106C919.743 88.0037 880.681 74.4922 841.019 111.157C796.552 152.265 786.358 272.254 848.001 301.158C917.212 333.61 981.367 251.884 991.637 191C995.669 167.099 989.998 120.964 967 107M479 122C478.742 113.248 482.917 109.274 489.136 103.551C519.606 75.5122 545.011 111.255 577 105L577 103C556.48 98.5159 524.012 80.0837 503 88.4646C494.468 91.8677 466.048 111.547 479 122M179 275C152.366 258.384 113.016 261.164 89.0026 238.861C55.914 208.13 61.4062 174.007 69.9615 135C72.2879 124.393 75.7366 102.134 85.4646 95.6042C95.971 88.5522 110.009 100.105 121 98C81.4103 60.4509 63.4394 133.34 59.2181 160C54.2038 191.668 65.2231 229.151 93.0007 247.705C106.069 256.433 122.234 258.906 136.981 263.753C151.514 268.529 163.157 274.854 179 275M1226 146C1242.38 133.564 1248.29 115.022 1270 107.4C1340.73 82.562 1399.74 140.909 1399.52 209C1399.34 267.438 1326.4 316.931 1271 296.565C1244.97 286.995 1227.96 258.931 1219.88 234C1215.61 220.821 1210.8 206.772 1213.71 193C1217.24 176.348 1227.47 146.736 1246.94 142.871C1251.65 141.935 1258.18 167.207 1260.35 163.935C1264.99 156.942 1255.08 134.755 1244 138.93C1192.58 158.298 1206.07 241.722 1235.26 272.864C1244.46 282.676 1256.09 295.71 1269.08 300.366C1303.29 312.63 1361 295.017 1382.45 265.97C1405.34 234.988 1406.63 198.152 1396.28 162C1377.79 97.438 1246.84 66.2603 1226 146M1963 102C1959.36 116.363 1963.69 132.427 1963.98 147C1964.39 167.289 1961.05 187.697 1962.08 208C1962.49 216.062 1967.66 241.861 1962.26 248.104C1958.74 252.169 1938.68 249.231 1931 256C1930.05 253.292 1929.11 251.953 1927 250C1927 268.049 1931.54 327.292 1961 297C1962.92 305.929 1960.35 315.505 1964 324C1974.87 291.92 1960.03 252.498 1967 220C1995.44 243.385 2023.38 179.193 2011.23 156.011C2002.64 139.61 1973.97 149.534 1969 164C1958.13 148.977 1973.34 118.514 1963 102M589 107C603 111.965 613.793 123.516 627 130C624.128 122.824 594.615 99.698 589 107M635 136C654.901 173.76 668.006 219.008 638.712 257.993C606.149 301.328 512.171 282.25 484.736 242.864C465.119 214.703 473.342 172.683 483.335 143C487.386 130.968 494.371 111.28 510 113C500.534 94.5667 482.549 132.028 480.115 139C469.397 169.709 461.325 209.565 478.411 240C504.634 286.711 609.734 307.693 643.177 258C661.093 231.377 665.027 189.443 652.066 160.568C647.995 151.498 644.425 140.748 635 136M112.269 114.541C105.695 117.563 102.903 142.852 109.144 141.279C121.541 138.156 111.415 114.933 112.269 114.541M1610 115C1612.72 120.547 1612.79 124.975 1612 131C1607.86 127.329 1608.33 119.928 1610 115M110 135C107.755 123.906 117.638 129.774 110 135M295 129C295 130.797 295.014 130.521 296 132L298 129L295 129M526 130.601C494.573 137.436 491.762 216.247 531.813 206.186C537.501 204.757 541.808 193.054 543.699 188.078C549.965 171.585 557.463 123.759 526 130.601M628 130C629.465 132.167 630.597 132.938 633 134C631.535 131.833 630.403 131.062 628 130M524.118 134.822C541.996 127.258 552.554 154.277 546.06 167.724C543.029 174.002 533.143 174.794 529.819 182.139C527.606 187.027 528.369 200.522 522.717 202.498C509.602 207.085 509.042 192.872 509 184C508.926 168.388 505.494 142.701 524.118 134.822M175 157C186.569 157.562 183.095 146.065 187 136C178.187 139.254 176.6 148.707 175 157M586 164C590.757 159.557 589.386 152.042 594.244 147.344C608.07 133.973 616.311 146.555 617.679 160C619.797 180.815 596.21 193.957 605 216C585.836 208.431 588.746 161.16 602 149C591.945 146.531 592.014 159.502 590.68 166C587.695 180.543 583.905 207.981 598.329 217.342C607.571 223.34 616.411 209.837 617.63 202C620.285 184.916 625.456 164.132 620.154 147.003C615.469 131.865 597.712 138.218 591.204 148.01C587.977 152.865 587.298 158.457 586 164M843 172C845.463 168.247 846.771 164.211 850 161C850 169.982 847.666 199.724 854 205C855.275 198.91 861.591 199.59 865.256 194.93C871.826 186.577 879.034 167.727 876.574 157.003C871.445 134.65 843.565 156.752 843 172M226 150C225.014 151.479 225 151.203 225 153C226.289 151.557 226.401 151.766 226 150M1987 152.442C2028.64 144.162 2007.74 218.535 1982 222.477C1968.33 224.57 1966.96 210.232 1967 201C1967.07 184.383 1964.78 156.861 1987 152.442M858.03 153.604C883.916 145.548 873.846 186.452 857.07 188.926C852.396 189.615 847.933 156.746 858.03 153.604M229 159C229.773 160.176 229.824 160.227 231 161C230.455 159.365 230.635 159.545 229 159M922.441 161.064C905.884 168.241 906.077 214.56 930.904 204.179C948.313 196.899 939.595 153.629 922.441 161.064M228.333 162.667C228.278 162.722 228.222 163.778 228.667 163.333C228.722 163.278 228.778 162.222 228.333 162.667M928 166C922.761 168.147 920.728 173.316 918 178C937.051 159.369 945.959 191.133 922 192C926.856 200.68 917.626 198.727 916.306 190C915.55 185.005 918.622 153.885 928 166M230 166C231.533 189.981 230.933 211.75 217.267 233C207.603 248.028 190.56 261.271 183 277C193.184 275.596 199.518 262.422 205.328 255C221.747 234.021 247.535 193.353 230 166M1240 202C1246.51 196.56 1247.14 184.834 1253 178C1251.78 190.611 1240.03 225.607 1259.1 231.125C1264.18 232.595 1269.02 228.616 1274 228C1271.37 211.577 1289.42 194.056 1282.48 177.145C1270.76 148.579 1240.98 186.068 1240 202M1253 213C1253.54 206.592 1253.45 200.406 1254.4 194C1255.09 189.347 1255.18 184.572 1256.41 180.008C1258.79 171.144 1271.02 168.342 1277.39 175.423C1282.53 181.14 1278.15 209.683 1271.64 213.74C1266.59 216.891 1258.49 213.35 1253 213M1324 186C1326.83 179.778 1329.94 174.573 1337 173C1329.43 168.377 1323.94 176.543 1321.42 183C1317.17 193.889 1314.65 213.936 1322.85 223.708C1327.89 229.707 1337.92 225.399 1341.41 219.989C1346.54 212.051 1357.79 161.938 1335.02 175.94C1330.81 178.528 1327.86 182.931 1324 186M543 175C542.017 183.641 538.721 192.411 531 197C532.169 188.523 535.164 179.273 543 175M1621 192C1608.88 193.429 1612.48 180.733 1620.32 176.427C1630.12 171.04 1643.39 188.713 1643.89 197C1644.72 210.833 1629.9 230.781 1620.1 239.499C1616.06 243.099 1607.71 242.443 1607 235.97C1605.17 219.394 1609.91 201.137 1621 192M1324 207C1326.66 212.19 1330.91 216.589 1325 221C1322.31 212.504 1323.76 168.596 1342.73 178.472C1348.07 181.249 1348.44 202.513 1343.5 205.698C1339.89 208.024 1328.56 206.897 1324 207M864 193C861.643 195.311 860.302 196.016 857 196C859.357 193.563 860.61 192.845 864 193M608 208C609.956 187.37 619.988 205.909 608 208M933 195C933.537 200.657 930.068 201.74 925 202C926.746 198.092 929.127 196.654 933 195M102 227C107.964 225.04 109.418 215.457 115.004 211.56C130.349 200.856 159.435 202.856 175 212.019C182.828 216.626 186.626 230.761 193 233C193.782 217.987 179.013 207.887 166 204.228C141.162 197.246 110.37 199.531 102 227M1606 203C1607.8 211.551 1606 221.229 1606 230C1601.86 223.385 1601.72 209.566 1606 203M1336.98 211.532C1339.05 211.898 1339.37 215.256 1336.98 215.153C1334.53 215.048 1334.36 211.067 1336.98 211.532M1255.59 217.969C1258.8 216.433 1260.64 222.071 1257.58 223.242C1255 224.235 1253.11 219.154 1255.59 217.969M1271 218C1270.42 220.698 1269.74 220.789 1267 221C1268.28 219.103 1268.82 218.741 1271 218M1334 218C1332.67 221.28 1331.55 222.137 1328 222C1329.95 219.891 1331.29 218.952 1334 218M599 232C598.585 228.235 597.443 222.564 592.332 225.413C582.673 230.797 574.166 251.541 561.027 249.567C552.326 248.26 544.034 219.465 540.8 220.761C537.121 222.235 542.516 231.82 543.325 234C546.806 243.381 554.822 258.328 567 253.867C579.48 249.295 584.931 229.12 599 232M1259 228C1263.97 219.531 1269.27 227.638 1259 228M388.667 226.333C388.222 226.778 389.278 226.722 389.333 226.667C389.778 226.222 388.722 226.278 388.667 226.333M943 259C938.079 244.631 900.196 245.177 888 242.596C883.175 241.576 870.712 239.542 870 234C868.495 234.057 859.29 234.205 860.761 237.492C862.259 240.839 875.515 244.518 879 245.433C897.72 250.35 924.132 257.842 943 259M1259 261C1271.06 260.717 1275.47 244.262 1287 242.528C1308.12 239.35 1317.71 268.094 1333 275C1329.42 258.602 1300.82 233.578 1283.02 238.887C1273.95 241.593 1264.89 253.932 1259 261M1947 250.619C1973.09 244.499 1967.85 296.406 1949.78 301.477C1941.25 303.87 1935.76 293.626 1933.91 287C1929.92 272.725 1928.97 254.847 1947 250.619M210 292L210 295L214 294C212.457 292.733 211.952 292.511 210 292M1596.1 297.106C1602.26 295.562 1607.86 331.694 1595.1 334.089C1586.83 335.642 1588.2 299.084 1596.1 297.106M1574 324L1577 324C1577.18 315.137 1581.4 308.243 1584 300C1575.18 305.211 1574.04 314.575 1574 324M1600 323C1598.35 325.714 1597.47 327.862 1597 331C1598.87 328.428 1599.97 326.204 1600 323M971 503C964.747 504.34 973.572 532.033 973.972 538C975.732 564.221 981.984 591.932 986.389 618C988.107 628.17 993.291 643.767 991.278 653.917C991.039 655.118 950.526 656.188 947.333 652.806C938.121 643.048 962.968 617.094 948 609C940.892 621.569 928.088 614.321 916 613.218C888.891 610.746 862.215 613.38 835 609.135C824.118 607.437 805.995 613.403 804 600C794.263 606.298 795.15 639.781 784.951 639.966C773.185 640.18 785.066 601.387 786.436 594C794.84 548.681 816.577 491.878 812 446C801.937 452.916 804.091 476.882 802.698 488C798.069 524.967 790.252 562.68 781.857 599C779.956 607.222 770.927 635.948 777.26 642.807C782.236 648.196 801.914 646.621 809 647.58C839.324 651.682 868.31 655.883 899 658.059C923.293 659.782 947.65 658.869 972 659.003C976.327 659.026 992.732 663.947 995.176 660.16C1000.14 652.462 992.17 625.828 990.563 617C984.001 580.958 971.758 539.352 971 503M1199 565L1200 564C1182.2 534.984 1227.31 496.454 1249.78 486.703C1259.33 482.559 1266.77 475.887 1278 480.317C1300.58 489.226 1311.4 520.019 1314.57 542C1321.85 592.445 1315.99 632.551 1281.15 671.001C1271.3 681.878 1262.55 695.525 1247 698.35C1193.34 708.095 1180.25 621.615 1220 599C1220.33 606.264 1223.7 612.758 1224.38 620C1224.8 624.495 1221.64 629.58 1223.06 633.78C1225.19 640.079 1240.83 649.579 1246.93 644.16C1260.63 631.989 1287.11 570.727 1251 568.401C1237.55 567.535 1231.83 583.011 1221 587C1229.37 556.518 1248.55 520.488 1250 489C1242.66 496.079 1241.16 509.541 1238 519C1229.79 543.572 1224.57 568.863 1217.15 593C1209.55 617.756 1193.61 630.012 1195.08 659C1196.75 692.108 1235.01 718.033 1265 694.54C1317.36 653.531 1325.43 599.927 1316.45 539C1311.9 508.093 1294.28 464.863 1256 478C1262.14 446.218 1323.73 455.777 1338.25 476C1365.76 514.303 1344.16 549.986 1344 591C1350.5 574.395 1355.92 552.844 1356.92 535C1359.8 483.707 1322.23 436.603 1267 456.884C1256 460.923 1256.69 472.393 1249.65 479.686C1240.76 488.911 1227.25 492.331 1218.33 502.001C1207.42 513.826 1180.79 550.369 1199 565M1603 533C1597.18 534.248 1600.02 546.154 1595 550C1594.82 530.363 1601.17 489.867 1592 473C1580.64 508.536 1602.04 552.001 1589.5 586.713C1587.92 591.084 1576.94 590.03 1572.86 593.46C1557.89 606.049 1538.15 628.785 1540.2 650C1541.88 667.252 1557.95 670.148 1571 675.533C1596.13 685.906 1635.65 701.612 1662.74 685.627C1668 682.524 1669.61 674.174 1672.36 669.136C1686.11 643.921 1682.03 615.319 1689.5 589.001C1693.21 575.92 1713.24 562.121 1721.58 550.981C1726.91 543.853 1739.42 522.458 1732 514C1730.3 535.194 1717.22 549.123 1704.21 564.959C1702.11 567.513 1692.18 581.18 1688.26 577.894C1684.36 574.625 1683.28 545.191 1682.42 539C1679.01 514.622 1669.25 484.845 1652.44 466.237C1636.79 448.907 1618.59 455.303 1607.76 474C1598.05 490.747 1599.11 514.69 1603 533M1594 590C1600.09 557.701 1599.07 524.149 1605.6 492C1607.97 480.356 1613.95 464.7 1626.08 459.824C1637.11 455.388 1649.46 466.967 1655.1 475.009C1671.6 498.546 1672.44 523.719 1679.92 550C1682.12 557.714 1688.69 578.106 1683.61 585.396C1679.92 590.692 1665.44 587.978 1660 587.302C1637.25 584.474 1616.63 590 1594 590M811 467C820.427 476.811 835.604 468.37 847 468.011C882.811 466.882 963.584 449.355 969 497C974.927 479.503 962.865 463.683 945 463.041C900.386 461.437 854.99 459.965 811 467M884 482C872.745 503.513 876 538.269 876 562C883.646 547.248 888.638 497.921 884 482M64 497C68.1831 505.758 106.907 506.475 117 507.022C156.725 509.173 191.698 508.358 231 518.107C242.59 520.982 254.776 518.25 264.97 525.629C275.302 533.108 270.452 556.513 269.199 568C265.685 600.2 262.343 640.615 272 672C220.616 662.827 166.955 665.18 116 654.599C104.832 652.281 77.0486 654.476 68.8141 646.879C62.3223 640.89 67.0642 621.294 65.4624 613C58.5235 577.069 54.6958 521.942 62 486C50.1574 489.525 55.6029 512.781 56.0778 522C57.732 554.114 58.3546 587.057 61.6798 619C62.611 627.945 58.8888 643.879 65.2466 651.256C72.5661 659.75 102.184 657.039 113 659.436C151.828 668.041 195.23 669.355 235 672.136C247.592 673.017 264.809 679.656 276.823 678.204C277.824 678.083 272.313 648.808 271.783 643C269.304 615.813 269.466 587.205 272.32 560C273.363 550.06 278.343 532.931 270.618 524.799C258.653 512.204 235.022 514.233 219 510.883C185.095 503.796 155.217 504.657 121 502.922C101.963 501.957 83.1537 497.177 64 497M634 636C592.57 637.469 550.872 641.022 510 650.448C500.772 652.576 475.292 664.25 468.3 652.584C464.075 645.533 469.344 628.79 470.199 621C473.118 594.383 476.31 567.636 471.982 541C470.593 532.453 469.409 518.526 462 513C462.306 527.88 468.432 542.943 469.782 558C471.582 578.064 468.773 599.042 466.783 619C465.795 628.904 458.077 648.949 465.862 657.334C475.351 667.555 494.235 659.138 505 656.38C531.638 649.556 571.962 638.978 599.136 641.02C604.134 641.395 639.8 644.819 640.903 641.401C642.346 636.929 634.766 621.113 634.218 615C631.466 584.33 626.24 554.734 617.86 525C615.028 514.953 617.074 496.03 604.997 492.878C571.738 484.198 539.31 489.196 506 493.206C501.545 493.743 474.666 497.254 474.761 502.775C474.797 504.867 502.552 498.301 506 497.758C530.254 493.944 553.434 492.943 578 493.001C585.869 493.019 602.028 493.598 608.178 499.179C613.094 503.641 613.017 523.162 615.038 530C625.346 564.874 625.239 601.024 634 636M835 529C837.174 516.148 835.727 502.842 838 490C829.294 493.807 828.962 523.052 835 529M530 512C523.377 523.026 514.452 552.163 527 562C525.43 552.696 523.109 544.728 525.498 535.217C527.169 528.566 533.677 518.186 530 512M498 523C494.496 533.122 490.963 571.061 500 578C499.254 559.729 500 541.295 500 523L498 523M115 528C109.491 539.909 97.3685 592.569 110 601C108.627 577.461 112.704 551.068 117 528L115 528M196 545C190.679 551.166 187.018 598.373 196 601C196 586.733 203.006 557.169 196 545M1249 572.626C1279.72 571.415 1258.62 614.963 1252.97 626C1250.97 629.89 1247.82 641.036 1242.74 641.457C1223.26 643.069 1229.75 626.005 1228.08 615C1225.64 598.819 1222.23 573.681 1249 572.626M1590 633C1598.01 625.3 1589.18 599.093 1597.32 595.365C1615.45 587.069 1645.54 589.719 1665 592.058C1669.72 592.626 1680.84 589.695 1684.22 592.365C1688.53 595.766 1683.86 610.31 1683.15 615C1680.22 634.145 1678.38 667.694 1662.26 681.178C1639.89 699.88 1593.52 680.981 1572 671.297C1555.73 663.976 1537.86 658.72 1545.59 636C1550.21 622.41 1561.3 609.01 1572 599.834C1575.91 596.478 1583.35 591.108 1587.96 596.862C1592.78 602.871 1589.25 624.966 1590 633M478 603C478.086 612.347 495.326 627.181 505 625.132C513.714 623.287 531.928 603.435 534 595C523.246 599.302 514.789 620.191 503 620.231C493.725 620.262 485.199 607.707 478 603M795 642C795.915 635.303 796.779 619.514 802.678 615.26C810.952 609.292 826.985 612.88 836 614.398C861.075 618.619 885.833 617.195 911 618.04C917.928 618.273 935.942 618.077 941.392 622.241C944.607 624.698 939.237 632.494 939.051 636.001C938.828 640.207 940.849 650.524 937.718 653.74C931.13 660.508 903.633 653.35 895 653.04C882.062 652.575 868.911 651.766 856 650.864C835.423 649.425 815.689 642.733 795 642M803.333 621.667C803.278 621.722 803.222 622.778 803.667 622.333C803.723 622.277 803.777 621.223 803.333 621.667M95 626C100.33 633.094 113.932 632.11 122 633.46C146.644 637.583 170.947 640.977 196 641C199.545 641.003 224.377 643.387 225.031 642.201C229.545 634.005 199.79 635.995 197 635.999C163.313 636.049 128.053 623.291 95 626M945 629C944.886 632.486 944.758 634.732 942 637L943 629L945 629M841 1624C838.244 1619.7 836.479 1614.75 833 1611C829.675 1632.26 860.225 1662.97 881 1663.95C889.536 1664.35 907.419 1656.4 913.735 1658.61C918.728 1660.37 922.886 1669.51 925 1674C898.627 1679.88 886.338 1725.59 860.713 1735.07C855.77 1736.9 850.992 1728.18 848.541 1725C841.348 1715.66 833.845 1703.57 820.019 1707.14C808.675 1710.07 807.476 1725.91 811.906 1734.99C815.723 1742.82 834.953 1754.97 843.999 1753.67C848.807 1752.98 853.971 1744.49 858.573 1746.32C871.233 1751.35 875.037 1771.72 887.307 1778.17C892.523 1780.91 894.421 1774.98 895 1771C886.567 1775 861.037 1749.12 864.42 1740.14C873.964 1714.82 917.651 1703.02 925 1675C930.62 1678.44 943.695 1690.38 944.999 1697C946.345 1703.83 938.334 1715 936.801 1722C934.42 1732.88 939.297 1750.37 944.768 1759.86C966.903 1798.26 1013.49 1786.24 1033.9 1753.78C1047.37 1732.35 1042.65 1704.18 1028.27 1684.68C1022.94 1677.44 1017.24 1669.59 1009 1665.46C998.099 1660.01 989.901 1665.8 979.257 1667.1C973.646 1667.78 966.136 1649.89 968.092 1645.24C973.107 1633.3 994.775 1621.25 1004 1612C1007.18 1608.81 1011.95 1601 1016.26 1599.62C1024.29 1597.07 1044.38 1625.83 1051 1609C1044.14 1608.73 1020.8 1600.69 1022.08 1591.43C1023.43 1581.66 1037.07 1571.74 1040.03 1561C1043.46 1548.57 1043.45 1526.74 1024.21 1530.37C989.144 1536.99 1014.99 1575.02 1011.4 1593C1009.03 1604.82 990.891 1617.68 981.997 1624.94C978.111 1628.11 967.813 1641.72 962.288 1640.8C956.664 1639.86 945.51 1623.14 943.744 1618C936.762 1597.67 948.438 1578.3 934.635 1557C914.822 1526.42 860.968 1525.96 843.04 1559.96C831.046 1582.71 840.873 1600.83 841 1624M1016 1587C1012.66 1576.64 1004.98 1518.74 1033.68 1536.5C1049.58 1546.35 1025.37 1580.83 1016 1587M843 1628C845.675 1627.84 847.456 1628.14 850 1629C838.952 1614.4 836.23 1577.08 847.637 1562C867.656 1535.54 911.675 1527.54 930.971 1560C945.485 1584.41 943.668 1623.33 923.677 1643.85C899.225 1668.96 856.506 1660.29 843 1628M488 1574C461.843 1578.63 434.266 1571.88 409 1582C414.416 1586.24 423.536 1583.4 430 1582.87C444.987 1581.66 468.243 1576.33 482.717 1581.26C489.782 1583.66 487.759 1607.75 488.078 1614C488.431 1620.92 496.283 1650.56 490.491 1654.31C476.08 1663.66 441.347 1655.3 424 1658.58C421.185 1659.11 405.003 1659.65 405.003 1662.07C405.003 1668.38 421.751 1665.1 425 1664.7C441.317 1662.67 474.289 1655.78 489.635 1661.96C497.407 1665.09 494.289 1692.74 495.177 1700C495.976 1706.53 499.662 1728.41 493.676 1732.52C479.151 1742.49 449.879 1740.31 433 1741.84C426.768 1742.41 415.458 1739.13 411 1744C436.65 1750.77 472.641 1744.95 498 1738C496.736 1746 498.151 1754.19 500 1762C508.244 1756.35 498.502 1744.22 506.284 1739.25C535.914 1720.34 580.3 1734.28 613 1719C615.221 1729.35 617.3 1740.52 619 1751C626.854 1741.98 614.63 1728.9 621.26 1719.6C626.826 1711.8 652.51 1717.43 661 1716.94C666.333 1716.63 673.288 1713.93 669 1708C662.936 1712.11 626.426 1715.58 620.822 1710.16C616.142 1705.64 618.42 1692.02 617.764 1686C617.212 1680.94 613.19 1671.3 616.3 1666.68C619.415 1662.05 628.262 1663.2 633 1662.86C648.363 1661.78 663.701 1658.01 679 1658C674.65 1647.75 639.987 1656.68 630 1657.04C625.216 1657.21 616.531 1660.12 614.501 1653.85C609.7 1639.03 613.985 1618.8 611.185 1603C610.322 1598.13 607.182 1588.96 610.262 1584.5C613.1 1580.39 621.724 1582.02 626 1582C640.281 1581.92 654.79 1579.3 669 1577.91C670.921 1577.72 687.957 1578.5 684.592 1574.05C681.585 1570.08 670.215 1571.96 666 1572.44C649.754 1574.27 631.353 1578.23 615.032 1575.91C601.442 1573.98 617.035 1547.53 609.411 1544.04C602.014 1540.65 584.098 1543.84 576 1544.68C555.095 1546.86 533.934 1546.12 513 1548.32C506.669 1548.98 489.716 1548.04 484.976 1552.32C481.268 1555.67 486.184 1570.25 488 1574M601.716 1548.82C608.052 1550.23 607.363 1575.23 601.716 1577.4C577.631 1586.67 546.299 1574.88 522 1574.04C514.311 1573.78 498.137 1577.5 491.52 1574.14C487.248 1571.97 488.256 1557.52 493.148 1556.24C517.051 1550.01 546.389 1550.48 571 1549.98C580.572 1549.79 592.296 1546.72 601.716 1548.82M1534 1610C1528.75 1629.78 1531.9 1651.74 1528.73 1672C1527.54 1679.6 1519.56 1685.45 1521 1693C1530.02 1689.24 1525.44 1701.81 1524.72 1707C1523.43 1716.3 1515.45 1748.7 1526.35 1754.06C1551.31 1766.34 1585.93 1755.94 1612 1756.2C1619.32 1756.28 1616.91 1766 1620.79 1766C1623.23 1766 1623.83 1759.28 1625.5 1757.69C1628.77 1754.59 1634.77 1754.6 1639 1754.22C1648.68 1753.35 1680.77 1758.6 1687.18 1751.46C1693.24 1744.7 1687.79 1726.96 1687.14 1719C1684.87 1690.98 1695.03 1653.4 1686 1627C1680.02 1633.93 1682 1650.16 1682 1659C1681.99 1677.7 1681.14 1696.04 1682.14 1714.78C1682.61 1723.56 1686.26 1735.33 1683.5 1743.85C1681.65 1749.56 1673.62 1747.84 1669 1748.08C1660.11 1748.53 1624.46 1755.68 1622.28 1744.97C1618.97 1728.65 1622.72 1709.41 1623.86 1693C1624.31 1686.6 1622.26 1677.88 1625.26 1672.02C1635.15 1652.7 1654 1651.51 1654.68 1625C1655.09 1608.95 1634.98 1608.8 1632.72 1598.8C1630.61 1589.45 1642.85 1554.42 1632.5 1548.82C1626.93 1545.81 1614.19 1547.67 1608 1548.22C1601.64 1548.78 1577.02 1546.59 1573.82 1552.5C1565.25 1568.34 1574 1600.51 1574 1618C1574 1623.24 1575.65 1637.83 1567.82 1638.93C1554.8 1640.74 1542.87 1615.23 1534 1610M1578 1631C1578 1615.48 1579.16 1599.46 1577.78 1584C1577.17 1577.12 1574.89 1564.02 1578.82 1557.82C1582.4 1552.17 1627.09 1551.23 1630.06 1557.28C1633.29 1563.85 1631.15 1595.23 1625.18 1599.66C1619.47 1603.9 1609.73 1601.8 1603.01 1607.2C1594.28 1614.2 1587.06 1625.13 1578 1631M157 1578C155.26 1593.53 165.788 1610.09 169.633 1625C172.561 1636.36 176.342 1648.01 180.446 1659C184.864 1670.83 190.541 1682.17 195.058 1694C195.941 1696.31 197.992 1704.32 201.582 1703.68C204.129 1703.22 207.999 1683.13 208.814 1680C215.621 1653.85 220.219 1627.24 226.746 1601C227.774 1596.87 235.612 1566.48 232.063 1564.76C226.495 1562.07 223.264 1588.78 222.534 1592C217.111 1615.89 210.479 1636.81 180.239 1624.61C161.974 1617.24 171.39 1581.29 161 1571L161 1577C158.793 1573.96 159.345 1564.16 154.213 1564.79C150.094 1565.29 146.472 1584.95 145.114 1589C136.524 1614.63 129.631 1641.65 123.783 1668C122.957 1671.72 118.362 1700.56 115.177 1699.92C109.219 1698.71 107.151 1667.57 105.96 1662C104.144 1653.5 101.6 1644.68 101 1636C105.081 1636.88 129.117 1635.98 125.351 1633.79C119.455 1630.36 103.68 1636.17 99.6828 1630.42C92.1179 1619.54 91.0004 1596.02 87.3462 1583C86.4062 1579.65 81.6898 1561.6 75.8551 1564.63C73.8113 1565.69 84.1343 1593.92 85.2782 1598C93.9676 1629.02 100.653 1661.22 105.843 1693C106.418 1696.53 111.294 1721.53 116.285 1719.03C121.42 1716.46 124.522 1689.02 125.725 1683C130.951 1656.82 139.002 1630.56 146.66 1605C148.938 1597.4 150.408 1582.73 157 1578M1912 1581C1918.62 1591.22 1935.26 1585.92 1941.98 1594.6C1945.35 1598.93 1943.6 1640.78 1938.5 1643.26C1931.79 1646.52 1915.38 1638.02 1908 1637C1912.84 1649.46 1930.4 1642.94 1938.5 1650.68C1942.56 1654.57 1941 1662.92 1941 1668C1941 1671.61 1942.36 1679.09 1938.5 1681.18C1929.91 1685.82 1917.71 1676.97 1911 1687C1919.15 1688.59 1931.26 1683.98 1938.5 1689.24C1942.88 1692.42 1940.7 1725.82 1936.5 1728.74C1926.36 1735.8 1910.68 1717.66 1902 1732C1908.88 1732 1933.56 1731.22 1937.64 1737.18C1940.44 1741.27 1937.11 1752.16 1937.15 1757C1937.19 1761.58 1939.68 1768.35 1936.18 1772.2C1929.44 1779.61 1913.54 1770.3 1909 1781C1926.01 1780.33 1940.39 1775.51 1941 1797C1951.43 1793.47 1941.62 1785.32 1946.87 1780.06C1951.66 1775.26 1966.57 1783.82 1969.46 1778.61C1972.8 1772.55 1947.32 1773.7 1945.26 1771.18C1941.13 1766.12 1941.96 1747.21 1943.37 1741.06C1945.35 1732.36 1970.39 1737.33 1969.44 1732.35C1968.43 1727.1 1950.44 1731.32 1946.5 1729.18C1942.2 1726.84 1943.89 1698.09 1945.5 1693.15C1948.63 1683.56 1984 1702.07 1984 1694.77C1984 1688.01 1950.73 1683.54 1945 1683C1946.4 1676.48 1943.8 1658.32 1948.82 1653.97C1953.64 1649.78 1975.28 1655 1982 1655C1976.78 1643.64 1957.41 1652.68 1948.87 1645.5C1942.38 1640.06 1949 1604.74 1949 1596C1952.36 1596.79 1981.89 1602.98 1976.11 1597.08C1970.14 1590.98 1957.74 1595 1951.58 1589.1C1947.3 1585 1954.12 1564.24 1948.05 1564.11C1939.98 1563.93 1947.23 1582.3 1942.18 1585.5C1936.22 1589.28 1919.48 1580.46 1912 1581M1316 1756C1312.49 1744.73 1325.93 1713.01 1333.96 1704.52C1336.39 1701.95 1343.12 1704.4 1344.24 1701.51C1345.67 1697.83 1338.11 1696.48 1336 1696C1345.28 1676.43 1356.25 1653.69 1360.98 1633C1362.3 1627.21 1366.46 1618.03 1364.88 1612.14C1361.53 1599.63 1336.19 1600.65 1327.28 1594.58C1320.65 1590.05 1328.09 1582.14 1324.63 1576.71C1320.49 1570.21 1318.78 1590.73 1319 1593C1309.19 1588.22 1298.62 1584.85 1289.03 1579.68C1286.47 1578.3 1281.85 1572.63 1278.74 1574.41C1272.1 1578.2 1270.33 1590.51 1267.9 1597C1260.31 1617.31 1253.25 1637.99 1244.95 1658C1234.18 1683.95 1220.91 1708.27 1211.88 1735C1209.57 1741.81 1201.73 1752.88 1202.5 1759.9C1203.59 1769.73 1220.6 1768.17 1226.75 1772.16C1230.87 1774.84 1226.03 1779.58 1228.93 1781.48C1231.02 1782.85 1235.56 1777.59 1239.01 1778.57C1254.23 1782.88 1276.07 1790.71 1291.98 1789.41C1305.9 1788.27 1304.58 1760.9 1316 1756M553 1652C543.292 1657.18 508.184 1661.66 499.257 1652.74C492.531 1646.02 493.189 1620.13 492.982 1611C492.837 1604.61 488.219 1588.09 492.267 1582.92C500.806 1572.02 534.963 1582.95 546 1583.86C559.352 1584.95 572.66 1585.9 586 1585C590.301 1584.71 598.647 1581.83 602.458 1584.34C605.802 1586.54 604.477 1596.26 605.203 1600C607.817 1613.48 614.997 1643.65 609.042 1656.46C607.382 1660.03 598.209 1657.96 595 1658.02C587.123 1658.17 554.315 1662.75 553 1652M1281.13 1582.56C1303.15 1580.48 1307.07 1618.05 1289.95 1620.64C1270.68 1623.55 1268.4 1612.04 1273.32 1598C1274.53 1594.55 1276.58 1582.98 1281.13 1582.56M1308 1594C1318.73 1599.59 1308.05 1620.16 1311.13 1620.92C1313.95 1621.61 1316.85 1610.91 1317.52 1609C1320.83 1599.6 1325.27 1598.91 1334.57 1603.42C1339.36 1605.73 1325.89 1627.61 1327.54 1633.95C1330.41 1644.93 1346.25 1635.44 1350.47 1643.54C1351.93 1646.36 1346.93 1653.34 1345.77 1656C1340.89 1667.23 1339.44 1683 1331.68 1692.64C1324.81 1701.18 1311.87 1684.99 1305 1695C1343.82 1696.79 1313.04 1727.41 1310 1751C1301.97 1749.54 1289.26 1738.5 1281.2 1743.34C1264.29 1753.49 1280.14 1784.49 1252 1777.54C1227.7 1771.54 1250.58 1762.5 1244.59 1750.68C1240.75 1743.09 1219.6 1746.41 1217.68 1738.51C1215.65 1730.16 1225.16 1715.42 1228.45 1708C1236.36 1690.15 1245.33 1672.23 1252.27 1654C1256.36 1643.28 1259.52 1627.72 1267 1619C1294.9 1639.63 1298.85 1613.22 1308 1594M1618.97 1605.37C1628 1604.52 1624.19 1661.66 1614.93 1662.85C1605.34 1664.08 1578.8 1655.52 1578.22 1644C1577.54 1630.66 1606.63 1606.54 1618.97 1605.37M1342.58 1606.87C1358.21 1599.56 1365.14 1630.04 1353.26 1636.13C1332.22 1646.91 1326.86 1614.23 1342.58 1606.87M1632 1606C1646.28 1613.26 1654.67 1626.81 1645.77 1643C1643.77 1646.64 1631.5 1664.23 1626.03 1659.65C1620.21 1654.77 1628.12 1631.96 1629.46 1625.78C1630.93 1619.05 1629.2 1612.51 1632 1606M941 1624C949.586 1634.43 972.901 1654.44 971.155 1669.92C970.688 1674.06 964.743 1677.4 962.001 1680.04C958.958 1682.98 954.362 1690.17 949.864 1690.68C941.992 1691.56 922.349 1665.1 920.641 1658.02C919.473 1653.18 937.53 1629.44 941 1624M1535 1671C1533.27 1656.65 1537 1640.61 1537 1626C1542.46 1627.77 1561.38 1638.26 1561.36 1644.86C1561.34 1651.22 1540.55 1668.13 1535 1671M199 1691C192.231 1670.53 181.885 1651.09 177 1630C183.23 1630.7 206.847 1629.21 210.721 1633.26C213.5 1636.16 210.127 1643.68 209.5 1647C207.401 1658.11 207.375 1683.18 199 1691M1566.31 1648.85C1575.05 1645.99 1571.9 1659.97 1571.11 1664C1566.87 1685.35 1571.34 1708.33 1569.1 1730C1568.61 1734.65 1569.4 1750.7 1564.57 1752.5C1558.82 1754.64 1530.78 1753.06 1527.74 1747.68C1523.14 1739.51 1528.1 1728.39 1528.88 1719.96C1531.28 1694.19 1536.54 1658.59 1566.31 1648.85M1619 1751C1610.21 1751.82 1579.75 1758.5 1573.26 1751.76C1568.73 1747.05 1573.85 1734.44 1574.55 1729C1576.69 1712.43 1575 1694.7 1575 1678C1575 1672.59 1573.73 1661.93 1578.17 1657.78C1578.77 1657.23 1618.9 1669.98 1619.5 1671.5C1628.31 1693.78 1613.21 1726.57 1619 1751M502.284 1660.04C508.552 1657.96 519.419 1662.37 526 1662.86C543.477 1664.18 562.472 1665.09 580 1665C587.62 1664.96 600.503 1661.04 607.499 1664.82C613.868 1668.26 616.875 1711.27 610.716 1714.18C585.81 1725.94 556.023 1720.94 530 1725.39C523.355 1726.53 509.729 1735.98 503.604 1731.73C494.648 1725.52 500.19 1686.27 499.981 1676C499.898 1671.91 496.835 1661.84 502.284 1660.04M992 1669.34C1014.43 1666.35 1029.7 1689.44 1034.5 1709C1042.09 1739.96 1021.43 1775.93 988 1779.61C961.028 1782.58 943.796 1754.25 942.137 1731C940.281 1705 965.941 1672.82 992 1669.34M162 1699.67C135.802 1700.29 133.035 1747.79 160 1747.76C186.193 1747.73 194.011 1698.91 162 1699.67M820.185 1711.61C835.624 1706.58 864.889 1741.4 844.002 1747.92C827.561 1753.06 799.966 1718.2 820.185 1711.61M1241 1751C1239.62 1757.35 1235.59 1762.44 1235 1769C1228.65 1767.52 1214.21 1765.58 1209.57 1761.08C1206.24 1757.85 1212.25 1745.64 1216.32 1744.65C1223.9 1742.79 1233.6 1749.72 1241 1751M1284.52 1746.9C1305.62 1737.83 1310.58 1774.62 1291.84 1781.89C1268.53 1790.93 1272.25 1752.18 1284.52 1746.9M149 1947C140.117 1944.49 132.367 1941.63 123 1944C129.294 1947.85 142.317 1948.3 147.042 1953.9C150.072 1957.49 147.674 1966.58 147.779 1971C148.176 1987.71 145.786 2004.3 148 2021C139.784 2019.25 131.267 2021.23 123 2022C126.776 2031.53 143.124 2020.53 147.418 2029.35C150.658 2036.01 146.321 2045.18 146.45 2052C146.729 2066.69 154.298 2085.99 152.123 2100C150.845 2108.23 143.722 2114.24 144 2123C150.892 2119.24 152.187 2112.56 157 2107C161.616 2121.95 177.8 2127.64 191 2119.46C194.395 2117.35 200.713 2109.12 204.959 2110C208.406 2110.72 217.115 2128.35 220.718 2124.03C224.66 2119.31 210.094 2107.85 210.18 2102C210.359 2089.72 225.201 2071.92 227.632 2058C228.167 2054.94 228.085 2046.05 231.604 2044.82C237.847 2042.62 246.976 2053.06 254.708 2051.27C259.86 2050.09 256.472 2043.94 254 2042C252.203 2048.7 234.277 2041.03 232.301 2035.94C227.517 2023.61 234.136 1980.84 238.157 1968.02C241.397 1957.69 257.773 1972.58 263 1962C256.507 1960.3 244.806 1962.14 239.579 1957.82C233.643 1952.91 238.329 1933.03 237.949 1926C237.855 1924.27 236.462 1916.33 233.024 1919.19C225.131 1925.74 238.711 1949.78 230.178 1956.74C223.633 1962.08 213.708 1954.29 208 1963C212.891 1963.09 226.696 1962.04 230.042 1965.82C233.371 1969.58 230.33 1979.47 230.075 1984C229.124 2000.96 226.008 2018.04 226 2035C219.943 2032.53 212.109 2033.03 213 2025C200.855 2035.98 222.808 2036.25 223.845 2045.03C225.439 2058.53 216.954 2078.19 209.342 2088.96C201.124 2100.59 188.609 2069.46 184.503 2076.97C181.576 2082.32 200.69 2093.85 199.822 2100.98C197.391 2120.95 164.026 2122.32 160.825 2101C158.833 2087.73 178.775 2077.12 176 2063C167.844 2070.56 163.194 2080.95 157 2090C151.491 2069.92 156.605 2048.37 153 2028C160.796 2028.28 168.25 2030.69 176 2031C172.035 2021.22 158.538 2026.78 154.58 2019.51C148.416 2008.18 153.726 1983.57 153.981 1971C154.057 1967.27 152.436 1958.73 155.822 1956.12C159.219 1953.49 171.526 1956 176 1956C171.445 1948.55 159.257 1954.05 155.862 1946.58C149.646 1932.91 165.47 1909.17 158.484 1896.35C154.3 1888.68 152.538 1907.23 152.063 1909C148.98 1920.48 149.422 1935.09 149 1947M576 1929C567.724 1921.4 557.822 1912.25 546 1913C550.981 1920.94 571.176 1925.13 572.795 1934.97C573.614 1939.95 548.166 1949.78 553.329 1955.94C555.79 1958.87 568.292 1944.95 571.933 1944.9C577.304 1944.84 574.137 1968.08 574 1972C582.871 1967.92 578.634 1948.33 580 1940C585.169 1943.45 594.343 1956.21 600.706 1955.59C607.441 1954.93 586.797 1937.98 584 1936C585.509 1934.79 602.918 1919.73 595.665 1919.76C591.363 1919.78 585.828 1930.16 582.123 1928.36C582.285 1928.44 577.418 1892.17 576.996 1914C576.957 1916.01 576.88 1918 576.75 1920C576.554 1923.02 576.421 1926.01 576 1929M1917 2019C1903.75 2027.97 1887.01 2021.92 1872 2026C1883.18 2038.6 1914.81 2020.92 1928.18 2034.03C1932.42 2038.2 1928.17 2046.98 1928.03 2052C1927.61 2066.7 1930 2082.05 1930 2097C1930 2100.21 1928.13 2115.77 1932.4 2116.68C1936.18 2117.48 1935 2103.99 1935 2102C1935 2087.77 1931.26 2068.84 1934.28 2055.15C1937.04 2042.71 1945.71 2063.76 1946.41 2067C1947.46 2071.93 1947.46 2077.05 1948.52 2082C1950.06 2089.24 1950.96 2096.66 1952 2104C1964.72 2099.81 1973.05 2067 1977 2055C1981.25 2065.75 1978.37 2097.61 1987.57 2104.03C1992.33 2107.35 1997.49 2097.04 1999.34 2094C2007.35 2080.86 2014.84 2064.47 2020 2050C2022.81 2061.1 2014.35 2088.53 2026.56 2095.86C2031.43 2098.79 2038.05 2091.25 2040.58 2087.96C2049.92 2075.76 2054.96 2059.98 2066 2049C2066.03 2055.86 2067.17 2062.32 2068.66 2069C2069.63 2073.34 2070.43 2077.77 2071.84 2082C2084.16 2118.73 2072.81 2063.51 2071.3 2052C2070.95 2049.25 2071 2037.63 2066.32 2038.32C2056.21 2039.8 2045.37 2069.12 2040.62 2077C2039.11 2079.49 2033.61 2088.86 2029.74 2087.26C2022.72 2084.35 2026.27 2055.27 2025.56 2049C2025.26 2046.36 2026.02 2036.23 2021.2 2037.41C2016.83 2038.47 2014.05 2048.41 2012.25 2052C2005.82 2064.84 2001.85 2087.29 1989 2095C1988.95 2081.35 1987.11 2067.91 1982.7 2055C1981.87 2052.55 1979.92 2040.67 1975.57 2043.97C1963.41 2053.22 1967.19 2079.14 1955 2090C1954.56 2077.57 1953.21 2059.16 1946.2 2048.5C1943.16 2043.87 1936.2 2046.67 1934.47 2039.91C1933.38 2035.66 1934.07 2020.07 1936.4 2016.48C1938.68 2012.97 1943.84 2013.91 1945.58 2009.73C1951.31 1996.04 1951.01 1978.12 1960 1966C1963.68 1980.97 1976.31 1992.25 1981.15 2007C1981.82 2009.04 1983.55 2020.88 1987.34 2019.24C1990.11 2018.05 1989.49 2007.74 1990.25 2005C1994.29 1990.38 2002.04 1977.26 2007 1963C2015.87 1974.04 2009.42 2010 2023.46 2016.46C2027.93 2018.51 2032.42 2004.83 2033.91 2002C2041.13 1988.24 2047.07 1960.81 2060 1952C2058.67 1959.69 2060.42 1967.25 2060.22 1975C2060.08 1980.36 2059.78 1985.63 2059.94 1991C2061.24 2033.91 2083.33 1984.19 2090.29 1968C2091.31 1965.62 2098.9 1952.64 2092.04 1952.64C2087.63 1952.64 2086.04 1961.89 2085 1965C2081.2 1976.33 2076.3 1992.13 2067 2000C2066.14 1985.63 2064.97 1971.34 2064 1957C2063.77 1953.59 2064.39 1943.44 2061.2 1941.41C2056.29 1938.29 2050.68 1951.04 2049.14 1954C2041.52 1968.63 2028.65 1990.68 2027 2007C2013.95 1993.81 2022.73 1962.86 2009.6 1949.97C2006.19 1946.62 2002.43 1958.07 2001.54 1960C1995.86 1972.41 1987.55 1985 1987 1999C1977.02 1990.4 1969.45 1974.84 1963.93 1963C1962.82 1960.63 1960.69 1949.69 1957.1 1950.32C1953.49 1950.96 1954.01 1958.44 1953.55 1961C1951.48 1972.39 1946.47 1982.9 1943.38 1994C1942.69 1996.48 1940.69 2007.8 1936.39 2006.24C1932.51 2004.83 1934 1987.68 1934 1984C1933.99 1966.32 1934.1 1948.67 1934 1931C1933.98 1926.63 1936.03 1915.11 1932.21 1912.06C1928.32 1908.96 1927.88 1932.08 1928.06 1936C1928.96 1955.52 1926.4 1975.51 1928.12 1994.92C1928.88 2003.53 1933.22 2016.35 1929.18 2024.71C1925.62 2032.07 1918 2023.37 1917 2019M483 1921C482.479 1924.1 480.443 1944.89 478.018 1944.84C472.99 1944.73 461.216 1927.45 456.33 1933.84C452.82 1938.42 470.943 1944.51 472.685 1949.15C473.464 1951.23 461.226 1971.78 466.147 1970.92C470.482 1970.16 473.977 1955.64 478.621 1957.64C483.855 1959.9 476.953 1969.68 486 1971C477.518 1981.49 489.174 1984.53 488.214 1974.12C487.863 1970.31 485.494 1966.91 485 1963C487.513 1964.41 489.732 1965.97 492.011 1967.74C516.159 1986.47 485.667 1953.53 485.97 1950C486.773 1940.62 500.685 1938.13 502 1928C495.653 1930.78 490.416 1935.74 485 1940C486.092 1933.5 489.509 1925.46 483 1921M1528 1927C1526.85 1959.54 1528.05 1993.96 1534.74 2026C1537.72 2040.31 1541.24 2057.49 1559.99 2053.55C1575.58 2050.28 1572.59 2030.62 1583 2024C1583.05 2036.42 1595.85 2048.7 1594.72 2059.65C1592.55 2080.49 1573.4 2085.33 1586.21 2110C1603.9 2144.1 1661.09 2126.4 1674.88 2097.56C1683.07 2080.42 1664.11 2067.97 1661.87 2053C1660.66 2044.91 1665.27 2033.46 1665.86 2025C1668.09 1993.36 1666.07 1978.39 1684.52 1951C1689.5 1943.61 1695.52 1932.32 1705 1930.08C1717.05 1927.24 1728.51 1940.77 1727.73 1952C1726.15 1974.71 1707.17 1994.67 1705.28 2019C1704.94 2023.3 1708.87 2056.05 1714.87 2053.89C1718.61 2052.55 1709.82 2025.2 1710.46 2020C1713.62 1994.54 1735 1971.14 1732.16 1946C1729.14 1919.26 1698.98 1919.88 1685.85 1938.01C1678.86 1947.65 1672.48 1957.71 1665 1967C1664.99 1947.75 1649.86 1912.48 1624 1923.37C1617.76 1925.99 1609.11 1944.48 1604.97 1944.48C1594.65 1944.48 1583.96 1914.07 1568.99 1936.03C1554.52 1957.23 1581.33 1989.49 1578.64 2012C1577.28 2023.33 1567.14 2053.86 1551.03 2048.84C1541.93 2046.01 1541.86 2030.85 1539.6 2023.32C1533.03 2001.45 1534.97 1977.5 1533.14 1955C1532.38 1945.55 1535.72 1934.09 1528 1927M802 1951C836.249 1932.71 879.714 1926.85 919 1934.28C927.912 1935.97 970.686 1947.28 955.781 1964.54C952.223 1968.65 933.552 1966.48 928 1966.86C902.025 1968.68 872.976 1965.33 848 1974C854.087 1980.33 861.341 1976.56 869 1976C888.571 1974.58 908.536 1974.63 928 1972.44C932.544 1971.93 952.993 1969.26 955.418 1973.82C958.879 1980.33 942.611 1993.83 937.997 1996.57C915.68 2009.85 884.295 2005.5 859 2006.02C856.016 2006.08 830.791 2007.73 833.544 2012.31C836.227 2016.76 853.471 2012.06 858 2012.01C880.84 2011.75 920.895 2016.99 940 2002.9C945.623 1998.75 962.788 1973.3 967.067 1974.37C976.096 1976.64 998.785 1998.66 986.281 2008.62C981.786 2012.2 969.641 2010.57 964 2011.23C949.914 2012.89 936.226 2018.62 922 2020.43C919.579 2020.74 900.364 2019.38 903.544 2025.26C906.098 2029.98 915.164 2026.65 919 2026.24C934.622 2024.53 948.641 2021.24 964 2018.22C966.933 2017.64 981.874 2013.98 982.584 2018.43C983.576 2024.64 971.327 2032.03 967.32 2035.03C947.462 2049.89 917.134 2043 894 2043C890.916 2043 864.238 2042.24 867.106 2049.37C868.509 2052.86 900.192 2049.92 905 2050.02C924.857 2050.42 944.231 2053.25 963.001 2045.08C977.721 2038.67 982.482 2022.26 995.043 2015.32C1017.84 2002.74 1027 2033.4 1027 2049C1008.9 2045.12 983.877 2049.29 966 2053.32C962.306 2054.15 944.862 2058.47 950.047 2065.36C952.333 2068.39 963.607 2060.24 966.999 2059.31C980.684 2055.54 994.816 2054.05 1009 2054C1012.3 2053.99 1020.48 2051.95 1023.05 2054.3C1031.36 2061.89 1005.58 2075.91 1001 2077.44C970.128 2087.75 940.112 2074.66 909 2079C914.632 2086.64 930.257 2084.64 939 2085.03C965.29 2086.21 989.813 2091.43 1015 2079.17C1022.66 2075.44 1030.15 2053.87 1037.03 2055.39C1055.85 2059.55 1056.79 2086.69 1042.57 2096.48C1020.39 2111.75 991.321 2108.8 966 2108C971.425 2116.96 985.931 2114 995 2114C1018.93 2114 1073.11 2102.15 1056.79 2066C1051.8 2054.94 1038.13 2055.43 1033.52 2047.52C1027.3 2036.85 1035.95 2023.59 1022.82 2014.09C1015.55 2008.82 1001.41 2012.29 995.84 2006.22C991.726 2001.74 994.188 1990.96 990.157 1985C983.438 1975.07 970.746 1973.72 963.822 1965.42C959.343 1960.05 963.158 1951.03 958.794 1945.34C947.267 1930.31 920.027 1928.89 903 1926.4C879.27 1922.92 848.19 1926.29 825 1932.87C814.008 1935.98 803.594 1937.53 802 1951M1628.01 1927.63C1658.79 1920.21 1675.86 1982.06 1642 1991.34C1615.03 1998.73 1594.71 1935.66 1628.01 1927.63M1580 2003C1580 1989.67 1577.05 1978.7 1573.34 1966C1569.3 1952.17 1574.18 1918.4 1593.87 1939.05C1605.49 1951.24 1595.97 1995.86 1580 2003M1246 1973C1239.74 1969.46 1235.18 1963.2 1228 1961.15C1212.95 1956.84 1202.98 1974.01 1200.7 1986C1195.67 2012.45 1210.75 2034.36 1209.83 2058.68C1209.61 2064.22 1202.73 2069.8 1198 2071.74C1186.94 2076.28 1179.17 2054.81 1176.37 2047C1168.35 2024.64 1166.38 2000.32 1162.66 1977C1160.78 1965.23 1155.66 1957.35 1161 1946C1146.99 1952.24 1155.93 1968.49 1157.65 1980C1161.71 2007.29 1165.15 2033.5 1176.44 2059C1184.43 2077.05 1198 2084.11 1213 2068C1226.66 2096.67 1267.09 2116.42 1285.37 2080.86C1290.42 2071.04 1291.74 2042.55 1299.49 2036.26C1301.94 2034.27 1313.64 2037.5 1318 2036.17C1331.98 2031.91 1345.98 2019.83 1354.09 2008C1362.87 1995.19 1352.08 1945.74 1387 1955.94C1399.32 1959.54 1408.85 1979.46 1404.62 1991C1395.92 2014.74 1367.6 2030.76 1367.02 2058C1366.88 2064.47 1364.77 2079.45 1370.62 2084.03C1373.02 2085.91 1374.25 2053.14 1376.92 2047C1388.64 2020.09 1430.35 1988.2 1400.84 1958.15C1388.14 1945.22 1363.98 1951.73 1354.76 1966C1348.5 1975.71 1353.89 1984.95 1352.45 1995C1350.24 2010.36 1326.06 2030.31 1311 2030.82C1303.94 2031.06 1299.79 2028.3 1301.39 2021C1306.74 1996.58 1309.69 1963.77 1292.52 1943.04C1273.44 1920 1246.81 1952.41 1246 1973M1276 1940.65C1300.4 1937.22 1301.04 1986.39 1299.86 2001C1299.56 2004.65 1297.06 2021.82 1292.52 2022.02C1285.07 2022.35 1276.54 2010.62 1272.02 2006C1264.86 1998.68 1253.23 1988.71 1249.88 1978.78C1245.44 1965.63 1263.3 1942.44 1276 1940.65M1661 1990C1661.08 2009.48 1659.15 2027.63 1658 2047C1637.44 2039.7 1611.73 2021.23 1600 2055C1578.6 2034.46 1585.55 2005.48 1596.92 1982.56C1598.7 1978.97 1600.12 1964.1 1604.53 1963.32C1606.24 1963.02 1621.16 1987.66 1625.01 1990.64C1638.45 2001.08 1646.73 1992.77 1661 1990M1215 2056C1207.6 2033.63 1201.26 2009.7 1206.02 1986C1207.69 1977.66 1214.06 1963.68 1225.08 1965.6C1230.89 1966.61 1240.28 1974.02 1241.32 1980C1242.36 1985.96 1237.31 1994.49 1235.28 2000C1229.37 2016.02 1226.95 2043.69 1215 2056M1246 1983C1257.88 1990.77 1265.21 2007.01 1276 2016.78C1280.53 2020.88 1289.81 2025.22 1291.98 2031.1C1296.7 2043.84 1280.26 2086.39 1268.97 2093.07C1252.89 2102.59 1219.24 2084.15 1217.69 2066C1217.12 2059.19 1224.43 2050.47 1226.58 2044C1233.31 2023.73 1240.06 2003.49 1246 1983M528 2036C544.971 2029.07 522.365 1975.1 526.554 2009C527.007 2012.66 526.998 2016.32 527 2020C527.003 2025.41 527.5 2030.63 528 2036M596.878 2019.72C590.887 2021.03 587.219 2030.67 583.745 2035C570.414 2051.61 558.186 2068.91 548.719 2088C546.613 2092.25 540.392 2109.68 536.282 2111.25C532.629 2112.64 523.668 2099.52 521.574 2097.08C507.603 2080.79 494.733 2063.56 481.076 2047C479.137 2044.65 466.265 2027.59 462.36 2031.91C460.215 2034.28 476.107 2050.33 478.136 2053C491.586 2070.67 506.14 2087.37 520.613 2104.18C524.266 2108.42 531.341 2120.24 537.949 2118.89C544.604 2117.54 549.604 2099.65 552.353 2094C562.361 2073.43 577.702 2056.8 590.4 2038.02C591.481 2036.42 606.249 2017.68 596.878 2019.72M1605 2063C1609.86 2060.67 1612.81 2057.95 1615 2053C1611.17 2055.12 1608.52 2057.61 1604 2057C1612.15 2041.71 1650.34 2027.49 1654.13 2055.08C1656.1 2069.43 1638.8 2089.15 1624 2084.26C1615.38 2081.41 1609.15 2070.52 1605 2063M1659.26 2063.64C1668.43 2063.64 1673.03 2091.06 1669.3 2097C1657.93 2115.07 1634.1 2124.53 1613 2122.9C1589.84 2121.12 1573.41 2080.74 1596.97 2067.79C1604.97 2063.39 1617.63 2093.26 1631 2091.44C1639.25 2090.32 1648.63 2081.74 1652.98 2075C1654.41 2072.78 1656.09 2063.64 1659.26 2063.64M1709.97 2076.41C1706.27 2078.91 1705.97 2094.93 1711.51 2090.91C1715.56 2087.98 1715.25 2072.84 1709.97 2076.41M1711.67 2084.67C1711.72 2084.72 1711.78 2085.78 1711.33 2085.33C1711.28 2085.28 1711.22 2084.22 1711.67 2084.67M1369.8 2112.97C1356.44 2113.7 1373.13 2120.45 1373.12 2121.59C1373.12 2124.27 1367.91 2123.17 1367.11 2125.63C1366.37 2127.88 1369.17 2129.74 1371.05 2129.95C1381.52 2131.13 1378.91 2112.47 1369.8 2112.97z"/>
</svg>
