<?xml version="1.0" standalone="yes"?>
<svg xmlns="http://www.w3.org/2000/svg" width="2200" height="2200">
<path style="fill:#0d0d0d; stroke:none;" d="M871 100C892.198 107.36 916.521 103.099 938 99.7017C943.178 98.8826 960.834 94 964.783 97.9585C972.309 105.502 969 131.125 969 141C969 150.551 970.652 165.339 964 173C963.193 156.558 930.745 154.859 919 156.603C892.431 160.548 871.04 180.591 857.343 203C849.758 215.408 843.563 231.898 862.019 237.955C873.162 241.612 887.753 235.943 899 234.419C917.849 231.865 930.271 231.495 949 233C940.996 213.627 895.007 228.477 881 232.602C872.959 234.969 859.723 235.774 856.327 225.959C852.689 215.443 863.313 203.488 869.114 196C885.994 174.213 911.812 154.354 941 161.921C945.376 163.055 949.414 164.411 953 167.236C976.496 185.743 948.842 201.42 961.024 222.385C965.71 230.449 971.699 214.144 971 210C968.906 212.175 967.363 214.306 966 217C961.668 189.889 974.002 154.462 974 126C974 119.879 968.56 100.509 972.117 96.0398C976.084 91.0566 993.086 92.1123 999 92C994.747 97.3821 989.254 101.301 987 108C999.652 102.072 1011.29 84.8113 989 87.2361C962.84 90.0825 933.18 101.217 907 99.6133C897.721 99.0449 876.766 90.9773 871 100M1667 214C1661.68 204.461 1651.35 211.25 1643 212.519C1626.71 214.994 1578.8 225.597 1571.57 203.779C1564.94 183.788 1599.79 154.723 1618.04 151.897C1625.56 150.733 1633.84 156.529 1642 155.779C1648.94 155.141 1667.72 152.446 1669.89 144.182C1671.04 139.813 1655.21 136.137 1652 136.027C1637.44 135.526 1616.6 151.789 1616.93 129C1617.41 96.1655 1659.63 77.5007 1676.74 111.019C1681.87 121.077 1676.16 139.404 1674.6 150C1671.4 171.756 1673.04 191.477 1674 213C1680.29 210.431 1677.52 177.512 1677.98 169C1678.91 151.732 1689.72 124.286 1686.15 108.306C1683.79 97.7617 1651.4 86.2117 1641 88.2573C1623.34 91.7302 1612.03 111.132 1611.08 128C1610.82 132.727 1615.07 144.703 1612.28 147.963C1600.46 161.796 1577.94 166.692 1568.06 183.001C1559.43 197.267 1568.69 217.502 1584 221.062C1609.53 226.998 1641.55 217.443 1667 214M498 104C500.432 110.076 507.439 114.84 513 118C511.911 113.922 509.629 111.244 507 108C548.525 107.612 607.473 74.9192 644 103C643.706 83.8381 622.671 91.4277 610 89.3604C573.209 83.3582 534.834 104 498 104M1280 182C1257.7 180.446 1255 222.388 1279 226.289C1301.35 229.922 1335.48 202.383 1331.59 179C1327.41 153.787 1290.33 144.622 1271 157C1273.91 139.086 1296.34 126.203 1290.5 106.011C1285.13 87.4355 1268.03 110.497 1264.29 117C1251.35 139.458 1237.51 171.719 1237 198L1235 198C1235 167.733 1242.96 138.08 1243 108C1245.11 109.9 1246.55 111.568 1248 114C1248.58 111.201 1246.59 96.7261 1241.04 100.501C1238.2 102.439 1237.17 118.329 1236.7 122C1233.92 143.323 1230.25 164.454 1230.01 186C1229.97 189.13 1229.26 216.427 1235.43 212.592C1240.75 209.282 1241.19 195.531 1242.93 190C1249.69 168.439 1254.34 147.492 1264.63 127C1267.64 121.001 1273.52 104.844 1281.79 104.761C1287.53 104.704 1286.04 115.717 1285.24 119C1282.79 129.024 1262.45 148.271 1266.09 158.49C1267.91 163.619 1281.4 156.802 1285 156.301C1296.89 154.642 1314.67 161.148 1322.03 170.581C1351.46 208.272 1248.58 244.578 1270.04 193.003C1272 188.294 1276.48 185.443 1280 182M1937 104C1938.35 107.163 1939.58 107.845 1943 108C1942.41 110.662 1942.41 112.338 1943 115C1948.82 107.196 1958.56 108.579 1968 107.866C1987.54 106.392 2006.43 104.775 2026 104.992C2034.15 105.083 2049.51 102.052 2051 113C2066.01 101.964 2034.56 100.012 2029 99.9993C1998.31 99.9263 1967.75 103.997 1937 104M1961 196C1958.37 197.698 1956.34 199.921 1954 202C1954 178.958 1955 156.045 1955 133C1955 130.258 1956.77 110.377 1952.35 112.667C1947.59 115.137 1950 130.461 1950 135C1950 155.576 1947.77 176.485 1949.09 197C1950.04 211.866 1959.24 208.627 1961 196M488 207C490.554 180.701 501.002 147.921 494 122C502.189 131.032 497.535 111.157 491.447 113.106C487.781 114.28 489.004 141.477 489 146C488.979 170.066 485.94 194.225 482.242 218C480.741 227.651 478.329 244.348 485.144 252.646C490.469 259.129 491.917 246.014 496.691 246.903C508.07 249.022 516.429 255.107 529 254.882C548.541 254.531 567.672 234.02 561.783 214C556.427 195.792 528.27 177.553 509.217 185.783C499.619 189.929 494.871 199.877 488 207M125 227C116.328 243.256 102.148 258.97 101 278C111.168 265.471 116.809 236.003 131.1 228.26C142.49 222.088 172.767 233.848 181.581 241.642C183.898 243.691 191.287 259.92 195.605 255.071C197.754 252.657 195.992 248.57 194.341 246.456C185.598 235.263 186 225.883 186 212C195.393 215.192 202.032 222.827 211 226C208.997 213.723 188.302 211.611 188.1 201.933C187.653 180.581 196.177 159.415 195.974 138C195.937 134.131 195.125 119.296 190.037 118.323C185.378 117.433 172.514 145.707 170.345 150C159.727 171.012 147.522 195.164 133.285 213.921C130.758 217.251 113.003 223.156 113.003 224.217C113.003 228.191 122.62 227 125 227M189 126C195.687 143.339 188.703 168.394 185.11 186C184.176 190.578 185.371 201.712 181.197 204.662C174.141 209.646 149.785 210.275 140 213C142.524 201.666 151.925 191.883 157.701 182C168.344 163.791 176.698 143.08 189 126M1663 143C1656.52 151.828 1632.16 155.498 1625 146C1639.15 143.986 1648.59 142.08 1663 143M502 224C497.325 225.721 491.68 226.725 489.757 232.005C487.998 236.832 492.264 242.797 486 245L486 217C488.639 217.562 490.214 222.351 492.806 221.778C494.25 221.458 491.801 212.263 492.639 210C495.278 202.875 503.414 192.401 511 190.417C538.317 183.271 577.872 223.035 547 244.278C537.251 250.986 493.604 254.573 494.194 235C494.332 230.448 499.75 227.487 502 224M182 236C166.356 232.365 150.668 225.973 135 222C140.583 216.701 173.639 204.347 179.74 211.822C183.323 216.211 181.466 230.265 182 236M2037 448C2036.5 443.488 2034.4 439.551 2034 435C2041.49 441.952 2049.23 432.247 2040.75 429.002C2028.41 424.276 2029.35 443.112 2037 448M1975.12 442.95C1967.28 446.247 1977.18 456.788 1981.37 455.24C1987.98 452.8 1983.37 439.475 1975.12 442.95M1606 458C1605.9 450.624 1610.26 448.604 1617 449C1610.82 435.532 1594.04 453.115 1606 458M1577 456L1571 450C1575.6 451.662 1580.29 452.705 1585 454C1580.78 438.446 1555.92 454.005 1577 456M1978 447C1979.61 448.72 1980.24 449.772 1981 452C1978.37 450.811 1977.23 449.922 1978 447M203 558C203.752 562.903 203.341 566.21 200 570C194.61 544.88 206.714 510.226 210.755 485C211.514 480.264 218.733 459.239 216.326 456.976C211.437 452.379 199.284 453.037 193 453.003C171.624 452.886 150.993 455.576 130 458.195C125.701 458.732 105.796 465.133 106.407 466.035C112.043 474.351 123.103 465.632 130 464.417C149.335 461.009 168.203 457 188 457C192.743 457 204.561 455.027 207.603 459.744C210.656 464.477 206.125 477.606 205.445 483C202.699 504.79 199.071 526.382 195.187 548C193.974 554.747 190.478 574.549 200.153 577.115C208.009 579.198 211.271 561.369 203 558M461 552C461.741 565.608 460.118 580.401 462.205 593.949C463.113 599.841 470.014 602.754 474 598C466.342 594.589 460.465 563.823 469.42 559.958C474.19 557.899 482.668 560.189 488 559.559C511.821 556.748 536.706 556.028 559.36 563.769C564.153 565.407 569.351 560.661 574.413 563.803C582.648 568.916 566.585 594.251 577.393 600.671C578.661 601.424 581.92 601.664 581.74 599.386C580.993 589.952 585.559 561.623 581.208 553.571C580.926 553.05 560.721 560.964 554.929 550.892C543.462 530.951 552.858 503.582 557.079 483C557.779 479.585 564.446 461.431 560.401 460.187C557.768 459.378 539.894 488.308 537.125 492C516.916 518.945 499.108 560.235 461 552M1207 479C1211.58 486.123 1228.61 478.614 1236 477C1256.27 472.574 1298.81 457.607 1318.7 464.509C1325.28 466.793 1316.15 491.54 1315.43 497C1313.6 510.969 1309.09 524.831 1309.01 539C1308.99 543.23 1312.68 553.763 1310.48 557.138C1309.95 557.96 1287.76 567.137 1285 568C1286.91 566.189 1288.62 565.142 1291 564C1283.9 562.358 1273.11 567.497 1266 569.221C1250.06 573.087 1234.35 576.16 1218 576.026C1215.77 576.008 1201.87 576.785 1206.89 581.924C1213.84 589.035 1224.67 584.011 1232 581.827C1252.55 575.703 1278.41 577.007 1297 567.695C1301.98 565.199 1312.69 566.833 1316.14 563.176C1319.26 559.857 1315.62 552.777 1314.94 549C1312.91 537.8 1315.12 527.035 1317.01 516C1319.56 501.108 1322.34 485.464 1326.83 471.032C1328.03 467.179 1337.13 464.935 1336.03 462.437C1332.82 455.18 1311.07 459.821 1305 460.04C1271.43 461.249 1239.68 473.869 1207 479M2058 469C2049.03 487.496 2048.22 514.655 2047 535C2039.24 527.899 2022.52 523.613 2012 526.931C2000.48 530.566 1999.38 539.653 2012 542C2010.43 538.726 2007.36 536.747 2005 534C2018.31 533.475 2034.73 537.534 2047 536C2046.8 541.49 2045.78 567.873 2042.24 570.722C2039.1 573.253 2032.68 570.469 2029 570.582C2015.16 571.005 1976.28 563.209 1970 580C1989.31 579.813 2006.2 573.02 2026 576.571C2031.18 577.5 2043.93 579.388 2048.06 575.178C2052.08 571.088 2048.85 559.473 2049.58 554C2052.45 532.467 2052.97 510.343 2057.41 489C2058.42 484.162 2068.07 467.277 2063.69 465.071C2058.35 462.388 2049.69 465.634 2044 465.922C2021.53 467.062 2001.14 475.22 1979 478.177C1975.58 478.633 1953.28 480.428 1954.32 485.54C1954.99 488.793 1975.91 483.099 1979 482.584C2005.29 478.193 2031.83 473.873 2058 469M1564 496C1555.29 503.704 1564.26 549.502 1568.12 559.999C1570.92 567.627 1577.05 570.473 1579 561L1574 564C1569.51 542.867 1563.93 518.084 1567.31 496.68C1567.93 492.76 1564.97 488.079 1567.28 484.483C1575 472.483 1613.54 478.13 1624 482C1623.51 475.268 1619.46 473.206 1613 473.022C1599.13 472.626 1585.65 474.666 1572 476.909C1569.09 477.386 1561.28 476.297 1559.41 478.758C1558.95 479.354 1563.19 494.223 1564 496M880 588C875.785 587.213 873.653 587.95 872 592C893.894 591.576 904.334 566.84 925 566.292C930.668 566.142 934.98 571.016 940 573C934.974 542.175 895.093 578.094 884 584C881.996 551.328 880 518.85 880 486C890.989 491.229 939.81 464.918 942 490C951.691 483.344 938.715 476.333 932 475.363C919.987 473.629 888.111 475.216 877.803 480.911C872.847 483.649 875 502.08 875 507C875 533.932 874.38 561.605 880 588M553 481C550.807 508.283 542.509 527.614 551 555C532.242 553.875 514.892 551.869 496 553C510.021 527.149 537.387 508.231 550 481L553 481M886 514C884.151 530.839 910.839 514.019 918.999 515.053C925.305 515.852 927.468 521.526 932 525C930.664 496.467 899.876 520.033 886 514M1309 525C1303.61 510.878 1280.08 519.555 1270 520.803C1266.5 521.236 1259.7 519.156 1257.01 521.888C1251.08 527.903 1271.59 526.213 1274 525.859C1278.76 525.16 1283.14 523.911 1288 523.949C1295.05 524.005 1301.97 524.751 1309 525M1591 519.671C1565.44 524.793 1577.11 524.682 1595 525.222C1600 525.372 1607.61 529.404 1612.35 527.851C1615.48 526.829 1596.28 518.613 1591 519.671M1599 561.891C1594.99 563.286 1571.4 580.016 1576.39 580.447C1585.52 581.236 1593.85 567.582 1603 566.284C1608.7 565.476 1618.06 574.434 1621.91 572.461C1626.24 570.243 1605.39 559.667 1599 561.891M2034 827C2036.21 797.035 1980.42 806.948 1964 805.86C1960.49 805.628 1940.69 803.282 1941.78 810.812C1942.09 812.92 1962.26 810.876 1966 810.951C1995.24 811.538 2010.48 807.88 2034 827M1949 814C1950.54 815.267 1951.05 815.489 1953 816L1953 813L1949 814M1601 959C1600.79 936.087 1597.61 903.5 1589.49 882C1587.93 877.843 1582.57 861.201 1577.73 860.426C1574.65 859.934 1573.43 880.91 1572.78 884C1567.29 909.855 1558.26 932.759 1561 959C1566.86 954.96 1563.13 943.704 1564.25 937C1567.75 915.991 1578.79 895.387 1579 874C1595.01 890.666 1589.49 924.773 1593.72 946C1594.67 950.72 1596.56 969.051 1601.67 970.894C1603.71 971.629 1618.64 943.631 1621.01 940C1636.95 915.606 1653.72 878.385 1677.25 862.273C1678.67 861.305 1681.27 844.886 1679.29 844.106C1675.93 842.789 1673.54 851.097 1672.56 853C1667.4 863.058 1659.65 872.824 1653.04 882C1646.3 891.346 1638.85 900.808 1633.23 910.864C1624.86 925.815 1614.15 948.089 1601 959M488 885C473.075 870.216 524.909 842.098 536.377 856.244C546.507 868.738 521.473 881.925 526.381 892.892C529.755 900.431 545.155 899.061 552 900.723C564.839 903.84 574.949 912.372 581.054 924C597.152 954.664 560.375 975.839 532 969.871C521.609 967.685 518.66 958.886 511 953C515.087 952.743 518.945 953.591 523 954C518.972 949.559 501.725 940.98 506.416 954.003C518.635 987.932 591.914 977.499 591.914 942C591.914 923.555 576.293 903.042 559 897.741C553.865 896.167 532.699 896.082 530.625 890.826C529.435 887.813 535.368 882.348 536.842 880C544.308 868.108 549.633 847.488 529 846.199C512.864 845.191 495.111 858.899 484.001 869.144C475.692 876.806 473.236 887.524 488 885M889 970C878.63 945.379 830.304 986.552 816.155 956.959C808.815 941.606 818.64 903.083 839.003 900.96C846.392 900.19 866.002 912.254 871.469 903.524C874.088 899.341 865.285 898.13 863 897.798C855.117 896.655 834.898 898.032 835.51 885.997C836.7 862.596 886.202 834.073 887 872C901.886 860.724 873.567 842.215 860 849.321C848.6 855.293 833.257 869.051 829.927 882C828.507 887.522 832.772 893.802 830.042 898.864C819.191 918.982 789.664 945.938 818.043 968.481C835.108 982.037 869.044 968.806 889 970M1940 950C1939.24 938.658 1941 926.5 1941 915C1941 907.668 1941.07 900.332 1940.99 893C1940.95 889.048 1933.31 858.398 1930.51 863.708C1927.93 868.624 1934.44 882.649 1935.52 888C1938.79 904.14 1937.77 923.761 1935.4 940C1934.5 946.147 1932.06 958.998 1937.18 964.031C1937.56 964.411 1951.12 943.601 1953.72 940C1970.29 917.04 1997.5 891.402 2006 864C2015.11 883.478 2002.13 911.132 2004.32 932C2005.73 945.458 2010.51 964.05 2018 941C2015.39 941.713 2013.35 942.641 2011 944C2006.68 919.6 2013.13 895.495 2013 871C2012.98 866.975 2014.68 849.725 2011.42 847.544C2009.61 846.333 1997.66 869.222 1995.83 871.981C1978.24 898.426 1955.86 922.531 1940 950M1207 969C1236.23 948.566 1252.07 907.753 1277 883C1271.53 908.476 1268 936.848 1268.01 963C1268.01 970.15 1273.22 995.843 1282 980C1271.24 979.462 1272.95 961.621 1273 953.993C1273.13 931.497 1279.79 910.213 1281.78 888C1282.17 883.661 1284.64 869.005 1280.5 866.408C1277.27 864.387 1268.05 886.635 1265.9 889.981C1251.65 912.179 1229.7 940.735 1209 957C1213.43 932.183 1222.67 906.505 1220.86 881C1220.58 876.95 1219.51 857.003 1213.8 857.003C1207.5 857.003 1214.86 879.176 1215.48 883C1220.06 911.025 1196.5 941.762 1207 969M153 921C143.557 913.51 124.647 876.388 110.314 881.103C107.36 882.075 108.246 884.641 110.314 885.964C126.645 896.42 134.532 913.321 149 926C131.909 931.269 89.3698 964.013 86 982L93 981C96.2773 963.309 135.958 938.686 151 930C146.911 946.257 140.493 969.632 146.068 986C153.085 1006.6 172.684 991.726 176 977C171.018 981.29 165.843 989.964 159.008 991.226C143.331 994.123 150.519 958.004 151.758 951C152.228 948.34 152.789 939.76 155.761 938.643C160.65 936.806 179.878 966.609 183.101 970.999C184.655 973.116 189.451 982.037 193.152 979.553C196.577 977.253 187.92 968.003 186.471 965.999C181.602 959.271 155.208 933.158 159.086 925.142C171.166 900.173 217.206 895.36 234 875C224.508 872.725 217.589 879.692 210 884.361C192.83 894.924 176.309 906.766 159 917C160.809 910.745 174.39 872.552 169.714 870.306C163.335 867.243 154.072 913.151 153 921M488 1335C491.69 1330.82 491.12 1294.23 490 1287C506.459 1298.06 522.373 1312.22 540 1321.23C550.09 1326.39 564.295 1326.37 572 1335C578.55 1326.11 563.958 1323.38 558 1321.64C539.881 1316.33 525.872 1305.52 511 1294.16C507.417 1291.42 497.372 1287.36 497.86 1281.86C499.162 1267.16 527.008 1244.94 537.217 1235.4C540.876 1231.98 549.182 1221.41 554 1227C564.588 1213.82 546.849 1220.18 540.922 1225.2C526.724 1237.23 515.348 1251.13 503.103 1265C501.343 1266.99 491.757 1282.13 489.624 1280.68C482.932 1276.12 488.502 1239.33 487.562 1231C487.136 1227.23 487.681 1215.86 481.295 1216.51C480.384 1216.6 482.98 1239.9 483.003 1244C483.134 1268.03 474.576 1314.22 488 1335M90 1236C105.969 1246.79 119.026 1279.52 126.639 1297C128.243 1300.68 133.476 1320.1 136.181 1320.89C141.541 1322.46 145.051 1306.45 145.854 1303C149.777 1286.17 154.574 1271.16 161.069 1255.01C162.485 1251.49 167.968 1249.21 168.596 1246.47C169.352 1243.17 164.468 1237.92 161.414 1240.89C157.196 1245 155.345 1254.64 152.861 1260C150.169 1265.8 148.271 1271.97 146.132 1278C142.902 1287.1 141.237 1296.62 139 1306C122.927 1289.78 114.436 1260.5 101.796 1241C99.7889 1237.9 89.1893 1221 85.9787 1221C83.4623 1221 83.5177 1241.63 83.2174 1245C81.3029 1266.49 80.541 1288.69 77.1993 1310C76.7949 1312.58 79.9385 1326.23 84.5968 1320.99C86.4178 1318.94 81.8101 1296.86 82.4567 1292C83.4408 1284.6 85.3657 1277.42 86.1994 1270C87.4744 1258.66 88.8984 1247.34 90 1236M1280 1238C1280.12 1250.74 1281.21 1264.24 1282.14 1277C1282.75 1285.47 1283.43 1294.67 1285.01 1303C1285.66 1306.43 1293.54 1341.34 1297.68 1336.03C1300.19 1332.82 1293.02 1318.2 1292.12 1314C1287.56 1292.69 1289.45 1270.49 1286.54 1249C1286.03 1245.22 1286.71 1222.03 1284.36 1221.11C1280.24 1219.49 1270.37 1242.77 1268.16 1246C1254.72 1265.7 1240.03 1284.72 1225.98 1304C1223.72 1307.09 1212.75 1320.61 1218.78 1324.45C1219.89 1325.16 1236.67 1298.76 1239.35 1295C1244.77 1287.4 1249.87 1279.53 1255.38 1272C1263.52 1260.88 1270.7 1248.12 1280 1238M1889 1236C1888.65 1238.24 1888.63 1239.76 1889 1242C1896.36 1241.68 1899.99 1254.72 1903.44 1260C1913.39 1275.24 1924.32 1306.71 1942 1314C1944.32 1297.39 1960.49 1277.84 1969.66 1264C1971.33 1261.49 1977.46 1248.33 1981.29 1250.32C1988.77 1254.22 1999.55 1277.22 2003.18 1285C2004.23 1287.26 2005.7 1297.25 2009.15 1296.24C2030.66 1289.91 2045.92 1242.65 2072 1244C2074.21 1238.97 2085.51 1230.71 2084.68 1225.57C2083.96 1221.12 2068.8 1234.71 2067 1236.12C2052.54 1247.46 2038.08 1259.1 2025 1272.02C2022.15 1274.83 2014.91 1285.46 2010.44 1284.8C2005.33 1284.05 1991.25 1254.41 1988.34 1249C1986.85 1246.23 1984.21 1236.71 1979.57 1238.89C1969.12 1243.81 1955.6 1275.57 1949.52 1285.86C1947.81 1288.75 1942.72 1301.5 1938.9 1300.92C1934.32 1300.22 1929.45 1291.52 1927.12 1288C1918.08 1274.35 1910.65 1259.68 1901.72 1245.96C1898.49 1241.01 1893.58 1229.81 1886.16 1230.79C1879.74 1231.63 1885.75 1235.77 1889 1236M929 1224C929.639 1246.59 937.387 1266.83 936 1290C910.449 1276.9 893.101 1256.71 876.149 1235.53C873.658 1232.41 865.905 1231.26 866.245 1237.06C866.991 1249.77 898.539 1270.98 908 1278.34C911.292 1280.9 922.357 1286.62 922.357 1291.26C922.357 1302.85 891.504 1318.19 886.089 1330C881.115 1340.85 891.935 1341.91 900 1340C896.86 1336.46 892.443 1337.01 888 1337C895.588 1324.57 907.813 1312.38 919.059 1303.15C922.163 1300.6 929.206 1293.9 932.616 1299.26C938.838 1309.02 924.2 1333.2 935.276 1340.03C941.943 1344.14 948.476 1326.9 944.395 1324.76C941.575 1323.29 938.578 1334.28 938 1336C931.047 1308.52 946.438 1278.09 939.13 1249C937.336 1241.86 936.393 1227.23 929 1224M48.5 1232.5C47.8725 1233.13 48.8726 1234.13 49.5 1233.5C50.1274 1232.87 49.1275 1231.87 48.5 1232.5M1588 1245C1588.03 1253.35 1589 1261.62 1589 1270C1589 1275.65 1588.78 1281.36 1589.08 1287C1589.71 1298.94 1597.07 1315.33 1608.25 1300C1617.84 1286.83 1620.4 1272.43 1626.06 1258C1627.09 1255.36 1634.25 1242.57 1637.66 1244.32C1652.67 1252.03 1651.88 1293.89 1653.15 1308C1653.5 1311.81 1654.83 1327.47 1661.49 1325.03C1665.74 1323.48 1658.4 1309.32 1658.04 1305C1656.4 1285.57 1653.7 1268.08 1646.55 1250C1644.76 1245.47 1642.47 1233.88 1635.47 1234.62C1632.3 1234.96 1629.68 1242.72 1627.96 1245.1C1619.68 1256.63 1617.24 1271.84 1610.97 1285C1609.48 1288.14 1603.37 1301 1598.72 1299.36C1589.12 1295.97 1593.63 1256.29 1592.18 1248C1591.73 1245.39 1591.77 1233.64 1587.98 1233.64C1584.68 1233.64 1578.75 1248.15 1577.13 1251C1566.34 1269.97 1556.46 1290.05 1547.65 1310C1546.43 1312.78 1539.1 1331.6 1542.65 1333.24C1547.08 1335.29 1551.42 1314.69 1552.49 1312C1559.39 1294.68 1573.06 1255.93 1588 1245M298 1303C299.635 1302.45 299.455 1302.64 300 1301C298.825 1301.77 298.773 1301.82 298 1303M314 1307L321 1310C320.224 1305.77 315.963 1300.02 314 1307M132 1352.46C113.086 1354.98 94.5584 1362.5 76 1366.62C73.8043 1367.1 56.0869 1370.25 62.354 1373.21C81.0276 1382 115.036 1358.23 135 1358.01C139.733 1357.95 157.646 1360.83 160.547 1357.17C165.424 1351.01 135.524 1351.99 132 1352.46M1234 1379C1237.87 1378.37 1239.89 1377.33 1242 1374C1237.83 1374.29 1235.62 1375.02 1234 1379M1273 1572.74C1264.66 1574.96 1252.49 1580.04 1249.69 1589C1248.05 1594.23 1251.97 1609.95 1259.71 1609.38C1257.89 1609.52 1252.38 1590.9 1257.15 1586.42C1278.17 1566.7 1313.08 1585.03 1306.59 1614C1304.45 1623.56 1294.9 1640.46 1283.86 1641.38C1279.76 1641.72 1256.89 1626.22 1255.32 1635.28C1254.41 1640.56 1279.8 1646.04 1284 1645.72C1326.79 1642.45 1317.03 1561.05 1273 1572.74M1595 1580.72C1574.47 1586.13 1547.21 1632.22 1575 1644.36C1591.99 1651.78 1616.78 1637 1630.6 1644.48C1637.23 1648.07 1630.2 1685.18 1638.97 1683.68C1642.51 1683.07 1635.53 1649.16 1637.96 1643.36C1639.04 1640.76 1644.99 1641.35 1645 1638.91C1645 1635.68 1638.98 1636.14 1639.07 1631.85C1639.31 1620.76 1650.84 1603.04 1645.22 1592.56C1643.89 1590.08 1636.68 1590.64 1634 1589.69C1622.66 1585.67 1607.12 1577.53 1595 1580.72M86 1582C81.6508 1590.3 83.0001 1599.87 83 1609C82.9997 1628.17 71.1412 1661.54 81.6008 1678.84C85.6039 1685.46 92.177 1679.78 92 1674C78.4466 1680.94 80.5068 1644.77 86.7813 1638.82C100.432 1625.88 124.478 1638.65 137 1638C135.118 1652.19 134.38 1670.28 139.138 1684C142.397 1693.4 151.648 1699.66 158 1689C149.457 1690.8 146.192 1687.46 144.329 1679C139.776 1658.34 143.203 1636.92 140.675 1616C140.333 1613.17 132.283 1586.73 129.544 1593.57C127.798 1597.93 134.59 1611.55 135.198 1617C135.901 1623.3 136.775 1629.66 137 1636C122.576 1616.4 100.39 1642.17 87.9579 1630.74C82.0578 1625.31 90.0198 1591.41 88 1582L86 1582M854 1660C851.247 1661.65 849.281 1663.76 847 1666C845.184 1646.6 839.701 1627.52 839 1608C840.552 1610.16 841.78 1611.55 844 1613C843.7 1608.66 840.103 1600.6 843.042 1596.86C846.051 1593.02 854.552 1592.61 859 1591.68C871.913 1588.99 905.533 1583.68 915.377 1595.35C924.424 1606.06 913.489 1646.55 912.096 1660C911.539 1665.38 908.371 1679.21 915.416 1681.9C917.666 1682.76 923.337 1681.51 923.358 1678.38C923.376 1675.63 916.59 1670.3 917.139 1663C918.469 1645.3 922.312 1627.76 922.96 1610C923.123 1605.56 926.211 1597.02 923.994 1593.24C920.124 1586.62 908.616 1586.3 902 1585.92C887.114 1585.09 837.231 1579.57 832.892 1600C829.696 1615.06 837.187 1641.14 840.819 1656C841.799 1660.01 841.136 1669.04 844.754 1671.67C849.898 1675.41 853.351 1663 854 1660M1600 1584.59C1627.2 1583.2 1653.7 1611.36 1632.18 1636.5C1626.57 1643.05 1603.29 1642.29 1595 1642.74C1551.36 1645.11 1570.99 1586.08 1600 1584.59M1256 1661C1251.59 1664.02 1249.26 1668.86 1246 1673C1246 1662.12 1246.44 1650.81 1247.69 1640C1249.32 1625.83 1248.45 1613.07 1246.9 1599C1246.74 1597.57 1243.12 1582.55 1239.96 1588.85C1237.15 1594.43 1243.93 1610.6 1244.65 1617C1247.16 1639.14 1234.47 1665.01 1241.49 1686.82C1243.54 1693.19 1255.24 1666.31 1256 1661M514 1589.48C486.844 1593.61 456.098 1624.8 469.499 1653.78C475.498 1666.76 486.335 1668.14 497 1674.89C505.901 1680.52 513.184 1689.47 525 1687.56C582.025 1678.33 579.579 1579.52 514 1589.48M1980 1589.74C1953.43 1596.73 1901.38 1650.03 1936.02 1676.33C1948.72 1685.97 1974.21 1679.52 1989 1678.12C1993.22 1677.72 2011.23 1683.02 2012.11 1682.46C2018.76 1678.21 2001 1671.18 1998 1671.22C1970.02 1671.59 1919.71 1686 1936.01 1639C1943.22 1618.23 1965.84 1591 1990.99 1595.17C1995.97 1596 2004.94 1612.5 2005.45 1612.24C2009.89 1610.01 2005.43 1598.74 2003.68 1596.1C1998.76 1588.74 1987.98 1587.64 1980 1589.74M495 1650C485.804 1634.83 489.006 1661.74 490 1666C448.937 1650.98 486.855 1597.99 516 1595C507.473 1601.92 496.698 1604.76 489 1613C502.282 1605.11 526.015 1588.65 542 1596.6C564.178 1607.64 572.377 1653.27 545.861 1665.6C538.485 1669.04 506.517 1671.86 499.179 1667.74C494.024 1664.84 483.471 1649.25 495 1650M487 1617C483.88 1621.42 481.401 1625.75 480 1631L488 1618L487 1617M276 1646L278 1649L279 1648L276 1646M543 1669C533.304 1681.34 517.743 1687.22 505 1675C516.951 1672.67 530.847 1669.45 543 1669M951.333 1680.67C951.278 1680.72 951.222 1681.78 951.667 1681.33C951.722 1681.28 951.778 1680.22 951.333 1680.67M167 1955.65C147.847 1958.07 129.128 1962.72 110 1965.52C107.375 1965.91 90.6572 1964.61 93.4075 1969.69C98.0255 1978.21 106.447 1971.72 113 1970.32C130.813 1966.53 149.672 1961.53 168 1962.04C180.796 1962.4 194.087 1963.2 206 1968.24C209.872 1969.88 217.299 1978.1 221.429 1976.52C226.812 1974.46 212.716 1965.78 210.997 1964.97C199.516 1959.51 179.752 1954.04 167 1955.65M1255 1999C1261.34 1977.73 1231.82 1972.41 1220.32 1986.02C1208.61 1999.88 1208.87 2038.38 1233.08 2040.21C1244.39 2041.07 1250.5 2029.18 1258 2023C1257.05 2038.45 1255 2053.41 1255 2069C1255 2071.39 1253.9 2083.86 1258.7 2082.92C1259.03 2082.85 1265.51 2058.17 1267 2055C1263.97 2055.18 1262.44 2056.18 1260 2058C1260.03 2039.32 1264.97 2021.8 1267.34 2003.78C1268.07 1998.19 1263.6 1992.52 1266.4 1987.1C1275.64 1969.28 1309.7 1980.5 1316.1 1995.02C1327.55 2020.97 1299.43 2053.5 1276 2029C1279.47 2028.38 1282.51 2028.57 1286 2029C1283.26 2025.32 1271.63 2020.04 1270.79 2028.25C1269.92 2036.74 1284.72 2041.55 1291 2042.59C1319.66 2047.37 1333.97 2004.03 1316.22 1985.22C1312.34 1981.11 1306.92 1978.49 1302 1975.83C1290.34 1969.54 1266.35 1971.64 1260.92 1986C1257.35 1995.46 1261.72 2004.37 1256.37 2014C1252.66 2020.68 1242.18 2035.67 1233 2033.63C1208.59 2028.21 1218.02 1979.61 1241 1986.3C1247.46 1988.18 1250.57 1994.56 1255 1999M863 1984L870 1990C869.775 1985.59 860.223 1969.34 855.481 1977.51C852.497 1982.65 863.191 1999.26 866.279 2003.69C871.857 2011.68 884.351 2014.22 891.313 2021.18C907.25 2037.12 919.279 2056.38 934.339 2072.96C936.581 2075.42 955.263 2092.95 958.239 2086.39C959.695 2083.18 943.422 2073.69 941.085 2071.6C928.465 2060.3 919.337 2043.66 907.88 2031C905.204 2028.04 896.384 2021.06 897.079 2016.62C898.581 2007.01 927.126 1993.06 935 1988.39C937.748 1986.76 950.628 1985.38 947.497 1979.7C943.856 1973.09 923.509 1989.34 920 1991.73C912.718 1996.68 900.267 2009.3 892.001 2010.91C880.554 2013.13 866.045 1992.86 863 1984M156 1977C150.45 1999.27 147.729 2034.25 151.401 2057C154.38 2075.46 169.289 2068.82 172 2054C168.855 2056.2 165.125 2063.36 161.127 2063.36C154.745 2063.36 155.999 2045.88 156 2042C156.004 2027.61 168.864 1986.94 156 1977M494.844 1978.28C489.864 1982.26 500.688 1987.95 503 1989.57C515.444 1998.25 528.469 2006.09 539.078 2016.99C541.388 2019.37 549.627 2027.99 553.592 2023.82C555.665 2021.65 543.597 2012.57 542 2011.02C531.688 2001.01 518.045 1994.97 507.225 1985.46C504.588 1983.14 499.242 1974.77 494.844 1978.28M600 2000C601.297 1981.33 585.598 1986.73 577.183 1997.14C559.686 2018.77 543.072 2044.03 528.779 2067.86C526.812 2071.14 509.806 2092.02 513.53 2092.59C522.627 2093.96 529.756 2075.77 533.376 2070C545.658 2050.44 559.874 2032.23 572.621 2013C576.727 2006.81 582.586 1994.82 590.952 1993.62C594.835 1993.06 597.3 1997.94 600 2000M1990 2070C1989.91 2074.75 1984.21 2095.03 1990.33 2097.24C1990.11 2097.16 2001.03 2064.84 2000.68 2063.03C1999.83 2058.73 1987.27 2065.57 1983.48 2061.67C1977.13 2055.12 1979.96 2039.34 1980 2031C1980.03 2026.4 1986.28 1993.8 1983.71 1993.32C1979.19 1992.48 1977.39 2005.17 1976.83 2008C1974.23 2021.33 1980.04 2048.74 1974.3 2059.5C1971.89 2064.02 1929.3 2068.64 1926.6 2063.79C1919.1 2050.32 1927 2016.67 1927 2001L1932 2003C1931.85 2000.09 1928.99 1987.77 1923.82 1992.89C1921.14 1995.55 1922.37 2004.31 1921.86 2008C1919.73 2023.39 1920.04 2040.46 1920.04 2056C1920.04 2060.58 1919.55 2070.42 1924.28 2072.83C1935.17 2078.38 1955.16 2067.61 1967 2067.08C1974.89 2066.73 1982.3 2070.95 1990 2070M1579 2086C1591.82 2079.54 1604.42 2042.91 1622.04 2042.76C1630.47 2042.69 1650.57 2073.42 1657.55 2079.7C1663.81 2085.34 1664.94 2078.23 1665 2073C1657.08 2073.1 1625.88 2044.19 1629.32 2035.52C1635.18 2020.76 1664.44 2004.4 1676 1993C1654.88 1989.44 1642.39 2033.07 1623.22 2030.8C1618.84 2030.28 1613.48 2021.94 1610.47 2018.92C1607.22 2015.65 1604.25 2012.27 1602.4 2008C1601.77 2006.55 1596.56 1989.45 1593.88 1994.65C1585.07 2011.74 1618.29 2024.48 1616.8 2036.48C1614.57 2054.44 1569.32 2063.46 1579 2086M1269 2005L1269 2010L1271 2010C1270.6 2007.88 1270.2 2006.78 1269 2005z"/>
</svg>
