<?xml version="1.0" standalone="yes"?>
<svg xmlns="http://www.w3.org/2000/svg" width="2200" height="2200">
<path style="fill:#0e0e0e; stroke:none;" d="M1527 279C1534.49 290.37 1563.13 295.179 1576 296C1573.01 301.705 1567.66 305.653 1566 312C1573.98 310.966 1575.97 303.077 1582.7 300.885C1586.7 299.581 1592.82 304.364 1597 305C1595.6 299.107 1587.24 298.557 1586.58 293.656C1585.72 287.261 1598.35 250.799 1603.48 246.9C1607.61 243.762 1615.09 246.76 1619.98 245.436C1626.97 243.546 1631.55 235.799 1635.05 230C1644.08 215.017 1643.05 184.245 1660.13 174.925C1664.69 172.435 1671.92 174.275 1677 173.521C1687.29 171.992 1725.45 159.033 1733.06 167.623C1741.15 176.748 1728.9 211.643 1725.64 222C1723.15 229.937 1723.65 243.951 1718.52 250.461C1716.09 253.538 1709.54 251.702 1705.86 255.149C1686.25 273.537 1651.57 305.855 1622 303.834C1614.77 303.339 1609.53 297.612 1603 295C1608.74 309.067 1626.6 308.993 1639 305.095C1658.73 298.894 1676.64 287.274 1693.02 274.659C1697.51 271.204 1706.72 257.845 1712.91 259.003C1719.13 260.166 1716.16 287.369 1715 293C1712.02 291.036 1709.5 289.696 1706 289C1725.52 309.627 1720.17 285.607 1721 269C1732.18 280.397 1744.65 299.418 1763 290.595C1774.35 285.139 1784.18 272.075 1794 263.957C1795.93 262.359 1803.21 257.399 1799.75 254.097C1797.16 251.622 1780.56 267.942 1778 270.217C1757.64 288.314 1736.85 293.601 1724.52 262C1717.65 244.38 1734.22 206.519 1737.56 188C1738.94 180.37 1742.71 167.203 1736.96 160.519C1733.45 156.431 1725.43 159.633 1721 160.36C1707.24 162.621 1693.71 165.255 1680 167.981C1675.55 168.867 1664.32 171.26 1661.34 166.499C1657.4 160.225 1663.23 145.884 1663.86 139C1666.54 109.935 1681.47 77.864 1679.91 49.0034C1679.6 43.1724 1657.61 18.0513 1651.19 19.9695C1646.05 21.5042 1643.27 30.9575 1640.14 34.9036C1623.79 55.51 1629.6 81.8513 1625 107C1621.94 123.679 1612.54 155.906 1616.44 172C1619.75 185.643 1635.21 202.725 1634.38 217C1633.9 225.22 1623.63 240.265 1615 241.05C1610.7 241.441 1603.52 235.723 1600.03 238.888C1587.49 250.273 1593.93 280.696 1579.4 291.035C1569.33 298.2 1538.59 280.192 1527 279M1668 46C1662.52 46 1645.94 48.7927 1641.97 44.7402C1638.76 41.4685 1649.45 28.7344 1653.07 28.3232C1659.54 27.5881 1666.21 41.0579 1668 46M1278 118C1278.01 100.467 1281.5 83.6313 1278.63 66.0083C1277.61 59.7378 1266.05 54.1287 1261.82 60.8215C1249.71 79.9658 1263.13 116.088 1247 135C1247 116.469 1248.07 98.5046 1245.74 80C1245.27 76.2241 1243.78 64.0029 1238.4 64.0029C1235.89 64.0029 1234 74.783 1233.03 77C1227.06 90.6682 1222.59 107.147 1221.22 122C1220.4 130.826 1219.02 148.211 1213.75 155.491C1210.39 160.128 1203.43 154.793 1202.2 162.071C1197.49 189.933 1193.61 222.025 1192.98 250C1192.85 255.867 1188.47 271.833 1191.32 276.429C1194.14 280.999 1195.86 273.909 1196 272C1203.53 275.139 1220.31 283.446 1228.46 278.523C1232.48 276.092 1228.58 260.448 1232.37 255C1248.43 231.883 1264.7 208.729 1279.84 185C1286.34 174.806 1294.33 158.018 1305 152C1302.76 180.695 1303.31 209.295 1300.32 238C1299.47 246.136 1302.95 259.796 1297.96 266.724C1287.32 281.494 1249.23 276.137 1235 272C1237.55 287.422 1295.92 283.616 1303.22 270.476C1308.31 261.303 1304.29 243.415 1305.22 233C1307.66 205.601 1311.48 176.449 1308.84 149C1307.15 131.397 1299.85 116.326 1301.54 98C1302.77 84.7075 1302.2 71.7712 1298.56 58.9976C1297.77 56.2041 1296.05 46.6978 1291.4 48.1057C1287.78 49.2012 1287.39 62.7012 1287.14 66C1285.98 81.384 1288.74 105.379 1278 118M1665 60C1656.3 60.0818 1651.18 88.7795 1668 88C1663.08 118.32 1660.33 155.568 1646.86 183C1643.41 190.032 1642.29 199.823 1636 205C1618.35 166.312 1627.4 130.01 1633.72 89.3201C1635.45 78.2102 1630.55 63.811 1636.68 53.2917C1641.17 45.594 1666.07 48.3115 1665 60M1617 99C1602.98 104.66 1596.66 118.991 1587.58 130C1574.52 145.85 1559.08 159.75 1542 171C1534.7 141.207 1528.99 112.195 1524.57 82C1524.1 78.7705 1523.07 53.4565 1519.08 54.3232C1515.09 55.1899 1520.13 83.0791 1520.82 87C1524.9 110.156 1526.44 133.037 1532.07 156C1533.25 160.781 1535.86 175.718 1541.4 177.239C1548.34 179.141 1565.37 160.111 1569.9 155.516C1577.04 148.284 1585.08 141.826 1591.59 134C1600 123.897 1611.09 110.583 1617 99M1673 55L1672 59C1671.73 57.0889 1671.94 56.6472 1673 55M1649.93 57.9575C1637.74 57.1277 1637.41 90.4456 1643.14 90.7822C1654.55 91.4524 1658.58 58.5459 1649.93 57.9575M1622.69 59.0859C1602.84 57.3684 1573.03 67.3933 1553 70.9993C1550.48 71.4529 1525.1 71.2085 1531.85 76.7622C1537.45 81.3721 1551.81 76.4434 1558 75.1216C1575.75 71.3276 1595.09 67.7932 1613 65.5542C1615.06 65.2961 1629.85 59.7063 1622.69 59.0859M1294 63C1299.76 74.7893 1297 91.1978 1297 104C1297 117.233 1303.56 133.22 1300.29 145.992C1297.63 156.391 1287.82 165.004 1281.79 173.562C1269.89 190.473 1259.38 208.22 1247.23 225C1239.76 235.311 1230.34 246.705 1224.55 258C1222.47 262.065 1226 270.682 1222.18 273.315C1217.99 276.195 1207.18 271.635 1203.27 269.48C1195.47 265.182 1197.91 256.353 1198.01 249C1198.28 228.81 1205 209.608 1205 189C1205 183.568 1202.61 167.543 1208.49 164.474C1216.12 160.499 1231.31 166.05 1240.72 162.509C1247.29 160.038 1244.33 152.866 1254 153.049C1259 153.143 1276.91 158.148 1279.4 153.606C1282.16 148.574 1279.53 139.718 1280.72 134C1284 118.257 1289.44 102.879 1292.42 87C1293.9 79.1619 1291.44 70.5706 1294 63M1650 64C1649.1 66.6748 1648.42 67.5532 1646 69C1646.36 65.8064 1646.82 64.7366 1650 64M1267.79 66.9695C1274.09 64.1062 1274.94 78.9028 1274.97 82C1275.13 98.1934 1273.59 114.809 1272.91 131.019C1272.76 134.549 1273.67 145.253 1270.36 147.178C1266.46 149.44 1252.17 149.608 1251.43 143.852C1249.45 128.574 1260.53 103.625 1263.44 88C1264.1 84.4287 1264.65 68.4004 1267.79 66.9695M1665 76C1665.53 78.52 1665.01 79.426 1663 81C1663.52 79.1292 1664.06 77.6868 1665 76M1239 78C1243.44 94.3311 1241.51 112.276 1241.99 129C1242.14 134.213 1244.43 143.03 1240.08 147.16C1237.24 149.851 1231.51 148.124 1228 148C1230.58 152.03 1233.3 153.399 1238 154C1236.03 158.359 1221.09 162.981 1219.4 156.616C1217.25 148.573 1223.75 138.376 1225.9 131C1230.76 114.24 1228.37 93.1394 1239 78M1951 177C1953.18 162.631 1957.42 150.883 1966.04 139C1967.08 137.572 1974.36 129.589 1970.47 128.106C1965.92 126.374 1957.55 142.909 1955.62 146C1950.07 154.901 1949.94 175.079 1941.79 180.844C1935.01 185.647 1898.52 188.344 1897.32 195.165C1896.59 199.342 1905.34 196.979 1907 196.562C1910.94 195.573 1942.56 187.42 1943.15 188.331C1944.64 190.665 1941.71 197.446 1941.2 200C1939.55 208.394 1942.7 230.274 1937.18 236.256C1933.41 240.333 1918.72 236.467 1917.78 242.207C1916.88 247.644 1935.71 239.942 1938.6 244.542C1942.72 251.086 1932.81 271.623 1941.25 275.109C1947.58 277.722 1941.8 247.651 1946.54 242.562C1950.85 237.936 1960.26 237.268 1966 235.057C1978.27 230.332 1988.81 221.434 2001 217C2001 231.639 2004.35 257.387 2018.14 265.977C2023.98 269.609 2054.43 270.088 2053.43 258.558C2053.5 259.282 2027.45 263.265 2022.87 261.237C2010.28 255.659 2005.02 232.342 2004.37 220C2003.64 206.106 2026.09 201.192 2036 196.734C2039.54 195.143 2048.9 191.231 2046.13 185.648C2044.52 182.406 2037.8 188.953 2035.98 189.874C2030.79 192.499 2002.66 207.756 2001.28 201.831C1992.63 164.573 2013.63 166.223 2038.44 148.702C2041.34 146.654 2062.61 131.532 2059.01 128.284C2055.41 125.031 2047.3 134.693 2045 136.609C2039.21 141.431 2010.43 162.536 2002.73 158.514C1999.62 156.894 2001.91 149.592 2002.28 147C2004.04 134.763 2006.13 121.908 2009.48 110C2010.04 108.02 2013.52 96.0029 2009 96.0029C2005.58 96.0029 2004.28 108.545 2003.95 111C2002.02 125.514 2001.62 145.569 1995.84 158.973C1991.47 169.097 1961.28 175.072 1951 177M154 97.6362C90.801 100.807 86.0037 192.222 86 241C85.998 267.331 83.7463 303.312 122 302.783C140.706 302.525 159.268 296.785 168.32 279C170.568 274.582 175.443 247.927 179.033 247.081C182.326 246.306 182.374 259.081 182.788 261C186.106 276.404 204.012 299.112 216.641 277.959C234.968 247.263 221.541 195.541 214.219 163C211.684 151.732 207.795 135.536 201.223 126.002C193.016 114.095 169.285 96.8694 154 97.6362M589 256C607.421 240.483 641.187 262.601 617.992 281.654C601.215 295.435 582.533 293.198 563 296.648C547.112 299.454 529.155 306.405 513 300.333C500.123 295.494 484.711 274.182 500.089 263.062C514.333 252.762 527.131 255.09 543 252C538.005 245.535 529.078 248.795 522 248.984C499.241 249.593 479.087 268.349 492.188 290.981C508.81 319.699 581.295 306.969 606 294.939C616.756 289.702 627.547 286.886 631.958 274C635.328 264.153 626.928 248.947 616.999 246.586C608.969 244.676 595.998 240.827 588 241.107C583.321 241.271 574.812 245.601 570.781 242.1C565.173 237.23 569.069 224.463 567.992 218C565.556 203.367 561.781 181.719 564.714 167.026C565.615 162.513 570.315 160.267 571.795 155.941C576.115 143.31 573.705 131.511 571.459 119C570.553 113.952 572.253 107.858 567.716 104.236C556.689 95.4331 527.568 99.6304 520.393 112.593C518.926 115.245 519.68 124.554 519.441 128C518.367 143.521 533.371 150.98 539.381 163C546.445 177.13 549.694 211.988 548.921 228C547.842 250.381 544.099 259.765 528.247 272.604C524.753 275.434 522.479 279.845 525.53 283.815C536.247 297.758 555.928 289.799 566.922 281.864C568.955 280.397 575.195 279.06 575.823 276.535C577.603 269.384 565.826 260.031 569.958 250.491C574.653 239.651 590.889 243.477 589 256M99 187C114.782 225.742 174.781 205.63 193.417 180C209.889 157.346 189.8 137.796 168 134.314C159.456 132.949 150.377 134.912 142 136.5C126.825 139.376 117.24 151.508 103 156C108.713 111.733 153.254 88.1316 188.922 119.488C215.666 143 218 203.772 218 237C218 250.066 219.24 264.693 211.033 275.93C194.475 298.605 186.435 245.003 183.686 238C182.677 235.43 180.497 225.222 176.281 226.081C174.313 226.483 172.728 245.122 172.192 248C169.036 264.936 162.711 285.113 145.922 293C140.379 295.603 135 295.896 129 296.018C84.5354 296.922 89.9087 252.148 93.6866 220C94.7832 210.669 93.046 194.41 99 187M566 114C560.793 113.846 556.942 114.962 551.922 115.748C549.331 116.154 546.614 116.021 544 115.992C517.158 115.694 560.683 91.2588 566 114M989 131C998.771 139.312 1004.01 157.553 1010 169C992.075 166.621 976.585 170.77 959 169.921C938.748 168.945 912.702 163.873 893 167.577C888.577 168.408 879.506 169.046 876.174 172.219C872.307 175.902 873.903 186.032 866.873 186.447C855.904 187.095 831.227 172.858 821 167.725C817.172 165.804 807.868 159.64 803.501 161.598C799.136 163.556 800.168 175.992 799.866 180C798.433 199.01 801.333 217.959 798.573 237C797.942 241.352 791.431 255.709 794.87 258.74C808.057 270.365 848.9 247.011 858.997 238.876C862.182 236.31 872.501 221.89 876.517 223.786C879.98 225.42 877.994 234.054 877.681 237C876.911 244.234 870.167 273.271 877.685 277.603C880.741 279.363 885.987 275.878 889 275.023C913.236 268.141 905.332 254.02 919.364 238.737C922.959 234.821 932.858 242.705 938.396 237.937C943.05 233.929 937.982 222.47 946.07 222.487C949.852 222.495 970 225.704 970.844 229.499C971.906 234.276 964.617 243.261 963.118 248C958.561 262.408 958.707 278.819 967.062 291.93C972.241 300.056 987.452 296.817 995.999 297.01C1001.88 297.144 1005.33 303.882 1010.11 303.108C1030.09 299.87 1037.09 270.533 1037.98 254C1038.39 246.419 1029.89 211.932 1022 233C1031.39 229.62 1034.06 241.311 1033.82 249C1033.34 264.638 1028.74 283.034 1017 294C1013.98 284.938 1001.82 285.969 999.531 272C995.913 249.958 1012.48 224.302 1031.18 215.601C1038.17 212.352 1048.74 218.285 1055.13 212.818C1060.93 207.859 1053.24 198.904 1057.18 193.822C1064.36 184.56 1081.65 198.645 1084 183C1075.01 190.468 1056.61 184.287 1046 185.323C1043.51 185.566 1033.92 187.665 1033.08 183.783C1032.31 180.222 1042.19 180.931 1044 180.79C1047.95 180.482 1083.26 185.384 1082.21 179.217C1081.55 175.322 1067.97 176.99 1065 176.68C1056.32 175.774 1044.18 178.068 1036.15 175.499C1032.66 174.383 1032.6 170.175 1029.51 168.997C1024.84 167.219 1020.15 171.507 1015.42 167.957C1002.45 158.236 1001.39 120.164 984.965 115.106C980.448 113.715 983.773 124.381 984.063 126C986.232 138.121 989.104 177.429 988.998 143C988.986 138.994 988.822 135.002 989 131M558 247C574.922 255.488 556.575 282.974 548.84 267.343C545.253 260.093 553.558 237.013 553.915 228C555.02 200.023 548.085 167.087 532.283 146C526.256 137.958 523.432 132.452 532 126C529.457 125.636 523.565 122.245 528.524 119.897C532.028 118.238 562.498 119.295 564.96 121.822C570.298 127.302 568.906 142.299 567.24 148.999C565.696 155.21 557.889 158.216 557.406 164.05C555.679 184.925 573.607 230.735 558 247M156 140.554C178.445 139.64 208.895 152.245 187.374 178.783C176.039 192.76 154.053 201.709 136.258 202.716C115.652 203.881 91.5664 186.681 106.325 164.22C115.994 149.504 139.167 141.239 156 140.554M800 254C804.495 231.713 805 211.695 805 189C805 184.674 802.98 169.719 809.277 168.863C819.047 167.536 843.598 180.672 852 185.877C856.196 188.477 866.377 195.676 871.579 194.105C875.788 192.835 876.845 183.463 878.777 180.022C882.342 173.673 889.176 171.948 896 171.239C917.763 168.977 941.751 176.382 964 174.827C980.987 173.639 1007.21 166.01 1023.5 174.822C1028.09 177.306 1024.56 184.718 1027.3 188.499C1032.3 195.393 1059.57 186.98 1049.06 206.517C1045 214.072 1033.19 205.4 1027.62 209.115C997.84 229.004 968.585 215.403 935 214.38C924.166 214.051 914.063 219.479 903 218.922C894.836 218.511 882.466 213.453 875.137 214.493C867.998 215.507 859.2 232.545 853.04 237.328C837.523 249.374 819.264 253.317 800 254M1990.93 170.534C1996.55 169.86 2000.53 203.975 1998.14 209.696C1993.43 220.978 1958.87 235.158 1947.15 235.484C1941.2 235.65 1943.9 226.622 1944.31 223C1945.72 210.792 1944.35 196.622 1950.14 185.263C1954.42 176.854 1982.01 171.603 1990.93 170.534M1230.96 178.586C1214.78 178.386 1213.93 219.359 1221.07 219.93C1242.2 221.621 1240.15 178.699 1230.96 178.586M917 195C924.371 195.004 931.634 196.07 939 195.992C943.946 195.94 948.247 194.847 953 193.634C955.968 192.876 958.986 192.491 962 191.979C963.713 191.689 976.172 187.921 971.071 184.423C968.239 182.481 961.061 186.521 958 187.17C948.847 189.111 919.935 187.329 917 195M1227.35 184.106C1231.3 182.819 1232.93 211.404 1225.75 213.429C1219.51 215.185 1223.6 185.329 1227.35 184.106M1005.92 199.941C1000.53 200.03 969.7 204.796 971.892 206.208C978.183 210.262 1000.41 208.726 1006.82 205.201C1010.01 203.448 1010.08 199.873 1005.92 199.941M932.852 220.613C939.634 221.201 937.562 236.15 930.894 235.384C919.436 234.069 921.276 219.608 932.852 220.613M887.206 223.84C922.773 208.586 919.709 258.024 896 267.844C875.381 276.385 881.458 255.893 882.147 242C882.405 236.805 881.368 226.344 887.206 223.84M1008 224C1004.34 238.487 994.614 250.051 994.097 266C993.795 275.316 998.808 283.041 1000 292C992.625 290.694 978.151 294.168 972.508 289.259C957.935 276.584 965.496 239.279 979.185 228.685C986.31 223.172 999.475 224 1008 224M888 241C890.392 240.165 892.641 239.055 895.011 238.174C916.856 230.052 887.355 227.801 888 241M1013 251.544C1007.71 253.91 1007.53 269.25 1014.75 265.574C1019.39 263.206 1018.08 249.276 1013 251.544M891.003 251.568C878.587 254.243 889.152 258.839 896.849 256.676C904.857 254.425 895.315 250.639 891.003 251.568M563 275C558.376 286.98 544.275 286.434 534 284C537.673 278.377 542.277 278.261 548 281C546.68 278.996 545.751 277.274 545 275C551.132 275.012 556.906 275.838 563 275M458 556C447.152 552.52 447.457 571.189 446.32 579C443.344 599.439 439.05 620.285 439.001 641C438.993 644.161 437.114 659.859 441.217 660.677C444.128 661.257 445.19 630.003 445.698 626C446.755 617.652 446.965 609.292 448.363 601C450.433 588.72 452.363 576.335 454 564C455.112 565.541 459.216 574.331 461.8 571.214C466.28 565.811 461.44 545.555 462.897 538C468.72 507.805 463.292 475.613 466.107 445.003C466.945 435.895 477.199 433.598 478 422L481 422C481.026 434.383 491.749 429.917 492.978 439.051C497.056 469.36 491 503.25 491 534C491 539.268 485.508 567.447 489.438 569.456C493.081 571.318 504.432 545.872 509 543C507.052 573.515 495.676 603.042 494.179 633.997C493.774 642.371 497.209 663.966 491.178 670.197C486.509 675.021 475.021 672.771 469 673.078C448.354 674.129 427.649 677.69 407 676.134C404.528 675.947 380.95 673.587 383.969 679.319C385.738 682.674 395.846 680.918 399 681.078C415.187 681.898 429.913 680 446 680C471.789 680 497.237 674.168 523 675.04C564.415 676.443 604.275 683.882 646 680.118C663.65 678.525 680.639 676.336 698 674.236C701.846 673.771 715.38 674.329 716.214 668.869C716.913 664.294 706.897 667.37 705 667.642C692.011 669.503 680.219 672.75 667 673.019C623.506 673.902 581.411 677.192 538 671.139C530.187 670.05 506.284 672.861 500.822 668.7C496.839 665.666 498.954 644.273 499.008 639C499.335 606.957 509.908 576.524 512.782 545C514.897 521.798 501.375 545.201 495 551C496.028 521.998 497.996 492.986 498 464C498.001 454.806 501.986 441.75 499.178 433.037C497.23 426.993 490.358 428.876 487.744 423.791C485.216 418.875 488.389 392.003 480.941 392.003C475.586 392.003 474.255 421.754 471.796 426.861C469.149 432.361 461.801 432.668 460.008 439.043C457.323 448.584 461.305 463.706 460.96 474C460.042 501.349 458 528.609 458 556M645 673C652.448 641.122 653.079 600.785 653.001 568C652.941 542.681 652 517.416 652 492C652 471.981 653.955 450.673 649.657 431C648.465 425.543 647.21 414.291 641.414 411.556C634.404 408.248 618.048 415.837 610 415.844C603.83 415.85 582.478 410.999 578.259 415.862C574.432 420.272 574.045 436.046 573.147 442C568.502 472.794 580.318 504.154 574.93 533.978C572.619 546.77 554.023 539.193 546.84 545.26C541.895 549.435 544.718 573.343 544.118 580C542.168 601.616 540 623.276 540 645C540 648.696 537.907 663.073 541.692 665.031C547.09 667.821 545 637.509 545 634C545 613.896 547.376 593.941 549.672 574C550.393 567.738 548.153 559.022 550.822 553.244C555.052 544.083 584.927 544.843 591.499 550.861C596.685 555.61 594.693 567.658 595.136 574C596.704 596.429 593.546 621.509 591.323 644C590.946 647.811 588.041 671.997 592.14 671.997C596.248 671.997 595.929 659.697 595.981 657C596.326 639.221 596.804 621.803 598 604C599.209 585.997 599.571 569.066 597.893 551.003C596.823 539.484 581.53 546.37 580.501 537.852C577.227 510.738 574.19 476.266 577.569 449C578.291 443.179 579.173 426.018 583.819 422.26C589.44 417.712 605.962 421.362 613 420.864C619.281 420.419 632.99 415.243 638.495 418.345C650.175 424.927 646 455.981 646 467C646 515.552 650.913 564.853 645.438 613C644.151 624.319 635.737 666.301 645 673M1961 643C1948.42 646.305 1945.45 662.647 1934.6 667.112C1930.09 668.965 1923.23 659.908 1923 656C1922.54 647.883 1932.79 635.413 1935 627C1922.61 635.564 1903.97 673.938 1933 674.277C1946.1 674.43 1952.34 648.102 1963.47 644.057C1972.19 640.89 1988.98 648.617 1999 647.861C2024.37 645.949 2049.21 633.858 2070 620C2073.16 634.571 2087.23 656.756 2068 662.36C2064.75 663.307 2060 666.372 2056.78 664.021C2049.03 658.371 2048.39 644.3 2041 638C2040.17 645.38 2047.39 668.413 2055.26 670.994C2059.81 672.485 2066.61 668.015 2071 666.857C2074.99 665.803 2081.16 666.422 2083.74 662.539C2091.78 650.45 2073.18 629.992 2075.66 617C2076.94 610.281 2085.55 603.679 2089.36 597.962C2098.37 584.438 2106.68 567.422 2107.86 551C2109.37 530.127 2092.65 517.219 2086.88 499.32C2083.97 490.311 2086.01 477.866 2083.22 468C2082.01 463.72 2083.76 444.014 2081.52 442.903C2077.49 440.909 2075 448.754 2073.36 450.998C2069.07 456.874 2055.65 470.789 2048.14 471.695C2038.42 472.867 2022.18 463.449 2011 463.097C1974.06 461.934 1940.92 482.401 1921 512C1906.6 493.899 1887.97 482.466 1878.67 460C1875.49 452.326 1871.94 438.861 1883.14 435.504C1901.17 430.097 1917.71 461.188 1924.89 473C1925.66 474.253 1934.63 487.758 1935.74 483.351C1936.89 478.762 1928.89 469.738 1926.56 466C1919.08 454.037 1889.9 413.508 1872.94 436.42C1852.32 464.271 1907.84 498.46 1918.1 515.823C1920.7 520.215 1916.02 527.666 1914.66 532C1911.46 542.188 1910.35 555.352 1911.25 566C1914.31 602.329 1935.6 620.905 1961 643M124 659C137.94 649.32 169.842 648.654 187 651.401C194.1 652.537 211.35 659.873 216.958 653.278C225.157 643.634 218.422 607.13 217.21 595C213.545 558.323 214.075 524.714 202.641 489C195.767 467.529 183.845 448.968 159 448.511C145.124 448.256 135.744 482.673 131 493C113.851 530.331 108 569.205 108 610C108 623.527 105.983 638.888 110.324 651.911C113.529 661.525 122.102 651.694 124 659M141 568C149.037 574.924 149.81 587.8 159 593C157.267 580.822 142.981 568.869 143.218 557.177C143.321 552.088 150.19 545.884 151.317 540C152.195 535.414 151.896 528.861 146.815 526.748C140.696 524.204 133.901 533.221 131.928 538C127.991 547.537 118.312 584.053 124.466 593.214C127.198 597.281 129.512 587.257 129.669 586C130.19 581.815 133.286 546.199 136.399 555.177C144.555 578.696 126.355 609.732 124 633C123.682 636.142 122.194 656.728 115.041 647.653C109.014 640.007 113 618.399 113 609C113 567.975 120.307 530.55 137.118 493C145.773 473.667 150.68 446.581 176.997 457.723C189.434 462.988 195.87 482.013 199.555 494C210.449 529.434 208.334 564.643 212.096 601C212.852 608.304 217.787 644.51 212.176 648.662C206.16 653.115 191.591 645.578 185 645.097C171.324 644.099 156.563 646.392 143 648.132C139.622 648.565 130.686 649.833 128.555 646.181C126.734 643.059 129.029 633.629 129.438 630C129.807 626.727 128.676 618.493 131.174 616.106C135.176 612.281 147.168 642.498 155.211 638.837C157.166 637.947 145.86 626.235 144.44 624C133.737 607.158 140.308 587.525 141 568M2083 495C2079.04 493.872 2051.76 482.234 2051.32 479.476C2050.7 475.562 2072.26 456.881 2075.2 458.544C2081.2 461.939 2082.87 488.498 2083 495M1666 468C1683.3 467.929 1701.66 466.338 1719 464.783C1724.66 464.275 1736.56 462.204 1741.06 466.821C1746.57 472.488 1741.7 498.309 1740.9 506C1737.37 540.125 1736.98 574.256 1729.66 608C1727.77 616.713 1729.77 634.762 1720.9 639.616C1701.91 649.997 1674.06 638.452 1655 635.401C1642.53 633.404 1626.65 636.894 1614 637.963C1605.74 638.661 1586.01 646.188 1579.9 637.635C1575.96 632.12 1579.99 615.817 1580 609C1580.03 579.356 1583.74 547.906 1590.5 519C1592.39 510.926 1592.43 490.579 1601.2 486.58C1608.38 483.305 1617.65 488.685 1625 488.725C1636.42 488.787 1646.75 483.154 1658 483.008C1661.71 482.959 1677.75 482.672 1678.68 477.753C1679.64 472.653 1661.61 478.063 1659 478.05C1647.05 477.993 1636.08 483.402 1624 482.914C1615.9 482.587 1602.84 477.615 1595.35 482.26C1587.66 487.022 1586.94 509.672 1585.12 518C1578.58 547.888 1575.86 578.575 1574.67 609C1574.31 618.132 1570.33 632.982 1573.5 641.576C1576.64 650.08 1601.47 644.851 1608 644.103C1639.66 640.476 1669.12 649.525 1700 646.783C1707.18 646.145 1724.96 648.325 1729.43 641.716C1735.24 633.125 1731.95 621.567 1733.9 612C1740.85 577.935 1740.65 544.105 1744.94 510C1746.41 498.374 1752.04 475.1 1747.18 464.206C1744.67 458.589 1734.16 459.485 1729 459.137C1716.21 458.274 1672.96 456.236 1666 468M1187 602C1199.09 603.653 1212.27 594.708 1224.97 594.835C1231.13 594.897 1229.32 603.357 1233.03 603.357C1237.34 603.356 1235.7 586.676 1246.45 592.823C1250.39 595.076 1245.96 604.656 1245.22 608C1242.35 620.958 1239.74 634.807 1238.32 648C1237.92 651.71 1239.04 660.565 1234.54 662.235C1230.25 663.826 1223.42 658.108 1219 657.382C1212.22 656.268 1201.25 659.57 1195.37 655.616C1188.91 651.275 1196.25 628.583 1196.88 622C1197.01 620.612 1198.41 603.2 1193.35 608.929C1189.35 613.46 1184.61 656.04 1188.83 659.781C1194.8 665.076 1209.52 661.362 1217 662.905C1222.11 663.961 1235.67 671.553 1240.14 668.643C1246.74 664.346 1246.68 632.085 1247.86 624C1248.89 616.907 1256.6 596.328 1252.72 590.501C1249.04 584.977 1238.77 592.054 1236.5 585.708C1231.94 572.934 1238.82 556.742 1239.86 544C1240.51 535.953 1237.77 526.845 1238.9 519.145C1239.71 513.621 1248.85 513.865 1253 513.043C1260.77 511.507 1275.61 505.233 1283 508.543C1284.96 509.421 1292.41 516.995 1294.46 513.931C1296 511.625 1290.12 505.995 1289 504C1298.24 504 1317.35 501.409 1324.04 509.736C1327.35 513.855 1324.21 526.855 1323.92 532C1323.07 547.095 1317.65 561.867 1316.21 577C1315.43 585.345 1315.97 600.235 1312.18 607.594C1309.24 613.308 1300.42 607.156 1298.47 615.07C1295.54 626.931 1288.99 652.07 1289.59 663.834C1289.84 668.878 1297.68 667.049 1301 666.995C1310.82 666.836 1336.67 671.787 1344.49 666.74C1355.53 659.619 1355.86 599.335 1343 604C1341.46 573.834 1342.77 543.33 1340.79 513.022C1340.44 507.703 1347.85 505.726 1346.89 501.821C1345.89 497.715 1340.56 496.516 1338.78 492.805C1334.86 484.646 1330.22 478.171 1326.49 471.222C1325.48 469.334 1327.68 464.836 1325.28 463.761C1322.64 462.586 1315.52 474.026 1312.78 475.498C1305.32 479.514 1286.84 476.797 1278 477.348C1263.4 478.258 1250.46 482.578 1235.22 482.055C1231.2 481.917 1223.42 476.754 1220.38 480.664C1214.13 488.724 1221.5 509.021 1222.7 518C1224.9 534.443 1220.54 567.823 1216.47 583.992C1213.44 596.036 1194.22 592.724 1187 602M2063 500C2060.59 494.808 2055.93 491.432 2054 486C2098.12 493.677 2110.85 550.021 2091.48 584.001C2086.65 592.469 2082.61 602.151 2073 606L2072 602C2067.51 606.192 2069.55 611.396 2065.69 615.632C2056.93 625.251 2041.2 631.737 2029 635.521C2008.54 641.868 1989.33 646.38 1968 639.977C1924.49 626.914 1904.69 565.254 1920.52 526C1935.03 490.032 1970.49 466.714 2010 468.577C2017.44 468.928 2034.69 469.517 2040.57 473.932C2050.2 481.164 2051.27 494.826 2063 500M1296 499C1299.6 492.239 1316.12 472.784 1325.49 479.267C1329.07 481.742 1327.56 500.362 1323.4 501.92C1317.68 504.057 1302.93 499 1296 499M1302.35 481.134C1305.21 482.445 1287.9 503.549 1279.09 500.041C1251.61 489.109 1288.74 474.898 1302.35 481.134M1251 487C1244.64 497.127 1236.71 503.992 1225 505C1224.82 485.521 1230.73 483.758 1251 487M1258.98 487.318C1263.31 486.84 1274.35 498.705 1271.61 502.999C1268.58 507.74 1248.53 510.481 1243.07 510.694C1232.82 511.093 1252.98 487.98 1258.98 487.318M1333 488C1340.11 506.373 1324.97 500.834 1333 488M1684 508C1638.54 475.536 1595.86 552.649 1611.58 590C1629.93 633.568 1695.95 612.108 1705.24 574C1708.8 559.402 1707.18 539.279 1699.7 526.001C1696.42 520.181 1680.6 514.254 1684 508M1330 508C1340.5 508.759 1336.99 523.19 1337 531C1337.02 553.784 1346.44 583.534 1337.51 605.494C1335.98 609.248 1320.91 610.848 1319.28 606.697C1316.21 598.85 1320.36 585.112 1321.46 577C1322.64 568.262 1324.63 559.695 1326 551C1328.16 537.172 1332.43 522.02 1330 508M1659 508.346C1712.84 503.237 1716.27 603.268 1665 607.879C1649 609.318 1625.11 603.884 1616.36 588.992C1598.92 559.282 1627.15 511.369 1659 508.346M1946 514L1946 510C1933.47 516.387 1934.22 538.224 1951 536.392C1970.86 534.224 1962.92 514.002 1946 514M2056.2 510.951C2047.63 514.743 2054.44 533.585 2062.77 530.475C2074.18 526.214 2066.99 506.182 2056.2 510.951M1992.2 513.814C1946.1 528.391 1971.67 601.868 2019.92 586.094C2047.1 577.209 2052.22 534.622 2031.98 517.244C2024.61 510.912 2001.36 510.916 1992.2 513.814M1229 514C1242.9 519.507 1231.98 561.038 1230.57 572C1230.01 576.356 1232.34 584.867 1229.84 588.394C1220.28 601.878 1222.17 567.192 1222.57 564C1223.4 557.334 1224.05 550.654 1225 544C1226.44 533.929 1229 524.198 1229 514M2058.65 515.106C2063.01 513.641 2065.26 523.891 2060.7 524.677C2056.87 525.336 2055.02 516.321 2058.65 515.106M1997 517.411C2004.69 516.477 2022.71 515.492 2028.86 520.149C2054.52 539.59 2034.89 580.326 2007 583.742C1968.55 588.452 1959.66 521.952 1997 517.411M1941 521C1944.37 520.502 1947.63 518.771 1951 518.542C1966.54 517.481 1944.68 545.652 1941 521M144.417 531.786C150.568 534.084 146.216 550.26 138.303 546.493C132.344 543.657 138.808 529.691 144.417 531.786M2019.97 536.789C2007.66 539.159 2005.85 562.601 2020 559.406C2032.54 556.575 2027.94 535.257 2019.97 536.789M1989.9 539.761C1981.61 542.071 1980.78 562.679 1990.94 560.572C2000.08 558.677 1997.58 537.621 1989.9 539.761M2017.43 542.969C2022.53 540.896 2024.4 552.264 2018.9 554.031C2012.31 556.147 2012.81 544.844 2017.43 542.969M1674 543.696C1659.27 546.687 1655.47 577.655 1671.92 573.907C1684.44 571.056 1691.15 540.213 1674 543.696M1989 545C1999.71 549.404 1985.28 563.204 1989 545M1675.47 548.294C1681.48 547.676 1677.91 567.752 1670.18 567.894C1661.28 568.058 1667.95 549.066 1675.47 548.294M1633 550.746C1620.86 554.362 1621.03 578.462 1634.77 575.189C1646.37 572.428 1644.95 547.187 1633 550.746M1633.99 556.323C1640.75 555.472 1638.57 568.905 1633.14 569.677C1626.8 570.578 1627.85 557.097 1633.99 556.323M933 596C940.923 605.794 958.702 593.219 965.953 601.932C968.446 604.928 965.718 610.663 965.239 614C964.016 622.526 964.277 650.597 956.539 655.315C951.366 658.469 930.2 659.823 930.451 650.949C930.667 643.302 934.998 634.744 936.245 627C936.547 625.123 939.741 605.559 934.479 608.544C930.343 610.89 931.519 623.741 930.717 628C929.346 635.281 921.866 651.73 924.237 658.499C925.953 663.397 958.993 664.289 962.781 660.74C971.164 652.885 968.912 623.019 971.225 612C971.983 608.388 975.641 600.226 972.16 597.259C962.888 589.356 943.55 595.979 933 596M1962 600C1960.51 621.043 1998.79 636.453 2016 632.172C2019.91 631.201 2039.3 625.438 2038.57 620.477C2037.9 615.874 2025.06 622.314 2023 623.228C1993.92 636.103 1983.64 613.284 1962 600M1339.98 609.781C1350.39 606.854 1350.51 658.867 1337.95 663.041C1333.77 664.429 1297.15 663.925 1295.14 661.178C1293.15 658.464 1296.31 653.584 1297.34 651C1300.77 642.346 1298.99 623.327 1304.26 616.819C1308.25 611.89 1333.11 611.712 1339.98 609.781M876 618.439C865.156 619.621 847.223 617.36 838.325 624.796C833.046 629.207 832.317 656.759 839.559 660.031C842.165 661.209 846.166 656.515 849.05 656.147C859.347 654.835 871.824 659.756 881.576 657.281C887.947 655.664 891.524 616.747 876 618.439M872.989 624.35C884.607 623.597 881.219 651.8 873.871 652.377C867.266 652.896 850.178 654.011 844.284 651.178C838.974 648.626 838.286 632.683 842.604 629.042C849.454 623.266 864.607 624.893 872.989 624.35M2041 803.544C2037 804.115 2037.81 811.255 2041.7 810.559C2045.08 809.956 2044.82 803.001 2041 803.544M133 895C136.03 895.654 138.902 895.939 142 896C139.038 891.951 133.962 891.049 131 887C139.635 889.369 145.494 887.671 154 886C149.672 908.075 147.017 937.622 160.82 956.992C168.693 968.041 198.374 991.964 202 964C175.958 982.119 157.869 947.936 155.236 924C153.945 912.261 154.967 898.48 157.623 887C162.732 864.918 198.594 814.272 156 804.565C151.343 803.503 145.739 803.69 141.003 804.158C120.187 806.217 113.371 835.172 110.519 852C106.772 874.101 120.323 877.665 126.436 895.078C135.297 920.317 138.612 947.532 147.33 973C151.135 984.114 155.589 995.903 161.667 1006C162.828 1007.92 167.806 1015.34 170.895 1012.59C171.913 1011.69 158.511 988.329 157.067 985C145.562 958.463 135.806 923.857 133 895M123 881C101.506 873.596 120.335 818.007 135.001 810.974C149.651 803.948 170.985 812.12 169.882 830C169.475 836.587 168.561 843.55 167.163 850C165.352 858.36 162.052 867.969 157.001 874.93C148.955 886.019 123.511 878.258 123 881M1535 957C1542.91 955.868 1541.92 944.192 1545.06 938C1552.64 923.054 1566.66 905.654 1583 900.027C1586.19 898.929 1599.11 895.296 1601.46 899.142C1602.81 901.344 1599.21 909.11 1599 912C1603.41 909.368 1605.02 901.55 1610.1 900.699C1626.49 897.955 1640.06 928.384 1644.43 940C1645.87 943.807 1647.91 955.718 1653.07 956.075C1661.1 956.631 1666.94 936.616 1669.28 931C1681.29 902.11 1697.26 874.333 1708 845C1744.98 878.56 1770.73 909.254 1780 959C1784.3 951.532 1780.49 941.896 1779.21 934C1773.83 900.727 1750.29 881.118 1727.99 858.599C1724.89 855.469 1708.14 831.643 1706.82 831.643C1702.09 831.643 1705.3 840.976 1706 843C1695.65 845.647 1692.37 872.352 1684 880C1681.32 860.816 1664.72 840.011 1653.33 825.001C1649.22 819.597 1643.07 807.065 1635.64 814.034C1614.04 834.302 1623.72 869.586 1606.7 890.458C1603.12 894.845 1583.59 893.185 1577 896.26C1554.58 906.718 1538.12 933.506 1535 957M1639.04 818.969C1647.61 816.594 1657.35 837.391 1661.38 843C1667.88 852.064 1682.99 873.631 1682.75 885C1682.55 894.987 1671.06 910.01 1667.67 920C1665.8 925.501 1660.49 947.585 1653.94 948.677C1651.88 949.019 1640.26 919.696 1637.86 916.001C1632.53 907.792 1614.7 900.182 1612.05 892.656C1610.24 887.521 1614.52 879.793 1616.11 875C1620.23 862.606 1624.22 823.072 1639.04 818.969M2031 827C2034.88 842.98 2048.51 881.482 2022.2 890.495C2012.81 893.713 2011.56 883.51 2012.07 877C2012.8 867.78 2027.55 850.317 2025.85 850.51C2003.47 853.04 2010.77 881.996 2008.65 895C2005.96 911.422 1989.5 929.985 1982.25 945.007C1977.87 954.068 1977.19 965.425 1971.48 973.812C1967.41 979.788 1954.35 976 1948 976C1924.65 975.998 1900.89 976.25 1898.33 1006.84C1897.78 1013.38 1905.72 1006.16 1907.06 1004.15C1910.86 998.486 1908.62 991.53 1914.92 985.324C1920.47 979.852 1956.72 977.045 1961.74 984.483C1966.5 991.537 1958.98 1010.13 1957.73 1018C1957.41 1019.98 1954.96 1028 1959.07 1028C1967.04 1028 1984.11 998.041 1990 992C1990.93 999.689 1983.48 1022.81 1988.27 1028.11C1991.96 1032.19 1998.89 1022.23 2000.81 1020C2010.9 1008.31 2015.89 993.444 2026 982L2026 998C2026 1052.61 2057.66 976.722 2071 964C2067.88 976.686 2068.73 989.203 2066.35 1002C2065.55 1006.3 2060.81 1013.28 2062.12 1017.49C2063.14 1020.75 2068.73 1019.95 2071.08 1019.02C2078.03 1016.27 2103.98 982.844 2101.53 982.017C2094.53 979.657 2075.73 1008.99 2068 1013C2073.27 996.942 2071.5 980.909 2076.44 965C2077.16 962.684 2079.9 951.523 2073.99 953.625C2050.91 961.838 2050.24 1003.42 2030 1015C2030.09 1010.06 2035.6 971.236 2027.95 972.323C2014.36 974.258 2005.52 1010.13 1993 1018C1993.88 1012.75 2001.25 984.408 1993 983.323C1986.28 982.441 1968.38 1009.67 1964 1015C1961.86 1000.27 1971.34 986.634 1977.3 974C1988.05 951.208 1993.92 921.802 2010.77 902.148C2017.69 894.066 2028.67 897.023 2035.19 886C2044.6 870.086 2050.39 837.706 2031 827M544 855C552.385 853.144 557.618 845.104 566 842.405C579.601 838.025 594.066 841 608 841C605.082 833.852 594.599 835.006 588 835C571.686 834.985 550.499 836.784 544 855M489 1010C474.46 971.996 501 928.409 501 890C512.614 901.155 517.993 923.703 525.521 938C534.771 955.567 554.378 970.326 561.623 988.001C567.085 1001.33 565.49 1021.44 569.012 1036C570.378 1041.65 581.617 1084.85 591 1063C573.051 1066.44 572.722 1025.4 569.874 1013C568.644 1007.65 565.018 999.932 566.512 994.391C566.717 993.631 591.358 997.979 596.842 994.101C607.797 986.354 605.22 935.112 633.903 958.524C638.92 962.619 640.721 969.352 646 973C644.255 960.479 633.907 947.029 620.007 949.409C615.382 950.201 606.12 958.066 601.995 954.276C596.06 948.824 594.371 933.465 591.118 926C578.449 896.927 560.656 870.532 526 868C529.34 875.642 544.987 876.37 552 880.395C563.475 886.981 572.718 899.375 578.577 911C588.569 930.826 595.716 951.104 599.726 972.137C601.505 981.464 594.384 993.259 584 992.446C566.902 991.108 551.881 971.343 543.785 958.019C523.732 925.013 498.001 886.108 498 846C484.253 852.098 501.467 874.896 500.45 885C497.264 916.682 482.077 946.672 482.001 979C481.98 987.783 477.967 1007.41 489 1010M898 863C901.895 876.26 887.756 890.418 880.22 901C864.922 922.485 850.604 944.018 833.28 963.997C826.051 972.334 813.147 978.622 808 988C822 987.085 833.703 971.733 842.313 962C866.223 934.969 881.13 897.165 906 872C910.119 898.075 901.47 939.913 891.799 964C890.172 968.052 876.717 991.906 879.891 994.178C895.524 1005.37 928.989 982.137 947 986C930.683 1013.84 889.353 1068.49 850 1052.34C832.503 1045.16 818.377 1030.16 813.757 1012C813.256 1010.03 811.862 995.741 808.674 997.625C804.094 1000.33 809.243 1012.4 810.229 1016C814.924 1033.13 830.607 1049.64 847 1056.83C888.519 1075.02 943.277 1013.99 956.221 979.783C959.054 972.294 955.971 959.166 956 951C952.202 952.573 949.429 961.357 946.161 961.357C941.972 961.357 944.613 949.169 940.06 950.761C934.565 952.682 931.736 966.69 927 971C925.265 953.003 917.788 976.325 911.618 974.357C908.159 973.253 906.817 962.162 901.918 964.544C899.6 965.671 889.609 993.229 886.729 988.788C884.185 984.863 897.221 964.633 898.938 960C904.33 945.454 899 914.578 909.604 902.782C911.933 900.191 922.093 906.069 922.185 909.243C922.392 916.416 915.88 934.849 913 942C923.865 937.866 920.027 923.851 924.905 915.026C926.106 912.853 931.811 908.32 930.457 905.677C928.545 901.947 915.157 902.088 916.199 896.581C917.371 890.392 932.165 899.992 933.898 895.199C939.076 880.876 921.533 876.397 914.465 870.094C912.072 867.96 911.364 862.148 908.454 861.081C905.95 860.163 900.905 862.929 898 863M514 865C516.721 867.964 520.099 868.554 524 869C521.242 866.083 517.912 865.381 514 865M2028 872C2028.77 861.411 2020.89 869.499 2028 872M911 874C926.827 882.477 926.353 890.193 909 893C909.814 886.858 909.026 879.826 911 874M1179 955C1184.16 955.536 1201.7 957.958 1204.86 961.821C1207.66 965.251 1205.09 998.78 1202.04 1001.78C1199.01 1004.76 1191.02 1004.46 1187 1005C1189.17 1001.43 1192.05 998.912 1195 996C1187.46 996.434 1179.39 1003.99 1174 1009C1182.92 1012.64 1194.72 1004.31 1202.58 1008.48C1212.68 1013.85 1213.94 1040.02 1225.08 1048.53C1229.95 1052.26 1236.46 1057.6 1241 1051C1226.17 1049.17 1207.24 1024.68 1209.85 1009.15C1210.78 1003.56 1231.95 998.943 1236.58 1000.91C1247.6 1005.58 1239.92 1040.65 1254 1047C1253.84 1035 1238.44 1011.59 1245.34 1000.5C1248.18 995.927 1268.28 993.151 1272.22 996.824C1282.26 1006.17 1283.04 1028.15 1293.86 1039.49C1301.46 1047.46 1319.6 1051.88 1321 1037C1301.83 1048.01 1289.95 1030.05 1283.34 1013C1281.92 1009.34 1276.54 998.488 1278.57 994.822C1281.94 988.75 1312.94 988.25 1320 987C1313.43 972.685 1285.7 996.342 1277.12 986.283C1265.89 973.118 1275.55 943.246 1289 938.19C1291.74 937.159 1310.5 931.072 1307.64 926.623C1305.73 923.66 1280.56 936.181 1276 937C1278.23 929.836 1282.62 890.197 1280.49 891.408C1270.14 897.295 1276.58 927.018 1272.06 936.794C1270.06 941.113 1245.33 949.956 1242.58 945.413C1238.43 938.565 1243 917.351 1243 909C1224.26 914.527 1252.5 962.356 1214.23 954.176C1208.84 953.023 1212.61 940.741 1213.14 937C1215.26 921.876 1218.45 906.907 1221.78 892C1222.38 889.324 1227.12 879.387 1224.97 877.426C1220.36 873.204 1217.34 889.881 1217.04 892C1214.97 906.817 1211.06 921.238 1208.76 936C1208.01 940.806 1209.18 949.592 1205.22 953.138C1197.57 959.986 1185.74 944.225 1179 955M581 900C607.972 896.422 611.589 895.97 634 913C636.84 891.581 589.594 880.084 581 900M1736.88 891.124C1721.6 887.674 1711.74 902.296 1705.77 914C1693.92 937.192 1679.77 1006.67 1719 1014.59C1730.54 1016.92 1737.9 1005.54 1740.88 996C1747.92 973.394 1753.76 942.511 1749.1 919C1747.64 911.644 1745.94 893.168 1736.88 891.124M1727 896.567C1742.17 893.308 1743.74 909.967 1744.78 921C1746.9 943.457 1742.42 964.124 1738.45 985.981C1736.94 994.317 1733.44 1006.83 1724 1009.2C1709.39 1012.86 1703.06 993.011 1699.58 983C1692.49 962.54 1700.49 902.264 1727 896.567M1603 928C1617.85 950.845 1624.8 968.491 1612.4 995C1606.49 1007.64 1587.09 1025.65 1572.6 1014.84C1538.19 989.169 1560.58 929.6 1604 942C1600.66 919.182 1561.14 947.035 1555.99 957C1551.46 965.755 1550.8 977.361 1552.41 987C1553.52 993.663 1556.63 1000.09 1559.84 1005.96C1595.7 1071.55 1661.45 938.995 1603 928M1271 945C1270.97 953.237 1274.47 982.149 1270.59 988.079C1268.18 991.746 1248.3 995.4 1245.24 992.1C1242.63 989.28 1243 982.612 1242.37 979C1238.06 954.285 1247.92 949.998 1271 945M2125 953C2125.29 959.876 2132.23 963.818 2132.82 971C2133.33 977.281 2124.9 1002.38 2115.32 998.335C2104.01 993.552 2116.32 968.888 2119.09 963.03C2120.3 960.463 2119.9 956.842 2116.15 958.087C2103.46 962.309 2101.78 1006.87 2118 1003.76C2141.26 999.307 2141.63 963.88 2125 953M1233.5 956.286C1238.01 957.558 1235.91 971.257 1236.52 975C1239.2 991.42 1231.33 1006.97 1210.28 999.851C1204.43 997.871 1207.77 985.442 1208.21 981C1209.61 966.956 1213.9 950.751 1233.5 956.286M101.667 959.333C101.222 959.778 102.278 959.722 102.333 959.667C102.777 959.223 101.722 959.278 101.667 959.333M862 960C862.043 969.585 863.594 973.313 873 969C870.666 964.006 867.337 961.353 862 960M940 962C942.597 970.974 944.517 968.915 952 966C952.381 969.195 954.277 976.15 951.733 978.74C948.996 981.528 940.702 980.005 937 980.701C923.312 983.273 909.623 986.104 896 989C896.476 986.335 899.819 971.345 903.688 972.761C907.511 974.161 907.033 981.262 912.096 981.136C916.415 981.028 919.779 975.365 923 973C927.852 984.734 935.766 967.662 938 962L940 962M518 975C515.853 998.055 519.786 1020.05 521.022 1043C521.432 1050.62 520.743 1063.67 529 1067C522.127 1037.98 520.567 1004.82 520 975L518 975M1934 988C1934.81 990.244 1935.71 991.981 1937 994C1923.11 994.338 1916.96 997.963 1914.95 1013C1914.02 1019.97 1913.52 1035.1 1924 1035.18C1946.23 1035.35 1956.21 993.055 1934 988M1928.06 997.631C1946.97 992.308 1942.24 1025.15 1928 1029.27C1912.18 1033.83 1917.37 1000.64 1928.06 997.631M1981 1397L1985 1393C1985.51 1402.85 1974.06 1407.7 1972 1417C1975.4 1416.19 1993.36 1403.77 1994.84 1401.44C1997.14 1397.82 1996.94 1383.79 1999.05 1378C2006.83 1356.73 2016.33 1336.26 2023.7 1315C2025.37 1310.18 2043.37 1288.93 2042.59 1287.79C2037.74 1280.76 2022.9 1299.25 2018 1300.47C1999.24 1305.17 1978.22 1307.3 1959 1311.14C1954.06 1312.12 1946.16 1310.69 1942.82 1306.55C1937.21 1299.57 1941.47 1280.18 1942.76 1272C1944.51 1260.87 1948.13 1250.11 1950 1239L1953 1239C1953.54 1241.65 1954.01 1243.16 1956 1245C1957.01 1240.8 1954.6 1235.61 1956.32 1231.9C1971.69 1198.6 2021.7 1197.03 2033.29 1234C2039.89 1255.07 2027.09 1279.17 2015 1296C2029.8 1294.5 2031.46 1273.34 2037.41 1263C2051.71 1238.18 2071.48 1208.03 2089.19 1185.35C2094.7 1178.29 2106.4 1180.18 2109.39 1170C2114.11 1153.95 2089.9 1144.86 2079.53 1155.51C2068.22 1167.12 2084.94 1177.18 2082.73 1186.03C2078.31 1203.81 2054.17 1238.64 2040 1250C2040 1219.85 2010.76 1188.41 1979 1204.27C1973.14 1207.19 1952.5 1229.49 1948.75 1226.43C1933.62 1214.11 1926.52 1188.71 1917.62 1172C1912.22 1161.84 1903.19 1153.89 1897.88 1144C1894.64 1137.95 1903.31 1130.69 1897.7 1126.06C1889.97 1119.69 1867.19 1136.49 1874.82 1146.83C1882.21 1156.83 1889.18 1142.24 1895.01 1146.78C1912.97 1160.79 1922 1191.46 1932.28 1211C1936.2 1218.44 1943.66 1224.74 1946.88 1232.32C1948.73 1236.66 1943.64 1244.54 1942.51 1249C1938.95 1263.11 1935.53 1278.42 1935.04 1293C1934.43 1311.04 1944.69 1308.54 1950.51 1322C1961.07 1346.43 1960.24 1377.49 1981 1397M1892 1129C1896.5 1149.87 1865.38 1145.86 1884.99 1132.91C1887.24 1131.42 1889.58 1130.19 1892 1129M603 1227C604.031 1249.82 584.699 1278.43 562 1289C562.003 1264.87 567 1241.3 567 1217C567 1209.65 561.384 1193.92 563.65 1188.09C567.547 1178.04 588.623 1164.09 598 1159C604.951 1183.88 613.3 1207.07 615.136 1233C615.383 1236.48 614.726 1256.11 617.4 1256.56C624.96 1257.82 621.07 1234.29 620.981 1230C620.496 1206.44 611.081 1171.18 599 1151C578.844 1161.15 549.78 1145.9 530.04 1160.52C522.881 1165.82 506.166 1179.93 503.509 1188.28C497.145 1208.27 504.691 1239.51 502.783 1261C502.084 1268.87 496.942 1299.57 506.054 1301.63C517.552 1304.24 550.534 1305.55 560.845 1299.93C571.921 1293.89 582.133 1278.38 590.439 1269C599.771 1258.46 622.544 1240.27 603 1227M2099 1161C2105.9 1159.13 2105.74 1167.69 2102.4 1171.76C2100.73 1173.78 2098.4 1175.14 2096 1176.1C2069.24 1186.78 2085.49 1136.37 2099 1161M586 1159C572.947 1182.04 539.728 1186.33 516 1183C528.727 1159.62 561.551 1153.75 586 1159M678 1183L674 1182C678.281 1248.96 679 1316.39 679 1384C679 1400.16 678.761 1416.2 678.121 1432.32C677.995 1435.51 676.403 1445.66 680.217 1447.24C684.013 1448.81 683 1434.82 683 1433L683 1384C683 1355.09 679.618 1325.68 681.078 1297C682.903 1261.15 688.214 1218.75 678 1184C688.517 1181.3 675.716 1171.08 670.96 1168.87C661.5 1164.48 646.115 1165.31 637 1169.77C635.409 1170.54 620.697 1178.01 624.969 1180.58C628.618 1182.78 637.514 1174.86 641 1173.54C653.72 1168.73 670.303 1171.5 678 1183M110 1219C105.172 1239.38 108.255 1260.53 104.168 1281C102.743 1288.14 97.5739 1303.6 100.862 1310.44C106.287 1321.72 147.026 1321.09 156.783 1317.21C180.573 1307.77 195.641 1279.94 217 1267C217.327 1268.94 221.766 1288.27 225.658 1283.03C228.515 1279.18 220.254 1264.91 218.575 1261C211.39 1244.26 207.219 1225.93 204.089 1208C203.005 1201.8 202.626 1189.41 196.723 1185.76C168.363 1168.23 132.222 1175.92 109.989 1196.06C107.542 1198.27 88.7052 1210.48 89.1057 1211.54C89.9078 1213.65 104.332 1209.6 107 1209.32C121.191 1207.83 143.257 1201.54 152.874 1216.08C158.077 1223.95 155.038 1233.13 155.184 1241.78C155.46 1258.25 157 1274.45 157 1291C157 1298.9 159.503 1310.98 148.992 1312.71C138.995 1314.36 112.697 1315.46 106.262 1305.55C101.021 1297.47 109.262 1259.76 110.217 1249C110.871 1241.64 116.399 1223.75 110 1219M120 1180C122.352 1179.99 122.614 1179.89 124 1178C122.048 1178.51 121.543 1178.73 120 1180M187 1187C174.986 1212.34 132.047 1204.22 110 1205C127.295 1172.52 159.245 1186.96 187 1187M532 1186.32C574.261 1181.88 560.221 1232.49 558.967 1260C558.635 1267.28 559.882 1293.83 551.93 1295.07C542.587 1296.52 514.228 1301.76 506.829 1294.75C503.059 1291.18 505.999 1276.12 506 1271C506.005 1252.36 507.983 1233.64 508 1215C508.006 1208.41 505.714 1196.21 509.602 1190.52C511.264 1188.09 528.171 1186.72 532 1186.32M214 1262C194.297 1272.49 182.776 1297.79 161 1306C161.065 1289.76 163.401 1273.27 161.775 1257C160.589 1245.13 155.579 1224.28 160.164 1213.02C162.836 1206.46 187.239 1189.3 194.517 1193.4C198.792 1195.81 199.867 1207.54 200.68 1212C203.871 1229.52 208.752 1245.2 214 1262M779.408 1217.15C775.772 1221.11 807.253 1220.24 810 1220.4C842.022 1222.29 879.184 1222.03 910 1231.37C914.446 1232.72 949.519 1241.13 951.031 1238.15C954.629 1231.05 916.641 1227.6 912 1226.37C880.282 1217.94 843.817 1216.37 811 1216.01C805.068 1215.94 783.478 1212.72 779.408 1217.15M383 1448C404.027 1419.97 408.085 1374.83 418.604 1342C421.201 1333.89 421.625 1312.49 427.987 1307C429.79 1305.45 437.657 1312.02 440 1313C439.384 1306.88 433.246 1303.39 433.263 1297C433.349 1264.49 463.474 1226.88 497 1230C485.278 1206.93 447.257 1247.89 441.623 1259C420.439 1300.78 409.639 1351.02 398.613 1396C394.175 1414.1 383.002 1428.81 383 1448M499 1236C498.014 1237.48 498 1237.2 498 1239C499.766 1238.02 499.955 1237.78 499 1236M1254 1238C1246.15 1258.44 1262.22 1288.09 1251.82 1309.72C1248.12 1317.41 1217 1309.16 1217 1314.35C1217 1321.98 1244.02 1317.46 1248.59 1319.82C1253.11 1322.15 1250.14 1360.58 1246 1364C1248.12 1367.25 1250.24 1368.23 1254 1369C1253.9 1358.27 1248.44 1330.19 1256.82 1321.82C1265.51 1313.15 1286.85 1326.55 1292 1310C1286.66 1311.37 1281.54 1313.45 1276 1313.96C1271.84 1314.35 1261.2 1316.54 1257.84 1313.74C1254.16 1310.66 1257.43 1298.22 1257.94 1294C1259.44 1281.58 1264.51 1246.81 1254 1238M399 1264C396.15 1254.49 390.372 1260.62 399 1264M1996 1266C1992.45 1265.4 1959 1273.85 1959 1272.38C1959 1283.81 1992.38 1271.2 1996 1266M2046 1289C2049.54 1288.04 2050.2 1286.6 2050 1283C2047.61 1284.8 2046.79 1286.11 2046 1289M1593 1308C1610.67 1307.77 1632.39 1302.92 1650 1300.01C1652.94 1299.52 1669.78 1303.95 1668.24 1299.33C1665.99 1292.58 1654.01 1293.76 1649 1294.64C1635.39 1297.05 1599.84 1292.75 1593 1308M2024 1303C2014.59 1323.83 2008 1344.95 1999.3 1366C1996.81 1372.02 1995.13 1384.17 1989.26 1387.9C1986.74 1389.5 1982.45 1385.86 1980 1385L1981 1391C1968.02 1377.17 1964.78 1353.37 1959.12 1336C1957.82 1332.02 1952.52 1320.66 1955.91 1317.12C1968.61 1303.83 2007.3 1308.26 2024 1303M774.408 1326.22C770.594 1330.66 798.904 1334.96 802 1335.48C833.613 1340.84 866.662 1338.87 898 1344.62C901.714 1345.3 934.107 1350.49 934.375 1350.06C938.811 1342.8 903.593 1340.97 900 1340.22C869.408 1333.88 836.719 1338.03 806 1330.98C800.856 1329.8 778.159 1321.85 774.408 1326.22M2020 1338C2008.65 1342.82 2019.99 1368.85 2020 1346L2020 1338M1979 1570C1975.69 1554.88 1971.55 1542.39 1963.3 1529.04C1961.02 1525.35 1954.51 1516.62 1949.35 1519.95C1936.14 1528.47 1942.99 1571.54 1943 1585C1938.47 1580.68 1931.74 1563.64 1923.5 1566.09C1918.47 1567.58 1920 1594.06 1920 1599C1920 1633.71 1942.1 1670.63 1960.44 1698.98C1966.13 1707.79 1984.48 1724.32 1984 1734L1990 1733C1991.1 1740.97 2001.74 1746.1 2009 1742.51C2019.53 1737.3 2036.08 1720.64 2041.65 1710.34C2047.02 1700.42 2030.86 1675.78 2031.03 1664C2031.26 1648.47 2043.07 1620.6 2058.24 1614.29C2065.44 1611.29 2074.79 1616.7 2080.98 1612.45C2093 1604.21 2102.09 1588 2111.58 1577C2114.08 1574.1 2120.63 1568.86 2118.47 1564.42C2112.35 1551.88 2081.74 1562.93 2074 1567.44C2071.9 1568.66 2062.62 1574.82 2060.34 1572.62C2058.2 1570.57 2065.93 1556.82 2066.88 1554C2073.07 1535.82 2079.17 1478.82 2049 1509C2045.17 1512.83 2041.13 1516.56 2037.98 1521C2033.04 1527.96 2029.62 1535.85 2025 1543C2023.88 1535.79 2025.43 1528.31 2024.9 1521C2024.39 1513.86 2013.76 1487.4 2005.36 1501.07C1992.7 1521.67 1993.25 1551.18 1979 1570M2063 1502C2069.43 1522.27 2066.48 1542.53 2059.06 1562C2057.88 1565.1 2049.6 1579.04 2053.86 1581.36C2057.41 1583.3 2067.7 1576.45 2071 1574.81C2086.09 1567.32 2096.2 1566 2113 1566C2108.64 1577.19 2090.13 1603.42 2078.95 1608.36C2064.47 1614.76 2052.93 1606.36 2041.42 1623.14C2033 1635.43 2023.76 1656.91 2026.53 1672C2028.4 1682.16 2038.53 1696.89 2036.4 1707C2034.6 1715.57 2014.21 1738.67 2005 1738.81C1994.99 1738.97 1979.63 1717.96 1974.01 1711C1951.72 1683.41 1937.83 1648.17 1926.3 1615C1923.99 1608.35 1920.87 1580.75 1925.57 1575.03C1928.5 1571.46 1934.21 1581.29 1935.27 1583C1937.59 1586.75 1950 1620.31 1951.73 1619.92C1956.52 1618.84 1949.94 1600.93 1949.32 1598C1945.61 1580.42 1947.96 1560.89 1948 1543C1948.01 1538.94 1947.42 1527.78 1951.86 1525.54C1956.28 1523.31 1962.23 1535.17 1963.76 1538C1970.87 1551.19 1976.91 1568.94 1977 1584C1977.01 1586.32 1976.05 1597.83 1980.7 1596.92C1984.22 1596.23 1983.91 1577.51 1984.7 1574C1988.58 1556.65 1994.68 1538.76 2000.65 1522C2002.24 1517.52 2004.49 1506.96 2008.81 1504.41C2014.19 1501.23 2017.86 1513.84 2018.76 1517C2022.45 1530.06 2020.97 1545.65 2019.44 1559C2019.21 1561.03 2017.76 1571.62 2022.08 1570.79C2025.98 1570.05 2026.29 1552.76 2027.8 1549C2035.17 1530.73 2047.44 1514.05 2063 1502M828 1691C834.064 1656.75 826.874 1579.85 790 1563C788.305 1575.84 798.149 1575.12 804.815 1585C812.296 1596.08 816.648 1611.01 819.437 1624C824.824 1649.08 826.893 1679.49 825.03 1705C824.725 1709.18 820.805 1729.62 827 1730.68C831.028 1731.36 829.99 1722.09 830.003 1720C830.085 1705.83 835.629 1694.4 838.999 1681C848.074 1644.91 859.893 1610.84 872.942 1576C878.225 1561.89 885.443 1540.14 899 1532C899.975 1559.51 889.169 1571.01 879.217 1596C878.414 1598.02 869.494 1618.67 875.426 1616.81C878.942 1615.71 881.014 1606.08 882.19 1603C886.143 1592.63 891.57 1574.4 901 1568C898.993 1601.52 896.201 1635.54 896.952 1669C897.044 1673.08 891.906 1700 897.919 1700C899.507 1700 906.584 1664.61 907.754 1660C918.754 1616.62 938.242 1576.53 951 1534C963.582 1541.68 974.355 1552.62 980.348 1566C981.734 1569.09 985.563 1581.36 989.635 1581.36C993.648 1581.36 978.839 1547.07 976.616 1543C957.208 1507.46 923.854 1529.02 905 1551C904.02 1545.76 906.771 1522.78 900.549 1520.76C896.199 1519.35 882.106 1543.97 879.788 1548C862.083 1578.79 849.722 1617.63 841.121 1652C838.66 1661.84 836.35 1685.05 828 1691M900 1660C902.999 1637.38 904 1613.81 904 1591C904 1580.12 902.051 1564.5 908.107 1555.01C912.465 1548.18 935.223 1520.52 945.039 1531.37C948.103 1534.75 936.851 1555.51 935.335 1560C927.266 1583.93 915.402 1607.38 909.674 1632C907.812 1640 908.745 1656.18 900 1660M967 1539C962.699 1537.62 959.888 1535.45 957 1532C961.859 1532.79 964.591 1534.7 967 1539M518 1542.84C491.275 1549.64 460.015 1542.41 432 1545.56C429.014 1545.9 404.409 1546.55 405.761 1549.78C407.706 1554.42 425.853 1550.11 430 1550.02C453.605 1549.48 481.667 1544.09 504.864 1550.24C510.369 1551.7 506.01 1565.31 506.001 1570C505.974 1582.83 506.495 1634.86 525.973 1630.52C544.345 1626.43 532.886 1580.31 531.782 1568C531.437 1564.14 527.46 1552.11 531.543 1549.82C537.022 1546.75 547.088 1551.61 553 1551.92C573.333 1553 597.126 1555.04 617 1560.34C624.505 1562.34 644.288 1568.77 651.488 1564.76C659.576 1560.24 623.449 1556.33 619 1555.46C596.128 1550.97 572.875 1549.96 550 1546.97C541.176 1545.82 526.335 1540.72 518 1542.84M92 1647C97.7642 1632.13 121.581 1635.74 134 1634.31C137.957 1633.86 147.383 1631.04 150.285 1634.72C157.356 1643.68 143.307 1649.9 138.321 1655.08C126.868 1666.97 111.44 1691.67 124.116 1707.62C125.123 1708.89 128.888 1711.59 129.486 1708.45C130.367 1703.81 125.185 1697.24 125.129 1692C124.999 1679.97 139.274 1655.24 151.088 1651.28C159.2 1648.57 164.869 1671.33 177.734 1660.4C185.726 1653.6 176.845 1644.95 180.466 1637.58C189.396 1619.39 218.868 1601.91 238 1607C235.857 1596.68 225.846 1598.47 218 1601.62C201.512 1608.23 188.645 1619.82 177 1633C167.058 1613.14 158.724 1606.5 170.502 1583C175.37 1573.29 180.591 1561.96 188.4 1554.22C190.422 1552.22 198.162 1550.42 196.108 1546.46C191.042 1536.69 172.096 1568.33 170.075 1571.78C162.057 1585.48 162.326 1617.46 150.459 1626.12C137.773 1635.37 111.322 1629.24 96 1635.77C89.7419 1638.44 81.3512 1643.63 92 1647M514 1557C514.587 1559.7 514.897 1562.24 515 1565L518 1565C517.943 1526.49 538.791 1582.9 513.424 1583.78C506.586 1584.01 509.459 1560.04 514 1557M1203 1580L1202 1584C1204.25 1583.24 1215.05 1578.02 1211.03 1574.46C1205.32 1569.39 1181.56 1580.88 1177.05 1584.87C1168.18 1592.73 1169.04 1601.9 1165.4 1612C1159.26 1629.03 1148.16 1643.89 1155.05 1663C1159.99 1676.68 1187.4 1688.3 1194 1670C1181.61 1672.94 1173.42 1677.95 1163.42 1665.91C1153.16 1653.56 1157.59 1620.93 1176.14 1619.57C1181.63 1619.17 1210.13 1619.45 1213.04 1623.42C1216.29 1627.87 1206.85 1644.18 1215.28 1645.64C1227.69 1647.77 1249.36 1642.58 1262 1640.37C1267.19 1639.46 1276.71 1635.93 1281.5 1639.26C1290.44 1645.47 1277.8 1665 1292.02 1669.98C1301.39 1673.26 1311.82 1663.18 1315.94 1656C1317.19 1653.82 1319.76 1644.55 1323.01 1645.08C1332.14 1646.58 1340.59 1677.26 1350.52 1673.46C1356.82 1671.04 1360.67 1659.66 1363.02 1654C1370.63 1635.69 1380.45 1613.04 1380.98 1593C1381.08 1589.38 1386.11 1564.64 1381 1564.64C1377.16 1564.64 1376.57 1585.58 1376.21 1589C1374.07 1609.24 1366.42 1629.09 1359.18 1648C1357.73 1651.78 1353.89 1665.36 1348.85 1665.5C1342.22 1665.68 1336.8 1651.24 1333.44 1647C1309.26 1616.44 1329.32 1593.14 1360 1579.28C1361.71 1578.51 1376.19 1570.95 1370.43 1568.49C1366.67 1566.88 1360.67 1572.58 1357.68 1574.39C1346.96 1580.92 1335.83 1590.2 1324 1594.47C1290.5 1606.58 1252.46 1583.9 1220.42 1593.58C1211.55 1596.26 1222.33 1614.14 1210.97 1617.5C1198.1 1621.3 1162.19 1617.15 1174.23 1596.96C1180.85 1585.85 1191.89 1584.1 1203 1580M1579 1683C1582.72 1692.07 1595.17 1684.5 1601.04 1681.22C1610.29 1676.04 1618.86 1665.94 1628.68 1662.39C1637.22 1659.3 1662.66 1662.35 1672 1664C1669.28 1683.88 1685.89 1688.53 1697.16 1673.76C1704.75 1663.81 1698.67 1658.27 1699 1648C1709.32 1657.47 1722.71 1670.37 1729 1683C1739.24 1673.15 1734.03 1629.51 1734 1615C1733.99 1609.98 1734.78 1598.22 1729.47 1595.39C1722.33 1591.58 1708.77 1607.84 1702 1610C1702.57 1608.13 1705.5 1602.98 1703.23 1601.47C1699.9 1599.24 1692.87 1607.37 1689 1607.85C1678.11 1609.21 1666.84 1606.6 1656 1608.71C1649.12 1610.04 1639.08 1615.44 1632.1 1613.04C1624.84 1610.55 1619.42 1597.74 1612.22 1593.19C1606.23 1589.4 1583.3 1574.95 1577.03 1582.84C1564.19 1598.99 1566.08 1641.33 1567.08 1661C1567.44 1668.18 1567.36 1688.41 1579 1683M525 1585C522.043 1588.35 519.507 1589.92 515 1590C517.616 1586.33 520.475 1584.68 525 1585M1616 1618C1629.84 1627.33 1618.56 1629.42 1617 1643C1621.05 1638.58 1623.69 1633.1 1628 1629C1629.38 1651.88 1627.91 1656.98 1608.01 1671.28C1605.31 1673.22 1586.49 1687.07 1584.1 1680.41C1582.87 1677 1593.03 1656.17 1593.68 1650C1595.92 1628.6 1590.01 1608.69 1586 1588C1596.52 1589.47 1609.97 1595.43 1617.23 1603.23C1623.19 1609.62 1628.01 1617.7 1616 1618M525.654 1593.12C533.92 1593.47 532.398 1625.34 522 1624.78C510.113 1624.14 508.896 1592.41 525.654 1593.12M1582 1592C1586.46 1614.73 1590.12 1634.8 1587.05 1658C1586.4 1662.91 1583.06 1679.61 1575.32 1677.81C1570.04 1676.59 1571.01 1661.14 1571 1657C1570.95 1634.35 1572.81 1613.5 1580 1592L1582 1592M1224.48 1599.86C1240.24 1592.3 1274.45 1604.19 1292 1603.99C1298.8 1603.92 1309.05 1599.59 1315.5 1602.14C1321.66 1604.58 1315.51 1632.84 1311.15 1635.59C1308.8 1637.08 1297.24 1630.09 1292.14 1631C1275.08 1634.04 1234.74 1645.44 1218.52 1638.86C1214.66 1637.29 1220.51 1601.77 1224.48 1599.86M1727 1669C1712.13 1663.32 1697.94 1641.75 1700.21 1626C1701.14 1619.55 1718.48 1600.17 1725.73 1602.09C1731.08 1603.5 1730 1613.94 1730 1618C1730 1635.04 1728.64 1652.1 1727 1669M1635 1657C1638.32 1646.17 1651.76 1637.84 1634 1645C1633.94 1638.13 1629.84 1627.15 1633.94 1621.15C1641.1 1610.67 1668.86 1613 1680 1613C1683.51 1613 1691.2 1611.35 1693.94 1613.96C1697.16 1617.04 1695 1625.95 1695 1630C1694.98 1652.22 1689.82 1657.95 1667 1658C1656.2 1658.02 1645.7 1657.22 1635 1657M164 1619C167.141 1623.01 169.599 1627.27 171.503 1632C172.805 1635.24 173.703 1638.58 174.371 1642C180.308 1672.37 136.95 1638.66 164 1619M548 1678C563.592 1656.25 550.567 1644.02 540 1624C532.256 1626.17 542.869 1634.33 545.019 1638C551.129 1648.44 556.946 1665.24 543.741 1673.15C528.929 1682.02 529.032 1634.89 525.625 1637.71C520.417 1642.03 525.038 1658.73 526.722 1664C529.479 1672.62 536.946 1675.76 539.917 1683.02C546.304 1698.61 546.882 1733.58 569 1737.23C577.216 1738.59 576.224 1726.72 575.125 1722C571.638 1707.01 566.328 1678 548 1678M1573 1639C1587.86 1645.83 1581.54 1625.07 1573 1639M1291.6 1637.82C1307.87 1628.84 1321.63 1653.04 1302 1663.42C1287.39 1671.14 1284.22 1641.9 1291.6 1637.82M1316.67 1638.67C1316.72 1638.72 1316.78 1639.78 1316.33 1639.33C1316.28 1639.28 1316.22 1638.22 1316.67 1638.67M1697 1661C1696.41 1666.34 1689.51 1680.42 1682.35 1678.03C1678.75 1676.83 1675.28 1666.26 1678.84 1663.8C1683.13 1660.85 1691.93 1661.9 1697 1661M570 1732C558.519 1728.89 539.541 1697.73 545.959 1685.51C551.918 1674.16 560.821 1694.42 562.162 1698C563.88 1702.58 564.899 1707.36 566.438 1712C568.634 1718.62 569.935 1725.02 570 1732M176 2135C192.995 2131.12 188.542 2093.59 185.979 2081C177.973 2041.69 157.278 2008.45 139.921 1973C133.005 1958.88 121.311 1942.86 132.1 1928.02C148.999 1904.77 189.023 1899.31 215 1892.69C221.114 1891.13 242.653 1885.66 244.596 1895.07C248.158 1912.32 220.483 1936.29 205 1937.32C196.844 1937.86 188.182 1933.04 180 1932.22C175.467 1931.77 153.688 1931.18 153.641 1938.2C153.581 1947.01 168.554 1951 175 1950.99C192.088 1950.99 211.63 1933.42 221.116 1957.02C228.375 1975.08 203.129 1991.19 188 1991.02C183.032 1990.96 169.488 1992.08 169.786 1999.67C169.915 2002.95 188.125 1999.87 191 1999.06C209.859 1993.74 229.913 2000.76 234.492 2022C239.862 2046.92 198.252 2051.36 194 2070C202.336 2067.78 210.978 2058.95 219.992 2061.81C232.165 2065.68 232.488 2083.71 230.536 2094C225.711 2119.42 210.942 2133.11 187 2136C192.014 2145.74 208.858 2140.28 215.095 2133.9C228.899 2119.77 255.95 2056.98 217 2056C223.548 2048.92 234.294 2043.27 238.068 2034C246.728 2012.72 225.38 1994.34 207 1991C215.173 1982.6 229.146 1975.48 227.834 1962C227.337 1956.89 214.958 1940.69 216.425 1938.07C218.179 1934.94 225.98 1933.02 228.959 1930.72C236.985 1924.5 258.641 1897.53 247.635 1887.5C240.64 1881.13 220.279 1886.75 212 1888.74C184.629 1895.32 130.857 1902.8 121.667 1935C115.892 1955.23 143.175 1986.99 151.696 2004C173.511 2047.56 186.277 2087.4 176 2135M540 2144C546.054 2142.01 564.321 2143.69 567.98 2140.04C579.987 2128.08 562.271 2102.72 567.845 2093.24C573.162 2084.2 588.897 2078.48 596.96 2071.48C612.229 2058.24 626.1 2033.16 628.661 2013C634.375 1968.01 606.512 1918.83 562 1905.59C509.065 1889.85 475.046 1944.91 483.511 1992C488.582 2020.21 498.693 2046.76 514.169 2070.78C520.911 2081.25 534.986 2090.19 539.069 2101C544.807 2116.2 540.025 2128.79 540 2144M546 2098L546 2102C542.711 2097.96 540.366 2093.02 539 2088C543.833 2089.1 564.81 2089.49 565.409 2081.8C565.758 2077.31 561.325 2069.43 561 2064C562.08 2065.76 566.091 2075.98 569.082 2073.68C571.631 2071.71 564.777 2056.41 565.803 2052.08C567.036 2046.88 571.799 2043.56 572.572 2038C575.336 2018.11 569.493 1992.22 568.059 1972C567.598 1965.49 569.95 1942.51 563.635 1939.22C558.986 1936.8 526.414 1940.55 525.287 1946.07C522.985 1957.34 531.379 1972.37 534.631 1983C540.762 2003.03 544.258 2022.3 542.757 2043.32C542.183 2051.37 543.762 2089.97 530.156 2083.76C515.243 2076.96 504.309 2046.52 500.155 2032C488.083 1989.81 474.953 1908.96 543 1909C551.553 1909.01 559.903 1909.9 568 1912.79C644.456 1940.08 636.516 2044.94 575 2081.54C563.551 2088.35 560.069 2098 546 2098M955 1910.44C940.466 1912.1 910.944 1906.86 900.019 1916.24C890.313 1924.57 881.74 1937.07 877.18 1949C875.28 1953.97 874.842 1965.63 869.637 1968.18C855.491 1975.1 831.954 1967.49 816 1972.4C798.3 1977.84 803.936 1991.65 792.598 2002.68C787.201 2007.92 778.458 2003.97 772.206 2009.55C756.475 2023.62 751.326 2062.11 764.123 2079.65C778.261 2099.04 808.323 2069.05 826.957 2074.5C842.387 2079.02 841.896 2109.12 859.085 2115.62C871.683 2120.39 891.889 2102.7 905 2099.92C915.657 2097.65 943.16 2097.57 954 2099.43C964.321 2101.2 970.733 2107.12 982 2105.74C1023.32 2100.67 1048.31 2068.98 1058.16 2032C1062.37 2016.2 1064.51 1993.27 1052.34 1980.35C1042.98 1970.41 1030.97 1972.42 1021 1980.14C1018.74 1981.89 1009.4 1992.32 1006.6 1989.22C985.064 1965.35 1014.42 1921.41 971 1911.96C965.488 1910.76 960.674 1909.79 955 1910.44M921 1986C929.392 1965.58 929.2 1939.64 929 1918C947.397 1921.06 967.808 1907.12 984.816 1921.64C994.289 1929.72 999.693 1955.33 990.207 1965.17C976.973 1978.89 939.27 1989.91 921 1986M910.003 1915.62C933.483 1910.12 921.798 1953.13 921 1965C920.703 1969.41 920.696 1982.11 915.52 1983.92C911.596 1985.29 903.977 1981.89 900 1980.96C893.331 1979.4 882.075 1977.58 878.629 1970.93C871.049 1956.31 895.813 1918.94 910.003 1915.62M2033 2066C2040.26 2069.94 2052.64 2085.61 2061.69 2083.74C2065.65 2082.91 2063.43 2074.88 2063.84 2072C2064.86 2064.93 2072.39 2033.72 2062.49 2030.41C2057.07 2028.59 2038.38 2045.01 2033 2048C2034.84 2037.37 2028.67 2017.6 2034.78 2008.63C2039.91 2001.11 2056.32 2026.21 2062.74 2019.12C2068.73 2012.5 2065.62 1976.18 2064.86 1967C2064.52 1963.03 2063.22 1954.57 2058.01 1954.15C2049.72 1953.47 2040.61 1970.2 2035 1975C2036.47 1966.24 2045.79 1938.01 2039.62 1930.85C2036.69 1927.45 2012.93 1936.02 2008 1937.3C1994.71 1940.75 1983.11 1949.23 1970 1952.37C1963.24 1953.98 1953.35 1951.98 1948.03 1957.49C1941.91 1963.82 1941.77 1978.65 1941.14 1987C1939.31 2011.3 1943.19 2036.55 1943 2061C1942.96 2066.2 1938.53 2080.83 1942.26 2084.76C1945.29 2087.95 1953.9 2087.46 1958 2088.54C1975.48 2093.11 1991.06 2092.99 2009 2092.08C2014.2 2091.81 2025.27 2094.52 2029.4 2091.14C2035.16 2086.41 2033 2072.57 2033 2066M1563 1973C1568.31 1979.42 1585.6 1975.98 1593 1974.75C1620.81 1970.13 1650.39 1953.95 1674 1939C1674 1971.71 1672 2004.24 1672 2037C1672 2047.16 1675.39 2065.52 1667.3 2073.4C1661.35 2079.19 1634.19 2078.65 1625 2080.74C1614.35 2083.16 1587.24 2090.54 1577.5 2083.74C1572.49 2080.24 1575.27 2067.36 1574.78 2062C1572.91 2041.51 1570.05 2020.56 1569.27 2000C1569.12 1995.92 1574.24 1992.04 1573.7 1989.06C1573.11 1985.79 1568.26 1989.12 1567.09 1990.02C1561.03 1994.66 1565.47 2003.69 1566.03 2010C1567.76 2029.3 1569.31 2048.65 1569.96 2068C1570.12 2072.88 1567.46 2087.45 1572.5 2090.18C1589.64 2099.44 1627.01 2084.95 1645 2082.08C1652.1 2080.95 1660.29 2083.39 1666.99 2081.5C1677.32 2078.57 1678 2062.61 1678 2054C1678.01 2024.66 1678.92 1995.27 1679 1966C1679.01 1960.53 1683.81 1935 1678.49 1932.52C1673.31 1930.11 1652.49 1946.07 1647 1948.93C1620.32 1962.86 1593.29 1973 1563 1973M1953 2021C1945.68 2019.91 1948.5 2011.91 1948 2006.32C1946.87 1993.71 1943.07 1973.93 1951.25 1962.38C1956.1 1955.52 1965.16 1958.18 1972 1955.94C1990.15 1949.97 2012.7 1934.72 2032.62 1936.98C2037.5 1937.53 2033.99 1948.05 2033.58 1951C2031.54 1965.62 2030.32 1980.29 2029.13 1995C2027.37 2016.6 2028 2038.32 2028 2060C2028 2066.72 2030.26 2079.82 2024.98 2085.06C2019.59 2090.4 2000.22 2087 1993 2087C1980.31 2087 1958.24 2089.33 1947.65 2080.54C1944.29 2077.76 1947.13 2068.77 1947.56 2065C1949.11 2051.49 1944.7 2032.03 1953 2021M196 1940C186.146 1947.94 166.93 1950.97 159 1939C171.434 1938.56 183.713 1936.84 196 1940M2149 1942C2140.55 1943.67 2134.09 1949.43 2125 1948.76C2119.61 1948.37 2108.75 1941.84 2104.34 1944.08C2094.52 1949.09 2090.45 1966.1 2082.84 1973.94C2080.1 1976.77 2071.29 1978.24 2069.97 1980.75C2066.62 1987.1 2082.29 1981.87 2083.96 1980.53C2092.87 1973.36 2094.79 1957.55 2104.17 1951.86C2116.16 1944.58 2140.59 1964.15 2149 1942M548 1956C547.576 1972.26 554.985 1989.12 555 2006C555.01 2016.87 555.223 2028.2 556.438 2039C557.64 2049.68 560.931 2069.67 558.596 2079.76C557.5 2084.49 549.824 2084.38 546.822 2081.69C539.426 2075.07 547.332 2038.75 547.705 2029C548.477 2008.79 540.747 1991.05 535.821 1972C534.285 1966.06 528.981 1955.26 531.829 1949.3C533.283 1946.26 554.911 1944.91 558.517 1945.74C564.018 1947 561.872 1960.94 562.078 1965C563.112 1985.44 564.452 2005.68 566.677 2026C567.011 2029.04 568.483 2046.84 562.272 2045.68C558.247 2044.93 560.101 2026.39 559.864 2023C558.747 2007.03 563.072 1965.83 548 1956M2057 1960C2060.51 1972.79 2059 1986.83 2059 2000C2059 2002.76 2060.3 2010.86 2057.2 2012.38C2053.86 2014 2047.58 2006.61 2044.99 2004.97C2024.01 1991.66 2043.76 1975.08 2055 1960L2057 1960M997 1968C997.305 1972.97 999.564 1998.87 1005.31 1999.92C1008.36 2000.48 1013.8 1991.42 1016.02 1989.52C1030.88 1976.78 1049.1 1970.76 1054.4 1996C1056.67 2006.79 1058.12 2039.05 1047.83 2046.62C1045.12 2048.61 1038.19 2045.27 1035 2045.08C1023.05 2044.38 1010.99 2046 999 2046C980.938 2046 964.609 2057 948.008 2056.79C941.588 2056.72 937.891 2050.63 931.864 2049.42C925.472 2048.14 918.583 2051.36 912 2050.9C901.116 2050.15 892.386 2045.19 881 2046.09C866.613 2047.23 852.061 2058.47 839 2064.16C825.087 2070.22 804.879 2074.35 790 2077C793.428 2064.61 798.487 2055.73 798.904 2042C799.546 2020.81 792.56 1998.81 808.957 1980.7C816.089 1972.82 829.543 1974.1 839 1973.99C849.138 1973.88 859.966 1971.27 870 1973.83C886.996 1978.17 902.725 1990.13 921 1991.87C948.887 1994.54 972.431 1977.25 997 1968M1612 1988C1612.03 1996.78 1601.46 2000.04 1601.04 2010C1600.85 2014.71 1600.96 2019.4 1602.02 2024C1604.57 2035.05 1615.12 2053.07 1624.85 2034.86C1631.91 2021.66 1625.02 1995.17 1612 1988M880 2019C879.375 2012.29 879.016 2002.34 881 1996C870.572 1998.42 870.707 2015.1 880 2019M2091 1996.76C2089.14 1997.26 2073.37 2005.33 2080.34 2006.19C2086.85 2006.99 2090.92 1999.83 2098 2002.97C2105.15 2006.13 2119.96 2024.2 2128.43 2020.99C2133 2019.25 2125.44 2014.31 2123.99 2013.54C2114.66 2008.54 2102.4 1993.74 2091 1996.76M1612.98 1998.05C1623.66 1999.19 1625.27 2038.04 1613.98 2037.13C1604.19 2036.35 1600.65 1996.75 1612.98 1998.05M885 1998C885.902 2007.35 892.967 2003.52 885 1998M826 2005C808.201 1996.28 814.07 2020.86 826 2005M1190 2054C1188.15 2060.01 1185.6 2065.54 1186.24 2072C1190.94 2118.93 1237.4 2088.36 1221 2054C1235.98 2053.71 1250.72 2051 1266 2051C1262.8 2061.48 1267.85 2097.02 1286 2089.31C1309.37 2079.39 1301.62 2052.97 1302.02 2034C1302.12 2029.22 1308 2016 1303.57 2013.12C1298.74 2009.97 1285.22 2013.08 1279 2011.88C1252.05 2006.67 1225.67 2002.29 1198.15 2004.54C1188.74 2005.31 1192.8 2036.99 1190.5 2043.82C1189.34 2047.25 1182.65 2047.48 1182.64 2050.87C1182.64 2053.86 1188.09 2053.86 1190 2054M1983.96 2006.33C1972.16 2009.21 1977.03 2033.83 1988.93 2031.05C1999.21 2028.64 1992.09 2004.34 1983.96 2006.33M779.043 2009.6C788.669 2006.81 792.227 2016.27 792.856 2024C793.862 2036.35 796.597 2077.58 779.949 2081.45C768.879 2084.02 765.299 2073.39 763.817 2065C761.323 2050.88 760.954 2014.85 779.043 2009.6M1274 2043C1280.15 2043.06 1285.48 2043.48 1290 2048C1259.5 2046.87 1224.47 2043.25 1196 2050C1197.34 2042.43 1194.27 2016.91 1200.81 2012.4C1204.87 2009.6 1217.04 2012.03 1222 2012C1242.55 2011.88 1256.68 2012.82 1277 2017.26C1282.39 2018.44 1292.86 2015.71 1297.18 2019.26C1300.75 2022.21 1298.49 2039.1 1295.78 2042.44C1292.41 2046.59 1280.4 2038.9 1274 2043M1982 2012C1997.78 2019.45 1978.77 2033.82 1982 2012M2060 2037C2060.99 2043.98 2065.03 2071.09 2057.19 2075.29C2052.37 2077.87 2034.01 2062.05 2035.32 2056.89C2037.71 2047.48 2051.97 2043.59 2058 2037L2060 2037M1579 2038C1575.22 2046.75 1586.38 2060.12 1587.56 2052.67C1588.16 2048.91 1580.98 2041.43 1579 2038M808 2051C809.112 2066.53 851.115 2055.99 850 2043C837.875 2048.77 821.236 2055.72 808 2051M1023 2050.32C1036.03 2048.96 1053.6 2052.32 1040.18 2068.6C1031.31 2079.35 1011.62 2091.25 999 2097.18C981.73 2105.29 971.549 2098.24 955 2095.41C942.475 2093.26 914.504 2093.68 902 2096.42C890.006 2099.06 872.648 2114.5 861.003 2111.08C853.359 2108.84 831.835 2079.84 836.399 2071.94C841.155 2063.71 866.114 2054.87 875 2052.16C888.189 2048.14 899.286 2054.57 912 2055.81C919.032 2056.5 926.039 2052.84 933 2054.53C938.258 2055.8 941.646 2061.23 947 2061.87C956.49 2063.02 965.994 2054.48 975 2052.6C990.566 2049.33 1007.16 2051.97 1023 2050.32M1275.03 2051.75C1301.79 2045.68 1306.98 2080.4 1284 2084.47C1271.71 2086.64 1261.71 2054.77 1275.03 2051.75M1577 2054L1578 2055L1577 2054M1209.99 2056.55C1227.68 2054.13 1218.97 2093.53 1203.05 2094.11C1193.28 2094.46 1189.65 2069.7 1192.39 2063.06C1195.23 2056.17 1203.81 2057.4 1209.99 2056.55M2121 2057.3C2115.74 2058.31 2096.94 2085.87 2102.04 2089.46C2106.27 2092.43 2116.06 2065.95 2121 2064.64C2128.84 2062.57 2138.38 2088.12 2153.66 2082.87C2155.81 2082.13 2156.18 2079.93 2154.33 2078.59C2150.51 2075.83 2144.33 2076.71 2140.02 2074.43C2133.86 2071.18 2128.44 2055.89 2121 2057.3M881 2093C881.078 2089.45 876.855 2063.07 868.75 2068.54C862.632 2072.67 877.347 2090.79 881 2093M956 2093C954.339 2080.08 957.486 2081.08 948.122 2078.82C946.495 2078.43 944.061 2071.85 942.179 2074.11C935.65 2081.93 950.001 2092.47 956 2093M1011 2081C1008.74 2081.74 998.083 2088.95 997.294 2083.99C996.977 2082 1002.57 2076.12 1000.07 2074.76C997.115 2073.16 990.592 2084.33 991.179 2086.87C993.7 2097.8 1009.33 2087.22 1011 2081M2150.81 2097.3C2146.71 2098.18 2121.55 2110.91 2123.89 2112.08C2130.05 2115.15 2141.39 2105.19 2147.96 2105.45C2154.73 2105.71 2157.84 2116.91 2165.47 2114.49C2167.59 2113.82 2154.28 2096.56 2150.81 2097.3M559.542 2102.14C572.94 2107.12 566.864 2144.28 547.335 2135.02C537.604 2130.41 563.913 2126.88 561.357 2122.01C560.001 2119.43 551.207 2124.67 548.26 2121.74C540.38 2113.92 547.376 2097.62 559.542 2102.14z"/>
</svg>
