<?xml version="1.0" standalone="yes"?>
<svg xmlns="http://www.w3.org/2000/svg" width="2200" height="2200">
<path style="fill:#121212; stroke:none;" d="M77 274C101.871 273.377 103.189 245.852 115.999 230.458C117.975 228.084 131.917 221.254 134.201 224.506C135.983 227.045 133.151 232.897 133.637 236C135.242 246.25 136.575 261.659 143.421 269.912C147.794 275.184 161.369 281.875 161 270C142.124 275.623 137.163 238.445 140.762 226C148.045 200.82 175.79 173.845 165.631 145.099C161.422 133.189 135.209 137.527 134.685 122.915C134.195 109.25 145.46 88.019 151.48 76.0024C154.147 70.6797 160.159 65.3389 159.579 58.9993C158.67 49.0703 148.831 40.0383 142.661 33C138.25 27.9678 133.248 22.8535 127 20.1665C105.213 10.7961 104.173 36.095 104.008 51C103.741 74.9458 113.298 87.9583 118.378 110C121.981 125.628 120.647 142.224 122.861 158C123.749 164.333 125.674 199.847 131.217 201.894C134.744 203.197 134.011 194.556 133.959 193C133.62 182.794 130.811 172.058 129.001 162C125.823 144.346 128.291 125.366 123.573 108C118.584 89.6365 107.953 78.9211 108.001 59C108.019 51.2158 106.797 27.4397 116.107 24.6235C125.625 21.7446 133.232 31.9285 139.037 37.562C169.543 67.1685 130.833 89.907 129.151 124C128.243 142.395 159.018 136.425 160.852 151.003C162.499 164.095 157.024 202.986 143.358 209.485C135.943 213.011 125.073 201.97 116.703 209.744C109.704 216.244 108.033 234.126 103.39 243.001C96.7064 255.777 84.9707 262.855 77 274M237 173C259.111 137.682 196.637 98.9607 230.826 64.4319C235.124 60.0906 245.555 79.925 247.384 84C254.278 99.3599 248.473 112.844 251.759 127.499C252.529 130.929 258.663 130.147 260.617 133.284C263.561 138.008 262.986 146.617 262.999 152C263.033 166.321 266.131 186.891 249.68 192.377C243.874 194.313 232.056 187.839 228.305 192.523C227.623 193.373 218.635 207.614 218.639 207.163C218.589 212.61 224.097 214.341 222.239 221C218.179 235.554 210.007 249.125 207 264C220.512 258.898 221.949 232.422 228.637 221.069C232.012 215.339 241.164 213.566 247 211C247 225.258 242.83 247.831 251.682 260C258.321 269.128 278.164 281.746 283 264C250.706 268.466 244.192 231.391 252.067 204.008C253.77 198.085 259.599 196.756 262.584 191.874C267.488 183.853 267.461 172.105 267.922 163C268.432 152.925 271.208 124.054 257 123C260.529 103.065 255.069 86.8862 244.551 70.2173C242.129 66.3804 238.523 56.2083 233.624 55.2451C225.65 53.6775 216.393 77.1042 214.915 83C210.805 99.3958 221.044 109.43 226.36 124C232.121 139.788 234.234 156.54 237 173M1272 75C1290.22 77.5869 1319.48 81.426 1333.1 94.3682C1401.93 159.827 1342.87 286.536 1249 277.844C1176.3 271.113 1198.46 171.658 1219.99 129C1228.57 111.998 1248.06 91.2891 1269 91.2891C1273.7 91.2891 1307.25 103.032 1297.82 96.1069C1272.73 77.6687 1239.93 91.1113 1222.99 114C1204.14 139.451 1198.39 176.263 1195.87 207C1195.19 215.374 1190.69 225.747 1192.64 233.96C1201.86 272.721 1244.48 289.908 1280 280.485C1297.37 275.877 1314.51 263.334 1329 253.057C1349.7 238.368 1365.34 213.37 1368.66 188C1374.03 146.906 1356.48 88.1331 1311 79.0002C1302.18 77.2297 1278.68 66.9136 1272 75M1695 106C1708.08 103.628 1713.72 116.909 1698 116.871C1673.91 116.812 1649.34 112.059 1625 112.001C1618.18 111.985 1603.68 110.113 1597.82 113.822C1592.16 117.401 1594 146.404 1594 153C1593.98 183.672 1591.99 215.537 1588.56 246C1587.64 254.155 1587.48 279.217 1593.75 285.149C1600.42 291.456 1596.35 271.292 1596.09 269C1593.6 247.333 1594.32 225.762 1596.94 204C1599.17 185.517 1600 165.628 1600 147C1600 139.641 1597.92 126.947 1602.25 120.524C1607.05 113.42 1620.97 116.159 1628 116.783C1650.74 118.802 1672.64 120.633 1695 123.53C1701.92 124.427 1708.67 115.246 1714.92 118.144C1721.84 121.35 1732.24 135.445 1733.28 143C1737.34 172.771 1728.27 213.285 1723.59 243C1722.19 251.937 1725.91 274.227 1718.58 280.259C1714.04 283.989 1704.29 281.352 1699 280.521C1683.31 278.056 1670.94 274.677 1655 278.335C1636.76 282.522 1619.71 289.226 1601 291.436C1598.46 291.735 1584.41 291.064 1585.32 295.723C1585.96 298.962 1598.44 296.038 1601 295.995C1619.2 295.688 1636.8 288.568 1654 283.346C1674.64 277.08 1704.16 296.197 1721.76 285.74C1728.87 281.511 1727.84 265.199 1727.98 258C1728.51 231.961 1733.49 206.14 1734.02 180C1734.1 176.015 1737 149.198 1739.47 151.003C1744.37 154.586 1744.6 165.549 1745.2 171C1747.39 190.916 1749.4 212.014 1747.32 232C1739.89 303.426 1673.53 349.724 1606.98 316.824C1594.02 310.418 1584.17 305.079 1575.31 293C1566.09 280.444 1561.18 262.126 1558.2 247C1554.02 225.729 1555.3 202.558 1561.86 182C1570.42 155.19 1572.11 132.973 1591.64 111.086C1606.29 94.668 1645.06 79.8181 1667 80.0083C1678.39 80.1069 1706.41 89.238 1714 79C1696.65 78.6704 1678.31 73.113 1661 75.2585C1646.67 77.0339 1633.4 84.4832 1620 89.29C1580.73 103.378 1569.49 134.027 1560.13 171C1548.18 218.178 1544.94 275.493 1585.46 311.522C1632.32 353.191 1717.02 335.729 1741.62 277C1754.95 245.187 1758.35 205.065 1751.41 171C1747.81 153.38 1739.07 139.532 1736.64 122C1734.13 103.853 1728.31 112.586 1716 107.879C1709.24 105.295 1700.8 97.5261 1695 106M486 111C488.029 119.919 500.155 125.375 506.997 130.734C516.517 138.189 535.643 161.418 536.215 174.136C536.532 181.184 529.361 189.535 526.923 196C519.564 215.51 511.04 234.343 503.858 254C501.995 259.099 490.924 271.435 492.954 276.326C495.889 283.401 507.101 260.098 507.989 258C518.971 232.04 530.003 206.403 542 181C550.869 195.913 556.275 212.822 564.703 228C567.446 232.94 573.7 241.35 570.314 247C562.973 259.248 546.722 269.368 534 275C526.964 278.115 513.171 282.652 510 290C525.621 289.276 547.024 276.173 558.136 265.67C561.091 262.877 570.546 250.301 575.16 252.426C589.098 258.847 586.737 292.749 600 302C604.211 282.419 604.397 261.933 604.957 242C605.2 233.336 600.861 223.948 606.427 216.32C618.82 199.335 637.863 182.165 656.008 171.578C659.648 169.454 677.432 164.785 677.432 160.96C677.432 155.183 662.153 153.452 658 152.601C638.262 148.558 611.29 149.856 593.147 141.734C578.76 135.294 586.843 90.4685 570.486 84.7612C566.77 83.4646 564.492 92.73 563.728 95C561.381 101.972 559.53 127.125 552.579 130.098C548.038 132.04 540.523 127.968 536 126.936C519.096 123.076 502.913 114.278 486 111M900 86.5168C851.133 94.6077 815.062 146.988 822.758 196C828.795 234.446 851.367 276.729 896 269.602C955.021 260.177 996.162 194.774 983.301 138C979.962 123.26 972.941 98.5425 958.992 90.4832C945.743 82.8289 914.895 84.0508 900 86.5168M936 101C957.568 83.5999 968.534 106.178 974.285 126C983.138 156.515 982.085 192.898 962.06 219C943.284 243.472 914.836 264.648 883 264.992C868.493 265.149 848.241 256.701 843.624 241.078C841.13 232.64 888.305 188.262 858.981 213.401C856.193 215.792 853.591 218.392 851.008 221.001C846.965 225.082 843.478 229.443 840 234C807.026 194.488 835.432 113.846 880 96.1931C890.635 91.9807 945.247 83.2297 936 101M570 95C573.701 100.882 588.134 132.949 582.699 138.738C579.201 142.463 560.655 136.398 559.76 131.735C558.087 123.017 566.284 102.982 570 95M1332 185C1332.92 177.42 1337.72 160.981 1337.03 154.823C1335.76 143.615 1322.4 131.944 1318 121C1307.72 128.964 1295.69 160.882 1283.19 162.919C1279.16 163.576 1262.97 129.324 1265.74 125.336C1281.97 101.894 1294.61 123.361 1312 125C1299.96 91.48 1245.41 123.691 1230.04 139.044C1218.13 150.943 1225.74 159.078 1223.62 173C1221.5 186.898 1211.22 198.963 1220.64 213.577C1224.48 219.524 1236.31 220.341 1241.68 226.157C1250.08 235.254 1266.46 252.714 1281.77 248.142C1286.08 246.854 1286.14 240.356 1289.94 238.356C1293.17 236.652 1297.34 239.302 1301 237.647C1312.43 232.479 1321.57 217.933 1326.54 207C1329.12 201.317 1341.43 187.583 1332 185M960 144C951.959 131.347 919.593 161.968 912 168C908.066 156.899 897.937 166.564 892.444 155.994C889.713 150.739 878.936 112.415 873.596 114.106C869.511 115.399 873.729 123.745 874.6 126C878.831 136.965 885.261 148.584 887.977 159.979C889.508 166.402 880.066 169.03 877.501 174.043C873.381 182.097 878.475 193.01 882.667 199.997C891.262 214.319 901.113 203.242 910.245 209.896C914.084 212.693 922.602 241.899 926.264 240.239C932.955 237.205 914.872 207.257 915.34 202C918.017 171.932 929.098 153.779 960 144M1733 129C1712.76 120.824 1730.29 102.581 1733 129M1904.41 117.322C1902.17 119.789 1922.52 141.587 1925 144.864C1948.82 176.244 1976.32 202.86 2003.92 230.96C2007.06 234.156 2031.46 261.005 2034.91 256.792C2037.44 253.716 2010.94 230.633 2007.67 227.018C1981.22 197.736 1952.14 172.246 1929.12 140C1926.75 136.683 1908.73 112.559 1904.41 117.322M505 123C512.622 123.353 547.634 131.427 551.482 137.813C554.207 142.334 544.902 167.608 539.358 166.677C536.201 166.147 533.077 157.476 531.411 155C523.712 143.561 512.069 134.249 505 123M1639 132C1702.18 108.886 1736.67 222.732 1689 256.263C1630.9 297.121 1603.12 211.279 1622.44 168C1625.72 160.647 1641.19 134.58 1644.47 134.616C1633.7 134.497 1623.12 152.964 1619.28 161C1606.95 186.767 1607.38 238.182 1626.75 260.618C1646.34 283.305 1692.75 267.283 1706.43 246.562C1724.45 219.27 1718.44 188.562 1705.66 161C1697.05 142.408 1681.76 128.509 1661 126.236C1652.73 125.33 1640.55 121.41 1639 132M1278 169C1272.6 166.064 1247.6 137.312 1254.51 132.211C1261.72 126.892 1276.9 163.24 1278 169M1318 145C1332.56 142.279 1298.33 167.071 1292 170C1289.19 162.24 1305.02 138.199 1312.51 134.408C1318.87 131.193 1318.88 141.772 1318 145M1267 166C1253.77 161.652 1243.22 150.012 1230 147C1243.33 123.455 1262.69 148.964 1267 166M559.363 139.525C592.017 133.706 602.062 193.748 598.55 216.993C597.667 222.834 584.164 239.332 577.98 239.755C572.633 240.12 566.448 222.107 564.379 218C552.484 194.383 541.474 180.85 552.191 156C553.783 152.309 554.765 140.344 559.363 139.525M1645 150C1679.49 151.195 1706.91 228.861 1665 240.292C1636.94 247.945 1631.07 190.221 1635.74 174C1638.72 163.641 1644.22 165.592 1649.58 160.444C1651.6 158.508 1650.9 154.675 1647.94 154.301C1629.66 151.997 1630.93 183.398 1631 193C1631.09 206.106 1631.1 219.281 1638 231C1647.41 246.983 1669.32 249.595 1680.87 235.352C1692.05 221.563 1694.42 200.294 1687.02 184C1681.31 171.423 1671.87 158.381 1660 151.199C1656.08 148.829 1646.96 143.101 1645 150M665 158C662.308 164.445 652.553 168.399 647 172.422C632.229 183.125 616.985 206.381 601 213C600.936 197.012 597.096 181.577 594.093 166C593.349 162.14 589.216 152.312 592.279 148.977C594.733 146.304 607.423 150.025 611 150.437C628.481 152.451 647.503 158.566 665 158M1266 173C1253.16 174.437 1241.12 169.887 1229 170C1228.88 166.188 1226.82 156.128 1230.26 153.386C1233.9 150.48 1263.98 168.673 1266 173M1318 167C1317.76 171.041 1306.41 173.71 1304.56 170.336C1303.15 167.753 1322.63 153.334 1326.28 155.354C1333.79 159.511 1324.2 168.35 1318 167M901.001 167.343C920.887 165.789 917.362 203.58 899 204.764C886.456 205.572 877.561 184.229 883.383 174.205C886.498 168.844 895.431 167.778 901.001 167.343M1647.16 174.399C1632.82 184.136 1650.27 236.909 1667.95 225.957C1682.8 216.758 1672.38 191.317 1662.82 182.375C1660.26 179.98 1650.88 171.875 1647.16 174.399M1265 176C1261.32 185.158 1245.18 195.613 1237.93 202.921C1235.75 205.115 1231.02 211.022 1227.37 209.464C1214.88 204.134 1223.38 179.227 1234.02 176.493C1243.09 174.16 1255.3 177.286 1265 176M1323 175C1318.91 189.781 1292.72 188.288 1285 176C1296.65 173.546 1310.93 175.409 1323 175M909 177L908 181C909.747 179.728 910.182 179.026 911 177L909 177M1652.17 181.081C1665.35 182.75 1676.1 222.57 1661.97 221.214C1649.91 220.057 1642.14 179.812 1652.17 181.081M243 186C239.023 181.263 237.028 186.843 243 186M1298 232C1304.81 222.839 1284.08 192.86 1280 182C1291.18 183.7 1300.21 189.647 1312.01 190.677C1315.04 190.942 1322.68 188.466 1324.96 190.415C1327.37 192.483 1323.22 199.683 1322.43 202C1319.12 211.727 1309.5 230.764 1298 232M1327 182.333C1327.77 182.333 1327.16 182.831 1326.67 182.667L1327 182.333M1264 184C1263.05 190.207 1245.95 220.875 1239.04 217.169C1229.34 211.965 1258.49 186.932 1264 184M1270 186C1273.92 198.543 1272.87 212.973 1274.57 226C1274.92 228.724 1278.09 236.989 1276.52 239.178C1268.42 250.472 1247.51 230.864 1249.28 220C1251.39 207.117 1263.93 198.14 1268 186L1270 186M1277 187C1285.61 197.945 1303.83 234.375 1280 237C1280.65 222.094 1272.5 200.784 1277 187M246 198C240.014 223.004 216.811 198 246 198M117 222C121.024 207.034 145.586 215.664 124.011 220.973C121.669 221.55 119.399 221.834 117 222M599 226C604.334 245.604 599.002 267.929 599 288C592.905 283.733 578.593 253.23 580.256 246.001C581.896 238.873 593.372 230.21 599 226M1605 394C1601.08 402.373 1604.47 411.222 1604.92 420C1606.13 443.687 1617.72 487.808 1608.18 509.871C1604.52 518.336 1578.38 520.167 1570 521.96C1567.8 522.432 1557 522.728 1557 525.981C1557 529.901 1568.17 527.17 1570 526.699C1577.68 524.719 1607.38 512.487 1608.84 525.014C1610.95 543.058 1607.83 564.875 1606.22 583C1605.7 588.812 1607.15 597.472 1603.75 602.576C1599.06 609.616 1573.38 612.751 1565 616.726C1562.32 617.996 1553.82 620.391 1555.11 624.716C1556.43 629.155 1563.97 623.986 1566 622.86C1572.96 618.996 1595.01 606.908 1603.06 610.853C1606.89 612.73 1605.93 624.379 1606.32 628C1608.17 645.408 1608.33 662.551 1610.69 680C1611.36 684.936 1611.2 699.357 1618.07 700.214C1622.11 700.718 1615.79 683.438 1615.24 680C1612.46 662.604 1612.54 645.401 1610.56 628C1609.84 621.623 1607.08 612.039 1614.07 608.26C1625.67 601.989 1652.17 604.995 1665 606.438C1669.72 606.969 1677.67 605.502 1680.5 610.226C1688.5 623.578 1680.22 651.167 1699 658C1691.08 642.754 1687.61 626.122 1687 609C1696.09 611.123 1705.71 612.131 1715 613C1708.82 603.172 1691.19 610.207 1686.82 600.756C1682.65 591.747 1685 576.726 1685 567C1685 557.555 1681.45 522.334 1688.82 516.157C1695.32 510.714 1717.34 516.845 1725 518.184C1755.2 523.467 1786.62 527.379 1817 532C1815.59 522.404 1795.72 522.44 1788 520.621C1764.62 515.112 1739.78 515.057 1716 512.061C1709.14 511.197 1695.19 512.834 1689.58 508.617C1685.89 505.842 1688 495.153 1688 491C1688 473.202 1688.91 456.404 1692 439C1671.55 453.81 1691.49 488.725 1681.18 507.501C1677.76 513.722 1650.63 509.998 1644 510C1637.27 510.002 1620.46 514.745 1614.98 510.987C1609.79 507.424 1613.03 486.847 1613 481C1612.89 460.668 1610.11 440.299 1609.08 420C1608.64 411.336 1611.04 401.096 1605 394M1735 409C1730.64 419.469 1747.2 427.623 1747.88 438C1748.63 449.585 1723.05 463.159 1726.16 474.455C1727.96 480.972 1748.51 446.136 1752.76 446.507C1759.62 447.106 1771.81 469.975 1774 476C1784.88 470.641 1759.38 449.039 1758.48 441.04C1757.5 432.3 1776.76 423.809 1772.18 413.649C1770.76 410.502 1758.35 434.735 1753.34 433.239C1746.37 431.155 1740.81 414.177 1735 409M1351 424C1338.82 428.255 1350.45 460.203 1359.26 462.251C1362.93 463.103 1365.07 452.438 1366.26 450C1372.31 437.551 1381.57 424.813 1384 411C1371.12 416.812 1360.69 470.801 1351 435C1350 431.323 1350.66 427.718 1351 424M1983 414.784C1958.91 421.181 1943.31 464.61 1934.23 485C1932.75 488.313 1920.77 513.065 1926.79 512.214C1932.51 511.409 1937.27 492.723 1939.06 488C1946.89 467.313 1958.47 441.267 1975 426.155C1993.4 409.339 2017.62 462.784 2046 451.557C2055.04 447.981 2069.65 421.594 2078.64 423.864C2082.87 424.932 2083.43 433.564 2083.78 437C2085.14 450.619 2083.43 464.348 2085.01 478C2086.4 490.005 2097.4 495.868 2100.17 507C2103.59 520.76 2082.56 554.904 2069.28 559.149C2062.15 561.431 2054.99 540.406 2049.95 545.774C2045.87 550.111 2062.37 564.386 2067 564.329C2086.87 564.083 2108.78 518.605 2104.48 502C2101.22 489.412 2089.17 484.495 2088.14 470C2087.22 457.168 2092.5 431.489 2085.5 420.672C2080.54 413.003 2071.69 419.916 2067 424.158C2059.14 431.276 2051.39 446.066 2040 447.633C2027.81 449.311 2009.85 436.365 2002.15 427.981C1996.89 422.265 1992.42 412.284 1983 414.784M1229 419C1229 442.155 1228.75 464.91 1227.14 488C1226.58 495.901 1228.48 507.495 1225.18 514.794C1221.97 521.882 1191.65 520.123 1191.76 526.78C1191.89 534.512 1222.49 516.64 1224.72 527.078C1227.8 541.55 1223.04 559.629 1222.3 574C1221.91 581.642 1226.32 592.685 1227.04 601C1227.31 604.193 1229.74 624.474 1234.14 623.677C1239.05 622.786 1235.5 614.465 1234.66 612C1232.36 605.274 1226.53 582.165 1232.51 576.803C1236.88 572.882 1247.39 573.202 1253 572.457C1258.98 571.662 1283.35 566.312 1286.74 571.365C1293.41 581.31 1289.32 604.368 1290.14 616C1290.35 619.058 1289.97 629.919 1294.04 630.677C1297.82 631.382 1295.37 621.609 1295.14 620C1293.43 608.13 1293 595.983 1293 584C1293 572.26 1299.75 569.719 1301 561C1285.37 562.836 1290.36 526.053 1288 514C1308.37 512.751 1322.84 510.85 1342 519C1338.84 494.917 1299.91 516.138 1288.82 507.7C1285.05 504.826 1286.17 492.389 1285.92 488C1284.9 469.74 1283.35 452.275 1284 434C1265.3 446.721 1287.82 488.755 1281.84 506.635C1280.12 511.769 1234.45 518.247 1231.58 513.421C1228.91 508.937 1231.88 499.965 1231.98 495C1232.36 477.009 1235.64 458.98 1234.21 441C1233.66 434.108 1236.59 422.486 1229 419M777 617C785.952 617.985 788.891 593.339 791.54 585C803.042 548.803 816.821 513.584 830.024 478C831.893 472.961 846.56 442.637 844.636 440.028C842.058 436.531 837.089 445.512 836.296 447.003C830.857 457.23 827.581 469.112 823.643 480C807.532 524.545 786.153 570.32 777 617M114.437 448.544C109.352 451.037 128.097 478.336 130.701 483C151.289 519.877 174.478 555.505 196.993 591.217C200.093 596.136 216.364 631.8 223.221 627.534C228.66 624.15 208.227 599.305 205.123 594C183.902 557.735 163.051 519.907 139.724 485C136.581 480.297 120.567 445.538 114.437 448.544M913 638C928.325 634.459 934.838 604.878 939.416 592C956.069 545.161 984.492 496.221 995 448C982.466 451.038 975.432 481.933 971.672 493C958.695 531.187 943.71 568.446 929.059 606C924.807 616.902 915.821 626.828 913 638M246 616C251.43 604.154 245.431 582.697 247.361 569C251.162 542.022 263.857 516.724 269.283 490C270.198 485.496 272.922 451.643 271.04 451.643C262.205 451.643 263.436 485.066 262.221 491C255.901 521.887 241.363 552.062 241.008 584C240.897 593.949 238.722 608.164 246 616M925 498C934.662 491.465 941.813 463.303 943 452C931.004 458.652 925.586 485.031 925 498M579 587C580.95 587.039 588.29 588.017 587.677 584.295C586.729 578.537 576.708 580.402 573.085 578.579C566.273 575.15 546.808 554.019 551.265 546.012C559.486 531.244 578.973 539.646 588 526C579.223 526.611 570.571 530.053 562 532C568.466 517.287 589.807 488.702 602.446 478.837C605.36 476.563 625.013 484.027 624.214 477.854C623.311 470.869 598.561 470.218 593 469.923C562.955 468.33 532.95 465.493 503 462.962C497.814 462.524 478.881 454.785 475.329 458.253C472.1 461.405 482.694 480.159 485.244 482.864C500.354 498.893 511.892 514.503 524.197 532.62C527.768 537.88 537.847 542.666 538.967 549.217C540.873 560.367 524.174 566.309 519.175 572.098C516.333 575.39 516.713 583.408 513.421 588C504.771 600.066 480.03 621.497 477.911 635.86C476.312 646.693 499.101 643.707 505 644.32C531.111 647.036 556.977 649.411 583 652.322C588.145 652.898 605.078 657.77 609.116 654.645C617.362 648.261 590.163 646.64 588 646.298C563.358 642.408 538.718 642.222 514 639.438C509.778 638.963 486.643 640.895 486.643 634.716C486.643 630.156 493.736 625.405 496.264 622C499.529 617.603 502.991 608.881 508.22 606.554C516.991 602.65 544.095 610.747 554 613.018C558.44 614.037 575.488 619.882 578.592 615.22C582.37 609.548 565.615 608.634 563 608.215C549.26 606.009 492.27 601.59 525.934 581.435C529.328 579.403 537.949 581.977 542 582.002C578.253 582.233 583.146 607.944 605.358 631.562C609.412 635.872 621.689 660.041 629.149 655.515C633.842 652.667 621.419 641.193 619.562 639C605.292 622.154 593.016 603.928 579 587M955 658C969.948 649.655 973.388 616.51 976.315 601C982.242 569.596 989.471 534.753 1001.22 505C1007.8 488.324 1018.58 473.236 1025 457C1009.3 460.511 1001.18 490.577 996.481 504C978.914 554.146 973.721 608.332 955 658M909 498C910.604 497.658 926.607 465.579 925.194 463.361C923.285 460.363 918.821 469.731 917.806 470.917C910.068 479.955 909 486.404 909 498M886 465C869.572 474.073 865.052 492.618 860.113 509C851.901 536.237 842.557 563.198 833.058 590C831.349 594.822 815.987 629.714 821.696 631.894C825.614 633.391 835.548 597.487 837.193 593C849.646 559.02 858.391 523.742 871.376 490C874.883 480.889 882.574 474.233 886 465M596 475C588.602 508.205 538.265 559.078 517 509C533.645 508.093 552.841 495.908 569 505C567.898 481.215 522.658 509.372 513.482 504.486C505.309 500.135 494.187 484.24 488.347 477C486.871 475.171 482.36 468.902 485.865 466.907C490.966 464.003 506.889 469.607 513 469.922C540.74 471.353 568.138 475 596 475M1914 493C1898.53 504.858 1908.69 534.496 1917.19 547.991C1931.62 570.877 1960.47 517.313 1971.22 554C1976.76 572.92 1953.67 616.124 1940.98 628.992C1932.16 637.933 1913.33 647.836 1909 629C1903.17 633.83 1908.38 641.673 1914.01 644.34C1920.64 647.479 1932.07 644.403 1937.65 640.189C1955.49 626.712 1963.63 602.399 1970.56 582C1973.59 573.08 1973.55 559.091 1985 558C1971.35 542.434 1989.22 521.788 1979.84 504.314C1977.37 499.73 1972.77 504.277 1972.64 507.893C1972.27 518.098 1974.53 533.373 1975 545C1969.85 541.604 1966.85 534.618 1960 534.287C1947.87 533.7 1936.84 550.319 1926.02 547.862C1905.41 543.178 1914.19 504.534 1914 493M218 508C221.045 491.523 188.313 498.592 179.001 498.565C176.171 498.557 170.756 499.857 171.323 503.797C171.966 508.258 179.413 505.592 182 505.25C195.177 503.508 205.675 503.004 218 508M1936 503C1940.19 503 1946.93 504.002 1948 499C1943.59 499.282 1939.13 499.646 1936 503M2025.33 503.667C2025.28 503.722 2025.22 504.778 2025.67 504.333C2025.72 504.278 2025.78 503.222 2025.33 503.667M2024.33 508.667C2024.28 508.722 2024.22 509.778 2024.67 509.333C2024.72 509.277 2024.78 508.223 2024.33 508.667M1278.87 514.469C1287.04 514.636 1289.19 555.141 1285.52 561.396C1281.74 567.857 1240.74 570.661 1233.15 569.58C1226.27 568.6 1227.72 527.856 1231.26 522.424C1235.21 516.366 1271.01 514.308 1278.87 514.469M1641 514.32C1647.96 513.595 1676.1 510.177 1680.61 515.822C1685.8 522.321 1680.1 545.746 1680.01 554C1679.93 560.998 1683.5 600.693 1676.85 601.499C1661.52 603.357 1645.36 598.722 1630 600.32C1625.59 600.779 1614.5 603.801 1610.86 600.733C1607.75 598.105 1609.87 585.845 1610.14 582C1611.12 567.872 1605.68 529.818 1614.38 518.803C1618.4 513.719 1634.94 514.952 1641 514.32M2022.33 519.667C2022.28 519.722 2022.22 520.778 2022.67 520.333C2022.72 520.278 2022.78 519.222 2022.33 519.667M2021 525L2021 529C2021.51 527.308 2021.51 526.692 2021 525M229 544C232.3 526.823 185.974 533.978 187.323 541.396C187.905 544.596 195.223 541.565 197 541.302C207.224 539.791 219.451 540.114 229 544M549 537C546.508 546.372 540.555 543.763 538 536C541.748 536.651 545.184 537.205 549 537M2019.33 537.667C2019.28 537.722 2019.22 538.778 2019.67 538.333C2019.72 538.277 2019.78 537.223 2019.33 537.667M2017 545L2014 562C2018.04 558.428 2018.56 549.989 2017 545M544.204 556.323C548.156 555.723 564.084 575.731 558.686 576.937C554.052 577.972 535.112 579.085 532.063 575.061C529.495 571.672 540.606 556.87 544.204 556.323M2012 570C2011.79 571.87 2011.79 573.127 2012 575C2012.63 572.994 2012.63 572.005 2012 570M2011 577C2009.16 580.853 2008.75 584.83 2008 589C2011.32 585.426 2012.56 581.724 2011 577M234 581C229.701 582.362 212.1 581.339 210.881 583.665C208.486 588.234 230.933 593.794 234 581M2008 590C2005.45 600.215 1998.91 626.216 2004.29 635.759C2012.12 649.629 2053.61 647.322 2061 635C2049.15 636.349 2013.32 647.108 2007.49 628.9C2003.42 616.179 2011.96 601.883 2008 590M501 629C504.397 627.994 506.782 627.478 508 624C504.562 624.914 502.899 625.983 501 629M166 750C149.796 750.026 128.869 766.483 116 776.261C102.983 786.152 83.0945 789.657 72.7297 802.831C67.9839 808.862 70.8085 820.63 69.4231 828C63.8154 857.83 62.402 881.865 64.8711 912C66.144 927.534 66.9416 943.456 65.3202 959C64.9953 962.114 62.7046 973.514 65.6931 975.456C69.7555 978.096 70.4688 960.027 70.6798 958C72.5713 939.83 64.5444 913.783 71.921 897.06C75.0669 889.928 85.9662 885.568 92 881.136C107.608 869.673 122.866 858.016 138.981 847.16C144.528 843.424 155.848 839.271 159.74 834.207C165.225 827.073 162.867 806.357 162.113 798.003C160.923 784.815 163.762 763.34 166 750M161 751C160.25 766.009 157.738 782.31 158.019 797C158.203 806.668 161.24 820.138 155.96 828.981C146.233 845.272 119.392 856.291 104 866.487C94.1397 873.019 85.4203 885.441 73 887C77.582 868.674 77.9829 846.869 77.9998 828C78.0043 823.047 73.8497 809.447 75.4041 806.058C80.0927 795.838 96.963 792.285 106 787.858C125.57 778.27 141.802 761.144 161 751M453.659 759.761C450.119 761.542 457.484 790.794 461.596 791.763C466.018 792.805 479.12 785.263 484 783.665C500.652 778.21 514.947 779.596 532 777.43C536.666 776.837 545.36 771.495 549.507 773.008C557.989 776.103 558.898 810.874 560.17 819.019C560.421 820.626 562.433 832.829 565.402 831.239C568.325 829.673 564.237 818.628 563.904 816C562.489 804.852 561.49 775.021 551.297 768.088C546.893 765.092 537.878 772.252 533 772.823C520.24 774.316 507.544 771.625 495 775.255C487.134 777.532 472.564 786.605 464.642 785.308C458.988 784.383 456.957 758.102 453.659 759.761M1585 773C1571 794.966 1551.07 821.267 1543 846C1557.27 835.564 1567.15 807.265 1576.41 792.078C1579.59 786.856 1587.57 779.399 1585 773M1591 775C1586.51 789.598 1586.52 819.019 1593 833C1595.06 821.891 1596.42 784.018 1591 775M1954 795C1954.53 800.695 1946.5 810.161 1944 816C1935.39 836.133 1922.85 856.612 1917.7 878C1912.81 898.331 1923.22 923.666 1930.91 942C1932.02 944.661 1937.23 961.129 1940.01 960.677C1946.86 959.565 1956.76 933.089 1960.36 927C1968.01 914.064 1980.99 897.344 1985.05 883.007C1987.12 875.703 1981.9 870.474 1980.32 863.993C1976.43 848.008 1972.09 811.185 1957 802C1958.05 798.288 1957.48 796.731 1954 795M461 798C455.883 808.978 460.745 826.457 462.523 838C466.567 864.255 470.026 890.84 473 917L475 917C474.992 906.036 466.88 884.824 471.639 874.894C474.059 869.845 482.299 868.002 487 865.781C503.267 858.097 522.788 854.676 540 848.788C545.078 847.05 556.806 842.223 561.395 846.701C570.055 855.152 573.035 890.021 573.885 902C574.267 907.375 572.046 918.889 576.036 923.156C583.57 931.214 622.706 918.336 626 910C612.401 910.007 592.417 927.797 579.502 918.74C575.552 915.97 577.399 907.255 576.853 903C574.869 887.536 571.855 872.237 568.255 857C567.471 853.683 567.844 842.575 565.16 840.822C558.613 836.545 545.426 842.606 539 844.678C516.306 851.996 493.793 863.066 471 869C470.833 850.96 469.206 813.875 461 798M1957 802C1962.91 819.061 1970.81 835.49 1974.8 853C1975.78 857.325 1980.02 867.159 1976.16 870.876C1970.53 876.295 1954.25 872.543 1947 873.099C1940.86 873.571 1927.56 883.32 1922.01 877.74C1918.63 874.355 1926.04 862.396 1927.62 859C1934.56 844.069 1942.67 810.549 1957 802M826 975L829 975C829.092 959.896 864.594 956.374 875.629 964.387C886.875 972.555 891.51 999.301 896.516 1012C897.577 1014.69 905.132 1034.63 908.264 1031.89C911.228 1029.3 908.093 1020.48 908.019 1017C907.719 1002.86 910.67 989.015 910.563 975C910.336 945.335 914.45 913.126 918.44 883C919.33 876.279 915.162 869.856 916.281 863C918.575 848.94 926.79 829.268 926.041 815.405C925.627 807.734 910.629 809.245 906.217 809.064C893.08 808.525 847.971 806.097 841.26 817.399C835.449 827.184 839.823 846.824 838.562 858C835.369 886.295 835.311 914.646 832.783 943C831.661 955.573 826.489 962.122 826 975M915 881C895.018 876.328 875.755 886.554 856 884.569C852.136 884.181 843.958 886.768 840.865 884.478C837.332 881.862 841.972 862.638 841.997 858C842.054 847.594 839.22 823.479 847.785 815.815C852.527 811.571 859.688 815.065 865 815.74C879.018 817.519 891.614 811.191 905 811.583C909.368 811.71 918.121 811.003 920.622 815.526C922.768 819.407 919.499 827.565 919.395 831.96C918.975 849.704 912.977 862.96 915 881M73 835C72.8213 854.344 73.3523 879.448 68 898C59.6192 883.444 65.7146 850.094 71 835L73 835M1233 840L1233 842C1242.44 841.065 1248.45 839.844 1258 842C1252.76 830.335 1241.48 838.96 1233 840M1593 835C1593.99 851.607 1596.68 868.403 1597 885C1600.79 878.036 1598.73 840.086 1593 835M1230 842C1222.47 849.676 1207.19 862.427 1208.23 874.724C1208.58 878.91 1220.65 882.504 1224 884.729C1238.94 894.647 1246.45 907.663 1264 913.766C1270.64 916.074 1299.48 924.458 1299.48 933.01C1299.48 937.837 1280.87 943.163 1277 945.305C1254.79 957.597 1224.31 963.158 1204.56 978.616C1198.77 983.149 1176.84 1000.31 1190 1007C1190.25 995.383 1198.93 988.157 1208 981.865C1229.33 967.071 1258.87 960.447 1282 947.579C1287.2 944.686 1305.24 939.802 1306.89 933.799C1308.39 928.375 1289.81 920.422 1286 918.173C1266.45 906.63 1249.79 903.536 1232.65 887.377C1229.45 884.357 1220.92 880.183 1219.64 875.93C1217.66 869.323 1250.52 853.887 1254 846C1242.88 851.211 1231.81 859.352 1222.12 866.905C1221.03 867.75 1213.34 875.615 1212.81 871.266C1211.35 859.363 1230.95 852.788 1230 842M1536 995C1544.06 989.477 1540.01 966.998 1540 958C1539.95 923.379 1543 888.735 1543 854C1535.22 857.082 1539 880.584 1539 888C1539 923.679 1536.13 959.309 1536 995M1940 954C1934.05 936.026 1913.97 907.153 1920.52 887.284C1924.19 876.147 1956.81 877.167 1966 876.98C1969.67 876.905 1977.15 873.985 1979.74 877.544C1983.46 882.67 1976.9 892.321 1974.66 896.981C1967.55 911.748 1953.75 945.302 1940 954M1209 881C1209.03 884.139 1209.23 886.956 1210 890C1211.73 886.442 1211.42 884.104 1209 881M906 1020C898.058 1014.1 880.507 974.617 884.999 964.822C886.447 961.665 905.112 962.74 903.919 958.069C903.145 955.04 890.364 959.005 888 959.302C875.167 960.912 861.071 954.915 849 957.923C845.826 958.713 837.196 962.281 835.543 957.498C831.535 945.91 837.138 917.661 838.562 905C838.955 901.506 837.069 891.622 839.9 889.335C844.774 885.397 864.02 889.351 871 887.995C878.548 886.529 907.219 878.999 912.738 885.822C917.793 892.072 911.347 916.26 910.309 924C906.142 955.051 905.709 988.525 906 1020M1598 889L1597 893C1598.66 891.596 1598.75 891.046 1598 889M1213 893C1214.27 901.048 1224.48 926.663 1232 930C1228.21 919.143 1223.17 899.116 1213 893M1595 896C1592.74 900.497 1590.52 905.448 1596 908C1584.19 930.186 1599.52 962.225 1587.75 983.99C1582.98 992.814 1545.5 1001.07 1553 983C1548.04 986.119 1543.79 991.87 1541 997C1553.11 996.888 1580.69 998.418 1590.2 989.837C1594.78 985.7 1592.62 972.794 1593.45 967C1596.75 943.784 1596.18 919.49 1597 896L1595 896M1586 912L1584 919C1586.42 916.993 1587.17 915.018 1588 912L1586 912M474 918C474.209 925.426 473.596 947.827 483 947C480 938.838 480.434 924.004 474 918M72 978C80.3054 978.597 88.5203 970.653 95.3202 966.478C113.096 955.564 130.312 943.981 149 934.627C153.376 932.437 174.222 928.256 172.436 922.5C171.339 918.964 149.522 929.978 146.078 931.546C123.666 941.757 88.3262 959.519 72 978M1582 920C1579.94 925.619 1576.97 930.815 1574 936L1575 937C1578.77 931.661 1581.81 926.167 1584 920L1582 920M484 948C502.691 947.743 523.975 935.011 542 930.219C551.538 927.683 561.131 929.193 569 922C550.461 919.922 521.488 931.79 504 937.88C497.626 940.1 488.022 942.344 484 948M173 929C169.282 952.532 179.583 985.041 184.738 1008C186.337 1015.12 184.195 1028.48 192 1032C190.781 998.065 180.816 962.493 175 929L173 929M1232 934C1232.08 938.236 1232.61 941.989 1234 946C1235 942.121 1234.08 937.995 1234 934L1232 934M1573 938L1572 943C1572.83 941.168 1573.11 940.002 1573 938M1569 945L1569 949C1569.51 947.308 1569.51 946.692 1569 945M1568 950L1569 951L1568 950M1234 952L1235 956C1235.75 953.953 1235.66 953.404 1234 952M1564 955C1560.95 964.275 1555.45 972.44 1553 982C1559.12 976.001 1564.2 963.307 1566 955L1564 955M1235 959C1235.41 961.092 1235.22 961.02 1237 962L1235 959M871 974L870 978C871.747 976.728 872.182 976.026 873 974L871 974M1234 975C1227.62 1004.72 1224.06 1024.45 1190 1008C1208.7 1041.93 1248.46 999.77 1234 975M827 976L827 979C827.696 977.446 827.696 977.554 827 976M69 978L70 979L69 978M826 980L826 983L828 983L828 980L826 980M867 981L868 982L867 981M826 984L826 989L828 989L828 984L826 984M826 992L826 997L828 997C827.481 995.129 826.945 993.687 826 992M826 1000C825.695 1002.46 825.713 1004.54 826 1007C826.864 1004.4 826.864 1002.6 826 1000M827 1008L828 1009L827 1008M838.333 1017.67C838.278 1017.72 838.222 1018.78 838.667 1018.33C838.722 1018.28 838.778 1017.22 838.333 1017.67M827 1021C825.699 1026.14 825.599 1031.72 826 1037C832.128 1032.91 830.689 1027.26 829 1021L827 1021M1662 1130C1680.03 1134.34 1640.99 1163.07 1634.29 1173C1603.02 1219.38 1581.28 1277.05 1567.37 1331C1563.4 1346.39 1561.16 1363.06 1555.92 1378C1555.2 1380.06 1548.99 1391.57 1550.84 1392.77C1554.2 1394.97 1557.55 1381.87 1558.15 1380C1563.17 1364.24 1567.07 1348.09 1570.84 1332C1582.58 1281.9 1603.78 1228.34 1630.1 1184C1639.79 1167.67 1668.08 1152.69 1672.25 1135C1673.91 1127.92 1666.2 1124.33 1662 1130M1607 1138C1620.53 1140.55 1637.68 1132.41 1651 1130C1639.38 1125.17 1617.51 1132.65 1607 1138M1192 1266C1207.55 1253.13 1236.4 1249.79 1256 1247.34C1258.88 1246.98 1277.22 1245 1277.38 1248.37C1277.7 1255.38 1263.87 1272.51 1260.3 1279C1246.59 1303.88 1232.39 1330.13 1223 1357C1231.56 1350.22 1236.02 1333.82 1240.37 1324C1248.9 1304.76 1260.37 1286.93 1269.57 1268C1274.65 1257.55 1289.13 1249.41 1278 1238C1272.87 1245.67 1261.89 1242.21 1254 1243.27C1233.27 1246.03 1214.2 1254.67 1194 1259C1194.75 1245.77 1205.41 1232.97 1212.42 1222.32C1222.9 1206.4 1229.71 1187.1 1243.24 1173.22C1254.18 1161.99 1270.96 1151.49 1276 1136C1267.4 1139 1263.51 1147.68 1257.08 1153.85C1233.97 1176.02 1220.95 1201.04 1204.47 1228C1198.06 1238.49 1186.12 1253.43 1192 1266M1579 1164C1587.57 1155.07 1593.26 1146.12 1605 1141C1594.2 1139.1 1580.23 1154.12 1579 1164M941 1145C949.53 1147.78 962.773 1136.62 967.295 1149.02C969.438 1154.9 961.744 1162.19 959.159 1167C949.982 1184.07 938.318 1199.67 929.458 1216.88C927.684 1220.33 920.168 1235.25 916.732 1235.92C912.943 1236.66 911.162 1221.55 911.048 1219C910.206 1200.18 919.127 1187.06 930.615 1173C939.203 1162.49 955.861 1158.85 963 1148C932.774 1155.36 910.355 1187.09 907.459 1217C906.557 1226.32 915.901 1243.32 908.936 1251.35C905.446 1255.37 901.087 1245.11 899.743 1243C893.305 1232.87 885.199 1221.64 886 1209C870.148 1222.09 906.062 1248.66 903.855 1262C896.456 1306.73 855.685 1346.44 844.862 1390C841.787 1402.37 862.012 1421.78 873 1423C867.509 1413.4 850.18 1406.09 849.45 1394C848.863 1384.28 858.417 1373.37 862.379 1365C873.046 1342.46 881.665 1318.73 892.14 1296C894.634 1290.59 900.967 1268.62 906.449 1266.76C910.215 1265.48 917.504 1274.57 919.599 1277.02C930.516 1289.76 939.988 1306.07 939 1323C946.91 1311.49 950.108 1337.72 950 1343C961.687 1340.5 940.117 1299.06 936.75 1293C928.994 1279.04 913.348 1263.85 916.778 1246C921.497 1221.44 947.095 1193.08 960.222 1172C963.406 1166.89 977.013 1150.96 975.583 1145.11C973.314 1135.82 946.182 1143.08 941 1145M2022 1147C2026.22 1147.68 2030.71 1147.01 2035 1147C2031.23 1142.77 2026.39 1144.54 2022 1147M2061 1145C2064.92 1146.76 2067.99 1146.32 2072 1145C2068.25 1143.73 2064.81 1144.04 2061 1145M2081 1148C2083.03 1147.18 2083.73 1146.75 2085 1145C2082.03 1144.49 2081.53 1145.05 2081 1148M2050 1147C2051.75 1147.64 2053.13 1147.86 2055 1148L2055 1146L2050 1147M132 1209C130.843 1201.16 130.858 1190.58 133.277 1183C135.45 1176.19 139.236 1169.16 142.85 1163.01C167.282 1121.41 215.26 1192.73 173 1202.58C146.091 1208.85 133.95 1181.54 157 1166C146.889 1165.11 140.067 1182.72 139.865 1190.96C139.434 1208.54 164.921 1222.08 168.56 1240C170.189 1248.02 179.505 1269.82 165 1267C171.582 1277.5 182.133 1312 166.723 1322.75C159.159 1328.03 145.779 1325.37 137.008 1329.01C131.165 1331.43 121.292 1339.37 129 1345C130.582 1327.48 153.573 1330.85 166 1327L165 1333C178.759 1321.61 221.107 1328.52 209 1297C203.277 1311.82 204.041 1318.9 186 1321.6C183.099 1322.04 175.447 1324.77 173.558 1321.36C169.468 1313.98 176.529 1285.03 179 1277C182.849 1279.98 186.333 1282.49 191 1284C187.413 1279.09 180.318 1276.61 177.716 1271.16C171.593 1258.32 173.985 1240.47 168.135 1226.94C164.204 1217.85 155.553 1212.55 151 1204C161.472 1206.83 173.712 1208.38 182.774 1201.12C200.95 1186.56 194.707 1155.88 173 1148.68C149.301 1140.81 135.256 1162.06 129.669 1182C127.645 1189.22 124.938 1204.16 132 1209M889 1190L890 1191C906.778 1176.24 914.81 1154.75 939 1149C920.625 1139.67 896.689 1178.62 889 1190M448 1174C450.874 1170.92 453.279 1168.06 457 1166C458.976 1189.82 476.566 1218.62 485.16 1241C488.066 1248.57 496.661 1257.3 495.34 1266C493.93 1275.28 480.857 1283.69 474.478 1289.66C457.012 1305.99 443.078 1325.59 426.742 1342.94C423.803 1346.06 401.943 1363.45 405.289 1366.71C409.228 1370.55 432.065 1367.99 438 1368C462.483 1368.02 487.443 1373.88 512 1375.03C520.472 1375.43 534.833 1374.9 540 1382C546.149 1375.37 540.379 1371.17 538.318 1364C533.545 1347.39 526.805 1332.64 518.818 1317.18C499.176 1279.17 486.136 1234.01 470.236 1194C467.494 1187.1 451.475 1159.96 458.143 1153.38C462.058 1149.52 470.885 1153.97 475 1155.32C489.454 1160.05 504.945 1163.26 520 1165.3C535.459 1167.39 552.388 1171.03 566 1177C569.997 1163.83 546.004 1169.08 536 1165.41C517.902 1158.77 495.91 1155.11 477 1151.4C471.501 1150.32 461.515 1147.16 456.39 1150.26C451.415 1153.27 448.346 1168.34 448 1174M2012 1149L2015 1150L2012 1149M2035 1149L2035 1151C2038.43 1150.97 2041.64 1150.72 2045 1150C2041.72 1148.89 2038.45 1149 2035 1149M2021 1184C2040.24 1174.12 2058.6 1161.18 2078 1151C2063.61 1146.58 2028.66 1172.75 2021 1184M2006 1152C2004.39 1153.33 2003.3 1154.38 2002 1156L2003 1157C2004.55 1155.31 2006.1 1154.27 2006 1152M1269 1155L1271 1158L1269 1155M157 1164L176 1165C171.303 1158.1 163.064 1159.46 157 1164M1270.33 1161.67C1270.28 1161.72 1270.22 1162.78 1270.67 1162.33C1270.72 1162.28 1270.78 1161.22 1270.33 1161.67M1577 1165L1576 1172C1578.25 1169.51 1578.71 1167.94 1577 1165M1989 1172C1990.27 1170.66 1991.04 1169.6 1992 1168C1990.1 1169.28 1989.74 1169.82 1989 1172M1575.33 1173.67C1575.28 1173.72 1575.22 1174.78 1575.67 1174.33C1575.72 1174.28 1575.78 1173.22 1575.33 1173.67M446 1176C444.937 1183.04 441.136 1188.58 442 1196C444.997 1189.87 446.228 1182.59 448 1176L446 1176M557 1178L555 1182L558 1179L557 1178M564 1179C561.075 1207.57 561.351 1236.37 558.782 1265C557.385 1280.58 551.06 1298.57 555 1314C568.463 1274.28 565.999 1220.62 566 1179L564 1179M1979 1185C1978.11 1187.82 1977.81 1190.05 1978 1193C1979.23 1190.28 1979.84 1187.9 1979 1185M2018 1185L2017 1189C2018.79 1187.68 2019.25 1187.09 2020 1185L2018 1185M1571 1186C1566.61 1203.56 1564.22 1228.07 1567 1246C1573.83 1235.5 1574.51 1198.04 1571 1186M888 1192C886.957 1194.11 886.403 1195.69 886 1198C888.03 1196.09 888.505 1194.74 888 1192M1977 1194L1977 1199L1979 1199C1978.6 1196.88 1978.2 1195.78 1977 1194M2009.33 1195.67C2009.28 1195.72 2009.22 1196.78 2009.67 1196.33C2009.72 1196.28 2009.78 1195.22 2009.33 1195.67M439 1196C438.635 1199.75 437.914 1203.35 437 1207C440.067 1204.63 440.951 1201.66 442 1198C439.903 1198 440.24 1197.46 439 1196M543 1197C536.743 1207.92 526.492 1216.03 522 1228C528.568 1223.48 544.179 1205.04 543 1197M2008 1198C2006.73 1201.68 2006.14 1205.11 2006 1209L2008 1209C2008.22 1205.26 2009.06 1201.63 2008 1198M435 1208C434.067 1211.68 434.005 1215.21 434 1219C436.055 1215.43 436.314 1211.9 435 1208M1979 1208C1979.38 1214.35 1982.81 1219.58 1983 1226C1989.02 1220.62 1981.76 1213.4 1979 1208M131.333 1213.67C131.278 1213.72 131.222 1214.78 131.667 1214.33C131.722 1214.28 131.778 1213.22 131.333 1213.67M2006 1213L2008 1216L2006 1213M134 1217C133.045 1220.38 133.16 1221.84 136 1224C135.602 1221.46 135.096 1219.32 134 1217M2009 1218L2009 1225C2010.52 1222.62 2010.84 1220.82 2011 1218L2009 1218M431 1223L432 1224L431 1223M1986 1227C1985.01 1228.48 1985 1228.2 1985 1230C1986.77 1229.02 1986.96 1228.78 1986 1227M135 1229C136.379 1231.5 137.811 1233.16 140 1235L141 1234C139.085 1231.98 137.365 1230.46 135 1229M431 1229L429 1235C431.478 1233.26 432.219 1231.93 433 1229L431 1229M520 1229C520.545 1230.64 520.365 1230.45 522 1231C521.227 1229.82 521.175 1229.77 520 1229M1986 1232L1986 1235C1986.7 1233.45 1986.7 1233.55 1986 1232M518 1234L518 1238L520 1238L520 1234L518 1234M143 1237C142.014 1238.48 142 1238.2 142 1240L145 1240L143 1237M1987 1237C1985.97 1248.07 1985.51 1258.97 1984 1270C1991.07 1263.31 1989.23 1246.15 1990 1237L1987 1237M514 1239C511.88 1246.78 506.686 1253.35 504 1261C510.582 1256.28 514.338 1246.71 516 1239L514 1239M427 1240C427.141 1241.87 427.358 1243.25 428 1245C428.11 1243 427.828 1241.83 427 1240M146 1242L148 1245L148 1242L146 1242M2015 1242L2016 1243L2015 1242M427 1248C424.563 1255.15 425 1263.5 425 1271C429.785 1266.17 428.732 1254.18 427 1248M2018.33 1253.67C2018.28 1253.72 2018.22 1254.78 2018.67 1254.33C2018.72 1254.28 2018.78 1253.22 2018.33 1253.67M913 1254C914.676 1258.24 915.559 1262.46 916 1267C910.429 1264.15 909.818 1259.8 911 1254L913 1254M155.333 1255.67C155.278 1255.72 155.222 1256.78 155.667 1256.33C155.722 1256.28 155.778 1255.22 155.333 1255.67M2018 1256L2019 1257L2018 1256M1566.33 1259.67C1566.28 1259.72 1566.22 1260.78 1566.67 1260.33C1566.72 1260.28 1566.78 1259.22 1566.33 1259.67M2018 1259L2017 1263C2018.32 1261.29 2018.55 1261.04 2018 1259M1279 1264L1279 1268C1279.91 1266.62 1280.4 1265.56 1281 1264L1279 1264M2018.33 1264.67C2018.28 1264.72 2018.22 1265.78 2018.67 1265.33C2018.72 1265.28 2018.78 1264.22 2018.33 1264.67M1564.33 1267.67C1564.28 1267.72 1564.22 1268.78 1564.67 1268.33C1564.72 1268.28 1564.78 1267.22 1564.33 1267.67M2017 1267L2016 1272C2017.11 1270.06 2017.39 1269.19 2017 1267M1279 1269L1279 1277C1279.97 1274.12 1279.97 1271.88 1279 1269M498.603 1273.79C503.281 1275.3 505.822 1287.85 507.733 1292C516.392 1310.8 523.774 1331.72 531.583 1351C533.408 1355.5 538.322 1369.16 534.171 1373.14C529.748 1377.37 511.701 1372.3 505.999 1371.35C486.86 1368.13 464.163 1365.49 445 1364.14C436.304 1363.53 427.306 1367.75 419.02 1364.07C410.305 1360.2 428.759 1346.31 431.959 1342.56C447.584 1324.24 462.984 1306.07 479.997 1289C483.421 1285.57 492.92 1271.94 498.603 1273.79M1981 1272L1982 1273L1981 1272M423 1278L426 1276C423.908 1276.41 423.98 1276.22 423 1278M1193 1277C1193.6 1281.48 1194.57 1293.1 1200 1293C1197.7 1287.66 1196.6 1281.63 1193 1277M2014 1277L2015 1278L2014 1277M1278.5 1279.5C1277.87 1280.13 1278.87 1281.13 1279.5 1280.5C1280.13 1279.87 1279.13 1278.87 1278.5 1279.5M1279.33 1283.67C1279.28 1283.72 1279.22 1284.78 1279.67 1284.33C1279.72 1284.28 1279.78 1283.22 1279.33 1283.67M1562 1283L1563 1284L1562 1283M193.667 1284.33C193.222 1284.78 194.278 1284.72 194.333 1284.67C194.778 1284.22 193.722 1284.28 193.667 1284.33M423 1285L424 1286L423 1285M1562.33 1285.67C1562.28 1285.72 1562.22 1286.78 1562.67 1286.33C1562.72 1286.28 1562.78 1285.22 1562.33 1285.67M196 1286C197.45 1287.61 198.051 1288.06 200 1289C198.723 1287.1 198.177 1286.74 196 1286M1277 1287C1276.01 1288.48 1276 1288.2 1276 1290C1277.77 1289.02 1277.96 1288.78 1277 1287M422 1292C423.274 1290.66 424.041 1289.6 425 1288C422.303 1288.58 422.211 1289.26 422 1292M1561 1288L1561 1291L1563 1291L1563 1288L1561 1288M1961.33 1292.67C1961.28 1292.72 1961.22 1293.78 1961.67 1293.33C1961.72 1293.28 1961.78 1292.22 1961.33 1292.67M206 1293L208 1296L209 1295L206 1293M2005.33 1293.67C2005.28 1293.72 2005.22 1294.78 2005.67 1294.33C2005.72 1294.28 2005.78 1293.22 2005.33 1293.67M1561 1296C1562.64 1295.46 1562.45 1295.64 1563 1294C1561.82 1294.77 1561.77 1294.82 1561 1296M1198 1296L1200 1304C1201.62 1300.45 1201.03 1298.4 1198 1296M1955 1298L1958 1296L1955 1298M2004 1296C2000.46 1300 1997.48 1303.82 1996 1309C1999.56 1305.42 2002.21 1301.19 2005 1297L2004 1296M1561 1302C1559.38 1305.6 1558.56 1309.1 1558 1313L1560 1313C1560.38 1309.32 1561.5 1305.67 1561 1302M1275 1303L1275 1306C1275.7 1304.45 1275.7 1304.55 1275 1303M1949 1305C1950.63 1304.46 1950.45 1304.64 1951 1303C1949.36 1303.55 1949.55 1303.36 1949 1305M1202 1304C1201.22 1308.04 1201.86 1311.91 1202 1316C1204.46 1312.06 1204.3 1308 1202 1304M1941.33 1310.67C1941.28 1310.72 1941.22 1311.78 1941.67 1311.33C1941.72 1311.28 1941.78 1310.22 1941.33 1310.67M1993 1310C1972.83 1338.72 1945.96 1354.85 1917 1373.38C1903.56 1381.97 1892.68 1391.93 1897 1409C1907.63 1364.64 1973.24 1353.45 1995 1310L1993 1310M1274 1311L1275 1312L1274 1311M1939 1313L1940 1314L1939 1313M552.5 1315.5C551.873 1316.13 552.873 1317.13 553.5 1316.5C554.127 1315.87 553.127 1314.87 552.5 1315.5M1273.33 1316.67C1273.28 1316.72 1273.22 1317.78 1273.67 1317.33C1273.72 1317.28 1273.78 1316.22 1273.33 1316.67M1203 1317C1202.01 1318.48 1202 1318.2 1202 1320C1203.29 1318.56 1203.4 1318.77 1203 1317M551 1320C550.113 1334.82 545.894 1349.06 545 1364C553.786 1357.21 554.506 1330.22 553 1320L551 1320M1272.33 1320.67C1272.28 1320.72 1272.22 1321.78 1272.67 1321.33C1272.72 1321.28 1272.78 1320.22 1272.33 1320.67M1557 1320L1558 1321L1557 1320M1935 1320L1936 1321L1935 1320M1203 1322L1203 1325C1203.7 1323.45 1203.7 1323.55 1203 1322M1933 1323L1934 1324L1933 1323M553 1324L552 1325L553 1324M939 1327C940.635 1326.46 940.455 1326.64 941 1325C939.825 1325.77 939.773 1325.82 939 1327M1931 1326L1932 1327L1931 1326M416 1327L414 1332C415.885 1330.42 416.359 1329.45 416 1327M1203 1327L1203 1330C1203.7 1328.45 1203.7 1328.55 1203 1327M939.333 1328.67C939.278 1328.72 939.222 1329.78 939.667 1329.33C939.722 1329.28 939.778 1328.22 939.333 1328.67M1556.5 1328.5C1555.87 1329.13 1556.87 1330.13 1557.5 1329.5C1558.13 1328.87 1557.13 1327.87 1556.5 1328.5M1204 1331L1205 1332L1204 1331M1929.33 1331.67C1929.28 1331.72 1929.22 1332.78 1929.67 1332.33C1929.72 1332.28 1929.78 1331.22 1929.33 1331.67M938.667 1333.33C938.222 1333.78 939.278 1333.72 939.333 1333.67C939.778 1333.22 938.722 1333.28 938.667 1333.33M1556.33 1333.67C1556.28 1333.72 1556.22 1334.78 1556.67 1334.33C1556.72 1334.28 1556.78 1333.22 1556.33 1333.67M162 1339C163.897 1337.72 164.259 1337.18 165 1335C162.303 1335.58 162.211 1336.26 162 1339M1205 1335L1205 1347C1206.32 1343.1 1206.32 1338.9 1205 1335M159 1340C157.292 1342.74 155.355 1344.78 153 1347L154 1348C156.681 1345.71 159.613 1343.72 159 1340M1555.67 1342.33C1555.22 1342.78 1556.28 1342.72 1556.33 1342.67C1556.78 1342.22 1555.72 1342.28 1555.67 1342.33M1933 1344C1934.79 1346.7 1936.57 1348.86 1939 1351L1940 1350C1938.01 1346.95 1936.42 1345.29 1933 1344M936 1347L939 1345C936.907 1345.41 936.98 1345.22 936 1347M950.667 1347.33C950.222 1347.78 951.278 1347.72 951.333 1347.67C951.778 1347.22 950.722 1347.28 950.667 1347.33M1270.67 1347.33C1270.22 1347.78 1271.28 1347.72 1271.33 1347.67C1271.78 1347.22 1270.72 1347.28 1270.67 1347.33M1555 1347L1555 1351C1555.51 1349.31 1555.51 1348.69 1555 1347M130 1348C133.718 1353.15 144.79 1353.97 149 1349C142.599 1349 136.324 1349.12 130 1348M934 1349C934.545 1350.64 934.365 1350.45 936 1351C935.227 1349.82 935.175 1349.77 934 1349M1205 1349L1205 1352C1205.7 1350.45 1205.7 1350.55 1205 1349M934 1352C933.014 1353.48 933 1353.2 933 1355C934.289 1353.56 934.401 1353.77 934 1352M1270.33 1352.67C1270.28 1352.72 1270.22 1353.78 1270.67 1353.33C1270.72 1353.28 1270.78 1352.22 1270.33 1352.67M1204 1353L1205 1357C1205.16 1355.17 1204.94 1354.61 1204 1353M949.333 1355.67C949.278 1355.72 949.222 1356.78 949.667 1356.33C949.722 1356.28 949.778 1355.22 949.333 1355.67M932 1357L930 1363C931.61 1360.88 932.3 1359.65 932 1357M948 1358C945.147 1372.9 930.373 1383.69 929 1399C935.115 1392.33 952.524 1366.82 948 1358M1223 1359L1221 1363C1222.86 1361.73 1223.37 1361.22 1223 1359M1551 1363C1552.92 1362.1 1553 1361.92 1554 1360C1551.88 1360.9 1551.9 1360.88 1551 1363M1268 1361L1267 1366C1268.23 1364.04 1268.5 1363.26 1268 1361M1221 1364L1222 1365L1221 1364M929 1365C922.073 1376.37 909.784 1388.03 905 1400C913.042 1393.8 931.61 1376.32 929 1365M1220 1367L1221 1368L1220 1367M1943.33 1367.67C1943.28 1367.72 1943.22 1368.78 1943.67 1368.33C1943.72 1368.28 1943.78 1367.22 1943.33 1367.67M1205 1368C1204.17 1374.24 1204.17 1379.76 1205 1386C1206.77 1380.77 1206.61 1373.27 1205 1368M1218 1369L1218 1372C1218.7 1370.45 1218.7 1370.55 1218 1369M1267 1371L1267 1375C1267.51 1373.31 1267.51 1372.69 1267 1371M1549 1374L1549 1377C1549.7 1375.45 1549.7 1375.55 1549 1374M1216 1375C1214.94 1377.7 1214.33 1380.12 1214 1383C1215.61 1380.3 1216.51 1378.13 1216 1375M1943.33 1376.67C1943.28 1376.72 1943.22 1377.78 1943.67 1377.33C1943.72 1377.28 1943.78 1376.22 1943.33 1376.67M1942.33 1383.67C1942.28 1383.72 1942.22 1384.78 1942.67 1384.33C1942.72 1384.28 1942.78 1383.22 1942.33 1383.67M1207.19 1389.41C1204.69 1391.62 1203.88 1412.32 1206.35 1411.03C1211.31 1408.42 1209.69 1387.19 1207.19 1389.41M1266 1388L1265 1393C1266.23 1391.04 1266.5 1390.26 1266 1388M851 1393C854.413 1398.53 859.489 1402.28 866 1403C862.738 1397.56 857.245 1393.99 851 1393M1549 1395C1547.42 1398.25 1546.68 1401.46 1546 1405C1549.27 1402.37 1550.27 1399.01 1549 1395M1266 1396L1267 1397L1266 1396M1939 1396C1937.53 1398.98 1936.58 1401.73 1936 1405C1937.62 1402.47 1938.69 1399.71 1940 1397L1939 1396M1266 1400L1267 1401L1266 1400M901 1403C902.635 1402.46 902.455 1402.64 903 1401C901.825 1401.77 901.773 1401.82 901 1403M926 1402C921.541 1408.56 915.215 1413.63 911 1420C918.552 1418.4 926.385 1409.27 928 1402L926 1402M1193 1424C1213.78 1421.31 1232.61 1412.07 1255 1412C1261.12 1411.98 1273.01 1413.28 1275 1406C1252.53 1408.01 1209.81 1407.25 1193 1424M1934 1407L1935 1408L1934 1407M1932 1411C1933.18 1410.23 1933.23 1410.18 1934 1409C1932.36 1409.55 1932.55 1409.36 1932 1411M1909 1420C1910.12 1423.19 1911.72 1423.62 1915 1424C1913.07 1422.11 1911.48 1421.09 1909 1420M906.333 1421.67C906.278 1421.72 906.222 1422.78 906.667 1422.33C906.722 1422.28 906.778 1421.22 906.333 1421.67M1305 1515C1316.77 1511.3 1329.66 1507.37 1341 1503C1329.96 1497.3 1310.83 1504.55 1305 1515M1361.5 1503.5C1360.87 1504.13 1361.87 1505.13 1362.5 1504.5C1363.13 1503.87 1362.13 1502.87 1361.5 1503.5M1364 1506C1370.46 1515.31 1381.33 1526.01 1389 1535C1389.52 1522.46 1375.46 1508.86 1364 1506M1566 1592C1569.65 1583.3 1568.16 1572.99 1571.26 1564C1578.59 1542.73 1598.05 1525.37 1617 1514.26C1647.64 1496.3 1685.8 1515.01 1683 1550C1698.25 1537.7 1678.69 1510.82 1665 1506.7C1612.21 1490.81 1566.05 1543.29 1566 1592M125 1558C142.574 1537.37 171.899 1518.4 199 1513.92C213.704 1511.49 230.967 1513.89 238 1529C228.949 1529.58 220.133 1530.83 211 1531L211 1534C216.121 1534 242.865 1536.89 243.005 1528.7C243.256 1513.94 217.09 1508.99 207 1509C181.734 1509.02 131.378 1531.16 125 1558M1292 1519L1295 1517L1292 1519M1284 1523L1287 1521C1284.91 1521.41 1284.98 1521.22 1284 1523M210 1522L209 1526L213 1525C212.098 1523.08 211.924 1523 210 1522M442 1734C451.975 1722.29 455.565 1701.8 460.407 1687.44C471.487 1654.57 484.674 1622.47 493.984 1589C498.688 1572.09 502.735 1537.56 521.203 1529.05C535.032 1522.68 551.433 1535.11 565 1538C554.854 1528.17 526.922 1516.28 514.097 1528.16C494.764 1546.06 490.515 1586.8 484.616 1611C474.373 1653.01 450.929 1691.8 442 1734M1239 1571C1254.7 1560.26 1266.6 1539.2 1281 1526C1267.74 1525.45 1243.22 1559.73 1239 1571M1950 1533C1952.15 1532.74 1953.85 1532.74 1956 1533C1954.38 1527.9 1950.3 1526.71 1950 1533M224 1532L223 1533L224 1532M1948 1535C1945.69 1538.87 1945.16 1542.71 1944 1547L1950 1546C1949.18 1542.31 1949.34 1538.56 1948 1535M2003 1535C1981.88 1557.15 1974.09 1587.94 1961.83 1615C1948.86 1643.63 1930.15 1669.71 1926 1701C1938.24 1690.5 1933.65 1658.61 1951 1652C1949.13 1658.74 1953.24 1665.36 1957 1671C1957.47 1665.46 1952.51 1660.69 1954.7 1655.01C1967.61 1621.49 2013.45 1604.14 2028 1571C1999.64 1594.68 1979.54 1627.75 1952 1652C1950.74 1628.79 1974.23 1588.39 1986.03 1568C1990.61 1560.08 2004.54 1544.16 2003 1535M192 1605C190.968 1587.54 168.472 1581.08 165.838 1564.98C164.457 1556.54 174 1544.08 179 1538C172.822 1538.85 169.495 1545.97 166.856 1551C156.244 1571.24 178.32 1590.86 192 1605M518 1539C517.736 1541.15 517.736 1542.85 518 1545C518.755 1542.7 518.755 1541.3 518 1539M569 1539C581.397 1551.56 621.125 1550.99 638 1551C631.041 1545.32 621.354 1547.47 613 1546.86C597.955 1545.78 584.036 1539.03 569 1539M1389.33 1542.67C1389.28 1542.72 1389.22 1543.78 1389.67 1543.33C1389.72 1543.28 1389.78 1542.22 1389.33 1542.67M2036 1562C2042.06 1558.68 2045.39 1553.24 2048 1547C2042.23 1550.31 2039.22 1556.35 2036 1562M516 1548C520.574 1559.67 521.365 1571.68 523 1584C526.57 1578.5 522.434 1549.38 516 1548M639 1551C643.142 1556.24 650.563 1556.58 654 1562C666.921 1557.48 641.623 1551.82 639 1551M1681 1551C1665.11 1601.2 1615.92 1643.02 1606.03 1695.99C1604.43 1704.59 1615.4 1705.97 1620.72 1710.12C1629.06 1716.64 1638.8 1728.26 1635.53 1740C1629.51 1761.66 1596.96 1766.75 1595 1793C1600.38 1786.95 1602.43 1778.94 1608.06 1773.01C1619.15 1761.33 1634.42 1754.05 1639.58 1737.86C1643.56 1725.38 1630 1711.7 1620.78 1704.9C1616.5 1701.75 1608.16 1702.39 1609.36 1694.99C1615.2 1659.21 1648.18 1621.08 1664.25 1589C1669.08 1579.37 1684.4 1562.33 1681 1551M1948 1552C1947.5 1557.35 1946.36 1562.63 1947 1568C1949.26 1563.12 1949.73 1557.11 1948 1552M1940 1555C1937.93 1562.8 1934.06 1569.89 1933 1578C1938.82 1573.84 1942.26 1561.79 1940 1555M122.333 1561.67C122.278 1561.72 122.222 1562.78 122.667 1562.33C122.722 1562.28 122.778 1561.22 122.333 1561.67M121 1564C116.932 1571.74 117.497 1578.58 118 1587C120.451 1582.01 121.312 1569.6 121 1564M1382 1564C1372.98 1587.55 1353.32 1605.52 1336 1623C1355.12 1620.15 1378.58 1580.88 1384 1564L1382 1564M1945 1569C1944.17 1574.87 1944.21 1581.06 1944 1587C1947.18 1581.92 1945.97 1574.84 1947 1569L1945 1569M640 1570L639 1575C640.358 1573.34 641.151 1571.98 642 1570L640 1570M801 1590C803.562 1586.41 804.186 1579.79 808.346 1577.72C818.844 1572.5 848.16 1579.1 860 1580.44C911.056 1586.19 961.009 1602.68 1013 1604.02C1024.46 1604.31 1050.74 1611.7 1060 1605C1034.6 1595.1 999.991 1599.11 973 1595.74C936.135 1591.14 897.705 1577.36 861 1576.04C842.473 1575.37 798.689 1561.86 801 1590M1237 1573C1235.71 1575.65 1234.71 1578.14 1234 1581C1236.55 1578.55 1237.86 1576.35 1239 1573L1237 1573M635 1580C636.175 1579.23 636.227 1579.18 637 1578C635.365 1578.55 635.545 1578.36 635 1580M2030.33 1578.67C2030.28 1578.72 2030.22 1579.78 2030.67 1579.33C2030.72 1579.28 2030.78 1578.22 2030.33 1578.67M1933 1579C1929.09 1592.37 1922.69 1605.32 1920 1619C1926.45 1610.64 1936.07 1589.69 1933 1579M646 1582C644.207 1594.11 635.938 1604.26 633 1616C639.675 1610.75 647.494 1590.43 648 1582L646 1582M633 1583C625.51 1593.98 618.023 1609.04 615 1622C624.217 1617.79 631.726 1592.34 635 1583L633 1583M1968 1585C1969.64 1584.46 1969.45 1584.64 1970 1583C1968.82 1583.77 1968.77 1583.82 1968 1585M525 1585C525.301 1587.9 525.766 1590.36 527 1593C527.223 1589.91 526.593 1587.65 525 1585M1232 1585C1229.02 1589.49 1225.77 1593.57 1225 1599C1228.84 1594.92 1231.71 1590.09 1234 1585L1232 1585M1967 1586L1965 1589L1966 1590L1968 1587L1967 1586M1943 1588L1943 1594L1945 1594L1945 1588L1943 1588M1963 1592C1960.87 1594.91 1959.22 1597.61 1958 1601C1960.65 1598.36 1962.83 1595.83 1963 1592M525 1594C526.313 1600.1 525.755 1606.01 530 1611C530.47 1605.25 527.769 1599.89 528 1594L525 1594M606 1597C602.231 1599.44 600.334 1601.7 599 1606C603.47 1605.01 605.884 1601.55 606 1597M800 1599C801.175 1598.23 801.227 1598.18 802 1597C800.365 1597.55 800.545 1597.36 800 1599M1567 1597L1567 1600C1567.7 1598.45 1567.7 1598.55 1567 1597M1942.5 1597.5C1941.87 1598.13 1942.87 1599.13 1943.5 1598.5C1944.13 1597.87 1943.13 1596.87 1942.5 1597.5M801 1601L802 1602L801 1601M1221 1604C1217.35 1609.37 1213.56 1615.03 1211 1621C1216.76 1617.47 1221.16 1610.44 1223 1604L1221 1604M622 1609L621 1610L622 1609M1951 1610L1952 1611L1951 1610M128 1611C134.458 1621.23 149.752 1623.85 161 1625C151.865 1619 138.163 1615.59 128 1611M529 1613C529.038 1622.48 531.169 1631.97 534 1641C536.754 1632.74 530.666 1621.93 531 1613L529 1613M1934 1652C1941.05 1640.96 1942.74 1625.23 1950 1613C1933.16 1619.53 1935.68 1637.69 1934 1652M193 1615L194 1616L193 1615M1045 1616L1046 1617L1045 1616M595 1617C584.734 1648.07 565.186 1677.76 552.354 1708.02C547.525 1719.41 547.893 1736.97 538 1745L538 1740C534.609 1746.19 535.142 1758.04 536 1765C545.275 1757.45 548.078 1729.68 551.512 1718.08C561.823 1683.24 590.569 1651.94 598 1617L595 1617M195 1618C190.297 1631.46 187.219 1626.94 175 1630C180.206 1631.76 187.127 1629.78 191.481 1633.86C201.929 1643.65 186.666 1669.04 182 1678C200.483 1668.71 188.36 1647.55 198.26 1635.84C205.72 1627.02 240.325 1645.94 247 1651C246.79 1634.07 211.994 1636.63 202.166 1631.28C196.933 1628.43 197.637 1622.56 195 1618M1576.67 1619.33C1576.22 1619.78 1577.28 1619.72 1577.33 1619.67C1577.78 1619.22 1576.72 1619.28 1576.67 1619.33M629 1624C631.123 1623.1 631.101 1623.12 632 1621C629.876 1621.9 629.899 1621.88 629 1624M1918 1624C1920.12 1623.1 1920.1 1623.12 1921 1621C1919.08 1621.9 1919 1622.08 1918 1624M800 1622L799 1635C802.906 1631.53 802.24 1626.34 800 1622M614 1623C606.216 1647.25 592.946 1669.31 581.756 1692C579.047 1697.49 570.259 1711.07 576 1716C576.616 1695.22 597.582 1668.06 606.335 1649C609.459 1642.2 617.994 1630.36 614 1623M1333 1626C1334.64 1625.46 1334.45 1625.64 1335 1624C1333.36 1624.55 1333.55 1624.36 1333 1626M162 1625C164.983 1627.83 168.088 1628.87 172 1630C169.431 1626.67 166.031 1625.8 162 1625M572 1631C575.213 1630.16 576.319 1628.84 578 1626C574.56 1626.4 573.538 1627.97 572 1631M1209 1625L1207 1629C1208.86 1627.73 1209.37 1627.22 1209 1625M629 1626L630 1627L629 1626M1917.67 1626.33C1917.22 1626.78 1918.28 1626.72 1918.33 1626.67C1918.78 1626.22 1917.72 1626.28 1917.67 1626.33M627 1627C623.562 1637.27 612.087 1648.91 614 1660C617.912 1652.6 630.289 1634.97 627 1627M1329 1627C1325.8 1629.87 1322.48 1632.48 1319 1635C1323.58 1635.56 1329.22 1631.93 1329 1627M1916 1628L1917 1629L1916 1628M1206 1631C1202.14 1638.7 1197.78 1647.57 1196 1656C1201.29 1651.62 1207.88 1637.8 1206 1631M1916 1631C1910.58 1639.44 1908.29 1649.58 1905 1659C1910.77 1654.38 1916.39 1638.31 1916 1631M570 1632L571 1633L570 1632M1585 1635L1586 1636L1585 1635M1041 1636L1040 1640C1041.66 1638.6 1041.75 1638.05 1041 1636M1317 1636C1314.06 1638.09 1311.86 1639.89 1310 1643C1312.66 1641.4 1317.87 1639.55 1317 1636M800 1637C798.485 1643.93 798.003 1650.92 798 1658C800.508 1652.01 801.03 1643.38 800 1637M571 1638C563.158 1649.58 551.331 1667.82 550 1682C554.513 1676.68 558.472 1670.04 559 1663L561 1664C562.614 1655.38 571.699 1646.68 571 1638M1589 1640C1589.77 1641.18 1589.82 1641.23 1591 1642C1590.45 1640.36 1590.64 1640.55 1589 1640M1930.5 1641.5C1929.87 1642.13 1930.87 1643.13 1931.5 1642.5C1932.13 1641.87 1931.13 1640.87 1930.5 1641.5M1298 1651L1305 1646C1301.44 1646.2 1299.8 1648.04 1298 1651M1927 1647C1913.42 1664.68 1893.78 1693.03 1890 1715C1903.05 1705.64 1910.4 1679.13 1917.79 1665C1920.65 1659.53 1927.09 1653.31 1927 1647M811 1652C819.484 1661.6 860.27 1653 873 1653C913.195 1653 954.401 1657.82 994 1663.71C1007.41 1665.71 1022.23 1662.53 1035 1667C1035.66 1665.04 1037.5 1661.15 1035.13 1659.6C1031.47 1657.2 1021.29 1660.64 1016.96 1660.89C1005.33 1661.56 993.362 1658.84 982 1656.7C958.92 1652.33 938.974 1655.6 916 1653.86C881.44 1651.25 845.837 1643.18 811 1652M534 1649L535 1657L537 1657C536.451 1653.95 535.712 1651.59 534 1649M1038 1650C1036.5 1652.59 1035.95 1654.02 1036 1657C1037.69 1654.61 1038.37 1652.92 1038 1650M1596 1652L1597 1653L1596 1652M1291 1653L1292 1654L1291 1653M1934 1653L1935 1654L1934 1653M248 1654L248 1665C250.027 1661.48 249.982 1658 250 1654L248 1654M1282 1659L1287 1657C1284.48 1656.47 1283.57 1656.99 1282 1659M1194 1658C1182.89 1677.77 1164.21 1700.29 1158 1722C1170.33 1711.08 1179.13 1690.44 1186.95 1676C1189.79 1670.74 1195 1664.21 1194 1658M797 1659C796.155 1665.37 796 1671.58 796 1678C797.804 1672.69 798.787 1664.36 797 1659M1600 1659C1597.66 1672.14 1592.31 1706.38 1598.11 1718C1601.7 1725.18 1623.08 1735.69 1623.49 1740.4C1624.73 1754.48 1593.2 1762.72 1591 1778C1597.77 1772.24 1632.64 1746.4 1627.57 1737.56C1621.08 1726.27 1602.12 1727.76 1598.9 1710.86C1595.68 1693.99 1607.29 1676.41 1600 1659M524 1682C528.64 1680.14 531.925 1676.67 537 1676L536 1682C540.869 1677.98 539.235 1667.09 542 1661C534.941 1661.52 526.43 1675.56 524 1682M612.333 1661.67C612.278 1661.72 612.222 1662.78 612.667 1662.33C612.722 1662.28 612.778 1661.22 612.333 1661.67M1903 1661C1902.25 1670.03 1899.11 1680.08 1897 1689C1901.41 1682.8 1905.32 1668.41 1903 1661M1271.5 1664.5C1270.87 1665.13 1271.87 1666.13 1272.5 1665.5C1273.13 1664.87 1272.13 1663.87 1271.5 1664.5M610 1665L609 1672C610.894 1669.69 611.544 1667.96 612 1665L610 1665M1931 1665L1932 1666L1931 1665M1266 1668L1270 1667C1267.95 1666.25 1267.4 1666.34 1266 1668M1032 1668C1031.97 1674.17 1030.06 1679.08 1029 1685C1033.9 1680.69 1034.95 1673.72 1032 1668M1252 1675C1256.64 1675.61 1261.29 1671.46 1265 1669C1259.87 1668.52 1255.94 1672.1 1252 1675M247 1671C246.446 1673.07 246.149 1674.87 246 1677C247.135 1674.79 247.481 1673.44 247 1671M1954 1674C1954.15 1676.13 1954.45 1677.93 1955 1680C1955.72 1677.94 1955.91 1676.2 1956 1674L1954 1674M606 1677L605 1682C606.852 1680.47 607.311 1679.33 608 1677L606 1677M1245 1678C1243.81 1679.19 1243.47 1679.58 1243 1681C1244.99 1680.15 1245.7 1679.99 1245 1678M241 1686C242.936 1684.54 243.825 1683.15 245 1681C242.699 1682.45 242 1683.46 241 1686M1234 1684C1236.7 1684.07 1238.63 1683.29 1241 1682C1238.01 1681.44 1236.54 1682.35 1234 1684M1955 1681L1955 1684C1956.8 1684 1956.52 1683.99 1958 1683L1955 1681M795 1683L795 1688C795.929 1685.87 795.929 1685.13 795 1683M549 1685L550 1686L549 1685M602 1686L600 1691C602.301 1689.55 603 1688.54 604 1686L602 1686M1231.67 1686.33C1231.22 1686.78 1232.28 1686.72 1232.33 1686.67C1232.78 1686.22 1231.72 1686.28 1231.67 1686.33M548 1687L549 1688L548 1687M1030 1687L1033 1689L1030 1687M538 1688L537 1692C537.938 1690.4 538.157 1689.83 538 1688M1226 1690C1227.18 1689.23 1227.23 1689.18 1228 1688C1226.36 1688.55 1226.55 1688.36 1226 1690M239 1689C238.378 1691.39 238.098 1693.53 238 1696C239.018 1693.55 239.4 1691.63 239 1689M510 1692C512.124 1691.1 512.101 1691.12 513 1689C510.876 1689.9 510.899 1689.88 510 1692M1958.67 1689.33C1958.22 1689.78 1959.28 1689.72 1959.33 1689.67C1959.78 1689.22 1958.72 1689.28 1958.67 1689.33M1029 1690L1028 1700C1031.83 1697.06 1032.26 1693.6 1029 1690M795 1691L796 1695C796.157 1693.17 795.938 1692.6 795 1691M1223 1691L1224 1692L1223 1691M599 1692C592.038 1708.06 580.299 1721.78 575 1739C582.308 1731.74 599.953 1702.14 599 1692M502 1700C504.947 1698.28 507.407 1696.21 510 1694C505.854 1693.83 503.88 1696.58 502 1700M1220 1693L1221 1694L1220 1693M1218 1694L1219 1695L1218 1694M168.333 1695.67C168.278 1695.72 168.222 1696.78 168.667 1696.33C168.722 1696.28 168.778 1695.22 168.333 1695.67M235 1696L233 1701C236.012 1700.35 236.498 1698.61 235 1696M1200 1709C1206.09 1705.91 1211.62 1701.19 1217 1697C1210.56 1697.28 1203.06 1703.54 1200 1709M796 1697L794 1702C795.632 1700.16 796.204 1699.43 796 1697M157 1728C162.06 1718.9 164.157 1707.52 170 1699C163.983 1698.71 156.069 1722.59 157 1728M545 1702C546.175 1701.23 546.227 1701.18 547 1700C545.365 1700.55 545.545 1700.36 545 1702M499 1701C495.335 1704.78 491.839 1708.55 489 1713L490 1714C493.272 1709.93 498.685 1706.55 499 1701M1027 1701C1026 1710.73 1019.66 1719.63 1017 1729C1021.93 1725.54 1031.63 1705.82 1027 1701M795 1703C793.882 1705.89 793.545 1707.25 795 1710L796 1704L795 1703M487 1714L488 1715L487 1714M792 1714C792.482 1716.36 792.636 1716.52 795 1717C794.028 1715.73 793.27 1714.97 792 1714M1183 1720C1186.8 1720.39 1189.32 1717.42 1192 1715C1188.34 1715.31 1185.83 1717.79 1183 1720M485 1716L486 1717L485 1716M572 1716C568.969 1723.46 566.715 1730.16 565 1738L565 1734C562.37 1737.69 561.464 1741.53 561 1746C566.494 1741.52 575.205 1722.52 572 1716M482 1719C483.176 1718.23 483.227 1718.18 484 1717C482.365 1717.55 482.545 1717.36 482 1719M792 1718C790.071 1725.64 792.561 1733.23 792 1741C797.103 1734.39 792.636 1725.88 794 1718L792 1718M1175 1728C1178.19 1726.5 1179.98 1724.89 1182 1722C1178.92 1723.57 1176.92 1725.12 1175 1728M1157 1724C1152.83 1729.82 1147.79 1737.06 1146 1744C1151.17 1740.56 1158.4 1730.53 1157 1724M211 1725L212 1726L211 1725M208 1728C209.766 1728.4 209.557 1728.29 211 1727L208 1728M155 1729L156 1730L155 1729M468.333 1729.67C468.278 1729.72 468.222 1730.78 468.667 1730.33C468.722 1730.28 468.778 1729.22 468.333 1729.67M799 1752L799 1754C853.719 1753.99 904.163 1747.86 958 1741.18C971.249 1739.53 1005.88 1740.86 1014 1729C981.389 1729.32 947.326 1741.05 915 1745.42C876.618 1750.61 837.246 1749.54 799 1752M1170 1731C1172.15 1731.27 1172.98 1730.92 1175 1730C1172.85 1729.73 1172.02 1730.08 1170 1731M150 1743C153.954 1740.09 154.941 1735.66 158 1732C152.818 1731.02 151.199 1739.03 150 1743M205 1732C187.313 1749.32 168.495 1765.55 151 1783C143.888 1790.1 133.31 1797.82 131 1808C151.28 1792.85 168.643 1772.1 186.886 1754.64C191.932 1749.81 204.612 1739.27 205 1732M464 1735L466 1732C463.797 1732.99 463.952 1732.67 464 1735M536 1733L537 1734L536 1733M1130 1773C1143.41 1768.12 1158.74 1744.16 1170 1734C1153.99 1731.87 1136.01 1761.2 1130 1773M441 1736L442 1737L441 1736M459 1738L460 1739L459 1738M563.667 1738.67C563.722 1738.72 563.778 1739.78 563.333 1739.33C563.278 1739.28 563.222 1738.22 563.667 1738.67M573 1739L572 1745C574.409 1742.97 574.543 1741.73 573 1739M440 1740C438.226 1743.64 436.667 1746.99 436 1751C438.982 1747.66 440.946 1744.36 442 1740L440 1740M455.333 1742.67C455.278 1742.72 455.222 1743.78 455.667 1743.33C455.722 1743.28 455.778 1742.22 455.333 1742.67M792.333 1742.67C792.278 1742.72 792.222 1743.78 792.667 1743.33C792.722 1743.28 792.778 1742.22 792.333 1742.67M149 1745C148.014 1746.48 148 1746.2 148 1748C149.766 1747.02 149.955 1746.78 149 1745M447 1752L454 1746C449.943 1745.83 448.305 1748.44 447 1752M1144 1745L1145 1746L1144 1745M791.667 1746.33C791.222 1746.78 792.278 1746.72 792.333 1746.67C792.778 1746.22 791.722 1746.28 791.667 1746.33M558 1747C556.366 1754.72 551.943 1761.68 549 1769C555.674 1765.38 559.451 1754.28 560 1747L558 1747M569 1747C566.586 1753.66 562.223 1758.68 562 1766C564.862 1759.59 569.553 1753.97 571 1747L569 1747M146 1752C144.814 1753.19 144.472 1753.58 144 1755C145.994 1754.15 146.699 1753.99 146 1752M445 1752L446 1753L445 1752M435 1753L436 1754L435 1753M142 1758C143.176 1757.23 143.227 1757.18 144 1756C142.365 1756.55 142.545 1756.36 142 1758M432 1759L433 1760L432 1759M431 1762C432.092 1764.83 433.03 1765.4 436 1766C434.489 1763.68 433.606 1762.91 431 1762M437 1767C452.879 1789.09 487.879 1800.81 512 1810C508.734 1802.73 498.516 1803.84 492.344 1800.46C474.468 1790.66 457.591 1770.37 437 1767M561 1767L562 1768L561 1767M549 1773C550.635 1772.45 550.455 1772.64 551 1771C549.825 1771.77 549.773 1771.82 549 1773M559 1771L559 1774C559.696 1772.45 559.696 1772.55 559 1771M137 1772L138 1773L137 1772M547 1774L544 1784C546.622 1780.94 548.084 1777.92 549 1774L547 1774M135 1775C131.149 1787.21 124.181 1799.37 122 1812C129.738 1808.75 135.987 1783.33 138 1775L135 1775M538 1775L538 1779C538.507 1777.31 538.507 1776.69 538 1775M557 1778L557 1781C557.696 1779.45 557.696 1779.55 557 1778M1591 1780C1590.01 1781.48 1590 1781.2 1590 1783L1593 1783L1591 1780M538 1781L539 1782L538 1781M555 1782C553.677 1786.37 552.7 1790.75 551 1795C555.231 1792.11 556.258 1786.87 555 1782M538 1784L538 1787C538.696 1785.45 538.696 1785.55 538 1784M542 1786C533.246 1793.71 535.615 1805.93 527 1814C539.63 1820.36 543.437 1794.91 542 1786M1588 1789L1589 1790L1588 1789M1586 1817C1593.34 1814.2 1593.56 1793.6 1589.18 1795.22C1585.21 1796.7 1587.38 1812.99 1586 1817M550 1799L551 1800L550 1799M548 1803L549 1804L548 1803M547.333 1805.67C547.278 1805.72 547.222 1806.78 547.667 1806.33C547.722 1806.28 547.778 1805.22 547.333 1805.67M514 1809C516.545 1812.39 519.989 1813.83 524 1815C521.521 1811.25 518.287 1810.03 514 1809M546 1809C544.756 1811.63 543.829 1814.21 543 1817C546.032 1814.82 547.002 1812.66 546 1809M814 1931C835.533 1921.51 854.74 1891.27 871.68 1875C876.522 1870.35 894.838 1862.47 889.772 1857.88C884.767 1853.35 872.46 1868 869.029 1871.21C851.898 1887.27 824.004 1909.84 814 1931M533 1867C550.905 1875.75 576.381 1867.78 596 1872.04C613.282 1875.79 631.362 1891.49 648 1893C642.195 1883.17 628.238 1878.79 618 1875.17C589.901 1865.25 562.694 1863.06 533 1867M557 1874C563.591 1876.84 570.863 1877.93 578 1878C573.797 1886.42 577.273 1896.66 576.96 1906C576.234 1927.62 573.086 1949.38 573 1971C583.906 1961.36 579.054 1918.28 579.783 1904C580.034 1899.08 577.668 1883.93 583.461 1881.54C586.89 1880.13 592.46 1885.22 596 1886C587.21 1875.5 569.764 1874.12 557 1874M1341.67 1875.33C1341.22 1875.78 1342.28 1875.72 1342.33 1875.67C1342.78 1875.22 1341.72 1875.28 1341.67 1875.33M513 1879L513 1881L546 1881C541.13 1871.35 521.755 1878.44 513 1879M1346 1876C1352.36 1882.34 1371.05 1892.82 1380 1891C1368.69 1885.07 1358.33 1879.57 1346 1876M1252 1878C1257.28 1883.77 1277.39 1895.48 1285 1896C1278.61 1887.18 1263.41 1876.29 1252 1878M1205 1899C1213.34 1894.44 1224.74 1885.88 1230 1878C1220.34 1881.3 1209.09 1889.36 1205 1899M1426 1880L1435 1891C1436.03 1885.69 1430.35 1881.84 1426 1880M899.333 1881.67C899.278 1881.72 899.222 1882.78 899.667 1882.33C899.722 1882.28 899.778 1881.22 899.333 1881.67M1607 1884C1611.5 1885.74 1616.68 1885.56 1620.97 1887.72C1643.78 1899.2 1616.61 1920.84 1614 1933C1623.35 1924.2 1634.46 1914.82 1632.66 1901C1631.39 1891.26 1617.76 1872.05 1607 1884M497 1887L510 1883C505.114 1881.74 500.1 1882.98 497 1887M1304.67 1883.33C1304.22 1883.78 1305.28 1883.72 1305.33 1883.67C1305.78 1883.22 1304.72 1883.28 1304.67 1883.33M1566 1975C1568.49 1977.38 1570.96 1979.37 1574 1981C1576.07 1967.95 1590.24 1962.96 1593.37 1951C1596.2 1940.15 1581 1927.43 1581.77 1915C1582.44 1904.18 1597.36 1893.98 1601 1883C1594.59 1884.5 1593.39 1889.8 1590.21 1894.92C1582.23 1907.78 1575.62 1916.13 1581.17 1932C1583.09 1937.51 1588.95 1943.1 1589.12 1949C1589.36 1957.5 1573.4 1974.29 1566 1975M1300.5 1885.5C1299.87 1886.13 1300.87 1887.13 1301.5 1886.5C1302.13 1885.87 1301.13 1884.87 1300.5 1885.5M597 1886C601.272 1889.36 606.847 1892.3 612 1894C608.683 1889.16 602.576 1887.19 597 1886M1296.67 1887.33C1296.22 1887.78 1297.28 1887.72 1297.33 1887.67C1297.78 1887.22 1296.72 1887.28 1296.67 1887.33M903 1889L904 1890L903 1889M1285 1892C1288.74 1892.91 1291.54 1891.94 1294 1889C1290.76 1889.56 1288.01 1890.67 1285 1892M1158 1899C1171.75 1897.56 1183.95 1902.87 1199 1902C1189.27 1893.6 1165.83 1889.93 1158 1899M1165.67 1892.67C1165.72 1892.72 1165.78 1893.78 1165.33 1893.33C1165.28 1893.28 1165.22 1892.22 1165.67 1892.67M612 1895L615 1898C614.101 1895.88 614.124 1895.9 612 1895M907 1897L908 1898L907 1897M651.667 1898.33C651.222 1898.78 652.278 1898.72 652.333 1898.67C652.778 1898.22 651.722 1898.28 651.667 1898.33M463 1908C473.533 1904.54 486.392 1922.98 494 1929.48C510.713 1943.75 526.721 1963.8 541.823 1980.08C544.377 1982.83 556.621 1992.31 555.239 1996.27C554.172 1999.32 533.84 2000.04 530 2001C541.107 2004.76 568.34 1993.82 567 2014L574 2011C569.402 2020.41 555.662 2026.53 547.438 2032.67C515.998 2056.12 474.966 2063.85 445.32 2091.02C436.646 2098.97 425.795 2104.65 416.956 2112.28C415.643 2113.41 408.075 2119.55 409.407 2120.89C414.893 2126.37 442.158 2099.01 447 2094.93C473.062 2072.95 505.031 2060.7 535 2045.46C546.292 2039.71 553.867 2026.59 568 2028C572.368 2008.51 587.896 2028.62 594.147 2034.96C611.538 2052.61 629.178 2068.25 649.967 2081.64C655.987 2085.52 661.477 2094.66 669 2094C648.409 2071.7 621.427 2056.76 600.562 2034.04C597.134 2030.31 581.256 2019.37 582.081 2014.04C582.677 2010.19 596.404 2001.9 600.01 2000.25C613.003 1994.31 643.63 2001.83 659 2001C651.243 1992.12 614.785 2005.61 610.641 1994.3C609.437 1991.01 620.208 1980.2 622.115 1977C631.783 1960.79 640.945 1944.42 651.864 1929C654.749 1924.93 658.893 1915.07 664.801 1915.02C680.995 1914.89 687.276 1949.77 702.124 1951.72C706.253 1952.26 696.129 1939.28 695.176 1938.22C684.069 1925.8 672.112 1911.04 659 1901C659.977 1917.1 644.008 1928.93 635.179 1942.14C624.558 1958.02 619.018 1988.47 598 1995.12C591.768 1997.09 581.541 1995.09 575.008 1994.61C571.623 1994.36 567.997 1996.87 564.871 1996.01C557.739 1994.04 550.071 1981.24 544.922 1975.99C527.692 1958.41 511.352 1938.28 493 1922.18C484.993 1915.15 471.158 1892.97 463 1908M618 1900L619 1901L618 1900M654 1900L655 1901L654 1900M910 1900C924.146 1926.81 874.398 1941.11 862 1963C879.385 1957.03 895.854 1937.3 909.022 1924.9C911.802 1922.28 923.178 1915.3 923.574 1911.77C924.182 1906.35 913.828 1901.97 910 1900M1156 1902C1154.96 1904.1 1154.4 1905.69 1154 1908C1155.49 1905.91 1156.07 1904.56 1156 1902M1440 1902L1441 1906C1441.27 1904.09 1441.06 1903.65 1440 1902M620 1903C621.45 1904.61 622.051 1905.06 624 1906C622.55 1904.39 621.949 1903.94 620 1903M462 1909C459.092 1913.43 455.432 1917.29 453 1922C457.46 1919.24 462.011 1914.53 462 1909M1152 1909C1148.63 1914.59 1144.88 1920.75 1143 1927C1147.66 1922.87 1152.76 1915.47 1152 1909M1443 1909L1443 1912C1443.7 1910.45 1443.7 1910.55 1443 1909M1149 1956C1165.73 1943.39 1172.12 1922.88 1192 1911C1172.97 1907.42 1149.03 1939.46 1149 1956M1199 1910C1205.27 1918.33 1222.16 1937.47 1231 1943C1225 1929.7 1214.27 1912.24 1199 1910M1396.33 1911.67C1396.28 1911.72 1396.22 1912.78 1396.67 1912.33C1396.72 1912.28 1396.78 1911.22 1396.33 1911.67M1400 1911L1401 1912L1400 1911M1408 1912C1409.69 1912.94 1411.13 1913.48 1413 1914C1411.35 1912.11 1410.52 1911.98 1408 1912M1357 1945C1365.8 1944.52 1388.5 1919.71 1394 1912C1378.94 1914.33 1365.29 1933.19 1357 1945M1414 1914C1415.91 1924.81 1408.98 1959.85 1428 1957L1428 1955C1409.61 1948.58 1425.33 1924.68 1414 1914M1443 1914C1443.62 1931.59 1442.97 1940.19 1434 1955C1445.45 1948.67 1455.88 1924.45 1443 1914M924 1918L925 1919L924 1918M1295 1921C1296.63 1920.46 1296.45 1920.64 1297 1919C1295.82 1919.77 1295.77 1919.82 1295 1921M1320 1919C1322.49 1924.58 1326.67 1938.5 1332 1941C1331.12 1931.8 1329.14 1922.88 1320 1919M1231 1945C1245.39 1967.43 1276.59 1934.81 1287 1923C1271.01 1926.07 1264.66 1947.35 1249 1950.1C1242.76 1951.19 1236.75 1946.76 1231 1945M452 1924C442.03 1940.78 435.323 1957.59 442 1977C444.907 1967.4 440.394 1957.58 442.935 1948C444.834 1940.84 453.59 1931.19 452 1924M208 1942C218.417 1948.52 241.709 1938.65 254 1938.95C256.171 1939.01 267.343 1936.73 267.919 1939.22C268.517 1941.81 260.754 1945.55 259.078 1946.79C249.607 1953.81 241.484 1962.96 232.438 1970.58C208.793 1990.5 185.168 2010.77 162.136 2031.42C158.826 2034.38 141.124 2047.87 142.761 2052.27C144.122 2055.93 155.793 2055.26 159 2055.82C176.003 2058.78 193.779 2060.25 210.96 2062.14C226.375 2063.84 241.563 2067.95 257 2070L252 2076C262.5 2075.08 261.899 2063.2 262.801 2055C265.338 2031.94 270.228 2009.47 275.718 1987C277.335 1980.38 283.281 1965.46 278 1960C276.163 1985.92 264.771 2012.16 261.003 2038C260.307 2042.77 260.58 2061.95 256.458 2064.16C248.109 2068.64 230.444 2060.66 222 2058.86C198.733 2053.88 171.762 2051.01 148 2051C153.662 2041.66 166.83 2034.22 175 2026.78C198.61 2005.29 224.016 1985.81 247.136 1963.68C255.419 1955.75 270.61 1938.12 283 1939C281.492 1943.07 281.867 1946.72 282 1951C285.155 1945.52 287.116 1935.34 288 1929C265.734 1937.66 232.089 1940.92 208 1942M1142 1936C1139.17 1940.98 1133.22 1953.4 1144 1952C1142.18 1946.55 1145.14 1940.58 1142 1936M20 1940C22.1236 1939.1 22.1007 1939.12 23 1937C20.8764 1937.9 20.8993 1937.88 20 1940M1613 1938C1614.69 1947.01 1625.07 1959.86 1621.18 1968.85C1619.18 1973.47 1613.34 1974.16 1611 1979C1613.43 1978.09 1620.36 1974.86 1620.58 1980.02C1620.91 1987.71 1606.39 1986.47 1607.61 1993.73C1611.45 2016.47 1632.12 2013.98 1622 2041C1627.53 2036.32 1631.81 2029.69 1630.77 2022.14C1630.41 2019.47 1624.09 2010.86 1626.1 2009.08C1629.1 2006.43 1634.88 2012.62 1638.22 2012.34C1643.45 2011.91 1645.4 2005.23 1650.14 2003.8C1656.64 2001.83 1660.46 2010.44 1667 2005C1661.44 2004.3 1657.28 1999.54 1651.98 1999.13C1645.57 1998.63 1643.45 2006.73 1637.78 2007.56C1617.77 2010.47 1605.43 1994.37 1624.35 1982.25C1627.13 1980.47 1636.72 1974.5 1639.64 1974.39C1645.48 1974.18 1649.47 1982.18 1655 1976C1649.05 1974.73 1643.43 1972.22 1639 1968C1620.13 1986.36 1624.67 1952.52 1613 1938M175 1945C180.639 1947.28 202.578 1949.89 205 1943C194.733 1942.91 184.69 1940.26 175 1945M815 1944C811.887 1960.11 816.715 1979.87 816.083 1996.56C814.638 2034.76 811.001 2072.69 811 2111C812.234 2108.2 812.346 2106.03 812 2103C814.602 2102.57 815.835 2085.69 816 2082L813 2084C817.709 2065.19 815.014 2044.24 816.076 2025C817.524 1998.76 824.889 1969.84 817 1944L815 1944M152 1946C156.557 1952.03 166.416 1949.65 172 1946C165.491 1945.22 158.584 1946 152 1946M1336 1947C1338.32 1950.42 1340.5 1951.53 1344 1949C1340.94 1948.93 1338.78 1948.24 1336 1947M122 1969L126 1970C126.16 1965.16 132.097 1954.01 130.548 1950.57C127.773 1944.41 122.579 1966.9 122 1969M135 1948C139.903 1951.43 144.579 1951.09 150 1949C145.268 1947.4 139.954 1948 135 1948M940 1948C936.576 1964.63 959.974 1981.59 959.319 1998.66C959.157 2002.88 949.023 2008.12 946 2010.47C932.723 2020.78 919.211 2030.64 906 2041C918.035 2040.89 937.5 2022.01 947 2014.87C949.903 2012.69 957.376 2004.52 961.286 2005.76C968.41 2008.01 978.321 2034.18 982 2041C987.489 2035.74 974.014 2015.09 968 2013C965.336 1989.59 949.933 1969.23 942 1948L940 1948M1345 1950L1346 1951L1345 1950M280 1951C279.014 1952.48 279 1952.2 279 1954L282 1952L280 1951M638 1954C643.802 1955.81 650.887 1953.03 657 1953L657 1951C650.45 1951.03 644.142 1951.61 638 1954M705.667 1953.33C705.222 1953.78 706.278 1953.72 706.333 1953.67C706.778 1953.22 705.722 1953.28 705.667 1953.33M706 1956C707.374 1967.83 722.055 1992.07 703.922 1997.17C694.663 1999.77 677.032 1990.61 670 1999C676.579 1998.96 708.146 1999.43 712.058 2002.96C717.665 2008.01 713.629 2019.05 712.476 2025C708.569 2045.17 699.487 2058.52 692 2077C719.495 2057.87 714.878 2023.3 715.68 1995C716.005 1983.53 716.492 1963.49 706 1956M932.667 1957.33C932.222 1957.78 933.278 1957.72 933.333 1957.67C933.778 1957.22 932.722 1957.28 932.667 1957.33M1657 1976C1661.03 1974.56 1665.27 1967.76 1669 1967.62C1679.47 1967.23 1682.83 1976.89 1692 1963C1703.35 1971.46 1707.51 1971.41 1720 1966C1704.82 1960.86 1693.64 1966.58 1680.68 1968.88C1670.28 1970.73 1663.08 1959.21 1657 1976M857 1964L858 1965L857 1964M921.5 1965.5C920.873 1966.13 921.872 1967.13 922.5 1966.5C923.128 1965.87 922.127 1964.87 921.5 1965.5M853 1967L852 1970C853.766 1969.02 853.955 1968.78 853 1967M693 1968L694 1969L693 1968M876 2003C890.953 1997.58 908.507 1980.73 919 1969C907.335 1971.13 881.794 1992.65 876 2003M122 1971C121.881 1974.8 116.827 1993.4 120 1994C114.012 2001.75 112.093 2016.38 112 2026C118.054 2020 118.825 2005.21 119 1997C125.009 1996.1 124.983 1976.15 125 1971L122 1971M696 1971C696.98 1972.78 696.908 1972.59 699 1973L696 1971M1551 1971C1551.78 1973.93 1552.52 1975.26 1555 1977C1554.3 1974.05 1553.4 1972.85 1551 1971M1489 1977C1493.18 1977.63 1495.92 1975.5 1498 1972C1494.66 1973.24 1491.85 1974.86 1489 1977M1500 1972L1501 1973L1500 1972M573 1973L571 1992C575.007 1987.96 575.878 1977.79 573 1973M1503 1974C1503.21 1976.74 1503.3 1977.42 1506 1978C1505.26 1975.82 1504.9 1975.28 1503 1974M1506 1979C1510.66 1984.66 1523.27 1977.07 1530 1977L1530 1975C1521.33 1975 1514.34 1978.26 1506 1979M1542 1975L1541 1979C1542.06 1977.35 1542.27 1976.91 1542 1975M1953 1980C1954.51 1980.25 1955.44 1980.18 1957 1980C1954.38 1997.25 1946.08 2012.2 1939.29 2028C1937.85 2031.33 1935.52 2042.1 1931.58 2042.98C1926.54 2044.1 1915.76 2037.11 1911 2035C1915.53 2041.16 1927.22 2042.72 1929.96 2050.22C1935 2064 1913.94 2095.55 1911 2110C1923.79 2098.73 1920.74 2065.07 1933.74 2057.22C1937.7 2054.83 1945.21 2061.06 1948 2063.38C1957.15 2070.98 1973.68 2080.27 1963 2092C1971.17 2093.65 1978.26 2097.89 1973.13 2083.26C1967.9 2068.34 1945.65 2063.1 1937.84 2050.9C1934.4 2045.52 1938.8 2038.25 1940.64 2033C1945.99 2017.74 1952.96 1990.7 1964 1979C1967.84 1996.89 1967.34 2016.74 1969.66 2035C1970.43 2041.03 1968.09 2049.66 1973 2054C1972.52 2034.07 1971.73 2013.92 1969.44 1994C1968.12 1982.56 1966.35 1969.35 1953 1980M700 1976L701 1977L700 1976M1564 1976C1560.3 1977.97 1556.79 1979.02 1555 1983C1558.77 1981.57 1561.82 1979.47 1565 1977L1564 1976M1486 1979C1484.81 1980.19 1484.47 1980.58 1484 1982C1485.99 1981.15 1486.7 1980.99 1486 1979M443 1980L444 1981L443 1980M1951 1981C1944.32 1989.06 1936.47 1995.77 1929 2003.03C1924.33 2007.57 1919.71 2012.2 1915.22 2016.92C1913.08 2019.18 1894.77 2042.38 1901.82 2040.05C1907.95 2038.03 1907.37 2030.49 1910.74 2026.13C1918.89 2015.58 1929.79 2006.39 1939.32 1997.12C1943.69 1992.88 1951.86 1987.79 1951 1981M1532 1982C1532.75 1984.09 1533.21 1984.68 1535 1986C1534.79 1983.26 1534.7 1982.58 1532 1982M1574 1982C1575.98 1990.9 1589.1 1994.23 1589.38 2003.04C1589.69 2012.97 1574.83 2018.37 1578 2029C1589.95 2007.62 1601.59 1997.94 1574 1982M1730 1982C1728.1 1986.41 1725.51 1989.74 1722 1993C1728.16 1993.74 1732.95 1987.57 1730 1982M442 1983L443 1984L442 1983M1483 1983L1484 1984L1483 1983M863 1985C863.199 1986.55 863.225 1986.66 864 1988L863 1985M442 1987L442 1992C442.929 1989.87 442.929 1989.13 442 1987M865 1992L866 1996C866.911 1994.62 867.404 1993.56 868 1992L865 1992M1695 2002C1699.52 2000.57 1703.09 1998.46 1705 1994C1700.58 1995.55 1697.55 1998.08 1695 2002M1708 1994L1708 1997L1714 1996C1711.94 1994.77 1710.38 1994.34 1708 1994M1669 2004C1674.19 2003.14 1676.74 2000.67 1679 1996C1674.84 1997.97 1671.87 2000.41 1669 2004M574.567 1998.86C586.769 1992.93 596.995 2003.23 580.026 2010.24C573.434 2012.96 568.524 2001.8 574.567 1998.86M444 1999C441.813 2011.95 441.957 2025.54 438.361 2038.22C435.433 2048.54 428.194 2062.35 429 2073C438.907 2056.19 451.948 2017.95 444 1999M1557 1999L1553 2004L1554 2005C1555.85 2002.97 1557.02 2001.76 1557 1999M1685 1999C1685.55 2000.64 1685.36 2000.45 1687 2001C1686.45 1999.36 1686.64 1999.55 1685 1999M477 2007C486.745 2009.84 517.111 2007.62 526 2003C513.205 1998.67 489.033 2001.12 477 2007M962 2001.33L962.333 2001.67C961.84 2001.83 961.227 2001.33 962 2001.33M1688 2001L1691 2003C1690.02 2001.22 1690.09 2001.41 1688 2001M874 2004L875 2005L874 2004M1530 2005L1526 2010C1529.4 2009.8 1530.65 2007.98 1532 2005L1530 2005M1540 2006L1542 2009L1540 2006M456 2010L456 2012C462.361 2011.25 467.803 2010.92 474 2009C468.122 2007.04 462 2009.62 456 2010M642 2008C641.784 2009.68 641.784 2010.32 642 2012C643.267 2010.46 643.489 2009.95 644 2008L642 2008M1493 2013L1492 2014C1499.19 2019.21 1505.65 2016.53 1510 2009C1503.42 2011.31 1500.2 2016.4 1493 2013M1516 2009C1517.29 2012.35 1523.73 2017.91 1525 2012L1516 2009M277 2010L278 2011L277 2010M300 2020C297.756 2009.55 290.17 2014.91 300 2020M450 2012L453 2013L450 2012M1483.5 2015.5C1482.87 2016.13 1483.87 2017.13 1484.5 2016.5C1485.13 2015.87 1484.13 2014.87 1483.5 2015.5M100 2091C112.291 2077.97 107.708 2044.18 114 2027C107.054 2028.03 107.413 2036.24 106.882 2042C105.368 2058.46 102.233 2074.65 100 2091M565 2029C565.741 2031.18 566.103 2031.72 568 2033C567.259 2030.82 566.897 2030.28 565 2029M564 2034L565 2059C567.598 2051.34 564.416 2042.16 568 2035L564 2034M1577 2038C1578.36 2043.17 1581.07 2046 1586 2048C1584.5 2043.62 1580.76 2040.55 1577 2038M912 2075C912.572 2078.52 913.771 2081.66 915 2085C930.333 2075.54 966.558 2034.44 980 2057C982.417 2052.07 980.141 2039.97 972.419 2042.77C956.86 2048.41 926.487 2081.77 912 2075M1621 2042C1621.17 2059.96 1654.03 2068.14 1627 2085C1636.59 2088.05 1643.66 2075.38 1642.02 2067C1640.04 2056.96 1628.64 2047.99 1621 2042M901 2047C902.175 2046.23 902.227 2046.18 903 2045C901.365 2045.55 901.545 2045.36 901 2047M1588 2046C1592.28 2056.82 1606.18 2050.57 1595 2066L1596 2067C1610.32 2056.64 1601.84 2049.3 1588 2046M1972 2055C1969.64 2061.61 1968.63 2069.03 1973 2075C1973.94 2068.83 1974.38 2060.84 1972 2055M898 2057C899.674 2063.81 905.566 2068.58 912 2071C907.604 2065.52 904.96 2059.42 898 2057M983 2061C984.101 2064.81 987.953 2089.36 991.872 2089.36C998.275 2089.36 985.194 2063.34 983 2061M1593 2073C1594.63 2071.39 1595.77 2069.94 1597 2068C1594.18 2069.18 1593.46 2069.98 1593 2073M1565 2083C1572.36 2082.39 1577.11 2077.11 1585 2078C1578.9 2070.82 1569.05 2076.71 1565 2083M428 2075L426 2082C428.489 2080.03 429.124 2078.03 430 2075L428 2075M561 2076L562 2077L561 2076M562 2078L563 2079L562 2078M1590 2080C1592.86 2083.88 1595.14 2085.65 1600 2086C1597.04 2082.51 1594.74 2080.03 1590 2080M236.667 2080.33C236.222 2080.78 237.278 2080.72 237.333 2080.67C237.778 2080.22 236.722 2080.28 236.667 2080.33M234 2081L223 2084C227.559 2085.54 231.051 2084.56 235 2082L234 2081M1603 2081C1602.88 2083.12 1602.56 2084.95 1602 2087L1616 2087C1613 2083.36 1607.24 2083.05 1603 2081M221 2085L222 2086L221 2085M815 2085L814 2086L815 2085M217 2086L220 2088C219.02 2086.22 219.092 2086.41 217 2086M424 2087C422.69 2092.56 421.013 2097.66 419 2103C424.094 2099.38 424.636 2092.74 426 2087L424 2087M1565 2087C1560.41 2097.08 1550.35 2102.03 1540 2104C1551.17 2107.78 1565.17 2098.33 1567 2087L1565 2087M212 2088C207.5 2090.12 203.183 2092.3 199 2095C204.547 2096.08 209.099 2092.6 213 2089L212 2088M1639 2099C1644.29 2105.91 1650.82 2094.92 1656 2092C1648.97 2091 1645.85 2098.38 1639 2099M1678 2091C1675.26 2095.17 1672.49 2098.7 1668 2101C1674.63 2102.66 1678.68 2096.78 1680 2091L1678 2091M1712 2092C1721.22 2100.11 1724 2110.35 1731 2120C1731.94 2110.59 1723.03 2090.64 1712 2092M1686 2092L1689 2097C1689.39 2094.34 1688.13 2093.54 1686 2092M1700 2097C1703.55 2097.25 1706.81 2094.5 1710 2093C1705.5 2091.65 1703.09 2093.87 1700 2097M1609 2093C1615.33 2103.87 1627.09 2098.36 1637 2097C1634.21 2093.91 1615.11 2095.08 1609 2093M1657.67 2093.33C1657.22 2093.78 1658.28 2093.72 1658.33 2093.67C1658.78 2093.22 1657.72 2093.28 1657.67 2093.33M1949 2103C1953.78 2101.29 1957.34 2098.31 1960 2094C1955.13 2095.85 1951.59 2098.45 1949 2103M98 2104C100.484 2101.52 101.062 2098.33 102 2095C98.5147 2097.38 98.1389 2099.9 98 2104M1661 2096C1662.54 2097.27 1663.05 2097.49 1665 2098C1663.54 2096.92 1662.75 2096.56 1661 2096M983.5 2098.5C982.872 2099.13 983.873 2100.13 984.5 2099.5C985.127 2098.87 984.127 2097.87 983.5 2098.5M987 2098L987 2100L992 2100C990.222 2098.8 989.122 2098.4 987 2098M1504 2105C1509.22 2103.93 1514.02 2100.94 1519 2099C1512.83 2097 1507.91 2100.38 1504 2105M560 2100L560 2104C561.267 2102.46 561.489 2101.95 562 2100L560 2100M969 2101C971.813 2101.83 974.12 2101.49 977 2101C974.141 2100.1 971.923 2100.39 969 2101M978 2100L981 2101L978 2100M1695 2100C1696.46 2101.08 1697.25 2101.44 1699 2102C1697.64 2100.52 1697.03 2100.36 1695 2100M128 2127C145.157 2129.56 169.224 2110.16 185 2104C174.818 2101.19 136.194 2120.25 128 2127M956 2104L963 2104C960.405 2103.14 958.595 2103.14 956 2104M966.667 2103.33C966.222 2103.78 967.278 2103.72 967.333 2103.67C967.778 2103.22 966.722 2103.28 966.667 2103.33M97 2105C96.3325 2110.03 96.0024 2114.92 96 2120L98 2120C98.0006 2114.91 98.1116 2110.02 99 2105L97 2105M862 2124C869.591 2130.04 878.346 2121.53 886.199 2119.64C907.782 2114.44 929.846 2111.29 951 2106C925.04 2097.79 887.976 2120.44 862 2124M1940 2106C1942.17 2106.48 1943.79 2106.33 1946 2106C1943.77 2105.41 1942.29 2105.57 1940 2106M605 2107C606.506 2107.68 607.315 2107.83 609 2108C607.494 2107.32 606.685 2107.17 605 2107M615.667 2107.33C615.222 2107.78 616.278 2107.72 616.333 2107.67C616.778 2107.22 615.722 2107.28 615.667 2107.33M619 2107L622 2108L619 2107M503 2111C524.539 2117.16 550.692 2110.75 573 2113.43C580.292 2114.31 592.671 2114.99 598 2109C568.902 2115.24 530.463 2098.78 503 2111M600.667 2109.33C600.222 2109.78 601.278 2109.72 601.333 2109.67C601.778 2109.22 600.722 2109.28 600.667 2109.33M1929 2113C1932.34 2113.05 1934.08 2111.65 1936 2109L1929 2113M423 2118C443.54 2118.07 484.088 2122.31 502 2112C484.985 2107.69 467.628 2115.73 450.96 2115.66C442.459 2115.63 429.984 2111.97 423 2118M1909 2111C1908.22 2113.8 1907.21 2116.36 1906 2119C1909.66 2117.32 1910.44 2114.87 1911 2111L1909 2111M811 2116C810.014 2117.48 810 2117.2 810 2119C811.766 2118.02 811.955 2117.78 811 2116M559 2117C558.79 2118.87 558.786 2120.13 559 2122C560.083 2120.26 560.544 2119.01 561 2117L559 2117M96 2121L96 2124L98 2124L98 2121L96 2121M1501 2121C1500.52 2124.12 1500.64 2126.87 1501 2130C1504.08 2127.42 1503.62 2124.77 1503 2121L1501 2121M1916 2123L1919 2121L1916 2123M134 2124L133 2125L134 2124M136.667 2124.67C136.722 2124.72 136.778 2125.78 136.333 2125.33C136.278 2125.28 136.222 2124.22 136.667 2124.67M833 2131C839.804 2132.35 846.63 2126.99 853 2125C846.597 2123.35 838.117 2127.41 833 2131M558 2125L559 2126L558 2125M123.5 2129.5C122.873 2130.13 123.873 2131.13 124.5 2130.5C125.127 2129.87 124.127 2128.87 123.5 2129.5M118 2133L122 2132C119.954 2131.25 119.404 2131.34 118 2133M1490 2133C1490.6 2134.2 1490.47 2133.98 1492 2135L1489 2135C1493.34 2136.2 1496.51 2134.62 1499 2131L1490 2133M816 2132L816 2134C818.134 2133.85 819.934 2133.55 822 2133C819.936 2132.28 818.195 2132.09 816 2132M824 2132L825 2133L824 2132M1733 2132C1726.7 2148.02 1709.48 2141.29 1698 2141C1709.49 2150.18 1732.27 2149.66 1735 2132L1733 2132M558 2133L559 2134L558 2133M557 2135C557.445 2139.3 555.274 2149.97 560 2151C559.652 2145.95 560.497 2138.95 557 2135M1483.33 2135.67C1483.28 2135.72 1483.22 2136.78 1483.67 2136.33C1483.72 2136.28 1483.78 2135.22 1483.33 2135.67M79 2147C83.2652 2151.64 92.2443 2145.26 96 2142C89.6841 2141.6 85.1147 2146.07 79 2147M1613 2145C1617.4 2147.39 1623.06 2149.14 1628 2150C1623.31 2146.02 1619.05 2145.03 1613 2145M1652 2145C1655.25 2149.93 1663.4 2154.53 1668 2149C1662.01 2149.51 1657.75 2145.91 1652 2145M1677 2146C1680.64 2149.1 1684.29 2149.81 1689 2150C1685.8 2146.26 1681.69 2146.06 1677 2146M1527 2148C1528.95 2149.91 1530.28 2150.06 1533 2150C1530.81 2148.29 1529.77 2147.95 1527 2148M1575 2149C1578.69 2152.3 1583.16 2153.37 1588 2154C1584.75 2150.09 1579.88 2149.34 1575 2149M1641 2151L1636 2154C1638.68 2154.27 1641.08 2154.13 1641 2151M1590 2154L1590 2156L1594 2156L1594 2154L1590 2154M1595 2154L1596 2155L1595 2154M1547 2159L1547 2161L1550 2161L1550 2159L1547 2159M1552 2161C1553.64 2160.46 1553.45 2160.64 1554 2159C1552.82 2159.77 1552.77 2159.82 1552 2161M1504 2160L1505 2161L1504 2160M1488 2161L1489 2162L1488 2161M1492 2163C1494.88 2164.8 1497.66 2165.48 1501 2166L1501 2164L1492 2163z"/>
</svg>
