<?xml version="1.0" standalone="yes"?>
<svg xmlns="http://www.w3.org/2000/svg" width="2200" height="2200">
<path style="fill:#131313; stroke:none;" d="M1633 26C1635.39 37.3921 1645.82 44.6819 1651.96 54.0076C1671.43 83.5942 1694.21 105.196 1716.48 132C1719.29 135.384 1741.33 165.703 1743.02 164.456C1747.97 160.787 1723.59 133.664 1720.64 130C1703.01 108.14 1681.28 90.9089 1664.75 68C1655.98 55.8328 1647.44 32.397 1633 26M593 88C604.27 77.1213 619.843 44.2615 624 29C615.617 29.8179 617.904 36.4709 614.35 42.438C605.924 56.5845 597.814 72.2209 593 88M523 92C532.19 82.0923 538.178 55.0593 535 42C542.387 44.8035 545.16 53.771 552.32 56.8091C559.166 59.7146 571.85 42.3494 574 37L581 44C581.734 19.0159 563.03 53.9819 553.984 52.2139C548.808 51.2021 540.24 34.7065 535.778 37.3157C532.751 39.0854 532.979 47.8877 532.398 51C529.828 64.7595 524.893 78.1843 523 92M610.667 33.3333C610.222 33.7783 611.278 33.7222 611.333 33.6667C611.778 33.2222 610.722 33.2776 610.667 33.3333M1623 46L1631 37C1625.97 36.7849 1624.04 41.7446 1623 46M1361 39L1364 41C1363.02 39.2168 1363.09 39.4058 1361 39M1281 48C1283.64 46.3457 1286.04 44.9678 1289 44C1285.29 40.3555 1282.67 44.3818 1281 48M1323 68C1328.72 75.1602 1354.66 48.7124 1358 42C1344.58 47.3591 1336.64 63.155 1323 68M1365.5 45.5C1364.87 46.1277 1365.87 47.1277 1366.5 46.5C1367.13 45.873 1366.13 44.8726 1365.5 45.5M1620 47C1619.01 48.4788 1619 48.2031 1619 50C1620.29 48.5569 1620.4 48.7666 1620 47M1616 52C1606.24 68.1296 1592.06 81.6067 1580 96L1581 97C1594.35 84.8101 1610.45 68.6392 1618 52L1616 52M579 56C579.939 59.6909 581.239 60.5081 585 60C583.081 58.2317 581.355 57.1328 579 56M588 56L586 60C587.996 58.7563 588.558 58.3083 588 56M1276 56L1277 57L1276 56M1292 57C1292.21 59.739 1292.3 60.4219 1295 61C1294.06 59.052 1293.61 58.4495 1292 57M1274 59C1273.01 60.4785 1273 60.2031 1273 62C1274.29 60.5569 1274.4 60.7664 1274 59M1365 59C1365.55 60.6355 1365.36 60.4548 1367 61C1366.23 59.8245 1366.18 59.7732 1365 59M1390 67C1396.48 68.126 1404.62 64.9426 1409 60C1402.51 59.7996 1394.77 62.5928 1390 67M1381 170C1382.99 130.353 1401.08 94.2615 1417 59C1408.6 59.6025 1406.84 71.4795 1403.94 78C1394.35 99.5889 1388.97 120.139 1384 143C1382.89 148.091 1373.93 168.486 1381 170M171 76C192.324 72.374 210.938 63.7698 233 63C224.867 53.1536 178.137 67.4585 171 76M238 73C240.596 68.8406 239.618 64.6626 239 60C233.095 62.0652 237.849 68.2473 238 73M1365 62C1365.77 63.1753 1365.82 63.2271 1367 64C1366.46 62.3655 1366.63 62.5449 1365 62M1272.33 63.6667C1272.28 63.7214 1272.22 64.7783 1272.67 64.3333C1272.72 64.2771 1272.78 63.2229 1272.33 63.6667M1295 65C1296.05 67.9009 1297.1 68.9456 1300 70C1298.44 68.0989 1296.9 66.5527 1295 65M531 66C531.642 67.75 531.859 69.1272 532 71L530 71C530.141 69.1272 530.358 67.7505 531 66M1301 70C1303.51 70.6123 1304.76 70.2881 1307 69C1304.53 68.7307 1303.28 68.9893 1301 70M1319 68L1320 69L1319 68M1965 69L1965 71L1976 71C1972.53 68.825 1969.02 69.0076 1965 69M1980 71C1984.12 71.6228 1987.84 72.6265 1992 72C1987.81 69.2036 1975.33 68.1919 1977.66 76.6973C1979.11 81.9878 1981.74 74.814 1980 71M1271 71C1266.97 73.6677 1257.3 74.9336 1257 80C1261.92 77.7803 1270.39 77.4524 1271 71M1993 73C2001.37 89.5642 2021.13 99.7734 2020 120C2030.44 108.149 2006.87 74.9124 1993 73M99 112C122.042 111.192 145.637 81.6465 170 77C155.608 70.5466 126.022 93.8413 114 101.274C109.033 104.345 101.353 106.427 99 112M238.333 75.6667C238.278 75.7219 238.222 76.7776 238.667 76.3333C238.723 76.2771 238.778 75.2227 238.333 75.6667M238 79L239 80L238 79M1235 79C1233.74 82.1414 1232.86 84.6099 1233 88C1235.18 85.2017 1236.14 82.4272 1237 79L1235 79M238 81L238 86L240 81L238 81M1938 81C1932.28 85.6335 1926.66 91.0291 1924 98C1928.33 94.5964 1938.67 87.0835 1938 81M932 83C920.366 92.7048 900.052 104.096 895 119C907.032 114.567 913.172 99.3623 925 94C922.194 104.961 913.653 113.786 909 124C918.511 120.307 933.218 93.1848 932 83M238 87L238 93L242 91C239.978 89.8423 239.238 88.9822 238 87M841 117C842.531 110.916 838.414 106.375 836 101C832.861 105.579 843.842 132.357 849.962 132.357C853.969 132.357 856.418 124.243 858.16 121.479C866.636 108.021 871.333 96.104 886 104L879 89C870.336 94.5808 861.847 124.112 851.008 124.239C847.32 124.282 844.437 118.448 841 117M825 92C826.526 94.1414 827.402 94.5029 830 95C828.408 92.9524 827.551 92.5066 825 92M241 94L241 103C243.46 100.144 242.631 97.166 241 94M1221 94C1221.54 115.997 1234 136.31 1234 160C1248.28 147.334 1231.65 104.811 1221 94M1231 94C1231.66 97.2241 1232.35 99.0183 1235 101C1234.09 98.0676 1233.35 96.0193 1231 94M681 97C683.568 97.7095 684.749 97.4138 687 96C684.55 95.8606 683.301 96.1104 681 97M420 106C458.277 108.906 497.244 100.121 536 102.864C542.485 103.323 568.056 100.735 571.825 105.822C577.267 113.167 572 144.279 572 154L575 154C576.033 142.905 571.017 115.395 578.226 106.964C582.989 101.393 596.407 105 603 105C620.937 105 638.235 101.846 656 100.981C662.52 100.663 673.162 103.096 678 98C656.214 93.3257 633.855 101 612 101C568.591 101 525.468 96.5239 482 97.0076C469.426 97.1475 428.123 96.5522 420 106M832 98C832.773 99.175 832.825 99.2271 834 100C833.455 98.365 833.635 98.5449 832 98M791 293C794.913 291.027 819.478 273.41 820.036 273.643C824.672 275.583 822.839 288.241 829 292C827.58 287.931 825.79 267.229 822.216 266.106C816.902 264.435 801.63 285.073 794 287C799.32 267.645 815.266 249.017 823.114 230C824.65 226.277 829.27 213.969 833.682 213.203C838.005 212.452 847.916 229.607 850.038 232.989C864.893 256.665 875 272.479 875 301C858.797 294.393 853.288 269.094 840 263C838.747 276.438 829.84 288.109 829 300C837.156 296.88 841.024 283.136 842 275C846.715 279.042 869.296 309.479 875.978 304.072C881.132 299.9 877.6 289.708 878 284L885 289C880.691 272.435 870.261 254.722 859.904 241.136C853.713 233.016 841.815 219.645 843 209C826.84 216.91 836.97 157.136 827 155C832.226 146.046 825.6 122.123 825.959 111C825.998 109.816 826.2 99.0198 822.81 102.106C815.542 108.724 824.259 139.419 825.42 148C827.669 164.625 835.685 194.192 829.493 210C823.089 226.349 814.979 245.757 805.654 260.68C799.836 269.99 788.966 281.04 791 293M1576 100C1574.81 101.993 1573.86 103.847 1573 106C1575.28 104.119 1576.6 102.593 1578 100L1576 100M1921 103L1922 104L1921 103M240 105C241.309 126.555 207.541 113 191 113L191 115C195.714 115 230.357 114.977 230.357 121.26C230.357 127.425 203.061 134.186 198 135.998C174.176 144.529 153.32 157.575 131 169.257C123.201 173.338 108.63 176.68 103 183C128.143 182.963 152.86 180.41 178.001 180.918C188.728 181.135 205.204 184.527 215 180C195.997 174.23 165.772 177.267 146 178.871C141.477 179.238 125.372 184.087 122.426 179.307C120.577 176.308 144.938 166.361 148.136 164.453C169.76 151.556 191.499 142.567 215 133.561C221.518 131.063 230.873 123.381 237.933 124.044C245.397 124.745 245.8 140.439 246.997 146C251.164 165.353 248.031 188.093 248.562 208C248.696 213.024 251.513 225.266 248.042 229.281C245.088 232.699 236.05 231 232 231C217.883 231 200.385 227.353 187 232C204.363 239.273 232.319 234.954 251 235C246.925 244.467 231.903 246.436 223 249.81C197.582 259.441 172.126 268.548 148 281C153.86 282.953 167.321 274.508 172.999 271.906C193.211 262.644 215.219 255.976 236 247.942C241.8 245.7 258.536 243.183 261.456 237.403C260.007 240.272 250.912 218.472 250 217C252.548 215.595 249.695 204.422 249.861 200.778C250.319 190.765 256.362 147.628 247 143C250.744 135.115 244.874 113.253 242 105L240 105M1975 106C1975 113.745 1975.02 121.312 1974 129C1978.13 122.408 1975.95 113.402 1977 106L1975 106M436 108C437.048 127.078 441 145.405 441 165C443.742 162.802 446.443 154.957 442 154C447.491 142.373 444.826 117.383 436 108M681 108L681 111C681.696 109.446 681.696 109.554 681 108M1571 108C1557.73 128.307 1540.04 145.845 1528 167C1540.8 162.628 1554.54 134.995 1562.48 123.858C1565.84 119.143 1572.46 114.42 1571 108M886 110L887 114C887.751 111.954 887.656 111.404 886 110M108 112L108 114C131.274 114 160.732 120.756 183 116C163.822 106.384 129.185 112 108 112M1920 114C1921.5 123.893 1932.83 147.525 1929.24 156.499C1927.53 160.778 1916.68 158.938 1913 159.32C1895.34 161.158 1877.76 162 1860 162C1869.1 171.584 1898.32 162.688 1910 162.059C1939.23 160.484 1964.06 164.816 1993 166.922C2008.69 168.064 2024.37 165.463 2040 167.866C2050.04 169.41 2094.62 171.62 2091 180C2093.27 179.085 2102.62 175.424 2100.46 171.677C2098.03 167.473 2074.17 169.433 2069 168.72C2035.89 164.154 2002.77 165.256 1970 159.192C1961.16 157.555 1944.46 160.897 1937.2 156.74C1923.71 149.024 1932.93 123.188 1920 114M889 115C888.263 118.88 887.882 122.25 891 125C890.734 121.513 890.503 118.198 889 115M2018 122C2007.92 132.08 1996.93 142.963 1984 149.399C1978.28 152.244 1968.53 149.016 1966 155C1979.67 154.289 2020.57 141.807 2018 122M679 123C679.169 132.126 671.896 156.532 679 163C678.775 156.309 686.647 124.639 679 123M443 126L444 127L443 126M907 126C905.814 127.186 905.472 127.584 905 129C906.849 128.032 907.723 127.86 907 126M903 130C896.841 138.717 888.767 146.117 883 155L884 156C891.969 148.052 900.529 140.651 905 130L903 130M1971 133C1970.2 137.318 1969.41 141.625 1969 146C1971.92 142.142 1972.54 137.738 1973 133L1971 133M572 157C565.993 180.735 567.979 208.417 567.025 232.783C566.614 243.263 562.985 254.571 565 265C567.989 259.9 567.918 253.478 566 248C571.888 248 570.406 229.876 570 225C568.334 205.004 569.943 173.228 574 157L572 157M829 157L828 158L829 157M880 158C877.617 161.237 875.461 164.244 874 168C877.59 165.939 880.443 161.786 882 158L880 158M677 165C676.48 167.361 676.157 169.588 676 172C677.585 169.468 677.878 167.867 677 165M443 166C440.01 169.903 439.641 174.224 439 179C442.677 176.047 444.4 170.535 443 166M1233.33 167.667C1233.28 167.722 1233.22 168.778 1233.67 168.333C1233.72 168.278 1233.78 167.222 1233.33 167.667M869 173L873 171C870.692 170.442 870.244 171.004 869 173M1232 170L1233 171L1232 170M1863 172C1865.22 182.188 1879.18 211.978 1889 216C1884.06 202.037 1874.03 182.02 1863 172M1668 176L1668 178C1683.58 177.703 1697.54 175.427 1711 176C1703.1 166.438 1678.41 175.957 1668 176M1715 176C1720.54 179.47 1731.44 178.97 1736 174C1729.12 173.795 1722.07 175.997 1715 176M1232 174L1232 177L1234 174L1232 174M851 199C858.818 194.142 865.208 183.257 869 175C861.362 179.601 854.392 190.851 851 199M1553 175L1556 176L1553 175M1559 175C1562.94 179.068 1573.68 179.157 1579 178C1573.1 175.267 1565.44 175.385 1559 175M676 176L676 180C676.507 178.308 676.507 177.692 676 176M1615 177C1619.32 182.146 1637.16 177.062 1644 177C1635.02 173.957 1624.28 176.963 1615 177M223 177L223 179C227.402 178.983 231.64 178.578 236 178C230.238 187.587 215.638 190.26 206 194.677C185.022 204.29 166.148 215.185 147 228C155.184 229.094 164.133 218.52 171 214.776C189.053 204.932 208.747 198.802 227 189.474C229.161 188.369 243.013 181.249 241.894 178.581C240.438 175.109 226.256 177 223 177M1582 177C1583.01 179.471 1583.8 180.487 1586 182C1585.64 178.806 1585.18 177.737 1582 177M1662 179C1663.63 178.455 1663.45 178.635 1664 177C1662.82 177.773 1662.77 177.825 1662 179M1610 178L1611 181L1614 179C1612.49 178.317 1611.69 178.174 1610 178M1591 180C1593.33 180.699 1595.57 180.84 1598 181L1598 179C1595.59 179.157 1593.36 179.48 1591 180M1599 179C1602.28 180.112 1605.55 179.995 1609 180C1605.72 178.888 1602.45 179.005 1599 179M2056 203C2066.63 203.53 2085.16 189.156 2090 180C2079.31 184.655 2063.75 194.242 2056 203M439 181C439.609 184.139 439.7 186.297 443 187C442.56 183.794 442.216 181.941 439 181M673 182L673 187C674.024 185.317 674.547 183.919 675 182L673 182M1230 182L1231 183L1230 182M1230 184C1229.01 185.478 1229 185.203 1229 187C1230.77 186.021 1230.96 185.778 1230 184M1382 184L1383 185L1382 184M1585 184C1592.15 206.02 1603.11 227.137 1610.98 249C1616.38 264.002 1619.04 281.797 1626 296C1628.43 287.507 1622.27 273.877 1619.05 266C1611.24 246.883 1607.89 225.685 1599.19 207C1595.93 200 1592.4 187.085 1585 184M1696 184C1690.43 193.384 1685.31 204.607 1682 215C1687.56 209.065 1697.63 192.242 1696 184M571 185.333C571.773 185.333 571.16 185.831 570.667 185.667L571 185.333M439 188C436.596 206.878 440.418 226.201 438 245C447.371 235.54 439.698 201.09 441 188L439 188M1382 188L1383 189L1382 188M673 189L672 192C673.766 191.021 673.955 190.778 673 189M1384.5 193.5C1383.87 194.127 1384.87 195.127 1385.5 194.5C1386.13 193.873 1385.13 192.873 1384.5 193.5M672 194L673 195L672 194M833 196L832 197L833 196M1228 196L1229 197L1228 196M1384.33 196.667C1384.28 196.722 1384.22 197.778 1384.67 197.333C1384.72 197.278 1384.78 196.222 1384.33 196.667M1227 200L1228 201L1227 200M844.5 203.5C843.872 204.128 844.873 205.127 845.5 204.5C846.127 203.873 845.128 202.873 844.5 203.5M1386 204L1387 205L1386 204M668 206L667 210C669.051 208.917 669.434 208.272 670 206L668 206M1386.33 207.667C1386.28 207.722 1386.22 208.778 1386.67 208.333C1386.72 208.278 1386.78 207.222 1386.33 207.667M1225 209C1222.12 216.333 1217.75 223.333 1216 231C1221.83 226.291 1226.02 216.311 1227 209L1225 209M1386.33 210.667C1386.28 210.722 1386.22 211.778 1386.67 211.333C1386.72 211.278 1386.78 210.222 1386.33 210.667M1904 214C1911.14 219.996 1928.01 217 1937 217C1967.11 217 1998.03 218.87 2028 216.217C2032.43 215.825 2063.66 219.968 2064.68 215.727C2065.86 210.768 2031.76 211.972 2028 212.022C1986.7 212.57 1945.28 213.214 1904 214M1679 216L1676 222L1677 223C1678.3 220.52 1679.24 218.783 1679 216M665 217L663 229L665 229C665.164 224.846 666.045 221.032 667 217L665 217M1393 228L1394 229L1393 228M1672 229C1666 236.945 1658.82 245.251 1656 255C1662 250.126 1671.79 236.993 1672 229M183 231L186 233L183 231M141 232C136.844 234.404 131.933 236.124 129 240C133.734 238.785 140.29 237.741 141 232M180 232L181 233L180 232M660 234L660 239C661.204 237.222 661.601 236.122 662 234L660 234M151 236C154.479 237.173 157.469 236.89 161 236C157.683 235.141 154.402 235.801 151 236M1214 239L1213 243C1214.66 241.596 1214.75 241.047 1214 239M1397.5 239.5C1396.87 240.127 1397.87 241.127 1398.5 240.5C1399.13 239.873 1398.13 238.873 1397.5 239.5M660 244L661 245L660 244M1212 246C1211.01 247.479 1211 247.203 1211 249C1212.77 248.021 1212.96 247.778 1212 246M438 247C438.459 252.736 435.768 268.177 442 270C440.427 262.669 440.069 254.5 440 247L438 247M1400.33 247.667C1400.28 247.722 1400.22 248.778 1400.67 248.333C1400.72 248.278 1400.78 247.222 1400.33 247.667M657.333 249.667C657.278 249.722 657.222 250.778 657.667 250.333C657.723 250.277 657.778 249.222 657.333 249.667M1401 254C1401.1 258.392 1404.24 265.609 1402.28 269.579C1399.56 275.112 1369.73 268.338 1362.14 272.373C1356.3 275.478 1347.85 292.933 1341.81 292.251C1336.39 291.64 1334.11 274.063 1328.82 270.387C1319.98 264.254 1288.52 265.591 1278 267.735C1262 270.995 1262.12 290.714 1250 298C1249.49 290.729 1245.91 271.16 1237.9 268.763C1234.3 267.688 1205.64 268.322 1205.64 272.974C1205.64 275.921 1216.12 274.005 1217.86 273.886C1223.96 273.469 1233.56 270.656 1238.01 276.284C1241.81 281.107 1244.55 302.745 1252.16 301.726C1264.31 300.098 1263.3 274.239 1278.01 271.964C1287.46 270.502 1318.02 267.989 1325.6 273.822C1331.31 278.217 1334.03 296.52 1341.23 297.497C1349.64 298.638 1356.68 278.924 1364 275.26C1379.48 267.514 1423.76 287.906 1401 254M343.333 258.667C343.277 258.723 343.223 259.778 343.667 259.333C343.722 259.278 343.778 258.222 343.333 258.667M658.333 258.667C658.278 258.722 658.222 259.778 658.667 259.333C658.723 259.277 658.777 258.223 658.333 258.667M1209 259C1208.07 261.357 1207.44 263.504 1207 266C1208.74 263.628 1209.66 261.919 1209 259M1647 267C1650.17 265.195 1652.02 263.053 1654 260C1649.99 260.46 1648.67 263.569 1647 267M565 266C547.7 277.481 509.374 274 489 274C479.977 274 464.677 271.328 459 280C482.343 273.694 508.851 279.173 532.922 275.51C543.415 273.914 557.345 271.283 566 278C572.081 264.799 616.877 272.527 630 273.019C636.197 273.25 645.162 276.644 649 270C627.068 269.583 584.299 275.621 565 266M1645 268C1645.29 282.512 1624.4 294.711 1627 311C1633.2 306.24 1648.08 275.572 1645 268M439 271C439.506 273.551 439.952 274.408 442 276C441.186 273.913 440.468 272.686 439 271M439 277L440 283C440.958 281.01 441.503 279.157 442 277L439 277M564 279C563.561 281.973 563.675 283.073 566 285L566 279L564 279M440 285L441 291C442.427 288.358 441.97 287.213 440 285M166 325L166 327L170 327L170 325L166 325M919 427L919 429C929.268 431.459 925.359 457.362 924.922 466C923.453 495.025 921.927 523.465 917.904 552.32C916.789 560.316 912.25 578.453 918 585C921.235 552.177 928.705 517.885 927.967 485C927.599 468.618 922.5 440.888 932 427C927.785 426.32 923.286 426.994 919 427M907 430L913 430C910.697 429.245 909.303 429.245 907 430M962 429C960.364 435.238 959.65 441.662 961 448L963 448C963.963 441.884 966.28 434.031 962 429M896 433L897 434L896 433M879 445L880 446L879 445M962.333 450.667C962.278 450.722 962.222 451.778 962.667 451.333C962.723 451.277 962.778 450.222 962.333 450.667M873 454C872.582 458.512 872.079 462.516 873 467C875.336 462.943 874.998 458.575 875 454L873 454M308 459C309.75 459.642 311.127 459.859 313 460C311.25 459.358 309.873 459.141 308 459M966 459L968 466C969.401 462.854 968.625 461.136 966 459M320 505C319.841 502.683 320.138 501.972 318 502C323.694 490.154 319.967 472.901 320 460C314.155 462.182 314.463 503.814 320 505M518 499C526.929 491.646 536.258 475.741 549 474.658C555.587 474.098 560.3 480.659 567 480C583.746 523.402 624.667 470.41 641 461C624.758 457.285 612.974 487.986 598 492.163C575.418 498.463 562.727 462.5 538.217 475.037C533.883 477.254 529.791 481.337 526.303 484.698C522.287 488.568 519.104 493.538 518 499M642 460L643 461L642 460M243 477C256.15 475.963 293.258 471.205 302 463C289.173 461.982 251.284 466.678 243 477M661 470C662.175 469.227 662.227 469.175 663 468C661.365 468.545 661.545 468.364 661 470M969 470L970 471L969 470M666 471L667 472L666 471M312 473C307.118 479.643 302.128 486.873 298 494C304.728 490.288 313.667 481.386 312 473M877 473C878.228 475.009 878.991 475.772 881 477C879.801 474.981 879.007 474.242 877 473M971 476L972 480C972.683 478.494 972.826 477.685 973 476L971 476M881 480C888.069 497.734 904.386 509.638 896 530C910.576 519.585 894.296 486.378 881 480M122 639C133.357 634.055 141.511 613.93 149.196 604.217C168.028 580.416 184.322 554.697 202.173 530.136C214.204 513.583 226.771 502.958 228 483C220.88 487.203 213.456 510.896 207.119 518.999C187.816 543.682 171.529 570.487 152.048 595C142.966 606.429 124.697 624.56 122 639M672 483L672 487C672.507 485.308 672.507 484.692 672 483M674 484L674 487C674.696 485.447 674.696 485.554 674 484M673.333 490.667C673.278 490.722 673.222 491.778 673.667 491.333C673.723 491.277 673.778 490.222 673.333 490.667M974 491L976 497C976.762 494.123 976.294 492.869 974 491M297 495C288.087 509.689 272.671 522.587 267 539C274.06 533.78 298.57 503.634 297 495M671 495L670 500C671.994 498.464 672.41 497.464 673 495L671 495M976 499C983.346 540.381 997.263 583.124 947 602C963.602 606.541 972.954 581.991 985 579C989.66 560.436 991.569 513.681 976 499M514 502C513.059 505.023 512.302 507.845 512 511C514.424 508.24 515.123 505.534 516 502L514 502M229 503L228 510C230.321 507.769 230.126 505.934 229 503M317 507L318 508L317 507M317.5 509.5C316.872 510.128 317.873 511.127 318.5 510.5C319.127 509.873 318.128 508.872 317.5 509.5M230 511C229.014 512.479 229 512.203 229 514C230.766 513.021 230.955 512.778 230 511M506 511C506.792 515.976 508.826 519.175 513 522C511.961 517.408 509.112 514.423 506 511M318 513C317.034 515.828 316.838 518.017 317 521C318.049 518.271 318.456 515.893 318 513M514 514L515 515L514 514M228 520C228.773 521.176 228.824 521.227 230 522C229.455 520.365 229.635 520.545 228 520M229.333 526.667C229.278 526.722 229.222 527.778 229.667 527.333C229.722 527.278 229.778 526.222 229.333 526.667M637 526L638 527L637 526M629 531C631.815 536.752 632 541.674 632 548C636.643 542.201 635.325 535.946 636 529L629 531M231 538C227.772 541.744 227.626 558.849 233 560C229.24 570.557 236.455 585.388 230.239 594.994C224.133 604.428 211.194 608.489 202 614.136C174.08 631.287 140.036 639.68 113 657C141.631 654.776 174.262 634.284 199 620.327C210.001 614.121 222.844 600.889 236 604C239.051 592.256 245.99 603.079 248.829 609.018C253.509 618.81 266.392 646.208 274 653C277.818 634.827 260.17 620.9 252.105 606.993C250.014 603.386 246.854 592.099 242.164 591.322C239.912 590.949 236.588 595.689 235 597C239.415 577.022 232 553.575 232 533C228.708 533.897 228.012 536.014 231 538M242 579C250.445 568.166 260.728 553.648 266 541C255.229 547.805 244.115 566.511 242 579M612 543L615 541C612.908 541.406 612.98 541.217 612 543M879 541L880 542L879 541M608.667 542.333C608.222 542.778 609.278 542.722 609.333 542.667C609.778 542.223 608.722 542.278 608.667 542.333M315 543C314.084 545.222 313.844 546.602 314 549C315.288 546.762 315.612 545.512 315 543M559 546L559 549C559.696 547.446 559.696 547.554 559 546M634 548L632 551C633.994 550.153 634.699 549.993 634 548M313.333 551.667C313.277 551.723 313.223 552.777 313.667 552.333C313.722 552.278 313.778 551.222 313.333 551.667M633 554L632 559L634 559C633.859 557.127 633.642 555.75 633 554M559 556L560 557L559 556M557 559L558 560L557 559M559 564L560 565L559 564M631 565C630.99 569.995 630.25 574.197 629 579C633.15 575.854 633.033 569.513 631 565M556 566C556.773 567.175 556.825 567.227 558 568C557.455 566.365 557.635 566.545 556 566M558 569C556.912 572.788 556.38 576.093 557 580C558.92 576.237 560.171 572.835 558 569M310 571L309 581C311.143 577.684 311.634 574.64 310 571M844 574C842.516 581.814 851.105 587.192 857.075 590.818C870.988 599.27 901.512 598.41 911.421 609.637C914.973 613.662 913.113 623.105 912.398 628C910.308 642.305 911.377 656.595 911 671C917.107 665.546 915 654.43 915 647C915 626.376 917.918 606.417 918 586C913.249 590.215 917.571 599.688 911.716 602.563C907.625 604.573 900.248 601.065 896 600.319C880.482 597.597 851.932 590.539 846 574L844 574M240 580C239.489 581.952 239.267 582.457 238 584L239 585C240.731 583.284 240.782 582.303 240 580M629 580C628.188 594.665 624.882 609.259 624 624C629.238 621.925 633.306 583.366 629 580M987 605C987.584 602.099 991.303 582.643 986.864 582.643C980.448 582.643 985.235 602.205 987 605M559 582L560 583L559 582M557 585L558 586L557 585M305.667 586.333C305.223 586.777 306.278 586.722 306.333 586.667C306.778 586.222 305.722 586.278 305.667 586.333M557 590L557 594L559 594L559 590L557 590M305 593L304 598C305.235 596.037 305.5 595.257 305 593M303 600C301.202 604.256 300.674 608.398 301 613C302.684 608.987 303.674 604.323 303 600M939 602C939.973 603.27 940.73 604.027 942 605L943 602L939 602M985 606C982.053 626.777 979.581 647.136 977.275 668C976.359 676.283 978.34 684.755 972 691C976.828 696.278 980.706 695.19 987 693C965.455 675.6 993.563 629.638 985 606M634 630C614.499 623.1 600.552 627.137 580.981 629.109C576.567 629.554 563.231 630.258 560.255 626.492C557.535 623.052 559.894 611.335 560 607C555.682 607.824 554 629.587 557.333 631.75C570.471 640.275 596.84 627.434 612 629.083C620.914 630.053 626.121 635.252 634 630M559 616L558 617L559 616M138 618L137 619L138 618M298 618C296.944 621.17 296.416 623.696 297 627C298.491 624.09 299.367 621.205 300 618L298 618M296 630C297.635 629.455 297.455 629.635 298 628C296.825 628.773 296.773 628.824 296 630M983 630L982 631L983 630M293 636L293 639L295 639L295 636L293 636M116 644C114.957 646.105 114.403 647.692 114 650C115.598 647.894 116.239 646.638 116 644M111 651L111 655C111.507 653.308 111.507 652.692 111 651M911 674C909.995 679.675 910 685.254 910 691C916.012 688.886 914.484 679.019 913 674L911 674M969 691L970 692L969 691M941 693C946.419 697.536 958.739 695.451 965 693C957.557 690.478 948.736 692.989 941 693M934 693C935.948 694.03 936.783 694.136 939 694C937.25 693.358 935.872 693.141 934 693M914 696C918.413 697.01 922.527 696.091 927 696C922.675 693.768 918.258 693.551 914 696M928 695L929 696L928 695M262 1286C260.378 1289.28 259.062 1292.5 258 1296C261.402 1293.47 262.492 1289.87 264 1286L262 1286M1251 1542C1242.99 1559.04 1254.51 1576.33 1255.86 1594C1259.06 1635.97 1265.57 1679.96 1260 1722C1252.43 1711.39 1249.4 1695.19 1244.47 1683C1243.19 1679.83 1240.86 1670.84 1236.61 1670.57C1226.78 1669.94 1212.8 1699.7 1206 1706C1212.08 1670.72 1220.12 1622.29 1236.59 1591C1238.96 1586.49 1253.02 1559.71 1245.23 1555.76C1239.39 1552.8 1229.98 1587.94 1228.77 1592C1219.95 1621.79 1213.96 1653.54 1207.18 1685C1205.25 1693.97 1196.97 1710.36 1200.16 1719.43C1201.94 1724.49 1212.47 1706.79 1213.8 1705C1217.01 1700.67 1220.53 1696.67 1223.32 1692.04C1241.46 1662.03 1243.71 1700.37 1251.77 1717.56C1253.17 1720.54 1256.88 1729.29 1260.85 1729.24C1268.95 1729.14 1267 1691.64 1267 1686C1267 1650.29 1262.25 1615.41 1257.94 1580C1256.88 1571.26 1257.37 1547.64 1251 1542M1616.19 1606.41C1613.53 1608.74 1615.09 1620.32 1614.44 1624C1611.29 1641.75 1613.67 1652.14 1601.36 1666.39C1598.11 1670.15 1586.16 1677.47 1586.78 1682.86C1587.22 1686.63 1616.59 1706.91 1613.11 1709.89C1625.2 1699.53 1609.42 1666.65 1620.97 1652C1623.03 1649.39 1638.19 1638.41 1637.97 1637.38C1637.11 1633.31 1614.53 1607.86 1616.19 1606.41M160 1609C154.182 1631.99 159.846 1663 159.04 1687C158.808 1693.93 156.444 1707.63 164 1711C164 1700.69 160.338 1681.23 166.762 1672.54C172.969 1664.14 180.741 1654.66 189.019 1648.25C190.793 1646.88 199.348 1643.07 199.357 1640.8C199.375 1636.31 173.314 1610.58 172.582 1611.97C169.437 1617.92 189.492 1631.69 190.002 1638.65C190.395 1644.02 169.453 1664.52 165 1669C165 1656.88 169.766 1616.2 160 1609M514 1694C524.602 1691.7 541.091 1666.84 544 1657C556.555 1665.37 565.248 1687.64 573.374 1699.42C576.408 1703.82 607.956 1700.83 606.677 1695.29C605.86 1691.76 583.071 1699.09 579.13 1695.17C572.042 1688.12 550.29 1664.35 551.483 1653.35C552.089 1647.77 563.14 1638.71 566.579 1633.92C570.139 1628.96 575.082 1619.84 581.079 1617.66C588.786 1614.85 605.284 1619 614 1619C611.099 1612.69 603.863 1614.32 598 1613.78C592.876 1613.31 581.659 1609.08 577.542 1612.57C571.022 1618.08 556.237 1648.12 547.029 1646.14C536.445 1643.86 530.136 1622.83 524.398 1615.24C518.585 1607.56 504.275 1609.52 496 1611C494.383 1611.29 484.211 1611.96 485.761 1615.31C487.662 1619.41 505.034 1613.43 509 1613.97C518.004 1615.19 543.155 1645.07 541.756 1654C539.502 1668.38 517.28 1679.29 514 1694M1994 1613.46C1966.63 1617.16 1951.03 1643.24 1947.27 1669C1944.35 1688.99 1962.13 1705.93 1982 1703.76C2012.1 1700.47 2016.56 1676.88 2022.25 1652C2027.03 1631.08 2018.65 1610.13 1994 1613.46M2007 1617C2025.69 1630.98 2021.79 1683.19 1998.99 1694.2C1980.04 1703.36 1949.94 1698.2 1951.18 1672C1951.92 1656.39 1961.74 1634.53 1974.44 1625.37C1982.95 1619.22 2000.86 1612.91 2002 1628C2005.47 1624.66 2005.5 1621.31 2007 1617M1620 1622C1624.01 1626.46 1627.28 1632.65 1630 1638C1624.03 1640.16 1621.24 1645.75 1616 1649C1617.17 1640.45 1617.25 1630.09 1620 1622M1980 1672C1982.14 1668.85 1990.27 1638.64 1985.84 1638.64C1979.42 1638.64 1976.97 1667.71 1980 1672M877 1667C877.65 1670.55 877.702 1673.45 877 1677C883.357 1675.79 887.026 1679.1 892 1682.69C895.882 1685.49 910.16 1691.4 910.919 1696.32C912.386 1705.85 881.254 1712.19 884.106 1722.45C885.461 1727.32 894 1724.02 897 1723.31C905.945 1721.19 933.122 1716.09 938 1709C905.991 1694.73 943.358 1677.29 953.519 1660C954.874 1657.69 963.869 1648.61 962.476 1646.79C958.784 1641.95 952.371 1652.77 951.043 1655.01C945.736 1663.96 927.215 1690.94 915.438 1690.37C900.423 1689.65 891.445 1668.87 877 1667M1611 1663C1611.35 1667.31 1612.96 1691.16 1609.2 1693.03C1607.06 1694.09 1593.17 1682.96 1593.54 1680.94C1594.41 1676.19 1606.83 1665.97 1611 1663M511 1699C506.305 1682.19 462.618 1706.41 499 1700.69C503.254 1700.02 506.613 1698.59 511 1699M924 1707C915.97 1709.76 903.516 1722.12 896 1715C904.574 1710.12 916.723 1694.09 924 1707M930 1992C928.677 1987.48 926.528 1983.19 924.388 1979C922.795 1975.88 920.714 1973.05 919.005 1970C902.544 1940.57 908.941 1994.4 893.258 1990.92C886.503 1989.42 882.461 1964.67 875 1960C874.879 1972.45 870.134 1984.52 870 1997C861.604 1991.78 861.799 1965.42 854.091 1964.32C847.706 1963.42 866.584 2024.17 874.377 1995C875.179 1992 876.299 1989.03 876.957 1986C877.89 1981.7 876.51 1977.36 877 1973C883.226 1979.44 885.114 1995.56 892.555 1999.59C897.088 2002.05 910.431 1974.57 912 1970C916.217 1974.54 925.265 1998.36 932.079 1995.59C940.613 1992.13 941.092 1980.21 949 1977C944.237 1999.2 946.068 2024.37 944.922 2047C944.589 2053.58 940.556 2065.16 946 2070C955.826 2046.03 953.034 2009.76 952.502 1984C952.431 1980.54 954.032 1958.4 953.611 1958.32C948.272 1957.37 934.503 1987.57 930 1992M1584 2034C1573.64 2035.53 1590.11 2045.08 1592.86 2048.01C1605.26 2061.22 1620.02 2074.25 1629 2090C1612.7 2090.01 1595.11 2090.18 1578.99 2092.28C1576.26 2092.64 1564.02 2090.6 1564.54 2094.89C1565.19 2100.12 1577.77 2097.87 1581 2097.22C1598.39 2093.72 1618.28 2094.22 1636 2093C1632.65 2076.43 1612.82 2064.16 1602.28 2052.01C1600.37 2049.81 1589.86 2040.07 1590.76 2037.55C1592.14 2033.69 1604.4 2031.13 1608 2029.9C1611.78 2028.61 1615.98 2027.55 1620 2027.5C1627.92 2027.41 1634.91 2029.46 1643 2028C1636.49 2012.46 1632.69 1997.35 1628.67 1981C1627.3 1975.42 1625.18 1966.2 1618.9 1964.08C1609.62 1960.96 1605.93 1971.89 1602.96 1978C1596.08 1992.12 1575.27 2018.54 1584 2034M844 1966C846.672 1994.69 842.84 2024.21 842.997 2053C843.03 2059.01 840.199 2078.91 846.479 2082.46C850.005 2084.45 849.96 2076.57 850 2075C844.533 2074.29 847 2055.76 847 2051C847 2029.26 849 2007.67 849 1986C849 1980.6 850.696 1966.52 844 1966M1634 2024C1620.57 2022.47 1613.78 2021.94 1600.96 2027.57C1597.75 2028.98 1590.34 2033.18 1586.95 2030.65C1583.15 2027.82 1588.08 2018.37 1589.28 2015C1592.56 2005.79 1606.83 1970.5 1617.88 1969.96C1622.43 1969.74 1623.7 1978.99 1624.51 1982C1628.24 1995.92 1630.31 2010.15 1634 2024M541 2001L541 1997C536.829 1998.46 537.195 2003.52 532.941 2004.86C521.436 2008.46 505.039 2006 493 2006C488.115 2006 473.402 2000.12 470.43 2001.88C464.731 2005.26 468.141 2015.88 467.37 2021C464.922 2037.26 464 2053.59 464 2070C464 2075.27 467.321 2083.84 466.226 2088.42C463.542 2099.67 451.488 2109.38 447 2120C462.537 2118.67 460.863 2097.35 472.516 2091.44C476.885 2089.22 483.432 2094.19 488 2094.48C499.651 2095.21 529.944 2095.1 539.499 2088.92C543.957 2086.03 542.857 2072.87 543.011 2068C543.59 2049.74 543.94 2031.19 544.525 2013C544.814 2003.99 557.151 1992.67 561.831 1985C562.606 1983.73 567.707 1976.95 565.036 1975.76C560.133 1973.59 546.385 1998.2 541 2001M1172 1988C1172 2009.26 1170.52 2031.84 1168.32 2053C1168.03 2055.82 1165.64 2073.19 1169.23 2072.68C1180.78 2071.04 1184.39 2045.51 1197 2042.76C1203.41 2041.36 1217.2 2060.81 1219.78 2066.14C1220.75 2068.16 1221.35 2077 1224.21 2077C1228.23 2077 1226.85 2059.1 1227.12 2056C1228.99 2033.99 1235.09 2006.84 1232 1985C1227.15 1988.04 1225.35 1994.57 1219.95 1996.62C1206.94 2001.54 1183.48 1993.96 1172 1988M145 1987C145.149 2003.59 142.001 2020.33 142 2037C142 2040.73 140.046 2051.06 142.958 2053.74C150.341 2060.54 181.197 2041.47 183.708 2053.17C187.619 2071.39 182.954 2099.75 182.999 2119C183.018 2126.82 180.548 2139.01 189 2143C189 2118.69 184.055 2093.28 187.602 2069C188.17 2065.11 193.346 2045.5 190.816 2043.47C182.897 2037.11 155.584 2049.96 146 2050C148.049 2038.42 154.58 1994.03 145 1987M1179 1998C1185.49 1998.61 1210.82 1998.52 1214.68 2003.22C1217.71 2006.92 1201.65 2032 1197.08 2032C1190.34 2032 1180.52 2003.88 1179 1998M1226 2001C1227.41 2019.53 1226.04 2042.95 1223 2061C1196.07 2045.23 1204.01 2018.22 1226 2001M1175 2002C1191.78 2023.39 1197.91 2046.04 1171 2062C1172.72 2043.61 1169.12 2019.36 1175 2002M1728.67 2006.33C1728.22 2006.78 1729.28 2006.72 1729.33 2006.67C1729.78 2006.22 1728.72 2006.28 1728.67 2006.33M480 2078C466.866 2086.56 466.736 2050.22 473 2044C467.076 2034.05 475.767 2020.09 475 2009C491.811 2013.62 522.472 2003.88 536.517 2013.27C546.186 2019.73 540.7 2050.65 538.897 2060C538 2064.65 540.74 2081.82 537.171 2084.19C531.585 2087.9 523.055 2085.64 517 2085.66C505.826 2085.69 477.422 2098.29 480 2078M1970 2110C1976.82 2135.59 1998.61 2109.39 2009.28 2109.74C2012.19 2109.83 2027.51 2128.39 2028.89 2120.42C2029.96 2114.26 2017.52 2108.56 2015.48 2103C2012.73 2095.47 2021.04 2088.67 2016.4 2080.04C2010.77 2069.58 1996.39 2068.58 1989.96 2057.88C1974.62 2032.33 2008.87 2021.22 2028 2023C2015.07 2003.89 1983 2030.8 1982.16 2047C1981 2069.3 2007.73 2068.16 2013.67 2084.05C2022.87 2108.68 1985 2117.28 1970 2110z"/>
</svg>
