<?xml version="1.0" standalone="yes"?>
<svg xmlns="http://www.w3.org/2000/svg" width="2200" height="2200">
<path style="fill:#0f0f0f; stroke:none;" d="M162 154C162 187.908 159 222.573 159 257C159 267.112 155.146 285.872 165 292C164.987 255.711 176.243 241.46 195.823 211.68C197.694 208.834 210.352 188.397 207.168 187.025C201.376 184.531 192.643 202.721 189 206C189.809 191.512 189.978 176.523 190 162C188.192 161.854 186.739 161.535 185 161C177.708 189.817 192.607 214.897 167 238C166.489 217.067 167.914 195.892 168.921 175C169.262 167.932 170.056 156.272 162 154M535.411 164.305C532.063 165.275 533.201 175.227 533.075 178C532.425 192.398 531.488 206.63 530.217 221C530.019 223.244 529.248 235.202 534.404 233.239C537.096 232.214 534.946 219.789 535.001 217C535.269 203.254 536.849 188.602 539.384 175.136C539.898 172.406 541.847 162.441 535.411 164.305M465 164C465 182.424 463.939 199.799 462.217 219C462.064 220.711 460.82 237.01 464.474 235.239C468.405 233.334 466.968 221.495 467.008 218C467.13 207.097 476.652 168.757 465 164M512 223C503.771 212.029 510.002 195.486 511.437 183C511.797 179.87 513.846 169.625 510.308 167.728C505.896 165.361 506.496 178.192 506.235 180C505.171 187.366 499.278 230.501 512 223M491 224C477.101 213.113 499.07 180.517 488.887 169.106C486.34 166.25 485.234 179.696 485.129 181C484.082 193.91 481.774 205.919 482.01 218.992C482.127 225.461 486.12 231.378 491 224M1588.72 175.536C1584.52 177.468 1578.8 191.882 1576.5 196.217C1573.29 202.256 1564.19 211.141 1563.99 217.882C1563.87 222.063 1568.58 227.945 1569.91 232.136C1571.93 238.479 1572.81 251.345 1577.12 256.219C1583.75 263.708 1607.15 260.817 1614.93 257.029C1621.92 253.63 1629.7 216.894 1627.16 210.04C1624.31 202.368 1613.89 195.146 1608 189.783C1604.56 186.645 1594.21 173.018 1588.72 175.536M1933 257C1924.19 253.633 1928.35 242.465 1929 235C1935.47 236.99 1952.84 233.478 1957.04 237.267C1960.36 240.253 1955.17 263.357 1961.7 263.357C1964.31 263.357 1961.48 241.155 1962.06 238.145C1963.5 230.711 1992.96 226.415 1998.46 230.278C2006.34 235.814 1993.01 254.792 2003 262C2003 239.966 2000.67 204.607 2014 187C1996.7 182.394 1979.6 185.715 1962 183.672C1954.08 182.753 1946.68 178.443 1939 182C1944.6 186.521 1955.62 185.093 1960.1 190.678C1965.61 197.55 1957.64 219.673 1960 229C1954.16 229.828 1934.51 235.043 1930.4 229.178C1924.67 221.022 1932.59 199.472 1932.14 190C1932 187.239 1934.05 178.064 1929.91 177.323C1925.61 176.552 1926.92 193.02 1926.86 195.68C1926.49 212.788 1924 229.715 1924 247C1924 252.188 1925.98 267.176 1933 257M1590 181C1596.65 185.906 1604.97 191.695 1609 199C1575.5 186.091 1563.75 246.463 1598 253C1584.01 257.741 1579.84 248.371 1576.02 237C1568.43 214.423 1580.33 200.453 1590 181M931 198C915.624 206.523 912.499 231.724 898 243C897.951 231.153 894.752 209.4 883.838 202.365C862.128 188.374 838.879 220.087 835 238C827.165 228.209 826.441 211.593 823.487 200C822.534 196.261 824.348 188.959 819.783 187.087C813.832 184.648 816.576 198.731 817.273 201C821.557 214.961 823.537 241.606 837.105 250.048C848.487 257.13 865.431 251.84 878 253.796C883.307 254.621 889.571 259.546 894.864 256.73C905.917 250.848 916.581 230.194 921.394 219.078C924.525 211.847 932.237 206.302 931 198M1945 188C1945.47 190.9 1946.1 191.529 1949 192C1947.67 190.248 1946.75 189.33 1945 188M2001 226C1992.91 225.053 1968.63 232.649 1962.92 227.598C1959.78 224.82 1963.88 193.284 1967.82 190.822C1972.12 188.133 1980.12 190.95 1985 190.401C1988.88 189.965 1999.54 186.645 2002.18 190.822C2006.79 198.109 2001.3 217.548 2001 226M1279 270C1283.17 258.242 1293.45 232.741 1304 226C1303.35 244.468 1299 262.555 1299 281C1305.41 278.462 1304.11 266.929 1304.83 261C1307.34 240.347 1310.37 218.62 1311 198C1299.19 203.97 1290.53 232.019 1285.62 244C1284.3 247.221 1281.23 260.254 1277.4 260.919C1273.62 261.575 1265.06 250.08 1262.84 247.28C1250.03 231.166 1236.14 222.905 1219 210.786C1214.68 207.731 1203.31 196.005 1197.19 201.268C1185.09 211.692 1195 254.541 1195 269C1195 273.552 1192.81 286.619 1197.04 289.623C1199.99 291.713 1209.61 289.259 1213 288.552C1225.78 285.887 1237.96 286 1251 286C1260.99 286 1290.81 290.315 1296.59 279.595C1297.05 278.755 1267.39 279.792 1261 280.08C1248.55 280.642 1234.09 278.427 1222 280.524C1215.97 281.569 1206.24 286.046 1200.54 281.756C1196.96 279.062 1198.94 270.876 1198.97 266.962C1199.09 253.182 1198.72 238.732 1197.6 225C1197.29 221.218 1195.59 211.071 1199.37 208.748C1207.95 203.475 1238.93 228.812 1246.32 234.198C1259.49 243.798 1263.71 260.916 1279 270M1597 200.854C1617.16 198.11 1619.2 244.432 1600 247.532C1575.47 251.493 1575.84 203.736 1597 200.854M1612 201C1625.27 208.612 1623.56 253.105 1607 251C1618.99 229.742 1612.07 222.843 1612 201M873 204.466C889.109 204.114 889.077 224.691 892.229 235.864C893.456 240.211 899.231 250.498 890.892 251.456C884.065 252.24 845.537 249.716 841.368 244.499C830.113 230.416 860.587 204.736 873 204.466M570 259C539.237 259 508.334 264.465 478 259.516C470.977 258.37 452.846 262.009 451 253C448.602 253.318 437.964 253.276 439.187 257.585C440.931 263.731 459.024 263.793 464 263.96C489.287 264.809 512.791 264.53 538 264.019C546.158 263.853 566.22 267.904 570 259M1996 262C1979.9 259.198 1960.83 270.089 1944 269.997C1941.71 269.985 1928 267.537 1928 271.097C1928 277.095 1941.81 275.236 1945 275.078C1958.33 274.414 1986.69 272.896 1996 262M299 433C293.526 420.924 288.397 429.249 299 433M1950 537C1955.4 538.061 1979.69 540.926 1980.48 547.149C1981.23 553.024 1962.77 587.619 1957.29 585.456C1934.08 576.289 1956.37 546.071 1944 537C1941.95 545.105 1942.46 553.759 1941 562C1936.79 558.621 1922.95 533.633 1919.38 534.323C1915.15 535.14 1921.87 544.55 1922.87 545.864C1932.91 559.014 1943.48 573.953 1936.86 591.54C1933.74 599.83 1909.86 596.674 1903 598C1911.3 607.392 1931.18 595.724 1942 600C1943.37 598.078 1955.8 591.833 1954.92 595.007C1953.8 599.044 1945.52 598.03 1944 604L1952 602C1947.03 613.547 1939.93 624.79 1937 637C1950.44 632.167 1945.73 608.92 1958.09 603.367C1967.41 599.182 1983.18 635.879 1991 641C1989.53 629.492 1968.29 616.043 1970.28 604.722C1971.43 598.161 1997.1 603.099 2001.53 600.504C2007.12 597.225 2001.88 582.965 2007.46 577.586C2017.01 568.383 2037.36 573.89 2046 564C2032.05 564.186 2018.79 571.377 2005 572C2010.36 557.984 2014.27 545.531 2020 533C2008.88 533.005 1999.05 538.472 1988 538C1990.65 532.748 1997.97 504.105 1996.86 505.106C1988.66 512.481 1992.79 531.749 1982.68 537.733C1973.57 543.125 1957.18 528.432 1950 537M891 573C891 590.23 887.69 607.848 889.145 625C890.245 637.975 899.717 632.906 901 623C898.482 624.69 896.846 626.588 895 629C891.015 617.405 895.527 598.434 896 586C912.515 604.534 912.102 641.445 932 656C929.932 638.589 916.746 616.236 908.349 601C897.475 581.27 897.744 568.77 899.062 547C899.469 540.278 907.559 527.268 902.711 520.833C897.27 513.61 894.887 539.206 894.478 542C889.3 577.439 865.529 601.871 848.711 633C846.989 636.187 831.476 667.357 835.235 667.357C839.855 667.357 846.825 646.876 848.658 643C859.182 620.741 874.543 591.254 891 573M1347 519C1336.29 520.009 1333.15 530.799 1324 534.42C1316.44 537.413 1295.77 540.703 1287.55 539.617C1284.49 539.214 1285.43 534.832 1282.77 534.423C1280.03 534.002 1278.08 541.033 1275.01 541.964C1269.95 543.498 1260.06 540.494 1255 539.243C1249.19 537.806 1225 524.446 1225 527.861C1225.03 546.875 1266.31 541.516 1275.69 547.703C1281.37 551.442 1277.2 563.674 1276.35 569C1273.4 587.627 1273.45 607.202 1272.14 626C1271.94 628.839 1270.02 649.427 1273.78 648.677C1278.15 647.804 1275.88 628.602 1276.14 625C1277.51 605.381 1279.24 585.533 1281.44 566C1282.02 560.833 1279.96 549.674 1284.5 546.182C1289.9 542.032 1316.97 537.054 1322.59 541.042C1325.73 543.267 1335.36 563.004 1339.9 559.612C1342.1 557.971 1329.38 542.608 1329.62 539C1330.23 530.038 1343.78 526.585 1347 519M174 539C153.523 532.668 128.231 529.611 107 529C114.299 537.705 124.075 534.87 134 537C122.438 548.717 109.513 564.801 103 580C100.868 571.57 109.285 534.831 101.705 531.323C97.6223 529.434 97 560.075 97 565C97 579.462 89.3729 610.845 94.5327 622.977C101.349 639.004 143.342 646.178 157.864 641.358C178.039 634.661 172.648 621.767 174.823 604C175.643 597.298 174.828 587.031 182 584C174.509 569.021 182.233 548.859 179.852 532.148C178.576 523.193 172.277 531.492 174 539M138 538C144.182 537.036 168.265 538.081 172.858 542.26C175.462 544.629 175.628 569.669 172.275 570.897C169.266 571.998 165.013 565.647 163.39 563.863C155.251 554.914 146.109 546.934 138 538M1966 584C1970.68 574.177 1981.58 545.171 1992.02 542.551C1995.02 541.798 2004.12 537.735 2006.66 540.308C2009.92 543.607 2005.45 554.331 2004.48 558C1999.46 577.015 1986.7 583.233 1966 584M156 562C148.525 561.192 138.338 565.51 131.432 562.844C121.682 559.08 126.977 546.24 134.243 543.065C140.913 540.152 169.029 569.272 166.469 576.007C163.953 582.626 143.169 616.397 137.017 619.456C133.76 621.075 120.894 605.682 121.518 602.094C122.044 599.067 141.428 600.74 145.492 596.716C154.507 587.789 149.257 572.484 156 562M1648 556C1653.57 557.704 1658.83 553.08 1663.8 557.392C1671.7 564.243 1670.28 576.758 1669.32 586C1666.49 613.136 1647.34 635.51 1617 629C1622.73 623.79 1629.37 619.271 1630.69 610.999C1634.31 588.359 1613.24 556.219 1652 551C1647.56 535.817 1625.1 567.594 1621.8 566.046C1617.64 564.099 1622.23 558.833 1621.44 556.134C1619.85 550.625 1610.84 547.674 1606 546.551C1578.25 540.117 1560.35 600.413 1566.38 619.741C1573.62 642.981 1595.34 632.812 1611 631.634C1632.72 630 1658.34 636.482 1669.93 609C1677.08 592.025 1679.2 536.062 1648 556M1226 574C1234.88 567.284 1237.61 555.551 1248 550C1239.14 540.705 1226.34 566.983 1226 574M1621 574C1613.99 575.483 1610.61 577.621 1607 584L1612 584C1607.65 600.603 1608.64 608.851 1609.62 624.996C1609.9 629.646 1601.3 630.994 1598 631.808C1588.32 634.2 1573.15 628.487 1570.59 617.96C1566.21 600.051 1574.85 574.326 1587.09 561.001C1592.35 555.271 1599.99 546.698 1608.6 551.928C1613.61 554.973 1618.59 568.462 1621 574M553 613C562.865 612.553 581.154 599.826 574.433 588.049C571.43 582.785 560.478 580.095 560.201 573.844C559.67 561.896 572.41 558.527 578 551C567.747 552.474 549.293 564.407 556.262 577.62C559.389 583.548 570.475 584.953 570.208 593.007C569.84 604.105 556.666 604.912 553 613M490 617C501.066 616.62 512.31 601.809 505.95 591.019C502.403 585 493.499 581.644 492.905 574C492.181 564.676 501.394 562.97 506 557C489.109 559.631 483.544 572.516 493.105 586.989C495.482 590.588 502.454 593.681 502.692 598.137C503.191 607.464 493.427 610.119 490 617M520 610C524.815 622.145 538.538 602.108 539.416 595.889C541.234 583.016 511.028 578.582 531.072 563.235C533.577 561.317 536.366 559.734 539 558C528.627 555.379 518.472 566.967 520.285 577C522.025 586.632 547.994 607.361 520 610M118 598C108.511 590.764 103.566 583.436 111.032 573C112.409 571.075 119.337 559.296 122.208 560.761C123.159 561.247 118.92 594.365 118 598M147 565C147 572.32 148.743 587.17 143.748 593.179C140.756 596.777 124.851 597.97 122.998 592.716C120.866 586.668 124.107 572.114 126 566C133.174 568.354 139.846 566.695 147 565M1941 573C1944.76 574.45 1953.79 582.402 1953.42 586.992C1953.17 590.01 1944.36 593.273 1942.24 591.016C1939.11 587.675 1941 577.322 1941 573M173 577C172.998 590.769 170.433 604.316 169.217 618C168.859 622.04 170.523 629.609 167.74 632.895C163.462 637.948 137.14 643.266 133.606 635.298C129.84 626.805 143.079 630.412 146 631C135.257 618.926 157.976 583.627 173 577M2001 578C2000.85 581.938 2001.1 593.031 1997.48 595.219C1992.61 598.16 1959.53 602.87 1962.97 592.222C1964.95 586.077 1980.66 585.117 1986 583.305C1991.07 581.586 1995.74 579.083 2001 578M1613 625C1610.09 607.674 1613 596.489 1618 580C1632.21 589.295 1627.85 619.06 1613 625M99 623C101.418 619.251 105.603 617.662 108 614C96.4939 613.598 101 595.718 101 587C109.675 590.486 142.54 628.097 127.502 634.081C120.456 636.885 105.018 626.365 99 623M1960 597L1959 598L1960 597M468 630C470.623 638.704 488.634 634 496 634C518.687 634 541.367 632.054 564 632.001C573.173 631.979 585.431 634.46 588 623C550.657 633.169 506.655 630 468 630M241 812L241 814L245 814L245 812L241 812M205 865C190.07 881.258 189.392 892.827 167.133 897.698C161.549 898.919 153.377 868.234 149.033 873.647C145.903 877.549 158.736 894.835 160.852 899C163.622 904.454 157.846 921.805 154.066 926.682C148.452 933.925 131.994 923.009 129 932C140.563 933.487 151.352 935.134 163 933C161.856 937.14 160.127 940.054 157 943L157 937C150.259 939.673 155.862 945.719 154.132 950.941C150.692 961.326 139.067 969.595 137 980C147.759 974.269 149.005 961.408 157.895 955.076C161.436 952.555 171.708 956.609 177 954.414C180.821 952.829 186.379 945.635 190.628 946.761C200.16 949.287 202.583 967.147 215 966C205.881 952.5 184.304 943.654 202.543 926.597C206.712 922.697 212.603 924.018 216 919L201 920C202.55 910.159 198.588 900.849 189 897C193.627 889.277 206.771 874.008 205 865M1609 913C1624.34 910.932 1616.85 891.527 1631.03 886.643C1634.69 885.383 1644.14 912.821 1643.54 916.716C1642.76 921.847 1598.56 915.624 1603.85 919.733C1610.21 924.669 1644.23 927.802 1647.83 918.492C1649.81 913.385 1643.07 899.235 1641.17 894.007C1639.89 890.512 1636.8 878.254 1633.64 876.668C1629.14 874.411 1609.77 907.498 1609 913M182 900C180.588 905.276 177.752 909.356 175 914C165.574 906.441 172.981 900.941 182 900M189.177 902.316C199.469 901.205 200.441 921.628 187 922.843C170.532 924.333 180.425 903.26 189.177 902.316M555 951C543.381 939.98 535.784 927.083 526.981 914.001C526.214 912.861 518.051 902.514 517.492 908.354C516.056 923.365 547.497 937.438 546.558 950.278C546.287 953.996 537.44 953.054 535 953.342C529.693 953.968 492.043 960.21 493.407 962.084C496.774 966.705 504.685 963.333 509.008 962.547C519.049 960.72 539.824 954.224 549.499 958.055C554.701 960.115 554.296 984.587 559.268 990.595C579.814 1015.42 598.577 976.007 598.867 959C599.372 929.336 565.49 923.525 555 951M158 928C160.123 921.156 163.782 915.309 164 908C177.204 913.566 169.918 927.747 158 928M1945 910C1945.64 924.149 1960.78 940.574 1956.9 955C1953.04 969.351 1934.94 976.584 1930 990C1944.37 986.656 1948.7 968.268 1960 961C1963.92 978.921 1976.54 963.771 1984 957C1986.6 968.781 1984.44 981.206 1986.66 992.999C1988.09 1000.59 1993.06 1003.89 1996 995C1987.11 992.813 1990.41 981.03 1990.14 974C1989.85 966.709 1986.24 955.71 1989.35 949C1995.89 934.885 2015.57 924.878 2019 910C2005 914.911 2000.7 935.769 1987.83 940.357C1986.32 940.895 1981.5 925.873 1978 923.969C1971.49 920.423 1963.9 942.985 1963 948C1954.26 939.167 1957.53 915.09 1945 910M1548 945C1554.36 956.295 1567.44 961.891 1575.68 971.3C1578.88 974.956 1576.94 980.22 1582 982C1582 967.099 1584.76 952.762 1586.44 938C1586.76 935.147 1589.2 925.43 1586.3 923.544C1582.5 921.067 1581.76 931.399 1581.57 933C1580.2 944.303 1579.1 956.619 1579 968C1575.17 965.965 1572.23 963.187 1569 960.317C1544.05 938.165 1579.87 936.53 1588 915C1573.61 919.441 1561.27 937.047 1548 945M887.119 920.408C883.372 924.024 884.213 937.083 883.864 942C882.574 960.192 879.217 977.924 877.32 996C877.089 998.207 875.733 1017.33 881.248 1013.47C884.592 1011.13 882.608 996.168 882.963 992C884.522 973.664 887.609 955.392 889.143 937C889.23 935.955 891.495 916.184 887.119 920.408M196 927C192.765 938.457 187.718 939.187 184 928L196 927M1976.44 929.321C1980.04 928.56 1981.68 939.85 1982.22 942.002C1984.18 949.91 1976.12 962.821 1967.79 964.902C1957.94 967.36 1969.42 930.805 1976.44 929.321M175.976 930.46C191.873 928.734 183.438 950.623 170.001 951.838C153.512 953.33 166.909 931.445 175.976 930.46M1655.82 932.34C1649.22 937.128 1650.11 978.227 1665.94 968.171C1669.47 965.927 1688.25 944.633 1687.68 941.268C1686.88 936.558 1659.63 929.579 1655.82 932.34M1659 935C1665.67 939.654 1673.48 940.325 1681 943C1676.43 948.377 1668.67 964.43 1661.15 965.108C1654.75 965.685 1657.69 939.428 1659 935M577.981 937.571C600.542 933.578 598.262 985.722 581.767 990.116C550.679 998.396 548.782 942.74 577.981 937.571M1285 1014C1297.36 1019.47 1313.89 1018.67 1327 1022C1325.65 1014.7 1315.29 983.049 1307.8 980.761C1304.14 979.641 1300.21 987.721 1298.5 990C1293.43 996.714 1282.58 1011.9 1273.97 1013.62C1266.02 1015.2 1239.27 1015.82 1232.07 1012.48C1226.08 1009.71 1217.28 973.194 1204.85 982.025C1199.84 985.588 1196.15 997.7 1192.4 1003C1189.95 1006.45 1182.96 1011.63 1182.32 1015.76C1181.76 1019.42 1203.75 1023.13 1207.22 1023.62C1225.65 1026.19 1249.2 1018.36 1269 1019.76C1274.9 1020.18 1282.23 1019.81 1285 1014M792 985C794.352 992.305 800.71 997.692 806.001 1003C812.04 1009.06 817.979 1019.16 825.361 1023.41C838.464 1030.96 860.392 1023.8 875 1025.32C887.574 1026.63 905.49 1032.76 917.821 1028.1C928.845 1023.93 954.359 995.394 960 985C938.56 989.017 928.984 1019.6 905 1023.02C896.269 1024.26 886.78 1020 878 1019.22C864.146 1017.99 841.482 1024.04 829.04 1017.62C815.923 1010.84 806.648 987.028 792 985M1226 1015C1221 1016.07 1192.14 1021 1192 1011.54C1191.89 1004.46 1204.05 993.137 1207 986C1217.94 992.148 1221.2 1004.08 1226 1015M1306.14 988.641C1311.53 988.685 1321.36 1012.37 1310.97 1012.81C1306.62 1013 1293.56 1013.41 1291.55 1008.74C1290.04 1005.24 1302.36 988.61 1306.14 988.641M148 988L148 991L150 991L150 988L148 988M1610 1037C1620.09 1026.79 1617.64 1012.13 1633 1008C1627.42 1000.54 1609.58 998.81 1600 996.581C1597.69 996.042 1589.01 994.649 1588.32 998.277C1587.78 1001.14 1613.99 1004.73 1616.86 1009.48C1620.98 1016.27 1608.63 1028.93 1610 1037M1215 1001L1216 1002L1215 1001M1607 1044C1606.13 1039.74 1586.01 1009.27 1582.65 1010.76C1578.71 1012.5 1584.83 1019.47 1585.92 1021.08C1592.26 1030.48 1595.53 1040.04 1607 1044M1587 1323C1571.41 1334.24 1571.75 1275.81 1579.8 1265.26C1602.54 1235.5 1618.05 1286.49 1626.06 1302C1628.52 1306.75 1639.87 1321.77 1643 1310C1633.62 1310.81 1630.29 1301.2 1626.81 1294.14C1620.28 1280.89 1594.22 1244.05 1615.8 1233.64C1620.83 1231.22 1632.71 1241.53 1637.14 1243.83C1654.82 1253.02 1671.87 1260 1692 1260C1685.78 1253.86 1674.1 1254.84 1666 1251.92C1650.42 1246.31 1634.05 1237.41 1620.07 1228.62C1608.12 1221.11 1616 1196.76 1601.68 1187.06C1593.96 1181.84 1590.1 1189.57 1583.82 1192.22C1562.97 1201.03 1547.64 1219 1548.12 1244C1548.52 1265.01 1566.05 1257.21 1572.22 1268.18C1574.2 1271.71 1571.1 1279.97 1571.02 1284C1570.75 1297.01 1569.59 1311.27 1572.71 1324C1575.56 1335.63 1585.91 1334.73 1587 1323M1230 1245C1231.52 1251.93 1237.26 1249.97 1239.34 1254.74C1241.98 1260.83 1230.88 1273.09 1225 1272C1226.76 1282.14 1243.44 1294.33 1241.87 1303.56C1238.87 1321.16 1208.46 1328.71 1206 1348C1220.19 1345.4 1234.79 1318.87 1245 1308C1246.2 1312.23 1250.15 1329.15 1257.44 1324.19C1261.49 1321.43 1262.69 1312.95 1268.16 1312.32C1274.85 1311.55 1289.74 1330.17 1291.62 1335.86C1294.02 1343.13 1269.01 1368.47 1263.78 1374.48C1262.52 1375.93 1251.32 1383.64 1254.89 1385.41C1260.09 1388 1267.05 1378.41 1269.45 1375.13C1277.35 1364.35 1288.56 1341.82 1301 1347C1299.51 1329.02 1275.73 1320.81 1273.55 1305.85C1272.4 1298 1286.2 1283.13 1288 1274C1292 1276.85 1294.91 1279.63 1300 1279C1291.24 1269.28 1285.38 1257.77 1277 1248C1283.24 1246.08 1286.78 1245.98 1293 1248C1292 1236.2 1285.56 1221.95 1279.31 1212C1278.53 1210.76 1270.07 1196.78 1269.12 1201.57C1267.24 1211.01 1293.6 1230.87 1283.34 1240.98C1273.2 1250.98 1264.68 1231.37 1254.92 1234.06C1250.62 1235.24 1244.73 1250.66 1240.71 1248.11C1237.52 1246.09 1242.91 1239.07 1243.97 1236.92C1249.59 1225.44 1256.97 1214.92 1261.66 1203C1262.3 1201.36 1267.83 1188.64 1264.64 1188.64C1260.64 1188.64 1257.71 1201.06 1256.32 1204C1251.55 1214.13 1241.56 1242.66 1230 1245M1602 1246C1600.92 1244.53 1592.98 1236.75 1591.29 1239.02C1589.21 1241.83 1596.86 1246.61 1596.9 1249.68C1596.97 1255.66 1582.21 1257.9 1578 1258C1579.16 1253.3 1580.66 1248.86 1581 1244C1573.19 1247.55 1577.8 1261.64 1568.91 1261.64C1538.69 1261.67 1556.69 1207.07 1574.04 1199.94C1576.72 1198.84 1597.25 1191.6 1597.96 1191.71C1606.03 1192.92 1612.27 1214.67 1610.37 1221.63C1609.18 1225.97 1602.84 1220.41 1602.3 1223.43C1601.04 1230.51 1618.57 1235.82 1602 1246M1269 1245C1263.36 1249.4 1255.01 1250.83 1248 1250C1254.67 1236.26 1257.46 1238.88 1269 1245M540.308 1249.29C538.003 1251.88 540.093 1260.61 539.922 1264C539.431 1273.75 538.479 1288.61 533.07 1296.99C524.378 1310.45 502.171 1294.76 499.088 1314C493.519 1348.76 539.304 1339.37 553.336 1321.98C556.13 1318.51 563.413 1310.74 562.579 1305.86C561.846 1301.58 553.933 1297.32 551.69 1293C546.525 1283.05 545.017 1269.05 545 1258C544.998 1256.55 544.629 1244.43 540.308 1249.29M1261 1286C1256.96 1289.02 1252.37 1296.65 1247.74 1298.12C1242.88 1299.65 1233.26 1280.89 1233.8 1277C1237.28 1252.15 1285.99 1237.81 1285.44 1271C1285.33 1277.67 1275.99 1296.9 1269.42 1299.46C1266.57 1300.57 1262.14 1294.83 1260.25 1297C1257.14 1300.56 1265.53 1305.03 1262.95 1309.73C1256.88 1320.81 1246.18 1318.62 1248.64 1305.14C1249.89 1298.24 1258.15 1292.55 1261 1286M180.285 1269.28C172.818 1273.52 176 1290.81 176 1298C176 1305.76 172.693 1333.63 179.897 1338.6C182.192 1340.18 194.742 1337.96 199 1339.12C205.146 1340.8 212.169 1346.03 218.635 1342.31C225.974 1338.1 219.008 1319.85 219 1313C218.992 1306.01 225.241 1281.09 223.467 1277.16C222.21 1274.37 184.312 1267 180.285 1269.28M160 1339C160 1321.92 162.031 1304.99 162.664 1288C162.718 1286.54 166.068 1267.08 159.91 1272.79C149.905 1282.06 168.092 1328.71 146.999 1329.78C136.803 1330.3 131.761 1316.3 131.324 1308C130.543 1293.16 143.997 1277.23 157 1272C146.84 1260.55 128.691 1291.56 127.315 1300C122.648 1328.61 141.947 1329.3 160 1339M238.439 1270.86C223.978 1274.61 225.318 1310.49 227.487 1324C228.401 1329.69 232.516 1340.35 240.034 1338.87C263.686 1334.21 272.377 1262.07 238.439 1270.86M2007 1270C2002.7 1276.97 1986.95 1298.49 1978 1298.06C1970.57 1297.7 1968.25 1285.98 1960 1288.44C1946.65 1292.41 1934.03 1312.83 1925.28 1323C1921.36 1327.56 1903.07 1340.89 1903.79 1346.65C1904.66 1353.68 1919.1 1337.35 1920.6 1335.55C1928.81 1325.69 1961.79 1275.86 1972.68 1302C1974.26 1305.82 1966.42 1310.06 1964 1311.84C1952.68 1320.18 1941.77 1329.04 1930 1336.74C1927.67 1338.26 1917.6 1342.9 1918.41 1346.56C1919.28 1350.51 1942.59 1333.43 1945 1331.71C1952.68 1326.23 1970.46 1306.53 1979.92 1306.84C2007.22 1307.73 2017.48 1357.33 2045 1359C2027 1333.29 2024.56 1297.18 2007 1270M217 1339C205.652 1336.94 194.606 1333.05 183 1333C183.472 1330.25 184.169 1327.66 185 1325C183.697 1325.3 177.085 1278.43 182.694 1273.72C184.569 1272.15 192.068 1276.92 195 1277C199.507 1277.13 210.955 1277.21 214.278 1280.72C216.781 1283.36 214 1292.56 214 1296C214 1310.51 217 1324.71 217 1339M238 1336C235.924 1327.67 232.424 1321.94 233.217 1313C233.962 1304.61 231.192 1284.44 236.501 1277.82C243.591 1268.99 254.477 1282.15 256.22 1288.44C260.139 1302.58 251.021 1328.92 238 1336M912 1360C884.015 1334.41 905.876 1273.41 853 1280.64C847.503 1281.39 842.216 1279.87 837 1282C849.118 1294.28 866.156 1278.42 879.735 1289.14C884.959 1293.27 885.837 1307.61 887.9 1314C894.561 1334.64 902.901 1354.99 911 1375C914.723 1371.59 914.47 1363.79 916.726 1359C924.458 1342.6 932.047 1325.29 937.455 1307.98C939.863 1300.28 939.036 1286.88 947.122 1282.5C957.352 1276.96 973.384 1283.55 984 1285C979.918 1274.9 947.48 1271.47 940.187 1279.7C936.447 1283.92 936.598 1297.12 934.565 1303C928.255 1321.24 914.946 1341.26 912 1360M2034 1349C2015.17 1342.24 2001.75 1314.6 1983 1304C1984.88 1299.77 2002 1277.34 2006.36 1279.54C2010.03 1281.39 2012.63 1292.29 2014.51 1295.96C2023.1 1312.72 2029.67 1330.6 2034 1349M544 1280C544.592 1289.82 544.797 1305.58 557 1306C554.086 1319.39 536.706 1332.45 522.96 1333.3C514.769 1333.8 503.025 1331.27 502.62 1321C501.803 1300.25 519.041 1313.21 529 1307.18C540.367 1300.3 539.171 1291.16 542 1280L544 1280M1214 1350C1215.66 1362.82 1244.37 1390.96 1257 1393C1249.33 1380.57 1227.54 1356.01 1214 1350M1274 1539C1271.55 1549.01 1272 1557.69 1272 1568C1262.55 1568.09 1272.25 1585.73 1267.66 1592C1257.4 1606 1243.45 1617 1233.17 1630.58C1229.15 1635.88 1229.74 1643.97 1225.48 1650.04C1222.52 1654.25 1209.57 1666.23 1211.54 1671.46C1218.19 1689.14 1255.27 1675.78 1260.15 1690.19C1265.85 1707.04 1244.51 1743.03 1258 1756C1259.16 1749.98 1257.06 1744.08 1258 1738C1263.04 1745.3 1268.63 1749.86 1270 1737C1259.03 1747.61 1261.76 1717.31 1262.08 1711C1263.48 1683.42 1274.68 1656.25 1274.99 1628C1275.1 1618.54 1270.68 1595 1279 1589C1279.46 1591.01 1279.92 1592.26 1281 1594C1281.98 1580.91 1279.85 1563.44 1279.73 1550.08C1279.69 1545.86 1278.02 1540.55 1274 1539M570 1656C566.093 1671.47 541.755 1708.26 524.705 1710.55C512.492 1712.19 487.194 1700.4 476.851 1712.68C468.794 1722.26 491.409 1717.51 494.003 1718.01C513.016 1721.72 522.616 1719.08 538 1710C537.028 1713.72 535.564 1717.18 535 1721C541.809 1717.65 545.28 1708.32 549.331 1702.14C560.128 1685.65 573.385 1669.6 578 1650C546.439 1651.89 514.643 1651 483 1651C488.806 1640 507.544 1605.09 520.019 1602.37C535.35 1599.02 552.515 1601.4 568 1601.96C570.957 1602.07 581.513 1604.24 582.894 1600.67C584.474 1596.59 570.029 1596.37 568 1596.57C551.629 1598.19 530.694 1591.46 515.177 1598.6C500.748 1605.24 492.169 1629.99 481.234 1641.18C478.759 1643.72 470.483 1651.54 474.907 1655.5C479.393 1659.51 493.311 1657 499 1657C522.157 1657 547.595 1661.67 570 1656M1271 1598C1271 1626.87 1269.62 1656.01 1262 1684C1251.88 1678.72 1223.34 1680.97 1217.46 1670.18C1215.08 1665.8 1226.39 1655.3 1228.82 1652C1240 1636.87 1252.93 1605.24 1271 1598M1607 1663C1615.22 1674.39 1637.37 1659.65 1646.06 1669.12C1655.13 1679.01 1624.08 1701.21 1630.42 1711.11C1632.97 1715.09 1638.16 1704.48 1639.06 1703C1644.88 1693.43 1647.09 1677.15 1657 1671C1655.1 1656.49 1668.15 1635.58 1674.8 1623C1676.21 1620.35 1685.58 1609.65 1682.91 1607.25C1679.87 1604.51 1666.2 1610.2 1662 1610.68C1642.55 1612.88 1621.43 1611.57 1602 1609.31C1598.8 1608.94 1580.64 1601.34 1580.64 1607.02C1580.64 1612.5 1597.27 1613.49 1601 1613.94C1616.84 1615.86 1633.04 1617.31 1649 1616.98C1654.51 1616.87 1664.21 1612.8 1669.26 1615.36C1672.71 1617.11 1668.31 1624.72 1667.33 1627C1664.18 1634.3 1656.39 1661.13 1649.54 1664.37C1641.02 1668.39 1617.47 1662.14 1607 1663M208 1708C204.478 1698.78 192.934 1701.7 185 1701.2C165.641 1699.98 131.835 1714.94 113.962 1704.44C111.098 1702.76 115.84 1695.7 116.781 1693.68C120.299 1686.14 129.411 1666.56 139.01 1665.87C163.963 1664.06 187.812 1699.07 214 1701C211.243 1693.89 201.39 1691.14 194.96 1687.82C180.263 1680.24 163.464 1673.1 152 1661C181.604 1648.29 214.861 1630.58 240 1611C219.608 1607.55 206.882 1618.08 190.136 1627.98C164.623 1643.07 136.602 1652.86 120.036 1677.86C117.024 1682.41 96.6779 1705.89 98.7579 1710.21C99.9 1712.59 119.647 1709.97 123 1710.32C150.9 1713.21 179.906 1708 208 1708M1628 1712C1616.61 1711.61 1614.1 1702.16 1610.54 1693C1607.49 1685.16 1600.9 1673.58 1601.78 1665C1603.46 1648.43 1622.5 1635.17 1628 1620C1613.1 1623.61 1608.82 1648.36 1599 1658C1598.17 1646.81 1589.55 1629.42 1584.68 1619C1583.77 1617.05 1575.86 1605.89 1576.42 1614.15C1577.09 1623.82 1586.74 1637.82 1590.5 1647C1597.09 1663.12 1599.23 1680.89 1606.94 1696.68C1610.18 1703.32 1619.88 1726.1 1628 1712M1931 1651C1945.64 1643.26 1955.26 1627.44 1970 1620C1960.99 1645.01 1968.18 1673.13 1961.08 1698C1958.84 1705.84 1948.04 1715.79 1942.65 1722C1940.16 1724.88 1919.8 1744.31 1923.85 1747.68C1926.48 1749.86 1945.36 1725.75 1947.74 1723C1971.56 1695.59 1973.12 1657.39 1971 1622C1979.91 1631.6 1984.4 1643.82 1999 1646C1996.54 1636.17 1983.25 1614.64 1971.98 1613.3C1962.02 1612.11 1931.33 1641.67 1931 1651M1647 1661C1644.01 1647.57 1636.36 1636.42 1635 1622C1623.34 1626.62 1639.62 1657.22 1647 1661M1980 1626C1984.75 1629.87 1988.18 1634.58 1991 1640C1985.85 1637.19 1980.99 1631.96 1980 1626M908 1628C908.002 1632.11 907.987 1636 909 1640C883.297 1637.97 859.004 1631.2 833.001 1631C823.508 1630.92 812.576 1626.12 806 1636C819.367 1641.51 817.431 1657.92 820.715 1669C824.109 1680.46 832.533 1689.59 835.837 1702C837.441 1708.02 838.835 1724.56 845.39 1727.41C849.656 1729.27 842.505 1712.57 841.996 1710C841.071 1705.33 834.153 1688.78 837.238 1685.04C839.541 1682.24 845.169 1683.62 848.092 1680.47C850.279 1678.12 851.215 1671.77 854.303 1670.64C860.982 1668.21 864.187 1688.93 874.087 1681.46C886.057 1672.44 885.08 1656.68 893.179 1646.46C895.427 1643.63 903.049 1643.98 904.68 1647.5C906.494 1651.42 898.918 1658.35 896.64 1661C885.908 1673.48 874.255 1685.34 862 1696.32C859.589 1698.48 846.864 1708.33 849.482 1712.24C851.689 1715.55 868.397 1697.93 870.68 1695.67C886.015 1680.52 926.988 1650.43 908 1628M825 1636C824.403 1639.84 823.334 1643.36 822 1647L820 1647C817.107 1640.4 816.786 1636.29 825 1636M859 1638C856.376 1645.47 856.453 1653.63 853.649 1661C852.327 1664.47 850.335 1667.69 848.65 1671C834.475 1698.81 813.649 1646.67 832.813 1636.96C838.523 1634.06 853.011 1636.27 859 1638M864.683 1640.82C892.073 1625.4 889.984 1670.19 871.289 1678.46C860.038 1683.43 854.837 1646.36 864.683 1640.82M147 1660L146 1661L147 1660M1989 1747C1973.23 1745.21 1956.9 1747.16 1941.01 1745.68C1937.92 1745.39 1932.88 1747.4 1935.45 1751.34C1938.27 1755.65 1948.66 1753.51 1953 1753.3C1969.42 1752.51 1985.61 1750 2002 1750L2002 1747C1989.95 1745.86 1952.99 1680.38 1973.69 1720C1975.62 1723.7 1977.5 1727.4 1979.61 1731C1982.74 1736.32 1986.41 1741.4 1989 1747M2080 1932C2080.91 1934.61 2081.68 1935.49 2084 1937C2084.52 1933.37 2083.56 1932.52 2080 1932M819 1961C822.683 1969.67 833.616 1961.86 837.6 1968.18C843.415 1977.41 826.412 2000.66 838.488 2008.9C839.389 2009.51 840.253 1973.91 844.468 1967.99C847.72 1963.42 853.628 1965.09 857 1961C852.318 1960.81 847.637 1960.7 843 1960C848.517 1952.73 846.363 1941.79 848 1933C835.162 1936.6 844.437 1950.78 838.799 1958.4C835.33 1963.08 824.115 1961 819 1961M117 1997C118.192 1995.01 119.14 1993.15 120 1991C109.643 1992.46 104.414 2011.03 99.6441 2019C95.3239 2026.22 83.8814 2036.26 83.2787 2044.93C82.9614 2049.5 89.7289 2051.27 91.418 2055.17C102.35 2080.35 117.945 2092.19 147 2083.12C149.035 2082.49 163.436 2075.6 154.841 2074.97C142.021 2074.01 123.319 2084.33 111.129 2078.48C106.111 2076.07 105.065 2068.46 102.504 2064C99.2988 2058.41 90.9107 2048.57 90.5365 2042.22C90.1453 2035.57 110.332 2006.5 115.844 2001.82C120.535 1997.84 130.273 2001.31 136 2000.86C144.244 2000.2 155.558 1995.28 163.717 1998.14C167.103 1999.33 185.106 2028.69 186.485 2033C190.99 2047.08 162.016 2059.66 166 2075C178.765 2067.42 181.566 2049.88 191.038 2039.33C195.026 2034.88 201.266 2039.62 203 2033C190.464 2032.73 192.624 2019.92 186.374 2012.03C173.873 1996.25 166.104 1992.13 146 1994C150.512 1985.28 157.297 1962.8 165.067 1957.73C170.054 1954.47 200.605 1951.92 201.214 1947.88C202.289 1940.77 170.791 1948.01 167.019 1949.35C149.444 1955.55 149.594 1980.37 137.991 1992.5C133.712 1996.97 122.884 1995.19 117 1997M504 1953C522.483 1953.83 541.257 1965.03 559.019 1969.92C561.789 1970.68 576.388 1977.32 577.214 1971.63C577.868 1967.13 564.18 1964.62 561 1963.49C549.871 1959.54 511.455 1941.62 504 1953M902 1948C900.581 1963.24 902.253 1965.45 888 1971C891.109 1975.25 898.148 1976.01 900.42 1980.44C909.536 1998.24 893.283 2023.24 884.436 2036.99C882.192 2040.48 869.822 2060.75 865.815 2059.36C859.435 2057.13 849.819 2031.37 846.669 2025.04C845.107 2021.9 843.069 2013.59 838.223 2014.65C831.151 2016.19 842.637 2027.64 844.097 2030C851.345 2041.74 858.44 2068.7 873 2071C867.14 2053.55 898.558 2029.65 904.84 2013.78C909.25 2002.64 902.195 1988.5 905.984 1977.35C907.544 1972.76 917.997 1972.44 917.997 1969.86C917.997 1965.53 908.354 1968.26 906.338 1965.36C904.026 1962.04 905.395 1952.24 905 1948L902 1948M497 1949C491.482 1970.81 512.482 2030.73 471 2012C467.446 2028.15 489.949 2015.79 495.961 2022.82C505.44 2033.91 486.382 2061.78 505 2069C503.708 2058.47 494.774 2033.67 502.26 2023.74C505.918 2018.89 527.997 2023.95 527.997 2017.92C527.997 2010.96 504.823 2019.3 502.378 2011.84C497.633 1997.38 509.27 1958.44 497 1949M2079 1954C2082.45 1954.39 2085.56 1954.49 2089 1954C2085.38 1949.2 2082.53 1949.16 2079 1954M2023.94 1958.34C2021.67 1960.23 2025.69 1963.89 2027.68 1961.94C2029.8 1959.87 2026.07 1956.57 2023.94 1958.34M1224 1965C1224.62 1975.53 1230.49 1981.07 1236.84 1988.58C1242.38 1995.13 1246.12 2005.96 1253.23 2010.83C1275.39 2026.01 1298.89 1972.05 1314 1964C1310.7 1955.9 1302.36 1967.52 1299.44 1971C1291.56 1980.37 1273.34 2012.76 1258 2008.64C1242.48 2004.46 1238.04 1972.7 1224 1965M1317.25 1968.33C1314 1971.2 1316 1982.99 1316 1987C1316 2004.69 1314.98 2022.29 1315 2040C1315 2042.34 1314.92 2060.5 1320.37 2057.46C1323.72 2055.59 1321 2040.69 1321 2037C1321 2016.52 1320.18 1996.17 1323.24 1976C1323.62 1973.49 1321.42 1964.65 1317.25 1968.33M1210 1968C1213.6 1989.36 1209.12 2009.53 1209 2031C1208.97 2036.95 1206.68 2049.34 1210.23 2054.37C1214.06 2059.77 1217.35 2050.76 1218 2048C1216.06 2048.89 1215.48 2049.4 1214 2051C1209.34 2032.64 1216.39 2008.11 1216.24 1989C1216.18 1980.88 1220.81 1969.81 1210 1968M1609 2074C1609.09 2067.01 1608.8 2051.24 1613 2046C1617.13 2068.25 1646.49 2056.67 1655.76 2045.22C1659.4 2040.73 1659.19 2034.45 1664 2031C1664.3 2039.86 1659.88 2058.89 1663.92 2066.43C1665.08 2068.6 1677.45 2051.26 1678 2047C1668.52 2053.19 1668.61 2039.91 1669.22 2033C1670.3 2020.84 1678.09 1976.66 1665 1971C1665 1984.41 1663.76 1997.67 1665 2011C1658.53 2005.2 1647.85 1987.47 1639.99 1985.7C1627.99 1983 1619.01 2000.39 1612 2007C1612 2003.09 1613.88 1967.4 1608.5 1970.37C1604.07 1972.81 1607 1985.76 1607 1990C1607 2009.03 1607.21 2028.99 1605.89 2048C1605.43 2054.59 1601.38 2070.98 1609 2074M2000 1974C2000 1982.86 2002.13 1996.56 1998.18 2004.72C1996.18 2008.85 1986.69 2009.45 1984.19 2005.46C1981.54 2001.25 1991.38 1978.43 1979 1977C1979.93 1981.73 1976.66 2019.6 1966.34 2004.26C1961.28 1996.74 1974.91 1980.27 1962 1975C1961.99 1981 1963 1999.84 1958.18 2003.84C1954.05 2007.27 1939.23 1997.78 1938.32 2002.96C1936.55 2013.04 1967.86 2006.86 1957.83 2028.71C1954.75 2035.44 1936.64 2022.32 1936.64 2033.1C1936.64 2042.02 1952.3 2036.54 1955.96 2040.82C1959.09 2044.48 1957.27 2087.45 1969 2061C1966.45 2062.02 1964.38 2063.63 1962 2065C1962 2058.56 1959.8 2047.15 1962.94 2041.4C1964.74 2038.12 1973.6 2038.44 1974.6 2042.3C1977.75 2054.38 1968.44 2069.96 1973.94 2081.84C1978.14 2090.92 1984.37 2077.73 1984 2073L1977 2080C1976.24 2059.62 1973.11 2039 1997 2039C1994.48 2047.18 1991.08 2066.99 2001 2071C2000.97 2064.04 1995.94 2044 2002.02 2039.04C2006.96 2035 2024.9 2040.41 2031 2041C2025.99 2027.84 2010.15 2038.55 2002.73 2031.18C1998.04 2026.53 2001.86 2013.8 2008.03 2012.63C2017.55 2010.84 2024.79 2016.31 2033 2020L2034 2019C2027.56 2005.81 2014.07 2009.14 2002 2007C2004.15 1999.81 2009.48 1977.32 2000 1974M909 1977L909 1980C910.125 1978.33 910.125 1978.67 909 1977M1640 2006C1670.39 1994.96 1660.32 2047.81 1634 2053.84C1602.5 2061.05 1612.3 2002.44 1634 1993.37C1646 1988.35 1645.37 1999.12 1640 2006M186 2023C182.371 2019.51 179.876 2015.66 178 2011C182.987 2013.12 184.879 2017.93 186 2023M1965.81 2012.83C1976.75 2006.24 1979.96 2028.69 1973.5 2032.18C1961.71 2038.53 1959.26 2016.78 1965.81 2012.83M1986.14 2013.6C1998.2 2009.58 2001.97 2028.54 1994.5 2031.5C1979.76 2037.33 1974.11 2017.63 1986.14 2013.6M1312 2046C1289.08 2044.46 1265.97 2046.91 1243 2046.02C1240.15 2045.91 1219.78 2042.78 1221.11 2045.67C1223.2 2050.26 1233.04 2049.49 1237 2050.39C1253.59 2054.16 1276.44 2054.13 1293 2050.39C1298.47 2049.16 1310.01 2052.82 1312 2046M1234 2181C1252.06 2187.12 1278.97 2181.02 1298 2181C1346.71 2180.96 1395.33 2182 1444 2182C1430.98 2177.59 1414.61 2182.43 1401 2180.79C1345.97 2174.15 1289.17 2181 1234 2181z"/>
</svg>
