<?xml version="1.0" standalone="yes"?>
<svg xmlns="http://www.w3.org/2000/svg" width="2200" height="2200">
<path style="fill:#0c0c0c; stroke:none;" d="M857.733 131.166C851.138 134.15 862.705 139.293 866.429 137.872C870.899 136.165 861.287 129.558 857.733 131.166M100 179C106.094 175.03 107.992 166.041 111.781 160C123.124 141.915 136.058 134.318 158 137.361C171.329 139.209 189.665 144.822 197.875 156.222C214.053 178.688 209.752 229.078 184 243.036C161.937 254.996 126.686 239.933 115.889 219C112.694 212.805 109.936 180.659 103.972 183.33C88.0842 190.445 79.3228 234.721 88.3651 248.812C96.7159 261.827 117.204 247.516 123 239C113.217 237.442 106.285 252.028 96.2437 247.279C82.6541 240.851 96.5318 197.518 104 190C110.238 219.074 114.715 237.631 146 250.377C158.193 255.345 166.471 250.997 177.932 259.515C189.021 267.756 224.475 281.945 232.834 262.914C242.449 241.021 208.072 238.793 207.06 226.091C206.325 216.856 208.96 184.957 212.796 176.432C218.232 164.349 232.476 156.845 235.367 143.001C238.908 126.039 215.399 136.789 212 146C219.217 144.338 224.645 138.773 232 138C227.833 150.873 215.724 159.121 212 172C207.558 165.363 206.061 156.536 200.813 150.439C185.464 132.606 154.745 129.708 133 133.524C125.206 134.892 120.551 142.401 113.783 143.729C105.659 145.323 97.5008 133.447 88.0035 134.287C61.4502 136.634 96.3729 173.519 100 179M891.751 133.277C888.128 135.947 894.538 139.287 897.352 137.034C900.967 134.139 894.307 131.394 891.751 133.277M112 149C110.964 152.324 109.312 155.059 107.599 158.078C92.1774 185.269 79.5964 141.825 88.2463 139.006C95.3871 136.678 105.503 146.821 112 149M1219 234C1200.34 229.277 1172.41 247.499 1188.81 267.842C1212.48 297.227 1237.75 267.1 1228 239C1239.1 239 1268.34 230.061 1276.72 235.26C1287.19 241.757 1277.4 260.038 1296 263.64C1307.58 265.884 1327.81 253.667 1320.39 240.078C1312.85 226.254 1288.58 235.362 1285.38 227.279C1282.54 220.087 1277.46 187.254 1279.98 180.265C1281.67 175.564 1290.15 175.203 1293.96 172.794C1304.25 166.28 1302.78 150.637 1292.78 144.542C1273.78 132.965 1276.49 166.483 1267.54 171.178C1257.06 176.676 1232.61 173.955 1221 172.892C1206.19 171.537 1215.59 150.007 1202.97 144.66C1192.71 140.311 1181.37 141.806 1176.55 153.001C1168.93 170.721 1200.26 168.8 1205.82 177.358C1209.06 182.335 1205.78 189.527 1207.17 195C1210.49 208.077 1217.4 220.261 1219 234M442 151C444.047 152.007 445.756 152.599 448 153C445.515 143.083 433.411 149.017 435.726 158C439.786 173.763 464.429 182.188 474 195C446.748 195.045 462.512 217.168 474 207L464 204C478.709 197.123 482.281 214.371 483 226C476.278 224.813 456.245 229.347 460.929 240.395C463.532 246.536 473.194 240.688 475 237L467 238C471.052 231.348 476.971 231.645 484 232C480.986 242.348 473.55 256.864 463 261C464.431 255.619 465.988 247.951 458 249C460.066 253.438 456.741 269.136 458.552 270.15C471.311 277.29 483.139 242.832 488.999 237.977C492.191 235.331 500.675 238.049 505 236.768C513.193 234.341 517.522 225.32 525.136 222.976C531.735 220.945 540.698 226.85 548 226C545.331 220.891 536.371 218.353 531 217C532.783 214.892 534.543 213.197 536.811 211.596C556.307 197.83 524.416 214.165 522.422 207.974C522.317 207.651 543.897 165.15 526.523 189.981C524.387 193.034 522.182 195.111 519 197C519 190.333 519.043 183.666 518.919 177C518.824 171.914 518.958 166.873 520.581 162C525.095 148.452 520.707 138.322 515.556 156.001C512.872 165.213 518.926 195.549 513.171 200.818C494.191 218.194 468.925 180.477 456.997 171.809C449.517 166.373 440.01 161.502 442 151M1591 263C1584 272.464 1582.7 283.015 1576.69 292.559C1575.29 294.795 1569.12 299.857 1570.1 302.672C1571.31 306.14 1587.67 304 1591 304C1613.23 304 1636.01 306.072 1658 302.363C1663.51 301.434 1696.25 300.927 1696.89 298.481C1698.77 291.411 1686.07 290.155 1682 291.565C1649.19 302.927 1612.18 298.865 1578 299C1587.1 287.498 1586.01 267.887 1602 262.088C1615.33 257.256 1653.24 264.832 1661 253C1642.93 248.604 1621.56 255 1603 255C1609.81 248.601 1611.66 238.73 1618.38 232.341C1626.97 224.179 1687.23 195.005 1643 195C1646.67 188.577 1672.8 163.261 1668.42 155.96C1667.08 153.733 1651.36 155.335 1648 154.744C1629.95 151.572 1618.63 143.999 1599 144C1595.72 144 1584.77 142.607 1583.11 146.497C1581.65 149.905 1597.18 149 1599 149C1616.23 149 1626.16 156.019 1642 158.9C1645.31 159.501 1656.96 158.761 1657.34 163.365C1659.85 193.896 1616.26 196 1597 196C1592.16 196 1577.31 192.93 1574.41 197.616C1571.15 202.869 1583.89 202 1586 202C1598.29 202.001 1609.09 201.312 1621.08 199.137C1623.39 198.718 1629.95 197.063 1631.07 200.251C1632.2 203.443 1623.92 213.252 1622.17 216C1613.22 230.086 1593.31 237.123 1580.22 247.778C1577.73 249.803 1566.46 257.42 1568.54 261.256C1570.75 265.32 1586.86 263 1591 263M1206 170C1199.54 168.23 1185.71 166.091 1182.3 159.731C1176.17 148.279 1194.27 143.716 1201.54 149.347C1206.81 153.432 1205.99 164.043 1206 170M1287.99 148.643C1301.64 148.639 1294.24 171.511 1281.07 171.591C1270.5 171.655 1280.34 148.646 1287.99 148.643M1963.81 156.551C1961.86 157.52 1963.76 159.879 1965.5 159.084C1967.53 158.158 1965.52 155.703 1963.81 156.551M1935 160C1920.16 160.041 1931.97 167.656 1935 160M905 175C899.674 161.661 866.012 166.795 854 165.302C850.25 164.835 839.168 161.782 836.544 165.733C834.402 168.96 850.087 170.288 852 170.543C869.518 172.877 887.348 173.917 905 175M113 177L111 181C113.638 180.093 114.887 179.399 113 177M1266.95 177.468C1278.4 177.718 1283.53 220.144 1278.18 228.138C1276.28 230.973 1268.98 228.842 1266 229.319C1254.68 231.128 1243.91 234.938 1232.02 233.89C1218.36 232.686 1218.07 203.816 1215.53 194C1214.6 190.448 1210.88 182.567 1214.28 179.3C1216.7 176.982 1224.84 178.992 1228 178.999C1240.98 179.03 1253.98 177.185 1266.95 177.468M1962 247C1965.92 230.927 1991.89 203.521 1988.4 188.107C1986.85 181.258 1977.07 182.687 1972 183.068C1961.05 183.893 1933.82 177.276 1927.83 191.266C1924.7 198.578 1934.62 209.092 1938.78 214.32C1944.62 221.662 1940.8 229.374 1944.61 236.981C1946.62 240.998 1952.8 245.235 1952.5 250.007C1951.33 268.94 1919.01 292.607 1922.02 311.956C1923.68 322.543 1939.26 320.001 1947 320C1962.81 319.999 1978.38 316.512 1994 316.026C2006.7 315.631 2017.24 319.017 2030 315.875C2036.6 314.249 2054.75 317.393 2058.24 309.551C2057.45 311.328 2037.2 299.17 2034.98 297.097C2019.37 282.486 1998.78 268.901 1981.86 255.024C1976.22 250.395 1969.5 243.749 1962 247M1936 191C1941.75 189.221 1946.4 188.381 1952 191C1954.25 185.331 1981.86 186.9 1982.6 191.225C1984.54 202.461 1966.5 220.308 1963.16 231C1962.45 233.271 1960.51 242.453 1956.48 240.456C1946.76 235.639 1940.37 200.902 1936 191M1654 201C1649.99 210.519 1632.66 220.261 1623 223C1629.86 205.438 1636.99 200.966 1654 201M844.892 201.208C842.078 203.538 846.026 205.388 848.071 205.474C858.079 205.894 900.01 212.83 906.031 206.068C910.303 201.27 894.653 203.06 893 202.871C882.735 201.698 853.483 194.094 844.892 201.208M486.657 206.238C504.961 200.004 536.221 220.442 505 231.139C492.799 235.319 489.187 227.747 487.476 218C487.078 215.728 483.318 207.376 486.657 206.238M466 213C465.696 215.719 465.808 216.367 468 218L468 213L466 213M863.438 227.759C860.768 228.418 839.647 230.39 842.668 235.16C844.415 237.92 853.385 234.653 856 234.32C868.217 232.767 881.753 231.685 894 233.479C900.494 234.429 912.244 239.589 918.429 236.205C924.485 232.892 908.678 229.598 907 229.36C893.396 227.431 877.072 224.396 863.438 227.759M1612 232C1609.34 241.331 1601.84 257.532 1591 257.97C1588.66 258.065 1580.92 259.108 1579.76 256.282C1577.79 251.475 1607.48 233.14 1612 232M203 234.038C215.438 230.272 239.69 259.878 220.974 265.132C214.334 266.996 177.223 262.903 179.544 251.571C180.157 248.578 190.511 245.08 192.992 242.837C195.983 240.134 198.992 235.252 203 234.038M1288.28 235.142C1306.21 228.833 1329.84 248.795 1304.92 257.809C1292.48 262.31 1276.74 239.203 1288.28 235.142M1206 237.5C1227.6 233.575 1235.81 268.162 1216.99 272.576C1192.35 278.356 1179.61 242.295 1206 237.5M1931 314C1934.56 309.283 1940.85 307.45 1945 303C1938.57 303.271 1934.28 308.206 1928 309C1932.85 295.6 1948.82 250.52 1966 251.75C1987.14 253.262 2002.59 285.316 2021 294.636C2024.56 296.437 2038.06 303.58 2035.46 309.036C2032.77 314.654 2015.07 312 2010 312C1983.59 312 1957.41 314 1931 314M845.755 270.23C840.925 273.785 856.511 277.696 859 278.34C871.075 281.461 901.079 288.12 911.149 277.114C914.189 273.79 910.386 270.66 906.989 270.534C899.955 270.274 892.438 276.288 884.96 276.878C875.593 277.618 852.811 265.039 845.755 270.23M909 289C911.352 289.778 913.059 290.449 915 292C905.906 292.014 897.028 293.732 888 294.68C882.309 295.277 876.609 296.39 870.96 296.882C866.062 297.308 851.073 293.07 848.01 296.083C842.284 301.713 857.298 303.978 860 303.984C876.038 304.024 892.186 300.683 908 298.453C912.009 297.888 924.188 297.785 926.592 294.24C930.929 287.847 912.814 286.32 909 289M1285 447C1273.21 447.048 1265.09 453.614 1254 455.521C1246.38 456.831 1238.59 457.27 1231.01 458.65C1226.52 459.467 1222.49 461.839 1217.98 462.462C1214.57 462.933 1199.27 460.206 1198.32 465.257C1197.17 471.421 1216.33 468.116 1219 467.62C1232.83 465.051 1281.01 462.609 1285 447M1666 484.446C1655.47 485.745 1631.14 481.807 1629.2 496.001C1628.29 502.693 1634.05 509.12 1632.83 514.96C1631.31 522.286 1621.43 524.136 1622.36 533C1623.16 540.668 1632 548.487 1631.42 556.115C1630.7 565.713 1613.21 564.902 1614.35 576.998C1615.26 586.538 1628.43 589.296 1630.48 598.209C1631.87 604.302 1589.88 626.426 1614.16 634.476C1631.76 640.313 1664.81 638.531 1682 633.838C1689.96 631.666 1699.64 630.378 1702.39 620.999C1707.71 602.903 1686.59 605.946 1683.89 595.676C1681.84 587.892 1700.42 579.083 1701.61 569.923C1703.02 559.045 1689.44 560.716 1686.97 552.846C1684.47 544.905 1709.92 540.049 1710.58 529.002C1711.22 518.225 1694.34 517.734 1690.28 509.901C1688.69 506.847 1692.08 497.431 1688.61 496.106C1684.05 494.363 1682.87 506.624 1683.51 508.999C1685.77 517.379 1704.59 521.963 1703.68 529.884C1702.2 542.67 1677.18 538.343 1680.38 553.919C1681.88 561.236 1694.9 562.534 1694.21 570.043C1693.21 581.004 1673.54 584.463 1676.77 596.98C1679.19 606.322 1700.03 606.492 1696.92 618.896C1695.36 625.1 1685.44 628.371 1680 629.307C1663.02 632.23 1638.09 634.358 1621 630.635C1600.04 626.068 1638.19 606.59 1637.53 596.255C1636.99 587.941 1621.26 584.651 1620.42 575.96C1619.6 567.446 1635.78 565.7 1637.37 557C1638.96 548.273 1627.68 540.56 1628.05 532.016C1628.36 524.747 1638.93 522.09 1639.12 514.003C1639.26 507.575 1631 500.8 1635.84 494.365C1645.43 481.62 1679.34 495.286 1691.47 490.925C1695.35 489.531 1692.77 484.885 1689.85 484.303C1683.18 482.972 1672.8 483.607 1666 484.446M882 603C874.702 606.139 855.346 600.855 850.786 606.469C845.419 613.074 864.707 611.319 867 611.18C884.391 610.123 904.113 607.057 921 609.926C927.303 610.997 942.633 616.597 948.314 612.7C955.375 607.857 945.171 591.582 943.116 586C934.93 563.762 924.023 537.489 912.279 517C909.7 512.5 904.581 498.123 898.814 497.323C892.806 496.49 885.299 515.735 882.683 520C869.189 541.997 856.963 564.612 840.883 585C837.708 589.025 825.587 601.314 830.254 607.214C833.465 611.273 841.177 594.051 842.53 592C850.539 579.86 865.836 548.978 885.399 560.822C889.141 563.087 879.002 587.385 875.776 587.499C868.116 587.769 877.491 566.462 866.077 568.321C854.718 570.17 876.286 600.693 882 603M1249 554C1242.43 549.707 1235.37 546 1229 541.45C1224.89 538.515 1220.99 535.321 1217 532.229C1215.38 530.976 1194.07 519.253 1197.54 525.485C1202.61 534.586 1226.49 545.766 1235.56 551.377C1238.74 553.343 1248.27 556.902 1248.38 561.222C1248.51 566.985 1240.74 571.26 1236 572.029C1216.05 575.268 1194.94 585.911 1175 586C1181.63 602.503 1203.86 592.243 1188 592C1200.69 582.054 1220.37 579.217 1236 577C1231.57 582.734 1226.84 588.321 1222.31 594C1219.37 597.671 1216.25 601.169 1213.42 604.922C1212.43 606.231 1199.59 622.72 1206.01 621.677C1215.3 620.166 1232.15 589.082 1239.08 582.027C1241.75 579.309 1247.89 572.928 1252.31 575.44C1261.91 580.883 1256.6 618.807 1255.56 628C1255.29 630.376 1253.52 643.416 1258.64 642.574C1262.57 641.928 1261 629.751 1261 627C1261 612.786 1262.72 599.187 1260.56 585C1260.03 581.506 1258.02 574.253 1263.16 573.106C1268.03 572.018 1273.76 579.484 1277 582.28C1287.21 591.088 1298.52 605.589 1312 609C1311.74 592.217 1274.51 587.723 1274.52 571.641C1274.52 561.82 1310.49 566.938 1313 554C1305.57 555.26 1298.17 557.288 1291 559.578C1287.04 560.843 1283.02 562.132 1279 563.199C1275.19 564.209 1257.06 567.213 1260.32 557.855C1267.97 535.832 1304.73 522.857 1305 498C1285.82 508.876 1277.49 545.635 1256.07 552.357C1252.46 553.489 1251.87 543.186 1251.52 541C1249.85 530.825 1252.6 516.484 1247.2 507.295C1240.98 496.72 1241.71 518.81 1242.6 522C1243.8 526.282 1244.67 530.619 1245.42 535C1246.49 541.352 1248.56 547.574 1249 554M498 633C497.533 626.277 499.038 618.868 507.003 617.485C515.841 615.95 524.753 625.097 534 624.863C543.985 624.611 545.994 614.964 553.152 610.179C557.74 607.113 600.801 602.291 578 584C575.632 608.348 562.778 594.965 549.244 604.042C543.268 608.051 541.483 618.495 532.981 618.75C515.452 619.275 506.804 604.048 490 620C489.373 610.177 481.968 595.207 486.88 586C495.494 569.858 504.475 583.137 517 577.753C527.862 573.084 531.676 557.422 543 554.24C548.463 552.705 557.936 558.745 564 559.433C568.221 559.912 575.901 557.787 579.179 560.947C587.63 569.095 587.129 602.296 589.302 614C589.84 616.897 589.556 630.346 594.853 628.902C600.086 627.475 594.395 611.655 593.7 608C590.86 593.076 586.326 576.1 585.547 561C585.284 555.89 591.107 550.16 589.876 545.646C589.106 542.821 585.047 546.283 584 547C584 541.304 587.558 506.509 580.639 505.323C575.422 504.429 576.433 515.629 568.992 513.065C561.416 510.454 555.204 498.478 546.328 503.368C532.989 510.716 525.683 531.319 509.864 534.589C496.78 537.294 493.983 520.56 483.992 516.833C478.101 514.635 476.404 519.69 471.738 521.32C469.022 522.269 464.804 518.667 462.827 521.833C458.588 528.618 467.082 547.07 470.029 553.438C478.851 572.502 473.705 627.463 498 633M167 505.479C145.055 508.72 115.405 525.257 107.404 547.019C103.904 556.54 107.63 564.338 105.711 573C99.8777 599.332 95.2875 618.188 113.66 642.018C130.098 663.339 189.047 675.406 215 671.521C258.004 665.083 282.183 597.459 268.277 560C264.694 550.349 254.888 544.205 248.081 536.999C241.509 530.042 236.788 519.7 228.823 514.239C216.961 506.106 181.221 503.379 167 505.479M868 555C874.795 542.54 882.126 529.93 889.619 517.864C891.115 515.456 894.776 506.643 898.066 506.643C903.821 506.643 922.784 547.552 918.692 551.665C911.14 559.254 878.284 555 868 555M549.136 508.245C565.141 505.568 590.511 537.342 577.958 552.178C569.483 562.196 550.867 545.615 542.134 548.064C528.733 551.822 525.536 571.868 511.997 573.473C510.151 573.692 481.755 573.319 481.88 573.383C472.274 568.493 469.658 530.854 478.244 524.571C486.406 518.599 498.173 541.882 509 540.677C526.817 538.695 533.606 510.842 549.136 508.245M182 514C180.205 514.092 175.587 513.858 175.08 516.361C174.531 519.076 180.99 520.332 182.204 522.482C185.745 528.748 185.078 538.047 186 545L113 546C118.512 526.631 142.942 518.455 159.568 512.001C165.399 509.737 179.079 506.621 182 514M191.822 512.94C217.477 500.238 256.811 542.411 263.744 563.04C265.914 569.495 268.484 594.122 261.315 598.178C256.191 601.078 247.527 598.217 242 598.118C230.302 597.908 220.529 602.058 209 602.864C205.487 603.109 196.992 604.472 194.26 601.74C190.611 598.092 193.124 584.99 192.562 580C192.023 575.21 189.099 557.826 192.338 554.262C196.833 549.316 224.294 555.413 231 555.863C233.593 556.037 242.357 556.635 242.357 552.298C242.357 549.386 223.892 550.142 221 549.786C201.247 547.359 191.273 550.386 190.544 529C190.428 525.608 187.899 514.882 191.822 512.94M1879 684C1921.64 678.347 1964.87 679.638 2008 674.68C2018.74 673.445 2030.05 671.237 2040.19 667.397C2045.33 665.449 2046.7 659.775 2040 660C2040 630.24 2033.64 602.295 2033.64 573C2033.64 561.452 2039.11 542.627 2031.64 532.543C2026.03 524.983 2013.16 527.146 2005 525.842C1973.25 520.771 1945.28 534.351 1914 532.136C1903.12 531.366 1882.17 527.966 1875.1 538.03C1866.39 550.415 1872.84 567.417 1873.86 581C1876.47 615.555 1879 649.086 1879 684M2028 590C2011.76 577.891 1995.34 563.323 1977 554.321C1966.76 549.294 1950.02 546.64 1944 536C1963.22 528.47 1989.3 528.086 2009 532.217C2014.39 533.347 2024.03 531.123 2027.51 536.424C2034.85 547.635 2028.73 576.963 2028 590M1890 537.321C1930.34 532.977 1968.52 550.96 2000.14 575.14C2005.84 579.504 2025.62 587.977 2026.7 595.84C2027.18 599.393 2001.9 613.067 1998.22 616.049C1975.38 634.549 1951.07 650.959 1926.02 662.461C1915.6 667.246 1914.31 676.766 1901 677.856C1897 678.184 1887.17 679.643 1884.82 675.396C1880.22 667.073 1884 647.482 1884 638C1884 612.754 1878.4 588.856 1876.15 564C1875.02 551.373 1875.34 538.9 1890 537.321M116 583C113.994 576.853 106.035 561.804 110.26 555.461C117.225 545.005 158.342 548.804 169.136 550.646C173.844 551.45 182.421 549.342 185.74 553.744C189.02 558.093 187 568.793 187 574C187 580.059 190.284 597.554 186.722 602.186C181.991 608.336 146.549 608.123 138 609.398C130.444 610.525 114.652 617.096 107.564 614.042C100.197 610.868 102.378 572.84 116 583M910 581C907.722 576.352 900.214 566.484 900.848 561.501C901.35 557.553 916.573 558.037 919.117 559.822C923.372 562.807 912.827 578.571 910 581M925.327 565.106C929.776 563.65 946.866 603.332 940.496 605.421C936.108 606.859 911.523 604.784 910.745 599.719C910.05 595.197 915.359 592.814 916.229 588.786C917.31 583.784 919.499 567.013 925.327 565.106M884 590C884.734 585.77 889.767 567.141 894.499 566.323C898.756 565.588 905.525 581.018 902.956 584.204C899.472 588.524 889.073 588.607 884 590M1257.67 567.667C1257.72 567.722 1257.78 568.778 1257.33 568.333C1257.28 568.278 1257.22 567.222 1257.67 567.667M907 592C905.451 606.792 891.55 605.375 882 598C888.688 592.295 898.645 592.778 907 592M2030 602C2031.19 612.61 2026.74 658.601 2040 660C2035.23 665.707 2023.1 667.574 2016 668.646C1995.29 671.776 1973.88 674.776 1953 675.007C1945.83 675.087 1931.75 679.62 1927 673C1951.16 662.935 1976.25 638.723 1997.01 622.464C2006.78 614.806 2017.44 604.248 2030 602M108 620C124.082 622.477 149.051 613.474 166 611.562C170.413 611.064 183.615 608.029 186.74 611.824C195.055 621.92 182.519 644.296 189.461 655.724C193.429 662.255 199.749 651.523 201 648C188.871 652.323 188.521 616.643 194.827 611.241C202.273 604.862 236.709 605.003 247 604.145C250.344 603.865 260.464 602.398 262.518 605.822C266.099 611.789 256.003 631.577 252.844 637.003C230.02 676.207 199.052 665.697 163 658.4C138.551 653.452 114.285 648.27 108 620M267.667 1255.33C267.222 1255.78 268.278 1255.72 268.333 1255.67C268.778 1255.22 267.722 1255.28 267.667 1255.33M286 1263C288.757 1263.46 289.917 1264.12 292 1266C293.844 1259.72 286.652 1254.33 286 1263M233 1652L233 1655L236 1655L236 1652L233 1652M336 1763C337.635 1762.45 337.455 1762.64 338 1761C336.825 1761.77 336.773 1761.82 336 1763z"/>
</svg>
