<?xml version="1.0" standalone="yes"?>
<svg xmlns="http://www.w3.org/2000/svg" width="2200" height="2200">
<path style="fill:#0d0d0d; stroke:none;" d="M2183 962C2170.08 975.933 2134.54 989.937 2122.97 964.959C2114.22 946.082 2121.13 920.153 2128.49 902.081C2131.69 894.225 2156.48 876.281 2160.42 892.097C2162.69 901.227 2154.58 910.599 2156 920C2163.04 913.555 2164.96 898.076 2165 889C2172.34 893.781 2176.83 900.104 2183 906C2181.94 888.581 2154.15 872.324 2139.02 882.118C2125.69 890.743 2123.02 907.296 2118 921C2108.05 875.289 2157.22 830.893 2110.99 792.417C2096.82 780.624 2074.83 784.505 2064.18 800.01C2047.05 824.963 2046.86 869.12 2017.41 885.894C2013.76 887.975 2008.38 878.382 2005.99 876.26C1997.27 868.516 1982.93 851.538 1971 850.431C1955.02 848.946 1946.28 861.154 1939.2 872.922C1924.92 896.667 1920.28 934.233 1935.67 959C1955.92 991.598 1990.12 977.351 2006.41 951C2012.92 940.473 2019.69 926.483 2020.84 914C2021.5 906.945 2017.99 897.562 2020.39 890.921C2023.65 881.874 2033.97 873.21 2039.32 865C2048 851.664 2052.62 837.973 2057.36 823C2061.86 808.75 2078.39 781.557 2097.68 788.957C2117.79 796.674 2131.29 822.279 2128.66 843C2124.43 876.379 2112.47 903.236 2114.9 938C2115.59 947.777 2114.58 961.353 2120.27 969.861C2132.42 988.054 2182.58 989.482 2183 962M268.008 814.94C243.465 824.787 251.038 903.275 284.997 890.896C314.551 880.124 310.133 798.039 268.008 814.94M287 843C288.471 825.056 276.868 820.977 262 826C269.547 814.808 292.175 816.212 296.855 830.001C301.651 844.133 298.384 867.419 290.56 879.989C285.18 888.632 270.763 890.172 264.549 881.316C256.718 870.158 255.348 817.18 279.716 829.285C284.158 831.491 283.661 839.222 287 843M825 853C825 874.387 846.088 890.48 843.561 911.852C843.054 916.139 828.802 919.507 825 923.081C812.186 935.13 800.669 950.721 799.144 969C795.01 1018.58 838.5 1020.51 875 1026.91C892.646 1030.01 914.138 1035.93 929.543 1023.55C955.403 1002.77 962.161 964.729 943.451 937.923C939.325 932.012 933.282 921.796 926 920C931.476 941.644 952.371 951.266 949.775 977C947.774 996.831 931.258 1024.1 909.925 1027.23C895.355 1029.36 872.725 1021.28 858 1018.63C847.39 1016.73 827.735 1017.63 819.127 1011.2C800.992 997.647 800.346 962.628 811.222 945C813.685 941.008 816.863 937.395 820.079 934C822.317 931.637 824.617 929.306 827 927.089C846.628 908.828 840.433 936.469 848.129 945.852C852.157 950.763 858.738 949.933 864 952.877C868.497 955.393 872.47 959.347 878 957.801C890.443 954.322 895.245 938.167 900.432 928C910.024 909.198 923.598 890.287 938.086 875.008C945.511 867.176 959.935 862.271 964 852C955.852 855.287 947.988 861.68 941 867L940 866C945.574 858.464 958.123 842.916 959 834C948.685 839.934 945.485 850.691 939.158 860C924.801 881.12 911.233 905.257 895.176 925C889.427 932.068 872.391 949.107 861.931 944.098C850.461 938.605 846.871 917.403 849.538 906C850.447 902.111 855.746 896.818 855.125 893.003C853.665 884.027 846.496 900.679 843.792 896.351C836.259 884.292 841.388 860.038 825 853M455.313 852.288C432.384 859.847 421.13 878.754 421.003 902C420.915 918.076 427.201 939.827 447.997 933.739C469.568 927.424 485.703 900.857 483.855 879C483.086 869.896 465.885 848.802 455.313 852.288M1984 862C1977.85 862.441 1968.14 858.664 1964 854C1971.85 853.12 1978.92 855.997 1984 862M608.003 854.89C597.612 857.629 593.61 874.86 592.084 884C587.725 910.115 591.194 945.458 627 936.356C673.986 924.414 650.289 843.74 608.003 854.89M1995 873C2036.4 889.564 2012.46 966.692 1976 974.404C1928.1 984.536 1925.28 916.449 1935.27 887.007C1938.35 877.934 1949.16 857.617 1960 858.185C1979.93 859.231 1984.58 871.4 1997.35 881.571C2001.71 885.046 1995.49 874.831 1995 873M622 874L619 860C666.365 871.326 651.688 947.701 604.14 931.278C586.646 925.235 596.708 888.087 598.807 875.993C599.781 870.379 603.706 860.003 610.893 860.003C616.055 860.003 617.417 871.203 622 874M446 863L447 864L445 870C459.886 859.418 459 865.435 459 881C463.58 873.643 461.296 867.833 463 860C495.263 875.253 473.747 934.763 440 930.595C409.856 926.871 426.425 870.391 446 863M1571 884C1595.1 899.123 1617.24 919.61 1632.45 942.41C1634.39 945.325 1639.06 944.287 1640.34 948.128C1645.68 964.271 1610.6 988.961 1598 991.444C1578.59 995.268 1556.01 988.061 1547.54 970.073C1546.95 968.815 1543.49 963.868 1542.37 967.493C1536.98 985.025 1571.53 995.865 1583 995.993C1612.54 996.322 1633.54 979.651 1645 952C1658.15 965.863 1670.11 981.064 1683.31 994.74C1690.14 1001.81 1698.7 1001.53 1700 1012C1707.43 1002.44 1720.22 1001.31 1726.57 989.957C1743.53 959.659 1739.8 890.053 1693 894.255C1678.77 895.532 1661.24 911.2 1650.02 919.867C1646.25 922.779 1640.13 932.756 1634.93 932.521C1631.52 932.366 1625.73 922.715 1623 920.398C1613.51 912.346 1576.4 889.698 1579 877C1575.13 878.381 1573.1 880.498 1571 884M228 881C219.939 874.396 188.868 892.658 182.04 899.092C179.969 901.043 171.562 907.388 172.751 910.723C174.469 915.54 182.671 905.708 184.008 904.409C195.66 893.076 213.548 887.83 228 881M501.408 881.156C497.739 885.183 511.63 886.03 513 886.134C526.669 887.168 540.354 887.734 554 888.872C557.159 889.135 565.564 891.843 567.894 889.075C571.833 884.398 556.739 883.759 555 883.562C541.812 882.066 528.276 882.155 515 881.038C511.86 880.773 503.868 878.455 501.408 881.156M133.68 891.723C121.66 893.139 106.839 891.869 99.3221 903.218C86.9353 921.919 85.436 966.834 118 963.523C140.186 961.268 153.252 946.361 153.988 924C154.424 910.75 152.787 889.473 133.68 891.723M117 897C115.203 902.087 111.186 905.661 110 911C118.717 905.509 125.891 894.584 137.999 895.71C151.395 896.957 150.608 915.482 149.431 925C146.866 945.737 138.444 958.364 116 958.872C85.5567 959.56 90.6953 899.815 117 897M1659 924L1654 923C1657.89 917.291 1664.63 914.934 1670 910.838C1675.55 906.606 1681.05 900.541 1688 898.768C1734.01 887.02 1742.04 964.814 1721.48 990.978C1707.29 1009.04 1690.4 993.461 1678.98 982.328C1660.73 964.521 1637.12 948.317 1659 924M495 910C499.635 917.291 507.645 914.836 515 915.36C532.782 916.629 550.341 915.73 568 918C561.385 907.109 506.662 905.97 495 910M1250 941C1246.14 933.024 1235.21 932.387 1229.67 939.199C1222.75 947.699 1220 964.382 1221.18 975C1223.95 999.83 1249.83 1021.44 1274 1011.62C1308.32 997.662 1331.95 965.227 1359 942C1366.02 963.732 1356.72 995.373 1366.62 1014.99C1369.26 1020.22 1405.85 1029.92 1409.46 1024.33C1410.79 1022.25 1392.91 1021.42 1393.71 1014.82C1395.3 1001.64 1411.07 992.449 1413 979C1404.86 985.734 1400.79 996.056 1393 1003C1397.78 980.707 1391.97 959.51 1381.59 940.845C1378.37 935.059 1378.5 926.519 1370.98 924.009C1362.29 921.11 1362.25 933.93 1355.86 933.263C1341.21 931.732 1317.47 930.621 1304.79 940.806C1287.04 955.059 1272.6 999.06 1245 997.753C1223.73 996.745 1220.76 934.406 1250 941M1651 925C1647.91 951.136 1630.09 936.54 1651 925M1382 950C1393.34 957.419 1397.25 1020.36 1376.09 1016.73C1367.99 1015.34 1370.23 1004.98 1369.56 999C1367.87 983.974 1370.87 967.756 1368.42 953C1367.46 947.234 1362.23 943.445 1361.13 938C1360.39 934.358 1363.72 927.187 1368 927.106C1380.65 926.866 1361.79 969.353 1375.58 974.357C1384.64 977.645 1382.2 953.417 1382 950M849 935C849.938 937.054 850.534 938.795 851 941C848.839 939.107 848.352 937.811 849 935M1241 1004C1256.25 998.75 1269.98 992.595 1280.3 979C1290.33 965.789 1298.13 943.998 1316 940.749C1322.97 939.482 1348.11 931.644 1352.9 939.482C1355.03 942.974 1332.41 962.372 1328.91 966.019C1307.77 988.095 1272.85 1022.45 1241 1004M889 938C887.067 945.995 873.761 961.481 868 948C876.463 947.491 881.664 941.437 889 938M1603 941C1604.04 948.863 1609.34 945.056 1603 941M1377 942C1378.85 950.638 1379.93 961.956 1376 970C1373.5 962.629 1372.17 948.435 1377 942M1252 947C1251.51 950.785 1251.86 953.481 1256 954L1252 947M1226 971L1226 975C1225.49 973.308 1225.49 972.692 1226 971M226 981C228.124 980.101 228.101 980.124 229 978C226.636 978.482 226.482 978.636 226 981M1255 1220C1259.16 1198.35 1264.79 1168.22 1273.27 1148.13C1276.98 1139.36 1289.94 1133.05 1292 1126C1264.03 1132.26 1266.31 1171.23 1259.5 1193C1257.16 1200.48 1246.43 1213.8 1255 1220M1663 1139.48C1579.31 1146.08 1557.62 1236.72 1558 1306C1558.32 1365.26 1588.01 1416.56 1653 1411.86C1738.98 1405.65 1776.19 1322.17 1770.86 1246C1769.01 1219.53 1756.77 1206.53 1745.62 1184C1740.49 1173.65 1742.08 1163.71 1731.96 1155.4C1716.65 1142.84 1682.28 1137.96 1663 1139.48M1742 1180C1720.4 1171.33 1684.92 1143.32 1665 1175C1692.65 1160.8 1746.53 1164.31 1741 1204C1753.51 1185.15 1761.25 1214.45 1764.22 1228C1770.42 1256.35 1768.51 1292.18 1760.26 1320C1740.85 1385.41 1638.77 1445.76 1583.27 1382.98C1550.67 1346.11 1557.25 1265.97 1571.96 1223C1590.66 1168.38 1636.76 1133.22 1695 1147.82C1715.55 1152.97 1736.41 1154.7 1742 1180M1240 1287C1220.98 1279.01 1202.94 1283.68 1183 1281.44C1176.74 1280.73 1165.09 1278.1 1162 1285C1181.66 1285 1219.56 1279.17 1236.28 1291.02C1241.41 1294.65 1239.04 1325.72 1240.38 1333C1243.65 1350.77 1254.13 1365.16 1258.36 1382C1263.79 1403.65 1256.77 1429.77 1247 1449C1262.79 1445.16 1261.36 1411.38 1263 1399C1266.81 1399.22 1268.91 1398.16 1272 1396C1272.1 1401.64 1272.44 1406.48 1271 1412C1279.84 1406.9 1274.69 1399.56 1272 1392C1268.45 1393.43 1265.9 1395.54 1263 1398C1261.47 1388.96 1262.04 1380.03 1260 1371C1301.02 1398.83 1354.19 1332.29 1349 1293C1362.7 1295.96 1410.97 1289.52 1414 1308C1418.71 1303.55 1418.13 1296.44 1410.98 1294.6C1393.79 1290.18 1368.71 1295.59 1353.21 1289.02C1347.85 1286.75 1348.26 1276.87 1346.96 1272C1343.82 1260.27 1339.18 1248.65 1332.1 1238.69C1329.12 1234.5 1319.82 1227.46 1319.03 1222.65C1318.16 1217.3 1327.45 1209.7 1330.49 1206C1340.36 1194.01 1357.23 1175.97 1363 1162C1339.8 1172.19 1335.76 1204.65 1314.55 1217.3C1303.2 1224.07 1283.08 1209.37 1271 1211.64C1243.85 1216.76 1240 1265.96 1240 1287M2065 1358C2070.37 1380.94 2114.92 1423.01 2135.76 1390.77C2145.02 1376.46 2140.73 1356.25 2142.22 1340C2143.3 1328.16 2142.01 1316.81 2142 1305C2141.96 1260.64 2146.62 1175.29 2079 1182.17C2064.64 1183.63 2060.04 1199.49 2049 1206C2049.53 1189.56 2031.98 1183.73 2020 1177.42C1994.38 1163.91 1978.24 1170.48 1953 1176.9C1936.54 1181.09 1916.13 1187.72 1910.74 1206C1900.86 1239.52 1926.15 1242.01 1952.14 1246.86C1957.04 1247.78 1976.4 1248.53 1977.03 1254.15C1978.58 1267.86 1968.89 1283.55 1969.03 1298C1969.07 1302.63 1972.22 1310.38 1967.68 1313.58C1960.8 1318.41 1951.59 1314.15 1944 1315.41C1926.26 1318.35 1910.03 1334.06 1909.08 1352C1907.45 1382.75 1927.28 1385.26 1953 1388C1988.08 1391.73 2041.69 1385.68 2065 1358M2022 1220C2026.53 1217.96 2038.58 1213.9 2043.14 1217.34C2045.8 1219.35 2043.62 1224.84 2046.68 1226.26C2049.87 1227.74 2049.88 1220.89 2051.83 1219.94C2056.34 1217.74 2067.12 1220.38 2070.54 1223.68C2077.17 1230.08 2075 1243.72 2075 1252C2075 1278.3 2072.83 1308.88 2055.53 1329.99C2022.65 1370.13 1977.93 1358.26 1974.14 1306C1973.15 1292.41 1973.86 1264.8 1982.6 1253.67C1986.2 1249.08 1994.1 1256.5 1999 1248C1980.08 1253.67 1990.21 1234.84 1999 1228.5C2013.55 1218.02 2043.25 1229.62 2052 1243C2052.17 1226.12 2020.88 1219.27 2008 1221.03C1991.46 1223.29 1992.49 1239.52 1980.73 1245.66C1967.86 1252.38 1915.12 1239.38 1912.45 1224C1904.31 1177.26 1986.7 1166.03 2016 1179.59C2025.86 1184.15 2042.11 1189.83 2044.63 1202C2048.38 1220.04 2025.37 1205.34 2022 1220M1673 1175.6C1612.12 1185.96 1594.13 1241.18 1594 1298C1593.94 1324.87 1611.9 1371.33 1646 1365.59C1696.87 1357.04 1738.3 1292.97 1726.78 1243C1722.11 1222.76 1699.69 1171.06 1673 1175.6M1654 1183C1651.55 1189.15 1648.01 1194.64 1646 1201C1650.85 1196.14 1654.09 1187.6 1661.02 1185.27C1683.44 1177.74 1695 1210.74 1695 1226C1711.79 1211.13 1681.72 1187.17 1669 1183C1688.05 1164.19 1710.5 1212.8 1715.76 1225C1737.38 1275.14 1704.66 1361.07 1641 1360.96C1618.43 1360.92 1604.1 1335.43 1600.11 1316C1592.08 1276.86 1603.59 1190.17 1654 1183M2068 1329C2054.09 1343.65 2064.53 1362.91 2040.44 1372.78C2007.75 1386.16 1960.03 1387.07 1926 1379.86C1909.06 1376.27 1909.94 1348.85 1917.01 1337.01C1924.11 1325.11 1960.37 1309.02 1972.74 1321.26C1975.4 1323.89 1975.44 1331.42 1977.11 1335C1983.8 1349.35 1995.34 1360.88 2012 1360.97C2023.97 1361.04 2039.05 1349 2047.56 1341.14C2073.59 1317.09 2089.14 1265.19 2076.83 1230C2071.4 1214.47 2053.71 1221.42 2049 1211C2056.36 1210.62 2063.44 1196.04 2069 1191.15C2077.67 1183.52 2097.33 1186.48 2107 1191.34C2146.15 1211.04 2136.28 1272.74 2137.02 1309C2137.33 1324.25 2139.19 1338.9 2136.08 1354C2133.39 1367.09 2140.25 1376.78 2131.7 1389.65C2116.27 1412.89 2078.09 1382.41 2071.91 1366C2066.96 1352.83 2070.71 1341.85 2068 1329M1281 1216C1275.37 1223.73 1267.99 1226.8 1263 1236C1270.68 1233.27 1272.23 1223.15 1281.78 1221.45C1299.32 1218.31 1297.53 1242.95 1293 1252C1302.06 1247.18 1301.92 1227.48 1314.14 1226.75C1320.53 1226.36 1326.84 1236.34 1329.79 1241C1339.37 1256.18 1348.82 1276.95 1339 1292C1352.56 1293 1341.43 1317.82 1338.08 1325C1327.04 1348.68 1299.1 1383.56 1268 1370.52C1230.85 1354.95 1238.82 1277.22 1248.45 1247C1254.01 1229.57 1261.29 1216 1281 1216M1311 1222C1308.13 1226.66 1303.83 1230.43 1299 1233C1295.49 1218.9 1296.92 1220.19 1311 1222M130 1361C142.475 1357.3 154.075 1337.38 161.161 1327C163.28 1323.9 167.707 1311.63 172.158 1311.64C177.342 1311.66 183.364 1327.17 185.965 1330.96C194.532 1343.43 215.707 1369.49 233 1368C221.331 1349.68 197.644 1340.67 185.421 1320.14C182.66 1315.5 176.734 1309.87 177.48 1304C179.764 1286.01 205.672 1267.97 219 1258.48C224.429 1254.62 235.206 1242.87 239 1253L241 1253C243.565 1236.35 231.498 1245.08 223.217 1250.24C208.318 1259.53 193.814 1270.19 184.236 1285.14C182.21 1288.3 176.226 1300.63 171.35 1298C159.526 1291.61 164.832 1275.36 159.709 1266C152.707 1253.2 123.294 1220.71 106.008 1225.83C96.6792 1228.59 99.0834 1237.55 94.186 1243.45C89.5505 1249.03 82.3413 1250.23 78.2008 1257.01C67.6524 1274.27 63.2354 1309.12 71.0369 1328C80.3241 1350.48 102.715 1366.52 126 1354.03C139.903 1346.57 149.526 1329.81 156.067 1316C157.545 1312.88 160.066 1299.86 164.16 1299.99C173.908 1300.3 163.461 1314.2 161.785 1317C153.535 1330.79 133.412 1345.42 130 1361M99 1263C101.023 1238.19 108.379 1249.61 127 1258C122.125 1249.75 109.004 1244.22 100 1242C105.322 1225.24 116.421 1231.55 128.32 1238.41C146.004 1248.61 154.675 1266.67 159.243 1286C169.353 1328.78 107.992 1380.42 77.7453 1333C66.5701 1315.48 69.6164 1286.35 76.791 1267.78C78.5322 1263.28 87.5366 1244.6 95.1005 1249.46C97.7312 1251.16 96.5814 1259.78 99 1263M576 1318C547.9 1295.5 539.558 1248.7 498 1241.44C490.557 1240.14 485.87 1248.21 479.981 1251.39C450.258 1267.41 441.656 1317.54 467.611 1343.63C484.839 1360.95 512.958 1341.46 523.6 1326C539.941 1302.27 533.349 1283.03 522 1260C540.455 1275.19 548.625 1295.29 563.61 1313C572.771 1323.82 587.327 1342.93 602 1345.58C647.623 1353.83 650.337 1285.88 635.82 1259C625.238 1239.41 589.431 1228.5 576.931 1251C565.457 1271.66 569.394 1296.66 576 1318M1651 1240C1652.5 1242.34 1653.95 1244.42 1655 1247C1626.24 1248.89 1615.99 1315.7 1648 1321.58C1670.01 1325.62 1704.91 1295.88 1697.16 1272C1691.33 1254.07 1667.21 1245.09 1651 1240M606 1245C599.781 1245.03 594.636 1245.51 590 1250C613.056 1242.73 619.778 1269.97 610 1287C623.727 1276.74 615.283 1264.01 613 1249C645.437 1250.28 647.496 1309.96 631.444 1329.9C620.895 1343.01 598.038 1346.31 588 1331L595 1331C577.118 1313.94 569.459 1292.46 575.822 1266C578.229 1255.99 593.867 1228.94 606 1245M910 1275C917.995 1294.66 921.127 1307.33 924 1329C899.977 1315.23 875.051 1320.94 854 1336.77C850.716 1339.24 831.293 1342.55 833.969 1348.17C835.757 1351.93 849.528 1344.88 851.922 1343.34C871.253 1330.93 885.968 1320.98 910 1327.76C929.894 1333.36 930.033 1371.43 936.704 1388C948.504 1417.31 995.934 1418.73 1019.99 1408.42C1058.2 1392.03 1011.4 1338.38 1014.71 1315C1016.9 1299.52 1036.21 1288.86 1039.62 1273C1042.03 1261.79 1042.75 1245.04 1028 1242.48C990.411 1235.95 1011.84 1298.05 1008.42 1311.88C1004.43 1328 973.068 1338.43 959 1340.89C922.107 1347.32 932.733 1317.03 925.269 1295C922.555 1286.99 919.519 1275.91 910 1275M1013 1306C1009.23 1294.09 1002.85 1242.24 1028 1249.03C1051.97 1255.51 1023.41 1298.31 1013 1306M1682 1285C1682.04 1270.39 1674.74 1264.1 1671 1251C1714.11 1270.7 1678.44 1332.09 1643.02 1314.59C1620.4 1303.42 1636.36 1241.14 1662.77 1250.13C1677.61 1255.18 1674.35 1275.49 1682 1285M509 1251C511.2 1252.2 513.03 1253.45 515 1255C511.804 1255.4 509.51 1254.31 509 1251M495.783 1253.56C515.844 1252.23 529.904 1273.24 529.997 1291C530.131 1316.43 512.71 1344.22 485 1345.68C465.825 1346.7 458.202 1321.18 457.136 1306C456.305 1294.15 454.779 1273.11 466.263 1265.29C470.282 1262.56 474.814 1265.68 478.503 1263.56C484.279 1260.26 485.983 1254.21 495.783 1253.56M504 1259C504.698 1262.88 506.756 1263.13 509 1260L504 1259M1661 1277C1653.76 1294.01 1664.78 1291.94 1663 1277L1661 1277M1010 1319C1017.15 1339.47 1037.86 1373.65 1027.88 1395.96C1015.31 1424.03 960.05 1408.92 944.468 1392.93C934.706 1382.91 929.539 1354.72 928 1341C957.929 1346.27 986.303 1345.55 1008 1319L1010 1319M1327 1443C1310.14 1452.58 1309.38 1406.86 1307.94 1395C1307.61 1392.23 1307.4 1379.64 1303.23 1379.64C1298.5 1379.64 1303.68 1393.8 1303.88 1396.04C1305.44 1413.73 1307.18 1429.05 1314.02 1445.72C1316.71 1452.28 1326.16 1448.99 1327 1443M1251 1381C1250.01 1385.14 1250.18 1387.73 1253 1391L1253 1381L1251 1381M549 1502L552 1503L549 1502M568.667 1506.33C568.222 1506.78 569.278 1506.72 569.333 1506.67C569.778 1506.22 568.722 1506.28 568.667 1506.33M603 1538C596.96 1546.95 578.997 1542.62 569 1547.29C551.462 1555.48 544.805 1570.96 530.543 1582.22C527.828 1584.37 514.111 1589.74 511.323 1586.34C509.847 1584.54 539.273 1574.22 536.457 1566.9C531.485 1553.99 519.542 1556.2 509 1556.1C483.276 1555.85 463.426 1562.57 443.144 1579.18C412.467 1604.3 419.354 1669.55 449.32 1692.12C463.18 1702.55 484.497 1699.45 496.889 1709.64C511.044 1721.29 493.201 1749.77 519 1748.68C540.709 1747.76 554.559 1733.14 558.462 1713C559.777 1706.22 551.553 1680.8 563.941 1681.49C570.488 1681.86 570.493 1694.23 571.242 1699C574.753 1721.36 579.626 1735.28 594 1753L590 1753C594.833 1763.91 607.738 1757.46 596 1751C608.163 1743.65 620.567 1743.01 631.261 1731.73C644.026 1718.26 646.666 1676.31 648 1657C650.527 1657.36 652.484 1657.41 655 1657C644.438 1641 652.14 1614.2 644.401 1594C640.067 1582.68 634.785 1567.22 626.581 1558.16C618.795 1549.56 607.635 1549.02 603 1538M909 1603C921.133 1599.26 922.134 1608.57 922.864 1619C923.878 1633.49 916.814 1663.58 939 1664.9C973.564 1666.97 987.727 1636.73 1000.13 1609.02C1002.12 1604.58 1007.18 1603.53 1009.18 1599.55C1019.16 1579.69 1009.16 1559.74 991.048 1550.38C965.582 1537.21 941.454 1546.3 923.596 1568.92C918.661 1575.18 915.84 1586.12 910.264 1591.18C906.434 1594.65 899.586 1592.33 895 1594.62C887.681 1598.28 883.071 1606.01 875.72 1609.81C869.724 1612.92 856.065 1603.64 849 1603.1C834.853 1602.02 802.134 1598.51 790.678 1608.32C779.729 1617.7 781.366 1642.72 783.158 1655.02C784.413 1663.63 783.375 1674.08 787.564 1681.97C794.138 1694.35 824.16 1691.04 833.997 1684.65C838.997 1681.41 841.958 1675.17 846.985 1672.34C850.556 1670.33 860.018 1679.8 862.239 1675.39C863.095 1673.68 854.576 1667.79 855.467 1663C858.373 1647.39 866.301 1632.33 874.596 1618.93C878.319 1612.91 905.007 1586.63 909 1603M967.001 1546.01C973.2 1545.35 983.259 1550.33 988.217 1553.89C1021.69 1577.91 1001.01 1595.45 987.678 1625C982.758 1635.91 971.629 1657.14 957.997 1658.85C919.158 1663.72 929.665 1638.42 926.842 1610C926.063 1602.16 916.614 1598.76 915.979 1592.61C913.911 1572.57 949.983 1547.84 967.001 1546.01M626 1568C621.425 1566.43 590.541 1581.32 609.974 1564.81C612.451 1562.71 614.356 1560.79 616 1558C608.955 1559.18 587.217 1556.07 603 1555C598.901 1553.07 592.793 1552.34 593 1547C605.173 1551.23 622.347 1553.23 626 1568M577 1558C585.743 1542.59 589.415 1557.1 577 1558M479 1549L479 1552C480.797 1552 480.522 1551.99 482 1551L479 1549M577 1549C575.129 1552.86 573.357 1554.41 569 1554C571.068 1550.9 573.351 1549.62 577 1549M2022 1553.67C1996.6 1558.05 2003.75 1590.32 2009.85 1606C2011.81 1611.06 2017.91 1622.77 2011.63 1626.74C2007.4 1629.41 2002.96 1626.3 1998.78 1625.39C1973.23 1619.84 1977.95 1604.16 1962.36 1589.54C1957.96 1585.42 1950.04 1589.9 1947.46 1594.19C1939.59 1607.27 1952.92 1617.82 1948.96 1628.86C1946.47 1635.8 1935.72 1640.75 1932.21 1649.01C1920.27 1677.06 1910.61 1749.21 1959 1742.75C1979.47 1740.01 1983.57 1721.06 1990.77 1705C1992.62 1700.88 1992.27 1694.12 1996.35 1691.48C2004.13 1686.45 2017.98 1703.46 2029.78 1700.58C2036 1699.07 2045.97 1689.97 2042.11 1683.01C2032.19 1665.09 1996.35 1660.46 1979.04 1667.92C1973.52 1670.3 1970.95 1677.29 1965.02 1678.86C1959.56 1680.3 1953.34 1673.21 1954.17 1668.02C1955.84 1657.61 1974.03 1651.82 1983 1652.4C1990.81 1652.91 1996.61 1659.16 2004 1660.96C2016.59 1664.02 2031.24 1652.59 2038.1 1643.14C2050.07 1626.68 2049.04 1590.83 2042.55 1572.32C2039.86 1564.64 2031.56 1552.02 2022 1553.67M543 1579L542 1578C543.558 1574.62 563.952 1549.85 567.239 1557.83C569.093 1562.33 546.761 1576.72 543 1579M149 1724C148.301 1735.67 144.06 1753.97 152.232 1763.76C170.165 1785.23 191.842 1751.26 192 1735L194 1735C194 1760.65 213.921 1766.54 228.491 1744C239.529 1726.92 230.981 1699.21 234.94 1680.28C235.994 1675.23 244.81 1674.86 247 1669C224.894 1671.93 238.922 1639.31 235.475 1622C227.799 1583.46 212.568 1553.13 168.008 1560.37C155.78 1562.36 159.003 1576.12 150.642 1580.18C137.524 1586.55 118.983 1585.06 105 1592.22C89.1063 1600.36 85.3023 1622.86 84.137 1639C82.3528 1663.71 88.7177 1732.51 122 1734.68C132.242 1735.34 140.572 1728.64 149 1724M584 1560C589.088 1561.34 585.343 1565.09 584 1560M1954 1657C1954.54 1652.93 1955.86 1649.12 1956 1645C1945.98 1654.89 1942.94 1682.6 1962 1683.67C1970.27 1684.13 1974.61 1675.29 1981.22 1671.93C1992.12 1666.38 2038 1669.09 2038 1687.29C2038 1709.28 2000.5 1683.35 1992.15 1688.74C1987.37 1691.83 1986.58 1702.64 1984.78 1708C1979 1725.2 1952.28 1756.67 1933.71 1731.94C1922.19 1716.59 1925.49 1669.23 1933.88 1653C1938.43 1644.19 1949.82 1638.08 1953.04 1629.91C1956.04 1622.31 1939.75 1594.04 1956.87 1591.53C1960.72 1590.96 1965.17 1606.89 1967.05 1610C1974.37 1622.12 1997.55 1639.46 2012.94 1631.6C2034.23 1620.72 1984.64 1566.01 2022 1560.55C2032.79 1558.98 2038.04 1570.39 2039.4 1579C2042.23 1596.9 2045.69 1627.37 2033.62 1642.56C2015.52 1665.34 2003.7 1648.07 1983 1647.7C1971.19 1647.49 1964.63 1654.32 1954 1657M516 1562L513 1563L516 1562M594 1567C595.81 1561.02 600.164 1565.19 594 1567M503 1563C501.25 1563.64 499.873 1563.86 498 1564C499.75 1563.36 501.127 1563.14 503 1563M523 1564C519.834 1567.84 516.968 1569.53 512 1570C514.043 1565.16 517.868 1563.15 523 1564M196 1564.6C228.479 1567.52 231.564 1620.03 231.533 1643C231.524 1649.39 232.726 1667.21 228.74 1672.19C225.076 1676.76 212.153 1675.22 207 1674.86C162.602 1671.76 142.073 1645.64 155.82 1602.29C157.228 1597.86 163.974 1597.69 165.937 1592.92C168.698 1586.21 157.57 1584.59 156.876 1579C154.675 1561.28 185.682 1563.68 196 1564.6M499 1565C492.187 1572.02 477.586 1578.97 468 1581C474.689 1573.44 488.969 1566.18 499 1565M508 1565L508 1567L505 1567L505 1565L508 1565M582 1565C580.518 1570.29 576.088 1573.85 574 1579C570.731 1572.75 575.933 1566.67 582 1565M531 1566C528.544 1569.97 525.378 1571.59 521 1573C523.382 1568.7 526.103 1566.63 531 1566M636 1597C633.506 1592.31 620.719 1577.13 625.357 1572.03C630.442 1566.43 635.938 1593.97 636 1597M470 1571C468.457 1572.27 467.952 1572.49 466 1573C467.543 1571.73 468.048 1571.51 470 1571M512 1572C508.891 1575.69 501.695 1576.48 497 1577C500.625 1571.74 506.118 1572.01 512 1572M568 1572C567.231 1583.11 557.93 1596.4 547 1599C552.028 1590.8 559.513 1576.71 568 1572M465 1573C459.353 1582.52 441.145 1601.96 431 1607C434.902 1591.33 450.421 1578.35 465 1573M617.667 1576.67C617.722 1576.72 617.778 1577.78 617.333 1577.33C617.278 1577.28 617.222 1576.22 617.667 1576.67M602 1615C608.846 1616.49 615.317 1617.76 622 1620C619.686 1614.75 621.033 1603.41 615 1604C616.569 1600.54 618.028 1597.84 618 1594C611.904 1607.61 605.624 1584.64 607.396 1581.12C611.112 1573.73 616.303 1585.16 618.056 1587.79C625.026 1598.23 635.022 1633 611.001 1620.77C607.709 1619.09 604.312 1617.91 602 1615M556 1578C549.801 1596.17 539.295 1587.79 556 1578M593 1587C588.585 1574.53 602.257 1581.27 593 1587M1390 1659C1389.1 1648.45 1383.26 1651.48 1376 1655C1381.83 1625.28 1365.03 1587.04 1332 1579.51C1299.64 1572.13 1249.87 1591.7 1250.87 1630.7C1251.09 1638.98 1260.56 1615.43 1261.3 1613C1265.64 1598.75 1278.27 1591.56 1291.96 1587.4C1323.8 1577.72 1352.65 1588.24 1369.72 1619.22C1384.64 1646.3 1363.82 1678.31 1336 1682.98C1326.18 1684.62 1314.48 1682.06 1305 1679.14C1276.9 1670.49 1267.84 1637.69 1237 1635.23C1220.05 1633.87 1202.93 1647.46 1192.09 1659C1188.77 1662.52 1180.17 1670.9 1184.83 1676.19C1186.61 1678.2 1190.4 1679.02 1191.9 1676.26C1200.41 1660.54 1208.57 1641.36 1232 1640.18C1255.98 1638.98 1265.19 1657.57 1281.32 1671.33C1292.66 1681 1313.1 1688.04 1328 1688.63C1339.52 1689.08 1355.42 1683.4 1364 1675.82C1372.21 1668.55 1377.6 1654.32 1390 1659M537 1580L536 1581L537 1580M467 1581L466 1585C465.73 1583.09 465.94 1582.65 467 1581M500 1581C486.299 1592.17 459.678 1602.36 442 1603C454.633 1592.84 483.709 1581.34 500 1581M463 1583C462.422 1585.7 461.739 1585.79 459 1586C460.45 1584.39 461.051 1583.94 463 1583M570 1583C569.456 1584.89 568.904 1586.24 568 1588C567.938 1585.66 568.499 1584.82 570 1583M186 1600C189.56 1597.79 191.88 1591.3 196.127 1590.85C215.545 1588.79 226.393 1620.55 223.572 1635C221.236 1646.97 197.598 1658.9 187.784 1648.52C178.257 1638.44 183.449 1619.16 185.662 1607.73C186.261 1604.64 183.199 1602.48 180.49 1604.27C175.744 1607.41 178 1620.09 178 1625C178 1634.09 177.257 1647.75 185.447 1654.07C203.132 1667.71 229.472 1646.89 228.903 1628C228.698 1621.17 227.255 1614.3 224.62 1608C219.045 1594.67 186.676 1573.09 186 1600M138 1587.46C165.521 1582.66 144.596 1622.62 146.404 1639C149.428 1666.4 173.046 1692.93 146.805 1718.79C141.915 1723.61 138.609 1717.91 135.979 1719.63C130.984 1722.9 135.089 1727.94 125 1729.47C99.3197 1733.38 95.0906 1694.15 92.9417 1677C89.922 1652.89 80.8435 1614.1 105.008 1597.5C114.353 1591.09 127.086 1589.36 138 1587.46M457 1588C455.365 1589.84 454.163 1590.83 452 1592C453.453 1589.7 454.459 1589 457 1588M159 1589C159.449 1592.31 158.815 1593.21 156 1595C156.785 1592.68 157.553 1590.96 159 1589M582.667 1589.67C582.722 1589.72 582.778 1590.78 582.333 1590.33C582.278 1590.28 582.222 1589.22 582.667 1589.67M626 1589C627.466 1591.38 628.346 1593.29 629 1596C626.975 1593.72 625.866 1592.08 626 1589M539.667 1590.67C539.722 1590.72 539.778 1591.78 539.333 1591.33C539.278 1591.28 539.222 1590.22 539.667 1590.67M582 1595C581.782 1600.07 583.802 1604.17 585 1609C579.18 1605.62 573.478 1598.71 582 1595M497 1596C496.346 1599.05 494.993 1598.94 492 1599C493.686 1597.53 494.913 1596.81 497 1596M595 1598C592.908 1597.59 592.98 1597.78 592 1596L595 1598M637 1598C639.39 1601.48 647.501 1626.19 643.451 1628.03C630.511 1633.93 631.279 1606.3 631 1600C633.951 1601.46 634.853 1602.93 636 1606C636.355 1603.3 636.285 1600.62 637 1598M523 1599C521.144 1604.07 517.734 1605.84 513 1608C514.895 1607.84 516.177 1607.57 518 1607C517.837 1610.9 516.611 1612.53 513 1614C511.857 1609.53 509.321 1609.15 505 1609C506.909 1603.55 517.704 1600.51 523 1599M573 1599L572 1600L573 1599M539 1606C529.445 1607.37 531.645 1597.19 539 1606M483 1601C475.079 1610.52 468.854 1613.56 457 1614C462.434 1605.58 474.39 1605.13 483 1601M463 1602C458.873 1607.56 439.86 1618.98 436 1608C445.84 1607.91 453.61 1603.26 463 1602M568 1602C572.641 1605.76 576.919 1610.88 580 1616C574.57 1613.75 568.545 1608.13 568 1602M588 1603.33L588.333 1603.67C587.84 1603.83 587.227 1603.33 588 1603.33M610 1603L612 1611L608 1611C608.519 1608.25 608.987 1605.6 610 1603M496 1604C491.755 1609.62 480.863 1617.56 474 1619C478.242 1611.05 486.98 1604.98 496 1604M549 1605C546.724 1608.51 544.881 1611.24 541 1613C541.2 1607.26 542.917 1604.47 549 1605M526 1606L524 1609L524 1606L526 1606M568 1613C564.322 1611.54 562.718 1609.53 561 1606C565.547 1606.64 566.973 1608.62 568 1613M813 1608.32C824.691 1607.1 861.051 1603.35 868.713 1614.78C872.482 1620.41 861.315 1633.91 858.777 1639C845.17 1666.31 839.042 1682.02 806 1684.63C787.558 1686.09 788.308 1668.8 786.801 1655C784.128 1630.52 786.1 1611.13 813 1608.32M504 1614L494 1615C497.404 1610.9 500.694 1608.71 504 1614M526 1616C519.591 1615.06 523.584 1610.06 526 1616M554 1612.33C554.773 1612.33 554.16 1612.83 553.667 1612.67L554 1612.33M539 1617C535.806 1616.64 534.737 1616.18 534 1613C536.675 1613.9 537.553 1614.58 539 1617M585 1613C588.371 1615.62 590.763 1618.37 593 1622C588.216 1621.28 584.823 1618.03 585 1613M429 1625C429.342 1611.49 441.458 1620.84 429 1625M476.667 1616.33C476.222 1616.78 477.278 1616.72 477.333 1616.67C477.778 1616.22 476.722 1616.28 476.667 1616.33M491 1616C489.335 1618.8 488.055 1619.88 485 1621C486.36 1617.99 487.92 1617.11 491 1616M570 1616C571.844 1617.64 572.827 1618.84 574 1621C572.081 1619.81 570.638 1618.57 569 1617L570 1616M549 1620C546.338 1620.59 544.662 1620.59 542 1620C544.728 1617.94 546.532 1617.41 549 1620M510 1623C508.642 1621.34 507.849 1619.98 507 1618C509.985 1619 510.296 1619.89 510 1623M1640 1618.96C1624.23 1618.71 1619.05 1633.54 1607.22 1635.95C1599.43 1637.53 1590.92 1629.52 1582 1631.98C1557.63 1638.69 1560.67 1670.8 1575.5 1685.68C1583.68 1693.89 1597.63 1698.51 1609 1698.96C1614.06 1699.15 1627.17 1696.56 1631.02 1700.26C1633.86 1702.98 1629.93 1711.71 1629.28 1715C1626.42 1729.58 1615.75 1761.58 1643.9 1760.73C1653.95 1760.42 1657.36 1738.36 1659.34 1730.86C1666.74 1702.78 1659.03 1673.65 1654.52 1646C1652.99 1636.67 1654.32 1619.19 1640 1618.96M521 1620C522.297 1621.59 522.535 1622.02 523 1624C520.351 1623.43 519.645 1622.41 521 1620M569 1624C562.606 1626.17 554.078 1625.62 549 1621C555.53 1619.61 562.723 1622.06 569 1624M468.667 1621.67C468.722 1621.72 468.778 1622.78 468.333 1622.33C468.278 1622.28 468.222 1621.22 468.667 1621.67M495 1621.33C495.889 1621.33 495.889 1622.67 495 1622.67C494.111 1622.67 494.111 1621.33 495 1621.33M529 1622C539.154 1625.64 530.04 1632.88 529 1622M613 1630C599.354 1628.03 608.798 1619.18 613 1630M1638.99 1623.68C1651.33 1624.18 1648.38 1640.45 1650.06 1648.04C1655.66 1673.34 1659.57 1700.05 1655.65 1726C1654.69 1732.29 1651.14 1755.11 1642.94 1754.69C1620.28 1753.52 1630.95 1723.64 1634.04 1711C1634.88 1707.55 1638.72 1699.54 1635.26 1696.71C1629.49 1691.99 1619.63 1695.11 1613 1694.95C1601.25 1694.68 1587.05 1690.92 1578.4 1682.49C1566.41 1670.82 1562.36 1632.49 1588.04 1635.42C1605.34 1637.39 1601.45 1642.6 1599.47 1654.99C1599.02 1657.84 1599.93 1662.38 1603.88 1661.03C1608.85 1659.33 1610.05 1644.59 1611.72 1640C1615.62 1629.29 1628.05 1623.24 1638.99 1623.68M512 1625C516.065 1626.77 518.954 1627.92 521 1632C517.117 1630.75 512.956 1629.32 512 1625M627.667 1625.67C627.722 1625.72 627.778 1626.78 627.333 1626.33C627.278 1626.28 627.222 1625.22 627.667 1625.67M592 1635C585.621 1634.01 576.885 1632.53 573 1627C579.239 1627.31 588.017 1629.99 592 1635M555 1631C556.939 1638.56 578.038 1642.86 585 1646C575.299 1647.6 550.465 1642.8 540.953 1640.33C537.279 1639.38 533.486 1635.14 536.916 1631.67C539.231 1629.33 550.015 1632.85 555 1631M605 1639C610.059 1641.09 612.585 1643.67 614 1649C595.387 1646.53 579.369 1640.32 563 1631C573.874 1627.86 597.685 1647.71 605 1639M642 1639C632.864 1640.63 618.747 1640.4 612 1633C620.826 1631.3 635.226 1632.88 642 1639M602 1637C599.48 1637.53 598.574 1637.01 597 1635C598.871 1635.52 600.313 1636.06 602 1637M531 1642C527.902 1641.94 525.03 1641.65 522 1641C524.988 1636.9 528.35 1638.18 531 1642M632 1645L632 1643C645.731 1642.74 645.953 1647.63 632 1645M616 1643C619.495 1644.79 622.587 1647.12 626 1649.03C628.528 1650.44 631.223 1651.09 633.999 1651.82C655.504 1657.41 616.203 1657.84 616 1643M584 1654C576.33 1656.23 561.082 1653.44 556 1647C565.735 1649.07 575.128 1649.03 584 1654M509 1649C507.857 1651.91 506.913 1652.86 504 1654C504.52 1650.45 505.445 1649.52 509 1649M580 1672C569.656 1664.9 549.586 1659.65 543 1649C559.128 1652.8 571.289 1662.63 588 1665.17C590.553 1665.56 599.974 1666.25 598.19 1670.63C595.229 1677.9 585.535 1669.49 580 1672M433 1650C443.026 1661.43 452.538 1669.9 457 1685C442.223 1687.32 428.962 1663.96 433 1650M531 1654L531 1656L528 1656L528 1654L531 1654M632 1661C624.086 1660.37 616.939 1656.55 609 1656L609 1654C615.707 1654.43 627.312 1655.89 632 1661M580 1660C576.527 1659.03 574.201 1657.89 572 1655C575.664 1655.84 577.858 1656.88 580 1660M487 1659.33C487.889 1659.33 487.889 1660.67 487 1660.67C486.111 1660.67 486.111 1659.33 487 1659.33M596 1659C601.374 1659 618.74 1660.12 620 1666C611.422 1665.12 603.405 1661.79 595 1660L596 1659M512 1662C513.074 1666.41 512.625 1669.78 511 1674C507.542 1669.84 508.812 1666 512 1662M640 1663C637.586 1664.1 636.694 1664.04 635 1662L640 1663M641 1665C642.613 1671.89 641.904 1681.55 635 1685C634.575 1678.22 635.888 1669.71 641 1665M161 1667C177.695 1669.95 191.445 1678.22 209 1679.78C213.498 1680.18 225.499 1677.06 228.74 1680.26C231.991 1683.48 230.009 1694.73 229.999 1699C229.961 1715.04 230.183 1751.96 208.019 1754.04C195.952 1755.18 196.049 1729.9 196.003 1722C195.992 1720.16 197.04 1710.64 193.922 1710.64C190.57 1710.64 189.925 1722.61 189.509 1725C187.813 1734.72 172.919 1787.24 154.247 1759.76C137.922 1735.72 166.875 1694.38 161 1667M633 1671C629.197 1670.79 625.734 1669.61 622 1669L622 1667C626.601 1667.11 629.665 1667.71 633 1671M629 1676C620.43 1687.13 574.356 1682.29 608 1675C606.33 1673.36 605.18 1672.01 604 1670C614.384 1670 619.567 1672.76 629 1676M571 1677C567.92 1675.89 566.36 1675.01 565 1672C567.916 1673.1 569.359 1674.35 571 1677M1958 1672L1957 1673L1958 1675L1960 1674C1959.45 1672.36 1959.64 1672.55 1958 1672M457 1673C457.214 1674.87 457.21 1676.13 457 1678C455.52 1675.75 455.52 1675.25 457 1673M591 1676C589.926 1678.43 589.202 1679.55 587 1681C588 1678.46 588.699 1677.45 591 1676M574 1678C581.268 1683.47 586.368 1706.66 581 1714C576.937 1707.2 572.721 1685.77 574 1678M457 1689C459.562 1691.97 461.304 1692.77 465 1694C461.255 1694.68 456.797 1693.39 457 1689M501 1701C493.572 1691.11 504.721 1686.29 501 1701M509 1691C510.142 1694.96 510.752 1698.89 511 1703C505.756 1700.92 506.858 1695.34 509 1691M553 1692C557.053 1708.02 555.489 1731.75 537 1737C541.058 1730.11 546.824 1724.15 548.455 1716C549.949 1708.54 546.678 1697.55 553 1692M606.477 1694.3C610.812 1695.35 605.283 1700.72 602.324 1700.26C597.554 1699.51 603.053 1693.47 606.477 1694.3M469 1695L466 1696L469 1695M596 1701L593 1702L596 1701M510 1708L511 1716C508.576 1713.16 508.073 1711.28 510 1708M400 1713C401.176 1712.23 401.227 1712.18 402 1711C400.365 1711.55 400.545 1711.36 400 1713M530 1716L525 1716C526.49 1712.31 528.717 1712.06 530 1716M599 1712C601.404 1714.23 602.867 1715.93 604 1719C599.619 1718.39 597.664 1716.47 599 1712M585 1714C587.944 1716.04 589.19 1717.5 590 1721C586.921 1719.23 584.5 1717.8 585 1714M586 1725L586 1728L584 1728L584 1725L586 1725M604 1732C599.528 1732 595.05 1732.69 592 1729C596.538 1729 600.803 1728.38 604 1732M527 1734L530 1742C522.38 1742.78 516.629 1743.16 509 1742C513.2 1736.04 520.306 1735.59 527 1734M593 1737C595.971 1737.28 613.388 1736.12 614.239 1737.83C616.389 1742.15 596.874 1744.84 593 1737M1655 1855.52C1609.49 1858.31 1598.16 1896.18 1613.11 1936C1617.4 1947.44 1628.95 1957.5 1631.69 1969C1633.14 1975.11 1626.54 1982.86 1625.39 1989C1623.71 1997.92 1627.95 2002.71 1628.86 2011C1630.55 2026.31 1622.82 2078.33 1649 2075.74C1689.96 2071.68 1676.51 2014.82 1659.88 1993.54C1655.07 1987.38 1639.96 1976.83 1639.44 1968.92C1639.03 1962.68 1649.5 1950.72 1653.16 1945.78C1666.15 1928.23 1705.67 1852.41 1655 1855.52M1655 1860.34C1671.98 1858.92 1675.73 1872.01 1674.2 1886C1671.69 1909.03 1663.13 1927.74 1648.62 1945.68C1644.99 1950.17 1641.34 1963.6 1634.9 1964.68C1632.18 1965.13 1629.97 1958.08 1628.74 1956.32C1621.49 1946.03 1617 1936.31 1614.35 1924C1606.46 1887.28 1615.49 1863.65 1655 1860.34M895 1861C899.014 1928.21 891.253 1998.5 890 2066C911.834 2045.06 912.513 2004.1 934 1983C942.245 2017.23 949.287 2053.48 959.806 2087C963.53 2098.86 968.37 2115.26 983 2116C980.153 2109.6 972.171 2107.36 968.926 2100C958.015 2075.24 956.462 2045.97 949.063 2020C945.611 2007.88 936.723 1989.48 937.617 1977C938.057 1970.86 943.958 1964.2 946.973 1959C955.571 1944.17 966.242 1920.41 981 1911C979.2 1924.43 968.371 1933.59 967 1946C979.698 1936.91 984.594 1918.68 986 1904C965.04 1909.8 942.437 1951.12 937 1971C921.675 1954.72 915.679 1913.52 909.895 1892C907.539 1883.23 904.043 1864.84 895 1861M1251 1984L1252 1983C1246.75 1973.79 1238.65 1966.36 1234 1957C1247.61 1959.92 1266 1960.87 1280 1961C1277.02 1976.19 1277.99 1989.71 1278 2005C1284.6 1995.8 1282.59 1973.32 1283 1962C1288.21 1965.75 1285.03 1973.32 1285 1979C1284.94 1990.55 1289.65 2031.86 1281 2039C1282.17 2043.67 1281.94 2067.65 1287.19 2068.68C1289.91 2069.21 1288 2047.16 1288 2044C1288 2018.36 1293.98 1989.21 1290 1964C1316.66 1967.53 1343.28 1964.04 1370 1964C1362.81 1954.04 1343.23 1965.41 1333 1959C1325.9 1962.55 1294.99 1964.65 1291.86 1955.77C1289.44 1948.91 1292.71 1938.19 1292.96 1931C1293.76 1907.84 1297.62 1885.09 1299 1862C1292.82 1864.7 1293.21 1874.06 1292.02 1880C1288.38 1898.17 1285.59 1916.65 1283 1935C1282.36 1939.57 1283.02 1951.73 1279.18 1954.72C1271.22 1960.93 1236.34 1942.84 1230.62 1955.8C1227.81 1962.17 1247.13 1979.18 1251 1984M898 1873C913.298 1890.86 914.93 1927.91 923.033 1949.96C925.968 1957.95 933.299 1970.41 931.418 1979C926.184 2002.9 905.208 2033.6 893 2055C888.268 2040.47 896.116 2011.93 896.922 1996C898.885 1957.23 888.237 1910.65 898 1873M155 2020C157.876 2001.05 164.464 1981.6 174.032 1965C180.672 1953.48 193.209 1939.72 194.251 1926C196.158 1900.87 169.497 1901.35 156.079 1914.16C142.25 1927.35 146.718 1939.07 146.941 1956C147.028 1962.59 145.474 1971.29 139.48 1975.23C133.858 1978.94 119.288 1966.18 111 1967.41C84.3183 1971.37 38.3012 2012.93 56.1189 2043C63.3134 2055.14 85.4377 2077.42 101 2075.74C112.832 2074.47 123.235 2061.8 135.99 2066.94C143.685 2070.04 144.798 2080.27 150.239 2085.88C165.21 2101.33 193.005 2113.17 213.974 2102.92C224.27 2097.89 224.615 2079.78 228.237 2070C237.945 2043.78 248.154 2017.89 255.581 1991C258.679 1979.78 265.073 1967.14 257.912 1956C253.439 1949.05 242.654 1941.16 234 1945.39C204.399 1959.85 180.633 1998.92 155 2020M159 2029C157.01 2018.17 173.171 2009.81 180 2003C194.932 1988.1 234.552 1930.23 255.036 1958.44C262.456 1968.66 254.711 1979.94 251.907 1990C244.556 2016.38 234.624 2041.39 224.824 2067C221.656 2075.28 220.571 2094.4 211.895 2098.21C191.8 2107.05 167.746 2097.76 153.199 2082.82C146.613 2076.06 147.41 2066.21 136.999 2062.92C122.619 2058.38 113.217 2070.1 100 2071.53C89.5499 2072.67 73.0734 2058.4 66.3941 2051.28C39.5505 2022.66 78.1578 1976.59 109 1971.52C119.574 1969.78 134.52 1984.73 141.919 1978.69C160.082 1963.85 142.841 1941.16 151.825 1924.08C157.637 1913.03 173.448 1903.14 183.97 1912.37C191.708 1919.16 190.595 1927.36 186.661 1936C177.113 1956.97 165.66 1976.31 156.784 1997.68C153.17 2006.38 145.299 2025.87 159 2029M687 1917L687 1921L689 1921L689 1917L687 1917M331 1932C328.601 1920.82 319.417 1926.38 331 1932M1289 1925C1288.96 1935.7 1287.02 1946.29 1287 1957L1284 1957C1284.35 1947.15 1285.17 1934.12 1289 1925M1992 2044C1988.28 2031.78 1976.14 2029.91 1970.01 2042C1960.56 2060.66 1961.74 2094.98 1976.8 2110.58C1998.67 2133.23 2008.73 2078.73 2010.55 2067C2011.21 2062.75 2005.94 2056.34 2008.17 2052.91C2012.77 2045.79 2020.35 2052.72 2023.05 2057.01C2031.02 2069.71 2030.99 2075.75 2030 2090C2034.67 2088.02 2040.52 2070.31 2044.37 2072.32C2047.38 2073.9 2046.92 2079.26 2046.67 2082C2045.74 2092.14 2044.14 2103.53 2051.35 2111.95C2054.67 2115.84 2063.34 2120.67 2067.74 2115.19C2070.82 2111.35 2069 2101.66 2069 2097C2069 2080.61 2067.36 2065.22 2066.13 2049C2065.4 2039.21 2062.15 2028.75 2063.24 2019C2066.53 1989.47 2085.95 1941.4 2041 1929.38C2033.81 1927.46 2025.4 1927.9 2018 1928.06C1977.9 1928.96 1970.14 1993.17 1983.01 2021C1989.18 2034.36 2002.44 2048.61 2005.47 2063C2007.26 2071.51 1998.14 2107.49 1988.99 2108.79C1965.35 2112.16 1961.34 2046.25 1979.15 2039.35C1984.03 2037.45 1987.6 2042.94 1992 2044M2012.32 1932.77C2032.46 1925.13 2059.86 1940.67 2065.51 1961C2070.93 1980.52 2062.55 1996.19 2059.41 2015C2057.07 2029.01 2060.52 2045.98 2062.6 2060C2064.54 2073.03 2063.42 2085.9 2064.08 2099C2064.23 2102.03 2066.74 2110.56 2062.5 2111.86C2045.03 2117.21 2055.38 2073.33 2047.64 2067.87C2043.1 2064.68 2038.82 2071.45 2034.95 2068.9C2027.75 2064.15 2029.47 2049.73 2020.87 2045.94C2014.68 2043.21 2005.36 2049.57 2000.72 2044.58C1975.3 2017.24 1971.4 1948.31 2012.32 1932.77M518 2036C516.079 2023.99 518.567 2012.18 515.626 2000C512.243 1985.99 493.734 1955.72 477.755 1977.03C460.465 2000.08 463.632 2031.74 458.283 2058C455.428 2072.01 448.978 2087 456.022 2100.98C462.7 2114.23 495.428 2115 509 2116.03C527.505 2117.45 542.038 2112.82 560 2110.3C595.47 2105.32 650.573 2109.32 654.574 2060C655.254 2051.62 646.548 2046.47 640 2043.29C623.351 2035.2 598.657 2047.27 582 2051.81C577.891 2052.92 565.683 2060.24 562.267 2056.16C558.896 2052.13 562.965 2039.72 563.813 2035C566.379 2020.72 572.569 1950.83 542.927 1980.76C540.417 1983.29 538.076 1985.97 536.195 1989.01C532.576 1994.86 529.452 2001.55 527.073 2008C523.699 2017.14 520.757 2026.66 518 2036M1647 1988C1639.84 1994.73 1633.89 1992.78 1631 2004L1629 2004C1627.92 1999.69 1629.57 1971.11 1637.72 1974.54C1653.01 1980.98 1665.64 2007.93 1669.66 2023C1672.84 2034.93 1673.39 2052.73 1665.24 2062.82C1659.31 2070.15 1643.61 2076.82 1637.92 2065.85C1630.85 2052.19 1629.7 2019.57 1634.23 2005C1636.65 1997.18 1648.56 1996.61 1647 1988M517 2066C522.066 2059.83 519.182 2051.4 520.303 2044C522.644 2028.54 535.19 1978.75 554.853 1977.42C560.706 1977.03 561.565 1991.79 562.24 1996C564.693 2011.32 559.644 2027.84 557.581 2043C556.932 2047.77 554.39 2057.28 557.386 2061.48C561.439 2067.17 576.961 2058.57 581.68 2056.53C608.057 2045.08 670.142 2037.66 641.363 2083.86C632.416 2098.23 608.913 2099.06 594 2102.61C561.841 2110.29 520.889 2116.37 489 2106.48C481.617 2104.18 471.762 2109.51 465.397 2104.19C455.887 2096.26 457.356 2081.77 458 2071C459.473 2071.48 466.541 2075.54 466.563 2072.06C466.758 2041.41 461.997 2011.52 478.987 1982.02C484.227 1972.92 497.961 1974.44 504.218 1982.2C511.617 1991.37 512.999 2007.73 513 2019C513.001 2034.42 512.317 2051.22 517 2066M1271.33 2016.67C1271.28 2016.72 1271.22 2017.78 1271.67 2017.33C1271.72 2017.28 1271.78 2016.22 1271.33 2016.67M1272.33 2019.67C1272.28 2019.72 1272.22 2020.78 1272.67 2020.33C1272.72 2020.28 1272.78 2019.22 1272.33 2019.67M1274 2022C1275.35 2027.51 1277.33 2032.99 1280 2038C1281.44 2032.15 1278.14 2025.98 1274 2022z"/>
</svg>
