<?xml version="1.0" standalone="yes"?>
<svg xmlns="http://www.w3.org/2000/svg" width="2200" height="2200">
<path style="fill:#0e0e0e; stroke:none;" d="M175 68C165.176 55.1296 163.344 51.6555 152 68C145.503 58.7957 136.351 64.9783 133.76 74C129.819 87.7266 134.8 103.719 138 117C126.93 113.962 109.662 111.069 99.1363 117.306C72.9461 132.823 70.8698 190.207 83.8307 214C92.2826 229.516 109.507 250.522 128.999 238.503C144.349 229.038 150.724 206.736 154.081 190C155.219 184.325 155.706 167.603 160.501 164.26C164.861 161.22 172.589 162.81 177.68 160.577C194.068 153.391 206.33 136.222 210 119C206.022 118.798 200.618 118.154 200.777 112.949C201.304 95.6414 212.561 80.2971 206.749 62C199.033 37.7092 179.127 50.6292 175 68M147 175C158.103 194.507 134.797 251.416 106.019 234.592C74.5353 216.186 71.1452 145.536 99.0431 122.358C106.15 116.453 135.597 114.359 140.635 124.325C142.778 128.564 137.788 134.69 137 139C155.579 122.119 129.019 93.7446 139.166 72.1477C141.609 66.948 148.456 67.2583 151.036 72.1477C153.385 76.6008 152.905 82.1455 153.019 87C153.074 89.324 157.902 106.143 159.274 99.646C160.202 95.25 152.036 56.7168 164.999 60.1057C176.324 63.0664 167.456 91.8337 179 99C179 89.5063 176.451 40.3052 196.896 55.7849C207.121 63.5269 203.934 77.3982 202.173 88.0779C196.744 121.004 181.087 137.4 156.62 158.19C150.495 163.394 158.712 174.139 147 175M1257 54C1246.12 87.7144 1245.48 123.91 1241.16 158C1238.45 179.448 1230.89 197.047 1239.03 219C1263.09 283.97 1334.26 265.409 1354.98 208C1360.85 191.743 1357.13 172.374 1350.21 157C1347.58 151.135 1339.85 143.291 1339.51 137C1338.93 125.976 1351.21 112.457 1353 101C1357.01 115.763 1342.29 145.853 1357 157C1359.45 146.938 1355.42 135.409 1356.15 125C1357.34 107.976 1362.39 91.054 1363 74C1347.68 85.9634 1349.41 117.93 1335.26 131.38C1329.86 136.512 1315.32 126.031 1309 125.797C1302.17 125.543 1276.64 131.549 1272.8 129.483C1268.22 127.017 1270.14 114.312 1269.68 110C1267.81 92.4546 1266.34 69.9827 1259 54L1257 54M1245 149C1247.05 127.919 1250.59 106.926 1254.26 86C1254.72 83.4019 1255.51 66.6433 1258.14 66.6433C1262.41 66.6433 1261.38 88.5188 1262 92C1266.89 119.353 1272.12 133.646 1245 149M1609 181C1612.92 163.87 1591.25 165.864 1581 168.583C1565.12 172.794 1555.75 188.103 1549.66 202.217C1547.09 208.158 1545.61 214.555 1545.14 221C1541.75 267.238 1588.02 266.11 1623 269.217C1639.23 270.659 1662.7 274.798 1678 268.059C1688.65 263.368 1698.82 256.03 1709 250.328C1718.1 245.235 1722.17 240.534 1726.43 231C1735.97 209.645 1738.18 179.692 1709 170.806C1691.09 165.352 1653.66 169.286 1657.22 143C1660.29 120.334 1710.4 120.9 1727 124.103C1733.94 125.442 1749.87 128.668 1754.72 121.406C1760.85 112.238 1751.67 94.1106 1743 90.1812C1734.17 86.1814 1722.48 85.8755 1713 83.8691C1694.68 79.9934 1668.08 67.6304 1649.14 78.416C1627.4 90.7876 1627.75 109.665 1624.48 132C1624 135.248 1623.74 159.049 1632.15 154.496C1633.89 153.556 1629.03 140.86 1629.01 138C1628.93 125.787 1628.9 102.111 1637.68 92.6182C1659.41 69.1191 1698.49 86.1204 1724 91.5178C1735.47 93.9451 1755.94 100.049 1749.86 116.676C1747.74 122.462 1729.72 119.663 1725 118.919C1707.31 116.127 1675.14 118.199 1660.1 128.424C1651.07 134.567 1656.24 156.66 1650.58 158.961C1641.65 162.59 1625.46 159.144 1616 158.537C1614.35 158.43 1605.64 157.176 1605.64 160.085C1605.64 166.78 1636.64 163.996 1641 164C1665.57 164.022 1733.96 171.207 1730.27 208.019C1724.2 268.363 1647.57 268.345 1604 263.438C1588.14 261.652 1560.85 258.503 1550.94 243.774C1544.6 234.36 1549.7 216.628 1553.7 207.438C1564.88 181.733 1583.11 160.745 1609 181M542 83.4863C531.936 85.0757 508.881 86.8306 501.424 93.7605C484.534 109.456 508.969 133.217 523 137.258C530.097 139.302 540.792 140.671 547.96 138.264C552.708 136.669 560.042 127.764 565.06 133.521C573.946 143.715 563.933 174.076 566.349 187C569.786 205.389 587.651 194.243 598.451 201.683C602.241 204.294 598.42 215.604 599.284 219.992C601.456 231.023 620.302 236.802 629.981 234.58C652.21 229.475 646.1 192.786 637.915 179.001C624.818 156.939 603.711 177.982 590.586 163.635C567.986 138.932 604.314 96.0637 558 84.6284C552.671 83.3127 547.47 82.6226 542 83.4863M282 88L284 91L285 90L282 88M544 88.3601C598.299 82.4136 565.683 144.112 587.867 167.213C601.05 180.94 621.297 162.603 632.919 180.019C640.322 191.112 649.927 225.07 628.992 228.232C620.985 229.441 605.018 225.69 603.933 215.717C603.412 210.924 607.835 205.161 604.886 200.453C597.908 189.313 578.597 201.192 572.384 189.892C563.53 173.789 580.565 145.055 568.226 130.366C562.408 123.439 535.533 136.316 524 133.496C513.771 130.995 489.036 109.151 504.035 97.281C506.985 94.9463 511.443 97.8535 514.783 97.3311C524.737 95.7739 533.862 89.4705 544 88.3601M2033 282C2034.06 274.384 2030.49 266.16 2031.22 258C2034.88 217.22 2038.9 175.52 2043.72 134.864C2045.1 123.248 2044.07 111.576 2045.22 100C2045.34 98.8533 2047.66 88.281 2044.3 89.7612C2036.08 93.3804 2040.28 124.535 2039.44 132C2035.29 168.894 2033.62 206.085 2029.68 243C2028.57 253.414 2023.15 274.96 2033 282M2002 206C1991.63 214.317 1997.36 237.84 1985.53 244.755C1979.07 248.529 1981.95 221.871 1982.01 219.003C1982.53 191.805 1991.13 166.107 1993.33 141C1993.62 137.697 1995.92 110.621 1991.32 111.426C1986.4 112.286 1987.2 138.615 1986.78 143C1984.23 169.427 1980.52 195.713 1977.56 222C1976.71 229.562 1973.61 245.163 1980.68 250.764C1984.95 254.141 1990.47 247.041 1992.32 243.782C1998.27 233.303 2000.42 217.819 2002 206M880 246C876.421 246.332 874.117 248.297 871 250C883.563 210.67 922.299 171.229 948.489 140.137C957.756 129.135 966.489 125.708 979.834 125.866C981.979 125.891 984.231 124.344 984.078 121.98C983.812 117.884 975.684 119.63 972.981 119.444C961.995 118.686 950.216 130.016 944.029 138.077C922.863 165.66 897.633 192.44 880.89 223C877.046 230.017 863.163 244.58 867.042 253.45C869.79 259.734 878.651 248.342 880 246M205 123C199.35 139.58 185.55 156.813 167 158C170.943 147.925 194.535 124.043 205 123M1331 160C1327.99 133.143 1343.37 147.639 1348.33 165C1352.6 179.946 1355.27 195.213 1349.14 209.999C1344.36 221.516 1337.55 232.05 1328.21 240.423C1321.05 246.846 1313.55 253.321 1304 255.667C1261.13 266.192 1239.79 225.744 1240 188C1240.11 167.816 1248.67 143.103 1270 138C1270.52 139.94 1271.28 142.143 1273.74 140.44C1283.42 133.75 1303.2 122.919 1315.94 134.153C1323.67 140.97 1322.36 156.036 1331 160M913 131C902.291 146.532 901.016 169.171 884.981 181.356C878.075 186.603 857.282 176.259 856.867 181.086C856.081 190.225 878.77 191.18 883.997 188.454C897.427 181.448 917.46 146.596 913 131M1325 135C1326.27 136.543 1326.49 137.048 1327 139C1325 137.756 1324.44 137.308 1325 135M134 168C119.336 169.228 111.246 158.481 111 144C98.0786 148.998 121.674 185.891 134 168M1991 153L1991 159L1988 159C1988.15 156.866 1988.45 155.066 1989 153L1991 153M1271 163.736C1231.96 173.787 1243.07 215.182 1282 205.074C1307.29 198.509 1297.36 156.95 1271 163.736M1287 171L1279 179C1291.32 176.721 1297.6 186.297 1287.51 196.653C1282.27 202.037 1258.36 202.236 1252.37 197.826C1245.85 193.035 1250.37 180.82 1255.19 176.5C1265.11 167.602 1275.24 165.992 1287 171M1325.01 174.825C1304.61 181 1315.46 218.165 1338 211.396C1361.71 204.274 1347.18 168.11 1325.01 174.825M983 204C1007.59 192.892 965.706 176.785 955 177.239C927.745 178.393 930.917 219.433 931 237C931.029 243.168 930.652 259.478 938.205 262.136C939.83 262.708 936.156 242.435 936.04 239C935.417 220.431 931.531 200.794 947.237 186.326C960.533 174.077 985.054 187.951 983 204M1326.05 179.928C1343.58 174.416 1354.75 200.407 1335.95 206.975C1320.51 212.369 1310.05 184.958 1326.05 179.928M1700 190C1702.77 189.231 1708.96 187.842 1708.62 192.856C1708.03 201.704 1698.56 207.085 1700.29 217.997C1701.94 228.451 1714.28 231.203 1719.75 221.971C1724.54 213.897 1720.94 201.7 1716.91 194C1713.37 187.237 1704.01 179.499 1700 190M1606 186L1606 189C1606.7 187.447 1606.7 187.554 1606 186M1646.23 191.94C1624.8 201.396 1644.41 234.989 1665 226.535C1691.26 215.754 1669.68 181.588 1646.23 191.94M1654 193C1654.3 198.908 1656.36 202.352 1661 206C1659.96 202.514 1658.55 199.289 1657 196C1675.92 193.011 1677.95 220.931 1659.78 223.565C1640.81 226.316 1636.28 198.496 1654 193M1588.09 195.278C1566.04 206.584 1587.21 246.531 1609 235.616C1635.05 222.566 1614.12 181.927 1588.09 195.278M969 210C981.37 204.223 971.474 186.95 969 210M1710.27 199.106C1718.15 197.018 1721.52 221.298 1711.67 223.935C1700.08 227.036 1701.51 201.427 1710.27 199.106M1599 205C1597.7 203.383 1596.61 202.328 1595 201C1617.52 196.073 1625.91 228.687 1604 231.449C1590.25 233.182 1573.93 205.922 1588.78 200.758C1591.46 199.827 1596.4 204.093 1599 205M1597 511C1595.71 486.259 1636.91 483.387 1644.28 506.001C1654.55 537.501 1613.24 567.588 1620.58 596.927C1623.45 608.394 1644.39 588.133 1651 588.165C1664.36 588.229 1671.57 600.076 1683 603.891C1694.08 607.588 1712.96 591.749 1718 583C1714.1 584.32 1706.79 590.748 1702.82 587.119C1697.59 582.324 1704.94 570.437 1705.72 565C1708.68 544.435 1704.83 523.142 1703.12 502.96C1700.09 467.175 1747 500.08 1746.54 474C1746.18 453.13 1727.32 438.129 1709.98 430.544C1677.33 416.257 1625.94 410.112 1597.01 437.144C1587.73 445.813 1567.91 481.889 1572.84 494.974C1575.45 501.886 1590.43 508.47 1597 511M1624 596C1630.62 569.158 1665.68 519.444 1642.42 494.362C1624.23 474.753 1607.64 494.326 1590.78 500.424C1585.78 502.232 1577.49 495.937 1576.91 490.981C1576.01 483.369 1583.54 470.902 1586.6 464C1607.31 417.392 1681.35 409.697 1721 441.417C1729.83 448.478 1745.51 463.843 1741.83 476.833C1740.18 482.679 1732.21 478.332 1728 478.361C1718.47 478.427 1706.68 479.252 1701.93 489.043C1697.03 499.119 1701.39 509.611 1701.92 520C1702.89 538.943 1702.89 558.556 1698.39 577C1697.06 582.416 1698.94 592.924 1694.5 596.713C1683.69 605.934 1665.11 583.641 1652 583.183C1640.89 582.794 1634.33 593.911 1624 596M2030 567C2024.95 567.924 2021.06 571.784 2016.14 572.635C2004.52 574.649 2025.69 543.347 2024.43 538.001C2021.79 526.771 2010.14 522.53 2007.11 510C2004.36 498.642 2016.63 485.769 1997 484C1998.19 487.146 2004.85 491.434 2003.89 494.662C2003.27 496.779 1972.89 498.211 1969.24 495.88C1947.57 482.041 1984.06 443.459 2001.73 455.935C2015.65 465.757 2010.62 491.447 2016.22 505.863C2020.76 517.573 2034.24 515.262 2041.9 523.662C2057.54 540.82 2052.74 580.678 2025 577C2042.16 603.034 2056.49 555.461 2054.52 542C2053 531.634 2050.02 522.095 2041 515.785C2034.52 511.259 2025.53 511.96 2021.6 503.979C2013.91 488.33 2021.77 464.156 2006.59 451.803C1992.82 440.593 1961.74 458.487 1959.24 474C1954.09 506.012 1978.3 499.066 1996.91 508.906C2004.77 513.058 2002.01 520.903 2006.63 526.742C2010.18 531.229 2016.72 532.024 2018.69 538.026C2022.78 550.469 1995.28 563.758 2008.69 577.488C2014.99 583.946 2027.02 572.26 2030 567M129 575C119.705 565.04 164.782 555.37 168 575C183.731 567.247 194.552 590.826 208 598.161C231.238 610.836 261.086 596.393 277 578C250.955 581.204 236.833 610.222 208.001 591.973C202.439 588.453 198.358 583.604 193.764 579.002C185.367 570.592 178.405 569.602 182 557C179.823 557.924 174.12 565.323 172.161 563.351C169.54 560.711 176.518 544.67 177.34 541C182.531 517.83 194.138 494.999 195 471C188.093 474.019 188.215 485.525 186.077 492C179.272 512.601 177.408 536.775 168.621 556.922C165.343 564.437 134.767 558.337 125.447 563.305C117.009 567.802 119.218 576.555 129 575M251 474C241.14 476.338 242.729 492.865 240.42 501C234.433 522.089 226.205 542.202 219.441 563C218.525 565.814 213.369 584.203 222.366 580.167C224.622 579.155 221.5 573.228 221.889 570.974C223.578 561.198 228.366 552.078 232.073 543C235.75 533.994 237.927 524.236 241 515C245.472 501.558 248.616 487.863 251 474M912 504C921.779 500.562 911.532 478.576 928 478.819C958.002 479.261 924.552 528.168 921.36 538C917.374 550.275 925.832 553.359 930 541L924 543C929.279 527.813 947.302 509.185 945.354 493C943.912 481.026 929.937 466.618 918.449 478.284C912.266 484.563 912.076 495.737 912 504M953 551C970.346 539.411 985.813 520.312 985.992 499C986.028 494.689 977.09 471.749 970.544 480.587C969.336 482.217 978.969 489.237 980.136 491.008C984.072 496.984 983.189 509.885 979.262 515.783C973.57 524.33 951.509 541.807 953 551M1281 519C1280.61 512.427 1284.64 495.094 1294.36 506.373C1304.29 517.908 1280.13 539.549 1281.52 552C1284.01 574.179 1314.56 572.266 1327.92 562.121C1344.35 549.644 1341.36 536.172 1345.84 519C1347.29 513.44 1351.02 499.511 1357.04 497.544C1376.62 491.152 1356.65 546.797 1373 530C1363.3 527.505 1383.54 485.013 1356.01 491.686C1347.9 493.651 1345.57 505.31 1342.93 512C1334.64 532.942 1333.8 573.709 1297.14 564.421C1268.28 557.105 1309.99 518.675 1300.06 504.244C1288.68 487.71 1260.58 510.576 1281 519M2001 507C1997.69 505.043 1995.18 503.179 1993 500C1997.27 501.145 1999.29 502.928 2001 507M508 533C540.79 535.154 510.817 568.911 508.26 584C507.292 589.714 503.366 617.41 516 605C496.974 591.693 532.27 557.652 528.632 541.079C526.815 532.801 503.073 520.491 499.007 532.364C496.536 539.578 512.544 549.017 508 533M556 546C555.843 543.588 555.52 541.361 555 539C581.201 548.598 550.83 575.222 546.461 587.04C543.879 594.022 543.265 605.873 552 608C550.527 602.36 547.852 596.972 549.675 591.019C552.753 580.969 589.893 541.252 558.96 534.57C549.931 532.62 550.182 542.11 556 546M875 597C862.657 584.616 894.198 572.948 903 571.372C923.885 567.632 950.223 580.067 964.997 594.025C967.727 596.604 981.081 615.628 980.852 615.894C987.825 607.814 969.2 588.81 964 584.994C943.571 570.003 910.47 558.974 886 571.486C879.35 574.886 870.21 579.385 866.501 586.22C862.411 593.759 866.816 600.401 875 597M1269 591.441C1264.28 591.997 1227.64 593.294 1227.64 597.119C1227.64 603.436 1244.21 603.133 1247.96 601.963C1278.52 592.418 1306.32 599 1338 599C1346.19 599 1366.27 604.397 1373.11 600.227C1377.56 597.512 1349.97 594.629 1347 594.32C1322.22 591.742 1293.81 588.52 1269 591.441M614 600C604.299 601.774 597.376 609.968 589 614.653C556.746 632.692 513.89 655.82 483.845 619.997C481.293 616.955 463.654 589.192 460.388 594.505C458.462 597.637 466.573 604.59 468.309 607.003C476.442 618.307 484.293 634.737 499 638.261C535.26 646.948 552.682 641.558 585 622.612C594.872 616.825 608.366 610.375 614 600M2016.01 791.812C2006.74 794.745 2004.37 806.144 1998.16 812.414C1982.17 828.55 1979.53 853.07 1974.11 874.922C1968.44 897.748 1959.04 920.933 1960.18 945C1961.05 963.277 1963.48 1000.28 1991 993.198C2005.79 989.395 2016.71 976.552 2020.18 962C2022.95 950.341 2012.92 943.041 2009.06 933C2005.85 924.686 2006.93 909.694 2008.79 901C2014.55 873.977 2043.42 857.028 2046.77 829.999C2048.79 813.704 2038.58 784.672 2016.01 791.812M1987 845C1987.92 850.258 1985.81 855.423 1989 860C1989.24 848.485 1994.29 837.524 1995 826C1997.3 827.822 1999.44 829.57 2002 831C1994.41 802.738 2036.05 781.154 2043.09 816C2049.57 848.02 2009.06 871.807 2003.46 902C2001.67 911.661 2001.28 926.911 2005.14 936C2008.33 943.523 2017.94 951.517 2016.17 960C2013.26 973.97 2002.48 986.501 1988 988.705C1968.87 991.616 1968.32 968.824 1966.74 956C1963.12 926.643 1970.69 901.176 1978.34 873C1980.52 864.975 1980.78 850.862 1987 845M586 807C579.193 801.873 564.817 814.226 568.933 817.456C569.747 818.095 583.304 808.132 586 807M1688 881C1683.64 877.196 1678.89 877.607 1678 871L1689 874C1687.7 870.744 1685.7 868.049 1684 865C1703.01 867.348 1703.89 886.821 1700.63 901.997C1698.77 910.698 1687.47 911.995 1685.14 920.001C1680.15 937.106 1700.94 968.655 1717 971.541C1736.35 975.019 1752.49 957.404 1750.82 938.019C1750.14 930.177 1742.62 926.375 1739.34 919.864C1734.75 910.737 1735.49 898.653 1737.47 889C1742.08 866.614 1751.54 857.834 1748.22 833.922C1747.06 825.561 1748.62 817.356 1739.95 812.303C1713.13 796.664 1658.17 804.924 1652.38 841C1649.29 860.291 1661.17 858.073 1671.1 868.162C1677.98 875.15 1672.62 884.891 1688 881M1707 810.553C1712.1 809.52 1717.07 811.627 1722 812.648C1770.53 822.701 1730.92 873.928 1730.83 903C1730.78 918.432 1744.89 925.363 1746.49 938C1747.84 948.588 1739.75 963.772 1729 966.07C1707.31 970.703 1686.96 943.167 1690.74 922.043C1691.83 915.947 1699.88 913.563 1703.22 908.856C1708.72 901.108 1709.16 882.475 1705.2 874.001C1695.65 853.57 1675.39 869.92 1660.93 857.82C1643.64 843.36 1669.92 816.658 1684 812.063C1690.79 809.846 1699.66 812.038 1707 810.553M190 975C190 939.655 201.297 903.912 210.717 870C212.298 864.312 219.526 839.096 211.635 836.523C196.764 831.674 170.148 865.019 161 873.981C158.57 876.362 144.926 885.913 148.028 890.031C150.705 893.584 160.322 881.678 162 880C173.014 868.984 183.868 858.345 196 848.569C198.476 846.573 206.407 838.713 209.733 842.699C214.519 848.437 206.819 863.786 205.579 870C200.389 896.017 190.549 921.553 187.066 948C186.366 953.317 181.528 979.203 189.363 980.755C199.745 982.811 212.953 955.836 227.031 955.149C232.112 954.901 239.035 994.336 246 973C243.223 973.536 241.364 974.442 239 976C237.907 970.907 235.718 953.797 244.07 953.869C262.193 954.027 264.17 979.171 277.019 986.197C299.118 998.28 321.644 950.268 323 934C307.078 945.268 306.695 973.817 287.543 982.706C275.893 988.112 266.002 962.448 259.543 956.029C255.649 952.159 242.73 950.572 241.039 946.499C237.967 939.1 242.859 925.581 244.08 918C247.747 895.241 248.803 871.391 254.221 849C255.25 844.747 259.657 814.003 255.854 814.003C251.448 814.003 252.042 821.204 251.784 824C250.653 836.228 247.481 848.855 247.041 861C246.26 882.544 241.925 905.781 237.797 927C236.676 932.767 237.902 943.789 234.616 948.499C231.488 952.981 220.032 951.25 215 953.604C205.005 958.279 198.665 968.483 190 975M294 849C300.769 875.751 290.923 911.748 288.861 939C288.467 944.21 282.705 965.076 287.736 968.456C290.345 970.209 293.812 935.12 294.071 931C295.853 902.547 301.866 873.636 299.864 845C299.363 837.837 300 821.974 294.209 816.786C293.871 816.483 286.155 849.17 287.405 855.919C289.189 865.546 293.697 852.102 294 849M1216 891C1209.74 880.359 1198.21 845.37 1226 859.821C1263.55 879.351 1206.63 934.908 1237.6 962.322C1244.67 968.577 1271.82 969.072 1279.32 963.899C1285.16 959.871 1290.49 949.423 1298.14 948.989C1311.38 948.236 1319.32 965.741 1332 963.256C1360.36 957.698 1363.51 908.97 1343 894.494C1332.01 886.736 1310.79 900.035 1301.86 892.138C1294.1 885.276 1297.86 863.573 1293.52 854C1277.61 818.959 1241.55 808.787 1206.01 818.645C1176.68 826.781 1191.54 886.267 1216 891M822 930C821.377 910.205 825.928 888.125 834.375 870C839.655 858.672 851.485 844.142 849 831C845.929 834.583 839.051 857.734 832.724 851.568C823.526 842.604 834.047 828.005 843 823.627C851.462 819.49 866.085 826.099 871.318 833.029C883.414 849.048 862.409 875.121 862.473 893C862.514 904.529 881.051 919.663 888 929C889.538 922.544 885.498 919.035 885 913C896.331 918.304 903.638 913.038 914.001 909.215C955.91 893.756 950.895 858.597 978.315 830.13C986.131 822.015 1000.91 834.595 1010 825C1029.35 840 1017.91 873.146 1013.9 893.003C1012.64 899.258 1014.44 907.137 1011.4 912.871C1006.49 922.092 994.146 922.415 990.022 935C983.122 956.054 997.021 979.442 968 991.063C947.894 999.115 902.559 985.845 885.362 973.217C877.516 967.456 878.721 955.612 869.973 951.316C851.848 942.416 836.812 953.38 820 945C818.231 960.963 855.838 948.731 865.971 954.011C874.832 958.629 874.441 970.66 882.163 976.614C904.078 993.513 956.864 1005.91 981.012 989.334C1001.19 975.488 988.426 954.155 994.4 937C998.444 925.385 1011.52 925.468 1015.84 915.914C1018.99 908.948 1017.54 900.371 1018.96 893C1022.51 874.626 1036.63 838.859 1017.6 823.806C1010.97 818.562 1003.17 824.863 996.075 824.017C990.566 823.361 985.772 820.823 980.043 822.604C970.502 825.57 964.44 842.785 960.38 851C948.804 874.419 939.833 887.321 920 904C918.198 892.036 927.577 880.602 929.876 869C931.067 862.988 932.181 856.133 931.843 850C931.371 841.455 921.303 814.573 910.359 830.13C899.388 845.726 894.894 870.08 888.582 888C887.076 892.275 884.407 909.236 877.935 906.994C865.224 902.589 867.812 887.832 870.263 878C875.861 855.538 889.866 826.484 857 819.919C851.557 818.832 846.376 817.368 841 819.587C833.565 822.655 826.221 831.042 824.622 839C822.419 849.971 833.658 852.046 833.875 859.257C834.296 873.269 821.154 895.322 818.04 910C816.675 916.438 814.656 927.002 822 930M1200 867C1192.4 855.448 1192.02 828.991 1207.04 822.247C1221.49 815.766 1248.81 819.648 1263 825.345C1276.16 830.63 1290.04 850.015 1292.25 864C1293.72 873.32 1291.38 887.891 1297.74 895.753C1305.68 905.558 1329.72 893.707 1340.56 899.312C1350.77 904.588 1354.41 915.344 1352.08 926C1349.75 936.646 1341.98 961.57 1327 957.39C1316.73 954.525 1307.26 940.088 1295.02 944.126C1281.59 948.556 1255.25 976.898 1238.86 955.871C1217.75 928.777 1256.39 894.861 1242.16 868.136C1231.74 848.561 1208.91 847.195 1200 867M517 873C509.682 873 496.511 875.596 490.086 871.924C474.77 863.171 483.76 839.727 495.003 832.244C502.46 827.28 514.41 828.491 523 829.139C536.015 830.12 549.489 835.866 554.249 849C558.305 860.191 553.429 868.92 565.003 876.451C581.685 887.307 604.7 879.028 622.04 875.446C646.402 870.414 668.37 885.592 677.935 854C679.275 849.575 681.233 845.679 681 841C672.469 848.438 673.791 862.798 663.951 868.831C656.541 873.376 642.413 869.64 634 869.64C614.221 869.641 590.276 884.025 571.001 874.104C557.541 867.177 562.17 851.954 555.374 840.199C546.14 824.226 510.738 818.594 495 826.464C479.068 834.43 470.546 856.71 482.165 871.777C488.59 880.109 510.224 880.593 517 873M915.44 831.929C925.333 828.168 927.003 849.765 927 855C926.989 872.45 918.491 904.338 901.864 909.861C898.193 911.08 887.538 911.144 887.047 905.757C885.711 891.085 901.285 863.915 906.639 850C908.391 845.447 910.427 833.835 915.44 831.929M637.976 884.44C631.582 885.67 628.51 902.893 628.151 908C626.411 932.778 636 958.684 636 984C636 987.162 634.539 1011.52 638.783 1010.68C643.276 1009.78 641 986.901 641 983C641 957.699 632.603 933.016 633.361 908C633.463 904.651 639.919 884.067 637.976 884.44M569 996C563.601 997.899 559.934 1002.23 555 1005C555.368 965.115 570.858 928.086 574 889C565.198 892.413 563.826 904.776 562.202 913C557.784 935.369 553.851 958.326 551.783 981C551.189 987.518 547.95 998.923 551.384 1004.84C556.654 1013.93 566.56 1000.9 569 996M1350 1230C1348.12 1248.05 1339.11 1265.46 1334.8 1283C1331.87 1294.91 1331.42 1311.34 1324.46 1321.74C1318.41 1330.78 1296.52 1336.22 1290.28 1325.99C1285.03 1317.37 1288.17 1302.43 1289.6 1293C1292.99 1270.63 1301.92 1243.64 1296.36 1221C1290.49 1197.09 1254.97 1202.31 1263.03 1225.78C1265.92 1234.22 1279.29 1238.66 1282 1228C1261.46 1231.3 1270.76 1206.61 1278.79 1209.39C1309.87 1220.19 1283.13 1284.67 1283 1307C1282.85 1335.44 1297.74 1342.48 1322 1329C1321.33 1332.71 1320.77 1335.38 1322 1339C1332.7 1327.26 1340.6 1307.04 1348 1293C1343.05 1293.37 1339.89 1294.99 1336 1298C1342.67 1273.53 1349.59 1247.09 1359.98 1224C1364.98 1212.88 1376.52 1205.16 1370 1193C1367.02 1197.29 1365.11 1201.62 1361 1205C1370.06 1183.7 1388.61 1152.51 1391 1130C1386.49 1133.3 1385.08 1139.12 1381 1143C1381.63 1140.53 1385.22 1122.57 1381.24 1123.32C1377.18 1124.09 1375.6 1138.54 1374.52 1142C1370.09 1156.16 1368.37 1171.07 1363.19 1185C1360.86 1191.25 1353.45 1198.01 1352.68 1204.05C1351.91 1210.07 1341.64 1231.13 1350 1230M898 1245C856.594 1242.83 837.937 1272.31 825.139 1309C820.286 1322.92 813.126 1343.92 827.104 1355.29C836.509 1362.94 852.434 1364.25 864 1366.6C908.103 1375.57 996.216 1359.18 993.862 1299C993.18 1281.54 976.856 1261.75 963 1252.72C958.009 1249.47 939.52 1242.41 939.52 1235.44C939.52 1231.57 960.404 1224.54 964 1222.26C984.672 1209.18 1018.71 1178.89 1002.75 1151C995.365 1138.09 977.05 1137.33 964 1133.84C955.182 1131.48 945.166 1128.99 936 1129.04C927.846 1129.08 920.861 1133.42 913 1134.69C882.696 1139.55 827.905 1153.17 832.383 1196C836.434 1234.75 878.27 1225.01 898 1245M918 1228C928.333 1214.08 958.449 1173.23 930.999 1161.89C898.612 1148.51 858.649 1168.26 876.05 1206C878.518 1211.35 904.74 1236.16 900.683 1237.48C893.643 1239.77 879.221 1232.54 873 1229.5C851.852 1219.16 830.242 1207.84 840.722 1180C855.8 1139.95 926.755 1128.9 963 1139.17C972.726 1141.93 992.539 1143.49 997.716 1152.01C1020.4 1189.32 949.934 1236.69 918 1228M1930 1335C1937.28 1327.86 1938.81 1317.69 1943.39 1309.02C1951.38 1293.89 1961.66 1279.96 1969.94 1265C1973.02 1259.45 1981.31 1241.03 1987.19 1238.89C1990.91 1237.53 1997.52 1262.52 1998.66 1266C2007.84 1293.81 2015.22 1319.85 2030.76 1345C2034.29 1350.72 2054.66 1372.14 2055 1354C2042.57 1361.05 2034.19 1342.27 2029.4 1333C2016.91 1308.85 2010.3 1283.69 2001.95 1258C1999.67 1250.97 1991.83 1237.18 1993.9 1230C2001.41 1203.94 2031.32 1187.62 2041 1163C2025.76 1166.4 2011.56 1194.82 2002.86 1207C2000.39 1210.46 1995.41 1221.13 1990.93 1221.92C1987.94 1222.44 1985.15 1209.43 1984.5 1206.96C1982.32 1198.67 1971.29 1158.04 1958.59 1161.23C1952.23 1162.82 1949.02 1193.94 1948.32 1200C1944.7 1231.5 1949.16 1263.98 1943.84 1295.32C1941.64 1308.24 1927.04 1321.79 1930 1335M895 1162.41C904.877 1160.85 930.582 1161.38 936.373 1171.26C944.488 1185.11 921.587 1227.55 906.72 1230.3C902.223 1231.13 894.041 1221.8 891.008 1218.91C876.411 1205.05 865.36 1167.11 895 1162.41M1960 1166C1970.46 1180.32 1986.42 1210.83 1986.28 1229C1986.23 1235.18 1979.62 1241.06 1976.5 1246C1967.57 1260.12 1958.85 1282.45 1946 1293C1950.7 1251.15 1945.98 1206.67 1960 1166M1669 1170C1632.75 1199.65 1623.89 1261.93 1606.96 1303C1602.46 1313.91 1594.37 1346.67 1580.79 1349.19C1574.27 1350.4 1571.16 1339.37 1569.38 1335C1562.81 1318.78 1558.01 1302.31 1555.67 1285C1553.66 1270.14 1551 1256.13 1551 1241C1558.9 1249.33 1568.25 1280.53 1569 1292C1576.57 1284.33 1562.48 1251.33 1557.63 1242C1556.41 1239.65 1550.3 1228.25 1546.81 1229.76C1543.07 1231.38 1547 1255.86 1547 1260C1547.01 1284.17 1553.12 1311.59 1562.28 1334C1565.42 1341.68 1569.03 1354.52 1579.02 1355.36C1595.69 1356.76 1602.67 1325.19 1607.86 1313.96C1630.07 1265.91 1640.66 1216.18 1670 1171L1669 1170M348 1199C351.701 1187.37 335.127 1180.93 326 1183.84C313.74 1187.75 298.781 1200.6 290.42 1210.14C284.604 1216.77 286.329 1225.36 296.705 1223.89C302.201 1223.11 291.398 1218.51 293.916 1214C304.66 1194.72 332.318 1179.73 348 1199M173 1242C192.94 1233.47 166.898 1216.17 155 1217.36C116.432 1221.22 78.2973 1277.94 110.184 1309.56C127.676 1326.91 161.3 1330.22 181 1314.52C191.524 1306.13 198.609 1290.8 212.999 1287.95C228.565 1284.87 245.052 1304.68 259.997 1306.63C293.733 1311.05 300.481 1257.81 289.595 1237C277.986 1214.81 230.021 1210.82 208 1204.38C204.146 1203.25 181.495 1200 179.761 1204.31C178.566 1207.28 184.85 1209.2 186.784 1209.17C200.324 1208.97 205.387 1209.56 219 1214.14C247.791 1223.82 307.056 1229.74 289.126 1276C287.389 1280.48 284.899 1285.06 281.947 1288.86C258.076 1319.57 239.235 1277.64 213 1282.65C196.239 1285.85 188.412 1304.49 175 1312.88C148.192 1329.65 104.831 1314.39 102.144 1281C100.44 1259.83 128.967 1228.97 149 1224.13C161.336 1221.15 180.623 1226.87 173 1242M18 1251C29.9258 1238.1 41.5627 1211.79 62 1211.53C74.8803 1211.36 89.1551 1224.95 96.7767 1233.86C97.7952 1235.06 104.744 1243.47 106.533 1240.9C111.35 1233.96 86.4921 1217.03 82 1214.45C56.9946 1200.08 18.4654 1219.69 18 1251M534 1345C530.971 1347.05 526.394 1356.59 522.424 1355.36C514.613 1352.92 512.557 1333.52 510.961 1327C503.385 1296.07 505 1259.69 505 1228C512.799 1232.86 511.644 1244.11 520 1248C518.68 1236.78 512.114 1227.73 507 1218C523.115 1221.82 563.96 1212.92 573.197 1232.24C577.627 1241.5 576.245 1254.98 577.321 1265C580.048 1290.42 581.962 1322.01 590.364 1345.98C594.182 1356.88 603.302 1377.35 616 1379C609.75 1366.83 600.278 1357.28 595.478 1344C583.79 1311.67 580.235 1265.39 579 1231C597.535 1238.9 609.554 1241.73 619 1261C628.541 1245.63 601.031 1234.45 591 1229.86C563.571 1217.32 540.191 1216.38 511 1213.78C499.671 1212.78 480.917 1210.76 472.649 1221.25C467.527 1227.75 498.862 1226.75 500.498 1231.3C503.125 1238.6 500.681 1250.17 501.078 1258C502.407 1284.25 501.066 1310.27 507.501 1336C511.706 1352.81 529.3 1374.9 534 1345M1392 1239C1391.96 1234.89 1392.73 1231.7 1394.58 1228C1406.83 1203.45 1377.16 1232.91 1392 1239M504 1218C501.197 1226.5 489.849 1224.95 483 1222C489.023 1217.09 496.673 1217.59 504 1218M914 1236C959.629 1238.93 1010.27 1290.32 976.811 1335C954.842 1364.33 893.286 1367.08 862 1360.8C852.149 1358.82 836.152 1357.89 828.749 1350.48C820.811 1342.54 822.537 1329.7 825.474 1320C832.175 1297.85 845.41 1265.24 865.783 1252.28C868.269 1250.7 883.768 1247.32 884.6 1251.29C886.222 1259.04 866.267 1270.37 867.327 1282C870.131 1312.75 919.835 1310.17 936.997 1297.17C972.686 1270.15 927.577 1254.04 914 1236M898 1268C909.116 1277.97 897.969 1239.32 911 1240.46C938.927 1242.91 962.386 1291.35 924.961 1299.37C908.966 1302.8 889.606 1303.81 877.093 1290.96C865.803 1279.36 877.524 1256.92 893.266 1255.61C897.945 1255.22 905.192 1267.63 898 1268M511 1377C510.766 1371.52 506.543 1368.58 504 1364C509.827 1366.05 514.744 1367.93 521 1368C512.649 1384.11 544.699 1385.73 555 1388.18C573.01 1392.47 591.764 1388.3 609.992 1389.07C632.455 1390.01 653.143 1394.87 675 1397C671.106 1387.72 653.835 1385.85 645 1385.13C616.971 1382.86 585.312 1389.58 558 1382.96C555.051 1382.24 528.374 1377.61 531.106 1373.15C532.471 1370.92 566.814 1378.99 572 1379C566.335 1371.38 556.275 1372.6 548 1370.74C528.076 1366.26 507.875 1361.59 489 1354.44C486.159 1353.36 470.433 1351.99 473.211 1358.57C475.18 1363.23 491.072 1361.18 495.882 1365.36C501.273 1370.04 504.145 1374.21 511 1377M1884 1685C1884.67 1682.35 1888.18 1677.31 1887.16 1674.71C1883.98 1666.64 1856.3 1690.99 1877 1679C1875.37 1684.12 1870.08 1695.43 1864.82 1697.45C1860.99 1698.92 1853.57 1689.53 1851.95 1694.33C1849.58 1701.31 1863.24 1704.18 1867.63 1702.18C1874.25 1699.16 1872.02 1689.56 1877.7 1686.1C1881.59 1683.73 1886.59 1689.15 1892 1685.97C1894.61 1684.45 1902.18 1677.19 1905.31 1679.95C1913.24 1686.95 1905.42 1718.62 1905 1728C1938.69 1714.09 1903.6 1662.76 1942.32 1666.06C1946.55 1666.42 1950.88 1669.76 1955 1671C1949.62 1661.23 1948.98 1663.76 1953 1654C1945.34 1655.02 1928.43 1665.97 1921.6 1663.24C1916.51 1661.2 1919.14 1644.56 1918.68 1640C1916.98 1623.32 1915.74 1603.09 1924.53 1588.04C1927.67 1582.68 1948.61 1574.91 1947.89 1572.1C1944.44 1558.5 1922.63 1580 1919 1582C1918.13 1568.49 1908.79 1557.51 1897 1551.54C1895.06 1550.56 1879 1544.67 1879 1550C1879 1552.28 1890.04 1553.41 1892 1554.19C1903.83 1558.87 1908.93 1566.06 1914.65 1577C1923 1593 1907 1625.48 1907 1645C1907 1652.46 1909.19 1664.19 1905.62 1670.95C1902.53 1676.79 1890.06 1682.42 1884 1685M1644 1622L1644 1624C1632.03 1626.18 1607.51 1648.36 1621.56 1661.2C1631.41 1670.2 1662.71 1651.88 1666.64 1675C1667.34 1679.15 1662.88 1681.14 1662.42 1684.84C1662.08 1687.57 1665.21 1687.15 1666.69 1686.11C1687.64 1671.46 1652.65 1656.78 1641 1657.02C1636.78 1657.1 1631.18 1659.26 1627.14 1657.95C1623.47 1656.76 1622.27 1652.47 1622.77 1649C1625.09 1633.14 1647.81 1633.77 1650.89 1623.47C1653.22 1615.72 1625.02 1619.21 1622.06 1611.98C1608.93 1579.86 1666.59 1591.79 1680.94 1581.91C1689.47 1576.04 1688 1556.33 1677.33 1552.74C1680.7 1553.87 1684.62 1575.07 1675.95 1580.13C1661.38 1588.64 1641.03 1579.92 1626.04 1586.93C1616.19 1591.54 1611.85 1612.73 1621.4 1620.06C1626.86 1624.25 1637.45 1621.16 1644 1622M1244 1558C1250.26 1558.31 1254.63 1561.11 1260 1564.08C1303.23 1587.99 1255.81 1627.19 1269.21 1657.68C1277.1 1675.63 1296.71 1668.36 1305.89 1657C1309 1653.15 1315.26 1644.08 1310.81 1638.97C1307.95 1635.69 1305.22 1649.29 1304.11 1650.99C1297.03 1661.92 1284.14 1668.52 1274.54 1655.84C1269.3 1648.92 1275.76 1634.48 1277.63 1627C1282.45 1607.66 1288.79 1586.16 1274.58 1569.01C1269.43 1562.79 1251.1 1548.29 1244 1558M921 1565C924.125 1570.58 943.599 1601.59 926.179 1604.46C919.651 1605.53 915.335 1588.21 904.556 1596.94C890.794 1608.08 904.254 1618.89 917 1615C907.789 1631.89 879.476 1629.19 865.527 1642.35C841.045 1665.45 886.003 1704.36 901.67 1674.83C902.527 1673.22 902.443 1670.49 899.93 1671.08C892.947 1672.73 887.983 1680.18 880 1680.34C868.659 1680.56 861.107 1662.03 864.583 1652.68C870.189 1637.6 890.053 1635.57 903 1631.36C913.883 1627.82 931.841 1611.58 935.945 1600.99C939.898 1590.8 934.842 1564.58 921 1565M499 1714C517.792 1740.53 542.86 1708.87 550.041 1690C554.605 1678.01 556.384 1658.65 547.492 1648.1C543.452 1643.31 536.924 1642.69 532.705 1638.52C529.694 1635.55 535.376 1627.97 536.835 1625C548.461 1601.32 552.386 1575.13 581.851 1577.16C584.6 1577.35 584.979 1574.32 584.031 1572.34C579.639 1563.13 563.829 1572.2 559.139 1576C546.632 1586.14 541.684 1604.66 535.324 1619C532.825 1624.64 530.314 1634.22 522.997 1635.2C494.347 1639.02 506.971 1606.7 504.731 1591C503.368 1581.44 492.593 1573.12 483 1577.04C465.05 1584.39 467.625 1604.81 472.449 1619.99C475.967 1631.06 493.59 1629.44 495.84 1638.67C498.845 1651 490.725 1662 490.078 1674C488.834 1697.1 493.764 1719.71 492.136 1743C491.885 1746.6 491.079 1775.62 494.926 1774.24C499.881 1772.46 499.139 1762 498.864 1758C498.02 1745.78 492.846 1724.9 499 1714M477 1590C483.396 1594.19 482.468 1602.16 484 1609C491.449 1599.67 478.196 1590.4 481.535 1583.4C485.242 1575.62 496.996 1584.89 499.278 1589.08C503.484 1596.8 502.027 1618.94 498.068 1626.71C494.532 1633.66 481.755 1626.01 478.819 1621.82C473.376 1614.04 474.061 1598.49 477 1590M103 1598C120.705 1598 128.162 1611.6 143 1613C138.308 1634.87 125.004 1635.01 111.467 1651.05C106.38 1657.07 106.108 1668.24 100.404 1673.06C95.3757 1677.31 81.8706 1670.55 79.528 1675.43C78.2085 1678.17 80.1369 1683.91 82.7778 1685.46C84.0764 1686.21 91.8433 1676.14 98.4985 1680.34C103.018 1683.19 98.7782 1705.36 103.997 1705.36C107.093 1705.36 103.703 1684.06 107.501 1680.82C112.219 1676.81 118.869 1681.23 124 1681.66C135.139 1682.58 164.444 1670.11 172.958 1677.96C178.457 1683.03 173.849 1698.1 176 1705C183.215 1696.52 175.541 1686.73 179.84 1678.52C184.054 1670.46 200.171 1680.65 203.124 1677.35C205.633 1674.55 205.567 1660.25 201.385 1658.76C199.327 1658.03 191.94 1672.19 183.062 1670.68C175.16 1669.33 166.459 1644.54 159 1638.42C155.381 1635.45 149.734 1633.46 147.822 1628.9C138.369 1606.36 175.858 1590.5 192 1592C178.702 1569.2 154.356 1609.64 144.979 1610.92C137.027 1612 111.5 1579.51 103 1598M910.121 1600.39C918.669 1598.73 919.97 1610.38 911.021 1612.1C903.07 1613.62 903.985 1601.58 910.121 1600.39M1264 1627C1255.51 1599.44 1216.64 1620.3 1209.37 1638C1198.98 1663.33 1246.55 1690.21 1257.1 1660.98C1260.09 1652.69 1251.24 1640.26 1242.01 1642.54C1238.18 1643.49 1231.75 1650.47 1237.41 1653.45C1241.64 1655.68 1245.47 1650.14 1249.65 1651.74C1258.55 1655.16 1247.72 1666.01 1243 1667.32C1210.95 1676.25 1206.88 1632.22 1235.02 1621.11C1248.14 1615.93 1252.12 1624.11 1264 1627M1953 1661C1957.88 1666.83 1983.43 1672.05 1989.48 1666.2C1995.3 1660.56 1994.29 1652.78 2003 1646.79C2013.06 1639.87 2028.89 1632.96 2036 1623C2021.11 1627.71 2004.58 1638.93 1993.05 1649.36C1989.19 1652.86 1987.97 1662.35 1983.72 1664.1C1975.39 1667.51 1962.83 1658.52 1953 1661M140.999 1634.89C152.355 1631.86 181.258 1666.72 168.715 1671.4C156.68 1675.89 118.915 1682.61 107.865 1673.67C104.25 1670.75 109.25 1662.89 110.811 1660C115.955 1650.47 130.251 1637.75 140.999 1634.89M504.281 1635.92C517.331 1630.93 518.727 1643.76 505.07 1648.52C497.522 1651.15 499.691 1637.68 504.281 1635.92M522 1643.72C538.182 1638.74 546.631 1652.74 548.257 1666C550.519 1684.44 542.271 1712 522 1718.02C501.972 1723.96 498 1706.26 498 1691C498 1669.29 497.638 1651.22 522 1643.72M1244 1646C1243.26 1648.18 1242.9 1648.72 1241 1650C1241.21 1647.26 1241.3 1646.58 1244 1646M1917 1682L1917 1687C1916.37 1684.99 1916.37 1684.01 1917 1682M239 1885C229.513 1909.76 231.578 1958.18 205 1973C206.426 1962.95 205.251 1951.84 207.284 1942.07C208.021 1938.53 214.485 1935.97 212.592 1932.29C199.678 1907.18 165.875 1931.2 163.589 1950.78C161.823 1965.92 169.426 1977.48 184 1982.04C187.982 1983.29 194.93 1981.49 198.138 1984.26C203.063 1988.51 199.023 2016.92 197.277 2023C193.072 2037.65 177.321 2047.35 162.077 2042.4C158.307 2041.17 158.506 2036.14 155.443 2035.22C152.779 2034.43 149.37 2037.67 150.106 2040.37C155.427 2059.92 194.493 2041.05 199.661 2031C207.526 2015.7 199.036 1997.94 204.939 1983C208.912 1972.95 218.665 1964.14 223.562 1954C233.833 1932.74 238.371 1908.34 241 1885L239 1885M1287 2075C1288.47 2059.24 1294.96 2023.28 1283.32 2010.42C1278.19 2004.75 1263.09 2012.06 1260.74 2007.27C1257.28 2000.24 1269.43 1976.46 1271.74 1969C1275.49 1956.89 1280.13 1944.82 1284.7 1933C1285.51 1930.89 1290.47 1922.07 1285.8 1921.32C1280.86 1920.54 1278.56 1938.4 1277.3 1942C1270.44 1961.55 1266.27 1993.73 1254.3 2010.2C1248.71 2017.89 1233.62 2016.42 1226.02 2023.2C1218.95 2029.51 1214.19 2038.36 1220.76 2046.82C1245.57 2078.8 1250.52 2035.6 1258.04 2019.1C1260.9 2012.84 1273.72 2008.33 1279.47 2012.94C1289.48 2020.96 1284 2053.4 1284 2065C1284 2068.61 1282.13 2081.67 1286.6 2083.24C1289.99 2084.43 1295.52 2074.85 1298.05 2072.98C1308.75 2065.08 1323.2 2064.46 1333.56 2055.84C1335.19 2054.49 1343.5 2049.44 1342.24 2046.83C1340.48 2043.18 1330.56 2052.34 1329 2053.46C1317.59 2061.63 1300 2070.07 1287 2075M189 1926.82C213.137 1927.18 207.247 1978.72 191 1978.61C160.176 1978.42 162.274 1926.42 189 1926.82M882 2010C873.672 2011.88 844.307 2031.79 837.686 2027.56C832.773 2024.41 847.107 2005.35 849.337 2002C859.958 1986.06 869.904 1969.46 881.202 1954C887.167 1945.84 897.015 1938.33 901 1929C892.277 1932.13 886.459 1942.82 880.96 1949.92C867.552 1967.25 853.945 1984.99 842.906 2004C839.701 2009.52 828.862 2023.17 831.125 2029.72C832.818 2034.62 840.507 2032.49 844 2031.32C852.701 2028.4 878.224 2018.06 882 2010M540 2013C537.388 2019.73 523.425 2030.66 515.94 2025.22C509.057 2020.21 507.31 2010.14 500.742 2004.56C495.029 1999.71 484.662 1999.56 480.122 1993.72C472.953 1984.49 470.965 1972.75 461.919 1964.46C454.549 1957.7 442.061 1948.05 433 1957C448.815 1957.15 461.017 1967.41 467.852 1981C469.47 1984.22 475.016 1990.65 472.731 1994.43C469.837 1999.21 448.972 1995.98 451.466 2006.45C451.79 2007.81 469.983 1998.34 475.517 2003.6C485.286 2012.9 477.24 2031.78 466 2035.22C456.308 2038.18 448.988 2032.78 440 2031C446.434 2048.35 481.054 2040.99 482.842 2023C483.194 2019.45 480.493 2003.23 484.37 2002.53C502.711 1999.18 503.625 2031.22 519.003 2030.89C542.119 2030.39 541.189 2014.68 550.362 1999.24C555.241 1991.02 571.547 1975.14 579.187 1968.98C591.385 1959.15 611.843 1953.83 619 1939C585.765 1952.4 564.251 1979.12 543.703 2004.14C540.985 2007.45 535.038 2003.39 532.549 2007.58C529.582 2012.57 537.169 2012.96 540 2013M891 1994C881.078 1986.84 884.635 2003.24 884.895 2009C885.713 2027.17 888.093 2045.68 889.05 2064C889.337 2069.48 893.502 2080.79 900 2075C906.033 2079.61 908.038 2069.59 913.027 2066.67C926.028 2059.08 947.889 2046.74 952 2031C934.952 2034.8 922.398 2064.89 905.187 2065.7C900.101 2065.93 899.469 2057.38 898.178 2053.96C894.503 2044.23 888.365 2018.2 895.985 2009.46C902.107 2002.44 913.407 2007.58 919 1999C913.516 1998.56 900.717 2005.34 896.822 2002.02C890.749 1996.85 898.33 1977.94 897.561 1971.07C896.668 1963.09 891.163 1969.05 891.985 1975C892.356 1977.69 892.22 1980.3 892.029 1983C891.769 1986.68 891.22 1990.32 891 1994M171 1994.64C161.986 1996.82 151.1 2006.37 147.849 2015C146.796 2017.8 143.946 2031.54 150.62 2030.46C154.231 2029.87 150.86 2018.84 151.948 2016C154.485 2009.37 162.682 2003.2 169 2000.42C189.748 1991.27 157.686 2020.06 168.934 2016.73C180.757 2013.22 189.959 1990.06 171 1994.64M1253 2017C1252.92 2025.68 1251.31 2051.85 1240.02 2053.76C1228.92 2055.62 1219.81 2040.27 1224.62 2031.04C1229.45 2021.76 1243.66 2018.97 1253 2017z"/>
</svg>
