<?xml version="1.0" standalone="yes"?>
<svg xmlns="http://www.w3.org/2000/svg" width="2200" height="2200">
<path style="fill:#0d0d0d; stroke:none;" d="M208 124C182.978 124.475 171.728 131.525 156.662 108.019C153.936 103.765 148.414 94.7988 150.12 89.4719C151.344 85.6487 157.823 83.0261 160 79C154.499 80.5457 149.807 85.2913 144 84C142.997 90.1013 146.529 97.2329 148.611 103C160.201 135.111 182.235 134.559 212 128.281C217.428 127.137 223.504 122.146 228.778 121.977C241.856 121.558 242.448 148.337 261.999 137.172C273.685 130.499 294.359 83.4382 269.001 82.4319C253.063 81.7996 246.207 104.475 234 111C233.887 98.7502 232.927 85.7671 220.559 79.7432C208.28 73.7625 193.01 92.6328 194.197 104C195.108 112.728 203.096 117.547 208 124M213.999 83.6687C229.014 80.9683 236.577 115.984 219.999 119.085C198.03 123.195 191.508 87.7139 213.999 83.6687M235 117C245.95 110.337 251.917 93.5466 262.49 88.2839C268.26 85.4124 275.899 88.3647 276.662 95.0813C278.527 111.513 260.598 149.445 241.994 128.239C239.059 124.893 236.94 120.976 235 117M849 147C850.45 133.547 891.929 136.871 887.399 156.873C886.225 162.055 878.106 164.024 874 166.19C859.768 173.698 842.865 179.216 827 181.911C823.393 182.524 812.548 181.022 810.106 183.25C804.968 187.936 835.991 195.222 839 195.56C845.953 196.343 853.004 195.003 860 195C850.043 208.007 819.883 212.036 816.702 229C810.234 263.493 857.075 267.234 874.582 246.951C883.166 237.007 885.541 220.651 882.337 208C881.219 203.587 873.817 197.105 875.322 192.864C889.751 152.189 943.61 141.167 978 120.599C987.35 115.007 997.721 112.076 1006.99 106.918C1008.53 106.06 1015.99 101.813 1012.97 99.2979C1010.01 96.8318 1002.8 101.062 1000 102.337C987.679 107.956 975.829 114.861 964 121.438C947.59 130.563 930.993 139.161 914 147.201C909.552 149.305 900.461 155.775 895.453 154.674C891.679 153.844 888.443 143.95 885.756 141.051C879.644 134.457 872.408 134.707 864 135.043C858.057 135.28 832.031 144.189 849 147M1556 122C1556.94 119.947 1557.53 118.205 1558 116C1553.52 119.749 1550.53 140.501 1549.11 147C1543.28 173.564 1527.54 200.561 1527 228C1534.88 224.691 1535.89 210.444 1538.07 203C1543.17 185.582 1549.04 168.403 1554.13 151C1556.18 143.971 1556.75 134.586 1563.34 129.94C1571.63 124.093 1582.95 134.291 1581.75 143C1578.63 165.661 1553.03 185.237 1550.85 206.951C1550.25 212.925 1558.65 215.2 1560 221C1566.18 219.448 1587.26 224.157 1590.46 217.577C1591.21 216.015 1562.3 216.059 1560.29 205.914C1559.04 199.554 1565.52 191.323 1568.23 186C1576.54 169.682 1591.73 151.647 1585.7 133.069C1583.02 124.846 1572.61 126.471 1568 120C1573.74 118.829 1577.94 117.162 1579 111C1569.8 112.565 1564.54 120.419 1556 122M544 264C538.462 282.226 505.464 302.782 490.879 282.981C475.686 262.354 474.837 225.897 482.422 202.217C489.888 178.907 501.66 169.002 520.32 155.218C529.844 148.183 545.142 155.6 546 167C541.05 164.628 535.849 158.994 529.992 159.75C503.246 163.205 499.473 219.435 534 215C527.713 221.84 497.047 261.55 495 231C490.182 236.55 494.834 246.903 502.004 247.774C509.932 248.738 516.592 242.971 521.856 237.78C537.394 222.457 552.066 201.522 551.997 179C551.935 159.067 542.458 143.123 520 148.985C478.458 159.829 473.154 213.266 474.922 248C475.712 263.521 479.042 283.456 493.01 293.033C507.257 302.801 526.022 291.452 537.974 282.953C543.919 278.725 552.588 269.697 544 264M919 158C932.892 157.787 922.939 149.16 919 158M1584 159L1585 160L1584 159M1915 208C1916.29 201.943 1918.01 197.603 1912 194C1912.57 199.283 1912.06 202.361 1908 206C1907.97 204.004 1908.77 191.509 1904.54 193.106C1897.13 195.899 1905.84 214.315 1912.07 215.319C1924.36 217.3 1932.5 195.995 1939 189C1941.11 213.622 1924.2 241.18 1929 266C1947.02 252.898 1952.54 222.845 1962.24 204C1965.96 196.763 1972.06 183.197 1981.96 182.961C1988.35 182.808 1989.35 191.458 1988.84 196C1987.14 211.206 1981.01 228.865 1986.91 243.997C1990.19 252.401 2005 251.581 2005 242.133C2005 236.638 1993.94 244.234 1992 245C1993.14 229.376 1997.49 204.117 1994.57 189.019C1991.56 173.484 1976.28 176.62 1967.72 185.375C1951.44 202.022 1951.3 228.31 1937 245C1933.55 228.564 1941.06 197.235 1945.78 181C1946.54 178.399 1954.9 162.003 1949.03 162.003C1944.74 162.003 1942.12 172.018 1940.45 175C1934.6 185.476 1925.72 202.269 1915 208M527.616 163.968C535.157 160.978 544.16 171.739 545.047 178.003C546.948 191.424 542.169 205.977 528 210.699C507.797 217.431 513.337 169.63 527.616 163.968M1989 166L1988 171C1989.23 169.037 1989.5 168.257 1989 166M885 168C876.389 197.691 850.292 194.401 825 188C829.951 183.726 837.81 184.533 844 182.842C857.67 179.106 871.239 169.952 885 168M192.979 190.14C183.374 191.702 184.292 205.771 176.166 208.25C165.947 211.367 163.195 201.114 154.994 198.544C151.181 197.349 128.47 201.594 125.519 205.108C114.743 217.938 118.738 242.883 125.445 256C126.953 258.948 125.418 269.437 129.251 269.3C135.229 269.087 136.76 260.997 141.538 260.059C145.631 259.256 148.867 265.597 153.978 264.436C159.952 263.079 159.643 255.435 164.518 253.71C173.555 250.512 189.272 250.733 196.941 240.852C202.849 233.241 213.455 222.594 215.46 213C218.285 199.483 204.589 188.252 192.979 190.14M196 196C193.934 196.554 192.134 196.851 190 197C191.969 194.262 193.481 193.489 196 196M1212 223C1208.04 232.519 1196.13 242.892 1195.46 253C1194.53 267.151 1209.55 264.747 1215.51 256.992C1225.72 243.714 1220.61 225.864 1235 215C1231.69 226.843 1224.24 260.89 1244 263.477C1250.96 264.388 1271.53 245.312 1268.9 237.844C1266.64 231.411 1248.2 269.511 1239.62 253.896C1227.05 231.012 1253.5 212.593 1249 193C1241.29 199.923 1236.09 208.488 1227 214C1227.9 211.735 1229.05 209.441 1229.31 206.989C1232.31 178.669 1217.61 217.423 1211.14 216.677C1203.1 215.75 1201.84 192.433 1198.27 193.969C1189.62 197.69 1204.69 222.042 1212 223M866.997 199.786C881.028 198.121 879.041 225.041 876.618 233C871.905 248.482 855.524 253.083 841 254.458C828.107 255.678 814.361 239.643 821.381 227.06C826.109 218.583 857.364 200.93 866.997 199.786M153 224C148.421 220.66 145.186 201.939 154.581 203.323C163.089 204.576 160.465 226.1 155.115 229.592C151.059 232.24 152.391 225.475 153 224M205 202C203.933 206.102 203.057 209.726 203 214C198.894 210.901 199.737 203.236 205 202M128 206C142.547 201.255 136.284 218.935 128 206M201 225C200.324 218.219 205.817 210.495 208 204C215.819 210.04 207.34 221.233 201 225M184.852 208.643C183.542 208.643 189.412 243.122 175.984 242.772C160.582 242.37 178.989 208.643 184.852 208.643M193 207C194.311 210.87 194 214.944 194 219C188.596 217.189 191.022 211.083 193 207M172 209C171.297 213.833 169.834 216.615 165 218C166.158 213.483 167.807 211.12 172 209M136 225C119.663 222.077 132.332 207.816 136 225M144 219L144 223C143.493 221.307 143.493 220.692 144 219M170 223C162.004 243.811 158.254 227.281 170 223M143 224.333C143.773 224.333 143.16 224.831 142.667 224.667L143 224.333M124 226C133.809 227.392 125.244 236.99 124 226M493.333 228.667C493.277 228.723 493.223 229.777 493.667 229.333C493.722 229.278 493.778 228.222 493.333 228.667M148 230C149.359 232.349 150.287 234.386 151 237C147.083 236.08 146.687 233.583 148 230M142 240C135.502 232.763 144.345 229.781 142 240M126 243C124.581 235.584 131.381 237.484 126 243M136 239C139.772 257.081 121.444 248.01 136 239M155 253C146.54 231.961 169.697 246.182 155 253M1217 242C1215.02 249.704 1211.85 258.809 1203 260C1205.66 253.332 1211.16 248.058 1215 242L1217 242M177 247C173.413 252.199 168.2 250.401 166 245C169.706 245.837 173.19 246.792 177 247M155 261C140.302 258.581 148.564 241.11 155 261M137 256C135.049 263.367 130.899 258.808 137 256M144 538C137.998 506.587 183.109 506.793 195.771 528.007C203.846 541.536 204.892 570.219 183.086 568.388C177.107 567.886 174.526 559.65 170.176 556.284C161.406 549.499 146.037 556.07 141.384 565.041C128.167 590.52 173.545 609.58 191.981 597.86C204.366 589.986 199.949 577.125 206.939 567.205C215.263 555.394 236.551 560.081 248 561C242.349 546.449 216.604 556.649 206 559C205.999 532.718 188.147 489.596 154.001 509.523C147.469 513.335 129.608 533.68 144 538M134 507C135.226 511.354 136.205 515.301 140 518C139.26 513.343 137.373 510.262 134 507M1179 615C1202.37 652.859 1254.5 609.886 1261.6 581C1264.86 567.747 1262.93 547.748 1248 542.911C1241.65 540.853 1234.59 541 1228 541C1219.47 540.999 1212.01 540.74 1204 544C1217.43 507.126 1270.58 519.021 1284.28 549C1292.11 566.131 1286.21 593.193 1301.27 606.576C1318.64 622.017 1358.31 584.661 1360 568C1346.05 573.851 1327.9 611.932 1308.04 604.396C1297.16 600.267 1296.28 583.578 1294.99 573.981C1292.37 554.47 1289 539.397 1273 526.343C1259.63 515.44 1237.61 510.893 1221.22 517.776C1217.42 519.37 1207.03 530.549 1204.01 529.926C1191.87 527.426 1189.38 499.636 1169.02 511.483C1147.69 523.894 1163.05 540.38 1159.7 556.922C1157.55 567.53 1141.16 571.411 1137.67 583C1134.01 595.174 1127.85 614.498 1133.04 626.981C1143.72 652.679 1169.94 626.826 1179 615M1177.08 513.866C1189.41 513.64 1202.66 532.661 1197.07 543.931C1193.64 550.852 1174.66 556.039 1167.2 555.48C1153.43 554.448 1159.91 514.182 1177.08 513.866M1558 544C1572.92 508.53 1621.04 527.159 1620.99 561.999C1620.99 568.062 1618.03 590.65 1610.86 591.498C1599.24 592.873 1584.83 581.714 1577.22 573.903C1574.4 571.003 1569.94 561.309 1565.08 562.465C1556.59 564.486 1561.58 587.597 1563.76 593C1565.64 597.63 1568.26 601.929 1571.14 606C1592.57 636.275 1603.38 602.847 1624 597.169C1629.77 595.582 1666.36 585.262 1666.36 579.397C1666.36 575.927 1657.59 578.625 1656 579.09C1650.12 580.808 1627.17 594.156 1622.23 589.36C1619.54 586.759 1625.23 571.813 1625.67 568C1627.21 554.653 1623.35 536.361 1611.96 528.026C1593.22 514.313 1563.34 514.37 1554.32 539C1541.06 575.214 1552.55 622.592 1526.76 654.716C1514.74 669.701 1514.3 636.094 1509.54 640.571C1500.19 649.357 1517 670.521 1528.68 662.06C1535.23 657.318 1539.41 643.443 1541.88 636C1550.36 610.473 1551.69 584.381 1555.24 558C1555.79 553.99 1573.66 533.021 1571.2 531.76C1569.41 530.847 1560.22 542.453 1558 544M869 578C869.15 605.223 890.249 623.062 908.742 639.18C915.971 645.481 921.259 654.594 932 654.852C946.613 655.203 963.661 638.931 975 631.054C977.13 629.574 987.28 624.245 986.677 621.206C985.627 615.915 972.781 625.437 971.136 626.599C959.95 634.504 936.919 656.495 923.02 645.591C906.253 632.438 945.538 628.212 941.55 609.008C938.645 595.022 921.091 600.853 921 586C945.525 589.835 950.126 558.796 935.325 544.531C930.419 539.802 923.357 547.246 922.263 552.04C921.296 556.279 920.57 560.714 919.769 565C918.776 570.31 917.372 575.609 917 581C906.382 575.687 883.085 564.819 875.284 556.998C865.738 547.429 858.658 532.205 845 527.123C834.066 523.055 813.44 535.808 819.708 548.764C824.487 558.642 839.986 559.026 849 556.542C851.867 555.753 861.092 551.118 862.214 556.427C863.092 560.579 852.64 562.786 850 564.177C838.812 570.073 818.737 576.921 811.937 588.019C803.675 601.506 819.038 630.23 835.997 622.296C854.106 613.824 856.155 590.601 869 578M421 562C421.262 558.214 422.127 554.684 423 551C416.95 554.692 415.203 570.696 423.664 565.031C434.153 558.008 434.039 540.772 445 534C445.02 542.191 447.451 559.775 441.181 566.197C430.966 576.661 415.693 571.526 406.585 588C400.369 599.244 403.326 640.173 424.844 628.27C442.148 618.697 434.453 589.798 445.24 576.501C450.31 570.251 468.712 576.233 476 575.559C499.567 573.379 513.657 548.736 538 551C534.068 542.093 524.863 546.235 518 549.481C489.434 562.991 477.174 569.925 445 568C447.322 563.21 453.622 523.774 442.065 529.929C430.987 535.829 429.531 553.59 421 562M1978 528C1974.61 533.092 1971.74 538.109 1970 544C1974.73 540.692 1980.79 533.974 1978 528M830 547C827.359 551.737 824.481 551.123 823 546C831.13 545.585 826.708 534.078 835.081 531.624C841.679 529.69 861.104 539.999 857.394 548.275C853.475 557.017 833.731 553.519 830 547M599 533C584.591 553.813 561.482 570.776 542 586.698C533.86 593.351 527.074 602.169 517 606C517.462 593.008 521.599 579.643 524.446 567C524.926 564.867 528.745 555.118 524.775 554.426C521.99 553.94 519.725 564.036 519.328 566.078C517.662 574.653 507.579 601.091 514.822 608.17C521.361 614.562 535.855 599.995 540 595.989C556.175 580.356 598.414 557.004 601 533L599 533M837 547L839 547L839 537C833.503 538.282 836.382 542.803 837 547M2030 574C2024.81 577.899 2026.23 586.1 2019.89 588.958C2007.1 594.73 1984.66 584.265 1972 580.934C1968.49 580.009 1958.79 578.021 1958.06 573.619C1955.99 561.061 1983.02 551.971 1981 537C1970.18 544.407 1961.95 565.279 1949.92 569.276C1944.38 571.119 1926.96 559.408 1924.57 562.884C1920.28 569.093 1933.28 585.317 1932.07 593C1929.89 606.858 1912.09 615.118 1909.1 627.716C1908.17 631.678 1944.79 628.082 1949.16 625.179C1952.69 622.828 1947.92 613.928 1946.89 611C1943.02 599.985 1937.52 590.015 1950.46 581.919C1955.63 578.682 1963.85 584.914 1969 586.296C1994.28 593.087 2025.44 608.398 2030 574M1225 546.986C1233.27 547.351 1244.03 543.914 1251.31 549.803C1281.35 574.104 1231.47 624.774 1205 622.863C1171.63 620.454 1186.82 595.601 1193.84 575C1196.09 568.4 1195.73 556.928 1200.86 551.892C1205.32 547.505 1219.01 546.721 1225 546.986M931.196 549.643C943.881 549.643 942.493 581.435 926.148 581.649C916.909 581.771 928.692 549.643 931.196 549.643M869 554L868 555L869 554M1193 554C1190.17 561.059 1181.69 567.489 1177 559C1182.54 557.535 1187.63 556.076 1193 554M177 572C172.955 573.373 169.218 575.194 165 576C164.465 573.937 162.384 570.516 160.843 574.354C158.646 579.827 165.329 587.622 171.007 586.515C180.766 584.611 187.957 572.548 200 570C194.226 600.919 152.956 610.286 145.555 574C141.117 552.24 170.234 560.712 177 572M1172 562C1181.76 569.555 1176.37 610.925 1166.77 620.912C1161.78 626.107 1150.59 635.742 1143.05 631.052C1122.82 618.465 1146.62 554.813 1172 567C1171.76 565.151 1171.69 563.816 1172 562M1193 563C1192.05 568.494 1182.95 596.158 1179 597C1179 582.783 1183.19 574.56 1191 563L1193 563M862.716 564.784C869.625 564.618 863.157 577.439 861.905 580C856.474 591.111 844.974 619.658 830.166 620.208C821.378 620.535 812.321 596.208 816.067 589.088C820.363 580.922 853.363 565.008 862.716 564.784M906 632C888.482 621.977 879.936 602.596 874.897 584C873.739 579.728 869.353 569.087 873.26 565.267C880.127 558.552 914.142 581.297 915.716 588.234C918.385 599.999 908.628 602.923 904.424 612.007C901.313 618.728 904.658 625.344 906 632M1173 569L1173 574C1174.18 571.806 1174.18 571.194 1173 569M1947 574C1940.91 591.536 1933.14 584.595 1930 570C1935.83 570.774 1941.13 573.333 1947 574M1567 572C1581.42 583.878 1591.95 597.489 1612 597C1595.74 631.419 1558.56 597.334 1567 572M441 574C437.81 584.423 434.084 620.034 422.815 624.111C412.367 627.891 405.445 609.529 406.219 602C408.111 583.609 424.175 574.069 441 574M174 579C173.227 580.176 173.176 580.227 172 581C172.545 579.365 172.365 579.545 174 579M171 582C169.824 581.227 169.773 581.176 169 580C170.635 580.545 170.455 580.365 171 582M915 603C917.944 608.574 915.116 615.894 915 622L910 617C919.011 643.396 918.986 578.268 935.915 608.048C943.389 621.196 900.602 645.065 909.245 613.078C910.256 609.336 913.12 606.329 915 603M1918 625C1920.73 621.137 1931.3 601.643 1935.77 601.643C1939.71 601.643 1944 618.145 1941.68 620.74C1938.96 623.795 1922.47 624.425 1918 625M1527 631C1526.01 632.478 1526 632.203 1526 634C1527.29 632.557 1527.4 632.766 1527 631M467 924C451.237 933.424 477.086 937.255 480.302 944.243C482.945 949.985 480.186 957.82 481.979 964C487.308 982.36 504.451 993.32 523 993.959C550.757 994.916 567.474 971.468 560.644 945C559.137 939.162 546.993 924.025 551.628 918.833C563.72 905.288 588.033 893.537 605 887.562C609.736 885.894 623.996 886.003 626.908 883.605C628.26 882.491 625.947 875.051 626 873C599.919 888.381 567.598 893.563 545.389 916.827C540.461 921.99 558.722 949.827 557.558 960C552.932 1000.43 495.855 994.942 486.082 961C484.822 956.623 484.48 946.436 487.822 942.861C491.878 938.522 499.882 940.024 504.999 937.76C517.048 932.43 529.26 908.195 515.973 898.927C492.761 882.736 488.386 923.303 480.695 932.51C476.475 937.562 468.644 927.462 467 924M257 881.802C218.949 894.082 257.597 931.349 260.754 951C261.901 958.14 250.492 971.726 248.837 980C246.406 992.155 254.518 1006.68 252.105 1017C249.286 1029.05 232.687 1035.26 222 1034.98C219.208 1034.91 206.735 1029.3 206.034 1032.39C204.283 1040.09 222.087 1040.03 226 1039.99C238.397 1039.87 243.85 1028.88 253.861 1027.87C265.538 1026.69 270.435 1043 287 1035.85C293.015 1033.26 313.391 1010.61 308.47 1002.97C305.587 998.496 300.173 1010.99 299.42 1012.44C293.217 1024.4 272.672 1044.33 261.987 1024C259.114 1018.53 269.769 1000.27 271.904 994C276.149 981.53 268.731 966.719 272.052 955.704C273.345 951.416 281.766 948.938 284.901 945.873C292.354 938.585 294.112 929.974 293.992 920C293.784 902.666 277.785 875.095 257 881.802M259 886.743C287.965 877.705 303.775 942.573 270.097 949.394C263.534 950.723 259.718 938.321 257.161 934C249.18 920.51 236.823 893.663 259 886.743M1960 906C1930.68 906.689 1935.15 954.688 1965 942C1964.13 951.347 1956.47 983.628 1964.69 990.079C1977.4 1000.07 1995.55 968.627 2001 962C1987.44 953.5 1981.48 990.208 1970.12 980.901C1965.06 976.751 1969.47 964.316 1969.86 959C1970.72 947.471 1975.33 934.534 1973.69 923C1970.36 899.536 1952.18 889.293 1934.08 905.354C1927.72 910.996 1921.67 916.667 1915 922C1917.93 912.186 1923.18 900.529 1915.09 891.365C1904.29 879.132 1880.21 899.225 1877.25 910C1874.02 921.764 1883.8 935.842 1896.92 930.488C1898.94 929.664 1907.79 919.825 1908.38 921.003C1917.47 939.224 1877.78 956.988 1871.5 969.021C1867.57 976.563 1870.52 988.42 1880 989.467C1887.92 990.341 1895.37 982.584 1898.13 975.992C1908.16 952.054 1910.62 934.538 1931 916.559C1939.05 909.455 1949.41 895.048 1960 906M111 922C109.007 919.88 101.648 892.431 101 911C84.4018 900.234 77.8334 921.429 74.8974 935C67.9712 967.015 70.9981 999.331 81 1030C69.2665 1025.51 70.9628 1004.88 60 1002C61.1656 1015.79 77.1906 1047.34 95.9403 1037.62C101.301 1034.84 105.145 1017.68 108.479 1017.44C114.361 1017.02 119.028 1029.83 121 1034C125.103 1032.33 128.283 1027.93 133.001 1028.21C140.53 1028.65 148.64 1035.93 155.999 1033.97C169.104 1030.49 180.57 995.337 182 983C166.89 990.842 168.454 1035.21 146.04 1026.75C137.867 1023.67 144.77 1009.94 144.989 1003C145.517 986.228 146.844 969.764 144.664 953C143.527 944.26 137.598 932.7 138.536 924.136C139.628 914.166 152.955 909.219 149.458 897.205C147.462 890.348 133.974 891.304 129 893.486C117.394 898.577 111.871 909.679 111 922M1906.5 894.495C1915.95 896.136 1901.28 928.802 1890.96 927.891C1870.96 926.125 1887.74 891.239 1906.5 894.495M136.003 897.402C150.833 894.997 142.905 915.997 137.266 915.997C131.532 915.997 125.23 899.15 136.003 897.402M486 937C487.008 928.019 498.589 889.276 514.706 903.512C531.961 918.754 494.903 934.594 486 937M114 939C112.149 924.88 118.917 914.901 123 902C141.359 911.167 128.008 933.898 114 939M881 908C883.141 906.474 883.503 905.598 884 903C880.97 903.856 880.717 904.92 881 908M1601 984C1591.93 982.399 1556.43 974.839 1549.42 979.267C1542.13 983.878 1524.94 1026.25 1533 1030C1535.35 1021.64 1546.52 985.699 1555.26 983.822C1565.73 981.575 1587.49 987.33 1599 988.225C1602.37 988.487 1613.06 991.493 1615.59 988.762C1618.49 985.642 1603.04 979.082 1601 978.081C1585.54 970.495 1555.97 930.94 1588 921.908C1601.2 918.184 1610.69 939.275 1614.81 947.993C1623.92 967.283 1631.41 1019.4 1663 1005.51C1668.94 1002.9 1674.04 998.971 1679.32 995.281C1685.83 990.733 1697.92 985.112 1700 977C1686.35 981.219 1661.52 1010.46 1647 1001.61C1623.47 987.268 1624.59 905.678 1584 918C1584.88 913.974 1585.31 910.114 1585 906C1579.86 909.481 1581.14 914.922 1578.55 920C1569.64 937.441 1565.88 955.285 1582.04 970.903C1587.72 976.388 1595.76 978.394 1601 984M1896 923C1895.1 917.23 1892.13 913.023 1893 907C1885.34 909.853 1889.64 921.146 1896 923M77 966C69.3141 959.074 80.7536 912.577 92.094 910.708C101.073 909.228 101.883 942.014 99.9965 947.705C97.4804 955.293 90.9154 938.259 86.0438 939.721C78.7572 941.908 77.3751 959.782 77 966M1220 910L1221 911L1220 910M1944 931C1944.17 922.417 1949.09 908.362 1960.72 911.582C1964.31 912.574 1966.4 920.006 1963.73 922.74C1960.73 925.817 1948.77 927.943 1944 931M1219 919C1222.22 920.131 1225.64 920.4 1229 921C1226.22 916.96 1223.29 917.215 1219 919M104 937C101.125 932.72 101.464 927.978 101 923C106.93 924.393 105.264 932.354 104 937M132.992 930.02C138.096 929.069 139.358 946.57 139.858 950C142.459 967.832 142.971 986.04 141.096 1004C140.635 1008.41 140.381 1019.5 134.829 1020.89C128.39 1022.51 129.057 1004.72 129.007 1001C128.768 983.31 106.587 934.941 132.992 930.02M1205 939C1205.56 935.756 1206.67 933.006 1208 930C1202.81 930.571 1198.47 936.7 1205 939M1954.69 929.822C1961.9 925.657 1967.43 934.396 1959.73 938.547C1954.61 941.303 1949.97 932.556 1954.69 929.822M535 934C533.814 935.186 533.472 935.584 533 937C534.548 935.738 534.808 935.806 535 934M793 1004C799.531 1005.86 800.794 1000.19 799 995C800.311 995.288 810.944 997.569 807.592 992.869C804.115 987.992 794.178 992.295 791.879 996.199C786.637 1005.1 787.412 1015.43 793.236 1023.89C804.559 1040.35 846.236 1021.73 841 1001C840.514 1002.43 833.987 1025.09 829.911 1016.43C828.021 1012.41 832.548 1003.99 833.734 1000C836.873 989.453 834.942 978.865 836 968C837.688 968.864 839.18 969.478 841 970C839.877 964.995 836.109 961.436 837.422 955.999C841.019 941.107 864.297 935.253 875.815 945.416C896.202 963.405 871.747 991.69 886.122 1012C890.405 1018.05 896.703 1027.51 905 1027.65C915.661 1027.82 936.905 1005.89 934.322 994.49C932.49 986.411 902.663 985.702 904.106 989.555C906.484 995.908 921.857 987.321 922 1001C929.547 1006.68 908.703 1028.09 898.258 1017.8C893.867 1013.48 888.631 1007.18 887.428 1001C882.444 975.427 900.377 937 859 937C853.011 937 846.344 935.967 841.605 940.365C820.317 960.122 843.854 1000.32 820.742 1018.7C805.572 1030.76 792.686 1022.47 793 1004M87.0593 944.643C88.7669 944.643 95.5028 956.317 95.9198 958.136C97.0669 963.14 92.6769 970.661 92.8667 976.398C93.2892 989.17 102.476 997.755 97.6186 1011C96.2454 1014.74 92.6796 1030.49 87.1374 1029.68C82.5371 1029 80.9278 1018.56 80.0428 1015C75.9574 998.545 77.9294 979.485 80.8162 963C81.3301 960.066 82.9956 944.643 87.0593 944.643M1166 1007C1166.7 1023.1 1183.04 1008.42 1186.59 1002C1194.07 988.455 1191.03 968.448 1200.56 957.184C1207.53 948.936 1221.73 945.767 1227.74 957.081C1241.53 983.029 1179.66 986.509 1201.68 1015.85C1217.57 1037.01 1266.69 1014.15 1262 990C1251.8 1000.69 1240.68 1016.43 1225 1019.53C1216.07 1021.29 1203.35 1013.69 1204.28 1004C1204.79 998.628 1207.02 994.728 1211 991.139C1217.12 985.638 1225.3 985.603 1230.68 978.995C1241.54 965.661 1233.11 944.893 1216 943.134C1190.25 940.487 1190.17 977.232 1185.12 993C1182.13 1002.35 1175.15 1012.92 1166 1007M115 946C119.835 968.704 126.953 992.519 126 1016C109.532 1005 108.628 963.278 113 946L115 946M1902 948C1901.44 955.997 1890.46 990.279 1878.29 983.587C1863.14 975.261 1895.55 952.253 1902 948M822 954L821 960C822.288 957.762 822.613 956.512 822 954M1204 960C1212.65 959.703 1209.56 954.821 1204 960M264.922 960.065C269.932 959.004 269.952 968.075 269.992 971C270.076 977.178 267.149 1011.36 258.148 1011.36C254.92 1011.36 254.308 1000.24 254.139 998C253.502 989.546 253.46 962.494 264.922 960.065M102 962C105.209 970.404 103.218 978.412 102 987C97.3624 981.229 97.1233 967.651 102 962M85.3333 967.667C85.2779 967.722 85.2223 968.778 85.6667 968.333C85.7223 968.278 85.7778 967.222 85.3333 967.667M83 984L83 990C83.7545 987.697 83.7545 986.303 83 984M90 987C88.8576 990.959 88.2479 994.887 88 999C91.1536 995.451 91.7121 991.648 92 987L90 987M109 994C115.625 1016.46 103.843 1008.18 109 994M86 1004L84 1013C86.3581 1010.07 87.1194 1007.65 86 1004M104 1012C103.136 1019.6 100.798 1030.97 93 1034C96.1692 1026.92 99.1453 1018.02 104 1012M119 1023C126.962 1024.83 123.054 1030.89 119 1023M1717 1186C1718.51 1186.68 1719.32 1186.83 1721 1187C1719.49 1186.32 1718.69 1186.17 1717 1186M1766 1187C1780.35 1193.58 1801.62 1188.72 1817 1189C1805.71 1182.51 1779.24 1187.02 1766 1187M1447 1188L1450 1190L1450 1187C1448.2 1187 1448.48 1187.01 1447 1188M1590 1190C1597.76 1191.25 1608.66 1190.83 1616 1188C1609.35 1186.28 1596.14 1186.83 1590 1190M1624 1188L1624 1190C1637.3 1190.67 1649.77 1190.01 1663 1189C1654.01 1183.37 1634.55 1188 1624 1188M1686 1188C1692.64 1192.47 1701.47 1190.87 1709 1190C1702.98 1186.22 1692.74 1186.29 1686 1188M1741 1189C1746.12 1191.23 1751.95 1189.95 1757 1188C1751.6 1186.18 1746.42 1188.09 1741 1189M1936 1189L1939 1187L1936 1189M2175 1190C2178.49 1189.89 2180.73 1189.76 2183 1187C2179.69 1187.25 2177.32 1187.54 2175 1190M1284 1189C1292.89 1192.72 1302.73 1190.33 1312 1190C1304.69 1186.61 1291.95 1188.02 1284 1189M1417 1189C1421.16 1190.41 1425.64 1190 1430 1190C1425.86 1187.41 1421.64 1188.18 1417 1189M1432 1189C1433.98 1189.54 1434.96 1189.43 1437 1189C1435.18 1188.69 1433.85 1188.76 1432 1189M1532 1188C1534.06 1189.23 1535.62 1189.66 1538 1190C1535.98 1188.92 1534.27 1188.42 1532 1188M1850 1188L1850 1190L1855 1189C1853.25 1188.36 1851.87 1188.14 1850 1188M1860 1188L1863 1189L1860 1188M1895 1188C1897.37 1188.82 1899.49 1188.95 1902 1189C1899.63 1188.18 1897.51 1188.05 1895 1188M1928 1188L1929 1189L1928 1188M1950 1188C1952.06 1188.72 1953.8 1188.91 1956 1189C1953.94 1188.28 1952.2 1188.09 1950 1188M2033 1188L2036 1190L2033 1188M2046 1188L2047 1189L2046 1188M2049 1188L2050 1189L2049 1188M2163 1189C2164.78 1189.96 2165.02 1189.77 2166 1188L2163 1189M1500 1189C1494.65 1190.75 1489.54 1190.05 1484 1190L1484 1192C1487.36 1192 1500.79 1193.78 1500 1189M1542 1191C1545.87 1192.31 1549.94 1192 1554 1192C1550.36 1188.93 1546.41 1190.66 1542 1191M1554.67 1189.33C1554.22 1189.78 1555.28 1189.72 1555.33 1189.67C1555.78 1189.22 1554.72 1189.28 1554.67 1189.33M1729 1189C1731.37 1189.82 1733.49 1189.95 1736 1190C1733.63 1189.18 1731.51 1189.05 1729 1189M1760 1189L1761 1190L1760 1189M2157 1189C2158.51 1189.68 2159.31 1189.83 2161 1190C2159.49 1189.32 2158.69 1189.17 2157 1189M816 1190C817.506 1190.68 818.315 1190.83 820 1191C818.494 1190.32 817.685 1190.17 816 1190M1327 1190C1327.55 1191.64 1327.36 1191.45 1329 1192C1328.23 1190.82 1328.18 1190.77 1327 1190M1334.67 1190.33C1334.22 1190.78 1335.28 1190.72 1335.33 1190.67C1335.78 1190.22 1334.72 1190.28 1334.67 1190.33M771 1191L772 1192L771 1191M785.667 1191.33C785.222 1191.78 786.278 1191.72 786.333 1191.67C786.778 1191.22 785.722 1191.28 785.667 1191.33M1557 1191C1561.36 1192.82 1565.39 1192.77 1570 1192C1565.84 1190.59 1561.36 1191 1557 1191M711 1193L711 1195L716 1194C714.25 1193.36 712.873 1193.14 711 1193M41 1194L42 1195L41 1194M47 1194C47.7732 1195.18 47.8244 1195.23 49 1196C48.455 1194.36 48.6351 1194.55 47 1194M424 1194L425 1195L424 1194M152 1195L155 1196L152 1195M280 1195C281.543 1196.27 282.048 1196.49 284 1197C282.457 1195.73 281.952 1195.51 280 1195M292 1195L292 1197L295 1197L295 1195L292 1195M384 1199C389.43 1197.71 394.411 1197.01 400 1197L400 1195C395.667 1195 385.018 1194.25 384 1199M403 1196C405.372 1196.82 407.487 1196.95 410 1197C407.535 1195.96 405.673 1195.83 403 1196M413.667 1196.33C413.222 1196.78 414.278 1196.72 414.333 1196.67C414.778 1196.22 413.722 1196.28 413.667 1196.33M298 1287C299.176 1286.23 299.227 1286.18 300 1285C298.365 1285.55 298.545 1285.36 298 1287M322 1296C320.161 1285.06 312.297 1290.55 322 1296M113 1336C118.071 1330.66 123.684 1323.57 127 1317C119.484 1321 114.766 1327.73 113 1336M883 1327L878 1336C881.778 1333.75 883.658 1331.18 885 1327L883 1327M514 1346C513.857 1351.03 514.915 1369.33 509.601 1371.65C506.13 1373.17 501.132 1368.26 497.973 1367.15C487.054 1363.33 473.14 1360.9 464.336 1370.15C450.733 1384.43 461.219 1419.94 484 1414.54C503.346 1409.95 501.234 1387.23 514.27 1380.4C530.713 1371.77 557.55 1374.81 572.631 1365.72C577.856 1362.56 580.674 1352.64 574 1350C573.632 1364.63 528.137 1374.94 514 1375C515.372 1369.22 524.422 1325.79 506.353 1334.83C500.067 1337.98 509.663 1346.22 514 1346M85 1426C74.6554 1435.73 97.8922 1444.79 107 1439.37C109.392 1437.94 112.533 1434.94 115.541 1436.28C119.988 1438.26 124.682 1452.59 131.157 1449.11C137.265 1445.82 119.539 1433.51 119.993 1429C120.894 1420.04 136.285 1397.11 143 1391C143.96 1412.05 152.709 1429.01 137 1443C146.804 1442.69 157.362 1432.33 152 1450C157.805 1449.56 160.934 1444.01 159.001 1438.22C155.321 1427.2 139.788 1405.65 150.26 1392.82C156.136 1385.62 184.661 1394.49 193 1395C183.176 1406.68 161.158 1416.77 156 1431C170.819 1422.89 181.365 1403.17 196.214 1396.81C213.128 1389.58 235.625 1401.72 251 1387C242.44 1386.14 233.584 1390.73 225 1391.68C207.101 1393.64 167.323 1392.68 151.428 1384.18C144.278 1380.35 159.109 1344.44 154.414 1343.62C139.093 1340.97 133.156 1379.3 126.966 1387.57C123.058 1392.79 111.11 1395.39 105.187 1392.82C102.715 1391.74 98.305 1382.2 95.7795 1384.97C89.2767 1392.09 112.724 1418.33 111.359 1427.44C108.629 1445.65 90.0167 1435.3 85 1426M871 1346L872 1347L871 1346M148 1354C147.077 1361.84 142.315 1372.1 136 1377C137.168 1368.56 142.057 1361.39 146 1354L148 1354M479 1373C476.148 1371.99 473.989 1371.3 472 1369C480.92 1366.91 501.855 1369.06 506.643 1378.41C512.421 1389.69 491.798 1409.34 482 1410.76C464.041 1413.37 450.597 1373 479 1373M859 1368L860 1369L859 1368M146 1370C143.955 1376.97 141.378 1384.03 135 1388C136.365 1381.17 140.993 1374.76 146 1370M201 1389C203.292 1387.84 205.012 1386.64 207 1385C203.869 1385.02 202.7 1386.46 201 1389M144.667 1385.67C144.722 1385.72 144.778 1386.78 144.333 1386.33C144.278 1386.28 144.222 1385.22 144.667 1385.67M135 1394C131.779 1400.72 124.329 1420 116.835 1422.24C111.569 1423.81 105.334 1402.03 105 1398C109.121 1398.65 112.867 1398.37 117 1398L114 1405C121.909 1402.96 126.795 1394.07 135 1394M1147 1682C1149.12 1681.1 1149.1 1681.12 1150 1679C1147.64 1679.48 1147.48 1679.64 1147 1682M185 1807L185 1809L188 1809L188 1807L185 1807M1995 1923L1996 1924L1995 1923z"/>
</svg>
