<?xml version="1.0" standalone="yes"?>
<svg xmlns="http://www.w3.org/2000/svg" width="2200" height="2200">
<path style="fill:#0e0e0e; stroke:none;" d="M185 893C171.483 906.18 183.16 919.169 198 922.396C210.501 925.114 227.053 916.886 238 911.686C268.914 897 297.92 860.513 301.677 826C304.477 800.281 287.046 766.388 256.177 779.46C253.409 780.632 252.714 783.325 256.177 784.033C263.398 785.51 269.999 781.152 277.001 782.753C293.983 786.636 297.895 809.167 296.859 824C294.488 857.914 267.052 890.569 237.997 906.117C225.81 912.639 195.141 927.396 185.386 909.772C182.578 904.699 185.82 898.444 185 893M1633 974C1640.43 979 1645.46 990.652 1656 989.594C1669.02 988.288 1681 969.175 1687.07 959C1704.55 929.677 1733.15 889.864 1722.86 853.217C1714.41 823.114 1693.75 827.19 1671 819.099C1661.42 815.692 1653.88 806.836 1644 805C1648.13 814.37 1660.02 815.81 1667 822C1649.15 825.831 1618.26 817.405 1618 844C1639.78 818.119 1707.05 813.88 1719.19 855C1728.08 885.115 1704.26 923.196 1688.86 947.136C1681.85 958.026 1670.9 980.99 1656.99 983.926C1650.53 985.291 1639.69 975.72 1640.81 969.041C1642.06 961.564 1651.35 951.647 1655.25 945C1662.43 932.741 1666.08 921.206 1670.08 907.783C1673.15 897.498 1666.36 881.711 1653.16 886.979C1631.07 895.799 1624.63 933.842 1625.01 954C1625.12 959.772 1632.15 966.254 1630.29 971.059C1624.31 986.565 1602.3 1006.9 1585.57 996.317C1525 958.007 1572.98 866.63 1607.81 830.439C1621.2 816.515 1636.26 800.429 1657 800C1642.75 784.056 1607.97 824.049 1600.23 834.019C1576.59 864.438 1543.09 906.662 1552.94 949C1560.59 981.878 1589.73 1025.99 1622.84 989.992C1627.08 985.392 1631.11 979.987 1633 974M1659.5 798.5C1658.87 799.127 1659.87 800.127 1660.5 799.5C1661.13 798.873 1660.13 797.873 1659.5 798.5M456 997C464.962 995.437 466.786 981.708 471.813 975.145C479.579 965.005 507.599 941.138 521 940.038C530.157 939.286 539.262 962.408 544.533 968.456C545.713 969.81 550.291 978.431 552.743 975.894C555.779 972.752 548.879 960.074 548.337 956C545.986 938.328 541.098 911.669 542.545 894.439C542.869 890.586 552.244 892.882 553.552 895.181C555.366 898.371 549.839 905.627 549 909C552.658 907.7 569.686 896.604 568.919 892.43C568.146 888.229 546.203 888.049 542.258 885.204C532.716 878.325 531.278 852.867 527.614 842C526.636 839.101 524.749 829.247 521.68 828.106C518.49 826.92 516.736 838.995 516.262 841C513.728 851.721 510.205 876.331 500.477 882.958C490.577 889.703 454.484 873.149 447.544 886.809C445.594 890.646 453.801 895.074 456.21 896.645C462.618 900.824 486.275 910.355 487.211 918.128C490.415 944.761 459.369 971.988 456 997M127 908C136.611 897.654 141.904 883.745 152.059 873.861C165.334 860.941 190.61 851.343 208.04 845.199C221.574 840.428 228.028 847.67 238.439 855.119C239.775 856.075 246.591 860.503 247.214 856.675C247.754 853.358 240.323 851.143 238.32 849.496C228.315 841.265 222.337 835.92 209 840.136C177.184 850.195 132.902 870.731 127 908M1232 849C1231.22 857.253 1243.73 852.491 1249 852C1247.34 854.461 1245.21 856.264 1244 859C1246.71 858.346 1248.62 857.466 1251 856C1253.13 865.72 1262.68 883.374 1260.62 893.003C1258.1 904.79 1237.01 924.143 1229.43 934.32C1206.79 964.708 1185.96 997.41 1165 1029C1177.7 1030.58 1185.3 1005.98 1194 999C1193.8 999.807 1192.08 1005.35 1194.87 1004.24C1200.21 1002.11 1203.97 990.539 1207.53 986.134C1220.7 969.862 1245.02 948.241 1251 928C1242.28 932.649 1235.97 942.294 1230 950C1232.22 937.257 1246.4 923.558 1254.57 913.997C1256.42 911.838 1261.72 902.711 1265.33 905.106C1271.96 909.501 1271.1 927.049 1272.08 934C1274.63 952.111 1282.51 969.681 1283.42 988C1283.7 993.664 1284.21 1013.18 1286.97 1016.41C1294.43 1025.15 1337.66 1006.66 1335.68 996.368C1334.23 988.838 1299.67 1002.84 1298.18 999.782C1295.01 993.274 1296.78 984.823 1294.61 978C1281.92 938.003 1279.48 893.433 1266 854C1274.6 853.17 1263.98 842.152 1259.93 841.281C1253.22 839.839 1234.69 836.197 1228.5 838.509C1222.3 840.824 1227.21 848.643 1232 849M521 839C525.151 847.446 536.318 873.276 533.714 882.499C532.484 886.855 510.121 888.279 507.458 883.965C505.72 881.151 509.631 875.569 510.761 873C515.241 862.813 515.46 847.847 521 839M897 954C889.213 956.491 884.257 965.113 876.001 966.263C866.173 967.632 860.885 948.645 857 942C865.762 938.689 869.772 931.102 880 929.801C890.283 928.492 913.757 936.259 911.403 950.018C906.2 980.425 860.927 1008.42 833.041 989.927C821.759 982.445 823 969.932 823 958C823 928.135 835.368 901.949 856.084 880.457C863.24 873.032 873.616 858.579 885 860C882.878 844.275 850.903 879.453 846.12 885.207C824.985 910.63 812.01 946.661 820.153 980C823.994 995.725 836.266 997.106 850 998.687C874.548 1001.51 921.634 976.526 915.633 945.225C911.294 922.596 859.889 916.467 854.125 941.003C852.757 946.827 859.867 959.316 863.187 963.992C873.267 978.185 892.059 967.875 897 954M1895 1012C1903.99 1009.96 1908.24 999.596 1915 994C1915.53 1004.86 1929.2 1039.91 1942.86 1039.77C1948.34 1039.72 1955.65 1030.38 1960 1027.23C1974.9 1016.45 2005.44 998.753 2014 983C2007.19 984.713 2001.55 989.438 1995 992C2001.4 964.636 1990.1 923.133 1985.36 896C1984.65 891.941 1977.05 866.143 1970.72 869.536C1967.06 871.501 1965.35 880.371 1963.88 884C1958.47 897.354 1954.19 911.299 1947.29 924C1945.48 927.336 1942.64 936.869 1938.67 938.023C1923.93 942.309 1890.51 896.649 1874.39 915.179C1871.59 918.399 1882.98 929.439 1884.84 932.136C1894.12 945.546 1909.05 969.662 1910.46 986.136C1911.24 995.291 1897.91 1003.58 1895 1012M1988 981C1981.01 973.057 1975.01 964.309 1966 958.362C1959.88 954.323 1947.34 950.067 1944.66 942.544C1942.88 937.535 1950.52 927.401 1952.72 923C1959.72 909.029 1968.47 891.443 1971 876C1976.16 877.807 1980.02 892.696 1981.45 898C1986.56 916.973 1984.93 936.726 1988.25 956C1989.39 962.625 1991.95 975.354 1988 981M500 890L490 912C477.355 906.156 466.508 896.89 454 891L454 889C467.775 885.738 486.302 886.241 500 890M529.971 889.435C548.912 888.956 537.407 929.65 518.921 929.311C500.827 928.98 489.579 905.769 503.037 892.822C506.306 889.678 524.891 889.564 529.971 889.435M1660.95 891.782C1670.6 890.372 1666.64 905.178 1665.5 910C1662.82 921.321 1649.73 961.372 1636.08 963.233C1625.71 964.646 1630.16 943.889 1630.68 939C1632.64 920.646 1639.66 894.893 1660.95 891.782M126 909C122.502 912.846 120.998 916.938 120 922L122 922C122.757 917.511 124.642 913.866 127 910L126 909M1914 983C1906.02 959.243 1890.72 940.437 1881 918C1896.07 914.914 1910.44 929.077 1923 935.385C1926.35 937.065 1935.5 940.26 1936.22 944.44C1937.78 953.495 1920.61 977.671 1914 983M476 965C477.231 956.166 485.642 925.788 492.104 919.891C495.569 916.729 516.357 930.831 516.357 935.01C516.357 940.395 481.397 962.62 476 965M542 918C542 932.709 543.942 947.318 544 962C529.185 950.157 519.418 925.935 542 918M119 924C118.067 927.685 118.005 931.21 118 935C119.838 931.603 120.389 927.801 121 924L119 924M117 938C118.175 937.227 118.227 937.175 119 936C117.365 936.545 117.545 936.365 117 938M118 939C118.522 940.82 119.136 942.312 120 944C120.682 941.404 120.149 940.551 118 939M118 945C117.998 961.638 121.084 987.081 142 991C136.51 982.047 127.449 975.71 122.765 966C119.509 959.252 120.751 951.78 118 945M1942.3 947.506C1946.44 947.115 1951.84 954.264 1955 956.454C1963.84 962.583 1992.84 980.144 1992.4 992.993C1992.23 997.785 1985.24 1001.93 1982 1004.72C1973.38 1012.14 1954.62 1033.2 1943.08 1034.22C1935.75 1034.86 1930.31 1021.26 1927.77 1015.98C1916.53 992.658 1919.43 985.96 1931.37 964C1933.28 960.486 1937.87 947.925 1942.3 947.506M1313 1005C1309.15 1009.77 1305.02 1012.02 1299 1013C1303.17 1009.59 1307.67 1006.14 1313 1005M940 1229C942.235 1212.64 952.174 1179.9 940.704 1165.6C932.222 1155.03 913.748 1163.19 905 1167.63C876.703 1181.99 860.649 1209.82 859.078 1241C858.082 1260.77 864.458 1286.37 876.806 1302C879.283 1305.14 890.085 1321.84 895.592 1315.19C897.156 1313.3 887.235 1308.86 885.721 1306.87C876.774 1295.13 872.727 1284.72 867.953 1271C855.576 1235.42 869.985 1195.65 901 1174.85C905.265 1171.99 910.455 1170.25 915 1167.83C946.592 1151.02 940.21 1203.93 937.372 1218.99C936.498 1223.63 932.773 1233.11 938.045 1236.63C943.103 1240.01 953.774 1218.21 955.804 1215C965.922 1199.01 972.434 1181.13 982.297 1165C988.118 1155.48 998.63 1146.53 1002 1136C992.734 1136.66 987.354 1149.07 982.383 1156C968.083 1175.94 961.079 1215.7 940 1229M1212 1182C1218.87 1182.52 1225.1 1177.26 1232 1178.76C1259.76 1184.81 1230.29 1231.81 1231.05 1246C1231.53 1255 1258.41 1268.27 1248.84 1274.83C1226.45 1290.19 1192.79 1253.3 1167 1259.6C1154.49 1262.65 1140.96 1272.13 1132 1281C1128.67 1284.3 1120.37 1289.77 1126 1294C1129.44 1288.18 1134.95 1284.21 1140 1279.82C1160.3 1262.19 1180.62 1263 1205 1271.39C1221.59 1277.1 1233.34 1287.69 1252 1279C1249.62 1318.83 1236.95 1335.77 1213 1366C1236.31 1365.01 1251.85 1321.85 1254.68 1303C1255.76 1295.76 1253.52 1282.06 1258.5 1276.48C1282.84 1249.19 1314.05 1275.03 1341 1280.23C1354.17 1282.77 1365.87 1277.51 1378 1280C1376.26 1269.71 1356.01 1278 1347 1276.11C1313.81 1269.13 1290 1248.53 1258 1271C1253.61 1260.14 1237.67 1256.91 1235.37 1245.99C1231.6 1228.12 1250.48 1209.87 1247.54 1190C1244.81 1171.55 1223.02 1170.28 1212 1182M71 1374C89.9273 1362.86 103.879 1338.49 116.176 1321C119.385 1316.43 127.274 1301.09 132.951 1300.08C136.239 1299.5 139.513 1316.23 140.809 1319C149.714 1338.02 158.01 1357.04 163 1378C168.464 1373.09 162.018 1363.1 160.681 1357C157.006 1340.23 148.398 1328.6 143.117 1313C140.569 1305.47 140.831 1295.09 134 1290C120.72 1313.69 99.0621 1340.75 79 1359C82.859 1341.67 95.4508 1323.32 102.767 1307C116.902 1275.46 128.087 1244.74 146 1215C150.551 1229.77 150.559 1245.75 154.571 1260.68C164.047 1295.94 174.958 1333.29 176 1370L169 1365C169.521 1372.28 175.217 1375.65 182 1377C177.811 1332.08 165.053 1290.21 156.701 1246C155.437 1239.31 154.224 1206.15 147.713 1203.76C144.212 1202.48 128.271 1236.53 125.826 1241.01C111.165 1267.86 102.076 1298.1 89.1771 1326.02C81.8835 1341.8 70.6731 1356.36 71 1374M1573 1224C1577.84 1222.4 1578.75 1219.93 1579 1215C1569.06 1218.77 1570.41 1215.82 1562 1211C1565.66 1235.26 1541.62 1225.64 1529.35 1241.34C1513.64 1261.47 1503.55 1308.01 1508.56 1333C1522.82 1404.16 1619.06 1425.55 1671.96 1384.9C1700.22 1363.18 1701.33 1333.9 1709.18 1302C1715.4 1276.75 1718.33 1231.07 1696.16 1212.02C1692.99 1209.3 1682.05 1202.22 1678.04 1203.54C1672.13 1205.49 1667.06 1215.34 1663.31 1220C1650.95 1235.37 1639.81 1250.92 1628.42 1267C1625.54 1271.07 1617.31 1287.41 1611.94 1287.49C1606.7 1287.57 1601.41 1275.83 1599.52 1272C1592.67 1258.09 1585.27 1233.54 1573 1224M1626 1395L1628 1399C1615.07 1403.49 1598.94 1398.12 1586 1395C1588.42 1396.86 1590.33 1398.45 1592 1401C1572.34 1400.88 1542.36 1383.89 1530.75 1368C1526.27 1361.86 1527.61 1355.4 1524.63 1349.9C1520.6 1342.47 1514.56 1341.46 1512.74 1331C1510.64 1318.87 1515.14 1305.04 1516.75 1293C1518.95 1276.6 1521.72 1255.4 1534.18 1243.27C1538.48 1239.09 1564.71 1224.34 1570.13 1227.39C1581.74 1233.93 1587.45 1257.9 1593.24 1269C1595.79 1273.88 1606.23 1296.84 1613.77 1293.68C1620.08 1291.03 1625.44 1278.87 1628.98 1273.32C1639.27 1257.16 1650.17 1241.44 1662.79 1227C1666.3 1222.98 1674.62 1207.96 1680.82 1209.06C1703.65 1213.1 1705.97 1243.7 1707.14 1261C1710.2 1306.33 1701.04 1374.81 1651 1389.66C1641.16 1392.58 1636.44 1398.17 1626 1395M147 1211L147 1214C146.304 1212.45 146.304 1212.55 147 1211M1923 1412C1932.81 1411.82 1937.04 1402.26 1941.71 1395C1951.77 1379.37 1961.58 1363.29 1972.06 1348C1974.6 1344.29 1978.93 1333.11 1983.25 1331.64C1987.64 1330.15 1991.45 1343.2 1992.61 1346C1998.61 1360.45 2004.83 1374.45 2010.35 1389C2011.8 1392.83 2014.69 1399.52 2019.87 1398.01C2023.62 1396.91 2009.31 1371.12 2006.25 1365C2002.12 1356.72 1985.98 1331.53 1988.07 1323C1994.03 1298.57 2016.82 1274.97 2027.36 1252.08C2029.54 1247.33 2039.61 1234.77 2037.92 1229.8C2036.61 1225.98 2026.3 1224.05 2023 1224.82C2006.26 1228.73 1986.17 1224.37 1969.01 1222.57C1964.74 1222.13 1951.07 1220.47 1948.08 1223.9C1943.72 1228.9 1952.08 1242.72 1953.33 1248C1958.73 1270.82 1981.4 1302.45 1980.57 1324.98C1980.31 1332.08 1969.9 1343.26 1966.04 1349.24C1952.81 1369.76 1933.66 1390.49 1923 1412M1983 1319C1980.75 1297.13 1965.5 1272.57 1959.27 1251C1957.51 1244.89 1951.26 1236.83 1952.73 1230.28C1953.93 1224.92 1965.99 1227 1970 1227C1984.52 1227 1998.64 1231.66 2013 1230.92C2017.77 1230.68 2027 1227.08 2031.09 1230.61C2034.97 1233.95 2024.96 1248.37 2023.12 1252C2014.8 1268.37 2004.47 1283.67 1996.17 1300.08C1992.95 1306.43 1989.95 1316.05 1983 1319M887 1237C891.251 1246.56 900.272 1253.74 904.958 1263.44C917.462 1289.31 921.255 1318.13 916.641 1346C915.737 1351.45 918.407 1377.69 910.547 1378.8C904.632 1379.64 896.584 1366.92 893.385 1363.08C884.843 1352.83 872.189 1347.32 860 1343C865.015 1371.42 881.836 1397.54 884 1426C895.433 1415.86 876.345 1381.68 872.762 1370C871.707 1366.57 866.437 1356.35 869.587 1353.2C872.507 1350.29 879.893 1357.26 881.999 1358.92C888.52 1364.04 904.149 1390.87 915.186 1383.75C923.074 1378.66 920.507 1356.91 921.441 1349C925.04 1318.52 922.077 1292.13 909.529 1264C905.024 1253.9 899.061 1239.64 887 1237M574 1292C557.652 1298.79 540.183 1335.27 522 1333.23C505.967 1331.43 484.529 1308.58 472.96 1298.34C470.189 1295.89 459.335 1284.88 455.549 1286.1C451.04 1287.57 452.999 1301.39 453 1305C453.006 1325.05 456.995 1344.98 455.217 1365C454.918 1368.37 452.944 1385.52 456.703 1386.89C459.896 1388.06 467.401 1377.71 469.999 1375.92C476.716 1371.28 485.592 1370.6 491.96 1365.72C500.191 1359.39 505.308 1346.86 516 1343.99C536.83 1338.39 556.793 1372.45 576.594 1371.39C581.02 1371.15 579.928 1355.25 580.04 1352C580.689 1333.19 584.487 1308.62 574 1292M459 1380C459.107 1353.02 452.812 1318.17 458 1292C473.851 1301.73 487.045 1316.84 503 1327.23C505.831 1329.08 516.34 1334.44 515.677 1338.58C515.177 1341.7 505.399 1346.73 503 1349.04C489.627 1361.92 474.581 1370.31 459 1380M574 1366C556.779 1357.9 538.117 1349.07 522 1339C542.047 1333.79 552.477 1301.99 570.716 1299.44C575.25 1298.81 574.855 1312.08 574.96 1315C575.557 1331.6 577.519 1349.6 574 1366M1242 1635C1231.56 1628.84 1227.5 1612.51 1214 1610.17C1199.29 1607.63 1188.64 1627.78 1201.04 1637.44C1207.85 1642.75 1217.55 1645.58 1226 1643.71C1229.97 1642.83 1239.42 1637.07 1242.7 1641.81C1245.5 1645.85 1238.18 1655.11 1236.74 1659C1231.96 1671.94 1223.42 1689.38 1232.16 1702.9C1240.15 1715.25 1250.83 1700.13 1253.52 1692C1258.96 1675.54 1255.87 1657.28 1249 1642C1258.93 1651.02 1269.44 1661.51 1284 1660.82C1304.67 1659.84 1333.13 1647.11 1313.59 1624.12C1304.24 1613.11 1275.99 1609.85 1264 1617.93C1262.77 1618.76 1251.99 1626.54 1251.36 1623.18C1250.51 1618.67 1259.15 1608.08 1261.34 1604C1270.75 1586.42 1291.19 1556.01 1275.44 1536.09C1263.87 1521.47 1244.47 1541.49 1239.35 1553C1227.71 1579.15 1234.39 1609.31 1242 1635M1246 1631C1239.86 1626.08 1240.22 1613.31 1239.3 1606C1236.31 1582.08 1235.97 1549.11 1261 1536.61C1278.22 1528.02 1275.98 1567.03 1272.6 1575C1265.29 1592.23 1246.21 1612.06 1246 1631M863 1545C878.744 1555.92 886.909 1591.51 892.987 1609C894.787 1614.18 897.898 1630.31 903.281 1632.47C909.577 1635.01 920.431 1618.87 924.478 1615C943.943 1596.37 962.116 1572.06 986 1559C990.656 1591.71 991.26 1618.33 979 1650C961.031 1636.9 937.624 1650.42 918 1644.28C916.295 1643.74 898.643 1633.43 898.643 1638.11C898.643 1641.47 913.135 1646.75 916 1647.51C930.698 1651.4 946.107 1645.86 961 1648C966.855 1648.84 973.395 1654.74 979.643 1652.88C986.944 1650.71 989.24 1637.2 990.665 1631C995.555 1609.72 999.802 1584.27 992.709 1563C987.496 1547.37 974.536 1560.22 967.078 1566.75C951.058 1580.79 936.599 1596.63 921 1611.14C917.906 1614.01 909.479 1625.76 905.009 1625.52C900.979 1625.31 896.084 1604.73 894.6 1601C888.118 1584.71 882.216 1568.73 874.346 1553C872.92 1550.15 869.263 1538.71 865.121 1539.32C857.382 1540.48 846.556 1558.94 841.727 1564.69C836.505 1570.9 832.019 1579.1 829.824 1587C824.256 1607.02 837.202 1631.22 856 1637.76C866.865 1641.53 886.328 1643.39 891.539 1655C897.71 1668.75 879.411 1708.27 875.722 1723C874.648 1727.29 867.903 1742.27 871.124 1745.78C877.658 1752.91 898.642 1748.23 907 1747.99C917.97 1747.67 929.01 1747.92 936.521 1738.42C945.278 1727.34 957.016 1697.57 945.245 1685.48C933.514 1673.44 911.184 1669.63 899.571 1655.51C894.929 1649.87 916.485 1651.77 903.927 1646.29C886.853 1638.83 850.689 1640.69 840.911 1621.96C831.912 1604.72 830.557 1586.29 842.812 1570.1C848.861 1562.11 861.728 1554.96 863 1545M1573 1584C1578.85 1585.88 1553.34 1608.54 1547 1611C1551.01 1598.14 1554.69 1581.48 1555 1568C1543.41 1572.58 1547.44 1604.85 1544.23 1615C1543.45 1617.48 1535.71 1628.82 1537.93 1630.54C1559.23 1647.02 1584.67 1626.53 1606 1625C1600.54 1632.53 1576.59 1650.83 1579.14 1660.81C1583.31 1677.1 1618.59 1643.29 1623 1640C1619.68 1663.04 1585.45 1681.75 1574.14 1702C1563.16 1721.64 1595.65 1706.91 1600.77 1702.99C1606.48 1698.63 1610.2 1691.79 1616 1688C1615.88 1693.9 1613.06 1718.97 1606.64 1720.77C1598.32 1723.11 1588.87 1714.94 1580 1717C1584.3 1720.26 1607.73 1729.06 1612.16 1725.2C1615.92 1721.92 1616.82 1710.75 1617.88 1706C1618.9 1701.43 1620.59 1678.47 1625 1681C1647.96 1672.09 1664.97 1657.13 1685 1643.01C1689.71 1639.69 1697.44 1643.74 1700.66 1640.17C1705.8 1634.45 1708.15 1620.28 1711.69 1613C1715.07 1606.03 1735.18 1573.87 1724 1571C1725.71 1592.4 1700.71 1615.62 1697 1637C1680.84 1627.47 1655.73 1639.04 1642 1628C1649.82 1625.04 1664.79 1612.42 1666 1604C1657.96 1605.96 1641.13 1626.58 1634.58 1624.6C1631.66 1623.72 1632.78 1614.12 1633.01 1611.78C1633.86 1603.14 1670.62 1571.21 1643 1586.94C1640 1588.65 1637.07 1590.42 1634 1592C1634 1584.03 1630.45 1565.07 1635.32 1559.05C1644.36 1547.87 1659.7 1546.39 1671.81 1548.71C1673.76 1549.09 1675.53 1547.41 1674.69 1545.4C1671.67 1538.17 1653.23 1543.14 1648 1544.55C1633.25 1548.53 1623.4 1563.04 1610.29 1570.24C1605.13 1573.06 1598.2 1572.32 1592 1575.69C1586.73 1578.55 1575.06 1578.15 1573 1584M468 1546C479.06 1561.33 508.352 1553.49 515.54 1579C524.552 1610.99 502.408 1648.58 493.404 1678C490.835 1686.39 483.507 1706.94 496.105 1711.31C512.111 1716.87 515.218 1700.47 528 1700C527.664 1693.25 533.37 1691.75 539 1690L537 1694C542.871 1691.95 553.12 1686.62 557.597 1694.28C560.919 1699.96 555.27 1708.42 553.821 1714C549.009 1732.54 535.922 1762.44 515 1767.37C482.672 1775 471.7 1744.87 465.065 1721C460.577 1704.85 464.978 1687.32 466.764 1671C470.868 1633.48 472.634 1594.54 489 1560C475.37 1560.21 469.878 1603.94 468.139 1616C462.917 1652.23 453.122 1694.18 461.927 1730C468.528 1756.85 484.539 1776.41 515 1772.81C539.395 1769.94 552.18 1735.72 558.521 1716C562.186 1704.6 567.853 1691.58 553.999 1684.7C536.12 1675.83 521.245 1697.65 509.602 1706.2C504.919 1709.65 497.177 1709.05 495.076 1702.95C491.177 1691.64 499.875 1673.98 504.467 1664C521.037 1627.97 537.066 1569.94 491 1550.49C483.412 1547.29 476.305 1544.69 468 1546M1993 1547C1991.3 1564.27 1988 1595.39 1981.18 1610.85C1978.79 1616.26 1971.62 1615.17 1969 1621C1988.65 1617.98 1985 1642.76 1985 1658C1985 1697.13 1978.38 1738.63 1971 1777C1981.37 1776.25 1979.1 1752.95 1981.46 1744.22C1988.39 1718.51 1989.96 1684.61 1990 1658C1990.01 1648.93 1983.48 1629.3 1987.7 1621.5C1989.9 1617.42 1997.28 1619.47 2001 1619.08C2011.11 1618.01 2022.61 1613.39 2032 1609.61C2034.24 1608.7 2044.11 1606.68 2043.68 1603.7C2043.03 1599.21 2035.53 1594.56 2032.86 1591C2022.67 1577.42 2008.86 1553.97 1993 1547M1997 1554C2005.56 1565.02 2033.93 1587.97 2034.76 1601.91C2034.96 1605.21 2027.17 1604.62 2025 1605.66C2014.91 1610.45 2000.17 1618.7 1988.5 1613.54C1984.37 1611.71 1985.91 1602.64 1986.03 1599C1986.36 1588.49 1991.02 1562.47 1997 1554M1631 1564C1627.15 1574.17 1633.73 1586.32 1627.62 1596.7C1623.6 1603.52 1612.25 1607.69 1606 1612.39C1604.04 1613.86 1589.86 1626.84 1587.76 1622.21C1586.46 1619.34 1594.24 1615.38 1595.92 1614.1C1606.87 1605.75 1634.23 1586.05 1606 1588C1610.38 1581.88 1616.79 1580.04 1624 1580L1624 1577C1607.24 1576.9 1623.52 1563.66 1631 1564M173 1620C161.444 1625.13 160.522 1647.49 154 1657C148.407 1643.05 145.645 1630.84 137 1618C150.939 1616.31 169.033 1614.9 182 1617C180.718 1608.57 174.307 1570.96 165.577 1567.97C160.692 1566.3 157.84 1574.72 155.57 1577.56C148.616 1586.26 128.16 1606.09 127.363 1616.8C127.166 1619.45 135.013 1624.97 136.641 1628C142.669 1639.24 149.403 1651.95 150.178 1665C151.496 1687.17 125.038 1711.6 130.62 1733.63C132.371 1740.55 170.615 1736.69 171.861 1732.37C177.171 1713.95 158.001 1685.49 156.217 1667C154.76 1651.9 169.01 1634.31 173 1620M175 1611C162.843 1609.52 146.578 1613.33 134 1615C138.542 1603.8 149.489 1591.82 156.725 1582C158.099 1580.14 162.005 1571.75 165.202 1574.11C172.387 1579.41 171.255 1602.54 175 1611M1584 1586C1582.94 1589.55 1581.65 1590.49 1578 1591C1579.88 1588.81 1581.51 1587.45 1584 1586M1594.67 1587.67C1594.72 1587.72 1594.78 1588.78 1594.33 1588.33C1594.28 1588.28 1594.22 1587.22 1594.67 1587.67M1591 1591C1587.72 1600.65 1574.92 1614.91 1564 1613C1569.35 1604.38 1581.83 1595.2 1591 1591M1616 1591C1610.02 1601.36 1595.62 1610.17 1586 1617.22C1584.14 1618.58 1576.77 1624.87 1574.32 1622C1572.41 1619.76 1581.66 1614.23 1583 1613.14C1592.44 1605.47 1603.35 1591.59 1616 1591M1637 1595C1636.45 1597.39 1636.12 1597.72 1634 1599C1634.96 1597.23 1635.57 1596.39 1637 1595M1628 1601C1627.69 1606.49 1630.5 1618.59 1628.04 1623.16C1626.42 1626.18 1619.87 1623.94 1619.41 1620.95C1618.92 1617.79 1624.58 1612.83 1626 1610C1616.56 1614.86 1612.66 1625.84 1601 1621C1606.68 1613.36 1620.06 1606.64 1628 1601M1212 1615.06C1222.03 1613.49 1244.44 1637.31 1224 1640.59C1206.05 1643.48 1185.76 1619.18 1212 1615.06M1561 1614C1560.39 1620.4 1557.27 1623.09 1551 1624C1553.42 1619.58 1556.75 1616.64 1561 1614M1561 1623C1563.98 1615.7 1570.32 1622.09 1561 1623M1269 1620.72C1278.58 1617.7 1298.84 1618.02 1306.91 1624.17C1315.82 1630.95 1321.13 1644.93 1308 1649.52C1296.41 1653.57 1283.19 1659.07 1271.02 1653.91C1253.55 1646.51 1246.26 1627.9 1269 1620.72M1585 1625C1582.59 1630.91 1570.96 1633.3 1569 1626C1574.92 1626.78 1579.19 1625.93 1585 1625M1565 1626C1563.96 1630.06 1562.03 1630.71 1558 1631C1559.88 1628.35 1561.92 1626.99 1565 1626M1624 1628C1623.61 1643.55 1595.52 1660.33 1581 1661C1590.3 1643.56 1605.23 1628.85 1624 1628M1248 1632.33C1248.89 1632.33 1248.89 1633.67 1248 1633.67C1247.11 1633.67 1247.11 1632.33 1248 1632.33M1684 1637C1674.17 1654.48 1641.83 1671.83 1623 1677C1626.34 1669.8 1632.35 1664.69 1635 1657C1630.21 1659.24 1627.71 1663.92 1623 1666C1625.67 1627.34 1655.1 1637 1684 1637M1631 1636C1630.06 1638.51 1629.51 1639.06 1627 1640C1627.63 1637.21 1628.21 1636.63 1631 1636M1249 1648C1249 1655.81 1250.95 1663.24 1251 1671C1251.02 1675.63 1251.28 1680.38 1250.88 1685C1250.43 1690.26 1243.25 1710.53 1235.91 1700.76C1227.87 1690.06 1237.26 1653.21 1249 1648M1621 1655C1618.1 1676.22 1614.78 1686.9 1597.32 1700.68C1593.83 1703.43 1582.66 1712.51 1577.95 1707.78C1574.54 1704.35 1583 1695.56 1585.04 1693.04C1593.7 1682.33 1608.35 1660.55 1621 1655M897.615 1661.3C902.986 1660.27 915.847 1671.73 920 1674.87C925.077 1678.7 940.482 1685.35 943.197 1689.5C952.385 1703.55 938.116 1738.77 922 1741.68C915.797 1742.79 878.399 1748 875.421 1741.99C873.601 1738.32 878.027 1729.75 879.001 1726C883.048 1710.41 887.308 1695.35 891.556 1679.99C892.402 1676.94 894.626 1661.87 897.615 1661.3M153 1675C157.081 1683.19 170.207 1719.57 164.082 1727.31C159.407 1733.22 141.909 1731.36 135 1732C136.897 1712.19 146.838 1694.58 151 1675L153 1675M1733 1706C1732.76 1701.26 1731.99 1698.71 1727 1698C1729.68 1709.06 1707.96 1730.78 1695.31 1726.4C1688.29 1723.97 1697.46 1703.94 1695.98 1699.21C1692.74 1688.8 1667.6 1715.04 1664 1719C1674.6 1721.97 1683.13 1707.8 1691 1702C1690.38 1708.64 1692.32 1722.75 1686.72 1727.2C1676.55 1735.26 1649.05 1734.95 1645.11 1750.91C1642.95 1759.64 1680.75 1754.36 1686.28 1758.04C1692.36 1762.09 1681.15 1785.52 1688.82 1788.24C1696.25 1790.87 1707.54 1767.64 1711.75 1763.5C1716.91 1758.44 1724.88 1767.63 1727.66 1764.07C1731.32 1759.4 1727.45 1741.93 1730.15 1735C1733.27 1726.99 1766.63 1680.45 1740.32 1700.21C1737.83 1702.08 1735.5 1704.14 1733 1706M534 1697C535.175 1696.23 535.227 1696.18 536 1695C534.365 1695.55 534.545 1695.36 534 1697M1743 1702C1743.65 1708.45 1737.29 1716.81 1732 1720C1733.14 1711.05 1737.09 1708.16 1743 1702M1726.42 1715.5C1729.98 1715.93 1727.23 1725.89 1726.76 1728C1725.14 1735.24 1715.53 1755.66 1706.98 1755.15C1671.88 1753.08 1707.94 1713.24 1726.42 1715.5M1649 1753C1651.98 1745.31 1677.86 1729.01 1686.5 1732.91C1691.6 1735.21 1690.02 1750.56 1684.87 1752.29C1679.48 1754.09 1672.98 1750.6 1667 1752.01C1660.8 1753.47 1655.3 1753.21 1649 1753M796.958 1738.38C794.569 1739.75 799.111 1742.22 800.906 1740.79C802.976 1739.15 798.37 1737.56 796.958 1738.38M1724 1745C1723.34 1762.58 1712.39 1750.37 1724 1745M1707 1759C1706.11 1763.11 1696.41 1782.61 1690.92 1780.24C1688.52 1779.2 1690.72 1760.97 1692.82 1759.26C1696.17 1756.54 1703.09 1758.77 1707 1759M17.6667 1863.33C17.2222 1863.78 18.2778 1863.72 18.3333 1863.67C18.7777 1863.22 17.7222 1863.28 17.6667 1863.33M1586 1961C1569.4 1987.5 1568.65 2030.64 1562.6 2061C1560.93 2069.37 1558.19 2091.15 1570 2092C1568.62 2074.9 1592.91 2099 1595.74 2084.86C1597.02 2078.5 1578.57 2089.2 1578.42 2080.93C1578.21 2069.14 1604.81 2050.74 1611.82 2041.31C1613.88 2038.54 1618.67 2029.45 1622.12 2028.87C1625.33 2028.32 1627.94 2035.45 1629.29 2037.57C1635.62 2047.46 1642.78 2056.84 1648.67 2067C1649.68 2068.76 1653.25 2080.47 1656.83 2076.81C1659.94 2073.63 1653.7 2064.69 1651.97 2062C1646.56 2053.56 1624.55 2032.11 1626.76 2021.43C1628.54 2012.85 1661.07 1979.79 1663 1985C1665.02 1984.42 1678.14 1956.31 1664 1964C1662.99 1956.63 1661.38 1949.26 1659.77 1942C1650.84 1901.83 1606.38 1937.38 1586.19 1951.32C1581.84 1954.32 1581.11 1958.6 1586 1961M1589 1957C1599.49 1952.2 1606.74 1943.03 1617 1937.9C1623.29 1934.76 1637.19 1924.82 1643.97 1926.63C1651.6 1928.67 1663.64 1959.57 1657.72 1965.74C1653.85 1969.77 1645.03 1965.05 1641 1963.79C1629.19 1960.11 1594.88 1965.81 1589 1957M965 1946C941.53 1949.11 916.719 1942.62 893 1940.11C886.805 1939.45 876.707 1929.18 870.96 1934.34C866.182 1938.63 877.398 1951.04 879.358 1955C887.753 1971.95 904.661 1999.31 902.487 2019C900.667 2035.49 875.033 2056.71 864.019 2068C860.638 2071.47 848.967 2082.55 850.262 2088.08C852.113 2095.99 864.278 2089.97 869 2089.92C886.252 2089.73 902.524 2088.46 920 2089.87C924.104 2090.2 934.768 2093.09 937.69 2089.19C940.535 2085.39 939.125 2067.46 941.424 2061C950.026 2036.85 948.65 2012.51 952.476 1988C954.739 1973.5 964.115 1960.31 965 1946M1312 2079C1310.09 2047.88 1311.9 2011.46 1315.44 1980C1316.68 1968.98 1324.47 1945.93 1317.3 1935.88C1310.28 1926.03 1285 1940.27 1276.02 1939.93C1264.15 1939.48 1240.19 1926.91 1229.84 1936.22C1225.04 1940.54 1226.33 1960.52 1225.56 1967C1222.29 1994.74 1220.01 2023.96 1220 2052C1220 2059.11 1217.58 2075.86 1223.5 2081C1232.08 2088.45 1245.04 2081.02 1254.14 2079.36C1271.85 2076.12 1294.44 2074.26 1312 2079M1278 2009C1271.02 2004.68 1270.72 1996.57 1266.8 1990C1259.78 1978.27 1251.44 1965.9 1242.72 1955.32C1240.44 1952.55 1231.53 1942.22 1236.83 1938.82C1243.32 1934.65 1252.88 1940.74 1259 1942.37C1271.94 1945.81 1285.88 1937.95 1298 1941.09C1302.29 1942.19 1314.23 1938.59 1315.5 1942.22C1322.47 1962.08 1286.36 1992.62 1278 2009M677 1944C676.736 1946.15 676.736 1947.85 677 1950C677.755 1947.7 677.755 1946.3 677 1944M958 1952C949.184 1968.56 932.937 1985.6 920.661 2000C918.813 2002.17 910.84 2014.48 907.722 2013.24C904.934 2012.13 904.21 2001.72 903.387 1999C899.188 1985.11 891.038 1973.52 886.259 1959.98C885.303 1957.27 879.675 1946.72 882.641 1944.93C888.922 1941.13 903.509 1945.68 910 1947.26C924.204 1950.7 943.668 1953.33 958 1952M312 1954C314.389 1945.29 303.035 1943.87 312 1954M1225 2073C1219.17 2046.2 1225.41 2006.37 1228.32 1979C1228.74 1975.04 1228.11 1951.11 1232.16 1950.32C1237.22 1949.33 1250.83 1974.45 1253.76 1978.68C1259.63 1987.17 1272.46 2002.01 1272.05 2013C1271.85 2018.56 1264.59 2024.95 1261.37 2029.21C1250.5 2043.62 1238.37 2060.98 1225 2073M216 2086C210.546 2104.46 190.041 2124.14 177.763 2139C176.017 2141.11 165.255 2153.71 169.089 2156.46C171.974 2158.53 180.38 2143.09 182.098 2141.04C193.447 2127.53 203.527 2112.86 214.503 2099C216.989 2095.86 224.773 2087.79 223.762 2083.5C222.6 2078.56 210.994 2083.13 208 2083.6C200.253 2084.82 162.849 2089.83 157.822 2085.74C152.595 2081.48 154.761 2062.87 155.897 2057C160.669 2032.37 162.884 2006.84 166.522 1982C167.16 1977.64 174.644 1950.31 168.429 1951.32C163.477 1952.13 161.117 1983.77 160.25 1989C153.463 2029.95 151 2069.69 151 2111C151 2116.43 149.752 2155 156.856 2155C160.696 2155 157.719 2143.02 157.368 2141C155.939 2132.8 150.945 2098.81 157.061 2092.96C169.737 2080.84 200.837 2095.64 216 2086M1961 2061C1967.24 2055.77 1965.95 2043.49 1967 2036C1970.28 2012.51 1970 1988.31 1975 1965C1983.34 1977.02 1998.17 1998.47 1997.45 2013.96C1996.49 2034.26 1964.64 2068.49 1947 2075C1955.97 2083.86 1962.87 2085.26 1968.5 2099C1971.65 2106.68 1973.42 2127.07 1982.11 2130.47C1987.34 2132.52 1992.57 2123.43 1994.8 2120C2003 2107.35 2013.17 2091.64 2017 2077C2019.07 2079.26 2023.1 2089.18 2026.85 2087.46C2032.74 2084.77 2022.9 2075.22 2022.19 2071C2019.4 2054.53 2002.82 2030.55 2005.5 2014C2007.61 2000.99 2025.19 1984.42 2032.13 1973C2033.8 1970.25 2040.76 1962.42 2038.36 1958.98C2035.2 1954.45 2030.08 1966.48 2029.23 1968C2023.46 1978.42 2015.75 1987.13 2009.22 1997C2007.97 1998.89 2004.42 2006.51 2001.52 2005.92C1998.93 2005.39 1997.44 1998.1 1996.73 1996C1992.84 1984.55 1987.81 1975.55 1982 1965C1994.02 1965 2006 1965.1 2018 1965C2020.28 1964.98 2028.36 1965.74 2028.36 1961.92C2028.36 1957.59 2019.27 1959.58 2017 1959.78C2006.76 1960.69 1993.11 1961.52 1983.04 1959.73C1979.9 1959.17 1973.12 1953.74 1970.53 1957.94C1967.96 1962.11 1969.83 1975.49 1968.81 1981C1964 2006.98 1961 2034.6 1961 2061M954 1963C949.929 1998.01 948.452 2045.8 932 2078C926.238 2064.42 909.117 2035.86 910.859 2021C912.651 2005.71 942.983 1973.5 954 1963M566 1965C556.889 1969.12 550.413 1981.22 544.595 1988.99C528.929 2009.93 517.613 2031.69 503 2053L493.079 2014C489.958 2001.69 487.159 1983.33 478.953 1973.34C477.148 1971.14 467.73 1962.58 464.988 1965.89C460.99 1970.72 467.504 1988.06 467.94 1994C470.022 2022.37 476.774 2059.98 486.468 2087C488.33 2092.19 499.514 2123 505.213 2123C510.34 2123 514.202 2104.05 515.648 2100C524.391 2075.5 533.81 2051.21 543.104 2027C551.085 2006.21 565.906 1988.32 566 1965M1659 1972C1655.13 1989.7 1632.75 2001.8 1625 2018L1622 2018C1617.4 2005.08 1610.33 1992.85 1603.55 1981C1601.99 1978.27 1596.47 1970.75 1599.04 1967.65C1611.6 1952.5 1645.34 1976.86 1659 1972M1313 1967C1311.12 1998.34 1308.16 2029.67 1307 2061C1299.87 2056.16 1279.23 2020.4 1280.26 2012C1281.37 2002.98 1304.91 1970.65 1313 1967M471 1969C486.999 1988.49 488.363 2018.66 496.125 2042C497.395 2045.82 502.214 2065.05 506.797 2065.11C510.125 2065.16 511.667 2044.59 513.721 2041C526.149 2019.26 540.344 1991.02 560 1975C558.333 1991.26 548.726 2003.49 542.354 2018C529.544 2047.17 512.626 2081.91 506 2113C497.448 2109.14 491.483 2090.62 489.252 2082C483.879 2061.24 483.085 2039.58 477.838 2019.02C474.4 2005.55 466.517 1982.74 471 1969M1594 1970C1599.47 1985.2 1619.46 2005.73 1619.13 2022C1618.92 2032.29 1602.19 2047.27 1595.01 2053.6C1589.88 2058.13 1585.9 2065.3 1579 2067C1582.16 2043.24 1584.4 2018.93 1586.14 1995C1586.63 1988.21 1587.28 1973.09 1594 1970M1584 1979C1583.9 1984.24 1584.3 1991.45 1580 1995C1579.53 1989.18 1580.7 1984.63 1582 1979L1584 1979M1578 2013C1578 2031.62 1584.02 2071.34 1566 2082C1562.46 2062.24 1570.03 2032 1576 2013L1578 2013M1228 2078C1234.66 2061.28 1251.54 2045.54 1263.2 2032C1265.71 2029.07 1271.8 2018.64 1276 2018.64C1279.99 2018.64 1282.51 2026.16 1283.92 2029C1287.15 2035.52 1307.67 2065.2 1304.42 2071.18C1301.76 2076.09 1288.04 2071.97 1284 2071.36C1265.95 2068.63 1245.9 2080.34 1228 2078M2002 2020C2004.13 2035.92 2014.64 2051.83 2015.4 2068C2016.12 2083.15 1993.64 2115.93 1984 2127C1980.26 2118.73 1962.62 2085.49 1965.62 2078.21C1968.61 2070.95 2001.09 2072.8 2008.43 2069.94C2013.02 2068.16 1998.94 2064.59 1995 2065.96C1991.37 2067.23 1987.81 2068.92 1984 2069.58C1978.39 2070.56 1972.63 2069.11 1967 2069C1974.33 2051.5 1993.03 2039.8 1999 2020L2002 2020M855 2085C866.738 2070.57 880.782 2057.9 892.025 2043C894.716 2039.44 900.789 2027.64 905.867 2027.64C909.334 2027.64 911.037 2036.65 911.816 2039.22C913.831 2045.87 931.578 2078.09 927.641 2082.74C924.638 2086.29 913.956 2083.28 910 2083.08C892.572 2082.18 871.629 2088.62 855 2085M1570 2098C1602.89 2095.61 1637.12 2101.96 1670 2097C1666.57 2090.19 1656.93 2089.67 1650 2090.09C1630.24 2091.28 1613.25 2096.96 1593 2094.45C1586.04 2093.58 1573.79 2090.46 1570 2098z"/>
</svg>
