<?xml version="1.0" standalone="yes"?>
<svg xmlns="http://www.w3.org/2000/svg" width="2200" height="2200">
<path style="fill:#050505; stroke:none;" d="M84 184C77.8767 178.752 70.6629 178.479 70 169C79.1242 173.969 97.0813 169.891 102.333 180.089C111.862 198.59 93.3523 243.885 116 248C114.807 243.437 112.161 243.963 108 244C114.218 232.812 111.92 209.797 110.783 197C110.457 193.334 106.37 180.705 108.223 178.124C110.898 174.398 120.792 176.089 124.864 175.106C154.614 167.924 152.979 194.232 153 218C153.004 222.776 151.917 235.596 156.557 238.592C160.961 241.437 162.688 230.347 163 228L159 229C159 211.375 145.023 170.844 166.992 169.266C175.466 168.658 176.652 179.042 185 178C180.825 170.9 182.987 142.746 174.251 141.316C171.86 140.924 178.609 158.842 172.499 162.181C152.44 173.144 114.356 169.577 93 167.279C87.6808 166.706 74.1846 170.564 70.464 165.282C67.232 160.693 72.7991 147.593 73 142C75.5296 143.406 77.0941 144.812 79 147C80.5425 140.95 72.0688 135.299 67.958 141.177C58.7715 154.313 61.6421 189.221 84 184M451.932 139.327C449.192 141.482 453.835 158.139 454.398 162C455.477 169.401 452.15 191.84 457.822 196.781C464.998 203.032 487.508 200.054 496 198.149C499.158 197.44 508.038 192.449 510.74 195.043C515.594 199.703 515.353 227.706 515.864 235C516.014 237.151 514.879 248.167 519.636 245.596C525.551 242.399 520.017 232.377 520.001 227C519.938 206.368 519.925 186.86 521.406 166.882C521.749 162.262 520.398 150.749 514.967 149.106C510.329 147.703 513.325 181.641 510.74 185.304C505.039 193.386 469.077 199.226 462.241 191.178C457.126 185.156 459.499 167.673 458.68 160C458.382 157.203 457.721 134.773 451.932 139.327M861 216C858.54 217.415 856.921 218.898 855 221C852.715 208.24 856.219 194.728 857 182C866.32 184.536 899.981 195.058 907.844 191.979C913.423 189.795 909.92 182.393 910.246 178C911.027 167.483 920.889 148.209 911 141C908.883 149.365 910.911 179.898 903.179 184.636C894.278 190.092 870.287 175.495 858 180L858 163C858 160.93 856.554 132.035 850.286 139.833C849.404 140.929 852.083 156.845 852.019 160C851.653 177.992 842.036 210.108 849.914 226.687C853.601 234.448 860.754 219.517 861 216M1625.11 145.408C1622.63 147.885 1623.93 155.699 1623.56 159C1622.15 171.536 1619.46 184.407 1619.04 197C1618.97 199.167 1618.5 212.595 1624.15 207.587C1626.71 205.32 1624.05 198.163 1624.33 195C1625.45 182.372 1628.84 169.706 1628.84 157C1628.84 155.692 1627.93 142.59 1625.11 145.408M1543 149C1548.14 163.813 1544 183.41 1544 199C1544 203.336 1542.12 213.638 1545.26 217.042C1548.29 220.329 1563.36 218.826 1568 219.319C1591.42 221.813 1616.43 215.531 1639 222.855C1649.94 226.405 1644.45 249.357 1646.36 249.357C1651.9 249.357 1655.42 222.955 1650.4 219.736C1631.68 207.743 1596.95 215.256 1576 214.08C1569.2 213.699 1557.09 216.001 1551.5 211.181C1544.03 204.739 1550.56 172.864 1550.18 163.136C1549.95 157.408 1551.8 148.644 1543 149M1224 158C1207.45 174.76 1230.56 208.717 1204 217.87C1199.23 219.513 1188.55 226.595 1184.26 220.496C1177.27 210.554 1183.89 183.105 1182.78 171C1182.53 168.265 1182.3 156.003 1178.22 156.003C1174.34 156.003 1177.8 169.714 1177.92 172C1178.47 182.598 1171.91 219.723 1178.9 227.023C1187.12 235.614 1210.4 221.021 1220 220.155C1233.25 218.96 1245.72 231.619 1258 227.76C1271.23 223.603 1273.1 185.674 1276.76 172C1278.18 166.681 1281.95 158.978 1278.97 153.571C1275.96 148.128 1273.69 163.476 1273.3 165C1269.87 178.305 1266.56 191.625 1263.38 205C1262.49 208.776 1264.26 217.128 1261.46 219.619C1253.69 226.552 1246.62 220.346 1238.99 217.448C1234.92 215.9 1225 215.605 1222.82 211.506C1217.16 200.842 1224 170.669 1224 158M1944 225C1938.46 224.861 1927.76 220.319 1936.28 214.476C1943.72 209.371 1975.99 210.643 1971.31 225.011C1961.5 255.166 1919.38 252.478 1922.44 218C1924.16 198.566 1935.66 181.822 1949.56 169.001C1951.93 166.817 1966.02 159.016 1964.89 157.456C1962.27 153.84 1953.02 154.281 1949 154.078C1933.1 153.273 1916.91 153.642 1901 153.379C1897.55 153.321 1884.76 150.389 1882.79 153.7C1879.89 158.543 1894.15 158 1896 158L1935 158C1937.53 158 1946.25 156.777 1946.93 160.423C1948.05 166.435 1929.9 181.754 1926.54 187.217C1917.62 201.722 1916.59 221.757 1920.31 238C1927.92 271.248 1979.23 246.124 1977.56 221C1976.05 198.457 1929.4 197.98 1926.81 219C1925.62 228.711 1938.92 232.366 1944 225M1599 161C1579.01 166.729 1579.2 181.45 1581.16 200.997C1581.51 204.542 1585 212.869 1590.03 208.836C1590.81 208.215 1586.01 195.924 1586 193C1585.96 177.015 1591.87 173.296 1599 161M1944 214C1946.23 214.587 1947.71 214.43 1950 214C1947.91 213.652 1946.12 213.786 1944 214M863 551C864.923 544.819 867.81 539.601 868 533C865.625 534.429 863.932 535.997 862 538L862 507L862 487C862 484.932 862.14 454.373 855.829 460.887C853.861 462.917 857.506 470.739 857.009 474C854.244 492.163 857 510.784 857 529C857 535.401 855.535 548.385 863 551M534 494C534 515.161 529.754 539.267 535 560C538.837 556.07 543.182 551.718 543 546L539 548C538.628 528.452 540.049 506.961 536.589 488C535.157 480.148 538.809 473.384 531 468C527.81 481.63 531.902 493.427 519.74 504.553C515.215 508.692 497.863 506.971 497.106 509.397C495.433 514.758 512.366 520.85 507.362 531.979C503.501 540.565 482.226 551.612 474.92 542.712C460.953 525.7 475.88 486.219 474 466L481 472C480.64 468.555 478.535 457.304 472.711 461.892C467.211 466.224 469.437 477.907 468.118 484C463.404 505.766 457.695 564.488 495 548.839C500.118 546.692 506.576 543.1 510.073 538.697C516.042 531.181 508.227 523.451 511.556 516.561C513.571 512.391 529.643 497.982 534 494M198 535C188.708 525.027 170.815 516.19 157 519.842C144.16 523.236 131.151 538.697 141.567 550.782C158.537 570.471 196.244 576.757 202.799 544C208.305 516.484 195.468 493.017 183 470C191.553 469.837 200.5 469.395 209 468.438C216.989 467.539 244.389 477.545 248.972 474.358C254.333 470.63 236.505 465.758 235 465.319C220.552 461.102 203.763 460.8 189 464.143C185.751 464.879 177.083 465.066 175.525 468.501C173.229 473.562 185.52 483.753 188 488C194.496 499.125 199.976 522.229 198 535M930 533C922.86 531.537 925.259 522.657 924.864 517C924.213 507.696 929.32 470.511 922.13 465.065C916.334 460.676 920.36 500.434 918.616 504.451C917.298 507.489 903.037 497.991 899.001 498.341C887.476 499.341 882.12 516.363 882.159 526C882.258 550.331 927.531 548.117 930 533M1170 531C1170.29 515.825 1177.31 491.883 1172 478C1180.36 480.257 1174.51 469.59 1170.95 471.544C1167.62 473.371 1167.82 485.515 1167.18 489C1164.29 504.886 1158.85 537.478 1171.56 550.364C1184.03 563.007 1211.35 556.238 1209.8 536C1208.05 513.11 1180.12 522.221 1170 531M1620 499C1618.82 507.039 1609.92 510.879 1604 515.445C1589.65 526.52 1574.59 537.228 1561 549.228C1557.22 552.573 1537.15 569.729 1553 568C1552.48 566.18 1551.86 564.688 1551 563C1576.54 551.841 1594.97 524.918 1619 511C1619 524.467 1612.62 563.89 1625 572C1626.03 566.638 1628.88 562.219 1630 557L1624 558C1624.04 534.298 1623.35 509.905 1628.25 487C1629.18 482.625 1627.38 471.296 1620.6 472.323C1616.09 473.007 1621.25 486.619 1620.19 489.997C1615.55 504.779 1592.18 511.596 1581.13 500.802C1571.28 491.176 1579.53 478.543 1591 476.193C1600.04 474.34 1606.87 479.437 1614 484C1612.09 463.976 1580.25 467.486 1572.83 482.019C1557.45 512.116 1604.69 518.544 1620 499M1901 483C1900.76 481.661 1898.88 477.308 1897.23 480.623C1895.74 483.614 1899 496.725 1899 501L1899 562C1899 567.638 1896.25 584.503 1902.36 587.673C1903.32 588.171 1912.26 564.172 1913 560C1909.5 562.147 1906.87 565.067 1904 568C1904 553.941 1905.78 538.873 1904 525C1911.1 531.153 1920.35 531.323 1927 537.148C1944.96 552.868 1968.17 587.555 1991 594C1990.83 582.856 1982.8 581.927 1975.92 574.97C1962.46 561.361 1941.02 547.933 1932 531C1959.1 527.452 1954.13 477.159 1928 472.419C1915.78 470.203 1910.4 477.273 1901 483M1905 520C1905 510.632 1899.51 494.415 1913 498C1893.47 474.842 1944.86 469.202 1944.96 499C1944.98 504.017 1944.21 509.34 1942.3 514C1940.42 518.583 1936.4 525.467 1931.21 526.795C1922.83 528.936 1916.99 516.104 1905 520M898.234 504.054C915.451 498.628 929.976 530.647 908 537.934C883.554 546.039 880.65 509.597 898.234 504.054M162 524.404C185.15 520.79 214.138 556.991 180 563.541C155.593 568.223 128.382 529.652 162 524.404M1919 529C1916.16 527.706 1914.68 526.633 1913 524C1916.06 525.121 1917.33 526.204 1919 529M1172 539C1177.03 541.228 1181.55 543.889 1187 545C1185.04 540.566 1177.05 538.618 1177.54 533.139C1178.6 521.394 1205.13 526.982 1205.4 537.048C1205.91 556.061 1175.45 555.638 1172 539M526 883C525.258 921.995 517.335 966.668 496.137 999.922C486.304 1015.35 474.384 1030.57 463.082 1045C459.454 1049.63 450.333 1055.76 449.867 1061.93C448.938 1074.21 472.132 1055.32 475 1053.84C493.306 1044.36 512.272 1026.42 520 1007C531.125 1019.9 541.789 1031.41 555 1042.42C557.779 1044.73 564.988 1052.99 569.138 1050.59C579.06 1044.87 559.417 1025.34 556.761 1019.99C549.561 1005.5 535.246 993.196 531.016 977.217C528.706 968.495 535.487 946.583 538.669 938.1C540.644 932.832 573.218 952.962 581 956.632C584.58 958.32 593.399 962.762 596.678 958.178C601.449 951.508 577.955 933.945 574 929.999C550.548 906.603 554.648 875.85 550.224 845.922C548.831 836.505 551.083 822.231 544.874 814.287C537.26 804.546 530.696 824.427 528.038 829C513.787 853.515 500.313 873.981 480.783 894.981C475.967 900.16 457.203 910.812 460.112 918.952C463.602 928.714 475.48 925.43 481.997 921.578C499.163 911.435 511.845 896.4 526 883M2121 813.246C2106.54 815.814 2094.13 829.214 2080 833.651C2054.82 841.556 2028.77 840.663 2004.15 847.324C1999.26 848.645 1999.14 854.725 2003.28 857.207C2011.87 862.349 2024.42 861.533 2034 860.864C2060.01 859.046 2105.19 855.11 2125.66 837.339C2132.21 831.648 2134.83 810.79 2121 813.246M1290 829.069C1252.12 826.391 1245.31 866.953 1219 884.96C1203.49 895.572 1181.36 894.412 1167.11 906.617C1160.78 912.031 1161.93 921.94 1171.01 923.594C1197.22 928.37 1237.84 900.768 1256 884.672C1264.18 877.423 1274.25 861.011 1285.78 859.314C1302.11 856.911 1298.39 885.733 1302.16 894.019C1311.84 915.324 1349.63 922.343 1368.45 908.844C1373.34 905.34 1373.9 898.451 1368.71 895.086C1356.58 887.208 1341.3 890.964 1329.01 879.823C1316.02 868.048 1310.08 830.488 1290 829.069M873.184 846.3C863.525 851.388 858.879 870.004 853.68 878.997C847.835 889.11 837.307 896.53 832.101 907.003C819.933 931.483 837.08 955.855 851.442 974C857.96 982.235 879.169 1015.77 891.32 1011.47C912.027 1004.13 929.002 983.22 945.339 969.537C953.451 962.742 964.036 956.483 969.189 946.997C973.665 938.757 980.48 905.45 962.999 905.789C952.121 906 951.287 920.906 947.719 927.922C940.722 941.679 913.15 981.102 895.137 977.108C880.314 973.82 848.493 935.417 853.206 920C858.785 901.753 876.656 888.502 884.082 871C887.351 863.296 889.934 837.478 873.184 846.3M1749.99 856.213C1731.65 856.634 1711.1 867.676 1692 869.68C1651.39 873.941 1610.53 871.413 1570 875.108C1560.03 876.016 1544.97 892.86 1556.37 901.178C1566.76 908.757 1594 898.837 1606 898.085C1651.23 895.252 1709.8 904.34 1751.98 883.665C1761.78 878.86 1764.33 855.884 1749.99 856.213M1963.8 863.231C1956.88 866.412 1953.07 878.991 1949.45 885.218C1936.67 907.233 1930.05 932.242 1915.11 953C1909.61 960.64 1899.55 973.88 1900.68 983.956C1901.73 993.263 1913.02 990.256 1918.86 988.385C1947.44 979.229 1957.92 916.021 1965.44 891C1966.51 887.431 1976.39 857.441 1963.8 863.231M120 874.767C103.662 878.174 102.616 902.934 121 899.375C139.42 895.81 140.124 870.569 120 874.767M239.437 875.293C223.773 882.299 209.088 897.786 194 906.802C175.928 917.601 153.006 923.321 132.864 928.765C113.912 933.887 78.161 935.487 65.8916 953.574C63.9928 956.373 80.4883 972.751 84.1285 973.961C95.9149 977.878 116.375 964.468 127 959.842C165.014 943.287 217.126 928.674 246.911 898.903C254.044 891.774 254.465 868.572 239.437 875.293M900.01 899.163C883.417 906.388 889.34 936.183 906.997 928.45C925.642 920.285 922.219 889.493 900.01 899.163M1628.95 928.466C1620.19 930.117 1612.09 943.727 1606.4 949.856C1594.72 962.427 1580.53 973.466 1565.44 981.419C1557.71 985.493 1545.34 986.857 1540.22 994.795C1534.31 1003.96 1545.18 1014.47 1554 1013.9C1579.59 1012.23 1611.17 971.559 1625.58 953C1627.82 950.109 1642.53 925.906 1628.95 928.466M1305 949.438C1288.14 951.336 1269.97 950.905 1253 951.003C1234.55 951.109 1214.81 956.099 1197.02 960.685C1191.39 962.136 1181.98 969.032 1188.5 975.315C1197.11 983.604 1223.31 975.74 1234 975.071C1266.14 973.058 1298.86 969.772 1331 970.217C1346.36 970.429 1367.86 976.759 1381.99 968.517C1387.34 965.396 1391.39 952.205 1382.84 950.284C1360.38 945.233 1327.87 946.864 1305 949.438M1689.02 954.003C1672.58 960.305 1680.26 983.347 1696.95 977.465C1712.02 972.155 1705.11 947.835 1689.02 954.003M553 1183.71C525.336 1187.01 514.911 1211.08 499.18 1230.96C477.027 1258.95 448.355 1271.2 451.253 1311C453.01 1335.13 476.403 1350.73 486.701 1371C491.479 1380.4 495.043 1393.17 508 1391.72C539.972 1388.13 566.689 1363.91 592 1346.82C610.783 1334.14 630.327 1325.47 634.348 1300C636.082 1289.02 629.901 1277.91 626.282 1268C616.053 1240.01 590.071 1179.3 553 1183.71M185 1202.64C167.711 1206.12 160.595 1222.08 149.847 1234C121.132 1265.85 100.926 1283.66 124.175 1325C133.141 1340.94 150.418 1372.14 173 1368.56C194.073 1365.22 222.79 1335.36 238.999 1321.84C244.183 1317.52 255.289 1312.07 256.594 1304.98C263.077 1269.8 227.96 1193.99 185 1202.64M1198 1208.75C1189.73 1209.21 1173.73 1209.55 1169.43 1218.15C1166.05 1224.9 1173.21 1241.91 1175.19 1249C1181.52 1271.71 1181.86 1295.98 1187.32 1319C1189.75 1329.22 1190.41 1359.81 1202.01 1362.99C1217.58 1367.26 1215.64 1345.07 1214.78 1336C1212.45 1311.24 1209.31 1286.75 1206.77 1262C1206.08 1255.2 1199.97 1242.42 1205.52 1236.56C1211.6 1230.15 1228.67 1233.69 1236.99 1232.67C1269.79 1228.66 1305.71 1229.82 1338.97 1234.15C1348.81 1235.43 1343.35 1251.39 1342.56 1258C1339.54 1283.35 1333.78 1307.7 1330.28 1333C1329.3 1340.07 1326.26 1360.55 1338 1360.97C1349.2 1361.38 1352.32 1337.77 1354.3 1330C1360.78 1304.58 1368.21 1278.91 1372.74 1253C1374.44 1243.26 1376.36 1228.72 1369.33 1220.52C1360.34 1210.04 1340.6 1211.05 1328 1209.56C1286.77 1204.7 1239.33 1206.48 1198 1208.75M558 1216C564.856 1216.87 570.557 1225.38 574.966 1230C589.007 1244.72 606.274 1276.12 595.194 1296.98C587.294 1311.86 566.403 1322.65 554 1333.68C545.821 1340.96 531.251 1359.47 519 1357.67C499.447 1354.8 471.464 1307.85 479.365 1289C486.303 1272.45 506.786 1261.77 517.878 1248C527.039 1236.62 540.293 1213.76 558 1216M888.999 1216.81C876.518 1219.87 866.973 1236.5 857.999 1244.86C844.602 1257.35 830.579 1269.24 813.96 1277.24C798.972 1284.46 778.389 1289.11 769.341 1304.79C765.83 1310.87 775.595 1315.41 780 1316.21C808.169 1321.32 846.46 1288.2 867.997 1273.74C874.218 1269.57 883.181 1254.53 891.019 1255C899.29 1255.5 907.209 1265.6 914.075 1269.58C939.516 1284.33 975.747 1310.44 1005 1298.88C1009.65 1297.05 1016.18 1290.69 1010.28 1286.07C1003.19 1280.52 985.921 1281.11 977 1277.25C955.071 1267.77 934.962 1251.6 917.925 1235.09C911.818 1229.17 898.309 1214.53 888.999 1216.81M1684 1222.56C1670.42 1224.32 1657.54 1223.68 1644 1224.18C1630.31 1224.68 1612.92 1224.03 1600.03 1228.53C1594.63 1230.42 1587.01 1238.77 1594.42 1243.5C1602.35 1248.55 1617.63 1242.27 1626 1241.22C1649.76 1238.22 1675.05 1238 1699 1238C1707.48 1238 1722 1240.79 1728.71 1234.47C1743.13 1220.92 1691.29 1221.61 1684 1222.56M188.008 1235.52C208.091 1231.89 228.001 1254.27 225.632 1273C222.88 1294.76 194.541 1328.03 172 1331.43C161.773 1332.98 140.53 1301.51 140.623 1292C140.691 1284.99 148.609 1279.72 152.702 1274.96C161.889 1264.28 172.349 1238.35 188.008 1235.52M2043 1235.47C2028.54 1237.65 2028.31 1256.64 2044 1253.65C2058.02 1250.99 2059.91 1232.92 2043 1235.47M1960.01 1242.06C1944.68 1248.05 1948.52 1270.94 1966 1264.22C1982.19 1257.99 1975.29 1236.1 1960.01 1242.06M1558.28 1245.5C1551.95 1248.16 1553.35 1261.77 1553.78 1267C1555.46 1287.3 1549.52 1307.35 1552.36 1328C1553 1332.61 1552.24 1353.45 1559.06 1351.11C1568.56 1347.84 1567.03 1336.74 1567.93 1329C1570.43 1307.51 1578.48 1288.01 1575.76 1266C1575.04 1260.12 1566.26 1242.15 1558.28 1245.5M1755.03 1244.95C1746 1246.27 1750.91 1257.1 1750.99 1263C1751.23 1280.7 1748.33 1298.19 1749.04 1316C1749.23 1320.75 1751.02 1334.69 1757.87 1334.13C1765.79 1333.5 1767.56 1319.79 1768.22 1314C1770.18 1296.68 1774.28 1277.25 1769.31 1260C1767.35 1253.2 1764.08 1243.63 1755.03 1244.95M2085.99 1269.46C2041.59 1271.36 1996.53 1284.25 1952 1288.22C1946.08 1288.74 1909.18 1293.3 1924.47 1306.1C1933.94 1314.04 1956.51 1312.17 1968 1311.21C2003.42 1308.26 2046.4 1308.92 2079 1292.92C2085.9 1289.53 2107.12 1268.56 2085.99 1269.46M536 1269.64C518.697 1273.76 515.314 1306.74 535.992 1301.37C552.646 1297.04 556.982 1264.64 536 1269.64M1268 1273C1250.16 1275.24 1249.75 1307.16 1268 1305.26C1287.21 1303.26 1287.73 1270.51 1268 1273M1641 1277.68C1632.68 1278.7 1607.55 1288.78 1629.01 1294.36C1646.82 1298.98 1679.49 1297.56 1697 1292.25C1705.96 1289.53 1710.08 1281.03 1698 1279.27C1680.9 1276.78 1657.98 1275.6 1641 1277.68M1695 1332.44C1681.37 1334.02 1667.58 1334.77 1654 1336.45C1645.66 1337.48 1637.27 1338.28 1629 1339.81C1624.02 1340.73 1597.46 1340.12 1595.86 1344.25C1590.53 1358 1617.15 1359.97 1624 1360C1650.19 1360.13 1676.99 1357.65 1703 1354.44C1711.26 1353.42 1725.92 1352.62 1732.09 1346.26C1744.24 1333.74 1701.18 1331.73 1695 1332.44M2000 1335.14C1984.05 1341.33 1991.43 1362.25 2006.91 1356.08C2020.41 1350.7 2013.92 1329.75 2000 1335.14M1636 1353L1636 1355L1632 1355L1632 1353L1636 1353M892.356 1554.62C877.702 1559.72 861.769 1576.48 847 1583.89C833.658 1590.59 812.135 1592.91 801.287 1603.47C794.997 1609.58 802.065 1617.95 809 1619.3C828.497 1623.1 858.879 1602.33 876 1594.45C881.148 1592.08 889.278 1585.55 895 1585.92C901.665 1586.34 910.261 1596.53 916 1600.07C927.338 1607.07 954.039 1613.95 966.999 1608.76C971.855 1606.82 978.068 1601.79 973.385 1596.46C968.802 1591.25 959.348 1591.38 953.32 1588.48C939.399 1581.78 926.655 1572.97 913 1565.89C908.258 1563.43 897.799 1552.73 892.356 1554.62M469.149 1563.09C461.136 1565.53 458.62 1582.32 455.338 1589C442.127 1615.87 444.633 1660.2 440.32 1690C439.479 1695.81 432.89 1726.7 445.014 1724.74C454.877 1723.14 457.481 1700.62 459.342 1693C467.16 1660.98 480.095 1634.82 475.361 1601C474.507 1594.9 481.41 1559.35 469.149 1563.09M572.46 1568.47C566.517 1571.45 566.311 1591.09 565.979 1597C564.409 1624.91 560.164 1652.49 557.1 1680.08C556.652 1684.11 551.025 1711.61 557.148 1709.46C565.886 1706.39 569.217 1693.49 572.569 1686C583.157 1662.33 596.012 1632.56 590.115 1606C588.618 1599.26 585.946 1561.73 572.46 1568.47M1646.01 1578.28C1636.2 1580.91 1626.93 1597.4 1621.03 1605C1598.64 1633.84 1581.73 1659.57 1601.11 1696C1609.75 1712.25 1613.33 1743.43 1638 1735.65C1655.88 1730.01 1669.78 1715.32 1682.99 1702.86C1686.43 1699.62 1695.58 1689.75 1688.61 1685.4C1677.68 1678.59 1655.35 1700.03 1644 1701.5C1628.54 1703.5 1619.55 1654.56 1623.2 1644C1626.35 1634.91 1644.25 1609.53 1654.08 1607.68C1663.08 1605.98 1696.59 1624.89 1698.76 1604.95C1700.2 1591.82 1656.83 1575.38 1646.01 1578.28M1323 1583.73C1308.87 1587.44 1309.02 1610.67 1325 1606.23C1339.74 1602.13 1339.74 1579.35 1323 1583.73M2010 1584.6C1996.05 1587.35 1980.21 1590.69 1971.91 1603.44C1964.01 1615.58 1962.98 1640.08 1981 1644.17C2006.12 1649.87 1986.85 1624.4 1992.83 1615.09C1999.13 1605.28 2016.54 1604.46 2027 1604.38C2033.01 1604.34 2048.22 1608.14 2049.7 1615.1C2050.87 1620.57 2035.15 1641.17 2053.02 1639.57C2070.08 1638.04 2073.54 1610.25 2065.32 1599C2054.43 1584.1 2027.05 1581.23 2010 1584.6M1223.43 1588.26C1210.54 1596.23 1221.96 1614.39 1235.89 1606.22C1249.05 1598.49 1234.43 1581.46 1223.43 1588.26M1359 1611.81C1347.13 1614.05 1337.4 1626.98 1325 1626.45C1306.04 1625.63 1291.49 1609.68 1272 1612.88C1257.86 1615.2 1247.24 1632.39 1233 1632.85C1219.82 1633.28 1208.45 1616.3 1195.3 1618C1181.74 1619.75 1145.53 1637.99 1145.44 1653.96C1145.35 1671.75 1183.29 1647.82 1193 1649.37C1207.35 1651.66 1221.79 1664.13 1237.22 1661.81C1253.16 1659.4 1265.59 1643.49 1282 1644.26C1296.23 1644.94 1306.96 1660.31 1322 1658.28C1334.43 1656.61 1340.48 1643.24 1351.91 1640.52C1365.48 1637.3 1379.72 1667.43 1398.34 1653.24C1419.12 1637.41 1386.97 1635.53 1379.1 1628.58C1373.06 1623.25 1369.15 1609.89 1359 1611.81M889.488 1618.26C881.513 1621.28 880.475 1633.05 879.543 1640C877.279 1656.89 875.627 1674.29 872.371 1691C870.813 1699 865.611 1708.82 866.211 1716.96C866.681 1723.33 875.846 1729.94 881.992 1728.27C890.381 1725.97 893.664 1713.39 895.419 1706C900.857 1683.12 898.518 1659.26 900.672 1636C901.195 1630.36 898.667 1614.79 889.488 1618.26M515.081 1626.91C500.554 1632.15 504.685 1660.84 521.992 1653.94C537.876 1647.6 533.533 1620.24 515.081 1626.91M177.008 1636.26C159.796 1644.97 172.36 1671.23 188.637 1663.62C207.191 1654.94 196.337 1626.48 177.008 1636.26M2035 1672.44C2011.75 1675.08 1987.36 1676.41 1964 1677.02C1957.67 1677.18 1942.21 1676.62 1940.65 1685.02C1938.51 1696.53 1972.8 1695 1979 1695C2018.96 1695 2069.16 1704.04 2107.68 1692.46C2119.61 1688.87 2124.14 1675.01 2109 1672.49C2086.78 1668.78 2057.37 1669.9 2035 1672.44M1632 1886.68C1615.9 1890.72 1622.24 1913.21 1637.98 1908.4C1650.89 1904.44 1645.93 1883.19 1632 1886.68M2000 1951C2000.22 1974.97 2001.48 2001.33 2005.36 2025C2008.07 2041.53 2009.31 2057.59 2013.37 2074C2017.63 2091.18 2019.09 2112.48 2027.44 2128.14C2031.65 2136.03 2041.1 2143.34 2046.73 2131.99C2051.64 2122.1 2043.76 2093.97 2041.7 2083C2034.21 2043.2 2030 2002.83 2022.17 1963C2018.85 1946.12 2016.97 1918.88 1997 1912.78C1977.69 1906.88 1971.75 1933.44 1968.26 1947C1956.03 1994.52 1943.27 2042.29 1931.82 2090C1929.63 2099.13 1914.79 2141.11 1933 2141.03C1948.23 2140.96 1953.13 2106.86 1956.37 2096C1966.37 2062.47 1977.11 2028.54 1985.84 1994C1989.15 1980.92 1989.36 1960.39 2000 1951M232.008 1918.94C217.716 1924.66 207.238 1950.87 199.038 1963C176.433 1996.44 150.871 2028.54 126.628 2060.78C120.063 2069.51 110.625 2079.84 109.196 2091C108.705 2094.84 108.05 2103.41 114.127 2102.93C126.857 2101.93 140.787 2081.3 148.992 2073C180.714 2040.91 216.154 2000.53 237.958 1961C243.306 1951.3 260.559 1907.51 232.008 1918.94M1628 1933.58C1600.92 1938.83 1569.23 1964.99 1565.27 1994C1559.84 2033.65 1586.79 2091.44 1636 2082.63C1679.39 2074.86 1711.17 2032.07 1707.86 1988C1705.26 1953.41 1660.8 1927.22 1628 1933.58M478 1939.44C470.856 1940.24 458.428 1939.54 452.287 1943.38C444.584 1948.21 454.474 1957.57 460.008 1958.65C493.753 1965.25 528.994 1958.44 563 1965.88C572.739 1968.01 589.618 1969.71 596.079 1978.32C601.474 1985.51 598 1999.54 598 2008C598 2033.74 597 2059.31 597 2085C597 2091.12 593.804 2117.85 603.033 2117.35C616.732 2116.59 621.682 2091.22 623.36 2081C627.917 2053.24 626.002 2022.06 626 1994C625.999 1980.38 626.739 1962.77 619.654 1950.47C615.317 1942.94 593.651 1945.89 586 1945.1C551.933 1941.57 512.021 1935.63 478 1939.44M976.246 1945.56C968.165 1948.77 967.109 1973.23 965.619 1981C961.172 2004.21 947.932 2044.69 922 2052C874.18 2065.46 851.786 1993.33 849.756 1960C849.411 1954.34 842.557 1946.02 836.483 1950.84C821.182 1963 841.053 1992.48 836.983 2006.7C834.569 2015.14 819.129 2020.09 812.001 2023.18C809.844 2024.12 796.591 2031.34 800.102 2034.87C811.527 2046.34 839.203 2025.64 848.625 2036.54C855.033 2043.96 857.787 2053.75 865.081 2060.86C873.589 2069.14 886.998 2070.9 894.539 2078.46C899.427 2083.36 900.012 2094.55 902.444 2101C904.879 2107.46 908.642 2125.2 917.921 2121.84C931.89 2116.79 925.642 2087.95 930.781 2077.19C933.747 2070.97 945.625 2067.33 950.782 2062.31C961.737 2051.66 966.947 2035.29 977.505 2025.5C984.635 2018.89 1010.28 2024.16 1012.35 2011.94C1014.41 1999.82 995.523 2001.73 991.338 1995.32C987.35 1989.2 1000.81 1935.81 976.246 1945.56M1273 2024C1278.72 2007.61 1274.49 1977.9 1291.04 1967.32C1304.38 1958.81 1338.04 1972.03 1347.61 1955.68C1352.95 1946.55 1340.78 1945.01 1335 1945C1317.27 1944.98 1299.53 1945.83 1282 1946.91C1276.65 1947.24 1266.97 1944.65 1262.52 1947.98C1251.99 1955.85 1253.71 1990.96 1252.86 2003C1250.44 2037.52 1220.87 2139.8 1290 2122.92C1302.39 2119.9 1331.52 2097.47 1326.92 2082.15C1325.12 2076.13 1315.41 2078.27 1311.56 2080.73C1302.48 2086.55 1288.26 2109.24 1280.28 2090C1273.43 2073.5 1277.24 2045.72 1299 2044.22C1309.37 2043.5 1317.68 2060.23 1325.42 2047.95C1343.47 2019.31 1287.73 2017.57 1273 2024M1621 1957.5C1672.23 1951.78 1717.49 2006.6 1668.99 2045.52C1658.62 2053.84 1641.09 2058.27 1628 2059.66C1580.69 2064.68 1572.36 1962.93 1621 1957.5M906 1974.76C890.137 1978.88 891.887 2006.06 907.998 2002.22C922.752 1998.7 922.706 1970.43 906 1974.76M1602 1974L1603 1978C1603.68 1976.49 1603.83 1975.69 1604 1974L1602 1974M1525.98 2002.63C1513.46 2003.18 1511.07 2022.17 1524.99 2021.88C1536.11 2021.65 1538.18 2002.1 1525.98 2002.63M1728.12 2007.13C1715.59 2012.85 1722.35 2033.33 1735.87 2026.53C1746.95 2020.97 1740.27 2001.59 1728.12 2007.13M387 2015L393 2018C392.423 2013.67 390.375 2010.69 387 2015M517 2016.52C496.749 2019.61 499.042 2048.52 519.999 2045.79C537.911 2043.45 536.896 2013.49 517 2016.52M967 2028C966.41 2030.46 965.994 2031.46 964 2033C964.814 2030.91 965.532 2029.69 967 2028M964 2034L963 2035L964 2034M1980.16 2100.26C1967.76 2107.17 1977.13 2127.69 1988.67 2121.17C2003.13 2113 1996.39 2091.22 1980.16 2100.26M1631 2110.8C1618.47 2112.79 1618.53 2136.01 1632 2134.61C1646.82 2133.07 1646.99 2108.27 1631 2110.8z"/>
</svg>
