<?xml version="1.0" standalone="yes"?>
<svg xmlns="http://www.w3.org/2000/svg" width="2200" height="2200">
<path style="fill:#0f0f0f; stroke:none;" d="M463 280C476.402 272.599 487.696 251.228 496.875 239C516.461 212.907 534.8 185.765 554.779 160C566.361 145.065 582.375 129.225 586 110C573.231 114.92 563.278 141.098 555.04 152C535.373 178.025 516.962 204.958 497.278 231C485.354 246.777 470.442 261.395 463 280M257 117C259.046 117.751 259.596 117.656 261 116L257 117M434 266C445.647 263.632 453.183 243.086 459.921 233.783C479.979 206.089 504.487 179.271 520.841 149.217C525.184 141.237 536.185 126.904 535 118C522.457 126.639 516.584 148.6 507.762 161C484.296 193.982 448.938 228.097 434 266M197 120C165.9 153.411 135.293 194.321 109.584 232.038C102.163 242.925 70.5187 267.554 94 273C92.563 259.112 103.115 250.503 110.408 239.882C129.697 211.789 152.736 186.507 172.835 159C177.891 152.08 201.414 127.812 197 120M848 274C863.197 270.675 872.64 249.799 880.677 238C901.508 207.414 920.95 176.854 938.581 144.361C943.32 135.627 952.592 129.296 956 120C941.249 123.352 931.029 150.917 924.145 163C901.965 201.931 876.325 239.604 848 274M1223 195C1231.65 176.263 1246.46 160.394 1257.45 143.04C1258.66 141.146 1269.14 125 1264.09 125.003C1260.76 125.005 1254.26 139.206 1252.35 142C1243.14 155.517 1230.72 185.479 1216.7 193.74C1194.44 206.853 1157.03 190.951 1133 203C1140.51 205.659 1149.98 209.488 1158 209C1157.36 211.136 1157.05 212.779 1157 215C1161.55 210.552 1160.34 206.985 1155 204C1162.16 202.187 1169.69 203.385 1177 202.562C1183.24 201.86 1206.44 195.349 1210.94 200.26C1214.3 203.934 1201.85 218.046 1199.52 221C1186.31 237.711 1162.61 261.784 1158 283C1167.39 279.612 1174.95 262.992 1180.46 255C1190.03 241.103 1207.1 206.238 1222.26 199.105C1229.57 195.664 1243.87 197.032 1252 197C1239.38 221.937 1201.27 248.815 1198 277C1225.14 261.672 1231.46 212.938 1259.06 198.065C1267.29 193.632 1284.73 197 1294 197C1284.11 215.759 1268.27 233.305 1255.22 250C1253.62 252.057 1241.41 264.917 1243.89 266.722C1248.59 270.136 1262.02 248.507 1264.5 245.438C1274.47 233.102 1287.28 203.916 1302.04 197.601C1309.05 194.601 1319.4 197.977 1327 197C1316.11 227.257 1288.29 250.102 1272 277C1280.89 275.837 1286.74 265.561 1291.98 259C1305.56 242.007 1315.89 212.904 1332.38 199.423C1339.47 193.625 1357.23 197 1366 197C1362.79 189.667 1343.41 192.263 1336 192C1342.11 184.616 1347.29 176.487 1353.28 169C1356.98 164.386 1360.56 159.707 1364.14 155C1365.3 153.473 1380.12 132.385 1375.07 133.438C1370.97 134.294 1366.05 144.773 1363.64 148C1354.06 160.793 1343.28 181.584 1330.56 191.06C1327.45 193.38 1308.81 195.096 1306.6 191.181C1304.87 188.124 1315.06 176.493 1316.92 174C1326.9 160.596 1342.78 141.259 1344 124C1337.45 126.85 1334.39 138.912 1330.96 145.041C1323.41 158.488 1310.95 182.661 1297.91 191.178C1289.68 196.557 1271.59 192 1262 192C1275.21 176.63 1286.09 158.654 1297.65 142C1298.64 140.578 1310.47 124.643 1305.63 124.643C1301.2 124.643 1295.22 137.741 1292.95 141C1282.22 156.431 1272.17 175.115 1259.29 188.794C1252 196.546 1233.13 193.202 1223 195M902 124C895.446 186.7 825.642 230.046 804 287C815.614 282.583 825.496 263.039 832.118 253C851.283 223.946 872.166 195.794 890.181 166C895.884 156.569 913.653 132.756 902 124M1540 238C1549.25 238.32 1547.52 248.079 1557 247C1553.26 231.61 1576.54 238.737 1585 239.011C1609.87 239.818 1648.77 257.724 1670.02 238.744C1674.02 235.173 1669.05 225.244 1668.36 221C1665.55 203.889 1662.76 190.499 1657.59 174C1654.78 165.056 1654.46 137.589 1646 134C1646 160.755 1656.12 181.616 1662.4 207C1663.85 212.881 1668.1 230.249 1664.66 235.502C1659.49 243.393 1642.7 240.964 1635 240.219C1610.79 237.877 1584.27 229.704 1560 234C1574.66 203.984 1605.78 179.88 1627.41 154.866C1631.35 150.307 1650.38 133.198 1649.31 127.222C1647.92 119.538 1628.44 145.391 1625.42 149C1603.9 174.669 1580.94 198.542 1560.34 224.94C1555.74 230.831 1541.2 233.912 1540 238M895 268C905.528 263.873 913.476 248.259 919.749 239.21C936.501 215.043 952.235 190.192 967.713 165.217C970.412 160.862 989.739 134.222 984.36 130.544C982.499 129.271 966.606 159.25 964.487 163.019C950.864 187.24 934.394 211.38 918.226 234C910.876 244.283 898.59 255.831 895 268M1912 266C1919.4 253.938 1955.65 252.274 1968.78 255.814C1979.79 258.785 1986.18 266.909 1999 265.893C2011.86 264.873 2016.81 250.826 2028 247.206C2041.05 242.987 2062.35 262.254 2054 245C2058.25 245.751 2084.77 252.01 2085.46 250.711C2088.63 244.729 2052.98 240.975 2050.17 236.759C2029.54 205.803 2021.56 162.843 2006 129C1992.9 136.894 1987.87 160.69 1979.06 173C1960.91 198.367 1941.74 226.005 1919.12 247.592C1915.79 250.772 1910.99 248.107 1908.12 250.906C1903.4 255.512 1907.61 263.343 1912 266M2003 138C2014.5 150.049 2017.99 173.928 2025 189C2015.86 190.636 2004.09 188.294 2000 199C2028.93 177.949 2044.27 227.896 2019.82 242.657C2015.11 245.5 1992.23 251.025 1988.26 246.178C1984.58 241.679 1988.77 234.41 1990.17 229.922C1994.23 216.864 1990.74 199.547 1996.8 187.266C1999.65 181.491 2013.78 184.856 2014.79 179.71C2016.03 173.42 1999.69 181.153 1997.59 178.098C1995.67 175.307 2001.33 141.409 2003 138M1999 149C1996.55 170.569 1991.95 185.325 1971 193C1976.87 178.187 1989.49 163.605 1997 149L1999 149M1987.13 187.843C1993.17 186.62 1990.18 197.808 1989.85 201C1989.08 208.598 1986.62 248.108 1979.85 249.624C1969.52 251.937 1966.59 237.132 1964.5 230C1959.88 214.202 1969.51 191.408 1987.13 187.843M1151 204L1150 205L1151 204M1962 206C1957.58 225.066 1962.64 232.642 1967 251C1952.84 250.152 1935.53 253.424 1922 250C1933.9 238.921 1947.33 211.338 1962 206M2048 239C2042.23 241.977 2034.4 241.403 2028 242C2030.26 232.651 2035.26 227.217 2034 217C2042.04 220.82 2041.22 233.084 2048 239M2015 248C2010.32 256.47 2002.47 260.915 1993 260.115C1990.83 259.931 1978.58 259.521 1980.11 255.236C1981.52 251.258 2009.9 249.373 2015 248M2097 257C2101.81 255.917 2104.93 252.609 2109 250C2103.39 247.233 2097.99 251.316 2097 257M168 288C170.735 288.084 171.084 287.735 171 285C169.077 285.901 169.001 286.076 168 288M758 420C774.107 439.239 797.746 453.029 807 478C801.223 475.4 795.23 472.199 789 471C794.134 481.535 810.511 478.302 814.244 488.089C817.345 496.219 811.561 518.947 810.081 528C805.611 555.347 801.195 582.437 798.32 610C797.264 620.128 800.806 633.424 797.079 642.956C788.443 665.046 751.653 675.48 751 702C768.838 689.907 777.006 662.2 796.816 652.704C807.091 647.778 830.548 655.124 842 655.861C866.016 657.407 893.88 654.189 918 651.68C930.241 650.406 947.23 645.619 958.821 651.436C974.323 659.215 979.377 684.587 992 695C997.233 673.934 965.595 658.336 959.922 640C957.023 630.63 959.999 616.886 960 607C960.002 580.411 954.12 538.798 963.94 514C967.924 503.937 980.77 495.679 988.096 487.922C998.096 477.333 1008.68 467.069 1018.14 456C1019.51 454.397 1028.01 445.875 1025.02 443.544C1022.26 441.392 1011.9 456.019 1010.1 457.96C995.854 473.316 981.247 493.102 964 505C962.894 482.13 933.945 499.021 922 499.941C896.884 501.875 871.993 489.446 847 486.339C834.739 484.814 823.937 488.16 814.476 477.761C800.448 462.343 783.53 418.574 758 420M1591 451C1594.73 456.408 1625.83 448.084 1634 446.575C1660.2 441.734 1702.13 446.017 1727 454.56C1731.33 456.047 1736.69 452.83 1740.39 454.907C1745.12 457.559 1744.14 465.578 1743.68 470C1742.17 484.526 1746 498.424 1746 513C1746 530.965 1742.55 547.521 1739.38 565C1738.47 570.055 1739.13 579.37 1735.2 583.178C1728.77 589.398 1709.44 585.254 1701 586.824C1681.5 590.45 1667.52 582.988 1649 583.563C1632.27 584.083 1606.74 591.226 1591 598C1591 562.623 1587 527.454 1587 492C1587 482.591 1590.57 460.451 1582 455L1577 469C1583.16 473.217 1581.84 487.011 1581.98 494C1582.47 517.557 1587.86 542.648 1585.78 566C1585.13 573.297 1581.49 595.856 1588.6 600.722C1595.96 605.755 1614.81 595.877 1623 594.934C1651.34 591.67 1679.3 592.335 1708 592.008C1713.86 591.941 1736.19 593.926 1739.79 590.135C1744.42 585.263 1743.51 573.277 1745.01 567C1752.05 537.616 1749.52 512.099 1747.73 483C1747.09 472.749 1753.11 457.421 1742.68 450.042C1733.11 443.266 1706.7 444.123 1695 443.993C1676.02 443.782 1656.98 439.605 1638 441.144C1621.48 442.483 1606.73 448.609 1591 451M1885 443C1892.54 463.198 1902.17 480.892 1918 495.922C1924.68 502.267 1943.99 514.261 1944.98 524C1947.89 552.586 1900.85 551.551 1885 555C1895.07 564.501 1911.4 556.06 1923 554C1920.85 559.115 1898.65 582.011 1904.99 586.593C1909.66 589.967 1924.63 555.257 1934.05 555.846C1943.78 556.454 1972.2 555.878 1979.44 561.822C1988.3 569.081 1987.06 585.43 1998.09 591.783C2007.68 597.308 2022.92 598.202 2023 585C2002.95 595.089 1996.91 581.888 1987 566C1990.67 566.327 2005.09 568.702 2007.1 565.16C2010.44 559.29 2006.41 543.243 2004.93 537C2000.08 516.584 2000.16 494.885 1999.08 474C1998.74 467.468 1999.58 453.752 1994.14 448.969C1990.87 446.094 1983.54 460.604 1981.76 463C1971.83 476.368 1964.71 508.515 1950.62 516.894C1946.65 519.253 1936.69 505.643 1934 503.04C1918.55 488.105 1897.79 471.664 1894 449C1898.03 450.859 1901.62 453.127 1906 454C1902.84 446.572 1892.46 443.48 1885 443M1991 459C1999.32 483.047 1993.4 510.335 1998.69 535C1999.62 539.37 2005.01 557.32 2000.18 560.138C1987.99 567.244 1955.45 532.147 1954.52 522.019C1953.98 516.156 1962.25 508.816 1964.96 504C1973.52 488.774 1978.89 472.288 1991 459M1663 461C1653.92 483.362 1654.86 512.304 1654.04 536C1653.92 539.42 1650.76 560.232 1657.29 559.493C1660.36 559.145 1658.83 540.622 1659.13 537C1660.46 520.562 1660.12 503.319 1663.54 487.217C1665.22 479.294 1668.86 467.787 1663 461M516 512C523.448 507.792 527.268 498.933 537 501C554.608 484.575 593.026 509.79 598.499 529.007C600.73 536.844 597.112 547.242 595.618 555C590.985 579.068 565.748 628.914 542 638.435C499.225 655.585 475.849 617.176 470.536 580C466.481 551.629 479.19 504.037 505.218 488.268C520.398 479.071 534.575 480.963 550.257 481.748C555.687 482.019 548.752 475.252 546.977 474.552C523.791 465.401 494.523 488.36 483.831 506C461.557 542.752 454.604 605.358 490.019 637.772C536.461 680.279 574.01 610.739 591.38 578C597.64 566.201 609.355 538.875 603.419 525.155C591.927 498.592 526.6 468.418 516 512M1263 486C1255.12 487.994 1224.25 481.749 1220.22 486.857C1220.53 486.474 1229.88 497.374 1228.3 504C1221.39 533.16 1216.55 563.184 1212.28 593C1211.46 598.735 1204.6 621.461 1210.16 623.396C1219.39 626.606 1230.55 621.83 1240 622.019C1266.7 622.551 1291.3 621.472 1318 625.602C1322.36 626.276 1350.8 629.598 1352.08 628.352C1365.05 615.724 1361.98 582.374 1365.86 566C1369.17 552.09 1368.19 538.322 1374.04 525C1375.87 520.809 1379.75 513.113 1376.72 508.666C1371.6 501.137 1352.09 501.704 1344 500.103C1317.58 494.874 1289.06 487.052 1263 479.384C1259.64 478.394 1238.71 470.625 1237.11 474.714C1235.01 480.062 1259.5 484.771 1263 486M169.432 487.305C164.489 488.815 166.193 512.464 166.04 517C164.959 549.222 163 581.807 163 614C163 617.76 162.276 649.19 165.783 647.894C170.838 646.026 168 621.817 168 617C168 584.951 172 553.075 172 521C172 516.422 174.84 485.652 169.432 487.305M826 492C860.059 484.274 892.613 508.168 927 503.942C931.709 503.364 958.638 500.313 959.385 502.335C961.907 509.169 953.723 515.346 949.32 519.098C937.251 529.385 923.025 538.014 910 547.078C905.933 549.909 900.322 556.195 895 556.048C888.465 555.867 880.277 546.291 876.019 541.992C860.377 526.204 838.751 509.9 826 492M1265 492C1262.2 502.833 1247.75 499.51 1243.57 506.604C1232.41 525.546 1223.72 572.591 1240.28 590.761C1251.7 603.281 1278.41 609.622 1294 616C1287.61 617.652 1281.39 614.075 1275 614.611C1253.78 616.394 1232.46 619 1211 619C1220.83 596.882 1225.53 559.352 1226.92 535C1227.44 525.869 1228.29 499.752 1235.22 493.26C1240.19 488.599 1258.35 492.384 1265 492M1334 621C1359.8 591.138 1375.11 537.145 1330.98 515.711C1311.33 506.165 1280.58 510.665 1259 506C1272.6 482.024 1291.37 497.721 1310 502.023C1324.66 505.408 1340.76 504.706 1356 508.382C1359.64 509.26 1368.07 509.174 1370.17 512.781C1374.56 520.337 1364.48 533.434 1363.35 540.993C1360.25 561.679 1361.38 584.404 1353.7 604.136C1352.11 608.215 1352.89 616.85 1349.2 619.576C1346.07 621.882 1337.88 620.773 1334 621M801 639C807.406 590.851 815.106 541.355 818 493C838.432 500.527 857.355 529.56 872.321 544.782C875.881 548.402 889.38 556.009 888.677 561.656C887.941 567.559 871.475 576.311 867 580.184C846.388 598.026 824.778 626.34 801 639M1253.14 509.616C1263.25 506.727 1275.16 516.119 1284.96 517.591C1308.74 521.163 1331.91 510.176 1349.04 535.001C1362.31 554.235 1352.44 611.115 1327 618.906C1309.18 624.361 1279.65 604.602 1264 597.564C1257.71 594.737 1249.51 593.871 1244.8 588.404C1240.26 583.135 1240.33 573.468 1238.07 567C1233.64 554.368 1237.61 514.054 1253.14 509.616M958 516C961.33 529.237 956.085 546.429 955.136 560C953.643 581.367 961.505 612.313 954 632C937.487 616.698 929.921 593.576 914.845 577C912.001 573.872 898.616 564.322 900.544 559.634C902.723 554.337 913.388 549.431 918 546.335C931.892 537.006 945.215 526.727 958 516M1977 557C1962.68 554.828 1948.37 552.613 1934 551C1944.68 520.141 1966.43 531.844 1977 557M954 644C915.863 642.597 878.818 649.906 841 649.999C835.84 650.012 806.662 650.14 804.761 645.083C803.268 641.109 813.589 633.437 815.96 631.003C829.018 617.598 843.558 604.054 858.079 592.205C866.087 585.669 882.983 565.705 894 566.046C900.913 566.26 908.472 576.151 912.425 581C924.799 596.18 950.212 624.91 954 644M399 648L399 651L402 651L402 648L399 648M1955 868C1949.56 866.776 1943.48 858.011 1939 864C1943.5 865.457 1960.87 875.502 1959.14 881.26C1957.79 885.707 1939.61 893.258 1935.62 900C1919.45 927.332 1905.08 1001.54 1947 1013.47C2010.3 1031.49 2050.96 882.548 1980 880C1993.21 864.608 2018.96 862.239 2031.99 844.32C2054.87 812.838 2048.53 751.462 1997 757.217C1986.59 758.379 1975.12 770.046 1968 777.019C1943.2 801.295 1927.79 838.095 1955 868M1995 762.668C2023.04 754.401 2045.98 789.58 2041.54 814C2036.15 843.672 2002.22 869.439 1974 876.753C1957.54 881.02 1946.71 844.308 1945.26 833C1941.83 806.177 1969.67 770.136 1995 762.668M903 812L903 810C905.759 810 932.974 808.936 930.239 803.697C928.648 800.649 914.083 805.822 911 805.96C889.155 806.935 863.065 817.15 843.992 827.584C828.461 836.082 810.292 847.611 802.096 864C788.183 891.822 802.05 938.739 825.008 957.657C843.708 973.067 877.555 977.325 901 977.539C926.441 977.771 933.126 944.062 937.43 925C946.401 885.272 971.986 840.489 925.32 816.968C917.639 813.097 911.629 812.004 903 812M1304 817L1312 814C1311.23 827.11 1294.1 835.474 1282.43 828.667C1277.35 825.699 1275.57 819.31 1270 817C1271.07 835.583 1250.99 827.034 1240 821C1227.89 835.848 1212.34 825.314 1201 822C1199.92 824.644 1192.92 828.665 1193.32 830.773C1193.97 834.159 1200.09 832.316 1200.68 836.468C1204.89 866.128 1181.18 908.839 1200.71 935.517C1205.01 941.404 1220.34 940.489 1227 941.478C1248.1 944.611 1295.21 959.16 1312.28 942.056C1328.84 925.458 1329.13 882.937 1336.83 861C1339.33 853.867 1344.84 840.068 1342.42 832.499C1339.93 824.707 1320.79 830.927 1315.68 826.74C1311.51 823.326 1318.76 815.693 1312.63 812.844C1308.67 811.007 1305.44 813.6 1304 817M879 882C885.478 867.358 891.711 836.129 886 821C894.399 818.051 929.687 810.039 931.136 826.304C931.613 831.659 924.174 837.857 920.952 841.437C910.958 852.542 893.922 878.604 879 882M885 818C880.953 823.247 874.746 827.262 870 832C874.762 830.318 878.238 826.682 883 825C883 839.025 880.472 852.257 878.409 866.003C878.124 867.901 878.568 878.357 875.878 878.357C872.189 878.357 855.413 848.455 853 844L859 844C857.857 841.456 847.38 833.921 846.438 839.442C843.922 854.18 872.401 872.491 873.228 889C873.561 895.665 865.198 901.8 861 906C848.45 918.558 831.363 928.895 820 942C825.158 941.49 828.374 942.879 833 945C828.648 937.698 866.364 899.711 875 900C873.504 903.31 866.76 932.357 873.078 932.357C877.715 932.357 877 904.006 877 900C884.319 904.427 891.875 927.544 894 936L886 931C887.401 933.441 896.601 943.966 899.367 938.513C903.835 929.705 881.804 903.024 881.202 892.217C880.595 881.313 909.745 858.292 916.992 851.003C920.82 847.152 932.592 829.659 938.007 830.323C951.319 831.956 950.239 854.439 948.125 863C941.095 891.458 936.81 925.165 925.367 952C921.355 961.407 911.533 974.696 900.019 973.492C869.511 970.301 830.509 966.132 813.91 937C789.115 893.485 805.259 856.059 845 831.969C855.122 825.834 872.891 816.595 885 818M1603 846C1607.61 870.896 1561.01 915.387 1541 929.081C1533.6 934.145 1520.92 932.283 1515 939C1531.92 945.562 1531.66 938.363 1547 934.526C1559.54 931.388 1583.91 930.422 1596.66 931.939C1601.12 932.471 1587 961.75 1596.37 958.894C1600.51 957.635 1605.6 930.669 1610 925C1612.82 932.197 1610.81 945.614 1620 948C1619.49 942.912 1614.21 929.027 1618.72 925.122C1626.42 918.453 1665.71 919.833 1661.29 935.79C1659.63 941.755 1644.03 955.986 1638 958.109C1632.42 960.076 1623.61 956.421 1621 963C1645.2 961.776 1665.04 951.789 1666 926C1668.71 927.266 1682 930.788 1682 924.864C1682 918.444 1665.52 923.181 1662.96 914.97C1658.85 901.759 1660.3 884.891 1657.82 871C1656.93 866.01 1653.32 860.039 1655.27 855C1656.68 851.341 1673.83 834.302 1668.03 830.367C1665.31 828.522 1653.71 848.55 1650 851C1649.2 846.498 1647.52 842.341 1646.12 838C1645.15 835.003 1644.28 831.964 1643.21 829C1634.07 803.54 1618.86 851.525 1603 846M1623 880C1626.03 865.001 1630.15 849.762 1634 835C1617.4 842.385 1629.53 884.218 1612 889C1617.4 868.242 1608.82 858.635 1623.5 839C1625.78 835.952 1630 827.934 1634.12 827.323C1638.26 826.709 1641.54 840.983 1642.57 844C1648.05 860.15 1637.32 871.362 1623 880M1235 929C1232.52 926.814 1230.13 926.009 1227 925C1235.36 912.357 1249.86 890.195 1264 884C1266.16 896.218 1254.84 924.636 1260.35 933.568C1263.61 938.843 1268.56 903.683 1269 899C1273.56 904.658 1290.54 934.921 1286.64 941.48C1284.16 945.628 1272.08 942.157 1268 941.925C1253.87 941.119 1215.36 941.866 1204.74 932.068C1192.77 921.014 1200.06 894.147 1202.79 880.993C1204.79 871.373 1199.68 841.843 1206.26 835.26C1209.43 832.09 1221.57 833.354 1226 832.864C1230.48 832.369 1235.48 830.103 1239.9 831.947C1247.3 835.035 1248.52 847.235 1250.27 854C1252.16 861.26 1261.63 872.382 1259.75 879.861C1256.15 894.127 1199.06 930.959 1235 929M1251.87 833.822C1274.29 818.535 1274.52 868.189 1265.94 873.456C1262.73 875.424 1247.07 837.094 1251.87 833.822M1303 833C1298.32 845.257 1283.32 860.59 1272 867C1272.91 861.029 1272.47 839.774 1276.82 836.262C1281.14 832.78 1296.79 834.679 1303 833M1310.26 833.822C1315.35 831.571 1334.5 831.976 1336.49 838.208C1339 846.076 1332.6 857.779 1329.89 865C1323 883.355 1323.08 933.795 1302.99 942.11C1300.62 943.092 1296.3 945.202 1293.82 943.583C1291.15 941.838 1289.47 933.046 1288.1 930C1282.5 917.565 1273.6 903.248 1270.62 889.997C1267.26 875.056 1296.75 839.784 1310.26 833.822M1658 833L1657 837C1658.61 835.55 1659.06 834.948 1660 833L1658 833M525 900C529.223 886.533 530.61 871.073 531.54 857C531.723 854.235 533.675 842.998 528.864 843.106C523.924 843.216 524.926 851.934 525.136 855C526.149 869.76 521.761 884.228 523 899C512.743 892.512 500.285 871.789 494.65 861C490.754 853.542 491.471 844.606 482 843C488.17 861.856 500.243 873.9 509.158 890.993C510.868 894.272 520.535 903.412 517.233 906.877C506.625 918.006 458.665 898.142 452.106 922.411C450.231 929.349 474.762 930.586 478 927C471.699 927.023 469.57 922.146 463 924C477.17 908.864 497.766 918.303 515 913C508.124 930.377 489.287 951.875 476.828 965.845C471.429 971.899 459.081 980.574 459 989C463.351 987.039 465.874 986.274 470 989C470.428 976.874 477.997 973.003 484.948 963.922C496.689 948.583 506.51 928.82 521 916C521 930.701 521.83 945.353 521.992 960C522.015 962.02 520.858 974.505 524.864 973.677C528.4 972.946 527.005 962.519 526.999 960C526.964 945.002 525.002 930.008 525 915C535.977 924.922 546.13 943.996 553.196 957C557.785 965.445 554.039 973.481 566 978C565.834 960.28 551.099 944.386 541.93 930C539.687 926.481 530.763 917.19 533.329 912.741C540.164 900.89 562.912 917.022 570 906C552.946 903.713 543.047 903.227 527 909C533.023 892.046 557.146 871.044 570.816 859.254C574.309 856.241 588.517 846.612 587.687 841.373C587.009 837.094 572.671 851.312 571 852.801C554.767 867.264 542.08 886.774 525 900M1968 855C1971.57 853.487 1972.37 851.826 1972 848C1969.2 850.035 1968.45 851.576 1968 855M193 901C191.881 886.811 185.328 874.479 182 861C172.5 866.85 164.816 883.597 158.806 893C144.837 914.854 129.063 935.412 116.309 957.997C111.912 965.784 93.6778 974.796 97.869 985.849C100.49 992.762 108.816 984.214 114 985C108.358 991.365 89.037 1012.61 101 1018C99.5493 960.682 182.662 999.748 209.159 974.064C213.173 970.173 207.576 960.21 206.167 956C201.955 943.415 191.359 919.438 195.359 906.222C201.152 887.078 235.726 879.215 243 860C223.615 864.323 209.965 891.058 193 901M1650 861C1652.46 875.53 1654.91 889.288 1656.22 904C1656.49 907.063 1659.38 917.165 1656.18 919.119C1653.3 920.878 1646.28 917.321 1643 917.063C1633.05 916.278 1624.74 918.184 1615 920C1619.45 894.666 1624.89 875.739 1650 861M1606 865C1607.08 872.943 1611.56 885.206 1609.04 892.981C1601.97 914.807 1571.3 932.983 1550 928C1561.64 912.69 1576.73 899.189 1589.25 884.438C1594.14 878.683 1599.14 868.159 1606 865M180 869C182.392 876.715 190.436 897.342 188.031 904.742C186.099 910.686 177.014 915.926 172.721 920.321C162.803 930.474 153.755 941.807 145.038 953C142.228 956.608 117.075 989.345 111.582 979.175C109.13 974.635 122.257 956.655 124.682 952C139.316 923.899 168.139 899.181 178 869L180 869M1976.49 882.221C2000.39 874.99 2010 900.902 2010 918C2010 949.025 2004.25 999.641 1967 1010.12C1933.86 1019.44 1923.73 981 1924.06 956C1924.32 936.637 1931.82 904.019 1948.14 891.809C1955.95 885.963 1969.25 884.413 1976.49 882.221M1611 900C1610 909.644 1606.45 923.914 1595.99 926.428C1593.89 926.932 1587.06 929.485 1585.54 926.953C1582.42 921.757 1606.45 901.718 1611 900M581.999 902.525C576.835 903.43 568.86 911.452 578.031 909.929C585.911 908.62 595.802 900.108 581.999 902.525M127 978C140.557 960.605 156.162 942.417 171.121 926C174.216 922.603 182.32 911.589 187.517 912.323C191.376 912.868 191.293 922.172 191.913 925C193.88 933.96 208.089 963.044 203.655 970.517C200.951 975.073 190.608 974.407 186 975.497C166.932 980.009 146.405 982.911 127 978M100 1291C107.044 1287.04 112.735 1280.15 119 1275C113.149 1290.37 84.4025 1312.92 68.7604 1297.12C45.724 1273.86 63.8231 1226.61 88.0186 1212.28C103.055 1203.37 116.441 1208.52 132 1207L132 1205C120.275 1201.72 111.963 1201.87 100 1203C113.848 1192.8 128.593 1200.12 141 1193C102.662 1181.94 64.1369 1216.38 56.114 1252C52.6379 1267.43 53.2263 1289.72 66.2444 1301.1C82.9206 1315.68 104.9 1299.81 116.914 1287C120.004 1283.71 123.838 1274.92 128.283 1273.64C131.01 1272.86 142.407 1283.38 143.997 1285.86C146.535 1289.81 131.63 1301.45 129.215 1305.08C118.814 1320.7 104.279 1370.05 134.019 1375.25C148.153 1377.73 157.381 1369.13 167.007 1359.92C186.216 1341.54 207.014 1310.47 212.407 1284C214.257 1274.92 204.657 1256.37 209.356 1250.43C213.276 1245.48 217.143 1263.93 218.827 1266.94C227.61 1282.67 245.595 1294.31 261.992 1281.35C286.861 1261.7 307.98 1204.54 280.624 1178.3C267.355 1165.58 214.442 1160.26 197 1164C207.664 1149.71 224.502 1136.77 227 1118C219.942 1121.05 214.541 1135.81 209.341 1142C196.63 1157.14 186.164 1161.7 170.04 1170.87C164.341 1174.11 160.5 1181.11 153.008 1179.45C138.948 1176.33 140.926 1151.6 142.259 1141C143.344 1132.37 148.761 1125.79 152 1118C134.381 1122.01 135.506 1152.38 137.26 1166C138.335 1174.34 149.899 1180.7 150.273 1186.03C150.731 1192.55 130.056 1213.73 126.271 1221C118.091 1236.71 131.274 1251.33 126.48 1263.98C122.245 1275.15 105.528 1279.3 100 1291M156 1128L158 1128C158.601 1124.18 160.056 1121.32 162 1118C156.733 1119.32 156.207 1123.03 156 1128M558 1221C574.327 1234.04 582.782 1223.61 591.325 1207.01C592.918 1203.91 598.788 1199.75 598.292 1196.2C596.318 1182.07 577.625 1173.81 567 1181C565.878 1163.77 590.318 1144.59 579.436 1126.2C574.966 1118.65 565.136 1121.91 559 1125.1C549.683 1129.95 527.683 1145.11 526.191 1158C525.576 1163.32 536.838 1180.96 536.677 1181.17C534.866 1183.52 525.474 1178.72 522.021 1179.81C510.668 1183.41 505.809 1198.44 506.024 1209C506.682 1241.38 531.293 1207.13 532.341 1208.65C536.383 1214.5 528.752 1221.95 526.505 1227C522.536 1235.92 522.32 1246.76 525.388 1255.98C528.81 1266.26 539.434 1265.09 545.455 1257.95C553.098 1248.89 557.982 1232.64 558 1221M550 1175C551.058 1168.85 555.218 1162.41 554.564 1156.05C554.076 1151.31 547.313 1148.39 549.193 1143.28C549.267 1143.07 586.035 1125.51 561.004 1134.46C558.313 1135.43 555.839 1135.84 553 1136C555.217 1130.17 570.546 1121.31 575.499 1128.5C586.219 1144.08 563.172 1170.25 550 1175M541.864 1144.97C552.179 1141.93 550.746 1172.54 543.58 1174.96C529.326 1179.78 526.724 1149.43 541.864 1144.97M943 1158.78C930.889 1161.83 916.436 1174.96 911.118 1186C904.561 1199.62 920.491 1203.82 931 1201.17C942.597 1198.24 958.288 1188.04 963.48 1177C968.918 1165.43 952.774 1156.31 943 1158.78M883 1161.64C871.458 1164.6 858.268 1182.7 855.756 1194C853.647 1203.49 859.75 1212.62 870 1210.38C883.078 1207.53 896.125 1193.2 900.697 1181C905.853 1167.25 897.376 1157.96 883 1161.64M945 1162.78C952.72 1161.6 964.281 1168.45 958.941 1177C952.974 1186.56 939.197 1195.37 928 1196.74C899.116 1200.28 930.889 1164.93 945 1162.78M817.136 1163.69C810.692 1165.47 789.418 1183.6 787.725 1190.16C784.885 1201.16 796.36 1211.83 807 1209.36C828.673 1204.32 855.209 1153.17 817.136 1163.69M869 1188C862.952 1173.49 883.229 1172.96 892 1176C888.684 1170.36 884.107 1170.03 878 1170C881.51 1164.48 895.945 1161.37 897.713 1170.07C900.356 1183.07 878.217 1212.74 863.266 1205.35C854.318 1200.93 860.396 1187.66 869 1188M227 1198C213.668 1205.47 215.797 1224.34 212.389 1236.89C209.66 1246.93 196.567 1259.07 187.941 1264.33C181.167 1268.46 156.95 1282.05 150 1281.69C144.162 1281.38 129.888 1271.61 135.749 1264.65C143.8 1255.08 166.53 1253 178 1253C183.852 1253 194.328 1255.38 198 1250C172.235 1249.51 157.287 1254.39 133 1261C136.308 1250.84 142.547 1241.99 143.763 1231C144.675 1222.76 139.103 1218.16 138.815 1210.98C138.514 1203.45 150.74 1192.41 156.548 1188.24C162.82 1183.75 172.282 1178.9 180 1177.8C182.85 1177.39 190.089 1181.56 192.031 1179.87C195.405 1176.92 184.155 1175.07 183 1175C202.797 1151.37 231.059 1176.46 228.845 1201C228.529 1204.5 221.825 1231.84 216.861 1229.24C212.782 1227.1 225.085 1201.23 227 1198M1329.96 1167.09C1314.56 1165.8 1298.3 1189.06 1295.6 1202C1294 1209.61 1295.48 1221.65 1305.04 1222.85C1332.02 1226.25 1375.47 1170.87 1329.96 1167.09M823 1168C819.477 1171.41 815.844 1172.61 811 1173C814.025 1168.8 818.033 1168.14 823 1168M1312 1183C1313.52 1180.39 1328.01 1165.45 1331.24 1171.84C1333.07 1175.47 1314.81 1182.33 1312 1183M225 1171C239.45 1172.48 264.163 1171.16 275.903 1180.6C299.083 1199.24 285.187 1245.32 271.894 1265.22C263.273 1278.12 248.177 1288.8 233.071 1278.64C228.417 1275.51 228.155 1270.14 224.875 1265.93C220.585 1260.42 217.616 1254.84 216.034 1247.98C213.544 1237.17 224.57 1228.75 227.961 1219C234.758 1199.47 232.16 1189.03 225 1171M804 1183C804.294 1187.45 804.65 1191.06 809 1193C807.44 1185.02 819.92 1163.78 829.178 1172.97C833.198 1176.96 828.229 1185.5 825.768 1189C820.318 1196.74 810.029 1207.85 799.261 1204.51C785.899 1200.36 795.112 1185.63 804 1183M1188 1188C1194.64 1175.59 1204.64 1174.62 1217 1177C1211.59 1168.15 1197.93 1171.99 1191.08 1177.26C1179.84 1185.91 1170.74 1207.83 1175.78 1222C1185.74 1249.96 1228.21 1210.91 1223.07 1191C1218.2 1172.15 1198.47 1180.13 1188 1188M545 1194C552.701 1163.39 574.737 1189.45 545 1194M1689 1176.6C1667.57 1181.12 1658.71 1225.52 1686 1219.49C1713.64 1213.39 1727.25 1168.53 1689 1176.6M1281 1177.75C1261.52 1182.98 1251.82 1178.95 1238.11 1198.56C1231.71 1207.72 1227.15 1232.28 1246 1229.17C1262.22 1226.48 1281.38 1211.04 1290.62 1197.96C1297.78 1187.83 1297.05 1173.44 1281 1177.75M1337 1177.56C1350.24 1176.04 1348.28 1186.12 1342.47 1194C1334.84 1204.35 1322.79 1217.08 1309 1217.54C1296.28 1217.96 1298.14 1203.2 1303.15 1195.37C1308.86 1186.45 1326.77 1178.73 1337 1177.56M580 1180C575.404 1183.77 569.653 1188.17 564 1190C566.657 1183.77 573.144 1179.31 580 1180M1268 1182C1263.77 1191.9 1250.47 1194.27 1255 1207C1256.99 1199.83 1284.51 1168.29 1291.3 1184.37C1293.41 1189.36 1286.56 1196.46 1283.52 1199.68C1275.89 1207.74 1253.14 1230.86 1240.11 1223.74C1221.86 1213.77 1255.43 1182.37 1268 1182M1690 1181C1688.2 1184.77 1686.08 1185.61 1682 1186C1684.45 1183.45 1686.65 1182.14 1690 1181M543 1182C541.926 1184.43 541.202 1185.55 539 1187C540 1184.46 540.699 1183.45 543 1182M1181 1200C1182.74 1202.69 1183.92 1205.53 1186 1208C1186.98 1197.68 1189.98 1188.73 1200 1183.93C1210.74 1178.79 1220.96 1187.75 1218.38 1199C1211.96 1226.98 1172.33 1239.68 1181 1200M1642 1182.62C1616.59 1188.25 1610.53 1219.05 1642 1211.83C1662.65 1207.09 1668.75 1176.69 1642 1182.62M524.763 1184.04C529.851 1182.11 536.124 1190.81 529.716 1193C524.078 1194.92 518.782 1186.32 524.763 1184.04M1697 1183.37C1724.32 1179.39 1698.76 1213.72 1683 1215.71C1672.24 1217.07 1671.74 1203.07 1674.73 1196.01C1677.91 1188.5 1689.39 1184.48 1697 1183.37M1584 1185.72C1573.46 1188.5 1558.97 1199.64 1555.21 1210C1551.08 1221.36 1562.79 1232.11 1574 1229.39C1585.7 1226.55 1603.98 1212.54 1607.31 1200.68C1610.69 1188.62 1592.56 1183.46 1584 1185.72M574 1186C601.096 1186.11 580.28 1200.1 574 1186M1647 1187.48C1666.83 1184.41 1649.19 1206.93 1638 1208.63C1611.05 1212.73 1631.31 1189.91 1647 1187.48M1589 1188.59C1597.2 1187.36 1604.94 1196.18 1601.09 1203.85C1596.59 1212.8 1582.06 1224.13 1572 1225.37C1562.6 1226.53 1555.55 1217.49 1560.15 1209.04C1564.63 1200.81 1579.63 1190 1589 1188.59M1937 1188C1923.48 1196.47 1914.47 1199.45 1906.7 1216C1900.79 1228.6 1907.2 1240.56 1922 1235.96C1930.22 1233.41 1969.43 1208.51 1955.29 1199.07C1944.47 1191.85 1926.32 1204.32 1916 1208C1925.03 1193.31 1932.13 1194.28 1947 1195C1944.46 1191.7 1940.45 1190.29 1937 1188M541 1195L537 1194C539.086 1191.91 540.349 1191.98 541 1195M2062 1193.67C2050.56 1196.59 2031.5 1201.72 2025.83 1213C2020.51 1223.57 2025.22 1247.72 2041 1244.48C2055.51 1241.51 2070.86 1221.6 2076.51 1208.78C2081.1 1198.34 2072.03 1191.12 2062 1193.67M571.001 1194.39C595.662 1191.7 588.61 1221.53 571.096 1223.97C558.145 1225.77 555.981 1196.03 571.001 1194.39M543 1207C541.67 1192.25 567.235 1198.52 543 1207M2040 1206C2039.43 1210.51 2033.13 1216.83 2039 1219C2040.05 1204.98 2051.35 1202.92 2063 1204L2059 1197C2090.68 1191.46 2056.42 1234.88 2042 1239.08C2023.83 1244.37 2024.25 1210.75 2040 1206M530 1199C528.503 1203.52 520.273 1221.14 513.61 1218.9C509.771 1217.6 512.111 1201.48 514.275 1199.26C517.299 1196.16 526.134 1198.86 530 1199M1981 1198.63C1954.22 1204.44 1949.07 1246.74 1982 1239.51C1992.73 1237.15 2011.83 1226.55 2013.32 1214.14C2014.72 1202.46 1989.35 1196.82 1981 1198.63M539 1200C538.886 1203.49 538.758 1205.73 536 1208C535.743 1204.19 534.931 1201.38 539 1200M1947 1201.57C1958.62 1201.36 1951.1 1211.02 1946.52 1215.48C1938.87 1222.94 1925.49 1233.16 1914.06 1231.84C1905.58 1230.86 1909.55 1219.33 1913.28 1215.16C1920.03 1207.63 1936.96 1201.75 1947 1201.57M1989 1203C1982.52 1208.38 1976.09 1210.66 1975 1220L1978 1220C1979.4 1209.85 2002.17 1199.38 2008.32 1210.37C2015.98 1224.07 1978.06 1241.03 1967.27 1234.74C1949.71 1224.51 1974.63 1199.52 1989 1203M555 1209C555 1224.78 551.857 1253.23 535 1260C536.069 1248.52 534.064 1234.53 539.821 1224.09C543.025 1218.28 549.577 1215.16 553 1209L555 1209M545 1210C544.243 1212.23 543.608 1213.28 542 1215L543 1210L545 1210M1991 1220C1995.31 1217.61 1997.6 1214.73 1999 1210C1994.89 1212.45 1992.83 1215.63 1991 1220M137 1214C140.195 1224.38 139.055 1234.64 136.292 1245C135.761 1246.99 134.691 1255.49 131.18 1254.24C119.351 1250.02 129.41 1218.3 137 1214M534 1227C533.935 1230.36 533.222 1256 530.981 1256C522.065 1256 529.315 1229.95 534 1227M1640.98 1234.84C1631.33 1235.85 1614.84 1252.75 1612.52 1261.96C1610.56 1269.75 1613.24 1281.26 1623 1280.82C1634.14 1280.33 1649.18 1265.84 1650.93 1255C1651.82 1249.5 1648.23 1234.09 1640.98 1234.84M1645 1244L1637 1242C1640.84 1238.26 1644.19 1238.25 1645 1244M1634.98 1246.56C1656.62 1241.95 1637.86 1274.07 1624.02 1276.26C1608.67 1278.68 1625.06 1248.67 1634.98 1246.56M1228 1275L1234 1270C1232.89 1275 1231.03 1279.82 1231.04 1285C1231.16 1328.44 1303.9 1268.77 1258 1257C1263.4 1254.42 1268.68 1254.55 1272 1249C1258.11 1251.34 1230.19 1258.15 1228 1275M205 1257C210.602 1293.59 194.136 1323.22 170.04 1350.99C161.525 1360.81 145.785 1377.22 131.022 1369.62C118.769 1363.31 120.287 1336.01 123.744 1325C132.806 1296.15 154.206 1292.63 176.001 1278.26C185.52 1271.98 195.002 1261.39 205 1257M1247.04 1262.53C1276.7 1254.86 1269.25 1292.09 1246.96 1296.44C1229.02 1299.94 1234.4 1265.79 1247.04 1262.53M1981 1267.89C1968.11 1271.93 1959.8 1313.44 1976 1309.24C1996.44 1303.93 2011.29 1258.4 1981 1267.89M180 1270C175.561 1274.71 170.2 1277.32 164 1279C168.051 1274.14 173.382 1269.5 180 1270M1986.99 1273.44C2004.35 1270.33 1987.46 1304.5 1974.15 1305.26C1965.67 1305.74 1977.16 1275.2 1986.99 1273.44M1633 1297.86C1618.33 1302.65 1610.74 1341.34 1628 1336.94C1645.93 1332.38 1656.3 1290.24 1633 1297.86M1634 1315C1638.4 1308.58 1631.95 1305.55 1633.76 1301.83C1635.79 1297.66 1642.46 1306.2 1642.99 1308.08C1644.99 1315.25 1630.09 1340.78 1623.27 1331.45C1617.71 1323.85 1632.5 1299.2 1634 1315M1953 1341C1958.37 1341.63 1956.89 1355.81 1967 1356.92C1990.26 1359.45 2006.93 1310.84 1973 1320.86C1968.97 1322.05 1966.27 1325.35 1963.14 1328C1958.85 1331.62 1954.36 1335.43 1953 1341M1978.99 1324.15C1997.33 1324.69 1981.58 1352.29 1968 1351.9C1951.37 1351.42 1968.17 1323.84 1978.99 1324.15M1975 1371.85C1953.66 1370.95 1931.17 1423.37 1957.14 1425.66C1978.07 1427.5 2001.07 1372.94 1975 1371.85M1973.99 1376.81C1981.81 1375.58 1982.48 1385.71 1981.62 1390.96C1979.89 1401.55 1971.16 1419.46 1959.01 1420.57C1950.8 1421.32 1949.33 1412.15 1950.42 1406C1952.07 1396.7 1963.95 1378.39 1973.99 1376.81M229 1483L232 1484L229 1483M244 1483C253.024 1486.06 264.537 1483.62 274 1484.08C299.296 1485.3 324.653 1485 350 1485L350 1483L244 1483M383 1483L383 1485L717 1486L717 1483L383 1483M750 1483L750 1486L1084 1485C1077.11 1480.69 1064.93 1483 1057 1483L992 1483L750 1483M1117 1483L1117 1485C1151.54 1479.53 1190.03 1484 1225 1484C1214.86 1480.56 1200.68 1483 1190 1483L1117 1483M1235 1483C1237.06 1483.72 1238.8 1483.91 1241 1484C1238.94 1483.28 1237.2 1483.09 1235 1483M1244 1483C1249.01 1484.7 1254.75 1484 1260 1484C1254.99 1482.3 1249.25 1483 1244 1483M1284 1483C1285.51 1483.68 1286.31 1483.83 1288 1484C1286.49 1483.32 1285.69 1483.17 1284 1483M1321 1483L1322 1484L1321 1483M1340 1483C1351.74 1486.98 1368.62 1484 1381 1484C1369.26 1480.02 1352.38 1483 1340 1483M1383 1483C1391.28 1485.81 1402.29 1484 1411 1484C1402.72 1481.19 1391.71 1483 1383 1483M1416 1483C1418.06 1483.72 1419.8 1483.91 1422 1484C1419.94 1483.28 1418.2 1483.09 1416 1483M1424 1483C1431.75 1485.62 1441.86 1484 1450 1484C1442.25 1481.38 1432.14 1483 1424 1483M1483 1483C1500.44 1488.91 1526.59 1484 1545 1484L1681 1484C1663.98 1478.23 1638 1483 1620 1483L1483 1483M1684.67 1483.33C1684.22 1483.78 1685.28 1483.72 1685.33 1483.67C1685.78 1483.22 1684.72 1483.28 1684.67 1483.33M1688 1483C1689.51 1483.68 1690.31 1483.83 1692 1484C1690.49 1483.32 1689.69 1483.17 1688 1483M1705 1483L1708 1484L1705 1483M1712 1483C1713.51 1483.68 1714.31 1483.83 1716 1484C1714.49 1483.32 1713.69 1483.17 1712 1483M1718 1483C1720.98 1484.01 1723.86 1483.99 1727 1484C1724.02 1482.99 1721.14 1483.01 1718 1483M1731 1483C1732.75 1483.64 1734.13 1483.86 1736 1484C1734.25 1483.36 1732.87 1483.14 1731 1483M1741 1483C1742.75 1483.64 1744.13 1483.86 1746 1484C1744.25 1483.36 1742.87 1483.14 1741 1483M1749 1483C1752.28 1484.11 1755.55 1484 1759 1484C1755.72 1482.89 1752.45 1483 1749 1483M1763 1483C1767.73 1484.6 1773.05 1484 1778 1484C1773.27 1482.4 1767.95 1483 1763 1483M1782 1483L1785 1484L1782 1483M1802 1483C1804.68 1483.91 1807.17 1483.97 1810 1484C1807.32 1483.09 1804.83 1483.03 1802 1483M138 1554C133.566 1563.3 132.623 1583.98 119 1584C120.633 1586.19 121.281 1586.3 124 1586C108.402 1635.29 74.4547 1676.06 54 1723C62.7088 1722.35 68.2468 1705.04 72.2267 1698C86.6035 1672.57 104.971 1646.21 116.92 1619.68C121.629 1609.22 120.848 1588.52 136 1588C128.683 1578.01 137.556 1572.97 138 1561C147.174 1567.08 151.415 1581.8 153.961 1592C161.14 1620.74 169.36 1650.87 174.484 1680C175.937 1688.26 179.386 1714.38 185 1719C202.101 1696.45 240.173 1696.94 250.985 1668C252.945 1662.75 257.074 1647.49 253.738 1642.58C248.837 1635.38 211.056 1627.61 203 1629.69C184.629 1634.43 181.738 1647.88 172 1660C170.421 1644.8 164.476 1629.85 161.167 1615C156.185 1592.64 157.293 1570.24 138 1554M1258 1579C1257.24 1590.15 1246.88 1601.1 1242.11 1611C1226.2 1644 1208.72 1671.52 1186.63 1701C1182.41 1706.62 1159.78 1735.28 1169 1739C1173.27 1720.13 1189.74 1704.44 1200.47 1689C1221.92 1658.12 1246.37 1624.2 1258 1588C1265.28 1597.11 1266.75 1613.96 1270.93 1625C1283 1656.88 1295.37 1697.61 1313 1726C1289.47 1726.22 1265.45 1735.99 1242 1731.44C1237.25 1730.52 1222.75 1731.58 1221.14 1725.72C1219.55 1719.96 1226.43 1710.15 1228.64 1705C1236.56 1686.52 1258.09 1662.58 1259 1643C1269.65 1657.21 1277.98 1671.82 1285.31 1688C1286.88 1691.46 1293.81 1700.41 1289.44 1703.74C1277.48 1712.85 1250.94 1699 1240 1713C1249.2 1713.72 1288.52 1712.37 1294.08 1705.94C1297.8 1701.64 1290.68 1690.97 1288.67 1687C1280.42 1670.66 1273.41 1647.12 1257 1637C1249.62 1669.95 1223.7 1698.36 1213 1731C1250.54 1735.36 1289.83 1727.48 1325 1736C1323.61 1725.3 1310.07 1717.31 1306.54 1706C1296.63 1674.2 1283.19 1644.69 1270.56 1614C1266.44 1604 1265.8 1586.59 1258 1579M443 1585C477.88 1595.09 467.006 1664.3 466.04 1693C465.706 1702.95 468.213 1714.41 466 1724C491.874 1721.59 518.519 1721.13 544 1716.28C551.547 1714.85 566.831 1709.75 564.897 1699C562.621 1686.34 546.697 1677.9 537.783 1670.61C534.438 1667.87 527.458 1664.13 528.928 1658.92C532.971 1644.58 555.437 1622.82 565.555 1611.44C568.049 1608.63 577.875 1596.46 575.698 1592.61C572.625 1587.16 551.842 1591.51 546 1590.6C531.268 1588.32 515.929 1582.52 501 1582.5C488.905 1582.48 478.004 1588.32 466.217 1589C458.375 1589.46 449.684 1580.09 443 1585M1678 1684C1630.66 1708.69 1657 1622.75 1683.89 1640.82C1690.88 1645.52 1690.74 1656.51 1691.17 1664C1692.54 1687.48 1667.79 1721.05 1641.16 1712.62C1629.03 1708.78 1634 1684.98 1634 1676C1634.01 1657.53 1635.15 1631.63 1648.57 1617.46C1668.74 1596.14 1705.39 1614.36 1713.59 1637C1717.18 1646.91 1721.87 1656.24 1721.99 1667C1722.15 1680.81 1722.04 1695.6 1718.28 1709C1704.08 1759.65 1626.38 1782.99 1596.56 1733C1590.24 1722.4 1591.08 1711.74 1591.74 1700C1593.28 1672.73 1594.64 1630.06 1613.88 1608.38C1625.92 1594.81 1660.83 1574.55 1676 1595C1679.5 1581.5 1650.18 1584.08 1643 1584.74C1625.05 1586.4 1609.29 1607.26 1602.41 1622C1594.22 1639.56 1593.42 1657.18 1591.32 1676C1589.56 1691.7 1586.25 1709.07 1589.74 1725C1599.86 1771.28 1657.05 1770.12 1690 1752.4C1731.21 1730.24 1738.62 1654.11 1709.15 1619.49C1694.49 1602.26 1658.97 1599 1644.13 1617.06C1629.48 1634.89 1622.32 1690.44 1634.01 1710.95C1640.33 1722.02 1664.04 1716.68 1671.96 1709.72C1690.17 1693.72 1699.52 1669.65 1692.23 1646C1688.11 1632.6 1671.41 1633.49 1662.23 1641.43C1650.61 1651.47 1644.89 1673.67 1651.74 1687.89C1655.91 1696.53 1676.84 1692.89 1678 1684M571 1594C563.002 1618.51 529.462 1635.32 524.481 1659.96C521.7 1673.72 558.521 1682.88 560.129 1699C561.19 1709.63 548.031 1710.81 541 1712.34C519.656 1717.01 492.828 1720.22 471 1721C468.964 1689.13 471.666 1657.83 467.742 1626C466.985 1619.86 459.73 1598.11 465.822 1593.74C494.813 1572.99 539.673 1599.83 571 1594M860 1601C864.811 1606.33 876.638 1600.86 883 1600.22C900.038 1598.52 919.255 1603.04 936 1606C928.429 1616.68 918.186 1624.78 911.033 1636C909.319 1638.69 906.933 1645.44 902.853 1644.92C897.281 1644.21 890.992 1633.05 887.462 1629.04C878.557 1618.92 865.727 1607.23 852 1605C862.121 1617.54 878.723 1625.31 889.878 1637.56C892.649 1640.61 900.12 1646.99 899.005 1651.56C897.669 1657.04 890.222 1662.36 886.436 1666.21C874.844 1678.01 861.443 1693.83 847.968 1703.2C841.675 1707.57 828.697 1721.71 832.946 1730.5C835.945 1736.7 854.137 1730.9 859 1729.44C880.317 1723.04 902.371 1717.67 925 1716.06C931.914 1715.57 948.957 1716.62 953.894 1710.8C955.845 1708.5 946.513 1698.24 944.89 1696C935.455 1682.98 912.249 1666.05 907.876 1651C903.325 1635.33 936.13 1620.49 938.375 1607.19C939.665 1599.56 924.003 1601.03 920 1600.35C899.137 1596.82 880.783 1594.47 860 1601M1978 1672C1983.62 1679.63 2011.52 1671.67 2019 1668C2019.06 1674.91 2024.94 1694.7 2019.74 1700C2010.2 1709.73 1978.88 1701.88 1967 1702.01C1962.87 1702.05 1953.26 1704.97 1950.28 1701.18C1946.5 1696.36 1952.81 1667.57 1957.59 1664.26C1961.77 1661.36 1969.11 1663.05 1974 1661.07C1991.86 1653.86 2006.32 1646 2026 1645.99C2030.58 1645.98 2041.42 1642.31 2045.14 1645.3C2048.44 1647.96 2045.85 1660.06 2045.78 1664C2045.48 1680.6 2049.93 1696.11 2046.47 1713C2044.86 1720.85 2046.97 1747.51 2039.72 1751.54C2035.27 1754 2026.97 1751.03 2022 1751C2000.3 1750.88 1977.51 1738.42 1957 1740.33C1951.04 1740.88 1927.86 1744.94 1924.2 1740.3C1920.12 1735.11 1922.59 1721.29 1922.53 1715C1922.38 1697.43 1929.28 1680.31 1930.85 1663C1931.99 1650.36 1929.3 1635.43 1940 1626C1935.18 1614.71 1967.84 1619.54 1974 1620.18C1995.34 1622.38 2013.78 1612.52 2035 1609.41C2052.18 1606.89 2070.86 1611.75 2089 1609C2086.57 1620.31 2089.67 1632.43 2088.86 1644C2086.93 1671.65 2084.42 1699.27 2083.33 1727C2082.89 1738.28 2088.81 1761.07 2081.88 1770.58C2066.8 1791.27 2034.35 1780.12 2015 1776.22C1984.9 1770.17 1952.92 1779.5 1923 1778.82C1908.81 1778.5 1897.75 1767.11 1884 1766C1886.18 1753.68 1882.35 1741.06 1884.58 1729C1889.96 1699.81 1897.07 1670.56 1899.14 1641C1899.87 1630.56 1902.97 1619.09 1899 1609C1891.8 1617.97 1897.25 1640.44 1895.79 1651.92C1892.54 1677.34 1884.43 1702.61 1881.26 1728C1879.46 1742.43 1885.46 1758.06 1880 1772C1894.38 1772.85 1908.02 1781.28 1923 1781.95C1933.52 1782.42 1942.72 1777.92 1953 1777.14C1971.17 1775.75 1992.29 1777.49 2010 1778.59C2038.28 1780.36 2055.8 1791.62 2082.8 1775.25C2091.82 1769.77 2087.82 1749.89 2087.64 1740.98C2086.98 1708.33 2090.38 1675.5 2092.86 1642.99C2093.25 1637.86 2093.92 1608 2090.17 1605.9C2084.37 1602.65 2074.13 1608.51 2068 1608.4C2056.34 1608.21 2043.34 1603.93 2032 1605.94C2016.97 1608.6 1999.01 1618.71 1984 1618.1C1971.39 1617.58 1946.65 1608.87 1936.5 1618.78C1922.91 1632.03 1924.64 1670.3 1923 1688C1921.89 1699.97 1913.01 1734.23 1920.96 1744.2C1927.64 1752.57 1956.85 1742.38 1967 1744.48C1988.14 1748.87 2019.72 1764.9 2041.81 1754.94C2049.83 1751.32 2047.72 1735.21 2048.03 1728C2048.95 1706.62 2049.79 1687.31 2049.21 1666C2049.05 1659.88 2052.38 1647.69 2048.74 1642.5C2046.14 1638.8 2015.57 1641.75 2010 1642.83C1995.72 1645.62 1984.51 1653.74 1970.98 1658.06C1966.35 1659.54 1958.51 1657.47 1954.92 1660.94C1948.89 1666.76 1945.6 1691.77 1946.5 1699.97C1947.79 1711.74 1965.9 1704.57 1973 1705.2C1983.52 1706.13 2013.13 1712.24 2021.95 1705C2026.6 1701.19 2026.16 1667.22 2021.18 1664.63C2017.16 1662.55 2005.99 1668.86 2001 1668.98C1993.06 1669.17 1985.73 1670.17 1978 1672M120 1619L120 1622C122.474 1621.9 124.605 1621.62 127 1621C124.634 1619.61 122.738 1619.22 120 1619M186 1711C185.698 1696.28 171.77 1679.9 175.547 1665C183.517 1633.56 203.769 1632.48 230 1638.85C234.099 1639.85 249.19 1641.93 251.462 1644.96C253.736 1647.98 250.548 1656.65 249.753 1660C243.864 1684.78 221.811 1684.74 205.32 1696.17C198.774 1700.7 193.478 1708.33 186 1711M949 1709C927.169 1706.73 892.129 1714.59 871 1721.08C863.494 1723.39 846.963 1734.8 838.822 1729.4C832.323 1725.09 842.392 1712.66 845.497 1709.4C858.358 1695.92 873.3 1683.91 886.68 1670.89C890.605 1667.07 897.63 1656.24 902.891 1655.11C908.119 1653.98 914.392 1663.59 917.176 1667C928.469 1680.82 940.103 1693.37 949 1709M1316 1730C1313.82 1729.26 1313.28 1728.9 1312 1727C1314.03 1727.82 1314.73 1728.25 1316 1730M317.667 1850.33C317.222 1850.78 318.278 1850.72 318.333 1850.67C318.778 1850.22 317.722 1850.28 317.667 1850.33M320 1850C321.506 1850.68 322.315 1850.83 324 1851C322.494 1850.32 321.685 1850.17 320 1850M327 1850L328 1851L327 1850M389.667 1850.33C389.222 1850.78 390.278 1850.72 390.333 1850.67C390.778 1850.22 389.722 1850.28 389.667 1850.33M394 1850C395.75 1850.64 397.127 1850.86 399 1851C397.25 1850.36 395.873 1850.14 394 1850M400.667 1850.33C400.222 1850.78 401.278 1850.72 401.333 1850.67C401.778 1850.22 400.722 1850.28 400.667 1850.33M406 1850L409 1851L406 1850M414 1850C415.75 1850.64 417.127 1850.86 419 1851C417.25 1850.36 415.873 1850.14 414 1850M421 1850C427.122 1852.07 434.584 1851 441 1851C434.877 1848.93 427.416 1850 421 1850M455.667 1850.33C455.222 1850.78 456.278 1850.72 456.333 1850.67C456.778 1850.22 455.722 1850.28 455.667 1850.33M832 2029C845.522 2035.13 829.865 2050.96 837.26 2059.98C843.793 2067.94 863.845 2064.77 873 2074C878.787 2068.17 904.326 2072.35 911.972 2075.5C916.034 2077.17 914.533 2082.06 919 2083L918 2077C930.471 2077.75 955.229 2093.75 966.355 2083.2C974.363 2075.6 969.854 2055.97 971.185 2046C975.311 2015.07 991.708 1950.74 952 1939.65C939.294 1936.11 926.446 1941.56 913.992 1942.84C899.228 1944.35 883.471 1940.72 869 1942.73C864.352 1943.37 848.334 1938.36 845.781 1941.86C841.986 1947.07 844.981 1956.19 844.882 1962C844.62 1977.34 841.079 1992.79 839.328 2008C838.5 2015.19 841.628 2027.66 832 2029M941.217 1942.6C965.252 1938.77 974.105 1959.38 973.997 1979C973.957 1986.36 975.327 2001.92 965.971 2003.68C955.656 2005.61 927.404 2007.12 920.267 1997.2C916.493 1991.95 918.696 1950.96 923.039 1946.04C926.596 1942.01 936.339 1943.37 941.217 1942.6M557 1944L560 1950C521.055 1951.38 474.726 1958.39 437 1947C440.006 1959.6 434.522 1973.24 435.258 1986C436.356 2005.03 442.991 2027.19 446.426 2046C447.899 2054.07 446.004 2072.04 453.76 2077.31C458.764 2080.72 467.381 2078.03 473 2078C490.155 2077.91 507.958 2078.18 525 2076.32C535.609 2075.16 557.398 2078.37 566.377 2073.18C575.943 2067.66 559.506 2038.91 573 2032C566.185 2028.32 567.928 2021.92 568.24 2015C569.032 1997.39 571.249 1981.83 569.331 1964C568.378 1955.14 570.332 1943.98 557 1944M852.206 1945.26C855.798 1944.88 875.844 1945.89 877.138 1948.5C879.428 1953.13 874.576 1983.8 869.716 1984.58C865.694 1985.23 847.847 1987.29 845.84 1983.48C843.38 1978.81 846.875 1945.83 852.206 1945.26M920 1946C916.796 1962.65 916 1980.02 916 1997C909.2 1995.48 879.962 1989.48 876.477 1984.19C873.578 1979.78 877.258 1968.82 878.088 1964C878.884 1959.38 879.05 1951.31 883.423 1948.5C891.914 1943.05 910.088 1946.85 920 1946M567 1988C527.573 1988.75 481.67 1976.7 443 1985C469.02 1991.58 503.898 1989.26 531 1990.93C538.194 1991.37 558.649 1989.01 564.178 1992.58C568.898 1995.63 564.057 2029.05 558.756 2030.18C526.32 2037.11 486.262 2026.82 453 2028C476.905 2034.05 507.205 2031.48 532 2032.89C539.322 2033.3 553.875 2029.98 560.199 2033.82C565.928 2037.3 565.228 2069.67 560.697 2071.4C540.46 2079.1 506.985 2073.26 485 2075.31C478.724 2075.9 464.004 2078.59 458.501 2075.36C451.787 2071.43 452.09 2053.72 451.176 2047C447.763 2021.89 430.461 1982.69 441.814 1958.27C445.723 1949.86 460.776 1953.8 468 1954.04C490.101 1954.79 511.908 1957.74 534 1955.78C540.381 1955.22 556.088 1950.68 561.501 1954.28C568.786 1959.12 565.636 1980.29 567 1988M1534 2103C1540.36 2094.21 1562.32 2099.69 1572 2100.04C1584.46 2100.49 1597.62 2104.47 1610 2103.74C1636.08 2102.19 1662.62 2093.07 1689 2098C1683.27 2085.71 1688.05 2068.78 1690.2 2056C1693.37 2037.24 1693.54 2017.88 1695.22 1999C1695.78 1992.65 1702.14 1970.56 1697.18 1966.22C1690.88 1960.71 1673.67 1963.5 1665.78 1963.04C1634.68 1961.25 1601.69 1959.96 1571 1964.6C1564.22 1965.63 1542.2 1960.14 1538.26 1965.61C1532.63 1973.41 1536.39 1991.81 1535.92 2001C1534.33 2032.39 1526.46 2072.26 1534 2103M1174 1962C1168.47 1993.22 1168.17 2031.01 1168 2063C1167.96 2070.14 1162.63 2089.72 1166.9 2095.24C1177.62 2109.09 1211.72 2104.47 1226.6 2109.76C1230.93 2111.31 1230.09 2117.93 1235 2120C1234.24 2116.64 1233.33 2113.43 1233 2110C1242.99 2112.74 1253.68 2108.99 1263 2112C1267.78 2107.07 1275.71 2109.54 1282 2108.74C1295.74 2106.99 1326.88 2107.23 1337.78 2098.37C1346.15 2091.57 1343.35 2054.54 1344.06 2044C1345.03 2029.61 1359.66 1994.24 1351.88 1981.42C1347.15 1973.64 1326.06 1972.78 1318 1971.59C1298 1968.64 1281.61 1974.02 1262 1973.88C1246.25 1973.77 1228.98 1966.73 1213 1965.13C1205.14 1964.35 1177.51 1967.6 1174 1962M1678 2091C1656.79 2089 1632.26 2097.3 1611 2099.26C1598.01 2100.46 1584.05 2096.74 1571 2096.08C1563.3 2095.69 1542.85 2099.03 1536.9 2093.74C1532.74 2090.04 1536.14 2069.73 1535.82 2064C1534.01 2031.13 1540 1997.95 1540 1965C1556.22 1971.13 1565.97 1991.44 1578.16 2002.54C1591.78 2014.96 1608.15 2023.52 1621.86 2035.44C1629.79 2042.33 1634.96 2052.36 1642.62 2059.11C1654.81 2069.85 1670.32 2075.43 1678 2091M1553 1969C1590.08 1969.02 1626.94 1961.4 1664.14 1967.4C1671.49 1968.59 1687.28 1965.24 1693.16 1970.26C1696.7 1973.29 1692.3 1988.47 1692 1993C1690.41 2016.73 1688.91 2040.43 1685.82 2064C1685.37 2067.44 1685.09 2090.17 1682.57 2090.57C1679.25 2091.11 1657.75 2065.63 1653.48 2062.02C1642.63 2052.85 1633.41 2040.99 1621.96 2032.34C1598.46 2014.6 1567.01 1996.28 1553 1969M1229 2105C1215.28 2104.39 1180.91 2103.31 1170.86 2092.79C1167.51 2089.29 1169.84 2075.66 1170.32 2071C1172.15 2053.39 1165.72 2019.14 1178 2005C1173.66 1999.46 1175.58 1992.56 1176.47 1986.01C1177.15 1980.93 1173.54 1975.21 1175.82 1970.43C1180.22 1961.25 1205.14 1967.85 1213 1968.82C1216.97 1969.31 1233.49 1970.02 1235.67 1972.91C1239.96 1978.59 1232.65 2000.86 1232.14 2008C1229.76 2041.08 1224.98 2072.01 1229 2105M1894 1975L1894 1978C1911.12 1979.09 1927.84 1986.35 1945 1988.28C1959.63 1989.93 1973.6 1984.92 1988 1984.59C1996.85 1984.4 2004.79 1988.34 2014 1988.04C2027.43 1987.61 2045.7 1993.92 2056 1983C2058.12 1994.12 2021.51 2009.54 2013 2014.45C1975.24 2036.26 1942.54 2064.9 1904 2085.78C1893.49 2091.48 1885.73 2099.71 1874 2103C1880.36 2070.54 1885.23 2034.06 1885.98 2001C1886.07 1997.02 1892 1970.98 1888.52 1970.32C1884.55 1969.57 1882.99 1995.13 1882.4 1999C1878.26 2026.3 1875.36 2054.46 1873.13 2082C1872.8 2086.11 1868.3 2106.69 1872.33 2107.74C1877.02 2108.96 1882.85 2104.82 1888 2105.44C1928.11 2110.26 1963.57 2099.09 2003 2102.1C2015.49 2103.05 2042.82 2116.42 2053.79 2110.28C2060.09 2106.75 2059.82 2088.55 2059.8 2082C2059.73 2057.57 2062.59 2033.43 2063.4 2009C2063.62 2002.28 2064.87 1987.13 2058.9 1982.28C2055.42 1979.46 2047.76 1982.87 2044 1983.74C2031.8 1986.57 2020.26 1984.53 2008 1985.42C2001.06 1985.93 1994.91 1981.31 1988 1981.18C1974.68 1980.92 1961.66 1986.77 1948 1985.76C1929.6 1984.4 1912.27 1975.72 1894 1975M1239 1973C1244.27 1973.32 1273.43 1973.75 1275.65 1976.26C1278.59 1979.57 1273.72 2001.26 1272.8 2006C1267.99 2030.77 1267.83 2056.37 1262.56 2081C1261.33 2086.75 1262.75 2100.79 1258.87 2104.9C1253.74 2110.31 1233.57 2109.77 1231.07 2101.86C1225.25 2083.44 1228.15 2055.86 1230.84 2037C1233.68 2017.13 1241.43 1993.01 1239 1973M1290 1973.34C1306.4 1971.28 1322.52 1974.86 1337 1982.17C1339.91 1983.64 1347.67 1982.55 1348.96 1985.53C1355.7 2001.05 1341.84 2029.91 1340.22 2046C1339.09 2057.18 1342.69 2085.5 1335.74 2094.2C1328.86 2102.81 1291.86 2103.8 1281 2104.78C1277.09 2105.13 1266.01 2107.49 1263.26 2104.17C1259.18 2099.24 1264.66 2083.8 1265.64 2078C1269.71 2053.89 1270.26 2029.72 1276.67 2006C1279.95 1993.82 1273.41 1975.43 1290 1973.34M107 1975C114.327 1985.79 119.577 1992.99 131 2000C110.95 2001.24 92.5396 2005.03 104.346 2030C123.287 2070.06 135.454 2002.85 158.189 2017.32C162.338 2019.96 167.942 2035.19 169.447 2040C175.963 2060.8 149.689 2072.64 132 2075.14C127.689 2075.75 114.97 2073.66 112.474 2077.8C104.749 2090.64 118.277 2143.94 136.003 2142.86C151.141 2141.93 163.116 2131.15 179 2131C167.981 2117.27 146.021 2140.91 134.01 2138.4C114.849 2134.39 117.807 2091.63 116 2078C132.454 2083.25 167.16 2073.65 175.178 2056.63C179.793 2046.83 167.692 2017.83 160.481 2010.95C154.062 2004.82 128.811 2025.41 124.844 2030.01C123.115 2032.01 119.401 2039.2 116.059 2037.68C113.376 2036.45 111.572 2032.3 109.952 2030C108.141 2027.42 106.772 2025.09 106.051 2022C100.019 1996.16 128.109 2013.13 134.592 2001.51C136.007 1998.98 111.485 1975.04 107 1975M868 2034C861.234 2032.66 848.253 2032.6 842.824 2028.33C838.801 2025.17 841.442 1992.99 845.252 1989.26C848.784 1985.81 868.648 1985.91 871.176 1990.65C876.378 2000.4 868.016 2022.96 868 2034M916 2040C907.275 2037.84 897.038 2031.45 888 2031.97C884.158 2032.19 875.509 2036.25 872.338 2032.74C869.62 2029.73 872.585 2019.73 872.866 2016C873.253 2010.86 871.621 1994.82 875.26 1991.27C881.087 1985.57 913.014 1997.56 916.06 2004.2C920.052 2012.9 916 2030.31 916 2040M1888 2101C1896.77 2087.18 1921.9 2078.93 1935.78 2070.92C1964.53 2054.33 1988.83 2031.26 2018 2015.31C2023.68 2012.21 2055.11 1989.45 2058.78 1992.95C2063.22 1997.18 2061.25 2011.52 2060.68 2017C2058.42 2038.72 2056.72 2060.19 2055.9 2082C2055.7 2087.49 2056.53 2104.55 2050.72 2107.16C2040.13 2111.9 2014.65 2099.12 2003 2098.14C1963.23 2094.82 1928.17 2110 1888 2101M920.862 2003.86C923.719 2002.13 929.107 2004.39 932 2005.16C940.161 2007.34 965.871 2003.77 970.818 2008.26C974.951 2012.01 971.533 2041.45 967.186 2044.71C963.634 2047.38 958 2043.29 954 2043.8C935.716 2046.09 919.219 2049.24 919.011 2024.98C918.98 2021.36 917.789 2005.73 920.862 2003.86M1275 2016L1275 2019L1277 2019L1277 2016L1275 2016M869 2064C862.675 2062.93 845.287 2061.1 840.829 2056.88C825.885 2042.71 855.229 2019.84 866.178 2038.74C869.234 2044.02 868.181 2057.63 869 2064M885 2036.33C892.17 2035.52 910.494 2038.97 914.605 2045.76C916.996 2049.71 918.089 2070.93 911.723 2071.53C905.74 2072.1 879.039 2069.65 874.483 2065.76C860.622 2053.9 871.411 2037.86 885 2036.33M920.824 2047.01C924.025 2045.57 930.755 2049.31 934 2050.12C943.963 2052.62 955.816 2044.42 964.501 2051.29C971.251 2056.62 969.199 2077.55 961.871 2081.62C955.691 2085.05 923.114 2078.12 919.418 2073.06C917.583 2070.55 918.534 2048.04 920.824 2047.01z"/>
</svg>
