<?xml version="1.0" standalone="yes"?>
<svg xmlns="http://www.w3.org/2000/svg" width="2200" height="2200">
<path style="fill:#121212; stroke:none;" d="M16.6667 27.3333C16.2216 27.7786 17.278 27.7222 17.3333 27.6667C17.7776 27.2222 16.7223 27.2776 16.6667 27.3333M1276 132L1277 138C1254.69 138 1191.94 127.978 1185 157C1206.04 142.545 1226.13 138.906 1253 140.867C1257.19 141.173 1271.05 140.263 1273.86 143.057C1278.41 147.582 1274.75 167.021 1274.22 173C1271.96 198.359 1270.61 222.909 1265.69 248C1264.52 253.995 1265.03 267.914 1260.22 272.1C1254.9 276.726 1237.33 271.476 1231 270.368C1207.75 266.294 1188.97 269.934 1166 274C1172.63 245.959 1168.76 219.51 1172.34 191C1174.24 175.841 1182.29 162.072 1184 147C1177.61 148.369 1176.56 163.631 1174.61 169C1165.34 194.499 1168 221.523 1168 248C1168 255.914 1158.48 275.843 1169 276.917C1180 278.039 1189.48 271.105 1200 270.472C1215.39 269.546 1230.86 275.41 1246 276.917C1265.85 278.892 1284.57 276.479 1304 279.222C1315.27 280.814 1349.17 291.158 1357.67 285.694C1360.65 283.775 1360.87 257.73 1361 253C1361.79 224.508 1364.72 197.25 1358.42 170C1356.33 160.984 1362.38 152.916 1353.92 145.639C1341.13 134.644 1325.66 143.375 1311 141.917C1297.89 140.612 1286.88 134.187 1276 132M1281 142C1295.85 154.415 1300.35 191.777 1300 209C1302.35 205.927 1303.18 202.749 1304 199C1307.87 205.309 1298.89 273.213 1324 237C1333.3 247.373 1344.75 267.039 1347 281C1327.45 280.305 1307.58 272.746 1288 273.413C1281.55 273.633 1271.5 279.568 1265.86 273.219C1260.93 267.656 1268.69 246.595 1270.23 240C1277.5 208.886 1270.94 171.693 1281 142M1328 147C1334.63 138.633 1355.72 145.047 1356.27 156.003C1357.84 186.925 1359.17 217.437 1359 249C1358.97 254.681 1358.95 277.166 1354.03 280.534C1349.86 283.393 1347.79 273.089 1347.04 271C1342.27 257.734 1330.42 247.423 1326.78 233.783C1324.05 223.558 1333.82 210.159 1331.28 198C1328.91 186.655 1307.98 169.584 1307 190C1312.95 180.336 1323.14 179.806 1326.94 192.003C1330.64 203.882 1329.52 217.569 1325 229C1319.56 223.506 1308.77 207.117 1311.07 199.022C1313.32 191.108 1322.68 189.887 1323 199C1327.46 182.935 1311.99 194.243 1307 198C1301.57 179.247 1293.01 161.3 1288 142C1299.75 143.757 1317.67 142.172 1328 147M1548 142C1542.67 176.424 1548 216.915 1548 252C1548 258.462 1544.32 283.568 1549.79 287.259C1552.74 289.255 1563.87 286.831 1568 287.217C1578.83 288.23 1592.28 293.097 1603 291.261C1612.6 289.617 1620.84 283.021 1631 281.481C1652.89 278.163 1680.59 285.321 1702 290C1701.23 279.798 1675.34 281.485 1667 280.431C1634.81 276.366 1607.03 288.579 1576 283.516C1569.7 282.489 1558.03 284.985 1552.81 280.743C1549.06 277.689 1550.96 269.177 1550.99 265C1551.07 256.013 1546.04 214.611 1557.07 212.597C1583.06 207.852 1607.95 221.799 1632 226.841C1659.37 232.58 1690.37 229.882 1716.93 238.602C1724.16 240.976 1723.13 286.101 1716.41 289.998C1713.14 291.889 1707.44 286.763 1704 286C1705.91 297.413 1718.41 299.943 1722.62 287.997C1725.44 280.017 1722.42 271.141 1723.23 263C1725.76 237.413 1726.16 211.858 1725.74 186C1725.63 179.349 1727.83 157.811 1722.82 153.26C1717.57 148.495 1699.01 152.351 1692 151.562C1660.25 147.988 1624.06 146.029 1592 146C1581.99 145.991 1554.76 152.479 1550 142L1548 142M824 143C816.523 177.655 822.674 216.998 825.783 252C826.869 264.228 823.437 277.051 826 289C820.595 288.997 815.371 288.5 810 288C814.627 299.68 851.047 292.323 861 292.027C867.321 291.839 876.127 289.955 877 298L879 298C880.639 285.79 897.678 292.95 906 291.41C928.827 287.184 951.23 288.862 974 285.606C980.483 284.678 990.673 287.455 996.178 282.76C1004.21 275.912 998.854 234.259 998.136 224C997.045 208.394 998.251 192.564 999.077 177C999.259 173.567 1002.33 163.867 999.662 161.194C997.308 158.837 973.036 160.371 968 159.821C938.511 156.6 902.52 145.796 873 147.704C858.199 148.66 833.493 156.835 824 143M1551 208C1553.29 190.724 1554.67 168.092 1551 151C1586.34 151 1622 156.405 1657 155.941C1674.21 155.713 1702.41 150.136 1718.5 156.501C1722.95 158.264 1720.69 168.273 1720.82 172C1721.36 187.411 1722.58 202.589 1721.22 218C1720.94 221.14 1723.42 232.567 1720.4 233.961C1710.14 238.703 1685.03 229.224 1674 227.602C1632.94 221.566 1592.68 208 1551 208M463 151C462.121 173.284 457.833 196.682 455.569 219C454.779 226.795 459.246 236.637 450 240C459.218 247.726 455.857 275.03 454.677 287C454.259 291.248 451.217 303.255 456.303 305.28C469.305 310.458 484.792 306.689 498 305.486C521.451 303.35 545.494 300.979 569 301C577.083 301.007 601.304 302.277 606.657 295.374C617.865 280.921 609.191 247.092 611.302 230C612.592 219.552 621.723 185.282 617.1 176.821C614.323 171.738 590.524 170.925 585 171.018C559.667 171.442 527.065 165.602 502 161.183C497.952 160.47 469.397 152.346 468.323 157.048C467.604 160.199 480.04 161.102 482 161.537C496.902 164.842 510.75 166.709 526 167.019C543.797 167.38 561.313 174.45 579 174.785C587.863 174.953 604.248 172.721 611.299 179.803C616.353 184.878 610.033 199.958 609.26 206C606.642 226.48 609.413 247.498 607.941 268C607.546 273.49 607.172 287.207 603.061 291.138C594.753 299.084 568.742 296.862 558 296.137C538.52 294.823 510.487 299.46 491 302.64C484.514 303.698 462.11 306.657 457.475 300.104C455.307 297.039 457.636 289.629 457.522 286C457.068 271.57 457.993 257.385 458 243C493.083 253.122 534.761 247.297 571 253.406C580.597 255.024 599.48 267.636 608 258C572.333 246.203 534.229 244.807 497 242.922C489.171 242.526 462.809 244.593 458.822 236.584C446.543 211.92 474.227 174.948 463 151M826 153C838.017 155.506 853.851 155.518 866 153.302C869.962 152.579 879.686 149.764 882.662 153.822C887.687 160.671 878.422 189.282 877.438 198C875.076 218.937 874.118 241.942 874.003 263C873.977 267.706 876.861 283.468 873.722 286.74C870.683 289.907 857.395 288.668 853 289.038C847.103 289.534 835.816 292.456 830.604 288.74C824.075 284.085 830.261 264.183 829.437 257C825.418 221.935 826 188.201 826 153M997 165C996.464 193.168 996.804 222.147 995.085 250C994.581 258.172 998.626 271.058 994.186 278.44C992.214 281.718 985.22 278.863 982 279.324C968.69 281.23 956.278 281.113 943 282.22C926.818 283.569 910.007 287.91 894 287.154C889.861 286.959 882.516 289.654 879.04 286.74C873.718 282.276 876.998 264.354 877 258C877.007 232.376 879.395 205.362 883.001 180C883.742 174.787 883.003 158.6 887.124 155.308C891.689 151.66 912.212 158.324 918 159.32C929.926 161.372 941.439 159.356 953 160.802C967.905 162.666 981.84 168.589 997 165M59 304C75.5145 327.172 121.69 303.515 141 299.143C160.495 294.729 197.899 304.441 214.315 289.197C222.732 281.38 218.232 249.099 219.217 238C220.78 220.401 220.951 202.69 220.455 185C220.315 179.989 222.532 171.203 219.46 166.822C215.867 161.696 191.428 159.995 185 160C155.137 160.025 105.446 145.665 79.1293 164.123C71.7385 169.307 74.5469 182.021 73.5619 190C70.2085 217.162 72.3033 244.709 70.9221 272C70.374 282.829 74.3457 305.4 59 304M104 160.323C111.118 159.541 139.714 157.877 144.622 163.182C148.704 167.594 139.086 196.896 138.919 203.864C138.382 226.399 140.553 249.577 138.598 272C138.056 278.219 139.548 289.227 135.781 294.437C131.69 300.095 109.952 307.824 103 308.656C97.4867 309.316 76.6396 310.004 73.3001 305.256C68.1848 297.984 73.949 274.862 73.9974 266C74.1258 242.506 74.4334 219.324 75.9289 196C76.3372 189.632 75.4258 174.662 79.0175 169.603C83.553 163.216 96.7728 161.117 104 160.323M1619 212C1629.46 205.013 1642.68 203.149 1655 203.864C1658.43 204.062 1665.88 204.313 1666.72 199.675C1669.18 186.166 1647.37 178.49 1652 162C1641.39 164.93 1634.33 192.054 1627.82 200.843C1624.78 204.95 1619.6 206.62 1619 212M149.781 164.824C154.708 161.911 166.192 165.27 172 164.864C183.031 164.093 206.075 161.855 214.74 170.276C217.843 173.291 216.975 184.868 216.997 189C217.091 206.163 216.129 222.919 215.07 240C214.561 248.208 218.011 280.722 211.197 285.585C199.253 294.108 170.286 296.027 156 294.919C152.612 294.656 141.486 296.301 139.62 293.176C137.16 289.055 140.64 277.761 140.929 273C141.941 256.379 141 239.658 141 223C141 207.875 143.059 193.8 146.095 179C146.852 175.313 146.089 167.007 149.781 164.824M1972 169.484C1959.56 171.332 1924.15 167.446 1915.21 176.891C1906.29 186.322 1918.37 196.536 1917.92 206C1916.76 230.702 1920.11 255.313 1917.78 280C1916.67 291.769 1914.39 306.534 1925.16 315.305C1934.42 322.855 1956.68 321.026 1968 320.999C2004.76 320.912 2048.87 330.262 2084.93 322.716C2092.34 321.164 2094.24 298.663 2094.88 292C2097.49 264.772 2102.15 230.085 2099.43 203C2098.85 197.272 2102.1 182.311 2098.72 178.024C2093.7 171.646 2076.17 173.96 2069 173.516C2039.79 171.706 2000.66 165.228 1972 169.484M1648 174C1652.36 182.867 1659.06 190.43 1664 199C1654.71 200.633 1640.43 203.048 1631 202C1636.15 192.64 1641.45 183.703 1646 174L1648 174M1967 174.54C1995.24 168.94 2029.06 177.569 2058 176.981C2067.74 176.784 2084.74 173.489 2093.11 179.665C2098.26 183.465 2096.14 191.454 2096.11 197C2096.07 209.829 2099.35 242.104 2093.12 253.198C2091.53 256.017 2083.95 257.419 2081 258.095C2063.82 262.035 2046.69 253.761 2030 251.986C2002.21 249.031 1975.79 255.567 1948 251.082C1940.41 249.857 1929.23 250.13 1922.82 245.277C1914.58 239.037 1921.57 203.93 1920.03 194C1919.4 189.915 1917.37 181.679 1921.5 178.92C1933.29 171.052 1953.42 177.233 1967 174.54M1917 189C1916.64 191.027 1916.48 191.637 1915 193C1915.51 191.047 1915.73 190.543 1917 189M1554 199C1554.77 200.176 1554.82 200.227 1556 201C1555.45 199.365 1555.64 199.545 1554 199M942.438 201.995C925.135 208.823 916.929 224.711 916.465 243C916.236 252.01 921.091 268.373 933 264.558C947.74 259.835 961.298 234.88 962.141 220C962.692 210.268 953.331 197.695 942.438 201.995M950 206C947.795 205.534 946.053 204.938 944 204C946.811 203.352 948.108 203.839 950 206M947 215C969.826 197.038 949.401 247.685 938.704 257.551C929.643 265.907 922.914 258.645 921.022 249C918.879 238.073 923.604 225.231 929.443 216.051C933.838 209.14 946.571 202.851 947 215M1309 207C1312.38 213.397 1321.48 226.083 1321.84 233.019C1322.07 237.563 1314.55 246.868 1309.86 242.391C1302.67 235.516 1305.86 215.116 1309 207M1927 271C1921.45 277.909 1921 292.34 1921 301L1919 301C1919 292.743 1916.72 259.405 1922.84 254.26C1929.99 248.244 1960.57 257.804 1970 258.672C1987.48 260.28 2006.97 255.393 2025 256.041C2036.61 256.459 2047.62 262.155 2059 262.8C2065.65 263.176 2086.59 256.827 2091.17 260.303C2094.17 262.58 2093.4 273.396 2093.6 277C2094.01 284.349 2091.05 312.235 2085.22 316.735C2080.1 320.691 2066.24 317.7 2060 318.136C2033.58 319.985 2008.38 316.834 1982 316.097C1967.66 315.697 1939.66 323.561 1927.56 312.317C1917.89 303.331 1927 282.275 1927 271M2003 263C2007.73 274.975 1999.06 289.39 1991.94 299.981C1990.23 302.533 1981.67 308.491 1982.32 311.634C1983.51 317.442 2025.57 312.392 2029.11 309.703C2031.51 307.882 2028.07 299.606 2027.61 296.999C2025.37 284.377 2016.7 266.051 2003 263M2025 306C2012.39 306.002 2000.92 310 1988 310C1991.41 305.361 2007.13 272.643 2010.95 272.643C2021.74 272.643 2022.56 299.502 2025 306M17 396L18 397L17 396M16.6667 437.333C16.2222 437.778 17.2778 437.722 17.3333 437.667C17.7778 437.222 16.7222 437.278 16.6667 437.333M16.6667 479.333C16.2224 479.777 17.2778 479.722 17.3333 479.667C17.7779 479.222 16.722 479.278 16.6667 479.333M88 483C97.9174 496.934 91.3438 519.997 91.0186 536C90.0273 584.783 85.6487 632.03 80 680C111.353 671.812 163.996 665.626 189 686C188.843 683.588 188.52 681.361 188 679C205.376 683.763 220.113 677.948 237 681.404C244.468 682.932 253.577 688.988 260.547 683.015C272 673.201 269.487 649.205 269.06 636C267.888 599.728 279.805 562.624 273.509 527C271.938 518.112 272.988 503.097 266.826 495.859C257.741 485.189 235.366 489.937 223.562 488.308C182.274 482.607 129.346 475.01 88 483M186 673C171.675 676.87 161.045 668.967 147 667.963C128.265 666.625 101.02 670.966 83 676C90.8423 663.317 88.6833 643.612 90.3221 629C93.3844 601.694 92.03 574.487 93.4411 547C94.4283 527.771 98.8822 507.103 95 488C115.233 483.404 139.267 484.719 160 486.79C164.107 487.2 178.1 485.611 180.523 488.964C186.365 497.046 179.024 528.586 178.999 539C178.893 583.714 184.505 628.491 186 673M187 520C178.612 516.053 186.168 495.426 186 488C207.429 488.022 232.976 487.556 252.001 496.808C255.418 498.47 262.118 497.363 264.555 499.9C269.45 504.994 268.236 517.449 269.295 524C273.338 549.002 269.861 572.651 267.233 598C265.063 618.944 267.991 641.194 265.398 662C264.713 667.496 262.137 679.181 255.871 680.632C247.844 682.491 237.28 677.713 229 677.136C220.413 676.539 212.494 680.017 204 678.915C200.129 678.413 191.773 677.594 189.278 674.219C185.642 669.3 190.934 656.011 190.705 650C189.901 628.95 185.385 608.04 183.865 587C182.629 569.907 181.937 553.163 182.119 536C182.178 530.433 179.943 521.055 187 520M1536 494C1531.81 505.702 1536.71 523.032 1535.65 536C1532.49 574.634 1527.67 613.344 1527 652C1543.18 640.277 1562.59 644.716 1582 645.742C1593.49 646.349 1605.36 642.327 1617 643.151C1634.96 644.423 1651.51 651.425 1669 654.562C1684.51 657.345 1717.09 649.025 1724 633C1720.68 633.495 1718.01 634.531 1715 636C1715.49 628.01 1716.75 621.061 1716 613C1713.2 615.839 1713.62 637.477 1710.32 636.801C1706.77 636.072 1708.47 612.061 1707.61 608C1702.02 581.423 1701.98 530.016 1713 505C1707.44 504.33 1701.62 505 1696 505C1699 502.658 1701.22 501.471 1705 501C1703.64 496.953 1680.78 504.788 1673 503.386C1640.64 497.551 1603.55 502.023 1570 498.83C1562.47 498.114 1540.42 501.659 1538 494L1536 494M1681 508C1673.64 519.933 1657.5 524.534 1647 533.181C1643.76 535.853 1638.72 542.292 1634.22 542.379C1626.02 542.536 1622.23 533.362 1612 535.984C1605.2 537.727 1592.11 552.037 1586.96 550.333C1573.53 545.889 1546.95 515.598 1541 503C1570.26 497.554 1601.79 504.625 1631 507.665C1647.06 509.336 1664.44 507.007 1681 508M462 506L461 512C464.542 510.797 465.015 508.322 462 506M1925 506C1925.55 507.635 1925.36 507.455 1927 508C1926.45 506.365 1926.64 506.545 1925 506M1540 508C1551.43 520.201 1579.42 538.505 1584.41 554.217C1586.19 559.796 1577.94 569.459 1576.32 575C1570.04 596.568 1557.14 631.193 1529 634C1543.86 596.051 1527 546.368 1540 508M1708 508C1701.09 549.062 1702.08 592.683 1705 634C1676.33 628.089 1647.44 598.691 1623 583C1628.72 572.227 1628.54 557.204 1634.32 547.656C1649.04 523.347 1683.38 512.358 1708 508M1169 664L1174 665C1173.54 667.332 1173.54 668.668 1174 671C1185.56 659.088 1204.74 671.206 1219 670.977C1225.16 670.879 1230.98 665.404 1236.6 665.868C1239.61 666.118 1239.53 670.808 1240 673C1241.96 669.892 1241.64 664.554 1245.28 662.824C1253.66 658.853 1268.36 664.819 1277 665.764C1297.43 667.999 1315.78 667.098 1336 664.28C1342.21 663.415 1358.34 664.363 1362.51 659.186C1373.03 646.113 1364.01 612.442 1364.02 597C1364.02 580.076 1365.27 562.848 1366.89 546C1367.47 539.956 1370.16 530.689 1366.18 525.322C1357.64 513.81 1327.61 518.394 1315 517.959C1269.03 516.375 1222.34 499.124 1178.5 522.945C1172.11 526.419 1174.4 547.579 1173.54 554C1170.28 578.544 1169.86 602.25 1172.22 627C1173.48 640.242 1178.43 653.317 1169 664M1906 511C1905.92 516.254 1904.91 518.549 1901 522C1902.68 522.216 1903.32 522.216 1905 522C1905 555.038 1903.57 587.972 1902.98 621C1902.83 629.499 1898.57 650.216 1902.83 657.38C1904.56 660.283 1912.08 657.956 1915 658.228C1926.37 659.287 1937.7 663.349 1949 665.235C1997.57 673.343 2049 671.04 2097 680C2095.87 661.156 2102.73 644.497 2104.76 626C2106.84 607.177 2104.11 587.949 2106.17 569C2107.09 560.617 2115.03 536.721 2110.6 529.685C2105.44 521.481 2071.25 523.021 2062 521.639C2025.63 516.206 1990.86 510.541 1954 509.085C1934.61 508.32 1923.07 518.982 1906 511M573 510.593C547.105 511.193 521.16 516.25 495.078 514.695C486.785 514.201 468.989 508.751 461.822 514.501C456.013 519.162 460.917 541.222 460.992 548C461.332 578.325 461.136 608.663 460.998 639C460.969 645.174 456.184 665.49 460.278 669.961C466.889 677.18 498.757 673.747 508 673.258C549.685 671.055 591.542 687.954 632.938 684.927C641.021 684.337 640.643 672.214 640.944 666C641.947 645.287 640.569 624.652 643.058 604C645.644 582.544 644.42 559.577 643.981 538C643.894 533.711 645.045 519.364 642.1 516.516C630.265 505.07 610.46 512.764 597 513.237C588.93 513.521 580.964 510.409 573 510.593M2094 676C2048.99 671.731 2003.41 667.308 1958 662.323C1947.59 661.18 1914.32 660.058 1906.86 653.616C1903.75 650.927 1906 639.887 1906 636C1906 618.432 1905.86 600.467 1907.68 583C1909.02 570.118 1902.03 532.817 1910.8 523.779C1920.02 514.289 1946.8 512.699 1959 513.783C1993.87 516.881 2027.29 519.484 2062 525.12C2070.56 526.511 2101.59 524.896 2106.66 531.822C2110.88 537.587 2102.87 560.631 2102.33 568C2100.88 587.757 2103.19 608.358 2100.74 628C2098.78 643.715 2091.92 660.096 2094 676M626 514C626.571 518.394 634.283 517.812 638 518C623.006 534.785 618.429 559.204 604.646 575.377C598.235 582.899 589.384 574.902 583.46 588C572.137 613.035 580.174 645.538 547 659C547.055 622.944 546.626 586.445 551.544 550C552.49 542.993 549.892 521.533 555.506 517.182C565.347 509.557 584.881 517.487 596 517.503C606.037 517.518 615.863 514.005 626 514M1243 514C1238.34 533.023 1228.73 559.073 1216.68 574.599C1209 584.493 1198.11 585.862 1192.94 599C1189.39 608.03 1194.32 616.135 1194.2 625C1194.1 632.884 1183.18 654.102 1177 659C1177.33 625.003 1170.96 592.018 1175.64 558C1176.8 549.596 1174.15 533.309 1180.9 526.822C1192.96 515.237 1227.09 514 1243 514M1249.58 514.829C1256.15 511.433 1271.95 515.714 1279 517C1298.26 520.513 1318.43 522 1338 522C1344.3 522 1359.51 520.271 1363.48 526.678C1366.3 531.222 1363.49 540.947 1363.14 546C1362.05 561.394 1361.18 576.598 1361.01 592C1360.83 608.054 1362.08 623.979 1362 640C1361.98 643.747 1362.75 654.226 1359.18 656.566C1338.26 670.277 1291.3 664.308 1268 660.484C1263.37 659.725 1243.99 660.009 1241.82 656.362C1234.09 643.376 1242.59 606.436 1242.22 591C1241.76 571.635 1242.1 553.476 1243.97 534.217C1244.49 528.789 1243.69 517.879 1249.58 514.829M552 517C545.446 552.186 548.57 588.758 543.72 624C541.843 637.64 536.369 657.095 548 667C550.182 657.208 571.674 635.033 580 629C581.292 660.192 609.096 639.994 615.586 623C618.748 614.719 621.163 602.386 617.092 594.078C614.667 589.13 608.1 584.549 607.817 578.783C607.114 564.457 628.505 526.975 641 521C641 557.963 637.884 595.227 638.111 632C638.177 642.768 641.77 670.595 634.74 679.178C630.922 683.84 618.011 678.627 613 678.097C592.244 675.898 571.428 672.201 551 669.984C530.752 667.788 509.42 670.398 489 669.981C482.964 669.858 468.506 669.863 463.822 665.781C459.272 661.815 462.999 642.924 463 637C463.006 607.981 464 579.047 464 550C464 543.196 459.409 522.17 465.803 517.744C472.871 512.851 485.403 517.037 493 517.823C512.495 519.841 532.502 517.051 552 517M16.6667 520.333C16.2222 520.778 17.2778 520.722 17.3333 520.667C17.7779 520.222 16.722 520.278 16.6667 520.333M841 520C841.482 522.364 841.636 522.518 844 523C843.101 520.876 843.124 520.899 841 520M838 524C842.178 538.64 838.168 556.788 837.104 572C834.821 604.67 835.923 633.963 825 664C840.526 664.358 869.326 666.917 883 674C883.247 667.975 899.852 666.83 906 666.21C929.858 663.802 954.385 672.654 977 665C976.556 679.368 993.994 666.935 994 655L1000 657C986.426 622.214 1014.2 573.982 995.278 541.244C990.546 533.056 970.118 536.171 962 533.636C934.787 525.141 909.595 530.133 884 530.341C868.386 530.468 853.457 525.441 838 524M894 532L892 537L896 535C896 577.976 882.331 623.244 888 666C877.496 665.464 876.344 655.783 874.235 647C872.738 640.766 867.414 632.171 867.772 626C868.346 616.088 874.145 606.476 873.952 596.003C873.71 582.905 864.307 577.418 855 586C852.203 572.016 843.739 546.542 848 533C846.747 532.697 841.962 531.31 844.784 529.233C848.074 526.811 854.452 530.27 858 530.742C870.155 532.359 881.947 531.805 894 532M908.003 529.487C927.318 526.144 955.087 534.365 974 539.089C979.448 540.45 991.308 539.547 994.05 545.325C1004.57 567.495 994.335 604.768 992.217 628C991.534 635.49 994.14 651.409 984.97 653.462C962.335 658.53 937.998 658.11 915 661.479C910.72 662.105 894.644 667.473 891.822 663.16C887.96 657.257 891.78 643.657 891.989 637C892.8 611.187 895.161 584.538 898.804 559C900.151 549.56 895.573 531.638 908.003 529.487M1240 533C1239.98 564.934 1239 596.999 1239 629C1239 636.964 1242.54 656.205 1235.63 661.62C1220.55 673.453 1197.01 663.018 1180 662C1188.53 636.172 1210.29 624.298 1221.2 601C1226.54 589.596 1219.59 586.103 1220.51 576C1221.64 563.555 1233.51 543.437 1240 533M845 537C845.169 555.078 852.509 572.916 852.805 591C852.981 601.814 847.432 612.154 851.467 622.999C854.815 631.996 862.248 627.456 866.326 632.56C872.658 640.488 874.123 655.522 878 665C870.028 667.756 844.64 669.379 839.244 661.374C834.582 654.459 838 637.181 838 629C838 598.206 842 567.791 842 537L845 537M186 538C186.936 540.506 187.494 541.064 190 542C188.731 540.139 187.884 539.199 186 538M1625 539L1620 541C1632.78 548.947 1625.75 549.783 1617 558.028C1614.11 560.751 1607.7 569.958 1603 568.639C1588.47 564.558 1595.81 546.762 1597 547C1605.03 540.81 1615.1 539.188 1625 539M204 546L209 546C207.123 543.226 205.877 543.226 204 546M1618.33 542.667C1618.28 542.722 1618.22 543.778 1618.67 543.333C1618.72 543.278 1618.78 542.222 1618.33 542.667M2015 602C2013.31 585.523 2009 569.78 2009 553C1996.76 557.349 1986.12 572.944 1978.48 583C1976.99 584.954 1972.76 594.618 1969.55 593.357C1961.04 590.02 1963.28 562.035 1953 555C1948.99 564.86 1923.94 596.316 1930 605C1937.3 592.167 1949.74 576.768 1952 562C1961.58 568.122 1962.04 585.783 1964.7 596C1965.39 598.674 1965.48 606.677 1968.46 607.894C1970.71 608.814 1974.17 596.834 1975.16 595.04C1981.48 583.573 1994.29 565.931 2006 560C2006.78 572.985 2006.27 605.352 2017 614C2023.41 592.59 2035.07 574.358 2049 557C2050.48 575.964 2053.01 591.425 2057.22 610C2058.29 614.728 2064.88 628.393 2069 618C2057.37 617.439 2052.6 579.885 2053.08 570C2053.26 566.153 2055.93 554.551 2050.55 552.761C2046.32 551.355 2040.96 561.332 2039.06 564C2031.97 573.961 2024.23 595.248 2015 602M1630 552C1629.21 558.178 1627.79 575.014 1622 578.601C1618.43 580.812 1608.2 574.442 1609.09 570.129C1610.69 562.303 1623.19 554.562 1630 552M1577 592C1577.05 586.702 1576.75 580.703 1581 577C1574.8 556.588 1604 559.19 1600.26 571.896C1598.88 576.56 1591.58 580.582 1588.01 583.475C1584.37 586.421 1581.04 589.617 1577 592M127 566C136.236 568.48 137.145 573.257 144 579L145 578C138.956 566.049 124.642 555.468 116.718 574.001C109.577 590.702 105.47 623.471 116.886 638.959C130.444 657.352 147.215 641.538 148.844 624C151.063 600.111 140.902 584 127 566M125.219 570.756C130.564 570.818 135.996 581.015 138.125 585.001C144.694 597.297 156.506 644.695 130.008 643.881C108.116 643.209 114.133 602.038 116.691 589C117.439 585.19 119.639 570.691 125.219 570.756M1604 575.044C1632.82 572.892 1601.84 608.595 1588.02 609.605C1564.84 611.298 1592.72 575.886 1604 575.044M753 577C754.635 576.455 754.455 576.635 755 575C753.824 575.773 753.773 575.824 753 577M586 590C591.116 575.836 595.607 583.649 586 590M1214 580C1212.71 583.26 1211.39 583.613 1208 583C1209.97 581.566 1211.68 580.768 1214 580M1219 580C1227.17 593.61 1213.09 617.141 1200 623C1202.97 615.374 1207.54 597.071 1216 595C1214.85 589.398 1215.27 584.503 1219 580M601 581C597.663 593.266 588.561 607.015 582 618C577.393 603.799 592.729 593.058 595 581L601 581M607 582C616.212 598.739 622.178 629.424 599.864 640.97C587.985 647.117 579.467 634.014 582.703 623C586.532 609.969 597.718 598.965 602 586L607 589C606.006 586.138 605.63 584.707 607 582M857 589C862.242 579.506 870.882 585.675 857 589M1622 585C1640.16 598.078 1659.18 611.726 1678 623.579C1687.93 629.834 1699.85 633.275 1708 642C1676.29 657.597 1653.26 643.226 1621 639.258C1609.27 637.816 1596.82 641.686 1585 641.952C1567.56 642.345 1550.49 639.758 1533 641C1542.83 629.525 1561.05 606.418 1575 601C1584.83 629.425 1611.61 596.214 1622 585M1197 621C1195.45 614.871 1194.82 583.684 1207.5 587.221C1213.78 588.974 1200.05 617.573 1197 621M870 591C870.209 599.285 871.789 616.166 865 622C861.772 609.602 848.827 591.042 870 591M854 603C856.531 606.308 866.31 625.664 860.592 628.031C850.733 632.111 852.566 607.083 854 603M548 639L553 638C550.564 636.549 549.705 636.74 548 639M546 641L546 644L544 644L544 641L546 641M836 655C834.974 658.418 834.165 660.249 831 662C831.999 658.672 833.094 656.919 836 655M991 656C990.811 658.517 991.546 664.149 989.146 665.765C986.469 667.567 980.024 663.54 977 663.123C966.092 661.62 951.666 669.864 943 661C959.122 660.035 975.099 658.962 991 656M1879 942C1880.96 940.159 1883.31 933.052 1886.64 934.106C1891.1 935.52 1889 950.333 1889 954C1889 975.612 1890.97 996.726 1887 1018C1899.63 1018.47 1895.67 1030.98 1904 1032C1902.91 1029.32 1899.73 1023.73 1902.84 1021.34C1906.72 1018.37 1915.28 1022.3 1920 1021.17C1940.09 1016.34 1957.1 1010.88 1978 1011.16C1998.98 1011.45 2023.17 1030.6 2044.02 1027.66C2073.16 1023.55 2072.63 961.165 2073 940C2074.65 940.306 2077.97 941.035 2077.58 938.096C2074.91 918.039 2075.67 896.719 2081.82 876C2082.99 872.053 2089.49 858.824 2086 855.383C2082.34 851.774 2052.32 847.84 2047 848.767C2036.83 850.538 2027.35 857.44 2017 858.457C1988.25 861.284 1959.01 853.281 1931 857.519C1923.42 858.665 1899.46 855.897 1894.26 861.035C1891.3 863.965 1892.14 875.917 1892.01 880C1891.57 894 1891.73 912.272 1888.72 925.852C1887.23 932.55 1879.6 932.307 1879 942M1168 1027C1172.12 1021.94 1170.85 1009.58 1170.98 1003C1171.39 982.985 1172 963.052 1172 943C1208.16 962.839 1260.81 947.577 1299 953.599C1305.7 954.655 1325.97 943.809 1329.88 948.243C1332.9 951.669 1330.18 959.914 1330.04 964C1329.56 978.302 1330 992.69 1330 1007C1321.22 1003.47 1315.76 1007.2 1307 1006.38C1295.39 1005.29 1283.75 1000.36 1272 1001.34C1252.54 1002.97 1230.97 1013.39 1211 1016.7C1200.48 1018.45 1173.82 1017.67 1171 1030C1190.89 1017.82 1216.02 1021.77 1238 1016.77C1250.24 1013.99 1262.27 1004.79 1275 1005.18C1290.94 1005.67 1315.35 1017.86 1330.4 1009.98C1336.79 1006.62 1332.69 987.071 1333.22 981C1335.86 950.446 1337.03 919.71 1338.93 889C1339.33 882.578 1346.58 858.769 1339.64 855.181C1324.84 847.536 1304.43 855.408 1289 856.783C1273.16 858.194 1257.91 861.299 1242 859.845C1231.74 858.908 1222.24 853.288 1212 853.021C1200.61 852.724 1187.83 859.745 1177 857C1177.87 855.787 1179.37 851.119 1175.8 852.926C1172.8 854.445 1173.16 880.666 1172.97 885C1171.54 916.266 1171.91 948.92 1168.68 980C1167.2 994.233 1164.47 1013.06 1168 1027M2046 853.424C2051.65 852.602 2079.48 854.475 2081.46 860.48C2084.38 869.369 2075.11 887.288 2074.22 897C2073.51 904.624 2075.8 933.48 2066.86 935.635C2059.75 937.348 2052.2 934.633 2045 935.443C2031.61 936.95 2015.08 943.706 2002 942.312C1985.31 940.533 1968.39 932.299 1952 931.098C1935.1 929.859 1910.06 937.01 1894.32 928.937C1890.1 926.768 1891.92 918.821 1892.32 915C1893.33 905.364 1890.71 872.51 1897.81 866.234C1910.86 854.707 1946.86 862.3 1962 863.823C1990.4 866.678 2018.4 857.438 2046 853.424M1537 1031C1551.27 1026.58 1567.41 1031.58 1582 1030.58C1606.65 1028.89 1629.62 1021.77 1654 1019.1C1663.15 1018.1 1685.17 1022.36 1691.97 1017.48C1701.89 1010.37 1702.83 995.091 1704.1 984C1707.15 957.262 1708.43 930.878 1710.09 904C1710.51 897.143 1718.9 873.215 1712.82 868.396C1711.23 867.135 1693.38 867.157 1690 867.041C1668.45 866.297 1648.52 867.112 1627 863.853C1607.41 860.886 1587.52 862.227 1568 858.816C1565.56 858.391 1549.65 855.726 1548.66 857.044C1545.7 861.005 1548.79 888.212 1547.94 895C1544.42 922.931 1541.59 951.816 1541.02 980C1540.73 994.394 1542.7 1018.08 1537 1031M1317 856.457C1321.74 855.635 1334.42 855.627 1337.73 859.819C1340.89 863.817 1337.48 874.406 1336.76 879C1334.38 894.15 1338.96 928.147 1330.5 940.336C1327.28 944.972 1316.2 946.924 1311 948.264C1300.17 951.053 1290.55 945.472 1280 946.123C1251.43 947.886 1201.64 954.923 1174.5 939.826C1169.82 937.225 1172.08 926.32 1172.56 922C1173.98 909.433 1169.27 870.482 1179.96 862.26C1196.95 849.189 1224.06 861.572 1242 863.934C1265.38 867.013 1293.79 860.479 1317 856.457M1555 861C1567.57 865.922 1582.78 862.88 1596 864.441C1634.34 868.965 1673.64 872.981 1712 873C1705.9 899.051 1704.04 927.242 1704 954C1671.14 942.398 1633.83 943.003 1598 943C1587.75 942.999 1557.72 945.842 1549.82 939.499C1545.82 936.284 1548.95 925.477 1549 921C1549.19 904.021 1549.63 876.846 1555 861M61 874L57 882C63.5322 889.965 57.3648 906.336 57.0404 916C56.0543 945.374 51.5028 978.969 55 1008C60.0301 1002.92 58.6496 989.878 59.1284 983C60.7261 960.051 60.2343 936.983 61.0398 914C61.2333 908.479 60.491 887.598 64.8216 884.3C67.8548 881.99 76.3319 883.871 80 884.08C94.2177 884.892 112.123 887.022 126 890C123.666 895.401 124.545 902.117 124 908C127.453 903.4 127.162 898.429 126 893C131.766 900.176 128.901 913.39 128.239 921.981C126.766 941.099 127.383 960.715 126.139 980C125.786 985.472 129.275 1001.84 125.042 1005.74C121.828 1008.7 111.288 1007.73 107 1008.2C89.2905 1010.14 71.3095 1013.59 54 1015L54 1018C62.082 1018 67.5663 1013.88 75.0404 1013.13C113.227 1009.32 150.561 1006.48 188 1000L186 1003C189.906 1004.71 198.645 1009.7 202.396 1005.12C206.633 999.942 203.432 988.029 203.067 982.007C201.811 961.319 201.2 940.668 199.541 920C199.051 913.894 201.804 895.426 198.002 891.042C193.418 885.756 175.549 886.256 169 885.922C143.102 884.604 117.633 887.297 92 882.503C84.3307 881.069 66.4714 881.939 63 874L61 874M1967 876C1967.03 889.708 1965.83 903.986 1956 913C1965.17 913.258 1992.62 921.237 1999.54 916.733C2007.86 911.314 2006.59 886.906 2009 878C1995 876.696 1980.83 872.264 1967 876M1612 876C1616.32 897.372 1605.03 909.534 1597 930C1610.34 933.102 1623.11 924.28 1636.92 926.95C1639.84 927.514 1643.32 926.419 1644.64 923.513C1647.38 917.505 1626.85 880.628 1622 876C1621.45 878.066 1621.15 879.866 1621 882L1612 876M2000 913C1993.65 912.441 1972.56 911.859 1967.9 908.362C1964.75 905.994 1967.8 897.145 1968.38 894C1969.09 890.105 1968.59 880.878 1971.82 878.26C1975.49 875.287 2000.75 878.568 2003.18 882.744C2007.32 889.878 1999.7 904.797 2000 913M1244.44 880.059C1226.83 886.841 1219.16 927.281 1243.98 918.572C1259.59 913.094 1268.02 870.976 1244.44 880.059M1254 882C1262.07 891.353 1252.36 915.563 1240 917.028C1227.85 918.468 1228.06 901.503 1232.39 894.57C1234.45 891.264 1237.02 888.472 1240 886C1241.9 892.675 1234.03 897.535 1235 905C1236.69 900.516 1249.94 878.18 1252 892C1254.05 888.731 1252.92 885.54 1254 882M1622 886C1628.54 893.249 1628.82 903.585 1638 909C1637.23 912.491 1641.4 920.87 1640.46 922.274C1638.82 924.737 1632.26 922.082 1630 921.741C1620.08 920.245 1611.43 926.149 1602 928C1606.07 914.461 1614.43 898.021 1622 886M200 1003C171.046 993.164 157.012 1002.97 129 1007C129 977.413 127.971 945.112 132.463 916C133.34 910.317 128.303 895.11 131.378 891.018C133.507 888.184 141.837 890.082 145 889.864C154.816 889.186 186.881 884.527 193.178 894.803C197.044 901.111 194.57 913.806 195.32 921C197.943 946.14 204.337 978.148 200 1003M459 898C455.694 931.684 457.152 969.707 457.024 1004C456.971 1017.97 461.111 1031.22 458 1045C467.225 1036.72 460.003 1019.11 460 1008C459.99 973.999 463 940.072 463 906C483.633 911.543 507.773 906.589 529 909C522.115 941.067 530.176 972.01 530.001 1004C529.966 1010.51 532.458 1032.43 527.178 1036.74C522.541 1040.53 508.76 1038 503 1038C487.669 1038 472.247 1039.62 460 1050C468.997 1050.97 479.52 1043.77 488 1041.25C502.836 1036.83 523.472 1040 534 1049C533.735 1037.8 543.504 1042.68 551 1040.11C572.156 1032.87 588.737 1032.38 611 1034C614.813 1004.34 613.563 973.924 615.078 944C615.325 939.111 621.304 919.097 618.13 916.333C611.644 910.688 594.107 912.754 586 911.742C574.775 910.34 564.385 904.997 553 904.139C534.551 902.748 516.316 906.579 498 904.302C488.927 903.173 465.138 906.391 461 898L459 898M829 918C829.955 916.232 830.566 915.393 832 914C826.262 939.654 829 968.819 829 995C829 1002.37 826.512 1017.48 832.722 1023.03C834.556 1024.67 842.027 1020.96 845.001 1021.08C856.116 1021.55 892.825 1021.71 894 1034L896 1034L896 1025C914.64 1028.3 939.248 1019.8 953 1035C955.526 1016.36 950.67 995.77 950.04 977C949.274 954.186 953 931.724 953 909C933.564 912.924 920.437 921.596 899 915L902 913L897 910C892.568 921.002 863.203 910.291 853 911.145C847.661 911.591 842.502 915.592 837.346 915.502C833.027 915.427 832.969 907.663 828.439 908.441C823.689 909.257 827.098 916.318 829 918M615 919C610.215 943.39 610.053 970.148 610.001 995C609.984 1003.21 613.854 1020.46 609.065 1027.44C606.846 1030.67 596.756 1027.93 593 1028.32C577.779 1029.9 563.934 1032.66 549.003 1035.64C545.365 1036.36 537.126 1039.41 533.953 1036.74C529.191 1032.72 533.359 1013.89 533.36 1008C533.36 983.046 526.336 957.803 529.721 932.999C530.506 927.244 528.963 913.694 534.365 910.26C550.834 899.79 596.198 917.24 615 919M950 914C947.679 951.494 946.491 987.328 950 1025C938.566 1020.92 905.758 1028.27 898.26 1020.74C895.002 1017.47 898.04 1005.42 897.992 1001C897.785 981.671 898.777 962.334 898.992 943C899.043 938.43 896.792 924.434 900.823 921.461C904.383 918.837 914.635 921.001 919 921C930.809 920.997 939.464 919.079 950 914M852 915.363C858.609 914.418 891.63 915.159 895.178 920.819C901.674 931.179 893.877 960.569 894.32 973C894.546 979.337 897.45 1019.66 891.499 1021.28C882.892 1023.62 839.589 1022.67 834.26 1015.28C831.165 1010.98 832.945 1001.11 832.772 996C832.16 977.966 833.011 959.997 833.922 942C834.205 936.407 831.787 925.666 834.822 920.819C836.873 917.543 848.307 915.892 852 915.363M158.081 919.941C144.633 925.535 142.778 952.016 146.06 963.96C147.867 970.536 153.816 980.105 161.981 977.038C179.681 970.391 181.589 910.161 158.081 919.941M169 925C164.992 925.641 161.051 925.075 157 925C160.62 919.608 164.969 920.513 169 925M158.011 927.9C180.482 920.174 174.653 970.611 159.918 974.913C145.159 979.221 144.109 932.679 158.011 927.9M88.1799 931.007C72.6377 933.632 78.4642 989.165 92.9707 987.255C108.866 985.162 109.823 927.352 88.1799 931.007M1904 933L1898 935C1908.99 943.193 1936.09 935.671 1949 934.87C1966.68 933.773 1987.27 946.751 2006 946.407C2024.11 946.074 2050.39 930.757 2068.48 940.822C2073.03 943.353 2069.25 956.702 2069.02 961C2068.05 979.008 2066.32 1011.26 2048.98 1021.45C2041.4 1025.9 2022.5 1018.88 2014 1016.63C1994.4 1011.44 1973.45 1004.85 1952.99 1008.4C1937.46 1011.1 1919.37 1024.38 1903.28 1017.23C1899.43 1015.52 1896.25 961.435 1894 999L1892 999C1892.56 983.074 1883.48 931.282 1904 933M89.5025 934.187C103.802 930.963 105.224 980.353 92.649 983.776C87.9264 985.062 86.3255 977.022 85.3412 974C83.0544 966.979 78.4629 936.676 89.5025 934.187M868 934C859.147 937.992 852.529 963.049 848.749 971.999C847.877 974.066 842.656 981.199 843.74 983.189C843.653 983.03 872.172 983.276 872.48 982.472C876.679 971.5 867.876 946.635 868 934M1547 944C1581.09 950.034 1618.55 948.589 1653 948.993C1668.02 949.169 1675.19 953.028 1689 956.231C1692.81 957.115 1699.07 954.677 1702.14 957.381C1705.18 960.058 1702.81 968.578 1702.18 972C1700.06 983.403 1700.88 1007.37 1689.97 1014.17C1684.11 1017.82 1670.53 1013.33 1662.92 1014.72C1635.23 1019.77 1604.21 1029.48 1576 1027.34C1568.46 1026.77 1548.2 1031.01 1543.38 1024.54C1539.52 1019.35 1542.87 1009.96 1543 1004C1543.44 984.049 1546.97 964.004 1547 944M865 947L870 982C862.859 979.923 856.009 979.992 849 978C854.107 968.077 858.024 955.673 865 947M929 948C918.757 962.206 918.552 981.536 911 997C920.312 999.37 929.612 997.208 939 999C936.798 982.575 933.417 963.53 929 948M477 952C477 964.456 472.367 1001.51 482 1010C487.374 990.36 508.384 1013.9 513.657 1006.44C517.191 1001.44 518.061 958.054 513.178 954.803C503.436 948.317 488.525 956.768 480 961L480 952L477 952M1948 957C1955.43 961.653 1973.96 952.451 1978.73 957.902C1981.67 961.25 1979.18 991.355 1975.18 993.345C1972.02 994.918 1952.29 992.881 1948 992C1952.38 984.699 1953.87 976.377 1952.07 968.003C1951.57 965.684 1946.84 956.581 1943.54 961.047C1941.15 964.272 1943.82 973.2 1943.88 977C1944.07 987.957 1942.73 995.045 1937 1004C1955.49 999.887 1960.54 997.41 1980 1000C1979.48 991.702 1981.81 982.605 1985 975C1981.84 969.366 1985.97 962.205 1983.06 956.359C1979.22 948.644 1954.45 954.645 1948 957M512 1004C500.847 1000.5 493.855 997.233 482 1001C482 992.235 476.978 972.506 481.318 965.019C484.895 958.849 504.362 952.67 509.681 959.124C515.228 965.854 511.964 994.995 512 1004M557 965L559 960C551.35 961.639 551.418 1002.82 556 1009C563.838 997.846 577.671 1009.67 586.001 1003.52C593.07 998.309 588.793 966.589 590 958C579.847 956.06 567.323 963.265 557 965M587 961C584.35 973.35 585.019 988.344 585 1001C578.648 999.521 561.674 1003.15 557.26 998.74C554.475 995.956 556.175 988.437 556.562 985C558.506 967.725 568.895 962.279 587 961M927 963C934.731 982.298 939.476 993.595 916 995C918.332 983.972 921.372 972.844 927 963M1583 1019C1590.03 1018.51 1625.99 1010.38 1627.44 1003.5C1628.89 996.67 1618.06 960.939 1608.51 965.047C1604.65 966.705 1603.48 977.331 1602.32 981C1598.02 994.57 1590.85 1007.18 1583 1019M1590 1014C1596.29 1000.38 1608.77 984.545 1609 969C1616.12 970.686 1627.71 994.259 1622.72 1000.97C1617.17 1008.44 1598.66 1012.15 1590 1014M1224.01 970.693C1209.55 972.896 1210.12 1006.17 1224.91 1003.23C1238.45 1000.54 1242.21 967.92 1224.01 970.693M1229 972C1226.74 973.436 1224.56 974.222 1222 975C1224.05 972.492 1225.8 972.213 1229 972M1226.03 976.689C1240.87 974.663 1232.74 998.542 1224.03 999.456C1213.51 1000.56 1217.13 977.904 1226.03 976.689M1948 983.333C1948.89 983.333 1948.89 984.667 1948 984.667C1947.11 984.667 1947.11 983.333 1948 983.333M1897 1003C1897.02 1008.5 1899.62 1016.39 1892 1016L1895 1003L1897 1003M84 1053L87 1051C84.9075 1051.41 84.9802 1051.22 84 1053M1608 1171L1609 1172L1608 1171M527 1194C531.375 1206.81 516.382 1224.96 511.388 1237C497.721 1269.94 482.197 1297.17 460.553 1325.02C450.7 1337.7 439.934 1353.88 425 1361C429.953 1365.77 458.26 1359.11 466 1358.32C485.24 1356.37 522.046 1364.5 535 1374C535.537 1366.57 541.42 1366.08 548 1366.08C564.261 1366.08 588.732 1360.95 603.971 1366.43C610.043 1368.61 609.606 1374.32 614 1378L612 1371C615.007 1371.82 617.907 1372.6 621 1373C605.782 1359.6 607.532 1341.75 599.088 1324C583.104 1290.4 564.432 1258.29 550.241 1224C546.078 1213.94 537.157 1204.67 535 1194L527 1194M1545 1370C1562.64 1371.06 1582.36 1371.72 1600 1369.67C1609.27 1368.6 1619.69 1363.69 1629 1364.42C1643.33 1365.54 1657.83 1374.66 1673 1374.98C1681.22 1375.16 1710.26 1378.96 1714.13 1369.61C1717.96 1360.35 1702.12 1341.9 1697.13 1334.98C1674.47 1303.61 1653.75 1278.56 1637.39 1243C1634.9 1237.59 1627.16 1202.94 1619.07 1205.22C1610.97 1207.51 1601.85 1240.11 1599.1 1247.92C1584.17 1290.29 1563.07 1329.15 1545 1370M535 1205C545.959 1216.59 549.784 1234.12 556.987 1248C575.228 1283.14 600.918 1322.28 607 1362C588.542 1359.55 571.398 1364.51 553 1362.44C548.37 1361.92 540.734 1364.38 536.819 1361.39C530.509 1356.59 534.257 1331.44 534.11 1324C533.41 1288.35 523.365 1239.35 535 1205M532 1206C528.334 1245.36 530.06 1283.83 530.941 1323.14C531.065 1328.7 534.528 1358.74 530.178 1361.1C515.017 1369.33 491.061 1357.02 476 1354.28C463.469 1352 447.522 1356.22 435 1358C450.297 1341.18 468.509 1325.06 481.099 1306C501.264 1275.48 513.999 1238.88 530 1206L532 1206M1282 1217C1262.49 1242.62 1251.91 1277.8 1236.21 1306C1226.85 1322.82 1209.47 1337.47 1204 1356C1220.89 1359.2 1239.81 1363.55 1257 1361.87C1276.02 1360 1299.04 1353.46 1318 1356.42C1324.5 1357.43 1357.21 1366.28 1361.05 1360.5C1363.96 1356.12 1351.47 1329.36 1349.13 1324C1343.72 1311.56 1334.51 1304.4 1327.9 1293C1321.49 1281.95 1320.04 1267.57 1313.68 1256.14C1309.3 1248.27 1301.12 1242.01 1296.61 1234C1294.55 1230.35 1285.9 1212.88 1281.96 1213.3C1278.01 1213.72 1278.58 1216.55 1282 1217M1623 1213C1613.59 1242.19 1621.84 1288.94 1625.33 1319C1626.46 1328.73 1634.55 1347.39 1631.46 1356.51C1630.08 1360.56 1619.66 1362.04 1616 1362.73C1600.93 1365.59 1585.33 1367.19 1570 1366.86C1566.24 1366.78 1554.77 1369.79 1552.5 1366.18C1548.21 1359.37 1566.01 1338.58 1568.99 1332C1582.37 1302.45 1592.1 1271.58 1605.32 1242C1609.17 1233.39 1612.99 1215.81 1623 1213M905 1217C897.266 1221.43 895.059 1236.87 891.549 1245C880.786 1269.92 874.223 1296.93 859.723 1320C857.034 1324.28 844.85 1345.25 851.521 1349.06C857.495 1352.47 867.534 1349.02 874 1349.12C897.264 1349.46 920.915 1346.41 944 1346.93C948.357 1347.03 971.255 1357.1 971.96 1350.71C974.406 1328.5 953.188 1302.05 942.786 1284.99C938.385 1277.77 936.581 1269.71 930.86 1263.28C920.299 1251.41 902.953 1235.32 905 1217M75 1395C79.3897 1400.02 88.2155 1394.88 94 1394.63C102.556 1394.27 108.861 1388.87 117 1387.42C129.45 1385.21 142.289 1387.11 155 1384C173.456 1379.48 192.576 1382.27 211.008 1378.92C215.83 1378.04 225.002 1379.7 228.738 1375.76C232.479 1371.81 230.584 1353.77 231.302 1348C234.399 1323.09 232.608 1297.93 235.549 1273C236.257 1267.01 239.145 1248.58 235.598 1243.78C228.075 1233.61 210.484 1241.99 201 1240.85C188.539 1239.36 178.279 1230.92 166 1228.58C147.791 1225.1 130.29 1228.34 112 1229.05C107.448 1229.23 94.2332 1222.01 93.8224 1222.33C87.5738 1227.22 92.55 1255.65 92.9221 1263C94.5824 1295.81 86.1813 1327.57 86.0026 1360C85.9227 1374.49 95.331 1392.83 75 1395M1625 1224C1632.57 1227.42 1638.77 1255.61 1642.48 1264C1654.91 1292.1 1676.55 1312.92 1694.61 1336.86C1698.62 1342.18 1715.14 1362.55 1711.17 1369.18C1708.99 1372.81 1696.77 1371.98 1693 1372C1678.6 1372.08 1645.17 1372.9 1635.82 1359.73C1630.88 1352.77 1632.05 1337.42 1630.48 1329C1623.98 1293.89 1624.32 1259.61 1625 1224M1357 1356C1349.27 1359.54 1343.62 1354.31 1336 1353.63C1320.27 1352.24 1300.52 1350.67 1285 1354C1285 1321.51 1283.24 1289.61 1284.92 1257C1285.11 1253.3 1283.94 1226.97 1287 1227.25C1292.49 1227.73 1302.24 1248.37 1305.71 1252.86C1315.77 1265.89 1318.84 1281.57 1326.25 1296C1331.2 1305.64 1340.01 1311.91 1344.41 1322C1348.33 1330.99 1350.82 1349.71 1357 1356M2076 1393C2069.13 1376.38 2065.96 1356.75 2058 1341C2051.69 1328.52 2036.84 1312.85 2034 1300L2031 1302C2028.2 1276.06 2003.32 1253.9 2004 1227C1991.83 1228.16 1989.76 1245.31 1983.84 1255.56C1967 1284.76 1953.51 1314.24 1937.94 1344C1934.59 1350.42 1916.29 1372.78 1918.03 1378.69C1921.2 1389.45 1945.09 1386.85 1953 1385.94C1974.51 1383.46 1995.5 1388.35 2017 1388.96C2026.97 1389.24 2036.24 1384.71 2046 1385.09C2056.16 1385.48 2067.44 1395.72 2076 1393M905 1228C912.84 1253.18 930.091 1269.37 943 1292C924.732 1292 911.179 1292.86 894 1298.63C889.14 1300.26 881.164 1302.27 876.921 1297.83C873.811 1294.57 879.582 1283.55 881.014 1280C888.062 1262.51 895.729 1245.4 903 1228L905 1228M144 1229.34C164.879 1227.54 181.199 1243.34 201 1244.85C207.803 1245.37 220.604 1239.6 226.078 1245.37C231.152 1250.71 203.007 1281.56 196.432 1282.7C186.506 1284.44 171.036 1275.43 159 1278.14C154.621 1279.13 144.942 1285.68 140.615 1283.49C131.147 1278.69 119.988 1255.89 113.835 1247C112.249 1244.71 106.836 1238.11 109.202 1235.22C113.483 1229.98 137.259 1229.92 144 1229.34M91 1383C90.0345 1332.27 96.9702 1281.99 96 1231C105.806 1234.59 109.911 1247.07 116.105 1255C134.574 1278.65 134.599 1290.55 135.021 1319C135.114 1325.24 139.348 1336.18 136.655 1341.78C132.273 1350.89 119.258 1358.22 112 1365.08C105.852 1370.88 98.922 1379.9 91 1383M1280 1232C1288.58 1256.73 1279.51 1295.57 1279.88 1322C1279.99 1329.72 1284.49 1346.41 1281.04 1353.19C1279.21 1356.79 1268.51 1356.76 1265 1357C1254.7 1357.7 1217.43 1360.94 1210.4 1351.74C1207.08 1347.4 1225.16 1328 1227.86 1324C1241.25 1304.15 1251.52 1282.35 1262.26 1261C1266.6 1252.37 1271.93 1237.48 1280 1232M2071 1389C2047.12 1380.77 2025.62 1383.86 2000 1384C2008.25 1337.37 1989.32 1286.14 2001 1240C2011.81 1248.28 2016.86 1275.44 2022.16 1288C2027.85 1301.5 2038.66 1309.64 2044.94 1322.01C2055.89 1343.59 2061.85 1366.69 2071 1389M1996 1242C1998.77 1252.95 1994.58 1263.95 1995.08 1275C1996.2 1299.72 1999.75 1326.38 1997.69 1351C1997.03 1358.92 2001.62 1375.43 1997.18 1382.16C1994.95 1385.53 1981.72 1381.27 1978 1381.08C1963.95 1380.37 1928.6 1390.14 1921 1374C1934.37 1366.71 1939.99 1346.09 1946.23 1333.14C1961.24 1302 1974.51 1269.57 1996 1242M233 1247C228.886 1278.03 231.119 1309.58 228.011 1340.68C227.192 1348.88 230.23 1365.42 226.178 1372.35C222.916 1377.94 199.199 1376.97 193 1377C168.899 1377.13 141.779 1380.7 118 1384.3C109.274 1385.62 102.098 1391.03 93 1390C99.2257 1375.31 123.901 1353.74 138 1347C146.305 1359.06 181.804 1338.9 192.74 1340.32C199.365 1341.18 212.585 1364.23 215 1370C218.017 1359.92 202.121 1348.89 197.9 1340C192.33 1328.27 193.283 1305.8 194.685 1293C196.238 1278.83 223.566 1260.5 231 1247L233 1247M144 1286C158.622 1282.39 164.877 1280.22 180 1283.12C182.972 1283.68 189.814 1281.18 191.497 1284.54C194.453 1290.45 174.444 1307.69 169 1308.1C160.794 1308.73 147.641 1292.37 144 1286M140 1288C145.684 1294.55 162.691 1304.21 164.894 1312.22C166.53 1318.16 144.786 1335.45 140 1338C136.217 1324.21 135.356 1301.68 140 1288M26.6667 1290.33C26.2224 1290.78 27.2777 1290.72 27.3333 1290.67C27.7779 1290.22 26.7223 1290.28 26.6667 1290.33M193 1294L193 1330C184.79 1326.72 177.321 1319.09 171 1313C176.821 1306.33 184.754 1297.3 193 1294M969 1348C961.175 1347.11 953.946 1342.46 946.136 1342.07C915.576 1340.54 882.872 1346 852 1346C859.298 1309.13 888.071 1295.15 923 1296.92C928.567 1297.2 939.538 1294.31 944.22 1297.28C959.973 1307.26 961.541 1333.12 969 1348M1304 1299.07C1290.91 1303.7 1290.96 1337.89 1304.95 1333.99C1317.46 1330.51 1320.72 1293.15 1304 1299.07M1308.12 1305.06C1315.39 1303.59 1311.83 1328.23 1304.72 1329.89C1293.02 1332.64 1297.85 1307.15 1308.12 1305.06M1601 1314L1609 1312C1588.95 1298.83 1577.62 1346.84 1588.37 1352.51C1601.63 1359.52 1619.19 1321.63 1601 1314M168.644 1316.31C173.243 1315.7 192.172 1332.49 188.608 1337.06C183.506 1343.59 154.345 1345.95 146.071 1346.57C135.548 1347.36 161.111 1317.31 168.644 1316.31M1599.04 1316.97C1611.32 1313.34 1605.03 1346.16 1593.07 1349.63C1583.41 1352.43 1591.12 1319.31 1599.04 1316.97M1973 1316C1965.9 1325.24 1958.76 1337.97 1955 1349C1960.75 1349 1983.3 1351.02 1986.64 1346.18C1988.4 1343.63 1984.51 1332.11 1980.75 1333.76C1977.23 1335.31 1983.03 1342.31 1984 1344C1975.78 1344 1968.13 1345.21 1960 1346C1963.47 1338.34 1968 1330.76 1973 1324C1976.18 1327.79 1978.98 1329.63 1984 1329C1980.06 1324.36 1974.38 1323.02 1975 1316L1973 1316M455.667 1376.33C455.222 1376.78 456.278 1376.72 456.333 1376.67C456.778 1376.22 455.722 1376.28 455.667 1376.33M635.333 1508.67C635.278 1508.72 635.222 1509.78 635.667 1509.33C635.722 1509.28 635.778 1508.22 635.333 1508.67M1379 1778L1381 1778C1380.27 1739.4 1362.67 1693.12 1345.44 1659C1336.92 1642.12 1323.59 1628.6 1317.95 1610C1314.27 1597.88 1312.56 1551.6 1294.8 1549.54C1290.89 1549.09 1289.31 1557.42 1288.15 1560C1283.04 1571.4 1276.97 1582.24 1270.62 1593C1247.47 1632.21 1225.7 1671.44 1209.47 1714C1206.47 1721.88 1202.42 1732.12 1197.06 1738.68C1195.65 1740.4 1187.81 1743.47 1188.32 1745.78C1189.04 1748.98 1197.2 1746.03 1199 1745.66C1211.11 1743.13 1222.86 1744.54 1235 1745.36C1271.94 1747.85 1305.55 1749.17 1342 1757.46C1359.67 1761.47 1378.59 1756.25 1379 1778M1294 1552.33C1294.77 1552.33 1294.16 1552.83 1293.67 1552.67L1294 1552.33M1294 1558C1297.17 1562.3 1302.21 1561.77 1304.8 1567.02C1313.09 1583.8 1309.8 1603.98 1318.14 1621C1340.66 1666.96 1363.85 1706.3 1376 1757C1348.16 1759.59 1317.98 1735.95 1291 1746C1293.7 1694.42 1290.7 1641.63 1294.57 1589C1295.3 1579.2 1292.25 1567.17 1294 1558M1292 1563C1292 1608.17 1287.4 1652.87 1288.01 1698C1288.14 1707.91 1296.34 1736.86 1287.06 1744.72C1281.77 1749.21 1267.78 1740 1262 1739.24C1244.49 1736.94 1217.79 1738.64 1200 1741C1226.27 1679.52 1256.36 1619.8 1292 1563M1634 1609C1635.25 1607 1636.23 1605.22 1637 1603C1626.32 1607.48 1626.02 1629.54 1621.82 1639C1606.86 1672.69 1585.45 1704 1571 1737C1626.1 1724.24 1685.78 1752.55 1741 1744C1722.32 1727.4 1685.03 1746.6 1665.42 1733.5C1660.12 1729.96 1663.25 1700.7 1663.61 1694C1665.54 1658.09 1665 1620.01 1665 1584C1673.75 1597.14 1675.22 1613.37 1683.24 1627C1696.73 1649.92 1715.13 1666.63 1722.92 1693C1726.58 1705.41 1726.8 1736.21 1743 1739C1729.93 1715.94 1727.53 1689.11 1715.74 1665C1706.37 1645.83 1688.58 1631.92 1679.75 1612C1676.51 1604.69 1670.64 1567.15 1660.33 1567.6C1656.62 1567.77 1654.71 1576.29 1653.37 1579C1648.29 1589.31 1642.93 1601.47 1634 1609M1660 1572C1665.64 1581.01 1660.13 1600.71 1659.22 1611C1656.66 1639.74 1660 1668.26 1660 1697C1660 1703.96 1663.98 1727.81 1658.74 1732.7C1655.42 1735.8 1644.33 1732.2 1640 1732.5C1619.85 1733.85 1599.42 1731 1579 1731L1660 1572M98 1721C112.99 1720.94 128.005 1717.39 143 1718.05C160.756 1718.83 177.739 1723.55 196 1722.86C204.476 1722.54 212.655 1717.98 221 1717.76C232.853 1717.45 244.807 1730.26 257.689 1723.82C263.134 1721.1 256.003 1710.13 252 1709C252.997 1697.55 244.022 1684.61 238.612 1674.96C224.896 1650.5 213.751 1630.56 196.505 1608.98C192.572 1604.06 184.565 1574.54 173.747 1580.81C168.346 1583.93 162.097 1612.53 158.161 1619.92C140.084 1653.89 119.569 1689.29 98 1721M549 1581C534.833 1619.52 509.455 1658.82 486.663 1693C477.344 1706.97 461.76 1720.17 456 1736C481.477 1732.1 508.763 1733.25 535 1731.92C549.119 1731.21 562.95 1726.5 577 1727.04C588.074 1727.47 601.06 1728.33 612 1729.87C615.128 1730.31 620.858 1734.45 623.74 1731.72C630.17 1725.62 614.217 1699.99 611.085 1694C597.329 1667.69 582.905 1641.88 568.102 1616C561.146 1603.84 558.465 1591.88 549 1581M832 1714C847.124 1711.83 859.576 1701.56 875 1699.36C892.678 1696.85 906.538 1703.73 923 1703.76C928.187 1703.77 951.102 1707.68 953.674 1704.2C956.646 1700.17 949.406 1681.06 947.09 1677C940.642 1665.69 938.106 1652.72 931.948 1641.36C926.722 1631.72 917.637 1624.82 913.001 1615C910.564 1609.84 903.929 1587.64 897.225 1587.64C893.694 1587.64 882.421 1612.07 879.952 1616C861.322 1645.66 841.064 1679.88 832 1714M257 1721C243.682 1723.86 236.195 1714.37 224 1713.68C214.252 1713.13 204.8 1720.22 195 1719.66C190.625 1719.41 177.829 1721.22 175.303 1717.4C171.411 1711.5 175.536 1679.83 175.228 1671C174.482 1649.6 177.354 1628.42 177.255 1607C177.242 1604.31 176.94 1588 180.257 1588C185.61 1588 193.426 1609.79 197.182 1613.98C217.521 1636.66 228.747 1661.87 242.285 1689C247.519 1699.49 248.777 1712.58 257 1721M1995.39 1591.45C1989.9 1594.29 1980.79 1626.9 1977.92 1634C1962.83 1671.35 1942.95 1707.15 1924.65 1743C1919.72 1752.65 1917.05 1766.2 1910.13 1774.5C1908.34 1776.65 1901.34 1781.5 1903.58 1785.03C1905.43 1787.96 1913.9 1779.04 1915.97 1778.13C1924.65 1774.3 1938.77 1784.47 1949 1783.92C1968.53 1782.87 1989.38 1774.87 2009 1776.24C2022.51 1777.17 2034.57 1784.55 2048 1786.52C2058.44 1788.06 2066.95 1784.73 2077 1784.05C2082.91 1783.65 2097.34 1783.5 2102.11 1780.19C2104.76 1778.34 2100.04 1771.24 2099.15 1769.02C2094.75 1757.95 2091.21 1747.08 2086.41 1736C2069.22 1696.32 2043.83 1659.22 2018.8 1623.92C2014.71 1618.15 2004.03 1587 1995.39 1591.45M622 1730C600.863 1718.17 569.649 1726.23 547 1727.86C526.806 1729.32 506.847 1726.64 487 1731.7C478.19 1733.94 470.819 1728.95 462 1732C468.11 1719.32 479.769 1709.8 487.392 1698C502.689 1674.32 515.209 1649.21 529.947 1625.32C533.934 1618.86 543.535 1593.63 550.917 1592.19C556.792 1591.05 563.25 1616.91 566.947 1621.56C581.432 1639.79 587.676 1660.98 598.698 1680.96C607.315 1696.58 619.126 1711.71 622 1730M1591.33 1591.67C1591.28 1591.72 1591.22 1592.78 1591.67 1592.33C1591.72 1592.28 1591.78 1591.22 1591.33 1591.67M174 1593C173.416 1623.71 171.368 1654.29 172.922 1685C173.263 1691.73 175.943 1713 170.111 1717.7C165.798 1721.17 154.734 1715.8 150 1714.94C136.349 1712.46 118.535 1714.1 105 1717C121.145 1686.61 140.351 1657.91 157.478 1628C163.784 1616.99 166.879 1603.35 174 1593M898 1596C897.572 1618.47 889.804 1640.45 889.04 1663C888.795 1670.24 891.142 1687.37 886.499 1693.18C883.871 1696.47 875.816 1695.69 872 1696.38C859.435 1698.65 849.159 1706.37 837 1709C850.915 1667.77 875.713 1633.83 896 1596L898 1596M2000 1596C2001.47 1597.69 2002.19 1598.91 2003 1601C2000.65 1599.58 1999.63 1598.78 2000 1596M902 1601C924.619 1629.38 942.645 1666.13 949 1702C934.209 1698.86 919.698 1697.87 905 1694.82C901.566 1694.11 893.815 1696.47 891.338 1693.74C888.627 1690.75 891.996 1677.21 892 1673C892.021 1650.43 894.243 1622.29 902 1601M1915 1774C1927.28 1728.62 1958.39 1685.87 1977.52 1643C1979.64 1638.25 1994.25 1602.55 1998.13 1603.76C2006.74 1606.46 2000.08 1633.44 2000.01 1640C1999.67 1670.73 1999.22 1704.29 2007.21 1734C2009 1740.68 2016.25 1765.09 2010.73 1770.74C2007.62 1773.93 1994.57 1774.73 1990 1775.68C1975.96 1778.6 1955.28 1781.25 1941 1779.67C1931.92 1778.66 1924.26 1772.96 1915 1774M2007 1611C2025.72 1640.09 2049.48 1669.1 2064.86 1700C2073.04 1716.44 2081.76 1733.1 2089.07 1750C2092.97 1759.03 2092.94 1769.04 2099 1777C2075.98 1780.25 2037.9 1790.81 2017.58 1772.77C2013.27 1768.95 2014.9 1748.61 2012.82 1742C2001.72 1706.73 1995.57 1647.08 2007 1611M906 1646C903.515 1655.8 898.036 1670.63 899 1680C907.97 1675.28 914.645 1684.96 923.499 1680.18C928.469 1677.49 928.601 1654.87 930 1649C922.287 1649.33 912.325 1651.45 906 1646M923 1678C913.217 1675.68 894.835 1666.9 908.259 1654.3C910.62 1652.08 921.488 1652.7 923.178 1655.62C926.058 1660.59 923 1672.23 923 1678M215 1659C206.654 1668.07 198.92 1679.66 194 1691C200.021 1692.87 230.125 1700.16 229.89 1689.97C229.644 1679.29 215.081 1671.11 216 1660L215 1659M1238 1704C1243.88 1703.78 1270.66 1702.5 1273.74 1699.69C1279.11 1694.8 1274.8 1664.96 1266.69 1663.61C1261.69 1662.78 1240.14 1698.13 1238 1704M545.041 1664.86C533.181 1669.09 526.997 1687.62 526.154 1699C525.693 1705.22 528.903 1714.56 536.997 1711.77C546.991 1708.32 557.893 1689.1 559.196 1679C560.396 1669.71 555.138 1661.26 545.041 1664.86M1631.08 1665.89C1619.85 1668.24 1618.81 1701.18 1631.95 1698.17C1644.03 1695.41 1645.34 1662.9 1631.08 1665.89M227 1691C217.715 1690.99 208.254 1689.85 199 1689C209.077 1662.23 216.425 1669.84 227 1691M1271 1696C1260.92 1694.68 1253.7 1699.22 1244 1700C1246.68 1695.73 1262.27 1667.75 1265.94 1668.32C1274.52 1669.66 1271 1690.47 1271 1696M539 1682L535 1683C540.67 1667.21 562.117 1668.42 555.179 1685C552.46 1691.5 541.955 1709.79 533.148 1707.83C521.772 1705.31 535.582 1685.69 539 1682M1625 1679L1629 1679C1628.19 1670.63 1637.68 1673.13 1637.95 1681C1638.1 1685.17 1633.71 1699.94 1627.17 1693.17C1624.13 1690.01 1625.64 1683.07 1625 1679M1689 1673.59C1672.38 1676.8 1671.78 1711.7 1687.99 1708.29C1701.48 1705.45 1710.8 1669.38 1689 1673.59M1331.08 1676.53C1327.08 1678.05 1312.22 1697.48 1314.28 1701.26C1317.05 1706.32 1341.69 1706.85 1346.48 1704.72C1352.65 1701.98 1343.54 1671.8 1331.08 1676.53M1683 1688L1681 1682C1686.19 1681.77 1691.69 1675.16 1696.7 1678.27C1704.8 1683.29 1694.23 1703.5 1686.99 1704.81C1679.48 1706.17 1673.97 1688.48 1683 1688M1344 1701C1334.96 1701 1326.02 1700.51 1317 1700C1326.75 1676.29 1338.95 1678.56 1344 1701M1948 1745C1954.7 1753.4 1974.04 1745.39 1977 1757L1980 1757C1980.03 1739.19 1994.25 1709.56 1969 1710.02C1965.51 1710.08 1958.6 1709.4 1955.96 1712.13C1948.79 1719.56 1961.5 1743.12 1948 1745M1982 1714C1979.06 1725.29 1977.7 1737.34 1977 1749C1972.61 1746.97 1961.88 1747.15 1959.08 1744.7C1956.56 1742.5 1958.06 1735.98 1957.92 1733C1957.03 1713.7 1963.96 1712.92 1982 1714M1660 1740C1659.05 1744.51 1659.4 1748.46 1660 1753C1662.57 1748.89 1662.57 1744.11 1660 1740M571 1935.57C558.704 1938.03 556.419 1951.04 547.973 1958.36C516.698 1985.45 489.596 2022.99 491.04 2066C491.746 2087.01 502.077 2129.92 531.922 2124.05C545.215 2121.44 557.654 2105 563.889 2094C580.903 2064 606 2026.12 602.783 1990C601.241 1972.7 596.92 1930.38 571 1935.57M536 2117C537.414 2109.69 535.596 2095.77 543 2093C533.581 2086.73 539.885 2070.72 541.058 2061C544.092 2035.86 546.838 2011.6 552.497 1987C554.281 1979.25 554.46 1965.44 559.685 1959.28C567.835 1949.68 581.804 1961.47 584.526 1970C586.636 1976.61 581.32 1981.84 578 1987C602.109 1976.18 578.498 1952.08 561 1952C577.359 1917.92 594.735 1958.86 598.163 1977C605.258 2014.56 583.77 2056.51 563.896 2087C556.554 2098.26 550.01 2112.99 536 2117M98 2109C112.28 2102.47 127.84 2097.86 145 2098.92C157.994 2099.72 174.817 2107.37 187 2101L187 2107C189.249 2105.08 189.311 2103.93 189 2101C210.91 2101 232.211 2099.95 254 2098.73C258.563 2098.48 271.158 2102.26 274.674 2098.65C280.873 2092.3 261.378 2065.28 258.058 2060C250.286 2047.64 238.532 2038.25 231.927 2025C217.597 1996.26 213.439 1968.35 192 1944C194.464 1943.41 195.464 1942.99 197 1941C182.388 1939.63 173.964 1965.32 168.539 1976C156.014 2000.66 145.862 2026.72 130.769 2050C118.618 2068.74 100.797 2085.62 98 2109M1630 1942C1605.24 1954.63 1583.27 1971.56 1573.21 1999C1567.17 2015.47 1566.79 2033.21 1561.68 2050C1552.61 2079.79 1554.58 2120.92 1590.32 2134.36C1607.97 2141 1629.63 2120.2 1643 2110.89C1648.88 2106.8 1656.47 2106.34 1661.86 2101.65C1698.13 2070.16 1710.16 2022.62 1693.7 1978C1687.44 1961.05 1665.5 1952.48 1649.86 1946.43C1642.76 1943.68 1635.03 1949.51 1630 1942M189 2096C173.918 2101.2 159.379 2094.99 144 2094.8C130.85 2094.63 117.385 2098 104 2098C110.679 2079.24 124.228 2066.24 134.402 2049.86C146.614 2030.21 154.308 2008.47 165.557 1988.44C172.31 1976.41 186.375 1958.51 188 1945C193.396 1946.51 187.497 1974.33 186.944 1981C183.935 2017.28 182.2 2059.94 189 2096M927 1945L927 1952C867.256 1944.66 853.866 2043.09 853.019 2085C852.586 2106.4 851.826 2137.15 880 2140.75C900.044 2143.32 913.133 2130.8 927.04 2118.58C955.197 2093.82 983.318 2060.48 981.958 2020C981.345 2001.75 973.337 1954.96 947 1964C947.569 1961.79 948.784 1961.37 949 1959C937.561 1961.8 933.838 1950.39 927 1945M1640 1950C1654.9 1957.6 1680.94 1957.6 1689.47 1976C1708.57 2017.18 1693.54 2069.15 1659.96 2097.74C1654.48 2102.4 1646.92 2103.02 1641 2107.13C1626.35 2117.28 1610.05 2134.2 1591 2129.47C1576.43 2125.86 1568.59 2110.41 1562.69 2098C1550.09 2071.49 1569.28 2011.58 1583.46 1987C1588.97 1977.45 1608.88 1946.89 1622.72 1953.2C1629.38 1956.24 1624.35 1988 1623.86 1995C1620.98 2036.27 1603.61 2083.77 1611 2125C1618.1 2112.42 1614.29 2096.79 1621 2084C1612.39 2081.97 1619.59 2057.48 1620.69 2051C1625.72 2021.44 1619.23 1972.43 1640 1950M1634 1952L1633 1953L1634 1952M271 2095C253.305 2091.08 231.417 2097 213 2097C208.364 2097 195.737 2099.22 192.26 2095.74C188.118 2091.6 191.362 2075.69 190.88 2070C188.532 2042.3 187.925 2013.74 189.419 1986C189.657 1981.58 190.218 1955.58 194.498 1954.78C205.748 1952.69 210.404 1980.02 212.854 1987C218.365 2002.7 224.469 2020.8 233.198 2035C246.454 2056.57 262.319 2070.28 271 2095M926 1955C921.861 1979.56 914.697 2003.8 910.885 2028.44C908.188 2045.86 905.392 2064.38 905.018 2082C904.753 2094.53 907.848 2120.94 900.758 2131.58C892.809 2143.52 865.713 2133.78 860.228 2123.99C852.612 2110.4 856.119 2086.84 857.68 2072C862.398 2027.15 871.293 1960.09 926 1955M938 1959C934.492 1961.37 930.967 1963.51 927 1965C929.348 1958.71 931.515 1957.32 938 1959M556 1960C543.807 1998.46 538.435 2039.97 534.607 2080C533.932 2087.06 537.302 2116.69 529.716 2119.39C507.53 2127.28 496.336 2086.33 494.361 2072C490.181 2041.69 505.666 2016.18 521.43 1992.01C527.985 1981.96 537.398 1967.52 549 1963L548 1970C550.097 1965.89 551.608 1961.92 556 1960M951 1978C951.885 1954.22 967.446 1973.43 972.253 1987C988.697 2033.41 965.932 2083.61 929 2113.02C921.463 2119.02 913.34 2128.24 904 2131C911.914 2097.13 907.52 2061.27 915.197 2027C918.727 2011.24 919.703 1994.47 924.114 1979.01C925.862 1972.88 933.672 1970.19 933 1964C944.676 1962.52 945.645 1969.43 951 1978M1261 2112C1273.83 2093.75 1308.46 2101.84 1320.55 2078C1327.51 2064.26 1330 2048.27 1330 2033C1330 2017.64 1329.72 1997.56 1324.4 1983C1318.12 1965.82 1304.15 1979.06 1292.54 1973.68C1284.57 1970 1280.04 1962.6 1270 1963.54C1254.12 1965.02 1241.9 1978.05 1234.16 1991C1217.3 2019.21 1189.4 2076.5 1220.27 2105.46C1232.64 2117.07 1247.4 2106.73 1261 2112M2021 1965.52C1970.05 1968.6 1951.99 2028.12 1951.06 2071.14C1950.63 2090.98 1944.81 2128.39 1975 2127.32C2017.65 2125.8 2067.3 2073.74 2078.98 2036C2084.7 2017.54 2080.64 1979.36 2061.92 1968.8C2053.18 1963.87 2030.96 1964.91 2021 1965.52M1271 1967C1266.52 1987.5 1266.37 2009.1 1263.94 2030C1262.41 2043.25 1262.12 2056.69 1260.79 2070C1260.01 2077.76 1262.08 2098 1257.64 2104.1C1248.11 2117.22 1221.42 2103.2 1216.4 2093C1201.25 2062.2 1220.15 2022.38 1235.51 1995.98C1243.64 1982.01 1253.82 1968.95 1271 1967M1288 1977C1281.98 1977.12 1277.6 1979.29 1272 1981C1274.39 1970.98 1282.07 1963.95 1288 1977M2007 2110C2007.05 2076.64 2015.37 2038.87 2021.02 2006C2022.22 1999 2023.06 1976.58 2028.94 1972.32C2039.15 1964.91 2041.07 1986.66 2042 1991C2046.17 1983.56 2045.19 1976.01 2038 1971C2071.68 1959.59 2078.89 2003.3 2076.79 2027C2073.96 2058.81 2037.36 2100.97 2007 2110M2005 1971.43C2008.82 1970.7 2021.13 1969.03 2022.26 1974.28C2025.1 1987.39 2016.16 2007.16 2013.42 2020C2009.02 2040.61 2011.84 2062.29 2007.14 2083C2005.57 2089.92 2007.71 2106.92 2003.92 2112.06C1999.16 2118.51 1982.53 2122.09 1975 2123.32C1950.9 2127.25 1954 2095.96 1954 2081C1954 2049.15 1959.19 2020.34 1978.54 1994.01C1984.65 1985.69 1994.34 1973.45 2005 1971.43M2043 1971L2044 1972L2043 1971M1305 1975C1303.72 1976.9 1303.18 1977.26 1301 1978C1302.28 1976.1 1302.82 1975.74 1305 1975M1290 1983C1295.47 1974.69 1316.21 1974.94 1321.04 1984C1336.7 2013.35 1330.78 2080.8 1296 2093C1291.2 2094.68 1264.46 2107.25 1261.6 2102.4C1257.79 2095.92 1262.95 2080.21 1263.54 2073C1265.69 2046.78 1262.87 2011.88 1271.61 1987.04C1273.64 1981.3 1287.52 1975.56 1290 1983M1655 2004C1654.79 2023.5 1632.07 2039.89 1634 2059C1640.24 2056.35 1661.98 2058.6 1665.09 2054.37C1667.65 2050.88 1662.65 2045.2 1661.61 2042C1659.19 2034.58 1663.09 2006.3 1655 2004M953 2028C949.875 2019.84 951.069 2018.57 960 2019C944.952 2001.5 922.481 2050.96 932.937 2064.72C943.231 2078.25 964.788 2032.79 959.542 2022.97C959.979 2023.79 945.084 2070.52 935.526 2062.77C926.376 2055.35 939.569 2021.19 953 2028M1656 2018C1656.22 2029.54 1657.36 2040.11 1661 2051L1640 2052C1642.79 2040.88 1649.39 2027.37 1656 2018M1973 2065C1983.33 2061.71 1994.32 2064.78 2004 2061C2001.2 2053.35 1991.78 2039.35 1993 2032C1982.7 2031.64 1974.31 2056.57 1973 2065M229 2075C229 2066.09 232.995 2045.97 228.593 2038.42C224.669 2031.69 209.155 2035.93 204.501 2039.84C199.908 2043.71 198.726 2074.02 203.939 2077.92C207.115 2080.3 223.334 2074.05 229 2075M1237.23 2037.09C1225.53 2041.08 1225.47 2073.14 1238.95 2068.59C1250.82 2064.58 1253.81 2031.43 1237.23 2037.09M206 2042C211.685 2043.35 219.537 2036.7 224.06 2041.05C231.735 2048.42 227.47 2070.78 217.999 2072.3C214.874 2072.8 208.883 2076.14 206.26 2073.14C201.55 2067.74 206 2048.96 206 2042M1998 2059L1977 2059C1983.39 2040.3 1994.92 2037.34 1998 2059M1239.33 2042.89C1249.37 2040.33 1246.46 2063.49 1237.19 2064.68C1227.73 2065.89 1232.3 2044.68 1239.33 2042.89M150 2048C149.79 2054.17 146.29 2072.42 150.099 2077.18C162.54 2092.71 183.784 2072.27 172.616 2056.6C169.074 2051.63 155.647 2052.02 150 2048M153.84 2056.86C165.696 2049.89 179.108 2072.33 169.178 2077.3C157.39 2083.19 144.102 2062.59 153.84 2056.86z"/>
</svg>
