<?xml version="1.0" standalone="yes"?>
<svg xmlns="http://www.w3.org/2000/svg" width="2200" height="2200">
<path style="fill:#0f0f0f; stroke:none;" d="M1642 335C1632.71 318.406 1586.29 325.5 1569.05 318.717C1561.62 315.792 1555.46 300.901 1552.04 294C1540.63 270.932 1523.27 238.57 1525.96 212C1528.13 190.497 1531.82 161.511 1541.53 142.136C1568.93 87.4668 1641.44 34.7947 1702 28.5356C1726.22 26.0327 1752.55 26.1604 1773.68 40.4412C1799.46 57.8635 1804.65 87.6011 1816 114C1820.49 100.74 1812.01 86.5845 1806.67 75C1784.55 27.1033 1733.11 14.7207 1684 25.6172C1669.45 28.8457 1655.27 38.9541 1642 45.5007C1557.12 87.3606 1501.13 167.107 1533.27 262C1539.03 279 1546.3 309.551 1561.64 320.781C1567.82 325.306 1578.78 324.415 1586 325.479C1604.66 328.227 1623.62 331.294 1642 335M1230 34.4568C1183.08 40.7375 1158.71 76.9177 1140.94 116C1131.18 137.462 1121.17 156.701 1122.04 181C1123.06 209.319 1134.84 237.977 1147.73 263C1164.5 295.565 1193.52 341.525 1236 336.672C1250.24 335.046 1263.08 329.94 1277 327.414C1319.08 319.782 1381.76 313.568 1410.12 276.993C1444.06 233.219 1442.22 144.755 1411.86 99.1182C1395.91 75.1499 1366.74 54.7769 1341 42.6489C1322.6 33.979 1295.95 38.9502 1276 37.9219C1260.28 37.1118 1246.16 32.2939 1230 34.4568M1242 320C1236.92 323.544 1240.04 327.906 1241 333C1227.32 329.457 1213.24 331.382 1200 324.409C1181.83 314.844 1164.06 285.863 1154.79 268C1141.03 241.468 1129.26 212.619 1126.16 182.981C1123.66 158.995 1135.08 137.443 1145.92 117C1154.25 101.3 1156.73 84.0139 1170.36 70.481C1206.03 35.0713 1243.39 38.5679 1289 41.8645C1302.19 42.8179 1319.57 39.9771 1332 44.2688C1364.16 55.3711 1402.41 83.1382 1415.97 115C1424.01 133.885 1425.17 157.786 1427.32 178C1429.65 199.918 1430.97 229.666 1421.64 250C1398.57 300.279 1346.23 307.908 1298 319.324C1289.47 321.342 1281.54 319.275 1274.79 320.202C1267.26 321.234 1261.08 327.471 1253 328.403C1246.7 329.13 1240.85 327.056 1242 320M1888 333L1886 327C1940.85 327 1997.93 299.364 2053 304.255C2076.01 306.298 2114.8 325.326 2133.31 304.661C2142.56 294.33 2139.37 262.957 2140.08 249C2142.58 199.772 2150.52 146.922 2141.57 98C2139.86 88.6418 2143.99 69.2358 2138.62 61.6667C2133.86 54.9702 2106.72 54.8665 2099 54.1309C2062.15 50.6199 2023.12 53.675 1986 54.8208C1966.71 55.4163 1950.47 52.9265 1931 57.6221C1920.55 60.1421 1890.01 61.8284 1883.57 70.4939C1870.97 87.4219 1875.48 127.241 1876.86 147C1879.82 189.189 1867.29 231.331 1873.52 274C1875.53 287.724 1869.03 330.548 1888 333M1716 58.4458C1635.98 68.3438 1550.95 124.985 1553.96 214C1554.64 234.207 1555.5 261.149 1570.3 276.764C1578.69 285.607 1588.48 288.389 1599 293.485C1612.48 300.016 1623.68 309.846 1639 312.627C1650.19 314.658 1657.2 308.089 1667.08 307.532C1688.17 306.343 1710.3 306.064 1732 303.721C1757.36 300.982 1772.04 274.834 1783 255C1789.09 243.981 1788.92 232.938 1792.08 221C1806.46 166.599 1796.59 48.4775 1716 58.4458M1951 58.3276C1995.41 53.2014 2043.46 58.804 2088 59.6465C2096.53 59.8079 2129.37 57.3687 2134.73 64.0239C2140.53 71.2197 2134.64 90.9321 2136.78 100C2147.97 147.451 2139.65 207.277 2134.68 255C2133.08 270.405 2139.42 306.349 2118 309.377C2096.72 312.384 2073.34 300.227 2052 299.081C2017.93 297.251 1974 307.647 1940.99 315.234C1929.8 317.807 1891.6 329.982 1882.18 321.024C1874.05 313.287 1878.75 281.055 1876.82 270C1869.53 228.344 1882.94 186.485 1881.16 145C1880.38 126.55 1874.93 90.8633 1886.56 74.5967C1889.47 70.5417 1897.55 70.5503 1902 69.2583C1917.71 64.6973 1934.71 60.2078 1951 58.3276M1726 62.3201C1754.09 59.4065 1773.15 85.3796 1780.33 109C1793.38 151.93 1799.53 197.389 1784.12 241.562C1776.79 262.568 1760.97 288.041 1740 297.198C1727.75 302.547 1710.28 299.323 1697 300.081C1679.22 301.095 1661.8 306.47 1644 308.263C1630.53 309.619 1614.79 298.019 1604 291.524C1593.06 284.936 1580.46 283.41 1571.96 272.861C1549.1 244.484 1557.95 191.678 1568.46 161C1590.56 96.5266 1664.28 68.7224 1726 62.3201M1268 278C1259.02 279.119 1251.45 283.779 1242 281.391C1219.26 275.647 1204.61 254.71 1194.75 235C1176.3 198.094 1166.21 162.307 1185.12 123C1203.55 84.7073 1250.74 72 1289 72C1301.91 72 1336.93 69.5923 1346.79 78.3179C1360.06 90.0676 1367.73 122.553 1374.45 139C1386.84 169.313 1392.05 189.62 1378.57 221C1370.21 240.455 1348.44 261.052 1328 266.525C1316.88 269.503 1286.64 268.794 1282 282C1292.25 281.785 1300.35 275.794 1310 273.098C1321.07 270.007 1331.02 271.37 1342 265.859C1372.24 250.686 1395.1 211.818 1393.96 178C1393.29 158.125 1379.62 138.734 1371.84 121C1366.14 107.983 1360.3 82.7146 1348.59 73.9209C1338.05 65.9973 1308.92 67 1296 67C1235.98 67 1177.53 93.1526 1170.24 160C1166.4 195.16 1186.03 248.131 1214.02 270.763C1226.86 281.14 1255.49 298.762 1268 278M883 331C835.324 339.452 823.506 300.036 804.758 264C795.507 246.219 779.389 222.461 775.478 203C765.31 152.408 794.503 105.824 840.04 84.7085C924.882 45.3669 1001.96 135.064 1010.68 214C1015.15 254.494 989.354 306.786 950 321.354C936.79 326.244 913.49 321.018 899 321C895.742 320.996 879.869 316.121 883.649 320.393C891.521 329.291 912.344 324.658 923 325.041C981.378 327.14 1008.46 280.359 1015.54 227C1018.51 204.624 1007.87 183.313 998.25 164C990.999 149.447 986.259 130.192 976.685 117.236C972.725 111.877 963.57 108.51 958.158 104.276C944.045 93.2327 931.578 77.7134 914 72.4861C854.151 54.6877 779.727 102.316 770.303 163C762.61 212.534 799.707 276.693 826.435 317.951C834.608 330.568 872.889 351.9 883 331M113 315C90.0919 318.248 80.4402 300.068 72 281C56.6552 246.333 45.7675 205.697 61.052 169C75.2736 134.855 105.502 108.75 139 93.7744C151.772 88.0647 171.399 82.6602 185 88.7744C235.434 111.447 231.587 206.281 207.097 246C190.279 273.275 168.344 265.848 144 280.857C132.585 287.895 119.337 302.009 105.021 302.538C97.633 302.811 97.0591 294.428 97 289C88.3224 292.051 94.6162 308.164 103.004 307.782C124.49 306.806 142.747 285.03 162 277.145C171.78 273.14 183.306 276.334 191.961 270.095C230.706 242.164 227.927 195.433 225.09 154C223.281 127.588 216.085 97.1191 188.996 85.429C156.358 71.3442 113.462 99.2893 90.4244 120.116C75.2065 133.873 63.3975 149.683 56.064 169C40.3838 210.304 51.7745 249.853 70.49 288C75.4399 298.089 99.5881 336.846 113 315M1636 277C1632.88 272.332 1628.28 272.104 1623 272C1637.45 262.814 1649.78 275.653 1664 278.143C1671.5 279.458 1678.68 274.821 1686 274.396C1710.18 272.995 1721.77 278.074 1737.79 255.96C1753.6 234.13 1769.51 190.336 1764.58 163C1762.54 151.689 1753.74 138.417 1748.62 128C1741.52 113.551 1737.87 98.5015 1721 92.7729C1700.94 85.9602 1672.74 99.4387 1655 108.021C1621.96 124.005 1586.3 177.934 1586 215C1585.76 245.865 1599.54 276.983 1636 277M1268 95.623C1206.37 109.787 1187.05 212.393 1239.22 247.514C1248.1 253.489 1252.63 246.176 1260.55 247.997C1270.51 250.288 1276.27 256.081 1288 253.587C1329.95 244.668 1359.7 200.569 1353.73 157C1348.32 117.444 1307.71 86.4966 1268 95.623M1701 95.4995C1726.71 89.9998 1733.3 110.017 1743.71 128.078C1764.76 164.614 1761.15 202.572 1741.37 240C1736.3 249.6 1728.69 267.766 1717 270.765C1692.3 277.103 1663.61 269.246 1640 265.382C1620.91 262.258 1608.2 270.939 1595.35 250C1585.79 234.417 1590.43 210.491 1594.92 194C1608.37 144.621 1651.73 106.04 1701 95.4995M531 310C524.025 310.51 517.041 315.339 510 313.326C487.096 306.775 464.015 259.352 455.695 239C447.407 218.726 432.074 191.431 433.082 169C435.081 124.514 487.517 102.568 525 104.043C592.328 106.692 599.884 176.497 592.139 228C588.848 249.891 578.634 282.633 556 291.678C544.524 296.263 529.346 290.606 518 288C527.208 311.709 568.43 292.993 577.436 278.99C599.983 243.931 607.774 195.355 596.802 155C574.774 73.9736 429.504 84.4175 427.18 171.96C426.956 180.392 433.816 189.71 435.753 198C443.621 231.666 459.454 268.293 482.518 294.786C494.264 308.277 514.147 329.408 531 310M1270 239C1261.41 239.435 1254.69 248.621 1246 245.773C1237.04 242.832 1227.4 228.814 1222.61 221.136C1201.22 186.874 1218.54 125.84 1255 106.301C1295.17 84.7793 1339.74 114.275 1348.5 156C1352.92 177.054 1341.84 211.916 1328.29 227.922C1317.86 240.242 1301.76 246.584 1286 248.823C1276.79 250.131 1263.05 250.386 1270 239M873 115.486C864.347 116.662 856.738 119.857 849 123.752C798.141 149.354 811.211 197.697 829.33 240C839.653 264.1 858.859 295.918 890 291.733C923.067 287.29 965.774 264.995 972.58 228C981.732 178.251 924.387 108.504 873 115.486M890 272C889.505 277.819 893.431 281.118 896 286C862.646 291.232 844.935 266.548 833.023 239C824.256 218.728 814.434 196.75 816.279 174C819.04 139.945 855.532 117.749 887 121.661C899.112 123.167 906.496 123.957 917 131.104C929.994 139.946 939.037 152.223 947.953 165C959.206 181.124 967.568 199.965 968.601 220C970.17 250.428 916.259 303.728 890 272M53 130C55.8337 128.908 56.3989 127.97 57 125C54.2814 126.219 53.614 127.084 53 130M1698 133.476C1665.76 137.047 1626.88 165.216 1613.41 195C1601.44 221.493 1619.17 251.396 1649 248.882C1684.41 245.898 1717.12 232.644 1730.68 197C1737.77 178.354 1723.37 130.666 1698 133.476M508 274C503.815 268.012 498.536 263.75 495 257C506.14 258.972 527.174 262.969 536.742 255.285C567.867 230.292 570.581 139.365 520 136.086C498.427 134.688 467.545 138.936 455.578 159C440.901 183.61 462.33 223.875 478.869 242C487.209 251.14 494.652 273.068 508 274M1277 136.711C1255.05 141.899 1247.72 165.757 1245.56 185C1244.13 197.755 1250.75 212.648 1266 209.716C1278.91 207.232 1304.39 200.355 1310.43 186.96C1319.94 165.899 1304.4 130.235 1277 136.711M1693 138.457C1716.63 134.289 1736.04 174.086 1727.37 194C1711.81 229.76 1685.83 238.723 1650 244.382C1619.76 249.158 1608.6 218.804 1618.32 195C1628.87 169.191 1666.01 143.218 1693 138.457M507 140.339C550.603 134.917 559.557 188.475 549.815 221C546.499 232.072 540.869 253.121 527 254.852C518.003 255.975 501.19 255.933 493.097 251.619C469.601 239.093 445.186 182.975 461.069 159C470.774 144.351 490.777 142.356 507 140.339M1272 202C1255.24 223.205 1249.42 185.396 1250.78 175C1251.59 168.882 1255.08 163.544 1257.53 158C1278.53 110.6 1335.25 171.157 1298.91 194.853C1291.53 199.67 1280.17 200.893 1272 197.678C1269.59 196.729 1260.9 188.794 1258.87 190.223C1256.41 191.954 1270.36 200.933 1272 202M882 146.516C862.627 149.671 845.208 157.928 843.184 180C842.6 186.377 846.335 191.797 846.036 198C845.354 212.205 844.169 228.702 853.782 240.815C867.176 257.692 894.111 263.922 913.957 259.632C925.668 257.101 929.305 238.87 929.915 229C931.436 204.38 918.9 181.465 903.256 163C896.067 154.515 895.262 144.357 882 146.516M897 254C889.693 264.645 876.735 249.731 869.992 245.846C848.906 233.698 851.518 217.915 850.947 196C850.801 190.406 846.833 185.71 847.701 180C850.036 164.633 870.757 142.018 888.656 150.62C893.77 153.077 898.33 164.448 902.007 169C920.212 191.535 935.973 222.676 918.28 250.029C908.114 265.747 896.667 242.044 886.106 250.267C882.551 253.034 895.92 253.995 897 254M1674 176.917C1664.7 179.443 1656.99 192.714 1656.55 202C1656.33 206.721 1659.76 217.106 1666.02 215.897C1680.36 213.129 1693.47 171.63 1674 176.917M1677.95 182.216C1684.24 182.085 1675.41 212.378 1664.74 210.678C1653.73 208.923 1668.06 182.422 1677.95 182.216M1816 229C1811.41 278.06 1795.09 314.827 1746.86 334.905C1728.91 342.38 1707.6 342.533 1689 349C1701.78 353.33 1713.77 346.821 1726 344.535C1775.01 335.38 1835.57 286.762 1816 229M1619 338C1633.6 340.784 1649.51 349.913 1664 350C1657.05 341.226 1628.27 329.509 1619 338M1171 392.319C1159.7 396.324 1139.74 413.817 1137.46 426C1135.31 437.438 1140.63 448.874 1138.36 461C1127.76 517.532 1120.61 579.626 1126.68 638C1128.27 653.26 1128.44 669.648 1128.96 685C1129.15 690.585 1127.01 700.726 1131.04 705.252C1134.28 708.893 1142.65 705.889 1147.08 705.963C1162.76 706.225 1178.34 707.322 1194 707.018C1231.07 706.299 1267.96 699.295 1305 698.04C1335.75 696.999 1365.26 702.732 1394.97 690.717C1409.13 684.991 1404.45 643.145 1406.3 630C1412.96 582.492 1408.9 532.434 1413.22 484C1415.12 462.656 1422.41 435.465 1409.68 416.081C1400.24 401.705 1369.71 411.053 1355 409.856C1307.93 406.028 1260.44 403.83 1213 401.702C1201.5 401.186 1181.1 388.738 1171 392.319M1171 397.766C1182.78 393.932 1200.41 406.643 1213 406.725C1246.22 406.941 1278.01 410.662 1311 413.466C1325.37 414.687 1338.44 411.929 1353 414.541C1365.11 416.713 1397.81 406.564 1405.36 418.141C1416.75 435.589 1407.36 449.714 1408.37 467C1409.74 490.463 1404.47 513.543 1404.02 537C1403.43 567.251 1407.6 599.658 1401.84 629C1398.79 644.506 1405.54 682.483 1388 688.536C1359.82 698.262 1329.16 692.593 1300 694.078C1264.86 695.867 1229.16 702.968 1194 703C1179.23 703.013 1164.79 701 1150 701C1146.21 701 1137.17 702.648 1134.26 699.74C1131.41 696.89 1132.42 685.965 1132.14 682C1130.92 665.243 1130.92 648.687 1130.02 632C1126.88 573.735 1128.1 509.047 1143.98 453C1146.46 444.256 1140.63 436.556 1141.47 428C1142.5 417.516 1161.56 400.838 1171 397.766M769 693L768 688C763.29 691.856 754.54 697.049 753 703C785.059 699.353 816.782 687.152 850 683.328C865.241 681.573 878.274 687.073 893 686.997C915.421 686.882 937.57 682 960 682C981.711 682 996.911 678.681 1018 675.299C1023.79 674.371 1037.68 675.495 1041.78 670.958C1047.17 664.996 1045.99 628.018 1046 619C1046.03 570.946 1037.77 526.015 1045.93 478C1048.6 462.231 1052.88 436.92 1036.62 425.943C1023.34 416.981 993.174 422.404 978 424.42C949.12 428.256 913.1 427.367 884 424.783C861.14 422.752 837.186 420.242 815 414.098C803.429 410.894 789.423 404.799 778.331 413.016C761.546 425.449 775.087 454.62 774.997 471C774.911 486.75 768.229 503.36 765.641 519C760.65 549.15 757.106 588.599 761.361 619C764.048 638.196 772 654.349 772 674C772 679.843 774.031 689.049 769 693M789.783 413.552C804.7 412.075 820.189 422.495 835 423.845C881.562 428.087 927.007 429.901 974 429.844C989.405 429.825 1023.59 417.811 1035.6 431.145C1050.48 447.665 1040.37 468.277 1039.98 487C1039.59 505.824 1035.25 524.698 1034.66 543C1034.39 551.187 1039.73 559.722 1040.74 568C1042.3 580.692 1039.43 594.128 1040.08 607C1040.78 620.899 1044.74 653.254 1038.18 665.501C1034.83 671.75 1001.36 676.727 994 677.661C939.889 684.521 884.504 673.823 831 681.36C817.911 683.204 803.866 684.487 791 687.227C787.378 687.998 779.46 691.786 776.501 688.171C770.707 681.09 776.934 659.485 774.603 650C764.124 607.362 765.302 568.623 770.328 525C772.063 509.943 777.961 493.93 778.415 479C778.898 463.097 763.885 416.116 789.783 413.552M448 707C480.812 719.654 520.18 698.826 553 694.457C579.262 690.961 603.169 699.341 629 699.785C641.163 699.994 662.98 692.498 669.616 681.583C675.6 671.74 667.366 654.874 668.136 644C670.709 607.686 673.932 571.647 672.078 535C670.803 509.801 675.88 486.223 672.296 461C671.123 452.744 671.539 439.528 665.577 432.822C660.063 426.619 628.951 432.83 620 431.904C606.181 430.474 591.53 424.947 578 424.48C544.235 423.316 514.681 426.258 481 421.147C470.4 419.538 435.32 407.687 428.526 419.921C416.925 440.809 433.373 462.075 434.901 482C439.129 537.133 444.051 592.681 446.04 648C446.762 668.107 456.963 688.668 448 707M434.424 421.822C452.627 412.628 485.813 427.891 504 431.418C528.066 436.085 552.842 428.745 577 429.292C587.79 429.536 597.904 434.932 609 435.002C622.458 435.088 634.471 437.598 648 435.471C652.117 434.824 658.885 432.865 662.068 436.509C670.581 446.253 670 474.62 670 487C670 519.323 666.634 551.809 665.079 584C664.284 600.454 668.23 616.286 665.86 633C663.331 650.831 673.169 677.303 654.783 687.579C632.415 700.079 613.424 690.394 590 689.08C561.856 687.502 536.034 692.318 509 699.492C499.259 702.078 471.847 710.291 464.301 702.194C454.565 691.748 453.66 674.355 452.199 661C448.67 628.745 448.202 596.23 445.863 564C443.129 526.319 440.058 490.246 429.968 454C428.414 448.419 428.743 424.691 434.424 421.822M1183.84 424.3C1172.8 431.886 1174.33 461.315 1172.26 473C1163.76 520.95 1149.54 577.148 1158.44 626C1161.06 640.386 1160.88 654.718 1163.5 669C1163.97 671.566 1163.89 682.008 1167.14 682.677C1171.41 683.556 1169.21 672.72 1168.9 671C1166.38 656.87 1167.67 642.941 1164.13 629C1155.5 595.028 1164.65 558.408 1170.48 525C1173.36 508.484 1172.03 491.712 1175.66 475C1178.37 462.483 1175.78 439.29 1185.98 429.62C1189.59 426.192 1205.7 429.912 1210.78 430.459C1233.51 432.909 1256.16 430.754 1279 432.783C1294.84 434.189 1315.38 434.715 1331 432.519C1340.53 431.179 1357.43 428.319 1365.43 435.803C1375.52 445.254 1374.62 475.742 1373.45 488C1371.73 505.947 1372.95 524.628 1370.66 543C1368.35 561.594 1361.02 585.474 1363.93 604C1366.53 620.486 1365 636.035 1365 653C1365 658.435 1366.73 667.79 1363.5 672.499C1358.71 679.489 1331.65 678.115 1324 677.32C1289.03 673.685 1252.13 682.383 1217 681.993C1206.01 681.87 1195.01 678.357 1184 679.142C1181.94 679.288 1173.6 679.908 1174.32 683.501C1175.01 686.901 1182.95 684.332 1185 684.154C1196.03 683.196 1206.92 687 1218 687C1252.48 687 1287.43 681.327 1322 682.019C1331.49 682.208 1359.65 684.173 1367.06 678.662C1372 674.991 1370 657.583 1370 652C1370 626.675 1368.81 602.012 1370.08 577C1372.26 533.913 1393.81 473.229 1370.38 433.205C1363.59 421.608 1339.46 426.903 1329 427.773C1295.75 430.538 1258.41 429.2 1225 426.864C1216.7 426.284 1190.39 419.801 1183.84 424.3M72 717C69.0003 703.541 118.54 706.475 131 704.72C192.67 696.032 262.582 691.624 323 707C331.961 684.132 323.526 657.272 324.019 633C324.914 588.923 331.757 545.745 336.32 502C338.044 485.471 339.837 470.863 345.064 455C346.139 451.738 350.434 442.224 347.697 439.26C341.499 432.544 308.042 440.832 299.058 440.432C274.764 439.352 250.896 444.444 226 444.637C197.534 444.859 167.946 441 139 441C124.293 441 109.716 442.114 95.0007 441.997C91.953 441.973 82.2897 438.435 80.3885 440.91C77.823 444.249 80.1007 454.798 79.9596 459C79.4522 474.115 76.2891 488.846 75.9814 504C74.957 554.447 61.6119 604.752 61.0074 655C60.8664 666.715 56.547 716.45 72 717M805 669C804.786 646.245 795.834 622.646 795.04 599C794.243 575.255 802.047 553.313 802.957 530C803.653 512.188 803.536 474.923 814.819 460.358C820.102 453.538 836.143 453.222 844 450.933C876.372 441.503 916.286 449.287 951 449.981C962.866 450.219 984.289 442.176 993.058 453.508C997.313 459.006 993.768 473.249 993.751 480C993.684 505.454 992.367 530.539 991.078 556C990.165 574.045 990.038 591.867 989.077 610C988.836 614.546 990.426 625.758 986.377 628.741C960.273 647.975 919.714 641.415 890 642.019C862.793 642.571 836.037 648.482 809 651C809.172 650.141 810.234 644.921 807.488 646.104C803.235 647.938 804.709 655.358 809.132 655.812C820.648 656.992 833.684 653.724 845 651.844C883.051 645.524 921.995 652.67 959 642.456C966.571 640.367 986.002 637.489 991.178 632.101C995.346 627.763 992.643 616.598 993.339 611C995.982 589.742 994.052 568.204 996.438 547C999.096 523.385 997.538 499.674 998.019 476C998.171 468.497 1002.46 457.018 997.753 450.383C989.144 438.263 965.016 446.36 953 445.96C917.553 444.779 878.661 439.061 845 446.111C836.066 447.983 818.698 448.961 811.741 455.105C806.639 459.611 807.035 472.652 805.505 479C799.751 502.886 799.738 527.108 794.981 551C789.238 579.848 788.333 610.917 793.32 640C794.723 648.179 796.664 665.191 805 669M309 443.438C313.664 443.033 339.21 441.767 341.135 445.542C345.484 454.066 332.648 477.126 332.062 487C329.225 534.738 325.612 582.703 319.363 630C317.029 647.665 321.181 666.615 322.843 684C323.209 687.832 324.367 699.351 318.731 700.06C312.418 700.854 304.493 695.573 298 695.097C275.388 693.44 252.623 693.711 230 692.136C198.468 689.941 165.24 696.216 134 699.118C119.454 700.47 82.4028 711.739 69.8402 701.535C61.8012 695.006 65.4942 658.686 66.6984 649C72.614 601.421 79.2015 551.854 79.995 504C80.2339 489.597 82.9 475.338 84.1151 461C84.3734 457.952 82.9485 448.557 85.8292 446.862C89.4947 444.705 98.692 447.069 103 446.981C118.033 446.677 132.906 445 148 445C202.205 445 255.152 448.122 309 443.438M482 678C501.384 673.328 521.023 674.448 541 669.3C556.659 665.265 570.231 656.238 586 653.016C599.055 650.349 625.166 649.456 633.058 636.949C637.704 629.586 632.856 615.412 633.019 607C633.506 581.901 634.807 557.1 636.078 532C636.937 515.028 652.52 473.231 640.781 458.579C636.541 453.288 622.023 459.134 616 458.031C602.165 455.497 591.089 459.267 577 458.981C558.868 458.614 541.055 455.011 523 454.078C516.369 453.735 494.577 445.401 490.695 450.066C477.058 466.456 476.925 506.942 477.922 527C480.398 576.813 482.198 628.12 482 678M494 668C495.815 665.648 497.62 663.778 500 662C494.609 660.825 491.843 662.915 490 668C483.878 666.28 486.513 649.75 485.741 644C482.104 616.915 485.955 590.654 482.87 564C479.899 538.326 484.872 514.014 485.981 489C486.352 480.648 486.354 460.706 492.806 454.495C495.804 451.609 520.745 458.648 526 459.412C545.461 462.242 568.385 465.924 588 463.866C599.837 462.624 609.727 463.653 621 462.94C624.604 462.712 632.349 459.598 635.542 461.167C640.12 463.416 638.51 480.809 637.681 485C632.904 509.135 633.81 534.553 630.264 559C627.787 576.078 628.695 596.581 629.005 614C629.104 619.587 632.578 629.721 629.875 634.801C624.87 644.208 600.333 645.823 591 647.407C558.931 652.851 528.21 679.141 494 668M1187 656C1201.77 651.409 1197.61 616.314 1195.54 605C1189.72 573.271 1202.24 542.979 1204.86 512C1205.76 501.268 1203.61 480.067 1210.02 471.244C1215.3 463.988 1230.1 469.75 1238 468.602C1263.47 464.903 1289.41 465.676 1315 463.097C1321.58 462.433 1337.72 462.823 1341.59 469.642C1345.54 476.607 1336.97 490.757 1338.88 499C1346.33 531.299 1336.9 574.099 1333.32 607C1332.24 616.935 1337.23 632.426 1332.52 641.553C1328.67 649.025 1315.04 649.02 1308 649.672C1284.45 651.855 1259.09 639.891 1235 645.504C1227.67 647.212 1210.39 653.305 1209 643C1205.68 645.566 1202.33 652.143 1208.16 654.017C1217.69 657.085 1232.19 650.418 1242 649.537C1266.87 647.301 1316.03 666.237 1335.5 646.158C1342.47 638.964 1336.38 616.503 1337.45 607C1341.68 569.447 1345.56 532.349 1343.26 495C1342.77 487.04 1351.27 473.568 1346.73 466.524C1342.28 459.613 1324.39 457.58 1317 458.218C1290.97 460.466 1265.02 461.39 1239 464C1229.6 464.942 1215.04 459.268 1207.46 466.585C1199.26 474.495 1201.06 501.009 1199.4 512C1194.94 541.515 1190.43 569.13 1190.06 599C1189.83 617.926 1195.1 637.625 1187 656M1591 661C1591.72 657.639 1591.97 654.434 1592 651C1596.49 651.978 1622.59 653.325 1625.18 651.079C1631.59 645.518 1627.15 628.04 1626.33 621C1624.02 601.332 1617.62 563.847 1623.6 545.062C1628.66 529.183 1658.61 544.489 1667.71 534.777C1670.72 531.57 1665.13 518.531 1663.54 515.136C1660.32 508.257 1653.09 503.965 1648.62 497.967C1640.9 487.629 1637.74 469.927 1624.99 464.062C1618.74 461.186 1609.27 471.062 1605.32 475.003C1590.72 489.558 1564.15 506.728 1557.51 526.973C1553.34 539.667 1586.47 537.754 1590.16 546.241C1592.95 552.668 1589.27 564.096 1589.04 571C1588.36 591.298 1588.23 611.689 1588.01 632C1587.92 639.605 1584.22 656.692 1591 661M82 673C128.751 672.931 174.503 658 222 658C235.182 658 266.567 663.651 277.178 654.539C280.766 651.458 279.525 639.527 279.866 635C281.238 616.804 281.953 599.106 283.086 581C284.673 555.62 289.002 532.669 289 507C288.999 496.253 288.999 478.432 281.96 469.526C274.326 459.868 252.612 470.466 243 471.661C214.32 475.227 183.914 471.816 155 473.864C144.207 474.628 129.381 473.032 121.163 482.062C108.654 495.804 109.061 522.879 107.864 540C106.062 565.781 100.721 591.246 99.1958 617C98.3505 631.279 102.1 648.062 98.6526 661.933C96.5227 670.503 85.4901 665.402 82 673M857 466.706C829.285 468.78 834.285 521.286 834.232 540C834.178 558.52 827.256 576.549 827.007 595C826.912 601.998 824.241 609.618 830.312 614.713C836.703 620.076 867.107 617.51 876 616.86C899.233 615.164 923.277 611.793 944.438 602.322C949.726 599.955 958.06 602.315 961.616 596.642C969.046 584.79 961.848 554.432 963.861 540C965.546 527.909 972.513 495.193 964.073 485.465C958.509 479.053 943.785 480.02 936 480.001C920.816 479.964 900.622 478.609 886 474.94C876.153 472.469 867.432 465.926 857 466.706M1664 532C1654.44 532.089 1629.63 530.934 1622.6 537.796C1618.7 541.61 1619.12 550.884 1619.02 556C1618.68 573.257 1619.59 592.936 1621.32 610C1622.11 617.778 1628.27 638.802 1622.74 645.273C1619.68 648.86 1597.73 646.769 1592 648C1592 623.727 1592.23 599.253 1593.04 575C1593.36 565.472 1597.46 553.49 1595.4 544.14C1593.48 535.36 1559.97 535.918 1562.59 526.801C1567.73 508.9 1592.46 493.492 1604.99 480.999C1608.95 477.057 1616.29 467.829 1622.86 469.177C1631.43 470.931 1635.37 483.402 1638.77 490C1646.89 505.745 1659.54 513.925 1664 532M267 471.363C286.964 468.509 282.856 497.748 283.008 511C283.42 547.161 282.607 583.937 277.362 620C275.319 634.05 280.132 651.281 263 654.424C240.019 658.64 213.388 652.257 190 653.04C173.243 653.602 157.628 660.945 141 660.999C132.79 661.026 111.574 668.974 104.865 665.098C101.532 663.172 104.874 629.38 104.981 624C105.618 592.192 112.161 560.913 112.984 529C113.332 515.504 115.764 493.54 126.49 483.878C135.634 475.642 157.439 478.003 169 478C202.432 477.99 234.374 476.028 267 471.363M855 471.526C865.166 469.012 876.346 476.902 886 479.543C899.631 483.272 919.764 484.834 934 484.993C940.482 485.065 955.423 482.997 960.06 488.501C964.054 493.241 962.005 504.201 962 510C961.982 530.278 958.44 550.701 957.574 571C957.299 577.453 961.413 589.027 956.957 594.398C952.407 599.883 931.195 604.041 924 605.959C900.866 612.126 877.714 612 854 612C849.779 612 833.937 614.339 831.613 610.178C827.948 603.616 831.686 587.211 832.669 580C836.242 553.798 834.794 525.515 840.355 500C842.567 489.847 842.61 474.591 855 471.526M515 495C537.696 504.601 573.88 486.622 596.853 500.241C606.5 505.96 601.878 528.355 599.876 537C596.473 551.688 599.417 569.119 598.697 584C598.061 597.143 593.122 609.831 593 623C573.081 619.474 555.254 624.337 536 628.2C533.382 628.725 515.564 629.607 517.969 634.278C519.857 637.943 531.864 633.922 535 633.438C548.902 631.291 562.66 625.301 577 626.144C582.914 626.491 591.54 629.436 595.756 623.812C611.49 602.821 601.744 556.934 606.182 531.997C607.7 523.47 609.074 507.668 603.937 500.14C599.613 493.805 589.781 494.305 583 493.925C564.181 492.869 545.669 489.488 527 492.734C522.583 493.503 517.401 487.894 513.779 489.66C507.777 492.586 507.802 511.275 507 517C502.917 546.145 504.285 576.803 507.32 606C507.723 609.875 504.592 641.512 508.783 640.677C512.488 639.938 513.912 612.76 513.302 609C506.993 570.135 513.608 533.742 515 495M1251 499.601C1216.15 506.259 1222.23 571.055 1224.78 598C1225.59 606.536 1220.27 621.517 1226.6 628.433C1231.43 633.703 1238.74 632.373 1245 631.091C1262.87 627.436 1281.57 627.813 1299 624.447C1317.53 620.868 1310.93 581.139 1313.7 567C1316.43 553.089 1324.68 515.221 1314.2 503.604C1310.75 499.786 1303.59 501 1299 501C1284.53 501 1264.61 497.001 1251 499.601M1252 503.483C1260.72 502.057 1304.99 500.54 1310.88 506.822C1320.86 517.461 1311.13 553.523 1308.59 566C1306.14 578.047 1312.23 617.846 1296.99 620.61C1280.61 623.58 1263.53 622.854 1247 625.993C1243.21 626.712 1232.97 630.446 1230.17 627.399C1224.7 621.459 1229.59 606.484 1228.88 599C1226.62 575.289 1220.41 508.65 1252 503.483M2053 532C2035.52 522.504 2011.79 529.647 1993 529.94C1983.2 530.094 1978.42 524.825 1969.86 522.501C1955.3 518.547 1945.71 521.781 1932 516C1933.29 537.605 1926.2 560.864 1932 582C1952.44 575.176 1975.23 581.59 1996 582.737C2007.13 583.352 2013.61 578.736 2025 582.624C2030.55 584.519 2040.74 581.637 2045.18 585.26C2048.93 588.325 2048.03 603.033 2049 608C2069.61 599.654 2098.78 584.218 2116.56 570.363C2119.89 567.769 2133.32 559.107 2133.36 554.856C2133.58 528.795 2089.72 524.81 2074 518.403C2069.2 516.445 2060.11 502.204 2054.64 505.407C2055.08 505.152 2053.3 528.923 2053 532M849 593C868.73 593 890.092 588.81 909 583.116C914.592 581.432 924.204 580.772 927.852 575.725C933.491 567.923 929.016 553.136 930.439 544C931.727 535.731 936.266 513.476 930.062 506.603C925.837 501.924 915.724 508.475 911 509.482C895.807 512.723 875.283 502.728 864.653 518.004C855.007 531.864 860.427 565.186 857.695 581.999C856.661 588.365 850.798 587.881 849 593M921.97 510.61C929.991 509.011 927.791 518.91 928.32 524C929.51 535.434 930.478 559.319 926.178 569.97C921.457 581.666 879.67 586.769 868.03 587.569C860.114 588.112 862.594 579.09 863.206 574C864.828 560.508 860.627 531.069 867.822 520.062C874.78 509.418 909.706 513.056 921.97 510.61M2051 600C2051.65 595.138 2054.52 582.978 2050.31 579.219C2046.89 576.158 2033.78 579.351 2029 578.74C2008.9 576.169 1985.61 573.03 1965 574.078C1958.09 574.429 1940.9 579.387 1935.26 573.74C1929.53 568.011 1934.94 540.262 1936.89 533.07C1940.59 519.382 1970.97 529.462 1979 532.934C1993.68 539.28 2023.84 534.688 2040 533.61C2045 533.277 2052.12 537.828 2056.5 534.693C2060.64 531.728 2059.89 520.749 2061 516C2079.99 525.72 2117.75 528.919 2125.53 552.503C2127.23 557.664 2115.78 565.794 2111.96 568.236C2094.97 579.085 2070.41 595.397 2051 600M1263 531.443C1243.79 533.613 1251.92 560.311 1253.72 574.864C1254.31 579.609 1249.75 585.422 1253.59 589.44C1256.6 592.59 1273.44 590.246 1277.98 589.735C1291 588.268 1289.46 568.485 1290.14 559C1291.7 536.864 1287.98 528.622 1263 531.443M1257.63 536.822C1262.31 534.133 1284.52 534.087 1287.18 539.424C1289.84 544.769 1286.33 557.953 1285.78 564C1285.29 569.503 1285.47 582.25 1279.64 585.052C1257.18 595.866 1255.84 570.601 1256.01 555C1256.05 551.254 1254.23 538.769 1257.63 536.822M459 701L458 705C456.733 703.457 456.511 702.952 456 701L459 701M853 901C868.099 888.32 882.271 858.577 891.39 841.003C895.781 832.542 901.66 818.329 911.181 814.441C912.901 813.739 934.2 846.177 937.998 850C939.213 851.223 947.456 861.285 949.375 858.049C951.271 854.854 943.747 848.855 941.924 847C936.327 841.301 918.97 808.205 912.912 808.106C906.135 807.995 898.179 819.993 894.904 825C883.82 841.948 875.344 860.163 863.655 877C858.887 883.866 851.493 892.123 853 901M1992 974C1993.46 962.807 1980.47 961.889 1973 956.981C1959.49 948.109 1948.18 936.382 1942.54 921C1938.48 909.922 1945.69 898.362 1951 889C1966.31 862.041 1997.88 844.57 2021 825C2007.08 822.46 1983.73 849.34 1973.98 858.091C1958.1 872.341 1936.91 890.26 1936.1 914C1935.15 942.025 1970.98 963.036 1992 974M914 845C906.692 876.986 907.385 910.706 902.481 943C901.839 947.225 897.569 972.928 899.116 972.678C907.126 971.383 906.509 949.802 907.206 944C910.135 919.649 912.993 895.398 915.218 871C916.004 862.384 920.877 851.964 914 845M505.821 856.279C491.081 859.511 476.111 897.45 466.586 909C463.272 913.018 454.91 921.175 456.09 926.922C458.822 940.224 485.325 957.905 495 967.04C502.668 974.281 523.791 997.715 536.451 993.761C539.649 992.762 537.261 985.493 537.529 983C538.147 977.237 537.18 943.363 539.656 941.384C545.234 936.925 561.998 939.294 569 938.921C583.703 938.138 598.925 931.872 613 927.858C617.353 926.616 631.062 925.396 633.456 921.481C635.927 917.441 614.158 922.395 612 923.002C586.313 930.237 558.988 929.014 534.17 936.206C528.409 937.876 533.808 945.188 534.495 949C536.004 957.381 538.464 978.279 531.759 985.074C527.771 989.115 515.944 979.494 513.019 976.99C500.076 965.911 489.127 952.395 475.874 941.736C471.694 938.374 462.529 930.852 462.883 924.783C463.709 910.621 488.162 889.705 495.299 877C497.062 873.863 501.344 862.193 506.379 863.761C516.734 866.986 507.077 899.13 525.019 896.308C550.531 892.295 574.686 879.58 601 876.682C604.275 876.322 625.166 878.504 624.456 874.236C623.528 868.654 604.963 871.991 601 872.001C582.497 872.047 561.971 879.937 544 884.387C539.014 885.621 528.312 892.033 523.518 890.241C514.786 886.977 518.196 853.564 505.821 856.279M1324 855C1314.64 862.917 1328.56 871.772 1336 876.452C1343.16 880.95 1350.68 882.479 1356.58 889.136C1379.38 914.888 1348.63 949.443 1331.97 971.922C1326.65 979.107 1316.8 987.652 1317 997C1336.55 980.764 1347.79 954.885 1361.48 934.038C1367.18 925.343 1374.39 915.031 1371.24 904C1365.24 883.022 1340.07 870.49 1323 860C1324.18 858.015 1324.51 857.237 1324 855M886 981C883.018 948.98 890.816 918.559 890.997 887C891.023 882.512 895.583 856.606 891.375 857.323C883.975 858.584 886.011 880.959 885.999 886C885.947 908.034 883.501 932.006 881.941 954C881.349 962.336 877.771 975.609 886 981M2059 883C2055.2 867.056 2018.05 869.5 2006 871.698C2003.41 872.171 1989.87 871.791 1989.43 874.379C1988.62 879.08 1999.8 877.825 2002 877.426C2023.24 873.57 2038.68 878.359 2059 883M1638 933C1635.98 935.516 1634.94 937.913 1634 941C1621.78 924.718 1638.25 890.664 1640 873C1625.54 879.098 1626.16 919.966 1627.7 933.019C1628.16 936.967 1626.15 947.193 1629.76 949.813C1634.82 953.485 1637.6 935.66 1638 933M1660 895C1662.22 893.914 1663.43 892.475 1666 892C1662.96 909.163 1663.33 927.608 1662.98 945C1662.95 946.362 1661.57 965.884 1665.81 961.031C1669.36 956.963 1666.95 945.082 1666.99 939.96C1667.1 924.336 1668.69 908.576 1669.87 893C1670.04 890.749 1672.93 879.494 1671.16 878.466C1667.74 876.475 1661.13 892.474 1660 895M222 987C213.862 975.722 192.773 991.382 185.26 982.178C182.092 978.297 184.357 969.504 184.785 965C186.394 948.102 189.226 932.567 192.677 916C193.374 912.655 196.767 896.643 190.233 896.643C189.526 896.643 186.054 920.62 185.001 924C181.679 934.658 173.883 978.69 182.042 987.178C187.002 992.337 204.021 988.84 210 987C200.884 1000.95 184.392 1013.85 172 1025C169.256 1027.47 162.276 1036.32 158.185 1035.24C141.173 1030.75 127.855 998.156 119 985C128.504 985 142.059 986.149 149.178 978.165C152.54 974.395 150.833 966.685 151.32 962C152.816 947.616 154.248 933.349 156.056 919C156.822 912.915 155.581 901.424 159.819 896.604C168.423 886.819 194.783 897.348 206 893C198.998 889.851 192.61 889 185 889C177.725 889 158.695 886.073 152.999 891.26C150.263 893.75 152.146 908.848 151.923 913C151.066 928.894 150.751 958.613 144.219 972.9C139.839 982.479 113.235 977.896 112.952 982.292C111.85 999.411 136.454 1019.37 146 1031C148.281 1033.78 155.451 1045.46 159.633 1044.24C164.014 1042.96 168.59 1034.34 172.008 1031.22C186.562 1017.97 203.266 993.887 222 987M1220 895C1229.92 910.315 1272.25 900 1288 900.002C1294.54 900.002 1306.58 905.457 1310 898C1279.82 896.885 1250.17 897.875 1220 895M1976 922C2000.29 920.546 2020.08 921.994 2044 914.737C2050.74 912.691 2061.35 911.556 2066 906C2042.15 906.231 2021.41 920.543 1997 917.139C1989.86 916.145 1979.35 913.714 1976 922M1592 925C1596.48 953.719 1615.16 992.475 1634.34 1013.98C1638.78 1018.96 1656.3 1035.16 1663.58 1030.01C1668.85 1026.28 1669.59 1015.62 1672.13 1010C1680.33 991.87 1689.15 974.041 1697.3 956C1698.55 953.224 1709.19 934.194 1706.04 932.761C1701.31 930.605 1694.86 948.984 1693.53 952C1685.31 970.589 1675.43 989.034 1667.83 1008C1666.47 1011.41 1663.65 1026.27 1658.74 1025.29C1635.27 1020.62 1614.98 977.019 1607.16 957C1603.48 947.606 1602.42 928.895 1592 925M1208 946C1210.6 952.329 1223.85 952.295 1230 953.747C1250.09 958.49 1287.49 957.342 1307 951C1301.15 946.023 1290.43 950.41 1283 949.722C1258.88 947.49 1231.93 946 1208 946M1643 1199L1646 1199C1648.69 1214.64 1657.53 1229.25 1663.02 1244C1663.93 1246.44 1667.73 1257.78 1671.59 1256.24C1675.45 1254.71 1668.86 1244.22 1667.9 1242C1662.81 1230.32 1657.57 1218.04 1653.3 1206C1652.07 1202.53 1650.5 1194.03 1645.9 1193.32C1641.33 1192.62 1634.18 1207.74 1631.86 1211C1621.68 1225.32 1612.11 1240.66 1603.37 1255.92C1601.76 1258.73 1593.95 1267.73 1596.82 1270.89C1599.29 1273.62 1612.59 1249.77 1614.36 1247C1618.32 1240.83 1621.39 1234.01 1625.47 1228C1631.59 1218.99 1640.47 1209.81 1643 1199M282 1203C291.735 1243.8 298.369 1287.36 324 1322C329.132 1314.39 318.467 1302.04 315.122 1295C303.277 1270.08 299.786 1246.89 293.658 1220C292.849 1216.45 286.086 1192.76 280.856 1195.54C274.298 1199.03 271.943 1218.39 270.597 1225C265.217 1251.41 256.59 1277.65 250.541 1304C249.541 1308.36 239.972 1336.38 249.563 1336.24C248.932 1336.25 254.915 1307.58 255.741 1304C262.681 1273.95 265.387 1229.07 282 1203M154 1234C164.035 1229.54 165.595 1214.18 179 1212C176.793 1221.89 171.582 1236.48 163.776 1243.3C159.556 1246.98 150.006 1248.96 147.186 1253.59C145.202 1256.84 150.694 1260.94 149.509 1265C148.071 1269.93 141.601 1275.22 141.954 1280.49C142.317 1285.89 157.048 1276.72 159.959 1277.58C169.63 1280.44 163.357 1291.12 167.872 1294.18C173.325 1297.87 180.377 1292.45 185.757 1299.12C190.833 1305.41 177.915 1311.41 180.799 1317.09C183.905 1323.21 195.57 1308.91 198.913 1312.1C203.304 1316.31 188.574 1325.64 191.516 1330.38C193.777 1334.03 214.374 1301.94 216 1297C212.316 1297.71 209.363 1299.11 206 1300.73C185.181 1310.76 217.198 1273.34 211.035 1268.33C204.135 1262.71 176.959 1295.05 175.407 1283.6C174.277 1275.27 193.346 1254.51 197.844 1247.02C198.983 1245.12 206.214 1238.98 204.677 1236.82C202.313 1233.51 194.926 1239.39 193 1240.83C187.147 1245.2 168.396 1267.06 161.25 1265.92C152.998 1264.6 163.718 1250.68 166.184 1248.63C176.155 1240.36 197.068 1231.56 210 1231C202.23 1221.6 180.842 1238.01 171 1238C173.475 1234.85 175.57 1231.65 177.239 1228C191.66 1196.42 156.263 1213.05 154 1234M1982 1224C1989.17 1240.28 2034.12 1238.31 2049.22 1245.41C2052.47 1246.94 2067.48 1251.27 2067.48 1255.37C2067.48 1260.31 2055.59 1265.27 2052 1267.39C2037.02 1276.24 2007.81 1279.38 1997 1293C2014.03 1295.37 2044.7 1277.86 2059 1269.28C2063.01 1266.87 2076.96 1259.75 2074.46 1253.54C2072.42 1248.51 2059.58 1245.53 2055 1243.17C2034.58 1232.65 2004.77 1226.56 1982 1224M861 1227C861.047 1255.64 870.717 1293.84 880.498 1321.08C882.829 1327.57 886.293 1346.15 893.976 1348.24C899.379 1349.71 906.795 1329.94 908.919 1326C919.763 1305.87 931.502 1285.77 940.92 1265C943.276 1259.8 950.579 1249.31 949.325 1243.53C948.203 1238.37 937.173 1261.37 935.892 1264.22C924.82 1288.79 899.752 1316.09 896 1343C876.143 1328.2 876.148 1279.95 872.515 1258C870.826 1247.79 870.051 1233.88 861 1227M1259 1317C1243.63 1299.99 1220.21 1299.72 1204.6 1285.32C1201.51 1282.47 1189.63 1280.35 1189.5 1275.76C1189.04 1259.2 1228.58 1241.35 1241 1235.92C1246.7 1233.44 1255.01 1232.97 1258 1227C1238.68 1227.69 1205.98 1245.62 1193.36 1260.04C1190.67 1263.11 1180.77 1273.6 1181.31 1277.54C1182.01 1282.6 1193.46 1284.57 1197 1286.89C1210.83 1295.97 1226.32 1300.01 1241 1307.56C1247.43 1310.87 1251.03 1318.14 1259 1317M513 1231C517.126 1237.02 525.556 1234.65 532 1235.22C550.92 1236.9 568.74 1245.18 587 1246.84C594.3 1247.51 611.443 1245.65 614.994 1254.4C617.537 1260.67 603.943 1264.9 600 1266.74C581.749 1275.25 562.832 1283.86 544 1291.06C541.633 1291.96 522.801 1299.04 524.544 1301.42C528.181 1306.4 543.938 1295.62 547.982 1294.15C567.957 1286.93 587.584 1277.23 607 1268.56C611.269 1266.66 624.238 1262.32 625.894 1257.65C628.005 1251.69 605.175 1243.88 601 1242.94C572.708 1236.53 542.464 1227.09 513 1231M1927 1235C1927.19 1246.46 1915.95 1287.54 1929 1288C1924.98 1275.42 1930.32 1267.8 1931.02 1255C1931.17 1252.3 1931.13 1242.5 1936.06 1244.44C1952.28 1250.83 1961.71 1280.16 1978 1288C1978.88 1278.6 1986.14 1246.58 1976 1242C1976 1253.4 1975.4 1264.64 1975 1276C1957.93 1263.77 1946.53 1241.83 1927 1235M194 1246C192.064 1251.57 174.779 1280.56 169.011 1277.81C156.434 1271.83 187.341 1248.58 194 1246M157 1253C156.436 1254.75 156.081 1255.54 155 1257C154.784 1255.32 154.784 1254.68 155 1253L157 1253M103 1255L105 1258L106 1257L103 1255M1618 1267C1628.39 1268.83 1637.78 1264.05 1648 1263C1642.55 1277.22 1626.11 1286.07 1618.02 1299C1616.01 1302.21 1609.84 1309.46 1611.6 1313.5C1613.79 1318.51 1643.36 1317.3 1642.68 1314.25C1641.84 1310.48 1619.67 1311.73 1616 1312C1625.41 1291.62 1645.67 1280.36 1656 1261C1644.89 1258.62 1627.17 1259.68 1618 1267M149 1276C153.152 1263.53 160.09 1273.44 149 1276M206 1274C205.149 1277.65 203.718 1280.79 201.78 1284C200.054 1286.86 183.587 1306.59 183.643 1290.89C183.661 1285.56 201.284 1275.03 206 1274M172 1291.33C172.773 1291.33 172.16 1291.83 171.667 1291.67L172 1291.33M186 1314C190.667 1299.6 200.564 1309.47 186 1314M383 1334L383 1340L385 1340C384.503 1337.84 383.958 1335.99 383 1334M862 1640C890.454 1627.5 895.129 1593.83 907.785 1570C910.078 1565.68 920.865 1544.22 926.039 1544.48C931.692 1544.76 931.16 1560.25 932.097 1564C937.31 1584.89 950.748 1603.93 954.476 1625C955.133 1628.71 954.355 1650.07 961.855 1648.68C964.999 1648.09 960.154 1625.3 959.304 1622C954.089 1601.79 943.182 1583.25 937.544 1563C935.467 1555.54 935.319 1542.34 928.804 1536.97C924.048 1533.05 911.419 1554.51 909.139 1558C898.716 1573.97 895.373 1593.53 885.465 1609.99C879.203 1620.4 865.942 1628.93 862 1640M899 1563C896.24 1567.86 891.882 1574.43 897 1579C897.807 1573.48 900.191 1568.48 901 1563L899 1563M1659 1568C1658.76 1575.46 1670.81 1578 1673.24 1586C1678.04 1601.73 1677.19 1621.13 1669.9 1636C1666.2 1643.55 1656.73 1653.44 1648.42 1644.72C1639.82 1635.69 1649.18 1609.01 1651.07 1598C1651.38 1596.22 1654.33 1583.49 1650.21 1584.32C1646.84 1585.01 1645.77 1599.94 1645.19 1603C1642.52 1617.18 1632.11 1663.74 1662.96 1650.41C1672.75 1646.18 1674.5 1634.94 1676.8 1626C1682.48 1603.9 1683.65 1577.72 1659 1568M2030 1671C2028.08 1664.25 2019.71 1665.02 2014 1662.2C1998.39 1654.48 1982.03 1651.59 1966 1644.29C1962.16 1642.55 1953.51 1641.66 1951.32 1637.68C1949.82 1634.94 1967.07 1623.12 1970.02 1621.69C1987.07 1613.37 2004.8 1604.24 2023 1598.8C2029.64 1596.82 2041.75 1599.6 2046 1594C2017.35 1592.98 1992.27 1604.49 1967 1617.88C1961.27 1620.92 1945.06 1630.85 1944.51 1637.91C1943.99 1644.55 1958.78 1645.56 1963 1647.68C1975.61 1654.01 1987.46 1654.59 2000 1659.16C2011.11 1663.21 2017.28 1670.94 2030 1671M617 1685C594.557 1663.25 603.591 1623.6 573 1607C569.537 1629.24 565 1649.03 565 1672C565 1674.59 563.39 1694.27 565.484 1693.24C570.272 1690.89 569 1677.24 569 1673C569 1653.5 569.705 1633.38 576 1615C593.183 1635.11 590.12 1660.02 605.253 1679.14C608.35 1683.05 613.211 1693.59 618.077 1695.14C620.985 1696.06 622.84 1675.12 623.36 1672C627.486 1647.2 625.113 1622.01 626 1597C619.33 1599.64 621 1611.95 621 1618C621 1640.93 618.201 1662.3 617 1685M2059 1598.52C2046.22 1600.76 2001.04 1616.3 2017.6 1636.8C2022.24 1642.54 2044.84 1643.35 2045.92 1649.31C2046.29 1651.37 2040.16 1654.37 2042.09 1655.72C2044.8 1657.61 2050.99 1652.72 2054.01 1652.4C2066.98 1651.02 2080.14 1653.22 2093 1650.66C2109.21 1647.42 2130.18 1616.14 2114.44 1601.8C2105.05 1593.25 2070.91 1596.44 2059 1598.52M1279 1599C1290.66 1617.78 1333.4 1606.54 1352 1613.08C1355.03 1614.14 1373.48 1616.68 1373.48 1620.11C1373.48 1624.43 1361.21 1629.32 1358 1630.96C1346.33 1636.89 1323.2 1647.14 1320 1661C1328.67 1659.07 1334.05 1650.7 1341.32 1646.2C1355.37 1637.5 1371.27 1630.86 1384 1620C1361.47 1599.39 1307.78 1601.76 1279 1599M2064 1601.66C2074.29 1601.44 2103.52 1597.42 2111.26 1604.8C2126.93 1619.76 2100.08 1647.42 2085 1647.96C2068.04 1648.57 2032.53 1648.99 2020.83 1633.6C2008.02 1616.73 2053.81 1601.88 2064 1601.66M1225 1616C1236.76 1611.9 1278.75 1612.92 1277.66 1633C1276.48 1654.85 1243.21 1671.02 1226.12 1656.58C1212.42 1645 1218.7 1622.82 1224.79 1609.01C1226.05 1606.16 1225.85 1601.06 1222.31 1605.35C1217.68 1610.99 1216.6 1618.13 1215.3 1625C1212.74 1638.59 1213.17 1655 1226.4 1663.2C1246.98 1675.96 1285.55 1656.89 1282.55 1631C1280.6 1614.13 1230.5 1596.53 1225 1616M480 1656C498.987 1641.74 525.534 1614.13 550 1618C538.97 1599.53 502.213 1632.76 491 1641.26C486.989 1644.3 475.603 1650.75 476.323 1656.73C476.895 1661.49 487.398 1665.96 491 1668.33C502.717 1676.04 514.697 1686.67 527 1693.02C528.788 1693.94 540.997 1700.02 540.997 1694.94C540.997 1692.02 522.919 1683.93 519.864 1681.17C515.167 1676.93 509.739 1672.64 504.008 1669.92C495.573 1665.93 488.596 1659.75 480 1656M203 1627C196.327 1642.23 179.287 1653.14 167.562 1664.24C163.99 1667.63 153.909 1674.31 153.995 1679.82C154.063 1684.16 163.482 1682.75 166 1682.35C179.696 1680.16 232.783 1676.62 194 1673.22C189.251 1672.8 184.653 1673.26 180 1674.22C173.378 1675.6 166.733 1677.31 160 1678C173.689 1666.16 188.907 1653.86 200.628 1640.04C203.242 1636.96 211.377 1628.37 209.339 1623.86C204.347 1612.83 143.628 1623.31 178 1624.35C181.351 1624.45 184.68 1625.14 188 1625.56C192.96 1626.18 198.012 1626.7 203 1627M911 1642.46C892.708 1644.11 887.046 1686.37 885.866 1702C885.158 1711.38 884.842 1723.39 898 1722.79C928.372 1721.42 935.553 1693.16 929.026 1670C926.294 1660.31 924.016 1641.29 911 1642.46M909.092 1646.48C920.362 1643.9 922.387 1663.56 925.38 1671C933.777 1691.86 924.498 1714.22 899.68 1718.29C891.249 1719.68 888.939 1711.46 889.701 1705C891.059 1693.48 895.813 1649.52 909.092 1646.48M1638 1752C1643.9 1718.86 1677.88 1689.45 1688 1657C1678.88 1658.22 1675.26 1671.68 1671.43 1679C1662.14 1696.77 1651.05 1730.84 1634 1742C1632.92 1730.51 1630.06 1719.94 1626.58 1709C1624.26 1701.67 1621.55 1694.46 1619.64 1687C1618.51 1682.6 1617.43 1657.57 1612 1657.57C1606.1 1657.57 1612.35 1677.52 1612.86 1681C1615.46 1698.62 1624.8 1714.5 1628.31 1732C1629.76 1739.26 1630.46 1748.62 1638 1752M335 1685L337 1688L337 1685L335 1685M216 1705C202.045 1713.42 195.116 1735.89 186.245 1749C184.136 1752.12 178.612 1762.66 173.902 1761.36C163.736 1758.54 155.803 1719.41 152.517 1710C151.491 1707.06 147.82 1694.42 143.346 1695.32C140.514 1695.89 147.583 1712.54 148.467 1715C155.95 1735.86 167.159 1789.6 190.299 1752C194.559 1745.08 198.003 1737.73 202.591 1731C208.097 1722.92 215.4 1715.18 216 1705M427 1783C428.176 1782.23 428.227 1782.18 429 1781C427.365 1781.55 427.545 1781.36 427 1783M1170 1882C1171.79 1862.19 1193.55 1846.9 1211 1858C1207.45 1834.82 1174.43 1860.32 1169.62 1870C1162.62 1884.08 1163.41 1898.59 1168.84 1913C1173.75 1926.06 1185.82 1928.87 1195.01 1916.95C1201.55 1908.46 1215.51 1861.35 1192.99 1861.88C1183.44 1862.11 1175.58 1875.72 1170 1882M1382 1871C1375.61 1880.64 1364.27 1884.23 1359.89 1896C1357.24 1903.1 1357 1910.53 1357 1918C1357 1925.57 1355.73 1935.22 1360.28 1941.82C1369.22 1954.79 1390.92 1948.81 1398.71 1937.78C1409.18 1922.99 1407.38 1909.67 1401.49 1894C1398.75 1886.71 1396.74 1878.19 1389 1875C1392.64 1870.8 1409.78 1865.3 1410.89 1862.24C1412.1 1858.91 1406.88 1858.51 1404.99 1859.01C1398.49 1860.74 1393.61 1866.56 1387.22 1868.27C1382.52 1869.53 1360.43 1867.36 1382 1871M1552.95 1861.89C1530.43 1864.95 1517.74 1911.66 1538 1922.2C1541.49 1924.01 1545.73 1928.49 1549.98 1927.76C1563.92 1925.39 1565.22 1887.26 1563.09 1877C1562.05 1871.92 1560.19 1860.9 1552.95 1861.89M1753 1874C1746.47 1885.55 1737.7 1901.1 1741.96 1914.86C1749.85 1940.38 1778.82 1922.67 1787.91 1908.78C1807.74 1878.49 1775.81 1848.41 1747.15 1873.02C1738.22 1880.69 1748.77 1876.65 1753 1874M829 1863.87C806.507 1865.43 802.099 1890.26 802.003 1908C801.948 1918 801.384 1931.86 815 1930.9C834.157 1929.54 837.684 1897.64 837.981 1883C838.127 1875.82 839.814 1863.11 829 1863.87M1779 1865C1779.99 1866.48 1780 1866.2 1780 1868C1778.71 1866.56 1778.6 1866.77 1779 1865M2054 1876L2062 1877C2058.25 1891.39 2047.03 1931.21 2074 1934.63C2096.24 1937.45 2096.93 1900.78 2089.73 1888.02C2085.98 1881.38 2078.89 1879.4 2074 1874C2081.89 1871.08 2085.52 1869.38 2094 1871C2091.28 1859.66 2059.83 1871.24 2054 1876M1540 1889C1535.13 1883.18 1546.87 1864.66 1554.42 1867.71C1564.86 1871.94 1558.76 1918.91 1549.64 1922.46C1535.01 1928.14 1531.59 1896.34 1540 1889M2020 1873C2013.08 1881.12 2001.86 1884.5 1994.24 1892.23C1982.54 1904.08 1983.13 1945.79 2008 1938.4C2026.44 1932.91 2036.94 1891.88 2027.98 1876.01C2021.97 1865.35 2006.06 1868.45 2020 1873M1169 1888L1175 1892C1170.99 1877.44 1197.33 1854.68 1200.33 1881C1201.48 1891.09 1195.03 1926.65 1178.18 1919.89C1168.64 1916.07 1169 1896.34 1169 1888M828.852 1868.7C835.1 1868.78 833.009 1880.98 832.999 1885C832.972 1896.65 831.112 1927.04 814.014 1927.27C805.958 1927.38 805.809 1915.56 806.079 1910C806.738 1896.43 809.2 1868.47 828.852 1868.7M1927 1868.54C1897.66 1874.09 1882.76 1934.71 1923 1926.52C1951.46 1920.73 1965.44 1861.27 1927 1868.54M1765.08 1870.59C1797.13 1861.38 1790.29 1915.63 1764 1922.69C1734.91 1930.5 1745.98 1876.08 1765.08 1870.59M1901 1903C1903.8 1904.15 1906.37 1905.51 1909 1907C1906.03 1896.58 1907.31 1884.93 1917.09 1877.72C1927.47 1870.07 1944.71 1871 1946.73 1886C1950.6 1914.65 1901.41 1941.06 1901 1903M467.136 1876.67C454.074 1880.27 433.731 1898.7 435.5 1913.78C437.166 1927.99 454.511 1952.07 471 1947.28C497.979 1939.45 502.829 1866.84 467.136 1876.67M1383.96 1877.03C1391.51 1875.91 1395.36 1890.83 1397.4 1896C1403.95 1912.62 1402.83 1940.82 1380 1944.68C1350.76 1949.61 1358.28 1880.82 1383.96 1877.03M2021.72 1879C2027.13 1880.14 2024.99 1893.22 2024.56 1897C2023.07 1910.24 2020.16 1937.61 2000.08 1933.71C1973.58 1928.56 2001.33 1874.72 2021.72 1879M2068.28 1879.92C2089.29 1872.2 2096.9 1922.83 2078.95 1929.8C2061.13 1936.73 2051.45 1886.11 2068.28 1879.92M448 1928C453.832 1930.13 466.862 1934.92 470 1927C463.257 1927.87 442.919 1927.55 446.667 1915.99C447.495 1913.44 456.628 1900.01 455.377 1898.51C451.461 1893.81 443.259 1917.19 440.842 1914.89C437.028 1911.27 443.168 1900.13 445.556 1897.03C459.71 1878.66 480.095 1873.46 486.921 1898C488.297 1902.94 488.486 1908.77 487.783 1913.86C486.939 1919.97 483.315 1927.62 480.363 1933C471.971 1948.3 451.746 1944.55 448 1928M1535 1916C1530.07 1914.12 1529.17 1911.04 1529 1906C1533.15 1907.94 1534.13 1911.72 1535 1916M1653 1966.9C1626.15 1976.39 1636.38 1994.36 1644.09 2012C1647.99 2020.93 1652.33 2038.87 1666 2034.89C1704.93 2023.56 1690.56 1953.61 1653 1966.9M1655 1971.6C1688.44 1961.56 1698.5 2022.85 1665 2030.56C1654.9 2032.89 1651.98 2019.87 1649.54 2013C1644.79 1999.64 1632.46 1978.37 1655 1971.6M165 1981.74C132.591 1990.48 133.733 2020.89 137.117 2047C138.787 2059.88 150.596 2079.35 165.999 2075.31C202.045 2065.85 215.079 1968.25 165 1981.74M142 2039L148 2042C139.272 2027.96 141.954 2026.3 149 2012L138 2020C139.265 1989.17 193.775 1968.25 192.697 2009C192.16 2029.29 188.724 2054.41 170.999 2067.32C154.068 2079.65 138.427 2054.27 142 2039M891 2001L894 1988C873.353 1996.67 890.557 2038.15 898.41 2049.92C902.858 2056.59 909.947 2064.86 918.919 2061.18C927.014 2057.86 927.654 2047.34 928.997 2040C933.577 2014.99 919.932 1980.83 891 2001M905 1998.45C926.715 1994.17 928.207 2030.04 923.975 2043C922.411 2047.79 921.142 2056.54 914.951 2057.54C906.922 2058.83 901.312 2047.73 898.666 2042C892.045 2027.67 880.382 2003.3 905 1998.45M1392 2086C1362.91 2086.13 1360.96 2118.09 1358.68 2140C1357.52 2151.12 1358.13 2168.4 1369.45 2174.73C1376.94 2178.92 1388.77 2170.7 1393.88 2165.76C1408.14 2151.99 1414.7 2128.36 1402.71 2111C1398.78 2105.31 1393.1 2099.63 1386 2098.44C1384.21 2098.15 1374.69 2100.22 1374.21 2098.53C1372.99 2094.32 1390.28 2090.07 1392 2086M1183 2133C1178.84 2124.21 1172.28 2104.01 1191.98 2108.55C1213.12 2113.41 1202.04 2163.79 1179 2160.46C1147.62 2155.93 1156.14 2101.02 1187 2101C1178.05 2080.95 1153.44 2120.04 1154.09 2131C1154.45 2137.17 1156.45 2143.54 1159.3 2149C1161.5 2153.22 1164.26 2158.03 1168.26 2160.78C1207.12 2187.49 1224.13 2100.75 1187 2104.26C1170.09 2105.86 1165.94 2127.74 1183 2133M1769 2112C1774.21 2114.89 1777.78 2118.36 1784 2117C1779.39 2111.84 1767.89 2096.69 1760.98 2096.36C1742 2095.48 1711.8 2135.13 1719.53 2153C1726.22 2168.46 1751.65 2167.42 1762.44 2155.72C1774.19 2142.97 1771.85 2127.21 1769 2112M1016.83 2098.76C1001.86 2103.75 1005.11 2152.9 1008.55 2165C1010.4 2171.5 1015.72 2182.37 1024 2180C1046.2 2173.65 1058.38 2142 1045.06 2123.01C1038.46 2113.61 1029.83 2112.42 1020.18 2108.23C1016.44 2106.61 1019.36 2097.92 1016.83 2098.76M1989 2104C1986.39 2096.58 1976.75 2101.04 1972 2103.78C1959.49 2110.98 1948.33 2125.68 1941.64 2138.42C1926.5 2167.26 1979.85 2197.8 1988.96 2160C1990.52 2153.51 1990.64 2145.62 1989.81 2139C1988.22 2126.21 1974.43 2121.84 1971.35 2111.87C1969.53 2106.01 1985.5 2104.28 1989 2104M1760 2101L1763 2103C1761.19 2103.05 1760.74 2102.8 1759 2102L1760 2101M647 2103.61C630.189 2106.79 629.941 2138.97 632.306 2154C633.366 2160.75 638.948 2170.47 646.922 2169.37C683.937 2164.25 689.911 2095.5 647 2103.61M1378.01 2103.53C1391.85 2100.06 1402.17 2112.35 1403.74 2125C1406 2143.14 1395.81 2168.45 1375.05 2171.25C1367.94 2172.21 1364.31 2160.35 1363.41 2155C1361.2 2141.87 1361.93 2107.55 1378.01 2103.53M1754.7 2104.21C1765.54 2103.46 1767.21 2123.17 1766.44 2130C1764.37 2148.4 1755.51 2159.02 1736 2159.92C1706.08 2161.3 1736.32 2105.47 1754.7 2104.21M650.233 2108.82C664.313 2102.49 671.826 2119.49 672.782 2130C674.142 2144.95 664.784 2157.62 651 2163.23C627.656 2172.74 635.098 2115.62 650.233 2108.82M642 2110C640.187 2118.8 634.809 2114.28 642 2110M1016.46 2113.38C1051.51 2105.35 1055.29 2168.67 1023.04 2175.06C1007.01 2178.23 1013 2135.72 1013 2128C1013 2124.51 1011.69 2114.47 1016.46 2113.38M2068 2115C2071.02 2118.27 2079.6 2123.28 2078.74 2128.52C2078.19 2131.84 2067.74 2135.64 2065 2137.52C2055.2 2144.27 2032.17 2181.12 2058 2183C2049.13 2166.06 2051.35 2155.15 2066.98 2143.18C2070.1 2140.8 2075.32 2135.17 2079.72 2136.25C2084.57 2137.44 2082.15 2145.62 2082.04 2149C2081.58 2162.78 2081.52 2170.98 2074 2183C2092.14 2181.72 2086 2148.99 2086 2137C2109.51 2144.17 2076.5 2115.34 2068 2115M1964.04 2116.83C1971.31 2113.99 1977.8 2122.87 1981.18 2128.04C1988.75 2139.62 1989.34 2166.76 1973.96 2173.06C1941.36 2186.42 1937.56 2127.21 1964.04 2116.83M1512 2164C1508.31 2136.17 1552.58 2109.06 1561.52 2145C1568.13 2171.57 1520.87 2180.96 1520.71 2159.98C1520.63 2149.23 1534.22 2138.94 1540 2131C1529.6 2131.36 1512.79 2153.54 1515.52 2163.98C1518.33 2174.69 1537.06 2177.18 1546 2175.46C1578.38 2169.23 1568.48 2118.07 1537 2122.27C1525.13 2123.86 1491.68 2155.79 1512 2164M1856 2177C1855.09 2173.65 1854.27 2170.47 1854 2167C1864.36 2177.6 1872.49 2187.09 1889 2182.22C1909.15 2176.28 1915.74 2145.2 1896.98 2133.57C1875.39 2120.19 1835.71 2165.39 1856 2177M1883 2135.59C1908.71 2128.61 1908.36 2173.44 1884.99 2179.34C1851.64 2187.75 1856.67 2142.74 1883 2135.59z"/>
</svg>
