<?xml version="1.0" standalone="yes"?>
<svg xmlns="http://www.w3.org/2000/svg" width="2200" height="2200">
<path style="fill:#0c0c0c; stroke:none;" d="M149.34 18.2598C113.569 38.7466 139.214 107.722 180.632 84.3965C202.732 71.9502 181.348 -0.0725098 149.34 18.2598M272 17C278.753 23.5598 287.845 29.3799 292.176 38C308.158 69.814 249.837 85.8657 246.91 59.0024C246.028 50.9153 256.397 43.1584 259 36C243.56 42.3247 251.326 25.0569 256 17C242.843 18.7468 245.605 35.4526 245.54 45C245.441 59.5203 238.307 77.7417 263 76.9587C274.075 76.6077 292.064 72.6318 297.635 61.9973C306.546 44.9856 290.82 17.2605 272 17M538 17.8423C517.935 24.3167 515.396 49.927 513.5 68C512.245 79.9568 519.731 88.8618 532 85.4541C549.676 80.5444 562.65 62.6499 565.526 45C568.663 25.7578 559.698 10.8408 538 17.8423M666 18.1743C653.593 23.6108 636.146 41.1411 634.225 55.1362C631.62 74.1238 655.8 80.9448 670 75.1062C687.217 68.0271 689.826 47.3523 687.756 31.0193C686.517 21.2451 675.292 14.1025 666 18.1743M152 39L152 37C136.07 38.3533 154.738 12.0015 167.412 19.5022C186.528 30.8159 193.574 82.5793 164.922 84.8708C137.554 87.0596 122.894 37.7034 152 39M671.959 19.4792C681.706 19.3938 684.096 34.0696 683.99 41C683.736 57.4941 676.516 72.842 658 72.8428C620.643 72.8442 650.04 19.6711 671.959 19.4792M443 19C413.436 21.0869 415.649 73.3625 437.019 84.9399C457.968 96.29 474.98 58.8333 468.926 43C464.735 32.0383 444.59 26.48 443 19M549 28C543.06 27.4641 522.971 43.104 522.392 38.7048C520.593 25.0593 549.763 13.3101 558.414 24.2251C572.696 42.2437 548.159 84.2454 526.003 82.4771C506.854 80.9487 524.599 47.384 531.188 41.3472C536.822 36.1848 542.114 31.4402 549 28M929 20C889.268 20.8191 845.713 56.3723 863 99C872.078 121.384 901.366 121.85 915.558 104.016C927.631 88.8462 931.044 65.7207 927.192 47C926.056 41.4792 917.433 32.761 918.961 27.4534C919.884 24.2437 926.577 22.3491 929 20M73.2175 22.9321C60.1586 28.4536 44.4193 66.2026 43.2183 80C42.0022 93.9705 55.6999 100.406 68 95.5437C87.6858 87.7617 99.4238 74.7842 98.9814 53C98.6932 38.8074 93.1318 14.5122 73.2175 22.9321M60 48C63.3301 49.9377 65.966 52.6333 69 55C66.1732 45.1689 68.031 44.375 75 38L67 39C67.9085 29.2029 80.018 19.8342 88.2042 29.3577C95.1425 37.4292 95.5902 58.311 92.6507 68C89.2075 79.3494 57.2548 107.874 48.8217 86.9707C43.3265 73.3501 56.188 60.0315 60 48M430 41C429.334 27.7334 441.689 24.5469 451.981 29.6414C469.168 38.1479 471.393 62.8784 456.978 74.5913C452.068 78.5813 444.631 84.4348 438.215 80.0576C432.038 75.8435 417.179 41.1357 430 41M823 28.7625C799.24 35.1033 786.674 58.3799 788.07 81C788.837 93.4221 791.055 116.113 809 112.358C832.737 107.392 843.995 77.281 844 56C844.003 43.7126 840.159 24.1833 823 28.7625M906.992 29.5481C917.771 28.1465 922.824 47.0361 923.786 55C926.328 76.0466 918.339 109.036 893 111.821C866.327 114.752 861.978 88.0798 865.255 67C868.015 49.2393 889.603 31.8088 906.992 29.5481M976 35L993 33C989.068 38.7937 981.818 40.6475 978.118 47.0193C969.838 61.2793 963.311 109.159 986.019 114.468C1008.47 119.716 1023.58 75.7253 1020.24 59C1018.5 50.3076 1011.89 44.8735 1009 37L1019 39C1015.01 29.2964 982.075 24.7939 976 35M825.078 32.9099C836.859 29.3096 840.177 48.271 839.639 56C838.284 75.4602 831.826 101.175 810 107.244C794.077 111.671 793.25 89.2585 793.119 78.562C792.862 57.6833 804.23 39.281 825.078 32.9099M997 38.5493C1028.93 37.3022 1016.42 110.082 989.003 110.488C979.869 110.623 977.468 98.855 976.192 92C973.334 76.6582 975.077 39.4055 997 38.5493M1667 47C1661.99 35.198 1644.18 48.668 1667 47M1543 56C1546.81 65.3152 1565.97 56 1543 56M429 92C421.731 91.9846 412.528 90.4309 415 81C398.402 82.936 424.652 106.862 429 92M2106 114C2098.18 101.287 2086.57 114.904 2106 114M1917.15 110.26C1907.47 114.259 1922.01 117.321 1927.35 114.233C1931.87 111.618 1919.62 109.241 1917.15 110.26M597 114C599.124 113.101 599.101 113.123 600 111C597.636 111.482 597.482 111.636 597 114M1181 129C1180.62 133.861 1177.18 145.122 1179.62 149.381C1181.61 152.869 1197.73 148.615 1199 145C1193.46 144.02 1188.55 144.264 1183 145C1183.71 139.617 1185.53 133.016 1181 129M414 155C423.418 149.19 428.536 135.701 442 137.326C471.04 140.831 464.476 205.099 452.878 221C432.819 248.501 411.486 232.759 412.019 203C412.535 174.235 429.911 164.107 442 141C411.277 151.019 386.487 228.303 427.001 241.866C439.238 245.963 449.336 233.886 455.417 225.217C469.324 205.393 473.392 166.061 459.413 145.002C446.819 126.029 416.809 131.255 414 155M940 141C935.472 134.93 925.012 134.74 918 135.079C895.29 136.176 880.153 150.091 877.441 173C876.271 182.882 879.074 190.562 881.215 200C882.807 207.019 885.223 213.52 888.365 220C909.963 264.55 933.006 205.754 928.506 181.007C927.399 174.917 924.027 160.021 915.351 160.764C911.258 161.115 920.45 170.859 921.393 173.008C927.318 186.521 926.702 205.798 920.177 219C916.922 225.586 909.16 235.273 901.226 229.27C879.528 212.853 873.576 160.67 897.399 143.961C909.632 135.381 926.456 140.743 940 141M2019 138C1993.69 130.823 2006.55 148.002 2019 138M651 142.755C631.702 148.168 634 187.146 634 205C634 214.282 630.705 230.44 645 227.55C665.918 223.323 685.88 200.23 685.997 179C686.104 159.63 673.898 136.333 651 142.755M777 169C782.128 167.542 778.572 162.958 781.463 159.394C787.193 152.329 798.884 147.384 808 149.898C842.909 159.526 837.872 216.542 809 229.954C780.557 243.166 763.046 195.268 781.079 177.134C789.908 168.256 806.739 167.977 814 159C797.953 159.961 781.09 167.264 773.063 182C764.264 198.154 771.502 229.43 791.078 235.165C836.036 248.336 846.893 176.758 820.997 153.156C806.931 140.335 772.844 144.962 777 169M652.42 147.822C671.762 138.648 681.212 165.069 681.536 179C681.985 198.343 664.734 215.01 648 221.653C635.951 226.436 639 212.46 639 205C639 191.495 637.237 155.023 652.42 147.822M175 151.707C146.896 158.517 140.925 196.504 162 213.321C166.629 217.014 173.339 225.492 179.981 224.231C209.074 218.706 205.004 144.436 175 151.707M644 151C643.789 153.739 643.698 154.422 641 155L642 151L644 151M178 155.574C199.133 154.268 202.326 217.007 178.997 218.649C147.486 220.866 145.635 157.574 178 155.574M1007 171C1014.77 170.826 1021.63 174.103 1029 176C1022.59 159.287 990.715 165.104 980.067 173.538C967.036 183.858 967.411 217.714 975.358 230.992C991.663 258.235 1018.26 234.633 1025.06 213.783C1030.39 197.459 1017.38 181.725 1007 171M993 176C1001.87 172.736 1007.83 178.641 1013.24 185.218C1026.11 200.872 1022.18 226.104 1004 236.716C989.553 245.146 976.273 230.774 975.144 217C974.56 209.875 974.565 202.125 975.144 195C975.619 189.157 988.053 162.202 993 176M606 202C607.105 184.931 592.879 195.868 606 202M605.667 203.333C605.222 203.778 606.278 203.722 606.333 203.667C606.777 203.223 605.722 203.278 605.667 203.333M867 350C858.044 335.375 847.713 320.241 849.147 302C851.703 269.494 892.924 266.586 917 270C911.09 261.372 897.954 263.957 889 264.905C870.865 266.824 851.135 274.772 845.755 294C841.515 309.151 847.939 347.519 867 350M885 283C921.257 279.624 912.971 332.209 894 349C902.435 351.718 905.69 342.069 908.831 336C916.142 321.873 918.876 300.127 909.551 286.041C904.412 278.28 889.892 270.968 885 283M233 283C237.773 283.581 241.541 286.347 246 288C240.295 266.761 218.923 285.587 214.599 297C212.005 303.846 212 310.793 212 318C212 336.332 224.379 365.138 245.802 343.739C262.26 327.3 252.622 292.018 233 283M798 280.459C753.63 286.557 764.233 356.611 806 349.683C845.03 343.209 843.549 274.2 798 280.459M968 350C963.999 334.508 955.719 313.06 967.784 298.602C980.819 282.984 1018.59 282.912 1023.34 307C1026.45 322.791 1014.09 336.588 1009 350C1025.12 347.821 1031.21 310.549 1025.52 298.086C1022.44 291.342 1015.11 289.602 1010 285L1027 287C1022.91 278.065 1009.76 281.454 1002 281.845C986.353 282.635 968.389 283.047 960.626 300.003C955.889 310.347 951.765 347.688 968 350M439 282.874C420.942 281.599 399.036 303.875 394.504 320C391.193 331.778 402.599 348.576 415 349.871C436.085 352.073 452.216 331.116 453.724 311C454.444 301.383 450.77 283.704 439 282.874M806 287C794.949 288.875 786.12 294.685 776 299C779.301 290.915 798.27 278.419 806 287M52 350C30.8876 324.772 59.3982 314.214 71 295C63.9276 296.535 57.5588 300.388 53 306C55.7132 294.92 75.6166 283.095 83.9755 295.07C95.9984 312.294 87.8348 335.075 77 350C101.259 346.738 101.5 283.864 74 285.097C54.2682 285.982 39.0562 308.105 39.7648 326C40.191 336.766 37.0773 349.095 52 350M512 350C497.069 335.803 501.782 322.194 515.086 308C518.015 304.875 524.764 295.529 529.756 296.761C535.057 298.07 537.186 307.609 538.584 312C543.309 326.838 549.178 338.767 534 349C542.722 351.884 550.123 343.483 549.63 335C548.775 320.292 542.627 302.186 533 291C537.051 289.996 540.845 289.938 545 290C541.629 285.053 527.653 284.163 522.869 287.94C519.781 290.377 520.241 295.843 517.735 299C509.712 309.108 477.425 348.811 512 350M228.215 287.09C252.619 283.492 257.627 343.397 230.001 347.506C210.203 350.45 209.242 289.888 228.215 287.09M412 316C395.993 305.668 428.826 282.778 440.835 287.947C462.358 297.212 442.364 344.957 423 345.949C401.086 347.073 388.379 310.996 412 316M809.32 287.64C821.432 284.076 829.884 298.886 830.624 309C831.736 324.208 820.467 340.954 806 345.032C788.236 350.038 768.466 327.422 774.285 310.001C778.048 298.735 798.69 290.768 809.32 287.64M143 288C143.127 299.32 120.526 345.726 138 350C135.934 341.735 136.999 305.627 148.283 303.041C151.26 302.359 154.618 309.18 156.143 311C168.468 325.71 162.668 333.836 157 350C187.461 345.539 156.304 308.488 153.818 299.1C151.085 288.78 167.413 296.19 170.294 299.265C172.97 302.121 175.154 305.296 178 308C176.266 284.551 155.328 294.914 143 288M646 291C650.324 301.686 609.108 339.552 633 350C631.121 338.817 636.1 299.227 654.08 300.245C682.992 301.882 664.913 341.563 651 349C663.527 353.208 674.697 336.037 674.836 325C674.99 312.785 667.402 304.644 660 296C666.573 295.604 670.974 299.14 677 301C674.845 288.57 655.229 292.185 646 291M1190 392C1191.62 380.851 1178.67 387.272 1190 392M1197 399L1198 400L1197 399M2004 425C2023.79 423.154 2008.26 414.941 2004 425M1010 426C1020.22 425.273 1013.32 417.319 1010 426M1688 426C1693.81 427.416 1699.2 427.116 1705 429C1703.14 420.939 1692.77 419.498 1688 426M2102 429C2092.37 421.265 2083.48 434.696 2102 429M556.292 429.211C550.151 431.415 557.884 434.835 561.47 433.525C566.028 431.859 559.091 428.207 556.292 429.211M1606 436C1596.38 425.215 1580.87 436 1606 436M1917 440C1915.94 436.968 1915.26 434.202 1915 431C1906.37 435.743 1908.04 439.591 1917 440M1210 432C1212.83 438.163 1221.11 437.218 1227 438C1223.9 431.462 1216.27 432.003 1210 432M944 441C937.555 431.597 929.679 445.812 944 441M1173 440C1178.71 444.581 1187.31 442.447 1194 441C1189.96 435.117 1178.46 436.67 1173 440M1309.62 440.369C1301.32 445 1321.38 446.504 1325.11 443.542C1329.88 439.755 1312.03 439.018 1309.62 440.369M260.999 444.759C257.479 445.365 248.37 452.917 255.761 451.984C263.345 451.026 274.859 442.375 260.999 444.759M1531 449C1526.5 455.599 1528.69 457.572 1536 457C1534.67 453.96 1533.2 451.486 1531 449M641 455C636.226 445.611 624.858 456.321 641 455M1383.06 451.832C1376.89 452.558 1379.99 457.319 1384.94 456.765C1391.15 456.07 1387.87 451.267 1383.06 451.832M508 460C504.158 447.228 480.973 460 508 460M176.24 461.084C173.007 462.327 174.493 466.846 177.76 465.468C180.923 464.133 179.666 459.766 176.24 461.084M859 469C851.892 479.767 855.492 497.52 868 483C856.835 482.122 861.794 477.379 859 469M1615 476C1594.02 472.471 1595.67 495.211 1615 476M94 490C78.8214 491.484 85.6952 500.889 94 490M2097.58 494.752C2095 495.706 2095.76 500.693 2098.76 499.255C2101.09 498.14 2100.28 493.751 2097.58 494.752M1016 495C1003.44 493.067 1004.86 507.54 1016 495M1669.24 499.084C1665.99 500.326 1667.45 504.781 1670.78 503.899C1674.45 502.924 1672.96 497.666 1669.24 499.084M1530 508C1536.96 508.061 1545.92 509.915 1551 504C1545.45 502.974 1532.38 501.999 1530 508M2031.29 513.241C2028.55 515.906 2032.95 518.254 2035.38 516.101C2038.38 513.44 2033.42 511.153 2031.29 513.241M1376.3 529.278C1372.5 531.529 1375.06 535.429 1378.85 533.44C1383.35 531.085 1380.33 526.893 1376.3 529.278M621 529C595.481 532.008 615.637 543.214 621 529M1971 531C1958.59 531.429 1964.83 542.204 1971 531M941 540C949.985 552.452 967.932 534.24 941 540M244 558C249.09 557.515 253.84 556.068 259 556C256.67 552.545 255.024 551.91 251 553C250.964 536.041 245.544 548.816 244 558M1193 548C1189.08 538.096 1171.64 547.877 1193 548M1290 545C1269.06 547.787 1286.4 555.268 1290 545M1569 563C1578.86 561.089 1571.1 554.233 1569 563M2135 567C2139.03 565.827 2140.47 563.837 2142 560C2137.74 560.996 2136.13 562.811 2135 567M2062 572C2066.05 570.561 2068.39 568.386 2071 565C2065.58 564.402 2062.91 566.702 2062 572M845.785 569.271C842.458 571.75 850.455 575.531 853.031 573.627C856.128 571.339 848.334 567.371 845.785 569.271M476 578C468.817 568.77 455.389 584.136 476 578M1618.89 576.232C1614.89 579.584 1624.15 581.65 1626.59 578.866C1629.29 575.786 1620.84 574.598 1618.89 576.232M1996.85 601.221C1993.82 601.619 1987.64 608.09 1993.28 607.768C1996.65 607.574 2003.06 600.404 1996.85 601.221M1903.41 637.513C1901.01 638.654 1902.1 642.151 1904.76 641.042C1907.33 639.969 1905.98 636.294 1903.41 637.513M789 652C790.397 655.066 791.68 655.64 795 656C793.271 653.408 792.041 652.683 789 652M772 659C773.273 660.747 773.974 661.182 776 662C774.723 660.103 774.177 659.741 772 659M454 687C454.741 689.177 455.103 689.723 457 691C456.259 688.823 455.897 688.277 454 687M132 949C132.316 943.664 133.588 939.646 129 936C127.416 947.948 132.964 956.97 133.753 969C134.871 986.053 121.795 997.476 142 1007C141.287 999.343 142.262 991.523 141 984C129.101 995.838 142.827 969.959 142.981 962C143.091 956.329 138.614 941.355 141.518 936.843C143.504 933.756 151.952 936.9 155 936.979C163.817 937.206 198.254 930.915 203.724 937.822C209.924 945.649 206 973.076 206 983L202 982C202.784 986.644 212.607 999.194 213.845 988.929C215.35 976.457 206.029 948.865 213.26 938.501C216.164 934.339 231.997 938.925 231.997 934.697C231.997 926.864 214.485 933.088 212.142 925.852C204.261 901.514 225.61 836.939 178 842.237C171.951 842.91 166.496 845.36 161 847.802C153.739 851.028 146.444 854.76 141.284 861.019C128.982 875.942 128.833 907.373 129.003 925.999C129.1 936.552 143.423 938.906 132 949M180 849.464C210.032 843.888 204 887.86 204 906C204 911.12 207.021 928.325 200.845 929.716C190.853 931.966 149.139 934.835 141.598 927.958C138.094 924.762 141 909.83 141 905C141 875.031 147.216 855.551 180 849.464M834 949C832.833 958.078 824.896 989.524 829.259 996.558C841.097 1015.65 881.012 1003.66 886.151 985C891.751 964.67 879.281 949.289 861 941.984C854.802 939.507 844.074 939.505 839.94 933.756C825.707 913.967 854.999 871.737 814 871.022C809.246 870.939 804.432 871.38 800 873.225C782.013 880.714 765.518 918.056 778.803 934.903C788.858 947.654 818.924 951.668 834 949M507 946C510.598 929.267 512.634 910.122 512.981 893C513.075 888.375 514.786 878.484 511.178 874.94C503.813 867.706 481.887 877.969 473 877.999C470.596 878.008 462.003 877.021 462.003 881.074C462.003 884.894 469.894 883.108 472 883.04C477.755 882.854 503.533 876.057 506.1 881.502C509.645 889.018 504.881 910.927 502.992 919C494.456 955.475 490.022 1035.18 550.96 1020.34C585.237 1011.99 572.869 968.144 554.981 952.196C540.923 939.662 523.654 945.683 507 946M809 876.364C836.555 872.373 830.903 904.109 831.003 922C831.041 928.893 836.943 942.657 826.97 944.471C815.323 946.59 789.007 941.279 783.111 929.957C774.376 913.182 790.511 879.042 809 876.364M1952 963C1939.51 958.525 1927.32 956.423 1914 955.217C1912.2 955.055 1898.14 953.835 1902.33 959.031C1912.56 971.724 1937.24 958.562 1948.18 969.105C1953.4 974.14 1949.99 994.057 1950 1001C1950.01 1006.36 1954.73 1015.58 1951 1019C1955.15 1026.58 1965.53 1023.84 1973 1024.02C1987.85 1024.37 2002.53 1032.1 2017 1035C2015.7 1021.39 1974.83 1016.7 1963 1015C1974.4 1002.3 1955.83 1007.75 1955.91 999.871C1956.18 975.07 1952.42 946.363 1957.76 922C1959.46 914.228 1961.21 902.089 1955.39 895.632C1947.14 886.475 1926.17 889.665 1915 890.04C1912.19 890.135 1902.08 889.823 1902.22 894.176C1902.64 906.758 1947.03 890.531 1952.18 899.406C1954.39 903.218 1951.45 912.689 1951.2 917C1950.35 931.299 1947.24 949.298 1952 963M137 901C136.503 903.598 136.141 904.474 134 906L135 901L137 901M1586 1007C1590.75 983.887 1585.7 956.911 1581.92 934C1581.18 929.509 1575.98 912.07 1579.6 909.26C1587.42 903.177 1608.6 908.906 1610.51 919.155C1612.98 932.475 1602.7 949.527 1601.2 963C1600.89 965.797 1597.53 986.473 1605.53 981.633C1610.3 978.75 1608.06 964.108 1609.26 959C1615.5 932.489 1628.36 904.014 1589 904C1585.06 903.999 1575.65 901.187 1572.48 903.319C1566.72 907.197 1573.32 921.942 1574.36 927C1578.42 946.703 1580 964.86 1580 985C1580 992.919 1578.24 1002.36 1586 1007M1217 1029C1198.84 1028.19 1180.69 1026.86 1163 1023C1166.48 1037.31 1196.92 1031.32 1208 1033.08C1211.32 1033.61 1222.08 1036.11 1224.08 1032.18C1226.3 1027.8 1221.78 1011.97 1222.08 1006C1223.33 981.21 1229.09 943.713 1221.2 920.011C1220.57 918.141 1216.06 911.057 1213.66 914.892C1210.99 919.13 1215 937.289 1215 943C1215 969.696 1209.26 1003.67 1217 1029M134 928L134 923C137.844 924.277 137.844 926.723 134 928M842.744 943.862C847.905 941.116 857.666 946.176 862.319 948.341C883.006 957.968 885.137 986.027 863.992 997.126C837.142 1011.22 839.11 983.775 838.842 967C838.762 961.991 837.429 946.69 842.744 943.862M526.32 949.538C564.501 941.221 580.545 1006.81 545 1014.43C515.798 1020.7 507 998.024 507 975C507 970.193 504.673 956.852 508.26 953.26C511.084 950.43 522.206 950.435 526.32 949.538M1633 1004.57C1607.02 1009.31 1566.92 1001.39 1544.18 1016.42C1534.33 1022.93 1528.42 1042.42 1523.13 1052.78C1521.99 1055.02 1518.57 1064.36 1524.12 1064.36C1531.93 1064.36 1540.16 1030.16 1547.35 1024.92C1554.2 1019.92 1564.95 1019.7 1573 1018.36C1594.23 1014.84 1624.56 1008.33 1645.87 1012.92C1655.57 1015.01 1660.54 1046.48 1663.33 1055C1664.24 1057.77 1665.8 1068 1669.74 1068C1673.93 1068 1667.16 1049.62 1666.58 1047C1662.38 1028.19 1656.5 1000.29 1633 1004.57M1960 1012C1958.25 1012.64 1956.87 1012.86 1955 1013C1956.75 1012.36 1958.13 1012.14 1960 1012M1573 1267C1574.11 1278.08 1565.98 1283.28 1561.59 1292.32C1550.28 1315.56 1538.37 1338.07 1527.49 1362.01C1524.45 1368.69 1514 1383.42 1515.66 1390.65C1518.51 1403.08 1530.62 1383.45 1531.82 1380C1539.07 1359.07 1548.39 1334.88 1558.66 1315.08C1564.88 1303.08 1575.09 1292.02 1579 1279C1588.43 1290.63 1604.09 1332.02 1622.76 1329.61C1629.28 1328.77 1628.93 1311.12 1631.04 1306C1641.38 1280.93 1650.11 1256.93 1663.88 1232.98C1667.62 1226.48 1690.23 1189.77 1682.83 1185.87C1671.17 1179.71 1666.75 1205.14 1662.74 1212C1648.06 1237.11 1634.27 1261.75 1623.87 1289C1622.08 1293.69 1618.56 1315.55 1614.29 1317.24C1610.68 1318.67 1604.75 1306.39 1603.26 1304C1595.24 1291.15 1588.24 1272.16 1573 1267M1994 1233C1995.64 1232.46 1995.45 1232.64 1996 1231C1994.36 1231.55 1994.55 1231.36 1994 1233M2053 1243C2032.62 1252.59 2003.19 1248.43 1981 1247.98C1978.54 1247.93 1958.26 1244.96 1959.32 1249.92C1960.22 1254.12 1977.51 1254.75 1981 1254.92C1999.93 1255.88 2020.09 1256.19 2039 1254.86C2046.94 1254.31 2057.32 1253.32 2053 1243M1198 1249C1197.99 1280.09 1179.9 1314.79 1164.26 1341C1158.85 1350.06 1141.96 1373.63 1145.94 1384.75C1150.03 1396.16 1166.69 1346.31 1171.68 1344.76C1175.63 1343.53 1182.06 1351.56 1185 1353.63C1193.33 1359.5 1208.51 1364.72 1217.98 1358.85C1253.95 1336.58 1235.8 1259.25 1198 1249M801 1298C788.313 1289.18 791.689 1265.92 775 1259C778.147 1281.57 796.126 1299.46 803.879 1320C807.366 1329.24 803.219 1341.99 814 1347C813.763 1341 811.539 1335.82 810.464 1330C808.117 1317.29 821.056 1313.16 830.992 1318.68C841.38 1324.45 842.475 1333.7 844.338 1344C845.109 1348.26 847.042 1352.17 851 1354C850.931 1336.67 844.343 1317.62 828 1309.08C822.723 1306.33 809.594 1311.2 806.822 1305.68C801.51 1295.09 813.691 1264.53 801.478 1257.32C800.06 1256.49 801 1292.71 801 1298M1203 1258C1232.6 1271.37 1237.66 1327.03 1214.95 1347.74C1203.77 1357.93 1180.64 1353.47 1177.16 1336.68C1175.96 1330.9 1184.56 1320.11 1187.16 1315C1193.97 1301.6 1208.13 1272.45 1203 1258M505 1358C483.206 1340.48 475.247 1295.37 444 1289C446.657 1298.77 458.74 1305.37 465.073 1313C481.278 1332.52 491.987 1365.65 516 1377C515.415 1351.57 518.208 1322.13 514.705 1297C514.007 1291.99 515.614 1272.61 507.479 1273.83C501.188 1274.77 506.745 1290.49 506.896 1294C507.788 1314.67 506.752 1337.39 505 1358M61 1293C77.4128 1306.66 85.4155 1333.88 96.3596 1352C100.022 1358.06 101.537 1371.12 109.857 1372.33C115.421 1373.13 111.052 1354.17 111.185 1350C111.807 1330.4 117.23 1297.56 112.421 1279.17C108.237 1263.16 101.001 1291.46 101 1296C100.998 1302.38 100.976 1308.65 100.32 1315C99.3632 1324.28 100.964 1333.71 101 1343C86.4335 1331.56 79.2346 1303.94 66.4569 1289C63.2614 1285.26 58.7593 1275.42 53.1348 1275.29C48.1314 1275.18 50.9005 1295.83 51.0404 1300C51.5517 1315.23 54.0182 1330.77 53.709 1346C53.5295 1354.84 48.5754 1365.08 51.6854 1373.87C58.4586 1393.03 61 1354.05 61 1350C61 1342.73 62.14 1335.2 61.7423 1328C61.1171 1316.68 59.4076 1304.25 61 1293M1962.11 1275.94C1958.16 1276.87 1956.77 1281.3 1961.3 1282.58C1977.7 1287.2 1998.9 1284.42 2016 1286.05C2020.09 1286.43 2030.62 1290.71 2034.08 1287.83C2040.69 1282.31 2021.29 1279.37 2018.92 1278.98C2003.26 1276.44 1977.56 1272.29 1962.11 1275.94M431 1286C435.359 1303.04 432.624 1321.56 436.284 1338.86C438 1346.97 444.011 1349.34 444.001 1359C443.997 1362.4 444.24 1385.14 453.185 1379.72C457.501 1377.1 453.027 1361.4 453.003 1357C452.916 1341.11 451.586 1288.67 431 1286M444 1316L445 1321C441.919 1320.14 441.478 1319.09 442 1316L444 1316M550 1318L549 1319C550.453 1323.1 552.034 1325.15 556 1327C526.404 1334.56 576.373 1338.29 577.919 1328.74C578.452 1325.45 554.046 1319.45 550 1318M1526 1374L1526 1376L1523 1376L1523 1374L1526 1374M1608 1600C1605.19 1595.93 1600.62 1594.23 1598 1590C1594.41 1595.6 1574.71 1606.62 1571.58 1594.85C1567.47 1579.42 1572 1553.49 1572 1537C1572 1534.25 1572.34 1513.94 1564.88 1518.67C1562.57 1520.14 1564.15 1534 1564.21 1537C1564.5 1551.06 1567.17 1564.83 1565.68 1579C1565.02 1585.31 1562.14 1594.87 1566.18 1600.53C1571.93 1608.59 1591.41 1598 1592.85 1609.04C1594.81 1624.05 1591.79 1639.86 1593.15 1655C1593.46 1658.36 1594.19 1668.79 1598.93 1668.89C1603.96 1669 1602.96 1655.31 1602.99 1652C1603.14 1638.92 1595.94 1607.89 1608 1600M1920 1542.62C1895.57 1548.26 1880.9 1589.95 1899.13 1608.46C1905.12 1614.53 1920.66 1610.32 1923.59 1614.73C1926.73 1619.46 1920.72 1640.15 1921.14 1647C1921.86 1658.72 1921.37 1670.29 1921.66 1682C1921.7 1683.66 1921.31 1693.18 1924.78 1691.89C1928.97 1690.35 1926.89 1677.53 1927.14 1674C1928.49 1654.59 1924.47 1634.99 1930.38 1616.07C1932.67 1608.77 1949.92 1603.53 1957.02 1602.38C1959.24 1602.02 1968 1603.12 1968 1599.56C1968 1585.94 1937.85 1605.4 1934.2 1601.8C1931.56 1599.19 1936.36 1589.14 1937.06 1586C1940.19 1571.83 1945.76 1536.68 1920 1542.62M687.368 1545.54C679.662 1548.64 672.793 1570.86 668.524 1578C650.082 1608.84 628.853 1637.91 610.782 1669C608.6 1672.75 584.668 1706.81 593.884 1704.81C602.864 1702.86 613.126 1677.43 617.416 1670.08C635.713 1638.72 657.366 1608.76 676.497 1577.92C678.644 1574.46 695.93 1542.1 687.368 1545.54M1927.97 1547.63C1939.62 1547.97 1927.58 1562.05 1929.16 1566.5C1936.44 1586.95 1931.48 1609.51 1906.94 1607.85C1896.46 1607.14 1895.96 1595.01 1896 1587C1896.07 1572.58 1911.28 1547.16 1927.97 1547.63M533 1555C531.92 1569.7 519.938 1581.55 511.932 1593C496.893 1614.5 483.223 1637.02 468.865 1659C466.094 1663.24 445.721 1690.31 453.059 1692.92C459.551 1695.22 471.981 1668.73 475.112 1664C493.194 1636.69 510.434 1608.83 530.034 1582.56C535.318 1575.48 545.001 1559.42 533 1555M603.689 1572.32C598.253 1575.67 595.911 1585.04 592.215 1590C582.146 1603.52 570.143 1615.56 559.906 1629C558.059 1631.42 551.62 1644.78 560.691 1641.85C565.896 1640.17 569.234 1629.15 572.458 1625C584.204 1609.88 603.064 1595.42 609.547 1577.07C610.829 1573.44 607.083 1570.23 603.689 1572.32M612 1702C621.525 1710.18 633.444 1683.34 638.447 1676C655.584 1650.85 672.698 1624.93 691.213 1601C694.12 1597.24 710.444 1578.67 703.729 1575.54C699.902 1573.76 695.663 1581.54 694.218 1584.04C687.126 1596.29 680.05 1608.83 671.314 1620C662.839 1630.84 654.692 1642.05 646.412 1653.04C634.47 1668.89 625.171 1687.12 612 1702M559.083 1578.37C549.937 1582.41 544.448 1600.16 538.784 1608C520.755 1632.97 502.839 1660.61 480.578 1681.03C477.607 1683.76 473.327 1696.77 481.022 1696.13C489.457 1695.44 497.482 1676.21 502.041 1669.92C518.511 1647.19 536.266 1625.47 551.637 1602C553.4 1599.31 572.958 1572.24 559.083 1578.37M944 1577C956.625 1604.43 954.878 1636.45 964.139 1665C967.101 1674.13 968.302 1690.25 979 1692C976.186 1675.64 968.655 1659.9 964.305 1643.96C960.623 1630.46 961.336 1615.94 957.538 1602.32C955.116 1593.63 955.182 1577.8 944 1577M160.383 1581.08C155.989 1581.75 147.905 1602.76 145.295 1607C130.092 1631.69 115.056 1658.11 97.3358 1681C95.3822 1683.52 83.695 1705 91.1563 1705C96.4252 1705 103.706 1685.23 106.584 1681C123.78 1655.74 138.354 1628.42 156.265 1603.68C158.213 1600.99 169.872 1579.63 160.383 1581.08M624.546 1580.41C609.915 1587.6 591.697 1618.11 580.851 1631.2C578.88 1633.58 566.851 1647.83 577.949 1646.03C584.866 1644.91 589.014 1633.2 592.671 1628.11C603.163 1613.51 620.632 1603.28 629.127 1587C630.777 1583.84 628.929 1578.25 624.546 1580.41M1243 1626C1250.26 1622.46 1259.65 1626.02 1266.78 1620.56C1305.8 1590.64 1221.4 1559.08 1220.03 1594C1219.34 1611.57 1238.15 1612.73 1243 1626M940 1682C945.05 1658.79 930.604 1626.64 928.095 1603C927.767 1599.91 924.957 1578.62 919.475 1581.54C915.06 1583.9 920.991 1600.94 921.544 1605C923.975 1622.86 925.899 1671.09 940 1682M855.822 1587.46C850.899 1590.42 856.406 1606.55 857.184 1611C861.095 1633.37 859.754 1658.32 860.008 1681C860.049 1684.68 860.04 1704.78 867.44 1702.24C871.086 1700.99 866.001 1680.81 866 1677C865.992 1654.37 866.094 1630.44 863.174 1608C862.67 1604.13 864.327 1582.35 855.822 1587.46M1241 1588.66C1246.41 1588.5 1256.39 1587.82 1260.18 1592.46C1266.15 1599.78 1259.24 1616.13 1250 1616.8C1235.94 1617.82 1219.57 1589.29 1241 1588.66M198.376 1591.54C190.547 1594.49 182.723 1609.6 177.677 1616C160.063 1638.33 142.916 1660.88 126.344 1684C124.499 1686.57 100.335 1714.89 112.695 1713.72C119.019 1713.12 129.94 1691.09 133.787 1686C153.038 1660.55 170.854 1633.97 192.981 1610.86C194.723 1609.05 209.892 1587.21 198.376 1591.54M827.833 1592.5C825.231 1593.91 830.499 1610.86 830.823 1614C832.954 1634.6 833.539 1655.42 835.68 1676C835.966 1678.75 834.46 1696.58 839.646 1694.89C844.453 1693.33 841.702 1678.67 841.32 1675C839.204 1654.66 841.202 1633.69 836.387 1614C835.681 1611.11 834.18 1589.07 827.833 1592.5M665 1632.33C665.773 1632.33 665.16 1632.83 664.667 1632.67L665 1632.33M883.106 1636.39C878.944 1640.52 907.058 1650.48 911.592 1644.76C915.506 1639.82 886.37 1633.14 883.106 1636.39M865.501 1894.97C860.33 1897.63 865.5 1911.62 865.992 1916C868.192 1935.58 864.18 1957.14 862.988 1976.89C862.644 1982.6 837.175 1989.05 831.244 1994.33C817.288 2006.77 820 2041.55 820 2059C820 2064.1 817.784 2076.63 823.258 2079.59C829.247 2082.83 827.141 2056.64 827.481 2053C829.23 2034.26 824.846 1983.27 857.852 1986.93C863.188 1987.52 862.438 1997.12 862.783 2001C864.083 2015.64 863.547 2030.33 864.04 2045C864.167 2048.75 864.594 2062.57 871.535 2060.03C876.442 2058.24 872.083 2027.71 871.976 2022C871.348 1988.48 875.081 1958.55 874.999 1924C874.987 1918.97 875.937 1889.6 865.501 1894.97M1649.82 1935.17C1640.41 1940.16 1629.16 1960.04 1622.31 1968.68C1601.14 1995.35 1576.24 2019.7 1557.06 2048C1553.66 2053.02 1526.51 2090.34 1537.73 2089.19C1547.68 2088.18 1562.42 2056.88 1567.9 2049C1589.79 2017.5 1615.38 1986.7 1641.86 1959.04C1646.84 1953.84 1654.64 1947.97 1657.19 1941.01C1658.81 1936.61 1653.78 1933.07 1649.82 1935.17M1977 2066C1976.06 2078.38 1968.06 2077 1957 2077C1965.93 2051.99 1963.41 2009.29 1960.68 1983C1959.51 1971.74 1961.02 1954.44 1944 1956C1963.15 1978.54 1955.57 2044.3 1950.71 2072.97C1949.66 2079.2 1931.19 2086.92 1925.54 2084.13C1921.19 2081.98 1924.11 2061.7 1923.96 2057C1923.11 2029.66 1926.67 2001.76 1923.33 1974C1922.85 1970.02 1920.31 1940.33 1912.74 1943.97C1907.99 1946.25 1911 1971.93 1911 1977C1911 2001.15 1916 2024.86 1916 2049C1916 2059.69 1912.49 2077.98 1917.18 2087.72C1922.44 2098.61 1944.49 2079.13 1949.18 2087.52C1954.46 2096.98 1951.09 2122.69 1952.03 2134C1952.58 2140.63 1946.61 2147.89 1956.92 2149.94C1964.86 2151.53 1960.2 2138.93 1960.04 2135C1959.61 2124.86 1952.06 2092.54 1958.94 2084.8C1964.98 2078.01 1981.3 2085.4 1986.9 2078.75C1990.12 2074.92 1979.34 2067.96 1977 2066M509 2077C503.276 2077 497.699 2077.71 492 2077.97C486.858 2078.2 460.744 2084.51 477.011 2085.42C494.281 2086.39 512.461 2080.17 530 2082.34C532.782 2082.68 549.357 2087.32 549.357 2082.08C549.357 2074.08 520.088 2079.88 516.26 2073.72C511.604 2066.22 516.543 2053.83 517.533 2046C520.034 2026.23 516.814 2005.72 519.441 1985.99C520.231 1980.07 527.584 1959.52 518.922 1957.18C513.065 1955.59 513.006 1979.06 512.633 1984C511.251 2002.31 512.346 2020.69 510.856 2039C509.765 2052.41 504.797 2063.42 509 2077M116 2048C132.343 2042.58 150.399 2051.72 166.956 2044.72C177.093 2040.43 175.768 2026.71 173.562 2018C168.908 1999.62 162.841 1980.54 141 1976.88C134.639 1975.82 115.371 1974.27 113.741 1983.16C112.849 1988.02 117.362 1995.17 122.715 1994.92C124.479 1994.83 122.027 1982.04 136 1982.08C155.705 1982.14 181.079 2016.01 167.178 2034.68C152.24 2054.73 121.504 2022.55 116 2048M1192 2072C1187.91 2065.26 1179.31 2062.42 1174.24 2056C1162.28 2040.84 1148.96 1995.56 1175.08 1984.82C1179.56 1982.98 1192.57 1982.15 1195.06 1987.26C1201.18 1999.83 1196.64 2021.42 1196.64 2035C1196.64 2052.53 1201.63 2069.6 1201.98 2087C1202.09 2092.41 1198.64 2123.71 1209.72 2119.91C1221.39 2115.91 1207.4 2086.72 1210.75 2080.28C1213.55 2074.92 1225.79 2075.61 1231 2073.29C1246.18 2066.54 1260.68 2054.83 1264.58 2037.96C1273.37 1999.97 1232.7 1998.77 1210.11 1989.41C1197.71 1984.28 1184.14 1969.79 1167.37 1980.58C1138.51 1999.15 1154.26 2077.17 1192 2072M603 1992L602 1996C604.698 1995.42 604.789 1994.74 605 1992L603 1992M228 1994L229 1995L228 1994M1207 1997C1210.33 2000.17 1212.17 2004.4 1216 2007C1213.22 1982.54 1257.76 2007.69 1255.9 2032C1254.77 2046.79 1240.58 2061.43 1228 2067.91C1223.77 2070.09 1213.14 2073.63 1209.32 2068.96C1205.91 2064.8 1207.43 2054.78 1207.02 2049.68C1205.65 2032.59 1204.9 2014.23 1207 1997M251 2005C247.34 1993.86 241.807 1999.56 251 2005M1641 2026C1643.66 2033.73 1653.39 2039.62 1659.96 2043.92C1676.67 2054.86 1696.55 2085.38 1716 2087C1708.89 2067.38 1678.84 2051.88 1663 2039.65C1655.84 2034.12 1650.24 2027.66 1641 2026z"/>
</svg>
