<?xml version="1.0" standalone="yes"?>
<svg xmlns="http://www.w3.org/2000/svg" width="2200" height="2200">
<path style="fill:#0d0d0d; stroke:none;" d="M1954 113C1953.87 126.679 1947.51 139.468 1946.22 153C1945.23 163.43 1951.42 170.361 1951.41 179.021C1951.39 193.163 1944.31 206.425 1942 220C1962.49 213.019 1958.98 156.914 1959 139C1959.01 130.66 1963.75 116.563 1954 113M1217.8 116.304C1212.28 120.307 1212.88 133.974 1211.92 140C1208.16 163.537 1205.26 187.173 1203.98 211C1203.79 214.551 1202.69 240.508 1213.21 233.636C1214.18 232.998 1223.81 225.616 1224.04 225.181C1227.22 218.951 1225.86 198.631 1226.02 191C1226.43 171.45 1231.77 152.385 1232.91 133C1233.25 127.321 1226.39 110.07 1217.8 116.304M109 117C105.406 131.203 109.996 145.82 108.856 160C107.672 174.732 100.919 192.106 105.604 206.949C108.067 214.75 117.341 210.294 120.399 216.284C127.026 229.264 120.201 257.901 119.139 272C118.109 285.665 117.261 300.351 117.107 314C117.068 317.506 118.811 325 123.896 323.653C132.095 321.48 127.603 290.893 128.32 284C130.422 263.794 129.202 243.285 130.03 223.003C130.217 218.42 136.366 214.327 135.93 211.062C134.779 202.428 131 195.19 131 185C131 177.405 135.069 153.096 129.245 147.892C123.522 142.777 123.017 156.468 123.003 159C122.93 172.006 122.91 185.001 123.009 198C123.036 201.481 122.648 210.756 116.492 206.711C111.385 203.354 114.946 187.173 115.758 182C118.33 165.621 125.992 127.103 109 117M1564 143C1562.7 145.975 1562.48 147.796 1563 151C1548.85 147.584 1562.51 165.954 1551 159C1551.17 174.133 1542.19 205.679 1553 215L1547 214C1547.03 217.537 1550.98 223.957 1554.82 219.431C1558.91 214.602 1556.41 204.805 1556.91 199C1558.14 184.79 1570.96 156.097 1564 143M201 158L201 161L204 161L204 158L201 158M908 171C903.226 150.418 890.482 172.065 882.682 173.477C879.458 174.061 870.174 162.246 867.969 167.601C866.615 170.892 870.822 174.632 872.445 177C874.096 179.408 875.012 184.039 877.677 185.501C886.82 190.514 893.092 167.673 900.861 171.96C910.482 177.269 880.042 191.467 887.571 199.138C905.146 217.046 911.79 186.19 916.822 179.385C919.938 175.17 927.225 175.919 929.592 171.671C935.125 161.741 909.759 170.405 908 171M1953 162L1953 168L1951 168C1951.27 165.515 1951.65 164.088 1953 162M783 228L782 229C787.087 242.012 798.629 230.27 806.178 236.958C811.26 241.459 808.097 273.722 807.605 281C807.384 284.268 808.938 293.227 814.366 289.67C817.838 287.395 816.012 279.491 816.001 276C815.966 265.048 809.513 220.627 833.499 229.934C837.926 231.652 835.974 243.262 836.003 246.997C836.096 258.708 836.115 299.62 850 298C845.595 281.079 845 261.495 845 244C845 237.337 843.452 228.683 851.051 225.766C869.599 218.646 889.098 221.756 906.32 229.721C909.063 230.99 918.427 232.672 919.894 228.661C921.179 225.15 908.343 223.996 906.217 222.918C891.823 215.617 879.807 215.941 864 217.134C859.605 217.465 849.345 220.776 846.26 216.48C841.849 210.338 845.878 197.014 845.842 190C845.826 186.962 840.583 156.427 836.527 168.368C831.878 182.057 851.879 234.134 818.324 226.322C810.562 224.515 816.158 186.707 815.401 180C815.048 176.876 814.283 165.378 808.413 167.951C803.766 169.987 806.976 182.063 806.997 186C807.119 208.2 814.065 234.666 783 228M477 180C476.51 177.625 471.882 163.071 467.336 168.289C464.057 172.053 472.439 194.419 480.008 190.127C501.574 177.899 498.747 159.023 477 180M409 221C408.774 229.781 415.045 236.161 414.407 244.01C413.917 250.037 413.015 255.94 413.001 262C412.987 267.64 410.322 276.776 411.976 281.93C413.153 285.594 419.952 289.012 421.362 283.715C425.856 266.842 415.892 243.552 422.039 227.365C423.557 223.367 430.569 223.349 433.842 224.822C439.149 227.21 436.083 234.549 436.01 239C435.796 251.986 436.567 265.711 441 278C432.133 279.217 440.497 285.646 445.615 283.168C450.695 280.709 446.624 271.923 445.787 268C443.957 259.425 440.006 233.179 447.499 226.822C451.666 223.287 485.645 228.259 484.677 223.199C482.459 211.61 451.353 224.88 446.698 218.719C442.492 213.151 451.621 186.041 441.824 184.786C435.844 184.019 440.768 212.091 437.616 216.48C434.979 220.153 415.992 219.786 411 220L415 211C420.603 226.513 427.206 182.702 418.941 175.969C415.781 173.395 412.373 211.711 406.219 215.515C403.191 217.387 387.003 211.673 387.003 217.926C387.003 224.471 405.387 221.64 409 221M899.919 190.636C902.4 190.636 902.603 194.999 899.989 194.999C897.395 194.999 897.382 190.636 899.919 190.636M1932 254.372C1917.68 260.023 1923.59 281.284 1936.96 276.167C1949.14 271.506 1947.53 248.247 1932 254.372M297 256C297.773 257.175 297.825 257.227 299 258C298.455 256.365 298.635 256.545 297 256M1931 259C1944.27 262.399 1931.48 273.135 1931 259M159 578C174.384 577.977 189.466 574 205 574C203.016 590.339 210.097 606.655 208.441 623C208.086 626.501 208.205 634.918 213.863 634.214C218.722 633.61 216.377 623.129 216.239 620C215.569 604.81 215.331 588.885 212 574C225.499 572.632 236.466 574.203 250 575.136C251.996 575.274 263.966 576.371 259.108 570.994C250.745 561.735 223.61 573.529 212.501 565.741C203.869 559.689 219.685 527.712 205.845 525.888C194.327 524.371 206.363 562.386 201.355 566.876C197.215 570.588 188.097 568.975 183 569.003C177.027 569.035 163.814 573.551 158.734 570.52C148.377 564.341 147.985 544.161 135.783 536.523C120.116 526.716 81.4467 529.524 79.4862 551C77.0453 577.737 88.9601 605.397 113.078 618.511C144.295 635.485 165.448 608.051 159 578M499 638C493.114 608.83 498.757 578.612 490 550C502.321 551.147 514.651 553.167 527 553.93C541.077 554.799 555.025 556.564 569 558.42C572.226 558.848 582.271 560.551 580.326 554.214C578.695 548.902 563.577 550.646 559 550.215C537.071 548.147 514.681 546.936 493.003 543.794C482.823 542.318 480.694 528.263 469.085 528.287C460.487 528.304 451.397 541.487 449.899 549C447.516 560.952 459.415 582.847 471 586.237C474.5 587.261 488.234 583.917 489.146 585.565C496.702 599.229 478.009 629.555 499 638M468.007 534.824C484.469 529.236 498.098 575.607 480.914 581.151C456.876 588.907 442.584 543.455 468.007 534.824M120 611C106.134 596.36 93.5476 596.58 87.9451 573C85.9687 564.682 84.7017 548.54 90.2069 541.365C95.6462 534.277 125.927 535.949 132.99 540.281C149.406 550.352 164.036 597.204 145.719 611.272C131.324 622.327 112.979 610.53 120 611M2007 647C2008.72 648.608 2009.77 649.243 2012 650C2010.47 647.859 2009.6 647.497 2007 647M109 1661C120.033 1659.86 119.951 1642.56 119.997 1634C120.068 1621.16 115.802 1600.93 119.141 1589C123.822 1572.28 134.141 1556.03 138.701 1538C139.791 1533.69 143.349 1521.71 141.157 1517.75C138.102 1512.23 135.242 1526.68 135.094 1528C134.05 1537.34 127.905 1575.2 117.773 1578.36C107.416 1581.59 105.507 1546.25 104.773 1541C104.46 1538.76 105.16 1529.58 100.903 1530.32C96.7787 1531.04 101.155 1558.74 101.887 1563C103.761 1573.91 110.546 1583.52 113.645 1594C118.839 1611.56 116.483 1644.48 109 1661M511 1638C511.471 1630.11 509.27 1621.62 510.708 1614C511.575 1609.41 519.971 1584.1 515.137 1581.54C510.516 1579.1 502.582 1591.11 500.382 1594C487.615 1610.77 473.688 1626.52 460.592 1643C458.591 1645.52 443.348 1661.47 447.601 1663.32C452.662 1665.51 460.602 1650.82 463.339 1647.76C478.83 1630.41 492.331 1606.87 510 1592C508.947 1599.71 496.987 1642.68 511.089 1644.03C520.477 1644.93 524.434 1627.24 527.514 1621.22C540.638 1595.56 553.768 1570.64 571.562 1548C574 1544.9 595.408 1520.67 593.358 1520.32C587.304 1519.29 571.727 1539.96 568.008 1544.32C555.235 1559.3 544.314 1574.81 536.452 1593C530.69 1606.33 523.415 1629.61 511 1638M1991 1570C2007.85 1557.4 2028.38 1584.51 2020.54 1603C2017.35 1610.54 2013.01 1616.04 2007.55 1622.04C1985.11 1646.75 1952.13 1643.03 1947.44 1606C1945.67 1592.03 1952.62 1576.38 1960.02 1565C1965.89 1555.98 1976.27 1548.06 1986 1543.49C1997.33 1538.18 2001.79 1546.82 2012 1549C2004.9 1530.41 1984.79 1538.01 1973 1545.89C1954.11 1558.52 1938.81 1586.67 1943.59 1610C1955.15 1666.33 2018.53 1641.48 2027.11 1597C2029.16 1586.41 2016.42 1566.9 2007.61 1561.67C1999.29 1556.73 1988.26 1558.46 1991 1570M1634.48 1550.76C1626 1553.16 1619.43 1574.9 1615.62 1582C1604.31 1603.05 1583.96 1613.62 1569.21 1628.37C1568.82 1628.75 1564.7 1647.66 1565.07 1648.69C1567.37 1654.97 1573.22 1641.76 1578.02 1643.68C1586.48 1647.07 1616.39 1671.76 1614.92 1682C1614.07 1687.92 1601.07 1697.56 1596.86 1702.02C1581.13 1718.71 1566.2 1735.72 1550 1752C1544.97 1757.06 1533.06 1766.23 1531.97 1773.72C1531.56 1776.5 1565.08 1782.03 1570 1783.18C1582.26 1786.06 1596.03 1779.52 1608.08 1778.31C1625.28 1776.57 1643.63 1776.04 1661 1776C1669.1 1775.98 1679.36 1778.87 1687 1775.63C1690.61 1774.11 1696.55 1769.97 1694.59 1765.32C1692.27 1759.79 1685.14 1756.87 1681.77 1751.96C1669.98 1734.78 1658.43 1715.52 1642.14 1701.76C1638.09 1698.34 1625.64 1688.3 1625.64 1682.8C1625.64 1677.79 1634.61 1672.94 1637.78 1669.78C1650.72 1656.92 1664.06 1643.54 1679 1632.94C1683.62 1629.67 1697.32 1624.61 1696.96 1617.9C1696.35 1606.84 1667.58 1589.07 1659.75 1580.44C1655.52 1575.77 1641.29 1548.83 1634.48 1550.76M1578 1633C1584.32 1631.49 1586.19 1623.88 1590.13 1619.12C1600.29 1606.84 1613.71 1596.7 1620.78 1582C1623.7 1575.94 1627.15 1560.35 1634.44 1557.76C1637.27 1556.75 1640.73 1564.09 1642.23 1565.78C1649.66 1574.18 1655.63 1583.62 1663.22 1592C1668.35 1597.65 1691.5 1609.32 1691.08 1616.92C1690.71 1623.38 1666.29 1637.95 1660.99 1642.67C1652.25 1650.47 1633.05 1675.45 1621.69 1677.03C1616.19 1677.79 1612.61 1669.58 1610.03 1666C1602.04 1654.92 1581.48 1646 1578 1633M180 1599C181.793 1593.59 174.919 1591.56 174.323 1595.46C173.559 1600.47 182.171 1601.73 183.058 1606.26C185.148 1616.91 175.756 1627.36 180.365 1637.98C187.023 1653.32 210.907 1643.05 215 1631C207.627 1634.63 200.021 1642.06 191.027 1640.45C178.323 1638.18 185.869 1613.1 190.358 1606.25C196.416 1597 209.331 1593.53 214.931 1582.99C217.721 1577.74 224.122 1562.56 215.794 1559.31C195.23 1551.28 193.963 1597.75 180 1599M847 1572C849.378 1554.29 874.984 1564.26 874.665 1581C874.456 1591.91 850.399 1608.89 845.392 1594.22C842.097 1584.57 863.982 1565.24 866.108 1566.54C853.773 1559 835.806 1588.62 842.255 1598.86C847.951 1607.9 868.526 1602.24 873.606 1594.81C881.97 1582.59 876.355 1574.69 875 1562C877.913 1562.69 891.198 1565.43 891.678 1568.42C892.474 1573.38 881.243 1580.44 880.204 1586.32C876.366 1608.05 896.716 1607.86 906.97 1595C910.757 1590.25 912.914 1584.47 917 1580C912.847 1611.21 914.491 1644.6 916.078 1676C916.59 1686.13 921.989 1706.54 915.74 1715.5C912.608 1719.99 897.152 1719.98 892 1719.98C874.888 1719.99 829 1724.85 822.253 1703.97C819.242 1694.66 824.241 1681.46 825.755 1672C829.492 1648.66 832.417 1625.41 835.721 1602C836.86 1593.93 846.991 1573.24 837 1569C831.607 1608.14 826.371 1649.54 816.875 1688C814.052 1699.44 809.892 1708.33 812.505 1716.25C813.382 1718.92 812.206 1725.68 815.596 1726.89C819.46 1728.28 819.098 1718.44 820.501 1716.65C824.851 1711.09 838.854 1724.81 844 1725.67C850.877 1726.82 857.186 1722.93 864 1723.18C880.986 1723.8 900.108 1728.49 916.757 1722.28C925.509 1719.02 922.381 1695.4 921.864 1688C919.87 1659.47 917.638 1628.45 919.078 1600C919.505 1591.57 925.379 1572.07 918.818 1565.16C911.073 1557.01 903.45 1561.75 894.68 1562.02C879.384 1562.48 858.209 1552.76 843.512 1563.38C838.974 1566.66 843.806 1570.63 847 1572M192 1597C193.577 1591.57 204.71 1557.56 214.175 1564.11C224.429 1571.2 197.873 1594.94 192 1597M593 1564.72C566.271 1570.75 525.835 1656.08 577 1645.55C598.393 1641.15 615.123 1617.42 612.635 1596C611.578 1586.89 604.201 1562.2 593 1564.72M901 1579C900.188 1572.68 907.161 1557.51 911.491 1569.46C914.263 1577.11 900.458 1604.56 891.305 1600.47C879.243 1595.08 885.752 1568.99 901 1579M593 1568C601.505 1568.61 597.188 1574.54 593 1568M222 1629C226.437 1632.39 232.047 1632.87 237 1635.32C241.697 1637.63 250.237 1645.13 255.721 1643.83C269.097 1640.68 265.657 1606.79 261.974 1598.09C258.985 1591.02 247.953 1589.63 248.255 1581.02C248.533 1573.12 256.084 1576.12 261 1577C257.4 1564.1 242.759 1571.48 243.025 1583C243.283 1594.2 277.093 1619.24 255.276 1634.99C249.06 1639.48 231.214 1625.86 222 1629M596 1600C599.392 1595.05 600.112 1588.85 601 1583C628.189 1595.42 590.976 1642.89 570 1641.66C539.993 1639.89 571.193 1588.01 581.593 1577.2C585.499 1573.14 593.771 1574.48 596.655 1579.52C599.463 1584.42 594.84 1594.07 596 1600M1161 1592C1148.18 1617.1 1151.35 1662.07 1149.06 1692C1148.49 1699.44 1143.89 1719.65 1153.07 1722.84C1162.94 1726.28 1178.34 1723.27 1189 1724.1C1208.76 1725.63 1223.84 1732.61 1245 1729.52C1249.16 1728.91 1278.32 1726.96 1277.46 1725.53C1274.86 1721.21 1260.33 1722.16 1256 1722.58C1238.14 1724.33 1216.51 1730.19 1200 1721C1220.67 1713.84 1243.63 1712.69 1265 1716.61C1274.59 1718.37 1297.1 1727.84 1306.18 1722.18C1312.61 1718.16 1304.8 1701.05 1303.42 1696C1297.38 1673.8 1301.73 1643.58 1304.33 1621C1304.81 1616.77 1311.04 1595.76 1307.22 1593.54C1303.68 1591.49 1296.24 1606.48 1294.55 1608.92C1286.05 1621.23 1266.12 1655.5 1250.24 1657.93C1245 1658.73 1243.78 1625.1 1231.95 1630.19C1222.82 1634.11 1210.1 1653.57 1208 1663C1177.35 1649.93 1183.02 1612.87 1161 1592M1163 1602C1170.51 1618.49 1176.14 1646.04 1190.01 1657.77C1193.03 1660.33 1203.59 1669.23 1207.77 1667.48C1217.28 1663.48 1221.29 1637.08 1232.71 1637C1243.93 1636.92 1239.26 1666.83 1249.53 1668.92C1251.97 1669.41 1259.1 1656.96 1261.02 1655.01C1273.73 1642.06 1286.69 1619.94 1301 1610C1297 1635.72 1293.99 1662.77 1296.14 1689C1296.65 1695.14 1306.22 1711.58 1300.74 1716.7C1298.07 1719.19 1287.41 1717.05 1284 1716.51C1268.51 1714.07 1254.03 1707.78 1238 1708.02C1215.26 1708.36 1195.91 1716.79 1173 1715.22C1167.74 1714.85 1161.66 1718.96 1156.5 1716.18C1150.58 1712.99 1154.8 1695.35 1155.44 1690C1157.65 1671.26 1159.78 1651.87 1159.99 1633C1160.1 1623.77 1157.92 1610.1 1163 1602M849.001 1608.86C832.916 1614.37 834.068 1655.19 849.008 1649.78C868.324 1642.79 873.275 1600.55 849.001 1608.86M850.932 1612.08C866.77 1609.06 863.823 1643.27 848.092 1645.05C837.014 1646.3 839.194 1614.33 850.932 1612.08M855 1618C854.014 1619.48 854 1619.2 854 1621C855.289 1619.56 855.401 1619.77 855 1618M668 1621C676.074 1632.37 679.198 1618.76 668 1621M1698 1633L1697 1627C1693.74 1629.38 1694.2 1631.75 1698 1633M212 1643C216.969 1646.57 222.108 1646.72 228 1646C224.744 1645 221.395 1645.12 218 1645C218.941 1640.9 214.86 1641.95 212 1643M260 1647L260 1650L262 1647L260 1647M1970 1647.96C1948.26 1655.8 1936.73 1688.56 1943.67 1709C1949.26 1725.45 1961.71 1740.66 1981 1733.92C1997.22 1728.25 2017.79 1688.88 2010.94 1672.03C2008.35 1665.66 2000.38 1661.66 1995.12 1657.78C1986.93 1651.74 1981.73 1643.74 1970 1647.96M1982 1657C1990.04 1657.42 1987.11 1666.28 1987 1672L1992 1660C2036.4 1680.72 1969.72 1769.88 1948.72 1710C1946.54 1703.77 1945.71 1697.59 1946.08 1691C1946.55 1682.66 1949.88 1674 1954.35 1667C1958.16 1661.04 1965.03 1652.88 1972 1650.69C1977.28 1649.03 1984.39 1650.46 1982 1657M876.997 1653.47C852.223 1656.43 842.758 1700.76 870 1697.76C884.509 1696.17 891.927 1683.19 887.738 1669C885.694 1662.08 886.339 1652.35 876.997 1653.47M873.971 1657.77C889.03 1656.12 887.61 1692.57 867.001 1693.85C850.813 1694.86 866.461 1685.33 866.482 1680.42C866.512 1673 853.844 1659.97 873.971 1657.77M1976 1661C1979.34 1660.65 1980.75 1660.17 1982 1657C1978.96 1657.68 1977.73 1658.41 1976 1661M1620.65 1687C1625.34 1687.91 1631.65 1697.66 1635 1701C1648.98 1714.91 1665.37 1731.51 1676.44 1747.65C1679.04 1751.44 1690.36 1765.84 1687.35 1769.31C1681.9 1775.59 1662.88 1769.44 1655 1770.6C1621.26 1775.56 1575.17 1784.49 1542.31 1773.36C1535.07 1770.9 1553.5 1755.33 1555.68 1752.96C1571.27 1736.06 1586.79 1719.02 1602.52 1702.22C1606.17 1698.32 1614.48 1685.81 1620.65 1687M1951 1817C1936.86 1803.75 1931.98 1770.17 1950.09 1756.92C1959.81 1749.8 1978.07 1753.66 1979 1767L1982 1767C1984.93 1755.58 1992.99 1781.34 1992.88 1786C1992.56 1799.26 1982.22 1807.34 1975 1817C1990.31 1815.93 1998.53 1794.39 1997.91 1781C1997.05 1762.25 1979.46 1747.6 1961 1748.07C1931.19 1748.82 1920.48 1816.81 1951 1817M1143 1756C1147.66 1758.01 1152.04 1757.09 1157 1757C1152.92 1754.51 1147.11 1753.25 1143 1756M509 2091C514.154 2070.44 547.192 2098.67 554.397 2085.16C556.625 2080.98 550.076 2064.2 549.288 2059C545.5 2033.98 546.108 2008.14 546.96 1983C547.264 1974.02 545.245 1960.11 555 1956C551.79 1938.38 545.65 1919.38 538.253 1903C537.26 1900.8 531.785 1886.65 529.266 1887.67C528.017 1888.18 521.105 1913.26 519.169 1916.94C513.922 1926.93 504.88 1938.19 501.904 1949C500.534 1953.98 504.237 1959.65 503.692 1965C501.182 1989.62 500.991 2014.25 501 2039C501.003 2048.73 505.885 2056.6 506.025 2066C506.09 2070.39 501.168 2075.19 501.907 2078.57C502.739 2082.36 505.497 2089.39 509 2091M533 1901C536.376 1910.18 543.866 1925.18 532 1930L535 1921C526.649 1924.09 524.631 1924.62 517 1930C520.895 1920.96 524.443 1906.56 533 1901M528 1918C535.786 1914.83 528.951 1908.2 528 1918M524 1934C528.806 1944.61 518.422 1950.94 509 1951C511.526 1944.83 519.545 1939.26 524 1934M535 1937C536.227 1939.01 536.991 1939.77 539 1941C535.91 1950.62 534.053 1952.93 524 1952C525.793 1946.37 529.694 1941.84 533 1937L535 1937M855 2151C865.955 2148.66 875.292 2139.09 886.68 2136.44C896.713 2134.11 908.938 2138.3 919 2139C907.944 2110.66 910.999 2073.56 914.438 2043C915.261 2035.69 913.009 2019.26 917.822 2013.59C931.108 1997.93 952.151 2012.24 966 2014.53C971.231 2015.4 978.308 2010.68 978.357 2005C978.453 1993.78 951.502 1980.76 944.043 1973.77C932.467 1962.94 914.159 1938.9 896 1939.14C889.242 1939.23 878.385 1953.37 873.438 1957.94C857.495 1972.67 840.429 1983.43 822 1994.71C816.54 1998.06 800.272 2006.01 797.544 2011.43C795.078 2016.32 805.663 2013.15 807 2012.62C817.566 2008.46 847.373 2000.49 854.178 2015.24C858.558 2024.74 855 2045.37 855 2056C855 2087.54 862.596 2119.96 855 2151M547 1943C547.726 1948.71 547.732 1951.66 542 1954C541.834 1949.18 542.875 1945.7 547 1943M864 2141C864.614 2108.67 861.631 2076.26 860.282 2044C859.929 2035.56 864.928 2017.58 858.958 2010.74C848.669 1998.94 829.435 2003.74 817 2004C830.408 1986.79 860.462 1977.03 877 1961.01C881.268 1956.88 890.334 1945.32 896.783 1945.76C913.491 1946.9 930.013 1968.66 941.021 1978.55C947.006 1983.93 972.432 1996.74 972.432 2005C972.432 2010.33 964.102 2009.11 961 2007.93C950.23 2003.81 917.341 1997.17 908.43 2010.55C907.443 2012.03 910.809 2024.34 910.103 2028C905.403 2052.38 906.153 2080.23 905.516 2104.98C905.357 2111.19 911.605 2125.72 906.721 2130.74C902.841 2134.72 890.925 2130.9 886 2131.48C878.246 2132.39 871.56 2138.94 864 2141M509.822 1953.98C515.463 1951.23 540.199 1956.86 542.156 1963.07C544.678 1971.07 541.319 1982.69 541.04 1991C540.429 2009.22 540.609 2027.91 542.823 2046C543.588 2052.25 549.816 2078.27 543.635 2080.98C539.036 2083 514.383 2081.03 511.958 2076.2C509.868 2072.03 511.985 2062.86 511.438 2058C508.987 2036.22 511.214 2013.05 510.078 1991C509.806 1985.73 505.464 1956.1 509.822 1953.98M1696 2015C1675.86 2017.85 1653.44 2016 1633 2016C1618.67 2016 1604.28 2015.51 1590 2016.78C1582.02 2017.49 1574 2017.07 1566 2017.78C1561.46 2018.19 1528.14 2018.92 1530.11 2025.45C1531.12 2028.81 1565.5 2022.69 1571 2022.22C1600.72 2019.64 1632.05 2021 1662 2021C1670.02 2021 1688.84 2017.17 1695.62 2020.52C1699.68 2022.53 1697.62 2029.38 1698 2033C1713.9 2023.3 1684.48 1989.7 1682 1975L1688 1979L1685 1967C1706.63 1976.43 1716.94 1995.86 1733.41 2010.72C1752.23 2027.71 1774.06 2038.5 1794 2053C1762.04 2053.66 1734.29 2098.5 1712 2118C1711.15 2109.01 1711.58 2073.77 1705.05 2068.3C1699.22 2063.41 1671.12 2068.04 1663 2068C1631.37 2067.82 1599.85 2064.26 1568.02 2065.14C1558.31 2065.41 1537.34 2071.75 1528.92 2067.28C1510.04 2057.26 1531.68 2023.13 1522 2011C1512.83 2025.03 1513.61 2054.65 1521 2069L1514 2069L1514 2072C1563.84 2072.49 1615.89 2069.25 1667 2073.78C1676.48 2074.62 1686.47 2071.29 1695.84 2073.06C1705.56 2074.9 1705.61 2106.49 1708.11 2115C1708.66 2116.87 1711.46 2128.58 1714.49 2127.24C1718.04 2125.67 1722.67 2114.34 1726.02 2111.08C1742.03 2095.52 1757.7 2076.99 1776 2064.15C1779.66 2061.57 1800.43 2056.81 1800.43 2053.86C1800.43 2045.63 1776.83 2041.18 1771.22 2036.38C1749.94 2018.13 1731.59 1994.17 1709 1977.86C1700.6 1971.79 1693.19 1962.47 1682 1964C1681.99 1962.77 1682.41 1954.39 1679.46 1955.76C1675.63 1957.53 1676.99 1967.7 1677 1971C1677.04 1990.01 1683.2 2001.64 1696 2015M1225 1959C1225.9 1962.79 1227.21 1964.1 1231 1965C1221.97 1979.5 1224.5 1995.78 1223.96 2012C1222.88 2044.16 1222.08 2075.21 1228 2107C1217.88 2106.06 1208.99 2108.36 1199 2109C1210.36 2099.83 1186.53 2109.31 1187.32 2113.75C1187.86 2116.75 1202.19 2128.21 1205.01 2130.96C1219.81 2145.39 1239.9 2154.15 1256.02 2167.27C1262.91 2172.89 1270.9 2182.14 1280 2183C1260.79 2153.08 1219.92 2146.94 1201 2118C1215.87 2119.33 1222.97 2112.12 1236 2119C1234.58 2080.6 1227.12 2045.29 1229.86 2006C1230.67 1994.47 1228.83 1981.27 1233.42 1970.28C1240.18 1954.08 1275.27 1961.42 1287 1965.33C1290.41 1966.47 1299.59 1965.57 1301.52 1968.64C1304.54 1973.45 1301 1989.03 1301 1995C1301 2020.24 1302.13 2046.84 1300.74 2072C1300.38 2078.6 1295.62 2100.07 1299.43 2105.11C1302.93 2109.72 1305.9 2077.66 1306.39 2074C1309.9 2048.02 1306 2017.48 1306 1991C1314.65 1990.57 1315.88 1978.98 1323 1975C1321.57 1985.75 1323 1996.2 1323 2007C1328.55 1996.37 1328.26 1976.85 1322 1967C1323.32 1966.57 1326.9 1965.09 1324.34 1963.25C1316.69 1957.75 1302.23 1963.21 1293.71 1961.94C1287.68 1961.04 1282.83 1956.18 1277 1955.58C1258.53 1953.67 1241.4 1961.59 1225 1959M2098 2069C2114.99 2060.57 2102.9 2039.05 2097.08 2027C2095.39 2023.5 2093.81 2015.06 2089.65 2013.73C2081.62 2011.16 2061.81 2016.23 2053 2017.52C2034.57 2020.21 2014.62 2019 1996 2019C1989.34 2019 1976.19 2021.61 1970.3 2018.52C1957.74 2011.94 1988.09 1962.07 1962 1959.32C1950.14 1958.07 1927.73 1989.27 1920 1997C1908.43 2008.57 1872.18 2034.24 1876.94 2054C1881.53 2073.09 1910.86 2084.81 1924 2097.7C1931.05 2104.62 1935 2124.21 1943.86 2127.46C1948.22 2129.05 1952.07 2119.07 1953.11 2116C1956.51 2105.96 1946.33 2083.08 1955.54 2074.82C1964.32 2066.95 1997.16 2069.55 2009 2068.32C2031.91 2065.94 2055.04 2064.71 2078 2062.32C2085.9 2061.5 2099.41 2058.28 2098 2069M1971 2023C1998.47 2023 2025.51 2023.32 2053 2021.92C2060.63 2021.53 2077.34 2016.05 2084.11 2020.82C2088.07 2023.61 2079.74 2028.01 2078 2029C2082.08 2029.67 2087.97 2026 2091.25 2027.52C2095.38 2029.44 2105.06 2054.85 2101.12 2057.53C2095.93 2061.06 2070.52 2058.54 2063 2059.22C2025.62 2062.6 1974.35 2076.27 1941 2060C1942.21 2070.17 1946.1 2069 1948.52 2075.51C1951.19 2082.72 1948.31 2096.26 1947.92 2104C1947.77 2107.07 1948.31 2118.46 1945.32 2120.03C1942.99 2121.26 1934.83 2103.63 1932.84 2101.14C1921.86 2087.4 1882.99 2070.44 1882.16 2052C1881.02 2026.54 1924.38 1998.72 1939.68 1981.98C1943.05 1978.3 1956.95 1961.16 1962.5 1963.54C1978.32 1970.34 1959.03 2013.29 1961.43 2024.94C1962.54 2030.29 1972.88 2031.68 1971 2023M1306 1989C1306.53 1984.98 1306.97 1981.06 1307 1977C1307.03 1972.74 1313.92 1956.92 1318.27 1967.81C1320.04 1972.26 1310.01 1987.23 1306 1989M103 1983.8C78.9076 1991.32 70.3286 2030.03 77.4815 2051C82.4341 2065.52 91.5094 2079 109 2073.5C127.571 2067.66 150.847 2038.54 147.676 2018C145.556 2004.27 117.523 1979.26 103 1983.8M234 1983.66C209.842 1987.92 194.182 2003.5 187.321 2028C180.599 2052 193.695 2072.58 220 2067.96C243.126 2063.89 258.965 2035.97 256.889 2014C255.688 2001.29 250.904 1980.67 234 1983.66M224 1989C221.662 1993.49 218.301 1997.03 217 2002C230.15 1993.95 240.52 1991.72 236 2013C243.066 2004.83 233.445 1990.82 236.027 1988.3C244.563 1980 250.78 2007.16 251.525 2011C256.736 2037.83 233.545 2068.84 205 2062.25C172.73 2054.8 201.007 1993.31 224 1989M112 2008C89.7808 1973.87 136.592 1999.25 142.015 2015C148.943 2035.12 114.379 2083.36 92.0506 2066.5C76.3441 2054.64 79.2327 2025.82 85.62 2010C87.6068 2005.08 90.9416 1995.49 96.8378 1994.11C99.8046 1993.41 108.191 2005.85 112 2008M1956 2017C1955.38 2020.22 1955.75 2021.24 1959 2022C1958.19 2019.91 1957.47 2018.69 1956 2017M581 2035C583.364 2034.52 583.518 2034.36 584 2032C581.876 2032.9 581.899 2032.88 581 2035M1356 2104C1347.05 2136.64 1303.76 2154.1 1286 2183C1296.27 2182.65 1301 2173.05 1307.21 2166C1321.39 2149.88 1339.09 2137.75 1353.72 2122.14C1357.89 2117.69 1359.24 2109.22 1356 2104M1350 2112C1337.7 2108.22 1325.19 2111.8 1313 2114.62C1311.13 2115.05 1300.79 2115.15 1301.32 2117.9C1302.14 2122.12 1310.31 2120.65 1313 2120.18C1321.61 2118.69 1345.49 2118.74 1350 2112M1215 2112C1212.63 2112.82 1210.51 2112.95 1208 2113C1210.57 2111.56 1212.1 2111.48 1215 2112z"/>
</svg>
