<?xml version="1.0" standalone="yes"?>
<svg xmlns="http://www.w3.org/2000/svg" width="2200" height="2200">
<path style="fill:#0c0c0c; stroke:none;" d="M262 44C247.957 51.238 236.987 67.3083 225 77.6394C186.765 110.592 156.894 136.848 133.75 183C127.237 195.987 103.195 233.853 121.73 245.154C132.43 251.678 147.288 241.458 157.008 237.58C188.449 225.037 210.874 195.322 208.856 161C208.095 148.051 208.899 134.917 207.901 122C207.606 118.18 203.066 111.231 205.359 107.812C207.421 104.736 213.765 103.729 216.68 100.834C233.898 83.7375 255.626 67.917 262 44M486 246C504.753 246 522.133 239.204 541 240.081C560.885 241.004 598.56 253.654 618.451 242.178C622.066 240.092 618.622 233.109 618.231 230C617.1 220.997 621.138 196.722 615.74 190.002C609.934 182.775 584.998 187.478 577 188.76C574.296 189.194 565.412 192.723 563.484 190.024C557.357 181.445 554.217 167.872 557.722 157C558.739 153.846 565.432 145.288 560.488 142.9C542.527 134.223 515.687 157.193 497.284 151.7C491.004 149.825 495.626 111.821 496.066 105C496.19 103.093 499.981 87.9102 492.876 92.9695C484.671 98.811 491.627 120.406 490.654 129C488.212 150.569 480.581 170.883 481.177 193C481.687 211.905 490.061 225.297 486 246M1276 266C1284.7 260.046 1300.58 248.919 1282 250C1288.11 230.473 1284.86 196.228 1282 176C1284.3 175.999 1292.03 177.043 1292.68 173.783C1293.24 170.956 1282.5 170.984 1282.07 164.97C1280.88 148.25 1284.08 130.713 1284.92 114C1285.07 111.177 1286.61 99.5012 1283.44 98.1057C1280.16 96.6599 1280.05 105.574 1280.02 107C1279.78 118.259 1279.77 129.653 1278.64 140.864C1278.02 147.078 1280.51 162.503 1275.2 166.745C1270.35 170.62 1256.97 168.941 1251 169.007C1234.87 169.188 1217.11 171.64 1201 173.32C1195.98 173.844 1181.96 177.873 1177.82 174.78C1174.39 172.214 1175.91 162.747 1176.04 159C1176.4 148.338 1173.82 110.127 1183.29 104.241C1198.77 94.6157 1234.85 97.8735 1253 96.218C1259.38 95.6362 1273.13 93.2659 1270 103C1272.45 101.997 1280.82 96.7607 1277.89 93.259C1274.57 89.2729 1259.75 90.9548 1255 91.0076C1235.98 91.2192 1216.91 95.0513 1198 96.782C1193.35 97.2078 1179.5 94.8035 1176.62 96.0945C1172.17 98.0903 1172.06 126.02 1172.01 131C1171.67 161.026 1171 190.976 1171 221C1171 228.474 1168.02 247.522 1173.58 253.157C1187.74 267.506 1232.74 257 1251 257C1260.54 257 1275.55 253.105 1276 266M1527 97C1525.37 119.665 1533.46 144.237 1528.72 166.933C1526.86 175.812 1515.38 170.19 1515 181C1529.57 168.819 1529.71 183.912 1528.86 196C1527.63 213.603 1521.32 244.257 1527 260L1524 257C1519.96 259.55 1516.9 264.707 1524.03 265.171C1532.73 265.736 1531.77 259.975 1538.15 257.284C1545.05 254.37 1555.56 255.668 1563 255.258C1601.56 253.128 1644.12 255.735 1683 257.04C1711.37 257.993 1739.56 259.472 1768 260.011C1776.51 260.172 1785.12 265.225 1793.85 263.281C1800.47 261.806 1796.82 249.779 1797.22 245C1798.43 230.627 1797.9 181.942 1817 186L1817 180C1812.91 180.58 1808.99 180.843 1805 182C1802.72 164.809 1802.11 147.275 1803.79 130C1804.53 122.363 1810.59 115.357 1805 109C1797.76 112.71 1801.87 101.903 1795.8 103.308C1787.98 105.116 1787.03 116.074 1778.96 116.825C1771.01 117.565 1764.31 110.49 1756 110.177C1733.98 109.348 1710.68 112.062 1689 108.562C1683.96 107.749 1678.82 100.922 1674.65 100.995C1670.52 101.066 1667.72 106.707 1663.98 108.178C1658.11 110.492 1647.82 111.52 1641.44 112.57C1629.06 114.605 1617.97 109.756 1606 109.081C1588.24 108.079 1570.69 108.24 1553 106.209C1549.69 105.829 1538.44 98.6533 1537.56 101.512C1535.72 107.522 1546.2 117.971 1549.98 121.562C1565.6 136.392 1579.22 153.765 1592 171C1582 171.376 1541.05 177.44 1535.26 168.641C1523.08 150.129 1545.69 113.988 1527 97M187 132C193.696 128.111 197.308 106.653 195.831 106.641C203.388 106.705 202 128.467 202 133C202 158.769 208.761 186.63 189.816 208.001C176.787 222.697 161.116 232.302 143 239.505C137.25 241.791 126.473 245.552 122.384 238.713C114.045 224.765 135.586 188.525 142.174 176C149.595 161.891 158.597 149.275 167.317 136.008C175.668 123.301 195.525 104.923 187 132M958 274C967.364 255.998 961.953 227.004 962.001 207C962.013 202.015 966.126 189.667 962.058 186.031C951.401 176.508 922.345 187.703 910.306 185.363C901.798 183.71 917.718 180.971 920 181C917.883 176.245 910.706 176.247 910.018 170.93C908.271 157.434 913.507 139.898 914.04 126C914.163 122.815 917.332 114.721 914.92 112.26C911.207 108.473 899.781 113.104 895 112.843C869.669 111.456 851.668 113.707 827.108 120.01C820.661 121.664 822.546 106.408 819.013 109.969C813.388 115.64 816 134.531 816 142C816 172.533 816.081 203.587 818.783 234C819.55 242.643 816.095 261.889 823.365 267.97C831.975 275.172 853.294 264.926 864 264.72C874.557 264.517 885.389 269.584 896 269.701C919.191 269.955 934.927 264.564 958 274M1801 117C1785.11 115.485 1796.29 104.815 1801 117M1658 113C1651.43 128.238 1626.93 146.156 1614.96 157.922C1612.06 160.772 1604.1 171.198 1599.8 170.677C1593.52 169.913 1587.38 157.814 1584.4 153C1574.46 136.974 1557.83 126.409 1547 111C1571.75 107.079 1598.57 116.567 1623 117.462C1635.15 117.907 1646.15 113.469 1658 113M1732 175C1691.25 171.205 1649.91 169.714 1609 172C1612.57 161.943 1623.76 155.039 1630.48 147C1640.83 134.637 1656.49 113.181 1674 111.242C1697.46 108.644 1723.95 157.084 1732 175M1780 121C1775.46 135.646 1762.06 150.54 1752.18 162C1749.56 165.043 1745.65 172.83 1740.92 172.329C1735.28 171.731 1731.23 163.872 1728.04 159.922C1717.81 147.294 1698.81 126.435 1693 112C1714.17 112 1739.02 112.419 1760 115.199C1767.32 116.168 1772.18 120.953 1780 121M910 115C907.557 133.425 909.227 151.925 904.16 170C903.354 172.875 899.663 185.903 897.179 186.994C893.373 188.665 886.556 183.374 883 182.177C874.926 179.461 866.332 179.812 858 180.68C851.901 181.315 829.18 190.264 825.042 187.556C821.706 185.373 823 177.348 823 174C822.999 164.917 817.187 132.647 823.604 127.021C845.135 108.145 884.789 117.583 910 115M1799 182C1781.81 178.691 1763.54 176.008 1746 176C1755.72 158.184 1772.49 143.559 1783.34 126.027C1786.06 121.617 1791.53 117.653 1796.48 121.94C1800.2 125.157 1798 133.613 1798 138C1797.99 152.697 1798.98 167.354 1799 182M333 123C333.936 125.506 334.494 126.064 337 127C335.763 125.099 334.901 124.237 333 123M824 131L825 135C825.683 133.494 825.826 132.685 826 131L824 131M556 147C554.472 153.43 552.957 186.791 549.557 189.535C544.57 193.561 500.163 200.873 494.822 197.42C490.608 194.696 493.143 161.337 496.682 158.024C508.101 147.334 541.176 150.51 556 147M1562 148C1564.26 153.967 1569.02 164.289 1575 167C1574.49 159.185 1568.63 151.924 1562 148M1273.85 175.788C1280.09 175.617 1278 188.106 1278 192C1278 207.327 1279.94 222.655 1278.86 238C1278.56 242.365 1279.39 251.484 1273.85 252.411C1265.39 253.828 1256.48 251.05 1248 251.214C1229.89 251.563 1196.31 260.508 1180.15 250.657C1169.83 244.368 1177 207.714 1177 197C1177 192.715 1175.41 184.238 1179.5 181.384C1186.53 176.48 1200.15 180.922 1208 180.992C1230.01 181.186 1252.45 176.375 1273.85 175.788M1532 246C1532.7 230.454 1526.21 190.075 1535.38 177.624C1539.45 172.098 1574.08 175.921 1582 175.217C1584.6 174.986 1593.83 173.576 1595.12 176.744C1596.81 180.865 1584.43 192.18 1581.9 195C1569.58 208.765 1550 241.279 1532 246M1681 249C1653.04 227.149 1618.3 210.859 1603 176C1633.16 171.338 1674.42 174.139 1705 177.32C1709.1 177.747 1733.67 176.412 1734.91 179.586C1736.66 184.064 1725.03 194.062 1722.44 197C1707.59 213.83 1695.17 232.293 1681 249M1795 231C1780.82 225.576 1760.89 193.415 1754 180C1761.07 181.071 1794.94 180.709 1798.18 185.822C1804.68 196.107 1793.97 219.218 1795 231M1676 253C1630.98 250.306 1580.91 247.817 1536 252C1542.95 234.344 1569.72 213.216 1583 198.999C1586.46 195.292 1593.55 183.003 1599.06 183.003C1605.29 183.003 1612.05 197.891 1616.02 202C1629.26 215.71 1641.56 227.733 1656.43 239.862C1662.77 245.034 1670.69 246.426 1676 253M1792 258C1758.81 248.849 1719.43 256.569 1685 252C1693.99 230.479 1709.34 216.862 1724.66 199.96C1729.02 195.147 1735.28 183.948 1742.09 182.627C1752.82 180.543 1761.96 197.405 1765.72 205C1771.85 217.384 1786.74 225.194 1792.14 237.538C1794.34 242.563 1792 252.406 1792 258M823 192C847.868 196.213 871.616 175.126 897.499 192.784C901.73 195.671 900 204.585 900 209C900 221.257 904.502 253.753 895.476 263.093C890.523 268.219 870.319 259.186 864 259.062C854.998 258.885 835.27 268.381 827.685 263.604C822.974 260.636 825.191 249.685 824.864 245C823.608 227.038 822.929 209.949 823 192M924.003 187.358C927.844 186.857 956.16 188.811 957.714 190.824C961.205 195.344 957.594 223.305 957.135 230C956.742 235.749 959.728 264.979 953.576 266.314C944.354 268.315 925.461 261.473 915 261.099C912.323 261.003 905.536 263.037 903.9 260.16C901.242 255.487 904.874 244.298 904.981 239C905.381 219.303 898.209 190.722 924.003 187.358M578 193.398C583.888 192.488 606.795 189.897 610.733 194.822C614.13 199.071 614.059 236.614 609.716 237.724C602.47 239.575 564.134 243.777 559.278 238.74C556.491 235.847 559.607 227.54 559.863 224C561.125 206.556 559.175 196.309 578 193.398M550.93 195.301C558.235 197.321 556.535 228.944 552.396 234.171C549.902 237.319 542.475 234.995 539 235.026C527.891 235.125 504.907 244.527 495.504 240.855C492.521 239.691 490.484 206.907 493.079 204.26C495.892 201.391 504.239 203.135 508 202.476C520.258 200.329 538.472 191.856 550.93 195.301M488.667 195.667C488.722 195.722 488.777 196.778 488.333 196.333C488.278 196.278 488.222 195.222 488.667 195.667M393 271C393.578 276.614 394.754 281.105 399 285C398.737 279.606 397.324 274.495 393 271M399 288C397.984 292.417 400.045 330.357 404.992 330.357C408.151 330.357 405.455 321.458 405.232 320C403.788 310.589 405.132 295.515 399 288M406 335C407.027 341.233 408.598 347.68 415 350C411.915 345.241 410.452 338.515 406 335M319 455C319.773 456.176 319.824 456.227 321 457C320.455 455.365 320.635 455.545 319 455M685 457C685.899 459.124 685.876 459.101 688 460C687.518 457.636 687.364 457.482 685 457M336 458C336.883 461.739 338.835 463.884 342 466C341.264 461.696 340.345 459.295 336 458M290 811C292.364 810.518 292.518 810.364 293 808C290.876 808.899 290.899 808.876 290 811M2084 2003L2085 2004L2084 2003M2085 2007C2085.54 2008.64 2085.36 2008.45 2087 2009C2086.45 2007.36 2086.64 2007.55 2085 2007M227.333 2077.67C227.278 2077.72 227.222 2078.78 227.667 2078.33C227.722 2078.28 227.778 2077.22 227.333 2077.67z"/>
</svg>
