<?xml version="1.0" standalone="yes"?>
<svg xmlns="http://www.w3.org/2000/svg" width="2200" height="2200">
<path style="fill:#0d0d0d; stroke:none;" d="M1652 42C1634.88 20.1045 1606.27 39.9041 1585 42.78C1569.86 44.8269 1552.23 47.7561 1540.09 57.8647C1507.92 84.6355 1502.74 143.587 1499.62 181C1498.08 199.501 1490.49 218.638 1497.12 237C1501.11 248.068 1507.42 268.601 1514.74 277.544C1555.43 327.316 1626.55 324.062 1681 307.977C1701.11 302.035 1718.57 298.04 1734.99 282.856C1749.91 269.062 1756.8 249.86 1762.98 230.783C1783.48 167.507 1746.4 87.4631 1691 53.665C1678.99 46.3398 1656.97 50.5923 1643 47.2615C1641.72 46.9568 1628.14 41.7874 1629.76 45.9607C1631.54 50.5549 1644.8 51.6177 1649 52.377C1667.84 55.7812 1683.73 52.8079 1698.98 65.4634C1753.33 110.568 1791.46 207.384 1740.64 271C1715.56 302.396 1666.78 311.074 1629 313.079C1618.4 313.641 1608.82 317.241 1598 315.513C1587.36 313.815 1579.66 307.381 1570 303.898C1552.3 297.514 1531.8 291.093 1519.46 274.981C1497.35 246.116 1501.38 212.987 1504.64 180C1507.27 153.377 1508.54 126.133 1520.74 101C1526.67 88.7891 1531.64 71.0183 1542.22 61.9153C1557.09 49.1143 1574.43 50.5999 1592 46.0149C1604.62 42.7217 1618.75 35.5906 1632 36.0562C1639.27 36.3118 1644.9 41.1765 1652 42M1174 69C1175.46 75.4377 1179.85 80.3098 1183 86C1173.82 82.1819 1165.81 73.8193 1156 72C1158.27 83.0786 1178.93 83.0212 1179.4 91.8896C1179.7 97.5249 1167.03 107.683 1163.75 112C1156.04 122.121 1151.49 138.317 1151.21 151C1150.44 186.721 1163.61 220.37 1185.44 247.497C1188.4 251.185 1183.21 256.956 1186.2 259.595C1187.61 260.83 1199.57 254.436 1203.92 255.553C1233.79 263.215 1274.09 262.008 1300.56 244.482C1308.94 238.934 1336.24 251.182 1334.16 255.108C1340.24 243.628 1315.21 240.271 1316.2 233.471C1316.81 229.225 1325.04 223.519 1327.64 219.96C1335.94 208.596 1344.05 195.694 1343.75 181C1343.55 171.2 1336.98 163.244 1335.13 154C1332.88 142.767 1336.34 129.633 1330.66 119C1324.61 107.689 1308.4 97.8865 1306.82 84.0024C1306.16 78.2058 1313.68 72.7871 1315 67C1305.11 68.771 1304.08 70.3933 1302 80C1300.17 74.7351 1301.44 66.2266 1297 63C1294.98 67.5103 1292.59 70.6208 1287.78 67.3066C1265.84 52.1929 1238.58 56.8425 1215.96 68.072C1209.22 71.4163 1197.29 81.4399 1190.15 81.8755C1184.06 82.2476 1180.46 70.6038 1174 69M1642.11 62.2405C1620.08 79.009 1589.58 83.8662 1566.12 99.314C1539.27 116.99 1525.97 158.439 1522.24 189C1511.85 274.13 1631.51 334.707 1698.78 284.904C1736.94 256.654 1748.01 212.208 1741.37 169C1740.33 162.246 1741.94 153.215 1739.22 147C1733.78 134.59 1721.61 126.811 1712.36 117.711C1696.26 101.879 1681.19 86.1929 1664 71.6868C1659 67.4673 1649.95 56.2761 1642.11 62.2405M1248 62.3228C1263.29 60.645 1305.94 69.1875 1276.68 88.1372C1266.65 94.6318 1248.2 82.3145 1237 84.6423C1224.73 87.1926 1214.28 104.48 1203.89 105.677C1197.22 106.443 1188.99 90.2236 1193.85 85.3464C1206.47 72.6768 1230.56 64.2363 1248 62.3228M1260 65L1257 70C1259.63 68.8108 1260.77 67.9216 1260 65M1650 65C1651.61 66.4497 1652.06 67.0515 1653 69C1650.86 67.8694 1649.9 67.4324 1650 65M1643 70.5061C1668.23 68.2446 1692.55 106.068 1706.77 121.501C1714.93 130.362 1727.83 133.304 1733.62 146.218C1736.75 153.223 1735.05 162.502 1736.42 170C1746.76 226.5 1713.55 291.442 1650 296.848C1631.6 298.412 1620.81 295.449 1603.68 289.855C1572.18 279.566 1545.2 263.252 1531.22 231C1521.95 209.598 1526.87 189.114 1533.06 168C1537.13 154.126 1538.81 139.313 1546.65 127C1563.02 101.295 1611.95 73.2891 1643 70.5061M456 169C459.52 169.556 495.36 157.511 492.241 167.41C489.824 175.083 470.017 175.999 465 184C473.315 183.885 485.322 172.828 492.5 175.014C497.498 176.535 493.858 183.681 491.753 185.853C489.051 188.641 461.601 207.26 467.055 211.611C471.115 214.85 487.009 191.239 494.506 192.294C498.715 192.886 497.912 203.081 498.075 206C499.019 222.827 494.195 232.173 491 248C496.665 245.65 497.645 239.056 502 235C502.053 259.849 518.074 214.183 525.293 211.643C529.742 210.078 527.711 232.09 532.668 226.108C541.807 215.08 523.309 194.386 545.077 186.426C552.18 183.829 562.284 211.748 567.902 205.245C572.104 200.381 550.108 184.963 551.643 179.066C556.102 161.937 580.913 160.687 590 151C585.837 149.985 582.207 150.444 578 151L587 136L581 134C584.278 130.781 602.033 122.54 600.717 117.451C599.841 114.06 593.215 119.043 592 119.848C575.867 130.534 568.997 122.672 552 122C557.67 113.729 573.613 99.158 572 89C555.038 101.799 548.53 136.255 522.265 114.181C517.841 110.463 518.503 92.6433 513.164 92.6433C507.303 92.6433 516.477 109.544 508.812 111.178C489.437 115.308 483.313 109.299 475.525 94C474.437 91.8635 469.787 77.1921 465.819 80.4077C461.354 84.0261 471.121 98.4453 472.838 102C476.602 109.796 470.992 115.706 473.378 122.04C477.602 133.256 490.604 140.921 487.523 154.756C485.89 162.089 461.76 162.013 456 169M1290 81C1288.07 86.8469 1284.94 92.6482 1279 95C1280.34 88.7385 1284.43 84.0232 1290 81M1299 83C1297.03 87.5881 1294.06 91.1099 1291 95C1290.63 89.4143 1293.62 84.5405 1299 83M1303 88C1310.04 98.9331 1322.86 112.268 1327.27 124C1331.11 134.194 1327.81 145.775 1330.64 156C1333.93 167.846 1340.36 174.934 1337.65 188C1334.97 200.948 1329.1 210.771 1320.58 220.997C1319.03 222.857 1314.15 230.206 1310.95 228.394C1309.85 227.771 1330.83 198.265 1331.63 193C1334.73 172.619 1323.72 140.199 1313 123C1308.5 115.789 1296.3 108.803 1294.01 100.583C1292.68 95.8257 1299.86 90.4895 1303 88M1235 90C1234.53 93.7546 1233.67 97.2058 1234 101C1244.23 86.5337 1255 92.4417 1272 94C1268.33 112.473 1250.59 112.387 1239.09 123.239C1236.51 125.665 1231.3 136.288 1227.21 135.115C1223.46 134.04 1220.97 128.033 1218.47 125.328C1202.53 108.092 1213.23 97.165 1235 90M139 329C161.412 328.205 198.285 298.615 181.138 273.019C176.078 265.465 150.087 254.452 153.146 243.333C153.977 240.314 174.542 244.394 179 243.801C189.083 242.461 199.708 228.779 203.477 220C208.062 209.321 212.75 183.127 205.275 173.22C198.073 163.675 177.958 155.573 177.501 142C177.162 131.916 185.93 113.117 193.487 106.693C199.269 101.778 207.927 97.5793 212 106C222.353 100.567 208.182 93.2969 201 95.9937C194.907 98.2817 189.334 103.058 185.225 108C178.665 115.889 168.413 137.899 173.302 148C182.682 167.379 214.007 175.008 202.968 201.938C200.822 207.17 183.772 203.45 178 204.301C166.112 206.054 155.66 216.566 150.378 227.004C134.52 258.343 180.19 260.31 178.891 285C178.126 299.554 169.06 312.68 157 320.186C151.336 323.711 141.084 322.134 139 329M1183.24 97.2451C1189.33 96.1873 1199.2 109.49 1198.35 115C1193.68 145.273 1167.61 167.219 1178.04 201C1180.85 210.115 1189.98 215.877 1194.65 224C1196.86 227.838 1196.84 242.68 1190.52 243.464C1178.75 244.924 1171.3 218.851 1168.54 211C1158.15 181.367 1150.39 153.825 1162.28 123C1164.73 116.626 1175.9 98.5173 1183.24 97.2451M1279 98C1278.1 100.675 1277.42 101.553 1275 103L1277 98L1279 98M1291.06 105.643C1296.6 105.643 1305.18 117.921 1308.23 122C1320.65 138.582 1331.34 175.352 1326.17 195.999C1324.56 202.46 1313.74 223.151 1306.01 223.018C1301.52 222.941 1296.56 215.631 1298.16 211.509C1305.15 193.536 1313.43 172.891 1302.38 154C1296.36 143.701 1281.56 132.514 1278.06 121.602C1276.74 117.474 1287.01 105.643 1291.06 105.643M1657 105.438C1614.62 110.198 1583.38 127.698 1563.99 168C1551.5 193.95 1556.84 210.405 1564.03 236C1568.51 251.939 1566.43 259.919 1582 270.653C1590.7 276.647 1597.61 273.03 1607 274.536C1620.27 276.663 1632.88 282.315 1647 280.764C1682.01 276.919 1708.59 236.252 1720.17 207C1723.47 198.658 1730.24 185.097 1729.43 176.078C1728.56 166.403 1717.24 160.079 1713.13 151.981C1701.61 129.294 1686.87 102.083 1657 105.438M2008 226C2003.89 255.62 1958.4 261.445 1935 261C1941.71 276.118 1976.42 260.453 1986 255.357C2013.68 240.638 2018.35 213.532 2027.02 185C2030.01 175.16 2035.85 166.371 2036.78 156C2043.02 86.4504 1948.54 102.347 1917.14 134.097C1883.26 168.37 1913.34 238.243 1957 248.547C1980.05 253.988 1991.04 236.271 2008 226M1572 243C1577.04 254.476 1589.03 261.006 1596 271C1567.69 269.575 1559.2 214.802 1561.14 193C1565.49 144.121 1616.56 105.057 1664 110.053C1686.8 112.454 1697.11 129.493 1707.09 148C1711.99 157.101 1722.3 166.673 1723.68 177C1725.09 187.563 1718.55 199.709 1714.35 209C1701.51 237.419 1684.25 263.569 1653 274.658C1636.52 280.505 1607.63 273.141 1594.02 263.004C1585.97 257.009 1581.24 247.407 1572 243M2027 168C2026.19 153.129 2025.48 131.788 2012.86 121.645C2005.78 115.948 1991.57 118.597 1983 119.562C1954.61 122.76 1935.37 126.554 1918.87 153C1903.42 177.747 1941.71 246.446 1974 230.439C1982.81 226.069 2008.52 198.517 1995.14 188.047C1990.55 184.452 1970.2 196.357 1970.96 185.93C1971.67 176.152 1977.44 153.082 1982.57 144.783C1983.39 143.458 1990.16 133.51 1988 132.565C1984.87 131.197 1976.77 142.99 1975.36 145.32C1970.23 153.815 1947.63 194.095 1933.6 185.641C1928.09 182.316 1931.04 166.839 1932.74 162C1938.23 146.368 1958.48 135.295 1974 144C1970.24 133.922 1959.19 135.363 1951 138.871C1934.16 146.08 1930.13 158.532 1926 175C1914.63 166.269 1925.86 147.684 1933.23 140.439C1949.75 124.173 1967.2 125.028 1989 123.922C1996.89 123.522 2006.16 119.641 2012.64 125.825C2021 133.788 2018.88 145.898 2020.63 156C2027.23 194.009 2005.29 250.173 1958 243.734C1945.91 242.088 1941.84 234.419 1933.82 226.89C1908.79 203.395 1897.21 169.41 1918.15 139.085C1932.91 117.7 1973.15 111.35 1997 109.255C2016.89 107.507 2046.7 153.789 2027 168M512 116C510.533 127.05 507.804 136.801 508 148C503.556 144.489 483.35 123.607 489.286 117.26C492.898 113.397 506.876 116.632 512 116M480 118C481.204 119.778 481.601 120.878 482 123C479.851 121.449 479.318 120.595 480 118M518 118C522.511 120.948 534.183 123.946 536.464 128.914C540.976 138.743 518.873 148.969 512 149C513.849 138.557 514.44 128.119 518 118M1201.36 120.087C1203.97 119.147 1222.12 138.953 1222.98 142.078C1224.69 148.29 1217.27 159.504 1215.98 166C1212.39 184.089 1218.86 192.898 1209.34 211C1207.64 214.217 1204.73 222.687 1200.62 223.456C1196.4 224.245 1182.91 205.025 1182.17 200.96C1178.03 178.428 1184.44 161.926 1190.68 141C1192.07 136.35 1196.41 121.867 1201.36 120.087M1247.72 122.065C1255 122.232 1244.58 148.665 1238.76 148.397C1225.59 147.79 1238.63 121.857 1247.72 122.065M1294 206C1298 183.394 1289.77 149.631 1261 153C1261.46 147.917 1270.18 125.134 1276.89 127.544C1281.62 129.247 1284.02 137.218 1286.83 141C1295.83 153.119 1319.14 195.807 1294 206M565 128C562.921 133.918 540.442 140.318 534 143C539.403 127.014 550.804 127.151 565 128M1635 130.793C1597.79 139.785 1576.39 188.443 1578.59 224C1579.79 243.511 1608.29 263.266 1627 258.628C1644.89 254.196 1687.16 229.05 1690.11 209C1691.58 199.013 1683.73 192.619 1681.18 184C1674.46 161.313 1672.58 121.712 1635 130.793M1676 180L1674 180C1659.51 121.391 1591.52 173.332 1592.74 213C1593.14 226.096 1611.65 243.224 1625 240.343C1640.49 237.001 1654.99 223.883 1664.59 212C1667.93 207.862 1672.4 191.415 1676.7 189.761C1682.72 187.449 1685.05 205.69 1684.36 209C1678.08 239.099 1617.6 268.374 1594.42 243.67C1578.75 226.971 1585.98 212.809 1588.92 193C1590.47 182.596 1591.72 171.604 1598.2 163.04C1606.74 151.762 1620.28 137.766 1634.79 135.008C1659.11 130.383 1680.98 156.749 1676 180M566 135.401C577.962 133.476 585.124 143.001 571.914 149.576C566.004 152.518 536.169 155.946 529.073 155.432C521.092 154.852 557.711 136.735 566 135.401M491 137C496.079 141.186 501.692 146.743 504 153C492.22 155.99 489.175 148.705 491 137M1225 147C1244.01 154.015 1227.11 176.175 1221.26 171.6C1217.13 168.369 1224.48 151.62 1225 147M568 155C564.157 160.87 555.352 172.436 547.861 173.431C543.365 174.029 532.456 165.817 534.087 160.742C536.679 152.68 561.743 154.999 568 155M1246 156L1245 157L1246 156M1598 219C1604.75 221.108 1609.67 223.929 1617 224C1611.21 215.974 1596.6 217.676 1598.85 203C1601.95 182.741 1647.56 133.276 1664.55 165.019C1677.64 189.481 1665.55 213.109 1643 227.323C1628.48 236.477 1605.1 239.676 1598 219M504.89 157.607C512.112 157.117 506.308 164.22 502.027 164.69C493.848 165.588 499.06 158.002 504.89 157.607M1292 207C1283.62 202.538 1249.11 169.79 1254.66 161.199C1260.09 152.79 1276.13 157.036 1281.6 163.163C1291.35 174.078 1290.72 193.263 1292 207M1973 159C1972.96 166.09 1963.74 185.54 1966.27 190.265C1972.01 200.98 1998.33 182.805 1993.24 201C1987.95 219.885 1964.78 237.641 1946.07 224.454C1935.44 216.963 1924.06 189.14 1924 176C1940.53 211.056 1955.26 166.315 1973 159M530 194C530.289 183.817 520.187 179.175 519.201 170.354C518.888 167.549 522.924 162.297 526.008 163.105C543.386 167.658 544.691 185.859 530 194M511 165C508.04 182.521 489.652 172.26 511 165M513 172C512.221 180.035 508.261 205.711 502 210C502.169 192.688 499.516 184.803 513 172M1248 173C1266.13 182.579 1248.39 182.512 1253.21 195.889C1256.59 205.273 1263.34 193.759 1268.22 194.323C1273.47 194.93 1285.97 208.077 1287.26 213.173C1289.1 220.432 1268.11 221.468 1264.04 220.82C1257.5 219.779 1254.87 213.656 1250.52 209.406C1246.72 205.695 1239.22 204.099 1236.31 200.006C1231.85 193.731 1245.18 178.288 1248 173M875.046 175.544C869.702 178.497 865.754 193.984 862.139 199.32C846.671 222.155 830.774 246.534 817.505 270.68C813.948 277.153 800.14 292.83 805.036 300.676C813.133 313.653 835.944 300.312 847 298.516C857.342 296.837 859.055 308.357 863.062 308.357C866.529 308.357 868.765 301.109 873.022 300.158C888.073 296.796 913.314 295.192 926.353 288.079C930.752 285.68 918.839 273.431 916.956 271.438C897.007 250.321 900.272 223.794 888.449 200C886.832 196.745 879.563 173.048 875.046 175.544M504 230C504.006 217.297 509.624 203.319 513.066 191C513.653 188.899 514.857 178.743 518.146 179.323C523.147 180.205 524.773 190.115 525.107 194C526.006 204.463 513.852 225.592 504 230M875 187C873.691 208.732 875.959 227.312 870.239 249C868.984 253.758 870.131 265.234 863.85 266.776C858.56 268.075 844.141 244.83 843.887 240C843.314 229.112 867.4 195.215 875 187M1264 187C1263.11 190.909 1261.76 192.574 1258 194C1259.26 190.41 1260.44 188.468 1264 187M1630.25 194.262C1624.51 199.839 1632.39 206.996 1638.47 200.475C1643.29 195.303 1633.93 190.694 1630.25 194.262M881 194C890.89 215.727 893.42 241.387 874 259C872.394 248.253 879.588 236.687 880.764 226C881.966 215.076 877.232 204.567 879 194L881 194M1282 222C1272.51 239.119 1249.4 237.807 1237.68 223.896C1235.17 220.924 1224.59 207.907 1231.5 204.666C1241.69 199.892 1251.1 217.453 1257.14 222.011C1265.57 228.365 1273.1 224.755 1282 222M1223 204C1221.92 210.773 1217.85 215.601 1212 219C1214.56 213.151 1217.33 207.283 1223 204M175 209.526C204.633 202.246 206.197 231.395 181 238.414C150.139 247.012 147.135 216.371 175 209.526M1224.47 215.323C1229.5 214.523 1246.75 237.451 1256 239.495C1271.92 243.013 1282.09 219.609 1292.46 221.323C1298.08 222.252 1297.91 233.533 1293.85 236.021C1279.24 244.975 1266.27 252.247 1249 254.639C1234.18 256.692 1219.91 249.866 1212.97 236.04C1211.15 232.416 1220.32 215.983 1224.47 215.323M1210 227L1208 230L1208 227L1210 227M1300 238L1299 239L1300 238M1225 256C1215.4 257.093 1207.67 250.209 1198 251C1207.7 232.64 1215.26 245.437 1225 256M1297 240C1294.06 245.205 1289.81 247.218 1284 248C1287.06 243.258 1291.55 241.05 1297 240M890 241C893.4 242.504 895.149 245.006 897.296 248.011C899.256 250.753 906.944 259.252 904.461 262.961C902.777 265.477 878.999 266.979 878.304 263.321C877.257 257.814 888.2 246.714 890 241M854 267C844.869 265.036 836.205 265.449 827 266C832.678 243.063 849.54 243.852 854 267M874.317 269.9C880.425 267.424 900.616 267.199 906.783 269.822C913.441 272.653 920.663 281.306 911.969 285.533C904.704 289.066 884.917 296.232 877.184 292.48C870.39 289.183 865.127 273.625 874.317 269.9M824.233 270.822C830.385 268.04 849.979 268.191 855.911 271.384C864.529 276.021 861.457 287.644 853.903 291.741C849.053 294.371 818.449 303.597 814.39 301.614C804.165 296.618 817.541 273.849 824.233 270.822M868 289C869.639 291.296 870.397 293.243 871 296C867.525 294.626 866.779 292.513 868 289M862 291C861.789 293.739 861.698 294.422 859 295L860 291L862 291M2101 402C2102.9 419.204 2081.7 423.277 2066 422.975C2059.88 422.858 2055.68 418.427 2050 417.977C2025.29 416.017 1989.59 419.583 1965 424.404C1958.57 425.665 1951.92 420.441 1946 423.267C1928.27 431.724 1901.86 462.607 1897.51 482C1893.25 500.954 1897.59 523.564 1896.36 543C1895.63 554.581 1888.42 568.615 1888.71 579.059C1888.93 586.86 1894.88 594.775 1897.31 602C1901.15 613.41 1905.55 631.809 1913.71 640.713C1933.24 662.021 1972.25 649.714 1994 650.299C2009.54 650.716 2028.19 657.791 2042.92 656.085C2073.72 652.518 2109.56 628.656 2123.78 598C2132.57 579.054 2127.22 550.546 2133.66 530C2135.18 525.169 2141.64 512.528 2135.5 508.743C2116.38 496.954 2077.79 511.528 2061.82 495.281C2057.96 491.355 2059.24 482.045 2058.78 477C2057.32 460.691 2058.6 444.105 2055 428C2058.43 429.832 2060.64 431.92 2063 435C2066.61 430.054 2098.88 416.423 2099.97 425.166C2101.82 439.984 2089.18 460.948 2086.64 476C2086.02 479.699 2083.58 496.745 2089 497.677C2092.81 498.332 2091.04 480.891 2091.57 478C2095.13 458.584 2100.5 436.76 2107 418C2110.34 430.977 2114.47 443.231 2118.58 455.997C2121.24 464.237 2124.72 471.622 2127.08 480C2129.81 489.709 2132.91 498.863 2139.2 506.97C2144.75 514.109 2150.98 511.278 2150.39 502C2149.7 490.91 2138.35 485.208 2133.24 476.92C2122.01 458.697 2122.32 410.475 2101 402M1254 415C1253.32 424.716 1243.64 431.62 1237 437.922C1223.32 450.908 1209.7 464.74 1199 480C1216.4 502.348 1208.27 551.346 1205.84 578C1204.86 588.863 1196.85 605.534 1204.39 615.686C1207.97 620.505 1209.53 615.523 1209 612C1236.28 613.741 1264.92 611.946 1292 614.542C1310.4 616.306 1331.99 623.801 1349.83 616.235C1355.88 613.67 1361.18 602.664 1368 598.467C1372.69 595.584 1401.51 587.417 1402.25 585.517C1404.17 580.594 1398.56 567.48 1397.76 562C1395.74 548.257 1399.05 531.488 1401.71 518C1406.2 495.186 1402.59 473.14 1404.78 450C1405.07 446.977 1410.73 429.058 1410.89 429.235C1405.95 423.878 1383.34 429.823 1376 428.544C1334.72 421.353 1292.43 431.623 1254 415M1707 589C1697.6 590.226 1691.24 598.835 1681 600C1711.99 566.49 1753.46 543.157 1740.82 490C1737.67 476.75 1724.81 449.303 1713.9 440.981C1700.4 430.679 1689.26 432.373 1674 429.265C1635.21 421.363 1565.47 404.669 1538.48 443.217C1520.25 469.259 1495.22 519.474 1511.38 552C1522.37 574.113 1542.35 588.196 1559.78 604.565C1572.89 616.879 1581.82 631.383 1602 633.556C1609.32 634.345 1618.2 627.794 1625 625.453C1639.18 620.577 1653.26 619.422 1667 612.719C1679.87 606.442 1699.96 602.223 1707 589M2036 499C2037.42 496.903 2039 495.587 2041 494C2030.47 492.737 1994.68 500.803 1987.28 491.186C1982.22 484.607 1989.23 467.897 1990.95 460.981C1993.03 452.606 1991.72 436.791 1995.84 429.803C1999.01 424.416 2042.99 420.884 2048.4 423.514C2054.5 426.473 2052.95 443.477 2053.01 449C2053.2 466.47 2067.17 512.126 2036 499M1641 616C1636.25 621.922 1623.11 621.842 1616 623.894C1589.23 631.622 1582.31 617.85 1562.99 601.401C1545.67 586.644 1524.57 569.947 1515.8 548C1502.96 515.87 1525.2 450.773 1554.01 432.899C1568.61 423.84 1591.55 423.881 1608 425.682C1616.85 426.652 1651.38 424.634 1656.46 432.623C1659.14 436.844 1638.35 438.72 1636 439.265C1615.93 443.906 1583.23 454.194 1567 466.864C1519.27 504.123 1538.76 592.484 1591.22 615.774C1605.19 621.977 1626.28 616.058 1641 616M1974 427.457C1999.6 422.945 1988.18 454.953 1984 470C1983.11 473.194 1983.19 486.753 1980.32 487.78C1974.91 489.714 1943.37 485.298 1940.97 480.219C1938.55 475.112 1944.51 458.894 1945.48 453C1946.47 447.083 1946.18 435.271 1951.02 430.958C1954.34 428.002 1969.11 428.32 1974 427.457M1211 479C1213.16 471.336 1220.59 473.975 1227 474L1227 471C1203.64 470.892 1234.74 444.762 1242 438.396C1244.13 436.531 1249.57 429.779 1252.65 430.32C1258.42 431.331 1255.23 469.853 1251.62 474.178C1247.46 479.164 1218.2 478.301 1211 479M1312.01 430.389C1331.68 426.924 1355.38 431.622 1375 433.764C1378.39 434.134 1392.58 431.546 1394.03 434.829C1396.32 440.026 1385.21 448.163 1382 450.818C1369.81 460.887 1344.61 477.537 1329 480.59C1313.35 483.65 1291.16 477.896 1275 477.078C1271.01 476.876 1261.03 478.855 1258.34 475.178C1255.23 470.935 1259.77 460.858 1259.96 456C1260.13 451.453 1257.32 435.186 1260.9 432.338C1263.93 429.927 1271.39 432.913 1275 432.919C1288.59 432.943 1298.99 432.682 1312.01 430.389M1945 430C1944.32 439.799 1943.08 475.858 1934.5 481.48C1928.05 485.708 1909.82 483 1902 483C1908.96 466.05 1927.23 436.933 1945 430M2025 482C2017.54 482.763 2004.29 483.767 2005.8 471.354C2006.16 468.45 2017.88 476.552 2021.99 475.48C2030.56 473.246 2035.83 461.08 2035.91 453C2036.04 439.096 2024.86 425.668 2012.32 437.557C2004.84 444.65 2000.69 464.015 2002.32 474C2004.12 485.001 2017.5 492.9 2025 482M1697 553C1699.24 541.993 1708.6 529.395 1707.04 518C1702.19 482.473 1662.9 450.335 1626 462.301C1609.87 467.53 1576 487.37 1568.57 503.003C1553.63 534.438 1572.89 601.111 1611 605.671C1652.64 610.653 1680.02 582.885 1703.53 552.32C1713.34 539.573 1725.56 523.083 1724.79 506C1723.43 475.647 1690.17 445.742 1665 434C1670.41 432.564 1676.45 435.878 1682 436.342C1727.57 440.142 1744.71 493.92 1734.17 535C1730.94 547.586 1719.77 557.716 1711.44 567.007C1679.92 602.131 1644.93 617.5 1598 612.842C1588.86 611.934 1582.64 604.177 1576 598.639C1553.15 579.571 1537.76 546.894 1545.67 516C1557.02 471.673 1579.92 465.852 1619 451.4C1632.16 446.535 1649.35 437.535 1664 439.769C1711.52 447.017 1739.71 523.147 1697 553M2021.98 437.168C2035.66 436.974 2033.53 471.002 2019.96 471.288C2002.44 471.658 2007.1 437.38 2021.98 437.168M217 717C214.445 710.618 202.468 703.83 203.584 696.68C204.613 690.085 212.679 684.889 215.656 679C223.522 663.438 237.016 629.489 230.904 612C225.515 596.577 211.873 593.048 198 596.406C191.017 598.097 177.789 604.9 177 594C172.206 596.03 170.311 606.298 164.495 605.574C155.233 604.421 159.98 581.519 165.027 577.755C187.396 561.075 230.255 573.73 239.132 541C240.992 534.141 239.041 526.964 239.003 520C238.961 512.559 238.479 505.883 235.253 499.019C230.437 488.77 214.083 478.886 203 477.311C198.55 476.679 186.281 481.08 183.716 476.377C174.495 459.474 190.709 445.424 208.003 444.271C238.443 442.24 246.218 480.751 256.167 501C283.62 556.879 288.592 613.352 260.191 671C252.1 687.423 245.795 711.017 226 716C253.284 721.842 268.777 666.749 274.223 647C281.704 619.873 290.851 589.132 285.556 561C281.287 538.315 268.025 516.92 259.22 496C249.949 473.974 243.541 446.064 216 439.625C177.575 430.641 164.415 481.582 159.479 509C154.78 535.101 153.383 556.857 151.912 583C151.255 594.675 147.644 607.279 150.741 619C154.832 634.479 167.964 646.929 174.304 662C182.014 680.33 195.579 711.649 217 717M573 648C591.029 640.449 585.916 622.661 588.795 608C595.717 572.742 597.169 538.257 602.842 503C603.91 496.363 614.219 460.621 607.138 456.926C602.095 454.295 587.772 464.591 581 464.403C551.017 463.574 521.75 453.627 492 452.022C483.374 451.556 463.786 454.584 462 444C457.825 447.15 440.641 452.145 440.963 446.218C440.493 454.86 455.353 456.612 455.532 465.022C456.41 506.366 447.854 546.919 444.941 588C444.239 597.896 436.453 625.465 445.683 632.658C465.628 648.199 516.767 649.11 542 650.506C551.469 651.03 571.649 642.484 573 648M1399 445C1393.65 475.307 1400.32 505.174 1393.66 536C1392.65 540.641 1394.31 559.349 1390.2 561.396C1383.87 564.543 1358.01 544.463 1356.95 538.767C1352.23 513.454 1370.84 451.273 1399 445M576 468C571.048 473.316 565.839 470.011 560.314 471.931C556.32 473.318 542.587 485.403 539 489L548 489C541.856 503.096 532.761 515.792 524.98 529C523.019 532.33 519.672 541.973 515.82 543.239C511.64 544.612 509.317 534.531 508.46 532C504.27 519.633 494.259 504.199 495 491L504 499C502.34 493.844 500.048 491.58 504 487C487.364 483.199 476.848 465.458 461 458C466.875 451.812 483.199 456.301 491 456.865C519.495 458.924 547.237 467.883 576 468M906 460C907.234 462.031 913.29 466.041 912.919 468.181C911.515 476.279 885.677 491.857 878 491C877.15 500.016 857.771 521.631 850.867 526.348C847.665 528.535 838.67 519.669 837.106 524.455C835.193 530.308 850.172 532.404 850.955 538.382C852.4 549.407 847.056 558.493 846.146 569.007C845.557 575.822 849.727 580.824 849.74 587C849.75 591.719 843.163 595.753 846.172 600.584C851.94 609.846 872.493 602.892 877.585 610.803C880.229 614.911 867.915 634.88 872.451 635.677C882.248 637.399 879.909 610.64 887.465 609.222C900.371 606.799 917.512 625.349 927.491 618.053C934.235 613.122 929.395 603.936 933.469 597.438C943.164 581.974 956.035 566.922 967.861 553C971.364 548.875 980.93 541.035 981.006 535.335C981.056 531.572 976.491 534.169 975 535C971.686 519.449 962.254 505.145 957.297 490C955.667 485.02 954.587 474.543 950.264 471.251C941.856 464.85 916.487 460.674 906 460M461 463C488.876 475.747 496.196 505.816 503.401 533C505.15 539.599 512.096 545.996 511.184 553C509.442 566.371 497.298 584.053 490.895 596C486.244 604.677 478.048 632.645 466.99 634.325C442.544 638.039 448.679 610.341 448.982 597C449.687 565.935 455.815 533.932 459.661 503C461.303 489.793 458.196 476.069 461 463M602 463C600.515 468.877 596.336 465.299 602 463M1372 464C1370.17 467.347 1368.35 469.174 1365 471C1366.55 467.243 1368.18 465.422 1372 464M1677 551C1674.38 538.46 1681.71 526.783 1674.61 514.217C1656.69 482.548 1608.69 488.087 1589.1 514.007C1557.29 556.082 1604.38 603.39 1649 586.557C1669.76 578.723 1698.88 538.164 1688.5 514.157C1677.45 488.585 1634.18 474.661 1609 478C1618.04 466.001 1631.89 466.303 1645 467.765C1673.71 470.965 1686.38 476.825 1696.37 504.999C1697.95 509.474 1702.5 514.269 1702.34 519.04C1701.14 554.338 1677.43 578.338 1647.08 591.64C1638.61 595.352 1631.88 601.301 1622 600.815C1572.68 598.392 1567.3 542.63 1584.75 508C1612.25 453.414 1707.29 497.025 1677 551M586 470.508C606.52 465.94 600.633 485.218 599.058 498C595.377 527.859 584.42 556.392 580.557 586C579.723 592.391 582.243 621.442 576.756 622.716C547.656 629.472 540.195 595.794 531.617 577C528.094 569.281 520.08 558.649 519.853 550C519.647 542.121 528.58 531.635 532.335 525C545.59 501.583 557.031 476.956 586 470.508M911 521C908.349 512.396 910.798 505.369 913.393 497.008C915.748 489.417 916.707 481.004 919 474.266C921.915 465.697 944.012 472.453 947.853 477.449C960.513 493.918 942.589 504.608 932.059 515.136C929.105 518.091 923.128 527.638 918.159 526.72C912.579 525.689 939.503 491.02 922.824 509.682C921.462 511.204 919.987 512.626 918.6 514.125C916.175 516.746 914.043 519.124 911 521M1362 476C1356.3 481.012 1354.6 474.767 1362 476M914 476C909.877 493.295 911.27 511.926 893 500C893.775 509.089 903.196 513.707 905 523C899.888 522.267 897.888 518.736 894.661 514.997C879.267 497.158 893.379 483.77 914 476M1351 476C1349.03 478.763 1347.33 479.457 1344 480C1346.01 477.481 1347.87 476.716 1351 476M1225 480.35C1233.32 479.136 1254.82 476.523 1258.53 486.051C1262.67 496.683 1254.67 510.966 1250.95 521C1249.96 523.683 1248.76 531.997 1244.87 531.997C1241.15 531.997 1237.68 524.593 1235.9 522C1230.63 514.323 1209.47 482.615 1225 480.35M1323 485C1315.76 503.468 1291.88 505.321 1276.78 503.028C1273.68 502.556 1268.63 505.391 1266.04 502.737C1263.35 499.974 1268.2 494.56 1267.6 491.273C1267.02 488.112 1260.56 487 1261.76 483.433C1263.22 479.109 1291.44 481.659 1296 482.538C1304.91 484.255 1313.95 484.157 1323 485M157 576C156.997 552.772 159.733 535.72 165.426 513C166.806 507.491 167.947 493.782 173.034 490.386C176.81 487.865 192.224 493.352 199 491C192.269 488.696 183.68 491.272 179 485C188.592 485.163 197.467 479.749 207 483.317C231.119 492.342 248.305 531.352 226.694 552.683C217.096 562.157 203.845 558.673 192 561.437C179.261 564.41 168.887 571.843 157 576M1207 600C1208.88 569.403 1215.04 538.148 1213.77 507C1213.41 498.294 1208.18 490.882 1208 482C1217.63 486.242 1220.71 505.28 1225.43 514C1230.93 524.175 1242.98 532.614 1247.18 543.078C1256.13 565.387 1222.17 590.178 1207 600M1340 484C1337.39 489.564 1312.74 520.63 1306.11 511.171C1302.16 505.544 1334.24 485.329 1340 484M1354 491C1362.57 493.129 1356.97 534.892 1350.19 539.655C1343.33 544.471 1328.77 533.016 1322.27 531.797C1318.24 531.039 1320.56 537.139 1321 539C1289.28 529.187 1327.49 496.268 1345.04 486.424C1350.59 483.311 1357.08 483.474 1354 491M1360 485.333C1360.89 485.333 1360.89 486.667 1360 486.667C1359.11 486.667 1359.11 485.333 1360 485.333M2134 485C2136.78 486.846 2150.32 502.331 2144.39 505.258C2139.48 507.686 2133.47 488.319 2134 485M1595 486C1590.41 493.941 1582.89 500.544 1579.36 509C1576.55 515.725 1575.99 527.679 1570 532C1573.16 511.151 1570.84 493.987 1595 486M1931 572C1927.78 577.658 1902.96 582.959 1898.82 576.197C1895.39 570.589 1898.64 559.014 1899.52 553C1901.59 538.857 1901.48 523.31 1901.96 509C1902.11 504.441 1899.82 492.695 1903.26 489.26C1908.85 483.672 1929.73 487.912 1937 487.993C1944.61 488.077 1974.7 487.068 1976.71 496.225C1978.46 504.154 1973.28 511.544 1971.72 519C1968.21 535.742 1971.14 556.195 1962.52 571.317C1959.16 577.193 1934.96 576.555 1931 572M1631 534C1619.75 538.054 1610.08 567.262 1623.1 574.167C1635.82 580.914 1654.63 563.227 1659.72 552.999C1669.65 533.027 1653.81 512.064 1635.02 506.787C1606.64 498.817 1590.23 541.733 1595.84 563C1600.69 581.368 1616.54 582.711 1632 587C1584.04 603.249 1569.27 522.036 1608.04 501.501C1659.49 474.252 1700.5 545.329 1654.68 579.015C1648.23 583.755 1640.41 582.601 1633 582.059C1606.81 580.141 1587.75 556.807 1601.72 530.136C1607.69 518.733 1626.94 505.464 1640 511.949C1666.75 525.237 1660.21 578.523 1626.15 570.06C1614.66 567.207 1628.19 539.713 1631 534M1987 497C2002.92 503.234 2023.1 499.368 2040 504.138C2043.23 505.05 2051.58 504.564 2053.73 506.958C2056.8 510.365 2053.12 519.806 2053.02 524C2052.63 540.489 2049.48 559.893 2052 576C2035.51 572.646 2011.97 567.152 1997 560.118C1993.37 558.414 1985.63 559.411 1983.02 556.74C1980.72 554.39 1984.46 546.039 1984.79 543C1986.27 529.317 1982.84 509.487 1987 497M929 595C927.216 584.372 930.192 573.557 927.325 563C926.12 558.563 921.463 549.044 923.87 544.606C924.359 543.704 969.233 548.042 966.115 540.527C964.982 537.796 957.246 539.931 955 539.981C947.49 540.148 925.572 543.929 921.786 534.58C919.521 528.988 947.753 500.55 953.938 500.636C961.082 500.735 963.48 520.208 965.685 525C967.459 528.857 973.901 532.624 973.795 537C973.669 542.187 966.064 548.003 963.261 552C953.784 565.515 942.073 584.97 929 595M2119 594C2107.26 587.271 2094.6 586.259 2081 586C2081.05 576.998 2064.13 592.553 2055.96 579.72C2052.52 574.317 2057.2 564.843 2057.77 559C2059.4 542.356 2051.94 521.347 2060.14 505.266C2062.52 500.598 2068.67 500.765 2073 502.2C2087.87 507.136 2101.54 506.687 2117 509.25C2120.89 509.895 2130.29 509.633 2132.46 513.501C2135.07 518.154 2128.97 527.89 2128.33 533C2125.75 553.366 2119.03 573.263 2119 594M877.941 505.283C885.532 504.717 909.948 534.718 892.997 536.635C885.181 537.519 863.855 537.29 858.19 530.965C851.541 523.543 871.211 505.784 877.941 505.283M1981 506C1984.29 519.012 1980.39 534.845 1978.94 548C1978.65 550.674 1977.03 560.357 1973.18 560.357C1969.73 560.357 1973.56 548.799 1973.76 547C1975.23 533.839 1973.3 517.524 1981 506M1274 508.523C1288.75 508.981 1301.96 526.634 1286.33 537.74C1281.63 541.081 1265.88 540.143 1260.07 539.89C1245.07 539.235 1258.49 508.041 1274 508.523M1386.5 514.5C1385.87 515.127 1386.87 516.127 1387.5 515.5C1388.13 514.873 1387.13 513.873 1386.5 514.5M1948 556C1944.88 555.566 1942.01 557.153 1939 558C1939.84 550.936 1944.36 545.013 1945.77 538C1948.68 523.639 1935.16 501.876 1922.07 520.1C1907.9 539.839 1923.18 576.273 1948 556M1305 515C1304.49 517.552 1304.05 518.408 1302 520L1303 515L1305 515M1933.98 517.898C1950.3 517.065 1942.3 555.997 1930.92 555.997C1916.07 555.997 1918.62 518.682 1933.98 517.898M2011.02 518.112C1995.06 523.613 1991.01 565.056 2014 557.653C2026.07 553.766 2031.31 545.502 2027.18 533C2025.22 527.055 2018.88 515.403 2011.02 518.112M2012.98 522.187C2022.94 521.82 2029.23 549.048 2016.97 549.975C1999.03 551.331 1999.46 522.685 2012.98 522.187M2090 525.655C2073.47 528.474 2067.56 565.667 2085 563.192C2099.58 561.124 2109.75 522.287 2090 525.655M909.298 529.319C911.92 528.857 913.418 533.578 910.625 534.352C907.443 535.233 906.326 529.842 909.298 529.319M1302 528C1309.32 552.626 1287.34 536.427 1302 528M2090.97 529.81C2102.69 529.156 2093.14 556.997 2084.34 556.997C2074.52 556.997 2080 530.423 2090.97 529.81M889 542C886.607 544.379 863.516 558.235 867.593 561.578C869.164 562.865 893.32 543.863 897 542C898.129 555.245 876.901 567.91 868.001 575.536C865.389 577.774 858.725 584.984 854.905 582.041C849.355 577.765 851.596 542.002 856.822 538.398C860.346 535.968 884.054 540.748 889 542M923 568C920.535 565.129 909.023 544.986 913.493 542.969C918.28 540.81 923.162 564.453 923 568M1273 544.32C1293.09 542.232 1289.5 571.941 1276.94 573.871C1271.15 574.761 1254.23 576.634 1249.86 572.06C1235.33 556.833 1263.56 545.301 1273 544.32M1288 574C1290.64 565.284 1299.33 545.974 1310.01 545.064C1316.1 544.544 1324.37 551.268 1330 553.484C1335.23 555.542 1346.76 557.47 1349.14 563.241C1353.36 573.5 1344.89 605.374 1332 603.752C1313.73 601.453 1309.4 574.2 1288 574M905.695 547.625C909.346 547.519 911.972 557.444 913.286 560.001C916.602 566.45 935.239 611.786 916.668 612.001C913.283 612.04 910.238 608.015 906.96 607.066C883.862 600.378 889.223 601.405 892.713 578C893.759 570.981 895.127 547.932 905.695 547.625M1299 547C1297.16 550.167 1295.18 552.177 1292 554C1293.11 549.833 1294.57 547.475 1299 547M1356 546C1358.43 547.074 1359.55 547.797 1361 550C1358.83 549.176 1356.98 548.208 1355 547L1356 546M2011 554C2006.11 554.446 2003.86 552.411 2002 548C2006.12 548.883 2008.64 550.496 2011 554M531 610C540.004 620.664 544.38 632.31 551 645C528.44 649.103 498.351 638.267 475 636C479.998 627.865 486.023 610.303 496 609C489.533 598.088 503.691 579.474 508.863 569C509.884 566.933 513.207 555.467 516.463 556.761C519.491 557.965 521.05 566.226 522.16 569C524.77 575.522 542.621 610.646 531 610M1361 559C1358.21 558.375 1357.63 557.79 1357 555C1359.49 555.97 1360.15 556.475 1361 559M1973 645C1972.47 631.954 1975.41 620.876 1973 608L1977 609C1972.29 595.478 1972.24 590.795 1982 581C1975.14 579.074 1976.59 564.87 1983 562.5C1990 559.912 1997.05 566.035 2003 568.361C2014.71 572.94 2039.15 567.543 2046.28 582C2048.73 586.968 2043.16 610.356 2042.22 617C2041.03 625.418 2043.99 643.504 2033.69 647.667C2016.17 654.751 1990.28 637.034 1973 645M887.432 564.603C890.442 564.766 888.137 573.209 887.957 575C887.247 582.073 885.73 603.755 875.978 603.454C849.449 602.636 857.824 590.035 872 576.938C875.192 573.989 882.666 564.344 887.432 564.603M1383 565L1382 566L1383 565M1365 566C1368.99 566.233 1372.29 567.318 1376 568.787C1378.38 569.732 1380.69 570.773 1383 571.884C1406.01 582.946 1370.43 581.277 1365 566M1973 567C1972.9 569.474 1972.62 571.605 1972 574C1970.74 571.504 1970.72 569.786 1971 567L1973 567M1381 582C1377.29 591.763 1355.36 603.625 1346 608C1346.13 601.913 1349.34 568.141 1357.17 569.13C1366.52 570.312 1370.4 581.641 1381 582M1387 568.333C1387.77 568.333 1387.16 568.831 1386.67 568.667L1387 568.333M591 569C590.693 577.649 589.403 586.683 587 595C583.008 587.264 586.414 577.088 588 569L591 569M1962 648C1955.34 647.861 1936.15 647.849 1931.82 643.073C1925.69 636.312 1932.49 612.335 1933.64 604C1934.35 598.844 1930.81 585.553 1933.92 581.899C1937.39 577.808 1960.52 575.911 1963.57 580.604C1968.27 587.838 1967.36 608.764 1968.32 618C1969.59 630.238 1962.48 637.201 1962 648M1236.14 580.763C1246.3 577.146 1259.83 584.366 1270.01 584.855C1281.06 585.387 1293.65 577.877 1303.98 584.644C1311.84 589.793 1315.8 598.738 1323.1 604.237C1327.76 607.744 1333.74 606.966 1338.43 609.737C1340.54 610.987 1339.57 613.057 1337.69 613.943C1328.35 618.33 1305.02 611.917 1295 610.188C1278.34 607.311 1256.21 610 1239 610C1233.29 610 1213.15 611.684 1209.41 606.744C1206.57 602.992 1231.72 582.335 1236.14 580.763M1923.93 581.469C1936.72 581.722 1926.88 620.488 1926.1 628C1925.78 631.043 1926.07 640.813 1921.07 640.214C1916.61 639.679 1914.96 632.371 1913.59 629C1910.33 620.974 1893.09 593.927 1896.95 585.822C1898.66 582.225 1919.81 581.387 1923.93 581.469M2044 648C2044.41 627.12 2048.55 612.493 2060 596L2054 597C2054.14 588.163 2067.65 583.972 2073.64 591.241C2076.81 595.082 2069.79 610.518 2068.61 615C2062.52 638.199 2073.79 643.469 2044 648M2117 598C2109.72 610.583 2085.52 641.671 2071 645C2075.41 632.982 2068.69 597.606 2082.42 590.824C2087.27 588.431 2097.69 590.859 2103 591.408C2108.31 591.958 2112.61 595.241 2117 598M2049 593C2050.6 596.601 2050.5 598.931 2048 602C2048.01 598.863 2047.99 595.98 2049 593M2017 627C2009.75 630.939 2001.46 639.541 1995 630C2002.87 629.968 2014.15 628.236 2017.73 619.94C2022.9 607.98 2009.95 591.018 1997.01 594.588C1970.34 601.946 1998.19 664.073 2017 627M1651 596C1648.9 598.59 1647.31 599.109 1644 599C1646.07 596.636 1647.9 596.285 1651 596M853 597C851.457 598.267 850.953 598.489 849 599C850.543 597.734 851.048 597.511 853 597M1997.24 598.607C2011.69 593.608 2019.93 619.124 2006.97 623.734C1988.17 630.422 1986.24 602.415 1997.24 598.607M201 603C205.377 590.553 226.86 607.282 208.002 604.076C205.638 603.675 203.395 603.196 201 603M155 600C158.025 604.288 158.625 608.815 154 612C154 607.944 153.689 603.87 155 600M181.218 605.693C186.918 603.897 219.022 606.679 222.876 610.822C234.892 623.736 218.01 651.868 205 656.081C176.401 665.341 153.801 614.331 181.218 605.693M926 609C926.287 611.459 926.305 613.544 926 616C923.893 613.638 923.628 612.129 924 609L926 609M168 611C167.499 614.022 166.463 615.213 164 617C164.683 613.96 165.408 612.729 168 611M1648 614C1646.28 615.608 1645.23 616.243 1643 617C1644 613.964 1644.86 613.506 1648 614M160 621C158.824 620.227 158.773 620.176 158 619C159.635 619.545 159.455 619.365 160 621M564 627C551.455 632.255 547.038 619.676 564 627M160 623C160.642 624.75 160.859 626.127 161 628C159.765 626.037 159.5 625.257 160 623M175 627C175.091 629.195 175.275 630.936 176 633C176.182 630.714 175.873 629.122 175 627M572.432 627.891C576.822 625.747 578.29 633.345 574.568 634.913C570.388 636.674 568.956 629.59 572.432 627.891M569 638C545.671 645.33 562.835 624.587 569 638M177 637L178 641C178.751 638.953 178.656 638.404 177 637M218 654C217.046 662.212 209.278 692.997 198.217 692.997C193.243 692.997 182.21 666.136 181 661C196.293 664.742 204.392 661.043 218 654M76 1175L74 1179C76.7846 1178.27 77.8321 1177.47 76 1175M695 1239L695 1243L698 1243L698 1239L695 1239M348 1248C348.01 1250.35 348.105 1250.61 350 1252L350 1248L348 1248M309 1599C309.482 1601.36 309.636 1601.52 312 1602C311.101 1599.88 311.124 1599.9 309 1599M403 1694L404 1695L403 1694M1557 2107C1557.62 2110.58 1558.42 2112.06 1562 2113C1560.97 2109.81 1560.11 2108.34 1557 2107z"/>
</svg>
