<?xml version="1.0" standalone="yes"?>
<svg xmlns="http://www.w3.org/2000/svg" width="2200" height="2200">
<path style="fill:#0c0c0c; stroke:none;" d="M248 687L248 695C251.618 692.325 252.843 688.913 248 687M982 750C983.498 777.793 1005.95 796.417 1011.26 824C1012.83 832.135 1003.94 843.222 1000.22 850C983.63 880.207 967.277 888.949 933 891C942.489 874.454 952.754 858.825 961.807 842C963.042 839.705 972.093 827.785 967.267 825.761C963.638 824.239 955.501 838.389 954.069 841.001C945.07 857.416 936.431 874.24 926.379 890C924.782 892.504 914.77 903.177 920.523 905.496C928.744 908.809 947.411 900.729 956 898.849C963.313 897.248 976.269 898.039 982.411 894.05C994.211 886.384 1004.25 856.77 1010.74 844C1013.01 839.557 1018.44 833.947 1018.41 828.903C1018.28 810.009 1004.38 790.55 995.391 775C991.284 767.894 988.06 755.068 982 750M1171 892C1174.03 892.654 1176.9 892.939 1180 893C1177.57 895.636 1175.31 897.619 1174 901C1211.04 891.828 1257.79 894.265 1296 896.081C1303.79 896.451 1332.48 904.849 1337.03 894.388C1339.17 889.466 1329.08 890.985 1327 891.06C1312.94 891.56 1299.92 889.021 1286 889C1295.9 885.37 1312.23 880.793 1322.76 881.964C1325.64 882.285 1326.55 886.398 1329.21 886.36C1332.52 886.313 1334.52 879.874 1337.2 878.182C1341.68 875.349 1347.94 875.834 1353 876C1347.9 872.171 1340.06 875.566 1335.82 871.961C1327.92 865.243 1332.36 831.663 1333.22 822C1334 813.187 1342.62 782.415 1334.22 776.571C1332 775.027 1317.59 789.008 1314.68 791.641C1302.01 803.121 1287.45 812.736 1275.16 824.457C1268.39 830.902 1263.88 840.583 1255 844.741C1245.96 848.974 1213.41 825.778 1205.04 820.706C1200.26 817.807 1169.83 801.377 1167.1 804.811C1164.78 807.734 1170.41 824.757 1170.97 829C1173.55 848.406 1179.39 873.854 1171 892M1223 885C1225.02 886.286 1226.76 887.185 1229 888C1221.36 889.596 1190.73 888.457 1185.48 882.178C1181.47 877.377 1184.24 869.543 1183.75 864C1182.43 849.187 1175.98 830.522 1178 816C1185.25 819.794 1188.52 827.891 1196 832C1193.9 829.343 1191.69 826.939 1190 824C1205.79 828.895 1237.11 842.45 1248 854C1245.47 856.73 1244.65 858.277 1245 862C1251.82 852.853 1256.8 854.984 1267 857C1258.71 843.547 1299.92 823.348 1312 814.309C1314.73 812.265 1324.96 799.762 1327.83 800.323C1331.63 801.067 1328.18 814.368 1327.96 817C1326.73 831.538 1326 846.408 1326 861C1326 865.011 1327.63 873.802 1324.18 876.699C1319.49 880.635 1308.81 879.763 1303 881C1288.88 884.006 1272.38 887.483 1258 887.336C1246.94 887.223 1233.53 882.956 1223 885M1945 917C1952.03 925.746 1965.77 956.887 1977 929C1981.49 933.78 1985.72 948.479 1992.13 949.696C1997.58 950.732 2001.84 946.153 2007 946.791C2011.38 947.333 2015.13 951.545 2019.43 948.179C2026.99 942.258 2023.14 929.484 2035 929.03C2058.47 928.131 2084 945.954 2100.2 920.32C2104.81 913.032 2110.89 894.548 2096.98 892.501C2091.98 891.766 2080.91 896.048 2077.25 891.189C2070.69 882.483 2082.77 867.259 2081.16 858.246C2080.04 851.979 2069.75 851.068 2065 852.94C2052.05 858.044 2044.67 873.008 2031 879C2031.78 873.089 2033.48 851.824 2023.86 851.606C2018.48 851.484 2014.54 858.34 2009.47 857.736C2006.43 857.374 2005.18 852.726 2001.93 851.849C1997.32 850.606 1994.49 854.98 1990.25 855.08C1986.71 855.163 1984.77 850.064 1980.97 849.446C1971.51 847.905 1965.35 854.984 1958 859C1957.82 842.441 1943.75 847.263 1936.93 858.097C1929.72 869.546 1922.46 898.298 1921.42 912C1919.83 932.852 1937.75 936.695 1945 917M1950 889C1959.46 881.132 1958.74 866.556 1967.08 858.026C1971.26 853.757 1985 848.837 1984.31 859.012C1983.66 868.622 1976.98 879.368 1973 888C1979.68 885.126 2011.85 831.619 2003.9 874C2003 878.797 2000.79 883.08 2001 888C2005.67 883.421 2014.44 853.741 2023.48 857.668C2033.03 861.818 2021.37 887.764 2037 883.823C2049.74 880.611 2058.82 851.877 2073.5 856.58C2078.82 858.286 2068.97 886.928 2073.78 893.923C2080.08 903.072 2094.22 892.013 2099.28 899.502C2105.76 909.11 2091.78 924.907 2084 928.97C2067.48 937.588 2037.54 921.73 2020 921C2024.14 930.197 2021.37 937.401 2017 946C2003.77 939.595 2015.22 925.632 2004 918C2004 921.669 2004.08 925.347 2003.68 929C2003.38 931.656 2003.07 934.45 2002.23 936.997C1993.42 963.776 1982.88 918.403 1981.87 918.205C1973.36 916.543 1970.99 943.031 1957.15 932.314C1948.01 925.24 1955.52 910.98 1948 902C1942.71 922.042 1920.42 936.188 1926.72 906C1929.31 893.543 1934.75 873.076 1940.14 862.003C1941.86 858.474 1946.14 852.29 1950.72 852.565C1963.79 853.352 1951.09 883.591 1950 889M1616 929C1627.55 927.391 1645.12 918.175 1641.22 904.008C1639.91 899.24 1632.86 896.041 1632.56 891.697C1632.03 884.268 1640.69 877.953 1639.88 869C1637.31 840.582 1612.98 869.397 1606.98 879C1603.03 885.321 1598.63 892.021 1596 899C1581.07 888.858 1565.25 876.354 1551 865L1561 865C1557.18 860.843 1531.88 851.207 1532.57 861.03C1533.53 874.604 1549.6 892.946 1556.92 904C1569.06 922.334 1574.41 945.377 1588.83 962.302C1601.22 976.849 1625.56 970.257 1627.69 949C1628.73 938.629 1620.87 936.059 1616 929M1604 926C1608.92 932.519 1620.93 935.816 1622.63 944.008C1624.88 954.783 1608.16 972.699 1597.34 965.175C1580.04 953.143 1573.72 922.444 1563.48 905.007C1555.75 891.841 1542.65 879.732 1538 865C1550.63 868.526 1592.73 897.56 1594 911C1607.71 900.588 1609.69 865.936 1629.82 861.432C1637.01 859.822 1636.1 873.289 1634.61 877C1631.92 883.697 1617.62 891.535 1617 896.902C1616.9 897.829 1631.97 897.192 1634.58 901.244C1645.67 918.487 1615.11 926.166 1604 926M525 897C524.146 898.976 523.361 900.341 522 902C520.643 898.47 519.131 896.15 516 894C510.525 910.712 512.574 938.697 511.96 957C511.885 959.214 508.95 978.312 512.607 976.894C521.405 973.484 519.821 940.814 520.677 933C520.98 930.241 519.772 919.869 523.549 919.071C528.645 917.995 544.398 930.249 550.999 931.553C558.147 932.964 562.231 931.278 569 935C575.057 919.503 571.748 905.971 571.182 890C571.116 888.148 575.592 871.373 570.647 874.4C554.476 884.299 575.499 920.285 555 923.874C536.834 927.054 534.597 903.57 525 897M1631 873C1628.7 875.602 1627.13 877.725 1626 881C1628.6 879.026 1630.73 876.371 1633 874L1631 873M194 931C185.774 931.418 177.701 937.026 179 946C181.984 944.216 195.706 931.026 195.611 942.052C195.506 954.308 174.596 962.378 167.443 951.834C156.564 935.799 172.355 901.414 192.915 902.631C200.128 903.058 205.234 914.313 211 918C209.547 903.345 195.553 888.951 181 898.92C166.359 908.949 157.054 925.195 158.505 943C160.022 961.624 171.148 957.845 183.579 962.26C188.258 963.921 187.427 970.982 193.051 972.297C206.852 975.522 223.044 954.138 226.121 943C232.453 920.078 191.979 912.233 194 931M210 929C207.979 933.115 206.897 937.369 203 940C199.398 931.88 196.289 920.621 210 929M213.614 929.028C219.773 926.63 221.182 937.455 220.236 941C217.748 950.335 207.121 964.126 197.067 966.024C184.757 968.348 208.571 941.686 209.889 939C211.03 936.676 211.015 930.04 213.614 929.028M105 1237C116.133 1231.1 142.064 1223.9 144.702 1245C145.5 1251.39 140.126 1255.88 139.269 1262C137.573 1274.13 145.84 1287.49 130 1292C134.241 1298.19 142.219 1295.49 144.819 1288.98C147.141 1283.16 140.683 1260.13 146.682 1258C151.686 1256.22 158.676 1264.06 165.952 1261.06C170.027 1259.38 174.939 1248.72 179.694 1250.62C188.119 1253.98 177.566 1274.42 184.645 1281.5C190.005 1286.86 199.252 1282.91 202 1277C179.565 1279.6 189.768 1269.7 188.035 1254C187.38 1248.07 180.384 1242.62 184.575 1236.5C188.979 1230.07 216.028 1223.71 224 1223C213.2 1206.16 198.038 1236.52 187.499 1226.39C177.242 1216.54 193.935 1209.49 194.072 1200C194.249 1187.71 174.218 1182.39 181.277 1167.46C183.452 1162.86 188.096 1161.19 190.975 1157.34C192.219 1155.68 194.124 1149.91 190.576 1149.43C186.838 1148.92 183.184 1155.57 181.345 1158C174.75 1166.71 173.256 1176.03 178.644 1186C181.487 1191.26 192.013 1196.9 187.702 1203.8C183.306 1210.84 169.877 1194.03 163.008 1193.88C154.918 1193.71 154.868 1205.87 147.901 1206.38C142.406 1206.78 135.023 1198.36 134.935 1193.15C134.83 1186.91 144.141 1183.09 145.594 1176.78C148.376 1164.71 135.883 1156.57 131 1147C122.448 1153.59 139.275 1163.06 140.624 1170C142.829 1181.35 128.297 1182.11 128.414 1191.05C128.644 1208.69 152.986 1208.14 144.291 1227.84C141.387 1234.42 104.157 1210.15 105 1237M941 1148C940.118 1153.87 944.876 1159.44 943.182 1164.88C935.601 1189.23 906.849 1187.56 891.086 1204.02C875.959 1219.82 881.674 1244 868.683 1260C853.862 1278.26 833.196 1273.39 818.019 1286.26C806.086 1296.38 793.984 1330.84 805.967 1344.53C811.5 1350.85 821.536 1346.97 825.502 1340.88C832.453 1330.21 833.992 1303.3 846.027 1298.28C858.223 1293.2 875.314 1298.88 886.562 1290.48C906.511 1275.59 899.252 1253.85 906.479 1234.01C910.329 1223.44 925.205 1217.63 931.996 1208.86C938.084 1201 934.033 1193.01 937.442 1185C942.249 1173.71 949.433 1168.05 959.922 1162.91C961.709 1162.03 969.25 1158.98 968.679 1156.34C968.146 1153.88 964.411 1155.04 962.989 1155.64C947.966 1162 952.029 1155.47 941 1148M429 1315C478.848 1312.75 526.08 1327.18 575.085 1319.24C581.384 1318.22 589.963 1321.96 595.646 1319.75C600.247 1317.95 589.008 1309.72 590.376 1305.04C594.587 1290.63 607.978 1258.71 618.075 1247.54C623.747 1241.27 642.867 1248.35 649.997 1249.28C670.303 1251.92 694.436 1237.96 717 1242C717 1212.49 695.138 1209.58 685 1185C675.944 1186.8 667.37 1191.44 658 1190.92C646.413 1190.28 624.027 1183.82 613.459 1190.26C594.889 1201.58 591.137 1240.09 570.919 1248.17C547.954 1257.35 515.59 1240.52 492.222 1243.86C486.554 1244.66 480.238 1256.61 476.492 1260.68C461.786 1276.64 436.803 1294.48 429 1315M1529 1332C1541.56 1328.92 1559.17 1330.8 1572 1333.1C1575.34 1333.7 1585.65 1339.6 1587.81 1338.9C1600.99 1334.62 1600.12 1299.85 1608.94 1290.51C1617.14 1281.83 1654.97 1291.87 1666 1293C1663.56 1283.02 1636.81 1277.48 1629.75 1266C1621.18 1252.08 1637.68 1220.26 1639.32 1205C1639.65 1201.86 1644.51 1187.67 1642.47 1186.62C1637.64 1184.12 1611.97 1210.06 1607 1213.64C1589.13 1226.53 1560.59 1244.24 1547.85 1262.04C1544.26 1267.05 1545.36 1274.21 1543.35 1280C1537.34 1297.26 1529.73 1313.38 1529 1332M931 1189C931 1213.36 911.089 1213.17 901.619 1232C893.228 1248.69 904.622 1273.51 884.959 1286.07C871.735 1294.51 851.018 1286.38 839.187 1296.55C829.51 1304.86 830.406 1323.86 823.959 1335C821.641 1339 816.983 1346.4 811.526 1342.16C802.075 1334.8 811.657 1300.93 817.753 1293.09C824.168 1284.84 832.375 1286.9 841 1283.9C852.662 1279.83 861.823 1273.88 870.575 1265.18C882.673 1253.15 880.258 1232.94 886.362 1218C893.613 1200.26 913.781 1192.9 931 1189M617 1233C613.669 1251.91 600.15 1277.06 590.88 1294C587.94 1299.37 585.255 1309.56 579.802 1312.74C564.79 1321.5 541.214 1317.56 525 1315.3C497.921 1311.52 468.347 1310.01 441 1310C446.34 1294.25 470.759 1277.12 481.638 1264C485.249 1259.64 490.698 1250.76 497.003 1250.53C501.856 1250.35 505.256 1255.01 510 1255.47C523.653 1256.77 539.66 1252.35 554 1253.08C560.539 1253.41 569.69 1256.05 575.761 1252.62C593.438 1242.62 600.058 1210.83 613.835 1196.5C618.312 1191.84 625.628 1195.08 631 1195.74C644.737 1197.42 670.525 1188.64 681.941 1194.5C692.26 1199.8 701.064 1215.11 707.515 1224.44C709.413 1227.18 714.945 1233.49 711.156 1236.74C706.76 1240.51 694.52 1237.66 689 1238.15C667.056 1240.13 636.045 1245.62 617 1233M1634 1198C1637.85 1219.08 1623.43 1248.32 1619 1269C1627.07 1268.03 1638.78 1278.44 1643 1285C1633.94 1285 1615.04 1279.52 1607.28 1283.82C1602.75 1286.33 1603.18 1293.3 1599.19 1295.47C1594.5 1298.01 1589.86 1291.64 1583.57 1296.85C1577.21 1302.12 1567.72 1318.08 1577.37 1325.15C1580.32 1327.32 1585.61 1323.85 1587.59 1326.05C1589.27 1327.9 1586.41 1329.88 1584.85 1330.16C1577.95 1331.39 1538.67 1327.99 1535.94 1321.85C1531.14 1311.05 1547.84 1275.2 1553.33 1265.04C1557.71 1256.92 1568.04 1251.37 1574.88 1245.3C1592.95 1229.29 1613.01 1210.04 1634 1198M168 1215C183.053 1218.23 180.792 1216.49 175.639 1225.95C174.594 1227.87 180.634 1232.58 179.986 1236.02C178.245 1245.25 160.882 1264.49 152 1253C161.546 1247.95 147.512 1245.68 148.505 1237.28C148.919 1233.77 165.633 1223.47 150 1229C148.986 1222.22 157.605 1205.27 163.073 1203.07C175.837 1197.94 174.667 1209.46 168 1215M905.818 1205.29C902.926 1207.51 904.393 1214.75 908.631 1211.91C913.065 1208.95 910.405 1201.77 905.818 1205.29M1242 1209C1233.23 1205.46 1228.24 1222.65 1224.13 1229C1216.53 1240.75 1198.07 1271.63 1207.17 1285.9C1223.37 1311.29 1246.46 1269.68 1246.96 1255C1247.42 1241.3 1235.23 1219.98 1242 1209M1210 1273C1225.24 1278.77 1235.57 1263.1 1236.84 1249C1237.1 1246.14 1237.34 1234.21 1232.08 1235.08C1227.52 1235.83 1222.64 1245.51 1218 1248C1218.81 1243.48 1231.09 1221.01 1236.11 1224.97C1244.91 1231.91 1243.01 1256.45 1240.83 1265.99C1236.98 1282.82 1210.02 1299.18 1210 1273M1231 1240C1242.51 1266.63 1197.1 1280.42 1221.49 1251C1224.57 1247.28 1227.72 1243.55 1231 1240M1885 1276C1898.37 1270.64 1904.35 1244.27 1921.91 1246.87C1926.53 1247.55 1926.12 1277.26 1931.83 1283.79C1946.27 1300.32 1971.52 1255.43 1973 1244C1959.39 1249.84 1957.38 1282.8 1939.05 1282.41C1922.62 1282.06 1933.09 1251.65 1928.61 1244.28C1918.09 1227 1887.67 1267.23 1885 1276M1588.87 1300.02C1604.43 1298.23 1594.09 1321.62 1583.06 1322.33C1572.91 1322.97 1580.68 1300.96 1588.87 1300.02M572 1322C574.064 1322.72 575.805 1322.91 578 1323C575.936 1322.28 574.196 1322.09 572 1322M928 1547C923.107 1561.4 917.65 1585.89 906 1596C908.06 1585.79 913.065 1576.45 914.155 1566C914.347 1564.16 914.389 1554.47 909.837 1557.55C903.886 1561.57 905.887 1588.42 900 1596C898.129 1585.19 898.664 1573.95 896.919 1563C896.743 1561.9 895.649 1550.28 893.112 1553.11C889.623 1556.99 897.915 1590.44 893.603 1590.48C886.308 1590.56 879.837 1562.32 873 1558C873.541 1562.8 885.357 1587.06 884.36 1588.63C882.699 1591.25 875.051 1583.93 874 1582.94C865.191 1574.63 859.458 1557.94 850 1552C851.66 1566.54 863.985 1573.35 868 1586C864.966 1583.56 837.454 1559.87 837.224 1566.06C836.893 1574.96 868.703 1588.32 875 1594C862.349 1591.24 850.199 1583.45 839 1577.15C835.997 1575.46 830.369 1569.39 826.563 1571.47C824.225 1572.74 825.628 1584.9 825.257 1588C823.733 1600.73 820.982 1616.09 822.185 1628.86C822.69 1634.21 827.21 1636.89 826.905 1643C826.687 1647.38 817.933 1661.49 821.848 1664.19C834.887 1673.15 864.471 1673.39 880 1675.09C890.376 1676.22 901.643 1671.79 902 1686C913.493 1670.82 930.996 1673.06 951 1674.91C959.137 1675.66 974.389 1678.33 980.592 1670.96C977.691 1674.4 971.18 1654.64 971.038 1651C970.114 1627.38 963.708 1604.11 958.71 1581C957.692 1576.29 958.023 1560.11 952.609 1558.11C950.251 1557.23 946.977 1564.7 945.808 1566.21C939.957 1573.81 932.318 1586.78 923 1590C926.464 1585.91 945.459 1558.19 941.999 1559.11C928.055 1562.79 918.92 1594.94 907 1604C915.734 1586.41 930.069 1567.59 931 1547L928 1547M952 1567C958.533 1592.77 962.517 1618.64 964.922 1645C965.294 1649.08 969.695 1667.28 966.439 1669.18C956.766 1674.82 941.905 1657.47 933 1654.31C930.705 1653.49 921.336 1648.87 919.761 1652.51C919.456 1653.22 945.379 1664.59 948 1669C940.317 1670.92 914.419 1674.2 907.822 1669.6C904.28 1667.13 906.624 1659.47 906.864 1656C907.75 1643.16 902.026 1626.28 906.94 1614.01C910.354 1605.48 922.428 1598.98 929 1592.86C937.316 1585.13 942.803 1573.5 952 1567M183 1655C182.32 1665.63 181.157 1673.24 182.557 1684C186.085 1711.13 208.431 1725.32 232.307 1705.89C253.949 1688.28 284.223 1630.64 264.036 1603.22C246.356 1579.21 222.091 1583.9 203.837 1605.14C193.944 1616.65 192.438 1631.05 185.82 1643.86C173.814 1667.11 142.036 1696.98 117 1700.28C107.994 1701.47 95.5521 1706.82 87.1874 1700.31C73.7154 1689.84 72.6753 1668.13 72.9814 1653C73.7622 1614.41 87.6575 1565.41 137 1587.66C142.456 1590.12 149.022 1589.76 153.815 1593.65C179.764 1614.7 153.374 1681.18 123 1684.52C110.87 1685.86 102.244 1674.49 107.263 1663C113.843 1647.94 129.558 1636.37 134.157 1621C138.997 1604.83 120.056 1599.32 108 1601.32C101.442 1602.4 93.793 1606.48 89.285 1611.34C88.2964 1612.41 84.1417 1619.18 88.2472 1619.24C97.1467 1619.37 120.126 1589.23 128.489 1614.02C130.505 1620 126.885 1625.38 123.482 1630C112.955 1644.3 81.7542 1695.86 125 1689.73C136.976 1688.03 145.826 1674.98 152.485 1666C164.06 1650.4 173.469 1626.56 167.478 1607C159.904 1582.27 120.038 1570.35 97 1579.67C66.7798 1591.9 57.8481 1659.04 72.4278 1685C76.1023 1691.54 79.8345 1703.74 87.1557 1706.94C130.996 1726.09 155.749 1676.69 183 1655M832.549 1581.06C838.679 1578.61 851.033 1589.42 856 1592.01C866.85 1597.66 893.087 1602.7 898.178 1615.06C901.068 1622.07 897.58 1631.57 898.139 1639C898.581 1644.88 905.996 1667.72 898.499 1671.04C886.057 1676.56 856.265 1667.72 843.001 1665.52C838.957 1664.84 830.476 1662.63 828.513 1658.53C826.254 1653.8 830.156 1632.78 830.019 1626C829.886 1619.46 826.199 1583.59 832.549 1581.06M2006 1580.78C1979.86 1587.41 1954.49 1636.5 1957.16 1662C1958.96 1679.16 1987.37 1688.11 2002 1684.36C2026.76 1678 2035.36 1627.33 2030.38 1606C2028.04 1596.03 2018.57 1577.59 2006 1580.78M2020 1603L2016 1602C2018.14 1621.1 2026.11 1638.37 2017 1657C2018.76 1656.1 2020.11 1655.54 2022 1655C2019.35 1684.24 1961.01 1688.52 1960.68 1659.98C1960.42 1637.3 1978.32 1610.6 1993.37 1594.46C2005.42 1581.54 2019.92 1584.13 2020 1603M193 1640C193.686 1630.28 199.245 1622.66 203.099 1614.01C213.57 1590.5 248.67 1580.72 260.919 1608C268.95 1625.89 260.36 1651.03 254.047 1668C250.746 1676.88 241.388 1697.73 229.049 1695.34C213.23 1692.28 224.388 1656.24 222.541 1646C221.751 1641.62 219.725 1631.16 213.842 1631.08C207.858 1631.01 199.044 1638.05 193 1640M520 1627C520.566 1620.92 522.037 1614.52 518.138 1609.16C512.839 1601.87 503.7 1602.36 503 1612C490.37 1603.11 471.036 1593.35 458.382 1611.02C453.167 1618.31 452.746 1628.27 447 1635C447.516 1629.98 457.201 1606.45 453.16 1603.54C449.797 1601.12 446.35 1614.24 445.659 1616C439.328 1632.12 419.593 1647.84 416 1663C430.315 1660.65 432.803 1643.52 442 1635C442.028 1649.27 432.805 1669.52 441.408 1682.43C448.468 1693.03 455.794 1676.57 463.558 1677.49C467.445 1677.95 467.198 1684.3 471.258 1685.22C483.912 1688.08 503.995 1678.53 510.051 1668C515.566 1658.41 514.881 1646.11 519.779 1636.23C522.051 1631.65 527.44 1630.5 528.635 1624.99C529.707 1620.05 529.742 1602.47 539.867 1607.67C551.116 1613.45 559.341 1638.47 545.584 1646.7C541.067 1649.4 528.322 1643.38 526.328 1650.37C524.828 1655.62 532.791 1664.96 534.583 1670C536.932 1676.61 534.798 1683.29 536 1690L538 1690C541.167 1681.39 542.908 1664.32 549.212 1657.74C552.483 1654.32 568.302 1666.16 569.677 1658.54C570.487 1654.06 554.743 1654.44 553.228 1648.68C550.249 1637.36 565.047 1625.1 565.123 1614.86C565.195 1605.22 556.053 1617.82 553.913 1617.24C548.242 1615.69 547.594 1606.18 542.893 1602.87C525.991 1590.96 526.5 1622.55 520 1627M1291 1600C1287.4 1608.45 1269.99 1608.92 1262 1609.01C1242.65 1609.22 1223.24 1611.4 1204 1611.96C1197.75 1612.14 1186.15 1608.79 1180.83 1613.26C1177.35 1616.18 1179.01 1630.52 1179 1635C1178.96 1647.45 1176.8 1666.94 1188.1 1675.63C1197.69 1683 1211.57 1681.98 1220.58 1690.6C1229.64 1699.27 1225.05 1717.58 1240.53 1717.55C1248.87 1717.53 1243.97 1685.55 1248.8 1680.82C1255.06 1674.7 1269.04 1675.52 1276.82 1667.8C1292.01 1652.72 1289.21 1631.6 1297.28 1614.29C1299.52 1609.49 1314.68 1615.2 1312.71 1607.5C1312.69 1607.44 1293.76 1601.73 1291 1600M467 1663C468.094 1647.19 477.201 1633.97 476.992 1618C476.963 1615.82 474.563 1604.53 479.59 1606.11C483.625 1607.37 482.028 1617.84 481.992 1621C481.866 1632.35 478.808 1657.73 467 1663M483 1675C470.934 1666.64 485.368 1638.22 486.742 1627C487.317 1622.31 485.391 1613.3 489.722 1609.97C498.711 1603.05 493.528 1629.88 493.024 1632C491.618 1637.91 489.353 1643.91 489.045 1650C488.582 1659.18 486.413 1666.51 483 1675M492 1667C493.559 1653.16 496.449 1633.99 501.243 1621C502.381 1617.92 507.138 1608.46 511.475 1609.76C516.78 1611.35 516.578 1621.82 515.635 1625.93C514.175 1632.3 506.472 1631.08 503.306 1636.15C497.851 1644.87 503.279 1661.77 492 1667M466.762 1610.03C471.561 1609.12 467.99 1622.41 467.675 1625C466.489 1634.76 466.651 1674.8 453.078 1676.21C446.623 1676.89 444.9 1664.35 445.059 1660C445.401 1650.66 456.227 1612.02 466.762 1610.03M1241 1706C1229.81 1701.29 1230.12 1685.28 1221.22 1678.19C1212.01 1670.84 1195.97 1669.86 1188.45 1662.58C1181.72 1656.06 1178.04 1622.68 1188.28 1617.82C1205.69 1609.56 1239.79 1615.04 1259 1615C1265.16 1614.98 1287.62 1607.79 1289.25 1614.21C1293.95 1632.67 1279.32 1653.84 1265 1663.14C1258.89 1667.11 1252.53 1666.1 1247.28 1672.03C1239.59 1680.72 1239.65 1695.04 1241 1706M1524 1672C1532.54 1669.63 1541.31 1678.62 1550 1680.41C1564.07 1683.3 1584.09 1687.38 1598 1687.96C1603.57 1688.19 1616.53 1684.27 1621.06 1686.78C1623.86 1688.33 1623.36 1693.66 1626 1696C1630.1 1682.54 1651.8 1684.35 1662.96 1675.52C1666.44 1672.78 1679.53 1661.82 1668 1662C1668.98 1645.86 1651.13 1653.98 1645.26 1645.5C1640.78 1639.04 1646.19 1623.46 1639.27 1618.16C1637.36 1616.71 1624.05 1617.05 1621 1617.01C1606.43 1616.81 1593.26 1613.4 1579 1611.36C1574.83 1610.77 1566.12 1609.53 1562.82 1612.82C1556.06 1619.57 1562.54 1635.46 1555.4 1642.26C1543.84 1653.26 1528.07 1652.25 1524 1672M2024 1620C2021.19 1617.42 2020.7 1614.73 2021 1611C2024.31 1613.54 2024.78 1615.98 2024 1620M1567.86 1616.82C1572.25 1613.88 1580.52 1617.05 1585 1618.2C1598.42 1621.62 1624.4 1616.86 1635.26 1625.25C1640.35 1629.18 1641.73 1647.39 1636.72 1651.34C1621.98 1662.94 1580.29 1667.76 1564.5 1655.46C1562.78 1654.12 1565.79 1618.21 1567.86 1616.82M231 1701C225.747 1712.12 202.396 1713.61 194.505 1704.8C184.086 1693.17 183.038 1665.91 188.578 1652.02C190.37 1647.53 210.626 1633.21 214.761 1637.08C231.901 1653.1 198.241 1691.14 231 1701M510.882 1635.89C515.31 1635.31 508.978 1675.87 496.151 1676C499.399 1675.97 503.05 1636.91 510.882 1635.89M1550 1660C1551.26 1662.21 1554.28 1668.44 1556.66 1669.39C1558.29 1670.04 1567.55 1665.9 1571 1666.14C1595.54 1667.84 1616.61 1665.44 1640 1660C1639.65 1663.44 1638.92 1666.67 1638 1670C1644.66 1667.12 1643 1658.62 1649.07 1654.86C1655.6 1650.83 1665.7 1657.3 1664.09 1665C1660.78 1680.78 1638.06 1681.21 1626 1680.36C1615.4 1679.62 1604.81 1683.03 1594 1681.82C1572.35 1679.4 1550.96 1671.19 1530 1668C1531.5 1660.58 1544.83 1644.49 1554.18 1648.98C1560.55 1652.03 1554.84 1659.65 1550 1660M539 1667C535.923 1662.72 533.495 1658.06 532 1653C542.543 1653 548.768 1657.85 539 1667M1277 1659C1274.35 1668.51 1260.28 1675.45 1251 1674C1252.09 1670.91 1272.73 1660.47 1277 1659M476 1664C473.508 1691.99 464.742 1668.7 476 1664M1220 1684C1212.31 1682.29 1193.37 1677.46 1190 1670C1200.63 1670.02 1214.04 1674.5 1220 1684M444 1676C446.109 1677.95 447.048 1679.29 448 1682C444.986 1680.63 443.379 1679.44 444 1676M1664 1688C1661.98 1691.25 1660.84 1694.27 1660 1698C1662.78 1695.04 1664.5 1692.14 1664 1688M1625 1704C1625.75 1709.65 1628.8 1712.09 1634 1714C1632.19 1709.44 1629.64 1705.84 1625 1704M1642 1716C1646.01 1715.09 1647.87 1713.49 1650 1710C1646.28 1711.2 1644.1 1712.7 1642 1716M554.667 1791.33C554.222 1791.78 555.278 1791.72 555.333 1791.67C555.778 1791.22 554.722 1791.28 554.667 1791.33M103 2098L103 2101C130.646 2106.51 166.228 2112.95 196 2109.44C201.386 2108.8 221.529 2107.87 224.239 2102.47C225.664 2099.63 213.4 2100.23 212 2099.83C197.736 2095.74 185.343 2098.64 171 2102C171 2081.95 171.953 2062.03 172.001 2042C172.018 2034.52 170.594 2019.94 173.94 2013.3C179.444 2002.39 204.637 2012.62 210 2018C213.26 2007.53 209.197 2000.56 210.321 1990C213.874 1956.61 213.594 1923.23 218 1890C226.461 1889.01 219.395 1880.89 217 1877C203.53 1888.17 169.612 1878.3 153 1877.14C148.904 1876.85 132.799 1874.08 130.474 1877.82C127.223 1883.05 130.035 1902.32 129.997 1909C129.869 1931.62 124.26 1954.3 124.008 1977C123.959 1981.39 120.299 2003.5 121.891 2005.2C130.77 2014.72 159.629 2000.2 167.499 2013.28C170.969 2019.04 168.004 2027.83 167.323 2034C165.58 2049.79 163.986 2066.14 164 2082C164.004 2086.01 168.058 2100.3 164.554 2102.17C159.78 2104.72 150.131 2101.34 145 2100.7C131.409 2099.01 116.585 2098.5 103 2098M207 2004C188.014 2004 148.265 2011.14 131.822 2000.2C126.181 1996.44 131.218 1978.45 131.776 1973C133.885 1952.37 134.56 1929.76 134.981 1909C135.108 1902.77 132.352 1887.82 137.219 1883.04C145.891 1874.53 183.961 1885.32 195 1886.42C199.126 1886.83 209.766 1885.3 212.1 1889.78C215.434 1896.18 211.087 1910.82 211.008 1918C210.688 1946.75 202.681 1975.51 207 2004M511.003 1898.9C500.826 1902.61 499.781 1913.71 500.021 1923C500.106 1926.26 500.909 1936 506.303 1934.16C516.429 1930.71 524.13 1924.72 527.089 1914C529.817 1904.11 520.614 1895.4 511.003 1898.9M184 1951C180.49 1953.23 178.872 1953.9 175 1952C186.492 1945.43 195.394 1929.52 192.323 1916C190.772 1909.17 187.739 1899.42 178.999 1900.48C167.562 1901.87 154.48 1917.31 156.344 1929C157.248 1934.67 162.588 1941.22 161.314 1947C158.04 1961.86 144.817 1969.22 154.852 1985.95C160.813 1995.89 172.205 1993.78 178.146 1984.99C184.148 1976.11 183.999 1961.35 184 1951M515.8 1902.35C529.049 1902.93 520.095 1926.86 509.199 1926.41C499.93 1926.03 507.448 1901.98 515.8 1902.35M182 1911L179 1904C194.045 1903.5 189.03 1949.42 170.186 1946.03C154.793 1943.27 161.437 1899.94 182 1911M883 1935L888 1933C889.558 1954.92 912.59 1943.96 913.815 1928C914.564 1918.25 905.074 1906.06 895.022 1912.39C887.365 1917.2 884.802 1926.68 883 1935M900.097 1915.89C914.512 1914.25 909.835 1941.67 897.147 1941.89C888.636 1942.04 891.777 1916.83 900.097 1915.89M44 1918L47 1918C45.3279 1916.88 45.6721 1916.88 44 1918M2090 1924C2086.36 1928.04 2074.1 1924.05 2068 1926.08C2048.12 1932.68 2014.01 1940.86 1998.22 1954.51C1987.81 1963.51 1976.95 1976.67 1970.78 1989C1954.97 2020.57 1974.81 2061.59 2010 2069.83C2069.63 2083.78 2153.48 2018.2 2117.24 1956C2110.16 1943.86 2102.63 1931 2090 1924M2035 2066C2046.24 2050.62 2082.64 2040.5 2083.99 2017.56C2085.02 1999.96 2079.68 1971.74 2070.94 1956.14C2068.8 1952.31 2057.87 1938.04 2061.03 1934.1C2079.89 1910.6 2113.5 1954.13 2119.85 1968C2141.7 2015.73 2075.6 2065.94 2035 2066M1218 2014C1221.69 2012.29 1225.53 2003.52 1228.96 2003.52C1233.36 2003.52 1236.44 2017.56 1238.33 2020.68C1245.05 2031.77 1255.16 2038.37 1268 2038.82C1302.22 2040.04 1323.51 1981.58 1309.95 1955.02C1304.72 1944.78 1290.3 1949.08 1284 1939C1289.15 1939.29 1289.62 1935.62 1284.75 1933.74C1249.81 1920.24 1236.19 1972.87 1228.54 1993.98C1225.86 2001.36 1219.25 2005.83 1218 2014M1234 1986C1234.65 1971.98 1246 1954.79 1256.18 1945.54C1258.28 1943.62 1266.76 1936.31 1269.91 1938.57C1272.24 1940.25 1264.96 1949.19 1263.84 1950.87C1256 1962.59 1246 1978.46 1234 1986M495 1965C495.186 1985.14 500.571 2006.57 491.375 2025.86C482.094 2045.34 456.081 2070.27 454.76 2092C454.093 2102.99 450.259 2154.59 473.813 2144.06C487.755 2137.82 479.928 2105.61 482.505 2094C485.922 2078.61 503.955 2061.06 513 2048C520.077 2059.75 523.89 2074.19 528.746 2087C533.435 2099.36 538.304 2120.72 548.69 2129.49C560.132 2139.15 564.395 2111.08 563.845 2105C560.974 2073.28 533.172 2047.7 540.508 2015C541.867 2008.94 541.399 1976.96 546.659 1974.64C549.335 1973.47 552.607 1980.43 553.743 1982C559.588 1990.05 571.712 1998.82 573.473 2009.22C574.551 2015.58 535.643 2039.26 566.001 2040.81C590.597 2042.06 606.985 2009.32 595.055 1989C585.214 1972.24 557.354 1947.05 538.881 1940.85C530.179 1937.92 519.894 1940.96 511 1940.79C505.1 1940.67 496.84 1937.94 491.179 1939.96C484.339 1942.4 480.994 1954.19 477.829 1959.98C467.832 1978.27 451.075 1994.21 469.235 2013.93C473.824 2018.91 488.821 2022.97 490.47 2012.77C491.716 2005.06 482.235 2000.59 480.408 1993.92C478.171 1985.76 489.601 1970.38 495 1965M1279 1941C1274.48 1950.23 1269.04 1959.23 1263.69 1968C1259.93 1974.17 1256.38 1980.47 1253.28 1987C1250.27 1993.33 1247.57 2005.85 1241.47 2009.89C1236.56 2013.15 1233.9 1997.01 1234.82 1994.08C1239.14 1980.29 1257.79 1965.17 1266.25 1953C1269.78 1947.93 1272.05 1941.07 1279 1941M2011 2051C2036.52 2044.57 2055.14 2002.78 2047.43 1979C2045.39 1972.7 2029.24 1953.19 2032.26 1947.72C2044.96 1924.71 2065.8 1954.58 2069.87 1966C2074.6 1979.31 2085.34 2009.33 2078.29 2022.86C2068.53 2041.57 2025.83 2079.92 2011 2051M1283 1943C1296.08 1953.85 1320.96 1957.11 1301 1978C1307.31 1976.55 1297.93 1992.03 1296.44 1995C1287.64 2012.54 1283.46 2033.09 1263 2033C1274.97 2008.44 1296.51 1984.21 1303 1957C1279.76 1970.15 1282.72 2017.99 1258.5 2030.62C1246.4 2036.93 1255.43 2017.78 1257.18 2015C1269.4 1995.55 1280.89 1973.66 1291 1953C1276.53 1963.01 1267.34 1987.87 1258.72 2003C1256.21 2007.39 1252.24 2019.44 1247.46 2021.46C1237.26 2025.75 1249.46 2003.86 1250.37 2002C1259.52 1983.22 1268.54 1958.29 1283 1943M515 2039C503.759 2053.03 484.369 2072.99 479.082 2090C475.62 2101.14 478.084 2115.35 477.035 2127C476.552 2132.37 473.43 2144.13 465.42 2139.59C456.804 2134.7 460.008 2114.4 460 2106C459.966 2067.96 496.661 2043.76 500.679 2006C501.632 1997.05 504.759 1964.81 493.722 1961.19C489.054 1959.65 485.635 1968.98 484.001 1972C475.494 1987.69 475.028 1991.53 483.953 2006.14C485.551 2008.75 486.407 2013.29 482.632 2014.45C472.197 2017.69 465.315 2001.97 465.216 1994C465.093 1984.02 483.909 1948.69 493.244 1945.02C498.417 1942.98 505.593 1945.84 511 1945.84C540.954 1945.84 559.054 1956.59 580.677 1978.86C593.564 1992.13 600.709 2016.57 582.974 2030.48C580.577 2032.36 577.856 2033.5 575 2034.49C542.011 2045.85 580.242 2015.38 579.174 2010C576.584 1996.94 561.58 1984.57 554.095 1974.04C552.11 1971.25 546.895 1963.67 542.822 1967.65C538.261 1972.1 539.044 1989.63 538.139 1996C533.169 2030.98 538.607 2055.62 553.629 2088C556.877 2095 566.043 2121.53 552.794 2124.7C546.712 2126.15 544.245 2109.9 542.059 2106.14C531.366 2087.71 519.672 2059.66 515 2039M1647 2045C1647.33 2041.23 1646.92 2039.46 1644 2037C1647.66 2035.48 1660.87 2037.71 1660.69 2037.89C1662.8 2035.78 1661.52 2029.96 1663.42 2027C1677.36 2005.26 1698.69 1971.93 1669.7 1953.63C1663.14 1949.48 1661.88 1946.54 1653 1947.06C1627.99 1948.52 1613.83 1976.64 1608.76 1997.86C1607.76 2002.01 1603.78 2011.6 1604.94 2015.33C1611.27 2035.8 1629.28 2038.95 1647 2045M2025 1948C2022.69 1951.62 2020.19 1953.14 2016 1954C2018.37 1950.7 2021.18 1949.27 2025 1948M866 2042C862.703 2067.64 845.717 2091.78 846.059 2118C846.187 2127.84 852.786 2151.37 866.055 2136.76C880.496 2120.85 883.61 2097 887.599 2077C888.438 2072.79 888.61 2054.5 892.611 2052.64C895.4 2051.35 900.289 2066.79 901.139 2069C907.182 2084.73 910.777 2101.84 920.919 2115.68C926.117 2122.77 936.156 2126.95 941.278 2116.95C954.761 2090.63 920.599 2053.06 917.347 2029C914.637 2008.95 947.584 1998.75 950.713 1980.01C955.141 1953.48 904.621 1953.12 890 1951.7C883.715 1951.1 876.377 1946.89 870.217 1950.26C851.222 1960.66 825.167 1992.44 823.466 2015C822.199 2031.8 852.102 2049.82 866 2042M1658 1950C1654.04 1960.08 1640.44 1951.06 1658 1950M162 1981C167.041 1977.75 172.179 1974.58 178 1973C177.055 1989.08 156.678 1992.86 156.296 1974C156.174 1967.98 159.905 1955.46 165.752 1952.53C171.636 1949.57 179.478 1959.62 178.288 1964.9C176.555 1972.61 164.917 1973.37 162 1981M2011 1951C2008.53 1956.96 2002.22 1960.86 1996 1962C1999.27 1956.55 2005.11 1953.12 2011 1951M2030 1956C2027.87 1955.85 2026.07 1955.55 2024 1955C2026.77 1952.93 2027.9 1953.31 2030 1956M918 2012C918.017 2000.79 930.749 1990.36 929.5 1981.14C928.792 1975.91 912.254 1968.3 909.952 1974.54C908.827 1977.59 911.999 1986.17 912 1990C912.005 2003.67 908.445 2018.48 910.465 2031.99C911.643 2039.87 920.921 2046.24 924.478 2054C930.965 2068.16 934.384 2086.75 937.216 2102C938.201 2107.3 936.898 2124.19 927.647 2116.48C920.37 2110.4 916.339 2098.78 913.603 2090C911.228 2082.38 908.46 2075.33 905.287 2068C900.341 2056.58 895.882 2045.12 893 2033C880.004 2054.65 882.995 2088.9 873.357 2113C870.974 2118.96 865.993 2136.5 857.163 2135.21C845.818 2133.56 852.922 2102.56 854.502 2096C862.37 2063.34 877.421 2034.39 876.298 2000C876.045 1992.26 882.282 1981.34 876.845 1974.35C873.713 1970.33 844.496 2003.92 842.845 2010.99C840.878 2019.42 856.457 2029.08 860.841 2035.06C863.275 2038.38 860.811 2040.82 857.048 2040.49C801.732 2035.58 844.364 1961.19 876 1953.69C880.969 1952.52 886.006 1955.72 891 1955.95C905.145 1956.62 943.897 1956.89 946.233 1978.01C947.005 1984.98 935.853 1992.86 932.038 1998C927.991 2003.46 924.474 2009.32 918 2012M1639.06 1957.58C1648.47 1956.19 1649.9 1968.27 1641 1970.24C1633.98 1971.8 1630.78 1958.8 1639.06 1957.58M1667 1959C1665.03 1963.67 1662.73 1966.97 1658 1969C1655.43 1960.58 1658.89 1959.16 1667 1959M1989 2047C1993.16 2041 2001.38 2038.63 2006.66 2033.51C2019.17 2021.39 2025.62 2000.75 2023.28 1984C2022.06 1975.28 2023.97 1963.01 2012 1963C2023.62 1950 2039.7 1969.58 2043.29 1980C2054.23 2011.8 2022.84 2056.3 1989 2047M1670.53 1961.96C1681.2 1957.87 1671.1 1975.63 1666.58 1977.24C1661.32 1979.12 1666.1 1963.66 1670.53 1961.96M1651.21 1967.64C1658.39 1967.64 1655.89 1980.81 1649.14 1979.92C1643.09 1979.12 1646.33 1967.64 1651.21 1967.64M1628.19 1968.09C1641.11 1964.9 1632.44 1988.68 1623.18 1990.92C1612.9 1993.4 1621.1 1969.84 1628.19 1968.09M2010.93 1970.74C2020.46 1970.63 2021.23 1988.44 2020.95 1995C2020.22 2011.92 2004.02 2042.56 1984.02 2042.3C1974.6 2042.17 1975.44 2026.15 1976.72 2020C1980.36 2002.56 1989.54 1971 2010.93 1970.74M1994 1972C1987.58 1984.29 1978.99 2015.87 1969 2024C1969 2006.78 1973.98 1977.25 1994 1972M1681 1974C1679.45 1993.71 1670.97 2012.82 1657 2027C1647.29 2017.22 1652.91 2011.37 1658 2001L1660 2001L1664 2011C1667.4 2004.21 1661.87 1998.84 1665 1992C1674.5 2002.43 1667.76 1979.66 1681 1974M917 1994C917 1969.06 930.817 1982.79 917 1994M1311 1977C1314.31 1992.33 1299.64 2019.8 1285 2025C1289.51 2011.78 1300.53 1986.1 1311 1977M1657.96 1978.32C1661.85 1977.6 1665.59 1989.81 1659.29 1990.68C1653.89 1991.42 1652.84 1979.27 1657.96 1978.32M1300 1978L1296 1983L1297 1984L1301 1979L1300 1978M1639 1978C1663.93 1991.7 1614.41 2011.39 1632.51 1988C1634.99 1984.8 1637.17 1981.61 1639 1978M873 1980C872.863 1994.58 864.945 2007.55 863 2022C867.314 2017.33 867.245 2010.08 872 2006C871.96 2016.05 869.021 2025.17 868 2035C863.741 2033.38 861.651 2030.38 858.642 2027.07C839.289 2005.81 859.683 2000.18 871 1980L873 1980M1650 1989C1655.37 1995.45 1651.83 2018.2 1642.39 2011.69C1629.83 2003.05 1654.5 1998.5 1647 1991C1648.19 1989.81 1648.58 1989.47 1650 1989M319 2001C317.787 1989.89 310.246 1995.14 319 2001M1611 2004C1614.95 1987.66 1623.97 1998.53 1611 2004M1623.32 2001.3C1635.23 1999.78 1627.85 2017.81 1619.97 2018.68C1608.98 2019.89 1615.62 2002.28 1623.32 2001.3M1601 2005C1601.5 2007.6 1601.86 2008.47 1604 2010C1603.49 2007.45 1603.05 2006.59 1601 2005M1634.14 2011.41C1645.64 2010.03 1639.76 2028.06 1632.21 2028.4C1623.41 2028.79 1626.82 2012.28 1634.14 2011.41M1647 2019C1653.73 2030.38 1647.3 2033.74 1635 2034C1638.09 2028.56 1642.14 2022.95 1647 2019M1629 2034C1621.96 2033.54 1616.22 2030.29 1615 2023C1621.69 2024.39 1626.41 2027.55 1629 2034M1998 2056C2022.74 2057.59 2009.16 2073.95 1998 2056M202 2104L190 2104C191.991 2099.49 200.805 2098.4 202 2104z"/>
</svg>
