<?xml version="1.0" standalone="yes"?>
<svg xmlns="http://www.w3.org/2000/svg" width="2200" height="2200">
<path style="fill:#0f0f0f; stroke:none;" d="M1625 196C1630.02 186.494 1637.85 178.77 1642.74 169C1646.1 162.283 1648.53 155.564 1648.92 148C1649.97 127.772 1639.03 110.365 1619.04 129.156C1607.28 140.217 1600.9 156.106 1599.95 172C1599.28 183.171 1601.47 197.109 1615 198C1606.69 211.962 1592.01 224.979 1577 231.466C1569.75 234.599 1561.05 222.183 1560 224.531C1550.33 246.185 1587.65 231.398 1593 227.541C1602.95 220.361 1610.04 209.411 1620.02 202.533C1632.82 193.713 1646.04 190.834 1657.86 177.997C1664.74 170.515 1664.38 159.691 1671 153C1673.45 170.256 1680.42 187.637 1688.22 203C1689.18 204.893 1697.72 224.925 1699.44 217.686C1701.19 210.284 1692.37 198.912 1688.94 192.783C1683.21 182.557 1674.61 158.684 1676.98 147C1678.83 137.864 1689.4 128.486 1694.59 120.864C1703.3 108.104 1717.61 83.2688 1720.3 68C1722.16 57.4136 1710.56 46.3022 1700 49.865C1683.53 55.4231 1679.26 76.6904 1675.06 91C1669.99 108.257 1674.42 124.018 1671.71 141C1668.23 162.809 1646.62 189.869 1625 196M1676 136C1677.48 124.034 1674.36 111.884 1677.4 100C1680.77 86.8279 1683.38 69.2415 1693.19 59.1074C1698.54 53.5742 1709 51.3926 1713.66 59.1658C1718.25 66.8232 1713.25 74.0671 1709.95 81C1702.04 97.6018 1692.65 126.556 1676 136M1971 136C1966.76 138.053 1961 138.356 1958 142C1965.28 144.929 1956.48 165.42 1955.68 173C1953.25 196.172 1945.65 238.384 1963.52 257.221C1975.25 269.579 1995.74 286.463 2012.78 289.479C2024.35 291.527 2035.63 287.479 2047 288.144C2089.99 290.659 2127.22 283.843 2128.96 232C2129.56 214.134 2124.66 197.05 2109 186.681C2103.06 182.747 2078.15 185.929 2080.15 175.151C2082.11 164.538 2111.13 146.489 2118.46 137C2124.83 128.741 2130.58 119.845 2129.86 109C2129.53 103.981 2123.49 91.8372 2125.57 87.7737C2129.02 81.0662 2160.34 75.8027 2168 73L2163 78C2165.78 78.2124 2179.49 74.7095 2175.81 69.8135C2171.85 64.5396 2146.98 76.4888 2141 77.0056C2101.61 80.4114 2054.18 99.9189 2018 115.685C2009.41 119.43 1976.62 142.659 1971 136M166 124C162.729 134.582 153.554 142.885 152 154C144.683 147.986 137.861 138.251 127 141.955C120.286 144.245 97.8427 157.563 108.663 167.031C112.128 170.063 113.409 157.311 114.985 155.185C120.918 147.182 133.496 143.472 141.631 149.924C150.515 156.97 147.055 165.439 147.003 175C146.914 191.214 145.785 230.834 118 225C119.192 222.295 119.452 220.913 119 218C113.923 222.433 111.41 230.784 121.003 230.793C135.935 230.807 148.975 199.323 158.003 204.357C161.395 206.249 169.076 211.517 167.816 216.136C163.423 232.236 142.268 242.065 139.521 259.933C137.661 272.032 169.968 276.113 177.922 270.656C202.318 253.921 205.671 229.846 203.929 202C203.116 188.989 199.711 167.159 208.443 155.649C213.409 149.103 208.028 188.018 214.893 169.969C219.016 159.131 212.307 153.913 212.558 144.136C213.3 115.149 214.037 69.0408 172 69.0374C153.664 69.0359 127.676 86.6194 127.822 107C127.978 128.589 151.527 132.47 166 124M167 137C169.918 123.336 181.837 114.16 182 99C170.267 105.987 167.366 124.737 150 124.534C137.185 124.384 135.288 111.473 136.845 102C139.25 87.3633 148.021 77.9824 163 75.188C189.027 70.3323 207.202 89.9788 209.134 115C209.597 121.004 212.796 128.975 208.715 134.242C202.131 142.739 195.515 130.753 188 130.303C181.093 129.89 173.686 135.36 167 137M1250 141C1250 168.891 1248.64 196.265 1246.12 224C1245.86 226.824 1243.82 251.847 1247.21 248.894C1252.2 244.543 1250.07 226.368 1251.08 220C1255.4 192.807 1248.78 153.095 1271 132C1278.07 158.032 1282.45 183.505 1287.18 210C1287.74 213.085 1289.8 234.21 1293.74 232.776C1299.57 230.655 1293.33 213.131 1292.66 209C1288.57 183.905 1284 159.601 1284 134C1298.75 144.01 1319.04 180.66 1326.14 197C1327.35 199.785 1334.82 219.49 1336.33 218.894C1342.4 216.492 1333.77 199.275 1332.27 196C1325.08 180.358 1321.66 160.862 1317.75 144.008C1316.22 137.396 1311.67 134.13 1314 127C1321.6 136.993 1336.4 136.275 1347 142.167C1361.31 150.119 1369.99 167.24 1386 172C1381.92 153 1364.81 133.816 1351 121.129C1343.33 114.078 1331.84 108.029 1328 98C1346.73 98.6631 1386.2 117.384 1402 103C1391.15 100.35 1379.08 102.251 1368 100.357C1334.87 94.6899 1301.43 88.1785 1268 87.9976C1260.37 87.9563 1232.68 80.3469 1227.28 86.8621C1221.54 93.7844 1228.29 125.393 1227.96 135C1227.09 160.265 1211.27 185.86 1204.74 210C1203.55 214.398 1193.13 245.357 1194.21 245.357C1200.79 245.357 1207.06 225.707 1209.73 221C1223.51 196.704 1232.11 161.974 1250 141M2117 87C2100.76 105.084 2086.88 118.074 2076.71 141C2073.21 148.876 2076.91 167.703 2070.59 172.855C2062.06 179.82 2024.84 181.715 2015.41 176.421C2009.4 173.041 2006.32 162.235 2000.74 157.382C1997.41 154.487 1980.64 145.723 1981.32 141.159C1982.27 134.779 2005.45 125.972 2011 123.271C2039.66 109.321 2084.96 89.0496 2117 87M1374 157C1366.41 156.174 1361.1 146.406 1354.98 142.177C1343.97 134.569 1331.21 133.481 1320 127.316C1318.02 126.226 1305.8 115.669 1304.89 116.682C1302.94 118.869 1308.21 128.316 1308.75 131C1311.58 145.144 1324.58 165.925 1322 180C1304.72 165.319 1298.79 139.625 1282 124L1280 143C1275.73 139.213 1277.81 132.454 1273.29 128.649C1266.41 122.847 1258.61 146.709 1255 150C1253.81 145.303 1259.04 119.551 1257.22 118.643C1254.32 117.198 1248.47 132.545 1246.98 134.68C1235.05 151.776 1224.96 172.719 1217 192C1213.15 179.59 1228.48 157.26 1232.02 145C1235.2 133.991 1225.61 99.3518 1233.04 92.2598C1239.48 86.1099 1261.03 92.5596 1269 92.9197C1284.23 93.6077 1300.2 92.2644 1315 97.3389C1335.57 104.391 1365.4 137.336 1374 157M2077 169C2080.03 146.137 2083.68 124.08 2100.12 106C2103.92 101.828 2112.67 90.6072 2119.5 93.0017C2127.37 95.7637 2127.28 113.626 2124.66 119.68C2116.69 138.09 2095.68 161.14 2077 169M883 230C874.789 238.178 854.786 247.884 854.428 260.989C853.924 279.402 891.446 266.367 897.854 259.9C903.467 254.235 912.826 242.517 911.454 234C910.489 228.005 902.189 212.754 905.138 207.556C916.791 187.019 953.002 177.426 961.456 155.128C964.936 145.951 937.493 156.01 935 157.25C929.692 159.891 924.355 162.457 919 165C924.63 151.459 928.72 137.56 934.358 124C935.321 121.686 939.734 112.455 935.576 111.106C931.976 109.937 926.289 119.483 924.186 121.68C912.652 133.728 905.404 149.532 894.201 161.882C886.94 169.887 865.034 168.247 854.043 176.946C823.672 200.984 855.785 227.885 883 230M930 122C926.254 139.551 918.609 156.814 911 173C921.089 172.091 941.358 152.495 950.429 156.143C955.705 158.265 943.627 168.011 942 169.397C928.508 180.89 912.551 191.47 900.554 204.457C895.142 210.316 904.727 226.899 906.035 234C908.691 248.414 887.803 264.704 875 264.976C834.381 265.84 889.339 239.97 886.279 231.066C881.972 218.53 850.934 221.628 847.638 206.95C843.272 187.508 862.925 171.955 879.97 169.672C885.567 168.922 887.669 179.236 891.959 174.472C903.656 161.479 913.521 128.751 930 122M525 208C531.939 213.839 536.766 225.551 547 226.452C571.314 228.594 570.404 190.721 560.998 178.021C554.344 169.037 542.022 163.156 532 158.707C529.104 157.422 520.938 156.834 519.843 153.403C517.97 147.533 537.895 129.774 534.894 127.088C528.582 121.436 515.54 148.431 510.843 150.402C505.157 152.788 495.499 149.604 489 150.824C468.983 154.582 444.094 174.125 449.519 197C454.816 219.336 485.986 216.154 500 206.18C504.306 203.116 515.187 192.103 519.466 200.136C522.395 205.637 519.748 216.091 518.853 222C515.58 243.613 508.509 270.171 490.431 284.073C478.971 292.885 462.123 272.005 462.594 279.031C464.035 300.556 492.89 289.684 500.782 281C517.537 262.564 524.902 232.603 525 208M1632 126.692C1662.57 125.058 1636 192.705 1616.98 194.297C1606.66 195.161 1604.04 181.494 1604 174C1603.93 159.041 1613.57 127.677 1632 126.692M202 147C199.538 146.578 197.348 145.852 195 145C196.135 163.958 197.693 180.152 185.524 196C182.749 199.613 178.376 206.997 173.137 206.997C159.099 206.997 157.45 170.3 156.86 161C155.53 140.037 193.086 125.505 202 147M268.667 139.333C268.222 139.778 269.278 139.722 269.333 139.667C269.778 139.221 268.722 139.278 268.667 139.333M1975 145.99C1983.99 145.391 2013.36 169.616 2008.61 179.618C2006.24 184.607 1997.25 188.212 1993.03 191.717C1980.12 202.458 1953.11 239.308 1981 249.716C1999.77 256.718 2017.99 233.637 2024.48 219C2028.71 209.46 2016.81 188.274 2021.86 182.94C2026.17 178.4 2048.4 181.33 2055 181.033C2059.61 180.825 2069.45 175.796 2073.15 177.348C2078.09 179.416 2078.6 186.762 2084.16 188.499C2097.45 192.65 2106.09 186.996 2116.6 200.019C2135.9 223.945 2121.37 275.338 2092 282.949C2079.1 286.294 2063.16 283.736 2050 283.078C2020.25 281.589 1981.4 282.659 1964.95 249.999C1953.22 226.717 1957.77 197.182 1960.67 172C1961.74 162.705 1961.57 146.886 1975 145.99M509 155C506.54 160.626 502.498 164.92 501 171C507.299 168.758 509.566 161.816 515.258 159.493C523.719 156.039 544.499 169.08 550.679 174.281C563.275 184.882 572.228 215.773 548.872 221.609C537.128 224.543 526.339 194.884 516.999 190.77C507.792 186.715 503.961 197.855 497.989 202.245C487.337 210.076 474.901 212.185 463.079 205.672C450.625 198.81 453.374 180.582 461.504 171.157C472.411 158.516 492.886 153.043 509 155M152 167C155.135 172.444 154.691 179.916 154 186C149.378 182.183 150.205 172.297 152 167M2011.87 184.34C2018.04 184.17 2023.21 204.994 2023.4 210C2023.91 224.06 2002.77 246.452 1989 246.852C1973.5 247.302 1974.48 234.558 1976.01 224C1977.91 210.857 1996.97 184.75 2011.87 184.34M198 192C198.192 212.455 204 237.576 188.683 254.92C179.477 265.344 155.856 277.813 146.224 259.465C143.566 254.402 152.433 244.652 155.271 241C166.799 226.164 182.404 201.652 198 192M158 198C156.103 196.723 155.741 196.177 155 194C157.697 194.578 157.789 195.261 158 198M1903 441C1897.89 444.927 1881.22 451.055 1879 443C1874.23 446.422 1875.73 454.531 1874.5 460C1872.26 469.896 1872.45 479.125 1866.26 487.782C1860.09 496.403 1850.07 497.494 1850 509C1854.9 506.758 1863.73 495.643 1868.01 495.643C1872.47 495.644 1871.03 508.203 1871.32 511C1872.73 524.57 1870.44 557.63 1850 548C1851.19 564.554 1876.54 550.642 1875 538C1885.42 549.774 1887.24 540.203 1896 531C1901.47 557.635 1859.11 572.813 1868.86 601C1879.65 632.206 1896.53 589.129 1898.48 578C1903.3 550.438 1898.39 523.249 1900.15 496C1901.24 479.05 1907.3 457.479 1903 441M1891.97 451.696C1903.51 449.403 1891.67 471.622 1883.15 472.487C1872.54 473.563 1884.4 453.201 1891.97 451.696M1892 474C1886.52 501.628 1864.81 479.642 1892 474M75 583C82.1922 583.888 87.0511 577.286 91 572C91.6022 580.357 82.7043 598.212 87.2928 605.065C98.0619 621.149 115.698 597.177 123.289 619.177C128.355 633.86 113.314 656.72 113 672C122.79 662.597 126.217 642.071 127 629C131.481 634.525 132.092 641.779 138.144 646.498C146.917 653.339 155.915 643.824 159.195 636C166.607 618.319 161.564 595.618 163.217 577C163.612 572.556 167.754 548.891 163.444 546.761C160.038 545.078 159.111 559.159 159 561C153.251 557.119 150.48 556.43 144 559C144.009 553.22 144.936 547.529 143 542C134.204 548.791 132.278 579.922 131.007 591C130.419 596.123 129.956 607.277 124.11 609.493C115.993 612.57 118.114 594.302 118.862 591C119.899 586.419 125.839 564.045 122.719 561.087C117.112 555.772 100.19 567.969 96 571C105.244 547.854 123.629 529.464 132.141 505C134.216 499.037 135.448 481.076 124.94 481.408C116.296 481.68 112.66 498.799 110.274 505C103.409 522.844 102.209 544.011 93.5392 560.993C89.1067 569.675 80.0536 574.824 75 583M129 486C127.598 503.105 119.892 542.749 102 551C104.018 536.37 113.148 489.4 129 486M1549 487C1541.44 499.584 1543.47 517.081 1536.73 530.561C1534.98 534.066 1526.28 543.201 1522.84 536.498C1516.87 524.884 1534.81 502.704 1520 493C1513.7 516.719 1514.78 535.599 1514.01 560C1513.93 562.485 1510.71 584.082 1516.76 581.894C1520.52 580.532 1518.6 558.039 1520.67 553.401C1522.26 549.829 1529.89 546.872 1533 544C1532.39 566.222 1525.3 590.263 1521.1 612C1520.45 615.396 1515.49 632.183 1518.72 634.031C1522.58 636.244 1525.46 621.205 1525.94 619C1529.84 601.067 1531.43 582.219 1535 564C1537.24 565.907 1540.12 572.058 1542.93 572.56C1545.09 572.945 1555.09 562.941 1557.32 561.124C1574.65 546.986 1578.49 505.882 1549 505C1550.17 499.537 1551.98 491.964 1549 487M1893 487C1895.04 497.279 1898.72 513.004 1894.52 523C1892.75 527.233 1884.64 538.635 1879.62 531.496C1874.44 524.127 1877.9 492.799 1890 498C1889.59 493.353 1888.83 489.888 1893 487M1198 523C1199.14 520.211 1206.62 494.643 1202.88 494.643C1198.38 494.643 1195.83 514.462 1195 518C1192.01 512.339 1193.5 505.239 1190.18 500.044C1184.75 491.561 1174.95 493.803 1167 490C1158.18 521.934 1150.68 554.683 1142.68 587C1141.85 590.346 1134 618.697 1139.93 617.677C1146.86 616.482 1146.98 595.185 1148.1 590C1153.22 566.489 1156.99 547.66 1183 546C1175.94 556.862 1160.46 567.977 1160.4 582C1160.31 602.194 1184.42 605.469 1193.85 590C1202.15 576.396 1194.04 560.008 1193.94 546C1193.9 540.082 1198.62 533.822 1200 528C1204.41 535.36 1217.44 568.178 1227 545L1218 548C1219.4 546.448 1225.3 537.544 1227.82 540.003C1232 544.085 1226.1 556.077 1231.83 559.456C1235.95 561.885 1235.45 552.566 1235.31 551C1234.33 540.14 1240.75 502.284 1230 501C1231.36 511.25 1230.16 523.962 1224.65 533C1218.47 543.122 1209.74 548.045 1209.22 532C1208.61 512.793 1234.9 506.289 1234 489C1219.98 496.996 1212.37 516.828 1198 523M1180 514C1175.45 514.784 1171.29 516.341 1167 518C1173.73 478.313 1192.5 512.197 1181.52 535.933C1177.34 544.954 1165.2 542.008 1166.26 531.99C1167.32 521.917 1175.27 521.138 1180 514M517 501C521.215 512.837 538.774 514.471 542 501C530.092 503.988 528.861 505.033 517 501M1556.01 512.234C1576.09 512.167 1565.3 563.168 1547.36 561.071C1543.08 560.571 1545.26 551.683 1545.56 549C1546.47 541.013 1543.26 512.277 1556.01 512.234M1518 519L1518 523C1517.49 521.308 1517.49 520.692 1518 519M498 539C497.321 529.871 509.712 524.906 512.566 535.015C515.414 545.099 494.944 580.364 483.573 570.396C474.639 562.565 489.63 539.425 477 535C469.929 545.711 452.351 534.369 450.226 555C449.559 561.478 449.819 573.62 458.049 575.399C462.224 576.302 476.432 565.356 476.432 571.07C476.432 575.952 465.529 578.466 462.399 582.03C453.852 591.758 442.691 607.762 441.186 621C440.14 630.201 445.867 638.767 455.981 636.632C480.587 631.438 473.3 594.137 481.579 579.3C484.137 574.718 497.961 574.564 503 572C505.313 591.652 480.63 609.359 483.654 631.997C486.902 656.318 515.539 628.464 516.767 615C517.951 602.016 499.717 568.747 510.647 559.888C512.415 558.454 519.378 577.676 531 573C531.03 574.321 530.639 584.201 533.548 582.654C536.385 581.145 534.914 572.687 535.17 570C535.871 562.63 540.019 528.388 533 526C532.33 537.2 532.658 550.036 530.734 560.997C530.033 564.997 525.485 571.645 522.145 565.801C518.018 558.58 522.624 529.125 519.119 526.762C508.059 519.307 484.909 533.626 498 539M1540 538.333C1540.77 538.333 1540.16 538.831 1539.67 538.667L1540 538.333M466.001 542.843C484.276 540.028 474.028 570.142 460.888 571.233C450.826 572.068 455.002 544.537 466.001 542.843M1526 542C1525.1 544.124 1525.12 544.101 1523 545C1523.9 542.876 1523.88 542.899 1526 542M1540 546C1539.99 558.041 1534.3 556.672 1538 546L1540 546M1186.97 550.323C1191.77 549.626 1190.99 560.371 1191 563C1191.02 572.258 1193.47 594.965 1180 597.351C1174.4 598.343 1167.35 587.552 1166.41 582.997C1164.75 574.975 1178.41 551.567 1186.97 550.323M824 551C819.783 557.671 803.278 576.219 802.323 582.111C801.124 589.507 815.006 574.607 816 573C816.255 588.776 815.312 607.885 834 591C838.489 613.094 800.051 614.306 794.969 633.078C791.361 646.403 813.022 656.34 822.981 650.518C839.619 640.79 831.648 625.47 840.182 613.303C843.441 608.655 850.311 611.923 854.856 609.498C859.915 606.798 862.558 600.604 867 597C866.741 604.312 862.746 615.391 872 618C872 600.613 874.641 587.666 878.256 571C878.74 568.769 879.781 557.474 875.129 558.323C869.436 559.363 872.748 590.25 859.18 585.456C850.467 582.377 854.557 567.141 861.099 564.102C863.123 563.162 869.479 566.358 870.239 564.906C872.832 559.956 861.656 558.431 859.044 559.619C844.234 566.353 847.916 597.21 867 588C864.572 591.534 861.891 594.78 859.057 597.999C838.19 621.703 839.825 581.493 843.899 568C844.766 565.13 848.409 557.777 845.748 555.106C842.408 551.753 833.853 579.54 824.543 573.753C820.251 571.086 825.956 555.722 826 551L824 551M1895 553C1894.87 566.68 1896.52 595.12 1885.11 605.171C1873.32 615.556 1872.09 587.767 1874.62 582C1879.18 571.614 1887.26 563.256 1892 553L1895 553M142 600L143 593L137 595C137.326 590.275 138.506 585.686 139.185 581C145.018 540.69 173.351 588.402 142 600M111.852 567.028C121.869 567.433 113.172 608.509 100.1 607.214C86.129 605.831 98.0416 566.469 111.852 567.028M835 576C834.582 581.167 830.619 595.119 823.345 594.214C818.741 593.642 819.055 582.546 821.822 580.257C824.698 577.878 831.37 577.341 835 576M472.753 581.028C478.967 580.518 476.184 591.867 475.452 595C473.138 604.908 465.197 632.462 452.022 632.207C445.17 632.074 445.267 622.752 446.666 618C449.174 609.484 462.703 581.852 472.753 581.028M505 584C514.039 596.11 516.279 635.175 494.129 636.262C482.694 636.824 492.221 609.479 494.679 605C498.484 598.066 501.749 591.197 505 584M158 599C157.406 608.923 158.748 643.019 144.065 643.695C136.029 644.065 128.432 619.084 131.504 613.03C133.939 608.232 152.412 601.279 158 599M835 607C832.661 620.922 833.38 635.598 821.997 645.58C814.504 652.151 796.745 645.693 799.295 634.314C801.39 624.963 827.105 611.346 835 607M931 828C931.202 825.862 934.452 797.627 928.59 801.544C923.793 804.75 925.672 837.369 925 844C917.448 833.306 924.605 816.389 917.079 805.085C909.713 794.022 895.702 797.455 886 790C882.259 802.579 869.184 833.812 850.266 827.023C841.526 823.887 850.5 804.813 835.999 809.591C824.095 813.513 811.905 821.313 803.044 830.079C801.306 831.797 792.116 842.049 799.17 843.112C802.927 843.677 804.683 834.91 807.095 832.581C816.685 823.322 828.571 817.566 840 811C841.598 836.045 853.49 834.118 872 823C870.299 840.515 858.832 854.96 855.476 872C854.578 876.556 856.653 887.663 851.642 890.263C844.745 893.842 822.534 888.086 815 886.333C812.588 885.772 804.327 882.197 803.458 886.509C801.687 895.306 828.898 918.375 833 929C841.634 915.072 814.84 900.091 810 889C816.384 890.951 849.225 892.839 850.864 898.424C853.879 908.701 821.059 945.497 836 950C837.632 940.751 845.324 917.459 853 912C854.247 939.891 874.858 939.384 893 925C892.829 929.769 891.935 934.329 891 939C881.205 987.921 898.064 918.806 907 909C907.815 915.687 907.114 927.117 910.384 932.852C913.557 938.42 920.112 936.307 920 944C929.722 941.076 937.645 920.579 945 913C947.043 923.97 948.109 934.984 949.64 946C949.875 947.691 949.523 957.405 953.325 955.894C957.385 954.282 953.086 938.307 952.602 935C949.685 915.034 945.87 888.976 949.417 869C953.57 845.622 978.177 834.223 984.562 810C987.141 800.213 989.983 773.673 975.235 771.245C969.716 770.336 963.526 779.43 960.482 782.993C949.715 795.59 944.367 818.526 931 828M200 896C193.823 880.644 172.422 887.913 161.008 893.081C137.421 903.762 121.553 947.9 143.343 968.052C164.33 987.46 185.426 954.144 200.003 944.489C226.598 926.872 247.49 901.921 272 881.299C291.808 864.632 315.085 847.517 313.136 820C312.627 812.808 314.179 786.905 309.984 782.646C308.044 780.675 296.862 781.585 293 780.165C277.226 774.366 227.735 765.053 218.129 783.043C196.896 822.807 210.488 877.152 199.7 919C194.636 938.644 182.106 963.32 160 967.234C139.966 970.782 138.529 941.204 139.206 928C140.56 901.642 179.174 885.871 200 896M925 869C928.774 842.493 942.545 816.399 957.499 794C960.369 789.702 970.406 772.544 977.554 776.405C982.567 779.112 981.864 788.286 982.198 793C983.132 806.169 975.714 841.225 958.246 842.637C955.398 842.867 955.261 806.805 952.972 809.106C937.076 825.08 958.661 862.26 925 869M237 904C248.228 880.898 280.625 865.847 285 839C262.933 852.24 240.129 885.03 225.139 906C217.546 916.622 210.029 933.564 197 938C207.021 914.489 204.69 898.944 206.659 875C207.505 864.71 212.747 855.274 212.981 845C213.448 824.451 210.911 796.057 227.315 780.284C235.946 771.985 277.995 780.327 289 784.136C294.107 785.904 302.503 787.27 304.396 793.1C319.08 838.338 275.027 883.759 237 904M878 879C883.71 878.448 899.402 883.738 890.412 892.178C886.071 896.255 865.187 895.357 860.659 891.624C856.388 888.103 864.881 874.36 866.097 870C871.258 851.503 874.284 831.031 883.159 814C885.092 810.289 886.096 801.297 890.358 799.654C925.99 785.911 920.336 853.452 910.141 868.83C904.985 876.608 895.076 865.4 888.292 866.366C888.631 866.318 879.678 877.357 878 879M465 1008C476.267 1005.72 486.015 985.082 496.997 986.284C503.628 987.009 515.456 999.547 522.136 1003.18C535.255 1010.31 563.505 1013.67 578 1009.8C629.085 996.158 653.172 921.937 668.702 878C675.494 858.786 681.618 839.915 689.254 821.019C691.123 816.396 696.915 805.652 692.733 800.873C688.753 796.325 678.962 807.579 676 809.761C663.954 818.635 652.901 828.842 642 839.07C638.375 842.471 632.002 851.012 626.975 851.962C622.901 852.733 611.257 841.152 607 839.001C590.442 830.632 566.965 818.915 548 820.085C494.451 823.391 460.457 884.327 470.508 933.993C473.335 947.964 490.412 964.134 490.897 976.794C491.057 980.972 484.039 981.372 481.575 983.602C475.685 988.93 466.589 1000.19 465 1008M687 808C686.647 823.022 675.811 836.757 671.741 851C659.907 892.418 645.948 929.849 621.025 965.136C610.259 980.38 600.893 995.934 583 1003.48C565.481 1010.86 535.101 1004.08 519 995.756C513.897 993.116 498.412 985.479 503.308 977.698C505.707 973.885 512.167 967.818 516.992 968.19C522.412 968.607 525.747 974.859 531.008 976.318C542.485 979.503 559.082 980.047 571 979.834C588.819 979.516 611.324 953.628 620.169 940C629.568 925.521 640.743 908.127 639.845 890C639.393 880.865 628.941 863.902 631.676 856.32C635.945 844.491 663.542 822.134 676 823C674.671 815.751 680.361 810.034 687 808M1711 879C1706.16 872.149 1697.85 879.764 1691.99 881.915C1680.62 886.093 1655.77 891.346 1644.07 887.1C1638.09 884.932 1638.42 877.105 1637.09 872C1632.96 856.226 1631.83 839.723 1628 824C1608.76 838.175 1613.54 880.116 1592.88 894.181C1583.46 900.595 1563.9 897.999 1553 898C1549.43 898 1524.43 898.685 1525.32 903.887C1527.68 917.687 1571.53 914.951 1575.97 929.757C1578.51 938.248 1562.04 956.92 1556.16 961.295C1554.84 962.274 1548.5 967.5 1551.98 969.401C1555.64 971.393 1562.56 963.538 1564.9 961.434C1571.03 955.911 1591.61 940.135 1600 941.631C1612.72 943.899 1635.79 956.419 1645.69 964.675C1648.35 966.887 1651.75 980.175 1654.73 979.559C1659.01 978.676 1655.23 967.339 1654.4 965C1650.4 953.797 1641.02 928.973 1645.66 917.26C1648.15 910.974 1658.61 907.852 1664 904.732C1679.79 895.583 1694.41 886.71 1711 879M546 825.497C563.469 821.874 589.479 835.441 605 842.804C610.001 845.177 619.493 849.713 621.456 855.339C623.434 861.008 608.809 872.886 604.138 874.935C600.386 876.581 594.329 865.171 589.999 863.365C569.059 854.632 546.205 843.431 527.699 864.021C510.784 882.84 502.273 905.659 506.621 930.981C508.215 940.265 514.22 950.562 514.24 959.914C514.25 964.733 503.452 973.001 499.097 973.895C493.957 974.95 488.879 964.605 486.842 961C477.814 945.029 472.999 928.299 473 910C473.003 867.706 507.519 833.478 546 825.497M1142 905C1170.08 896.625 1181.23 854.211 1204 839C1202.59 877.033 1178.66 912.101 1171.83 949C1170.58 955.756 1162.41 974.557 1164.86 980.351C1166.6 984.468 1170.68 975.033 1171.17 973.999C1178.14 959.436 1198.29 951.345 1210.8 968.722C1215.24 974.884 1205.15 995.916 1205 1004C1215.52 999.971 1216.34 977.484 1228.02 976.499C1233.95 976 1260.24 983.753 1266 987.262C1270.54 990.025 1278.43 998.246 1284.4 993.734C1288.12 990.924 1284.94 977.848 1283.97 974C1280.74 961.201 1269.44 932.44 1273.86 920.003C1278.86 905.942 1299.45 900.059 1304 885C1291.64 887.564 1284.67 897.857 1270 898C1272.65 883.024 1266.8 868.229 1268.04 853C1268.27 850.096 1269.81 840.256 1264.16 841.081C1257.57 842.043 1247.62 866.516 1243.43 872C1227.69 892.609 1210.07 911.631 1193.45 931.562C1187.02 939.28 1181.68 951.972 1173 957C1183.49 924.628 1196.98 893.305 1204.44 860C1205.9 853.486 1214.7 833.473 1211.4 827.649C1208.92 823.265 1196.24 841.728 1194.5 844C1179.55 863.546 1151.84 882.949 1142 905M1626 841C1626.72 850.075 1639.07 878.932 1634.48 886.028C1630.74 891.816 1606.5 891.974 1600 892C1603.79 881.281 1615.77 845.538 1626 841M952 845L951 849C950.73 847.089 950.941 846.647 952 845M923 846.333L923.333 846.667C922.84 846.831 922.227 846.333 923 846.333M1910 849C1915.55 862.227 1943.57 852.808 1948.44 862.501C1950.71 867.011 1947 877.282 1946.01 882C1942.08 900.722 1936.09 918.628 1931.09 937C1929.28 943.637 1927.65 959.06 1937.09 960.675C1958.41 964.327 1984.29 911.409 1945 918C1946.47 907.48 1950.92 868.597 1958.82 862.047C1961.96 859.44 2003.89 863.801 2004.73 866.303C2009.57 880.702 1996.76 909.651 1995.18 925C1994.37 932.832 1994.12 944.691 2004.01 946.616C2023.08 950.329 2033.99 926.271 2030.49 911.003C2028.71 903.244 2020.3 898.263 2013.02 902.822C2006.81 906.71 2005 914.098 2000 919C2000.36 908.995 2005.78 868.141 2013.49 862.306C2021.81 856.009 2040.39 863.044 2045 853C2025.69 853 2007.2 859.197 1988 858.941C1962.05 858.595 1935.81 851.443 1910 849M1262 850C1266.7 880.363 1271.12 912.35 1235 922C1239.34 901.529 1248.11 865.757 1262 850M578 891C587.522 887.225 577.009 879.455 570.999 878.868C562.127 878.001 541.455 887.944 535.185 894.187C523.405 905.916 521.165 924.344 522.907 940C523.397 944.402 528.061 955.553 520.431 956.677C515.368 957.422 511.455 925.561 511.136 921C508.48 883.011 536.902 842.743 577 863.01C583.171 866.129 591.642 867.426 595.05 874.029C599.179 882.027 592.557 887.359 587.199 892.546C573.86 905.457 561.111 918.861 547.999 932C545.51 934.495 532.964 950.082 529.26 946.214C526.336 943.163 527.999 933.909 528 930C528.006 907.316 535.728 896.307 556 887.324C562.098 884.622 579.643 878.238 578 891M625.69 863.245C636.699 862.541 634.637 896.746 633.594 903C629.676 926.507 599.012 972.162 573 973.893C560.653 974.715 544.151 974.084 532 971.716C528.07 970.95 520.325 965.65 523.892 960.952C528.685 954.638 547.419 955.164 555 953.25C567.498 950.097 576.67 941.074 585.196 931.922C601.695 914.212 596.051 888.289 612.856 873.6C616.271 870.615 620.784 863.559 625.69 863.245M943 864C941.438 867.654 939.883 869.098 936 870C937.46 866.392 939.307 865.122 943 864M904 877C899.604 877.841 892.361 875.656 891 871C895.541 872.18 900.68 873.566 904 877M926.044 876.744C947.636 869.155 934.745 915.498 925.683 918.843C905.311 926.363 911.668 881.796 926.044 876.744M896 888L893 881C898.999 880.011 900.492 884.141 896 888M1244 880C1236.8 917.372 1219.6 940.87 1183 954C1187.31 934.537 1213.94 912.422 1227.1 897.989C1232.36 892.225 1237.26 883.898 1244 880M897 911C896.132 905.837 897.923 875.752 910.154 882.585C916.311 886.024 900.59 908.403 897 911M1676.35 889.134C1676.08 889.032 1653.34 912.376 1644.82 908.079C1641.41 906.36 1641.31 895.673 1644.5 893.781C1649.29 890.941 1671.31 887.203 1676.35 889.134M535 952C541.797 935.334 568.283 917.311 580.782 904.04C582.998 901.688 593.146 888.405 596.742 891.969C601.831 897.014 593.596 910.258 591.416 915C581.137 937.352 559.529 951.424 535 952M944 893C943.903 903.512 939.85 919.649 929 924C934.986 914.684 937.188 901.003 944 893M1627 893.34C1636.71 892.161 1641.38 904.998 1636.16 912.82C1631.87 919.254 1606.63 933.06 1599 933.66C1576.84 935.402 1588.06 909.343 1596.63 900.423C1602.35 894.459 1619.05 894.305 1627 893.34M858.822 897.865C878.991 886.392 911.77 912.54 880.783 929.525C866.413 937.401 857.894 925.099 857.085 912C856.89 908.839 855.51 899.749 858.822 897.865M1286 899C1283.2 904.803 1278.08 910.628 1272 913C1271.12 902.91 1277.07 901.867 1286 899M1591 900C1589.88 905.484 1584.96 921.077 1579.44 923.397C1574.71 925.387 1537.1 907.317 1534 903C1553.38 903 1571.87 903.215 1591 900M2018.96 905.752C2036.31 905.128 2025.4 941.275 2008.03 941.425C1991.17 941.571 2008.52 906.128 2018.96 905.752M1267 909C1267.59 926.799 1246.01 942.922 1235.56 957C1231.05 963.073 1224.32 972.931 1218 963C1225.34 957.268 1226.59 941.261 1231.4 933.021C1236.81 923.754 1257.09 912.651 1267 909M227 914C225.366 916.859 223.827 918.31 221 920C222.682 917.518 224.619 915.817 227 914M1639 917C1640.38 931.743 1645.09 945.59 1647 960C1640.88 957.605 1605.9 942.319 1605.08 936.919C1604.19 931.02 1633.77 918.488 1639 917M1952 921.74C1972.28 919.053 1954.77 953.42 1942.01 954.764C1925.19 956.535 1939.17 923.44 1952 921.74M916.501 923.833C922.925 920.515 925.679 929.413 919.631 931.99C914.492 934.181 912.253 926.026 916.501 923.833M1268 924C1272.25 939.738 1276.2 956.785 1278.44 973C1278.88 976.21 1282.99 985.436 1280.68 987.982C1278.02 990.907 1271.6 985.303 1269.56 983.757C1262.11 978.114 1232.79 980.077 1231.3 969.74C1229.63 958.07 1259.11 932.88 1266 924L1268 924M1593 936C1589.88 942.916 1577.43 949.776 1570 950C1578.18 936.896 1577.51 932.663 1593 936M1225 934C1222.48 952.057 1210.15 975.721 1192 954C1204.39 948.222 1213.58 940.46 1225 934M1220 971C1220.76 976.432 1217.06 983.688 1212 986C1212.61 979.986 1214.88 974.452 1220 971M1160 1117C1176.2 1130.78 1164.72 1141.65 1162.91 1159C1162.48 1163.08 1164.89 1175.38 1160.5 1177.42C1155.86 1179.59 1145.83 1172.2 1141 1171C1143.51 1181.47 1155.74 1179.09 1160.96 1186.28C1175.98 1207 1134.26 1192.91 1129 1192C1134.44 1205.78 1160.55 1195.44 1167.86 1206.39C1172.33 1213.08 1175.3 1257.37 1168.78 1262.28C1163.87 1265.99 1137.39 1259.48 1138.24 1265.52C1139.31 1273.1 1167.89 1265.29 1171.85 1270.53C1183.79 1286.32 1166.7 1322.27 1166 1338C1189.72 1329.55 1193.44 1285.61 1213.3 1271.84C1218.91 1267.95 1232.53 1271.28 1239 1272.06C1246.29 1272.94 1261.61 1270.92 1267.32 1275.94C1281.83 1288.69 1275.75 1332.61 1273 1349C1285.83 1345.3 1280.62 1336.29 1282.58 1326C1284.24 1317.27 1292.52 1281.53 1300.4 1277.58C1306.79 1274.38 1316.71 1278.33 1323 1280C1319.15 1271.5 1308.63 1269.7 1304.64 1261.88C1300.84 1254.45 1311.4 1226.38 1317 1221C1316.54 1235.6 1323.38 1220.23 1328.03 1219.28C1331.87 1218.5 1346.8 1220.45 1347.68 1214.82C1348.72 1208.06 1328.92 1205.98 1327.41 1197.95C1323.79 1178.77 1337.18 1161.79 1338 1144C1315.03 1154.7 1329.5 1195.84 1315.16 1212.71C1310.65 1218.01 1297.22 1214.14 1291 1213.44C1283.43 1212.59 1272.9 1214.44 1266.26 1209.88C1257.62 1203.93 1251.2 1176.06 1251 1166C1273 1173.78 1294.67 1195.52 1318 1198C1310.75 1188.21 1294.62 1183.13 1284 1177.74C1256.54 1163.81 1229.17 1152.45 1202 1137.89C1188.64 1130.74 1174.55 1117 1160 1117M1178.78 1131.1C1183.07 1129.79 1197.71 1140.39 1202 1142.67C1225.73 1155.26 1253.88 1157.38 1242.07 1190C1240.36 1194.73 1238.91 1202.95 1233.69 1205.14C1218.11 1211.68 1208.15 1195.94 1197 1191.68C1191.59 1189.61 1186.4 1196.28 1179.85 1188.25C1176.4 1184 1178.03 1174.3 1176.98 1169C1175.84 1163.26 1170.85 1133.53 1178.78 1131.1M824 1155C841.561 1170.61 868.551 1174.13 882 1197C854.091 1197 826.95 1184.26 800 1184C810.529 1198.5 855.104 1201.63 872 1201.98C879.798 1202.14 900.057 1203.51 903.357 1212.88C905.139 1217.93 883.496 1223.53 880 1224.56C859.677 1230.58 839.771 1237.13 819 1241.4C814.745 1242.28 799.675 1245.19 797.761 1249.37C796.862 1251.34 821.856 1245.96 825 1245.1C843.884 1239.93 863.483 1235.68 882 1229.29C892.609 1225.62 903.699 1218.28 915 1218C912.287 1220.72 909.653 1221.87 906 1223C912.416 1226.57 917.471 1220.4 924 1220C907.847 1239.08 877.819 1268.45 870 1292C883.586 1290.17 906.221 1252.43 914.258 1241C917.287 1236.69 922.815 1223.97 928.623 1223.3C933.244 1222.77 937.733 1236.65 939.36 1240C945.447 1252.55 950.198 1289.33 962.529 1296.46C968.51 1299.91 957.691 1273.94 956.694 1272C953.472 1265.75 952.756 1259.5 950.482 1253C947.416 1244.23 942.282 1235.97 940 1227C961.913 1236.84 975.838 1255.39 997 1266.27C1000.12 1267.87 1015.24 1278.64 1017.42 1274.43C1020.49 1268.52 1005.66 1252.05 1008 1267C992.251 1254.65 972.125 1238.53 954.679 1228.92C951.016 1226.91 935.263 1221.55 936.081 1216.36C937.328 1208.46 955.193 1216.39 959 1217.33C983.365 1223.31 1008.05 1224.81 1033 1229C1031.94 1221.35 1024.45 1221.65 1018 1221.13C1001.56 1219.79 983.543 1219.54 968 1214.24C964.831 1213.16 955.029 1212.07 953.643 1208.65C952.075 1204.77 972.932 1198.8 976 1198.04C981.7 1196.65 987.233 1197.89 993 1198C991.01 1192.35 986.25 1192.93 981 1192C989.288 1182.44 1017.36 1176.13 1016 1161C992.062 1174.63 969.077 1199.63 941 1205C942.849 1197.91 948.458 1191.32 952.206 1185C954.835 1180.57 957.681 1176.32 960.486 1172C961.409 1170.58 971.458 1151.69 966.318 1153.76C958.134 1157.05 946.921 1186.06 941.521 1194C939.494 1196.98 935.955 1204.98 931.431 1204.21C925.774 1203.26 922.841 1194.04 920.532 1189.68C913.261 1175.96 904.669 1162.46 894.96 1150.22C893.411 1148.27 882.875 1134.45 880.872 1136.41C877.566 1139.64 886.067 1146.97 887.813 1149C897.161 1159.85 904.551 1174.03 913.052 1185.78C914.658 1188 921.967 1198.94 917.481 1200.73C904.428 1205.96 889.474 1195.03 880.992 1187.44C864.538 1172.72 847.573 1155.22 824 1155M63 1278C76.5571 1272.47 80.4223 1250.32 94.6805 1246.09C101.167 1244.16 113.72 1254.32 119.136 1257.56C126.303 1261.85 145.894 1266.56 149.94 1273.7C152.357 1277.97 146.332 1284.63 144.256 1288C137.64 1298.74 127.932 1311.72 125 1324C141.508 1317.86 142.1 1289.61 155.648 1279.64C159.519 1276.79 190.895 1292.33 191.395 1297.28C192.371 1306.93 177.477 1318.62 176 1329C188.134 1325.95 188.481 1304.93 199.304 1299.48C207.279 1295.46 220.753 1305.79 230 1304C228.061 1316.75 217.029 1332.37 209.875 1343C209.122 1344.12 201.479 1354.36 206.48 1354.36C222.531 1354.36 223.407 1309.72 240.026 1308.47C250.898 1307.64 281.947 1331.75 259 1334C270.111 1344.75 284.858 1343.99 273.393 1326.98C266.124 1316.2 246.501 1310.48 241.28 1301.2C239.175 1297.46 245.573 1293.55 248 1292C251.414 1299.79 265.21 1304.95 273 1307C274.991 1293.66 250.56 1297.37 249.701 1285.98C249.309 1280.77 258.226 1268.08 264.012 1269.52C267.112 1270.29 273.635 1278.02 276.942 1274.69C281.655 1269.95 264.065 1263.86 264.781 1258.93C269.076 1229.37 311.718 1269.12 320 1271C317.764 1259.4 305.319 1249.88 293.96 1247.6C289.581 1246.73 276.691 1247.02 274.546 1242.24C272.306 1237.24 285.644 1216.72 287 1210C277.934 1216.57 277.086 1232.13 267.686 1238.23C263.436 1240.99 257.324 1235.53 254 1233.15C234.519 1219.2 251.537 1210.98 256 1193C247.816 1197.56 244.215 1217.18 236.088 1218.72C229.131 1220.05 217.556 1205.85 209 1205C213.851 1213.77 230.23 1217.12 233.338 1225.43C241.382 1246.95 198.174 1230.34 198.92 1217.91C199.884 1201.86 220.283 1188.95 221 1171C207.677 1180.35 206.503 1204.76 192.697 1214.3C186.745 1218.41 148.698 1194.72 148.617 1186.97C148.558 1181.22 159.012 1181.75 162.086 1177.85C170.557 1167.12 178.862 1152.97 183 1140C172.647 1146.39 167.235 1161.32 158.06 1169.65C136.347 1189.36 118.626 1213.17 97.924 1233.98C86.223 1245.74 68.0219 1261.84 63 1278M121 1160C131.165 1163.35 139.535 1173.49 151 1171C148.096 1165.99 122.966 1153.01 121 1160M102.033 1159.41C89.6672 1165.44 121.247 1184 124.855 1181.57C125.374 1181.22 101.684 1159.58 102.033 1159.41M1961 1159C1961.33 1176.04 1962 1192.84 1962 1210C1962 1215.78 1963.89 1225.79 1960.18 1230.64C1954.59 1237.94 1943.02 1235.74 1937 1242C1946.92 1243.66 1969.45 1242.1 1979 1239C1984.36 1237.27 1996.06 1228.86 2001.47 1231.52C2010.04 1235.73 2005.06 1279.23 2018.63 1277.21C2022.04 1276.71 2019.08 1260.07 2018.92 1257C2017.92 1237.67 2005.61 1211.59 2008.88 1193.15C2010.43 1184.39 2031.05 1195.37 2029.35 1187.06C2028.07 1180.76 2018.22 1183.66 2014 1183.82C2001.96 1184.29 1982.57 1192.9 1971.42 1184.82C1962.95 1178.68 1972.6 1163.43 1961 1159M1171 1166C1175.85 1185.4 1164.16 1185.11 1169 1166L1171 1166M201 1199C197.843 1195.86 170.216 1176.41 167.323 1179.92C163.726 1184.27 196.298 1199.22 201 1199M130 1182C131.432 1185.11 132.969 1186.42 136 1188C136.154 1183.98 133.486 1183.24 130 1182M1250 1183C1251.43 1188.03 1253.49 1192.76 1254 1198C1252.02 1197.54 1251.59 1197.3 1250 1196C1247.91 1201.2 1245.41 1205.04 1240 1207C1243.07 1198.8 1246.36 1191.75 1248 1183L1250 1183M1170 1189C1170.22 1190.68 1170.22 1191.32 1170 1193C1169.09 1191.13 1169.09 1190.87 1170 1189M1529 1255C1529.54 1258.45 1529.48 1261.53 1529.21 1265C1526.78 1296.24 1534.68 1257.54 1541.03 1256.81C1551.05 1255.66 1557.13 1271.11 1556.7 1271.33C1564.71 1267.06 1559.73 1249.58 1577.72 1253.48C1583.63 1254.77 1578.81 1279.9 1584.85 1277.89C1588.07 1276.83 1587.71 1271.6 1587.66 1269C1587.5 1260.14 1595.07 1240.58 1592.9 1234.26C1591.09 1228.97 1580.39 1226.17 1581.34 1219.61C1581.96 1215.39 1594.65 1211.8 1596.24 1205.66C1597.09 1202.38 1590.57 1197.83 1589 1195C1593.45 1195 1601.84 1196.45 1603 1191C1585.66 1189.41 1568.4 1192 1551 1192C1545.75 1192 1535.76 1190.53 1532.26 1195.59C1524.7 1206.49 1530.9 1232.23 1529.93 1244.99C1529.55 1249.94 1522.65 1251.05 1522.64 1253.82C1522.63 1256.65 1527.69 1255.29 1529 1255M1173 1192C1175.39 1192.55 1177.7 1193.2 1180.01 1194.04C1200.29 1201.42 1172.91 1207.93 1173 1192M133 1228C142.27 1235.04 165.452 1233.06 171.542 1243.89C174.593 1249.31 158.619 1269.56 153.129 1270.23C142.955 1271.48 110.712 1252.51 102.489 1246.02C94.0714 1239.37 109.386 1224.64 116.096 1222.12C121.291 1220.18 127.71 1225.61 132 1228C129.566 1224.1 122.459 1221.67 121.967 1216.89C121.359 1210.99 138.031 1193.17 144.047 1193.82C155.758 1195.1 176.792 1211.93 185.595 1219.92C190.569 1224.44 179.688 1240.16 173.954 1240C160.591 1239.63 147.244 1228.35 133 1228M493 1208C487.238 1215.52 476.015 1244 468.853 1247.18C458.034 1251.98 438.425 1248.66 427.001 1247.17C424.658 1246.87 413.901 1242.56 413.316 1246.4C412.547 1251.45 423.036 1251.79 426 1252.1C437.89 1253.34 455.906 1251.16 466.737 1254.3C482.058 1258.75 480.868 1284.43 488.045 1293.64C497.39 1305.64 526.559 1293.67 537 1289C537.178 1332.26 585.69 1299.35 601.438 1288.08C605.966 1284.84 623.222 1278.36 614.705 1270.85C604.969 1262.26 580.354 1269.65 568 1267C575.341 1259.96 584.07 1245.37 593.982 1242.47C604.628 1239.36 615.315 1246.61 626 1243C619.452 1233.42 604.065 1242.2 596.818 1235.62C591.698 1230.97 608.747 1205.87 589.999 1206.77C578.279 1207.34 565.93 1231.67 559.172 1229.88C552.574 1228.13 569.301 1205.91 555 1200C555.977 1206.51 558.265 1224 548.038 1225.54C543.579 1226.22 520.979 1214.7 522.5 1210.23C525.532 1201.31 540.479 1199.26 547 1194C533.026 1190.54 525.599 1205.1 513 1206.13C496.518 1207.48 482.883 1200.7 467 1198.08C462.808 1197.39 453.632 1193.56 449.752 1195.86C446.53 1197.77 451.171 1200.82 453.038 1201.18C465.487 1203.57 480.439 1207.24 493 1208M1995 1195L1991 1194C1993.05 1193.25 1993.6 1193.34 1995 1195M112 1213C108.212 1210.15 103.969 1208.22 100 1205.64C97.6384 1204.1 95.3749 1202.42 93.0075 1200.9C67.3944 1184.39 99.485 1222.11 112 1213M1199 1195L1199 1198L1197 1198L1197 1195L1199 1195M1539.28 1197.82C1548.65 1193.31 1568.5 1196.99 1578 1199.89C1584.35 1201.83 1591.25 1207.32 1582.93 1212.48C1574.51 1217.7 1547.66 1221.38 1538.28 1218.35C1532.7 1216.55 1534.78 1199.99 1539.28 1197.82M1994 1210L1999 1208C1998.95 1231.33 1964.64 1231.87 1968.7 1211.01C1970.97 1199.36 2001.11 1193.44 1994 1210M903.649 1203.27C908.17 1202.26 930.908 1208.58 916.97 1211.67C912.22 1212.72 900.757 1203.92 903.649 1203.27M1250 1204C1249.64 1206.88 1249.26 1208.18 1247 1210C1247.56 1207.33 1248.18 1206.03 1250 1204M1257 1204L1258 1209C1256.77 1207.04 1256.5 1206.26 1257 1204M1174.88 1205.78C1186.87 1198.18 1222.33 1209.38 1227.42 1222.3C1230.3 1229.61 1216.44 1258.64 1210.25 1263C1206.99 1265.3 1200.64 1262.73 1197 1262.32C1171.52 1259.51 1179.97 1252.38 1176 1230C1175.38 1226.51 1172.14 1207.52 1174.88 1205.78M1341 1210C1338.25 1217.82 1323.78 1216.59 1328 1205C1332.31 1206.81 1336.45 1208.87 1341 1210M1216 1206C1241.31 1211.1 1225.9 1222.82 1216 1206M589.949 1211.66C601.264 1212.11 593.075 1237.08 583.973 1236.69C559.439 1235.66 574.858 1211.05 589.949 1211.66M1241 1211C1240.28 1215.57 1239.5 1219.1 1235 1221C1235.76 1216.52 1237.12 1213.48 1241 1211M1246 1211C1249.67 1212.82 1261.45 1230.04 1255.98 1233.38C1241.5 1242.23 1243.95 1215.92 1246 1211M498.019 1212.9C521.486 1204.83 497.56 1245.86 488.903 1248.5C468.041 1254.85 487.459 1216.53 498.019 1212.9M1320 1212C1319.23 1213.18 1319.18 1213.23 1318 1214C1318.55 1212.36 1318.36 1212.54 1320 1212M1266 1215C1275.15 1216.76 1303.57 1214.66 1309.72 1221.25C1312.13 1223.84 1302.19 1257.9 1299.18 1258.9C1295.72 1260.06 1289.71 1254.39 1287 1252.69C1272.25 1243.4 1267.79 1232.46 1266 1215M1259 1217C1262.88 1223.67 1265.27 1232.48 1267 1240C1260.84 1236.24 1258.78 1223.93 1259 1217M519 1231C531.962 1219.76 529.843 1226.35 546 1229C540.254 1251.22 516.904 1247.37 499 1248C501.523 1236.29 517.717 1204.61 519 1231M2001 1219C2002.44 1226.5 1995.4 1224.43 2001 1219M66 1223C67.3882 1224.74 67.7615 1224.85 70 1225C68.4569 1223.73 67.9523 1223.51 66 1223M179 1247C187.732 1253.43 195.896 1262.55 207 1264C200.833 1256.67 191.74 1253.21 184.427 1247.26C178.024 1242.05 189.713 1223.56 196.683 1225.46C200.905 1226.61 223.458 1241.04 223.303 1245.27C223.019 1253.04 214.41 1260.04 211.137 1266.56C208.128 1272.55 203.119 1288.6 195.816 1290.27C190.38 1291.51 160.881 1278.62 160.6 1272.6C160.27 1265.52 173.794 1251.42 179 1247M1539 1224C1538.25 1227.69 1537.09 1229.82 1534 1232C1534.31 1227.89 1534.75 1225.16 1539 1224M1547.84 1225.11C1555.55 1224.96 1559.25 1251.97 1545 1251.85C1530.17 1251.72 1538.46 1225.28 1547.84 1225.11M1558 1235L1558 1225C1564 1226.57 1563.35 1232.8 1558 1235M72 1227C74.5596 1230.76 77.6589 1232.73 82 1234C79.5179 1230.16 76.4696 1227.97 72 1227M1238.27 1229.56C1251.09 1228.6 1260.7 1245.13 1263.82 1255C1265.09 1259.01 1268.13 1269.08 1261.85 1269.83C1254.73 1270.69 1222.6 1270.12 1218.45 1263.88C1215.75 1259.81 1233.32 1229.93 1238.27 1229.56M265 1244C260.791 1262.52 238.741 1260.11 232.948 1242.73C231.656 1238.86 236.338 1229.07 241.179 1230.1C249.668 1231.92 255.74 1241.92 265 1244M1561 1250C1567.08 1210.05 1598.86 1249.28 1561 1250M83 1234C84.4295 1237.39 86.4111 1238.12 90 1238C87.9763 1235.71 85.9077 1234.9 83 1234M539 1246C548.055 1224.58 568.139 1244.85 547.998 1245.95C545.011 1246.11 541.991 1246 539 1246M575 1238C571.386 1240.48 567.318 1241.44 563 1242C565.47 1236.37 569.56 1236.55 575 1238M1588 1236L1587 1239L1586 1236L1588 1236M583 1243C580.589 1249.62 561.637 1274.56 553.308 1263.08C543.586 1249.67 576.323 1243.3 583 1243M1266 1245C1272.07 1247.16 1301.14 1260.97 1296.17 1269.18C1294.38 1272.14 1287.87 1271.01 1285 1271C1270.4 1270.92 1267.62 1258.19 1266 1245M229.901 1248.1C233.176 1247.21 238.604 1253.97 241.003 1255.77C248.69 1261.55 263.492 1277.18 242.842 1282.82C225.668 1287.52 207.926 1254.08 229.901 1248.1M551 1249C546.164 1269.85 520.702 1253.59 551 1249M526 1250C523.003 1257.33 513.93 1254.06 508 1252C513.643 1249.71 520.029 1251.05 526 1250M478.612 1255.04C486.412 1251.66 491.682 1263.21 484.536 1265.73C479.517 1267.5 473.29 1257.35 478.612 1255.04M517 1259C509.787 1266.66 500.892 1267.58 491 1267C494.426 1253.43 505.698 1257.53 517 1259M2013 1256L2012 1257L2013 1256M526 1260.86C539.566 1259.4 548.738 1273.23 537.716 1283.44C529.687 1290.88 512.416 1292.17 502 1292.86C492.611 1293.49 483.836 1280.54 491.977 1272.74C494.205 1270.61 522.332 1261.26 526 1260.86M1208 1268C1205.04 1280.26 1189.03 1310.88 1177 1315C1177.52 1306.3 1173.64 1273.7 1180.74 1268.6C1186.5 1264.47 1201.07 1268 1208 1268M556 1269C552.928 1273.05 550.045 1275.88 545 1277C546.943 1271.43 550.004 1268.85 556 1269M1310 1272C1305.72 1272.81 1302.29 1272.6 1301 1268C1304.71 1268.53 1307.18 1269.5 1310 1272M563 1271.7C569.263 1270.48 607.291 1268.73 610.031 1274.68C611.887 1278.72 602.326 1282.14 600 1283.6C589.148 1290.43 577.842 1302.77 565 1305.58C535.749 1311.99 538.685 1276.42 563 1271.7M215.185 1274.18C223.502 1272.4 252.371 1296.29 231.938 1300.67C227.17 1301.69 207.567 1296.45 204.303 1292.76C200.492 1288.46 211.045 1275.06 215.185 1274.18M1280 1315C1280 1307.08 1272.22 1282.03 1275.42 1276.54C1277.37 1273.21 1291.6 1273.55 1293.02 1277.32C1295.28 1283.32 1285.12 1311.35 1280 1315M193 1483C207.279 1487.84 229.796 1484.79 245 1485.02C279.655 1485.53 315.403 1488.56 350 1486L350 1484L193 1483M1083 1484C1060.76 1477.68 1028.35 1484 1005 1484L828 1484L769 1484C766.419 1484 750.042 1482.41 750.786 1486.78C751.508 1491.03 766.01 1488.83 768.999 1488.64C788.458 1487.37 808.543 1488.94 828.001 1489C883.4 1489.18 938.596 1486.33 994 1485.03C1023.38 1484.35 1053.84 1487.6 1083 1484M1117 1484C1130.25 1487.43 1148.27 1484.24 1162 1484.06C1186.01 1483.75 1209.98 1484.51 1234 1484.02C1305.95 1482.56 1377.99 1486.11 1450 1486L1450 1484C1372.89 1484 1295.94 1483.14 1219 1483.99C1186.03 1484.36 1149.6 1478.23 1117 1484M1850 1484C1879.53 1488.82 1913.91 1484 1944 1484C1935.19 1481.01 1923.26 1483 1914 1483C1893.7 1483 1869.79 1479.76 1850 1484M383 1487C466.976 1489.36 551.252 1487.78 634.917 1487.78C654.649 1487.78 676.033 1488 697 1488C699.248 1488 719.946 1488.39 716.278 1484.72C713.81 1482.25 703.377 1484 700 1484L651 1484L457 1484L401 1484C396.423 1484 384.136 1481.7 383 1487M1817 1485C1795.49 1477.71 1761.79 1484 1739 1484L1563 1484L1502 1484C1500.07 1484 1482.62 1483.24 1484.11 1486.46C1486.24 1491.1 1500.36 1486.14 1504.01 1486.03C1523.91 1485.39 1543.98 1486.11 1564 1486C1648.07 1485.55 1732.4 1485 1817 1485M241 1582C241.093 1569.7 237.605 1566.02 225 1566C225.062 1570.09 213.037 1571.12 209 1573.67C204.838 1576.3 192.931 1588.56 188.917 1588.56C174.463 1588.56 159.057 1570.99 142 1574C147.954 1584.79 169.629 1593.75 171.585 1605.82C172.295 1610.21 165.378 1616.99 163.662 1621C160.932 1627.38 162 1635.21 162 1642L154 1641C156.405 1651 180.19 1660.97 186.115 1672C191.692 1682.38 168.391 1690.7 170.285 1699.7C171.382 1704.9 177.135 1699.28 178.618 1697.59C182.632 1693.01 187.86 1679.74 193.564 1677.78C198.769 1675.99 214.6 1684.92 221 1686C216.043 1678.8 201.968 1680.45 198.257 1672.68C194.839 1665.52 208.079 1653.48 209 1646C228.051 1663.2 229.82 1694.06 255 1707C242.825 1684.13 222.325 1667.36 215 1641C221.937 1642.74 235.141 1641.8 240 1636C232.176 1636.01 224.496 1636.68 217 1639C220.851 1623.05 232.591 1608.07 241.001 1594.08C244.068 1588.98 250.152 1584.27 250 1578C258.089 1575.81 260.737 1561.28 261 1554C252.449 1557.88 248.12 1574.95 241 1582M237 1571C238.639 1598.46 213.401 1611.96 212 1637C205.549 1633.61 180.94 1612.35 181.63 1605.02C182.194 1599.03 189.913 1595.89 194 1592.59C207.855 1581.4 219.138 1573.1 237 1571M1950 1590C1940.82 1580.82 1966.87 1577.3 1972 1577.44C1981.42 1577.71 2002.02 1594.64 2006.28 1603C2007.73 1605.85 2008.62 1611.3 2004.97 1612.67C1990 1618.29 1975.89 1612.98 1962.08 1625.42C1953.16 1633.45 1971.9 1657.69 1981 1659.75C1999.72 1664 2004.35 1632.9 2009.47 1622.03C2011.69 1617.32 2018.73 1623.11 2019.56 1618.92C2020.29 1615.18 2012.57 1615.1 2011.33 1611.92C2009.52 1607.25 2011.39 1601.52 2008.5 1597C1999.2 1582.44 1973.08 1569.81 1956 1575.5C1947.82 1578.23 1941.12 1595.11 1950 1590M1573 1589L1573 1592C1583.9 1591.73 1590.57 1582.6 1601 1581.33C1620.92 1578.91 1621.67 1610.36 1614.2 1623.5C1611.19 1628.78 1596.32 1626.49 1591 1627.75C1574.3 1631.7 1569.19 1654.11 1576 1668C1580.67 1677.52 1597.11 1691.23 1608.54 1683.62C1612.59 1680.92 1618.53 1663.21 1615 1660C1613.71 1664.66 1609.5 1676.9 1605.51 1679.48C1584.87 1692.81 1568.12 1649.83 1584.44 1635.6C1591.12 1629.79 1606.51 1631.33 1615 1629L1615 1637C1623.14 1634.62 1620.11 1594.31 1619.44 1586C1619.14 1582.37 1626.79 1577.73 1624.5 1576.05C1621.26 1573.67 1617.31 1577.95 1614 1578.19C1607.4 1578.68 1599.39 1576.33 1593 1578.47C1586.05 1580.8 1580.13 1588.18 1573 1589M1274 1679C1274 1660.18 1272.04 1619.68 1303.71 1627.72C1308.69 1628.99 1306.36 1643.25 1308.51 1642.24C1311.65 1640.76 1312.62 1631.98 1313.82 1629C1317.75 1619.18 1333.3 1596.78 1325 1587C1325.21 1600.74 1314.19 1611.65 1312 1625C1303.87 1622.77 1295.05 1621.8 1287.02 1624.97C1285.09 1625.73 1278.93 1630.69 1277.16 1628.9C1271.7 1623.39 1276.6 1597.3 1277.44 1590C1277.66 1588.05 1279.86 1577.64 1276.18 1577.64C1273.1 1577.64 1272.77 1598.05 1272.44 1601C1270.32 1619.78 1270.1 1640.07 1270 1659C1269.97 1665.63 1268.07 1674.65 1274 1679M186 1593C181.351 1594.85 179.174 1598.04 179 1603C170.508 1598.91 157.117 1588.51 155 1579C163.573 1581.24 180.593 1585.91 186 1593M526 1602C529.427 1634.62 519.3 1665.59 519 1698C518.945 1703.98 513.388 1726.16 522 1728C519.683 1689.29 539.281 1645.7 530 1608C540.137 1619.35 544.124 1634.34 549.988 1648C551.285 1651.02 555.371 1659.62 559.524 1659.4C562.026 1659.26 552.884 1645.89 552.101 1644C545.78 1628.76 542.023 1610.08 526 1602M509 1606C509.601 1608.97 510.166 1609.91 513 1611C511.827 1608.84 510.844 1607.64 509 1606M201 1643L202 1639C197.519 1639.47 165.461 1639.8 171.333 1644.28C178.37 1649.64 193.403 1641.45 201.889 1645.5C205.626 1647.28 194.878 1667.91 191.667 1668.56C171.902 1672.52 153.383 1615.64 175.333 1610.44C184.406 1608.3 209.199 1641.24 201 1643M934 1696L936 1703C922.713 1703.97 908.672 1710.21 896.185 1701.1C883.946 1692.17 894.573 1669.22 906.321 1664.56C910.871 1662.75 922.556 1665.87 928 1666C924.065 1651.14 902.565 1663.3 901.161 1649.89C899.502 1634.05 936.276 1605.8 947 1622C952.641 1603.13 916.589 1618.98 911.019 1623.54C904.352 1629.01 897.392 1640.02 897.364 1649C897.351 1653.22 901.672 1657.75 900.419 1661.78C898.078 1669.31 888.935 1674.78 886.201 1683C879.598 1702.84 904.235 1710.34 919 1710.65C926.483 1710.8 951.709 1700.16 934 1696M2007 1618C2003.84 1629.28 1999.19 1650.06 1986.9 1655.05C1977.5 1658.87 1960.47 1640 1963.54 1631.24C1968.86 1616.05 1994.98 1617.77 2007 1618M919 1662L915 1660C917.223 1659.63 917.734 1660.14 919 1662M1599 1696C1604.61 1700.22 1616.96 1701.43 1624 1702C1618.96 1695.57 1606.56 1694.54 1599 1696M178.667 1850.33C178.222 1850.78 179.278 1850.72 179.333 1850.67C179.778 1850.22 178.722 1850.28 178.667 1850.33M183 1850C185.064 1850.72 186.804 1850.91 189 1851C186.936 1850.28 185.196 1850.09 183 1850M193 1850C207.908 1855.05 230.248 1851 246 1851C280.417 1851 315.624 1854.61 350 1852C342.821 1845.69 318.466 1850 309 1850L193 1850M383 1853C493.881 1848.18 606.001 1852.67 717 1851C702.519 1842.66 663.137 1850 646 1850L459 1850L401 1850C396.423 1850 384.136 1847.7 383 1853M750 1850L750 1852L890 1851C877.472 1846.76 859.216 1850 846 1850L750 1850M897 1850C900.281 1851.11 903.554 1851 907 1851C903.72 1849.89 900.446 1850 897 1850M581 2047C563.896 2053.82 550.698 2069.91 537.398 2082.02C535.001 2084.2 521.424 2087.52 522.544 2089.65C525.434 2095.15 536.351 2090.62 539.661 2088.08C552.508 2078.21 564.557 2065.91 577 2055.35C580.724 2052.19 590.188 2048.01 592.456 2044.06C594.416 2040.65 587.585 2040.47 585.997 2040.38C574.452 2039.74 560.629 2026.72 553.165 2018.32C533.548 1996.24 538.975 1949.81 570 1944.31C582.428 1942.11 591.737 1949.84 602 1955C599.332 1934.62 557.773 1937.98 546.46 1948.48C537.184 1957.09 539.701 1964.96 539.727 1976C539.812 2011.99 554.558 2025 581 2047M221 1951C220.304 1946.79 217.649 1941.63 212.385 1943.85C204.978 1946.98 207.344 1961.38 197.823 1962.66C182.591 1964.71 164.388 1943.57 150.571 1953.48C148.746 1954.79 149.038 1957.12 151.314 1957.68C155.743 1958.75 159.997 1954.98 164.724 1956.69C174.672 1960.28 185.773 1969.13 198 1968.06C212.315 1966.81 206.371 1946.78 221 1951M1309 1953.76C1268.4 1965.34 1245.17 2002.45 1268.07 2039.14C1270.05 2042.31 1269.17 2051.96 1271.37 2053.46C1273.35 2054.81 1276.13 2049.87 1279.11 2050.7C1293.59 2054.72 1307.1 2059.72 1323 2055.18C1360.55 2044.46 1361.48 1981.65 1334.01 1963.5C1325.75 1958.04 1320.09 1950.6 1309 1953.76M140 1954C146.028 1971.2 152.88 2000.77 144.179 2018.64C142.289 2022.53 136.65 2023.4 134 2027C154.499 2032.54 129.19 2059.81 146 2071C147.569 2057.26 146.724 2039.51 147 2025C158.108 2027.38 168.23 2021.77 179 2023C172.233 2010.65 156.228 2026.54 150.12 2018.5C139.12 2004 165.911 1962.46 140 1954M972 2015C969.318 2017.45 966.515 2025.71 963.286 2026.43C947.262 2029.99 925.311 1999.75 921 1988C932.356 1998.68 937.766 2013.59 956.992 2010.71C975.432 2007.94 984.973 1974.79 972.265 1961.6C968.259 1957.45 958.423 1957.55 953 1956.66C945.095 1955.35 935.034 1951.84 927.339 1956.26C914.664 1963.54 915.487 1992.9 922.239 2003.95C929.825 2016.37 974.373 2048 972 2015M1316 1965C1318.4 1963.94 1320.4 1963.35 1323 1963C1321.95 1967.97 1321.29 1971.08 1326 1974L1326 1966C1363.66 1971.42 1352.55 2042.17 1322.65 2051.52C1312.94 2054.55 1285.77 2056.58 1280.41 2045.34C1278.01 2040.32 1298.64 2013.56 1304 2011C1303.98 2021.5 1301.04 2031.57 1301 2042C1310.75 2035.36 1301.85 2019.07 1309.23 2012.07C1306.69 2014.49 1354.91 2025.22 1329 2015.07C1325.28 2013.61 1322.43 2013.38 1320 2010C1329.61 2009.96 1359.97 1997.23 1337 1993C1345.27 2005.27 1323.03 2011.91 1314.16 2005.26C1301.56 1995.8 1311.35 1974.22 1300 1967C1303.23 1975.29 1303.68 1987.99 1304 1997C1299.33 1996.15 1295.39 1994.1 1291 1992.41C1286.69 1990.76 1276.18 1989.25 1274.76 1983.95C1272.53 1975.62 1304.66 1957.64 1311.93 1957.43C1316.81 1957.29 1316.66 1961.4 1316 1965M1324 1959C1321.95 1959.75 1321.4 1959.66 1320 1958L1324 1959M955 1961C1003.23 1976.95 940.495 2037.09 926.202 1984C924.659 1978.27 924.89 1971.47 927.534 1966.05C935.358 1950.02 954.917 1971.29 955 1961M1692 2065C1689.76 2062 1682.52 2056.76 1682.52 2052.95C1682.51 2044.48 1709.48 2037.45 1713 2028C1702.11 2031.82 1689.99 2048.36 1678.06 2048.27C1670.31 2048.21 1660.88 2028.9 1657.67 2023C1655.7 2019.38 1648.71 2012.48 1649.2 2008.44C1649.87 2002.83 1674.78 1990.82 1672.89 1988.85C1666.34 1982 1650.53 2003.56 1644.86 2003.49C1640.62 2003.43 1616.71 1983.54 1612.58 1979.5C1609.54 1976.54 1602.26 1968.45 1596.97 1972.32C1593.83 1974.61 1604.68 1981.03 1606.22 1982.21C1612.53 1987.05 1643.11 1998.75 1639.4 2010.22C1636.31 2019.75 1621.84 2025.42 1615.32 2032.1C1598.65 2049.18 1585.89 2069.41 1570.38 2087.32C1566.18 2092.17 1548.57 2104.1 1548.96 2110.79C1549.42 2118.68 1576.82 2104.29 1580 2102.33C1604.93 2086.99 1643.73 2063.86 1672 2056.37C1682.44 2053.61 1686.15 2070.49 1695.85 2071.07C1701.25 2071.39 1698.39 2061.6 1692 2065M1322 1975C1316.69 1982 1310.45 1988.9 1310 1998C1315.84 1995.88 1326.05 1980.92 1322 1975M1952 1987C1945.68 2016.14 1920 2058.7 1885 2045C1892.77 2056.35 1911.48 2041.05 1918.92 2048.2C1921.15 2050.34 1914.33 2060.58 1913.25 2063C1905.14 2081.2 1897.07 2087.83 1885 2102C1908.51 2105.96 1914.28 2061.34 1925.05 2048.32C1930.42 2041.82 1944.22 2040.59 1952 2038C1945.32 2051.45 1934.23 2063.45 1925.9 2076C1924.95 2077.44 1916.53 2089.02 1922.28 2088.89C1927.88 2088.77 1930.59 2077.95 1932.65 2074C1938.63 2062.59 1949.79 2041.87 1961.08 2035.33C1972.19 2028.9 1976.84 2032.36 1986 2039.51C1988.21 2041.24 1997.08 2049.46 2000.01 2047.5C2000.2 2047.38 1981.5 2034.08 1991 2024C1986.94 2023.6 1983.02 2025.74 1979.14 2025.2C1959.04 2022.36 1983.59 2000.3 1975 1992C1974.77 1994.8 1974.29 1997.32 1973.41 2000C1965.05 2025.49 1959.59 1992.45 1952 1987M1303 2005C1293.22 2004.37 1282.78 2006.09 1273 2007C1277.78 2013.56 1290.8 2009.43 1298 2009C1291.8 2020.91 1283.54 2031.92 1276 2043C1264.81 2032.65 1251.19 2004.32 1264.96 1990.97C1271.27 1984.84 1299.84 1997.55 1303 2005M1954 1999C1956.29 2005.03 1963.05 2010.55 1963.64 2017C1965.12 2033.22 1941.01 2039.75 1929 2041C1931.77 2025.78 1944.92 2012.47 1952 1999L1954 1999M1555 2108C1578.04 2085.53 1595.27 2058.77 1617.78 2035.64C1622.32 2030.99 1637.68 2013.78 1644 2013.98C1649.65 2014.16 1673.41 2049.71 1671.03 2052.58C1665.58 2059.16 1650.67 2063.65 1643 2067.26C1623.79 2076.29 1603.95 2085.93 1585.14 2095.56C1576.74 2099.85 1564.7 2108.98 1555 2108M1967.32 2022.64C1973.36 2022.57 1969.69 2031.06 1964.56 2030.34C1961.02 2029.85 1964.62 2022.67 1967.32 2022.64M1337 2104L1337 2107L1339 2107L1339 2104L1337 2104z"/>
</svg>
