<?xml version="1.0" standalone="yes"?>
<svg xmlns="http://www.w3.org/2000/svg" width="2200" height="2200">
<path style="fill:#0f0f0f; stroke:none;" d="M1670 49C1676.55 65.0745 1652.99 77.4287 1642.04 87.1389C1618.69 107.852 1597.05 130.497 1573.86 151.36C1566.11 158.339 1549.05 167.172 1544.41 176.312C1541.01 183.001 1563.39 184.027 1567 184.97C1590.04 190.992 1621.78 200.232 1635.67 221.574C1639.91 228.08 1618.37 238.328 1614 241.056C1587.65 257.499 1564.82 272.607 1533 272C1538.32 279.374 1555.07 285.42 1562.98 291.338C1582.15 305.684 1600.07 318.669 1620 331.867C1628.36 337.404 1637.64 348.313 1648 349.746C1662.21 351.711 1683.71 318.156 1691.91 308C1694.79 304.426 1702.17 297.374 1700.91 292.258C1699.45 286.281 1688.82 280.678 1684.88 275.925C1671.11 259.311 1658.39 241.832 1645 225C1671.63 216.494 1704.71 198.249 1729.02 184.103C1737.27 179.305 1747.82 163.599 1758 168C1763.54 156.424 1752.01 145.396 1741.75 134.078C1727.55 118.423 1718.87 100.684 1706.33 84.0076C1699.77 75.2883 1688.79 68.936 1683.77 59.0024C1681.45 54.4292 1688.22 51.3723 1686.39 47.8137C1687 49.0049 1672.67 49.6165 1670 49M1754 162C1743.6 164.296 1736.96 175.564 1728 180.822C1709.17 191.879 1687.81 198.56 1668 207.712C1661.14 210.88 1651.79 221.834 1644 221.155C1634.34 220.313 1624.78 204.059 1616.99 198.719C1605.23 190.657 1587.38 188.371 1574 183.225C1570.41 181.845 1552.11 180.361 1551.32 176.57C1550.35 171.883 1577.06 153.166 1581 149.68C1603.61 129.668 1624.55 108.008 1647 87.7903C1654.91 80.6702 1665.11 67.5188 1675 64C1675.14 67.8875 1675.73 71.3215 1677 75C1678.17 70.3718 1678 65.7512 1678 61C1699.89 71.333 1712.38 103.035 1725.66 121.783C1735.44 135.579 1747.59 145.737 1754 162M1403 184C1393.59 177.983 1385.42 181.592 1375 180.864C1354.91 179.46 1334.71 178.461 1314.86 175.174C1307.43 173.943 1296.24 175.033 1290.37 169.517C1281.01 160.743 1286.96 125.303 1287 113C1287.01 110.3 1289.62 96.0029 1285.14 96.0029C1283.65 96.0029 1278.11 111.192 1275.86 113.438C1263.18 126.085 1249.44 137.379 1236 149.178C1232.26 152.46 1223.01 159.119 1223.78 164.989C1224.35 169.373 1230.97 169.198 1233.95 171.041C1240.95 175.365 1250.82 184.284 1256.43 190.401C1271.09 206.381 1294.55 241.857 1317.99 245.231C1325.11 246.255 1331.28 237.19 1337 234.217C1350.71 227.096 1360.12 215.842 1372.14 206.335C1382.03 198.506 1394.44 193.493 1403 184M913 109L912 101C924.76 112.961 910.866 148.695 906.927 163C904.961 170.139 899.604 181.662 907 187C906.891 183.939 906.537 181.015 906 178C915.438 188.311 928.09 204.41 934.175 217C937.864 224.634 938.233 235.915 944 242C955.45 222.371 965.482 201.333 975.832 181C977.644 177.44 985.556 162.469 982.063 159.106C978.166 155.354 976.036 169.193 976 171C963.302 160.666 951.62 145.837 944.395 131C940.663 123.336 940.163 113.052 934.24 106.604C926.907 98.6218 898.999 97.6968 913 109M1918 122C1919.84 119.42 1920.49 117.12 1921 114L1923 114C1924.35 121.559 1917.99 121.757 1918 126.16C1918.01 129.652 1925.68 131.217 1927.4 134.241C1931.25 141.008 1931.76 152.352 1933.07 160C1938.52 191.621 1936.98 225.009 1937.46 257C1937.66 269.705 1940.29 286.626 1937.72 298.933C1936.92 302.748 1926.17 306.107 1927.54 308.462C1930.95 314.289 1956.46 314.903 1963 315.858C1990.46 319.869 2017.28 326.86 2045 328.863C2055.99 329.657 2070.51 329.224 2077.14 318.741C2083.78 308.247 2080.73 284.758 2079.32 273C2075.95 245.144 2077 217.001 2077 189C2077 176.687 2075.88 149.925 2088 143C2074.09 118.967 2043.39 125.357 2021 125.644C2009.57 125.79 1997.47 119.772 1986 118.32C1968.06 116.05 1949.11 117.938 1931.24 118.399C1924.78 118.566 1926.79 105.643 1921.22 105.643C1916.41 105.643 1917.33 119.248 1918 122M922 105C939.899 116.187 943.825 140.301 957.333 157.833C960.368 161.772 973.693 171.876 973.5 176C973.159 183.265 962.761 196.364 959.167 203C957.454 206.161 946.074 231.667 945 231.667C941.292 231.667 936.086 210.986 933 207.333C925.1 197.982 912.27 185.809 908.333 174C906.79 169.369 911.622 161.703 912.667 157C915.916 142.377 916.357 117.414 922 105M128 107C128.479 119.123 134.829 131.013 137.184 143C141.896 166.986 144.21 190.667 145.139 215C145.472 223.718 139.237 244.672 147 250C148.294 213.638 148.619 180.093 141.476 144C139.32 133.108 137.449 114.145 128 107M1281 114C1285.27 130.88 1276.7 155.638 1285.59 170.759C1290.54 179.18 1306.69 178.193 1315 179.255C1331.05 181.308 1347.74 183.962 1364 184C1373.99 184.024 1387.89 181.297 1397 185C1379.03 199.178 1357.12 219.577 1336.99 229.957C1331.91 232.577 1326.48 239.645 1320.78 240.335C1315.1 241.025 1309.74 234.38 1305 232.051C1283.06 221.278 1271.32 196.641 1252 182.746C1248.76 180.411 1230.09 164.836 1230.43 161.835C1231.01 156.638 1240.29 150.988 1243.94 147.727C1256.4 136.603 1269.86 126.579 1281 114M148 118C149.826 122.037 151.631 123.999 156 125C155.228 122.902 154.451 121.723 153 120C184.349 126.426 215.574 124.544 247 135C253.383 137.124 265.512 137.919 270.574 141.939C276.708 146.811 271.6 161.055 272.32 168C275.12 194.986 280.685 236.011 247 243.381C214.26 250.545 186.977 215.977 155 214C161.216 224.415 176.845 223.941 187 228.503C212.753 240.07 246.869 265.284 271.79 235.669C281.771 223.808 278.127 202.18 277.136 188C276.32 176.319 282.723 151.09 276.74 141.376C272.477 134.453 253.544 131.57 246 129.264C213.073 119.198 181.919 114.768 148 118M544 118C545.27 150.181 543.736 209.302 520.044 234.479C514.048 240.851 496.79 228.936 491.407 238.494C486.978 246.357 501.824 253.701 507 256L507 252L514 256C517.596 250.011 526.151 249.677 525 242C550.58 247.447 576.436 252.417 601 260C596.207 223.155 573.11 192.751 562.192 158C558.55 146.407 568.892 134.352 564 123C559.904 131.344 558.329 140.777 559 150C550.579 141.681 554.43 124.253 544 118M2081 140C2066.97 175.693 2072.5 221.596 2075.13 259C2076.16 273.719 2082.82 302.624 2074.82 315.78C2068.6 325.994 2057.29 325.001 2047 325C2022.21 324.998 1997.51 317.035 1973 313.691C1964.84 312.577 1944.77 312.227 1941 304C1946.75 302.838 1952.59 300.957 1957 297C1953.81 297.685 1944.68 302.061 1942.22 299.119C1936 291.677 1940 262.707 1940 253C1940 214.425 1940.95 173.773 1932 136C1935.93 137.945 1939.33 140.619 1943 143C1940.35 138.74 1928.35 130.105 1931.37 124.644C1935.16 117.781 1959.17 122.224 1966.32 122.103C1984.93 121.787 2000.38 128.711 2018 130.551C2043.56 133.221 2057.05 125.32 2081 140M550 134C550.313 142.702 555.816 150.709 555.68 159C555.511 169.329 548.819 178.307 546 188L544 188C541.286 170.381 549.318 151.682 547 134L550 134M1969 156C1969.84 144.218 1983.16 146 1992 146C1989.27 158.132 2004.2 159.836 2003.56 156C2003.04 152.91 1998.33 151.046 1997 148C2017.18 152.025 2021.14 182.569 2009.51 196.881C2002.37 205.667 1989.4 206.217 1979 204.664C1964.47 202.494 1954.29 189.18 1953.55 175C1953.21 168.665 1958.53 155.982 1951 153C1951.8 164.593 1946.19 175.529 1951.74 187C1960.94 206.006 1991.41 218.978 2009.39 203.04C2024.19 189.925 2022.89 158.032 2005.94 146.765C1997.35 141.058 1984.74 140.43 1975 142.734C1968 144.39 1960.62 150.373 1969 156M1975.55 153.282C1966.1 159.289 1976.89 173.106 1985.29 167.495C1992.78 162.487 1982.35 148.959 1975.55 153.282M2034.05 153.804C2020.17 158.555 2033.32 180.518 2046.99 175.178C2064.97 168.151 2048.82 148.75 2034.05 153.804M1981.46 157.105C1984.32 156.139 1987.12 161.828 1984.25 162.895C1981.48 163.922 1978.3 158.168 1981.46 157.105M2052 158C2046.16 163.151 2041.76 159.829 2035 159C2039.69 154.357 2046.24 157.546 2052 158M559 163C571.367 182.588 597.34 229.575 595 253C579.902 246.215 560.18 245.968 544 241.256C539.605 239.976 530.289 240.282 527.08 236.781C523.835 233.242 532.637 223.142 534.466 220C544.688 202.444 548.742 179.26 559 163M2043 173C2038.26 171.621 2035.38 169.887 2034 165C2038.44 166.114 2040.8 169.113 2043 173M2052 166C2050.28 167.607 2049.23 168.243 2047 169C2048.52 166.547 2049.13 166.098 2052 166M2013 167L2014 168L2013 167M1995 170C1991.31 175.242 1985.41 178.096 1986 185C1981.04 183.415 1973.97 175.69 1969.03 177.5C1961.71 180.184 1964.85 194.536 1972 195.778C1980.46 197.248 1983.4 188.677 1990.03 186.333C2005.72 180.782 2016.46 180.472 1995 170M2003 176C1998.81 182.805 1993.85 176.324 2003 176M1994 183L1989 183C1990.28 179.156 1992.72 179.157 1994 183M1974 193C1962.94 186.666 1974.19 175.165 1974 193M2047 186C2046.81 182.266 2042.49 181.094 2040.23 184.564C2039.06 186.352 2039.47 189.011 2039.66 191C2041.72 213.235 2061.41 187.15 2047 186M1984 186C1982.07 188.325 1980.97 188.439 1978 188C1980.09 186.645 1981.51 186.271 1984 186M544 193C541.636 192.518 541.482 192.364 541 190C543.124 190.899 543.101 190.876 544 193M2003 213C2006.65 225.744 1991.51 234.017 1993.3 244.579C1994.08 249.201 2028.28 251.804 2033 251C2022.41 240.297 2007.42 226.673 2015 210C2010.86 210.785 2007.25 212.622 2003 213M2053 211C2022.15 219.191 2061.41 239.092 2059.07 221.168C2058.59 217.472 2054.32 214.596 2053 211M1969.98 220.013C1961.03 219.214 1954.31 233.322 1964.14 233.874C1972.64 234.35 1983.29 221.201 1969.98 220.013M2056 220L2052 225C2051.69 221.777 2052.82 220.386 2056 220M2009 221C2010.56 229.724 2016.25 236.665 2019 245C1994.4 245 2001.45 240.5 2007 221L2009 221M1972 223C1970.46 224.267 1969.95 224.489 1968 225C1969.36 223.516 1969.97 223.363 1972 223M1550 275C1572.39 273.966 1594.12 258.886 1612 246.931C1618.74 242.425 1632.67 229.756 1641 230.36C1655.92 231.44 1673.29 269.218 1682.54 279.864C1685.61 283.401 1695.96 289.163 1695.77 294.214C1695.4 304.427 1676.73 319.951 1670.07 326.993C1666.48 330.782 1655.54 346.869 1650.73 347.018C1644.43 347.214 1635.79 338.533 1631 335.072C1616.31 324.464 1599.17 318.379 1585 306.82C1575.57 299.132 1554.68 286.024 1550 275M497.609 239.903C503.182 236.628 522.509 240.756 510.929 247.786C505.167 251.285 492.118 243.13 497.609 239.903M1977.01 265.686C1963.04 269.097 1974.45 290.847 1985 287.926C2000.57 283.615 1992.11 262 1977.01 265.686M1987 268C1984.92 270.364 1983.1 270.715 1980 271C1982.05 268.492 1983.8 268.213 1987 268M1991 279C1984.23 289.647 1970.94 275.258 1991 279M1006 437C1003.9 432.296 1000.16 429.853 996 427C1000.43 427.777 1014.3 432.574 1014.06 438.158C1013.78 444.423 1003.68 453.122 1000.03 457.999C988.486 473.42 958.182 512.877 938 513C943.842 522.325 978.417 529.924 978.077 542.356C977.585 560.315 944.675 589.539 933.691 603.075C929.761 607.917 923.778 618.009 916.997 618.89C909.23 619.9 896.957 609.288 890.001 606.119C882.002 602.476 865.464 596.049 862.441 586.959C860.811 582.058 868.022 577.013 870.922 574.019C880.58 564.045 891.422 555.152 900.861 544.997C924.711 519.339 950.345 491.311 969.396 461.922C973.541 455.529 988.156 437.459 980.833 429.822C977.725 426.58 964.506 429.888 967.544 433.986C969.482 436.602 974.72 430.964 977.571 433.365C981.694 436.836 974.812 444.939 972.994 448C964.973 461.506 954.304 474.108 944.184 486.078C920.245 514.393 895.303 540.927 870.038 567.981C864.703 573.694 843.834 589.082 844.197 597.042C844.394 601.346 855.153 591.487 860.01 594.253C875.394 603.012 898.809 622.802 916.992 623.3C925.398 623.531 931.359 614.884 936.103 609C948.65 593.437 962.638 577.99 973.252 561C976.036 556.544 985.307 546.35 984.68 541.145C983.734 533.302 948.526 521.501 953.32 512.976C965.486 491.344 994.272 474.761 1009.34 454C1011.43 451.12 1025.11 437.317 1024.68 434.871C1024.1 431.643 1016.5 430.897 1014 430.093C1001.09 425.94 966.531 415.607 996 431.561C999.344 433.372 1002.58 435.328 1006 437M94 552C82.0842 551.379 117.047 578.035 120.992 582.003C140.474 601.595 162.282 622.559 179.524 644C189.749 656.715 203.76 679.13 219 685C217.125 656.506 239.019 646.469 254.879 625.922C266.171 611.293 272.821 594.588 284.082 580C289.855 572.521 314.556 552.075 309.399 541.196C304.762 531.411 287.878 525.802 280.941 516.979C261.772 492.598 252.419 461.374 229.04 440.341C226.204 437.79 214.178 424.777 211.812 424.302C206.642 423.263 189.795 449.668 185.875 453.997C164.667 477.409 140.124 500.353 117.001 522C109.644 528.887 93.0349 541.142 94 552M220 484C231.133 510.883 199.103 546.823 183.94 569C181.164 573.059 162.527 594.207 167.724 598.894C169.953 600.905 181.2 580.248 183.26 577.438C195.641 560.55 206.117 541.844 217.078 524C221.155 517.362 223.583 506.583 230 502C239.511 525.759 251.609 547.483 260.149 572C262.428 578.542 269.634 591.404 268.117 597.999C264.518 613.643 247.767 625.474 237.981 637.129C232.148 644.076 216.912 664.339 207.783 665.935C199.491 667.384 187.858 648.655 183.496 643C165.773 620.019 142.323 597.89 121.941 577.011C116.597 571.537 95.9214 561.228 96.3856 553.018C96.9608 542.844 119.61 526.795 126.602 520C150.68 496.602 194.351 465.678 207 434C244.813 442.441 256.742 492.172 277.642 519.992C284.098 528.586 301.242 533.135 304.319 544.04C307.108 553.922 285.059 569.92 279.768 577.04C278.049 579.354 274.182 586.7 270.405 584.592C262.892 580.401 257.076 554.1 255 546C249.942 526.265 236.126 496.82 220 484M1279 436C1272.77 447.028 1266.43 457.896 1260.31 469C1258.97 471.415 1256 479.337 1252.42 478.795C1247.51 478.05 1240.85 467.98 1237.22 464.64C1232.81 460.588 1228.35 457.033 1227 451C1211.73 455.281 1208.52 472.181 1197.7 487C1179.88 511.397 1162.23 536.039 1143.84 560C1134.39 572.312 1119.72 585.818 1116 601C1144.99 581.224 1167.12 536.183 1187.64 508C1194.35 498.779 1208.41 486.568 1210 475C1214.43 481.475 1210.01 493.38 1210 501C1209.97 534.137 1206.03 549.963 1190.66 578.993C1186.13 587.55 1169.34 607.337 1173.9 617.594C1179.71 630.667 1196.47 599.361 1198.29 596C1206.04 581.672 1206.34 564.852 1213.81 551C1223.56 532.94 1248.26 508.535 1250 488C1273.89 506.691 1283.09 555.13 1295.49 582C1298.33 588.166 1309.57 607.979 1304.72 614.38C1302.06 617.89 1287.69 612.952 1284 611.7C1265.35 605.37 1246.99 598.54 1228 592.889C1225.62 592.18 1206.54 586.788 1209.07 590.471C1212.62 595.648 1223.43 596.891 1229 598.438C1247.67 603.625 1267.21 612.814 1286 616.317C1292.34 617.499 1307.89 624.546 1309.41 613.911C1310.99 602.891 1302.36 588.726 1298 579C1288.16 557.099 1281.06 533.737 1270.72 512C1267 504.17 1256.32 492.734 1256.35 484C1256.37 479.583 1269.66 454.349 1274.01 455.081C1280.92 456.245 1288.95 473.118 1291.2 479C1310.77 530.294 1318.43 585.325 1340 636C1320.46 629.295 1307.9 637.146 1289 640.982C1287.21 641.346 1268.64 645.638 1273.97 649.845C1277.52 652.647 1293.95 644.163 1298 642.75C1318.89 635.458 1326.78 637.523 1347 643C1343.51 626.634 1333.72 611.131 1328.74 595C1318.46 561.694 1312.17 527.24 1301.32 494.003C1296.34 478.753 1281.36 464.627 1277.56 450.864C1276.34 446.438 1280.59 440.639 1281 436L1279 436M1987 621C1995 595.743 2018.31 573.563 2035.21 553.864C2037.39 551.332 2056.36 532.775 2056.36 532.691C2056.34 524.376 2031.29 523.413 2026 522.603C1996.58 518.097 1957.74 521.525 1931 504C1940.26 500.507 1948.25 495.476 1957 491C1946.22 489.418 1936.63 499.599 1927 502.818C1921.53 504.646 1914.92 501.782 1909 502.963C1899.79 504.801 1890.98 510.54 1882 513.506C1879.19 514.435 1861.91 523.98 1867.53 526.965C1886.8 537.199 1909.5 511.71 1927 509.77C1949.64 507.261 1977 523.986 2000 525.856C2008.12 526.517 2040.93 521.51 2044.1 532.415C2046.12 539.365 2030.82 552.316 2026.67 557C2009.03 576.94 1990.86 597.929 1981 623C1998.44 628.534 2016.29 632.444 2034 636.894C2039.69 638.323 2049.59 642.489 2055.26 639.178C2060.02 636.395 2061.43 613.824 2062.88 608C2067.91 587.665 2078.07 566.674 2080.66 546C2081.97 535.586 2077.9 525.616 2078 515L2082 516C2078.88 497.523 2029.51 508.984 2022.86 492.796C2018.92 483.207 2023.94 462.059 2025.82 452C2026.31 449.377 2030.39 439.326 2026.72 437.864C2022.95 436.363 2021.75 448.014 2021.44 450C2020.11 458.549 2013.19 490.558 2018.04 497.197C2027.74 510.501 2061.75 500.595 2072.18 516.107C2088.81 540.848 2065.18 580.734 2058.87 606C2057.49 611.56 2055.73 632.701 2050.51 635.1C2035.89 641.818 2003.04 621.984 1987 621M1588 450C1594.91 462.675 1616.59 476.075 1627 460C1613.38 463.49 1604.38 463.273 1595 451C1628.67 450.689 1655.7 466.12 1688 469C1674.44 507.059 1679.42 562.779 1680.1 603.783C1680.25 612.889 1686.77 647.138 1680.48 652.912C1671.88 660.805 1654.69 651.211 1646 647.71C1618.59 636.667 1587.27 632.915 1559 624C1587.93 599.894 1602.89 566.178 1619.34 533C1621.18 529.294 1628.89 499.972 1633.35 502.323C1638.47 505.023 1641.8 518.764 1643.12 524C1648.41 545.01 1650.32 565.613 1653.28 587C1654.26 594.099 1652.95 606.261 1659 611C1658.74 579.284 1653.42 544.215 1643.78 514C1641.49 506.809 1637.52 487.641 1630 485C1616.74 526.85 1599.17 590.464 1560 619.455C1551.77 625.552 1543.47 618.005 1535 623C1574.57 638.86 1618.69 641.172 1658.22 657.204C1668.14 661.227 1678.76 656.618 1688 660.83C1690.09 661.781 1696.42 666.53 1698.59 664.061C1700.79 661.57 1687.9 651.85 1686.99 647.992C1682.58 629.311 1684.22 607.999 1684.01 589C1683.66 558.012 1687.34 527.078 1686.99 496C1686.93 490.006 1692.72 471.391 1690.64 467.642C1687.35 461.746 1671.12 459.523 1665 457.838C1638.63 450.581 1615.35 444.149 1588 450M1214 541C1214 520.369 1212.62 499.379 1216.18 479C1217.09 473.838 1216.19 462.224 1222.46 459.951C1229.72 457.315 1248.64 479.168 1248.96 485.783C1249.21 490.743 1243.23 497.208 1240.54 501C1232.36 512.523 1225.58 533.027 1214 541M230 484C230.328 486.88 230.944 489.3 232 492C234.703 489.641 233.667 487.249 233 484L230 484M563 515C558.015 519.78 543.588 515.019 539 511C551.266 511.282 576.301 510.576 586.9 516.604C595.777 521.653 596.18 537.061 595.86 546C595.27 562.452 595.049 578.59 593.863 595C593.358 601.99 589.867 611.071 592.939 617.851C596.661 626.063 602.694 617.696 604 613C601.142 614.157 599.306 615.969 597 618C596.375 592.357 600.685 566.725 599.904 541C599.637 532.245 598.289 517.336 589.734 512.384C581.565 507.655 565.294 509.439 556 508.92C535.129 507.753 515.508 503.692 495 502.139C490.633 501.808 463.526 499.015 463.864 500.047C466.197 507.179 484.225 505.517 490 506.255C508.355 508.602 529.31 514.513 547 519.865C552.522 521.535 562.463 521.087 565.958 526.166C575.402 539.895 566.749 580.662 565.922 597C565.777 599.863 562.83 619.357 567.992 619.357C571.067 619.357 570.365 597.029 570.68 594C572.54 576.114 581.114 525.141 563 515M1920 507C1914.32 519.663 1884.31 523.951 1872 524C1881.27 515.066 1907.13 505.494 1920 507M531 512C528.973 511.637 528.363 511.483 527 510C529.238 510.152 529.612 510.259 531 512M519 533C519.797 535.509 520.752 537.68 522 540C506.592 540.578 492.121 537.447 477 535.688C473.348 535.263 463.966 532.694 460.967 535.405C459.438 536.787 468.752 554.669 469.953 558C477.034 577.647 476.15 598.756 480.102 619C481.156 624.396 478.629 635.557 483.324 639.16C488.595 643.204 499.763 639.016 506.217 640.441C512.87 641.911 515.895 647.158 522.027 648.613C541.29 653.181 558.986 650.986 576 661C574.436 653.608 571.538 623.253 564.107 621.347C561.038 620.561 567.145 645.442 569 650C558.944 642.855 546.134 646.767 534 644.463C524.313 642.623 515.781 636.399 506 634.476C500.929 633.478 492.962 635.837 488.604 632.74C483.433 629.067 483.104 613.88 482.281 608C478.846 583.472 472.672 562.547 467 539C486.73 543.416 507.806 544.998 528 545C526.24 540.042 522.763 536.588 519 533M1644 553C1645.39 554.894 1645.65 554.99 1648 555C1646.46 553.733 1645.95 553.511 1644 553M1608 600C1622.81 601.661 1637.15 607.532 1651 605C1647.96 602.333 1644.13 601.54 1641 599L1647 599L1647 597C1638.83 595.938 1631.38 592.499 1623 594C1626.78 581.422 1632.03 569.556 1636 557C1622.62 560.056 1623.22 580.813 1618.3 590.58C1616.24 594.67 1610.49 595.622 1608 600M1204 568C1202.89 581.76 1192.31 612.41 1177 615C1179.17 603.645 1193.09 572.807 1204 568M243 613C243.901 614.922 244.076 614.999 246 616C245.518 613.636 245.364 613.482 243 613M1117 614C1118.49 624.675 1136.02 631.315 1143.68 637.69C1168.64 658.466 1209.82 673.987 1226 703C1230.03 689.18 1213.29 681.668 1204 675.239C1175.15 655.282 1146.94 632.119 1117 614M261 621L267 621C265.017 617.383 262.645 616.955 261 621M214 668C214.828 670.759 215.036 671.91 213 674C212.571 671.346 212.631 670.3 214 668M78 816C80.5799 822.687 93.3776 827.345 92.6851 835C91.4418 848.745 72.101 868.941 66.8304 883C62.0085 895.863 67.8687 901.573 75 888L69 892C70.2041 882.809 86.2435 844.034 96.3644 841.884C101.547 840.782 109.237 848.539 113 851.38C127.167 862.074 145.642 870.506 158 883C168.736 880.447 158.912 903.93 157.279 908C149.923 926.334 142.763 945.578 133.45 963C129.325 970.718 120.972 979.895 123 989C139.72 975.781 150.881 937.76 157.937 918C160.522 910.762 162.245 897.077 168.084 891.783C170.989 889.148 178.367 896.438 181 897.968C188.865 902.538 215.364 910.929 213.976 923.078C211.754 942.538 189.451 966.978 179.061 983.078C176.856 986.495 166.33 999.785 170.779 1003.55C173.576 1005.91 181.789 988.799 183.465 986C192.524 970.871 218.289 941.574 218 924C238.807 940.955 243.964 969.242 232.84 991C229.441 997.648 212.983 1016.78 215.886 1024.35C217.362 1028.2 224.33 1014.43 225.187 1013C232.735 1000.36 241.124 987.319 245 973C250.367 978.768 262.163 991.611 262.419 999.864C262.655 1007.49 235.421 1037.74 248 1041C248.406 1036.42 260.841 1005.52 265.177 1005.52C268.775 1005.52 273.139 1013.91 278 1015C276.063 1008.04 260.693 979.435 283 983C282.585 978.897 281.655 975.588 284 972C285.862 978.252 292.151 978.593 296.679 982.567C305.666 990.455 311.634 1002.91 322 1009C319.899 989.924 289.914 980.245 288.627 961.861C287.228 941.88 315.768 919.486 318 898C313.91 898.872 311.724 907.377 309.333 911C301.486 922.895 285.773 945.842 285 960C280.423 955.77 265.453 945.566 264.784 939.478C262.753 921.001 300.209 897.679 288.816 876.505C284.891 869.21 280.236 880.719 280 884C281.547 882.014 282.278 880.419 283 878C293.255 894.948 262.906 921.728 261 939C255.406 934.941 227.59 914.364 227.689 908.93C227.945 894.872 265.333 858.509 248 846C252.743 868.419 225.599 888.56 224 910C217.915 906.234 215.885 898.438 213.492 892C207.832 876.775 193.518 855.226 193.297 839C193.228 833.97 199.113 819.015 204 828C205.245 824.456 205.496 820.649 206.441 817L208.569 809C215.519 782.344 191.278 829.783 190.041 829.357C179.628 825.768 170.86 797.498 161 790C161.434 807.267 184.545 816.328 187.693 834.431C189.804 846.576 173.593 860.199 173 873C155.234 863.966 138.963 849.725 122 839.068C117.858 836.465 106.987 834.477 106.034 828.9C104.984 822.761 116.825 811.48 120.439 807.003C136.226 787.441 156.722 770.524 171 750C151.006 751.211 126.054 791.787 114.134 806.562C110.694 810.825 104.894 821.788 99.5775 823.475C94.1317 825.203 84.1918 816.523 78 816M939 760C937.752 762.32 936.797 764.491 936 767C945.545 770.745 931.454 802.264 923.765 805.724C885.081 823.129 826.422 846.228 784 838C790.733 848.295 800.848 855.434 806.323 867.136C820.714 897.897 812.677 934.661 812.019 967C811.791 978.158 805.738 1017.85 816.512 1024.89C814.917 1023.85 816.309 982.085 816.665 973C818.341 930.265 826.654 879.836 797 844C829.042 847.112 859.471 830.665 889 821.261C892.943 820.005 918.119 811.088 919.617 812.928C922.632 816.634 908.809 836.088 906.499 840C889.695 868.453 868.781 893.307 845.967 917.002C843.218 919.857 819.878 941.539 822.892 943.873C826.124 946.376 834.402 936.044 836.437 934.079C848.954 921.999 861.176 909.361 872.521 896C887.033 878.91 900.258 860.263 911.439 840.865C916.471 832.134 922.07 815.695 930.187 809.801C945.83 798.441 985.533 798.355 1004 800.321C1016.04 801.603 1045.45 812.661 1050.1 825.126C1053.79 835.017 1047.91 852.965 1045.99 863C1045.04 867.985 1044.14 887.666 1039.94 890.237C1035.11 893.19 1022.31 886.658 1018 884.486C1005.05 877.954 988.647 882.67 975 876C987.811 875.389 1017.45 885.632 1027 874C1012.69 872.61 978.249 866.427 967 876C986.563 890.886 1021.52 880.066 1038 898C1024.15 899.422 1006.31 893.189 993 889C999.569 906.554 1029.77 892.579 1037.52 904.619C1040.95 909.949 1035.47 928.626 1034.66 935C1030.81 965.432 1023.7 996.087 1017 1026C1012.98 1023.74 1001.5 1021.96 999.834 1017.72C994.772 1004.8 1012.49 974.613 993 967C996.56 986.908 995.972 999.691 994 1020C968.249 1012.69 943.547 1006.71 917 1003.8C911.417 1003.19 894.889 1003.04 893.759 995.276C892.949 989.707 903.184 980.379 906.062 976C918.016 957.809 931.562 940.737 939.242 920C942.216 911.97 950.766 898.974 941 893C935.212 903.082 937.665 910.172 934.411 920C928.252 938.599 914.506 957.696 902.615 973C899.428 977.103 884.463 992.679 886.659 997.911C890.254 1006.47 906.461 1006.55 914 1007.44C936.612 1010.1 967.643 1011.27 987.851 1022.89C999.211 1029.42 979.868 1043.02 990 1050C991.262 1044.91 994.477 1028.03 999.423 1025.9C1005.14 1023.45 1017.43 1034.13 1020.64 1026.79C1032.55 999.57 1035.64 962.347 1039.54 933C1040.85 923.193 1039.01 911.63 1042.74 902.244C1045.49 895.3 1071.11 895.358 1070.68 892.992C1069.06 884.243 1047.49 896.627 1045.58 888.936C1042.14 875.079 1052.2 849.882 1053.08 835C1053.35 830.526 1057.2 823.696 1054.03 819.776C1035.7 797.091 999.526 793.188 973 796.313C965.87 797.153 941.658 805.333 935.926 801.444C932.934 799.415 938.249 791.382 939.092 789C942.428 779.577 946.488 768.093 939 760M1581 795C1582.75 792.363 1584.27 789.575 1586.11 786.997C1604.51 761.196 1592.92 801.173 1592 810C1582.18 804.31 1561.26 779.865 1547.69 784.242C1543.59 785.565 1548.82 792.74 1550.16 794.352C1555.99 801.343 1565.05 806.069 1574 807C1567.14 800.268 1556.87 798.927 1552 790C1563.54 794.965 1583.61 800.143 1587.74 813.922C1589.54 819.914 1582.9 828.601 1580.81 834C1572.93 854.361 1563.25 874.555 1553.35 894C1550.85 898.894 1546.92 912.93 1542.33 915.585C1537.77 918.227 1526.25 912.538 1521 912C1523.15 920.618 1535 916.653 1536.93 923.28C1538.13 927.421 1530.99 933.965 1534.34 937.894C1532.13 935.303 1551.16 935.678 1555 937.824C1583.69 953.88 1627.33 970.681 1659.97 974.114C1668.82 975.045 1660.94 958.434 1675.85 963.722C1683.5 966.438 1669.23 998.357 1677 998.357C1679.1 998.357 1680.48 979.698 1681 977C1687.79 981.773 1684.66 998.925 1690.99 1001.24C1692.12 1001.65 1684.57 969.657 1689.06 965.306C1696.66 957.934 1710.91 966.873 1719 968C1712.8 957.063 1696.77 959 1686 959C1698.27 930.377 1708.38 891.891 1712.54 861C1713.34 855.109 1717.81 832.256 1711.44 828.668C1707.19 826.269 1703.59 844.228 1703 847C1706.58 844.456 1708.01 841.219 1709 837C1716.62 867.12 1693.28 903.384 1689.77 933C1689.37 936.319 1683.32 958.934 1679.44 953.568C1674.77 947.098 1667.15 929.322 1674.26 921.977C1676.28 919.891 1687 923.89 1687 919.98C1687 915.534 1673.74 916.539 1673.34 908.951C1672.26 887.905 1677.01 866.162 1677 845C1677 837.794 1677.33 825.251 1672.08 819.528C1667.5 814.538 1657.71 822.784 1653 824.54C1643.34 828.143 1617.44 835.078 1607.18 832.125C1581.81 824.821 1607.71 790.593 1601.18 776.159C1595.52 763.641 1581.29 789.093 1581 795M1172 831C1183.59 849.06 1193.67 870.846 1206.7 888C1218.36 903.36 1232.61 915.891 1243.82 931.764C1249.36 939.612 1269.81 947.743 1271.82 956.343C1273.01 961.418 1264.89 970.537 1262.61 975.003C1252.46 994.887 1233.91 1015.84 1217 1030.27C1214.47 1032.43 1192.24 1047.74 1191.76 1046.62C1193.29 1050.21 1202.71 1051.45 1205.99 1052.93C1219.04 1058.8 1232.44 1065.75 1245 1072.65C1256.77 1079.12 1270.54 1082.94 1284 1083C1262.12 1064.6 1223.43 1067.51 1202 1045C1222.92 1040.34 1248.22 1007.65 1258.45 990C1262.67 982.726 1269.7 964.295 1277.16 960.375C1283.91 956.827 1299.92 970.602 1310 968.178C1327.24 964.034 1345.18 958.548 1362 953.864C1366.59 952.585 1379.89 947.815 1384.18 950.474C1388.99 953.451 1386.07 975.566 1386.3 981C1387.81 1016.31 1374.75 1048.77 1369 1083C1376.18 1080.97 1376.98 1066.35 1378.28 1060C1382.92 1037.36 1388.5 1017.3 1390.14 994C1390.87 983.516 1385.07 958.148 1391.26 949.685C1396.38 942.689 1414.47 949.85 1417.52 941.716C1420.2 934.539 1416.45 927.117 1415.97 920C1414.78 902.388 1416.87 873.934 1408.74 858C1403.83 848.4 1395.25 842.673 1389.9 833.981C1386.02 827.68 1393.26 820.343 1386.77 815.166C1370.66 802.295 1339.26 803.051 1320 805C1269.55 810.106 1221.26 826.166 1172 831M1961 825C1964.64 834.037 1977.59 834.676 1982.66 843.225C1987.95 852.153 1981.25 859.542 1979 868C1975.28 866.317 1959.88 855.776 1956.41 859.211C1953.53 862.057 1974.02 869.869 1973.42 875.097C1971.68 890.078 1951.07 909.111 1941.76 919.981C1939.8 922.276 1928.97 931.384 1930.1 934.419C1933.82 944.37 1966.36 940.721 1966.24 955.062C1966.05 978.426 1947.45 998.767 1948.37 1023C1948.53 1027.39 1942.7 1039.72 1948.36 1042.46C1953.04 1044.72 1958.55 1033.73 1960.65 1031C1971.1 1017.41 1981.48 1004.19 1991.19 990C1994.58 985.048 2001.48 970.442 2008.08 970.006C2013.7 969.636 2025.77 980.988 2030.74 976.654C2034.59 973.297 2035.79 951.77 2037.26 946C2042.47 925.478 2049.43 910.559 2065.99 896.398C2070.59 892.471 2083.52 883.075 2082.68 876.158C2082.05 870.983 2070.76 866.974 2066.78 864.478C2046.89 851.996 2018.77 859.625 1999.25 846.723C1987.75 839.121 2023.29 815.173 2017.5 807.106C2015.5 804.327 2011.33 811.952 2010.68 813.004C2007.51 818.134 1997.07 839.886 1991.04 840.454C1982.74 841.235 1970.73 826.361 1961 825M1354 808C1347.15 814.906 1333.75 812.906 1325 815.692C1297.28 824.517 1264.89 839.151 1236 837C1248.09 847.526 1264.13 837.419 1277 832.823C1297.59 825.474 1321.55 821.988 1343 817.022C1350.22 815.35 1363.36 811.171 1370.5 814.573C1376.43 817.396 1381.7 829.809 1381.92 836C1382.35 847.979 1378.27 859.623 1379.14 872C1380.21 887.287 1385.67 901.644 1385.98 917C1386.11 923.15 1389.81 937.991 1385.74 942.977C1377.48 953.09 1353.3 950.251 1342 952.167C1324.09 955.202 1311.19 970.357 1292.14 961.08C1288.77 959.441 1281.96 957.122 1281.27 952.893C1280.49 948.073 1286.67 941.197 1288.72 937C1294.91 924.285 1300.96 911.83 1304.34 898C1305.78 892.136 1308.15 855.78 1295 871C1306.66 871.181 1304.53 881.873 1302.86 890.864C1300.29 904.796 1289.79 941.962 1277.23 949.683C1269.69 954.313 1249.28 932.661 1245.54 927.011C1224.31 894.97 1199.53 872.873 1185 836C1242.61 819.656 1294.88 813.505 1354 808M1385 826C1381 823.17 1378.31 819.28 1376 815C1383.29 815.623 1386.11 818.713 1385 826M1593 820C1596.02 825.785 1602.55 831.264 1603.33 838C1604.42 847.385 1599.85 856.197 1602.15 866C1605.46 880.145 1613.18 891.024 1618 904C1605.82 902.634 1595.34 900.351 1583 903C1593.26 908.805 1610.61 903.275 1619.04 913.423C1629.44 925.955 1608.8 928.917 1601 930.815C1585.91 934.487 1559.84 925.394 1546 918C1561.47 885.42 1577.84 853.629 1591 820L1593 820M1667.54 822.356C1672.49 823.422 1672.89 837.068 1672.94 841C1673.19 859.13 1671.61 877.907 1670.11 896C1669.72 900.665 1670.84 912.338 1663.93 911.335C1643.59 908.381 1631.06 874.793 1621.25 859C1618.49 854.541 1609.51 843.935 1610.94 838.567C1613.12 830.383 1645.63 831.236 1652.85 828.811C1657.51 827.242 1661.93 821.149 1667.54 822.356M1387 837C1409.96 859.126 1408.34 884.233 1411.21 914C1411.73 919.411 1417.46 938.791 1410.51 941.499C1407.69 942.594 1392.49 944.622 1390.82 942.137C1386.56 935.789 1390.08 917.602 1389.99 910C1389.7 885.851 1375.72 861.057 1387 837M1607 843C1621.4 856.937 1638.13 886.628 1646 905C1638.77 902.806 1630.2 908.518 1624.14 905.531C1608.83 897.988 1602.03 857.574 1607 843M214 904C204.856 899.497 179.863 885.059 177.001 874.981C175.945 871.26 187.226 844.655 190.885 845.323C194.45 845.974 196.718 857.054 197.798 860.04C203.088 874.675 209.186 889.24 214 904M114 845C123.748 850.58 132.901 858.385 142 865C134.546 864.782 115.097 852.61 114 845M1989 845C1989.99 846.478 1990 846.203 1990 848L1987 846L1989 845M2054 903C2053.01 898.955 2057.14 893.686 2055.49 890.358C2052.7 884.745 2020.55 875.898 2014 875.299C2007.54 874.707 1985.83 877.877 1982.76 869.577C1981.15 865.216 1989.45 850.314 1994.27 850.253C2012.99 850.018 2040.61 860.079 2059 865.079C2063.34 866.259 2078.24 871.546 2077.83 877.439C2077.14 887.405 2059.06 894.682 2054 903M134 853C137.641 855.5 141.488 857.298 144 861C140.088 858.985 136.497 856.67 133 854L134 853M553 895C546.606 897.289 540.519 904.18 534 905.002C525.873 906.028 516.672 899.035 509 897C510.349 902.814 522.627 907.203 521.919 911.841C521.215 916.448 498.044 923.478 500.544 927.579C502.016 929.993 508.425 928.54 510.997 929.887C518.932 934.042 548.957 950.883 551.375 959.106C553.107 964.994 531.356 987.503 527.312 993C526.413 994.221 520.352 1002.89 524.267 1003.68C527.423 1004.31 532.251 996.02 533.914 994C539.995 986.612 549.069 964.63 558.616 961.903C565.458 959.949 573.875 972.95 579 976C579 965.727 580.573 957.856 583 948C594.047 953.87 604.614 963.326 617 966C612.31 953.903 588.328 952.639 585.817 940.353C584.292 932.891 590.245 924.509 592.808 918C597.931 904.984 598.75 890.586 604.549 878C606.428 873.921 614.079 859.324 608.391 855.544C607.116 854.696 599.331 884.549 593.56 885.505C590.898 885.946 577.83 881.582 576.261 879.333C575.139 877.727 578.488 871.615 575.412 871.641C570.46 871.682 566.879 879.744 561.981 881.278C547.384 885.85 532.687 878.991 553 895M145.667 861.667C145.722 861.722 145.778 862.778 145.333 862.333C145.278 862.278 145.222 861.222 145.667 861.667M149 864C147.825 863.227 147.773 863.176 147 862C148.635 862.545 148.455 862.365 149 864M157 869C154.908 868.594 154.98 868.783 154 867L157 869M159 870L164 874L163 875L158 871L159 870M1291 872C1290.19 875.339 1290.16 878.579 1290 882C1292.92 879.225 1292.92 875.88 1293 872L1291 872M1979 877C1980.63 894.478 1978.38 912.043 1973.72 929C1972.59 933.106 1972.28 943.599 1967.64 945.339C1959.54 948.371 1943.06 936.335 1936 933C1946.41 914.008 1964.51 895.349 1977 877L1979 877M1985.82 877.822C1996.52 871.058 2025.34 883.103 2036 886.685C2039.46 887.85 2048.8 890.322 2049.75 894.451C2053.53 910.983 2025.81 935.561 2016.78 947C2013.57 951.057 2009.47 958.986 2005.01 961.56C2000.86 963.949 1992.67 957.766 1988.92 956.099C1984.63 954.192 1975.7 953.202 1973.42 948.653C1968.9 939.641 1981.87 913.539 1982.88 903C1983.33 898.271 1981.81 880.359 1985.82 877.822M1029 878C1030.23 880.009 1030.99 880.772 1033 882C1032.06 879.495 1031.51 878.936 1029 878M174 881C183.294 887.038 192.714 892.563 201 900C192.233 901.283 179.283 887.472 173 882L174 881M550 885C561.101 886.222 554.023 892.988 550 885M535 910C548.309 906.978 555.122 890.113 567.14 886.421C595.969 877.563 588.477 901.811 579.824 917C577.702 920.725 575.015 930.632 570.495 931.916C564.976 933.485 552.525 924.412 548 921.51C543.155 918.403 537.987 914.981 535 910M942 899C942.866 904.267 940.384 908.758 940 914C937.052 909.276 938.418 904.057 940 899L942 899M1631 925C1624.28 923.465 1625.34 917.867 1624 912C1632.32 910.07 1640.85 905.299 1648.81 911.088C1657.77 917.596 1676.93 948.451 1660.26 957.137C1644.92 965.134 1606.46 942.001 1631 925M590 911C589.659 914.021 589.069 915.761 587 918C586.526 914.453 587.037 913.032 590 911M1657 914C1666.81 917.6 1668.96 919.216 1668 930C1663.39 926.633 1657 919.964 1657 914M512 922C518.343 920.981 525.752 914.545 532 916.371C543.036 919.598 583.613 940.652 557.54 952.157C546.938 956.836 516.991 930.589 512 922M587 919C584.556 926.051 581.457 932.43 583 940C571.067 936.789 577.866 921.174 587 919M234 922C238.16 924.655 240.87 927.536 243 932C239.038 929.675 236.185 926.284 233 923L234 922M1660 969C1646.85 968.948 1638 962.207 1626 958.365C1606.66 952.171 1587.72 949.194 1569 940.774C1565.46 939.183 1541.02 929.272 1543.41 925.886C1547.98 919.419 1567.06 933.401 1571.92 935.341C1593.39 943.898 1617.02 948.166 1639 957.3C1647.05 960.646 1657.6 959.689 1660 969M2038 927C2034.79 941.213 2026.83 957.353 2028 972C2020.81 970.539 2014.76 966.642 2008 964C2013.26 951.767 2027.38 934.967 2038 927M1568 928C1571.72 929.561 1575.4 930.837 1578 934C1574.98 933.325 1567.32 931.82 1568 928M1596 933C1600.48 932.714 1604.67 931.709 1609 930.569C1633.03 924.245 1606.35 957.656 1596 933M231 933C243.018 945.074 250.072 946.137 248 964C240.333 958.878 230.947 942.375 231 933M246 933L248 937C246.591 935.481 246.145 935.012 246 933M575 964C557.37 958.17 566.896 950.907 571 939C582.846 943.953 576.234 954.436 575 964M1670 944C1672.93 948.855 1675.77 953.781 1678 959C1666.48 958.59 1665.17 954.256 1670 944M264 945C269.624 950.094 275.87 954.542 280 961C273.056 958.426 266.427 951.813 262 946L264 945M1951 1037C1952.13 1011.63 1957.35 979.124 1970.23 956.409C1972.98 951.577 1998.46 961.592 1999.94 966.453C2001.69 972.215 1991.88 981.697 1988.9 986C1977.03 1003.18 1966.11 1022.4 1951 1037M253 956C277.04 964.93 273.061 1008.82 255.626 980C253.859 977.08 251.409 974.278 250.328 971C248.652 965.914 252.877 961.123 253 956M1356 1117C1360.11 1119.39 1365.34 1120.1 1370 1121C1367.81 1115.48 1361.05 1117 1356 1117M127.5 1131.5C126.872 1132.13 127.873 1133.13 128.5 1132.5C129.127 1131.87 128.127 1130.87 127.5 1131.5M849 1283C851.313 1289.56 862.433 1286.07 868 1286.52C879.17 1287.42 905.994 1291.23 914.581 1298.6C923.147 1305.96 914.435 1321.18 909.681 1327.96C892.052 1353.11 861.282 1344.96 836 1351C841.789 1359.05 854.124 1353.19 863 1352.79C892.868 1351.46 927.177 1333.9 921 1299C927.292 1299.6 940.779 1300.3 944.953 1305.76C949.844 1312.16 937.995 1343.12 935.835 1351C933.972 1357.8 925.865 1372.25 935 1376C936.644 1358.37 941.708 1339.8 947.319 1323C948.605 1319.15 949.169 1308.68 953.482 1307.06C965.215 1302.64 988.953 1316.91 1001 1319C996.845 1301.9 959.79 1313.03 954.999 1298.76C953.005 1292.82 958.548 1282 959.788 1276C964.435 1253.51 968.521 1232.06 966.21 1209C965.466 1201.58 964.256 1188.8 958 1184C955.202 1200.11 964.848 1219.41 962.661 1237C961.328 1247.73 959.234 1258.48 956.745 1269C954.972 1276.49 953.972 1291.61 948.877 1297.41C945.009 1301.82 921.891 1296.05 919.161 1290.93C903.483 1261.55 898.125 1226.64 895.217 1194C892.197 1160.1 910.584 1156.95 928 1184C929.16 1164.17 898.857 1146.81 891.666 1172C884.732 1196.29 895.408 1235.5 902.898 1259C904.68 1264.59 916.586 1287.33 912.654 1292.02C909.992 1295.2 899.256 1289.98 896 1289.14C879.211 1284.79 866.474 1283 849 1283M1310 1184C1309.73 1198.13 1313.32 1237.33 1303.76 1248.28C1298.71 1254.06 1275.33 1250.84 1268 1251.36C1240.49 1253.32 1210.7 1261.33 1184.79 1268.98C1178.82 1270.74 1154.24 1277.66 1152 1275C1147.22 1277.98 1141.65 1277.24 1138 1282C1157.44 1286.84 1183.05 1275.08 1202 1271.12C1208.51 1269.76 1221.47 1266.05 1227.5 1270.26C1232.86 1274 1230.13 1288.4 1230.02 1294C1229.62 1314.71 1228 1335.27 1228 1356C1228 1361.17 1225.78 1373.43 1230.39 1377.03C1232.93 1379.01 1234.48 1376.23 1234.54 1373.93C1234.93 1358.76 1232.88 1346.13 1251.22 1341.56C1288.18 1332.36 1331.94 1334.01 1370 1334C1375.7 1334 1405.7 1334.44 1405.7 1327.9C1405.7 1323.07 1381.76 1317.3 1377.3 1317.47C1344.45 1318.72 1304.92 1321.01 1273 1328.5C1268.56 1329.55 1236.76 1338.98 1237.57 1340.15C1233.39 1334.13 1239.33 1315.99 1239.86 1309C1240.64 1298.65 1235.14 1275.39 1240.48 1266.74C1242.67 1263.2 1250.35 1263.22 1254 1262.56C1264.01 1260.75 1293.7 1252.33 1302.4 1258.28C1307.17 1261.54 1304.04 1270.34 1304.12 1275C1304.38 1290.19 1302.76 1315.36 1319 1318C1311.95 1298.91 1316.01 1272.03 1318.2 1252C1319.02 1244.52 1322.81 1231.83 1314 1228C1315.1 1234.58 1315.28 1240.34 1315 1247C1309.92 1233.84 1313.24 1214.85 1314.38 1201C1314.87 1194.99 1317.14 1186.15 1310 1184M207 1207C207.706 1209.74 208.008 1212.17 208 1215L201 1212C206.611 1237.48 174.412 1274.94 163.079 1298C158.979 1306.34 154.776 1321.86 146.593 1327.06C142.415 1329.72 128.452 1327.81 123 1328C125.384 1334.14 139.972 1334.22 139.217 1339.21C136.743 1355.55 111.395 1377.29 102.697 1391.92C101.138 1394.54 90.6001 1406.65 94.7308 1409.46C97.7857 1411.53 106.69 1395.39 108.154 1392.99C117.155 1378.24 127.926 1364.67 138.622 1351C141.906 1346.8 144.178 1339.1 149.266 1336.82C163.53 1330.42 186.193 1336.38 201 1337.78C203.961 1338.06 217.94 1340.34 219.534 1338.07C222.648 1333.65 214.187 1332.85 211.997 1333.11C197.076 1334.87 182.246 1329.53 167 1330.64C163.959 1330.86 155.263 1331.21 155.055 1326.72C154.637 1317.69 165.354 1304.65 169.518 1297C181.74 1274.55 201.675 1246.99 207 1222C222.029 1236.79 222.061 1259.69 225.64 1279C234.542 1327.02 228.637 1387.47 253 1431C226.357 1423.76 196.571 1428.54 169 1427.98C145.708 1427.51 124.889 1422.34 102 1420C105.755 1429.61 118.073 1426.26 126 1429.61C135.777 1433.75 146.461 1431.54 157 1432.08C180.134 1433.25 203.918 1434.72 227 1432.32C231.358 1431.87 257.416 1437.31 256.758 1437.9C263.646 1431.78 245.203 1396.48 244.067 1388C237.915 1342.13 233.1 1295.64 225.363 1250C223.986 1241.88 214.048 1208.98 207 1207M1935 1215C1934.92 1219.71 1938.79 1224.44 1937.8 1228.92C1933.88 1246.53 1912.38 1264.98 1899 1276C1898.41 1272.65 1898.06 1269.4 1898 1266C1891.31 1268.4 1890.06 1276.8 1889.28 1283C1887.02 1301.22 1882.06 1316.47 1877.04 1334C1875.97 1337.73 1869.23 1351.92 1873.55 1354.67C1877 1356.87 1881.27 1335.2 1884.43 1333.03C1892.97 1327.17 1906.86 1332.81 1916 1333C1900.33 1349.64 1874.79 1365.93 1864 1386C1876.07 1383.54 1880.91 1372.9 1889.34 1365.1C1910.12 1345.88 1929.78 1325.83 1950 1306C1950.93 1320.4 1943.68 1354.38 1956 1363C1959.36 1345.94 1947.92 1322.21 1954.82 1305.04C1960.16 1291.77 1979.68 1287.61 1984 1273C1973.1 1279.57 1965.05 1290.75 1954 1297C1954 1276.63 1950.67 1257.07 1948.19 1237.04C1947.61 1232.38 1954.92 1227.68 1952.59 1223.65C1951.45 1221.68 1938.8 1218.71 1935 1215M1948 1227L1946 1230C1945.95 1227.67 1945.8 1227.99 1948 1227M521 1241C519.048 1238.36 517.028 1237.24 514 1236C522.177 1233.93 532.69 1234.28 541 1235.64C548.685 1236.89 564.461 1235.62 570.499 1240.82C587.44 1255.41 572.916 1304.69 573.992 1324C574.453 1332.27 569.502 1349.56 577 1355C579.581 1340.42 577.342 1326.54 578.078 1312C579.195 1289.93 586.086 1260.73 576 1240C597.664 1240.2 619.118 1243.61 640 1248.26C647.887 1250.01 657.722 1247.29 663.079 1255.11C668.306 1262.74 664.466 1272.67 663.842 1281C662.782 1295.14 665.342 1309.62 664.225 1324C663.66 1331.27 673.184 1361.94 668.228 1365.67C658.009 1373.37 630.052 1363.31 619 1360.8C581.945 1352.38 546.848 1363.66 510 1364C514.006 1373.6 535.591 1366.97 544 1365.94C578.997 1361.64 605.268 1364.69 640 1369.22C646 1370 669.452 1374.28 673.575 1369.14C679.228 1362.09 666.404 1335.68 667.441 1326C669.104 1310.46 665.97 1294.39 668.1 1279C669.169 1271.28 671.577 1257.75 666.278 1251.21C661.47 1245.26 649.991 1245.26 643 1243.65C620.777 1238.54 597.8 1236.72 575 1234.87C556.273 1233.35 536.841 1228.18 518 1230.24C514.526 1230.62 502.357 1231.32 500.625 1234.71C497.519 1240.81 518.045 1241.47 521 1241M504 1354C502.007 1355.44 500.604 1357.11 499 1359C499.171 1316.03 503.096 1281 490 1239C493.268 1243.87 495.039 1249.59 500 1253C498.905 1249.72 493.373 1231.42 488.722 1233.11C482.712 1235.28 492.311 1259.84 493.321 1264C499.197 1288.18 498.538 1314.43 496.215 1339C495.584 1345.68 491.657 1361.79 499.174 1365.89C504.984 1369.07 503.893 1356.71 504 1354M1942 1232C1944.33 1251.02 1958.36 1281.75 1948.74 1301C1938.84 1320.79 1920.74 1329.38 1901 1327.34C1897.85 1327.01 1888.4 1329.85 1886.48 1326.98C1883.88 1323.09 1892.34 1307.24 1893.93 1303C1904.69 1274.31 1923.37 1261.46 1942 1238L1938 1239L1940 1232L1942 1232M1537 1275C1542.47 1273.92 1547.21 1269.82 1553 1270.92C1585.72 1277.1 1587.69 1327.43 1584.43 1352C1583.52 1358.87 1573.38 1385.61 1581.15 1388.13C1588.94 1390.67 1599.23 1384.01 1607 1383.19C1619.76 1381.82 1635.49 1395.01 1647.48 1383.4C1657.96 1373.26 1657.1 1347.36 1655.68 1334C1655.25 1329.97 1655.65 1321.03 1651.51 1318.82C1641.76 1313.64 1625.71 1324.47 1616 1326C1625.39 1315.16 1635.06 1304.71 1644.56 1294C1650.46 1287.35 1656.49 1280.79 1662.46 1274.22C1665.6 1270.75 1691.42 1252.21 1689.89 1248.64C1687.76 1243.63 1671.82 1259.36 1670 1261.07C1650.99 1278.95 1633.34 1297.71 1616.99 1318C1613.13 1322.79 1586.63 1342.74 1604 1344C1599.07 1333.77 1610.95 1343.18 1614 1337L1609 1336C1616.51 1330.79 1639.42 1319.04 1648.52 1323.82C1660.45 1330.09 1651.19 1373.55 1642.87 1380.35C1633.15 1388.3 1618.63 1378.53 1608 1378.45C1599.3 1378.38 1589.93 1383.35 1581 1384C1593.34 1354.38 1600.31 1271.43 1552 1268C1561.52 1257.53 1582.6 1252.15 1596 1249.24C1599.69 1248.44 1612.64 1249.52 1614.24 1245.47C1616.26 1240.38 1595.14 1245.83 1593 1246.32C1577.55 1249.88 1543.06 1258.46 1537 1275M1310 1271L1310 1276C1309.37 1273.99 1309.37 1273.01 1310 1271M1895 1276C1895.68 1279.22 1894.97 1281.88 1894 1285C1893.17 1281.76 1893.72 1279.06 1895 1276M1403 1328C1383.94 1325.29 1362.99 1334.8 1344 1330C1353.53 1324.49 1395.99 1319.45 1403 1328M1695 1493C1666.49 1528.31 1640.77 1566.21 1615.23 1604C1610.86 1610.46 1593.96 1644.08 1583.26 1625.27C1580.75 1620.86 1589.19 1611.01 1591 1606.99C1598.7 1589.91 1608.89 1572.71 1611.34 1554C1612.18 1547.53 1616.64 1539.2 1610 1535C1599.11 1570.12 1589.93 1602.72 1571.69 1636C1561.21 1655.12 1537.27 1683.89 1536.11 1706C1535.8 1711.95 1543.33 1716.33 1548.04 1718.47C1563.38 1725.42 1579.36 1731.51 1595 1737.77C1598.93 1739.34 1610.25 1745.18 1614.18 1742.58C1618.02 1740.04 1618.93 1725.53 1620.39 1721C1626.55 1701.92 1633.5 1683.98 1642.4 1666C1644.72 1661.32 1653.24 1649.71 1650.5 1644.49C1645.36 1634.72 1611.54 1635 1602 1635C1623.62 1589.3 1658.55 1547.26 1691 1509C1705.56 1546.62 1705.22 1579.28 1705 1619C1704.97 1625.34 1708.91 1651.87 1705.02 1655.76C1695.82 1664.97 1666.55 1651.98 1660.41 1661.7C1656.99 1667.11 1668.79 1666.54 1671 1666L1668 1664C1676.41 1663.34 1703.96 1667.15 1709.74 1660.97C1714.77 1655.59 1709.3 1630.65 1709.64 1623C1711.46 1581.63 1710.42 1546.03 1695.68 1507.02C1693.77 1501.99 1697.75 1497.78 1695 1493M1851 1616C1849.39 1621.48 1853.23 1623.75 1857 1627C1854.59 1626.84 1852.36 1626.52 1850 1626C1851.11 1633.92 1857.48 1629.4 1862.68 1632.81C1872.51 1639.23 1897.25 1654.88 1901.09 1666.08C1905.03 1677.55 1899.6 1704.48 1895.9 1716C1893.96 1722.03 1886.62 1732.67 1889.85 1739.25C1892.13 1743.91 1896.23 1728.43 1896.82 1727.14C1903.13 1713.23 1913.57 1700.76 1918 1686C1927.8 1695.8 1958.94 1718.39 1959.56 1733C1960.25 1749.24 1941.66 1762.5 1941 1779C1950.97 1776.17 1960.14 1746.81 1963 1737C1974.4 1746.68 1987.4 1768.9 1988 1784C2004.23 1772.47 1968.41 1743.73 1966.88 1731.44C1965.59 1721.03 1979.2 1698.7 1983.75 1689.07C1987.97 1680.13 2020.02 1690.09 2027.32 1694.51C2029.83 1696.03 2038.9 1702.86 2041.72 1700.6C2045.7 1697.41 2038.88 1682.56 2037.29 1679C2029.72 1661.95 2008.49 1641.19 2011.02 1621.06C2012.54 1608.95 2039.91 1616.36 2039.68 1615.01C2038.02 1605.48 2018.64 1609.61 2013 1610C2019.97 1588.92 2030.68 1567.4 2032.85 1545C2033.51 1538.15 2036.52 1527.46 2030 1523C2029.99 1552.05 2020.05 1581.39 2009 1608C2002.39 1589.39 1999.72 1569.61 1993.4 1551C1989.88 1540.64 1986.32 1529.71 1979.5 1521.01C1973.84 1513.78 1967.17 1506.26 1958 1504.19C1951.73 1502.78 1940.46 1494.84 1934.4 1496.22C1928.07 1497.67 1922.3 1513.67 1919.73 1519C1909.28 1540.65 1908.8 1563.59 1906.32 1587C1905.57 1594.06 1908.31 1607.54 1905.18 1613.52C1897.74 1627.7 1859.62 1626.05 1851 1616M917 1499C920.214 1512.44 936.674 1519.2 938.717 1532C939.85 1539.1 932.815 1548.7 930.041 1555C928.625 1558.22 926.126 1567.58 922.808 1569.12C919.463 1570.66 910.159 1565.23 906 1564.95C891.624 1564 877.082 1565.46 863 1568.35C859.933 1568.97 847.042 1568.37 846.323 1572.33C846.037 1573.91 882.434 1580.84 887 1580C882.725 1575.42 873.895 1574.67 868 1573C876.442 1569.29 913.855 1563.95 918.423 1575.32C920.423 1580.3 912.545 1590.49 910.391 1595C903.177 1610.09 892.544 1648.91 876.979 1656.32C866.183 1661.45 850.799 1664.39 839 1666.24C836.174 1666.68 826.877 1666.4 826.603 1670.65C826.451 1673 836.38 1671.03 838.001 1671C843.141 1670.89 873.472 1659.74 874.953 1663.6C876.714 1668.18 869.332 1676.34 867.164 1680C857.755 1695.89 847.481 1713.19 834 1726L834 1718C832.519 1719.97 828.029 1731 833.501 1731C839.844 1731 845.645 1719.37 848.852 1715C860.999 1698.46 869.396 1676.32 882.876 1661.35C891.157 1652.15 912.894 1649.52 924 1642.89C929.741 1639.46 945.182 1632.72 934 1627C928.412 1640.78 900.992 1651.11 887 1652C897.158 1635.45 904.221 1617.16 912.925 1599.86C915.581 1594.59 918.62 1583.42 923.755 1580.2C931.56 1575.31 949.279 1594.97 955.276 1598.57C956.788 1599.48 965.131 1602.46 965.678 1599.48C967.125 1591.59 932.372 1579.62 928.219 1572.52C925.101 1567.19 939.31 1546.09 940 1539C956.855 1554.13 950.758 1581.71 973 1594C972.041 1585.16 965.941 1582.92 961.668 1575.97C955.69 1566.25 946.744 1545.28 945.528 1534C944.176 1521.47 959.449 1508.71 961 1496C955.02 1499.75 947.64 1525.36 941.981 1525.36C931.725 1525.35 930.253 1500.47 917 1499M1962 1535C1962.88 1527.44 1961.28 1519.74 1962 1512C1974.52 1518.58 1969.35 1541.02 1966.22 1552C1958.41 1579.41 1953.17 1632.7 1911.71 1615.32C1905.73 1612.82 1909.11 1591.32 1909.68 1586C1912.39 1560.56 1915.45 1537.18 1927.12 1514C1932.75 1502.83 1948.84 1496.09 1957.6 1510.76C1961.08 1516.57 1958.61 1527.65 1962 1535M1973 1521C1989.14 1537.88 1991.45 1565.61 1997.88 1587C1999.12 1591.14 2006.12 1606.37 2002.1 1609.7C1999.21 1612.09 1992.51 1609.1 1989 1609.37C1976.22 1610.34 1963.87 1613 1951 1613C1960.18 1581.72 1967.82 1553.09 1973 1521M1340 1581C1330.54 1595.76 1291.79 1593.2 1277 1590C1287.76 1575.48 1296.39 1543.52 1311.18 1533.77C1315.99 1530.6 1324.22 1535.37 1329 1537.06C1342.76 1541.91 1374.03 1547.07 1380.6 1562.05C1383.57 1568.83 1378.1 1580.33 1376.38 1587C1371.3 1606.69 1363.44 1627.45 1363.02 1648C1362.89 1654.14 1366.46 1671.58 1361.2 1675.74C1350.44 1684.25 1317.33 1681.8 1305 1680C1310.78 1697.17 1338.12 1683 1350 1681.46C1354.07 1680.93 1363.58 1683.82 1366.31 1680.18C1372.35 1672.12 1367.7 1649.77 1368.04 1640C1368.94 1614 1389.21 1588.05 1386.5 1562.04C1384.83 1546.1 1342.37 1536.09 1330 1531.56C1325.21 1529.81 1316.57 1524.15 1311.46 1525.88C1305.75 1527.81 1303.74 1536.12 1301.11 1540.78C1293.4 1554.5 1286.81 1570.98 1276.64 1582.99C1272.9 1587.41 1259.82 1591.8 1258.11 1596.38C1256.01 1601.99 1272.12 1594.5 1273 1594.31C1288.51 1590.83 1304.23 1598.41 1320 1593.45C1323.95 1592.21 1333.93 1588.25 1335.94 1594.23C1338.37 1601.45 1331.26 1612.95 1329.67 1620C1328.05 1627.22 1329.57 1648.08 1324.18 1652.91C1320.57 1656.16 1313.4 1652.44 1309 1653.03C1285.93 1656.08 1266.49 1649.15 1244.96 1646.45C1233.97 1645.07 1203.76 1646.69 1195.52 1639.06C1190.77 1634.66 1200.95 1622.43 1202.99 1618C1212.83 1596.59 1226.04 1576.93 1234.86 1555C1236.11 1551.9 1244.96 1530.47 1240.64 1529.4C1235.4 1528.1 1231.71 1551.09 1230.08 1555C1220.74 1577.44 1207.65 1598.26 1196.78 1619.98C1194.56 1624.43 1184.2 1637 1188.85 1641.74C1196.33 1649.36 1213.44 1647.13 1223 1648.06C1236.09 1649.33 1247.56 1655.6 1260 1657.68C1272.01 1659.7 1284.85 1657.27 1297 1658.21C1303.43 1658.71 1325.28 1662.6 1330.13 1658.64C1333.01 1656.29 1329.85 1644.81 1330.22 1641C1331.34 1629.77 1348.31 1586.83 1340 1581M145 1614C132.562 1604.22 121.277 1583.32 105 1580C109.525 1588.88 140.186 1607.1 137.28 1616.99C135.851 1621.85 127.067 1626.54 123.471 1630C111.882 1641.17 100.771 1652.95 89.0303 1663.9C85.767 1666.94 73.0559 1675.24 74.9106 1680.51C75.9413 1683.43 95.6725 1667.3 98.3202 1664.97C109.289 1655.32 125.28 1649.4 138 1642.1C141.929 1639.84 148.696 1634.07 153.559 1635.14C158.525 1636.23 165.854 1646.9 167.991 1651.3C170.385 1656.23 161.535 1664.12 158.849 1668C151.527 1678.58 127.329 1700.88 129 1714C147.56 1704.09 163.733 1685.04 184.562 1678.69C189.949 1677.05 201.733 1692.36 201.074 1697.34C199.956 1705.8 183.882 1720.37 178.779 1727.94C177.605 1729.69 170.971 1736.41 174.476 1738.34C177.601 1740.07 181.809 1733.12 183.433 1731.32C187.703 1726.6 206.507 1709.03 213 1712.1C239.512 1724.63 222.063 1756.32 202 1765C207.437 1775.35 232.472 1744.17 241.574 1743.8C247.311 1743.57 254.26 1753.09 259 1756C257.901 1747.53 250.072 1743.23 245 1737C263.756 1731.42 279.395 1709.67 295 1698.41C296.206 1697.54 312.873 1685.5 306.421 1684.32C303.527 1683.79 296.512 1690.66 294 1692.29C280.435 1701.12 268.272 1713.94 256.019 1724.52C253.339 1726.83 242.492 1738.54 239.118 1732.57C235.714 1726.54 249.085 1714.24 252.475 1710C265.229 1694.06 279.832 1679.34 291.981 1663.01C306.861 1643 298.63 1641.28 281 1654.61C276.869 1657.74 272.728 1660.85 268.68 1664.08C261.597 1669.73 253.36 1674.12 246 1679.48C234.739 1687.69 222.808 1693.83 214 1705C205.465 1694.23 215.904 1688.23 223.14 1679.98C234.972 1666.49 248.445 1654.11 259.22 1639.72C262.973 1634.71 269.286 1629.63 268 1623C251.862 1634.33 233.91 1642.72 217 1652.87C209.094 1657.62 200.135 1666.84 191.089 1669.01C186.001 1670.23 177.527 1658.94 177.539 1654.35C177.558 1646.55 197.388 1631.28 202.345 1624.78C203.9 1622.75 209.917 1616.44 208.335 1613.69C201.74 1602.2 160.245 1619.58 158 1629C173.113 1625.55 185.977 1615.17 202 1615C199.694 1621.65 180.172 1648.72 172.902 1647.68C165.057 1646.55 148.014 1621.04 145 1614C151.714 1613.94 157.365 1604.64 161.764 1600.12C174.832 1586.68 188.463 1573.82 201.534 1560.47C204.009 1557.94 219.786 1547.02 214.848 1542.4C212.159 1539.89 199.257 1556.26 197.118 1558.28C182.915 1571.71 148.692 1594.29 145 1614M482 1772C478.251 1763.27 466.973 1765.44 459 1763.95C446.893 1761.69 435.233 1754.19 424 1749.35C420.042 1747.65 409.375 1747.55 407.742 1742.87C406.171 1738.36 421.48 1721.28 424.406 1717.32C440.73 1695.22 460.254 1676.62 479.217 1656.98C484.018 1652 494.508 1638.01 502.04 1638.76C505.515 1639.11 530.887 1645.49 531.677 1641.72C533.557 1632.72 492.615 1643.54 512.361 1625C514.003 1623.46 515.795 1621.77 518.008 1621.11C529.822 1617.57 553.999 1641.07 564.003 1646.65C575.377 1652.99 607.177 1668.42 620 1665.36C639.206 1660.77 653.811 1629.92 663.853 1615C668.222 1608.51 687.599 1589.61 686.562 1582.32C684.943 1570.96 653.757 1566.09 645 1564.7C607.376 1558.72 570.376 1545.24 532 1547.13C525.616 1547.45 511.794 1543.7 506.545 1545.94C488.361 1553.7 472.453 1585.09 457.96 1598.78C453.895 1602.62 441.965 1610.69 444.872 1617.63C448.549 1626.41 470.432 1633.21 479 1634.3C481.575 1634.63 491.253 1634.25 490.193 1638.79C488.4 1646.48 471.582 1656.92 465.922 1662.24C448.473 1678.63 431.471 1698.37 417.738 1718C415.026 1721.88 398.281 1740.73 400.404 1744.59C405.222 1753.36 437.253 1759.39 447 1764.63C457.772 1770.42 470.399 1769 482 1772M1610 1545.33C1610.77 1545.33 1610.16 1545.83 1609.67 1545.67L1610 1545.33M449 1612C465.84 1601.58 479.938 1582.16 492.883 1567.32C497.73 1561.76 505.302 1557.48 507 1550C522.244 1554.11 536.838 1549.58 552 1551.24C579.981 1554.29 607.802 1560.6 635 1567.18C648.509 1570.45 671.876 1569.62 679.982 1583.9C682.237 1587.87 669.44 1599.7 667.024 1603C655.556 1618.66 639.307 1654.59 619 1660.01C612.546 1661.73 604.206 1655.48 598 1654.05C569.422 1647.44 548.609 1621.8 521.04 1615.14C509.654 1612.38 505.163 1634.92 491.997 1631.7C476.766 1627.97 456.928 1628.45 449 1612M2006 1614C2001.94 1620.06 1994.12 1620.98 1989 1626C1994.17 1624.18 1999.57 1622.7 2005 1622C2001.5 1636.14 1994.63 1649.47 1989.35 1663C1987.8 1666.99 1986.65 1675.1 1982.48 1677.17C1977.57 1679.61 1970.04 1675.88 1965 1675.22C1951.97 1673.52 1939.12 1673 1926 1673C1928.58 1661.42 1940.05 1626.36 1949.58 1619.46C1962.83 1609.87 1990.78 1613.98 2006 1614M141 1619C145.783 1622.37 149.326 1626.33 151 1632C140.618 1632.03 102.63 1659.96 124.945 1636.52L131.077 1630.01C134.595 1626.41 138.186 1623.21 141 1619M1918 1677C1904.35 1663.62 1907.59 1655.34 1907.98 1638C1908.08 1633.74 1907.09 1624.26 1910.82 1621.26C1913.83 1618.83 1941.6 1620.16 1942.34 1623.29C1944.27 1631.39 1933.05 1647.88 1929.33 1655C1925.51 1662.32 1922.55 1670.07 1918 1677M1904 1660C1893.21 1656.17 1872.51 1639.15 1867 1629C1874.24 1628.71 1899.58 1618.66 1904.15 1623.69C1907.88 1627.79 1903.05 1652.85 1904 1660M2009 1627C2009.46 1650.55 2029.61 1672.42 2038 1694C2029.72 1690.97 1991.62 1686.07 1989.14 1677.55C1985.35 1664.55 2005.44 1641.15 2006 1627L2009 1627M1612 1738C1593.46 1734.05 1575.21 1725.48 1558 1717.53C1552.75 1715.11 1542.77 1711.48 1541.63 1704.99C1539.4 1692.31 1556.42 1674.08 1562.32 1664C1566.44 1656.95 1571.99 1634.58 1580.24 1632.08C1586.13 1630.3 1593.51 1636.65 1599 1638.11C1609.28 1640.86 1621.18 1639.94 1632 1642.56C1635.01 1643.29 1645.66 1644.77 1646.23 1648.5C1647.33 1655.57 1635.27 1669.63 1632.09 1676C1623.1 1694 1614.9 1718.14 1612 1738M254 1639C252.637 1640.48 252.027 1640.64 250 1641C251.377 1640.09 252.44 1639.6 254 1639M249 1642C245.782 1655.58 225.566 1671.09 216.04 1681C213.551 1683.59 209.412 1691.1 205.675 1691.68C199.116 1692.71 192.598 1676.82 192 1672C212.875 1668.95 228.007 1645.3 249 1642M111 1651C112.343 1645.91 116.088 1649.66 111 1651M292 1654C285.644 1681.53 239.657 1698.83 236 1729C230.488 1725.61 216.144 1714.77 217.348 1707.21C218.207 1701.82 229.823 1695.91 234 1693.02C250.877 1681.34 272.782 1660.3 292 1654M145 1697C146.126 1690.15 164.876 1660.97 172.089 1660.08C176.586 1659.53 185.656 1670.65 182.073 1674.66C177.326 1679.97 166.924 1682.7 161 1687.07C155.805 1690.89 151 1694.52 145 1697M1901 1707C1903.14 1694.93 1904.95 1682.28 1905 1670C1921.47 1676.17 1911.83 1699.74 1901 1707M818 1671C819.947 1674.06 821.364 1674.99 825 1675C822.95 1672.32 821.319 1671.55 818 1671M1921 1678C1933.3 1678.26 1970.82 1672.37 1979.64 1683.24C1982.53 1686.8 1967.9 1723.57 1963.34 1724.89C1959.3 1726.06 1953.38 1717.41 1951 1715C1941.07 1704.9 1925.22 1691.83 1921 1678M196 1713C203.265 1694.63 214.988 1710.09 196 1713M232 1735C241.153 1738.93 228.996 1751.44 232 1735M568 1851C566.558 1865.62 585.748 1867.12 592 1878C579.786 1880.97 574.485 1900.15 564.545 1901.96C560.703 1902.66 556.097 1896.95 552.922 1895.26C540.768 1888.79 526.71 1874.93 513 1872.75C495.63 1869.98 490.887 1881.69 507 1889C505.831 1886.26 499.728 1882.16 500.348 1879.39C501.487 1874.29 513.036 1877.09 515.997 1878.38C524.446 1882.05 554.879 1898.07 558.16 1906.1C562.198 1915.98 541.978 1939.67 538.978 1950C530.224 1980.13 539 2010.46 539 2042L541 2042L540 1980C551.674 1982.11 567.553 1982.21 579 1978.72C597.563 1973.05 608.078 1960.84 625.856 1974.98C638.065 1984.69 637.837 2017.42 642.268 2032C643.864 2037.25 646.919 2048.96 653.116 2050.43C665.373 2053.33 663 2025.48 663 2019C658.237 2025.37 658.513 2039.89 656 2048C641.557 2032.08 640.1 2002.28 635 1982C640.493 1985.32 646.404 1989.26 653 1989C648.493 1983.02 640.58 1980.71 635.71 1974.86C613.718 1948.42 669.955 1945.94 682 1934C667.126 1934.15 642.087 1942.82 631 1953C624.386 1939.91 623.277 1925.39 617.952 1912C613.209 1900.07 604.29 1889.91 600 1878C606.901 1883.45 610.61 1891.31 619 1895C610.398 1873.91 575.615 1871.66 571 1851L568 1851M216 1873C227.469 1873.16 230.212 1883 239 1888C237.078 1880.52 223.756 1862.8 216 1873M134 2035C106.915 2022.09 89.2878 2074.09 120 2085.85C125.14 2087.82 129.125 2085.18 134 2084C134 2071.99 127.305 2043.71 142 2038C139.703 2031.81 140.149 2025.89 146 2022C146.736 2028.23 149.858 2032.71 153 2038C150.639 2037.48 148.412 2037.16 146 2037C153.238 2044.02 163.231 2042.05 168.433 2054C179.688 2079.86 158.161 2125.12 128 2124.96C105.148 2124.84 75.2188 2087.96 70.507 2067C66.6845 2049.99 76.0636 2032.86 84.5176 2019.01C87.7427 2013.72 95.2288 2006.26 95 2000C57.2202 2030.78 61.2993 2074.68 91.9228 2107C102.976 2118.66 113.801 2129.88 131 2128.92C174.459 2126.48 186.423 2063.47 160 2037C175.717 2032.69 173.997 2042.42 185.99 2048.26C190.629 2050.52 198.26 2050.1 199 2044C213.102 2045.49 221.627 2023.12 225.444 2013C226.463 2010.3 229.603 1998.44 233.858 2000.32C240.027 2003.06 243.533 2013.54 246.678 2019C260.298 2042.63 262.686 2084.18 244.478 2105.98C232.911 2119.83 211.623 2131.44 205.193 2149C202.032 2157.63 213.732 2161.37 220 2163C217.358 2159.43 209.583 2156.25 209.559 2151.38C209.526 2144.88 223.649 2134.44 227.682 2130.02C243.675 2112.47 257.013 2103.04 259.679 2078C261.763 2058.42 259.904 2038.01 251.548 2020C247.548 2011.38 233.116 1997.71 236.004 1988C242.422 1966.42 258.214 1978.75 260.677 1995C265.049 2023.84 262.299 2052.06 264.085 2081C264.775 2092.18 269.561 2102.89 270 2114C273.755 2102.91 268.704 2084.81 268.118 2073C266.647 2043.4 275.642 2003.79 258.153 1977.51C254.95 1972.69 249.443 1971.85 245.638 1968.02C243.254 1965.62 245.273 1959.1 242.414 1957.76C237.781 1955.58 236.726 1983.01 228.644 1982.42C223.264 1982.02 215.955 1970.8 212 1967.34C206.295 1962.35 191.19 1956.18 188.845 1948.9C186.951 1943.03 193.537 1934.83 196.185 1930C204.738 1914.38 213.028 1898.89 221 1883C214.791 1883.06 212.486 1891.24 209.743 1896C201.841 1909.72 191.838 1924.92 187 1940C183.962 1937.24 176.09 1934.34 174.635 1930.64C172.774 1925.91 178.817 1917.79 181.164 1914.01C190.33 1899.21 211.505 1890.2 216 1874C201.722 1879.59 186.112 1898.35 177.992 1911C175.307 1915.18 171.559 1929.6 167.323 1931.46C162.437 1933.6 154.192 1922 151 1919.28C137.118 1907.47 109.323 1908.66 106.393 1931C104.473 1945.64 118.463 1948.32 122.937 1959.05C126.275 1967.05 124.042 1976.97 131.241 1983.46C135.195 1987.02 149.421 1989.5 151.162 1993.7C155.181 2003.4 137.476 2026.02 134 2035M1976 1910C1974.26 1901.82 1978.01 1887.88 1971 1882C1967.6 1904.45 1970.85 1938.37 1946.49 1953.73C1941.6 1956.82 1931.82 1953.63 1926 1954.65C1912.19 1957.07 1897.49 1963.74 1887 1973C1904.37 1974.43 1920.17 1951.58 1939.84 1959.77C1947.43 1962.93 1936.8 1981.49 1934.89 1987C1927.49 2008.36 1905.03 2043.23 1916.78 2065.94C1923.77 2079.45 1946.32 2076.56 1957.6 2083.59C1962.89 2086.87 1963.27 2094.01 1969.05 2097.3C1973.3 2099.72 1975.35 2098.6 1976 2094C1990.09 2098.43 2000.23 2090.99 2014 2091.9C2041.19 2093.71 2072.09 2103.79 2099 2100.3C2110.26 2098.84 2132.43 2095.69 2133.84 2082C2135.4 2066.79 2118.59 2044.24 2107.92 2034.36C2101.79 2028.69 2088.59 2021.55 2089.21 2012C2089.98 1999.93 2085.98 1972.03 2091.9 1962.08C2099.22 1949.79 2134.83 1936.79 2123.79 1916.46C2110.19 1891.41 2052.16 1868.55 2024 1876.2C2006.58 1880.94 1988.16 1897.19 1976 1910M2030 1879.36C2037.46 1878.31 2063.24 1881.85 2067.7 1888.67C2070.87 1893.52 2067 1916.14 2066.9 1923C2066.49 1949.58 2080.39 1985.46 2040 1990.06C2031.64 1991.01 2020.51 1981.92 2013 1978.67C2004.2 1974.87 1981.79 1971.02 1976.26 1963.32C1972.48 1958.07 1975.99 1947.04 1975.99 1941C1975.99 1933.75 1973.23 1925 1975.8 1918C1981.89 1901.44 2013.16 1881.74 2030 1879.36M593.599 1881.41C598.714 1882.02 602.559 1891.1 604.664 1895C612.537 1909.59 617.506 1925.08 621.926 1941C623.83 1947.85 626.87 1958.53 616.018 1958.36C610.44 1958.27 607.002 1951.65 603.74 1947.98C595.045 1938.22 571.779 1921.11 569.344 1908C567.888 1900.17 585.696 1880.47 593.599 1881.41M2090 1956C2090 1934.17 2089.28 1910.7 2079 1891C2120.79 1899.9 2134.11 1936.64 2090 1956M2074 1893C2086.91 1904.67 2085.96 1929.8 2086 1946C2086.01 1952.05 2087.28 1963.88 2078.24 1964.29C2071.78 1964.59 2073.15 1951.88 2072.78 1948C2071.36 1933.03 2066.28 1906.19 2074 1893M1211 1919C1208.18 1913.04 1203.61 1908.63 1199 1904C1224.08 1904 1258.13 1929.92 1253.5 1958C1251.07 1972.76 1238.45 1983.06 1235 1997C1225.94 1987.86 1224.9 1973.88 1218.7 1963C1217.43 1960.78 1213.84 1952.01 1209.92 1954.5C1206.82 1956.47 1208.44 1965.14 1210.18 1967.51C1217.62 1977.58 1229.42 1985.98 1228.76 2001.32C1228.16 2015.36 1204.93 2034.61 1197.08 2046C1194.57 2049.64 1187.39 2058.59 1190.35 2063.27C1194.07 2069.18 1206.27 2067.98 1212 2067.46C1224.02 2066.35 1247.5 2063.59 1258.78 2068.14C1265.38 2070.8 1277.98 2105.48 1282 2113L1275 2112C1277.86 2116.32 1282.02 2118.75 1287 2120C1285.32 2102.26 1272.46 2084.17 1265 2068C1278.26 2069.78 1293.96 2072.56 1300.3 2086.04C1303.94 2093.79 1302.76 2103.79 1308.56 2110.54C1322.59 2126.86 1351.18 2126.77 1369 2118C1355.11 2113.48 1338.93 2122.69 1324 2115.68C1305.8 2107.13 1310.9 2088.62 1298.82 2076.11C1289.29 2066.25 1275.84 2069.14 1265.1 2062.79C1252.02 2055.05 1236.3 2020.15 1235.63 2005.02C1234.8 1986.16 1261.42 1971.93 1257.59 1949C1254.22 1928.77 1224.15 1892.76 1200.08 1900.72C1190.19 1904 1206.05 1917.78 1211 1919M939 1977C939.683 1965.59 939.708 1958.77 933 1949C945.364 1948.98 985.27 1923.54 987 1911C992.8 1924.86 973.203 1959.4 969.038 1974C967.754 1978.5 965.903 1991.03 961.507 1993.29C956.371 1995.94 948.343 1991.47 943 1991.1C933.639 1990.45 924.222 1993.84 915 1995C918.78 2000.39 928.571 2005.01 935 2006C927.736 1988.59 955.499 1994.05 958.241 2002.27C961.937 2013.34 935.737 2042.26 946.704 2051.75C958.767 2062.19 980.015 2045.46 994 2047.19C1005.68 2048.63 1007.73 2061.94 1017 2067C1012.01 2047.64 995.901 2038.7 977.008 2044.04C970.362 2045.92 959.85 2053.55 953.169 2048.93C947.181 2044.78 958.378 2007.85 964.638 2004.17C969.299 2001.42 989.486 2005.88 996 2006C991.608 1995.61 970.1 2004.55 968.563 1993.78C966.2 1977.22 981.682 1945.47 987.909 1930C989.498 1926.05 997.909 1911 994.564 1907.18C991.772 1903.99 983.864 1911.84 981.923 1913.45C970.201 1923.18 956.615 1934.58 943 1941.47C937.803 1944.09 913.682 1951.79 913.106 1950.88C917.453 1957.73 928.996 1951.07 934.183 1958.2C938.369 1963.96 933.285 1972.28 939 1977M563.676 1912.11C567.743 1910.97 572.452 1918.69 574.588 1921.24C580.817 1928.7 609.019 1951.39 607.684 1960.72C607.067 1965.04 581.66 1972.64 577 1973.91C569.564 1975.94 546.249 1980.07 541.26 1972.41C534.111 1961.45 550.564 1934.39 555.861 1925C557.625 1921.87 559.827 1913.18 563.676 1912.11M159 1935C153.37 1933.26 148.805 1932.97 143 1934C147.777 1940.89 161.356 1940.78 163.48 1948.12C166.56 1958.77 156.038 1958.07 149 1957.99C137.635 1957.87 117.377 1953.82 112.428 1941.96C106.953 1928.83 117.715 1914.72 132 1915.15C143.363 1915.49 154.362 1925.27 159 1935M1597 1924C1603.56 1951.23 1622.52 1973.88 1630.12 2001C1635.17 2018.99 1630.8 2037.92 1634 2056C1620.47 2055.4 1606.71 2052.37 1593 2054.2C1587.16 2054.98 1579.95 2061.54 1588 2065C1589.13 2053.36 1627.74 2055.39 1633 2064C1614.49 2062.53 1595.83 2069.7 1578 2073.86C1573.36 2074.95 1561.34 2079.78 1557.44 2076.34C1550.69 2070.37 1565.11 2042.23 1567.43 2035C1576.97 2005.33 1580.77 1965.55 1551.94 1944.34C1537.74 1933.9 1517.7 1927.35 1500 1929.31C1494.76 1929.89 1484.45 1928.83 1483 1935C1534.97 1928.03 1578.56 1956.45 1569.08 2014C1566.47 2029.81 1555.62 2080.7 1537 2075C1540.93 2071.23 1546.17 2069.84 1549 2065C1544.59 2066.37 1534.04 2068.32 1533.32 2074.07C1532.36 2081.79 1546.51 2078.63 1548.5 2084.28C1554.43 2101.18 1545.88 2120.82 1558.02 2136.82C1572.64 2156.07 1621.16 2162.44 1642 2153.54C1665.85 2143.36 1646.01 2117.1 1644.1 2099C1639.08 2051.58 1638.65 2006.91 1618.8 1963C1612.44 1948.94 1616.13 1926.93 1597 1924M1971 1924C1972.65 1930.53 1976.43 1956.13 1970.18 1960.66C1966.51 1963.32 1955.37 1959.58 1951 1959C1953.96 1947.53 1961.69 1931.48 1971 1924M1606 1931C1617.14 1941.65 1602.16 1942.87 1606 1931M683 1932L683 1934L686 1934L686 1932L683 1932M184 1947C163.038 1944.07 179.216 1928.8 184 1947M161 1938L163 1941C161.452 1939.74 161.192 1939.81 161 1938M126 1950C129.978 1948.34 134.998 1949.06 138 1946C132.285 1943.3 127.629 1942.94 126 1950M169 1946C173.23 1950.58 173.846 1963.67 167 1966C167.325 1959.87 167.064 1951.75 169 1946M178 1948L178 1952C177.493 1950.31 177.493 1949.69 178 1948M183.599 1954.11C190.087 1951.82 205.65 1967.05 209.997 1971.04C215.528 1976.11 224.342 1982.39 226.377 1990C230.629 2005.91 209.888 2041.4 194 2044.59C188.153 2045.77 175.373 2039.33 179.504 2031.72C186.19 2019.42 211.085 2012.99 207.05 1993.01C204.547 1980.61 191.071 1989.66 187.518 1983.42C186.315 1981.31 184.476 1953.8 183.599 1954.11M127 1958C134.345 1959.9 156.239 1958.93 161.1 1963.26C165.734 1967.38 159.96 1984.93 155.24 1987.5C138.622 1996.56 127.006 1969.31 127 1958M625 1959C626.422 1962.6 627.251 1966.21 628 1970C622.925 1968.36 619.752 1966.53 619 1961C621.457 1960.79 622.859 1960.24 625 1959M177 1960C206.074 1977.74 150.274 2002.67 169.667 1971C171.98 1967.22 174.835 1963.87 177 1960M1211 1960C1213.98 1962.73 1215.56 1964.96 1216 1969C1212.83 1966.72 1210.84 1964 1211 1960M1483 1962C1483.95 1968.69 1491.6 1971.45 1496.22 1975.83C1506.71 1985.78 1521.52 2012.18 1534.62 2017.46C1542.79 2020.75 1546.09 2003.69 1556 2013C1556.55 2009.03 1553.51 2004.37 1548.96 2004.95C1544.31 2005.55 1540.97 2011.34 1536 2010.17C1514.63 2005.18 1505.74 1969.2 1483 1962M1970 2080C1957.6 2078.12 1926.56 2075.15 1920.32 2062.88C1910.52 2043.58 1931.42 2005.33 1938.6 1987C1941.08 1980.68 1943.16 1969.56 1948.28 1964.9C1951.9 1961.62 1964.84 1963.96 1968.5 1966.56C1973.98 1970.47 1971.33 1989.89 1970.78 1996C1968.3 2023.94 1970 2052.03 1970 2080M2087 1991C2084.5 1988.27 2073.96 1963.16 2084.19 1967.07C2088.75 1968.81 2086.66 1986.85 2087 1991M2036 1994C2029.85 1999.96 2022.02 2003.94 2015.33 2009.27C2012.09 2011.84 2009.18 2014.6 2006.57 2017.82C2003.72 2021.34 1994.94 2028.23 1995.63 2032.89C1996.52 2039 2005.41 2039.32 2009.92 2038.22C2026.84 2034.11 2044.36 2032.35 2061 2026.94C2065.04 2025.62 2079.19 2016.16 2082.72 2019.35C2088.26 2024.33 2077.9 2052.64 2076.25 2059C2074.48 2065.83 2078.13 2076.01 2074.18 2082.18C2068.59 2090.9 2041.83 2079.27 2034 2078.98C2017.83 2078.37 1990.34 2095.86 1975.08 2079.18C1971.29 2075.05 1973.04 2062.36 1973 2057C1972.85 2036.3 1974 2015.68 1974 1995C1974 1990.81 1971.63 1971.75 1976.5 1970.22C1991.65 1965.48 2021.25 1990.44 2036 1994M2044 1994C2048.61 1989.79 2069.3 1972.4 2075.32 1975.75C2079.98 1978.35 2088.79 2007.58 2082.31 2009.91C2076.9 2011.86 2050.73 1996.66 2044 1994M936 1979C935.129 1982.57 935.344 1984.71 939 1986C938.544 1983.04 937.894 1981.31 936 1979M191 1988.36C217.219 1984.7 193.262 2025.08 178.051 2026.85C169.255 2027.88 165.672 2005.12 167.502 1999.07C169.697 1991.81 184.494 1989.27 191 1988.36M172 2033C167.148 2031.84 161.651 2034.18 157.051 2032.36C143.264 2026.92 154.853 2010.04 156 2002L160 2004L160 1998L156 1999C159.013 1982.84 170.241 2025.13 172 2033M2076 2013C2067.22 2028.11 2013.55 2038.99 1998 2033C2006.2 2021.65 2023.6 1999.39 2039 1998.4C2052.01 1997.56 2064.83 2007.98 2076 2013M1229 2008C1236.18 2011.32 1239.03 2024.88 1240.96 2032C1242.53 2037.84 1259.5 2059.23 1256.62 2062.74C1254.18 2065.71 1246.19 2063.5 1243 2063.22C1230.75 2062.13 1218.26 2063.29 1206 2063.46C1202.57 2063.51 1195.28 2063.57 1194.86 2058.85C1193.49 2043.04 1223.98 2023.11 1229 2008M2017 2088C2031.62 2071.83 2058.72 2096.23 2076.56 2088.31C2079.79 2086.88 2078.93 2074.39 2078.92 2071C2078.89 2054.48 2085.99 2038.89 2086 2022C2102.35 2028.1 2118.72 2052.01 2126.43 2067C2129.14 2072.29 2131.72 2084.44 2125.63 2088.44C2105.81 2101.45 2085.72 2093.92 2065 2092.14C2049.27 2090.79 2032.36 2091.89 2017 2088M127.85 2038.48C132.511 2038.48 132.341 2082.53 124.93 2082.69C100.985 2083.2 102.795 2038.46 127.85 2038.48M1624 2067.36C1640.97 2065.07 1637.69 2088.61 1639.64 2100C1643.39 2121.86 1664.19 2147.78 1629 2153.24C1594.66 2158.57 1554.03 2139.75 1554 2103C1554 2098.37 1551.62 2086.53 1554.34 2082.82C1556.64 2079.68 1568.13 2079.9 1572 2078.96C1589.07 2074.81 1606.59 2069.71 1624 2067.36M1998 2091C1989.9 2091.47 1979.96 2092.89 1975 2085C1981.73 2086.25 1993.13 2085.86 1998 2091M271.333 2123.67C271.278 2123.72 271.222 2124.78 271.667 2124.33C271.722 2124.28 271.778 2123.22 271.333 2123.67M666 2182L667 2183L666 2182M686 2182C688.371 2182.82 690.487 2182.95 693 2183C690.628 2182.18 688.513 2182.05 686 2182M706 2182C707.75 2182.64 709.127 2182.86 711 2183C709.25 2182.36 707.873 2182.14 706 2182M754 2182L755 2183L754 2182M1045 2182C1047.37 2182.82 1049.49 2182.95 1052 2183C1049.63 2182.18 1047.51 2182.05 1045 2182M1056 2182C1057.51 2182.68 1058.31 2182.83 1060 2183C1058.49 2182.32 1057.69 2182.17 1056 2182M1079 2182L1080 2183L1079 2182M1139 2182C1141.68 2182.91 1144.17 2182.97 1147 2183C1144.32 2182.09 1141.83 2182.03 1139 2182M1187 2182C1188.51 2182.68 1189.31 2182.83 1191 2183C1189.49 2182.32 1188.69 2182.17 1187 2182M1210 2182L1213 2183L1210 2182M1225 2182C1226.51 2182.68 1227.31 2182.83 1229 2183C1227.49 2182.32 1226.69 2182.17 1225 2182M1235 2182L1236 2183L1235 2182M1240.67 2182.33C1240.22 2182.78 1241.28 2182.72 1241.33 2182.67C1241.78 2182.22 1240.72 2182.28 1240.67 2182.33M1294 2182L1295 2183L1294 2182M1307 2182L1310 2183L1307 2182M1324 2182C1325.75 2182.64 1327.13 2182.86 1329 2183C1327.25 2182.36 1325.87 2182.14 1324 2182M1340 2182C1341.75 2182.64 1343.13 2182.86 1345 2183C1343.25 2182.36 1341.87 2182.14 1340 2182M1355 2182L1356 2183L1355 2182M1358 2182C1360.98 2183.01 1363.86 2182.99 1367 2183C1364.02 2181.99 1361.14 2182.01 1358 2182M1369 2182C1371.68 2182.91 1374.17 2182.97 1377 2183C1374.32 2182.09 1371.83 2182.03 1369 2182M1382.67 2182.33C1382.22 2182.78 1383.28 2182.72 1383.33 2182.67C1383.78 2182.22 1382.72 2182.28 1382.67 2182.33M1404 2182C1405.75 2182.64 1407.13 2182.86 1409 2183C1407.25 2182.36 1405.87 2182.14 1404 2182M1412 2182L1415 2183L1412 2182M1417.67 2182.33C1417.22 2182.78 1418.28 2182.72 1418.33 2182.67C1418.78 2182.22 1417.72 2182.28 1417.67 2182.33M1422 2182C1424.06 2182.72 1425.8 2182.91 1428 2183C1425.94 2182.28 1424.2 2182.09 1422 2182M1435 2182L1436 2183L1435 2182M1446 2182L1447 2183L1446 2182M1498.67 2182.33C1498.22 2182.78 1499.28 2182.72 1499.33 2182.67C1499.78 2182.22 1498.72 2182.28 1498.67 2182.33M1521.67 2182.33C1521.22 2182.78 1522.28 2182.72 1522.33 2182.67C1522.78 2182.22 1521.72 2182.28 1521.67 2182.33z"/>
</svg>
