<?xml version="1.0" standalone="yes"?>
<svg xmlns="http://www.w3.org/2000/svg" width="2200" height="2200">
<path style="fill:#060606; stroke:none;" d="M550.021 23.2451C536.266 28.0056 543.267 44.4858 539.195 54C534.15 65.7852 524.594 75.458 518.802 87C511.511 101.527 507.891 117.783 502.39 133C494.314 155.34 479.397 185.455 461.594 201.444C452.957 209.203 431.109 209.851 426.892 222.078C422.735 234.129 444.561 235.169 448.74 240.743C452.314 245.511 448.877 254.235 451.8 260C458.316 272.852 484.151 290.073 499 289.785C511.393 289.545 515.449 279.183 511.716 268.019C506.961 253.798 486.51 254.53 482.064 240.997C479.026 231.752 486.552 222.583 490.426 214.997C500.641 194.998 515.292 176.172 521.017 154C524.826 139.248 529.226 124.767 533.352 110C534.255 106.765 537.834 97.3345 542.406 98.0815C546.032 98.6741 547.624 107.159 548.417 110C552.188 123.513 550.221 138.152 550.922 152C551.715 167.663 554.7 186.32 563.223 200C569.875 210.676 585.044 219.928 582.668 234C580.806 245.021 565.884 251.145 560.629 261C558.026 265.881 554.908 279.579 565.081 278.308C586.413 275.642 597.886 252.544 609.743 239.755C614.996 234.09 628.5 234.641 627.227 224.002C626.136 214.89 614.337 212.268 608.049 207.815C601.617 203.261 596.511 193.939 592.972 187C577.199 156.076 572.26 117.022 568.774 83C568.008 75.519 563.374 69.9978 561.833 63C560.272 55.9094 569.933 16.354 550.021 23.2451M893.144 66.9761C879.656 69.1882 871.255 97.4973 866.124 108C855.119 130.528 844.61 153.172 832.263 175C826.958 184.38 816.115 197.961 815.536 209C814.59 227.054 842.644 230.323 855 228.74C888.624 224.431 924.132 213.205 957 205.302C964.775 203.432 985.683 201.933 989.019 193.761C993.659 182.395 976.717 166 970.671 158C954.316 136.359 940.773 111.585 924.895 89.8606C917.71 80.0312 907.894 64.5566 893.144 66.9761M230.019 85.3191C218.061 89.7849 207.057 107.43 196 114.963C168.242 133.876 133.429 149.507 109.177 172.487C97.1437 183.889 86.2332 197.318 89.5771 215C92.6213 231.098 106.552 237.029 120 243.75C147.337 257.413 176.551 269.005 202 286.045C213.584 293.802 228.848 305.209 241.893 295.576C257.198 284.274 236.9 265.934 227.04 259.506C201.282 242.711 172.38 234.339 145 220.752C137.61 217.085 121.042 212.925 118.647 203.973C115.171 190.978 133.668 181.547 141.783 175.299C171.004 152.798 206.574 139.669 234.992 115.18C243.667 107.705 250.413 77.7026 230.019 85.3191M1623.24 88.3223C1613.17 93.489 1615.77 121.3 1615.12 131C1612.23 174.097 1611.49 217.823 1610.04 261C1609.85 266.646 1608.95 308.992 1618.89 304.592C1630.11 299.627 1630.99 271.215 1631 261C1631.04 217.654 1636.01 174.4 1636 131C1636 124.148 1636.06 81.7393 1623.24 88.3223M899.32 92.8301C907.411 90.0671 914.229 100.802 918.267 106C931.484 123.011 945.314 143.647 954.868 163C958.304 169.961 966.706 183.271 955.949 187.958C930.78 198.923 899.323 205.097 872 209.073C864.155 210.214 845.752 208.906 839.843 202.794C834.808 197.586 847.652 180.202 850.25 175C861.091 153.288 869.023 131.874 883.15 111.941C887.607 105.653 891.374 95.5437 899.32 92.8301M1279.1 101.082C1265.89 102.732 1270.35 139.932 1272.17 148C1272.96 151.525 1275.07 160.25 1279.79 160.375C1284.61 160.504 1285.73 151.251 1286.5 147.999C1288.24 140.697 1294.67 99.1348 1279.1 101.082M1953.22 103.379C1944.08 104.593 1944.27 117.296 1944.04 124C1943.32 145.552 1943.97 167.576 1941.44 189C1939.5 205.411 1936.44 224.13 1931.82 240C1930.41 244.818 1928.75 254.104 1922.57 255.375C1914.97 256.936 1918.8 227.447 1906.56 237.971C1894.87 248.032 1906.58 278.961 1922 277.852C1935.95 276.848 1941.87 258.071 1945.41 247C1955.95 214.075 1960.1 177.229 1963.22 143C1963.94 135.044 1969.96 101.156 1953.22 103.379M1988.11 111.396C1981.79 114.387 1982.46 123.197 1987.49 127.06C1999.2 136.072 2025 133.502 2022.47 157C2020.89 171.741 2010.29 179.894 1997 184.197C1993.29 185.397 1985.86 184.059 1983.22 186.958C1972.65 198.535 1995.94 203.111 2003 201.285C2019.88 196.921 2048.76 171.414 2046.94 152C2044.94 130.585 2010.96 100.581 1988.11 111.396M1280 136C1278.36 135.455 1278.55 135.635 1278 134C1279.18 134.773 1279.23 134.824 1280 136M1665 144.723C1660.6 145.913 1650.3 152.346 1654.88 158.055C1658.93 163.092 1667.52 161.616 1673 163.822C1688.9 170.217 1702.26 185.809 1697.21 203.997C1691.54 224.419 1671.82 215.854 1660.51 225.821C1655.19 230.509 1662.29 235.559 1667 235.609C1679.22 235.739 1701.01 232.643 1710.09 223.596C1742.97 190.86 1710.14 132.503 1665 144.723M1990.98 146.138C1980.19 149.167 1982.18 169.014 1993 166.031C2003.42 163.155 2001.86 143.083 1990.98 146.138M1589 146.443C1570.05 148.575 1541.85 155.131 1534.85 176C1524.36 207.298 1565.5 242.817 1594.93 227.628C1604.54 222.672 1595.76 215.292 1589 213.632C1575.48 210.309 1535.98 211.878 1548.49 186.007C1555.05 172.422 1565.94 167.759 1580 164.188C1585.36 162.828 1595.28 165.897 1598.64 160.715C1604.51 151.636 1598.14 145.416 1589 146.443M892.1 148.05C879.141 153.668 887.756 177.676 901.978 171.826C916.027 166.047 905.799 142.111 892.1 148.05M178 178C178.75 182.63 175.52 188.824 178.115 192.691C182.712 199.542 191.982 198.494 199 199.64C219.701 203.019 241.175 200.46 262 200.018C267.607 199.9 289.719 197.133 285.057 186.416C281.999 179.388 253.985 179.285 247 177.9C238.128 176.14 228.971 177.663 220 177.144C206.302 176.35 191.824 178 178 178M1587.13 182.086C1578.89 185.489 1583.4 203.849 1591.92 199.854C1601.85 195.197 1598.65 177.333 1587.13 182.086M1284 184.072C1272.59 187.567 1269.83 208.929 1283 204.829C1292.26 201.951 1295.99 180.397 1284 184.072M1663.19 184.282C1654.63 188.899 1660.4 206.229 1669.95 201.587C1680.73 196.344 1673.65 178.638 1663.19 184.282M184 187.333L184.333 187.667C183.84 187.831 183.227 187.333 184 187.333M526.962 207.551C511.639 209.237 513.991 232.339 528.997 230.256C543.261 228.276 541.724 205.927 526.962 207.551M526 214C524.999 215.924 524.923 216.098 523 217C524.001 215.076 524.078 214.901 526 214M1323 214.57C1305.5 216.497 1339.54 268.731 1354.79 264.738C1361.46 262.993 1356.39 251.083 1355.01 247.007C1351.06 235.246 1337.36 212.99 1323 214.57M534 216C534.615 218.654 533.467 219.208 531 220L534 216M530 221.333C530.773 221.333 530.16 221.831 529.667 221.667L530 221.333M1252.15 222.4C1240.45 223.46 1225.72 245.775 1220.58 255C1218.51 258.719 1214.27 269.45 1222.13 270.094C1234.6 271.116 1250 248.741 1253.91 239C1255.29 235.563 1260.71 221.625 1252.15 222.4M526 225.333L526.333 225.667C525.84 225.831 525.227 225.333 526 225.333M630 300C632.68 297.95 633.45 296.32 634 293C631.115 294.956 630.442 296.561 630 300M625 294L626 295L625 294M1638 475C1640.3 468.099 1659.8 423.661 1643.75 421.786C1639.4 421.277 1637.2 429.15 1635.42 432C1627.72 444.296 1627.55 459.889 1619.76 471.871C1614.22 480.393 1600.61 484.575 1593.67 493.456C1572.7 520.326 1560.98 567.364 1571.98 599.999C1575.56 610.623 1588.32 613.306 1592.56 622.314C1594.69 626.827 1578.77 674.91 1595.99 669.671C1610.2 665.348 1613.69 635.189 1620.59 624.129C1624.88 617.257 1639.44 614.874 1645.91 607.997C1661.9 591.005 1670.67 555.928 1669.96 533C1669.33 512.854 1667.07 471.207 1638 475M180.081 429.305C169.285 431.628 171.091 467.458 168.135 476C153.211 519.126 128.156 561.663 103.672 599.992C98.1928 608.571 61.945 627.777 70.8299 639.716C81.1641 653.602 108.28 624.099 119 625.045C169.994 629.543 225.273 626.059 276 618.713C289.808 616.713 301.746 627.827 316.974 622.233C325.428 619.126 325.091 612.507 317.989 608.276C305.836 601.037 289.403 600.749 278.078 592.334C243.251 566.456 225.191 519.59 203.913 483.562C200.286 477.421 192.623 472.647 189.822 466.639C186.436 459.377 188.858 447.041 187.735 439C187.224 435.347 185.111 428.222 180.081 429.305M1978 472.707C1964.27 476.193 1952.73 489.858 1948.62 503C1946.82 508.785 1945.59 519.749 1954.03 521.034C1965.23 522.741 1967.65 507.168 1973.35 501.596C1981.75 493.375 1998.84 491.462 2010 493.667C2018.51 495.35 2027.14 502.257 2031.01 510C2033.26 514.496 2031.11 527.189 2039.03 525.127C2055.09 520.946 2054.03 500.187 2043.87 490.837C2029.07 477.213 1997.95 467.64 1978 472.707M1189 649C1220.12 643.443 1213.85 575.328 1214 549C1214.08 533.001 1214.15 513.645 1234 510.382C1239.57 509.467 1261.11 506.235 1265.1 509.862C1270.3 514.585 1268 527.724 1268 534C1268 556.39 1269.99 578.717 1270 601C1270 609.762 1268.79 635.559 1280.2 638.854C1292.99 642.552 1293.73 616.963 1293.96 610C1294.91 581.78 1284.13 545.736 1296.86 519.063C1300.75 510.915 1325.82 511.748 1331.32 518.206C1340.01 528.41 1338.57 547.523 1339.36 560C1340.26 574.243 1338.77 588.847 1340.44 603C1341.37 610.9 1350.05 650.913 1364.32 633.851C1371.97 624.704 1369.94 609.106 1370 598C1370.14 573.378 1372.06 548.78 1372 524C1371.97 512.839 1369.87 497.458 1360.01 490.625C1340.4 477.023 1295.24 485.092 1272 483.922C1251.81 482.906 1232.59 485.266 1212.96 489.199C1204.98 490.798 1195.57 489.203 1189.73 496.317C1182.02 505.698 1186 526.604 1186 538C1186 575.511 1184.01 611.757 1189 649M1632 595L1634 585C1629.72 589.158 1627.47 596.24 1621.78 598.841C1603.74 607.1 1586.61 586.187 1583.1 570.864C1578.22 549.593 1594 503.705 1614.22 493.626C1630.52 485.499 1647.21 498.586 1651.92 514.001C1658.77 536.402 1655.16 582.525 1632 595M582 516C596.41 513.582 610.62 517.828 624.997 512.686C630.154 510.842 637.974 504.577 632.355 498.722C622.268 488.214 586.688 497.256 574 498.786C554.799 501.101 537.206 499.251 520.001 510.589C488.18 531.557 477.558 588.904 499.163 619.993C513.699 640.908 544.715 648.178 563.775 628.854C590.836 601.417 611.321 547.203 582 516M182.008 499.106C188.674 498.984 195.913 515.977 198.532 521C209.992 542.979 225.48 560.752 240.234 580.438C243.633 584.973 253.472 597.895 242.948 599.713C216.278 604.318 189.003 590.662 162 596.795C156.927 597.948 139.086 604.437 135.346 599.178C131.653 593.984 142.599 582.142 145.261 577.999C157.336 559.207 164.195 539.067 171.386 518C172.845 513.727 176.476 499.207 182.008 499.106M630 502L627 502C628.672 500.875 628.328 500.875 630 502M907.026 502.748C895.689 505.63 884.425 531.084 876.979 540C856.021 565.094 831.994 583.125 804.003 599.597C797.319 603.531 791.56 610.381 800.055 616.103C808.973 622.111 819.63 616.129 828 612.063C850.238 601.259 871.376 586.311 888.761 568.861C894.615 562.984 902.167 549.643 911 548.608C921.041 547.431 933.209 559.9 941 564.786C958.642 575.85 1001.22 598.591 1022.55 591.094C1039.31 585.207 1020.1 576.362 1013 572.981C987.601 560.889 959.415 550.861 939.226 530.661C931.785 523.217 919.456 499.587 907.026 502.748M973 504.927C957.76 510.351 963.614 531.264 978.914 526.396C990.943 522.568 986.496 500.124 973 504.927M837.003 516.975C822.941 521.823 828.219 542.827 843.949 537.256C856.391 532.85 849.306 512.735 837.003 516.975M843 525L840 525C841.672 523.875 841.328 523.875 843 525M2000 524.729C1985.9 528.49 1990.1 550.674 2003 547.031C2015.61 543.47 2015.2 520.676 2000 524.729M543.003 528.679C584.811 525.073 565.504 604.352 535.999 606.46C499.889 609.04 515.589 531.043 543.003 528.679M1615.28 535.36C1604.14 540.877 1616 558.312 1625.72 552.732C1635.67 547.019 1623.37 531.352 1615.28 535.36M156 542L156 546C155.493 544.307 155.493 543.692 156 542M2045 543C2037.97 569.77 2011.55 602.031 1981 584.28C1973.24 579.774 1957.36 544.94 1949.76 552.505C1940.74 561.488 1946.9 577.328 1950.75 587.215C1960.79 612.958 1992.37 620.175 2015 606.236C2028.97 597.633 2071.44 558.468 2045 543M1284 563C1284.91 565.678 1284.97 568.173 1285 571C1283.55 568.189 1283.12 566.056 1284 563M909.008 589.949C891.63 592.113 894.927 619.822 912.999 617.805C930.806 615.817 926.559 587.764 909.008 589.949M2015.67 590.667C2015.72 590.722 2015.78 591.778 2015.33 591.333C2015.28 591.278 2015.22 590.222 2015.67 590.667M1971 603C1968.39 601.608 1966.71 600.409 1965 598C1968.19 599.034 1969.66 599.894 1971 603M537 634.333C537.773 634.333 537.16 634.831 536.667 634.667L537 634.333M554 919L556 922L554 919M1569 1526L1568 1531L1570 1531C1569.86 1529.13 1569.64 1527.75 1569 1526M1959 1698C1959.98 1669.99 1944.87 1706.92 1960.98 1701.55C1979.44 1695.39 1976.43 1654.67 1954 1668.55C1925.48 1686.2 1938.74 1732.89 1974 1722.63C2004.94 1713.63 2016.68 1673.5 1992.54 1650.62C1980.45 1639.18 1964.9 1642.15 1954.85 1626C1942.84 1606.71 1968.19 1576.68 1987 1573.53C2012.63 1569.23 2016.25 1611.36 1993 1619.17C1983 1622.53 1968.1 1610.42 1975.61 1600.08C1978.41 1596.22 1988.83 1585.71 1994.39 1587.8C1997.2 1588.86 1995.82 1596.26 1998.96 1595.68C2005.25 1594.51 2001.52 1582.07 1994.97 1582.3C1963.09 1583.42 1964.97 1633.74 1995 1622.76C2026.47 1611.25 2013.67 1559.02 1982 1570.08C1974.69 1572.63 1969.55 1578.73 1964 1583.78C1959.6 1587.79 1955.05 1591.44 1952.55 1597C1928.64 1650.19 2024.46 1645.25 1998.11 1698C1990.89 1712.46 1963.17 1728.07 1948.74 1715.06C1936.48 1704 1947.04 1675.7 1959.98 1670.45C1974.19 1664.68 1965.3 1693.27 1959 1698M193 1654C187.179 1652.57 147.011 1689.43 150.797 1655C154.942 1617.3 233.076 1632.71 213.61 1675C191.027 1724.06 89.3353 1704.52 109.29 1641C122.141 1600.09 194.353 1562.72 235 1577.51C245.012 1581.15 252.551 1589.02 257.744 1598C258.906 1600.01 260.538 1609.56 261.822 1610.24C265.427 1612.16 264.935 1603.32 264.513 1602C257.02 1578.61 230.91 1567.09 208 1570.36C171.047 1575.65 115.807 1601.63 104.779 1641C102.149 1650.39 104.073 1657.76 105.602 1667C112.016 1705.74 156.292 1715.7 190 1698.56C209.889 1688.45 228.452 1670.63 215.29 1647.01C203.902 1626.56 185.287 1622.21 166 1633.54C155.021 1639.99 141.504 1649.33 147.725 1663.98C157.678 1687.41 183.485 1664.48 193 1654M1613 1642C1602.87 1653.42 1592.91 1665.58 1594.28 1682C1596.27 1705.82 1627.54 1716.08 1647 1706.51C1654.32 1702.92 1667.95 1690.42 1666.21 1681.01C1663.83 1668.15 1644.7 1674.87 1639.13 1680.73C1633.27 1686.89 1636.53 1693.86 1645 1692C1631.46 1680.8 1657.95 1674.51 1661.21 1680.42C1665.41 1688.03 1650.57 1700.04 1645 1702.66C1629.77 1709.83 1610.42 1704.05 1601.6 1690.44C1593.97 1678.68 1601.7 1652.4 1616.04 1648.26C1627.76 1644.88 1660.7 1664.69 1662.16 1639.01C1662.67 1629.91 1650.24 1629.18 1644 1630.19C1630.28 1632.41 1608.32 1647.72 1606.99 1625C1605.47 1598.86 1656.21 1554.58 1676.95 1584.05C1685.52 1596.23 1661.38 1615.83 1657.1 1608.26C1655.18 1604.85 1658.77 1596.08 1659 1592C1664.21 1596.76 1662.88 1599.87 1661 1606C1687.84 1596.31 1638.33 1580.43 1652.18 1607.55C1661.3 1625.4 1690.83 1598.28 1684.93 1584.22C1668.85 1545.94 1618.41 1588.56 1607.64 1607C1600.97 1618.42 1600 1634.79 1613 1642M510 1667C505.699 1668.05 501.522 1670.07 497 1669.85C473.857 1668.7 496.705 1634.33 513.436 1638.52C527.38 1642.02 522.639 1657.63 522.203 1667C521.314 1686.11 498.887 1700.92 478 1694.77C409.909 1674.72 449.536 1592.4 506 1592.03C524.137 1591.91 547.784 1611.96 545.818 1631C545.317 1635.86 535.89 1653.57 539.245 1656.89C541.229 1658.86 547.184 1650.59 550 1650C544.341 1612.98 565.934 1590.94 602 1594.78C611.916 1595.83 625.302 1595.72 631.463 1605.1C650.708 1634.42 649.544 1670.01 616 1686.21C611.191 1688.53 602.594 1695.03 597.214 1694.5C582.059 1693.02 565.157 1662.69 572.256 1650C579.445 1637.16 612.795 1627.03 621.74 1643.16C626.239 1651.27 621.097 1660.25 619 1668C636.068 1661.64 626.376 1635.6 612 1632.18C597.165 1628.65 573.911 1632.86 568.088 1649C561.817 1666.39 577.221 1699.42 598 1699.01C608.249 1698.81 627.659 1685.98 635.095 1679.22C642.07 1672.87 650.709 1661.99 650.853 1652.04C651.082 1636.21 643.045 1607.44 629.959 1597.64C605.323 1579.19 559.254 1587.09 548 1617C507.939 1544.67 398.323 1628.71 450.177 1682.91C469.821 1703.45 506.034 1705.97 525.396 1682.63C533.317 1673.08 528.546 1641.74 517.957 1635.37C503.299 1626.55 477.79 1649.45 483.033 1665C486.967 1676.67 503.945 1676.75 510 1667M859 1615C858.697 1623.53 857.687 1632.04 850 1637C850.662 1633.02 850.51 1622.06 843.345 1626.41C836.164 1630.78 844.872 1641.27 850.992 1640.85C866.357 1639.8 874.694 1607.76 861.813 1598.94C854.67 1594.05 842.927 1600.68 837 1605C821.998 1615.92 804.103 1643.39 814.571 1662.65C831.431 1693.67 892.209 1686.34 907.983 1658C914.982 1645.42 905.99 1627.48 916.046 1615.7C924.345 1605.98 940.091 1599.4 953 1600.42C989.16 1603.25 992.984 1659.59 966.999 1676.93C954.454 1685.3 938.655 1666.37 945.784 1654.44C953.865 1640.92 963.36 1646.04 965 1659C972.96 1650.93 964.422 1639.6 954 1641.41C932.451 1645.14 938.726 1674.9 952.603 1683.4C962.985 1689.75 979.586 1673.73 983.172 1664.98C993.457 1639.89 988.293 1604.45 956.864 1596.45C941.437 1592.53 914.11 1604.45 909.232 1620.08C905.669 1631.49 909.423 1646.26 903.964 1656.96C892.848 1678.74 855.134 1682.8 835.019 1674.18C801.554 1659.85 820.128 1613.68 848 1604.04C858.75 1600.32 871.103 1616.35 859 1615M1277 1678C1298.29 1707.19 1365.26 1686.32 1356.04 1647C1353.94 1638.08 1345.88 1619.52 1336.96 1615.81C1318.47 1608.12 1295.29 1623.73 1297.14 1644C1298.26 1656.27 1320.23 1657.39 1324.71 1646.9C1329.89 1634.76 1312.18 1631.84 1320 1648C1304.16 1649.01 1292.04 1639.4 1309.02 1625.45C1339.76 1600.18 1364.82 1654.14 1340.8 1676.42C1330.05 1686.39 1290.26 1694.55 1281.87 1676.55C1278.12 1668.51 1297.14 1651.54 1280.04 1649.51C1273.55 1648.74 1269.54 1658.77 1269.18 1664C1268.86 1668.55 1274.6 1674.75 1272.22 1678.37C1258.63 1699.04 1210.46 1690.46 1209.48 1664C1208.7 1642.94 1226.41 1625.41 1245 1618.51C1254.24 1615.08 1273.46 1617.13 1271.17 1632C1269.56 1642.44 1243.91 1657.16 1252 1640C1239.8 1636.57 1243.58 1654.65 1253.86 1654.75C1272.82 1654.94 1279.39 1625.85 1266.61 1614.87C1256.56 1606.23 1242.17 1614.71 1233 1620.4C1206.98 1636.55 1187.98 1685.31 1233 1692.51C1240.32 1693.68 1247.94 1693.24 1255 1691.12C1264.34 1688.31 1270.72 1685.92 1277 1678M846 1632.33C846.889 1632.33 846.889 1633.67 846 1633.67C845.111 1633.67 845.111 1632.33 846 1632.33M1651.89 1633.47C1657.46 1633.56 1658.88 1642.47 1655.06 1645.76C1650.79 1649.44 1640.22 1648.21 1635 1647.92C1605.95 1646.29 1639.3 1633.26 1651.89 1633.47M1279.82 1657.43C1284.01 1657.99 1280.67 1671 1277.61 1671C1270.72 1670.99 1274.09 1656.65 1279.82 1657.43M1581 1660C1582.67 1661.12 1582.33 1661.12 1584 1660L1581 1660M151 1947C151.394 1951.4 153.373 1954.81 154.479 1959C157.602 1970.84 146.972 1972.04 140.575 1963.92C131.118 1951.92 141.09 1926.07 157.979 1936.45C172.182 1945.17 168.026 1963.56 160.524 1975.02C147.592 1994.78 102.526 2037.9 132.179 2062.44C156.984 2082.96 198.658 2034.23 171.895 2017.17C157.541 2008.02 142.615 2035.3 153.526 2045.39C158.225 2049.74 172.44 2044.86 169.097 2037.63C167.239 2033.61 157.355 2050.2 155.311 2037.97C153.982 2030.02 166.225 2015.88 172.998 2025.17C186.637 2043.88 152.441 2073.22 135.303 2058.42C124.42 2049.02 128.763 2036.79 132.301 2025C140.309 1998.32 176.594 1979.68 171.594 1950C170.89 1945.83 169.24 1941.56 166.699 1938.16C139.319 1901.5 113.545 1977.74 150.002 1974.73C164.379 1973.54 161.276 1951.37 151 1947M932 2078C931.987 2083.93 924.757 2100.9 917.246 2090.69C905.433 2074.65 933.852 2041.33 949.614 2054.43C955.311 2059.16 951.182 2065.01 952.745 2070.99C960.218 2099.59 928.751 2136.89 898 2125.29C879.378 2118.27 885.593 2086.82 888.779 2071C895.155 2039.34 891.706 1980.22 859.999 1962.5C850.183 1957.02 839.191 1963.98 831 1969.2C811.654 1981.52 784.06 2026.24 812.001 2044.1C826.32 2053.26 847.155 2046.23 853.334 2030.99C856.62 2022.89 859.324 2007.68 849.97 2002.72C827.943 1991.04 832.901 2026.51 833.87 2025.59C838.6 2021.1 832.124 2012.78 840.07 2008.8C844.365 2006.66 850.864 2006.68 852.491 2012.11C859.378 2035.09 827.769 2054.36 811.148 2036.9C788.84 2013.46 829.056 1955.92 857.981 1967.64C872.848 1973.66 877.076 1989.63 880.326 2004C887.009 2033.55 883.672 2056.02 882.981 2086C882.52 2105.97 874.915 2127.51 904 2131.58C934.619 2135.86 950.612 2108.6 956.652 2084.08C959.301 2073.32 959.333 2053.15 947.417 2047.39C927.292 2037.65 904.01 2073.09 911.451 2089.98C916.376 2101.16 933.425 2097.97 937.036 2086.86C945.147 2061.89 913.036 2088.36 932 2078M1670 1962.9C1654.55 1965.75 1649.99 1986.19 1648.79 1999C1647.88 2008.65 1648.71 2023.18 1653.16 2032C1655.99 2037.61 1666.52 2047.91 1666.52 2053.86C1666.51 2064.73 1645.2 2071.51 1637 2072.84C1633.05 2073.48 1629.01 2074.15 1625 2073.76C1594.46 2070.73 1619.76 2061.58 1628.78 2051.91C1638.5 2041.5 1645.8 2020.03 1627 2014.19C1610.13 2008.96 1598.29 2040.21 1596.48 2052C1595.87 2055.96 1598.85 2061.19 1596.86 2064.72C1594.07 2069.69 1578.16 2070.2 1573 2069.77C1532.42 2066.37 1534.16 2016.84 1567 2002.42C1590.48 1992.1 1579.14 2023.52 1580.05 2023.24C1596.34 2018.14 1587.14 1988.96 1568 1997.25C1535.79 2011.2 1522.01 2059.55 1563 2072.36C1576.44 2076.56 1586.84 2070.2 1599.56 2069.08C1611.28 2068.05 1623.47 2078.68 1638 2076.64C1652.74 2074.57 1659.11 2062.54 1671.1 2058.53C1685.49 2053.72 1698.28 2061.22 1713.78 2050.87C1726.75 2042.2 1724.65 2012.29 1709.36 2023.37C1706.61 2025.36 1703.8 2032.2 1707.01 2034.97C1713.48 2040.55 1711.93 2020.65 1716.06 2028.39C1725.08 2045.27 1687.91 2065.65 1678.98 2054.06C1675.23 2049.2 1689.5 2037.19 1691.4 2032.86C1700.69 2011.68 1709.98 1955.51 1670 1962.9M1197 2090C1198.91 2086.18 1202.23 2081.8 1199 2078C1205.44 2069.31 1208.7 2060.14 1221 2058.32C1242.39 2055.17 1244.41 2078.18 1232 2090C1231.51 2087.94 1231.06 2085.89 1230.09 2083.99C1220.19 2064.52 1222.23 2105.33 1236.59 2092.65C1267.04 2065.76 1215.46 2035.23 1198.6 2065.92C1174.54 2109.7 1247.71 2154.17 1274.53 2109C1278.33 2102.61 1276.37 2095.01 1277.52 2088C1281.95 2060.82 1275.68 2032.24 1276.01 2005C1276.21 1988.57 1293.47 1969.4 1310 1967.68C1335.14 1965.07 1358.06 2011.43 1337.89 2028.75C1326.92 2038.17 1304.58 2024.69 1318 2015C1318.07 2015.29 1319.35 2020.23 1320.53 2017.9C1324.12 2010.83 1313.93 2003.14 1311.21 2014.01C1304.74 2039.83 1333.42 2041.55 1346.58 2025.78C1367.7 2000.48 1323.62 1949.85 1295 1968.34C1253.41 1995.22 1280.05 2045.53 1273.18 2085C1269.64 2105.36 1259.71 2130.92 1232 2123.73C1224.57 2121.8 1210.53 2111.38 1206.32 2104.98C1202.72 2099.49 1204.29 2091.75 1197 2090M1668.04 1968.82C1706.43 1953.5 1697.23 2022.67 1682.83 2038C1680.29 2040.7 1677.19 2048.2 1673.52 2049.16C1667.74 2050.67 1658.88 2034.34 1657.38 2030C1651.98 2014.38 1648.05 1976.8 1668.04 1968.82M470 2002C493.684 1942.11 594.475 1986.76 587.94 2043C585.368 2065.14 567.406 2090.52 546 2097.84C523.171 2105.65 494.392 2104.34 489 2077C477.245 2078.2 499.261 2045.41 500 2041C509.352 2041.9 516.081 2029.34 528 2031.24C547.035 2034.29 554.151 2062.58 538.019 2073.33C528.494 2079.67 536.957 2056.57 526.14 2058.65C514.847 2060.82 527.134 2076.9 533.32 2078.23C558.854 2083.74 556.362 2033.37 532.999 2028.37C501.277 2021.57 459.724 2070.36 490.548 2095.28C544.317 2138.76 626.633 2051.1 578.842 2001.08C560.703 1982.1 533.563 1964.83 506 1969.32C495.457 1971.03 458.791 1987.67 470 2002M1998 2004C1997.99 1951.45 1913.73 1962.71 1899.12 2002C1886.89 2034.91 1920.62 2058.78 1940.46 2078.58C1949.94 2088.04 1968.67 2104.2 1983.02 2104.75C2012.8 2105.88 2056.85 2072.72 2075.81 2052.64C2096.3 2030.95 2094.26 1974.16 2055.96 1970.24C2028.02 1967.38 2016.97 1991.34 1998 2004M1962 2011C1964.93 1990.65 1938.01 2023.24 1938.94 2025.08C1939.9 2026.96 1944.36 2026.13 1946.1 2028.39C1955.32 2040.34 1969.01 2045.42 1982.86 2036.33C1986.39 2034.02 1993.39 2025.55 1997.55 2025.64C1996.82 2025.62 2001.36 2042.07 2005.05 2044.62C2023.59 2057.43 2058.51 2045.22 2061.98 2021C2065 1999.95 2029.4 2003.52 2027 2022C2033.22 2017.6 2058.11 1999.73 2058.49 2020C2058.88 2041.06 2018.57 2055.24 2004.8 2040.26C2000.22 2035.26 2003.7 2029.72 2003.41 2024C2002.29 2001.91 2028.92 1962.82 2057.88 1974.82C2062.84 1976.88 2068.01 1983.58 2071.99 1987.22C2116.17 2027.62 2052.67 2070.44 2020 2087.95C2011.46 2092.53 1993.87 2102.19 1984 2100.88C1952.45 2096.67 1908.28 2051.81 1900.75 2022C1894.24 1996.19 1923.57 1975.11 1946 1973.29C1973.99 1971.03 2007.86 1986.59 1996.04 2020.86C1991.27 2034.71 1965.62 2042.36 1954.17 2033.29C1946.18 2026.96 1949.71 2002.97 1962 2011M1622 2020.69C1633.99 2018.79 1637.69 2028.54 1633.76 2037.96C1629.76 2047.54 1616.89 2060.76 1605.88 2062.03C1599.41 2062.78 1600.85 2051.38 1601.79 2048C1604.82 2037.06 1608.96 2022.75 1622 2020.69M530 2071C527.882 2068.47 526.825 2066.19 526 2063C529.847 2064.68 530.52 2066.95 530 2071z"/>
</svg>
