<?xml version="1.0" standalone="yes"?>
<svg xmlns="http://www.w3.org/2000/svg" width="2200" height="2200">
<path style="fill:#101010; stroke:none;" d="M211 16C221.938 19.7061 237.476 17 249 17C271.704 17 294.29 19 317 19C320.723 19 350.764 19.4233 349.894 17.5376C347.859 13.1262 321.769 16 317 16L211 16M383.408 17.1121C380.658 19.8616 395.498 20.6086 397 20.6538C413.308 21.1438 429.667 21 446 21C511.685 21 577.303 22 643 22L698 22C702.229 22 713.735 23.9458 716.592 20.0273C720.188 15.0962 702.898 16 701 16L645 16L449 16L400 16C396.224 16 386.282 14.238 383.408 17.1121M750.33 17.1899C746.058 21.4619 762.544 21 764 21L813 21C877.715 21 942.3 20 1007 20L1065 20C1068.14 20 1081.34 21.8262 1082.89 18.4624C1084.39 15.2197 1067.83 16 1066 16L1008 16L815 16L767 16C763.128 16 753.284 14.2356 750.33 17.1899M1116 20C1135.16 15.9167 1158.33 19 1178 19L1300 19C1347.3 19 1404.91 10.1125 1451 20C1449.58 13.9592 1440.96 16 1436 16L1389 16L1187 16L1133 16C1127.82 16 1117.49 13.6628 1116 20M1818 17C1793.12 10.7039 1760.69 16 1735 16L1561 16L1501 16C1498.6 16 1483 14.575 1483 18C1483 21.481 1498.61 19.0063 1501 19.0007C1520.62 18.9541 1540.43 18.2524 1559.98 19.7607C1622.84 24.6086 1687.9 19 1751 19C1766.34 19 1806.2 26.8865 1818 17M1849 16L1849 19C1903.64 19 1958.33 17 2013 17C1998.62 12.1282 1977.19 16 1962 16L1849 16M148 170C146.29 160.925 148.525 150.483 144.285 142.003C135.804 125.041 109.014 132.658 94 130C93.2885 167.382 87 204.529 87 242C87 251.844 82.7843 273.963 92 280L92 267C142.061 275.869 191.007 268 241 268C251.105 268 287.348 271.563 293.88 263.998C296.901 260.498 294.181 253.15 294.04 249C293.567 235.004 293.51 220.977 293.04 207C292.588 193.528 296.86 165.613 287.841 154.564C271.566 134.624 226.627 160.672 208 142C206.456 149.994 206.347 171.769 217.022 173.557C223.453 174.634 243.332 167.969 247.181 175.362C250.147 181.06 251.366 208.506 246.178 212.74C242.103 216.067 231.004 213.999 226 214C208.086 214.005 185.184 220.932 168.048 213.93C157.079 209.448 168.448 174.835 168.978 165C170.365 139.261 171 113.821 171 88C171 82.1963 167.096 66.2507 171.076 61.8403C175.414 57.0327 202.36 64.98 207.89 67.3843C222.107 73.5664 211.699 99.4558 198.004 99.1233C196.527 99.0874 190.508 99.4048 191.761 102.345C193.201 105.721 210.981 106.678 213.181 104.399C219.026 98.345 220.009 69.5894 213.398 63.9397C208.717 59.9385 194.264 59.4431 188 58.0334C183.166 56.9456 168.37 51.5464 165.284 57.5015C160.864 66.03 165.998 83.4602 166 93C166.006 122.604 166.78 151.559 162.081 181C160.592 190.331 164.092 213.309 153.975 217.172C129.785 226.41 127.016 205.878 127 188C126.996 183.301 124.294 173.424 127.824 169.764C131.906 165.531 142.825 169.688 148 170M2028 240C2029.69 238.532 2030.91 237.814 2033 237C2032.5 237.925 2028.77 243.331 2031.57 243.615C2035.97 244.06 2036.4 235.673 2037.51 233C2043.64 218.234 2040.63 207.505 2040.17 192.008C2040.09 189.529 2041.23 182.832 2045.31 184.565C2053.18 187.913 2058.07 225.915 2058.86 234C2059.06 236.029 2059.04 249.586 2063.33 247.894C2066.08 246.809 2069.61 212.266 2071.46 207C2083.7 172.232 2097.63 120.591 2071.06 89.4167C2057.82 73.8782 2027.11 73.1748 2014.66 90.043C2005.65 102.255 2005.09 124.579 2007.4 139C2010.4 157.704 2028.7 167.231 2032.71 182.981C2033.99 187.992 2026 193.804 2023.81 198.041C2016.3 212.538 2015.51 228.275 2028 240M2070 167C2075.04 179.513 2067.03 206.82 2062 220C2057.65 216.147 2056.96 206.607 2056.07 201C2055.02 194.399 2049.01 185.668 2050.98 179C2055.98 162.071 2080.5 139.623 2063.91 119.366C2054.69 108.099 2046.56 132.984 2045.15 139C2042.88 148.647 2048.82 171.829 2042.51 178.605C2036.1 185.487 2022.02 164.065 2018.9 159C2002.1 131.683 2006 77.5417 2048 82.2368C2072.5 84.9756 2084.35 117.574 2081.66 139C2080.68 146.829 2080.54 169.616 2070 167M1198 209C1171.87 185.797 1209.47 127.844 1179.94 108.94C1178.12 107.778 1169.97 105.503 1170.18 109.934C1170.35 113.371 1183.43 117.944 1184.66 127C1187.04 144.489 1182.96 161.454 1184.09 179C1184.97 192.842 1195.56 204.663 1196.84 217.019C1199.24 240.303 1192.09 263.752 1192 287C1205.15 275.69 1201.75 231.482 1204 215C1237.32 216.198 1237.32 149.478 1250.72 130C1252.77 127.027 1275.88 105.23 1276.24 105.84C1272.91 100.123 1251.96 120.41 1250.16 123C1235.61 143.918 1237.16 171.432 1224.67 193C1222.25 197.182 1212.15 212.928 1205.82 210.282C1201.03 208.281 1205.87 186.922 1207.04 183C1213.97 159.708 1212 138.421 1212 115C1212 111.506 1214.04 93.322 1209.54 92.3232C1206.41 91.6277 1207.04 99.5322 1207.14 101C1207.9 112.431 1206.86 123.547 1207.08 135C1207.28 145.404 1206.43 155.638 1205.97 166C1205.31 180.573 1199.14 194.506 1198 209M553 98C543.573 119.395 538.54 142.931 535.42 166C534.759 170.892 530.823 186.239 536.501 189.168C543.744 192.904 553.774 181.733 559 178C554.532 189.285 538.956 194.814 536.505 207.997C534.382 219.414 549.316 217.304 554.358 211.735C561.617 203.719 559.053 191.764 564.247 183.043C570.34 172.811 583.898 170.213 586 157C578.452 160.224 570.729 169.992 565 176C562.721 148.923 545.216 197.433 537.9 182.477C535.735 178.052 538.88 168.611 539.827 164C543.257 147.305 545.504 128.6 552.583 113C554.805 108.103 561.935 95.6035 568.815 98.5312C581.949 104.121 574.728 139.647 561.936 141.112C550.851 142.381 555.421 118.663 560.749 115.106C566.162 111.491 565.996 124.69 566 127C568.867 123.433 571.723 109.003 563.739 109.003C551.686 109.003 544.571 147.776 562 145.968C578.721 144.234 584.59 107.75 574.24 97.4612C567.029 90.2939 560.613 98.3223 553 98M1203 113C1206.06 104.441 1198.39 106.965 1203 113M540 117C538.99 119.372 538.761 120.449 539 123C540.908 120.687 541.337 119.713 540 117M2049 171C2049 163.958 2048.09 157.008 2048.03 150C2047.98 145.481 2051.85 116.073 2060.46 121.969C2072.24 130.048 2059.09 166.212 2049 171M891 219C875.647 218.433 860.214 216.158 845 214C848.47 223.903 876.286 221.844 885 222C877.789 231.125 868.643 238.838 866.494 251C861.888 277.07 884.148 277.646 901 266.16C915.449 256.311 915.083 230.83 927.265 223.381C940.927 215.028 960.115 222.855 973.82 210.553C983.546 201.823 981.997 177.585 966.997 174.604C951.358 171.496 945.546 179.437 933 186C938.028 173.59 943.914 118.998 919.008 122.656C908.257 124.235 901.107 138.235 897.12 147C885.044 173.547 879.685 191.785 891 219M1674 207C1640.65 214.583 1615.44 280.049 1653 297.344C1689.02 313.931 1708.29 261.143 1703.35 233C1701.51 222.472 1695.12 216.24 1689 208C1703.26 211.031 1738.82 221.149 1746 205C1737.76 207.39 1733.09 211.936 1724 210C1735.64 200.352 1750.48 202.156 1759.72 187C1766.74 175.486 1770.11 134.611 1746 140.182C1725.92 144.821 1715.92 165.489 1713.46 184C1712.91 188.122 1715.73 201.146 1713.02 203.74C1708.28 208.281 1695.68 203.309 1690 203.354C1679.17 203.439 1670.65 198.292 1660 197.225C1646.34 195.856 1632.62 197.874 1619 198C1626.28 190.31 1632.36 186.516 1636.18 176C1638.73 168.95 1639.7 161.481 1638.74 154C1638.06 148.701 1635.68 143.688 1633.23 139C1606.37 87.6296 1546.9 176.247 1590 200.876C1612.34 213.644 1654.32 186.42 1674 207M918.999 127.693C932.448 125.167 931.079 149.252 930.992 157C930.714 182.06 929.769 191.282 908 204.745C904.343 207.007 899.45 212.516 895.097 212.938C885.374 213.88 886.904 193.405 887.019 188C887.347 172.589 901.478 130.985 918.999 127.693M1611 127.832C1621.27 124.718 1627.32 138.193 1631.16 145C1640.67 161.855 1633.46 188.361 1614 194.499C1565.63 209.752 1579.85 137.277 1611 127.832M212 153C230.471 153.027 268.619 147.835 284.506 157.401C289.014 160.115 287.971 175.216 287.997 180C288.107 200.038 288.982 219.956 289 240C289.004 244.712 292.379 256.6 289.1 260.178C285.315 264.31 274.948 260.857 270 261.08C252.345 261.879 233.529 262.403 216 264.323C187.544 267.439 160.508 267.002 132 267C121.569 266.999 103.77 268.926 94.5015 263.256C88.8666 259.809 92 239.959 92 234C92 210.335 93.2279 186.521 95.8012 163C96.5521 156.136 94.9156 144.541 98.1813 138.501C102.208 131.054 136.184 136.213 139.638 143.163C151.705 167.447 130.235 156.657 123.039 166.501C118.07 173.3 119.912 210.528 125.461 216.683C137.624 230.174 151.398 219.728 165 218.738C181.997 217.502 202.505 219.001 220 219C227.067 219 244.513 221.23 250.197 216.74C257.995 210.58 253.874 185.455 252.74 177.001C249.545 153.201 215.848 181.173 212 153M1588 143C1588.31 147.99 1585.08 152.302 1582 156L1581 155C1583.38 150.994 1585.23 146.767 1588 143M1747 144.862C1757.96 141.618 1762.06 157.309 1761.97 165C1761.81 179.541 1751.5 196.771 1737 201.157C1699.83 212.403 1722.84 152.013 1747 144.862M926 218C928.551 198.972 934.557 186.975 954 181.68C958.622 180.422 966.206 177.462 970.481 180.829C989.279 195.637 964.905 214.634 950 215.856C942.077 216.506 933.899 217.818 926 218M558 186C557.701 190.324 550.765 222.479 541.348 211.738C536.123 205.778 553.568 188.611 558 186M2036 190C2037.21 196.687 2043.05 235.317 2028.92 233.353C2012.82 231.116 2028.59 194.568 2036 190M921 203C918.796 211.931 908.345 215.885 900 216C903.839 210.233 914.52 205.335 921 203M925 208C922.993 217.392 918.78 218.724 910 220C914.253 215.644 919.732 211.038 925 208M1678 209.827C1710.47 208.276 1698.39 265.394 1689.48 280C1686.57 284.781 1681.18 295.223 1674.92 295.866C1620.69 301.436 1634.47 211.907 1678 209.827M892 223.912C896.034 222.767 916.171 221.502 918.659 224.84C926.927 235.932 899.487 265.819 889.915 268.69C858.386 278.145 870.888 229.908 892 223.912M293 383C309.235 388.5 333.831 384 351 384C334.765 378.5 310.169 383 293 383M383 383C390.821 387.038 402.396 385 411 385L472 385C533.57 385 595.517 386.852 657 384.075C676.523 383.194 699.029 388.801 718 384C690.151 374.565 645.542 383 616 383L383 383M750 383C765.965 388.409 790.122 384 807 384L934 384C918.035 378.591 893.878 383 877 383L750 383M1156 407.448C1134.18 410.033 1140.34 435.168 1139.98 453C1139.88 457.874 1136.29 470.115 1141.69 473.178C1149.59 477.665 1166.15 472.838 1174.32 470.935C1188.5 467.63 1225.29 462.885 1238.79 467.958C1245.51 470.485 1244.07 506.98 1236.73 509.499C1233.4 510.645 1224.62 511.09 1221.74 508.74C1220.27 507.548 1220.63 501.647 1218.92 501.643C1216.31 501.637 1215.92 508.594 1211.53 508.834C1206.77 509.094 1199.93 505.949 1195.9 509.822C1186.48 518.869 1194.08 552.5 1192.42 565C1191.7 570.456 1189.48 577.87 1197.03 578.852C1216.68 581.407 1244.02 578.452 1264 576.785C1271.04 576.198 1279.61 577.584 1285.5 572.676C1290.98 568.112 1288.99 553.434 1289 547C1289.06 523.725 1291.24 499.929 1286.42 477C1285.55 472.866 1290.6 458.308 1291.46 459.653C1285.31 450.049 1256.92 467.77 1247.9 459.74C1240.02 452.732 1251.78 426.958 1247.04 417.822C1245.35 414.557 1229.77 414.723 1226 414.146C1205.18 410.963 1176.84 404.98 1156 407.448M1158 412.339C1176.82 410.756 1203.22 414.838 1222 417.921C1227.35 418.8 1236.87 418.282 1241.49 420.822C1247.46 424.104 1244.4 460.922 1236.97 462.368C1215.17 466.61 1192.79 462.487 1171 465.246C1163.65 466.177 1153.45 474.004 1145.82 469.178C1142.05 466.79 1143.94 454.894 1144.02 451C1144.33 435.811 1140 413.853 1158 412.339M2004 576C1982.19 568.872 1947.91 569.937 1925 572.32C1919.69 572.872 1906.15 570.654 1902.18 574.26C1895.81 580.049 1898.68 605.534 1897.54 614C1896.51 621.749 1887.42 647.829 1893.26 653.961C1896.2 657.047 1906.12 654.042 1910 654.008C1925.16 653.876 1940.78 654.711 1956 655.019C1972.52 655.352 2000.72 660.108 2016 653.585C2067.7 631.505 2076.09 544.817 2054.88 499C2032.98 451.697 1982.4 444.374 1935 440.922C1926.49 440.302 1910.74 434.405 1902.96 436.475C1898.63 437.625 1901.38 447.516 1901.13 451C1900.35 461.7 1890.59 490.134 1896.4 499.264C1901.44 507.191 1921.02 502.82 1928.08 501.671C1944.42 499.009 1963.64 501.141 1980 502.775C1984.71 503.246 1993.37 500.93 1997.4 503.396C2002.13 506.295 2000.95 518.251 2001.01 523C2001.22 540.697 2004 558.235 2004 576M413 534C415.405 554.689 442.762 579.137 460 589C460.368 575.097 434.434 569.204 434.517 555.942C434.553 550.184 449.559 539.698 453.687 535.758C469.984 520.205 488.397 506.683 504.081 490.58C510.16 484.339 519.639 474.1 529 475L531 468C534.109 472.374 549.113 490.821 546.593 496.119C544.727 500.043 521.66 505.854 523.408 507.808C531.659 517.032 551.583 493.291 562.914 501.942C578.695 513.991 590.258 550.005 598.659 568C602.198 575.582 606.599 590.669 616 592C608.776 566.677 595.755 542.694 586.433 518C583.815 511.068 574.649 498.495 576.666 491.085C579.909 479.174 599.009 475.467 604 464C591.731 465.542 571.167 492.751 559.25 488.459C545.668 483.567 529.49 458.254 517 448.746C514.501 446.844 505.88 437.852 502.531 439.079C498.845 440.429 524.625 459.766 521.935 464.756C517.815 472.398 506.559 477.559 500.078 483.071C482.486 498.032 465.544 513.703 447.997 528.713C442.525 533.394 435.62 550.421 429.02 550.959C420.642 551.642 420.676 535.941 413 534M1595 639C1598.95 629.964 1613.33 631.139 1622 629.627C1644.17 625.761 1673.35 618.938 1695.87 622.007C1700.02 622.573 1698.55 628.236 1702.09 628.87C1704.97 629.387 1705.42 620.418 1709 619C1707.36 631.712 1712.82 620.347 1716 617C1720.58 638.213 1717.44 621.141 1724.3 616.454C1730.65 612.119 1741.17 614.58 1745 607C1708.07 609.547 1720.04 531.648 1720 505L1724 506C1723.12 491.301 1724.39 475.245 1723.42 461.432C1723.08 456.662 1718.04 453.212 1718 447C1713.27 448.929 1713.07 452.257 1713 457C1690.42 448.262 1671.87 447.444 1648 449.136C1639.1 449.767 1629.89 454.767 1621 453.242C1601.15 449.836 1564.06 429.336 1546.03 450.76C1535.28 463.547 1540.69 500.768 1538.66 517C1537.33 527.595 1528.84 551.02 1532.15 560.635C1533.77 565.346 1543 564.933 1547 565.598C1554.07 566.774 1589.95 569.506 1593.18 575.501C1602.12 592.092 1582.52 624.325 1595 639M1896 651C1897.1 632.716 1900.18 614.201 1902.43 596C1903.09 590.706 1901.32 580.557 1907.24 577.822C1923.38 570.371 1964.24 575.378 1982 577.323C1988.68 578.054 2004.87 583.106 2007.88 573.93C2010.96 564.542 2007.85 553.49 2007.13 544C2006.23 532.013 2009.58 510.313 2001.98 500.285C1997.8 494.783 1987.06 498.415 1981 497.661C1961.67 495.259 1941.57 495.604 1922 496.019C1916.43 496.137 1905.62 500.649 1900.84 496.616C1897.81 494.062 1899.92 485.456 1900.33 482C1901.88 468.821 1906.64 455.296 1905 442C1945.87 445.806 2002.47 452.569 2034.99 480.021C2072.35 511.556 2069.67 609.655 2030.96 640.052C2014.72 652.803 1997.36 650.066 1978 649.103C1952.98 647.858 1920.28 645.786 1896 651M1702 559C1702.04 548.982 1705.55 539.011 1704 529C1698.29 545.999 1696.34 564.103 1698.57 582C1699.62 590.412 1704.57 607.68 1698.74 615.219C1695.47 619.452 1686.6 618.231 1682 618.158C1668.23 617.939 1654.62 622.13 1641 623C1643.55 618.3 1647.7 615.152 1651 611C1640.44 615.647 1612.26 640.349 1597.82 627.1C1590.66 620.534 1598 583.009 1598 573C1603.53 574.854 1600.61 580.462 1600 585C1603.51 582.467 1603.13 575.063 1607.28 574.42C1618.13 572.741 1638.85 582.992 1648.22 575.74C1652.95 572.078 1652.39 555.752 1653.24 550C1654.71 539.992 1662.3 519.908 1655.74 510.501C1647.43 498.594 1609.97 503.994 1597 500C1598.88 516.071 1595.35 532.89 1595.02 549C1594.94 553.112 1596.81 562.836 1593.18 565.733C1588.1 569.786 1569.35 563.761 1563 563.096C1557.16 562.485 1540.33 562.373 1536.35 557.744C1533.92 554.932 1537.85 547.123 1538.55 544C1541.41 531.357 1542.27 517.877 1543.68 505C1544.8 494.798 1541.88 459.605 1549.6 453.286C1558.29 446.186 1574.55 447.883 1585 448.008C1598.08 448.164 1609.07 456.624 1622 457.907C1645.63 460.254 1690.78 442.929 1710.27 461.994C1714.83 466.446 1711.38 478.366 1711 484C1709.76 502.541 1708.58 520.698 1706.68 539C1706.02 545.33 1707.17 554.484 1702 559M862 457.519C848.951 459.719 836.407 465.619 823 464.921C819.548 464.741 810.823 461.437 808.356 464.84C804.348 470.37 810.617 496.599 811.136 504C813.353 535.58 810.858 567.037 804.087 598C802.253 606.388 796.074 628.752 802.822 635.919C809.136 642.625 826.475 641.652 835 642.033C862.985 643.283 891.992 646.979 919.85 640.716C926.033 639.326 922.468 630.278 921.861 626C920.773 618.324 913.657 586.349 918.079 580.822C924.923 572.27 948.307 583.95 955.819 572.734C967.697 554.999 961.712 519.019 961.04 499C960.721 489.489 962.625 480.439 954.853 473.317C936.471 456.471 885.656 453.53 862 457.519M2032 474C2023.22 468.466 2013.97 464.14 2005 459C2014.58 457.422 2028.62 464.899 2032 474M915 575C917.648 552.403 909.997 528.015 910 505L908 505C907.999 539.621 876.841 497.806 868.424 520.14C863.648 532.813 867 551.614 867 565C867 569.586 865.524 577.677 871.148 579.499C880.663 582.58 906.347 572.81 912.616 581.604C920.759 593.025 915.151 622.751 919 637C891.115 637.042 864.996 639.236 837 637.134C828.955 636.53 812.853 638.388 806.822 632.038C798.713 623.501 808.472 593.216 810.379 583C816.887 548.15 821.674 502.475 811 468C830.841 468.703 846.701 462.492 866 461.141C880.034 460.159 893.122 464.146 907 464.925C919.818 465.644 938.341 465.38 948.978 473.556C964.496 485.486 956.64 529.296 956.04 547C955.824 553.382 956.585 565.207 952.061 570.315C945.222 578.038 924.195 575.004 915 575M1210 512C1208.84 518.153 1215.7 520.807 1221 521C1216.64 509.308 1239.99 517.937 1243.19 512.458C1249.15 502.236 1239.61 474.085 1247.83 467.26C1251.12 464.524 1258.93 466.029 1263 465.561C1267.78 465.012 1276.34 462.401 1279.5 467.368C1291.72 486.54 1285.76 523.595 1285.04 545C1284.83 551.176 1287.07 565.201 1281.5 569.458C1271.16 577.354 1246.26 570.461 1234 571.078C1225.9 571.485 1202.3 579.681 1195.86 574.662C1192.83 572.297 1195.91 559.734 1196.04 556C1196.49 542.858 1190.43 507.9 1210 512M454 469C458.343 469.017 462.692 469.519 467 469C462.771 465.076 457.609 463.735 454 469M545 466L545 468C547.85 467.915 549.845 467.913 552 466L545 466M550 488C552.108 489.953 553.048 491.293 554 494C550.947 492.72 549.559 491.402 550 488M187 490C179.828 517.864 169.453 544.794 163.218 573C160.745 584.183 160.66 605.129 154 614C147.608 591.043 141.307 568.026 135.181 545C133.37 538.195 134.049 525.506 130.186 519.844C127.618 516.079 99.2244 527.868 94 529.102C92.132 529.543 83.6433 530.224 83.6433 532.981C83.6433 536.381 92.4461 533.992 94 533.69C99.6217 532.599 123.001 522.105 126.414 526.588C130.556 532.026 130.11 542.522 132.04 549C137.957 568.855 144.589 589.685 148.642 610C149.87 616.152 149.486 630.48 152.477 635.296C155.132 639.571 169.492 637.001 174 637C196.956 636.993 219.983 635.25 243 634.993C246.415 634.954 267.2 632.867 267.919 629.742C269.118 624.529 246.501 630.869 244 630.959C222.753 631.726 201.215 630.333 180 632.217C175.274 632.637 161.644 635.73 158.822 630.499C153.924 621.42 161.267 600.391 163.433 591C171.056 557.949 186.237 523.512 190 490L187 490M1196 495C1206.15 494.478 1200.63 487.75 1196 495M569 493C567.824 492.227 567.773 492.176 567 491C568.635 491.545 568.455 491.365 569 493M1602.5 506.9C1609.66 503.535 1648.63 506.892 1652.18 514.284C1656.5 523.277 1651.63 537.827 1650.16 547C1649.36 551.987 1649.58 570.06 1645.31 572.564C1641.09 575.042 1630.61 572.15 1626 571.39C1598.75 566.898 1598.7 561.264 1599.01 534C1599.06 529.135 1597.85 509.087 1602.5 506.9M874.284 519.822C900.137 507.386 907.552 534.869 910.298 552C910.944 556.033 915.314 572.665 910.458 574.74C905.619 576.809 874.088 578.966 871.33 574.494C868.364 569.684 871 556.721 871 551C871 544.618 867.618 523.028 874.284 519.822M420 535C421.119 538.193 422.716 538.625 426 539C424.271 536.408 423.04 535.683 420 535M480 552C483.351 548.968 486.554 545.809 489 542C483.703 543.496 481.833 547.044 480 552M1716 585C1716.22 588.664 1716.94 592.326 1716.88 596C1716.32 628.877 1705.9 593.926 1716 585M822 587C817.909 589.856 814.903 592.302 813 597C817.344 595.297 821.368 591.798 822 587M1707 594C1708.61 598.394 1710.65 612.795 1705 614C1705 607.668 1703.54 599.526 1707 594M1721 600C1733.24 612.898 1716.24 614.075 1721 600M1600 634C1603.21 654.852 1624.53 648.027 1632 634C1613.44 643.88 1617.3 645.512 1600 634M535 878C544.176 867.165 556.63 868.902 571.992 873.924C577.794 875.82 586.947 883.911 580.559 889.769C572.146 897.482 560.256 895.717 550 896.073C523.539 896.99 490.1 886.603 465 898.023C446.839 906.286 452.523 947.776 468 958C468 949.01 466.37 943.241 463 935C477.132 941.433 484.502 957.664 498 965.314C503.046 968.174 511.925 971.18 512.251 978.008C513.453 1003.22 457.869 996.589 460.034 1017C462.038 1035.89 482.018 1044.31 497 1050.56C532.302 1065.29 598.3 1074.32 630.74 1048.25C654.667 1029.02 611.557 964.542 654 952.501C685.147 943.665 686.82 980.038 691.822 999C693.794 1006.47 699.21 1012.17 700 1020L702 1020C701.335 1003.19 695.613 972.152 684.399 959.22C669.632 942.19 645.638 943.979 636.048 965C630.143 977.943 627.756 995.959 630.54 1010C632.49 1019.83 637.709 1036.54 628.834 1044.02C597.68 1070.29 536.721 1061.28 502 1047.79C487.337 1042.09 468.722 1035.37 465.104 1018.02C463.631 1010.96 473.757 1007.71 479 1006.26C491.98 1002.69 512.941 996.845 516.892 981.96C518.291 976.689 514.887 971.147 510.82 968.009C495.984 956.56 482.615 944.699 468.043 932.475C461.247 926.774 451.393 915.025 459.365 906.266C467.028 897.848 478.713 899 489 899C512.039 899 534.983 900.248 558 899.993C566.557 899.897 588.408 897.504 587.895 884.997C587.261 869.555 562.789 868.447 552 866.859C519.11 862.015 474.918 868.184 446 848.712C431.083 838.669 417.06 817.423 429.305 799.376C437.978 786.594 468.039 788.574 481 791.104C496.811 794.19 513.879 795.155 529 801.117C554.411 811.138 576.55 827.112 603 835.595C618.639 840.611 658.441 847.556 661.702 822.96C666.613 785.925 615.06 769.552 587 768.981C581.528 768.87 556.448 763.62 553.969 769.371C551.972 774.006 574.372 772.92 578 773C601.779 773.524 629.17 777.438 646.855 795.145C655.475 803.775 662.361 823.793 649.951 832.219C636.476 841.367 606.398 833.634 593 827.678C557.288 811.803 520.423 787.234 480 787.003C455.521 786.862 423.422 781.818 421.152 815C418.323 856.353 471.843 862.419 501 867.081C510.911 868.666 532.032 866.54 535 878M824.007 780.726C800.321 786.279 803.168 847.596 828.981 841.738C847.805 837.466 858.275 772.691 824.007 780.726M823.962 783.891C830.042 781.811 835.022 790.578 836.856 795.01C840.609 804.078 841.807 832.637 828.815 836.931C822.7 838.952 816.18 830.397 814.005 825.68C809.442 815.784 811.697 788.088 823.962 783.891M897.001 787.766C882.205 791.983 877.311 816.103 880.706 829C882.593 836.167 886.668 847.046 896.001 844.387C914.849 839.017 924.68 779.878 897.001 787.766M1966 849C1964.59 847.609 1963.73 846.927 1962 846C1958 855.779 1957.01 865.737 1955 876C1962.44 870.7 1958.76 860.517 1964 854C1964.28 868.467 1967.51 881.386 1965.66 896C1961.36 929.955 1948.37 962.218 1943.45 996C1941.79 1007.35 1929.45 1035.56 1941 1043L1942 1042C1936.98 1028.59 1944.81 1009.44 1947.52 996C1955.55 956.249 1970.54 919.136 1972 878L1975 878C1977.95 927.351 1969.91 976.914 1980.56 1026C1982.29 1033.97 1985.37 1066.84 1993.46 1070.24C1996.14 1071.37 1998.71 1062.66 1999.34 1061C2003.47 1050.3 2007.22 1038.36 2008.82 1027C2013.74 991.855 2022.81 954.725 2030.54 920C2033.77 905.475 2043.09 886.167 2040.64 871.145C2039.65 865.067 2029.66 865.229 2025 864.688C2011.34 863.102 1997.64 865.005 1984 864.134C1980.82 863.931 1973.29 865.558 1971.4 862.237C1964.28 849.718 1971.73 819.504 1971.08 805C1970.9 801.075 1972.69 792.226 1969.89 789.106C1967.02 785.909 1967.12 798.92 1967.22 800C1968.69 816.581 1966.59 832.481 1966 849M826 788C826 789.797 826.014 789.521 827 791L829 788L826 788M843 799C841.073 796.147 840.497 793.39 840 790C844.326 791.521 844.139 795.028 843 799M897.328 791.746C916.701 786.163 910.741 836.125 895 840.049C887.948 841.807 885.498 831.987 884.912 827C883.667 816.389 883.956 795.6 897.328 791.746M839 978C850.54 973.845 859.656 942.846 864.931 932C880.955 899.052 900.273 866.846 918.354 835C925.999 821.534 939.067 808.86 941 793C928.443 800.711 919.829 825.351 912.506 838C892.896 871.875 871.234 906.328 855.118 942C850.008 953.312 840.537 965.565 839 978M1275 795.903C1256.96 797.886 1252.89 849.573 1271.08 848.432C1293.36 847.035 1300.62 793.087 1275 795.903M1328 796.726C1304.23 797.764 1303.73 848.275 1328 847.377C1351.74 846.498 1356.05 795.502 1328 796.726M1275.24 800.212C1292.32 796.006 1289.34 840.016 1273 843.953C1256.67 847.887 1263.19 803.179 1275.24 800.212M1325.02 800.83C1349.76 795.849 1349.11 839.242 1329.99 842.643C1310.27 846.151 1309.16 804.023 1325.02 800.83M1227 804C1228.04 815.297 1243.2 829.498 1249.42 839C1274.31 876.997 1308.64 907.059 1334 944C1323.71 942.047 1316.55 930.053 1305.14 933.502C1275.66 942.409 1297.65 1007.97 1320.66 973C1324.5 967.17 1325.1 960.22 1328 954C1328.87 955.899 1329.38 956.737 1331 958C1330.38 954.208 1329.01 950.698 1328 947C1332.44 947.592 1354.66 961.472 1354.38 961.894C1356.23 959.114 1349.54 953.577 1347.99 952C1339.59 943.432 1332.35 934.114 1324.6 924.992C1305.31 902.294 1283.54 883.176 1266.9 858C1255.9 841.369 1244.82 813.901 1227 804M203 855C205.023 857.516 206.063 859.913 207 863C209.252 855.364 198.614 838.796 211.504 833.323C221.455 829.099 225.77 856.483 225.959 862C227.175 897.333 217.267 932.276 219.078 968C219.698 980.232 228.215 1007.31 245.951 996.06C255.306 990.128 253.88 977.459 256.005 968C262.203 940.406 262.723 910.159 266.177 882C267.096 874.511 267.523 845.276 280.675 847.081C288.202 848.115 285.138 871.826 284.96 877C284.052 903.342 283.275 931.076 289.244 957C290.444 962.215 294.553 979.63 301.185 979.98C313.256 980.616 318.064 960.639 319.997 952C325.475 927.522 322.19 902.656 325.338 878C327.556 860.63 334.228 851.788 351 859C348.119 838.638 326.14 858.404 323.521 869C319.704 884.441 319 899.185 319 915C319 923.705 318.806 932.37 317.522 941C316.398 948.559 313.422 974.357 302.338 974.357C297.481 974.357 293.147 955.026 292.388 951C286.996 922.4 288.674 895.693 288.992 867C289.066 860.365 290.895 839.281 278.993 841.609C265.171 844.312 264.132 865.53 262.103 876C257.006 902.305 255.323 931.236 253.129 958C252.506 965.596 250.891 986.344 244.637 991.178C228.511 1003.65 224.405 973.587 223.438 965C219.427 929.386 233.535 893.229 229.677 858C227.194 835.321 208.324 814.035 201 847C192.942 840.865 176.365 815.566 168 835C179.559 831.291 194.865 837.03 198.665 851.214C201.299 861.048 195.582 877.604 195.022 888C193.367 918.72 195.037 949.05 185.026 978C180.702 990.505 176.558 1005.37 162 1009.85C138.427 1017.11 133.386 980.256 135.361 966C140.422 929.452 159.089 898.587 158.999 861C158.959 844.194 148.8 821.972 130 819.403C111.828 816.92 79.6265 847.957 88.7921 867.351C89.995 869.896 95.2004 851.821 96.4787 849C107.098 825.564 131.427 813.732 148.256 838.003C180.121 883.958 117.106 944.724 131.494 993.864C139.745 1022.04 174.849 1016.83 185.014 994C205.115 948.863 191.338 901.644 203 855M1624 844.619C1611.66 847.367 1605.65 862.352 1617.11 870.691C1623.65 875.451 1640.27 874.986 1647.91 872.763C1672.03 865.755 1639.05 841.268 1624 844.619M1647 869C1649.98 850.622 1640.63 870.423 1632 870.851C1624.1 871.243 1608.49 863.989 1615.39 853.556C1625.36 838.467 1664.17 858.078 1647 869M1616 984C1625.32 981.745 1635.68 966.94 1644 961.152C1672.86 941.08 1711.18 919.363 1730.1 889C1736.05 879.455 1744.1 872.344 1751.56 864.019C1752.81 862.619 1759.12 857.284 1757.03 855.02C1754.06 851.796 1730 881.518 1727.54 885C1707.1 913.852 1676.81 931.384 1649 952.372C1638.51 960.292 1619.11 970.261 1616 984M1736 863L1733 868C1735.25 866.562 1736.19 865.71 1736 863M1992 1062C1990.91 1034.46 1982.12 1006 1980.14 978C1978.87 960.054 1978.01 942.99 1978.98 925C1979.7 911.522 1981.27 897.497 1979.76 884C1979.36 880.421 1974.64 871.84 1977.06 868.862C1979.67 865.643 1987.54 868.71 1991 868.785C1998.95 868.957 2033.63 863.25 2036.92 873.284C2040.1 882.963 2030.33 907.937 2027.76 918C2019.19 951.557 2014.52 986.256 2006.66 1020C2004.45 1029.52 2001.16 1057.71 1992 1062M1738.02 885.722C1726.7 887.669 1728.28 902.173 1733.64 908.952C1740.81 918.022 1756.61 922.994 1767.98 920.635C1778.99 918.351 1778.93 905.023 1772.95 898.086C1765 888.865 1750.18 883.631 1738.02 885.722M1759 913C1763.53 915.701 1766.24 914.73 1771 913C1764.57 928.148 1730.28 910.499 1733.57 895.011C1737.62 875.907 1794.03 903.861 1759 913M1245 915C1252.31 930.48 1250 942.168 1237.77 954.914C1233.95 958.901 1225.22 967.349 1219.52 962.369C1209.34 953.481 1213.96 917.42 1228.1 913.656C1237.08 911.266 1240.75 924.237 1247 928C1245.72 924.104 1243.92 920.456 1241.62 917.044C1219.07 883.624 1192.28 966.342 1223 968.215C1241.74 969.357 1267.66 924.754 1245 915M909 941C912.007 944.378 912.068 946.699 911 951C922.266 947.036 909.824 912.676 897 912.112C876.841 911.225 869.204 955.71 874.148 970C878.901 983.737 892.657 980.667 899.427 970.996C901.812 967.588 903.327 963.859 904.807 960C907.187 953.794 908.862 947.675 909 941M909 928C903.546 924.653 901.602 922.349 897 928C916.236 923.771 900.499 967.324 892.804 973.314C883.724 980.382 876.553 970.578 876.081 962C875.439 950.313 879.697 932.259 887.03 922.901C894.608 913.228 906.741 915.75 909 928M1621 917.644C1594.83 921.996 1603.76 954.165 1629 949.581C1655.59 944.75 1643.89 913.838 1621 917.644M951 935C955.806 940.976 952.644 950.123 959 955C958.987 946.418 956.563 921.245 944.856 920.351C930.752 919.275 923.667 947.552 923.081 958C922.491 968.515 928.511 987.057 940.121 971.938C947.509 962.317 950.952 946.897 951 935M1620 921.515C1638.23 917.562 1647.98 941.057 1627 945.5C1608.12 949.499 1600.4 925.767 1620 921.515M942.301 924.891C948.589 922.601 949.164 931 948.637 935C947.396 944.409 943.118 971.009 932.049 973.674C925.497 975.251 926.968 963.57 927.008 960C927.122 949.655 930.835 929.069 942.301 924.891M201 931L201 938C201.864 935.405 201.864 933.595 201 931M1308 937.689C1331.32 934.609 1324.42 976.88 1307.02 978.765C1287.86 980.841 1292.06 939.793 1308 937.689M1735 944.596C1720.95 947.547 1714.75 963.152 1726.19 973.521C1733.49 980.147 1748.66 980.483 1758 978.382C1790.73 971.022 1756.1 940.164 1735 944.596M1733 949.428C1757.08 944.689 1780.63 967.45 1746 973.662C1729.06 976.699 1713.22 953.321 1733 949.428M203 951C202.192 955.132 202.619 958.842 203 963C204.202 959.188 203.812 954.89 203 951M144 958C142.699 968.119 144.493 979.156 147 989C150.271 983.757 148.823 961.983 144 958M147 999L148 1000L147 999M134 1023C139.242 1021.84 142.461 1018.64 145 1014C140.081 1015.52 135.36 1017.74 134 1023M914 1320C893.533 1316.87 869.258 1327.16 879.894 1353C881.674 1357.32 900.707 1370.32 895.505 1373.29C890.87 1375.94 882.837 1369.38 879 1367.16C867.503 1360.49 852.128 1339.29 836.195 1344.61C824.614 1348.47 825.778 1370.43 829.538 1379C835.986 1393.69 852.72 1400.07 864 1410.22C872.93 1418.26 881.515 1430.6 893 1435C883.67 1408.99 844.392 1402.14 832.685 1378C828.886 1370.17 827.914 1347.75 841.003 1348.25C855.691 1348.81 885.765 1390.36 900.177 1376.06C908.435 1367.87 886.217 1357.74 883.906 1351C871.493 1314.8 914.301 1326.84 931 1329C925.404 1314.54 901.827 1316.08 897.564 1300C892.391 1280.49 905.226 1248.93 928 1248.24C942.398 1247.81 973.57 1264.52 975.751 1237C977.024 1220.94 956.557 1202.46 943 1197.89C931.004 1193.85 915.688 1197.31 917.163 1179C919.341 1151.96 947.013 1154.35 966 1159.68C967.302 1160.05 981.1 1162.83 977.894 1158.69C974.998 1154.95 968.092 1154.97 964 1153.42C956.366 1150.52 951.175 1145.56 942.292 1146.26C925.196 1147.6 907.785 1172.88 915.045 1189.98C921.228 1204.55 944.321 1199.73 955.981 1208.76C962.293 1213.65 973.418 1229.39 971.127 1238C965.031 1260.91 938.601 1241.23 925 1244.74C901.94 1250.67 884.36 1282.29 896.09 1305C900.212 1312.98 907.322 1314.92 914 1320M2037 1438C2051.54 1451.5 2092.77 1436.05 2101.66 1420.98C2110.38 1406.19 2099.83 1389.8 2084 1388C2085.15 1390.91 2086.87 1392.72 2089 1395C2018.76 1388.03 1949.88 1359.55 1920.03 1288C1905.41 1252.96 1914.82 1206.62 1939.53 1177.87C1947.46 1168.64 1958.65 1155.2 1972 1155.08C1983.69 1154.98 2012.76 1156.8 2016.45 1171.14C2020.85 1188.24 2002.06 1214.63 1999.48 1232C1991.55 1285.38 2035.25 1327.7 2089 1329.54C2115.26 1330.44 2159.43 1299.11 2139.5 1270C2124.55 1248.16 2099.57 1250 2080.05 1235.25C2051.72 1213.83 2065.19 1171.48 2090 1154.59C2096.9 1149.89 2108.26 1151.8 2116 1153.19C2123.92 1154.61 2136.88 1155.9 2143.26 1161.18C2155.91 1171.62 2150.56 1203.57 2147.78 1217C2146.98 1220.85 2142.75 1242.25 2145.29 1240.59C2151.46 1236.56 2151.06 1221.58 2152.61 1215C2156.22 1199.71 2156.75 1172.44 2146.91 1159.2C2138.31 1147.62 2097.23 1142.37 2086.08 1151.14C2062.05 1170.04 2047.19 1214.53 2076.06 1237.13C2091.82 1249.47 2114.27 1249.63 2128.86 1263.27C2152.21 1285.09 2131.73 1313.91 2106 1321.75C2065.84 1333.99 1998.77 1297.8 2001.08 1252C2001.97 1234.22 2006.46 1216.8 2012.25 1200C2015.11 1191.69 2021.89 1181.09 2020.64 1172C2016.58 1142.67 1963.27 1149.83 1948.62 1162.23C1938.24 1171.01 1932.94 1181.43 1926.56 1193C1883.61 1270.85 1941.28 1352.47 2015 1385.11C2036.44 1394.61 2055 1397.56 2078 1399.78C2085.78 1400.53 2096.82 1395.17 2099.98 1404.01C2111.93 1437.41 2053.36 1434.49 2037 1438M1539 1168C1536.91 1214.76 1524.56 1261.78 1521.98 1309C1521.18 1323.61 1511.1 1342.35 1520.41 1355.36C1524.12 1360.56 1554.93 1359.63 1559.56 1366.82C1565.47 1376 1543.52 1415.01 1569 1416.77C1603.11 1419.13 1596.56 1385.67 1613.58 1369.69C1618.51 1365.06 1630.55 1365.6 1637 1365C1634.48 1379.26 1642.21 1392.78 1646.7 1406C1647.71 1408.98 1648.03 1417.87 1651.6 1418.9C1670.19 1424.29 1670.49 1371.45 1684.01 1370.19C1689.5 1369.68 1706.28 1369.88 1709.74 1374.68C1717.29 1385.15 1707.1 1400.64 1727 1401.64C1744.84 1402.54 1751.9 1367.6 1774.5 1379.82C1781.79 1383.77 1772.35 1403.95 1781.7 1406.92C1789.86 1409.51 1818.17 1382.75 1817.78 1376.08C1817.04 1363.42 1790.08 1374.44 1783.82 1368.18C1774.04 1358.4 1787.53 1334.54 1773.81 1323.6C1753.87 1307.7 1752.58 1362.11 1746.74 1369.18C1743.36 1373.28 1722.97 1370.9 1718.11 1369.54C1711.75 1367.76 1714.68 1359.75 1714.92 1355C1715.47 1344.14 1717.2 1312.41 1700.01 1312.41C1676.14 1312.41 1690.16 1368.41 1664 1365.98C1636.81 1363.46 1643 1345.91 1643 1324C1643 1316.9 1645.63 1299.51 1635 1298.51C1625.54 1297.62 1625.17 1312.91 1624.06 1319C1620.9 1336.33 1616.77 1365.02 1596 1363.92C1590.13 1363.61 1570.91 1363.86 1567.14 1359.19C1564.13 1355.44 1567.19 1345.33 1567.93 1341C1570.41 1326.44 1580.06 1290.37 1559.99 1283.09C1543.3 1277.04 1527.32 1327.69 1524 1339C1520.65 1327.67 1524.73 1313.55 1525.83 1302C1528.64 1272.65 1529.37 1238.39 1537.15 1210C1539.14 1202.77 1546.62 1170.68 1539 1168M564 1218C558.152 1216.4 549.95 1212.64 544.003 1215.2C527.628 1222.25 524.201 1254.75 533 1268C505.098 1274.1 518.256 1287.17 511.406 1306.78C507.869 1316.91 496.363 1323.56 501.883 1335.99C506.494 1346.38 530.088 1343.48 526.694 1356.93C524.423 1365.93 505.074 1361.19 498.008 1362.95C485.25 1366.12 472.096 1379.99 465.823 1391C460.204 1400.87 461.424 1412.23 466.406 1422C468.975 1427.04 474.776 1440.32 480 1430C464.202 1431.55 464.952 1397.33 471.343 1389C478.431 1379.76 489.055 1368.91 501 1366.54C508.62 1365.03 525.506 1369.9 529.823 1361.85C541.464 1340.14 504.75 1345.07 504.761 1330C504.772 1315.92 514.531 1310.45 527 1314.75C529.163 1315.5 538.181 1322.04 539.913 1318.38C541.496 1315.03 532.962 1311.79 530.992 1311.08C525.729 1309.19 518.898 1308.5 516.224 1302.89C509.932 1289.7 518.819 1267.23 536 1274.23C542.106 1276.71 546.795 1281.65 553 1284C551.506 1273.17 537.611 1272.08 533.964 1262C530.18 1251.53 533.745 1218.25 549.001 1218.28C561.182 1218.31 566.775 1229.37 577 1233C574.184 1219.78 538.646 1176.45 576 1175.18C582.311 1174.97 588.658 1176.88 595 1177C586.905 1165.64 562.048 1171.82 556.384 1183.01C550.761 1194.12 558.335 1208.67 564 1218M597 1178C598 1180.54 598.699 1181.55 601 1183C600.848 1179.71 600.193 1178.83 597 1178M1205 1193C1198.68 1237.38 1185.11 1281.13 1172 1324C1180.59 1320.63 1188.22 1323.82 1197 1325.43C1204.4 1326.78 1222.57 1322.25 1227.96 1327.82C1232.12 1332.13 1232.43 1343.32 1233.39 1349C1236.14 1365.26 1241.26 1380.97 1244.47 1397C1245.91 1404.21 1245.53 1415.34 1252 1420C1257.55 1396.4 1264.92 1373.53 1273.87 1351C1276.01 1345.6 1277.48 1332.56 1282.67 1329.4C1295.07 1321.83 1316.95 1332.86 1330 1331.55C1346.07 1329.95 1360.49 1324.85 1374 1333C1372.43 1327.61 1372.46 1325.01 1375 1320C1368.31 1319.19 1363.82 1294.88 1361.71 1288C1354.11 1263.27 1349.22 1229.41 1334.41 1208C1331.24 1203.42 1328.78 1193.51 1323.65 1190.97C1319.64 1188.99 1317.52 1198.61 1316.65 1201C1312.13 1213.36 1307.34 1226.18 1304.3 1239C1299.35 1259.87 1292.57 1280.69 1285.83 1301C1283.93 1306.74 1282.68 1318.57 1277.59 1322.39C1273.41 1325.52 1239.02 1321.95 1233.22 1320.26C1227.88 1318.71 1227.51 1301.63 1226.57 1297C1221.49 1271.83 1214.14 1246.34 1210.41 1221C1209.49 1214.72 1211.76 1194.98 1205 1193M1323.05 1196.64C1325.82 1196.64 1327.64 1204.06 1328.76 1206C1335.11 1217.02 1339.52 1229.78 1343.15 1242C1348.66 1260.58 1354.22 1279.92 1361.13 1298C1362.95 1302.74 1368.41 1315.54 1365.59 1320.32C1361.43 1327.36 1334.41 1326.87 1327 1326.71C1320.95 1326.58 1287.63 1326.51 1284.35 1322.74C1281.73 1319.74 1286.96 1307.39 1288.22 1304C1294.95 1285.89 1298.83 1267.24 1304.89 1249C1309.31 1235.71 1313.26 1222.43 1317.15 1209C1317.87 1206.52 1319.57 1196.64 1323.05 1196.64M1205 1207C1211.96 1234.49 1213.35 1264.3 1220.56 1292C1221.76 1296.6 1229.1 1317.46 1225.92 1320.74C1220.6 1326.23 1182.4 1321.86 1181.09 1313.87C1177.62 1292.77 1196.05 1259.42 1199.9 1238C1201.66 1228.22 1199.84 1215.77 1205 1207M85 1213C93.5723 1220.15 106.654 1219.21 117 1221.91C148.623 1230.19 181.994 1230.95 214 1237.88C224.004 1240.04 237.246 1239.75 246 1245C196.685 1252.48 145.246 1259.62 98 1276C106.351 1282.62 123.729 1280.09 134 1281.46C162.1 1285.19 189.901 1291.4 218 1295.45C226.959 1296.74 246.452 1302.88 254.517 1297.5C267.646 1288.74 247.747 1254.13 262.206 1246.74C282.087 1236.59 317.801 1250.99 339 1251C324.105 1237.41 285.947 1240 267 1240C222.658 1240 176.883 1227.08 133 1220.68C118.293 1218.53 99.7711 1210.17 85 1213M292 1219C300.403 1217.73 316.836 1220.32 323 1215C314.504 1212.85 297.369 1210.87 292 1219M134.5 1216.5C133.873 1217.13 134.873 1218.13 135.5 1217.5C136.127 1216.87 135.128 1215.87 134.5 1216.5M256 1246C250.726 1257.7 260.621 1285.04 251.108 1294.04C245.503 1299.35 222.979 1292.87 216 1291.76C183.017 1286.47 149.536 1277 116 1277C124.388 1270.04 140.567 1269.06 151 1266.14C184.772 1256.67 221.401 1252.45 256 1246M949 1285C950.175 1284.23 950.227 1284.18 951 1283C949.365 1283.55 949.545 1283.36 949 1285M1556.32 1286.32C1561.9 1285.73 1566.03 1294.71 1567.16 1299C1570.82 1312.85 1566.75 1330.2 1564.42 1344C1563.65 1348.53 1563.58 1359.7 1557.85 1360.64C1552.59 1361.5 1546.48 1359.41 1542 1356.89C1518.93 1343.92 1529.74 1328.8 1540.26 1308C1543.21 1302.15 1548.52 1287.13 1556.32 1286.32M938 1314C938.185 1309.71 947.618 1287.05 948.423 1288.09C946.484 1285.59 940.273 1293.13 939.161 1294.32C932.845 1301.08 930.976 1307.11 938 1314M405 1295C402.844 1285.06 396.763 1290.43 405 1295M1633.57 1302.32C1640.19 1301.19 1639 1318.62 1639 1322C1639 1341.47 1644.58 1361.31 1620.07 1362.34C1611.68 1362.69 1627.56 1323.6 1628.66 1317C1629.16 1313.98 1629.53 1303.02 1633.57 1302.32M1697.51 1316.01C1712.84 1310.78 1709.97 1348.2 1710 1355C1710.02 1358 1712.1 1366.1 1708.48 1367.48C1704.24 1369.1 1680.55 1367.58 1679.82 1362.72C1678.75 1355.61 1685.91 1344.88 1687.83 1338C1689.33 1332.64 1691.41 1318.09 1697.51 1316.01M1765.24 1325.15C1779.68 1321.57 1782.76 1370.2 1775.5 1372.36C1750 1379.96 1752.99 1359.42 1757.58 1343C1758.8 1338.63 1759.98 1326.45 1765.24 1325.15M1251 1409C1246.39 1405.19 1248.56 1398.34 1246.97 1393C1242.38 1377.57 1238.5 1360.95 1236.01 1345C1235.36 1340.88 1231.02 1330.41 1233.41 1326.82C1236.71 1321.89 1273.8 1324.12 1275.88 1329.74C1278.06 1335.63 1271.19 1347.61 1269.03 1353C1262.33 1369.72 1251.72 1390.9 1251 1409M1537 1345L1536 1349C1537.66 1347.6 1537.75 1347.05 1537 1345M1609 1368C1606.33 1380.96 1587.01 1427.39 1566.42 1411.18C1559.39 1405.65 1557.43 1371.69 1565.78 1366.83C1573.84 1362.14 1599.16 1368 1609 1368M1653 1415C1649.79 1405.06 1636.52 1378.22 1641.82 1368.51C1643.71 1365.04 1670.78 1369.07 1672.44 1371.84C1678.26 1381.55 1659.87 1409.21 1653 1415M1718.16 1374.68C1739.36 1368.6 1756.73 1389.49 1730 1397.15C1717.33 1400.79 1708.72 1377.39 1718.16 1374.68M1814 1375C1811.06 1379.61 1800.28 1382.78 1795 1385C1797.51 1372.58 1803.32 1374.96 1814 1375M1791 1378C1790.4 1382.13 1793.29 1385.66 1792.71 1389.21C1788.75 1413.17 1766.23 1380.62 1791 1378M1645 1644C1637.02 1651.09 1639.44 1666.7 1630.72 1675.54C1616.54 1689.93 1591.99 1688.27 1583.53 1708C1567.8 1744.66 1608.23 1761.72 1639 1752.63C1655.83 1747.66 1663.55 1722.54 1672.74 1709C1675.99 1704.21 1680.32 1694.28 1686.96 1693.66C1698.61 1692.58 1701.51 1723.88 1705.83 1730.86C1719.02 1752.19 1763.32 1735.41 1773.94 1718C1781.32 1705.92 1794.07 1668.82 1783.44 1656.48C1773.23 1644.63 1745.82 1642.65 1748.05 1623.22C1750.83 1598.87 1791.01 1608.12 1800.43 1588.03C1804.82 1578.67 1786.52 1579.86 1782 1580.12C1759.52 1581.43 1736.47 1583.79 1714 1584C1730.39 1560.1 1766.92 1534.38 1772 1505C1762.13 1504.31 1758.83 1494.44 1750 1491.72C1728.8 1485.2 1674.13 1483 1657.76 1500.52C1648.62 1510.28 1646.21 1529.9 1656.28 1539.58C1662.16 1545.23 1671.03 1546.47 1673.97 1555.01C1679.4 1570.74 1664.93 1589.9 1649 1590.91C1631.67 1592.01 1629.46 1572.14 1628.16 1558C1625.49 1529.19 1616.84 1487.94 1578 1493.27C1529.46 1499.92 1518.56 1591.84 1546.45 1622.43C1571.64 1650.07 1612.93 1637.12 1645 1644M1749 1499L1747 1505C1753.19 1498.64 1764.14 1509.84 1761.92 1516.61C1755.34 1536.71 1732.81 1551.39 1720.96 1568C1718.3 1571.73 1708.46 1580.98 1708.96 1585.74C1709.58 1591.6 1725.48 1588.04 1729 1587.58C1750.06 1584.78 1772.81 1585.06 1794 1585C1786.07 1606.29 1749.04 1596.43 1744.35 1623C1740.33 1645.78 1771.8 1645 1780.62 1660.23C1784.79 1667.44 1781.13 1680.47 1779.43 1688C1772.26 1719.71 1753.24 1738.03 1719 1734.79C1700.17 1733.01 1707.25 1684.62 1686.56 1689.39C1666.05 1694.12 1660.93 1729.77 1647.69 1742.58C1637.78 1752.18 1621.23 1749.12 1609 1747.29C1601.37 1746.15 1592.04 1744.77 1586.56 1738.66C1559.67 1708.64 1622.2 1690.76 1633.5 1677.92C1638.22 1672.56 1646.16 1647.04 1650 1647C1643.87 1635.62 1632.93 1638.67 1622 1637.44C1600.86 1635.06 1567.85 1638.95 1551.27 1622.7C1525.46 1597.4 1534.43 1552.41 1547.8 1524C1557.18 1504.09 1579.58 1490.73 1601 1501.68C1626.95 1514.94 1621.8 1548.11 1625.7 1572C1627.87 1585.28 1633.5 1598.77 1650 1595.3C1667.58 1591.6 1687.63 1566.74 1675.2 1549.04C1668.1 1538.93 1652.15 1538.69 1653.28 1523C1655.78 1488.1 1725.43 1488.05 1749 1499M946 1498C972.288 1507.28 905.796 1508.82 910.892 1521.66C915.639 1533.63 947.147 1528.58 957 1532C941.346 1537.05 924.277 1538.92 909 1544.91C905.458 1546.3 894.63 1549.98 898.028 1555.55C910.092 1575.33 952.325 1563.1 969 1575C951.099 1578.91 932.908 1581.21 915 1585.56C911.973 1586.29 897.797 1590.09 901.106 1595.26C909.502 1608.39 938.922 1600.82 950 1610C942.278 1610 934.682 1609.96 927 1610.8C922.333 1611.31 917.693 1611.86 913 1612.01C910.454 1612.09 889.385 1616.34 894.969 1621.54C899.068 1625.36 912.482 1625.97 918 1626.86C935.016 1629.61 967.785 1630.68 981 1642C956.637 1642.01 930.328 1643.39 906 1645.9C902.029 1646.32 883.643 1646.62 883.643 1652.82C883.643 1654.01 918.9 1662.48 923 1663.72C964.863 1676.38 1004.81 1691.36 1049 1694C1043.25 1701.5 1021.22 1702.18 1012 1704.69C967.898 1716.74 916.477 1711.74 871 1713C860.844 1713.28 814.543 1713.07 812 1725C848.975 1726.1 892.918 1742.46 929 1751.5C933.356 1752.59 962.672 1764.49 964.239 1761.34C966.137 1757.52 935.602 1748.71 932 1747.76C895.805 1738.23 857.612 1735.1 822 1724C831.832 1716.1 856.558 1719.21 869 1717.7C918.042 1711.73 969.716 1719.93 1018 1707.87C1030.71 1704.7 1043.32 1699.74 1056 1696.98C1061.17 1695.85 1068.75 1697.69 1071 1692C1036.49 1692 998.87 1684.76 966 1674.28C943.918 1667.25 919.424 1653.48 896 1653L896 1651C927.054 1649.14 960.018 1642.64 991 1644C985.191 1635.88 974.086 1634.49 965 1632.24C943.467 1626.92 920.973 1622.83 899 1620C918.183 1610.99 941.607 1615.24 962 1610C950.507 1600.16 919.947 1596.53 905 1595C914.682 1585.17 945.316 1582.51 959 1580.58C961.951 1580.16 976.357 1579.32 976.357 1574.94C976.357 1571.38 966.605 1568.94 964 1568.38C949.164 1565.18 933.937 1563.35 919 1560.43C916.186 1559.88 903.52 1557.92 903.52 1554.12C903.52 1549.94 913.985 1547.5 917 1546.82C929.433 1544.02 941.864 1540.9 954 1537.01C956.238 1536.29 964.146 1535.59 964.677 1532.76C965.388 1528.98 955.348 1527.4 953 1526.92C939.936 1524.24 924.711 1527.25 913 1520C928.971 1512.87 946.721 1510.83 963 1504C959.095 1498.18 952.559 1492.51 946 1498M1182 1523C1182.46 1520.12 1182.56 1517.86 1182 1515C1179.79 1518.6 1170.18 1546.36 1170.07 1546.36C1174.54 1546.36 1175.05 1533.08 1180.46 1534.08C1184.89 1534.9 1193.99 1546.45 1199.01 1549.19C1215.66 1558.31 1247.42 1562.64 1260 1575C1229.49 1566.2 1195.31 1576.36 1174.3 1600.05C1143.8 1634.45 1180.1 1661.95 1216 1662C1205.65 1670.93 1173.71 1657.44 1167.4 1666.04C1160.33 1675.68 1174.9 1693.06 1183 1696.15C1213.58 1707.84 1247.88 1705.3 1279 1715C1259.3 1730.83 1223.39 1717.39 1201 1726.62C1188.24 1731.89 1164.39 1757.55 1178.32 1771.68C1186.49 1779.96 1202.25 1779.05 1213 1781C1205.49 1787.49 1196.68 1792.67 1192.39 1802C1191.82 1803.23 1188.09 1817.91 1192.46 1815.89C1194.99 1814.73 1195.03 1804.73 1196.54 1802C1200.47 1794.91 1211.23 1786.24 1219 1783.8C1244.73 1775.69 1277.87 1786.15 1263 1817C1284.55 1812.08 1261.66 1788.15 1266.28 1782.12C1268.69 1778.98 1279.08 1777.6 1282.94 1774.68C1306.88 1756.62 1313.95 1737.41 1293 1716C1310.04 1712.2 1322.33 1702.65 1325.54 1685C1326.5 1679.73 1328.49 1670.66 1322.85 1667.5C1310.37 1660.51 1280.34 1668.71 1265 1666C1285.99 1656 1302.48 1650.79 1320 1634.46C1325.31 1629.5 1334.47 1624.61 1332.53 1616C1327.93 1595.56 1298.94 1588.02 1284 1578C1302.62 1577.33 1321.9 1581.05 1337.95 1567.6C1360.14 1549 1331.46 1511.44 1312 1504.66C1302.28 1501.27 1292.09 1503.57 1282 1502.86C1258.72 1501.23 1236.14 1496.58 1213 1504.31C1201.47 1508.16 1193.51 1519.42 1182 1523M1314 1509C1302.89 1517.51 1296.2 1524.83 1313 1534C1311.02 1530.63 1307.81 1528.3 1305.85 1524.96C1301.66 1517.84 1312.33 1513.67 1317.98 1514.38C1326.8 1515.5 1346.84 1545.89 1336 1546C1346.71 1565.36 1319.83 1576.43 1303 1575.82C1266.4 1574.49 1218.06 1562.26 1189.08 1538.38C1174.71 1526.53 1204.69 1511.36 1215 1507.74C1238.77 1499.41 1262.83 1504.26 1287 1506.54C1296.8 1507.47 1304.29 1505.16 1314 1509M487 1509C486.488 1564.23 462.564 1623.29 453.755 1678C451.63 1691.2 448.744 1704.16 444.963 1717C444.041 1720.13 441.142 1728.03 444.902 1730.46C448.355 1732.68 449.147 1721.54 449.436 1720C451.696 1707.98 455.019 1696.15 456.669 1684C463.708 1632.17 473.988 1575.33 488 1525C491.581 1535.35 488.552 1545.42 489.078 1556C490.358 1581.75 490.179 1607.34 491.04 1633C492.734 1683.43 506.999 1733.48 507 1784L510 1784C510.063 1768.19 518.176 1755.12 521.579 1740C525.576 1722.24 522.442 1703.73 526.446 1686C532.009 1661.36 544.992 1637.56 546 1612C554.512 1623.53 550.401 1658 548.661 1672C547.921 1677.95 544.478 1688.48 547.752 1694.11C550.334 1698.54 551.956 1682.41 552.06 1681C553.482 1661.62 563.817 1643.84 564 1624C574.382 1636.03 560.594 1667.9 571.2 1677.89C574.963 1681.44 578.778 1667.98 579.12 1666C581.825 1650.38 582.64 1630.48 589 1616C593.277 1629.9 586.34 1663.63 599.742 1672.91C604.707 1676.35 607.768 1667.22 608.65 1664C612.476 1650.03 618.844 1634.38 620 1620C626.856 1626.39 636.347 1693.28 645.296 1660C646.378 1655.98 647.101 1651.87 648.686 1648C650.925 1642.53 654.203 1637.68 656 1632C666.655 1641.39 664.978 1658.75 671.065 1670.97C674.529 1677.92 681.256 1677.92 683 1670C664.81 1675.09 667.827 1602.14 648.479 1638C646.753 1641.2 645.472 1644.52 644.451 1648C642.773 1653.73 640.874 1659.33 639 1665C633.116 1653.34 635.699 1623.11 623.055 1617.11C618.14 1614.77 615.213 1623.68 614.034 1627C609.349 1640.2 606.18 1655.35 603 1669C594.68 1658.31 594.938 1638.03 594.07 1625C593.839 1621.53 593.21 1610.18 588.498 1609.32C583.979 1608.5 582.989 1620.36 582.541 1623C580.04 1637.73 580.293 1656.48 574 1670C570.334 1652.91 576.791 1628.04 564 1614C559.033 1626.23 560.753 1646.15 552 1656C552.496 1642.02 557.414 1605.58 545 1596C537.86 1629.2 523.893 1664.25 521.129 1698C519.65 1716.05 522.212 1748.35 508 1762C509.765 1730.41 501.208 1700.05 497.339 1669C493.306 1636.63 494.142 1602.53 493.04 1570C492.641 1558.22 499.47 1514.09 487 1509M1986 1517L1984 1532C1985.86 1527.22 1986.62 1521.95 1988 1517L1986 1517M1933 1670C1935.66 1670.83 1938.25 1671.53 1941 1672C1927.4 1676.78 1910.02 1664.82 1897.01 1674.51C1880.47 1686.82 1889.18 1714.85 1911 1711.6C1924.84 1709.54 1939.48 1700.88 1949.95 1691.6C1953.04 1688.86 1954.93 1682.55 1958.48 1680.86C1965.28 1677.64 1980.24 1681.3 1988 1680.95C2008.87 1680.02 2029.59 1674.88 2050.95 1676.72C2067.3 1678.13 2076.39 1743.22 2103.44 1720.1C2116.55 1708.9 2111.39 1686.24 2099 1677.76C2085.26 1668.36 2070.91 1675.59 2058.1 1669.6C2050.3 1665.96 2048.57 1653.18 2045.19 1646.43C2039.37 1634.82 2028.28 1621.46 2018.86 1612.22C2014.83 1608.26 2004.8 1601.48 2005.42 1595C2005.97 1589.2 2013.19 1582.94 2016.08 1578C2023.5 1565.29 2031.73 1548.31 2029.68 1533C2026.3 1507.83 1991.85 1519.02 1987.34 1538C1984.71 1549.05 1981.38 1564.98 1985.28 1576C1987.73 1582.94 1999.39 1593.25 1996.65 1600.01C1988.76 1619.43 1971.27 1651.69 1955.66 1665.7C1948.89 1671.77 1938.29 1662.88 1933 1670M2003.02 1523.67C2038.35 1514.91 2023.4 1556.05 2014.97 1573C2012.77 1577.44 2007.23 1589 2001.67 1589.68C1995.77 1590.39 1991.26 1579.21 1989.43 1575C1984.56 1563.77 1988.43 1527.28 2003.02 1523.67M189 1676C174.977 1690.99 160.339 1706.88 163.342 1730C166.63 1755.32 194.869 1762.37 210.654 1743C221.849 1729.26 221.249 1706.43 211.797 1692C209.123 1687.92 198.845 1682.23 198.081 1677.97C197.631 1675.46 204.769 1672.72 206.277 1670.74C211.905 1663.34 215.58 1655.19 217 1646C228.571 1656.55 234.19 1680.34 252.019 1682.8C285.471 1687.41 283.266 1629.77 266.643 1613.41C254.014 1600.97 237.625 1610.71 228.519 1621.22C226.357 1623.71 223.261 1632.11 219.861 1632.68C216.413 1633.25 214.69 1625.2 213.788 1623C206.768 1605.85 188.994 1614.39 180.729 1602.87C173.14 1592.29 200.057 1568.26 204.011 1558C206.45 1551.67 208.399 1540.87 199.97 1538.51C177.693 1532.28 156.135 1551.75 160.585 1575C162.016 1582.47 172.392 1592.26 171.567 1599C170.661 1606.42 155.396 1620.23 148.96 1623.52C139.027 1628.59 126.788 1610.03 113.001 1618.28C93.2756 1630.09 82.133 1674.84 117 1670.81C125.906 1669.79 136.041 1663.55 141.839 1656.99C144.408 1654.09 148.715 1645.12 153.357 1645.44C157.396 1645.72 161.887 1657.93 164.097 1661C170.721 1670.21 178.234 1673.89 189 1676M188 1542.07C215.336 1540.12 192.904 1567.83 184.32 1579C182.307 1581.62 177.702 1592.09 174.481 1592.68C169.734 1593.55 165.573 1576.89 164.524 1573.56C159.926 1558.98 173.878 1543.08 188 1542.07M1228 1576.33C1255.5 1573.16 1283.72 1580.57 1307 1594.88C1314.53 1599.52 1327.02 1607.6 1329.08 1617C1330.52 1623.61 1320.7 1629.06 1316.78 1633.08C1301.79 1648.48 1278.62 1660.39 1257 1662.76C1233.14 1665.38 1181.5 1659.64 1166.86 1637.98C1160.93 1629.2 1165.92 1620.16 1170.34 1612C1181.52 1591.3 1205.18 1578.96 1228 1576.33M2052 1672C2021.03 1672.29 1991.05 1672.9 1960 1670C1969.49 1653.01 1978.93 1635.41 1989.39 1618.96C1991.72 1615.3 1996.23 1603.39 2000.51 1602.18C2004.14 1601.15 2013.86 1613.55 2016.32 1616.1C2030.42 1630.72 2045.57 1652.45 2052 1672M180 1610C176.596 1609.75 173.397 1609.6 170 1610C173.496 1605.28 178.242 1602.63 180 1610M246 1611.82C274.788 1603.59 283.471 1672.49 261.997 1678.51C232.204 1686.88 206.06 1623.24 246 1611.82M174 1653C175.429 1658.73 178.247 1663.81 181 1669C148.694 1665.11 156.81 1610.81 187.021 1612.38C206.453 1613.38 216.623 1634.76 210.986 1651C207.822 1660.12 201.73 1672.34 190.008 1669.47C182.156 1667.55 179.757 1657.87 174 1653M143 1628C136.731 1634.33 125.475 1639.04 125 1649C127.546 1646.16 143.177 1627.52 147.418 1634.87C149.76 1638.93 141.47 1646.2 139.43 1649.02C132.292 1658.88 116.032 1674.72 102.405 1663.26C89.7183 1652.58 101.04 1630.11 112.08 1623.16C122.4 1616.67 134.281 1621.53 143 1628M166 1621C164.446 1625.47 161.935 1628.4 158 1631C159.269 1626.17 161.631 1623.38 166 1621M156 1632L155 1633L156 1632M1225 1666.46C1247.17 1665.56 1268.9 1673.23 1291 1672.94C1298.6 1672.84 1313.61 1667.98 1320.38 1671.82C1324.91 1674.4 1321.13 1684.26 1320.17 1688C1316.53 1702.23 1304.33 1712.85 1289 1713.79C1278.82 1714.42 1266.15 1707.76 1256 1705.68C1233.09 1700.98 1209.72 1699.22 1187 1693.59C1180.01 1691.86 1166.48 1680.08 1170.84 1671.51C1172.8 1667.66 1180.67 1669.93 1184 1670.31C1198.3 1671.96 1211.08 1667.02 1225 1666.46M1945 1673L1944 1674L1945 1673M1962 1674C1959.94 1674.72 1958.2 1674.91 1956 1675L1956 1673L1962 1674M1942 1680C1940.54 1683.76 1938.38 1686.76 1936 1690C1939.68 1689.61 1949.05 1680.71 1951.01 1681.76C1954.72 1683.75 1943.3 1692.15 1942.04 1693C1932.74 1699.29 1917.01 1711.21 1905.02 1708.07C1891.45 1704.52 1887.99 1683.09 1901 1676.72C1913.02 1670.84 1929.57 1678.84 1942 1680M2060 1675C2075.91 1675.04 2090.76 1674.23 2102.8 1686.46C2109.82 1693.59 2107.68 1714.2 2096.9 1717.5C2079.13 1722.93 2065.39 1687.7 2060 1675M191.922 1681.17C200.242 1680.82 209.679 1694.38 212.235 1701C219.72 1720.4 211.712 1748.71 188 1749.77C153.596 1751.31 165.879 1682.26 191.922 1681.17M1284 1719.51C1297.07 1717.72 1307.35 1734.48 1302.76 1746C1296.41 1761.96 1278.47 1775.66 1262 1778.36C1241.29 1781.75 1208.77 1781.3 1189 1773.72C1167.74 1765.58 1181.56 1742.37 1195.09 1733.08C1214.78 1719.56 1260.24 1722.77 1284 1719.51M527 1728C529.046 1728.75 529.596 1728.66 531 1727L527 1728z"/>
</svg>
