<?xml version="1.0" standalone="yes"?>
<svg xmlns="http://www.w3.org/2000/svg" width="2200" height="2200">
<path style="fill:#0d0d0d; stroke:none;" d="M1675.22 783.761C1670.6 785.638 1672.78 804.838 1673.24 809C1676.18 835.949 1676.52 863.118 1679.32 890C1679.73 893.911 1678.46 919.371 1682.88 918.677C1687.27 917.988 1686.98 908.127 1686.76 905C1686.09 895.127 1679.87 869.56 1685.7 861.108C1691.66 852.46 1729.81 849.57 1740 849.079C1743.24 848.922 1757.1 852.306 1757.92 847.979C1759.05 841.977 1732.52 843.428 1729 843.518C1719.18 843.769 1693.92 859.622 1685.17 853.679C1681.96 851.506 1682.68 843.412 1682.32 840C1680.93 826.631 1677.6 812.417 1678.04 799C1678.1 797.173 1680.07 781.792 1675.22 783.761M2067 864C2042.99 856.487 2011.38 861.388 1990 872C1994.92 878.19 2004.84 872.396 2011 870.225C2024.34 865.522 2046.87 863.979 2060.78 867.567C2073.96 870.968 2072.75 911.932 2074.42 924C2074.94 927.739 2076.1 942.656 2082.55 941.435C2086.38 940.71 2078.14 912.856 2077.35 909C2071.86 882.477 2073.66 854.794 2069.65 828C2069.08 824.23 2066.52 803.775 2062.84 803.081C2058.19 802.202 2064.37 832.305 2064.78 836C2065.8 845.17 2067.67 854.786 2067 864M140 874C153.757 873.979 167.147 871.993 181 872L181 869C176.444 868.682 172.647 867.831 169 865C179.754 864.896 190.192 861.383 201 861C199.539 878.976 204.33 899.946 206.323 918C206.543 919.998 208.934 940.557 213.189 932.488C219.589 920.353 209.422 891.43 208.217 878C207.851 873.917 205.25 864.079 207.907 860.801C217.262 849.261 260.765 855.205 273 859.098C275.327 859.839 291.997 866.336 291.997 861.694C291.997 856.11 276.865 854.333 273 853.468C258.022 850.114 242.308 850.522 227 851.04C221.301 851.234 212.69 854.951 207.292 852.958C198.276 849.63 209.827 816.851 199.212 815.323C194.499 814.645 201.347 848.523 197.858 853.015C186.998 866.998 151.738 855.088 140 874M560 891C566.235 902.665 581.729 924.88 591.547 933.749C593.859 935.837 596.384 933.982 595.828 931.063C592.891 915.635 563.16 899.261 564.207 885.864C565.973 863.249 594.222 847.552 595 824C583.398 828.654 574.496 853.14 569.21 864C567.444 867.629 563.362 878.608 558.563 878.996C554.384 879.335 550.498 871.768 548.335 869.019C540.272 858.766 531.895 848.767 523.257 839.007C521.168 836.648 514.14 826.133 509.969 828.622C506.221 830.858 517.527 841.471 519.016 843C526.894 851.093 553.854 876.665 553.991 887.783C554.21 905.53 523.991 924.245 527.253 942.686C528.554 950.042 534.942 937.402 535.507 936C541.83 920.286 550.832 905.193 560 891M1284 938C1269.99 935.876 1256.24 933 1242 933C1239.59 933 1227.59 931.688 1229.11 936.724C1230.7 942.023 1247.55 938.882 1252 939.04C1275.72 939.88 1299.03 945.998 1323 946C1326.43 946 1350.74 949.284 1349.56 943.295C1348.84 939.665 1336.81 941.3 1334 941.128C1323.25 940.47 1296.31 944.132 1290.11 933.893C1280.56 918.126 1286.79 880.222 1288.33 862.155C1288.95 854.923 1290.2 837.591 1283.95 832.408C1279.6 828.797 1282.98 855.498 1283 858C1283.14 883.983 1278.06 912.568 1284 938M838 853C859.805 857.765 888.306 851.26 911 851.007C942.988 850.652 974.674 857 1006 857C1001.93 847.415 978.96 848.49 970 847.864C938.213 845.641 899.536 841.373 868 846.516C858.986 847.986 843.789 844.34 838 853M919 856C919.855 869.175 920.748 882.747 920.078 896C919.625 904.962 920 914.028 920 923C920 927.228 918.662 968.812 926.995 957.569C929.406 954.316 923.852 944.742 924.079 940C925.017 920.402 926.001 900.628 926 881C925.999 873.107 927.968 858.957 919 856M907 1265C909.178 1270.33 918.54 1272.65 921.756 1266.72C926.71 1257.57 917.847 1232.63 904.505 1237.92C899.266 1240 897.606 1250.22 896.607 1255C893.228 1271.18 900.481 1319.37 927.78 1300.73C946.825 1287.73 948.827 1234.52 937.771 1216.01C929.756 1202.59 907.714 1192.7 894.008 1203.42C866.386 1225.02 859.638 1301.01 896.003 1318.03C904.189 1321.86 910.653 1317.83 919 1317.13C924.656 1316.65 931.834 1317.1 936.959 1314.41C997.959 1282.31 968.371 1149.5 890 1173.6C852.829 1185.03 841.82 1245.77 846.36 1278C847.411 1285.46 852.732 1315.31 861.786 1316.68C866.388 1317.37 861.107 1308.31 860.532 1307C855.422 1295.32 851.073 1282.87 851.003 1270C850.802 1233.46 864.232 1173.18 912 1175.19C957.207 1177.09 977.618 1255.02 956.744 1289.68C945.834 1307.8 923.96 1314.52 904 1314.6C893.082 1314.65 887.839 1301.12 883.512 1293C873.033 1273.34 874.358 1211.45 903.003 1205.45C944.791 1196.69 951.12 1281.94 922.952 1296.83C901.477 1308.18 890.132 1249.68 907.162 1245.09C915.992 1242.71 927.199 1265.34 907 1265M219 1194C221.261 1195.3 223.526 1196.16 226 1197C215.832 1205.17 187.031 1203.26 174 1203.92C170.647 1204.09 158.149 1202.41 157.323 1207.31C156.407 1212.75 167.926 1208.37 170 1208.16C177.164 1207.44 210.117 1201.89 211.036 1211.11C214.574 1246.6 212.807 1284.29 213.003 1320C213.066 1331.58 219.295 1348.75 215.498 1359.72C213.038 1366.83 179.3 1365.51 172 1366.06C170.016 1366.21 157.914 1367.17 159.761 1371.29C161.27 1374.65 179.527 1369.26 183 1369.08C202.548 1368.04 223.942 1366.2 243 1367.79C246.681 1368.09 262.395 1370.15 263.894 1365.7C265.72 1360.29 228.243 1363.84 224.736 1361.6C218.608 1357.69 219.15 1338.48 219.019 1332C218.422 1302.62 217.353 1273.3 216.901 1243.86C216.746 1233.77 212.925 1218.73 216.859 1209.15C222.108 1196.36 252.731 1210.19 255 1194C243.132 1194.86 230.915 1194 219 1194M1609 1201C1622.78 1209.55 1624.99 1245.23 1625 1260C1625 1262.77 1624.04 1279.56 1629.08 1278.68C1634.14 1277.79 1630.68 1262.41 1630.32 1259C1628.55 1242.39 1626.2 1224.91 1620.86 1209C1619.28 1204.31 1615.4 1195.17 1609.15 1195.79C1602.48 1196.45 1599.71 1210.94 1597.6 1216C1588.54 1237.66 1583.32 1260.91 1575.54 1283C1574.52 1285.89 1563.47 1306.53 1562.54 1305C1565.15 1309.28 1573.5 1303.21 1576 1301.69C1593.42 1291.04 1607.38 1291.3 1627 1291.96C1629.39 1292.04 1642.38 1293.13 1641.46 1288.34C1640.89 1285.42 1630.24 1287.04 1628 1286.92C1615.15 1286.27 1604.38 1283.14 1592 1288.31C1589.72 1289.26 1582.44 1293.61 1580.32 1290.99C1577.38 1287.37 1584.37 1273.05 1585.55 1269C1591.77 1247.51 1606.8 1222.83 1609 1201M1301 1206.44C1264.25 1210.57 1238.14 1239.12 1236.08 1278C1234.3 1311.52 1249.17 1349.38 1289 1344.82C1325.49 1340.63 1353.87 1300.69 1352.87 1265C1352 1233.61 1333.74 1202.75 1301 1206.44M1313 1220C1318.66 1216.24 1324.31 1207.42 1325 1221L1327 1221L1327 1216C1335.6 1220 1338.32 1234.72 1341.44 1243C1352.88 1273.3 1341.61 1309.4 1315 1329.54C1295.23 1344.5 1259.47 1342.31 1247.79 1318.86C1243.66 1310.57 1243.71 1298.13 1242.88 1289C1241.8 1277 1242.57 1261.27 1248.66 1250.44C1256.81 1235.92 1266.31 1216.96 1284 1212.64C1294.98 1209.96 1312.97 1206.18 1313 1220M2027 1248C2021.44 1242.62 2015.8 1234.75 2007.96 1232.61C1976.4 1223.97 1960.35 1254.53 1966.5 1281C1971.53 1302.63 1993.76 1313.15 2011 1323.48C2014.79 1325.75 2037.79 1342.78 2040.19 1341.38C2045.85 1338.05 2023.39 1324.06 2021 1322.48C2002.17 1310.02 1979.06 1302.94 1971.19 1279C1963.53 1255.74 1984.73 1228.37 2010 1239.25C2028.04 1247.01 2020.95 1266.54 2041 1272C2039.16 1265.39 2030.96 1264.19 2030.86 1256C2030.67 1239.99 2055.56 1218.55 2071.8 1225.94C2080.96 1230.11 2078.53 1248.26 2076.88 1256C2072.11 1278.37 2061.71 1296.54 2051.96 1317C2049.35 1322.48 2042.8 1336.04 2046.82 1342.11C2047.63 1343.33 2059.1 1315.01 2061.74 1309.86C2072.45 1289.04 2090.86 1256.45 2082.85 1232C2073.22 1202.6 2033.5 1230.72 2027 1248M458 1352C454.97 1342.13 447.649 1315.89 456.284 1307.71C466.3 1298.22 491.134 1302.66 504 1300.6C534.141 1295.77 564.814 1294.55 595 1290.54C614.353 1287.97 640.792 1281.36 659.989 1285.73C674.966 1289.14 658.647 1317.91 675 1322C672.066 1298.21 671.977 1274.07 671 1250C670.812 1245.36 672.101 1227.18 668.106 1224.54C664.265 1222.01 665.92 1234.8 665.96 1236C666.191 1242.9 668.829 1277.33 662.845 1279.4C646.94 1284.89 623.089 1281.09 606 1283.3C575.022 1287.33 543.956 1289.79 513 1293.44C495.955 1295.45 473.171 1301.33 456.284 1299.04C447.403 1297.84 447.092 1257.42 446.32 1250C446.039 1247.3 447.151 1234.31 441.472 1236.11C436.82 1237.58 440.921 1259.96 441.443 1264C444.326 1286.33 443.689 1308.85 447.544 1331C448.982 1339.27 446.946 1350.51 458 1352M623 1294C624.159 1298.93 623.175 1305.36 627 1309C627.872 1305.43 627.759 1302.59 627 1299C644.298 1302.91 635.205 1294.24 623 1294M1316 1655C1316 1640.86 1313.51 1614.96 1318.82 1602.09C1321.39 1595.87 1329.5 1591.76 1333.32 1586C1340.36 1575.39 1346.94 1557.94 1344.67 1545C1342.7 1533.72 1323.09 1531.5 1315.04 1537.5C1304 1545.74 1301.09 1561.34 1298.82 1574C1295.38 1593.17 1312.85 1596.1 1313.01 1613C1313.1 1622.69 1305.86 1650.34 1316 1655M1310 1551C1317.91 1553.64 1328.78 1535.06 1330 1551L1333 1551C1332.97 1549.13 1332.65 1534.71 1337.75 1541.59C1344.24 1550.35 1336.36 1573.14 1331.4 1581C1326.11 1589.39 1307.79 1604.05 1303.42 1585.96C1300.67 1574.54 1306.51 1561.62 1310 1551M1320 1540C1318.43 1542.86 1316.84 1544.4 1314 1546C1315.63 1543.08 1317.08 1541.63 1320 1540M144 1578C139.88 1586.07 132.492 1618.4 123.933 1620.36C111.343 1623.24 86.9632 1621.62 74 1619.63C70.7547 1619.13 59.8442 1613 57.5437 1616.72C55.9686 1619.27 66.9048 1627.93 68.5539 1630C75.9161 1639.24 102.659 1664.25 103.459 1675.04C104.965 1695.38 71.0194 1715.32 74 1733C85.9009 1725.17 104.759 1689.28 120.199 1690.49C125.452 1690.9 133.664 1700.37 138 1703.54C144.444 1708.24 153.865 1712.04 153 1721C175.926 1720.89 147.681 1681.14 155.3 1667.3C161.281 1656.44 187.242 1646.45 197.438 1638.24C199.563 1636.53 210.61 1630.41 207.813 1626.78C205.402 1623.66 196.244 1627.3 193 1627.67C185.657 1628.52 154.655 1628.56 150.26 1622.4C142.174 1611.05 154.302 1589.93 144 1578M144 1593C144 1599.23 147.131 1616.24 143.604 1621.17C141.426 1624.22 133.757 1622.74 133.599 1618.72C133.305 1611.28 139.607 1600.18 142 1593L144 1593M1638 1681C1644.95 1682.72 1651.28 1685.57 1655 1692C1660.02 1687.46 1653.41 1678.93 1652.69 1673C1650.68 1656.42 1654.08 1638.75 1654 1622C1653.99 1619.32 1654.4 1602.75 1648.58 1604.86C1645.24 1606.08 1648.29 1617.31 1648.54 1620C1649.98 1635.13 1647.06 1651.67 1647 1667C1646.95 1681.72 1635.6 1673 1627.88 1681.49C1620.35 1689.77 1614.41 1711.92 1615.44 1723C1618.32 1753.7 1665.19 1731.41 1666.65 1712C1667.83 1696.28 1644.66 1691.96 1638 1681M1986 1613.85C1953.11 1614.9 1935.67 1688.85 1973 1687.98C2001.63 1687.31 2011.46 1650.9 1999.2 1631C1995.36 1624.76 1995.48 1613.55 1986 1613.85M927 1641C933.082 1641.24 938.149 1643.75 944 1645L941 1640C971.33 1634.62 1001.5 1637.4 1032 1632C1025.18 1622.04 1008.15 1631.94 999 1632.38C974.54 1633.54 931.465 1641.47 916 1621C917.446 1620.94 939.758 1627.39 928.705 1619.53C903.55 1601.65 888.219 1630.4 882.056 1650C879.591 1657.84 874.357 1669.25 879.985 1676.64C899.495 1702.25 938.487 1666.45 927 1641M1971 1624C1971.1 1627.64 1971.67 1630.61 1973 1634C1974.26 1630.7 1975.08 1622.23 1978.5 1620.67C1989.81 1615.49 2005.54 1645.14 2003.17 1654C2001.8 1659.13 1997.79 1663.8 1994.69 1668C1992.13 1671.48 1989.36 1674.72 1985.99 1677.46C1953.58 1703.76 1950.28 1637.4 1971 1624M405 1655C421.733 1660.08 439.283 1641.34 454.716 1646.51C465.899 1650.26 453.869 1682.75 478 1681.85C496.069 1681.17 509.88 1640.64 496.801 1628.43C491.252 1623.24 483.998 1622.83 477 1625.04C468.096 1627.85 463.328 1635.7 455.861 1639.06C441.623 1645.48 416.23 1643.7 405 1655M906.04 1624.75C915.355 1622.34 922.66 1635.66 923.823 1643C926.221 1658.13 918.739 1674.25 902.992 1678.41C869.325 1687.3 886.818 1629.73 906.04 1624.75M73 1625C83.8153 1625.38 114.822 1620.5 123.119 1627.6C126.891 1630.84 113.377 1665.14 108.404 1667.33C104.427 1669.08 99.9822 1661.31 97.8564 1659C88.8706 1649.23 76.7612 1638.16 73 1625M132.14 1628.82C148.381 1621.73 149.137 1651.22 147.274 1660.96C146.101 1667.08 127.81 1677.82 122.079 1679.69C117.279 1681.26 112.414 1675.56 113.128 1670.98C114.262 1663.71 125.71 1631.63 132.14 1628.82M195 1633C185.466 1644.42 166.582 1656.54 152 1660C151.903 1649.53 148.76 1639.44 151 1629C164.487 1634.07 180.898 1630.22 195 1633M477.003 1629.69C507.208 1620.01 497.256 1672.19 478.863 1676.38C457.178 1681.33 464.826 1633.59 477.003 1629.69M2080 1646C2074.8 1633.13 2041.99 1642.32 2031 1641.39C2026.46 1641 2016.57 1637.78 2012.97 1641.75C2008.98 1646.15 2032.92 1646.97 2036 1646.76C2042.04 1646.35 2047.93 1646 2054 1646L2080 1646M1948 1660C1942.32 1641.07 1856.83 1659.53 1911 1657.96C1916.01 1657.82 1920.99 1657.21 1926 1657.06C1933.64 1656.83 1940.41 1659.92 1948 1660M154 1708C147.136 1704.67 127.915 1693.67 126.106 1685.93C124.951 1680.98 142.894 1668.88 147.178 1671.46C152.347 1674.57 153.677 1701.84 154 1708M97 1699C98.6577 1695.56 106.296 1678.82 110.831 1680.11C121.764 1683.22 100.661 1697.73 97 1699M1632.09 1686.07C1638.85 1684.14 1661.56 1703.57 1661.57 1710.86C1661.58 1720.4 1644.09 1731.27 1636 1733.24C1612.53 1738.97 1620.16 1689.46 1632.09 1686.07M85 1725L86 1726L85 1725M934.23 1873.33C926.936 1880.09 929.732 1911.23 928.679 1921C927.514 1931.81 920.2 1931.56 915.286 1940.01C908.315 1951.99 904.875 1969.32 907.325 1983C910.321 1999.73 929.261 1997.61 927.514 2017C926.156 2032.08 920.339 2027.31 912.755 2037.07C904.471 2047.73 897.572 2070.62 900.262 2084C905.4 2109.56 929.717 2107.04 945.992 2093.36C960.492 2081.17 963.019 2055.47 949.734 2041.09C945.99 2037.03 934.436 2035.33 932.613 2031.5C930.44 2026.93 932.849 2008.3 933.822 2003.02C936.783 1986.95 963.84 1980.96 958.264 1958C954.935 1944.29 942.178 1945.68 936.043 1935.93C929.005 1924.75 937.225 1897.48 938.672 1885C938.864 1883.35 939.261 1868.67 934.23 1873.33M193 1979C195.874 1957.32 197.026 1931.82 194.866 1910C194.581 1907.12 193.048 1888.5 188.714 1890.11C184.282 1891.75 187 1918.4 187 1923C187 1940.62 192.152 1962.43 186.626 1979.56C181.029 1996.91 161.725 2009 161.097 2029C160.589 2045.17 175.964 2048.44 177.409 2063C178.952 2078.54 176 2096.99 176 2113C176 2115.33 174.576 2129.4 178.861 2128.56C184.057 2127.54 183.766 2091.61 183.96 2086C184.277 2076.8 183.181 2063.73 185.516 2055.02C187.174 2048.83 194.409 2045.03 198.021 2039.98C208.396 2025.49 224.571 1976.85 193 1979M920 1957C927.955 1945.14 948.43 1940.24 953.401 1958C957.677 1973.28 939.221 1999.39 922.041 1994.29C904.942 1989.21 911.24 1940.46 925.873 1937.11C932.215 1935.65 919.566 1952.59 920 1957M108 1942C107.014 1943.48 107 1943.2 107 1945L110 1943L108 1942M1645 2005C1669.14 2004.73 1685.49 1951.92 1657 1949.28C1639.86 1947.7 1632.55 1967 1630.32 1981C1628.72 1991.03 1635.27 1994.17 1639.16 2002.08C1643.81 2011.53 1645.53 2025.5 1645.41 2035.97C1645.34 2042.68 1635.5 2049.01 1633.19 2056C1628.97 2068.71 1631.55 2089.74 1634.32 2101.57C1637.5 2115.14 1640.69 2128.32 1641.96 2143C1642.11 2144.73 1643.09 2155.77 1647.2 2152.47C1649.87 2150.33 1647.09 2141.89 1646.69 2139C1645.36 2129.22 1639.5 2108.45 1643.83 2099.36C1645.85 2095.13 1654.28 2094.14 1657.9 2090.95C1665.93 2083.87 1670.09 2067.5 1668.57 2057C1667.12 2046.94 1656.59 2046.68 1652.62 2039.1C1647.42 2029.16 1648.92 2015.66 1645 2005M1659 1963C1659.3 1960.03 1658.84 1957.86 1658 1955C1679.14 1966.63 1657.73 2013.2 1638.37 1992.68C1628.18 1981.89 1647.74 1940.49 1659 1963M1320 1975.94C1295.71 1985.58 1294.59 2041.67 1330 2028.2C1344.87 2022.55 1340.37 2005.41 1348.8 1995.46C1355.96 1987.01 1376.34 1991 1386 1991C1389.27 1991 1405.89 1992.95 1406.68 1988.74C1407.72 1983.19 1390.55 1986.69 1388 1986.86C1378.48 1987.53 1355.17 1990.43 1347.02 1987.79C1336.48 1984.39 1334.23 1970.29 1320 1975.94M1328 1977C1327.57 1988.18 1341.68 1987.63 1342.11 1998.15C1342.66 2011.46 1327.35 2034.1 1312.27 2023.06C1295.94 2011.12 1316.67 1982.87 1328 1977M600 1980.62C582.694 1984.58 580.917 1999.17 569.363 2008.1C563.763 2012.43 543.474 2012.09 536 2013.19C517.293 2015.94 527.38 1994.05 510 1991.34C497.541 1989.4 484.976 1988.84 475.475 1998.66C471.721 2002.54 471.586 2009.61 466.735 2012.4C460.186 2016.16 448.449 2016.24 441 2017.18C435.368 2017.89 414.333 2017.64 412.106 2024.25C410.402 2029.3 421.268 2026.73 423 2026.3C434.024 2023.54 453.642 2017.87 464.795 2019.95C470.584 2021.02 470.106 2031.55 471.282 2036C474.048 2046.46 481.843 2053.41 493 2052.91C514.217 2051.96 514.409 2033.42 524.821 2021.68C530.032 2015.8 556.382 2014.16 563.97 2015.21C578.423 2017.21 573.388 2061.07 602 2050.72C627.092 2041.64 631.33 1973.45 600 1980.62M576 2003C578.537 2003.76 580.666 2004.74 583 2006C583.025 1994.27 598.37 1977.59 611.141 1987.26C616.948 1991.66 617.365 2011.3 616.861 2018C615.575 2035.08 598.682 2058.33 582.505 2038.91C573.994 2028.7 576 2015.36 576 2003M185 2045C184.955 2017.55 177.022 2056.42 168.715 2040.93C163.922 2031.99 166.262 2022.25 170.905 2014C174.879 2006.95 179.26 1995.39 185.188 1989.97C188.804 1986.66 189.114 1995.46 192.029 1994.92C194.497 1994.46 195.018 1990.65 198.037 1991.08C204.088 1991.95 205.101 2002.42 204.914 2007C204.41 2019.31 198.506 2041.2 185 2045M205 1988C206.608 1989.72 207.243 1990.77 208 1993C205.859 1991.54 204.953 1990.62 205 1988M2045 2009L2052 2011C2051.87 2008.21 2050.85 1999.13 2045.76 2001.89C2034.21 2008.15 2031.2 2046.84 2043.24 2053.62C2063.97 2065.3 2075.94 2028.88 2087.48 2022.82C2100.43 2016.03 2121.99 2020 2136 2020C2140.17 2020 2163.36 2023.1 2163.36 2016.14C2163.36 2012.24 2147.71 2014 2145 2014C2130.07 2014 2115.86 2013.5 2101 2014.04C2096.56 2014.2 2089.51 2017.64 2085.44 2015.59C2076.56 2011.1 2073.62 1997.16 2064 1991.96C2058.92 1989.22 2043.33 1986.09 2038.87 1991C2037.15 1992.9 2037.8 1997.28 2040.87 1997.37C2055.65 1997.79 2081.06 1995.6 2079.49 2023C2078.89 2033.62 2053.34 2056.8 2043.67 2045.72C2035.97 2036.9 2044.95 2019.52 2045 2009M1944 1994L1947 1997L1948 1996L1944 1994M492 1995.42C531.32 1988.18 524.114 2043.55 494 2048.51C468.294 2052.75 467.799 1999.88 492 1995.42M1947 2020C1936.07 2015.3 1913.62 2017.8 1902.14 2020.54C1900 2021.05 1887.86 2023.27 1888.32 2025.68C1889.32 2030.82 1899.04 2027.86 1902 2027.4C1915.89 2025.24 1934.2 2027.51 1947 2022C1946.42 2026.1 1946.56 2029.95 1947.51 2034C1955.97 2070.17 1990.38 2027.26 2004 2022.31C2008.47 2020.69 2032.3 2022.45 2032.24 2018.08C2032.12 2008.95 1999.16 2019.29 1995.24 2018C1989.19 2016.01 1984.55 2003.36 1978.86 1999.21C1963.14 1987.73 1947.15 2004.52 1947 2020M1230 1998.58C1210.89 2001.95 1200.72 2012.99 1198.27 2033C1196.59 2046.78 1212.16 2062.89 1226 2060.59C1238.19 2058.57 1249.61 2048.67 1253.46 2037C1254.82 2032.88 1253.18 2023.13 1256.64 2020.5C1263.58 2015.22 1295.76 2018.55 1298.89 2010.43C1300.69 2005.77 1288.53 2008.34 1287 2008.62C1279.04 2010.08 1264.76 2015.1 1257.1 2011.93C1246.47 2007.53 1244.12 1996.08 1230 1998.58M1965.08 2001.6C1976.16 1998.22 1990.14 2012.97 1988.28 2024C1986.92 2032.08 1974.31 2040.08 1967 2042.21C1945.65 2048.41 1948.89 2006.54 1965.08 2001.6M1240 2010L1240 2005C1264.48 2012.88 1244.46 2062.71 1218 2054.31C1198.23 2048.04 1202.22 2016.23 1217.04 2006.94C1224.16 2002.48 1233.01 2007.84 1240 2010M608 2018L603 2025C606.975 2024.05 609.059 2022.22 608 2018M919.382 2038.83C952.998 2023.77 966.344 2081.98 934 2095.84C897.694 2111.4 897.728 2048.53 919.382 2038.83M936 2051C939.06 2042.46 931.753 2045.01 936 2051M1651 2061C1653.45 2058.55 1654 2051.89 1656.8 2050.62C1661.89 2048.32 1663.97 2057.93 1663.89 2061C1663.66 2069.35 1659.78 2085.38 1651.77 2089.59C1635.4 2098.21 1633.61 2056.92 1642.28 2049.61C1651.56 2041.78 1650.56 2056.07 1651 2061z"/>
</svg>
