<?xml version="1.0" standalone="yes"?>
<svg xmlns="http://www.w3.org/2000/svg" width="2200" height="2200">
<path style="fill:#0d0d0d; stroke:none;" d="M185 24C179.024 39.6179 187.525 54.8066 183.517 69.999C180.374 81.9121 163.791 79.2903 158.749 92C154.532 102.629 152.641 117.37 160.842 126.592C164.926 131.185 172.487 132.221 175.079 138.062C179.575 148.195 175.338 160.482 178 171C157.733 174.529 144.69 207.909 153.186 226C157.748 235.715 169.42 239.277 170.931 250C171.677 255.298 171.878 293.401 177.775 292.574C182.159 291.959 180.508 283.694 180.139 281C179.05 273.05 173.705 251.034 178.84 244.458C184.818 236.803 195.561 235.753 201.013 226C209.247 211.27 207.144 191.074 196.404 178.044C192.984 173.895 184.958 172.205 182.822 167.719C180.063 161.927 180.974 149.469 181.018 143C181.192 117.214 220.732 112.892 207.24 79.105C204.167 71.4102 194.048 75.4866 190.819 69.5061C185.14 58.988 193.634 29.5325 185 24M192.475 76.8369C204.637 71.5149 204.049 91.6062 203.997 98C203.896 110.43 192.425 123.293 181 127.792C161.49 135.476 158.211 108.233 162.487 96C166.667 84.0403 182.063 81.3928 192.475 76.8369M852 187C858.729 182.484 860.503 174.411 865.112 168C878.747 149.036 889.794 128.261 903.043 109C904.993 106.165 922.163 86.3855 915.202 83.7612C910.697 82.063 900.934 102.653 898.642 106C887.058 122.917 877.217 141.456 865.332 158C859.575 166.015 849.821 176.336 852 187M626.43 85.7612C620.687 87.6689 614.315 106.591 611.883 112C600.534 137.241 587.85 162.055 573.973 186C572.674 188.242 559.812 212.807 567.086 211.677C572.377 210.855 578.576 188.835 581.231 184C594.753 159.375 605.948 133.613 619.304 109.002C619.626 108.408 636.811 82.3127 626.43 85.7612M556 106C556.307 104.122 564.7 86.5669 555.837 94.6338C542.978 106.337 532.148 167.121 564 151.973C589.214 139.981 588.172 102.284 556 106M957.885 93.5437C941.472 99.6855 922.219 139.048 914.311 154C913.096 156.297 901.239 178.175 908.243 177.031C914.978 175.93 917.86 159.459 920.526 154C928.705 137.248 941.359 120.332 953.496 106.245C954.5 105.079 965.206 90.804 957.885 93.5437M1675 93.6001C1642.46 99.2361 1672.48 164.267 1700 159.438C1737.22 152.905 1706.51 88.1443 1675 93.6001M1261 95C1266.23 109.267 1273.3 120.51 1280.19 134.04C1284.91 143.318 1290.42 151.947 1295.54 161C1301.08 170.789 1305.1 181.508 1311.14 190.997C1312.21 192.677 1316.91 200.83 1319.6 197.108C1323.13 192.22 1312.8 181.087 1310.54 176.997C1299.74 157.405 1289.67 137.234 1278.26 118C1274.2 111.158 1270.56 93.4351 1261 95M2044 95.5159C2023.66 97.9175 2005.07 145.173 2035 141.62C2046.88 140.21 2066.51 133.123 2071.02 120.78C2074.95 110.029 2053.38 94.408 2044 95.5159M1672 117C1658.53 113.072 1666.43 100.503 1677 98.373C1700.3 93.6809 1727.51 139.16 1703.91 152.333C1686.91 161.83 1662.66 131.676 1672 117M1289 193C1288.68 183.517 1283.41 170.542 1281 161C1280.3 162.119 1278.92 167.491 1277.58 167.481C1273.98 167.455 1269.7 157.622 1268.11 155C1260.31 142.19 1252.09 128.809 1243.2 116.783C1241.27 114.171 1236.93 101.666 1232.64 103.106C1226.08 105.309 1240.23 123.369 1241.93 126C1252.61 142.596 1264.43 158.394 1275.1 175C1278.98 181.024 1281.63 190.876 1289 193M2038.09 102.903C2059.62 95.3633 2079.95 122.295 2050 132.755C2043.69 134.958 2032.44 139.863 2026.28 135.178C2017.77 128.703 2030.25 105.646 2038.09 102.903M555.415 108.438C582.669 103.495 584.824 144.378 559.003 149.422C540.934 152.952 545.212 110.288 555.415 108.438M1592 111C1606.77 138.039 1636.3 165.224 1657.48 187.764C1659.83 190.263 1681.27 209.605 1683.53 205.052C1686.32 199.448 1665.3 187.302 1662 183.999C1644.64 166.604 1629.57 146.969 1613.44 128.451C1608.1 122.32 1600.83 110.544 1592 111M647 167C670.016 135.68 673.32 174.118 659.895 192.997C643.516 216.032 625.374 199.515 636 177C653.258 204.179 639.3 158.847 641.628 159.323C637.418 158.461 633.369 171.217 632.119 174C626.598 186.284 620.614 203.747 638 210.071C661.135 218.487 686.285 166.094 670.437 150.887C660.29 141.15 641.737 154.888 647 167M1945 164C1950.86 173.198 1977.69 166 1988 166C2032.07 166 2075.87 170 2120 170C2115.2 160.457 2086.78 163.031 2077 162.999C2034.95 162.862 1986.07 151.357 1945 164M332 162C331.014 163.479 331 163.203 331 165L334 165L332 162M1582.98 167.728C1569.04 169.711 1570.36 182.128 1572.9 193C1576.83 209.812 1587.59 238.399 1610 235.371C1654.86 229.31 1612.01 163.602 1582.98 167.728M1580.53 174.824C1601.91 163.972 1641.77 214.873 1618.84 227.895C1597.93 239.771 1582.34 214.468 1578.47 197C1577.28 191.648 1574.09 178.09 1580.53 174.824M175 177C176.14 184.32 185.386 183.61 185 176C212.413 179.93 205.396 235.786 177 236.818C147.407 237.894 152.925 181.938 175 177M188 180L187 181L188 183L190 182C189.455 180.365 189.635 180.545 188 180M2020 184C2017.61 191.262 2012.92 197.335 2011.52 205C2010.72 209.377 2009.85 214.56 2010.31 219C2011.37 229.315 2022.93 242.021 2033.76 234.715C2044.45 227.5 2049.78 195.704 2039.52 186.604C2034.44 182.103 2026.19 185.395 2020 184M2031.01 189.674C2046.97 188.305 2040.98 231.903 2026.07 232.211C2009.67 232.55 2013.27 191.196 2031.01 189.674M1639 387.645C1617.72 391.128 1610.38 447.088 1637.98 441.488C1658.35 437.356 1665.03 383.385 1639 387.645M1645 407C1645.74 403.7 1646.75 401.528 1649 399C1653.29 410.137 1643.43 448.86 1627.87 431.396C1620.6 423.242 1629.2 392.863 1641.28 393.106C1647.93 393.239 1640.79 403.615 1645 407M1287.08 398.786C1272.07 403.577 1263.09 422.3 1262.3 437C1261.67 448.621 1273.22 456.801 1284 453.606C1297.27 449.673 1310.39 434.891 1311.82 421C1313.18 407.742 1301.1 394.31 1287.08 398.786M1281 413C1279.24 401.189 1298.22 400.968 1303.87 408.344C1315.28 423.225 1290.72 459.173 1273.32 448.74C1261.79 441.829 1268.94 414.612 1281 413M880 433.46C858.137 436.564 849.701 496.11 881 491.732C913.92 487.127 924.656 427.12 880 433.46M171.413 436.087C166.582 438.116 168.114 453.55 167.302 458C162.836 482.459 166.125 509.436 168.68 534C169.044 537.503 168.487 563.897 177.21 559.972C180.995 558.27 176.178 536.112 176.04 532C175.219 507.535 174.521 482.429 175.019 458C175.082 454.913 179.854 432.543 171.413 436.087M883 451C879.281 446.004 876.372 443.325 870 443C873.815 438.932 878.527 437.769 884 437.225C932.333 432.421 891.511 502.93 869.365 484.256C857.949 474.63 866.796 446.349 883 451M1994.86 448.146C1989.24 449.07 1984.51 455.611 1981.64 460C1973.51 472.435 1951.28 494.43 1952.31 510C1952.89 518.853 1963.25 529.524 1967.66 537.136C1971.27 543.382 1985.5 566.527 1993.78 565.152C1998.37 564.39 2001.66 554.628 2003.65 551C2010.33 538.832 2030.45 511.858 2029.94 498.166C2029.88 496.44 2016.72 482.533 2014.57 478.003C2011.7 471.944 2003.04 446.799 1994.86 448.146M1994 454C2002.42 461.31 2020.62 491.455 2020.4 502.783C2020.21 512.385 2010.49 525.504 2006.25 534C2004.13 538.246 1997.25 556.84 1992.49 557.677C1988.98 558.293 1976.83 535.54 1975.02 532C1971.99 526.078 1959.79 512.139 1959.33 506.938C1957.98 491.631 1986.16 466.318 1994 454M997.849 468.081C990.846 469.17 982.735 487.533 979.337 493.217C963.816 519.185 946.631 544.124 931.064 570C929.056 573.337 910.99 600.709 916.316 601.677C921.698 602.655 934.169 576.37 936.933 572C952.99 546.617 971.618 521.848 985.135 495C986.718 491.856 1003.55 467.195 997.849 468.081M593.14 472.544C585.398 476.149 578.892 492.978 574.35 500C558.129 525.075 541.27 550.263 526.147 576C524.216 579.287 505.814 608.997 511.014 608.997C517.036 608.997 528.667 583.019 531.79 578C548.466 551.206 564.263 522.722 582.451 497C584.116 494.646 599.531 469.568 593.14 472.544M209 474.722C185.609 481.907 198.948 513.072 204.781 528C207.062 533.839 213.59 542.967 220.981 540.47C244.257 532.607 237.724 465.899 209 474.722M1284.86 474.859C1259.44 474.591 1253.58 526.217 1280.99 526.805C1307.41 527.372 1308.81 475.112 1284.86 474.859M1570 475.556C1565.28 476.167 1533 475.686 1533 480.016C1533 486.602 1563.4 483.342 1568 482.831C1604.54 478.766 1648.47 484.747 1684 493.36C1697.77 496.698 1716.79 503.409 1730.17 494.232C1733.15 492.19 1730.46 489.414 1727.85 489.207C1713.47 488.062 1701.03 491.001 1686 488.093C1650.22 481.171 1606.69 470.812 1570 475.556M129 477.784C105.575 480.991 120.538 535.004 137.997 532.47C157.839 529.59 151.665 474.68 129 477.784M207 495C199.141 483.953 211.868 472.777 221.5 482.368C231.297 492.122 231.725 509.473 228.417 522C227.124 526.896 222.919 536.991 216.092 534.434C208.002 531.404 195.033 495.426 207 495M1283 481.865C1302.61 481.007 1303.3 520.203 1282 520.527C1261.23 520.844 1264.05 482.695 1283 481.865M128.518 482.873C143.476 475.758 150.854 521.47 138.556 527.476C126.761 533.236 118.599 487.591 128.518 482.873M909 499C937.096 469.161 957.935 536.805 931.992 548.456C914.33 556.388 901.228 517.371 915 512C912.519 508.564 906.227 506.292 904.822 512.148C902.006 523.881 906.558 546.011 917.085 552.716C928.871 560.222 942.788 550.343 947.003 539C952.455 524.329 947.521 506.465 938.933 494.041C931.577 483.399 904.647 480.716 909 499M477 493.495C446.469 498.019 456.87 550.242 484 545.731C509.615 541.472 505.804 489.226 477 493.495M1614 497C1618.36 501.178 1624.45 502.067 1629 506C1620.17 505.832 1611.92 503.611 1605.98 512.051C1596.89 524.944 1596.03 561.015 1620 557.066C1651.9 551.811 1653.31 487.48 1614 497M479 499.372C501.224 497.964 500.34 539.988 480.999 540.533C461.172 541.091 456.458 500.799 479 499.372M1633 508C1659.82 517.87 1612.1 575.474 1606.29 540.96C1605.69 537.429 1605.92 533.567 1606.04 530C1606.21 525.006 1607.02 519.546 1610.01 515.39C1616.91 505.799 1632.18 519.451 1633 508M1188 530C1193.9 539.492 1214.89 536.671 1225 536.989C1258.98 538.057 1293.27 543.062 1327 547.543C1332.29 548.246 1366.13 552.548 1367.89 547.782C1368.72 545.551 1329.71 542.677 1325 541.918C1280.18 534.697 1233.43 530.419 1188 530M583 545.505C562.679 547.914 562.518 599.392 583 597.731C605.65 595.895 609.851 542.322 583 545.505M989 549.704C952.956 558.472 966.605 627.738 1003 618.444C1030.97 611.299 1013.74 543.684 989 549.704M582.276 552.749C602.639 547.418 600.315 588.239 583.865 591.45C569.703 594.214 572.966 555.186 582.276 552.749M973 581C975.292 582.156 977.012 583.359 979 585C978.917 579.375 974.755 573.318 975.87 568.021C978.179 557.044 992.684 551.044 1000.68 559.269C1008.95 567.771 1012.95 587.474 1011.84 599C1010.49 613.039 996.523 618.07 985.086 610.458C976.432 604.699 972.28 590.969 973 581M1283 574C1291.03 566.992 1287.04 552.24 1275 556.825C1256.9 563.721 1250.79 603.729 1262.37 617.405C1269.57 625.911 1287.08 630.984 1292.88 617.973C1299.12 603.959 1285.22 590.532 1279.78 579C1278.24 575.736 1271.58 567.309 1274.08 563.764C1280.38 554.869 1283.51 570.071 1283 574M638.043 567.045C623.834 573.021 616.384 578.271 612.385 595C608.214 612.452 613.815 631.14 635.997 622.565C650.663 616.896 661.755 606.262 661.979 590C662.129 579.084 651.136 561.538 638.043 567.045M641.001 571.666C652.656 570.165 659.376 585.501 657.21 595C654.332 607.623 640.846 617.626 628 618.486C601.128 620.287 622.549 574.042 641.001 571.666M1268.55 572.323C1271.82 571.71 1275.27 580.844 1276.58 582.999C1281.24 590.704 1300.07 616.429 1281.96 620.568C1262.03 625.122 1258.95 599.009 1262.74 586C1263.51 583.358 1265.36 572.92 1268.55 572.323M1603 579C1606.34 578.354 1625.86 585.026 1621.07 578.791C1614.17 569.803 1596.2 573.55 1590 581.137C1579.64 593.796 1577.28 611.198 1587.18 624.989C1598.51 640.757 1637.04 632.708 1635.88 611.003C1635.28 599.766 1610.91 587.384 1603 579M1593.42 586.135C1609.34 581.493 1648.35 615.357 1617 626.017C1602.49 630.951 1590.3 626.837 1587.52 611C1586.54 605.412 1586.14 588.256 1593.42 586.135M1317 839C1317 851.436 1317.26 864.398 1322 876C1306.53 876 1290.93 876.682 1276 880.979C1274.25 881.482 1259.17 885.488 1262.41 888.799C1265.4 891.862 1280.1 885.739 1284 884.883C1302.72 880.767 1321.98 881.229 1341 883C1338.86 873.867 1329.35 879.336 1326.28 872.716C1320.11 859.396 1317.09 797.579 1336 798C1333.16 786.911 1293.48 792.352 1284 793.217C1280.8 793.509 1269.04 792.805 1268.32 797.121C1267.48 802.198 1276.87 799.947 1279 799.399C1285.86 797.635 1315.7 792.586 1318.5 801.206C1319.79 805.187 1318.29 809.944 1318.08 814C1317.08 832.942 1309.55 840.003 1289 840.639C1283.86 840.798 1272.22 837.944 1268.11 842.187C1264.35 846.067 1280.63 846.097 1282 846.217C1293.59 847.236 1306.35 843.693 1317 839M559 909C573.243 911.695 592.648 905.542 607 903.479C609.824 903.073 621.106 905.199 622.242 902.171C623.196 899.629 617.546 884.347 617.096 880C614.749 857.319 607.05 820.743 618 801C613.321 799.344 606.975 797.095 604.501 803.115C601.076 811.453 607.641 818.336 608.933 826C611.634 842.022 610.006 858.826 611.136 875C611.455 879.558 614.687 892.258 611.042 895.759C599.452 906.891 572.148 897.312 559 909M535 819C551.273 813.288 590.488 814.858 602 804C587.395 800.868 540.879 802.684 535 819M874 914C875.377 904.744 867.52 883.193 874.719 875.781C882.652 867.613 901.048 874.098 908 864C899.985 864.153 881.453 871.918 874.719 868.218C870.484 865.891 872.14 850.298 871.922 846C871.62 840.044 866.265 826.506 868.788 821.501C871.697 815.733 917.697 811.696 916.108 810.438C906.879 803.134 883.779 811.464 874 813.914C870.321 814.835 864.205 813.353 862.169 817.303C858.806 823.825 865.509 834.099 866.312 841C868.63 860.916 866.741 880.86 868.181 900.783C868.513 905.382 868.339 917.922 871.87 921.13C875.213 924.167 882.701 918.812 886 917.425C898.384 912.216 911.936 908.08 925 904.933C927.271 904.386 940.569 904.42 939.919 901.137C938.979 896.393 927.145 897.968 924 898.524C907.535 901.437 890.01 908.895 874 914M210.989 830.468C185.374 832.358 158.707 828.198 134 836.866C131.301 837.813 107.815 844.314 111.187 848.149C115.28 852.803 132.254 843.499 137 842.003C155.638 836.125 173.827 837.371 193 836.981C198.165 836.877 212.164 838.011 216.108 834.646C219.896 831.414 212.896 830.327 210.989 830.468M2067 830.78C2056.82 832.708 2028.63 832.684 2022.26 841.666C2015.09 851.774 2021 884.552 2021 897C2020.99 917.282 2016.23 936.666 2019.75 957C2020.65 962.225 2019.44 972.46 2024.42 975.743C2036.18 983.493 2051.69 977.633 2063.78 976.57C2068.89 976.122 2073.11 983 2077.93 981.776C2085.03 979.971 2076.62 954.424 2079.33 948.667C2084.12 938.462 2099.48 949.457 2103.95 943.649C2106.54 940.269 2104.31 900.547 2100.18 897.803C2095.39 894.622 2081.45 899.178 2079.58 892.716C2076.41 881.762 2085.58 827.26 2067 830.78M2074 975C2061.52 966.554 2039.51 982.639 2028.82 969.476C2012.52 949.4 2027.13 900.535 2027 877C2026.95 867.981 2022.98 854.675 2027.69 846.346C2030.32 841.678 2065.4 832.966 2070.5 835.042C2074.02 836.475 2074.22 862.149 2074.67 867C2076.49 886.339 2072.38 906.447 2073.04 926C2073.55 941.071 2077.67 960.393 2074 975M1566 864L1569 862C1575.55 890.034 1573 917.559 1573 946C1573 950.92 1569.88 971.562 1573.82 974.188C1583.7 980.766 1596.68 975.792 1607 973.938C1630.4 969.734 1654.86 971.09 1678 966.32C1682.99 965.292 1709.71 965.446 1708.29 958.234C1707.21 952.718 1682.4 958.767 1678 959.562C1654.74 963.762 1630.48 965.473 1607 968.325C1598.85 969.315 1589.01 974.336 1581.16 969.97C1575.02 966.562 1579.14 957.638 1578.91 952C1578.23 934.656 1579 917.416 1579 900C1579 890.752 1571.2 867.722 1575.34 860.358C1578.86 854.098 1593.77 854.372 1600 853.785C1624.22 851.5 1645.02 851.194 1669 853.44C1675.34 854.033 1693.66 845.983 1697.08 855.281C1699.37 861.489 1696.08 871.444 1696.01 878C1695.83 894.184 1696.17 913.06 1699 929C1699.83 933.66 1698.37 947.753 1703.57 950.031C1709.48 952.62 1705.65 931.798 1705.3 929C1702.1 903.296 1701.01 878.521 1703 853C1704.31 854.229 1711.14 858.608 1709.7 853.092C1707.88 846.148 1688.58 845.907 1683 846.02C1656.36 846.561 1630.1 846.898 1603 848.069C1590.55 848.607 1566.04 846.817 1566 864M108 854C112.472 886.74 114 919.884 114 953C131.956 950.453 147.691 942.615 166 940.339C172.21 939.567 186.171 942.982 191.116 940.18C193.93 938.586 190.261 935.431 188.712 934.651C178.529 929.526 150.538 934.013 140 937.704C136.26 939.014 124.907 947.805 121.252 944.102C117.72 940.523 119.187 930.603 118.864 926C117.696 909.364 117.767 892.662 116.922 876C116.534 868.355 117.433 855.266 108 854M1609 935L1603 937C1613.46 920.479 1639.84 943.307 1649.1 931.499C1653.66 925.682 1649.25 899.25 1649.87 891C1650.09 887.991 1651.52 881.554 1648.98 879.26C1641.46 872.451 1606.68 871.92 1600.08 880.499C1593.28 889.345 1593.51 927.131 1598.38 936.97C1601.74 943.758 1609.24 942.906 1609 935M1620 881.328C1642.27 878.744 1644 886.774 1644 906C1644 910.598 1647.39 927.86 1641.72 929.218C1638.91 929.89 1602.95 926.704 1602.58 926.157C1593.18 912.223 1604.69 883.104 1620 881.328M2081.6 900.822C2100.45 890.576 2102.11 933.246 2095.5 936.717C2074.74 947.608 2072.41 905.816 2081.6 900.822M882 1181C879.996 1192.54 885 1207.8 885 1220C885 1230.6 880.208 1257.76 888.212 1265.92C896.264 1274.13 919.188 1259.11 928 1257.98C931.156 1257.58 940.407 1257.19 942.138 1254.18C944.669 1249.78 941.453 1238.93 941.038 1234C939.537 1216.19 935.667 1197.93 937.217 1180C937.893 1172.18 938.418 1130.91 929.593 1128.11C929.071 1127.94 918.523 1137.04 917.078 1138.28C906.213 1147.62 896.274 1158.98 885.993 1169.04C882.955 1172.02 874.351 1178.96 882 1181M933 1174C915.475 1174 902.723 1179.86 886 1184C888.898 1169.78 904.153 1158.09 913.745 1148.12C916.186 1145.58 922.583 1136.59 926.958 1140.09C931.951 1144.08 931.393 1167.22 933 1174M1246 1297C1254.25 1281.95 1264.72 1266.73 1276.69 1254.34C1281.32 1249.55 1292 1243.36 1292.01 1235.98C1292.03 1216.2 1289.96 1178.64 1277.91 1162.19C1270 1151.39 1240.35 1157.83 1234.19 1168.36C1231.45 1173.02 1238.66 1171.53 1240.54 1170.41C1272.93 1151.15 1282.43 1178.05 1283.02 1207C1283.13 1212.44 1288.05 1232.45 1282.67 1235.18C1271.16 1241.01 1245.73 1248.46 1239.78 1232.86C1236.89 1225.27 1239.14 1214.05 1238.98 1206C1238.9 1201.78 1238.04 1172.04 1230.87 1175.63C1227.86 1177.14 1232.29 1199.31 1232.68 1203C1235.23 1227.34 1240.77 1248.35 1243.56 1272C1244.42 1279.27 1240.09 1292.99 1246 1297M914 1180.56C917.329 1180.06 928.464 1179.14 930.74 1181.84C933.523 1185.14 931.893 1192.93 932.32 1197C933.556 1208.78 941.916 1239.04 936.178 1249.32C933.392 1254.31 906.085 1260.16 900.001 1260.88C885.029 1262.64 890 1239.99 890 1230C890 1204.39 882.399 1185.3 914 1180.56M1631 1314C1636.6 1319.81 1645.37 1335.11 1654 1334C1647.23 1315.72 1654.41 1286.8 1652.93 1267.01C1651.98 1254.21 1643.85 1243.46 1644.01 1229C1644.12 1218.63 1649.46 1191.19 1642.74 1182.81C1635.94 1174.34 1590.1 1181.8 1585.15 1190.32C1582.48 1194.92 1584.97 1206.75 1585.56 1212C1587.44 1228.66 1581.38 1250.5 1585.12 1266C1588.54 1280.17 1611.07 1304.16 1621.32 1314.68C1623.36 1316.77 1632.33 1329.37 1635.93 1325.68C1638.24 1323.31 1631.64 1316.74 1631 1314M494 1308C503.468 1307.56 507.358 1300.36 515.029 1299.21C526.434 1297.5 556.338 1309.1 564.178 1300.5C568.298 1295.98 565.019 1286.58 565.001 1281C564.937 1261.7 564 1242.35 564 1223C573.678 1224.78 569.985 1216.58 563.99 1213.36C548.712 1205.16 532.64 1198.55 517 1191.15C513.426 1189.46 503.357 1181.57 499.604 1183.03C492.365 1185.84 499.571 1209.73 499.996 1215C501.986 1239.66 510.426 1272.77 502.05 1296.92C500.513 1301.35 495.76 1303.55 494 1308M245 1289C244.972 1296.31 240.929 1324.27 248.683 1328.13C254.397 1330.98 263.86 1323.96 269 1322.12C276.004 1319.6 285.647 1320.75 293 1321.08C295.589 1321.19 302.999 1322.61 302.894 1318.08C302.793 1313.71 293.657 1315 291 1315C285.144 1315 252.186 1321.71 251.481 1320.89C244.692 1312.95 250.108 1282.36 249.992 1272C249.813 1255.83 249.072 1237.95 246.602 1222C245.701 1216.19 240.994 1206 243.047 1200.37C245.002 1195 274.954 1189.21 280.775 1189.96C286.414 1190.68 283.844 1205.68 285.372 1210C293.165 1232.04 295.87 1262.57 295.997 1286C296.012 1288.75 295.006 1313.16 299.326 1311.24C304.558 1308.92 301.102 1273.65 300.436 1268C297.987 1247.25 295.449 1226.55 291.7 1206C290.407 1198.91 294.422 1190.32 286.93 1185.86C278.246 1180.69 264.737 1188.01 256 1190.19C250.946 1191.44 240.93 1191.61 236.87 1194.74C231.29 1199.05 242.655 1218.58 239.49 1225.3C234.385 1236.15 213.917 1227.78 208.744 1236.48C201.596 1248.51 210.654 1268.24 210.984 1281C211.083 1284.84 210.232 1294.11 214.499 1296.1C222.629 1299.89 237.635 1292.18 245 1289M1644 1261C1627.04 1263.32 1606.12 1258.92 1591 1263L1591 1213C1591 1207.81 1588.43 1198.09 1590.83 1193.5C1593.91 1187.59 1634.12 1182.15 1638.74 1187.82C1642.02 1191.85 1640.08 1204.05 1639.98 1209C1639.6 1227.85 1639.9 1242.62 1644 1261M546 1212C531.732 1212.15 518.593 1217.85 505 1221C505.732 1210.87 502.415 1201.16 503 1191C514.1 1193.58 539.695 1202.26 546 1212M1952 1288C1953.63 1283.95 1954.24 1280.59 1958 1278C1958.02 1293.56 1961.46 1309.48 1962.9 1325C1963.39 1330.34 1962.28 1337.68 1967.61 1341.03C1970.77 1343.02 1977.03 1338.09 1981 1338.01C1989.86 1337.83 2031.39 1342.95 2031.62 1328.87C2031.84 1315.02 2027.08 1300.28 2027 1286C2026.96 1278.65 2030.1 1267.34 2027.5 1260.48C2025.75 1255.87 2019.22 1253.48 2016.92 1248C2013.14 1238.97 2005.83 1220.3 1996.8 1215.41C1989.67 1211.56 1981.61 1225.41 1978.18 1230C1964.21 1248.66 1952.22 1263.92 1952 1288M540 1216.4C569.023 1211.84 559 1252.11 559 1272C559 1276.87 562.35 1296.48 556.716 1297.7C551.101 1298.91 512.304 1295.91 509.26 1292.18C505.104 1287.09 509.032 1271.38 508.997 1265C508.944 1255.25 502.158 1236.95 506.638 1228.24C510.985 1219.78 531.574 1217.72 540 1216.4M1962 1264C1965.1 1255.83 1985.04 1219.07 1994.72 1220.44C1998.78 1221.01 2015.99 1253.09 2012.98 1256.92C2007.05 1264.49 1971.5 1263.44 1962 1264M241 1229C242.643 1246.62 253.601 1280.57 234 1287.94C229.713 1289.56 222.953 1293.64 218.461 1290.73C212.941 1287.15 209.995 1245.45 214.384 1239.78C216.883 1236.55 236.328 1230.77 241 1229M1278 1242C1272.87 1254.87 1259.73 1268.23 1250 1278C1243.55 1252.54 1253.8 1245.74 1278 1242M1969 1331C1965.45 1316.96 1964.44 1298.56 1963.98 1284C1963.88 1280.62 1960.78 1272.96 1963.28 1270.25C1969.53 1263.48 1988.79 1266.09 1997 1265.99C2002.6 1265.93 2015.57 1260.67 2020.18 1264.28C2026.55 1269.27 2021.05 1306.66 2022.83 1316C2023.68 1320.49 2027.54 1327.26 2022.71 1330.58C2006.79 1341.52 1984.92 1327.83 1969 1331M1596.67 1266.67C1596.72 1266.72 1596.78 1267.78 1596.33 1267.33C1596.28 1267.28 1596.22 1266.22 1596.67 1266.67M1649 1325C1633.95 1318.83 1605.51 1282.18 1599 1267C1607.13 1267.81 1637.34 1265.16 1642.4 1268.7C1646.94 1271.9 1644.81 1279.29 1645.14 1284C1646.08 1297.73 1647.7 1311.31 1649 1325M1601 1276L1606 1283C1602.92 1281.25 1600.84 1279.71 1601 1276M1609 1289L1614 1294L1613 1295L1608 1290L1609 1289M1616 1296L1617 1300C1616.06 1298.39 1615.84 1297.83 1616 1296M1620 1303C1623.06 1305.66 1624.7 1308.16 1626 1312C1623.16 1309.46 1620.43 1306.9 1620 1303M1628 1311C1628.47 1312.42 1628.81 1312.81 1630 1314L1629 1315C1628.06 1313.4 1627.84 1312.83 1628 1311M831 1513C834.184 1519.67 847.428 1519.15 854 1523C855.723 1515.26 882.996 1519 890 1519C921.044 1519 952.043 1519.99 983 1520C990.061 1520 1010.85 1516.43 1016.18 1521.08C1023.18 1527.18 1017.05 1555.4 1017 1564C1016.77 1606.68 1017.45 1649.46 1016.99 1692C1016.91 1699.87 1019.83 1735.75 1013.71 1739.4C1002.87 1745.86 979.349 1741 967 1741C926.49 1741 878.735 1732.47 839 1741C839 1685.63 838 1630.39 838 1575C838 1565.24 843.181 1527.03 833 1523C833 1578.72 832 1634.41 832 1690C832 1703.16 838.954 1740.9 822 1741C828.433 1750.45 851.631 1745 862 1745L982 1745C990.03 1745 1020.25 1751.15 1025.91 1745.6C1027.63 1743.91 1024.13 1736.47 1024.03 1734C1023.54 1721.39 1024 1708.63 1024 1696C1024 1650.63 1025 1605.4 1025 1560C1025 1550.77 1029.78 1520.48 1020.85 1515.38C1008.95 1508.58 980.656 1514 967 1514C921.628 1514 876.219 1513 831 1513M450 1606C454.961 1612.94 464.383 1611 472 1611L532 1611C525.318 1626.35 512.7 1639.84 503.72 1654C501.619 1657.31 494.066 1666.21 497.873 1670.11C505.511 1677.93 532.432 1660.26 540 1656.69C568.804 1643.11 598.424 1631.15 627 1617.15C630.966 1615.21 655.537 1608.83 653.239 1602.78C651.651 1598.6 640.707 1603.72 638 1604.28C623.79 1607.24 606.604 1603.92 592 1604C576.546 1604.09 561.502 1604.83 546 1604C558.471 1584.27 572.363 1566.05 584.002 1546C584.924 1544.41 598.745 1523.35 591.244 1525.76C586.374 1527.33 582.729 1538.04 579.544 1541.86C566.246 1557.84 554.181 1593.14 536.684 1603.62C530.639 1607.24 518.841 1605 512 1605C492.64 1605 468.767 1601.25 450 1606M209 1554C174.755 1595.66 156.743 1649.28 119 1688C128.306 1694.56 140.26 1691.2 151 1692.32C182.347 1695.58 223.05 1687.76 252.753 1698.68C259.76 1701.26 257.594 1711.14 258.201 1717C260.057 1734.9 258.461 1753.13 260.32 1771C260.766 1775.29 258.975 1790.49 264.207 1791.89C270.382 1793.55 268.021 1774.41 267.853 1771C266.985 1753.4 266.203 1735.6 266.008 1718C265.941 1712.05 267.483 1700.65 263.198 1695.88C254.801 1686.54 236.057 1690 225 1690C195.728 1690 161.623 1690.97 133 1685C154.214 1656.56 172.038 1624.4 190.335 1594C196.275 1584.13 203.805 1564.2 216 1563C214.078 1559.52 211.908 1556.71 209 1554M1949 1748C1932.57 1732.86 1911.27 1724.27 1904.88 1700C1899.9 1681.14 1899.98 1663.15 1904 1644C1919.72 1569.12 1995.02 1546.67 2061 1574.59C2102.38 1592.1 2141.97 1638.5 2126.66 1687C2119.17 1710.74 2100.29 1732.12 2079 1744.53C2070.62 1749.41 2048.59 1750.06 2044 1758C2119.46 1757.7 2155.25 1672.85 2118.05 1612.92C2093.94 1574.07 2040.81 1559.46 1998 1558.46C1934.34 1556.98 1900.78 1608.25 1895.44 1666C1892.63 1696.44 1912.21 1747.15 1949 1748M1647 1572.48C1625.59 1575.63 1606.81 1577.88 1588 1589.92C1574.18 1598.76 1555.79 1613.33 1545.6 1626.22C1535.22 1639.34 1528.69 1657.67 1529.86 1674C1530.69 1685.43 1529.5 1697.26 1534.3 1708C1557.28 1759.43 1629.41 1775.79 1680 1768.74C1729.97 1761.78 1764.4 1691.47 1754.5 1645C1744.17 1596.49 1696.35 1565.22 1647 1572.48M1603 1752L1610 1752C1604.53 1746.17 1595.93 1750.56 1589 1747.42C1567.98 1737.91 1540.8 1719.17 1536.46 1695C1518.3 1593.8 1694.07 1527.72 1740.59 1624C1763.39 1671.17 1733.66 1738.79 1687 1757.71C1670.13 1764.55 1638.36 1767.14 1621 1761.12C1615.81 1759.32 1605.08 1757.26 1603 1752M1161 1665C1165.66 1684.99 1205.74 1683.04 1215.95 1698.68C1218.49 1702.58 1213.74 1711.38 1211.98 1715C1204.67 1730.01 1199.65 1748.06 1190.6 1761.96C1188.3 1765.48 1175.97 1771.58 1177.22 1775.77C1179.32 1782.81 1197.97 1768.6 1201 1766.89C1217.83 1757.42 1234.53 1747.46 1251 1737.32C1256.84 1733.72 1265.83 1726.06 1273 1726.46C1280.41 1726.88 1288.55 1734.22 1295 1737.52C1311.53 1745.98 1328.27 1754.38 1345 1762.48C1350.48 1765.13 1365.76 1775.3 1371.24 1769.07C1375.19 1764.57 1365.41 1752.97 1363.24 1749C1355.85 1735.5 1332.72 1706.67 1333.8 1691.24C1334.38 1682.82 1368.3 1667.67 1375.68 1663.77C1378.36 1662.35 1389.73 1659.97 1389.03 1656.32C1387.91 1650.49 1359.19 1655.99 1354 1656C1345.2 1656.02 1320.45 1661.81 1313.83 1655.42C1300.69 1642.72 1291.7 1616.23 1283.24 1600C1281.08 1595.85 1276.08 1581.14 1271.02 1580.32C1268.91 1579.98 1264.15 1595.48 1262.79 1598C1252.6 1616.93 1248.45 1641.52 1235.44 1658.72C1230.77 1664.91 1220.74 1662.7 1214 1663.08C1196.15 1664.08 1178.72 1667.71 1161 1665M1275 1592C1282.34 1615.17 1304.37 1635.11 1309 1659C1288.58 1657.18 1262.22 1658.42 1242 1662C1244.42 1644.63 1256.89 1625.87 1264.18 1610C1266.85 1604.18 1269 1595 1275 1592M1997.77 1593.41C1988.82 1598.71 1995.44 1632.89 1994.79 1642C1994.62 1644.44 1994.37 1653.58 1999.48 1651.25C2006.89 1647.89 2003.43 1609.56 2003.36 1602C2003.33 1599.46 2002.44 1590.64 1997.77 1593.41M2027.38 1600.09C2023 1601.75 2025.12 1611.38 2024.86 1615C2024.39 1621.87 2017.56 1670.26 2027.44 1666.08C2031.86 1664.2 2031.18 1655.85 2031.28 1652C2031.64 1638.34 2031.93 1624.62 2032.86 1611C2033.08 1607.78 2033.44 1597.78 2027.38 1600.09M622 1611C612.936 1619.38 598.896 1622.75 588 1628.24C562.078 1641.29 533.522 1658.29 506 1667C507.289 1658.58 513.63 1652.02 518.049 1645C523.883 1635.73 531.842 1618.34 541.361 1612.5C547.23 1608.9 558.344 1611 565 1611C584.019 1611 603.05 1610.64 622 1611M624 1610.33C624.773 1610.33 624.16 1610.83 623.667 1610.67L624 1610.33M1365 1660C1363.33 1667.16 1336.41 1685.68 1328.69 1682.96C1323.69 1681.19 1319.21 1668.55 1317 1664C1332.36 1660.11 1349.33 1663.33 1365 1660M1326 1689C1306.46 1691.92 1291.76 1711.28 1273 1716.91C1265.59 1719.13 1230.63 1703.19 1228 1695.6C1226.25 1690.54 1234.68 1673.8 1237.67 1669.37C1240.89 1664.59 1248.96 1665.98 1253.99 1665.45C1266.73 1664.12 1301.47 1657.85 1312.34 1664.34C1318.56 1668.05 1323.1 1682.54 1326 1689M1175 1671C1188.06 1667.68 1203.57 1668.17 1217 1667.99C1220 1667.95 1227.4 1665.88 1229.7 1668.28C1232.92 1671.64 1223.43 1692.85 1218.74 1692.8C1207.1 1692.69 1184.5 1677.61 1175 1671M1964.49 1681.33C1955.51 1686.97 1975.75 1712.2 1979.78 1716.42C1997.57 1735.08 2016.18 1732.08 2035 1716.58C2038.07 1714.06 2058.99 1686.84 2044.08 1693.37C2031.69 1698.79 2019.7 1724.71 2003 1722.21C1990.4 1720.32 1978.14 1703.55 1973.09 1693C1971.65 1689.99 1970.56 1677.51 1964.49 1681.33M2129 1684L2128 1685L2129 1684M1328 1691C1337.37 1714.08 1363.4 1740.75 1364 1766C1343.86 1754.02 1321.35 1743.1 1300 1733.44C1296.23 1731.74 1279.64 1726.62 1279.64 1721.81C1279.64 1718.02 1288.32 1714.74 1291 1713.05C1302.99 1705.48 1315.43 1697.43 1328 1691M1227 1700C1234.73 1712.48 1255.77 1711.24 1264 1723C1241.05 1733.7 1221.07 1750.61 1198 1761C1202.65 1740.95 1215.04 1718.01 1225 1700L1227 1700M1946 1715C1943.9 1725.5 1952.58 1736.5 1963 1738C1961.13 1731.04 1950.26 1721.85 1946 1715M1964 1738C1968.68 1742.8 1974.45 1745.03 1981 1746C1977.05 1741.13 1970.02 1738.97 1964 1738M1982 1745C1984.01 1748.5 1988.4 1751.23 1991 1747C1988.03 1746.16 1985.06 1745.43 1982 1745M1950 1749C1957.77 1757.05 1988.46 1767.43 1997 1757C1979.42 1758.9 1966.59 1753.38 1950 1749M1994 1750C1999.2 1754.6 2021.13 1757.48 2026 1752C2015.53 1751.99 2004.21 1747.46 1994 1750M2028 1753C2033.01 1755.97 2038.57 1757.53 2044 1755C2039.04 1753.32 2033.22 1753.69 2028 1753M432 1941C448.423 1961.4 466.152 1978.29 480.399 2001C483.575 2006.06 494.434 2017.4 492.739 2023.68C490.922 2030.4 480.903 2036.12 476.136 2040.68C463.138 2053.12 441.578 2068.65 433.831 2085.08C429.87 2093.47 438.291 2095.92 444 2091L438 2091C442.768 2072.81 469.058 2054.81 482 2042.01C484.406 2039.63 493.781 2027.55 497.081 2028.08C500.533 2028.64 504.214 2036.37 506.417 2038.86C515.081 2048.68 524.701 2057.27 535 2065.34C537.437 2067.25 546.182 2076.89 549.187 2072.44C552.974 2066.82 542.378 2061.93 539 2059.6C531.699 2054.59 501.984 2032.1 505.547 2022.03C507.652 2016.08 516.444 2010.99 521 2006.9C534.78 1994.55 549.066 1982.82 563.003 1970.66C567.132 1967.06 575.926 1955.54 582 1956.74C593.897 1959.09 616.534 1978.69 627.465 1985.71C631.477 1988.29 635.505 2001.85 644.429 1994.06C649.846 1989.33 638.065 1983.29 634.997 1981.58C622.596 1974.7 609.721 1968.56 598.783 1959.42C595.993 1957.09 587.834 1952.71 590.106 1948.16C593.304 1941.75 603.658 1937.03 608.783 1932C635.024 1906.25 680.418 1886.06 700 1855C687.444 1857 673.825 1872.45 664.764 1881.01C647.723 1897.1 627.433 1911.12 608.992 1925.62C603.194 1930.18 590.796 1946.12 583.192 1946.25C579.546 1946.31 574.48 1938.45 572.011 1936.12C560.208 1924.98 547.547 1913.53 538.066 1900.32C536.005 1897.45 527.722 1883.73 522.951 1888.41C519.708 1891.6 530.591 1901.42 532.416 1904.14C543.581 1920.74 566.023 1932.92 574.895 1950.34C577.219 1954.91 563.065 1964.03 560 1966.79C546.277 1979.14 531.894 1990.68 518 2002.82C513.803 2006.49 506.966 2015.16 501.118 2015.7C494.222 2016.33 487.345 1999.86 484.601 1995C477.145 1981.8 449.544 1937.16 432 1941M781 1907C784.747 1920.83 792.71 1929.9 800.018 1941.85C801.839 1944.83 808.775 1946.28 808.214 1950.05C806.76 1959.82 787.089 1964.81 783 1975C793.475 1971.35 802.321 1955.64 813.672 1955.25C818.133 1955.1 821.806 1961.8 824.438 1964.68C833.121 1974.17 845.115 1983.27 852 1994C844.178 1994.06 825.112 2011.67 822 2019C830.218 2014.93 843.495 1996.2 852.641 1997.05C861.749 1997.89 873.074 2017.82 881 2023C862.399 2042.31 839.644 2058.83 819 2076C824.532 2076.73 829.81 2069.83 833.681 2066.55C845.19 2056.8 856.966 2046.61 869.001 2037.5C872.348 2034.97 887.463 2024.26 887 2035L893 2035C892.129 2043.03 901.196 2048.59 906 2054C916.522 2048.46 889.864 2031.72 888.113 2024.8C887.244 2021.37 893.362 2017.7 895 2015C880.876 2018.82 868.045 1998.75 858.992 1989C849.574 1978.86 839.232 1969.59 830.32 1958.97C828.304 1956.57 821.546 1951.62 822.625 1948.06C824.45 1942.03 837.901 1935.72 842.992 1932.48C846.994 1929.93 852.21 1924.97 856.886 1924.02C862.298 1922.93 873.05 1941.47 877.257 1945.24C895.556 1961.63 910.475 1981.67 927.003 2000.02C932.762 2006.41 944.247 2014.37 946.534 2022.95C948.022 2028.54 921.664 2049.9 916.438 2047.03C906.757 2041.71 901.684 2029.48 892 2024C896.653 2032.76 910.93 2039.68 913.36 2048.8C914.404 2052.72 905.623 2058.96 902.95 2061.03C892.415 2069.2 876.305 2078.84 869 2090C882.763 2083.56 896.012 2062.69 910.698 2059.93C916.654 2058.81 948.064 2091.49 946.456 2095.95C943.22 2104.94 925.046 2114.38 918 2121L919 2122C926.877 2116.7 941.116 2099.55 950.919 2099.96C957.148 2100.22 965.799 2113.3 970.135 2117.44C984.886 2131.53 1000.86 2146.44 1019 2156C1007.21 2137.96 987.935 2123.1 972.687 2107.94C970.328 2105.6 957.704 2097.67 957.211 2096.63C955.41 2092.83 985.526 2068.71 989.823 2069.19C1000.61 2070.4 1006.59 2087.15 1019 2088C1015.26 2079.26 1003.89 2075.55 999 2067C1011.07 2074.47 1020.45 2084.99 1031.04 2094.24C1033.62 2096.5 1039.52 2103.35 1043.35 2102.68C1047.51 2101.95 1036.96 2092.84 1036 2091.98C1025.67 2082.74 1015.92 2068.86 1004 2062C1004 2063.8 1004.01 2063.52 1005 2065C997.532 2059.21 1010.83 2051.93 1015 2048.4C1029.33 2036.25 1050.3 2022.33 1061 2007C1043.36 2010.28 1025.54 2034.95 1012 2046C1008.41 2048.93 998.187 2059.29 993.202 2058.4C979.613 2055.99 966.215 2032.55 956 2024C973.532 2011.69 1014.2 1984.53 1019 1963C995.12 1976.52 974.409 2004.9 952 2022C948.046 2011.62 933.967 2005.41 934 1994C929.969 1994.2 928.147 1993.45 926 1990L930 1992C920.255 1974.34 899.173 1957.41 885.114 1942.62C879.338 1936.55 869.131 1931.24 871 1922C868.243 1921.9 865.696 1921.59 863 1921C865.97 1918 869.201 1915.91 871 1912C859.759 1909.05 852.022 1894.31 844.68 1886C842.942 1884.03 837.371 1875.69 834.306 1876.32C829.034 1877.42 857.98 1908.52 858.116 1908.27C855.472 1913.08 840.97 1889.38 837.751 1897.37C835.674 1902.53 852.802 1912.22 854.515 1917.37C856.123 1922.21 823.354 1944.35 818.144 1943.72C803.649 1941.96 795.12 1912.12 781 1907M1313 2128C1309.94 2112.81 1347.69 2097.69 1358.96 2091.47C1361.49 2090.07 1376.35 2082.51 1373.67 2078.84C1371.05 2075.26 1361.31 2084.85 1358.98 2086.14C1346.39 2093.14 1332.89 2099.39 1321 2107.69C1317.8 2109.92 1311.01 2117.42 1307.78 2111.73C1299.27 2096.69 1295.13 2073.7 1289.44 2057C1287.9 2052.49 1282.1 2043.02 1283.13 2038.42C1284.11 2034.05 1294.43 2032.58 1298 2031.37C1312.37 2026.49 1325.31 2018.08 1340 2013.91C1343.67 2012.87 1351.89 2018.26 1353.65 2015.89C1356.86 2011.58 1341.6 1991.59 1339.24 1987C1325.26 1959.85 1306.47 1934.79 1291.62 1908C1288.78 1902.88 1284.39 1882 1277.07 1882C1268.99 1882 1258.16 1903.82 1254.68 1910C1238 1939.67 1219.97 1968.69 1200.55 1996.68C1198.11 2000.21 1178.37 2027.98 1184.42 2029.89C1189.66 2031.55 1199.84 2008.03 1202.28 2004.04C1219.27 1976.21 1238.37 1949.46 1255.82 1922C1258.43 1917.89 1271.9 1890.66 1277.26 1893.32C1282.02 1895.69 1286.6 1912.1 1289.52 1917C1302.39 1938.62 1314.92 1960.17 1328.85 1981.14C1331.38 1984.94 1344.24 2003.33 1341.74 2007.36C1331.21 2024.34 1284.04 2018.57 1275.45 2037.32C1273.07 2042.5 1280.87 2051.94 1282.43 2057C1288.22 2075.78 1296.12 2093.74 1300.39 2113C1301.97 2120.14 1305.16 2127.45 1313 2128M831 1884C832.859 1898.32 844.792 1889.29 831 1884M1900 1970C1940.6 1949.44 1976.67 1915.66 2021 1901C1991.4 1938.66 1946.57 1966.05 1913 2000C1921.06 2005.88 1935.04 1987.62 1942 1983.28C1970.64 1965.42 1999.19 1939.21 2032 1929C2026.01 1939.17 2011.37 1947.08 2002 1954.12C1982.44 1968.84 1960.79 1984.83 1944.32 2003.01C1941.02 2006.65 1919.29 2026.58 1923.95 2031.92C1927.34 2035.8 1953.01 2012.96 1957 2010.24C1988.07 1989.09 2029.35 1957.75 2067 1951C2059.3 1962.64 2040.57 1971.93 2029 1979.68C2003.8 1996.56 1978.57 2013.76 1954.22 2031.78C1947.88 2036.47 1919.04 2054.46 1920.32 2062.91C1921.05 2067.65 1928.34 2062.68 1930 2061.57C1939.56 2055.23 1948.97 2048.81 1959 2043.22C1999.09 2020.89 2042.09 1993.84 2086 1980C2053.15 2016.52 1999.85 2035.76 1962.86 2068.26C1953.73 2076.28 1945.29 2083.79 1937.24 2092.92C1935.93 2094.4 1928.02 2100.48 1930.97 2102.75C1934.17 2105.22 1940.44 2099.85 1943 2098.26C1953.7 2091.6 1964.57 2084.8 1975 2077.73C2000.72 2060.3 2030.28 2047.85 2058 2033.99C2073.44 2026.27 2092.78 2015.29 2110 2013C2083.13 2048.29 2033.24 2069.92 2000.22 2099.62C1992.16 2106.87 1980.51 2112.37 1975 2122C1989.3 2123.59 2004.93 2104.73 2017 2098.44C2051.9 2080.25 2088.41 2060.09 2127 2051C2118.24 2065.43 2098.58 2076.52 2085 2086.04C2064.28 2100.57 2044.95 2117.15 2025 2132.67C2019.28 2137.13 1990.63 2154.25 1993.11 2162.67C1994.3 2166.72 2019.41 2153.33 2023 2151.46C2054.12 2135.2 2088.7 2123.88 2122 2113C2110.71 2131.27 2077.65 2145.45 2060.56 2158.97C2057.13 2161.68 2041.29 2170.85 2042.76 2175.78C2044.45 2181.42 2057.43 2174.52 2061 2173.86C2075.39 2171.22 2088.61 2167.32 2102 2161.44C2104.4 2160.39 2113.42 2155.34 2115.7 2158.22C2117.21 2160.14 2112.55 2167.58 2112 2170C2123.57 2161.18 2123.84 2151.88 2108 2154.24C2090.52 2156.85 2075.67 2169.89 2057 2167C2077.65 2152.52 2100.36 2139.33 2119.57 2123C2121.96 2120.97 2139.04 2110.69 2135.89 2107.22C2131.26 2102.1 2109.57 2111.42 2104 2113.12C2072.08 2122.87 2042.21 2143.31 2010 2151C2035.13 2120.17 2080.51 2097.04 2112 2072.31C2115.77 2069.36 2143.02 2049.5 2139.59 2044.91C2136.49 2040.76 2113.61 2050.4 2109 2051.79C2076.33 2061.65 2047.48 2084.64 2015 2093C2040.55 2069.5 2072.97 2049.1 2101.02 2028.4C2105.01 2025.45 2127.43 2010.17 2125.9 2005.52C2124.57 2001.51 2117.27 2005.58 2115 2006.3C2103.51 2009.95 2092.23 2014.07 2081 2018.47C2033.26 2037.19 1991.74 2066.56 1946 2089C1954.99 2077.4 1971 2068.9 1983 2060.6L2060.96 2006.52C2074.62 1997.07 2094.64 1986.66 2103 1972C2088.74 1968.92 2069.66 1981.41 2057 1987.12C2019.19 2004.17 1983.38 2025.23 1946 2043C1953.64 2034.78 1965.71 2030.25 1974.86 2023.8C1996.98 2008.21 2019.05 1991.86 2042 1977.5C2052.72 1970.8 2076.28 1957.3 2078 1944C2025.06 1953.59 1985.28 1991.43 1939 2015C1960.76 1986.47 1997.56 1964.71 2025.32 1942.16C2028.24 1939.79 2053.07 1919.56 2049.35 1917.99C2044.33 1915.87 2031.66 1924.39 2027 1926.49C2007.44 1935.3 1981.63 1959.58 1961 1962C1979.67 1945.92 1998.48 1929.32 2016 1912.01C2022.72 1905.37 2033.04 1899.32 2036 1890C2023.82 1892.91 2013.28 1902.25 2002 1907.53C1977.16 1919.16 1949.8 1929.65 1927.56 1946.01C1920.03 1951.55 1900.91 1959.86 1900 1970M887 1902C881.886 1904.95 876.716 1907.4 872 1911C877.878 1911.25 883.633 1906.54 888 1903L887 1902M1753 2022C1729.9 2024.16 1709.33 2035.54 1687 2040.34C1675.93 2042.72 1664.18 2039.79 1653 2041.64C1644.63 2043.03 1628.83 2052.33 1621.26 2050.7C1616.22 2049.6 1612.56 2037.27 1611.03 2033C1606.65 2020.76 1592.65 1975.18 1603.5 1964.8C1618.66 1950.3 1659.04 1951.62 1677 1958.59C1681.57 1960.36 1695.28 1963.6 1696.27 1969.16C1697.44 1975.74 1691.14 2001.3 1684.68 2004.17C1678.63 2006.87 1666.74 2003.93 1660 2004.01C1654.11 2004.07 1644.6 2007.23 1639.58 2003.06C1633.78 1998.24 1635 1987.65 1635 1981C1641.4 1981.91 1650.76 1979.04 1656.3 1983.22C1662.09 1987.58 1660.58 1995.76 1668 1999C1666.83 1992.43 1662.6 1985.67 1672 1985C1667.41 1976.81 1637.45 1969 1629.81 1975.98C1621.47 1983.61 1627.98 2005.92 1635.59 2011.53C1643.48 2017.35 1669.51 2011.55 1680 2012.05C1684.06 2012.24 1689.96 2015.06 1693.5 2012.16C1700.12 2006.74 1707.66 1967.06 1700.72 1960.98C1680.76 1943.52 1646.77 1945.76 1623 1950.94C1616.35 1952.39 1601.61 1955.31 1597.18 1960.74C1593.05 1965.8 1594.97 1976.91 1595 1983C1595.1 2001.04 1597.98 2045.92 1614.13 2057.36C1622.7 2063.44 1638.29 2051.15 1647 2049.62C1677.55 2044.28 1704.21 2042.6 1734 2032.05C1739.16 2030.22 1756.67 2029.24 1759.13 2024.31C1762.5 2017.58 1751.01 2001.36 1748.48 1995C1740.99 1976.21 1739.62 1955.92 1742.76 1936C1743.87 1928.96 1754.43 1913.84 1751.99 1907.68C1749.67 1901.81 1733.88 1904.2 1729 1903.86C1704.66 1902.16 1679.06 1901.99 1655 1906.07C1651.25 1906.71 1625.97 1906.09 1626.32 1908.14C1627.5 1914.95 1649.3 1911.99 1654 1911.44C1676 1908.84 1697.8 1908 1720 1908C1725.3 1908 1739.09 1906.51 1743.18 1910.26C1744.98 1911.91 1736.01 1938.9 1735.44 1944C1732.04 1974.14 1741.4 1995.05 1753 2022M879 1927C880.034 1934.58 891.22 1942.99 896.001 1948.99C912.53 1969.73 935.72 1999.58 958 2014C954.719 2004.52 935.398 1994.33 935.718 1985.01C935.866 1980.7 944.103 1976.48 947.059 1973.9C956.156 1965.96 976.209 1952.21 978 1940C966.692 1949.63 947.529 1978.59 932.96 1981.1C927.502 1982.04 904.667 1956.86 906.322 1952.32C913.657 1932.21 945.118 1924.48 955 1906C940.206 1911.85 928.159 1925.83 916.783 1936.48C913.199 1939.83 906.603 1948.74 901.041 1947.97C893.794 1946.95 884.03 1932.03 879 1927M859 1912C862.78 1915.13 858.467 1917.16 859 1912M875.667 1924.33C875.222 1924.78 876.278 1924.72 876.333 1924.67C876.778 1924.22 875.722 1924.28 875.667 1924.33M115 1928C120.023 1935.33 135.075 1933 143 1933C168.001 1933 193.168 1935.03 218 1937.8C222.757 1938.33 246.214 1938.78 248.357 1942.97C250.012 1946.21 229.553 1952.76 227 1953.89L166 1980.68C163.654 1981.72 146.986 1987.79 148.106 1990.46C149.665 1994.19 162.57 1993.34 166 1993.93C185.601 1997.26 204.633 1998.67 224 2003.45C226.53 2004.07 245.651 2008.7 244.357 2011.59C242.305 2016.17 222.746 2017.12 218 2018.27C192.594 2024.4 168.015 2033.96 143 2041.41C134.568 2043.92 112.487 2046.64 115 2058C142.449 2042.42 179.348 2033.4 210 2025.78C225.536 2021.92 247.323 2020.59 260 2010C229.606 1998.11 193.828 1989.05 161 1989C177.479 1973.36 213.029 1965.48 234 1956.13C239.569 1953.64 257.049 1949.85 259.239 1943.62C261.066 1938.42 229.935 1935.42 226 1934.94C189.399 1930.53 151.806 1929.3 115 1928M879.667 1939.67C879.722 1939.72 879.778 1940.78 879.333 1940.33C879.278 1940.28 879.222 1939.22 879.667 1939.67M805 1941L805 1944L803 1944L803 1941L805 1941M815 1960C820.516 1970.68 835.695 1987.98 847 1992C838.455 1980.56 826.501 1968.5 815 1960M861 1986C871.622 1983.3 883.263 1970.59 891 1963C882.722 1962 864.949 1979.09 861 1986M636 1989C634.222 1989.96 633.979 1989.77 633 1988L636 1989M906 2006C910.999 2003.04 916.044 2000.11 919 1995C913.416 1997.18 908.911 2000.73 906 2006M852 1999L855 2002L856 2001L852 1999M904 2006L897 2012C900.573 2011.96 902.566 2009.44 905 2007L904 2006M944.333 2007.67C944.278 2007.72 944.222 2008.78 944.667 2008.33C944.722 2008.28 944.778 2007.22 944.333 2007.67M880 2014C882.573 2016.17 883.88 2017.83 885 2021C881.67 2019.59 879.744 2017.75 880 2014M820 2019L818 2022C819.849 2021.03 820.722 2020.86 820 2019M965 2020C967.978 2036.41 988.13 2041.36 993 2056C1000.21 2049.71 970.956 2024.67 965 2020M953 2090C952.236 2087.84 951.528 2086.73 950 2085L951 2090C936.043 2084.01 928.323 2064.94 915 2056C917.379 2054.21 918.136 2054.17 921 2055C922.623 2047.79 945.129 2025.57 952.981 2028.46C960.02 2031.06 966.043 2041.67 971.075 2047C974.463 2050.59 987.144 2060.33 985.894 2065.78C983.768 2075.07 961.249 2086.9 953 2090M808.333 2029.67C808.278 2029.72 808.222 2030.78 808.667 2030.33C808.722 2030.28 808.778 2029.22 808.333 2029.67M799 2037L800 2038L799 2037M793.333 2041.67C793.278 2041.72 793.222 2042.78 793.667 2042.33C793.722 2042.28 793.778 2041.22 793.333 2041.67M788 2047C789.635 2046.45 789.455 2046.64 790 2045C788.825 2045.77 788.773 2045.82 788 2047M921 2055C925.863 2061.11 931.884 2066.11 937 2072C936.096 2065.4 926.946 2057.46 921 2055M997 2063L998 2064L995 2066L997 2063M939 2073C940.131 2075.24 941.386 2077.08 943 2079C942.638 2076.07 941.246 2074.88 939 2073M803 2093C809.092 2089.06 814.586 2084.5 818 2078C812.101 2081.14 805.573 2086.72 803 2093M947 2082L949 2085L947 2082M851 2104C857.179 2103.15 862.973 2095.65 868 2092C861.27 2092.35 855.5 2099.54 851 2104M961 2101.33C961.773 2101.33 961.16 2101.83 960.667 2101.67L961 2101.33M792 2102L793 2103L792 2102M967 2113L962 2104C966.219 2104.5 974.305 2110.93 967 2113M847 2107L848 2108L847 2107M841 2113C842.176 2112.23 842.227 2112.18 843 2111C841.365 2111.55 841.545 2111.36 841 2113M972 2113C973.608 2114.45 974.064 2115.05 975 2117C972.525 2116.32 971.331 2115.61 972 2113M978 2118L979 2119L976 2121L978 2118M981 2122L985 2125L984 2126L980 2123L981 2122M915 2123L916 2124L915 2123z"/>
</svg>
