<?xml version="1.0" standalone="yes"?>
<svg xmlns="http://www.w3.org/2000/svg" width="2200" height="2200">
<path style="fill:#0b0b0b; stroke:none;" d="M196 326C188.049 321.447 196.351 306.657 198.94 300C206.108 281.571 215.752 262.949 221.078 244C222.474 239.032 228.044 231.409 225.585 226.204C222.521 219.72 207.241 218.422 201 216.562C184.182 211.55 167.56 204.977 151 199.172C145.76 197.336 134.543 195.333 130.943 191C126.982 186.235 137.715 167.813 140.13 163C151.662 140.008 163.583 116.074 172.71 92C175.08 85.7476 176.675 67.541 183.358 64.6582C188.702 62.3528 199.59 67.0581 205 68.3796C223.236 72.8347 242.425 81.0701 261 83C255.648 69.5833 211.377 63.853 198 61.583C193.231 60.7737 183.115 56.429 178.736 59.3379C171.967 63.8345 169.306 84.48 166.245 92C156.517 115.899 143.94 138.36 133.853 162C130.414 170.059 122.925 181.721 123.136 190.685C123.292 197.361 140.082 200.208 145 201.358C163.853 205.763 182.786 214.323 201 220.93C205.281 222.483 217.605 223.69 218.371 229.145C219.298 235.743 212.454 247.956 209.771 254C202.222 271.005 195.595 288.318 189.871 306C188.052 311.619 181.808 338.216 196 326M223 129C237.392 116.28 254.381 107.844 268 94C261.057 88.4612 253.381 98.9258 248 103.312C231.238 116.975 212.831 130.354 195 142.517C191.815 144.689 172.975 154.054 174.224 157.975C176.54 165.252 190.917 153.969 194 152.058C210.169 142.036 227.081 135.59 244 127.135C245.412 126.429 260.769 119.256 256.031 116.603C251.339 113.976 229.326 127.923 223 129M1264 92C1266.79 116.507 1262.49 114.081 1240 123C1247.95 132.261 1258.84 123.234 1269 123C1267.47 129.046 1270.53 140.659 1264.73 144.525C1254.82 151.143 1241.13 148.599 1230 151.32C1228 151.81 1219.64 152.535 1219.64 155.338C1219.64 170.39 1265.81 145.646 1267.16 159.071C1271.62 203.235 1236.67 243.599 1212.73 279C1209.18 284.252 1189.61 315.376 1194.35 318.969C1200.23 323.414 1208.71 316.077 1214 313.53C1232.14 304.801 1250.29 298.42 1270 294.04C1280.08 291.801 1313.94 283.363 1322.32 289.84C1332.94 298.046 1335.84 314.775 1347 324C1342.7 324.754 1339.2 323.989 1335 323C1338.99 328.353 1351.51 333.448 1358 335C1356.08 320.142 1336.44 300.813 1329 287C1331.31 286.964 1336.81 287.439 1336.89 283.895C1336.98 279.934 1328.51 275.322 1325.92 272.844C1315.11 262.506 1308.3 248.695 1292 247C1297.32 260.512 1311.81 269.299 1318 283C1276.82 283.061 1242.52 299.122 1204 309C1228.46 273.972 1257.59 234.537 1274.26 195C1278.84 184.136 1268.91 164.036 1275.3 154.685C1279.36 148.745 1303.21 150.042 1310 150.002C1311.96 149.991 1320.96 151.042 1319.93 147.096C1317.86 139.127 1281.85 142.787 1275 144C1275 138.835 1272.49 125.992 1275.4 121.819C1280.03 115.166 1299.79 118.31 1306.85 116.362C1310.5 115.356 1310.83 111.915 1307.7 109.949C1298.2 103.974 1284.42 118.212 1275.58 111.733C1268.84 106.793 1275.69 95.0667 1264 92M605.811 96.2893C602.18 99.1101 602.662 115.312 602.22 120C599.995 143.597 598.894 167.302 596.783 191C596.545 193.667 594.047 218.258 601.23 214.332C605.762 211.855 602.795 192.746 603.217 188C605.359 163.967 606.388 139.973 608.79 116C609.042 113.492 613.887 90.0149 605.811 96.2893M856 315C860.908 321.765 872.008 316.86 879 316.098C899.568 313.858 922.395 311.243 943 313.562C949.234 314.263 963.374 316.9 963.892 307.949C964.859 291.21 962.676 273.863 963.019 257C963.106 252.707 966.307 242.422 961.499 239.822C955.851 236.768 944.317 239.014 938 238.999C920.841 238.96 903.045 238.763 886 236.901C880.315 236.281 863.401 233.863 861.26 227.642C858.702 220.21 862.855 209.497 863.821 202C866.836 178.582 872.574 155.128 877.32 132C878.658 125.481 877.703 108.695 882.252 103.965C884.647 101.476 921.782 108.663 925.498 111.365C930.282 114.843 926.335 123.293 926.029 128C924.934 144.844 921.674 163.603 918.118 180C917.714 181.861 914.462 201.064 920.444 198.257C925.831 195.73 924.745 167.449 924.997 162C925.484 151.479 939.924 115.895 932.159 107.939C927.016 102.67 909.208 104.573 902 102.857C895.798 101.379 882.538 94.3552 876.579 99.0391C872.116 102.547 873.901 122.06 872.68 128C867.498 153.21 863.609 179.026 857.685 204C855.997 211.118 851.483 227.43 857.501 233.333C872.309 247.857 912.003 242.995 931 243C937.397 243.002 949.116 240.778 954.675 244.384C959.347 247.414 955.999 254.685 955.52 259C954.326 269.754 955.52 283.975 956.078 295C956.265 298.693 958.891 306.982 954.499 309.137C949.31 311.684 938.148 307.681 932 308.32C906.702 310.952 881.322 312.641 856 315M549 296C551.005 301.702 558.044 299.698 563 300.17C577.918 301.59 592.949 298.999 608 299C612.077 299 624.119 301.771 624.809 295.856C626.512 281.244 619.632 262.622 620.015 247C620.116 242.848 623.35 234.112 620.218 230.742C616.465 226.703 603.148 227.976 598 228.001C577.85 228.098 558.098 226.564 538 225.09C530.157 224.515 501.254 230.223 497.028 223.697C493.081 217.601 496 202.154 496 195C496 173.357 493 151.768 493 130C493 124.427 496.13 101.247 489.638 98.7515C487.42 97.8989 488 125.232 488 129C488 154.557 487.802 180.616 490.715 206C491.423 212.168 487.843 226.371 493.152 230.397C499.728 235.383 515.482 231.245 523.089 230.374C543.507 228.037 563.702 233.755 584 233.996C589.394 234.06 610.916 230.969 613.548 236.318C616.263 241.836 612.998 253.79 613 260C613.002 265.99 620.163 288.176 617.018 292.168C614.843 294.928 603.359 293 600 293C582.934 293 566.086 295.998 549 296M495 98C507.414 118.281 537.004 94.4199 548.958 106.958C553.036 111.235 546.046 124.066 545.303 129C542.575 147.109 544.143 168.62 543.998 187C543.969 190.735 539.142 209.76 544.959 209.894C550.667 210.026 549.432 190.852 549.783 187C551.583 167.265 548.521 146.428 552.285 127C553.468 120.896 560.677 108.007 557.644 102.283C555.182 97.6394 546.45 98.0471 542 98.0083C526.362 97.8718 510.69 98 495 98M780 103C780.064 105.994 779.946 107.345 783 108C782.243 105.771 781.608 104.72 780 103M1947 160C1979.74 168.334 2024.12 167 2058 167C2057.11 168.939 2056.6 169.519 2055 171C2057.79 171.721 2073.92 171.779 2069.67 165.692C2065.55 159.792 2049.26 162.267 2043 161.562C2019.7 158.94 1995.45 158 1972 158C1964.43 158 1953.15 155.071 1947 160M1232 162C1232.77 163.176 1232.82 163.227 1234 164C1233.46 162.365 1233.64 162.545 1232 162M1562 188C1567.42 195.516 1588.22 192.413 1597 193.217C1630.55 196.286 1665.57 204 1699 204C1690.8 195.344 1674.16 195.872 1663 194.681C1631.47 191.317 1593.46 183.03 1562 188M1924 199C1952 204.897 1988.56 199.49 2018 202.038C2021.34 202.328 2048.88 208.155 2046.03 201.393C2044.18 197.008 2022.74 196.826 2018 196.321C1995.83 193.962 1974.19 192.678 1952 191.96C1942.49 191.652 1929.99 189.788 1924 199M572 246.658C564.252 246.792 553.518 245.79 547.926 252.243C537.045 264.799 553.44 282.908 567 282.928C587.283 282.958 599.991 246.175 572 246.658M550 270C556.733 271.095 564.941 276.996 570 270C562.659 269.988 555.216 269.659 554 261C552.814 262.186 552.416 262.528 551 263C549.815 249.86 576.085 244.015 581.718 255.07C590.412 272.13 561.651 284.449 550 270M801 269C805.468 274.721 818.096 276.08 825 277.517C847.99 282.302 873.57 284 897 284C900.261 284 927.357 285.161 927.357 282.981C927.357 279.903 906.789 280.435 904 280.378C878.217 279.854 851.192 278.689 826 273C834.274 269.488 849.646 272.43 858 275L859 271C839.507 267.369 820.644 269 801 269M1326 279L1326 282L1322 282L1322 279L1326 279M2033 409.658C1996.79 417.148 1948.11 431.613 1923.18 461.179C1877.87 514.935 1862.86 609.576 1923 658.463C1946.32 677.418 1978.71 681.426 2007 688.257C2028.56 693.463 2050.39 701.674 2073 697.423C2116.37 689.27 2138.01 658.695 2156.7 622.048C2161.95 611.745 2174.45 617.13 2178.89 601.783C2183 587.524 2182 568.806 2182 554C2182 537.263 2184.53 520.489 2180.44 504C2169.12 458.453 2134.16 432.026 2092 416.996C2074.83 410.874 2051.43 405.846 2033 409.658M2159 615C2160.74 604.651 2160.68 571.033 2161.01 581.007C2162.71 632.101 2116.13 684.787 2067 693.353C2045.33 697.131 2022.5 687.984 2002 682.42C1951.61 668.744 1907.75 657.586 1890.83 601C1879.7 563.818 1898.37 517.889 1914.49 484.999C1929.09 455.205 1958.63 444.91 1986 430.008C2018.88 412.106 2059.86 411.812 2095 422.377C2159.56 441.787 2181.72 496.125 2176.22 558C2174.54 576.848 2180.92 607.057 2159 615M2105 513C2105.11 540.536 2114.57 576.355 2097.74 600.308C2091.83 608.72 2079.12 613.251 2072 621C2084.03 620.769 2089.75 611.574 2100 608C2073.69 654.946 2026.73 663.743 1977 658.217C1952.39 655.483 1922.28 645.836 1909.12 622.981C1897.16 602.202 1899.7 575.995 1906.27 554C1910.77 538.923 1918.44 525.451 1928.02 513C1941.21 495.848 1959.12 483.646 1978 473.689C1999.65 462.268 2023.22 453.732 2048 456.824C2080.08 460.826 2082.25 488.542 2103 505C2097.83 460.906 2050.18 446.874 2014 454.345C1961.49 465.187 1916.92 502.255 1900.4 554C1888.26 592.032 1899.69 640.84 1941.99 653.687C1958.88 658.814 1974.92 665.955 1993 665.999C2017.72 666.06 2042.17 664.532 2065 653.984C2101.38 637.18 2118.32 587.752 2115.52 550.078C2114.79 540.376 2115.2 517.113 2105 513M128.5 467.5C127.873 468.127 128.873 469.127 129.5 468.5C130.127 467.873 129.127 466.873 128.5 467.5M475 477C486.145 513.591 475.198 560.101 475.935 598.003C476.132 608.122 472.59 637.096 479.256 644.954C480.829 646.808 484.541 647.191 485.42 644.491C486.662 640.675 483.211 636.144 485.399 632.509C488.967 626.581 510.958 632.99 517 632.999C564.159 633.07 611.989 627.26 659 627.003C663.104 626.98 672.114 625.393 674.042 630.284C675.724 634.548 669.763 653.387 677.709 652.972C682.33 652.731 681 631.754 681 628C683.357 628.935 685.505 629.56 688 630C676.785 604.361 686.053 560.799 688.136 531C688.934 519.586 692.645 502.837 687.264 492.184C681.746 481.257 643.253 477.038 632 477.001C579.24 476.828 527.632 475.055 475 477M1655 473.449C1605.36 478.061 1559.43 481.721 1533.03 532C1524.14 548.929 1526.74 573.762 1529.34 592C1531.43 606.62 1529.98 620.915 1536.77 635C1556.13 675.093 1603.78 691.031 1645 686.774C1686.86 682.45 1734.87 666.288 1749.84 623C1769.29 566.736 1738.85 504.303 1685 483.778C1676.33 480.475 1664.22 472.592 1655 473.449M497 479C542.882 478.907 595.065 472.613 640 482.432C649.216 484.447 672.643 483.345 679.215 489.707C684.619 494.938 682.008 509.162 682 516C681.969 541.424 680.902 568.751 677.831 594C677.159 599.523 677.981 619.169 673.283 622.339C667.601 626.172 653.995 622.75 647 624.218C609.564 632.07 569.145 622.141 530.973 627.416C521.097 628.78 493.224 631.478 484.717 626.283C481.042 624.038 481.389 597.83 484.717 595.15C490.655 590.367 507.358 593.461 515 591.371C540.112 584.504 557.632 561.896 563.338 537C564.896 530.2 581.525 494.263 571.169 490.952C566.874 489.579 560.732 521.479 559.111 526C549.927 551.616 539.003 587.456 506 589.017C501.778 589.216 485.167 592.968 482.832 588.283C478.792 580.176 483.924 561.095 483.997 552C484.098 539.323 484.985 526.634 485 514C485.009 506.507 481.716 489.09 485.717 482.728C488.724 477.947 495.75 486.665 497 479M1635 478.32C1679.36 473.708 1741.09 507.082 1743.8 556C1744.15 562.265 1738.98 574.813 1734.45 579.147C1731.89 581.593 1722.4 583.43 1724.51 588.695C1729.18 600.361 1747.95 573.994 1748.81 574.969C1754.43 581.37 1748.18 599.691 1747.18 607C1740.41 656.675 1684.39 675.059 1641 679.679C1605.04 683.508 1559.63 671.493 1542.58 636C1535.29 620.814 1536.33 603.299 1534.96 587C1533.73 572.398 1531.38 553.793 1537.42 540C1554.83 500.236 1594.44 482.537 1635 478.32M613 486C624.621 509.975 598.841 571.185 639 574.845C651.116 575.949 662.759 571 675 571C670.208 558.905 641.368 574.607 631.238 566.971C618.842 557.626 625 520.771 625 507C625 496.713 625.827 486.55 613 486M489 491C490.68 494.662 493.133 495.438 497 496C495.359 492.128 493.064 491.386 489 491M1233 518C1251.58 516.785 1258.72 497.951 1280 500.177C1290.55 501.281 1300.77 505.841 1310 510.769C1316.97 514.49 1324.26 518.95 1329.05 525.457C1354.35 559.834 1312.29 602.735 1277 605.656C1261.37 606.951 1239.02 594.082 1234.75 579C1232.87 572.337 1235.32 566.622 1236 560C1203.74 586.474 1265.43 618.252 1289 613.522C1299.29 611.457 1308.06 604.519 1316 598.119C1357.23 564.871 1347.16 513.001 1295 497.895C1286.76 495.507 1280.92 491.925 1272 493.084C1241.71 497.019 1210.15 526.408 1207.87 557C1207.22 565.617 1208.13 592.784 1218.99 596.136C1223.92 597.659 1219.15 586.354 1218.66 585C1213.23 569.947 1213.86 554.8 1220.48 540.136C1224.16 531.963 1234.07 527.995 1233 518M95 501C135.141 504.368 177.688 502 218 502C222.824 502 254.997 505.431 254.997 500.236C254.997 496.836 222.201 497 218 497C188.296 497 158.735 496.97 129 497.96C119.258 498.284 102.879 494.2 95 501M1280 498.333C1280.77 498.333 1280.16 498.831 1279.67 498.667L1280 498.333M2015 498.633C1990.1 502.845 1953.21 519.576 1947.07 547C1944.28 559.459 1953.59 573.606 1960.41 583C1976.55 605.251 1994.71 625.505 2025 620.357C2087.28 609.775 2088.88 486.133 2015 498.633M1624 501.519C1576.59 509.526 1544.49 563.249 1569.94 607C1577.45 619.907 1592.83 626.713 1604.96 634.479C1620.33 644.317 1633.85 652.585 1653 649.379C1739.8 634.85 1703.49 488.093 1624 501.519M2064 530C2059.63 543.613 2054.55 561.594 2054 576C2060.26 567.77 2060.07 550.716 2067 545C2067 557.876 2065.52 567.892 2060.99 580C2043.31 627.264 1994.03 622.442 1967.96 587C1959.53 575.537 1948.3 560.176 1952.91 545C1956.63 532.725 1969.62 523.972 1980 517.642C1989.54 511.824 2000.15 507.413 2011 504.727C2023.42 501.654 2038.7 501.61 2048.99 510.196C2055.09 515.285 2055.03 533.065 2064 530M1592 600C1584.23 604.396 1580.34 605.747 1583 615C1571.21 610.323 1568.21 591.065 1567.98 580C1567.32 548.106 1583.85 520.771 1615 510.18C1690.27 484.586 1729.48 605.128 1660 637.959C1635.61 649.484 1577.67 630.511 1592 600M2104 511L2107 509C2104.91 509.406 2104.98 509.217 2104 511M905 593C896.903 586.445 887.314 586.465 881.505 576C877.036 567.95 872.167 553.365 873.338 544C878.331 504.064 957.47 517.513 954.577 559C952.493 588.883 898.828 596.377 895 567C878.689 576.4 897.205 586.018 909 589.98C926.224 595.765 943.802 593.688 955.245 577.993C984.232 538.236 913.491 496.062 880 520.718C860.99 534.713 863.687 559.61 875.317 577.993C880.891 586.805 894.224 597.938 905 593M147 517.479C138.637 518.139 130.341 518.113 122 519.18C117.295 519.781 83.6224 522.048 85.625 526.573C87.928 531.776 105.325 526.603 110 526.093C136.238 523.235 161.585 522.363 188 525.096C196.278 525.952 217.256 531.683 224.469 528.148C232.136 524.391 210.784 522.268 209 522.134C188.626 520.596 167.589 515.853 147 517.479M1274 528.796C1226.2 543.849 1258.66 605.31 1301 591.58C1312.87 587.73 1314.09 577.525 1315.48 566.997C1318.61 543.29 1301.08 520.267 1274 528.796M2001.22 533.26C1991.62 536.334 1980.2 561.873 1985.8 570.594C1992.45 580.941 2009.52 581.43 2020 578.245C2046.41 570.218 2025.25 525.559 2001.22 533.26M1284 580C1274.04 586.14 1262.4 576.812 1268 566C1262.06 566.624 1259.66 571.007 1255 572C1257.6 557.312 1264.02 542.159 1278.3 534.859C1289.5 529.127 1307.39 536.192 1309.68 549.019C1311.36 558.484 1310.48 575.325 1303.19 582.333C1298.15 587.18 1283.44 590.246 1284 580M1620.01 537.449C1597.65 540.448 1591.88 568.736 1600.29 586C1603.34 592.268 1610.55 603.194 1618.76 602.529C1622.37 602.236 1622.97 597.806 1626.45 597.258C1639.92 595.139 1654.49 599.516 1662.58 583.981C1675.22 559.695 1642.08 534.489 1620.01 537.449M394 547C395.776 538.433 386.153 538.167 394 547M2065 538.333C2065.89 538.333 2065.89 539.667 2065 539.667C2064.11 539.667 2064.11 538.333 2065 538.333M2011 550C2004.94 548.914 1999.06 550.433 1993 551C1998.99 521.398 2042.18 552.202 2023.47 570.531C2016.59 577.27 1991.04 564.473 1995.53 556.081C1997.6 552.204 2007.22 551.661 2011 550M1626 541.449C1644.25 539.713 1672.14 566.468 1654.72 583.404C1646.88 591.019 1627.63 595.198 1618.34 587.912C1615.84 585.947 1612.46 574.643 1609.96 574.643C1601.9 574.643 1625.18 596.977 1616.98 598.122C1608.95 599.241 1603.6 584.749 1602.15 579C1598.16 563.231 1608.62 543.102 1626 541.449M2114 541L2113 542L2114 541M120 558.516C104.308 559.488 88.695 558.958 73 559.001C70.0495 559.009 58.9746 558.846 60.7612 564.59C62.9701 571.693 85.6211 566.128 91 566.019C123.145 565.366 154.925 567.971 187 568C194.032 568.006 226.001 574.252 229.456 567.526C231.898 562.771 217.269 563.312 215 562.999C197.939 560.648 181.167 561.33 164 560.981C149.475 560.687 134.508 557.617 120 558.516M1992 559C1995.41 565.837 2002.18 568.777 2006 575C1999.1 574.724 1980.75 566.765 1992 559M1265 579L1262 581L1265 579M1987 760C1984.82 770.555 1992.1 773.344 1986 784C1989.55 784.525 1991.67 782.97 1995 782C1952.88 830.849 1920.58 890.134 1881.84 942C1872.73 954.201 1864.1 966.67 1855.16 979C1852.41 982.807 1846.66 989.47 1852.59 993.251C1857.95 996.67 1865.21 990.255 1870.22 988.468C1885.31 983.077 1901.28 977.658 1917 974.376C1938.87 969.811 1962.67 970.93 1984.97 968.894C2017.88 965.889 2055.89 958.962 2090 965C2087.56 938.326 2058.95 911.925 2057.42 885.019C2056.74 872.994 2082.87 874.322 2081.89 870.985C2078.35 858.802 2054.86 872.466 2047.72 863.859C2022.5 833.461 2016.79 783.491 1987 760M1698 789C1695.25 802.754 1661.14 821.267 1650.92 831.715C1613.87 869.562 1579.95 904.448 1555.99 951.999C1548.13 967.58 1524.56 996.369 1537 1014C1547.94 1005.38 1566.82 1013 1580 1013C1614.65 1013 1647.47 1011.88 1682 1011.21C1690.91 1011.04 1713.01 1018.5 1720.18 1015.02C1724 1013.17 1720.85 1004.94 1720.4 1002C1718.44 989.443 1718.69 976.562 1716.7 964C1709.68 919.552 1709 878.703 1709 834C1709 820.597 1711.65 796.621 1698 789M2043 869C2020.42 866.897 1996.67 865.279 1974 866.04C1962.21 866.436 1950.59 870.531 1939 869C1947.03 857.99 1980.85 829.728 1977 815C1986.32 811.621 1991.13 792.605 1999.23 791.323C2003.74 790.61 2009.12 804.843 2011.27 807.92C2022.5 824.052 2040.71 849.266 2043 869M1267 797.439C1229.4 801.76 1198.1 821.445 1171.02 846.871C1158.36 858.752 1144.77 874.705 1144.05 893C1143.09 917.346 1164.5 945.053 1178 964C1187.9 977.885 1198.08 995.884 1214 1003.67C1229.54 1011.28 1233.06 996.934 1245.12 995.998C1260.76 994.784 1278.18 1001.47 1295 999.679C1363.92 992.346 1394.74 933.974 1382.57 869C1379.7 853.639 1378.04 839.728 1367.52 827.041C1345.4 800.371 1299.52 793.701 1267 797.439M1716 1009C1660.13 1008.77 1599.55 1013.2 1544 1006C1553.68 988.903 1569.61 973.395 1582.58 958.687C1586 954.808 1591.33 944.572 1596.38 943.103C1599.55 942.18 1606.05 949.114 1609 950.526C1621.98 956.734 1634.15 971.409 1650 969.731C1680.22 966.531 1709.59 945.046 1683.05 915.481C1670.48 901.469 1652.38 896.562 1635 892C1651.61 869.486 1667.9 846.911 1684 824C1686.57 835.124 1692.94 817.09 1686 812C1685.21 821.115 1674.2 832.516 1668.91 840C1657.58 856.015 1646.5 876.557 1631.94 889.735C1621.83 898.89 1607.37 901.949 1597.62 913.339C1589.57 922.741 1596.76 931.218 1592.03 939.992C1582.16 958.33 1556.51 985.587 1541 1000C1540.02 984.794 1554.09 966.751 1561.12 954C1584.85 910.909 1616.45 871.845 1651.87 837.823C1663.18 826.965 1675.22 817.035 1687 806.699C1689.39 804.603 1696.95 795.831 1700.75 799.31C1711.34 809.008 1702.87 852.312 1701.43 865C1696.34 909.85 1708.34 964.823 1716 1009M1347 971C1346.69 934.288 1328.64 896.214 1341.54 859C1344.12 851.549 1355.61 829.35 1346.78 824.028C1341.55 820.881 1331.94 823.415 1326 822.714C1302.57 819.951 1276.37 820.957 1253 823.714C1248.83 824.206 1219.53 825.342 1222.64 829.586C1227.64 836.421 1255.14 830.003 1263 830C1281.62 829.993 1300.33 828.993 1319 829C1324.88 829.002 1336.25 826.793 1341.48 829.603C1346.94 832.536 1337.98 840.546 1344 845C1334.43 851.425 1335.82 865.843 1334.24 876C1329.04 909.429 1335.59 941.418 1343 974C1318.84 968.88 1286.69 955.382 1262 966C1279.84 971.488 1301.39 969.359 1320 972.484C1324.08 973.17 1336.52 972.561 1338.24 977.569C1339.66 981.697 1329.59 985.156 1327 986.311C1313.76 992.222 1300.33 994 1286 994C1253.7 994 1221.37 988.739 1198.74 962.68C1193.46 956.599 1193.03 949.361 1189 943C1186.06 960.077 1206.18 976.389 1219.08 984.728C1222.25 986.777 1238.32 990.527 1237.68 995.037C1234.11 1020.01 1199.05 986.514 1194.78 981C1178.99 960.589 1148.02 920.76 1149.95 894C1150.98 879.813 1161.44 867.615 1169.9 857.001C1174.84 850.806 1193.91 828.151 1202.44 829.407C1206.96 830.074 1211.24 849.83 1212.74 854C1221.98 879.673 1227.97 913.703 1228 941C1228 944.539 1228.28 973.246 1233.45 971.239C1237.89 969.516 1234 941.954 1234 937C1233.99 905.619 1225.49 850.34 1205 826C1246.24 797.81 1334.36 784.855 1367.84 833.22C1386.57 860.262 1385.63 912.343 1372.88 941C1368.01 951.928 1358.84 966.939 1347 971M494 819C493.657 802.31 520.041 808.66 534 810.286C576.512 815.236 620.859 816.455 662 829.161C668.758 831.248 700.826 831.971 703.532 837.407C707.074 844.52 692.853 868.516 690.242 876C679.958 905.487 671.44 938.503 675.576 970C676.256 975.183 682.024 1006.7 678.643 1008.54C672.533 1011.85 660.511 1007.8 654 1007.17C631.074 1004.94 608.636 995.914 586 994.093C562.228 992.181 538.696 984.078 515 983.039C507.932 982.729 492.424 985.225 488.063 977.725C484.062 970.845 487 954.864 487 947C487 918.882 488.491 891.783 491.816 864C492.606 857.391 495.591 830.024 486.133 829.427C483.584 829.266 483.777 863.084 482.75 869C476.609 904.357 479.014 943.09 479 979C478.997 985.855 473.216 1011.71 482 1013.51C491.605 1015.47 484.252 991.958 488.017 987.643C490.815 984.435 508.518 987.834 513 988.039C556.591 990.035 601.734 1004.18 645 1011.25C651.708 1012.34 684.505 1020.08 688.918 1014.97C691.123 1012.42 687.021 997.916 687.001 994C686.883 971.449 681.423 952.097 685.804 929C690.251 905.554 695.809 880.194 706.742 859C709.15 854.332 717.952 840.818 712.397 835.988C702.964 827.786 678.018 828.502 666 825.215C623.104 813.484 578.221 807.87 534 805.925C521.833 805.39 500.773 799.476 489.333 803.774C484.753 805.495 490.725 817.849 494 819M94 842C98.1563 826.426 107.401 827.897 122 825.861C124.423 825.523 134.813 823.06 136.026 826.199C141.343 839.958 91.3951 866.441 105 879C106.803 869.928 116.519 861.96 122.242 855C128.41 847.499 135.98 830.477 145.043 826.822C152.824 823.683 163.898 826.607 172 826.967C206.861 828.518 241.167 847.732 276 838C259.873 877.62 243.547 902.591 215.129 937C213.134 939.416 190.494 966.09 199.428 967.677C203.667 968.43 213.606 950.206 216.36 947C233.74 926.767 249.796 896.903 271 881C268.583 900.599 272.531 925.184 278.239 944C280.132 950.242 287.776 971.652 285.268 977.265C282.217 984.093 252.653 982.462 246 982.94C217.351 985.001 189.337 988.595 161 993.121C150.809 994.749 137.216 991.515 129 999C147.633 1002.83 168.757 994.79 187 991.765C209.073 988.106 231.817 989.456 254 986.698C261.194 985.804 288.586 988.657 291.92 980.257C294.043 974.91 288.289 963.571 287.281 958C283.263 935.796 277.72 914.551 275.321 892C273.628 876.09 272.919 856.395 280.856 842C282.032 839.867 292.049 829.863 290.031 828.475C286.112 825.781 279.258 832.316 276 833.897C268.923 837.333 256.795 837.364 249 836.861C207.423 834.179 169.894 818.14 127 821.136C116.248 821.887 79.2452 824.065 94 842M899.438 836.072C861.282 852.294 835.154 882.363 826.449 923C824.235 933.332 819.112 949.294 822.94 959.844C826.749 970.344 836.262 964.095 842.834 967.998C846.478 970.162 845.704 977.966 849.82 978.68C853.158 979.26 856.367 974.32 861.003 974.967C877.395 977.254 905.659 984.306 921.462 978.643C962.797 963.83 980.914 922.546 966.827 882C958.209 857.197 930.558 822.843 899.438 836.072M122 938C143.498 922.819 159.906 886.115 176.325 865C181.866 857.874 192.719 847.583 192 838C181.858 844.87 173.302 860.666 166.267 870.72C152.107 890.955 127.231 913.075 122 938M920 970C922.996 940.755 916.402 907.292 915.25 878C914.931 869.896 925.498 853.586 921.13 847.301C918.937 844.147 915.54 852.258 913 853C912.033 848.229 910.263 845.415 906 843C915.482 877.577 887.944 910.221 868.849 938C864.681 944.065 855.053 966.47 845.939 964.134C822.895 958.228 832.636 929.718 837.555 915C847.922 883.979 881.033 836.169 919 839.177C966.016 842.903 971.421 918.859 950.159 948C943.322 957.371 932.318 969.26 920 970M116 1018C120.572 1011.86 109.239 990.915 107.38 983C99.6162 949.945 97.8545 915.601 93.1396 882C92.3554 876.411 92.8484 844.472 86.6684 843.323C82.8181 842.607 84.857 851.32 85.0217 853C86.1099 864.095 89.025 874.902 89.9624 886C93.7638 931.002 97.2828 976.712 116 1018M914 855L914 857L911 857L911 855L914 855M581 863.795C526.402 877.179 559.555 944.085 608 930.24C648.22 918.745 613.258 855.887 581 863.795M582 872C580.69 875.258 579.41 876.204 576 877C577.456 873.999 578.847 873.048 582 872M595 873L596 878C592.036 877.151 591.486 875.222 595 873M1947 964C1942.95 947.091 1947.27 928.281 1945.86 911C1944.84 898.544 1939.08 886.367 1937 874C1961.1 878.856 1991.26 874 2016 874C2023.53 874 2038.77 871.065 2045.38 874.822C2050.44 877.693 2040.33 902.177 2040.36 908C2040.41 916.3 2047.85 943.245 2043.71 949.197C2039.96 954.602 2025.81 952.339 2020 953.475C1996.69 958.029 1969.15 955.525 1947 964M262 876.333C262.773 876.333 262.16 876.831 261.667 876.667L262 876.333M910 879C920.369 902.479 913.549 942.106 916 968C904.133 965.605 892.809 960.679 881 957.864C879.71 957.557 868.036 954.422 870.323 958.7C874.088 965.743 896.394 960.113 897.677 968.096C899.744 980.955 874.264 969.646 871 965C869.986 969.956 859.888 977.057 858.84 968.734C857.913 961.379 866.889 954.004 869.823 948C880.548 926.055 895.675 898.561 910 879M193 916C190.564 910.416 182.74 910.283 181.068 903.989C179.935 899.725 183.262 895.425 185.926 892.479C205.08 871.303 233.654 901.652 210.997 909.531C203.959 911.979 196.901 904.164 189 906C202.911 921.245 240.276 915.146 225.616 890.398C214.87 872.256 183.724 877.985 175.761 895.078C170.449 906.479 183.104 915.887 193 916M589 882C587.457 883.267 586.953 883.489 585 884L585 881L589 882M573 883C578.089 884.343 574.343 888.088 573 883M596.989 883.891C605.232 881.086 598.414 893.78 593.972 894.894C587.332 896.56 593.099 885.215 596.989 883.891M1866 979C1882.19 955.821 1902.39 934.161 1915.54 909C1919.35 901.702 1929.52 893.854 1927 885C1936.64 884.156 1935.06 895.08 1937.16 902C1940.74 913.8 1942.42 951.561 1936.2 962.499C1933.15 967.86 1920.16 964.238 1915.06 965.052C1898.82 967.643 1883.39 978.643 1866 979M2083 960C2070.96 959.28 2059.08 959 2047 959C2058.99 941.333 2037.6 908.779 2051.53 890.929C2054.86 886.657 2059.89 902.972 2060.66 905C2067.59 923.355 2076.74 941.564 2083 960M583 890C582.518 892.364 582.364 892.518 580 893C580.899 890.876 580.876 890.899 583 890M569 891C565.441 899.581 557.365 895.219 569 891M586 899C584.392 897.55 583.936 896.949 583 895C585.698 895.578 585.789 896.261 586 899M1626 954C1629.44 954.813 1649.84 951.309 1641 945.642C1640.76 945.49 1630.1 951.635 1626.28 950.716C1614.76 947.938 1637.56 928.426 1640 926C1629.51 927.862 1616.6 937.571 1617 949C1612.16 947.806 1600.52 944.131 1600.18 937.853C1599.83 931.233 1626.69 901.765 1633 898.725C1652.74 889.219 1695.78 920.83 1687.18 943.864C1681.39 959.376 1633.19 973.408 1626 954M615 899.333C615.889 899.333 615.889 900.667 615 900.667C614.111 900.667 614.111 899.333 615 899.333M563 904C559.924 904.305 559.165 903.864 558 901C560.229 901.757 561.28 902.392 563 904M1622 901C1619.13 910.641 1607.43 926.222 1598 930C1599.48 917.503 1611.26 906.481 1622 901M603 905.333C603.889 905.333 603.889 906.667 603 906.667C602.111 906.667 602.111 905.333 603 905.333M593 913L592 914L590 911L593 913M618 917C617.446 914.934 617.149 913.134 617 911C620.638 912.217 621.212 914.707 618 917M576 915L577 919C574.904 917.606 574.668 917.148 576 915M606 916C605.227 917.175 605.176 917.227 604 918C604.545 916.365 604.365 916.545 606 916M581 927C577.447 922.65 581.813 921.265 581 927M261 923C257.463 935.153 232.425 957.572 243 969C247.867 958.773 280.797 927.537 261 923M836 965C832.09 964.107 830.427 962.758 829 959C832.517 960.274 834.158 961.748 836 965M439 964L440 965L439 964M919 986L919 989L921 989L921 986L919 986M550 1185C536.372 1179.37 527.77 1164.22 514 1160C517.871 1171.02 530.191 1179.28 539 1186.32C540.895 1187.84 548.679 1192.78 546.559 1196.04C546.489 1196.15 521.719 1186.58 517 1186.46C500.106 1186.06 474.876 1200.23 464.543 1213.08C447.663 1234.07 459.599 1275.46 485.019 1284.68C500.586 1290.32 539.068 1281.14 553 1273C556.764 1295.2 563.15 1316.3 564.861 1339C566.057 1354.87 562.641 1379.37 568.94 1393.92C571.541 1399.93 609.765 1398.6 613.108 1392.23C617.552 1383.76 578.5 1395.11 576.158 1387.13C574.952 1383.02 571.217 1367.45 574.958 1364.34C580.269 1359.92 602.323 1364.74 604.894 1357.41C606.562 1352.66 574.837 1356.49 571 1357C576.722 1330.33 576.855 1279.71 569 1254C592.8 1262.46 612.718 1277.51 640 1270.91C678.57 1261.59 677.217 1210.43 650.922 1187.32C631.775 1170.48 600.077 1175.01 580 1187.54C575.018 1190.65 566.158 1204.48 560.682 1204.48C551.109 1204.48 559.062 1178.82 561.209 1175.14C570.915 1158.48 591.263 1154.22 608 1149C603.171 1141.41 596.087 1146 589 1147.17C571.096 1150.14 553.485 1167.04 550 1185M1849 1242C1850.41 1253.03 1862.1 1260.45 1869.78 1267.37C1886.69 1282.58 1904.43 1296.38 1922.32 1310.38C1928.75 1315.41 1939.8 1318.86 1944.03 1326.15C1946.71 1330.74 1943.32 1337.28 1942.35 1342C1938.01 1363.18 1932.18 1369.26 1915 1382.77C1912.17 1385 1895.86 1396.69 1899.11 1400.94C1903.79 1407.08 1916.81 1391.57 1920 1388.88C1926.57 1383.33 1941.66 1379.16 1945.74 1374.92C1951.89 1368.53 1960.19 1346.83 1974.08 1348.52C1990.07 1350.47 2007.03 1377.41 2018.14 1387.6C2021.75 1390.92 2029.52 1400.4 2035.43 1397.94C2038.49 1396.66 2032.43 1382.02 2031.62 1379C2027.6 1363.89 2022.13 1349.22 2018.49 1334C2017.32 1329.14 2013.07 1322.06 2016.69 1317.56C2022.1 1310.81 2031.28 1310.89 2038 1306.48C2060.87 1291.48 2093.74 1272.37 2121 1269.18C2136.26 1267.4 2152.79 1274.6 2167 1271C2157.78 1260.32 2143.44 1263.31 2131 1260.38C2108.45 1255.07 2084.17 1251.79 2061 1251.21C2045.34 1250.82 2023.98 1253.62 2009.02 1249.04C1999.64 1246.17 2001.39 1236.69 2000.91 1229C1999.93 1213.07 1995.72 1197.22 1996.22 1181C1996.39 1175.42 2003.13 1160.6 1993.87 1158.83C1982.57 1156.66 1984.8 1171.12 1982.24 1178C1975.67 1195.67 1975.58 1215.66 1967.85 1233C1966.33 1236.4 1966.17 1244.45 1963.36 1246.62C1958.13 1250.65 1939.54 1247.36 1933 1246.78C1905.88 1244.37 1875.5 1247.69 1849 1242M1252 1189C1254.83 1190.64 1256.78 1192.58 1259 1195C1259.64 1189.67 1246.26 1175.76 1244.13 1183.3C1241.9 1191.23 1251.82 1208.24 1255.56 1215C1258.89 1221 1272.82 1251.36 1279.84 1251.36C1283.14 1251.36 1286.42 1243.38 1288.1 1241.08C1295.55 1230.91 1303.29 1221.18 1311.98 1212C1321.47 1201.97 1330.74 1191.59 1341 1182.32C1343.36 1180.18 1350.6 1174.88 1347.71 1170.89C1344.86 1166.95 1321.97 1192.02 1319 1195C1309.45 1204.56 1299.67 1214.54 1291.28 1225.14C1288.54 1228.61 1283.78 1237.22 1279.02 1237.92C1275.44 1238.45 1271.94 1229.46 1270.49 1227C1263.63 1215.4 1253.91 1202.69 1252 1189M851 1177C853.569 1198.72 883.846 1229.22 897.556 1246C901.968 1251.4 912.351 1262.81 919.959 1257.47C938.215 1244.67 950.893 1216.66 964.259 1199C966.797 1195.65 979.659 1182.66 972.516 1178.67C966.835 1175.49 958.827 1190.39 956.197 1194C946.656 1207.11 936.567 1220.58 927.709 1234.14C924.991 1238.3 920.543 1248.56 915.544 1250.18C910.834 1251.7 904.405 1241.94 902.003 1239C890.434 1224.84 881.661 1208.19 869 1195C872.788 1195.48 875.6 1197.33 879 1199C873.982 1189.67 861.21 1179.54 851 1177M607 1264L609 1261C584.409 1258.93 589.346 1248.97 602 1232C595.712 1235 585.101 1252.36 579.908 1252.36C573.167 1252.36 563.433 1220.67 564.8 1215.92C573.552 1185.51 624.702 1172.59 647.559 1192.52C681.428 1222.04 652.749 1286.26 607 1264M1714.99 1184.17C1708.09 1185.71 1701.35 1194.55 1696 1198.9C1682.95 1209.52 1668.61 1218.03 1655.14 1227.91C1650.03 1231.66 1644.34 1240.1 1637.86 1241.44C1627.91 1243.5 1623.83 1197.44 1613.7 1202.54C1609.46 1204.68 1612.63 1212.08 1613.89 1215C1616.54 1221.12 1627.88 1255.01 1635.16 1254.21C1641.59 1253.51 1648.89 1242.17 1654.04 1238.36C1671.02 1225.8 1688.4 1213.59 1705 1200.55C1708.64 1197.69 1716.24 1196.33 1718.81 1193.37C1721.99 1189.71 1720.92 1182.85 1714.99 1184.17M1971 1248C1974.29 1232.43 1978.25 1216.68 1982.46 1201.32C1983.03 1199.23 1983.46 1186.8 1985.88 1187.32C1990.12 1188.24 1987.19 1200.36 1986.71 1203C1984.75 1213.69 1982.21 1243.73 1971 1248M483 1266C473.683 1270.85 488.999 1278.69 494 1280C488.427 1286.33 479.023 1276.35 475.303 1272C465.278 1260.26 461.713 1243.13 465.467 1228C471.037 1205.55 507.964 1184.79 530 1194.02C548.145 1201.61 559.181 1230.38 556.602 1248.98C553.408 1272.02 528.13 1275.11 509 1276.08C499.303 1276.57 487.017 1277.03 483 1266M621 1234C620.843 1231.59 620.52 1229.36 620 1227C638.803 1225.67 632.109 1206.06 617.001 1205.12C608.912 1204.62 595.082 1215.27 600.177 1224C604.624 1231.62 613.258 1232.01 621 1234M624 1217C619.484 1217.13 617.042 1216.42 614 1213C618.789 1211.12 622.042 1212.1 624 1217M509.001 1220.27C492.475 1224.91 499.34 1251.77 516 1247.42C540.529 1241.02 528.408 1214.82 509.001 1220.27M608 1224C605.316 1222.69 604.176 1221.75 603 1219C606.259 1219.81 607.186 1220.74 608 1224M1992 1220C1992.59 1224.77 1998.48 1253.54 1986.3 1248.91C1979.51 1246.34 1988.21 1224.68 1990 1220L1992 1220M508 1231C514.878 1232.26 508.678 1237.28 506 1240C493.858 1213.75 530.933 1229.49 523.413 1234.25C518.833 1237.15 514.838 1222.7 508 1231M522 1241L517 1241C518.298 1236.98 520.34 1237.44 522 1241M866 1283C862.582 1270.16 868.37 1264.93 872.2 1253.88C873.522 1250.07 872.021 1236 864.818 1240.52C855.264 1246.53 852.487 1279.96 866 1283M173 1240.62C148.11 1242.61 126.287 1275.69 142.872 1297.68C154.376 1312.93 181.376 1315.51 198.997 1313.89C212.37 1312.67 214.934 1295.48 213.398 1285C210.456 1264.91 197.234 1238.68 173 1240.62M515 1240C515.986 1241.48 516 1241.2 516 1243L513 1243L515 1240M1669 1269C1671.31 1271.03 1673.14 1272.84 1676 1274C1675.14 1270.43 1669.71 1247.58 1664.56 1250.32C1660.87 1252.29 1662.99 1261.62 1663 1265C1663.03 1279.36 1660.31 1293.61 1660.02 1308C1659.95 1311.13 1658.04 1325.76 1661.51 1326.89C1667.76 1328.93 1666 1310.06 1666.32 1307C1666.84 1302 1666.88 1296.99 1667.44 1292C1668.29 1284.43 1668.97 1276.62 1669 1269M1857 1248C1882.17 1250.34 1907.73 1250.64 1933 1251.92C1940.27 1252.29 1954.91 1249.51 1961.13 1253.82C1963.87 1255.72 1959.71 1265.06 1959.33 1268C1957.72 1280.52 1952.9 1294.49 1950.02 1307C1949.45 1309.5 1949.25 1317.96 1946.37 1318.83C1940.47 1320.62 1927.55 1308.24 1923 1305.01C1901.74 1289.92 1869.5 1271.62 1857 1248M868 1249L867 1250L868 1249M195 1256L191 1257L193 1262L188 1261C186.814 1266.08 183.681 1268.1 179 1270C180.53 1261.68 189.225 1259.01 188 1251C191.521 1251.81 193.038 1252.97 195 1256M1974 1252C1973.1 1257.86 1971.96 1264.62 1966 1267C1967.17 1261.81 1969.52 1255.04 1974 1252M1621.77 1254.54C1618.61 1256.26 1620.04 1265.96 1620.01 1269.02C1619.86 1283.69 1618 1298.31 1618 1313C1618 1315.28 1616.73 1329.92 1621.9 1327.46C1625.9 1325.55 1624.81 1315.61 1624.52 1312C1623.26 1296.19 1625.69 1280.69 1627.35 1265C1627.61 1262.6 1626.68 1251.87 1621.77 1254.54M2114 1261C2111.3 1267.56 2093.58 1270.61 2087 1273.51C2061.44 1284.78 2037.76 1301.69 2012 1312C2012 1299.44 2009.75 1285.39 2007.58 1273C2006.76 1268.26 2002.5 1260.14 2005.36 1255.51C2008.38 1250.62 2025.78 1255.97 2031 1256C2058.72 1256.15 2086.3 1260.02 2114 1261M955.539 1256.37C950.236 1259.25 939.193 1287.97 950.624 1284.03C957.971 1281.5 965.114 1251.16 955.539 1256.37M171 1260C170.14 1263.08 169.092 1263.52 166 1263C167.661 1261.64 169.024 1260.85 171 1260M202 1262C199.019 1267.2 194.607 1269.62 194 1276C185.535 1270.96 195.11 1262.06 202 1262M1237 1262C1234.48 1268.17 1234.89 1273.48 1235 1280C1240.53 1276.03 1242.66 1266.5 1237 1262M1308 1283C1329.7 1263.1 1297.89 1258.91 1308 1283M160 1267L159 1268L160 1267M565 1285L562 1285C559.719 1267.54 564.976 1268.74 565 1285M1990 1274C1989.06 1276.51 1988.51 1277.06 1986 1278C1986.85 1275.47 1987.51 1274.97 1990 1274M195 1279.33C195.773 1279.33 195.16 1279.83 194.667 1279.67L195 1279.33M196 1286C193.727 1289.62 191.375 1292.53 187 1293C189.531 1289.25 191.375 1286.66 196 1286M207 1291L206 1292L207 1291M207 1293C206.582 1303.01 200.682 1306.79 205 1293L207 1293M200 1297C198.418 1299.09 197.894 1298.73 196 1297L200 1297M163 1302C160.636 1301.52 160.482 1301.36 160 1299C162.124 1299.9 162.101 1299.88 163 1302M2008 1314C2003.32 1311.77 1999.74 1305.35 1997 1301C2006.6 1301.15 2006.01 1306.08 2008 1314M194 1303C192.28 1304.61 191.228 1305.24 189 1306C190.536 1304.01 191.536 1303.59 194 1303M190 1307C189.422 1309.7 188.739 1309.79 186 1310C187.273 1308.25 187.974 1307.82 190 1307M1994 1309C1992.49 1309.68 1991.69 1309.83 1990 1310C1991.51 1309.32 1992.31 1309.17 1994 1309M869 1320C862.924 1329.07 852.099 1343.23 853.602 1355C858.547 1393.72 924.03 1394.07 947.94 1378.56C963.659 1368.37 962.851 1336.77 945.995 1327.76C938.315 1323.66 929.209 1321.36 921 1318.5C908.064 1314.01 893.292 1316.48 880 1317.02C875.86 1317.18 872.365 1321.38 869 1320M568 1319L568 1322C567.304 1320.45 567.304 1320.55 568 1319M1966 1322C1976.92 1326.46 1958.18 1338.97 1966 1322M888 1381L888 1379C889.309 1378.96 896.776 1378.93 895.357 1375.92C893.678 1372.35 873.473 1371.73 868.505 1367.28C846.578 1347.65 876.465 1323.45 896 1323.43C909.952 1323.42 929.162 1323.47 940.938 1331.85C952.576 1340.14 953.459 1361.86 942.617 1371.25C927.924 1383.96 905.782 1382.06 888 1381M2026 1383C2013.93 1379.77 2003.03 1361.83 1993 1354.04C1990.08 1351.77 1981.91 1348.21 1981.32 1344.17C1980.55 1338.87 2002.48 1322.15 2007.29 1324.5C2011.52 1326.57 2011.78 1336.01 2012.46 1340C2015.06 1355.18 2021.65 1368.41 2026 1383M1215 1336C1211.78 1345.29 1215.06 1375.09 1229 1374.56C1237.33 1374.25 1243.53 1362.18 1251.5 1362.5C1253.75 1362.59 1258.21 1375.85 1262.1 1378.11C1279.38 1388.16 1310.32 1374.69 1309.69 1353.03C1309.6 1349.79 1305.71 1345.12 1303.27 1349.51C1298 1359.02 1269.9 1393.18 1260.69 1364.98C1259.14 1360.25 1267.78 1332.64 1261.68 1332.64C1255.99 1332.64 1255.21 1342.29 1253.61 1345.98C1250.81 1352.42 1235.89 1367.85 1228.19 1367.14C1218.25 1366.22 1221.81 1341.67 1215 1336M1955.5 1335.42C1969.28 1332.22 1965.61 1349.74 1953.71 1351.82C1947.67 1352.87 1952.22 1336.19 1955.5 1335.42M1577 1379C1578.26 1383.71 1580.59 1386.01 1585 1388C1585.47 1378.74 1616.03 1379.02 1624 1379C1641.55 1378.96 1677.03 1386.49 1692.58 1379.18C1699.24 1376.05 1704.78 1364.34 1710.02 1359C1713.99 1354.95 1728 1345.25 1728 1339.22C1727.99 1333.97 1706.13 1354.87 1704.02 1356.92C1699.51 1361.28 1694.28 1371.96 1688.86 1374.3C1679.59 1378.31 1662.1 1373.06 1652 1373C1626.61 1372.86 1602.13 1377.88 1577 1379M880 1441L882 1444L882 1441L880 1441M1568 1729C1570.6 1729.82 1579.26 1734.31 1581.13 1731.13C1583.93 1726.39 1576.7 1712.59 1576.1 1707C1573.22 1680.11 1562.05 1651.72 1562 1625C1576.8 1639.42 1584.4 1662.08 1596.93 1678.56C1599.33 1681.73 1606.06 1694.71 1611.41 1691.6C1615.41 1689.28 1613.71 1680.93 1615.61 1677C1619.02 1669.94 1641.6 1638.26 1649.11 1637.2C1652.81 1636.67 1657.19 1646.47 1658.91 1649C1664.31 1656.92 1679.29 1685.07 1689.93 1684.89C1697.52 1684.77 1711.36 1653.62 1718 1648C1718.56 1669.27 1717.14 1689.88 1715.22 1711C1714.42 1719.71 1715.78 1730.57 1709.54 1737.74C1701.11 1747.43 1685.43 1745.73 1674 1744.44C1644.99 1741.17 1613.81 1737.1 1588 1723C1586.51 1734.87 1609.16 1739.77 1618 1741.22C1646.31 1745.86 1691.24 1765.39 1716.8 1743.96C1723.8 1738.09 1721.27 1728.95 1722.36 1721C1725.33 1699.42 1725.62 1678.64 1727.14 1657C1728.26 1640.95 1741.71 1635.65 1743.76 1622C1747.15 1599.47 1725.66 1591.22 1720.76 1573.76C1719.65 1569.81 1733.46 1560.33 1734.51 1554C1739.75 1522.52 1713.58 1527.18 1697.5 1512.26C1685.2 1500.85 1687.45 1482.13 1664 1482C1668.38 1485.41 1673.51 1487.62 1678 1490.88C1680.96 1493.03 1696.17 1507.43 1685.79 1509.82C1678.37 1511.53 1663.87 1504.47 1656 1503.38C1651.86 1502.8 1644.14 1505.95 1640.97 1502.22C1637.79 1498.48 1645.43 1493.48 1648 1492C1638.24 1490.43 1634.3 1502.6 1626 1506C1627.79 1496.41 1630.27 1489.94 1636 1482C1620.58 1484 1627.66 1500.95 1617.85 1506.02C1599.67 1515.41 1580.25 1516.71 1572.79 1540C1570.35 1547.61 1576.18 1561.86 1572.77 1567.34C1564.5 1580.66 1543.93 1580.46 1545.53 1602C1546.11 1609.79 1553.36 1613.96 1555.16 1621C1557.56 1630.39 1555.72 1641.36 1557.42 1651C1561.32 1673.22 1576.67 1706.82 1568 1729M1685 1513C1672.29 1543.81 1620.41 1503.45 1655 1507.9C1659.03 1508.42 1662.97 1509.43 1667 1509.9C1673.08 1510.61 1678.9 1512.58 1685 1513M1637 1521C1618.11 1512.54 1640.26 1500.07 1637 1521M1617.94 1510.65C1623.43 1510.96 1624.6 1518.17 1629.06 1520.63C1635.52 1524.2 1648.6 1527.19 1656 1529.25C1672.02 1533.7 1685.27 1514 1698 1517.43C1706.79 1519.79 1719.4 1523.92 1725.33 1531.16C1735.26 1543.31 1729.07 1562.91 1713.86 1567.13C1705.76 1569.38 1686.81 1557.45 1677 1556.26C1652.21 1553.24 1628.52 1557.84 1604 1560.04C1597.74 1560.6 1587.04 1566.92 1581.32 1565C1574 1562.54 1575.2 1546.56 1577.07 1541C1581.86 1526.72 1602.11 1509.73 1617.94 1510.65M887 1756C890.493 1758.02 892.269 1761.71 895.601 1763.71C904.43 1769.02 899.01 1744.27 894.785 1744.79C875.937 1747.06 875.354 1778.91 893 1785.05C925.798 1796.47 922.843 1745.68 902.992 1733.27C885.187 1722.13 857.44 1741 852.588 1759C849.914 1768.92 859.33 1787.38 865.408 1794.96C892.38 1828.57 976.13 1797.97 962.522 1752C956.696 1732.32 945.336 1706.76 923 1706.35C908.797 1706.1 894.41 1710 880 1710C876.666 1710 867.547 1711.55 866.006 1707.5C863.885 1701.92 871.817 1687.98 874.275 1683C878.619 1674.19 879.383 1655.46 889.011 1651.47C902.134 1646.03 921.855 1648.87 936 1647.32C940.05 1646.88 948.881 1648.68 951.74 1645.18C954.808 1641.42 953.033 1631.7 953.562 1627C955.613 1608.77 955.284 1590.24 957.177 1572C957.916 1564.87 962.231 1554.95 955 1550C959.984 1540.42 985.747 1508.11 998 1526C980.68 1524.22 967.083 1547.28 970.096 1563C974.833 1587.71 1019.16 1609.94 1038.73 1589.82C1077.98 1549.45 1004.03 1497.11 966.001 1521.08C938.888 1538.17 952.237 1585.96 949.32 1614C948.673 1620.22 950.764 1632.04 946.741 1637.22C934.71 1652.69 891.472 1634.01 879.034 1650.36C870.871 1661.1 866.454 1683.95 862.222 1697C860.859 1701.2 857.6 1708.12 859.84 1712.5C863.046 1718.76 891.638 1715.58 898 1715.04C907.771 1714.21 921.366 1708.6 930.952 1712.58C943.429 1717.76 957.286 1750.04 956.591 1763C954.859 1795.28 906.649 1812.24 881.001 1799.38C870.021 1793.87 861.955 1777.5 859.178 1766C853.794 1743.7 894.492 1724.19 907.129 1747C924.525 1778.41 885.661 1793.81 887 1756M1006 1525C1032.93 1528.71 1057.59 1560.64 1031.94 1583.63C1011.52 1601.92 964.029 1576.86 979.089 1549C985.698 1536.77 1002.06 1522.69 1013.15 1539.1C1016.55 1544.14 1020.24 1557.89 1011.02 1559.89C1005.88 1561.01 1003.04 1553.25 998.029 1552.79C992.937 1552.32 991.566 1558.24 993.135 1561.99C998.441 1574.69 1020.84 1571.45 1022.74 1558C1025.04 1541.66 1011.36 1536.84 1006 1525M87 1565C88.7888 1562.17 91.0092 1544.4 85.4148 1549.89C78.8184 1556.36 84.7831 1571.05 94 1569C89.3825 1574.96 80.7325 1585.87 89 1593C92.2646 1578.41 106.898 1562.98 120 1556C114.193 1573.03 90.238 1585.75 88 1603C107.229 1596.38 115.32 1569.62 131.361 1557.66C133.188 1556.3 148.621 1547.11 149.847 1548.41C152.586 1551.33 137.816 1563.82 135 1565C137.04 1561.71 138.918 1558.73 140 1555C132.423 1560.68 126.735 1568.57 120.978 1576.02C117.516 1580.5 114.613 1585.18 111.658 1590C110.68 1591.59 93.8194 1615.2 103.871 1612.81C108.452 1611.72 111.762 1602.82 114.379 1599.32C123.049 1587.71 154.687 1541.21 165 1560C152.891 1556.32 149.67 1568.08 142.672 1576C127.971 1592.63 113.451 1617.87 95 1630C96.9633 1626.22 98.4792 1623.31 98 1619C93.6409 1622.73 92.606 1627.47 86 1626C86.7943 1630.06 90.0184 1631.91 94 1632C91.8418 1633.61 90.6969 1633.94 88 1634C88.1695 1638.76 88.9321 1640.79 94 1640C94.0228 1673.55 100.743 1706.93 102.019 1741C102.371 1750.42 100.487 1771.6 110 1777C110.901 1769.52 109.988 1761.45 109 1754C128.005 1757.36 152.9 1756.27 172 1753.64C175.557 1753.15 189.571 1752.86 190.961 1749.3C192.724 1744.78 186.98 1734.7 185.909 1730C181.79 1711.92 177.273 1694.35 174.642 1676C174.189 1672.84 172.854 1654.99 169.705 1654.54C163.671 1653.7 167.394 1672.09 168 1675C171.597 1692.28 174.002 1709.95 178.881 1727C179.887 1730.51 185.265 1742.94 183.603 1745.84C181.345 1749.77 171.882 1749.27 168 1749.68C151.993 1751.37 135.094 1752.64 119 1751.96C107.97 1751.48 108.016 1742.99 107.217 1734C105.434 1713.94 102.096 1693.16 102 1673C101.975 1667.68 97.9019 1654.82 101.058 1650.54C103.155 1647.7 121.458 1647.81 126 1647L123 1654C125.885 1655.23 127.265 1656.39 129 1659C152.394 1643.98 183.3 1652.37 209.992 1647.21C217.105 1645.84 234.636 1639.57 241.203 1645.26C245.003 1648.55 241.517 1666.11 241.257 1671C240.771 1680.13 233.247 1692.28 233.602 1699.57C233.903 1705.75 242.908 1701.83 240.361 1714C239.189 1719.6 228.21 1730.51 231.452 1736.17C235.015 1742.4 240.377 1732.31 242 1730C243.275 1736.58 231.987 1749.08 232.065 1749.17C235.304 1752.6 249.547 1748.62 254 1748.22C272.705 1746.51 291.144 1742.61 309 1737.1C313.824 1735.61 324.061 1734.96 327.042 1730.63C330.163 1726.11 328 1715.36 328 1710C328 1689.27 325.637 1670.81 322.388 1652C318.544 1629.75 329.325 1596.02 321.561 1576.03C318.928 1569.25 311.102 1569.16 305 1568.44C288.512 1566.49 264.839 1562.1 249 1567C248.864 1563.55 241.709 1540.74 235.62 1550.83C233.963 1553.58 232.274 1569.12 231.096 1573.28C230.393 1575.76 235.549 1579.03 235.97 1582.05C237.492 1592.97 246.886 1625.34 240.906 1634.72C235.285 1643.53 197.985 1640.56 188 1641.08C184.208 1641.27 175.945 1644.37 172.965 1641.14C169.169 1637.02 172.655 1622.26 172.922 1617C173.884 1598.02 170.566 1559.38 197 1562C192.902 1553.57 174.039 1551.5 166 1546C167.933 1545.06 173.731 1540.53 168.583 1539.08C163.781 1537.74 159.875 1544.51 155.048 1544.54C145.661 1544.62 138.381 1541.28 127 1543.59C110.466 1546.96 101.405 1560.66 87 1565M586 1665C588.927 1659.14 580.318 1654.57 581.649 1653.79C596.508 1645.09 632.071 1651 649 1651C654.87 1651 669.852 1654.26 671.642 1646.93C684.316 1595 635.017 1535.84 581 1543.02C539.345 1548.55 495.738 1597.45 480.62 1635C465.988 1671.35 481.113 1714.31 513.008 1736.35C523.108 1743.33 537.514 1745.5 549 1749.39C570.283 1756.58 592.295 1765 611.981 1748.62C624.998 1737.79 620.678 1722.74 624.14 1708C625.336 1702.91 629.61 1697.37 627.396 1692.01C624.424 1684.82 616.256 1688.76 613.304 1684.14C611.351 1681.07 619.71 1673.55 619.127 1669.01C617.149 1653.59 594.268 1661.73 586 1665M135 1547C133.007 1551.77 130.022 1554.65 125 1556C126.574 1550.69 129.243 1547.27 135 1547M618 1691C616.919 1704.04 617.983 1729.39 608.482 1739.29C582.162 1766.73 515.38 1740.75 497.178 1714C465.588 1667.58 489.938 1624.27 522.42 1587C540.461 1566.3 567.774 1544.96 597 1548.33C632.932 1552.47 662.244 1581.44 664.017 1618C664.317 1624.19 666.228 1634.86 663.178 1640.5C660.512 1645.43 646.814 1642.82 642 1643.32C621.482 1645.45 597.956 1641.6 578 1646.86C572.095 1648.42 561.023 1650.32 559.27 1657.05C556.481 1667.76 566.205 1673.75 573.767 1678.65C589.695 1688.97 597.282 1695.53 618 1691M115 1552C112.265 1558.7 104.783 1565.51 98 1568C100.713 1560.6 107.545 1554.37 115 1552M1371 1653C1358.4 1673.11 1343.72 1691.63 1332.25 1713C1328.8 1719.44 1321.56 1737.19 1315.52 1740.72C1310.28 1743.79 1292.06 1740.92 1285 1741.83C1279.1 1742.59 1267.51 1747.97 1262.13 1746.3C1257.78 1744.95 1256.43 1738.65 1254.83 1735C1250.82 1725.87 1236.24 1701.59 1238.03 1691.96C1239.49 1684.07 1252.1 1678.93 1254.32 1669.86C1260.96 1642.7 1240.39 1604.09 1215 1593.54C1178.88 1578.55 1116.97 1597.67 1124.96 1646C1128.76 1668.98 1154.84 1688.45 1171.04 1702.6C1180.78 1711.1 1197.15 1717.87 1210 1712.86C1215.58 1710.68 1229.08 1695.7 1232.91 1702.14C1238.95 1712.3 1253.08 1740.48 1253.11 1751.86C1253.12 1759.15 1240.67 1765.19 1237.5 1771.4C1231.43 1783.28 1245.89 1817.51 1260 1818C1258.18 1812.85 1255.47 1808.55 1255 1803C1259.01 1804.1 1262.83 1804.85 1267 1805C1265.94 1800.03 1254.62 1801.39 1255.75 1795.97C1259.8 1776.59 1295.23 1751.6 1306.14 1779C1314.86 1800.9 1297.97 1787.23 1289 1786.08C1283.26 1785.35 1272.06 1790.43 1275.72 1798C1284.03 1815.14 1318 1805.19 1315.92 1786C1313.1 1760.14 1278.2 1756.6 1262.03 1771.22C1257.51 1775.31 1252.08 1789.33 1247.78 1791.33C1244.98 1792.64 1243.1 1786.9 1242.86 1785C1239.7 1760.15 1288.24 1737.01 1309 1744.33C1316.68 1747.04 1305.4 1758.1 1318 1759C1317.76 1754.19 1320.26 1751.83 1324.01 1756.18C1342.77 1777.94 1325.9 1799.86 1313 1818C1338.89 1817.98 1344.06 1782.41 1336.04 1763C1333.73 1757.42 1324.98 1751.62 1324.99 1745.56C1325 1735.54 1337.92 1718.5 1343.08 1710C1350.56 1697.68 1364.45 1663.49 1377.55 1657.5C1381.79 1655.57 1391.06 1664.01 1395.01 1665.83C1404.02 1670 1415.69 1670.2 1425 1666.86C1466.23 1652.06 1457.85 1582.01 1426.86 1562.36C1397.65 1543.84 1343.88 1556.1 1330.7 1589C1318.93 1618.38 1339.34 1653 1371 1653M1978 1555.46C1908.93 1564.8 1854.92 1653.84 1901.64 1714.99C1913.82 1730.93 1934.25 1736.74 1952 1743.42C1965.68 1748.56 1983.12 1753.52 1998 1751.66C2041.21 1746.28 2058.16 1719.23 2075.1 1683C2085.95 1659.79 2094.79 1640.58 2084.9 1615C2074.9 1589.13 2048.29 1577.91 2025 1566.94C2010.16 1559.95 1994.88 1553.17 1978 1555.46M179 1557C173.859 1566.84 168.116 1579.77 156 1582L160 1574C150.568 1578.55 155.041 1582.24 151.504 1588.31C145.675 1598.32 132.939 1608.19 125.543 1618.08C124.001 1620.14 113.35 1633.44 120.17 1634.21C132.374 1635.61 145.987 1598.98 158 1594C155.645 1605.36 139.639 1637.23 128.997 1641.82C121.955 1644.85 108.878 1641.72 101 1642C108.977 1619.67 140.527 1579.16 161 1567L160 1572C168.206 1568.94 169.703 1559.02 179 1557M1002 1558.33C1002.89 1558.33 1002.89 1559.67 1002 1559.67C1001.11 1559.67 1001.11 1558.33 1002 1558.33M1394 1647C1388.08 1640.26 1375.66 1642.25 1372.92 1636.92C1364.8 1621.1 1363.53 1591.43 1386.26 1585.42C1403.32 1580.92 1415.06 1597.97 1410 1613C1403.14 1608.01 1395.78 1597.28 1386.02 1598.39C1367.6 1600.48 1380.55 1629.83 1396.14 1629.06C1434.18 1627.2 1416.81 1577.89 1385 1579.24C1366.31 1580.03 1352.96 1608.14 1359.28 1624C1361.26 1628.95 1371.35 1641.75 1370.06 1646.5C1368.74 1651.37 1357.86 1648.23 1355 1646.91C1333.77 1637.11 1331.31 1599.66 1343.07 1582C1356.42 1561.94 1396.15 1551.79 1418 1561.94C1459.29 1581.12 1456.98 1645.31 1415 1662.47C1402.43 1667.61 1372.24 1652.21 1394 1647M1640 1560.32C1654.42 1558.9 1674.75 1560.58 1689 1563.48C1691.7 1564.02 1709.12 1570.28 1701.69 1573.74C1684.25 1581.87 1652.2 1581.41 1634 1576.57C1629.77 1575.44 1614 1570.87 1614 1565.17C1614 1561.93 1636.71 1560.65 1640 1560.32M1974 1560.41C2014.19 1553.71 2076.04 1589.86 2084.4 1630C2087.89 1646.74 2078.51 1665.54 2071 1680C2055.38 1710.08 2044 1735.89 2007 1742.67C1978.41 1747.91 1923.47 1735.79 1905.75 1711C1865.36 1654.5 1908.59 1571.31 1974 1560.41M1693 1641L1693 1643C1713.72 1646.58 1691.84 1674.61 1685.45 1673.68C1669.63 1671.36 1664.99 1629.6 1649.9 1625.41C1643.94 1623.75 1640.7 1632.53 1637.62 1636.08C1630.5 1644.28 1615.46 1668.59 1605 1671.24C1600.2 1672.45 1594.99 1661.22 1592.88 1658C1584.1 1644.62 1578.39 1628.86 1570.06 1616C1566.26 1610.14 1559.81 1600.26 1556 1611L1554 1611C1549.14 1597.36 1556.31 1570.44 1576 1573.05C1590.97 1575.03 1598.04 1592.95 1615 1581C1603.71 1581.66 1589.31 1581.03 1584 1569C1590.86 1568.52 1598.07 1564.6 1605 1565.82C1612.18 1567.09 1618.13 1575.75 1625 1578.8C1639.44 1585.22 1655.51 1585.48 1671 1584.96C1681.83 1584.6 1706.02 1573.59 1714.86 1577.68C1725.6 1582.65 1746.64 1614.57 1734.88 1626.13C1731.56 1629.39 1727.2 1623.92 1723.55 1626.08C1718.66 1628.98 1717.11 1636.43 1711.86 1639.7C1706.57 1642.99 1698.98 1640.42 1693 1641M259.001 1570.33C266.691 1569.37 305.869 1569.63 310.66 1575.24C312.981 1577.96 310.022 1587.44 310.003 1591C309.935 1603.22 316.903 1635.75 300.96 1638.72C293.682 1640.08 258.891 1641.04 255.26 1634.83C250.229 1626.23 247.988 1584.92 250.579 1575.15C251.578 1571.38 255.67 1570.75 259.001 1570.33M600.321 1584.65C582.888 1589.63 594.983 1616.14 608.078 1612.49C629.82 1606.43 614.45 1580.62 600.321 1584.65M165 1588C159.773 1595.26 156.491 1586.89 165 1588M168 1597C167.967 1605.28 168.787 1621.53 165.579 1628.86C163.093 1634.55 156.091 1637.02 153 1631L159 1632C160.384 1623.56 157.293 1621.14 149 1624C151.968 1617.78 161.984 1599.59 168 1597M1187 1655C1194.98 1669.23 1221.28 1657.29 1204.8 1643.76C1179.13 1622.67 1160.61 1661.83 1177.31 1680.96C1197.71 1704.3 1235.95 1670.67 1228.33 1645C1217.04 1606.97 1162.05 1604.46 1145.48 1639C1139.14 1652.22 1154.02 1669.48 1156 1682C1128.82 1667.25 1123.17 1629.65 1146.24 1608.84C1162.13 1594.48 1197.6 1591.2 1216.99 1600.68C1256.77 1620.12 1253.89 1665.69 1225.44 1691C1216.88 1698.61 1206.57 1709.71 1194 1707.47C1162.33 1701.84 1129.36 1628.28 1177 1621.63C1184.99 1620.51 1200.14 1620.28 1207 1624.78C1233.87 1642.45 1221.18 1675.86 1193 1682.2C1177.47 1685.69 1175.56 1652.8 1183.9 1646.26C1194.99 1637.57 1211.79 1654.77 1187 1655M605 1601C605.642 1602.75 605.859 1604.13 606 1606C604.889 1604.06 604.613 1603.19 605 1601M1965 1601C1965.54 1606.24 1974.4 1643.26 1978.72 1641.89C1982.41 1640.73 1978.99 1633.34 1978.48 1631C1976.35 1621.23 1974.19 1606.54 1965 1601M1995.23 1603.41C1990.24 1607.78 1998.74 1640.03 2002.3 1636.89C2006.84 1632.89 1998.05 1600.93 1995.23 1603.41M1385 1603C1390.73 1603.24 1406.42 1609.47 1402.39 1618.11C1399.64 1624 1388.38 1624.46 1385.39 1618.89C1382.55 1613.59 1387.23 1608.48 1385 1603M95 1606C78.8621 1603.88 94.7719 1635.74 93.9766 1616.56C93.8054 1612.43 93.331 1609.93 95 1606M1578 1606L1573 1616C1577.81 1614.56 1579.22 1610.76 1578 1606M150 1631L149 1635C147.051 1634.06 146.45 1633.61 145 1632L150 1631M95 1637L94 1638L95 1637M165 1639C163.376 1645.31 158.263 1640.63 165 1639M313 1639C312.399 1641.97 311.834 1642.91 309 1644C309.614 1641.08 310.281 1640.22 313 1639M144 1640C143.518 1642.36 143.364 1642.52 141 1643C141.899 1640.88 141.876 1640.9 144 1640M282 1643C276.607 1650.18 275.53 1657.4 271 1665C281.904 1662.52 282.041 1648.45 290.7 1643.82C293.59 1642.28 299.81 1643.54 297.795 1647.85C293.942 1656.09 282.096 1671.14 275.683 1677.85C271.2 1682.54 266.724 1678.75 262.568 1681.64C260.121 1683.34 255.482 1695.26 251.762 1693.04C248.691 1691.2 254.101 1683.95 255.037 1682C258.05 1675.72 273.632 1656.94 270.05 1650.43C266.074 1643.21 254.756 1672.71 251.641 1670.46C247.659 1667.58 252.813 1644.89 256.723 1642.34C261.337 1639.33 276.764 1641.68 282 1643M89 1643L90 1644L89 1643M313.667 1644.67C313.722 1644.72 313.778 1645.78 313.333 1645.33C313.278 1645.28 313.222 1644.22 313.667 1644.67M307 1647.33C307.889 1647.33 307.889 1648.67 307 1648.67C306.111 1648.67 306.111 1647.33 307 1647.33M90.6667 1648.33C90.2222 1648.78 91.2778 1648.72 91.3333 1648.67C91.7777 1648.22 90.7222 1648.28 90.6667 1648.33M313 1650C317.941 1671.02 297.425 1705.42 278 1716C279.465 1710.19 294.005 1683.88 296 1685C298.762 1675.15 317.421 1652.32 299 1660C297.985 1652.18 307.351 1652.33 313 1650M584 1666C579.402 1666.69 574.265 1671.36 569.912 1671.06C560.121 1670.37 575.212 1644.92 584 1666M2016 1661C2015.92 1701.8 1968.62 1679 1946 1679C1949.54 1692.3 1980.2 1688.11 1990.96 1696.46C1996.14 1700.49 2000.89 1711.05 2008.03 1711.57C2022.98 1712.66 2023.61 1692.13 2015 1685C2021.59 1679.33 2026.64 1665.33 2016 1661M297 1664C294.861 1685.88 274.696 1704.88 270.48 1727C269.796 1730.59 265.443 1743.85 260.284 1742.03C252.81 1739.39 255.994 1726.41 259.179 1722C272.839 1703.11 281.487 1681.54 297 1664M578 1677C581.61 1671.97 605.709 1661.03 610.913 1666.83C616.063 1672.57 598.485 1681.76 594.04 1681.79C588.292 1681.83 584.028 1677.21 578 1677M267 1677C270.642 1675.35 272.564 1673.76 274 1670C269.479 1670.78 267.947 1672.55 267 1677M277 1687L277 1690C272.698 1690.05 267.432 1692.1 266 1687L277 1687M2017 1693C2006.42 1720.12 1988.29 1679.63 2017 1693M318 1691C319.035 1698.31 322.334 1721.4 318.662 1727.54C314.144 1735.09 281.468 1739.91 273 1740C278.187 1727.24 295.607 1700.51 307 1693C307.592 1698.16 290.617 1745.47 309.472 1721.01C311.186 1718.78 312.607 1716.43 314 1714L306 1716C310.055 1707.85 311.807 1698.94 316 1691L318 1691M1620 1717C1633.49 1707.26 1613.69 1677.21 1617.83 1708C1618.25 1711.14 1618.96 1714.01 1620 1717M1650 1695.28C1644.95 1699.15 1641.53 1729.12 1652.14 1722.17C1656.19 1719.52 1658.83 1688.52 1650 1695.28M262 1702C258.777 1702.62 257.758 1702.25 257 1699C259.228 1699.76 260.28 1700.39 262 1702M259 1711C258.1 1714.79 256.794 1716.1 253 1717C253.92 1713.29 255.41 1712.17 259 1711M1623 1733C1638.31 1742.39 1642.46 1719.24 1634.55 1721.76C1630.49 1723.06 1628.54 1730.86 1623 1733M350 1784L351 1785L350 1784M1289.11 1791.89C1295.11 1789.75 1298.14 1798 1291.94 1800.07C1286.06 1802.04 1283.14 1794.02 1289.11 1791.89M329 1851L330 1852L329 1851M326 1864L325 1876C326.811 1872.09 327.374 1868.12 326 1864M1634 1869C1639.1 1897.16 1640.15 1924.64 1642.14 1953C1642.67 1960.6 1648.51 1977.53 1645.22 1984.28C1643.36 1988.11 1634.59 1987.46 1631 1987.78C1616.48 1989.07 1601.56 1990.77 1587 1991.01C1580.57 1991.12 1568.29 1992.36 1575.15 2000.92C1576.49 2002.59 1581.12 2008.19 1583.78 2006.54C1586.19 2005.04 1580.46 2000.83 1583.65 1998.81C1593.23 1992.76 1615.94 1997.33 1627 1996.94C1631.09 1996.79 1642.81 1993.15 1645.82 1995.98C1653.62 2003.3 1654.47 2057.35 1645 2055C1645.61 2060.97 1657.66 2090.2 1658.91 2072.99C1660.12 2056.31 1660.35 2037.64 1658.78 2021C1658.13 2014.12 1653.34 2002.84 1656.14 1996.28C1659.85 1987.62 1697.28 1987.39 1696 2001C1703.56 1997.5 1705.17 1988.45 1696.77 1984.31C1684.69 1978.37 1667.16 1991.83 1655.32 1985.24C1650.68 1982.66 1651.05 1968.79 1651 1964C1650.78 1943.95 1647.08 1924.06 1647 1904C1654.73 1915 1648.47 1944.29 1662 1950C1658 1927.9 1658.19 1878.77 1634 1869M501 1889C506.461 1889.73 511.427 1891.78 517 1892C514.721 1888.98 491.659 1878.66 490.065 1882.83C488.341 1887.35 497.872 1895.81 500.335 1899C511.89 1913.96 523.039 1929.12 533.29 1945C535.491 1948.41 541.675 1962.55 547.254 1959.59C552.915 1956.59 556.021 1943.5 558.752 1938C566.75 1921.9 578.496 1889.58 594 1880L594 1890C598.624 1885.32 599.308 1869.89 589.033 1872.95C576.326 1876.74 560.698 1916.19 555.252 1928C553.511 1931.77 548.458 1944.98 544.521 1946.36C540.74 1947.68 535.427 1935.5 533.735 1933C523.467 1917.81 513.085 1902.87 501 1889M1264 1873C1264.06 1888.37 1276.39 1913.61 1267.24 1927.54C1263.89 1932.65 1250.42 1931.11 1245 1931.68C1221.38 1934.14 1201.15 1934.77 1178 1931C1182.52 1941.87 1200.58 1960.31 1211 1966C1208.83 1960.58 1191.17 1946.17 1193.68 1940.9C1194.99 1938.15 1206.25 1940.06 1209 1939.86C1218.57 1939.2 1254.41 1930.62 1261 1937.58C1294.46 1972.94 1269.24 2037.28 1242.62 2068.21C1236.46 2075.37 1209.3 2105.51 1197.65 2098.5C1194.52 2096.62 1204.65 2085.79 1206 2083C1195.68 2088.38 1178.78 2104.23 1201 2106.8C1213.97 2108.29 1225.15 2096.13 1233.86 2088.22C1260.46 2064.08 1277.65 2031.93 1281 1996C1291.14 2003.61 1294.9 2030.34 1301.35 2042C1309.69 2057.09 1319.07 2069.13 1331.34 2081.2C1332.41 2082.25 1346.33 2093.82 1346.24 2086.82C1346.16 2081.04 1324.03 2066.02 1319.8 2059.96C1301.38 2033.52 1288.38 1997.53 1282.82 1966C1281.81 1960.3 1275.91 1939.27 1279.22 1934.82C1282.31 1930.66 1296.33 1933 1301 1933C1317.83 1933 1335.23 1931.73 1352 1933.22C1356.41 1933.61 1368.46 1937.37 1372.12 1935.13C1380.74 1929.84 1349.97 1923.06 1347 1923L1348 1927C1331.44 1929.78 1311.96 1927.46 1295 1928.04C1290.56 1928.19 1280.68 1931.32 1277.76 1926.58C1269.28 1912.78 1280.01 1882.58 1264 1873M893 1894C902.369 1933.56 886.003 1971.44 866.437 2005C854.312 2025.8 840.104 2043.34 815 2041C842.272 2071.58 877.941 2001.53 886.581 1982C888.027 1978.73 892.919 1956.52 896.03 1956.52C898.91 1956.52 910.052 1976.96 912.609 1980C927.983 1998.29 948.201 2024.98 971 2034C968.769 2024.93 956.864 2018.78 950.218 2012.88C937.233 2001.36 923.871 1986.92 913.516 1973C896.332 1949.9 902.036 1927.84 903 1901C905.664 1903.18 907.827 1905.62 911 1907C909.793 1896.09 902.161 1895.11 893 1894M320.5 1904.5C319.873 1905.13 320.873 1906.13 321.5 1905.5C322.127 1904.87 321.127 1903.87 320.5 1904.5M210 1932.94C186.327 1938.87 202.687 1971.19 223 1966.37C255.205 1958.72 236.549 1926.28 210 1932.94M1269 1933C1271.55 1936.28 1272.61 1938.85 1272 1943C1269.13 1940.32 1268.23 1936.83 1269 1933M319 1934L320 1935L319 1934M145.019 1935.68C117.097 1943.48 138.606 1972.67 162 1965.82C189.759 1957.68 166.135 1929.78 145.019 1935.68M221 1944C215.07 1944.8 209.602 1945.86 204 1948C206.213 1934.48 234.624 1932.15 236.527 1946.09C239.256 1966.07 201.14 1961.09 208.077 1951.49C210.881 1947.6 217.427 1947.39 221 1944M151 1942L144 1944C148.709 1932.91 174.093 1941.39 169.673 1952.99C166.272 1961.92 139.39 1969.96 141.069 1955C141.689 1949.48 147.703 1945.9 151 1942M321 1949C318.85 1959.29 325.637 1957.6 321 1949M322 1961C320.765 1967.04 321.481 1972.39 324 1978C325.789 1972.63 324.052 1966.58 324 1961L322 1961M485 1963.44C471.227 1965.07 452.299 1970.18 445.451 1984.08C430.58 2014.27 451.835 2067.35 490 2063.41C544.324 2057.81 546.985 1956.13 485 1963.44M604 1964.76C585.226 1970.13 558.247 2000.31 561.206 2021C562.105 2027.28 568.052 2029.07 570.042 2034.35C573.22 2042.8 570.11 2048.39 578.097 2055.77C592.128 2068.72 616.466 2069.48 633.997 2064.54C692.301 2048.1 659.5 1948.88 604 1964.76M253.008 1966.51C232.433 1968.92 241.657 1996.34 261 1993.73C281.603 1990.96 271.448 1964.34 253.008 1966.51M454 2031C463.965 2036.69 475.68 2043.1 485 2032C472.353 2033.68 450.094 2033.61 463 2016C442.815 2023.36 445.015 1993.76 455.198 1983.23C471.333 1966.54 505.547 1960.93 518.842 1983C528.884 1999.67 523.577 2031.55 512.19 2045.94C496.747 2065.47 455.121 2058.3 454 2031M596 2010C588.783 2013.37 565.128 2040.68 568.299 2017C571.771 1991.09 604.432 1959.82 632 1971.17C652.416 1979.57 661.577 2020.71 656.121 2040C649.202 2064.45 579.963 2074.41 577.873 2042.29C577.4 2035.01 598.078 2046.68 599.677 2038.79C600.349 2035.48 581.884 2038.17 580.086 2032.57C578.053 2026.25 592.918 2014.91 596 2010M255.01 1971.56C264.654 1968.98 273.181 1983.31 262.892 1986.5C252.107 1989.84 241.792 1975.1 255.01 1971.56M325 1981C325.456 1988.6 326.872 1995.52 331 2002C331.889 1997.51 328.994 1993.6 329 1989C327.7 1989.65 328 1989.15 328 1991C327.551 1987.16 327.342 1984.16 325 1981M99 2010C107.32 2024.37 140.1 2023.35 136.073 2002C132.459 1982.84 95.3994 1980.39 87.8709 1997C80.5008 2013.27 105.603 2042.64 122.149 2028.79C121.495 2029.34 84.9791 2019.23 91.9498 2002.14C105.253 1969.52 148.815 2013.09 116 2014.73C109.648 2015.04 105.303 2009.84 99 2010M1898.33 1988.29C1892.56 1994.34 1921.8 1998.83 1925 1999.06C1958.87 2001.52 1992.27 2004.73 2026 2008.32C2030.63 2008.81 2060.98 2014.06 2060.75 2014.43C2067.54 2003.52 2035.38 2001.39 2030 2000.6C1997.25 1995.79 1963.04 1995.37 1930 1991.68C1924.88 1991.1 1901.58 1984.89 1898.33 1988.29M198 2000C208.458 2001.12 213.151 2014.03 223 2017C220.469 1996.06 175.098 1980.55 158.019 1990.18C148.493 1995.55 147.375 2009.37 145.693 2019C142.578 2036.83 125.357 2061.9 132.45 2080.99C135.662 2089.64 146.711 2093.11 155 2094C174.635 2096.1 226.068 2100.26 237.48 2080.98C260.116 2042.73 217.808 2024.05 198 2000M481.099 1994.94C462.883 2002.73 477.267 2029.7 493.992 2022.44C513.785 2013.85 499.816 1986.93 481.099 1994.94M153 2042C154.186 2040.81 154.584 2040.47 156 2040C152.141 2033.64 152.217 2024.05 154 2017C156.417 2019.25 157.085 2021.87 158 2025C162.552 2014.32 157.346 2006.61 170 1999.66C185.907 1990.93 195.729 2003.81 206.32 2014.21C224.592 2032.14 244.642 2046.39 233.056 2075C224.82 2095.34 179.393 2090.2 161 2089.99C153.952 2089.91 138.718 2088 137.686 2078.95C136.605 2069.48 143.736 2019.29 153 2042M483 2017C483.499 2015.77 494.116 2001.64 492.977 2001.64C501.87 2001.64 490.597 2016.74 483 2017M625 2031C624.97 2021.21 639.978 2019.62 639.898 2008.02C639.794 1992.98 589.052 2010.11 616 2027.25C618.89 2029.09 621.677 2030.26 625 2031M331 2005C331.363 2007.03 331.517 2007.64 333 2009L334 2008L331 2005M628.448 2010.38C633.159 2011.22 624.354 2021.06 620.601 2020.46C616.37 2019.78 624.342 2009.66 628.448 2010.38M339.333 2017.67C339.278 2017.72 339.222 2018.78 339.667 2018.33C339.722 2018.28 339.778 2017.22 339.333 2017.67M340 2020C340.507 2022.55 340.952 2023.41 343 2025C342.186 2022.91 341.468 2021.69 340 2020M345 2028C345.98 2029.78 345.908 2029.59 348 2030L345 2028M350 2030C349.014 2031.48 349 2031.2 349 2033C350.766 2032.02 350.955 2031.78 350 2030M383 2041L384 2042L383 2041M525 2091C525.055 2104.45 529.846 2125.92 535.849 2137.98C537.945 2142.19 540.752 2150.25 546.866 2149.19C558.263 2147.22 572.117 2108.83 577.242 2099C579.181 2095.28 585.821 2087.67 583.6 2083.33C580.213 2076.71 573.098 2086.06 571.371 2089.01C564.504 2100.73 557.863 2112.99 551.653 2125.04C550.714 2126.86 547.895 2137.52 544.803 2135.68C534.629 2129.62 533.413 2094.9 530.159 2084C529 2080.12 528.52 2069.43 523.664 2068.3C518.363 2067.08 503.271 2111.85 525 2091z"/>
</svg>
