<?xml version="1.0" standalone="yes"?>
<svg xmlns="http://www.w3.org/2000/svg" width="2200" height="2200">
<path style="fill:#0f0f0f; stroke:none;" d="M1640 216C1626.34 212.992 1612.86 234.082 1598.15 224.635C1590.23 219.554 1596.42 206.65 1598.88 200C1607.04 177.956 1617.52 151.608 1632 133C1632 175.121 1637.27 251.367 1694 259C1680.38 243.857 1663.32 235.472 1651.16 218C1630 187.579 1629.73 133.189 1647.45 102C1653.76 90.8882 1668.05 51.8179 1682 56C1676.87 35.228 1654.72 79.554 1651.12 86C1631 122.072 1609.1 159.221 1594.93 198.078C1580.08 238.815 1615.47 232.299 1640 216M514 149C510.254 148.092 507.754 146.696 505 144C521.232 147.193 512.869 159.553 508.826 172C501.369 194.966 484.996 220.949 483 245C494.806 239.905 499.184 209.353 503.443 198C508.13 185.506 511.176 168.159 518.5 157.145C524.216 148.55 533.52 147.105 538.072 136C544.713 119.798 544.342 93.283 542.687 76C539.198 39.5659 505.295 57.8826 494.404 79C486.936 93.4812 482.192 119.333 488.324 134.999C491.002 141.839 507.037 157.302 514 149M522 147C522.766 141.066 526.878 134.812 526.606 128.96C525.772 110.994 504.53 108 491 108C492.303 100.43 495.459 93.1743 498.136 86C500.505 79.6526 517.604 54.9229 526.24 60.9619C530.777 64.1345 532.06 73.0867 533.713 78C539.273 94.531 543.015 139.374 522 147M1855 256C1886.48 242.207 1944.23 237.597 1977.91 246.343C1984.91 248.16 1983.23 257.166 1990 259C1988.69 252.107 1986.8 248.727 1990 242C1975.45 238.382 1965.48 192.645 1958.94 179C1956.46 173.808 1948.34 166.07 1948.67 160.217C1949.07 153.251 1977.36 126.122 1984 127.488C2000.34 130.849 2011.78 145.1 2024.08 154.915C2038.2 166.184 2037.37 166.727 2043 183C2048.74 173.841 2043.76 171.798 2056 176C2054.43 169.182 2046.64 166.062 2045.87 159C2043.58 138.021 2048.68 109.86 2052.02 89C2053.45 80.0503 2052.82 68.1602 2064 71C2051.05 46.7783 2009.95 93.7922 1997 106.078C1993.32 109.569 1987.05 118.895 1981.57 119.164C1976.05 119.436 1967.29 110.394 1962.96 107.396C1948.41 97.3196 1932.96 87.9448 1917 80.2998C1912.57 78.1797 1901.48 70.5334 1896.35 72.9426C1892.25 74.8696 1899.07 82.8713 1900.42 84.9814C1907.6 96.2146 1916.59 105.71 1922.08 118C1925.81 126.346 1941.22 151.046 1939.96 159.078C1938.83 166.257 1926.23 175.018 1921.31 180.129C1904.32 197.78 1886.67 215.414 1870.72 234C1864.82 240.879 1855.24 246.63 1855 256M2048 68C2054.48 95.6902 2041.05 130.427 2042 159C2025.15 156.349 2015.29 138.415 2001 130.685C1998.12 129.129 1985.46 125.439 1986.76 120.99C1988.24 115.921 1998.94 108.675 2003 105.223C2017.49 92.9116 2031.52 77.6177 2048 68M538 73L539 77C537.344 75.5957 537.249 75.0464 538 73M1223 232C1229.1 234.093 1236.48 239.892 1243 239.476C1252.33 238.88 1262.5 228.682 1269 222.78C1298.72 195.801 1299.35 137.263 1280.15 104C1274.73 94.6182 1242.28 67.9146 1230.61 79.1812C1226.67 82.9814 1232 113.092 1232 120C1232 144.701 1224.89 168.51 1223.14 193C1222.28 204.936 1226.03 221.088 1223 232M1901 79C1920.09 79.9578 1946.11 100.004 1961 111.172C1964.59 113.865 1975.73 117.887 1977.46 121.722C1979.4 126.019 1948.42 155.67 1943.39 154.031C1937.57 152.131 1935.61 139.658 1933.21 134.68C1923.78 115.154 1910.44 98.0486 1901 79M1231 162C1237.72 135.73 1237.55 108.789 1234 82C1270.9 82.8667 1255.25 151.114 1231 162M1257 89C1294.33 109.873 1297.58 171.606 1277.79 206C1270.49 218.695 1243.19 244.48 1228.26 226.178C1224.93 222.102 1227 211.004 1227 206C1227 195.214 1225.32 180.869 1230.6 171C1237.34 158.397 1250.86 150.87 1256.3 137C1263.48 118.688 1257.66 106.269 1257 89M494.468 112.88C511.877 104.577 534.536 136.626 517.476 143.002C503.26 148.315 478.421 120.534 494.468 112.88M144 128C136.692 139.072 141.981 152.608 141.999 165C142.032 187.411 140.631 217.655 135.678 239.32C130.105 263.694 105.966 282.892 101 308C117.84 300.708 122.713 261.896 137 249C134.535 273.2 176.599 269 195 269C201.43 269 212.141 266.725 216.019 273.148C229.256 295.073 196.684 312.109 181.32 325.223C178.63 327.519 164.514 335.769 165.322 339.586C166.132 343.41 186.807 326.715 189 324.764C194.068 320.254 198.546 315.236 204 311.159C211.684 305.415 218.049 296.932 226 292C227.88 302.924 233.878 312.798 234 324C246.257 318.63 227.591 295.646 230.255 286C231.807 280.38 248.236 267.508 246.894 263.724C243.984 255.513 222.039 266.796 217.115 261.362C200.86 243.419 194.381 208.364 186.885 186C184.142 177.818 176.564 168.458 177 160C167.785 161.983 171.523 170.38 167.671 178C158.711 195.73 151.807 215.782 140 232C140.015 200.865 156.065 157.892 144 128M866 134C852.695 149.267 840.709 165.538 827.618 180.96C822.724 186.726 813.52 191.783 810.141 198.372C797.757 222.52 796.932 268.663 800 295C823.113 279.919 847.323 269.393 871 255.134C887.253 245.346 900.858 232.135 918 223.548C924.096 220.495 954.865 201.061 944 196C942.497 202.177 935.604 204.68 931.136 208.791C919.068 219.895 896.387 235.882 880.992 241.584C876.186 243.365 872.641 239.833 868 239.479C862.242 239.041 846.862 243.439 843.62 236.576C840.721 230.438 845.499 215.472 846.879 209C851.398 187.799 867.654 154.902 866 134M858 149C854.063 171.869 844.533 193.823 840.64 217C839.673 222.757 835.368 236.694 839 241C836.255 248.382 864.399 247.844 872 248C862.019 261.91 837.707 266.014 823 273.201C816.307 276.472 810.961 282.521 804 285C806.689 258.733 801.885 225.632 814.219 201.079C823.802 182.001 843.934 166.935 856 149L858 149M1945 163C1956.36 189.252 1970.39 213.202 1979 241C1954.21 241 1928.73 238.208 1904 240.099C1890.43 241.136 1877.99 248.98 1864 248C1871.27 234.353 1886.21 223.002 1896.76 211.783C1911.36 196.271 1925.79 172.898 1945 163M176.185 173.643C182.739 173.643 183.563 189.708 184.445 194C188.36 213.05 199.505 229.319 207.086 247C208.543 250.399 215.216 263.702 208.831 264.499C193.256 266.441 172.474 265.211 157 262.477C152.779 261.732 142.966 260.837 140.843 256.595C131.938 238.799 158.482 208.974 165.677 194C167.529 190.146 170.71 173.643 176.185 173.643M1243 237L1240 235C1242.09 235.406 1242.02 235.217 1243 237M238 264C235.275 270.932 230.997 276.774 227 283C214.058 268.858 225.347 267.35 238 264M583 314L586 312C583.908 312.406 583.98 312.217 583 314M563 320C562.014 321.479 562 321.203 562 323C563.766 322.021 563.955 321.778 563 320M1249 551C1250.8 573.215 1276.1 577.092 1294 576.997C1299.48 576.968 1309.15 578.279 1313 574C1302.89 573.65 1307.59 553.747 1304.35 543.999C1300.84 533.428 1291.89 524.709 1284.43 516.768C1282.68 514.909 1275.7 509.665 1276.2 506.937C1276.83 503.589 1287.26 498.7 1290.08 496.804C1302.23 488.641 1313.4 479.837 1323.43 469.136C1326.67 465.673 1336.2 457.439 1332.23 451.91C1328.06 446.106 1313.04 453.672 1308 455.477C1288.21 462.556 1265.07 481.725 1243 477C1252.48 469.483 1277.46 446.082 1274.09 432.003C1266.29 399.373 1226.39 443.389 1219.62 453C1198.74 482.654 1184.09 514.554 1204.61 548C1208.47 554.3 1224.31 574.188 1232.93 571.975C1243.02 569.385 1242.05 555.991 1249 551M1239 478C1257.06 489.919 1287.67 469.161 1304 460.541C1308.66 458.08 1322.86 450.643 1328.15 453.038C1335.15 456.208 1312.36 475.116 1310 477.201C1304.53 482.046 1299.02 486.533 1293 490.681C1284.14 496.786 1274.08 503.015 1266 510C1282.01 513.241 1318.05 553.402 1300.96 571.178C1297.34 574.946 1288.52 572.662 1284 572.21C1259.12 569.723 1252.94 557.896 1249.24 535C1248.21 528.606 1245.44 520.825 1240 529C1250.33 533.744 1242.72 570.735 1230.2 567.804C1221.44 565.756 1210.9 551.223 1206.44 544C1184.17 507.927 1213.38 448.356 1248 429.338C1259.44 423.053 1272.3 426.849 1267.35 442C1263.69 453.218 1248.87 471.717 1239 478M576 448C576.034 456.438 581.676 467.142 580.101 474.999C578.485 483.056 553.001 514.389 543.26 501.421C536.419 492.313 548.299 465.03 536 460C536 469.961 542.499 495.332 537.604 503.499C535.462 507.073 524.906 507.982 521 509.192C505.71 513.93 476.914 513.571 465 524C487.014 529.56 517.36 513.328 539 509C537.442 535.249 520.468 550.081 503.116 569.342C498.265 574.727 491.978 586.152 484.912 588.396C470.586 592.947 455.271 583.818 442 586C451.629 596.977 471.4 586.299 478.997 594.182C481.393 596.667 471.975 604.272 470.438 606.001C460.106 617.622 448.035 629.501 444 645C457.427 631.053 469.037 602.264 487.126 594.042C500.184 588.108 529.704 593.668 544 595C542.051 604.083 546.228 616.789 542.539 625C535.195 641.343 510.563 651.882 515 673C522.407 657.94 529.693 639.986 545 631C544.442 640.677 545.558 650.584 547.893 660C548.803 663.669 552.323 698.303 555.455 696.894C559.464 695.091 555.131 673.923 554.672 670C551.738 644.91 543.253 632.1 561.866 611.999C564.906 608.716 568.565 602.288 573.218 601.242C601.559 594.868 606.659 638.762 610.765 656C611.375 658.561 617.74 677.387 621.03 674.592C625.082 671.151 618.299 662.236 616.867 659C610.74 645.161 608.517 627.751 605 613C609.411 614.538 625.811 619.638 628.239 613.019C628.328 612.775 606.683 608.682 603.494 605.272C598.027 599.429 599.296 584.591 598.961 577C598.542 567.499 608.692 562.522 613.881 556.058C627.94 538.545 638.687 518.46 651.439 500.041C653.474 497.102 667.354 490.171 667.357 489.295C667.364 486.903 661.305 487.942 660 488C666.194 477.751 674.133 468.779 681 459C669.472 458.631 662.278 480.741 654.554 487.494C649.429 491.974 638.48 487.833 632 488.562C613.431 490.652 573.779 501.293 591 469C579.032 470.894 581.73 455.173 576 448M1566 649C1559.03 641.445 1564.34 634.648 1567 626C1575.44 647.867 1573.47 674.717 1569.47 697C1568.36 703.172 1568.94 714.202 1576 716C1572.04 694.123 1577.63 670.726 1575.86 648C1575.19 639.336 1569.26 627.304 1572.7 619C1588.53 580.756 1631.21 559.729 1651 525C1658.22 553.52 1650.16 589.184 1648.14 618C1646.93 635.21 1650.26 652.991 1648.31 670C1647 681.451 1646.7 692.547 1646.32 704C1646.26 705.734 1643.69 714.997 1647.08 714.997C1652.36 714.997 1650.15 700.8 1650.16 698C1650.17 681.386 1650.8 662.448 1652.22 646C1654.74 616.827 1655.6 587.272 1656.92 558C1657.43 546.792 1652.86 532.819 1656.92 522C1661.66 509.386 1676.88 497.026 1685.28 486.36C1690.89 479.235 1696.42 467.884 1704 463C1705.86 489.709 1723.77 514.926 1726.78 542C1733.34 600.865 1721.67 658.138 1714 716C1722.59 714.72 1725.63 672.898 1726.03 664C1728.57 608.429 1737.04 561.203 1722.73 506C1718.92 491.338 1711.4 477.77 1707.89 463C1707.41 460.996 1709.21 449.647 1708.71 449.641C1705.08 449.596 1700.25 458.371 1698.67 461.019C1691.44 473.077 1681.93 483.528 1673.01 494.32C1641.83 532.067 1604.27 565.002 1575.87 605C1569.27 614.29 1560.83 625.653 1558.52 637C1557.3 642.983 1557.66 652.682 1566 649M802 567C810.336 565.024 814.321 555.839 818.512 549.136C828.117 533.775 848.514 523.929 855 507C869.927 518.559 884.435 547.931 901.841 554.456C899.813 553.696 914.176 521.267 915.768 514C919.414 497.358 914.864 468.413 895.823 461.525C887.737 458.599 873.661 458.369 864 456.407C855.763 454.734 825.882 449.87 820.407 458.621C818.616 461.484 825.341 466.709 826.782 469.027C831.74 477.001 853.502 494.551 851.435 504.136C849.528 512.982 839.199 516.662 833.752 522.504C822.726 534.33 806.679 551.141 802 567M830 465C833.927 466.52 836.731 469.388 840 472C837.299 466.456 831.268 464.485 829 459C843.354 458.998 854.055 460.24 868.001 461.788C871.934 462.224 882.656 462.886 884.241 467.586C885.886 472.461 862.168 498.084 857.298 498.677C849.919 499.575 831.437 471.889 830 465M898 475C892.321 450.606 912.864 486.485 912.778 497C912.698 506.858 910.567 536.811 898.62 540.249C890.581 542.563 863.761 512.216 860.752 505.564C858.524 500.641 865.572 496.144 868.36 492.978C876.007 484.294 885.526 465.747 898 475M583 481C583.561 495.064 583.004 498.693 567 499C569.303 492.799 576.799 483.395 583 481M1937 572C1943 567.302 1942.53 554.095 1945.27 547C1950.34 533.88 1959.71 521.986 1970.56 513.177C1995.68 492.787 2033.38 480.922 2065 493.106C2076.54 497.556 2095.86 514.357 2094.42 528.716C2094.11 531.85 2085.28 531.69 2083 532.1C2070.94 534.26 2058.62 536.53 2047.56 542.029C2004.12 563.628 1996.9 591.007 2016.19 633C2019.97 641.224 2021.49 653.332 2029 659C2024.92 632.808 1997.32 604.961 2010.84 578.136C2031.37 537.429 2130.98 510.223 2158.4 556C2167.9 571.869 2153.26 591.122 2152 607C2171.18 595.349 2167.19 554.099 2152 541.835C2135.89 528.834 2119.34 536.77 2103.28 529.178C2097.58 526.486 2094.09 514.237 2090.88 509C2084.78 499.026 2075.7 492.61 2065 488.264C2010.69 466.205 1937.23 513.997 1937 572M210 486C213.24 497.122 234.703 502.092 240 513C223.387 516.972 212.015 534.857 196 538.922C173.782 544.561 143.544 536.438 120 538.79C111.33 539.656 99.8705 538.41 94 546C126.545 543.752 158.257 543 191 543C174.033 564.655 138.985 557.735 115 559.08C111.409 559.282 88.6433 561.502 88.6433 565.856C88.6433 567.13 124.491 563.742 129 563.756C137.685 563.782 146.288 562.673 155 563C151.817 565.398 130.802 575.646 133.743 580.905C135.144 583.411 144.553 575.506 146 574.549C160.403 565.031 170.97 562.69 188 564.218C218.537 566.957 248.676 574.019 279 577.685C295.168 579.64 315.012 578.044 329.981 585.405C337.758 589.229 342.117 597.839 349 603C348.482 595.577 343.221 591.655 339 586L344 587C340.879 580.058 331.938 580.571 326 576.518C309.951 565.566 295.055 553.25 280 541C299.856 533.225 328.702 537.735 349 541C348.25 531.009 332.361 534.006 325 534C303.474 533.981 279.77 540.166 263 525.72C259.778 522.945 250.52 517.441 250.52 512.682C250.52 502.502 270.54 499.859 273 491C261.362 492.262 254.592 507.822 244.136 508.165C232.395 508.549 222.699 487.828 210 486M649 494C643.625 514.813 615.624 551.306 599 565C595.188 549.936 594.308 531.47 591.842 515.96C591.194 511.889 588.292 504.131 590.965 500.499C599.486 488.922 636.702 493.258 649 494M546 590C549.497 570.244 542.102 551.385 543.402 532.001C544.213 519.914 571.418 490.131 585.197 501.918C590.327 506.306 590.648 524.452 591.75 531C595.165 551.311 598.63 585.639 572.081 593.604C564.821 595.782 553.447 590.762 546 590M542 522C542.003 495.84 566.987 510.998 542 522M268 537C247.352 537 225.492 541.489 205 539C223.178 521.604 254.42 504.567 268 537M539 533C541.517 542.793 548.158 581.122 541.7 589.138C538.033 593.69 510.349 589 504 589C501.685 589 494.2 590.147 493.087 587.315C491.484 583.232 501.606 575.443 503.96 573C516.198 560.306 526.075 544.955 539 533M1860 549C1860.76 565.716 1874.68 573.473 1889 578.327C1918.04 588.171 1947.28 583.228 1973 567.181C1978.92 563.485 2005.13 544.761 1996.63 534.967C1993.92 531.84 1990.05 545.099 1988.98 546.999C1981.15 560.819 1961.18 569.333 1947 575.069C1925.1 583.925 1891.76 579.789 1873.01 565.601C1866.9 560.978 1865.62 553.329 1860 549M320 578C283.21 575.652 245.368 568.738 209 562.843C205.358 562.252 175.643 560 175.643 557.992C175.643 555.615 184.252 554.212 186 553.326C197.995 547.249 203.006 543 217 543C233.511 543 256.225 536.877 271.992 540.523C284.926 543.513 310.979 568.006 320 578M595 577C595 586.578 596.01 595.633 598 605C577.086 601.258 572.566 585.431 595 577M568 598C564.533 605.864 554.372 615.672 547 620C547 595.691 546.003 598.69 568 598M1662 926C1672.02 923.288 1683.31 891.08 1689.84 882C1709.25 855.022 1734.75 828.221 1764 811.825C1774.74 805.807 1811.48 797.18 1816 787C1764.05 794.393 1714.06 838.306 1685.48 880C1676.37 893.299 1664.85 909.827 1662 926M873 964C866.784 954.094 857.901 949.676 855.766 937C849.532 899.993 878.808 857.634 900.038 829.864C906.983 820.779 911.87 808.058 922 802C921.004 830.092 911.966 857.457 907.391 885C903.134 910.624 899.98 944.875 887.215 967.852C881.495 978.149 862.329 963.4 862.058 964.571C859.167 977.084 881.985 971.577 884.045 977.846C885.299 981.662 879.569 991.158 878.231 995C872.722 1010.81 866.613 1026.27 860.885 1042C859.412 1046.04 854.247 1062.3 862.012 1063.68C864.242 1064.07 862.643 1051.5 863.379 1049C867.833 1033.84 874.168 1018.77 879.824 1004C882.752 996.356 884.692 983.729 889.999 977.538C893.598 973.341 902.184 972.326 907 969.346C918.712 962.101 930.322 953.182 941 944.484C963.334 926.291 981.883 904.372 1003 885C993.446 884.351 977.673 905.297 970.981 912.01C950.052 933.005 919.947 962.375 891 971C899.87 927.123 915.199 884.749 920.943 840C921.721 833.943 931.011 798.478 920.47 798.205C911.193 797.965 897.455 826.136 892.551 833C874.793 857.857 851.029 892.207 851 924C850.984 940.954 854.863 958.188 873 964M475 848C484.296 887.519 521.216 875.355 542 853C546.43 873.599 552.077 892.937 573.078 902.782C583.736 907.779 611.361 900.411 605.881 883.553C604.952 880.694 601.83 882.671 600.925 884.376C590.474 904.076 579.606 904.319 562.258 889.18C552.436 880.609 544.907 861.142 546.461 848.019C547.131 842.354 551.565 838.938 551 833C548.74 835.237 546.713 837.332 544 839C545.119 808.813 568.513 819.38 583.74 835.158C592.318 844.046 610.747 875.693 609.014 888C608.056 894.795 602.243 898.459 599 904C623.094 897.45 611.526 875.747 603.093 861.864C585.799 833.395 574.06 813.22 537 807.399C491.145 800.196 454.337 830.73 427.36 863C420.048 871.747 401.826 889.397 405.157 902.796C407.751 913.229 426.76 906.047 432 902.91C455.659 888.743 462.652 870.709 475 848M485 823L479 825C484.342 813.554 534.771 804.914 544.157 814.921C545.702 816.568 541.425 843.37 540.079 847C533.042 865.972 497.373 881.013 483.854 860.992C474.555 847.22 480.947 836.68 485 823M475 824C479.076 848.301 457.128 881.416 438.059 894.435C431.891 898.647 419.469 908.422 411.512 902.74C405.531 898.47 415.4 882.454 418.581 878.438C433.979 858.995 451.902 834.539 475 824M1933 893C1936.81 902.542 1935.21 903.743 1934 914C1938.45 910.987 1940.1 903.364 1945.18 901.606C1961.51 895.952 1943.28 923.496 1939.7 926.501C1928.12 936.245 1904.67 945.275 1891 944C1895.67 953.669 1888.76 954.801 1889 964C1893.36 960.691 1896.51 956.267 1902 955C1899.41 957.569 1897.83 959.43 1897 963C1904.19 960.356 1909.92 964.534 1906.62 973C1903.81 980.209 1870.87 1026.84 1891.44 1002.01C1893.53 999.478 1895.72 997.035 1897.88 994.562C1901.43 990.491 1904.08 985.71 1908 982C1910.65 1010.54 1889.98 1023.68 1884 1048C1916.98 1040.64 1904.04 990.69 1913.51 971.021C1920.07 957.397 1934.76 948.763 1940 934C1951 941.557 1944.72 963.791 1965 958C1962.22 954.882 1957.97 951.531 1957.87 946.999C1957.73 940.995 1962.95 935.124 1963.74 929C1965.34 916.578 1955.88 896.487 1971.97 888.323C1976.47 886.043 1987.41 903.19 1992.46 896.379C1993.41 895.092 1977.83 886.86 1977.16 882.957C1975.87 875.419 1991.88 855.787 1996.06 849C1996.7 847.961 2002.72 838.643 1998.63 838.643C1992.68 838.643 1986.06 857.771 1983.27 862.217C1973.96 877.012 1950.64 897.141 1933 893M1554 843C1576.36 851.963 1561.75 883.543 1577 895C1576.88 881.811 1575.05 862.646 1568.58 851C1565.86 846.115 1559.73 836.642 1554 843M1620 935C1629.85 923.593 1623.92 879.102 1622.86 864C1622.67 861.181 1621.53 842.643 1618 842.643C1613.82 842.643 1617.79 861.43 1617.92 864C1619.13 887.635 1619.16 911.358 1620 935M50 881C60.2345 889.839 93.0725 889.49 106 887.792C146.596 882.459 187.568 884.737 228 875C212.018 898.593 191.861 914.307 172.225 934.155C135.03 971.751 97.7119 1011.78 59 1048C57.3016 1010.78 48.2421 965.52 53.6911 928.993C55.0296 920.02 61.0525 891.104 51 887C54.555 925.183 51.5769 967.267 52.0075 1006C52.1634 1020.02 58.9001 1037.23 54.5638 1051C50.5402 1063.78 36.1115 1071.52 30 1083C42.0306 1081.44 47.3498 1067.01 56 1060C55.5181 1062.72 52.8575 1082 57 1082C60.2605 1082 58.9998 1070.05 59 1068C59.0015 1051.63 70.8928 1040.38 82 1029.32C120.534 990.945 163.961 956.32 200.451 916.64C211.373 904.763 220.278 890.642 231.479 879.148C234.14 876.416 243.897 875.399 244.559 872.04C245.165 868.968 239.51 869.91 238 870C239.628 867.793 252.375 855.183 249.895 853.109C246.875 850.582 241.388 858.256 239.926 860.003C230.163 871.665 217.547 873.381 203 875.999C191.086 878.144 179.825 873.929 168 875.177C155.808 876.464 144.589 883.657 133 884.743C105.451 887.324 77.6209 881 50 881M1967 885C1963.79 897.712 1958.98 903.203 1948 897C1951.47 889.653 1959.22 886.037 1967 885M1324 904C1338.6 919.315 1333.05 938.754 1327.13 957C1318.26 984.36 1305.72 1014.44 1302 1043L1304 1043C1307.99 1008.09 1330.9 975.112 1336.66 940C1338.78 927.017 1341.28 907.816 1326.97 899.969C1320.4 896.366 1317.48 924.055 1315.5 929C1308.84 945.648 1303.65 966.134 1291.46 979.783C1280.03 992.592 1255.41 1001.62 1258.48 1022C1260.43 1034.93 1265.95 1051.28 1280 1055.3C1284.88 1056.69 1309.34 1058.79 1309.36 1050.58C1309.36 1049.23 1287.87 1051.09 1285 1050.89C1270.01 1049.86 1259.31 1026.25 1264.09 1013C1268.75 1000.06 1286.42 993.123 1295.22 982.922C1310.91 964.725 1324.4 927.891 1324 904M1957 911C1958.87 915.554 1962.11 936.65 1955.36 938.894C1936.79 945.062 1953.92 914.486 1957 911M1937 932C1934.68 938.06 1918.17 965.918 1911.2 964.677C1907.88 964.084 1904.53 951.613 1906.61 949.166C1912.94 941.727 1927.49 933.813 1937 932M1711 935C1674.06 935.004 1637.97 952.424 1602 959.418C1595.33 960.715 1567.4 957.883 1567.54 958.918C1568.89 969.19 1594.51 964.641 1601 963.897C1628.6 960.734 1658.7 951.336 1685 942.47C1693.17 939.716 1704.84 941.411 1711 935M1594 996C1618.25 989.169 1635.47 989.893 1655 1009.02C1659.64 1013.57 1672.29 1025.22 1666.45 1032.48C1656.31 1045.07 1598.93 1077.33 1603 1040C1590.02 1044.57 1607.89 1062.11 1616 1062.9C1636.04 1064.82 1656.35 1046.08 1671 1035C1672.71 1047.03 1674.98 1067.16 1689 1070C1685.03 1059.45 1672.27 1046.02 1675.9 1032.96C1678.49 1023.68 1693.04 1014.59 1699.68 1008.06C1721.27 986.848 1744.57 967.341 1766 946C1757.84 945.669 1748.27 956.591 1742.79 961.888C1726.53 977.614 1709.57 992.726 1693 1008.14C1688.48 1012.34 1680.76 1024 1674.44 1024.92C1670.77 1025.45 1666.05 1013.6 1664.13 1011C1656.44 1000.59 1642.97 992.746 1631 988.226C1621.15 984.505 1597.21 982.623 1594 996M894 1253C863.635 1235.58 862.675 1167.71 897.32 1153.79C910.874 1148.34 923.836 1148.58 938 1149.01C939.555 1149.06 950.816 1150.33 947.592 1145.75C945.199 1142.35 934.771 1143.87 931 1143.44C908.149 1140.81 887.876 1150.61 875.988 1170C856.784 1201.32 873.802 1224.75 885 1254C875.944 1254 858.14 1249.34 853 1258C860.552 1257.45 884.87 1255.01 890.499 1259.82C896.756 1265.17 894.277 1286.55 893.438 1294C890.082 1323.82 891 1353.92 891 1384C891 1393.68 889.15 1419.56 897 1426L897 1418C933.554 1438.1 953.64 1408.74 967.993 1376C991.309 1322.81 997.826 1266.23 1000.09 1209C1000.98 1186.4 994.433 1149.32 970.864 1138.24C968.063 1136.93 945.003 1131.27 945.003 1135.94C945.003 1139.21 964.961 1140.93 967.997 1142.06C979.395 1146.32 987.088 1162.12 990.403 1173C1006.81 1226.85 989.176 1287.51 976.396 1340.08C971.07 1361.99 960.668 1388.08 946.518 1405.96C942.098 1411.54 934.54 1420.95 927 1421.84C921.928 1422.43 901.022 1417.81 898.26 1414.34C894.002 1409.01 895.017 1390.8 895.001 1384C894.936 1356.59 894.952 1329.34 896.864 1302C897.491 1293.03 892.849 1265.97 897.862 1259.56C904.622 1250.92 937.675 1248.71 948 1249.05C950.269 1249.12 964.632 1253.48 963.677 1248.29C963.02 1244.71 951.791 1244.15 949 1244.04C937.628 1243.61 922.995 1246.13 912 1249.04C908.886 1249.87 900.791 1253.27 898.26 1250.28C886.442 1236.32 910.519 1203.13 906.453 1189.49C904.082 1181.54 898.158 1202.66 897.896 1204C894.758 1220.07 894 1236.68 894 1253M947 1153C945.934 1163.39 941.36 1171.25 936 1180L937 1181C944.126 1172.42 948.978 1164.32 949 1153L947 1153M505 1395C495.593 1392.71 511.849 1361.5 516.175 1354C541.529 1310.02 558.622 1252.58 551 1202L549 1205C545.175 1190.42 537.689 1179.91 525.043 1170.82C519.596 1166.91 515.473 1172.26 511 1164L508 1164C502.146 1173.57 500.086 1157.5 496.655 1161.89C486.272 1175.18 498.922 1200.78 500.561 1215C505.233 1255.52 494.107 1295 494.001 1335C493.958 1351.09 489.51 1368.02 492.422 1384C493.347 1389.08 498.627 1403.87 505 1395M87 1314C106.003 1312.69 131.571 1288.25 149 1279.39C154.446 1276.62 164.386 1269.41 170.813 1271.12C188.763 1275.9 178.48 1309.53 190 1313C191.695 1294.79 186.596 1284.34 177 1269C197.075 1262.18 216.041 1252.56 235 1243.15C237.178 1242.07 252.661 1236.25 251.894 1234.36C250.66 1231.31 232.436 1232.05 229 1232.01C207.752 1231.77 178.575 1238.09 158.322 1230.87C153.693 1229.21 151.936 1220.74 149.14 1217C140.306 1205.18 130.635 1193.87 121.592 1182.22C119.806 1179.91 115.568 1166.63 113.106 1167.08C108.637 1167.89 106.651 1179.41 106.239 1183C104.866 1194.96 103.255 1223.39 95.0604 1232.42C87.6417 1240.6 58.4046 1222.78 58.0483 1241.01C57.8062 1253.4 76.3478 1282.57 91.8821 1274.68C103.646 1268.71 94.363 1250.33 101.241 1241.63C105.008 1236.87 118.604 1239.05 124 1238.99C145.249 1238.76 162.325 1236.74 167.319 1263.8C168.299 1269.11 149.933 1273.46 146 1275.42C131.792 1282.49 92.5709 1298.68 87 1314M501 1174C502.092 1178.32 501.999 1182.57 502 1187C499.135 1182.82 497.638 1178.19 501 1174M513 1186C511.375 1184.74 510.869 1183.9 510 1182C508.723 1186.76 508.449 1190.28 504 1193C505.714 1182.89 514.804 1166.18 513 1186M114 1176C121.942 1197.84 145.677 1210.16 152 1233C140.307 1233 111.679 1240.68 101.863 1234.18C98.8466 1232.18 101.874 1222.97 102.323 1220C103.823 1210.07 107.3 1182.78 114 1176M521 1176C534.158 1184.99 514.121 1223.41 517.793 1196.92C518.204 1193.96 518.309 1190.97 518.72 1188C519.283 1183.94 520.007 1179.97 521 1176M532 1185C530.365 1184.45 530.545 1184.64 530 1183C531.635 1183.55 531.455 1183.36 532 1185M523 1289C524.029 1261.26 556.232 1220.42 535 1194C536.507 1204.53 541.854 1230.9 532 1238C532.957 1230.78 528.779 1193.59 534.929 1190.62C542.837 1186.81 543.903 1213.16 543.981 1217C544.314 1233.39 536.063 1278.13 523 1289M511 1199C508.495 1198.06 507.936 1197.51 507 1195C509.791 1195.63 510.374 1196.21 511 1199M497 1349C498.357 1310.71 508.76 1271.4 504.438 1233C504 1229.11 502.258 1199.85 504.707 1200.32C511.394 1201.62 514.31 1229.33 515.137 1235C519.692 1266.24 516.548 1291.05 507.733 1321C505.372 1329.02 504.258 1344.25 497 1349M1673 1245C1665.03 1250.34 1654.81 1277.47 1643.16 1274.96C1626.87 1271.44 1641.35 1223.86 1641.73 1213C1642.06 1203.71 1632.16 1197.57 1624.14 1202.48C1608.82 1211.86 1617.78 1236.79 1618.86 1251C1621.63 1287.24 1636.98 1343.56 1617.52 1377C1613.69 1383.58 1596.74 1392.63 1599.5 1378C1600.4 1373.2 1604.32 1369.7 1607.18 1366C1613.21 1358.22 1620.7 1317.11 1600.05 1326.04C1593.17 1329.02 1592.38 1341.48 1590.25 1347.92C1584.66 1364.83 1569.71 1404.2 1596 1412.28C1606.94 1415.64 1615.23 1409.66 1624 1404.21C1667.58 1377.13 1640.53 1346.2 1649.95 1307C1653.53 1292.08 1666.11 1282.78 1671.57 1269C1674.91 1260.59 1671.25 1253.28 1673 1245M512 1203.33C512.889 1203.33 512.889 1204.67 512 1204.67C511.111 1204.67 511.111 1203.33 512 1203.33M1668 1255C1677.38 1263.66 1649.73 1294.22 1646.41 1304C1633.79 1341.2 1664.21 1372.61 1623 1399.76C1615.9 1404.43 1608.03 1410.69 1599.04 1408.71C1575.29 1403.47 1589.6 1362.42 1594.22 1348C1595.93 1342.65 1597.5 1333.32 1602.38 1329.89C1608.95 1325.27 1610.98 1338.07 1610.73 1342C1609.75 1357.37 1593.67 1366.6 1593.86 1380C1594.1 1397.33 1613.65 1389.72 1619.87 1380.92C1644.52 1346.03 1623.43 1289.66 1622.99 1251C1622.86 1239.4 1614.24 1216.92 1624.29 1207.53C1629.72 1202.46 1637.08 1205.83 1637.71 1213C1639.16 1229.34 1628.58 1246.52 1630.86 1263C1635.25 1294.73 1660.19 1270.25 1668 1255M523 1212C524.11 1222.89 523.02 1235.05 522 1246L520 1246C519.778 1234.33 511.745 1219.62 523 1212M530 1221C529.637 1223.03 529.483 1223.64 528 1225C528.511 1223.05 528.733 1222.54 530 1221M240 1235C229.535 1245.9 204.436 1255.19 190 1259.84C186.103 1261.1 178.672 1265.37 174.618 1263.96C166.279 1261.07 161.475 1243.6 160 1236C186.872 1236 213.16 1236.61 240 1235M64.8217 1237.82C69.2836 1235 92.374 1235.81 95.1708 1240.74C97.7386 1245.27 94.4572 1268.12 89.4994 1270.42C77.861 1275.82 53.5201 1244.97 64.8217 1237.82M547 1237C546.32 1241.35 545.543 1245.16 542 1248C542.777 1243.67 544.044 1240.3 547 1237M527 1239C528.826 1244.86 525.971 1252.37 524 1258C521.854 1251.63 524.149 1244.82 527 1239M1234 1272C1246.39 1266.51 1252.85 1236.07 1273.41 1248.81C1279.37 1252.51 1257.5 1278.73 1254.38 1283.01C1230.18 1316.18 1217.33 1363.08 1185 1390L1185 1384C1176.99 1385.72 1185.79 1403.34 1192 1404.75C1206.46 1408.03 1241.82 1369.05 1245 1356C1228.17 1361.8 1214.53 1400.78 1195.01 1400.28C1179.63 1399.89 1206.62 1370.36 1209.87 1366C1230.32 1338.61 1243.87 1307.06 1263.35 1279C1267.85 1272.51 1284.22 1254.68 1282.59 1246.5C1281.64 1241.75 1266.67 1241.9 1263 1242.03C1248.76 1242.51 1234.42 1258.12 1234 1272M523 1262C524.718 1263.79 525.073 1264.53 525 1267C523.368 1265.16 522.796 1264.43 523 1262M543 1264C545.947 1279.29 535.914 1296.51 530 1310C527.624 1300.62 537.464 1272.07 543 1264M499 1388C484.903 1374.62 505.852 1343.76 509.462 1329.78C510.362 1326.3 511.66 1309.64 516.619 1309.64C519.667 1309.64 515.422 1325.07 514.661 1327C506.414 1347.86 506.34 1366.89 499 1388M528 1314L528 1317L526 1314L528 1314M522 1315L520 1320C519.463 1318.02 519.565 1317.04 520 1315L522 1315M236 1333C236.773 1334.18 236.824 1334.23 238 1335C237.455 1333.36 237.635 1333.55 236 1333M259 1344C259.866 1336.55 249.101 1335.13 259 1344M515 1339C514.317 1342.04 513.592 1343.27 511 1345L513 1339L515 1339M205 1700C205.482 1702.36 205.636 1702.52 208 1703C207.101 1700.88 207.124 1700.9 205 1700M751 2169C761.574 2170.41 763.919 2182.53 777 2183C773.354 2178.75 753.219 2158.59 751 2169z"/>
</svg>
