<?xml version="1.0" standalone="yes"?>
<svg xmlns="http://www.w3.org/2000/svg" width="2200" height="2200">
<path style="fill:#0b0b0b; stroke:none;" d="M703 28C703.581 24.3293 704.787 21.9829 707 19C701.94 18.7856 699.414 24.4277 703 28M852 46C857.257 44.9126 854.738 41.6428 852 46M1313 615C1311.3 619.708 1315.2 618.698 1313 615M28 752C32.5457 761.702 40.2345 775.541 48 783C46.8172 772.857 39.4125 753.576 28 752M808 770C814.759 808.95 838.841 851.178 853.405 888.001C857.56 898.506 871.663 921.792 869.002 932.922C867.56 938.952 859.367 944.118 855 947.992C841.589 959.89 827.834 971.711 814.04 983.184C811.8 985.047 795.623 997.235 798.667 999.65C802.336 1002.56 814.223 989.426 817.01 987.302C830.527 977 843.344 965.345 856 954.001C859.519 950.847 866.639 942.025 871.388 941.316C875.907 940.64 878.888 952.871 879.989 956C882.823 964.053 893.707 1004.11 903.991 1003.89C908.125 1003.81 911.992 994.024 913.828 991C922.566 976.606 929.643 961.428 938.435 947C940.364 943.836 945.081 930.295 949.839 931.643C956.729 933.596 968.42 954.936 973.139 961.04C978.315 967.737 984.427 973.196 988 981C990.271 979.478 992.118 977.98 994 976C982.774 964.67 974.736 951.299 964.802 938.997C961.449 934.845 954.088 928.755 954.044 923C954 917.126 960.684 909.968 963.421 905C971.882 889.641 979.473 873.805 988.907 859C998.897 843.321 1006.9 824.173 1018.66 810.019C1021.18 806.987 1034.03 798.615 1030.07 793.995C1022.56 785.229 1009.92 809.878 1005 814.139C985.337 831.157 966.415 849.028 947 866.318C941.802 870.946 932.152 883.594 925.463 885.282C920.28 886.59 908.447 866.808 905.401 863C885.654 838.307 865.467 813.533 846.851 788C844.18 784.336 827.169 758.896 822.841 761.544C819.222 763.758 843.399 792.657 846.599 796.562C861.841 815.163 874.823 836.135 890.681 854.225C898.194 862.796 913.85 877.773 916.471 888.981C917.947 895.292 884.648 927.427 877.454 927.359C871.957 927.308 863.007 895.234 861.048 890C849.569 859.326 838.222 827.879 824.724 798C820.766 789.24 818.725 772.502 808 770M459 1030C455.393 1031.21 437.842 1042.85 442.348 1047.84C444.998 1050.77 450.632 1043.49 452.114 1041.99C462.426 1031.56 468.061 1026 483 1026C526.039 1026 568.963 1024 612 1024C623.635 1024 635.425 1023.08 647 1023.24C650.225 1023.29 655.487 1026.74 658.359 1024.84C664.245 1020.93 641.464 992.935 638.673 988C623.842 961.775 605.605 937.468 591.287 911.001C587.775 904.509 599.21 894.635 596.621 892.249C593.837 889.683 585.553 898.496 582 899C593.076 884.898 605.855 870.946 618.683 858.398C620.648 856.476 628.781 845.372 620.026 847.087C609.932 849.064 596.707 870.31 590.345 878.04C588.225 880.616 582.369 889.597 578.338 888.357C573.554 886.885 565.094 868.541 562.481 864C549.415 841.288 534.86 819.22 520.96 797C517.597 791.625 508.613 769.586 501.006 770.426C496.271 770.949 495.402 780.442 494.705 784C491.65 799.584 489.336 815.387 486.309 831C476.934 879.362 465.186 927.41 457.079 976C455.346 986.39 443.335 1015.12 448.56 1024.4C450.282 1027.45 456.219 1027.71 459 1030M325 777C319.848 786.084 314.259 803.653 314 814C320.876 802.806 323.165 789.366 327 777L325 777M503 777C522.708 804.743 542.211 835.894 557.975 866C561.6 872.922 575.158 887.143 573.976 894.96C572.868 902.28 562.155 909.888 557.437 915.04C542.293 931.579 527.316 948.225 512.438 965C499.578 979.5 485.193 992.65 472.328 1007.08C469.405 1010.35 462.979 1022.24 457.462 1020.81C452.998 1019.66 456.217 1009.85 456.747 1007C459.399 992.743 462.177 978.045 465.682 964C476.568 920.385 483.284 875.059 492.1 831C495.224 815.39 494.499 790.464 503 777M1253 984C1272.19 984.831 1281.53 947.849 1298.01 948.6C1305.59 948.946 1318.62 967.292 1325 972C1307.33 988.034 1294.38 1008.96 1276.69 1024.73C1268.43 1032.09 1231.29 1005.69 1222 1000.74C1217.99 998.596 1209.2 995.359 1208.05 990.39C1205.88 980.973 1217.94 957.852 1220.61 948C1231.47 907.798 1243.71 867.886 1255.54 828C1259.17 815.765 1262.35 803.345 1265.57 791C1266.16 788.722 1270.15 779.003 1264.92 779.003C1259.5 779.003 1258.49 795.169 1257.47 799C1251.85 820.15 1244.84 841.164 1238.47 862C1228.39 894.954 1218.51 927.823 1209.28 961C1207.51 967.371 1197.52 989.471 1199.33 994.507C1201.24 999.83 1225.33 1007.54 1231.1 1011.1C1241.7 1017.66 1252.65 1023.81 1263.93 1029.14C1266.85 1030.52 1269.96 1036.07 1273.14 1035.68C1286.52 1034.05 1307.99 1000.24 1316.6 990C1319.05 987.084 1323.19 977.935 1326.72 976.761C1335.69 973.78 1332.93 999.419 1340.23 996.894C1344.8 995.313 1339.64 980.836 1338.42 978.007C1334.57 969.078 1307.14 941.641 1297.14 941.542C1286.98 941.442 1256.91 974.659 1253 984M1277 779L1278 783C1278.27 781.089 1278.06 780.647 1277 779M49 787L52 792C52.3724 789.215 51.3515 788.419 49 787M57 798L59 801L57 798M62 808C64.0054 813.654 72.4257 820.968 69.5876 827.01C64.6965 837.423 51.3897 846.476 43.6021 854.882C41.341 857.322 34.1048 860.844 35.1057 864.88C36.2615 869.541 45.2894 872.734 49 875.014C60.2924 881.95 81.6767 890.163 89.2189 901.086C98.5515 914.601 98.6956 939.316 102.982 955.019C104.282 959.782 104.758 969.723 108.732 972.99C115.855 978.848 113.704 959.763 113.255 957C110.509 940.13 103.543 922.599 99 906C125.361 916.579 149.441 937.809 173.218 952.646C179.671 956.673 196.61 962.016 200.603 967.818C204.508 973.492 201.428 997.727 200.783 1005C200.52 1007.96 198.268 1016.26 202.354 1017.65C207.07 1019.26 206.776 1001.88 206.922 999C207.729 983.048 204.823 946.486 233 957C238.751 941.567 276.621 932.558 291 927C287.747 938.712 286.999 951.759 285.79 964C285.54 966.531 285.267 978.223 290.887 972.167C301.446 960.791 290.633 934.194 300.744 922.518C310.73 910.987 346.667 910.724 349 894C331.683 899.37 316.508 910.082 299 915C303.803 890.5 308.312 860.835 306 836C321.099 850.175 332.477 869.609 349 882C348.874 861.419 321.179 848.929 311.529 832.438C307.563 825.661 309.739 818.372 310 811C294.535 814.525 301.172 825.199 299.497 837C296.748 856.367 295.362 876.515 293.236 896C292.509 902.66 294.629 912.805 290.181 918.443C277.818 934.113 241.887 941.453 224.019 949.779C217.726 952.711 208.307 960.533 201.051 959.487C193.797 958.442 182.725 946.19 176 942.101C153.767 928.579 112.21 912.949 97.0013 891.74C83.8936 873.46 88.7857 841.185 80.9649 821.39C79.9708 818.874 65.3092 811.051 62 808M2062 825C2053.37 824.704 2049.58 818.036 2042 815.14C2031.32 811.061 2003.1 809.444 1993 815.265C1954.95 837.192 1931.91 893.902 1932 936C1932.05 958.627 1937.02 983.054 1961 991.533C2007.59 1008.01 2047.68 969.793 2068.56 933C2073.02 925.134 2090.85 899.139 2085.49 889.829C2081.24 882.467 2059 902.001 2054.92 904.596C2029.39 920.854 2005.07 939.588 1979 954.961C1974.59 957.559 1961.22 972.416 1956.49 971.037C1953.94 970.292 1977.24 939.812 1980.12 936.003C1996.08 914.882 2010.92 892.54 2027.6 872C2039.51 857.34 2055.2 842.873 2062 825M2000 818.664C2009.53 815.888 2052.62 815.728 2050.21 832.078C2048.69 842.38 2031.89 858.304 2025 866C2007.02 886.072 1992.88 909.702 1975.66 930.456C1968.38 939.223 1961.27 948.791 1954.55 958C1953.07 960.022 1951.2 967.265 1948.59 967.677C1936.92 969.516 1938.74 926.498 1939.08 920C1940.7 888.487 1967.05 828.269 2000 818.664M1511 881C1512.79 891.517 1503.47 900.798 1500.8 911C1496.12 928.908 1495.61 954.476 1502.19 972C1506.12 982.474 1512.06 990.557 1520.96 996.964C1523.45 998.754 1531.25 1004.86 1533.24 998.753C1534.34 995.374 1515.44 981.725 1513.03 977.003C1502.6 956.579 1495.25 897.651 1521.83 884.256C1530.76 879.76 1560.39 907.349 1568 912.633C1607.5 940.069 1647.55 967.263 1686 996.143C1696.12 1003.75 1721.29 1015.34 1720 1029C1724.8 1028.14 1729.1 1027.24 1734 1027C1729.6 1014.6 1750.22 990.52 1758.96 981.482C1761.62 978.725 1766.87 980.322 1768.9 977.227C1770.65 974.555 1766.83 968.4 1767 965C1758.03 963.789 1754.83 952.802 1750.4 946C1734.54 921.636 1734.25 882.864 1745.25 856C1747.24 851.12 1763.78 822.375 1760.43 820.458C1756.43 818.168 1749.03 824.65 1746 826.742C1733.58 835.313 1721.02 841.502 1706 844.226C1641.72 855.882 1575.89 875.281 1511 881M2029 831C2032.62 828.606 2035.86 826.394 2040 825C2034.91 820.969 2030.52 825.74 2029 831M1002 825C1001.14 834.269 993.403 842.192 988.758 850C976.821 870.069 956.055 896.266 951 919C944.756 916.414 927.74 897.478 929.987 890.136C931.896 883.902 943.204 876.617 948 872.32C963.058 858.829 983.282 832.221 1002 825M74 831C79.1308 849.43 85.1102 869.127 88 888C77.0799 884.778 65.9822 875.115 56.1362 869.19C53.4831 867.593 46.0476 865.742 45.9952 861.971C45.9023 855.283 68.821 835.551 74 831M1745 837C1743.45 842.867 1738.55 845.008 1735.99 850.118C1726.24 869.618 1720.24 889.913 1721.24 912C1722.3 935.549 1757.06 953.174 1754.56 976C1753.59 984.827 1744.55 994.43 1739.16 1001C1735.58 1005.35 1732.53 1011.83 1728.16 1015.36C1721.94 1020.39 1691.25 993.105 1685 988.779C1646.98 962.457 1608.9 936.29 1571 909.841C1564.91 905.591 1535 889.735 1535 882.357C1535 879.051 1544.77 879.588 1547 879.242C1559.74 877.271 1572.3 874.534 1585 872.362C1624.34 865.636 1666.23 859.958 1704.92 850.221C1718.38 846.834 1731.57 839.571 1745 837M1753.67 842.333C1753.22 842.778 1754.28 842.722 1754.33 842.667C1754.78 842.223 1753.72 842.278 1753.67 842.333M58 852C61.3909 857.4 66.7892 860.768 73 862C68.8143 857.165 64.213 853.684 58 852M96 866L97 867L96 866M98 874C100.185 881.766 110.732 883.945 117 888L118 887C111.732 882.787 105.026 876.587 98 874M1733 881C1733 892.653 1732.41 904.378 1733 916C1723.63 911.824 1728.58 888.021 1733 881M102 885C102.545 886.635 102.365 886.455 104 887C103.227 885.824 103.176 885.773 102 885M105 888C107.257 892.457 109.722 896.31 114 899C112.154 894.062 110.072 890.012 105 888M119 889C120.447 891.421 121.325 892.098 124 893C122.681 890.376 121.873 889.622 119 889M126 893L127 894L126 893M132 896C132.98 897.783 132.908 897.594 135 898L132 896M919.959 897.891C925.374 896.091 944.048 918.65 944.643 924.217C946.121 938.044 921.073 967.733 914.262 980C912.525 983.13 908.271 995.044 904.503 995.677C899.444 996.527 889.405 963.758 888.011 959C885.975 952.053 877.638 942.515 878.727 935.217C879.379 930.843 885.518 928.314 888.481 925.646C896.919 918.048 909.301 901.434 919.959 897.891M2076 897C2071.78 939.433 2028.37 988.573 1985 986.902C1973.18 986.447 1963.64 988.945 1954 980C1994.1 952.522 2033.89 921.139 2076 897M580 900C579.503 914.19 550.853 938.263 539 945C543.82 931.768 568.06 907.581 580 900M139 901C140.895 903.054 142.353 904.107 145 905C143.119 902.945 141.63 901.917 139 901M156 913L161 913C159.232 910.25 157.898 910.425 156 913M584 910C600.263 934.905 616.102 960.182 630.911 986C637.184 996.936 646.391 1006.74 650 1019C631.811 1012.69 605.108 1017.95 586 1018.92C548.556 1020.82 510.462 1021 473 1021C480.9 1007.55 496.861 997.123 507.691 985.904C532.306 960.404 556.777 932.725 584 910M163 913C163.058 918.944 171.444 921.97 176 924.734C188.042 932.038 207.545 949.26 222 947C217.887 940.855 211.189 940.9 205.537 937.309C192.044 928.737 178.282 918.453 163 913M229 926L230 927L229 926M127 928C128.936 932.305 131.036 936.322 135 939C134.569 933.689 131.486 930.608 127 928M1881 931C1880.29 942.38 1888.91 984.629 1898 991C1894.11 970.804 1888.95 950.852 1884 931L1881 931M220 933C221.766 933.401 221.557 933.289 223 932L220 933M218 935L219 936L218 935M135 941C136.157 943.837 137.2 944.759 140 946C138.46 943.859 137.186 942.459 135 941M539 946L540 947L537 950L536 949L539 946M139 948C139.545 949.635 139.365 949.455 141 950C140.455 948.365 140.635 948.545 139 948M141 951C142.824 956.719 145.493 961.974 150 966C149.217 959.782 146.425 954.322 141 951M150 967L150 971L152 971C152.216 969.319 152.216 968.681 152 967L150 967M1962 979C1964.26 984.036 1969.02 984.783 1974 986C1972.73 981.668 1966.16 979.824 1962 979M1896 995L1898 1007C1899.65 1005.76 1899.33 1004.33 1900 1007C1900.74 1002.33 1899.93 997.838 1896 995M1716 1005L1716 1008L1719 1008L1719 1005L1716 1005M1929.33 1005.67C1929.28 1005.72 1929.22 1006.78 1929.67 1006.33C1929.72 1006.28 1929.78 1005.22 1929.33 1005.67M1900 1008C1898.86 1014.05 1900.69 1021.35 1903 1027C1904.92 1020.47 1903.9 1013.57 1900 1008M489 1157.45C461.303 1160.87 437.665 1162.49 412 1174.12C408.13 1175.88 390.718 1178.9 390.631 1184.37C390.494 1192.91 406.379 1205.5 411.543 1211.22C424.91 1226.03 447.26 1253.47 449.676 1274C451.497 1289.47 411.133 1301.36 414.095 1314.6C416.006 1323.15 430.015 1334.1 435.999 1339.98C454.858 1358.5 475.405 1375.23 491.978 1395.86C496.805 1401.87 509.211 1420.18 517.927 1418.91C524.656 1417.93 520.006 1383.85 520 1377C519.97 1343.63 516.631 1310.42 516.992 1277C517.11 1266.11 512.15 1249.05 517.26 1239.01C520.78 1232.09 530.897 1227.77 536.569 1222.5C552.917 1207.32 570.101 1189.55 588.999 1177.62C595.303 1173.64 618.414 1166.56 620.894 1159.7C622.421 1155.48 591.459 1161.11 588 1161.56C569.432 1163.95 539.626 1177.32 521.303 1172.36C516.082 1170.95 520.583 1162.23 517.178 1158.82C512.868 1154.51 494.7 1156.74 489 1157.45M1942 1236C1930.77 1236.39 1931.68 1244.61 1928.1 1253C1921.24 1269.07 1913.62 1283.98 1904.75 1299C1902.69 1302.5 1893.75 1317.59 1898.35 1320.06C1906.47 1324.42 1923.83 1321.83 1933 1322.02C1947.58 1322.31 1964.66 1326.49 1979 1324.58C1993.28 1322.67 2007.33 1316.13 2022 1315.48C2026.85 1315.26 2060.76 1307.86 2061.68 1302.95C2062.55 1298.24 2050.72 1302.64 2049 1303C2051.16 1298.21 2059.42 1295.47 2058.25 1289.39C2057.19 1283.86 2048.89 1281.08 2047.53 1274.88C2042.66 1252.56 2032.48 1228.11 2022.49 1205.96C2018.23 1196.51 2016.49 1186.2 2008.49 1180.37C2002.39 1175.92 2004.3 1163.66 1993.03 1162.29C1986.54 1161.5 1982.04 1173.87 1978.67 1178C1968.93 1189.97 1936.53 1220.44 1942 1236M441 1205C447.224 1202.13 445.107 1196.65 444 1191C459.774 1188.6 475.24 1183.96 491 1181.18C495.605 1180.37 506.172 1177.76 510.13 1181.26C513.107 1183.89 508.514 1197.68 508.698 1202C510.073 1234.31 504.981 1237.33 479 1255.38C473.801 1259 466.843 1268.22 460.199 1268.72C455.613 1269.06 454.023 1260.13 452.602 1257C446.889 1244.42 442.515 1229.79 440.897 1216C440.547 1213.01 439.321 1199.64 435.093 1199.64C430.552 1199.64 439.29 1229.39 440 1233C433.119 1228.78 427.793 1219.74 422.196 1213.78C417.437 1208.72 400.772 1191.66 402.242 1184.36C403.181 1179.69 416.139 1176.99 420 1175.12C439.25 1165.79 466.707 1163.27 488 1162.08C495.322 1161.67 514.746 1158.75 511.361 1171.72C510.019 1176.86 492.661 1176.71 488 1177.4C479.487 1178.66 442.068 1180.63 438.556 1188.37C436.602 1192.67 440.744 1200.31 441 1205M1359.81 1165.74C1352.65 1167.29 1346.98 1172.54 1339 1173.64C1298.61 1179.21 1255.91 1172.31 1216 1180.34C1207.95 1181.97 1177.86 1179.98 1173.24 1184.97C1160.23 1199 1162.83 1241.02 1161.92 1259C1158.53 1326.29 1178.84 1409.03 1258 1417.28C1271.58 1418.7 1287.74 1415.8 1301 1412.85C1359.51 1399.8 1366.18 1346.05 1372.21 1296C1374.24 1279.2 1377.39 1260.96 1375.44 1244C1373.12 1223.81 1369.46 1203.57 1364.76 1183.98C1363.89 1180.37 1366.72 1164.25 1359.81 1165.74M597 1166C591.581 1172.7 580.904 1176.78 574 1182.22C558.147 1194.74 536.186 1224.74 516 1228C517.725 1214.99 511.875 1191.87 517.822 1180.48C520.563 1175.23 531.967 1175.57 537 1174.94C554.689 1172.71 579.661 1162.43 597 1166M843 1407C854.319 1409.75 864.735 1381.74 866 1371C891.431 1391.22 919.921 1407.42 945 1427.75C947.446 1429.73 971.822 1440.66 970.696 1431.95C969.976 1426.38 959.03 1416.39 955.437 1412C941.765 1395.28 928.354 1378.03 913.967 1362C909.867 1357.43 894.393 1340.82 895.257 1335.04C896.683 1325.49 911.418 1314.69 918.078 1308.64C935.083 1293.2 948.266 1276.03 962.372 1258.18C965.521 1254.2 983.22 1238.61 981.031 1233.78C979.065 1229.44 961.373 1230.93 957 1229.81C937.097 1224.74 916.608 1219.78 897 1213.78C891.814 1212.19 880.601 1212.85 876.829 1209.06C869.694 1201.89 887.785 1167.67 874.852 1165.31C854.501 1161.59 851.833 1193.48 840.56 1198.51C831.311 1202.64 792.316 1178.39 788.042 1191.15C780.416 1213.91 817.735 1246.29 826.958 1264C832.305 1274.27 829.501 1291.53 832.76 1303C837.16 1318.49 847.925 1333.19 851.023 1349.02C853.89 1363.67 847.285 1392.76 843 1407M1996 1173C1993.29 1173.48 1990.75 1173.95 1988 1174C1990.19 1170.39 1994.41 1167.36 1996 1173M869.892 1172.1C875.223 1170.95 870.405 1205.43 866.461 1206.92C840.724 1216.62 852.267 1175.91 869.892 1172.1M1262 1333C1259.81 1320.61 1249.36 1307.47 1242.59 1297.02C1228.67 1275.53 1215.02 1253.87 1200.23 1233C1195.06 1225.7 1175.79 1201.6 1176.89 1193.28C1177.6 1187.92 1208.86 1187.12 1214.44 1185.76C1247.94 1177.57 1287.6 1183.27 1322 1180.86C1326.48 1180.55 1352.61 1174.63 1354.49 1177.03C1357.35 1180.67 1343.08 1198.48 1340.89 1202C1325.17 1227.25 1309.69 1252.35 1293.17 1277C1284.2 1290.4 1276.16 1325.99 1262 1333M1981 1189C1986.64 1190.21 1992.36 1189.19 1997 1193C1998.04 1190.58 2003.68 1184.08 2004.58 1190.29C2005.27 1195.07 2002.13 1200.37 2000.24 1204.56C1998.7 1207.97 1994.78 1220.36 1990.12 1220.36C1988.84 1220.36 1975.58 1193.29 1976.09 1190.96C1977.33 1185.25 1989.38 1173.66 1995.67 1178.23C2001.24 1182.27 1984.16 1186.92 1981 1189M89 1178C90.2128 1190.24 87.5257 1215.11 105.008 1220.4C115.221 1223.48 138.52 1214.68 145.444 1222.25C160.048 1238.22 164.638 1269.18 172.385 1288.96C180.723 1310.24 197.066 1329.38 204.448 1350.32C206.567 1356.33 198.361 1373.55 196.462 1380.32C191.264 1398.85 191.418 1417.22 201.93 1433.92C214.173 1453.37 248.23 1453.73 268 1446C259.584 1424.92 250.453 1400.47 237.061 1382C231.483 1374.31 215.706 1359.09 216.442 1349C217.367 1336.33 237.06 1324.57 244.058 1315C269.358 1280.41 284.5 1223.4 236.639 1199.02C220.505 1190.8 196.901 1190.66 180 1196.74C172.629 1199.4 158.103 1211.43 150.129 1208.43C140.279 1204.71 141.943 1185.16 134.937 1179.52C128.718 1174.51 97.7589 1178 89 1178M141 1213C122.147 1219.7 106.533 1218.17 98.7955 1199C97.48 1195.74 91.8658 1187.39 94.4173 1183.96C96.6825 1180.91 105.806 1183.77 109 1183.92C131.106 1184.99 131.061 1194.24 141 1213M1358 1189C1358.64 1206.88 1365.8 1223.3 1367.68 1241C1372.09 1282.47 1367.56 1335.08 1349.88 1373.04C1341.8 1390.38 1299.46 1421.88 1278.28 1408.74C1268.99 1402.97 1272.16 1365.15 1272 1355C1271.23 1308.66 1306.22 1265.58 1331.79 1228C1339.85 1216.17 1345.94 1197.02 1358 1189M1618 1198C1616.16 1205.28 1610.47 1211.26 1605.83 1217C1602.51 1221.1 1592.25 1241.48 1587 1241.48C1579.13 1241.48 1571.3 1210.99 1568.52 1205.01C1561.81 1190.56 1516.38 1187.55 1505.98 1200.19C1500.35 1207.03 1517.04 1235.37 1520.28 1242C1528.84 1259.49 1530.67 1283.46 1541.87 1301.16C1543.78 1304.18 1549.65 1301.59 1552.6 1303.28C1556.52 1305.53 1559.16 1311.02 1561.81 1314.56C1568.31 1323.25 1569.75 1347.75 1584.68 1337.83C1609.05 1321.66 1628.1 1297.24 1638.92 1270C1643.66 1258.07 1644.36 1243.41 1650.84 1232.32C1656.74 1222.24 1661.75 1211.79 1668.2 1202.03C1669.65 1199.82 1675.91 1194.61 1674.9 1191.76C1673.29 1187.23 1655.65 1190.67 1652 1191C1630.87 1192.91 1610.54 1193.62 1589 1192.7C1585.8 1192.56 1569.22 1191.68 1567.76 1194.6C1565.98 1198.15 1576.62 1197.89 1578 1197.78C1591.41 1196.67 1604.78 1200.84 1618 1198M793 1196C799.536 1192.83 837.617 1201.17 837.098 1210.06C836.821 1214.81 828.323 1246.82 826.158 1246.03C808.63 1239.65 807.474 1205.09 793 1196M1665 1194C1662.24 1202.95 1647.43 1232.61 1639 1236C1638.87 1229.1 1627.9 1200.44 1633.94 1196.44C1639.27 1192.91 1657.51 1196.05 1665 1194M200 1198.32C229.833 1195.21 261.795 1218.31 262.46 1250C262.93 1272.4 253.864 1289.66 241.565 1307.7C236.719 1314.81 219.558 1340.51 210.938 1341.57C207.292 1342.03 203.563 1333.43 201.854 1331C193.475 1319.07 186.48 1303.96 182.159 1290C176.403 1271.4 168.627 1253.74 160.754 1236C158.772 1231.53 151.881 1220.95 153.604 1216.2C157.769 1204.72 189.602 1199.4 200 1198.32M1511 1199C1518.37 1199.86 1550.34 1194.29 1554.37 1200.94C1557.26 1205.7 1532.07 1238.91 1526.42 1239.68C1519.5 1240.61 1511.75 1204.74 1511 1199M1971.92 1199.97C1977.71 1200.35 1975.39 1207.1 1970.14 1206.78C1964.49 1206.45 1967.63 1199.68 1971.92 1199.97M2005 1209C2012.13 1192.06 2019.62 1215.08 2005 1209M1626 1203C1628.87 1211.28 1640.1 1239.85 1636.17 1247.51C1633.51 1252.68 1595.71 1257.92 1592.93 1252.18C1591.04 1248.29 1597.13 1241.96 1599.04 1239C1606.59 1227.35 1615.49 1212.03 1626 1203M1273 1410C1238.85 1417.33 1202.85 1393.25 1187.76 1364C1163.78 1317.48 1159.69 1254.44 1174 1204C1184.81 1210.26 1192.04 1230.56 1198.82 1241C1219.5 1272.83 1255.09 1311.4 1265.51 1348.08C1271.29 1368.45 1265.26 1389.36 1273 1410M1530 1249C1536.2 1237.31 1545.81 1226.01 1554.1 1215.68C1555.62 1213.78 1558.82 1205.78 1561.79 1206.32C1564.64 1206.84 1565.48 1214.75 1566.38 1217C1569.15 1223.88 1585.42 1247.8 1579.18 1253.72C1571.95 1260.57 1539.05 1251.33 1530 1249M858 1288C824.95 1261.8 845.74 1241.27 843 1208C848.97 1208.91 860.81 1209.7 864.759 1214.84C869.573 1221.11 863.747 1227.94 862.757 1234.08C859.884 1251.88 862.566 1270.24 858 1288M1964 1211C1975.82 1209.4 1971.32 1228.87 1964 1211M1945 1232C1947.43 1227.77 1952.87 1214.51 1958.11 1213.79C1962.63 1213.16 1963.96 1226.7 1961.86 1229.18C1959.07 1232.48 1949.08 1231.76 1945 1232M1987 1224C1977.59 1238.35 1976.14 1220 1977 1213C1981.69 1215.81 1982.57 1221.05 1987 1224M2011 1227C1989.32 1240.57 1996.24 1211.57 2005.26 1215.13C2008.81 1216.53 2002.92 1224.76 2011 1227M972 1236C962.227 1260.44 929.679 1293.26 908.992 1309.26C904.801 1312.5 892.569 1329.99 887.325 1326.67C857.27 1307.63 868.966 1277.32 869 1249C869.007 1243.42 869.909 1219.37 875.501 1217.04C884.233 1213.4 900.693 1220.63 909.078 1223.36C928.856 1229.81 951.298 1236.19 972 1236M2016.65 1217.35C2020.93 1218.22 2020.04 1227.18 2015.41 1225.78C2011.57 1224.61 2011.97 1216.4 2016.65 1217.35M2016.69 1233.14C2022.31 1235.15 2015.59 1246.76 2013.95 1250C2005.87 1265.93 1998.64 1283 1988.96 1298C1987.27 1300.62 1980.69 1314.74 1977.34 1313.81C1967.55 1311.09 1965.84 1278.17 1962.47 1271.5C1959.45 1265.52 1942.19 1248.51 1945.06 1239.46C1946.45 1235.08 1958 1235 1961.78 1234.66C1976.13 1233.38 2003.21 1228.32 2016.69 1233.14M2026.4 1239.85C2031.33 1237.49 2032.16 1243.5 2027.92 1245.47C2023.51 1247.52 2022.89 1241.53 2026.4 1239.85M509 1244C509 1285.16 510.926 1325.96 511.984 1367C512.178 1374.52 517.974 1402.46 513.583 1407.89C511.445 1410.54 495.487 1390.46 493.618 1388C478.11 1367.58 457.679 1353.25 440.04 1335C435.444 1330.25 423.314 1320.26 423.864 1313C424.241 1308.03 449.554 1282.26 454.245 1284.54C458.308 1286.51 460.964 1299.8 463 1304C466.6 1293.98 459.612 1284.8 461.894 1276.24C464.801 1265.33 498.713 1247.44 509 1244M1937.7 1245.97C1941.08 1246.21 1940.03 1250.42 1937 1250.44C1932.98 1250.46 1934.19 1245.71 1937.7 1245.97M2033 1256C2030.39 1255.29 2028.35 1254.36 2026 1253C2028.83 1267.38 2021.49 1263.96 2013 1271C2021.44 1272.8 2029.61 1270.15 2038 1269C2037.95 1281.01 2033.68 1295.13 2026.45 1304.86C2024.85 1307.03 2012.92 1316.61 2011.36 1310.52C2009.86 1304.62 2020.67 1308 2020.98 1301.94C2021.47 1292.15 2006.64 1278.56 2009.63 1270.99C2012.07 1264.83 2031.02 1235.26 2033 1256M1546 1292C1545.98 1281.44 1530.31 1267.39 1533.88 1257.51C1534.82 1254.88 1569.38 1257.94 1571.59 1261.18C1573.81 1264.43 1561.12 1280.02 1558.62 1283C1555.09 1287.21 1551.43 1290.79 1546 1292M1635 1255C1634.03 1261.85 1629.19 1286.44 1618.16 1284.68C1614.56 1284.1 1600.11 1263.93 1602.19 1260.81C1605.6 1255.69 1628.96 1255.37 1635 1255M1942 1256C1940.26 1269.45 1946.74 1261.72 1950 1271C1941.72 1271 1934.16 1271.76 1926 1273C1927.78 1264.06 1932.6 1256.68 1942 1256M2021 1257L2024 1259C2023.02 1257.22 2023.09 1257.41 2021 1257M2035 1257C2035.64 1258.75 2035.86 1260.13 2036 1262L2034 1262C2034.14 1260.13 2034.36 1258.75 2035 1257M1610 1287C1595.61 1288.73 1576.33 1289.34 1562 1288C1565.07 1281.85 1579.29 1259.55 1586.56 1260.07C1595.58 1260.72 1605.39 1280.16 1610 1287M1938 1259L1939 1260L1938 1259M1933 1306C1931.54 1294.2 1926.27 1286.52 1924 1275C1929.53 1275.73 1947.3 1272.51 1950.93 1275.48C1954.67 1278.53 1937.57 1304.08 1933 1306M837 1276C854.956 1293.88 859.505 1308.21 854 1333C844.347 1323.72 832.853 1289.24 837 1276M2009 1282C2008.44 1285.8 2010.43 1290.07 2009.64 1293.51C2006.81 1305.96 1986.02 1285.05 2009 1282M2045 1283C2044.64 1286.19 2044.18 1287.26 2041 1288C2041.6 1285.03 2042.17 1284.09 2045 1283M1952 1300C1949.85 1300.27 1948.16 1300.26 1946 1300C1950.76 1288.95 1964.65 1279.87 1962.69 1299.9C1962.09 1306.06 1953.74 1304.39 1952 1300M1919.24 1288.08C1921.51 1287.29 1921.98 1291.24 1919.78 1291.59C1917.67 1291.93 1917.45 1288.71 1919.24 1288.08M2044.76 1290.96C2047.2 1289.79 2048.76 1293.2 2046.58 1294.62C2044.03 1296.28 2042.32 1292.12 2044.76 1290.96M1590 1291.64C1594.46 1291.64 1612.03 1289.76 1614.48 1293.82C1620.23 1303.35 1590.03 1332.82 1581.2 1331.68C1577.75 1331.24 1558.95 1295.12 1559.11 1294.9C1562.48 1290.29 1584.38 1291.64 1590 1291.64M1915 1307C1918.04 1303.77 1916.95 1300.08 1919.27 1296.83C1926.79 1286.27 1916.23 1332.43 1905.29 1314.18C1902.76 1309.94 1911.17 1295.34 1915 1307M2048 1303C2043.02 1304.82 2038.31 1305.89 2033 1306C2038.28 1297.29 2040.37 1294.45 2048 1303M2005 1308C1990.59 1308 2002.68 1294.68 2008 1300C2010.35 1302.35 2004.8 1307.2 2005 1308M1947 1301C1952.86 1324.88 1943.9 1315.94 1923 1317C1926.9 1303.94 1931.75 1315.48 1938.61 1311.47C1942.56 1309.16 1943.15 1303.7 1947 1301M2003 1312C1998.3 1316.11 1991.08 1316.63 1985 1317C1988.52 1302.87 1992.96 1306.83 2003 1312M1961 1306C1963.63 1319.07 1948.36 1311.27 1961 1306M862 1309C876.911 1314.75 887.419 1336.95 877.064 1349C875.039 1351.36 870.837 1359.2 867.137 1358.68C852.13 1356.54 862.229 1317.83 862 1309M1971 1319C1960.17 1318.22 1968.46 1308.23 1971 1319M953 1425C930.391 1413 905.153 1397.43 886 1380.32C874.29 1369.86 868.44 1355.67 886.656 1346.11C892.812 1342.87 901.106 1358.08 903.844 1361.98C917.319 1381.17 946.929 1402.62 953 1425M209.446 1360.32C213.49 1359.64 219.761 1371.18 221.67 1374C232.65 1390.22 241.629 1405.9 249.126 1424C250.994 1428.51 260.817 1442.41 252.844 1444.85C220.065 1454.9 195.795 1425.08 200.298 1394C201.008 1389.1 204.107 1361.23 209.446 1360.32M854 1380C854.063 1373.23 855.758 1366.74 856 1360C865.699 1363.87 862.388 1376.53 854 1380M20 1485C29.2206 1500.59 42.6309 1512.98 52.5159 1528C55.085 1531.9 62.3828 1537.62 60.9722 1542.84C58.7207 1551.18 29.0234 1557.01 29.3231 1559.07C31.5352 1574.26 57.9152 1553.67 60.2033 1568.11C63.6457 1589.83 58.283 1617.44 59.0404 1640C59.1942 1644.58 58.1022 1661.86 62.7116 1664.07C69.2173 1667.2 65.8691 1644.16 69.5685 1648.79C73.5872 1653.81 74.4048 1682.8 71.1776 1687.98C68.6353 1692.06 52.0923 1702.77 61.6043 1708.6C66.2505 1711.45 73.8222 1707.52 79 1708.79C113.773 1717.37 150.164 1714.36 186 1716.86C197.873 1717.69 217.481 1713.98 227.992 1719.86C273.559 1745.36 289.87 1815 349 1815C324.411 1797 293.093 1779.78 274.477 1754.66C271.231 1750.28 275.227 1745.78 272.354 1742C265.164 1732.55 253.589 1726.94 247 1717C268.812 1725.54 301.728 1722 325 1722C328.89 1722 352.379 1724.2 347.429 1715.39C343.58 1708.54 332.279 1711.82 326.214 1711.51C322.111 1711.29 319.056 1707.01 314.997 1705.92C306.371 1703.62 291.548 1707.33 285 1702C304.647 1698.3 300.642 1685.96 302.438 1670C305.722 1640.83 303.615 1611.21 306.68 1582C307.146 1577.56 313.217 1543.37 311.986 1542.41C306.129 1537.82 302.944 1556.03 303 1559C287.925 1556.91 296.694 1536.15 288.851 1535.68C269.344 1534.5 242.956 1543.2 223 1545.78C198.754 1548.92 174.317 1541.51 150 1541.02C133.134 1540.68 110.22 1545.33 94.0786 1540.5C72.7563 1534.12 68.1113 1486.63 45 1485C55.9945 1503.21 67.8731 1528.01 84 1542C57.4674 1547.64 45.4512 1485.88 20 1485M899 1498C905.73 1502.17 920.512 1495.04 928 1493C921.135 1484.82 906.386 1494.42 899 1498M1971 1511C1976.64 1525.11 1974.49 1542.1 1977.55 1557C1979.87 1568.33 1987.56 1585.5 1985.34 1597C1984.14 1603.24 1969.27 1619.07 1962.22 1617.46C1955.47 1615.92 1946.79 1604.33 1942.86 1599C1929.08 1580.29 1911.02 1555.16 1905.83 1532.07C1904.83 1527.66 1913.98 1525.8 1913.24 1524.69C1911.18 1521.6 1900.21 1527.66 1898.61 1529.56C1895.12 1533.67 1901.26 1546.45 1903.12 1551C1911.16 1570.68 1916.56 1591.5 1924.96 1611C1927.22 1616.26 1937.09 1629.9 1933.04 1635.36C1923 1648.87 1887.41 1654.11 1872 1659C1864.77 1661.29 1852.25 1661.99 1851 1671C1870.75 1666.14 1891.2 1660.55 1910 1652.75C1916.29 1650.14 1928.92 1641.16 1935.72 1642.64C1941.84 1643.97 1947.32 1673.64 1949.18 1679.78C1949.97 1682.36 1953.79 1689.52 1950.24 1691.42C1945.76 1693.81 1932.57 1683.02 1928 1681.22C1910.45 1674.32 1889.58 1674.64 1871 1675.02C1866.95 1675.1 1855.03 1674.44 1852.41 1677.96C1849.17 1682.31 1872.55 1680.02 1875 1680C1899.81 1679.87 1933.77 1683.4 1952.16 1702.6C1956.68 1707.32 1962.16 1738.29 1967.91 1736.25C1974.51 1733.92 1969.4 1716.02 1967.82 1711C1961.21 1689.96 1946.18 1663.15 1945.65 1641.04C1945.52 1635.98 1955.08 1629.94 1959.75 1629.93C1965.18 1629.91 1972.88 1644.12 1976.14 1648.02C1990.77 1665.57 2003.19 1685.82 2020.97 1700.58C2025.08 1704 2033.87 1716.3 2039.71 1714.89C2045.71 1713.45 2040.5 1704.71 2038.84 1702C2030.48 1688.39 2024.53 1673.39 2017.64 1659C2010.59 1644.27 1995.93 1617.6 1996.71 1601C1997.06 1593.32 2004.29 1585.13 2007.09 1578C2015.37 1556.89 2017.44 1522.34 1990 1513.41C1984.08 1511.48 1977.2 1511.12 1971 1511M1982.48 1518.05C2007.71 1509.23 2004.88 1560.26 2001.74 1570.96C2000.79 1574.2 1997.75 1586.01 1994.01 1586.68C1990.39 1587.32 1989.87 1574.39 1989.44 1572C1986.97 1558.26 1984.48 1544.8 1982.81 1531C1982.4 1527.57 1977.2 1519.9 1982.48 1518.05M1735.44 1532.76C1697.28 1542.03 1651.29 1545.54 1612 1546.96C1596.54 1547.52 1565.82 1545.38 1553.54 1556.5C1544.43 1564.75 1542.97 1581.91 1543 1593C1543.08 1625.42 1537.21 1662.07 1541.46 1694C1542.46 1701.59 1541.4 1726.74 1546.95 1731.74C1552.69 1736.91 1586.51 1728.77 1595 1728.13C1628.24 1725.64 1664.55 1732.38 1698 1734.08C1709.74 1734.67 1724.26 1738.27 1735.72 1734.79C1742.32 1732.79 1743.09 1698.22 1744.49 1691C1752.48 1649.99 1745.29 1604.94 1751.14 1563C1752.82 1550.94 1753.82 1528.29 1735.44 1532.76M1551 1582C1551.86 1586.97 1554.31 1591.28 1556 1596C1556.97 1584.96 1545.69 1570.48 1556.49 1560.84C1565.81 1552.52 1587.28 1553.89 1599 1552.8C1633.03 1549.66 1667 1545.48 1701 1542.09C1710.39 1541.15 1735.85 1531.03 1743.31 1539.41C1749.69 1546.58 1745.66 1560.79 1744.36 1569C1741.02 1590.13 1742.48 1612.59 1739.91 1633.94C1737.14 1656.97 1738.44 1680.56 1735.18 1704C1734.36 1709.92 1736.05 1724.93 1731.96 1729.26C1725.94 1735.62 1700.37 1729.26 1692 1729.68C1661.6 1731.23 1631.42 1722.12 1601 1723.03C1588.06 1723.41 1565.39 1731.45 1553.41 1727.56C1548.21 1725.87 1549.17 1705.8 1548.57 1701C1544.95 1672.17 1549 1642.09 1549 1613C1549 1606.08 1543.79 1584.86 1551 1582M278 1545C275.609 1547.92 273.507 1549.6 270 1551C270.413 1545.5 272.886 1545.08 278 1545M162 1548C149.712 1555.69 126.149 1549.85 112 1551.32C109.602 1551.57 97.6433 1553.71 97.6433 1549.14C97.6433 1545.65 110.735 1547.04 113 1546.92C129.458 1546.09 145.542 1547.01 162 1548M263 1548C259.806 1559.41 242.991 1554.74 235 1550C244.304 1546.82 253.95 1550.65 263 1548M285 1548C284.863 1556.85 280.059 1558.04 272 1556C275.254 1552.26 280.334 1549.55 285 1548M91 1558C86.2038 1556.78 84.6484 1553.43 83 1549C88.0338 1550.35 90.157 1552.88 91 1558M74 1556C71.8204 1554.12 71.3642 1552.86 71 1550C74.4451 1550.97 74.579 1552.63 74 1556M62 1552C60.5062 1555.67 58.9079 1556.51 55 1556C57.2247 1553.86 59.0461 1552.89 62 1552M405.258 1553.76C400.704 1555.78 404.803 1577.63 404.96 1582C406.045 1612.17 408.76 1641.67 409.011 1672C409.048 1676.47 407.073 1704.11 411.795 1702.78C416.623 1701.41 414.474 1680 414.761 1675.22C416.527 1645.79 415.079 1615.16 411 1586C410.559 1582.85 408.918 1552.14 405.258 1553.76M268.667 1553.67C268.722 1553.72 268.778 1554.78 268.333 1554.33C268.278 1554.28 268.222 1553.22 268.667 1553.67M209 1554.32C213.185 1553.88 243.371 1554.8 240.456 1561.64C236.661 1570.55 219.08 1566.45 212 1565.79C187.905 1563.51 163.196 1562.07 139 1562C135.558 1561.99 117.149 1562.93 116.323 1558.78C115.398 1554.14 144.483 1557 148 1557C155.731 1557 163.304 1556.3 171 1556.04C183.868 1555.61 196.105 1555.69 209 1554.32M550 1569C556.252 1576.29 548.071 1587.4 548.003 1596C547.79 1622.94 547.18 1650.08 548.026 1677C548.159 1681.23 550.857 1708.94 553.255 1708.89C562.929 1708.7 556.698 1687.41 556.217 1682C553.676 1653.41 553.164 1620.41 556.698 1592C557.287 1587.27 563.18 1560.55 555.745 1559.87C550.035 1559.35 542.26 1575.84 539.228 1580C522.881 1602.45 508.77 1625.83 495.237 1650C493.561 1652.99 482.443 1678.66 480.06 1677.36C476.405 1675.36 479.931 1655.82 479.944 1652C480.023 1627.85 480.093 1604.12 480.96 1580C481.25 1571.96 485.705 1556.91 473 1559C477.853 1576.41 472.993 1597.03 472.078 1615C470.935 1637.47 473.997 1659.73 474 1682C458.59 1650.46 441.509 1617.72 428.66 1585C427.108 1581.05 420.07 1553.09 414.744 1555.11C409.85 1556.96 422.346 1585.17 423.821 1589C434.557 1616.88 449.597 1643.98 462.409 1671.04C465.697 1677.99 466.332 1694.72 473.278 1698.59C482.039 1703.46 489.527 1677.71 491.973 1672C503.307 1645.53 519.237 1622.73 533.563 1598C539.272 1588.14 549.697 1581.1 550 1569M1694 1557.44C1664.08 1560.81 1637.38 1563.24 1608 1569.54C1603.35 1570.54 1583.37 1568.25 1581.29 1570.31C1574.36 1577.21 1581.55 1610.22 1580.86 1620C1579.7 1636.7 1579.51 1653.27 1578.96 1670C1578.8 1674.92 1576.25 1683.94 1578.51 1688.41C1582.09 1695.46 1599.1 1697.09 1606 1698.23C1633.49 1702.79 1671.38 1704.77 1698.98 1700.41C1709.04 1698.82 1711.01 1669.15 1712 1660C1714.73 1634.61 1722.39 1605.17 1718.35 1579.86C1717.32 1573.41 1722.92 1564.03 1717.53 1558.69C1713.38 1554.56 1699.36 1556.83 1694 1557.44M251 1559C249.938 1562.98 247.105 1562.94 246 1559L251 1559M798 1611C806.272 1613.64 812.673 1606.06 819 1601.36C834.667 1589.72 850.234 1575.94 867 1566C871.172 1583.57 872.323 1598.27 883.085 1615C887.781 1622.3 903.889 1635.29 903.914 1644C903.951 1657.45 873.492 1678.61 865.398 1689.01C858.825 1697.46 854.991 1713.59 865 1698C871.815 1708.45 886.069 1733.8 898.139 1738.01C909.886 1742.1 929.997 1708.32 938.136 1701.51C942.934 1697.49 949.045 1696.93 950 1690C958.977 1694.68 966.321 1697.05 976 1693C964.449 1690.07 955.578 1693.24 945.839 1683.29C938.679 1675.97 938.005 1663.46 930 1657C931.106 1654.05 931.106 1652.95 930 1650C929.522 1652.17 929.673 1653.79 930 1656C926.167 1653.96 918.993 1649.31 919.938 1644.08C921.352 1636.24 935.276 1627.64 940.845 1622.53C951.213 1613.03 955.9 1587.4 973 1583.12C984.475 1580.24 1011.42 1600.43 1019.57 1594.14C1025.63 1589.46 1007.78 1582.83 1005 1581.07C990.463 1571.9 984.044 1558.9 966.609 1568.51C963.568 1570.19 967.536 1576.4 964.785 1579.57C952.808 1593.41 939.08 1606.47 926.446 1619.74C923.846 1622.47 917.501 1632.48 913.689 1632.48C908.651 1632.48 904.546 1619.46 901.86 1616C892.092 1603.4 884.643 1590 877.147 1576C875.023 1572.03 874.469 1562.68 870.403 1560.39C864.916 1557.29 844.638 1566.8 840.136 1570.5C833.221 1576.18 827.614 1583.49 820.904 1589.44C813.542 1595.97 802.82 1602.35 798 1611M1586 1582C1588.27 1582.75 1590 1583.68 1592 1585C1591.22 1581.48 1590.43 1578.6 1591 1575C1606.87 1580.97 1620.89 1571.03 1636 1567.28C1650.5 1563.68 1665.33 1565.16 1680 1563.78C1686.07 1563.21 1706 1557.88 1710.74 1562.3C1715.35 1566.6 1711.93 1587.13 1711.32 1593C1708.57 1619.47 1710.59 1647.25 1702.78 1673C1701.03 1678.76 1702.22 1690.74 1697.22 1694.76C1685.59 1704.09 1652.89 1695.03 1639 1695C1627.91 1694.97 1593.2 1698.29 1586.39 1687.58C1582.27 1681.09 1586.11 1662.59 1586.78 1655C1588.93 1630.82 1586 1606.18 1586 1582M253 1702C253.633 1699.05 254.585 1696.67 256 1694C223.183 1709.58 215.019 1682.15 192.997 1660C189.106 1656.09 168.804 1637.82 172.105 1631.77C175.734 1625.11 186.922 1620.91 193 1616.84C210.647 1605.02 228.853 1584.94 247 1575.63C260.216 1568.85 268.088 1584.65 279 1567C269.811 1567.92 262.241 1574.59 254 1566C260.294 1564.44 277.359 1557.23 282.74 1563.82C287.086 1569.15 284 1586.31 284 1593C284 1617.94 285.789 1640.61 290.997 1665C292.083 1670.08 295.575 1690.26 292.692 1694.18C287.005 1701.91 261.89 1699.23 253 1702M299 1653C285.711 1642.25 292 1600.6 292 1585C292 1580.5 289.15 1564.26 295.144 1563.53C305.145 1562.31 301.575 1577.49 301.129 1583C299.237 1606.34 299 1629.57 299 1653M75 1630C68.6984 1616.41 71.0131 1595.71 70.9998 1581C70.9973 1578.15 68.6564 1565.05 73.9061 1565.79C77.7851 1566.33 76.3692 1578.01 76.6798 1581C78.0855 1594.55 81.3827 1617.64 75 1630M152 1628C142.078 1645.35 97.9184 1678.45 78 1682C80.3047 1671.95 73.5555 1653.42 82 1646C82.8186 1649.65 83.456 1653.34 84.2226 1657C91.9376 1693.86 95.1222 1629.59 96.4383 1618C96.893 1613.99 96.2211 1606.99 99.1819 1603.84C102.037 1600.81 107.767 1604.16 111 1605C106.491 1599.27 97.8325 1598.85 92.4235 1594.13C88.5361 1590.74 79.2697 1561.74 89.0297 1567.13C114.214 1581.06 125.613 1615.53 152 1628M113 1566C138.881 1571.55 169.51 1570.18 196 1571.01C200.31 1571.15 222.223 1570 224.031 1573.75C225.663 1577.14 217.908 1580.57 215.999 1582.12C205.869 1590.34 194.704 1596.93 184 1604.37C178.458 1608.22 169.068 1620.09 162.096 1620C157.093 1619.94 151.973 1610.48 149.224 1607C140.384 1595.81 115.426 1579.05 113 1566M253 1568L250 1570L253 1568M1054 1569L1053 1581C1054.49 1577.15 1055.64 1572.89 1054 1569M1211 1661C1200.9 1663.42 1190.17 1667.6 1180.78 1672.08C1169.33 1677.54 1159.67 1683.92 1149 1690.67C1146.57 1692.21 1139.1 1695.42 1140.19 1699.31C1141.74 1704.91 1168.87 1702 1174 1702C1201.26 1702.01 1251.18 1703.6 1274.68 1718.56C1280.34 1722.16 1279.54 1732.09 1280.04 1738C1281.57 1756.18 1283 1773.72 1283 1792C1283 1797.86 1279.59 1815.76 1288.88 1814.82C1295.82 1814.12 1293 1797.98 1293 1793C1293 1775.45 1295.25 1759.66 1300.4 1743C1301.58 1739.17 1302.62 1728.53 1305.78 1726.16C1308.88 1723.83 1322.39 1729.53 1326 1730.68C1338.46 1734.64 1371.12 1747.64 1383.42 1739.53C1387.93 1736.55 1386.71 1712.65 1386.97 1707C1388.37 1676.2 1384.01 1642.44 1389.9 1612C1390.97 1606.43 1396.02 1578 1391.16 1574.82C1386.34 1571.67 1372.06 1572.12 1366 1571.28C1338.22 1567.42 1307.73 1568.95 1280 1571.82C1251.36 1574.79 1208.93 1560.67 1182.22 1571.81C1172.11 1576.03 1175.02 1590.44 1175.78 1599C1178.48 1629.32 1188.88 1641.78 1211 1661M231 1572L231 1575C230.304 1573.45 230.304 1573.55 231 1572M1373 1577C1366.53 1587.45 1344.87 1590.11 1334 1594.94C1302.39 1609 1274.74 1629.82 1243 1643.12C1235.39 1646.31 1225.23 1656.12 1217 1656.03C1193.27 1655.79 1179.92 1613.58 1181.43 1595C1181.79 1590.52 1179.35 1582.55 1182.38 1578.82C1187.83 1572.14 1221.4 1577 1230 1577L1373 1577M885 1578L886 1579L885 1578M942 1580C941.014 1581.48 941 1581.2 941 1583C942.289 1581.56 942.401 1581.77 942 1580M1376 1583L1375 1584L1376 1583M1391 1585C1389.46 1586.27 1388.95 1586.49 1387 1587L1387 1584L1391 1585M1049 1587L1050 1588L1049 1587M1608 1587C1602.4 1607.57 1603.25 1632.76 1603.01 1654C1602.94 1659.74 1599.98 1670.59 1603.26 1675.54C1606.36 1680.21 1615.11 1679.97 1620 1680C1631.86 1680.06 1671.57 1688.36 1678.75 1676.76C1689.1 1660.03 1689.89 1627.99 1688.22 1609C1687.71 1603.23 1690.37 1595.48 1687.28 1590.28C1684.19 1585.11 1675.9 1587.94 1671 1587.99C1657.82 1588.14 1629.53 1583.54 1619 1592C1633.69 1595.72 1650 1593 1665 1593C1668.81 1593 1679.15 1591.13 1681.6 1594.74C1685.45 1600.39 1682.42 1618.23 1682.08 1625C1681.5 1636.32 1682.06 1669 1670.76 1675.4C1661.85 1680.44 1646.7 1676.12 1637 1676.01C1629.9 1675.93 1618.51 1678 1612.3 1673.78C1607.24 1670.34 1609.97 1657.27 1610.56 1652C1611.95 1639.71 1618.49 1593.9 1608 1587M1226 1661C1230.3 1651.47 1250 1646.57 1259 1642.29C1284.24 1630.32 1307.67 1614.1 1333 1601.76C1336.89 1599.87 1366.06 1585.66 1368.24 1590.7C1369.62 1593.88 1350.05 1611.56 1347.44 1614.96C1329.26 1638.61 1317.12 1661.69 1307.78 1690C1305.86 1695.82 1303.14 1715.37 1295.93 1715.41C1282.57 1715.49 1279.94 1702.83 1272.54 1694.22C1260.06 1679.68 1244.88 1666.35 1226 1661M1386 1589C1380.96 1625.59 1387.38 1665.46 1380.48 1701C1379.15 1707.83 1383.15 1727.97 1378.7 1732.74C1369.91 1742.17 1333.94 1726.42 1324 1723.54C1319.64 1722.28 1310.43 1721.95 1308.9 1716.71C1306.31 1707.82 1315.93 1693.33 1318.52 1685C1328.14 1654.07 1351.76 1599.43 1386 1589M795 1590L795 1595C796.083 1593.26 796.544 1592.01 797 1590L795 1590M864 1590L865 1595C865.387 1592.81 865.111 1591.94 864 1590M935.333 1591.67C935.278 1591.72 935.222 1592.78 935.667 1592.33C935.722 1592.28 935.778 1591.22 935.333 1591.67M1047 1591C1047.36 1593.03 1047.52 1593.64 1049 1595C1048.99 1592.7 1048.81 1592.45 1047 1591M1927 1591C1937.96 1600.23 1942.16 1614.4 1956 1621C1941.75 1644.63 1924.28 1604.11 1927 1591M805 1593L805 1597C806.267 1595.46 806.489 1594.95 807 1593L805 1593M966 1593C964.499 1597.36 963.22 1601.63 967 1605C967 1600.94 967.311 1596.87 966 1593M934 1594C929.954 1599.51 926.52 1605.64 924 1612C929.398 1608.73 935.04 1600.56 934 1594M1185 1595L1186 1596L1185 1595M46 1596C47.1366 1599.35 48.4454 1601.55 51 1604C50.1885 1600.32 48.8634 1598.44 46 1596M793 1596L794 1597L793 1596M89 1657C82.2221 1646.17 87.7567 1623.33 88.0184 1611C88.0769 1608.24 87.817 1597.06 92.6437 1597.79C96.5179 1598.37 94.0123 1608.57 93.6094 1611C91.1105 1626.08 92.7585 1642.23 89 1657M795 1597C794.126 1600.9 793.211 1604.03 794 1608C797.498 1604.89 797.224 1600.88 795 1597M1044 1598C1043.35 1601.03 1043.06 1603.9 1043 1607C1045.54 1604.44 1045.77 1601.52 1046 1598L1044 1598M834.333 1599.67C834.278 1599.72 834.222 1600.78 834.667 1600.33C834.722 1600.28 834.778 1599.22 834.333 1599.67M864 1601L864 1604C864.696 1602.45 864.696 1602.55 864 1601M1632 1606C1641.43 1613.57 1656.09 1601.25 1665.42 1608.26C1672.04 1613.23 1666.44 1654.91 1659.8 1658.74C1649 1664.97 1629.06 1659.41 1629.76 1646C1630.14 1638.64 1630.35 1631.35 1630.86 1624C1630.99 1622.13 1630.72 1604.41 1625.25 1609.97C1622.02 1613.25 1624.14 1623.71 1623.92 1628C1622.83 1649.6 1620.49 1661.65 1645 1664.32C1651.64 1665.04 1663.91 1667.48 1668.4 1660.54C1672.86 1653.66 1677.16 1609.84 1671.18 1603.94C1664.83 1597.68 1639.04 1602.46 1632 1606M962 1608C963.175 1607.23 963.227 1607.18 964 1606C962.365 1606.55 962.545 1606.36 962 1608M1991 1606C1989.8 1631.01 2009.99 1662.71 2020 1685C2004.99 1681.31 1989.95 1651.92 1980.51 1640.22C1977.69 1636.72 1968.8 1629 1969.53 1624.16C1970.42 1618.19 1985.76 1608.1 1991 1606M794 1612C794.367 1615.07 794.961 1616.68 797 1619C796.633 1615.93 796.039 1614.32 794 1612M1642.21 1614.94C1629.65 1620.75 1636.72 1660.89 1653.79 1652.52C1667.12 1645.98 1667.77 1603.12 1642.21 1614.94M963 1617L964 1618L963 1617M1652 1640L1652 1647C1635.69 1645.46 1644.68 1629.51 1644 1619C1658.48 1619.02 1654.69 1619.76 1650 1626.9C1646.87 1631.66 1644.31 1640.85 1652 1640M860 1623L860 1626C860.696 1624.45 860.696 1624.55 860 1623M883 1625C882.014 1626.48 882 1626.2 882 1628C883.766 1627.02 883.955 1626.78 883 1625M1036 1626C1035.01 1627.48 1035 1627.2 1035 1629L1038 1627L1036 1626M798 1633L799 1634L798 1633M1065.67 1638.33C1065.22 1638.78 1066.28 1638.72 1066.33 1638.67C1066.78 1638.22 1065.72 1638.28 1065.67 1638.33M212 1701C177.016 1693.44 139.562 1695 104 1695C109.574 1679.88 140.284 1641.53 157.93 1640.85C163.847 1640.62 169.298 1649.77 173.135 1653.44C184.574 1664.38 209.367 1684.94 212 1701M927 1641L927 1648L929 1648C928.776 1645.26 928.388 1643.37 927 1641M948 1641L946 1644C947.82 1643.14 948.388 1642.93 948 1641M802 1647C803.176 1646.23 803.227 1646.18 804 1645C802.365 1645.55 802.545 1645.36 802 1647M1035 1649C1036.18 1648.23 1036.23 1648.18 1037 1647C1035.36 1647.55 1035.55 1647.36 1035 1649M890 1650C889.014 1651.48 889 1651.2 889 1653C890.766 1652.02 890.955 1651.78 890 1650M910.147 1654.11C916.239 1652.55 924.938 1671.77 927.6 1676C929.903 1679.66 936.114 1685.62 935.915 1690.13C935.668 1695.73 907.735 1728.56 901.925 1729.9C894.735 1731.56 878.206 1706.19 877.313 1700C876.38 1693.53 903.529 1655.79 910.147 1654.11M1000 1659C1001.63 1658.46 1001.45 1658.64 1002 1657C1000.82 1657.77 1000.77 1657.82 1000 1659M125 1661C122.855 1663.89 120.518 1666.43 118 1669C117.811 1664.74 121.537 1662.75 125 1661M1036 1663C1035.01 1664.48 1035 1664.2 1035 1666C1036.77 1665.02 1036.96 1664.78 1036 1663M1276 1711C1233.91 1706.91 1195.07 1694.42 1152 1697C1157.61 1687.87 1171.61 1682.5 1181 1678.05C1191.14 1673.25 1207.64 1663.22 1219 1663.45C1241.01 1663.91 1267.06 1693.45 1276 1711M1016 1669L1016 1664C1012.58 1665.64 1011.95 1667.92 1016 1669M88.6667 1665.67C88.7222 1665.72 88.7778 1666.78 88.3333 1666.33C88.2777 1666.28 88.2223 1665.22 88.6667 1665.67M997 1666C996.446 1668.07 996.149 1669.87 996 1672C997.82 1669.97 998.44 1668.67 999 1666L997 1666M114.667 1669.67C114.722 1669.72 114.778 1670.78 114.333 1670.33C114.278 1670.28 114.222 1669.22 114.667 1669.67M1816 1679L1816 1673C1811.86 1674.66 1811.86 1677.34 1816 1679M112 1675C109.069 1682.33 100.843 1696.81 92 1696C96.1577 1687.33 102.861 1678.68 112 1675M1003 1677C1002.01 1678.48 1002 1678.2 1002 1680C1003.77 1679.02 1003.96 1678.78 1003 1677M882 1679C881.064 1681.51 880.505 1682.06 878 1683C878.736 1680.44 879.519 1680.02 882 1679M91 1685C89.9641 1688.73 89.1137 1695.54 85.6833 1697.74C84.3226 1698.61 73.6433 1700.91 73.6433 1698.01C73.6433 1695.94 88.5739 1686.49 91 1685M876 1686.33C876.889 1686.33 876.889 1687.67 876 1687.67C875.111 1687.67 875.111 1686.33 876 1686.33M1046 1688C1047.18 1687.23 1047.23 1687.18 1048 1686C1046.36 1686.55 1046.55 1686.36 1046 1688M978 1693C984.489 1692.97 988.717 1692.19 993 1687C987.737 1687.81 981.377 1688.6 978 1693M1286 1720C1296.58 1721.47 1296.26 1725.75 1293.29 1735C1292.71 1736.81 1292.42 1745.36 1289.87 1745.36C1287.26 1745.36 1286.67 1723.43 1286 1720M1024 1728L1025 1729L1024 1728M1064 1751C1067.38 1749.73 1070.11 1748.15 1073 1746C1068.94 1745.65 1065.76 1747.32 1064 1751M871 1805C872.103 1810.11 874.587 1814.23 880 1815C877.497 1811.23 874.762 1807.56 871 1805M988.333 1851.67C988.278 1851.72 988.222 1852.78 988.667 1852.33C988.722 1852.28 988.778 1851.22 988.333 1851.67M1185 1908C1192.41 1936.68 1181.31 1975.43 1181.62 2004.11C1181.78 2019.11 1187.95 2038.31 1188 2055C1188.04 2068.68 1191.52 2082.3 1190.95 2096C1190.81 2099.29 1186.87 2107.11 1189.31 2109.73C1196.99 2118.01 1201.41 2098.19 1202.72 2095C1208.65 2080.59 1224.94 2043.38 1238.48 2035.06C1244.87 2031.14 1260.8 2045.94 1265.96 2049.22C1281.29 2058.96 1316.22 2076.11 1324.74 2092.09C1327.82 2097.86 1326 2107.62 1326 2114C1338.54 2110.5 1330.81 2071.82 1329.68 2061C1324.48 2011.05 1325.23 1957.7 1332.36 1908C1333.79 1898.09 1342.76 1892.25 1344 1883C1332.41 1884.3 1330.89 1892.57 1322 1898.48C1302.39 1911.51 1282.97 1923.65 1264 1937.76C1258.14 1942.12 1246.49 1957.17 1238.98 1957.12C1232.55 1957.08 1227.5 1945.38 1224.18 1941C1216.31 1930.65 1198.55 1908.47 1185 1908M1603 1886C1592.85 1892.36 1581.66 1890.24 1571 1898.84C1537.22 1926.07 1578.16 1969.42 1609 1973.54C1621.01 1975.15 1638.11 1968.88 1649 1973.07C1657.56 1976.37 1664.84 1989.14 1665.81 1998C1669.54 2032.25 1638.7 2069.65 1607 2078.3C1583.64 2084.68 1552.77 2069.02 1550.49 2109.04C1549.96 2118.39 1552.29 2126.97 1553.91 2136C1565.41 2200.3 1644.1 2164.14 1678.44 2142.93C1687.31 2137.45 1692.52 2128.06 1702.14 2123.32C1723.35 2112.85 1740.85 2136.93 1758.93 2109.99C1770.63 2092.56 1787.4 2023.41 1745 2035.21C1722.77 2041.39 1715.45 2064.36 1702.33 2079.85C1699.03 2083.74 1691.12 2085.36 1692.23 2077.97C1694.68 2061.82 1701.44 2040.44 1714.08 2029.42C1727.71 2017.53 1745.33 2018.8 1759.96 2009.68C1779.68 1997.37 1782.44 1962.61 1765.91 1947.26C1752.69 1934.98 1731.97 1937.63 1722.96 1954.08C1720.77 1958.08 1724.45 1975.82 1718.18 1974.24C1685.2 1965.89 1729.66 1910.97 1704.98 1896.06C1691.13 1887.7 1659.89 1887.35 1652.84 1906.03C1649.71 1914.33 1660.49 1922.17 1655.26 1930.25C1638.14 1956.66 1617.89 1937.52 1612.3 1916C1609.6 1905.59 1607.25 1895.94 1603 1886M1590 1892.63C1602.18 1889.56 1604.8 1902.87 1605.9 1912C1608.01 1929.49 1616.53 1947.86 1636.48 1948.27C1646.07 1948.46 1662.08 1933.98 1662.03 1924.44C1662 1918.59 1656.78 1913.09 1658.52 1907.2C1660.75 1899.66 1678.18 1894.93 1685 1895.02C1735.33 1895.72 1678.32 1959.07 1715 1977.38C1719.99 1979.87 1727.59 1978.25 1728.83 1971.99C1731.26 1959.65 1728.51 1939.32 1751 1943.44C1767.73 1946.5 1770.32 1965.34 1770.32 1979C1770.33 2007.37 1743.83 2007.6 1725 2016.54C1704.78 2026.14 1680.23 2059.35 1685.48 2083.79C1687.37 2092.63 1703.1 2086.42 1706.87 2082.8C1719.47 2070.69 1724.78 2054.95 1740 2043.91C1745.57 2039.87 1754.11 2034.76 1759.9 2041.28C1776.4 2059.88 1762.51 2099.6 1746.86 2114.77C1732.49 2128.71 1718.6 2112.22 1702 2118.31C1691.1 2122.31 1685.83 2131.67 1676.96 2138.24C1660.09 2150.72 1626.19 2169.08 1604.98 2170.52C1561.32 2173.48 1543.62 2119.86 1565.44 2088.03C1574.34 2075.05 1593.99 2085.67 1607 2081.98C1640.96 2072.36 1680.36 2031.53 1670.54 1993C1659.49 1949.69 1600.88 1983.53 1575.52 1952.48C1558.91 1932.14 1561.37 1899.85 1590 1892.63M51 1897C54.8903 1905.15 81.1872 1905.79 90 1907.29C126.488 1913.5 163.911 1921.61 200 1929.74C207.52 1931.43 242.503 1931.42 243.926 1941.45C244.519 1945.64 235.803 1949.65 233 1951.44C220.772 1959.24 209.38 1968.36 197.218 1976.32C181.143 1986.84 165.557 1999.03 148.997 2008.63C144.285 2011.36 135.769 2017.91 130.003 2016.17C121.285 2013.54 115.002 1998.73 109.521 1992C90.8244 1969.05 72.0443 1951.49 59.7366 1924C58.398 1921.01 45.0903 1895.53 41.444 1900.97C39.6407 1903.66 53.1633 1926.01 55.1374 1930C67.6682 1955.32 84.3391 1973.32 101.798 1995.3C106.616 2001.37 120.605 2014.38 120.934 2022.18C121.187 2028.18 109.175 2033.38 105 2036.14C88.2834 2047.19 73.1552 2060.88 57 2072.74C51.687 2076.64 33.5948 2085.1 43 2092C47.844 2086.18 62.1984 2096.34 67.4381 2099.51C88.5496 2112.28 114.335 2120.94 137 2131.12C162.15 2142.42 187.919 2152.29 213 2163.79C219.487 2166.77 230.317 2178.75 235.107 2179.7C242.942 2181.24 253.091 2172.06 259 2168.26C272.065 2159.85 284.995 2149.98 299 2143.23C309.047 2138.38 322.616 2135.87 330.429 2127.23C335.646 2121.46 296.758 2103.05 291.008 2099.78C253.321 2078.35 220.731 2054.59 180 2038.74C173.343 2036.15 140.919 2031.6 138.761 2025.31C137.023 2020.25 160.734 2008.28 164.664 2005.5C187.53 1989.35 211.257 1974.53 234 1958.17C237.687 1955.52 256.213 1949.67 257.222 1947.58C266.138 1929.19 220.693 1926.39 213 1925.07C159.722 1915.98 105.073 1897 51 1897M1325 1906C1315.16 1928.31 1295.15 1949.52 1279.31 1967.86C1276.54 1971.07 1266.92 1986.2 1262.7 1985.68C1257.49 1985.04 1240.5 1967.76 1244.05 1962.61C1258.32 1941.87 1301.17 1914 1325 1906M1192 1919C1205.83 1923.79 1217.98 1940.94 1225.43 1952.96C1227.08 1955.61 1233.83 1961.22 1232.46 1964.46C1228.9 1972.84 1209.34 1981.71 1202 1987.46C1200.1 1988.95 1195.09 1994.72 1192.26 1992.59C1189.05 1990.19 1191.12 1978.66 1190.86 1975C1189.56 1956.41 1192 1937.67 1192 1919M1326 1919C1321.85 1967.49 1323 2013.77 1323 2062C1308.42 2056.12 1291.5 2023.48 1280.22 2011C1276.5 2006.89 1268.91 2000.02 1269.02 1994C1269.14 1987.69 1276.8 1981.49 1280.49 1977C1290.97 1964.26 1302.96 1951.41 1312.41 1937.98C1316.72 1931.86 1318.9 1922.3 1326 1919M885 2030C891.225 2046.94 913.118 2062.71 925.79 2075.32C936.535 2086.01 958.712 2100.02 965.141 2113.36C967.849 2118.98 959.228 2134.15 970.129 2136.49C988.538 2140.44 995.042 2115.13 993.893 2102C990.527 2063.52 987 2016.49 987 1974C987 1963.28 997.25 1928.41 988.794 1922.51C977.933 1914.92 976.11 1929.53 969.715 1933.88C963.864 1937.85 952.994 1940.28 946 1941C949.198 1936.62 954.161 1935.93 955 1930C933.283 1934.51 920.014 1955.88 906.672 1971C895.04 1984.18 877.12 1995.93 868.121 2011.04C851.877 2038.31 836.574 2080.84 812 2102C810.073 2077.55 803.483 2056.26 806.438 2030C808.238 2014.01 805.963 1997.99 806.001 1982C806.023 1972.67 805.343 1959.04 808.14 1950.18C810.422 1942.95 815.707 1942.9 813.932 1934C812.849 1928.57 805.028 1913.64 797.038 1921.3C791.905 1926.22 801.922 1949.49 801.411 1956C798.297 1995.7 795.034 2041.41 799.438 2081C800.457 2090.16 788.922 2127.19 804.29 2131.17C812.884 2133.39 818.407 2106.51 821.441 2101.14C832.837 2080.98 847.059 2044.81 865.749 2030.83C869.589 2027.95 878.105 2034.12 885 2030M509.911 1922.88C477.375 1923.37 453.927 1973.14 443.612 1998C433.049 2023.47 422.049 2045.49 424.097 2074C427.9 2126.96 479.177 2164.78 530 2163.88C580.421 2162.99 617.523 2114.3 623.213 2068C625.195 2051.88 626.28 2032.84 614.424 2019.63C603.052 2006.96 585.418 1992.38 568 1990.33C559.819 1989.37 538.224 1997.7 532.677 1992.42C522.916 1983.13 516.728 1954.05 514.518 1941C513.777 1936.62 516.415 1922.78 509.911 1922.88M984 1925C984.016 1928.11 983.523 1929.18 981 1931C981.56 1928.33 982.18 1927.03 984 1925M502.93 1930.54C509.447 1929.49 508.461 1939.7 509.511 1944C512.732 1957.18 528.595 1983.2 526.542 1995.82C525.03 2005.13 500.941 2017.49 494.856 2026.02C472.978 2056.68 483.597 2108.57 521.136 2121.04C556.648 2132.84 583.979 2086.28 578.425 2056C576.412 2045.02 573.857 2035.67 562 2031.84C557.513 2030.39 548.719 2033.03 545.482 2029.18C525.428 2005.3 540.812 1994.66 566 1996.08C579.387 1996.84 585.432 2005.53 595.136 2013.12C645.527 2052.54 609.74 2140.39 552 2155.67C498.05 2169.93 438.099 2131.86 430.233 2076C426.09 2046.58 438.604 2024.04 449.577 1998C458.629 1976.52 476.369 1934.79 502.93 1930.54M970.58 1939.36C974.12 1940.06 980.083 1950.66 980.436 1954.01C982.387 1972.51 979.242 1991.32 981.569 2010C984 2029.52 984.379 2049.33 986.101 2069C986.584 2074.51 992.646 2084.83 984.003 2087.23C975.502 2089.6 985.925 2060.28 976.069 2065.06C969.162 2068.41 979.386 2102.44 963.856 2100.68C953.957 2099.55 938.917 2077.32 931.783 2070.32C913.319 2052.21 883.871 2031.53 883.987 2003.87C884.017 1996.72 897.402 1987.59 902 1983C917.419 1967.6 944.043 1934.08 970.58 1939.36M808 1940C806.553 1942.42 805.675 1943.1 803 1944C804.447 1941.58 805.325 1940.9 808 1940M1945 2102C1954.98 2097.76 1950.54 2077.7 1950.7 2069C1950.97 2054.58 1968.4 2035.89 1976.74 2025C1978.54 2022.64 1982.26 2013.66 1985.17 2013.08C1989.03 2012.32 1988.01 2023.05 1988 2025C1987.94 2036.5 1988.34 2053.11 1984.89 2064C1980.2 2078.84 1962.19 2090.98 1951.56 2101.68C1948.68 2104.59 1939.64 2110.09 1939.64 2114.55C1939.64 2120.92 1949.31 2113.8 1950.62 2112.27C1961.45 2099.62 1974.39 2088.03 1986 2076C1987.44 2093.58 1985 2111.43 1985 2129C1985 2132.69 1983.1 2144.26 1987.43 2146.03C1993.96 2148.7 1991.52 2131.82 1991.72 2129C1992.9 2112.22 1997.42 2086.93 1992 2071C2004.29 2077.71 2014.59 2087.67 2026.56 2095.08C2029.48 2096.88 2036.45 2102.65 2040.13 2100.44C2043.61 2098.36 2033.89 2093.26 2033.36 2090.87C2030.56 2078.29 2034.05 2063.91 2032 2051C2035.04 2052.84 2037.46 2053.68 2041 2054C2040.15 2049.17 2035.28 2046.79 2034.5 2042C2032.16 2027.55 2040.79 2005.43 2033.06 1992.08C2031.63 1989.63 2028.1 1988.16 2029 1992C2014.85 1988.13 2003.61 1972.65 1991.93 1964.35C1989.34 1962.52 1985.74 1955.57 1982.82 1955.57C1974.86 1955.57 1964.73 1980.79 1961.26 1987C1957.1 1994.47 1948.11 2002 1945.17 2009.39C1941.26 2019.21 1944.94 2029.89 1945 2040C1945.11 2061.02 1945 2079.99 1945 2102M36 1959L39 1957C36.9076 1957.41 36.9803 1957.22 36 1959M1986 1965C1989.28 1977.77 1989 1992.86 1989 2006C1971.59 2003.25 1964.87 2040.83 1950 2047C1950 2020.55 1956.44 2008.11 1970.92 1986C1975.9 1978.38 1977.68 1969.84 1986 1965M1199 1999C1202.45 1992.76 1208.35 1989.32 1214 1985.27C1220.1 1980.9 1227.35 1972.73 1235 1971.32C1240.41 1970.33 1244.28 1976.55 1247.39 1979.96C1251.03 1983.96 1256.95 1988.06 1257.5 1993.92C1258.03 1999.51 1243.06 2023.06 1236.85 2022.64C1226.12 2021.91 1209.71 2003.79 1199 1999M1994 1976C2015 1978.68 2029.67 2001.43 2028.36 2020C2028.1 2023.69 2030.82 2032.12 2027.74 2034.94C2023.07 2039.22 1997.17 2014.73 1996.24 2009C1994.48 1998.13 1995.85 1987 1994 1976M1198 2086C1193.67 2065.82 1193.74 2042.63 1193.04 2022C1192.91 2018.2 1190.04 2003.62 1194.69 2002.06C1200.75 2000.03 1232.93 2023.78 1232.9 2030.14C1232.88 2035.33 1226.11 2040.9 1223.41 2045C1215.81 2056.56 1209.83 2078.62 1198 2086M1326 2083C1305.67 2073.39 1288.88 2056.11 1269.68 2044.46C1263.68 2040.82 1248.41 2034.83 1245.19 2028.66C1243.61 2025.64 1258.7 2003.89 1262.4 2002.76C1266.56 2001.49 1277.41 2017.89 1280 2021.08C1291.45 2035.21 1300.68 2050.75 1311.77 2064.92C1319.34 2074.58 1323.39 2065.79 1326 2083M527.724 2004.87C533.043 2005.69 539.623 2026.12 538.991 2031C536.679 2048.86 507.374 2069.54 531.446 2087.47C539.718 2093.63 553.5 2088.43 554.158 2078C554.914 2065.99 536.28 2023.11 563.949 2038.7C571.127 2042.75 571.694 2051.74 573.103 2059C577.61 2082.21 559.442 2119.79 532 2117.76C493.758 2114.93 481.021 2065.26 495.163 2035C499.381 2025.97 515.974 2003.07 527.724 2004.87M875 2022C873.392 2020.28 872.757 2019.23 872 2017C875.036 2018 875.494 2018.86 875 2022M1995 2065C2000.15 2060.95 1986.38 2026 1995.75 2020.66C1999.56 2018.49 2010.34 2029.3 2013 2031.58C2028.89 2045.18 2026.98 2052.36 2027 2072C2027 2074.81 2029.15 2085.68 2026.16 2087.03C2021.36 2089.21 2010.52 2078.42 2007 2075.78C2002.62 2072.49 1997.95 2069.7 1995 2065M216 2158C206.358 2156.63 197.275 2149.89 188 2146.69C150.293 2133.7 115.389 2113.86 78.0779 2100.06C68.1403 2096.39 59.7688 2089.25 49 2088C56.23 2070.74 92.3934 2050.59 108 2040.3C113.045 2036.98 122.694 2029.02 129 2031.91C151.406 2042.18 160.609 2081.72 172.881 2101C184.923 2119.92 207.078 2137.89 216 2158M702.333 2036.67C702.278 2036.72 702.222 2037.78 702.667 2037.33C702.722 2037.28 702.778 2036.22 702.333 2036.67M146 2037C194.242 2037.99 242.63 2077.58 281.04 2102.41C290.989 2108.85 302.001 2113.43 312 2119.84C314.039 2121.14 321.346 2124.35 320.239 2127.62C317.827 2134.75 291.874 2141.72 285.134 2146.09C275.051 2152.62 256.959 2170.46 244 2168.59C229.662 2166.52 219.85 2152.32 211.34 2142.14C191.048 2117.85 174.734 2091.28 160.632 2063C156.082 2053.88 148.377 2047.23 146 2037M338 2048C339.91 2040.56 330.905 2035.83 338 2048M539.842 2041.11C541.27 2040.72 555.282 2081.33 542.893 2084.42C521.314 2089.79 526.336 2044.78 539.842 2041.11M980 2105C980.152 2108.19 979.639 2109.19 977 2111L978 2105L980 2105M988 2105L988 2109C987.221 2107.17 987.216 2106.82 988 2105M976 2129C972.232 2128.11 970.659 2126.46 969 2123C972.728 2124.05 974.322 2125.52 976 2129z"/>
</svg>
