<?xml version="1.0" standalone="yes"?>
<svg xmlns="http://www.w3.org/2000/svg" width="2200" height="2200">
<path style="fill:#0c0c0c; stroke:none;" d="M540 57C532.12 50.2004 528.733 30.0349 517.904 27.2451C502.187 23.1965 525.881 52.6523 532 55C527.211 62.3892 515.446 57.2927 507 60.1667C487.326 66.8616 458.554 77.5776 446.417 95.3889C438.802 106.563 443.889 115.05 444 127C444.269 156.028 444.055 185.019 460.5 210.028C463.526 214.629 465.73 242.421 473.75 239.639C476.948 238.53 472.108 218.88 472 215C471.486 196.484 455.603 174.382 458.5 157C460.002 147.985 480.988 134.328 489 138C491.019 127.227 502.296 122.713 509.717 115.922C520.41 106.136 527.875 92.3252 540 83C539.147 98.4146 549.023 113.283 555.492 126.998C557.527 131.312 563.66 136.064 563.557 140.978C563.347 150.995 536.769 164.656 538.322 172.698C539.256 177.533 556.671 174.589 560 174L559 181C563.218 180.048 583.539 177.907 585.348 175.716C589.461 170.733 580.436 159.411 578.273 155C570.312 138.76 561.977 120.419 550 104C557.043 105.078 559.68 113.736 563.824 118.782C574.644 131.959 585.356 145.471 596.962 157.992C600.921 162.263 611.234 168.296 612.292 174.177C614.839 188.342 604.381 210.173 603 225C612.551 216.473 611.953 192.866 616.123 181.008C620.035 169.883 627.184 179.057 628.505 175.488C631.389 167.693 628.171 156.679 629.032 148.438C630.289 136.402 636.051 124.266 640 113C636.399 114.472 633.867 117.1 630 118C631.845 98.8262 602.415 74.8447 586 69.9368C581.398 68.561 559.003 68.9097 559.003 63.8572C559.003 54.3401 589.218 35.1309 596 28C578.911 24.5354 557.902 55.937 547 66C546.156 60.6943 552.274 50.1497 546 49C548.929 37.3066 552.157 31.9053 563 26C542.44 20.6956 539.554 42.8164 540 57M522 62C514.155 65.9668 502.569 79.9563 493 72C499.9 69.3 515.522 58.8811 522 62M530 61L529 62L530 61M541 63C534.665 82.6973 507.024 108.884 490 120.613C484.63 124.313 477.206 123.97 472.317 127.883C462.598 135.662 458.979 150.113 449 158C443.071 134.558 445.837 93.2173 471 82C468.453 98.792 456.017 110.122 458.282 127.186C458.509 128.894 455.238 134.327 456.266 135.149C459.821 137.99 461.937 123.941 469 128C465.644 116.07 469.106 96.3735 475.954 86.0027C477.402 83.8101 490.399 70.7939 492.894 77.7358C494.063 80.9873 480.28 88.2617 478 91C489.249 89.9507 496.148 78.0237 507 76C500.643 92.2766 485.848 107.598 477 123C493.712 112.528 497.075 88.7371 513.236 77.2429C519.849 72.54 533.028 74.3792 532 64L541 63M1290 68.5168C1268.34 72.0842 1247.76 77.334 1232.1 94.0083C1230.11 96.1218 1213.99 119.05 1221.27 120.214C1224.46 120.724 1235.04 99.1797 1238.09 96.0212C1255.01 78.4585 1302.92 59.0942 1319.29 87.0007C1328.65 102.95 1319.57 118.676 1314.89 134C1307.45 158.363 1289.84 179.18 1282.24 204C1275 227.655 1278.32 256.051 1266.11 277.999C1254.87 298.199 1242.61 281.167 1228.31 285.193C1220.08 287.512 1238.24 294.755 1241 294.919C1257.05 295.872 1268.92 290.115 1276.17 275.562C1286.79 254.262 1281.48 227.473 1289.12 205C1299.55 174.31 1327.89 142.417 1330.84 110C1333 86.2339 1315.1 64.3823 1290 68.5168M624 143C616.811 138.782 612.76 126.322 608.32 119.217C605.72 115.058 603 110.942 600.08 107C599.051 105.61 586.157 88.5503 585.517 93.5898C585.081 97.0234 593.49 103.162 595.432 106.001C603.137 117.268 614.955 133.065 618.967 146C620.248 150.128 616.842 159.872 611.941 160.677C608.691 161.211 611.712 150.547 607.233 148.923C589.203 142.385 568.798 116.295 559.077 99.2358C556.033 93.8938 549.706 83.0994 551.474 76.6792C556.175 59.6121 574.699 82.5991 578.359 81.8823C581.85 81.1987 573.252 75.2043 579.295 74.3804C608 70.4661 617.785 124.98 624 143M1986 98C1991.85 108.788 2006.5 115.651 2010.84 127.04C2012.63 131.733 2006.77 136.5 2004.24 139.856C1997.97 148.147 1980.44 171.781 1969 171.397C1962.34 171.173 1955.06 159.705 1951.35 155C1938.79 139.047 1923.63 125.826 1911.42 109.562C1910 107.67 1896.05 86.6733 1892.76 95.8225C1891.46 99.4292 1904.02 113.476 1906.28 117C1917.54 134.583 1934.99 148.01 1947.79 164.68C1951 168.856 1959.03 175.095 1960.06 180.199C1961.05 185.133 1950.97 192.505 1948.1 196C1937.01 209.504 1916.76 226.246 1910 242C1928 240.884 1941.8 214.432 1953.19 201.823C1956.42 198.253 1962.58 186.704 1967.86 186.636C1972.21 186.579 1977.94 194.055 1981 196.68C1992.71 206.721 2020.19 246.349 2036 239C2026.02 222.531 2006.55 207.162 1992.28 194.242C1989.19 191.442 1975.49 182.876 1975.13 178.982C1974.77 175.17 1983.51 170.232 1985.98 168.001C1997.83 157.293 2007.53 142.419 2020 133C2024.2 142.875 2035.9 150.79 2042.85 159C2051.81 169.579 2057.31 182.092 2065.7 193C2068.71 196.918 2075.5 208.947 2080.77 209.679C2081.97 209.846 2091.52 192.36 2093.79 189.783C2107.7 173.965 2141.35 148.778 2145 128C2127.75 137.294 2109.93 161.916 2097.35 176.997C2094.32 180.625 2085.53 195.624 2080.38 194.919C2069.34 193.406 2056.77 162.487 2050.38 154.136C2046.04 148.463 2024.04 133.685 2025.19 126.426C2026.97 115.241 2061.13 94.2512 2070 87.103C2071.9 85.5745 2085.56 75.8281 2082.89 73.2632C2078.91 69.4231 2068.63 79.782 2066 82.0659C2054.17 92.3306 2042.48 101.939 2030.04 111.341C2026.87 113.738 2022.5 120.369 2018.23 120.357C2007.18 120.327 2002 97.2239 1986 98M873 111C867.145 113.311 858.696 122.796 852.499 122.405C848.333 122.142 850.469 108.215 844.491 111.825C837.479 116.06 848.047 137.246 829.129 139.679C821.031 140.721 822.169 113.619 813.366 117.183C809.086 118.917 819.284 139.684 819.452 143.992C819.61 148.028 805.648 165.927 803.155 163.214C797.644 157.218 797.585 142.619 794 135C788.241 138.724 796.605 177.682 798.107 177.823C805.681 178.531 807.686 170.084 811.941 165.438C816.936 159.984 824.854 159.469 828.666 155.685C838.606 145.815 835.316 134.704 852 145C851.923 124.785 871.068 120.402 886 110C879.841 144.028 874.002 177.314 874 212C874 216.633 877.425 243.334 874.569 244.364C870.78 245.731 861.922 235.477 859 233.298C843.537 221.767 828.209 211.575 812.003 201.117C809.084 199.234 798.554 184.562 794.536 190.771C792.808 193.442 802.331 201.531 804.215 203.143C817.278 214.323 833.66 221.36 847 232.416C855.773 239.688 870.78 256.253 882.992 256.331C893.791 256.399 909.665 239.514 918.562 233.798C941.775 218.885 966.108 202.434 990.922 190.41C997.241 187.348 1008.14 177.914 1014.82 177.66C1020.39 177.448 1027.4 185.205 1033 187C1032.91 181.075 1026.62 177.94 1026.64 173.734C1026.66 169.362 1034.28 167.098 1036 163L1027 165C1028.14 161.183 1029.5 157.579 1031.26 154C1032.42 151.629 1033.64 149.291 1034.96 147C1037.58 142.428 1038.5 132.143 1031.98 140.159C1027.83 145.255 1023.91 166.441 1018.61 168.246C1014.24 169.736 988.527 146.263 985 142C988.962 140.633 1003.23 123.848 999.903 120.027C993.638 112.823 984.409 138.403 984 142C962.895 129.569 971.207 125.889 981 108C969.359 106.337 963.111 119.273 961 129C944.089 117.632 955.167 108.775 963 96C947.66 93.1753 950.506 109.721 941.3 114.459C938.168 116.071 927.163 107.129 927.144 103.816C927.097 95.8772 937.527 88.5422 941 82C921.809 82.6917 925.32 102.68 907 99C910.527 88.4358 901.621 89.2881 895 94C896.235 91.6733 897.563 89.3748 898.682 86.9885C900.203 83.7456 900.887 71.1689 895.346 78.3948C890.729 84.416 889.515 105.733 879.317 106.437C874.172 106.792 877.715 87.9653 874.751 85.3298C869.214 80.405 870.017 106.822 873 111M549 81C546.648 80.9902 546.386 80.8945 545 79C546.952 79.5107 547.457 79.7332 549 81M584 84C583.79 86.9539 584.49 88.4482 586 91C586.803 87.8855 586.079 86.3955 584 84M577 88C577.845 90.8525 578.018 92.3643 581 93C580.088 90.3938 579.317 89.5105 577 88M72 142C73.5339 138.971 75.1512 136.309 76 133C68.9926 134.617 36.86 152.196 35.6493 159.081C34.111 167.828 63.9243 193.098 71.9765 195.208C77.7745 196.727 84.327 191.595 91 192.323C130.451 196.627 168.664 195.78 208 190.543C218.027 189.208 253.246 178.722 261.197 184.338C267.365 188.696 264.84 216.417 266 224C275.352 220.95 273.997 204.242 274 195C274.011 164.097 280 130.167 276 100C283.549 103.186 294.276 109.607 297.181 117.838C298.416 121.339 295.995 133.359 295.995 138C295.995 155.763 299.277 179.78 295.469 196.921C294.334 202.028 276.615 212.166 279.408 216.108C283.449 221.815 292.66 209.929 295.217 207.666C302.062 201.61 301.187 190.08 306.499 186.383C312.204 182.412 347.088 185.435 348.214 178.783C348.866 174.936 340.807 176.223 339 176.516C331.935 177.661 310.379 183.733 304.822 178.178C298.566 171.926 305.104 155.119 302 147C317.245 151.118 333.524 151.536 349 155C347.976 141.357 315.194 148.189 306.284 141.876C298.432 136.313 306.578 122.878 306.056 115.823C305.368 106.535 278.092 90.1519 269.159 91.4568C263.711 92.2527 268.269 97.5688 266.846 100.883C264.103 107.272 263.999 137.707 258.75 139.499C243.498 144.706 222.073 142.264 206 143.078C161.163 145.347 116.474 141.823 72 142M582 101C583.608 99.5498 584.064 98.9487 585 97C582.303 97.5781 582.211 98.2612 582 101M508 132C518.816 124.492 516.67 113.715 531 110C519.414 97.4045 507.421 121.26 508 132M629 133C612.252 128.104 623.934 94.2537 628.713 123.999C629.187 126.944 628.999 130.027 629 133M463.172 111.305C466.982 110.706 464.451 120.981 460.1 120.998C455.946 121.014 460.544 111.718 463.172 111.305M590 111L593 113C592.02 111.217 592.093 111.406 590 111M901 238C904.521 206.611 909.696 176.891 915.465 146C916.703 139.366 915.137 118.521 920.638 114.392C926.889 109.7 938.234 120.44 943 123.676C959.687 135.005 977.081 144.254 993 156.778C997.565 160.37 1007.91 166.432 1008.68 172.767C1009.47 179.315 987.819 186.28 983.136 189.023C958.019 203.738 929.206 230.728 901 238M592 115C592.024 120.92 591.832 128.8 599 130C596.497 136.509 602.1 140.169 604 146L606 146C605.181 138.53 598.943 118.092 592 115M1226 156C1236.6 155.46 1235.59 146.603 1242.34 140.402C1250.36 133.039 1265.22 127.222 1276 127C1270.95 150.974 1258.27 172.268 1253.4 197C1251.14 208.462 1255.79 226.339 1249.2 236.399C1246.26 240.893 1236.76 233.873 1232 241C1237.79 242.616 1248.98 248.947 1253.97 243.314C1264.32 231.616 1259 205.472 1261.48 191C1264.11 175.61 1275.08 163.263 1280.46 149C1282.94 142.417 1284.54 130.862 1281.2 124.292C1278.46 118.916 1267.39 122.791 1263 124.092C1247.33 128.739 1229.81 138.878 1226 156M1016 158C1016.14 151.265 1026.93 132.683 1024.77 128.512C1022.77 124.675 1003.08 146.912 1016 158M480 132C474.092 138.243 471.524 132.596 480 132M504 147C502.109 145.784 498.448 140.412 496.228 140.785C493.939 141.169 491.87 149.19 489.852 151.12C478.473 162.008 467.332 163.577 467 181L469 181C469.16 154.827 501.824 186.036 512.459 171.373C512.911 170.75 507.992 163.526 508 161C511.891 164.008 515.053 165.628 520 166C517.51 157.285 504.045 119.993 504 147M478 142C472.708 148.332 469.969 155.017 468 163C473.901 158.96 477.961 148.732 480 142L478 142M486 143C484.106 146.603 482.659 149.971 482 154C485.13 150.841 487.183 147.497 486 143M450.667 145.333C450.222 145.778 451.278 145.722 451.333 145.667C451.779 145.221 450.722 145.278 450.667 145.333M55 152C77.7139 144.681 94.6264 149.843 118 149.844C149.977 149.845 181.996 148.029 214 148C223.021 147.992 265.853 140.341 262.392 154.853C260.377 163.302 223.905 159.48 216 160.321C185.655 163.55 161.007 160.276 131 159.177C118.634 158.724 106.433 162.027 94 160.559C83.0567 159.268 62.6745 161.066 55 152M562 152C561.961 161.899 561.887 172.797 549 170C552.411 164.916 556.609 154.355 562 152M624 154L624 166C618.398 163.473 619.279 159.067 621 154L624 154M496 156C495.656 160.099 495.535 163.904 496 168C490.845 167.865 483.529 169.25 480 165C486.008 162.881 489.63 157.41 496 156M570 159L568 162L570 159M451 160C451.904 161.76 452.456 163.105 453 165C449.988 164.355 449.502 162.613 451 160M46 161C62.4721 161.218 79.2462 167.089 96 167.922C135.565 169.888 174.558 168.086 214 166.078C222.373 165.652 264.377 159.922 262.462 171.949C260.516 184.176 217.328 184.306 207 185C168.976 187.554 132.095 192.8 94 186.46C73.8347 183.104 57.0528 181.365 46 161M580 170C560.36 174.97 572.92 156.587 580 170M905 164L905 167C904.304 165.446 904.304 165.554 905 164M613 165L612 166L613 165M462 207C447.061 203.815 452.072 146.297 457.611 180C458.228 183.755 458.108 187.413 459.611 191C461.942 196.563 462 200.989 462 207M477 177C478.635 176.455 478.455 176.635 479 175C477.824 175.773 477.773 175.824 477 177M476.667 179.333C476.223 179.777 477.278 179.722 477.333 179.667C477.778 179.222 476.722 179.278 476.667 179.333M1709 179C1699.16 179.929 1675.34 215.907 1681.48 226.226C1685.43 232.877 1692.91 213.299 1693.89 211C1695.75 206.615 1697.89 202.369 1699.78 198C1702.59 191.527 1706.66 185.669 1709 179M799 184C799.406 186.093 799.217 186.02 801 187L799 184M1582 236C1590.73 230.685 1605.31 222.582 1611.74 214.98C1615.73 210.258 1623.26 197.227 1629.86 196.486C1639.01 195.458 1655.86 212.581 1663.44 217.404C1665.86 218.947 1673.81 224.606 1676.47 221.218C1679.28 217.637 1668.94 213.621 1667 212.401C1656.5 205.798 1644.22 192.163 1631 192.199C1615.85 192.24 1596.28 218.646 1585 228C1584.51 217.445 1577.38 202.807 1573.04 193.003C1572.21 191.125 1567.2 182.876 1564.48 186.892C1558.73 195.384 1578.64 227.452 1582 236M1708.01 191.544C1706.3 192.645 1708.98 221.953 1709.17 226C1709.99 242.804 1695.24 263.844 1680 270.529C1655.18 281.413 1592.83 284.736 1571.68 264.759C1554.45 248.488 1549.73 231.02 1561.12 210C1561.8 208.726 1567.08 198.468 1562.05 199.323C1558 200.011 1554.88 209.761 1553.38 213C1545.01 231.14 1550.17 252.337 1565.02 265.761C1590.87 289.143 1653.1 288.377 1684 275.514C1705.25 266.667 1715 242.053 1715 221C1715 217.979 1716.15 186.3 1708.01 191.544M502 222C509.641 221.895 516.358 217.607 524 218.176C540.491 219.404 562.873 234.347 569 209C544.162 220.816 518.743 183.341 502 222M557 219C542.415 222.669 527.637 213.372 512 216C516.182 197.699 548.441 211.549 557 219M291.333 218.667C291.277 218.723 291.223 219.777 291.667 219.333C291.722 219.278 291.778 218.222 291.333 218.667M621 222C609.561 221.603 605.268 229.303 596.679 235.374C583.007 245.038 561.113 262.02 544 263.637C531.788 264.791 521.083 251.432 510.775 247.039C507.191 245.511 481.07 231.148 480.323 235.254C479.133 241.801 506.561 250.615 511.217 254.083C541.871 276.917 564.08 262.851 593 244.028C601.56 238.457 616.788 231.815 621 222M891 245C889.474 247.141 888.598 247.503 886 248C887.526 245.859 888.402 245.497 891 245M390 322C391.952 321.489 392.457 321.267 394 320C391.73 320.14 391.379 320.225 390 322M1687 481C1682.21 511.327 1684.14 550.774 1689.25 581C1690.06 585.799 1693.74 611.546 1699.08 611.19C1705.44 610.765 1703.24 603.018 1702.01 599.217C1697.41 585.067 1696.21 568.738 1694.68 554C1690.55 514.323 1702.53 477.29 1686.91 440C1681.07 426.062 1670.89 408.077 1654 404.94C1624.5 399.46 1597.8 432.705 1580.22 452C1574.9 457.837 1564.76 464.983 1561.86 472.32C1559.51 478.274 1562.23 488.481 1561.92 494.999C1561.08 512.687 1558.84 530.305 1558.13 548C1557.45 565.125 1558.02 581.881 1558 599C1558 602.998 1555.02 615.136 1561.15 615.436C1575.36 616.133 1590.69 588.647 1598.51 578.997C1616.03 557.353 1639.06 540.997 1656.8 519.559C1666.27 508.109 1674.14 488.661 1687 481M135 639C129.441 639.991 123.085 647.92 117.984 646.895C110.958 645.483 106.386 633.499 101.827 628.56C76.0538 600.64 73.8648 571.49 65 537C89.2932 535.054 113.809 532.058 139 532C145.152 531.986 151.912 528.195 157.977 529.556C162.796 530.637 160.457 535.759 165 537C164.908 541.899 171.799 541.752 171.917 548.001C172.24 565.121 164.825 605.015 176.038 619.397C179.731 624.134 184.76 617.698 186.301 614.575C191.921 603.187 186.457 579.817 187.039 567C187.297 561.332 190.744 556.531 190.906 551C191.069 545.429 186.776 531.999 191.603 527.693C194.521 525.09 208.731 524.395 213 524.001C231.529 522.289 249.34 521 268 521C272.966 521 286.757 518.621 290.307 522.603C293.201 525.849 291 537.686 291 542C291 560.94 293.409 582.43 289.256 601C285.87 616.14 279.136 633.514 266.999 643.674C259.643 649.832 242.494 654.011 239 663C265.008 660.277 283.063 636.688 290.619 614C305.089 570.555 301.581 501.946 281.225 461C274.337 447.144 264.361 434.606 253 424.14C248.249 419.763 236.174 412.909 238 425C245.884 421.824 253.038 431.656 257.639 437.038C270.622 452.221 283.346 470.697 286.051 491C286.745 496.21 292.189 508.207 287.561 512.178C282.951 516.135 271.718 514.998 266 515C248.415 515.005 231.458 515.368 214 517.569C209.583 518.125 194.338 522.013 192.039 516.499C186.802 503.933 190.738 477.806 191.019 464C191.171 456.515 195.406 446.37 185 446C187.372 437.783 186 428.512 186 420C175.083 422.279 176.618 438.047 175.812 447C173.533 472.326 177.82 499.505 159.186 520.215C154.564 525.352 145.147 524 139 524C122.079 524 104.883 524.039 88 525.085C82.7148 525.413 68.7352 531.956 66.5794 523.852C59.8542 498.572 70.7791 452.685 83.7183 431.041C88.8224 422.502 99.426 416.084 103 407C84.3858 412.734 71.2302 441.544 67.2626 459C56.1722 507.794 54.8965 565.436 80.0619 610C89.4476 626.621 121.674 678.676 135 639M1643 409.507C1660.15 405.66 1672.01 423.408 1668.53 439C1666.19 449.5 1650.11 461.876 1640 464.436C1630.72 466.786 1609.62 458.209 1610.29 447C1611.18 432.338 1628.97 412.654 1643 409.507M504 563C493.505 576.762 467.747 587.889 460.466 602.625C457.599 608.427 466.716 609.139 470 609C466.575 631.151 487.462 668.975 502.544 683.432C506.051 686.794 515.295 702.623 521.196 699.592C532.917 693.572 544.932 665.462 553.737 654.864C556.859 651.105 558.494 643.954 564.051 643.267C582.763 640.953 618.74 655.964 635.019 664.76C640.254 667.589 653.558 679.716 658.692 671.355C660.906 667.749 657.713 661.664 656.752 658C654.515 649.477 648.179 617.866 638.759 615.202C631.908 613.265 603.214 615.722 601.66 603.5C601.106 599.143 608.979 591.523 611.551 588.242C621.393 575.684 630.923 562.796 639.258 549.22C641.09 546.235 656.107 533.463 646.927 532.087C640.264 531.089 634.66 543.466 631.757 548C624.214 559.781 607.296 592.861 593.782 597.344C588.269 599.173 577.872 592.522 573 590.194C554.919 581.553 536.832 568.434 518 562C534.232 545.31 557.599 533.137 576.32 519.106C582.32 514.609 592.288 503.576 600.217 503.338C615.372 502.883 635.759 522.647 650 528C652.238 515.854 615.534 500.468 605 499C611.791 491.079 616.806 496.806 622.373 492.587C624.968 490.621 622.893 486.55 625.419 484.137C627.105 482.527 635.241 479.414 632.592 475.892C629.918 472.337 623.494 478.739 620.015 477.139C616.866 475.69 616.017 470.218 613 468C616.266 461.475 605.127 439.661 597.6 446.068C593.487 449.569 612.652 476.656 608.74 484.742C606.285 489.815 599.243 492.983 594 491.561C575.929 486.658 557.723 478.282 540 471.875C533.022 469.353 523.948 469.469 518 465C535.642 460.768 578.35 433.491 593 444C593.453 440.434 595.226 432.568 590.634 430.96C585.6 429.198 573.805 437.911 569 439.982C554.163 446.38 524.923 463.252 509 462.394C494.766 461.626 476.076 441.8 462.303 445.16C447.144 448.858 430.195 485.353 422.452 498C420.455 501.261 412.911 511.725 414.095 515.481C414.968 518.248 423.494 520.293 426 521.719C437.404 528.206 448.618 534.973 460 541.522C473.528 549.307 489.019 558.6 504 563M1612 430C1607.8 440.87 1592.52 457.001 1609 466C1607.94 462.968 1607.26 460.203 1607 457C1616.75 462.085 1625.38 470.074 1637 470.849C1655.1 472.055 1675.96 447.332 1677 431C1694.24 450.468 1683.98 472.409 1670.26 490C1647.7 518.95 1622.76 542.949 1598.15 570C1587.8 581.38 1578.02 602.661 1563 608C1567.41 574.748 1564.78 539.718 1567.78 506C1568.68 495.931 1565.16 482.432 1569.04 473C1574.41 459.943 1599.56 436.653 1612 430M1285 438.479C1271 439.584 1257.39 439.487 1244 444.659C1203.86 460.167 1198.29 505.856 1187.85 542C1184.06 555.145 1171.11 596.482 1185.9 605.036C1195.39 610.524 1216.92 606.885 1228 607.007C1231.15 607.042 1238.22 609.063 1240.46 606.161C1243.95 601.626 1240.75 586.968 1241.82 581C1247.41 549.829 1257.66 503.227 1298.02 506.222C1308.34 506.987 1311.42 518.5 1312.64 527C1315.62 547.861 1308.67 572.683 1315.6 592.801C1317.64 598.71 1325.98 598.21 1331 597.864C1345.46 596.866 1362.46 594.717 1376.83 596.501C1382.97 597.263 1376.55 608.982 1383.83 607.652C1387.97 606.895 1389.91 595.238 1389.91 591.68C1389.92 576.242 1383.22 554.828 1380.64 539C1371.85 485.155 1349.14 433.414 1285 438.479M1273.98 444.526C1279.69 444.761 1286.39 454.781 1282.52 460.1C1279.99 463.577 1262.27 463.208 1257 466.684C1238.58 478.827 1229.88 494.636 1221.13 514C1218.49 519.843 1212.95 555.698 1207.73 555.699C1181.36 555.704 1197.77 521.772 1202.15 507C1212.24 472.909 1235.1 442.929 1273.98 444.526M1284 444C1319.23 444 1352.61 455.886 1362.5 493.997C1364.17 500.414 1376 520.173 1368.5 525.377C1360.45 530.963 1351.54 509.201 1347.49 504.04C1327.82 478.995 1297.07 472.167 1284 444M1925.35 444.98C1919.4 447.644 1912.35 464.155 1909.28 470C1905.97 476.307 1903.51 482.012 1902.11 489C1891.38 542.343 1957.77 534.42 1988.06 555.657C1992.49 558.761 1992.77 573.714 1994 578.864C1998.58 597.886 2015.27 608.1 2034 600.086C2059.51 589.171 2110.95 563.499 2099.06 528C2096.18 519.409 2089.72 518.625 2084.78 512.456C2082.47 509.576 2087.07 506.619 2084.25 503.796C2080.55 500.099 2069.15 500.245 2064 498.076C2046.12 490.551 2027.71 483.569 2010 475.587C1988.64 465.96 1951.04 433.479 1925.35 444.98M842 527C829.22 518.361 817.664 484.67 799 489C808.422 501.724 820.454 512.394 830.118 524.823C834.758 530.79 837.744 539.849 844.361 544.043C850.365 547.848 862.974 546.583 870 547.32C892.4 549.671 916.631 552.998 939 553C950.048 553.001 993.326 548.247 993 562C1004.3 554.275 1007.9 553.998 1022 554C1020.65 558.358 1018.06 569.054 1013.53 570.98C1001.38 576.14 978.794 569.651 966 568.32C936.342 565.235 904.834 565 875 565C862.551 565 840.453 569.283 829.149 563.958C825.44 562.21 821.181 539.442 822 535C814.955 538.756 803.337 500.419 797.858 494.51C793.108 489.386 788.231 496.953 797 499C790.938 510.664 800.424 525.354 805.566 536C809.596 544.344 810.53 560.93 817.586 566.998C822.481 571.208 830.181 569.034 836 569.003C852.026 568.915 869.189 570.799 885 568C879.719 582.071 867.767 591.836 863.611 606.007C862.822 608.696 855.999 615.482 858.962 618.111C865.965 624.326 886.716 599.395 890.687 595.436C896.279 589.862 902.37 574.589 907.483 571.319C910.676 569.276 918.222 571.987 922.001 571.999C927.697 572.018 945.103 569.739 948.925 574.822C956.269 584.59 953.328 608.948 970.996 613.813C979.444 616.14 974.089 604.953 981 603C974.969 592.971 969.162 581.502 961 573C979.768 573.074 998.138 578.101 1017 577C1016.41 577.901 1011.25 584.991 1015.09 584.997C1022.36 585.009 1027.87 570.001 1030.25 565C1034.38 556.329 1034.01 547.425 1038.9 539.07C1046.04 526.852 1058.16 515.388 1065.92 502C1072.63 490.422 1071.81 471.219 1052.08 480.345C1033.52 488.927 1021.93 517.167 1006 530C1009.91 513.785 1019.79 508.241 1025.6 494.921C1031.12 482.279 1023.27 449.368 1005.02 463.71C995.755 470.992 991.189 494.593 984.857 506C978.73 517.039 968.166 521.523 960 530C944.263 520.63 915.97 526.522 898 523.192C892.984 522.262 882.556 522.852 879.26 518.317C862.244 494.907 921.301 466.625 888.95 447.247C876.078 439.538 853.048 467.421 855.294 479.764C856.749 487.762 871.422 486.082 872.657 494.051C873.708 500.832 865.888 516.562 870.902 522.063C875.465 527.068 889.679 526.601 896 527.595C919.891 531.351 943.978 532.377 968 535.858C971.996 536.437 998.099 538.352 995.332 544.823C991.95 552.735 969.341 546.255 963 546.04C937.686 545.183 912.311 543.068 887 543.001C878.473 542.978 861.086 544.033 854.675 537.414C847.34 529.84 845.909 509.797 847.648 500C848.3 496.331 853.358 488.152 851.47 484.833C847.801 478.381 842.865 492.234 842.122 494C837.591 504.781 841.897 515.884 842 527M881.218 450.929C896.052 448.782 891.277 481.099 876.981 483.123C855.534 486.159 870.271 452.514 881.218 450.929M1940 482C1956.59 480.75 1953.72 481.086 1948 499C1939.66 497.211 1913.86 502.684 1908.29 496.74C1901.38 489.374 1923.74 453.946 1931.35 451.508C1941.27 448.335 1954.01 461.673 1951.35 471.539C1950.24 475.676 1942.27 477.015 1940 482M468.019 453.001C472.498 451.731 502.249 464.789 501.239 467.606C499.644 472.052 486.271 476.656 482.136 478.637C465.095 486.8 444.315 510.065 426.149 512.973C418.025 514.273 427.101 501.739 428.5 500C437.154 489.25 454.538 456.822 468.019 453.001M2058 504C2042.83 504 2031.43 508.234 2018 515.162C2012.36 518.073 2004.77 526.332 1998.1 525.98C1992.29 525.674 1987.89 514.324 1985.36 510C1975.39 492.984 1962.37 475.208 1957 456C1979.88 457.574 2008.78 481.955 2031 490.315C2039.02 493.334 2052.5 497.294 2058 504M1016 497C1015.32 487.368 1009.37 491.662 1009 499C1000.07 494.761 1002.14 464.435 1013.95 464.435C1023.46 464.435 1024.95 494.392 1016 497M1271 467.328C1286.84 465.463 1288.95 487.35 1283.18 499.737C1280.69 505.069 1270.53 506.346 1266.04 510.062C1257.19 517.388 1251.48 527.897 1246.35 538C1244.08 542.461 1240.69 568.637 1236.5 569.143C1215.2 571.715 1216.14 547.666 1219.44 535C1226.16 509.189 1239.79 471.005 1271 467.328M1319 540C1319 528.65 1321.01 513.857 1310.84 505.937C1306.25 502.357 1294.6 501.552 1291.78 497.219C1287.59 490.784 1290.03 476.451 1290 469C1310.35 475.233 1331.7 493.484 1344.51 510C1347.61 514.002 1357.83 526.527 1353.7 531.968C1347.73 539.817 1327.69 538.038 1319 540M430 519C448.16 504.317 469.217 491.809 490 481.235C496.534 477.91 504.575 470.735 512 470.296C523.296 469.628 542.312 478.513 553 482.601C558.332 484.641 590.383 492.671 590.357 499.144C590.331 505.775 560.691 522.391 555 526.216C542.388 534.692 525.752 554.558 511 557.879C503.519 559.563 491.68 550.271 485.438 546.736C467.831 536.762 448.745 526.439 430 519M1920.28 471.726C1912.07 474.748 1918.55 484.936 1926.85 481.411C1935.07 477.922 1927.08 469.224 1920.28 471.726M1959 477C1976.38 497.2 1989.85 525.373 1992 551C1974.01 542.565 1938.58 540.197 1926 524C1949.89 519.749 1952.7 495.59 1959 477M1066 485C1063.13 496.198 1055.26 502.862 1047.9 511.067C1042.38 517.226 1037.83 524.781 1033.83 532C1032.14 535.055 1011.97 560.797 1011.05 543.57C1010.05 524.653 1049.17 484.003 1066 485M1000 493C1000.53 498.659 1005.02 502.578 1005.49 508C1008.13 538.302 988.894 535.698 967 531L967 529C982.857 522.001 987.283 498.187 1000 493M1945 503C1942.41 512.847 1924.76 526.407 1914.09 520.738C1910.55 518.856 1902.47 507.255 1907.82 503.822C1912.26 500.977 1922.86 503 1928 503L1945 503M2046 508.535C2067.6 506.632 2101.98 518.718 2093.17 547C2086.55 568.238 2047.33 596.318 2025 597.902C2000.22 599.66 1995.07 560.342 1998.32 542C2001.48 524.233 2029.62 509.977 2046 508.535M1905 526C1906.28 531.652 1907.75 536.127 1914 537C1912.27 532.119 1909.09 529.075 1905 526M167.433 531.319C170.181 530.811 169.926 535.153 167.789 535.898C165.096 536.837 164.972 531.774 167.433 531.319M1319 541C1326.57 542.795 1353.95 537.252 1357.14 539.907C1364.66 546.171 1363.49 567.287 1362.86 576C1362.71 578.041 1360.45 587.425 1364.96 586.677C1368.78 586.044 1368.48 577.799 1368.92 575C1370.05 567.788 1362.41 531.279 1369.75 532.748C1374.04 533.607 1373.82 540.692 1373.97 544C1374.37 552.9 1383.54 582.876 1379.52 589.451C1376.31 594.721 1359.34 592 1354 592C1347.46 592 1330.99 595.184 1325.68 591.576C1313.78 583.477 1320.55 552.81 1319 541M1190 554C1194.52 555.072 1204.21 557.635 1206.92 561.644C1210.03 566.26 1202.92 596.326 1198.19 599.665C1180.82 611.917 1184.47 582.897 1186.24 575.68C1187.92 568.838 1189.28 561.02 1190 554M1214.56 564.197C1231.53 559.574 1245.78 596.721 1230.85 600.362C1226.67 601.383 1208.01 601.666 1205.28 598.178C1201.92 593.885 1209.6 565.548 1214.56 564.197M587 603C577.392 645.361 529.35 631.815 501 620.581C494.05 617.827 474.605 614.416 471.617 606.589C469.962 602.253 476.469 597.456 479.041 594.922C485.857 588.207 504.18 564.992 515 568.236C539.927 575.71 560.473 599.906 587 603M895 570C893.456 571.267 892.953 571.489 891 572C892.386 570.106 892.648 570.01 895 570M652 665C638.611 661.952 625.57 652.981 612 648.683C596.946 643.916 580.085 643.506 566 636C572.062 629.529 584.226 613.558 592.475 610.939C598.938 608.888 609.14 617.325 615 619.565C620.735 621.758 628.676 617.648 633.437 620.469C641.154 625.041 650.118 655.967 652 665M516 693C506.566 672.754 494.765 652.814 484.197 633.078C482.235 629.413 470.871 619.709 472.927 615.88C474.512 612.927 488.25 621.168 491 622.103C506.299 627.303 521.137 632.357 537 635.648C540.361 636.345 551.369 637.494 553.057 640.74C555.68 645.788 535.039 668.21 531.723 673C527.232 679.487 522.965 689.053 516 693M1200 876L1194 876C1197.3 884.414 1214.63 890.215 1215.94 897.184C1216.69 901.168 1206.82 911.125 1204.76 915C1197.99 927.715 1194.04 942.836 1192 957C1195.06 957.109 1197.99 957.463 1201 958C1204.49 903.287 1268 853.652 1319.99 890.681C1337.42 903.091 1340.51 933.635 1348 953C1361.62 944.086 1333.49 911.021 1342.35 900.321C1361.8 876.839 1384.97 867.508 1395.16 835.562C1400.23 819.651 1397.84 787.005 1377 784.269C1365.66 782.78 1353.27 791.355 1344 796.99C1327.33 807.121 1313.01 827.165 1305.81 845C1302.49 853.209 1303.24 871.86 1292.86 875.083C1280.6 878.885 1264.98 875.966 1261.82 863C1261.02 859.735 1260.49 837.524 1254.32 839.761C1245.87 842.824 1260.02 869.095 1258.14 874.403C1256.88 877.984 1247.35 879.095 1244.14 880.5C1228.94 887.142 1222.84 894.434 1207 884C1218.23 878.604 1204.93 865.334 1200 858C1185.17 835.949 1173.55 803.617 1190.56 779.147C1197.07 769.785 1208.11 776.167 1213.4 783.079C1224.37 797.421 1231.5 817.555 1235.47 835C1236.29 838.627 1237.81 855.059 1243.82 852.568C1250.41 849.84 1243.35 835.676 1242.26 831C1237.65 811.21 1229.43 783.028 1212.3 770.181C1196.3 758.181 1179.47 779.522 1175.85 793C1167.1 825.527 1191.83 848.198 1200 876M1373 790.831C1390.02 789.644 1387.22 814.344 1386.98 825C1386.48 846.914 1360.15 890.089 1336 892.587C1331.54 893.048 1326.65 887.891 1323.01 885.799C1303.79 874.758 1304.63 875.004 1310.92 853C1317.62 829.563 1346.17 792.701 1373 790.831M797 823C802.711 828.645 812.169 828.707 818.783 833.856C834.439 846.044 850.177 879.547 845.421 900C843.042 910.23 826.011 915.369 826.525 926.778C827.04 938.2 847.109 935.274 847.164 950.851C847.171 952.808 848.651 954.455 850.701 954.215C857.712 953.394 861.148 939.966 864.729 935.457C870.24 928.518 879.677 926.055 885.172 918.974C899.93 899.955 894.668 883.74 923.989 890.228C932.4 892.09 931.302 900.976 931.871 908C932.929 921.038 935.789 941.791 943.244 952.78C948.573 960.636 961.313 966.96 969.47 959.106C973.407 955.315 967.443 952.423 969.462 948.556C971.212 945.205 978.072 942.657 981 940C975.971 939.493 971.045 942.413 966 943C973.466 933.687 986.596 935.98 995 927C983.978 924.024 986.148 915.985 980.463 907C977 901.529 968.569 897.336 967.285 890.952C965.695 883.051 970.273 876.245 971.644 868.783C975.579 847.377 975.807 806.099 1005 807C1004.04 804.172 1002.87 802.342 1001 800C1011.72 799.255 1013.45 794.282 1002 796.339C989.786 798.534 984.088 803.374 971 799.665C967.443 798.657 959.468 793.036 955.969 795.381C953.08 797.318 960.935 799.89 959.72 802.798C955.797 812.184 944.199 819.056 939.845 829.007C933.917 842.556 935.166 856.946 932.118 871C931.39 874.356 932.056 882.292 928.819 884.278C925.32 886.424 916.907 883.727 913 883.321C909.984 883.007 904.356 884.199 901.807 882.423C901.186 881.99 900.793 862.336 899.838 859C894.746 841.214 888.584 827.09 873.462 815.203C860.951 805.368 819.077 798.22 809.544 816.614C806.505 822.477 819.737 817.586 821 817.019C846.886 805.415 873.239 814.938 886.996 841C891.585 849.693 900.294 878.801 888.796 885.033C884.141 887.557 858.672 896.107 854.685 893.641C849.946 890.709 850.238 877.053 848.487 872C841.012 850.435 825.824 817.081 797 823M2009 1000C2020.46 995.038 2018.57 967.842 2019.59 957C2023.2 918.574 2029.46 868.462 2018.01 831C2015.17 821.703 2021.17 804.063 2010.97 799.188C1999 793.463 1984.34 837.145 1980.45 846C1977.33 853.097 1969.21 860.257 1967.46 867.029C1960.48 894.019 1967.3 930.015 1966.99 958C1966.83 972.933 1963.36 993.327 1968.5 1007.69C1970.77 1014.04 2002.8 988.578 2009 1000M1622 813C1615.94 847.753 1603.07 880.458 1598.79 916C1597.25 928.723 1593.22 949.527 1601.42 960.927C1607.67 969.607 1652.15 961.232 1663.14 959.354C1676.17 957.126 1700.2 961.036 1710.96 953.278C1720.87 946.13 1724.82 932.152 1728.06 921C1735.88 894.05 1752.5 847.418 1729.65 823.758C1716.41 810.06 1708.73 814.993 1693 811.303C1672.56 806.507 1646.21 796.565 1625.04 804.814C1612.56 809.678 1600.34 826.706 1591 835.997C1581.28 845.67 1571.44 855.515 1561 864.409C1559.25 865.898 1550.94 870.451 1552.54 873.393C1556.62 880.876 1569.44 865.399 1572.01 862.922C1588.69 846.829 1604.17 827.547 1622 813M968 805.847C970.996 805.415 979.695 804.943 981.033 808.501C982.741 813.044 975.341 821.933 973.436 826C967.732 838.172 965.522 852.965 962.382 866C961.367 870.212 960.595 889.445 956.499 890.603C939.651 895.367 938.939 879.958 939.003 869C939.1 852.086 946.463 808.951 968 805.847M65 825C69.7304 824.392 79.8842 820.279 84.159 823.396C87.3919 825.753 84.0235 836.371 84.0026 840C83.9101 856.08 83.8707 871.151 90 886C61.3449 885.455 55.5516 875.259 57.0582 849.019C57.3159 844.531 64.0112 816.553 58.606 815.786C53.2847 815.03 53.4217 826.811 52.7793 830C50.7726 839.962 45.3592 874.106 52.01 882.205C56.7507 887.978 72.8914 890.334 80.0002 891.096C100.859 893.333 120.825 897 142 897C133.119 919.68 141.725 954.912 141.992 979C142.078 986.682 139.608 1001.57 142.9 1008.4C146.435 1015.73 172.323 1006.61 176.117 1002.02C178.783 998.802 174.975 982.04 175.003 977C175.098 959.478 179.185 942.346 178.992 925C178.924 918.826 174.731 906.807 176.94 901.325C179.049 896.09 187.876 898.821 192 898.96C201.291 899.272 228.99 901.957 235.874 895.178C241.447 889.691 238.469 877.969 239.236 871C241.392 851.403 242.181 828.457 249 810C208.432 795.917 151.324 812.378 110 815.88C97.2053 816.964 71.0611 808.645 65 825M1686 952C1667.64 952.073 1648.28 953.577 1630 955.218C1625.17 955.651 1612.66 959.93 1608.55 957.526C1599.28 952.114 1603.03 931.498 1603.78 923C1606.41 893.436 1613.3 865.366 1622.21 837C1624.52 829.657 1624.36 815.889 1630.25 810.257C1637.28 803.528 1687.04 809.272 1691.1 818.526C1694.71 826.771 1682.63 850.339 1681.31 860C1676.85 892.707 1675.59 920.819 1686 952M237.171 813.223C243.384 814.232 237.111 830.468 237.019 835C236.68 851.602 239.861 896.634 215.07 892.154C205.896 890.496 208.732 863.45 208.129 856C207.55 848.854 200.815 820.292 205.338 815.26C208.355 811.902 232.475 812.46 237.171 813.223M172.93 814.39C179.769 814.167 178.658 824.068 179.001 829C180.102 844.844 183.896 861.727 188.009 877C189.179 881.345 192.468 891.909 185.852 892.852C170.106 895.097 152.839 891.962 137 891.999C131.55 892.012 123.844 893.208 119.859 888.576C112.902 880.491 114.974 864.86 113.521 855C112.555 848.443 106.649 829.39 111.862 824.04C115.429 820.378 123.372 821.4 128 820.596C142.91 818.008 157.57 814.891 172.93 814.39M186.822 814.822C191.582 811.809 197.623 814.912 198.452 820.03C201.194 836.949 203.692 857.836 202.845 875C202.676 878.429 204.084 890.663 201.2 892.592C195.605 896.336 195.264 880.404 194.923 878C192.667 862.083 187.542 846.025 186.206 830C185.913 826.48 183.138 817.154 186.822 814.822M1979 856C1992.66 848.252 1988.53 826.362 2000.56 818.391C2010.89 811.552 2014.85 838.867 2015.16 844.981C2016.08 862.778 1988.48 861.98 1979 856M1700.72 820.822C1715.04 812.745 1730.96 830.402 1733.24 843C1737.88 868.631 1727.37 894.341 1722.28 919C1720.27 928.708 1714.68 944.235 1704.98 948.694C1687.09 956.921 1685.72 935.814 1684.86 924C1682.99 898.127 1684.23 871.346 1690.04 846C1691.44 839.85 1694.87 824.125 1700.72 820.822M92.8141 823.822C106.456 815.349 106.385 864.75 107.319 873C107.641 875.85 112.311 887.732 110.109 889.1C87.9375 902.877 89.9973 850.472 90 841C90.0012 836.923 88.7166 826.366 92.8141 823.822M467 839C490.459 869.747 549.645 859.291 580 846.364C590.251 841.999 609.334 836.276 612 824C601.534 825.68 591.748 835.292 582 839.65C565.137 847.189 544.384 851.551 526 852.863C515.062 853.643 499.177 851.761 489 847.559C481.491 844.459 475.708 837.224 467 839M611.777 833.544C607.017 836.085 602.85 861.231 600.882 867C599.155 872.061 593.149 885.347 594.271 890.366C595.699 896.757 604.505 909.328 607.269 918C615.265 943.082 620.043 969.006 628.438 994C632.744 1006.82 637.155 1019.55 642.408 1032.01C643.657 1034.97 646.848 1043.94 651.526 1042.03C655.616 1040.36 651.524 1033.39 650.409 1031.01C644.735 1018.9 640.332 1006.76 636.382 994C624.113 954.369 596.401 900.322 609.826 860C610.614 857.633 619.237 829.561 611.777 833.544M125 838L127 852L124 852C123.832 848.595 123.608 846.303 121 844C121.012 869.423 129.995 863.888 149.992 861.971C155.07 861.485 161.331 868.928 165.749 863.255C183.505 840.453 155.533 838.823 141 847C142.053 837.512 131.759 839.453 125 838M651 1052C638.668 1054.83 628.272 1067.43 614.04 1069.32C603.321 1070.74 594.995 1060.07 583 1062.95C572.121 1065.56 563.271 1077.55 552 1077.58C535.376 1077.62 521.861 1063.62 505 1063.04C489.973 1062.52 475.027 1063.99 460 1064C456.561 1064 447.649 1066.36 444.907 1064.48C439.393 1060.7 452.022 1031.39 453.779 1026C463.337 996.682 471.657 967.987 479.129 938C481.744 927.504 483.113 907.112 489.597 898.601C492.691 894.539 509.263 901.293 514 901.775C535.005 903.912 554.836 901.101 574 891.952C581.069 888.577 590.814 886.401 590 877C559.335 890.236 526.144 906.799 492.217 890.221C481.618 885.043 475.874 862.454 469.298 853C467.739 850.758 463.52 841.747 459.802 843.106C455.55 844.66 465.057 857.004 466.199 859C475.5 875.266 486.215 890.904 480.624 910C468.185 952.491 458.209 995.25 442.957 1037C440.483 1043.77 429.794 1075.21 435.233 1080.71C439.51 1085.04 441.104 1072.47 443.002 1071.08C445.865 1068.97 463.472 1071 468 1071C481.736 1070.99 496.499 1067.31 510 1070.02C523.339 1072.69 534.221 1081.91 548 1082C563.87 1082.1 573.861 1067.57 588 1067.85C605.673 1068.2 644.729 1082.4 651 1052M136 853.333C136.889 853.333 136.889 854.667 136 854.667C135.111 854.667 135.111 853.333 136 853.333M2015 855C2018.26 889.98 2012.4 925.084 2011.04 960C2010.84 965.038 2012.01 994.735 2000.82 989.039C1994.94 986.043 2000.77 962.462 2000.96 957C2001.54 940.378 2004.92 923.792 2004.92 907C2004.92 894.193 2000.81 879.649 2003.28 867.003C2004.44 861.102 2010.08 857.628 2015 855M1975.6 862.902C1984.56 858.682 1997.47 869.754 1997.92 878C1999.5 906.986 1994.06 935.382 1994 964C1993.97 978.263 1995.92 994.369 1980.87 999.547C1969.59 1003.43 1973 982.485 1973 976L1973 894C1973 888.366 1969.83 865.623 1975.6 862.902M890 891C885.731 907.584 874.286 928.854 856 933C857.442 924.451 853.134 910.235 855.9 903.236C859.153 895.004 882.228 891.617 890 891M964 959C945.265 957.771 940.415 926.84 939.131 912C938.808 908.258 935.95 897.132 939.26 894.378C942.53 891.657 956.278 896.288 957.421 900.324C961.219 913.74 952.176 932.23 955.019 944.745C956.066 949.354 962.683 953.049 964 959M146.829 898.822C153.954 894.231 169.106 899.838 170.716 908.003C175.198 930.739 170.295 955.447 168.218 978C167.578 984.953 172.147 998.028 164.852 1002.16C161.62 1003.99 153.174 1006.71 150.26 1003.18C146.62 998.757 148.056 985.539 147.992 980C147.783 961.665 146 943.417 146 925C146 920.461 143.128 901.206 146.829 898.822M966 902C972.853 905.798 982.284 918.152 980.515 926.756C979.769 930.383 967.945 934.835 965.26 932.052C962.046 928.722 964.945 919.174 964.992 915C965.043 910.563 965.066 906.354 966 902M849 908C849.007 911.602 853.783 932.781 849.597 933.687C846.763 934.301 835.597 927.181 832 926C835.964 918.931 841.787 911.842 849 908M1002 1312C991.277 1309.52 995.167 1271.65 990 1261C992.393 1261.16 998.658 1260.78 995.671 1256.58C993.611 1253.69 989.039 1255.24 986.617 1251.83C976.827 1238.03 974.001 1217.51 974 1201C973.999 1194.36 970.917 1183.38 973.04 1177.28C973.766 1175.19 981.925 1171.05 979.894 1169.13C976.426 1165.87 967.598 1169.91 964 1171.18C953.552 1174.88 935.629 1183.61 925 1183C928.502 1179.59 946.371 1152.11 933.725 1161.07C923.54 1168.28 921.451 1183.65 910 1190C910 1184.26 909.535 1178.71 909.136 1173C908.881 1169.34 909.026 1165.66 908.911 1162C908.724 1156.02 899.943 1143.71 898.689 1155.07C897.827 1162.87 909.932 1199.2 901.88 1203.15C898.538 1204.79 895.271 1196.98 894.075 1195C890.464 1189.01 880.128 1166.02 871.235 1167.32C872.376 1167.16 861.369 1195.4 859.639 1199C842.448 1234.76 829.123 1272.35 833.225 1313C839.253 1372.74 912.229 1391.79 959 1365.64C978.267 1354.86 991.844 1330.36 1002 1312M614 1322C599.619 1316.04 589.78 1295 578.981 1284C550.926 1255.42 521.214 1229.08 492.078 1201.68C480.311 1190.62 465.85 1165.07 450 1165C456.435 1180.89 452.179 1198.86 454.457 1216C460.007 1257.78 466.899 1301.9 467.984 1344C468.45 1362.09 471.468 1380.11 473.567 1398C473.924 1401.04 473.654 1414.06 475.378 1415.78C478.257 1418.65 493.737 1415.98 498 1416C517.318 1416.11 536.814 1420.28 556 1422.56C576.914 1425.05 597.98 1423.61 619 1424.02C624.831 1424.13 636.504 1426.54 641.149 1421.97C646.099 1417.09 629.961 1417.39 628.501 1412.85C624.232 1399.6 625.018 1378 625 1364C624.996 1361.18 621.847 1348.74 623.883 1347.43C625.787 1346.19 634.142 1352.54 636.012 1353.79C647.634 1361.58 659.275 1373.49 669.177 1383.44C671.176 1385.44 679.463 1396.45 682.587 1391.45C685.393 1386.96 677.125 1380.82 674.562 1378.04C664.437 1367.06 651.165 1358.23 640 1348.2C609.321 1320.64 615.354 1256.12 614.04 1217C613.41 1198.22 603.381 1169.69 627 1173C624.96 1170.33 622.732 1167.88 621 1165C635.73 1170.77 663.024 1165.7 675.362 1177.04C680.333 1181.61 678.602 1203.14 679.217 1210C682.152 1242.71 680.416 1276.16 682.078 1309C683.2 1331.17 684.403 1354.11 687.602 1376C688.135 1379.64 687.75 1395.64 692.258 1396.21C697.574 1396.89 696.416 1388.91 695.876 1386C693.46 1373 691.953 1360.13 690.783 1347C686.63 1300.44 688.382 1253.43 684.217 1207C683.607 1200.19 679.416 1186.8 682.039 1180.5C683.244 1177.61 694.287 1178.46 692.251 1174.59C688.953 1168.33 662.879 1167.05 656 1164.32C644.448 1159.73 623.402 1157.07 611.144 1159.72C604.4 1161.17 601.672 1166.67 593 1166.96C567.466 1167.82 542.439 1160.89 517 1160.04C503.285 1159.58 489.699 1160.99 476 1161C473.43 1161 463.614 1160.1 464.441 1164.92C465.237 1169.56 493.369 1167.27 498 1166.88C523.681 1164.72 550.023 1170.05 576 1171.86C583.319 1172.38 598.541 1168.88 604.395 1173.94C609.998 1178.78 606.719 1204.31 607.118 1212C608.982 1247.91 606.122 1286.8 614 1322M976 1244C962.241 1236.06 953.74 1220.88 940 1212.63C931.721 1207.65 920.911 1208.47 912 1205C918.691 1192.46 937.484 1183.56 951 1180.49C954.323 1179.74 962.769 1175.91 965.101 1179.55C975.292 1195.47 969.593 1225.72 976 1244M459 1178C475.642 1187.18 490.166 1206.87 504 1219.92C532.376 1246.71 560.922 1273.18 586.15 1303C599.807 1319.14 612.315 1330.55 615.974 1351.96C618.626 1367.47 620.916 1384.21 621.003 1400C621.025 1404.1 623.567 1412.59 620.738 1415.96C616.905 1420.52 602.409 1418 597 1418C573.365 1418 550.207 1417.06 527 1412.22C516.551 1410.05 489.879 1414.9 482.685 1407.4C473.794 1398.13 475.652 1358.97 474.925 1346C471.866 1291.45 454.549 1232.29 459 1178M850 1232C852.512 1218.96 862.113 1204.78 868.246 1193C869.865 1189.89 873.189 1181.7 877.737 1182.32C881.426 1182.83 893.047 1202.9 891.477 1206.22C889.228 1210.98 855.625 1229.66 850 1232M1921 1192C1939.95 1196.79 1961.83 1189.05 1981 1189.16C2007.03 1189.3 2036.01 1201.47 2062 1195C2056.02 1186.47 2040.24 1190.48 2031 1189.44C2003.51 1186.34 1978.43 1185.68 1951 1185.99C1942.36 1186.09 1926.17 1184.11 1921 1192M1611 1211C1611.41 1217.5 1611.21 1245.94 1606.06 1249.83C1603.49 1251.76 1597.33 1250.73 1594 1252C1596.73 1259.4 1583.03 1262.63 1585.11 1265.09C1589.76 1270.58 1600.26 1260.3 1605.4 1261.92C1610.09 1263.39 1609.65 1297.63 1609.07 1302.93C1608.29 1310.13 1594.65 1309.37 1594.76 1316.66C1594.81 1319.88 1606.24 1312.88 1608.7 1315.87C1610.97 1318.63 1609.9 1333.8 1610 1338C1614.29 1336.45 1616.45 1334.29 1618 1330C1621.55 1330.9 1650.29 1330.56 1647.46 1325.3C1647.6 1325.56 1600.05 1324.1 1618.5 1312.74C1622.67 1310.18 1626.72 1311.27 1630 1307C1612.6 1303.27 1614.03 1296.85 1614 1279C1624.72 1281.74 1635.8 1283.11 1646.96 1282.29C1650.22 1282.04 1656.93 1277.39 1652.43 1274.04C1645.12 1268.59 1620.02 1281.1 1614.82 1271.5C1607.65 1258.24 1623.88 1257.54 1627 1249C1620.81 1249.22 1605.8 1240 1617.26 1237.65C1622.34 1236.61 1624.97 1244.01 1630.01 1244.49C1638.43 1245.3 1647.98 1240.08 1656 1238C1649.37 1227.56 1625.31 1228.42 1615 1232C1615.52 1217.45 1619.59 1216.5 1627 1206C1622.12 1204.78 1612.41 1196.89 1623.02 1196.56C1632.84 1196.26 1647.32 1206.2 1657 1196C1649.36 1194.07 1641.75 1195.93 1634 1196C1638.69 1193.08 1644.03 1191.88 1647 1187C1639.38 1187.15 1622.45 1187.24 1616.32 1191.82C1612.11 1194.97 1613.73 1203.11 1609.5 1205.1C1605.48 1206.99 1595.01 1202.08 1592.68 1207.64C1588.94 1216.6 1608.11 1212.45 1611 1211M1406 1258C1379.32 1239.08 1344.64 1235.74 1313 1240.32C1286.38 1244.17 1260.08 1253.36 1233 1245C1203.89 1236 1199.03 1190.66 1161.08 1202.6C1139.93 1209.26 1147.05 1240.5 1147 1256C1146.98 1263.81 1143.33 1270.42 1148.98 1276.92C1162.01 1291.9 1172.59 1282.27 1189 1284C1187.71 1265.54 1193.07 1245.86 1191 1228C1178.44 1232.01 1167.44 1234.92 1155.25 1230.46C1153.47 1229.81 1148.83 1232.86 1148 1230.67C1144.43 1221.28 1161.25 1204.2 1170.48 1206.5C1182.56 1209.52 1201.24 1216.58 1200.43 1232C1199.93 1241.61 1193.11 1248.84 1194.24 1259C1195.85 1273.63 1203.4 1298.17 1182 1305.2C1176.52 1307 1169.6 1306.06 1164 1305.28C1118.29 1298.95 1128.24 1248.55 1139.47 1217.08C1142.02 1209.93 1153.12 1207.38 1154.89 1202.26C1156.35 1198.07 1149.25 1198.63 1147.32 1199.62C1106.75 1220.35 1115.29 1299.89 1157 1310.92C1167.97 1313.82 1184.28 1313.38 1192.65 1304.81C1198.49 1298.83 1199.62 1286.75 1209.01 1285.13C1255.31 1277.12 1303.18 1275.82 1350 1270.31C1365.97 1268.44 1394.02 1270.08 1406 1258M1912.74 1199.4C1905.8 1204.21 1909 1237.88 1909 1246C1909 1255.32 1904.9 1280.69 1912.24 1287.74C1917.63 1292.91 1941.59 1289 1949 1289C1975.04 1289 2000.96 1291.26 2027 1288.78C2036.44 1287.88 2054 1280.59 2062.76 1283.9C2078.28 1289.75 2082.46 1317.45 2092.3 1329C2094.65 1331.76 2103.62 1343.38 2107.99 1339.13C2110.82 1336.38 2092.39 1315.43 2090.22 1311C2083.6 1297.53 2069.21 1284.97 2064.82 1270.99C2060.72 1257.93 2064.66 1239.4 2065.88 1226C2066.57 1218.47 2070.2 1206.25 2058.94 1204.62C2052.32 1203.66 2054.59 1218.15 2054.89 1222C2056.14 1238.02 2056.35 1256.63 2056.64 1272.11C2056.7 1275.35 2053.67 1277.68 2050.98 1278.83C2022.86 1290.83 1979.73 1282.16 1950 1282C1943.27 1281.97 1922.84 1285.74 1917.82 1281.73C1914.23 1278.87 1916 1269.07 1916 1265C1916 1248.36 1918.15 1232.53 1919.37 1216C1919.56 1213.39 1920.36 1194.13 1912.74 1199.4M2012 1207.46C1995.07 1209.71 1976.11 1210.87 1959 1211C1955.56 1211.02 1941.56 1208.32 1939.75 1209.96C1935.95 1213.4 1941.26 1228.59 1940.78 1234C1940.25 1240.05 1935.87 1256.23 1939.96 1261.14C1944.02 1266.02 1957.31 1263 1963 1263C1984.64 1263 2010.75 1270.03 2031.95 1265.72C2039.57 1264.16 2038.61 1245.55 2039.21 1239C2041.31 1216.46 2037.93 1204.01 2012 1207.46M982 1259C971.952 1257.87 954.835 1257.94 948 1266C958.53 1268.22 973.279 1260.55 982.653 1264.21C991.337 1267.6 994.031 1310.46 986.576 1315.66C977.378 1322.06 962.182 1317.85 952 1317.14C927.23 1315.4 901.745 1314.69 877 1316.08C868.928 1316.53 848.73 1321.46 841.803 1318.04C837.039 1315.69 838.895 1301.33 839.04 1297C839.766 1275.38 844.832 1272.85 866 1270.88C870.567 1270.46 891.712 1271.92 892.574 1265.73C893.252 1260.87 884.147 1263.53 882 1263.76C876.291 1264.38 843.786 1269.14 844.104 1262.79C844.929 1246.37 865.256 1220.12 881.981 1217.71C886.132 1217.12 890.495 1225.36 892.454 1224.38C896.087 1222.56 888.216 1216.24 891.883 1213.84C897.093 1210.43 899.654 1218.84 904.026 1217.79C908.269 1216.77 910.184 1212.58 915.01 1212.21C935.37 1210.62 948.267 1227.39 962 1239.56C968.196 1245.05 979.014 1251.18 982 1259M1945 1217C1964.45 1215.84 1984.75 1215.73 2004 1213.56C2011.34 1212.74 2024.98 1209.15 2031.4 1214.18C2037.53 1219 2034.36 1254.73 2028.82 1259.74C2025.45 1262.78 2016.2 1260.03 2012 1260C1995.96 1259.91 1980.04 1259 1964 1259C1959.62 1259 1948.32 1260.99 1945.31 1257.06C1941.11 1251.6 1946.09 1225.19 1945 1217M1174.93 1237.51C1181.4 1237.42 1181.34 1247.3 1181.78 1252C1182.95 1264.38 1184.69 1280.64 1168 1280.86C1152.03 1281.08 1148.01 1252.72 1155.45 1242.15C1158.62 1237.65 1169.75 1237.58 1174.93 1237.51M1209 1239C1221.04 1243.84 1229.26 1250.94 1243 1252.66C1277.05 1256.93 1310.77 1243.92 1345 1244C1353.32 1244.02 1386.74 1246.18 1388.92 1257.2C1389.7 1261.17 1378.3 1261.93 1376 1262.2C1360.56 1263.98 1345.37 1265.59 1330 1268C1300.28 1272.64 1270.74 1269.96 1241 1273.32C1233.5 1274.16 1216.22 1283.09 1209.63 1277.74C1209.02 1277.24 1209.29 1243.71 1209 1239M1159 1244C1159.91 1246.61 1160.68 1247.49 1163 1249L1162 1244L1159 1244M1202.32 1252.32C1205.25 1251.63 1207.05 1265.74 1204.37 1266.89C1200.69 1268.47 1199.05 1253.1 1202.32 1252.32M1604 1254C1603.45 1255.64 1603.64 1255.45 1602 1256C1602.77 1254.82 1602.82 1254.77 1604 1254M143 1326C135.33 1324.63 113.2 1330.58 108.26 1323.5C102.564 1315.34 106.07 1287.21 106.002 1277C105.974 1272.69 106.349 1262.08 101.303 1259.97C95.0461 1257.35 97.9376 1272.44 98.0378 1275C98.549 1288.07 100.757 1301.13 101.882 1314.04C102.227 1318.01 100.399 1325.73 103.822 1328.64C112.609 1336.1 131.667 1328.61 142 1330.24C153.173 1332.01 159.568 1338.42 172 1337.96C184.491 1337.5 194.043 1330 207 1330C213.227 1330 230.677 1333.68 234.74 1328.2C239.423 1321.88 234.645 1301.14 235.114 1293.02C235.526 1285.89 239.221 1271.9 236.138 1265.48C233.259 1259.49 217.388 1262 212 1262C186.884 1262 163.655 1260.13 139 1260C133.237 1259.97 113.411 1255.29 110.885 1263.16C109.116 1268.66 146.942 1260.82 149.258 1267.6C150.943 1272.54 139.648 1284.72 137.964 1290C134.09 1302.16 138.8 1314.76 143 1326M921 1299C921.219 1287.51 920.825 1271.66 925 1261C912.537 1258.68 912.533 1293.73 921 1299M162 1266C160.059 1272.58 154.893 1276.99 154 1284C156.287 1281.46 158.151 1278.6 160.38 1276.01C161.653 1274.52 173.336 1263.53 174.096 1270.5C175.173 1280.38 152.645 1313.24 144 1317C141.537 1302.34 141.227 1268.67 162 1266M205 1325C214.844 1307.2 214.917 1280.35 191 1271C194.699 1265.87 224.526 1263.18 228.662 1268.82C234.23 1276.41 228.009 1302.58 228 1312C227.997 1315.38 229.235 1322.2 226.178 1324.6C222.265 1327.66 209.984 1325 205 1325M188 1273C200.249 1281.01 219.004 1313.48 198 1322C192.64 1309.1 183.225 1287.32 188 1273M180 1275L183 1293L168 1294C170.134 1287.24 175.013 1280.02 180 1275M2050 1288C2044.58 1317.59 1985.3 1299.12 1964 1302.82C1959.27 1303.64 1938.43 1299.67 1937.32 1306.45C1936.64 1310.56 1949.62 1325.12 1952.36 1329.34C1957.08 1336.57 1961.35 1353.26 1968.58 1357.73C1973.45 1360.74 1978.99 1354.96 1984 1354.76C2003.29 1354.01 2023.1 1348.66 2042 1345.41C2048.4 1344.31 2072.49 1347.39 2076.02 1344.61C2079.12 1342.18 2074.21 1336.14 2072.58 1334.32C2064.55 1325.37 2061.43 1323 2067 1312C2059.08 1312.03 2057.27 1309 2054 1302C2056.41 1301.84 2058.64 1301.52 2061 1301L2061 1299L2052 1294C2052.89 1290.87 2052.58 1289.99 2050 1288M1932 1308C1919.36 1314.67 1913.73 1288.85 1903.75 1294.85C1899.39 1297.48 1911.26 1307.35 1913.08 1309.21C1926.77 1323.19 1935.74 1340.53 1948.72 1354.92C1950.54 1356.93 1963.72 1371.44 1966.11 1364.46C1967.55 1360.28 1955.68 1351.78 1953.16 1349C1943.89 1338.79 1928.55 1321.91 1932 1308M151 1321L151 1323C153.087 1323.81 154.314 1324.53 156 1326C152.027 1326.51 150.145 1325.43 147 1323C151.137 1317.9 166.992 1291.07 176.073 1299.28C186.761 1308.93 155.563 1320.03 151 1321M185 1298C185.322 1303.25 188.591 1309.61 188.024 1314.63C187.525 1319.04 180.167 1318.23 177.832 1315.96C173.33 1311.6 180.639 1299.86 185 1298M168 1312L167 1306C163.619 1308.47 164.303 1310.46 168 1312M1973.58 1307.82C1978.53 1304.94 1995.55 1310.45 1988.14 1316.26C1980.14 1322.53 1964.71 1312.98 1973.58 1307.82M1957.24 1309.83C1965.4 1306.21 1970.75 1318.11 1961.98 1322.05C1954.34 1325.47 1950.39 1312.87 1957.24 1309.83M2013 1310C2009.63 1315.35 1994.43 1318.22 1992 1311C1998.31 1312.15 2006.34 1310 2013 1310M2054 1313C2046.32 1316.13 2038.23 1317.23 2030 1318C2032.94 1310.47 2048.19 1306.88 2054 1313M2024 1325C2020.08 1323.38 1999.58 1324 1998.76 1322.34C1999.97 1324.78 2023.95 1302.75 2024 1325M2033 1323C2039.9 1321.75 2070.39 1318.91 2063.28 1336.19C2062.21 1338.8 2056.27 1338.56 2054 1338.75C2039.74 1339.88 2038.46 1335.22 2033 1323M1995 1326C1992.69 1326.85 1990.39 1327.92 1987.99 1328.47C1965.71 1333.56 1985.44 1312.63 1995 1326M194 1325C184.808 1327.33 171.192 1327.33 162 1325C169.167 1321.34 187.898 1318.57 194 1325M986 1322C981.527 1371.53 913.384 1381.01 877.981 1364.4C868.142 1359.78 836.048 1342.8 843.966 1326.82C846.235 1322.24 873.721 1322.13 879 1322.02C913.933 1321.31 952.075 1329.17 986 1322M1968 1325C1967.66 1328.92 1968.04 1332.19 1969 1336C1960.66 1334.27 1958.81 1327.12 1968 1325M2009 1328C2007.44 1330.33 2006.56 1330.33 2005 1328L2009 1328M1999 1338C2000.72 1332.98 2005.66 1336.12 2010 1335.15C2014.25 1334.19 2023.9 1328.07 2027.73 1329.34C2031.72 1330.67 2033.57 1339.47 2030.53 1342.26C2026.5 1345.94 2016.14 1345.52 2011.09 1344.87C2005.77 1344.19 2004.3 1338.84 1999 1338M181 1330C176.311 1335.32 167.394 1333.06 161 1333L161 1330L181 1330M1987 1334.37C1991.18 1333.99 2004.38 1340.42 1999.06 1346.02C1997.25 1347.91 1979.63 1352.13 1976.91 1352.02C1959.47 1351.34 1977.96 1335.19 1987 1334.37M2096 1357.45C2065.07 1360.55 2033.87 1361.55 2003 1364.92C1998.88 1365.37 1973.64 1365.37 1974.65 1369.86C1976.57 1378.44 1999.24 1371.54 2005 1371.14C2030.49 1369.35 2054.58 1369.56 2080 1365.86C2085.18 1365.1 2101.69 1365.97 2104.59 1361.41C2107.44 1356.95 2097.92 1357.25 2096 1357.45M348.667 1483.33C348.222 1483.78 349.278 1483.72 349.333 1483.67C349.778 1483.22 348.722 1483.28 348.667 1483.33M383 1483C411.378 1492.61 456.895 1484 487 1484C563.619 1484 640.258 1485 717 1485L717 1483L383 1483M750 1483L750 1485L1034 1484C1010.11 1475.91 972.322 1483 947 1483L750 1483M1037 1483L1038 1484L1037 1483M1053 1483C1055.98 1484.01 1058.86 1483.99 1062 1484C1059.02 1482.99 1056.14 1483.01 1053 1483M184 1537C173.403 1555.75 165.014 1583.54 164 1606C149.683 1597.49 142.849 1572.55 131.176 1560.14C128.82 1557.63 121.623 1547.72 117.609 1549.11C113.321 1550.59 125.196 1560.83 126.438 1562.14C139.246 1575.58 150.205 1592.12 158 1609C138.609 1604.84 105.161 1611.17 85 1613.81C81.1023 1614.32 63.6548 1611.48 62.8454 1617.5C62.134 1622.79 68.9233 1631.24 71.053 1636C79.121 1654.03 101.909 1682.63 96 1703C118.303 1702.44 136.832 1656.3 146.026 1639C148.479 1634.38 156.077 1613.3 162.93 1614.95C173.173 1617.41 181.566 1643.97 187.446 1652C193.6 1660.4 201.324 1668.77 204 1679C210.632 1673.81 201.471 1664.89 197.961 1660C189.653 1648.43 182.904 1635.97 175.258 1624C173.114 1620.64 166.767 1614.28 167.315 1610.13C168.054 1604.52 178.851 1599.41 183 1596.4C194.112 1588.35 214.631 1573.61 216 1559C200.888 1573.58 185.85 1587.2 170 1601C172.427 1590.25 173.836 1565.55 181.8 1557.72C188.646 1550.99 213.029 1556.72 221 1559C216.319 1547.39 192.14 1551.06 182 1552C183.277 1547.04 186.581 1541.86 184 1537M1353.7 1546.54C1329.58 1560.3 1310.25 1557.47 1282 1558.92C1274.9 1559.29 1257.43 1554.76 1253.32 1562.42C1255.06 1559.19 1264.77 1582.2 1265.67 1585C1273.64 1609.8 1270.98 1636.32 1279.6 1661C1280.88 1664.66 1290.98 1687.92 1294.45 1686.38C1301.51 1683.23 1308.87 1668.54 1312.71 1662C1319.25 1650.87 1319.64 1637.81 1324.36 1626C1331.49 1608.17 1341.76 1591.35 1349.95 1574C1351.33 1571.06 1357.58 1544.33 1353.7 1546.54M1298 1674C1300.57 1648.92 1303 1624.31 1303 1599C1303 1590.53 1298.64 1574.04 1302.82 1566.52C1303.9 1564.58 1346.44 1559.46 1347.96 1561.03C1352.86 1566.06 1340.28 1582.15 1338.36 1587C1333.14 1600.18 1324.72 1611.79 1319.64 1625C1316.08 1634.28 1316.27 1644.98 1312.36 1654C1309.75 1660.02 1304.16 1671.38 1298 1674M923 1605L924 1601C898.187 1607.64 872.673 1636.22 852 1652C853.686 1653.47 854.913 1654.19 857 1655C851.206 1661.91 854.49 1673.17 853.081 1682C849.004 1707.54 848.48 1734 843.419 1759C841.148 1770.22 831.33 1782.51 834 1794C835.994 1792.25 837.307 1790.05 839 1788C839.751 1794.26 841.631 1798.51 841 1805C854.53 1800.84 859.123 1784 867.633 1774.11C872.461 1768.51 878.013 1772.28 884 1769.97C891.978 1766.9 897.706 1758.61 902.583 1752C913.857 1736.73 912.002 1715.2 922.843 1701.15C931.353 1690.12 960.907 1690.44 973.283 1679.82C982.925 1671.55 993.604 1651.95 993.623 1639C993.632 1632.66 986.748 1622.75 988.985 1617.32C995.029 1602.65 1018.38 1581.56 1015 1565C1001.74 1577.41 999.808 1599.49 986.404 1611.59C981.649 1615.89 973.995 1610.07 968 1612.14C957.356 1615.82 945.271 1628.75 939.365 1638.04C928.22 1655.57 930.15 1679.93 918 1696C917.972 1692.97 917.932 1689.97 917.273 1687C911.067 1659 893.479 1693.65 886.677 1696.24C884.876 1696.92 880.836 1690.16 879 1689C883.216 1706.7 878.026 1712.86 873.701 1730C867.156 1755.93 864.967 1772.63 846 1794C848.325 1760.33 856.669 1726.46 860.771 1693C862.196 1681.38 858.322 1662.68 865.564 1653.02C878.559 1635.69 896.612 1628.81 914 1617.64C925.629 1610.17 938.538 1598.99 951.96 1594.98C967.11 1590.45 990.514 1587.59 1004 1576C998.44 1575.58 992.646 1576.99 987 1577C988.868 1575.03 1000.48 1565.1 997.695 1562.03C995.378 1559.47 985.398 1574.2 982.99 1575.68C964.444 1587.03 942.444 1594.78 923 1605M1295 1676C1274.13 1666.55 1276.59 1612.23 1272.47 1593C1271.25 1587.28 1263.14 1572.09 1266.5 1566.82C1268.93 1563 1294.65 1561.83 1297.18 1565.82C1300.94 1571.77 1299.15 1590.82 1298.98 1598C1298.75 1607.62 1299.55 1617.37 1298.86 1627C1297.71 1643.3 1294.73 1659.62 1295 1676M965 1589C962.807 1592.05 960.689 1592.66 957 1593C959.52 1590.49 961.493 1589.56 965 1589M581 1593L583 1598C567.016 1598.57 540.81 1598.35 530 1611C534.771 1610.83 539.326 1609.92 544 1609C540.049 1634.06 526.281 1648.75 516.625 1672C510.833 1685.94 491.572 1720.06 495.763 1734.97C498.119 1743.36 506.681 1740.83 513 1742.59C534.999 1748.72 554.68 1739.54 568.695 1720C584.594 1697.83 570.004 1676.09 576.163 1653C579.875 1639.08 597.779 1602.31 581 1593M586 1601C582.115 1624.04 570.983 1645.89 568 1669C557.656 1666.8 551.444 1667.61 541 1668C543.909 1653.49 545.023 1639.77 546.503 1625C546.99 1620.14 544.804 1612.69 548.803 1608.82C553.93 1603.86 578.35 1602.18 586 1601M157 1613C141.916 1639.62 126.873 1678.33 103 1698C95.4459 1678.42 86.542 1660 77.6603 1641C75.433 1636.23 68.048 1626.18 70.1197 1620.64C71.5188 1616.89 86.5111 1619.1 90 1618.92C109.702 1617.92 138.254 1608.62 157 1613M981 1625C988.016 1624.03 989.13 1633.53 988.909 1639C988.438 1650.68 981.425 1667.59 972.659 1675.38C967.477 1679.98 932.298 1700.63 926.601 1691.18C924.348 1687.44 929.045 1679.83 929.878 1676C933.924 1657.37 939.838 1640.19 954.225 1626.76C959.188 1622.13 988.122 1605.53 981 1625M2001 1646C1995.89 1669.83 1999.49 1695.96 1999.98 1720C2000.29 1735.13 1995.08 1740.23 1998 1753C2010.99 1746.53 2043.27 1757.35 2052.03 1748.06C2054.49 1745.45 2051 1732.19 2051 1728C2051.02 1707.61 2052.02 1687.25 2052 1667C2052 1662.99 2053.01 1646.88 2048.47 1645.09C2046.35 1644.26 2039.02 1647.96 2036 1648.03C2027.08 1648.24 2018.42 1645.77 2010.07 1642.76C2005.5 1641.11 2005.19 1631 2002.08 1631C1999.15 1631 2000.96 1637.39 1999.64 1638.93C1996.75 1642.32 1985.75 1645.91 2001 1646M542 1641C541.602 1661.92 537.494 1669.33 520 1680C521.187 1668.63 531.82 1646.73 542 1641M2007.37 1647.36C2012.19 1646.39 2019.38 1651.33 2024 1652.64C2029.82 1654.28 2041.52 1651.5 2046.06 1655.26C2053.28 1661.23 2047 1696.71 2047 1706C2047 1715.02 2051.73 1743.35 2038.94 1745.56C2034.65 1746.3 2006.72 1745.21 2004.59 1742.1C2002.18 1738.59 2005.17 1728.38 2004.86 1724C2004.58 1719.91 2001.52 1708.37 2005.08 1705.3C2007.8 1702.96 2040.48 1709.85 2040.48 1700.44C2040.48 1698.94 2008.48 1702.65 2004.26 1696.51C1998.79 1688.54 2005.51 1667.61 2004.86 1658C2004.66 1655.01 2002.96 1648.24 2007.37 1647.36M1576 1745C1574.12 1741.34 1574.04 1736.83 1571 1734C1567.36 1748.39 1585.86 1799.69 1606.74 1788.28C1613.87 1784.38 1632.09 1760.55 1633.72 1752.88C1635.54 1744.27 1631.52 1732.16 1636.26 1724.26C1644.99 1709.72 1665.64 1699.86 1668 1680C1657.19 1689.4 1653.09 1704.93 1641.92 1713.62C1633.74 1719.99 1598.45 1719.86 1588.01 1717.93C1575.53 1715.63 1564.77 1686.4 1553 1678.44C1551.35 1677.32 1542.01 1667.97 1540.48 1670.1C1536.93 1675.04 1557.01 1686.24 1559.63 1689.1C1574.09 1704.84 1580.43 1724.4 1576 1745M553 1670.46C569.595 1667.64 575.048 1685.96 572.062 1699C567.797 1717.62 550.16 1738.69 530 1741.46C494.51 1746.32 501.474 1722.29 511.019 1700C518.501 1682.52 535.143 1673.49 553 1670.46M905.908 1681.67C915.65 1680.35 914.677 1700.46 914.095 1706C912.229 1723.78 901.628 1765.65 878.174 1766.12C872.859 1766.23 875.044 1746.97 875.581 1743C877.473 1729.01 888.631 1684.02 905.908 1681.67M1602 1784C1606.15 1774 1604.65 1759.87 1604.99 1749C1605.16 1743.61 1606.35 1725.97 1609.96 1722.31C1613.2 1719.02 1628.75 1717.96 1631.18 1722.5C1639.1 1737.36 1623.81 1758.59 1617.08 1770C1613.74 1775.67 1609.57 1784.97 1602 1784M1606 1723C1602.44 1744.17 1599.99 1763.51 1601 1785C1583.63 1780.64 1568.17 1735.98 1583.82 1723.38C1587.91 1720.09 1600.67 1723.18 1606 1723M2076 1857C2091.9 1889.4 2092.58 1933.65 2095.14 1969C2099.21 2025.41 2103.39 2078.33 2100 2135C2110.56 2126.72 2105.44 2094.59 2106.08 2082C2108.91 2025.95 2102.24 1968.51 2094.55 1913C2092.29 1896.7 2087.84 1880.84 2083.57 1865C2082.55 1861.22 2082 1850.92 2076.9 1850.43C2070.8 1849.85 2072.11 1860.41 2071.92 1864C2071.15 1879.02 2068.55 1893.93 2068.04 1909C2065.9 1972.79 2071.01 2037.3 2071 2101C2062.09 2090.74 2062.64 2066.18 2059.24 2053C2048.04 2009.58 2038.16 1967.36 2027.98 1924C2024.35 1908.56 2019.11 1894.83 2017.78 1879.07C2017.51 1875.96 2012.76 1873.01 2013.64 1870.27C2017.99 1856.73 2044.94 1854.03 2056 1851C2040.15 1845.63 2027.93 1856.17 2014.78 1862.37C1994.31 1872.01 1971.53 1876.35 1951 1886.19C1943.85 1889.62 1925.57 1889.52 1922.5 1898.34C1919.29 1907.58 1923.78 1922.35 1924.29 1932C1925.68 1957.73 1928.63 1985.26 1926.86 2011C1925.09 2036.96 1927.27 2062.16 1929.14 2088C1929.48 2092.79 1927.8 2110.86 1930.3 2113.82C1934.39 2118.65 1955.8 2115 1962 2115C1991.67 2115 2021.63 2118.08 2051 2121.56C2055.06 2122.04 2083.99 2124.92 2085.24 2122.32C2087.37 2117.9 2071.23 2118.47 2071.76 2111.96C2073.82 2086.76 2078.21 2062.54 2076.92 2037C2074 1979.33 2063.33 1914.09 2076 1857M1958 2093C1948.66 2049.78 1945.73 2005.3 1937.29 1962C1933.91 1944.61 1922.45 1919.05 1927.58 1901.28C1928.98 1896.45 1940.87 1896.17 1945 1894.3C1959.36 1887.8 1974.87 1883.41 1989 1876.78C1993.61 1874.62 2002.26 1868 2007.44 1871.28C2020.6 1879.61 2009.48 1911.32 2007.93 1923C2002.39 1964.95 1985.88 2008.05 1974.9 2049C1971.99 2059.82 1967.1 2086.52 1958 2093M207 1918C191.743 1907.39 189.071 1886.07 169 1883C172.003 1894.6 188.645 1905.24 193 1919C165.101 1915.05 138.76 1910.91 111 1905C113.257 1914.04 123.689 1912.54 131 1914.4C146.075 1918.23 162.752 1924.35 178 1925.84C186.817 1926.71 198.063 1921.91 202.119 1933.01C205.009 1940.92 186.064 1952.86 180.783 1957.41C162.478 1973.19 144.383 1990.09 128.981 2008.92C124.251 2014.71 117.007 2018.49 115 2026C126.107 2023.52 133.475 2009.7 141 2002C160.379 1982.16 179.307 1962.14 202 1946C193.872 1965.98 192.761 1988.23 187.22 2009C184.87 2017.81 177.871 2028.07 178 2037C196.104 2023.35 202.915 1973.29 203 1952C208.176 1954.88 210.093 1949.68 214.155 1951.32C222.091 1954.52 231.632 1969.4 236.098 1976.56C242.856 1987.4 246.589 2011.38 259 2017C256.867 1996.49 240.821 1963.14 230 1946C235.178 1943.29 239.43 1939.77 241 1934C236.015 1936.7 209.157 1936.45 218.649 1927.96C221.647 1925.29 267.055 1934.47 262.894 1921.82C260.762 1915.34 231.558 1930.03 226.323 1920.88C222.731 1914.6 237.608 1908.42 242 1909C241.133 1905.59 240.296 1902.27 239 1899C235.449 1902.3 221.278 1919.77 216.627 1917.46C210.426 1914.38 221.951 1889.2 217.619 1882.97C215.483 1879.9 211.311 1887.3 210.807 1888.79C208.013 1897.04 209.117 1908.94 207 1918M241 1896C243.596 1894.21 245.339 1892.67 247 1890C243.41 1891.17 241.92 1892.29 241 1896M1212.6 1897.76C1206.18 1900.98 1218.67 1934.64 1223.2 1937.79C1241.16 1950.28 1293.31 1934.09 1305.03 1917.32C1307.64 1913.6 1302.37 1913.46 1300.13 1914.63C1283.64 1923.17 1249.59 1948.32 1229.03 1935.95C1220.56 1930.85 1218.6 1914.94 1216.8 1906C1216.52 1904.63 1215.4 1896.35 1212.6 1897.76M2016 1898C2029.88 1918.37 2027.46 1949.8 2031.52 1973C2036.85 2003.41 2050.75 2033.19 2056.82 2064C2058.35 2071.81 2071.96 2110.03 2064.17 2115.19C2055.36 2121.03 2041.22 2113.45 2032 2113.22C1999.17 2112.37 1966.87 2110.37 1934 2111C1938.15 2093.37 1932.4 2071.12 1931.14 2053C1929.76 2033.33 1932.21 2013.62 1931.99 1994C1931.86 1982.57 1924.99 1965.44 1931 1955C1947.59 2002.9 1943.42 2058.78 1956 2108C1995.19 2048.21 1993.37 1963.76 2016 1898M552 1913C545.616 1931.01 523.337 1947.84 511.054 1964C507.609 1968.53 499.351 1974.01 498.859 1980C498.024 1990.16 515.16 2008.51 519.722 2018C523.337 2025.52 533.397 2052.34 544.07 2050.99C573.694 2047.25 594.394 2007.53 556 2000C567.903 1987.99 584.157 1971.86 571.855 1954.14C568.525 1949.34 559.167 1950.76 557.52 1945.72C554.016 1934.98 564.845 1920.99 552 1913M204 1923L206 1927C203.351 1926.43 202.645 1925.41 204 1923M554 1926C553.462 1931.78 549.66 1946.48 552.436 1951.4C557.805 1960.89 573.607 1952.39 570.723 1971.96C569.364 1981.18 561.786 1989.66 554.786 1995.3C552.982 1996.75 544.767 1998.83 545.323 2001.77C546.058 2005.64 559.857 2005.79 562.992 2006.55C574.663 2009.36 574.56 2026.34 568.601 2034.76C565.482 2039.16 559.813 2039.17 555.001 2040.21C551.218 2041.04 546.545 2045.32 542.944 2045.07C531.129 2044.22 523.627 2013.48 518.505 2005C514.547 1998.45 506.243 1988.59 505.062 1981.04C504.274 1976 512.887 1969.33 515.679 1965.44C527.659 1948.73 537.766 1938.66 554 1926M220 1929C221.544 1936.17 226.869 1931.67 220 1929M230 1936C231.952 1935.49 232.457 1935.27 234 1934C231.648 1934.01 231.386 1934.11 230 1936M216 1939C218.755 1942.51 221.689 1945.69 225.002 1948.68C226.97 1950.46 229.012 1952.15 230.842 1954.08C249.821 1974.03 212.877 1953.55 216 1939M227 1942C226.227 1943.18 226.175 1943.23 225 1944C225.545 1942.36 225.365 1942.55 227 1942M1929 1948C1929.72 1950.06 1929.91 1951.8 1930 1954C1928.86 1951.79 1928.52 1950.44 1929 1948M246 1951L245 1955C246.897 1953.72 247.259 1953.18 248 1951L246 1951M1289 2020C1281.53 2021.45 1255.28 2033.15 1249.78 2022.94C1242.29 2009.05 1258.04 1982.81 1258.93 1969.99C1259.11 1967.39 1258.71 1952.19 1254.18 1953.08C1249.4 1954.02 1249.03 1966.46 1249 1970C1248.91 1983.76 1251.51 2010.56 1244.32 2022.58C1238.05 2033.04 1201.35 2027.05 1197.11 2041.63C1194.03 2052.19 1235.92 2054.72 1238.72 2064.2C1243.8 2081.42 1227.93 2087.54 1215 2090.52C1211.66 2091.29 1197.76 2090.99 1200.89 2097.1C1203.12 2101.45 1232.9 2121.09 1234.79 2119.03C1241.18 2112.04 1234.01 2093.51 1243.24 2089.18C1254.52 2083.89 1268.31 2084 1280 2079.34C1281.76 2078.64 1291.36 2078.88 1291.36 2076.82C1291.36 2073.73 1278.52 2070.33 1276 2069.47C1258.62 2063.51 1244.62 2062.91 1247.42 2042C1247.87 2038.66 1247.25 2033.39 1249.82 2030.82C1258.82 2021.83 1278.77 2033.24 1289 2020M1253 1974C1251.79 1969.19 1252.36 1964.86 1253 1960C1259.55 1962.3 1256.58 1970.13 1253 1974M872.341 1962.33C867.069 1968.14 876.008 1984.03 871.396 1991.53C864.059 2003.48 838.377 2007.09 826.462 2012.66C823.763 2013.92 812.003 2011.1 812.003 2015.86C812.003 2019.66 825.259 2018.85 828 2019.3C835.917 2020.6 867.849 2030.01 870.622 2037.72C878.551 2059.77 854.691 2056.27 842 2064.25C839.487 2065.83 830.746 2069.85 831.323 2073.58C831.997 2077.92 843.668 2082.71 847 2085.19C850.862 2088.06 854.238 2091.29 857.302 2095C880.422 2122.99 866.609 2068.42 876.501 2061.24C885.172 2054.95 915.182 2064.76 920.456 2056.33C921.197 2055.14 901.277 2047.97 898.438 2045.98C879.084 2032.41 872.687 2026.36 874.342 2002.04C875.863 1979.7 927.062 1997.17 929.677 1981.01C930.332 1976.96 919.478 1981.37 918 1981.9C912.594 1983.82 882.031 1991.46 877.824 1989.35C874.279 1987.56 877.064 1972.66 876.989 1969C876.959 1967.55 875.751 1958.57 872.341 1962.33M1691 1992C1687.26 1976.38 1668.32 1993.32 1661.72 1988.99C1657.89 1986.48 1664.99 1973.5 1659.59 1972.32C1657.96 1971.97 1654.37 1992.8 1652.2 1995.65C1641.65 2009.5 1628.51 2021.02 1637.11 2040.99C1643.3 2055.37 1652.25 2048.06 1651.08 2066.44C1650.85 2070.2 1642.34 2105.71 1647.54 2104.68C1650.27 2104.14 1649.78 2099.18 1652.49 2098.03C1665.16 2092.66 1686.63 2083.8 1676.62 2064.01C1672.59 2056.04 1657.7 2054.18 1657.59 2044.99C1657.31 2022.92 1654.35 1977.65 1691 1992M2061 2011C2070.35 2005.51 2063.02 1995.99 2061 2011M834 2016L834 2014C839.63 2011.93 863.889 1999.95 868.178 2001.95C871.616 2003.55 872.549 2025.46 868.499 2026.96C858.845 2030.56 842.563 2019.36 834 2016M1655 2001C1654.45 2016.57 1651.92 2031.34 1654 2047C1630.16 2042.28 1636.5 2008.96 1655 2001M1252.5 2018.5C1251.87 2019.13 1252.87 2020.13 1253.5 2019.5C1254.13 2018.87 1253.13 2017.87 1252.5 2018.5M1681 2019C1680.41 2021.7 1680.1 2024.24 1680 2027C1683.28 2024.75 1683.73 2022.86 1683 2019L1681 2019M947 2022C947.363 2024.03 947.517 2024.64 949 2026C948.489 2024.05 948.267 2023.54 947 2022M1204 2042C1216.44 2041.15 1227.34 2026.26 1240.72 2029.29C1246.82 2030.68 1242.96 2050.7 1239.7 2054.16C1234.73 2059.42 1207.83 2046.71 1204 2042M901 2055C891.836 2053.38 883.175 2054.92 874 2055C874.826 2051.15 873.234 2041.86 875.58 2039.02C878.584 2035.38 898.771 2051.7 901 2055M1658.5 2056.13C1675.42 2050.74 1678.2 2087.34 1660.99 2092.06C1645.82 2096.23 1654.49 2057.4 1658.5 2056.13M866.852 2061.55C873.071 2061.3 870.259 2095.89 866.759 2096.56C863.384 2097.21 855.802 2085.35 852.992 2083.12C850.183 2080.9 840.902 2076.74 840.323 2073C839.291 2066.33 862.238 2061.74 866.852 2061.55M1277 2073C1272.55 2083.34 1249.89 2083.23 1240 2085C1240.95 2077.59 1243.52 2070.5 1244 2063C1255.63 2065.39 1264.78 2072.57 1277 2073M1232.5 2090.28C1237.55 2091.74 1234.39 2111.66 1229.72 2110.99C1225.96 2110.46 1208 2102.47 1208 2098.18C1208 2095.89 1229.58 2089.44 1232.5 2090.28z"/>
</svg>
