<?xml version="1.0" standalone="yes"?>
<svg xmlns="http://www.w3.org/2000/svg" width="2200" height="2200">
<path style="fill:#0e0e0e; stroke:none;" d="M1912 166C1914.55 165.629 1919.24 161.77 1921.45 162.635C1926.37 164.561 1930.23 188.771 1931.38 194C1939.77 232.162 1954.5 265.489 1966.15 301.981C1968.94 310.742 1974.55 319.778 1975.38 329C1975.63 331.786 1973.69 338.753 1976.76 340.457C1980.04 342.272 1984.85 334.29 1986.35 332.242C1993.85 322.05 1999.68 310.943 2005.91 300C2024.98 266.524 2047 233.751 2070.44 203C2080.03 190.414 2098.96 176.507 2099 160L2105 162C2091.72 120.292 2063.8 88.1426 2037.29 54C2033.73 49.4155 2022.54 21.1274 2017.9 21.3772C2006.49 21.991 1986.27 42.6487 1979.72 51C1952.74 85.4348 1934.4 128.562 1912 166M2018 26C2037.13 74.3853 2080.71 106.15 2097 157C2085.02 156.574 2073.79 150.891 2062 150.275C2052.75 149.792 2043.12 154.556 2033.99 155.67C2029.34 156.238 2016.46 158.395 2013.24 154.296C2001.54 139.412 2007.63 105.355 2007.98 88C2008.04 84.9465 2009.32 67.925 2004.94 67.4417C2001.05 67.0112 2003.83 84.749 2003.79 87C2003.43 105.458 2000.3 120.382 2003.88 139C2004.56 142.561 2007.04 151.953 2002.5 153.877C1991.81 158.409 1979.64 153.597 1969 154.193C1960.16 154.688 1951.25 158.851 1942 158.909C1937.65 158.936 1925.28 158.017 1925.2 151.97C1925.08 143.218 1938.71 128.848 1942.76 121C1962.98 81.9077 1983.53 52.8743 2018 26M566 214C574.199 212.582 574.302 203.147 579.401 197.136C597.37 175.954 605.553 144.717 612 118C595.75 129.16 595.611 167.162 584.297 184C582.551 186.599 572.739 201.681 569.452 200.926C564.674 199.829 568.789 189.521 569.463 187C573.559 171.687 568.636 151.267 574.822 137.185C578.67 128.424 598.408 121.909 606.42 117.098C619.696 109.127 626.264 95.8047 629.135 81C633.706 57.426 603.796 44.0293 586 40.698C570.123 37.7261 549.758 35.4497 535.008 43.8582C516.687 54.3013 504.966 99.606 512.821 118.933C516.049 126.874 528.577 128.4 533.974 135.237C546.478 151.077 567.236 194.387 566 214M563 42.3228C585.45 40.1104 619.464 49.4192 624.333 75C629.076 99.9155 599.879 122.104 579.069 128.314C572.401 130.304 574.061 120.847 574.573 117.001C574.975 113.977 592.978 76.2771 573.611 80.9878C556.641 85.1155 580.479 127.787 566.716 131.786C555.796 134.959 521.136 128.292 515.94 116.805C508.148 99.5815 522.129 57.7954 537.001 47.854C544.751 42.6729 554.147 43.1953 563 42.3228M1275.45 44.7612C1270.42 47.0583 1268.33 62.1797 1266.64 67C1260.71 83.8943 1254.2 112.278 1241.66 125.37C1237.3 129.917 1215.91 110.791 1213.04 118.528C1209.69 127.584 1226.09 138.175 1227.92 146C1229.24 151.667 1220.37 163.585 1217.78 169C1217.14 170.361 1211.31 179.32 1216.31 178.679C1226.97 177.314 1245.07 160.362 1252.6 152.956C1254.27 151.318 1262.07 147.257 1261.68 144.805C1260.42 137.083 1245.7 137.652 1247.39 127.997C1250.42 110.598 1261.93 93.6604 1267.72 77C1268.95 73.469 1277.91 43.6375 1275.45 44.7612M153 67C166.345 88.5078 194.893 104.399 211.084 125C215.019 130.007 225.094 138.516 225.699 144.981C226.425 152.748 210.277 169.626 205.69 176.003C189.436 198.599 169.818 225.477 163 253C182.675 234.079 196.769 198 212.538 175C215.591 170.548 223.836 150.83 230.04 151.383C236.165 151.929 242.978 165.388 246.526 169.783C257.835 183.791 267.075 200.444 276.139 216C280.464 223.423 283.225 233.658 291 238C288.888 218.797 266.999 205.822 264.576 187.136C262.693 172.615 282.077 150.297 283 134C270.981 141.831 274.328 175.759 262.088 180.357C258.293 181.782 240.288 153.833 237.335 150C216.718 123.239 186.135 78.1162 153 67M1640 265C1640.87 245.553 1638.92 222.004 1643 203C1651.27 213.259 1658.53 223.899 1663.79 235.999C1664.67 238.011 1666.98 246.05 1670.49 244.292C1673.54 242.763 1665.2 226.679 1663.98 224.041C1659.05 213.351 1646.83 205.783 1642.97 194.981C1640.17 187.145 1644.92 175.308 1645 167C1639.53 172.023 1639.21 184.845 1638 192C1603.4 169.189 1641.73 130.138 1651.6 102C1653.13 97.6331 1668.21 72.4282 1663.99 69.5464C1659.71 66.6184 1649.35 78.3564 1645.96 80.3828C1627.61 91.3472 1607.88 101.79 1588 109.63C1584.78 110.901 1565.83 112.866 1565.32 115.585C1564.61 119.368 1574.5 126.06 1577.01 128.104C1588.43 137.396 1598.58 151.018 1607.21 163C1623.8 186.034 1600.54 199.969 1603.82 222.686C1604.67 228.568 1620.76 242.34 1624.98 247.999C1628.67 252.934 1634.2 263.358 1640 265M1657 78C1650.07 109.139 1619.61 137.547 1617 169C1605.97 161.387 1598.89 145.395 1590.43 135.04C1585.05 128.466 1576.52 123.655 1572 117C1602.83 115.892 1631.5 92.6934 1657 78M576 87C575.203 89.5088 574.248 91.6799 573 94C572.423 91.2974 573.006 89.5815 574 87L576 87M52 107C53.142 117.448 75.5344 132.424 82.5617 141C100.893 163.371 116.475 186.489 130.104 212C137.184 225.252 140.567 244.311 153 254C152.376 240.186 142.601 225.034 136.232 213C118.154 178.843 88.8912 123.281 52 107M1238 129C1238.07 133.983 1235.25 136.783 1233 141C1226.07 138.127 1221.66 129.267 1218 123C1224.41 123.828 1232.77 131.708 1238 129M566 189C554.546 178.953 543.793 147.564 539 133C543.86 133.953 566.411 135.402 568.604 137.998C574.741 145.262 568.01 180.02 566 189M1244 155C1223.84 136.656 1254.87 137.287 1253.68 145.501C1253.2 148.828 1246.28 152.55 1244 155M1234 149C1243.29 159 1233.91 163.135 1224 167C1225.6 160.625 1229.71 153.962 1234 149M1982 332C1955.04 277.099 1944.75 218.796 1927 161C1946.71 163.211 1965.29 159.811 1985 159.974C1989.86 160.014 2001.15 155.427 2004.74 159.822C2018.08 176.126 1999.32 206.469 2009 223C2003.42 223.276 2011.28 256.151 2010.35 256.935C2014.84 253.172 2014 243.171 2014 238C2014.01 219.746 2015.57 201.189 2014.96 183C2014.79 177.867 2011.13 165.155 2014.96 161.045C2018.97 156.734 2043.06 157.788 2050 156.206C2057.15 154.576 2090.76 153.897 2093.99 162.501C2097.51 171.862 2069.08 198.8 2063.3 206C2033.52 243.075 2001.02 288.409 1982 332M891 199C891.979 204.473 899.31 213.47 898.034 218.438C896.68 223.703 869.41 250.459 864.604 244.333C854.683 231.687 866.285 204.252 852 192C852.431 214.122 859.787 236.577 860.922 259C861.873 277.789 856.443 300.984 861 319C873.225 300.237 855.923 271.498 865.396 253.336C868.046 248.255 898.125 222.74 902.68 222.944C907.149 223.145 912.421 229.839 916 232.259C919.298 234.489 934.641 240.213 933.919 244.983C933.051 250.712 921.183 259.578 917.32 264C902.084 281.438 878.409 297.991 867 318C898.212 307.032 909.955 259.42 939.32 247.526C946.217 244.733 966.751 261.609 970.131 267.401C971.871 270.381 965.26 279.432 970.878 279.432C976.232 279.432 980.211 260.186 981.949 256C992.139 231.46 1004.96 199.781 1005 173L1003 173C1000.17 193.249 971.782 207.85 958.36 221.476C953.636 226.272 947.093 236.148 940.679 238.49C933.725 241.029 909.263 224.195 908.003 217.217C907.182 212.668 916.027 204.478 918.655 201C928.924 187.408 950.138 171.357 956 156C939.584 163.692 928.545 181.995 917.929 196C915.144 199.673 908.095 212.357 903.003 212.357C897.923 212.357 894.989 201.712 891 199M1306 287C1305.57 276.584 1298.17 268.084 1293.63 259C1285.57 242.89 1279.33 226.3 1271.8 210C1268.2 202.213 1272.43 194.602 1269.03 188C1267.06 184.188 1252.05 160.281 1247.81 161.702C1247.78 161.713 1258.38 188.44 1259.6 192.007C1267.73 215.874 1278.83 239.836 1290.73 262C1294.81 269.6 1299.18 281.685 1306 287M1639 255C1632.22 252.177 1629.53 245.85 1625.23 240.32C1620.97 234.851 1611.78 228.206 1609.76 221.639C1606.66 211.505 1616.53 190.384 1619 180C1646.93 192.032 1639 230.541 1639 255M257 192C250.986 205.298 238.323 234.779 224 240C229.702 248.846 234.297 239.314 237.515 234C245.135 221.417 256.473 206.642 259 192L257 192M999 192C992.823 209.973 989.34 229.812 981.307 247C979.631 250.586 977.664 260.648 973.957 262.456C971.546 263.633 944.993 243.93 945.441 240.914C946.12 236.341 953.911 231.088 957 228C968.15 216.854 984.055 197.444 999 192M270 218C271.749 220.709 273.229 222.356 276 224C274.667 220.582 273.793 218.448 270 218M1306 425C1306.06 457.12 1302.26 487.292 1295.68 519C1293.55 529.257 1293.55 545.747 1285.83 553.476C1256.04 583.344 1211.21 585.94 1179 612.263C1171.56 618.339 1158.68 627.02 1155 636C1190.62 633.815 1222.95 627.998 1256 614.26C1267.56 609.457 1282.75 605.243 1291 595L1286 597C1284.96 582.091 1291.52 567.08 1295.45 553.606C1302.9 528.049 1304.98 494.16 1308.13 467C1309.06 458.998 1317.09 428.243 1306 425M187 427C182.928 443.092 187.405 463.486 187.96 480C188.987 510.588 185.668 543.88 191 574C168.515 559.716 158.89 526.884 134 514C145.517 538.379 179.881 553.773 187.792 580.136C189.935 587.278 174.306 601.366 170.401 607C153.271 631.712 131.86 672.119 106 688C100.683 646.652 86.4812 607.338 73.3332 568C67.9177 551.797 58.4085 527.061 43 518C63.8075 562.418 82.7554 603.553 94.3421 652C96.8523 662.496 100.378 675.163 98.6832 685.993C98.2496 688.764 94.0202 696.291 98.332 697.436C106.739 699.669 119.397 681.414 123.809 676C141.137 654.734 156.866 632.168 173.148 610.136C176.567 605.509 185.709 589.211 191.971 589.625C204.161 590.43 214.464 629.176 224 637C223.12 618.014 196.236 601.279 196.699 583.003C196.822 578.155 217.117 560.649 213.111 557.544C211.029 555.93 195.404 574.188 192 576C201.938 544.271 191.967 499.007 191.035 465.993C190.716 454.677 193.555 436.733 187 427M1983 623C1988.02 635.748 1996 630.131 2002.95 623.078C2012.36 613.529 2025.42 586.967 2038.09 583.142C2052.12 578.903 2069.47 590.389 2083 584.421C2091.31 580.755 2096.33 564.063 2105.03 563.652C2119.86 562.952 2165.27 586.444 2171 561C2154.08 570.368 2140.46 567.702 2122 563.433C2118.07 562.524 2105.17 560.864 2105.82 555.089C2107.16 543.108 2122.41 526.124 2128.87 516C2145.96 489.238 2165.27 462.748 2172 431C2125.81 434.712 2073.9 462.58 2030 476.737C2021.08 479.614 1988.38 482.119 1984.89 492.375C1984.22 494.336 1999.32 499.796 2002 501.612C2015.36 510.651 2051.04 516.589 2057.15 533.356C2060.23 541.781 2038.87 576.686 2029.98 576.336C2023.98 576.1 1995.57 568.042 1992.4 572.656C1984.76 583.755 2003.34 620.326 1983 623M2165 436C2160.19 467.386 2137.1 491.587 2121.6 518.007C2115.77 527.945 2110.2 545.041 2101.38 552.429C2095.97 556.958 2067.7 537.543 2066.06 530.959C2063.4 520.311 2076.72 501.121 2077 489C2074.23 496.497 2068.37 524.62 2060.65 527.376C2056.01 529.033 2047.8 520.514 2044 518.217C2032.21 511.089 2008.61 492.741 1995 494C2005.54 479.86 2042.7 477.909 2059 474.684C2092.91 467.972 2133.15 449.632 2165 436M1517 529C1520.73 538.19 1540.35 534.177 1541.22 540.284C1542.13 546.714 1536.75 554.075 1535.03 560C1530.22 576.615 1526.26 594.021 1522 611C1520.84 615.607 1515.37 631.978 1519.27 635.7C1523.23 639.485 1544.23 634.099 1550 633.981C1565.01 633.675 1579.64 624.396 1594 620.242C1607.05 616.468 1621.33 617.868 1634 613.82C1640.32 611.8 1654 608.578 1658.32 603.637C1685.8 572.261 1629.4 547.202 1606 548.475C1591.6 549.259 1577.74 554.172 1564 558C1571.08 549.032 1590.72 541.838 1601 536.413C1603.79 534.94 1613.36 532.306 1613.36 528.325C1613.36 523.626 1601.49 530.456 1600 531.153C1591.34 535.202 1559.94 540.5 1551.72 533.036C1548.07 529.725 1554.02 520.823 1554.8 517C1558.04 501.157 1558.51 484.718 1562.15 469.019C1562.82 466.108 1571.94 449.911 1563.13 450.106C1557.1 450.24 1556.36 477.254 1556.07 482C1555.43 492.273 1553.24 528.319 1542.73 533.176C1534.99 536.754 1524.45 530.605 1517 529M296 463C271.021 504.08 254.063 550.576 238.231 596C235.065 605.081 219.824 635.334 231 641C231.918 596.357 261.578 541.177 279.742 501.04C285.246 488.879 295.129 475.889 298 463L296 463M916 542C908.578 556.575 884.968 582.317 918 583C916.451 585.295 915.144 587.482 914 590C929.001 588.827 946.662 588.525 957.743 575.951C962.612 570.426 963.206 560.351 968.585 555.822C971.719 553.184 984.997 557.663 984.997 553.855C984.997 546.272 969.319 552.215 967.94 545.716C963.373 524.197 976.078 511.471 986.199 494C987.307 492.087 997.282 478.213 993.566 477.541C986.505 476.264 961.496 494.952 954 498.601C935.208 507.748 914.145 521.872 893 523.882C888.345 524.325 869.925 526.525 868.106 531.53C866.643 535.553 877.14 535.094 879 535.504C891.461 538.252 902.886 541.879 916 542M434 642C443.138 643.011 451.416 633.121 456.12 626.21C468.83 607.537 480.534 585.064 486 563C502.051 576.365 509.567 602.656 518.275 621C519.532 623.647 524.721 641.015 526.94 640.239C531.235 638.737 532.733 629.74 533.911 626C537.228 615.478 538.971 583.233 548.675 577.241C557.986 571.492 585.905 599.413 594.601 589.755C595.036 589.272 595.476 579.097 596 577C593.494 577.953 592.555 578.806 591 581C582.735 567.276 563.974 556.625 559.07 540.981C554.811 527.393 570.999 507.127 564.053 494.571C561.855 490.599 554.186 529.475 553 535C542.887 522.477 532.788 510.071 521.816 498.28C518.296 494.496 511.758 488.064 519 485C515.925 481.225 512.611 483.977 509 486C508.897 484.598 507.936 478.386 505.343 481.873C501.886 486.523 510.506 489.954 509.4 494.641C505.633 510.594 495.801 528.494 489.674 543.927C487.445 549.544 481.717 546.083 479.649 549.84C477.869 553.073 482.841 557.208 482.638 560.68C482.295 566.522 478.301 573.69 475.994 579C464.83 604.707 449.578 620.227 434 642M984 488C982.227 495.266 970.302 516.084 963.378 519.544C957.958 522.252 951.044 519.057 944 523.17C936.731 527.414 929.065 537.317 921 539.196C912.606 541.153 890.057 536.111 885 529C921.495 528.305 951.399 500.397 984 488M512.599 498.106C516.843 496.757 524.562 507.836 527.215 510.438C539.585 522.571 553.431 536.783 548.177 555C547.247 558.227 546.808 565.503 543.322 567.081C537.756 569.602 495.141 555.076 493.001 549.501C490.571 543.172 500.566 523.777 503.465 517.68C505.271 513.881 508.524 499.401 512.599 498.106M952.988 523.783C964.787 521.258 950.985 542.03 944.981 543.44C920.296 549.236 939.589 526.649 952.988 523.783M963 531C965.892 543.358 962.247 547.065 951 546C954.36 540.784 957.887 534.611 963 531M2040 578C2045.35 563.142 2056.11 549.969 2062 535C2077.03 542.086 2116.88 568.453 2080.98 579.396C2068.73 583.132 2052.68 578 2040 578M1540 558C1548.1 536.342 1549.32 541.637 1570 539.782C1572.42 539.566 1583.95 536.332 1585.24 538.683C1586.63 541.222 1576.49 544.801 1575 545.6C1563.87 551.556 1552.67 556.254 1540 558M943 548C937.094 559.806 928.386 569.732 922 581C917.414 579.284 906.707 577.095 904.357 572.654C901.811 567.842 907.298 561.654 909.977 558.095C920.503 544.112 926.439 542.581 943 548M549 571C549.61 567.561 550.742 564.359 551.669 561C558.437 536.453 571.5 565.009 582.772 575.584C584.012 576.747 590.5 582.337 587.109 584.131C579.4 588.209 557.386 572.48 549 571M923 586C927.753 577.107 947.23 538.939 960.16 553.735C974.854 570.551 932.341 584.661 923 586M1602 553.467C1619.88 550.255 1644.56 557.123 1653.43 573C1657.28 579.887 1660.7 593.563 1654.26 600.323C1644.92 610.121 1625.19 609.415 1613 611.396C1593.35 614.589 1575.43 625.899 1556 628.723C1551.29 629.408 1527.15 633.232 1524.26 630.66C1520.94 627.71 1524.09 618.54 1524.89 615C1527.65 602.688 1530.21 576.063 1539.12 566.833C1542.61 563.207 1552.31 565.23 1557 564.519C1572.27 562.201 1586.78 556.2 1602 553.467M526 630C522.988 602.366 492.102 580.764 489 555C501.32 558.156 533.419 564.171 542.119 573.344C545.583 576.996 540.063 584.46 538.77 588.136C534.85 599.277 535.865 622.572 526 630M1287 559C1286 568.81 1285.71 586.335 1280.66 594.764C1270.81 611.191 1229.74 621.411 1212 624.295C1206.18 625.242 1176.21 633.391 1172.54 627.274C1169.59 622.343 1192.18 607.322 1196.08 604.923C1211.79 595.257 1228.02 592.723 1244 585.199C1259.15 578.064 1272.39 567.024 1287 559M1997 620C1995.03 612.201 1992.2 585.648 1996.82 578.87C1998.64 576.207 2027.46 578.73 2028.91 582.645C2031.84 590.536 2003.3 616.149 1997 620M255 591C254.334 581.787 246.011 587.082 255 591M545 592L546 593C548.275 591.119 549.597 589.593 551 587C548.407 588.403 546.881 589.725 545 592M191 590C188.805 606.555 194.469 623.833 191 640C202.918 634.916 193.653 600.917 193 590L191 590M166 624C169.636 623.986 171.053 623.059 173 620C170.089 620.762 167.918 621.654 166 624M153 977C151.311 982.127 148.753 984.112 154 988C155.298 985.242 156.068 978.78 160 978.667C165.679 978.502 174.953 990.229 179 993.611C196.991 1008.65 217.751 1021.14 233.667 1038.5C237.074 1042.22 226.77 1047.04 230.361 1049.17C233.37 1050.95 253.863 1025.54 250 1023C258.809 1015.03 263.61 1001.14 269.618 991C287.399 960.992 308.585 923.859 310 888C299.208 893.057 296.063 925.119 292.702 936C285.298 959.964 269.819 982.582 257.063 1004C251.879 1012.71 246.66 1025.78 238.914 1032.43C234.117 1036.55 224.907 1024.24 222 1021.05C210.207 1008.07 193.214 1000.22 180 988.661C176.616 985.702 168.025 979.868 167.673 975.019C167.208 968.639 177.225 958.567 180.075 952.981C189.708 934.102 197.667 914.855 205 895C210.638 904.442 225.206 916.116 226.839 927C229.995 948.028 201.548 974.072 200 996C215.73 977.688 216.528 949.021 232 931C235.122 938.546 241.769 946.657 242.416 955C243.723 971.827 224.757 985.162 215 995C231.635 996.884 241.644 973.011 245 960C247.779 964.719 251.283 973.59 251 979C263.283 978.092 248.411 960.543 249.274 953C251.484 933.677 262.964 912.254 267.738 893C268.856 888.494 269.981 874.89 274.597 872.783C283.314 868.804 316.848 885.194 326 888.868C333.062 891.703 343.198 895.514 347 886C328.238 889.15 312.791 877.735 295 873.393C290.607 872.321 277.574 870.212 275.735 865.577C272.018 856.208 284.526 832.649 287 823C277.3 833.818 280.21 852.818 271.575 863.238C261.88 874.937 253.98 848.289 254 843C251.695 845.186 251.558 851.287 248.821 852.375C244.8 853.975 224.546 838.198 223.656 833.903C222.257 827.146 227.051 816.946 228 810C223.138 812.84 222.244 831.847 216.853 831.458C199.281 830.192 165.018 775.503 144.04 800.214C123.934 823.898 107.923 854.159 94.2438 882C91.1713 888.254 79.171 901.645 79.206 907.911C79.2371 913.465 91.2003 918.822 95 921.819C110.829 934.303 123.473 949.636 140.996 960.273C145.111 962.771 160.642 973.52 153 977M152 811C155.967 810.492 165.791 802.512 163 811C176.746 804.758 212.251 822.766 216.451 838.215C218.272 844.915 213.142 857.639 210.821 864C209.266 868.262 207.114 883.651 202.676 885.279C198.588 886.779 185.276 873.992 181 871.785C163.184 862.591 138.777 849.288 118 851L118 853C141.977 858.106 187.066 867.22 200.052 891.078C202.905 896.319 196.937 903.971 195.347 909C190.079 925.66 181.809 941.872 173.089 957.001C170.906 960.788 166.699 969.974 161.841 970.695C154.839 971.735 128.883 946.651 122.96 941.199C115.39 934.231 87.9142 917.138 86.8454 907.037C86.1934 900.875 94.7723 889.416 97.6605 884C109.173 862.41 122.05 843.092 135.513 822.993C140.184 816.019 144.526 800.154 154.855 800.313C163.337 800.444 154.729 809.261 152 811M1306 1059C1324.21 1047.21 1338.53 1016.28 1340 995C1350.23 1000.83 1359.41 1008.22 1370 1013.78C1371.1 1014.35 1381.82 1018.04 1379.33 1013.41C1373.31 1002.19 1351.23 1003.57 1345.22 989.922C1342.96 984.808 1348.09 973.972 1349.93 969C1355.82 953.034 1360.03 936.27 1364.94 920C1365.8 917.144 1375.06 900.807 1372.46 900.323C1368.45 899.577 1361.96 909.379 1359.76 912C1348.29 925.666 1336.48 932.937 1323 944.014C1320.19 946.322 1310.28 949.932 1310.59 954.089C1311.66 968.824 1338.67 981.375 1336.49 995C1334.18 1009.37 1326.32 1025.89 1318.48 1038C1317.03 1040.24 1312.15 1050.14 1308.72 1049.02C1303.58 1047.34 1295.86 1024.21 1293.25 1019C1278.59 989.692 1264.24 960.236 1246.59 932.562C1243.04 926.999 1224.36 905.168 1227.51 900.339C1232.14 893.242 1261.89 863.92 1270 866.256C1276.09 868.012 1291.79 891.672 1295.32 889.677C1304.84 884.284 1308.62 849.193 1312.12 839C1313.36 835.383 1318.24 827.333 1316.99 823.649C1315.63 819.679 1308.39 829.756 1307.37 830.84C1302.86 835.617 1277 856.909 1270.78 854.398C1260.42 850.21 1272.44 812.788 1267.68 811.106C1262.6 809.312 1261.3 828.071 1261.16 831C1260.71 840.207 1269.04 854.663 1262.73 862.845C1254.62 873.365 1240.29 882.987 1230 891.521C1227.44 893.646 1218.92 897.338 1219.3 901.235C1220.3 911.434 1239.79 930.333 1245.51 940C1259.84 964.182 1271.75 989.068 1284.74 1014C1292.12 1028.16 1302.96 1043.11 1306 1059M1626 887C1628.58 887.708 1658.82 891.779 1654.46 884.701C1652.85 882.098 1635.05 883.787 1631 882.819C1616.41 879.328 1612.64 864.694 1611 852C1594.69 873.73 1640.66 902.371 1634.22 925.438C1627.11 950.886 1581.9 963.719 1581 990C1594.52 984.052 1599.52 964.136 1614 958.803C1624.29 955.013 1637.29 961.921 1647 965C1644.42 954.475 1625.78 952.836 1617 954C1621.87 946.604 1630.86 934.936 1638 930C1641.27 951.28 1659.49 970.418 1667.72 990C1668.2 991.142 1675.23 1012.06 1677.88 1005.35C1680.23 999.383 1672.8 987.776 1669.96 983C1662.42 970.305 1640.49 941.073 1642.2 926C1643.23 916.977 1653.83 906.841 1658.26 899C1669.52 879.031 1682.21 856.287 1688 834C1671.22 844.368 1663.5 881.504 1653.09 898.32C1650.89 901.861 1644.14 917.751 1639.12 916.919C1633.6 916.004 1627.92 892.074 1626 887M1309 837C1305.88 852.474 1299.96 868.405 1294 883C1290.38 880.041 1273.79 864.203 1274.32 860.161C1275.24 853.232 1302.72 839.443 1309 837M222 839C229.51 845.034 244.24 851.07 248.344 860.139C252.501 869.328 242.528 889.094 239.473 898C238.006 902.276 235.163 918.871 229.871 919.677C225.556 920.334 219.14 907.949 216.848 905C203.569 887.914 209.669 857.908 222 839M1634 849.704C1610.58 855.553 1652.91 858.478 1657.33 856.146C1664.51 852.354 1637.94 848.721 1634 849.704M247 950C219.075 927.841 249.426 889.502 252 862C256.027 863.012 267.195 866.848 269.098 870.735C271.636 875.921 266.614 886.851 265.192 892C259.783 911.574 253.433 930.708 247 950M1945 868C1934.44 889.219 1941.68 920.173 1939.91 943C1939.55 947.677 1933.27 964.638 1936.79 967.854C1941.99 972.605 1955.16 969.407 1961 967.951C1977.44 963.849 1995.24 966.132 2012 965.997C2017.61 965.951 2029.48 965.496 2031 959C2008.85 960.078 1987.13 959.693 1965 961.086C1959.93 961.405 1947.12 967.589 1943.7 961.396C1941.05 956.601 1943.66 948.162 1943.92 943C1944.7 927.58 1942.08 912.23 1944.81 897C1946.28 888.847 1950.54 874.917 1945 868M2020 876C2016.82 888.551 2018.12 904.997 2018 918C2016.81 916.813 2016.42 916.472 2015 916C2013.66 926.781 2015.7 937.806 2014 949C2027.62 940.529 2025.09 890.398 2022 876L2020 876M446 1006C493.011 1001.62 538.366 987.275 585 983.441C597.639 982.402 609.875 989.719 623 988C614.296 1006.15 642.154 975.625 644 965C637.706 969.512 634.406 977.195 628 982C628.333 954.698 640.266 921.546 636.977 895.079C636.434 890.707 626.761 884.805 625 891C626.949 891.936 627.55 892.392 629 894C588.422 884.384 546.642 884.807 506 894.438C499.009 896.095 476.314 895.97 472.085 900.52C464.788 908.369 464.916 923.11 462.995 933C458.176 957.807 451.392 981.57 446 1006M1602 887C1597.64 898.805 1591.41 911.391 1590.13 924C1589.93 925.874 1587.79 935.997 1591.15 935.997C1595.03 935.997 1594.87 927.399 1595.07 925C1595.95 914.406 1607.28 896.68 1602 887M1681 936C1680.31 929.59 1682.46 923.323 1683.44 917C1684.06 912.983 1685.08 909.022 1685.64 905C1685.86 903.369 1685.72 885.311 1682.13 889.106C1679.76 891.615 1673.46 929.695 1674.27 933.07C1674.94 935.871 1678.8 935.845 1681 936M1661 939C1661.79 931.687 1666.11 925.54 1669.08 918.96C1670.65 915.479 1672.04 911.762 1672.74 908C1680.9 864.108 1653.21 932.522 1661 939M1614 890C1614 907.263 1612.8 924.39 1608 941C1618.07 937.456 1623.64 896.444 1614 890M543 986C556.411 969.421 562.366 945.158 563.864 924C564.293 917.938 559.9 897.332 563.345 893.241C570.164 885.146 600.063 894.085 609 895.019C611.582 895.289 621.892 894.839 622.894 897.743C624.215 901.572 614.303 907.849 612.008 910.115C602.483 919.515 592.732 930.209 584.864 940.993C583.117 943.387 576.502 948.334 577.081 951.534C577.692 954.909 585.952 952.203 588 951.957C593.056 951.349 622.758 947.968 625.138 951.862C627.358 955.495 624.897 980.37 621.499 982.74C614.009 987.964 597.993 980.271 590 979.222C574.417 977.176 558.697 989.354 543 986M2009 892C2000.47 912.186 2006.44 934.298 2002 955C2010.64 953.869 2007.14 945.384 2007.06 939C2006.85 923.427 2012.23 907.448 2011 892L2009 892M551 894C550.227 915.809 545.141 937.339 543.217 959C542.636 965.54 543.847 978.047 537.998 982.74C533.725 986.168 521.529 985.788 516 987C494.79 991.651 473.401 994.263 453 1001C456.021 977.596 463.913 953.33 468.776 930C470.332 922.534 468.885 910.164 475.847 905.039C479.575 902.295 488.361 903.023 493 901.871C512.664 896.989 531.194 896.626 551 894M632 897C630.581 906.275 631.08 939.513 624.499 945.06C617.021 951.363 597.099 947.036 588 947C591.402 930.628 617.649 904.921 632 897M1958 898C1955.49 907.923 1950.41 953.062 1959 957C1959.71 942.431 1969.62 909.941 1958 898M900 901C888.549 917.624 861.162 916.364 841 919.599C835.328 920.51 825.516 919.379 820.821 923.256C808.654 933.303 818.936 963.947 812.523 976.731C808.343 985.064 806.007 975.88 806 972C801.708 974.045 798.431 976.727 795 980C799.466 983.946 809.737 982.206 812.178 987.284C815.187 993.543 808.169 1007.7 814.819 1012.22C820.003 1015.74 828.307 1012.27 834 1012.48C853.821 1013.22 874.149 1012.92 894 1013L890 1023C897.13 1022.25 897.749 1013.89 905.01 1012.51C926.395 1008.44 951.203 1011.3 973 1010C972.455 1013.23 972.299 1015.79 973 1019C979.5 1013.74 977.868 999.794 978.68 992C980.941 970.277 984.646 948.595 992.6 928C994.004 924.363 1003.68 904.949 1000.33 902.822C996.006 900.072 985.99 902.025 981 901.997C963.807 901.904 949.902 898.899 933 904.721C927.136 906.741 907.903 915.355 902.462 912.432C899.178 910.668 900.668 904.136 900 901M1973 955C1973.35 936.641 1972 918.419 1972 900C1964.31 904.771 1965.29 951.947 1973 955M1994 901C1991.64 911.79 1982.75 945.026 1992 953C1994.8 941.944 2000.1 910.737 1994 901M898 918C924.648 917.96 945.566 903.675 973 906.677C977.47 907.166 989.768 904.043 992.918 907.262C996.258 910.676 984.1 941.663 982.186 947C978.342 957.724 974.998 970.635 974.139 982C973.69 987.935 976.045 998.1 972.315 1003.19C966.099 1011.66 926.131 1008 916 1008C912.308 1008 902.846 1009.67 900.396 1006.18C897.301 1001.77 900 987.467 900 982C900 961.723 902.249 937.802 898 918M183 912C186.804 911.093 189.599 910.172 192 907C188.044 907.667 185.373 908.698 183 912M904.5 907.5C903.873 908.127 904.872 909.128 905.5 908.5C906.128 907.872 905.127 906.873 904.5 907.5M852 938C856.603 932.734 857.911 924.277 862.987 919.822C866.397 916.829 872.813 918.001 877 918C880.964 917.999 889.948 915.84 893.178 918.3C899.16 922.855 895.999 959.024 896 967C896.001 976.144 900.075 999.885 893.743 1007.14C891.014 1010.26 879.925 1008 876 1008C866.122 1008 817.928 1013.12 817.07 1001.97C815.005 975.13 841.517 978.29 862 972C864.684 971.176 876.149 970.784 877.239 968.411C878.359 965.971 867.716 959.216 866 957.814C857.305 950.71 847.836 941.943 838 936.571C834.38 934.594 825.416 933.393 824.106 928.813C824.052 928.624 851.95 918.449 854.622 921.319C857.209 924.097 851.903 934.26 852 938M1361 919C1354.04 940.191 1343.5 963.813 1341 986C1334.27 983.353 1315.52 962.477 1317.24 954.479C1317.84 951.685 1325.11 948.263 1327.32 946.365C1335.86 939.016 1351.42 922.924 1361 919M451 929C452.81 930.24 452.777 930.184 455 930C453.19 928.76 453.223 928.816 451 929M210.333 930.667C210.278 930.722 210.222 931.778 210.667 931.333C210.722 931.278 210.778 930.222 210.333 930.667M822.604 936.125C832.388 932.869 852.09 951.119 859 956.602C861.179 958.331 871.692 963.515 865.686 966.383C858.539 969.795 826.523 981.576 819.822 976.662C815.699 973.64 817.471 937.833 822.604 936.125M1609 970C1608.69 975.896 1641.01 991.289 1646.7 989.9C1656.18 987.592 1630.55 976.424 1627 976.008C1620.08 975.195 1615.12 973.119 1609 970M969 999C961.527 999.557 965.26 1005.05 969 999M254 1022L255 1023L254 1022M300 1023L300 1025L303 1025L303 1023L300 1023M2070 1215C2069.47 1203.45 2069.06 1187.07 2059.76 1178.51C2045.93 1165.77 2020.28 1182.41 2016.63 1198C2012.28 1216.53 2025.24 1232.39 2044 1231.7C2046.88 1231.6 2062.5 1226.85 2062.97 1227.78C2065.54 1232.79 2059.95 1247.08 2058.11 1252C2052.68 1266.56 2045.66 1282.55 2032 1291.1C2021.38 1297.75 1998.36 1303.66 1992 1314C2028.81 1311.75 2053.12 1279.51 2064.52 1248C2067.47 1239.84 2066.55 1229.98 2070.46 1222.14C2078.72 1205.56 2098.08 1196.53 2092.26 1174C2087.18 1154.32 2072.88 1147.08 2057.02 1137.02C2054.48 1135.42 2042.42 1124.43 2039.62 1129.57C2036.83 1134.71 2070.91 1150.5 2074.78 1154.22C2096.78 1175.39 2086.27 1195.42 2070 1215M1315 1176C1309.41 1199.77 1301.82 1223.12 1296.38 1247C1292.68 1263.24 1290.64 1284.13 1282.98 1298.95C1277.96 1308.67 1263.38 1314.33 1255.02 1320.94C1245.39 1328.55 1237.52 1343.1 1234.92 1355C1232.56 1365.77 1233.26 1377.55 1239.54 1386.78C1246.64 1397.2 1256.94 1405.73 1259 1388C1294.96 1401.69 1325.52 1374.26 1326.91 1339C1327.4 1326.67 1321.84 1310.56 1310.87 1303.77C1307.47 1301.66 1292.08 1299 1291.22 1296.46C1288.27 1287.73 1296.43 1270.65 1298.5 1262C1305.8 1231.56 1312.85 1201.91 1322 1172C1303.83 1172.18 1289.84 1180.61 1273 1185.14C1270.11 1185.91 1253.88 1186.75 1258.26 1193.4C1259.19 1194.81 1269.81 1191.86 1272 1191.37C1286.07 1188.24 1301.07 1180.55 1315 1176M1588 1307C1598.77 1286.01 1612.6 1264.15 1626.32 1244.92C1632.05 1236.9 1637.21 1226.01 1646 1221C1646.14 1235.07 1657.44 1257.63 1648.41 1269.99C1638.89 1283.04 1621.26 1288.66 1609.76 1299.65C1607.42 1301.89 1598.6 1306.76 1599.32 1310.66C1600.19 1315.3 1621.4 1296.52 1624.75 1297.02C1630.58 1297.89 1631.67 1304.79 1639 1303.55C1647.64 1302.09 1663.17 1281.15 1662.9 1272.27C1662.77 1267.83 1656.48 1267.59 1657.74 1261.99C1660.36 1250.31 1667.89 1237.81 1671.59 1226C1674.42 1216.95 1690.99 1183.14 1675.95 1178.61C1665.78 1175.55 1655.68 1185.98 1651.53 1194C1637.14 1221.74 1619.22 1247.13 1603.14 1275C1598.87 1282.41 1580 1301.21 1588 1307M2043 1179.53C2065.26 1174.08 2075.06 1220.59 2052 1226.5C2016.66 1235.56 2010.14 1187.57 2043 1179.53M1657 1254C1649.75 1236.9 1650.16 1214.44 1655.58 1197C1657.46 1190.96 1666.78 1179.22 1674.5 1182.87C1679.43 1185.21 1676.81 1197.13 1675.51 1201C1669.67 1218.43 1665.69 1237.73 1657 1254M189 1191C227.077 1235.43 254.814 1286.75 229.395 1346C222.307 1362.52 204.32 1373.42 198 1390C210.029 1387.76 216.356 1373.03 223.124 1364C252.124 1325.32 246.588 1272.94 226.232 1232.2C220.05 1219.83 204.554 1191.36 189 1191M134 1194C95.7931 1232.32 99.4688 1285.96 118.618 1333C122.512 1342.57 138.837 1380.86 152.469 1377.58C152.328 1377.61 133.869 1353.33 130.925 1348C112.326 1314.33 103.731 1270.56 113.582 1233C116.461 1222.02 137.812 1204.3 134 1194M702.5 1195.5C701.873 1196.13 702.873 1197.13 703.5 1196.5C704.127 1195.87 703.127 1194.87 702.5 1195.5M172 1196C172 1233.54 179.021 1271.44 180.922 1309C182.294 1336.11 179.515 1363.09 179 1390C189.536 1382.75 185 1358.25 185 1347C185 1309.12 183.676 1270.65 179.438 1233C178.317 1223.04 180.644 1202.73 172 1196M1001 1317C1002.18 1307.57 972.067 1304.41 964 1299C970.068 1294.46 977.604 1288.16 982 1282C970.607 1280.6 958.722 1288.65 947 1287.89C937.482 1287.28 908.627 1259.2 904.254 1250.22C900.776 1243.08 911.746 1223.12 914.529 1216C915.476 1213.58 919.698 1205.47 915.477 1204.08C908.066 1201.64 877.365 1214.63 869 1217.56C866.714 1218.35 855.686 1220.36 857.106 1224.33C861.265 1235.97 895.056 1236.55 896.112 1252.52C896.787 1262.73 885.867 1281.57 881.7 1291C880.589 1293.51 874.892 1301.17 877.204 1303.72C880.326 1307.16 891.495 1301.56 895 1300.46C904.249 1297.54 947.703 1287.3 952.456 1299.3C954.195 1303.69 944.593 1308.73 942.019 1311.14C930.502 1321.94 923.692 1334.9 915.428 1348C913.922 1350.38 903.723 1358.98 905.969 1361.09C908.826 1363.78 942.936 1356.93 948 1354.84C950.228 1353.92 959.092 1350.86 957.894 1347.36C955.813 1341.28 925.193 1362.01 920.675 1352.18C918.176 1346.74 931.394 1330.96 934.647 1327C940.394 1320 950.03 1306.64 959.328 1304.24C965.667 1302.6 994.746 1313.35 1001 1317M910 1211C909.637 1215.51 902.067 1245.35 897.724 1245.36C889.843 1245.37 876.064 1227.66 866 1225C877.395 1217.5 896.74 1214.3 910 1211M594 1244C593.908 1266.9 578.879 1287.32 577 1310C563.339 1300.94 556.737 1282.45 544.981 1271.05C542.677 1268.82 533.965 1260.5 530.387 1261.3C528.04 1261.83 524.928 1270.26 523.047 1272.32C512.122 1284.29 505.193 1300.31 493 1311C490.735 1296.11 485.826 1280.94 480.254 1267C479.747 1265.73 475.245 1251.28 473.389 1254.11C469.926 1259.38 480.764 1280.36 482.685 1286.22C492.535 1316.25 505.379 1348.54 513 1379C507.996 1378.84 504.425 1377.21 500 1375C497.697 1389.08 517.989 1377.79 516 1394C520.097 1392.13 520.926 1385.33 525.241 1384.74C530.664 1383.99 550.756 1392.33 551.003 1392.11C556.926 1386.72 557.258 1375.94 560.478 1369C573.61 1340.71 581.851 1310.12 589.331 1280C591.953 1269.44 601.533 1254.03 594 1244M939 1290C919.951 1289.04 902.028 1293.22 884 1299C888.137 1289.66 891.753 1261.48 900.026 1256.11C903.521 1253.84 908.81 1260.81 911 1262.78C920.246 1271.06 932.643 1279.17 939 1290M554 1377C548.51 1372.6 547.432 1360.69 546.242 1354C542.988 1335.71 540.179 1317.16 536.216 1299C535.031 1293.57 529.551 1278.01 535.604 1274.06C539.888 1271.27 546.64 1278.44 549.165 1281.24C556.136 1288.95 575.472 1310.58 573.006 1321C568.552 1339.81 556.175 1357.89 554 1377M1651.33 1274.81C1658.97 1273.1 1645.05 1298.19 1638.08 1299.57C1633.73 1300.43 1629.27 1294.24 1631.17 1290.34C1633.27 1286.02 1646.59 1275.88 1651.33 1274.81M529 1275C525.566 1301.3 523.216 1326.45 521.941 1353C521.644 1359.18 522.2 1375.54 516 1378C513.744 1358.66 493.984 1336.57 496.121 1317C497.015 1308.82 507.45 1298.49 512.245 1292C516.532 1286.2 521.566 1276.8 529 1275M965 1291C961.67 1296.86 956.7 1298.32 953 1292C957.046 1291.45 960.911 1290.73 965 1291M531 1294C539.562 1318.73 546.745 1356.77 547 1383C541.39 1381.81 528.88 1382.17 525.338 1377.04C522.122 1372.39 526.098 1360.29 526.677 1355C528.775 1335.84 523.363 1312 531 1294M1289.42 1303.82C1304.25 1296.4 1319.09 1315.15 1320.51 1328C1323.4 1354.25 1319.39 1371.89 1294 1383.63C1290.48 1385.26 1286.75 1386.66 1283 1387.66C1247.64 1397.09 1273.73 1352.55 1277.87 1337C1279.8 1329.78 1282.39 1307.34 1289.42 1303.82M1251 1375C1254.59 1382.73 1254.72 1385.66 1254 1394C1228.53 1380.31 1239.47 1342.78 1255.26 1326.1C1257.7 1323.52 1277.63 1308.26 1280.14 1309.72C1282.86 1311.31 1277.01 1325.5 1276.16 1328C1272.41 1339.08 1263.09 1384.4 1251 1375M1003 1633C996.876 1615.87 964.514 1606.04 951.864 1592.96C948.058 1589.02 939.236 1582.43 939.709 1576.19C940.173 1570.07 956.356 1570.24 961 1569.23C975.271 1566.15 1011.78 1549.19 1007.23 1530C999.281 1496.5 951.414 1501.24 929.067 1514.47C907.407 1527.3 919.957 1558.12 911.178 1576.66C906.425 1586.7 885.422 1586.83 877.081 1592.99C853.39 1610.47 858.548 1655.1 886.999 1666.49C896.695 1670.37 901.611 1653.52 903.779 1647C909.069 1631.09 910.86 1580.41 927.992 1577.19C934.668 1575.93 944.483 1591.38 948.782 1595.98C959.485 1607.45 987.24 1631.67 1003 1633M925 1554C944.838 1554.67 963.417 1547.82 983 1546C967.448 1530.69 934.765 1562.81 919.961 1547.18C915.204 1542.15 925.812 1524.3 930.198 1520.98C946.322 1508.8 1001.62 1501.23 1003.41 1533.02C1003.82 1540.31 994.129 1547.99 988.864 1551.85C973.104 1563.42 932.08 1579.75 925 1554M1949 1684C1954.33 1690.12 1964.68 1688.71 1971.96 1690.34C1984.43 1693.12 1996.06 1701.15 2009 1703.73C2016.69 1705.26 2029.9 1704.88 2034 1712C2064.46 1686.08 2048.61 1628.23 2067 1597C2071.22 1618.5 2071.63 1643.86 2065.2 1665C2060.98 1678.84 2047.97 1701.28 2049 1715C2064.9 1705.12 2062.08 1683.81 2073 1671C2072.87 1684.82 2065.9 1703.39 2080 1713C2092.68 1688.02 2114.04 1654.24 2116 1626C2108.29 1629.09 2108.29 1637.06 2105.98 1644C2101.16 1658.48 2093.27 1671.89 2087.44 1686C2085.68 1690.27 2084.03 1700.29 2079.74 1702.68C2073.52 1706.14 2076.26 1678.46 2076.18 1676C2075.77 1662.63 2078.33 1651.05 2083.98 1639C2084.55 1637.78 2088.55 1629.64 2084.83 1629.64C2079.96 1629.64 2075.35 1647.54 2072 1651C2074.17 1634.73 2074.59 1617.34 2072.42 1601C2071.6 1594.83 2072.52 1586.08 2065 1585C2065.1 1612.41 2051.66 1646.91 2045.56 1674C2043.96 1681.12 2041.97 1698.04 2033.82 1700.74C2011.21 1708.22 1985.01 1685.78 1963 1685C1974.94 1667.09 2019.93 1665.59 2025 1646C2013.12 1647.58 2003.22 1655.27 1991 1655.93C1975.21 1656.78 1959 1651.73 1943 1654C1960.69 1619.94 1960.54 1589.95 1963.14 1553C1963.38 1549.48 1967.9 1520.64 1963.92 1520.64C1959.96 1520.64 1959.61 1547.2 1959.2 1551C1957.01 1571.06 1960.8 1592.59 1954.27 1612C1950.9 1622.02 1936.09 1645.66 1938.24 1655.63C1940.78 1667.44 1981.87 1651.93 1983.92 1662.2C1985.13 1668.24 1954.28 1682.19 1949 1684M104 1615C122.985 1610.67 143.597 1612.77 162 1607C162.116 1618.9 173.527 1637.67 169.942 1648.7C167.941 1654.85 154.136 1661.09 149 1664.84C131.446 1677.64 111.523 1691.69 95.4456 1706.04C83.3468 1716.84 74.7435 1726.62 61 1735.65C58.8263 1737.08 48.8296 1741.06 50.1057 1744.6C50.7539 1746.4 64.7112 1746.85 66.4109 1745.57C88.6995 1728.79 110.868 1722.58 137.078 1712.66C151.568 1707.17 165.678 1700.02 180 1694C183.443 1692.55 192.65 1690.34 193.214 1685.89C193.753 1681.64 186.255 1683.64 184.449 1680.55C175.598 1665.42 177.839 1650.33 189.008 1638.02C206.27 1619 251.734 1607.1 248 1575C242.729 1582.21 241.064 1591.16 234.783 1597.91C223.56 1609.98 207.65 1615.78 195.04 1626.04C187.593 1632.1 182.476 1641.4 174 1646C173.876 1636.62 163.182 1614.46 167.496 1606.67C171.789 1598.91 190.311 1601.32 193.393 1592.72C198.547 1578.35 182.908 1559.58 189.704 1545.32C194.682 1534.87 226.982 1537.09 237 1536C235.407 1530.02 189.332 1531.65 184.384 1538.6C175.226 1551.47 197.62 1583.99 183.885 1591.76C159.491 1605.56 160.668 1581.91 156.575 1562C155.922 1558.83 156.419 1549.08 152.666 1547.76C149.393 1546.61 142.79 1559.6 141.077 1562C132.66 1573.78 125.746 1586.62 116.764 1598C112.557 1603.33 104.978 1608.06 104 1615M580 1717C577.752 1723.89 573.434 1729.59 573 1737C580.373 1733.7 583.475 1721.16 586 1714C587.279 1724.4 579.984 1734.92 578 1745C587.831 1735.55 584.84 1720.55 591.921 1710.22C605.115 1690.96 624.086 1675.87 636.784 1655.92C641.327 1648.78 653.845 1625.28 664.871 1628.93C673.16 1631.67 669.07 1645.94 668.302 1652C665.385 1675.02 662.189 1697.5 656.364 1720C655.436 1723.58 646.392 1745.67 653.539 1743.81C659.587 1742.24 665.309 1704.57 666.781 1698C675.663 1658.37 681.138 1611.6 670.137 1572C668.297 1565.38 656.813 1536.46 650.07 1535.32C644.908 1534.45 639.097 1556.17 637.595 1560C629.46 1580.75 624.266 1602.06 617.006 1623C614.671 1629.73 613.133 1641.04 606 1644C611.665 1615.93 620.295 1585.51 631.12 1559C632.323 1556.06 644.227 1534.05 640.584 1533.32C635.607 1532.33 628.394 1553.23 626.949 1557C616.661 1583.81 613.572 1615.04 601.654 1640.9C597.253 1650.44 580.045 1651.87 572 1657.74C555.231 1669.99 554.035 1685.56 548.677 1704C547.299 1708.74 541.744 1716.59 542.735 1721.48C543.609 1725.79 575.606 1718.52 580 1717M958 1538C959.927 1540.33 961.027 1540.44 964 1540C961.912 1538.65 960.485 1538.27 958 1538M649 1542.33L649.333 1542.67C648.84 1542.83 648.227 1542.33 649 1542.33M651 1544C661.101 1563.05 673.706 1584.87 671.774 1607.85C671.371 1612.65 663.449 1614.8 660.339 1618.09C648.573 1630.54 634.237 1645.84 615 1641C625.372 1620.57 631.475 1593.91 638.641 1572C641.231 1564.08 642.749 1547.77 651 1544M151 1557C153.267 1564.86 164.606 1594.74 159.119 1601.33C152.428 1609.35 126.801 1606.35 117 1608C121.743 1591.71 139.514 1569.38 151 1557M917 1576C917.102 1550.26 935.68 1569.66 917 1576M1512 1604C1521.38 1627.3 1509.65 1652.61 1505.28 1674.14C1504.53 1677.84 1503 1695.44 1507.54 1696.89C1511.96 1698.31 1521.58 1683.99 1524.26 1680.98C1537.88 1665.67 1552.43 1640 1569.08 1628.59C1575.15 1624.43 1590.11 1632.41 1596 1635.48C1619.67 1647.82 1643.83 1660.98 1665.86 1676.07C1670.38 1679.16 1689.47 1688.6 1689.48 1694.18C1689.49 1700.89 1676.44 1712.05 1670 1711.79C1653.42 1711.14 1634.72 1697.66 1618 1693.77C1613.81 1692.79 1591.5 1687.23 1592.99 1694.12C1599.8 1725.58 1634.43 1742.26 1661.96 1731.91C1670.66 1728.64 1674.55 1716.3 1684 1715.25C1698.06 1713.68 1708.13 1714.44 1722 1717.16C1725.05 1717.76 1733.16 1719.59 1735.59 1716.84C1740.09 1711.77 1702.54 1699.15 1704.76 1693.39C1705.8 1690.69 1717.71 1686.4 1720.59 1682.99C1730.33 1671.48 1738.91 1655.93 1744.52 1642C1745.59 1639.36 1753.75 1627.27 1751.14 1625.61C1746.35 1622.56 1738.86 1640.08 1737.37 1643C1729.22 1659.04 1719.88 1690.58 1697.44 1690.28C1686.9 1690.13 1667.93 1672.28 1659 1666.48C1631.7 1648.75 1602.35 1632.85 1572 1621C1584.37 1607.71 1593.01 1591.99 1606 1579C1612.88 1572.12 1626.05 1566.42 1631 1559C1598.1 1559.35 1591.52 1605 1567.8 1617.93C1553.52 1625.72 1527.41 1601.77 1512 1604M910 1583C914.76 1601.81 905.345 1626.05 899.88 1644C898.433 1648.75 895.805 1661.34 889.088 1661.36C875.807 1661.4 862.057 1625.39 865.965 1614.44C872.715 1595.52 893.857 1590.84 910 1583M1323 1778C1333.17 1775.24 1325.63 1768.87 1328.21 1762C1331.75 1752.61 1341.16 1732.22 1348.24 1725.32C1364.63 1709.37 1392.53 1703.49 1412 1692.02C1415.82 1689.77 1430.85 1686.58 1431.68 1681.79C1432.47 1677.15 1420.51 1677.72 1418 1677.77C1410.07 1677.92 1376 1682.08 1371.38 1674.18C1369.34 1670.69 1376.75 1660.29 1378.43 1657C1386.95 1640.32 1396.32 1624.11 1404 1607C1395.38 1608.47 1393.46 1618.03 1390.19 1625C1384.35 1637.48 1374.9 1664.6 1364.44 1673.18C1351.01 1684.19 1323.69 1666.23 1311 1661.65C1306.71 1660.1 1278.4 1646.72 1275.96 1652.56C1273.69 1658.01 1284.05 1666.08 1287.06 1669.56C1299.05 1683.43 1308.21 1699.35 1312.7 1717C1314.14 1722.64 1317.16 1733.35 1310.85 1736.71C1267.45 1759.82 1214.11 1780.64 1165 1786.44C1153.12 1787.84 1140.93 1786.76 1129 1787.15C1127.14 1787.21 1116.63 1785.18 1118.11 1789.64C1120.68 1797.47 1160.99 1792.37 1168 1791.42C1202.22 1786.76 1239.48 1775.09 1271 1761.08C1281.56 1756.38 1302.17 1739.39 1314.54 1742.32C1320.08 1743.63 1324.16 1772.88 1323 1778M1510 1690C1509.06 1677.64 1514.93 1672.07 1517.4 1661C1519.57 1651.27 1518.22 1640 1519.12 1630C1519.44 1626.39 1518.39 1612.68 1521.82 1610.92C1526.25 1608.65 1564.05 1622.59 1563.26 1626.2C1561.93 1632.28 1554.69 1639.25 1550.89 1644C1539.79 1657.91 1525.24 1680.86 1510 1690M669 1619C668.395 1623.06 666.949 1623.62 663 1623C664.741 1620.52 666.074 1619.78 669 1619M1117 1779C1140.64 1765.93 1165.1 1750.85 1183.76 1731.08C1205.38 1708.17 1223.59 1677.5 1249 1658.67C1262.36 1648.78 1302.62 1647.28 1304 1629C1286.13 1638.83 1262.64 1641.86 1246 1654.54C1215.34 1677.89 1194.72 1714.97 1166 1740.87C1155.04 1750.75 1118.96 1764.45 1117 1779M639 1640C634.049 1657.39 609.145 1694.79 592 1701C595.835 1688.84 605.163 1654.47 615.578 1647.23C621.351 1643.22 632.161 1643.2 639 1640M608 1647C607.54 1653.52 605.109 1659.31 602 1665C600.335 1659.18 603.285 1652.15 606 1647L608 1647M600 1650C595.472 1683.76 591.284 1716.82 551 1716C555.826 1684.17 566.369 1659.11 600 1650M2072 1654C2072.55 1656.69 2072.15 1658.51 2071 1661C2070.45 1658.31 2070.85 1656.49 2072 1654M85 1724C96.9664 1702.95 129.392 1684.07 149 1669.96C152.777 1667.24 167.321 1654.13 171.98 1657.36C175.484 1659.79 183.897 1684.82 181.117 1687.72C175.795 1693.27 163.891 1694.93 157 1698.02C134.786 1707.98 109.235 1720.65 85 1724M1284 1656C1300.87 1666.9 1326.03 1673.44 1345 1680.49C1348.94 1681.96 1359.4 1676.85 1361.5 1679.75C1363.38 1682.32 1357.31 1693.27 1356.11 1696C1349.81 1710.37 1342.44 1730.79 1323.15 1731.12C1317.71 1731.21 1317.28 1718.07 1316.26 1714C1312.63 1699.63 1305.95 1686.99 1297.22 1675.01C1293.37 1669.72 1283.72 1662.8 1284 1656M1418 1682C1409.68 1693.94 1386.47 1697.29 1374.02 1704.25C1366.31 1708.56 1359.82 1715.04 1351 1717C1352.73 1709.76 1361.23 1683.47 1368.2 1680.56C1379.87 1675.68 1404.52 1683.51 1418 1682M1672 1716C1656.88 1751.54 1606.16 1721.28 1600 1695C1612.58 1698.35 1625.6 1698.75 1638 1703.54C1649.64 1708.03 1658.93 1716.46 1672 1716M1721 1711C1710.58 1712.39 1696.09 1709.96 1685 1710C1694.75 1690.38 1707.54 1701.01 1721 1711M1723.67 1711.67C1723.72 1711.72 1723.78 1712.78 1723.33 1712.33C1723.28 1712.28 1723.22 1711.22 1723.67 1711.67M1340 1729C1338.8 1735.69 1335.65 1742.95 1330 1747L1332 1742C1326.45 1743.33 1326.21 1746.5 1329 1751C1322.5 1753.35 1319.38 1743.59 1322.34 1738.59C1325.02 1734.05 1335.15 1730.63 1340 1729M1079 1744C1080.74 1745.93 1081.85 1747.67 1083 1750C1085.08 1741.89 1077.08 1738.36 1072.41 1745.63C1069.94 1749.47 1077.3 1747.38 1079 1744M577 1748L576 1751C577.766 1750.02 577.955 1749.78 577 1748M1307 1753L1307 1756L1309 1756L1309 1753L1307 1753M1381 1789C1381.94 1792.58 1383.42 1793.38 1387 1794C1385.66 1790.89 1384.19 1790.03 1381 1789M1248 1880C1245.6 1891.17 1245.17 1903.33 1238.12 1912.97C1228.05 1926.74 1212.22 1932.82 1204.07 1949.13C1180.76 1995.82 1167.79 2046.14 1147.48 2094C1139.44 2112.94 1117.09 2140.22 1117 2160C1167.97 2149.42 1210.19 2117.46 1254 2091.21C1265.12 2084.55 1277.31 2064.12 1289.56 2061.54C1298.83 2059.58 1313.22 2070.03 1321 2073.98C1345.78 2086.55 1379.1 2111.56 1409 2104C1401.37 2095.11 1383.74 2097.54 1373 2094.66C1354.32 2089.66 1337.97 2076.9 1321 2068.04C1317.37 2066.14 1295.76 2059.19 1295.6 2055.85C1295.33 2050.21 1307.78 2041.15 1311.36 2037.32C1319.11 2029.02 1327.28 2014.88 1337.22 2009.38C1348.79 2002.99 1359.98 2003.59 1370.96 1993.67C1373.86 1991.05 1397.37 1975.73 1396.03 1973.83C1393.02 1969.57 1361.73 1982.51 1357 1985.16C1347.81 1990.31 1340.77 2000.35 1331 2004.12C1300.94 2015.7 1258.34 2022.93 1232.53 2042.74C1226.82 2047.12 1240.2 2050.96 1243 2051.7C1247.89 2052.98 1283.93 2048.19 1281.43 2059.78C1278.9 2071.55 1251.82 2086.15 1242 2091.7C1202.71 2113.88 1170.5 2140.8 1125 2150C1160.72 2086.44 1174.14 2013.44 1209.33 1950C1221.44 1928.16 1260.88 1910.76 1248 1880M1974 1912C1976.88 1916.19 1987.1 1919.88 1988 1924.34C1989.51 1931.85 1969.73 1945.32 1964 1942C1965.48 1950.33 1963.77 1953.73 1955 1951C1957.38 1960.71 1938.18 1987.26 1929.32 1992.97C1925.29 1995.56 1921.11 1993.21 1917 1997C1938.47 2000.26 1904.01 2014.07 1911.83 2019.21C1924.9 2027.8 1949.54 2019.14 1964 2022L1961 2015C1978.52 2016.63 1990.81 2014.97 2008 2013.01C2011.37 2012.62 2021.18 2009.25 2023.73 2011.98C2027.71 2016.22 2022.95 2032.07 2021.55 2037C2017.22 2052.23 2003.8 2089.49 2015 2103C2019.46 2079.29 2021.11 2055.68 2026.74 2032C2028.09 2026.32 2026.64 2014.25 2030.26 2009.82C2036.17 2002.59 2082.24 2010.11 2085 2017C2089.81 2013.06 2092.9 2011.84 2099 2011C2093.75 2001.33 2099.02 1997.16 2100 1987C2108.08 1990.29 2112.42 2000.9 2122 2000C2117.49 1993.53 2106.74 1988.75 2105.3 1980.44C2104.2 1974.07 2110.25 1968.84 2109 1962C2105.24 1966.6 2102.53 1972.06 2102 1978C2096.78 1975.05 2087.64 1966.97 2086.07 1960.96C2084.52 1954.99 2089.36 1950.61 2085 1945C2083.9 1949.01 2083.15 1952.83 2083 1957C2057.88 1942.78 2040.99 1905.64 2010.05 1899.86C2001.04 1898.18 2000 1914.52 1993.55 1917.54C1988.57 1919.88 1979.19 1912.99 1974 1912M2029 1920C2023.83 1921.11 2004.5 1924.04 2001.48 1918.31C1999.46 1914.47 2006.15 1905.76 2010.3 1906.3C2015.64 1906.99 2026.03 1915.6 2029 1920M2026 1988C2026 2008.87 2017.19 2003.08 2001 2008.35C1996.72 2009.75 1984.95 2015.2 1981.18 2011.16C1976.86 2006.52 1976.78 1989.39 1975.94 1983C1974.81 1974.42 1969.94 1962.38 1971.12 1954C1974.52 1929.95 2001.26 1926.44 2019 1925.98C2025.75 1925.8 2033.08 1919.25 2039.02 1922.92C2048.17 1928.56 2077.09 1951.3 2078.61 1962C2079.38 1967.45 2072.13 1975.32 2069.66 1980C2060.58 1997.2 2062.61 2002.75 2043 2002.04C2039.87 2001.93 2033.71 2003.17 2031.26 2000.74C2028.21 1997.73 2029.31 1991.63 2026 1988M1573 2098C1585.41 2072.16 1592.15 2042.23 1602.34 2015.22C1607.78 2000.81 1616.93 1979.56 1613 1964C1606.55 1973.33 1606.89 1986.4 1603.33 1997C1594.75 2022.48 1584.77 2047.47 1576.34 2073C1574.9 2077.36 1564.35 2104.93 1564.57 2105.02C1572.36 2108.18 1597.14 2096.79 1605 2093.78C1643.9 2078.9 1678.79 2054.26 1716 2037C1714.14 2056.97 1711.45 2077.07 1709.92 2097C1709.4 2103.81 1703.2 2109.88 1708 2116C1740.4 2083.28 1743.3 2038.54 1761.1 1999C1766.49 1987.02 1779.61 1981.77 1786 1971C1764.72 1968.6 1774.54 1949.43 1785.29 1938.01C1786.4 1936.83 1797.44 1927.69 1792.17 1926.1C1776.88 1921.47 1773.88 1963.34 1763.68 1965.7C1749.29 1969.04 1720.73 1949.48 1707.83 1960.26C1704.02 1963.44 1707.59 1974.95 1708.63 1979C1711.64 1990.66 1720.71 2017.51 1714.72 2028.84C1707.31 2042.86 1683.38 2049.9 1670 2055.59C1636.77 2069.71 1607.47 2086.54 1573 2098M886 2086C897.277 2080.2 896.873 2068.33 902.329 2058C917.521 2029.23 925.663 1996.05 938.3 1966C940.249 1961.37 953.587 1930.62 947.171 1928.06C939.389 1924.95 917.731 1935.39 909 1936.64C895.948 1938.51 880.157 1938.92 867 1937.86C862.6 1937.5 853.706 1933.35 849.822 1936.3C845.037 1939.94 849.293 1953.73 848.774 1959C846.84 1978.65 839.736 1999.01 834.504 2018C829.703 2035.43 827.846 2053.67 823.037 2071C821.921 2075.03 815.818 2086 819.3 2089.74C826.095 2097.04 849.548 2089.76 858 2089.41C888.428 2088.12 919.752 2099.59 951 2092.18C955.813 2091.04 988.357 2087.21 988.357 2081.97C988.357 2077.47 974.327 2081.97 972 2082.34C954.062 2085.23 936.304 2089.14 918 2088.97C896.55 2088.78 870.641 2080.93 850 2084.7C846.266 2085.38 827.915 2088.98 826 2084.74C824.41 2081.23 828.678 2071.82 829.365 2068C832.263 2051.88 835.72 2036 839.146 2020C841.832 2007.46 844.665 1995.27 848.44 1983C849.226 1980.44 849.08 1971.96 851.538 1970.64C853.054 1969.83 859.017 1995.05 859.922 1998C868.704 2026.59 879.666 2056.8 886 2086M138 2084C127.448 2070.18 123.694 2046.17 116.636 2029.98C105.687 2004.87 84.457 1978.63 79 1952C70.1767 1959.96 84.3677 1976.58 88.9357 1985C106.109 2016.67 118.692 2049.24 130.883 2083C132.634 2087.85 137.049 2121.28 139.177 2121.68C141.633 2122.14 143.367 2084.71 144.499 2080C155.038 2036.15 156 1984.09 156 1939C169.848 1948.77 179.507 1975.93 186.644 1991C205.502 2030.81 221.499 2078.77 248 2114C254.081 2106.43 252.938 2089.61 255.89 2080C266.673 2044.87 273.865 2014.5 279 1978C280.642 1966.33 283.569 1954.67 284.787 1943C285.028 1940.69 286.563 1930.39 281.295 1932.79C275.769 1935.3 275.188 1970.04 274.196 1977C269.301 2011.3 264.586 2039.09 253.544 2072C250.417 2081.32 249.89 2093.85 245 2102C240.511 2083.8 228.915 2067.63 220.626 2051C206.612 2022.88 193.595 1994.38 180.072 1966C177.627 1960.87 158.955 1925.8 152.748 1929.53C148.385 1932.14 151.277 1961.15 150.554 1967C145.667 2006.52 146.667 2044.91 138 2084M498 1946C503.867 1982.95 507.615 2020.81 512.177 2058C512.671 2062.03 512.518 2093.11 519.809 2090.89C525.842 2089.06 532.129 2072.33 534.782 2067C546.532 2043.39 555.647 2019.72 564.785 1995C565.997 1991.72 577.302 1966.08 576.465 1965.64C581.164 1968.07 584.294 1992.51 585.858 1998C593.194 2023.74 600.975 2050.35 613.842 2073.96C618.649 2082.78 622.305 2094.39 633 2097C630.08 2085.11 617.612 2071.9 612.385 2060C600.111 2032.06 593.662 2003 584.961 1974C583.48 1969.06 575.869 1935.36 574.519 1935.97C567.63 1939.1 569.435 1971.46 567.081 1979C557.497 2009.69 542.031 2058.93 520 2083C511.483 2046.54 508.748 2005.36 505.215 1968C504.645 1961.97 505.133 1932.09 498.915 1930.22C495.028 1929.06 485.447 1964 483.717 1969C473.341 1998.98 461.919 2029.69 445.661 2057C442.876 2061.68 427.104 2081.56 429.522 2086.51C432.169 2091.93 437.93 2080.57 438.763 2079C445.675 2065.93 452.96 2053.19 459.622 2040C465.933 2027.5 471.488 2015.08 476.456 2002C483.524 1983.39 489.034 1963.91 498 1946M892 2076C884.315 2072.81 883.402 2059.14 880.438 2052C869.907 2026.61 866.118 1999.37 859.04 1973C857.633 1967.76 849.795 1945.42 854.278 1941.35C856.678 1939.16 869.294 1943 873 1943C890.437 1943.02 908 1941.83 925 1937.94C927.846 1937.29 941.739 1933.82 942.57 1937.51C944.738 1947.12 934.443 1963.2 931.298 1972C920.1 2003.34 893.226 2042.92 892 2076M2008 1939C2006.77 1957.39 2013 1974.48 2008 1993C2022.51 1989.47 2016.55 1946.63 2008 1939M2037 1945C2040.51 1959.82 2042.28 1973.94 2040 1989C2051.88 1984.34 2047.04 1949.86 2037 1945M2000 1946C1997.59 1965.23 1997.01 1985.62 1997 2005C2006.9 2001.08 2007.29 1952.93 2000 1946M2026 1950C2027.12 1957.35 2026.75 1984.52 2033 1987C2033 1977.77 2036.21 1954.45 2026 1950M1965.78 1957.64C1969.61 1957.64 1969.84 1966.45 1970.24 1969C1971.13 1974.67 1978.57 2009.91 1971.84 2010.25C1959.23 2010.88 1963.33 1978.08 1962.92 1970C1962.78 1967.19 1960.6 1957.64 1965.78 1957.64M1720 2025C1720 2011.67 1718.65 1997.97 1715.45 1985C1714.14 1979.71 1709.33 1970.96 1711.9 1965.5C1714.65 1959.65 1757.61 1967.06 1762.08 1971.52C1764.93 1974.36 1760.43 1983.65 1759.48 1987C1755.37 2001.5 1733.17 2018.51 1720 2025M1958 1965C1960.13 1977.31 1967.11 2010.42 1952 2012C1953.48 1994.34 1940.38 1976.62 1958 1965M2083 1966C2090.32 1975.73 2074.88 2004.58 2063 2005C2067.73 1991.52 2073.87 1977.1 2083 1966M1777 1974L1766 1984C1764.69 1976.11 1769.49 1971.21 1777 1974M2074 2005C2075.66 2001.36 2087.88 1974.64 2090.26 1974.64C2099.84 1974.64 2096.92 1988.41 2094.67 1993C2088.72 2005.13 2086.69 2005.14 2074 2005M1950 2015C1933.25 2015.4 1944.3 1968.26 1946.78 1994C1947.04 1996.66 1946.96 1999.34 1947.22 2002C1947.67 2006.42 1948.82 2010.73 1950 2015M1370 1986C1366.16 1995.78 1352.77 2000.89 1343 2002C1349.72 1994.01 1359.35 1986.75 1370 1986M1939 2016C1937.18 2013.97 1927.97 1993.83 1935.61 1995.32C1939.54 1996.09 1938.99 2012.74 1939 2016M1755 2004C1749.01 2029.03 1740.09 2054.1 1728.35 2077C1724.67 2084.19 1720.62 2096.46 1713 2100C1716.12 2068.51 1715.95 2013.02 1755 2004M1929 2005C1929.77 2010.34 1932.54 2014.3 1935 2019C1929.17 2017.97 1924.01 2016.06 1918 2016C1921.34 2012.22 1924.64 2010.16 1926 2005L1929 2005M1329 2010C1321.9 2019.68 1299.9 2051.91 1288 2053.13C1279.87 2053.96 1271.1 2046.43 1263 2045.82C1255.33 2045.24 1246.77 2053.13 1240 2046C1269.99 2044.23 1297.48 2010.59 1329 2010M1123 2150C1122.1 2152.12 1122.12 2152.1 1120 2153L1123 2150z"/>
</svg>
