<?xml version="1.0" standalone="yes"?>
<svg xmlns="http://www.w3.org/2000/svg" width="2200" height="2200">
<path style="fill:#0b0b0b; stroke:none;" d="M1247 209C1238.96 212.337 1228.23 231.707 1240.15 237.06C1254.14 243.344 1272.6 224.974 1280.5 215.922C1289.44 205.692 1298.64 188.073 1295.08 174C1293.65 168.373 1287.23 164.271 1286.53 158.864C1285.48 150.747 1291.06 139.846 1290.94 131C1290.82 121.942 1284.55 114.295 1284.28 106C1284.04 98.7422 1294.85 66.3806 1281.13 64.5437C1282.04 64.6658 1283.94 98.6494 1278.14 104.362C1274.47 107.978 1263.21 106.842 1258 108.825C1239.66 115.802 1197.27 140.806 1212.38 166.731C1226.64 191.172 1264.09 145.955 1270.78 135C1272.11 132.813 1279.73 115.691 1282.02 117.323C1285.37 119.714 1284.97 129.375 1284.99 133C1285.03 140.11 1284.84 154.732 1277.81 158.74C1269.04 163.746 1249.36 161.258 1248.55 176.959C1248.14 184.862 1258.81 184.663 1263.96 182.899C1272.33 180.034 1290.47 156.147 1289.81 180C1289.3 198.415 1275.92 216.208 1261 225.939C1257.62 228.143 1243.77 235.697 1240.56 230.178C1237.46 224.851 1246.31 214.514 1247 209M149 162C154.228 171.193 166.216 174.961 170.587 185C176.385 198.317 168.613 212.593 179.441 226.949C186.611 236.455 201.483 233.113 204.012 221C206.997 206.702 182.334 194.644 178.77 181.783C175.659 170.553 187.987 152.349 190 141C195.218 144.648 200.409 162.997 206.943 162.997C206.108 162.997 201.695 128.035 193 129C194.994 117.132 199.05 102.54 193.731 91.0212C188.067 78.7537 172.934 81.0686 169.645 94C166.207 107.516 178.166 117.93 183.129 129C187.387 138.496 181.121 166.729 173.815 174.222C171.92 176.165 155.297 161.217 149 162M190 119C156.632 107.578 192.017 72.8164 190.599 103C190.348 108.355 190 113.625 190 119M521 218C521.403 220.938 524.272 237.024 530.15 233.456C531.115 232.87 524.649 213.407 525.464 209C530.624 181.12 541.839 155.067 541.997 126C542.035 119.08 543.612 94.2961 531.078 95.9695C521.139 97.2964 520.167 122.426 518.921 130C515.163 152.854 528.643 192.049 517.35 211C515.257 214.512 499.389 232.892 505.779 236.456C509.317 238.429 518.214 220.608 521 218M524 188C520.286 167.023 520.9 143.848 524.809 123C525.366 120.032 527.377 100.414 533.307 103.544C538.569 106.321 536.454 119.435 536.136 124C535.2 137.44 537.644 181.15 524 188M2027 103C2025.08 111.963 2023.17 140.24 2029 147C2032.45 133.349 2031.9 116.669 2029 103L2027 103M888 109.506C884.895 109.792 868.515 112.449 871.544 118.322C875.837 126.645 899.473 107.52 904.771 126.008C909.382 142.102 902.546 187.709 893.466 201.852C889.183 208.523 878.168 204.137 874.969 212.165C872.38 218.662 880.197 220.924 880.802 226.32C881.396 231.627 852.117 253.63 862.159 255.894C872.903 258.317 877.593 234.046 887.137 231.857C901.87 228.478 914.258 255.891 933.786 244.414C941.987 239.594 930.871 225.936 936.325 222.861C938.45 221.663 964.362 235.429 961.511 226.352C958.654 217.255 938.462 219.598 933.601 211.756C921.344 191.982 921.419 158.179 914.96 136C910.499 120.683 907.459 107.713 888 109.506M1597 164C1606.56 171.71 1629.14 198.629 1641.22 198.18C1649.96 197.854 1681.78 164.081 1680.25 155C1678.78 146.262 1666.24 136.665 1660.76 130C1655.84 124.022 1649.75 109.004 1640.08 110.844C1627.1 113.313 1608.9 142.398 1600.14 152C1593.01 159.811 1593.5 174.614 1597 164M1270.93 111.398C1280.64 110.963 1269.2 128.361 1266.92 132C1258.31 145.755 1242.39 167.704 1224.01 167.737C1211.21 167.76 1215.88 147.293 1220.43 141C1230.88 126.537 1252.62 112.218 1270.93 111.398M1600 162C1603.25 153.867 1610.91 147.136 1617 141C1622.26 135.703 1633.31 117.946 1640.95 117.074C1646.05 116.491 1652.99 130.384 1655.89 133.922C1660.64 139.703 1673.16 148.853 1674.89 155.813C1675.66 158.888 1669.41 161.777 1667.81 164.129C1663.28 170.769 1650.03 193.209 1640.98 192.637C1625.73 191.673 1617.78 164.922 1600 162M177 142C186.932 139.681 178.731 131.75 177 142M912 146C917.269 159.772 921.64 179.228 923.691 194C924.126 197.126 927.671 206.597 925.023 208.938C923.014 210.714 901.339 205.01 900.804 201.719C900.012 196.842 904.238 190.861 905.015 186C907.128 172.781 906.678 159.051 910 146L912 146M1638.01 150.637C1628.25 152.481 1629.06 167.24 1640 165.309C1650.74 163.413 1648.17 148.719 1638.01 150.637M1998 186C2007.28 180.83 2024.99 163.722 2026 153C2015.08 158.773 1999.51 173.235 1998 186M2032 156C2035.69 165.753 2052.19 179.231 2063 177C2058.37 169.551 2040.62 157.113 2032 156M1274.43 164.227C1279.13 165.842 1262.73 180.963 1256.56 178.69C1250.54 176.471 1268.02 162.029 1274.43 164.227M177.395 192.323C182.916 191.463 210.115 224.953 189.983 227.112C180.187 228.162 169.283 193.587 177.395 192.323M899.107 210.682C906.127 208.772 923.6 212.946 927.635 219.276C929.818 222.701 933.577 236.363 928.499 238.517C917.608 243.135 900.395 235.478 893.646 226.594C890.241 222.112 893.664 212.163 899.107 210.682M884.127 212.674C888.748 211.398 890.785 217.433 886.444 219.031C882.155 220.611 879.037 214.079 884.127 212.674M1633 1077L1633 1080L1635 1080L1635 1077L1633 1077M40 1169C41.672 1170.12 41.328 1170.12 43 1169L40 1169M318 1254C317.951 1242.31 307.668 1248.96 318 1254M265.667 1596.33C265.222 1596.78 266.278 1596.72 266.333 1596.67C266.778 1596.22 265.722 1596.28 265.667 1596.33M179 1754C179.899 1756.12 179.876 1756.1 182 1757C181.518 1754.64 181.364 1754.48 179 1754z"/>
</svg>
