<?xml version="1.0" standalone="yes"?>
<svg xmlns="http://www.w3.org/2000/svg" width="2200" height="2200">
<path style="fill:#0e0e0e; stroke:none;" d="M1550.01 853.795C1540.02 855.844 1532.41 877.785 1546.84 874.703C1554.84 872.996 1564.33 850.858 1550.01 853.795M1552 860C1551.44 864.169 1550.36 866.15 1546 865C1545.1 867.124 1545.12 867.101 1543 868C1544.36 863.041 1547.08 861.129 1552 860M1710 894C1712.75 893.348 1715.17 892.936 1718 893C1714.97 895.25 1707.28 898.274 1705.34 900.888C1700.22 907.804 1720.52 909.312 1721.08 894.044C1721.38 885.933 1711.62 887.586 1710 894M162.049 894.268C147.978 901.455 147.246 946.629 168.495 934.655C179.815 928.276 181.539 884.312 162.049 894.268M2097 900C2095.81 905.213 2089.61 906.837 2088.8 911.343C2088.35 913.826 2089.5 916.458 2089.29 919C2087.11 945.409 2117.53 908.355 2108.75 899.145C2107.32 897.647 2099.91 900.723 2097 900M170 900L169 901L170 900M1999 900.803C1978.91 907.359 1967.42 957.292 1999.64 945.315C2016.38 939.091 2029.65 890.801 1999 900.803M2004 903C2002.15 906.346 1980.58 930.365 1981.92 931.456C1974.76 925.612 1998.58 904.235 2004 903M1995 919C2007 903.232 2015.78 912.99 1995 919M2102 908C2102.93 915.778 2099.43 921.275 2092 924C2092.48 917.314 2098.05 914.17 2100 908L2102 908M168 909.333C168.773 909.333 168.16 909.831 167.667 909.667L168 909.333M1995 920C1993.56 922.475 1992.48 923.563 1990 925C1991.48 922.625 1992.61 921.44 1995 920M2009 926C2006.64 925.48 2004.41 925.157 2002 925C2004.9 921.236 2008.21 920.727 2009 926M157 929C158.679 920.37 164.579 926.075 157 929M1998 923C1996.1 939.39 1986.78 938.912 1996 923L1998 923M1986 937C1986.93 939.357 1987.56 941.504 1988 944C1983.28 942.854 1982.64 940.477 1986 937M166 1030C152.999 1031.75 137.013 1056.3 148.685 1068.5C157.849 1078.08 166.8 1055.47 166.931 1049C167.059 1042.63 165.781 1036.46 166 1030M533.015 1032.04C523.972 1034.36 514.483 1049.25 517.218 1058C518.617 1062.47 519.284 1071.44 525.992 1070.35C544.324 1067.38 544.706 1029.04 533.015 1032.04M535 1038L536 1041C533.434 1040.45 533.14 1039.86 535 1038M1970 1083C1981.14 1083 2003.99 1070.4 1992.06 1055.48C1984.92 1046.55 1973.54 1061.55 1971.95 1068C1970.75 1072.85 1970.66 1078.04 1970 1083M524 1055C536.76 1049.57 531.439 1064.41 524 1055M1989 1056C1988.17 1061.61 1980.58 1065.1 1976 1068C1978.45 1061.63 1982.71 1058.34 1989 1056M773.998 1059.3C762.861 1063.16 759.748 1086.92 771.963 1082.18C783.299 1077.77 789.437 1053.95 773.998 1059.3M1420.24 1061.97C1411.07 1065.68 1405.96 1087.9 1421.68 1082.31C1432.68 1078.41 1431.58 1057.37 1420.24 1061.97M527 1063L526 1064L527 1063M1989 1066C1986.82 1065.26 1986.28 1064.9 1985 1063C1987.74 1063.21 1988.42 1063.3 1989 1066M1422 1065C1428.65 1073.58 1422.21 1074.84 1415 1078C1416.66 1074.14 1418.87 1073.11 1423 1073C1422.13 1070.16 1421.38 1067.92 1422 1065M776 1070C774.637 1071.48 774.027 1071.64 772 1072C773.543 1070.73 774.048 1070.51 776 1070M538.144 1118.26C521.679 1127.24 524.5 1154.97 545.86 1144.2C560.697 1136.71 556.821 1108.07 538.144 1118.26M543.718 1120.62C547.931 1120.77 543.361 1132 539.233 1131.82C533.384 1131.56 539.731 1120.48 543.718 1120.62M551 1123C552.59 1130.36 549.875 1140.92 541 1141C545.333 1135.41 546.799 1128.58 551 1123M1024 1149C1028.62 1149.29 1035.5 1151 1039.72 1148.82C1057.4 1139.65 1046.2 1112.16 1030.37 1137.22C1027.97 1141.01 1025.83 1144.91 1024 1149M1044 1131C1044.68 1132.51 1044.83 1133.31 1045 1135C1044.06 1133.39 1043.84 1132.83 1044 1131M1043 1139C1042.2 1142.3 1041.39 1143.45 1038 1144L1040 1139L1043 1139M1256.82 1158.48C1252.15 1161.63 1252.85 1183.76 1262.6 1178.68C1272.14 1173.71 1268.45 1150.64 1256.82 1158.48M1264 1162C1263.51 1167.2 1263.51 1172.75 1259 1176C1259.01 1170.96 1258.44 1163.95 1264 1162M150.229 1261.15C142.99 1263.88 136.487 1287.84 147.925 1284.07C156.458 1281.26 162.195 1256.64 150.229 1261.15M151 1263C152.852 1264.53 153.311 1265.67 154 1268C151.251 1266.93 150.249 1265.96 151 1263M51.0294 1269.91C42.7396 1272.78 37.7 1300.21 48.0016 1296.65C57.6752 1293.3 69.637 1263.47 51.0294 1269.91M150 1269C150.974 1282.02 139.234 1275.23 150 1269M282.978 1271.15C275.359 1273.72 261.096 1300.46 276.003 1296.17C285.793 1293.35 293.666 1267.54 282.978 1271.15M1372 1292L1381 1287C1368.36 1319.89 1392 1283.56 1392.7 1273.31C1392.9 1270.27 1373.88 1286.49 1372 1292M52.1637 1272.97C57.256 1271.18 54.7018 1278.16 51.6844 1279.38C47.5716 1281.04 49.1058 1274.04 52.1637 1272.97M2160 1279C2161.79 1277.44 2163.35 1271.89 2158.95 1273.11C2156.06 1273.91 2155.01 1277.56 2154.05 1280C2144.95 1303.06 2167 1291 2160 1279M285 1275C281.767 1298.39 267.93 1281.21 285 1275M1488 1293C1491.33 1288.92 1493.64 1284.29 1499 1283C1494.99 1268.3 1481.93 1293.87 1483.56 1299.7C1488.61 1317.64 1517.2 1272.87 1497.44 1286.64C1494.04 1289.01 1492.07 1291.7 1488 1293M2158 1283C2157.49 1285.55 2157.05 1286.41 2155 1288C2154.51 1284.86 2154.96 1284 2158 1283M55 1284C53.1592 1288.99 49.5892 1291.54 45 1294C43.3415 1286.53 48.576 1285.09 55 1284M1502 1288C1501.06 1290.51 1500.51 1291.06 1498 1292L1500 1288L1502 1288M1144.38 1292.41C1140.62 1294.58 1137.85 1309.6 1144.02 1306.59C1149.32 1304.01 1149.65 1289.36 1144.38 1292.41M254 1303C266.791 1298 256.104 1289.34 254 1303M144 1396C146.836 1394.84 147.759 1393.8 149 1391C145.847 1391.93 144.829 1392.81 144 1396M157 1405C152.23 1412.29 137.26 1425.46 147.287 1435.16C153.888 1441.55 161.797 1428.18 160.924 1422.55C160.181 1417.76 152.512 1416.36 151.785 1421.87C151.287 1425.65 156.394 1423.59 158 1423C143.941 1445.93 152.027 1397.24 161 1419C165.319 1413.43 162.061 1408.64 157 1405M771 1431L766 1431C768.2 1427.97 773.083 1428.88 774.215 1426.43C778.885 1416.36 765.693 1419.12 762.522 1427.01C756.744 1441.38 765.291 1447.34 771 1431M1268 1419C1264.09 1429.22 1266.74 1452.1 1268 1433C1278.66 1437.77 1271.62 1423.36 1270 1419L1268 1419M515 1450C522.717 1449.73 525.108 1442.67 532 1440C531.752 1444.81 529.599 1446.33 527 1450C533.615 1449.51 539.648 1436.01 538 1450C543.966 1448.6 542.976 1439.1 538.702 1435.84C528.869 1428.37 518.143 1442.12 515 1450M2036 1450C2046.66 1448.45 2043.51 1426.34 2036 1450M167.067 1483.94C155.903 1488.67 156.603 1507.55 170.957 1501.08C183.23 1495.54 183.331 1477.04 167.067 1483.94M1116 1806C1125.7 1800.24 1131.93 1782.47 1137.89 1773C1153.13 1748.79 1169.63 1724.84 1185.55 1701C1220.99 1647.96 1252.24 1589.98 1293.18 1541.01C1311.28 1519.36 1342.29 1504.96 1358 1483C1348.31 1483.49 1341.11 1491.23 1333.86 1497C1315.59 1511.57 1297.87 1527.04 1283.96 1545.98C1244.01 1600.36 1210.87 1659.4 1172.63 1715C1153.64 1742.61 1123.91 1772.85 1116 1806M1975 1817C1982.62 1815.89 1982.55 1804.37 1982.92 1798C1984.05 1778.79 1985.42 1757.8 1989.44 1739C1998.38 1697.17 1998.6 1653.23 2006.13 1611C2013.76 1568.31 2025.49 1525.91 2032 1483C2025.38 1485.8 2025.53 1495.74 2023.9 1502C2018.86 1521.34 2016.75 1541.55 2012.33 1561C1993.3 1644.77 1987.91 1732.13 1975 1817M176 1486C175.346 1489.05 173.993 1488.94 171 1489C172.536 1487.01 173.536 1486.59 176 1486M170 1495C160.82 1499.22 163.01 1489.48 170 1495M1487 1494L1485 1501C1487.87 1499.02 1488.71 1497.46 1489 1494L1487 1494M1497 1765C1505.12 1763.08 1510.16 1754.07 1515.21 1748C1528.07 1732.52 1541.01 1717.13 1554.33 1702C1596.02 1654.6 1638.79 1608.39 1679.32 1560.01C1693.81 1542.71 1718.97 1523.49 1728 1503C1719.59 1504.88 1715.02 1513.39 1709.4 1519.32C1694.7 1534.84 1681.97 1552 1667.89 1568C1640.75 1598.84 1614.69 1631.79 1586.68 1661.56C1557.25 1692.85 1517.27 1726.82 1497 1765M1928 1817C1934.47 1815.19 1932.82 1806.4 1934.45 1801C1939.89 1782.93 1939.48 1762.63 1942.52 1744C1955.61 1663.77 1943.51 1583.45 1951 1503C1943.39 1506.07 1944.24 1516.97 1943.96 1524C1943.23 1542.8 1941.82 1561.13 1943.14 1580C1948.72 1659.93 1942.02 1738.45 1928 1817M1492 1816C1502.63 1819.6 1508.94 1811.21 1516 1804.56C1531.82 1789.64 1546.86 1773.86 1562.96 1759.21C1618.79 1708.38 1675.24 1657.5 1733.04 1609.01C1748.82 1595.76 1791.39 1572.35 1795 1551C1787.51 1553.96 1780.96 1563.4 1775 1568.87C1761.62 1581.15 1747.12 1592.64 1733 1604.07C1675.28 1650.82 1620.85 1701.78 1565.76 1751.58C1545.78 1769.65 1517.66 1809.11 1492 1816M1129 1601C1126.29 1604.92 1124.44 1608.2 1124 1613C1128.15 1610.29 1130.21 1605.92 1129 1601M902.716 1625.43C891.511 1626.81 871.911 1659.63 888.049 1659.63C899.722 1659.63 908.395 1624.74 902.716 1625.43M897 1638.33L897.333 1638.67C896.84 1638.83 896.227 1638.33 897 1638.33M896 1641C895.055 1645.46 891.976 1648.58 891 1653C882.522 1650.02 890.883 1642.34 896 1641M1436 1670C1430.82 1684.49 1437.3 1680.58 1438 1670L1436 1670M1497 1753C1499.59 1750.21 1501.07 1747.69 1502 1744C1497.26 1745.26 1497.11 1748.53 1497 1753M1483 1782C1486.79 1778.24 1489.76 1773.84 1492 1769C1484.55 1769.98 1483.09 1775.23 1483 1782M513 1817C522.266 1817 546.22 1804.75 533.171 1792.07C522.9 1782.1 513.969 1811.28 513 1817M522 1813C522.116 1784.53 541.453 1807.31 522 1813M1971 1806L1971 1812C1971.75 1809.7 1971.75 1808.3 1971 1806M1177 1814L1172 1816C1174.22 1817.07 1178.3 1817.46 1177 1814M523 2183C531.35 2181.77 528.776 2170.4 529.569 2164C532.022 2144.21 535.952 2124.01 535.999 2104C536.154 2039.06 531.615 1974.97 534.922 1910C535.919 1890.42 533.876 1869.22 538 1850C529.737 1851.22 532.335 1861.71 531.68 1868C529.616 1887.84 529.354 1908.07 527.941 1928C521.881 2013.42 534.306 2097.72 523 2183M97 1865C98.9522 1864.49 99.457 1864.27 101 1863C98.7616 1863.15 98.3881 1863.26 97 1865M149 2118C156.349 2062.57 177.005 2009.97 200.011 1959.3C210.206 1936.85 225.558 1916.68 235 1894L239 1901C242.595 1892.61 247.443 1885.37 251 1877C234.665 1877.56 223.174 1906.11 216.655 1919C193.649 1964.47 172.898 2010.56 156.721 2059C152.969 2070.24 138.294 2109.34 149 2118M128 2089C108.553 2082.44 125.963 2035.24 130.145 2021C139.061 1990.63 151.064 1962.08 163.553 1933C169.982 1918.03 180.663 1897.77 196 1890.23C207.188 1884.73 216.19 1893.33 227 1891C207.983 1871.72 183.543 1891.56 172.45 1908C146.149 1946.97 131.209 1999.72 119.938 2045C118.132 2052.25 108.044 2105.03 128 2089M245.568 1890.71C243.292 1891.49 245.586 1894.4 247.432 1893.83C249.678 1893.13 247.431 1890.07 245.568 1890.71M1310 1909C1312.62 1907.27 1321.4 1895.67 1324.03 1902.31C1329.01 1914.88 1299.06 1946.59 1291.61 1955.44C1267.35 1984.25 1243.05 2015.25 1224.41 2048C1217.21 2060.65 1206.67 2075.03 1206 2090C1217.8 2075.27 1222.88 2054.82 1233.53 2039C1254.44 2007.93 1279.14 1980.08 1301.36 1950C1309.2 1939.39 1332.61 1915.62 1329.16 1901.04C1325.53 1885.72 1312.83 1903.61 1310 1909M1010 1901C994.65 1904.43 977.908 1932.93 968.569 1945C936.294 1986.7 906.803 2030.77 874.431 2072.32C864.233 2085.41 856.095 2100.25 846.861 2114.06C845.553 2116.01 835.41 2124.17 837.106 2125.72C841.306 2129.57 848.109 2121.88 849.957 2118.98C859.105 2104.61 867.757 2090 877.492 2076C907.735 2032.51 939.547 1990.21 971.618 1948C981.952 1934.4 1006.41 1917.8 1010 1901M258 1904C257.155 1909.38 254.947 1913.97 253 1919C257.865 1915.67 259.833 1909.63 258 1904M1159 1928C1160.17 1930.16 1161.16 1931.36 1163 1933C1163.5 1929.33 1162.79 1928.03 1159 1928M1618 2101C1603.53 2110.43 1591.86 2129.43 1572 2127.65C1550.72 2125.75 1552.01 2090.08 1552 2075C1551.96 2027.5 1581.54 1974.61 1623.88 1950.75C1637.38 1943.15 1656.66 1925.12 1674 1933.7C1704.9 1948.99 1693.24 2006.62 1678.44 2028C1657.24 2058.62 1618.48 2081.21 1581 2075.52C1572.35 2074.2 1566.87 2068.72 1559 2066C1565.36 2083.72 1593.96 2082.69 1609 2080C1643.78 2073.79 1694.25 2035.73 1697.78 1998C1698.61 1989.17 1695.21 1980.81 1695.35 1972C1695.97 1934.18 1669.21 1917.37 1636 1936.79C1600.26 1957.69 1562.32 1997.22 1550.96 2038C1544.75 2060.3 1541.76 2100.56 1554.65 2121C1570.8 2146.6 1609.92 2121.68 1618 2101M713 1953C715.364 1952.52 715.518 1952.36 716 1950C713.877 1950.9 713.899 1950.88 713 1953M398 1975C399.363 1976.48 399.973 1976.64 402 1977C400.457 1975.73 399.952 1975.51 398 1975M1967 2018C1973.16 2015.85 1985.15 2017.38 1988.67 2015.32C1993.41 2012.55 1991.55 1999.97 1986.72 1998.04C1977.32 1994.28 1969.02 2011.21 1967 2018M882.026 1999.47C869.887 2003.93 863.06 2032.27 881.68 2025.69C895.842 2020.69 896.239 1994.24 882.026 1999.47M1266 2009L1262 2007C1263.14 2024.19 1282.45 2033.14 1283.17 2011C1283.66 1996.39 1266.08 1993.36 1266 2009M1274 2005C1286.94 2010.49 1271.4 2017.95 1271.27 2017.43C1270.44 2014.16 1274.39 2009.17 1274 2005M1987 2013C1978.77 2010.62 1985.83 2004.57 1987 2013M1633 2032C1636.79 2031.1 1638.1 2029.79 1639 2026C1663.78 2032.37 1651.76 1993.73 1636.46 2022C1634.65 2025.34 1633.47 2028.23 1633 2032M883 2018C874.389 2013.93 882.649 2008.14 883 2018M1646 2017C1653.14 2025.3 1641.56 2025.51 1646 2017M2054.82 2027.72C2031.16 2033.06 2019.08 2069.73 1995.81 2077.5C1990.96 2079.12 1989.18 2068.99 1987.96 2066C1982.16 2051.74 1975.06 2051.28 1961 2048.7C1958.26 2048.2 1949.55 2046.1 1947.54 2048.81C1945.25 2051.92 1955.7 2053.09 1957 2053.32C1964.92 2054.7 1974.71 2054.25 1980.09 2061.16C1983.65 2065.73 1986.36 2086.19 1994.07 2084.34C2014.59 2079.4 2037.78 2047.22 2053.92 2033.82C2055.26 2032.71 2060.02 2026.54 2054.82 2027.72M1202 2097C1201.3 2099.72 1201.05 2102.19 1201 2105C1205.55 2103.48 1204.92 2100.13 1202 2097z"/>
</svg>
