<?xml version="1.0" standalone="yes"?>
<svg xmlns="http://www.w3.org/2000/svg" width="2200" height="2200">
<path style="fill:#0f0f0f; stroke:none;" d="M1971 274C1974.09 245.435 1937.25 249.513 1941.44 271C1943.83 283.273 1957.52 290.205 1967.86 283.073C1981.48 273.683 1993.99 255.685 1995 239L1997 239C1997.45 249.205 1996.26 263.866 2004.42 271.359C2022.37 287.838 2049.01 265.165 2051.57 246C2054.36 225.018 2014.97 221.257 2017.45 244C2018.75 255.944 2029.68 268.936 2039 255C2035.31 254.96 2030.73 257.729 2027.46 255.256C2020.99 250.366 2020.43 236.585 2029.14 233.819C2035.88 231.682 2047.4 237.213 2047.4 245.04C2047.4 260.838 2021.97 280.372 2008.19 267.716C2001.11 261.22 2002.13 246.031 2002.01 237C2001.64 209.688 2006.56 185.768 2008.88 159C2009.66 149.996 2010.24 139.991 2010.75 131.521C2010.93 128.542 2006.2 127.498 2007.1 124.22C2008.96 117.491 2021.94 115.955 2024.41 107C2027.66 95.2402 2013.05 77.3682 2001 85.7249C1978.37 101.417 2002 116.782 2002 134C2002 144.946 1997.75 154.388 1997.09 165C1995.17 195.648 2000.14 253.924 1971 274M509 188C496.474 190.653 485.575 177.848 493.526 166.203C504.063 150.77 526.597 161.719 523.583 179C518.322 209.166 471.723 225.173 470.517 185C469.795 160.954 497.959 132.05 510.501 113.1C512.461 110.139 527.041 92.7302 523.248 90.3149C519.656 88.0276 508.576 108.93 506.58 112.144C494.508 131.585 463.437 161.314 466.56 186C472.283 231.239 526.291 214.334 527.703 176.32C529.017 140.928 481.556 149.144 487.325 180.997C488.944 189.936 503.931 199.051 509 188M539 90.6255C511.788 97.0459 509.164 149.892 541 147.159C550.717 146.325 568.936 118.939 556.644 112.544C553.048 110.673 552.243 118.855 552.163 120.805C552.015 124.443 555.723 126.265 554.131 130.062C546.914 147.271 524.128 144.331 520.76 126C517.291 107.121 537.552 87.4609 555.999 95.8057C593.733 112.874 563.134 159.735 547.907 179C545.462 182.094 528.855 202.015 532.236 202.003C539.467 201.978 547.625 185.9 551.696 181.04C563.199 167.309 574.986 153.629 577.702 135C581.092 111.742 564.736 84.5532 539 90.6255M2010.32 92.3411C2027.47 93.3599 2020.25 118.315 2005 116.75C1988.11 115.016 1999.03 91.6707 2010.32 92.3411M144 221C112.963 214.675 146.577 170.78 171.197 196.664C178.314 204.147 172.236 220.16 167.523 227C156.586 242.877 124.297 264.854 106.187 245.9C77.1073 215.466 129.516 159.992 147.247 136.93C151.467 131.44 169.322 105.765 176.218 107.003C185.786 108.722 196.351 128.648 202.404 135.672C223.538 160.198 270.997 207.439 239.66 240.912C222.447 259.299 191.143 246.925 189.533 225.993C188.871 217.381 186.143 200.483 197.081 196.706C208.845 192.643 215.479 212.958 210.393 220.831C202.294 233.368 199.383 214.207 195.57 217.087C187.94 222.849 201.308 230.78 206.992 229.034C226.901 222.918 215.045 186.093 196.003 191.825C167.135 200.513 181.642 245.329 204 251.974C228.238 259.177 261.339 239.585 255.072 211.217C246.577 172.761 211.356 129.395 182 104C185.982 101.379 185.011 92.8347 179.222 93.4167C173.022 94.0403 160.769 114.996 156.611 120C136.235 144.52 107.679 172.692 98.3611 204C93.5619 220.125 88.4029 250.626 113 255.75C140.678 261.516 195.643 228.041 175.528 195C164.981 177.676 132.467 178.437 126.528 200C124.063 208.947 134.994 234.122 144 221M1202 205C1199.46 185.211 1163.95 207.377 1174.18 223.853C1179.29 232.075 1193 228.529 1198.93 223.454C1204.9 218.354 1202.93 211.923 1206.94 206.224C1210.53 201.11 1238.34 185.535 1244.4 187.732C1249.09 189.435 1246.96 203.111 1247.01 207C1247.24 226.353 1248 245.547 1248 265C1226.61 246.445 1193.5 280.798 1211.52 300.713C1230.97 322.201 1249.56 277.159 1252.47 264C1256.57 245.447 1253.02 226.588 1252.02 208C1251.72 202.365 1248.55 191.519 1252.16 186.604C1260.58 175.119 1299.39 185.67 1310 189C1302.62 196.154 1295.88 203.401 1298.65 215C1303.32 234.618 1328.82 241.006 1337.58 220.99C1352.35 187.212 1294.02 179 1274 179C1268.99 179 1251.21 182.889 1249.52 177.868C1244.72 163.622 1244.98 133.03 1252.7 120.064C1260.26 107.354 1277.03 108.494 1278.48 124C1279.18 131.547 1266.44 150.897 1257.33 146.459C1252.28 144.005 1254.36 137.121 1249 135C1249.05 159.041 1271.48 149.406 1279.83 135C1291.59 114.741 1267.96 95.7678 1251.36 114.535C1240.18 127.178 1242.56 149.145 1243.21 165C1243.41 169.641 1246.65 176.15 1244.42 180.579C1239.87 189.6 1210.99 198.048 1202 205M1615 261C1608.03 245.037 1579.88 245.64 1577.78 265C1574.9 291.512 1610.1 289.226 1618.58 270C1637.01 228.234 1615.55 186.124 1625.63 144.004C1628.39 132.474 1634.92 143.361 1642 142.502C1650.73 141.444 1655.02 131.691 1656.31 124C1658.38 111.666 1648.29 101.978 1637.02 109.92C1609.62 129.224 1619.29 189.248 1621.48 217C1622.5 229.898 1625.39 251.131 1615 261M1645.97 111.519C1657.47 111.123 1651.54 138.277 1641 138.507C1624.95 138.858 1631.79 112.009 1645.97 111.519M910 140.663C891.89 144.511 832.107 178.278 867.019 200.178C882.921 210.154 902.327 201.29 912.07 188C917.032 181.232 921.101 166.691 913.579 160.045C909.461 156.407 897.653 154.954 896.031 162.196C894.056 171.017 913.092 155.461 912.215 169.009C909.218 215.357 842.224 201.305 873.489 164.001C877.326 159.423 881.796 154.99 887 151.984C917.229 134.525 948.729 152.074 979 157.467C983.486 158.267 1010.32 168.225 1009.73 169.017C1015.25 161.573 991.482 156.365 988 155.362C964.042 148.464 935.946 135.15 910 140.663M2004 157C2003.84 159.412 2003.52 161.639 2003 164C2002.31 161.243 2002.7 159.519 2004 157M841 198C845.03 208.489 865.216 211.774 875 213.406C902.94 218.064 956.472 221.966 975.278 194.997C990.857 172.655 949.715 147.23 938.19 174.139C930.647 191.752 955.662 207.518 961.902 187.198C962.252 186.058 939.848 199.875 941.915 181C944.146 160.628 969.994 164.474 973.585 182.136C976.447 196.215 954.842 206.232 944 208.371C920.922 212.923 889.954 214.197 867 208.69C857.89 206.505 850.624 199.139 841 198M1321.25 192.495C1335.03 192.128 1339.79 228.232 1321.14 230.138C1299.63 232.335 1296.91 193.145 1321.25 192.495M1189.14 204.868C1202.65 201.004 1202.14 219.575 1190.99 222.344C1178.16 225.534 1177.5 208.194 1189.14 204.868M1591.1 254.822C1607.95 247.69 1622.71 272.25 1602.99 280.635C1588.39 286.844 1576.52 260.996 1591.1 254.822M1956 256.812C1966.59 254.492 1971.59 272.505 1960.94 274.716C1945.4 277.942 1940.41 260.226 1956 256.812M1233.98 263.351C1254.83 261.91 1237.42 299.963 1224.01 300.686C1207.32 301.586 1215.24 264.645 1233.98 263.351M1953 278C1957.08 278.889 1960.86 278.246 1965 278C1962.26 282.18 1954.14 284.89 1953 278M1592 475C1606.09 475 1641.35 480.689 1640.1 501.823C1639.68 508.959 1629.09 519.437 1625.78 526C1619.34 538.793 1616.99 554.074 1615.22 568.136C1614.04 577.465 1629.1 604.895 1625.78 609.968C1616.02 624.92 1593.29 613.635 1582 616C1583.83 612.335 1592.6 587.579 1580.02 591.163C1565.64 595.26 1564.05 613.013 1578 618.836C1600.33 628.157 1611.06 613.3 1631.06 613.763C1639.71 613.964 1650.5 624.88 1659 627.697C1671.42 631.813 1701.77 624.41 1712.92 617.77C1720.72 613.125 1732.45 601.812 1732.4 592.003C1732.35 580.277 1717.72 576.975 1710.16 584.206C1700.1 593.832 1706.06 605.694 1719 606C1706.99 621.355 1668.63 628.616 1652 618.901C1648.67 616.959 1639.93 613.828 1638.64 609.938C1637.58 606.739 1647.7 601.312 1649.76 599.359C1658.12 591.432 1665.33 577.104 1668.26 566C1671.18 554.93 1667.74 533.128 1662.5 523C1659.02 516.255 1649.86 508.205 1650.09 500.097C1650.35 490.651 1685.51 471.013 1694 468C1688.52 483.695 1699.88 487.799 1715 486C1708.8 479.364 1687.04 481.859 1701 468C1697.73 491.713 1725.46 475.734 1716.26 465.483C1701.99 449.599 1669.15 478.635 1658 486.118C1654.93 488.176 1648.77 494.696 1645 494.521C1641.37 494.354 1635.8 485.152 1632.99 482.723C1624.76 475.591 1614.15 470.372 1603 470.121C1595.85 469.96 1582.54 471.304 1577.15 476.283C1570.88 482.077 1574.19 492.495 1583 493.378C1593.74 494.454 1598.71 481.975 1592 475M1705 477C1709.17 461.936 1720.47 474.301 1705 477M1581.29 480.833C1586.68 478.316 1593.38 485.091 1586.78 488.391C1581.84 490.863 1575.53 483.525 1581.29 480.833M176 566C174.744 547.813 165.164 498.419 140.019 498.718C115.087 499.015 104.867 541.459 119.667 557.529C129.413 568.111 150.572 543.432 144.939 534.284C139.571 525.566 124.856 536.493 123 543C126.65 541.972 137.421 534.142 140.701 535.939C143.723 537.595 132.396 558.112 125.272 554.633C106.406 545.418 121.925 501.555 141.925 503.988C159.529 506.13 166.849 538.452 169.379 552C173.713 575.206 183.359 613.139 173.821 635.915C167.143 651.862 148.579 649.38 147.427 670C146.751 682.087 163.444 691.862 174 692.741C187.515 693.868 200.346 677.709 199.917 665C199.415 650.147 183.496 645.283 180.542 634.855C172.56 606.68 183.147 568.947 187.083 541.04C189.272 525.513 209.722 488.582 229.959 494.966C242.387 498.887 262.937 546.453 244.078 553.184C226.366 559.505 224.323 520.418 237.302 534.15C240.227 537.245 242.608 540.369 246 543C244.674 533.758 234.976 520.72 225.269 529.468C212.133 541.307 238.572 568.994 250.512 553.842C267.01 532.905 243.671 477.588 214 494.305C197.719 503.479 188.041 520.335 183.626 538C181.592 546.142 181.83 560.022 176 566M478 508C485.085 514.199 490.464 521.598 492.055 531C493.749 541.012 490.591 551.042 490.078 561C488.709 587.569 494.547 626.21 471 645C472.925 637.873 474.47 630.484 468.617 624.67C461.442 617.543 446.724 621.549 445.225 632.01C442.768 649.161 455.015 661.236 471 650.285C483.377 641.806 487.954 628.914 492 615C505.764 628.761 503.278 647.223 528.019 652.085C541.873 654.808 570.139 634.723 553.637 621.1C545.063 614.021 530.008 616.041 529.07 629.019C528.664 634.653 533.21 640.985 532.585 645.631C532.238 648.215 528.581 647.405 526.993 646.858C474.208 628.665 489.983 536.85 527 511C518.512 538.539 555.573 534.754 553.608 516C552.631 506.666 537.033 502.507 529.438 504.81C515.413 509.063 501.904 525.921 499 540C493.881 526.348 494.228 513.296 479.959 504.231C467.436 496.276 447.147 510.494 448.171 524.923C448.915 535.411 460.168 539.937 467.903 533.492C475.395 527.249 477.909 517.33 478 508M469.794 505.845C479.798 508.437 469.086 535.594 459.246 532.335C446.354 528.066 459.625 503.211 469.794 505.845M1644.96 505.643C1649.27 505.643 1656.93 523.986 1658.75 527.68C1668.48 547.431 1662.98 569.273 1653.2 587.562C1649.95 593.646 1641.06 605.218 1633.18 605.016C1626.06 604.834 1622.65 588.36 1622.16 583C1620.26 562.49 1621.81 538.28 1633.46 520.783C1635.48 517.742 1640.85 505.643 1644.96 505.643M2065 601C2066.8 604.292 2067.24 607.367 2068 611C2072.39 607.458 2073.12 595.996 2065.02 596.786C2056.47 597.62 2059.18 610.906 2060.87 616C2064.57 627.21 2078.55 637.936 2091 635.576C2106.55 632.626 2115.19 614.878 2117.14 601C2121.17 572.291 2112.94 534.557 2085 519.904C2068.47 511.234 2050.27 515.619 2033 513.582C2027.07 512.883 2022.27 508.306 2016 507.439C1990.81 503.952 1964.24 509.821 1943 524.139C1915.07 542.968 1898.82 595.049 1939 611.884C1954.56 618.404 1980.56 593.302 1964.6 581.969C1957.97 577.264 1960.85 600.211 1958.63 602.977C1949.1 614.841 1936.46 607.07 1928.28 597.92C1916.17 584.351 1919.84 572.329 1924.42 557C1934.78 522.33 1980.59 505.726 2015 511.361C2017.13 511.711 2024.45 513.037 2022.68 516.642C2019.18 523.762 2007.32 527.929 2002.45 535.003C1990.57 552.276 1993.02 598.91 2022.86 597.036C2047.27 595.502 2055.4 557.613 2051.63 539C2050.72 534.457 2038.53 518.508 2041.49 516.829C2047.9 513.194 2064.5 519.26 2071 521.192C2105.01 531.307 2128.8 585.626 2106.93 617.981C2091.83 640.315 2059.34 627.594 2065 601M865 558C860.229 564.969 849.645 567.647 843.562 574.078C839.693 578.167 835.203 581.775 831.585 586.078C829.323 588.769 827.435 591.741 826.072 594.981C813.349 625.221 879.936 603.945 853.655 582.022C851.165 579.946 848.028 578.973 845 578C864.934 559.347 925.701 549.836 947 572C919.546 572.795 920.271 617.932 944.68 614.229C957.275 612.318 965.554 592.961 960.852 582C955.029 568.428 940.191 559.907 926 559C936.283 550.071 956.736 550.091 964.74 536.601C974.564 520.045 953.075 506.873 939.003 513.949C923.64 521.673 922.214 545.591 942 547C919.262 570.584 870.479 554.591 845 547C859.053 535.6 865.158 499.725 837 509.306C798.203 522.506 844.034 555.843 865 558M528 523C529.061 513.276 545.852 503.326 550.031 516.257C551.55 520.959 541.139 529.325 536.825 527.906C537.871 528.25 540.462 504.921 531.718 517.472C530.293 519.516 529.933 521.31 528 523M840 512.501C857.806 508.701 857.643 538.605 842.996 542.245C828.358 545.882 821.651 516.417 840 512.501M943 516.829C961.555 512.441 968.333 537.308 948 542.059C928.256 546.672 925.51 520.966 943 516.829M2029.45 519.125C2036.41 518.176 2045.33 532.369 2047.02 538.003C2051.71 553.606 2044.39 588.728 2025 591.655C1988.06 597.229 1996.33 523.641 2029.45 519.125M1171 627C1172.76 620.239 1183.49 592.301 1191.24 591.199C1195.04 590.659 1205.03 602.822 1209 605.058C1220.81 611.719 1240.5 616.195 1254 615.979C1269.2 615.735 1287.13 608.797 1299.99 600.999C1304.16 598.471 1311.62 587.626 1316.15 587.642C1325.5 587.677 1327.79 606.928 1331 613C1324.46 612.34 1319.12 609.88 1313.72 615.635C1309.66 619.975 1312.8 631.622 1319.3 632.241C1342.19 634.416 1332.91 599.608 1327.45 590.141C1325.33 586.48 1319.96 584.226 1318.95 580.056C1316.54 570.039 1326.44 559.918 1320.76 548.158C1317.93 542.315 1303.96 535.452 1299.68 543.365C1292.22 557.19 1309.67 563.438 1319 555C1318.93 558.8 1319.03 575.064 1313.18 574.905C1305.2 574.689 1296.53 564.049 1289 561.204C1274.02 555.549 1252.68 555.685 1237 558.22C1226.15 559.974 1214.97 565.777 1206.14 572.148C1203.32 574.178 1197.43 580.458 1193.6 579.249C1184.66 576.418 1187.12 546.272 1192.06 540.785C1194.4 538.186 1200 545.461 1203 545.73C1211.67 546.507 1216.83 531.261 1207.93 527.862C1185.36 519.235 1181.95 558.096 1184.86 571C1185.88 575.531 1190.19 581.339 1188.52 586C1184.3 597.797 1173.31 607.617 1169.08 620C1167.04 625.968 1167.92 640.412 1176.12 641.572C1182.6 642.489 1195.2 631.75 1187.57 625.84C1183.24 622.482 1175.83 626.451 1171 627M1196 534C1215.12 528.129 1204.57 549.855 1196 534M1305.83 547.832C1310.28 545.095 1319.83 550.882 1313.16 555.143C1307.87 558.526 1300.65 551.017 1305.83 547.832M266 563C268.203 556.206 259.358 550.333 266 563M1235 562.459C1254.17 558.997 1281.88 560.052 1298 571.555C1301.76 574.239 1309.54 576.254 1310.98 581.123C1315.81 597.473 1273.43 608.691 1263 610.543C1246.55 613.465 1201.49 607.199 1196.41 587.073C1193.98 577.447 1227.46 563.822 1235 562.459M949 587C950.584 584.195 951.915 581.458 954 579C965.79 595.736 944.237 622.574 930.303 598.587C925.934 591.065 942.875 568.973 948.446 576.976C949.853 578.999 948.561 584.428 949 587M842.008 583.822C857.271 578.881 856.117 602.135 843.997 606.031C826.73 611.58 829.303 587.935 842.008 583.822M293 586C293.899 588.124 293.876 588.101 296 589C295.518 586.636 295.364 586.482 293 586M1718 588.519C1730.16 585.968 1729.72 598.396 1719 600.964C1708.54 603.469 1707.9 590.639 1718 588.519M1579.3 600.106C1582.91 598.796 1582.26 609.614 1578.69 610.776C1573.83 612.358 1576.1 601.265 1579.3 600.106M1321.12 617.969C1327.11 616.047 1326.68 624.215 1321.9 625.807C1316.66 627.553 1316.78 619.361 1321.12 617.969M538 644C538.768 641.777 539.751 640 541 638C528.605 636.998 534.07 621.325 542.999 624.072C557.643 628.577 551.463 645.443 538 644M457.993 625.501C471.474 623.38 471.803 649.393 460.011 651.351C450.082 652.999 445.571 627.455 457.993 625.501M1185 631C1182.01 634.321 1179.54 636.052 1175 636C1177.52 631.885 1180.32 631.16 1185 631M172 645.744C196.215 637.718 204.258 679.836 179 688.133C151.095 697.3 143.871 655.067 172 645.744M1215.58 762.278C1214.65 762.816 1215.48 764.26 1216.42 763.722C1217.35 763.184 1216.52 761.74 1215.58 762.278M2038 839C2055.43 863.84 2055.84 899.944 2039.02 925C2032.1 935.295 2014.66 953.568 2000.94 944.734C1994.31 940.458 2032.21 916.292 2007.94 904.862C1982.93 893.085 1990.36 931.016 1984.1 937.041C1979.89 941.093 1964.52 935.634 1960.02 933.575C1954.48 931.04 1945.43 918.907 1948.32 912.361C1950.76 906.838 1961.87 900.448 1953.54 893.667C1944.89 886.625 1943.03 905.873 1939.94 908.937C1934.68 914.142 1919.46 910.777 1914.24 906.98C1899.03 895.922 1904.86 863.084 1925.02 861.151C1938.91 859.819 1923.76 878.603 1930.15 876.894C1942.14 873.685 1938.66 853.142 1925 855.564C1900.93 859.835 1892.96 892.197 1908.54 908.797C1918.31 919.213 1930.43 910.948 1940.4 916.477C1946.31 919.759 1947.47 930.799 1953.1 935.356C1963.49 943.772 1976.35 940.245 1987.98 943.594C1998.3 946.565 2001.89 954.306 2014 950.594C2046.27 940.704 2061.51 900.047 2054.46 869C2052.32 859.575 2040.59 841.299 2041.7 833.078C2044.05 815.712 2051.36 800.918 2049.86 782C2049.58 778.57 2048.54 767.474 2045.37 765.544C2041.68 763.292 2041.85 770.974 2042.39 772.563C2046.28 783.989 2050.44 821.271 2037.37 828.913C2033.29 831.297 2027.29 824.307 2023.55 822.923C2012.4 818.79 1997.58 825.779 1993.92 837C1989.04 851.977 2000.35 865.057 2016 860.952C2025.76 858.391 2034.01 847.742 2038 839M1629 1072C1625.36 1062.49 1599.09 1049.68 1615.99 1034.89C1621.69 1029.89 1658.86 1053.33 1655.71 1025.01C1652.76 998.51 1626.11 1023.91 1617.8 1024.93C1608.28 1026.09 1606.21 1002.62 1609.15 997.08C1616.29 983.608 1645.99 1019.29 1653.19 993C1655.98 982.815 1640.94 976.311 1633 976.311C1627.18 976.311 1619.93 982.882 1614.72 981.76C1608.94 980.512 1609.88 950.74 1612.06 946.199C1615.89 938.25 1644.72 966.649 1651.32 945.956C1660.55 917.043 1623.6 934.432 1615.74 931.426C1602.92 926.522 1608.21 898.062 1612.63 889.45C1615.01 884.8 1622.6 893.962 1625.14 895.481C1635.12 901.45 1652.81 907.628 1658.86 892.974C1663.03 882.852 1644.15 871.51 1636 870.283C1630.56 869.464 1621.9 876.036 1617.82 874.288C1608.37 870.239 1615.35 839.997 1618.72 833.82C1621.84 828.107 1628.44 836.478 1632 838.454C1640.86 843.371 1663.64 850.019 1669.73 837.97C1677.62 822.367 1644.02 813.679 1634 816.442C1630.09 817.52 1623.43 821.833 1619.66 819.241C1612.13 814.062 1607.71 782.857 1607.28 783.106C1591.76 791.983 1619.54 818.981 1615.92 828.446C1608.87 846.828 1614.69 861.09 1611.38 879C1609.42 889.648 1602.43 898.336 1603.14 910C1603.69 918.905 1611.5 929.995 1610.81 937.864C1610.04 946.764 1605.18 955.174 1605.13 965C1605.08 972.417 1609.88 980.581 1609.29 987.68C1607.67 1007.07 1601.43 1008.64 1611.3 1028.66C1613.49 1033.09 1607.88 1038.55 1607.09 1043C1604.45 1057.82 1615.22 1069.29 1629 1072M1292 938C1283.01 942.907 1275.43 958.282 1273 968C1262.08 960.896 1241.93 958.568 1238.37 976C1232.67 1003.88 1273.33 965.151 1273.71 986C1274.35 1021.57 1227.78 1023.59 1206.3 1007.11C1178.08 985.439 1204.35 928.067 1224 910C1229.73 925.182 1271.76 936.071 1267.14 912.019C1262.18 886.206 1235.7 905.336 1224.94 898.777C1216.56 893.668 1220.42 879.74 1223.22 873C1230.3 855.976 1228.77 841.127 1247.32 830.435C1256.75 824.999 1271.18 820.746 1281.56 826.499C1292.66 832.646 1298.23 852.159 1287.68 861.237C1269.87 876.553 1259.86 857.56 1262 842C1251.49 844.507 1254.95 857.869 1260.24 863.992C1267.2 872.065 1275.45 872.056 1285 868.12C1315.17 855.674 1290.07 816.419 1264 819.177C1233.59 822.396 1216.48 856.667 1215.08 884C1214.73 890.978 1221.46 900.051 1219.66 906C1217.34 913.717 1208.8 919.839 1205.02 927C1192.57 950.603 1182.94 982.933 1199.69 1006.94C1219.01 1034.6 1274.93 1024.38 1277.86 989C1278.38 982.649 1274.57 975.937 1275.88 970C1278.41 958.465 1289.19 949.522 1292 938M1640 819.588C1649.79 819.166 1673.58 839.883 1658.95 840.927C1643.84 842.006 1608.6 820.94 1640 819.588M2009 828.468C2033.15 822.964 2042.41 849.172 2017 855.474C1996.34 860.597 1989.65 832.877 2009 828.468M894 880C870.901 863.792 846.708 875.312 834.558 900C818.565 932.493 808.698 978.859 837.058 1006.64C856.425 1025.61 889.738 1020.93 907.999 1002.11C914.736 995.173 926.129 981.665 920.498 971.044C911.749 954.54 893.677 971.059 894.023 984C894.222 991.446 900.059 997.06 905 989L899 990C898.817 982.36 910.207 959.691 917.474 975.405C920.843 982.69 909.484 994.373 905.176 998.921C888.63 1016.39 857.733 1020.28 840.22 1002.78C815.471 978.055 822.642 930.146 838.87 902C848.996 884.436 869.284 866.743 889.498 882.333C892.538 884.678 892.135 889.214 888.718 890.94C872.249 899.263 856.749 902.588 845.278 919.217C834.591 934.709 845.406 947.378 863 941.075C874.089 937.102 885.324 917.083 895 917C891.782 882.454 938.49 878.746 940.502 843C941.307 828.698 925.081 829.536 917.003 836.228C902.312 848.397 897.192 861.982 894 880M897 889C899.089 871.589 901.799 856.474 914.446 843.139C918.678 838.676 926.125 831.628 932.716 835.73C939.197 839.765 935.337 850.851 932.694 856C925.284 870.434 912.58 883.474 897 889M545 984C544.687 951.838 514.472 920.695 515.343 889C515.68 876.736 530.986 855.837 544.541 865.454C557.599 874.717 535.639 883.109 529 884C533.846 894.545 551.767 880.528 551.794 872C551.831 860.861 539.595 854.317 530 859.02C521.355 863.256 512.035 878.37 511.156 888C508.222 920.123 543.138 952.901 541.469 984.927C541.159 990.869 530.377 995.726 526.767 1000.07C517.479 1011.25 512.832 1024.4 508.652 1038C507.116 1043 500.365 1050.77 505.953 1055.88C517.562 1066.5 531.826 1060.53 540.53 1049.8C549.337 1038.95 552.709 1025.71 551.937 1012C551.61 1006.19 545.07 994.681 549.848 989.716C569.825 968.962 616.952 987.97 635.706 958.875C642.784 947.893 637.026 931.16 623 930.074C605.897 928.75 591.901 936.518 579 947.001C566.76 956.946 557.74 976.305 545 984M1629 875.466C1639.73 873.127 1664.01 893.677 1647.88 897.855C1635.37 901.095 1606.91 880.278 1629 875.466M894 894C893.113 908.461 863.621 956.105 845.626 935.532C840.888 930.115 847.692 923.354 850.897 919C861.129 905.103 877.376 896.521 894 894M1945 907C1948.02 893.772 1957.01 904.284 1945 907M1238 901.468C1249.79 899.442 1272.44 919.342 1255.91 922.277C1242.88 924.592 1214.68 905.475 1238 901.468M1998.1 910.472C2015.58 906.332 2009.99 933.179 1995.11 935.994C1986.32 937.656 1988.77 912.68 1998.1 910.472M214 933C218.057 930.274 219.079 921.443 223.283 920.477C238.206 917.048 256.073 948.41 255.396 961C253.749 991.647 226.438 1019.59 197 1025.47C192.196 1026.43 165.52 1027.57 165.52 1019.68C165.519 1014.17 180.334 1002.34 183.654 997C197.017 975.503 205.201 920.479 170 914.42C150.484 911.061 141.735 936.132 138.658 951C135.715 965.221 133.647 986.059 139.001 999.993C140.962 1005.09 154.117 1014.29 150.738 1020.28C141.841 1036.06 99.4997 1026.41 89.2586 1017.4C68.679 999.294 74.1519 955.379 89.4461 936C101.307 920.971 125.534 914.155 121 941C137.52 936.332 120.235 912.618 107 916.209C69.4909 926.388 60.2806 994.108 85.1298 1019.46C107.993 1042.79 131.608 1025.58 157 1023.99C166.758 1023.38 177.242 1031.37 188 1030.84C223.675 1029.11 259.586 995.891 259.757 959C259.866 935.651 216.611 889.389 214 933M163 920.374C204.757 914.019 190.715 981.385 176.739 1000.14C173.007 1005.14 167.69 1014.59 161.008 1015.89C153.158 1017.43 143.962 999.747 142.593 993.562C138.728 976.096 139.061 924.018 163 920.374M1633 931.442C1643.32 930.475 1653.19 947.047 1640.97 948.358C1626.4 949.922 1609.99 933.596 1633 931.442M552 984C557.299 964.31 586.393 944.347 604 937.122C614.902 932.648 628.321 929.646 634.721 943C639.776 953.544 627.48 961.412 620 965.459C600.94 975.773 573.357 981.137 552 984M940 947L940 950C941.797 950 941.521 949.986 943 949L940 947M1262 966C1273.28 990.68 1228.67 977.385 1250.22 969.792C1254.41 968.315 1257.98 968.337 1262 966M1631 980.607C1640.08 979.73 1655.53 997.237 1640.98 998.479C1626.99 999.673 1606.25 982.996 1631 980.607M541.517 993.425C545.791 993.954 546.825 1008.62 546.957 1012C547.491 1025.68 541.771 1059.61 521.089 1057.09C512.895 1056.09 513.916 1045.67 513.89 1040C513.845 1030.07 527.531 991.695 541.517 993.425M1638 1017.76C1653.49 1017.37 1654.07 1034.86 1638.86 1035.64C1620.27 1036.6 1620.49 1018.2 1638 1017.76M1222 1025L1223 1026L1222 1025M311.5 1031.5C310.872 1032.13 311.873 1033.13 312.5 1032.5C313.127 1031.87 312.128 1030.87 311.5 1031.5M1939 1147.78C1929.05 1150.83 1925.7 1162.81 1935.16 1169.05C1944.88 1175.46 1951.1 1159.71 1958.1 1162.32C1967.23 1165.74 1979.47 1196.77 1970.26 1204.02C1964.05 1208.91 1941.36 1199.03 1944.49 1218C1947.03 1233.33 1970.43 1221.13 1970.69 1225.21C1971.36 1235.64 1960.04 1247.44 1954.39 1255C1946.63 1265.38 1940.35 1279.75 1936.2 1292C1918.96 1342.89 1975.38 1397.77 2025 1386.3C2081.08 1373.33 2055.85 1306.72 2042.37 1272C2038.5 1262.02 2032.25 1253.16 2033.1 1242C2033.32 1239.12 2034.18 1236.6 2035.4 1234C2042.62 1218.67 2044.81 1226.02 2055.93 1231.47C2061.11 1234.01 2072.15 1237.74 2074.83 1229.87C2080.35 1213.66 2054.24 1217.34 2048.73 1213.66C2044.55 1210.87 2045.78 1202.16 2046.42 1198C2047.13 1193.44 2049.43 1179.97 2055.28 1179.08C2062.62 1177.97 2075.68 1197.1 2080.94 1177.99C2082.95 1170.69 2071.49 1163.65 2065.04 1164.46C2039.25 1167.67 2044.79 1200.79 2042.45 1215.69C2040.44 1228.44 2026.15 1233.22 2028.21 1250C2029.38 1259.51 2034.47 1266.47 2037.99 1275C2051.02 1306.54 2073.67 1371.62 2022 1382.28C2014.76 1383.78 2006.28 1383.84 1999 1382.65C1940.21 1373.12 1932.22 1311.46 1952.84 1267C1959.58 1252.46 1974.77 1242.41 1975.74 1225C1977.04 1201.88 1978.65 1183.55 1965.64 1162.96C1959.64 1153.46 1951.66 1143.91 1939 1147.78M1943 1150.89C1955.75 1150.6 1951.53 1165.16 1941.02 1165.56C1930.8 1165.96 1933.76 1151.1 1943 1150.89M1189 1217C1189.44 1224.22 1197.31 1250.98 1193.06 1255.98C1182.41 1268.53 1150.49 1273.38 1151.3 1295C1152.13 1317.35 1177.89 1311.7 1193 1307.54C1197.4 1306.33 1204.8 1299.88 1208.74 1305.5C1218.26 1319.1 1206.31 1363.91 1186 1360.44C1181.21 1359.62 1166.86 1352.65 1173.35 1346.48C1176.75 1343.25 1181.96 1344.8 1185.49 1341.96C1189.03 1339.1 1187.66 1334.02 1182.94 1334.09C1158.74 1334.45 1167.8 1369.84 1190 1364.73C1205.73 1361.11 1216.81 1339 1215.86 1324C1215.48 1317.93 1211.29 1304.83 1214.4 1299.48C1218.59 1292.28 1242.23 1289.94 1249.79 1290.27C1256.84 1290.57 1251.24 1306 1250 1310C1243.81 1329.99 1258.26 1391.33 1290.69 1368.6C1314.9 1351.62 1308.1 1313.14 1288 1297.62C1282.13 1293.09 1261.17 1291.41 1261.03 1283.53C1260.89 1275.74 1263.68 1255.17 1269.5 1249.74C1282.12 1237.98 1312.71 1235.47 1310.72 1210.14C1308.02 1175.64 1276.51 1183.04 1255 1179.18C1238.6 1176.24 1232.64 1151.3 1211 1155.83C1174.38 1163.48 1200.02 1194.14 1185.1 1213.52C1172.71 1229.62 1162.2 1203.03 1160.3 1203.76C1154.51 1206.01 1162.01 1218.1 1165.07 1219.74C1172.58 1223.78 1181.86 1219.42 1189 1217M1194 1213C1181.8 1197.78 1193.56 1157.06 1217 1160.62C1224.24 1161.72 1249.06 1169.38 1245.24 1181.26C1244.13 1184.73 1233.12 1187.02 1230 1188.65C1218.8 1194.51 1203.93 1204.99 1194 1213M1612 1228C1594.03 1217.45 1584.28 1212.6 1565.24 1228.9C1549.47 1242.4 1539.6 1274.35 1564 1284.63C1573.12 1288.48 1581.96 1283.38 1591 1283C1591.65 1277.62 1596.12 1273.31 1596.12 1268C1596.09 1240.65 1571.58 1243.02 1555 1256C1557.87 1237.13 1586 1211.55 1603.91 1228.22C1612.66 1236.36 1612.16 1255.7 1617.86 1267.08C1633.18 1297.64 1668.67 1326.26 1666.85 1363C1666.07 1378.67 1660.99 1399.73 1644 1405.8C1620.1 1414.34 1606.89 1382.38 1612.48 1364C1619.26 1341.75 1645.96 1358.98 1643.63 1375.99C1642.5 1384.24 1633.99 1381.95 1632.46 1375.08C1630.85 1367.8 1640.07 1375.85 1640.04 1370.69C1639.97 1361.52 1629.01 1363.5 1627.44 1371.04C1624.34 1385.95 1646.83 1393.51 1648.69 1376C1650.03 1363.45 1636.24 1343.7 1622 1346.88C1607.26 1350.18 1601.71 1372.17 1604.4 1385C1608.54 1404.7 1634.97 1419.28 1652 1406.52C1657.01 1402.77 1665.6 1386.13 1670.42 1385.04C1674.98 1384 1683.19 1391.83 1689 1391.86C1713.82 1392 1738.77 1369.61 1739.9 1344C1740.53 1329.68 1733.39 1303.65 1717.99 1298.73C1695.87 1291.64 1680.17 1321 1687.23 1338.99C1693.44 1354.79 1710.65 1349.77 1721.78 1343C1724.27 1341.48 1732.95 1330.86 1734.52 1335.35C1739.65 1350.05 1723.14 1374.91 1710.99 1381.81C1700.7 1387.67 1684.06 1390.25 1675.64 1379.9C1666.92 1369.16 1672.07 1346.58 1665.85 1333C1647.37 1292.64 1603.58 1261.54 1615.89 1212.02C1619.77 1196.38 1633.16 1179.88 1649 1175.74C1665.46 1171.44 1686.65 1189.58 1686.84 1206C1687.04 1224.04 1660.13 1255.75 1646.74 1229C1635.92 1207.38 1666.12 1211.58 1665.31 1216.47C1667.13 1205.43 1648.04 1199.43 1643.26 1210.05C1637.35 1223.2 1643.53 1244.68 1661 1243.73C1675.16 1242.95 1688.21 1226.29 1690.58 1213C1694.03 1193.64 1674.92 1168.47 1654 1169.28C1628.26 1170.28 1606.2 1204.68 1612 1228M2065.15 1172.48C2071.16 1170.99 2079.38 1179.08 2071.63 1181.47C2066.19 1183.15 2057.48 1174.37 2065.15 1172.48M157 1215C157.142 1250.8 161.637 1283.16 157.677 1319C156.325 1331.24 147.327 1353.92 134 1357C141.715 1340.6 125.406 1315.74 111.564 1336.02C103.249 1348.2 120.503 1354.28 117 1365C169.449 1364.44 168.791 1289.58 164.683 1253C163.516 1242.61 157.13 1213.04 167 1207C169.248 1236.9 211.021 1230.35 216.492 1205C220.642 1185.77 197.866 1173.92 182 1181.19C177.366 1183.31 170.68 1192.36 166.004 1192.36C162.14 1192.36 157.397 1182.68 154.637 1180.13C143.671 1170.02 129.566 1174.52 120.507 1184.58C110.746 1195.41 120.864 1227.35 136.008 1228.9C144.114 1229.73 150.966 1218.94 157 1215M135.32 1179.93C166.724 1173.36 164.854 1218.86 138.687 1224.15C122.889 1227.34 112.855 1184.62 135.32 1179.93M196.997 1183.47C220.853 1183.95 212.913 1225.06 190 1223.74C159.868 1221.99 169.057 1182.9 196.997 1183.47M1254 1183C1274.06 1183 1316.64 1186.48 1303.94 1219C1301.27 1225.83 1279.77 1250.99 1270.26 1242.65C1267.08 1239.87 1268.46 1226.24 1268 1222C1266.43 1207.65 1259.4 1195.91 1254 1183M1246 1187.53C1259.91 1187.9 1269.98 1232.78 1263.72 1243.15C1261.35 1247.07 1253.1 1247.72 1248.98 1248.29C1235.03 1250.22 1216.98 1255.65 1203.15 1254.96C1196.01 1254.6 1192.55 1222.1 1194.51 1216.36C1196.01 1211.95 1205.15 1209.9 1209 1208.03C1221.64 1201.86 1230.58 1187.12 1246 1187.53M492 1253C500.081 1276.61 524.903 1258.1 539.499 1265.55C543.921 1267.81 549.083 1302.11 548.704 1307.75C548.356 1312.93 537.687 1311.39 534 1311.82C523.275 1313.1 486.687 1320.13 492.66 1339C496.751 1351.92 521.055 1361.86 533 1364.65C539.816 1366.23 550.861 1360.87 550.93 1372.01C550.97 1378.45 549.61 1400.54 540.876 1401.68C536.528 1402.24 501.619 1372.87 505.07 1404C507.745 1428.12 531.106 1410.23 541.68 1410.66C559.834 1411.41 587.29 1430.61 595.959 1399C604.355 1368.38 571.28 1373.76 558.157 1360.4C554.155 1356.32 554.537 1324.58 555.157 1318.24C555.647 1313.23 566.203 1312.68 570 1311.28C582.977 1306.47 600.908 1295.55 594.882 1279C590.677 1267.45 577.363 1257.68 565 1257.05C560.267 1256.81 551.572 1260.01 547.501 1257.6C541.219 1253.89 542.939 1229.33 544 1223C547.541 1226.04 550.988 1231.13 556.001 1231.55C571.528 1232.86 571.547 1204.53 559.844 1199.57C538.948 1190.71 539.947 1236.39 540.003 1246C540.022 1249.42 542.236 1257.29 539.263 1259.74C525.385 1271.16 504.085 1254.98 492 1253M555.048 1205.85C566.309 1201.7 564.811 1224.65 557.815 1226.91C547.369 1230.29 545.404 1209.4 555.048 1205.85M1956.01 1208.86C1967.67 1206.28 1969.98 1219.86 1958.96 1222.31C1948.06 1224.73 1945.06 1211.28 1956.01 1208.86M2070 1230C2061.35 1229.18 2054.35 1227.09 2050 1219C2058.85 1219 2067.26 1220.16 2070 1230M990 1286C980.212 1280.17 960.266 1284 949 1284C953.371 1263.58 930.863 1209.47 905.299 1236.18C898.731 1243.04 893.339 1256.48 893.121 1266C893.016 1270.57 896.717 1281.43 892.983 1284.96C884.415 1293.07 859.195 1280.72 858.42 1299C857.781 1314.09 866.007 1341.05 885 1338.75C901.499 1336.75 901.095 1318.56 900.038 1306C899.656 1301.46 896.745 1291.55 903.206 1290.18C910.153 1288.71 939.381 1284.9 943.877 1290.5C953.05 1301.93 942.86 1335.64 968 1334.73C982.893 1334.19 992.012 1322 994.541 1308C995.528 1302.53 992.401 1290.8 999.148 1288.49C1011.25 1284.34 1021.37 1287.71 1033 1291.32C1035.18 1291.99 1043.68 1293.88 1045.24 1291.32C1045.07 1291.61 1038.18 1282.77 1038.1 1280C1037.88 1272.22 1041.18 1264.81 1039.3 1257C1034.45 1236.82 1013.33 1222.12 996.802 1240.88C983.44 1256.05 993.304 1269.78 990 1286M915.003 1235.54C932.217 1231.6 939.046 1252.86 943.325 1266C944.499 1269.61 947.55 1281.63 942.499 1283.47C937.435 1285.31 903.14 1287.59 900.241 1284.18C890.863 1273.14 901.278 1238.69 915.003 1235.54M1014 1237.42C1031.95 1235.01 1035.02 1257.37 1033.96 1270C1033.7 1273.12 1034.27 1283.77 1030.5 1284.78C1028.71 1285.26 997.958 1283.33 997.219 1282.7C982.236 1269.82 997.729 1239.6 1014 1237.42M1256.89 1250.51C1264.53 1250.39 1258.92 1279.97 1255.62 1284.46C1254.64 1285.78 1216.21 1294.58 1212.89 1294.12C1208.83 1293.56 1199.5 1263.65 1203.1 1260.18C1210.03 1253.5 1247.03 1250.66 1256.89 1250.51M1569 1251.7C1573.35 1250.85 1584.13 1250.22 1587.4 1253.51C1594.12 1260.27 1590.79 1278.47 1580.97 1280.63C1558.8 1285.54 1542.59 1256.84 1569 1251.7M1194.51 1261.33C1199.64 1262.49 1208.08 1291.67 1205.48 1296.23C1200.43 1305.12 1170.17 1309.58 1161.28 1306.5C1155.56 1304.51 1156.62 1293.44 1158.3 1289C1161.42 1280.73 1184.31 1259.01 1194.51 1261.33M560 1261.41C598.121 1259.2 599.006 1308.57 559.03 1309.87C550.815 1310.14 551.574 1298.98 550.291 1293C547.182 1278.52 539.906 1262.57 560 1261.41M991 1288C990.147 1297.16 990.932 1307.46 987.062 1316C980.334 1330.85 964.192 1335 955.457 1320C950.482 1311.46 950.188 1296.79 950 1287C963.231 1289.99 977.545 1289.78 991 1288M888.97 1290.39C899.7 1290.05 900.546 1334.7 883.001 1335.79C869.769 1336.61 859.307 1306.65 864.88 1296.37C867.926 1290.74 883.262 1290.57 888.97 1290.39M1260.46 1292.26C1272.49 1289.59 1299.09 1309.74 1301.43 1321.05C1302.55 1326.44 1298.57 1331.6 1298.62 1337C1298.71 1346.21 1295.3 1363.09 1283.91 1366.2C1256.24 1373.77 1249.99 1330.87 1253.79 1313C1254.65 1308.95 1255.75 1293.31 1260.46 1292.26M1710 1302.74C1739.57 1301.23 1730.82 1345.22 1703 1345.66C1680.48 1346.01 1689.83 1303.76 1710 1302.74M546.852 1315.82C553.082 1317.1 551.97 1332.06 551.997 1337C552.089 1353.83 553.338 1363.84 533 1360.17C524.368 1358.62 498.997 1349.08 497.775 1338.76C495.444 1319.07 533.994 1313.19 546.852 1315.82M124.992 1334.28C135.122 1333.59 135.888 1356.27 126.863 1357.53C115.22 1359.15 108.069 1335.43 124.992 1334.28M545 1407C548.586 1396.29 553.176 1388.53 555.184 1377C555.656 1374.29 555.027 1367.4 557.822 1365.9C561.745 1363.8 567.351 1368.54 570.999 1369.55C594.622 1376.05 603.005 1408.3 573 1413.5C561.192 1415.54 555.493 1408.35 545 1407M537 1407C533.809 1409.01 530.615 1411.63 527 1412.83C503.378 1420.62 509.633 1379.44 530.638 1398.8C533.245 1401.2 535.247 1403.95 537 1407M947 1656C965.861 1654.51 990.456 1642.35 1000.68 1626C1018.35 1597.77 1012.49 1559.41 974 1553.56C967.534 1552.58 956.782 1555.56 951 1558.46C945.127 1561.41 940.586 1566.57 935.986 1571.14C900.321 1606.56 970.449 1638.4 976.774 1603C979.158 1589.66 966.143 1580.9 958 1594C961.573 1594.63 968.352 1592.29 971.171 1594.35C977.07 1598.64 969.041 1610.02 964.978 1612.32C955.556 1617.64 943.551 1613.72 936.322 1606.54C921.198 1591.53 939.418 1570.55 953 1562.59C968.18 1553.69 986.502 1560.49 998.815 1571.5C1024.07 1594.08 994.367 1628.86 975 1641.61C947.535 1659.7 894.203 1650.74 865 1638.74C858.765 1636.17 853.177 1633.47 848.003 1629.1C806.775 1594.22 861.979 1549.49 893.021 1534.07C899.705 1530.75 927.945 1528.45 930.592 1525.04C933.091 1521.83 924.873 1519.33 922.999 1519.08C911.004 1517.45 892.604 1529.35 883 1535.44C851.985 1555.09 802.487 1595.95 844.446 1632.22C861.763 1647.19 880.268 1645.55 901 1650.38C904.148 1651.11 920.118 1651.66 920.919 1655.04C921.023 1655.48 899.331 1671.86 897.228 1675C878.612 1702.8 881.137 1753.31 921 1761.68C961.044 1770.09 978.908 1718.69 968.631 1687C963.856 1672.27 953.646 1668.2 947 1656M1625 1579C1610.44 1570.54 1595.57 1549.62 1577.98 1548.1C1546.66 1545.4 1535.54 1565.75 1537.36 1594C1537.72 1599.63 1536.79 1608.51 1540.31 1613.35C1543.7 1618.02 1543.1 1607.19 1543 1606C1555.22 1617.78 1573.94 1627.98 1592 1621.68C1596.77 1620.02 1618.39 1600.78 1619.53 1601.93C1626.62 1609.03 1620.35 1627.48 1620.1 1636C1619.24 1664.16 1620.99 1682.53 1608 1709C1603.32 1718.54 1595.18 1731.5 1583 1731.59C1559.66 1731.75 1556.44 1679.16 1580 1676.79C1599.97 1674.78 1600.28 1701.54 1593 1713C1590.17 1708.93 1587.73 1704.86 1583 1703C1583.18 1710.18 1591.66 1722.54 1599 1713.53C1618.58 1689.5 1579.88 1653.72 1561.83 1685.01C1542.87 1717.86 1586.1 1758.18 1609.27 1718C1628.16 1685.25 1622.54 1658.3 1626.82 1623C1627.95 1613.72 1619.58 1596.5 1626 1590C1628.97 1618.8 1633.56 1647.88 1636.76 1677C1638.21 1690.16 1634.99 1704.28 1643.84 1715.74C1666.44 1744.99 1718.75 1717.15 1712.58 1683C1708.72 1661.63 1676.49 1652.88 1673.33 1679C1671.3 1695.72 1697.6 1699.03 1697.35 1687.13C1697.24 1682.08 1691.49 1684.53 1693 1690C1679.62 1689.99 1671.17 1676.21 1687.01 1670.04C1697.19 1666.08 1709.59 1678.72 1708.67 1689C1706.33 1715.17 1669.83 1735.55 1649.4 1713.63C1639.92 1703.46 1644.02 1688.41 1642.78 1676C1640.1 1649.36 1638.7 1619.81 1632 1594C1650.57 1603.32 1670.54 1620.29 1692.99 1612.45C1725.21 1601.2 1703.83 1543.37 1683.99 1529.8C1662.07 1514.81 1620.33 1556.42 1625 1579M1675 1530.89C1702.54 1533.91 1720.67 1612.34 1682 1609.64C1667.34 1608.62 1635.09 1599.45 1628.98 1583.88C1621.27 1564.25 1656.49 1528.86 1675 1530.89M1980 1592C1968.9 1577.72 1964.55 1548.74 1944 1543.12C1922.42 1537.21 1898.75 1569.93 1910.37 1588.95C1920.21 1605.07 1959.19 1590.99 1948.3 1573.15C1943.25 1564.87 1932.07 1570.74 1932 1579C1954.75 1570.21 1936.37 1599.33 1919.03 1590.5C1899.39 1580.5 1923.41 1547.55 1939 1547.21C1951.55 1546.94 1958.93 1564.55 1965.09 1573C1985.22 1600.58 1988 1657.72 1988 1691C1977.9 1685.47 1969.6 1670.63 1956.04 1673.42C1921.49 1680.54 1924.3 1731.43 1953.18 1743.16C1966.33 1748.49 1978.44 1722.81 1982.27 1714C1984.12 1709.74 1986.17 1700.53 1992.82 1703.01C1999.85 1705.62 2004.66 1722.95 2009.7 1728.87C2024.17 1745.92 2056.75 1744.31 2068.5 1725C2074.2 1715.61 2067.62 1706.05 2062.78 1698C2047.2 1672.1 2015.67 1673.3 1993 1685C1991.92 1646.71 1985.96 1608.04 1985.71 1569C1985.62 1555.02 1997.11 1532.59 2014 1534.69C2039.77 1537.9 2059.02 1589.5 2029 1600.03C2003.05 1609.14 2029.39 1544.98 2030 1585C2040.38 1581.35 2028.18 1561.82 2015.3 1569.43C2004.3 1575.92 2013.12 1608.27 2025.76 1607C2039.13 1605.65 2044.9 1590.86 2047.21 1580C2053.65 1549.7 2019.35 1515.82 1991.21 1539.93C1985.33 1544.97 1985.03 1553.16 1982.59 1560C1978.73 1570.78 1981.13 1581.06 1980 1592M1259 1732C1246.43 1735.19 1244.98 1745.92 1230 1744.86C1207.62 1743.29 1191.46 1721.71 1198.02 1699C1204.76 1675.69 1231.82 1654.6 1250 1640.02C1255.55 1635.56 1263.92 1626.82 1271.24 1625.66C1277.68 1624.63 1291.26 1644.31 1297 1648.05C1329.98 1669.54 1378.9 1732.13 1340.52 1771.74C1331.75 1780.8 1316.66 1789.84 1303.26 1785.31C1282.74 1778.37 1281.13 1752.9 1297.35 1740.78C1328.87 1717.24 1316.13 1794.55 1304 1755C1294.32 1758.41 1309.85 1777.84 1319.74 1770.16C1338.76 1755.38 1314.41 1723.15 1293 1737.11C1260.06 1758.6 1288.18 1798.01 1321 1790.41C1381.84 1776.31 1355.9 1689.05 1323.91 1660.32C1310.09 1647.91 1287.04 1640.99 1278.71 1623.05C1277.17 1619.74 1299.88 1602.84 1303.03 1598C1312.78 1583.06 1316.07 1563.18 1307.03 1547C1297.34 1529.66 1268.65 1527.77 1255.33 1542.17C1240.69 1558 1252.91 1584.1 1258.52 1601C1259.63 1604.35 1266.23 1621.8 1265.53 1622.63C1241.7 1650.89 1189.87 1668.27 1192.04 1713C1193.61 1745.32 1245.85 1770.75 1259 1732M1273 1538.4C1321.83 1530.45 1312 1613.12 1277.14 1614.61C1268.65 1614.97 1262.08 1599.31 1260.11 1593C1254.15 1573.9 1243.91 1543.14 1273 1538.4M568 1697C570.64 1685.13 579.94 1674.77 585.011 1663.78C593.322 1645.77 597.23 1612.89 591.286 1594C573.181 1536.45 487.513 1521.45 454.723 1577C444.729 1593.93 450.794 1616.74 459.342 1633C475.678 1664.06 514.811 1694.66 518.873 1731.02C520.699 1747.36 499.136 1759.75 485.081 1753.03C461.553 1741.78 480.489 1703.4 505.145 1716.11C507.294 1717.22 509.257 1716.51 508.88 1713.84C506.992 1700.47 488.467 1703.86 481.162 1710.14C457.902 1730.14 473.365 1768.5 505 1757.57C531.082 1748.57 521.652 1721.87 512.934 1704C493.249 1663.64 415.139 1600.72 479.019 1559.1C487.155 1553.8 495.644 1551.27 505 1549.14C516.478 1546.53 530.475 1545.92 541.997 1548.62C587.787 1559.39 597.06 1619.83 581.691 1658C573.426 1678.53 554.653 1700.51 557.329 1724C561.61 1761.6 605.929 1747.48 609.658 1717C612.804 1691.28 584.899 1686.38 568 1697M1568 1552.8C1586.83 1549.89 1591.4 1563.5 1604.61 1572.29C1609.98 1575.86 1617.97 1575.1 1619.95 1583C1623.3 1596.3 1598.39 1617.13 1587 1618.64C1544.32 1624.31 1519.27 1560.34 1568 1552.8M132 1614C140.912 1625.77 139.358 1644.31 136.599 1658C128.795 1696.72 79.2257 1750.5 111.696 1789.81C117.255 1796.54 129.141 1798.81 137 1801.88C166.143 1813.25 228.293 1811.8 241.035 1778C256.888 1735.95 246.316 1706.83 222.522 1671.14C207.705 1648.91 180.202 1623.69 187.397 1594C196.437 1556.69 252.762 1578.31 251.477 1611.44C250.615 1633.65 222.865 1645.49 206.01 1631.57C197.686 1624.7 201.685 1620.59 199.377 1612C198.893 1610.2 193.072 1599.98 190.459 1603.11C188.148 1605.87 193.422 1614.74 193.878 1618C197.342 1642.74 228.119 1650.46 245.915 1633.81C268.965 1612.26 247.746 1563.46 215 1569.46C191.473 1573.78 174.158 1594.6 183.664 1619C196.698 1652.46 228.737 1677.01 240.938 1710C248.909 1731.55 246.273 1778.59 225.774 1793.47C211.394 1803.92 172.247 1805.46 155 1803.17C123.114 1798.93 99.166 1775.56 108.202 1742C121.409 1692.94 165.018 1648.14 128.156 1597.86C112.549 1576.58 81.4747 1579.9 74.2462 1607C69.6037 1624.4 81.9453 1643.58 97.059 1652.25C120.141 1665.5 132 1629.09 132 1614M126 1604L98 1589C108.586 1585.49 122.259 1594.42 126 1604M92.6464 1597.37C103.022 1598.82 121.001 1598.64 126.635 1611.09C133.316 1625.86 120.687 1652.78 102.008 1649.22C88.2171 1646.59 75.5429 1625.19 79.7859 1612.92C82.4295 1605.28 80.7244 1595.71 92.6464 1597.37M105 1596L102 1597L105 1596M1269 1613C1269.9 1614.76 1270.46 1616.11 1271 1618C1267.99 1617.35 1267.5 1615.61 1269 1613M925 1656C966.156 1656.26 979.001 1723.58 952.936 1748.87C929.153 1771.96 894.207 1748.91 892.636 1722.06C892.175 1714.19 887.484 1706.87 889.629 1698C891.232 1691.37 902.797 1672.99 908.031 1668.7C912.429 1665.09 924.284 1661.84 925 1656M1956 1677.65C1992.54 1667.95 1984.83 1733.61 1957.88 1739.16C1953.27 1740.11 1949.87 1730.55 1946.82 1727.99C1930.06 1714 1931.2 1684.23 1956 1677.65M2011 1679.58C2041.86 1672.34 2092.14 1724.62 2046 1735.25C2028.11 1739.38 2009.81 1727.55 2003.22 1711C1998.09 1698.1 1993.39 1683.71 2011 1679.58M1995 1692C1994.13 1693.9 1993.62 1694.74 1992 1696C1992.55 1693.61 1992.88 1693.28 1995 1692M580 1696.44C613.342 1691.14 608.867 1740.5 581 1743.5C556.302 1746.16 557.679 1699.99 580 1696.44M2092 2019C2085.79 2027 2076.88 2036.37 2076.14 2047.08C2075.98 2049.28 2078.64 2066.73 2083.26 2062.81C2086.86 2059.76 2083.04 2037.65 2088.8 2030C2091.71 2026.13 2111.77 2009.17 2110.46 2006.06C2108.53 2001.47 2100.58 2003.79 2097 2004.53C2082.91 2007.43 2072.28 2004.63 2059 2000.07C2056.72 1999.29 2048.43 1995.37 2046.54 1997.99C2044.18 2001.28 2059.99 2004.9 2062 2005.71C2066.18 2007.4 2070.49 2009.16 2075 2009.74C2082.3 2010.68 2089.8 2009.52 2097 2011C2046.72 2041.2 1975.6 2045.79 1929 2009.33C1884.38 1974.4 1888.54 1893.36 1940 1867.7C1983.3 1846.11 2027.04 1902.35 2001.46 1941C1996.12 1949.06 1988.14 1955.85 1980 1960.97C1972.43 1965.74 1965.61 1966.47 1957 1967.44C1950.12 1968.21 1942.41 1968.94 1936 1965.77C1911.23 1953.53 1910 1924.03 1927.47 1905.61C1935.01 1897.66 1953.63 1887.3 1964.86 1894.02C1985.56 1906.39 1971.86 1938.01 1949 1933.63C1928.98 1929.8 1940.23 1908.66 1958 1912C1952.46 1888.88 1925.11 1916.46 1936.8 1931.76C1953.52 1953.63 1987.94 1924.14 1976.98 1901C1959.14 1863.33 1910.29 1905.7 1910.16 1934C1909.9 1990.92 1988.81 1976.03 2007.7 1939.78C2032.1 1892.97 1984.93 1844.7 1938 1863.94C1928.69 1867.76 1922.71 1876.13 1916.2 1883.32C1877.37 1926.18 1892.78 1991.97 1939 2023.92C1984.96 2055.68 2044.21 2034.59 2092 2019M1661 2063C1642.31 2048.99 1619.94 2050.21 1602.21 2065.12C1593.75 2072.24 1582.19 2089.21 1590.48 2099.99C1605.6 2119.66 1638.32 2112.46 1653.92 2096.92C1657.39 2093.47 1663.11 2078.84 1666.72 2077.64C1671.9 2075.92 1676.36 2087.89 1678.92 2090.74C1684.99 2097.54 1700.82 2104.92 1710 2104.69C1724.65 2104.33 1747.65 2090.53 1735.96 2073.15C1731.81 2066.99 1719.53 2068.4 1716.62 2075.37C1718.67 2070.46 1748.19 2081.78 1724.99 2096.06C1704.13 2108.9 1674.17 2083.43 1667.38 2064.98C1655.22 2031.89 1697.87 2018.71 1688.02 1985C1677.35 1948.48 1640.88 1963.41 1617.1 1947.92C1590.57 1930.63 1602.45 1893.7 1622.31 1877.51C1638.47 1864.35 1678.34 1867.46 1680.51 1893.78C1681.63 1907.47 1659.59 1927.53 1646 1924.37C1635.28 1921.87 1623.44 1900.97 1640.01 1898.29C1645.43 1897.41 1654.23 1906.57 1654.4 1906.46C1664.98 1899.85 1645.89 1892.13 1641 1892.33C1617.32 1893.29 1627.93 1928.89 1648 1929.34C1673.15 1929.91 1694.2 1897.16 1676.68 1877.08C1648.71 1845.02 1600.41 1877.71 1596.91 1913C1592.53 1957.27 1633.36 1951.15 1660 1963.99C1674.67 1971.06 1692.34 1987.59 1683.99 2006C1682.41 2009.49 1680.13 2012.68 1678.23 2016C1660.02 2047.9 1653.59 1999.28 1642.22 1986.62C1629.08 1971.99 1604.7 1975.02 1598.92 1995C1592.25 2018.05 1610.88 2042.49 1635 2043.91C1640.07 2044.21 1656.97 2037.86 1659.88 2040.14C1664.41 2043.69 1662.46 2058.3 1661 2063M473 1942C476.447 1940.63 480.071 1936.36 483.915 1936.62C495.409 1937.4 485.542 1952.62 477.999 1953.11C465.04 1953.95 462.32 1936.82 463.404 1927C465.354 1909.33 483.35 1883.54 503 1884.62C514.274 1885.24 521.224 1897.56 525.365 1906.68C538.907 1936.49 518.884 1959.95 519.164 1991C519.296 2005.61 528.142 2025.41 523.16 2039.92C519.69 2050.03 503.035 2063.53 495.837 2071.92C486.95 2082.28 469.224 2108.27 475.292 2123C489.095 2156.51 526.414 2136.92 532.49 2109C535.004 2097.45 521.761 2090.06 512.107 2095.35C500.865 2101.5 506.796 2114.83 518 2115C514.895 2111.08 506.072 2098.39 519.042 2099.83C539.815 2102.13 516.452 2137.85 501 2136.52C453.072 2132.39 503.162 2058.54 523.724 2048C524.317 2047.7 546.516 2066.82 550.32 2069.32C570.76 2082.74 617.798 2078.22 612.307 2116C610.428 2128.92 590.717 2156.29 579.98 2133.79C574.815 2122.96 591.017 2120.95 588.813 2117.53C586.399 2113.79 576.044 2117.44 573.332 2119.48C560.873 2128.85 587.134 2151.59 601 2144.29C617.567 2135.56 623.101 2107.54 611.551 2093C594.082 2071 537.986 2074.89 531.822 2045C530.085 2036.58 550.731 2019.14 554.515 2010C562.346 1991.09 559.285 1967.6 552.511 1949C548.967 1939.27 534.25 1935.45 539.159 1924C555.294 1886.36 599.313 1889.44 609.309 1929C610.659 1934.34 612.1 1963.19 600.982 1959.57C595.422 1957.77 587.067 1940.53 597.143 1940.52C599.694 1940.52 602.717 1948.24 605 1950C604.995 1947.02 605.177 1943.92 604.481 1941C601.908 1930.22 592.838 1932.95 588.306 1941.02C582.723 1950.96 595.735 1970.83 606.949 1963.11C629.407 1947.66 607.5 1898.24 586 1892.77C571.401 1889.05 559.18 1894.28 548.569 1904.41C545.725 1907.12 540.81 1916.26 536.961 1916.92C533.206 1917.56 529.425 1905.65 528.312 1903C524.133 1893.04 514.928 1880.2 503 1880.16C475.957 1880.08 442.488 1927.85 463.499 1951.58C474.002 1963.44 499.475 1954.07 492.448 1937.1C487.742 1925.74 475.242 1933.47 473 1942M1194 1968C1190.12 1974.51 1189.57 1984.6 1186.87 1992C1175.55 2023 1157.95 2076.71 1204 2090.43C1213.69 2093.32 1224.82 2095.62 1234 2090.59C1237.41 2088.72 1247.92 2076.56 1250.77 2077.08C1253.88 2077.65 1258.37 2085.53 1261.04 2087.66C1271.08 2095.66 1289.9 2102.12 1302 2095.24C1320.64 2084.63 1332.83 2051.81 1336.52 2032C1345.53 1983.52 1354.31 1921.12 1300 1894.67C1280.91 1885.37 1261.13 1890.24 1243 1898.22C1240.35 1899.38 1235.21 1898.07 1233.31 1900.01C1226.23 1907.21 1220.51 1920.6 1213.65 1929C1208.33 1935.51 1187.08 1959.71 1194 1968M912.079 1894.15C898.918 1898.27 897.289 1921.96 883.764 1926.34C876.564 1928.67 867.009 1915.38 861 1912.58C846.399 1905.77 825.296 1919.61 818.379 1932.01C788.035 1986.38 785.696 2085.92 866 2094.21C876.496 2095.29 884.707 2095 895 2092.14C950.259 2076.81 972.437 2011.13 960.463 1958C955.857 1937.57 943.673 1884.27 912.079 1894.15M1242 1903C1280.91 1885.37 1324.82 1902.43 1337.3 1946C1348.92 1986.59 1335 2061.29 1301.82 2089.24C1288.73 2100.27 1257.23 2088.46 1255.36 2071C1254.42 2062.2 1263.07 2051.18 1264.59 2042C1268.72 2017.12 1270.08 1993.33 1270 1968C1269.99 1963.96 1269.63 1935.94 1267.24 1934.99C1255.81 1930.42 1246.86 1959.18 1245.43 1966C1241.05 1986.85 1233.99 2004.8 1237.49 2027C1240.26 2044.63 1254.85 2066.44 1240.78 2079.74C1221.57 2097.9 1183.07 2084.13 1179.27 2057C1174.39 2022.24 1193.15 1969.65 1210.26 1941C1216.26 1930.95 1224.62 1920.21 1232.28 1911.36C1235.97 1907.1 1244.26 1909.77 1242 1903M882 1932C872.157 1960.03 865.759 2001.97 874.777 2031C878.151 2041.86 884.312 2057.47 897 2060.52C917.701 2065.49 916.548 2028.9 914.649 2018.14C911.415 1999.82 916.688 1984.33 909.178 1966.14C905.799 1957.95 889.019 1936.19 889.967 1928.88C891.315 1918.48 909.966 1902.32 920.001 1901.33C940.896 1899.28 954.942 1945.79 956.775 1962.01C960.892 1998.43 955.586 2037.29 931.786 2066.74C906.422 2098.13 849.4 2098.9 823.799 2068.56C797.195 2037.04 797.417 1987.27 814.194 1951C822.001 1934.12 831.637 1916.05 853 1915.3C864.557 1914.9 872.233 1927.31 882 1932M112 1962C105.246 1930.51 146.742 1911.64 164.181 1941.21C174.839 1959.29 153.767 1999.36 153 2021C146.116 2014.79 142.958 2002.96 133 2000.67C104.945 1994.19 100.609 2031.69 109.187 2048.64C121.937 2073.83 149.098 2073.64 166.888 2090.46C173.19 2096.43 197.946 2078.69 207 2071.7C217.008 2063.97 230.533 2056.42 233.57 2043C242.065 2005.46 207.704 1997.66 183 2017C182.327 2002.25 183.888 1987.6 180.773 1973C179.191 1965.59 173.587 1956.39 177.399 1949C195.25 1914.4 228.865 1939.54 221 1971C215.206 1962.28 204.674 1961.56 201.656 1973.14C199.039 1983.17 205.325 1997.92 216.871 1988.36C225.73 1981.01 229.58 1961.91 227.535 1951C222.52 1924.24 178.834 1919 175 1948C163.035 1940.26 158.921 1924.32 143 1919.67C123.888 1914.08 102.127 1944.73 108.369 1961.68C113.094 1974.51 132.159 1982.92 137.193 1964.99C143.265 1943.37 118.557 1955.59 112 1962M886.497 1935.64C893.704 1935.64 899.483 1953.61 901.713 1958.96C911.316 1982 910.065 2008.27 909.999 2033C909.981 2039.79 907.98 2055.57 898.92 2056.68C890.024 2057.78 884.256 2043.26 882.014 2037C874.08 2014.86 875.215 1986.24 877.879 1963C878.269 1959.6 883.9 1935.64 886.497 1935.64M540.739 1941.99C548.544 1941.7 550.392 1958.7 551.757 1964C556.434 1982.15 554.422 2009.31 541.734 2024C539.365 2026.74 533.259 2035.36 529.284 2035.36C525.958 2035.36 527.064 2015.08 526.96 2012C526.329 1993.43 525.519 1979.57 528.694 1961C529.894 1953.98 530.851 1942.35 540.739 1941.99M1260.77 1943.64C1267.29 1943.64 1265.93 1965.79 1266.02 1970C1266.52 1994.61 1261.97 2016.98 1260.67 2041C1260.46 2044.89 1256.97 2062 1251.87 2062C1246.71 2062 1246.12 2041.04 1245.12 2037C1238.93 2011.78 1244.02 1990.52 1249.58 1966C1250.69 1961.09 1253.73 1943.64 1260.77 1943.64M124.048 1956.66C134.86 1953.88 135.278 1968.39 125.957 1971.17C115.146 1974.39 114.684 1959.06 124.048 1956.66M171 1958C184.38 1981.51 182.332 2028.08 177.816 2054C175.982 2064.53 176.39 2075.13 168 2083C153.06 2043.82 152.314 1997.22 171 1958M212.856 1969.25C220.008 1968.76 217.031 1985.46 210.217 1986.21C203.205 1986.99 205.911 1969.71 212.856 1969.25M1643 2003C1636.31 2002.11 1615 2002.28 1615 2012.97C1615 2019.49 1627.07 2022.39 1632 2021.84C1643.42 2020.58 1649.18 2006.13 1656.73 2024.04C1662.72 2038.26 1645.66 2040.54 1635 2039.91C1613.23 2038.63 1589.61 2009.49 1605.76 1989.18C1618.83 1972.76 1641.18 1985.3 1643 2003M162 2084C141.597 2075.56 118.587 2062.77 110.501 2041C105.678 2028.01 113.021 2000.48 131.974 2005.08C139.405 2006.89 143.936 2015.89 147.351 2022C155.386 2036.38 158.709 2066.96 162 2084M1633 2012C1633.6 2009.22 1638.08 2002.91 1640.38 2008.61C1643.46 2016.27 1628.46 2020.73 1623.53 2016.77C1616.89 2011.45 1629.71 2010.62 1633 2012M178 2084C180.817 2065.59 180.997 2045.18 185.841 2027.22C189.047 2015.33 209.617 1999.78 221.032 2011.48C249.752 2040.94 203.374 2075.65 178 2084M1624 2058.43C1633.21 2056.75 1657.47 2059.81 1661.37 2070.09C1667.44 2086.1 1640.35 2104.12 1628 2106.46C1583.4 2114.91 1586.57 2065.22 1624 2058.43z"/>
</svg>
