<?xml version="1.0" standalone="yes"?>
<svg xmlns="http://www.w3.org/2000/svg" width="2200" height="2200">
<path style="fill:#111111; stroke:none;" d="M2121 16C2110.76 19.9565 2101.14 25.5349 2093 33L2094 34C2103.47 28.2717 2113.03 23.6252 2122 17L2121 16M1850 41C1864.52 36.4058 1877.78 25.5073 1891 18C1881.41 14.7732 1852.35 31.1995 1850 41M1864 102C1866.77 84.6528 1898.32 74.0051 1913.96 65.7148C1917.33 63.9275 1930.64 54.613 1933.74 57.8474C1937.28 61.5271 1941.89 91.178 1938.91 95.3413C1934.84 101.018 1923.04 104.65 1917.04 108.217C1899.51 118.645 1879.07 136.872 1858 137C1865.37 144.667 1874.91 138.24 1882.56 134.078C1896.73 126.371 1910.14 118.017 1924 109.795C1927.56 107.684 1935.46 101.136 1939.72 101.577C1942.82 101.896 1943.31 109.719 1943.65 112C1944.86 120.158 1952.77 142.478 1948.66 149.482C1945.46 154.946 1932.65 158.678 1927 161.147C1908.74 169.136 1884.59 172.953 1869 186C1870.71 187.489 1873.55 190.714 1876.21 189.899C1879.38 188.929 1882.11 183.229 1886 181.563C1900.52 175.348 1915.68 171.45 1930 164.623C1933.73 162.847 1947.17 154.426 1950.87 158.001C1957.22 164.143 1958.26 188.249 1960.02 197C1967.26 233.007 1973.75 269.062 1981.32 305C1983.35 314.63 1984.64 348.347 1996 350C1983.44 305.117 1976.87 258.635 1967.6 213C1964.59 198.154 1953.51 170.716 1956.38 156.184C1958.51 145.356 1997.47 133.837 2007 129.537C2010.22 128.085 2020.45 121.427 2023.38 124.77C2030.71 133.128 2031.1 158.048 2033.87 169C2044.41 210.628 2053.31 252.971 2062.14 295C2064.44 305.906 2066.09 346.984 2078 350C2061.16 295.541 2047.44 231.508 2039.93 175C2038.09 161.136 2024.82 135.482 2028.96 122.241C2031.35 114.566 2050.36 110.966 2057 108.36C2083.33 98.0234 2109.2 85.2036 2135 73.5786C2138.59 71.9595 2167.55 61.6641 2164.46 56.6377C2160.96 50.9585 2138.24 66.604 2134 68.5884C2107.84 80.8201 2080.94 94.1853 2054 104.57C2049.8 106.187 2030.06 115.499 2027.24 112.303C2023.24 107.768 2022.48 93.9275 2021.8 88C2020.92 80.2913 2015.56 68.6108 2018.82 61.1868C2021.64 54.7729 2034.93 50.5818 2040.96 47.8108C2061.52 38.3621 2081.68 25.5388 2103 18C2086.51 12.425 2053.2 36.5659 2038.22 43.8972C2033.85 46.0334 2022.65 54.8757 2017.74 52.4236C2013 50.0583 2011.42 33.9141 2010 29C1998.94 34.6799 2015.8 49.5789 2011.02 57.6582C2007.91 62.9204 1995.54 67.2791 1990 69.2234C1975.96 74.1458 1962.5 89.5308 1947.19 90.7078C1939.79 91.2769 1939.66 57.6069 1943.15 52.5095C1947.3 46.4421 1961.34 42.5369 1968 39.8564C1983.29 33.7019 1997.7 24.491 2013 18C2000.9 13.926 1984.28 25.9861 1974 31.5686C1944.89 47.3796 1914.63 61.0654 1885.08 76.053C1876.73 80.2883 1848.21 92.2341 1864 102M2011.58 64.3069C2015.37 65.1716 2015.06 72.1689 2015.82 75.1362C2018.26 84.6211 2024.54 106.467 2021.88 115.802C2020.43 120.909 2011.22 122.564 2007 124.531C1995.91 129.699 1968.63 148.845 1956.5 146.238C1951.88 145.244 1944.28 104.202 1945.98 99.1868C1947.76 93.9211 1956.59 92.2449 1961 89.9583C1971.68 84.4177 1999.63 61.5833 2011.58 64.3069M948 97C941.436 103.433 923.343 101.049 914 102.36C885.399 106.372 856.093 104.918 831.217 122.216C805.894 139.826 802.237 173.072 791.179 200C786.603 211.142 778.13 226.94 778.084 239C778.05 248.138 783.043 268.379 788.712 275.561C802.407 292.911 816.871 293.067 837 295.318C872.342 299.272 910.419 298.311 941.864 279.543C988.182 251.898 987.634 188.679 973.805 144C971.022 135.009 952.818 117.135 954.315 108.58C954.894 105.271 967.33 107.975 970 108C965.579 101.468 954.428 102.361 948 97M966 138C957.381 136.249 949.089 131.098 940 132.069C934.23 132.685 929.848 138.354 924.217 138.351C914.756 138.345 908.172 133.317 898 136.568C863.444 147.611 834.412 191.787 841.341 228.136C850.772 277.611 920.784 258.571 941.352 228.981C952.63 212.757 960.127 189.299 951.778 170.04C948.689 162.913 932.901 148.629 934.584 140.853C936.741 130.893 956.911 137.44 961.444 141.76C971.666 151.502 976.542 177.413 977.782 191C984.068 259.886 922.952 297.869 860 291.32C822.447 287.414 782.206 290.22 783.229 239C783.496 225.659 791.681 211.264 796.312 199C807.907 168.292 812.807 136.133 844.217 119.442C860.722 110.672 874.735 114.23 892 112.901C906.957 111.749 930.336 96.1545 945.485 106.365C950.343 109.64 954.554 118.141 957.823 123C961.022 127.755 964.084 132.583 966 138M1318 111C1312.79 113.41 1284.92 132.958 1303.44 136.754C1314.78 139.076 1317.11 117.642 1318 111M1313 122C1310.75 133.845 1298.61 127.133 1313 122M1246 127C1227.19 127.031 1214.6 141.669 1201.99 153.924C1200.5 155.372 1188.12 165.068 1190.97 167.464C1193.31 169.435 1202.41 159.43 1204 157.922C1215.17 147.317 1237.63 137.906 1246 127M907 140C899.596 147.675 867.758 180.457 883 192C883.003 170.676 905.006 127.574 930.949 146.782C967.03 173.496 948.839 217.621 921.438 240.165C908.532 250.783 883.574 260.951 867 252.97C826.501 233.468 848.829 180.249 872.865 157.57C881.278 149.631 894.456 138.13 907 140M969 143C969.89 145.302 970.14 146.55 970 149C968.712 146.762 968.388 145.512 969 143M139 239C138.972 220.559 135.051 202.333 133.915 184C133.588 178.736 132.45 168.985 126.855 166.785C113.125 161.386 89.7497 169.298 75 169.896C73.1394 169.971 56.879 166.73 59.5439 171.705C61.621 175.584 71.4144 174.088 75 173.959C84.8255 173.606 121.292 165.088 126.315 174.287C133.204 186.906 131.466 215.234 133.302 230C133.658 232.864 132.695 247.274 136.501 247.367C143.439 247.536 154.59 235.667 158.764 231C175.355 212.448 191.489 193.364 205.855 173C207.993 169.968 224.423 147.619 223.038 146.628C217.312 142.533 205.602 165.34 203.218 169C190.302 188.832 162.517 232.234 139 239M447 248C442.158 228.635 440.003 206.876 437 187C436.32 182.497 434.659 168.342 428.776 167.323C421.737 166.104 426.296 191.984 430 195C430 188.926 430.062 183 429 177C439.59 188.229 438.101 224.506 441.103 240C441.751 243.346 441.151 258.957 445.087 259.677C448.683 260.334 451.453 249.408 452.393 247C458.078 232.437 463.154 216.939 467.761 202C471.057 191.313 471.991 166.609 480.035 158.862C483.734 155.299 498.806 159 504 159C527.666 159 552.547 164.119 576 161.775C592.512 160.125 609.755 154.338 626 156.801C629.009 157.258 638.997 158.124 638.997 152.979C638.997 145.994 605.943 152.778 602 153.019C570.212 154.965 539.671 152.644 508 153.915C499.796 154.244 484.691 148.641 477.416 152.477C470.819 155.956 469.746 174.352 468.715 181C465.457 202.002 455.953 228.773 447 248M1226 235C1250.55 217.17 1267.61 194.451 1288.21 172.399C1290.63 169.808 1309.05 155.426 1306.71 153.38C1303.12 150.235 1288.13 166.19 1285.82 168.682C1272 183.574 1259.36 199.603 1245 213.981C1238.48 220.508 1227.93 225.505 1226 235M1205 198C1217.08 201.688 1236.18 177.512 1244.96 170.623C1246.95 169.06 1257.23 163.029 1256.68 160.312C1255.59 155.017 1238.72 169.147 1237 170.605C1232.79 174.18 1228.91 178.097 1225 182C1218.73 188.267 1212.49 193.293 1205 198M413 174C413.358 176.876 413.741 178.183 416 180C416.389 176.739 416.311 174.973 413 174M898 175C895.441 183.365 884.902 187.608 883.642 195.99C881.888 207.659 897.391 202.272 901.065 196.785C904.772 191.25 900.388 181.321 900 175L898 175M97.487 184.367C96.6058 184.971 82.3279 195.349 81.9099 196.39C80.2338 200.564 80.1787 216.019 87.9682 212.311C94.3147 209.29 99.3474 199.64 100.499 193C100.763 191.48 101.69 181.485 97.487 184.367M1605 207C1604.42 202.305 1606.68 187.985 1603.04 185.103C1597.9 181.048 1589.1 196.407 1590.18 200.812C1591.57 206.448 1600.52 206.199 1605 207M1260 264C1280.17 248.929 1296.66 223.923 1313.36 204.982C1315.61 202.429 1332.44 189.291 1328.01 185.408C1325.09 182.86 1311.25 199.667 1309.12 202C1295.53 216.833 1263.11 243.776 1260 264M413 189L414 190L413 189M895 191C893.231 194.453 892 196.142 888 196C889.769 192.547 891 190.858 895 191M1601 194C1599.93 194.599 1599.26 194.753 1598 195L1598 193C1599.8 193 1599.52 193.015 1601 194M2007 221C2007.55 213.662 2017.04 205.392 2012.62 198.287C2007.24 189.655 1987.48 205.969 1992.17 215.686C1993.04 217.474 2003.08 217.722 2007 221M88 205C87.5176 207.364 87.364 207.518 85 208C85.8993 205.876 85.8763 205.899 88 205M540 210L532 215C529.898 208.924 521.689 210.237 523.228 216.985C526.711 232.25 538.866 218.45 540 210M1573 220C1575.73 222.756 1578.05 222.227 1581 220C1578.02 219.293 1575.98 219.293 1573 220M1557 228C1579.08 234.795 1603.5 233.867 1626 237.405C1629.08 237.889 1647.71 241.895 1646.56 235.155C1645.89 231.21 1629.56 232.175 1626 231.647C1609.91 229.259 1593.31 228.491 1577 226.838C1569.34 226.061 1563.65 221.947 1557 228M2009 349L2010 350L2009 349M242 436C246.143 422.272 263.207 383.669 235.001 407.86C231.923 410.5 228.919 413.185 226 416C228.3 391.306 215.051 395.452 200.516 410.401C186.179 425.146 172.44 445.158 162.228 462.997C156.924 472.263 153.396 484.053 142 478C137.401 508.036 126.24 533.699 106 556C110.018 556.862 113.9 556.994 118 557C116.988 551.625 119.034 548.536 123 545C121.443 555.448 113.948 571.103 117.509 581.719C119.446 587.492 130.42 586.608 134.081 591.626C138.154 597.207 129.2 612.179 127.401 618C125.923 622.785 115.476 645.581 126.062 645.751C137.139 645.928 146.296 622.036 151.798 614.562C153.823 611.811 156.2 603.345 160.839 604.969C167.438 607.281 159.42 617.582 159.397 621.783C159.296 640.192 150.935 660.651 147.544 679C146.911 682.422 141.434 699.413 147.277 700.717C153.665 702.144 160.062 685.163 162.184 681C173.653 658.505 185.472 636.19 195.529 613C204.509 592.296 215.115 572.408 224.659 552C228.299 544.216 232.488 529.215 239.413 523.942C246.023 518.91 270.075 522.01 279 521.217C281.626 520.984 289.709 522.278 290.945 519.178C292.806 514.509 285.793 500.677 285.225 495C282.895 471.698 281.064 449.901 291.169 429C292.309 426.641 303.349 408.643 299.597 408.643C293.823 408.643 289.796 420.883 287.642 425C279.662 440.252 274.397 451.869 258 459C265.392 440.17 274.559 419.878 284 402C285.093 399.93 293.116 384.046 287.638 384.224C282.1 384.403 277.672 392.893 274.5 396.562C264.394 408.251 256.458 429.415 242 436M2000 383C2003.28 401.329 2010.09 385.697 2000 383M2082 383L2085 384L2082 383M284 395C274.541 417.983 261.4 467.746 233 470C235.48 466.011 238.415 464.66 243 464L243 461C234.674 458.747 243.362 447.564 246.46 443.438C256.638 429.879 267.332 401.038 284 395M220.609 401.065C225.265 401.192 221.008 425.297 219.377 428.791C215.292 437.536 207.155 423.518 203.822 429.429C200.549 435.234 202.714 446.385 201.594 453C199.956 462.672 193.849 472.276 189.569 481C187.784 484.639 184.68 495.369 179.801 495.314C175.226 495.263 155.991 487.812 155.544 482.813C155.027 477.047 162.323 469.516 165.217 465.001C175.351 449.185 186.3 433.795 197.917 419C202.162 413.593 212.878 400.853 220.609 401.065M247 403C248.523 410.902 241.578 446.357 231.093 446.357C225.211 446.357 220.446 436.848 222.33 432C226.911 420.216 236.996 410.253 247 403M205 447C208.761 425.754 216.467 439.828 205 447M201 470C203.95 461.415 205.696 451.993 213 446C212.726 449.47 211.908 452.647 211 456C214.22 451.188 215.769 446.789 216 441C236.237 449.157 212.93 466.977 201 470M241 517C250.495 501.937 260.034 486.865 268.161 471C269.589 468.212 273.188 456.003 276.863 456.003C280.618 456.003 279.985 465.744 279.997 468C280.06 479.496 279.65 490.659 281.683 502C282.238 505.093 285.856 512.408 284.402 515.178C280.455 522.698 247.933 518.482 241 517M228 458C226.299 470.672 214.716 482.481 207.901 493C206.683 494.881 201.707 506.39 198.273 502.109C191.767 493.995 221.397 465.046 226 458L228 458M269 459C266.4 472.913 245.664 511.583 233 518C237.041 499.066 249.34 465.28 269 459M218 461C215.448 468.59 207.988 479.001 201 483C203.376 474.193 209.921 465.319 218 461M843 544C839.014 534.267 859.818 527.516 865.919 522.489C888.055 504.251 918.795 466.491 949 476C946.698 462.534 927.682 468.43 920 473.535C898.384 487.897 880.369 507.188 858.922 521.521C852.848 525.58 835.076 532.691 833.106 540.15C831.865 544.846 840.51 543.995 843 544M248 470C245.157 490.386 234.169 517.267 213 516C221.184 496.67 225.386 474.994 248 470M197 473C198.455 478.976 194.032 484.173 191 489C190.069 483.225 194.048 477.714 197 473M555 484C550.51 504.545 536.22 522.624 535 543C532.294 542.364 522.329 538.691 520.761 542.268C518.601 547.196 536.359 542.978 535.95 549.132C534.999 563.458 510.683 584.553 496.001 579.511C487.739 576.674 485.178 567.157 480 561C478.633 594.074 518.182 584.7 530.819 567C533.771 562.864 538.076 549.897 544.104 551.206C564.023 555.535 553.529 594.806 581 586.147C597.211 581.037 602.125 566.016 609.396 552.002C610.504 549.865 619.714 539.216 615.544 537.757C611.563 536.364 607.194 546.458 605.78 549C600.845 557.869 581.932 597.833 566.99 578.489C563.389 573.827 552.778 553.473 562.111 550.501C566.54 549.091 578.827 554.358 581.192 551.656C585.592 546.629 566.165 545.02 564 545C571.526 529.179 563.086 522.424 559.895 507.981C558.067 499.705 560.509 492.334 557 484L555 484M141 500C139.73 483.235 154.665 485.9 141 500M870 578C882.538 577.859 892.026 569.478 902 562.784C928.188 545.207 963.701 517.188 974 486C961.867 490.402 953.775 510.75 944.845 520.078C931.876 533.625 916.67 547.932 901 558.284C892.087 564.171 876.595 570.005 870 578M217 488C212.903 516.462 192.909 549.966 180.042 576C177.979 580.173 168.676 605.843 163.023 600.431C158.455 596.059 167.838 585.145 170.24 581.04C181.041 562.581 193.519 542.152 201 522C187.398 536.864 180.075 559.623 169.973 577C166.951 582.199 162.692 593.838 156.815 596.135C147.261 599.868 142.054 589.309 145.501 582C155.16 561.516 166.101 530.538 184 516C180.758 538.785 154.316 563.401 158 587C175.436 564.569 183.288 535.182 201 513L204 516C204.953 504.459 209.439 498.018 215 488L217 488M149 555L154 554C151.83 563.654 133.005 604.783 121.902 578.565C117.521 568.22 127.647 539.252 131.437 529C134.675 520.246 143.157 494.827 151.588 490.437C156.721 487.765 177.506 496.004 177.945 502.1C178.969 516.329 155.085 541.661 149 555M194 491C192.746 495.107 191.296 497.863 187 499C188.441 496.154 190.193 493.631 192 491L194 491M184 504C183.508 507.274 182.634 508.978 180 511C180.905 508.127 181.992 506.245 184 504M170 557C171.847 548.031 191.205 521.149 184 514C185.96 511.951 196.339 502.177 197.142 510.247C197.883 517.702 177.093 554.089 170 557M900.107 511.942C889.549 516.466 891.314 541.71 906.93 535.06C917.833 530.417 914.132 505.934 900.107 511.942M179 514C178.086 517.438 177.017 519.101 174 521C174.815 517.495 175.668 515.522 179 514M901 526C901.389 523.761 901.459 522.218 901 520C906.27 520.611 905.711 524.789 901 526M222 537C226.193 534.562 227.938 531.289 230 527C232.955 532.489 226.203 539.6 224.181 545.003C218.75 559.519 207.338 592.951 196 603C191.609 584.991 202.356 562.754 205.069 545C205.97 539.105 205.054 527.035 212 526C212.577 521.421 222.908 518.275 225.344 522.917C226.83 525.75 222.792 533.887 222 537M554 529C553.655 532.689 553.052 534.807 550 537C550.088 533.062 550.236 530.728 554 529M565 534C564.064 536.506 563.506 537.064 561 538L562 534L565 534M199 545C201.626 557.298 192.555 573.116 192.001 586C191.809 590.467 192.667 600.42 190.178 604.138C188.295 606.951 177.15 605.367 174.888 603.396C171.735 600.648 177.628 591.962 178.825 589C184.559 574.813 190.159 557.523 199 545M479 559L480 560L479 559M155 602C152.794 607.484 149.579 613.053 146.333 618C144.088 621.422 141.485 624.675 139.068 627.981C112.943 663.717 132.193 600.859 140.597 596.407C144.395 594.394 151.282 600.738 155 602M149 692C149.756 671.018 157.626 628.21 169.725 610.645C171.984 607.366 186.507 608.918 189.361 611.26C193.517 614.67 184.445 628.317 182.695 632C174.79 648.632 165.233 682.217 149 692M472.97 622.152C470.865 623.798 501.355 631.535 506 631.864C547.042 634.771 587.297 641.13 628 646.961C636.632 648.198 669.127 656.465 675.592 648.208C678.52 644.469 667.323 645 666 645C653.637 644.995 642.216 644.225 630 642.58C589.953 637.188 550.319 629.719 510 626.864C501.938 626.293 479.523 617.028 472.97 622.152M913 986L913 990L916 990L916 986L913 986M811 1269C811.902 1270.92 812.076 1271 814 1272C813.518 1269.64 813.364 1269.48 811 1269M383 1450L717 1450L717 1447C632.689 1447 544.862 1439.41 461 1446.78C442.591 1448.4 423.48 1447 405 1447C398.507 1447 387.841 1444.9 383 1450M750 1447L750 1450L943 1450C926.41 1444.38 902.518 1449.55 885 1448.96C839.974 1447.45 794.978 1447 750 1447M250 1449C277.325 1458.26 321.016 1450 350 1450L350 1448L250 1449M946 1449L949 1450L946 1449M959 1449C962.87 1450.31 966.945 1450 971 1450C967.13 1448.69 963.055 1449 959 1449M974.667 1449.33C974.222 1449.78 975.278 1449.72 975.333 1449.67C975.778 1449.22 974.722 1449.28 974.667 1449.33M385 1484L385 1486C467.988 1486 550.963 1488 634 1488L694 1488C700.322 1488 711.62 1490.3 716 1485L385 1484M751 1485L751 1488C854.675 1488 958.353 1486 1062 1486L1062 1484L751 1485M1295 1484L1295 1486L1298 1486L1298 1484L1295 1484M1299 1484L1299 1486L1303 1486L1303 1484L1299 1484M1313.33 1484.67C1313.28 1484.72 1313.22 1485.78 1313.67 1485.33C1313.72 1485.28 1313.78 1484.22 1313.33 1484.67M1318 1484L1318 1486L1333 1486L1333 1484L1318 1484M1335 1484L1335 1486L1339 1486L1339 1484L1335 1484M1343 1484L1343 1486L1449 1487L1449 1485L1343 1484M1484 1485C1500.22 1494.59 1542.21 1486.65 1561 1486.04C1623.2 1484.01 1685.76 1486 1748 1486L1748 1484C1660.24 1484 1571.52 1480.57 1484 1485M123 1530.62C119.477 1531.13 110.711 1530.94 108.386 1533.82C105.828 1537 112.074 1568.75 115.229 1571.67C118.856 1575.03 119.045 1567.68 118.709 1565.99C117.63 1560.56 112.606 1547.56 116.149 1542.68C123.518 1532.54 175.488 1536.21 181.178 1547.4C185.342 1555.58 182.058 1570.14 182.01 1579C181.908 1597.99 185.325 1616.3 185.01 1635.01C184.912 1640.86 186.787 1659.21 181.58 1662.74C167.7 1672.16 137.721 1646.47 123.174 1664.6C109.058 1682.2 124.382 1724.89 126.066 1745.01C126.503 1750.23 120.935 1765.18 125.878 1768.59C131.922 1772.77 132.999 1750.78 132.834 1748.01C131.712 1729.13 129.134 1710.67 125.455 1692.08C124.15 1685.48 122.233 1674.65 128.416 1669.82C133.562 1665.81 149.92 1667.63 156 1669.12C178.79 1674.72 197.597 1676.13 221 1676C230.346 1675.95 244.915 1671.5 253.499 1676.74C258.921 1680.06 255.043 1693.76 255.002 1699C254.831 1720.84 252.38 1743.26 253.476 1765C253.64 1768.24 246.852 1790.99 254.673 1789.56C259.318 1788.71 259.415 1767.09 259.782 1763C261.689 1741.75 259.587 1721.23 260.019 1700C260.181 1691.98 263.742 1679.87 260.178 1672.32C251.876 1654.73 208.068 1675.01 192.604 1663.75C186.534 1659.33 190.299 1642.3 191.058 1636C193.785 1613.38 188.948 1589.61 188.948 1567.02C188.948 1560.91 183.368 1549.2 187.3 1543.75C190.727 1539 215.254 1540.92 221 1541.56C253.57 1545.23 268.315 1551.82 264.441 1588C264.141 1590.8 263.869 1611.65 268.627 1609.89C271.836 1608.71 270 1596.83 270 1594C270 1581.49 274.218 1553.1 261.914 1545.8C236.93 1530.99 201.924 1539.6 175 1537.24C157.943 1535.75 140.575 1528.04 123 1530.62M465 1648C468.299 1633.42 480.972 1620.1 487.314 1606.54C491.196 1598.25 494.956 1588.65 497.922 1580C501.217 1570.39 504.263 1556.55 506.606 1546.74C507.06 1544.84 505.463 1539.92 502.724 1541.5C491.581 1547.96 495.308 1565.94 493.473 1576C490.205 1593.92 478.063 1609.69 470.672 1626C468.45 1630.9 453.054 1648.73 457.359 1653.9C460.137 1657.24 472.446 1650.24 476 1649.39C493.658 1645.13 513.757 1643.09 532 1642C529.924 1644.98 528.653 1647.43 528 1651C532.761 1650.4 536.204 1649 539 1645L534 1647C541.555 1633.94 586.863 1631.14 602 1631C586.467 1657.29 576.667 1686.81 561.218 1713.56C559.674 1716.24 550.24 1738.34 554.97 1736.89C561.453 1734.92 564.707 1718.52 567.668 1713.08C576.493 1696.87 586.593 1681.39 593.094 1663.96C596.699 1654.3 599.166 1638.51 607.5 1631.64C613.833 1626.42 636.632 1627.22 645 1626.86C647.707 1626.75 655.159 1625.95 655.155 1630.28C655.149 1636.82 646.367 1647.17 644.241 1654C635.011 1683.63 621.616 1711.83 607 1739C616.203 1738.92 621.939 1725.73 624.214 1718C630.803 1695.62 641.443 1672.63 650.307 1651C651.901 1647.11 665.447 1626.58 663.593 1624.24C659.243 1618.76 637.997 1623.34 632 1624.06C602.539 1627.61 572.802 1628.83 543 1634C558.949 1605.29 579.853 1570.16 587 1538C578.001 1540.2 572.991 1557.01 570.319 1565C563.501 1585.38 552.638 1614.67 538.556 1630.89C524.15 1647.49 484.633 1639.93 465 1648M2016 1582C2001.55 1618.33 1978.26 1650.13 1961.3 1685.68C1959.51 1689.44 1949.52 1719.88 1951.89 1721.38C1954.55 1723.05 1974.27 1702.79 1978.02 1700.28C2005.43 1681.95 2039.09 1657.19 2070 1646C2062.86 1658.88 2052.71 1683.44 2049.47 1698C2045.23 1717 2049.06 1729.72 2038.63 1747.96C2035.7 1753.09 2019.45 1775.72 2025.64 1781.03C2029.82 1784.62 2041.8 1771.99 2045 1769.64C2058.4 1759.75 2072.53 1750.44 2086.22 1740.96C2090.2 1738.2 2099.42 1734.8 2100.98 1729.82C2103.25 1722.58 2080.44 1739.13 2077.32 1741.51C2071.59 1745.88 2065.59 1750.12 2059.68 1754.24C2050.84 1760.39 2041.67 1767.25 2032 1772C2036.83 1759.32 2045.81 1748.67 2050.66 1736C2055.28 1723.95 2052.74 1711.28 2055.63 1699C2059.03 1684.53 2067.99 1671.9 2071.38 1657C2073.69 1646.85 2089.48 1634.9 2084.05 1623.57C2082.9 1621.18 2080.28 1622.67 2079.25 1624.31C2072.31 1635.35 2070.3 1639.59 2057.92 1647.29C2029.36 1665.06 1983.8 1679.81 1963 1707C1960.68 1676.7 1989.79 1645.35 2004.97 1621C2010.23 1612.57 2011.88 1601.95 2016.37 1593C2021.03 1583.72 2033.15 1567.19 2032 1557C2024.97 1561.48 2021.69 1570.3 2014.78 1575.56C1984.3 1598.76 1951.99 1622.94 1916 1637C1920.36 1624.69 1926.87 1613.11 1931.79 1601C1935.17 1592.7 1937.74 1584.08 1941.64 1576C1943.07 1573.05 1959.35 1540.15 1953.29 1541.32C1949.44 1542.07 1946.37 1555.7 1944.74 1559C1935.54 1577.72 1928.74 1597.07 1920.04 1616C1918.19 1620.03 1906.07 1639.29 1912.4 1642.37C1918.11 1645.14 1933.57 1634.21 1939.02 1631.54C1964.18 1619.19 1989.77 1588.62 2016 1582M216 1548C216.533 1554.09 218.24 1557.99 216 1564C226.435 1563.25 223.815 1551.14 216 1548M866 1615C868.083 1608.91 869.407 1604.51 870.184 1598C870.69 1593.76 872.82 1590.04 874.067 1586C874.686 1584 877.26 1564.78 872.523 1572.53C866.746 1581.98 868.352 1597.2 864.015 1607.21C862.819 1609.97 855.279 1616.94 857.407 1619.87C859.92 1623.33 873.158 1619.36 877 1619C876.359 1620.76 872.782 1627.99 876.439 1628.68C880.447 1629.43 882.385 1618.46 886.14 1616.82C893.988 1613.39 909.344 1615.16 918 1614.99C921.481 1614.92 933.506 1612.86 934.765 1617.5C938.695 1631.99 924.489 1650.21 917.924 1662.02C907.339 1681.06 900.753 1702.37 889.516 1721C881.58 1734.16 865.035 1755.86 864.237 1771.68C864.018 1776.02 874.453 1773.18 877 1773.36C885.037 1773.92 917.345 1766.16 921.486 1772.68C927.274 1781.8 904.648 1802.37 913.921 1809.97C917.529 1812.93 921.029 1806.62 921.696 1803.92C923.308 1797.39 926.325 1771.29 935.027 1771.73C957.06 1772.84 923.218 1806.35 930.337 1813.89C933.231 1816.96 938.481 1805.6 939.36 1803.86C945.935 1790.86 947.125 1777.55 955 1766C927.428 1762.64 899.721 1768.66 872 1767C889.637 1728.35 909.335 1690.65 929.081 1653C934.989 1641.74 937.52 1620.85 946 1613C933.44 1603.54 900.369 1611 885 1611C890.297 1598.04 896.952 1580.73 899 1567C878.405 1572.16 893.578 1609.85 866 1615M1727 1729C1708.43 1725.88 1688.53 1732.38 1672.26 1718.4C1662.49 1710 1664.89 1696.31 1663.88 1685C1661.84 1662.23 1660.22 1642.28 1662.04 1619.02C1663.33 1602.61 1671.58 1592.57 1655.82 1579.97C1640.56 1567.76 1616.84 1569.83 1599 1571.92C1593.83 1572.53 1589.41 1568.63 1584 1569.2C1567.99 1570.89 1563.55 1587.61 1565.92 1601C1571.75 1633.98 1608.38 1594.47 1618.47 1612.1C1624.54 1622.68 1621.73 1636.69 1622.5 1648C1623.9 1668.73 1624.8 1689.78 1628.89 1710.32C1630.25 1717.15 1628.24 1726.04 1632.72 1731.84C1649.76 1753.91 1698.02 1749.58 1721.93 1744.07C1726.63 1742.98 1734.47 1728.07 1730.17 1724.13C1725.71 1720.06 1725.15 1726.01 1727 1729M1603 1590C1605.58 1604.24 1585.77 1619.84 1573.6 1607.27C1565.08 1598.47 1571.5 1571.46 1586.06 1572.42C1600.43 1573.36 1592.34 1593.65 1603 1590M1724 1733C1720.2 1744.01 1711.2 1740.21 1701.92 1741.1C1683.89 1742.81 1648.31 1748.27 1636.26 1729.49C1633.05 1724.49 1635.36 1715.78 1633.83 1710C1625.34 1677.89 1633.85 1643.39 1623.03 1612.01C1620.1 1603.52 1594.99 1589.26 1601.33 1576.62C1605.29 1568.72 1645.97 1577.24 1651.94 1581.85C1667.42 1593.78 1657.08 1617.38 1655.8 1634C1654.13 1655.59 1650.98 1700.43 1665.49 1717.95C1678.82 1734.05 1705.19 1734.75 1724 1733M1243 1724C1247.21 1724.59 1249.92 1721.02 1254.03 1721.82C1270.28 1725.01 1281.6 1735.76 1300 1732.59C1348.82 1724.17 1368.08 1668.86 1344.22 1628.5C1342.01 1624.75 1330.96 1621.9 1327 1619.19C1299.28 1600.25 1280.06 1596.62 1251 1619.64C1241.28 1627.35 1233.02 1635.62 1227.59 1647C1219.01 1664.96 1228.74 1693.97 1233.38 1710.92C1235.2 1717.55 1248.05 1711.69 1243 1724M1307 1608C1301.39 1621.37 1290.36 1633.09 1282.21 1645C1276.59 1653.22 1269.41 1660.27 1263.72 1668.44C1259.62 1674.34 1246.65 1699 1239.06 1699C1230.48 1699 1227.78 1662.24 1229 1656C1234.63 1627.23 1278.91 1598.31 1307 1608M1294 1657C1290.49 1654.21 1287.3 1652.33 1283 1651C1285.83 1645.29 1305.54 1611.55 1311.59 1612.54C1333.48 1616.1 1299.27 1650.95 1294 1657M1325.31 1624.28C1343.14 1621.23 1346.71 1655.99 1348.88 1666C1355.08 1694.62 1327.57 1723.07 1300 1727.64C1293.25 1728.75 1253.51 1725.64 1255.62 1714.29C1258.56 1698.51 1283.34 1683.42 1291.71 1669.85C1299.15 1657.77 1306.25 1647.1 1315.35 1636C1317.77 1633.05 1321.26 1624.97 1325.31 1624.28M1276 1666C1282.67 1643.29 1299.17 1673.64 1276 1666M1272 1666C1274.63 1670.03 1278.71 1671.15 1283 1673C1277.16 1685.26 1264.27 1699.25 1254.72 1708.84C1250.78 1712.81 1243.1 1713.06 1242.57 1705.95C1241.69 1694.03 1264.38 1676.63 1270 1666L1272 1666M808 1776L808 1780C811.704 1779.02 811.704 1776.98 808 1776M436 1851C438.372 1851.82 440.487 1851.95 443 1852C440.629 1851.18 438.513 1851.05 436 1851M445 1851C448.281 1852.11 451.554 1852 455 1852C451.72 1850.89 448.446 1851 445 1851M461 1851C466.014 1852.7 471.751 1852 477 1852C471.986 1850.3 466.249 1851 461 1851M483 1851L484 1852L483 1851M1182 2118C1195.01 2114.47 1223.84 2112.48 1236.87 2116.5C1242.2 2118.15 1243.36 2124.93 1249 2127L1248 2117C1268.88 2119.96 1287.05 2119.05 1308 2119C1311.51 2118.99 1326.43 2119.33 1327.23 2114.64C1328.09 2109.64 1319.1 2100.05 1316.5 2096.04C1305.77 2079.54 1286.42 2064.84 1270.92 2052.88C1265.29 2048.54 1252.24 2041.42 1250.94 2033.98C1245.38 2002.27 1258.67 1960.42 1262.57 1929C1263.17 1924.12 1268.34 1896.36 1263.06 1895.32C1258.72 1894.46 1258.58 1928.97 1258.22 1933C1256.31 1954.52 1249.81 1974.99 1248.14 1997C1246.76 2015.26 1249.66 2038.75 1242.74 2055.92C1236.17 2072.23 1216.26 2095.67 1203.48 2107.62C1197.22 2113.47 1182.8 2107.33 1182 2118M1558 1937C1579.35 1938.47 1599.56 1937.36 1621 1934.7C1626.14 1934.06 1641.38 1931.23 1645.41 1935.08C1650.16 1939.62 1642.88 1966.16 1642.21 1973C1639 2005.84 1636.08 2041.11 1635.03 2074.02C1634.72 2083.53 1627.83 2099.12 1635 2106C1646.89 2065.36 1646.45 2015.36 1646.99 1972.98C1647.12 1962.57 1655.4 1941.82 1651.1 1932.57C1648.75 1927.52 1635.54 1929.98 1631 1930C1613.4 1930.1 1595.7 1935.06 1578 1934.99C1571.85 1934.96 1562.4 1931.68 1558 1937M1939 1941C1953.97 1933.69 1977.5 1938.09 1994 1940C1998.8 1940.56 2010.66 1941.23 2011.89 1947.03C2015.51 1964.13 2013.48 1981.82 2013 1999C2012.93 2001.67 2012.87 2015.29 2009.08 2014.56C2006.33 2014.02 2000.28 1999.97 1998.11 1997.08C1987.25 1982.65 1972.55 1970.91 1960 1958C1956.12 1954.01 1952.78 1945.44 1947 1945C1951.17 1972.11 2003.43 1986.62 2002.27 2015C2001.23 2040.59 1941.88 2052.18 1946 2081C1958.34 2076.36 1977.37 2078.51 1989.98 2081.47C1994 2082.41 2001.66 2093.27 2005.74 2089.68C2008.93 2086.87 2006.87 2070.8 2008.04 2066C2014.93 2037.79 2017.99 2011.15 2018.96 1982C2019.23 1973.93 2013.42 1954.44 2020 1949C2018.51 1945.85 2019.37 1931.85 2016.64 1931.32C2012.94 1930.6 2013.76 1939.24 2008.87 1939.1C1991.5 1938.6 1973.9 1933.99 1956 1934C1950.03 1934 1939.43 1932.99 1939 1941M185 2131C188.402 2122.9 184.774 2114.46 186.438 2106C192.768 2073.83 195.468 2038.73 207.336 2008C211.24 1997.89 223.451 1976.79 215 1967C212.008 1978.63 208.56 1989.53 204.763 2001C201.68 2010.31 198.729 2019.57 195.972 2028.98C193.062 2038.91 164.642 2039.13 157.483 2033.18C153.001 2029.45 154.23 2021.14 152.745 2016C148.074 1999.84 143.315 1983.32 139.162 1966.98C138.371 1963.87 139.633 1945.28 133.49 1948.09C127.315 1950.91 140.242 1989.3 142.177 1995C155.235 2033.49 145.232 2107.23 185 2131M832 1958C833.905 1961.37 836.477 1964.07 839 1967C851.392 1956.32 894.018 1962.79 909 1966C901.448 1981.94 901 1998.72 901 2016C901 2020.82 903.443 2035.09 899.858 2038.62C896.207 2042.21 883.798 2040 879 2040C877.017 2040 856.729 2040.76 858.761 2044.42C860.79 2048.07 893.502 2042.48 899.761 2045.14C905.141 2047.43 904.273 2056.18 905.46 2061C908.714 2074.22 919.926 2101.76 916.42 2114.84C914.982 2120.21 905.991 2117.18 902 2116.92C886.964 2115.96 871.114 2113.89 856 2112.32C853.445 2112.06 838.003 2111.04 838.003 2115.1C838.003 2121.38 852.113 2117.21 855 2117.06C871.896 2116.15 887.563 2119.54 904 2122.4C907.588 2123.02 917.752 2127.33 920.74 2124.66C926.924 2119.14 918.661 2098.62 917.513 2092C912.042 2060.45 902.518 2031.38 906.041 1998.68C906.706 1992.5 917.349 1965.88 913.06 1961.88C909.546 1958.6 897.672 1961.23 893 1960.86C872.808 1959.22 852.158 1958.11 832 1958M565 2082C541.263 2086.69 496.709 2084.02 478 2099C483.359 2102.64 491.991 2097.49 498 2096.53C516.144 2093.62 534.036 2094.71 552 2089.72C555.41 2088.77 572.791 2087.12 572.791 2083.75C572.791 2076.84 560.166 2071.28 555 2069.03C540.356 2062.65 517.864 2054.28 508.844 2040.09C505.811 2035.31 516.694 2024.79 519.328 2021.04C532.861 2001.78 548.856 1984.12 566 1968C561.213 1964.66 555.524 1967.59 550 1966.56C535.09 1963.78 524.43 1960.82 509 1960.99C506.185 1961.02 486.459 1958.66 489.106 1962.47C494.864 1970.74 525.857 1964.38 535.96 1967.42C538.506 1968.19 549.418 1971.53 549.499 1974.49C549.641 1979.67 540.456 1986.37 537.397 1990C527.586 2001.64 518.807 2013.56 510.037 2026C507.607 2029.45 500.993 2035.16 501.186 2039.6C501.402 2044.57 511.499 2049.68 514.981 2052.36C529.996 2063.95 552.095 2068.47 565 2082M1631 2082C1626.17 2084.26 1625.91 2089.94 1621.68 2092.96C1616.56 2096.62 1605.21 2098.59 1599 2100.13C1578.56 2105.23 1556.32 2083.84 1559.09 2063C1562.86 2034.55 1609.28 2009.52 1633 2024C1632.44 2007.96 1613.33 2011.82 1603 2015.67C1583.71 2022.88 1554.36 2042.17 1554.02 2065C1553.79 2080.42 1568.04 2102.93 1584 2105.59C1600.98 2108.43 1630.29 2101.67 1631 2082M1952 2075C1958.14 2057.73 1982.68 2043.52 1995.44 2030.82C1997.87 2028.4 2006.28 2016.91 2010.2 2018.68C2014.1 2020.45 2010.88 2029.19 2010.27 2032C2008.49 2040.3 2007.58 2075.09 2000.18 2079.1C1996.91 2080.87 1990.45 2077.41 1986.98 2076.91C1975.37 2075.22 1963.74 2075 1952 2075M180 2112C181.656 2114.88 181.619 2116.75 181 2120C160.571 2106.76 157.087 2058.88 157 2037C162.793 2038.01 188.975 2038.36 192.278 2041.72C194.49 2043.98 191.364 2051.24 191.083 2054C189.641 2068.16 183.612 2081.24 182.083 2095C181.706 2098.4 181.83 2110.98 180 2112M1321 2113C1304.98 2114.8 1265.36 2124.36 1251.83 2112.54C1248.21 2109.38 1251.71 2100.93 1252.36 2097C1253.85 2087.99 1243.06 2050.06 1251.82 2045.54C1256.42 2043.16 1268.95 2056.58 1272.08 2059.45C1289.15 2075.1 1313.37 2089.93 1321 2113M1242.74 2065.64C1250.35 2065.65 1247.29 2095.29 1246.26 2100C1242.9 2115.32 1227.75 2114.42 1214.03 2112.83C1201.98 2111.44 1229.53 2081.57 1233.64 2075.92C1235.59 2073.23 1238.86 2065.64 1242.74 2065.64M1685 2173L1685 2176L1687 2176L1687 2173L1685 2173z"/>
</svg>
