<?xml version="1.0" standalone="yes"?>
<svg xmlns="http://www.w3.org/2000/svg" width="2200" height="2200">
<path style="fill:#101010; stroke:none;" d="M476 69C480.438 61.7756 473.778 59.4475 476 69M932.438 72.259C914.745 82.178 900.712 102.088 908.199 123C910.219 128.644 921.766 137.938 920.134 143.684C918.543 149.281 896.792 153.253 897.323 155.771C898.645 162.037 924.804 147.486 929.783 150.63C970.94 176.617 1003.83 209.206 994.584 261C987.719 299.438 931.5 275.526 910.96 264.342C907.402 262.405 888.211 247.726 885.408 250.87C882.102 254.577 907.565 268.549 911 270.012C935.776 280.568 964.908 295.457 990.756 280.084C1000.88 274.064 999.901 258.93 1000.52 249C1002.62 215.1 991.764 190.298 963.68 170.446C957.102 165.797 934.242 153.318 933.302 144.961C932.811 140.599 944.871 135.413 948 133.473C957.705 127.458 973.523 112.105 971.213 99.0024C968.92 86.0002 946.733 64.2449 932.438 72.259M507 151C496.028 166.945 477.624 181.374 472.607 201C470.3 210.025 471.564 218.92 472.698 228C473.85 237.215 470.08 248.681 475.111 256.783C500.145 297.099 568.566 256.483 590.217 232.992C597.109 225.515 610.662 216.124 613 206C600.484 208.551 591.631 224.444 582.999 232.992C562.886 252.911 516.985 281.499 487.602 262.337C475.562 254.485 479.734 245.599 478.536 234C475.555 205.162 482.994 180.056 506.008 160.159C512.293 154.724 522.975 165.825 525.456 162.233C527.904 158.688 516.256 152.977 514 152C521.139 144.985 529.299 136.943 535.017 128.764C540.116 121.47 542.822 114.802 540.752 106C538.67 97.1445 530.829 77.9062 521.774 74.3003C495.853 63.9766 460.885 83.9011 473.965 114C476.886 120.722 482.498 126.593 487.569 131.764C493.457 137.768 499.095 147.927 507 151M937.999 76.0063C949.675 73.1047 967.346 90.6785 966.464 102C965.28 117.198 944.112 135.558 930.026 139.129C921.483 141.295 911.205 121.963 910.346 115C908.33 98.667 921.827 80.0254 937.999 76.0063M496.32 77.5569C531.443 69.1204 544.952 111.638 524.094 133.992C520.691 137.639 515.221 147 509.824 147.575C505.115 148.076 499.15 136.254 495.981 133.32C478.832 117.445 462.846 85.5972 496.32 77.5569M1932 139C1936.54 135.232 1938.58 128.872 1943.25 125.254C1954.55 116.515 1988.52 110.332 1990.68 129C1992.21 142.306 1999.03 169.059 1992.4 180.957C1980.3 202.688 1952.87 208.276 1946.54 236C1943.56 249.073 1943.9 270.665 1958.22 277.214C1964.11 279.909 1973.02 276.544 1978.02 281.061C1981.09 283.839 1982.43 299.357 1983.89 299.357C1990.62 299.357 1982.85 282.61 1989.17 280.501C1997.55 277.707 2034.16 283.002 2037.89 272.426C2039.85 266.883 2027.63 270.582 2026 270.975C2017.66 272.982 1986.77 282.555 1985.27 268.982C1983.53 253.27 1991.27 238.132 1993.52 223C1995.18 211.814 1994.12 195.147 1999.38 185.043C2007.09 170.263 2029.54 164.148 2027.18 143.04C2024.94 122.966 2003.52 126.59 1997.48 114.717C1993.72 107.326 2006.14 84.176 1999.19 79.5439C1996.64 77.8459 1993.01 109.53 1990.18 111.858C1978.28 121.652 1924.8 105.213 1932 139M98 271C105.673 246.594 100.659 218.893 106 194C122.517 201.858 153.42 196.393 172 197.963C177.76 198.449 191.887 198.572 196.06 202.821C200.318 207.155 196.385 214.791 198.302 219.919C200.167 224.91 203.686 223.421 206 220L202 220C204.463 215.266 202.875 209.472 205.3 205.284C215.931 186.923 221.031 221.169 222 225C230.372 216.759 230.777 198.164 229.677 187C229.439 184.586 229.597 174.643 225.861 174.643C221.277 174.643 224.651 191.07 221.753 194.362C206.21 212.016 205.251 174.271 204 168C194.314 172.448 204.657 190.567 196.643 195.082C191.582 197.933 181.544 193.526 176 193.114C159.176 191.863 120.35 198.089 106.412 189.533C102.452 187.102 104.005 178.922 104 175C103.983 161.354 100.922 147.659 102.298 134C102.529 131.705 103.684 117.205 99.0001 118.13C93.6327 119.189 97.9642 147.24 98.0817 152C98.8223 182.021 97.9609 211.138 96.9736 241C96.6779 249.946 90.6722 264.411 98 271M2001 176C2000.87 165.902 1988.26 129.943 1996.22 122.319C2003.95 114.916 2020.7 135.071 2022.35 141C2026.09 154.404 2010.72 169.264 2001 176M1583 269C1594.3 270.917 1600.81 255.931 1611 257.343C1633.55 260.466 1670.8 305.783 1696.31 279.304C1707.75 267.435 1692.55 231.494 1684.88 220.681C1682.08 216.726 1673.7 210.914 1673.28 205.993C1672.7 199.122 1689.32 184.031 1692.51 176.562C1703.13 151.708 1676.98 113.589 1649 123.807C1626.74 131.935 1613.79 168.127 1634.02 185.599C1638.38 189.362 1664.14 201.836 1661.68 208.196C1657.16 219.845 1633.75 231.319 1624 238.79C1620.76 241.274 1615.75 247.423 1611.18 246.717C1605.98 245.915 1598.65 225.803 1595.71 227.544C1587.51 232.399 1605.95 245.893 1604.22 251.774C1601.98 259.415 1588.47 263.84 1583 269M1320 273C1317.51 270.125 1311.26 267.305 1310.29 263.599C1309.6 260.964 1317.54 253.011 1314.26 251.759C1309.66 250.007 1307.13 259.336 1302.48 258.443C1287.24 255.513 1269.1 235.033 1255.86 226.803C1250.55 223.499 1242.84 220.216 1240.3 213.997C1237.7 207.592 1246.6 198.049 1249.75 193C1261.13 174.697 1283 139.673 1253 125.845C1205.07 103.754 1214.57 174.652 1219.7 196.981C1221.18 203.393 1230.91 207.87 1230.3 214.019C1227.91 238.305 1190.37 271.876 1226 292.172C1243.91 302.37 1280.45 292.293 1296.58 281.842C1300.67 279.19 1300.15 272.417 1304.62 270.296C1308.51 268.455 1315.1 273.843 1320 273M1647 129C1652.48 130.69 1656.5 125.959 1662 126.568C1671.61 127.632 1682.74 139.361 1687.64 147.078C1696.16 160.491 1685.14 199.758 1666.96 201.094C1661.04 201.529 1654.5 194.02 1650 190.905C1625.97 174.257 1624.13 147.263 1647 129M1239 128.435C1278.6 122.275 1257.2 173.757 1247.39 189C1245.24 192.345 1238.62 206.088 1234.74 206.511C1224.52 207.627 1221.4 187.833 1220.98 181C1219.72 160.657 1208.45 133.188 1239 128.435M1992 190C1991.96 201.116 1990.32 214.067 1988.3 225C1986.44 235.089 1985.91 266.027 1979.76 273.16C1973.08 280.899 1953.88 268.22 1951.69 261C1943.73 234.785 1966.09 197.656 1992 190M1614 252C1626.94 242.556 1639.68 232.479 1652.04 222.274C1655.95 219.042 1662.5 211.66 1668 212.028C1684.28 213.117 1701.06 262.766 1692.74 275.577C1688.7 281.803 1677.99 279.242 1672 279.04C1651.45 278.35 1629.42 265.359 1614 252M1234.46 220.025C1240.22 218.111 1255.62 232.207 1260 235.71C1275.09 247.781 1322.67 268.923 1282 283.576C1264.78 289.781 1235.77 297.866 1221.28 282.416C1208.86 269.168 1219.32 248.188 1225.45 235C1227.39 230.835 1229.52 221.663 1234.46 220.025M18 265L18 269C18.5073 267.307 18.5073 266.693 18 265M18 272L18 276C18.5073 274.307 18.5073 273.693 18 272M18 287L19 288L18 287M18 294L18 297C18.6961 295.446 18.6961 295.554 18 294M18.3333 301.667C18.2778 301.722 18.2222 302.778 18.6667 302.333C18.7222 302.278 18.7778 301.222 18.3333 301.667M18 305L18 310C18.6306 307.994 18.6307 307.006 18 305M18 316L18 323C18.8643 320.405 18.8643 318.595 18 316M56.6667 323.333C56.2225 323.777 57.2776 323.722 57.3333 323.667C57.7778 323.222 56.7222 323.278 56.6667 323.333M18 326L18 332C18.7546 329.697 18.7545 328.303 18 326M18.3333 339.667C18.2777 339.722 18.2224 340.778 18.6667 340.333C18.7222 340.278 18.7778 339.222 18.3333 339.667M18 345L18 348C18.6961 346.446 18.6961 346.554 18 345M18 387L19 388L18 387M18.3333 391.667C18.2778 391.722 18.2223 392.778 18.6667 392.333C18.7221 392.278 18.7779 391.222 18.3333 391.667M18 403L18 413C19.1535 409.592 19.1535 406.408 18 403M18 428L19 429L18 428M159 445C154.638 454.77 141.154 452.557 132.078 459.74C113.253 474.637 101.597 505.083 106.719 529C113.147 559.01 148.414 538.339 163.06 551.039C166.803 554.284 164.827 563.582 165.136 568C166.266 584.168 167.421 600.786 167 617C165.977 615.466 166.195 615.598 165 615C162.654 628.669 172.189 623.671 171.981 612C171.726 597.733 162.227 563.867 169.601 551.561C171.988 547.578 184.781 548.288 189 548.078C211.842 546.943 263.547 540.847 227.864 512.223C222.903 508.243 216.075 508.526 210 507.956C201.862 507.192 194.251 505.012 186 505C194.076 495.318 215.135 487.516 218.039 473.96C222.57 452.806 173.654 447.283 161 450C160.544 447.994 160.083 446.736 159 445M936 446C927.816 456.385 932.288 459.916 928.702 471C922.449 490.329 912.947 515.912 899.606 531.432C896.637 534.887 885.61 533.605 880.008 539.043C874.258 544.625 861.229 557.762 869.128 566.374C878.502 576.593 890.47 546.749 897.857 548.76C906.62 551.146 928.639 569.799 936.635 576.075C938.841 577.807 940.437 589.212 942.783 588.239C947.531 586.269 945.714 560.645 944.981 556C940.394 526.915 944.544 497.601 938.811 469C937.136 460.64 942.941 453.027 936 446M170 511C184.032 508.172 210.008 507.93 222.992 515.104C227.724 517.718 238.35 524.546 235.547 530.991C228.794 546.513 199.461 543.195 186 544.136C182.145 544.406 172.488 547.247 169.442 544.12C166.61 541.212 167.549 530.957 167.06 527C164.946 509.899 162.583 488.982 163.096 472C163.204 468.428 162.573 456.877 165.822 454.822C174.916 449.069 213.258 460.019 213.553 471.967C214.027 491.236 175.749 496.739 170 511M155.759 456.809C161.084 456.484 159.824 475.074 160.398 479C162.51 493.454 160.525 508.427 162 523C162.513 528.069 165.229 537.635 163.042 542.374C161.696 545.292 156.666 544.994 154 545.239C144.089 546.15 120.544 542.946 114.148 534.731C93.9547 508.794 127.244 458.548 155.759 456.809M503.796 458.406C500.171 461.549 515.609 484.142 517.84 488C521.627 494.549 533.08 509.384 532.26 516.882C530.797 530.258 519.857 536.077 526.229 552C528.553 557.808 540.007 577.23 548.499 571.031C564.92 559.044 538.707 528.746 538.979 516.912C539.318 502.195 565.654 487.768 564.814 471.148C564.575 466.405 558.329 467.013 555 467.001C541.2 466.95 530.122 463.238 517.001 461.321C515.069 461.038 504.511 457.786 503.796 458.406M1925 534C1925.27 529.572 1925.95 525.264 1927.2 521C1927.99 518.309 1928.86 515.661 1930.09 513.136C1941.05 490.591 1904.77 532.958 1924.14 537.352C1938.6 540.632 1951.77 512.411 1961 505C1960.48 510.482 1958.83 515.604 1957.9 521C1955.57 534.454 1963.5 539.318 1974 529.842C1987.43 517.718 1996.36 498.063 2011 488C2006.45 497.454 1999.73 508.615 1998.09 519C1996.84 526.889 2000.15 535.807 1998.62 543C1994.98 560.083 1983.73 580.901 1976.41 596.864C1974.41 601.242 1963.38 628.782 1969.43 630.788C1974.66 632.52 1975.6 617.197 1976.44 614C1981.21 595.674 1989.37 574.554 1998.76 558.029C2003.11 550.376 2015.72 547.36 2024 547.043C2026.59 546.944 2035.71 548.64 2036.89 545.524C2038.34 541.734 2029.73 541.999 2028 541.867C2019.24 541.194 2005.77 540.112 2003.65 528.974C2001.09 515.52 2013.42 490.742 2019.65 479.078C2023.05 472.712 2029.99 468.825 2029 461C2009.94 471.792 1997.17 499.226 1981.96 515C1979.47 517.579 1967.21 532.884 1963.26 529.031C1952.31 518.347 1976.19 484.228 1982.08 476C1983.07 474.611 1993.44 462.359 1988.31 461.504C1983.45 460.692 1975.44 477.578 1972.72 481C1959.56 497.587 1944.98 525.242 1925 534M1608 525C1596.55 553.259 1601.39 583.664 1589.66 608.999C1586.41 616.038 1571.76 632.77 1580 639C1587.09 624.003 1594.16 600.735 1604.56 588.158C1613.41 577.451 1628.04 572.765 1637.19 561.136C1639.83 557.788 1651.41 535.27 1639.78 535.752C1621.45 536.511 1612.69 573.775 1599 582C1599.6 565.168 1603.85 535.284 1615.52 522.371C1628.64 507.852 1660.22 500.478 1654.72 473.027C1652.16 460.303 1639.18 471.138 1634.72 475.79C1625.91 484.979 1608.84 532.308 1592.14 521.159C1580.19 513.177 1591.04 488.359 1594.56 477.993C1595.09 476.423 1601.48 463.553 1597.01 464.323C1590.58 465.428 1588.94 481.11 1587.55 486C1581.84 506.114 1577.78 533.443 1608 525M518 472C510.614 469.182 516.211 464.502 518 472M525 471C523.702 480.11 514.741 474.399 525 471M553 479C550.57 469.178 561.108 473.423 553 479M1261 486C1259.72 469.093 1242.53 478.759 1234.14 484.486C1220.42 493.843 1212.83 515.765 1215.29 532C1217.84 548.783 1235.94 542.939 1243.99 534.98C1249.83 529.212 1253.07 521.38 1259 516C1261.41 525.77 1265.23 531.795 1273.86 537.166C1275.02 537.886 1287.76 544.901 1286.94 540.108C1286.33 536.585 1276.74 533.053 1274.02 531.274C1266.93 526.642 1261.7 517.692 1262.1 509C1262.71 495.759 1277.74 488.3 1281.91 477.03C1286.08 465.763 1270.88 474.818 1268.12 478.008C1265.76 480.738 1263.65 483.548 1261 486M1618 514C1621.33 501.205 1627.54 488.41 1637.09 479.119C1639.13 477.127 1646.58 469.998 1649.74 473.025C1653.3 476.431 1649.19 484.613 1647.61 488C1641.7 500.7 1631.99 510.807 1618 514M527 480C532.165 471.361 538.396 476.426 527 480M933.272 474.323C936.422 473.729 937.163 492.271 937.34 495C938.606 514.449 936.828 533.265 939.32 553C939.742 556.342 943.1 569.377 937.641 570.177C932.171 570.979 922.946 563.951 919 560.693C913.475 556.13 903.177 549.253 901.262 542C898.722 532.38 916.979 510.29 921.046 501C923.064 496.392 928.116 475.295 933.272 474.323M1265 489C1262.3 496.997 1257.02 503.917 1254.34 512.007C1251.61 520.263 1231.32 551.167 1221.26 534.675C1210.72 517.384 1231.98 483.626 1249.97 480.79C1261.63 478.952 1250.55 496 1254.12 498.357C1255 498.939 1262.22 489.662 1265 489M523 483C528.266 484.897 529.57 486.338 529 492C534.448 490.687 539.661 485.287 545.333 485.71C558.417 486.686 540.303 507.45 537 511C531.046 505.011 521.928 491.83 523 483M450.333 513.667C450.278 513.722 450.222 514.778 450.667 514.333C450.722 514.278 450.778 513.222 450.333 513.667M18.3333 516.667C18.2777 516.722 18.2224 517.778 18.6667 517.333C18.7222 517.278 18.7778 516.222 18.3333 516.667M535.71 525.507C544.331 526.261 550.133 565.997 544.499 565.997C529.858 565.997 521.555 524.269 535.71 525.507M890.748 537.426C899.29 538.346 881.04 563.636 873.486 562.577C866.709 561.628 883.365 536.63 890.748 537.426M1611 576C1614.01 565.783 1623.92 557.175 1630.44 549.008C1631.8 547.301 1636.75 540.059 1639.58 543.028C1647.74 551.578 1617.97 574.698 1611 576M591 553C590.014 554.479 590 554.203 590 556L593 556L591 553M18 572L18 587C19.5545 582.411 19.5546 576.589 18 572M18 611L18 619C18.9675 616.125 18.9675 613.876 18 611M18 628L18 651C20.1116 644.767 20.1117 634.233 18 628M18 653L19 654L18 653M18 656L18 692C20.9467 683.302 20.9467 664.698 18 656M18 694L18 715C19.9779 709.162 19.9778 699.838 18 694M18 752L18 904C22.1545 891.737 19 873.934 19 861L19 787C19 776.324 21.436 762.142 18 752M153 794.713C131.216 797.775 124.219 822.934 135.113 839.922C138.843 845.739 147.724 856.417 155.712 855.218C158.482 854.802 159.073 851.676 156.488 850.528C143.681 844.844 131.615 833.732 134.323 818C138.004 796.613 163.189 794.818 175.195 807.93C179.747 812.9 184.215 817.292 187.426 823.32C192.829 833.466 186.231 845.755 179.561 854C164.66 872.418 145.113 886.431 139.839 911C135.797 929.824 155.768 941.716 166.989 952.121C177.96 962.294 184.068 978.127 183.756 993C183.524 1004.08 168.092 1009.16 159.019 1005.79C148.421 1001.86 142.923 989.832 149.868 980.447C151.265 978.559 162.558 970.038 160.031 968.335C154.446 964.57 145.044 977.11 143.355 981.003C136.135 997.64 152.488 1013.76 169 1011.47C192.276 1008.25 190.748 988.723 185.772 971C179.329 948.054 145.218 939.532 144.351 915C144.018 905.568 151.189 894.766 156.037 887.136C166.467 870.722 184.863 860.792 192.254 842C201.128 819.437 175.661 791.528 153 794.713M519 807.675C486.629 814.957 528.194 852.965 529.978 867.454C530.495 871.651 523.608 878.147 521.811 882.007C517.864 890.488 518.161 900.36 521.479 908.999C526.716 922.636 553.202 932.258 554.685 944.003C556.739 960.266 507.23 967.857 532.691 989.938C535.219 992.13 537.779 993.751 541.008 994.694C545.247 995.933 549.608 996.802 554 996.039C589.402 989.886 562.095 961.346 565.245 942C567.25 929.688 579.28 919.194 570.86 905.136C566.022 897.059 559.685 886.741 552.856 880.261C549.857 877.416 540.948 874.342 539.754 870.403C538.326 865.694 548.48 856.904 550.036 852C557.059 829.864 546.657 801.453 519 807.675M2011 810C2013.71 821.91 2019.44 858.322 2010.18 868.381C2006.03 872.886 1991.08 876.641 1985 880C1991.93 858.117 2008.09 838.739 2010 815C2001.22 817.643 1997.98 838.99 1995.04 847C1985.27 873.645 1970.15 899.747 1952.67 922C1950.08 925.3 1934.63 941.383 1938.83 945.894C1941.54 948.805 1948.95 934.948 1950 933C1958.48 941.776 1975.55 934.429 1986.98 935.059C1999.51 935.749 2006.1 941.9 2016 946C2018.04 938.128 2030.92 943.59 2037 944C2054.69 945.193 2072.3 947.695 2090 948.818C2094.09 949.078 2106.13 949.907 2108.89 946.264C2110.89 943.63 2084.41 923.049 2081.45 919C2062.21 892.665 2047.74 862.725 2028.67 836C2023.34 828.545 2020.62 812.277 2011 810M519.003 812.467C538.508 808.646 547.344 821.159 546.981 839C546.833 846.306 545.789 860.189 536.677 862.167C526.224 864.436 499.883 816.214 519.003 812.467M1655 822C1646.7 832.365 1643.72 846.498 1637.28 858C1623.18 883.184 1607.24 907.431 1592.14 932C1584.82 943.908 1570.67 958.576 1574 973C1577.3 969.389 1578.88 963.072 1583.32 960.744C1594.51 954.865 1614.94 958.711 1627 959.783C1653.27 962.115 1679.67 963.411 1706 962.078C1714.96 961.624 1735.05 964.396 1742.41 958.74C1746.22 955.819 1736.12 927.991 1732.68 924.575C1702.38 894.491 1678.5 857.767 1655 822M87 827L90 829L87 827M964 844C965.498 861.197 938.832 852.938 927 851.279C889.668 846.044 854.814 829.542 816.003 836.508C811.104 837.387 805.671 828.542 803.714 830.106C799.919 833.14 802.326 843.824 802.519 848C803.379 866.586 809.273 884.203 809.79 902.997C810.305 921.731 808.995 940.231 809 959C809.001 962.877 807.052 975.35 809.753 977.982C814.03 982.15 833.046 979.059 839 978.993C869.251 978.656 900.876 975.059 931 972.22C937.699 971.589 959.523 977.535 963.722 972.178C970.118 964.018 964.44 945.774 962.538 936.783C958.417 917.31 965.618 888.844 967.14 869C967.852 859.724 978.316 849.463 964 844M1213 977C1220.66 967.753 1238.27 972 1250 972C1278.06 972 1305.97 972.15 1334 971.997C1342.48 971.951 1361.61 972.175 1368.07 965.976C1373.64 960.639 1365.54 954.477 1362 950.982C1349.03 938.184 1336.57 927.693 1326.77 912C1314.89 892.982 1299.9 871.338 1290.21 851C1288.57 847.552 1280.04 830.281 1276.21 830.786C1271.84 831.362 1264.99 859.153 1263.09 864C1251.86 892.66 1236.26 919.551 1222.57 947C1218.98 954.206 1207.94 969.682 1213 977M2020 831C2044.63 871.156 2070.48 909.988 2102 944C2077.49 944 2053.39 939.225 2029 939C2037.06 931.699 2051.38 933.238 2058.2 923.834C2069.69 907.995 2051.49 884.542 2037.78 878.457C2032.34 876.042 2022.98 875.688 2018.82 871.226C2013.95 865.994 2017.77 837.62 2020 831M1657 832C1660.64 842.147 1672.44 849.962 1678.54 859C1687.82 872.739 1693.67 888.411 1703.32 902.04C1710.95 912.814 1723.92 919.409 1731.1 930.079C1735.33 936.354 1735.97 946.748 1739 954C1714.17 960.337 1680.96 962.354 1656 956C1666.37 944.222 1686.72 949.48 1695.78 931.783C1717.43 889.488 1656.99 874.44 1629 882C1631.85 871.667 1647.28 836.403 1657 832M813.794 840.493C851.328 833.63 888.907 848.557 925 855.376C932.229 856.742 957.252 854.804 961.74 859.897C965.096 863.705 963.001 875.195 963 880C962.994 900.823 955.638 922.592 956.366 943C956.507 946.956 965.771 966.885 958.476 968.964C952.695 970.612 941.715 966.753 935 967.235C906.343 969.292 877.606 970.669 849 973.217C840.228 973.999 820.334 979.084 813.946 970.635C807.608 962.251 813.029 937.541 814.639 928C817.393 911.672 813.81 883.062 810.268 867C808.582 859.352 802.046 842.641 813.794 840.493M1276 841C1286.48 847.184 1293.57 863.644 1299.3 874C1310.65 894.52 1323.61 920.124 1340.05 936.981C1343.13 940.139 1368.53 959.404 1363.35 963.257C1356.04 968.697 1338.66 966.911 1330 967.007C1304.74 967.288 1279.21 967.174 1254 967.959C1248.82 968.12 1222.51 969.236 1221.22 963.716C1219.21 955.153 1232.88 935.297 1237.01 927.783C1252.29 900.026 1266.4 871.248 1276 841M534.097 874.961C548.951 873.374 568.687 904.706 567.863 917.001C567.508 922.295 566.619 937.073 558.891 937.383C544.03 937.978 523.774 910.231 523.238 897C522.993 890.939 526.566 875.766 534.097 874.961M2010 881C2012.46 885.169 2010.12 896.976 2009.56 902C2008.84 908.527 2013.76 926.935 2008.74 931.721C2003.97 936.268 1986.73 926.787 1983.53 922.893C1975.75 913.455 1978.51 895.926 1985.14 886.683C1988.74 881.675 2015.36 869.086 2010 881M2017 876C2032.87 878.82 2071.61 899.311 2054.83 921.495C2050.86 926.753 2022.56 939.667 2017.26 933.177C2009.18 923.282 2016.26 888.347 2017 876M1685 894C1683.69 896.663 1682.67 899.11 1682 902C1698.84 895.847 1693.14 933.37 1683.72 939.645C1676.33 944.573 1666.7 947.745 1658 949.399C1617.71 957.061 1597.92 890.405 1645 883.823C1650.4 883.069 1655.5 881.428 1661 882.467C1669.57 884.087 1677.72 889.459 1685 894M875 889C876.729 897.701 886.392 902.021 888.066 910.001C888.951 914.216 884.106 920.968 884 926C886.739 923.653 889.542 916.687 893.899 917.761C897.121 918.555 904.07 931.01 907.777 927.592C910.784 924.82 898.369 915.061 898.565 911C898.699 908.208 901.132 905.998 902.802 904C918.81 884.853 893.368 905.065 891.22 903.998C884.613 900.715 882.324 891.884 875 889M1976 897C1974.66 911.359 1976.38 919.363 1985 931C1974.67 930.804 1963.03 933.148 1953 931C1957.74 919.95 1967.29 905.262 1976 897M1658 905.507C1633.53 906.515 1619.07 924.235 1652 922.914C1657.42 922.697 1670.31 922.653 1673.6 917.152C1676.95 911.534 1661.86 905.349 1658 905.507M1301 931C1299.65 925.465 1291.15 914.344 1304 917C1300.89 906.32 1293.77 917.845 1287.9 915.009C1285.47 913.831 1280.18 906.589 1277.09 908.543C1273.63 910.727 1282.21 917.475 1283.16 919.136C1285.23 922.743 1281.3 926.911 1283.3 930.031C1281.99 927.987 1299.26 930.619 1301 931M1612 909C1612.05 933.024 1629.29 950.149 1652 954C1637.9 958.777 1598.51 957.396 1584 954C1593.32 940.133 1603.86 924.571 1610 909L1612 909M1668 916C1659.85 918.816 1641.79 919.225 1633 917C1641.47 907.768 1659.59 906.701 1668 916M18 912L18 919C18.8643 916.405 18.8643 914.595 18 912M18 935L19 936L18 935M559.273 950.283C562.999 949.869 565.165 961.4 566.051 964C570.15 976.038 567.529 989.823 553.003 991.201C517.588 994.56 538.551 952.583 559.273 950.283M1654 955.333C1654.89 955.333 1654.89 956.667 1654 956.667C1653.11 956.667 1653.11 955.333 1654 955.333M1692.19 1145.76C1689.47 1145.81 1690.33 1152.25 1692.9 1151.68C1695.26 1151.15 1694.64 1145.72 1692.19 1145.76M1924 1204C1928.74 1204.92 1931.68 1202.64 1936 1201C1926.24 1227.99 1925.13 1258.69 1917.54 1285.89C1913.96 1298.71 1893.57 1289.45 1902.17 1311.97C1903.77 1316.14 1908.62 1321.22 1913.56 1318.52C1920.82 1314.55 1917.84 1302.8 1926.06 1299.81C1952.94 1290.03 1985.91 1304.1 2003 1272C2007.56 1290.74 1991.09 1318.04 1990.08 1338C1989.68 1345.73 1991.89 1357.88 1986.82 1364.5C1983.9 1368.31 1974.69 1369.65 1970.32 1371.93C1956.21 1379.31 1952.53 1391.79 1955.26 1407C1960.62 1436.77 2031.24 1424.28 2027.08 1396.16C2026.46 1391.96 2023.11 1393.33 2021.8 1396.16C2013.94 1413.09 1981.75 1428.59 1965.14 1412.71C1947.52 1395.86 1969.87 1375.43 1986 1371C1986.53 1374.97 1985.43 1399.16 1988.61 1399.57C1998.54 1400.85 2006.21 1383.55 2004.53 1376.01C2003 1369.11 1994.89 1369.21 1993.53 1364.28C1989.63 1350.2 1996.62 1325.83 2000.18 1312C2009.12 1277.23 2016.52 1248.01 2031.32 1215C2033.74 1209.59 2045.58 1169.83 2032.98 1169.64C2028.51 1169.57 2024.51 1177.5 2023.47 1181.01C2019.03 1195.88 2017.79 1211.22 2011.72 1225.78C2006.74 1237.74 2008.01 1251.42 2003.34 1263C1992.4 1290.15 1961.01 1293 1936 1293L1938 1289C1934.6 1289 1925.81 1290.84 1923.82 1287.42C1919.73 1280.4 1924.05 1265.2 1926.08 1258C1933.15 1232.84 1937.45 1204.69 1950.96 1183C1955.9 1175.08 1964.62 1161.94 1961.51 1152.16C1959.43 1145.64 1954.08 1152.33 1951.98 1155.01C1945.42 1163.43 1944.2 1171.03 1941.26 1181C1937.92 1192.35 1930.21 1195.35 1924 1204M124 1396C125.319 1388.26 146.998 1364.69 155.079 1364.69C169.948 1364.68 201.867 1382.4 212.178 1360.58C217.263 1349.82 210.79 1340.01 209.235 1329.92C206.37 1311.33 208.144 1291.75 205.24 1273C204.067 1265.43 198.411 1252.77 200.286 1245.36C201.615 1240.1 217.008 1235.94 221.036 1230.77C226.201 1224.15 224.998 1211.86 217.933 1207.02C196.812 1192.56 198.005 1230.8 190.866 1239.18C187.058 1243.65 177.297 1240.03 172.922 1238.4C169.784 1237.22 166.711 1235.75 164.244 1233.44C158.229 1227.78 160.944 1219.31 161.002 1212C161.174 1190.11 179.171 1156.65 204.04 1155.15C222.985 1154.02 218.738 1178.25 230 1184C229.846 1167.37 217.779 1144.12 197.339 1152C177.441 1159.68 164.05 1176.61 159.151 1197C156.808 1206.75 153.09 1225.33 158.71 1234.05C167.505 1247.7 186.267 1239.6 193.998 1248.5C199.973 1255.38 200.83 1273.26 201.018 1282C201.44 1301.58 204.002 1321.62 206.705 1341C207.966 1350.05 207.151 1360.37 197.997 1364.77C190.713 1368.28 161.746 1366.84 157.595 1358.26C155.066 1353.04 159.359 1314.97 140.147 1329.63C121.342 1343.99 148.164 1351.83 146.921 1361.14C145.659 1370.6 108.189 1387.92 124 1396M1958 1154C1957.69 1164.35 1951.85 1174.71 1946 1183C1944.61 1172.32 1951.74 1163.01 1956 1154L1958 1154M1573 1228C1575.85 1218.19 1578.8 1183.72 1586.21 1178.16C1590.76 1174.74 1605.68 1180.94 1611 1182C1629.82 1185.76 1649.89 1188.22 1669 1190.09C1675.12 1190.7 1686.98 1187.78 1692.18 1191.46C1695.5 1193.81 1694.22 1236.64 1702.62 1233.24C1705.64 1232.02 1696.77 1198.37 1699.8 1192.28C1705 1181.83 1724.33 1193.9 1723.53 1173C1723.29 1166.55 1719.44 1156.07 1711.02 1158.08C1697.05 1161.42 1701.52 1180.54 1691.85 1184.82C1673.33 1193.01 1630.16 1181.12 1611 1176.5C1605.33 1175.14 1592.98 1174.94 1588.72 1171.04C1585.89 1168.45 1589.38 1162.11 1590 1159C1584.53 1162.63 1583.66 1169.5 1576 1169.91C1561.97 1170.67 1562.95 1160.77 1552.99 1157.97C1547.62 1156.46 1545.83 1163.35 1541.78 1165.18C1532.03 1169.59 1517.55 1170.31 1519.46 1186C1520.5 1194.63 1532.2 1211.84 1542 1209.64C1559.78 1205.64 1549.97 1183.94 1560.78 1175.08C1564.33 1172.17 1577.1 1172.86 1578.18 1178.15C1580.33 1188.68 1574.54 1213.54 1569.4 1222.97C1565.36 1230.4 1555.2 1228.64 1551.23 1236.06C1548.9 1240.41 1552 1249.24 1555.94 1251.99C1566.28 1259.21 1570.99 1234.24 1576.14 1232.62C1598.87 1225.49 1637.5 1241.68 1646.83 1263C1649.86 1269.94 1647.09 1278.74 1647.01 1286C1646.69 1315.01 1636.75 1351.66 1599 1339.84C1585.98 1335.77 1593.44 1306.06 1580.96 1307.77C1552.5 1311.66 1587.38 1342.51 1574.46 1350.61C1559.89 1359.74 1545.65 1347.92 1538.99 1335.44C1537.81 1333.22 1539.8 1324.64 1538.36 1324.43C1531.49 1323.39 1532.72 1332.59 1534.25 1336C1538.42 1345.29 1543.79 1352.48 1553.14 1357.12C1558.12 1359.6 1574.54 1358.7 1578.44 1354.71C1581.51 1351.56 1583.45 1342.19 1588.24 1341.58C1602.13 1339.79 1615.09 1351.57 1630 1342.77C1658.8 1325.77 1663.63 1266.36 1639.9 1244.35C1622.67 1228.35 1595.06 1228 1573 1228M1339.18 1159.9C1334.93 1161.1 1330.42 1166.97 1326 1166.65C1321.96 1166.35 1318.22 1161.62 1314 1160.63C1300.34 1157.4 1283.12 1163.58 1272.87 1172.76C1260.69 1183.65 1244.92 1202.65 1238.99 1218C1235.42 1227.24 1232.48 1248.99 1223.85 1254.36C1210.27 1262.82 1191.09 1258 1176 1258.01C1173 1258.01 1160.52 1257.59 1161.44 1262.99C1161.9 1265.71 1198.75 1260.47 1204.44 1263.82C1208.1 1265.98 1202.03 1276.53 1203.93 1281C1206.77 1287.73 1219.27 1293.92 1220.2 1299.26C1224.46 1323.76 1206.27 1356.21 1243 1363.97C1248.04 1365.04 1253.06 1365.36 1258 1363.7C1271.53 1359.14 1283.03 1353.37 1290.67 1341.1C1299.53 1326.9 1323.17 1323.34 1319.72 1301C1316.68 1281.39 1280.04 1257.79 1262 1255.43C1256.38 1254.7 1233.13 1254.81 1233.97 1247.93C1237.09 1222.23 1260.45 1184.82 1282.68 1172.02C1291.98 1166.66 1305.46 1160.13 1315.95 1166.37C1326.79 1172.82 1300.54 1208.01 1319.02 1208.11C1342.71 1208.23 1327.82 1180.96 1330.56 1172.08C1332.4 1166.11 1341.27 1166.51 1343.24 1161.7C1344.2 1159.37 1340.34 1159.58 1339.18 1159.9M867.491 1163.44C862.324 1164.42 868.226 1181.28 868.478 1184C869.181 1191.59 847.211 1225.7 867.923 1225.33C887.612 1224.97 871.722 1194.24 876.686 1187.66C896.21 1161.75 926.419 1172.45 953 1173.02C956.729 1173.1 981.173 1175.24 982.338 1177.5C983.995 1180.73 977.112 1190.42 976.156 1194C970.834 1213.93 960.698 1232.5 951.668 1251C949.132 1256.2 949.42 1268.33 943.251 1270.62C926.349 1276.89 894.766 1258.9 884.822 1284.02C873.806 1311.85 912.974 1335.07 903.532 1362.04C902.024 1366.35 896.588 1380 905.067 1380.31C914.748 1380.66 919.235 1365.49 919.583 1358C920.619 1335.77 927.829 1321.2 937.871 1300C940.601 1294.24 941.918 1282.84 947.556 1279.16C950.025 1277.55 953.294 1278.53 956 1278.78C959.97 1279.14 968.127 1277.59 969.963 1282.36C971.454 1286.24 964.951 1307.16 969.01 1306.57C976.194 1305.54 973.685 1285.2 978.586 1280.78C984.606 1275.34 995.004 1276.6 997.6 1266.57C999.141 1260.62 990.731 1259.59 987 1261.38C981.53 1264 958.943 1286.99 951.621 1271.4C948.599 1264.96 957.615 1250.65 960.28 1245C968.315 1227.98 974.755 1211.4 981.434 1194C983.597 1188.37 990.898 1179.36 990.419 1173.3C990.031 1168.39 970.956 1172.1 967 1170.98C947.642 1165.48 918.854 1161.37 899 1166.74C890.579 1169.03 882.786 1179.93 875.204 1180.92C866.245 1182.08 874.823 1162.04 867.491 1163.44M1549 1167C1551.35 1159.16 1557.95 1166.33 1549 1167M1711.99 1163.03C1721.81 1161.49 1720.69 1182.99 1710 1184.71C1693.73 1187.33 1702.56 1164.5 1711.99 1163.03M500 1241C516.561 1241.35 520.581 1222.16 533.257 1217.52C542.424 1214.16 556.861 1236.17 552.501 1244.12C548.079 1252.18 532.887 1255.6 525.236 1259.9C510.953 1267.93 487.736 1291.28 489.231 1309C491.072 1330.82 529.378 1329.26 532.757 1353.01C533.896 1361.01 480.98 1381.77 516 1394.63C549.556 1406.95 529.272 1368.61 541.498 1358.96C545.704 1355.64 575.54 1352.68 573.695 1343.95C572.973 1340.53 546.336 1353.04 541.127 1352.39C536.151 1351.76 533.898 1342.63 531.062 1339.15C522.597 1328.77 496.107 1321.36 494.025 1308C488.739 1274.07 545.397 1267.33 556.499 1246.84C565.89 1229.51 542.744 1223.2 539.633 1210.95C538.707 1207.31 542.81 1203.16 544.195 1200C547.707 1192 544.335 1159.95 529.218 1167.96C504.888 1180.85 533.348 1198.61 529.632 1213.22C526.248 1226.52 507.409 1231.13 500 1241M1544 1180C1545.46 1176.86 1546.06 1174.46 1546 1171C1561.46 1172.48 1552.47 1203.48 1541.05 1206.17C1516.07 1212.05 1526.52 1146.01 1544 1180M535 1208C526.839 1202.71 518.097 1179.54 529.127 1173.24C541.238 1166.31 543.208 1189.45 541.791 1195.98C540.773 1200.67 537.336 1203.95 535 1208M2032 1175C2037.07 1195.03 2025.16 1230.49 2011 1245C2012.29 1228.73 2022 1187.4 2032 1175M1324.51 1179.11C1330.97 1177.11 1329.42 1200.55 1320.16 1202.93C1311.44 1205.18 1319.52 1180.64 1324.51 1179.11M872 1193C872.652 1197.6 877.541 1222.11 866.984 1220.68C856.741 1219.29 868.032 1197.51 870 1193L872 1193M208.375 1209.05C216.892 1206.13 219.8 1218.07 218.708 1224C217.432 1230.93 208.336 1236.05 202.07 1237.95C192.796 1240.75 201.226 1211.5 208.375 1209.05M1951 1232C1955.07 1229.8 1957.44 1227.38 1959 1223C1954.67 1224.74 1952.91 1227.86 1951 1232M1567 1233C1563.62 1256.7 1544.82 1237.05 1567 1233M1293 1331C1295.93 1325.94 1296.44 1306.53 1285.98 1310.95C1262.21 1320.99 1295.02 1340.78 1271.86 1353.04C1232.73 1373.76 1210.64 1334.86 1225.48 1299.48C1228.29 1292.78 1242.6 1294.61 1245.1 1284.92C1247.25 1276.59 1231.95 1271.35 1230.26 1263.97C1227.63 1252.42 1262.4 1259.26 1268 1261.23C1282.01 1266.14 1307.82 1282.98 1313.45 1297.04C1318.21 1308.92 1306.61 1330.95 1293 1331M1226 1262L1221 1262C1222.9 1259.7 1224.15 1259.65 1226 1262M1215.09 1265.05C1227.81 1261.16 1223.76 1289.38 1219.51 1290.35C1209.47 1292.64 1203.03 1268.74 1215.09 1265.05M993 1265C990.821 1270.54 985.686 1273.1 980 1274C982.917 1268.73 986.988 1265.72 993 1265M1242 1283C1229.75 1301.98 1225.64 1283.68 1228 1271C1233.74 1273.38 1237.47 1278.93 1242 1283M942 1276C936.887 1293.44 926.673 1309 920.314 1326C918.869 1329.87 916.438 1341 910.998 1341C905.999 1341 903.805 1332.54 902.4 1329C898.333 1318.74 882.592 1298.46 888.267 1287.01C897.341 1268.7 926.12 1275.7 942 1276M1911.8 1294.71C1918.78 1294.71 1916.28 1313.51 1910.11 1313.51C1903.2 1313.51 1902.51 1294.72 1911.8 1294.71M1925 1294C1924.1 1295.92 1923.92 1296 1922 1297C1922.48 1294.64 1922.64 1294.48 1925 1294M1580.21 1314.1C1586.91 1312.21 1588.38 1331.04 1581.59 1332.85C1572.16 1335.37 1573.26 1316.07 1580.21 1314.1M1286.79 1316.11C1293.2 1314.51 1292.42 1331.13 1286.65 1332.78C1279.44 1334.84 1279.64 1317.89 1286.79 1316.11M145.195 1332.05C152.041 1330.11 157.68 1351.87 151.315 1353.86C140.308 1357.3 133.026 1335.48 145.195 1332.05M914 1354C913.999 1376.23 900.489 1375.17 912 1354L914 1354M535 1362C535 1368.73 537.421 1382.74 533.496 1388.4C529.06 1394.79 512.166 1391.12 510.127 1383.96C507.011 1373 526.967 1363.86 535 1362M1993 1391C1992.98 1386.89 1989.93 1375.27 1993.25 1372.33C1998.97 1367.27 1999.43 1385.82 1993 1391M914 1485C914.549 1513.88 904.539 1553.8 876 1569C877.389 1562.46 874.743 1558.27 874 1552C867.118 1554.73 872.931 1567.79 872.289 1574C872.065 1576.18 847.921 1616.32 870.927 1609.06C881.16 1605.83 875.893 1586.48 877.635 1579C879.813 1569.65 903.883 1537.77 912 1533C910.29 1563.99 903.916 1595.08 900.328 1626C897.529 1650.12 896.349 1677.4 886.383 1700C877.344 1720.5 871.039 1716.13 854.992 1708.71C850.829 1706.79 840.32 1704.86 839.925 1711.99C839.314 1723.01 860.261 1722.39 867 1723.21C878.871 1724.65 889.499 1733.97 901 1734.52C911.079 1734.99 937.592 1727.39 945.499 1732.34C952.288 1736.59 946.507 1763.9 945.91 1771C945.684 1773.7 942.274 1781.66 946.223 1782.89C951.026 1784.39 950.926 1773.49 950.982 1771C951.187 1762.01 949.659 1736.75 954.504 1729.68C958.146 1724.36 966.767 1724.32 971.139 1719.75C973.514 1717.27 973.348 1709.34 970.459 1707.26C960.033 1699.78 949.968 1723.22 941.979 1725.97C919.634 1733.67 899.18 1727.6 878 1721C906.833 1689.04 904.777 1632.65 909.04 1592C910.801 1575.2 915.806 1557.8 915.992 1541C916.121 1529.44 926.788 1490.17 914 1485M1244 1697C1237 1703.32 1230.73 1709.48 1228.4 1719C1226.76 1725.71 1229.1 1732.83 1237 1728.21C1255.63 1717.31 1246.75 1696.42 1265 1690.08C1269.58 1688.49 1281.87 1683.18 1286.18 1686.96C1291.96 1692.03 1286.19 1714.53 1302.85 1701.04C1315.95 1690.43 1291.21 1683.04 1299.07 1671C1305.68 1660.88 1316.99 1639.76 1327.56 1633.95C1334.85 1629.95 1342.34 1636.9 1350.65 1629.17C1364.5 1616.29 1343.82 1615.18 1335 1620C1336.96 1599.96 1335.33 1567.07 1350.4 1551.32C1355.09 1546.43 1362.42 1546.7 1367.68 1542.8C1371.92 1539.64 1372.96 1533.29 1367.85 1530.38C1351.73 1521.22 1346.4 1560.56 1330.48 1549.18C1324.31 1544.77 1311.47 1522.92 1317.72 1515.64C1321.18 1511.61 1340.62 1506.57 1338.03 1499.3C1335.98 1493.54 1325.91 1494.46 1322.2 1497.5C1317.48 1501.37 1316.51 1508.24 1311.63 1511.93C1294.8 1524.63 1266.99 1525.75 1247 1529C1249.04 1523.68 1275.2 1490.72 1252.02 1494.04C1239.07 1495.89 1243.5 1520.35 1240.22 1528.78C1236.12 1539.3 1223.71 1541.31 1218.21 1547.87C1214.33 1552.5 1202.44 1569.85 1200.73 1575.36C1199.09 1580.67 1203.81 1584.2 1198.37 1589.5C1191.8 1595.91 1173.85 1590.83 1176.34 1606.9C1179.92 1630.03 1206 1582 1207.32 1613C1207.59 1619.26 1205.16 1636.56 1198.33 1639.08C1194.34 1640.56 1164.43 1630.97 1169.4 1645.93C1175.24 1663.54 1193.08 1646.8 1201.72 1648.19C1206.8 1649 1212.4 1663.53 1213.37 1668C1216.4 1682.02 1168.03 1681.93 1184.82 1700.31C1194.12 1710.48 1206.29 1686.1 1214.04 1684.98C1223.57 1683.6 1235.37 1693.94 1244 1697M498 1562C498.572 1568.17 498.218 1573.83 498 1580C435.157 1545.76 515.243 1470.28 559.761 1509.74C571.005 1519.7 571.012 1532.43 572.217 1546C575.43 1582.17 563.044 1619.02 547.479 1651C542.521 1661.19 535.858 1684.46 524.047 1688.44C516.763 1690.89 514.228 1675.29 507.018 1674.41C499.649 1673.51 495.446 1683.87 497.604 1689.71C500.579 1697.75 514.487 1695.03 520.42 1697.7C525.625 1700.05 528.598 1705.68 534.003 1708.02C548.06 1714.11 569.057 1714.02 584 1713.55C592.397 1713.29 614.352 1702.5 621.355 1706.61C626.883 1709.87 625.681 1742.2 626.089 1749C626.225 1751.27 626.421 1762.28 630.647 1760.89C634.667 1759.57 632.105 1750 632.011 1747C631.638 1735.15 624.766 1716.42 629.822 1705.21C633.222 1697.66 644.155 1696.7 647.179 1687C648.978 1681.23 648.795 1671.9 641.919 1669.73C620.765 1663.07 628.873 1695.75 620.716 1700.1C595.215 1713.71 547.787 1711.54 525 1695C564.318 1664.14 577 1590.66 577 1544C577 1509.83 548.96 1485.48 515 1496.9C490.005 1505.31 457.724 1527.12 471.482 1559C476.542 1570.72 488.222 1575.69 495.196 1585.15C499.856 1591.47 481.99 1629.38 504.999 1621.85C525.894 1615.01 506.26 1596.93 504.16 1586C502.7 1578.4 508.072 1564.41 498 1562M1246 1521C1247.99 1488.51 1267.1 1505.11 1246 1521M1334 1499C1330.78 1503.89 1325.48 1507.16 1320 1509C1321.92 1501.71 1326.8 1499.18 1334 1499M1343 1554C1340.35 1568.8 1334.79 1582.97 1332.14 1598C1330.68 1606.23 1332.69 1616.43 1328.8 1624C1322.43 1636.41 1309.55 1650.97 1300.62 1662C1285.38 1680.82 1257.09 1698.91 1233 1686.9C1228.77 1684.78 1219.74 1683.02 1217.5 1678.34C1215.95 1675.13 1219.03 1670.74 1217.91 1666.99C1215.42 1658.62 1205.21 1648.48 1205.34 1640C1205.48 1630.59 1213.98 1622.79 1213.28 1613.02C1212.71 1605.05 1204.89 1599.36 1204.3 1592C1203.04 1576.27 1228.86 1538 1243.22 1533.16C1258.55 1527.98 1277.82 1528.57 1294 1523.85C1297.7 1522.77 1306.63 1517.29 1310.2 1519.44C1313.37 1521.36 1313.84 1529.69 1315.1 1533C1320.65 1547.52 1327.41 1555.6 1343 1554M1362.91 1533.89C1370.62 1533.58 1361.49 1543.35 1356.35 1542.9C1350.74 1542.4 1359.65 1534.02 1362.91 1533.89M115.041 1555.18C100.996 1561.74 101.099 1590.97 109.664 1601.67C114.166 1607.3 126.577 1612.41 125.608 1620.93C124.802 1628.01 98.1855 1626.47 100.323 1636.83C101.236 1641.26 124.155 1627.45 125.671 1638.09C126.646 1644.93 108.28 1653.79 106.249 1663C100.351 1689.77 136.424 1709.4 157.864 1700.05C164.44 1697.18 173.708 1689.41 174.794 1681.98C177.046 1666.57 167.586 1658.7 165.954 1644.98C163.18 1621.66 171.578 1598.7 159.897 1577.22C152.163 1562.99 132.546 1547.01 115.041 1555.18M121.019 1558.35C138.759 1555.77 154.708 1570.97 159.688 1587C161.267 1592.08 167.413 1609.9 157.658 1611.69C143.291 1614.33 121.734 1612.62 112.383 1597.95C105.837 1587.69 105.56 1560.6 121.019 1558.35M484 1586C482.429 1572.72 474.562 1579.79 484 1586M1391 1581L1391 1584L1393 1584L1393 1581L1391 1581M873 1586C872.455 1614.67 855.583 1595.63 873 1586M500 1592C505.989 1597.22 517.023 1625.69 499.483 1617.35C493.393 1614.46 497.893 1596.53 500 1592M1188.02 1597.48C1197.69 1595.34 1193.88 1606.35 1187.01 1607.61C1178.15 1609.22 1181.89 1598.84 1188.02 1597.48M148 1616C147.409 1618.46 146.994 1619.46 145 1621C145.757 1618.77 146.392 1617.72 148 1616M1351 1621C1337.03 1644.53 1328.71 1613.5 1351 1621M146.667 1630.67C146.722 1630.72 146.778 1631.78 146.333 1631.33C146.278 1631.28 146.222 1630.22 146.667 1630.67M150 1641C152.594 1653.19 168.763 1651.47 169.743 1668C170.019 1672.65 169.955 1680.59 168.181 1684.9C151.312 1725.91 89.5793 1672.39 118.396 1651.5C125.743 1646.18 140.889 1644.05 150 1641M1178.16 1642.47C1183.18 1641.14 1200.9 1645.09 1188.97 1648.71C1183.96 1650.22 1169.52 1644.76 1178.16 1642.47M637.971 1674.18C647.087 1672.39 641.52 1693.81 634.065 1695.67C626.241 1697.63 629.643 1675.83 637.971 1674.18M516 1693C495.631 1691.81 506.729 1670.73 516 1693M1205 1683C1203.15 1687.62 1197.07 1697.3 1191.28 1697.24C1185.57 1697.18 1189.38 1688.61 1192.29 1687.14C1196.19 1685.17 1200.92 1684.68 1205 1683M1292 1701C1292.18 1695.59 1292.3 1690.41 1292 1685C1304.38 1687.71 1304 1698.1 1292 1701M1232 1724C1233.08 1719.64 1239.48 1698.1 1247.18 1702.32C1257.15 1707.79 1236.99 1722.98 1232 1724M858 1718C852.405 1717.74 846.49 1716.49 844 1711C850.268 1711.6 854.165 1712.81 858 1718M954 1723C961.472 1707.21 971.111 1718.29 954 1723M384 1814C407.448 1821.94 442.255 1814.34 467 1815.1C534.378 1817.16 601.707 1815 669 1815C662.266 1810.78 653.46 1814.11 646 1813.82C626.361 1813.07 606.522 1812.01 587 1813.75C544.92 1817.48 499.229 1815.23 457 1813.43C434.783 1812.48 405.564 1808.54 384 1814M241 1814L241 1816L315 1816C325.375 1816 339.349 1818.28 349 1814C339.592 1811.14 325.95 1814 316 1814L241 1814M670 1813L670 1815C678.194 1815.49 685.816 1816.45 694 1815C687.77 1811.88 677.021 1813.18 670 1813M695 1813C699.73 1817.69 709.999 1816.42 716 1815C709.638 1812.58 701.772 1813.63 695 1813M751 1814C761.698 1820.7 786.46 1816 799 1816C841.063 1816 883.004 1815.06 925 1815L925 1813L751 1814M926 1813L926 1815L1041 1816L1041 1814L926 1813M1053 1816C1056.7 1815.55 1060.29 1815.88 1064 1816C1060.96 1812.56 1055.98 1812.48 1053 1816M1045 1814L1045 1816L1048 1816L1048 1814L1045 1814M1070.33 1814.67C1070.28 1814.72 1070.22 1815.78 1070.67 1815.33C1070.72 1815.28 1070.78 1814.22 1070.33 1814.67M212 2181C229.292 2186.86 255.705 2182 274 2182C256.69 2176.14 230.282 2180.97 212 2181M563 2181C576.586 2185.6 596.656 2182 611 2182L715 2182C703.437 2175.89 679.925 2180.42 667 2180.93C632.438 2182.29 597.562 2181 563 2181M751 2180L751 2182L824 2182C802.474 2174.71 773.673 2183.01 751 2180M176 2181L177 2182L176 2181M208.667 2181.33C208.222 2181.78 209.278 2181.72 209.333 2181.67C209.778 2181.22 208.722 2181.28 208.667 2181.33M276 2181L277 2182L276 2181M503.667 2181.33C503.222 2181.78 504.278 2181.72 504.333 2181.67C504.778 2181.22 503.722 2181.28 503.667 2181.33M525 2181L528 2182L525 2181M530 2181L533 2182L530 2181M540 2181L541 2182L540 2181M543 2181L544 2182L543 2181M547 2181C549.064 2181.72 550.804 2181.91 553 2182C550.936 2181.28 549.195 2181.09 547 2181M555.667 2181.33C555.222 2181.78 556.278 2181.72 556.333 2181.67C556.778 2181.22 555.722 2181.28 555.667 2181.33M825 2181C826.75 2181.64 828.127 2181.86 830 2182C828.25 2181.36 826.873 2181.14 825 2181z"/>
</svg>
