<?xml version="1.0" standalone="yes"?>
<svg xmlns="http://www.w3.org/2000/svg" width="2200" height="2200">
<path style="fill:#101010; stroke:none;" d="M193 16C204.468 19.8855 220.912 17 233 17C259.684 17 286.288 18 313 18C321.064 18 344.606 21.9248 350 16L193 16M383 16C387.825 21.439 398.526 18.7922 405 18.2173C422.093 16.6992 439.84 18 457 18C530.702 18 604.29 17 678 17C653.32 8.63794 614.165 16 588 16L383 16M693 16C695.064 16.7246 696.805 16.9094 699 17C696.936 16.2751 695.196 16.0906 693 16M1976 147C1979.98 153.209 1968.86 167.13 1965.03 173C1949.85 196.295 1934.21 219.171 1919.74 243C1916.71 248.008 1903.27 260.887 1905.44 266.698C1914.03 289.715 1941.33 317.16 1961.02 330.826C1966.25 334.455 1974.53 345.268 1981.79 343.776C1989.31 342.229 1997.29 326.089 2002.94 321.003C2027.02 299.345 2063.32 266.013 2076.99 236.922C2081.54 227.224 2080.38 216.165 2082.82 206C2093.68 160.688 2089.97 114.355 2098 69C2088.76 71.2019 2078.01 84.9702 2069 90.1997C2040.17 106.942 1999.15 123.329 1976 147M2093 79C2092.63 118.804 2091.42 166.012 2078.89 204C2076.23 212.072 2079.09 230.169 2071.88 235.972C2067.17 239.77 2059.13 226.77 2056.74 223.967C2046.85 212.392 2036.5 202.032 2027.14 190C2023.96 185.915 2016.96 180.828 2017.93 175C2019.83 163.596 2033.41 153.25 2040.52 145.019C2058.15 124.605 2078.39 102.891 2091 79L2093 79M2084 84C2076.27 107.389 2047.21 132.288 2031.29 151C2026.6 156.507 2021.07 169.379 2015.14 172.895C2010.19 175.834 1984.3 152.556 1983.79 147.028C1983.12 139.942 2000.9 133.168 2006 130.617C2031.59 117.805 2057.66 93.3589 2084 84M119 227C128.279 223.113 135.244 199.852 140.605 191C157.313 163.414 178.988 127.328 202 105C207.874 134.905 209.553 166.697 217.58 196C218.516 199.417 222.51 223.296 225.75 222.677C232.184 221.447 222.81 197.641 221.74 194C212.986 164.221 208.504 128.798 205 98C193.97 104.098 187.869 120.049 180.501 130.001C160.465 157.064 123.091 191.928 119 227M1548 213C1556.18 225.625 1577.93 220.38 1584.27 209C1598.69 183.105 1583.63 148.392 1603.58 124.041C1614.65 110.529 1658.37 95.7913 1636 124C1642.93 123.347 1657.1 111.444 1647.5 104.743C1636.82 97.2898 1613.84 108.96 1606.01 116.156C1588.32 132.4 1588.17 156.583 1586.12 179C1585.13 189.835 1583.76 207.461 1573.84 214.178C1565.09 220.107 1556.56 211.674 1548 213M239 149C250.151 146.686 272.805 125.09 278 115C264.362 120.725 245.899 135.833 239 149M946.992 120.627C927.314 125.032 907.49 126.959 887 125.922C882.034 125.671 866.953 121.947 863.26 125.958C858.145 131.512 865.153 152.935 865.783 160C868.508 190.586 866.513 220.521 871.999 251C873.04 256.781 870.685 274.02 874.899 277.908C878.092 280.854 889.751 278.999 894 279C910.986 279.005 937.366 279.463 953.54 275.281C962.238 273.032 963.249 243.306 964.562 236C969.425 208.937 970.998 181.852 971 154C971.001 146.337 974.819 133.377 971.682 126.369C968.125 118.423 954.101 119.036 946.992 120.627M254 157C262.086 157.746 285.43 131.483 290 124C276.435 128.215 260.726 144.791 254 157M876 130C899.553 127.164 923.002 132.022 946 124.957C949.955 123.741 963.064 121.849 965.41 126.494C967.653 130.935 959.748 136.877 957.081 139.491C949.82 146.604 925.864 172.133 915.823 172.005C905.886 171.878 881.647 138.236 876 130M952 206C927.017 206 895.377 207.962 871 213C871 193.131 870.587 172.789 868.782 153C868.295 147.666 863.424 135.508 866.601 130.829C870.832 124.6 876.073 135.197 877.913 137.487C885.379 146.782 908.321 163.239 909.685 174.957C910.538 182.28 891.249 194.442 886.438 199.189C885.565 200.05 877.928 205.995 879.316 207.149C882.287 209.621 906.68 183.472 911 180.983C919.162 176.281 947.532 198.57 952 206M1553 236C1564.38 254.292 1591.9 233.024 1599.9 221.993C1612.4 204.76 1602.92 187.395 1609.44 170.007C1618.59 145.625 1659.42 136.01 1682 136C1674.69 120.694 1632.06 143.388 1623 150.089C1616.59 154.827 1607.44 160.945 1605.06 169C1597.81 193.594 1609.48 229.575 1572 237.515C1565.58 238.874 1559.3 236.955 1553 236M967 136C966.974 153.473 966.534 171.621 964.562 189C964.143 192.696 965.612 203.385 962.06 205.592C958.774 207.635 954.132 202.146 952 200.328C946.678 195.791 918.286 182.521 919.323 175.059C919.883 171.032 928.015 166.621 931 164.389C942.665 155.668 954.338 142.741 967 136M1674 153.114C1662.11 152.377 1646.12 163.612 1643.11 175C1641.3 181.861 1638.01 195.948 1649.01 196.695C1661.11 197.516 1680.21 182.09 1685.27 172C1688.85 164.867 1682.03 153.612 1674 153.114M1981.62 155.187C1987.76 153.755 2011.43 174.288 2009.7 181.007C2007.07 191.217 1996.94 202.111 1991.3 211.001C1978.65 230.91 1966.93 251.275 1953.99 271C1950.34 276.568 1940.65 295.743 1933.69 296.677C1928.08 297.428 1909.7 268.099 1911.15 263C1919.03 235.27 1948.06 205.69 1963.13 181C1966.41 175.622 1975.24 156.673 1981.62 155.187M1673.96 157.043C1682.79 158.055 1682.21 168.497 1678.68 173.997C1673.59 181.901 1658.26 193.4 1648.11 191.673C1640.88 190.444 1643.8 180.484 1646.08 176.077C1650.18 168.129 1664.04 155.905 1673.96 157.043M1269 157C1268.06 187.03 1273.55 219.012 1276.22 249C1276.49 252.099 1277.78 277.357 1279.03 277.357C1284.27 277.357 1281 252.397 1281 249C1280.99 226.7 1277.13 204.197 1275.12 182C1274.48 174.945 1274.88 161.606 1269 157M1286 159C1281.2 189.988 1297 226.118 1297 258C1297 261.896 1295.57 286.357 1301.94 286.357C1302.46 286.357 1301.77 259.342 1301.43 256C1298.36 225.754 1299.46 187.331 1288 159L1286 159M1546 160.516C1539.7 160.906 1530.81 160.628 1527.39 167.069C1522.39 176.519 1522.27 199.556 1538 198.541C1560.04 197.119 1578.56 158.502 1546 160.516M180 162C177.016 184.505 175.068 207.365 173.922 230C173.759 233.23 170.423 249.755 175.177 250.677C180.574 251.723 179 233.808 179 231C179 214.486 189.875 175.153 180 162M1248 162C1241.73 191.526 1225.1 221.461 1208.93 247C1201.75 258.338 1185.25 274.031 1185 288C1215.47 262.789 1218.95 213.98 1246 188C1245.23 209.64 1243.06 230.169 1244 252C1244.11 254.48 1246.03 271.61 1249.91 270.677C1252.76 269.993 1247.25 248.292 1247.08 245C1245.78 219.483 1256.02 185.919 1250 162L1248 162M1541 173C1539.95 170.001 1538.19 168.285 1536 166C1539.28 164.973 1542.54 164.207 1546 164.097C1574.97 163.182 1549.36 200.752 1533.16 193.192C1522.05 188.008 1529.71 168.445 1541 173M554 170C541.169 181.102 532.163 178.006 516 179.136C481.795 181.528 444.861 169.734 411 177C415.668 183.735 436.103 181 444 181C466.777 181 489.264 183 512 183C519.294 183 534.123 180.151 540.518 183.822C545.619 186.75 533.008 202.966 530.797 206.32C518.625 224.789 508.374 246.006 498.957 266C497.372 269.367 488.594 283.334 492.308 286.614C498.433 292.021 524.471 263.63 529.008 259.758C554.129 238.312 582.117 219.934 609 200.819C619.936 193.043 630.947 181.084 645 181C641.062 171.775 629.708 178.979 622 178.999C605.634 179.043 589.371 177.491 573 178.04C568.137 178.204 558.075 181.33 553.775 178.46C551.805 177.146 554.408 172.204 554 170M626 182C619.707 192.488 604.827 199.481 595 206.361C574.357 220.811 553.47 235.481 534 251.509C522.923 260.629 510.544 276.012 497 281C502.99 255.911 521.992 231.468 534.198 209C537.985 202.031 542.54 186.857 550.062 183.395C568.63 174.849 605.597 182 626 182M2013.37 183.323C2018.61 182.653 2024.57 192.453 2027.2 196C2036.31 208.324 2047.53 219.296 2057.82 230.646C2061.05 234.208 2069.26 238.364 2068.68 244C2067.9 251.446 2054.09 260.856 2049.08 265.96C2031.68 283.674 2016.4 303.316 1999 321C1994.59 325.484 1987.36 337.595 1980.78 338.434C1973.72 339.334 1964.35 328.707 1959 324.977C1952.07 320.144 1936.79 310.806 1936.21 301.218C1935.83 294.998 1946.91 285.874 1950.28 281C1963.12 262.427 1976.64 243.002 1987.12 223C1990.92 215.759 2005.05 184.388 2013.37 183.323M413 188C416.065 194.762 428.652 199.171 435.019 202.821C454.082 213.752 480.689 240.577 503 242C496.878 234.904 486.89 230.86 479 225.924C460.656 214.446 435.035 189.978 413 188M472 191C479.153 198.29 500.108 209.989 510 212C505.695 203.012 481.923 188.977 472 191M454 193C459.012 203.827 494.486 221.44 506 224C499.021 212.03 467.59 195.232 454 193M403 203C410.482 210.412 421.287 214.398 430 220.224C448.224 232.409 473.518 258.1 496 260C490.901 252.296 479.67 248.814 472 244.141C456.956 234.978 442.714 224.296 428 214.614C420.877 209.926 412.007 201.785 403 203M872 215C894.426 218.763 916.048 210.395 938 210.005C945.189 209.877 954.109 206.625 960.558 211.529C964.212 214.308 961.77 221.228 961.315 225C960.169 234.506 960.076 264.311 953.043 270.74C948.598 274.803 933.069 270.51 927 271.361C914.927 273.055 891.875 282.447 880.604 273.689C876.656 270.622 878.165 263.379 877.521 259C875.369 244.359 872.138 229.886 872 215M2113 254L2114 255L2113 254M59 260L60 261L59 260M632 269C640.035 270.88 667.225 269.22 671 261C659.206 262.788 641.455 260.904 632 269M179 277L179 279C209.783 274.918 241.924 271 273 271L273 268C241.72 268 209.922 273.531 179 277M600 275C602.064 275.725 603.804 275.909 606 276C603.936 275.275 602.195 275.091 600 275M496 292C528.049 287.098 559.979 283.965 592 278C570.579 272.561 542.619 284.868 521 285.92C513.892 286.266 499.388 283.762 496 292M594.667 277.333C594.222 277.778 595.278 277.722 595.333 277.667C595.778 277.223 594.722 277.278 594.667 277.333M117 283C133.981 288.753 155.616 280.162 173 280L173 278C154.503 279.723 134.983 278.134 117 283M92 287L108 286C103.552 281.316 96.3433 283.045 92 287M109 286C111.157 285.503 113.01 284.958 115 284C112.122 283.237 110.869 283.706 109 286M1153 299L1153 301C1205.78 312.325 1270.82 307.051 1324 300C1317.13 292.255 1292.59 297.718 1283 298.04C1255.69 298.958 1229.44 301.881 1202 300.96C1186.18 300.429 1168.61 295.651 1153 299M1326 301L1327 302L1326 301M1318 313C1308.32 310.181 1295.91 314.417 1286 314.922C1261.11 316.189 1235.74 317.226 1211 320.302C1207.25 320.768 1178.64 319.698 1178.64 323.136C1178.64 327.353 1207.1 325.087 1211 324.68C1245.77 321.053 1284.4 323.389 1318 313M1247 441C1247.58 456.711 1257.15 470.827 1263.06 485C1271.58 505.435 1277.92 527.326 1282.44 549C1285.22 562.326 1289.1 578.364 1287.76 592C1286.62 603.513 1280.24 618.885 1283 630C1291.34 621.788 1291.87 602.216 1291.99 591C1292.4 554.282 1280.5 512.967 1264.72 480C1261.05 472.328 1253.42 442.947 1247 441M1160 578C1166.96 574.805 1168.07 560.74 1171.86 554.217C1184.69 532.171 1196.68 509.951 1211.24 489C1213.74 485.405 1232.46 467.619 1227.71 463.408C1223.82 459.956 1208.71 484.831 1206.55 488C1189.34 513.296 1163.47 547.03 1160 578M127 463C134.181 475.482 150.808 483.24 162 491.908C191.938 515.097 223.051 536.096 254 557.94C266.519 566.776 284.855 585.588 300 588C294.558 574.679 267.633 563.072 256 554.962C227.775 535.286 199.432 515.855 172 495.07C158.232 484.638 143.242 469.177 127 463M783 623C805.555 591.822 821.462 555.224 841.101 522C846.258 513.275 851.567 491.439 860.994 486.777C865.505 484.545 872.783 489.087 878 488C873.318 484.924 862.508 480.838 857.481 484.64C846.668 492.821 840.97 511.322 834.828 523C823.437 544.658 809.68 565.258 798.202 587C795.376 592.353 776.758 619.227 779.105 623.137C783.524 630.502 802.235 635.569 810 638.351C823.763 643.283 838.746 644.535 852 649.235C868.676 655.149 883.284 666.263 900 671.758C904.198 673.138 936.973 683.023 938.239 680.206C940.078 676.112 905.281 668.147 901 666.636C862.084 652.905 823.722 630.651 783 623M1989 483C1981.34 495.641 1980.87 514.696 1977.45 529C1971.2 555.151 1961.24 581.266 1957.83 608C1957.24 612.559 1951.96 647.997 1958.21 647.997C1961.14 647.997 1961.7 613.096 1962.34 608C1967.56 566.11 1982.04 524.413 1991 483L1989 483M1569 490C1610.65 489.202 1651.29 493.358 1693 494.962C1696.99 495.116 1731.76 497.991 1730.68 493.085C1730.09 490.413 1698.35 491.174 1694 490.672C1663.66 487.178 1631.59 485 1601 485C1591.99 485 1575.24 482.013 1569 490M882 489C886.431 494.643 893.327 499.37 900 502C896.288 495.771 888.896 491.07 882 489M1254.83 496.541C1247.91 498.997 1242.01 507.839 1236.96 512.882C1223.64 526.189 1209.28 538.553 1197.16 553C1195.66 554.784 1179.62 575.997 1185.2 575.997C1189.59 575.997 1198.21 559.354 1201.23 556C1215.32 540.321 1230.41 526.051 1245.86 511.804C1247.42 510.37 1262.08 493.969 1254.83 496.541M1567 497C1551.05 528.715 1542.62 567.78 1532.82 602C1531.53 606.49 1522.31 634.23 1530.24 635.677C1532.31 636.055 1535.82 606.997 1537.12 603C1547.89 569.797 1565.39 531.737 1569 497L1567 497M1663 568C1674.94 556.665 1682.4 539.173 1692.14 525.897C1698.36 517.413 1708.02 508.668 1710 498C1694.53 506.886 1682.31 533.473 1672.07 548C1667.95 553.842 1662.47 560.551 1663 568M901 502C905.917 506.445 911.496 507.759 918 508C913.23 504.308 906.917 502.793 901 502M574 512C566.367 494.802 545.312 507.443 534 512.803C507.516 525.352 461.233 560.598 454.505 591C447.342 623.369 478.395 642.35 504 651.679C516.838 656.356 533.22 664.971 547 663.856C595.588 659.923 628.096 614.352 614.241 570C609.876 556.026 603.522 544.104 592.894 533.761C588.726 529.705 556.784 510.322 574 512M2004 544C2004.8 549.397 2000.94 553.768 2000 559C2014.65 548.549 2026.75 530.726 2042 518.014C2043.65 516.64 2058.94 507.209 2054.57 505.273C2049.61 503.073 2042.89 511.644 2039.83 514.336C2029.18 523.693 2016.42 537.556 2004 544M555 524C569.19 514.079 580.37 528.984 590.743 539.267C612.406 560.741 623.712 595.224 606.565 623C580.392 665.399 539.94 659.32 501 645.643C480.612 638.482 453.835 621.749 457.419 596C461.818 564.4 502.855 537.088 527 520.691C532.266 517.115 552.146 504.029 558.472 507.568C563.323 510.282 556.328 520.583 555 524M922 508C928.502 515.809 951.919 533.672 962 532C956.807 523.964 931.493 508.402 922 508M1734 507C1717.75 530.493 1702.02 556.796 1688.46 582.001C1684.38 589.578 1674.4 600.381 1675 609C1694.91 590.498 1709.34 556.533 1723.04 533.016C1726.52 527.05 1737.8 513.615 1734 507M1941 508C1931.88 537.278 1922.5 577.591 1920.1 608C1919.82 611.556 1916.67 640.357 1921.06 640.357C1924.87 640.357 1923.88 612.68 1924.34 609C1928.42 576.41 1945.96 541.193 1943 508L1941 508M1671 610C1666.13 583.439 1632.44 556.571 1620.78 531.003C1619.51 528.209 1608.07 508.206 1605.3 511.098C1602.68 513.828 1615.82 531.424 1617.56 535C1627.55 555.466 1641.27 572.534 1654.45 591C1658.71 596.976 1663.55 608.237 1671 610M1596 510C1588.44 513.433 1587.32 525.762 1585.5 533C1580.3 553.588 1572.03 572.7 1569 594C1568.34 598.637 1564.55 618.815 1570.46 620.894C1571.23 621.167 1572.63 598.197 1573.37 594C1578.22 566.324 1594.97 537.658 1596 510M89 598C83.6492 602.034 73.8343 612.71 67.0805 613.081C62.1821 613.35 57.1814 605.172 53.9813 602.215C44.7287 593.664 33.3831 582.379 22 577C29.1918 593.626 63.8726 603.943 62 623C75.1464 620.883 88.3586 639.341 97.3202 647.283C121.653 668.846 151.162 699.126 180 714C175.091 705.333 164.969 699.889 157.68 693.3C138.308 675.789 117.646 660.006 97.9624 642.916C92.5089 638.181 72.1305 625.49 71.1994 618.62C70.1738 611.052 95.5584 598.328 101 594.356C131.693 571.951 160.397 546 189 521C178.858 519.708 168.086 534.292 161 540.42C139.464 559.045 116.137 582.425 91 596C89.5433 574.921 82.5038 553.799 78.8166 533C78.3699 530.48 77.5616 513.56 74.9556 514.081C70.241 515.025 74.8924 530.538 75.2174 534C76.6327 549.079 78.4188 587.309 89 598M849 585C850.786 598.545 829.899 611.591 833.884 622.93C837.2 632.367 853.908 627.22 861 628.851C867.593 630.368 872.477 636.057 879 637.533C900.343 642.364 926.198 633.677 946 625C941.719 634.956 924.002 665.396 935 674C938.201 661.549 939.858 648.88 945.342 637C946.775 633.896 951.843 627.327 949.577 623.822C945.133 616.947 922.708 627.127 917 629.019C891.293 637.538 885.314 631.234 861 625.453C855.257 624.088 843.673 627.409 838.977 623.322C833.247 618.335 866.857 591.305 849 584C864.709 561.553 891.843 547.708 908 525C905.686 549.206 902.269 573.629 902 598C901.965 601.157 896.769 618.478 898.691 619.257C901.796 620.517 913.47 601.737 915.39 599C927.783 581.34 939.676 564.299 956 549.942C958.637 547.622 970.864 539.38 967.961 535.01C966.446 532.729 947.864 551.61 945 554.218C939.023 559.658 933.858 565.561 929 572C921.785 581.564 915.109 594.302 906 602C906.284 571.291 910.788 542.587 917 513C907.728 516.297 900.826 527.173 894 534C879.828 548.173 862.758 559.749 849.129 574.041C846.893 576.386 828.983 591.46 829.761 593.2C832.796 599.987 846.793 586.67 849 585M50.8 526.625C46.828 528.726 53.2523 537.555 54.2363 540C59.9285 554.145 62.7032 568.453 69.9067 582.018C70.9489 583.981 76.6758 597.181 80.2483 594.464C83.5327 591.965 74.8825 582.442 73.7142 580C67.0515 566.074 63.1541 551.703 58.9194 537C58.1948 534.484 55.1581 524.32 50.8 526.625M1172 713C1154.69 665.734 1190.39 601.032 1222.04 568C1231.17 558.48 1239.48 548.181 1249 539.048C1250.26 537.836 1259.08 531.687 1256.07 529.484C1252.86 527.135 1248.41 534.186 1246.77 535.962C1238.38 545.069 1229.7 553.597 1221.55 562.981C1194.15 594.57 1170.78 630.574 1166.01 673C1164.8 683.751 1159.76 707.709 1172 713M101 626C111.849 623.794 121.086 612.373 129.136 605.26C146.911 589.554 166.244 575.456 183.562 559.359C190.476 552.932 204.406 547.547 208 539C195.438 541.425 184.557 553.301 175.32 561.522C159.297 575.782 142.173 588.93 126 603.061C118.639 609.492 104.801 616.93 101 626M542 540.486C524.588 543.225 493.494 558.688 488.596 577.32C482.778 599.456 510.96 629.616 533 626.518C551.706 623.888 574.144 614.101 582.751 595.992C596.47 567.128 575.238 535.257 542 540.486M1594.87 544.544C1590.97 547.178 1598.53 559.043 1599.62 562C1605.51 577.904 1609.12 594.942 1617.16 610C1618.64 612.763 1624.22 624.548 1628.53 622.496C1632.63 620.542 1622.86 610.277 1621.6 608C1613.14 592.748 1609.7 576.151 1603.66 560C1602.84 557.81 1598.86 541.841 1594.87 544.544M539 544.597C550.153 542.105 556.318 545.853 565.081 551.894C569.686 555.069 577.468 555.41 580.459 560.148C595.389 583.807 568.699 614.968 546 620.037C523.116 625.148 482.955 607.344 493.302 577C498.726 561.096 524.096 547.927 539 544.597M233.029 550.524C224.039 553.921 215.802 564.787 208 570.417C184.535 587.349 161.652 605.085 138 621.772C133.904 624.662 110.168 644.574 110.649 644.625C118.348 645.445 136.798 628.139 142.999 623.491C165.081 606.942 188.474 591.257 209.922 573.959C214.417 570.334 237.392 548.876 233.029 550.524M1900.85 550.813C1893.93 550.583 1868.16 564.52 1867.98 571.812C1867.82 578.462 1891.88 591.748 1897.87 591.926C1905.95 592.166 1909.9 551.114 1900.85 550.813M2026 559C2030.34 558.976 2036.96 556.302 2040.89 557.719C2056.8 563.449 2013.99 609.168 2016 569C2005.66 572.012 2013.5 587.729 2021 589.657C2034.13 593.031 2058.21 571.374 2048.54 558.023C2044.09 551.88 2028.25 550.335 2026 559M1897 568C1892.81 551.422 1905.51 560.455 1897 568M1891 560L1892 567C1886.84 565.35 1884.05 566.751 1879 568C1882.41 564.225 1886.22 561.724 1891 560M2016.67 563.333C2016.22 563.777 2017.28 563.722 2017.33 563.667C2017.78 563.222 2016.72 563.278 2016.67 563.333M534.079 566.411C518.951 570.862 522.705 599.346 539 594.821C544.542 593.282 554.673 589.852 556.719 583.842C560.065 574.012 542.29 563.996 534.079 566.411M1997 566C1986.23 589.347 2028.56 626.965 2036.27 649C2037.19 651.635 2046.65 673.26 2050.75 668.776C2052.68 666.666 2041.15 647.752 2039.58 644C2028.63 617.73 1999.58 595.541 1999 566L1997 566M1887 569.333C1887.89 569.333 1887.89 570.667 1887 570.667C1886.11 570.667 1886.11 569.333 1887 569.333M1899 570L1899 576C1895.25 574.995 1895.67 573.318 1897 570L1899 570M535.027 571.607C548.429 567.547 559.702 583.979 542 589.499C529.391 593.43 522.911 575.277 535.027 571.607M1877 574C1874.01 573.936 1872.65 574.054 1872 571C1874.6 571.497 1875.47 571.859 1877 574M237 654C236.922 634.558 233.999 615.008 234 595C234 592.61 235.898 576.826 232.016 578.106C227.63 579.551 230.001 593.311 230 597C229.996 609.812 221.956 647.435 237 654M1247.01 580.042C1238.42 583.613 1218.61 603.688 1229.42 613.197C1237.04 619.895 1256.7 615.412 1265 611.833C1286.73 602.469 1263.82 573.055 1247.01 580.042M1897 580C1897.44 582.973 1897.33 584.073 1895 586C1895.34 583.615 1895.77 582.061 1897 580M1247 591C1242.16 581.135 1255.31 582.352 1260.78 586.683C1284.16 605.21 1249.62 619.718 1233.25 611.937C1221.03 606.133 1239.87 591.432 1247 591M245 587C235.956 596.142 245.107 629.186 242.574 643C242.1 645.588 239.442 658.586 243.239 659.214C248.159 660.028 247.247 644.795 247.562 642C249.576 624.105 248.994 604.584 245 587M1702 622.438C1658.26 627.347 1613.24 628.444 1570 636.898C1565.8 637.719 1529.26 645.197 1530.76 648.771C1532.43 652.744 1566.68 641.818 1572 641.008C1607.31 635.633 1642.59 633.101 1678 628.698C1683.16 628.057 1709.74 629.139 1711.89 624.462C1713.43 621.138 1703.17 622.307 1702 622.438M1196 644C1211.67 647.667 1232.7 644 1249 644C1289.01 644 1329.02 643.369 1369 643C1365.7 634.918 1339.43 639 1331 639C1297.66 639 1264.28 639.816 1231 639.997C1221.9 640.047 1202.06 636.159 1196 644M442 806C451.02 820.364 478.267 823.602 485.497 838.54C487.441 842.557 474.142 857.901 469.915 857.783C458.688 857.47 443.665 839.325 434 834C439.863 847.278 460.745 850.515 466.582 862.579C468.054 865.621 455.879 881.16 452.646 881.28C443.284 881.628 425.618 861.296 418.775 855.35C416.68 853.529 409.264 849.055 408.323 854.693C407.881 857.343 415.743 860.345 417.562 861.724C424.252 866.794 445.072 876.332 447.357 884.475C449.277 891.32 425.563 905.401 429.543 910.776C432.285 914.481 448.997 890.574 453 890.081C457.23 889.559 466.155 898.219 464.007 902.479C457.227 915.923 440.049 923.793 435 938C449.698 932.301 455.528 914.42 467.517 905.566C471.482 902.637 480.19 908.309 479.317 913.144C477.003 925.956 459.041 932.409 457 947C466.366 941.23 473.619 917.555 486.008 917.305C494.496 917.134 503.656 930.291 513 932C509.47 923.449 497.207 921.854 491.667 914.559C487.447 909.004 500.801 894.036 506.724 894.377C513.691 894.779 521.174 906.398 526.04 910.492C527.908 912.063 533.982 916.928 536.108 913.198C539.065 908.011 506.012 897.16 511.778 887.521C514.347 883.228 522.568 872.974 528 873.044C533.832 873.12 557.63 896.648 556 882C550.519 882.527 530.881 872.924 533.323 865.92C535.772 858.898 545.888 852.316 550.921 847C563.755 833.449 584.282 812.402 591 795C569.47 805.907 552.177 839.65 535.019 856.997C529.122 862.958 512.082 864.729 513.003 851.177C513.328 846.393 521.006 840.505 523.897 836.922C533.657 824.825 556.187 804.999 557 789C544.056 794.618 529.67 823.776 520.058 835C516.937 838.645 511.765 849.083 505.981 847.784C479.707 841.884 511.273 812.439 519.368 802.96C520.498 801.636 531.802 789.131 527.53 788.323C523.971 787.65 518.97 795.797 516.962 798C509.22 806.496 500.071 828.88 490.156 833.696C486.538 835.453 479.812 828.706 477 826.839C465.821 819.416 454.536 810.993 442 806M1193 861C1193 854.108 1188.81 838.335 1193.71 832.854C1204.27 821.039 1218.17 837.397 1215.94 848.852C1214.07 858.391 1199.02 846.462 1197 858C1203.47 854.864 1211.73 859.551 1217.41 855.616C1223.48 851.416 1220.88 835.731 1224 829C1215.04 829.821 1202.06 823.89 1194.09 827.303C1183.53 831.818 1184.29 855.304 1193 861M491 841C508.252 857.052 498.646 855.939 489 874C471.888 862.941 477.597 853.46 491 841M1522 913C1527.48 878.233 1568.64 884.204 1592 889C1587.1 897.531 1579.6 920.023 1571.66 925.002C1556.97 934.205 1513.68 917.21 1512 950C1527.81 943.214 1545.79 916.746 1568.45 929.822C1573.04 932.47 1566.44 944.244 1565.58 948C1561.32 966.623 1570.78 986.971 1564.32 1004.96C1561.76 1012.09 1553.88 1008.35 1550 1014C1580.11 1020.46 1568.79 972.463 1569.01 954C1569.09 947.097 1570.56 931.493 1580.02 931.604C1585.86 931.673 1605.43 933.165 1608.66 938.483C1611.64 943.368 1608 956.184 1608 962C1608 981.805 1615.32 1021.09 1585 1022C1595.47 1030.39 1606.62 1016.04 1610.17 1007C1616.83 990.048 1602.36 954.09 1614.73 940.741C1618.7 936.448 1630.55 939.431 1636 938.476C1650.9 935.867 1686.45 920.907 1690 905C1672.58 916.22 1655.96 930.068 1635 934.165C1613.95 938.279 1610.69 920.42 1623.1 905.439C1626.23 901.672 1634.64 904.047 1639 903.992C1648.77 903.868 1670.08 898.935 1674 889C1661.87 891.466 1641.1 908.2 1628.41 899.616C1623.08 896.011 1629.6 887.771 1631.67 884.001C1637.32 873.674 1650.79 851.239 1662.82 848.121C1667.92 846.8 1663.58 855.169 1663 857C1676.54 853.827 1668.91 837.759 1655 848.508C1644.12 856.915 1635.25 870.093 1628.58 882C1626.35 885.989 1624.43 895.619 1618.9 895.994C1581.67 898.516 1616.88 863.815 1626.71 855.098C1628.04 853.918 1636.62 842.521 1630.86 843.323C1618.47 845.05 1604.13 875.541 1594.48 883.456C1588.62 888.262 1575.9 880.512 1569 879.952C1555.88 878.888 1540.3 884.378 1530.04 892.622C1525.39 896.359 1512.56 909.095 1522 913M184 848C181.194 859.264 185.747 872.47 185.981 884C186.556 912.276 185.397 941.896 188.32 970C188.745 974.081 190.128 1007.61 194.782 1006.68C198.078 1006.02 194.18 974.473 193.783 970C191.079 939.552 194.45 908.342 190.42 878C189.286 869.466 191.331 853.66 184 848M808 959C786.029 968.776 761.906 959.654 769.927 930C775.638 908.889 795.09 890.129 811 876.289C815.804 872.111 838.804 853.398 843 866L847 865C838.115 848.009 821.921 862.216 811 870.887C789.227 888.173 763.191 916.059 766.127 946C767.978 964.89 799.444 982.815 808 959M507.147 856.969C526.185 851.346 523.78 882.547 505.96 885.902C487.216 889.431 495.113 860.523 507.147 856.969M889.976 857.544C880.713 861.432 882.753 891.5 882.038 900C878.925 936.972 876.61 975.135 866.836 1011C865.575 1015.63 856.801 1044.31 856.98 1044.24C864.533 1041.43 869.428 1017.18 871.245 1010C880.25 974.447 883.875 937.547 885.925 901C886.34 893.587 889.079 857.92 889.976 857.544M1302.99 858.961C1291.12 860.597 1285.36 882.035 1298.12 880.18C1308.6 878.656 1315.91 857.181 1302.99 858.961M144 859C134.465 863.779 138.603 879.494 138.787 888C139.384 915.654 139 943.303 139 971C139 976.607 137.642 1000.52 144.21 1002.89C147.113 1003.94 144 973.113 144 969C144 932.265 143.302 895.657 144 859M922 873C924.865 879.339 929.617 884.944 930.696 892C935.275 921.932 904.182 936.425 890 956C911.321 954.544 933.279 918.468 934.856 899C935.561 890.297 926.783 868.726 939.022 865.523C952.751 861.93 974.849 893.446 972.26 906C967.108 930.973 938.778 948.641 916 954C922.969 963.026 946.041 946.491 951.959 941.177C962.779 931.46 976.268 917.68 976.421 902C976.569 886.827 953.768 859.992 938.001 861.764C930.74 862.58 927.772 869.577 922 873M1224 941C1208.94 941.901 1194.01 944.408 1179 945.782C1176.74 945.989 1163.85 945.325 1165.76 950.414C1167.38 954.73 1176.11 950.474 1179 950.254C1192.91 949.201 1207.06 945.48 1221 945C1208.36 960.202 1194.35 977.553 1179.06 990.104C1176.16 992.484 1165.44 1001.37 1168.52 1006.05C1171.62 1010.77 1181.31 999.119 1182.7 996.997C1194.6 978.883 1216.18 965.482 1225 946C1227.57 953.895 1219.51 962.797 1216.56 970C1207.35 992.427 1195.49 1012.66 1188.05 1035.98C1184.33 1047.63 1200.46 1052.71 1193.62 1060.93C1179.93 1077.39 1178.69 1047.35 1178.89 1047.3C1169.59 1049.16 1176.33 1073.56 1188.78 1069.87C1201.36 1066.15 1202.09 1048.36 1190 1044C1195.8 1032.91 1197.55 1018.81 1202.55 1007C1210.32 988.668 1221.33 971.829 1228 953C1237.19 967.133 1245.25 982.972 1250.56 999C1252.72 1005.52 1254.23 1017 1261 1020C1257.73 1001.96 1250.24 984.355 1241.74 968.078C1238.72 962.296 1229.88 953.197 1230.82 946.283C1231.58 940.705 1252.27 939.284 1257 938.32C1284.6 932.696 1312.6 921 1341 921C1337.74 912.783 1321.55 919.192 1315 920.246C1287.6 924.652 1261.22 933.685 1234 939C1243.5 923.876 1281.42 903.617 1280 885C1264.2 895.601 1253.13 913.196 1239 926C1243.68 908.81 1267.62 888.673 1264 870C1243.7 882.161 1246.68 925.208 1226 939C1224.66 919.633 1216.46 898.271 1210.22 880C1209.24 877.13 1209.18 860.352 1203.83 862.969C1199.93 864.88 1205.42 878.979 1206.35 882C1212.28 901.363 1216.32 922.318 1224 941M472.864 867.098C489.741 862.944 481.243 892.825 470.403 895.894C453.921 900.562 458.548 870.622 472.864 867.098M1307 867C1306.85 869.238 1306.74 869.612 1305 871L1305 867L1307 867M830 966C830.268 957.685 818.913 952.832 816.141 945C808.423 923.191 828.189 901.721 842.038 888.045C844.413 885.699 863.421 873.311 861.071 871.4C853.694 865.401 835.019 889.81 831 894C809.386 916.531 802.467 945.434 830 966M1931 876C1925.24 896.157 1928.83 919.315 1922 939C1912.95 925.487 1901.38 914.363 1893.25 900C1890.16 894.537 1888.65 885.638 1882 884C1886.96 899.021 1896.5 913.812 1906.52 926C1910.81 931.21 1920.36 937.452 1922.06 944.118C1923.65 950.358 1919.88 959.273 1920.02 966C1920.37 983.105 1926.72 1015.33 1918.74 1030.98C1912.42 1043.4 1895.42 1050.13 1893 1065C1903.25 1058.92 1909.37 1046.26 1919 1039C1920.96 1050.1 1920.97 1061.76 1922.2 1073C1922.39 1074.72 1922.34 1083 1925 1083C1929.37 1083 1926.04 1062.73 1925.7 1060C1921.81 1029.31 1937.31 1015.16 1962 997C1960.33 1012.78 1977.21 1030.73 1981.06 1046C1981.34 1047.09 1984.99 1061.66 1987.57 1057.89C1989.24 1055.47 1985.08 1044.89 1984.27 1042C1979.82 1026.08 1966.56 1012.48 1965.94 995.32C1965.53 983.819 1990.57 970.193 1996 960C1967.91 968.62 1950.32 1010.99 1924 1025C1924 1006.12 1926.83 987.569 1925.15 969C1924.91 966.334 1923.84 952.52 1928.25 952.52C1938.89 952.52 1950.46 984.573 1960 990C1956.17 971.152 1934.15 960.559 1928.68 943C1922.68 923.717 1933.82 895.91 1934 876L1931 876M263.782 878.625C258.898 879.739 252.865 891.994 250.233 896C239.987 911.598 227.924 926.13 218.104 942C215.22 946.661 208.836 955.098 210.865 960.861C214.755 971.909 236.865 977.459 245.922 983.708C257.73 991.854 263.557 999.478 268.949 1011.39C269.717 1013.09 272.293 1014.75 274.103 1013.52C283.689 1006.99 253.78 984.211 250 981.399C242.241 975.628 218.588 968.232 215.662 958.914C213.953 953.473 220.979 946.095 223.741 942C234.042 926.729 245.337 912.179 255.794 897C256.963 895.303 268.422 877.567 263.782 878.625M491 878C493.713 881.234 500.266 885.01 501.239 889.144C502.361 893.912 488.72 908.119 483.922 907.695C463.193 905.866 483.886 882.684 491 878M870 882C855.493 897.498 846.998 915.822 847 937C847.001 944.334 845.544 956.66 855 958C850.602 942.861 848.253 926.376 854.788 911C858.348 902.625 871.211 891.066 870 882M905 884C905.462 908.275 898.999 919.839 892 942C905.499 933.625 919.237 897.07 905 884M1576 926C1579.93 917.201 1586.25 897.423 1594.62 892.281C1598.87 889.673 1617.27 897.2 1618.99 901.666C1620.46 905.459 1616.22 911.496 1615 915C1613.55 919.149 1613.79 927.921 1610.75 931.023C1606.85 935.005 1581.34 927.68 1576 926M1354 901C1366.35 898.38 1370.76 907.79 1373 918C1366.05 918 1359.82 918.854 1353 920C1356.48 893.753 1343.37 911.581 1349.84 922.171C1351.06 924.166 1377.13 922.232 1377.31 921.472C1380.53 908.48 1356.07 886.148 1354 901M57 906C61.814 912.004 57.5555 919.82 60.5712 922.893C77.5842 940.226 110.21 923.031 131 923C125.442 917.452 112.416 915.524 105 912.705C83.006 904.346 78.1327 894.419 57 906M74 908C68.7859 913.456 64.8683 905.644 74 908M97 917C90.194 919.306 74.7729 920.097 70 914C78.3669 914.004 89.3232 913.442 97 917M111 920C107.348 921.212 104.509 921.039 102 918C105.247 918.208 108.041 918.625 111 920M82 923L82 926L73 926L73 923L82 923M1130 924C1128.18 929.417 1120.91 926.062 1124.85 933.005C1127.65 937.941 1127.36 953.114 1132.3 955.393C1147.09 962.212 1149.46 946.252 1150.24 937.015C1150.48 934.169 1154.71 930.307 1152.34 927.728C1148.83 923.917 1135.33 925.769 1130 924M1144 930.333C1144.89 930.333 1144.89 931.667 1144 931.667C1143.11 931.667 1143.11 930.333 1144 930.333M246 937L246 931C232.803 936.379 243.164 967.46 258.992 961.749C281.36 953.677 271.528 922.714 246 937M1136 932C1138.93 935.297 1139.57 938.676 1140 943C1134.87 941.59 1134.63 936.572 1136 932M573 958L571 958C562.359 977.641 572.472 1002.16 568 1023C557.886 1005.31 545.441 988.487 551.547 967C554.397 956.971 568.611 933.939 581.646 940.785C585.847 942.991 578.801 950.09 582.563 950.679C587.25 951.414 590.503 943.786 588.689 940.247C580.46 924.191 559.386 944.548 554.002 952C542.223 968.304 542.571 988.085 552.395 1005C556.659 1012.34 567.561 1022.6 566.097 1031.97C564.359 1043.1 539.003 1038.56 539.003 1047.01C539.003 1053.47 564.491 1039.14 567.741 1042.8C570.637 1046.07 567.464 1067 571.079 1067C578.37 1067 573.299 1044.47 573.085 1041C571.406 1013.79 577.186 985.053 573 958M261.989 937.353C276.019 936.351 265.224 958.546 255.041 958.391C239.558 958.155 249.739 938.227 261.989 937.353M1899 970.694C1875.73 973.635 1871.82 1018.95 1895 1016.17C1914.62 1013.83 1921.12 967.897 1899 970.694M1901.87 974.71C1915.55 975.784 1907.78 1013.3 1892.97 1012.51C1873.72 1011.49 1883.33 973.254 1901.87 974.71M1183 980C1188.43 978.195 1184.04 973.709 1183 980M1994.04 979.645C1973.95 984.504 1972.02 1025.66 1995 1020.28C2016.11 1015.34 2020.76 973.183 1994.04 979.645M1993.04 985.819C2015.05 977.099 2010.73 1010.03 1995 1016.05C1978.67 1022.3 1979.47 991.194 1993.04 985.819M705 998C700.066 1000.03 699.156 1004.71 692.999 1005.29C682.538 1006.27 656.235 999.586 647.956 1007.15C645.288 1009.59 646.03 1017.66 646.003 1021C645.927 1030.69 640.851 1063.42 647.717 1070.28C652.875 1075.44 672.954 1071.89 680 1072.01C685.066 1072.09 698.499 1077.36 702.015 1073.47C716.562 1057.36 705.038 1016.42 705 998M703 1039C692.933 1038.6 683.033 1039.99 673 1040C674.466 1031.28 677.584 1021.85 676 1013C669.003 1017.95 651.73 1007.34 654 1023C656.333 1020.04 657.17 1017.07 661 1016C659.591 1025.94 664.901 1042.01 654 1040C656.253 1048.71 666.352 1039.22 668.857 1045.51C672.748 1055.27 665.719 1078.1 651.822 1066.74C648.503 1064.03 650.68 1057.57 650.802 1054C651.157 1043.59 646.013 1022.67 650.822 1013.56C653.811 1007.9 697.891 1006.96 701.976 1011.54C708.081 1018.39 703.153 1031.03 703 1039M1142.8 1013.31C1132.44 1019.63 1131.71 1046.62 1146.62 1038.39C1156.72 1032.81 1153.22 1006.95 1142.8 1013.31M1145.42 1017.32C1152.14 1016.19 1151.75 1034.33 1143.11 1035.21C1134.56 1036.09 1139.95 1018.24 1145.42 1017.32M1269.05 1021.51C1263.11 1022.68 1257.35 1044.99 1260.52 1050.06C1262.04 1052.5 1280.61 1052.88 1283.69 1052.28C1289.53 1051.15 1296.91 1032.68 1293.72 1027.72C1289.52 1021.2 1275.82 1020.17 1269.05 1021.51M669 1022C672.231 1027.16 670.536 1033.25 670 1039C664.925 1037.61 667.685 1026.22 669 1022M1284 1032C1281.58 1033.7 1280.42 1035.4 1279 1038L1277 1034C1274.84 1036.66 1273.17 1038.66 1270 1040C1270.53 1037.06 1268.09 1029.64 1269.4 1027.84C1272.27 1023.92 1288.41 1025.69 1289.86 1030.48C1292.01 1037.58 1279.01 1046.78 1284 1032M674 1068C674.77 1048.5 681.799 1039.44 676 1063C682.05 1061.27 693.017 1056.83 696 1063C697.171 1058.37 697 1053.75 697 1049C691.562 1051.74 686.402 1055.64 681 1058C681.389 1054.98 682.012 1052.01 682.853 1049.07C689.572 1025.6 716.856 1063.31 695.643 1069.88C689.915 1071.66 680.165 1068.12 674 1068M1284 1048C1281.4 1047.65 1279.4 1047.06 1277 1046C1279.88 1044.34 1283.23 1044.4 1284 1048M1266 1046L1266 1049L1262 1049L1262 1046L1266 1046M1562 1201C1565.7 1210.75 1558.79 1231.4 1559.29 1243C1561.1 1284.3 1562.57 1325.73 1563.96 1367C1564.43 1380.92 1557.15 1407.56 1565.43 1419.65C1572.77 1430.37 1591.92 1414.91 1600.02 1412.36C1637.42 1400.56 1671.43 1395.78 1710 1391.44C1715.2 1390.85 1748.17 1393.9 1749.5 1392C1751.48 1389.18 1746.19 1381.83 1745.28 1379C1741.04 1365.84 1737.96 1352.32 1734.49 1339C1723.31 1296.07 1717.91 1246.13 1712.45 1202C1711.17 1191.68 1714.3 1159.45 1702.72 1153.99C1693.21 1149.5 1673.89 1162.5 1665 1165.9C1631.15 1178.84 1595.59 1187.74 1562 1201M1660 1174C1673.34 1184.16 1697.57 1189.14 1707.85 1202.41C1714.76 1211.34 1714.88 1232.01 1716.3 1243C1720.53 1275.54 1733.83 1313.51 1732.41 1346C1731.8 1360.06 1710.94 1371.06 1712 1386C1687.7 1388.26 1661.44 1388.66 1638 1396.34C1628.97 1399.29 1605.87 1409.81 1597 1406.51C1589.95 1403.88 1571.49 1392.12 1568.84 1384.99C1566.71 1379.28 1569.29 1371.17 1568.56 1365C1565.38 1338.04 1568.19 1311.07 1565.78 1284C1564.65 1271.22 1561.01 1250.03 1565.49 1238C1570.58 1224.32 1585.83 1204.99 1595.76 1194.53C1611.04 1178.42 1654.28 1175.1 1675 1166.21C1679.15 1164.42 1697.14 1156.5 1700.48 1157.68C1706.63 1159.86 1711.24 1195.65 1706.71 1196.1C1690.76 1197.7 1677.82 1170.59 1660 1174M1922 1271C1929.04 1268.46 1933.29 1260.2 1937 1254C1935.88 1264.43 1924.03 1279.2 1919.09 1289C1917.72 1291.72 1911.94 1297.78 1913.51 1301.03C1914.58 1303.25 1926.13 1294.8 1927.68 1293.58C1937.08 1286.17 1965.26 1272 1968.89 1260.75C1970.73 1255.07 1954.87 1265.21 1953.64 1266.1C1950.05 1268.72 1945.68 1269.83 1942.22 1272.64C1936.16 1277.56 1931.64 1282.48 1924 1285C1947.97 1247.65 1972.78 1209.69 1991 1169C1981.73 1171.12 1976.69 1185.4 1971.83 1192.86C1956.22 1216.82 1932.04 1244.54 1922 1271M1028 1345C1036.28 1338.06 1031.2 1314.26 1032.32 1304C1036.72 1263.88 1043.76 1223.17 1043 1183C1035.16 1186.11 1037.92 1213.1 1037.2 1221C1033.81 1257.77 1018.2 1308.98 1028 1345M2050 1198C2035.76 1228.39 2012.53 1256.75 1994.48 1285C1987.09 1296.57 1974.65 1310.01 1973 1324C1983.22 1319.61 1990.48 1302.08 1996.68 1293.01C2013.67 1268.18 2030.78 1245.31 2043.48 1218C2047.76 1208.78 2055.68 1200.48 2056 1190C2042.93 1194.7 2030.95 1203.71 2019 1210.7C2017.53 1211.56 2006.07 1217.04 2009.1 1219.66C2013.88 1223.79 2044.02 1200.36 2050 1198M1653 1193C1654.89 1213.62 1684.21 1238.1 1680.56 1258.92C1679.92 1262.61 1662.24 1282.89 1659.21 1280.68C1656.52 1278.72 1657.14 1262.59 1656.87 1259C1655.54 1241.45 1656.38 1213.86 1649 1198C1639.61 1223.78 1670.22 1276.33 1622 1271C1615.31 1283.57 1589.58 1295.11 1588.34 1309.94C1587.93 1314.92 1595.53 1321.4 1598.4 1325C1608.56 1337.77 1617.49 1351.36 1627.82 1364C1629.7 1366.3 1637.94 1379.92 1641.24 1378.32C1646.75 1375.64 1640.21 1360.01 1639.4 1356C1634.79 1332.97 1617.44 1288.15 1658 1297C1661.51 1284.52 1680.24 1273.98 1685.39 1260.01C1687.42 1254.49 1681.27 1247.93 1679.11 1243C1672.94 1228.92 1666.42 1201.54 1653 1193M1246 1243C1258.51 1241.01 1267.49 1220.59 1279.18 1220.82C1286.27 1220.96 1287.61 1256.89 1288.45 1263C1289.56 1270.95 1295.11 1282.23 1293.73 1290C1290.39 1308.93 1258.91 1335.27 1246.53 1350C1238.83 1359.15 1217.43 1378.4 1219 1391C1230.68 1383.49 1240.69 1357.8 1253.48 1353.9C1260.27 1351.84 1288.46 1385.24 1287.34 1391.86C1285.83 1400.84 1273.34 1407.35 1269 1415C1282.81 1410.22 1308.79 1382.17 1312 1368C1304.35 1369.72 1296.82 1379.92 1294 1387C1283.74 1379.05 1279.29 1365.65 1270.64 1356.07C1268.3 1353.48 1260.48 1351.46 1259.92 1348.23C1259.24 1344.35 1266.6 1338.64 1268.78 1335.96C1275.65 1327.53 1283.7 1305.21 1296 1306C1297.22 1288.71 1318.06 1265.31 1329.86 1253.22C1333.5 1249.49 1347.64 1239.59 1344.9 1233.56C1342.6 1228.5 1333.23 1236.96 1331.59 1239.18C1323.4 1250.33 1315.59 1261.71 1307.55 1273C1305.97 1275.22 1301.98 1283.48 1298.89 1283.48C1294.73 1283.48 1294.65 1270.8 1294.1 1268C1291.89 1256.74 1282.81 1225.5 1286.72 1215.36C1289.62 1207.85 1305.16 1205.06 1310 1197C1293.02 1198.28 1273.98 1219.31 1261 1229.33C1255.82 1233.33 1248.61 1236.78 1246 1243M1587 1197C1586.43 1207.43 1570.67 1222.58 1566 1233L1564 1233C1561.62 1211.76 1569.43 1204.61 1587 1197M468 1304C489.778 1299.15 502.831 1265.58 519 1252C518.751 1260.12 553.237 1281.77 561 1287.56C564.228 1289.97 573.381 1295.16 573.499 1299.7C573.701 1307.48 556.735 1322.39 551.824 1328C535.759 1346.36 521.324 1364.64 504.001 1382C496.781 1389.24 484.204 1398.68 482 1409C510.207 1393.41 533.683 1355.1 554.543 1331C560.828 1323.74 568.618 1308.27 577.258 1304.1C582.376 1301.63 589.492 1310.53 593 1313.35C606.174 1323.93 619.877 1334.93 634 1344.23C637.845 1346.76 651.168 1348.62 651.397 1354.28C651.889 1366.42 627.937 1381.54 624 1394C643.926 1390.11 663.628 1347.46 676.436 1332.32C678.463 1329.92 692.799 1312.86 690.998 1311.46C687.918 1309.05 682.58 1317.3 681.078 1319C674.892 1326.03 665.284 1345.13 656.736 1348.45C653.22 1349.82 643.184 1343.7 640 1341.92C624.767 1333.36 611.9 1321.75 598 1311.32C594.101 1308.4 583.835 1303.31 583.381 1297.88C582.907 1292.22 594.774 1282.11 598.288 1278C609.068 1265.39 619.317 1251.75 631.003 1240C636.993 1233.98 645.847 1227.9 647 1219C626.813 1231.82 611.112 1257.04 595.718 1275C592.248 1279.05 582.792 1294.25 576.933 1293.38C556.009 1290.29 539.878 1257.6 519 1251C526.341 1237.9 537.382 1228.49 547.278 1217.77C549.403 1215.47 556.285 1208.49 554.312 1204.97C552.68 1202.06 534.037 1224.82 531.978 1227C516.219 1243.69 502.842 1263.34 488.079 1281C482.011 1288.26 471.345 1295.15 468 1304M854 1213C890.672 1213 930.786 1208.36 967 1212.44C977.076 1213.57 993.74 1209.13 1001 1217C1002.31 1213.13 1002 1209.06 1002 1205C985.175 1210.65 969.636 1207.04 952 1207C932.077 1206.96 912.068 1210 892 1210C883.092 1210 858.33 1203.94 854 1213M820 1212C817.895 1271.39 818.097 1330.83 816 1390C825.575 1380.18 820.317 1361.02 819.134 1349C815.96 1316.74 822.938 1284.24 823 1252C823.013 1245.01 826.578 1213.93 820 1212M849 1212C844.212 1219.92 841.262 1232.91 839 1242C880.89 1239.33 922.034 1239.99 964 1240C973.802 1240 1001.58 1244.25 1000 1231C977.832 1239.44 959.194 1234.82 936 1234.04C905.557 1233.02 874.129 1233.89 844 1238C846.909 1231.01 852.146 1219.44 849 1212M83 1216C85.1236 1215.1 85.1007 1215.12 86 1213C83.636 1213.48 83.4825 1213.64 83 1216M2010 1376C1968.36 1361.53 1930.07 1333.39 1888 1321C1893.06 1333.26 1918.79 1339.1 1930 1344.52C1970.07 1363.91 2012.9 1378.73 2052 1400.01C2062.3 1405.62 2092.42 1423.01 2103 1415C2106.13 1422.05 2113.67 1425.48 2121 1427C2117.29 1421.05 2102.71 1416.75 2101.44 1410.76C2099.61 1402.04 2109.29 1384.34 2112.29 1376C2121.5 1350.48 2125.17 1323.69 2133.45 1298C2138.22 1283.18 2141.55 1267.91 2146.16 1253C2147.35 1249.15 2152.32 1241.88 2149.13 1238.19C2142.68 1230.71 2124.74 1227.99 2119.96 1238.01C2101.85 1275.97 2098.41 1323.22 2083.99 1363C2082.07 1368.3 2075.92 1398.85 2071.64 1399.58C2065.89 1400.55 2052.88 1393.31 2053.87 1386.99C2057.21 1365.64 2076.1 1344.63 2044 1338.54C2040.01 1337.78 2026.16 1334.01 2023.11 1335.4C2017.25 1338.08 2010.56 1369.09 2010 1376M99 1249C105.158 1246.21 106.617 1239.6 114.001 1237.81C134.073 1232.94 141.887 1274.96 135.842 1289C132.112 1297.66 123.791 1303.5 121.624 1313C120 1320.12 122.885 1324.43 128 1329C107.886 1338.97 101.151 1349.21 89.2789 1368C82.4675 1378.78 73.0231 1395.96 58 1395.36C52.7969 1395.15 35.5851 1380.1 35.2566 1380.41C26.4715 1388.61 56.5894 1401.69 63 1399.77C91.4624 1391.25 93.3965 1355.72 115.043 1339.76C118.945 1336.89 142.323 1334.46 142.677 1332.74C143.131 1330.53 125.728 1325.91 126.128 1316C126.545 1305.67 137.234 1299.34 140.816 1289.99C145.822 1276.93 139.754 1254.22 133.657 1242C125.981 1226.61 97.909 1230.43 99 1249M557.519 1237.29C529.729 1245.74 558.45 1285.36 577.951 1278.53C602.793 1269.84 583.524 1251.29 572 1244.5C568.292 1242.31 562.202 1235.86 557.519 1237.29M2125.58 1236.82C2129.69 1234.63 2144.09 1235.69 2145.14 1241.44C2147.03 1251.93 2136.65 1271.72 2133.53 1282C2124.49 1311.74 2118.51 1342.16 2109.37 1372C2107.12 1379.34 2101.62 1407.68 2093.8 1409.95C2075.4 1415.29 2079.99 1388.55 2082.19 1380C2091.44 1344.02 2103.43 1307.45 2114.68 1272C2117.11 1264.31 2118.06 1240.85 2125.58 1236.82M1947 1239C1945.82 1242.83 1944.46 1244.94 1941 1247C1942.34 1243.4 1943.84 1241.19 1947 1239M560.285 1241.62C565.35 1241.46 582.626 1252.41 584.537 1257.16C586.08 1260.99 580.286 1273.72 575.765 1273.96C571.193 1274.19 552.517 1264.83 551.02 1260.44C549.893 1257.14 556.436 1241.74 560.285 1241.62M2021 1248C2020.23 1249.18 2020.18 1249.23 2019 1250C2019.54 1248.37 2019.36 1248.54 2021 1248M826 1305C840.978 1302.1 857.489 1301.49 872 1297C873.067 1314.65 890.654 1314 904 1314C927.771 1314 990.729 1314.65 992.769 1280C993.396 1269.34 977.031 1265.66 969 1263.25C943.547 1255.61 911.141 1262.24 888 1274.4C879.987 1278.61 874.638 1292.5 867.86 1294.62C857.603 1297.82 830.924 1293.35 826 1305M1941 1263C1938.49 1265.87 1936.53 1268.5 1935 1272C1937.92 1269.63 1939.94 1267.14 1942 1264L1941 1263M952 1264.5C959.47 1263.03 989.127 1271.1 989.399 1280.06C989.865 1295.4 969.878 1302.62 958 1304.98C937.866 1308.99 912.405 1312.13 892 1309.55C879.763 1308.01 870.969 1298.82 878.346 1286.27C891.346 1264.14 931.357 1268.55 952 1264.5M1652 1267C1652.85 1271.58 1654.32 1277.13 1649 1279L1650 1267L1652 1267M998 1284C1005.67 1282.83 1028.24 1281.88 1027 1272C1017.99 1275.7 1003.71 1275.51 998 1284M508 1273C505.29 1288.03 554.596 1314.69 527.68 1290.3C525.141 1288 522.612 1285.7 520.007 1283.47C515.998 1280.05 512.376 1275.91 508 1273M248 1275.67C220.267 1278.59 179.82 1280.13 159.416 1302.3C128.549 1335.85 205.23 1337.53 222 1335.72C237.649 1334.04 268.916 1327.54 279.172 1314.9C293.564 1297.17 267.112 1273.66 248 1275.67M1631 1279C1630.1 1280.92 1629.92 1281 1628 1282C1628.48 1279.64 1628.64 1279.48 1631 1279M233 1281.37C243.037 1280.56 286.57 1286.68 280.993 1304.01C275.293 1321.72 238.952 1328.39 223 1329.84C210.568 1330.98 163.551 1335.87 157.902 1320.82C154.022 1310.47 164.913 1303.29 172 1299.06C190.569 1287.98 211.598 1283.08 233 1281.37M1622 1282C1618.1 1304.71 1629.06 1345.73 1637 1368C1623.79 1360.61 1616.24 1340.45 1605.99 1329.44C1602.24 1325.41 1594.48 1318.86 1593.97 1313.08C1593.31 1305.6 1615.24 1284.5 1622 1282M16 1340C35.2394 1333.67 52.1949 1315.61 69 1304.52C76.8332 1299.35 88.3687 1293.31 93 1285C73.4815 1290.4 50.4268 1312.21 34 1324.2C28.256 1328.39 18.7022 1333.28 16 1340M648 1328C648.366 1315.96 622.707 1302.25 614.136 1295.21C612.258 1293.67 603.223 1284.54 600.544 1287.84C597.96 1291.03 614.785 1301.33 617 1302.98C621.266 1306.16 624.876 1310.08 629 1313.42C635.089 1318.36 641.243 1324.03 648 1328M1629 1288L1628 1289L1629 1288M1647 1288C1647.57 1290.4 1647.47 1290.49 1645 1291L1647 1288M21 1359C44.3647 1352.35 72.5984 1330.87 93 1317.34C100.183 1312.57 111.415 1308.41 116 1301C92.5514 1305.19 62.3292 1329.63 42 1342.65C35.4256 1346.86 23.0683 1350.84 21 1359M267 1306C240.87 1306.93 213.99 1309.27 188 1312.1C185.271 1312.4 163.519 1314.85 164.761 1317.67C166.636 1321.92 185.098 1316.1 189 1315.58C208.068 1313.04 227.779 1314.61 247 1312.44C253.675 1311.68 263.897 1313.31 267 1306M615 1341C605.327 1343.54 604.213 1356.78 595.901 1358.77C573.839 1364.05 562.423 1332.09 585.086 1324.61C592.287 1322.23 607.161 1336.79 616 1338C606.051 1313.08 565.58 1314.65 565.346 1345.02C565.28 1353.66 592.372 1368.44 599.949 1365.36C605.86 1362.97 612.693 1346.77 615 1341M1006 1338C995.26 1331.05 984.283 1333.54 972 1332.92C948.03 1331.71 924.025 1332.06 900 1332C896.572 1331.99 865.547 1328.33 866.323 1331.91C867.515 1337.42 893.434 1336 898 1336C932.355 1336 966.685 1336.7 1001 1337C987.834 1373.28 926.083 1360 895 1360C886.9 1360 864.536 1363.87 858.017 1359.3C851.93 1355.04 861.992 1334.36 861 1328C856.205 1331.14 848.351 1359.48 853.862 1363.18C859.91 1367.23 877.709 1363 885 1363C908.373 1363 931.665 1362.54 955 1363.02C963.669 1363.19 976.755 1367.44 984.881 1363.94C994.077 1359.97 999.685 1345.34 1006 1338M2027.56 1341.96C2033.82 1339.26 2057.52 1343.7 2059.35 1351.26C2060.89 1357.58 2055.76 1365.98 2054.26 1372C2053.08 1376.73 2052.61 1387.16 2047.64 1389.6C2043.8 1391.5 2036.66 1387.07 2033 1385.67C2028.24 1383.84 2018.18 1382.35 2015.04 1378.11C2011.97 1373.95 2023.08 1343.89 2027.56 1341.96M1742 1386C1732.66 1384.68 1722.47 1386 1713 1386C1717.13 1380.86 1727.48 1357.45 1733.36 1356.32C1738.13 1355.4 1741.98 1382.18 1742 1386M1569.54 1394.38C1586.59 1391.16 1602.11 1414.47 1575.01 1418.32C1564.38 1419.83 1566.26 1395 1569.54 1394.38M837 1514C845.565 1529.06 868.785 1542.31 881.999 1553.72C887.635 1558.58 892.455 1565.38 900 1567C889.115 1550.34 856.397 1519.87 837 1514M236 1527C244.683 1540.29 262.436 1546.06 270 1560C264.588 1559.82 259.414 1559.7 254 1560C257.888 1551.21 220.417 1555.98 212 1556C186.733 1556.06 161.427 1556 136 1556C126.517 1556 112.029 1553.3 103.233 1557.18C93.5462 1561.44 87.6049 1571.42 82.1947 1580C77.5396 1587.38 68.9933 1597.91 70 1607C76.6214 1600.34 88.9549 1569.88 98.8076 1569.76C102.919 1569.71 100.483 1600.81 100.537 1605C101.026 1643.13 96 1681.61 96 1720C106.561 1715.23 100.748 1696.25 102.798 1687C108.539 1661.1 107.566 1628.45 105.861 1602C105.338 1593.89 101.437 1569.26 105.512 1562.74C109.336 1556.63 142.201 1561.18 149 1561.78C189.392 1565.37 232.478 1564 273 1564C265.986 1574.88 265.537 1607.95 270 1620C275.424 1607.05 271.601 1588.88 272.782 1575C273.137 1570.82 277.843 1566.96 276.916 1562.86C274.252 1551.09 247.547 1528.83 236 1527M829 1529C838.214 1546.27 874.241 1571.57 892 1579C890.37 1580.96 887.397 1586.47 884.568 1586.49C879.182 1586.53 871.042 1576.44 867 1573.2C852.647 1561.73 837.808 1546.69 821 1539C827.211 1553.98 853.611 1566.78 866 1576.92C869.559 1579.83 880.245 1585.44 880.926 1590.26C881.625 1595.21 873.217 1603.15 868.437 1600.71C849.236 1590.91 835.18 1567.85 814 1562C821.64 1575.43 843.169 1585.64 855 1595.68C858.03 1598.25 867.165 1602.35 867.999 1606.37C868.942 1610.93 861.826 1617.32 859.287 1620.54C851.179 1630.84 839.689 1643.39 834 1655C847.13 1655.46 850.501 1629.98 861.351 1626.6C866.017 1625.15 867.006 1630.57 864.985 1633.46C858.024 1643.4 845.268 1652.63 843 1665C848.544 1662.5 870.749 1626.01 875.894 1636.17C878.919 1642.14 850.908 1663.61 849 1673C863.482 1663.08 870.132 1640.23 890 1642C885.953 1654.9 869.985 1661.57 867 1675C881.637 1664.05 884.498 1646.95 904 1654C898.074 1662.33 887.141 1669.72 885 1680C894.466 1676.25 901.307 1663.66 909 1657C910.882 1660.97 912.577 1662.22 917 1662C915.764 1666.05 914.352 1669.76 914 1674C921.13 1670.69 921.701 1658.83 929.925 1656.74C937.852 1654.73 954.48 1674.99 963 1678C957.065 1667.67 940.763 1663.7 935.179 1653.4C928.442 1640.97 948.5 1647.96 952 1650.56C955.583 1653.22 959.025 1655.97 963 1658C959.736 1648.58 948.939 1648.03 945.296 1640.59C941.914 1633.69 951.844 1631.72 956.003 1634.84C960.334 1638.08 963.647 1641.6 969 1643C966.147 1638.16 953.643 1632.17 953.643 1626.82C953.643 1618.04 966.341 1629.45 968 1630.96C980.104 1642.04 996.629 1662.54 1012 1668C1004.94 1648.31 974.467 1636.72 961.609 1620.34C955.691 1612.81 974.322 1601.82 970.069 1592.35C969.727 1591.59 963.959 1607.29 955 1592C953.006 1593.92 951.183 1595.96 949.268 1597.96C934.257 1613.59 940.977 1580.83 933.844 1579.67C929.341 1578.93 924.635 1587.74 921 1590C923.066 1582.35 923.923 1578.55 927 1571C920.284 1572.05 918.229 1569.64 918 1563C914.959 1566.2 912.082 1568.28 908 1570C910.545 1566.04 913.318 1562.42 915 1558C905.56 1560.15 902.939 1575.57 893.437 1575.93C887.723 1576.14 880.216 1566.97 875.992 1563.72C861.611 1552.66 845.957 1535.61 829 1529M426 1541C431.033 1547.97 445.306 1544.91 453 1549.95C465.075 1557.85 475.96 1568.88 485.062 1580C489.151 1585 491.292 1594.33 497 1597C499.533 1568.34 450.66 1539.21 426 1541M414 1565C430.046 1563.36 438.623 1566.45 452 1575.94C462.75 1583.56 481.751 1593.85 487.719 1606.04C490.772 1612.28 485.021 1626.87 484.323 1634C480.988 1668.07 451.018 1696.04 451 1733C456.614 1723.97 457.245 1711.92 461.293 1702C463.9 1695.61 466.676 1689.32 469.433 1683C470.722 1680.04 485.717 1652.51 488.187 1659.43C489.815 1663.99 481.553 1678.07 479.687 1682.78C473.696 1697.91 462.645 1744.5 479 1756C476.492 1730.09 473.564 1712.73 482.233 1687C483.971 1681.84 485.935 1670.4 490.4 1667C492.725 1665.23 499.873 1674.89 503.008 1675.97C517.366 1680.94 526.682 1668.93 529 1656C542.328 1664.36 556.463 1691.53 558.742 1707C559.284 1710.69 558.446 1731.91 562.136 1732.68C566.195 1733.52 563.834 1711.78 563.294 1709C559.506 1689.53 547.874 1670.73 535.07 1656C532.304 1652.82 527.292 1644.07 531.852 1640.11C534.119 1638.13 552.258 1661.22 555.007 1664C583.415 1692.77 584.304 1721.61 579 1759C587.54 1755.12 587.992 1739.14 588 1731C588.027 1701.2 574.454 1677.68 554.008 1657C548.867 1651.8 534.426 1639.01 535.667 1631C538.002 1615.92 557.152 1599.99 568.001 1590.58C570.293 1588.59 583.997 1580.58 583.997 1578.03C583.997 1571.55 568.857 1584.9 568.001 1585.64C554.241 1597.5 543.877 1618.09 530 1628C530.025 1611.32 538.816 1588.61 551.041 1577.12C557.511 1571.04 566.187 1568.97 572 1562C541.116 1557.87 541.659 1600.84 526 1612C526.964 1604.15 524.994 1593.74 515.997 1591.1C512.699 1590.14 501.453 1593.96 502.323 1598.6C502.88 1601.57 515.253 1594.98 519.135 1600.08C528.282 1612.09 528.292 1644.04 524.011 1658C517.551 1679.05 494.76 1672.65 499 1652C490.699 1656.24 488.733 1648.57 488.27 1640C487.826 1631.77 498.792 1606.2 496.644 1602.34C494.704 1598.85 489.967 1601.78 487.1 1598.83C473.152 1584.46 454.223 1569.6 436 1561.15C430.315 1558.51 415.869 1557.02 414 1565M1600 1666C1600.68 1681.78 1595.38 1704.27 1576 1703.87C1569.1 1703.72 1564.4 1698.65 1558 1697C1563.58 1712.63 1587.98 1710.61 1596.43 1698.55C1604.64 1686.84 1610.29 1661.01 1609.98 1647C1609.81 1639.79 1605.65 1633.45 1606.81 1626C1608.11 1617.54 1619.57 1607.74 1616.9 1599.02C1614.31 1590.55 1604.21 1590.01 1597 1590C1599.76 1583.12 1609.61 1578.76 1608 1571C1621.19 1569.85 1630.26 1565.14 1643 1571C1640.73 1553.33 1610.15 1562.38 1602.27 1571.05C1593.4 1580.8 1585.28 1599.66 1585.68 1613C1585.85 1618.35 1590.37 1624.9 1589.12 1630C1587.07 1638.35 1576.1 1643.36 1573.08 1652C1566.18 1671.78 1587.64 1673.58 1600 1666M1253 1587L1250 1584C1266.52 1587.24 1241.25 1619.87 1234.6 1629.04C1213.05 1658.74 1193.96 1691.77 1170.58 1720C1160.04 1732.72 1139.05 1745.02 1136 1762C1143.37 1763.13 1152.23 1761.06 1159 1762.82C1167.61 1765.06 1181.12 1779.09 1190.52 1773.6C1195.35 1770.79 1194.33 1759.82 1195.58 1755C1199.33 1740.61 1206.93 1729.9 1213.8 1717C1240.83 1666.25 1278.41 1618.48 1301 1566C1263.03 1567.35 1220.55 1565.68 1184 1576.74C1174.66 1579.56 1154.56 1584.17 1148.91 1592.63C1145.2 1598.18 1153.38 1608.57 1155.2 1614C1161.64 1633.21 1163.09 1653.32 1167.24 1673C1168.25 1677.84 1170.68 1691.99 1177.92 1690.94C1184.48 1689.99 1194.64 1670.32 1198.64 1665.02C1217.41 1640.1 1231.25 1608.73 1253 1587M1291 1569C1288.55 1585.02 1274.38 1602.6 1266.99 1617C1248.76 1652.51 1227.58 1685.49 1207.28 1720C1200.08 1732.24 1196.45 1741.6 1192.27 1755C1191.14 1758.62 1191.43 1767.38 1187.97 1769.6C1181.98 1773.43 1164.23 1758.6 1158 1757.05C1152.67 1755.72 1147.38 1759.65 1142 1760C1154.84 1742.76 1171.76 1728.19 1184.92 1711C1205.53 1684.09 1222.44 1654.49 1242.28 1627C1249.5 1617 1261.06 1607.37 1264 1595C1265.73 1587.69 1260.27 1579.09 1252 1580.42C1243.22 1581.82 1238.49 1593.37 1234.22 1600C1221.28 1620.11 1209.54 1641.02 1196.54 1661C1194.09 1664.77 1180.88 1686.16 1176.45 1684.89C1171.82 1683.57 1171.4 1668.92 1171 1665C1169.27 1647.99 1164.9 1628.08 1158.97 1612C1157.01 1606.67 1149.26 1597.08 1155.33 1592.12C1166.36 1583.12 1185.46 1580.54 1199 1578.64C1229.71 1574.34 1260.02 1572.01 1291 1569M788 1572C796.663 1588.2 839.162 1616.09 857 1621C847.273 1605.18 805.567 1577.95 788 1572M903.21 1574.05C916.274 1570.94 912.849 1590.84 902.058 1592.71C901.895 1592.74 894.065 1576.22 903.21 1574.05M914 1579C915.343 1573.91 919.088 1577.66 914 1579M137 1581C133.625 1597.65 133.329 1618.71 133 1636C134.996 1638.49 121.541 1680.99 127 1691C130.122 1696.72 146.919 1694.42 152 1694C174.382 1692.13 206.465 1692.18 228 1685C219.548 1668.51 225.371 1633.74 227.32 1615C227.945 1608.99 230.135 1588.82 225.67 1584.3C222.611 1581.2 205.551 1583.58 200.992 1583.87C182.412 1585.06 152.734 1590.25 137 1581M895.081 1585.31C898.027 1584.89 898.89 1589.77 895.764 1590.03C892.683 1590.29 891.987 1585.76 895.081 1585.31M916 1584C917.593 1585.9 917.873 1586.53 918 1589C915.941 1587.38 915.302 1586.57 916 1584M131 1690C134.045 1667.12 140 1644.13 140 1621C140 1614.04 138.188 1595.25 143.257 1589.93C145.253 1587.83 170.179 1589.28 175 1588.94C184.526 1588.27 213.298 1582.19 221.06 1587.48C225.179 1590.28 223.041 1603.6 222.992 1608C222.8 1625.28 221.043 1642.75 220.075 1660C219.832 1664.33 220.923 1675.53 217.74 1678.74C214.004 1682.52 201.138 1681.77 196 1682.64C174.666 1686.24 152.582 1688.71 131 1690M930 1588C929.186 1608.72 913.899 1602.62 930 1588M913 1589C912.422 1591.7 911.738 1591.79 909 1592C910.323 1590.21 910.906 1589.75 913 1589M495 1590L494 1591L495 1590M885.975 1594.5C897.966 1593.3 891.08 1610.78 883.041 1611.68C872.194 1612.9 878.508 1595.24 885.975 1594.5M1599 1595L1597 1599C1600.09 1597.39 1602.11 1595.93 1604 1593C1613.97 1599.06 1609.73 1625.66 1597.17 1622.89C1587.65 1620.8 1590.45 1594.7 1599 1595M896 1606C905.364 1587.28 918.36 1603.15 909.026 1606.03C905.356 1607.17 900.332 1605.11 896 1606M1260 1596C1258.04 1603.2 1253.25 1609 1247 1613C1248.95 1606.2 1253.9 1601.56 1258 1596L1260 1596M929 1606C935.09 1595.9 942.249 1607.95 939.702 1608.91C937.593 1609.7 932.378 1605.63 929 1606M162 1667C166.839 1671.05 172.233 1668.4 178 1668.08C206.886 1666.48 206 1653.02 206 1627C206 1623.33 209.257 1604.23 204.117 1604.11C199.585 1603.99 202.918 1614.62 202.966 1617C203.148 1625.96 204.425 1652.82 199.178 1659.72C193.223 1667.55 171.157 1663.66 162 1667M950 1603C949.936 1605.99 950.054 1607.35 947 1608L948 1603L950 1603M160 1666C160.605 1648.95 158.639 1633.85 157 1617C170.499 1619.42 183.707 1611.05 197 1610C193.882 1602.88 160.599 1610.6 154.827 1615.38C149.023 1620.19 155.23 1661.17 160 1666M895 1606C894.392 1610.44 892.187 1612.56 888 1614C889.738 1610.4 891.622 1608.15 895 1606M954.942 1607.97C958.733 1607.32 958.94 1612.84 955.697 1613.78C951.558 1614.97 950.781 1608.68 954.942 1607.97M904.183 1609.69C905.556 1610.56 904.176 1612.9 902.733 1612.31C900.986 1611.59 902.602 1608.7 904.183 1609.69M873 1609C873.236 1612.64 871.984 1615.52 871 1619C867.737 1616.04 869.787 1612.74 871 1609L873 1609M926.997 1610.62C934.709 1610.79 934.564 1623.52 927.217 1624.06C918.915 1624.66 917.794 1610.43 926.997 1610.62M913 1610L912 1611L913 1610M946 1625C936.573 1612.71 948.922 1606.84 951.942 1617.19C958.205 1638.65 918.859 1615.2 946 1625M875 1622C875.173 1610.77 883.337 1615.95 875 1622M900 1629C898.757 1623.35 908.109 1607.22 912.596 1616.28C914.602 1620.33 900.058 1636.37 896.461 1635.24C890.862 1633.48 894.335 1627.25 900 1629M896 1620C893.678 1624.81 886.048 1634.86 880.009 1633.97C869.731 1632.46 875.933 1621.52 882.323 1619.46C886.755 1618.03 891.039 1621.62 896 1620M925 1629L912 1628C914.214 1618.59 920.874 1623.31 925 1629M172.542 1626.18C165.962 1628.71 168.122 1659.35 186.86 1650.72C199.858 1644.73 188.382 1620.07 172.542 1626.18M933 1625L934 1629C930.979 1628.35 930.914 1627.09 933 1625M1992 1696C1989.25 1683.58 1967.69 1677.32 1966.08 1666.94C1965.24 1661.53 1997.91 1644.27 2003 1641C2001.95 1648.4 2001.46 1655.58 2000.78 1663C2000.28 1668.5 1999.05 1673.69 1997.6 1679C1996.98 1681.22 1994.52 1702.07 1997.86 1698.03C2005.88 1688.32 2003.05 1663.93 2005.09 1652C2005.64 1648.79 2009.64 1638.88 2006.72 1636.37C2003.64 1633.72 1997.21 1640.1 1995 1641.73C1987.67 1647.14 1969.96 1662.51 1960.92 1662.85C1944.03 1663.49 1930.58 1626.41 1914.29 1626.64C1909.86 1626.7 1912.04 1639.06 1912.01 1642.02C1911.88 1656.08 1910 1669.94 1910 1684C1910 1687.23 1908.57 1695.28 1911.26 1697.66C1914.8 1700.8 1922.26 1695.01 1924.96 1693.03C1933.53 1686.76 1949.25 1671.06 1959.99 1670.41C1971.93 1669.68 1982.43 1690.86 1992 1696M271 1629C258.471 1653.66 269.023 1692.57 268 1720C277.658 1717.4 293.173 1693.79 294 1684C283.904 1689.48 278.198 1702.33 271 1711C269.794 1683.47 277.998 1656.62 273 1629L271 1629M909 1629C908.518 1631.36 908.364 1631.52 906 1632L907 1629L909 1629M180 1645L187 1643C186.299 1647.73 177.823 1652.06 176.284 1645.72C174.774 1639.48 182.885 1624.33 184.46 1632.21C184.871 1634.26 180.024 1641.12 180 1645M930.076 1631.64C942.958 1631.56 932.995 1652.88 925.273 1652.38C920.237 1652.06 921.247 1631.7 930.076 1631.64M1596.07 1631.32C1600.57 1630.71 1603.09 1639.8 1603.24 1643C1603.72 1653.09 1601.12 1665.14 1590 1666.7C1563.09 1670.5 1582.22 1633.21 1596.07 1631.32M915 1640L913 1636C921.376 1639.98 910.334 1653.25 904.001 1651.48C895.542 1649.13 894.974 1638.8 903.321 1635.65C907.074 1634.23 911.614 1638.7 915 1640M1916 1696C1912.42 1681.83 1915.55 1664.51 1916.04 1650C1916.13 1647.3 1915.82 1635.97 1919.31 1635.32C1922.01 1634.82 1925.35 1640.68 1927.28 1642.18C1931.86 1645.73 1956.56 1660.35 1954.89 1666.54C1951.94 1677.49 1924.23 1687.83 1916 1696M886.667 1635.67C886.722 1635.72 886.778 1636.78 886.333 1636.33C886.278 1636.28 886.222 1635.22 886.667 1635.67M184 1636C183.637 1638.03 183.483 1638.64 182 1640C182.311 1637.71 182.366 1637.68 184 1636M269 1636C270.081 1637.46 270.436 1638.25 271 1640C269.004 1638.76 268.442 1638.31 269 1636M920 1646L920 1651C917.808 1649.37 917.696 1648.72 918 1646L920 1646M916 1652C914.457 1653.27 913.952 1653.49 912 1654C913.386 1652.11 913.648 1652.01 916 1652M923 1667C927.509 1674.51 951.389 1691.3 960 1691C951.604 1681.66 935.281 1669.97 923 1667M140 1720C127.424 1720.05 109.482 1727.62 98 1724C97.6444 1734.53 134.608 1755.19 144 1751C134.504 1741.9 119.677 1733.85 107 1731C116.334 1723.49 130.065 1731.08 141 1729.74C165.83 1726.7 189.841 1725 215 1725C228.086 1725 250.328 1726.03 262 1720C256.929 1714.93 243.652 1719.64 236 1719C215.637 1717.3 181.578 1714.47 162 1721C157.045 1722.65 139.01 1723.96 140 1720M398 1733C399.176 1732.23 399.227 1732.18 400 1731C398.365 1731.55 398.545 1731.36 398 1733M452 1737L453 1738L452 1737M451 1739C451.011 1744.31 451.501 1748.27 454 1753C455.058 1749.13 452.628 1742.66 451 1739M1400.67 1809.33C1400.22 1809.78 1401.28 1809.72 1401.33 1809.67C1401.78 1809.22 1400.72 1809.28 1400.67 1809.33M2102 1867C2116.72 1861.16 2129.53 1851.61 2146 1851C2131.89 1846.22 2109.26 1854.01 2102 1867M2049 1973C2027.27 1974.09 2013.63 2001.61 1996 2011C2001.32 1986.3 2024.78 1962.07 2040.62 1943.44C2042.87 1940.78 2061.33 1927.24 2060.24 1924.91C2057.99 1920.07 2044.05 1932.51 2042 1934C2046.69 1919.17 2057.01 1895.76 2071.01 1887.8C2083.28 1880.82 2106.08 1878.74 2115 1868C2108.34 1866.85 2102.31 1870.57 2096 1872.34C2057.74 1883.08 2052.15 1906.58 2037.66 1938.68C2031.63 1952.02 2017.74 1962.52 2009.94 1975C2001.19 1988.97 1997.78 2003.17 1991 2017C1984.72 2029.81 1972 2041.16 1963.84 2053C1954.15 2067.05 1945.79 2081.98 1937.48 2096.86C1936.15 2099.25 1926.64 2111.6 1933.96 2111.78C1938.78 2111.9 1945.93 2094.02 1948.02 2090C1959.97 2066.99 1973.88 2044.65 1991 2025.02C2002.24 2012.13 2015.61 1999.37 2029 1988.72C2034.96 1983.97 2046.14 1980.19 2049 1973M2121 1972C2135.39 1947.01 2103.33 1909.43 2135.99 1888.56C2138.49 1886.96 2156.9 1879.01 2154.89 1877.21C2149.79 1872.63 2126.54 1888.53 2123.86 1893.05C2111.09 1914.59 2114.32 1948.86 2121 1972M472 1908L470 1908C470.695 1944.27 503.428 1969.84 516 2001C500.162 1993.82 489.467 1980.58 471 1978.45C462.884 1977.52 451.763 1979.82 454 1990C468.651 1973.58 489.19 1989.23 503 1998.71C505.603 2000.5 517.48 2004.32 517.48 2007.82C517.48 2011.75 503.504 2010.95 501 2011.08C486.053 2011.86 467.651 2016.47 459 2000C452.109 2022.58 495.068 2015.36 505 2015C488.196 2031.35 462.115 2034.25 446.741 2054C443.63 2058 430.71 2075.14 442.188 2077.31C464.788 2081.6 480.579 2046.47 498 2040C492.895 2050.68 483.709 2066.3 487.22 2078.86C491.394 2093.78 514.337 2084.73 520.377 2076.99C532.932 2060.92 531.775 2043.96 530 2025C546.376 2050.58 549.926 2083.05 564.549 2109.32C569.152 2117.59 585.391 2142.82 588.72 2119C591.96 2095.81 564.106 2062.87 551.619 2045.08C546.331 2037.54 537.47 2028.53 537 2019C552.197 2027.66 581.792 2030.22 599 2027.72C604.087 2026.98 618.772 2022.49 617.128 2015.3C615.459 2008.01 603.252 2004.87 596.999 2003.63C576.025 1999.47 556.859 2007 536 2007C553.464 1991.88 609.234 1975.91 607.37 1946.16C606.695 1935.4 591.661 1944.58 588.008 1946.86C571.576 1957.15 557.596 1972.36 544 1986C546.215 1973.37 554.631 1958.19 551.995 1945C549.623 1933.13 538.823 1930.64 531.427 1940.07C523.519 1950.16 523.654 1964.88 521 1977C514.356 1967.7 510.551 1955.3 505.42 1945C501.829 1937.79 498.703 1930.64 494.065 1924C492.376 1921.58 472.401 1896.91 471.323 1902.43C470.661 1905.83 485.682 1918.7 488.176 1922.08C500.639 1938.95 509.334 1959.37 516.351 1979C517.821 1983.11 523.77 1994.8 521.46 1999C520.449 2000.83 507.868 1980.38 506.476 1978.01C494.488 1957.54 473.525 1932.61 472 1908M1270 1977C1276.27 2013.99 1249.78 2030.76 1216 2031.52C1209.48 2031.66 1203.8 2037.85 1197.2 2034.27C1184.5 2027.37 1184.59 1996.78 1189.62 1986C1201 1961.59 1247.51 1940.49 1271.66 1958.86C1288.2 1971.43 1284.29 2001.44 1275.07 2017C1256.75 2047.9 1200.73 2063.08 1176.37 2030.64C1170.85 2023.3 1173.92 2006.86 1174.65 1998.22C1178.8 1949.48 1246.71 1912.99 1282.37 1955.32C1295.65 1971.09 1290.74 1991.34 1285.79 2009C1274 2051.01 1239.6 2080.53 1193 2063.85C1165.96 2054.17 1161.41 2026.65 1165.97 2002C1173.17 1963 1203.77 1912.47 1247 1915C1240.97 1895 1205.24 1925.63 1199.16 1931.56C1174.45 1955.68 1150.22 2002.13 1162.5 2038C1175.77 2076.75 1226.99 2080.43 1258 2062.07C1285.67 2045.68 1301.36 2000.16 1293.14 1969C1274.9 1899.95 1185.82 1936.72 1171.97 1988C1169.51 1997.15 1167.08 2023.81 1171.74 2031.99C1176.63 2040.58 1185.64 2042.42 1194 2045.92C1222.74 2057.97 1261.56 2050.83 1278.02 2020C1281.82 2012.87 1285.59 2004.16 1285.95 1996C1286.46 1984.65 1285.83 1968.48 1278.19 1959.36C1255.62 1932.42 1205.71 1953.08 1189.41 1977C1179.75 1991.16 1177.1 2035.88 1200 2039.53C1221.49 2042.96 1254.69 2032.95 1267.93 2015C1275.19 2005.16 1282.91 1985.84 1270 1977M526 2002C524.264 1983.66 525.002 1969.08 529.489 1951C530.537 1946.78 536.948 1935.13 542.813 1937.64C549.515 1940.52 547.382 1951.82 546.32 1957C543.342 1971.53 542.678 1995.4 526 2002M2061 2041C2067.6 2051.33 2082.84 2047.99 2093 2046.25C2116.18 2042.28 2168.15 2034.84 2174.04 2006.12C2175.34 1999.78 2142.27 2038.47 2134.32 2029.77C2132.08 2027.32 2137.01 2014.75 2136.9 2011C2136.04 1981.65 2136.71 1964.02 2155 1941C2144.95 1939.67 2137.48 1951.52 2134.98 1960C2128.29 1982.69 2136.87 2008.16 2128.17 2029.94C2121.67 2046.23 2074.56 2044.23 2061 2041M135 2069C120.73 2057.36 91.4057 2070.83 80.579 2051.91C74.1385 2040.66 84.0715 2021.7 92.6124 2013.95C103.878 2003.72 118.081 2005.29 130 1997.96C155.782 1982.12 179.789 1946.93 213 1945.84C231.939 1945.22 237.2 1980.11 217 1976C216.165 1979.35 214.748 1982.02 213 1985C235.147 1983 242.812 1954.9 221.96 1944.11C211.32 1938.61 193.972 1946.67 184 1951.31C161.858 1961.63 147.059 1983.18 125.783 1994.98C111.988 2002.63 96.6611 2000.55 85.5445 2015.01C54.7508 2055.05 98.269 2074.8 135 2069M603 1944C601.383 1969.15 558.026 1995.19 536 2002C538.076 1993.54 545.81 1988.19 551.865 1982.44C565.622 1969.36 583.267 1947.21 603 1944M2077 1945C2072.33 1967.79 2060.33 1984.44 2052.47 2006C2048.29 2017.46 2043.73 2036.92 2034.6 2045.36C2026.22 2053.1 2010.63 2055.95 2000 2059.27C1990.57 2062.22 1980.07 2063.47 1971 2067.32C1969.77 2067.84 1961.72 2071.13 1963.54 2073.33C1965.71 2075.95 1986.35 2067.55 1990 2066.42C2017.92 2057.73 2043.21 2046.61 2070 2035.14C2074.26 2033.32 2097.8 2025.53 2096.68 2019.57C2095.98 2015.86 2084.77 2023.2 2083 2024C2069.44 2030.08 2055.51 2039.63 2041 2043C2054.58 2021.97 2065.23 1994.18 2075.02 1971C2078.15 1963.59 2085.6 1951.21 2077 1945M848 2068C855.849 2064.92 862.644 2045.53 869.762 2045.52C872.899 2045.51 876.337 2051.32 879 2053C878.729 2047.3 871.558 2043.32 872.767 2037.96C874.516 2030.21 888.396 1999.54 897.005 2000.46C910.164 2001.86 903.228 2032.35 900.517 2040.97C896.945 2052.33 866.108 2062.67 856 2067.79C853.787 2068.91 839.16 2071.58 842.466 2076.04C844.617 2078.94 854.53 2073.75 857 2072.64C872.538 2065.67 875.289 2060.45 891 2066C886.6 2055.77 888.753 2054.18 900 2050C899.859 2053.96 899.632 2058.2 898.319 2061.97C897.363 2064.72 895.359 2066.36 893.896 2068.76C891.517 2072.65 895.634 2082.26 898.657 2076.49C902.673 2068.82 900.3 2051.46 907.284 2046.4C922.884 2035.12 947.232 2026.95 965 2019.19C972.013 2016.13 984.086 2013.17 986 2005C959.651 2015.52 931.979 2037.17 904 2042C905.523 2033.58 904.031 2010.65 909.822 2004.72C914.858 1999.56 927.411 2004.31 933 2005.97C944.386 2009.36 963.441 2008.48 975 2006C958.808 1997.3 927.833 1999.67 909 1999C913.691 1983.75 915.026 1964.88 916 1949C902.744 1955.02 903.498 1985.17 889.684 1993.92C881.707 1998.98 854.595 1993.32 845 1992.32C842.12 1992.02 831.315 1990.06 830.028 1993.58C828.426 1997.96 835.63 2004 837.953 2007C845.513 2016.76 859.281 2028.28 864.092 2039.48C867.427 2047.24 851.279 2061.4 848 2068M1233 2001C1231.1 2000.97 1222.24 2000.89 1225.11 1996.77C1229.83 1989.99 1245.47 1997.2 1240.43 2003.85C1234.47 2011.73 1210.16 2008.05 1214.19 1996C1218.79 1982.26 1250.06 1978.18 1253.75 1994.07C1259.2 2017.57 1218.25 2026.53 1205.35 2011.9C1195.95 2001.24 1202.18 1981.87 1214.02 1975.49C1231.85 1965.89 1253.76 1966.5 1270 1975C1264.84 1960.5 1250.09 1962.25 1238 1964.47C1219.28 1967.9 1193.88 1974.79 1196.16 2000C1199.07 2032.35 1254.7 2028.69 1258.76 1999C1262.25 1973.41 1217.42 1973.44 1210.07 1996C1204.62 2012.73 1234.36 2017.03 1243.27 2007.42C1254.35 1995.49 1233.71 1984.54 1223.21 1991.41C1214.28 1997.25 1226.71 2009.21 1233 2001M909 1970C908.946 1983.07 910.125 1999.42 894 1996C897.371 1987.01 902.907 1978.71 907 1970L909 1970M204 1976C206.941 1981.37 211.167 1981.62 214 1976C210.603 1975.6 207.404 1975.75 204 1976M135 2066C144.335 2068.24 150.769 2057.88 154.634 2051C163.307 2035.55 168.456 2017.37 178.989 2003.02C185.679 1993.9 196.148 1988.76 203 1980C161.535 1986.37 166.556 2048.66 135 2066M1700 2033C1691.85 2031.76 1683.66 2036.18 1675 2035.98C1658.33 2035.6 1639.76 2031.89 1623 2029.74C1616.22 2028.88 1599.57 2024.01 1593.51 2026.65C1585.38 2030.2 1596.74 2063.82 1590.18 2071.4C1578.87 2084.47 1557.38 2068.7 1543.37 2079.12C1537.98 2083.11 1540.99 2093.23 1541 2099C1541 2103.46 1538.7 2114.59 1541.34 2118.18C1543.8 2121.54 1552.39 2120 1556 2120C1570.76 2120 1584.2 2116 1599 2116C1597.22 2109.07 1592.58 2085.44 1597.08 2079.69C1601.61 2073.88 1617.7 2077.21 1624 2077.78C1642.44 2079.46 1660.53 2080.41 1679 2079.14C1683.62 2078.82 1692.21 2081.57 1696.19 2079.17C1709.56 2071.1 1689.82 2036.67 1715 2037.58C1739.32 2038.45 1767.29 2036.31 1791 2041.22C1798 2042.67 1814.31 2047.83 1817 2038C1800 2039.9 1791.78 2015.38 1798.04 1999.44C1799.49 1995.74 1817.25 1997.61 1815.89 1994.52C1814.02 1990.25 1794.24 1990.01 1790 1990C1767.86 1989.95 1746.01 1986 1724 1986C1718.34 1986 1705.47 1983.67 1700.82 1987.32C1694.4 1992.35 1700 2024.81 1700 2033M1770 2035C1758.68 2035 1750.5 2035.81 1750.87 2022C1750.95 2018.82 1752.28 1999.52 1747.18 1999.52C1742.87 1999.52 1751.26 2031.79 1745.46 2033.52C1727.71 2038.83 1730.82 2022.12 1729.56 2011C1729.39 2009.51 1728.92 1995.81 1725.66 1997.64C1719.35 2001.18 1731.09 2026.31 1725.72 2032C1723.84 2034 1706.42 2033.01 1705.1 2030.48C1703.04 2026.52 1705.1 2019.4 1704.96 2015C1704.77 2009.14 1701.19 1996.81 1705.26 1991.82C1709.47 1986.66 1736.38 1991.82 1743 1992.56C1748.51 1993.18 1759.72 1990.88 1764.22 1994.27C1771.74 1999.93 1768.51 2026.12 1770 2035M1772.83 1995.83C1792.68 1983.4 1794.29 2008.73 1795.56 2020C1795.92 2023.17 1798.38 2034.47 1795.16 2036.37C1776.27 2047.55 1773.47 2019.75 1772.92 2010C1772.73 2006.7 1769.3 1998.04 1772.83 1995.83M869 2037C856.036 2029.49 841.659 2009.64 834 1997C847.016 1997 860.037 1996.63 873 1997.78C876.407 1998.09 884.335 1996.66 886.079 2000.6C889.713 2008.82 872.777 2029.78 869 2037M217 2012C195.078 2008.41 169.865 2052.49 164.358 2070C162.249 2076.71 152.276 2089.18 160 2094C170.912 2059.79 186.459 2035.64 216 2015C213.405 2040.35 211.217 2062.76 215.481 2088C215.893 2090.44 218.139 2115.57 222.186 2111.89C226.4 2108.06 220.394 2091.1 219.772 2086C217.176 2064.73 215.803 2045.63 219.277 2024C219.866 2020.33 225.149 2006.17 221.266 2003.54C217.595 2001.06 217.046 2010.47 217 2012M531 2014C541.86 2004.9 580.042 2004.6 594 2007.1C598.779 2007.96 611.997 2009.11 611.997 2016.09C611.997 2022.78 597.309 2022.99 593 2023C572.421 2023.05 550.25 2021.8 531 2014M523 2012C530.332 2030.57 530.593 2067.5 511.979 2080.01C484.141 2098.73 495.421 2053.23 501.523 2042C507.198 2031.55 515.863 2022.61 521 2012L523 2012M510 2018C503.985 2035.77 478.059 2053.83 463 2064.15C459.919 2066.26 446.821 2076.44 443.31 2072.12C439.422 2067.33 450.243 2055.25 453.177 2052.01C465.156 2038.77 492.382 2021.56 510 2018M1593 2073C1597.41 2063.39 1592.32 2040.32 1598.82 2033.82C1617.03 2015.64 1634.7 2061.77 1625.7 2071.75C1621.12 2076.82 1599.59 2073 1593 2073M1700 2037C1698.87 2044.96 1698.71 2067.33 1693.75 2073.17C1691.22 2076.15 1683.58 2074.3 1680 2074.71C1653.06 2077.75 1657 2063.6 1657 2041C1647 2048.3 1661.53 2067.42 1652.19 2074.48C1634.26 2088.02 1628.61 2059.26 1627.86 2049C1627.65 2046.06 1624.78 2039.09 1627.04 2036.7C1630.26 2033.29 1639.74 2037.71 1644 2037.48C1663.43 2036.43 1680.39 2041.43 1700 2037M541 2037C561.132 2058.92 584.794 2095.68 584 2126C562.811 2117.41 560.688 2082.91 551.77 2065C547.964 2057.36 540.06 2045.72 541 2037M1608 2041C1606.39 2045.88 1603.41 2050.06 1602 2055C1609.76 2056.53 1605.07 2064.86 1610.28 2067.24C1613.11 2068.54 1609.95 2049.3 1610 2047C1614.4 2052.07 1611.82 2066.57 1617.61 2069.46C1621.47 2071.38 1617.58 2044.93 1608 2041M1643 2067C1651.26 2072.07 1646.25 2048.06 1642 2045C1642.61 2050.39 1642.05 2055.6 1642 2061C1640.28 2057 1641.55 2048.08 1638.81 2045.22C1635.21 2041.47 1631.1 2076.67 1643 2067M1664 2059C1669.16 2060.27 1669.15 2069.36 1672.65 2069.36C1673.37 2069.36 1677.98 2029.77 1667.13 2051.99C1666 2054.31 1664.94 2056.6 1664 2059M1643 2061C1642.64 2063.03 1642.48 2063.64 1641 2065C1641.51 2063.05 1641.73 2062.54 1643 2061M55 2117C55.0785 2112.22 50.6281 2108.2 51.8136 2103.67C62.5825 2062.54 126.801 2087.77 152 2092C149.891 2083.39 133.612 2082.31 126 2080.92C102.935 2076.7 78.5036 2071.89 58.9622 2087.36C52.8454 2092.2 45.1646 2098.11 46.6633 2107C50.0066 2126.83 64.2125 2119.68 80 2121.32C111.407 2124.58 149.293 2123.34 181 2121.14C191.967 2120.37 203 2120.01 214 2120C215.647 2120 224.404 2120.74 223.677 2117.34C222.976 2114.06 211.478 2116 209 2116C193.294 2116.01 177.67 2117 162 2117C147.62 2117 133.36 2116 119 2116C97.596 2116 76.4458 2117 55 2117M1577 2112C1583.09 2101.34 1582.31 2106.04 1573 2108C1573 2078.78 1564.6 2095.27 1573 2115C1556.9 2117.82 1559.9 2097.31 1560 2086L1557 2086C1556.53 2090.96 1545.96 2103.33 1556 2099C1557.63 2104.95 1559.59 2121.67 1547.5 2115.18C1543.4 2112.97 1543.95 2086.43 1547.12 2082.92C1551.14 2078.47 1584.52 2076.5 1589.18 2078.69C1592.42 2080.22 1590.96 2089.08 1591.22 2092C1592.5 2106.37 1593.23 2112 1577 2112z"/>
</svg>
