<?xml version="1.0" standalone="yes"?>
<svg xmlns="http://www.w3.org/2000/svg" width="2200" height="2200">
<path style="fill:#0a0a0a; stroke:none;" d="M157 79C159.857 93.8396 160 107.897 160 123L160 151C160 161.846 160.646 172.295 162.371 182.992C162.75 185.34 165.994 193.814 169.708 189.873C173.202 186.166 170.893 170.193 171.299 165C172.706 147.022 169 127.307 169 109C169 101.574 171.483 89.1357 168.74 82.2839C167.015 77.9739 160.7 79.0024 157 79M88 82C84.3493 88.7065 88.7721 99.0842 85.644 103.834C83.6454 106.869 75.3098 106.82 72 107.801C57.8407 111.999 43.2552 115.254 29 119C42.8284 126.139 70.847 117.412 86 116C77.8761 133.146 67.9799 151.043 57.7405 167C53.0423 174.322 44.7954 180.794 42 189C60.2985 185.301 86.4974 145.999 90 128C95.9304 134.126 92.6546 154.735 94.3249 163.999C95.3974 169.948 117.34 198.167 117.395 180.702C117.413 174.801 108.69 167.194 106.035 162C101.686 153.493 96.4238 124.651 99.5985 115.7C102.073 108.723 139.138 118.09 136.239 107.06C133.58 96.9451 106.194 102.33 99 103C100.683 94.9885 95.6011 85.4458 88 82M1031 157C1032.32 143.346 1037.8 106.235 1025 97C1028.15 120.766 1027.17 144.239 1028.9 166C1029.21 169.875 1026.86 188.6 1032.13 189.677C1036.74 190.621 1032.33 162.232 1032 159C1037.32 160.139 1050.5 156.583 1053.7 161.501C1056.78 166.225 1049.45 189.169 1057.28 190.677C1061.14 191.42 1060 179.975 1060 178C1060 164.002 1058.65 149.931 1060 136C1063.18 142.666 1061.66 148.017 1061 155C1070.37 148.877 1061.48 120.604 1059.34 110C1058.94 107.998 1058.04 93.6245 1054.58 95.1057C1051.15 96.5701 1053.77 106.373 1054.14 109C1055.49 118.711 1058.46 138.704 1054.18 147.723C1051.01 154.409 1036.83 151.487 1031 157M285 101C285.212 124.311 287.547 145.085 290.72 168C291.283 172.063 291.325 188.357 297.676 188.357C301.378 188.357 296.789 169.087 297.179 166.148C297.878 160.875 310.651 158.993 314.997 159.118C323.537 159.364 327.825 191.127 330.882 188.031C334.315 184.553 329.648 171.576 329.215 167C327.641 150.359 329.662 136.255 326.899 119C326.186 114.547 323.977 103.459 319.024 101.761C314.944 100.363 318.873 114.182 319.137 116C320.953 128.512 322.898 165.847 297.733 151.78C293.97 149.676 295.111 140.589 294.783 137C293.788 126.086 293.856 108.6 285 101M2132.57 103.72C2128.44 105.456 2130 115.538 2130 119C2130 127.838 2137.4 162.366 2132.1 168.06C2128.48 171.955 2099.31 167.173 2101.11 173.939C2103.49 182.93 2127.1 172.573 2132.94 179.501C2138.84 186.504 2135.19 206.098 2136.24 215C2136.52 217.331 2138.23 225.786 2142.23 224.239C2146.36 222.641 2144.04 201.997 2143.99 198C2143.73 174.142 2140.29 148.763 2137.56 125C2137.22 121.972 2140.86 100.237 2132.57 103.72M520 104C515.999 119.811 511.675 148.481 513.805 164C514.351 167.977 513.997 183.099 520.778 182.214C524.412 181.74 521.891 164.625 525.219 160.822C529.728 155.668 543.395 160.058 549 161C548.479 146.023 532.507 156.526 526.26 147.501C517.818 135.306 532.338 116.338 520 104M437 165C427.146 164.097 415.765 163.58 406.646 167.552C405.002 168.268 394.975 170.497 398.106 174.012C401.261 177.555 413.846 173.316 418 172.963C434.537 171.556 451.34 169.801 467.973 171.07C471.546 171.343 474.087 175.415 477.04 175.371C478.685 175.347 499.13 169.385 499.326 168.767C501.936 160.505 484.071 165.455 481.26 161.491C477.308 155.919 476.183 124.745 478.502 118.303C479.959 114.252 517.083 120.237 512.592 112.424C509.87 107.688 496.837 107.529 492 106.942C470.4 104.319 449.607 106.88 428 107.002C422.425 107.034 405.882 105.567 402.749 111.588C400.567 115.78 414.022 115.343 416 115.561C444.65 118.721 421.017 147.785 437 165M1188 174C1192.79 178.727 1193.06 184.844 1195 191C1188.92 193.04 1212.63 241.072 1223.68 238.624C1227.97 237.673 1221.91 224.452 1220.6 222C1211.87 205.687 1198.94 191.363 1202.35 171.148C1203.83 162.368 1242.88 172.686 1244.08 164.906C1245.76 154.014 1207.14 161.879 1202.59 158.883C1196.42 154.822 1196.94 127.64 1198 121C1199.99 122.845 1201.49 124.016 1204 125C1202.36 120.453 1197.66 111.994 1194 109C1193.43 111.83 1192.6 113.586 1191 116C1190.96 115.007 1189.81 103.858 1187.2 107.106C1184.75 110.156 1187.65 118.369 1187.66 122C1187.68 129.529 1187.31 153.64 1182.82 159.499C1177.37 166.618 1153.55 158.305 1151.22 167.262C1147.64 181.089 1180.85 166.768 1180.44 175.156C1179.87 186.575 1164.43 209.342 1157.53 217.96C1154.61 221.61 1143.16 228.066 1144.95 233.61C1148.81 245.587 1162.6 226.629 1165.68 223.438C1178.63 210.016 1189.71 192.776 1188 174M1917 131C1918.4 154.324 1878.84 192.971 1857 201C1862.08 213.254 1870.46 201.917 1876.88 196.276C1890.27 184.513 1906.59 167.106 1921 158C1921.46 170.555 1937.56 209.906 1953 208C1934.45 182.37 1929.58 163.901 1933.5 134C1933.97 130.427 1936.77 108.979 1933.12 108.323C1925.47 106.948 1927.98 131.539 1917 131M1965 112C1963.03 137.917 1968.46 165.24 1970.78 191C1971.02 193.604 1971.31 217.019 1977.24 214.115C1979.39 213.064 1977.07 204.988 1977.02 203C1976.82 194.974 1974.71 178.64 1978.82 171.579C1981.45 167.056 2009.1 173.245 2007.97 168.085C2005.27 155.717 1983.76 167.28 1978.26 158.635C1969.93 145.537 1982.99 120.766 1965 112M260.769 116.407C249.865 123.504 264.816 145.674 256.498 150.296C252.407 152.57 222.685 156.851 220.16 153.42C217.392 149.657 219.314 137.144 218.299 132C217.789 129.414 213.921 115.577 209.036 120.892C205.126 125.146 212.413 150.551 212.864 157C213.287 163.058 208.279 199.523 216.937 198.574C223.038 197.906 231.099 186.573 241 185.339C249.174 184.32 262.632 189.715 268.764 184.248C273.201 180.293 267.539 174.807 267.107 170C265.875 156.291 267.086 141.814 266.997 128C266.981 125.529 266.297 112.809 260.769 116.407M464.989 115.35C477.018 114.571 477.271 161.795 469.852 162.852C444.715 166.434 436.007 160.357 436 135C435.999 130.932 433.436 120.081 436.829 117.26C441.759 113.161 458.573 115.765 464.989 115.35M2025 223C2031.3 218.439 2042.88 218.107 2047.04 214.264C2050.54 211.022 2053.52 198.049 2058.18 197.205C2059.51 196.964 2079.27 230.01 2086.23 217.507C2087.38 215.441 2066.26 194.75 2065.38 186C2064.89 181.155 2064.7 162.214 2069.36 159.822C2073.3 157.8 2090.97 161.911 2091.68 156.678C2093.3 144.709 2073.22 149.821 2068.58 146.663C2064.78 144.077 2068.35 136.501 2068.85 133.003C2069.4 129.251 2069.81 127.183 2073 125C2072.84 127.412 2072.52 129.639 2072 132C2076.78 127.703 2072.29 111.599 2064.82 115.851C2058.43 119.489 2063.63 139.527 2059.74 145.635C2056.59 150.588 2046.15 149.312 2041 149.783C2038.23 150.038 2029.64 149.377 2029.64 153.882C2029.64 161.471 2047.93 157.409 2051.72 159.958C2058.78 164.716 2053.65 179.65 2051.78 185.997C2046.89 202.596 2018.71 205.049 2025 223M1599 117.438C1569.24 120.786 1532.84 117.622 1509.35 140.837C1499.87 150.202 1506.56 162.124 1513.93 170C1528.55 185.63 1543.81 189.714 1565 187.782C1589.28 185.568 1629.34 181.407 1646.33 161.855C1669.83 134.818 1619.15 115.171 1599 117.438M864 122C868.951 125.441 873.442 124.178 879 123C874.339 121.412 868.842 121.251 864 122M750 137C762.699 145.14 785.882 139.362 800 138.141C837.039 134.938 875.169 133.149 912 131C907.468 141.958 900.781 152.026 892 160C895.487 153.031 900.381 146.895 904 140C891.18 147.563 884.121 168.416 877.07 180.981C873.843 186.733 868.132 189.965 871 197C844.312 202.727 815.155 201.382 788 204.438C785.242 204.749 755.908 204.834 765.053 212.971C769.134 216.602 780.272 212.501 785 211.758C797.591 209.781 825.904 203.826 837.719 207.479C846.409 210.165 843.79 242.556 844.04 250C844.14 252.951 843.969 262.847 848.866 262.214C852.792 261.707 852.839 254.834 852.516 252C851.396 242.161 852.758 208.078 846 211C846.913 201.829 860.308 205.499 867 204.521C885.406 201.832 919.572 206.706 935.495 197.939C941.641 194.555 933.314 190.368 929.997 190.1C920.496 189.333 910.217 190.906 901 193.18C892.104 195.375 883.146 196.453 874 197C885.304 177.544 902.917 161.882 914.132 141.217C916.382 137.072 925.965 130.558 924.776 126.05C924.744 125.93 891.062 121.012 885.177 122.281C858.123 128.113 828.434 130.433 799 131.922C783.5 132.706 764.466 130.296 750 137M1273 121C1273 136.916 1280.06 176.281 1270.74 189.396C1266.43 195.458 1246.55 195.133 1240 194C1239.98 198.725 1239.44 203.306 1239 208C1244.92 205.071 1262.71 195.873 1269.34 199.34C1272.35 200.918 1270.68 237.901 1278.19 232.592C1282.79 229.339 1278.83 210.882 1278.5 206C1277.09 185.247 1280.32 163.878 1279.96 143C1279.84 135.898 1280.71 124.27 1273 121M1009 122C1008.99 140.036 995.212 163.283 973.736 149.604C965.974 144.66 966.187 129.623 957 124C957.614 128.046 959.252 131.329 961 135L956 134C956.001 145.568 956.196 157.621 958.257 169C959.091 173.609 963.759 180.981 962.68 185.499C962.021 188.259 958.132 187.925 956 188C963.43 210.089 968.638 193.494 979.011 191.428C989.75 189.289 1006.31 195.484 1014.81 186.93C1018.71 183.004 1016.03 175.998 1016 171C1015.94 159.687 1021.14 127.17 1009 122M642 201C648.959 182.808 651.786 191.714 668 184C668.423 188.025 672.492 219.467 677.778 217.167C682.867 214.952 678.473 201.914 678.083 198C677.12 188.318 682.979 181.761 682.889 174C682.803 166.588 677.081 158.685 674.389 152C672.839 148.152 670.176 130.667 665.083 130.667C658.988 130.667 663.885 143.588 664.667 146C670.229 163.163 668.899 188.024 644.111 177.667C637.741 175.005 641.185 141.667 641 135C640.941 132.874 639.422 123.006 635.306 125.75C631.106 128.55 634 142.67 634 147C634 164.884 635.837 182.43 636 200C636.05 205.407 636.095 217.721 641.306 221.056C647.64 225.109 648.038 199.614 642 201M618 129C616.547 140.498 615.194 154.569 617 166C608.861 166 583.959 168.793 577.824 163.74C575.154 161.541 580.995 123.208 572.446 127.544C567.913 129.843 570.004 142.84 570 147C569.983 165.221 566.756 183.723 566.038 202C565.905 205.382 562.59 221.539 567.483 222.218C571.943 222.837 577.881 215.714 581.003 213.221C591.04 205.205 618.99 215.261 624.586 207.06C626.565 204.16 625.085 194.798 625.555 191C627.23 177.448 630.886 137.196 618 129M893 126C890.523 128.114 889.224 128.458 886 128C888.377 126.484 890.181 126.163 893 126M1588 126.32C1603.26 124.732 1641.32 126.709 1639.76 150C1638.63 167.003 1611.29 171.301 1598 172.764C1580.12 174.732 1534.63 184.942 1521.69 167.721C1516.32 160.581 1525.32 149.861 1530.04 145.008C1545.49 129.137 1567.4 128.464 1588 126.32M1778 287C1775.83 248.08 1782.63 207.416 1774.22 169C1773.29 164.788 1768.62 127.301 1764.25 131.103C1759.35 135.369 1765.15 161.138 1766.08 167C1770.8 196.732 1768.93 227.97 1769 258C1769.02 267.214 1767.15 284.03 1778 287M1668 136C1669.54 161.376 1707.33 136.612 1718.18 146.862C1724.63 152.958 1715.86 183.047 1718 193C1712.33 193.529 1706.69 194.634 1701 194.922C1697 195.125 1692.99 194.856 1689 195.136C1687.17 195.265 1668.43 198.806 1676.35 202.052C1686.57 206.238 1707.73 202.011 1719 202C1728.2 201.991 1735.78 196.221 1723 193C1731.01 182.065 1729.86 156.304 1732.32 143.568C1732.87 140.752 1730.61 133.831 1727.65 132.761C1725.13 131.847 1722.7 138.403 1718.95 138.406C1702.45 138.423 1684.23 138.461 1668 136M1636 132C1640.44 134.719 1643.14 137.801 1644 143C1640.79 141.157 1636.15 135.681 1636 132M1529 137C1527.4 139.455 1513.47 159.705 1513.33 159.677C1501.07 157.216 1523.6 137.961 1529 137M1645 144C1646.24 146.982 1646.56 148.82 1646 152C1644.55 149.189 1644.12 147.056 1645 144M1008 148C1008.49 151.137 1008.04 152 1005 153L1006 148L1008 148M324 153.333C324.889 153.333 324.889 154.667 324 154.667C323.111 154.667 323.111 153.333 324 153.333M252.97 157.39C260.169 157.166 261.266 168.726 257.06 173.079C252.097 178.217 231.24 183.081 224.148 182.393C218.05 181.802 218.388 165.59 221.822 162.207C227.792 156.325 245.087 157.636 252.97 157.39M973 158C979.521 158 993.61 155.299 999.178 158.822C1001.95 160.574 1001 166.213 1001.33 169C1001.69 172.154 1004.51 179.256 1002.5 182.042C1000.33 185.059 977.637 184.091 975.26 181.178C971.534 176.614 974.041 163.88 973 158M1006 158C1010.38 163.226 1008.76 176.106 1009 183C1004.24 177.089 1003.6 165.079 1006 158M962 159C962.698 161.72 962.945 164.192 963 167L961 167C961.026 164.173 961.086 161.678 962 159M476 164C477.267 165.543 477.489 166.048 478 168C476.14 166.734 475.631 166.223 476 164M674 164C676.43 168.098 679.852 172.64 674 175C673.87 171.301 673.069 167.599 674 164M614 201C608.409 201.679 602.639 201 597 201C592.383 201 582.605 202.829 578.822 199.74C575.934 197.383 574.826 178.597 577.947 176.404C580.27 174.772 611.697 177.354 613.576 179.822C616.927 184.223 613.15 195.505 614 201M259 179C257.195 181.64 256.193 182.152 253 182C254.832 179.88 256.233 179.444 259 179M265 179C264.789 181.739 264.698 182.422 262 183C262.936 181.052 263.393 180.45 265 179M965 194C962.876 193.101 962.899 193.124 962 191C964.364 191.482 964.518 191.636 965 194M173 245C184.073 242.445 179.145 220.968 178.765 212C178.665 209.623 180.98 200.927 178.263 199.761C178.393 199.817 158.638 205.738 155 205.922C128.826 207.247 103.141 208.87 77 211.217C73.2317 211.556 46.2362 212.629 49.5314 218.443C54.5281 227.261 74.3708 219.705 82 219.038C103.441 217.163 125.71 217.335 147 214.756C153.89 213.922 164.6 207.341 171.315 212.26C176.665 216.18 174.234 238.99 173 245M1174 198C1172.36 203.564 1169.9 207.71 1166 212C1165.36 206.941 1169.52 202.212 1172 198L1174 198M1496 210C1508.86 226.647 1546.13 204.256 1562.76 211.822C1576.47 218.054 1563.5 243.434 1571.52 251.196C1579.8 259.211 1580.27 248.617 1579.18 243C1576.63 229.75 1577.66 222.719 1569 211C1594.88 205.447 1623.68 212 1650 210C1641.46 195.319 1622.49 198.495 1608 199.783C1571.26 203.045 1531.91 200.58 1496 210M501 200L499 209C464.969 192.505 418.214 218.887 383 212L383 219C398.042 217.006 413.818 216.776 429 215.925C445.16 215.018 474.594 206.412 489.635 213.822C495.445 216.684 491.668 251.384 486.499 254.178C470.747 262.692 436.301 255.355 418 258.277C411.583 259.301 401.714 257.396 397.743 263.078C391.84 271.526 395.385 283.259 394.323 293C393.576 299.846 390.355 312.068 393.803 318.472C395.249 321.157 412.849 315.586 417 315.217C437.7 313.379 461.333 313.329 482 315.431C485.085 315.744 502.002 317.751 499.108 311.354C496.941 306.56 486.355 307.285 482 306.882C465.023 305.31 448.102 302.367 431 304.72C426.239 305.375 410.695 309.327 408.3 303.697C405.821 297.871 403.883 272.951 409.368 269.22C414.527 265.711 422.933 268.164 428.783 267.857C444.664 267.022 460.245 265.361 476 264.089C480.131 263.755 489.098 266.916 492.186 265.468C502.333 260.709 495.944 228.906 501.612 219.145C503.599 215.724 515.172 214.17 514.677 211.015C514.033 206.914 504.404 201.825 501 200M1634 204C1628.71 205.793 1622.54 205 1617 205C1621.87 201.954 1628.6 202.634 1634 204M1668 203C1664.24 218.424 1667.65 241.467 1670.69 257C1671.8 262.651 1671.96 271.25 1678.11 273.816C1699.35 282.682 1753.6 260.89 1745 233C1729.98 248.946 1721.04 260.734 1699 267.879C1693.71 269.593 1680.67 273.175 1677.88 265.852C1671.93 250.252 1684.71 214.253 1668 203M333 255C349.689 253.325 335.255 234.579 334.011 224C333.354 218.404 339.286 209.937 331.492 206.533C328.004 205.009 308.96 208.798 304 209.457C279.553 212.704 254.117 214.852 230 219.805C226.466 220.531 195.103 223.858 198.106 226.838C204.815 233.496 235.822 226.399 244 224.397C263.621 219.593 286.87 221 307 221C310.698 221 324.483 217.943 326.759 220.043C332.294 225.15 332.299 247.588 333 255M1071 255C1057.56 259.417 1061.81 223.659 1061 215C1063.39 215.488 1072.55 215.93 1068.11 210.886C1062.79 204.84 1050.56 209.366 1044 209.861C1020.87 211.607 997.99 215.88 975 217.869C971.013 218.214 941.18 220.72 946.851 226.189C951.63 230.799 969.058 225.61 975 224.64C994.309 221.487 1032.13 211.405 1050.76 217.386C1062.13 221.04 1051.19 251.356 1058.12 259.219C1062.76 264.475 1072.8 262.957 1071 255M332 211L332 216C329.959 214.35 329.834 213.621 330 211L332 211M830.333 213.667C830.278 213.722 830.222 214.778 830.667 214.333C830.723 214.277 830.777 213.222 830.333 213.667M1061 213C1060.1 215.124 1060.12 215.101 1058 216C1058.48 213.636 1058.64 213.482 1061 213M434.667 225.333C434.223 225.777 435.278 225.722 435.333 225.667C435.778 225.222 434.722 225.278 434.667 225.333M673.148 230.318C641.655 239.009 603.11 236.163 570 241.002C565.727 241.627 538.729 242.735 538.081 246.432C536.647 254.622 563.21 249.556 567 248.911C594.06 244.308 638.068 231.851 664.853 240.501C671.97 242.8 668.48 277.178 676.326 274.239C683.239 271.649 680.301 228.344 673.148 230.318M1990 233C1989.1 241.298 1966.38 236.259 1960 236C1934.09 234.948 1886.03 227.586 1863 241C1861.55 238.579 1860.68 237.902 1858 237C1858 255.083 1861.59 273.185 1864.52 291C1865.35 296.067 1864.8 305.686 1868.69 309.413C1873.19 313.733 1891.71 309.175 1898 309.033C1927.18 308.375 1963.88 314.036 1992 309C1986.55 296.852 1969.5 297.48 1958 298.68C1938.38 300.727 1918.63 300.365 1899 302.215C1892.99 302.782 1879.93 306.296 1874.56 303.178C1871.66 301.493 1873.47 293.17 1872.7 290C1869.07 275.142 1871.06 260.554 1865 246C1886.35 246 1908.79 247 1930 244.677C1943.72 243.175 1964.79 238.98 1977.85 245.056C1987.43 249.51 1980.69 275.73 1980.14 283.999C1979.93 287.057 1979.69 296.996 1985.05 296.222C1990.41 295.45 1989 285.646 1989 282C1989 271.254 1985.28 244.936 2000 243C1997.85 238.118 1995.08 234.824 1990 233M676 251L674 251C673.781 234.567 675.873 234.526 676 251M53 265C46.1926 264.034 42.8816 305.966 51.6779 310.093C56.7691 312.482 73.883 307.063 80 306.302C103.343 303.398 126.464 302.002 150 302C153.607 302 176.637 300.599 174.031 294.394C171.925 289.381 152.653 291.924 148 292.019C128.572 292.413 108.118 294.739 89 298.186C82.7972 299.305 68.006 304.694 62.4017 302.832C57.726 301.278 58.876 291.579 59.675 288C62.4528 275.556 65.4321 264.725 78 262C77.7589 264.413 76.8453 268.54 80.3027 268.963C88.7347 269.996 101.606 262.609 110 260.645C124.231 257.315 137.854 258.95 152 257.436C156.079 256.999 173.89 258.067 172.677 250.239C171.643 243.569 150.599 245.811 146 246.136C122.361 247.81 97.3819 252.414 74 256.363C67.097 257.529 54.2607 256.315 53 265M2029.18 247.408C2026.83 249.609 2028.97 258.145 2029.34 261C2030.34 268.731 2027.22 305.114 2033.5 308.563C2038.29 311.188 2054.73 303.575 2061 303.136C2084.3 301.505 2111.94 300.259 2135 303.919C2139.62 304.652 2162.16 310.821 2164.89 307.722C2171.48 300.247 2142.96 296.054 2140 295.783C2119.03 293.871 2094.94 290.95 2074 293.137C2066.54 293.916 2049.89 301.937 2042.81 297.504C2035.67 293.031 2037.63 264.958 2035.73 257C2035.35 255.426 2032.47 244.326 2029.18 247.408M1144 253C1144.8 266.333 1145.07 279.611 1145 293C1144.98 296.725 1142.82 304.254 1145.28 307.359C1147.64 310.345 1170.04 305.757 1175 305.945C1206.47 307.141 1238.03 304.191 1270 300.562C1274.14 300.093 1305.24 301.451 1299.99 294.652C1294.05 286.958 1272.35 291.812 1264 292.68C1237.05 295.483 1208.1 296.13 1181 297.04C1175.58 297.222 1157.57 302.102 1153.81 298.956C1151.2 296.771 1151.18 291.109 1150.98 288C1149.75 269.486 1167.38 270.561 1183 270C1174.36 266.969 1159.91 273.133 1152.64 268.523C1147.31 265.147 1152.08 256.163 1144 253M676 254L676 257C675.304 255.446 675.304 255.554 676 254M1305 265L1305 256C1299.77 258.229 1300.04 262.619 1305 265M61 264L59 277C51.4835 271.886 52.4841 265.664 61 264M1256 267L1259 266C1257.22 265.045 1256.98 265.234 1256 267M1189.33 267.667C1189.28 267.722 1189.22 268.778 1189.67 268.333C1189.72 268.278 1189.78 267.222 1189.33 267.667M1200 267C1201.87 269.451 1203.19 269.57 1205 267L1200 267M401 268L401 271C400.304 269.446 400.304 269.554 401 268M1126 275C1131.82 274.946 1138.34 275.104 1142 270C1136.14 269.288 1128.54 268.767 1126 275M1187 269L1188 270L1187 269M54 282C54.6702 289.944 55.1436 297.178 57 305C48.8181 301.665 50.7351 289.146 52 282L54 282M400 300C406.233 310.189 395.603 307.206 400 300M1283 307L1284 308L1283 307M965 440C965.027 446.823 967.218 462.736 962.964 468.197C958.205 474.307 946.661 468.462 940.792 471.813C915.318 486.361 952.62 486.925 964 484C962.919 499.622 953.03 518.419 945.495 531.999C943.27 536.009 936.977 539.577 936.283 544.124C934.615 555.04 947.367 543.011 948 536C949.679 538.014 950.36 539.453 951 542C967.904 534.251 956.367 496.942 972 487C972 502.38 971.607 521.234 976.338 536C976.984 538.014 986.343 554.898 987.99 549.429C989.497 544.424 982.227 537.617 980.776 533C977.766 523.419 972.753 494.712 976.834 485.501C980.499 477.23 1005.53 485.84 1009.15 478.159C1011.13 473.948 1005.28 470.197 1002 469.424C995.089 467.799 982.286 470.978 976.733 466.06C969.06 459.265 973.316 445.726 965 440M1034 449C1032.5 464.373 1046.54 494.788 1037.74 508.635C1030.49 520.043 1006.32 507.965 1000 524C1006.8 524.304 1035.2 516.63 1038.69 520.646C1046.44 529.556 1036.25 547.34 1047 555C1053.15 533.789 1040.91 496.994 1040.04 474C1039.63 463.265 1046.14 454.584 1034 449M634 466C634 478.817 640.908 502.005 635.178 513.635C632.8 518.463 606.819 516.908 608.761 522.859C612.158 533.27 629.869 521.51 634.927 526.15C637.342 528.366 637.221 563.501 644.16 559.456C648.26 557.067 645.001 542.134 645 538C644.995 520.573 642.021 503.381 642 486C641.991 478.303 642.412 469.181 634 466M975 470C975.77 488.209 966.854 472.864 975 470M563 518C560.948 524.618 558.128 533.463 553.444 538.684C549.572 543 541.442 544.343 540.815 551.043C539.107 569.318 560.492 550.983 564.849 545.998C568.761 541.521 568.96 524.972 570 518C577.28 525.369 574.401 548.32 585.39 552.375C594.451 555.718 582.258 523.955 584.998 519.35C587.257 515.554 602.62 513.408 601.894 511.125C599.628 503.991 585.526 510.58 580.822 506.74C574.96 501.956 584.704 472.757 574.001 473.187C565.403 473.532 570.546 500.636 565.877 506.499C560.345 513.443 547.301 505.488 540.649 509.822C537.079 512.147 543.319 517.471 545.221 518.684C550.54 522.078 557.294 519.044 563 518M992 475C990.723 476.897 990.177 477.259 988 478C988.578 475.302 989.261 475.211 992 475M994 475C1003.25 476.55 995.955 482.349 994 475M297.742 478.466C283.18 487.805 305.501 523.221 295.362 535.637C292.666 538.94 269.087 542.624 271.544 547.838C276.49 558.338 291.242 542.14 296.983 547.087C299.649 549.384 297.462 585.188 310.131 578.332C313.381 576.573 307.332 560.528 307.062 557C305.511 536.775 304.791 516.294 302.68 496C302.43 493.596 302.879 475.171 297.742 478.466M788 554L776 554C780.557 564.138 804.485 560.529 814 559.864C840.958 557.979 914.972 554.606 907.583 513C899.454 467.233 842.6 478.421 811 487.143C799.866 490.216 786.055 492.351 777.158 500.42C761.057 515.023 773.559 544.001 788 554M90 554C90.5587 563.262 92.8927 570.286 98 578C93.1869 576.802 88.996 576.01 84 576C88.9781 592.707 112.23 611.079 127 619C124.804 598.872 105.385 586.031 101.475 566C99.3953 555.345 98.2894 536.563 100.498 526C102.643 515.736 109.188 502.632 102.974 492.295C99.3315 486.237 96.8252 493.735 96 497C95.3382 495.527 93.5909 481.689 90.3099 485.106C83.047 492.669 97.1365 518.121 91.7227 527.815C87.7552 534.92 80.1385 540.873 75.9602 549C67.0545 566.322 63.972 582.559 50.7551 597.981C47.1108 602.234 29.2518 614.194 37.1369 619.646C43.368 623.955 50.6529 610.972 53.9008 607C67.2444 590.682 76.8564 569.182 90 554M231 483C226.599 495.382 230.775 517.879 223.958 527.794C216.123 539.188 200.109 527.219 194 543C204.533 543.981 213.637 540.979 224 541C215.415 558.507 208.732 570.376 195 585C209.408 590.202 226.21 571.012 228.011 558C228.386 555.288 230.881 539.643 234.092 539.643C238.013 539.643 239.064 552.275 239.737 555C242.166 564.832 252.183 583.583 263 585C257.707 572.407 244.271 555.414 244.498 541.148C244.602 534.587 267.724 538.218 264.456 531.731C260.209 523.3 244.843 533.015 240.26 526.496C230.306 512.339 251.043 493.563 231 483M451 589C436.64 589.273 414.304 589.415 401 594.296C398.467 595.225 384.892 597.99 386.969 602.247C389.074 606.559 410.626 601.61 415 601.217C444.044 598.611 472.758 594.931 502 595.001C505.979 595.01 533.344 598.926 531.942 592.208C528.568 576.037 482.844 585.194 472 586.919C466.534 587.788 456.956 590.233 453.921 583.852C450.838 577.369 450.37 559.578 458.14 556.181C479.219 546.966 516.78 556.001 512.763 520C512.235 515.263 510.725 510.369 508.842 506C494.757 473.331 442.108 479.961 417 493.15C408.526 497.601 394.133 505.712 392.327 516.003C391.516 520.628 392.795 525.369 392.96 530C393.128 534.709 391.586 543.141 393.838 547.318C402.708 563.773 434.349 547.291 445.36 555.3C448.608 557.663 448.407 582.915 451 589M866 485C861.518 490.428 849.581 488.603 843 489.823C823.489 493.441 804.705 508.942 786 511C803.536 489.18 840.191 485.915 866 485M159 655C156.098 635.857 148.042 598.645 154.501 580.284C156.347 575.039 184.782 575.232 182.894 569.44C180.643 562.531 157.905 569.038 153 570C152.956 559.031 151.902 547.939 151.136 537C150.308 525.164 150.536 512.66 148.162 501C147.743 498.944 145.1 489.333 141.238 492.408C135.459 497.007 142.99 517.862 143.677 524.001C147.184 555.375 142.902 587.568 147.427 619C148.95 629.577 145.644 651.953 159 655M496 504C491.679 502.789 489.607 503.352 486 506C510.821 510.795 488.052 532.316 476 538.1C465.891 542.951 455.1 544.999 444 545C435.617 545.001 427.367 545.187 419 545.019C402.347 544.684 392.22 528.651 404.637 514.341C420.203 496.403 446.288 493.862 468 491.438C477.948 490.328 493.009 492.863 496 504M874 497C868.095 500.48 863.26 504.626 859 510C864.165 507.605 880.265 493.255 885.74 499.829C888.164 502.741 885.015 513.963 889.442 514.919C894.379 515.984 892.279 503.111 892 501C905.217 510.312 889.134 526.673 880 532.508C862.074 543.958 811.669 561.23 792.003 547.333C752.828 519.651 826.412 497.719 849 494.942C856.724 493.993 867.513 491.788 874 497M571 512L569 518C566.976 515.074 567.657 513.177 571 512M581 514C578.522 516.553 576.929 515.719 575 513C577.134 513.149 578.934 513.446 581 514M506 519C509.588 525.232 508.309 532.389 502 536C502.94 530.419 503.959 524.275 506 519M498 528C496.489 534.934 492.601 540.27 485 540C488.644 535.889 492.701 532.453 496 528L498 528M85 542C84.1534 549.974 79.015 558.786 73 564C74.1271 556.058 79.0209 548.839 83 542L85 542M407 549C405.106 548.456 403.76 547.904 402 547C404.52 546.469 405.426 546.986 407 549M467 547C465.457 548.267 464.952 548.489 463 549C464.363 547.517 464.973 547.363 467 547M559 618C563.564 611.304 575.651 612.571 583 611.685C604.445 609.098 625.475 606.129 647 604.217C651.937 603.779 669.807 607.735 672.67 604.031C677.262 598.092 654.57 592.569 651 592.77C629.711 593.969 608.404 594 587 594C582.5 594 568.191 591.692 565.668 596.456C563.436 600.671 595.949 600 600 600C591.093 608.401 569.346 605.057 558 604C559.452 599.282 559.987 594.933 559.999 590C560.005 587.756 558.207 563.172 552.228 568.408C549.883 570.461 551.961 578.198 551.992 581C552.105 590.891 548.381 613.292 559 618M945 569C945 583.715 942.12 601.557 944.722 615.927C945.975 622.847 950.269 618.23 951 614C958.062 618.296 968.887 613.183 977 613.019C1001.16 612.528 1026.04 609.02 1050 612.521C1052.68 612.913 1073.99 614.526 1068.97 607.656C1065.49 602.885 1055.08 605.547 1050 604.066C1030.9 598.498 1007.82 599.083 988 601.441C978.83 602.531 963.265 608.04 954.405 604.858C942.206 600.477 954.608 575.934 945 569M915 612C910.78 614.576 909.5 614.47 907 610C898.508 623.474 856.035 619.227 840 620.077C833.036 620.446 822.718 624.235 819.405 615.963C817.248 610.576 813.295 595.807 816.459 590.499C819.582 585.258 854.592 582.54 859.178 586.26C863.651 589.888 859.208 613.357 866.745 613.357C870.529 613.357 863.679 589.811 868.501 586.219C877.339 579.639 901.377 583.89 912 584.007C914.751 584.038 926.552 586.289 924.214 580.209C920.346 570.149 895.235 574 887 574C856.903 574 826.874 577.536 797 580.131C790.177 580.724 767.213 585.581 763.087 590.888C757.795 597.696 772.872 595.152 775 594.508C795.94 588.176 807.336 584.353 811.438 607C812.109 610.702 815.323 618.014 812.964 621.396C809.545 626.295 768.962 623.026 775.289 632.407C778.96 637.848 791.802 634.223 797 633.405C817.623 630.162 838.225 628.063 859 626.217C865.911 625.604 897.679 622.062 901.7 627.638C905.241 632.548 897.307 651.266 904.471 653.902C911.766 656.587 915.983 617.101 915 612M99 588C95.2392 586.564 93.6484 584.642 92 581C96.155 582.145 97.855 583.845 99 588M212 602C212.588 618.584 213.939 635.417 215.136 652C215.457 656.46 215.182 666.206 220.07 668.456C220.707 668.749 236.907 661.773 240 661.062C261.02 656.227 281.273 649.681 303 648.136C306.611 647.879 326.357 648.784 326.357 643.874C326.357 635.533 307.646 637.994 303 638.765C282.064 642.241 261.121 644.908 240.147 648.14C235.249 648.895 230.432 660.467 223.921 655.023C211.238 644.42 231.399 610.015 212 602M952 610.333C952.889 610.333 952.889 611.667 952 611.667C951.111 611.667 951.111 610.333 952 610.333M661 616L661 618L672 621C669.296 616.402 666.217 615.145 661 616M635 617C640.05 620.099 647.234 618.009 653 618L653 616C646.955 616.099 640.97 615.949 635 617M608 621C609.75 621.642 611.127 621.859 613 622C611.25 621.358 609.873 621.141 608 621M559 623C560.159 624.986 561.335 626.411 563 628C563.545 626.365 563.365 626.545 565 626C563.027 624.566 561.32 623.768 559 623M577 624L577 626L587 626L587 624L577 624M908 630.333C908.889 630.333 908.889 631.667 908 631.667C907.111 631.667 907.111 630.333 908 630.333M1221 1588C1243.25 1561.11 1283.36 1539.3 1314 1523.36C1319.6 1520.44 1348.36 1509.53 1348.36 1502.96C1348.36 1497.22 1328.9 1510.86 1327 1511.68C1305.34 1521 1285.05 1535.35 1264.98 1547.62C1240.74 1562.43 1217.09 1581.5 1195 1599.41C1189.32 1604.02 1174.77 1611.6 1172.75 1618.9C1171.66 1622.85 1180.19 1633.88 1181.85 1638C1185.29 1646.51 1184.21 1657.23 1182.24 1666C1177.45 1687.36 1182.37 1706.1 1183.11 1726.94C1183.27 1731.22 1170.89 1735.77 1173.65 1737.07C1184.21 1742.03 1189.31 1732.67 1197 1728.86C1213.16 1720.88 1256.03 1710.1 1258.73 1690C1260.02 1680.45 1259.37 1669.69 1254.35 1661.32C1252.04 1657.49 1242.37 1647.94 1242.5 1643.94C1242.67 1638.79 1256.15 1631.82 1258.61 1626C1269.66 1599.77 1240.51 1590.99 1221 1588M1618 1596C1607.16 1603.85 1579.01 1626.18 1566 1625C1574.16 1612.64 1570.29 1584.12 1572 1569C1558.51 1571.81 1561.13 1598.93 1546.94 1600.9C1526.3 1603.77 1538.57 1554.98 1526 1550C1526.42 1561.78 1526.42 1612.1 1548.78 1605.16C1559.97 1601.68 1558.23 1589.58 1566 1584C1563.65 1597.22 1569.66 1619.87 1560.28 1630.6C1552.76 1639.2 1514.36 1653.1 1516.65 1666.88C1517.78 1673.71 1560.46 1687.79 1565.96 1683.68C1576.26 1675.97 1561.91 1643.25 1569.82 1632.24C1583.72 1612.89 1621.19 1611.27 1634 1592C1592.31 1592.06 1585.27 1537.54 1544 1531.22C1535.04 1529.85 1502.27 1533.8 1498.72 1522.52C1496.01 1513.9 1511.82 1511.32 1517 1511L1517 1509C1510.01 1509 1488.33 1511.47 1493.71 1523.87C1500.2 1538.83 1537.58 1532.89 1551 1537.56C1580.58 1547.86 1591.37 1580.87 1618 1596M1916 1582C1912.03 1572.06 1897.71 1578.79 1905.5 1587.82C1916.41 1600.49 1955.38 1603.91 1955.72 1623C1956.05 1641.61 1924.58 1658.9 1909.28 1646.42C1903.29 1641.54 1902.15 1626.22 1899.87 1619C1897.52 1611.53 1889.1 1585.67 1893.22 1578.49C1896.4 1572.94 1916.94 1570.13 1923 1568.93C1953.18 1562.96 1982.27 1553.24 2012 1547C2005.46 1538.19 1965.28 1556.52 1955 1559.49C1940.08 1563.81 1923.34 1565.31 1908 1567.86C1903.55 1568.6 1891.1 1570.23 1888.27 1573.82C1881.81 1581.99 1892.19 1612.2 1895.42 1620C1899.25 1629.26 1896.86 1647.39 1908.16 1651.88C1929.06 1660.19 1969.44 1644.54 1959.41 1617.01C1954.63 1603.87 1929.63 1597.36 1918 1591.2C1911.42 1587.71 1903.14 1579.28 1916 1582M466 1608C470.663 1608.91 474.46 1608.24 479 1607C476.857 1610.62 473.348 1612.58 471 1616C482.153 1614.69 493.116 1618.8 503 1617C497.389 1611.96 489.452 1608.1 482 1607C509.18 1570.9 523.445 1630.73 506.284 1647.18C499.35 1653.83 480.986 1647.9 472 1650C477.283 1657.63 497.755 1654.09 506 1653C503.045 1672.43 505.812 1691.49 502 1710C516.003 1706.33 519.813 1693.38 525.754 1682C538.231 1658.1 545.874 1631.01 556.057 1606C560.199 1595.82 567.488 1576.82 565 1566C553.762 1574.22 548.68 1613.17 543.228 1627C540.94 1632.8 539.382 1643 532.895 1645.47C491.576 1661.24 540.587 1580.68 494 1593.2C489.522 1594.4 485.071 1596.19 481 1598.41C475.858 1601.21 469.965 1603.66 466 1608M128 1658C115.32 1685.91 155.236 1694.08 167.854 1675.36C171.568 1669.85 140.079 1661.78 137.168 1657.15C133.802 1651.79 172.778 1612.24 149 1617C160.626 1607.39 176.249 1602.38 190 1596.62C195.403 1594.36 204.333 1592.16 206 1586C174.219 1598.61 142.802 1612.05 112 1626.79C106.387 1629.48 85.0034 1638.64 85.0029 1645.88C85.0025 1651.74 122.272 1657.72 128 1658M1218 1654C1224.42 1653.91 1233.72 1646.92 1239.35 1649.35C1253.19 1655.32 1260.95 1685.04 1251.4 1696.81C1244.41 1705.44 1224.3 1711.36 1214.22 1716.28C1208.38 1719.13 1196.92 1727.28 1190.27 1725.65C1177.4 1722.5 1185.08 1677 1186.65 1667.86C1188.12 1659.25 1188.83 1645.3 1186.06 1637C1184.29 1631.71 1176.59 1623.25 1179.98 1617.58C1184.53 1609.96 1206.15 1592.83 1215.04 1591.44C1231.46 1588.86 1260.78 1599.66 1256.43 1620C1252.44 1638.7 1229.56 1642.22 1218 1654M866 1610C864.095 1607.12 862.244 1606.14 859 1605C868.12 1597.79 878.193 1610.34 882 1618C876.348 1617.71 873.181 1614.26 868 1613C869.652 1620.94 876.059 1621.48 883 1620C882.998 1635.67 876.702 1651.91 869.973 1666C867.46 1671.26 862.649 1683.61 866.3 1689.2C872.319 1698.42 896.02 1699.11 906 1702C895.589 1712.41 883.096 1725.81 868.981 1731.17C859.719 1734.69 849.924 1732.89 841 1735.95C836.888 1737.36 819.696 1743.54 819.761 1748.62C819.798 1751.5 845.882 1745.3 850 1744.72C874.309 1741.32 896.933 1748.08 921 1746.95C923.715 1746.82 942.654 1743.34 942.239 1742.51C939.475 1737.01 904.622 1742.67 897 1740.72C885.862 1737.87 875.462 1738 864 1738C882.378 1729.66 898.428 1718.75 911.544 1702.92C913.93 1700.04 923.583 1689.12 919.755 1685.1C917.789 1683.04 908.381 1692.72 906 1693.74C899.531 1696.51 882.309 1693.21 876.148 1689.91C862.492 1682.62 884.02 1647.41 886.961 1638C888.46 1633.2 886.207 1626.66 888.477 1622.37C891.014 1617.58 898.509 1620.43 902 1616C883.367 1617.12 884.208 1601.33 867.959 1598.51C849.195 1595.25 847.042 1606.27 866 1610M153 1622C148.777 1629.05 137.954 1652.68 129.625 1654.3C124.189 1655.37 116.488 1650.19 111 1649.26C107.747 1648.71 92.2318 1649.6 91.9626 1644.95C91.7474 1641.24 101.492 1637.72 104 1636.03C113.992 1629.32 141.089 1619.1 153 1622M1563 1635L1563 1679C1557 1678.09 1523.18 1672.5 1522.98 1665.74C1522.69 1655.59 1554.36 1641.67 1561 1635L1563 1635M534 1651C526.532 1665.27 522.835 1687.53 510 1698C504.207 1676.04 504.191 1647.42 534 1651M131.645 1662.92C137.357 1660.41 162.196 1673.3 157.469 1675.98C151.898 1679.14 138.894 1681.56 133.107 1678.38C128.502 1675.85 125.363 1665.68 131.645 1662.92M849 1739L849 1741L843 1741L843 1739L849 1739M1223 1865L1223 1870C1225.14 1868.47 1225.5 1867.6 1226 1865L1223 1865M134 1938C109.392 1950.28 26.01 1942.38 52.9319 1988C55.9208 1993.06 59.9367 1997.6 63.8607 2001.95C70.4034 2009.22 100.98 2017.52 102.135 2025.47C105.188 2046.45 91.4175 2047.69 77 2053.98C74.2712 2055.17 60.4777 2060.49 63.4076 2064.93C66.6667 2069.87 98.9983 2084.66 102.753 2079.62C107.842 2072.78 99.0747 2054.46 108.148 2051.5C118.763 2048.03 132.925 2049.07 144 2048.9C146.746 2048.86 154.728 2050.26 155.894 2046.69C157.086 2043.05 147.376 2038.96 145 2037.71C136.57 2033.28 109.396 2025.21 106.504 2015.87C101.949 2001.17 111.797 1984.86 111.263 1970C111.122 1966.08 108.142 1956.56 102.5 1958.11C98.8385 1959.11 100.252 1966.37 100.496 1969C101.801 1983.04 100.846 1990.12 96 2003L101 2002C103.818 2032.27 49.7519 1990.94 50.1355 1970.04C50.3269 1959.62 79.1651 1955.11 86.8638 1953.05C125.517 1942.68 174.6 1947.94 210 1929C204.517 1924.85 197.118 1930.74 191 1931.82C176.574 1934.37 147.735 1942.45 134 1938M106 1971.33L106.333 1971.67C105.84 1971.83 105.227 1971.33 106 1971.33M506 2033C512.637 2056.89 509.398 2084.6 486.972 2099.29C472.478 2108.78 446.76 2111.74 430 2116.22C421.924 2118.37 395.444 2120.29 392 2127C424.202 2132.76 458.329 2133.1 490 2140.67C493.885 2141.59 519.661 2153.41 520.559 2148.62C521.513 2143.52 500.827 2138.14 497 2136.81C471.226 2127.85 442.528 2132.2 416 2126C438.539 2115.5 471.528 2117.42 491.778 2103.72C497.863 2099.6 497.335 2091.85 501.741 2086.77C508.465 2079.01 514.39 2076.19 515.443 2065C516.737 2051.25 511.834 2036.44 510.218 2022.92C509.374 2015.87 518.072 1988.17 510.355 1983.84C504.283 1980.44 493.278 1983.83 487 1984.94C463.795 1989.07 451.044 1996.35 430.997 2007.98C426.564 2010.55 408.684 2018.43 408.945 2024.04C409.387 2033.54 430.194 2038.58 437 2041.74C462.705 2053.65 496.64 2069.04 506 2033M495.999 1987.54C515.231 1985.95 505.278 2047.98 488.978 2049.83C466.884 2052.35 452.539 2041.92 433 2033.81C429.432 2032.33 415.003 2028.8 415.003 2023.94C415.003 2019.82 429.68 2013.94 433.04 2011.93C453.792 1999.49 471.159 1989.58 495.999 1987.54M143 2040C141.433 2044.46 108.204 2048.95 105.029 2045.34C102.357 2042.3 105.974 2026.83 109.978 2025.88C113.449 2025.06 120.04 2030.04 123 2031.63C129.564 2035.15 135.5 2038.99 143 2040M70 2063C74.2978 2059.71 93.9043 2049.95 98.3146 2055.82C100.947 2059.33 102.164 2075.71 95.8521 2075.97C88.8955 2076.26 77.0769 2065.69 70 2063z"/>
</svg>
