<?xml version="1.0" standalone="yes"?>
<svg xmlns="http://www.w3.org/2000/svg" width="2200" height="2200">
<path style="fill:#232323; stroke:none;" d="M250 281L250 284L252 281L250 281M651 391C653.352 390.99 653.614 390.895 655 389C653.048 389.511 652.543 389.733 651 391M624.5 581.5C623.873 582.127 624.872 583.127 625.5 582.5C626.128 581.872 625.127 580.873 624.5 581.5M19 632L19 635C19.6961 633.446 19.6961 633.554 19 632M673 636C674.175 635.227 674.227 635.175 675 634C673.365 634.545 673.545 634.365 673 636M19 644L19 647C19.6961 645.446 19.6961 645.554 19 644M19.3333 653.667C19.2778 653.722 19.2222 654.778 19.6667 654.333C19.7221 654.278 19.7779 653.222 19.3333 653.667M577 669C577.773 670.176 577.824 670.227 579 671C578.455 669.365 578.635 669.545 577 669M19 707L20 708L19 707M1180 1014C1179.06 1016.05 1178.47 1017.79 1178 1020C1180.98 1018.48 1181.64 1017.31 1182 1014L1180 1014M692 1715C694.315 1717.32 695.957 1719.68 699 1721C697.867 1716.66 696.638 1714.93 692 1715M1718 1781C1718.9 1782.92 1719.08 1783 1721 1784C1720.1 1781.88 1720.12 1781.9 1718 1781M1162 1889L1165 1887L1162 1889M57 1964L57 1967L60 1967L60 1964L57 1964M768 2181L774 2181C771.693 2178.59 770.5 2178.92 768 2181z"/>
</svg>
