<?xml version="1.0" standalone="yes"?>
<svg xmlns="http://www.w3.org/2000/svg" width="2200" height="2200">
<path style="fill:#0c0c0c; stroke:none;" d="M1661 79C1661.58 86.0002 1660.24 92.7488 1667 97C1667 90.5989 1670.3 56.3003 1663.56 54.1057C1661.72 53.5042 1659.07 71.8721 1656.29 75.1335C1639.45 94.894 1617.51 113.763 1605.35 137C1603.07 141.375 1583.45 168.217 1587.59 170.456C1591.48 172.563 1595.87 161.848 1597.52 159.562C1605.66 148.228 1611.65 135.393 1620.43 124.68C1622.07 122.672 1627.03 114.447 1630.31 115.761C1635.7 117.914 1632.84 153.119 1633.04 159C1633.09 160.475 1633.84 172.926 1637.34 170.456C1642.02 167.163 1636.78 132.36 1636.22 126C1634.41 105.719 1645.19 91.9336 1661 79M1290 206C1291.65 213.672 1292.62 255.108 1302.89 253.646C1310.83 252.514 1308.26 233.614 1307.86 228C1306.01 201.485 1305.86 172.525 1308.22 146C1308.62 141.515 1313.07 110.104 1308.72 109.323C1301.84 108.089 1291.73 140.789 1289.02 146C1275.88 171.234 1260.95 195.936 1249.54 222C1247.72 226.171 1235.56 242.935 1240.09 246.429C1244.21 249.605 1250.52 241.011 1253.04 238.68C1265.13 227.495 1277.81 217.056 1290 206M1950 115.583C1909.06 123.656 1923.67 184.668 1943.21 204.93C1949.32 211.264 1968.97 223.497 1978.43 219.011C1979.76 218.381 1953.28 207.005 1949 202.949C1930.19 185.116 1916.51 140.486 1945.08 123.534C1983.09 100.979 2020.94 163.177 1992.34 191.297C1972.7 210.603 1940.75 186.092 1943.44 163C1943.74 160.409 1949.04 141.243 1944.1 142.885C1938.51 144.746 1938 163.066 1938 168C1938.01 187.267 1960.87 205.713 1980 202.481C2002.72 198.644 2010.73 171.65 2005 151C1998.08 126.068 1975.61 110.532 1950 115.583M1305 127C1299.55 166.891 1306.69 207.431 1303 247C1293.04 235.473 1303.69 208.159 1295.49 198.105C1293.54 195.713 1285.46 203.666 1283.84 204.998C1273.75 213.328 1262.06 227.135 1250 232C1260.98 196.588 1286.14 160.194 1303 127L1305 127M1957 158C1958.98 162.731 1961.96 160.262 1964.96 163.106C1968.15 166.132 1963.91 172.615 1967.15 175.592C1968.92 177.217 1970.33 174.139 1970.64 172.849C1973.31 161.45 1973.15 161.296 1986 163C1983.98 155.639 1975.96 160.585 1972.26 155.396C1968.72 150.436 1972.24 141.704 1971 136C1961.99 142.644 1970.7 156.242 1957 158M518 142.479C500.199 145.127 482.111 161.274 480.163 180C477.995 200.849 493.91 226.742 518 222.678C541.613 218.695 566.375 194.718 563.827 169.003C562.121 151.786 533.115 140.231 518 142.479M518 147.339C573.948 140.331 560.661 213.389 515 218.598C472.361 223.462 480.274 152.065 518 147.339M184.04 155.479C169.491 157.525 152.042 172.617 150.447 188.136C148.708 205.054 159.75 228.649 180 226.488C215.682 222.68 229.664 149.06 184.04 155.479M551 174L555 176C549.376 145.302 508.421 157.467 500.93 181C496.084 196.224 512.153 213.742 527.981 206.93C541.186 201.247 545.517 185.899 551 174M183 184C181.399 179.516 179.864 165.471 183.082 161.604C185.906 158.211 198.88 157.084 199.575 163.07C200.22 168.633 186.93 180.392 183 184M176 162C177.985 169.568 177.371 177.407 179 185C161.566 183.768 162.531 168.618 176 162M523 163.372C527.147 162.716 539.824 161.039 542.641 164.94C550.698 176.099 533.354 201.944 522 203.626C497.61 207.24 502.972 166.536 523 163.372M188 188C189.632 183.471 198.417 169.003 203.855 169.003C208.372 169.003 209.778 182.356 207.16 184.876C203.425 188.472 192.941 187.704 188 188M171 187C153.354 188.03 161.726 175.931 171 187M161 212C141.388 195.138 179.74 182.911 166.626 202.999C164.685 205.973 162.757 208.911 161 212M206 191C204.842 195.883 202.88 201.695 199 205C195.808 200.066 191.004 196.62 189 191C194.898 191.781 200.102 191.549 206 191M1272 196C1274.51 195.064 1275.06 194.506 1276 192C1273.99 193.228 1273.23 193.991 1272 196M177 195C176.543 203.93 176.036 213.065 176 222C160.985 219.515 166.209 199.271 177 195M179 221C180.391 215.435 178.608 200.856 182.182 196.969C185.065 193.834 193.84 203.718 195.038 206.04C199.354 214.401 184.961 220.169 179 221M937 202.311C929.209 205.787 925.009 216.026 916 217.539C906.989 219.052 898.624 206.716 889.538 214.604C884.734 218.775 878.389 240.647 890.163 239.886C899.574 239.278 907.537 227.133 916.136 227.235C925.811 227.35 933.91 236.227 943.997 230.969C957.031 224.174 950.987 196.07 937 202.311M938.331 206.047C949.461 203.743 951.65 225.463 938.997 227.602C914.89 231.678 921.039 209.625 938.331 206.047M893.105 216.926C896.309 215.855 910.323 219.447 909.677 223.997C908.993 228.813 897.971 232.425 894.011 233.616C883.974 236.634 886.05 219.282 893.105 216.926M182 474.594C132.13 484.827 145.462 556.831 156.782 590C161.118 602.706 180.388 626.224 196 623.108C211.633 619.988 220.843 601.747 225.056 588C234.719 556.469 240.949 462.497 182 474.594M1290 478.457C1271.2 480.954 1270.96 491.073 1257.49 499.74C1247.55 506.135 1236.76 500.124 1230.24 514.003C1217.09 541.974 1222.59 580.62 1261 575.934C1273.37 574.424 1280.83 562.024 1289.08 554.121C1303.34 540.459 1318.26 537.61 1323.22 516C1327.6 496.901 1309.08 475.922 1290 478.457M184 479.342C234.788 472.579 231.914 557.026 221.233 587C216.911 599.131 210.547 616.205 195.922 618.643C181.824 620.993 166.541 601.434 162.107 590C150.902 561.108 136.831 485.623 184 479.342M1294 544C1294.51 538.685 1291.93 496.082 1279 511C1254.77 497.243 1275.68 479.033 1296.86 482.225C1329.64 487.163 1319.63 536.437 1294 544M900 497C904.465 517.809 895.751 540.256 901 561C893.583 559.717 878.872 564.289 872.9 558.759C867.523 553.78 875.459 545.175 866 541C864.182 560.668 859.913 577.734 864 598C874.701 591.846 863.389 576.633 871.035 567.501C877.001 560.376 916.292 564.707 921.818 571.678C926.653 577.776 922.425 587.975 925 595C930.437 589.466 931.454 565.508 932.059 557C932.225 554.677 934.426 546.013 930.741 545.323C925.164 544.279 924.88 561.462 921.284 563.438C917.779 565.364 905.594 562 901 562C908.555 553.573 909.304 523.023 909.079 511.922C908.995 507.722 905.26 502.532 906.966 498.421C908.379 495.017 953.679 496.834 956.48 501.501C964.775 515.322 950.274 544.079 954 560C963.087 552.648 961.445 523.237 962.075 512C962.336 507.346 964.617 500.525 959.716 497.499C936.788 483.344 890.64 494.441 866 494.995C855.62 495.229 845.943 489.782 835.07 492.468C826.401 494.61 830.981 528.788 831.001 537C831.007 539.612 830.225 550.084 834.778 549.813C839.319 549.543 835.269 539.348 835.097 537C834.594 530.128 831.676 501.542 836.741 497.461C843.91 491.683 854.572 498.214 862 499.863C870.161 501.675 892.331 500.649 900 497M184.872 500.408C181.774 502.888 185.611 515.398 185.864 519C187.106 536.692 186.135 554.291 186.012 572.019C185.994 574.529 185.883 590.355 191.585 587.456C195.179 585.629 192.01 574.434 192.001 571C191.953 553.037 192.808 534.891 191.217 517C191.047 515.083 190.693 495.747 184.872 500.408M875 501L875 503L878 503L878 501L875 501M1684 508C1677.69 498.078 1654.28 502.999 1644 503C1629.61 503.001 1614.23 502.048 1600 503.687C1596.33 504.11 1587.77 503.492 1585.87 507.491C1583.88 511.68 1588 525.558 1588 531C1588 536.065 1586.34 544.86 1588.91 549.391C1591.36 553.71 1590.96 512.389 1593.54 510.306C1599.65 505.385 1610.96 508.915 1618 508.993C1621.51 509.031 1632.32 506.578 1634.75 508.998C1639.34 513.575 1638.92 530.794 1638.99 537C1639.27 562.406 1633.96 588.666 1634.14 613.019C1634.19 619.668 1634.37 644.66 1630.14 649.06C1621.86 657.658 1604.32 633.302 1600.54 638.888C1598.1 642.497 1615.95 653.953 1619 654.996C1631.08 659.129 1661.86 655.169 1670.82 646.555C1680.55 637.21 1641.39 653.99 1637.86 645.491C1636.15 641.364 1640.94 624.886 1640.99 619C1641.25 592.547 1641.09 564.414 1643.3 538C1643.82 531.772 1638.02 511.331 1642.84 507.26C1651.3 500.114 1673.87 509.19 1684 508M1982 519C1989.59 517.944 1993.99 509.202 1999 504C2003.71 530.206 2000.49 511.115 2019 518C2011.04 497.734 1988.88 499.546 1982 519M1284 552C1281.22 557.682 1276.04 563.35 1270.92 567.092C1235.09 593.304 1222.98 543.62 1232.63 518.136C1235.12 511.575 1247.25 499.882 1255.18 504.824C1259.38 507.44 1256.51 519.672 1257.35 524C1259.58 535.576 1272.64 549.469 1284 552M1264.74 507.146C1277.95 502.996 1304.96 541.512 1283.87 547.477C1271.13 551.08 1262.9 529.366 1262.14 520C1261.91 517.077 1260.94 508.342 1264.74 507.146M1282 511C1284.89 513.708 1286.06 516.169 1287 520C1284.02 517.453 1281.64 515.09 1282 511M1686 513C1675.92 515.367 1679.92 529.984 1680.01 538C1680.11 546.862 1682.28 556.106 1680.74 564.96C1678.27 579.116 1665.28 598.171 1686.08 608.632C1698.83 615.047 1708.23 596.056 1706.7 586C1704.29 570.278 1691.56 573.855 1686.78 564.716C1680.72 553.115 1683.77 525.581 1686 513M2003.14 526.224C1997.31 526.431 2003.64 539.184 1999.2 541.677C1995.44 543.789 1990.11 533.335 1987.84 531.365C1981.88 526.183 1971.91 527.824 1966.09 532.526C1953.28 542.857 1961.19 550.023 1960.94 562C1960.78 569.149 1951.33 574.213 1952.69 581.915C1956.38 602.802 1996.55 603.647 2012 602.952C2026.12 602.317 2036.92 597.117 2048.14 589.479C2050.96 587.554 2058.91 584.365 2058.61 580.141C2058.1 572.814 2046.37 569.831 2045.46 562.783C2043.84 550.331 2054.43 541.625 2040.85 530.461C2024.93 517.371 2022.33 543.958 2011.12 542.665C2002.87 541.714 2010.88 525.95 2003.14 526.224M2030.15 532.341C2046.74 529.183 2048.66 561.425 2032 564.266C2019.14 566.458 2017.05 534.832 2030.15 532.341M1977 532.949C1997.4 533.64 1992.54 565.738 1974.07 564.755C1957.22 563.858 1959.81 532.368 1977 532.949M2004.01 547.549C2022.52 546.883 2014.12 559.24 2026.54 567.936C2035.3 574.07 2042.22 562 2050.36 576C2058.61 590.18 2016.5 599.654 2008 599.944C1994.92 600.392 1941.93 592.584 1962.7 570.311C1967.28 565.398 1977.41 570.558 1984 566.146C1991.73 560.964 1993.93 547.911 2004.01 547.549M476 565C488.536 567.728 501.66 561.772 514 560.258C527.239 558.634 539.95 561.873 553 562C549.66 554.18 541.016 555.573 534 555.922C518.607 556.688 487.971 554.1 476 565M1583.22 556.862C1554.81 567.641 1569.05 618.265 1601.34 606.534C1633.32 594.913 1617.14 543.991 1583.22 556.862M1586 560.526C1614.47 553.41 1624.9 596.249 1600 602.957C1571.2 610.713 1561.84 566.568 1586 560.526M1693.39 573.565C1705.8 579.657 1702.27 611.875 1688.09 604.993C1674.59 598.443 1675.42 564.747 1693.39 573.565M942.667 683.333C942.222 683.778 943.278 683.722 943.333 683.667C943.778 683.222 942.722 683.278 942.667 683.333M1240 882C1246.38 889.156 1257.29 885.166 1263.28 890.939C1267.03 894.548 1264.93 905.023 1266 910C1253.75 910 1241.17 909.171 1229 910.698C1225.76 911.105 1217.63 914.313 1214.86 912.524C1209.98 909.368 1218.38 893.261 1212.24 891.106C1205.84 888.861 1205.09 917.152 1209.5 919.482C1214.88 922.32 1228.77 915.587 1235 915.137C1256.23 913.603 1276.96 918.245 1298 917.983C1303 917.921 1319.74 921.768 1322.72 918.413C1325.45 915.333 1327.53 894.003 1321.24 894.003C1316.15 894.003 1323.98 911.92 1316.72 913.278C1302.59 915.919 1260.6 916.238 1270.38 892.73C1272.08 888.625 1288.47 893.421 1287.56 889.004C1286.6 884.39 1276.48 886.508 1273.28 884.937C1266.24 881.475 1269.36 849.678 1268.92 842C1268.74 838.894 1267.94 829.003 1263.31 829.003C1259.39 829.003 1263.49 839.16 1263.73 841C1264.87 849.418 1269.57 875.074 1264.52 882.138C1261.37 886.559 1245.17 880.879 1240 882M864 853C865.49 871.859 872.101 891.425 875.89 910C876.588 913.426 875.586 926.993 880.023 927.677C885.266 928.485 890.378 912.769 892 909C895.214 924.046 885.008 947.187 881.28 961.96C880.147 966.449 874.603 975.652 876.856 980.108C879.525 985.386 886.045 961 886.587 959C888.037 953.649 889.691 948.391 891 943C896.974 952.302 908.303 979.231 919 982C916.307 964.249 897.108 952.589 894.083 935C893 928.7 896.704 921.947 898.173 916C898.996 912.667 902.173 898.665 897.597 897.224C890.707 895.052 887.124 915.64 880 917C882.341 906.043 875.31 856.27 864 853M1619 866C1617.71 883.006 1627.77 906.384 1621.62 922.635C1620 926.921 1594.09 921.205 1595.32 926.922C1596.49 932.369 1618.56 926.899 1622.86 930.744C1629.41 936.608 1618.51 952.391 1629 957C1629 952.315 1626.4 936.096 1630.58 933.396C1634.82 930.659 1655.33 936.369 1656.57 928.824C1656.9 926.831 1632.19 930.439 1628.26 925.257C1617.42 910.991 1634.7 877.32 1619 866M2031 895C2027.53 883.629 2003.95 883.884 1994 885.516C1991.62 885.907 1981.97 886.537 1981.32 889.459C1980.5 893.182 1990.49 891.352 1992 891.217C2005.12 890.037 2018.42 891.362 2031 895M481 939C478.455 935.082 476.385 930.911 473.816 927C471.937 924.14 470.367 921.258 469.281 918C460.921 892.914 469.144 945.956 479.631 950.239C482.794 951.53 484.207 942.746 484.842 941C488.628 930.588 493.78 920.244 494 909C501.632 917.507 501.009 934.398 506.645 944.981C508.13 947.77 512.193 955.202 516.399 953.383C524.654 949.811 524.674 914.52 531.29 914.52C544.225 914.52 540.058 961.841 561 951C558.884 954.425 556.598 957.703 554.29 961C552.019 964.244 549.963 972.604 546.99 974.677C544.279 976.567 542.778 967.379 542.26 966C540.683 961.798 537.356 930.002 530.796 932.967C521.608 937.119 526.547 977.48 512.289 977.48C511.171 977.48 492.202 930.398 489.284 943.167C488.47 946.728 489.065 950.413 488.084 954C487.072 957.699 485.806 961.162 485.329 965C484.633 970.606 483.247 975.529 482 981C473.84 973.501 468.379 939.607 456 940C461.141 953.054 467.711 966.448 474.049 979C475.386 981.647 477.94 990.112 481.338 990.574C492.122 992.039 492 956.964 492 951C502.526 960.167 499.12 978.412 509.08 987.149C513.726 991.225 518.743 983.408 520.578 979.999C526.731 968.565 528.328 957.612 530 945C536.99 951.718 532.448 981.931 545.063 983.559C552.822 984.56 563.422 957.094 565.941 951C566.802 948.917 568.36 939.432 571.68 940.081C575.452 940.82 579.794 983.045 586.075 976.108C589.203 972.653 582.772 962.099 582.141 958C578.766 936.073 576.74 921.946 562 946C559.814 932.203 573.103 921.682 574 909C583.759 918.409 582.313 945.82 595 950C594.048 941.836 580.19 889.574 566.219 906.774C562.931 910.822 559.653 945.116 553.281 943.919C546.483 942.642 538.034 898.597 529.687 902.668C520.462 907.166 520.992 938.374 512 947C510.024 939.401 503.284 902.161 495.931 900.224C490.944 898.91 481.935 933.568 481 939M159 999C156.558 1008.59 155.345 1022.12 149 1030C147.928 1025.87 144.125 1005.14 139.653 1004.54C133.838 1003.77 129.049 1024.87 128 1029C122.757 1021.56 124.879 1009.13 117.809 1002.98C111.794 997.745 107.035 1023.36 107 1027L104 1027C103.622 1021.56 100.53 1003 92.9127 1003C88.6731 1003 76.6096 1027.75 77.9454 1031.66C80.4328 1038.96 90.663 1011.47 93.5979 1012.08C99.7705 1013.36 105.828 1050.78 112.949 1022C113.894 1018.18 114.481 1015.09 117 1012C117.851 1015.89 122.278 1041.44 131.087 1034.94C136.295 1031.09 134.527 1020.88 140 1016C142.564 1040.93 158.043 1041.81 159 1016C166.245 1021.16 164.227 1033.93 172.371 1038.67C178.828 1042.43 182.006 1015.25 183 1011C188.748 1017.44 191.735 1034.66 198.586 1038.47C204.802 1041.93 209.263 1013.43 208 1009C216.899 1016.3 215.662 1034.91 228 1037C226.161 1031.34 216.554 998.205 206.781 1004.37C201.46 1007.72 201.182 1021.65 197 1027C195.901 1022.88 187.202 999.509 180.924 1004.93C175.171 1009.9 175.593 1023.48 171 1030C168.797 1020.63 167.575 1004.39 159 999M1287 1183C1289.22 1192.06 1299.44 1214.18 1290 1221L1296 1237C1266.89 1219.4 1205.96 1244.8 1189.53 1273C1179.15 1290.83 1173.18 1315.46 1189.24 1331.7C1220 1362.8 1259.6 1336.71 1282.4 1311.08C1297.26 1294.37 1309.67 1276.82 1293.28 1255.28C1287.67 1247.92 1268.75 1251.58 1261 1253.35C1235.31 1259.21 1204.54 1263.03 1201.32 1294C1200.74 1299.55 1199.79 1307.79 1203.25 1312.6C1216.23 1330.66 1251.72 1308 1261.18 1296.96C1265.88 1291.47 1273.19 1283.86 1268.06 1276.32C1258.76 1262.64 1221.8 1273.75 1226.1 1289.49C1226.34 1290.36 1266.51 1260.81 1264.58 1281.03C1263.21 1295.31 1217.84 1326.31 1207.26 1307.81C1189.33 1276.47 1234.03 1269.52 1251 1262.88C1260.99 1258.98 1279.56 1252.31 1289.68 1259.82C1306.51 1272.31 1290.91 1294.88 1280.99 1305C1259.18 1327.25 1230.53 1351.92 1198 1332.55C1174.61 1318.62 1183.03 1285.07 1199.6 1268.76C1215.69 1252.92 1256.43 1232.19 1280 1235.46C1289.04 1236.71 1293.82 1243.49 1301 1248C1303.27 1234.11 1302.21 1188.57 1287 1183M1963.66 1197.38C1952.87 1202.97 1939.39 1225.31 1933.83 1236C1932.37 1238.79 1927.3 1247.1 1928.95 1250.25C1932.13 1256.32 1949.09 1246.77 1954.06 1251.04C1957.68 1254.15 1955.94 1262.91 1955.43 1267C1953.59 1281.86 1954.47 1300.71 1949.51 1314.81C1947.57 1320.3 1939.14 1316.31 1935 1316.08C1919.88 1315.23 1908.79 1319.27 1912.28 1336.99C1914.01 1345.74 1925.62 1347.26 1933 1347.86C1951.58 1349.36 1978.11 1347.8 1996 1343.12C2000.95 1341.82 2009.13 1343.71 2013.26 1340.62C2017.63 1337.33 2020.53 1320.77 2015.5 1317.26C2006.51 1310.99 1988.69 1323.04 1980.94 1315.18C1973.56 1307.69 1980 1274.4 1980 1264C1980 1260.19 1978.47 1252.24 1980.7 1248.98C1983.58 1244.77 2004.25 1254.24 2003.64 1244.79C2002.82 1232.08 1982.84 1215.17 1975.68 1205.01C1973.29 1201.63 1968.77 1194.74 1963.66 1197.38M1999 1244C1994.25 1244 1979.32 1240.88 1976.3 1244.82C1974.04 1247.77 1975.84 1255.32 1975.44 1259C1973.89 1273.02 1973.06 1292.03 1974.56 1306C1974.98 1309.84 1973.81 1320.06 1976.95 1322.7C1984.59 1329.14 2001.94 1317.1 2010.39 1320.96C2014.45 1322.81 2012.23 1332.65 2009.88 1335.18C2006.4 1338.91 1994.92 1338.56 1990 1339.52C1976.21 1342.24 1917.84 1348.46 1917.5 1330.01C1917.15 1311.25 1952.76 1332.22 1955.72 1321.58C1957.23 1316.14 1955.7 1306.95 1956.07 1301C1956.95 1286.89 1966.33 1261.65 1959.18 1248.5C1955.73 1242.16 1934.38 1251.25 1934.84 1244.72C1935.68 1232.75 1950.43 1220.54 1957.42 1211.92C1959.54 1209.32 1962.7 1201.79 1966.84 1202.32C1973.67 1203.21 1996.47 1236.93 1999 1244M1594 1296C1610.56 1297.54 1635 1304.92 1648.5 1290.38C1658.19 1279.93 1638.83 1231.57 1627 1227C1626.86 1231.66 1625.69 1235.56 1624.4 1240C1623.27 1243.86 1622.92 1256.71 1619.29 1258.71C1615.67 1260.69 1611.33 1254.23 1609.63 1251.99C1602.16 1242.11 1596.41 1232.63 1586.8 1224.44C1584.12 1222.15 1563.03 1203.81 1560.99 1210.41C1559.45 1215.37 1572.31 1219.85 1575.43 1222.32C1590.17 1233.94 1597.01 1247.92 1609.66 1260.6C1611.6 1262.54 1620.67 1267.03 1623.22 1265C1628.35 1260.91 1624.12 1239.34 1631.19 1237.87C1634.27 1237.22 1636.13 1246.96 1636.83 1249C1639.47 1256.66 1649.98 1283.08 1642.77 1289.03C1632.2 1297.74 1597.87 1286.24 1594 1296M335 1239C336.783 1230.49 326.263 1230.39 335 1239M178 1237C168.213 1254.91 155.324 1270.58 150 1291C139.658 1277.52 131.19 1263.17 118.001 1251.6C115.892 1249.75 109.889 1241.26 106.947 1242.1C101.054 1243.79 105.939 1256 106.64 1260C109.271 1275.01 110.957 1289.87 112.823 1305C113.041 1306.77 113.868 1320.07 117.961 1317.47C119.858 1316.27 116.018 1299.22 115.998 1296C115.963 1290.64 115.326 1285.32 114.685 1280C113.667 1271.57 110.378 1263.44 110 1255C122.091 1263.57 133.869 1273.14 141.893 1286C143.566 1288.68 147.706 1301.36 151.131 1301.36C154.568 1301.36 154.492 1293.21 155.018 1291C157.633 1279.99 167.047 1272.51 170.762 1262C171.395 1260.21 175.131 1250.06 178.119 1251.64C180.349 1252.82 179.926 1265.37 180.042 1267.92C180.491 1277.88 177.515 1313.06 184 1319C191.31 1293.66 181.504 1262.84 181 1237L178 1237M536 1318C538.461 1304.21 544.947 1263.9 561 1260C552.042 1248.59 538.356 1285.33 536.043 1292C535.33 1294.06 534.751 1303.48 531.821 1303.48C519.198 1303.48 517.799 1256.64 502.388 1256.64C500.113 1256.64 508.244 1269.6 509.124 1271C517.385 1284.17 522.738 1309.36 536 1318M882 1262C883.084 1287.26 876.647 1311.05 873.13 1336C872.262 1342.16 866.979 1357.18 875 1360C875 1331.12 881.956 1299.49 887 1271C900.496 1291.18 905.062 1335.46 925 1349C923.711 1329.3 906.754 1297.96 897.158 1280.56C893.261 1273.5 890.132 1265 882 1262M844 1327C841.542 1337.08 846.535 1383.2 855 1389C857.15 1380.44 873.007 1384.28 880 1383.92C896.516 1383.09 912.422 1380 929 1380C935.048 1380 947.997 1381.46 953.178 1378.18C961.067 1373.19 952.229 1332.38 945 1329C946.069 1340.42 954.192 1359.9 949.178 1370.76C946.407 1376.76 907.071 1380.23 903.94 1375.28C898.922 1367.36 901.566 1343.96 900.005 1334C899.59 1331.35 899.127 1322.04 895.126 1322C889.609 1321.95 891.526 1332.33 892.11 1335C894.019 1343.77 901.656 1368.53 896.662 1376.5C894.006 1380.74 884.299 1378.95 880 1379.44C873.787 1380.14 861.864 1382.15 856.604 1377.88C845.558 1368.9 855.405 1338.77 844 1327M2028 1575C2029.51 1574.68 2035.21 1574.77 2035.68 1572.88C2036.34 1570.18 2029.38 1569.66 2029.79 1566.04C2030.49 1559.81 2037.06 1549.29 2039.52 1543.11C2041.65 1537.77 2047.86 1539.61 2051.79 1536.4C2063.14 1527.12 2052.35 1514.71 2043 1510C2044.52 1514.3 2047.84 1517 2049.81 1521C2052.79 1527.04 2047.01 1536.84 2040.28 1531.38C2026.92 1520.57 2041.24 1506.57 2054 1509C2048.34 1499.54 2037.43 1501.9 2032.72 1511C2024.8 1526.32 2041.85 1547.82 2025.11 1562.1C2021.28 1565.37 2000.89 1561 1995 1561C1971.35 1560.99 1956.92 1562.8 1936 1575C1935.26 1558.52 1922.67 1544.21 1920 1528C1918.43 1518.49 1925.17 1508.73 1920.54 1499.03C1917.26 1492.15 1907.32 1490.91 1901.58 1495.6C1894.35 1501.52 1892.54 1512.48 1898.47 1519.98C1902.98 1525.69 1909.91 1526.4 1914.58 1531.28C1919.67 1536.59 1933.88 1570.01 1931.92 1576.82C1925.4 1599.42 1892.37 1607.26 1903.21 1638C1906.99 1648.75 1923.64 1655.01 1934 1657.56C1938.35 1658.62 1948.82 1657.49 1949.74 1663.39C1951.28 1673.24 1947.1 1685.29 1945.56 1695C1944.61 1700.97 1943.38 1707.16 1941.83 1713C1941.01 1716.14 1932.7 1741.86 1938.67 1739.38C1943.54 1737.34 1943.7 1728.31 1944.66 1724C1947.72 1710.32 1951.41 1696.73 1954.39 1683C1955.8 1676.49 1952.96 1667.14 1957.18 1661.48C1960.27 1657.35 1973.06 1656.36 1977.86 1657.02C1983.21 1657.74 1982.44 1666.01 1982.78 1670C1983.99 1684.07 1984.69 1698.88 1984.98 1713C1985.02 1714.82 1984.44 1730.41 1989.3 1727.46C1992.25 1725.67 1991.01 1716.87 1990.77 1714C1989.56 1699.84 1988.44 1686.26 1987.96 1672C1987.83 1668.07 1983.94 1657.75 1989.23 1656.37C2009.16 1651.14 2016.92 1689.22 2023.75 1703C2025.02 1705.55 2031.9 1723.04 2036.16 1719.59C2039.48 1716.91 2032.38 1707.59 2031.04 1704.92C2025.29 1693.41 2010.29 1672.25 2011.08 1659.24C2011.35 1654.76 2024.36 1648.7 2028 1646.5C2040.3 1639.07 2085.39 1595.65 2054.94 1582.5C2046.6 1578.9 2036.68 1578.03 2028 1575M1910 1517C1911.04 1519.53 1912.08 1525.29 1907.19 1522.67C1896.87 1517.13 1898.75 1493.94 1912.76 1497.69C1920.81 1499.85 1919.78 1518.51 1910 1517M881 1544C894.5 1547.89 893 1560.88 893 1573C893 1600.52 872.774 1624 861.428 1649C858.559 1655.32 847.586 1665.15 850.077 1672.69C852.243 1679.25 870.451 1645.84 872.704 1641C877.764 1630.12 883.838 1609.74 894 1603C889.684 1623.11 896.576 1643.04 896.981 1663C897.141 1670.86 893.598 1683.66 896.814 1690.82C897.483 1692.31 935.813 1690.32 938.657 1686.5C949.991 1671.28 946 1639.8 946 1622C946 1617.49 944.206 1600.99 947.958 1598.11C952.02 1594.98 960.31 1606.43 962.538 1608.9C975.801 1623.64 987.077 1637.06 1001.99 1649.34C1003.85 1650.87 1017.19 1666.63 1019.9 1659.71C1020.99 1656.95 1012.66 1649.9 1010.91 1648.22C1000.42 1638.09 990.121 1628.42 979.979 1618C970.511 1608.27 954.092 1597.98 946.939 1586.91C939.63 1575.61 945.371 1558.05 939.555 1546C932.793 1532 890.84 1532.8 881 1544M902 1688C899.959 1669.09 900.489 1648.36 899.136 1629C898.309 1617.17 898.971 1604.82 899.602 1593C900.818 1570.23 885.724 1541.93 917 1542C921.569 1542.01 927.744 1541.54 931.436 1544.78C939.8 1552.13 937.919 1577.79 936.591 1587.28C935.988 1591.59 940.575 1596.31 940.815 1601C941.835 1620.91 945.83 1664.96 932.771 1681.59C929.073 1686.31 908.83 1685.34 902 1688M1630 1554C1621.29 1572.94 1612.86 1592.53 1603.12 1611C1600.29 1616.36 1590.1 1627.37 1589.31 1632.49C1588.92 1635.04 1620.5 1637.96 1624.06 1635.52C1631.68 1630.32 1619.63 1605.36 1630.86 1601.64C1635.57 1600.09 1632.43 1633.89 1635.18 1637.5C1639.34 1642.95 1648.48 1639.45 1654 1639.45C1657.26 1639.45 1664.27 1642.38 1666.65 1639.16C1670.32 1634.19 1661.95 1622.67 1660.26 1618C1654.27 1601.46 1631.56 1571.95 1639 1556C1635.46 1556.22 1633.18 1555.56 1630 1554M1638 1595C1619.56 1598.7 1620.88 1613.98 1623 1630L1599 1630C1604.28 1613.45 1615.41 1598.43 1621.6 1582C1623 1578.27 1626.34 1567.22 1630.39 1565.76C1632.85 1564.88 1637.57 1578.68 1638.81 1581.02C1645.16 1593.11 1649.42 1605.69 1654.98 1618C1656.84 1622.12 1662.72 1628.62 1661.56 1633.46C1660.64 1637.29 1640.45 1635.74 1638.4 1632.4C1633.96 1625.16 1638 1603.71 1638 1595M2023 1569C2018.46 1587.49 2061.04 1579.09 2057.53 1600C2049.46 1647.94 1995.54 1654.01 1957 1654C1945.04 1654 1918.1 1652.38 1910.4 1641.6C1897.87 1624.03 1922.96 1575.61 1942 1587C1937.51 1576.5 1950.45 1571.99 1959 1568.83C1978.29 1561.68 2002.95 1566.26 2023 1569M1268 1683C1268.94 1687.19 1274.15 1719.92 1278.37 1714.33C1296.74 1689.96 1290.23 1627.45 1273.59 1604C1270.67 1599.89 1256.4 1566.28 1251.79 1569.41C1247.4 1572.39 1248.1 1590.7 1246.62 1596C1244.39 1603.97 1238.13 1611.36 1236.53 1619.22C1233.14 1635.93 1238.2 1665.31 1241.68 1682C1242.68 1686.77 1249.44 1720.64 1256.35 1717.46C1263.74 1714.04 1262.81 1689.89 1268 1683M151 1570C149.423 1597.09 155 1625.52 155 1653C155 1664.48 150.625 1684.21 154.079 1694.72C155.669 1699.55 183.903 1702.23 187.1 1699.09C190.928 1695.34 187.927 1678.52 188.563 1673C191.25 1649.63 193.002 1627.74 193 1604C192.999 1595.63 194.233 1582.39 184 1580C191.082 1616.06 188.387 1659.92 182 1696C177.236 1693.86 163.024 1694.8 160.698 1690.5C156.91 1683.49 160.098 1667.7 160.783 1660C162.391 1641.88 161.191 1622.95 158.72 1605C157.868 1598.81 155.295 1583.82 159.822 1578.8C168.465 1569.21 183.047 1581.1 190.031 1575.8C193.719 1573.01 182.268 1570.63 181 1570.33C170.304 1567.81 161.581 1573.5 151 1570M1255 1579C1275.1 1605.87 1279.49 1634.96 1283.08 1668C1283.58 1672.55 1283.17 1698.32 1278.92 1700.17C1273.03 1702.73 1275.66 1674.78 1268 1676.44C1259.12 1678.38 1259.11 1706.33 1255 1706.33C1248.91 1706.33 1249.63 1674.41 1246 1674C1247.78 1656.59 1239.91 1638.37 1241.28 1621C1242.19 1609.44 1251.11 1590.41 1255 1579M285 1583L287 1586L287 1583L285 1583M612.997 1593.69C588.444 1593.55 563.731 1598.28 539 1597.94C519.466 1597.68 496.8 1592 478.285 1601.28C471.3 1604.79 479.998 1643.64 480 1652C480.001 1655.58 478.28 1664.81 483.284 1665.63C491.733 1667.01 505.095 1660.44 514 1659.32C537.384 1656.37 561.438 1654.56 585 1655.02C592.797 1655.17 615.159 1662.55 621.075 1659.24C626.441 1656.23 624.615 1645.83 624.219 1641C623.383 1630.79 629.809 1593.79 612.997 1593.69M1209.26 1596.34C1207.6 1597.78 1210.22 1600.4 1211.66 1598.74C1212.9 1597.32 1210.68 1595.1 1209.26 1596.34M593 1599.34C616.917 1596.24 619 1607.42 619 1629C619 1633.36 621.482 1650.76 616.499 1652.46C610.107 1654.63 595.568 1649.93 587.992 1650C564.506 1650.19 541.324 1652.24 518 1654.14C510.277 1654.76 493.094 1662.02 486.501 1659.92C482.739 1658.72 484 1650.93 484 1648C483.999 1640.16 476.662 1610.19 481.958 1605.18C488.667 1598.84 506.635 1600.5 515 1600.92C540.816 1602.24 567.343 1602.67 593 1599.34M2011.52 1604.41C2004.98 1608.26 2012.65 1623.02 2019.05 1619.42C2023.8 1616.75 2016.52 1601.46 2011.52 1604.41M1967 1612C1970.65 1626.61 1986.05 1612.37 1967 1612M1923 1622C1939.77 1621.39 1927.57 1611.24 1923 1622M200 1742L201 1746C202.267 1744.46 202.489 1743.95 203 1742L200 1742M529.099 1851.04C515.459 1857.12 526.384 1874.01 519.178 1882.4C513.887 1888.57 500.931 1887.01 494.019 1891.68C476.209 1903.73 464.119 1930.75 464.003 1952C463.813 1986.57 505.288 2014.87 536.957 1994.08C553.647 1983.12 557.549 1936.93 530.981 1935.41C503.694 1933.85 520.904 1968.56 506.983 1973.33C500.748 1975.47 500.585 1964.62 500.159 1961C498.925 1950.51 504.558 1937.9 513.043 1931.5C526.121 1921.63 555.459 1920.93 570.96 1925.43C577.119 1927.21 590.703 1932.6 588.469 1940.9C583.67 1958.73 560.721 1920.97 555.528 1941.03C549.969 1962.51 588.946 1975.39 602.901 1962.71C615.35 1951.4 613.709 1917 597.997 1909.37C590.167 1905.57 569.005 1904.77 563.9 1899.18C559.915 1894.82 565.409 1882.92 566.407 1878C570.064 1859.97 559.159 1850 542 1850C537.899 1850 532.945 1849.33 529.099 1851.04M537.081 1851.64C574.448 1841.81 550.46 1891.17 558.579 1901.85C565.623 1911.12 586.645 1906.15 596.642 1912.56C605.616 1918.32 604.53 1934.13 604.078 1943C603.714 1950.14 603.959 1956.47 596.956 1960.58C585.741 1967.16 557.254 1959.47 561.314 1942.3C562.053 1939.17 580.268 1954.64 588.636 1949.74C612.762 1935.6 570.672 1920.48 560 1919.91C556.692 1919.73 549.728 1920.53 547.3 1917.78C543.165 1913.09 545.813 1884.91 546.115 1878C546.209 1875.84 546.738 1866.14 542.088 1867.76C538.299 1869.08 539.943 1877.11 540.215 1880C541.013 1888.5 544.818 1909.22 539.74 1916.5C535.555 1922.5 516.038 1922.25 509.019 1927.5C498.206 1935.59 492.806 1952.03 494.446 1965C495.367 1972.29 499.46 1982.72 508.997 1979.17C525.758 1972.93 510.185 1940.09 531 1941.51C552.215 1942.96 544.339 1985.26 529.992 1991.76C507.302 2002.06 475.82 1989.96 469.941 1965C466.352 1949.76 472.318 1929.53 479.578 1916C483.933 1907.88 493.378 1896.87 502 1893.32C508.861 1890.5 518.933 1891.47 524.178 1885.34C531.7 1876.55 520.79 1855.93 537.081 1851.64M201 2057C194.114 2056.99 176.452 2057.66 172.04 2051.44C168.764 2046.82 172 2033.69 172 2028C172 2005.19 172.771 1982.75 173.922 1960C174.433 1949.91 168.406 1918.9 180.331 1915.14C199.984 1908.95 198.113 1926.13 199.823 1940C203.286 1968.09 197.067 1995.12 197.001 2023C196.988 2028.5 193.48 2048.27 197.25 2051.97C201.354 2056 202.949 2045.97 202.989 2044C203.267 2030.3 204.837 2016.61 204.992 2003C205.126 1991.26 207.062 1979.78 206.997 1968C206.902 1950.56 203.026 1933.37 203 1916C219.523 1927.64 237.294 1964.08 246.379 1982C247.686 1984.58 256.506 2004.98 260.686 2000.89C264.616 1997.05 247.891 1970.44 245.254 1966C229.309 1939.17 208.773 1897.46 171.136 1908.03C162.756 1910.39 158.471 1922.28 154.603 1929C143.874 1947.65 132.966 1966.3 120.654 1984C118.91 1986.51 102.674 2006.86 107.434 2007.68C112.094 2008.48 121.13 1992.33 123.543 1988.78C135.216 1971.62 144.379 1952.84 156.35 1936C158.616 1932.81 163.352 1919.88 167.101 1919.08C169.952 1918.47 169 1946.82 169 1950C168.998 1975.69 166.993 2001.33 167 2027C167.002 2034.72 163.783 2046.47 165.638 2053.66C168.011 2062.85 197.095 2064.93 201 2057M203 1913C200.876 1912.1 200.899 1912.12 200 1910C202.364 1910.48 202.518 1910.64 203 1913M849 2073C847.105 2051.32 865.91 2030.93 866 2009C871.134 2012.47 880.435 2015.68 884.181 2020.42C891.774 2030.01 887.898 2055.17 889 2067C901.841 2061.55 888.309 2031.59 890.64 2021.09C891.827 2015.74 899.093 2012.77 902.997 2009.62C905.775 2007.38 912.038 1999.54 915.794 1999.63C919.24 1999.72 923.304 2011.28 924.761 2014C932.427 2028.3 937.162 2045.38 948.122 2057.69C954.815 2065.2 953.698 2047.38 954 2044C951.216 2044.6 949.97 2050.56 947.25 2049.33C943.95 2047.84 941.932 2037.24 940.333 2034C934.716 2022.61 920.104 2004.88 919.806 1992C919.64 1984.83 925.635 1976.09 926.889 1968.92C930.45 1948.54 915.973 1930.04 895 1933.22C890.056 1933.97 886.434 1937.57 882 1939.64C839.804 1959.37 867.395 1994.81 857 2026C853.822 2035.53 835.101 2071.31 849 2073M898 1938.41C937.573 1934.07 922.541 2006.17 891.01 2009.04C844.077 2013.31 857.893 1942.81 898 1938.41M1309 1949C1309.76 1956.78 1315.67 1974.9 1310.06 1981.4C1301.2 1991.67 1264.3 1975.82 1251 1978.71C1245.03 1980.01 1235.59 1986.88 1229.28 1983.62C1226.01 1981.93 1224.32 1948.96 1221.79 1952.89C1218.22 1958.43 1219.8 1980.58 1223.9 1985.58C1228.27 1990.92 1236.43 1989.4 1237.14 1998C1238.11 2009.59 1220.1 2017.04 1220.94 2027.85C1221.43 2034.05 1236.04 2029.08 1237.72 2037.07C1241.49 2055.05 1239.02 2077.58 1239 2096C1239 2100.24 1235.9 2112.74 1239.68 2115.59C1244.6 2119.3 1244 2096.42 1244 2094C1253.09 2103.63 1247.37 2109.73 1260 2098C1259.37 2105.26 1268.02 2100.52 1273 2104C1276.57 2092.47 1276.39 2094.71 1284 2101C1285.25 2096.15 1285.7 2091 1286 2086C1295.07 2097.96 1295.26 2080.79 1296 2073C1298.74 2079.93 1294.44 2116.2 1300.22 2117.89C1305.82 2119.53 1304 2101.92 1304 2099C1304 2081.55 1297.79 2051.48 1304.04 2035.32C1306.58 2028.77 1321.55 2037.54 1322.08 2027.93C1322.64 2017.57 1305.26 2012.05 1302.11 2003C1295.59 1984.26 1309.3 1995.68 1314.09 1986.71C1318.36 1978.72 1319.63 1951.54 1309 1949M1608 2039C1608 2061.64 1598.9 2081.82 1585.53 2100.32C1584.6 2101.61 1576.59 2115.91 1582.02 2114.92C1590.25 2113.42 1599.31 2087.85 1602.98 2081C1604.07 2078.98 1606.53 2069.68 1609.82 2071.32C1623.49 2078.14 1620.01 2107 1635 2116C1632.31 2097.24 1613.35 2078.65 1612.38 2059.99C1611.87 2050.21 1609.05 2032.16 1611.86 2023.01C1616.15 2009.01 1628.95 2006.59 1623.32 1989.11C1620.89 1981.55 1606.1 1981.49 1600.01 1984.04C1587.63 1989.22 1586.21 2008.61 1594.44 2017.72C1597.63 2021.26 1607.29 2023.87 1606.29 2029.84C1605.12 2036.86 1590.88 2040.95 1586.78 2046.67C1581.07 2054.64 1597.55 2045.81 1599.34 2044.22C1601.98 2041.87 1604.75 2040.32 1608 2039M1294 1988C1295.35 2002.46 1297.86 2013.66 1294 2028C1279.19 2017.18 1294.37 1999.17 1273 1993C1273.5 1995.25 1277.13 2017.65 1270.61 2013.59C1261.28 2007.78 1260.58 1982.09 1252 2004C1250.3 2000.9 1249.27 1992.62 1245 1998C1235.62 1992.01 1242.76 1986.41 1251 1985.23C1265 1983.23 1281.56 1991.27 1294 1988M1604 2010C1604.96 2014.33 1604.61 2022.07 1598.36 2016.49C1588.53 2007.7 1597.62 1981.77 1611.99 1988.63C1627.02 1995.79 1619.53 2016.25 1604 2010M1268 2031C1260.57 2019.01 1254.73 2010.97 1255 1998C1264 2001.88 1272.14 2022.02 1268 2031M1902 2056C1911.52 2059.76 1926.92 2054.93 1934.74 2059.9C1941.95 2064.47 1952.01 2089.76 1960.58 2088.52C1975.83 2086.3 1970.14 2050.16 1991 2053.84C2005.97 2056.49 2004.79 2070.8 2006.54 2084C2006.88 2086.55 2005.81 2099.53 2010.54 2098.68C2015.45 2097.79 2011.6 2081.23 2011.08 2078C2008.12 2059.44 2008.2 2040.59 2005.4 2022C2004.82 2018.18 2004.01 2005.61 1999.61 2004.22C1994.38 2002.58 1996.97 2012.01 1997.58 2014C1999.19 2019.35 2007.43 2047.06 2000.46 2050.28C1985.35 2057.24 1970.95 2039.08 1965.71 2028C1963.71 2023.76 1960.56 2013.07 1954.24 2013.79C1950.15 2014.25 1949.67 2022.03 1948.4 2025C1944.23 2034.73 1940.2 2052.63 1928 2053.75C1921.47 2054.36 1904.89 2054.97 1901.82 2047.87C1899.72 2043 1905.2 2013.46 1895.27 2015.44C1891.94 2016.1 1891.24 2030.1 1891.08 2033C1890.22 2048.28 1892.26 2063.87 1893.78 2079C1894.18 2083.02 1892.08 2092.15 1896.22 2094.59C1901.78 2097.88 1902 2060.58 1902 2056M1243 2005L1243 2009C1241.73 2007.46 1241.51 2006.95 1241 2005L1243 2005M1241 2010C1239.55 2012.42 1238.68 2013.1 1236 2014C1237.45 2011.7 1238.46 2011 1241 2010M1282 2025C1270.04 2021.75 1282 2002.23 1282 2025M1251 2021C1252.88 2014.07 1262.26 2016.81 1251 2021M1317 2029C1291.28 2028.08 1310.77 2005.1 1317 2029M1236 2016C1236.71 2036.28 1221.39 2021.96 1236 2016M1958 2021C1963.5 2043.15 1973.54 2052.71 1942 2053C1946.43 2042.28 1952.23 2031.93 1956 2021L1958 2021M1243 2023C1243.65 2027.76 1248.04 2029.48 1248.6 2034.07C1250.22 2047.51 1246.12 2059.8 1246 2073L1244 2073C1244 2058.32 1238.5 2036.79 1243 2023M1286 2043C1279.89 2037.61 1285.25 2032.55 1284 2026C1293.41 2025.69 1285.99 2037.4 1286 2043M1642 2057C1644.29 2042.65 1600.04 2018.68 1623 2040C1625.55 2042.37 1628.22 2044.54 1630.91 2046.74C1634.84 2049.94 1638.01 2053.88 1642 2057M1262 2031C1268.19 2037.02 1266.01 2044.08 1266 2052C1260.91 2048.02 1260.04 2036.88 1262 2031M1275 2034C1285.22 2042.71 1287.73 2081.66 1273 2088L1272 2081C1270.71 2086.13 1271.52 2090.81 1272 2096C1268.44 2096.45 1265.38 2097.83 1262 2099C1263.03 2092.73 1265.36 2079.58 1273 2080C1272.35 2074 1271.14 2054.07 1279 2054C1276.59 2048.85 1274.38 2039.67 1275 2034M1252 2036C1257.16 2038.68 1271.62 2066.22 1264.18 2070.03C1258.99 2072.69 1251.89 2041.35 1252 2036M1299 2037C1298.37 2043.72 1298 2050.25 1298 2057L1296 2057C1296 2050.61 1294.59 2042.98 1297 2037L1299 2037M1272.21 2042.64C1275.45 2042.64 1275.09 2050.36 1272.08 2050.36C1269.39 2050.36 1269.4 2042.64 1272.21 2042.64M1291 2046L1291 2055C1287.49 2052.54 1287.59 2050.08 1288 2046L1291 2046M1971 2051L1972 2052C1969.56 2059.01 1967.62 2076.69 1960.28 2080.46C1955.82 2082.74 1942.49 2060.9 1941 2057C1952.14 2057.25 1960.48 2055.07 1971 2051M1254 2059C1256.46 2070.24 1262.72 2091.97 1251 2100C1250.19 2086.42 1248.34 2072.32 1252 2059L1254 2059M1293 2063C1292.41 2069.37 1293.7 2079.09 1288 2083C1287.97 2076.53 1284.76 2065.25 1293 2063M1297 2065L1296 2066L1297 2065M1287.67 2084.67C1287.72 2084.72 1287.78 2085.78 1287.33 2085.33C1287.28 2085.28 1287.22 2084.22 1287.67 2084.67M1283 2087L1283 2090L1280 2090L1280 2087L1283 2087M1325.87 2096.41C1318.56 2102.03 1338.84 2131.56 1321.82 2136.6C1313.37 2139.11 1300.72 2133.75 1292 2133.14C1274.04 2131.86 1255.95 2133.81 1238 2134.01C1230.18 2134.09 1218.43 2140.68 1211.29 2138.81C1206.75 2137.62 1211 2101.4 1204.5 2105.41C1198.48 2109.12 1201.76 2141.67 1209.1 2143.88C1217.22 2146.33 1229.29 2139.2 1238 2139.02C1257.42 2138.61 1276.61 2138.05 1296 2139.08C1305.8 2139.6 1316.17 2143.82 1325.9 2140.67C1336.79 2137.15 1333 2113.81 1331.61 2105C1331.31 2103.1 1329.97 2093.25 1325.87 2096.41z"/>
</svg>
