<?xml version="1.0" standalone="yes"?>
<svg xmlns="http://www.w3.org/2000/svg" width="2200" height="2200">
<path style="fill:#0d0d0d; stroke:none;" d="M135 143C134.026 156.314 126.216 170.499 119.881 182C118.138 185.166 111.904 193.317 114.227 197.033C116.215 200.212 121.096 191.172 121.783 189.959C124.702 184.805 133.128 158.034 138.378 157.081C142.91 156.259 149.547 174.573 151.248 178C153.266 182.067 156.8 187.337 157.011 191.971C157.218 196.517 152.822 198.174 148.997 198.33C137.285 198.808 111.196 205.454 101.14 200.196C97.7879 198.443 93.6505 178.477 88.9781 182.408C87.1096 183.98 90.8666 194.322 91.0778 197C91.6639 204.433 92.7522 238.703 97.9065 242.972C103.134 247.302 100.881 224.783 100.561 222C99.9137 216.366 99.58 211.129 97 206C102.123 206.777 115.713 205.699 119.248 208.678C133.332 220.549 128.101 244.949 147 254C149.82 241.484 164.58 211.286 157 201C172.338 199.509 178.327 205.632 178.019 220C177.979 221.861 177.205 232.756 181.646 230.456C189.032 226.63 181.254 191.45 181.021 184.04C180.911 180.526 183.261 173.899 180.087 171.289C173.111 165.55 183.234 209.13 165.602 196.74C151.703 186.973 153.638 148.545 135 143M155 203C154.472 207.641 145.686 241.171 141.99 240.559C137.368 239.794 124.648 207.241 126.349 205.26C130.166 200.812 149.157 203.775 155 203M343 750L344 751L343 750M348.667 750.333C348.222 750.777 349.278 750.722 349.333 750.667C349.778 750.222 348.722 750.278 348.667 750.333M383 750C410.849 759.435 455.458 751 485 751L717 751C689.151 741.565 644.542 750 615 750L383 750M749 750C765.758 755.677 791.277 751 809 751L942 751C925.242 745.323 899.723 750 882 750L749 750M948.667 750.333C948.222 750.778 949.278 750.722 949.333 750.667C949.777 750.223 948.722 750.278 948.667 750.333M1328.35 789.632C1321.97 792.069 1317.7 810.315 1326.87 807.894C1334.88 805.777 1341.83 784.487 1328.35 789.632M1265 810C1262.72 812.129 1260.91 813.854 1258 815C1260.09 810.013 1262.08 805.802 1266 802C1256.92 790.22 1245.87 800.502 1251.28 812.9C1255.74 823.11 1264.1 819.011 1265 810M1259 799L1257 805C1256.32 802.7 1256.46 801.354 1257 799L1259 799M895 1084C870.22 1063.57 844.818 1052.31 832.53 1020C811.501 964.711 833.524 891.221 869.4 847.007C885.22 827.512 906.653 806.213 933 806.273C971.303 806.361 998.183 837.059 998.11 874C998.086 886.215 990.54 926.264 972 922.727C947.397 918.033 951.416 872.8 968 882C967.9 872.245 955.799 874.569 953.21 882.044C948.095 896.813 955.541 943.846 980.864 925.315C1037.79 883.654 981.357 779.926 915 802.904C898.779 808.521 888.67 821.2 876.804 832.632C835.409 872.516 805.59 954.214 825.221 1011C835.241 1039.98 859.135 1083.84 895 1084M1925 905C1940.97 903.51 1955.62 908.099 1971 906.856C2005.54 904.067 2038.25 894.376 2073 899C2059.75 926.068 2051.32 952.505 2040.32 980C2030.43 1004.7 2007.53 1002.6 1985 1001.7C1980.59 1001.52 1969.3 1006.35 1966.21 1003.13C1956.52 993.043 1951.26 964.504 1945.9 951C1932.8 917.998 1913.43 887.364 1898.88 855C1892.52 840.844 1889.14 817.225 1879 806C1870.83 821.318 1891.19 848.925 1897.66 863C1922.06 916.022 1947.78 967.403 1968.59 1022C1974.69 1038.01 1984.6 1052.12 1990.65 1068C1991.64 1070.61 1992.55 1083 1996.19 1083C2001.26 1083 1996.35 1068.17 1995.25 1066C1989.75 1055.19 1966.1 1023.54 1971.29 1011.15C1973.4 1006.14 1980.67 1007 1985 1007C2000.41 1006.99 2014.06 1004.42 2029 1003C2022.71 1014.07 2012.85 1033.06 2016 1046C2025.6 1029.69 2026.13 1007.22 2040 993C2031.21 1023.92 2015.78 1053.28 2007 1084C2021.78 1082.01 2023.91 1046.97 2029.11 1035C2039.5 1011.08 2042.19 984.143 2052.85 961C2066.41 931.589 2089.23 901.737 2096 870L2089 874C2099.2 856.99 2110.29 821.839 2111 802C2103.98 804.976 2103.78 817.417 2101.27 824C2094.25 842.414 2091.04 878.763 2076.25 892.561C2071.07 897.394 2053.07 893 2046 893C2019.42 893 1992.68 903.693 1966 901.826C1954.82 901.044 1931.46 890.3 1925 905M1257 806L1257 811L1255 811C1255.4 808.878 1255.8 807.778 1257 806M622 826C620.091 830.949 621.277 841.653 617.212 845.134C615.904 846.254 597.548 846.001 594 846C571.103 845.994 546.753 845.978 524 843.438C518.579 842.833 480.485 840.573 479.323 846.596C478.249 852.163 494.459 849.237 497 849L497 851L490 851C491.425 857.874 513.795 868.505 521 870L520 866C542.117 865.794 562.392 859.775 585 861.783C589.597 862.191 600.506 859.893 604.024 863.26C607.987 867.054 601.663 886.973 600.606 892C594.701 920.09 589.763 948.672 585 977C562.69 956.403 533.288 926.683 498 932.754C487.21 934.61 465.879 955.807 485 961C485.427 951.684 496.471 946.368 505 947.188C519.939 948.623 557.115 961.699 567.678 972.265C581.035 985.627 572.092 1016.46 559.856 1027.59C545.774 1040.41 536.704 1034.94 520.786 1033.91C513.513 1033.44 507.311 1037.98 500 1034.13C493.609 1030.77 482.434 1026.83 478.296 1020.93C473.237 1013.72 470.828 996.129 463 994C463.056 1007.56 470.576 1027.95 481 1037C478.967 1037.16 468.629 1036.06 469.441 1039.96C470.057 1042.92 487.744 1044.97 491 1045.81C519.406 1053.2 543.292 1045.85 570 1038C559.642 1062.37 573.798 1076.27 577 1045C572.449 1049.93 571.591 1056.68 570 1063C566.087 1055.13 572.175 1039.12 578 1033C578.013 1041.77 575.517 1065.87 583 1071C585.973 1054.4 582.881 1036.83 585.477 1020C591.134 983.324 601.839 947.306 609.41 911C612.348 896.908 613.398 864.547 628 858L628 856C625.278 854.646 623.69 853.524 622 851L635 851C633.775 845.255 627.491 849.345 624.722 845.667C620.733 840.366 627.063 831.063 622 826M1331 1011C1351.13 1008.74 1356.02 1022.92 1349.75 1041C1343.86 1057.97 1329.82 1072.06 1313 1078.55C1260.2 1098.93 1205.07 1035.21 1200.18 988C1195.58 943.611 1222.76 901.437 1253.57 872.007C1276.25 850.349 1304.59 826.19 1338 833.911C1367.22 840.663 1378.83 888.096 1354 906L1354 899C1350.39 902.295 1351.37 907.509 1352 912C1382.63 898.483 1374.52 854.529 1353 836.285C1340.59 825.762 1320.65 827.108 1306 830.781C1285.97 835.805 1269.93 852.518 1255 865.904C1195.16 919.549 1174.88 993.518 1230.4 1057.98C1265.85 1099.14 1333.06 1092.21 1354.94 1043C1358.39 1035.25 1360.62 1021.39 1355.4 1014C1350.29 1006.79 1335.71 999.645 1331 1011M85 830C85 876.26 82.5654 936.16 109.027 975.217C118.018 988.489 127.122 1006.3 145 1009.06C154.607 1010.55 163.929 1001.9 171.008 997.058C199.72 977.421 212.088 947.296 215.218 913C215.995 904.484 221.559 889.229 216.645 881.354C213.79 876.778 211.201 904.794 210.5 910C206.241 941.63 197.543 972.46 170 991.632C164.052 995.773 155.156 1003.41 147.438 1003.44C133.898 1003.51 124.862 985.956 118.424 977C94.4833 943.693 92 901.592 92 862L97 865C97.0144 858.623 90.908 832.388 85 830M211.101 844.44C205.858 847.851 203.99 865.877 213.37 861.05C220.86 857.195 218.764 839.453 211.101 844.44M1668 1084C1653.53 1077.85 1638.07 1074.3 1626.06 1063.52C1584.81 1026.5 1591.55 970.099 1607 924C1615.57 898.423 1635.2 862.357 1664 855.271C1682.37 850.753 1681.1 862.577 1696 864C1692.54 860.13 1689.26 856.733 1687 852C1708.82 858.359 1712.57 876.869 1717.1 896C1728.08 942.354 1739.91 988.516 1750.06 1035C1752.12 1044.46 1755.31 1077.34 1765.27 1081.46C1771.99 1084.23 1768.64 1071.37 1768 1069C1772.12 1072.03 1776.09 1088.42 1782.15 1077.65C1784.75 1073.04 1779.86 1066.42 1778.38 1062C1774.02 1048.94 1771.32 1034.48 1768.48 1021C1758.83 975.181 1754.02 934.378 1733.58 891C1725.24 873.293 1715.86 852.036 1695 846.674C1665.52 839.098 1634.64 867.192 1619.68 888.438C1590.83 929.41 1579.88 983.847 1599.56 1031C1611.73 1060.15 1635.02 1084 1668 1084M579 850C577.494 850.683 576.685 850.826 575 851C576.506 850.317 577.315 850.174 579 850M607 854C604.347 853.463 602.836 852.986 601 851C603.876 851.358 605.183 851.741 607 854M616 851C615.144 854.03 614.081 854.283 611 854C612.526 851.859 613.402 851.497 616 851M537 856C535.494 856.683 534.685 856.826 533 857C534.506 856.317 535.315 856.174 537 856M1704 856L1709 859C1706.37 859.209 1705.24 858.452 1703 857L1704 856M521 861C518.953 861.751 518.404 861.656 517 860L521 861M613 861C612.72 868.808 610.97 876.776 608 884C606.101 877.437 609.098 867.806 610 861L613 861M1721 882C1722.04 884.105 1722.6 885.692 1723 888C1719.67 887.286 1719.41 884.762 1721 882M606 890L606 893C605.304 891.446 605.304 891.554 606 890M2076 904C2074.04 918.076 2063 935.402 2055 947C2054.36 934.99 2068.1 912.727 2076 904M600 921L599 922L600 921M1744 929C1749.2 939.054 1753.78 950.583 1754 962C1748.63 955.435 1743.05 937.476 1744 929M505 940.333L505.333 940.667C504.84 940.831 504.227 940.333 505 940.333M548 957C542.936 957.932 509.312 944.49 508 940C523.455 940.007 536.724 946.545 548 957M487 945C486.259 947.177 485.897 947.723 484 949L485 945L487 945M1694 1028C1685.41 1030.34 1677.04 1031.54 1670.42 1023.73C1664.25 1016.45 1674.27 1005.73 1682 1005.43C1698.99 1004.77 1717.86 1024.34 1712.46 1042C1708.44 1055.14 1681.86 1065.92 1669 1063.46C1609.6 1052.14 1632.63 961.549 1681 953.581C1703.45 949.882 1721.52 974.94 1728.13 993C1740.76 1027.53 1745 1066.47 1703 1083C1719.94 1088.74 1737.48 1063.94 1741.47 1050C1749.58 1021.65 1733.97 977.698 1710.99 959.618C1667.2 925.172 1618.05 991.663 1629.31 1034C1636.36 1060.54 1665.59 1070.24 1689 1064.27C1700.89 1061.24 1717.58 1052.18 1717.81 1038C1718.1 1019.42 1700.83 1002.05 1683 1000.62C1674.11 999.912 1661.06 1012.57 1663.65 1021.86C1666.51 1032.12 1689.27 1040.05 1694 1028M550 958L549 959L550 958M992 985C989.768 985.292 983.547 989.207 981.969 988.368C977.981 986.246 984.372 971.561 988.14 970.734C999.798 968.172 1001.93 990.723 1002 998L1000 998C999.942 996.871 999.082 988.073 996.155 991.106C988.208 999.34 1002.9 1018 978 1015.66C954.547 1013.45 964.622 988.599 951.764 976.38C920.318 946.497 896.384 983.867 901.642 1015C906.451 1043.47 954.008 1076.2 984 1071.38C1008.99 1067.36 1025.42 1050.18 1036.11 1028C1043.71 1012.24 1025.87 965.779 1051.01 963.865C1067.88 962.581 1076.36 995.5 1074.78 1008C1070.18 1044.46 1054.78 1067.82 1020 1083C1032.64 1087.28 1040.84 1076.68 1050.01 1070.32C1076.44 1051.97 1096.58 988.965 1065.49 964.199C1053.53 954.672 1037 957.99 1032.03 973C1027.99 985.221 1035.4 998.761 1034.9 1011C1033.77 1038.51 1008.48 1061.89 983.001 1067.13C976.161 1068.54 973.682 1063.05 967.775 1061.76C936.166 1054.88 905.992 1037.22 906 1002C906.002 993.099 907.195 981.97 914.198 975.546C923.498 967.015 942.938 972.779 949.989 982.158C960.147 995.669 952.797 1021.69 978 1021.3C1003.81 1020.91 1020.51 984.547 996.896 968.088C983.466 958.727 971.841 977.642 976.157 989.801C979.708 999.803 989.775 990.211 992 985M579 979L581 982C579.151 981.033 578.278 980.86 579 979M582 985C580.365 984.455 580.545 984.635 580 983C581.175 983.773 581.227 983.824 582 985M578 1007L578 1011L576 1011L576 1007L578 1007M577 1015C576.125 1021.59 573.988 1027.61 568 1031C569.336 1024.84 572.403 1019.31 577 1015M484 1031L483 1032L484 1031M494 1037C490.344 1038 488.183 1037.03 486 1034C488.951 1034.63 491.333 1035.58 494 1037M517 1040L517 1042L511 1042C512.989 1041.04 514.843 1040.5 517 1040M506 1041C504.494 1041.68 503.685 1041.83 502 1042C503.506 1041.32 504.315 1041.17 506 1041M1758 1050C1759.83 1051.95 1760.48 1053.38 1761 1056C1758.87 1054.2 1758.01 1052.81 1758 1050M1762 1059C1763.2 1061.44 1763.2 1062.56 1762 1065C1761.46 1062.65 1761.32 1061.3 1762 1059M980 1277C975.482 1286.41 980.799 1291.91 990 1295C985.485 1286.54 980.167 1279.21 994 1279L994 1281C991.565 1281.13 982.559 1284.68 989.295 1286.24C1003.19 1289.46 1011.59 1271.42 1023.58 1289.02C1030.32 1298.91 1029.12 1327.84 1041.17 1332.26C1048.76 1335.06 1047.14 1323.28 1046.92 1319C1046.33 1307.21 1050.44 1276.08 1036.98 1271.09C1027.2 1267.46 1016.79 1271.96 1007 1272.56C960.716 1275.41 902.484 1306.4 866.747 1260.98C848.164 1237.36 861.753 1208.86 877.398 1187.99C894.34 1165.4 925.552 1136.45 956 1135.18C970.427 1134.58 987.569 1141.91 1001 1146.66C1015.61 1151.82 1028.53 1171.4 1027.91 1187C1027.22 1204.7 1019.95 1220.17 1004 1210C1004.73 1216.03 1010.92 1219.2 1011.62 1224.35C1012.92 1233.86 996.974 1248.01 989 1250.25C975.372 1254.08 963.838 1255.41 953.324 1245.09C952.212 1244 948.05 1239.87 947.098 1243.43C945.736 1248.53 954.48 1253.69 958 1255.64C969.649 1262.08 990.537 1257.07 1000.86 1249.28C1008.33 1243.63 1014.28 1231.23 1018.53 1223.02C1025.94 1208.72 1032.73 1197.02 1030.76 1180C1026.98 1147.32 986.247 1130.67 957 1130.68C944.018 1130.68 929.653 1139.24 919 1145.95C885.419 1167.13 824.302 1225.8 866.368 1267.7C904.657 1305.83 936.232 1282.65 980 1277M263 1137C261.931 1142.95 264.414 1152.41 260.061 1157.31C255.704 1162.23 242.21 1163.08 236 1165.57C210.77 1175.67 180.47 1177.29 157 1190.7C139.798 1200.54 129.045 1222.4 117.779 1238C91.6668 1274.16 61.6661 1307.19 58.1388 1354C54.4808 1402.54 104.452 1445.51 151 1444.99C210.034 1444.34 267.713 1410.35 285.526 1352C312.675 1263.06 191.684 1210.16 141.018 1286C128.479 1304.77 114.302 1331.45 120.878 1355C130.883 1390.83 183.389 1393.49 208.678 1372.94C233.31 1352.92 224.804 1285.65 186.155 1312.36C181.169 1315.8 171.143 1328.44 172.966 1334.98C176.315 1346.98 192.63 1341.67 197 1334C192.806 1334.8 188.291 1337.82 184.012 1337.44C171.152 1336.29 191.026 1305.82 206.999 1312.04C220.123 1317.15 219.734 1332.63 217.165 1344C212.042 1366.69 195.264 1379.89 172 1381.41C141.678 1383.38 121.542 1362.05 126.903 1333C128.121 1326.4 130.591 1310.75 137 1308C136.393 1290.7 160.106 1266.08 176.096 1261.97C183.089 1260.17 207.222 1259.22 206 1250C217.819 1251.1 228.011 1254.78 239 1259.08C280.143 1275.19 294.623 1322.31 277.007 1362C259.03 1402.5 221.298 1432.55 177 1437.05C162.642 1438.5 147.713 1427.84 137 1419.53C109.651 1398.33 98.2642 1383.93 85.2471 1353.99C81.215 1344.72 81.484 1314.13 90.0397 1307.08C92.7626 1304.84 100.549 1306.99 104 1307C101.196 1304.84 95.9237 1303.56 94.7753 1299.88C90.7705 1287.06 110.995 1256.65 123 1257C120.828 1253.82 118.785 1253.26 115 1253C126.342 1236.84 141.591 1209.97 163 1221C161.539 1215.75 159.514 1213.53 154 1213C157.313 1208.38 173.759 1206.37 180 1203.45C221.405 1184.07 279.998 1193.18 302.996 1240C325.067 1284.93 325.03 1355.86 289.813 1394.98C279.003 1406.99 263.254 1403.66 253 1413L277 1410C272.453 1415.52 266.524 1418.53 265 1426C280.963 1424.14 304.795 1393.06 311 1379C311.49 1381.37 308.536 1394.34 312.691 1392.46C327.606 1385.69 328.965 1349.5 329.001 1336C329.142 1283.11 335.163 1242 310.686 1191.96C306.376 1183.15 299.097 1175.39 295.084 1166.76C293.625 1163.62 299.485 1159.29 297.718 1157.31C296.607 1156.06 291.39 1159.19 289.007 1157.87C279.952 1152.85 275.088 1138.83 266 1150C265.344 1144.7 267.943 1140.63 263 1137M328 1263C317.332 1254.78 316.48 1231.69 309.586 1220C293.197 1192.21 257.163 1175 225 1175C234.796 1164.3 253.357 1167.19 264.07 1166.51C268.644 1166.22 268.542 1157.99 275.698 1159.83C280.411 1161.04 276.866 1168.2 281.287 1170.5C285.372 1172.63 289.633 1169.33 293.697 1172.61C313.781 1188.82 327.514 1238.11 328 1263M284 1163C285.083 1164.74 285.544 1165.99 286 1168C282.988 1167.35 282.502 1165.61 284 1163M248 1183C235.088 1187.38 216.666 1186.18 203 1187C211.883 1175.09 236.013 1180.41 248 1183M277 1205C268.533 1206.02 246.16 1193.9 240 1188C258.6 1188.3 263.718 1191.61 277 1205M182 1188C179.144 1191.92 175.737 1193.34 171 1194C173.739 1189.82 177.082 1188.32 182 1188M145 1213C148.746 1193.34 180.029 1187.25 154.001 1207.02C151.084 1209.23 148.231 1211.27 145 1213M187 1193C184.822 1195.89 182.4 1196.88 179 1198C181.475 1195.49 183.637 1194.07 187 1193M1688 1206L1689 1207C1697.68 1193.41 1676.98 1192.57 1668 1193.45C1655.99 1194.63 1635.33 1211.32 1625.98 1218.85C1617.63 1225.57 1606.81 1234.75 1601.34 1244C1577.17 1284.9 1570.22 1375.33 1621 1400.46C1650.5 1415.06 1702.8 1402.96 1722.22 1375.98C1746.49 1342.24 1741.48 1272.86 1700.96 1253.71C1693.38 1250.14 1686.28 1248.95 1678 1249.3C1670.69 1249.61 1662.93 1247.68 1656 1250.93C1624.3 1265.78 1626.01 1317.98 1626.46 1346C1626.62 1355.78 1620.37 1379.07 1627.2 1387.21C1630.14 1390.72 1636.78 1365.28 1637.64 1361.92C1646.37 1328.14 1672.42 1301.89 1710 1309.92C1715.3 1311.05 1726.4 1310.65 1730.18 1314.74C1735.2 1320.18 1732.42 1339.56 1730.34 1346C1721.44 1373.58 1702.57 1392.29 1674 1400C1586.84 1423.55 1565.19 1296.18 1607.56 1243C1620.92 1226.23 1645.1 1207.01 1665 1198.52C1670.84 1196.03 1692.49 1195.19 1688 1206M274 1195C275.186 1196.19 275.528 1196.58 276 1198C274.452 1196.74 274.192 1196.81 274 1195M285 1197.33L285.333 1197.67C284.84 1197.83 284.227 1197.33 285 1197.33M278 1198L282 1202C279.554 1201.38 278.772 1200.83 277 1199L278 1198M286 1199C298.271 1204.8 310.153 1223.88 313 1237C300.645 1231.18 296.38 1208.9 285 1200L286 1199M1229 1332C1231.29 1330.84 1233.01 1329.64 1235 1328C1234.98 1343.04 1233.98 1357.02 1235.84 1372C1236.21 1374.99 1237.35 1387.41 1243.29 1383.89C1250.52 1379.61 1246.34 1360.07 1246.87 1353C1249.3 1320.65 1247 1287.57 1247 1255C1247 1245 1243.87 1221.64 1250.94 1213.69C1255.45 1208.61 1279 1209.88 1280.63 1217.07C1284.97 1236.08 1277.74 1260.66 1277.22 1280C1276.37 1311.14 1284.2 1342.33 1280 1374C1286.28 1373.42 1298.01 1377.41 1303.2 1373.02C1313.19 1364.56 1306.69 1349.34 1307.01 1339C1307.93 1309.35 1311.96 1279.69 1312.96 1250C1313.24 1241.69 1319.69 1204.05 1308 1208C1308.67 1204.73 1308.76 1202.25 1308 1199C1293.82 1201.78 1277.46 1201.99 1263 1200.79C1258.26 1200.39 1245.63 1198.13 1241.83 1201.26C1238.39 1204.09 1239.23 1227.46 1238.4 1233C1233.49 1265.5 1229 1299.12 1229 1332M1255 1205L1255 1207L1251 1207L1251 1205L1255 1205M2080 1216C2073.15 1267.63 2074 1321.08 2074 1373C2086.14 1367.69 2079.1 1343.09 2078.99 1333C2078.54 1292.35 2085 1251.73 2085 1211C2072.05 1213.23 2060.75 1221.07 2048 1224.12C2038.06 1226.49 2027.29 1223.79 2017 1225.64C1996.2 1229.4 1976.09 1236.6 1955 1239.42C1949.99 1240.09 1913.64 1237.48 1913.64 1243.86C1913.64 1245.91 1950.04 1244.83 1954 1244.28C1995.45 1238.54 2042.35 1231.77 2080 1216M1297.27 1213.32C1301.27 1212.68 1300.96 1219.71 1297.14 1220.21C1293.24 1220.73 1294.18 1213.82 1297.27 1213.32M290 1214.33C290.889 1214.33 290.889 1215.67 290 1215.67C289.111 1215.67 289.111 1214.33 290 1214.33M1308 1214L1308 1217L1306 1217L1306 1214L1308 1214M553 1215.44C498.847 1221.9 483.49 1316.57 483.008 1360C482.833 1375.7 481.18 1391.52 478.64 1407C478.238 1409.45 476.259 1421 480.802 1421C484.465 1421 484.821 1411.38 485.035 1409C486.262 1395.32 487.968 1381.75 488.001 1368C488.121 1317.29 499.492 1252.25 544.32 1223.52C560.253 1213.31 575.488 1224.36 584.799 1237C603.963 1263.01 601.01 1295.31 602.04 1326C602.211 1331.09 601.563 1364.2 604.444 1363.11C612.568 1360.07 607.272 1324.91 607.04 1318C605.891 1283.75 605.244 1209.21 553 1215.44M1284.67 1215.67C1284.72 1215.72 1284.78 1216.78 1284.33 1216.33C1284.28 1216.28 1284.22 1215.22 1284.67 1215.67M294 1217L293 1218L294 1217M297 1222.33C297.773 1222.33 297.16 1222.83 296.667 1222.67L297 1222.33M299 1226C297.365 1225.45 297.545 1225.64 297 1224C298.176 1224.77 298.227 1224.82 299 1226M1295.78 1224.89C1301.94 1221.58 1301.7 1241.84 1297.53 1244.03C1289.46 1248.27 1291.78 1227.05 1295.78 1224.89M312 1243C319.556 1252.51 321.545 1264.58 324 1276C317.618 1270.69 310.447 1251.24 312 1243M1306 1246L1305 1247L1306 1246M1242 1248C1241.33 1253.03 1241 1257.92 1241 1263C1239.38 1258.2 1239.45 1252.42 1242 1248M1293.6 1248.83C1303.1 1243.79 1302.12 1266.07 1302.58 1270.78C1304.64 1291.89 1302.11 1315.44 1302 1337C1301.97 1342.64 1303 1354.85 1296.88 1357.57C1288.03 1361.5 1291.08 1340.81 1290.98 1336C1290.54 1314.21 1289.76 1292.81 1290.01 1271C1290.06 1266.41 1289.09 1251.22 1293.6 1248.83M1631 1367C1627.68 1360.7 1631.63 1351.97 1631.3 1345C1630.05 1318.78 1631.3 1297.36 1642.16 1273C1645.37 1265.8 1660.3 1244.09 1671.07 1252.48C1675.22 1255.71 1661.99 1275.13 1660.36 1279.22C1648.92 1308.02 1642.06 1338.14 1631 1367M1666 1314C1669.95 1300.62 1697.15 1273.77 1711 1272C1707.1 1268.19 1699.48 1271.12 1694 1270L1698 1274C1682.06 1288.99 1665.94 1315.92 1648 1327C1649.99 1307.84 1660.99 1286.89 1669.58 1270C1672.48 1264.29 1675.65 1253.55 1683.06 1253.08C1703.98 1251.74 1723.34 1272.93 1726.71 1292C1727.28 1295.28 1731.49 1304.12 1729.48 1306.96C1727.39 1309.91 1716.95 1307.87 1714 1307.18C1693.65 1302.4 1684.78 1312.43 1666 1314M328 1264L327 1265L328 1264M1240 1266C1241.32 1270.22 1240.15 1274.64 1240 1279C1238.6 1274.86 1238.6 1270.14 1240 1266M1038 1278C1031.16 1278.13 1022.85 1280.08 1018 1274C1024.92 1273.99 1033.6 1271.39 1038 1278M96.6667 1275.67C96.7222 1275.72 96.7779 1276.78 96.3333 1276.33C96.2777 1276.28 96.2223 1275.22 96.6667 1275.67M1283 1278L1283 1281L1281 1281L1281 1278L1283 1278M91 1282L90 1283L91 1282M1041 1294C1036.33 1291.95 1032.53 1287.35 1030 1283C1039.33 1283.02 1039.47 1285.42 1041 1294M90 1284C83.1263 1327.76 67.7774 1368.05 108 1402.64C124.439 1416.78 148.061 1425.69 163 1440C95.9318 1440 47.5346 1390.65 69.4461 1323C73.8488 1309.41 78.271 1293.12 90 1284M322 1284C323.24 1285.81 323.184 1285.78 323 1288C322.062 1286.4 321.843 1285.83 322 1284M1031 1291.33C1031.89 1291.33 1031.89 1292.67 1031 1292.67C1030.11 1292.67 1030.11 1291.33 1031 1291.33M1033 1295C1041.28 1302.9 1039.21 1313.82 1042 1324C1035.81 1319.39 1031.76 1302.44 1033 1295M1242 1314C1242.72 1316.06 1242.91 1317.8 1243 1320C1241.86 1317.79 1241.52 1316.44 1242 1314M1243.67 1322.67C1243.72 1322.72 1243.78 1323.78 1243.33 1323.33C1243.28 1323.28 1243.22 1322.22 1243.67 1322.67M1242 1323L1241 1324L1242 1323M1242 1325C1242.81 1328.29 1242.81 1330.71 1242 1334C1240.94 1330.85 1240.94 1328.15 1242 1325M1653 1337C1654.92 1336.1 1655 1335.92 1656 1334C1653.26 1333.92 1652.92 1334.26 1653 1337M322 1337.33C322.889 1337.33 322.889 1338.67 322 1338.67C321.111 1338.67 321.111 1337.33 322 1337.33M1242 1337L1241 1342C1240.5 1339.74 1240.77 1338.96 1242 1337M1241.67 1348.67C1241.72 1348.72 1241.78 1349.78 1241.33 1349.33C1241.28 1349.28 1241.22 1348.22 1241.67 1348.67M1044.52 1352.07C1036.24 1356.05 1036.13 1375.23 1047.46 1370.17C1054.96 1366.83 1053.08 1347.95 1044.52 1352.07M1242 1354C1241.23 1355.18 1241.18 1355.23 1240 1356C1240.55 1354.36 1240.36 1354.55 1242 1354M1047 1358L1046 1359L1047 1358M1046 1360L1043 1361L1046 1360M1286 1363C1287.41 1365.06 1288.25 1366.63 1289 1369C1285.41 1368.05 1284.65 1366.47 1286 1363M322 1364C320.999 1365.92 320.923 1366.1 319 1367C319.899 1364.88 319.876 1364.9 322 1364M1242 1372L1242 1377C1241.37 1374.99 1241.37 1374.01 1242 1372M2080 1412C2077.93 1411.45 2076.13 1411.15 2074 1411C2076.7 1408.87 2082.15 1409.22 2083.34 1405.71C2085.15 1400.34 2084.43 1381.76 2074.58 1389.94C2067.89 1395.5 2065.81 1420.09 2080 1412M591 1399C590.345 1402.81 588.322 1407 588.615 1410.88C590.514 1435.98 626.405 1410.56 605.576 1397.11C600.588 1393.89 596.95 1401.45 591 1399M604 1405L604 1407L601 1407L601 1405L604 1405M596 1409L593 1410L596 1409M603 1412L602 1417C600.84 1415.01 600.767 1414.31 601 1412L603 1412M1020 1521.96C1011.74 1525.01 1004.5 1547.03 1015.74 1543.27C1022.54 1541 1034.7 1516.54 1020 1521.96M823 1552L823 1546C830.966 1545.57 846.508 1528.38 832.521 1525.1C821.711 1522.57 816.664 1546.29 823 1552M1220 1552C1220 1556.1 1218.15 1563.96 1223 1565C1223.06 1562.3 1223.39 1561.16 1225 1559C1224.92 1562.62 1220.83 1576.64 1215.17 1570.43C1204.67 1558.92 1228.43 1533.65 1234.18 1546.27C1243.67 1567.11 1234.99 1607.83 1232.68 1630C1232.07 1635.88 1228.89 1655.89 1237.01 1658.24C1240.57 1659.27 1252.13 1648.87 1258 1648.43C1271.61 1647.43 1299.73 1652.34 1311.22 1642.36C1314.06 1639.89 1313.48 1620.57 1313.99 1616C1316.6 1592.94 1318.7 1565.26 1324.32 1543.02C1326.84 1533.07 1339.49 1530.57 1345 1539C1330.67 1536.63 1325.67 1560.46 1339.02 1565.13C1357.36 1571.54 1353.6 1506.99 1324.17 1534.1C1315.33 1542.24 1318.87 1551.68 1318.3 1562C1317.31 1580.17 1312.82 1598.27 1309.04 1616C1307.84 1621.64 1309.93 1633.93 1305.26 1637.82C1297.22 1644.5 1279.5 1640.48 1270 1641.48C1264.73 1642.03 1247.65 1649.4 1243.57 1647.19C1239.68 1645.07 1252.58 1639.65 1254 1639.38C1265.98 1637.08 1278.46 1641.61 1290 1639.23C1291.47 1638.93 1302.06 1638.07 1300.89 1635.54C1299.27 1632.02 1288.87 1634.58 1286 1634.74C1274.41 1635.38 1262.56 1632.85 1251 1635.7C1247.8 1636.49 1240.95 1640.92 1237.97 1638.02C1234.61 1634.76 1238.65 1619.56 1238.93 1615C1240.03 1597.18 1247.98 1561.42 1240.36 1545.24C1225.19 1513.02 1192.22 1576.72 1217.09 1577.53C1230.67 1577.97 1232.52 1555.74 1220 1552M1018 1531C1017.26 1533.18 1016.9 1533.72 1015 1535C1015.21 1532.26 1015.3 1531.58 1018 1531M1345.31 1543.59C1351.28 1546.88 1347.18 1564.81 1339.25 1560.67C1330.89 1556.3 1336.46 1538.71 1345.31 1543.59M2009 1691C2013.21 1659.26 2017.13 1617.53 2011.34 1586C2009.4 1575.43 2003.57 1554.64 1989 1556.02C1975 1557.34 1964.22 1597.39 1979.06 1599.65C1990.54 1601.4 1991.04 1581.01 1984 1576C1984.33 1580.61 1979.3 1587.95 1985 1589C1973.3 1608.77 1972.87 1545.97 1995.99 1563.53C1998.34 1565.31 2000.5 1567.54 2002.14 1570C2015.33 1589.85 2008.48 1637.91 2006.86 1661C2006.42 1667.34 2000.79 1690.12 2005.28 1694.74C2008.47 1698.03 2016.37 1694.02 2020 1693.4C2029.81 1691.72 2064.36 1696 2069.18 1685.73C2072.65 1678.35 2068.55 1667.82 2069.15 1660C2070.98 1636.08 2070.25 1610.8 2073.85 1587C2075.77 1574.33 2078.07 1557.34 2091.98 1552.37C2103.06 1548.41 2106.72 1583.02 2099.57 1589.22C2095.87 1592.42 2097.83 1586.1 2098.31 1584.78C2099.26 1582.19 2099.4 1579.71 2099.69 1577C2102.67 1549.62 2075.71 1588.62 2097.04 1595.46C2112.06 1600.27 2112.55 1541.55 2092.96 1547.01C2058.84 1556.53 2066.92 1630.49 2064.23 1658C2063.54 1665.04 2068.1 1677.28 2063.74 1683.4C2057.75 1691.81 2019.42 1689.25 2009 1691M1615 1646C1633.8 1643.67 1654.06 1639.06 1673 1639C1678.26 1638.99 1691.12 1643.91 1694.7 1639.48C1707.86 1623.22 1701.76 1592.5 1708.34 1573C1710.7 1565.98 1714.88 1553.35 1723.9 1552.59C1733.86 1551.75 1734.67 1587.84 1725.16 1588.14C1719.12 1588.32 1717.15 1571.58 1728 1576C1731.23 1554.46 1698.18 1595.17 1725.99 1593.23C1743.64 1592.01 1738.01 1541.48 1721 1548.61C1705.83 1554.96 1696.62 1583.64 1697.18 1599C1697.53 1608.65 1699.91 1627.5 1691.96 1635.13C1688.21 1638.73 1659.74 1635.92 1653 1636.53C1647.61 1637.03 1625.42 1642.76 1621.98 1639.1C1618.85 1635.78 1622.7 1622.41 1623 1618C1624.16 1601 1635.07 1564.25 1621.47 1550.42C1600.97 1529.58 1577.1 1588.36 1592.73 1598.69C1603.59 1605.88 1614.96 1581.59 1605.77 1573.35C1595.58 1564.23 1612.89 1603.64 1594.5 1593.71C1583.78 1587.92 1601.88 1551.96 1612 1550.99C1623.39 1549.9 1623 1565.43 1623 1573C1623 1597.6 1615.47 1621.54 1615 1646M473 1695C480.01 1700.13 473.778 1726.34 480.147 1727.68C488.319 1729.39 481.425 1704.98 481.098 1702C477.803 1671.98 479 1644.02 479 1614C469.244 1617.99 469.54 1585.57 473.123 1580.24C487.59 1558.68 543.466 1559.16 562 1573C548.13 1575.16 538.231 1582.81 524 1581C530.558 1595.44 559.73 1576.05 571.04 1576.4C578.18 1576.63 583.618 1581.82 590.922 1578.41C597.933 1575.14 608.911 1561.55 618.396 1567.36C623.594 1570.54 621.086 1586.67 621.136 1592C621.378 1617.69 618.007 1643.35 618 1669C617.998 1676.69 615.719 1699.14 626 1698C625.917 1700.45 624.568 1715.5 631.206 1711.41C637.07 1707.8 634 1684.14 634 1678C634 1648.01 633.805 1613.42 625.957 1584.68C623.792 1576.75 631.889 1565.67 622.943 1559.34C610.787 1550.73 583.005 1573.14 568 1568.39C541.196 1559.9 492.479 1548.21 469.814 1574.64C459.897 1586.2 467.375 1604.58 469.632 1617C474.373 1643.09 469.786 1678.38 467.863 1705C467.489 1710.18 461.599 1731.27 465.862 1734.59C468.338 1736.53 472.958 1731.22 473.037 1728.94C473.402 1718.41 471.969 1706.57 473 1695M1023 1564C1015.16 1568.87 1021 1588.73 1021.79 1597C1024.91 1630.11 1027.69 1662.94 1029.37 1696C1029.72 1702.9 1035.03 1729.49 1028.69 1733.4C1020.53 1738.42 1005.36 1737.19 996 1739.23C977.567 1743.24 958.957 1752.49 940 1753.86C923.204 1755.08 906.854 1748.65 890 1751.9C882.458 1753.35 844.817 1761.57 841.209 1754.71C835.434 1743.72 837.228 1725.13 836.981 1713C836.408 1684.77 834.641 1656.14 833.424 1628C833.191 1622.61 837.115 1617.51 836.141 1612.22C833.84 1599.71 834.228 1587.5 832.522 1575.04C832.186 1572.59 829.561 1567.56 826.335 1568.4C823.516 1569.14 825.94 1576.96 825.933 1579C825.887 1592.35 827.635 1599.98 829.493 1613C834.185 1645.89 832.997 1684.58 833 1718C833.001 1728.89 830.049 1753.39 837.494 1762.16C842.952 1768.59 873.985 1757.57 882 1757.07C901.028 1755.88 920.533 1760.08 939 1758.52C958.775 1756.85 977.703 1748.55 997 1744.83C1004.45 1743.4 1031.41 1743.39 1035.19 1736.51C1040.98 1725.93 1034.78 1707.56 1035.02 1696C1035.9 1652.58 1027.04 1607.36 1023 1564M592 1571C588.047 1574.41 583.9 1574.24 579 1573C583.325 1570.79 587.233 1569.9 592 1571M78 1783C86.241 1782.2 100.642 1745.14 106.436 1736C136.714 1688.26 175.923 1644.86 193 1591C207.576 1617 219.814 1646.63 228.946 1675C232.256 1685.28 238.061 1705.92 249 1710C247.709 1699.04 239.713 1690.04 235.615 1680C225.788 1655.93 218.35 1631.44 206.634 1608C204.366 1603.46 198.323 1577.64 193.354 1577.64C190.189 1577.64 189.029 1587.7 188.151 1590C182.866 1603.84 181.071 1616.07 173.058 1629C141.788 1679.45 95.8655 1725.31 78 1783M2096 1576C2095.92 1579.88 2095.92 1583.22 2093 1586C2092.03 1581.57 2092.73 1579.15 2096 1576M1598 1586C1600.36 1583.93 1600.71 1582.1 1601 1579C1597.34 1580.29 1597.13 1582.43 1598 1586M627 1613L624 1615L627 1613M624 1621C624.725 1623.06 624.909 1624.8 625 1627L623 1627C623.091 1624.8 623.275 1623.06 624 1621M1368 1676C1381.98 1691.6 1361.11 1720.41 1348 1730C1328.81 1744.06 1308.54 1749.72 1287 1757.64C1276.02 1761.67 1267.64 1771.7 1257 1775.26C1246.95 1778.62 1224.59 1774.94 1214 1773.4C1171.01 1767.17 1157.99 1714.1 1158 1679C1158 1664.13 1161.02 1636.85 1179 1632.73C1208.31 1626.01 1237.35 1691.07 1213.68 1710.26C1178.51 1738.78 1164.74 1662.53 1192.25 1657.98C1204.62 1655.94 1213.29 1692.82 1200 1696C1216.11 1708.05 1209.63 1664.01 1200.73 1656.65C1191.89 1649.32 1181.44 1657.59 1177.18 1666.02C1165.03 1690.03 1178.89 1727.12 1209 1717.85C1250.68 1705.02 1214.63 1632.01 1183 1629.16C1158.55 1626.95 1153 1661.11 1153 1679C1153 1721.42 1166.89 1757.97 1208 1776.08C1216.89 1779.99 1250.89 1783.61 1260 1779.97C1269.46 1776.18 1276.2 1767.6 1286 1763.83C1316.92 1751.91 1354.91 1742.34 1370.65 1710C1379.76 1691.26 1401.73 1660.62 1380.66 1641.37C1351.04 1614.31 1296.48 1676.99 1306.97 1707C1319.94 1744.1 1366.59 1697.95 1368 1676M625 1632C625.642 1633.75 625.859 1635.13 626 1637L624 1637C624.141 1635.13 624.358 1633.75 625 1632M1379 1687C1375.48 1678.18 1371.1 1667.75 1361.96 1663C1352.71 1658.19 1338.4 1673.71 1337.42 1682C1335.55 1697.73 1354.31 1687.77 1356 1677C1353.97 1678.56 1352.29 1680.19 1350.57 1682.09C1334.57 1699.79 1357 1650.98 1363.91 1673.32C1369.26 1690.59 1328.24 1730.41 1314.06 1709.81C1309.06 1702.55 1313.5 1688.24 1316.81 1681C1322.71 1668.08 1329.99 1654.02 1343.14 1647C1365.33 1635.15 1386.56 1641.17 1383.78 1669C1383.16 1675.18 1381.74 1681.43 1379 1687M1942 1692C1956.83 1702.23 1967.28 1666.79 1950.98 1663.14C1932.29 1658.95 1924.46 1711.81 1942.01 1713.56C1976.64 1717 1970.88 1651.38 1946 1642.87C1934.81 1639.04 1924.83 1658.03 1921.36 1666C1911.91 1687.69 1903.52 1729.81 1928.14 1745.37C1945.52 1756.37 1966.42 1745.6 1984 1742.33C2021.2 1735.41 2061.59 1743.54 2098 1734.16C2113.62 1730.14 2141.05 1735.48 2142.27 1713C2143.18 1696.36 2126.14 1656.26 2104.05 1672.67C2091.61 1681.91 2101.38 1712.97 2117.89 1706.05C2123.28 1703.8 2126.55 1693.96 2122.48 1689.37C2109.27 1674.45 2120.91 1717.94 2106.13 1695.9C2095.54 1680.12 2115.01 1666.72 2127.46 1682.09C2135.82 1692.41 2144.73 1717.95 2128.99 1725.13C2121.43 1728.58 2112.92 1725.99 2105 1727.59C2064.83 1735.74 2022.72 1733.38 1982 1738.06C1962.41 1740.31 1942.13 1755.63 1925.58 1736.03C1910.2 1717.84 1916.1 1685.3 1926.56 1666C1929.78 1660.07 1935.18 1646.44 1943.99 1647.3C1949.67 1647.85 1953.7 1656.69 1956.17 1661C1964.75 1675.99 1966.75 1701.16 1947 1708.86C1931.21 1715.03 1937.47 1674.6 1946.08 1668.57C1954.82 1662.45 1957.24 1686.98 1942 1692M1283 1645L1283 1647L1269 1647L1269 1645L1283 1645M629 1651L629 1655L627 1655L627 1651L629 1651M623 1663.33L623.333 1663.67C622.84 1663.83 622.227 1663.33 623 1663.33M1601 1748C1624.05 1771.61 1585.45 1818.23 1558 1803.04C1527.27 1786.02 1537.6 1725.08 1556.75 1703.26C1585.12 1670.93 1621.49 1668 1661 1668C1673.07 1668 1687.32 1665.03 1699 1668.35C1711.23 1671.82 1717.7 1691.68 1722.85 1702C1740.6 1737.53 1747.02 1800.75 1690.04 1796.86C1644.87 1793.77 1661.34 1722.42 1698 1720.94C1723.35 1719.91 1720.91 1767.22 1692.05 1766.92C1680.61 1766.8 1684.64 1741.31 1692.36 1737.49C1699.24 1734.09 1707.33 1748.4 1701.71 1749.85C1699.43 1750.44 1694.52 1746.58 1692 1746C1702.66 1775.71 1720.32 1724.23 1691.09 1733.39C1678.4 1737.37 1673.97 1769.89 1690 1771.5C1740.66 1776.58 1719.62 1691.86 1679.22 1723.76C1674.37 1727.58 1668.93 1732.96 1665.46 1738.08C1638.13 1778.41 1679.27 1815.77 1720 1796.66C1756.74 1779.42 1737.66 1724.74 1725.95 1697C1721.13 1685.6 1714.05 1668.16 1701 1664.44C1688.25 1660.8 1674.02 1664.07 1661 1664C1619.8 1663.77 1583.04 1666.9 1553.41 1700.14C1532.68 1723.38 1523 1787.44 1554.08 1806.83C1587.57 1827.73 1641.35 1763.28 1595 1739.74C1590.09 1737.25 1584.76 1733.32 1579 1733.52C1555.58 1734.33 1558.75 1788.34 1579 1789.45C1598.03 1790.49 1608.15 1761.74 1601 1748M623 1675C624.384 1677.66 624.791 1680.01 625 1683L623 1683C622.764 1680.23 622.415 1677.71 623 1675M475 1685L475 1690C472.959 1688.35 472.834 1687.62 473 1685L475 1685M626 1687L626 1691L624 1691L624 1687L626 1687M2117 1689C2118.44 1690.45 2119.11 1691.22 2120 1693C2117.67 1692.09 2116.37 1691.57 2117 1689M624 1692.33C624.773 1692.33 624.16 1692.83 623.667 1692.67L624 1692.33M636.997 1732C616.649 1731.76 625.413 1757.05 634.145 1756.89C644.3 1756.72 651.17 1732.17 636.997 1732M631 1735C634.116 1748.41 621.295 1740.85 631 1735M640 1737C641.567 1739.9 641.402 1741.69 639 1744C639.05 1741.49 639.181 1739.37 640 1737M1591 1744C1573.12 1744.61 1566 1769.02 1587 1772C1583.05 1768.54 1578.51 1766.92 1578.13 1760.99C1577.37 1749.15 1591.62 1742.35 1598.71 1753.16C1605.14 1762.95 1587.14 1793.52 1576.03 1784.16C1566.5 1776.13 1565.06 1753.76 1570.23 1743.09C1574.66 1733.94 1586.1 1737.19 1591 1744M264.073 1742.93C255.054 1744.59 254.933 1766.45 265.951 1765C275.393 1763.76 273.018 1741.28 264.073 1742.93M478.893 1743.81C464.904 1743.51 447.179 1764.82 469 1765.73C479.559 1766.17 490.356 1744.05 478.893 1743.81M635.667 1748.67C635.722 1748.72 635.778 1749.78 635.333 1749.33C635.278 1749.28 635.222 1748.22 635.667 1748.67M265 1751C264.859 1752.87 264.642 1754.25 264 1756C263.89 1754 264.172 1752.83 265 1751M473 1751C473.456 1761.77 462.627 1756.73 473 1751M443 1873C445.026 1869.26 448.675 1844.87 453 1859C454.092 1855.64 452.116 1846.6 447.413 1851.83C443.209 1856.51 443.211 1867.06 443 1873M624 1861C635.316 1850.19 632.825 1858.33 636 1870C643.763 1857.6 629.521 1841.63 624 1861M703 1853C699.658 1866.55 697.734 1883.23 692.079 1895.94C690.58 1899.3 681.753 1905.73 678.477 1901.14C672.195 1892.33 691.818 1855.07 674.985 1854.08C665.211 1853.51 657.29 1863.73 651 1870C637.142 1883.81 620.927 1904.87 604 1914.52C600.08 1916.75 575.379 1923.06 572.477 1919.1C570.27 1916.09 572 1907.68 572 1904L570 1904C569.487 1912.57 561.658 1935.47 547.744 1925.65C538.128 1918.86 546.465 1893.8 523 1903.72C509.218 1909.55 498.255 1918.72 486.864 1928.16C484.08 1930.47 477.591 1936.82 473.678 1934.03C462.827 1926.31 466.742 1889.81 469.755 1879C470.808 1875.22 474.013 1866.08 478.253 1864.89C485.92 1862.73 484.216 1882.3 484 1886C494.521 1876.97 481.636 1848.77 471.174 1866.09C464.008 1877.95 461.104 1898.48 463.574 1912C464.834 1918.89 470.894 1933.42 469.122 1939.84C467.443 1945.93 454.386 1953.33 449 1956C453.99 1936.28 447.383 1913.55 453 1894L456 1896C456 1874.24 450.179 1877.46 448.21 1897C446.359 1915.36 450.103 1938.4 445.436 1956C443.363 1963.82 425.547 1971.04 426.425 1978C427.598 1987.3 442.779 1971.98 445.499 1979.33C453.781 2001.69 449.905 2041.03 450 2065C457.798 2059.35 453.113 2050.11 453.004 2042C452.778 2025.28 451.027 2008.63 451 1992C450.993 1987.36 448.765 1978.22 451.042 1974.22C459.409 1959.54 479.151 1958.85 481.248 1977C482.457 1987.47 471.557 2000.37 468.56 2010C464.593 2022.75 469.926 2041.05 465.496 2052.42C462.721 2059.55 452.329 2066.55 446.985 2072C431.922 2087.37 416.693 2102.52 401.96 2118C395.464 2124.83 383.326 2131.96 383 2142C407.129 2127.98 426.498 2098.22 446.922 2079.1C450.762 2075.51 464.822 2056.63 468.87 2064.14C475.061 2075.62 453.178 2072.23 450.15 2081.04C447.956 2087.42 455.597 2086.76 457.315 2091.22C460.797 2100.27 457.709 2111.51 463 2120C464.303 2112.87 455.872 2094.11 464 2091C458.138 2081.71 470.372 2069.81 474.945 2076.73C484.776 2091.6 473.543 2126.39 478 2144C483.317 2128.86 483.571 2095.56 477 2081C484.819 2086.1 491.634 2092.17 501 2094.41C506.127 2095.64 514.172 2093.87 517.264 2099.36C524.17 2111.62 517.279 2144.65 531.152 2151.67C539.215 2155.75 542.74 2137.93 542 2133C539.707 2136.51 537.581 2146.96 533.56 2148.36C529.759 2149.67 527.555 2141.38 526.957 2139C525.306 2132.43 517.008 2103.05 522.716 2098.26C531.029 2091.29 542.903 2101.52 546.675 2108C554.946 2122.21 563.359 2136.6 572.969 2149.96C576.996 2155.56 584.812 2161.84 586.241 2168.86C586.876 2171.98 582.619 2177.48 580.035 2173.57C576.596 2168.36 576.18 2159.92 574 2154C572.293 2159.24 574.836 2177.19 581.336 2178.85C585.642 2179.96 588.015 2173.83 591.834 2174.8C597.241 2176.16 598.323 2183.13 605 2184C587.721 2155.69 559.888 2131.56 548 2100C570.888 2100 562.905 2116.17 570 2133C572.703 2125.01 564.215 2109 569.036 2102.8C572.728 2098.05 584.913 2099.99 590 2100.56C606.506 2102.4 623.698 2100.3 640 2097.51C643.639 2096.88 658.014 2089.21 660.765 2092.19C663.361 2095.01 654.137 2109.09 652.527 2112C645.524 2124.65 638.114 2150.16 651.498 2162.37C661.116 2171.14 668.763 2144.98 669 2139C664.387 2144.22 663.654 2151.48 659.249 2156.88C652.627 2164.99 647.193 2148.5 647.503 2143C648.426 2126.57 654.807 2108.13 665.967 2095.68C667.809 2093.63 678.892 2085.76 674.729 2082.37C671.716 2079.92 660.146 2086.35 657 2087.76C639.402 2095.62 621.417 2093.74 603 2097C608.076 2093.04 617.602 2093.09 621.606 2089.15C629.438 2081.44 632.303 2069.63 640 2062C639.96 2071.09 636.937 2079.96 639 2089C646.417 2082.42 641.595 2067.01 640.888 2058.79C639.557 2043.29 640.968 2015.32 644.365 2000.04C645.827 1993.47 654.656 1989.82 660 1986.82C675.605 1978.05 690.459 1963.29 707 1957C700.245 1970.79 701.136 1989.92 699.783 2005C696.085 2046.22 695.359 2087.42 704 2128C709.752 2117.84 701 2084.95 701 2072C701 2035.78 702.452 1998.8 708.409 1963C709.67 1955.42 716.041 1951.33 717 1944L710 1948C712.165 1935.13 716.535 1922.06 717 1909C707.905 1919.97 712.977 1938.33 706.082 1949.98C696.458 1966.24 659.86 1983.58 643 1992C641.73 1978.94 632.244 1955.9 620.901 1948.46C616.901 1945.83 593.739 1938.18 593.081 1934.73C591.573 1926.84 618.951 1910.36 626.035 1916.34C630.589 1920.18 622.783 1941.7 624 1948C628.77 1938.8 625.37 1926.28 629.822 1917.42C631.718 1913.65 648.676 1908.61 649.74 1914.44C653.386 1934.43 644 1961.26 644 1982C654.274 1962.1 645.87 1935.05 653.461 1914.15C655.254 1909.21 672.172 1905.1 674.616 1910.96C677.241 1917.26 674.839 1926.09 677 1933C679.353 1926.05 676.513 1919.01 677.42 1912.03C678.102 1906.78 688.785 1901.83 689.48 1909.11C691.235 1927.51 679.175 1947.35 679 1966C695.397 1954.09 685.472 1920.41 695.218 1904.08C699.392 1897.09 714.588 1901.25 717 1893C712.947 1893.98 701.544 1899.4 697.965 1896.6C691.082 1891.2 704.873 1860.41 706 1853L703 1853M632 1899C627.503 1910.09 624.422 1912.73 612 1914C622.133 1896.74 643 1883.65 656.516 1868.87C660.22 1864.82 669.573 1856.59 675.716 1857.41C680.506 1858.06 677.308 1896.56 675.499 1901.72C673.757 1906.68 662.422 1906.74 658 1907.4C644.012 1909.47 631.066 1916.34 632 1899M453 1863L453 1866C453.696 1864.45 453.696 1864.55 453 1863M570 1885C569.749 1882.32 569.377 1879.66 569 1877C565.658 1853.34 560.211 1877.91 570 1885M514 1868C511.534 1874.2 514.961 1880.45 515 1887C518.863 1880.8 518.69 1873.65 514 1868M559 1872L557 1880C559.01 1877.33 559.8 1875.29 559 1872M750 1884C755.603 1883.37 760.587 1881.25 766 1879.86C769.021 1879.08 771.919 1879.2 775 1879.14C808.202 1878.42 752.018 1908.32 750 1923C762.685 1914.6 776.213 1903.4 785.153 1891C787.642 1887.55 794.218 1881.19 791.111 1876.49C785.634 1868.2 752.323 1876.02 750 1884M404 1874C403.038 1878.78 400.008 1884.06 404 1888C404.027 1883.09 404.924 1878.77 406 1874L404 1874M442 1874C439.927 1889.64 439.281 1905.56 436 1921C441.378 1913.39 446.503 1882.25 442 1874M655 1886C659.726 1884.99 658 1877.99 658 1874C652.842 1875.45 656.201 1881.52 655 1886M943 1877.52C901.032 1884.37 872.411 1905.61 852.665 1943C849.972 1948.1 842.769 1949.97 841.458 1955.08C835.84 1976.96 844.745 2005.1 853.487 2025C876.044 2076.36 918.969 2119.91 980 2109.22C1031.87 2100.15 1045.64 2050.78 1044.04 2003C1041.97 1941.17 1022.39 1864.54 943 1877.52M510 1878L509 1886C510.615 1883.19 510.966 1881.11 510 1878M905 2085C912.53 2083.77 915.097 2090.08 921.783 2090.86C951.603 2094.34 981.838 2099.09 1000.04 2068.99C1018.27 2038.83 1026.16 2002.93 1021.79 1968C1020.84 1960.35 1008.85 1936.42 1019 1935C1007.39 1928.94 1001.02 1918.36 989 1912.55C965.6 1901.22 917.649 1898.39 894 1910.25C886.475 1914.02 862.092 1944.6 868 1944C863.854 1979.39 875.81 2003.05 898.63 2028.9C911.341 2043.3 926.212 2056.03 946.783 2046.9C973.421 2035.08 987.881 1999.49 981.759 1972C977.89 1954.63 950.456 1940.35 934.196 1948.8C917.968 1957.22 918.859 1985.63 931.067 1996.63C941.532 2006.06 951.202 1997.25 948.796 1985.01C948.483 1983.42 947.754 1980.5 945.833 1980.08C943.263 1979.52 941.952 1985.75 939.116 1982.91C934.462 1978.26 940.934 1967.5 946.815 1967.87C956.161 1968.46 957.836 1981.93 957.94 1989C958.199 2006.57 942.966 2017.38 926.323 2010.4C920.911 2008.12 917.126 2002.3 913.422 1998C909.087 1992.96 905.175 1988.95 905.025 1982C904.422 1954.05 918.412 1943.41 943 1942.08C950.187 1941.69 958.445 1939.54 964.96 1943.8C1020.22 1980 975.869 2077.48 912 2057.68C881.851 2048.33 864.568 2020.64 856.742 1993C854.563 1985.3 848.805 1970.12 851.48 1962.35C852.997 1957.95 856.059 1963.31 857 1965C856.337 1960.42 851.53 1956.65 852.124 1952C855.484 1925.64 888.288 1901.07 909.904 1893.03C919.261 1889.56 927.363 1881.47 938 1886C943.264 1878.63 955.27 1882.52 963 1882.92C996.028 1884.62 1005.74 1893.22 1022.76 1921C1050.6 1966.45 1049.85 2046.44 1017.36 2090.14C1011.78 2097.64 1000.42 2099.92 992 2102.36C965.617 2110.01 922.533 2111.58 905 2085M508 1887L507 1899C508.637 1895.09 509.33 1891.08 508 1887M555 1892L554 1896C555.656 1894.6 555.751 1894.05 555 1892M401 1893C392.847 1919.06 396.556 1954.02 397.922 1981C400.044 2022.93 400.469 2065.32 406 2107C414.533 2099.94 404.612 2066.56 404.078 2056C402.534 2025.5 398.567 1993.6 400.258 1963C401.38 1942.69 407.586 1912.44 401 1893M615 1895L615 1898C615.696 1896.45 615.696 1896.55 615 1895M2075.1 1897.29C2066.3 1901.81 2072.02 1925.28 2079.46 1920.89C2087.17 1916.34 2086.41 1891.48 2075.1 1897.29M456 1897L456 1907C457.153 1903.59 457.153 1900.41 456 1897M514.333 1898.67C514.278 1898.72 514.222 1899.78 514.667 1899.33C514.722 1899.28 514.778 1898.22 514.333 1898.67M554 1899C552.003 1906.62 551.15 1915.13 551 1923C554.699 1916.58 554.589 1906.33 556 1899L554 1899M1533 1956C1531.63 1943.82 1528.47 1918.96 1537.25 1908.54C1547.7 1896.14 1566.25 1930.89 1567.58 1938C1572.09 1962.12 1556.55 1985.93 1552.52 2009C1549.3 2027.46 1554.96 2046.49 1555 2065C1555.04 2083.03 1563.26 2108.96 1584.99 2096.73C1628.29 2072.38 1611 1997.75 1611 1958C1611 1948.92 1610.52 1910.93 1627.81 1913.32C1636.41 1914.51 1635 1947.58 1635 1954C1635 1991.58 1621.44 2027.51 1625.23 2065C1626.27 2075.36 1634.41 2098.59 1648 2097.35C1664.5 2095.85 1669.11 2064.51 1671.32 2052C1679.32 2006.77 1658.94 1951.31 1685.42 1909.03C1692.8 1897.25 1701.84 1918.29 1704.23 1925C1706.56 1931.55 1708.25 1939.26 1705.61 1945.99C1704.83 1947.99 1697.82 1954.53 1698.76 1956.16C1700.22 1958.68 1705.56 1953.76 1706.47 1952.73C1718.17 1939.47 1707.34 1907.73 1692.78 1900.29C1679.72 1893.62 1672.67 1935.33 1670.27 1943C1658.7 1979.97 1675.1 2022.55 1663.96 2059C1661.31 2067.64 1659.55 2091.87 1647 2092.39C1630.08 2093.09 1630.31 2061.02 1630.46 2051C1631.01 2014.47 1641.8 1980.13 1639.92 1943C1639.48 1934.26 1640.95 1910.99 1628.96 1908.79C1608.57 1905.05 1607 1942.21 1607 1954C1607 1988.56 1615.49 2028.94 1604.33 2062C1600.17 2074.33 1590.59 2092.28 1577 2095.87C1557.75 2100.97 1560.77 2062.89 1559.24 2053C1557.2 2039.78 1553.98 2025.39 1556.46 2012C1562.21 1980.96 1584.2 1945.69 1562.25 1916.02C1534.67 1878.76 1515.1 1938.36 1533 1956M506 1901L505 1909C506.292 1906.21 506.767 1904 506 1901M512 1905C513.176 1904.23 513.227 1904.18 514 1903C512.365 1903.55 512.545 1903.36 512 1905M716 1904L717 1905L716 1904M2077 1904L2076 1905L2077 1904M527 1906.41C538.066 1904.57 547.747 1916.79 542.178 1927.44C539.818 1931.95 522.144 1936.91 517.148 1937.65C510.981 1938.58 513.876 1928.32 513.952 1925C514.185 1914.79 515.206 1908.36 527 1906.41M2079 1906L2078 1907L2079 1906M1244 2077C1244.15 2072.65 1245.48 2068.19 1242 2065C1238.4 2078.25 1239.87 2087.82 1227.99 2097.46C1214.3 2108.56 1188.07 2105.83 1184.97 2085C1183.23 2073.37 1189.86 2060.12 1192.43 2049C1199.47 2018.5 1214.55 1966.89 1200.8 1937C1194.75 1923.87 1183.61 1927.71 1178.64 1939C1171.72 1954.73 1169.78 1965.66 1177 1981C1178.9 1973.85 1174.51 1965.8 1175.92 1958C1176.88 1952.67 1182.2 1929.72 1190.64 1932.62C1200.87 1936.15 1200.01 1957.71 1200 1966C1199.98 1992.17 1195.57 2019.65 1189.25 2045C1186.06 2057.81 1177.52 2076.75 1181.8 2090C1187.55 2107.75 1205.82 2110.81 1221 2106L1220 2111C1228.75 2109.13 1232.25 2101.04 1238 2095C1238.37 2096.66 1238.81 2104.29 1241.66 2103.68C1244.78 2103.01 1242.98 2092.56 1243.86 2090.02C1248.2 2077.59 1253.63 2062.37 1259 2050C1260.39 2058.95 1257.61 2068.73 1263 2076.92C1280.49 2103.52 1322.55 2115.54 1339.32 2084C1359.37 2046.29 1351.73 1988.63 1347.2 1948C1343.98 1919.14 1305.44 1886.35 1281.54 1918.06C1248.23 1962.27 1276.51 2032.94 1244 2077M457 1908C457 1916.83 455.19 1937.7 462 1944C461.995 1932.91 461.316 1918.3 457 1908M950 1908L949 1909L950 1908M2079 1908L2078 1909L2079 1908M946 1914C937.33 1912.14 927.783 1912.2 919 1913C923.399 1906.9 943.023 1906.71 946 1914M914 1910C910.349 1913.23 905.605 1912.27 901 1913C904.878 1909.65 909.078 1910 914 1910M963 1914C959.417 1913.87 956.269 1913.52 953 1912C957.277 1910.06 960.215 1909.94 963 1914M1304 1911.34C1325.77 1908.59 1336.8 1923.8 1341.44 1943C1349.56 1976.51 1350.72 2024.42 1342.86 2058C1339.2 2073.61 1334.48 2097.37 1315 2099.73C1298.79 2101.69 1271.23 2086.05 1265.11 2070.98C1260.86 2060.52 1263.09 2045.04 1263.86 2034C1265.64 2008.55 1263.41 1975.95 1272.93 1952C1280.07 1934.02 1281.26 1914.22 1304 1911.34M981 1918C976.81 1916.68 973.094 1916.12 971 1912C975.418 1912.85 978.483 1914.18 981 1918M511 1915C515.791 1933.97 509.086 1941.37 493.04 1948.66C489.814 1950.13 483.425 1955.37 479.781 1953.51C464.73 1945.83 488.686 1930.44 494 1926.75C499.67 1922.82 505.155 1918.69 511 1915M715 1916L714 1917L715 1916M985 1916C992.958 1919.72 1000.05 1926.78 1005 1934C999.226 1931.46 986.069 1922.46 985 1916M894 1917.33L894.333 1917.67C893.84 1917.83 893.227 1917.33 894 1917.33M928 1922L918 1922C920.358 1918.09 926.559 1916.87 928 1922M936 1919C934.408 1921.05 933.551 1921.49 931 1922L931 1918L936 1919M951 1918L951 1921C946.95 1920.86 943.022 1921.62 939 1922C942.036 1917.57 946.091 1918.24 951 1918M600 1919C590.987 1935.93 579.626 1932.4 564 1935.94C559.892 1936.87 549.655 1941.03 545.969 1937.73C538.575 1931.12 564.891 1927.06 568 1927L568 1932C576.931 1921.57 587.086 1922.56 600 1919M898 1920C894.803 1934.44 877.827 1937.53 874 1952C864.492 1940.09 889.613 1928.06 896 1920L898 1920M611 1921L611 1926C611.631 1923.99 611.631 1923.01 611 1921M978 1922L979 1923L976 1925L978 1922M504 1923C502.775 1928.71 502.732 1934.37 501 1940C505.949 1936.26 505.463 1928.76 506 1923L504 1923M999 1946L999 1938C989.27 1942.22 977.104 1925.04 984.306 1923.92C990.608 1922.94 1009.54 1942.49 999 1946M947 1925L947 1927L943 1927L943 1925L947 1925M437.333 1926.67C437.278 1926.72 437.222 1927.78 437.667 1927.33C437.722 1927.28 437.778 1926.22 437.333 1926.67M883 1927L881 1931C879.645 1928.59 880.351 1927.57 883 1927M923 1927C921.494 1927.68 920.685 1927.83 919 1928C920.506 1927.32 921.315 1927.17 923 1927M974 1928C975.608 1929.45 976.064 1930.05 977 1932C974.856 1930.87 973.901 1930.43 974 1928M900 1929C897.613 1932 895.617 1933.72 892 1935C894.277 1931.77 896.076 1929.93 900 1929M2074 1930C2060.4 1983.75 2072.83 2038.11 2041.62 2087.01C2035.01 2097.37 2002.6 2135.25 1990.56 2116.91C1981.16 2102.59 1986.96 2083.07 1990.87 2068C1998.23 2039.58 2008.44 2007.38 2005.96 1978C2004.85 1964.8 2004.77 1932.51 1985 1933.77C1975.03 1934.4 1960.57 1944.35 1959.78 1955C1958.22 1976.04 1968.89 1996.93 1968.84 2018C1968.8 2038.02 1959.03 2059.51 1954.78 2079C1952.37 2090.09 1949.64 2117.52 1935 2119.67C1926.38 2120.93 1921.15 2111.85 1914 2109C1916.02 2119.66 1931.77 2129.66 1941.56 2122.2C1950.93 2115.06 1952.83 2103.66 1955.93 2093C1962.75 2069.6 1973.77 2038.47 1972.9 2014C1972.22 1994.71 1960.89 1974.34 1964.27 1955C1965.87 1945.81 1981.81 1933.76 1990.82 1940.03C2002.48 1948.15 2001.97 1972.44 2002 1985C2002.06 2011.71 1993.46 2040.22 1986.83 2066C1982.76 2081.82 1977.47 2102.7 1985.99 2118C2001.12 2145.18 2037.38 2099.83 2046.62 2087C2075.61 2046.73 2078.02 1979.51 2076 1930L2074 1930M436 1931C436.275 1937.31 436.328 1943.81 435 1950C438.597 1945.9 437.898 1936.34 438 1931L436 1931M610 1931L610 1938C610.864 1935.4 610.864 1933.6 610 1931M954 1933C951.907 1932.59 951.98 1932.78 951 1931L954 1933M132 1936C132.588 1953.65 113.912 1957.74 107.35 1973.04C92.5341 2007.59 87.8277 2049.7 100.964 2086C126.083 2155.41 222.378 2153.97 265.58 2105.78C278.289 2091.61 279 2072.48 279 2055C279 2014.5 266.272 1971.86 233.783 1944.78C201.261 1917.67 162.249 1948.85 132 1936M543 1932C542.637 1935.64 542.432 1939.81 538.723 1941.62C519.386 1951.06 503.633 1965.25 485 1975C484.163 1970.66 479.948 1962.8 481.157 1958.63C483.026 1952.18 505.881 1945.46 512 1945L511 1950L513 1950C513.831 1938.23 533.121 1933.76 543 1932M551.333 1932.67C551.278 1932.72 551.222 1933.78 551.667 1933.33C551.722 1933.28 551.778 1932.22 551.333 1932.67M908 1932C906.181 1936.69 899.94 1943.76 895 1945C896.142 1937.99 900.99 1933.14 908 1932M995 1953C987.925 1947.72 980.836 1941.05 977 1933C984.846 1935.79 993.902 1944.53 995 1953M916 1935C913.042 1939.82 909.044 1943.45 904 1946C905.887 1940.67 909.884 1934.8 916 1935M167 2013C149.768 2000.74 152.886 1962.11 149 1944C146.362 1947.3 146.221 1949.91 147 1954C135.779 1950.51 141.317 1943.41 150 1941.22C159.859 1938.74 170.569 1939.31 179 1945C179.074 1942.17 178.732 1941.73 176 1941C179.752 1935.52 211.431 1935.98 210.685 1942.37C210.017 1948.08 201.647 1956 198.574 1961C188.311 1977.68 174.677 1995.05 167 2013M582 1938C573.07 1954.39 554.181 1962.11 543 1976C541.58 1971.65 545.126 1942.94 547.792 1945.41C550.744 1948.14 547.147 1961.62 548 1966C551.854 1959.26 548.412 1950.44 552.26 1944.36C558.649 1934.28 566.956 1941.77 567 1950C571.576 1941.88 571.696 1938.62 582 1938M635 1987C619.818 1974.01 608.865 1965.05 588 1965C584.266 1964.99 569.256 1965.67 567.761 1961.22C565.977 1955.9 583.86 1939.92 589.019 1939.68C609.286 1938.73 638.927 1966.2 635 1987M642 1939C640.245 1947.2 639 1954.58 639 1963C641.457 1957.13 643.742 1945.09 642 1939M1009 1940C1014.04 1947.88 1012.83 1953.23 1011 1962C1006.38 1958.01 1006.56 1945.53 1009 1940M886 1941C884.839 1945.25 882.507 1948.35 879 1951C879.856 1947.08 882.048 1944.42 884 1941L886 1941M481 1942L481 1945L483 1945L483 1942L481 1942M219 1943C218.455 1944.64 218.635 1944.45 217 1945C217.773 1943.82 217.824 1943.77 219 1943M223 1943C230.921 1947.23 237.875 1953.39 242.665 1961C246.131 1966.51 264.371 1985.41 261.394 1992.28C259.225 1997.29 249.327 1996.25 245 1997.41C231.36 2001.09 219.219 2008.1 205 2010.9C201.975 2011.49 189.647 2015.04 188.02 2011.18C186.206 2006.87 194.803 1995.57 197.12 1992C206.53 1977.5 218.638 1959.81 223 1943M973 1944C977.054 1947.09 979.941 1950.31 982 1955C977.88 1952.4 974.184 1948.85 973 1944M449 1969C450.128 1961.85 453.833 1954.68 462 1955C465.209 1946.01 477.248 1944.09 473.882 1955.76C472.316 1961.2 454.279 1968.35 449 1969M889 1953C889.324 1943.1 895.628 1950.67 889 1953M535 1983C519.472 1980.68 516.637 2016.45 504.617 2014.68C500.172 2014.02 495.623 1999.71 493.919 1996C484.09 1974.62 498.776 1967.75 515 1956.22C520.32 1952.43 532.021 1943.28 539.176 1947.82C544.912 1951.46 537.657 1978.1 535 1983M901 1951L898 1949C900.093 1949.41 900.02 1949.22 901 1951M909 1950C907.367 1953.44 906.856 1959.17 903 1960C903.516 1955.25 904.339 1951.88 909 1950M134 1951C135.01 1955.78 136.772 1960.07 137 1965C133.062 1960.93 130.624 1956.69 132 1951L134 1951M435 1951C433.94 1955.93 433.663 1961 433 1966C436.576 1961.86 436.726 1956.1 435 1951M501 1955C503.019 1953.8 503.758 1953.01 505 1951C502.475 1951.85 501.97 1952.51 501 1955M887 1951L887 1955L885 1955L885 1951L887 1951M963 1957C959.176 1955.66 955.636 1953.78 952 1952C956.765 1950.71 960.329 1953.13 963 1957M1000 1951C1000.3 1953.46 1000.29 1955.54 1000 1958C998.731 1955.28 998.669 1953.7 1000 1951M606 1952L605 1963C607.848 1959.72 608.233 1956.19 609 1952L606 1952M846 1952L845 1958C843.662 1955.29 844.092 1954.31 846 1952M945 1954C942.908 1953.59 942.98 1953.78 942 1952L945 1954M947 1952L947 1955C946.304 1953.45 946.304 1953.55 947 1952M875 1954C875.691 1958.87 876.692 1964.14 876 1969C871.822 1965.29 872.38 1958.55 875 1954M462 1955L461 1960L463 1960C462.859 1958.13 462.642 1956.75 462 1955M884 1955L883 1960C881.796 1958.22 881.399 1957.12 881 1955L884 1955M950 1955.33L950.333 1955.67C949.84 1955.83 949.227 1955.33 950 1955.33M129 1957C129.956 1963.86 133.254 1970.7 136.089 1977C144.193 1995 148.772 2009.11 148.992 2029C149.034 2032.77 150.87 2043.97 147.74 2046.64C143.041 2050.65 123.965 2038.97 120 2036C120.146 2037.81 120.465 2039.26 121 2041C115.952 2040.41 100.545 2037.79 97.8218 2033.22C94.9802 2028.45 98.11 2018.08 99.1241 2013C102.662 1995.28 110.318 1963.89 129 1957M144 1957L145 1962C143.525 1959.98 143.197 1959.35 144 1957M953 1957C956.824 1958.7 961.225 1959.8 964 1963C959.353 1962.45 955.937 1960.44 952 1958L953 1957M424 1959L425 1963C425.157 1961.17 424.938 1960.61 424 1959M512 1960C509.588 1973.63 511.993 1987.32 512 2001C516.962 1992.68 515.631 1968.95 512 1960M552 1963C553.635 1962.45 553.455 1962.64 554 1961C552.825 1961.77 552.773 1961.82 552 1963M884 1961L884 1965C883.094 1963.13 883.094 1962.87 884 1961M953 1963L952 1964L950 1961L953 1963M621 1962L620 1970C624.168 1968.34 624.453 1964.77 621 1962M972 1962C975.043 1966.61 975.94 1970.52 976 1976C973.954 1972.1 971.621 1966.39 972 1962M563 1963L562 1964L563 1963M897 1978C885.944 1969.56 898.512 1958.1 897 1978M425 1965L426 1966L425 1965M435 1976C439.66 1958.86 453.501 1972.7 435 1976M1008 1965C1009.23 1980.36 1010 1991.5 1008 2007L1006 2007C1006 1997.86 1003.28 1971.4 1008 1965M138 1966C138.986 1967.48 139 1967.2 139 1969C137.711 1967.56 137.599 1967.77 138 1966M567 1989C570.586 1963.72 564.216 1981.67 554 1990C554.671 1984.84 556.425 1979.95 558 1975C553.659 1976.89 551.763 1979.68 550 1984C544.926 1984.04 542.967 1987.4 545 1992C543.24 1992.9 541.894 1993.46 540 1994C540.278 1968.5 566.062 1966.6 585 1968.68C589.164 1969.13 598.892 1967.15 602.049 1970.26C605.178 1973.34 598.527 1980.37 595.769 1981.46C591.633 1983.1 586.082 1976.84 581.786 1978.01C576.379 1979.47 572.515 1986.68 567 1989M886 1967C887.868 1973.44 889.735 1980.29 890 1987C885.335 1982.64 884.014 1972.9 886 1967M1018 1967C1018.92 1975.24 1020.68 1981.65 1019 1990C1015.7 1983.61 1015.14 1974.14 1015 1967L1018 1967M846 1968C848.089 1972.26 851.108 1978.39 847 1982C846.593 1977.47 844.9 1972.44 846 1968M933 1968C931.773 1970.01 931.009 1970.77 929 1972C929.97 1969.51 930.475 1968.85 933 1968M464 1970C461.687 1979.14 462.543 1998.65 467 2007C469.314 1997.84 468.783 1978.3 464 1970M502 1970C499.216 1979.58 499.542 1994.3 502 2004C505.514 1993.63 502.07 1980.9 504 1970L502 1970M960.667 1971.67C960.722 1971.72 960.778 1972.78 960.333 1972.33C960.278 1972.28 960.222 1971.22 960.667 1971.67M992 1971C993.366 1974.26 993.784 1977.48 994 1981C990.891 1978.24 990.724 1974.83 992 1971M619 1983C623.291 1979.81 626.141 1981.12 628 1986C623.523 1985.58 620.797 1985.11 618 1989C613.219 1985.93 611.893 1989.26 608 1992C608.753 1985.29 609.899 1979.81 609 1973C614.763 1974.25 619.568 1976.47 619 1983M971 1974L971 1985C969.761 1981.34 969.761 1977.66 971 1974M998.667 1974.67C998.722 1974.72 998.778 1975.78 998.333 1975.33C998.278 1975.28 998.222 1974.22 998.667 1974.67M976 1977L976 1980C975.304 1978.45 975.304 1978.55 976 1977M999 1977L999 1981C998.493 1979.31 998.493 1978.69 999 1977M606 1978C605.237 1983.94 604.2 1988.1 606 1994C589.815 1990.46 595.019 1989.02 604 1978L606 1978M679 1978C669.432 2008.58 670.706 2046.21 671 2078L673 2078C674.471 2062.48 672.381 2046.66 674.085 2030.86C676.021 2012.91 682.865 1996.08 679 1978M993 1982.33L993.333 1982.67C992.84 1982.83 992.227 1982.33 993 1982.33M849 1983L851 1988C848.851 1986.45 848.319 1985.6 849 1983M879 1983C880.355 1985.09 880.729 1986.51 881 1989L878 1989C878.091 1986.8 878.275 1985.06 879 1983M998 1983L997 1984L998 1983M1180 1983C1180.41 1985.09 1180.22 1985.02 1182 1986L1180 1983M431 2024C432.966 2023.63 434.061 2023.57 436 2024L437 2023C432.099 2012.52 434 1995.53 434 1984C425.009 1988.13 431 2015.4 431 2024M485 1984C488.399 1994.27 499.272 2008.2 499.319 2018.86C499.355 2026.91 475.791 2045.38 469 2049C469 2037.41 467.843 2011.49 478 2004L478 2038C486.132 2020.26 472.527 1999.96 485 1984M534 1984C532.349 1989.92 527.219 1994.94 522 1998C524.388 1992.03 528.915 1987.8 534 1984M572 1993C578.484 1975.69 601.031 1990.85 580.003 1992.84C577.353 1993.1 574.659 1993 572 1993M551 1985C550.503 1987.16 549.958 1989.01 549 1991C548.222 1988.13 548.785 1986.94 551 1985M898 1993C894.876 1990.86 893.836 1988.66 893 1985C896.662 1986.68 897.438 1989.13 898 1993M562 1987C563.387 1997.28 552.846 2006.06 544 2009C546.239 2005.03 548.303 2001.55 549 1997C555.46 1996.7 558.287 1991.7 562 1987M636 1997C630.965 1995.82 629.186 1993.09 630 1988C633.468 1990.42 634.996 1992.91 636 1997M851 1989L853 1995C851.143 1992.88 850.464 1991.79 851 1989M976 1990C976.969 1997.53 977.125 2006.57 969 2010C969 2007.1 978.67 1991.58 973 1993C973.899 1990.88 973.876 1990.9 976 1990M945 1991C944.399 1993.97 943.834 1994.91 941 1996L943 1991L945 1991M885 1992C888.903 1999.45 896.982 2012.15 898 2020C888.8 2014.6 881.849 2002.82 885 1992M622 1993C623.903 2007.59 610.674 2003.97 612 1994C617.939 1998.45 617.646 1999.38 622 1993M995 1993.33C995.889 1993.33 995.889 1994.67 995 1994.67C994.111 1994.67 994.111 1993.33 995 1993.33M566 1999C573.913 1991.4 593.594 1994.38 603 1997.75C606.177 1998.89 615.74 2003.72 612.894 2008.37C610.831 2011.75 606.487 2010.07 604 2008.37C590.032 1998.82 582.48 1998.39 566 1999M268 2003L253 2004C257.797 1998.44 264.988 1994.42 268 2003M852 1996C854.553 2001.93 855.712 2009.55 856 2016C852.299 2010.91 847.868 2001.57 852 1996M532 1997C531.594 1999.09 531.783 1999.02 530 2000L532 1997M995 1997C998.266 2009 994.468 2016.42 989 2027C987.56 2022.17 993.089 2002.64 995 1997M898 1998C899.63 2000.86 901.176 2002.64 901 2006C897.978 2003.78 896.467 2001.61 898 1998M583 2001C581.539 2004.61 579.693 2005.88 576 2007C576.657 2002.56 578.849 2001.91 583 2001M640 2001C639.464 2004.29 638.444 2007 637 2010C636.355 2007 636.827 2004.06 637 2001L640 2001M570.049 2003.65C567.515 2002.07 550.095 2028.48 551.79 2029.59C541.536 2022.86 561.267 1998.19 570.049 2003.65M524 2003C520.107 2013.48 515.764 2024.19 513 2035L511 2035C508.082 2026.21 514.913 2006.76 524 2003M1020 2003C1019.31 2007.26 1017.73 2011.06 1016 2015C1014.23 2010.67 1015.3 2004.65 1020 2003M269 2006C267.825 2005.23 267.773 2005.18 267 2004C268.635 2004.55 268.455 2004.36 269 2006M590 2004C598.513 2004.64 592.264 2011.96 590 2004M926 2026C917.576 2022.99 908.428 2013.01 903 2006C912.702 2004.71 921.968 2018.37 926 2026M175 2007C173.52 2011.78 171.203 2016.16 167 2019C168.069 2013.9 170.563 2009.8 175 2007M596 2016C586.32 2028.81 579.909 2006.63 585.629 2008.11C590.226 2009.3 590.237 2015.21 596 2016M629 2009C627.797 2012.06 627.182 2014.72 627 2018C621.511 2016.16 623.777 2008.91 629 2009M964 2011C961.823 2010.26 961.277 2009.9 960 2008C962.739 2008.21 963.422 2008.3 964 2011M898 2009L902 2011C899.811 2011.39 898.935 2011.11 897 2010L898 2009M1011 2010L1011 2013L1009 2013L1009 2010L1011 2010M214 2019C230.984 2019.57 248.002 2020 265 2020L265 2018L241 2017C244.261 2013.56 248.574 2014.23 253 2013.78C277.323 2011.29 274 2026.57 274 2048C274 2051.03 276.277 2065.74 273.249 2066.91C269.516 2068.36 264.944 2060.81 262.646 2058.87C253.672 2051.28 243.258 2044.68 234 2037.09C224.355 2029.18 217.336 2033.39 214 2019M958 2011C953.089 2019.29 936.607 2028.79 927 2027C936.591 2021.1 947.483 2014.85 958 2011M579 2018L569 2017C571.485 2011.02 576.081 2013.69 579 2018M591 2085C592.527 2079.09 599.111 2075.62 601.973 2070C610.611 2053.04 617.14 2036.24 618 2017C615.072 2020.39 615.026 2023.64 615 2028C610.036 2023.38 610.447 2006.97 617.949 2014.53C633.61 2030.3 608.948 2080.37 591 2085M596 2013.33C596.773 2013.33 596.16 2013.83 595.667 2013.67L596 2013.33M547 2014C546.548 2016.24 546.229 2016.49 544 2017C544.899 2014.88 544.876 2014.9 547 2014M1009 2014C1009.2 2016.81 1009.04 2018.05 1007 2020C1007.04 2017.32 1007.42 2016.17 1009 2014M932 2015L932 2017L929 2017L929 2015L932 2015M510 2017C509.33 2026.35 502.229 2020.91 510 2017M857 2017C858.958 2019.27 860.543 2021.39 862 2024C858.807 2022.38 856.3 2020.84 857 2017M907 2017L906 2018L907 2017M152 2018C154.868 2022.79 157.906 2028.65 153 2033C151.792 2028.23 151.501 2022.91 152 2018M545 2018C545.505 2021.69 550.256 2037 548.884 2039.11C544.971 2045.11 542.613 2020.74 543 2018L545 2018M214 2030C209.364 2027.44 206.615 2024.04 205 2019C210.245 2020.94 212.702 2024.67 214 2030M566.571 2020.9C570.712 2018.73 586.33 2022.28 576.922 2027.32C571.503 2030.23 561.062 2023.78 566.571 2020.9M959 2021C957.076 2023.81 954.566 2025.76 952 2028C951.743 2024.01 955.774 2022.41 959 2021M600 2022C599.616 2032.83 600.633 2058.49 591 2065C589.811 2052.45 591.838 2032.01 600 2022M901 2022C905.902 2023.75 909.521 2025.81 911 2031C906.942 2028.79 903.673 2025.76 900 2023L901 2022M608 2023C611.068 2034.69 610.872 2046.73 604 2057C602.418 2049.54 604.812 2029.89 608 2023M625 2029L625 2023C629.302 2024.42 629.035 2027.38 625 2029M914 2023L920 2027C917.002 2027.02 915.401 2025.78 913 2024L914 2023M680 2024L679 2030C680.288 2027.76 680.612 2026.51 680 2024M431 2025C426.83 2044.4 428.003 2067.21 428 2087C435.745 2077.36 434.974 2036.73 431 2025M437 2025C437.06 2031.54 437.392 2038.66 439 2045C440.651 2039.33 438.941 2030.53 437 2025M502 2034C508.46 2039.39 511.476 2049.15 514 2057C503.772 2058.32 488.081 2071.31 478.18 2068.02C458.925 2061.63 491.255 2029.08 500.651 2026.37C505.924 2024.84 503.476 2032.13 502 2034M863 2025C872.266 2033.32 878.857 2041.52 883 2053C873.765 2052.68 862.16 2033.95 863 2025M965 2025C960.543 2035.36 950.181 2042.69 939 2044C942.731 2036.01 957.015 2032.5 963 2025L965 2025M196 2027C194.775 2033.75 198.064 2039.23 195.055 2045.99C190.238 2056.81 182.342 2051.34 181 2042C205.368 2050.46 175.194 2021.96 196 2027M540 2026C538.958 2032.01 536.602 2043.98 532 2048C532.523 2039.83 535.526 2032.8 540 2026M949 2026C948.455 2027.64 948.635 2027.45 947 2028C947.545 2026.36 947.365 2026.55 949 2026M529 2027C530.938 2033.67 527.613 2048.77 522 2053C522.339 2044.5 525.053 2034.54 529 2027M585.617 2028.48C598.124 2031.06 586.081 2064.5 570 2060.91C566.309 2060.08 541.976 2051.09 550.628 2044.27C555.364 2040.53 561.467 2047.41 566.25 2044.18C572.949 2039.67 573.823 2026.04 585.617 2028.48M994 2027C993.249 2029.69 992.768 2030.08 990 2030C991.45 2028.39 992.051 2027.94 994 2027M947 2029C942.301 2035.21 932.375 2041.48 925 2044C929.477 2036.19 937.936 2030.01 947 2029M1004 2029C1004.3 2031.72 1004.19 2032.37 1002 2034C1002.46 2031.99 1002.92 2030.74 1004 2029M180 2030L178 2036C177.464 2033.21 178.143 2032.12 180 2030M912.667 2030.67C912.722 2030.72 912.778 2031.78 912.333 2031.33C912.278 2031.28 912.222 2030.22 912.667 2030.67M931 2031C926.497 2036.84 921.525 2031.33 931 2031M679 2032L680 2033L679 2032M916 2032C918.306 2033.4 919.596 2034.69 921 2037C918.148 2035.95 916.445 2035.11 916 2032M160 2034C158.975 2039.73 157.101 2044.84 152 2048C152.852 2042.08 154.055 2036.51 160 2034M628 2034C627.898 2038.8 627.794 2042.9 623 2045C623.596 2040.46 623.472 2036.08 628 2034M209 2036C224.363 2051.08 238.504 2065.48 252.361 2082C255.729 2086.01 264.927 2090.58 265.614 2096.03C266.538 2103.34 236.063 2128.68 230.121 2124.6C226.743 2122.28 226.692 2108.23 225.322 2104C218.878 2084.09 207.554 2057.07 209 2036M912 2036L916 2038C913.85 2038.27 913.02 2037.92 911 2037L912 2036M182 2037C194.983 2037.11 184.903 2044.33 182 2037M678 2037L679 2038L678 2037M922.667 2037.67C922.722 2037.72 922.778 2038.78 922.333 2038.33C922.278 2038.28 922.222 2037.22 922.667 2037.67M500 2038C501.062 2044 501 2049.93 501 2056C505.093 2052.27 503.73 2041.77 500 2038M520 2038L519 2045C517.465 2042.03 517.975 2040.6 520 2038M997 2041C995.54 2050.59 985.289 2070.81 977 2076C978.27 2066.89 987.429 2043.47 997 2041M985 2043C982.761 2047.7 979.827 2051.82 975 2054L983 2043L985 2043M975 2044C974.728 2045.9 974.273 2046.51 973 2048C973.356 2046.21 973.842 2045.45 975 2044M145 2065C164.42 2072.69 124.734 2101.19 116.09 2101.18C112.707 2101.17 109.663 2092.53 108.423 2090C102.499 2077.9 100.382 2059.41 100 2046C111.039 2047.9 149.267 2055.07 145 2065M169 2054C164.395 2052.75 162.628 2050.73 162 2046C166.152 2047.57 167.699 2049.81 169 2054M177 2046L181 2055C177.456 2052.75 175.861 2050.19 177 2046M915 2080C902.505 2076.71 889.497 2057.65 885 2046C899.402 2050.25 913.306 2065.1 915 2080M440 2047C440.031 2054.79 440.782 2062.83 444 2070C445.482 2064.26 444.265 2051.3 440 2047M557 2076C547.526 2072.09 543.971 2057.1 542 2048C557.45 2052.29 558.669 2064.35 557 2076M564 2048C563.144 2051.85 563.407 2053.99 566 2057C566.701 2053.79 566.545 2051.23 566 2048L564 2048M478 2050C478 2054.75 477.829 2059.37 479 2064C481.429 2059.8 480.044 2054.72 480 2050L478 2050M1000 2050C997.005 2060.34 993.003 2074.52 983 2080C985.775 2070.55 991.363 2055.34 1000 2050M540 2051L540 2056L538 2056C538.399 2053.88 538.796 2052.78 540 2051M535 2053L534 2058C532.642 2056.34 531.849 2054.98 531 2053L535 2053M965 2053C963.313 2057.43 959.355 2065.24 953.992 2065.92C952.143 2066.16 938.084 2062.37 938.321 2061.2C938.838 2058.65 961.456 2054.12 965 2053M528 2061C521.283 2057.91 527.408 2053.06 528 2061M885 2057.33L885.333 2057.67C884.84 2057.83 884.227 2057.33 885 2057.33M152 2077C152 2073.16 150.094 2061.79 153.822 2059.44C155.813 2058.19 173.217 2060.97 173.677 2063.51C174.696 2069.13 156.181 2076.08 152 2077M619 2059C619 2063.53 619.324 2072.86 614 2074C615.287 2068.98 616.764 2063.68 619 2059M520 2089C521.665 2079.59 516.281 2070.57 519 2062C526.89 2067.12 535.739 2084.91 538 2094C524.13 2092.71 484.743 2094.97 481.617 2075.09C480.935 2070.75 509.513 2059.16 513.178 2061.44C519.153 2065.17 515.462 2082.95 520 2089M586 2060C584.571 2068.06 581.57 2075.75 581 2084C572.918 2077.3 578.252 2063.93 586 2060M896 2074C889.094 2073.1 885.246 2067.79 882 2062C887.886 2061.8 892.619 2069.69 896 2074M203 2062C203 2081.16 199.014 2104.42 203 2123C205.223 2118.29 205.69 2113.18 206 2108L209 2108C209.001 2112.86 214.091 2128.99 211.901 2131.94C206.431 2139.3 168.962 2140.71 165.859 2130.62C164.382 2125.81 171.716 2115.21 174.014 2111C182.889 2094.75 193.203 2078.77 201 2062L203 2062M532 2062L531 2063L532 2062M160 2063L159 2071C161.608 2068.7 161.832 2066.41 162 2063L160 2063M245 2063C249.541 2067.53 254.06 2071.93 258 2077L257 2078C252.507 2074.38 245.808 2068.94 245 2063M543 2073C537.8 2072.36 535.286 2068.88 534 2064C537.58 2065.48 540.554 2069.94 543 2073M918 2064L918 2067C917.304 2065.45 917.304 2065.55 918 2064M922 2064C926.741 2064.01 948.084 2070.46 944.031 2078.22C941.174 2083.68 923.499 2067.39 922 2064M566 2080C566.202 2058.08 578.255 2070.28 566 2080M946 2066L946 2069L943 2069L943 2066L946 2066M966 2066C964.806 2068.59 963.47 2069.56 961 2071C962.241 2068.2 963.163 2067.16 966 2066M194 2067C192.599 2070.37 191.379 2072.49 188 2074C189.477 2070.71 190.908 2068.87 194 2067M502 2068C500.725 2073.94 501 2079.95 501 2086C504.216 2080.91 503.977 2073.89 504 2068L502 2068M919 2068C920.297 2069.59 920.535 2070.02 921 2072C919.591 2070.48 919.145 2070.01 919 2068M627 2069C626.602 2071.54 626.096 2073.68 625 2076C624.181 2073.63 624.05 2071.51 624 2069L627 2069M951 2074C948.495 2073.06 947.936 2072.51 947 2070C949.505 2070.94 950.064 2071.49 951 2074M272 2078C265.207 2073.23 273.577 2069.72 272 2078M563 2072L562 2085C556.461 2081.2 557.998 2077.19 561 2072L563 2072M589 2072C588.199 2076.47 588.048 2080.48 585 2084C585.154 2079.83 585.898 2076.01 587 2072L589 2072M972 2072C972.214 2075.76 971.522 2079.28 971 2083C964.683 2080.08 966.88 2075.01 972 2072M534 2073C547.014 2081.69 560.416 2088.25 574 2096C557.791 2100.72 532.968 2093.82 534 2073M575 2073C575.035 2076.74 575.347 2080.31 576 2084C568.686 2082.97 571.924 2077.39 575 2073M548 2074C549.641 2075.99 550.844 2077.71 552 2080C548.877 2078.74 547.388 2077.47 548 2074M619 2074L619 2077C618.304 2075.45 618.304 2075.55 619 2074M919 2074C923.828 2077.43 934.252 2082.87 935 2089C928.233 2086.11 917.104 2083.57 919 2074M178 2076C173.412 2087.46 164.168 2099.78 156 2109C155.096 2102.15 159.451 2094.92 160 2088C155.091 2093.34 156.51 2101.84 151 2106C151.002 2088.76 160.956 2080.12 178 2076M904 2085C900.698 2083.17 898.903 2081.26 897 2078C901.204 2078.49 902.472 2081.27 904 2085M959 2082C956.03 2081.4 955.092 2080.83 954 2078C956.916 2078.61 957.781 2079.28 959 2082M609 2079C607.795 2083.07 588.985 2105.48 585.106 2094.22C584.449 2092.32 605.641 2080.88 609 2079M949 2079L946 2080L949 2079M615 2080C614.308 2085.23 611.622 2087.72 607 2090C608.866 2085.8 611.451 2082.89 615 2080M264 2082C266.537 2083.87 268.833 2085.72 271 2088C267.154 2087.61 264.558 2086.01 264 2082M630 2083C629.378 2085.39 629.098 2087.53 629 2090C631.26 2087.69 631.418 2085.87 630 2083M945 2086C970.986 2080.81 951.098 2099.66 945 2086M943 2085C941.103 2087.31 940.189 2086.89 938 2085L943 2085M583 2089C579.694 2097.08 570.45 2092.32 568 2086L583 2089M448 2089C451.17 2112.64 454.388 2136.24 456.342 2160C456.918 2167.01 452.909 2178.97 459 2184C455.747 2161.3 458.026 2136.31 455.803 2113C455.162 2106.28 455.067 2091.91 448 2089M149 2127C143.032 2125.79 117.808 2115.15 120.743 2106.67C121.777 2103.68 145.267 2090.76 147.6 2093.1C153.075 2098.6 148.911 2119.85 149 2127M669 2126C670.82 2123.97 671.44 2122.67 672 2120C674.156 2125.46 673.83 2133.96 677.964 2138.31C687.659 2148.51 693.415 2124.69 694 2119C690.56 2122.75 688.414 2136.07 682.723 2136.7C671.531 2137.93 674.635 2097.36 676 2091C668.741 2095.85 667.643 2117.65 669 2126M499 2098C499.026 2100.83 499.086 2103.32 500 2106C501.438 2102.87 501.535 2100.47 499 2098M168 2099C165.086 2106.41 161.964 2117.91 154 2121C156.077 2113.17 160.833 2103.24 168 2099M642 2099C639.005 2107.17 641.137 2117.67 643 2126C645.23 2119.42 645.463 2105.04 642 2099M695 2099C694.378 2101.39 694.098 2103.53 694 2106C695.018 2103.55 695.4 2101.63 695 2099M429 2100C424.61 2116 426 2133.55 426 2150C430.834 2142.24 433.711 2107.68 429 2100M629 2103C628.988 2111.05 628.324 2118.3 626 2126C631.549 2121.45 631.333 2109.24 629 2103M611 2104C608.359 2115.29 608.358 2155.75 617.144 2164.35C623.867 2170.93 625.891 2151.06 626 2148C623.615 2152.85 621.789 2157.64 621 2163C605.548 2147.45 619.861 2121.16 611 2104M596 2105C596.141 2106.87 596.358 2108.25 597 2110C597.11 2108 596.828 2106.83 596 2105M219 2107C219.825 2109.65 220.618 2112.28 221.168 2115C226.143 2139.62 213.174 2117.92 219 2107M542 2109C541.211 2114.21 539.973 2118.74 541 2124C542.691 2119.36 543.582 2113.74 542 2109M673 2115L673 2118L671 2118L671 2115L673 2115M410 2121C407.765 2129.85 409.931 2140.26 412 2149C414.044 2141.99 413.083 2127.65 410 2121M463 2122C463.614 2133.71 467.302 2167.3 478.376 2173.87C494.892 2183.68 497 2142.19 497 2135C491.526 2140.2 493.258 2152.87 490.992 2160C488.283 2168.53 479.874 2175.76 474.861 2164.86C469.896 2154.06 471.848 2129.3 463 2122M159.667 2125.67C159.722 2125.72 159.778 2126.78 159.333 2126.33C159.278 2126.28 159.222 2125.22 159.667 2125.67M158 2126C157.242 2129.25 156.223 2129.62 153 2129C154.72 2127.39 155.772 2126.76 158 2126M708 2137L708 2142C708.631 2139.99 708.631 2139.01 708 2137M594 2142L594 2155C595.402 2150.86 595.402 2146.14 594 2142M716 2145C714.703 2146.59 714.465 2147.02 714 2149C715.996 2147.76 716.558 2147.31 716 2145M413 2150L413 2155C414.176 2152.81 414.176 2152.19 413 2150M344 2155C341.21 2162.01 334.235 2170.43 337.501 2178.49C340.265 2185.31 349.465 2174.84 350 2171C334.037 2177.58 344.293 2165.61 346 2155L344 2155M414 2157L414 2160L416 2157L414 2157M592 2157L592 2164C593.388 2161.63 593.776 2159.74 594 2157L592 2157M415 2162C413.64 2169.61 416.283 2175.6 417 2183L419 2183C418.367 2176.36 417.404 2168.22 415 2162M426 2173C424.952 2176.63 424.356 2180.24 424 2184C428.307 2183.08 427.84 2176.19 426 2173z"/>
</svg>
