<?xml version="1.0" standalone="yes"?>
<svg xmlns="http://www.w3.org/2000/svg" width="2200" height="2200">
<path style="fill:#0f0f0f; stroke:none;" d="M629 16C638.55 32.6331 662.069 53.9937 679 63C674.774 50.792 641.694 17.6458 629 16M1116 254C1125.63 255.293 1130.92 250.245 1139.07 248.24C1166.12 241.587 1190.3 228.764 1217 221C1209.68 243.144 1201.79 264.533 1192.69 286C1191.51 288.779 1182.38 304.743 1184.93 306.459C1187.68 308.313 1205.91 293.176 1208.92 290.914C1232.82 272.984 1255.6 250.986 1283 238C1282.97 260.124 1277.64 282.94 1279.43 305C1279.69 308.206 1275.68 323.065 1278.36 324.239C1283.1 326.31 1294.65 292.915 1297.04 289C1315.08 259.459 1332.7 229.461 1353.77 202C1358.32 196.062 1377.2 180.008 1376.38 172.501C1375.8 167.265 1359.15 170.643 1356 171.38C1339.18 175.315 1322.41 179.462 1306 184.899C1303.06 185.874 1292 191.338 1289.52 188.772C1284.59 183.682 1290.8 156.222 1291.04 149C1291.87 124.183 1298.27 99.6455 1297.99 75C1297.76 53.9866 1289.7 36.3232 1300 16C1290.84 16.3186 1289.18 24.5085 1284.1 31C1272.75 45.4707 1262.14 60.2598 1251.17 75C1206.66 134.808 1153.27 189.323 1116 254M1720.99 18.3672C1710.29 22.8369 1711.27 42.967 1723.44 37.4443C1730.54 34.2175 1731 14.1846 1720.99 18.3672M1723 26L1720 27L1723 26M1291 31.3333C1291.89 31.3333 1291.89 32.6667 1291 32.6667C1290.11 32.6667 1290.11 31.3333 1291 31.3333M1722 31L1721 32L1722 31M1290 34C1295.88 73.5413 1291.35 113.226 1286.43 153C1285.27 162.415 1288.57 183.687 1282.74 191.22C1275.59 200.469 1237.73 209.501 1226 212C1230.8 180.672 1248.53 148.83 1258.98 119C1268.53 91.7627 1274.55 58.5708 1290 34M1284 38C1271.73 81.5986 1253.28 126.895 1236.2 169C1231.06 181.7 1229.04 204.493 1219.32 214.334C1213.99 219.741 1202.87 221.047 1196 223.965C1174.01 233.306 1149.86 244.711 1126 248C1131.22 232.461 1145.94 216.24 1155.4 202.764C1181.79 165.187 1212.15 130.043 1240.61 94C1253.24 77.9932 1266.78 48.6479 1284 38M1737 158C1733.2 166.657 1721.19 173.189 1714.3 179.557C1696.91 195.611 1678.86 210.672 1661 226.217C1632.81 250.758 1604.87 279.798 1580.5 308.217C1569.45 321.1 1560.57 337.568 1548 349C1559.15 352.309 1580.59 316.138 1587.57 308.001C1625.25 264.078 1669.59 225.707 1713 187.698C1724.86 177.314 1736.78 167.052 1749 157.097C1751.17 155.327 1761.35 149.64 1760.68 146.357C1759.91 142.624 1750.61 148.24 1749 148.889C1736.78 153.799 1724.81 158.211 1712 161.373C1667.63 172.324 1623.25 179.676 1578 185.302C1571.45 186.116 1537.87 193.135 1534.32 187.108C1532.43 183.888 1541.1 179.359 1543 177.911C1553.71 169.748 1564.03 160.852 1575 153.067C1605.32 131.543 1631.91 103.867 1659.14 78.6797C1672.09 66.7019 1691.16 54.4177 1700 39C1690.71 41.0696 1682.45 51.8035 1675.79 58.3462C1661.14 72.7302 1645.3 86.1797 1630 99.9041C1604.79 122.53 1578.72 143.711 1552.99 165.634C1546.01 171.585 1529.25 177.447 1525.78 186.258C1524.29 190.058 1529.07 194.671 1528.71 199.003C1526.59 224.676 1526.35 246.3 1534.96 271C1542.06 291.39 1537.99 309.566 1539.6 330C1539.86 333.322 1538.74 348.462 1543.21 349.214C1543.85 349.322 1546.71 315.6 1546.91 311C1548.26 280.92 1530.97 252.439 1531.96 222C1532.18 215.3 1530.42 199.227 1535.95 194.26C1545.44 185.725 1583.05 190.359 1596 188.743C1642.05 182.998 1693.89 175.474 1737 158M459 286C474.657 301.393 520.494 281.335 541 282.041C546.194 282.219 564.808 289.771 567.894 286.144C570.681 282.868 562.662 281.307 561 281C564.515 279.52 572.514 278.989 574.806 275.96C577.17 272.836 573.318 261.506 572.217 258C569.286 248.66 571.603 235.762 571.556 226C571.305 173.664 579.994 121.289 580 69C570.841 72.4128 566.278 86.5718 562.721 95C551.565 121.431 541.747 150.544 533.501 178C531.798 183.672 531.521 208.818 526.451 211.357C524.338 212.415 516.724 185.204 515.68 182C506.805 154.744 499.719 127.115 490.373 100C489.38 97.1187 480.188 73.3069 477.345 76.9695C472.59 83.0962 476 111.768 476 120C476 157.988 469.523 195.334 468.043 233C467.528 246.105 471.029 278.999 459 286M576 79C573.646 118.332 570.919 157.607 568.922 197C567.615 222.797 563.965 247.572 570 273C545.955 276.284 520.797 275.221 497 280.82C491.973 282.002 474.513 287.913 470.3 283.7C464.638 278.038 471.63 241.276 472.562 233C477.859 185.968 480 138.345 480 91C488.168 97.3652 489.242 110.684 491.841 120C498.235 142.922 508.307 165.694 512.928 189C514.078 194.799 520.797 222.723 527.209 223.919C532.249 224.858 535.26 193.293 536.039 189C540.676 163.421 552.01 137.642 560.335 113C563.917 102.399 567.796 86.8171 576 79M871 163L873 163C873 191.943 879.188 220.323 880.943 249C881.191 253.036 886.957 273.997 891.79 273.997C892.572 273.997 894.167 252.372 894.64 249C898.344 222.611 908.389 195.565 909 169C920.139 192.358 914.891 223.307 923.145 247.915C924.12 250.822 935.075 269.043 936.765 267.592C938.976 265.695 937.665 256.092 938.381 253C942.234 236.359 934.59 201.955 945 189C945 209.946 944.877 231.156 946.783 252C947.38 258.521 946.156 270.233 952 274C956.723 256.018 954.797 238.52 956.135 220C957.98 194.482 962.653 169.186 965.565 144C967.063 131.05 975.601 105.336 970.816 93.2839C967.672 85.3674 947.989 93.5051 942.04 93.957C921.702 95.502 870.046 73.9553 857.063 95.011C850.119 106.273 854.24 127.275 853.981 140C853.265 175.279 853.724 211.881 850.788 246.997C849.834 258.406 849.711 270.039 846.058 281C845.3 283.277 842.043 290.597 844.863 292.456C850.414 296.115 854.448 270.144 854.415 267C854.056 233.231 870.334 197.74 871 163M2124 300C2137.97 294.718 2141.22 265.863 2142.82 253C2147.75 213.533 2150.7 171.368 2143.82 132C2141.25 117.314 2136.52 96.1855 2120 91.7637C2099.99 86.4089 2082.24 115.405 2082.01 132C2081.46 171.704 2102.99 208.463 2102.96 247C2102.96 255.825 2096.7 283.291 2085.77 284.796C2070.98 286.833 2053.99 260.843 2051.33 249C2042.29 208.771 2041.12 166.574 2057.24 128C2061.47 117.88 2069.82 94.5232 2054.92 88.8057C2037.46 82.1057 2019.35 106.725 2012.25 119C1990.17 157.174 2000.97 215.047 2011.08 255C2013.4 264.179 2018.31 298.31 2029.03 300.894C2034.26 302.156 2034.56 293.103 2034.35 290C2033.59 278.774 2030.99 263.485 2027.44 253C2021.55 235.599 2020.52 217.752 2016.37 200C2010.2 173.634 2000.8 154.313 2013.5 127C2019.91 113.23 2031.72 95.002 2048 92.4365C2068.29 89.2388 2053.32 127.623 2050.64 136C2038.61 173.62 2035.71 214.726 2048.11 253C2052.53 266.671 2068.9 289.039 2084.99 290.086C2101 291.128 2105.96 254.904 2106.22 244C2107.18 204.224 2063.23 141.92 2096.62 106.497C2122.45 79.085 2138.84 114.938 2140.86 140C2143.93 177.847 2145.6 219.501 2138.61 257C2135.79 272.141 2127.89 285.37 2124 300M957 162C956.985 160.429 955.634 144.341 952.268 149.649C947.744 156.784 952.348 188.182 952 198C938.248 188.516 953.107 149.522 938.364 140.323C936.571 139.205 938.083 161.498 938.019 165C937.631 185.945 940.86 207.183 936.782 228C935.602 234.021 938.068 239.904 934 245C927.522 218.988 922.681 191.525 918.713 165C917.917 159.68 917.141 140.196 911.428 137.761C908.279 136.419 907.689 162.695 906.863 166C899.756 194.441 889.117 227.625 889 257C883.075 252.715 885.544 240.808 884.853 234C882.726 213.073 879.212 192.145 878.646 171C878.559 167.718 874.541 145.453 871.391 146.082C868.104 146.738 867.767 164.762 867.24 168C864.53 184.674 861.943 201.31 859.277 218C858.38 223.612 859.648 232.161 855 236C854.358 201.417 858.61 167.378 858.992 133C859.141 119.638 854.699 101.11 868.472 92.6008C882.497 83.9365 906.382 97.9756 921 98.231C929.758 98.384 957.984 90.8254 964.141 94.825C967.545 97.0366 965.249 106.741 964.754 110C963.031 121.354 965.705 154.811 957 162M232 136C228.926 122.229 210.347 122 199 122C222.963 105.482 243.206 132.959 236.525 156C228.847 182.48 190.45 192.035 166 190.224C159.196 189.721 146.546 193.048 147.164 202.001C148.164 216.482 160.491 237.807 175 240.234C186.755 242.2 213.463 230.442 214.871 252C218.413 306.212 127.524 308.326 92 301.418C80.5402 299.19 68.4796 298.494 58 293.449C56.3985 292.677 49.102 287.986 47.7612 290.733C43.9676 298.504 78.4174 302.717 82 303.604C113.701 311.448 158.238 311.681 189 298.973C206.097 291.91 234.729 251.182 210.358 237.224C198.522 230.446 190.636 237.579 179.003 235.727C176.242 235.287 168.991 232.224 170.004 228.346C171.053 224.326 192.848 225.37 197 224.567C221.936 219.742 245.435 225.504 270 214.561C274.116 212.728 290.624 205.944 289.677 200.121C288.93 195.529 275.406 193.988 272 191C281.38 189.109 291.212 180.623 295 172C270.341 171.853 250.306 174.094 226 181C242.067 158.789 256.93 114.897 213 113.104C198.444 112.51 181.043 121.808 167 125.554C141.061 132.473 114.173 135.531 88 141.421C82.3059 142.702 39.3451 152.26 48.0518 164.109C50.557 167.518 54.6818 157.878 57.0428 156.696C68.6003 150.91 79.6024 148.545 92 145.315C128.19 135.889 173.702 122.486 211 127.341C219.17 128.405 224.438 134.287 232 136M313.5 126.5C312.873 127.127 313.873 128.127 314.5 127.5C315.128 126.873 314.128 125.872 313.5 126.5M916 166L916 169L914 166L916 166M1369 173C1362.61 183.973 1351 187.699 1341 194.422C1322.37 206.943 1306.77 221.588 1286 231C1286.54 221.912 1284.06 203.606 1288.82 195.8C1291.63 191.192 1302.19 191.493 1306.78 189.707C1324.92 182.657 1349.49 173.769 1369 173M287 175C285.154 178.031 283.264 179.614 280 181C281.925 178.119 283.917 176.569 287 175M260 178C252.788 191.505 240.16 196.129 252.687 208.688C254.671 210.677 255.702 213.296 252.686 214.824C238.681 221.918 220.688 217.031 206 218.341C193.854 219.425 174.815 226.079 163.327 223.739C155.314 222.108 156.344 211.183 160 207C152.511 205.943 165.097 186.463 165 211L168 211C168 207.258 166.858 200.917 169.822 198.04C175.184 192.835 188.961 192.492 196 191.176C217.159 187.221 239.554 184.69 260 178M278 182L277 183L278 182M2004 182C2007.05 184.895 2006.91 188.078 2006 192C2003.2 188.944 2002.69 185.92 2004 182M277 184L274 186L274 183C275.797 183 275.522 183.014 277 184M919 183L919 186L917 186L917 183L919 183M270 188C268.55 189.607 267.948 190.064 266 191C267.277 189.103 267.823 188.741 270 188M1357 190C1343.98 217.175 1320.15 241.416 1304.91 268C1298.85 278.564 1292.1 298.144 1282 305C1283.74 286.35 1279.31 252.491 1287.44 236.051C1291.32 228.224 1303.02 226.627 1309.92 222.577C1326.31 212.964 1338.66 196.781 1357 190M1193 296C1195.75 280.411 1206.97 266.024 1212.01 251C1215.47 240.698 1216.78 225.361 1225.4 217.666C1231.88 211.887 1245.69 208.438 1254 206.285C1258.48 205.125 1279.24 194.304 1282.6 198.044C1285.86 201.664 1284.15 229.616 1281.06 233.365C1274.28 241.598 1258.96 248.025 1250 254.063C1231.76 266.353 1213.29 288.282 1193 296M2009 197C2010.75 200.346 2011.69 203.232 2012 207C2008.97 203.991 2007.27 201.15 2009 197M274 203L273 204C271.995 202.577 270.199 203.941 268 204C269.962 201.772 271.579 201.038 274 203M251 202L250 203L251 202M951 203C952.794 206.602 952.582 208.919 950 212C950.012 208.863 949.987 205.981 951 203M2013.67 213.667C2013.72 213.722 2013.78 214.778 2013.33 214.333C2013.28 214.278 2013.22 213.222 2013.67 213.667M922.667 215.667C922.722 215.722 922.778 216.778 922.333 216.333C922.278 216.278 922.222 215.222 922.667 215.667M951 216L951 222C950.245 219.697 950.245 218.303 951 216M401 218L402 219L401 218M2012 218C2020.59 237.079 2019.47 257.755 2026.11 276.974C2026.7 278.696 2037.03 295.357 2028.95 295.357C2025 295.357 2022.4 280.964 2021.69 278C2018.33 263.919 2005.92 231.473 2012 218M1218 220L1217 221L1218 220M924 222C925.274 225.679 925.857 229.113 926 233C924.641 229.53 923.577 225.721 924 222M950.667 226.667C950.722 226.722 950.778 227.778 950.333 227.333C950.278 227.278 950.222 226.222 950.667 226.667M935 248C934.227 249.175 934.175 249.227 933 250C933.545 248.365 933.365 248.545 935 248M232 282C233.952 281.489 234.457 281.267 236 280C233.648 280.01 233.386 280.105 232 282M929.34 291.544C925.596 293.377 920.372 314.058 927.681 311.894C934.754 309.8 936.085 288.243 929.34 291.544M953.563 294.268C946.395 299.024 951.333 317.615 960.06 311.622C965.031 308.208 962.877 288.088 953.563 294.268M890.682 299.525C886.556 301.521 884.178 322.228 890.565 319.456C896.717 316.786 899.243 295.384 890.682 299.525M957 301C958.524 303.622 958.617 305.03 958 308C956.19 305.541 955.801 303.862 957 301M852.95 305.146C847.319 306.651 835.743 325.378 846.01 323.994C852.034 323.182 863.325 302.371 852.95 305.146M853 309C851.689 313.156 849.848 317.057 848 321C844.895 315.759 848.253 311.662 853 309M2034.98 311.944C2021.86 314.518 2022.75 337.338 2034.74 334.813C2041.05 333.483 2045.46 309.887 2034.98 311.944M2035 317C2035.51 320.908 2034.67 322.506 2031 324C2031.79 320.928 2032.75 319.235 2035 317M2116 336L2111 335C2116.34 348.019 2132.73 330.084 2131.23 321.209C2129.4 310.398 2115.11 328.095 2116 336M812 403C812.059 400.245 812.467 397.704 813 395C803.651 398.674 809.55 416.247 818.687 414.333C832.742 411.388 821.465 381.605 812 403M2047 413.048C2027.03 417.093 2024.82 453.325 2006.94 461.562C1996.46 466.388 2000.61 428.172 1988.95 423.167C1976.04 417.627 1966.23 438.089 1964.5 448C1961.61 464.58 1972.81 477.395 1987 484.305C1990.85 486.182 2004.69 489.936 2004.06 495.14C2002.48 508.138 1982.32 528.231 1974.62 539.078C1956.4 564.729 1936.52 605.525 1934.92 637C1934.47 645.79 1930.15 657.488 1934.6 665.821C1940.42 676.697 1962.42 684.881 1974 686.576C1981.88 687.728 1992.15 686.259 2000 684.981C2014.52 682.617 2023.57 672.671 2034.32 663.691C2048.27 652.038 2066.83 636.594 2073.96 619C2084.32 593.442 2071.34 544.218 2058.61 522C2052.54 511.395 2040.41 503.933 2030 497.834C2026.67 495.886 2016.95 494.201 2016.03 489.895C2015.05 485.287 2024.19 477.22 2026.81 474C2037.9 460.373 2054.11 449.87 2058.89 433C2061.54 423.654 2063.95 409.614 2047 413.048M2047.98 417.674C2057.18 416.474 2052.82 429.013 2050.5 433C2042.07 447.466 2031.47 461.773 2021.22 475C2018.24 478.847 2014.22 487.479 2008.86 488.137C1981.21 491.529 1950.41 444.362 1981.05 427.494C1987.36 424.02 1991.76 431.834 1993.24 437C1995.67 445.454 1989.41 470.296 2006 467.409C2027.18 463.724 2028.24 420.249 2047.98 417.674M1175 437C1166.73 444.336 1171.94 478.069 1172 489C1172.07 502.077 1167.41 514.364 1167.08 526.019C1166.46 547.671 1168.26 569.275 1165.57 591C1164.4 600.464 1160.55 628.589 1166.47 636.351C1169.67 640.543 1171.62 631.783 1172 630C1174.46 639.725 1174.4 650.975 1175 661C1189.38 651.197 1207.06 653.733 1225.96 652.161C1233.51 651.533 1236.99 644.444 1244.01 643.287C1258.56 640.891 1274.25 646.001 1289 646C1300.45 645.999 1323.91 635.693 1327 648C1333.61 643.474 1331 631.174 1331 624C1332.94 625.877 1337.1 637.486 1338.69 636.894C1344.86 634.596 1342.88 604.013 1343.02 598C1343.36 582.977 1345.59 568.093 1344.97 553.011C1344.77 548.226 1340.25 545.385 1340.53 540.934C1341.61 524.146 1342.57 506.879 1344.11 490.007C1344.59 484.712 1348.71 481.409 1348 476C1342.85 478.859 1333.79 478.599 1330.02 481.635C1316.93 492.162 1307.69 512.549 1295 524.981C1291.1 528.804 1280.06 542.52 1274.26 541.493C1268.69 540.507 1263.75 530.097 1260.61 526C1251.99 514.713 1238.69 494.304 1224 491C1231.46 509.898 1239.07 522.495 1249.53 540C1251.91 543.993 1261.47 551.028 1260.19 556C1256.85 568.999 1228.56 590.739 1219.08 601C1216.72 603.559 1204.46 612.585 1205.83 615.917C1208.19 621.611 1216.09 610.724 1219 610.111C1231.47 607.483 1248.09 587.84 1258 578.917C1260.54 576.631 1266.59 567.444 1270 567.444C1275.05 567.444 1282.31 583.194 1285.69 586.694C1288.19 589.272 1297.64 600.327 1299 594C1301.83 595.849 1320.8 611.561 1323.75 608.592C1326.86 605.458 1317.75 597.061 1316.01 595C1309.16 586.924 1288.33 568.52 1287.75 558C1286.86 542.021 1323.03 519.974 1333 510C1337.38 538.278 1332.12 577.627 1328 606C1327.08 612.312 1326.73 632.418 1320.53 635.276C1302.81 643.449 1285.22 636.623 1267 636.097C1251.54 635.652 1236.19 640.87 1221 642.3C1208.27 643.498 1199.96 636.73 1188 645C1196.18 647.773 1206.09 642.034 1213 648C1202.98 648.39 1186.35 656.499 1179.12 645.65C1172.05 635.033 1177.01 610.099 1177.86 598C1180.3 563.356 1178 527.736 1178 493C1178 482.829 1172.5 456.746 1178.26 448.502C1181.9 443.295 1204.61 444.253 1211 443.922C1242.29 442.301 1273.68 441.707 1305 439.856C1321.01 438.91 1341.01 443.066 1356 440.476C1361.23 439.572 1373.96 431.055 1378.42 434.287C1383.37 437.869 1377.18 473.465 1376 480C1369.02 518.75 1364.3 560.775 1363.04 600C1362.76 608.628 1359.21 634.71 1367 638C1372.1 585.446 1375.81 532.759 1380.78 480C1381.53 472.04 1389.56 433.422 1382.72 430.063C1373.33 425.457 1357.75 435.491 1347 434.921C1307.21 432.814 1265.6 434.941 1226 436.674C1214.59 437.173 1182.04 446.964 1175 437M1676 527C1680.08 545.995 1678.49 567.824 1676.44 587C1675.99 591.206 1679.24 601.893 1675.42 604.556C1670.82 607.759 1661.45 604.893 1656 605.76C1640.96 608.154 1625.03 611.488 1611 617.437C1607.36 618.98 1598.57 622.926 1597.29 616.871C1595.69 609.261 1599.16 600.547 1599.85 593C1601.66 572.887 1600.82 530.113 1617.23 516.325C1629.28 506.191 1667.05 504.199 1682 507.099C1686.7 508.01 1695.4 504.063 1698.1 509.287C1704.57 521.817 1695.47 545.959 1693.61 559C1691.06 576.825 1695.77 596.177 1696.87 614.019C1697.32 621.175 1699.95 638.861 1693.54 643.753C1687.4 648.439 1677.16 646.503 1670 647.328C1648.63 649.788 1628.6 651.998 1607 652C1592.92 652.001 1578.65 655.093 1565 658.501C1560.72 659.569 1552.78 663.053 1549.04 659.178C1545.09 655.081 1546.9 644.227 1547.02 639C1547.46 619.38 1550.93 599.653 1551.92 580C1553.3 552.873 1554.52 525.063 1557.56 498C1558.41 490.426 1557.3 475.415 1563.36 469.845C1570.12 463.639 1588.26 463.001 1597 463C1622.61 462.998 1647.64 464.818 1673 459.517C1691.34 455.682 1710.22 449.299 1728 443.356C1732.26 441.932 1745.02 436.148 1749.18 438.514C1753.57 441.017 1746.14 477.927 1745.44 484C1740.9 523.499 1737.22 563.192 1737 603C1736.95 611.927 1733.25 636.594 1743 641C1742.04 589.54 1743.57 539.095 1749.2 488C1750.32 477.788 1760.69 442.258 1754.04 434.544C1749.8 429.617 1736.95 435.853 1732 437.305C1712.26 443.098 1690.33 453.273 1670 455.771C1640.34 459.415 1606.38 452.649 1578 460.104C1572.49 461.55 1561.33 461.838 1556.87 464.819C1551.34 468.511 1553.36 501.923 1552.86 509C1550.24 546.515 1547.65 584.609 1543.44 622C1542.43 630.975 1537.55 657.928 1544.25 665.042C1547.13 668.095 1556.35 665.525 1560 665.086C1575.66 663.201 1589.8 656.001 1606 656C1629.01 655.998 1650.28 654.487 1673 651.361C1681.2 650.232 1692.36 652.904 1699.18 646.678C1704.27 642.032 1701.32 620.587 1700.86 614C1699.63 596.388 1695.89 577.629 1698.48 560C1700.61 545.503 1709.98 517.989 1702.31 504.306C1698.93 498.269 1685.84 501.1 1680 500.981C1661.28 500.601 1645.21 504.103 1627 508.302C1622.5 509.34 1611.5 510.054 1608.25 513.257C1602.1 519.318 1602.17 538.911 1601.98 547C1601.42 570.745 1584.72 600.858 1593.93 624.831C1596.28 630.944 1607.61 624.376 1612 622.947C1627.28 617.971 1642.78 611.362 1659 610.139C1663.65 609.788 1678.52 612.809 1681.72 609.7C1685.35 606.173 1680.67 592.618 1680.55 588C1680.04 568.772 1688.19 542.77 1681.48 524.265C1679.92 519.965 1636.01 530.925 1633.12 536.345C1630.31 541.612 1623.91 574.622 1625.94 579.501C1628.36 585.295 1652.9 584.806 1655.8 579.443C1657.3 576.667 1656.95 553.003 1653.74 553.003C1646.28 553.003 1656.19 574.724 1646.92 576.937C1627.62 581.545 1632.27 549.39 1640.1 539.561C1647.91 529.77 1666.21 533.496 1676 527M898 681C923.378 653.092 909.297 604.588 920.919 571C923.841 562.555 931.589 558.805 936.735 551.959C945.88 539.792 955.729 521.794 959.209 507C962.708 492.127 965.274 476.186 962.842 461C962.479 458.731 960.289 444.631 955.668 446.877C952.614 448.361 957.386 462.233 957.992 465C961.174 479.517 957.415 501.711 951 515C949.415 494.158 953.026 474.675 949.619 454C948.596 447.789 953.336 444.271 948 439C942.947 452.021 933.418 461.666 928.621 475C921.872 493.76 920.614 514.011 914.746 533C912.795 539.312 911.82 561.422 905.716 564.157C883.773 573.99 879.896 514.729 852.399 535.957C831.944 551.748 825.691 589.394 820.895 613C820.213 616.352 815.041 637.094 809.019 631.351C797.674 620.531 796.875 599.198 797.864 585C800.24 550.868 810.663 518.994 814.823 485C816.355 472.479 817.071 460.539 817.003 448C816.992 446.089 818.152 436.003 814.96 436.003C811.547 436.003 812.131 444.014 812.125 446C812.093 457.052 813.275 469.537 809.07 480C794.743 515.649 789.221 568.586 788.011 607C787.757 615.06 780.368 637.912 785.84 644.101C795.482 655.007 815.397 640.992 820.285 631.999C832.065 610.323 831.717 584.167 842.157 562C846.03 553.778 851.29 541.082 862.844 542.865C871.007 544.124 878.406 562.854 883.82 568.675C888.836 574.068 904.561 570.02 906.842 574.719C909.498 580.19 905.076 597.858 903.897 604C900.498 621.71 890.454 664.864 898 681M2051 441C2049.66 445.349 2048.25 448.1 2044 450C2045.33 445.981 2047.51 443.369 2051 441M594 666C584.393 666.895 576.446 664.349 567 664C577.041 655.934 607.68 673.765 612.415 663.716C619.278 649.149 614.338 631.059 614.019 616C612.975 566.791 605.305 526.653 588.804 480.922C579.47 455.055 550.995 429.942 524.008 449.459C497.537 468.603 493.398 491.642 486.22 521C477.91 554.991 471.566 588.058 467.677 623C466.972 629.334 466.267 644.906 462.098 649.618C459.936 652.061 444.43 654.395 446.544 658.404C450.267 665.468 473.364 662.019 480 661.998C506.508 661.917 535.628 664.588 562 667.225C571.512 668.176 587.351 675.961 594 666M547 446.653C567.098 445.556 579.202 469.903 585.333 484.981C601.687 525.204 604.553 561.936 609.438 605C611.041 619.129 612.276 633.85 611.129 648C610.854 651.392 611.387 660.783 606.774 661.706C598.763 663.31 582.362 656.849 573 656.688C565.343 656.556 558.633 661.703 551 661.931C534.721 662.417 518.106 658.58 502 656.904C495.954 656.275 472.538 656.3 469.396 651.315C463.277 641.605 473.665 608.233 475.485 597C481.59 559.323 485.603 517.934 501.358 483C509.389 465.193 526.534 447.771 547 446.653M948 458C951.19 482.057 951.598 545.738 923 556C927.48 531.522 932.579 506.178 938.377 482C939.985 475.295 940.968 460.891 948 458M187 459.656C115.638 461.459 87.4586 546.822 91.0856 605C92.3035 624.536 105.143 646.06 116.99 660.997C121.234 666.349 128.061 675.384 136 674.249C156.643 671.299 158.673 639.007 153.943 624C141.493 584.501 116.643 522.116 178 507.682C245.123 491.892 263.308 572.698 251.738 624C248.525 638.247 228.706 642.368 229.731 656.957C230.49 667.78 244.758 663.818 251 661.451C273.792 652.808 277 614.991 277 594C277 541.105 254.319 457.956 187 459.656M182 464.406C249.98 453.281 275.515 546.813 272.742 597C271.584 617.959 269.933 658.793 241.003 658.868C237.635 658.877 232.633 657.512 234.531 653.085C237.466 646.241 246.443 644.481 250.823 638.893C258.297 629.358 258.413 617.543 259.677 606C264.38 563.049 247.864 504.658 199 502.118C154.761 499.819 127.027 534.029 132.446 577C134.54 593.601 144.6 608.024 149.132 624C151.92 633.83 153.28 674.878 133.516 669.972C109.704 664.061 94.6237 613.513 96.1429 593C100.143 538.981 116.401 475.142 182 464.406M939 464C937.182 469.775 935.758 476.681 933 482C931.684 475.834 934.232 469.439 937 464L939 464M932 484C937.01 500 923.652 527.585 921.019 544C919.846 551.31 921.068 559.784 913 563C915.254 539.185 921.003 505.301 932 484M1327 492C1330.93 483.639 1335.26 488.194 1327 492M2010.4 496.006C2016.59 493.893 2027.3 501.972 2032 505.185C2047.66 515.88 2063.24 527.658 2064.75 549C2066.24 570.018 2074.73 592.794 2070.65 614C2066.42 636.002 2027.64 671.541 2006.92 678.109C1998.99 680.624 1989.27 680.982 1981 680.999C1897.71 681.173 1958.52 575.294 1980.61 539C1986.5 529.322 1999.66 499.676 2010.4 496.006M1166 513C1166.44 515.767 1166.88 517.168 1169 519L1169 513L1166 513M1242 520L1244 524C1242 522.756 1241.44 522.308 1242 520M865 536C864.455 537.635 864.635 537.455 863 538C863.773 536.825 863.825 536.773 865 536M860 537L859 538L860 537M883 558C876.148 553.446 871.873 545.1 868 538C875.807 540.508 881.268 550.31 883 558M1174 547L1174 551L1172 551L1172 547L1174 547M1339 550L1339 554C1338.49 552.308 1338.49 551.693 1339 550M1175 555L1173 558L1173 555L1175 555M1339 557L1339 567C1337.85 563.593 1337.85 560.407 1339 557M1174 560L1174 563L1172 563L1172 560L1174 560M886 562C889.318 563.889 891.922 565.772 894 569C889.768 568.296 886.274 566.666 886 562M1173 564C1173.26 566.153 1173.26 567.847 1173 570C1172.25 567.697 1172.25 566.303 1173 564M1277 564C1278.76 565.928 1279.88 567.64 1281 570C1278.43 568.342 1277.21 567.103 1277 564M915 570C913.696 591.788 908.18 613.357 907.078 635C906.555 645.276 908.44 659.847 901 668C897.455 652.846 905.698 633.24 907.562 618C909.368 603.224 905.503 582.688 915 570M1282 572C1284.43 574.469 1285.82 576.747 1287 580C1284.51 577.599 1282.59 575.459 1282 572M1173 573C1175.17 590.888 1172.93 609.956 1173 628C1166.2 618.971 1169.37 583.728 1173 573M1299 591.333C1299.77 591.333 1299.16 591.831 1298.67 591.667L1299 591.333M794 603C795.579 611.718 807.048 629.301 805.725 636.685C804.638 642.754 792.331 644.807 789.958 638.675C787.449 632.193 791.719 609.736 794 603M1331.67 621.667C1331.72 621.722 1331.78 622.777 1331.33 622.333C1331.28 622.278 1331.22 621.222 1331.67 621.667M1198 634C1199.61 632.55 1200.06 631.949 1201 630C1199.38 631.263 1198.87 632.1 1198 634M1233 645C1230.48 648.599 1227.13 649.78 1223 651C1225.45 646.714 1228.12 645.34 1233 645M1371 647C1340.64 659.419 1381.66 673.772 1371 647M1740.21 651.544C1732.68 654.565 1727.92 675.41 1741 670.901C1751.73 667.201 1747.8 648.499 1740.21 651.544M468 655L468 657L463 657C464.736 655.917 465.994 655.456 468 655M1367 655C1366.56 657.767 1366.12 659.168 1364 661C1364.64 658.454 1365.32 657.014 1367 655M1744 661C1743.25 664.477 1742.51 666.048 1739 667C1740.12 663.945 1741.2 662.665 1744 661M896.163 699.367C886.501 703.781 887.837 722.06 900.878 715.876C909.947 711.577 905.488 695.107 896.163 699.367M899 703C900.358 704.662 901.151 706.024 902 708C899.745 706.562 898.811 705.71 899 703M898 711C896.222 711.956 895.979 711.766 895 710L898 711M250.14 752.066C243.114 754.422 240.179 778.2 250.882 775.031C259.435 772.497 263.965 747.432 250.14 752.066M251.667 758.667C251.722 758.722 251.778 759.778 251.333 759.333C251.278 759.278 251.222 758.222 251.667 758.667M560 886C552.004 877.873 540.964 866.099 535.564 856C525.968 838.054 520.795 802.208 493 802.426C461.574 802.672 459.389 873.928 483.001 882.592C486.533 883.888 508.383 888.54 509.456 882.783C509.878 880.521 484.116 878.453 480.524 875.204C472.859 868.271 471.259 842.835 472.094 833C473.661 814.55 492.154 801.143 507 814.234C523.132 828.46 521.564 844.266 532.379 860.96C538.794 870.861 550.388 876.308 554.567 888C557.272 895.568 546.793 907.037 543.658 914C531.353 941.326 514.605 969.579 495.904 992.96C492.258 997.518 471.237 1020.61 476.397 1026.78C482.022 1033.51 508.686 1031.42 517 1032.21C558.787 1036.19 601.829 1035.32 643 1038C627.387 1002.17 603.934 971.885 583.444 939C576.269 927.485 561.819 906.064 562.453 892C563.283 873.559 584.892 847.066 593.684 831C602.009 815.787 624.669 773.882 645.997 777.108C679.098 782.113 646.936 830.586 632 837.404C628.412 839.042 608.824 838.315 609.283 836.605C606.801 845.843 625.998 844.493 630 843.21C644.48 838.572 655.027 826.958 660.234 813C667.532 793.434 655.291 758.846 630.008 777.228C606.482 794.332 595.414 822.231 580.513 846C573.344 857.436 561.941 872.453 560 886M234 783C217.649 807.447 204.738 832.929 186.136 856C180.906 862.487 175.62 874.971 167.845 878.601C162.815 880.95 153.41 877.754 148 877.21C136.562 876.06 119.734 874.849 113.124 863.774C104.861 849.932 105.555 792.056 133.997 805.605C147.267 811.926 148.811 829.996 141.122 841C137.451 846.252 130.709 856.845 125 849C118.773 857.958 135.851 857.186 140.259 852.577C155.898 836.223 150.43 785.814 120 800.948C99.6049 811.091 94.4883 853.857 111.107 869.739C124.183 882.235 147.022 883 164 883C148.959 916.184 124.548 946.929 106.873 979C102.854 986.292 90.2049 1007.51 97.4227 1015.29C106.501 1025.07 122.994 1024 135 1024C145.357 1024 155.682 1027.01 166 1025.68C185.324 1023.21 209.694 1014.31 226 1021C229.663 1011.05 243.357 1014.14 247.356 1003C269.053 942.558 243.765 881 174 881C189.299 850.77 234.26 818.667 236 783L234 783M1929 842C1923.55 819.146 1941.68 810.079 1964 807.884C1992.94 805.039 2032.99 806.368 2046.12 839C2051.09 851.359 2039.17 860.197 2033.33 870.217C2028.7 878.166 2019.9 904.87 2011.38 908.196C2007.24 909.814 1993.93 900.382 1989 899.144C1966.92 893.599 1943.77 894.5 1927.14 912.019C1910.8 929.224 1919.84 957.157 1944 963.376C1959.1 967.262 1973.35 961.357 1987 956C1974.82 987.136 1956.03 1015.14 1944.87 1047C1942.14 1054.79 1933.84 1074.29 1938.81 1082.17C1942.72 1088.36 1948.47 1074.57 1949 1072C1946.53 1073.01 1945.51 1073.8 1944 1076C1942.06 1065.75 1948.19 1053.64 1951.27 1044C1960.61 1014.8 1976.06 975.904 1995.87 952.258C2002.97 943.771 2013.79 939.587 2021 931C2025.94 940.299 2029.1 950.001 2036.4 957.852C2051.59 974.183 2076.54 970.733 2090.02 953.679C2110.23 928.107 2128.41 885.285 2123.35 852C2118.97 823.151 2102.13 803.565 2073 823.424C2064.31 829.35 2058.91 836.449 2052 844C2050.98 829.677 2038.01 819.051 2026.32 812.43C1998.18 796.488 1964.03 798.456 1935 812.303C1922.36 818.329 1913.43 833.386 1929 842M1735.81 806.759C1729.55 808.646 1721.37 826.638 1731.62 823.013C1736.21 821.388 1740.37 805.386 1735.81 806.759M1899.9 811.311C1893.57 811.001 1887.14 833.198 1889.53 833.813C1898.56 836.137 1912.96 811.949 1899.9 811.311M1522 848C1516.67 837.622 1525.53 824.362 1537 823.168C1555.13 821.282 1582.37 835.65 1584.01 856C1584.82 866.169 1565.88 880.839 1559.72 888C1533.02 919.042 1520.49 945.718 1523.96 987C1525.16 1001.28 1530.16 1029.22 1550 1023.24C1559.22 1020.47 1569.52 1010.16 1574.23 1002C1576.01 998.914 1578.19 989.085 1581.6 987.837C1584.5 986.775 1593.36 991.278 1597 991.677C1609.46 993.045 1625.06 987.674 1633.34 977.951C1654.02 953.667 1663.76 920.071 1668.4 889C1670.11 877.548 1667.06 856.944 1672.26 847.085C1678.16 835.893 1696.94 827.734 1708 823L1708 829C1711.55 824.458 1713.53 818.723 1714 813C1697.15 818.652 1683.84 832.891 1669 842C1668.08 836.679 1666.3 831.658 1663.5 827.019C1638.95 786.422 1612.37 845.095 1590.74 851.357C1586.32 852.636 1577.39 835.244 1574.83 832.008C1566.42 821.365 1551.17 817.812 1538 818.121C1522.07 818.495 1505.97 850.983 1522 848M1165 1006C1164.7 1014.81 1176.34 1024.32 1183 1029.02C1205.51 1044.91 1236.25 1045.09 1262 1039.44C1269.38 1037.82 1282.09 1029.47 1288.96 1030.42C1295.16 1031.28 1301.42 1040.99 1307 1044.16C1315.62 1049.06 1330.44 1048.06 1340 1046.8C1348.81 1045.65 1359.65 1037.65 1365.8 1031.54C1368.55 1028.81 1370.8 1021.91 1375.1 1021.54C1380.74 1021.06 1388.98 1027.64 1394 1029.93C1406.93 1035.83 1422.83 1043.35 1437 1045C1429.86 1027.26 1385.28 1033.82 1378.74 1015.58C1377.1 1011 1391.1 983.775 1392.92 977C1400.43 948.966 1409.06 916.255 1401.94 887C1394.45 856.228 1367.55 846.002 1341 861C1339.82 810.955 1271.96 796.176 1253.41 844C1243.35 869.933 1247.11 929.572 1257.91 955C1264.9 971.448 1270.14 988.522 1277.03 1005C1279.19 1010.18 1286.02 1018.86 1285.37 1024.56C1284.74 1030.01 1270.29 1032.89 1266 1033.88C1244.49 1038.84 1222.06 1040.3 1201 1032.68C1184.72 1026.79 1178.76 1014.9 1165 1006M1899 814C1898.99 816.352 1898.89 816.614 1897 818C1897.51 816.047 1897.73 815.543 1899 814M1309 818.916C1322.97 820.031 1333.36 843.137 1336.31 855C1341.35 875.264 1327.61 890.035 1325.34 909C1322.53 932.496 1333.81 960.844 1326 983C1321.93 994.536 1309.18 1023.59 1293.26 1022.44C1288.9 1022.13 1285.98 1014.31 1284.35 1011C1277.84 997.737 1274.56 982.771 1269.34 969C1252.69 925.045 1232.1 812.781 1309 818.916M1597 904C1594.83 895.602 1588.91 867.964 1590.6 860C1593.31 847.209 1627.15 820.497 1640 818.526C1651.77 816.721 1668.49 834.951 1662.6 846.696C1659.32 853.251 1645.87 859.302 1639.98 863.938C1625.45 875.378 1608.86 889.8 1597 904M2090 820.419C2114.02 816.062 2119.36 839.038 2118.95 858C2118.32 887.216 2109.57 911.256 2095.03 936.438C2089 946.889 2081 960.44 2068 962.636C2048.59 965.914 2027.16 950.152 2025.4 929.136C2024.68 920.648 2043.35 903.021 2047.56 895C2062 867.555 2046.14 828.375 2090 820.419M819 957C805.338 945.432 814.386 925.979 822.007 912.999C839.24 883.648 847.786 866.773 885 869C863.1 906.586 843.453 941.5 858.729 987C869.533 1019.18 911.116 1053.24 942.874 1024.66C974.538 996.156 956.926 926.832 934.562 899.438C925.711 888.597 917.198 882.412 905 875.779C902.255 874.287 894.909 871.996 896.275 867.804C905.307 840.095 950.641 833.154 974 833.96C984.011 834.305 1006.69 840.12 1005 853C1016.38 845.302 1003.87 841.72 998 836.917C985.998 827.097 967.812 828.683 953 829.019C934.643 829.436 914.864 842.49 901.048 853.677C897.084 856.886 894.592 863.402 889.843 865.356C873.558 872.057 856.957 860.432 840.001 874.417C825.902 886.046 811.279 916.005 808.043 934C806.391 943.189 804.819 959.387 819 957M615 834C617.177 833.259 617.723 832.897 619 831C616.974 831.818 616.273 832.253 615 834M1509.98 849.512C1505.4 851.216 1495.37 855.723 1492.97 860.081C1490.69 864.203 1496.11 873.148 1501.13 871.817C1509.35 869.636 1511.58 848.916 1509.98 849.512M1524 849C1525.66 850.358 1527.02 851.151 1529 852C1528.35 848.946 1526.99 849.064 1524 849M1665 852C1668.54 890.026 1657.63 935.535 1636.13 966.993C1626.97 980.404 1602.82 996.501 1586.29 984.29C1580.1 979.716 1591.09 953.295 1592.74 946C1595.26 934.823 1593.91 921.579 1598.56 911C1607.87 889.829 1643.66 860.063 1665 852M2050 856C2048.81 875.86 2045.87 893.521 2033.18 909.438C2031.19 911.928 2025.26 924.319 2021.32 922.456C2013.33 918.677 2016.59 909.406 2019.7 904C2029 887.863 2037.61 871.462 2048 856L2050 856M1026.12 858.146C1021.38 858.57 1018.97 872.288 1023.36 871.677C1029.16 870.869 1035.18 857.335 1026.12 858.146M1370 1003C1372.33 1006.8 1374.93 1008.25 1374 1013C1360.1 1007.58 1335.29 987.692 1334.59 971C1333.81 952.375 1344.89 930.893 1345 911C1345.1 891.241 1334.41 847.149 1371 857.916C1412.28 870.064 1401.06 935.216 1391.27 966C1387.71 977.211 1386.05 1008.08 1370 1003M1504 859C1503.55 872.029 1492.88 865.408 1504 859M1585.09 866.315C1592.57 865.195 1592.51 903.95 1591.79 909C1590.15 920.599 1578.05 930.237 1574.93 942C1568.12 967.679 1587.3 1014.29 1545 1019.96C1531.93 1021.72 1528.62 985.357 1527.56 976C1523.65 941.188 1542.52 914.291 1563.76 889C1567.42 884.645 1579.48 867.158 1585.09 866.315M889.456 873.922C902.346 869.119 926.82 895.484 933.039 904C954.888 933.918 971.855 1012.04 925 1029.56C907.997 1035.92 892.3 1025.26 880.681 1013.98C852.706 986.832 854.373 939.004 868.891 906C873.139 896.345 878.322 878.071 889.456 873.922M1340 884C1340 901.538 1345.45 949.38 1331 962C1332.67 943.327 1321.55 896.09 1340 884M170.156 885.862C178.165 882.738 193.111 886.429 201 888.75C238.686 899.839 259.247 936.254 248.018 975C244.368 987.593 243.231 1002.86 228.999 1008.96C200.045 1021.37 167.801 1016.13 138 1018.48C128.762 1019.21 108.378 1021.3 101.999 1012.48C97.4344 1006.16 107.847 986.559 111.098 980.562C123.82 957.091 138.379 935.147 151.631 912.04C155.7 904.945 162.266 888.939 170.156 885.862M557.769 898.643C561.395 898.643 571.097 925.082 573.318 929C587.925 954.772 605.499 977.867 619.79 1003.92C623.922 1011.45 637.498 1029.07 621.999 1030.77C588.594 1034.43 550.61 1030.52 517 1028.14C510.005 1027.64 487.179 1029.91 483.565 1022.36C480.439 1015.82 493.575 1001.66 497.226 997C514.509 974.964 529.262 951.016 541.881 926C543.981 921.837 553.108 898.643 557.769 898.643M1955 901.418C1966.69 899.333 2002.22 900.435 2007.48 914.244C2009.09 918.488 2003.91 925.48 2002.08 929.217C1993.68 946.334 1984.77 955.526 1965 958.686C1947.43 961.495 1916.06 950.996 1920.77 927C1923.17 914.728 1943.69 903.434 1955 901.418M2012 918C2023.56 927.69 2011.59 936.343 2001 940C2004.24 932.516 2008.34 925.278 2012 918M1591 924C1591 938.081 1589.54 967.141 1578 977C1575.06 961.88 1573.92 931.933 1591 924M815.939 978.761C810.539 980.301 808.693 996.449 813.123 995.677C818.202 994.792 821.904 977.06 815.939 978.761M1153 1004C1151.65 995.177 1157.54 993.602 1158.76 986.03C1160.5 975.137 1135.01 996.026 1153 1004M1332.4 981.643C1338.23 981.643 1347.56 999.065 1351.58 1003.2C1355.29 1007.01 1367.82 1012.81 1368.72 1017.88C1372.35 1038.2 1331.63 1042.25 1320 1041.98C1314.23 1041.85 1293.08 1035.55 1296.54 1026.6C1299.46 1019.06 1315.98 1011.19 1321.48 1004C1323.89 1000.85 1329.3 981.643 1332.4 981.643M244 1001C243.455 1002.64 243.635 1002.45 242 1003C242.545 1001.36 242.365 1001.55 244 1001M1449 1034C1436.08 1053.77 1455.91 1054.39 1449 1034M316.999 1116.63C305.673 1119.02 299.537 1134.12 315 1130.93C325.41 1128.79 330.607 1113.76 316.999 1116.63M422 1354C421.564 1335.47 402.411 1312.73 395.427 1295C390.028 1281.29 393.481 1264.27 393.96 1250C394.232 1241.9 389.907 1220.56 400 1218C394.42 1203.9 399.428 1189.12 404.453 1175C421.942 1125.85 462.511 1108.97 510 1133C505.823 1138.5 507.978 1143.05 512 1148C514.763 1134.79 545.387 1153.84 555 1157.99C565.722 1162.63 577.828 1164.75 588 1170.63C606.475 1181.31 622.036 1198.59 640.32 1208.74C645.02 1211.35 651.015 1209.31 656 1211.54C664.548 1215.36 669.616 1225.43 679 1227C673.116 1210.45 657.621 1211.13 645 1205.3C633.174 1199.83 621.834 1188.39 611 1180.88C602.617 1175.07 594.272 1165.32 585 1161.38C571.481 1155.64 555.55 1154.58 542 1148.11C505.571 1130.71 475.72 1102.11 433 1124.71C414.53 1134.49 407.844 1152.02 400.919 1170C385.175 1210.88 379.949 1271.42 397.461 1312C403.006 1324.85 409.948 1345.79 422 1354M317 1127C306.793 1128.87 312.098 1118.91 317 1127M320 1124.33L320.333 1124.67C319.84 1124.83 319.227 1124.33 320 1124.33M2042.87 1132.47C2038.23 1135.58 2039.35 1152.54 2047.5 1147.67C2052.94 1144.42 2048.21 1128.88 2042.87 1132.47M417 1237C413.058 1231.24 410.389 1223.84 409 1217C401.565 1220.54 410.436 1238.92 412.299 1246C418.22 1268.52 427.928 1286.49 436.695 1308C438.365 1312.1 441.858 1328.32 447.574 1328.24C450.753 1328.19 435.681 1294.7 433.776 1291C428.75 1281.23 423.174 1271.86 421 1261L427 1265C418.148 1237.02 410.599 1201.73 424.097 1174C429.822 1162.24 437.157 1150.39 449.922 1145.43C454.821 1143.52 464.141 1137.49 465 1146C484.449 1135.86 480.521 1172.91 477.917 1182C470.192 1208.97 450.292 1232.26 441.139 1259C436.517 1272.5 435.18 1287.62 451 1293.21C488.002 1306.3 524.03 1243.64 535.489 1217C542.505 1200.69 544.982 1174.25 569.997 1186.15C582.004 1191.86 579.528 1203.15 579.033 1214C577.631 1244.69 545.615 1263.12 531.381 1287C526.004 1296.02 517.569 1313.43 528.129 1321.72C537.879 1329.36 548.608 1322.73 557 1316.57C576.116 1302.53 595.301 1282 608.099 1262C613.99 1252.79 620.834 1233.15 634.96 1242.37C676.736 1269.63 606.86 1316.42 592.508 1336C587.203 1343.24 575.979 1357.37 582.045 1366.78C605.997 1403.92 646.979 1351.53 661.564 1335C666.754 1329.12 677.744 1315.95 686.957 1321.15C712.669 1335.64 682.388 1382.99 666 1392.62C660.905 1395.62 640.553 1400.31 643.072 1408.06C649.976 1429.29 683.447 1418.01 695.992 1409.88C713.206 1398.73 717 1371.51 717 1353C709.556 1370.77 709.578 1397.32 689.992 1408.03C684.608 1410.98 649.52 1421.42 649.52 1408.28C649.52 1403.24 669.006 1396.3 672.997 1393.2C688.512 1381.15 717.797 1330.89 689.99 1316.74C664.822 1303.94 641.536 1358.36 623.992 1368.34C615.013 1373.45 593.169 1375.83 587.179 1364.94C581.757 1355.08 593.477 1341.34 598.742 1334C613.395 1313.58 685.348 1267.27 637.903 1237.58C631.592 1233.63 621.762 1234.05 616.322 1239.35C608.944 1246.53 604.893 1258.58 598.807 1267C588.468 1281.31 575.822 1293.07 563 1305.07C555.87 1311.74 540.537 1327 530.368 1317.44C521.932 1309.51 533.8 1290.55 539.368 1284C557.724 1262.41 576.714 1245.45 583.259 1217C586.067 1204.8 586.89 1189.06 573.919 1182.11C565.55 1177.62 550.526 1176.67 543.797 1184.31C536.605 1192.47 536.01 1204.42 531.662 1214C521.65 1236.06 508.683 1259.01 489.992 1274.84C479.207 1283.98 463.272 1295.76 449.011 1287.36C435.056 1279.15 445.736 1259.06 450.516 1248C461.034 1223.67 482.179 1198.73 485.093 1172C486.553 1158.61 485.106 1144.08 470.981 1137.46C437.211 1121.65 410.664 1183.67 410.364 1208C410.249 1217.33 415.318 1227.71 417 1237M1933.67 1142.54C1929.4 1144.55 1927.02 1158.72 1933.9 1155.8C1939.66 1153.35 1939.36 1139.86 1933.67 1142.54M784 1222C797.424 1198.42 807.066 1170.5 826 1150C822.664 1174.88 814.024 1198.91 807.228 1223C804.631 1232.21 798.02 1245.76 802 1255C832.089 1229.97 854.816 1196.86 885 1172C881.529 1197.42 873.823 1225.34 866.519 1250C865.534 1253.33 857.67 1273.35 863.15 1274.72C869.328 1276.26 880.835 1253.21 883.975 1249C901.65 1225.28 925.689 1196.35 952 1182C946.208 1194.33 944.174 1208.22 939.519 1221C936.307 1229.82 934.217 1239.05 931.355 1248C929.983 1252.29 919.127 1284.93 923.325 1285.68C928.149 1286.53 933.029 1268.24 934.688 1264.68C944.485 1243.68 960.231 1221.59 975.593 1204.32C979.029 1200.46 996.502 1181.29 1002.27 1187.2C1006.75 1191.81 996.212 1211.84 994.223 1217C984.623 1241.91 971.581 1265.31 964.184 1291C962.693 1296.18 957.271 1313.56 961.196 1318.03C963.093 1320.19 976.155 1290.69 978.538 1287C996.917 1258.58 1022.21 1213.33 1052 1196C1047.6 1210.11 1048.1 1226.43 1044.61 1241C1037.31 1271.58 1026.18 1301.37 1015.83 1331C1011.76 1342.65 1020.53 1366.43 1004.91 1372.44C993.373 1376.89 973.526 1367.68 962 1365.87C917.215 1358.81 876.822 1345.55 834 1331.95C820.153 1327.55 807.088 1324.01 793 1320.45C790.581 1319.84 781.184 1315.04 779.544 1317.64C777.122 1321.49 787.916 1324.43 790 1325.04C804.222 1329.2 817.873 1331.55 832 1336.39C861.603 1346.53 890.344 1357.18 921 1364.51C936.335 1368.18 952.993 1367.42 968 1372.17C980.017 1375.98 993.238 1372.8 1002.99 1382.05C1005.14 1384.09 1009.77 1390.7 1013.29 1388.03C1019.35 1383.44 1017.65 1370.59 1018.96 1364C1021.7 1350.2 1031.23 1339.25 1033.22 1325C1034.08 1318.86 1028.23 1314.33 1028.77 1308.64C1031.53 1279.46 1049.02 1248.52 1054.5 1219C1055.27 1214.83 1061.72 1193.03 1060.4 1190.77C1055.95 1183.17 1035.9 1203.21 1033.1 1206.14C1028.62 1210.81 1024.73 1216.06 1020.56 1221C1013.57 1229.29 1007.12 1238.14 1000.86 1247C990.745 1261.33 979.312 1274.47 971 1290C970.847 1277.38 979.581 1264.26 984.55 1253C993.98 1231.64 1002.71 1210.53 1009 1188L1013 1190C1011.94 1186.56 1014.62 1175.39 1013.6 1174.25C1009.81 1170 991.217 1182.71 988.078 1185.41C966.305 1204.15 955.653 1234.02 935 1252C944.993 1231.57 948.748 1207.72 954.911 1186C956.354 1180.92 969.964 1169.47 963.713 1167.24C956.146 1164.54 942.864 1182.5 937.438 1186.97C908.998 1210.39 891.52 1241.18 866 1266C873.152 1243.04 879.736 1219.53 884.894 1196C886.879 1186.95 886.826 1170.78 893 1164C892.96 1164.59 892.307 1170.48 894.499 1169.24C898.124 1167.2 893.109 1157.82 889.398 1159.54C882.226 1162.86 874.658 1175.34 869 1181C848.655 1201.36 830.065 1226.77 807 1244C811.876 1217.89 823.709 1194.01 830.52 1168.86C831.712 1164.46 834.415 1144.41 828.76 1144C822.718 1143.57 817.029 1155.79 814.296 1160C807.086 1171.1 772.137 1211.37 784 1222M68 1185C88.7685 1182.24 109.885 1169.16 130 1162.58C150.355 1155.91 182.053 1161.83 200.997 1171.19C210.052 1175.66 222.2 1187.1 215.216 1198C193.394 1232.05 139.869 1231.36 110 1254.51C97.9178 1263.87 82.7398 1283.02 91.5415 1299C98.8151 1312.21 113.49 1312.91 127 1312.99C158.956 1313.17 189.817 1306.59 222 1308.03C235.225 1308.63 264.145 1314.75 262.586 1333C261.697 1343.41 251.847 1352.15 245 1359C226.595 1377.42 202.417 1387.49 177 1392.42C167.116 1394.33 156.672 1392.44 147 1396.2C134.705 1400.97 105.301 1415.56 110.61 1432.85C117.539 1455.4 150.39 1444.17 166 1443.99C205.061 1443.55 242.528 1422.54 278.217 1409.29C299.204 1401.49 318.383 1398.12 331.297 1378.43C343.592 1359.68 337.763 1315.69 333.556 1295C323.902 1247.52 312.46 1190.98 317 1143C302.22 1146.93 315.642 1193.04 316.04 1204C317.687 1249.45 332.149 1293.63 332.001 1339C331.942 1356.77 329.829 1382.75 311.874 1392.34C299.701 1398.84 284.763 1401.49 272 1406.91C238.141 1421.3 203.328 1437.03 166 1438.92C157.566 1439.35 105.612 1448.28 115.534 1425C124.92 1402.98 153.865 1399.72 174 1396.8C198.883 1393.19 229.9 1383.57 246.758 1363.86C255.392 1353.76 271.5 1341.24 266.036 1326C261.193 1312.49 243.976 1306.58 231 1304.83C198.975 1300.52 167.735 1305.38 136 1308.68C120.213 1310.32 92.5223 1309.26 93.2437 1287C93.6003 1276 104.229 1265.65 112.019 1259.02C134.927 1239.54 170.027 1236.88 195 1220.14C204.799 1213.57 225.145 1203.54 222.548 1189C219.73 1173.22 201.824 1164.71 188 1161.33C155.799 1153.43 134.903 1155.63 104 1166.71C95.276 1169.84 70.3623 1175.53 68 1185M1309 1165C1314.72 1159.45 1314.89 1151.07 1324 1149C1322.11 1151.65 1319.99 1154.2 1318.45 1157.08C1306.2 1179.99 1344.91 1167.56 1327.85 1147.5C1319.5 1137.68 1308.31 1157.85 1309 1165M1605 1277C1599.53 1270.57 1603.11 1254.38 1602.96 1246.04C1602.49 1219.45 1605.94 1171.65 1577 1156.72C1561.69 1148.83 1543.47 1167.78 1539.41 1181.04C1526.65 1222.71 1522.88 1265.55 1515 1308C1512.72 1320.29 1510.73 1333.55 1510.11 1346C1510 1348.17 1508.16 1356.88 1510.71 1357.89C1514.8 1359.52 1515.7 1349.06 1515.86 1347C1516.92 1334.02 1518.24 1320.87 1520.24 1308C1525.95 1271.32 1527.26 1230.34 1539.54 1195C1544.71 1180.13 1549.75 1164.68 1567 1159.97C1580.46 1156.3 1589.94 1179.33 1593.06 1189C1603.84 1222.38 1598.6 1265.65 1596.14 1300C1595.78 1305.01 1591.44 1338.22 1595.68 1339.89C1599.26 1341.31 1600.37 1331.89 1600.64 1330C1602.36 1317.72 1604.55 1305.34 1605.79 1293C1609.75 1253.54 1617.56 1198.62 1652 1175.62C1657.09 1172.21 1669.01 1158.21 1674.7 1158.57C1684.59 1159.18 1687.04 1189.05 1688.61 1196C1697.71 1236.03 1688.46 1278.23 1698 1317L1694 1316C1694.48 1317.68 1698.43 1327.42 1701.22 1323.11C1705.7 1316.17 1701.11 1289.83 1700.82 1281C1699.56 1243.07 1704.41 1191.93 1682.46 1158.01C1672.51 1142.63 1656.78 1167.23 1647 1172.91C1616.44 1190.63 1605.64 1243.65 1605 1277M1255.15 1157.99C1247.6 1160.97 1244.12 1183.15 1256.6 1177.17C1263.72 1173.77 1268.09 1152.87 1255.15 1157.99M1167.99 1160.15C1158.74 1163.31 1155.14 1185.98 1166.79 1182.82C1175.21 1180.53 1177.43 1156.92 1167.99 1160.15M1323 1160C1322.45 1161.64 1322.64 1161.45 1321 1162C1321.77 1160.82 1321.82 1160.77 1323 1160M1257 1162L1256 1166C1255.84 1164.17 1256.06 1163.6 1257 1162M1936.59 1172.54C1933.86 1174.34 1934.23 1183.07 1934.08 1186C1933.43 1198.73 1930.93 1211.21 1931 1224C1931.19 1259.01 1938.2 1304.49 1958.2 1333.98C1968.03 1348.47 1998.94 1354.77 2014.68 1347.26C2054.06 1328.5 2051.59 1261 2049.36 1225C2048.55 1211.93 2048.17 1199.07 2047.99 1186C2047.97 1184.08 2047.62 1173.94 2043.44 1175.76C2040.9 1176.87 2043.75 1184.76 2043.63 1187C2042.97 1199.14 2043.93 1210.9 2044 1223C2044.25 1268.73 2050.92 1345.93 1987 1344.17C1969.31 1343.68 1961.36 1328.82 1954.39 1315.44C1939.26 1286.39 1928.55 1232.79 1938.42 1201C1939.31 1198.13 1941.8 1169.11 1936.59 1172.54M1161 1227C1163.04 1223.61 1163.82 1219.76 1165 1216C1184.49 1255.93 1161.64 1307.94 1184.07 1348.99C1191.69 1362.95 1222.17 1375.4 1231.8 1356.82C1241.27 1338.57 1240.08 1312.05 1242.32 1292C1244.04 1276.67 1249.43 1261.29 1250 1246L1252 1246C1252 1260.71 1252.12 1275.36 1253.68 1290C1255.4 1306.2 1256.53 1322.1 1266.08 1335.97C1269.82 1341.41 1281.28 1346.37 1287.18 1341.32C1317.89 1314.99 1322.13 1261.09 1325.14 1224C1325.94 1214.26 1332.94 1189.97 1324.83 1181.97C1324.51 1181.66 1320.72 1213.78 1319.76 1220C1314.69 1252.78 1313.19 1278.56 1300.6 1310C1297.5 1317.75 1289.77 1336.82 1279.99 1337.47C1270.33 1338.11 1263.31 1322.68 1261.46 1315C1255.37 1289.72 1256.06 1258.94 1256 1233C1255.99 1227.94 1258.85 1202.49 1252.01 1201.32C1250 1200.98 1248.82 1232.58 1247.7 1237C1240.66 1264.91 1236.29 1293.43 1233.14 1322C1232.02 1332.14 1232.87 1349.96 1224.57 1357.24C1209.38 1370.55 1189.26 1350.3 1184.1 1337C1172.04 1305.92 1174 1266.86 1174 1234C1174 1226.44 1174.48 1202.65 1164.97 1199.76C1157.7 1197.55 1161 1223.43 1161 1227M1005 1183L1004 1184L1005 1183M49.9224 1185.41C42.9434 1187.16 32.5195 1206.05 43.0431 1203.54C49.1393 1202.09 57.8825 1183.4 49.9224 1185.41M48 1194C46.4128 1195.76 45.0778 1196.87 43 1198C44.1773 1195.18 44.9786 1194.46 48 1194M1165 1206C1166.06 1209.03 1166.74 1211.8 1167 1215C1164.27 1212.41 1163.9 1209.54 1165 1206M661 1224C662.661 1236.81 678.541 1242.19 684.521 1253C702.17 1284.92 716 1311.93 716 1349C726.656 1317.55 706.997 1285.52 693.193 1259C686.862 1246.84 674.461 1228.81 661 1224M775.064 1227.11C766.333 1230.35 759.099 1256.5 773.979 1251.96C782.823 1249.26 785.14 1223.37 775.064 1227.11M778 1229C777.41 1231.46 776.994 1232.46 775 1234L776 1229L778 1229M777 1236C776.088 1238.61 775.317 1239.49 773 1241C773.902 1238.32 774.579 1237.45 777 1236M753 1322C758.801 1321.23 777.391 1310.52 767.733 1302.37C760.467 1296.23 753.326 1317.95 753 1322M762 1312C761.456 1313.89 760.904 1315.24 760 1317C760.041 1314.74 760.612 1313.8 762 1312M1020 1332C1021.49 1335.7 1021.11 1338.42 1018 1341C1018.13 1337.68 1018.46 1334.97 1020 1332M1028 1334C1026.76 1336.01 1026.02 1336.8 1024 1338C1025.24 1335.99 1025.98 1335.2 1028 1334M469 1342C446.913 1346.46 464.866 1368.91 469 1342M1698 1358L1698 1370C1712.85 1363.46 1699.98 1370.03 1712 1375C1712 1362.47 1710.23 1359.51 1698 1358M1525 1369C1520.6 1355.79 1506.15 1382.62 1505.13 1388C1504.38 1391.92 1508.55 1397.06 1512.36 1393.24C1518.93 1386.66 1510.7 1371.21 1525 1369M426 1388C430.292 1386.91 450.609 1372.2 439.162 1367.75C430.953 1364.57 426.029 1383.08 426 1388M1596 1377C1587.02 1370.76 1579.33 1384.07 1586.6 1388.97C1591.16 1392.04 1603.95 1377.34 1602.46 1374.56C1599.88 1369.73 1596.47 1373.67 1596 1377M1012 1372C1011.96 1376.14 1012.15 1380.01 1009 1383C1007.97 1378.38 1008.78 1375.47 1012 1372M1590 1377C1591.07 1380.19 1590.81 1382.75 1590 1386C1588.14 1382.79 1588.48 1380.33 1590 1377M1310 1391C1311.89 1392.73 1312.42 1393.09 1314 1391L1310 1391M1299 1398C1298.24 1401.25 1298.32 1403.73 1299 1407C1301.4 1403.97 1301.63 1401.78 1301 1398L1299 1398M156 1483C169.586 1487.6 189.656 1484 204 1484C237.388 1484 272.745 1483.29 306 1486.22C317.187 1487.2 328.73 1487 340 1487C341.24 1487 351.325 1487.64 349.894 1484.54C348.608 1481.75 340.422 1483 338 1483L303 1483L156 1483M718 1486L718 1483L462 1483L402 1483C399.602 1483 384.003 1481.57 384.003 1485C384.003 1488.43 399.602 1487 402 1487L462 1487C547.352 1487 632.704 1486 718 1486M749 1483L749 1486C860.717 1486 972.309 1484 1084 1484C1056.15 1474.57 1011.54 1483 982 1483L749 1483M1117 1483C1134.02 1488.77 1160 1484 1178 1484L1315 1484C1297.98 1478.23 1272 1483 1254 1483L1117 1483M1336 1483C1337.51 1483.68 1338.31 1483.83 1340 1484C1338.49 1483.32 1337.69 1483.17 1336 1483M1342 1483C1352.14 1486.44 1366.32 1484 1377 1484L1450 1484C1439.86 1480.56 1425.68 1483 1415 1483L1342 1483M1483 1483C1487.73 1484.6 1493.05 1484 1498 1484C1493.27 1482.4 1487.95 1483 1483 1483M1505 1483C1526.25 1490.2 1559.49 1484 1582 1484C1560.75 1476.8 1527.51 1483 1505 1483M1610 1483C1618.55 1485.9 1630.01 1484 1639 1484C1630.45 1481.1 1618.99 1483 1610 1483M1646 1483C1648.37 1483.82 1650.49 1483.95 1653 1484C1650.63 1483.18 1648.51 1483.05 1646 1483M1661 1483C1667.4 1485.17 1675.29 1484 1682 1484C1675.6 1481.83 1667.71 1483 1661 1483M947 1554C948.766 1566.67 959.646 1578.48 960.435 1591C961.197 1603.09 943.519 1611.97 937.105 1620.22C934.121 1624.06 932.903 1630.38 928.759 1633.13C922.712 1637.13 915.738 1627.99 910.96 1625.26C901.661 1619.97 890.264 1619.74 880 1622.18C855.505 1628.01 827.061 1659.11 826.044 1685C825.562 1697.29 832.907 1706.44 834.653 1717.95C835.369 1722.67 823.877 1731.27 826.427 1734.85C828.188 1737.33 835.077 1722.21 840.89 1727.29C882.001 1763.22 937.796 1734.72 944.553 1683C946.545 1667.75 933.694 1649.64 935.209 1635.14C935.951 1628.02 954.806 1603.2 961.86 1602.08C965.602 1601.49 967.21 1612.5 967.961 1615C971.721 1627.53 969.43 1647.13 980 1656C980.131 1637.09 964.524 1614.2 967.638 1596C970.075 1581.75 986.917 1570.45 990 1556C984.628 1559.48 979.742 1562.67 975 1567C976.659 1567.41 977.242 1567.31 979 1567L976 1575L971 1573L973 1581L969 1579C962.384 1596.07 953.898 1560.37 947 1554M1642 1578C1635.8 1591.25 1644.37 1606.32 1641.82 1619.88C1641.01 1624.23 1635.8 1627.93 1632.88 1630.97C1612.65 1651.97 1601.45 1640.85 1577 1638C1583.57 1646.35 1601.82 1643.44 1605.56 1649.66C1607.38 1652.7 1598.81 1657.88 1597.04 1659.45C1587.97 1667.46 1574.58 1676.54 1570 1688C1585.28 1680.51 1598.21 1663.32 1612 1653C1612.88 1676.61 1621.32 1685.74 1643 1678C1643 1696.54 1639.23 1714.75 1636 1733C1649.76 1726.5 1641.72 1692.59 1647.82 1680.28C1652.26 1671.32 1669.86 1676.57 1675.89 1670.12C1678.07 1667.8 1650.65 1673 1647 1674C1647 1661.43 1641.64 1632.63 1648.82 1622.18C1657.84 1609.06 1681.44 1606.48 1687 1591C1674.11 1595.72 1658.04 1609.58 1648 1619C1644.21 1606.7 1648.21 1588.79 1642 1578M607 1649C595.474 1638.76 566.484 1644 552 1644C566.001 1628.12 584.552 1613.34 601 1599.93C604.009 1597.48 614.789 1586.6 618.939 1588.56C624.405 1591.13 622.995 1613.73 623 1619C623.027 1647.04 625.108 1680.82 632 1708C636.543 1700.11 633.271 1686.7 632.318 1678C629.837 1655.34 628.688 1632.62 626.199 1610C625.709 1605.54 625.547 1580.61 623 1580.56C617.513 1580.46 607.31 1590.19 603 1593.4C584.463 1607.22 569.297 1629.91 549.864 1641.63C540.74 1647.14 525.648 1642.47 516 1640.3C513.477 1639.74 505.594 1636.13 503.544 1638.76C500.942 1642.1 524.368 1646.75 527 1646.94C550.938 1648.7 583.701 1653.17 607 1649M192 1710C182.25 1703.97 175.223 1688.71 169.562 1679C156.835 1657.16 143.665 1635.17 130 1614C128.982 1617.56 129.933 1620.52 131 1624C125.736 1624.95 140.525 1641.19 143.695 1646C154.584 1662.52 166.838 1679.15 175.511 1697C177.977 1702.08 183.81 1713.81 190.715 1713.79C198.195 1713.78 206.268 1695.32 209.887 1690C214.531 1683.17 217.015 1675.97 219 1668C229.287 1678.66 236.878 1707.68 250 1713C246.581 1696.05 224.362 1680.28 223.55 1664C222.6 1644.95 250.007 1629.6 253 1611C244.98 1613.13 240.779 1625.62 236.381 1632C224.827 1648.76 218.602 1666.58 208.801 1684C204.169 1692.23 193.869 1700.96 192 1710M1213 1679C1223.24 1678.98 1242.58 1668.37 1251.5 1671.74C1255.47 1673.24 1258.23 1679.07 1262.01 1681.46C1264.63 1683.12 1275.48 1685.64 1275.48 1689.22C1275.48 1698.23 1255.02 1700.93 1260 1712C1264.2 1705.1 1275.85 1690.85 1284.44 1690.07C1289.15 1689.65 1310.35 1697.76 1312.89 1691.33C1314.58 1687.05 1300.95 1687.89 1299 1687.68C1289.33 1686.62 1260.11 1684.13 1258.44 1671.18C1257.88 1666.86 1266.13 1664.4 1269 1662.67C1277.93 1657.27 1293.02 1650.41 1292.77 1638C1292.2 1608.66 1253.89 1618.59 1246.95 1639C1244.58 1645.94 1252.84 1662.6 1249 1666.82C1241.07 1675.52 1221.37 1669.6 1213 1679M1269 1622.43C1279.38 1620.47 1293.03 1630.55 1288.45 1642C1284.56 1651.73 1268.15 1661.44 1258.11 1663.52C1252.13 1664.75 1249.49 1651.27 1249.18 1647C1248.41 1636.51 1258.76 1624.36 1269 1622.43M925 1636C916.924 1661.24 880.763 1682.54 861 1698.37C857.54 1701.14 843.152 1717.7 838.881 1714.9C832.367 1710.63 830.15 1695.05 830.02 1688C829.544 1662.33 856.828 1631.77 881 1625.73C900.955 1620.74 908.22 1635.43 925 1636M1644 1626C1643.34 1637.07 1647.49 1664.39 1641.58 1673.33C1628.32 1693.37 1616.01 1664.78 1616.37 1653.01C1616.6 1645.49 1637.23 1628.56 1644 1626M1926 1681C1941.32 1678.68 1956.65 1679.17 1972 1677.44C1977.3 1676.84 1986.48 1674.39 1990 1679C2003.73 1671.22 2039.5 1678.24 2048 1667C2037.45 1667.98 2003.99 1674.36 1995.5 1669.52C1987.97 1665.22 1999.18 1638.09 1996.7 1630.35C1995.13 1625.46 1987.92 1626.05 1984 1626.6C1973.79 1628.04 1938.64 1621.18 1932.3 1629.9C1927.33 1636.73 1938.11 1662.44 1937.38 1671.68C1937.01 1676.37 1928.65 1677.14 1926 1681M1988.85 1629.93C1995.08 1631.22 1991.38 1665.64 1987.74 1670.06C1983.41 1675.31 1950.77 1676.1 1944.28 1674.26C1940.25 1673.11 1934.34 1634.88 1937.62 1632.26C1942.97 1627.99 1981.94 1628.5 1988.85 1629.93M2053 1632C2054.97 1642.58 2054 1652.33 2054 1663C2040.58 1655.85 2025.89 1644.56 2011 1641C2016.15 1649.26 2053.21 1660.06 2051.79 1669.17C2050.1 1680.15 2015.48 1683.69 2009 1695C2022.37 1691.33 2040.23 1682.5 2052 1675C2053.13 1689.05 2050 1703.82 2050 1718L2052 1718C2054.07 1696.68 2056.77 1675.35 2058.78 1654C2059.49 1646.47 2061.08 1635.57 2053 1632M930.571 1640.43C937.23 1641.24 941.576 1680.01 940.418 1686C934.445 1716.89 908.046 1745.05 874 1740.34C865.853 1739.22 841.079 1731.31 842.927 1720.12C843.895 1714.25 853.683 1707.44 858 1703.96C873.686 1691.32 888.636 1678.35 903.906 1665.37C909.058 1660.99 924.395 1639.67 930.571 1640.43M1316 1653C1305.5 1661.21 1292.55 1671.22 1286 1683C1294.42 1679.93 1316.65 1662.73 1316 1653M138 1714C139.713 1708.29 143.937 1703.61 146.199 1698C147.71 1694.26 149.506 1690.68 151.153 1687C170.289 1644.24 129.893 1711.72 138 1714M220 1849C240.783 1856.04 274.871 1851 297 1851C275.199 1843.61 242.969 1849 220 1849M382 1850C409.586 1859.35 453.739 1851 483 1851C561.06 1851 638.958 1850 717 1850C706.592 1846.47 691.959 1849 681 1849C654.63 1849 628.314 1849.08 602 1849.96C528.85 1852.42 455.196 1850 382 1850M750 1849C755.294 1850.79 761.457 1850 767 1850C761.706 1848.21 755.543 1849 750 1849M779 1849C780.75 1849.64 782.127 1849.86 784 1850C782.25 1849.36 780.873 1849.14 779 1849M788.667 1849.33C788.223 1849.78 789.278 1849.72 789.333 1849.67C789.778 1849.22 788.722 1849.28 788.667 1849.33M796.667 1849.33C796.222 1849.78 797.278 1849.72 797.333 1849.67C797.778 1849.22 796.722 1849.28 796.667 1849.33M298 1850L301 1851L298 1850M302.667 1850.33C302.222 1850.78 303.278 1850.72 303.333 1850.67C303.778 1850.22 302.722 1850.28 302.667 1850.33M309 1850C312.577 1851.21 316.248 1851 320 1851C316.423 1849.79 312.752 1850 309 1850M322 1850C330.552 1852.9 342.008 1851 351 1851C342.448 1848.1 330.992 1850 322 1850M935 2118L935 2115C908.005 2114.04 869.94 2120.07 844.209 2111.5C835.779 2108.69 846.687 2086.74 851.996 2084.5C856.983 2082.39 869.726 2094.72 876 2095.64C891.032 2097.84 905.898 2089.02 918 2081C919.422 2089 922.841 2099.53 929 2105C927.211 2087.55 919.279 2082.02 928 2066C924.182 2066 929.367 2048.11 930.167 2044C932.947 2029.7 943.352 1986.65 921 1980C925.886 1994.98 935.214 2011.56 932 2028C917.665 2009.23 920.888 1979.28 895 1968.21C846.147 1947.31 824.673 2017.57 831.043 2053C833.006 2063.91 844.901 2071.13 846.621 2080.18C848.289 2088.94 829.221 2106.61 838.94 2114.74C843.64 2118.68 857.067 2117.44 863 2117.86C886.196 2119.51 911.895 2119.33 935 2118M920 2008L913 2006C926.141 2019.71 928.138 2034.42 925.74 2053C925.331 2056.17 921.711 2071.41 917.259 2070.68C912.289 2069.86 908.34 2056.96 906.458 2053C898.283 2035.81 887.224 2020.23 876 2005C862.148 2023.89 858.483 2054.03 850 2076C795.991 2039.93 870.43 1922.45 911.272 1988C915.076 1994.1 918.559 2000.93 920 2008M1658 1986C1688.75 1984.92 1687.85 2004.86 1664.64 2021.26C1655.68 2027.59 1644.44 2021.83 1637.99 2035.14C1632.57 2046.3 1635 2065.14 1637.19 2077C1637.73 2079.91 1640.57 2088.75 1635.71 2089.42C1621.97 2091.32 1610.58 2072.91 1605.76 2063C1591.42 2033.49 1598.6 1987.99 1640 1989.48C1649.24 1989.81 1655.7 1995.37 1663 2000C1661.5 1989.64 1648.48 1985.43 1639 1985.05C1621.04 1984.33 1601.45 1999.24 1595.6 2016C1588.52 2036.28 1599.24 2068.76 1614.24 2082.77C1619.6 2087.79 1634.51 2091.09 1637.41 2097.28C1641.55 2106.08 1632.68 2122.26 1629 2130C1642.21 2123.86 1635.27 2104.91 1643.82 2098.08C1647.67 2095.01 1658.91 2098.7 1663.96 2097.72C1676.64 2095.25 1694.31 2080.35 1700 2069L1696 2071C1699.72 2053.51 1706.88 2039.77 1704.82 2021C1703.98 2013.38 1692.87 2000.65 1694.62 1994.08C1697.15 1984.61 1713.47 1981.33 1718 1972C1709.59 1975.8 1697.7 1989.35 1689 1990.11C1679.51 1990.93 1667.78 1973.27 1658 1986M1997 1975C1995.69 1981.79 2000.32 2004.88 1993.86 2009.2C1987.17 2013.67 1965.32 2001.48 1958 2000C1963.87 2013.15 1984.43 2006.57 1993.28 2015.03C2011.09 2032.06 1963.67 2055.41 1957 2066C1962.49 2066.76 1990.24 2069.42 1992.52 2073.5C1995.26 2078.42 1984.23 2106.62 1989.16 2107.68C1994.69 2108.87 1995.12 2075.13 1999.6 2072.4C2005 2069.11 2026.25 2078.2 2028.89 2070.56C2030.16 2066.92 2000.59 2070.6 1999.42 2061.93C1998.74 2056.88 1997.96 2042.31 2000.76 2038.24C2004.74 2032.44 2015.4 2029.43 2016.89 2022.02C2018.57 2013.71 2003.58 2015.42 2000.4 2010.52C1994.76 2001.82 2002.36 1985.49 1997 1975M1274 1984C1276.27 1994.03 1290.88 2004.01 1290.23 2014.69C1289.78 2022.26 1257.53 2034.07 1251 2038.22C1248.16 2040.02 1243.03 2045.01 1239.45 2042.92C1224.76 2034.37 1221.63 2008.41 1207 1999C1208.5 2010.9 1219.96 2023.49 1226.9 2033C1229.35 2036.36 1236.35 2043.06 1235.16 2047.64C1231.24 2062.67 1203.05 2067.91 1198 2085C1210.73 2078.23 1228.98 2061.33 1238 2050C1242.83 2056.5 1246.75 2063.34 1249.39 2071C1251.2 2076.25 1260.01 2093.29 1257.43 2098.22C1255.12 2102.63 1240.55 2103.97 1236 2105.02C1212.75 2110.42 1189.32 2104.92 1166 2107.56C1157.96 2108.47 1140.63 2107.4 1137 2116C1165.29 2112.14 1192.78 2113.62 1221 2110.68C1235.57 2109.16 1250.7 2102.47 1264 2108C1263.72 2093.72 1256.93 2078.2 1251.79 2065C1250.22 2060.96 1243.8 2052.43 1244.86 2048.31C1246.61 2041.49 1287.23 2019 1293.55 2021.6C1300.08 2024.29 1313.01 2052.08 1314 2059L1316 2059C1315.73 2046.23 1296.71 2031.64 1299.96 2020.18C1304.52 2004.13 1341.28 2003.09 1350 1989C1336.49 1991.46 1308.84 2017.25 1296.18 2012.43C1286.8 2008.85 1283.63 1990.09 1274 1984M578 2060C571.218 2061.66 549.641 2069.11 543.782 2064.09C539.642 2060.55 542.464 2049.94 542.135 2045C540.908 2026.58 539.429 2009.99 535 1992L581 1992C574.143 1983.7 546.094 1988.37 536 1988.47C522.143 1988.6 508.783 1989.74 495 1991.45C491.651 1991.86 482.675 1991.62 481.301 1995.5C478.153 2004.38 487.465 2021.64 486.856 2032C486.425 2039.34 481.044 2062.77 486.623 2067.87C500.285 2080.38 540.989 2071.11 557 2068.26C564.415 2066.94 573.67 2066.96 578 2060M149 1989C155.142 2010.49 173.409 2032.99 183.796 2053.14C200.766 2086.05 212.475 2121.62 226 2156C230.587 2138.22 211.216 2110.82 206 2094C224.329 2094 243.874 2096.76 262 2095C251.053 2088.56 233.3 2090 221 2090C216.683 2090 207.368 2091.79 204.162 2088.28C181.208 2063.19 180.718 2007.16 149 1989M485 1996C496.533 1995.78 519.267 1987.7 529.577 1992.82C540.419 1998.22 537.471 2039.42 537.793 2050C537.902 2053.56 539.926 2064.21 537.138 2066.62C532.674 2070.48 492.613 2069.24 489.862 2064.22C486.652 2058.36 490.586 2043.63 490.922 2037C491.652 2022.57 488.341 2009.87 485 1996M580 1996C576.451 2015.31 584 2041.69 584 2062C589.914 2059.92 588 2051.18 588 2046C588 2034.35 590.873 2002.99 580 1996M1690 1996C1703.34 2020.76 1707.12 2052.74 1688.29 2076.99C1680.3 2087.29 1658.97 2102.41 1645.5 2092.64C1641.15 2089.48 1641.36 2076.08 1640.8 2071C1638.66 2051.56 1635.98 2027.01 1662 2027C1659.72 2034.85 1654.38 2043.55 1656.05 2052C1658.73 2065.61 1671.96 2058.2 1676.29 2049.92C1683.22 2036.64 1672.06 2034.27 1670.24 2023.7C1668.97 2016.36 1684.82 2000.51 1690 1996M188 2044C195.673 2041.33 201.286 2034.47 209 2031.67C219.63 2027.8 232.195 2031.08 243 2031.86C248.943 2032.29 258.838 2029.86 262.979 2035.28C272.109 2047.25 266 2071.07 266 2085C273.652 2079.12 273.695 2036.11 264.796 2030.95C253.108 2024.16 232.234 2028.84 219 2026C229.486 2017.23 248.87 2013.83 256 2002C238.417 2005.51 217.63 2021.52 203 2031.57C197.863 2035.1 190.614 2038.09 188 2044M1203 2006C1189.4 2030.11 1173.03 2053.46 1156.93 2076C1148.96 2087.16 1137.24 2097.67 1133 2111C1155.9 2095.88 1176.08 2056.23 1190.39 2032.99C1194.75 2025.92 1205.48 2014.77 1203 2006M1689 2007C1690.53 2012.02 1692.03 2016.83 1693 2022C1695.23 2017.3 1692.73 2010.41 1689 2007M877 2010C887.598 2025.55 896.409 2041.49 905.335 2058C907.937 2062.81 915.297 2071.01 914.3 2076.74C912.002 2089.95 890.575 2081.9 883 2083.88C878.589 2085.02 873.658 2089.71 869 2088.69C864.951 2087.81 859.355 2083.64 856.303 2080.88C851.332 2076.39 855.474 2068.95 857.742 2064C864.661 2048.88 865.455 2021.26 877 2010M1997 2033C1998.08 2028.94 1996.88 2020.99 1999.51 2017.86C2001.58 2015.39 2012.03 2017.37 2012.7 2020.66C2013.88 2026.52 2001.33 2032.2 1997 2033M1667.54 2029.11C1679.34 2025.94 1675.93 2052.96 1664.91 2056.07C1655.48 2058.73 1660.96 2030.87 1667.54 2029.11M1963 2065C1966.19 2059.57 1986.3 2039.38 1993.4 2042.54C1997.95 2044.57 1997.28 2063.81 1993.19 2066.14C1986.96 2069.67 1970.15 2065.43 1963 2065M178 2049C152.953 2067.63 123.34 2081.82 102 2105C110.221 2105.9 114.355 2098.2 120.225 2093.68C134.032 2083.05 148.964 2074.23 162.864 2063.79C167.501 2060.31 178.29 2055.58 178 2049M931 2058L930 2063C931.468 2061.31 932.186 2060.09 933 2058L931 2058M1700 2067L1701 2068L1700 2067M892 2090C885.793 2091.95 880.478 2093.64 874 2092C879.166 2088.79 887.131 2084.51 892 2090z"/>
</svg>
