<?xml version="1.0" standalone="yes"?>
<svg xmlns="http://www.w3.org/2000/svg" width="2200" height="2200">
<path style="fill:#121212; stroke:none;" d="M306.667 16.3333C306.222 16.7776 307.278 16.7224 307.333 16.6667C307.778 16.2214 306.722 16.2778 306.667 16.3333M383 16C389.668 18.2593 398.007 17 405 17C398.332 14.7407 389.993 16 383 16M1289 36L1289 39L1292 39L1292 36L1289 36M220 80C218.947 89.4697 222.787 99.4136 222.981 109C223.303 124.845 219.906 139.413 218.93 155C218.697 158.717 218.382 179.101 213.653 179.386C201.493 180.119 207.278 166.857 202 163C197.016 176.027 204.805 182.257 217 187C223.033 161.962 227.007 137.836 227 112C226.997 102.121 227.014 87.687 220 80M159 99C163.93 119.77 169.928 141.408 167.724 163C167.304 167.107 166.335 181.813 161.439 183.057C158.015 183.927 153.515 179.085 151 177.317C145.493 173.446 132.32 168.086 137.189 159.07C138.442 156.75 145.357 154.086 145.357 151.973C145.356 148.471 138.741 150.356 137.325 151.325C118.688 164.076 157.789 193.773 165.358 187.394C178.465 176.348 171.302 132.388 167.897 118C166.339 111.42 165.914 102.009 159 99M1955 188C1959.84 191.038 1969.44 188.668 1972.86 193.501C1979.95 203.525 1967 237.283 1967 250C1978.43 236.57 1967.58 206.658 1980.04 193.822C1983.98 189.761 1995.01 192.161 2000 192.68C2014.21 194.158 2035.14 196.678 2049 194C2033.24 179.651 1997.47 199.935 1981.84 186.74C1978.27 183.725 1981.57 173.017 1982.06 169C1984.12 151.934 1982.07 135.054 1982 118C1974.88 122.689 1978.72 131.817 1978.96 139C1979.28 148.564 1982.04 180.601 1973.4 186.74C1969.16 189.752 1959.99 188 1955 188M1594 119C1594.03 136.866 1599.6 154.33 1601.67 172C1603.42 186.866 1602.92 206.703 1610 220C1613.49 209.519 1603.27 193.188 1608.82 183.582C1610.78 180.192 1618.94 182.853 1622.22 182.852C1634.44 182.848 1649.41 184.023 1661 180C1648.32 175.704 1617.64 186.119 1608.04 177.058C1595.78 165.486 1605.49 133.088 1594 119M2003 122C2001.02 127.118 2002.91 131.153 2005 136C2006.66 131.098 2006.27 126.067 2003 122M845 154L845 157C850.376 157.003 876.106 155.564 877.846 161.494C879.399 166.789 868.195 196.51 869.091 196.714C878.867 198.946 878.096 162.916 886.07 161.287C901.007 158.235 917.263 163.85 923.745 177C925.686 180.939 931.974 202.781 937.53 201.677C940.973 200.992 921.499 169.872 926.001 166.474C928.485 164.598 936.997 167.338 940 167.687C952.786 169.175 966.134 170.881 979 171C970.445 158.995 938.414 164.522 925.027 160.852C910.928 156.987 913.411 126.971 897.904 124.283C885.933 122.207 884.362 148.952 878.895 154.098C874.857 157.899 851.303 154 845 154M897 127C904.955 137.255 912.66 148.222 916 161C908.831 160.049 891.301 161.232 885.84 156.616C878.785 150.653 892.626 131.152 897 127M1663 146C1683.97 162.508 1699.01 177.832 1670 195C1669.54 190.877 1669.28 186.776 1666 184C1666.19 189.391 1668.24 195.882 1664.96 200.705C1655.37 214.793 1637.29 224.646 1624.92 236.236C1617.84 242.876 1610.76 253.382 1602 257.74C1597.15 260.154 1584.72 259.133 1580.33 255.876C1575.85 252.562 1578.97 243.78 1579 239C1579.09 222.871 1575.75 202.765 1579.37 187.07C1581.48 177.919 1594.75 184.915 1600 179C1591.79 176.922 1571.05 173.439 1567 183C1582.09 179.799 1576 201.008 1576 211C1576 235.984 1563.7 261.951 1597 262C1589.3 272.271 1578.38 279.279 1571 290C1570.33 290.969 1562.64 301.357 1565.41 301.357C1569.19 301.357 1573.39 292.601 1575.33 290C1582.21 280.761 1592.65 269.964 1603 264.602C1612.83 259.509 1634.72 261.442 1646 261.039C1649.62 260.909 1657.89 262.897 1660.58 260.127C1665.65 254.905 1664.52 242.706 1665.33 236C1667.55 217.516 1667.23 205.405 1680.96 191.922C1683.72 189.207 1686.95 183.638 1690.9 182.643C1697.54 180.973 1720.72 209.305 1725 215C1728.07 200.586 1700.21 192.317 1696.65 179.569C1695.19 174.347 1705.71 165.883 1708 161C1704.11 163.409 1697.74 172.331 1693.22 172.257C1682.35 172.081 1680.73 142.385 1663 146M1228 169C1238.79 165.219 1237.2 152.121 1253 152.724C1268.14 153.302 1277.4 164.807 1281.51 178C1282.49 181.161 1286.04 188.771 1283.09 191.682C1269.97 204.614 1231.8 195.864 1219.09 209.93C1215.25 214.172 1233.58 209.893 1235 209.522C1251.34 205.267 1268.17 200.781 1284 195C1283.19 212.297 1263.82 211.977 1253.26 221.5C1241.24 232.34 1241.95 247.013 1235.18 259.499C1232.58 264.294 1224.34 260.484 1221.54 264.765C1219.91 267.264 1233.34 266.021 1235.19 267.822C1238.82 271.369 1250.52 309.273 1262.95 289.232C1273.34 272.473 1236.5 266.081 1240.42 252.999C1247.75 228.52 1260.95 224.779 1279.98 212.044C1286.74 207.523 1285.21 199.602 1290.28 195.261C1298.18 188.505 1316.22 190.05 1326 187.913C1330.83 186.857 1369.54 182.822 1368.68 178.105C1367.83 173.484 1353.93 178.903 1351 179.437C1333.96 182.546 1309.19 191.36 1292.21 189.782C1286.47 189.249 1284.06 170.783 1281.56 166C1270.48 144.835 1231.51 140.242 1228 169M502 156C504.196 158.977 505.892 158.404 507 155L502 156M2006 155L2007 156L2006 155M572 169L579 165C579.166 173.711 587.375 195.304 582.78 202.499C580.22 206.507 572.011 204.919 568 205.118C558.052 205.611 523.494 207.304 516.822 199.499C511.384 193.138 510.686 170.008 508 161C502.864 168.154 511.38 191.049 513 200C502.191 199.793 490.696 194.672 480 197C488.238 203.029 504.635 199.268 511.178 205.822C514.752 209.401 514.062 222.129 513.952 227C513.576 243.77 517.252 271.967 495 274C501.762 284.611 511.739 272.654 514.313 265C518.925 251.287 518.004 237.255 518 223C517.999 219.315 515.818 209.819 518.3 206.96C520.645 204.26 529.762 206.87 533 207.07C545.714 207.856 558.21 209.573 571 208.922C574.629 208.737 581.9 206.13 584.876 208.958C589.737 213.576 588.23 228.552 590 235C579.993 235.092 564.773 237.704 558.98 247.099C551.678 258.942 570.233 271.04 580 271.834C602.213 273.641 584.72 244.683 595.501 239.783C605.821 235.094 620.201 250.864 630 252C623.875 237.569 604.375 241.808 594.501 233.879C590.966 231.04 592.11 225.002 591.521 221C588.097 197.722 621.044 206.224 639 200C626.95 189.75 605.167 209.37 591.483 202.178C581.04 196.691 587.797 169.408 579.11 160.649C575.054 156.559 572.573 166.511 572 169M2007.67 182.333C2007.22 182.778 2008.28 182.722 2008.33 182.667C2008.78 182.222 2007.72 182.278 2007.67 182.333M2006 195C2003.83 210.914 1999.02 226.915 1999 243C2006.23 240.886 2013.26 198.994 2006 195M856 211C875.579 204.795 898.737 205.072 919 207.125C928.774 208.116 942.382 213.924 951 207C929.236 201.492 901.21 201.092 879 203.823C872.185 204.661 859.021 203.885 856 211M1666 207C1662.68 219.073 1665.66 247.162 1656.96 256.178C1649.94 263.454 1617.91 259 1608 259C1622.29 242.406 1645.01 214.459 1666 207M95 229C97.387 235.783 120.828 228.824 128 229.59C162.869 233.315 199.646 245.564 235 239C232.86 261.978 243.693 278.409 248.503 300C249.092 302.643 249.502 320.387 253.088 319.677C258.531 318.599 253.417 303.089 252.561 300C249.059 287.357 231.07 253.654 241.042 241.501C245.504 236.065 269.552 241.414 267.565 230.96C265.819 221.773 249.861 222.881 244.027 226.781C240.336 229.249 238.616 234.451 234.664 236.302C210.362 247.687 167.72 229.305 143 226.258C126.751 224.255 110.879 226.934 95 229M242 237C244.425 218.504 279.054 231.526 251.001 235.713C248.004 236.16 245.004 236.597 242 237M583.93 238.516C593.837 238.249 592.543 268.316 580.979 268.697C554.984 269.552 559.537 239.173 583.93 238.516M1241 266C1246.88 267.669 1267.24 279.458 1259.1 288.052C1249.16 298.544 1241.22 271.66 1241 266M928 475C930.991 521.871 931 568.889 931 616C938.508 610.582 935 592.41 935 584C935 557.967 934.546 531.977 934.019 506C933.831 496.764 935.831 481.727 928 475M1219 493C1224.39 511.624 1253.67 520.849 1256.11 540C1256.89 546.046 1246.78 553.492 1243.44 558C1233.39 571.564 1218.28 589.861 1216 607C1228.16 594.141 1236.62 574.632 1246.88 559.96C1249.47 556.257 1255.5 545.415 1260.88 546.081C1266.41 546.766 1272.8 557.834 1275.81 562C1285.65 575.622 1297.75 607.434 1315 612C1310.27 595.03 1287.38 572.12 1276.85 557C1273.98 552.882 1264.59 545.983 1264.64 540.783C1264.69 535.338 1274.47 527.045 1277.84 523C1291.37 506.794 1306.58 493.905 1321 479C1302.26 480.716 1287.23 506.128 1276.07 519C1272.86 522.692 1265.59 535.917 1260.01 535.558C1255.9 535.294 1251.49 526.818 1248.99 524C1241.13 515.144 1229.56 497.871 1219 493M543 505C545.096 511.162 565.638 507.485 572 509C567.039 515.926 549.79 545.771 541.39 546.066C535.213 546.283 529.729 538.631 523 538C525.127 543.152 537.363 546.162 536.996 551.234C536.392 559.588 506.639 592.481 499.98 584.901C482.261 564.731 488.534 502.19 522.978 500.907C528.653 500.696 530.147 508.044 535 510C525.76 482.402 499.45 510.651 491.809 525C483.507 540.59 482.883 558.857 489.722 575C491.944 580.247 499.663 588.041 499.999 593.32C500.622 603.103 477.875 612.006 487 623C487.957 618.831 489.436 615.582 491.796 612C508.24 587.039 515.107 609.919 537 612.74C559.468 615.634 579.846 601.121 588 581C592.69 586.902 599.458 594.32 607 596C603.864 588.657 594.298 585.633 591.526 578C589.449 572.282 595.42 565.429 594.517 559C592.559 545.051 576.26 520.617 578.569 508C580.39 498.05 593.427 490.828 598 482C585.761 484.73 584.237 499.433 574.659 504.61C570.04 507.107 549.798 504.367 543 505M208 497C220.652 491.159 230.695 485.912 245 491.551C272.248 502.292 267.347 534.322 248 548.912C234.203 559.316 195.091 560.848 188.723 539.999C186.007 531.107 192.047 524.236 196 517L192 518L191 517C195.09 510.282 201.057 503.696 209 502C204.143 496.633 196.468 503.221 192.821 507.486C184.472 517.248 183.34 540.964 168.003 545.239C164.395 546.245 160.52 538.235 158.655 536C147.439 522.561 149.439 521.147 159.759 508.002C165.027 501.293 172.536 496.293 177 489C163.855 491.679 155.353 517.477 144.1 517.48C140.23 517.482 134.496 509.168 131 507C132.26 512.103 139.46 518.243 138.919 523C138.31 528.345 112.722 555.724 107.457 554.357C94.1272 550.896 93.897 526.128 78 527C84.3141 535.994 77.1181 542.247 71.4221 549.981C63.0819 561.306 35.6482 587.98 40.0785 603.843C46.0764 625.317 89.7332 619.756 87 645C101.112 636.088 112.551 614.752 123.478 602.001C125.647 599.47 136.894 592.599 136.375 589.719C134.475 579.165 108.903 569.696 113.715 558.04C116.45 551.416 136.705 528.138 143.62 527.199C148.863 526.488 162.026 545.131 162.265 550C162.818 561.268 147.519 573.813 145 585C164.74 580.3 157.749 537.769 181.463 567C184.431 570.659 186.568 574.747 190 578C190.434 566.276 170.73 558.323 172.624 549.003C173.04 546.957 180.806 535.391 183.246 536.641C187.472 538.805 190.206 550.705 197 554.513C221.389 568.184 260.08 557.823 268.122 529C273.924 508.202 255.521 486.735 235 486.04C224.88 485.698 212.018 485.82 208 497M875 492C880.726 498.854 900.328 504.927 909 508C903.616 511.032 883.858 513.62 881.544 518.509C878.203 525.564 915.074 539.169 920 543C908.543 543.513 896.223 548.361 885 551C889.512 557.562 924.668 572.729 922.357 580.567C919.208 591.242 897.492 590.833 893 602C900.027 600.088 927.828 588.116 928.016 579.852C928.235 570.166 898.769 556.338 891 553C895.901 551.284 901.019 550.424 906 548.963C909.318 547.989 912.574 547.214 916 546.723C949.452 541.927 890.583 530.301 886.761 520.623C885.188 516.64 911.578 514.911 913.239 510.307C916.22 502.04 881.21 490.659 875 492M1649 613C1633.29 615.549 1619.66 618.921 1604 612.378C1575.72 600.561 1556.64 561.125 1577.72 535.019C1587.85 522.478 1629.85 496.41 1630 529C1634.47 525.744 1631.98 521.666 1631 517C1636.79 520.899 1642.1 524.946 1646.95 530.003C1681.03 565.5 1641.21 580.299 1624 609C1643.04 600.121 1667.62 576.258 1664.81 553C1659.67 510.384 1607.6 500.01 1580.56 526.296C1554.27 551.861 1564.72 590.784 1593 610.514C1606.42 619.874 1636.44 626.577 1649 613M566 540C563.065 547.082 554.903 564.605 546.91 552.21C542.24 544.968 563.482 526.619 567.541 521.001C568.998 518.985 572.777 511.104 576.135 513.969C585.553 522.004 595.792 563.296 588.326 573.619C583.479 580.319 561.556 566.636 559.675 560.677C557.706 554.438 566.911 547.3 566 540M1951 523C1946.48 554.176 1934.42 584.272 1930 615C1946.78 609.888 1961.59 611.902 1979 611.997C1984.64 612.028 1995.28 613.62 2000.15 610.197C2004.41 607.207 1995.41 590.762 1993.81 587C1983.98 563.841 1970.16 539.503 1951 523M1953 532C1968.97 537.685 1983.69 571.89 1989.67 587C1991.09 590.597 1998.99 603.549 1995.13 606.623C1987.28 612.876 1959.56 607.139 1950 606.339C1946.8 606.071 1937.86 608.662 1936.59 604.498C1934.9 599.011 1940.67 591.356 1941.78 586C1945.41 568.398 1952.35 550.001 1953 532M87 596C93.5901 589.835 99.5378 567.198 108.272 565.245C113.244 564.133 130.283 584.177 129.418 588.96C127.689 598.519 102.334 626.462 93.9195 631.222C89.5316 633.705 84.6879 628.806 81 626.809C73.1494 622.558 43.2891 611.718 43.8268 601.058C44.9206 579.375 74.3788 553.067 85 535C90.5998 538.721 105.843 553.919 105.039 560.96C103.714 572.564 89.2534 583.447 87 596M111 546C112.809 546.574 113.069 546.465 115 546C113.191 545.426 112.931 545.535 111 546M543.04 554.038C564.573 555.679 537.695 577.041 543.846 581.357C544.766 582.002 551.972 563.273 560.003 566.708C564.128 568.473 582.677 577.063 584.394 580.842C590.949 595.275 551.424 610.24 542 609.815C534.869 609.494 509.592 601.711 509.48 592.761C509.393 585.809 520.137 577.905 524.184 573C527.806 568.61 536.72 553.557 543.04 554.038M16 642L16 717C21.3881 701.096 21.3881 657.904 16 642M16 750L16 1084L18 1084C18 1007.26 17 930.68 17 854C17 823.87 25.6377 778.448 16 750M1586 777C1589.9 786.168 1600.27 792.851 1606.72 800.398C1619.25 815.067 1630.57 832.201 1640 849C1643.18 854.657 1653.83 867.462 1652.79 874.019C1651.07 884.777 1628.6 901.13 1621.04 909C1614.7 915.604 1609.38 927.092 1600.96 931.176C1595.89 933.63 1587.57 931.005 1582 931C1566.28 930.986 1550.67 931.58 1535 931.984C1529.12 932.135 1514.79 930.419 1513 937C1540.93 934.968 1569.09 935.531 1597 935C1586.31 952.728 1564.1 968.231 1561 990C1576.97 978.776 1583.94 952.859 1599.32 939.368C1604.58 934.759 1613.55 936.712 1620 937.438C1636.41 939.286 1669.76 931.941 1683.66 941.076C1699.02 951.176 1698.63 992.701 1721 995C1712.28 981.51 1702.53 969.563 1695.25 955C1693.89 952.284 1687.85 943.155 1691 940.388C1697.57 934.618 1728.97 938.108 1738 938.007C1740.45 937.98 1752.36 939.315 1752.36 935.136C1752.36 931.49 1739.21 933.968 1737 933.993C1723.34 934.144 1701.91 939.459 1689.08 934.178C1676.19 928.87 1665.27 892.547 1660.79 880.007C1658.41 873.312 1666.88 866.1 1671.14 861.68C1680.15 852.315 1703.7 832.812 1703 819C1691.51 831.569 1682 845.813 1670 858C1667.4 860.649 1661.36 869.861 1657.17 869.558C1651.39 869.141 1642.86 846.795 1639.9 842C1626.91 820.984 1609.07 787.901 1586 777M986 1048C986 1033.93 986.293 1018.85 988 1005C990.269 1008.27 990.893 1012.04 995 1013C993.092 1000.14 1001.9 997.186 1006.08 985.997C1015.04 962.029 1025 942.147 1025 916C1022.84 921.162 1025.37 931.926 1019 933C1021.9 951.366 1006.48 973.835 994 986C995.732 937.134 992.968 890.523 988 842C1000.65 852.05 1016.27 868.096 1020.9 883.999C1023.48 892.864 1016.21 907.555 1023 914C1022.7 897.591 1026.45 882.786 1016.69 868.04C1009.34 856.933 991.786 847.318 987.063 835.952C985.461 832.096 984.09 800.387 978.229 801.426C973.548 802.255 987.567 832.37 980.499 833.638C971.953 835.171 953.025 818.32 943.864 815.777C917.886 808.563 887.341 809.489 861 814.296C841.317 817.888 833.067 836.749 825.277 853C805.717 893.802 802.186 947.688 833.406 983.96C855.258 1009.35 891 1029.53 925 1027.85C938.736 1027.16 952.661 1027.37 966 1023.55C969.571 1022.53 979.749 1016.99 983.1 1018.69C988.542 1021.45 978.616 1041.82 986 1048M977 839C987.184 835.436 988.069 866.601 988.784 874C992.507 912.521 994.099 955.543 989 994C987.435 991.12 986.695 988.196 986 985C984.016 992.841 988.194 1005.83 983.74 1012.54C976.465 1023.5 944.659 1023.84 933 1024.02C877.897 1024.85 823.038 989.511 813.517 932C808.371 900.915 822.3 842.14 849.019 822.964C856.239 817.782 871.194 816.774 880 815.907C907.101 813.24 959.972 811.917 977 839M891 817L892 818L891 817M534 836C534 846.077 541.852 882.189 533.819 888.858C521.3 899.251 495.84 887.61 487.903 910C479.469 933.79 520.479 945.771 536 937L536 983L539 983C540.23 969.792 535.895 949.069 541.388 937.041C544.512 930.201 552.775 925.85 556.644 919C559.93 913.181 562.342 902.115 567.48 897.94C576.793 890.371 594.638 896.419 603.249 884.813C608.999 877.063 601.922 862.512 593.856 859.063C569.214 848.524 565.135 916.221 541.142 889.579C530.924 878.233 546.108 846.74 534 836M1225 838C1223.59 858.421 1212.53 876.662 1207.2 896C1203.86 908.086 1206.71 920.275 1203.22 932C1199.73 943.717 1192.35 954.355 1191.43 966.949C1190.52 979.568 1221.96 973.525 1219.67 983.051C1214.59 1004.24 1182.98 1016.57 1179 1039C1197.69 1026.51 1207.98 991.47 1228.3 982.238C1240.55 976.67 1253.79 1002.7 1271 990C1258.44 987.313 1248.99 991.53 1239 980C1256.92 983.337 1278.54 979.362 1294 988C1295.01 977.577 1324.25 983.81 1332 985.309C1334.25 985.745 1343.93 988.46 1344.68 984.775C1345.35 981.454 1334.06 980.979 1332 980.639C1323.85 979.29 1292.18 981.948 1287.87 976.695C1284.59 972.688 1297.42 962.65 1299.33 958C1305.08 943.977 1298.09 927.918 1292.82 915C1292.43 914.048 1287.13 902.114 1290.83 903.643C1296.38 905.935 1302.51 920.802 1305.26 926C1314.21 942.901 1323.49 967.993 1340 979C1334.57 959.247 1315.11 936.397 1304.88 918C1301.73 912.343 1294.27 903.488 1293.88 897C1293.1 884.429 1312.82 872.058 1315 859C1303.32 867.132 1298.69 883.574 1288 893C1283.16 879.38 1260.25 845.279 1248 838C1252.96 852.96 1264.76 866.997 1274.63 879C1277.6 882.611 1285.85 890.167 1284.66 895.502C1283.84 899.163 1274.48 896.313 1272 896.136C1255.83 894.988 1243.21 901.717 1228 903C1236.6 913.084 1268.71 886.977 1279.9 901.219C1282.63 904.699 1255.97 936.663 1251 935.921C1238.49 934.051 1228.37 908.127 1222 899C1243.37 892.341 1262.76 888.556 1284 896C1272.15 875.327 1236.3 892.219 1220 897C1224.4 880.086 1233.21 862.659 1234 845C1218.91 857.632 1229.17 891.919 1208 900C1216.92 882.541 1227.27 857.796 1228 838L1225 838M1232.5 838.5C1231.87 839.127 1232.87 840.127 1233.5 839.5C1234.13 838.873 1233.13 837.873 1232.5 838.5M995 856C996.044 861.591 999.602 865.576 1003 870C1003.37 864.685 998.006 860.077 995 856M587.017 861.623C596.315 860.379 604.095 873.784 599.721 881.813C595.766 889.074 579.612 891.986 572.071 892.473C562.726 893.077 577.443 862.904 587.017 861.623M1005 871C1005.9 876.134 1008.3 880.576 1011 885C1011.4 880.088 1007.88 875.823 1007 871L1005 871M2013 874C2012.9 885.278 2013.95 923.989 2006.74 932.13C2003.13 936.201 1987.44 927.052 1986.24 922.778C1983.97 914.64 1995.37 898.707 1997 890C1989.39 895.202 1988.48 918 1980.58 919.773C1974.94 921.041 1965.26 912.081 1959 911C1963.47 916.039 1975.37 919.522 1977.2 926.097C1978.8 931.868 1965.65 943.082 1970.31 947.66C1976.9 954.136 2000.19 931.629 2005.48 941.51C2007.8 945.836 2004.01 961.036 2002.96 966C1999.25 983.557 1996.01 1003.07 1996 1021C2010.17 999.591 1997.12 964.25 2010.12 944.525C2013.31 939.694 2034.58 954.391 2036.6 958.336C2041.31 967.517 2032.1 993.97 2032 1005C2045.84 998.948 2031.29 972.406 2041.82 963.917C2045.43 961.007 2051.76 967.414 2054.32 969.508C2063.86 977.309 2075.97 990.957 2088 994C2080.63 976.343 2053.87 972.015 2044.28 957.365C2040.08 950.954 2049.01 936.309 2041.5 931.278C2034.89 926.851 2016.24 937.673 2011.71 930.8C2002.4 916.693 2024.85 888.749 2013 874M872 878C873.771 895.302 877.497 913.529 875.68 931C875.098 936.589 872.056 951.581 875.862 956.034C884.493 966.131 901.139 957.632 911.676 961.501C916.442 963.252 913.132 972.487 918 976C918 943.266 955.278 972.598 970.346 961.783C974.886 958.525 971.996 947.164 972 942C972.015 923.339 972.921 895.091 965 878C963.301 883.014 964 888.751 964 894C933.316 887.132 903.341 881.167 872 878M1682 935C1664.75 938.653 1643.7 933 1626 933C1622.95 933 1609.34 934.8 1608.1 931.256C1606.93 927.868 1614.8 921.364 1616.68 918.999C1625.18 908.325 1635.44 899.376 1644.62 889.296C1646.86 886.842 1651.7 879.69 1655.56 880.316C1659.31 880.923 1661.48 890.051 1662.84 893C1669.3 906.924 1676.38 920.701 1682 935M878.822 882.824C882.99 880.225 891.616 883.42 896 884.32C901.318 885.411 911.967 884.738 916.178 888.252C923.583 894.431 916.198 921.568 916.019 930C915.9 935.597 918.909 952.983 913.487 956.333C909.798 958.613 904.139 958.016 900 957.997C868.548 957.854 884.807 937.712 879.54 916C878.321 910.971 874.079 885.782 878.822 882.824M1013 887L1013 891L1015 891L1015 887L1013 887M922.623 889.08C926.186 887.704 963.703 895.377 965.079 897.579C969.301 904.334 966.581 916.384 967.438 924C968.104 929.912 971.766 953.015 964.716 955.499C958.537 957.675 923.124 960.326 919.658 954.178C916.292 948.208 919.809 926.906 920.997 920C921.836 915.131 918.775 890.566 922.623 889.08M522 895.321C545.27 892.935 541.676 937.733 520 939.805C509.423 940.816 487.974 922.328 491.777 911.003C495.977 898.496 510.839 896.466 522 895.321M1016 895L1017 896L1016 895M562 896C561.248 901.434 549.317 933.286 541.039 928.456C537.915 926.634 538.934 899.666 541.822 897.402C545.368 894.622 557.251 896.442 562 896M1220 900C1219.6 916.816 1243.53 924.766 1247.45 939.339C1248.62 943.673 1228.54 970.883 1225.12 969.456C1204.74 960.958 1212.08 927.388 1217.66 913.438C1219.79 908.111 1214.22 904.029 1220 900M1214 902C1212.95 907.645 1211.4 913.27 1211 919C1205.02 914.458 1207.41 904.634 1214 902M1283.73 907.304C1287.83 906.841 1291.14 919.012 1292.2 922C1296.16 933.159 1305.7 966.575 1285.04 969.394C1280.06 970.074 1273.18 960.147 1270 956.993C1266.2 953.23 1256.25 946.454 1255.43 940.919C1254.75 936.28 1278.46 907.901 1283.73 907.304M237 911C238.75 911.642 240.127 911.859 242 912C240.007 910.84 239.314 910.767 237 911M244 914L245 915L244 914M161 930C170.979 937.492 185.843 929.257 195.557 935.182C205.527 941.263 198.117 980.541 196 990C179.512 973.512 168.375 954.375 155.649 935.001C152.871 930.772 143.953 917.278 138.213 917.424C134.59 917.516 134.105 930.398 134.027 933C133.745 942.411 130.686 982.581 139 986C132.593 968.539 136.144 940.369 138 922C152.916 935.513 164.139 953.867 174.499 971C178.49 977.6 187.83 991.164 195.835 992.894C201.672 994.156 202.111 983.573 202.554 980C204.29 966.007 204.457 948.88 202 935C220.229 935 239.361 933.072 257 938C254.003 925.761 226.705 931.645 217 930.783C213.621 930.483 206.5 931.002 204.141 928.178C201.772 925.344 203.667 917.294 198.766 916.323C196.733 915.92 199.958 927.84 194.851 929.499C184.325 932.918 171.705 927.932 161 930M1199 916C1196.05 927.498 1189.02 938.527 1187 950C1194.89 941.902 1199.33 926.825 1202 916L1199 916M1999 936C1990.48 938.862 1982.07 943.59 1973 944C1979.72 930.564 1985.96 924.707 1999 936M2040 954C2032.69 951.23 2014.09 943.155 2011 936C2032.54 936 2040 929.629 2040 954M1206 938C1206.64 953.918 1218.91 962.783 1225 976C1192.61 974.851 1195.35 964.349 1204 938L1206 938M1235 965C1239.22 957.099 1245.96 951.059 1250 943C1269.99 953.645 1290.47 980.272 1254.01 976.892C1245.55 976.109 1243.51 966.143 1235 965M1247 977C1241.21 977 1234.63 978.296 1231 973C1238.39 971.003 1241.93 970.456 1247 977M1284 979L1272 979C1275.97 975.392 1280.64 974.149 1284 979M1006 976C1005.94 983.694 1000.32 994.096 993 997C994.023 988.943 999.894 981.146 1006 976M989 996L989 1001L987 1001C987.456 998.994 987.917 997.736 989 996M958 1008C961.631 1007.48 962.791 1006.46 964 1003C960.59 1003.8 959.31 1004.74 958 1008M977 1009C979.546 1008.36 980.986 1007.68 983 1006C979.83 1005.85 978.875 1006.44 977 1009M965 1009C966.543 1010.27 967.048 1010.49 969 1011C967.457 1009.73 966.952 1009.51 965 1009M431.5 1040.5C430.872 1041.13 431.873 1042.13 432.5 1041.5C433.127 1040.87 432.128 1039.87 431.5 1040.5M16 1116L16 1451L18 1451L18 1208L18 1143C18 1135.07 20.3118 1122.89 16 1116M300 1157C290.009 1150.86 285.606 1138.65 275 1133C278.32 1142.38 291.058 1148.24 293.037 1157.86C294.196 1163.5 268.808 1185.54 263.341 1183.44C253.352 1179.59 247.115 1159.26 236 1153C237.364 1164.96 260.445 1173.64 259.142 1187.85C258.721 1192.43 237.773 1212.47 233.835 1210C229.894 1207.52 227.397 1199.02 225.3 1194.98C218.751 1182.35 201.182 1164.39 204 1150C192.923 1158.38 219.16 1191.84 225.006 1201.98C227.235 1205.85 232.883 1211.78 230.862 1216.56C225.875 1228.36 219.528 1219.76 211 1220.51C200.297 1221.44 184.681 1226.19 176.04 1232.55C161.105 1243.53 151.167 1261.29 152.049 1280C152.295 1285.22 158.497 1292.13 157.26 1296.68C152.942 1312.56 131.42 1316.68 131 1337L134 1337C134.701 1327.16 149.591 1302.24 160.236 1300.85C165.37 1300.18 170.963 1306.36 176 1307.49C189.666 1310.57 205.864 1304.97 216.32 1296.17C228.118 1286.25 236.525 1271.81 234.763 1256C233.67 1246.19 222.612 1230.29 232.431 1222.57C238.21 1218.02 252.833 1245.4 256.071 1250C278.731 1282.19 301.62 1310.7 321 1345C322.479 1333.93 311.761 1319.19 306.436 1310C288.02 1278.23 253.607 1253.64 239.627 1219.14C237.688 1214.35 256.688 1192.74 262.416 1194.62C271.129 1197.49 274.834 1224.23 277 1232C281.881 1216.42 265.133 1203.64 266.823 1190.15C267.515 1184.62 276.994 1179.72 281 1176.62C284.355 1174.02 292.886 1163.14 297.095 1163.44C307.174 1164.15 322.311 1198.45 329 1206C328.305 1189.59 302.004 1175.29 302.683 1160.04C303.299 1146.23 331.745 1137.28 338 1126C325.781 1131.12 304.723 1144.18 300 1157M1686 1126C1689.69 1152.46 1714.3 1184 1672 1184C1676.25 1193.25 1696.75 1186.85 1701.05 1179.96C1707.4 1169.78 1695.42 1132.33 1686 1126M1623 1129C1625.08 1139.7 1633.98 1158.59 1626.96 1168.79C1623.11 1174.39 1601.64 1172.39 1601.64 1169.56C1601.64 1177.73 1621.46 1177.32 1625.98 1175.04C1639.31 1168.33 1633.38 1136.37 1623 1129M158 1230C162.752 1214.56 145.474 1179.92 142.76 1163C142.283 1160.02 142.469 1143.64 138.155 1143.64C134.834 1143.64 137.98 1162.5 138.353 1165C141.534 1186.35 147.53 1211.11 158 1230M1300 1150C1294.17 1161.12 1302.62 1179.94 1294.98 1189.4C1291.38 1193.84 1276.51 1193.19 1271 1195.11C1255.79 1200.4 1249.21 1215.18 1247.29 1230C1246.23 1238.17 1247.23 1249.31 1252.39 1256C1254.41 1258.61 1264.81 1266.04 1264.24 1269.36C1262.04 1282.13 1248.81 1288.35 1252.76 1304C1258.57 1326.99 1269.87 1333.44 1287.67 1346.24C1290.91 1348.57 1287.67 1353.62 1291.32 1355.39C1296.64 1357.97 1309.84 1355 1316 1355C1322.98 1355 1345.34 1358.58 1348 1351C1333.91 1352.31 1320.02 1350.21 1306 1351.68C1303.45 1351.95 1292.68 1353.51 1294.22 1348.17C1295.28 1344.51 1314.12 1339.87 1318.32 1337.51C1331.65 1330 1343.64 1315.06 1347.14 1300C1349.06 1291.75 1349.5 1282.92 1342.5 1276.85C1339.89 1274.58 1326.69 1270.25 1327.32 1266.56C1328.49 1259.75 1340.16 1253.25 1343.05 1246C1350.52 1227.22 1327.97 1203.88 1312 1198C1321.8 1211.7 1340.19 1218.04 1340.76 1238C1341.26 1255.52 1313.31 1275.32 1298.25 1261.86C1290.44 1254.88 1296.33 1220.72 1297.22 1211C1297.7 1205.71 1297.47 1198.34 1304 1198C1298.76 1183.2 1302 1166 1302 1150L1300 1150M95 1151C108.346 1174.74 115.652 1199.49 122.604 1226C125.561 1237.28 129.447 1257.56 139 1265C135.432 1238.11 123.367 1200.34 111.989 1175.56C108.027 1166.93 105.905 1152.85 95 1151M1313 1163C1322.81 1170.89 1351.95 1159.07 1358.31 1170.28C1363.13 1178.76 1359.48 1193.56 1360.14 1203C1362.41 1235.51 1363.24 1270.58 1359.56 1303C1358.48 1312.55 1351.18 1346.59 1356 1353C1370.76 1310.04 1365 1257.91 1365 1213C1365 1202.4 1368.38 1172.89 1360.18 1165.04C1352.77 1157.95 1322.26 1160.66 1313 1163M941 1175C937.546 1190.43 939.463 1206.43 936.401 1222C935.954 1224.27 935.669 1236.48 932.753 1236.48C928.849 1236.48 916.724 1218.47 914 1215C910.962 1227.35 935.033 1234.82 932.149 1247.93C930.906 1253.58 903.792 1256.79 900.39 1253.14C897.871 1250.43 907.283 1233.01 908 1229C897.606 1233.51 902.518 1249.47 892.893 1254.31C885.28 1258.14 851.486 1256.11 848.106 1263.54C846.473 1267.12 856.924 1265.23 858 1264.99C870.182 1262.3 882.557 1259.21 895 1258C890.297 1273.17 882.845 1285.5 874.93 1299C872.894 1302.47 868.595 1309.26 872.647 1312.75C879.377 1318.55 913.108 1307.86 914.825 1312.62C916.912 1318.41 910.981 1329.32 909.574 1335C905.354 1352.02 904.931 1365.66 905 1383C912.521 1379.55 909.006 1355.88 910.066 1348C911.234 1339.31 915.165 1314.79 923.156 1310.15C930.873 1305.66 943.442 1307.59 952 1306.8C962.283 1305.86 965.586 1306.39 974 1312L972 1305C975.613 1304.54 977.485 1303.64 980 1301C962.19 1302.03 953.783 1271.14 946 1257C959.771 1257 998.342 1263.53 1007 1252C992.752 1252.04 954.057 1259.91 943.24 1250.64C935.521 1244.02 939.645 1237.45 939.959 1229C940.628 1210.99 942.991 1193.04 943 1175L941 1175M480 1204C485.807 1204.68 491.289 1202.87 497 1202C486.41 1243.85 550.527 1233.32 545 1203C537.196 1212.38 533.431 1225.14 519 1226.81C508.368 1228.05 491.471 1214.89 501.063 1203.5C504.751 1199.12 514.813 1201.02 520 1200.44C541.582 1198.01 562.633 1203.58 584 1204C575.893 1227.49 599.677 1229.22 615.782 1218.92C621.198 1215.45 624.611 1207.98 631.026 1206.47C642.182 1203.83 666.334 1210.25 673 1199C659.006 1198.35 643.041 1205.46 629.139 1202.18C620.48 1200.14 618.207 1186.78 606 1186.67C595.633 1186.56 591.181 1200.94 580.997 1199.78C570.734 1198.62 555.42 1199.31 546.099 1194.98C533.422 1189.08 532.718 1174.8 515 1180.39C505.212 1183.48 502.55 1192.88 494.778 1197.82C489.993 1200.86 484.02 1199.5 480 1204M541 1196C533.95 1195.08 527.082 1195.58 520 1196C521.421 1191.39 521.819 1187.77 521 1183C530.452 1183.6 536.719 1187.39 541 1196M502 1198C507.359 1177.83 530.46 1194.23 502 1198M1594 1189C1599.61 1194.18 1612.72 1193.92 1616.76 1199.9C1619.29 1203.63 1613.27 1212.45 1611.74 1216.01C1601.6 1239.47 1581.53 1227.21 1559 1227C1567.5 1238.84 1593.48 1225.74 1601.77 1237.78C1609.96 1249.67 1584.24 1276.06 1586 1289C1599.2 1277.32 1596.19 1249.66 1608.12 1239.04C1613.25 1234.47 1639.02 1243.54 1640.16 1250.13C1641.91 1260.23 1626.23 1283.62 1634 1291C1636.84 1283.66 1639.91 1252.6 1647.46 1249.96C1654.8 1247.38 1669.53 1255.92 1678 1256C1673.58 1245.58 1654.18 1252.77 1648.4 1244.2C1645.2 1239.46 1651.36 1213.65 1657.2 1212.64C1666.75 1210.99 1684.21 1222.15 1694 1224.47C1706.76 1227.49 1697.26 1240.05 1702.09 1249C1711.98 1267.33 1741.09 1270.46 1753.16 1253C1775.66 1220.48 1716.71 1187.26 1700 1218C1713.01 1211.68 1725.96 1207.4 1740 1214.91C1757.84 1224.44 1759.58 1248.46 1741 1258.54C1730.33 1264.33 1714.54 1259.16 1707.46 1249.98C1702.56 1243.63 1702.17 1232.46 1711 1230C1702.44 1218.21 1668.93 1210.97 1655 1207C1656.6 1203.29 1656.96 1200.01 1657 1196L1654 1196C1653.38 1211 1629.85 1203.48 1626 1194C1614.5 1194.58 1605.16 1190.7 1594 1189M613 1197C614.361 1187.82 620.922 1197.75 622 1202C611.659 1202 601.271 1202.4 591 1201C597.615 1192.35 604.33 1190.23 613 1197M1276 1266L1290 1264C1274.74 1256.87 1261.03 1271.61 1252.27 1248C1245.46 1229.65 1253.8 1206.44 1272 1198.65C1275.96 1196.96 1290.11 1191.72 1293.73 1195.28C1297.07 1198.55 1293.47 1211.67 1293.13 1215.99C1292.13 1228.35 1299.35 1287.38 1276 1266M1309 1196C1309.77 1197.18 1309.82 1197.23 1311 1198C1310.45 1196.36 1310.64 1196.55 1309 1196M1622.58 1201.92C1626.76 1200.14 1649.41 1206.74 1650.64 1211.47C1651.89 1216.23 1647.83 1224.31 1646.64 1229C1645.78 1232.35 1645.69 1239.66 1642.32 1241.56C1639 1243.42 1631.35 1239.69 1628 1238.61C1623.88 1237.27 1612.69 1235.97 1610.32 1232.31C1607.54 1228.04 1618.07 1203.85 1622.58 1201.92M921.5 1203.5C920.873 1204.13 921.873 1205.13 922.5 1204.5C923.127 1203.87 922.127 1202.87 921.5 1203.5M1650 1203L1651 1204L1650 1203M589.505 1205.82C598.664 1201.26 635.501 1204.07 612 1216.83C606.008 1220.08 596.884 1223.9 590.052 1221.06C583.727 1218.43 583.145 1208.99 589.505 1205.82M2010 1209C2012.16 1224.61 2016.46 1240.47 2019.52 1256C2020.22 1259.52 2023.61 1269.05 2020.32 1271.74C2009.44 1280.62 1983.57 1266.91 1975 1280C1987.55 1279.99 2038.42 1267.79 2027.08 1295.5C2025.19 1300.13 1966.5 1302.2 1999 1317C1991.83 1302.69 2017.15 1295.55 2027.5 1303.04C2031.78 1306.14 2029.84 1315.41 2030.32 1320C2031.85 1334.69 2036.81 1364.73 2020 1371.64C2013.79 1374.2 1984.64 1364.9 1984.64 1362.34C1984.64 1378.03 2021.04 1378.59 2028.86 1370.81C2039.32 1360.42 2035.61 1335.58 2034.92 1322C2034.71 1317.74 2031.46 1306.42 2034.96 1303.14C2041.55 1296.97 2069.18 1304 2078 1304C2065.52 1293.9 2047.77 1302.24 2034.28 1297.5C2030.27 1296.09 2026.69 1279.11 2030.58 1276.82C2038.67 1272.07 2053.82 1276.32 2063 1274C2054.2 1268.93 2034.16 1277.63 2027.93 1270.49C2015.08 1255.75 2027.75 1221.46 2010 1209M199 1244C198.309 1240.1 190.154 1231.68 192.967 1228.45C196.033 1224.93 219.357 1220.82 220.222 1227.42C220.884 1232.47 213.25 1238.47 210.438 1242.02C199.859 1255.39 189.142 1267.97 177 1279.99C174.3 1282.67 164.63 1294.98 160.315 1291.11C140.735 1273.55 177.639 1210.75 199 1244M223.778 1233.64C231.857 1233.64 231.53 1263.9 230.683 1269C227.251 1289.66 202.157 1306.17 182 1304.91C145.345 1302.61 196.558 1263.45 206.422 1252C209.597 1248.32 218.689 1233.64 223.778 1233.64M160.333 1233.67C160.278 1233.72 160.222 1234.78 160.667 1234.33C160.722 1234.28 160.778 1233.22 160.333 1233.67M938 1249C938.229 1253.06 935.963 1253.05 936 1249L938 1249M543 1250C538.376 1261.43 539.592 1273.99 538 1286C525.157 1283.24 486.416 1280.05 477 1291C491.808 1289.62 507.128 1289 522 1289C525.867 1289 534.056 1287.37 537.178 1290.04C540.439 1292.83 540.901 1311.34 535.716 1312.04C520.419 1314.12 489.606 1309.23 477 1301C474.551 1320.35 528.587 1307.74 536.74 1317.82C543.963 1326.75 531.911 1342.74 542 1352C542.975 1345.91 539.192 1321.9 544.74 1318.6C549.874 1315.54 562.611 1320.11 569 1319C566.728 1330.59 566.056 1342.39 564 1354C571.981 1346.48 566.289 1328.74 573.939 1321.96C579.882 1316.7 605.145 1323.24 614 1321C602.017 1308.69 608.669 1295.13 611 1277C605.425 1278.84 585.108 1286.8 580.338 1281.04C578.157 1278.41 579.755 1270.54 579 1267C574.562 1271.21 578.192 1278.17 574.178 1282.18C571.212 1285.15 564.792 1283.98 561 1284C535.924 1284.14 544.812 1270.35 545 1250L543 1250M967 1303C951.661 1302.37 937.185 1305.09 922 1306C923.519 1298.47 929.792 1258.13 937.244 1256.65C946.772 1254.76 963.468 1295.25 967 1303M873 1310C876.918 1301.09 883.353 1293.67 887.744 1285C896.797 1267.13 893.893 1257 916 1257C919.112 1257 927.262 1255.57 929.138 1258.82C931.836 1263.5 927.187 1274.19 926.011 1279C924.267 1286.14 922.539 1299.69 917.001 1304.9C909.946 1311.53 881.93 1312.25 873 1310M1310 1269C1291.34 1274.91 1299.46 1260.11 1310 1269M1325 1277L1319 1270C1364.77 1264.75 1337.26 1321.21 1318 1333.94C1313.87 1336.66 1300.91 1344.03 1295.82 1341.32C1291.36 1338.95 1295.97 1318.6 1296.21 1314.02C1297.34 1291.86 1292.7 1258.98 1325 1277M1290 1343C1262.39 1337.03 1245.33 1296.76 1264.31 1274.15C1268.9 1268.68 1289.69 1269.98 1292.4 1277.28C1295.68 1286.15 1292 1301.45 1292 1311C1292 1321.8 1290.38 1332.26 1290 1343M601.716 1283.82C607.537 1283.6 605.825 1317.17 595.97 1317.93C578.891 1319.25 563.75 1304.18 579.241 1287.96C581.599 1285.49 597.991 1283.96 601.716 1283.82M571.594 1288.14C576.349 1289.93 572.367 1311.05 569.743 1314.4C567.003 1317.9 549.248 1314.99 545.287 1313.41C540.629 1311.56 542.09 1293.41 545.259 1290.26C548.155 1287.38 567.716 1286.68 571.594 1288.14M489 1294C482.721 1295.72 486.928 1301.42 489 1294M16 1483L16 1817C19.5259 1806.59 17 1791.96 17 1781C17 1756.96 18.0867 1733.02 17.8821 1709C17.2405 1633.69 18 1558.32 18 1483L16 1483M1328 1503C1333.27 1520.2 1339.4 1537.56 1333.4 1556C1331.83 1560.84 1329.56 1570.86 1322.98 1570.8C1316.14 1570.74 1310.75 1562.9 1306 1559C1304.99 1567.13 1320.58 1580.04 1328.28 1574.18C1341.8 1563.88 1346.23 1510.07 1328 1503M1683 1585C1691.06 1578 1693.38 1566.85 1703 1561L1703 1559C1692.81 1558.46 1684.25 1576.22 1683 1585M2024 1558C2025.18 1566.42 2034.54 1576.02 2038.36 1584C2046.68 1601.37 2053.18 1620.97 2060.06 1639C2062.89 1646.43 2071.26 1659.84 2068.94 1667.92C2065.32 1680.58 2045.87 1691.95 2038.28 1703C2031.32 1713.16 2031.52 1726.22 2020 1733C2020.67 1725.41 2012.06 1719.26 2008.39 1713C1995.29 1690.61 1960.96 1669.41 1955.73 1644C1954.72 1639.05 1962.26 1630.91 1963.99 1626C1972.2 1602.7 1992.23 1583.8 1998 1560C1981.66 1573.55 1967.69 1605.3 1960.14 1625C1958.05 1630.46 1950.63 1639.22 1952.14 1645C1958.23 1668.28 1983.35 1682.57 1996.8 1701C2003.46 1710.13 2013.52 1723.41 2017.1 1734C2017.89 1736.35 2014.17 1745.86 2017.29 1746.04C2023.03 1746.36 2025.93 1733.67 2028.41 1730C2039.56 1713.53 2057.04 1704.42 2069 1690C2054.51 1689.82 2044.68 1706.68 2036 1716C2038.83 1704.26 2072.14 1660.09 2074 1687L2076 1687C2076 1680.35 2079.09 1658.74 2077 1658C2076.71 1659.42 2075.66 1665.48 2072.89 1663.68C2067.41 1660.1 2065.79 1642.99 2063.31 1637C2053.49 1613.3 2045.67 1573.59 2024 1558M552 1562C548.094 1572.89 548.41 1605.31 540.315 1612.11C534.445 1617.04 513.761 1616.54 506 1617L506 1620C513.914 1619.77 532.357 1612.85 539.222 1617.58C541.526 1619.17 540.903 1635.55 541.038 1639C541.814 1658.86 540.057 1689.48 520.863 1701.94C512.153 1707.59 501.769 1699.01 493 1698C496.809 1706.34 516.038 1711.2 523.36 1705.32C535.378 1695.67 540.412 1679.49 543 1665L545 1665C546.307 1670.86 548.615 1676.39 550.721 1682C567.37 1726.34 603.269 1655.31 567 1652.72C561.177 1652.3 553.701 1651.87 550 1657C557.733 1655.9 572.59 1651.38 577.74 1660.21C582.319 1668.05 576.456 1696.03 564.155 1693.7C547.118 1690.48 546.734 1649.4 545.864 1637C545.483 1631.58 542.773 1622.01 547.604 1617.82C551.533 1614.42 560.196 1616.99 565 1617C581.711 1617.04 598.301 1620.41 615 1621C606.111 1612.11 579.273 1613.27 567 1613.02C562.532 1612.93 551.405 1615.05 548.26 1611.18C540.272 1601.35 553.878 1573.33 554 1562L552 1562M1653 1564C1658.06 1572.04 1676.83 1580.21 1677.42 1590C1678.51 1608.23 1654.23 1635 1638 1635C1631.34 1635 1607.64 1635.93 1607.01 1625.84C1605.92 1608.44 1635.36 1591.57 1638 1573C1626.86 1582.31 1616.82 1600.77 1608.54 1612.98C1605.91 1616.88 1600.8 1622.96 1602 1628C1605.23 1641.61 1627.87 1662.96 1627.04 1675.68C1625.58 1697.93 1591.97 1714.34 1588 1736C1601.09 1727.58 1610.99 1707.69 1619.79 1695C1622.42 1691.21 1625.88 1681.38 1629.98 1679.32C1634.85 1676.88 1656.29 1701.71 1657.01 1706.92C1657.46 1710.21 1653.65 1714.56 1653 1718C1672.34 1709 1680.55 1674.3 1692.79 1658C1696.04 1653.67 1708.71 1646.72 1709.08 1641.73C1709.79 1632.29 1695.41 1618.14 1692.04 1609C1686.83 1594.85 1671.64 1563.32 1653 1564M230 1573C226.145 1578.72 223.331 1585.1 225 1592C227.113 1588.64 227.168 1584.84 228 1581C242.257 1603.12 231.334 1653.07 229 1678C215.088 1668.6 188.29 1663.36 177.061 1681.04C167.698 1695.79 182.489 1728.91 197.043 1735.69C213.862 1743.54 222.998 1712.14 226.094 1701C236.092 1665.02 248.105 1608.29 230 1573M921 1710L923 1710C925.934 1694.99 918.517 1676.99 922.682 1662.14C924.532 1655.55 937.934 1652.09 942.216 1646C951.302 1633.06 946.255 1601.07 936.673 1589.19C930.201 1581.16 920.137 1583.27 911 1582.96C881.674 1581.97 855.116 1607.11 861.427 1640C864.784 1657.5 884.499 1663.74 900 1663.94C903.769 1663.99 914.015 1660.13 916.74 1662.98C923.066 1669.58 918.226 1699.91 921 1710M896 1584C888.519 1596.33 884.833 1616.07 896.508 1628.71C903.282 1636.05 925.632 1637.27 916.138 1656.5C911.407 1666.08 879.979 1657.12 874.022 1652.46C852.205 1635.37 872.873 1589.68 896 1584M916 1623C902.952 1647.15 889.53 1606.21 893.381 1594.05C896.493 1584.22 908.32 1586.32 909 1596C917.156 1581.75 930.253 1581.37 939.177 1599C944.291 1609.11 944.65 1630.13 941.396 1641C940.051 1645.49 926.586 1659.84 921.381 1654.12C914.685 1646.75 920.728 1630.63 916 1623M1250 1589C1249.23 1599.76 1261.28 1604.21 1262.91 1614C1265.69 1630.65 1258.05 1648.51 1261.58 1666C1262.69 1671.53 1272.52 1684.29 1271.36 1688.42C1268.89 1697.19 1247.15 1708.23 1241 1717L1242 1718C1250.67 1710.14 1265.3 1693.05 1277.08 1690.51C1288.67 1688.01 1305.55 1696.11 1318 1695.99C1329.1 1695.89 1345.5 1691.6 1356 1695.38C1366.91 1699.32 1372.76 1712.62 1383 1718C1378.56 1711.03 1366.51 1704.53 1364.45 1696.64C1362.88 1690.62 1367.76 1679.42 1368.55 1673C1370.61 1656.4 1362.89 1627.69 1369.76 1613.12C1373.25 1605.71 1382.35 1607.25 1387 1602C1370.32 1602.01 1365.97 1616.65 1351.86 1620.83C1336.87 1625.27 1308.65 1614 1292 1614C1286.11 1614 1275.28 1616.82 1270.16 1614.11C1261.07 1609.31 1257.11 1596.12 1250 1589M1657 1635C1662.19 1619.85 1674.33 1607.56 1679 1592C1688.55 1598 1691.93 1617.31 1697.71 1626.99C1698.94 1629.06 1705.21 1636.28 1702.07 1638.53C1697.32 1641.96 1663.9 1636.22 1657 1635M222 1601L222 1604L224 1601L222 1601M2019.99 1602.54C1996.72 1605.19 1987.46 1653.58 2016 1650.73C2041.05 1648.23 2042.08 1600.02 2019.99 1602.54M2022 1605C2027.15 1605.56 2028.55 1610.74 2030.5 1615C2033.9 1622.42 2035.19 1635.51 2029 1642C2018.94 1652.54 2000.34 1647.8 2001 1632C2001.17 1628.03 2002.47 1623.59 2004.17 1620C2006.84 1614.33 2022 1604.57 2022 1605M1257 1615C1257.85 1617.53 1258.51 1618.03 1261 1619C1260.15 1616.47 1259.49 1615.97 1257 1615M1364 1615C1365.11 1619.25 1365.59 1623.63 1366 1628C1356.63 1625.48 1357.9 1622.21 1362 1615L1364 1615M1268 1617C1276.88 1626.53 1308.02 1646.25 1310.89 1657.94C1312 1662.42 1282.6 1685.29 1277.79 1684.58C1258.12 1681.67 1261.92 1628.9 1268 1617M1349 1625C1342.91 1636.29 1328.29 1647.51 1318 1655C1332.63 1652.87 1340.08 1627.43 1354.08 1627.33C1373.13 1627.2 1365.64 1662.45 1364.31 1674C1363.83 1678.21 1364.2 1687.94 1360.18 1690.6C1355.37 1693.78 1341.42 1677.96 1338.14 1675.12C1320.32 1659.77 1283.07 1640.71 1275 1618C1299.27 1618 1325.78 1615.83 1349 1625M1703 1643C1693.76 1653.94 1684.64 1663.1 1677.78 1676.14C1674.3 1682.74 1668.84 1697.81 1662.26 1701.59C1657.8 1704.16 1650.1 1692.7 1647.68 1690C1643.75 1685.62 1635.52 1680.11 1634.48 1674C1632.98 1665.11 1647.79 1652.15 1650 1643C1645.26 1648.5 1638.3 1666.9 1631.57 1668.91C1622.63 1671.58 1611.68 1641.31 1610 1635C1640.72 1639.67 1672.5 1637.47 1703 1643M1352 1692C1328.51 1689.81 1305.19 1692.5 1282 1687C1285.83 1681.02 1308.59 1661.13 1315.93 1661.87C1325.36 1662.81 1347.59 1684.21 1352 1692M212 1673.76C236.879 1676.02 221.135 1707.97 214.869 1721C212.37 1726.19 207.869 1734.53 201 1733.56C186.538 1731.53 172.817 1695.83 179.247 1683.41C183.948 1674.33 203.071 1672.95 212 1673.76M1975 2012C1983 2016.13 2005.91 2009.35 2010.81 2017.5C2015.07 2024.6 2000.01 2043.43 2000 2052C2010.71 2044.5 2007.58 2026.44 2017.64 2018.96C2030.72 2009.24 2066.96 2029.93 2081 2032C2072.24 2012.84 2033 2023.92 2020.82 2012.62C2016.08 2008.22 2033.37 1976.28 2040 1976C2037.37 1968.76 2042.36 1963.23 2043 1956C2039.42 1958.76 2037.46 1966.82 2033.37 1968.1C2026.83 1970.15 1989.8 1952.09 1989.16 1944.47C1988.26 1933.74 2022.86 1914.08 2032 1913C2023.51 1902.81 1985.17 1934.37 1985.53 1945C1986.11 1962.38 2020.45 1961.99 2029.38 1972.7C2033.28 1977.39 2026.38 1986.6 2024.2 1991C2021.7 1996.03 2018.05 2007.62 2013.42 2010.73C2005.35 2016.15 1985.07 2009.45 1975 2012M1359 1912C1350.91 1937.84 1351.09 1970.02 1349.14 1997C1348.34 2007.97 1350.34 2024.99 1345.2 2034.87C1339.98 2044.91 1306.22 2041.81 1296 2042.02C1291.71 2042.11 1284.29 2044.6 1281.22 2040.5C1271.59 2027.61 1277 1988.76 1277 1973L1275 1973C1274.84 1990.83 1268.1 2027.26 1277.46 2042.85C1283.3 2052.59 1320.55 2044.11 1331 2044C1335.3 2043.95 1343.61 2044.54 1346.76 2040.96C1352.11 2034.88 1350.67 2019.64 1351.72 2012C1354.97 1988.41 1355.91 1964.63 1358.82 1941C1359.84 1932.76 1363.61 1919.36 1359 1912M546 1922C542.622 1929.04 539.767 1927.43 533 1928C543.222 1934.46 534.222 1940.59 528.018 1948C516.44 1961.82 503.042 1975.32 494 1991C480.555 1971.59 490.697 1948.86 509 1936.41C511.26 1934.87 529.357 1928.72 529.357 1928.01C529.357 1922.28 507.995 1931.44 506 1932.68C491.025 1942.05 477.725 1966.35 484.842 1984C502.109 2026.82 588.97 2046.37 589 1984C583.929 1992.96 584.49 2004.07 576.754 2011.73C558.107 2030.21 520.551 2015.69 504 2001C511.452 2002.83 531.055 2004.77 534 2012C547.057 2003.41 557.979 2010.54 572 2013C564.388 2000.93 545.039 2009.49 539.477 2001.18C533.69 1992.53 540.627 1959.12 542.68 1949C543.269 1946.1 542.979 1934.84 546.501 1934.16C553.885 1932.74 558.849 1947.05 560.643 1952C568.026 1972.35 578.722 1985.64 570 2006C574.022 2003.2 575.618 1997.75 581 1999C580.488 1986.72 588.515 1976.69 585.134 1964C580.154 1945.31 562.16 1942.72 554 1928C549.316 1928.24 548.325 1926.49 548 1922L546 1922M1653 1925C1656.14 1940.34 1662.9 1953.97 1665.14 1970C1665.68 1973.87 1668.05 1982.89 1664.36 1985.74C1650.44 1996.51 1617.71 1980.15 1605 1996C1620.76 1996 1649.18 1985.21 1663.72 1991.84C1669.27 1994.37 1672.84 2027.9 1667.68 2031.4C1655.58 2039.59 1606.02 2041.89 1605 2060C1613.9 2055.73 1622.64 2050.9 1632 2047.67C1638.33 2045.49 1644.48 2042.78 1651 2041.21C1655.67 2040.09 1666.05 2034.92 1670.51 2037.42C1674.77 2039.8 1675.17 2052.62 1675 2056.98C1674.37 2074 1661.52 2096.05 1658.49 2114C1657.66 2118.86 1652.69 2131.98 1656.27 2136.1C1659.57 2139.9 1670.97 2135.33 1675 2134.44C1689.35 2131.28 1711.13 2126.05 1725.68 2129.18C1732.56 2130.66 1731.27 2144.74 1737 2149C1735.55 2126.51 1716.56 2091.87 1733 2072C1714.37 2070.31 1725.62 2115.98 1728 2126C1720.48 2125.37 1704.77 2129.48 1698.48 2125.66C1690.49 2120.8 1686.39 2091.92 1684.48 2083C1683.78 2079.74 1680.61 2072.21 1683.74 2069.62C1692.8 2062.13 1717.56 2069.9 1729 2067C1717.83 2057.36 1695.68 2068.21 1682.42 2062.96C1676.71 2060.7 1674.07 2036.88 1679.32 2033.6C1692.77 2025.21 1721.25 2025.49 1737 2022.92C1743.54 2021.85 1753.73 2022.65 1758 2017C1737.65 2017.01 1718.03 2022.6 1698 2025.33C1692.7 2026.05 1682.52 2030.72 1677.49 2028.34C1672.78 2026.11 1669.01 1995.21 1673.54 1992.48C1681.63 1987.61 1700.27 1993.81 1709 1995C1700.78 1982.43 1680.75 1994.09 1671.94 1985.18C1657.67 1970.76 1675.19 1938.18 1653 1925M893 1960C900.286 1970.1 916.238 1959.67 924.322 1966.26C927.321 1968.71 924.746 1976.43 925.5 1980C928.541 1994.39 938.565 2006.36 954 2001C954 2009.07 957.251 2040.03 950.499 2044.74C944.052 2049.24 927.622 2046.07 920 2046L920 2049C926.274 2049.81 947.855 2047.86 951.937 2051.16C957.976 2056.04 953.204 2075.54 952 2082C962.361 2074.62 953.847 2060.59 958.58 2051.42C962.187 2044.44 988.864 2047 996 2047C987.413 2037.96 965.012 2051.44 958.26 2043.18C949.615 2032.6 967.848 1995.25 956 1990C952.536 2010.93 924.91 1988.34 929.115 1972.07C930.947 1964.98 939.075 1969.04 944 1969.84C954.374 1971.52 992.052 1967.33 996 1977C1004.1 1974.14 994.885 1967.42 990 1967.05C975.602 1965.97 961.375 1967.64 947 1965.58C943.249 1965.04 935.246 1966.14 932.867 1962.49C925.618 1951.35 955.853 1932.1 964.83 1933.04C972.302 1933.83 971.048 1942.61 976 1946C979.645 1916.33 943.173 1935.95 934.439 1947C931.543 1950.67 929.819 1958.12 925.56 1960.3C917.753 1964.28 901.482 1960.79 893 1960M1247 1930C1242.74 1947.98 1239.37 1976.81 1243.62 1995C1245.49 2002.98 1259.78 2015.45 1263 2002C1251.4 2006.54 1247.04 1997.7 1247 1987C1246.95 1970.96 1253.43 1944.68 1247 1930M1296 1933C1292.79 1945.69 1286.87 1990.75 1297.42 2000.4C1300.67 2003.36 1320.36 2002.97 1317.24 1996.91C1316.08 1994.66 1307.18 1998.63 1305.03 1998.61C1298.49 1998.55 1298.48 1990.93 1298.14 1986C1297.17 1972.29 1305.72 1943.3 1296 1933M122 1943C146.735 1943 185.177 1938.39 205 1956C205.26 1947.59 194.694 1945.47 188 1943.82C173.894 1940.35 133.553 1933.01 122 1943M558 1940C571.453 1941.02 580.446 1955.85 582.271 1968C582.689 1970.78 584.069 1985.36 579.057 1985.36C576.455 1985.36 574.519 1976.91 573.675 1975C568.511 1963.3 563.993 1951.29 558 1940M540 1941C538.691 1954.99 536 1967.81 536 1982C536 1986.89 537.774 1996.31 534.74 2000.46C531.107 2005.42 498.312 1999.35 497.28 1993.64C496.424 1988.9 503.562 1982.29 506.261 1979C515.185 1968.12 526.756 1946.3 540 1941M118 1946C113.139 1954.33 117.547 1971.23 116.864 1981C115.925 1994.43 116.536 2008.82 113.672 2022C112.571 2027.07 108.2 2034.56 111.391 2039.55C115.215 2045.52 128.656 2046.31 135 2047.36C157.963 2051.16 180.688 2046.98 203 2056C197.26 2026.17 202.249 1992.02 205 1962C198.978 1966.86 201.346 1976.1 200.864 1983C199.838 1997.66 197.534 2012.3 197.04 2027C196.861 2032.34 198.894 2041.71 196.178 2046.46C194.427 2049.52 164.175 2044.86 159 2044.32C147.548 2043.13 125.645 2047.08 116.587 2038.11C112.215 2033.78 117.599 2020.55 117.924 2015C119.018 1996.28 126.845 1963.13 118 1946M172 1979C174.139 1982.32 179.491 1984.93 179.77 1989.1C180.876 2005.62 145.863 2006.86 160.408 1985.02C162.757 1981.49 166.023 1978.95 169 1976C154.129 1976.27 143.863 2003.66 163.003 2006.51C178.821 2008.86 193.214 1982.55 172 1979M1025 1998C1028.66 2023.81 1057.31 2094.14 1011 2088C1014.93 2097.35 1033.21 2095.95 1037.08 2086.97C1045.82 2066.72 1040.25 2014.26 1025 1998M1677 2064C1680.78 2078.42 1682.32 2092.75 1687.46 2107C1689.18 2111.74 1694.29 2120.41 1692.77 2125.54C1691.62 2129.44 1662.32 2133.76 1660.52 2130.46C1658.56 2126.88 1662.14 2117.98 1662.72 2114C1664.87 2099.06 1666.6 2075.68 1677 2064z"/>
</svg>
