<?xml version="1.0" standalone="yes"?>
<svg xmlns="http://www.w3.org/2000/svg" width="2200" height="2200">
<path style="fill:#0e0e0e; stroke:none;" d="M1976.73 71.4077C1973.66 73.7126 1976.06 83.6958 1976.44 87C1977.95 100.34 1976.81 115.563 1975.9 128.999C1975.78 130.792 1974.14 144.174 1980.22 140.464C1982.95 138.793 1981.01 129.766 1981 127C1980.97 112.645 1982.65 98.3794 1981.92 84C1981.83 82.1001 1981.18 68.0735 1976.73 71.4077M185.729 89.4077C181.313 92.5862 186.792 111.019 186.96 116C187.859 142.78 188.669 169.28 185.904 196C185.587 199.066 182.279 223.154 188.606 220.251C193.151 218.166 191.781 198.686 192.07 194C193.725 167.191 193.024 140.796 193 114C192.997 111.126 191.788 85.0476 185.729 89.4077M1255.39 97.4409C1251.64 98.1643 1257 120.571 1257.52 124C1261.36 149.13 1264.28 173.497 1263.99 199C1263.96 201.838 1260.28 222.497 1264.82 221.677C1270.14 220.715 1269 202.05 1269 198C1269.01 172.439 1267.8 148.239 1263.37 123C1262.69 119.123 1261.22 96.3188 1255.39 97.4409M1611 102C1606.39 109.567 1608.68 119.557 1608.96 128C1609.63 148.1 1611 167.928 1611 188C1611 191.412 1609.93 214.714 1615.7 213.559C1619.76 212.744 1615.26 190.672 1615.08 187C1613.94 164.447 1623.22 121.527 1611 102M910.356 113.544C906.143 115.76 907.026 132.625 907.003 137C906.872 160.901 906.415 185.176 908.137 209C908.381 212.381 909.772 236.639 914.62 234.251C919.342 231.926 913.678 211.538 913.225 207C910.872 183.457 913 158.665 913 135C913 132.193 914.472 111.38 910.356 113.544M528.684 126.408C523.908 130.135 525.947 146.57 526.008 152C526.288 177.221 527.186 203.001 530.302 228C530.694 231.145 530.905 259.844 535.187 256.592C539.154 253.579 536.109 233.821 535.562 229C532.643 203.27 532 176.892 532 151C532 148.177 532.405 123.505 528.684 126.408M2010.37 126.544C2006.27 128.907 2009.01 144.696 2009 149C2008.95 171.386 2004.12 193.588 2004 216C2003.98 219.08 2000.45 242.331 2005 240.894C2010.15 239.266 2009 223.303 2009 219C2009.02 195.885 2014 173.157 2014 150C2014 147.389 2014.85 123.955 2010.37 126.544M1652 140C1655.89 145.276 1688.82 154.731 1690.68 144.739C1690.99 143.076 1656.47 140.018 1652 140M1341.93 144.593C1336.81 144.594 1308.16 151.925 1310.65 153.248C1319.98 158.2 1350.01 144.591 1341.93 144.593M1176 159C1192.24 159.15 1205.93 157.279 1222 155C1221.05 157.37 1220.41 159.481 1220 162C1222.97 160.15 1229.2 151.04 1222.85 149.524C1216.77 148.074 1177.47 154.823 1176 159M580 170C588.958 179.433 628.733 164.411 641 162.72C644.357 162.257 658.948 164.018 659.677 159.909C660.666 154.333 643.649 156.497 641 156.823C620.693 159.326 600.121 169.1 580 170M1540.11 164.155C1539.58 164.68 1574.89 176.656 1580.59 170.87C1580.79 170.671 1546.75 157.563 1540.11 164.155M877.989 165.508C865.238 166.015 852.854 168.984 840 169C839.13 169.001 827.355 169.026 830.408 171.85C836.974 177.925 863.656 171.72 872 171.136C874.796 170.941 881.593 172.216 883.592 169.77C886.188 166.594 879.706 165.44 877.989 165.508M260.257 199.544C255.074 201.789 251.302 211.477 248.33 216C238.374 231.152 227.203 246.822 219.06 263.003C216.904 267.286 210.38 284.884 205.596 285.717C200.517 286.602 192.173 277.3 188 274.699C169.051 262.89 150.35 249.991 135.58 232.999C133.526 230.636 119.227 211.865 116.147 215.969C113.482 219.519 129.32 235.281 132.347 238.255C150.045 255.637 169.275 267.545 189 282.09C193.315 285.271 203.514 296.631 209.547 293.488C215.104 290.593 218.595 276.735 221.617 271.32C231.993 252.726 243.664 234.936 255.161 217C256.102 215.532 267.379 196.459 260.257 199.544M915 293C901.958 280.168 892.907 261.86 882.239 247.003C880.27 244.261 873.613 233.071 868.969 235.764C866.477 237.209 876.684 249.052 877.985 251C886.462 263.687 895.061 276.903 904.337 289C906.139 291.35 910.974 300.378 914.692 299.258C919.116 297.925 924.315 285.757 926.511 282C936.803 264.39 944.384 245.463 955.838 228.457C957.849 225.47 970.619 210.144 966.98 207.4C963.118 204.488 953.052 221.894 951.278 224.79C938.578 245.52 922.128 269.696 915 293M1562 217C1560.76 226.956 1573.73 236.764 1579.34 244C1585.23 251.594 1601.11 284.019 1612 282.188C1628.99 279.333 1646.77 248.172 1657.56 236C1659.73 233.549 1672.26 223.081 1668.69 219.33C1665.21 215.676 1655.42 228.888 1653.57 231C1643.59 242.398 1634.04 254.178 1624.2 265.698C1621.5 268.859 1615.92 276.038 1611.22 275.574C1605.85 275.043 1599.82 263.975 1596.88 260C1586.63 246.129 1576.56 226.813 1562 217M1983 301C1980.82 290.678 1966.39 284.583 1959.24 277.554C1948.62 267.116 1943.77 253.51 1936.31 241C1935.25 239.22 1925.07 222.819 1922.74 226.969C1921.01 230.046 1931.65 243.65 1933.46 247C1944.13 266.752 1953.64 279.583 1971 293.834C1974.3 296.544 1980.36 305.887 1985.11 304.92C1991.98 303.522 1999.05 292.941 2003.44 288C2015.84 274.019 2028.09 259.486 2041.03 245.997C2042.76 244.193 2058.95 227.998 2054.51 226.713C2049.8 225.352 2038.2 240.703 2035.36 244C2019.01 262.965 2003.25 286.036 1983 301M125 236C124.014 237.479 124 237.203 124 239C125.766 238.021 125.955 237.778 125 236M475 255C476.662 270.669 490.837 286.061 497.931 299.864C499.584 303.08 503.423 312.767 507.963 311.973C521.897 309.535 541.426 284.588 552 275.42C556.245 271.738 585.246 246.435 581.69 240.969C579.22 237.173 566.657 253.245 564.96 255C552.011 268.392 538.147 280.679 524 292.804C520.963 295.408 512.561 304.769 508.284 303.959C503.749 303.101 500.681 293.623 498.961 290C494.41 280.413 484.987 259.017 475 255M267.115 397.408C263.548 400.923 266.534 413.415 266.665 418.007C267.132 434.396 263.43 451.649 262.037 468C261.809 470.685 257.407 486.851 264.667 482.67C269.311 479.996 268.803 469.665 268.96 465C269.543 447.624 270.578 430.199 270.942 412.864C270.973 411.387 270.618 393.954 267.115 397.408M141.225 413.761C136.465 415.696 140.773 427.52 141.191 431C143.3 448.538 143.632 466.384 144.864 484C145.039 486.501 143.624 503.997 149.285 501.894C152.621 500.655 150.048 487.908 149.982 485C149.579 467.228 148.826 448.665 146.902 431C146.646 428.652 144.98 412.235 141.225 413.761M535 505C557.272 494.508 576.19 467.73 592.845 450.04C599.926 442.519 609.191 438.874 611 428C590.03 432.59 569.179 469.29 554 483.96C547.41 490.329 538.17 496.081 535 505M1557 457C1560.72 474.392 1591.52 493.603 1605 504.087C1607.55 506.074 1619.55 517.4 1622.93 513.981C1625.58 511.307 1610.04 501.279 1608 499.687C1591.14 486.519 1575.73 467.147 1557 457M961.929 468.271C945.524 474.083 926.049 499.341 914.196 511.681C912.849 513.083 899.85 528.309 905.159 527.722C911.221 527.053 917.267 516.21 921.026 512.122C932.42 499.729 945.82 487.672 959.015 477.232C960.671 475.921 970.027 465.402 961.929 468.271M198 592C197.867 594.92 204.23 609.669 207.248 606.351C211.746 601.407 209 586.324 209 580C209 555.094 206.404 530.676 205.995 506C205.934 502.309 205.756 475.655 202.606 475.643C196.75 475.62 200.901 496.848 201.04 501C201.837 524.718 204 548.212 204 572C204 576.496 206.409 599.25 198 592M2028 477C2023.79 481.571 2017.32 483.899 2014 489C2017.1 488.114 2019.36 486.857 2022 485C2020.65 514.572 1987.82 554.001 1973.43 579.217C1971.04 583.408 1954 606.458 1957.88 609.894C1960.91 612.582 1975.83 586.399 1977.91 582.639C1991.98 557.141 2006.86 531.941 2020.12 506C2023.81 498.765 2032.77 484.783 2028 477M1582 581C1583.32 581.348 1601.28 579.143 1600.67 580.031C1602.53 577.309 1599.55 573.435 1601.6 570.217C1613.09 552.13 1634.49 536.712 1650 522.075C1661.54 511.179 1678.43 501.215 1686 487C1677.46 485.763 1671.75 494.757 1666 500.038C1649.93 514.793 1633.02 529.019 1618.14 544.999C1614.48 548.923 1602.26 566.349 1596.37 564.996C1588.76 563.25 1575.8 532.097 1571.71 525C1569.71 521.519 1552.8 490.025 1550.52 493.755C1548.92 496.376 1558.29 511.062 1559.89 514C1569.01 530.694 1599.93 566.886 1582 581M475.734 488.544C471.944 491.673 484.704 515.903 486.447 520C494.529 538.995 501.843 561.996 506.716 582C507.822 586.542 499.891 594.649 501.503 596.936C501.278 596.616 512.703 595.594 513.296 595.279C515.442 594.141 522.253 578.274 525.658 574.64C544.036 555.022 561.957 535.003 581 516.001C583.102 513.904 603.942 494.998 596.831 495.883C590.529 496.667 584.461 505.466 579.997 509.439C563.523 524.1 548.512 541.57 533.801 557.997C529.894 562.361 518.984 578.48 512.923 578.48C508.806 578.48 506.182 565.144 505.113 562C498.919 543.783 494.692 524.948 487.062 507.217C486.056 504.879 478.11 486.582 475.734 488.544M1923 497C1921.39 509.256 1952.68 525.796 1962.01 531.078C1964.82 532.674 1972.66 539.912 1976.03 537.654C1979.81 535.122 1967.68 528.486 1966.14 527.587C1950.79 518.621 1937.99 506.322 1923 497M1207 498C1219.9 530.594 1259.41 563.649 1257 597C1272.29 591.551 1268.18 586.428 1278.37 574C1291.67 557.764 1304.79 541.796 1318.55 526C1324.9 518.709 1336.69 511.019 1337 501C1305.21 516.945 1290.19 560.543 1264 583C1255.68 560.267 1236.11 539.178 1224.06 518C1220.09 511.015 1215.85 499.202 1207 498M818.928 510.544C815.533 512.819 830.693 529.289 832.418 532C844.962 551.719 853.003 574.559 861.834 596.07C863.246 599.512 866.372 616.344 870.499 615.677C874.384 615.049 886.471 597.529 890 594C909.525 574.475 930.31 556.337 949.997 537C952.258 534.78 975.496 514.29 967.906 513.962C961.896 513.702 951.891 527.121 948 530.999C931.126 547.819 911.781 562.746 896.033 580.623C892.167 585.012 877.273 602.779 871.626 601.919C866.872 601.195 863.475 586.817 861.955 582.864C854.844 564.369 846.63 544.84 835.185 528.562C833.181 525.712 823.354 507.578 818.928 510.544M2022 567C2025.01 560.433 2027.92 553.865 2030.18 547C2031.75 542.219 2033.99 537.7 2035.78 533C2036.41 531.346 2041.81 510.353 2036.89 513.544C2030.25 517.858 2022.64 549.785 2020.04 558C2019.09 560.984 2015.33 568.128 2017.54 571.035C2020.37 574.76 2033.53 568.801 2037 567.678C2048.75 563.871 2083.37 562.346 2091.21 554.249C2096.38 548.916 2069.5 553.553 2067 554.114C2061.01 555.46 2054.87 556.214 2049 558.056C2039.99 560.881 2031.13 564.715 2022 567M562 549C563.428 554.582 570.907 556.102 575 560.03C587.811 572.322 600.018 585.068 615 594.816C617.821 596.652 630.663 608.993 633.592 605.186C637.187 600.516 620.753 591.782 618 589.819C601.458 578.021 582.384 551.119 562 549M1646 558C1652.9 573.036 1678.18 586.825 1691 597.081C1693.48 599.066 1704.16 609.6 1707.59 605.754C1710.56 602.432 1696.09 593.95 1694 592.372C1681.09 582.632 1662.6 559.092 1646 558M1317.65 561.452C1313.78 564.04 1325.6 568.995 1327 569.52C1339.8 574.313 1352.8 577.822 1365 584.169C1367.96 585.708 1375.46 591.537 1378.87 589.341C1384.46 585.731 1370.67 580.77 1369 580.063C1356.09 574.614 1343.44 569.17 1330 565.059C1327.53 564.304 1319.91 559.943 1317.65 561.452M223 659C206.616 643.661 194.526 622.193 178 606.019C172.684 600.816 161.188 589.903 154 598C174.291 603.356 191.614 624.258 203.808 641.019C207.549 646.159 215.506 664.791 222.099 665.677C226.963 666.331 230.751 651.467 232.391 648C239.213 633.583 244.337 617.967 249.942 603C251.361 599.209 256.393 590.855 254.141 586.851C251.223 581.661 242.381 607.05 241.378 609.999C239.117 616.646 236.9 623.492 234.176 629.96C230.266 639.239 224.174 648.936 223 659M792 679C810.445 676.609 825.355 640.147 835.159 625.999C837.248 622.984 847.778 611.724 845.359 607.969C843.018 604.337 832.729 619.098 831.487 621.078C820.127 639.185 798.986 659.26 792 679M899 863C897.749 858.506 891.957 820.086 885.652 822.754C882.132 824.243 887.195 833.758 887.828 836.003C891.521 849.104 892.99 863.314 898 876C911.581 863.843 918.8 838.331 930.7 823.32C932.125 821.522 945.149 809.361 940.399 807.753C936.042 806.278 929.67 816.273 927.384 818.978C916.072 832.359 910.063 850.306 899 863M1574 819C1593.21 807.092 1583.87 841.616 1587 854C1593.91 849.679 1619.17 813.87 1628 826C1632.71 818.016 1623.81 817.19 1618 820.058C1606.54 825.71 1599.94 837.168 1589 843C1589.66 832.026 1585.19 787.33 1574 819M1265 844C1265.48 840.613 1266.15 837.31 1267.02 834C1276.22 798.924 1250 846.821 1260.74 852.273C1263.92 853.883 1270.45 845.7 1272.45 843.82C1281.51 835.266 1322.65 802.139 1290.02 823.002C1286.54 825.23 1283.27 827.764 1279.96 830.247C1274.49 834.357 1270.66 840.301 1265 844M1184 956C1198.83 957.228 1218.34 928.491 1228.44 918.919C1230.79 916.69 1241.08 904.399 1244.32 906.323C1246.73 907.752 1248.48 917.532 1246.78 919.716C1235.65 933.977 1212.26 943.354 1211 965C1222.46 955.083 1230.39 931.479 1246 928C1242.68 941.26 1242.85 955.47 1240.49 969C1240.08 971.366 1237.14 980.997 1242 980.997C1245.94 980.997 1245.39 971.542 1245.69 969C1247.18 956.072 1249.88 943.033 1250 930C1257.7 938.61 1255.92 960.54 1268 964C1267.33 947.118 1242.12 912.029 1252.54 897.009C1269.33 872.814 1294.77 932.502 1308.72 934.677C1315.58 935.746 1300.97 917.33 1299.78 916C1296.35 912.199 1292.68 908.593 1289 905.04C1283.24 899.472 1276.15 895.121 1271 889C1283.06 889 1294.36 887.316 1306 884.254C1307.71 883.804 1318.5 883.975 1315.89 880.449C1310.86 873.645 1274.53 885.127 1266 886C1273.01 875.367 1288.13 866.016 1298.23 858.151C1300.99 856.004 1310.03 852.096 1310 848.018C1309.94 841.599 1296.12 853.087 1294.58 854.249C1279.03 865.98 1264.88 879.755 1249 891C1248.98 874.322 1245.78 858.702 1240.76 842.981C1240.22 841.307 1234.13 821.587 1231.22 829.354C1229.51 833.921 1235.34 840.62 1236.6 845C1240.18 857.446 1248.49 883.039 1243.38 895.68C1233.51 920.079 1194.76 931.948 1184 956M880 830L881 831L880 830M255.034 836.33C248.276 841.925 244.905 865.412 241.389 874C229.119 903.97 214.468 933.919 198.384 962C196.984 964.445 184.759 992.297 192.395 989.031C197.809 986.714 203.793 964.664 206.88 959C222.189 930.917 237.536 901.101 248.416 871C249.986 866.655 259.011 833.037 255.034 836.33M1558 942C1567.98 928.075 1578.7 916.021 1590.99 904.041C1594.42 900.697 1600.54 892.757 1606 893.818C1625.09 897.523 1653.22 925.704 1668.01 938.178C1670.33 940.134 1684.92 955.354 1687.17 953.497C1691.21 950.156 1675.24 937.249 1673 935.309C1658.65 922.883 1642.78 911.533 1627 901C1623.22 898.479 1611.52 893.159 1611.52 887.897C1611.52 879.05 1644.23 857.591 1651.69 852.359C1653.96 850.762 1665.79 844.516 1663.46 840.81C1661.05 836.988 1649.63 847.203 1647.44 848.854C1637.87 856.066 1615.5 884.507 1603 882.963C1590.05 881.364 1564.77 855.188 1557.13 844.986C1555.7 843.073 1546.59 832.378 1543.62 836.899C1541.99 839.39 1552.91 848.11 1554.59 849.961C1564.22 860.585 1575.85 869.819 1587.02 878.777C1589.83 881.03 1598.14 885.234 1598.01 889.405C1597.88 893.764 1589.56 898.172 1586.68 900.879C1577.24 909.773 1554.94 927.619 1558 942M841 974C854.768 970.121 873.293 940.518 882.456 929.32C885.318 925.822 893.112 913.277 898.313 914.074C903.361 914.847 908.809 924.314 911.809 928C922.555 941.204 934.075 953.69 944.758 966.962C947.081 969.849 955.886 984.65 960.156 982.475C964.606 980.209 950.874 966.329 949.11 964.001C938.126 949.495 925.706 936.008 914.101 921.993C911.106 918.375 902.938 911.622 904.451 906.321C908.967 890.497 940.188 868.621 951.999 857.019C954.779 854.288 967.966 844.247 966.118 839.609C963.954 834.18 951.724 849.219 950.392 850.867C938.863 865.131 924.18 876.871 911.561 890.136C908.677 893.168 902.613 902.474 897.871 901.921C883.321 900.225 871.854 860.314 855.354 864.083C850.331 865.23 868.992 880.002 870.999 882.003C876.781 887.765 891.686 899.384 892.717 907.823C893.368 913.155 882.133 922.31 878.805 926.038C867.345 938.869 844.409 956.818 841 974M562 846C547.589 844.515 531.436 863.878 523.721 874.001C521.783 876.543 517.746 886.278 514.606 886.919C508.351 888.195 502.952 848.377 493.319 850.323C489.547 851.085 494.365 859.186 495.293 860.562C500.33 868.032 506.162 897.363 514.207 900.239C516.669 901.119 521.398 887.317 522.906 884.96C533.54 868.339 547.943 858.926 562 846M130 859C133.904 874.165 171.439 879.435 181 895C188.539 889.033 179.131 883.873 173.96 880.198C160.48 870.618 144.999 865.291 130 859M1658 879C1665.53 870.838 1691.91 870.612 1695 860C1682.15 861.02 1669.06 867.709 1657 871.997C1654.27 872.969 1646.15 874.14 1645.11 877.252C1643.99 880.586 1650.96 882.104 1653 882.532C1660.19 884.04 1681.79 893.706 1687.57 891.921C1692.61 890.365 1683.19 885.464 1682 884.845C1674.03 880.72 1666.94 879.013 1658 879M1525 862C1529.69 872.629 1557.5 879.144 1558.62 888.841C1558.91 891.371 1549.84 892.581 1548 893.085C1538.05 895.807 1518.07 890.689 1511 896C1526.42 902.321 1537.01 899.063 1553 896.358C1556.08 895.836 1566.71 894.827 1567.9 891.358C1569.1 887.834 1562.18 883.647 1559.92 882.123C1550.21 875.58 1536.71 863.278 1525 862M1993 907C2012.68 902.258 2032.2 890.142 2051 882.239C2053.3 881.272 2070.64 877.172 2068.46 873.679C2065.68 869.25 2052.48 875.447 2049 876.758C2035.19 881.965 1999.01 892.886 1993 907M932 893C949.598 884.692 964.687 882 984 882C978.4 868.845 944.981 880.719 936 885.366C933.198 886.815 924.899 889.654 924.323 893.231C923.694 897.139 934.669 899.621 937.32 900.959C946.174 905.428 968.037 923.025 976.686 922.998C984.269 922.974 966.606 909.385 965 908.386C960.83 905.793 956.432 904.032 952 901.97C945.492 898.942 938.074 896.658 932 893M465 877C469.157 893.53 485.517 908.385 495.166 921.993C498.301 926.414 505.938 934.214 505.125 940C503.062 954.686 477.681 977.792 468.436 990.001C466.643 992.369 456.14 1005.28 458.305 1008.11C461.646 1012.47 469.278 997.57 470.582 995.68C479.355 982.964 489.119 971.115 498.677 959C501.297 955.679 505.594 946.741 510.184 946.081C513.537 945.599 517.694 952.28 519.642 954.438C528.588 964.348 536.56 975.094 545.685 984.921C548.32 987.759 568.086 1009.36 570.612 1005.97C573.913 1001.55 560.647 991.215 557.998 988.783C547.469 979.113 517.972 954.937 516.428 939.981C515.193 928.02 549.633 901.928 558 894.086C560.568 891.678 572.414 885.302 571.677 881.294C570.664 875.79 549.044 895.016 547 897.019C540.654 903.234 519.379 933.357 511.061 933.357C507.248 933.357 501.005 921.832 498.833 918.922C490.224 907.39 478.841 882.102 465 877M259 937C261.344 929.44 264.376 921.867 267.43 914.562C269.406 909.834 270.472 904.79 272.323 900C273.205 897.716 277.658 876.815 273.783 880.106C265.004 887.561 261.489 916.033 256.534 927C255.199 929.956 248.941 941.191 251.985 943.862C254.855 946.38 263.171 940.928 266 939.716C273.625 936.448 303.94 928.023 307.456 921.47C310.49 915.817 291.73 921.767 290.078 922.328C285.813 923.776 281.969 926.221 277.997 928.306C271.794 931.563 265.302 933.998 259 937M1994 885C1988.46 872.568 1973.25 892.235 1971.6 899C1967.95 913.935 2002.97 938.708 2011.46 923.505C2013.73 919.43 1999.75 921.003 1998 920.844C1982.45 919.424 1969.57 902.397 1983.12 890.197C1986.27 887.362 1990.04 886.222 1994 885M2036.53 902.544C2031.71 905.119 2030.24 918.164 2029.22 923C2025.34 941.426 2017.23 958.527 2012.9 977C2012.26 979.71 2006.04 1000.65 2011.84 998.894C2016 997.635 2018.13 981.074 2019.1 977C2023.65 957.951 2031.28 939.999 2035.85 921C2036.2 919.535 2042.71 899.24 2036.53 902.544M1571 959C1582.7 951.048 1597.55 928.028 1603 915C1606.41 926.03 1616.13 955.477 1629 957C1624.76 945.15 1616.04 934.885 1611.46 923C1610.24 919.85 1609.39 911.118 1606.1 909.544C1601.85 907.507 1596.81 916.359 1595 919C1587.75 929.591 1571.35 945.749 1571 959M235 963C239.088 972.848 273.556 975.969 284 980.807C286.809 982.108 296.843 989.386 299.592 986.041C303.101 981.772 288.364 976.452 286 975.562C269.06 969.187 253.04 964.68 235 963M216 1205C234.167 1198.54 248.943 1171.93 264 1159.7C266.333 1157.81 280.72 1149.49 278.496 1145.94C276.037 1142 262.178 1154.67 259.997 1156.5C245.47 1168.66 223.393 1187.33 216 1205M910.402 1154.54C907.469 1156.17 909.247 1164.15 909.114 1167C908.856 1172.55 903.565 1209.92 905.414 1209.03C914.283 1204.75 913.859 1173.43 914.521 1165C914.668 1163.14 914.758 1152.13 910.402 1154.54M1644 1159C1631.96 1159 1620.01 1158.07 1608 1158C1599.65 1157.95 1591.38 1156.96 1583 1157C1574.34 1157.05 1565.53 1158.54 1558 1163.08C1557.02 1163.67 1547.4 1170.78 1551.64 1171.73C1555.92 1172.68 1566.71 1164.08 1572 1163.1C1588.24 1160.09 1607.55 1161.99 1624 1163.14C1630.68 1163.6 1640.83 1166.76 1644 1159M954 1173.44C952.132 1173.65 937.606 1176.52 945.414 1179.99C949.803 1181.94 986.789 1179.89 991.248 1177.21C993.918 1175.6 960.087 1172.74 954 1173.44M547 1179C561.795 1183.77 575.842 1182.49 591 1181.12C593.308 1180.91 606.495 1180.8 604.031 1175.75C602.352 1172.31 593.864 1174.56 591.04 1174.92C582.006 1176.08 551.692 1172.94 547 1179M630.534 1180.54C625.922 1183.05 623.788 1198.16 621.68 1203C613.547 1221.67 602.811 1238.98 591.616 1256C590.809 1257.23 579.804 1273.71 586.022 1271.89C591.208 1270.38 595.752 1259.3 598.432 1255C609.043 1237.98 619.855 1220.59 627.469 1202C628.228 1200.15 636.282 1177.42 630.534 1180.54M1923 1290C1925.57 1300.93 1960.17 1288.91 1968 1288C1961.85 1307.4 1949.58 1327.24 1941.13 1346C1939.23 1350.22 1932.92 1362.81 1937.69 1366.89C1939.3 1368.28 1951.57 1335.44 1953.25 1331C1957.77 1319.07 1966.96 1292.92 1978.06 1286.12C1990 1278.81 2009.74 1279.39 2023.22 1275.48C2034.53 1272.19 2047.34 1272.52 2059 1271.92C2061.26 1271.81 2069.05 1271.91 2069.57 1268.79C2070.21 1265.02 2059.98 1265.47 2058 1265.79C2044.08 1268.06 2030.03 1270.06 2016 1272.42C2003.25 1274.56 1990.64 1277.3 1978 1280C1989.84 1257.21 2003.26 1233.97 2012.4 1210C2013.5 1207.1 2023.71 1185.67 2019.89 1186.32C2011.94 1187.67 2003.88 1218.15 2000.12 1225C1991.76 1240.24 1983.97 1269.54 1970.82 1280.52C1961.77 1288.07 1934.58 1290.34 1923 1290M1231.42 1189.54C1227.22 1191.6 1226.6 1201.95 1225.66 1206C1221.94 1222 1218.75 1238.1 1214.64 1254C1214.22 1255.6 1209.9 1272.1 1214.7 1270.24C1219.74 1268.28 1219.68 1256.39 1220.76 1252C1225.18 1233.95 1228.44 1215.34 1235.23 1198.33C1236.09 1196.16 1235.57 1187.51 1231.42 1189.54M1919.03 1195.41C1913.38 1200.56 1946.12 1237.22 1951.59 1231.75C1953.88 1229.47 1947.24 1224.9 1945.99 1223.76C1942.87 1220.93 1920.5 1194.06 1919.03 1195.41M525.591 1200.76C522.559 1202.34 527.191 1211.85 528.016 1214C532.389 1225.39 537.595 1237.1 543.074 1248C544.514 1250.87 546.302 1258.97 550.811 1257.89C563.306 1254.9 583.206 1224.68 592.904 1215.48C593.859 1214.57 605.911 1203.95 599.705 1204.34C588.577 1205.05 570.346 1230.16 563.059 1238C560.623 1240.62 554.46 1250.6 550.339 1249.92C544.363 1248.93 534.901 1216.9 532.222 1211C531.519 1209.45 528.13 1199.44 525.591 1200.76M1552.67 1207.41C1547.51 1210.91 1549.86 1226.03 1551.14 1231C1557.06 1253.89 1558.57 1277.55 1561.33 1301C1561.68 1304 1563.01 1328.21 1568.12 1324.59C1572.41 1321.55 1567.48 1303.73 1567 1299C1564.62 1275.44 1560.5 1252.18 1555.9 1229C1555.29 1225.92 1556.98 1204.49 1552.67 1207.41M181 1256C202.299 1250.45 220.958 1235.3 241 1226.5C249.158 1222.92 263.986 1218.4 269 1211C246.381 1211.22 223.804 1231.1 203.997 1240.49C196.274 1244.16 184.315 1247.41 181 1256M1646 1214C1643.84 1220.9 1641.6 1227.26 1639 1234C1648.03 1232.29 1645.5 1250.19 1646.5 1255.96C1649.66 1274.22 1654.82 1292.9 1659.1 1311C1660.36 1316.32 1660.7 1327.37 1665.71 1330.67C1671.61 1334.56 1664.62 1308.39 1663.71 1305C1655.65 1275.02 1654.39 1243.77 1648 1214L1646 1214M1281 1280C1279.07 1278 1277.37 1276.43 1275 1275C1275.99 1279.17 1282.21 1288.07 1278.72 1292.04C1275.71 1295.46 1263.06 1291.91 1259 1291.44C1239.78 1289.18 1220.09 1288.88 1201 1285.99C1197.48 1285.46 1174.23 1278.54 1173.32 1283.39C1172.4 1288.34 1203.66 1291.21 1208 1291.68C1238.69 1295.02 1270.19 1300 1301 1301.04C1306.21 1301.22 1326.02 1306.84 1329.59 1302.77C1333.2 1298.67 1315.71 1293.09 1313 1293L1315 1297C1309.7 1296.66 1290.35 1297.04 1287.14 1293.18C1280.8 1285.54 1291.19 1256.57 1291.86 1247C1292.15 1242.97 1294.39 1220.71 1290.33 1219.11C1285.99 1217.39 1287 1230.16 1287 1232C1286.96 1247.51 1285.57 1265.14 1281 1280M933.841 1223.54C919.471 1228.68 910.187 1258.79 895.975 1260.68C887.76 1261.77 875.132 1221.76 865.81 1227.44C861.526 1230.06 870.731 1235.51 872.059 1237.14C876.261 1242.31 888.739 1270.03 896.664 1267.5C908.823 1263.63 925.572 1239.58 933.841 1230C935.064 1228.59 939.088 1221.67 933.841 1223.54M1281 1250C1269.58 1252.26 1266.21 1258.98 1258 1265C1257.82 1255.48 1255.63 1244.65 1251.54 1236.02C1250.91 1234.7 1243.45 1224.23 1243.07 1230.94C1242.54 1240.24 1252.31 1257.25 1253.66 1268C1253.96 1270.4 1253.17 1278 1257.04 1278C1261.8 1278 1265.25 1264.53 1268.48 1261.46C1273.44 1256.74 1279.65 1257.93 1281 1250M150 1295C144.882 1295 139.931 1295.01 135 1293.43C96.627 1281.18 130.198 1258.09 139 1238C122.183 1239.58 102.429 1275.91 116.051 1288.84C122.188 1294.66 144.997 1307.25 150 1295M231.818 1245.54C228.876 1247.45 228.206 1266.75 227.123 1271C221.499 1293.07 211.161 1315.51 201.308 1336C200.564 1337.55 192.088 1357.37 197.871 1355.24C202.567 1353.5 205.351 1340.27 207.329 1336C216.716 1315.76 227.895 1292.89 232.517 1271C232.969 1268.86 237.544 1241.83 231.818 1245.54M1627.5 1250.19C1614.86 1255.15 1606.22 1292.1 1594.06 1292.24C1587.9 1292.31 1581.42 1267.05 1580.13 1262C1579.77 1260.62 1578.34 1252.38 1575.6 1253.76C1572.87 1255.14 1575.74 1262.86 1576.16 1265C1577.35 1270.93 1587.54 1301.37 1595.13 1298.73C1605.62 1295.08 1623.63 1265.38 1629.69 1255.83C1631.06 1253.68 1631.65 1248.57 1627.5 1250.19M80 1261C80.9802 1262.78 80.9076 1262.59 83 1263L80 1261M453 1277C457.072 1287.43 478.346 1287.59 488 1287.96C522.399 1289.31 555.786 1285.48 590 1282.22C595.078 1281.74 629.904 1282.14 630.677 1278.16C631.555 1273.64 595.259 1276.84 591 1277.33C543.095 1282.86 500.26 1279.83 453 1277M965 1287C945.861 1287 927.097 1287.32 908 1287.96C884.532 1288.75 860.313 1288.56 837 1291.45C834.243 1291.79 813.593 1292.99 814.761 1295.78C817.173 1301.54 845.627 1296.26 851 1295.78C882.513 1292.97 914.352 1292 946 1292C951.76 1292 974.931 1295.49 978.67 1291.73C981.138 1289.25 963.868 1274.7 965 1287M2026.93 1313.53C2023.89 1315.84 2031.61 1321.54 2033.01 1322.56C2036.69 1325.23 2060.53 1336.66 2064.03 1333.84C2067.27 1331.24 2028.66 1312.22 2026.93 1313.53M1492 1358C1554.34 1359.95 1619.7 1340.81 1682 1348.74C1696.44 1350.58 1710.52 1349.54 1725 1351.93C1726.69 1352.2 1738.58 1354.57 1735.09 1349.39C1729.05 1340.45 1696.53 1344 1687 1344C1639.5 1344 1593.31 1346.39 1546 1351.87C1532.27 1353.46 1518.84 1355 1505 1355C1500.58 1355 1493.39 1352.91 1492 1358M395 1374L398 1371C395.636 1371.48 395.482 1371.64 395 1374M258 1515L259 1516L258 1515M1705 1516C1703.48 1529.03 1709.74 1541.83 1708.77 1555C1705.17 1604.21 1696.65 1654.39 1687.81 1703C1685.22 1717.29 1685.33 1731.64 1683.76 1746C1683.45 1748.91 1680.06 1758.79 1685.08 1759.68C1688.86 1760.34 1688.81 1749.23 1688.92 1747C1689.69 1731.76 1691.21 1717.04 1693.82 1702C1701.04 1660.34 1708.84 1617.21 1711.08 1575C1712.14 1554.97 1715.22 1535.11 1707 1516L1705 1516M934 1534C940.574 1550.53 929.497 1580.97 925.125 1597.92C924.362 1600.88 919.026 1617 925.218 1617C930.913 1617 928.98 1601.66 929.708 1598C932.967 1581.63 937.347 1565.47 940.426 1549C941.575 1542.85 942.703 1533.18 934 1534M1569 1585C1579.59 1585 1608.11 1579.75 1616.58 1585.26C1621.99 1588.78 1624.12 1618.14 1617.72 1621.18C1607.95 1625.81 1586.74 1619.47 1576 1618.92C1573.52 1618.79 1564.12 1616.43 1563.32 1620.32C1562.53 1624.17 1575 1622.95 1577 1623.12C1584.18 1623.72 1618.46 1624.86 1620.5 1631.15C1623.26 1639.68 1623.61 1675.11 1616.5 1681.18C1608.95 1687.62 1584.7 1674.28 1587 1690C1591.03 1688.03 1615.57 1684.05 1618.06 1689.25C1621.59 1696.63 1614.91 1716.73 1614.08 1725C1613.77 1728.12 1610.62 1750.49 1616.92 1748.17C1621.63 1746.43 1619.7 1737.73 1620.22 1734C1621.98 1721.37 1617.56 1699.19 1624.11 1688.11C1629.83 1678.43 1670.49 1691.23 1673.64 1681.92C1675.12 1677.52 1665.18 1679.13 1663 1678.92C1654.41 1678.06 1633.07 1685.09 1626.19 1681.19C1623.27 1679.54 1625.97 1671.75 1626 1669C1626.09 1658.97 1622.86 1636.85 1626.33 1628.11C1627.52 1625.12 1635.43 1626.97 1638 1627.39C1649.87 1629.34 1662.02 1630.61 1674 1632C1676.3 1632.27 1687.78 1636.25 1687.78 1631.92C1687.78 1626.49 1677.54 1626.75 1674 1626.22C1662.05 1624.45 1649.95 1623.88 1638 1622.22C1634.88 1621.79 1627.84 1623.49 1626.33 1619.89C1624.31 1615.04 1622.5 1586.04 1626.03 1583.33C1630.88 1579.61 1644.95 1581 1651 1581C1654.96 1581 1681.99 1583.07 1680.64 1579.08C1679.6 1576.01 1669.85 1576.08 1667 1576C1658.13 1575.75 1631.81 1581.45 1625.11 1577.28C1617.1 1572.29 1626.93 1541.82 1615.89 1538.36C1610.46 1536.66 1613.8 1550.18 1614.08 1553C1614.65 1558.73 1622.33 1572.74 1617.67 1577.67C1610 1585.77 1571.06 1574.19 1569 1585M206 1597C213.444 1593.57 179.783 1561.97 174.091 1555C171.982 1552.42 166.33 1541.4 162.416 1542.13C157.662 1543.02 167.494 1554.68 168.538 1556C170.615 1558.63 172.611 1561.32 174.626 1564C178.249 1568.82 181.894 1573.63 186.06 1578C192.101 1584.33 201.959 1589.3 206 1597M257 1545C245.884 1565.73 235.843 1587.6 226.12 1609C222.733 1616.45 217.938 1632.74 211.598 1637.82C205.906 1642.37 177.131 1627.51 170.783 1624.65C168.482 1623.62 159.66 1618.94 157.761 1622.55C156.702 1624.56 167.473 1628.91 169.04 1629.58C181.775 1635.01 195.11 1642.21 209 1644C198.391 1667.46 167.16 1706.6 171 1733C178.14 1728.38 179.134 1719.35 182.222 1712C189.023 1695.82 199.716 1658.99 213.505 1648.2C216.948 1645.51 227.371 1650.12 231 1651.44C246.231 1656.95 262.007 1660.45 277 1666.7C280.391 1668.12 291.879 1675.62 294.99 1673.64C302.895 1668.62 269.891 1657.62 267 1656.75C255.145 1653.15 243.161 1648.31 231 1645.97C227.912 1645.37 219.128 1644.45 217.662 1641.22C215.378 1636.18 226.089 1621.79 228.258 1617C238.207 1595.04 257.422 1569.54 259 1545L257 1545M1998 1618C1996.24 1610.2 1990.25 1604.19 1986.89 1597C1984.42 1591.7 1981.91 1586.43 1979.73 1581C1978.74 1578.53 1969.35 1556.41 1966.07 1562.55C1963.77 1566.86 1970.2 1573.24 1971.89 1577C1976.8 1587.94 1984.25 1617.03 1998 1618M1194 1608C1204.44 1609.92 1224.41 1599.25 1233.38 1604.71C1236.34 1606.51 1233.94 1613.29 1233.56 1616C1232.51 1623.56 1231.74 1650.46 1224.54 1654.18C1213.07 1660.11 1178.73 1649.96 1173 1664C1189.54 1663.93 1209.06 1663.38 1225 1659C1224.83 1667.3 1222.55 1698.32 1214.64 1702.4C1203.89 1707.94 1180.83 1699.73 1168 1702L1168 1705C1177.97 1706.76 1207.11 1702.21 1213.98 1709.82C1218.89 1715.26 1207.89 1753.32 1216.16 1754.57C1220.28 1755.2 1219.97 1746.26 1219.99 1744C1220.07 1736.87 1216.44 1713.48 1224.28 1709.83C1235.45 1704.63 1264.52 1710.11 1277 1711.22C1280.58 1711.54 1293.12 1714.72 1295.46 1711.19C1296.61 1709.45 1279.5 1699.28 1277 1698C1278.6 1701.61 1281.02 1704.6 1283 1708C1270.13 1707.64 1235.16 1710.32 1224.76 1702.88C1220.6 1699.9 1229.13 1662.18 1234.24 1659.82C1246.94 1653.96 1269.62 1660.77 1283 1661.87C1285.8 1662.1 1298 1665.21 1298 1660.25C1298 1654 1267.9 1655.19 1263 1654.68C1256.87 1654.04 1238.61 1657.12 1234.16 1653.28C1231.77 1651.21 1234.55 1644.59 1234.93 1642C1236.42 1631.82 1235.48 1614.3 1239.82 1605.28C1244.05 1596.5 1284.15 1600.51 1293 1601.14C1295.54 1601.32 1309 1604.85 1309 1600.17C1309 1595.82 1296.68 1596.96 1294 1596.68C1279.33 1595.15 1255.74 1602.09 1242.5 1596.86C1234.58 1593.73 1243.93 1571.14 1233.69 1568.11C1228.19 1566.47 1233.66 1578.28 1233.86 1580C1237.8 1613.84 1207.96 1589.06 1194 1608M558 1616C572.597 1610.71 587.015 1589.07 601 1579.88C602.723 1578.75 615.875 1572.06 612.894 1569.27C609.353 1565.96 598.829 1574.8 596 1576.73C582.465 1585.95 562.128 1599.02 558 1616M466.009 1582.59C462.04 1584.91 478.516 1593.89 480 1594.79C495.519 1604.16 510.855 1613.76 526.019 1623.7C529.257 1625.83 538.078 1633.23 542.248 1630.56C547.555 1627.17 530.961 1619.84 529 1618.7C513.139 1609.47 498.344 1598.52 482.32 1589.57C479.577 1588.04 468.883 1580.91 466.009 1582.59M267 1605C277.138 1602.01 302.315 1593.79 309 1586C297.795 1583.27 271.529 1594.01 267 1605M937 1631C950.912 1626.88 964.632 1611.64 977 1603.71C982.157 1600.41 988.483 1598.41 990 1592C974.685 1595.31 941.143 1615.23 937 1631M840.928 1596.37C837.833 1598.68 846.564 1606.44 847.939 1608C856.403 1617.65 864.498 1627.54 874.139 1636.09C876.107 1637.83 881.923 1643.86 884.854 1640.94C888.194 1637.61 878.781 1632.4 876.999 1630.82C867.422 1622.31 859.492 1612.41 850.882 1603C849.267 1601.24 844.005 1594.07 840.928 1596.37M2029 1606C2039.93 1620.54 2086.1 1633.53 2104 1636C2097.37 1644.95 2076.3 1655.53 2066 1660.07C2059.88 1662.78 2051 1663.3 2048 1670C2066.09 1664.43 2079.43 1656.89 2096 1647.85C2099.78 1645.79 2111.36 1641.35 2111.36 1636.11C2111.36 1631.47 2095.59 1628.34 2092 1627.3C2071.21 1621.28 2050.54 1608.04 2029 1606M1926 1644L1926 1646C1937.57 1648.37 1954.02 1644.28 1966 1643.22C1988.19 1641.24 2010.92 1642.35 2033 1639.42C2037.36 1638.84 2065 1637.37 2065 1632.23C2065 1627.53 2035.67 1634.13 2032 1634.56C1996.58 1638.74 1960.62 1634.67 1926 1644M459 1644C460.876 1652.8 489.246 1646.36 496 1645.97C530.676 1643.97 565.072 1641.38 599.917 1639.86C605.314 1639.63 629.786 1643.23 632.167 1637.78C634.534 1632.36 595.239 1634.88 591 1635C546.818 1636.23 502.07 1643.28 459 1644M473 1636C471.814 1637.19 471.472 1637.58 471 1639C472.994 1638.15 473.699 1637.99 473 1636M2001.12 1651.4C1986.79 1662.05 1974.7 1685.3 1962.22 1699C1960.98 1700.36 1947.38 1714.19 1955.08 1713.22C1959.81 1712.63 1963.88 1704.99 1967.06 1701.86C1979.38 1689.74 1990.47 1675.92 2000.1 1661.56C2000.85 1660.44 2006.03 1647.76 2001.12 1651.4M129 1676C144 1672.26 157.878 1663.72 173 1659.56C178.471 1658.06 186.475 1657.66 189 1652C170.485 1652.35 139.869 1659.71 129 1676M822 1682C838.004 1683.15 856.647 1673.61 872 1669.44C894.2 1663.42 918.134 1661.25 941 1659.22C945.207 1658.84 977.527 1660.27 976.919 1657C975.646 1650.15 945.442 1654 940 1654C911.135 1654.03 882.716 1661.7 855 1668.55C845.87 1670.81 827.897 1674.42 822 1682M227.23 1668.44C222.09 1669.52 228.207 1680.87 229.341 1683C235.988 1695.5 241.921 1708.33 248.25 1721C249.488 1723.48 252.6 1733.2 256.604 1731.89C261.022 1730.46 255.83 1721.23 254.682 1719C248.163 1706.32 241.343 1693.92 235.117 1681C234.04 1678.76 230.43 1667.77 227.23 1668.44M410.667 1807.33C410.222 1807.78 411.278 1807.72 411.333 1807.67C411.778 1807.22 410.722 1807.28 410.667 1807.33M118 1893C114.455 1924.22 118.693 1958.27 117.078 1990C116.916 1993.18 114.035 2020.13 119.705 2018.14C124.67 2016.39 121.978 1994.53 122.003 1990C122.135 1965.67 124.131 1941.37 123.997 1917C123.96 1910.09 125.227 1896.22 118 1893M493 1998C510.38 1997.38 526.041 1991.21 543 1989C537.197 2007.71 540.271 2028.67 537.942 2048C537.524 2051.47 534.685 2065.71 540.252 2066.68C544.965 2067.49 543.113 2050.89 543.438 2048C544.726 2036.56 539.344 1993.49 551.14 1988.27C555.24 1986.45 580.997 1985.93 580.997 1981.82C580.997 1977.19 569.486 1979.86 567 1979.97C552.769 1980.6 544.338 1983.74 548.365 1965C550.114 1956.87 579.722 1938.88 587.264 1944.84C592.466 1948.96 602.635 1972.02 612.108 1968.16C610.773 1968.7 592.958 1939.6 587.778 1938.22C575.711 1935.02 558.8 1950.18 548 1954C548 1939.27 547.945 1924.68 546.911 1910C546.809 1908.56 544.311 1893.7 541.584 1898.62C534.11 1912.12 554.575 1944.08 542.411 1957.63C538.301 1962.21 527.942 1949.11 525.174 1946.42C508.769 1930.5 500.145 1939.65 481 1950.56C478.134 1952.2 464.207 1958.51 464.207 1961.97C464.207 1965.96 483.909 1954.52 485.985 1953.41C492.272 1950.03 503.768 1940.96 510.996 1941.3C521.615 1941.81 544.792 1969.72 542.867 1979.98C540.188 1994.25 497.527 1985.08 493 1998M254 1944C255.449 1929.43 238.336 1915.84 227.997 1907.9C225.51 1905.99 217.413 1898.11 213.969 1901.01C210.368 1904.06 220.286 1909.34 222 1910.48C235.623 1919.57 241.996 1934.4 254 1944M1644 1945C1641.27 1933.47 1643.68 1921.81 1650.75 1912.02C1652.08 1910.17 1659.76 1903.74 1656.82 1901.09C1653.81 1898.38 1648.47 1906.1 1647.23 1908C1642.47 1915.28 1629.4 1941.04 1644 1945M282 1915C289.503 1927.18 301.074 1937.25 309.478 1949C311.357 1951.62 318.264 1957.22 317.242 1960.74C315.927 1965.28 305.673 1970.33 301.999 1972.99C289.198 1982.26 278.553 1991.9 268.221 2004C266.002 2006.6 254.712 2014.82 256.103 2018.61C257.975 2023.69 268.444 2011.51 269.755 2009.96C282.741 1994.63 296.083 1983.8 311.984 1971.9C314.305 1970.16 327.357 1964.16 327.357 1961.76C327.356 1957.89 319.767 1952.82 317.464 1950C310.301 1941.22 295.011 1913.32 282 1915M1955 1923C1956 1928.27 1960.09 1933.45 1959.62 1938.92C1958.65 1950 1951.1 1958.66 1952 1971C1949.06 1969.55 1933.22 1958.21 1930.54 1960.92C1931.06 1960.4 1952.91 1980.58 1956 1982C1955.73 1971.55 1954.59 1957.33 1962 1949C1963.26 1954.88 1962.38 1960.1 1962.08 1966C1961.82 1971.16 1964.76 1987.52 1960.26 1990.9C1957.27 1993.13 1947.46 1984.16 1945 1982.32C1930.98 1971.81 1918.04 1957.46 1903.87 1947.93C1898.37 1944.23 1893.65 1948.03 1894 1954C1899.11 1947.37 1936.27 1982.6 1945 1988.86C1948.03 1991.03 1959.68 1996.93 1958.92 2001.44C1958.12 2006.16 1945.05 2003.08 1942 2003.02C1930.49 2002.78 1899.59 1999.12 1892 2009C1908.65 2012.62 1938.26 2011.59 1955 2008C1937.92 2026.73 1925.6 2015.58 1904 2021C1908.04 2025.72 1921.51 2020.33 1929 2025C1922.42 2028.78 1915.24 2034.69 1911 2041C1918.08 2040.5 1924.38 2028.2 1930.04 2029.11C1928.66 2028.89 1904.39 2055.68 1901 2058.97C1899.72 2060.22 1892.63 2065.12 1893.76 2067.33C1896.06 2071.82 1908.64 2058.77 1910.28 2057.14C1925.62 2041.85 1941.4 2026.93 1958 2013C1956.98 2023.46 1954.02 2033.42 1954 2044C1945.54 2040.21 1930.73 2044.78 1930 2055C1932.04 2053.9 1934 2052.62 1936.09 2051.6C1955 2042.44 1936.71 2070.96 1948 2076C1948.03 2067.87 1947.83 2053.43 1953 2047C1953 2056.12 1952.36 2064.94 1951.31 2074C1950.18 2083.76 1948.68 2094.18 1949.05 2104C1949.1 2105.55 1950.32 2114.59 1953.8 2111.59C1957.08 2108.78 1954.98 2095.12 1955 2091C1955.07 2072.66 1957.97 2053.22 1960.34 2035C1961.03 2029.65 1960.92 2012.24 1966.28 2009.84C1972.1 2007.24 1979.16 2013.15 1982.74 2017.05C1993.84 2029.13 2001.71 2044.25 2012.1 2057C2014.54 2059.99 2019.44 2068.99 2023.86 2068.89C2030.06 2068.77 2014.05 2050.2 2012.49 2048C2009.11 2043.26 2005.41 2038.76 2002.08 2034C1996.71 2026.33 1991.48 2018.59 1986 2011C2001.4 2011.55 2016.53 2013 2032 2013C2025.59 1996.96 1984.11 2016.85 1975.22 2002.44C1972.59 1998.17 1987.15 1988.87 1990 1986.57C2006.35 1973.38 2022.73 1960.29 2039 1947C2040.56 1945.72 2055.86 1933.69 2050.47 1932.63C2044.89 1931.53 2037.78 1940.9 2034 1944.08C2018.74 1956.92 2002.72 1968.9 1987.56 1981.82C1984.06 1984.8 1972.13 1998.64 1967.34 1996.05C1962.44 1993.4 1966.7 1980.4 1966.92 1976C1967.62 1962.26 1970.33 1929.62 1955 1923M1551 1930C1553.44 1941.16 1571.43 1956.38 1581 1962C1579.36 1951.36 1561.43 1932.7 1551 1930M1275 2010C1285.52 2003.78 1291.26 1983.46 1302.83 1979.64C1305.71 1978.69 1305.31 2005.38 1304.71 2009C1303.47 2016.51 1271.12 2021.53 1264.72 2017.88C1261.29 2015.92 1263 2006.32 1263 2003C1263 1987.23 1263.81 1971.71 1262.92 1956C1262.75 1952.97 1262.51 1937.6 1257.32 1938.43C1254.29 1938.91 1256.98 1954.29 1257.22 1957C1258.37 1969.97 1265.52 2005.49 1257.74 2016.4C1252.16 2024.22 1223.78 2010.92 1221.11 2020.08C1219.55 2025.39 1232.49 2023.89 1235.14 2023.94C1239.83 2024.04 1254.22 2021.52 1256.68 2026.42C1260.63 2034.3 1255.83 2051.99 1256.02 2061C1256.06 2063.07 1255.94 2072.22 1259.77 2071.57C1263.29 2070.98 1261.11 2062.23 1261.04 2060C1260.77 2051.89 1259.11 2033.16 1263.38 2026.28C1268.9 2017.4 1296.45 2018.3 1301.46 2027.03C1307.32 2037.24 1303.24 2059.05 1304 2071C1309.82 2066.19 1307 2047.42 1307 2040C1310.29 2042.98 1321.28 2067.43 1325.13 2065.32C1328.21 2063.62 1323.02 2055.88 1322.09 2054C1319.15 2048.12 1304.61 2028.21 1309.94 2022.28C1322.06 2008.81 1356.38 2026.36 1371.17 2017.19C1378.94 2012.37 1359.2 2012.95 1358 2012.98C1342.02 2013.34 1324.6 2012.1 1309 2016C1310.03 1998.72 1305.47 1975.65 1317.44 1962.02C1319.24 1959.97 1331.92 1950.09 1328.89 1947.1C1325.43 1943.68 1313.25 1958.7 1311 1961C1310.89 1958.12 1311.67 1928.39 1307.2 1933.89C1300.75 1941.84 1309.16 1959.49 1304.51 1968.98C1297.51 1983.25 1277 1993.32 1275 2010M1979 1951C1979.11 1978.45 2013.2 1949.52 2016 1937C1999.87 1940.44 1992.89 1966.23 1979 1951M888 2018C900.294 2013.76 917.306 2016.28 930 2019C912.618 2031.71 897.238 2049.76 882 2065C878.104 2068.9 867.058 2075.04 866 2080C888.424 2078.09 916.814 2037.69 933 2023C931.749 2043.91 930.823 2065.04 931.278 2085.98C931.364 2089.94 926.872 2104.42 934.174 2105.57C938.224 2106.21 936.971 2090.53 936.993 2088C937.154 2069.63 940.66 2046.82 937 2029C951.985 2033.81 966.484 2049.68 976.87 2061C978.457 2062.73 985.92 2074.4 988.347 2073.24C993.467 2070.8 982.223 2058.57 980.531 2056.74C968.646 2043.85 946.204 2034.11 938 2019C953.155 2019 968.931 2019.12 984 2020.68C985.767 2020.86 999.467 2020.67 993.429 2016.35C982.099 2008.25 947.168 2022.83 939.26 2011.5C935.911 2006.7 938.255 1996.67 937.554 1991C935.516 1974.51 933.061 1957.02 929 1941C914.153 1954.13 943.847 1994.62 931.74 2011.48C924.172 2022.02 890.574 1999.35 888 2018M1602 1941L1600 1950C1604.26 1951.6 1605.23 1954.86 1606.59 1959C1607.61 1962.11 1611.96 1969.02 1610.37 1972.19C1610.46 1972 1571.67 1989.15 1597 1981.49C1598.99 1980.89 1600.99 1980.31 1603 1979.78C1606.34 1978.89 1609.67 1977.94 1613 1977C1613.72 1983.99 1625.56 2015.53 1626.47 2012.65C1629.34 2003.55 1614.44 1983.39 1619.16 1976.86C1624.06 1970.08 1651.49 1961.93 1660 1957.62C1662.71 1956.25 1684.47 1944.62 1681.89 1942.26C1678.32 1938.98 1668.94 1946.5 1666 1948.27C1653.6 1955.74 1635.21 1969.95 1620.11 1970.12C1612.87 1970.21 1607.54 1946.21 1602 1941M312 1958C269.145 1955.41 222.121 1967.5 180 1958.52C175.749 1957.61 143.418 1951.61 145.544 1955.41C149.213 1961.95 170.308 1963.07 177 1963.78C209.002 1967.15 244.047 1965.64 276 1962.32C285.118 1961.37 308.439 1967.31 312 1958M205 2012C220.282 2010.25 232.782 1993.62 243.562 1983.7C245.315 1982.09 255.536 1974.94 252.813 1972.01C249.663 1968.62 242.736 1977.67 240.864 1979.43C230.05 1989.6 212.695 1999.41 205 2012M2035 2004C2032.74 1995.7 2023.64 1992.23 2016 1990C2021.18 1983.84 2029.2 1980.45 2031 1972C2026.93 1972.93 2008.96 1986.34 2010.09 1990.53C2011.34 1995.2 2030.57 2002.92 2035 2004M1910 1973C1909.74 1981.46 1921.46 1987.57 1927 1993C1922.9 1992.69 1906.98 1982.84 1904.97 1984.48C1899.82 1988.67 1949.99 2010.6 1927.16 1986.77C1924.96 1984.46 1922.52 1982.49 1919.98 1980.56C1916.65 1978.04 1913.41 1975.42 1910 1973M1639 1987C1635.69 2004.5 1652.8 2021.15 1661.64 2034.14C1663.02 2036.16 1669.92 2050.59 1672.96 2048.46C1676.69 2045.83 1669.48 2036.25 1667.92 2034C1658.17 2019.96 1649.97 1999.21 1639 1987M1592.71 2003.76C1590.35 2004.88 1590.99 2015.42 1590.32 2018C1587.05 2030.75 1580.54 2042.35 1576.86 2055C1576.3 2056.92 1572.46 2068.49 1578.11 2066.89C1582.53 2065.64 1581.41 2057.48 1582.31 2054C1585.53 2041.65 1592.81 2030.68 1595.18 2018C1595.47 2016.41 1597.27 2001.6 1592.71 2003.76M2001 2016C2004.39 2025.67 2011.01 2034.54 2016.83 2042.91C2017.84 2044.36 2023.53 2050.92 2025.24 2046.55C2026.67 2042.88 2012.03 2028.31 2010 2024C2013.72 2025.86 2016.89 2028.11 2021 2029C2018.2 2021.9 2008.37 2016.83 2001 2016M1997 2055C1994.56 2048.27 1981.29 2034.97 1973.42 2035.08C1970.52 2035.12 1967.87 2041.69 1970.65 2043.26C1974.64 2045.51 1979.54 2044.1 1984.98 2048.44C1988.8 2051.48 1992.11 2054.2 1997 2055z"/>
</svg>
