<?xml version="1.0" standalone="yes"?>
<svg xmlns="http://www.w3.org/2000/svg" width="2200" height="2200">
<path style="fill:#101010; stroke:none;" d="M182 51C178.105 69.0229 157.586 93.1421 136 91.821C129.041 91.3953 125.089 84.3098 118 84C130.525 107.115 166.023 88.5142 178.251 73.8562C182.885 68.3018 189.476 56.4058 182 51M109 53.4387C100.016 54.4719 81.1588 57.4927 78.2556 68.1377C76.9639 72.874 73.5006 107.357 79.6861 107.357C82.8591 107.357 81.4945 71.5793 85.3838 67.6011C97.3482 55.3633 113.104 64.0232 125.391 57.208C131.581 53.7749 111.017 53.2068 109 53.4387M1872 206C1912.93 201.18 1964.12 148.395 1987.88 118C1996.3 107.215 2001.25 92.4529 2011 83C2008.91 105.448 2008.97 125.609 2023.19 144.78C2028.8 152.352 2037.29 157.358 2043 165C2021.33 165 1999.41 161.836 1978 159.224C1972.04 158.497 1958.68 155.245 1956 162C1980.96 162 2005 169.524 2030 170C2017.04 191.857 1992.98 196.929 1973.98 185.019C1970.64 182.924 1943.02 167.269 1942.54 167.942C1940.5 170.748 1949.61 176.078 1951.32 177.277C1962.57 185.177 1976.91 189.463 1987 199C1968.06 205.377 1952.63 218.67 1934 226C1933.77 219.636 1933 213.391 1933 207L1933 194C1933.01 156.819 1927.44 198.502 1928.04 214C1928.15 216.735 1931.05 224.81 1928.18 226.593C1925.03 228.547 1913.52 216.758 1910 215.257C1889.76 206.636 1876.03 213.855 1856 210C1859.37 215.305 1887.59 220.942 1894 220C1890.8 216.368 1885.61 216.408 1882 213C1905.29 213.096 1917.26 228.409 1935 240.383C1956.08 254.614 1978.71 266.234 1998 283.206C2006.13 290.357 2019.46 309.787 2029.41 312.904C2032.75 313.949 2036.06 300.419 2036.91 298C2042.91 280.758 2038.35 265.29 2050.72 250.32C2060.95 237.938 2069.51 223.243 2084.14 215.386C2086.94 213.882 2103.27 212.71 2103.68 210.737C2104.27 207.876 2093 201.773 2091 199.916C2077.92 187.753 2062.65 177.402 2050.04 164.952C2042.65 157.659 2033.04 150.228 2026.91 141.922C2008.79 117.372 2016.24 90.3826 2018 63C2006.53 67.8147 1995.88 100.637 1987.91 111.524C1968.24 138.396 1939.37 162.681 1912 181.31C1902.4 187.841 1876.63 195.788 1872 206M1494 205C1499.17 211.251 1510.02 210.816 1517 214.927C1546.64 232.392 1601.31 254.928 1603 296C1610.81 290.373 1613.45 268.24 1617.3 259C1629.74 229.102 1661.83 185.306 1699 188C1697.23 181.337 1685.77 181.22 1680 178.816C1662.75 171.631 1647.88 163.109 1633.32 151.285C1616.37 137.52 1607.82 110.816 1610.86 89C1612.04 80.531 1617.82 73.5132 1619 65C1609.47 69.3542 1599.69 96.2573 1592.89 105.521C1571.77 134.277 1546.63 165.705 1518.04 187.137C1508.59 194.226 1505.97 201.201 1494 205M1161 136C1163.89 133.167 1165.92 131.536 1170 131L1167 138C1178.06 141.387 1207.87 153.257 1218.34 144.953C1223.01 141.248 1223.55 130.374 1225.47 125C1227.55 119.166 1235.72 107.234 1230.5 101.847C1222.69 93.7935 1189.97 79.3076 1179.76 88.0239C1172.97 93.8191 1171.26 107.047 1168.1 115C1165.41 121.797 1159.72 128.458 1161 136M816 157C812.335 152.917 807.159 150.01 804.619 144.992C796.689 129.323 809.026 116.084 821.438 109.369C842.803 97.8125 879.773 99.769 904 95.7578C912.55 94.3423 934.427 96.2029 937 86C916.664 88.3113 896.554 94.4443 876 96.6799C855.465 98.9136 830.415 97.7278 812 108.457C796.297 117.606 789.082 160.392 816 157M1166 252C1172.77 247.669 1169.3 240.209 1162 238.725C1154.75 237.253 1145.23 243.401 1140.98 248.76C1130.85 261.516 1140.35 284.216 1157 284.756C1170.54 285.196 1185.87 269.861 1193.3 260C1209.44 238.564 1216.87 206.933 1226.44 182C1232.14 167.133 1241.48 154.243 1248.26 140C1255.53 124.74 1264.64 99.7666 1281 92C1280.81 111.27 1262.51 129.676 1254.93 147C1238.24 185.1 1236.64 234.785 1210.96 267.999C1200.85 281.084 1184.38 296.661 1167 297C1177.18 311.787 1210.83 276.049 1216.49 267.922C1243.94 228.502 1243.51 174.894 1267.12 133C1272.16 124.047 1291.67 98.7236 1284.18 87.8723C1281.61 84.1577 1274.94 90.3916 1273.08 92.1582C1264.56 100.26 1258.73 110.869 1253.01 121C1240.52 143.111 1227.57 166.006 1219.08 190C1211.57 211.204 1204.72 239.858 1190.37 257.562C1179.71 270.72 1137.52 296.769 1141.97 259C1143.38 247.084 1163.14 234.489 1166 252M114 87C119.541 109.514 123.756 130.366 115.924 153C112.054 164.184 94.1568 182.953 88 164C75.3365 172.783 99.0393 177.416 106.959 172.275C126.216 159.776 136.413 100.706 114 87M1630 156C1610.74 161.85 1580.43 154.199 1561 150C1569.26 134.477 1585.5 121.662 1595.73 107C1597.12 105.012 1603.38 92.7051 1606.36 94.5439C1609.8 96.6633 1608.32 110.132 1609.08 114C1612.8 132.976 1621.38 140.228 1630 156M1181 97C1181.18 98.282 1181.19 101.544 1183.26 101.492C1186.39 101.414 1187.22 95.5569 1190.35 94.509C1196.87 92.3188 1221.95 97.8228 1225.54 104.001C1227.43 107.272 1220.98 116.544 1219.79 120C1217.63 126.237 1216.27 137.271 1209.86 140.721C1204.11 143.817 1196.38 139.049 1191 137.135C1184.66 134.878 1176.46 134.776 1171.58 129.365C1166.05 123.228 1175.44 101.333 1181 97M1286 167C1292.78 164.122 1291.55 153.122 1294.9 147.002C1300.43 136.904 1312.66 125.845 1322 119.28C1334.94 110.188 1347.33 104.187 1363 101.758C1365.32 101.398 1378.48 98.884 1377.79 103.403C1376.51 111.942 1361.14 115.983 1355.08 120.063C1336.01 132.883 1326.15 152.223 1310 168C1324.29 173.34 1334.2 142.101 1342.3 134.545C1351.52 125.936 1380.37 116.368 1383.33 104.025C1386.74 89.7864 1354.56 98.8501 1349 100.684C1322.83 109.315 1284.23 136.724 1286 167M451 201C475.194 214.566 485.137 272.559 459.761 290.912C450.224 297.809 438.416 290.933 428 292C463.694 330.834 494.1 255.698 514 234C512.951 245.325 515.863 255.754 515.992 267C516.01 268.53 515.156 278.235 518.68 276.894C525.501 274.299 518.271 245.872 518.355 240C518.865 204.545 532.984 168.618 534.921 132C535.789 115.595 521.514 88.5654 503.346 107.316C485.969 125.252 510.294 177.239 512.677 199C516.474 233.672 491.007 267.262 466 290C478.091 267.643 482.857 237.572 471.594 214.007C468.081 206.656 457.548 202.969 455.822 194.957C452.378 178.972 462.46 159.115 460.68 142C459.055 126.384 460.478 116.624 448 105.099C445.213 102.525 438.856 96.561 434.531 98.5654C431.421 100.007 452.2 115.32 454.635 120C462.413 134.949 458.836 178.716 449.539 192.635C443.042 202.361 426.691 196.362 423.505 213.997C422.001 222.325 431.092 226.652 437.992 222.924C445.547 218.843 450.414 209.243 451 201M521 107C530.465 111.071 530.251 124.315 529.96 133C529.133 157.622 527.321 187.992 518 211C512.021 193.351 511.595 171.498 507.876 153C505.663 141.987 500.301 131.584 502.322 120C506.701 94.9055 522.423 121.617 521 107M826.246 118.408C822.319 121.634 829.559 138.677 830.421 143C835.137 166.666 835.142 190.995 833.922 215C833.34 226.446 834.146 251.498 818.919 254.318C814.942 255.055 791.66 249.41 791.969 248.949C786.679 256.836 817.479 259.94 822.32 257.154C843.215 245.128 831.954 224.784 839.822 207.198C843.456 199.075 868.769 188.291 877 184.283C878.973 183.322 899.646 174.217 895.894 171.562C893.03 169.536 885.385 176.184 883 177.538C875.955 181.535 847.931 200.699 840.72 197.999C837.218 196.687 840.072 184.127 839.921 181C839.127 164.536 835.891 148.06 832.453 132C832.068 130.202 831.293 114.261 826.246 118.408M151 120C152.033 130.409 155.77 139.161 154.782 150C152.095 179.469 138.109 209.603 138.538 239C139.062 274.937 167.18 262.44 181 241C168.689 241.119 166.135 262.882 151.027 258.498C137.559 254.59 143.959 231.331 145.585 222C149.723 198.26 155.944 174.981 158.68 151C159.946 139.902 160.469 127.525 151 120M1558.28 153.96C1570.12 149.375 1596.49 160 1610 160C1612.74 160 1624 158.572 1624.68 162.548C1625.39 166.727 1613.68 174.354 1611 177.007C1600.24 187.649 1588.03 196.047 1577.08 206.323C1572.68 210.444 1568.43 219.169 1562.81 221.456C1557.59 223.58 1559 209.581 1558.6 207C1556.47 193.225 1557.53 179.815 1555.48 166C1554.94 162.392 1553.91 155.656 1558.28 153.96M1293 154C1295.03 160.866 1300.33 167.218 1308 166C1304.41 161.574 1298.66 155.2 1293 154M1637 160C1631.18 180.017 1619.46 206.255 1621 227C1601.88 223.113 1587.62 223 1568 223C1574.3 206.486 1608.44 179.679 1623.89 170.694C1629.57 167.395 1629.88 161.189 1637 160M1685 183C1679.14 191.418 1665.58 194.137 1657.44 200.193C1639.11 213.826 1626.71 230.607 1617.2 251C1615.22 255.257 1608.83 279.997 1604.13 279.997C1600.37 279.997 1587.29 256.678 1582.86 253.021C1561.27 235.202 1533.06 214.236 1506 206C1516.97 193.721 1535.91 168.559 1551 163C1551.87 178.584 1554.08 194.259 1554.96 210C1555.2 214.24 1554.75 224.962 1558.8 227.622C1565.79 232.214 1588.46 225.154 1597 225.156C1601.83 225.157 1620.12 232.513 1622.74 229.983C1628.7 224.243 1634.16 190.858 1635.52 182C1636.22 177.449 1635.88 166.089 1640.74 163.543C1643.57 162.062 1649.61 168.564 1652 169.901C1661.92 175.437 1673.76 181.062 1685 183M1997 197C2011.65 191.771 2030.28 167.065 2045.92 170.287C2052.17 171.574 2047.45 216.457 2040.54 220.697C2032.97 225.344 2017.93 212.321 2012 208.535C2006.86 205.253 2000.43 202.127 1997 197M2093 208C2072.18 211.281 2043.7 244.386 2037.86 264C2033.64 278.153 2035.01 292.06 2029 306C2015.13 294.573 2002.46 281.472 1988.13 270.625C1978.71 263.49 1965.22 257.368 1958 248C1973.66 241.459 1991.19 240.321 2008 241.08C2015.75 241.43 2029.68 246.054 2036.65 241.74C2047.27 235.175 2049.93 203.209 2050 192C2050.02 188.957 2050.12 174.778 2054.5 174.622C2061.91 174.358 2072.5 188.396 2078 192.62C2083.66 196.968 2089.29 201.842 2093 208M570 249C586.311 238.116 593.292 213.093 588.939 195C587.383 188.532 575.282 169.664 566.674 177.829C564.749 179.656 565.188 182.592 567.335 184.043C576.509 190.245 583.137 185.631 586.165 201C590.141 221.186 573.876 231.059 570 249M571 179C570.518 181.364 570.364 181.518 568 182C568.899 179.876 568.876 179.899 571 179M909 186C903.531 207.611 899.805 229.249 892.739 250.92C890.663 257.287 878.752 250.971 879.316 254.125C880.405 260.225 893.479 260.074 897.344 257.506C905.672 251.972 911.8 239.701 912 230L915 230C915 236.482 913.729 244.57 918.424 249.793C925.317 257.463 943.516 250.433 947 242C940.169 243.248 933.203 250.07 926.051 249.016C918.575 247.915 919.108 237.543 918.242 232C915.882 216.887 921.617 197.182 909 186M911 196C918.851 210.493 909.325 241.415 897 251C898.757 234.207 905.607 211.912 911 196M186 205C194.503 207.152 208.462 207.858 217 206C211.606 198.839 191.472 198.335 186 205M448 200C447.306 203.215 446.235 206.077 444.701 209.001C430.928 235.25 421.147 200.124 448 200M1990 201.534C1998.57 199.964 2030.62 220.06 2037.15 226.211C2040.08 228.966 2037.55 238.351 2033.72 239.362C2020.88 242.751 2002.5 237.583 1989 238.04C1976.75 238.455 1965.02 244.361 1953 244.862C1948.38 245.054 1938.66 239.934 1935.64 236.438C1931.26 231.365 1941.67 227.028 1945 225.474C1959.78 218.566 1973.57 204.545 1990 201.534M245 210C248.027 216.783 271.811 215.608 270.677 210.152C270.252 208.108 248.781 210.811 245 210M170 241L175 241C173.08 238.867 172.159 239.247 170 241M1247 285C1253.4 277.814 1254.06 264.381 1265.02 261.637C1279.17 258.093 1283.4 270.803 1294.14 276.216C1306.3 282.348 1321.07 274.448 1331 267.247C1333.89 265.155 1347 255.138 1345.25 250.969C1343.9 247.764 1337.66 255.171 1336.86 256.003C1329.77 263.376 1318.53 272.458 1308 273.756C1285.42 276.538 1268.99 238.208 1249.35 271C1246.49 275.765 1245.87 279.616 1247 285M580 316C584.539 326.742 638.781 329.874 647.152 322.735C652.01 318.591 656.16 292.953 648.68 289.761C649.579 290.145 646.584 319.168 638.989 322.184C625.109 327.697 595.501 316.145 580 316M458 297C454.554 299.588 451.236 299.911 447 300L447 298C450.718 297.929 454.318 297.488 458 297M93 453C104.877 443.765 107.511 428.569 125 423.873C127.985 423.072 141.043 425.428 141.677 421.643C142.847 414.656 130.144 416.646 127 417.742C114.18 422.211 103.928 431.16 95 441C96.2488 425.464 107.61 403.585 126 408C128.324 402.847 133.899 402.727 139 403C135.188 392.624 113.365 402.73 107.019 407.637C92.0581 419.206 93.0799 436.306 93 453M2137 405C2140.31 405.038 2142.9 405.856 2146 407C2144.29 399.578 2128.98 397.055 2122 398.415C2108.11 401.125 2089 423.947 2094.04 438.971C2096.69 446.892 2113.29 449.448 2120 446.426C2135.28 439.548 2145.58 419.154 2137 405M2126 405L2125 406L2126 405M2116 419C2113.85 423.678 2111.21 428.93 2107 432C2108.64 426.547 2111.55 422.521 2116 419M1531 510C1532 500.797 1526.75 490.723 1527.02 481C1527.67 457.841 1549.31 421.316 1575 428C1567.7 411.797 1549.63 427.042 1542.82 436C1527.54 456.127 1515.18 486.841 1531 510M2128 420C2126.16 426.195 2122.26 429.578 2116 431C2118.48 425.474 2122.37 422.147 2128 420M1918 522C1954.04 515.06 1992.44 500.132 2029 498.08C2038.3 497.559 2066.74 499.079 2071.17 488.812C2074.44 481.246 2066.15 475.362 2061 471.57C2046.45 460.863 2030.51 452.428 2016.05 441.635C2013.38 439.648 2003.73 425.897 2001.22 426.438C1998.04 427.125 1991.21 449.172 1988.2 453.081C1973.76 471.857 1957.55 486.463 1940 502.098C1933.81 507.614 1921.01 514.437 1918 522M1528 695C1521.75 684.902 1506.11 684.656 1499.3 674.895C1486.78 656.931 1506.1 618.07 1529 621C1525.24 612.189 1515.59 621.739 1511.06 612.962C1500.98 593.434 1509.28 555.599 1529 544.744C1537.16 540.252 1545.52 544.112 1554 542C1550.64 539.887 1546.84 539.832 1543 539C1562.96 521.312 1583.6 509.866 1610 507.861C1614.92 507.488 1628.34 501.268 1631.66 506.509C1635.73 512.929 1629.55 534.203 1629.07 542C1626.97 575.805 1627.95 607.392 1628 641C1620.37 639.932 1597.58 641.772 1593 648C1596.71 647.883 1600.3 647.551 1604 648C1595.15 653.326 1576.11 651.557 1573 663C1602.32 657.385 1626.59 647.4 1657 646.882C1659.89 646.832 1682.36 647.202 1682.36 645.077C1682.36 644.345 1652.77 641.958 1649 638C1645.9 642.245 1635.64 645.813 1633.14 638.719C1622.27 607.873 1632.56 572.267 1633.97 541C1634.3 533.645 1633.73 511.135 1639.81 506.26C1653.28 495.468 1688.62 514.308 1705 512C1689.36 489.364 1660.2 475.825 1643.19 453C1640.3 449.121 1632.77 426.277 1633.88 426.433C1627.77 425.577 1628.14 438.981 1626.23 443C1617.75 460.771 1605.83 474.243 1592 487.997C1576.48 503.428 1559.01 519.423 1542 533.174C1526.74 545.505 1513.65 549.249 1507.06 570C1503.69 580.61 1501.2 592.892 1503.6 604C1504.77 609.389 1511.79 616.575 1510.34 621.959C1507.95 630.836 1496.39 639.715 1492.49 649C1482.27 673.377 1506.07 690.273 1528 695M1281 433C1281.7 475.373 1237.62 519.958 1209.08 546.904C1201.32 554.224 1171.51 573.486 1192 580C1190.83 577.274 1189.62 576.391 1187 575C1217.19 554.018 1240.36 556.131 1275 550C1266.47 577.539 1261.55 607.056 1261 636C1268.16 632.766 1266.6 619.721 1267.22 613C1268.66 597.205 1268.08 565.252 1280.54 553.502C1285.42 548.902 1295.23 552.263 1301 553.401C1312.14 555.595 1323.6 556.206 1333.99 561.182C1340.31 564.206 1344.02 570.194 1351 572C1349.41 563.778 1340.64 559.415 1335.9 552.999C1322.49 534.849 1300.64 513.376 1293.25 491.99C1289.45 480.993 1283.79 466.732 1283.86 455C1283.89 450.372 1287.48 436.418 1293 444C1298.13 427.627 1287.92 435.078 1281 433M1715 503C1742.86 498.438 1747.06 472.54 1739.11 450C1737.27 444.787 1731.45 424.6 1722.65 430.594C1719.55 432.706 1728.81 437.834 1730.15 440.037C1735.43 448.734 1741.26 462.632 1740.15 473C1738.32 490.064 1722.68 491.334 1715 503M660 501C675.925 494.106 694.247 480.568 695.974 462C696.758 453.571 691.382 422.011 676.368 431.391C672.353 433.9 672.539 442.153 676.494 444.718C680.412 447.26 685.495 442.203 688.852 445.627C710.098 467.296 665.316 487.725 660 501M2112.67 433.667C2112.72 433.722 2112.78 434.778 2112.33 434.333C2112.28 434.278 2112.22 433.222 2112.67 433.667M2099 434C2100.85 436.963 2102.19 439.598 2103 443C2098.57 441.307 2096.44 438.401 2099 434M680.214 436.321C684.384 435.719 685.313 441.985 680.997 442.729C676.796 443.452 676.454 436.864 680.214 436.321M1933 515C1944.98 494.443 1972.2 477.674 1987.99 459C1991.61 454.724 1998.64 438.267 2003.48 436.761C2006.87 435.707 2015.14 444.586 2018 446.557C2031.39 455.79 2045.67 464.064 2058 474.721C2060.63 476.993 2069.62 483.008 2068.24 487.259C2066.19 493.597 2038.64 493.489 2033 493.439C2000.52 493.148 1965.06 509.597 1933 515M2122 435.333C2122.89 435.333 2122.89 436.667 2122 436.667C2121.11 436.667 2121.11 435.333 2122 435.333M809 445C813.477 466.307 790.991 475.141 785 492C800.025 485.038 815.892 463.36 813.655 446.003C812.909 440.21 806.327 434.206 802.531 442.117C799.995 447.403 806.346 446.898 809 445M2113 443C2110.91 442.594 2110.98 442.784 2110 441L2113 443M654 458L652 451C671.155 469.41 640.737 479.935 637 495C648.338 488.481 681.673 450.256 650.024 444.884C639.596 443.114 644.679 456.987 654 458M1692 507C1679.76 508.361 1667.22 501.622 1655 500.321C1626.78 497.318 1585.86 501.082 1564 520C1565.52 509.441 1587.62 497.577 1594.96 489.999C1604.5 480.148 1613.01 470.141 1621.06 459.04C1623.24 456.031 1626.94 446.914 1630.49 445.761C1634.83 444.352 1642.99 458.156 1645.46 461C1659.92 477.699 1677.33 490.836 1692 507M648.667 449.667C648.722 449.722 648.778 450.778 648.333 450.333C648.278 450.278 648.222 449.222 648.667 449.667M128 609C129.221 600.44 119.455 595.104 116.08 588C108.441 571.921 91.8543 536.663 98.4991 519C104.198 503.851 116.448 491.981 128 481.08C156.54 454.149 214.989 440.709 246.559 470.362C277.392 499.322 277.207 579.571 241 605.403C226.534 615.724 204.26 601.68 192 593.525C161.82 573.449 137.579 545.263 165.143 510C199.587 465.935 265.092 527.38 220.856 560.315C211.205 567.499 184.262 554.972 186.59 542C188.966 528.754 205.367 528.94 211 539L199 536C202.089 541.611 216.233 546.841 214.13 535.964C211.11 520.348 186.841 525.528 182.169 537.003C174.8 555.103 211.277 576.012 224.74 562.794C258.914 529.24 219.062 467.585 176 493.164C150.377 508.384 139.002 544.522 155.772 569.922C164.011 582.401 176.995 588.185 188.864 596.216C199.974 603.733 216.025 614.016 230 613.538C249.163 612.883 258.159 592.446 264.101 577C277.753 541.51 280.006 483.082 242 461.106C194.489 433.635 112.602 462.256 93.778 515C84.6094 540.691 109.813 592.306 128 609M973 491C982.018 492.566 998.145 480.321 998.555 471C998.69 467.938 994.629 456.423 989.844 458.969C986.968 460.5 995.037 470.128 993.391 473.981C990.094 481.7 978.96 485.535 973 491M1281 458C1286.67 500.287 1319.35 520.026 1333 557C1293.34 539.624 1245.21 547.044 1205 557C1212.26 543.439 1229.32 532.242 1239.92 521C1255.68 504.285 1271.32 479.706 1279 458L1281 458M457 643C451.433 639.824 441.722 646.411 448.306 651.54C468.201 667.037 478.904 645.621 484.414 630C496.136 596.774 491 557.737 491 523C491 519.094 491.597 482.056 486.615 484.106C483.274 485.481 485.026 497.192 485.32 500C487.074 516.711 487 533.202 487 550C487 575.802 488.182 603.133 480.216 628C478.034 634.809 475.069 648.365 467.761 651.482C461.9 653.983 444.287 648.49 457 643M888 568C873.968 552.938 823.383 542.787 823.508 578C823.572 596.262 836.738 608.307 851 617.095C854.639 619.337 863.442 620.351 865.681 623.898C869.532 629.998 858.765 645.219 858 652C865.992 648.44 867.255 637.362 870.222 630.019C878.606 609.268 885.078 586.739 891.998 565C894.994 555.587 895.016 536.5 908 539C904.059 526.437 903.591 524.106 917 522C911.469 510.668 959.167 494.504 967.083 514C968.643 517.84 965.43 522.059 965 526C967.631 524.302 969.66 522.079 972 520L972 525C982.81 518.034 966.999 502.951 959 500.878C940.164 495.997 925.505 503.024 909 511C909.948 508.003 920.073 487.406 914.756 486.323C911.202 485.599 907.895 503.216 907 506C900.613 525.866 889.311 546.634 888 568M1630 506C1622.85 510.107 1627.88 513.807 1630 506M1997 516C2006.24 514.67 2001.2 538.053 2000.93 544C1999.86 567.803 2001.07 591.233 1998.33 615C1997.44 622.701 1998.98 633.489 1993.44 639.735C1982.83 651.69 1952.24 643.533 1945 661C1963.17 660.116 1981.51 654.396 2000 654.019C2002.04 653.977 2017.04 654.714 2014.89 649.661C2013.72 646.899 2005.17 650.717 2003 650.896C1990.4 651.933 1977.64 653.552 1965 654C1973.74 648.918 1992.21 648.772 1998.07 640.757C2002.99 634.024 2001.47 621.89 2002.22 614C2004.37 591.254 2002.55 568.715 2004.14 546C2004.81 536.373 2009.73 520.523 2006.48 511.347C2004.45 505.607 1998.21 513.822 1997 516M413 574C410.528 555.496 427.576 517.771 450.922 519.362C457.365 519.801 461.456 526.311 466 530C468.623 518.025 453.173 514.388 444 516.706C429.385 520.399 393.832 560.586 413 574M1676 598C1694.12 597.833 1710.72 560.776 1715.18 546C1716.44 541.807 1722.71 527.505 1717.47 524.544C1715.07 523.189 1712.21 540.32 1711.28 543C1703.25 566.12 1688.66 578.436 1676 598M501 569C501.688 539.865 538.796 525.735 562 539.976C571.004 545.502 577.086 560.425 587.041 563.271C597.027 566.126 620.464 552.564 623 543C613.146 547.857 602.729 558.525 591.008 558.591C580.659 558.649 574.093 540.181 565 535.72C550.567 528.638 525.291 527.966 513.008 539.158C506.85 544.769 490.465 561.703 501 569M884 573C883.522 579.866 881.042 586.536 878.768 593C876.865 598.409 873.927 614.547 869.221 617.644C864.343 620.854 854.109 614.21 850.32 611.467C838.889 603.191 822.726 574.155 842.029 564.228C849.547 560.363 867.217 557.22 874.927 561.088C881.37 564.32 876.155 575.595 884 573M832 569C831.448 574.395 830.106 579.548 830 585L828 585C827.645 578.594 827.454 574.004 832 569M1702 668C1717.7 662.829 1727.81 630.915 1729.66 616C1730.09 612.551 1730.12 595.003 1724.69 595.003C1719.88 595.003 1725.07 609.824 1724.92 613C1723.86 634.38 1709.96 649.479 1702 668M899 597C899.633 600.206 900.509 603.09 902 606C903.096 602.145 902.183 599.404 899 597M867 615L868 616L867 615M1031.92 623.804C1020.04 623.657 1006.92 629.237 995 630.675C955.362 635.456 916.005 641.595 877 650.302C864.963 652.989 850.54 653.654 839.217 658.479C837.488 659.216 825.26 663.743 828.951 666.722C831.89 669.093 838.263 663.372 841.008 662.282C851.417 658.147 863.898 655.567 875 654.206C910.975 649.794 947.145 641.86 983 636.082C998.722 633.548 1019.24 634.837 1033.65 627.672C1036.83 626.087 1034.61 623.838 1031.92 623.804M249 700C267.871 684.568 272.643 720.132 289 716C286.465 709.143 291.898 706.211 298 706L296 700C298.675 700.131 307.508 703.839 308.447 700.474C310.388 693.518 295.449 683.984 292.379 678C284.473 662.59 288.85 651.176 289 635C279.092 639 276.413 663.929 269.378 672.997C263.007 681.209 251.721 683.461 245.966 690.39C243.726 693.088 247.656 697.655 249 700M494 655C494.914 699.269 577.045 669.611 579 636C572.248 638.914 570.771 648.588 565.734 653.763C552.856 666.994 525.981 677.496 508.008 670.457C499.784 667.236 500.744 658.047 494 655M1200 638.481C1197.57 638.686 1180.64 639.292 1180.64 641.258C1180.64 646.056 1208.11 644 1212 644C1246.09 644 1279.99 645.291 1314 645.981C1320.3 646.109 1348.94 648.867 1352.24 642.5C1352.33 642.332 1320.44 643.001 1316 643C1277.76 642.989 1238.11 635.263 1200 638.481M281 663C285.191 678.977 281.203 689.206 282 704C259.259 691.893 269.266 679.542 281 663M291 684.333C291.889 684.333 291.889 685.667 291 685.667C290.111 685.667 290.111 684.333 291 684.333M287 695.411C289.345 695.071 289.015 698.385 287 698.703C284.666 699.07 284.962 695.707 287 695.411M625 768C618.235 757.624 605.761 765.224 598 770.65C579.56 783.544 566.697 806.227 561.701 828C560.837 831.761 554.693 854.357 562.701 854.357C562.687 854.357 567.612 823.572 568.754 820C576.604 795.444 596.221 765.333 625 768M650 810C647.966 803.944 641.241 798.862 643.255 792C644.974 786.141 656.404 767.842 659 781C663.729 776.509 661.807 765.014 653.999 770.538C644.345 777.369 628.048 808.45 650 810M467 1017C481.233 1010.99 459.267 997.629 449 1002.16C415.732 1016.82 443.701 1063.54 473 1057.44C502.788 1051.24 498.712 1024.4 512 1005C514.861 1017.07 523.074 1029.15 531.867 1037.68C536.8 1042.46 546.689 1048.57 546 1056C556.133 1054.68 561.671 1064.35 572 1063.91C584.577 1063.38 591.76 1055.13 603 1052.45C635.867 1044.62 676.401 1043.12 678 998C673.024 1003.99 672.521 1012.51 667.9 1019C654.959 1037.17 628.921 1051.68 606 1049C620.829 1036.14 638.997 1017.92 640.879 997C643.004 973.372 614.465 953.549 592 963.502C560.608 977.409 524.017 1031.29 573 1048.82C579.783 1051.25 586.913 1051 594 1051C569.053 1078.92 532.182 1033.9 520.169 1013C508.262 992.283 513.964 964.111 514.911 941.007C516.366 905.494 515.413 865.317 511.438 830C509.776 815.228 507.636 781.953 529 787C508.457 761.848 507.427 819.854 508.136 830C511.379 876.382 511.113 923.767 509.048 970C508.058 992.159 508.695 1019.19 494.513 1037.98C488.071 1046.52 475.443 1055.64 464 1053.04C449.085 1049.65 430.766 1030.53 440.785 1014.86C446.814 1005.44 470.157 1000.11 467 1017M677 781C671.879 802.229 628.273 838.649 604.429 824.937C601.048 822.992 609.28 810.539 605.205 811.323C600.902 812.151 593.463 829.193 590.717 833C577.766 850.956 561.674 861.953 542.136 871.775C536.964 874.375 520.427 875.842 519.323 882.903C518.379 888.945 532.537 879.862 534 879.185C548.53 872.453 564.13 866.846 576.077 855.771C585.759 846.795 592 834.414 602 826C605.303 834.338 623.517 829.241 630 827.157C639.179 824.206 648.803 816.448 658 814.831C675.334 811.785 694.47 820.296 706 798C695.561 799.165 686.988 810.28 676 813.153C673.157 813.897 664.533 814.39 664.519 809.653C664.494 801.118 678.768 791.471 680 781L677 781M61 807C66.9869 792.791 96.3153 792.217 92.9932 809.96C91.5013 817.927 66.6534 798.296 59.1382 813.065C56.1801 818.878 72.5382 836.651 74 828C91.3355 830.092 83.416 845.57 78 855C94.6668 851.133 84.9443 836.104 86.7575 826.323C89.1239 813.558 105.519 808.151 87.9898 795.963C79.108 789.788 53.6614 790.638 61 807M816 805C817.663 812.802 844.971 810.093 852 816C838.636 815.199 824.788 811.278 812 811.048C773.385 810.354 758.651 854.607 771.501 886C778.616 903.382 793.448 913.988 794.849 934C797.26 968.458 773.059 998.763 795.837 1032C810.389 1053.23 858.359 1084.53 878 1052C853.597 1058.34 862.673 1035.06 879 1028.56C896.124 1021.75 904.071 1037.36 920 1036.6C936.035 1035.84 944.656 1024.1 959 1022.25C978.89 1019.68 1001.5 1028.69 1021 1032C1017.17 1009.94 1021.51 991.115 1006.96 971.08C994.909 954.49 971.57 949.944 966.859 928C964.798 918.401 965.765 908.812 971.865 901.003C977.029 894.391 987.336 888.375 986 879C980.448 883.781 975.116 889.416 970.368 895C942.072 928.278 981.956 951.516 1002.65 972.516C1009.66 979.63 1025.64 1015.69 1013.5 1023.72C1007.76 1027.52 970.444 1015.82 978 1014C970.79 1008.55 956.739 1019.83 953.182 1015.96C948.919 1011.33 952.968 994.953 950.069 988.001C938.2 959.533 908.221 969.746 889 977C905.194 954.74 890.423 924.949 904.045 901C918.397 875.764 947.897 868.887 972.136 857.495C976.552 855.419 996.861 848.67 1000.66 852.998C1005.74 858.787 993.849 885.533 993 893C998.374 886.24 1012.72 853.03 1001.89 848.406C991.95 844.16 975.145 852.786 966 856.513C937.371 868.182 904.177 878.784 896.446 913C893.538 925.871 894.007 938.905 894.073 952C894.089 955.171 893.971 962.854 889.374 963.074C880.068 963.519 845.648 947.978 853.823 936.079C856.4 932.328 884.22 915.141 880.776 911.219C874.144 903.665 837.728 917.544 829 919.173C825.047 919.911 815.766 923.89 813.305 918.569C810.637 912.803 827.53 897.105 831.225 893C846.842 875.649 873.126 852.116 869 826C880.599 834.743 891.125 845.67 906 849.147C927.798 854.242 944.071 844.247 964.001 842.538C971.796 841.869 980.792 845.967 989 846C975.15 828.304 945.729 846.178 929 845.993C885.058 845.505 861.214 805.001 816 805M1545 805L1545 810C1547.57 808.102 1547.75 806.768 1545 805M71.0002 810.522C80.0168 808.81 90.7458 820.983 77.989 823.367C67.0465 825.412 54.9779 813.562 71.0002 810.522M1516 1011C1503.3 1017.91 1516.63 1016.84 1514 1027C1528.44 1021.83 1536.58 1025.03 1552 1029.45C1557.79 1031.11 1568.99 1034.9 1574.28 1030.18C1578.75 1026.19 1580.25 1016.47 1582.4 1011C1589.93 991.778 1595.72 970.562 1597.9 950C1598.37 945.631 1598.67 924.046 1604.28 923.991C1614.09 923.895 1623.43 942.692 1629.22 948.992C1651.24 972.951 1674.4 994.844 1699 1016.34C1704.91 1021.5 1723.04 1041.3 1731.92 1038.38C1738.35 1036.27 1735 1023.17 1735 1018C1735 1000.26 1738.8 966.988 1727.35 952.46C1720.63 943.928 1706 942.602 1696 940.554C1676.95 936.654 1656.53 932.596 1637 928.065C1628.44 926.078 1613.83 918.858 1606 920C1628.56 894.77 1668.66 880.153 1697.98 863.199C1703.14 860.215 1729.75 852.019 1730.68 847.03C1731.45 842.875 1706.8 853.475 1704 854.858C1677.95 867.739 1654.12 885.279 1628 898C1644.32 879.466 1665.69 861.989 1684 845.129C1689.06 840.465 1696.84 828.658 1703.22 826.546C1711.3 823.874 1729.56 841.098 1735 846.074C1735.97 846.959 1742.69 854.048 1743.81 850.369C1746 843.188 1710.18 818.398 1703.34 820.664C1696.89 822.8 1690.02 834.199 1685 838.864C1667.28 855.349 1650 872.01 1632.01 888.199C1625.92 893.677 1617.46 905.718 1609.02 907.28C1601.21 908.723 1589.77 884.948 1587.01 879C1579.94 863.732 1564.42 818.475 1547.04 813.391C1540.26 811.407 1517.05 826.743 1512.16 832.019C1508.9 835.521 1503.08 841.704 1505.36 846.951C1509.32 856.037 1524.75 860.96 1533 864.808C1549.43 872.473 1560.17 885.535 1575.01 894.82C1582.56 899.55 1599.28 910.332 1595.16 921C1584.69 948.139 1553.73 969.751 1535.62 992C1532.3 996.078 1518.1 1019.54 1516 1011M815 817C810.952 818.15 806.946 819.345 803 820.813L795 823.864C771.64 832.917 804.755 806.286 815 817M875 913C869.156 921.85 845.824 929.395 848.07 942C850.258 954.284 867.468 958.308 877 962.386C880.854 964.035 889.378 966.514 887.755 972.061C880.641 996.375 789.322 995.282 823.837 1035.91C827.629 1040.38 832.447 1044.25 837.04 1047.86C843.525 1052.97 849.685 1058.49 858 1060C853.698 1065.6 844.749 1060.09 839 1058.78C818.635 1054.16 802.695 1040.61 794.52 1021C781.192 989.037 803.948 958.696 798.221 927C792.998 898.095 761.814 880.813 771.581 848.001C778.348 825.266 840.054 808.175 860.852 822.166C871.848 829.563 861.467 849.173 856.304 857.007C845.202 873.853 830.926 887.852 818.155 903.331C815.4 906.67 804.959 916.254 808.766 921.055C815.732 929.841 837.888 919.971 847 918.897C856.443 917.784 865.693 914.828 875 913M1353 1005C1347.08 985.819 1328.99 1010.73 1340.03 1022.15C1354.33 1036.94 1373.57 1007.28 1362.44 994.613C1343.79 973.398 1306.98 999.162 1316.45 1024C1323.79 1043.25 1338.75 1045.32 1356 1050.46C1361.53 1052.1 1368.98 1056.94 1374.35 1052.46C1389.35 1039.95 1389.18 998.549 1382.57 982C1370.35 951.383 1338.43 943.374 1309 939.457C1297.72 937.954 1272.04 944.434 1270.23 927.997C1266.2 891.37 1302.96 851.368 1330.92 832.096C1346.55 821.327 1377.03 820.406 1388.68 839.008C1395.99 850.691 1394.26 875.709 1378.99 881.137C1372.79 883.343 1365.53 878.476 1360 876.26C1355.78 874.568 1349.62 873.86 1346.98 869.678C1336.61 853.247 1377.02 842.014 1378.29 862.58C1378.58 867.23 1362.67 860.771 1363 871C1370.06 867.068 1392.54 867.694 1377.79 853.316C1364.8 840.653 1331.87 849.7 1343.26 870.933C1346.66 877.265 1361.31 882.999 1368 885.013C1401.31 895.049 1405.05 837.494 1378.78 824.827C1337.95 805.137 1310.17 841.077 1289.45 870C1282.17 880.161 1272.39 888.903 1268.06 901C1264.52 910.873 1267.69 920.995 1265.72 930.952C1264.62 936.493 1258.86 939.063 1258.22 945.003C1256.01 965.579 1260.66 985.503 1256.54 1007C1252.02 1030.57 1232.26 1052.81 1206 1048.4C1194.78 1046.52 1179.66 1044.06 1170.11 1037.68C1167.89 1036.2 1160.55 1026.83 1165.52 1024.64C1171.01 1022.23 1187.81 1045.97 1196.62 1031.72C1205.72 1016.98 1179.02 1002.65 1167.19 1010.93C1153.37 1020.6 1159.24 1035.11 1171 1042.23C1186.07 1051.35 1213.42 1056.33 1230 1049.02C1280.35 1026.82 1239.81 939.023 1302 942.079C1332.28 943.567 1371.37 956.743 1380.28 989C1383.22 999.648 1385.19 1044.04 1370.69 1048.11C1342.08 1056.13 1297.28 1011.73 1335 992.743C1343.99 988.222 1363.32 992.261 1362.41 1005C1361.95 1011.54 1355.14 1024.31 1347.01 1021.19C1335.58 1016.8 1339.74 999.457 1353 1005M1549 820C1562.76 831.471 1570.09 854.214 1577.89 870C1585.95 886.289 1596.57 899.647 1606 915C1597.96 914.601 1590.35 901.419 1584 896.42C1570.47 885.775 1557.25 874.14 1542 865.925C1532.8 860.972 1517.02 856.745 1511.28 847.326C1503.62 834.738 1533.96 819.593 1543.67 823.047C1549.82 825.235 1546.14 835.696 1554 839C1551.74 833.446 1548.8 826.001 1549 820M272 858C271.127 853.037 267.572 848.156 268.333 843.003C269.601 834.41 284.372 827.225 291.783 831.919C303.705 839.469 311.631 855.765 309.799 869.981C306.7 894.026 285.07 843.709 271.019 874C267.243 882.14 265.858 902.529 276.127 906.938C283.24 909.993 296.265 894.315 295.844 907.004C295.326 922.607 265.042 942.361 252.232 928.415C236.48 911.265 262.315 909.162 273 911C264.223 897.965 239.368 904.697 244.132 922C250.379 944.691 276.164 936.734 288.992 925.697C302.708 913.896 294.551 906.463 298.388 893.019C300.562 885.399 310.108 881.777 312.912 874C318.801 857.668 305.287 829.253 288 825.647C271.246 822.152 250.384 853.08 272 858M1943 912C1915.41 916.536 1900.84 962.48 1935 969C1926.86 978.574 1907.5 1010.05 1930.04 1017.18C1938.73 1019.93 1950.66 1013.15 1959 1011C1951.99 1017.79 1937.79 1029.12 1937.77 1040C1937.74 1057.26 1967.75 1062.62 1980 1061.92C1989.34 1061.38 1992.97 1049.27 1999.07 1049.73C2018.18 1051.16 2041.8 1072.8 2060.95 1059.16C2079.75 1045.76 2056.32 1031.14 2061.46 1018.4C2066.53 1005.83 2080.74 1001.71 2079.58 985C2078.02 962.471 2056.48 960.346 2049.82 943.952C2044.9 931.83 2046.41 918.801 2039.83 905.999C2036.46 899.431 2025.77 894.637 2023.85 888.627C2021.98 882.806 2027.7 873.937 2026.48 867C2022.39 843.772 1997.2 829.234 1975 828.283C1960.1 827.645 1941.85 830.367 1931.32 842.097C1914.36 860.98 1921.42 899.442 1943 912M689 830C679.363 839.775 667.671 853.189 653.067 854.911C648.854 855.408 647.573 849.771 644.372 850.321C641.087 850.886 639.989 855.971 635.971 856.697C619.111 859.744 607.448 848.603 595 841C599.48 861.971 624.847 858.06 640.959 861.166C647.918 862.507 650.54 871.146 657.008 873.834C670.06 879.258 693.68 861.897 695 849C688.762 852.555 684.363 858.069 679 862.74C674.77 866.423 667.16 872.511 661.038 871.317C657.669 870.66 649.009 863.876 651.496 859.724C656.051 852.123 696.713 847.007 689 830M1571 831L1572 832L1571 831M1996 1040C1978.01 1047.74 1974.84 1027.41 1970.86 1014C1961.12 981.246 1954.99 942.696 1954 909C1951.5 910.585 1950.6 910.514 1949 908L1953 909C1952.13 901.156 1946.57 898.644 1946 908C1926.56 897.551 1918.86 862.513 1933.52 845.156C1942.93 834.012 1961.25 831.004 1975 832.237C1998.61 834.356 2038.4 857.71 2019.3 886.673C2015.65 892.196 1984.81 882.923 1994.33 900.979C2004.74 920.739 2013.1 894.079 2022.18 894.286C2037.63 894.637 2047.3 927.994 2046.15 939.831C2045.52 946.438 2009.88 936.615 2013.65 955.983C2018.52 980.982 2042.05 952.426 2048.86 951.917C2064.56 950.744 2075 976.851 2074.84 989C2074.74 996.331 2065.82 1018.03 2055.56 1014.24C2050.32 1012.29 2031.52 993.529 2026.32 1006C2024.02 1011.54 2038.31 1016.58 2042 1017.76C2056.19 1022.3 2067.41 1029.58 2063.55 1048C2058.8 1070.67 2024.81 1054.89 2012 1050.06C2005.99 1047.8 1997.67 1047.01 1996 1040M1258 960C1242.89 941.659 1204.29 952.776 1187.35 938.195C1169.73 923.024 1129.38 856.731 1175 847.486C1202.26 841.962 1217.62 878.028 1203.37 897.992C1193.89 911.266 1166.89 908.42 1170.14 888.28C1172 876.825 1199.57 883.542 1206 886C1201.62 874.416 1172.56 874.342 1165.97 884.269C1158.3 895.806 1178.55 911.814 1189 910.653C1231.94 905.879 1210.35 826.296 1169 844.71C1142.78 856.386 1148.5 891.242 1160.13 911C1178.19 941.702 1196.99 945.363 1229 953.151C1239.56 955.72 1246.66 960.949 1258 960M35 883L37 878C27.4733 881.87 35.1706 886.642 42 886.781C51.8236 886.98 68.5764 880.534 74.6759 872.676C85.1952 859.124 62.0863 841.453 50.3061 850.405C36.821 860.652 72.861 862.328 73.2099 863.198C79.0369 877.735 43.4477 883.371 35 883M276 857C281.533 856.644 286.706 855.794 290 851C284.738 851.423 279.271 852.606 276 857M69 857C62.9558 858.53 53.8691 859.758 51 853C58.0463 852.347 63.6432 851.573 69 857M125 963C141.432 970.621 150.163 964.099 167 963.402C184.224 962.689 203.265 967 221 967C207.998 985.947 227 978.23 240 981C237.859 983.54 236.129 986.265 234.262 989.009C232.887 991.03 231.391 992.955 229.941 994.922C216.976 1012.51 247.414 1003.15 253.193 1008.26C256.889 1011.53 249.92 1018.69 254.546 1023.58C261.226 1030.64 287.185 1035.41 297 1040C285.651 1018.77 252.4 1032.69 262 1006C257.702 1004.9 232.85 1004.32 231.541 1002.04C227.942 995.764 255.264 977.837 235.997 976.84C233.669 976.719 231.331 976.978 229.001 976.946C225.937 976.904 223.048 976.633 220 977C233.135 957.104 203.152 962.873 189 962.075C181.766 961.668 174.13 958.082 167 958.782C152.274 960.229 138.012 969.836 124.358 958.081C119.064 953.524 118.381 944.133 115.59 938C113.033 932.38 107.1 921.784 109.117 915.365C110.774 910.092 129.161 910.243 134 909.785C151.874 908.095 179.61 906.026 190.275 888.915C197.347 877.567 184.659 867.359 174 865.419C152.988 861.596 131.882 860.264 116.158 877.041C99.7939 894.499 93.7792 929.797 105.989 950.821C109.152 956.267 115.849 958.104 119.395 963.26C125.919 972.746 135.682 1000.47 133.137 1012C129.117 1030.2 105.177 1032.31 91 1028.89C88.8787 1028.38 75.7456 1022.94 76.4259 1028.1C77.1385 1033.5 87.1877 1033.14 91 1033.9C107.963 1037.28 122.205 1034.09 133.454 1020C144.758 1005.84 128.793 978.383 125 963M144 866.34C154.285 865.043 184.088 866.916 187.778 879.021C192.16 893.393 162.874 902.365 153 903.659C144.99 904.708 114.775 911.657 108.947 906.74C104.883 903.312 109.128 894.137 111.119 890.562C118.208 877.831 129.138 868.214 144 866.34M281.304 867.12C291.352 864.242 304.168 884.123 293.849 888.128C281.255 893.016 266.047 871.488 281.304 867.12M284 891C281.619 891.391 279.412 891.185 277 891C279.704 889.528 281.24 889.655 284 891M274 892C278.528 894.332 286.843 891.927 290.03 894.482C294.699 898.224 268.396 912.644 274 892M2000.51 892.822C2010.52 887.298 2019.87 897.039 2007.57 903.711C2001.74 906.876 1995.11 895.802 2000.51 892.822M1953 970C1947.04 960.784 1931.86 967.907 1923.11 959.72C1910.3 947.736 1925.78 904.427 1944.76 919.309C1955.21 927.506 1954.33 951.087 1955.99 963C1957.27 972.125 1971.43 998.441 1963.7 1006.74C1961.04 1009.6 1949.97 1009.71 1946 1010.76C1941.77 1011.87 1936.46 1014.42 1932.02 1013.41C1922.14 1011.16 1922.76 998.273 1925.06 991C1929.7 976.293 1938.14 970.889 1953 970M105 917C108.306 930.145 114.645 941.967 118 955C104.58 951.442 101.564 928.823 103 917L105 917M1596 929C1597.93 962.866 1581.19 996.402 1572 1028C1556.07 1024.08 1537.77 1023.52 1523 1016C1538.72 984.496 1571.43 953.843 1596 929M1730 983L1732 983C1729.98 994.429 1730.33 1007.43 1731.14 1019C1731.36 1022.16 1733.73 1030.23 1730.74 1032.61C1725.32 1036.93 1704.94 1016.04 1700.96 1012.64C1672.8 988.576 1638.3 961.076 1619 929C1643.26 929.099 1670.6 937.212 1693.04 944.219C1701.38 946.822 1714.32 947.045 1721.29 952.819C1733.73 963.107 1724.57 982.249 1724.04 995C1723.96 997.009 1722.04 1009.48 1724.99 1009.48C1729.83 1009.48 1729.66 986.613 1730 983M1274.67 940.667C1274.72 940.722 1274.78 941.778 1274.33 941.333C1274.28 941.278 1274.22 940.222 1274.67 940.667M1267.65 943.384C1269.1 943.642 1268.52 946.004 1267.12 945.741C1265.64 945.463 1266.22 943.131 1267.65 943.384M2029 945.39C2047.93 942.035 2043.81 959.137 2029 961.615C2014.79 963.993 2016.68 947.574 2029 945.39M633 997C630.012 978.206 605.826 969.166 590 977.589C570.774 987.822 563.894 1006.5 570.31 1027C572.821 1035.03 579.241 1040.22 587 1043.11C594.017 1045.73 599.94 1044.19 607 1043C595.341 1060.13 556.515 1040.52 553.013 1024C545.169 987.019 613.607 938.569 635.619 982.001C648.284 1006.99 610.594 1052.8 584.003 1037.36C560.282 1023.59 573.312 984 597 978.269C614.01 974.153 622.281 987.023 633 997M858 1057C851.19 1055.05 845.594 1050.32 840 1046.12C835.794 1042.97 831.736 1039.72 828.021 1035.98C803.908 1011.73 841.236 1000.05 859.981 991.718C870.224 987.163 888.926 976.841 900 981C897.601 967.891 919.062 971.675 927 973.617C945.315 978.099 955.767 1002.62 948.523 1019.99C944.19 1030.38 925.995 1034.56 916 1032.37C895.618 1027.91 873.413 1011.19 860.651 1041C858.385 1046.29 858.009 1051.32 858 1057M2051 1017C2044.08 1015.28 2033.84 1012.48 2029 1007C2037.66 1004.39 2046.95 1008.92 2051 1017M446 1016C449.285 1013.48 452.395 1011.06 456 1009C451.088 1008.41 448.187 1012 446 1016M1181 1012.91C1189.59 1013.17 1201.59 1030.92 1187.99 1030.93C1174.7 1030.93 1162.55 1012.34 1181 1012.91M1982 1048C1984.66 1042.33 1990.43 1045.53 1994 1049C1984.25 1062.24 1940.18 1060.81 1942.15 1039C1942.69 1032.97 1958.98 1009.49 1965.92 1014.98C1975.02 1022.17 1972.56 1039.55 1982 1048M444 1017L445 1018L444 1017M967 1017.33C967.889 1017.33 967.889 1018.67 967 1018.67C966.111 1018.67 966.111 1017.33 967 1017.33M477 1046L478 1047L477 1046M131 1047C124.613 1057.91 115.266 1071.33 101 1070.82C86.6324 1070.31 66.1443 1053.56 56 1072C63.6148 1073.45 66.7428 1066.67 74.0009 1067.27C97.3831 1069.21 118.152 1082.98 131 1053C148.028 1073.41 171.736 1059.55 193 1059.59C207.483 1059.62 220.961 1067.39 235 1069.6C245.723 1071.29 252.714 1065.9 262.217 1065.31C267.941 1064.95 276.007 1069.89 282 1070.91C293.341 1072.85 321.328 1075.22 329 1065C315.41 1065.95 301.887 1070.16 288 1068.68C279.779 1067.8 271.508 1061.19 264 1061.04C255.868 1060.88 249.396 1068.39 240 1067.28C224.882 1065.5 210.911 1057.24 196 1055.36C181.705 1053.55 168.246 1063.59 153 1060.4C143.382 1058.39 138.544 1052.25 131 1047M30 1146C31.9239 1145 32.0985 1144.92 33 1143C30.8763 1143.9 30.8993 1143.88 30 1146M442 1250C478.566 1235.46 479.709 1298.68 478.96 1321C478.763 1326.86 475.488 1335.96 477.3 1341.52C478.463 1345.08 486.998 1346.98 489.999 1349.1C497.385 1354.33 503.481 1362.15 505.717 1371C508.542 1382.19 500.988 1405.34 508.152 1413.03C509.928 1414.94 514.524 1404.78 517.025 1403.29C526.279 1397.77 542.069 1391.28 552.989 1394.6C562.874 1397.62 557.987 1417.19 566.078 1418.56C572.225 1419.6 575.849 1392.6 592 1398.33C600.986 1401.52 613.849 1425.23 622.019 1423.81C631.141 1422.22 621.954 1403.23 636.001 1401.69C650.754 1400.07 656.597 1407.6 666.094 1416.11C667.736 1417.58 671.18 1417.72 672.622 1415.81C675.549 1411.94 668.067 1404.25 666.496 1400.98C658.821 1384.99 645.384 1372.93 638.355 1357C634.711 1348.74 640.706 1333.48 643 1345C645.244 1342.79 647.049 1341.14 650 1340C648.343 1334.31 641.194 1335.78 637.065 1332.58C631.54 1328.3 624.589 1318.79 620.569 1313C607.017 1293.48 613.898 1246.65 642 1270C643.534 1254.24 625.656 1254.68 616 1247.36C595.688 1231.98 584.115 1212.7 593 1189C580.479 1191.3 579.381 1204.85 567.997 1205.89C559.583 1206.66 550.308 1206.04 543.008 1201.45C539.644 1199.34 535.033 1191.12 531.136 1191.2C523.06 1191.38 519.431 1201.45 510 1197.71C500.447 1193.93 491.634 1182.17 490.565 1172C490.275 1169.25 494.177 1157.2 489.853 1157.11C483.211 1156.96 480.845 1174.31 479.816 1179C474.033 1205.34 446.054 1224.47 442 1250M1255 1158C1259.86 1176.96 1234.75 1214.91 1218.97 1227.38C1212.56 1232.45 1198.63 1234.87 1194.29 1241.64C1191.03 1246.71 1197.11 1254.08 1195 1260C1224.96 1258.52 1235.83 1215.62 1255 1200C1255 1221.31 1263.16 1254.32 1254.67 1274C1245.23 1295.9 1215.32 1304.39 1202.84 1325.04C1198.11 1332.87 1206.96 1335.78 1213 1333.81C1222.13 1330.82 1228.41 1322.59 1235 1316C1241 1310 1246.21 1300.69 1253 1296C1251.34 1324.44 1255.23 1353.24 1253.24 1382C1252.97 1385.84 1250.35 1406.82 1257.33 1405.68C1262.15 1404.89 1265.8 1387.88 1264.95 1384C1258.96 1356.43 1265 1324.24 1266 1296C1280.99 1302.09 1295.58 1319.18 1312 1320.58C1331.99 1322.3 1327.86 1296.59 1316.99 1288.59C1304.74 1279.57 1274.45 1287.75 1266.58 1273.36C1263.65 1268.01 1266.63 1257.81 1266.92 1252C1267.79 1234.94 1266.02 1216.82 1269 1200C1277.73 1220.51 1290.51 1235.94 1310.04 1247.42C1325.21 1256.35 1337.17 1245.9 1331.99 1230.16C1325.89 1211.61 1292.97 1207.39 1284 1190C1269.1 1198.53 1272.78 1168.4 1269.98 1164.65C1267.4 1161.2 1259.06 1159.42 1255 1158M1268 1166C1266.06 1175.01 1260.31 1167.14 1268 1166M299 1418C287.139 1427.72 251.321 1444.66 243.953 1420C241.493 1411.76 248.33 1404.16 252.87 1398C265.291 1381.14 279.782 1366.12 292.03 1349C296.949 1342.12 305.399 1327.76 300.74 1319.1C292.57 1303.9 272.458 1305.25 260 1313.03C231.825 1330.61 216.433 1364.19 187 1382.47C176.481 1389 155.657 1402.43 145.118 1388.68C135.761 1376.47 144.926 1358.28 153.798 1348.86C180.062 1320.98 211.011 1297.35 237.992 1270C246.644 1261.23 265.665 1237.8 256.06 1224.37C246.619 1211.17 218.511 1218.64 207 1224.61C183.441 1236.82 159.073 1262.53 140.358 1281.3C129.556 1292.14 118.012 1306.47 101.027 1296.99C87.704 1289.55 91.6646 1270.33 97.2051 1259C108.17 1236.58 128.811 1220.24 142.921 1200C146.59 1194.74 156.539 1182.9 155.311 1176.19C153.904 1168.49 137.879 1167.76 132 1168.14C108.941 1169.63 87.8477 1178.61 68.7828 1191.14C62.9253 1194.99 48.0588 1206.64 54.6254 1214.75C56.0726 1216.54 60.5019 1219.69 62.5926 1217.03C65.3607 1213.51 57.2809 1209.25 63.2579 1203.46C80.2861 1186.96 102.43 1175.91 126 1173.06C131.795 1172.36 145.763 1170.14 149.84 1176C153.813 1181.72 137.465 1201.36 133.895 1205.67C118.782 1223.91 65.1867 1271.96 94.3215 1298.17C105.315 1308.06 122.85 1304.78 132.997 1295.76C156.111 1275.21 178.159 1247.99 204.217 1231.09C213.259 1225.22 247.331 1214.35 252.58 1229.89C257.51 1244.49 239.974 1262.71 230.654 1271.76C204.242 1297.41 172.631 1320.1 148.723 1348C138.894 1359.47 131.443 1376.86 141.199 1390.95C152.357 1407.06 172.304 1395.04 185 1388.6C208.567 1376.64 227.333 1355.13 243.68 1334.98C252.006 1324.72 265.9 1309.63 281 1311.79C298.869 1314.35 298.92 1331.07 290.592 1343C277.456 1361.81 233.525 1398.02 240.679 1422.86C247.422 1446.28 294.234 1439.01 299 1418M1932 1248C1907.96 1254.11 1892.78 1276.9 1904.3 1301C1906.53 1305.67 1919.48 1314.45 1919.48 1318C1919.48 1321.31 1909.38 1325.76 1907.09 1328.06C1898.18 1337 1891.32 1352.7 1897.07 1365C1904.25 1380.35 1941.84 1404.81 1952 1380C1945.22 1382.4 1939.59 1387.24 1932 1385.41C1888.45 1374.94 1893.92 1317.02 1939 1323C1937.17 1315.51 1927.03 1315.19 1921 1311.78C1910.34 1305.76 1904.28 1294.29 1905.15 1282C1906.02 1269.71 1913.07 1258.44 1925 1254.39C1928.87 1253.08 1945.95 1256.72 1945.68 1254.91C1943.4 1239.94 1916.69 1232.99 1915.49 1213C1914.44 1195.58 1931.65 1180.31 1948 1179.37C1952.2 1179.13 1956.2 1183.36 1959.83 1182.7C1962.69 1182.18 1962.32 1178.58 1960.93 1176.86C1949.63 1162.85 1921.22 1185.01 1915.89 1195.14C1905 1215.8 1917.62 1233.29 1932 1248M487 1180C492.887 1189.02 504.471 1204.8 517 1202.55C521.101 1201.81 526.491 1194.87 529.956 1195.39C533.519 1195.92 537.471 1202.64 541.01 1204.45C555.827 1212.04 569.484 1210.49 583 1202C583.889 1224.49 606.388 1248.47 626 1257C621.382 1263.17 614.189 1266.67 610.715 1274C599.142 1298.43 623.88 1315.46 632.629 1334C635.648 1340.4 630.803 1349.05 634.276 1356.78C642.053 1374.11 657.153 1385.44 663 1404C645.031 1400.12 622.049 1389.39 622 1419C609.922 1414.01 604.786 1396.21 590.999 1393.95C582.615 1392.58 568.845 1408.5 565.667 1407.11C562.609 1405.78 562.309 1395.27 557.9 1392.24C543.726 1382.53 518.595 1396.16 508 1406C506.526 1390.66 514.556 1378.07 506.399 1362C501.715 1352.77 484.846 1346.41 482.579 1337.82C477.201 1317.41 486.486 1293.7 480.019 1272C477.392 1263.19 471.093 1253.5 463.863 1247.81C461.306 1245.8 452.09 1243.37 452.178 1239.72C452.305 1234.52 458.876 1227.49 461.602 1223.2C470.388 1209.36 477.541 1193.06 487 1180M1654 1180C1644.25 1219.15 1648.15 1246.68 1618.67 1280C1616.11 1282.89 1594.61 1302.23 1596.65 1303.05C1604.06 1306.02 1619.88 1285.73 1623.79 1280.9C1641.77 1258.63 1652.55 1235.61 1656.08 1207C1657.16 1198.24 1661.3 1187.02 1654 1180M824 1182C823.231 1202.74 808.033 1213.33 802.081 1230.99C797.899 1243.4 813.987 1238.8 819.764 1245.07C822.927 1248.5 824.692 1264.39 826.695 1265.24C831.326 1267.21 837.175 1248.76 839.279 1246.01C841.763 1242.77 852.779 1238.8 852.817 1235.81C852.888 1230.3 818.935 1202.95 837 1203C835.638 1199.56 827.495 1183.25 824 1182M1254 1186C1252.76 1188.75 1251.57 1190.41 1249 1192C1249.8 1188.59 1250.74 1187.31 1254 1186M1264 1188C1265.48 1204.6 1263.69 1221.53 1262 1238C1257.93 1225.99 1259.78 1200.57 1262 1188L1264 1188M1514 1336C1517.27 1343.78 1528.95 1342.67 1536 1341.48C1552.54 1338.69 1577.98 1330 1581.57 1311C1589.09 1271.35 1516.13 1261.16 1525.33 1223C1531.1 1199.06 1586.55 1176.63 1595 1207C1606.59 1196.39 1585.59 1188.95 1577 1188.16C1557.68 1186.37 1530.98 1199.2 1522.23 1217C1508.2 1245.56 1555.19 1270.22 1569.65 1287.22C1582.16 1301.93 1578.12 1319.62 1560.92 1328.86C1554.93 1332.08 1548.57 1334.35 1542 1336.1C1531.94 1338.77 1524 1336.79 1514 1336M1250 1193C1247.74 1197.62 1245.06 1201.88 1242 1206C1240.97 1200.29 1244.87 1195.13 1250 1193M1257 1194L1258 1199C1256.38 1196.97 1256.04 1196.41 1257 1194M946 1196C945.405 1212.8 945.518 1239.94 924 1243C932.059 1255.18 939.826 1258.63 939 1275C954.028 1268.46 948.062 1247.77 970 1245C963.268 1235.17 953.849 1230.24 950.158 1218C947.958 1210.7 954.941 1199.65 946 1196M1289 1221C1280.72 1219.9 1277.22 1211.5 1276 1204C1282.39 1206.47 1286.91 1214.71 1289 1221M824 1206C835.878 1223.24 845.909 1231.8 829 1249C818.266 1230.14 815.831 1226.85 824 1206M1299 1208L1301 1211C1299.01 1210.15 1298.3 1209.99 1299 1208M1239 1215C1231.83 1227.78 1217.55 1245.05 1204 1251C1209.92 1240.1 1228.05 1221.1 1239 1215M310 1223C307.788 1212.89 300.514 1219.4 310 1223M1308 1216C1309.44 1217.45 1310.11 1218.22 1311 1220C1308.86 1218.87 1307.9 1218.43 1308 1216M1295 1218C1300.96 1219.22 1305.77 1223.31 1308 1229L1306 1229C1306 1225.52 1297 1221.03 1294 1219L1295 1218M949 1222C950.625 1231.07 956.711 1234.65 961 1242C952.794 1245.93 949.294 1254.1 942 1259C939.294 1253.36 935.321 1249.18 932 1244C940.696 1239.48 945.768 1231.83 946 1222L949 1222M1686 1222C1687.72 1246.41 1689.99 1270.75 1673.41 1292C1665.16 1302.58 1654.09 1309.46 1645 1319C1654.14 1320.86 1659.83 1308.94 1668 1311.68C1685.05 1317.41 1697.85 1355.75 1695.74 1372C1694.53 1381.32 1687.72 1389.5 1688 1399C1709.47 1379.2 1696.84 1341.09 1684.69 1320C1682.55 1316.27 1669.78 1307.74 1669.78 1304.91C1669.78 1301.07 1680.16 1291.85 1682.45 1288C1688.34 1278.1 1702.72 1226.87 1686 1222M1313 1233L1319 1232C1314.38 1226.19 1318.85 1223.3 1319.91 1229.05C1320.94 1234.64 1315.98 1239.48 1313 1233M813 1225C812.971 1228.98 811.59 1230.42 808 1232C809.059 1228.74 810.259 1227.05 813 1225M1304 1235C1300.26 1233.34 1298.04 1231.56 1296 1228C1300.38 1228.99 1302.45 1230.78 1304 1235M1327 1228C1328.11 1230.02 1328.24 1230.71 1328 1233C1326.89 1231.06 1326.61 1230.19 1327 1228M2035 1336C2053.76 1328.8 2041.54 1307 2043.86 1295.01C2046.66 1280.53 2069.86 1269.86 2050.51 1253.78C2039.75 1244.84 2011.83 1232.92 1999 1240.69C1994.44 1243.45 1983 1251.91 1985.09 1258.49C1986.39 1262.57 1990.53 1258.73 1991.68 1256.85C2003.37 1237.79 2038.15 1241.01 2050.83 1261.09C2056.85 1270.61 2048.45 1289.69 2037 1291.26C2029.6 1292.28 2021.08 1285.86 2013 1286.41C2008.48 1286.71 2001.76 1289.71 2001.65 1295.03C2001.24 1315.26 2036.16 1298.82 2040.28 1301.78C2051.41 1309.79 2036.98 1326.83 2035 1336M1322 1238L1321 1239L1322 1238M1326 1239C1327.08 1240.74 1327.54 1241.99 1328 1244C1324.99 1243.35 1324.5 1241.61 1326 1239M1204 1241.33C1204.77 1241.33 1204.16 1241.83 1203.67 1241.67L1204 1241.33M1201.67 1242.67C1201.72 1242.72 1201.78 1243.78 1201.33 1243.33C1201.28 1243.28 1201.22 1242.22 1201.67 1242.67M1200 1246L1199 1247L1200 1246M1262 1255L1262 1272L1260 1272C1260.51 1266.53 1260.24 1260.18 1262 1255M1261 1277C1260.49 1278.95 1260.27 1279.46 1259 1281C1258.78 1279.32 1258.78 1278.68 1259 1277L1261 1277M750 1343C757.26 1345.13 760.452 1337.69 765.096 1333.52C777.692 1322.21 791.592 1310.24 798 1294C802.319 1309.87 806.009 1328.56 807 1345C824.347 1338.83 838.481 1325.22 847 1309C848.709 1315.28 849.087 1321.87 851.446 1328C866.797 1367.85 893.938 1322.54 908 1312C908 1315.96 907.686 1320.13 908.637 1324C918.01 1362.18 952.998 1309.41 960 1300C958.641 1308.09 962.752 1336 976.019 1332.22C984.935 1329.67 995.511 1315.6 1003.56 1315.46C1006.86 1315.4 1013.72 1325.97 1017 1328.09C1031.36 1337.37 1050.5 1330.31 1059 1316C1046.18 1319.07 1010 1343.8 1008.59 1309C1008.29 1301.74 1012.85 1294.52 1013 1287C1007.17 1288.7 1006.57 1298.96 1004.53 1304C996.477 1323.92 958.979 1338.62 963.259 1305C964.186 1297.72 967.905 1291.34 968 1284C962.905 1286.13 960.684 1291.93 957.618 1296.32C950.352 1306.72 918.015 1358.8 911.487 1318C910.754 1313.42 910.913 1308.63 911.019 1304C911.192 1296.48 915.386 1290.37 916 1283C911.016 1287.33 909.031 1292.85 907.006 1299C900.72 1318.08 869.952 1360.73 854.71 1324C850.526 1313.92 857.312 1291.46 850 1285C845.269 1302.36 840.465 1314.87 826.922 1327.78C824.217 1330.36 814.281 1340.71 810.501 1335.52C804.442 1327.2 805.318 1304.37 803.569 1294C803.24 1292.05 803.441 1280.72 800.349 1281.32C796 1282.17 790.104 1298.1 787.707 1301.86C779.646 1314.52 763.068 1336.12 750 1343M1305 1289C1300.31 1289.62 1294.74 1287.82 1291 1285C1296.23 1284.7 1300.78 1285.85 1305 1289M1266 1285C1272.14 1287.19 1277.56 1290.45 1283 1294C1276.07 1295.92 1269.73 1290.45 1265 1286L1266 1285M1251 1288L1249 1292C1249.15 1289.99 1249.59 1289.52 1251 1288M1261 1291C1261 1296.79 1263.16 1306.17 1257 1309C1257.02 1302.95 1257.46 1296.87 1259 1291L1261 1291M1313 1292C1315.52 1294.19 1317.37 1296.09 1319 1299C1315.85 1297.28 1313.5 1295.68 1313 1292M2004 1297C2007.73 1293.63 2033.36 1287.36 2033.36 1297.1C2033.36 1307.42 2008.02 1298.59 2004 1297M1304 1294C1306.71 1295.32 1307.84 1296.22 1309 1299C1306.8 1297.8 1304.97 1296.55 1303 1295L1304 1294M1291 1301L1290 1302L1291 1301M1316 1306C1312.83 1306.39 1310.15 1306.61 1307 1306C1310.25 1303.91 1313.15 1302.99 1316 1306M1233 1308C1231.69 1309.39 1230.7 1310.13 1229 1311C1230.28 1309.1 1230.82 1308.74 1233 1308M1300 1309L1308 1311C1304.67 1311.96 1302.2 1311.23 1299 1310L1300 1309M1318 1312C1317.1 1314.12 1317.12 1314.1 1315 1315L1318 1312M1216 1323C1214.6 1329.64 1211.64 1331.65 1205 1330C1208.4 1327.08 1211.81 1324.63 1216 1323M1580 1327C1585.78 1335.15 1597.24 1340.16 1605 1346.53C1621.09 1359.74 1637.67 1377.29 1647.14 1396C1652.99 1407.55 1657.76 1428.23 1639 1430C1641.8 1443.13 1657.79 1420.74 1656.92 1412C1654.15 1384.25 1626.03 1356.24 1605 1340.86C1598.74 1336.28 1588.3 1324.42 1580 1327M1259 1327.33C1259.89 1327.33 1259.89 1328.67 1259 1328.67C1258.11 1328.67 1258.11 1327.33 1259 1327.33M1261 1334L1260 1339C1258.8 1337.22 1258.4 1336.12 1258 1334L1261 1334M2023 1390C2008.99 1392.72 1995.78 1396.56 1985.88 1382.99C1983.81 1380.15 1979.59 1361.32 1979.6 1361.32C1975.21 1360.49 1975.98 1369.8 1976.26 1372C1977.38 1380.8 1982.73 1388.58 1990 1393.46C2003.79 1402.73 2014.06 1394.02 2028 1392.55C2050.86 1390.14 2085.31 1404.79 2092 1368C2071.74 1387.74 2062 1393.82 2034 1389C2037.81 1384.67 2042.79 1381.18 2045.56 1376C2050.05 1367.59 2041.54 1355.07 2032 1355.3C2013.86 1355.75 2017.33 1380.75 2023 1390M2031.34 1359.95C2046.69 1356.54 2045.21 1383.2 2030.02 1385.37C2016.72 1387.26 2021.81 1362.07 2031.34 1359.95M1259 1368C1260.83 1371.97 1261.48 1375.89 1258 1379C1258 1375.25 1257.79 1371.58 1259 1368M1258 1390L1257 1382C1261.17 1383.66 1261.45 1387.23 1258 1390M1259 1391.33C1259.89 1391.33 1259.89 1392.67 1259 1392.67C1258.11 1392.67 1258.11 1391.33 1259 1391.33M670 1413L670 1416L668 1416L668 1413L670 1413M1566 1626C1559.09 1606.81 1603.13 1572.21 1623 1582.73C1636.7 1589.98 1633.86 1610.55 1645 1615C1644.4 1609.1 1644.12 1577.37 1659.49 1589.86C1665.84 1595.02 1657.3 1619.43 1657.04 1627C1656.44 1644.61 1654.66 1658.88 1650.5 1676C1649.31 1680.9 1649.55 1690.47 1643.85 1692.4C1625.47 1698.6 1605.85 1678.85 1587.14 1689.1C1582.65 1691.56 1558.95 1712.69 1573.37 1716.92C1577.58 1718.16 1586.69 1713.28 1591 1712C1586.72 1709.43 1579.18 1714.14 1576.37 1711.18C1570.41 1704.88 1587.78 1694.08 1592 1692.14C1599.74 1688.57 1636.69 1692.7 1643.24 1698.26C1646.41 1700.95 1642.63 1708.6 1642.23 1712C1641.15 1721.23 1636.16 1747.2 1646.13 1752.58C1656.05 1757.93 1681.96 1751.63 1686 1741C1676.5 1743.91 1659.29 1754.4 1649.15 1748.73C1642.53 1745.04 1645 1732.31 1645 1726C1645.01 1700.33 1663.68 1677.4 1686 1664.8C1695.93 1659.19 1722.31 1679.97 1737 1678.86C1745.82 1678.19 1773.59 1667.85 1776 1659C1759.3 1661.97 1746.82 1677.46 1729 1675.84C1716.04 1674.66 1701 1655.77 1689 1658.2C1680.27 1659.97 1668.58 1672.46 1663.04 1679.08C1661.5 1680.93 1657.11 1688.74 1653.94 1687.36C1649.78 1685.55 1657.28 1668.07 1658.22 1665C1664.04 1645.96 1661.17 1625.47 1664.82 1606C1665.64 1601.63 1666.37 1588.47 1672.15 1587.98C1693.04 1586.22 1690.99 1622.34 1702 1631C1702.95 1624.91 1697.64 1616.52 1700.91 1611.24C1709.64 1597.1 1738.96 1595.04 1751.17 1604.86C1756.96 1609.52 1757.22 1617.57 1762.52 1622.03C1766.98 1625.78 1772.64 1623.31 1775.43 1618.89C1793.27 1590.65 1764.11 1551.2 1747.08 1531.04C1702.75 1478.55 1622.61 1465.21 1577.61 1525.01C1561.72 1546.12 1546.24 1574.31 1551.9 1602C1554.38 1614.08 1552.6 1622.3 1566 1626M1698 1608C1688.16 1597.71 1684.91 1581.74 1667 1582.31C1660.14 1582.52 1644.54 1592.49 1640.32 1591.24C1626.73 1587.23 1625 1571.78 1607 1578.14C1588.08 1584.82 1575.06 1603.65 1557 1610C1556.99 1597.67 1554.59 1584.15 1557.67 1572C1569.89 1523.78 1620.99 1481.24 1672 1488.38C1689.19 1490.78 1716.16 1509.66 1730 1520.04C1751.47 1536.13 1794.61 1589.3 1770.77 1617.7C1766.1 1623.27 1753.96 1600.86 1747 1597.6C1730.41 1589.84 1710.51 1595.99 1698 1608M95 1569C89.5085 1576.53 108.908 1576.93 114 1576.4C119.998 1575.77 125.603 1568.95 129.921 1565.18C168.355 1531.66 137.98 1476.84 91 1505.2C63.5644 1521.76 52.7528 1566.47 95 1569M876 1531C881.529 1552.85 877.985 1585.01 879.033 1608C879.327 1614.45 882.259 1626.93 877.061 1632.18C870.221 1639.09 845.336 1637.29 836 1638C844.564 1651.07 872.719 1633.14 876.284 1639.58C878.738 1644.01 876 1655.77 876 1661C876 1678.89 873.362 1699.17 880.707 1716C894.088 1746.65 931.709 1717.04 937 1696C924.063 1699.07 920.33 1720.24 906 1723.58C875.857 1730.59 878.542 1675.95 880.562 1658C881.169 1652.61 879.569 1645.03 882.384 1640.21C886.336 1633.44 903.867 1633.05 911 1630.96C914.267 1630 943.459 1626.08 941.894 1622.6C940.514 1619.53 931.313 1623.29 929 1623.64C920.768 1624.91 891.765 1635.64 885.509 1631.66C881.121 1628.87 884.046 1613.78 883.992 1609C883.755 1587.79 881 1566.49 881 1545C894.79 1565.17 913.547 1583.04 933 1557C926.045 1558.14 923.322 1564.5 916.981 1566.39C903.524 1570.41 892.12 1556.02 886.701 1546C881.052 1535.55 878.67 1521.8 879.04 1510C879.129 1507.18 880.995 1499.22 876.152 1499.11C871.921 1499.01 874.12 1517.69 873.915 1521C872.55 1543 856.641 1564.03 840 1577.08C837.425 1579.1 819.08 1588.57 819.426 1590.64C820.442 1596.7 839.996 1582.85 842 1581.36C858.47 1569.11 871.071 1550.99 876 1531M1266 1606C1266.67 1622.26 1279.92 1626.18 1285.16 1638.23C1287.58 1643.79 1289.62 1671.61 1285.18 1675.97C1278.29 1682.71 1256.45 1684.36 1247 1687C1253.33 1700.79 1278.01 1674.1 1287.05 1681.92C1291.23 1685.55 1288.42 1695.36 1288.12 1700C1287.53 1708.82 1290.09 1722.19 1296.29 1728.85C1305.77 1739.04 1325.07 1728.88 1325 1716C1318.81 1720.07 1311.74 1730.95 1303.02 1727.97C1292.6 1724.42 1287.16 1687.55 1293.9 1679.9C1298.01 1675.23 1311.17 1675.75 1317 1674.85C1335.85 1671.95 1353.9 1664.79 1373 1663C1367.3 1650.37 1354.75 1661.04 1347 1663.43C1333.8 1667.52 1319.47 1668.71 1306 1671.79C1302.99 1672.48 1295.04 1676.18 1292.38 1673.78C1289.16 1670.86 1290.6 1658.26 1290.22 1654C1289.79 1649.17 1289.1 1642.74 1290.5 1638.05C1293.41 1628.28 1308.09 1627.89 1311 1617C1316.51 1620.68 1318.29 1627.98 1325.01 1630.2C1341.22 1635.55 1360.99 1624.27 1362 1607C1363.79 1576.5 1356.42 1531.72 1335.36 1508.28C1321.54 1492.9 1295.41 1497.57 1279 1504.29C1247.37 1517.25 1224.95 1554.51 1215.18 1586C1212.27 1595.38 1206.92 1609.05 1209.62 1619C1221.27 1661.87 1253.34 1619.68 1266 1606M136 1541C130.53 1524.85 136.992 1505 112 1504C120.883 1495.76 137.915 1503.26 141.417 1514C143.855 1521.48 139.666 1534.41 136 1541M1314 1599C1305.69 1612.3 1306.73 1624.21 1289 1631L1289 1624C1267.47 1638.28 1279.13 1600.91 1264.98 1602.54C1251.58 1604.09 1249.13 1634.6 1230.99 1633.73C1206.27 1632.54 1215.76 1592.39 1221.77 1579C1235.81 1547.75 1251.99 1520.15 1285 1506.87C1299.1 1501.2 1319.3 1499.44 1331.69 1510.64C1337.91 1516.26 1342.62 1526.62 1346.5 1534C1351.52 1543.53 1351.95 1554.61 1353.48 1565C1355.66 1579.86 1360.23 1600.49 1354.87 1614.99C1351.38 1624.42 1330.78 1631.13 1322.6 1624.26C1315.27 1618.1 1315.52 1607.56 1314 1599M113 1565C132.765 1538.64 137.924 1518.8 101 1508C108.148 1502.27 124.691 1507.61 129.215 1515.18C139.491 1532.36 132.938 1560.06 113 1565M401 1638C417.955 1633.71 435.249 1605.84 442.75 1591C445.362 1585.83 450.37 1569 455.906 1566.96C461.303 1564.97 470.179 1572.43 474 1575.35C489.073 1586.87 497.68 1603.77 512 1615L506 1617C519.633 1634.54 520.071 1657.3 518.922 1680C518.637 1685.63 511.901 1706 515.163 1709.89C517.733 1712.96 524.693 1683.94 525.38 1681C530.69 1658.3 524.64 1637.41 517 1616C539.341 1625.52 567.14 1645.02 572.392 1670C573.918 1677.26 572.754 1722.08 557 1709C555.828 1712.4 554.995 1719.71 561.062 1717.73C587.358 1709.13 580.749 1668.97 570 1652C599.7 1658.31 623.302 1655.52 634.929 1624C636.666 1619.29 649.034 1587.63 643.248 1584.76C639.978 1583.14 639.454 1593.51 639.177 1595C636.753 1607.98 632.696 1620.53 626.088 1632C607.151 1664.88 556.04 1648.84 539 1621C557.355 1620.1 581.126 1587.94 581.521 1570C581.661 1563.65 575.788 1557.53 572 1565C581.667 1567.73 575.126 1578.03 571.861 1584C565.364 1595.88 550.874 1619.11 535 1617.44C509.256 1614.74 498.85 1587.88 480 1574.02C475.765 1570.91 458.729 1564.45 457.738 1559.72C455.61 1549.58 473.614 1517.46 462.252 1509.41C461.659 1508.99 459.287 1535.47 457.976 1541C451.369 1568.88 437.266 1591.72 421.164 1615C415.562 1623.1 404.534 1628.99 401 1638M221 1557C223.011 1563.85 224.078 1569.83 223.992 1577C223.935 1581.84 222.971 1586.33 221.746 1591C209.248 1638.63 174.9 1575.54 150.642 1602.45C137.17 1617.39 154.332 1655.34 131.999 1665.46C117.501 1672.02 101.308 1645.42 84.0862 1654.62C69.2119 1662.57 69.3174 1695.7 89 1696C87.8927 1690.81 80.4925 1688.98 78.8611 1682C77.8062 1677.48 78.1434 1674.36 79.5556 1670C91.3016 1633.76 123.792 1686.7 139 1668C152.233 1651.73 140.822 1611.84 157 1602.61C175.717 1591.93 181.11 1611.75 199 1614.78C228.236 1619.72 227.301 1578.92 227 1561C258.58 1567.78 272.74 1541.15 273 1513C264.925 1516.97 266.44 1534.14 262.881 1542C254.324 1560.89 238.406 1558.04 221 1557M114 1523C94.9762 1521.67 84.1375 1527.28 78 1547C61.3337 1524.64 102.292 1506.3 119.949 1517.78C136.744 1528.69 123.175 1560.07 106 1562.71C82.5648 1566.32 78.0334 1541.82 92.7209 1528.36C99.2437 1522.39 108.644 1528.11 114 1523M2001 1520.44C1957.96 1525.52 1936.48 1546.89 1910.85 1578.95C1903.32 1588.38 1893.19 1591.77 1888.42 1604C1881.45 1621.9 1885.91 1652.96 1887.82 1672C1889.79 1691.68 1880.77 1706.96 1889.89 1728C1903.41 1759.22 1962.01 1770.15 1992 1766.67C2016.66 1763.81 2021.37 1744.71 2039.44 1734.27C2048.43 1729.08 2066.09 1728.82 2077 1723.97C2100.05 1713.72 2118.9 1679.32 2111.52 1654C2105.61 1633.74 2094.19 1613.65 2077 1601.22C2071.6 1597.32 2056.73 1597.28 2053.48 1592.2C2050.44 1587.45 2054.31 1573.06 2053.68 1567C2050.19 1533.46 2036.6 1516.24 2001 1520.44M145 1524L144 1528C143.73 1526.09 143.94 1525.65 145 1524M1890 1687C1891.19 1693.5 1894.78 1698.83 1898.82 1703.98C1901.86 1707.86 1905.44 1710.56 1910 1712.42C1954.56 1730.57 1949.23 1637.47 1909 1656.01C1901.08 1659.66 1898.5 1667.22 1892 1672C1892.69 1645.5 1884.56 1613.47 1901 1591C1901.66 1594.62 1900.29 1597.62 1899 1601C1902.98 1597.4 1904.63 1592.1 1909 1589C1908.04 1604.7 1902.6 1625.73 1916 1638C1905.88 1602.62 1913.87 1548.52 1962 1548C1954.79 1540.97 1944.76 1549.09 1937 1552C1949.34 1530.08 2015.44 1513.54 2035.98 1529.59C2046.66 1537.93 2059.8 1581.72 2046.82 1592.7C2036.9 1601.08 2013 1586.54 2001 1591.22C1989.6 1595.67 1966.28 1608.7 1975.67 1623.98C1991.55 1649.83 2025.16 1639.55 2041.06 1620.44C2045.93 1614.58 2047.24 1598.99 2056.03 1599.11C2107.12 1599.82 2116.94 1676.17 2092.54 1707.92C2084.72 1718.09 2068.14 1724.52 2056 1727.8C2052.96 1728.62 2044.58 1730.75 2042.49 1727.18C2039.99 1722.91 2046.48 1710.74 2045.7 1705C2042.1 1678.56 2018.87 1655.82 1993.02 1672.2C1972.35 1685.3 1979.84 1709.57 1997 1720.93C2011.99 1730.85 2046.85 1726.38 2021.99 1748.76C2019.23 1751.25 2016.23 1753.59 2013 1755.44C2008.32 1758.11 2002.17 1760.56 1997 1762.09C1968.4 1770.58 1901.01 1754.88 1894.59 1722C1892.94 1713.55 1881.73 1693.84 1890 1687M142.667 1535.67C142.722 1535.72 142.778 1536.78 142.333 1536.33C142.278 1536.28 142.222 1535.22 142.667 1535.67M142 1538C140.934 1545.15 137.469 1554.22 131 1558C133.412 1551.22 137.077 1544.95 139 1538L142 1538M74 1548C77.4545 1552.86 81.2865 1557.7 84 1563C78.383 1560.74 71.0829 1554.65 74 1548M1935.67 1551.67C1935.72 1551.72 1935.78 1552.78 1935.33 1552.33C1935.28 1552.28 1935.22 1551.22 1935.67 1551.67M88 1559C90.5093 1560.83 92.3384 1562.38 94 1565C90.8498 1563.71 88.5072 1562.53 88 1559M119 1567C114.59 1571.37 105.402 1571.47 100 1569C106.007 1566.97 112.757 1568.34 119 1567M2011 1593.62C2014.14 1593.7 2044.59 1598.31 2045.35 1599.82C2047.15 1603.43 2042.05 1611.01 2040.36 1614.04C2032.48 1628.15 2019.29 1636.6 2003 1635.96C1964.51 1634.43 1980.71 1592.85 2011 1593.62M538 1611C527.503 1595.32 519.233 1610.91 538 1611M1914 1658.46C1941.92 1652.62 1946.96 1705.15 1923.97 1711.49C1894.27 1719.69 1880.89 1665.4 1914 1658.46M223 1660.56C187.6 1668.02 184.571 1753.84 229 1745.71C269.061 1738.38 267.023 1651.29 223 1660.56M244 1671C227.124 1668.83 217.302 1671.28 206 1685C203.392 1667.17 233.667 1658.42 244 1671M2007 1670.51C2026.72 1666.41 2040.07 1689.54 2041.82 1706C2042.41 1711.56 2041.68 1725.98 2034.8 1727.78C1998.99 1737.16 1960.93 1680.1 2007 1670.51M633.102 1673.27C620.687 1679.82 624.333 1712.64 637.946 1704.65C649.797 1697.69 646.978 1665.95 633.102 1673.27M199 1710C202.507 1712.14 204.884 1715.35 208 1718C201.229 1702.16 201.975 1690.84 216.581 1679.32C226.926 1671.17 247.45 1671.81 252.036 1686.01C258.14 1704.91 251.543 1732.86 230.992 1741.06C212.846 1748.3 200.308 1724.02 199 1710M637 1697C637.954 1694.63 638.593 1692.52 639 1690C632.433 1692.43 634.183 1686.06 638.88 1686.85C645.285 1687.93 641.923 1696.43 637 1697M630 1694C633.44 1696.28 635.955 1698.4 638 1702C633.293 1701.38 629.818 1699.12 630 1694M1592 1711C1598.33 1710.69 1602.64 1708.44 1606 1703C1601.07 1704.92 1595.03 1706.51 1592 1711M183 1728L183 1731C184.797 1731 184.521 1730.99 186 1730L183 1728M27 1732C20.6579 1734.5 26.5451 1740.64 27 1732M926 1878C949.648 1874.38 967.539 1855.05 991 1851C974.565 1845.43 956.796 1861.93 942.999 1868.61C937.15 1871.44 929.718 1872.29 926 1878M1004 1859C1004.57 1872.91 1019.62 1902.61 1034 1906C1030.79 1896.44 1012.36 1864.25 1004 1859M839 1939C853.568 1937.22 857.215 1926.99 869 1920.61C873.017 1918.44 880.957 1918.89 882 1914L873 1915C882.582 1906.51 894.367 1900.46 903.78 1891.88C905.951 1889.9 910.961 1882.45 914.436 1883.64C918.751 1885.12 921.599 1897.1 923.002 1901C928.899 1917.4 935.877 1933.17 943 1949C949.501 1937.66 928.997 1903.42 924.09 1892C922.714 1888.8 918.769 1876.66 914.605 1876.64C909.238 1876.63 901.368 1888.54 897.217 1891.79C880.107 1905.14 850.121 1920.46 839 1939M641 2137C628.422 2118.06 624.189 2096.61 615.419 2076C613.172 2070.72 604.347 2060.11 606.44 2054.32C611.633 2039.96 640.626 2022.55 652 2012.22C660.926 2004.1 675.12 1982.32 688 1983C685.89 1976 672.968 1977 667 1978.82C645.565 1985.37 614.511 1985.75 591.963 1983.2C587.697 1982.72 581.889 1963.87 579.841 1960C568.055 1937.72 547.306 1904.3 549 1879C541.875 1882.14 538.952 1894.03 534.794 1900.32C520.392 1922.12 516.124 1946.95 504.876 1970C502.109 1975.67 500.42 1987.14 495.54 1991.06C490.741 1994.91 480.853 1992.89 475 1993.72C469.425 1994.52 432.325 1995.58 433.967 2001.15C436.634 2010.2 449.446 2014.74 457 2018.48C473.68 2026.76 494.022 2037.36 508.562 2049.05C512.265 2052.03 521.066 2057.67 522.375 2062.34C523.721 2067.14 515.37 2073.55 512.834 2076.98C503.109 2090.12 493.867 2103.31 484.886 2117C482.006 2121.39 471.924 2133.12 479.287 2137.61C487.38 2142.54 497.443 2131.21 503.134 2127.01C518.024 2116.04 534.458 2105.63 547.562 2092.56C551.163 2088.97 559.27 2077.2 564.881 2077.57C569.939 2077.89 575.214 2091.11 578.54 2094.54C591.983 2108.42 620.593 2146 641 2137M325 2026L321 2027C320.245 1990.25 284.813 1976.88 262.822 1955.88C257.316 1950.63 261.687 1932.35 260.157 1925C256.499 1907.41 238.167 1893.03 222 1887.45C185.436 1874.83 149.771 1896.82 130.376 1927.02C125.128 1935.19 123.713 1950.99 117.499 1957.25C107.253 1967.57 88.155 1970.69 76.0026 1979C57.113 1991.91 45.6806 2022.67 44.0965 2045C40.3392 2097.97 106.356 2120.14 150 2117.92C161.759 2117.32 174.351 2110.18 185.562 2110.44C193.899 2110.64 203.549 2117.2 213 2117.86C243.716 2120.01 292.361 2107.05 310.082 2080C320.318 2064.38 321.624 2043.78 325 2026M209 1953C218.017 1938.12 231.75 1927.72 242 1914C231.62 1918.47 214.933 1932.46 210.824 1943.02C209.923 1945.33 203.994 1953.58 206.767 1955.48C213.959 1960.39 236.108 1946.44 243 1944L243 1950L246 1950C246.467 1942.28 251.338 1935.77 258 1932C257.315 1937.17 259.593 1950.38 256.7 1954.18C253.431 1958.47 242.603 1955.07 238 1955.49C220.093 1957.1 202.271 1969.89 185 1965.25C176.416 1962.94 140.431 1954.06 135.096 1963.11C135.146 1963.02 169.654 1964.44 177 1966.15C179.642 1966.76 188.087 1967.86 188.677 1971.27C189.254 1974.6 179.749 1981.4 177.747 1984C171.371 1992.27 167.718 2003.63 167 2014C148.347 2007.2 138.94 1996.59 129.446 1979C119.444 1960.47 131.172 1951.48 149 1956C150.299 1945.33 163.302 1937.71 169 1929C161.864 1936.15 154.159 1948.37 144 1951C150.363 1927.85 174.206 1910.47 188 1892C163.596 1904.9 154.55 1949.02 128.15 1953.57C120.212 1954.94 129 1936.79 130.435 1934C137.872 1919.54 152.329 1903.34 167 1896C164.051 1901.74 159.473 1906.09 155.361 1911C153.75 1912.92 142.885 1935.48 145.297 1935.48C147.705 1935.48 150.15 1927.77 150.893 1926.01C154.665 1917.08 169.639 1904.19 168 1895C193.759 1882.5 250.793 1885.67 256.134 1924C258.445 1940.58 221.076 1952.23 209 1953M1998 1993L2000 1985C1993.49 1989.81 1992.04 1997.2 1983 1991C1979.19 1995.81 1974.95 1993.03 1970.03 1995.52C1964.38 1998.37 1957.88 2007.78 1954.6 2013.14C1945.14 2028.61 1949.99 2047.92 1936.76 2061.91C1927.39 2071.83 1915.05 2071.36 1904 2077.54C1883.17 2089.19 1867.9 2116.17 1883 2137C1871.71 2142.86 1898.99 2153.19 1905.73 2149.68C1916.72 2143.98 1912.66 2124.19 1920.16 2115.1C1934.24 2098.05 1962.1 2100.59 1973.09 2080C1979.89 2067.27 1970.22 2049.57 1979.71 2038.1C1991.91 2023.35 2017.49 2030.19 2032.98 2019.28C2054.68 2003.99 2034.02 1967.3 2070 1965L2068 1970C2077.46 1966.68 2091.72 1965.28 2098.9 1957.94C2106.49 1950.16 2107.39 1936.73 2116.52 1930.36C2124.96 1924.47 2138.55 1926.88 2146.44 1918.68C2158.15 1906.5 2146.33 1885.9 2130.08 1889.57C2112.78 1893.47 2105.24 1920.75 2089.68 1930.28C2084.34 1933.55 2069.19 1925.54 2062 1925.63C2050.32 1925.79 2033.26 1938.61 2025.2 1946.4C2012.56 1958.62 2015.88 1986.8 1998 1993M545 1891C548.201 1899.91 541.071 1911.63 540.218 1921C537.388 1952.11 536.649 1993.75 502 2006.46C491.362 2010.36 479.126 2001.67 468 2001L468 1998C474.964 1997.94 497.297 2000.1 502.218 1995.3C503.058 1994.49 503.09 1980.8 504.948 1977C518.66 1948.99 524.128 1915.2 545 1891M2131 1920C2134.46 1910.95 2137.29 1905.77 2138 1896C2124.15 1907 2113.15 1923.14 2103.81 1938C2098.62 1946.27 2094.2 1957.32 2084 1960C2094.55 1940.63 2107.86 1921.42 2118.31 1903.01C2121.56 1897.28 2127.9 1891.92 2134.99 1893.06C2153.84 1896.1 2146.92 1918.36 2131 1920M167 1940C171.535 1941.24 175.334 1941.73 180 1941C175.015 1953.31 183.763 1952.61 191 1945L190 1944C172.137 1955.52 208.657 1913.47 213 1908C196.407 1911.7 191.743 1937.8 175 1939C179.163 1931.69 183.059 1924.83 188 1918L186 1926C192.384 1921.18 204.923 1910.32 205 1902C199.998 1904.55 195.953 1908.41 191 1911C195.654 1905.87 201.387 1900.89 205 1895C186.346 1900.51 175.373 1924.32 167 1940M1787 1895C1784.23 1901.99 1772.77 1898.62 1767.03 1902.41C1750.57 1913.24 1734.64 1924.36 1716 1931.79C1707.22 1935.29 1691.02 1937 1684.73 1944.57C1678.92 1951.56 1691.9 1961.8 1695.97 1966C1711.41 1981.92 1725.72 1998.13 1741.91 2013.29C1745.33 2016.49 1753.27 2027.68 1758.4 2026.87C1762.8 2026.17 1765.81 2003.21 1767.11 1999C1774.92 1973.49 1772.82 1945.94 1782.8 1921C1785.27 1914.83 1793.34 1900.09 1787 1895M1246 2042C1246.17 2046.41 1244.33 2049.87 1243 2054C1251.03 2050.43 1251.11 2037.97 1259.32 2031.67C1292.08 2006.51 1326.02 1970.67 1363 1952C1360.94 1955.63 1359.27 1958.81 1359 1963C1365.8 1957.6 1368.72 1947.76 1375.79 1941.78C1386.52 1932.7 1399.31 1929.7 1411 1922.47C1417.89 1918.22 1421.28 1909.89 1430 1911C1416.33 1902.41 1423.67 1908.31 1429 1896C1414.92 1897.18 1398.48 1911.25 1385 1916.82C1322.18 1942.75 1275.59 1988.8 1226.14 2034.64C1208.39 2051.08 1178.46 2073.02 1166.83 2094.22C1160.85 2105.12 1180.25 2142.26 1194.97 2134.04C1206.72 2127.47 1192.28 2109.45 1197.21 2098C1205.65 2078.38 1230.87 2057.09 1246 2042M1933 1897.72C1924.63 1897.7 1918.84 1902.29 1912 1906.32C1904.89 1910.5 1895.78 1912.52 1891.23 1920.02C1874.96 1946.85 1909.76 1966.93 1932 1967.08C1965.33 1967.32 1967.04 1934.9 1952.5 1914C1947.75 1907.17 1942.41 1897.75 1933 1897.72M1786 1903C1775.82 1940.45 1757.75 1982.66 1757 2022C1737.3 2007.29 1720.05 1986.29 1703.68 1968C1699.53 1963.37 1687.95 1955.41 1688.83 1948.31C1689.73 1940.94 1708.43 1938.88 1714 1936.85C1738.97 1927.76 1759.73 1907.41 1786 1903M1189.44 1905.03C1165.16 1911.55 1175.64 1956.85 1193.98 1951.61C1216.08 1945.3 1213.99 1898.44 1189.44 1905.03M2135 1904C2134.12 1913.45 2128.68 1921.22 2119 1922C2123.41 1915.66 2129.21 1910.84 2133 1904L2135 1904M191 1952C195.784 1952.99 199.175 1952.1 202 1948L196 1949C208.466 1933.85 223.03 1921.57 237 1908C221.426 1905.5 196.552 1939.42 191 1952M1922 1908C1921.02 1909.78 1921.09 1909.59 1919 1910L1922 1908M1195 1912L1190 1912C1191.85 1909.65 1193.1 1909.7 1195 1912M1416 1909C1414.77 1911.01 1414.01 1911.77 1412 1913C1412.94 1910.49 1413.49 1909.94 1416 1909M554 1910C553.965 1918.49 552.542 1931.83 545 1937C544.8 1926.48 542.418 1915.47 554 1910M961 1955C979.58 1943.12 994.712 1916.18 1019 1914C1015.64 1905.52 1005.13 1914.53 1000.43 1917.54C988.323 1925.32 962.399 1939.34 961 1955M1935 1931C1933.5 1921.86 1929.4 1918.96 1926 1911C1934.18 1913.38 1943.87 1923.06 1935 1931M1411 1912L1410 1913L1411 1912M1409 1913C1408.49 1914.73 1408.15 1916.21 1408 1918L1406 1918C1406.51 1915.45 1406.95 1914.59 1409 1913M1940 1913C1950.76 1921.64 1944.31 1931.92 1934 1937C1937.67 1927.17 1938.19 1922.86 1940 1913M1922.28 1916.66C1930.41 1916.05 1934.27 1933.26 1927.97 1933.36C1922.14 1933.46 1913.2 1917.35 1922.28 1916.66M1192.83 1920.11C1200.46 1919.97 1198.01 1934.56 1190.16 1933.97C1182.2 1933.38 1186.39 1920.22 1192.83 1920.11M1900 1919C1898.91 1936.78 1902.24 1941.86 1909 1958C1897.06 1951.18 1883.64 1928.51 1900 1919M1909 1920C1913.17 1927.47 1926.19 1942.63 1923 1950C1916.8 1943.34 1905.97 1929.81 1909 1920M557 1922C563.531 1941.89 577.129 1977.4 592 1992C593.641 1980.23 626.658 1988.15 636 1987C621.63 2008.16 564.808 2031.85 549.432 1999.92C536.537 1973.14 548.837 1947.32 555 1922L557 1922M1385 1922C1383.46 1923.27 1382.95 1923.49 1381 1924C1382.54 1922.73 1383.05 1922.51 1385 1922M1204 1925C1205.28 1929 1204.45 1931.64 1201 1934L1204 1925M1953 1925C1957.93 1931.61 1952.64 1936.85 1948 1942C1946.98 1936.44 1950.65 1929.98 1953 1925M1040 1926C1025.82 1946.4 1025 1976.22 1021 2000C1026.82 1997.59 1027.6 1991.77 1028 1986C1029.12 1969.94 1044.27 1939.86 1040 1926M1378 1926C1376.46 1927.27 1375.95 1927.49 1374 1928C1375.54 1926.73 1376.05 1926.51 1378 1926M1924 1937C1920.41 1934.89 1918.42 1932.93 1917 1929C1921.17 1930.56 1922.86 1932.72 1924 1937M1905 1930C1910.76 1937.39 1920.41 1948.6 1921 1958C1909.89 1955.5 1901.82 1940.9 1905 1930M2066 1930C2061.89 1938.89 2053.58 1953.09 2045 1958C2049.65 1947.67 2052.45 1930.69 2066 1930M2047 1966C2050.09 1960.57 2066.97 1932.27 2072.34 1931.95C2090.66 1930.87 2079.46 1951.36 2073.62 1958.4C2069.72 1963.1 2053.07 1965.2 2047 1966M2097 1933C2095.06 1940.17 2085.4 1958.13 2078 1960C2081.31 1949.29 2086.63 1938.08 2097 1933M2052 1934C2048.03 1946.48 2029.08 1963.66 2018 1970C2020.36 1953.4 2035.87 1937.9 2052 1934M1945 1935C1941.05 1945.96 1930.71 1941.35 1945 1935M1959 1936C1959.33 1953.58 1946.87 1962.1 1930 1965C1935.09 1957.42 1946.09 1953.1 1954 1949C1949.03 1945.66 1954.07 1936.93 1959 1936M1200 1939C1198.3 1945.83 1190.63 1952.4 1187 1943C1191.69 1942.53 1195.61 1940.6 1200 1939M1362 1943C1360.56 1945.48 1359.48 1946.56 1357 1948C1358.56 1946.1 1360.1 1944.55 1362 1943M1948 1943C1945.38 1951.53 1935.22 1957.64 1927 1960C1932.85 1954.15 1939.68 1944.57 1948 1943M925 1950C921.976 1942.59 913.423 1945.92 907 1945.99C889.437 1946.19 871.393 1944.09 854 1945.9C850.393 1946.28 834.098 1946.6 833.323 1950.91C832.558 1955.16 851.404 1950.8 854 1950.46C876.386 1947.48 902.457 1948.7 925 1950M1932 1945C1931.01 1955.37 1924.33 1948.26 1932 1945M1339 1947C1329.8 1956.51 1311.54 1970.78 1299 1975C1308.87 1963.45 1324.12 1951.01 1339 1947M1356 1949L1351 1954L1350 1953C1351.93 1951.14 1353.55 1950.08 1356 1949M1347 1951C1345.54 1952.08 1344.75 1952.44 1343 1953C1344.54 1951.73 1345.05 1951.51 1347 1951M2043 1951C2036.23 1965.1 2025.88 1975.82 2019.51 1990C2015.3 1999.37 2013.95 2013.95 2009.43 2021.95C2008.55 2023.51 2001.8 2023.59 2000 2024C2002.85 2012.44 2009.36 1981.3 2018 1974C2018.16 1976.41 2018.48 1978.64 2019 1981C2024.88 1969.6 2029.14 1955.44 2043 1951M1593 1952.48C1565.32 1956.59 1560.66 1980.41 1543.78 1999C1540.21 2002.93 1523.72 2017.55 1534.16 2022.6C1543.59 2027.16 1567.9 2011.29 1578 2008.94C1609.45 2001.61 1642.64 2006.51 1666.92 2030.14C1695.53 2058 1710.08 2097.82 1726.72 2133C1731.74 2143.62 1714.07 2171.42 1729 2169.38C1743.29 2167.44 1768.92 2145.07 1768.87 2130C1768.83 2119.36 1758.86 2103.04 1753.34 2094C1727.53 2051.71 1698.33 2017.79 1661.09 1985.34C1640.17 1967.12 1624.52 1947.8 1593 1952.48M1341 1954C1340.45 1955.64 1340.64 1955.45 1339 1956C1339.55 1954.36 1339.36 1954.55 1341 1954M1926 1954C1925.26 1956.18 1924.9 1956.72 1923 1958L1924 1954L1926 1954M540 1955C540.393 1975.62 539.478 2009.76 564 2017.24C576.321 2020.99 589.612 2016.98 602 2016C594.817 2030.8 590.851 2044.6 594 2061C585.468 2057.06 580.48 2047.29 570 2046.54C562.602 2046.01 553.379 2055.64 546.596 2053C542.354 2051.35 540.02 2039.98 536.581 2036.36C526.595 2025.84 509.89 2020.42 501 2010C512.159 2005.48 530.982 1995.32 534.934 1983C537.915 1973.71 533.488 1963.39 540 1955M1724 2166C1726.96 2158.93 1732.58 2152.9 1733.37 2145C1735.21 2126.37 1717.64 2100.75 1708.89 2085C1685.92 2043.67 1660.78 2006.26 1610 1999.56C1593.48 1997.38 1568.57 2005.74 1554 2013.16C1551.2 2014.59 1538.23 2022.42 1535.58 2018.03C1532.55 2012.99 1549.95 1998.8 1552.85 1995C1570.51 1971.87 1577.78 1949.41 1613 1957.12C1635.98 1962.15 1643.51 1975.1 1660.04 1989.6C1695.59 2020.78 1725.82 2054.76 1749.47 2096C1754.21 2104.25 1763.76 2121.55 1763.68 2131C1763.54 2145.97 1737.81 2165.79 1724 2166M1335 1956C1333.77 1958.01 1333.01 1958.77 1331 1960C1331.94 1957.49 1332.49 1956.94 1335 1956M932 2076C929.085 2059.39 936.857 2041.25 939.738 2025C943.701 2002.66 940.187 1978.77 951 1958C942.686 1957.72 941.995 1971.72 940.926 1978C936.895 2001.7 933.537 2026.2 930.002 2050C928.993 2056.79 922.669 2073.52 932 2076M1917 1960C1915.82 1959.23 1915.77 1959.18 1915 1958C1916.64 1958.55 1916.45 1958.36 1917 1960M257 1961C251.377 1980.34 243.119 2003.45 222 2010C221.071 2000.24 215.897 1989.91 210.122 1982.01C208.067 1979.2 200.643 1974.74 200.643 1971.16C200.644 1966.96 210.002 1964.96 213 1964.08C228.138 1959.63 241.783 1960.57 257 1961M825.817 1961.41C820.507 1965.28 822.941 1979.49 823.562 1985C825.959 2006.3 821.994 2027.72 822 2049C822.001 2051.5 822.476 2074.16 826.344 2072.24C829.668 2070.58 825.895 2051.74 826.131 2048C827.527 2025.97 828 2004.09 828 1982C828 1979.49 829.515 1958.71 825.817 1961.41M80 2063C90.357 2055.25 98.8377 2044.16 108 2035C109.066 2051.01 80.529 2071.38 76 2088C103.259 2081.62 112.687 2041.87 136 2029C126.305 2049.82 113.195 2065.43 107 2088C114.808 2081.75 120.985 2073.15 128 2066C128.367 2068.39 116.699 2112.99 129 2086C126.465 2088.7 124.623 2090.18 121 2091C125.62 2079.24 130.683 2065.79 137.224 2055C141.056 2048.68 148.215 2042.76 148 2035C137.181 2047.39 125.689 2074.16 110 2080C116.328 2055.92 137.327 2039.32 145 2016C128.385 2028.41 114.933 2047.95 101.496 2063.68C95.6734 2070.5 90.1767 2080.88 81 2083C88.7322 2061.54 109.049 2038.6 123.439 2021C126.636 2017.09 135.254 2002.78 141.139 2004.5C170.091 2013 165.633 2042.13 159.019 2065C156.556 2073.52 160.701 2081.74 151 2086C150.705 2078.83 157.065 2071.28 155.355 2064.18C153.116 2054.88 138.768 2073.12 137 2076C140.195 2073.63 148.095 2063.65 152.442 2065.1C158.049 2066.97 139.314 2099.31 158 2084C161.605 2087.36 183.731 2102.5 181.456 2106.9C179.237 2111.18 167.154 2111.56 163 2112.14C143.361 2114.9 126.275 2112.55 107 2108.69C49.6325 2097.22 41.9327 2050.79 60.1913 2003C66.7508 1985.83 83.3233 1976.58 100 1971C97.616 1982.16 84.7166 1992.05 75 1997C79.1795 1989.99 86.0569 1985.39 91 1979C77.5608 1987.55 64.7526 2004.79 58 2019C65.8882 2010.3 73.6482 2000.87 84 1995C82.8946 1998.5 81.2117 2001.08 79 2004C90.182 1994.69 98.2492 1981.07 108.199 1970.44C110.196 1968.31 115.596 1960.34 119.319 1962.05C122.216 1963.38 123.906 1977.59 125.712 1981C128.138 1985.58 137.664 1995.41 135.612 2000.56C125.434 2026.11 90.9168 2038.04 80 2063M249 1990C250.153 1984.65 265.042 1948.49 272.456 1966.5C274.715 1971.99 253.561 1987.59 249 1990M261.5 1963.5C260.872 1964.13 261.873 1965.13 262.5 1964.5C263.127 1963.87 262.128 1962.87 261.5 1963.5M2044 1965.33C2044.77 1965.33 2044.16 1965.83 2043.67 1965.67L2044 1965.33M1321 1968C1319.11 1973.27 1311.25 1977.77 1306 1979C1309.23 1973.66 1315.36 1970.4 1321 1968M2044 1968C2045.36 1988.39 2037.89 2024.87 2012 2020C2014.69 2007.91 2024.5 1987.96 2033 1979L2034 1980C2027.67 1991.78 2026.87 2008.08 2016 2017C2036.76 2015.11 2031.11 1978.28 2044 1968M137 1970C137.757 1972.23 138.392 1973.28 140 1975C140.494 1971.86 140.036 1971 137 1970M282 2076C284.004 2055.47 301.24 2039.76 315 2026C284.785 2028.54 279.212 2088.66 249 2095C259.193 2066.17 290.19 2046.62 300 2019C287.011 2026.4 282.238 2045.45 269 2051C268.572 2064.53 253.586 2076.57 248.802 2089C244.266 2100.78 256.876 2095.07 261 2089.88C263.21 2087.1 265.464 2084.49 267.941 2081.94C271.733 2078.04 274.866 2073.53 279 2070C279.366 2080.6 286.443 2078.96 292.697 2072.64C302.223 2063.01 306.355 2048.55 317 2040C315.08 2094.17 264.761 2111.2 218 2114C218.997 2104.53 249.965 2070 250 2070C259.253 2052.55 272.222 2036.81 282.68 2020C286.519 2013.83 293.308 2008.6 294 2001C265.022 2028.58 250.302 2066.16 226.143 2096.86C222.505 2101.49 199.763 2126.19 193.761 2108.69C192.947 2106.31 214.748 2081.49 217.839 2077.44C233.309 2057.13 246.236 2034.99 262.5 2015C270.606 2005.04 283.188 1997.97 287 1985C276.476 1994.89 255.092 2020.74 240 2020C248.255 2008.99 260.781 2002.16 270 1992C266.9 1992.28 264.015 1993.24 261 1994C263.915 1988.8 272.136 1974.39 278.361 1973.24C283.744 1972.26 290.889 1980.51 293.999 1984.03C304.628 1996.03 316.159 2010.2 317.231 2027C317.834 2036.45 304.299 2049.57 299.013 2057.14C293.954 2064.38 291.788 2074.57 282 2076M194.997 1974.45C209.263 1973.64 231.199 2015.04 203.001 2016.76C179.417 2018.21 164.723 1976.17 194.997 1974.45M104 1990L110 1987C96.8766 1999.87 64.9028 2022.71 64 2042C78.791 2030.05 92.339 2011.41 105.177 1997C109.93 1991.67 116.821 1986.62 117 1979C111.022 1981.62 106.169 1983.38 104 1990M675 1982C672.111 1989.37 663.284 1995.3 657.845 2001.04C642.277 2017.47 617.466 2047.26 596 2055C597.167 2042.47 596.955 2025.86 607.317 2016.67C616.973 2008.12 632.848 2006.35 644 1999.69C654.775 1993.27 661.314 1982.64 675 1982M1307 1982C1303.53 1993.71 1284.51 2004.79 1274 2010C1280.86 1999.54 1295.26 1986.63 1307 1982M258 1988C255.95 1993.13 234.32 2026 227.784 2022.47C215.094 2015.63 252.618 1991.2 258 1988M651 1990C642.145 2000.01 627.277 2004.7 615 2009C621.169 1997.88 638.899 1991.18 651 1990M54 2062C74.4642 2049.61 85.8798 2026.36 106 2014C96.2963 2031.98 67.2265 2052.44 70 2075C73.5291 2072.65 75.4575 2069.93 77 2066L73 2068C82.8836 2040.05 117.946 2019.37 124 1991C105.956 2001.43 88.7502 2026.65 73.6798 2041.56C67.2411 2047.93 56.8986 2053.12 54 2062M860 2029C863.082 2038.72 864.806 2048.79 865 2059L868 2059C868 2047.94 862.019 2033.1 863.733 2023C865.793 2010.86 886.351 1980.9 897.74 2003.02C903.78 2014.75 896.12 2037.21 896 2050C910.48 2039.06 906.75 1987.61 882 1991.37C867.329 1993.6 866.02 2008.36 860.236 2018.99C858.655 2021.9 851.886 2027.43 853.85 2031.13C855.299 2033.86 858.904 2029.98 860 2029M2008 1993C2006.7 1998.28 1998.15 2032.47 1989 2026.34C1986.46 2024.64 1990.07 2018.05 1990.73 2016C1994.39 2004.49 1995.37 1997.26 2008 1993M86 1994L85 1995L86 1994M1275 1997L1274 1998L1275 1997M1271 1999C1266.03 2007.07 1258.61 2013.49 1251 2019L1250 2018C1255.8 2010.59 1262.65 2003.46 1271 1999M1986 1999C1985.5 2002.58 1984.36 2005.66 1983 2009C1985.74 2004.96 1987.4 2001.06 1992 1999C1990.49 2006.65 1988.64 2021.16 1984.74 2027.65C1981.26 2033.44 1974.32 2035.85 1972.45 2043C1968.86 2056.76 1975.25 2072.62 1964.84 2083.98C1952.39 2097.56 1932.72 2098.24 1919.36 2110.6C1910.44 2118.85 1911.78 2151.54 1896 2146C1906.52 2128.56 1909.03 2113.3 1912.69 2094C1914.14 2086.34 1913.05 2078.07 1922 2076C1921.8 2078.93 1915.18 2113.94 1924 2099L1920 2100C1921.24 2087.97 1925.68 2076.71 1935 2069C1935.63 2078.46 1927.79 2090.53 1924 2099C1937.14 2085.97 1947.81 2059.13 1951.96 2040C1954 2030.59 1951.61 2014.12 1965 2013C1954.34 2030.74 1945.01 2063.36 1945 2084C1944.96 2084.02 1964.21 2036.5 1957 2062C1959.68 2057.01 1961.36 2051.63 1962 2046L1965 2046L1965 2051C1966.65 2044.96 1966.95 2035.71 1970.58 2030.56C1974.06 2025.61 1979.96 2026.51 1983 2019C1971.5 2030.49 1976.79 2001.43 1986 1999M1973.4 2001.11C1975.35 2000.33 1973.34 2022.27 1969.54 2024.24C1969.47 2024.28 1968.5 2003.07 1973.4 2001.11M456 2001C454.007 2002.16 453.314 2002.23 451 2002C452.75 2001.36 454.127 2001.14 456 2001M951 2076C955.209 2057.11 992.855 2034.34 1006.32 2020.08C1008.51 2017.76 1025.87 2005.7 1023.03 2003.28C1018.41 1999.35 1006.73 2013.25 1004.01 2016C989.093 2031.05 973.428 2044.69 958.077 2059.22C954.322 2062.78 941.254 2073.04 951 2076M234 2058L235 2059L239 2057C236.139 2062.45 232.366 2067.29 230 2073C239.056 2066.8 244.473 2052.88 250.764 2044.02C260.376 2030.48 278.444 2017.7 284 2002C260.785 2012.12 250.33 2040.43 234 2058M198 2022C192.36 2023.21 176.76 2026.1 178 2017C172.535 2016.6 168.034 2007.19 174.604 2005.14C180.719 2003.23 194.831 2017.4 198 2022M456 2012C441.792 2008.91 450.021 2000.51 456 2012M471 2004C468.741 2006.42 467.08 2005.9 464 2005C466.372 2004.18 468.487 2004.05 471 2004M478 2011C472.681 2017.09 463.73 2014.26 460 2008C466.049 2009.29 471.902 2010.15 478 2011M483 2008C482.227 2009.18 482.175 2009.23 481 2010C481.545 2008.36 481.365 2008.55 483 2008M1982 2009L1981 2014C1981.96 2012.11 1982.25 2011.1 1982 2009M219 2014C234.851 2046.09 213.087 2085.93 189 2107C181.571 2099.92 170.26 2093.89 165.07 2085C157.494 2072.02 162.803 2054.32 177 2054C171.573 2047.5 172.577 2043.28 176 2036C172.48 2038.25 170.2 2041.03 166 2042C167.146 2035.18 168 2028.95 168 2022C189.206 2025.53 199.967 2027.53 219 2014M503 2121C497.975 2128.47 488.419 2133.34 480 2136C481.841 2119.12 502.451 2094.69 513.361 2082C517.075 2077.68 530.279 2068.2 528.886 2061.61C528.013 2057.48 519.126 2052.25 516 2049.6C501.24 2037.13 480.188 2033.19 467 2019C491.69 2014.15 508.319 2015.46 527.981 2032.41C534.381 2037.92 543.15 2047.39 540.48 2056.86C536.455 2071.14 512.299 2088.41 503.611 2102C499.935 2107.75 493.281 2118.26 503 2121M877 2016C877.814 2019.26 878.74 2020.19 882 2021C880.857 2018.09 879.913 2017.14 877 2016M168.667 2018.67C168.722 2018.72 168.778 2019.78 168.333 2019.33C168.278 2019.28 168.222 2018.22 168.667 2018.67M237 2029C241.471 2027.43 244.898 2024.31 249 2022C245.087 2033.63 234.25 2053.75 224 2061C225.161 2052.07 225.597 2037.1 228.822 2029.02C231.132 2023.24 240.551 2020.32 237 2029M1254 2022L1255 2023C1253.38 2024.75 1252.06 2025.8 1250 2027C1251.17 2024.84 1252.16 2023.64 1254 2022M1248 2029C1244.24 2035.15 1240.19 2040.22 1233 2042C1236.39 2036.43 1242.07 2031.71 1248 2029M1963 2032C1964.77 2037.47 1962.68 2042.81 1958 2046C1959.02 2041.2 1960.82 2036.4 1963 2032M1221 2046C1220.1 2048.12 1220.12 2048.1 1218 2049C1218.9 2046.88 1218.88 2046.9 1221 2046M1233 2046C1229.25 2052.47 1224.77 2057.64 1218 2061C1220.65 2054.37 1226.42 2048.76 1233 2046M1562 2114C1574.58 2106.28 1588.46 2088 1597.07 2076C1600.31 2071.49 1607.13 2059.28 1612.48 2057.64C1616.85 2056.31 1625.85 2069.06 1629 2071.68C1641.96 2082.49 1680.96 2090.78 1684.98 2109.69C1686.48 2116.75 1669.41 2131.49 1665 2136C1658.72 2142.43 1651.8 2154.54 1642.78 2157.38C1633.36 2160.35 1618.1 2150.56 1611 2145.47C1597.71 2135.93 1579.37 2125.59 1565 2118C1566.48 2125.22 1572.9 2130.8 1579 2134.57C1594.61 2144.19 1626.03 2166.06 1645 2160.4C1654.83 2157.46 1663 2144.04 1670 2137C1675.51 2131.45 1690.08 2118.52 1689.9 2110C1689.59 2095.99 1655.74 2080.47 1645 2075.24C1636.49 2071.09 1619.88 2050.64 1612.32 2050.64C1608.29 2050.64 1602.4 2062.99 1600 2066C1589.71 2078.9 1563.58 2097.19 1562 2114M1216 2051C1212.71 2057.18 1207.31 2062.91 1201 2066C1204.11 2059.54 1209.96 2054.72 1216 2051M620 2104C624.543 2115.1 631.025 2125.75 635 2137C612.04 2129.69 577.32 2092.79 568 2071C568.665 2070.6 574.794 2067.04 572.678 2065.58C569.947 2063.69 562.483 2072.78 560.809 2074.36C549.945 2084.62 540.375 2099.55 526 2105C534.739 2084.18 554.37 2032.1 584.999 2058.26C595.052 2066.84 607.009 2110.76 620 2104M2108 2054.48C2098.61 2055.2 2089.72 2053.96 2082.02 2060.42C2055.09 2083 2056.35 2126.29 2097 2123.15C2120.15 2121.37 2122.52 2098.97 2123.92 2082C2124.97 2069.37 2125.87 2053.12 2108 2054.48M612 2081C609.615 2079.22 591.704 2062.54 599.605 2059.11C603.741 2057.31 611.543 2077.7 612 2081M2093 2059C2088.8 2063.77 2083.55 2067.54 2079 2072C2079.09 2065.03 2086.84 2060.25 2093 2059M2114 2059C2119.5 2062.42 2120.85 2066.73 2121 2073C2117.26 2069.85 2116.11 2063.99 2113 2060L2114 2059M2105 2063C2102.7 2063.68 2101.35 2063.54 2099 2063C2101.3 2062.32 2102.65 2062.46 2105 2063M244 2065C236.565 2072.58 224.74 2082.49 222 2093C230.008 2084.29 237.296 2074.98 245 2066L244 2065M541 2065C538.324 2080.54 529.234 2096.46 518.672 2107.96C516.086 2110.77 506.728 2120.22 502.282 2115.72C498.665 2112.06 506.018 2103.75 508.061 2101C517.385 2088.44 526.787 2072.57 541 2065M2090 2068C2087.52 2071.63 2084.88 2075.01 2083 2079C2080.79 2073.67 2085.26 2069.75 2090 2068M2113 2078C2102.45 2076.07 2098.98 2074.04 2088 2076C2093.71 2066.08 2108.96 2067.09 2113 2078M223 2072C224.948 2072.21 225.126 2071.97 227 2071C225.052 2070.79 224.874 2071.03 223 2072M1197 2071C1194.7 2074.89 1192.29 2077.46 1188 2079C1190.61 2075.55 1193.17 2073.04 1197 2071M2122 2076C2120.82 2075.23 2120.77 2075.18 2120 2074C2121.63 2074.54 2121.46 2074.37 2122 2076M905 2078C894.706 2078.86 884.412 2076.28 874 2077.22C867.279 2077.82 860.687 2079.24 854 2080.06C846.868 2080.93 838.633 2079.98 832.014 2083.03C830.368 2083.79 823.381 2088.5 828.195 2090.25C830.347 2091.03 834.814 2085.32 838.027 2085.07C853.515 2083.88 869.448 2082 885 2082C891.259 2082 903.013 2085.76 905 2078M2102 2077C2098.29 2083.05 2087.89 2095.19 2082 2099C2082.73 2086.57 2089.57 2078.28 2102 2077M134 2078L135 2079L134 2078M225 2078C224.528 2079.42 224.186 2079.81 223 2081L224 2082L227 2079C226.35 2077.7 226.853 2078 225 2078M2081 2078L2080 2079L2081 2078M1913 2080C1901.44 2094.44 1898.62 2114.64 1900.14 2132C1900.41 2135.04 1898.01 2141.36 1894.21 2141.36C1888.79 2141.36 1892.75 2125.9 1893.25 2123C1895.88 2107.86 1894.56 2081.94 1913 2080M2081 2080C2080.18 2082.03 2079.75 2082.73 2078 2084L2079 2080L2081 2080M605 2081C613.014 2086.52 615.985 2094.67 616 2104C610.462 2100.39 604.668 2087.62 605 2081M2113 2081C2115.71 2084.12 2116.56 2086.92 2117 2091C2113.22 2088.43 2111.62 2085.51 2113 2081M613 2082L612 2083L613 2082M2103.89 2083.07C2114.03 2081.28 2096.68 2102.08 2092.93 2102.46C2083.51 2103.41 2098.05 2084.09 2103.89 2083.07M1194.67 2087.67C1194.72 2087.72 1194.78 2088.78 1194.33 2088.33C1194.28 2088.28 1194.22 2087.22 1194.67 2087.67M1176 2090C1173.15 2102.08 1178.53 2111.34 1181 2123C1173.18 2115.98 1165.91 2097.11 1176 2090M1896 2092C1895.51 2096.98 1894.21 2102.14 1893 2107C1891.36 2102.02 1892.12 2096.81 1894 2092L1896 2092M2118 2092L2118 2095L2116 2092L2118 2092M2072 2093C2074.34 2098.7 2077 2103.64 2080 2109C2073.84 2106.45 2069.97 2099.54 2072 2093M215 2094C213.246 2096.64 211.934 2098.98 211 2102C214.341 2101.14 216.337 2099.13 219 2097L215 2094M2110 2094C2108.28 2099.61 2104.62 2102.57 2099 2104C2100.75 2097.97 2103.62 2094.71 2110 2094M1186 2098C1185.22 2100.93 1184.48 2102.26 1182 2104C1183.03 2101.42 1184.01 2099.94 1186 2098M1191 2099L1191 2103C1190.49 2101.31 1190.49 2100.69 1191 2099M1886 2103C1885.55 2114.16 1886.52 2125.19 1889 2136C1876.48 2130.62 1879.57 2112.75 1884 2103L1886 2103M2068 2103C2073.51 2108 2080.23 2113.58 2084 2120C2075.17 2119.12 2065.39 2113.38 2068 2103M1190 2104C1189.12 2107.36 1188.48 2109.99 1185 2111C1186.21 2107.9 1187.32 2105.99 1190 2104M1181.67 2105.67C1181.72 2105.72 1181.78 2106.78 1181.33 2106.33C1181.28 2106.28 1181.22 2105.22 1181.67 2105.67M2113 2105C2111.56 2109.44 2109.61 2111.9 2105 2113L2111 2105L2113 2105M2091 2107C2089.05 2108.03 2088.22 2108.14 2086 2108C2087.99 2106.84 2088.69 2106.77 2091 2107M2103 2108C2101.86 2110.91 2100.91 2111.86 2098 2113C2099.14 2110.09 2100.09 2109.14 2103 2108M1905 2111C1905.3 2115.61 1904.33 2119.61 1903 2124C1901.91 2119.7 1903.29 2115.02 1905 2111M2092 2114L2092 2117C2088.93 2116.63 2087.32 2116.04 2085 2114L2092 2114M1058 2117C1058.94 2119.51 1059.49 2120.06 1062 2121C1060.77 2118.99 1060.01 2118.23 1058 2117M1187 2117C1186.59 2119.09 1186.78 2119.02 1185 2120L1187 2117M1192 2119C1196.95 2124.09 1193.99 2133.8 1187 2128C1190.58 2125.65 1191.18 2123.04 1192 2119M1185.67 2125.67C1185.72 2125.72 1185.78 2126.78 1185.33 2126.33C1185.28 2126.28 1185.22 2125.22 1185.67 2125.67M1887 2142C1884.88 2141.1 1884.9 2141.12 1884 2139C1886.12 2139.9 1886.1 2139.88 1887 2142z"/>
</svg>
