<?xml version="1.0" standalone="yes"?>
<svg xmlns="http://www.w3.org/2000/svg" width="2200" height="2200">
<path style="fill:#0f0f0f; stroke:none;" d="M1328 102C1368.99 77.9226 1335.56 35.0186 1299 37.0806C1279.45 38.1833 1248.77 49.3765 1243.81 70.9917C1242.37 77.2358 1251.24 94.0674 1251.86 103C1253.57 127.454 1245.53 150.583 1232.56 171C1220.35 190.229 1203.59 206.378 1180 207.016C1178.93 207.045 1167.93 207.949 1171.11 210.881C1182.9 221.781 1210.58 202.56 1218.22 194.856C1239.83 173.061 1253.36 145.804 1254.92 115C1255.62 101.169 1245.43 70.5198 1254.18 61.3228C1272.4 42.1733 1331.84 25.1609 1341.34 63C1345.51 79.6199 1331.68 87.9705 1328 102M947 49L951 45C952.242 88.8398 933.418 144.343 884 152C890.588 131.954 891.483 109.615 886.961 89C886.405 86.4629 879.112 63.2612 874.38 69.0278C872.313 71.5464 883.564 96.3201 883.915 102C884.712 114.92 887.217 139.752 878.76 150.656C875.688 154.618 869.784 149.593 867.544 152.77C865.075 156.27 874.547 157.015 876 157C871.775 176.463 837.573 207.699 816 203.26C806.827 201.373 810.131 196.993 805.801 193.244C803.416 191.178 799.155 194.351 799.106 197.021C798.779 214.695 832.073 204.734 839 201.248C860.294 190.529 866.157 172.714 882.446 158.683C897.236 145.943 918.409 143.652 932.856 127.998C947.815 111.789 951.079 83.2058 953.562 62C954.118 57.2468 957.9 42.6694 953.27 39.4077C949.525 36.7688 947.431 46.9683 947 49M999 127C991.685 119.822 975.651 119.302 974.045 107C971.094 84.3975 1016.64 42.4355 1039 51.5886C1062.56 61.2344 1079.31 114.205 1051.86 128.499C1043.57 132.815 1019.67 124.41 1032 117C1029.7 110.486 1021.57 115.24 1022.7 121.001C1027.28 144.484 1059.55 133.767 1066.76 119C1077.06 97.9077 1064.33 53.9919 1039.91 47.5532C1024.89 43.593 1009.55 53.3733 998.576 62.3667C989.973 69.4175 981.502 76.5127 975.443 86C964.92 102.475 973.878 134.215 999 127M1775 66C1771.48 54.0522 1736.27 56.9177 1726 56.998C1676.07 57.3892 1621.26 71.6909 1572 80.5618C1557.58 83.1587 1543.29 86.3691 1529 89.666C1525.51 90.4719 1517.02 91.7048 1516.32 96.2178C1515.49 101.567 1528.29 94.1338 1531 93.7209C1546.02 91.4277 1561.14 87.592 1576 84.3416C1601.02 78.8694 1626.75 77.5674 1652 73.5283C1695.34 66.5955 1730.89 58.5862 1775 66M298 69C308.355 80.9219 313.312 107.58 316.4 123C317.168 126.836 317.764 142.347 320.802 144.375C325.405 147.448 321.475 123.899 321.151 122C317.51 100.728 309.105 79.8398 301 60C293.409 64.7666 293.328 75.4087 289.834 82.9976C283.789 96.1304 275.025 106.947 265.988 118.078C263.744 120.841 254.272 131.215 257.36 135.097C261.062 139.749 268.41 123.217 270.169 121C281.787 106.356 295.459 88.0977 298 69M197 66C189.406 86.0735 178.498 104.971 165.66 122.136C159.515 130.354 150.161 136.487 146 146C133.005 128.546 128.964 107.535 120.521 88C118.226 82.6904 113.161 71.4756 106.276 71.187C102.502 71.0288 98.0986 85.7822 96.4381 89C87.9193 105.509 78.4777 121.055 68.9835 137C66.8999 140.499 61.5268 150.238 65.6198 153.819C84.6195 170.441 123.945 149.447 145 156C152.967 136.22 174.774 117.304 186.43 98C189.055 93.6536 192.845 78.4355 197.54 76.6433C200.533 75.5007 208.839 87.8215 211.007 89.8638C224.28 102.363 244.768 120.747 246 140C238.165 139.052 230.916 143.516 223 143.922C208.803 144.65 194.291 142 180 142C173.58 142 163.994 139.947 161 147C184.497 147 229.413 157.292 248.479 140.867C254.007 136.104 246.542 124.186 243.33 120C232.842 106.332 221.005 95.0496 209.583 82.3201C205.078 77.3 202.78 69.5164 197 66M1597 282C1583.19 286.915 1541.01 301.823 1528.94 287.499C1521.75 278.97 1531.43 262.284 1531.79 253C1532.99 222.499 1526.35 189.907 1526.01 159C1525.83 143.327 1525.91 127.56 1527.93 112C1528.26 109.41 1533 97.6433 1527.35 97.6433C1522.44 97.6433 1522.1 135.995 1522.02 141.04C1521.42 178.366 1525.66 215.891 1527.36 253C1527.83 263.397 1518.31 281.645 1525.26 291.396C1528.04 295.298 1538.55 295.325 1543 295.992C1564.81 299.264 1584.09 284.8 1605 285.483C1613.96 285.775 1623.21 291.889 1632 293.833C1649.59 297.726 1693.53 298.308 1708.95 287.977C1720.71 280.1 1721.97 243.792 1725.5 230C1738.7 178.34 1745.98 117.236 1769 69C1755.32 68.5842 1752.64 106.483 1749.84 117C1739.49 155.852 1730.67 195.141 1720.03 234C1717.01 245.011 1716.71 267.679 1710.5 276.539C1706.47 282.292 1682.47 276.406 1676 276.078C1645.96 274.557 1617.68 278.99 1588.44 275.36C1585.43 274.986 1561.57 272.319 1562.32 275.871C1563.28 280.394 1592.2 280.338 1597 282M1977 86C1979.49 84.1746 1980.96 83.3574 1984 83C1979.92 79.0059 1950.35 90.0044 1943 92.355C1905.79 104.261 1863.51 121.04 1872 169L1865 169C1868.91 178.891 1874.82 176.204 1859 182C1863.43 183.971 1867.66 180.566 1870 186C1878.14 181.464 1879.29 182.784 1888 185C1885.85 181.771 1882.72 179.732 1880 177C1882.89 176.329 1885.34 175.309 1888 174C1890.15 194.677 1926.61 200.532 1938 185C1926.02 186.886 1913.93 194.229 1902.02 187.055C1898.95 185.202 1889.33 177.361 1893.65 173.247C1902.85 164.467 1930.58 183 1903 183C1903.35 182.056 1906.24 175.723 1903.04 176.323C1894.07 178.002 1903.72 185.523 1908 185.996C1919.06 187.218 1927.26 182.302 1938 181C1937.23 180.411 1932.48 176.93 1935.51 176.055C1939 175.045 1945.76 187.539 1947.56 190C1956.58 202.36 1968.42 227.063 1981 235C1978.36 220.467 1966.39 209.074 1957.51 198C1954.82 194.653 1946.88 185.998 1947.52 181.358C1947.99 177.943 1957.16 177.27 1959.75 175.905C1965.76 172.731 1996.23 157.849 2001.7 167.597C2009.24 181.035 1969.44 210.318 1985 221C1985.94 200.185 2012.23 181.536 2010 161C2007.81 162.459 2006.54 163.859 2005 166C2001.98 160.35 2005.25 157.485 2007 152C1999.92 156.692 1996.5 156.671 1997 147C1992.53 147.174 1991.12 145.154 1990 141C1994.33 142.846 2000.9 141.084 2004.44 143.862C2013.91 151.3 2015.85 168.575 2027 177.254C2030.08 179.648 2045.19 187.683 2043 191.938C2032.79 211.758 2001.58 217.429 1991 238C2012.27 232.425 2025.58 201.905 2047.02 197.355C2055.03 195.655 2068.06 192.026 2076 194.779C2101.11 203.489 2126.92 244.997 2155.41 217.189C2159.08 213.615 2159.22 207.446 2161.45 203C2165 195.946 2163.3 191.511 2163 184C2165.06 185.845 2166.5 187.682 2168 190C2172.54 167.067 2144.85 145.843 2132.44 131.894C2124.57 123.054 2122.87 115.038 2110.56 109.645C2101.95 105.872 2091.12 107.894 2082 105.404C2069.41 101.964 2060.27 103.481 2048 101.588C2045.45 101.195 2037.9 101.398 2037.21 97.9341C2036.49 94.3345 2045.01 94.1094 2047 94.0417C2058.83 93.6401 2067.87 98.8357 2079 101C2074.8 94.6892 2067.02 93.1082 2063 87C2067.34 88.417 2071.43 89.6821 2076 90C2070.14 82.1611 2057.41 86.0356 2049 86.7827C2026.02 88.8235 2005.84 93.4033 1983 96C1986.68 91.5598 1989.5 91.3474 1995 92C1985.91 77.0278 2027.01 82 2034 82C2014.39 67.0388 1995.24 88.8318 1977 86M141 151C123.682 149.32 105.688 154.014 88 153.077C83.2317 152.824 72.4722 153.876 69.0066 149.877C65.7585 146.128 73.7361 136.148 75.7774 133C84.2232 119.974 91.3212 106.51 98.8896 93C100.795 89.5989 104.49 81.001 108.481 79.7612C113.546 78.1885 117.12 90.7734 118.032 94C123.501 113.351 137.551 131.722 141 151M503 150C506.324 147.697 510.472 138.521 514.362 138.52C520.875 138.517 530.44 151.635 537 154.54C547.824 159.332 556.869 153.772 566.993 156.623C571.886 158 573.5 161.487 572 166C586.249 169.211 581.75 188.164 573.912 195.679C558.393 210.56 533.091 205.999 519.187 220.163C502.536 237.126 524.987 267.729 545 268.834C562.334 269.79 567.032 247.73 548 245C549.629 248.977 555.363 252.623 555.357 256.979C555.345 265.983 543.041 264.234 538 262.297C527.271 258.175 514.409 241.234 519.287 229.003C523.814 217.651 537.824 216.784 548 214.243C567.507 209.373 587.227 197.019 586 175C609.107 193.963 638.985 175.177 638.985 147C638.985 138.045 627.58 119.672 641.003 116.505C653.715 113.506 664.443 134.654 664.656 144.997C665.003 161.921 643.516 150.533 640.864 157.379C638.635 163.132 659.553 160.214 661.973 158.716C678.708 148.356 663.292 118.234 649 113.206C642.009 110.747 631.881 112.377 630.413 121.003C628.715 130.983 635.984 141.399 634.821 152C631.856 179.005 606.155 182.808 587 171C588.598 169.519 589.108 168.938 590 167C561.482 152.451 591.757 129.248 595.595 105C596.301 100.534 601.373 82.4207 596.286 79.625C591.268 76.8677 593.204 98.3423 592.739 101C588.92 122.836 579.781 147.123 556 152.212C534.84 156.741 529.468 131.6 513.982 131.224C505.397 131.015 501.411 143.429 503 150M1977.78 90.2219C1981.26 89.1553 1980.87 95.4055 1977.7 96.0308C1973.94 96.7698 1975.11 91.0393 1977.78 90.2219M2036 90C2030.06 96.8486 2023.66 98.6587 2015 97C2019.08 90.7705 2029.08 90.4246 2036 90M1616 186C1627.73 182.177 1628.18 191.762 1618.95 197.877C1608.63 204.711 1565.59 212.279 1558.26 198.893C1554.63 192.271 1559.62 184.496 1561 178C1550.79 186.02 1549.64 201.651 1563 207.228C1579.37 214.062 1637.47 209.622 1628 182C1644.9 188.82 1648.5 212.221 1644.95 228C1638.74 255.627 1617.92 272.758 1591 270C1600.27 280.438 1614.67 275.032 1624 267.463C1640.98 253.678 1652.48 231.106 1649.42 209C1647.75 196.98 1632.27 184.117 1632.11 175.108C1631.98 168.231 1643.05 174.389 1646 175C1637.26 154.128 1662.19 141.629 1678.98 152.317C1705.21 169.007 1693.32 218.401 1662 204C1661.66 214.472 1675 213.155 1681 208.981C1694.09 199.875 1702.57 186.103 1698 170C1693.95 155.743 1672.96 135.947 1657 143.888C1646.03 149.348 1644.98 158.237 1637.97 166.432C1635.82 168.94 1634.39 166.152 1634.41 163.941C1634.58 140.89 1659.38 112.556 1680 105.79C1691.6 101.983 1716.84 100.397 1718 117C1724.83 109.006 1714.26 102.642 1707 100.828C1693.63 97.4895 1677.83 100.921 1666 107.502C1651.4 115.622 1640.64 133.897 1634.54 149C1631.61 156.273 1631.67 168.407 1625 173C1623.05 152.085 1617.64 93.5789 1653 96C1643.5 85.406 1631.3 100.052 1626.95 109C1614.22 135.144 1622.6 160.237 1616 186M1958 92C1955.54 93.8196 1954.05 94.2041 1951 94C1953.46 92.1799 1954.95 91.7957 1958 92M1970 91C1967.95 97.4946 1964.16 98.8621 1959 94C1962.63 92.4683 1966.08 91.4458 1970 91M515 93C502.405 116.446 496.976 136.244 478.562 157C476.788 159 462.334 171.814 465.95 174.456C469.422 176.994 481.909 160.4 484.135 158C496.768 144.384 521.552 113.954 515 93M1943.96 96.5364C1947.98 96.2795 1949.41 100.979 1944.87 101.128C1940.36 101.277 1938.64 96.8767 1943.96 96.5364M2034 96L2034 98L2031 98L2031 96L2034 96M1951 102C1952.94 92.8906 1966.27 101.936 1951 102M1989 97C1986.96 102.367 1982.77 105.315 1977 105C1979.95 100.67 1983.84 97.9634 1989 97M2001.35 97.8411C2004.76 96.2805 2010.04 100.231 2005.57 102.585C2002.24 104.336 1996.94 99.8567 2001.35 97.8411M1925 98C1923.72 99.897 1923.18 100.259 1921 101C1922.26 99.374 1923.1 98.8696 1925 98M2015 128C2016.58 125.396 2017.85 122.819 2019 120C2024.27 126.625 2015.12 132.635 2009 134C2010.42 126.639 2021.71 102.397 2009 105C2012.21 97.3472 2017.74 98.938 2019.16 107.001C2020.48 114.585 2016.36 120.901 2015 128M1977 99C1976.13 101.648 1975.77 102.083 1973 102C1974.32 100.206 1974.91 99.7493 1977 99M1996 101C1984.67 115.13 1982.13 103.806 1996 101M1934 118C1932.7 114.63 1932.14 111.606 1932 108L1939 110C1929.78 100.966 1925.15 115.123 1926 123C1922.63 122.793 1919.32 122.6 1916 122C1919.24 117.146 1922.37 106.84 1927.15 104.067C1941.9 95.5017 1950.39 109.583 1934 118M1247 103C1245.41 110.428 1243.94 119.47 1245 127L1247 127C1248.29 119.777 1251.11 109.571 1247 103M1962 103C1958.5 108.368 1950.04 131.582 1942.99 131.375C1935.03 131.143 1936.5 113.766 1944.01 117.522C1946.33 118.681 1948.14 123.075 1950 125C1946.62 113.481 1948.96 105.708 1962 103M2029 103C2024.55 116.546 2028.78 123.672 2041 131C2031.8 142.721 2012.54 107.048 2029 103M1382 104C1377.13 122.924 1371.71 141.231 1371.04 161C1370.59 174.144 1372.25 191.679 1359.77 200.178C1344.74 210.423 1325.89 177.809 1315.86 191.148C1307.07 202.834 1304.75 224.776 1307.08 238.86C1308.21 245.67 1321.23 251.73 1326 246C1306.98 244.178 1305.26 204.835 1319.64 193.7C1324.51 189.929 1332.18 198.225 1336 200.718C1347.75 208.374 1363.12 208.608 1370.04 194.997C1377.45 180.422 1376.59 158.197 1377.96 142C1378.54 135.107 1378.09 123.332 1384 119L1384 127L1386 127C1385.97 121.101 1387.78 106.32 1382 104M1918 105C1916.45 107.066 1901.63 122.586 1898.76 117.153C1896.4 112.687 1914.84 105.24 1918 105M1968 109C1968.09 97.144 1982.72 118.02 1974.54 120.663C1971.3 121.709 1968.36 117.936 1964.98 118.315C1962.78 118.561 1957.25 123.059 1955.59 120.116C1951.94 113.65 1962.39 106.062 1968 109M2052 105C2045.96 112.158 2037.46 117.96 2045 128C2044.51 124.335 2045.46 101.391 2054.99 108.458C2059.26 111.624 2048.1 130.594 2040.99 128.031C2034.5 125.69 2024.31 111.579 2031.94 105.26C2035.96 101.933 2047.36 103.826 2052 105M2087 110C2082.96 116.901 2061.46 143.576 2050.4 131.778C2047.26 128.434 2061.87 106.179 2066.11 105.256C2070.96 104.201 2081.81 108.897 2087 110M1999.01 105.873C2008.45 102.624 2005.13 114.832 1998.79 116.895C1990.25 119.669 1992.86 107.991 1999.01 105.873M2013 107C2012.64 110.898 2011.77 113.207 2009 116C2008.72 111.87 2010.01 109.801 2013 107M1616 176C1609.54 160.452 1586.93 154.603 1579.11 139C1569.94 120.696 1588.23 110.741 1604 115C1596.02 101.916 1574.85 113.073 1571.73 125.04C1566.82 143.829 1600.1 172.134 1616 176M1982 109L1982 114C1977.88 112.91 1978.72 110.816 1982 109M2128 128C2114.82 123.146 2104.42 117.274 2090 117L2090 119C2109.6 119.181 2105.53 122.633 2106.17 136.078C2106.41 140.948 2117.66 150.083 2108.85 153.338C2101.85 155.925 2084.47 147.405 2088.03 138.334C2090.8 131.259 2102.7 128.999 2109 127C2101.76 123.614 2082.92 133.425 2081.25 131.9C2072.47 123.864 2093.95 111.898 2102 115C2104.87 104.777 2125.79 122.82 2128 128M1914 114C1912.16 118.343 1910.29 122.585 1907 126C1907.51 120.547 1909.82 117.422 1914 114M2005.79 117.348C2009.67 117.142 2009.42 124.336 2005.79 124.359C2001.35 124.387 2001.33 117.584 2005.79 117.348M1930 117L1931 121C1929.34 119.596 1929.25 119.047 1930 117M1986 118C1985 119.924 1984.92 120.098 1983 121C1983.9 118.876 1983.88 118.899 1986 118M1990 125C1990.1 122.527 1990.38 120.394 1991 118C1994.74 120.812 1994.11 123.102 1990 125M1941 119C1941.74 121.177 1942.1 121.723 1944 123C1943.26 120.823 1942.9 120.277 1941 119M1902 121C1904.75 129.557 1894.55 144.542 1886 146C1886.49 140.796 1886.98 130.693 1891.16 126.958C1895.49 123.088 1898.74 128.375 1902 121M1970 122C1967.29 128.391 1962.44 123.042 1970 122M943 128C985.346 120.51 969.545 168.962 953.481 188.922C941.574 203.717 928.22 217.656 910 223.986C905.476 225.558 878.485 227.601 879.127 226.888C872.792 233.923 887.727 234.122 891 233.764C905.249 232.207 916.933 225.002 930 220C926.652 238.926 941.963 257.333 962 249.283C974.107 244.418 980.566 233.374 991 227C991 253.857 968.603 309.372 933 298.434C921.139 294.789 917.543 280.693 911.977 271C911.016 269.326 907.074 260.571 904.083 263.165C901.92 265.041 910.549 277.538 911.762 279.999C920.331 297.396 931.318 307.677 952 302.444C985.382 293.996 1003.92 238.689 987.902 210.96C980.854 198.76 974.491 188.304 959 188C965.483 174.566 980.712 152.636 976.159 137.001C973.172 126.744 948.602 114.804 943 128M1980 123C1979.64 127.957 1981.06 132.193 1982 137C1976.49 136.472 1975.24 134.018 1972 130L1972 136C1969.05 135.367 1966.67 134.416 1964 133C1968.41 128.955 1974.35 124.948 1980 123M1997 138L2002 129C1988.36 141.118 1991.75 124.615 1998.78 125.305C2007.03 126.115 2005.46 137.701 1997 138M1915.21 125.822C1927.53 120.236 1950.5 139.089 1937.2 146.342C1928.31 151.188 1901.18 132.179 1915.21 125.822M1963 128C1956.97 129.918 1949.01 146.634 1944.35 145.677C1940.95 144.98 1951.57 123.172 1963 128M1888 127C1886.61 132.099 1885.08 139.709 1880 142C1880.74 135.67 1883.03 131.051 1888 127M2118 127.333C2118.77 127.333 2118.16 127.831 2117.67 127.667L2118 127.333M2027 146C2005.84 142.325 2022.2 122.24 2027 146M1908 132L1909 136C1907.34 134.596 1907.25 134.047 1908 132M2078 136C2071.8 136.247 2066.18 138.721 2060 139C2063.71 134.564 2074.07 130.591 2078 136M2132 142C2126.35 140.673 2122.57 134.858 2117 139C2121.23 139.698 2123.41 140.946 2125 145C2096 141.585 2125.47 120.429 2132 142M1308 133.801C1303.43 134.984 1293.7 136.445 1291.72 141.387C1289.84 146.049 1292.18 158.517 1299.01 156.888C1308.84 154.546 1326.71 128.952 1308 133.801M1922 139C1925.29 137.523 1927.13 136.092 1929 133C1924.98 133.777 1923.03 134.95 1922 139M1989 138C1983.61 135.826 1987.99 131.914 1989 138M2028 133C2033.17 136.706 2035.28 139.571 2034 146C2030.05 143.045 2027.23 138.015 2028 133M1902 134C1902.78 138.04 1902.14 141.91 1902 146L1905 146L1905 138C1919.91 145.329 1902.67 150.198 1894 148C1896.33 143.205 1898.76 138.244 1902 134M1313 136L1313 140C1309.3 139.023 1309.3 136.978 1313 136M1878 136C1877.23 137.175 1877.18 137.227 1876 138C1876.54 136.365 1876.36 136.545 1878 136M1958.05 137.849C1973.5 132.127 1976.65 159.644 1965.68 162.882C1948.72 167.89 1940.89 144.199 1958.05 137.849M2048 138C2045.33 141.108 2041.82 142.655 2038 144C2039.32 138.494 2042.82 138.08 2048 138M2086 138L2086 141L2084 141L2084 138L2086 138M2146 150C2127.41 141.898 2140.81 135.397 2146 150M2009 140C2015.64 146.058 2020.98 148.743 2030 148C2027.69 153.66 2021.29 158.194 2016 161C2013.83 154.751 2008.3 146.595 2009 140M252 142C256.524 152.656 289.979 145.001 300 145C302.125 145 315.357 146.269 315.357 143C315.357 139.844 303.948 141 302 141L292 141C286.597 141 281.374 141.305 276 141.783C268.078 142.486 259.949 142 252 142M1303.72 142.419C1306.54 142.837 1304.95 147.013 1302.44 146.568C1299.72 146.087 1301.32 142.066 1303.72 142.419M1985 155C1982.36 157.26 1977.04 165.757 1972.85 163.972C1970.65 163.039 1974.21 144.157 1976.54 142.807C1984.27 138.323 1997.35 154.798 1993.61 161.112C1988.51 169.733 1979.95 164.551 1985 155M2078.73 142.563C2093.49 143.521 2097.29 189.979 2078.96 188.222C2064.54 186.84 2056.74 141.134 2078.73 142.563M2056 143C2054.75 152.602 2050.53 161.031 2042 166C2042.44 158.454 2048.08 144.975 2056 143M2065 144C2062.76 147.752 2060.8 150.759 2057 153C2058.11 148.774 2060.09 143.792 2065 144M2069 143.333C2069.77 143.333 2069.16 143.832 2068.67 143.667L2069 143.333M1887 162C1870.26 152.326 1884.13 138.607 1887.86 151.656C1888.69 154.563 1886.91 158.86 1887 162M2047 145C2039.84 162.493 2032.8 147.711 2047 145M1919.85 147.035C1927.36 144.128 1951.04 156.295 1935.66 161.123C1932.11 162.236 1915.19 148.837 1919.85 147.035M2134 147C2128.39 154.215 2122 158.108 2113 159C2115.79 151.778 2126.45 146.399 2134 147M2118 148.333C2118.89 148.333 2118.89 149.667 2118 149.667C2117.11 149.667 2117.11 148.333 2118 148.333M2132 171C2135.14 167.581 2138.74 167.253 2139 162C2143.74 163.55 2147.73 166.47 2152 169C2146.43 160.968 2138.33 158.969 2129 159C2136.58 137.466 2153.75 160.235 2158.08 171C2158.86 172.96 2162.49 181.863 2158.68 182.698C2155.34 183.427 2136.92 172.749 2132 171M1297 150C1298.92 150.902 1299 151.076 1300 153L1296 154L1297 150M1909 154C1905.41 158.961 1896.67 163.741 1891 166C1891.05 153.118 1896.99 150.954 1909 154M2037 181C2031.71 177.565 2023.03 172.514 2021.08 166.116C2019.87 162.104 2027.77 153.424 2031.9 154.743C2040.05 157.343 2038.35 174.929 2037 181M2090 153C2094.5 156.364 2098.34 160.013 2101 165C2095.48 163.859 2089.88 159.043 2090 153M1914.24 155.643C1918.84 155.643 1923.66 167.115 1916 166.966C1910.19 166.853 1909.5 155.643 1914.24 155.643M1935 169C1927.86 168.209 1923.26 163.713 1921 157C1927.52 158.65 1932.47 162.741 1935 169M1964 167C1958.31 174.124 1947.05 181.569 1941 171L1946 171C1940.4 165.231 1938.01 165.031 1942 157C1949.44 160.653 1955.88 164.782 1964 167M2061 157C2061.74 169.273 2067.76 178.547 2071 190C2063.66 186.337 2057.75 186.558 2051.72 179.919C2048.99 176.909 2041.04 163.384 2051 169C2052.33 163.139 2055.26 159.063 2061 157M2099 157L2098 158L2099 157M1907 160C1908.72 167.749 1902.7 169.268 1896 169C1898.76 165.172 1903.15 162.691 1907 160M2117 164C2113.52 163.417 2111.2 162.827 2109 160C2112.94 160.088 2115.27 160.236 2117 164M2134 161C2128.75 168.668 2117.03 159.995 2134 161M1877 162C1878.77 164.943 1880.7 167.448 1883 170L1884 164C1897.76 168.574 1867.36 175.991 1877 162M560 164C561.874 166.085 563.624 167.507 566 169C564.831 165.441 563.877 163.858 560 164M2114 170C2109.07 169.777 2105.15 168.999 2102 165C2106.93 165.097 2111.78 165.024 2114 170M204 166.708C164.178 177.352 131.403 232.473 130.041 272C129.138 298.174 143.683 337.947 178 321.857C181.494 320.219 207.506 304.841 204.456 300.888C201.586 297.168 188.538 310.92 185.96 312.359C171.134 320.63 153.235 324.041 141.664 307.99C132.404 295.144 133.823 273.497 137.233 259C145.967 221.857 166.811 186.674 204 172.5C214.035 168.676 228.757 188.335 229.981 187.456C239.75 180.449 211.341 164.746 204 166.708M2125 169C2122.99 169.671 2121.12 169.851 2119 170L2119 167L2125 169M1914 170C1939.2 170 1922.14 184.199 1914 170M1938 170L1938 172L1935 172L1935 170L1938 170M2100.03 170.969C2107.03 168.743 2102.34 183.972 2098.06 184.677C2093.03 185.505 2095.62 172.373 2100.03 170.969M1970 171L1971 172L1970 171M2120 171L2120 174L2117 174L2117 171L2120 171M2131 172C2129.77 174.009 2129.01 174.772 2127 176C2127.85 173.475 2128.51 172.97 2131 172M1877 173.333C1877.89 173.333 1877.89 174.667 1877 174.667C1876.11 174.667 1876.11 173.333 1877 173.333M2042 173C2047.08 178.991 2053.39 185.025 2057 192C2053.77 192.545 2051.21 192.701 2048 192C2050.51 184.178 2038.62 183.012 2042 173M2136 198L2141 198C2136.91 195.901 2130.81 196.468 2127.82 192.635C2117.26 179.095 2138.37 171.881 2147.19 180.763C2158.93 192.585 2143.16 207.523 2136 198M1278 233L1276 226C1305.39 231.522 1313.54 269.197 1281 278.453C1233.71 291.903 1226.56 209.337 1242 181C1231.08 179.207 1231.3 200.396 1231.04 208C1230.3 230.082 1231.88 267.761 1254 280.132C1284.22 297.031 1322.61 261.719 1299.33 232.06C1294.96 226.493 1282.71 219.675 1275.28 222.267C1268.84 224.518 1273.84 231.773 1278 233M2094 188L2086 189C2087.36 181.713 2092 180.036 2094 188M2120 189C2115.12 187.794 2113.03 184.807 2112 180C2117.13 181.171 2119.16 183.891 2120 189M2119 180.333C2119.77 180.333 2119.16 180.831 2118.67 180.667L2119 180.333M2135 180C2135.84 183.183 2136.7 183.986 2140 184C2138.72 181.529 2137.68 180.744 2135 180M2152 182C2154.88 184.381 2156.74 186.464 2158 190C2154.37 188.469 2152.26 186.004 2152 182M2113 200C2108.33 197.306 2105.39 194.278 2104 189C2109.76 190.347 2111.8 194.493 2113 200M2099 191C2100.27 192.543 2100.49 193.047 2101 195C2099 193.756 2098.44 193.309 2099 191M2115 191C2117.49 193.207 2118.88 194.873 2120 198C2116.51 196.637 2114.51 194.915 2115 191M2097 199C2093.96 198.317 2092.73 197.592 2091 195C2087.25 196.379 2085.36 196.355 2083 193C2090.31 191.435 2093.27 192.555 2097 199M961.001 193.476C972.707 190.954 988.92 209.708 987.237 221C985.547 232.338 967.453 245.226 957 247.403C920.674 254.97 935.478 198.976 961.001 193.476M2159 193C2160.2 194.778 2160.6 195.878 2161 198C2157.99 197.355 2157.5 195.613 2159 193M2101 196C2103.82 199.167 2105.76 201.931 2107 206C2103.03 203.831 2099.04 200.807 2101 196M2131 204C2126.62 203.012 2124.55 201.216 2123 197C2127.17 198.248 2129.43 199.898 2131 204M2147 202C2154.62 196.094 2156.17 203.514 2147 202M2117 208C2113.31 206.969 2111.91 205.743 2111 202C2114.71 202.92 2115.82 204.41 2117 208M2155 206C2150.77 219.165 2133.18 217.401 2126 207C2135.13 204.689 2145.61 206 2155 206M2144 219C2135.67 226.19 2124.74 220.29 2120 212C2128.55 214.68 2134.95 217.058 2144 219M2118 217C2115.63 216.25 2114.06 215.412 2112 214C2115.04 213.592 2116.26 214.545 2118 217M854 249C858.224 228.159 823.838 238.202 817.52 249.008C810.978 260.198 798.435 291.572 810.325 302.356C818.332 309.618 849.227 309.838 849.745 294.959C850.098 284.788 823.581 272.019 819.106 282.497C819.234 282.198 843.1 286.835 844.894 293.986C848.14 306.92 816.136 303.306 811.063 296.376C806.646 290.341 810.336 278.543 812.201 272C818.325 250.517 833.381 229.987 854 249M301 241C294.583 241.238 281.494 239.962 276.078 241.867C270.214 243.93 266.816 251.13 260 251.563C253.293 251.989 249.37 243.567 242 244.725C234.451 245.912 229.881 254.961 222 254.351C214.558 253.775 208.489 246.951 201 245.668C195.637 244.75 183.69 250.76 185.184 257.521C186.36 262.848 197.846 248.595 204 251.088C211.273 254.034 217.352 261.718 226 259.277C232.124 257.549 235.878 250.392 242 249.302C247.879 248.256 252.074 256.034 258 256.517C266.297 257.193 270.132 249.11 276.922 246.474C285.358 243.199 294.188 251.269 301 241M2091 295C2079.11 296.106 2067.61 289.216 2056 287.1C2040.41 284.257 2024.77 285.698 2009 286.019C2002.59 286.149 1986.07 291.609 1980.94 287.042C1973.84 280.726 1978.48 260.571 1980.84 253C1981.32 251.457 1985.81 243.014 1982.72 242.323C1977.31 241.114 1974.19 263.52 1973.8 267C1973.23 272.148 1975.51 285.259 1972.66 289.181C1970.38 292.323 1961.59 292.398 1958 293.224C1946.33 295.908 1935.21 300.609 1924 304.71C1921.81 305.512 1908.97 310.588 1914.05 314.649C1919.16 318.74 1944.67 301.71 1951 299.717C1982.29 289.86 2026.93 284.712 2059 292.331C2065.75 293.935 2089.3 306.414 2091 295M1709 281C1705.83 288.482 1693.91 286.976 1687 288.184C1663.63 292.27 1635.98 293.345 1614 284C1637.92 270.225 1682.24 281.949 1709 281M1981.67 286.333C1981.22 286.777 1982.28 286.722 1982.33 286.667C1982.78 286.222 1981.72 286.278 1981.67 286.333M813 502L821 498C801.605 516.879 777.907 528.632 758.043 546.363C747.869 555.445 751.029 568.31 766 566C763.485 563.162 756.933 561.87 756.283 557.81C754.548 546.984 789.517 530.162 797 524.696C809.028 515.91 820.076 501.201 833.078 494.482C850.145 485.663 887.347 490.172 902.997 500.146C921.227 511.763 929.759 528.589 927.056 550C925.643 561.186 922.466 575.386 909 573C911.015 580.391 912.468 586.169 901 588.801C895.883 589.976 889.13 584.862 884 583.837C873.14 581.667 847.474 584.459 839.618 593.28C832.016 601.815 845.97 601.003 851 600.999C864.948 600.986 882.169 600.736 895 595L892 604C902.951 599.757 909.84 584.175 921.32 579.525C940.271 571.848 960.821 603.746 958.734 619C952.662 663.367 881.677 678.752 846 669.482C831.322 665.669 829.558 658.605 826.753 646.376C826.362 644.67 824.411 643.451 822.791 644.466C816.587 648.351 824.056 660.413 827.261 663.513C838.81 674.685 855.801 675.837 871 675.992C901.281 676.302 933.373 664.896 952.623 640.981C975.137 613.011 957.93 579.593 923 576C926.633 566.47 931.109 558.436 931.863 548C935.971 491.168 878.443 486.137 837 489C848.679 471.028 875.46 445.84 871.583 422C868.207 401.235 821.092 391.318 808.803 408.1C797.257 423.869 819.746 443.151 830 451.86C833.101 454.495 842.255 464.421 847.031 461.68C849.657 460.172 836.741 452.818 835.32 451.532C826.736 443.767 804.189 428.666 810.062 414.027C817.52 395.437 868.147 405.016 867.075 426C865.955 447.93 845.94 471.51 831.661 486.949C825.961 493.111 815.07 493.14 813 502M172 676C169.695 665.766 147.669 654.203 139 648.484C120.69 636.403 103.593 620.352 97.4567 598C86.1692 556.886 127.065 550.452 145.25 522C164.301 492.194 169.58 450.977 181 418C191.596 443.796 177.669 478.608 193.29 503C199.991 513.463 207.019 527.908 217.001 535.446C244.454 556.179 284.828 552.631 295.738 593C297.549 599.701 301.633 608.293 298.197 615C289.873 631.249 270.441 634.785 258 646C288.041 649.028 311.679 613.16 299.287 587.438C275.873 538.834 215.355 546.943 194.814 494.864C186.431 473.611 192.894 448.884 189.518 427C188.957 423.361 184.821 407.003 180.17 407.003C176.902 407.003 173.661 426.829 172.595 430C163.997 455.585 157.737 481.886 147.745 507C136.686 534.797 106.31 541.136 94.2847 566C76.4423 602.891 114.596 635.602 140.008 655.336C149.737 662.892 159.676 673.135 172 676M1298 436C1303.03 447.204 1310.52 435.448 1319 434.436C1337.26 432.257 1358.66 425.889 1370.01 444.001C1379.26 458.749 1368.54 482.62 1362.92 497C1345.78 540.793 1301.67 589.589 1249.01 567.08C1232.43 559.993 1255.94 547.31 1246.29 537.44C1236.59 527.523 1215.8 517.079 1206.24 532.008C1200.5 540.977 1204.7 552.851 1214.01 557.759C1237.93 570.368 1301.81 614.033 1263.9 647.575C1228.82 678.607 1142.94 647.509 1134.71 602C1132.82 591.546 1139.03 585.029 1142 576C1128.91 574.009 1126.87 596.097 1129.96 606C1135.97 625.328 1154.42 639.546 1171 649.915C1195.16 665.024 1246.75 673.318 1269.64 649.678C1293.74 624.794 1266.6 587.749 1247 572C1279.82 573.467 1308.67 578.229 1334.76 551.781C1357.85 528.381 1407 444.431 1355 427.067C1336.38 420.849 1315.5 431.445 1298 436M510 703C518.601 695.897 510.156 679.982 507.64 671.96C496.909 637.743 483.038 616.922 447 605C475.546 572.377 515.994 546.643 538.738 509C548.358 493.078 547.01 473.226 554 456C558.483 462.955 556.886 472.079 559.025 480C565.527 504.076 569.299 532.48 579.961 555C593.588 583.786 620.248 590.152 639 613C612.661 621.658 579.875 637.694 567.808 664C564.128 672.024 559.69 696.301 569 701C569.048 668.592 575.531 652.208 604 634.505C614.446 628.009 626.167 624.903 636.783 619.005C638.652 617.966 646.335 616.639 646.677 614.595C647.471 609.85 633.622 599.96 630 597.573C609.453 584.029 594.468 574.095 583.539 551C576.54 536.208 576.099 519.561 572.185 504C568.713 490.196 562.139 477.211 560.255 463C559.681 458.67 559.139 432.148 556.462 430.761C553.666 429.312 553.818 439.781 553.659 441C552.236 451.905 547.532 463.235 544.875 474C534.712 515.182 507.256 540.4 477.079 569.861C468.253 578.478 459.532 587.515 450 595.352C447.588 597.335 438.848 601.096 438.323 604.245C437.718 607.877 445.793 608.647 448 609.533C459.61 614.189 469.264 619.415 478.981 627.321C499.438 643.961 509.517 677.63 510 703M937 496C916.232 472.891 930.31 445.838 956.217 436.26C981.543 426.898 1026.93 432.212 1049 447.185C1078.2 467.002 1052.42 503.404 1024 501.922C1010.72 501.23 998.965 494.859 986 493C1010.96 516.378 1068.95 511.227 1065.83 468C1064.69 452.246 1050.43 442.146 1037 436.626C1010.28 425.645 965.342 423.326 940 439.107C925.63 448.055 920.743 462.65 924.019 479C925.409 485.936 927.666 498.295 937 496M1168 588C1157.34 539.112 1179.83 490.167 1229 477.396C1246.35 472.891 1297.73 464.895 1306 486C1311.5 476.913 1298.93 472.278 1292 470.788C1274.16 466.949 1251.9 468.465 1234 471.479C1186.8 479.427 1167.07 513.291 1162.55 558C1162.04 563.136 1161.96 605.244 1177.03 595.444C1181.19 592.738 1171.1 587.149 1168 588M1639 471.932C1634.27 473.276 1630.42 479.856 1625.74 480.044C1619.62 480.289 1614.05 473.743 1608 473.027C1583.47 470.125 1558.79 473.673 1540 491.139C1491.22 536.492 1481.05 614.951 1519.77 669.438C1526.26 678.563 1528.31 688.73 1538.01 695.622C1554.69 707.473 1581.11 711.432 1601 707.642C1606.11 706.668 1620.01 698.676 1623.02 699.072C1627.7 699.69 1632.94 705.669 1638 707.164C1656.3 712.569 1680.42 714.512 1699 709.245C1721.25 702.939 1731.35 669.86 1735.48 650C1746.4 597.38 1736.85 515.299 1682 489.659C1670.37 484.224 1652.88 467.99 1639 471.932M1654 481C1646.98 480.097 1641.1 479.749 1634 480C1638.87 473.245 1649.51 474.568 1654 481M1626 487C1589.21 482.13 1568.25 495.553 1541 518C1539.93 509.988 1547.88 502.656 1552.71 497.007C1568.39 478.691 1577.06 478.996 1599 479.223C1608.44 479.321 1619.8 478.285 1626 487M1564 481C1548.09 504.443 1528.08 523.408 1519.6 552C1514.85 568.044 1509.46 589.191 1511.41 606C1516.88 653.14 1563.52 703.289 1612 697C1598.64 716.512 1546.65 701.181 1534.42 686.921C1492.23 637.704 1488.57 560.668 1529.74 511C1539.03 499.799 1548.02 483.516 1564 481M1937 616C1925.94 616.211 1906.55 617.25 1897.07 623.205C1893.72 625.31 1888.4 636.599 1891.85 640.063C1895.25 643.475 1903.8 640.921 1908 640.439C1921.89 638.843 1936.05 638.772 1950 637.32C1997.45 632.384 2045.27 633 2093 633C2108.41 633 2135.29 632.935 2143 618C2137.62 619.271 2102.22 619.663 2101.76 612.716C2101.34 606.244 2109.36 597.086 2111.65 591C2118.31 573.314 2121.77 543.855 2109.88 527.187C2099.93 513.247 2082.76 507.561 2068 500.979C2054.01 494.739 2042.39 481.803 2026 481.455C1962.46 480.106 1919.71 560.149 1937 616M1663 484C1660.91 483.594 1660.98 483.784 1660 482L1663 484M1664 504C1666.36 499.734 1665.89 497.348 1664 493C1680.13 502.059 1692.36 521.101 1699 538C1691.84 535.13 1687.83 526.042 1681.96 521.027C1672.42 512.877 1659.62 506.438 1649.22 499.019C1646.02 496.742 1633 491.791 1632.32 488.117C1631.39 483.06 1645.83 485.128 1648 485.772C1659.28 489.121 1659.98 493.537 1664 504M1720 556C1707.85 545.535 1702.01 524.808 1697 510C1697.05 512.472 1697.43 514.591 1698 517C1687.8 511.016 1674.37 497.225 1667 488L1668 487C1696.4 503.184 1714.7 521.387 1720 556M1616 489C1610.56 495.341 1599.72 500.033 1592 503C1595.32 493.468 1607.14 491.482 1616 489M1620 489L1617 490L1620 489M2024 491C2015.08 501.017 1995.27 504.778 1984.22 514.008C1970.94 525.096 1963.79 547.011 1947 553C1947.61 549.304 1948.34 547.211 1952 546C1952.74 538.032 1954.12 531.449 1957 524L1962 526C1956.79 516.559 1979.53 500.426 1988 499C1980.27 508.356 1970.77 515.44 1966 527C1981.29 514.608 2000.08 485.889 2024 491M1593 492C1571.76 514.407 1531.35 523.486 1530 561L1528 561C1530.15 525.013 1557.26 497.067 1593 492M1998 493C1994.69 497.784 1991.59 493.865 1998 493M2042 496C2036.93 496 2031.94 496.25 2027 495C2031.64 493.404 2038.44 492.044 2042 496M1616 494.519C1636.86 489.619 1650.12 505.849 1665 516.627C1678.01 526.053 1690.46 529.435 1699.42 546.001C1722.77 589.192 1701.59 678.362 1650 690.253C1540.3 715.536 1503.62 554.353 1594 506.456C1601.06 502.715 1608.14 496.364 1616 494.519M1990 499L1989 500L1990 499M2041 499C2047.23 500.585 2056.08 501.528 2060 507C2053.16 504.806 2046.55 503.055 2040 500L2041 499M1591 502C1588.91 501.594 1588.98 501.783 1588 500L1591 502M2047 508C2016.68 508.014 1999.45 524.845 1973 533C1977.18 524.155 1987.46 515.834 1996 511.209C2001.97 507.979 2008.86 511.478 2010 503C2021.25 506.058 2037.78 496.985 2047 508M1587 506C1550.39 537.902 1537.07 564.147 1538 612C1530.1 602.743 1532.02 585.217 1533.29 574C1536.42 546.254 1552.14 506.819 1587 506M2095 542C2088.11 539.177 2085.95 530.585 2081.04 525.368C2074.92 518.874 2066.05 515.462 2058 512C2073 507.334 2090.21 530.265 2095 542M1957 551C1953.7 562.047 1934.54 598.624 1953 606C1949.62 585.913 1953.36 560.679 1966.51 544.019C1990.2 514.01 2052.16 498.772 2080.46 529.339C2096.53 546.695 2096.71 568.08 2094.06 590C2093.32 596.12 2092.71 608.709 2087.26 612.74C2081.75 616.823 2065.69 614.184 2059 613.96C2043.71 613.446 2028.25 612.32 2013 611.038C1992.54 609.317 1970.11 615.991 1950.07 612.705C1942.66 611.491 1945.33 601.476 1944.52 596C1942.05 579.384 1939.98 561.701 1957 551M2087 516C2088.76 518.316 2089.96 520.292 2091 523C2087.95 521.201 2085.97 519.64 2087 516M2095 521C2104.48 529.706 2120.06 555.461 2106 567C2105.94 552.153 2092.83 534.655 2095 521M1696 523C1697.77 524.918 1698.87 526.645 1700 529C1697.52 527.32 1696.34 526.01 1696 523M1217.18 528.823C1230.35 523.473 1257.74 546.445 1232.79 555.159C1215.45 561.212 1195.71 537.54 1217.18 528.823M1716 529C1723.09 541.042 1730.7 554.643 1731 569C1724.93 560.948 1714.91 539.078 1716 529M1526 544C1527.86 557.7 1523.7 572.876 1525.33 587C1529.7 624.892 1558.41 679.765 1597 690C1576.69 696.88 1561.36 680.856 1548.56 668.221C1519.14 639.172 1501.4 581.896 1526 544M1613 551C1609.15 576.187 1585.68 601.449 1589.27 627C1593.1 654.32 1620.69 638.493 1625.63 621C1631.79 599.191 1616 573.207 1616 551L1613 551M1713 552C1727.53 566.596 1740.74 603.19 1721 620C1720.63 600.317 1707.34 570.102 1713 552M1707 555C1708.23 557.061 1708.66 558.615 1709 561C1706.97 559.094 1706.49 557.745 1707 555M1234 559L1236 563C1234 561.756 1233.44 561.309 1234 559M213 567C215.055 566.401 226.343 565.653 226.91 564.943C229.517 561.676 215.998 558.8 213 567M158 630C168.849 620.234 185.677 619.172 200 616.196C205.271 615.1 215.489 615.014 218.923 610.318C224.129 603.201 201.118 563.192 192.126 562.401C187.064 561.955 183.572 573.377 181.774 577C174.304 592.054 158.827 613.187 158 630M2113 562C2115.82 570.333 2112.72 581.386 2109 589C2106.27 580.932 2109.23 569.377 2113 562M1529 569L1529 572C1528.3 570.446 1528.3 570.554 1529 569M2100 569L2100 572C2099.3 570.447 2099.3 570.553 2100 569M166 618C169.472 607.815 182.512 573.795 194.002 571.224C199.23 570.054 217.99 602.463 215.477 607.186C211.238 615.153 174.621 616.474 166 618M1612 574C1616.28 582.291 1606.26 599.22 1599 604C1602.11 593.297 1608.28 584.361 1612 574M1369 588C1360.35 594.071 1368.2 621.649 1365.24 633C1363.42 639.985 1340.69 678.063 1333.2 655.717C1328.43 641.507 1349.15 612.167 1356.35 601C1357.78 598.792 1370.85 581.753 1367.38 581.081C1362.47 580.132 1356.35 592.715 1354.22 596C1346.57 607.773 1322.76 643.196 1328.84 657.812C1334.42 671.228 1357.24 661.434 1362.18 652.775C1373.92 632.19 1372.56 610.224 1369 588M2102 583C2101.46 588.664 2101.48 597.054 2097 601C2097.82 594.995 2098.68 588.914 2100 583L2102 583M1938 586.333C1938.89 586.333 1938.89 587.667 1938 587.667C1937.11 587.667 1937.11 586.333 1938 586.333M894 592C882.185 595.037 869.149 596.023 857 597.118C855.16 597.283 845.643 599.393 845.643 595.844C845.643 592.337 854.578 590.992 857 590.385C867.755 587.689 884.948 583.74 894 592M1713 588C1719.71 598.225 1714 614.172 1711.33 625C1704.22 653.863 1695.6 688.298 1660 692C1669.51 681.205 1683.29 677.929 1692.22 664.882C1708.93 640.471 1704.38 613.855 1713 588M550 589.526C541.447 590.879 527.491 593.236 522.277 600.643C518.221 606.406 524.451 620.038 531.973 619.577C539.93 619.088 557.521 612.143 562.642 605.919C570.697 596.128 559.96 587.952 550 589.526M1939 589L1940 603C1938.41 598.632 1937.54 593.474 1939 589M2107 590L2106 591L2107 590M1619 591L1619 594L1617 594L1617 591L1619 591M555.048 594.308C557.174 593.924 557.559 597.318 555.544 597.692C553.386 598.092 552.918 594.694 555.048 594.308M532 597C530.718 601.405 528.129 604.972 526 609C524.594 603.504 526.888 599.194 532 597M561 598C560.042 610.665 551.769 601.942 561 598M1940.67 604.667C1940.72 604.722 1940.78 605.778 1940.33 605.333C1940.28 605.278 1940.22 604.222 1940.67 604.667M539 605L540 608C538.234 607.021 538.045 606.778 539 605M553 605C551.753 608.174 550.338 608.648 547 609C548.76 606.646 550.187 605.852 553 605M1599 605L1598 606L1599 605M1619 605C1619.59 609.145 1619.34 611.81 1615 613L1617 605L1619 605M1735 605C1733.16 654.132 1725.25 713.79 1663 708C1674.78 702.757 1689.03 698.623 1698.67 689.592C1718.55 670.972 1727.37 631.068 1732 605L1735 605M536 607C534.843 609.836 533.8 610.759 531 612C531.814 608.741 532.74 607.814 536 607M1599 613C1598.52 615.604 1598.52 616.026 1596 616C1596.74 619.666 1596.86 623.271 1597 627L1596 624C1595.01 625.479 1595 625.203 1595 627C1593.69 621.949 1594.81 616.237 1599 613M1611 613.333C1611.89 613.333 1611.89 614.667 1611 614.667C1610.11 614.667 1610.11 613.333 1611 613.333M1897 637C1904.89 629.572 1917.85 629.284 1928 627.309C1959.11 621.257 1990.59 622 2022 622C2004.27 607.644 1964.87 619.807 1944 620C1951.88 614.48 1963.84 616.504 1973 615.864C2001.13 613.897 2028.87 617.847 2057 618.003C2061.95 618.03 2092.63 616.852 2089.26 626.462C2087.88 630.376 2049.59 628.923 2044 628.988C1994.78 629.558 1946.01 636.066 1897 637M1611 621C1607.82 620.263 1607.36 619.194 1607 616C1609.9 616.974 1610.35 618.025 1611 621M1617 619L1618 620C1615.88 623.142 1613.52 625.548 1610 627C1611.18 623.975 1613.27 621.732 1615 619L1617 619M2128 624C2124.07 626.263 2097.02 632.73 2095.77 626.507C2093.47 615.059 2122.44 622.909 2128 624M1935 620C1931.55 623.691 1926.74 623.842 1922 623C1926.06 620.855 1930.46 620.279 1935 620M1604 621C1603.75 624.14 1603.9 625.158 1607 626C1602.51 628.356 1601.37 625.122 1602 621L1604 621M1718 621C1718 642.546 1713.48 675.437 1693.98 688.697C1683.86 695.585 1670.25 702.928 1658 704.702C1654.87 705.156 1645 706.061 1645 700.879C1645 694.354 1664.4 695.93 1669 693.68C1691.73 682.564 1699.35 669.712 1712 649C1707.83 648.089 1714.57 623.942 1718 621M1619 623L1618 624L1619 623M1618 625L1618 630C1616.82 627.805 1616.82 627.195 1618 625M1596 628L1598 634C1595.71 632.131 1595.24 630.878 1596 628M1612 629C1611.45 632.319 1610.68 633.95 1608 636C1608.19 632.361 1608.48 630.391 1612 629M1600 632C1606.72 632.952 1603.63 637.885 1600 632M1608 693C1604.64 696.481 1601.57 697.166 1600 692L1608 693M1613 694.333C1613.77 694.333 1613.16 694.831 1612.67 694.667L1613 694.333M1644 696C1639.39 703.965 1634.07 702.369 1628 696L1644 696M1949 1037L1953 1033C1956.02 1045.94 1953.12 1071.92 1963 1081C1963 1053.08 1953.44 1031.58 1969.71 1007C1973.85 1000.75 1978.37 989.252 1987 990C1986.15 982.149 1990.87 977.407 1992 970C1987.7 972.46 1984.57 979.995 1979.84 980.875C1973.27 982.099 1956.24 969.482 1955.31 962.997C1951.76 938.283 1955.93 911.608 1966.01 889C1971.75 876.146 1974.3 858.529 1990 865C1983.56 850.645 1986.89 827.181 1987 808.993C1987.02 805.49 1989.02 790.505 1985.37 788.761C1982.04 787.176 1983 802.265 1983 804C1983 816.788 1990.94 843.717 1977.62 851.903C1974.32 853.927 1965.15 845.895 1962 844.284C1940.5 833.295 1945.24 801.466 1946 780C1934.5 784.369 1943.03 813.574 1943 824C1942.99 828.195 1940.76 834.938 1943.06 838.613C1949.02 848.13 1970.46 847.33 1974.4 857.397C1976.19 861.985 1969.26 870.802 1967.45 875C1961.02 889.952 1952.81 906.966 1949.76 923C1948.02 932.19 1948.04 963.808 1953.37 971.61C1957.17 977.182 1975.68 980.389 1976.21 987.276C1977.3 1001.62 1952.35 1021.48 1949 1037M1988 924C1993.82 918.953 1999.07 899.541 2006.33 898.04C2009.8 897.323 2016.47 905.286 2019.08 907.339C2028.82 915.024 2032.29 954.848 2027.73 967C2018.84 990.699 1989.09 1008.95 1986 1035C1998.28 1035.66 1986.16 1073.54 1998 1077C1998 1062.71 1986.04 1011.62 2007.41 1006.95C2011.65 1006.02 2016.38 1012.45 2019 1014.95C2031.18 1026.56 2029.28 1043.67 2027.44 1060C2027.26 1061.6 2026.36 1077.3 2030.44 1075.24C2033.23 1073.82 2031.02 1064.61 2031.22 1062C2032.07 1051.16 2038.23 1027.62 2030.83 1019.01C2026.75 1014.26 2010.61 1005.06 2012.6 997.981C2015.85 986.476 2029.6 978.927 2033.55 967.993C2036.97 958.509 2033.8 923.411 2031.95 914.003C2030.14 904.828 2009.88 900.445 2010.66 890.92C2011.9 875.818 2031.07 860.189 2036.2 846C2040.75 833.399 2037.32 812.335 2036.73 799C2036.61 796.471 2038.15 786.263 2035.38 785.106C2029.4 782.61 2032 813.024 2032 816C2032 823.603 2035.23 833.762 2033.28 841C2025.19 871.024 1995.94 893.524 1988 924M1316 906C1305.13 901.953 1291.28 895.666 1284.49 885.992C1282.68 883.419 1279.81 871.746 1276.16 872.323C1269.47 873.379 1278.97 886.717 1280.28 889C1288.72 903.671 1299.58 925.788 1304 942C1295.39 938.28 1284.62 933.107 1278.43 925.914C1276.66 923.866 1273.46 913.643 1270.83 913.643C1264.4 913.643 1273.14 928.276 1274.17 930C1283.8 946.135 1289.61 962.506 1301 978C1290.95 976.46 1276.98 975.175 1268.09 970.092C1264.68 968.145 1261.62 959.231 1258.65 958.936C1253.32 958.408 1251.66 965.321 1248.42 967.843C1242.58 972.388 1232.82 974.985 1226 978C1229.84 964.916 1235.41 949.363 1241.15 937C1244.5 929.783 1250.6 924.531 1249 916C1238.92 922.313 1239.59 933.539 1226 937C1242.29 918.627 1252.7 892.731 1258 869C1249.26 872.422 1248.17 884.265 1238 888C1250.63 874.409 1259.23 854.071 1262.84 836C1264.11 829.678 1270.19 820.482 1262 817C1261.92 836.089 1252.55 860.58 1241.45 876C1239.31 878.983 1220 892.882 1220 892.999C1220 899.877 1244.64 888.753 1247 887C1247.45 902.884 1230.16 929.732 1217.94 939.035C1212.2 943.403 1198.58 943.483 1196 950C1211.73 950.292 1222.34 942.975 1237 938C1230.58 953.363 1226.94 974.556 1212.92 985.116C1209.64 987.585 1191.36 991.579 1192.32 996.633C1192.89 999.641 1205.79 994.801 1208 994.122C1220.04 990.419 1240.71 977.835 1251 970C1252.33 980.058 1252.37 993.004 1250.33 1003C1249.59 1006.6 1243 1012.71 1243.88 1015.64C1245.93 1022.51 1268.99 1029.31 1271.92 1021.49C1273.38 1017.62 1268.44 1011.76 1267.41 1008C1263.99 995.572 1263.97 980.386 1258 969C1274.08 979.573 1300.6 985.914 1319 992C1317.08 983.397 1307.92 978.529 1302.52 972C1293.32 960.858 1286.05 948.925 1282 935C1286.93 938.027 1291.57 940.711 1297 942.751C1300.4 944.03 1303.76 945.484 1307 947.144C1336.8 962.422 1284.58 915.682 1291.16 899.917C1292.53 896.617 1326.39 918.001 1328.25 913.109C1329.88 908.797 1313.01 894.057 1310.21 890C1298.48 873.067 1287.96 857.02 1279.91 838C1277.52 832.355 1279.52 818.63 1275.18 815.106C1271.53 812.136 1271.99 823.615 1272.04 825C1272.4 834.048 1277.06 843.193 1280.97 851.217C1284.73 858.923 1288.97 866.848 1293.7 874C1300.91 884.908 1308.32 895.436 1316 906M131 879C130.191 889.904 144.955 896.92 144.046 905.581C142.22 922.986 110.194 940.785 97.6798 951.772C96.0008 953.246 79.6694 964.764 84.8512 967.038C88.4698 968.626 93.6789 962.576 95.9998 960.567C105.984 951.925 115.612 942.83 125.758 934.39C128.653 931.981 135.224 924.497 139.446 926.995C143.929 929.647 145.581 937.695 149.417 941.462C161.192 953.024 169.017 955.854 177.239 972C182.954 983.225 188.617 1000.39 200 1007C200.26 990.202 177.89 968.788 172.504 952.029C171.194 947.95 183.572 936.56 187.432 937.071C196.047 938.209 203.007 947.873 213 949C208.273 942.13 189.566 938.61 191.598 928C195.186 909.264 229.96 912.009 245 908.462C247.469 907.879 264.745 903.903 261.592 899.703C258.678 895.822 248.457 901.253 245 902.354C235.125 905.5 208.325 915.31 198.644 910.301C193.221 907.496 193.11 896.352 188.205 891.859C180.27 884.591 166.454 894.264 162.369 881.989C159.572 873.585 163.958 838.008 154.079 834.761C149.224 833.166 152.696 845.262 152.984 847C154.971 859.002 160.193 876.767 158.695 888.67C157.998 894.21 149.032 899.901 144.156 896.429C138.164 892.164 136.251 884 131 879M1629 851.593C1594.18 858.656 1563.98 890.56 1568.19 928C1571.78 959.97 1615.8 987.983 1646 982.299C1675.83 976.685 1706.28 949.871 1707.63 918.136C1709.21 880.962 1664.21 844.453 1629 851.593M1597 872C1597.57 887.898 1598.51 914.653 1605.8 928.933C1612.25 941.573 1646.6 965.589 1660 970C1648.27 955.388 1615.18 943.349 1609.15 925.973C1604.27 911.915 1599.18 885.837 1600.69 871.043C1601.26 865.515 1611.07 858.564 1616.31 862.27C1626.03 869.138 1622 905.674 1625.5 916.882C1629.65 930.17 1663.01 954.131 1675 961C1668.18 941.824 1640.61 933.431 1629.94 915.993C1625.07 908.034 1618.27 865.69 1624.58 858.424C1632.52 849.272 1658.51 856.473 1666.89 861.933C1680.25 870.637 1665.96 893.694 1670.82 905.981C1675.45 917.669 1695.04 919.394 1699.28 930.361C1701.32 935.652 1694.04 943.931 1691.35 948.019C1679.11 966.67 1660.59 977.33 1638 977.742C1604.36 978.356 1573.97 950.748 1574 917C1574.01 901.542 1580.82 878.117 1597 872M1676 870C1691.76 882.54 1679.74 891.98 1686.29 906.719C1690.43 916.015 1704.77 910.98 1701 926C1680.08 912.106 1666.77 897.233 1676 870M506 942C517.415 960.743 550.705 946.474 568 950C565.873 924.374 543.428 901.533 545 875C536.305 876.905 539.609 883.087 536.456 890C531.192 901.539 518.358 939.649 506 942M197 884C188.075 884.083 190.895 894.639 197 884M896 895C899.425 894.157 902.665 892.875 906 891.732C929.767 883.584 912.257 906.269 902.004 912.745C900.252 913.851 894.594 916.483 895.761 919.373C897.356 923.32 911.915 913.101 914.999 912.88C928.571 911.91 928.305 933.003 924.613 940.999C917.666 956.049 905.137 950.095 893 945.097C891.616 944.527 882.549 940.322 883.323 944.976C885.285 956.767 919.04 957.377 925.057 949.65C931.918 940.839 933.947 925.944 928.216 916.1C926.343 912.883 919.93 910.908 919.275 907.547C918.069 901.359 925.76 896.412 923.314 889.052C919.444 877.408 898.229 885.942 896 895M1690 888C1711.88 901.605 1687.5 920.782 1690 888M563 946C551.121 941.617 527.444 951.64 518.622 942.756C514.891 938.999 520.527 931.665 522.184 928C527.761 915.664 537.041 903.859 538 890C550.246 895.133 557.603 933.807 563 946M156 897C159.386 898.901 161.99 901.566 165 904C163.654 889.241 188.081 890.336 190.716 902.195C194.054 917.22 186.328 937.4 170.68 942.355C155.554 947.144 143.473 931.076 145.982 917C147.34 909.384 152.255 903.515 156 897M1990 967C1991.71 954.856 1988.44 931.832 1985 920C1977.07 925.495 1983.02 961.235 1990 967M138 966C140.843 963.975 151.413 945.035 146.275 943.106C139.555 940.583 138.002 962.559 138 966M1257 986C1262.73 994.488 1264.04 1009.91 1265 1020C1246.21 1018.25 1251.8 1001.32 1257 986M1435 1116C1436.25 1125.42 1444.75 1147.03 1441.82 1155.49C1440.5 1159.3 1431.99 1157.07 1429 1157C1414.01 1156.67 1403.83 1153.99 1393 1144C1390.39 1156.21 1395.97 1173.06 1396 1186C1396.01 1189.37 1397.98 1197.29 1395.14 1199.74C1389.1 1204.96 1367.7 1200.28 1361 1197.8C1358.92 1197.02 1351.41 1191.28 1349.57 1193.97C1347.94 1196.36 1351.36 1202.36 1351.74 1205C1354.13 1221.82 1361.2 1244.84 1338 1242.67C1333.66 1242.27 1329.3 1241.78 1325 1241.08C1319.11 1240.13 1314.53 1237.86 1309 1236C1310.29 1245.39 1321.66 1278.4 1315.9 1286.08C1303.27 1302.93 1278.97 1282.04 1266.41 1285.27C1262.46 1286.28 1265.79 1297.46 1266.38 1300C1269.9 1315.09 1270.97 1328.26 1279 1342C1258.5 1345.66 1240.97 1340.75 1221 1338C1222.06 1347.75 1225.82 1385.21 1218.42 1392.07C1205.12 1404.4 1176.57 1387.94 1164 1382C1164 1401.42 1164.79 1421.66 1172 1440C1153.7 1439.83 1133.88 1434.83 1116 1431C1117.06 1438.2 1125.1 1437.61 1131 1438.21C1145.86 1439.74 1164.31 1447.58 1179 1444C1176.13 1437.76 1174.32 1431.64 1172.62 1425C1171.43 1420.34 1170.1 1415.74 1169.26 1411C1163.17 1376.71 1195.92 1406.28 1217 1398.04C1219.35 1397.12 1226.92 1395.74 1227.92 1393.26C1231.5 1384.43 1217.81 1354.45 1227.82 1347.28C1238.36 1339.73 1276.38 1358.59 1283.33 1342.42C1284.9 1338.79 1278.98 1334.01 1277.52 1330.98C1274.94 1325.64 1267.53 1298.6 1272.18 1294.18C1275.16 1291.35 1286.27 1295.99 1290 1296.52C1298.45 1297.71 1314.52 1294.16 1321.49 1289.04C1328.85 1283.62 1310.66 1255.13 1317.48 1245.9C1321.27 1240.77 1352.08 1248.83 1360.43 1243.82C1362.02 1242.87 1356.9 1206.11 1356 1201C1364.75 1203.08 1394.64 1212.64 1401.65 1203.82C1405.92 1198.46 1398.16 1165.26 1398 1157C1407.79 1158.83 1437.7 1168.75 1446.17 1161.74C1451.68 1157.18 1441.49 1117.72 1435 1116M543 1220C545.233 1214.19 547.114 1208.83 551.206 1204.01C583.357 1166.15 603.77 1216.95 600 1248C590.279 1238.37 574.122 1194.93 559.906 1225C558.408 1228.17 557.806 1231.61 557 1235C539.372 1224.27 519.519 1229.64 501 1235C501 1222.33 501.952 1205.89 489.981 1197.86C467.675 1182.9 427.118 1218.34 425.198 1240C424.532 1247.52 430.435 1262.98 440.654 1258.17C450.9 1253.36 444.904 1231.65 456.105 1225.2C470.151 1217.12 474.738 1244.58 476.066 1253C476.982 1258.81 471.486 1264.58 469.86 1270C466.941 1279.72 468.244 1292.89 463.658 1301.78C460.101 1308.68 452.187 1312.04 447.519 1318.02C443.333 1323.38 441.645 1330.95 449 1334C446.312 1326.15 458.406 1305.13 466.162 1314.25C472.809 1322.06 456.61 1334.79 470 1346L471 1345C467.53 1339.25 465.277 1334.82 467.088 1328C467.301 1327.2 470.394 1318.84 471.889 1320.43C477.048 1325.93 463.534 1337.23 478 1342C472.172 1324.3 477.453 1323.72 493 1322C495.967 1321.67 502.456 1318.03 505.063 1319.52C510.181 1322.43 507.232 1334.58 516.994 1334.03C522.795 1333.71 529.112 1322.09 533 1318C518.278 1312.03 546.925 1316.99 550.992 1316.63C555.157 1316.26 560.098 1312.26 564.016 1312.99C569.327 1313.98 572.577 1320.34 578 1322C576.197 1316.91 569.904 1313.48 568.68 1308.68C567.923 1305.71 572.326 1291.54 573 1287L579 1292C577.634 1281.25 574.213 1263.42 570.354 1253C568.199 1247.18 562.619 1242.3 562.043 1236C561.578 1230.91 566.645 1216.12 573.812 1218.67C583.844 1222.23 592.148 1247.61 602 1255C606.241 1237.09 601.037 1178.16 572 1184.51C560.483 1187.02 548.569 1197.78 543.221 1208C541.624 1211.05 535.465 1226.98 545.448 1223.85C549.313 1222.63 544.217 1220.3 543 1220M878 1193C883.804 1204.71 895.716 1212.14 899.712 1225C908.097 1251.98 878.884 1248.35 863 1241C867.085 1272.77 886.437 1307.29 896.667 1338C897.954 1341.87 903.537 1371.44 906.876 1368.69C912.714 1363.87 913.702 1347.06 915.197 1340C920.093 1316.88 920.58 1261.02 941 1247C933.132 1244.53 915.993 1251.17 909.763 1245.18C896.835 1232.74 927.279 1203.69 939 1203C934.889 1190.73 916.082 1211.49 913 1216C912.334 1207.88 916.155 1194.52 905 1193C909.82 1203.49 911.537 1219.12 904 1229C901.639 1216.62 891.409 1196.05 878 1193M475 1199.36C501.859 1195.5 506.542 1244.92 480.956 1248.68C478.279 1249.07 473.225 1220.57 461 1219.57C444.687 1218.24 443.458 1258.02 435 1254.47C426.049 1250.71 428.588 1236.89 432.192 1230.32C440.36 1215.43 457.94 1201.82 475 1199.36M1614 1265C1574.99 1249.29 1557.64 1303.01 1581.48 1328.4C1588.2 1335.55 1614.01 1345.94 1622.98 1344.24C1628.88 1343.12 1630.34 1336.44 1636.05 1335.28C1644.67 1333.53 1653.32 1337.72 1661.96 1334.69C1676.8 1329.48 1681.56 1303.44 1679.64 1290C1676.56 1268.5 1662.12 1256.05 1640 1259.37C1635.89 1259.98 1622.29 1269.47 1620.54 1267.35C1609.3 1253.7 1627.85 1229.04 1640 1223.77C1642.72 1222.59 1660.17 1222.49 1658.24 1217.38C1655.64 1210.52 1636.51 1219.87 1633 1221.67C1617.39 1229.67 1611.84 1248.67 1614 1265M574.667 1226.33C574.222 1226.78 575.278 1226.72 575.333 1226.67C575.778 1226.22 574.722 1226.28 574.667 1226.33M556 1249C558.019 1247.8 558.758 1247.01 560 1245C568.256 1252.82 568.612 1268.1 569 1279C563.827 1278.53 559.968 1280.11 555 1281C556.365 1275.34 560.225 1267.79 558.041 1262.01C554.416 1252.41 542.241 1249.2 536.206 1258.09C529.654 1267.74 538.331 1274.88 535.84 1283.4C535.061 1286.07 527.298 1288.97 524.84 1287.95C517.856 1285.04 529.768 1252.21 514.137 1250.08C502.06 1248.43 509.951 1284.6 504.526 1287.33C503.492 1287.85 489.588 1238.05 478.506 1272C476.753 1277.37 482.536 1284.18 480.478 1288.23C478.669 1291.78 471.37 1292.38 470.567 1287.84C464.885 1255.7 501.223 1237.64 526 1232.59C538.715 1230 557.265 1233.54 556 1249M139 1244C139 1266.88 140.299 1289.31 142.68 1312C143.429 1319.14 140.794 1330.37 145.343 1336.5C148.8 1341.16 160.678 1342.01 166 1342C184.863 1341.96 210.155 1346.99 228 1340C228.364 1341.43 230.003 1348.06 232.805 1345.59C235.284 1343.41 233.73 1330.34 233.503 1327C232.229 1308.27 230.626 1288.7 228.68 1270C228.241 1265.78 229.944 1251.03 227.063 1248.39C223.633 1245.25 210.591 1247.96 206 1248.01C185.304 1248.24 166.384 1246.62 146 1245C154.916 1259.47 185.655 1254.81 200 1253.32C205.467 1252.75 219.027 1249.18 222.219 1255.28C229.752 1269.69 224.723 1299.61 226.218 1316C226.699 1321.27 230.328 1330.98 225.498 1335.06C218.124 1341.28 200.942 1334.38 192 1335.22C182.39 1336.13 159.253 1341.98 151.501 1334.4C147.118 1330.11 148.019 1318.72 148.001 1313C147.951 1297.74 145.296 1282.46 144.981 1267C144.855 1260.76 145.685 1246.04 139 1244M1950 1336C1937.11 1319.97 1926.82 1297.64 1915.59 1280C1911.39 1273.41 1908.32 1262.5 1901 1259C1904.54 1284.35 1931.12 1305.97 1941.5 1329C1942.69 1331.65 1951.57 1351.87 1953.81 1349.03C1957.46 1344.38 1954.26 1333.32 1954.37 1328C1954.64 1313.88 1953.25 1278.41 1961 1267C1969.13 1287.8 1982.77 1309 1994.53 1328C1996.28 1330.83 2004.13 1345.36 2007.82 1344.68C2011.18 1344.06 2016.08 1326.39 2017.49 1323C2025.19 1304.44 2035.15 1286.67 2044.66 1269C2046.9 1264.84 2053.77 1252.74 2050.57 1247.97C2048.07 1244.25 2042.9 1261.25 2042.2 1262.98C2034.91 1281.16 2021.65 1297.3 2015.8 1316C2014.73 1319.45 2009.81 1334.76 2004.91 1333.92C2000.22 1333.11 1995.96 1321.73 1993.99 1318C1985.49 1301.84 1976.75 1285.37 1966.85 1270C1965.08 1267.25 1960.3 1253 1957.12 1253C1953.84 1253 1954.22 1269.2 1954.08 1272C1953.03 1292.63 1955.4 1316.03 1950 1336M898 1254C902.471 1250.25 926.39 1245.73 928.999 1253.28C931.058 1259.24 924.592 1271.84 923.231 1278C918.909 1297.56 917.083 1317.63 912.035 1337C910.409 1343.24 909.967 1353.62 905 1358C902.714 1334.46 893.064 1309.77 884.199 1288C880.131 1278.01 871.015 1265.14 870.783 1254.15C870.673 1248.9 896.43 1247.94 898 1254M514.019 1254.64C519.589 1254.64 524.927 1291.35 516.576 1292.68C507.329 1294.15 510.142 1254.64 514.019 1254.64M555 1266C551.153 1264.98 549.591 1264.03 549 1260C542.096 1264.85 542.147 1276.26 542 1284C525.115 1269.02 552.169 1243.94 555 1266M881 1263C888.229 1272.86 909.952 1258.13 889.004 1261.9C886.342 1262.38 883.69 1262.75 881 1263M1583 1281C1586.31 1268.68 1614.65 1258.23 1611 1277C1623.44 1274.7 1630.95 1261.96 1644 1262.55C1679.53 1264.15 1685.32 1306.06 1663.44 1329.78C1660.23 1333.26 1651.5 1332.5 1647 1332.86C1639.2 1333.49 1631.52 1329.94 1624 1329.95C1611.63 1329.98 1605.27 1339.42 1592.13 1331.71C1579.9 1324.52 1574 1311.66 1574 1298C1574 1292.58 1575.89 1275.42 1583 1281M911 1263C913.696 1269.17 919.797 1268.14 924 1264C919.656 1263.07 915.429 1263 911 1263M491 1270L491 1278C491 1303.57 470.718 1267.4 489.935 1264.69C493.462 1264.2 494.926 1269.5 491 1270M552 1271C552.622 1273.39 552.902 1275.53 553 1278C548.873 1276.83 549.392 1273.78 552 1271M1649 1328C1645.03 1318.5 1628.62 1272.43 1656 1279C1655.93 1271.5 1646.93 1274.46 1643.46 1278.2C1631.89 1290.69 1633.48 1319.64 1649 1328M898 1282C902.42 1285.1 906.859 1285.29 912 1284C908.408 1279.94 902.796 1280.44 898 1282M1669 1286C1664.39 1286.63 1661.65 1289.3 1658 1292L1667 1280C1649.27 1285.25 1649.31 1309.07 1661 1320C1642.1 1319.84 1651.48 1289.26 1654 1280C1641.56 1284.83 1644.54 1304.14 1648.15 1314C1649.48 1317.63 1653.4 1326.43 1658.64 1324.46C1662.08 1323.16 1666.77 1291.76 1669 1286M559 1283C575.972 1281.68 564.743 1296.37 559 1283M547 1289L544 1295C548.479 1292.6 552.482 1288.33 557.999 1289.95C560.671 1290.74 570.257 1296.99 565.953 1300.53C561.226 1304.42 538.617 1295.17 538.641 1298.24C538.691 1304.68 556.291 1304.71 560 1310C550.321 1312.96 530.169 1314.53 523.261 1304.28C514.721 1291.62 539.744 1287.6 547 1289M495 1291C494.897 1293.76 494.587 1296.3 494 1299C496.813 1297.14 498.865 1292.51 502.257 1291.97C521.088 1288.95 511.431 1309.42 502.96 1314.88C492.629 1321.53 486.111 1314.11 476 1316C480.758 1305.65 490.943 1306.43 500 1309C494.101 1299.68 479.339 1301.47 470 1303C472.779 1292.15 486.521 1293.69 495 1291M565 1303C565.986 1304.48 566 1304.2 566 1306L563 1306L565 1303M466 1309C481.859 1299.78 475.827 1316.71 466 1309M898 1308L914 1308C909.732 1304.32 901.872 1303.31 898 1308M523 1317C519.251 1314.7 517.743 1312.43 518 1308C521.864 1310.37 523.579 1312.39 523 1317M519 1321L525 1322C512.902 1345.2 509.805 1311.67 513.282 1313.54C517.312 1315.72 515.234 1320.91 517.163 1324C518.644 1326.37 518.988 1321.3 519 1321M1622 1341C1619.88 1340.1 1619.9 1340.12 1619 1338C1621.36 1338.48 1621.52 1338.64 1622 1341M1482 1535C1504.59 1522.22 1521.92 1499.26 1543 1484C1535.92 1481.91 1529.98 1488.93 1525 1493.08C1513.16 1502.97 1485.49 1519.46 1482 1535M1761 1483C1776.83 1500.98 1798.85 1520.69 1818 1535C1816.6 1520.43 1775.46 1484.01 1761 1483M1063.79 1507.3C1053.86 1509.44 1044.51 1517.72 1034 1519C1019.71 1520.74 1013.23 1512.08 1000.29 1527.14C996.36 1531.73 990.374 1552.28 996.667 1556.74C1000.97 1559.78 1009.04 1556.79 1014 1557.14C1029.1 1558.2 1046.89 1566.45 1062 1562.12C1078.09 1557.49 1064.85 1532.68 1066.24 1520C1066.55 1517.15 1070.13 1505.94 1063.79 1507.3M383 1529C378.561 1542.19 394.542 1557 407 1556.96C412.211 1556.94 418.698 1551.07 423 1552C431.044 1553.72 433.768 1564.21 444 1562.33C452.019 1560.85 463.854 1545.72 469.804 1546.43C474.995 1547.04 481.728 1562.08 486.008 1565.68C501.566 1578.79 518.379 1558.42 523 1544C530.019 1549.23 536.192 1557.21 546 1554.55C551.517 1553.05 558.375 1545.48 563.864 1545.98C572.29 1546.76 575.513 1557.16 586 1555.57C592.613 1554.57 599.576 1544.58 604.981 1545C609.125 1545.33 613.431 1552.31 617.008 1554.41C627.761 1560.75 641.29 1556.71 649 1548C665.796 1565.85 712.999 1537.77 717 1518C704.673 1524.93 672.262 1562.75 655.313 1547.39C647.736 1540.53 665.412 1525.68 654.436 1516.84C647.141 1510.96 643.67 1521.75 643.184 1527C642.133 1538.36 646.585 1562.82 623 1552.58C603.791 1544.24 613.33 1534.36 616.876 1520C618.172 1514.75 615.374 1508.63 609.089 1509.47C587.159 1512.4 614.629 1556 582 1551.23C563.031 1548.46 571.876 1537.41 575.951 1527C578.029 1521.69 577.777 1512.96 570.051 1512.83C551.824 1512.53 570.875 1555.95 540 1550.59C517.386 1546.67 539.669 1518.96 527.919 1516.65C522.219 1515.53 520.365 1526.08 520.436 1530C520.674 1543.24 514.644 1564.37 496.997 1565.59C486.924 1566.28 476.209 1551.02 475.091 1542C474.817 1539.79 480.073 1528 475.683 1528C471.521 1528 469.71 1537.24 467.915 1539.99C463.002 1547.52 450.052 1560.44 440 1558.43C416.502 1553.71 442.383 1515.73 425.011 1515.73C411.604 1515.73 427.82 1572.47 398.003 1550.44C395.213 1548.37 392.734 1545.74 390.625 1543C387.358 1538.75 385.553 1533.67 383 1529M807 1510C808.834 1517.65 802.706 1523.73 795 1524.54C776.136 1526.53 753.886 1533.07 752.623 1556.02C750.62 1592.41 802.227 1566.98 816 1565.48C824.359 1564.57 835.902 1571.3 842.439 1563.79C851.872 1552.96 851.937 1517.73 834.981 1513.52C826.487 1511.42 815.801 1511.14 807 1510M1064 1511C1063.23 1522.65 1060.98 1532.28 1064.31 1544C1065.42 1547.92 1069.14 1553.75 1065.56 1557.27C1053.92 1568.7 1028.25 1554.44 1015 1554.03C1010.98 1553.9 998.59 1556.16 997.319 1550.78C994.465 1538.7 1009.02 1540.66 1009.87 1538.41C1011.11 1535.12 1000.83 1535.41 1003.39 1530.22C1011.93 1512.84 1022.71 1524.74 1034 1523.01C1044.39 1521.42 1054.24 1514.47 1064 1511M609.019 1513.63C619.21 1510.74 611.249 1530.67 606.729 1532.24C601.183 1534.16 600.94 1515.92 609.019 1513.63M382 1514L382 1519C383.083 1517.26 383.544 1516.01 384 1514L382 1514M565 1536C557.491 1509.97 588.573 1518.57 565 1536M763 1550C758.56 1542.15 766.245 1535.67 773.001 1532.18C781.525 1527.78 789.572 1530.7 798 1527.8C811.875 1523.02 816.906 1511.43 833.997 1516.72C847.064 1520.77 847.942 1554.42 838.635 1562.47C833.934 1566.54 825.58 1561.16 820 1561.05C804.702 1560.75 791.108 1573.9 777 1573.75C767.759 1573.66 748.116 1553.59 763 1550M426.779 1518.86C432.305 1520.46 429.278 1540.59 424.43 1539.68C418.139 1538.49 418.769 1516.56 426.779 1518.86M1554 1517L1554 1520C1554.7 1518.45 1554.7 1518.55 1554 1517M649 1539C639.434 1511.57 666.348 1524.59 649 1539M529 1520C528.953 1524.88 528.121 1529.27 527 1534C521.001 1529.67 522.833 1522.9 529 1520M1581 1528C1563.43 1537.36 1544.05 1557.68 1529 1571.22C1527.46 1572.61 1513.13 1585.59 1516.09 1587.24C1518.97 1588.85 1529.85 1576.58 1532 1574.7C1545.18 1563.19 1577.39 1545.64 1581 1528M1784 1593C1776.76 1576.13 1742.52 1559.32 1727.92 1547.93C1725.84 1546.3 1711.36 1534.47 1709.68 1537.02C1706.81 1541.38 1723.37 1549.84 1726 1551.88C1741.96 1564.27 1764.32 1588.29 1784 1593M966 1601C970.058 1577.87 968.276 1540.54 937 1547.27C929.205 1548.94 925.496 1557.63 918 1560.13C909.734 1562.89 902.594 1554.24 895.003 1560.29C889.078 1565.02 865.772 1591.02 873.686 1599.26C879.718 1605.54 895.102 1605.53 903 1604.55C924.624 1601.88 944.542 1596.44 966 1601M948 1549.37C964.274 1548.55 961.023 1570.68 961.145 1581C961.184 1584.23 964.291 1592.16 961.7 1594.69C959.233 1597.1 950.632 1593.44 947 1594.2C930.621 1597.64 911.79 1602.41 895 1601.95C866.894 1601.17 879.524 1577.39 895.001 1564.17C902.933 1557.39 909.314 1566.61 918 1564.4C930.456 1561.21 933.667 1550.09 948 1549.37M1245.69 1555.14C1228.04 1553.9 1209.83 1563.6 1192 1564.02C1190.91 1564.04 1177.81 1565.91 1181.97 1568.53C1197.85 1578.53 1239.08 1554.67 1245.69 1555.14M1335 1563C1352.66 1565.4 1371.35 1561.78 1389 1560.22C1391.04 1560.04 1407.59 1561.42 1406.24 1558.4C1404.43 1554.34 1393.39 1555.97 1390 1556.32C1378.95 1557.47 1341.66 1554.94 1335 1563M273 1574C271.306 1570.4 255.21 1557.71 251.954 1561.11C249.96 1563.2 252.128 1568.21 251.239 1571C248.075 1580.94 243.557 1590.36 239.611 1600C225.745 1633.87 209.469 1666.72 194.338 1700C189.141 1711.43 186.011 1731.51 177.043 1740.4C166.268 1751.08 136.253 1719.65 127.94 1739.1C119.282 1759.35 176.327 1765.01 187.959 1758.32C197.265 1752.97 200.358 1741.18 204.438 1732C212.337 1714.23 221.041 1696.67 229.205 1679C240.18 1655.24 249.184 1630.74 257.67 1606C260.852 1596.72 264.689 1579.59 273 1574M144 1741C153.968 1741 168.286 1750.76 177.972 1745.89C187.488 1741.11 188.835 1721.88 192.389 1713C204.627 1682.44 220.816 1653.37 233.611 1623C239.22 1609.69 245.078 1596.53 250.028 1583C251.159 1579.91 253.715 1570.41 257.25 1569.56C259.833 1568.93 265.647 1571 265.639 1574.08C265.601 1588.21 252.943 1610.86 247.528 1624C231.484 1662.94 218.541 1716.92 191.528 1749.78C182.098 1761.25 136.843 1758.95 130.75 1744C126.214 1732.87 143.638 1744.01 144 1741M1558 1629C1568.3 1629.36 1592.51 1602.81 1600.46 1595.38C1602.31 1593.65 1613.03 1585.86 1610.69 1583.02C1608.77 1580.69 1598.41 1590.67 1597.02 1591.99C1585.08 1603.31 1564.9 1613.79 1558 1629M1997 1817C1993.54 1813.32 1987.73 1814.61 1983.65 1811.11C1973.8 1802.67 1970.2 1786.33 1969 1774C2000.33 1796.85 2042 1805.61 2051 1756C2047.32 1758.74 2046.71 1767.03 2042.56 1768.36C2039.34 1769.38 2026.96 1758.79 2023 1757.11C2010.14 1751.62 1995.63 1753 1982 1753C1999.6 1735.81 2029.56 1739.33 2043.66 1718C2048.73 1710.33 2051.36 1698.76 2047.46 1690C2046.23 1687.22 2036.63 1677.8 2039.1 1675.11C2041.63 1672.35 2059.25 1676 2064 1674.96C2089.87 1669.25 2082.49 1642.34 2062 1635C2072.48 1625.22 2078.39 1604.79 2058 1602.2C2033.7 1599.1 2024.58 1617.39 2004.98 1621.82C1998.73 1623.23 1991.22 1616.57 1985 1615.47C1969.98 1612.82 1949.87 1623.04 1942.37 1636C1932.71 1652.68 1955.49 1660.53 1965.91 1666.6C1973.3 1670.9 1970.81 1684.64 1980.44 1691.22C1990.67 1698.21 2010.13 1698.39 2021 1693.12C2025.18 1691.1 2031.06 1683.51 2035.51 1683.52C2041.22 1683.53 2044 1694.76 2044.28 1699C2046.47 1732.59 1995.86 1733.45 1977 1750.92C1973.81 1753.88 1965.72 1757.92 1964.8 1762.43C1960.1 1785.62 1971.12 1817 1997 1817M383 1605C381.914 1610.53 385.272 1611.44 390 1613C388.267 1609.58 386.082 1607.26 383 1605M2047 1605.36C2063.19 1603.09 2074.34 1615.81 2062.52 1629.95C2057.55 1635.89 2047.5 1637.89 2040 1638.62C2032.56 1639.34 2006.88 1636.69 2010.93 1624.14C2014.62 1612.71 2036.65 1606.81 2047 1605.36M383 1630C380.039 1638.74 386.056 1657.5 397.008 1658.03C401.53 1658.24 405.923 1652.4 409.897 1653.58C416.036 1655.42 418.378 1662.84 426 1661.23C431.546 1660.06 440.284 1649.33 444.754 1650.07C449.214 1650.82 452.859 1659.68 456.155 1662.55C467.209 1672.19 481.863 1665.17 487 1653C496.515 1661.62 505.359 1670.7 517.997 1661.33C521.224 1658.93 526.817 1649.52 530.857 1649.52C534.942 1649.51 542.077 1661.09 546.019 1663.5C562.428 1673.52 569.865 1656.57 580 1648C589.873 1672.65 612.232 1652.15 622 1640C628.778 1667.21 643.973 1641.63 654.401 1641.64C659.641 1641.65 663.03 1648.65 669 1648.89C685.24 1649.53 711.141 1629.52 717 1615C703.575 1620.84 681.815 1653.03 665.009 1642.93C654.042 1636.34 674.418 1606.91 660.957 1606.64C642.461 1606.26 659.761 1660.74 632.127 1648.12C615.532 1640.54 640.982 1613.1 630.568 1610.22C624.771 1608.62 621.952 1619.12 621.284 1623C619.293 1634.56 608.867 1661.04 592.019 1654.89C576.626 1649.28 586.529 1635.96 588.914 1626C589.918 1621.81 591.195 1612.66 584.898 1611.89C578.048 1611.05 576.412 1622.22 575.535 1627C573.033 1640.64 577.789 1655.03 560 1661.6C550.636 1665.06 535.509 1651.55 535.482 1642.08C535.467 1636.99 539.947 1632.25 540.626 1627.01C541.131 1623.11 540.16 1617.42 535.04 1617.55C529.763 1617.68 528.824 1627.1 528.298 1631C526.842 1641.79 521.764 1665.77 504.078 1660.82C475.089 1652.71 513.249 1627.93 497.709 1618.26C490.229 1613.61 484.452 1623.97 483.375 1630C481.319 1641.52 490.262 1664.91 467.438 1663.62C459.377 1663.17 447.49 1650.24 449.864 1642C451.047 1637.89 460.21 1624.61 451.797 1622.39C445.241 1620.66 444.593 1629.85 444.218 1634C443.303 1644.1 436.723 1657.51 424 1657.13C398.7 1656.37 433.916 1622.98 415.93 1615.83C397.602 1608.55 407.148 1641.76 405.876 1646.98C402.219 1661.98 389.531 1647.41 386.699 1641C385.122 1637.43 383.936 1633.78 383 1630M1054 1606C1054.5 1621.6 1061.54 1644.28 1069 1658C1070.13 1646.87 1063.84 1611.63 1054 1606M1686 1607C1694.24 1621.48 1723.14 1640.48 1738 1648C1734.69 1634.03 1699.28 1610.48 1686 1607M663 1609C662.986 1617.77 659.866 1623.9 657 1632C650.437 1625.76 655.585 1612.07 663 1609M997 1609C993.919 1621.72 995.917 1666.46 1007 1675C1006.18 1652.94 1001.08 1630.83 999 1609L997 1609M630 1614C629.781 1619.47 628.573 1623.77 625 1628C623.522 1621.89 625.193 1617.96 630 1614M587 1615C586.571 1622.16 586.438 1633.62 579 1637C578.05 1628.89 578.411 1618.61 587 1615M414.794 1619.02C422.494 1619.47 416.176 1641.36 410.907 1641.36C404.047 1641.36 403.765 1618.38 414.794 1619.02M491 1644C475.607 1631.29 505.99 1609.88 494.723 1634C493.17 1637.32 491.776 1640.41 491 1644M536 1620C542.243 1627.26 532.038 1643.97 532 1626L536 1627C535.473 1624.39 535.248 1622.55 536 1620M2002 1656C1990.75 1655.17 1980.05 1665.52 1971 1664.34C1967.11 1663.84 1962.54 1661.12 1959 1659.45C1917 1639.54 1985.78 1600.47 2003.53 1629.18C2008.84 1637.78 2000.36 1646.5 2002 1656M1290 1687C1299.57 1683.21 1294.59 1647.72 1293.43 1639C1293.04 1636.03 1293.63 1627.22 1290.54 1625.56C1287.81 1624.1 1289.54 1637.65 1289.7 1639C1291.48 1655.02 1290 1670.91 1290 1687M450.585 1626.43C454.241 1626.97 451.259 1634.36 448.317 1634.36C444.739 1634.36 446.749 1625.86 450.585 1626.43M806 1633C805.486 1647.43 798.333 1661.51 802 1676C805.973 1669.1 813.232 1638.01 806 1633M939 1690C945.175 1680.14 939.678 1659.03 938.139 1648C937.876 1646.11 937.689 1635.64 935.008 1635.64C931.749 1635.64 934.479 1646.33 934.672 1648C936.29 1661.94 937.679 1676.04 939 1690M2058 1639.47C2077.32 1636.88 2084.86 1667.61 2063 1670.73C2054.47 1671.95 2034.83 1672.83 2030.54 1662.55C2026.26 1652.27 2050.81 1640.43 2058 1639.47M2018.86 1640.82C2037.67 1639.23 2038.35 1657.84 2020 1659.69C2003.4 1661.37 2002.34 1642.22 2018.86 1640.82M855 1699C862.216 1687.47 859.74 1659.67 860 1646C849.698 1649.62 852.364 1690.08 855 1699M1977 1668C1998.56 1644.86 2015.59 1679.43 1988 1671.91C1984.25 1670.89 1980.62 1669.4 1977 1668M2034 1675C2016.29 1669.56 2012.57 1672.67 2032 1678C2023.72 1692.39 2005 1695.73 1990 1691.15C1984.1 1689.35 1972.46 1684.04 1973.99 1676.15C1975.32 1669.26 1991.86 1677.78 1997 1677C2005.96 1675.64 2026.64 1649.58 2034 1675M1583 1689C1585.41 1694.45 1592.24 1696.15 1597 1699.29C1608.86 1707.11 1624.27 1724.12 1638 1727C1632.49 1713.23 1597.52 1691.17 1583 1689M1732 1698C1723.43 1696.91 1703.92 1718.27 1697.08 1724.34C1695.43 1725.8 1687.26 1732.22 1688.76 1734.91C1690.2 1737.49 1698.76 1728.86 1699.86 1727.83C1710.49 1717.88 1723.32 1709.88 1732 1698M57 1759C54.0528 1749.23 46.6439 1739.46 55 1730C56.6171 1737.54 55.0352 1745.62 60.3577 1751.95C82.6619 1778.48 125.528 1737.89 101.628 1716.64C72.8638 1691.07 24.0136 1738.88 57 1759M1048 1715C1049.22 1727.85 1055.11 1763.11 1068 1769C1065.45 1757.18 1057.73 1721.93 1048 1715M510 1757C517.71 1769.23 530.357 1782.16 545 1772.46C548.731 1769.98 555.654 1759.52 559.838 1759.52C565.15 1759.52 570.635 1774.84 578.217 1776.59C593.988 1780.25 596.233 1761.6 607.014 1760.06C609.869 1759.65 616.97 1771.99 619.699 1774.08C632.053 1783.54 645.57 1768 649 1757C657.203 1764.27 663.898 1778.01 676.844 1768.86C680.091 1766.57 685.285 1755.17 689.158 1755.44C687.205 1755.3 720.512 1774.48 716.894 1766.53C714.977 1762.32 700.715 1760.48 696.803 1754.95C693.541 1750.34 697.672 1732.9 694.565 1731.76C690.484 1730.26 689.662 1738.79 689.229 1741C687.397 1750.34 679.563 1766.05 669.003 1767.79C650.638 1770.8 657.599 1743.92 659.761 1736C660.108 1734.73 662.533 1725.34 658.267 1727.54C645.132 1734.34 651.692 1776.52 627.003 1772.76C597.661 1768.29 627.423 1733.05 616.358 1726.53C611.04 1723.4 608.986 1735.02 608.457 1738C606.377 1749.71 598.191 1778.13 580 1773.26C572.536 1771.27 561.355 1756.91 564.084 1749C565.977 1743.51 576.107 1728.2 566.638 1723.84C559.757 1720.67 558.163 1729.36 557.479 1734C556.468 1740.85 559.129 1748.69 555.988 1755C545.985 1775.08 523.427 1776.35 513.682 1754.99C510.639 1748.32 511.814 1740.06 510 1733C502.768 1739.87 506.523 1757.69 498.258 1767.77C484.831 1784.16 464.388 1770.9 461.73 1753C460.88 1747.27 465.619 1741.71 466.408 1736C466.927 1732.24 466.794 1725.18 461.118 1725.79C456.012 1726.33 456.132 1735.3 456.048 1739C455.79 1750.41 443.988 1778.43 427.033 1768.04C414.916 1760.62 448.003 1730.2 426.95 1724.52C403.923 1718.32 423.588 1767.33 406 1763.44C392.66 1760.48 381.794 1722.21 398 1723C394.528 1715.52 387.88 1719.04 386.639 1726.01C384.856 1736.02 387.084 1751.87 393.519 1759.96C399.609 1767.61 430.529 1775.65 440 1771.77C445.154 1769.66 451.886 1759.52 456.915 1759.52C461.953 1759.52 467.315 1773.16 471.179 1776.24C488.593 1790.11 500.808 1768.7 510 1757M102 1742C97.0438 1731.43 94.871 1723.67 81 1722C83.171 1715.29 92.3353 1723.15 93 1718C102.738 1722.44 105.719 1732.35 102 1742M93 1721C93.3634 1723.03 93.5169 1723.64 95 1725C94.4892 1723.05 94.2667 1722.54 93 1721M509 1732C510.922 1730.43 512.411 1728.91 514 1727C514.769 1731.97 514.02 1736.98 514 1742C522.865 1729.38 510.208 1714.7 509 1732M80 1722C72.2549 1735.49 72.4695 1738.03 80 1751C66.6678 1746.42 62.9982 1723.62 80 1722M792 1722C788.917 1736.25 785.022 1750.32 785 1765C792.186 1759.24 794.355 1731.33 795 1722L792 1722M419 1758C416.854 1752.57 413.827 1722.14 427.637 1727.54C438.697 1731.87 424.267 1754.55 419 1758M566 1726C566.937 1728.05 567.534 1729.79 568 1732L563 1732C565.123 1736.83 566.79 1741.34 561 1744C561.286 1736.62 559.351 1731 566 1726M465 1727C466.041 1733.14 464.271 1740.3 459 1744C458.859 1736.52 457.532 1731.12 465 1727M1004 1788C997.418 1772.61 993.741 1756.4 987.16 1741C986.096 1738.51 981.265 1725.92 976.964 1728.54C973.371 1730.73 982.32 1740.53 983.41 1743.01C988.67 1754.98 990.351 1782.9 1004 1788M830 1728C825.857 1735.48 819.101 1773.52 829 1777C829 1765.4 835.623 1737.16 830 1728M907 1782L907 1761L907 1747C907 1698.78 893.055 1777.1 907 1782M616 1729C615.816 1733.97 614.864 1738.39 613 1743C610.425 1737.99 611.482 1733.82 614 1729L616 1729M1524 1729C1523.68 1736.33 1531.16 1738.95 1537 1741.14C1558.18 1749.07 1570.84 1765.8 1590 1776C1584.85 1752.89 1542.87 1738.15 1524 1729M1781 1729C1766.1 1746.54 1730.53 1764.91 1724 1787C1737.92 1783.81 1761.09 1755.3 1771.97 1744.86C1775.71 1741.28 1783.58 1734.52 1781 1729M86.2348 1733.32C89.5669 1732.69 89.0401 1742 85.7909 1742C82.0173 1742 83.1282 1733.91 86.2348 1733.32M81 1733C80.9793 1736.28 80.0946 1738.91 79 1742C77.9659 1738.84 78.315 1736.23 79 1733L81 1733M64 1738C66.4707 1741.05 67.8366 1744.27 69 1748C65.0232 1745.66 62.7257 1742.7 64 1738M98 1743C94.3607 1751.64 87.1154 1755.9 78 1756C83.8326 1751.91 91.4661 1745.37 98 1743M1334.97 1746.47C1315.2 1747.97 1295.7 1751.41 1276 1753.67C1272.36 1754.09 1257.24 1750.64 1257.76 1752.24C1259.9 1758.92 1271.67 1758.32 1277 1757.66C1292.68 1755.72 1308.33 1754.14 1324 1752.33C1328.2 1751.84 1336.7 1753.19 1339.59 1749.25C1341.71 1746.37 1336.39 1746.36 1334.97 1746.47M749 1757C750.949 1756.06 751.55 1755.61 753 1754C750.261 1754.21 749.578 1754.3 749 1757M2001 1784L2003 1788C1991.76 1787.91 1959.59 1770.08 1977.24 1757.82C1983.64 1753.37 2000.41 1756.47 2008 1757.15C2024.26 1758.63 2054.83 1780.94 2024 1788.47C2015.98 1790.43 2008.59 1785.61 2001 1784M1817 1763C1806.96 1782.84 1788.18 1798.33 1776 1817C1787.02 1815.48 1820.49 1773.79 1817 1763M1977 1767C1985.39 1779.54 2026.25 1788.16 2036 1774C2031.47 1774.27 1996.52 1778.05 1996.52 1772.04C1996.52 1765.09 2020.37 1769.31 2024 1769C2010.7 1758.38 1992.02 1770.73 1977 1767M1482 1775C1483.77 1781.86 1492.31 1784.38 1497.98 1787.54C1512.02 1795.34 1528.83 1815.88 1545 1817C1533.53 1802.24 1500.54 1778.58 1482 1775M782 1866C785.171 1877.5 760.839 1893.86 758 1907C770.291 1901.91 781.602 1876.66 792.078 1866.76C793.204 1865.69 804.003 1856.63 799.506 1855.22C795.353 1853.91 786.324 1864.33 782 1866M1063 1858C1068.09 1865.26 1076.27 1871.74 1084 1876C1082.51 1866.93 1071.66 1859.54 1063 1858M614 1900C620.715 1892.85 622.241 1866.04 607.447 1876.21C590.447 1887.9 617.785 1905.91 596.09 1912.9C591.369 1914.42 595.632 1894.34 586.949 1891.23C566.964 1884.06 566.274 1911.7 578 1921C568.212 1921.03 568.334 1913.91 562 1909C563.292 1941.26 598.964 1912.88 610.354 1906.27C622.453 1899.23 632.517 1902.76 642.501 1889C647.856 1881.62 656.708 1855.81 637.001 1862.9C611.401 1872.11 641.484 1904.49 614 1900M641.973 1865.57C654.518 1865.53 642.09 1891.36 634.804 1891.36C622.735 1891.36 629.314 1865.61 641.973 1865.57M829 1876C815.645 1881.24 799.667 1907.5 790.701 1919.01C789.312 1920.79 780.111 1932.13 783.669 1934.24C784.851 1934.94 793.105 1922.42 794.459 1920.92C805.045 1909.19 825.713 1891.95 829 1876M1035 1876C1044.76 1889.57 1070.1 1904.11 1084 1914C1080.71 1899.22 1049.67 1877.73 1035 1876M611.097 1880.84C622.808 1876.25 618.675 1895.46 611.492 1898.03C603.49 1900.89 604.189 1883.55 611.097 1880.84M582 1897.61C594.492 1896.45 593.904 1916.82 582.993 1917.32C571.113 1917.86 569.437 1898.78 582 1897.61M1015 1905C1023.75 1918.47 1055.58 1944.51 1071 1949C1065.66 1935.15 1041.64 1923.73 1030.56 1914.03C1026.11 1910.14 1021.18 1904.8 1015 1905M811 1963C814.823 1939.3 847.44 1926.09 857 1905C842.608 1906.36 824.413 1936.36 815.33 1947C811.854 1951.07 803.173 1959.41 811 1963M986 1926C986.534 1933.09 994.846 1936.18 1000 1939.87C1013.86 1949.78 1033.04 1971.56 1050 1974C1037.74 1956.64 1005.25 1935.1 986 1926M832 1990C844.103 1967.56 874.901 1950.79 883 1928C868.495 1932.3 847.592 1959.56 839.099 1972C835.587 1977.14 828.696 1983.52 832 1990M555 1929C554.792 1942.86 554.925 1956.31 557 1970C545.879 1962.65 545.204 1948.25 531 1945C531.833 1948.36 536.196 1950.97 536.159 1954.2C536.004 1967.56 504.133 1998.79 494 2007C493.851 2004.87 493.554 2003.07 493 2001C488.106 2008.82 491 2023.96 491 2033C491 2060.28 484.387 2095.78 490 2122L492 2122C497.283 2113.93 506.087 2118.22 514 2118.86C530.802 2120.22 547.498 2121.17 564 2117.78C567.64 2117.03 575.164 2118.18 577.74 2115.12C581.484 2110.68 578.005 2099.35 578.005 2094C578.005 2074.68 579.007 2055.35 579 2036C578.997 2027.81 574.665 2015.75 583 2011C576.807 1999.33 565.449 1989.89 560.819 1977C558.04 1969.26 560.467 1959.13 559.911 1951C559.515 1945.22 561.188 1931.18 555 1929M577 1993C581.614 1974.77 576 1953.6 576 1935C569.075 1937.74 571.172 1988.34 577 1993M90 1949C93.0469 1956.69 113.147 1951.75 120 1950.94C151.175 1947.28 182.633 1948 214 1948C219.436 1948 245.37 1952.43 248.067 1946.5C249.055 1944.32 214.053 1943.87 210 1943.54C169.517 1940.24 130.158 1948.98 90 1949M965 1948C969.992 1962.13 1010.72 1991.57 1026 1991C1013.49 1977.82 981.969 1954.58 965 1948M1888 1968C1897.88 1955.42 1923.8 1943.36 1930.5 1967C1934.27 1980.31 1924.73 2020.32 1912.66 2028.1C1908.93 2030.51 1904.15 2027.18 1900.07 2028.83C1894.68 2031 1892.49 2040.74 1893.33 2045.99C1893.92 2049.73 1897.02 2052.99 1901 2051.47C1906.53 2049.35 1909.19 2039.25 1915.16 2039.18C1931.3 2039 1942.46 2068.03 1956 2042C1951.05 2043.06 1946.98 2047.9 1942 2048.03C1935.5 2048.21 1917.2 2037.16 1917.94 2029.98C1920.18 2008 1951.22 1976.75 1927.97 1956.24C1915.75 1945.45 1890.4 1948.14 1883.77 1964.97C1882.1 1969.21 1887.86 1976.08 1892.47 1974.79C1897.91 1973.26 1889.51 1968.53 1888 1968M907 1951C893.946 1971.77 856.684 1988.38 853 2014C868.171 2004.24 883.48 1982.58 895.679 1969C900.443 1963.7 907.95 1958.34 909 1951L907 1951M559 1996L559 1985C564.594 1988.25 567.102 1994 569 2000C553.45 1999.48 538.517 2003.48 523 2002.96C519.879 2002.85 508.958 2003.21 507.864 1999.4C506.111 1993.29 529.187 1971.74 533.256 1966C534.758 1963.88 538.021 1957.01 541.481 1958.54C557.594 1965.68 551.031 1986.29 559 1996M2105 1982C2086.81 1959.98 2121.63 1957.31 2130.46 1977C2136.48 1990.43 2121.77 2028 2112.82 2038.72C2109.33 2042.89 2103.61 2042.11 2100.52 2047.07C2098.97 2049.55 2089.57 2074.49 2098.8 2071.89C2103.82 2070.48 2108.94 2054.47 2112 2050C2129.64 2072.91 2151.49 2074.83 2168 2047C2155.09 2048.46 2149.54 2065.03 2136.02 2065.31C2129.05 2065.45 2113.97 2049.94 2115.74 2042.78C2121.87 2018.1 2156.96 1973.15 2116 1958.92C2095.76 1951.88 2082.87 1980.42 2105 1982M941 1961C949.742 1976.28 988.556 2005.01 1005 2011C1002.35 2004.68 995.12 2000.31 990.04 1995.92C977.037 1984.69 957.921 1961.6 941 1961M1545 1962C1539.39 1984.55 1542 2012.65 1542 2036C1542 2038.86 1542.24 2063.1 1545.13 2060.09C1547.85 2057.26 1545.75 2043.12 1545.88 2039C1546.34 2023.17 1539.36 1984.25 1548.87 1971.24C1551.16 1968.11 1559.48 1970 1563 1970C1572.08 1970 1605.85 1971.78 1609 1961C1587.84 1961.83 1565.44 1972.22 1545 1962M1669 1963.58C1643.45 1968.51 1631.69 1982.62 1627.87 2010C1625.07 2029.99 1636.87 2052.79 1659 2048.74C1681.43 2044.63 1698.25 2013.53 1698.9 1992C1699.4 1975.37 1686.12 1960.28 1669 1963.58M1765 1963C1766.96 1993.47 1730.44 2024.27 1729 2056C1734.05 2054 1735.98 2044.88 1737.93 2040C1743.68 2025.56 1751.55 2011.73 1756.52 1997C1758.18 1992.05 1761.96 1978.44 1767.39 1976.43C1771.66 1974.86 1776.49 1990.19 1777.88 1993C1785.06 2007.48 1792.92 2022.59 1797.96 2038C1799.07 2041.39 1801.23 2053.09 1805.46 2053.87C1810.53 2054.81 1801.14 2033.53 1800.13 2031C1793.21 2013.6 1781.17 1973.02 1765 1963M1655 1967C1652.99 1971.22 1650.05 1973.74 1646 1976C1647.87 1972.53 1650.39 1969.93 1653 1967L1655 1967M1671 1967L1670 1968L1671 1967M1675 1970.6C1692.76 1970.14 1696.17 1986.54 1692.86 2001C1688.13 2021.65 1676.57 2045.38 1652 2045.77C1635.77 2046.03 1632.63 2024.32 1633.04 2012C1633.77 1990.23 1652.87 1971.17 1675 1970.6M129 1972C121.508 1997.53 123.725 2025.69 120.672 2052C118.937 2066.96 113.313 2086.2 117 2101C124.878 2094.14 122.331 2079.31 123.321 2070C125.697 2047.66 126.543 2025.41 128.136 2003C128.839 1993.11 133.274 1981.72 131 1972L129 1972M209 2074C199.701 2052.15 192.607 2027.84 186.037 2005C183.717 1996.93 180.34 1981.54 172 1978C177.092 2010.44 195.285 2042.93 203.572 2075C204.458 2078.43 209.255 2106.18 212.384 2104.89C216.118 2103.36 213.01 2077.68 213.82 2073C218.001 2048.87 224.323 2024.55 234.079 2002C235.84 1997.93 244.005 1981.77 240.858 1978.11C239.917 1977.01 227.472 2005.89 226.16 2010C223.456 2018.47 220.081 2026.63 217.139 2035C212.767 2047.44 211.991 2061.2 209 2074M874 2045C901.055 2034.5 917.551 1996.57 945 1984L945 1982C935.99 1981.35 929.739 1988.8 923.783 1994.56C909.477 2008.41 879.794 2025.39 874 2045M2021 1985C2014.73 2011.49 2016.22 2011.95 1988 2010C1994.87 2019.82 2005.96 2012.2 2014.5 2016.82C2021.2 2020.45 2012.19 2041.05 2020.19 2042.68C2023.53 2043.36 2020.83 2019.98 2023.6 2017.14C2028.77 2011.85 2046.45 2013.84 2053 2015C2049.48 2003.31 2031.93 2016.28 2024.72 2010.04C2019.56 2005.58 2024.51 1991.18 2023 1985L2021 1985M1298 2059C1299.09 2053.46 1301.23 2048.68 1300 2043C1290.01 2051.59 1298.5 2060.99 1281 2061C1282.16 2054.46 1283.18 2046.16 1276 2043C1277.49 2049.39 1277.24 2055.56 1278 2062L1260 2061C1271.97 2041.82 1263.04 2033.49 1246 2026C1272.62 2017.19 1297.61 2005.47 1326 2016.47C1334.27 2019.67 1347.64 2024.64 1348 2035C1362.79 2024.24 1323.91 2011.79 1317 2010.32C1289.92 2004.58 1241.93 2012.85 1222.8 2035.23C1211.9 2047.99 1240.99 2059.59 1249.73 2064.3C1251.94 2065.49 1251.79 2071.34 1253.31 2071.36C1256.54 2071.39 1259.19 2066.04 1263.01 2065.59C1286.05 2062.81 1306.35 2062.24 1329 2053.93C1336.7 2051.1 1347.02 2041.7 1354.76 2041.04C1360.2 2040.57 1377.13 2066.3 1381.46 2061.19C1383.88 2058.34 1360.05 2040.59 1360.1 2035.01C1360.22 2023.61 1380.23 2013.29 1383 2001C1370.28 2008.79 1360.91 2026.7 1349.66 2037.04C1335.97 2049.63 1316.03 2055.94 1298 2059M564 2077C565.229 2078.96 566.346 2080.39 568 2082C567.801 2071.81 574.442 2044.66 570.697 2036.74C569.353 2033.9 548.427 2040.26 546.94 2043.28C541.757 2053.83 550.362 2067.79 547.362 2078.58C545.828 2084.1 532.823 2083.34 529.141 2089.1C524.449 2096.45 530.555 2108.79 526.596 2114.1C523.74 2117.93 498.081 2114.01 494.84 2111.02C489.625 2106.21 496 2075.68 496 2068C496 2053.34 489.052 2024.6 495.017 2011.45C497.201 2006.64 506.568 2006.47 511 2006.54C524.656 2006.73 560.285 1998.27 571.396 2004.49C576.847 2007.55 574.846 2030.13 575.04 2036C575.652 2054.52 574.661 2072.51 574.04 2091C573.871 2096.05 576.791 2106.93 574.171 2111.18C573.21 2112.74 555.712 2114.74 553.509 2114.28C549.61 2113.45 552.312 2084.26 554.511 2080.83C555.945 2078.58 561.54 2078.16 564 2077M1387.86 2004.41C1381.38 2009.94 1386.86 2047.29 1387.21 2056.08C1387.28 2057.8 1386.25 2072.76 1389.54 2071.24C1393.04 2069.62 1392 2061.01 1392 2058C1392.01 2043.96 1391 2030.04 1391 2016C1391 2014.7 1391.52 2001.29 1387.86 2004.41M906 2064C921.133 2054.32 933.733 2036.48 947.003 2024.14C954.06 2017.57 965.045 2012.25 970 2004C950.97 2007.02 911.521 2045.87 906 2064M1317 2016C1321.53 2028.35 1324 2029.13 1321 2043C1333.25 2037.28 1328.24 2019.34 1317 2016M1292 2019C1297.55 2027.99 1298.71 2031.48 1298 2042C1305.21 2035.03 1304.8 2018.34 1292 2019M1271 2025C1279.33 2027.71 1279.43 2033.23 1279 2041C1287.19 2035.09 1281.58 2019.07 1271 2025M1314 2025C1312.65 2033.58 1314.54 2043.98 1314 2053C1320.77 2043.97 1319 2034.88 1316 2025L1314 2025M1334 2045C1338.66 2040.98 1341.17 2033.98 1342 2028C1337.29 2029.65 1333.69 2040.29 1334 2045M1241.14 2030.91C1260.28 2025.2 1270.99 2055.56 1254.76 2060.35C1238.15 2065.25 1212.39 2039.49 1241.14 2030.91M1898 2048C1898 2019.92 1916.99 2041.18 1898 2048M1251 2035C1238.27 2037.98 1246.57 2057.52 1251 2035M983 2036C967.55 2041.63 954.614 2060.31 941.981 2070.82C940.63 2071.95 929.001 2081.28 932.025 2083.26C934.288 2084.74 943.284 2074.81 945.005 2073.37C956.653 2063.62 977.115 2050.34 983 2036M519 2081C523.484 2074.18 519.736 2064.55 528 2061C527.156 2067.37 527 2073.58 527 2080C533.868 2076.9 534.904 2041.6 528.708 2038.86C505.18 2028.45 497.005 2059.14 504.947 2075.72C507.052 2080.11 515.011 2078.55 519 2081M567 2040C566.113 2044.36 565.663 2047.76 561 2049C560.774 2046.63 560.476 2045.87 559 2044C559.497 2048.16 558.278 2051.86 558.059 2056C557.901 2058.98 557.95 2062.02 558.039 2065C558.749 2088.68 543.983 2056.59 550.58 2045.78C552.767 2042.2 563.085 2040.64 567 2040M523 2059L523 2051.99C523.026 2031.9 532.82 2052.3 523 2059M519 2042C518.561 2046.74 518.672 2051.27 518.528 2056C518.446 2058.69 517.746 2061.3 517.688 2064C517.624 2066.99 515.395 2079.79 509.299 2073.7C501.971 2066.38 509.919 2043.31 519 2042M2109 2046C2107.11 2052.12 2103.49 2058.53 2098 2062C2099.69 2055.52 2102.41 2048.61 2109 2046M841 2049C853.665 2063.51 885.662 2087.57 904 2093C894.886 2078.32 872.88 2067.99 859 2058.16C853.418 2054.2 848.259 2048.6 841 2049M1007 2049C990.123 2057.66 972.685 2076.82 959.003 2090.04C957.481 2091.51 944.55 2103.87 948.733 2106.24C950.931 2107.48 960.737 2094.14 962.545 2092.3C976.157 2078.46 999.232 2067.7 1007 2049M879 2055C877.523 2049.28 873.284 2053.52 879 2055M819 2067C821.318 2072.51 827.673 2075.76 832.136 2079.56C843.863 2089.56 870.147 2115.43 886 2115C870.214 2098.35 840.442 2075.43 819 2067M457 2087C453.589 2077.25 448.226 2082.25 457 2087M1022.77 2082.76C1017.04 2084.49 1011.59 2093.95 1007.6 2098.21C998.352 2108.12 986.679 2115.51 977.001 2125.02C976.042 2125.96 962.917 2140.36 967.37 2140.36C971.168 2140.36 978.171 2129.95 980.787 2127.34C991.932 2116.21 1004.83 2107.16 1015.99 2095.99C1016.93 2095.06 1028.49 2081.03 1022.77 2082.76M538 2092C540.354 2099.95 537.75 2102.49 530 2104C530.027 2097.32 545.312 2073.81 549.78 2086.58C552.386 2094.02 544.066 2130.58 532.512 2113.51C531.216 2111.59 531.024 2108.47 533.48 2107.44C537.227 2105.86 539.901 2112.08 542.205 2110.58C548.049 2106.76 542.862 2094.02 538 2092M797 2101C805.535 2115.44 830.908 2127.92 845 2137C849.887 2140.15 858.09 2146.46 863 2141C839.203 2132.08 821.168 2107.65 797 2101M1001 2160C1012.48 2149.11 1042.67 2125.96 1046 2111C1034.86 2117.1 997.421 2146.82 1001 2160M89 2135C127.398 2134.27 166.515 2133.74 205 2134.66C217.979 2134.96 233.877 2140.17 246 2139C241.081 2130.5 223.971 2131.2 215 2131.02C184.694 2130.4 154.313 2131 124 2131C115.021 2131 95.1611 2127.32 89 2135M774 2132C784.87 2145.34 818.955 2168.21 836 2171C834.42 2165.2 826.7 2163.74 822 2160.72C809.714 2152.8 789.019 2131.46 774 2132M1024 2179C1030.52 2176.53 1034.06 2169.79 1039.02 2165.14C1049.07 2155.71 1075.22 2145.34 1080 2133C1060.64 2136.86 1031.76 2161.17 1024 2179M801 2184C790.921 2173.97 777.218 2167.33 766.438 2157.88C764.379 2156.08 757.297 2148.69 754.408 2152.81C751.131 2157.48 762.627 2160.75 765 2162.02C777.074 2168.45 786.706 2182.81 801 2184z"/>
</svg>
