<?xml version="1.0" standalone="yes"?>
<svg xmlns="http://www.w3.org/2000/svg" width="2200" height="2200">
<path style="fill:#0f0f0f; stroke:none;" d="M679.179 61.3298C670.675 65.5295 675.539 80.6746 684.794 76.189C692.248 72.5762 686.66 57.6355 679.179 61.3298M681.368 65.322C684.002 64.8091 685.155 69.9993 682.662 70.8953C679.652 71.9771 678.476 65.8853 681.368 65.322M428.952 67.9023C418.012 69.4241 418.544 83.7646 429.93 81.606C437.082 80.25 436.939 66.7913 428.952 67.9023M2054 140C2057.65 161.75 2033.3 168.572 2037.37 191C2039.98 205.34 2059.7 206.398 2061.84 214.526C2063.88 222.309 2054.44 222.938 2050.41 227.28C2045.67 232.383 2044.84 240.345 2045.04 247C2045.54 263.257 2056.93 263.695 2062.18 275.235C2065.89 283.404 2067.54 320.337 2064.04 328.564C2059.4 339.505 2033.67 337.312 2028 351C2041.69 349.449 2052.23 345.789 2067 347C2065.01 348.548 2063.42 349.278 2061 350C2073.51 354.238 2112.7 345.004 2082 345C2089.43 341.114 2105.35 347.273 2104.93 348.488C2112.98 325.213 2073.15 337.09 2070.16 325.86C2066.87 313.473 2063.16 285.126 2068.69 273.233C2073.09 263.769 2085.34 262.228 2088 250C2084.49 254.018 2081.16 258.148 2077.02 261.558C2074.32 263.774 2071.21 265.966 2067.86 267.057C2040.82 275.861 2048.12 220.682 2065 230C2068.86 221.986 2084.32 226.473 2089.06 232.519C2092.66 237.122 2089.53 244.158 2088 249C2115.73 232.125 2068.43 222.964 2066.41 216.415C2064.52 210.263 2077.75 200.355 2081 195L2080 194C2073.99 199.622 2067.14 207.307 2058 206.521C2043.28 205.255 2036.63 185.654 2043.57 174.081C2050.1 163.183 2077.43 151.233 2085.42 167.108C2088.99 174.191 2083.2 186.1 2081 193C2089.06 186.693 2092.01 173.927 2087.01 165.027C2082.03 156.161 2061.56 159.01 2059.46 153.144C2058.29 149.874 2059.66 141.131 2061.26 138.136C2069.26 123.097 2099.11 80.6672 2057 82.3105C2040.59 82.9509 2019.28 101.941 2023.28 119.727C2025.89 131.319 2042.08 145.57 2054 140M2045 105C2042.02 100.647 2037.91 101.01 2033 101C2036.34 95.1045 2041.42 91.3137 2048 89.8154C2052.47 88.7969 2056.29 86.7334 2061 87.4675C2095.39 92.8289 2063.36 146.967 2043.01 137.156C2029.03 130.418 2024.78 103.347 2045 105M1342 91C1366.59 118.671 1416.58 138.103 1404.14 184C1400.89 196 1395.22 207.845 1389.83 219C1384.21 230.636 1380.54 241.911 1376.14 253.997C1375.5 255.765 1370.09 263.928 1373.35 264.935C1376.83 266.013 1379.61 258.235 1380.46 256C1385.03 243.974 1389.25 232.007 1394.09 220C1403.46 196.714 1418.86 171.183 1404.47 146C1397.55 133.888 1385.63 123.978 1376.04 114C1368.54 106.198 1354.03 89.2856 1342 91M487.322 114.329C478.576 116.663 482.809 131.906 491.971 129.989C503.951 127.482 496.725 111.82 487.322 114.329M1269 116C1271.73 127.5 1295.44 142.276 1303.6 151.999C1323.95 176.242 1317.46 201.607 1307.44 229C1306.23 232.3 1295.75 260.118 1298.48 260.574C1302.27 261.21 1303.6 253.345 1304.38 251C1308.29 239.316 1312.32 227.549 1316.62 216C1329.93 180.25 1309.59 126.309 1269 116M488 124C490.99 116.56 498.093 126.701 488 124M612.099 126.227C601.791 128.849 606.646 149.179 616.931 145.931C626.001 143.066 621.587 123.814 612.099 126.227M65 212C59.2946 203.415 44.6187 211.608 40.8217 203.716C37.6881 197.203 40 185.14 40 178C40 169.421 36.0525 154.721 39.2659 147.01C46.8625 128.781 75.9307 130.731 90 136C87.4815 116.897 45.1132 132.111 37.2437 141.049C26.5556 153.188 37.7497 186.06 36.2778 201.855C35.721 207.83 24.6433 205.649 24.6433 209.958C24.6433 213.79 35.3464 209.471 36.5228 214.373C37.5663 218.72 30.0358 251.357 36.8638 251.357C42.2189 251.357 38.6214 218.571 40.8217 214.501C43.9537 208.708 59.646 211.898 65 212M613.424 130.323C617.888 129.534 620.789 140.279 615.095 141.112C610.412 141.797 609.57 131.005 613.424 130.323M1212.11 130.488C1210.85 131.182 1236.31 151.559 1238.54 154.086C1260.33 178.778 1245.54 200.656 1238.36 228C1237.52 231.217 1227.54 255.503 1232.7 253.895C1238.93 251.956 1240.54 233.443 1242.46 228C1251.87 201.345 1264.61 174.178 1240.96 151.085C1236.78 147.01 1218.28 127.077 1212.11 130.488M1161 140C1169.31 152.546 1186.06 158.825 1192.6 173C1202.99 195.536 1182.45 217.986 1182 240C1189.59 236.595 1190.88 222.349 1193.06 215C1201.21 187.545 1201.67 173.39 1179.92 152.775C1174.51 147.642 1169.09 139.787 1161 140M1598 223C1598.24 228.22 1600.08 232.788 1599 238C1606.58 238.261 1612.05 244.126 1620 240.635C1632.11 235.311 1629.91 223.849 1645 224.003C1658.85 224.145 1664.97 245.792 1680.95 233.395C1689.09 227.082 1699.67 183.487 1690.28 176.018C1685.05 171.859 1665.91 177.938 1660 180C1660.53 171.285 1665.28 157.471 1659.62 149.504C1655.81 144.143 1619.94 151.902 1615.35 156.365C1609.45 162.093 1613.18 174.774 1607.5 178.74C1599.61 184.242 1585.43 174.695 1579.62 185.129C1572.21 198.422 1579.64 229.261 1598 223M764 155C766.88 165.486 760.334 191.869 767.803 199.116C774.347 205.465 793.419 201.201 802 202C800.532 190.937 806.368 161.031 798.576 153.564C790.092 145.433 773.624 152.832 764 155M1032 155C1032.2 165.699 1028.64 191.793 1034.26 200.635C1037.85 206.282 1047.62 203.533 1053 203.134C1056.44 202.879 1066.29 204.843 1068.56 202.122C1072.73 197.116 1074.32 157.003 1069.5 153.042C1058.64 144.114 1043.51 160.201 1032 155M1649 177C1650.77 175.018 1652.54 173.217 1654 171C1648.89 172.417 1633.27 184.13 1644.15 188.718C1650.77 191.508 1683.86 171.579 1689.1 180.84C1692.14 186.213 1686.39 202.569 1686 209C1676.08 205.591 1668.19 199.8 1658.03 206.854C1653.06 210.305 1653.68 220.042 1647.92 220.172C1632.96 220.511 1627.51 204.801 1613 206.328C1604.36 207.237 1596.37 224.349 1588.36 219.697C1583.28 216.742 1579.88 191.037 1583.94 186.94C1590.18 180.641 1604.55 187.927 1611.51 182.961C1618.48 177.988 1614.98 166.518 1619.38 160.779C1623.84 154.979 1644.89 152.689 1651.93 151.844C1659.79 150.9 1660.43 178.148 1649 177M852 152C849.886 164.072 848.276 186.734 854.604 197.735C858.824 205.071 876.698 204.55 880 197C873.545 197.229 865.993 199.648 860.284 195.474C855.235 191.783 851.776 164.488 856.862 160.293C861.831 156.194 880.26 157.895 887 157C882.629 166.347 884.694 180.8 885.04 191C885.078 192.115 885.93 203.531 888.887 200.592C896.152 193.373 888.532 164.052 894 153C879.399 149.44 866.37 158.356 852 152M974 199C952.574 196.159 948.006 195.303 948 173C947.999 169.721 946.327 161.684 948.958 159.26C954.101 154.52 976.08 157.74 983 158C975.975 167.953 978 180.385 978 192C978 193.403 977.886 206.663 981.992 201.377C987.704 194.022 981.256 175.157 983.942 166C984.746 163.259 989.342 157.693 986.377 155.179C981.137 150.736 945.942 151.952 943.603 158.019C941.73 162.88 941.26 194.586 944.218 198.347C947.797 202.897 971.847 205.124 974 199M784 154.408C802.306 151.463 796.859 170.238 795.563 182C795.142 185.819 797.491 195.554 792.713 196.716C761.564 204.295 758.867 158.452 784 154.408M1062.97 155.39C1070.91 155.139 1067.58 190.177 1064.06 196.499C1061.76 200.643 1048.32 199.849 1044 199.892C1034.15 199.993 1033.86 171.922 1037.02 164.317C1040.13 156.815 1056.11 155.607 1062.97 155.39M1133 161C1137.53 168.544 1146.46 171.744 1150.53 180C1156.95 193.014 1145.67 209.449 1143 222C1167.65 212.083 1155.51 166.466 1133 161M544.107 173.947C535.047 177.776 540.366 192.423 549.584 188.157C557.746 184.38 554.483 169.563 544.107 173.947M1119 180C1129.53 180.758 1125.15 190.509 1125 198C1132.54 191.355 1127.12 168.167 1119 180M117 213C122.908 217.169 124.039 246.248 134 236C115.151 224.149 137.567 196.133 126.395 183.801C84.1237 137.137 64.9159 275.967 107.992 227.639C111.973 223.173 115.285 218.792 117 213M543 179C554.921 177.043 547.201 187.787 543 179M200 224C192.777 225.895 184.966 239.019 177.199 236.116C161.585 230.28 169.919 191.988 181 186C180.011 190.416 177.719 201.809 185.986 201.133C194.928 200.402 194.985 181.54 185.978 179.843C153.694 173.762 158.84 266.565 191.863 233.94C194.91 230.929 198.304 227.956 200 224M1645 187C1644.11 176.965 1653.74 181.932 1645 187M227 223C238.56 224.516 235.258 239.186 246.003 242.395C261.928 247.151 287.823 227.779 303 223C286.37 210.062 262.748 248.165 245.203 236.917C240.914 234.167 237.738 225.793 240.843 221.303C248.637 210.031 269.636 206.081 269.825 189.043C270.024 171.18 241.444 184.39 238.185 195C234.599 206.673 236.045 214.278 227 223M114.991 181.986C135.457 184.442 106.275 237.216 92.4201 234.66C85.4061 233.365 86.8101 219.863 87.3203 215C88.8783 200.151 95.6584 179.666 114.991 181.986M186.454 186.323C190.798 185.531 189.691 195.997 186.048 195.997C182.936 195.997 183.489 186.864 186.454 186.323M238 216C238.959 208.98 252.477 167.859 265.542 188.124C270.933 196.486 244.032 214.332 238 216M1670 206C1669.05 208.37 1668.41 210.481 1668 213C1670.64 211.246 1672.98 209.934 1676 209C1672.9 217.084 1666.83 215.153 1661 211C1661.59 214.728 1665.04 216.003 1665.84 219.371C1666.38 221.647 1664.3 227.265 1661.18 226.239C1646.42 221.379 1661.81 207.067 1670 206M1618 210L1617 218C1631.71 214.245 1631.33 225.906 1622 235C1619.32 224.985 1613.69 218.531 1604 215C1607.6 210.432 1612.5 210.119 1618 210M410 211C410.482 213.364 410.636 213.518 413 214C412.101 211.877 412.124 211.899 410 211M1678.96 214.507C1684.66 214.985 1685.87 227.997 1679.95 227.997C1674.86 227.997 1671.91 213.915 1678.96 214.507M1605.39 219.323C1611.3 218.462 1610.05 228.997 1604.47 228.997C1600.52 228.997 1601.97 219.821 1605.39 219.323M1670.06 224.636C1674.69 224.705 1677.33 233.571 1670.94 233.588C1664.31 233.606 1664.31 224.55 1670.06 224.636M603.204 225.289C595.868 229.254 599.442 246.232 608.434 242.149C616.528 238.473 612.354 220.344 603.204 225.289M1621 237C1599.61 243.493 1612.27 218.648 1621 237M604 237C607.113 229.895 610.976 234.265 604 237M494.04 234.01C482.806 234.525 485.688 254.105 495.927 254.067C507.295 254.025 504.056 233.55 494.04 234.01M494 238C504.572 245.148 490.877 249.232 494 238M432.06 297.544C421.312 301.135 425.273 319.037 436.852 314.451C444.601 311.381 439.482 295.064 432.06 297.544M674.921 297.4C665.338 297.408 663.515 314.493 673.909 313.935C681.589 313.522 684.588 297.392 674.921 297.4M434 301C437.311 310.602 427.792 311.838 432 301L434 301M497.5 302.5C496.872 303.128 497.873 304.127 498.5 303.5C499.127 302.873 498.128 301.872 497.5 302.5M674.606 303.641C677.279 303.641 675.889 309.194 673.286 308.678C670.639 308.153 672.398 303.641 674.606 303.641M2065 335C2063.47 339.845 2057.92 341.461 2056 336C2059.02 335.463 2061.94 335.109 2065 335M214 400C199.968 399.733 187.008 401.275 173 402.839C169.289 403.253 162.862 400.829 159.833 403.065C152.785 408.266 148.436 422.666 143.467 430C139.831 435.368 125.552 453.596 131.427 459.215C139.842 467.263 152.538 460.833 162 459.914C180.572 458.109 201.203 461.895 220 461.997C225.105 462.025 243.616 464.205 246.108 458.499C248.351 453.364 239.879 446.48 237.11 443C229.055 432.875 209.447 413.453 214 400M242 458C217.287 456.203 189.3 454.117 165 455.188C157.771 455.506 142.107 463.85 135.926 456.958C133.162 453.875 137.602 447.854 139.038 445C143.342 436.446 152.85 413.331 161.402 409.063C168.429 405.557 195.632 400.874 202.931 403.829C207.825 405.811 210.003 413.024 213.089 417C222.086 428.591 237.263 444.31 242 458M1934 552C1944.36 552.771 1953.47 547.744 1964 549.818C1982.04 553.369 2006.78 578.844 2014.01 595C2020.84 610.26 2019.87 625.937 2017.94 642C2017.58 645.013 2015.34 655.771 2020.18 656.677C2024.11 657.413 2023.03 646.078 2023.22 644C2024.45 630.109 2026.56 615.46 2021.64 602C2015.5 585.203 2002.61 571.025 1988.87 559.723C1985.86 557.245 1971.51 550.084 1971.52 546.117C1971.52 543.245 1979.93 541.14 1982 540.066C1991.33 535.231 2001.03 528.716 2007.17 519.981C2022.63 497.977 2025 468.953 2025 443C2011.71 450.432 2019.89 458.803 2018.78 471C2017.3 487.244 2012.39 506.23 2001.68 518.997C1991.72 530.884 1976.77 538.921 1962 543.189C1951.49 546.225 1941.96 540.374 1934 552M1289 559C1284.32 566.425 1274.15 569.257 1267.57 575.019C1253.02 587.753 1240 603.653 1233.53 622C1228.77 635.48 1225.86 650.696 1228.54 665C1229.93 672.437 1237.77 682.674 1244 673C1222.6 674.357 1235.92 625.555 1240.96 615.078C1251.25 593.731 1270.73 577.484 1290 565.208C1293.93 562.705 1314.25 562.811 1314.24 562.128C1314.2 559.347 1307.06 557.282 1305 556.544C1294.76 552.876 1282.96 552.718 1272 548.641C1246.34 539.091 1229.85 520.736 1213.13 499.981C1206.49 491.739 1197.39 479.096 1199 468C1200.64 469.67 1201.99 470.82 1204 472C1203.47 469.673 1201.02 456.58 1196.36 461.873C1187.77 471.658 1201.18 491.071 1206.95 498.79C1225.12 523.127 1255.48 558.162 1289 559M438 656C450.561 656.968 465.045 633.905 473.433 626C514.884 586.937 533.813 539.695 539 484C553.418 500.131 558.098 538.45 566.624 559C572.945 574.236 581.742 589.852 591.698 603C602.352 617.071 615.168 629.643 627.679 641.923C629.096 643.313 638.451 654.486 640.475 651.031C643.113 646.525 619.304 626.839 615.85 623.137C586.194 591.358 575.405 558.984 557.636 521C551.935 508.814 549.244 495.89 545.838 483C545.108 480.238 544.527 471.022 540 472.326C534.947 473.783 535.863 481.988 535.242 486C533.027 500.319 532.692 515.014 528.431 529C519.436 558.526 504.533 586.93 483.775 610C469.388 625.989 450.894 638.738 438 656M1542 505L1539 501C1559.44 500.422 1582.63 488.347 1603 497.997C1616.22 504.261 1625.04 520.72 1633.48 532.04C1638.75 539.115 1652.06 564.49 1645.69 573.281C1642 578.384 1619.52 579.801 1613 581.641C1595.95 586.451 1575.45 602.01 1567.76 618.078C1562.5 629.076 1558.14 647.946 1560.93 659.999C1562.89 668.465 1575.3 675.225 1580 665C1557.73 668.64 1565.36 639.63 1569.49 626C1575.96 604.624 1597.77 593.003 1617 585.495C1625 582.373 1644.83 573.349 1648 585C1674.19 577.567 1702.8 570.525 1723.25 594.228C1736.62 609.724 1736.04 629.84 1736 649C1735.99 650.906 1734.06 667.385 1739.13 664.456C1743.61 661.87 1741 643.635 1741 639C1741 611.305 1729.63 581.814 1700 574.189C1686.23 570.646 1665.5 581.949 1654.3 577.222C1649.71 575.284 1650.68 559.281 1651.41 555C1655.35 531.998 1691.16 498.815 1712 490.46C1717.25 488.355 1748.06 475.687 1748.29 479.874C1747.89 472.592 1739.32 474.701 1735 476.179C1721.7 480.735 1709.41 485.863 1698 494.328C1684.18 504.587 1670.25 517.656 1659.37 530.984C1657.37 533.435 1650.88 546.493 1647.92 546.481C1644.31 546.467 1639.93 533.795 1638.18 531.001C1630.82 519.261 1618.54 499.027 1605.98 492.619C1592.31 485.64 1562.25 490.7 1548 494.596C1544.11 495.66 1534.85 496.393 1532.41 499.883C1529.16 504.52 1539.8 505.415 1542 505M928 633C928 585.948 907.086 545.689 877.279 510C869.344 500.499 861.483 487.794 851 481C848.578 491.973 871.105 509.482 878.034 518.136C898.667 543.91 917.323 576.032 922.288 609C922.877 612.91 923.848 648.308 931.578 644.456C936.964 641.773 939.097 615.321 941.279 609C952.951 575.197 968.643 546.24 985.881 515C991.315 505.154 998.069 497.945 1005.99 490.019C1006.95 489.052 1014.03 483.064 1011.04 481.466C1004.61 478.031 985.156 507.216 982.183 512C967.162 536.167 952.774 561.246 942.836 588C937.878 601.345 936.656 621.849 928 633M141 537C126.78 549.81 107.676 577.189 103 596C118.939 589.84 123.725 559.72 136.535 548.402C140.918 544.53 148.748 547.498 154 547.864C166.775 548.754 179.348 544.666 192 544.715C206.811 544.771 219.469 569.903 227.262 580C229.085 582.361 238.926 591.363 234.472 594.198C222.652 601.721 204.067 599.232 191 599.059C172.958 598.82 155.062 602 137 602C132.111 602 105.899 597.407 103.761 601.538C101.904 605.127 134.698 607 138 607C172.268 607 213.587 608.351 246 597C237.655 582.255 214.59 545.918 198.544 539.965C185.612 535.168 154.834 543.137 140 543C140.719 540.826 141.177 539.261 141 537M66 716C68.6779 716.914 71.1733 716.974 74 717C75.2801 708.515 86.3017 700.08 91.6436 693.563C98.671 684.988 109.324 666.048 119.155 661.396C124.581 658.829 133.996 661.289 140 660.864C154.769 659.818 169.264 656.264 184 654.79C195.32 653.658 216.175 648.625 226.816 652.98C233.903 655.881 240.505 668.888 244.81 674.997C254.045 688.105 265.535 699.366 277 710C209.746 710 142.232 716 75 716C88.8505 720.692 109.375 717 124 717C161.555 717 199.404 716.745 237 715.981C249.347 715.731 261.595 714.701 274 715.021C276.692 715.09 284.637 717.918 286.592 715.733C288.994 713.051 278.647 705.135 277 703C278.06 702.848 281.833 702.625 280.898 700.494C279.669 697.693 270.642 694.596 268 692.387C257.036 683.221 234.444 663.604 236 648C207.314 645.334 177.626 652.569 148 655.68C139.317 656.591 123.604 652.588 116.298 657.822C96.3048 672.143 85.1698 699.984 66 716M544 889C549.441 896.247 547.408 909.252 548.32 918C551.031 943.991 549.354 968.201 545.522 994C543.557 1007.24 535.942 1024.93 539 1038C552.149 1027.42 551.998 983.889 552 968C564.06 976.214 564.963 1001.99 568.742 1015C570.502 1021.06 571.022 1030.25 578 1032C574.591 1006.28 561.907 984.565 554.939 960.32C549.332 940.81 547.531 902.332 550 882C561.966 896.623 572.205 916.372 579.078 934C579.74 935.699 584.337 951.333 587.693 947.031C591.536 942.103 582.618 929.224 580.404 925C572.803 910.499 549.834 883.906 550.186 867.465C550.26 863.962 562.461 858.872 565.318 856.294C574.591 847.922 583.282 835.699 584.676 823C586.374 807.533 574.396 797.2 560 795.341C531.076 791.607 509.01 822.195 521.819 848C525.882 856.186 539.763 861.151 541.851 868.147C544.732 877.796 540.015 889.32 538.897 899C536.989 915.511 531.221 931.615 529.114 948C528.746 950.868 525.25 961.392 528.505 963.031C533.668 965.629 534.261 949.433 534.569 947C537.001 927.744 543.63 908.436 544 889M550.001 800.907C594.318 793.525 582.928 855.637 550.217 860.362C510.734 866.066 520.721 805.785 550.001 800.907M108 953C136.293 947.295 154.108 912.988 179 901C176.503 912.718 184.871 925.984 180.397 937C168.741 965.7 136.303 992.138 132 1023C139.475 1019.79 141.882 1008.71 145.851 1002C155.852 985.083 167.026 964.686 180 950C187.318 970.443 201.875 989.044 210.962 1009C211.656 1010.52 219.237 1030.04 222.297 1023.61C223.94 1020.15 215.979 1008.5 214.499 1005C206.33 985.678 188.544 967.084 182.454 947.783C181.025 943.256 185.643 938.577 185.938 933.96C186.598 923.637 183.611 914.18 183 904C199.657 911.999 215.613 919.688 233 926.047C240.102 928.645 247.882 930.495 249 939C252.601 936.968 254.334 934.769 256 931C236.323 922.206 216.479 914.365 197 905.335C187.411 900.89 177.584 894.616 181.725 882.107C183.602 876.435 192.423 874.547 197 871.432C209.023 863.25 219.576 849.177 213.557 834C203.131 807.708 158.275 811.82 151.526 839C148.564 850.931 151.758 863.094 159.984 871.97C166.8 879.326 186.313 881.846 174.499 896.78C161.553 913.144 141.54 924.181 125.783 937.458C119.898 942.417 110.869 945.488 108 953M188 820.799C229.049 819.785 208.319 873.587 176 873.978C160.145 874.17 154.102 856.337 157.971 843.003C160.949 832.738 177.144 821.067 188 820.799M924 831.446C902.521 833.642 879.747 839.593 867.235 859C840.449 900.551 868.426 964.173 923 958.613C983.933 952.406 1023.17 846.803 946 834.244C938.734 833.062 931.407 830.688 924 831.446M887 902C897.879 905.868 914.387 913.557 918.907 925.115C920.509 929.21 914.024 948.605 922.337 950.133C927.297 951.045 926.987 941.67 926.693 939C924.072 915.154 939.696 915.739 953.756 902.056C956.353 899.528 952.9 897.234 951 896L956 886C959.152 888.497 962.12 891.207 964.941 894.078C987.176 916.717 957.59 880.471 954.411 870.002C953.772 867.895 951.275 862.493 948.221 863.643C943.657 865.362 952.558 879.446 952.578 883C952.676 900.062 930.631 918.005 914 911.737C905.343 908.475 893.67 898.46 891.721 889C890.087 881.067 894.949 869.973 885 866C886.031 870.03 887.452 873.864 888 878C879.552 878.838 885.221 887.904 887 893C885.106 892.456 883.76 891.904 882 891C884.632 900.763 881.786 908.177 877.185 916.999C876.124 919.033 872.483 927.057 869.405 923.351C851.33 901.581 864.444 847.112 896 857C894.46 854.296 885.901 849.605 886.323 847.073C887.414 840.523 906.822 837.823 912 836.927C935.839 832.801 969.272 839.219 981.297 862.008C1002.37 901.947 960.372 943.795 926 953.863C912.743 957.746 878.073 947.132 874.47 932C872.604 924.164 885.634 910.895 887 902M1224 920C1222.88 911.548 1221.21 898.812 1229 893C1226.99 908.132 1229.06 920.696 1234.11 935C1238.04 946.124 1246.27 954.541 1255 962.082C1265.32 970.992 1279.48 975.992 1293 976C1309.07 976.009 1327.35 978.898 1340.96 967.87C1385.7 931.623 1372.65 854.773 1311 849.155C1277.32 846.086 1249.98 850.477 1230.56 881C1224.07 891.209 1210.14 909.906 1224 920M1300 853.112C1318.94 856.285 1341.67 859.963 1353.9 876.012C1372.31 900.169 1362.95 947.748 1337.98 964.576C1323.39 974.409 1300.76 974.607 1284 971.715C1210.35 959.002 1219.42 839.611 1300 853.112M1656 856.516C1629.85 860.807 1603.69 872.967 1594.5 900C1579.28 944.746 1613.91 995.776 1661 987.979C1691.89 982.864 1722 948.668 1722.78 917C1723.66 881.575 1692.07 850.599 1656 856.516M1642 869L1640 863C1644.6 863.542 1649.72 867.256 1651 861C1673.14 861 1693.36 864.098 1708.02 883.118C1737.33 921.138 1698.41 983.362 1654 984.959C1643.36 985.342 1630.62 985.683 1621.68 978.904C1586.85 952.489 1586.88 867.775 1642 869M1880 911C1884.49 924.544 1898.12 925.068 1904 912C1912.81 923.479 1926.05 923.07 1931 908C1928.15 909.496 1924.46 913.394 1921.16 913.36C1909.1 913.238 1916.03 888.71 1930.63 896.082C1934.42 897.996 1931.88 903.67 1932.9 907C1935.64 915.91 1943.24 920.951 1952 921L1952 918C1948.36 917.765 1946.06 916.985 1943 915C1950.58 913.184 1959.24 910.226 1959 901C1954.73 904.577 1950.34 911.3 1944.03 910.711C1935.51 909.918 1938.09 898.354 1944.1 895.822C1962.56 888.048 1958.98 908.43 1967.21 915.433C1975.03 922.095 1984.61 914.452 1986 906C1969.25 919.618 1961.6 898.635 1977 892.667C1980.04 891.488 1985.5 890.352 1988.1 893.05C1991.23 896.303 1987.15 902.408 1988.46 906.438C1993.11 920.773 2011.9 926.691 2015 908C2011.57 909.905 2008.71 913.726 2004.98 914.913C1992.78 918.796 1999.52 882.029 2016.48 893.424C2023 897.803 2012.98 913.155 2026.23 916.437C2032.75 918.054 2039.05 911.423 2041 906C2057.07 917.4 2056.02 910.068 2072 908.993C2086.08 908.045 2086.47 920.404 2101 907C2105.65 919.933 2113.04 915.036 2124 916C2123.18 913.974 2122.75 913.272 2121 912C2122.29 909.982 2123.19 908.244 2124 906C2101.98 919.355 2111.92 877.075 2128.18 888.583C2131.04 890.603 2126.54 899.123 2126.27 902C2125.54 909.739 2136.67 918.972 2144 918C2139.29 911.182 2151.48 907.302 2154 900C2156.89 905.024 2159.03 912.932 2166 913.429C2176.8 914.199 2188.48 894.606 2182.74 885.347C2177.26 876.506 2165.07 883.393 2158 884.807C2141.72 888.062 2120.93 886.062 2104 886.785C2037.79 889.614 1978.22 887.804 1915 893.931C1897.27 895.649 1871.03 886.265 1856.05 895.174C1847.73 900.123 1848.94 916.427 1858.09 920.176C1866.26 923.525 1874.63 916.131 1880 911M2160 890C2165.6 891.564 2166.99 891.134 2166 885C2198.84 886.165 2160 929.808 2160 890M2060.22 888.655C2080.17 883.932 2076.69 906.436 2061 910.271C2046.38 913.845 2045.97 892.026 2060.22 888.655M2145 888.46C2158.71 886.158 2149.87 906.714 2141 908.392C2125.4 911.344 2132.2 890.607 2145 888.46M2089.01 891.409C2107.55 888.122 2103.02 908.987 2089.01 910.826C2078.02 912.268 2077.85 893.387 2089.01 891.409M2033 892.449C2050.83 888.715 2042.1 909.766 2031.1 911.751C2021.71 913.446 2023.09 894.527 2033 892.449M1866 895C1907.57 895.186 1846.13 935.495 1855.01 903.038C1857.46 894.088 1866.04 905.235 1866 895M1997 896C1996 897.924 1995.92 898.098 1994 899C1994.48 896.636 1994.64 896.482 1997 896M1896 897.34C1910.79 895.877 1903.49 916.022 1893 917.326C1880.07 918.935 1882.73 898.652 1896 897.34M1912 897L1912 899L1909 899L1909 897L1912 897M1266 941C1273.87 921.581 1300.35 896.991 1321.77 914.829C1325.28 917.753 1343.37 943.88 1345.52 942.456C1349.74 939.658 1336.78 924.358 1334.82 922C1321.9 906.445 1311.5 901.735 1292 908.257C1283.62 911.06 1253.14 930.982 1266 941M1909 906C1912 909.073 1914.53 912.49 1917 916C1911.01 916.771 1907.63 911.685 1909 906M2107 906C2110.04 908.795 2112.18 910.735 2112 915C2108.57 912.594 2105.89 910.413 2107 906M921.531 916.966C924.357 915.641 926.172 920.226 923.396 921.251C921.041 922.12 919.14 918.087 921.531 916.966M1621 929C1641.21 933.719 1660.76 926.313 1681 929.14C1687.52 930.05 1698.64 934.228 1702 927C1680.34 924.129 1664.36 925.841 1643 926.922C1636.76 927.238 1625.26 923.868 1621 929M66 1270C64.4836 1273.64 62.9944 1277.18 62 1281C57.474 1276.86 54.8422 1270.84 48.9219 1268.24C19.3312 1255.25 13.3551 1320.76 44 1309.81C54.306 1306.13 54.3852 1295.57 62 1290C62.0054 1293.33 61.8234 1296.77 62.7772 1300C72.0641 1331.43 95.0311 1293.3 105 1287C105.001 1312.28 129.852 1315.12 142 1294C160.054 1316.53 188.971 1303.54 191 1275L193 1275C192.651 1284.84 190.998 1317.33 210.96 1308.34C221.295 1303.68 224.586 1292.58 233 1286C233.313 1299.25 244.068 1309.8 256.999 1301.76C260.069 1299.86 265.818 1291.52 269.181 1291.5C283.654 1291.43 284.857 1301.64 301 1290C315.219 1335.63 374.436 1262.61 328 1258C333.205 1249.41 338.261 1236.55 328.775 1228.59C325.946 1226.21 316.128 1226.02 315.329 1222.5C313.052 1212.47 326.145 1204.7 314.683 1194.56C308.489 1189.09 296.774 1194.92 292.205 1190.32C289.15 1187.24 296.062 1175.84 296.63 1172C299.227 1154.43 282.356 1155 270 1155C273.938 1148.59 282.729 1137.09 275.396 1129.85C266.529 1121.09 254.329 1133.7 257 1116C249.353 1118.14 250.894 1130.27 241.04 1131.89C230.164 1133.68 230.532 1117.67 224.735 1116.79C219.833 1116.03 195.779 1145.6 201 1116C193.861 1116.04 174.816 1130.5 168 1136C166.003 1128.18 167.862 1123.16 171 1116C165.812 1116.39 164.201 1119.19 161 1123C160.997 1120.52 161.384 1118.4 162 1116C156.198 1117.59 159.011 1122.64 155.181 1125.74C147.245 1132.16 134.943 1128.56 128.46 1140.09C125.302 1145.7 128.359 1155.99 125.024 1160.1C119.898 1166.42 108.035 1163.04 102.892 1168.6C96.3439 1175.69 102.596 1185.87 98.7035 1192.32C95.7728 1197.18 84.8518 1198.67 80.4194 1203.3C73.1135 1210.92 77.5862 1221.98 72.8831 1227.97C67.9697 1234.22 56.9536 1234.14 51.4479 1242.14C42.7594 1254.76 51.5734 1269.92 66 1270M1883 1171C1891.73 1178.11 1906.97 1165.65 1915.16 1170.56C1921.99 1174.65 1910.06 1196.89 1914.94 1203.84C1919.47 1210.29 1947.31 1201.19 1956 1202C1953.67 1189.22 1926.22 1205.02 1919.2 1201.93C1915 1200.09 1919.73 1171.82 1923.43 1168.94C1928.45 1165.04 1935.64 1169.41 1939 1163C1933.42 1162.37 1928.52 1163.44 1923 1164C1926.26 1151.95 1926.78 1139.34 1928.42 1127C1928.58 1125.8 1929.35 1113.16 1925.19 1117.33C1915.67 1126.85 1927.75 1153.75 1917.26 1164.26C1909.69 1171.83 1892.46 1167.35 1883 1171M1977 1202C1982.32 1185.19 1983.02 1176.19 1996.29 1162.83C1998.61 1160.49 2008.8 1150.54 2011.36 1157.12C2015.01 1166.5 1998.63 1199.65 2011 1204C2011 1186.57 2027.79 1133.2 1995 1157.83C1990.8 1160.99 1987.22 1164.85 1983 1168C1984.7 1160.88 1985.99 1154.35 1986 1147C1986 1143.68 1986.76 1115.8 1983.32 1117.11C1979.31 1118.63 1981 1129.71 1981 1133C1981 1151.65 1978.57 1165.47 1973.91 1183C1972.57 1188.03 1973.01 1198.46 1977 1202M150.999 1131.49C174.182 1128.83 158.597 1164.21 143 1165.99C121.435 1168.46 132.848 1133.57 150.999 1131.49M257 1131.34C286.59 1127.4 269.943 1163.16 252 1165.72C229.752 1168.89 238.625 1133.79 257 1131.34M190 1132.57C214.329 1126.28 202.611 1156.97 187.022 1160.2C172.895 1163.13 175.617 1136.28 190 1132.57M224 1141C224.435 1134.88 230.158 1130.95 234.918 1137.06C239.616 1143.1 230.718 1172.08 219.049 1165.04C208.148 1158.46 208.163 1130.82 224 1141M1014 1256C1013.99 1226.29 1007 1196.8 1007 1167C1007 1163.95 1007.09 1138.22 1001.4 1142.11C996.678 1145.33 1002.99 1161.75 1003 1167C1003.06 1189.27 1006.27 1210.88 1007.86 1233C1008.35 1239.71 1006.86 1252.77 1014 1256M174 1142C173.646 1148.32 175.17 1153.04 177 1159C169.584 1156.95 165.768 1145.67 174 1142M911 1143C908.117 1151.02 913.396 1164.36 914.543 1173C916.783 1189.86 915 1208 915 1225C915 1228.7 913.81 1248.36 919.74 1248.36C922.784 1248.36 920.066 1226.17 919.96 1223C919.249 1201.85 925.905 1159.7 911 1143M205 1149C205.639 1152.61 207.972 1161.7 204.178 1164.19C202.378 1165.37 188.643 1169.38 188.643 1166C188.643 1162.51 200.682 1153.14 203 1149L205 1149M166 1150C165.892 1154.36 166.619 1156.21 170 1159C164.149 1163.56 157.843 1162.54 152.408 1169.01C147.773 1174.53 147.617 1183.69 142.577 1188.2C136.048 1194.05 127.572 1195.36 121.908 1203.08C116.131 1210.95 121.134 1219.62 117.526 1226.4C115.354 1230.49 105.901 1232.01 102.235 1235.53C88.9389 1248.3 101.25 1262.21 79 1263C84.8969 1255.64 89.5949 1246.6 88 1237C80.9084 1246.44 83.4173 1258.76 70.9974 1265.49C57.0037 1273.07 49.9283 1253.97 56.9639 1244C67.2635 1229.42 80.3182 1239.79 92.4381 1231.82C109.268 1220.75 111.318 1204.9 125.179 1192.82C131.25 1187.53 135.461 1171.6 144 1173C145.44 1167.65 160.866 1152.21 166 1150M2033 1192C2042.22 1192.86 2038.11 1202.18 2044.32 1206.82C2053.24 1213.47 2069.94 1200.13 2075 1193C2070.48 1194.43 2066.31 1196.59 2062.02 1198.57C2053.87 1202.32 2037.42 1204.38 2045.26 1189.02C2050.49 1178.78 2071.99 1172.44 2069.44 1158.03C2067.58 1147.54 2055.82 1151.11 2050.24 1155.74C2041.87 1162.68 2037.09 1182.34 2033 1192M803 1152C803.017 1187.36 808 1222.54 808 1258C814.857 1254.63 814.023 1241.77 813.465 1235C811.791 1214.65 810.004 1194.44 808.921 1174C808.581 1167.58 808.469 1155.95 803 1152M2063.46 1157.14C2071.16 1160.28 2050.81 1183.91 2045.96 1181.32C2040.15 1178.21 2052.47 1152.67 2063.46 1157.14M271 1168C269.06 1166.01 267.58 1165.03 265 1164C294.409 1144.4 303.073 1188.08 277.99 1196.07C262.368 1201.05 260.532 1170.51 271 1168M223 1170C225.785 1169.54 235.293 1162.06 236.575 1163.96C237.839 1165.84 221.804 1197.95 222.382 1198.25C221.092 1197.58 224.831 1175.08 223 1170M172 1165.56C196.967 1161.59 183.027 1197.96 166.001 1200.51C152.516 1202.52 151.901 1181.45 155.707 1173.1C158.537 1166.89 165.987 1166.52 172 1165.56M124.999 1166.44C144.287 1165.37 127.405 1195.12 115 1195.37C105.365 1195.57 99.746 1184.28 104.26 1176.13C107.586 1170.11 118.547 1166.8 124.999 1166.44M210 1168C209.226 1169.79 185.645 1194.37 190.078 1195.89C186.367 1194.62 187.913 1185.81 188.417 1183C190.73 1170.12 199.345 1169.53 210 1168M251 1179C263.244 1190.56 248.497 1204.71 237.508 1197.08C225.603 1188.81 234.795 1170.92 249 1178L247 1170C254.051 1170.11 257.231 1173.68 251 1179M260 1172L260 1183C258.217 1179.44 258.702 1175.71 260 1172M210 1176.42C231.865 1172.4 219.691 1200.71 206.049 1203.19C193.696 1205.42 196.704 1178.86 210 1176.42M184 1192C184.143 1195.33 183.142 1196.06 180 1197C181.173 1194.84 182.156 1193.64 184 1192M145.664 1194.29C160.249 1197.61 151.104 1231.86 138.106 1229.35C124.028 1226.63 126.953 1190.04 145.664 1194.29M232.432 1197.64C234.371 1197.64 236.294 1201.22 233.719 1201.68C231.248 1202.12 229.806 1197.64 232.432 1197.64M292.003 1196.69C319.729 1187.82 322.159 1223.91 300.04 1230.74C283.935 1235.71 274.478 1202.29 292.003 1196.69M101 1197.62C126.801 1197.21 103.175 1228.55 88.0077 1228.81C67.9944 1229.15 85.1599 1197.88 101 1197.62M279 1198C280.009 1209.66 266.485 1239.97 251.071 1236.21C230.556 1231.2 240.686 1207.49 252.078 1200.71C261.532 1195.09 270.321 1204.06 279 1198M1261 1199.71C1196.14 1207.52 1146.1 1279.21 1191.18 1334C1197.91 1342.17 1205.29 1349.54 1215 1354.1C1232.86 1362.49 1258.37 1364.04 1278 1361.78C1314.61 1357.56 1355.52 1319.34 1354.97 1281C1354.33 1236.31 1304.91 1194.43 1261 1199.71M179.011 1201.45C202.741 1197.41 202.414 1233.21 181.992 1234.87C171.513 1235.72 165.359 1203.77 179.011 1201.45M217 1213C214.712 1211.44 212.513 1210.16 210 1209C213.932 1202.42 228.194 1199.01 230.66 1209.16C231.481 1212.54 229.631 1217 228.213 1220C226.84 1222.91 224.966 1225.6 222.756 1227.93C207.18 1244.37 195.423 1213.7 207.322 1211.41C210.299 1210.84 213.851 1213.03 217 1213M1261 1202C1266.15 1203.86 1270.65 1203.11 1276 1203C1272.7 1212.23 1264.28 1219.53 1260.33 1229C1250.29 1253.11 1246.45 1280.42 1246.88 1306.44C1247.09 1318.72 1253.46 1331.75 1259.82 1342C1261.45 1344.63 1268.64 1352.92 1267.26 1356.04C1264.36 1362.6 1230.18 1354.8 1225 1352.79C1194.51 1340.94 1172.3 1312.77 1176.18 1279C1179.43 1250.76 1206.82 1223.95 1232 1213.62C1241.85 1209.58 1254.11 1202.57 1263 1210C1263.25 1206.76 1260.54 1204.48 1261 1202M127 1204C126.325 1215.28 128.606 1221.48 132 1232C121.662 1227.46 115.431 1211.19 127 1204M165 1231C143.018 1236.56 135.141 1241.75 140 1267C105.797 1265.27 146.939 1232.3 152.47 1220C153.628 1217.42 157.457 1202.27 162.214 1205.51C164.332 1206.96 162.152 1225.91 165 1231M1282 1207L1281 1208L1282 1207M1289 1208L1290 1217C1285.25 1215.23 1283.65 1210.13 1289 1208M1710 1209C1708.12 1220.03 1689.04 1209.82 1681 1210.04C1654.91 1210.77 1627.92 1214.4 1602 1218C1597.41 1218.64 1581.14 1214.3 1578.49 1217.87C1574.08 1223.85 1578.02 1241.95 1578.67 1249C1580.79 1271.81 1581.14 1296.09 1581.96 1319C1582.21 1326.09 1579.67 1343.9 1586.76 1348.58C1590.27 1350.9 1600.74 1348 1605 1348L1655 1348C1666.56 1348 1702.04 1357.09 1710.74 1347.11C1714.09 1343.26 1712 1331.84 1712 1327C1712 1307.86 1710 1289.1 1710 1270C1710 1255.39 1720.28 1218.06 1710 1209M1279 1210C1278.43 1214.39 1277.48 1216.88 1273 1218C1273.9 1213.97 1275.42 1212.04 1279 1210M167 1214C168.818 1219.78 170.324 1225.98 171 1232C164.131 1228.4 163.902 1221.1 165 1214L167 1214M550 1301C557.26 1295.83 605.828 1287.98 611 1295C623.12 1286.7 608.315 1248.76 611.838 1235C612.937 1230.71 619.657 1219.07 615.138 1215.27C608.528 1209.71 584.378 1223.14 577 1225.1C569.539 1227.08 551.667 1221.27 547.468 1223.62C543.033 1226.1 544.98 1237.79 545.003 1242C545.097 1259.33 543.755 1284.81 550 1301M1308 1214C1309.57 1215.64 1310.81 1217.08 1312 1219C1309.24 1217.91 1307.84 1217.09 1308 1214M1704 1218C1698.99 1236.13 1673.35 1251.99 1660.14 1264.45C1657.06 1267.35 1650.62 1278.38 1645.85 1277.24C1639.42 1275.71 1632.55 1265.52 1628.01 1261.02C1614.46 1247.6 1600.09 1235.74 1586 1223C1625.87 1221.54 1664.36 1216.53 1704 1218M1297 1215C1292.4 1221.57 1288.68 1228.24 1283 1234C1281.49 1225.32 1289.76 1217.93 1297 1215M235 1217C236.071 1226.73 235.049 1228.65 225 1230C227.633 1225.61 230.223 1219.14 235 1217M273 1226C276.937 1212.4 285.033 1225.58 273 1226M612 1217C610.838 1233.71 606.563 1246.66 608.561 1264C609.109 1268.76 612.251 1281.16 609.48 1285.19C607.214 1288.48 599.519 1287.91 596 1288.47C587.331 1289.86 558.828 1299.73 552.384 1290.5C549.318 1286.11 551 1277.1 551 1272C551 1257.34 546.348 1241.43 550 1227C569.378 1238.96 593.256 1222.74 612 1217M1274 1220C1272.84 1227.4 1268.81 1241.14 1263 1246C1263.19 1237.78 1265.89 1223.77 1274 1220M1303 1221C1301.88 1224.95 1299.82 1228.33 1298 1232C1294.5 1226.38 1297.12 1222.91 1303 1221M1318 1221C1320.03 1223.27 1321.6 1225.3 1323 1228C1319.66 1226.51 1315.95 1224.98 1318 1221M199 1226C198.013 1228.85 196.936 1229.37 194 1230C195.447 1227.58 196.325 1226.9 199 1226M1582 1226C1600.22 1232.5 1615.94 1253.47 1629.04 1267C1632.55 1270.62 1642.27 1277.23 1641.32 1283C1638.8 1298.25 1611.92 1317.13 1602.42 1328.99C1600.53 1331.35 1592.89 1342.67 1589.09 1340.46C1586.53 1338.98 1587.41 1319.07 1586.66 1315C1581.3 1286.17 1582.76 1255.2 1582 1226M1313 1227C1322.09 1234.5 1314.39 1238.77 1309 1246C1307.78 1239.82 1313.2 1233.83 1313 1227M1708 1227C1708 1247.04 1705.36 1266.84 1706.04 1287C1706.67 1305.73 1710.59 1326.4 1707 1345C1690.21 1333.72 1677 1313.35 1664.08 1298C1660.72 1294 1650.08 1286.75 1651.09 1281C1652.24 1274.45 1661.76 1267.51 1666.44 1263.34C1680.2 1251.09 1694.31 1239.27 1708 1227M320 1228.87C342.495 1230.79 325.379 1264.62 307.136 1263.5C285.186 1262.15 302.715 1227.4 320 1228.87M281 1229.69C304.775 1232.03 291.714 1264.79 274.003 1262.49C257.792 1260.38 263.511 1227.96 281 1229.69M1306 1229L1305 1230L1306 1229M2066 1291C2015.99 1255.3 2008.38 1370.01 2048.8 1326.92C2052.79 1322.67 2056.65 1318.37 2059 1313C2062.5 1321.51 2053.28 1342.06 2065 1345C2062.38 1316.83 2073.14 1286.29 2076.93 1258C2077.56 1253.36 2084.86 1232.78 2080.53 1230.54C2076.03 1228.21 2075.23 1240.79 2075 1243C2073.31 1258.94 2069.65 1275.4 2066 1291M1307 1231L1306 1232L1307 1231M1627 1237C1629.54 1241.68 1649.78 1259.38 1654.9 1258.68C1658.05 1258.25 1675.56 1235.46 1674.46 1233.48C1672.72 1230.33 1665.74 1232.83 1663 1232.95C1650.13 1233.51 1639.46 1233.53 1627 1237M118.999 1232.76C137.044 1227.35 128.017 1260.79 114 1264.31C104.687 1266.66 97.4379 1256.33 100.049 1248C102.986 1238.63 110.149 1235.41 118.999 1232.76M1275 1232.33C1275.77 1232.33 1275.16 1232.83 1274.67 1232.67L1275 1232.33M1296 1233C1296 1236.36 1296.72 1239.2 1293 1240C1293.46 1237.04 1294.11 1235.31 1296 1233M199.214 1234.97C223.403 1228.45 208.921 1264.94 193.003 1268.86C184.431 1270.97 182.89 1258.62 183.022 1253C183.247 1243.43 190.251 1237.39 199.214 1234.97M238 1262C245.997 1257.16 246.709 1242.55 254 1240C254 1243.5 257.891 1257.12 256.601 1258.87C249.588 1268.36 216.396 1266.19 217.32 1251C218.199 1236.55 244.217 1224.6 246.619 1243.14C247.499 1249.93 241.363 1256.69 238 1262M1275 1234L1275 1239C1272.91 1237.38 1272.84 1236.66 1273 1234L1275 1234M1666 1236C1659.89 1255.14 1645.23 1253.74 1635 1238C1645.99 1238.21 1655.04 1237.98 1666 1236M158 1237.34C178.043 1234.91 166.526 1268.06 154.009 1269.38C138.418 1271.04 139.625 1239.56 158 1237.34M181 1239C178.706 1248.32 177.199 1255.44 179 1265L165 1266C169.247 1255.18 173.108 1248.9 172 1237C175.036 1237.79 177.864 1238.69 181 1239M1303.67 1237.67C1303.72 1237.72 1303.78 1238.78 1303.33 1238.33C1303.28 1238.28 1303.22 1237.22 1303.67 1237.67M261 1238L260 1253C257.278 1248.27 258.082 1243.19 259 1238L261 1238M1274 1242C1273.44 1257.81 1270.45 1274.57 1267 1290C1258.74 1282.16 1267.32 1250.88 1272 1242L1274 1242M1319 1242C1318.27 1248.46 1316.46 1256.13 1312 1261C1312.07 1253.85 1313.91 1248.4 1317 1242L1319 1242M1332 1242C1334.99 1245.38 1335.79 1248.54 1336 1253C1332.09 1250.31 1330.58 1246.61 1332 1242M1289 1243C1288.71 1247.53 1287.96 1251.88 1286 1256C1284.56 1251.59 1285.65 1247.33 1287 1243L1289 1243M1280.67 1245.67C1280.72 1245.72 1280.78 1246.78 1280.33 1246.33C1280.28 1246.28 1280.22 1245.22 1280.67 1245.67M1325 1246C1325.99 1247.48 1326 1247.2 1326 1249C1324.23 1248.02 1324.04 1247.78 1325 1246M1308 1248L1307 1249L1308 1248M1296 1250C1299.43 1260.29 1292.58 1306.32 1285 1314C1281.82 1297.53 1289.47 1265.4 1296 1250M1342 1252C1352.12 1265.23 1348.86 1281.14 1345.5 1296C1344.41 1300.81 1345.32 1308.13 1340 1310C1340.71 1297.74 1346.07 1286.06 1346.06 1274C1346.06 1266.05 1339.46 1259.55 1342 1252M1304 1255C1303.42 1261.22 1302.65 1267.3 1300 1273C1298.35 1267.33 1300.89 1260.67 1302 1255L1304 1255M1331 1256C1333.33 1269.46 1324.88 1269.19 1329 1256L1331 1256M208 1264C212.987 1253.08 218.172 1263.64 208 1264M325.136 1262.67C352.5 1255.79 340.317 1297.25 321 1301.24C297.558 1306.09 306.162 1267.45 325.136 1262.67M1338 1263L1338 1267C1337.09 1265.13 1337.09 1264.87 1338 1263M257 1264.46C281.741 1260.08 266.801 1297.28 251.001 1300.31C231.252 1304.11 238.263 1267.78 257 1264.46M286.615 1264.79C305.39 1256.18 304.333 1285.76 291.956 1291.7C271.077 1301.72 268.96 1272.89 286.615 1264.79M1282.67 1264.67C1282.72 1264.72 1282.78 1265.78 1282.33 1265.33C1282.28 1265.28 1282.22 1264.22 1282.67 1264.67M1601 1264C1602.04 1273.2 1594.76 1302.32 1604.57 1308.11C1600.75 1305.86 1622.36 1287.87 1622.9 1285.76C1624.3 1280.14 1605.55 1266.42 1601 1264M1690 1265C1684.86 1273.37 1672.36 1275.07 1668.11 1282.7C1664.45 1289.26 1692.67 1303.59 1698 1305C1696.2 1293.93 1697.56 1273.62 1690 1265M66 1293L70 1294C65.7411 1280.97 67.6711 1272.44 82 1268.44C87.6282 1266.87 101.961 1263.42 104.498 1271.2C110.66 1290.11 69.1368 1325.89 66 1293M123 1266C120.588 1268.58 118.083 1270.28 115 1272C116.615 1268.1 118.971 1266.93 123 1266M236 1266L237 1267L234 1269L236 1266M204 1267C202.999 1268.92 202.923 1269.1 201 1270C201.899 1267.88 201.876 1267.9 204 1267M198 1296C202.494 1297.61 206.113 1300.16 211 1300C207.382 1297.73 201.76 1295.6 199.822 1291.54C191.863 1274.86 223.594 1258.39 231.504 1270.82C238.946 1282.52 205.661 1320.83 198 1296M1283 1269L1282 1279L1280 1279C1280.03 1275.57 1280.28 1272.36 1281 1269L1283 1269M149 1273C146.946 1278.92 145.238 1285.47 142.099 1290.92C119.678 1329.88 90.7294 1271.91 132 1271C138.09 1270.87 143.135 1271.3 149 1273M168 1270.35C200.537 1265.65 185.175 1300.98 164.009 1303.75C149.421 1305.67 152.468 1272.6 168 1270.35M44 1271.49C64.3987 1269 58.2958 1303.91 40.9814 1305.74C20.2893 1307.93 26.2903 1273.65 44 1271.49M1607 1272C1613.62 1283.52 1617.72 1286.99 1604 1296C1604 1288.14 1603.06 1279.65 1605 1272L1607 1272M1689 1273C1690.86 1280.36 1690 1288.45 1690 1296C1670.47 1287.9 1674.7 1283.52 1689 1273M1925 1333C1918.35 1332.79 1913.59 1338.35 1907.04 1338.65C1898.91 1339.03 1895.53 1325.99 1898.52 1320.02C1903.23 1310.62 1940.23 1292.88 1928.11 1278.37C1921.03 1269.89 1907.73 1279.05 1902.54 1285.08C1894.24 1294.71 1888.82 1311.3 1891.98 1324C1896.46 1342 1911.47 1351.27 1925 1333M1953 1351C1960.25 1347.67 1958.02 1335.77 1959.58 1329C1961.87 1319.01 1968.16 1311.27 1975.08 1304C1977.35 1301.61 1983.94 1293.04 1987.98 1295.35C2001.95 1303.34 1976.49 1343.69 1994 1348C1991.05 1334.26 2006.68 1269.34 1975.01 1297.34C1970.8 1301.06 1967.4 1305.51 1963 1309C1963.07 1305.06 1966.96 1276.64 1961.09 1276.64C1958.25 1276.64 1960.03 1291.72 1959.98 1294C1959.59 1313.56 1953 1331.39 1953 1351M967.647 1278.76C963.396 1280.63 968.906 1294.78 969.438 1298C972.745 1318.06 974.26 1337.78 975.962 1358C976.204 1360.87 975.972 1379.13 978.926 1378.56C984.035 1377.57 982.05 1363.53 981.68 1360C979.538 1339.58 978.01 1319.17 974.019 1299C973.51 1296.43 973.253 1276.3 967.647 1278.76M1896 1314C1896.04 1304.79 1910.69 1265.96 1925.72 1281.28C1933.91 1289.63 1902.21 1311.91 1896 1314M1281 1281C1280.99 1285.64 1281.58 1290.6 1278 1294C1276.05 1288.9 1275.25 1283.51 1281 1281M1314 1281C1315.25 1286.14 1315.23 1292.3 1311 1296C1311.01 1290.63 1310.8 1285.53 1314 1281M150 1284C151.622 1288.45 151.91 1293.29 152 1298C147.185 1294.53 147.68 1289.01 150 1284M1305 1284L1304 1285L1305 1284M1594 1345C1602.77 1328.54 1620.83 1314.4 1633.07 1300.3C1636.1 1296.81 1641.17 1286.1 1646.82 1286.97C1661.53 1289.23 1677.89 1320.88 1687.99 1330.96C1690.21 1333.18 1701.21 1341.79 1698.07 1345.65C1694.96 1349.48 1675.7 1345.32 1671 1345C1646.55 1343.36 1618.22 1340.71 1594 1345M2043 1290.53C2081.53 1281.41 2051.87 1329.38 2033.09 1333.99C2024.71 1336.05 2025.81 1323.61 2025.96 1319C2026.35 1307.5 2029.77 1293.67 2043 1290.53M1252 1291L1252 1309C1250.23 1303.77 1250.23 1296.23 1252 1291M1304 1294C1302.82 1293.23 1302.77 1293.18 1302 1292C1303.64 1292.55 1303.45 1292.36 1304 1294M864 1395C870.825 1392.3 867.519 1381.79 867.115 1376C865.766 1356.67 865.119 1337.26 862.776 1318C862.292 1314.02 860.964 1298.25 856.808 1296.67C852.572 1295.06 857.224 1316.58 857.646 1319C862.079 1344.37 861.778 1369.54 864 1395M1279 1297C1279 1300.19 1281.19 1323.36 1277.98 1323.36C1271.64 1323.36 1275.41 1299.77 1279 1297M538 1364C535.404 1350.51 535.119 1337.28 539.392 1324C541.247 1318.24 547.751 1307.47 543.614 1301.6C540.178 1296.73 529.892 1299.35 525 1299.78C511.619 1300.97 478.418 1296.8 468.685 1307.53C462.123 1314.76 466.24 1334.08 466.864 1343C467.241 1348.4 464.555 1369.32 470.501 1371.74C492.4 1380.66 516.617 1364.49 538 1364M598 1304C597.998 1320 596.83 1335.95 597.008 1352C597.059 1356.66 599.455 1365.49 594.998 1368.88C591.891 1371.25 582.964 1368.85 579 1369.22C566.002 1370.44 552.936 1374.34 540.001 1376.49C536.767 1377.02 527.307 1374.7 525.293 1377.04C520.902 1382.14 526.304 1412.11 525.923 1420C525.812 1422.29 523.927 1430.84 527.42 1431.68C529.497 1432.18 529.933 1410.66 529.745 1408C529.319 1401.99 526.08 1387.56 530.822 1382.82C533.763 1379.88 542.005 1380.3 546 1379.57C558.195 1377.35 589.159 1367.24 596.397 1381.01C599.095 1386.15 598.176 1392.43 597.962 1398C596.795 1428.37 581.377 1428.43 554 1428.98C550.064 1429.06 537.958 1426.46 535.028 1428.53C531.009 1431.37 540.618 1433.87 542.003 1433.95C551.99 1434.49 562.077 1433.74 572 1432.68C582.582 1431.55 590.82 1430.02 601 1433C597.605 1415.35 611.043 1385.4 596 1372C612.004 1374.42 644.532 1378.28 657 1364C641.689 1362.81 626.441 1372.46 611.001 1369.15C598.226 1366.42 595.081 1322.29 603.685 1313.69C609.278 1308.09 625.363 1310.28 633 1308.04C637.951 1306.59 656.974 1299.76 660.52 1305.58C662.698 1309.15 660.053 1316.93 660.008 1321C659.862 1334.1 664.745 1357.91 659.178 1369.77C656.51 1375.45 648.295 1370.9 645.846 1378.15C642.656 1387.58 645.945 1399.31 645.997 1409C646.024 1413.84 642.253 1432.11 644.292 1434.88C647.799 1439.66 654.527 1434.48 659 1434.1C669.044 1433.26 702.798 1438.29 707 1428C693.026 1428 678.965 1427.54 665 1428.04C661.253 1428.18 653.947 1431.12 651.26 1427.46C647.236 1421.98 650.323 1408.57 649.864 1402C649.474 1396.42 646.348 1384.3 650.822 1379.82C653.764 1376.88 661.102 1377.39 665 1377C675.23 1375.96 707.653 1369.79 714.178 1379.15C719.547 1386.85 712.232 1402.69 710.776 1411C710.329 1413.55 707.154 1435.39 712.288 1433.24C715.516 1431.88 714.518 1416.44 715.205 1413C717.055 1403.74 724.304 1374.99 711.97 1370.8C704.117 1368.13 668.205 1376.05 665.499 1368.7C660.872 1356.12 662.541 1333.14 664.361 1320C665.033 1315.14 669.769 1304.16 665.06 1300.26C660.731 1296.67 649.964 1299.96 645 1300.73C628.638 1303.25 614.621 1308.59 598 1304M532 1363C513.931 1361.51 493.334 1374.55 475.284 1366.63C469.201 1363.97 471.268 1348.57 470.68 1343C469.878 1335.39 466.656 1316.84 472.063 1310.68C480.382 1301.21 512.271 1304.45 524 1303.68C527.374 1303.46 537.363 1301.5 539.504 1304.82C542.218 1309.04 537.019 1318.83 535.69 1323C531.506 1336.14 532 1349.4 532 1363M1304 1304C1307.01 1309.23 1306.79 1317.03 1307 1323C1301.99 1318.8 1302.02 1309.84 1304 1304M1646 1304C1641.36 1306.22 1639.03 1309.91 1636.43 1314.24C1634.21 1317.91 1624.41 1329.89 1626.68 1334.14C1628.39 1337.32 1662.75 1335.97 1663.15 1332.62C1664.23 1323.7 1650 1311.4 1646 1304M1646 1309C1649.12 1317.58 1656.58 1323.69 1658 1333C1648.37 1331.92 1640.58 1330.04 1631 1333C1634.19 1324.36 1639.88 1317.16 1644 1309L1646 1309M1254 1311L1254 1314L1252 1311L1254 1311M1338 1311C1337.75 1318.22 1334.24 1318.51 1335 1311L1338 1311M1322 1326C1319.32 1304.79 1331.24 1322.75 1322 1326M1297 1314C1298.61 1317.87 1300.07 1321.91 1301 1326C1296.44 1324.4 1295.97 1318.28 1297 1314M1291 1319C1291 1340.52 1283.16 1337.44 1289 1319L1291 1319M1266 1320C1267.29 1322.02 1268.19 1323.76 1269 1326C1265.89 1324.91 1264.9 1323.17 1266 1320M1316 1321C1315.94 1324.75 1316.01 1327.52 1313 1330C1313.63 1326.69 1314.15 1323.83 1316 1321M1257 1322L1259 1329C1256.73 1326.85 1256.25 1325.03 1257 1322M1326 1330C1324.62 1332.41 1323.42 1333.64 1321 1335C1322.24 1332.2 1323.16 1331.16 1326 1330M1266 1331C1271.76 1336.08 1275.86 1346.46 1277 1354C1270.7 1351.36 1264.38 1337.65 1266 1331M1295 1343L1295 1346L1293 1346L1293 1343L1295 1343M1281 1348.33C1281.89 1348.33 1281.89 1349.67 1281 1349.67C1280.11 1349.67 1280.11 1348.33 1281 1348.33M1290 1354C1287.21 1353.37 1286.63 1352.79 1286 1350C1288.49 1350.97 1289.15 1351.48 1290 1354M457 1425C444.163 1425 432.59 1426.84 420 1428.64C396.808 1431.95 396.374 1417.05 398.563 1398C399.119 1393.16 398.368 1383.55 402.743 1380.26C410.523 1374.41 437.982 1378.53 448 1377.98C451.138 1377.81 458.305 1375.34 460.74 1377.96C466.195 1383.82 460.992 1413.6 461 1422C461.001 1423.3 462.23 1438.39 465.241 1432.43C470.522 1421.97 466 1398.73 466 1387C466 1383.35 467.517 1375.15 464.178 1372.61C458.485 1368.29 439.863 1373.88 433 1374.67C427.287 1375.33 395.907 1371.94 394.579 1376.31C391.758 1385.59 388.923 1423.31 395.259 1431.07C402.506 1439.94 450.666 1432.18 457 1425M912 1385C912.034 1400.91 913.627 1418.9 915.438 1435C915.712 1437.43 914.803 1452.18 919.646 1450.03C924.19 1448.01 921.393 1437.59 920.853 1434C918.97 1421.49 924.398 1391.17 912 1385M1179 1799C1176.76 1783.46 1158.36 1770.73 1157.26 1754C1151.85 1671.41 1206.44 1598.39 1264 1544.86C1275.32 1534.34 1283.99 1515.8 1297 1508C1267.92 1602.69 1266.04 1705.04 1233 1799C1219.69 1779.09 1211.56 1752.21 1202.73 1730C1198.41 1719.14 1190.93 1715.52 1195.86 1703C1209.66 1667.97 1229.59 1634.43 1246.8 1600.96C1250.66 1593.45 1265.45 1573.98 1261.03 1564.85C1260.48 1563.7 1245.32 1595.52 1242.34 1601C1229.32 1624.94 1218.76 1650.03 1205.97 1674C1200.23 1684.77 1189 1699.31 1189.06 1712C1189.1 1719.97 1196.34 1725.15 1199.23 1732C1207.29 1751.13 1213.11 1772.71 1222.55 1791C1223.96 1793.73 1232.16 1815.19 1234.15 1814.24C1235.87 1813.42 1236.51 1803.19 1237.24 1801C1241.79 1787.45 1244.96 1773.66 1249.08 1760C1260.78 1721.2 1265.93 1679.95 1273.14 1640.08C1277.09 1618.21 1284.74 1597.31 1286.88 1575C1288.62 1556.87 1291.77 1536.43 1297.11 1519C1297.84 1516.63 1303.68 1502.08 1298.5 1502C1286.56 1501.81 1266.12 1538.1 1256.92 1545.77C1205.63 1588.55 1162.62 1656.8 1154.43 1723C1151.55 1746.31 1154.61 1758.79 1164.74 1779.02C1168.81 1787.14 1169.02 1796.03 1179 1799M535 1703C546.734 1677.19 548.407 1646.85 551 1619C555.667 1622.49 560.149 1629.09 566 1630.42C593.406 1636.64 588.38 1583.22 583.637 1570C581.344 1563.61 577.028 1553.63 569 1553.55C555.882 1553.41 546.739 1583.27 546.086 1594C544.313 1623.1 546.433 1652.2 537.559 1681C535.389 1688.04 536.007 1698.03 530.476 1703.54C524.387 1709.61 513.521 1706.17 506.003 1710.48C497.278 1715.49 494.638 1723.6 502.405 1731.68C520.676 1750.68 528.698 1712.71 538.14 1708.02C557.115 1698.58 571.413 1717.73 589 1712.03C592.002 1711.05 615.017 1702.6 611.351 1700.55C605.163 1697.09 592.733 1705.98 587 1707.83C581.51 1709.6 574.094 1706.06 569 1704.01C555.151 1698.42 549.046 1701.54 535 1703M957 1555C957.84 1557.67 958.57 1560.23 959 1563C961.073 1559.46 960.319 1557.28 957 1555M577 1564C571.619 1562.61 567.502 1562.55 562 1563C566.584 1555.97 573.124 1556.97 577 1564M935 1621C935.058 1611.68 927.348 1605.48 927.799 1595C928.61 1576.13 944.606 1545.55 961.697 1574.1C966.133 1581.5 965.184 1590.89 966.916 1599C974.36 1633.86 971.51 1681.38 942 1705.74C935.913 1710.76 925.722 1723.2 917.371 1723.76C908.455 1724.36 909.42 1698.55 908.099 1693C901.07 1663.47 895.632 1633.81 887.132 1604.98C885.289 1598.73 894.91 1588.44 892.411 1585.01C890.083 1581.81 882.303 1588.8 879.204 1588.48C874.726 1588.01 875.73 1581.19 871.863 1580.44C869.032 1579.89 864.854 1597.22 864.401 1600C860.033 1626.84 859.152 1655.02 855.543 1682C853.144 1699.94 847.18 1718.77 850 1737C857.219 1730.95 855.05 1708.26 856.309 1699C861.094 1663.83 872.104 1625.52 871 1590C898.271 1610.53 895.379 1663.29 902.904 1693C905.507 1703.28 902.192 1720.92 913.049 1727.08C924.184 1733.4 950.286 1706.16 956 1697.99C977.433 1667.37 985.364 1606.07 965.584 1572.01C961.521 1565.01 944.792 1552.91 936.5 1559.08C920.064 1571.32 919.967 1609.65 935 1621M214 1560C202.206 1588.16 170.655 1606.33 161 1636C150.133 1627.05 143.362 1592.7 127 1592C132.97 1606.32 157.627 1625.04 155.002 1642C153.423 1652.2 143.923 1663.42 139.847 1673.02C132.051 1691.38 126.771 1714.18 124.79 1734C124.053 1741.38 120.64 1756.9 124.503 1763.39C132.676 1777.13 172.526 1766.89 185 1763.46C192.639 1761.36 200.335 1764.13 202.967 1754.99C209.306 1732.98 205.739 1697.15 192.713 1678C187.629 1670.53 182.706 1658.45 175.895 1652.78C172.28 1649.77 162.935 1645.64 163.598 1639.96C165.727 1621.73 193.212 1594.83 204.916 1581.44C208.981 1576.79 221.792 1565.57 214 1560M569 1566.59C590.14 1564.93 587.905 1625.67 568.999 1626.17C544.967 1626.82 544.755 1568.5 569 1566.59M1932 1627C1935.86 1636.65 1947.47 1647.18 1956 1652.94C1958.61 1654.7 1966.28 1657.46 1964.57 1661.79C1963.21 1665.25 1950.88 1677.15 1947.14 1676.84C1936.41 1675.96 1929.17 1659.67 1916 1659.42C1895.59 1659.04 1893.68 1701.9 1902.77 1713.47C1905.91 1717.47 1912.67 1712.53 1915.78 1710.52C1924.92 1704.6 1936.05 1686.59 1946.92 1685.03C1957.52 1683.52 1976.24 1709.85 1988 1712.59C2001.63 1715.77 2011.77 1714.14 2022.02 1704.66C2025.13 1701.78 2029.15 1693.81 2033.17 1692.64C2036.73 1691.61 2050.88 1703.44 2056 1705C2054.04 1696.92 2038.47 1694.79 2038.58 1686.7C2038.67 1680.81 2047.82 1672.49 2050.47 1667C2060.33 1646.6 2079.7 1601.26 2061.74 1582.14C2035.34 1554.02 1982.47 1579.18 1957 1597.87C1948.81 1603.88 1940.69 1616.85 1931 1620C1920.2 1623.52 1899.23 1600.95 1890.22 1612.1C1874.84 1631.14 1871.05 1651.95 1860.76 1673C1859.22 1676.16 1849.68 1691.54 1856.5 1693.34C1864.86 1695.56 1871.94 1682.94 1877 1678.44C1895.62 1661.87 1912.4 1642.39 1932 1627M1587 1817C1589.75 1816.81 1597.6 1817.72 1599.2 1815.16C1603.62 1808.06 1599.18 1792.29 1600.36 1784C1602.54 1768.77 1611.93 1755.68 1616.06 1741.02C1617.48 1735.99 1614.71 1731.2 1616.65 1726.07C1619.2 1719.29 1629.44 1718.3 1635 1714.66C1648.66 1705.73 1660.33 1696.66 1663.96 1680C1666.9 1666.48 1662.47 1644.31 1651.34 1635.01C1646.92 1631.31 1632.36 1627.88 1631.28 1621.74C1629.02 1609.03 1653.87 1597.7 1650.62 1581.02C1649.12 1573.35 1640.45 1572.41 1634 1572.08C1617.7 1571.25 1607.86 1581.4 1602.37 1596.32C1597.35 1609.95 1601.53 1629.86 1602.78 1644C1604.85 1667.26 1603.34 1690.7 1603.51 1714C1603.78 1748.8 1594.12 1783.32 1587 1817M1975 1662C1990.74 1632.43 2021.55 1609.38 2037 1579C2029.83 1581.67 2025.94 1590.34 2021.14 1596C2005.53 1614.4 1995.76 1643.37 1974.01 1656.03C1965.24 1661.14 1933.26 1632.27 1935.74 1623.44C1937.52 1617.07 1949.23 1609.5 1954 1605.09C1974.15 1586.5 2025.85 1562.24 2052 1579.21C2077.69 1595.87 2059.05 1636.72 2050.36 1659C2047.53 1666.24 2041.31 1681.09 2033.45 1684.14C2028.89 1685.91 2022.38 1681.16 2018 1679.98C2001.23 1675.42 1990.37 1668.18 1975 1662M1609 1630C1624.84 1628.5 1640.82 1625.59 1651.76 1642.04C1666.89 1664.8 1660.53 1689 1641 1705C1636.11 1709 1628.31 1716.78 1621.29 1716.02C1619.28 1715.81 1618.21 1680.48 1617.04 1675C1611.72 1650.23 1598.44 1621.83 1607.07 1596C1611.69 1582.17 1618.39 1577.64 1632 1576.52C1636.21 1576.18 1643.76 1574.98 1645.49 1580.27C1649.67 1592.99 1632.04 1615.49 1622.77 1622.25C1617.78 1625.89 1612.68 1624.21 1609 1630M850 1578L848 1586C850.251 1583.47 851.259 1581.3 852 1578L850 1578M949 1580C950.635 1579.46 950.455 1579.64 951 1578C949.825 1578.77 949.773 1578.82 949 1580M946 1584L949 1581C947.078 1581.9 947.001 1582.08 946 1584M844 1590C839.009 1597.27 826.539 1607.12 827.464 1616.85C828.569 1628.48 852.188 1609.22 855 1606L854 1605C848.625 1610.46 837.419 1615.16 830 1617C833.427 1607.9 840.474 1599.01 846 1591C845.35 1589.7 845.853 1590 844 1590M885 1597C877.6 1594.04 887.874 1586.85 885 1597M934 1600L935 1601L934 1600M870 1617C875.009 1614.1 877.872 1609.65 879 1604C874.186 1606.97 872.013 1611.85 870 1617M1858 1690C1863.24 1668.03 1875.55 1631.57 1892.1 1615.51C1895.08 1612.61 1923.75 1620.39 1925.14 1625.34C1926.52 1630.3 1913.13 1639 1910 1641.98C1896.36 1654.96 1876.79 1685.8 1858 1690M917 1622C918.806 1622.05 919.262 1621.8 921 1621C919.076 1620.59 918.692 1620.89 917 1622M911 1631L912 1632C913.917 1629.41 915.553 1626.88 917 1624C914.232 1625.88 912.768 1628.18 911 1631M907 1636L908 1637L907 1636M905 1638L903 1642C904.729 1640.73 905.154 1640.15 905 1638M159.322 1647.56C170.51 1646.69 178.561 1662.42 182.941 1670C194.709 1690.37 210.445 1730.24 197.958 1753.85C195.087 1759.28 189.013 1757.41 184 1758.61C171.189 1761.7 152.486 1765.57 139 1765.9C123.262 1766.29 130.377 1752.96 129.641 1743C128.012 1720.94 136.582 1691.02 145.86 1671C148.061 1666.25 153.342 1648.02 159.322 1647.56M1608 1658C1618.56 1675.3 1615.83 1701.92 1613.14 1721C1612.34 1726.67 1612.83 1738.69 1607 1741C1607.37 1721.67 1609 1702.44 1609 1683C1609 1675.21 1605.56 1665.32 1608 1658M889 1659C884.788 1667.73 877.785 1675.43 875.254 1685C873.777 1690.58 878.503 1696.81 883 1691C869.26 1685.7 890.606 1667.94 889 1659M1914 1664.83C1920.91 1662.72 1943.75 1672.6 1942.68 1681.14C1941.66 1689.27 1916.84 1707.48 1909.15 1709.78C1904.47 1711.17 1902.8 1700.4 1901.94 1697C1899.44 1687.07 1902.71 1668.29 1914 1664.83M1971 1664.83C1978.89 1663.92 1983.7 1674.09 1990 1677.08C2001.03 1682.3 2017.21 1680.15 2027.41 1686.78C2036.06 1692.4 2012.04 1708.69 2007 1709.47C1990.07 1712.11 1962.17 1697.52 1953.97 1682.44C1950.47 1676 1965.49 1665.46 1971 1664.83M512.136 1711.87C535.547 1704.26 530.799 1727.67 513.923 1732.01C500.863 1735.37 499.509 1715.98 512.136 1711.87M1603 1753C1603.64 1754.75 1603.86 1756.13 1604 1758L1602 1758C1602.14 1756.13 1602.36 1754.75 1603 1753M1633 1893L1632 1898C1634.01 1896.28 1634.14 1895.38 1633 1893M1650 1941C1634.65 1959.5 1602.82 1970.75 1591.5 1992.05C1583.54 2007.03 1592.21 2044.5 1597 2060L1599 2060C1602.21 2045.06 1607.08 2018.48 1616.74 2006.31C1627.29 1993.04 1654.37 1982.97 1669 1974L1670 1975C1654.13 2002.72 1617.48 2025.12 1619.86 2057C1620.19 2061.35 1619.57 2080.38 1622.84 2082.56C1626.77 2085.19 1643.43 2080.41 1648 2079.14C1666.09 2074.1 1685.41 2075 1704 2075C1699.62 2064.39 1656.58 2072.53 1647 2075.23C1643.46 2076.23 1630.86 2079.91 1627.88 2076.96C1624.13 2073.26 1625.28 2060.05 1624.78 2055C1621.37 2021.2 1669.81 2004.7 1675 1970C1660.02 1973.26 1621.08 1990.75 1612.31 2003.4C1604.54 2014.6 1607.03 2031.83 1597 2043C1596.95 2029.37 1589.6 2006.65 1596.26 1994.09C1611.23 1965.86 1655.22 1956.89 1669 1928C1659.74 1929.29 1652.44 1935.9 1644 1939.48C1630.63 1945.15 1616.27 1947.44 1603 1953.32C1597.6 1955.72 1586.77 1958.24 1583.5 1963.42C1577.19 1973.43 1578.11 1997.14 1577 2009C1572.08 2003.3 1574.31 1994.11 1573.43 1987C1570.97 1967.11 1565.77 1956.08 1585.04 1942.16C1599.39 1931.78 1613.49 1923.05 1627 1911.26C1631.73 1907.13 1640.22 1904.04 1640 1897C1619.5 1906.95 1568.72 1937.45 1564.85 1963C1562.35 1979.56 1572.73 2003.25 1574.77 2020.08C1575.63 2027.22 1571.35 2033.89 1571.5 2041C1571.65 2048.13 1576.34 2054.66 1576.86 2062C1577 2064 1574.99 2076.36 1578 2076.36C1583.58 2076.36 1579.51 2053.91 1579.1 2051C1576.17 2030.06 1580.4 2008.97 1584.18 1988C1585.31 1981.74 1583.98 1971.77 1587.26 1966.32C1594.92 1953.59 1636.14 1946.44 1650 1941M93 1956C101.527 1965.32 105.386 1978.28 115.146 1987.06C117.428 1989.12 124.194 1992.65 122.718 1996.5C116.634 2012.38 92.296 2022.71 80 2033.02C77.9366 2034.75 65.9072 2042.98 67.7209 2046.27C70.5014 2051.31 83.4155 2035.87 85.3388 2034.13C97.5212 2023.08 125.038 1994.81 139 2003.67C143.446 2006.5 160.295 2018.57 159.574 2024.6C159.15 2028.14 149.646 2033.3 147.156 2036.01C138.171 2045.79 126.228 2063.04 129.586 2076.99C131.591 2085.32 141.678 2087.23 149 2088.54C168.73 2092.09 189.651 2086.25 209 2084C202.142 2069.13 194.636 2057.15 184.719 2044C180.357 2038.22 171.381 2032.12 169.245 2025.12C167.87 2020.61 185.512 2006.45 189.72 2008.57C211.358 2019.46 223.261 2064.31 250 2065.37C262.962 2065.89 274.149 2043.57 278.959 2034C298.747 1994.62 297.854 1953.82 278.183 1915.02C274.286 1907.33 267.604 1904.98 260 1902.27C224.749 1889.71 202.056 1925.65 177.921 1946.17C173.447 1949.97 162.758 1963 157.397 1963.8C153.871 1964.33 148.043 1954.32 145.863 1952.02C138.566 1944.31 128.27 1936.24 117 1937.11C110.564 1937.62 86.3529 1951.08 87.3222 1958.72C87.9803 1963.9 93.3912 1960.28 93 1956M243 1951C228.548 1963.94 208.298 1990.81 190.562 1997.9C178.118 2002.87 163.888 1982.68 161.245 1973C158.654 1963.51 179.014 1950.51 185.019 1944.86C204.009 1926.99 246.79 1879.99 273.24 1915.05C295.969 1945.18 292.915 1995.36 277.868 2028C273.013 2038.53 263.913 2056.18 252.04 2060.11C235.689 2065.52 215.01 2027.12 205.992 2018C203 2014.97 192.487 2007.84 193.283 2002.98C196.722 1981.99 238.319 1972.6 243 1951M901 1911C900.986 1904.65 895.871 1907.45 901 1911M1993 1932C1992.93 1939.92 1998.94 1957.59 1995.6 1963.82C1988.71 1976.67 1941.55 1972.82 1967.56 1998.36C1977.88 2008.49 2008.65 1998.59 2015.6 2010.49C2022.52 2022.35 2008.24 2040.39 2020 2052C2020.78 2045.62 2023.59 2009.13 2019.16 2005.24C2007.6 1995.08 1981.54 2005.95 1970.8 1995.1C1967.52 1991.78 1966.37 1983.46 1965 1979C1973.3 1978.89 1997.73 1975.73 1999.72 1965.95C2000.83 1960.45 1997.01 1926.08 1991.86 1927.87C1976.18 1933.33 1965.85 1955.86 1953.44 1966.24C1949.93 1969.18 1940.35 1973.55 1941.29 1979.05C1943.11 1989.71 1960.66 2005.77 1965.84 2017C1969.5 2024.93 1987.35 2059.36 1966.26 2059.36C1958.72 2059.36 1947.92 2025.38 1944.54 2019C1938.05 2006.76 1920.26 1991.32 1920.83 1977C1921.08 1970.87 1928.75 1965.38 1932.35 1961C1943.9 1946.95 1953.99 1933.32 1967.87 1921.24C1969.94 1919.45 1982.35 1906.31 1976.85 1907.04C1971.37 1907.77 1967.82 1915.27 1963.99 1918.64C1950.06 1930.87 1940.36 1944.96 1928.68 1959C1924.55 1963.97 1915.87 1970.69 1916.6 1978C1918.15 1993.57 1933.67 2007.7 1940.98 2021C1947.18 2032.28 1952.72 2044.46 1958.56 2056C1959.69 2058.22 1961.63 2068.14 1964.96 2067.28C1996.76 2059.06 1972.15 2013.39 1960.45 1997C1956.86 1991.97 1948.09 1986.05 1946.76 1980.01C1945.6 1974.72 1954.71 1970.57 1958 1967.83C1970.09 1957.78 1978.71 1938.64 1993 1932M901 1913C898.547 1933.96 905.164 1955.72 901 1977C896.742 1972.67 893.978 1966.15 887.999 1963.82C872.253 1957.7 859.564 1969.32 852.801 1982C841.337 2003.5 825.862 2037.06 834.526 2062C838.161 2072.46 848.894 2097.8 863.001 2096.45C874.371 2095.36 882.306 2077.04 886.097 2068C890.172 2058.28 894.163 2047.58 894.94 2037C896.061 2021.71 901.712 2007.13 902 1992C907.834 1997.36 905.307 2003.75 908.918 2010C923.932 2036 928.163 2075.79 951 2096C952.656 2085.81 939.579 2075.46 936.555 2066C928.151 2039.71 907.979 2009.51 904.264 1982.92C903.105 1974.62 906.728 1964.53 906.989 1956C907.286 1946.26 911.083 1917.96 901 1913M1229 1914.45C1191.58 1919.08 1154.91 1959.76 1161.78 2000C1163.03 2007.29 1170.89 2011.23 1173.39 2018C1180.21 2036.47 1180.13 2059.34 1191.84 2075.96C1215.47 2109.49 1292.26 2130.76 1329 2109.04C1330.65 2108.06 1345.7 2096.47 1341.24 2094.72C1338.33 2093.58 1324.62 2106.63 1320 2107.92C1302.08 2112.9 1281.12 2112.42 1263 2108.62C1239.91 2103.78 1207.49 2093.39 1194.64 2071.96C1184.31 2054.75 1183.15 2034.83 1178.36 2016C1176.55 2008.89 1168.67 2005.39 1167.24 1998.93C1162.22 1976.23 1179.62 1942.61 1196.56 1928.88C1224.48 1906.25 1274.42 1919.75 1290.11 1950C1296.49 1962.29 1294.73 1975.73 1295.05 1989C1295.81 2020.43 1292.53 2056.45 1263.86 2077.13C1251.1 2086.34 1249.51 2072.41 1246.6 2062C1241.82 2044.86 1231.57 2004.27 1237.96 1987.25C1242.16 1976.07 1256.5 1974.05 1256.56 1959C1256.6 1949.81 1249.58 1929.98 1237.05 1933.91C1225.17 1937.64 1202.67 1960.86 1211.04 1975C1215.89 1983.18 1228.54 1983.66 1232.26 1991.15C1236.73 2000.14 1237.34 2021.73 1237.92 2032C1238.51 2042.55 1240.56 2084.75 1255.01 2084.77C1275.25 2084.8 1287.71 2054.13 1294.73 2039C1317.54 1989.85 1295.39 1906.23 1229 1914.45M1246 1959C1252.45 1950.76 1231.72 1940.74 1238.5 1937.93C1244.66 1935.38 1249.06 1944.7 1250.5 1949C1253.93 1959.24 1249.94 1971.75 1241.64 1978.43C1229.49 1988.21 1229.84 1954.7 1235.09 1949.63C1240.77 1944.13 1245.05 1955.19 1246 1959M116 1942.6C128.189 1939 152.787 1955.6 152.399 1968.79C152.238 1974.23 134.866 1988 129.783 1989.56C122.868 1991.67 114.958 1981.7 111.654 1977C102.967 1964.62 94.8393 1948.87 116 1942.6M1230 1947C1228.92 1953.36 1231.61 1978.42 1228.6 1981.99C1225.01 1986.25 1216.57 1976.6 1215.16 1973.99C1208.56 1961.76 1218.06 1950 1230 1947M505 2062C521.761 2079.96 518.342 2099.08 546 2108C544.013 2077.1 526.299 2042.42 516.785 2013C513.989 2004.35 512.16 1985.98 503 1982C502.611 2010.39 481.219 2039.33 478 2068C467.069 2061.37 469.327 2096.3 470.556 2096.89C472.329 2097.75 479.109 2075.7 480.137 2073C488.352 2051.4 490.374 2008.32 506 1992C510.584 2028.59 530.191 2065.23 540 2101C524.848 2096.05 519.845 2082.7 514.317 2069C512.945 2065.6 508.769 2052.64 504.197 2052.64C499.88 2052.64 500.043 2071 499.981 2074C499.627 2091.19 493.797 2128.97 503.563 2143.58C509.396 2152.3 523.817 2139.15 528.992 2135.24C552.006 2117.87 571.189 2101.46 588 2078C592.723 2088.98 602.942 2121.43 614 2126C610.819 2107.57 593.258 2091.72 590.426 2074C589.395 2067.55 593.659 2061.42 593.952 2055C595.009 2031.82 593.017 2009.72 581.735 1989C575.413 1977.39 565.569 1966.85 554 1960.4C550.851 1958.65 541.845 1953.13 539.461 1958.5C528.503 1983.18 558.44 2024.92 570.403 2045C574.799 2052.38 586.941 2066.07 584.483 2075C578.278 2097.55 547.874 2116.39 530 2128.96C526.053 2131.74 511.649 2143.53 506.862 2139.25C501.943 2134.86 503.728 2122.82 504.136 2117C505.433 2098.51 502.777 2080.63 505 2062M588 2065C571.391 2048.24 552.503 2011.86 546.759 1989C545.86 1985.42 541.381 1963.66 544.705 1962.04C551.408 1958.78 567.792 1975.45 571.138 1980.02C586.107 2000.47 597.265 2040.07 588 2065M882.999 1966.47C893.981 1966.69 899.273 1981 898.959 1990C898.103 2014.48 893.136 2047.05 882.248 2069C879.168 2075.21 871.527 2093.1 862.845 2092.9C851.186 2092.63 840.51 2069.45 838.139 2060C831.262 2032.59 848.451 1965.78 882.999 1966.47M154 1973C159.948 1976.45 161.372 1982.57 165.185 1987.92C168.997 1993.27 180.255 1996.81 182.375 2002.32C184.191 2007.05 169.495 2019.37 165.084 2019.72C162.236 2019.94 132.997 1995.44 133.323 1993.12C134.315 1986.05 149.992 1979.54 154 1973M163.782 2028.6C173.574 2028.96 191.766 2059.23 196.364 2067.02C198.364 2070.4 203.178 2077.34 200.566 2081.31C195.915 2088.38 163.049 2085.34 155 2084.92C126.075 2083.43 132.226 2061.6 145.905 2043.93C149.405 2039.41 157.312 2028.36 163.782 2028.6M262 2115C263.481 2117.38 264.605 2118.56 267 2120C265.824 2117.25 264.684 2116.31 262 2115z"/>
</svg>
