<?xml version="1.0" standalone="yes"?>
<svg xmlns="http://www.w3.org/2000/svg" width="2200" height="2200">
<path style="fill:#101010; stroke:none;" d="M69 226C71.9399 241.935 87.5126 233.621 93.8619 224.864C107.488 206.069 119.651 185.78 131.794 165.999C134.541 161.524 141.857 148.003 148.569 151.423C161.791 158.16 172.557 176.161 186 185.116C189.218 187.259 197.882 190.583 197.782 195.184C197.34 215.404 177.043 229.465 188.082 251.922C193.639 263.224 205.471 259.799 210.006 249.559C215.645 236.825 211 216.932 211 203C232.305 211.615 243.89 233.092 256.478 250.957C258.796 254.245 270.119 265.579 274.894 262.58C276.459 261.596 261.121 250.035 259.61 247.915C252.234 237.564 244.057 220.765 234.862 212.559C228.254 206.661 213.176 202.382 209.606 193.823C205.283 183.458 226.344 153.923 231.039 144C248.089 107.959 247.969 30.3914 200 17.8408C152.919 5.52246 133.743 80.5115 134.453 114C134.666 124.031 144.563 135.348 142.355 144.96C140.027 155.088 124.816 168.893 118.768 178C108.027 194.174 91.2638 238.225 69 226M213 28C205.346 42.8931 196.541 57.3713 188.359 72C179.039 88.6641 169.964 106.545 158.752 122C156.579 124.995 151.232 136.357 147.083 136.357C136.102 136.357 138.667 95.6096 139.136 89C140.714 66.8091 162.38 22.3093 187.217 18.5786C194.663 17.4602 205.96 25.4817 213 28M210 175C201.682 142.088 210.337 98.7949 212.078 65C212.287 60.9412 213.455 31.6433 216.386 31.6433C224.487 31.6433 231.334 58.8635 233.201 65C243.008 97.2375 235.88 151.09 210 175M203 190C184.95 183.235 170.264 171.11 159.247 156.003C156.565 152.325 149.024 147.936 149.238 142.96C149.524 136.275 158.251 128.08 161.993 122.865C171.157 110.093 176.673 94.9868 186.041 82.4358C192.643 73.5911 199.055 62.165 203.315 52C204.361 49.5039 206.069 40.6433 209.738 40.6433C212.834 40.6433 207.048 72.3623 207.008 76C206.782 96.1218 203.465 117.078 204.177 137C204.822 155.052 209.547 172.712 203 190M219 66C223.559 55.2483 218.575 48.6562 219 66M1776 282C1759.47 285.674 1744.09 308.207 1729.68 317.396C1687.93 344.019 1642.65 340.146 1600 318.901C1573.16 305.531 1556.85 274.278 1548.52 247C1535.28 203.68 1527.27 165.392 1556.87 125C1572.2 104.078 1597.87 82.8157 1623 75.4053C1630.53 73.1858 1637.03 75.9167 1644 74.1838C1660.49 70.084 1679.91 63.0691 1697 63.3921C1714.78 63.728 1751.91 75.4277 1761.88 91.1445C1766.7 98.7407 1766.02 110.408 1768.02 119C1778.21 162.731 1762.77 237.27 1713 253.108C1689.57 260.565 1645.22 262.231 1625.38 244.321C1599.5 220.968 1601.9 178.885 1640 170.726C1649.9 168.605 1656.03 174.057 1665 176C1663.21 168.894 1655.4 167.352 1650.14 163.247C1640.13 155.446 1622.83 140.798 1618.27 128.783C1604.59 92.7488 1678.11 84.3032 1700 87.3613C1708.69 88.5754 1717.65 95.1843 1726 95C1709.99 73.1853 1657.72 84.2842 1637 92.6826C1630.08 95.4883 1616.31 100.753 1613.37 108.179C1603.23 133.705 1632.8 148.292 1645 165C1586.16 175.156 1597.4 241.035 1644 258.494C1730.44 290.88 1792.37 191.64 1772.15 116C1769.72 106.88 1769.93 95.9004 1764.65 87.8591C1744.08 56.5088 1691.55 57.9709 1661 65.6152C1641.3 70.5439 1622.88 69.9268 1604 78.7837C1561.05 98.9321 1526.12 152.874 1530.14 201C1535.83 268.89 1585 336.265 1656 342.844C1669.66 344.11 1680.09 338.046 1693 335.475C1719.11 330.275 1765.2 308.981 1776 282M1977 296C1972 298.761 1969.25 296.006 1965 293C1964.68 302.251 1974.52 310.208 1983 306.58C1997.41 300.417 2012.76 284.71 2023.96 273.864C2028.01 269.942 2032.6 259.304 2039.01 259.51C2056.73 260.081 2077.23 287.142 2093 294.722C2096.7 296.499 2107.38 303.234 2111.35 301.446C2116.42 299.16 2098.64 292.019 2097 291.322C2076.61 282.634 2060.72 259.379 2039 255C2047.05 244.749 2054.99 235.794 2058.84 223C2060.37 217.92 2059.46 203.541 2062.86 200.222C2066.31 196.847 2077.26 198.286 2082 196.805C2103.68 190.031 2137.43 181.322 2142.6 156C2151.59 111.953 2100.81 61.6013 2057 70.8574C2010.88 80.6035 1988.53 116.658 1976.72 159C1968.57 188.221 1989.91 209.268 2007.93 231C2011.05 234.769 2030.11 253.615 2029.26 257.257C2026 271.181 2002.4 286.037 1992 294.852C1987.19 298.933 1977.83 306.726 1977 296M2047 201C2042.42 217.304 2034.08 235.097 2033 252C2022.39 248.097 2014.15 233.647 2007.2 225C1998.69 214.411 1980.54 195.498 1978.36 182C1970.94 136.156 2020.94 65.8452 2071 73.3037C2104.41 78.2808 2135.2 104.085 2137.08 139C2137.76 151.709 2138.9 169.095 2124.92 176.205C2111.69 182.937 2090.52 191.221 2076 193.274C2072.44 193.777 2062 196.017 2059.36 193.131C2050.46 183.365 2068.26 142.704 2040 145.502C2033.42 146.154 2025.77 153.495 2020 156.728C2014.46 159.835 2008.2 157.771 2003.24 161.771C1988.87 173.365 1996.79 192.217 2011 199.479C2022.09 205.148 2035.19 201.46 2047 201M221 77C219.534 79.3757 218.654 81.2927 218 84C220.025 81.7219 221.134 80.0798 221 77M1724 82C1727.13 83.8015 1733.11 84.1755 1734 80L1724 82M195 89C197.364 88.5176 197.518 88.364 198 86C196.078 86.9016 196.001 87.0762 195 89M1614 101C1620.98 97.9548 1626.23 91.6604 1633 88C1625 85.7361 1616.5 94.0002 1614 101M888 255C886.597 244.708 868.283 227.324 859.957 221.282C857.013 219.146 845.533 215.118 846.079 210.765C846.953 203.797 857.989 197.067 862.14 191.864C872.97 178.288 886.945 163.745 895.82 149C899.713 142.532 909.354 128.705 917.766 127.996C922.902 127.563 927.67 141.393 929.732 145C938.596 160.506 958.053 181.851 957.785 201C957.601 214.145 934.377 231.4 925.96 240.007C916.059 250.132 896.22 281.676 882.775 284.641C872.371 286.936 864.25 274.93 857.992 269.06C841.55 253.637 800.569 239.92 795.4 216C793.561 207.492 812.204 195.411 816.743 189C828.843 171.909 839.663 153.305 854.076 138C865.018 126.381 884.35 110.461 887 94C876.434 97.7612 871.173 111.663 864.424 120C846.256 142.441 829.186 164.453 812.28 187.922C807.141 195.056 790.135 205.801 789.974 215.217C789.846 222.693 800.099 232.2 805.32 236.477C822.955 250.922 843.99 260.334 859.922 276.997C865.604 282.94 875.545 291.699 884.861 289.418C896.556 286.555 910.953 262.064 918.517 253C930.176 239.028 957.446 222.274 961.913 204C964.961 191.534 948.522 164.699 941.544 155C938.086 150.196 925.368 122.196 920.596 121.96C914.388 121.653 905.302 131.613 901.237 135.581C884.675 151.744 872.521 173.312 857.519 191C853.518 195.717 837.754 206.077 838.423 212.628C839.012 218.388 850.858 221.624 854.981 223.905C868.075 231.15 874.447 247.784 888 255M577 179C577.384 189.263 583.028 203.029 587.963 212C591.636 218.678 598.877 249.152 605.228 251.239C609.969 252.797 616.504 235.309 618.093 232C628.737 209.844 639.199 186.469 646.652 163C647.846 159.241 658.273 128.907 655.847 129.323C650.082 130.313 644.263 154.706 642.536 160C634.091 185.891 624.139 226.026 605 246C603.925 222.797 581.656 202 580.62 179.001C580.299 171.872 592.243 165.439 596.999 161.4C613.859 147.082 631.551 126.696 654 122C648.462 114.541 637.775 123.879 632 127.241C615.345 136.94 598.456 164.796 580.145 169.359C575.699 170.467 574.594 161.824 573.664 159C569.034 144.931 557.131 137.752 552.619 124C551.864 121.699 550.4 108.076 547.63 109.106C544.003 110.455 537.575 128.973 535.204 133C520.761 157.526 510.815 184.504 496.39 209C493.946 213.15 480.15 234.529 486.018 238.595C490.707 241.845 505.309 227.162 508.997 224.524C530.618 209.065 554.25 192.741 577 179M1216 272C1216.03 251.306 1227.45 230.915 1225.55 210C1224.46 197.941 1215.77 179.857 1227.28 169.715C1244.53 154.528 1257.77 164.697 1277 162.775C1290.46 161.43 1303.47 158.81 1317 157.864C1320.93 157.589 1329.05 155.136 1331.6 159.501C1334.78 164.952 1327.92 177.948 1327.24 184C1325.05 203.412 1320.49 224.044 1319.1 243C1318.54 250.576 1320.64 265.436 1314.22 271.138C1306.87 277.663 1286.81 267.608 1277.84 276.247C1271.11 282.734 1277.46 298.592 1285.01 301.169C1297.69 305.5 1315.35 301.833 1329 302.866C1332.12 303.102 1340.4 305.394 1342.76 303.023C1347.54 298.221 1344.66 284.216 1345.32 278C1347.21 260.291 1350.97 242.647 1352.65 225C1353.22 219.069 1350.01 209.393 1355.68 204.958C1361.66 200.278 1381.65 202.667 1389 203.435C1392.59 203.81 1400.02 201.473 1392.85 199.583C1387.01 198.045 1355.36 195.399 1351.24 199.267C1345.66 204.502 1348.27 220.159 1347.92 227C1347.11 243.015 1342.76 258.981 1341.37 275C1340.83 281.198 1342.95 289.971 1340.18 295.716C1337.89 300.474 1331.08 298.348 1327 298.059C1316.21 297.295 1290.81 302.149 1282.85 294.155C1278.92 290.217 1278.45 280.531 1284.15 277.939C1291.35 274.663 1314.75 280.785 1318.26 276.16C1324.66 267.743 1323.22 252.825 1324.04 243C1325.69 223.063 1330.16 202.213 1332.32 182C1333.37 172.167 1342.67 156.99 1329.99 152.096C1314.28 146.036 1289.56 158.884 1273 158.919C1263.61 158.938 1254.29 152.787 1245 155.975C1238.11 158.34 1225.54 162.696 1221.68 169.185C1213.32 183.237 1219.48 196.539 1220.57 211C1221.38 221.914 1218.29 234.253 1216.56 245C1215.34 252.579 1209.62 279.404 1198.22 261.735C1190.38 249.588 1199.43 219.728 1200.66 206C1202.17 189.013 1202.58 172.025 1203.86 155C1204.26 149.752 1202.15 141.19 1204.7 136.494C1209.09 128.423 1236.64 125.837 1245 124.642C1265.13 121.762 1281.72 122.019 1302 121.487C1307.22 121.35 1311.79 117.254 1317 117.632C1330.33 118.598 1344.88 125.073 1359 122C1350.59 113.681 1335.68 117.875 1325 117C1328.9 115.103 1332.7 114.409 1337 114C1333.61 105.469 1294.43 118.167 1285 117.425C1261.87 115.606 1242.22 119.847 1220 126.746C1215.7 128.081 1202.08 127.813 1199.72 131.717C1196.32 137.33 1199.52 152.938 1198.4 160C1194.65 183.652 1195.45 208.868 1193.56 233C1192.8 242.696 1188.07 257.107 1192.75 266.425C1195.77 272.442 1210.37 270.729 1216 272M548 121C550.853 140.837 574.502 151.554 573.413 173.823C573.092 180.383 559.899 187.653 555 190.947C535.313 204.184 510.71 225.83 489 234C498.754 206.174 515.688 179.298 529.137 153C534.046 143.402 538.649 127.051 548 121M2055 164C2047.41 160.239 2041.07 155.96 2033 153C2043.42 143.329 2052.02 153.779 2055 164M2055 195C2047.8 195 2038.85 198.169 2032 196.583C2028.15 195.692 2025.57 192.888 2022 191.5C1987.26 177.99 2032.42 141.632 2053.5 168.389C2058.51 174.749 2051.44 187.697 2055 195M2025 199C2015.13 198.446 2000.78 191.8 1998.7 181C1997.91 176.893 2001.95 160.83 2008.45 163.106C2011.58 164.2 2002.82 176.538 2003.61 179.997C2006.13 191.012 2018.57 191.436 2025 199M496 182L496 185L498 182L496 182M1357 182L1356 192C1360.73 190.336 1360.95 184.792 1357 182M492 194C491.014 195.479 491 195.203 491 197C492.082 195.616 492.191 195.662 492 194M201.783 198.106C205.612 196.923 207.137 202.357 206.955 205.003C206.206 215.884 214.375 249.915 200.978 253.966C193.943 256.093 191.002 247.222 189.801 242C188.014 234.225 192.566 200.954 201.783 198.106M2037 249C2038.35 242.358 2047.91 200.202 2054.77 201.649C2059.82 202.715 2058.04 212.586 2057.22 216C2054.46 227.545 2047.41 242.583 2037 249M480 257C481.001 258.924 481.077 259.099 483 260L480 257M563 384C543.136 377.27 515.319 401.921 505.356 417.001C479.072 456.786 435.344 495.163 449.508 548C451.157 554.152 456.761 558.01 458.813 564C474.93 611.054 492.787 636.355 545 642.282C559.923 643.976 575.274 638.899 590 640.713C612.464 643.481 639.113 631.483 660 624.184C664.404 622.645 680.964 620.514 680.998 614.065C681.015 610.822 654.216 622.18 650 623.641C618.899 634.42 577.034 642.83 544 637.359C530.939 635.196 504.816 631.098 494.008 623.336C474.436 609.279 469.637 583.281 463.397 562.003C457.118 540.591 448.309 528.151 454.298 503.68C460.216 479.501 480.428 459.498 494.544 440C512.712 414.906 530.815 390.902 563 384M565 383C595.492 398.763 646.045 411.055 662.565 445C678.965 478.698 689.614 522.07 660.901 552.997C649.062 565.749 634.11 572.557 619.04 580.452C605.092 587.76 587.826 599.571 571 596.659C545.288 592.21 504.611 565.361 498.519 539C491.859 510.186 533.888 458.926 563 459.27C629.201 460.052 635.513 535.95 582 563.75C570.393 569.781 557.706 570.315 548.365 559.816C541.165 551.723 538.999 530.533 549.03 524.001C572.748 508.557 590.476 545.34 559 548C565.061 554.365 582.03 545.914 583.1 537.92C586.308 513.948 550.593 510.208 539.854 527.097C529.815 542.886 546.029 572.24 563.997 573.29C591.486 574.896 619.02 542.047 624.141 518C631.815 481.967 591.837 447.994 557 455.799C526.237 462.69 502.684 498.136 494.994 527C486.286 559.688 543.193 597.826 571 601.762C578.172 602.777 588.098 600.001 595 597.977C627.151 588.548 669.75 561.167 680.288 528C699.617 467.166 649.924 411.271 596 392.59C583.735 388.341 578.753 383 565 383M123 554C125.311 558.793 102.855 594.55 96.9722 601C95.0435 603.115 84.0113 613.585 91.3056 616.639C93.8124 617.688 95.6678 609.662 97.0833 608C105.742 597.835 108.36 584.022 117.083 574C140.204 547.436 157.202 515.597 177.833 487C180.57 483.207 192.052 458.702 196.083 458.833C204.371 459.103 204.691 472.967 205.611 478C208.568 494.169 216.407 499.31 222.528 514C225.251 520.535 224.862 528.626 227.694 535C233.971 549.122 252.857 562.185 256.694 576C260.211 588.659 275.151 628.593 267.306 639.889C264.016 644.625 233.429 646.94 227 647C209.641 647.161 193.385 642.151 176 641.306C161.808 640.616 145.931 643.878 132 640.75C124.811 639.136 118.277 632.842 111 630.5C98.4677 626.468 58.9772 641.342 51.5833 630.139C49.5245 627.019 55.5378 619.298 57.3889 617C66.6465 605.508 76.2868 591.701 86.2222 581.083C123.03 541.747 144.506 489.59 181.222 449.917C186.871 443.813 207.56 412.917 215.917 414.222C223.468 415.402 222.017 430.247 223.722 435C226.882 443.808 236.874 449.293 240.361 458C243.494 465.822 242.072 475.97 245.194 484C248.19 491.704 254.554 499.174 256.583 507C260.086 520.511 258.14 535.254 262.722 549C265.729 558.02 273.406 564.382 276.917 573C289.013 602.691 299.827 633.274 312.528 662C315.864 669.546 321.859 682.84 322.917 691C323.783 697.681 320.456 710.265 325.639 715.667C328.836 719 342.754 711.517 347 711C341.64 704.516 332.65 714.635 328.956 709.52C325.475 704.699 327.591 695.676 326.541 690.003C324.676 679.93 319.056 668.474 315.109 659C300.001 622.734 279.457 584.24 267.059 547C260.195 526.382 261.169 507.988 251.895 488C246.917 477.27 247.639 465.901 243.749 455.225C240.743 446.974 232.25 440.257 228.406 432.04C225.501 425.83 225.125 414.34 217.949 411.399C207.465 407.102 184.749 440.028 178.692 446.998C142.277 488.904 114.608 538.119 80.4968 582C71.2258 593.926 57.8836 605.807 50.8815 619C49.2519 622.07 42.803 629.217 45.8908 632.609C58.4702 646.427 93.3216 629.685 109.96 635.004C116.765 637.179 121.953 643.116 129 644.596C144.888 647.933 161.215 644.761 177 646.718C196.575 649.145 215.04 654.879 235 651.353C240.727 650.342 268.625 648.178 270.372 644.706C277.34 630.857 270.069 611.431 265.604 598C253.911 562.829 233.826 526.727 213.92 494.864C208.628 486.393 212.048 454.411 196.137 454.168C188.757 454.055 184.236 469.895 180.712 474.783C166.336 494.723 153.166 515.677 139.325 536C135.344 541.845 131.098 554.923 123 554M1235 576C1246.65 570.464 1228.72 551.067 1225.47 545C1213.47 522.543 1211.12 495.902 1200.52 472.864C1197.2 465.638 1183.53 456.775 1191.17 448.682C1228.45 409.197 1256.46 487.169 1272.77 513C1277.55 520.577 1299.14 534.15 1299.26 542.22C1299.38 551.239 1283.05 564.609 1276.98 570.216C1259.1 586.745 1228.35 609.771 1217 631C1257.11 651.885 1311.65 653.671 1356 660.272C1368.65 662.156 1381.3 662.592 1394 663.904C1395.04 664.012 1408.12 665.389 1404.89 662.026C1398.77 655.633 1377.42 658.635 1369 657.398C1334.47 652.322 1299.03 648.542 1265 640.908C1258.96 639.554 1224.99 635.242 1224.6 627.886C1224.4 624.049 1237.27 615.19 1240.1 612.379C1255.98 596.594 1273.58 581.803 1288.48 565.136C1292.01 561.191 1300.44 545.632 1306.18 546.418C1311.62 547.164 1317.4 554.143 1320.76 558.02C1331.03 569.897 1347.33 579.264 1354.8 593C1358.12 599.117 1366.31 615.408 1375.66 612.614C1384.53 609.963 1396.27 591.302 1401.47 584C1406.97 576.295 1410.87 568.424 1415.08 560C1419.71 550.73 1434.23 540.577 1433.48 529.217C1432.8 518.855 1417.93 508.029 1411 501.864C1403.91 495.558 1379.76 466.012 1369.4 469.027C1364.28 470.516 1358.72 479.292 1355 482.999C1342.11 495.865 1331.96 509.649 1319.84 523C1315 528.335 1307.66 540.746 1299.99 535.279C1270.03 513.91 1262.63 478.069 1239.65 451.783C1233.77 445.047 1222.98 430.764 1213.92 428.4C1205.71 426.256 1182.74 446.645 1184.65 454.993C1186.38 462.546 1193.3 467.08 1196.15 474.001C1205.44 496.514 1211.09 520.29 1219.95 543C1224.72 555.204 1232.71 562.404 1235 576M926 560C935.545 557.676 939.766 533.745 929.834 529.458C926.292 527.929 903.398 523.89 901.016 525.5C892.018 531.585 895.53 573.022 906.204 576.974C923.349 583.323 941.788 573.343 958 568.443C961.592 567.357 968.941 571.557 971.093 568.394C976.515 560.428 971.319 540.625 972.32 531C973.222 522.328 976.416 494.715 969.635 488.546C956.849 476.914 928.972 485.501 915 488.616C901.93 491.529 877.189 486.852 868.103 498.315C855.08 514.746 873.748 551.023 877.495 568C879.115 575.34 877.211 582.539 879.078 590C880.757 596.711 879.958 611.464 885.501 616.178C890.772 620.66 914.816 617.262 922 616.739C952.104 614.547 981.185 620.568 1011 622.078C1019.41 622.504 1037.93 625.092 1042.88 615.753C1045.81 610.21 1032.02 576.236 1029.85 568C1019.51 528.738 1029.07 476.746 1003.83 441.148C996.555 430.887 974.769 434.467 964 433.922C919.887 431.689 882.201 446.59 840 459.06C830.56 461.85 795.649 471.127 793.75 481.067C785.613 523.654 805.012 568.846 805.981 611C806.211 621.045 807.299 654.685 815.206 660.653C826.739 669.359 850.284 664.459 863.981 666.195C873.388 667.387 882.465 673.451 892 675.408C915.511 680.232 940.144 681.046 964 683.105C973.313 683.908 980.166 692.148 989 694.439C1008.26 699.434 1030.73 696.542 1049 703.976C1052.94 705.579 1077.92 711.842 1080.24 707.454C1081.84 704.433 1054.47 702.046 1052 700.94C1033.61 692.695 1010.87 694.701 991 690.502C982.157 688.633 975.392 679.588 966.783 678.703C944.122 676.373 921.493 677.111 899 672.715C887.191 670.407 876.426 663.581 865.217 661.245C852.763 658.649 830.135 664.772 819.206 657.06C811.711 651.772 811.624 623.079 810.68 614C807.365 582.136 799.259 550.066 797.915 518C797.472 507.422 794.242 493.258 797.685 483.051C800.192 475.617 813.48 474.486 820.008 471.648C842.624 461.814 865.1 455.294 889 449.565C905.433 445.626 921.106 437.472 938 435.269C946.497 434.16 954.658 437.759 963 437.767C974.749 437.78 988.196 435.507 998.617 442.936C1005.58 447.902 1009.57 466.906 1011.44 475C1018.22 504.257 1022.74 531.564 1025.14 561C1026.06 572.271 1027.35 586.452 1031.52 597C1033.25 601.359 1040.16 609.388 1038.14 614.286C1036 619.494 1022.57 619.84 1018 619.42C999.578 617.726 979.953 613 962 613C944.342 613 926.604 611.25 909 611.287C903.052 611.299 893.948 614.805 888.362 611.605C883.92 609.06 883.871 592.077 882.759 587C881.104 579.441 883.177 571.477 881.124 564C876.146 545.877 865.661 524.52 869.384 505.048C870.967 496.767 880.405 496.264 887 495.922C906.864 494.892 925.189 489 945 489C950.113 489 964.611 487.13 966.858 493.365C972.209 508.21 967.861 531.496 967.078 547C966.887 550.784 969.176 560.16 966.78 563.1C964.699 565.654 958.055 564.058 955 565.106C943.579 569.025 923.034 579.736 911.029 574.716C900.463 570.297 896.422 540.599 904.803 532.859C908.993 528.99 928.493 530.155 930.48 536.281C932.808 543.459 928.318 553.359 926 560M1371.08 473.505C1379.68 472.824 1391.36 489.667 1397 494.903C1406.19 503.44 1426.77 515.389 1428.92 529.003C1430.15 536.822 1421.24 545.477 1417 551C1406.65 564.5 1400.99 580.361 1389.12 593.078C1385.54 596.908 1379.8 608.297 1373.96 608.364C1363.3 608.487 1356.56 587.342 1349.98 581.22C1339.71 571.658 1329.96 561.884 1319.92 552.144C1317.23 549.533 1309.88 545.863 1309.32 541.856C1308.68 537.171 1319.9 527.423 1322.98 524.217C1334.47 512.26 1343.92 498.976 1355.56 486.962C1359.02 483.391 1365.88 473.916 1371.08 473.505M1524 480C1537.42 484.539 1561.66 479.729 1576 478.925C1580.91 478.65 1590.93 475.254 1595.24 478.142C1600.82 481.882 1593.61 504.931 1593.82 511C1594.15 520.9 1590.99 531.242 1592.2 541C1593.29 549.773 1598.33 558.763 1595.08 567.981C1588.07 587.803 1564.04 602.864 1555 623C1606.74 634.99 1659.69 622.064 1712 629C1710.18 621.258 1683.02 625 1676 625C1648.15 625 1617.47 628.752 1590 625.432C1584.12 624.722 1566.48 625.665 1563.33 619.489C1559.73 612.443 1574.66 600.626 1578.23 596C1582.99 589.812 1586.8 581.576 1594 578C1594 581.785 1591.91 594.154 1595.08 596.585C1597.91 598.763 1609.42 596.166 1613 595.713C1626.85 593.96 1642.06 592.519 1656 591.499C1661.74 591.079 1679.94 596.022 1683.82 592.098C1688.47 587.399 1685.02 576.775 1685.48 571C1687.23 548.788 1682.6 526.064 1685.34 504C1685.84 499.995 1689.37 479.75 1682.72 479.709C1673.99 479.656 1663.84 491.989 1658.01 497.497C1636.77 517.55 1621.29 542.514 1599 562C1600.15 542.855 1597.76 523.675 1599.14 504C1599.64 496.766 1602.84 483.23 1599.18 476.604C1596.38 471.533 1584.54 474.339 1580 474.82C1562.36 476.688 1540.26 472.032 1524 480M1950 543C1944.24 499.481 2009.19 478.415 2043 487.922C2052.73 490.659 2065.61 490.656 2071.68 500.027C2103.49 549.092 2066.37 616.99 2019 637.343C2001.11 645.031 1985.05 655.403 1966 644.315C1949.68 634.815 1948.04 624.376 1964 612.879C1977.11 603.436 1997.14 603.055 2012 596.13C2030.12 587.682 2036.02 582.888 2036 563C2036 558.683 2037.98 548.876 2032.72 547.148C2018.63 542.522 2007.03 554.376 1995 559.38C1978.91 566.072 1960.31 566.869 1944 572.845C1939.15 574.621 1921.93 581.121 1920.72 586.276C1918.3 596.602 1924.68 616.998 1927.82 627C1931.81 639.693 1931.06 664.573 1940.74 674.257C1947.73 681.249 1966.75 682.021 1976 681.999C2007.09 681.926 2037.32 681.086 2068 676.158C2079.62 674.292 2093.83 668.59 2105.04 668.203C2111.91 667.966 2117.05 673.483 2124 672.195C2126.2 671.787 2142.11 670.577 2142.25 670.257C2144.79 664.266 2127.13 666.713 2125.08 667.158C2118.26 668.636 2113.62 664.082 2107 664.279C2094.49 664.651 2081.53 670.009 2069 671.823C2058.35 673.364 2047.84 677.696 2037 677.88C2023.16 678.116 2008.86 673.692 1995 675.449C1980.87 677.24 1957.62 682.416 1945.37 671.398C1936.18 663.138 1935.41 636.757 1931.88 625C1928.98 615.353 1924.29 601.281 1925.8 591.029C1926.69 584.936 1937.88 579.393 1943 577.32C1961.46 569.842 1984.29 570.725 2002 561.115C2008.35 557.667 2021.17 547.128 2028.59 552.325C2038.29 559.114 2029.96 582.129 2021.98 586.508C2003.3 596.757 1977.62 597.489 1961 609.979C1948.4 619.453 1941.7 630.499 1955.36 642.259C1977.78 661.559 1997.37 650.946 2021 641.549C2029.14 638.314 2038.36 635.905 2045.18 630.095C2075.39 604.387 2111.57 525.838 2071.58 492.843C2063.65 486.301 2046.95 483.62 2037 481.593C2011.65 476.431 1977.63 489.821 1959.33 506.562C1952.69 512.639 1935.65 537.146 1950 543M1679.53 485.405C1684.7 486.343 1680.39 505.354 1680.14 509C1678.57 531.361 1688.86 565.683 1680.5 586.491C1678.88 590.524 1665.75 588 1662 588C1645.07 588.001 1619.28 597.578 1603.24 592.882C1594.31 590.266 1598.7 570.101 1602.17 565C1616.81 543.451 1640.41 521.46 1658.41 502.225C1662.1 498.272 1673.48 484.306 1679.53 485.405M585 522L587 532C588.316 528.025 587.72 525.151 585 522M549 544C549.627 546.936 550.147 548.013 553 549C552.643 545.806 552.182 544.737 549 544M554 554C556.122 553.601 557.222 553.204 559 552C556.534 552.127 555.898 552.407 554 554M402 634C401.183 625.684 393.375 627.893 402 634M500 717C518.271 716.08 531.121 700.86 552 703.166C561.996 704.27 566.246 715.395 576 717C557.341 690.81 521.174 693.458 500 717M717 967C705.526 973.54 697.356 985.444 686.864 993.485C669.077 1007.12 648.082 1017.28 630 1030.81C613.811 1042.93 602.533 1056.95 581 1059.31C566.023 1060.96 542.989 1025.61 536.85 1013.92C534.635 1009.7 525.895 999.119 531.081 995.232C535.757 991.727 542.717 1001.07 545.28 1004.01C554.665 1014.76 570.906 1032.35 586 1034.5C610.67 1038 625.894 1017.8 643 1004.33C655.007 994.873 669.416 986.796 682 977.4C689.544 971.768 705.832 972.126 710.694 964.713C717.674 954.072 710.341 936.803 704.218 927.68C688.617 904.436 677.152 862.628 649.922 849.3C640.312 844.596 618.188 861.082 610.435 852.521C596.436 837.063 597.745 785.875 573 785.609C565.34 785.526 556.905 796.347 550 799.702C523.093 812.775 497.332 836.681 470 847C479.459 860.085 494.557 872.734 505.437 885.861C508.432 889.475 516.55 894.389 516.879 899.433C518.024 917.017 472.673 925.66 468.098 938.656C466.798 942.35 481.878 961.33 484.54 965C487.942 969.69 494.032 979.192 500.136 980.333C511.871 982.527 529.235 960.972 537 954.25C539.475 952.108 546.534 944.803 550.221 946.505C563.789 952.764 561.228 988.217 573.188 997.456C580.729 1003.28 587.972 992.362 595.019 991.002C616.322 986.89 633.983 976.872 654.217 968.309C660.163 965.793 670.158 966.569 675.137 962.398C679.455 958.782 672.268 948.477 670.424 945C663.118 931.228 654.87 917.935 647.747 904C646.181 900.937 642.333 890.086 638.676 889.323C634.517 888.456 643.105 903.7 643.805 905C650.833 918.06 660.865 930.272 666.073 944C667.348 947.359 672.904 955.492 669.394 958.481C664.646 962.523 656.528 962.047 651 964.736C633.068 973.46 615.617 983.037 596 985.834C590.18 986.664 581.487 996.082 576.276 992.311C567.901 986.25 562.549 962.555 558.517 953C556.996 949.396 555.686 940.88 550.835 940.165C535.398 937.889 514.832 983.643 499.446 975.031C495.12 972.61 491.393 966.839 488.379 963C484.934 958.612 475.298 947.055 475.577 941.432C475.805 936.837 485.642 931.961 489 929.805C497.529 924.332 520.248 911.484 523.26 901.463C524.929 895.91 514.336 888.425 511.224 884.993C498.028 870.437 491.158 858.815 475 848C502.052 836.422 526.279 815.959 553 802.953C558.417 800.316 566.58 790.103 571.923 789.699C578.009 789.238 584.667 796.961 586.328 802.003C592.666 821.23 593.845 841.371 608.408 857.353C615.573 865.215 638.04 850.061 647 853.494C656.02 856.949 662.977 868.428 668.136 876C681.167 895.123 713.069 930.417 708.473 955.997C706.866 964.94 670.986 981.078 662 986.881C641.121 1000.36 611.953 1037.81 584 1029.32C562.808 1022.89 547.916 999.039 531 986C525.895 999.311 508.919 999.312 500 1010C485.654 991.904 475.782 976.295 466.755 955C464.307 949.224 457.309 942.583 458.268 936C461.033 917.007 478.874 906.87 488 892C476.835 887.098 470.496 872.891 464.192 863C458.116 853.466 439.455 835.918 440.607 824C441.629 813.424 452.766 805.054 461 799.846C472.606 792.504 487.55 790.302 500 783.331C518.158 773.164 533.173 755.476 556 756.126C568.733 756.489 576.338 769.799 582.967 779C595.782 796.786 610.174 819.44 625.84 834.48C637.74 845.906 654.078 817.766 661.875 822.785C669.769 827.869 671.297 843.277 675.618 851C691.392 879.199 701.666 909.224 716 938C718.478 930.233 710.901 919.159 707.906 912C698.61 889.786 687.905 868.214 678.599 846C675.424 838.42 671.512 822.838 663.683 818.773C652.437 812.935 641.432 840.609 628.734 830.178C604.761 810.487 593.481 768.818 565.981 753.689C555.324 747.827 544.246 755.092 534 757.462C520.285 760.634 511.844 771.026 500 778.228C480.205 790.264 447.176 791.63 438.088 817C427.567 846.367 478.16 868.035 479.023 894.134C479.35 904.039 457.714 922 454.569 934C452.471 942.008 459.734 949.211 462.938 956C471.618 974.393 478.416 1002.99 499 1012C494.916 1017.33 490.723 1022.79 485.78 1027.36C479.949 1032.75 470.347 1045.21 462.001 1045.87C444.161 1047.28 442.832 1000.07 439.697 989C436.526 977.807 421.64 962.462 423.454 951C425.259 939.601 431.661 921.824 439.38 913.217C442.22 910.051 455.303 900.632 454.677 896.361C453.979 891.604 443.939 883.301 440.967 879C430.991 864.561 424.924 848.734 415.758 834C412.584 828.897 402.25 818.004 403.22 811.922C407.493 785.109 445.891 769.724 461 750C449.879 750.776 439.317 763.348 431.783 770.79C420.587 781.849 400.233 796.346 399.781 814C399.618 820.348 407.568 827.742 410.702 833C418.405 845.927 423.177 860.665 431.769 873C435.78 878.759 446.459 889.085 447.176 896.225C447.771 902.144 438.913 906.731 435.943 911.04C429.04 921.057 423.92 934.343 420.721 946C416.429 961.64 430.701 976.009 436.378 990C443.384 1007.27 437.356 1032.21 452.407 1046.64C460.586 1054.49 469.624 1047.79 475.92 1041.41C485.295 1031.92 506.646 1001.52 521.425 1002.75C529.89 1003.46 534.358 1018.04 537.853 1024C545.277 1036.67 562.106 1057.59 576 1063.2C583.937 1066.41 604.45 1058.19 610.992 1053.27C637.553 1033.31 670.92 1014.37 695 992.133C702.114 985.565 715.636 977.151 717 967M598 750C605.335 767.108 619.622 781.41 628.537 798C631.666 803.823 632.82 814.451 639.221 817.674C649.391 822.794 660.847 797.826 672.288 801.099C674.807 801.82 679.712 821.669 681 825C682.613 820.05 679.603 797.145 674.304 794.725C664.947 790.452 648.387 817.889 639.524 812.013C623.518 801.401 620.727 753.291 598 750M1225 915C1241.73 915.583 1260.87 907.271 1277 910.724C1290.14 913.538 1306.51 913.695 1319 918.027C1346.85 927.686 1335.47 961.954 1320.76 976.774C1296.02 1001.71 1251.57 995.815 1221 994.483C1213.55 994.158 1195.37 1002.45 1189.92 995.396C1185.58 989.773 1193.78 970.018 1194.39 963C1195.9 945.743 1200.37 927.209 1200.4 910C1200.43 894.508 1195.08 878.696 1199.59 863.04C1202.05 854.524 1209.85 817.514 1202 812C1191.38 857.76 1199.58 903.607 1191.3 949C1189.86 956.888 1180.56 994.509 1185.27 999.818C1192.27 1007.7 1213.28 998.839 1222 999.629C1257.13 1002.81 1333.99 1003.31 1339.82 953C1344.44 913.099 1297.52 903.142 1266 906.157C1259.94 906.737 1236.98 913.918 1232.5 909.794C1226 903.805 1236.08 878.211 1237.96 871C1243.78 848.654 1248.65 793.682 1226.85 780.541C1200.82 764.857 1176.12 789.07 1170.55 812C1162.46 845.34 1169.25 881.873 1166.86 916C1164.82 945.22 1155.16 976.892 1168.06 1005C1196.94 1067.93 1272.37 1007.01 1318 1007C1334.38 1007 1350.68 1006.35 1367 1006.02C1369.44 1005.97 1382.05 1007.78 1382.68 1004.8C1383.72 999.907 1368.42 1000.99 1366 1001C1347.7 1001.04 1329.32 1002.6 1311 1003.02C1272.89 1003.89 1243.7 1035.28 1205 1026.44C1196.86 1024.58 1184.15 1024.42 1179.06 1016.94C1173.33 1008.53 1170.39 998.738 1167.92 989C1161.8 964.854 1170.14 939.143 1171.68 915C1173.37 888.378 1169.43 861.514 1172.56 835C1174.33 819.962 1172.56 798.391 1186.24 787.796C1200.56 776.702 1233.55 780.365 1237.16 801C1243.78 838.864 1229.91 877.995 1225 915M1652 909C1681.89 899.347 1685.31 814.433 1641 826.755C1605.02 836.76 1578.07 889.075 1573.23 924C1569.82 948.658 1590.89 970.089 1614 971C1586.67 1003.93 1567.6 955.923 1564.3 934C1558.35 894.437 1573.99 853.397 1600.18 824C1625.35 795.748 1662.72 802.002 1686.57 827.139C1694.19 835.166 1704.31 845.746 1702.28 858C1699.24 876.331 1686.21 895.675 1671 905.992C1668.81 907.479 1654.03 913.96 1656.65 915.227C1673.87 923.566 1694.22 887.835 1699.63 877C1713.91 848.354 1694.81 818.75 1667 804.787C1638.66 790.553 1607.33 807.355 1590.86 830C1563.53 867.576 1548.05 917.635 1566.61 963C1574.17 981.488 1593.92 992.196 1612 978.882C1615.29 976.458 1626.82 972.169 1626.21 967.303C1625.73 963.352 1617.52 966.238 1615 966.214C1605.32 966.12 1593.05 961.254 1586.78 953.631C1564.56 926.588 1590.1 885.815 1604.24 861C1612.53 846.443 1657.54 808.933 1666.93 842.001C1674.89 870.057 1660.37 885.174 1652 909M825 907C816.56 896.742 820.189 882.805 823.551 871C831.71 842.355 864.685 809.347 897 816.424C931.276 823.929 948.303 858.89 955.378 890C957.202 898.02 954.428 906.361 958 914C937.182 915.526 910.361 926.058 890.012 919.632C871.967 913.935 893.268 879.714 904 875C902.067 880.605 891.643 897.812 894.574 903.181C897.181 907.955 923.631 911.743 926.25 906.716C933.887 892.058 928.807 878.495 921.166 866C919.46 863.21 915.142 852.467 910.47 854.106C906.608 855.46 913.423 862.687 914.405 864C919.468 870.768 935.691 914.634 912.325 901.859C901.147 895.747 922.266 864.037 900.979 857.766C878.749 851.217 877.559 880.843 869.828 892.463C867.493 895.973 855.703 903.217 852.517 897.458C850.321 893.487 853.546 883.365 854.245 879C858.703 851.169 890.962 834.473 917 848.343C944.585 863.037 931.152 890.889 937 914C942.643 908.995 941.002 895.055 941 888C940.991 855.279 909.003 827.567 876 841.688C849.618 852.976 854.487 880.333 846 902C854.196 904.263 869.146 904.83 874.076 895.836C879.168 886.546 880.977 854.192 899.949 862.269C902.622 863.406 906.818 866.986 904.751 870.272C902.496 873.854 895.43 874.409 892.158 877.346C886.224 882.672 874.507 911.407 879.701 918.802C884.824 926.097 898.34 925.39 906 924.915C932.856 923.249 959.149 920.952 986 920C982.731 911.754 966.861 920.116 961.183 908.969C953.966 894.802 956.192 873.855 949.498 858C932.051 816.682 884.484 795.968 848 828.143C832.355 841.94 818.126 862.331 817.06 884C816.696 891.384 813.396 908.569 825 907M555 821C565.244 836.956 574.921 851.748 581.181 870C583.314 876.217 586.547 888.554 593.298 891.314C608.111 897.37 620.226 873.291 635 885C634.856 878.583 630.192 875.127 624 877.044C615.656 879.626 602.674 891.466 593.42 885.1C577.928 874.443 580.655 819.314 555 821M158 879C147.899 876.024 134.248 873.317 125.266 881.46C105.66 899.238 113.725 953.88 143 954C139.248 960.446 133.287 965.087 132.241 973C128.043 1004.76 161.466 1021.42 188 1018.18C195.252 1017.29 210.739 1018.23 215.877 1012.4C229.442 997.011 221.081 972.541 217 956C227.236 958.485 235.82 963.586 245.981 957.08C268.953 942.371 268.028 906.768 238 907C244.919 892.114 256.397 875.396 253.613 858.001C251.984 847.822 234.546 840.084 226.003 845.807C219.373 850.248 216.589 857.696 211 863C207.634 844.197 184.218 814.362 164.784 835.344C153.541 847.483 155.294 864.048 158 879M216 883C213.574 870.01 214.257 863.071 224.097 853.052C229.912 847.132 243.985 846.254 248.178 855.372C258.46 877.728 231.898 900.29 227 919C234.881 914.782 239.982 908.043 249.997 911.932C265.453 917.935 255.041 947.365 243.941 953.296C238.85 956.017 208.416 951.961 208.786 950.646C207.716 954.442 213.826 960.496 215.177 964C218.884 973.615 221.928 1001.71 212.576 1009.18C208.123 1012.73 200.288 1010.53 195 1011.41C168.584 1015.79 134.319 1009.22 136.148 974C136.94 958.734 153.586 961.099 158 951C123.067 957.183 109.86 917.231 124.405 889.089C130.701 876.907 153.548 877.541 160.863 888.129C161.758 889.425 169.483 902.572 170.728 901.357C172.686 899.445 162.667 881.521 162.101 878C156.878 845.466 182.104 811.596 203.841 853C209.525 863.826 206.471 874.183 216 883M1925 836C1918.61 864.527 1920.32 895.272 1911.16 923C1907.65 933.601 1890.28 941.759 1880.84 930.403C1877.35 926.201 1880.94 916.88 1881.56 912C1883.56 896.078 1883.71 879.95 1885.44 864C1885.69 861.61 1887.33 843.729 1883.22 845.106C1878.17 846.799 1880.27 869.729 1880.03 875C1879.41 888.821 1879.01 903.361 1876.68 917C1875.9 921.569 1872.82 930.122 1876.04 934.264C1879.72 939.008 1890.62 938.397 1896 938.882C1900.2 939.261 1905.73 940.686 1909.71 938.811C1914.12 936.738 1914.98 924.496 1916.34 920C1921.83 901.865 1921.34 881.789 1923.56 863C1924.12 858.31 1923.85 846.227 1928.18 843.297C1930.76 841.552 1940.92 843.738 1943.97 844.468C1953.86 846.835 1948.93 861.76 1949.04 869C1949.39 893.509 1930.57 948.793 1968 942.183C1993.06 937.758 1995.42 888.848 1998.58 866C1999.9 856.446 2005.03 837.153 2019.81 841.015C2026.82 842.846 2018.71 863.282 2017.5 868C2011.03 893.315 1986.29 945.331 2033.87 938.851C2042.51 937.675 2043.46 921.469 2045.71 915C2054.39 889.96 2046.61 832.551 2081.97 837.148C2093.46 838.641 2083.36 859.318 2081.79 866C2077.96 882.287 2074.53 898.692 2070.74 915C2069.55 920.107 2065.66 928.807 2069.82 933.458C2074.02 938.147 2091.38 934.206 2097 933C2091.86 927.599 2074.6 935.481 2072.64 927.753C2068.45 911.189 2082.4 874.399 2087.37 858C2088.89 852.963 2096.21 836.969 2089.71 833.822C2072.64 825.546 2057.3 835.356 2054.73 852C2050.88 876.875 2048.75 945.196 2013.03 931.04C2005.12 927.905 2007.86 919.433 2009.91 913C2015.77 894.526 2019.13 875.63 2024.14 857C2025.68 851.263 2031.64 834.472 2020.99 835.375C1988.78 838.108 1991.6 887.541 1985.24 912C1981.07 928.038 1975.18 944.873 1954.03 938.153C1943.59 934.836 1953 906.297 1953 897C1953 886.965 1958.64 849.326 1951.4 843.024C1945.67 838.041 1932.3 838.519 1925 836M908 879C906.98 907.743 892.511 897.635 908 879M450.667 1073.33C450.222 1073.78 451.278 1073.72 451.333 1073.67C451.778 1073.22 450.722 1073.28 450.667 1073.33M1234 1156C1202.13 1214.49 1191.52 1275.87 1177.54 1340C1173.61 1358.05 1161.08 1376.74 1160 1395C1173.2 1389.04 1179.92 1346.16 1182.59 1333C1190.97 1291.82 1204.45 1252.1 1213.54 1211C1216.87 1195.95 1226.84 1162.6 1241.18 1154.38C1266.62 1139.82 1292.51 1202.65 1301.56 1219C1304.63 1224.54 1316.49 1237.52 1314.32 1243.78C1310.41 1255.06 1291.61 1266.82 1283.57 1275.78C1256.51 1305.95 1229.46 1337.03 1200.68 1365.56C1191.15 1375.01 1181.37 1383.79 1171 1392.29C1168.08 1394.69 1161.11 1397.52 1160.81 1401.83C1160.45 1407.09 1171.43 1408.11 1175 1408.88C1191.06 1412.34 1208.09 1406.79 1224 1405.86C1293.96 1401.74 1364.63 1405.89 1434 1406C1419.39 1388.99 1379.34 1400.95 1361 1401.92C1296.36 1405.35 1231.07 1398 1167 1403C1175.72 1388.3 1196.5 1374.85 1208.78 1362.44C1233.95 1337.01 1256.84 1309.44 1281.99 1284C1290.88 1275.01 1298.69 1264.79 1307.96 1256.21C1309.98 1254.35 1315.21 1247.92 1318.33 1250C1330.65 1258.18 1342.03 1285.35 1350.27 1298C1368.06 1325.34 1389.69 1349.22 1411.93 1373C1416.76 1378.16 1435.49 1410.01 1442.53 1407.85C1446.83 1406.53 1443.64 1399.51 1442.66 1397C1437.36 1383.54 1442.97 1369 1443 1355C1443.13 1297.94 1450 1241.06 1450 1184C1446.17 1193.91 1447.91 1204.72 1446.54 1215C1441.79 1250.77 1443.52 1287.06 1440.89 1323C1439.21 1345.92 1432.7 1374.64 1438 1397C1428.53 1391.29 1421.59 1376.35 1413.96 1368C1388.72 1340.36 1367.04 1312.53 1345.52 1282C1340.7 1275.16 1318.37 1250.77 1323.78 1242.33C1330.95 1231.14 1347.02 1222.31 1357 1213.56C1377.48 1195.61 1396.08 1175.61 1417.04 1158.09C1423.06 1153.06 1448.71 1143.56 1450 1139C1413.42 1142.4 1379.45 1134.82 1343 1137.09C1324.87 1138.21 1309.71 1150 1291 1150C1280.21 1150 1268.49 1148.25 1258.02 1146.29C1253.71 1145.48 1250.76 1140.13 1246.14 1140.85C1241.68 1141.54 1239.4 1147.56 1235.9 1149.98C1232.96 1152.02 1226.49 1152.38 1224.67 1155.58C1222.22 1159.88 1232.92 1156.28 1234 1156M276 1139L275 1143L279 1142L276 1139M1423 1147C1419.79 1154.66 1410.14 1159.09 1404.4 1164.87C1385.76 1183.63 1365.14 1201.45 1345 1218.68C1341.34 1221.81 1324.07 1240.59 1319.52 1238.46C1311.42 1234.66 1305.22 1217.45 1301.16 1210C1289.66 1188.91 1274.34 1170.27 1262 1150C1275.84 1150.55 1287.55 1155.87 1302 1153.7C1324.52 1150.31 1342.85 1140.61 1366 1139.31C1384.22 1138.29 1403.95 1147 1423 1147M236 1144.44C151.774 1154.12 69.5072 1223.85 33.8196 1299C10.4758 1348.16 38.5977 1409.87 91 1426.82C107.266 1432.08 128.33 1427.69 145 1426.26C169.043 1424.2 191.516 1412.26 213 1402.34C271.051 1375.53 317.091 1347.02 341.594 1285C369.566 1214.2 312.773 1135.61 236 1144.44M1251 1148C1247.99 1148.82 1245.09 1149.6 1242 1150C1243.95 1145.67 1247.85 1143.75 1251 1148M288 1159C271.305 1155.73 250.113 1157.22 236 1168C257.483 1167.91 274.792 1157.46 297 1165.45C350.828 1184.81 354.113 1255.97 331.21 1300C295.471 1368.71 210.144 1413.56 135 1421.33C121.914 1422.69 109.535 1427.11 96 1424.28C65.2029 1417.84 30.1634 1379.22 28.0862 1347C26.3544 1320.14 39.1604 1295.05 53.2704 1273C84.9828 1223.45 142.419 1169.36 202 1158.66C223.136 1154.87 270.447 1134.66 288 1159M2007 1184L2007 1187C2012.94 1187.12 2018.21 1189 2024 1190L2022 1194C2028.33 1193.78 2046.54 1199.92 2042.43 1209.22C2037.88 1219.52 2023.89 1229.11 2016 1237C1996.84 1256.16 1979.79 1277.68 1958.14 1294.04C1951.18 1299.3 1933.72 1309.71 1934 1319C1965.73 1297.96 1990.32 1268.68 2017 1242C2025.8 1233.2 2043.95 1220.39 2047.31 1207.99C2050.7 1195.5 2023.66 1190.32 2025.64 1184.67C2027.69 1178.84 2058.95 1165.22 2063.78 1167.75C2075.42 1173.86 2065.87 1182.07 2064 1169C2051.9 1179.81 2075.65 1179.31 2077.44 1183.17C2080.03 1188.77 2070.09 1199.22 2075.95 1203.69C2080.27 1206.99 2086.94 1199.86 2092 1201.35C2098.79 1203.36 2097.17 1209.01 2101.01 1212.75C2105.64 1217.28 2131.85 1231.74 2128.68 1240.15C2127.66 1242.83 2124.95 1245.01 2123 1247C2104.5 1265.81 2100.99 1229.36 2086.14 1239.6C2071.8 1249.49 2059.03 1265.08 2045.68 1276.67C2024.1 1295.42 1999.78 1312.15 1976.76 1328.79C1970.24 1333.51 1966.7 1341.82 1959.92 1346.18C1942.62 1357.3 1932.22 1338.85 1930 1326C1914.36 1345.33 1947.54 1358.41 1961.56 1350.73C1970.91 1345.61 1978.47 1333.65 1987.14 1326.9C2009.68 1309.36 2033.81 1292.95 2055 1273.78C2061.58 1267.82 2081.19 1244.47 2089.17 1243.44C2095.36 1242.64 2105.46 1256.26 2110 1260C2072.43 1281.73 2033.3 1315.69 2008.36 1351C1999.1 1364.1 1987.9 1378.34 1976.86 1389.97C1975.43 1391.48 1968.12 1400.52 1966.45 1400.71C1960.35 1401.4 1950.85 1383.26 1947.61 1379C1932.18 1358.68 1908.69 1348.03 1893.56 1329.01C1890.08 1324.63 1878.39 1316.39 1881.08 1310.04C1885.63 1299.29 1903.39 1291.35 1912 1284C1936.04 1263.47 1957.17 1239.73 1981 1219.07C1989.66 1211.56 2015.66 1201.92 2015 1189C1978.3 1217.24 1946.91 1251.04 1910.96 1279.87C1903.6 1285.77 1873.83 1301.07 1874.24 1311.14C1874.51 1318.15 1883.22 1324.71 1887.46 1329.44C1901.34 1344.94 1918.71 1355.19 1934 1370.04C1945.39 1381.11 1954.88 1404.24 1970 1410C1971.91 1395.3 1994.98 1375.13 2004.66 1364C2027.79 1337.41 2047.01 1312.6 2075.04 1290.15C2097.72 1271.99 2127.05 1257.23 2136 1230C2124.77 1230.65 2126.41 1219.2 2119.76 1213.6C2116.06 1210.49 2110.94 1210.73 2107.7 1206.79C2104.89 1203.39 2106.02 1196.69 2102.39 1194.31C2097.9 1191.36 2093.51 1195.74 2089.15 1190.79C2081 1181.55 2078.91 1165.79 2064.54 1160.66C2059.46 1158.85 2052.06 1166.25 2048 1168.51C2035.83 1175.28 2021.06 1183.98 2007 1184M383 1189C391.4 1186.34 399.274 1180.28 408 1178.88C425.095 1176.15 443.925 1180.36 462 1177.65C471.974 1176.15 480.344 1168.25 490 1165.64C498.723 1163.28 507.304 1165.6 516 1165.96C527.692 1166.45 549.091 1163.98 558.654 1171.77C570.596 1181.5 566.806 1203.78 568.328 1217C572.465 1252.93 584.839 1286.16 592.795 1321C594.28 1327.5 604.147 1360.44 598.171 1364.52C593.398 1367.79 576.442 1366.54 570 1367.8C532.533 1375.11 494.383 1366.01 458 1374.23C446.741 1376.78 419.929 1391.87 408.542 1383.73C402.739 1379.58 403.374 1352 401.201 1344.44C393.123 1316.32 393.782 1284.99 392.904 1256C392.525 1243.5 389.518 1227.01 393.543 1215C396.844 1205.15 402.808 1203.61 409 1197C388.459 1193.08 387.295 1223.37 387.019 1237C386.214 1276.62 390.357 1317.64 399.863 1356C401.754 1363.63 400.005 1382.54 404.3 1388.18C408.01 1393.05 423.952 1388.45 429 1387.5C453.29 1382.91 475.037 1375.75 500 1375.79C527.158 1375.84 550.879 1374.32 578 1370.29C583.218 1369.51 599.579 1372.05 602.74 1368.18C608.136 1361.57 600.041 1338.13 599.209 1330C595.146 1290.29 578.23 1250.78 571.519 1211C569.597 1199.61 573.645 1174.07 561.794 1166.96C553.123 1161.77 541.753 1162.64 532 1162.25C517.72 1161.68 503.238 1158.42 489 1161.5C470.195 1165.57 455.327 1177.15 435 1177.55C421.615 1177.81 388.27 1168.85 383 1189M1680 1318C1666.37 1331.8 1690.52 1364.25 1675.72 1378.53C1664.43 1389.42 1637.09 1383.23 1623 1383C1617.01 1382.9 1608.19 1383.34 1605.37 1376.93C1597.33 1358.67 1609.49 1337.13 1603.66 1319C1597.41 1299.55 1580.74 1291.48 1581.01 1268C1581.2 1250.9 1598.47 1241.81 1599.89 1226C1602.27 1199.61 1592.41 1175.15 1627 1172.76C1632.36 1172.39 1640 1169.81 1644.58 1173.7C1652.56 1180.49 1660.12 1213.98 1658.48 1224C1657.26 1231.47 1649.85 1240.43 1652.04 1248C1656.13 1262.13 1673.11 1273.7 1670.64 1290.97C1669.22 1300.84 1653.48 1297.03 1650.64 1308C1646.49 1324.1 1657.16 1342.01 1654.24 1357.8C1653.24 1363.21 1638.91 1367.27 1634.36 1365.26C1628.76 1362.79 1629.98 1346.51 1628.62 1341C1622.26 1315.12 1624.59 1303.88 1605.28 1283.6C1601.05 1279.16 1602.1 1273.44 1603.52 1268C1605.49 1260.4 1609.77 1249.74 1616.18 1244.84C1621.43 1240.84 1629.53 1241.47 1631.47 1233.96C1633.92 1224.52 1629.41 1180.5 1620 1178C1621.36 1192.56 1631.98 1218.01 1626.72 1231.85C1624.38 1238.02 1617.21 1237.91 1612.9 1242.05C1604.75 1249.9 1597.68 1266.66 1598.14 1278C1598.71 1291.75 1618.39 1295.74 1620.63 1310C1622.49 1321.88 1619.96 1363.57 1632.16 1368.94C1671.74 1386.34 1650.47 1324.01 1654.5 1310.01C1657.49 1299.63 1673.76 1303.61 1675.56 1292.95C1678.58 1274.97 1659.53 1261.18 1656.28 1246C1654.86 1239.38 1662.11 1229.23 1662.78 1222C1664.1 1207.58 1655.65 1180.46 1647 1169C1698.21 1169.08 1655.06 1253.92 1702 1254C1699.22 1260.28 1698 1265.12 1698 1272L1701 1272C1701.47 1262.67 1721.2 1238.51 1702 1254C1698.43 1245.83 1687.33 1247.77 1683.84 1236.68C1677.04 1215.07 1686.15 1189.43 1668.46 1170.32C1661.12 1162.4 1650.18 1165.86 1641 1166.78C1621.26 1168.75 1599.39 1167.38 1595.32 1192C1593.55 1202.7 1599.2 1216.14 1596.13 1226C1589.53 1247.15 1572.69 1257.98 1577.34 1283C1580.29 1298.85 1597.93 1308.91 1600.62 1323C1603.62 1338.73 1595.46 1356.25 1599.75 1372C1605.88 1394.49 1663.51 1395.37 1679.73 1380.25C1691 1369.76 1683.38 1331.34 1680 1318M2082 1177L2080 1180L2080 1177L2082 1177M491.674 1187.19C479.594 1194.17 455.333 1196.15 441 1197.19C433.194 1197.75 425.703 1193.17 420.07 1201.07C412.261 1212.01 413.979 1225.51 412.68 1238C409.168 1271.76 407.247 1301.66 413.715 1335C415.663 1345.05 413.295 1366.88 422.724 1373.74C429.071 1378.36 447.74 1371.22 455 1369.9C481.146 1365.15 507.709 1361.9 534 1357.52C541.315 1356.3 550.932 1361.38 557.575 1357.88C568.88 1351.91 566 1324.52 566 1314C566 1277.43 555.62 1237.7 535.387 1207C526.767 1193.92 511.313 1175.84 491.674 1187.19M2083 1188C2093.17 1202.01 2074.17 1200.98 2083 1188M507 1196L506 1191C526.763 1191.09 535.966 1211.36 541.987 1229C553.545 1262.86 575.494 1314.96 557.734 1350.79C554.669 1356.98 535.98 1352.46 529 1354.25C507.85 1359.67 486.13 1358.89 465 1362.81C454.146 1364.82 438.476 1372.89 427.347 1371.18C421.259 1370.25 420.372 1352.79 420.071 1348C418.586 1324.41 407.408 1301.27 412.103 1277C416.169 1255.98 410.605 1221.73 423.344 1204.28C427.852 1198.11 436.329 1202.61 442.438 1201.56C463.716 1197.92 485.172 1193.11 507 1196M224 1195.52C177.115 1202.13 121.86 1241.98 103.981 1287C85.1195 1334.49 135.562 1374.23 180 1368.66C229.718 1362.43 282.06 1317.22 296.961 1270C311.09 1225.23 265.738 1189.63 224 1195.52M2099 1197.07C2101.17 1197.05 2101.17 1199.95 2099 1199.93C2096.84 1199.9 2096.84 1197.1 2099 1197.07M213 1201C209.132 1205.61 203.72 1207.42 199 1211C223.65 1207.72 247.711 1196.31 272.981 1209.24C295.945 1220.98 297.003 1260.97 287.957 1281C269.614 1321.62 222.936 1360.32 177 1364.56C135.84 1368.36 93.236 1333.43 106.88 1290.14C117.318 1257.02 155.035 1227.36 185 1213.07C194.201 1208.69 202.557 1201.84 213 1201M857 1282C865.964 1283.51 864.982 1293.59 864.999 1301C865.034 1315.4 864.509 1329.66 864.786 1344C864.866 1348.18 862.398 1354.78 865.822 1358.18C872.415 1364.72 895.691 1355.51 904 1355C896.492 1359.03 888.095 1363.38 880 1366C884.514 1372.2 894.294 1364.67 900 1362.65C916.819 1356.71 925.607 1348.89 942 1358C943.132 1354.89 943.944 1353.34 947 1352C944.339 1345.15 938.042 1339.25 936.558 1331.98C932.2 1310.63 937.46 1285.85 934.645 1264C932.77 1249.44 924.946 1237.36 918 1225C924.139 1224.77 931.437 1224.35 934 1218C916.309 1218.08 899.643 1217.81 882 1218.18C876.552 1218.3 862.639 1217.08 859.388 1222.67C849.875 1239.01 868.066 1266.52 857 1282M2120 1221C2117.13 1218.95 2115.43 1217.23 2114 1214C2117.76 1215.43 2119.11 1217.09 2120 1221M900 1218.35C927.063 1214.67 898.395 1226.68 886.295 1226.71C879.213 1226.73 896.947 1218.76 900 1218.35M487 1219.48C472.523 1221.68 441.695 1219.73 430.822 1230.92C420.443 1241.6 427.165 1285.01 430.223 1298C433.872 1313.5 430.471 1331.06 432.721 1347C433.329 1351.31 433.972 1362.18 440.14 1361.81C451.825 1361.09 462.659 1351.3 473 1346.8C492.099 1338.49 530.049 1346.12 539.86 1325C550.289 1302.54 538.38 1282.44 533.278 1261C530.525 1249.43 526.61 1231.57 516.732 1223.8C509.677 1218.26 495.458 1218.2 487 1219.48M877 1226C854.576 1230.36 873.249 1216.7 877 1226M434 1297C442.801 1304.84 438.23 1323.64 447.499 1330.69C463.131 1342.6 497.483 1322.03 516 1326C513.798 1302.35 518.252 1261.99 503.055 1242.16C498.494 1236.2 490.294 1239.67 484 1239.79C468.013 1240.08 440.443 1242.65 433 1261C414.129 1225.64 469.085 1226.67 488 1224.44C495.661 1223.54 511.284 1222.3 516.56 1229.28C530.361 1247.56 552.375 1311.93 530.837 1330.05C520.705 1338.57 497.192 1335.96 484 1339.14C474.372 1341.45 447.408 1361.46 438.803 1354.74C429.914 1347.8 434 1307.78 434 1297M199 1236C210.683 1238.96 227.821 1234.26 236.625 1244.11C267.097 1278.2 213.594 1322.24 179 1312.94C127.012 1298.97 180.688 1224.63 218 1229C215.377 1220.03 196.422 1228.13 191.019 1230.83C173.093 1239.78 155.692 1264.11 152.278 1284C148.875 1303.82 170.113 1317.06 187.06 1318.92C210.111 1321.45 238.009 1304.91 246.315 1283C251.538 1269.22 250.4 1248.46 237.935 1238.55C231.335 1233.31 204.16 1227.48 199 1236M907.992 1226.43C921.28 1224.31 913.964 1239.88 905.922 1241.24C901.914 1241.92 880.373 1241.36 886.341 1232.8C889.102 1228.84 903.35 1227.17 907.992 1226.43M878 1227C876.467 1233.6 870.77 1235.57 865 1238C864.378 1235.61 864.098 1233.47 864 1231C869.132 1231.03 873.291 1228.79 878 1227M881 1234C881.593 1243.95 873.828 1242 866 1242C869.256 1237.8 875.921 1235.26 881 1234M918 1236C917.84 1246.38 911.055 1242.5 918 1236M922 1237C927.318 1246.17 930.744 1260.37 929.93 1270.97C929.557 1275.83 923.324 1280 920.958 1273.78C919.147 1269.01 921.121 1262.23 920 1257C917.047 1261.92 919.072 1272.42 915.06 1275.74C908.746 1280.97 895.401 1276.49 898.147 1267.02C901.002 1257.18 913.416 1259 919.042 1252.96C922.409 1249.34 919.122 1241.6 922 1237M498.794 1243.68C504.615 1245.89 507.199 1274.55 508.07 1280.96C509.333 1290.26 514.867 1310.8 510.387 1319.36C508.856 1322.29 499.993 1322.36 497 1322.99C485.031 1325.49 463.818 1332.72 452.107 1327.53C443.332 1323.64 441.557 1305.28 439.439 1297C436.988 1287.42 432.366 1269.36 437.384 1260.1C445.457 1245.21 484.426 1238.22 498.794 1243.68M894 1263C875.318 1241.72 918.584 1238.16 894 1263M866 1276C864.103 1270.11 858.006 1252.51 863.26 1247.26C874.663 1235.86 889.244 1252.16 885.458 1264.68C883.795 1270.18 870.887 1273.82 866 1276M195 1246.85C170.14 1255.1 163.683 1303.92 200 1292.5C230.533 1282.9 231.109 1234.88 195 1246.85M904 1257C906.443 1243.97 922.35 1246 904 1257M197 1251.57C230.85 1246.2 220.521 1285.41 195 1289.56C166.891 1294.14 178.408 1254.51 197 1251.57M471 1266C476.213 1267.01 484.148 1264.2 488.178 1268.69C500.972 1282.94 486.226 1302.75 469.042 1300.28C459.332 1298.89 468.473 1272.19 464.699 1268.03C462.143 1265.21 459.447 1275.68 459.454 1277.12C459.508 1287.84 461.104 1297.03 465 1307C470.351 1304.69 495.145 1302.74 497.1 1299.18C499.25 1295.27 495.862 1288.06 495.295 1284C493.406 1270.48 490.086 1249.86 471 1266M870 1279C881.18 1261.22 900.143 1278.88 870 1279M885 1292C887.76 1272.76 906.46 1287.37 885 1292M914 1283C908.295 1283.52 903.526 1285.4 901 1279C903.954 1279.52 929.155 1287.53 916.36 1294.1C906.043 1299.39 909.645 1286.93 914 1283M929.458 1281.15C933.75 1282.84 933.641 1298.3 925.275 1295.49C918.86 1293.33 920.125 1277.48 929.458 1281.15M433 1281C433.792 1284.69 433.985 1288.23 434 1292C430.513 1289.03 431.475 1284.96 433 1281M884 1281C882.147 1295.15 876.359 1309.19 872.88 1323C871.726 1327.58 872.177 1335.49 867 1337C868.171 1324.43 871.132 1311.68 869.672 1299C869.229 1295.15 866.072 1286.47 869.26 1283.26C871.846 1280.66 880.441 1281.33 884 1281M1698 1285C1692.55 1293.21 1681.99 1305.66 1680 1315C1688.75 1312.75 1700.87 1294 1698 1285M905 1296C900.349 1295.62 895.668 1295.99 891 1296C895.457 1289.74 902.261 1287.37 905 1296M885.736 1299.86C896.105 1294.42 921.67 1311.65 908.922 1318.9C904.363 1321.49 878.857 1336.89 874.966 1334.48C871.847 1332.54 882.158 1301.74 885.736 1299.86M908 1299C929.219 1299 921.162 1323.98 908 1299M926.471 1300.11C930.723 1298.54 931.337 1305.69 927.749 1306.9C924.628 1307.94 923.624 1301.16 926.471 1300.11M932 1310L933 1325C928.279 1321.24 925.526 1313.01 932 1310M930 1337C912.029 1319.89 929.02 1310.57 930 1337M882 1339C885.35 1333.58 909.903 1317.25 916.16 1321.95C919.251 1324.27 933.13 1347.1 931.422 1348.11C928.952 1349.57 921.146 1342.13 917.999 1341.2C906.483 1337.82 893.805 1337.43 882 1339M1930.33 1322.67C1930.28 1322.72 1930.22 1323.78 1930.67 1323.33C1930.72 1323.28 1930.78 1322.22 1930.33 1322.67M874.888 1341.79C884.71 1339.08 900.789 1342.95 911 1344C912.627 1344.17 924.637 1345.6 919.429 1348.98C913.216 1353.02 879.199 1357.32 872.285 1354.94C866.299 1352.88 870.257 1343.06 874.888 1341.79M1156 1540C1155.96 1537.75 1155.67 1536.15 1155 1534C1161.66 1539.13 1165.25 1547.94 1172.02 1553.33C1181.18 1560.61 1195.98 1565.09 1202.4 1575.09C1220.11 1602.68 1223.75 1639.19 1239.87 1668C1245.49 1678.05 1251.82 1694.65 1254.08 1706C1254.62 1708.68 1253.23 1719 1257.77 1719C1260.43 1719 1262.26 1710.96 1263.43 1709.04C1269.43 1699.21 1277.28 1688.85 1281.4 1678C1291.69 1650.88 1291.36 1620.81 1306.42 1595.14C1316.47 1578 1335.49 1566.11 1349.32 1552.32C1355.12 1546.54 1392.19 1525.08 1380.8 1516.59C1376.15 1513.13 1360.39 1513.04 1354 1511.3C1333.46 1505.71 1317.36 1511.58 1297 1514.93C1272.97 1518.87 1242.3 1521.34 1218 1521.03C1199.72 1520.8 1181.69 1507.04 1162 1511.82C1141.87 1516.72 1137.69 1528.29 1156 1540M1933 1685C1923.08 1699.87 1901.55 1711.39 1888.62 1724.26C1885.32 1727.55 1875.22 1735.56 1875.85 1740.66C1876.58 1746.53 1889.81 1746.92 1894 1747.7C1908.62 1750.4 1925.06 1754.3 1940 1753.95C1944.03 1753.86 1955.03 1749.12 1958.1 1751.32C1960.71 1753.19 1958.81 1762.93 1959.05 1766C1960 1778.14 1962.33 1805.17 1977.92 1807.99C1983.32 1808.97 1988.15 1798.76 1990.49 1795C1997.17 1784.28 2001.96 1771.34 2004.6 1759C2005.57 1754.49 2006.59 1743.87 2010.74 1741.14C2014.78 1738.47 2024.92 1745.7 2029 1747.13C2041.54 1751.51 2061.31 1758.58 2074.72 1755.7C2079.47 1754.67 2080.78 1736.47 2080.96 1732C2081.93 1707.17 2083 1683.03 2083 1658C2098.58 1660.82 2116.4 1666.64 2132 1667C2124.42 1638.95 2124.92 1608 2105.68 1584.23C2098.3 1575.11 2072.4 1579.9 2069.04 1569.86C2065.04 1557.88 2076.23 1536.98 2078.55 1525C2079.16 1521.9 2083.09 1510.96 2078.5 1509.72C2070.61 1507.59 2061.93 1515.01 2056 1518.94C2040.72 1529.07 2022.54 1549.87 2003 1551.93C1995.58 1552.72 1987 1540.61 1981 1537.02C1972.9 1532.16 1963.86 1533.03 1955 1531.7C1951.2 1531.12 1943.35 1526.5 1940.02 1529.9C1936.17 1533.84 1940.24 1546.2 1940.76 1551C1942.82 1569.88 1946.78 1588.25 1949.06 1607C1949.58 1611.27 1952.64 1622.64 1949.85 1626.18C1947.25 1629.47 1937.95 1628.4 1934 1629.85C1918.5 1635.51 1903.32 1642.34 1888 1648.5C1884.52 1649.89 1869.93 1654.39 1869.32 1658.35C1868.65 1662.72 1879.97 1666.69 1883 1668.11C1896.85 1674.57 1917.78 1684.39 1933 1685M1377 1524C1361.5 1543.94 1331.61 1556.07 1313.6 1574.58C1293.3 1595.45 1290.46 1627.76 1281.94 1654C1277.31 1668.28 1268.45 1682.04 1266 1697C1237.55 1671.04 1218.87 1614.16 1213.85 1577.06C1212.78 1569.11 1206.74 1567.84 1207 1558C1204.04 1561.15 1203.92 1563.8 1204 1568C1188.05 1561.65 1178.62 1549.53 1165.91 1539.04C1160.22 1534.34 1149.82 1528.86 1147 1522C1161.29 1525.01 1179.45 1517.92 1195 1519.34C1220.63 1521.68 1242.7 1534.3 1270 1531.85C1290.83 1529.97 1308.82 1517.06 1329 1514.4C1345.48 1512.22 1361.53 1519.64 1377 1524M2076 1514C2074.94 1530.62 2057.66 1557.02 2064.29 1572.85C2068.51 1582.95 2092.18 1579.15 2100.67 1585.86C2118.18 1599.71 2125.6 1640.79 2126 1662C2113.26 1659.6 2103.16 1655.97 2090 1654.9C2087.11 1654.66 2080.57 1651.14 2078.34 1653.88C2074.57 1658.52 2078.46 1676.17 2078.86 1682C2080.03 1698.75 2081.41 1734.91 2072.2 1749.4C2070.13 1752.66 2062.19 1749.18 2059 1749.04C2046.49 1748.51 2033.39 1743.99 2022 1738.79C2018.72 1737.3 2010.39 1732.36 2006.81 1734.44C2003.41 1736.42 2002.84 1748.27 2001.68 1752C1996.75 1767.88 1994.51 1785.79 1983.05 1798.85C1976.16 1806.71 1970.02 1796.31 1967.42 1790C1961.75 1776.21 1961.44 1758.46 1964 1744C1937.92 1749.37 1906.61 1749.79 1881 1740C1889.31 1724.12 1909.99 1707.65 1924.08 1696.92C1926.47 1695.1 1941.32 1687.93 1940.36 1685.13C1938.64 1680.15 1928.14 1679.97 1924 1678.27C1909.57 1672.33 1885.17 1671.07 1875 1658C1895.68 1651.04 1914.98 1641.37 1935 1633.04C1939.51 1631.16 1951.77 1633.11 1954.37 1629.36C1957.69 1624.6 1953.15 1612.64 1953.02 1607C1952.45 1582.02 1944 1557.49 1944 1532C1958.95 1538.37 1995.97 1535.86 1994 1561C2007.51 1556.28 2025.13 1548.32 2036.56 1539.82C2049.07 1530.53 2059.93 1517.08 2076 1514M603 1519C604.884 1522.11 606.452 1523.2 610 1524C608.101 1520.98 606.438 1519.91 603 1519M1295 1519C1288.73 1532.81 1240.1 1527.95 1227 1527L1227 1524C1249.08 1521.07 1272.76 1519.74 1295 1519M1362 1531C1365.26 1529.1 1367.17 1527.3 1369 1524C1365.24 1525.44 1363.65 1527.36 1362 1531M584 1534L585 1535L584 1534M628 1723C638.523 1717.65 636.816 1693.99 637.019 1684C637.695 1650.69 640.787 1612.83 646.508 1580C648.324 1569.58 655.782 1544.76 642.919 1539.54C619.582 1530.06 588.424 1541.06 564 1538.69C558.217 1538.13 541.434 1533.44 537.26 1538.8C534.002 1542.98 535.301 1554.75 534.871 1560C533.438 1577.5 533.581 1596.91 529.738 1614C523.998 1639.53 524.644 1662.43 522.864 1688C522.295 1696.16 518.108 1710.45 527.129 1715.51C538.966 1722.15 552.574 1719.34 565 1721.46C577.157 1723.53 587.361 1728.45 599 1731.73C601.909 1732.55 619.946 1740.03 621.26 1737.42C623.361 1733.26 602.439 1727.84 600 1726.88C581.699 1719.67 564.608 1719.76 546 1715.12C540.62 1713.78 530.327 1713.19 527.402 1707.85C523.115 1700.02 528.257 1682.18 527.68 1673C526.04 1646.95 533.119 1621.84 535.655 1596.02C537.211 1580.18 534.536 1560.29 539.501 1545.16C541.578 1538.82 557.84 1541.96 563 1542.76C583.865 1545.98 603.271 1541.99 624 1542C629.86 1542 641.295 1540.85 644.48 1547.21C649.048 1556.33 641.229 1577.63 641.019 1588C640.115 1632.44 635.5 1679.4 628 1723M546 1688C562.518 1688.34 594.399 1702.76 608.971 1694.85C618.346 1689.76 615.309 1677.71 618.568 1669C627.61 1644.82 628.425 1616.79 631.096 1591C631.863 1583.6 634.967 1568.76 630.06 1562.42C620.214 1549.69 588.15 1550.88 574 1552.32C568.939 1552.83 560.664 1550.76 557.24 1555.37C549.562 1565.69 555.251 1584.26 554.823 1596C553.701 1626.84 550.06 1657.41 546 1688M496 1555L498 1558L498 1555L496 1555M606 1558C600.686 1580.46 591.836 1571.78 586 1556C593.061 1556.8 598.776 1558.64 606 1558M562.494 1557.82C582.876 1546.97 580.77 1572.97 593.088 1576.49C607.451 1580.59 609.647 1546.55 626.178 1565.66C630.819 1571.03 627.701 1584.56 627.118 1591C625.45 1609.43 624.968 1633.26 620.414 1650.92C619.39 1654.88 615.173 1656.03 614.466 1660.08C613.179 1667.48 614.805 1686.46 607.734 1690.74C600.685 1695.01 589.213 1689.72 582 1688.28C575.229 1686.93 557.045 1687.91 552.3 1682.74C548.454 1678.56 553.535 1664.76 554.576 1660C558.774 1640.8 557.478 1619.56 558.864 1600C559.46 1591.58 553.424 1562.65 562.494 1557.82M901 1595C903.047 1593.41 903.494 1592.55 904 1590C908.791 1593.82 905.302 1609.81 904.864 1616C903.012 1642.14 900.837 1670.35 895.878 1696C894.745 1701.86 886.148 1720.27 889.415 1725.18C891.875 1728.88 900.529 1726.48 904 1725.92C919.057 1723.49 931.757 1729.14 946.783 1728.9C952.267 1728.81 973.508 1735.22 976.743 1732C984.247 1724.52 980.329 1699.76 981.143 1690C984.432 1650.56 984 1610.88 984 1571C976.362 1573.69 981 1601.52 981 1609C981 1636.08 978.633 1663.29 976.104 1690C975.159 1699.98 977.712 1714.8 973.146 1723.85C970.213 1729.67 960.828 1725.54 956 1724.75C944.01 1722.79 923.562 1718.2 912 1720.51C907.986 1721.32 895.535 1725.89 893.789 1719.85C891.082 1710.5 901.109 1689.22 902.572 1679C907.753 1642.82 914.954 1602.19 916 1566C909.198 1568.85 902.46 1587.83 901 1595M139 1654C139 1633.64 137.635 1618.25 130.734 1599C129.04 1594.28 119.199 1579.82 113.779 1589.53C107.525 1600.74 114.715 1625.97 116.765 1638C117.235 1640.76 122.264 1652.66 118.4 1654.14C113.542 1655.99 112.135 1643.53 112.041 1641C111.458 1625.29 109.05 1606.86 102.23 1592.49C98.8652 1585.39 86.9461 1584.71 83 1591C93.6461 1593.59 88.9688 1608.85 91.0779 1617C98.1532 1644.35 100.85 1672.91 104 1701C132.525 1695.67 162.019 1685.65 191 1682.29C210.13 1680.07 234.328 1683 254 1683C268.666 1683 282.426 1681.79 297 1684.5C302.32 1685.49 310.459 1688.75 315.312 1684.82C321.546 1679.76 311.64 1662.2 309.92 1656C303.489 1632.81 292.425 1612 283.121 1590C278.936 1580.1 277.877 1567.82 264 1568.41C227.688 1569.93 226 1587.85 226 1620C226 1624.84 230.141 1647.36 226.491 1649.1C222.527 1651 214.429 1648.98 210 1649C203.41 1649.04 189.775 1653.25 185.306 1646.72C175.101 1631.79 205.867 1573.96 164 1581.82C138.61 1586.59 164.745 1630.63 160.987 1643.93C159.313 1649.85 144.513 1651.84 139 1654M94 1591C115.874 1600.28 93.9956 1652.87 117.007 1659.21C120.922 1660.29 124.949 1658.26 124.833 1653.94C124.442 1639.38 116.983 1624.87 116.195 1610C114.731 1582.37 124.333 1594.93 130.758 1613C132.951 1619.17 133.994 1624.44 134 1631C134.009 1641.54 134.015 1650.83 137 1661C143.79 1655.81 161.724 1655.95 164.533 1648.93C170.21 1634.74 157.344 1616.21 158.675 1601C159.096 1596.19 156.764 1588.26 163.108 1586.54C197.981 1577.14 174.402 1636.45 182.066 1649.87C186.798 1658.16 204.775 1654 213 1654C217.653 1654 229.586 1656.5 233.273 1653.7C237.365 1650.59 231.77 1639.15 231.258 1635C229.836 1623.48 224.681 1584.47 236.346 1577.6C278.546 1552.76 289.519 1613.37 300.363 1642C303.07 1649.15 316.253 1673.45 312.432 1680.39C310.052 1684.72 273.713 1679 267 1679C242.628 1679 215.986 1675.55 192 1678.27C175.676 1680.12 161.698 1688 145 1688C138.79 1688 111.112 1696.38 108.26 1693.71C103.616 1689.37 105.25 1669.25 104.922 1663C103.65 1638.73 94.0118 1615.81 94 1591M1634 1590C1628.45 1611.11 1619.9 1630.36 1613 1651C1609.37 1661.86 1607.86 1675.59 1600.86 1684.95C1591.12 1697.97 1567.56 1712.73 1554 1722.26C1544 1729.29 1534.53 1738.11 1525 1745.84C1523.38 1747.15 1516.52 1752.11 1518.54 1754.9C1520.31 1757.33 1526.72 1751.03 1528 1750.01C1537.4 1742.58 1545.72 1733.9 1555.04 1726.48C1569.49 1714.97 1597.72 1701.18 1606.26 1685C1618.76 1661.32 1619.64 1620.36 1638 1601C1635.05 1623.91 1651.68 1655.12 1659.1 1677C1662.2 1686.14 1660.73 1693.97 1668.58 1700.98C1691.29 1721.25 1729.53 1732.7 1743 1762C1732.48 1754.93 1717.87 1759.64 1706 1757.6C1678.97 1752.95 1654.76 1746.63 1627 1748.86C1609.21 1750.29 1592.81 1756.9 1574 1757C1560.89 1757.07 1543.75 1750.95 1532 1754.76C1529.4 1755.61 1519 1757.18 1519 1760.84C1519 1765.02 1529.24 1761.64 1531 1761.06C1541.72 1757.52 1559.6 1763 1572 1762.14C1609.65 1759.5 1650.32 1756.96 1688 1759.08C1709.61 1760.3 1727.03 1767.98 1749 1767C1746.09 1747.18 1722.6 1735.88 1709.13 1723.27C1694.39 1709.48 1675.24 1678.67 1670 1659C1664.25 1656.98 1661.19 1651.43 1659 1646C1662.07 1649.83 1665.03 1653.48 1667 1658C1669.2 1646.3 1653.08 1637.34 1663 1625C1663.16 1636.41 1670.66 1657.81 1680 1665C1681.23 1654.26 1667.01 1613.6 1658 1608C1658.7 1619.63 1654.07 1629.69 1655 1641C1646.76 1627.41 1645.46 1599.17 1634 1590M1657 1652C1669.44 1666.24 1691.45 1695.92 1696 1714C1673.34 1706.26 1653.65 1676.79 1657 1652M1250 1680C1253.56 1688.26 1266.97 1699.91 1259 1708C1257.11 1700.06 1246.02 1687.5 1250 1680M1664 1755C1652.49 1758.9 1633.13 1757.02 1621 1756L1621 1754C1631.89 1752.07 1653.97 1750.69 1664 1755M1740 1764C1734.57 1767.39 1728.51 1765.32 1723 1763C1728.11 1760.47 1734.74 1762.48 1740 1764M123 1851C98.6442 1842.75 78.9732 1881.77 83.7495 1902C88.8069 1923.42 112.741 1934.41 132 1935.04C137.168 1935.21 158.435 1933.16 158.359 1924.71C158.328 1921.2 153.709 1922.48 151.996 1923.49C141.229 1929.79 130.975 1934.11 118 1929.81C75.4433 1915.71 81.9438 1860.21 123 1851M229 1850C245.983 1873.07 255.172 1912.13 215 1916.76C205.051 1917.91 198.13 1914.01 189 1912C193.196 1952.99 229.156 2021.14 168 2032C173.655 1998.44 158.999 1963.33 159 1929C150.252 1934.56 152.866 1949.43 155.033 1958C161.893 1985.14 164 2012.26 164 2040C176.326 2037.39 197.205 2030.63 204.396 2019.38C212.913 2006.05 207.197 1971.76 204.423 1957C203.038 1949.63 194.325 1928.73 196.966 1922.5C198.892 1917.96 211.894 1921.19 216 1920.77C227.536 1919.6 242.248 1912.21 246.871 1901C252.617 1887.06 248.117 1850.98 229 1850M1239 1901C1236.05 1905.36 1234.18 1908.67 1234 1914C1225.6 1906.42 1214.09 1897.45 1210 1914C1191.71 1902.06 1189 1919.15 1189 1934C1189 1956.29 1200.61 2009.42 1172 2018C1179.43 1983.39 1172.56 1943.38 1176 1908C1168.17 1912.68 1167.1 1924.59 1167.01 1933C1166.78 1953.72 1168.88 1974.33 1169 1995C1169.02 1999.26 1165.89 2022.77 1170.43 2023.05C1204.24 2025.13 1193.98 1958.37 1194 1940C1194.01 1933.44 1190.24 1915.98 1198.94 1913.89C1206.26 1912.12 1205.12 1929.08 1204.92 1933C1204 1951.28 1206.95 1968.8 1207 1987C1207.01 1991.28 1205.89 2003.2 1211.24 2005.14C1214.24 2006.22 1212.01 1985.81 1212 1983C1211.95 1963.4 1207.86 1944.72 1210.34 1925C1210.94 1920.18 1212.93 1907.01 1220.05 1908.15C1230.84 1909.87 1232 1924.78 1232 1933C1232 1948.48 1226.23 1998.36 1244 2005C1244 1978.12 1239.34 1949.9 1236.33 1923C1235.62 1916.68 1238.03 1899.02 1247.9 1905.3C1255.9 1910.38 1253.84 1921.89 1254.68 1930C1256.85 1950.91 1253.67 1979.64 1262 1999C1270.99 1987.81 1263.49 1946.25 1261.77 1932C1260.94 1925.08 1255.75 1910.6 1267.08 1908.75C1277.18 1907.1 1281.76 1920.66 1283.32 1928C1286.87 1944.78 1286.2 1962.02 1288.46 1979C1289.3 1985.3 1289.44 1994.17 1296 1997C1295.16 1973.64 1285.36 1946.16 1290.35 1923C1292.45 1913.23 1304.58 1896.83 1313.83 1911.11C1318.49 1918.3 1313.28 1925.52 1313.03 1933C1312.38 1952.09 1310.49 1978.49 1326 1992C1328.8 1980.92 1325.12 1968.36 1324.99 1957C1324.91 1949.49 1324.53 1941.45 1323.67 1934C1322.97 1927.92 1319.94 1921.04 1322.1 1915.02C1326.45 1902.87 1337.43 1909.1 1341.15 1918C1348.26 1935 1348 1959.76 1348 1978C1348 1981.2 1346.66 1999 1351.92 1999C1355.55 1999 1352.36 1975.17 1352.14 1972C1350.47 1948.17 1353.68 1907.61 1337.4 1887.8C1331.18 1880.24 1309.05 1890.05 1301 1890.78C1277.2 1892.95 1249.67 1898.38 1226 1897.24C1213.98 1896.66 1202.38 1890.13 1190 1890.16C1183.2 1890.17 1158.8 1895.95 1157.32 1904.09C1156.45 1908.91 1168.88 1901.59 1170 1900.96C1190.2 1889.58 1217.5 1900.15 1239 1901M1339 1900C1334.19 1898.74 1330.04 1897.12 1325 1897C1326.23 1899.01 1326.99 1899.77 1329 1901C1321.64 1917.22 1315.74 1902.57 1305.98 1902.09C1293.21 1901.47 1289.86 1911.76 1287 1922L1285 1922C1279.13 1905.19 1269.95 1902.54 1256 1911C1254.37 1906.29 1252.22 1903.65 1248 1901C1252.97 1895.39 1263.33 1897.4 1270 1897.86C1289.71 1899.22 1312.67 1886.81 1330.95 1889.37C1336.18 1890.1 1337.72 1895.66 1339 1900M639 1941C614.999 1942.53 583.129 1947.5 560 1954.26C556.724 1955.21 536.003 1956.76 536.003 1959.02C536.003 1966.75 557.697 1960.22 561 1959.32C579.44 1954.3 599.188 1954.8 618 1951.48C625.828 1950.09 634.666 1943.92 642.852 1945.72C648.183 1946.89 650.697 1964.07 651.458 1969C653.765 1983.95 648.733 1999.87 650.32 2015C651.494 2026.19 658.202 2042.07 654.241 2053C646.241 2075.06 596.316 2056.78 579 2061.1C571.886 2062.87 550.779 2069.58 544.523 2065.39C540.811 2062.9 543.94 2055.68 543.88 2052C543.663 2038.48 539.086 2025.99 539.003 2013C538.923 2000.51 539.091 1988.39 540.552 1976C540.742 1974.39 541.67 1965.54 538.083 1966.32C534.887 1967.02 535.144 1984.92 535.04 1988C534.408 2006.85 538.29 2024.8 538.021 2043C537.959 2047.21 540.967 2058.02 536.373 2060.68C533.758 2062.19 526.662 2053.24 523.999 2051.98C510.161 2045.47 496.589 2042.29 484.344 2031.25C482.481 2029.57 475.646 2026.9 475.442 2024.3C475.032 2019.1 491.16 2006.14 494.224 2001C510.283 1974.06 535.287 1945.76 557.079 1923.01C565.329 1914.39 584.021 1904.44 584 1891C560.849 1905.31 542.149 1934.11 525.177 1955C513.808 1968.99 499.442 1982.32 490.554 1998C485.89 2006.23 470.339 2015.26 469.745 2024.82C469.271 2032.46 495.782 2045.65 502 2048.97C532.068 2065.06 558.323 2083.27 591 2094.48C596.34 2096.32 611.705 2107.38 616.04 2106.68C624.338 2105.33 640.048 2076.04 647.139 2069.47C662.014 2055.67 677.519 2042.31 691.981 2028.04C696.419 2023.66 705.296 2017.53 706.301 2011C707.947 2000.3 698.044 1985.55 691.541 1978C671.918 1955.22 645.248 1942.29 623.922 1921.85C619.058 1917.18 603.931 1892.4 598.848 1891.32C593.794 1890.25 602.704 1904.69 603.51 1905.68C614.247 1918.85 627.677 1928.63 639 1941M879 1895C883.543 1895 894.566 1892.84 898.063 1895.96C904.581 1901.76 901.581 1922.06 902.136 1930C903.618 1951.2 905 1972.73 905 1994C905 2005.54 904.008 2021.01 911.236 2030.85C921.129 2044.33 960.601 2019.38 967.499 2042.06C976.097 2070.33 962.559 2096.63 967 2123C957.287 2123 948.249 2118.13 939 2118.42C924.548 2118.86 911.923 2125.21 898 2125.92C887 2126.48 877.557 2121.68 867 2120.27C857.899 2119.04 847.906 2121.83 839 2119.74C834.991 2118.79 825.657 2115.23 823.52 2111.52C819.04 2103.75 821.561 2083.28 820.861 2074C820.074 2063.55 815.023 2048.9 823.241 2040.18C836.209 2026.43 868.068 2048.52 878.178 2030.44C882 2023.61 878.833 2008.5 878.098 2001C875.959 1979.17 873.872 1957.81 871.438 1936C870.762 1929.94 879.959 1912.9 873.419 1908.54C868.326 1905.15 866.26 1930.27 866.567 1933C869.012 1954.72 870.819 1975.32 872.417 1997C873.012 2005.07 878.178 2018.19 873.74 2025.72C865.327 2040 840.167 2025.59 828 2030.83C804.966 2040.75 816.34 2075.33 818.661 2094C819.439 2100.25 816.397 2110.03 819.693 2115.52C826.556 2126.96 845.265 2125.02 856 2125C869.255 2124.98 881.706 2129.99 895 2130C908.078 2130.01 919.785 2125 933 2125C939.83 2125 963.916 2132.24 968.469 2126.16C981.754 2108.4 978.655 2074.89 974.524 2055C973.293 2049.07 973.431 2036.29 967.734 2033.04C956.415 2026.58 918.173 2034.77 914.141 2025.93C908.226 2012.96 910.274 1995.83 909.981 1982C909.418 1955.43 910.953 1921.88 904.653 1896.03C902.338 1886.53 883.769 1888.91 879 1895M1338 1905C1336.82 1904.23 1336.77 1904.18 1336 1903C1337.64 1903.54 1337.45 1903.36 1338 1905M1318 1925C1321.97 1942.75 1322.29 1963.89 1323 1982C1314.36 1973.13 1311.16 1935.44 1318 1925M1956 2002C1969.28 1994.85 1975.86 1973 1982.14 1960C1983.66 1956.86 1985.62 1944.34 1990.77 1945.76C1996.98 1947.47 2004.36 1963.63 2007.46 1968.98C2019.61 1989.94 2029.68 2013.93 2045.35 2032.22C2047.86 2035.14 2057.29 2058.53 2059.3 2057.38C2065.65 2053.71 2050.29 2030.63 2047.38 2027.14C2031.19 2007.66 2020.94 1980.89 2007.52 1959C2004.15 1953.51 1996.04 1937.64 1987.59 1939.35C1982.1 1940.45 1972.05 1969.38 1969.25 1975C1965.15 1983.22 1957.08 1993.02 1956 2002M660 2051C655.169 2016.61 654.37 1981.94 651 1948C668.15 1954.79 706.749 1989.33 700.964 2011C697.2 2025.1 671.412 2042.57 660 2051M1686 2016L1688 2016C1688.05 2007.55 1691.26 2003.04 1698 1998C1698.65 2008.9 1697.68 2017.36 1695 2028C1685.45 2008.35 1696.4 2049.04 1690 2057C1684.5 2045.59 1670.79 2038.15 1662.37 2028.86C1654.61 2020.3 1636.23 1981.1 1618.48 1990.34C1611.69 1993.87 1609.37 2003.12 1605.53 2009.14C1602.77 2013.47 1599.08 2018.96 1597.92 2024C1594.26 2039.9 1616.06 2055.7 1612 2075C1590.73 2061.38 1572.39 2045.64 1548 2054.93C1543.66 2056.59 1520.07 2065.08 1523.41 2071.41C1536.63 2096.46 1588.49 2088.77 1596.36 2120.88C1597.83 2126.88 1584.64 2129.15 1581.05 2131.02C1574.25 2134.57 1565.84 2148.67 1564 2156C1582.1 2147.68 1579.91 2171.48 1593.09 2170.73C1608.05 2169.87 1629.08 2150.28 1643 2144C1637.32 2154.36 1633.36 2171.22 1631 2183C1638.49 2181.06 1653.76 2144.52 1644.69 2140.97C1632.64 2136.24 1602.49 2160.35 1592 2166C1590.47 2161.28 1573.65 2147.69 1575.32 2145.14C1578.73 2139.95 1603.49 2157.22 1604.91 2152.44C1607.75 2142.88 1580.74 2146.45 1582.08 2138.06C1583.24 2130.84 1605.02 2129.81 1602.6 2120.88C1593.24 2086.35 1542.73 2096.72 1531.32 2070.76C1528.96 2065.38 1560.11 2054.03 1565 2053.73C1571.47 2053.32 1577.58 2060.58 1582.32 2064.14C1592.86 2072.05 1605.13 2076.55 1616 2084C1620.24 2071.75 1618.1 2056.61 1612.56 2045C1609.92 2039.47 1603.29 2033.43 1603.53 2027C1603.98 2014.43 1619.45 2006.88 1624 1996C1633 2004.58 1637.67 2017.39 1646.69 2026.44C1652.84 2032.62 1658.83 2038.98 1664.94 2045.21C1669.1 2049.45 1688.91 2068.24 1695.12 2063.97C1702.78 2058.7 1697.52 2041.62 1698.14 2034C1700.2 2008.76 1700.95 1980.81 1728 1970C1726.11 1988.46 1720.06 2006.43 1719.08 2025C1718.93 2027.84 1717.37 2042.36 1722.01 2042.36C1726 2042.36 1732.32 2031.78 1734.9 2029.06C1745.37 2018.01 1757.53 2000.26 1770 1992C1770.17 2000.07 1781.52 2023.7 1777.13 2029.32C1768.23 2040.72 1749.06 2050.03 1737 2057.93C1733.98 2059.91 1724 2063.91 1724 2068.11C1724 2073.76 1739.87 2078.26 1744 2080.84C1766.82 2095.11 1779.13 2100.13 1797 2074C1798.95 2081.1 1803.02 2120.93 1797.5 2124.96C1789.54 2130.78 1761.55 2122.84 1753 2119.74C1748.74 2118.2 1721.11 2101.93 1719.86 2105.41C1718.85 2108.23 1733.29 2119.49 1735.32 2123C1742.88 2136.12 1767.07 2148.75 1767.18 2165C1767.23 2171.26 1762.23 2177.33 1760 2183C1768.86 2181.72 1774.34 2168.88 1771.29 2161C1764.9 2144.46 1747.29 2131.36 1737 2117C1754.34 2123.76 1767.11 2128.1 1786 2129.78C1789.69 2130.11 1800.86 2131.84 1803.18 2128.18C1808.23 2120.19 1801.83 2100.31 1802.02 2091C1802.13 2085.4 1805.73 2068.06 1803.41 2063.87C1801.38 2060.21 1789 2069.98 1787 2072C1789.75 2071.71 1792.31 2070.69 1795 2070C1777.31 2089.5 1769.18 2092.74 1747.32 2077.76C1744.24 2075.65 1732.64 2072.24 1732.64 2067.86C1732.64 2064.09 1743.2 2060.32 1746 2058.79C1756.26 2053.21 1774.08 2041.63 1781.18 2032.5C1787.09 2024.89 1777.82 2013.63 1776.42 2006C1775.52 2001.11 1776.72 1989.23 1771.19 1986.54C1767.41 1984.71 1760.5 1994.66 1758.45 1997C1749.12 2007.65 1735.76 2027.47 1722 2032C1732.27 2010.48 1726.67 1985.28 1736 1964C1712.89 1964.91 1683.74 1994.27 1686 2016M1682 1985C1683.47 1991.83 1702.41 1990.49 1682 1985M1239 1986L1239 1989L1237 1989L1237 1986L1239 1986M1621 1995C1619.82 1994.23 1619.77 1994.18 1619 1993C1620.64 1993.55 1620.45 1993.36 1621 1995M1634 2000C1643.69 2006.71 1651.9 2014.94 1654 2027C1646.89 2023.32 1632.32 2008.56 1634 2000M1954 2003C1943.11 2017.58 1931.91 2028.77 1924.77 2046C1922.74 2050.9 1919.13 2061.69 1924.69 2065.74C1933.63 2072.26 1952.8 2058.99 1960.3 2073.35C1970.73 2093.3 1950.92 2118 1971 2133.34C1978.05 2138.73 1982.25 2142.35 1990.81 2137.06C2007.87 2126.51 1985.01 2091.48 1994.05 2077.28C1998.23 2070.71 2029.37 2073.12 2038.32 2068.77C2040.23 2067.84 2050.58 2065.69 2049.24 2062.44C2046.9 2056.78 2027.1 2067.92 2023 2068.67C2015.12 2070.12 1994.3 2066.54 1989.27 2073.68C1983.34 2082.09 1991.9 2110.63 1991.99 2121C1992.05 2127.1 1990.64 2136.61 1982 2134.83C1948.59 2127.93 1979.62 2085 1964.17 2067.74C1957.08 2059.81 1925.88 2063.69 1926.42 2055.97C1927.79 2036.39 1957.41 2018.97 1956 2003L1954 2003M1663 2035C1665.36 2037.17 1666.71 2039.07 1668 2042C1665.4 2039.93 1663.44 2038.36 1663 2035M1670.67 2043.67C1670.72 2043.72 1670.78 2044.78 1670.33 2044.33C1670.28 2044.28 1670.22 2043.22 1670.67 2043.67M1675 2047.33C1675.77 2047.33 1675.16 2047.83 1674.67 2047.67L1675 2047.33M640 2067C638.008 2073.74 622.509 2095.96 615.74 2098.4C611.309 2099.99 602.173 2094.04 598 2092.28C584.177 2086.45 558.443 2086.2 552 2070C581.642 2067.36 609.717 2067 640 2067M1577 2083L1578 2084L1577 2083M1577 2085L1579 2089L1580 2088L1577 2085M1683 2142C1681.23 2149.5 1668.61 2181.15 1681 2183C1680.54 2171.26 1684.55 2160.72 1683 2149C1696.63 2159.36 1711.44 2182.79 1730 2183C1717 2170.3 1698.38 2151.11 1683 2142z"/>
</svg>
