<?xml version="1.0" standalone="yes"?>
<svg xmlns="http://www.w3.org/2000/svg" width="2200" height="2200">
<path style="fill:#111111; stroke:none;" d="M166 88C157.464 100.048 162.764 55.0627 161.706 55.6248C149.706 62.002 160.451 86.896 154.585 94.0342C152.611 96.4363 149.271 92.6182 146.987 93.73C144.856 94.7676 146.146 98.7583 143.62 100.222C135.794 104.758 126.449 105.77 119 111.601C93.3413 131.687 75.2312 176.076 86.4812 208C99.4181 244.711 156.627 270.197 194 270.443C211.373 270.557 227.349 262.136 241 252.181C293.131 214.163 295.776 155.322 252.763 108.019C229.686 82.6411 194.336 95.4565 166 88M1713 126C1714.89 125.456 1716.24 124.904 1718 124C1719.6 129.992 1723.14 134.596 1726 140C1687.51 140 1649.39 142.581 1611 143.96C1605.87 144.145 1576.27 148.649 1576.85 140.852C1577.45 132.626 1587.53 124.667 1592.56 119C1606.9 102.838 1643.29 77.1455 1648 56C1626.58 71.2637 1609.68 95.5225 1591.65 114.562C1582.75 123.953 1571.33 133.076 1571 147C1567.64 144.514 1567.67 142.002 1568 138C1558.34 142.436 1562.5 168.556 1561.7 178C1558.16 219.822 1557 262.008 1557 304C1561.55 296.099 1560.46 282.074 1561.35 273C1564.07 245.622 1563.94 217.524 1565.86 190C1566.55 180.155 1563.45 161.342 1569.86 153.325C1575.6 146.139 1598.95 149.264 1608 148.32C1646.56 144.297 1689.27 151.094 1727 143C1731.13 164.451 1728.25 184.475 1728.01 206C1727.95 211.122 1730.48 225.285 1726.18 228.858C1720.45 233.616 1694.62 235.361 1687 235.069C1684.34 234.968 1674.25 232.796 1673.03 235.62C1668.36 246.469 1671 273.668 1671 286C1671 291.213 1673.01 301.1 1666.85 303.436C1642.48 312.687 1606.94 303.865 1581 306.682C1576.46 307.176 1556.66 304.989 1554.54 308.622C1552.27 312.524 1562.47 311.998 1564 312C1574.78 312.014 1585.29 310.126 1596 310.007C1628.84 309.643 1660.8 306.747 1693 303.321C1702.07 302.356 1717.28 305.953 1725.4 302.701C1728.16 301.599 1727.3 291.753 1727.75 289C1729.49 278.337 1724.69 242.034 1739 241C1726.8 223.049 1734.55 201.053 1734.98 180C1735.57 150.814 1729.73 125.918 1710.38 102.783C1699.23 89.4624 1688.41 73.4062 1673 64.7202C1670.98 63.5803 1655 53.9158 1655 58.0293C1655.01 62.9209 1674.16 70.3391 1678 73.377C1693.16 85.3938 1712.41 105.557 1713 126M153 112L154 103C161.528 106.135 168.138 103.344 175 108C173.908 104.26 169.272 99.1379 171.451 95.2437C174.001 90.6846 181.677 91.9751 186 92.0027C200.411 92.0945 218.123 93.7756 232 98.0181C255.357 105.158 277.738 142.729 278.922 166C281.35 213.698 249.232 261.51 198 265.78C181.543 267.151 156.914 258.136 141.864 251.748C124.345 244.313 103.975 234.91 94.9246 216.864C82.0158 191.124 88.2867 151.035 106.582 129.078C112.05 122.516 139.435 94.4111 150.101 102.455C152.181 104.023 151.001 109.472 153 112M1667 98.9487C1657.33 102.196 1647.64 126.396 1663 121.746C1675.15 118.07 1685.33 92.7944 1667 98.9487M1667.05 102.53C1681.62 98.8462 1671.14 116.29 1662.16 117.668C1654.75 118.803 1661.9 103.833 1667.05 102.53M207 117C207.7 121.964 210.325 123.687 215 125C213.901 120.388 211.435 118.44 207 117M1163 122C1173.94 128.927 1166.92 155.837 1165.44 169C1160.25 215.078 1158 260.643 1158 307C1168.81 296.739 1161.16 268.074 1161.16 255C1161.16 212.082 1169.38 166.376 1175 124C1200.4 140.646 1225.52 158.308 1249.98 176.268C1254.93 179.9 1273 184.847 1274.18 190.567C1281.47 225.832 1264.34 263.667 1263.99 295C1263.92 301.785 1255.63 325.146 1261.07 329.894C1263.5 332.012 1268.39 303.089 1268.78 299C1271.57 270.226 1277.84 240.939 1278 212C1278.03 206.228 1282.76 192.595 1281.11 188.31C1278.51 181.575 1262.78 179.707 1257 175.815C1236.27 161.85 1196.44 144.072 1184 122C1235.29 122 1286.64 123 1338 123C1357.97 123 1382.73 127.273 1402 124C1394.52 112.813 1357.43 119 1345 119C1309.36 119 1273.62 121.155 1238 119.96C1213.15 119.125 1187.45 114.947 1163 122M141 129C144.239 115.91 132.068 121.94 141 129M464 236C474.341 238.802 491.432 217.539 499 211.249C522.208 191.96 544.883 171.655 570.864 156.103C579.113 151.165 587.49 143.016 597 141C590.275 157.35 584.854 179.218 588 197C597.479 183.576 593.347 157.911 600.462 142.022C611.252 117.925 672.207 114.463 652.678 155C626.591 209.148 571.701 252.242 524 286.512C515.107 292.902 475.378 319.4 465.449 305.697C458.559 296.189 453.945 269.74 461.424 260C467.522 252.058 481.519 245.515 483 235C463.499 249.566 451.932 261.222 441.887 284C438.422 291.857 434.169 305.394 444.051 310.616C450.379 313.96 461.026 312 468 312C501.421 312 536.126 286.616 561 265.519C593.486 237.966 630.879 204.331 651.744 166.96C659.024 153.921 670.721 125.651 647.992 119.564C631.089 115.037 609.193 129.778 594.981 137.119C545.8 162.524 507.014 202.235 464 236M188.501 128.297C185.997 129.988 188.043 132.678 190.542 131.262C193.449 129.617 191.125 126.524 188.501 128.297M1316 178L1321 177C1317.9 227.521 1309.79 278.457 1308 329C1317.02 325.394 1316.1 301.919 1317.58 293C1323.69 256.33 1316.4 215.45 1326.3 180.001C1332.33 158.374 1383.62 145.348 1402 135C1405.91 182.686 1399.03 236.43 1394.1 284C1392.68 297.687 1397.77 322.246 1386.92 333.273C1380.46 339.835 1345.71 326.395 1337 324.981C1334.37 324.553 1323.7 320.134 1322.11 323.548C1320.7 326.544 1335.99 329.604 1338 329.992C1352.92 332.861 1366.88 336.687 1382 339.417C1385.75 340.094 1392.94 344.359 1396.43 342.528C1399.88 340.717 1392.61 335.361 1393.07 331.971C1394.91 318.541 1401.59 305.434 1403 292C1399.34 294.265 1397.73 297.108 1396 301C1393.59 285.543 1399.67 264.874 1400.87 249C1403.55 213.382 1393.55 160.203 1411 129C1402.85 127.365 1396.18 133.371 1389 136.737C1371.13 145.116 1353.04 154.06 1336 164.038C1329.53 167.829 1319 170.678 1316 178M921 131.597C899.211 136.081 904.676 154.364 903.742 171C902.73 189.031 898.203 209.615 888.463 225C880.383 237.763 866.739 237.722 854.04 243.31C840.101 249.443 826.726 261.421 818.18 274C806.593 291.054 812.832 313.396 832 322.139C856.272 333.211 882.458 331.482 908 326.588C972.27 314.275 978.387 260.823 979.008 205C979.191 188.506 990.506 156.166 972.914 145.24C964.116 139.775 951.773 140.422 942 138.054C934.321 136.194 929.372 129.874 921 131.597M232 132C219.13 132.198 228.379 140.11 232 132M927 135C922.867 138.783 917.727 140.706 914 145C928.526 141.792 962.261 136.801 973.812 151.287C984.251 164.378 975.977 201.072 974.32 217C972.289 236.528 975.506 257.215 968.017 276C950.875 318.991 893.728 333.457 851 324.276C801.292 313.595 815.521 268.994 851 248.65C864.015 241.187 881.553 241.653 891.004 228.981C899.358 217.78 903.728 202.618 906.073 189C907.554 180.4 906.026 169.973 914.584 164.571C919.514 161.46 924.148 168.62 929 169.451C934.703 170.428 939.456 166.231 945 166.42C950.704 166.615 954.612 171.67 960 172.809C961.745 173.178 973.497 173.012 973.919 171.218C975.19 165.813 961.205 169.398 959 168.616C944.336 163.416 933.848 163.374 919 160.317C915.749 159.648 910.738 165.006 908.262 162.895C896.215 152.623 917.405 135.128 927 135M164.479 140.19C161.883 141.007 164.184 144.043 166.321 143.063C168.554 142.041 166.304 139.617 164.479 140.19M129.877 141.533C127.463 143.021 130.852 147.462 133.024 145.604C134.932 143.97 131.94 140.261 129.877 141.533M634 163C645.366 156.93 634.552 149.749 634 163M1571 156C1573.22 156.136 1574.05 156.03 1576 155C1573.69 154.767 1572.99 154.84 1571 156M164 162C159.838 153.624 157.396 161.265 164 162M243 158C243.842 161.658 244.96 163.768 248 166C248.56 161.558 247.147 159.584 243 158M200 159C200.595 163.013 202.064 163.707 206 164C204.273 161.296 203.003 160.13 200 159M138 161C138.689 164.188 139.627 165.762 142 168C142.657 164.02 142.026 162.07 138 161M234.821 163.378C232.706 164.999 234.74 168.746 236.781 166.7C238.22 165.259 236.902 161.782 234.821 163.378M545 243C550.185 238.402 548.799 227.471 549.564 221C551.987 200.517 562.265 182.63 565 163C558.084 165.701 556.517 174.656 553.862 181C545.409 201.201 544.802 221.508 545 243M189 166C191.166 168.573 192.83 169.881 196 171C194.984 166.863 193.244 165.601 189 166M1615 171.52C1598.31 174.123 1596.12 216.166 1615 212.613C1626.25 210.495 1626.97 169.652 1615 171.52M1666 210C1678.69 209.55 1691.4 208.677 1704 207C1701.55 198.369 1695.76 180.267 1709 179C1706 175.347 1700.48 174.987 1696 174.04C1665.84 167.67 1674.08 189.427 1666 210M122.281 176.282C118.843 177.113 121.734 180.988 124.462 179.995C127.393 178.928 124.573 175.728 122.281 176.282M1612.25 175.891C1620.01 172.725 1622.83 205.768 1615.79 208.665C1600.96 214.767 1605.78 178.537 1612.25 175.891M1681.15 177.042C1699.99 173.062 1705.25 201.793 1692.93 204.635C1689.1 205.517 1678.15 206.569 1675.38 203.178C1671.55 198.484 1674.79 178.386 1681.15 177.042M244 194C254.014 190.644 243.786 168.21 244 194M615.802 184.404C613.978 185.862 614.79 191.003 617.198 188.905C618.858 187.46 618.38 182.343 615.802 184.404M155 191C147.064 181.815 136.62 195.722 155 191M1962 189C1942.74 200.123 1942.59 222.471 1927 236C1929.98 226.717 1937.01 218.322 1939 209C1929.07 214.98 1926.29 228.776 1917 236C1917.09 226.867 1922.23 221.359 1924 213C1901.62 220.599 1912.89 248.423 1909 263.647C1906.85 272.069 1876.11 264.501 1879.69 279.017C1883.46 294.324 1909.3 299.602 1922 302.947C1955.42 311.747 2027.21 323.39 2046.44 281.526C2051.22 271.135 2037.14 254.932 2027.94 250.274C2025.42 248.999 2013.43 249.81 2013.43 245.909C2013.43 238.995 2035.34 243.725 2038 237C2019.81 237.227 2008.04 245 1991 245L1994 240C1992.55 240.251 1973.27 246.382 1975.64 241.214C1978.87 234.189 1997.25 239.437 2002 239.346C2010.28 239.189 2023.1 229.87 2027 223C2013.96 217.844 1995.54 231.422 1981 236C1986.07 230.747 1989.8 229.426 1997 230C1994.23 214.406 2004.01 220.094 2009 208C1995.37 210.943 1992.59 223.753 1981.87 228.677C1976.58 231.108 1981.81 222.349 1984 221C1982.89 218.869 1981.82 217.571 1980 216C1982.69 214.229 1982.93 213.193 1983 210C1962.69 216.013 1956.84 247.275 1933 248C1945.88 227.718 1967.98 210.349 1979 190C1966.79 197.268 1959.31 208.743 1949 218C1951.6 209.758 1962.74 197.076 1962 189M162.373 191.76C159.578 192.931 162.551 198.375 165.051 197.24C167.339 196.201 164.811 190.739 162.373 191.76M1956 196C1949.2 211.471 1933.77 232.585 1932 249L1926 250C1931.03 231.833 1943.95 211.944 1954 196L1956 196M206 200C207.77 207.304 213.187 202.769 206 200M180 214C184.556 211.194 187.674 210.138 193 211C189.422 202.396 182.176 207.277 180 214M493 284C501.054 275.725 495.237 240.887 499.412 228C500.242 225.44 509.237 213.875 507.116 212.943C500.849 210.192 496.532 224.236 495.45 228C489.907 247.289 491.827 264.414 493 284M110.107 214.22C105.556 214.341 108.542 219.483 111.738 219.593C115.852 219.735 113.413 214.132 110.107 214.22M239 221C244.174 212.753 234.482 214.705 239 221M139 216C139.741 218.177 140.103 218.723 142 220C141.259 217.823 140.897 217.277 139 216M588 216C583.459 218.33 579.892 219.316 581 225C584.205 222.685 588.191 220.294 588 216M1974 221C1975.19 236.999 1970.21 244.988 1951 245C1953.47 238.856 1968.13 224.536 1974 221M2023 223C2019.5 227.974 2013.76 231.27 2008 233C2009.67 225.599 2016 223.386 2023 223M227 231C217.372 230.173 223.293 239.057 227 231M1915 232C1916.75 238.573 1916.81 244.47 1911 249C1911 243.098 1910.63 237.511 1913 232L1915 232M1676 276C1694.8 281.29 1664.49 248 1681.28 239.478C1686.57 236.794 1724.44 231.864 1727.17 237.468C1730.59 244.484 1724.68 260.191 1724.14 268C1723.64 275.165 1726.34 291.16 1720.75 296.748C1717.74 299.759 1679.86 303.677 1677.38 301.06C1673.06 296.488 1675.98 281.858 1676 276M1925 235C1924.58 238.67 1918.6 263.127 1913.69 261.123C1908.3 258.924 1921.52 237.082 1925 235M181 238C181.814 241.259 182.741 242.186 186 243C185.186 239.74 184.26 238.814 181 238M2030 247L2030 250C2043.86 251.292 2054.29 255.732 2064 243C2051.03 245.585 2043.72 247.486 2030 247M1959 250C1956.63 251.047 1954.35 252.11 1952.22 253.615C1935.71 265.295 1947.61 241.27 1959 250M2015 252C2003.12 267.919 1978.27 280.622 1976 302C1968.87 298.781 1963.79 295.223 1958 290C1958.08 299.816 1970.2 302.775 1978 305C1978.06 298.09 1997.58 266.941 2001 280C2010.81 268.823 2013.59 243.555 2032 259C2026.03 265.385 2005.89 290.084 1999 291C2000.98 295.515 2004.12 299.036 2007 303C1984.59 307.393 1965.56 308.215 1943 304.599C1931.63 302.777 1920.17 294.852 1930 283C1933.51 289.247 1936.46 294.51 1943 298C1941.05 291.919 1939.01 287.551 1939 281C1948.28 279.577 1942.13 256.162 1951 278C1965.49 256.763 1968.95 267.673 1967 289C1974.75 283.747 1977.92 265.513 1983 257C1978.34 259.712 1975.47 264.142 1971 267C1970.95 263.661 1967.08 256.671 1968.4 254.243C1975.11 241.957 2004.95 248.483 2015 252M1962.49 252.444C1967.38 253.565 1953.33 269.042 1951.29 268.677C1943.05 267.211 1955.7 250.888 1962.49 252.444M1983 276C1985.19 273.448 1995.86 254.437 1993.2 252.625C1988.39 249.353 1982.38 272.647 1983 276M1939 259C1936.54 258.713 1934.46 258.695 1932 259C1942.12 274.219 1920.66 279.037 1923 298C1917.09 296.928 1912.01 293.713 1906 293.044C1900.75 292.459 1877.6 281.551 1887.61 274.5C1894.4 269.716 1905.41 272.711 1912.98 268.116C1919.83 263.959 1923.73 255.388 1931.91 253.266C1936.13 252.173 1937.75 255.695 1939 259M537 261C541.143 260.263 544.775 258.237 549 258C547.003 250.337 539.838 257.155 537 261M1606 253C1604.66 264.928 1603.3 282.018 1599 293C1620.85 297.791 1627.51 295.821 1628.02 273C1628.1 269.547 1631.06 262.004 1628.7 259.182C1625.2 254.999 1611.55 256.067 1606 253M1617.77 260.456C1627.91 259.802 1626.81 291.788 1618.83 292.477C1600.71 294.04 1601.56 261.502 1617.77 260.456M2031.5 262.841C2040.25 258.945 2042.16 271.24 2040.07 276.852C2037.72 283.172 2023.12 296.571 2015.86 298.958C2010.23 300.81 2005.75 295.692 2008.26 290.338C2011.75 282.889 2023.69 266.317 2031.5 262.841M455 269C455 283.519 459.043 295.118 462 309C456.679 307.62 448.482 309.9 444.604 305.626C437.583 297.888 446.283 272.653 455 269M1908.74 275.328C1905.13 275.22 1902.18 280.269 1907.09 280.355C1910.29 280.411 1912.93 275.454 1908.74 275.328M502 283C505.705 281.086 508.889 280.446 513 280C509.203 274.75 501.775 275.946 502 283M1934 278L1935 282C1933.02 280.612 1932.85 280.142 1934 278M1169 301C1178.36 298.609 1201.29 320.264 1211 325.748C1218.72 330.106 1226.45 334.093 1235 336.55C1239.23 337.766 1270.36 343.609 1270.36 341.754C1270.36 333.942 1251.68 335.357 1247 334.407C1217.2 328.353 1200.98 307.866 1175.97 294.969C1171.26 292.54 1169.49 297.285 1169 301M426 312C430.426 319.479 436.201 310.98 426 312M419 619C417.115 603.661 429.602 563.639 441 553C440.269 559.958 435.754 592.242 444 594C442.57 535.393 470.978 482.756 521 448.802C555.308 425.514 606.707 423.501 634.281 458.217C676.972 511.966 639.929 589.779 642 649C647.604 644.709 645.445 631.765 646.632 625C650.68 601.935 655.978 580.816 656 557C656.032 522.372 658.874 487.819 639.235 457.001C628.348 439.916 610.654 433.177 592 429.738C529.083 418.136 482.904 471.197 453.487 521C440.073 543.711 429.208 567.049 420.716 592C418.156 599.523 410.836 613.109 419 619M1257 450C1264.43 455.935 1276.45 480.089 1272.31 489.863C1268.72 498.37 1258.47 501.267 1256 511C1262.39 505.198 1267.77 498.216 1275 493.369C1279 490.689 1283.44 488.458 1288 486.906C1324.69 474.424 1316.04 550.045 1285 545C1282.87 560.409 1257.5 553.438 1250.1 546.631C1238.22 535.707 1241.67 521.051 1243 507C1229 519.009 1242.89 538.449 1245.35 551C1247.25 560.654 1242.6 580.105 1240.5 590C1236.6 608.401 1234.22 628.318 1227.07 646C1221.5 659.797 1211.32 671.946 1206.54 686.04C1203.53 694.906 1204.22 709.378 1216 710.852C1230.77 712.699 1241.96 706.543 1251.71 695.764C1253.94 693.307 1261.01 677.893 1263.14 678.199C1276.94 680.18 1276.87 716.703 1296 710.676C1310.25 706.186 1311 687.958 1311 676C1311 661.02 1311.03 646.396 1306.21 632C1301.5 617.941 1290.48 595.078 1293.8 580.048C1295.19 573.772 1302.78 576.771 1307 577.66C1325.34 581.523 1376.26 579.983 1336 561.723C1330.98 559.444 1325.95 557.198 1321 554.752C1313.65 551.119 1306.31 547.332 1298 547C1315.8 521.961 1327.22 500.625 1297 481C1309.32 471.798 1319.3 459.528 1328 447C1328.66 455.034 1319.52 488.944 1326.96 493.456C1331.18 496.013 1330.07 481.687 1330.22 480C1331.57 464.666 1333.71 449.404 1334 434C1314.23 442.592 1307.71 484.819 1280.77 485.585C1268.85 485.925 1272.18 440.414 1257.09 446.323C1244.67 451.185 1247.85 485.464 1246.96 496C1246.74 498.597 1244.24 511.997 1249.18 511.997C1252.87 511.997 1250.96 499.412 1251.08 497C1251.88 481.147 1252.79 465.371 1257 450M286 457C273.357 450.161 278.389 429.908 257 439.308C223.363 454.09 236.731 493.962 219.625 519.856C212.271 530.988 194.703 537.618 184 545.288C165.136 558.805 149.582 574.642 134.363 592C129.171 597.922 106.94 633.532 128.003 632.593C143.811 631.889 142.709 613.226 147.909 603C155.266 588.533 169.748 575.843 183 566.788C200.389 554.906 224.6 547.247 238.503 530.979C252.243 514.901 247.59 494.415 257.933 477.001C264.999 465.104 277.978 466.051 286 457M527 488C524.829 477.882 533.72 454.849 526 448C522.615 461.168 526.608 477.685 522.942 489.861C520.104 499.29 494.805 522.154 486 527C487.714 514.073 486.79 500.988 488 488C476.202 492.507 485.082 519.686 483.576 529.96C482.227 539.157 470.463 550.921 465.57 559C454.296 577.618 454.943 615.954 427 616C436.384 636.378 455.234 597.46 457.173 590C457.888 587.252 458.509 580.76 461.596 579.565C466.442 577.691 473.762 588.822 479 590C475.747 583.845 468.552 579.45 466.22 572.96C462.994 563.983 477.723 545.438 484 540C486.286 549.272 496.642 557.5 496.694 568C496.815 592.042 466.956 598.986 462 616C481.638 614.524 493.141 588.801 499.61 573C508.603 551.035 527.558 526.633 552 520.699C572.312 515.768 599.293 539.114 598.881 559C598.726 566.46 588.648 569.406 588.643 571.257C588.636 574.179 594.221 573.939 596 574C590.285 590.184 580.406 607.46 580 625C583.895 621.759 584.233 615.924 588.355 612.94C608.272 598.519 606.032 631.535 606 639C615.545 629.905 613.737 616.911 615.478 605C618.868 581.813 624.092 557.874 629 535L633 537C629.958 522.664 645.206 517.547 648 505C639.688 508.519 635.081 518.786 629 525C627.957 512.836 613.07 499.863 613.386 490C613.792 477.359 630.621 466.926 625 453C619.149 459.832 617.645 485.572 608.363 488.136C604.03 489.333 592.937 478.113 589 475.667C583.25 472.097 573.309 473.435 568.824 469.74C562.152 464.244 569.948 442.762 573 437C555.394 439.315 569.487 461.395 561.858 469.695C555.592 476.513 535.741 482.274 527 488M279 458C243.36 465.351 254.088 505.462 236.341 526.992C216.304 551.299 180.347 558.749 158.399 582.147C146.921 594.383 144.541 606.944 137.285 620.956C135.54 624.327 129.982 629.981 125.693 627.453C121.302 624.866 124.899 616.498 126.062 613C130.883 598.496 143.346 587.633 152.698 576.043C171.303 552.986 206.275 545.049 222.982 521.992C239.504 499.19 228.418 468.67 248.758 449.397C263.415 435.511 274.14 440.614 279 458M596 442C590.639 451.527 592.646 466.205 592 477C600.291 471.928 597.987 451.032 598 442L596 442M995 503C1003.47 550.873 994.525 607.191 990 655C1006.72 642.089 996.643 595.474 997.019 577C997.47 554.763 1000.53 530.735 1004.23 509C1005.62 500.847 1009.03 486.975 1002.63 480.266C995.847 473.139 980.043 475.476 971 474.865C940.633 472.811 904.995 471.024 875 474.564C870.721 475.069 836.003 475.297 836.003 479C836.003 481.932 844.308 480.999 846 481C857.5 481.004 868.576 479.646 880 479.078C889.559 478.603 898.323 481.427 908 480.313C924.747 478.384 940.373 479.808 957 479.993C968.07 480.115 986.495 477.339 996.535 482.284C1004.77 486.342 1004.84 501.679 995 503M525 533C518.645 525.568 529.769 506.87 520 503C521.029 510.852 522.499 529.634 519.381 536.661C515.046 546.433 504.519 551.898 501 563L499 563C496.488 554.898 488.118 544.131 487.889 536C487.496 522.022 518.018 499.996 528 492.337C532.672 488.752 555.259 470.239 561.711 476.345C564.836 479.302 558.111 488.867 556.997 492C554.616 498.698 553.437 512.021 549.061 517.265C543.695 523.697 531.572 526.69 525 533M611 613C602.513 610.238 596.286 606.33 587 606C592.824 588.567 594.45 574.999 614 577C611.04 572.792 604.855 573.824 602.356 570.186C600.198 567.045 603.128 558.893 602.863 555C601.852 540.163 596.049 525.023 617 521C607.511 513.89 603.573 531.05 596.517 532.914C590.268 534.565 572.5 519.287 565 517.144C561.976 516.28 556.464 517.735 554.319 514.95C547.856 506.558 567.037 473.161 578.04 475.527C586.153 477.271 594.5 483.953 600.68 489.222C606.142 493.88 613.805 497.96 617.603 504.214C638.196 538.128 611.001 577.925 611 613M1625 480C1622.99 483.036 1621.66 483.99 1618 484C1616.59 492.58 1610.63 519.63 1604.33 525.061C1596.12 532.151 1577.89 524.842 1574.7 538.137C1572.53 547.191 1574.65 557.709 1573.68 567C1570.57 596.831 1564.48 628.617 1572.99 658C1577.08 672.09 1610.26 682.122 1619.58 667.742C1625.23 659.022 1621.04 644.849 1622.48 635C1625.88 611.747 1626.49 589.316 1628.14 566C1628.93 554.843 1633.23 541.155 1630.63 530.108C1628.74 522.059 1615.7 528.267 1614.98 521.716C1613.43 507.74 1625.42 493.296 1627 480L1625 480M818.616 482.544C813.21 486.086 819.741 510.3 819.96 516C821.282 550.507 825.872 587.558 822.496 621.922C822.114 625.814 822.017 656.938 824.541 655.894C830.098 653.595 827 628.253 827 623C827 587.714 825.888 552.292 824.979 517C824.875 512.971 820.934 481.025 818.616 482.544M2044 674C2050.67 671.081 2050.39 659.451 2050.86 653C2052.28 633.613 2050.88 612.036 2055.27 593.068C2057.36 583.995 2066.13 589.368 2067 596C2077.11 591.997 2069.98 568.179 2068 582C2062.1 577.956 2062.59 576.052 2057 582C2058.92 561.717 2058.9 525.175 2068.82 507.52C2071.35 503.025 2078.79 507.929 2082.72 505.699C2092.12 500.377 2095 483.607 2095 508C2103.78 506.227 2137.13 504.622 2144.4 510.076C2151.51 515.401 2149.72 535.486 2147.68 542.89C2145.34 551.318 2129.71 550.135 2132.49 562.93C2134.42 571.809 2141.57 563.957 2145 561C2141.93 578.317 2136.65 596.455 2136.04 614C2135.59 627.087 2137.52 647.31 2127.49 657.552C2115.02 670.298 2084.9 673.197 2068 675.094C2064.83 675.45 2049 677.582 2049 681.86C2049 685.925 2066.49 679.408 2069 679.066C2086.83 676.633 2116.8 674.12 2130.5 661.414C2141.63 651.077 2139.19 633.4 2140.14 620C2142.47 587.074 2162.31 545.339 2152.49 513.001C2147.4 496.238 2115.58 505.453 2101.5 499.859C2096.43 497.842 2099.35 487.461 2091.88 486.867C2084.78 486.301 2084.64 497.905 2079.5 500.584C2074.55 503.162 2067.05 493.548 2064.03 499.313C2057.3 512.213 2058.73 538.219 2056.94 553C2052.1 593.031 2044.77 633.656 2044 674M589 487C584.49 495.596 577.839 503.256 576 513C580.759 509.77 593.874 491.004 589 487M921.003 518.22C910.1 523.325 910.2 540.565 909.097 551C908.866 553.179 906.568 564.605 911.525 563.677C914.876 563.049 912.979 554.308 913.162 552C913.865 543.145 914.946 527.207 923.315 521.881C929.086 518.209 938.091 527.041 935.129 532.97C934.008 535.214 907.803 553.608 928.999 543.849C947.624 535.274 938.723 509.924 921.003 518.22M929 567C939.087 562.503 946.777 549.192 959.93 552.55C966.905 554.331 962.782 570.171 965.927 569.559C969.506 568.863 969.934 559.812 970.208 557C971.343 545.31 969.385 530.233 969 518C963.347 520.37 962.207 527.034 958.663 531.68C950.24 542.723 933.441 553.905 929 567M892.01 523.49C881.129 525.319 879.08 542.834 880.015 552C880.226 554.066 879.443 564.334 883.076 563.677C886.763 563.01 885.407 538.479 887.005 534.01C888.962 528.534 911.6 520.196 892.01 523.49M850 524C848.035 533.915 840.788 559.363 845.781 568.429C849.276 574.772 862.589 554.36 863 550C858.221 553.939 854.589 558.901 850 563C850.249 549.927 855.312 537.088 852 524L850 524M871 529C865.177 540.868 863.231 561.093 866 574C872.051 568.155 875.498 536.489 871 529M965 529C964.488 543.444 963.834 547.618 949 549C952.98 541.734 959.555 536.814 963 529L965 529M1625 529C1621.87 541.802 1600.91 532.451 1625 529M1600.67 531.286C1605.07 532.449 1602.36 540.42 1597.86 539.351C1588.18 537.046 1593.25 529.324 1600.67 531.286M1627 536C1627.52 543.229 1627.37 559.79 1622.82 565.635C1615 575.672 1588.08 578.406 1580.26 567.156C1575.8 560.745 1579.01 542.77 1579 535C1601.86 540.175 1603.31 548.078 1627 536M591 543C590.699 544.995 590.699 546.005 591 548C591.631 545.994 591.631 545.006 591 543M634 565C639.345 561.504 649.942 552.56 650 546C643.11 549.537 632.396 556.278 634 565M2144 550C2143.45 556.135 2140.76 560.175 2136 564C2135.17 558.174 2138.67 554.477 2142 550L2144 550M1291 551C1307.08 553.599 1319.79 559.021 1335 565.088C1337.63 566.139 1349.42 570.052 1347.89 574.278C1346.93 576.962 1338.37 576.542 1336 576.919C1326.41 578.441 1301.01 577.932 1293.83 570.219C1290.67 566.825 1292.15 555.837 1291 551M1235 590C1230.6 576.999 1188.55 603.944 1176 604C1188.81 579.766 1212.56 567.953 1237 559L1238 564C1239.08 561.886 1243.91 555.443 1241.92 553.327C1239.24 550.483 1228.65 558.288 1226 559.583C1208.46 568.163 1196.77 573.958 1183 588.438C1179.75 591.858 1166.29 603.712 1174.16 607.332C1195.3 617.064 1214.18 585.016 1235 590M2119 552C2118.55 554.795 2118.68 557.186 2119 560C2111.47 558.569 2098.54 567.119 2106.94 575.149C2110.67 578.717 2128.05 569.675 2131 566L2126 566C2131.55 549.501 2128.96 555.454 2120 564L2121 552L2119 552M1250 553C1258.23 556.994 1265.7 559.387 1275.01 557.786C1278.15 557.246 1285.06 552.929 1287.73 555.91C1292.51 561.238 1289.15 583.321 1290.49 591.007C1295.62 620.377 1307 644.716 1307 675C1307 685.363 1307.7 701.897 1294.99 705.96C1278.74 711.157 1276.31 674.858 1262.34 672.786C1257.86 672.12 1256.13 683.09 1254.34 686C1248.2 695.968 1214.53 723.536 1208.53 698.992C1204.69 683.278 1224.32 662.412 1230.66 648.993C1242.81 623.259 1251.99 581.409 1250 553M1914 554C1895.28 567.397 1895.88 620.088 1893.88 641C1893.21 648.006 1888.13 661.221 1893.28 667.257C1896.57 671.116 1906.22 672.106 1911 672.804C1924.24 674.737 1961.28 683.925 1970.7 670.587C1979.99 657.409 1980.32 626.012 1983.48 610C1985.85 597.966 1993.41 569.879 1987.18 559.851C1985.59 557.296 1979.11 561.84 1975.97 561.018C1966.61 558.567 1956.93 552.344 1947 553.166C1938.27 553.888 1930.66 560.8 1922 561.257C1917.28 561.506 1914.95 558.067 1914 554M1285 557L1286 558L1285 557M1982 564C1992.19 591.999 1939.37 588.373 1925.01 582.616C1921.72 581.296 1910.09 570.47 1914.93 566.52C1917.81 564.165 1927.01 564.56 1931 563.055C1935.87 561.22 1940.77 558.024 1946 557.463C1956.49 556.337 1972.93 570.655 1982 564M2104 580C2103.27 576.991 2102.88 564.015 2100.46 562.761C2101.16 563.125 2091.13 576.834 2091.32 577.77C2092.02 581.156 2101.49 579.939 2104 580M2114 563C2113.28 567.961 2111.68 570.955 2107 573C2107.9 568.382 2109.54 564.885 2114 563M1910 570C1921.86 590.298 1941.21 592.853 1962.98 589.812C1967.07 589.242 1975.68 582.443 1979.31 584.057C1985.14 586.644 1979.72 611.235 1978.66 616C1967.84 664.794 1923.17 632.46 1896 641C1899.64 629.162 1903.59 609.374 1921 609.374C1928.85 609.374 1934.17 617.12 1940.86 620.057C1951.9 624.896 1973.94 615.427 1977 604C1968.54 610.9 1952.68 620.131 1941 615.796C1934.26 613.292 1929.79 605.349 1922 605.453C1912.93 605.575 1908.04 614.476 1900 617C1902.34 601.588 1904.29 584.578 1910 570M2079.33 571.504C2075.05 573.743 2071.55 592.741 2079.76 588.633C2085.81 585.602 2086.07 567.988 2079.33 571.504M1626 572C1620.46 592.182 1621.18 617.927 1619 639C1618.26 646.176 1620.19 658.691 1615.83 664.653C1608.92 674.12 1582.12 669.206 1578.42 658.992C1567.5 628.825 1581.13 601.505 1577 572C1597.13 578.682 1605.09 574.263 1626 572M2080 575C2082.21 578.84 2081.48 582.277 2078 585C2078.22 581.485 2078.63 578.258 2080 575M1600.99 590.009C1587.76 594.461 1562.36 631.981 1593.86 622.45C1605.99 618.782 1612.12 586.263 1600.99 590.009M616 609C624.115 610.037 638.893 602.816 642 595C634.077 597.187 620.706 602.125 616 609M1601 595C1602.79 598.898 1602.72 601.816 1602 606C1597.41 603.348 1597.35 598.533 1601 595M1593.13 603.313C1597.36 602.488 1601.17 613.517 1596.05 615.239C1592.35 616.485 1588.45 604.225 1593.13 603.313M1588 610C1590.22 621.88 1577.71 623.412 1588 610M1975 635C1974.46 643.472 1971.64 663.603 1964.64 669.079C1955.61 676.145 1906.39 671.86 1897.5 664.181C1890.56 658.186 1897.48 644.235 1904.03 641.091C1914.7 635.965 1927.86 651.065 1939 651.297C1953.42 651.598 1962.59 639.359 1975 635M827 655C831.616 660.281 845.177 655.151 852 656.372C883.292 661.974 916.576 652.436 949 654.078C953.369 654.299 985.829 658.901 985.935 658.529C987.724 652.194 953.89 649.518 949 649.494C922.434 649.363 897.24 653.601 871 654.921C855.669 655.692 843.029 651.382 827 655M1977 890C1964.09 904.811 1933.39 929 1914 933C1919.64 939.712 1929.96 929.659 1935 926.068C1945.37 918.679 1978.26 887.55 1990 895.027C2010.68 908.199 1966.99 940.276 1978.81 965.993C1992.08 994.896 2036.06 975.377 2038.74 949C2039.89 937.622 2031.95 920.863 2023.95 913.099C2020.25 909.503 2009.11 905.135 2008.15 899.735C2006.92 892.738 2020.35 877.531 2024.43 871.96C2042.02 847.964 2105.48 792.943 2056 763.623C2022.89 744 1957.67 776.222 1937.88 805.001C1919.79 831.313 1928.56 861.134 1954 876.2C1961.77 880.802 1968.42 886.938 1977 890M2017 861C2020.54 840.916 2050 822.231 2039.53 798C2033.36 783.725 2009.1 786.363 1998 791.889C1973.54 804.064 1958.56 819.747 1962.08 849C1963.19 858.219 1977.14 868.768 1986 869.917C1990.6 870.513 2001.81 867.43 2003 873C2010.17 867.816 2018.29 863.761 2027 862C2023.11 868.049 2009.38 895.437 2002.6 896.215C1997.97 896.746 1992.03 890.053 1988 888C1991.98 882.109 1998.61 878.66 2003 873C1996.83 876.323 1988.93 885.19 1981.98 885.63C1974.81 886.085 1967.85 879.112 1962 875.825C1935.99 861.214 1926.58 841.643 1937.93 812C1944.28 795.401 1968.58 782.198 1984.14 775.346C2004.7 766.288 2031.19 753.794 2053 765.715C2096.38 789.428 2047.86 851.941 2017 861M1339 766C1326.97 784.975 1306.52 804.82 1290 820C1290.21 816.164 1298.19 799.804 1291.31 798.245C1280.71 795.843 1263.39 828.584 1262.4 837C1257.04 882.481 1216.98 927.802 1195.75 970C1188.64 984.127 1172.51 1004.45 1175 1021C1185.74 1010.18 1189.29 986.69 1197.38 973.078C1220.79 933.707 1246.54 893.84 1267.33 853C1270.41 846.953 1265.82 842.112 1266.6 836C1268.07 824.465 1280.14 808.696 1290 803C1289.12 807.964 1279.23 826.775 1286.32 830.456C1289.94 832.33 1295.82 820.328 1297.45 818C1306.84 804.509 1321 788.071 1334 778C1328.64 792.245 1314.95 802.769 1307.33 816C1305.79 818.666 1298.85 826.901 1301.39 830.031C1304.13 833.403 1313.96 823.249 1316 821.529C1329.72 809.969 1344.17 796.578 1360 788C1352.98 802.12 1329.55 811.913 1328 828C1347.05 818.944 1362.65 802.428 1382 793C1377.23 805.966 1359.19 815.913 1348.68 824.115C1345.84 826.333 1335.85 832.109 1335.98 836.218C1336.15 841.332 1345.45 838.563 1348 837.79C1361.13 833.806 1373.34 827.302 1387 825C1378.87 847.834 1335.78 852.748 1318.12 867.17C1284.23 894.848 1260.67 940.795 1235.28 976C1225.74 989.241 1215.86 1002.15 1207.14 1016C1205.14 1019.17 1198.5 1027.61 1199.71 1031.43C1199.56 1030.95 1223.7 997.895 1227.94 992.007C1247.76 964.483 1268.14 937.439 1288.1 910C1298.88 895.174 1309.02 876.583 1325 866.76C1341.44 856.649 1384.8 847.621 1391.53 828.026C1394.14 820.427 1384.56 821.079 1380 822.151C1366.62 825.301 1353.67 834.033 1340 835C1351.95 824.876 1365.21 816.57 1377 806.177C1379.71 803.786 1388.03 798.018 1385.72 793.505C1381.45 785.179 1348.59 809.391 1343 812C1346.27 808.797 1349.59 805.719 1353.13 802.819C1362.06 795.513 1369.56 778.241 1352 788.762C1336.38 798.122 1323.88 813.551 1308 822C1318.35 802.299 1338.59 789.385 1341 766L1339 766M2007 791.418C2046.86 784.31 2038.27 818.406 2026.6 841.981C2022.87 849.528 2014.88 863.321 2006 864.756C1947.69 874.178 1960 799.798 2007 791.418M797 810C808.152 807.327 803 839.549 803 849C803 882.724 795.071 925.44 807.421 957.32C809.387 962.396 809.242 976.325 813.252 979.641C816.088 981.986 824.671 977.035 828 976.484C844.012 973.835 859.969 970.72 876 968.084C910.859 962.351 943.127 963.995 978 966.962C987.67 967.785 1007.09 965.703 1015.46 969.897C1019.13 971.736 1016.47 978.869 1020 982C1021.96 974.281 1022.68 971.158 1028 965C1018.85 960.082 1030.36 933.124 1031.91 924C1038.44 885.587 1036.24 840.896 1034 802C1036.7 803.384 1039.14 804.982 1042 806C1034.14 791.587 1005.45 791.345 991 792.687C945.148 796.947 898.07 798 852 798C838.059 798 804.252 794.335 797 810M1026 802L1031 801C1029.8 821.056 1027 844.095 1029.45 864C1030.16 869.821 1034.31 885.045 1029.18 889.547C1018.11 899.253 992.034 902.693 978 906.951C939.851 918.524 901.897 930.436 864 942.661C853.286 946.117 823.668 965.75 813.683 962.834C808.59 961.347 806.682 937.886 806.177 933C802.914 901.465 807.346 867.812 806.992 836C806.895 827.201 802.224 810.262 811.287 804.306C824.168 795.84 848.557 800.987 863 801C901.097 801.034 940.065 798.675 978 795.217C987.368 794.363 1022.88 790.611 1026 802M1580 799C1594.61 797.64 1608.8 801.733 1623 800.764C1628.37 800.398 1638.93 798.016 1643.09 802.803C1646.68 806.926 1642.53 824.457 1642.14 830C1640.33 855.667 1638.99 881.382 1636.32 907C1635.57 914.253 1632.06 929.73 1638 935C1644.72 927.181 1660 938.292 1669.65 925.989C1675.97 917.932 1675.32 904.696 1676.44 895C1679.54 868.033 1690.89 827.495 1681 802C1676.94 808.769 1680.33 822.056 1679.92 830C1678.85 850.771 1672.76 871.233 1672.04 892C1671.57 905.504 1671.5 924.225 1656 929.74C1649.85 931.927 1640.21 926.634 1639.6 919.997C1637.15 893.054 1643.47 860.911 1646.56 834C1647.47 826.11 1645.43 812.046 1649.5 805.276C1654.15 797.559 1699.99 794.156 1703.5 804.276C1709.33 821.083 1704.36 847.566 1703.14 865C1701.8 883.976 1707.31 903.084 1707.9 922C1708.23 932.55 1703.63 942.777 1704 953C1712.29 945.875 1712.12 932.102 1712 922C1711.81 905.967 1707.76 889.937 1707.04 874C1706.35 858.859 1710.4 844.22 1708.42 829C1707.53 822.068 1713.1 802.143 1707.97 797.028C1697.8 786.876 1662.75 798.942 1650 798.921C1632.72 798.893 1615.44 793.972 1598 794C1592.65 794.009 1582.07 793.113 1580 799M1537 1020C1541.33 1017.55 1548.23 996.736 1549.91 997.081C1553.05 997.73 1555.04 1006.69 1558 1009C1553.31 990.04 1554.43 952.814 1576.16 941.278C1582.85 937.725 1601.76 949.732 1604.04 943.708C1607.23 935.244 1603.26 924.039 1604.6 915C1610.14 877.688 1611.28 840.731 1612 803C1603.51 809.91 1607 831.164 1607 841C1607 871.187 1606.45 908.677 1599.72 937.826C1598.26 944.133 1575.97 938.208 1575 931L1569 933C1569 889.794 1571.48 841.49 1579 799C1569.29 803.142 1570.12 841.945 1570.01 852C1569.78 872.312 1567.01 892.771 1565.22 913C1564.58 920.214 1567.26 929.182 1565.13 936C1556.8 962.614 1538.76 991.267 1537 1020M1581 801C1580.7 804.955 1578.86 809.047 1582 812L1583 801L1581 801M484 822C466.353 828.333 471.009 849.479 463.107 860.981C449.389 880.952 450.306 859.423 454.367 848C456.183 842.892 458.973 838.365 460 833C446.594 846.293 453.358 866.569 443.351 879.078C442.623 879.987 434.366 891.357 438.336 891.357C441.5 891.357 456.796 872.092 460.32 868.997C474.943 856.156 499.716 842.339 520 845C498.631 859.36 496.34 876.546 507 897C494.576 897.744 478.098 901.762 466 898.296C463.054 897.453 454.059 889.454 451.544 893.607C449.675 896.692 459.06 900.887 461 901.718C471.398 906.172 486.023 903.595 497 902.915C508.629 902.193 519.773 905.413 531 904.702C539.183 904.184 545.176 897.645 553 895.866C578.395 890.09 619.209 886.911 630 858C622.03 861.204 619.131 869.55 611.981 873.927C596.232 883.568 572.414 890.32 554 891C568.316 877.06 581.687 863.051 576 842C596.998 854.832 616.82 866.536 637 849C623.908 846.21 610.898 863.02 600 847C608.65 847 626.713 846.723 632 839C610.311 839.769 599.342 845.655 578 839C587.301 831.52 604.153 825.728 616 825L616 822C592.536 822.035 576.675 837.621 553 836C559.954 832.2 585.402 821.943 588 816C571.567 817.684 561.546 827.508 547 833.349C534.879 838.217 521.713 838.744 509 841C515.807 830.046 535.187 828.533 540 818C516.597 822.755 504.062 844.064 481 850C488.059 833.951 503.694 826.829 512 813C491.01 816.849 487.994 837.946 477.187 851.501C464.754 867.096 472.705 840.492 475.668 835C478.122 830.452 481.336 826.415 484 822M88 832C83.3941 835.958 89.0898 844.184 88.2874 850C85.4843 870.317 84.4036 891.502 83.9814 912C83.5094 934.922 81.2889 957.016 83.6798 980C84.3912 986.839 82.5776 996.362 87.0608 1002.19C94.2349 1011.52 115.258 1013 126 1013C146.585 1013 167.085 1009.06 187 1009.02C202.659 1008.98 216.135 1013.46 232 1012.13C242.449 1011.25 265.888 1011.03 273.24 1002.72C279.133 996.051 279.264 983.398 281.261 975C287.805 947.487 285.628 910.571 284.982 882C284.842 875.786 288.148 849.529 284.472 846.223C268.699 832.033 235.484 845.361 217 845.375C209.642 845.38 203.901 839.523 197 837.717C180.733 833.461 155.908 828.716 139 830.217C128.611 831.14 91.4832 844.355 88 832M138 834.32C172.925 830.687 204.096 852.145 239 847.28C248.846 845.907 272.433 839.823 280.159 848.796C283.915 853.158 280.994 881.972 281 889C281.013 904.396 278.345 919.685 278.119 935C277.723 961.842 285.759 1000.95 250 1005.81C229.279 1008.64 212.204 1005.35 192 1004.57C173.565 1003.86 153.912 1008.05 135 1008C122.647 1007.97 101.368 1009.83 91.6017 1000.32C84.7427 993.638 88.2347 975.786 87.3202 967C84.2772 937.768 89.4406 908.23 90.9221 879C91.3677 870.208 88.7269 851.705 94.2473 844.563C101.243 835.513 127.499 835.412 138 834.32M546 847L546 841C553.433 841 565.344 838.9 571.499 844.083C579.297 850.651 572.048 864.965 567.682 871C557.214 885.469 533.873 903.584 514.214 895.053C488.819 884.034 513.663 839.298 531 847C534.654 838.602 541.239 842.341 546 847M131 918C142.397 910.097 154.709 914.486 154.939 931C155.136 945.108 140.785 966.315 126 968.014C113.869 969.408 108.06 954.362 97 952C98.8599 956.696 102.811 958.946 106.426 962.282C145.767 998.586 184.608 907.985 135 906C138.795 895.65 140.34 878.021 152.029 873.042C160.523 869.424 171.975 872.284 181 870C153.308 844.787 125.428 894.142 131 918M227 889C224.627 889.75 223.065 890.588 221 892C218.367 881.47 224.218 866.667 232.881 882.226C240.39 895.715 229.441 918.403 221 925C234.968 930.814 223.453 943.541 223 955C234.597 945.707 225.826 928.226 245 930C242.545 926.096 237.645 925.749 235.338 922.265C231.867 917.024 235.549 899.299 236.158 893C236.802 886.331 246.277 876.038 241.681 869.649C238.976 865.89 236.826 874.891 233.735 874.766C222.563 874.312 208.709 871.714 216.784 890.948C219.844 898.238 225.672 895.381 227 889M1036 890C1037.83 893.347 1039.65 895.174 1043 897C1042.64 891.948 1041.05 890.365 1036 890M1031 893L1030 908C1017.86 906.939 1007.87 915.834 997 920C1005.85 920.845 1019.04 907.707 1027.18 912.824C1030.47 914.894 1028.1 922.027 1027.56 925C1026.25 932.305 1023.99 961.768 1016.58 964.499C999.213 970.894 969.019 962.166 951 960.199C922.179 957.052 892.245 960.379 864 966.66C856.307 968.371 821.477 979.066 815.951 974.089C810.87 969.514 819.813 964.948 823.001 963.468C836.513 957.193 850.248 951.608 864 945.922C917.006 924.007 975.746 908.464 1031 893M536 897C532.939 900.448 529.229 899.889 525 899C528.561 897.161 532.039 897.038 536 897M2003.64 906.948C2011.11 903.983 2024.46 919.469 2027.12 925C2035.87 943.237 2038.16 964.546 2015 973.872C1995.08 981.892 1974.6 967.127 1978.32 945C1979.72 936.723 1987.16 930.792 1991.46 923.993C1994.04 919.92 1999.12 908.738 2003.64 906.948M952 944C962.413 941.422 995.56 936.266 1002 929C989.815 929.018 957.664 930.976 952 944M1012 931C1009.03 932.219 1006.1 933.055 1003 933.87C977.824 940.492 1010.55 943.641 1012 931M884 956C903.122 954.34 917.062 937.193 938 937L938 934C917.35 934 899.791 943.169 884 956M1563 949C1562.2 953.554 1560.54 957.912 1557 961C1557.6 956.667 1559.3 953 1561 949L1563 949M1662 1020C1672.55 1018.18 1677.64 995.643 1685.8 995.643C1689.58 995.643 1687.7 1006.93 1687.42 1009C1686.16 1018.44 1686.53 1044.48 1679 1050C1683.27 1055.53 1691.77 1053.19 1698 1053C1696.6 1062.96 1707.09 1048.8 1709 1046C1699.14 1044.63 1704.8 1030.99 1704.98 1024C1705.44 1006.18 1707.81 987.589 1710.48 970C1711.08 966.085 1716.48 953.932 1709.9 952.382C1704.56 951.123 1695.84 970.223 1693.02 974.135C1688.64 980.223 1684.91 986.844 1680.58 993C1674.4 1001.77 1666.55 1010.27 1662 1020M1708 962C1702.61 983.92 1703.01 1006.65 1700.44 1029C1699.64 1035.9 1701.56 1050.12 1691.14 1049.07C1683.9 1048.35 1687.88 1029.95 1688.6 1025C1691.66 1004.07 1686.64 975.194 1708 962M1527 1020C1532.8 1033.29 1551.19 1021.29 1560.4 1026.82C1567.73 1031.22 1550.62 1055.36 1559.82 1061.18C1583.45 1076.13 1576.63 1032.6 1583.72 1025.83C1587.69 1022.04 1619.32 1022.63 1624.8 1024.5C1631.95 1026.94 1618.58 1060.18 1618.06 1067C1617.87 1069.58 1615.78 1077.59 1618.83 1079C1621.65 1080.31 1627.12 1077.52 1630 1076.92C1654.14 1071.92 1650.78 1050.02 1655.28 1030.16C1656.2 1026.13 1670.46 1027.75 1667.59 1024.11C1663.04 1018.33 1638.02 1020.09 1631 1020.01C1596.44 1019.62 1561.1 1024.38 1527 1020M1636.21 1024.92C1663.23 1018.76 1648.88 1071.37 1627.07 1073.83C1616.87 1074.99 1627.85 1026.83 1636.21 1024.92M1570.24 1025.92C1582.25 1021.48 1576.91 1055.15 1569.76 1057.5C1556.37 1061.89 1563.53 1028.4 1570.24 1025.92M1516 1078C1534.59 1071.14 1533.07 1047.86 1539 1033L1535 1032C1531.06 1045.71 1530.74 1059.03 1519 1069C1520.61 1055.16 1528.22 1042.81 1530 1029C1517.33 1034.67 1515.3 1066.14 1516 1078M36.6667 1184.33C36.2221 1184.78 37.2778 1184.72 37.3333 1184.67C37.7778 1184.22 36.7222 1184.28 36.6667 1184.33M229 1196.67C211.652 1199.87 193.874 1217.41 182.823 1230C159.638 1256.41 138.658 1285.16 114.525 1310.63C108.358 1317.14 94.1404 1324.86 85 1322.16C79.4576 1320.52 65.3766 1310.55 59.9283 1314.39C51.7803 1320.12 54.6785 1331.81 61.126 1337.29C67.0623 1342.34 91.9834 1347.41 100 1346.5C141.339 1341.81 161.442 1298.93 187.214 1272.68C203.438 1256.15 225.036 1242.16 239.182 1224.14C247.108 1214.04 247.335 1193.29 229 1196.67M231 1200.88C245.879 1201.22 240.164 1217.17 233.896 1224C221.197 1237.84 205.19 1248.39 192.04 1262C175.768 1278.84 162.443 1297.9 146.647 1315.14C139.304 1323.15 121.47 1340.07 109.281 1339.09C104.918 1338.73 102.491 1327.81 103.9 1324.5C106.903 1317.44 121.206 1307.76 126.593 1301C147.993 1274.14 171.033 1244.65 196 1221.08C204.312 1213.24 218.669 1200.59 231 1200.88M1273 1404C1273.21 1381.49 1280.99 1359.33 1281 1337C1262.62 1344.4 1241.77 1319.59 1257.19 1304.19C1270.95 1290.44 1320.19 1280.26 1320.69 1312C1320.94 1328.02 1299.46 1339.13 1292 1351L1293 1352C1304.94 1345.21 1325.45 1327 1325.81 1312C1326.56 1281.45 1287.8 1283.3 1270 1293C1266.64 1274.95 1262.35 1257.06 1259.14 1239C1257.91 1232.03 1263.58 1225.25 1257.03 1219.27C1245.43 1208.65 1223.29 1222.99 1213 1229.1C1209.49 1231.18 1201 1235.18 1201 1240.04C1201 1245.97 1212.14 1245.35 1216 1246.12C1227.54 1248.44 1245.75 1248.64 1249.57 1258C1253.68 1268.09 1260.68 1282.73 1258.52 1293.96C1256.51 1304.41 1244.33 1306.76 1247.64 1320C1249.44 1327.18 1256.39 1337.87 1263.08 1341.28C1266.43 1342.99 1273.44 1341.3 1275.72 1344.26C1278.13 1347.39 1274.28 1358.28 1273.62 1362C1270.05 1382.28 1271.8 1392.97 1257.6 1408.1C1255.9 1409.91 1247.29 1417.73 1251.61 1420.17C1256.16 1422.74 1263.85 1418.32 1268 1416.59C1286.73 1408.8 1283.23 1383.21 1286.91 1364C1287.56 1360.57 1293.67 1342.99 1289.44 1341.11C1286.16 1339.64 1284.08 1354.02 1283.65 1356C1280.66 1369.73 1282.96 1393.45 1273 1404M1983 1251C1974.88 1243.31 1968.92 1238.61 1959 1233C1954.34 1245.1 1961.46 1251.91 1967 1262C1960.74 1257.11 1957.11 1247.44 1949.85 1244.17C1938.1 1238.87 1931.7 1251.18 1935.57 1261C1937.99 1267.14 1943.65 1270.99 1946 1277C1934.57 1273.45 1925.08 1258.83 1913 1259C1916.96 1265.95 1943.48 1281.62 1943.48 1286.76C1943.48 1292.97 1906.39 1282.21 1902.28 1284.4C1894.63 1288.47 1904.86 1296.07 1901.22 1299.82C1898.51 1302.63 1887.48 1306.39 1889.84 1312.18C1894.6 1323.79 1937.82 1290.17 1939.34 1305.15C1940.96 1321.14 1900.36 1330.05 1894.35 1343.09C1889.21 1354.21 1905.58 1366.67 1909 1375C1912.96 1371.66 1912.66 1364.58 1915.54 1360C1920.06 1352.79 1927.51 1348.14 1932 1341C1919.56 1342.27 1917.47 1360.05 1907.55 1363.24C1903.14 1364.65 1896.48 1347.42 1898.08 1344.16C1905.45 1329.11 1945.67 1324.44 1944.52 1304.18C1943.71 1289.82 1920.94 1301.65 1914 1298.91C1911.07 1297.75 1902.22 1293.1 1903.76 1288.83C1904.98 1285.47 1912.82 1288.26 1915 1288.88C1924.82 1291.67 1960.52 1299.08 1944 1280C1961.28 1278.31 1928.82 1257.22 1941.47 1247.87C1950.41 1241.25 1959.1 1261.54 1965.02 1265.04C1972 1269.16 1974.31 1262.65 1969.83 1257.68C1967.9 1255.53 1965.87 1253.55 1964.45 1251C1962.43 1247.36 1961.53 1243.08 1961 1239C1967.88 1242.13 1981.24 1262 1984.72 1262C1988.27 1262 1986.6 1253.05 1986.79 1251C1987.7 1241.29 1984.01 1203.6 1984 1228C1984 1231 1984.07 1234.01 1983.86 1237C1983.54 1241.7 1983.01 1246.27 1983 1251M1539 1231L1534 1230C1533.29 1239.41 1527.81 1238.03 1520 1238C1533.31 1254.62 1520.29 1267.91 1514.59 1288C1507.26 1313.82 1504.46 1331.76 1518.31 1356C1550.16 1411.73 1643.97 1406 1691 1370.3C1704.43 1360.1 1713.65 1344.16 1720.55 1329C1730.16 1307.89 1732.34 1285.18 1739.96 1264C1742.42 1257.17 1749.44 1242.61 1738 1241C1744.31 1254.61 1731.89 1282.6 1727.62 1297C1721.05 1319.14 1712.16 1345.41 1694.91 1361.82C1684.55 1371.68 1670.15 1375.6 1657 1379.88C1620.18 1391.89 1565.22 1403.35 1535.12 1371.92C1505.84 1341.34 1510.45 1311.68 1523.23 1275C1525.68 1267.96 1529.55 1246.89 1537.11 1244.36C1558.04 1237.34 1582.93 1249.91 1603 1253.66C1622.12 1257.23 1642.82 1254.72 1662 1253.22C1680.38 1251.8 1698.92 1252.62 1717 1247.45C1720.44 1246.46 1733.36 1244.89 1733.36 1240.09C1733.36 1232.66 1697.33 1225.19 1691 1223.68C1649.4 1213.71 1603.86 1218.97 1564 1233.72C1557.68 1236.06 1534.13 1244.51 1539 1231M1243 1220.39C1262.5 1218.86 1249.95 1246.86 1236.14 1247.32C1228.83 1247.57 1219.2 1236.41 1223.28 1229.32C1226.14 1224.37 1237.61 1220.82 1243 1220.39M1726 1239C1718.25 1247.89 1695.82 1245.93 1685 1247.26C1660.06 1250.31 1630.08 1253.46 1605 1249.76C1590.25 1247.59 1576.52 1240.17 1561 1240C1571.69 1231.94 1589.1 1230.22 1602 1227.72C1647.01 1219 1682.99 1226.89 1726 1239M2000 1227C2002.87 1234.87 1989.1 1265.62 2002.9 1267.1C2007.78 1267.63 2013.75 1263.29 2019 1263L2019 1260C2014.74 1260.16 2007.17 1263.96 2003.47 1262.4C1989.14 1256.4 2016.37 1233.3 2000 1227M1220 1229C1219.15 1232.92 1219.29 1236.07 1220 1240C1216.62 1238.81 1207.14 1240.63 1205.87 1239.69C1201.53 1236.47 1217.83 1229.51 1220 1229M1255 1239C1258.3 1245.68 1259.1 1252.7 1260.14 1260C1260.81 1264.7 1261.67 1269.33 1262.49 1274C1271.21 1323.66 1244.66 1247.61 1255 1239M437 1324C454.619 1307.46 478.453 1302.72 500 1293C499.095 1297.49 497.367 1301.38 498 1306C485.526 1308.97 453.095 1308.94 447 1322C502.758 1317.35 563.512 1294.37 617 1278C617.023 1280.68 617.211 1283.33 617.294 1286C618.072 1311.11 618.348 1283.84 623.201 1277.78C626.618 1273.51 638.837 1272.35 644 1270.99C645.59 1270.58 655.836 1268.11 653.456 1264.85C649.403 1259.3 628.76 1276.61 621.802 1272.48C614.936 1268.41 622.337 1251.44 612.871 1250.13C601.44 1248.54 583.669 1258.38 573 1262.17C539.845 1273.98 507.304 1287.45 474 1298.9C462.647 1302.8 438.781 1310.39 437 1324M613 1254C613.049 1259.21 617.924 1270.95 614.732 1275.08C611.032 1279.87 596.707 1281.47 591 1282.4C570.426 1285.77 549.779 1297.17 529 1298C540.228 1287.6 556.198 1282.44 570.922 1278.84C579.037 1276.86 592.118 1281.15 598 1273C592.661 1273.19 576.429 1279.04 579 1270C569.069 1273.6 562.002 1282.38 551 1283L554 1277C540.482 1281.53 525.098 1307.36 514 1287C546.545 1277.39 581.318 1265.64 613 1254M657 1256L657 1261C658.176 1258.81 658.176 1258.19 657 1256M308 1263C311.316 1263.82 312.386 1265.01 314 1268C315.824 1262.9 310.454 1255.62 308 1263M1993 1282C2002.03 1279.44 2010.45 1273.43 2020 1273C2016.81 1275.96 1995.73 1289.62 1996.76 1292.81C1998.36 1297.73 2011.48 1296.72 2011.48 1300.18C2011.48 1305.55 1992.2 1307.28 1997.09 1314.38C2001.64 1320.98 2024.88 1325.53 2023.8 1334.91C2021.38 1356 1993.77 1324.5 1991 1322C1991.8 1329.52 1998.39 1342.7 2006.35 1344.86C2013.05 1346.68 2027.93 1344.94 2028.57 1335.99C2029.35 1324.94 2000.42 1318.77 2002.64 1312.33C2004.41 1307.21 2020.18 1302.07 2025 1300C2020.45 1294.87 2007.64 1294.89 2001 1294C2008.6 1285.15 2019.94 1280.51 2026 1270C2016.19 1268.47 1998.69 1273.35 1993 1282M510 1289C510.392 1291.53 510.392 1293.47 510 1296C515.019 1295.48 517.776 1297.24 521 1301C514.477 1302.63 507.714 1304.54 501 1305C502.111 1298.47 504.112 1292.56 510 1289M1892 1311C1901.02 1294.91 1920.75 1306.59 1892 1311M776 1348C787.947 1346.94 799.045 1353.43 811 1354.76C842.105 1358.23 870.01 1356.03 899 1345.76C907.229 1342.84 915.798 1345.35 923 1339C915.542 1336.99 906.123 1341.66 899.196 1337.85C878.987 1326.72 873.205 1308.29 846 1311.33C833.199 1312.76 827.521 1323.83 816 1327.31C800.655 1331.95 783.694 1329.26 776 1348M802 1333C799.973 1336.88 798.201 1339.57 799 1344C803.334 1340.23 808.426 1339.47 806 1333C822.053 1332.99 827.762 1320.1 842 1316.64C854.741 1313.54 872.577 1318.35 882 1327.01C888.258 1332.76 900.12 1343.09 885.997 1347.97C865.893 1354.92 845.382 1349.78 825 1350.46C815.264 1350.78 798.251 1351.91 790.218 1345.26C782.426 1338.81 797.203 1333.57 802 1333M60 1323C71.452 1332.8 65.0773 1324.88 75.4576 1324.01C80.5179 1323.58 85.4636 1327.4 91 1327C91.0074 1332 91.6028 1337.04 91 1342C81.2484 1338.78 55.2792 1340.3 60 1323M95.6816 1326.97C99.3051 1325.06 104.79 1339.28 101.389 1341.67C95.2833 1345.96 91.2492 1329.3 95.6816 1326.97M2008 1347C2007.99 1346.8 2005.8 1374.1 2010.68 1368.9C2008.98 1370.71 1978.94 1366 1974 1366L1976 1375C1967.46 1373.86 1940.83 1366.22 1940 1357C1932.01 1357.47 1917.49 1362.11 1913 1369C1937.37 1361.45 1950.13 1376.29 1972.99 1379.03C1980.09 1379.89 1983.6 1370.5 1994 1371.08C2002.3 1371.55 2019.37 1381.73 2025 1376C2006.88 1367.67 2027.04 1368.88 2026.89 1361.87C2026.76 1355.38 2013.12 1348.9 2008 1347M2013 1352C2016.87 1354.97 2020.51 1357.76 2023 1362L2012 1363C2012.52 1359.33 2012.06 1355.55 2013 1352M2011 1357C2009.51 1362.88 2005.34 1359.3 2011 1357M503 1393C504.672 1394.12 504.328 1394.12 506 1393L503 1393M1255 1416C1266.78 1396.38 1282.09 1413.16 1255 1416M233 1522C227.817 1530.25 220.824 1551.49 209.997 1553.88C201.874 1555.67 197.804 1543.84 188 1548.91C175.145 1555.55 179.412 1567.76 171.237 1576.58C166.02 1582.21 156.823 1579.26 151.199 1584.37C144.259 1590.66 140.114 1618.76 155 1616C150.9 1608.53 145.676 1592.46 156.07 1587.03C162.624 1583.61 172.377 1585.32 177.178 1578.72C183.486 1570.04 177.73 1556.83 191.033 1551.66C200.167 1548.1 203.853 1563.46 214.957 1556.02C229.871 1546.03 235.163 1529.83 252 1520C248.158 1530.99 242.176 1541.56 239.585 1553C237.624 1561.66 240.021 1570.72 235.215 1578.89C231.065 1585.95 221.315 1584.46 216.565 1592.02C211.514 1600.06 211.994 1611.78 204.731 1618.18C196.751 1625.21 185.35 1624.74 176 1629.18C163.112 1635.29 147.739 1646.77 136 1655C133.812 1642.68 144.025 1635.42 150 1626C141.605 1625.73 122.352 1653.09 134.284 1658.54C146.989 1664.35 166.157 1639.17 175 1634.46C185.883 1628.65 198.115 1628.93 207.973 1620.96C216.933 1613.71 214.763 1602.9 221.069 1594.07C225.407 1588 233.467 1589.13 237.795 1582.93C243.915 1574.17 242.237 1563.64 244.837 1554C248.447 1540.61 257.876 1526.54 259 1513C251.648 1514.14 238.963 1526.88 233 1522M1327 1562C1314.29 1547.73 1281.03 1556.1 1265 1559.79C1262.6 1560.35 1242.94 1566.22 1244.76 1569.39C1246.24 1571.95 1262.07 1564.8 1265 1564.1C1287.73 1558.72 1304.23 1558.14 1327 1562M1332 1558C1330.59 1588.43 1306.64 1626.19 1293.18 1653C1289.66 1660 1285.74 1677.5 1280.5 1682.22C1272.17 1689.72 1252.52 1688.94 1242 1691.02C1228 1693.79 1214.4 1698.66 1200 1698.98C1197.25 1699.04 1188.21 1700.94 1186.62 1698.14C1183.96 1693.46 1192.69 1675.1 1194.48 1670C1203.21 1645.17 1218.34 1621.71 1229.79 1598C1232.45 1592.48 1242.65 1578.82 1240.78 1572.65C1240.01 1570.12 1224.27 1599.96 1222.25 1604C1205.7 1637.11 1193.83 1677.24 1173 1706C1198.81 1706.21 1225.61 1698.68 1251 1694.08C1257.25 1692.95 1272.49 1686.05 1278.26 1689.19C1281.79 1691.1 1278.08 1699.52 1282 1703C1283.31 1693.24 1283.9 1687.07 1295 1687C1293.31 1682.74 1286.9 1684.15 1286.52 1679.84C1285.8 1671.51 1294.16 1660.19 1297.75 1653C1307.49 1633.52 1317.83 1613.38 1325.51 1593C1328.34 1585.48 1340.37 1563.23 1332 1558M1960 1618C1963.2 1600.49 1980.83 1589.25 1986 1573C1964.99 1575.93 1967.93 1599.88 1954.92 1611.2C1952.12 1613.63 1939.81 1609.48 1935 1610.9C1922.41 1614.62 1909.31 1627.09 1901.8 1637.44C1885.33 1660.13 1887.74 1707.02 1917.01 1719.75C1930.13 1725.46 1940.05 1715.69 1951.86 1714.96C1956.96 1714.65 1960.1 1720.43 1966 1719.55C1979.81 1717.49 1983.35 1702.01 1987.02 1691C1996.13 1663.65 2011.03 1600.08 1960 1618M819 1632C829.852 1636.45 827.526 1654.45 815.273 1652.93C807.261 1651.93 815.516 1637.19 816.357 1634C822.241 1611.72 837.649 1597.16 846 1577C828.177 1579.41 812.848 1624.66 808.86 1640C807.192 1646.42 807.284 1661.98 818.001 1658.04C833.297 1652.41 833.343 1623 819 1632M1240 1608C1242.82 1604.18 1243.87 1599.01 1247.51 1595.8C1262.02 1582.96 1276.17 1595.07 1291 1593C1275.49 1578.68 1240.52 1583.38 1240 1608M1623 1591C1623.69 1598.76 1622.53 1604.02 1619 1611C1624.56 1615.59 1620.7 1658.76 1614.04 1662.1C1610.15 1664.05 1602.34 1661.06 1598 1661.01C1583.84 1660.85 1525.03 1664.18 1550.26 1690.86C1564.76 1706.19 1597.48 1730.64 1620 1726.45C1631.75 1724.26 1642.98 1714.38 1654 1709.64C1665.34 1704.77 1690.03 1695.49 1689.73 1680C1689.17 1651.33 1645.41 1683.65 1634.32 1668.18C1632.05 1665.01 1636.15 1655.73 1636.76 1652C1638.59 1640.6 1649.41 1607.35 1644.18 1597.49C1641.39 1592.24 1628.33 1595.04 1623 1591M455 1615L458 1615C458 1598.11 462.178 1604.28 475 1607.24C478.518 1608.05 489.804 1608.66 491.198 1612.5C492.531 1616.18 487.856 1625.14 486.82 1629C484.52 1637.58 484.22 1651.57 479.983 1658.96C476.23 1665.5 469.168 1668.79 466 1676C468.815 1674.5 476.465 1665.62 479.315 1666.76C483.659 1668.49 479.942 1685.6 490.03 1681.59C503.043 1676.42 498.806 1657.26 485 1658C485.238 1645.79 488.881 1625.49 495.637 1615.14C498.501 1610.76 511.33 1607.46 507.635 1600.29C504.216 1593.66 494.662 1606.23 488.997 1605.53C468.187 1602.95 456.008 1586.57 455 1615M1621 1657C1621.01 1641.41 1623.57 1623.5 1626.09 1608C1626.71 1604.18 1631.92 1595.3 1637.08 1599.36C1639.61 1601.35 1636.95 1610.85 1637.22 1614C1637.97 1622.94 1635.72 1661.17 1627.99 1666.7C1621.17 1671.56 1625.7 1657.82 1621 1657M264 1611L264 1613L267 1613L267 1611L264 1611M1246 1612C1256.45 1618.1 1271.41 1643.69 1251 1650.96C1245.36 1652.97 1234.24 1636.92 1231 1648C1241.08 1648.01 1246.82 1660.7 1256.81 1652.01C1267.85 1642.42 1264.37 1609.44 1246 1612M1951 1702C1949.94 1732.67 1906.82 1709.67 1899.58 1694C1886.57 1665.81 1904.33 1614.6 1940 1613.11C1952.43 1612.58 1948.69 1624.52 1949.43 1624.6C1962.61 1626.05 1976.71 1607.89 1989.11 1623.24C2002.74 1640.11 1988.22 1677.42 1982.23 1695C1979.56 1702.84 1975.3 1713.24 1966 1714.65C1956.42 1716.11 1957.21 1706.06 1951 1702M488.214 1662.25C494.658 1660.88 494.217 1675.5 489.576 1677.11C484.883 1678.75 482.645 1663.42 488.214 1662.25M1580 1665.33C1606.55 1662.86 1629.96 1675.28 1656 1675.69C1664.57 1675.82 1677.16 1665.94 1684.5 1674.28C1690.57 1681.2 1680.62 1689.47 1675.78 1693.71C1664.64 1703.48 1632.78 1719.65 1618 1721.3C1598.56 1723.48 1576.8 1706.59 1562.44 1695.31C1557.75 1691.62 1547.66 1685.13 1548.71 1678.08C1550.41 1666.58 1571.58 1666.11 1580 1665.33M1956.67 1911.33C1956.22 1911.78 1957.28 1911.72 1957.33 1911.67C1957.78 1911.22 1956.72 1911.28 1956.67 1911.33z"/>
</svg>
