<?xml version="1.0" standalone="yes"?>
<svg xmlns="http://www.w3.org/2000/svg" width="2200" height="2200">
<path style="fill:#0c0c0c; stroke:none;" d="M172 160C163.715 188.502 152.279 217.812 152 248C150.11 245.424 148.547 242.795 147 240C145.654 244.921 155.139 265.034 158.051 257.686C160.351 251.882 157.665 242.414 158.602 236C161.087 218.995 165.494 202.712 169.302 186C170.799 179.432 172.216 165.434 178.281 161.483C186.946 155.838 202.006 158.59 209.32 164.905C211.85 167.091 218.37 177.405 222.285 175.894C226.749 174.172 214.279 161.145 213 159C260.245 159.441 183.603 155.097 185.025 135.914C186.339 118.183 198.475 96.5745 204.813 80.0024C205.926 77.0908 213.002 64.063 208.436 61.7612C205.783 60.4241 201.385 75.9753 200.594 78C194.878 92.615 189.302 107.149 184.109 122C182.831 125.655 181.49 135.669 175.871 133.913C153.76 127.004 130.771 101.052 113 86.6421C110.025 84.2295 96.7303 68.8105 93.802 69.3215C84.2383 70.9902 106.06 87.9722 108 89.5618C126.097 104.391 144.199 121.066 164 133.554C170.124 137.417 181.669 144.191 173.157 152.362C169.457 155.914 160.753 153.795 156 154.217C139.403 155.691 121.651 156.514 105 155.96C100.558 155.812 88.7423 153.368 85.1057 156.243C80.8337 159.62 103.309 161 105 161C127.373 161 149.664 160 172 160M457 161C461.247 175.518 507.221 157.084 515.324 168.477C516.913 170.711 513.303 178.276 512.741 181C510.09 193.839 497.387 209.209 500.403 222.917C500.957 225.436 503.289 226.141 504.662 223.778C512.84 209.708 518.959 184.063 522 168C536.482 172.589 553.879 172.289 569 171.981C570.835 171.944 586.465 171.101 582.894 166.84C579.968 163.35 573.438 167.283 570 167.767C559.887 169.191 548.105 166.784 538 165.677C534.538 165.298 524.174 165.216 524.735 159.874C527.395 134.543 545.422 133.954 566 135.783C569.097 136.058 589.203 139.006 588.677 135.814C586.392 121.96 545.515 135.021 539.006 128.722C533.961 123.838 552.839 90.3013 555.297 84C556.14 81.8408 562.1 71.6152 558.284 70.1057C554.263 68.5156 546.526 90.7292 545.275 94C542.179 102.093 535.924 126.51 527.871 130.06C515.723 135.417 484.552 132.82 472 129.255C469.452 128.531 456.643 126.97 456.643 131.976C456.643 136.043 470.485 134.994 473 135.217C484.52 136.241 517.295 130.042 526.126 136.58C529.81 139.307 520.517 159.61 516.796 161.138C503.458 166.615 472.121 160.86 457 161M1240 127C1228.55 120.906 1215.94 106.89 1209 96C1199.29 111.605 1237.74 123.623 1236.52 139C1234.89 159.449 1222.84 166.967 1207 176.673C1204.7 178.081 1192.29 184.521 1194.53 188.206C1196.82 191.999 1223.86 172.734 1228 171C1227.1 179.767 1220.66 188.388 1222 197C1233.45 191.529 1229.06 176.321 1235.39 167.468C1238.21 163.524 1242.88 162.264 1247 160.191C1249.72 158.823 1252.85 155.946 1256 155.828C1292.13 154.471 1256.96 213.013 1252 205C1249.92 216.1 1257.77 215.48 1262.97 207.921C1269.94 197.81 1274.71 184.761 1278 173C1285.79 181.166 1294.69 188.14 1302.56 196.217C1307.37 201.153 1312.13 206.126 1317 211C1319.11 213.109 1340.56 236.328 1341.57 229.823C1342.17 225.922 1334.17 219.616 1331.78 217C1320.55 204.677 1308.32 193.001 1296 181.783C1291.39 177.585 1283.16 171.986 1281.02 165.96C1278.73 159.507 1282.31 143.17 1287.28 138.518C1289.93 136.035 1300.62 134.017 1300.67 130.012C1300.74 124.888 1289.31 130.443 1287 131C1289.03 124.002 1291.33 117.13 1292.9 110C1293.89 105.515 1295.52 101.34 1296.98 97C1297.68 94.948 1304.3 75.7891 1298.2 78.5439C1293.43 80.6938 1293.52 89.7278 1292.2 94C1287.91 107.962 1281.56 150.889 1258.14 145.714C1238.67 141.414 1246.54 116.555 1249.13 104C1249.51 102.139 1254.63 87.2778 1249.06 88.3232C1243.25 89.4131 1240.35 121.494 1240 127M891.818 83.4077C886.942 87.3 892.793 101.352 893.949 106.019C899.277 127.535 900.769 150.158 904.416 172C904.923 175.036 907.107 197.785 911.13 195.456C915.427 192.968 911.384 177.922 910.642 174C906.487 152.031 905.994 128.518 899.925 107C899.124 104.163 895.209 80.7002 891.818 83.4077M1572 97C1571.64 108.608 1596.27 124.13 1603.46 133C1606.08 136.223 1609.15 144.843 1613.26 146.136C1620.49 148.408 1605.52 125.631 1603.96 124C1600.08 119.959 1596.1 115.952 1592 112.136C1585.85 106.414 1579.55 100.782 1572 97M1681.84 99.1306C1666.97 100.687 1650.82 118.116 1637 124.321C1635.93 124.802 1623.53 130.218 1629.53 131.788C1639.74 134.458 1657.22 119.138 1664.98 113.888C1667.67 112.069 1674.48 105.461 1678.06 107.517C1684.79 111.382 1672.48 154.997 1686.86 154.997C1691.26 154.997 1687.05 145.042 1686.66 143C1685.49 136.911 1685.55 98.7429 1681.84 99.1306M1989 105C1974.96 105.218 1960.72 146.538 1954.72 158.783C1952.99 162.31 1943.97 175.747 1949.25 178.456C1953.37 180.566 1957.15 165.545 1958.48 163C1960.39 159.326 1962.38 155.695 1964.26 152C1967.5 145.618 1971.05 139.406 1974.25 133C1978.98 123.541 1984.23 114.378 1989 105M1923.31 108.082C1919.14 108.902 1923.54 118.786 1924.07 120.999C1926.86 132.58 1932.22 143.356 1935.02 155C1935.5 156.993 1937.08 165.67 1940.65 164.239C1943.98 162.901 1940.89 155.287 1940.34 153C1937.57 141.347 1932.69 130.535 1929.5 119C1928.83 116.608 1927.19 107.32 1923.31 108.082M2027.27 107.728C2019.72 110.687 2011.89 127.484 2007.25 134C1989.48 158.916 1973.57 185.084 1955.78 210C1953.13 213.724 1934.7 241.034 1938.15 241C1945.74 240.925 1957.66 216.809 1961.64 211C1979.21 185.374 1996.58 159.647 2014.08 134C2015.99 131.191 2033.36 105.336 2027.27 107.728M986 118.438C969.101 120.356 952.02 122.902 935.003 123.005C933.633 123.013 918.321 123.528 922.969 127.679C926.493 130.825 936.585 129.022 941 128.998C957.433 128.907 982.076 118.223 997.716 123.509C1007.12 126.688 1001.54 165.326 1002.14 174.001C1002.34 177.031 1002.32 189.514 1007.61 188.559C1011.75 187.81 1008 166.782 1008 163C1008 140.629 1014.23 115.235 986 118.438M1976 242C2006.81 216.505 2015.6 170.534 2045 146C2039.4 174.55 2032.9 203.337 2027.99 232C2027.34 235.804 2018.77 258.997 2026.65 258.997C2029.4 258.997 2033.05 234.526 2033.88 231C2039.55 206.91 2047.8 180.774 2048.97 156C2049.21 150.753 2053.03 138.081 2049.78 133.708C2046.51 129.293 2033.02 151.954 2031.21 155C2019.57 174.571 2008.33 197.301 1993.76 214.783C1988.12 221.542 1974.84 232.651 1976 242M807 138C812.791 157.608 817.149 172.035 814.554 193C814.152 196.252 809.991 209.456 814.364 210.894C819.23 212.495 819.786 198.633 819.922 196C820.601 182.825 822.374 168.995 819.18 156C817.999 151.191 814.455 145.207 820.156 142.03C829.689 136.717 845.83 139.022 856 140.727C859.206 141.264 868.039 145.279 870.73 143.303C875.539 139.773 856.623 135.649 855 135.261C839.15 131.469 823.011 137.852 807 138M115 135C115.987 137.853 117.064 138.373 120 139C118.365 137.156 117.163 136.173 115 135M1236 158C1237.37 154.263 1238.16 144.492 1241.22 142.106C1244.32 139.69 1250.32 146.891 1250.68 149.604C1251.35 154.771 1239.62 157.674 1236 158M1278 142C1277.87 145.351 1277.52 158.534 1274.22 160.031C1270.94 161.514 1262.97 153.898 1264.54 150.645C1266.24 147.148 1274.67 143.966 1278 142M194 155C188.899 153.703 184.216 153.942 179 154L181 145C186.436 146.775 192.488 149.041 194 155M1690 156C1690.13 158.923 1692.49 165.538 1690.08 167.738C1685.98 171.48 1675.62 166.47 1671 165.739C1653.4 162.955 1634.79 163.487 1617 161.882C1612.29 161.457 1597.72 158.199 1594.41 162.693C1589.36 169.542 1616.21 167.018 1618 167.137C1642.65 168.779 1674.95 178.272 1699 174C1696.48 167.893 1694.89 160.577 1690 156M963 169C967.246 180.707 956.533 192.479 951.871 203C946.454 215.225 942.171 227.68 937.078 240C935.872 242.916 933.704 251.184 930.417 252.258C926.162 253.647 915.712 244.181 912 241.918C896.424 232.422 872.171 200.171 854 201C867.141 220.934 893.481 236.387 913 249.304C917.109 252.023 929.068 263.457 934.156 259.128C940.534 253.701 943.468 239.636 946.239 232C952.69 214.225 966.419 196.156 970.562 178.019C971.635 173.32 966.693 170.365 963 169M1608 181C1609.58 193.751 1608.98 201.113 1607.18 214C1606.8 216.752 1603.71 224.571 1605.52 226.862C1607.94 229.927 1618.4 221.963 1620.78 220.563C1632.01 213.979 1642.25 205.983 1654 200.318C1657.24 198.755 1665.81 196.593 1667.38 193.131C1668.69 190.23 1664.93 188.13 1663 187C1654.89 199.245 1624.74 214.274 1611 220C1613.02 211.523 1619.96 184.147 1608 181M1678.41 194.115C1679.69 192.815 1708.45 211.998 1713 214.702C1714.99 215.885 1722.36 221.471 1724.46 218.215C1726.52 215.013 1716.98 210.736 1715.14 209.578C1709.33 205.927 1685.33 187.108 1678.41 194.115M27.5 268.5C26.8723 269.128 27.8726 270.127 28.5 269.5C29.1273 268.873 28.1275 267.873 27.5 268.5M174 449C174.202 427.15 184.803 406.379 186 385C173.309 389.677 172.578 421.425 171.169 433C170.519 438.345 167.761 446.528 174 449M252 481C250.936 484.393 251.542 487.516 252 491C245.67 489.056 226.974 487.633 222.9 483.178C219.401 479.353 223.276 466.79 223.801 462C226.024 441.732 227.32 421.217 230 401C222.005 404.261 223.741 413.513 222.823 421C221.162 434.542 223.793 469.923 214.781 480.176C211.591 483.804 202.997 480.743 199 480.084C183.579 477.538 168.086 475.8 153 471.527C149.895 470.647 134.551 465.745 132.761 469.621C131.023 473.386 147.68 476.557 150 477.103C165.24 480.689 180.577 482.735 196 485.246C200.115 485.916 210.022 486.25 212.7 489.818C215.607 493.693 211.615 502.827 210.665 507C207.127 522.555 204.494 538.547 199.281 553.68C197.848 557.84 192.049 572.241 196.759 575.592C201.054 578.648 203.469 559.644 204.125 557C208.27 540.286 213.066 524.08 216.011 507C216.704 502.981 217.517 491.86 221.499 489.84C231.878 484.576 250.235 504.203 258.109 499.354C260.804 497.693 252.993 484.02 252 481M537.619 411.761C534.126 413.386 537.953 426.792 537.993 430C538.206 447.331 538.261 463.676 536.938 481C536.751 483.454 532.938 497.725 539.493 495.813C542.609 494.905 542.518 482.825 542.783 480C544.33 463.463 545.517 445.549 543.559 429C543.3 426.805 541.621 409.899 537.619 411.761M957 550C926.505 547.159 892.587 553.412 863 548.646C853.568 547.126 830.556 539.428 824 549C837.479 548.647 849.517 553.708 863 553.981C891.879 554.568 922.347 550.802 951 554.447C969.704 556.826 988.137 566.817 1007 567C1001.04 553.302 975.071 558.098 965.416 548.577C941.991 525.48 925.623 485.174 908.491 457.003C903.67 449.075 889.168 436.205 890.77 426.092C891.898 418.971 900.662 425.574 904 427C901.389 418.529 885.563 411.948 885.113 425.003C884.584 440.338 905.565 450.788 902.436 465C899.21 479.653 890.334 493.712 885.555 508C884.366 511.556 879.061 519.468 880.943 523.152C882.404 526.012 890.446 523.109 893 523.026C906.132 522.602 921.239 516.067 933.938 517.192C944.212 518.101 953.097 541.804 957 550M1592 440C1609.17 428.949 1596.74 413.14 1592 440M1304 428C1302.99 456.359 1295.86 483.085 1293 511C1282.93 507.299 1245.94 506.687 1241.62 495.579C1238.73 488.167 1256.2 458.638 1259.71 451C1260.73 448.793 1266.71 437.372 1263.26 435.761C1259.87 434.182 1255.7 446.871 1254.87 449C1250.04 461.378 1244.75 473.574 1239.54 485.783C1238.08 489.196 1232.95 494.394 1234.14 498.334C1238.84 513.806 1280.34 506.248 1289.14 515.814C1292.57 519.546 1285.4 549.101 1280.36 550.48C1255.39 557.315 1224.54 535.93 1200 538C1211.03 554.452 1262.58 555.649 1281 556C1277.84 567.526 1274.33 580.098 1273.14 592C1272.92 594.18 1272.88 609.607 1277.89 602.573C1284.34 593.532 1276.46 563.742 1288.21 558.465C1304.29 551.245 1333.17 563.861 1348 568.992C1351.44 570.181 1365.71 577.191 1368.18 572.373C1370.63 567.6 1354.55 565.262 1352 564.254C1335.87 557.886 1322.13 555.197 1305 553.305C1301.19 552.884 1290.53 554.36 1288.94 549.598C1282.91 531.525 1299.27 515.232 1314.99 517.733C1318.88 518.351 1334.3 524.595 1336.07 518.946C1338.67 510.635 1302.99 514.249 1300.27 509.588C1297.93 505.583 1301.34 496.347 1302.08 492C1304.59 477.324 1304.74 462.785 1305.89 448C1306.38 441.739 1311.57 430.912 1304 428M1976 439C1978.57 461.641 1968.98 485.897 1969 509C1969.01 517.687 1972.86 529.705 1967 537C1960.43 518.355 1950.37 500.702 1939.9 484C1938.42 481.631 1930.66 468.092 1926.97 470.544C1923.3 472.977 1934.17 484.503 1935.63 487.04C1942.55 499.05 1964.47 527.062 1963.45 540.997C1962.5 554.041 1925.79 549.974 1917.68 547.328C1915.07 546.477 1904.38 543.951 1903.28 548.121C1901.96 553.141 1920.06 554.618 1923 554.856C1932.68 555.641 1957.56 549.526 1965.1 556.26C1967.69 558.572 1965.53 564.114 1965.22 567C1963.55 582.698 1947.55 582.192 1934 580.235C1925.53 579.012 1917.41 576.417 1909 575C1914.53 594.572 1950.66 577.383 1961.16 586.26C1964.35 588.958 1961.47 596.707 1960.55 600C1956.76 613.466 1956.45 626.17 1955.22 640C1954.94 643.108 1952.71 655.515 1956.49 656.894C1961.14 658.592 1960.99 644.237 1961 642C1961.06 630.691 1959.5 593.525 1968.74 585.958C1976.03 579.992 2001.42 588.582 2009 591.876C2011.17 592.817 2020.48 599.421 2021.21 593.724C2023.36 577.01 1973.66 585.71 1970.04 576.154C1959.58 548.574 1998.01 552.435 2012 557.97C2014.38 558.912 2026 564.59 2026 558.037C2026 554.824 2018.28 553.345 2016 552.474C2004.93 548.237 1995.85 546.209 1984.02 546.986C1981.03 547.182 1974.75 549.746 1973.54 545.69C1971.51 538.895 1978.85 532.189 1983.01 528.003C1995.1 515.83 2010.28 496.151 2026.03 489.184C2028.42 488.127 2041.42 478.737 2036.11 475.525C2032.19 473.159 2022.75 483.197 2020 485.401C2003.86 498.352 1990.3 514.147 1975 528C1970.19 505.573 1976.43 483.005 1979.71 461C1980.66 454.64 1984.31 441.212 1976 439M257 442C260.878 458.373 288.44 477.994 301 488.46C303.517 490.557 314.549 502.647 318.071 499.081C321.768 495.337 307.271 486.594 305 484.639C291.789 473.27 273.68 446.416 257 442M535 526C557.466 516.991 561.612 473.966 584 462C584.01 482.833 591.752 503.182 593.281 524C593.383 525.398 596.031 544.678 600.181 538.108C602.565 534.333 599.139 525.168 598.58 521C596.411 504.813 592.286 489.1 589.861 473C589.406 469.985 589.237 453.528 586.48 453.081C581.435 452.264 573.516 464.586 570.696 468.04C557.909 483.703 540.125 506.318 535 526M963 466C961.873 471.705 960.542 477.4 958.969 483C957.909 486.773 956.274 490.295 955.033 494C943.143 529.527 978.248 469.744 968.994 459.968C966.313 457.136 926.46 470.907 923.106 474.128C919.05 478.022 935.565 476.487 937 476.037C940.419 474.966 943.672 473.396 947 472.08C952.304 469.982 957.365 466.995 963 466M907 466C917.318 479.695 928.247 496.236 935 512C926.544 512.333 895.083 523.336 889.039 517.733C885.991 514.908 890.588 507.916 891.712 505C896.688 492.095 901.053 478.445 907 466M1334 476C1337.2 490.343 1366.47 503.476 1365.28 518.625C1364.94 522.98 1338.49 537.866 1334 541.562C1332.13 543.101 1324.6 547.924 1327.73 551.049C1330.55 553.869 1336.1 546.668 1338.03 545.143C1345.83 538.959 1367.96 530.636 1372.63 523.221C1375.09 519.329 1368.87 511.926 1366.69 509C1358.19 497.565 1347.76 481.238 1334 476M1527 585C1545.7 580.042 1565.56 578.735 1585 576.775C1589.74 576.297 1600.02 572.449 1604.1 576.142C1610.69 582.104 1603.98 617.617 1602.54 626C1602.21 627.923 1597.94 641.527 1602.86 640.559C1607.1 639.727 1607.65 628.283 1608 625C1608.87 616.837 1606.24 578.179 1613.48 574.789C1625.83 569.009 1663.07 573.118 1677 574.823C1682 575.435 1698.11 579.507 1701.97 575.781C1707.5 570.451 1683.12 569.406 1681 569.217C1657.85 567.161 1633.29 569 1610 569C1618.58 549.006 1649 529.173 1665.14 514.604C1667.74 512.249 1684.43 501.118 1683.12 497.746C1680.95 492.136 1666.3 505.604 1664.44 507.24C1650.25 519.669 1636.85 533.284 1623 546.135C1619.91 549 1613.08 558.528 1608.25 557.511C1602.76 556.356 1597.29 546.982 1593.82 543C1581.75 529.115 1571 514.231 1559.52 499.919C1557.53 497.446 1547.47 479.51 1543.56 484.583C1540.87 488.076 1553.2 499.124 1555.44 502C1567.04 516.921 1578.53 531.868 1590.24 546.687C1592.54 549.598 1601.5 558.333 1599.68 562.19C1594.14 573.914 1558.34 576.36 1547 576.978C1540.49 577.333 1528.91 577.501 1527 585M495.856 488.251C478.77 490.334 458.148 515.008 446.863 526.569C445.419 528.049 430.617 543.468 436.24 543.364C440.307 543.29 446.3 533.716 449.003 531C457.627 522.333 484.04 490.961 497.989 494.084C508.494 496.436 511.729 527.944 513.221 537C513.662 539.681 516.012 551.385 520.063 550.677C525.296 549.762 520.096 538.138 519.058 535.562C514.933 525.321 513.087 486.15 495.856 488.251M218 526C231.511 526 244.885 525.885 258.136 523.335C267.561 521.521 277.453 521.566 287 520.864C294.873 520.286 318.346 518.786 324.03 513.528C327.819 510.023 312.833 507.143 310.739 507.172C306.425 507.232 300.887 512.543 296 513.523C279.821 516.769 262.45 518.711 246.001 520.263C237.923 521.025 221.844 516.585 218 526M143 521L149 518C146.155 539.455 135.717 572.112 141 593C147.78 587.933 146.486 577.592 147.602 570C150.662 549.19 154 528.072 154 507C147.897 509.33 144.989 515.055 143 521M473 605C503.217 605 531.997 599.882 562 597.217C567.786 596.703 587.978 600.323 591.719 596.042C594.149 593.261 591.331 586.244 590.893 583C589.126 569.908 586.728 557.316 586.638 544C586.621 541.537 587.078 531.266 581.771 533.106C578.436 534.262 580.828 543.51 581.038 546C581.594 552.613 589.16 589.551 583.708 591.499C574.642 594.738 559.743 592.561 550 593.077C533.59 593.947 517.351 597.974 501 599.68C493.19 600.495 476.553 596.298 473 605M1966 547.333L1966.33 547.667C1965.84 547.831 1965.23 547.333 1966 547.333M493 577C482.391 571.393 497.312 567.609 503 565.833C515.442 561.948 545.978 565.448 554 555C539.401 551.306 513.061 556.767 499 561.959C488.962 565.666 472.175 576.228 493 577M972 579C977.977 565.02 963.082 574.009 957 577.388C945.762 583.631 919.434 607.936 906.438 601.86C891.946 595.085 878.736 585.335 866 575.756C862.959 573.469 855.94 566.187 851.649 567.946C847.288 569.734 861.483 579.179 863 580.292C872.089 586.957 901.417 613.382 913 609.182C929.159 603.323 954.566 574.207 972 579M1605 567C1603.36 568.939 1602.55 569.03 1600 569C1601.78 567.796 1602.88 567.399 1605 567M492 872C502.685 858.939 512.721 844.609 522.844 831C525.894 826.9 531.244 817.098 536.398 815.643C541.034 814.334 546.697 825.993 548.899 829C559.601 843.618 575.211 857.417 581 875C560.174 868.156 546.055 866.483 524 869.42C508.673 871.46 496.441 874.9 483 882.847C437.954 909.482 444.666 963.645 488 986.915C530.137 1009.54 620.439 971.75 614.598 917C612.439 896.761 598.688 891.781 587.771 877.639C578.881 866.123 573.419 852.301 563.669 841C554.694 830.597 540.878 816.641 541 802C533.808 804.847 530.499 812.906 526.398 819C517.079 832.849 490.816 854.621 492 872M914 802C901.976 817.308 887.822 829.972 877.902 847C874.49 852.858 866.57 862.572 875 867C875.351 852.163 889.439 837.791 898.562 827C900.48 824.731 905.663 815.52 908.86 815.52C911.441 815.52 912.444 825.983 913.115 828C916.066 836.886 926.962 861.416 922.942 870.37C924.002 868.008 891.6 867.76 887 868.922C849.148 878.478 826.326 910.823 839.738 949C856.754 997.437 948.464 997.198 961.383 944.993C966.212 925.478 966.501 899.524 950.695 884.303C945.098 878.914 933.403 878.16 929.499 871.678C918.384 853.222 918.712 822.533 916 802L914 802M1287 965C1295.4 942.669 1310.02 923.099 1300.32 898C1296.03 886.923 1284.01 881.078 1274 876.098C1234.81 856.594 1165.77 882.092 1176.37 933.783C1178.77 945.497 1184.35 958.583 1194.01 965.833C1198.34 969.083 1206.71 970.448 1209.87 974.675C1219.91 988.149 1226.08 1004.12 1237.42 1018C1239.74 1020.83 1246.01 1031.81 1250.58 1030.72C1250.54 1030.73 1252.65 1016.32 1253.74 1014C1260.78 999.058 1266.78 967.208 1287 965M573 878C566.442 878.978 560.684 875.638 554 877C563.609 882.068 580.171 883.91 591 885C590.02 886.783 590.092 886.594 588 887C593.272 890.941 601.898 894.581 605.422 900.069C618.167 919.918 607.056 948.216 590.861 962.423C562.543 987.265 505.705 1003.24 475.538 973.483C428.902 927.484 476.142 878.208 528.019 874.201C540.372 873.246 563.531 866.356 573 878M938 881C940.728 886.697 945.342 884.052 948.785 888.309C955.926 897.139 958.567 909.111 960.359 920C962.244 931.447 958.776 946.835 951.703 956C929.245 985.1 878.594 989.566 852.399 961.74C834.426 942.648 835.762 900.163 859.044 885.354C874.327 875.632 890.172 871.407 908 874.041C918.862 875.646 928.079 885.559 938 881M1244 880L1240 874C1287.55 861.967 1315.04 921.497 1286.7 956.679C1275.08 971.098 1245.85 972.18 1229 971.993C1215.09 971.838 1197.12 967.156 1189.07 954.999C1167.64 922.647 1184.39 885.592 1220.78 879.187C1230.15 877.538 1235.05 874.076 1244 880M583 881C576.053 881.669 577.637 875.825 583 881M187 878.438C148.881 882.763 121.606 900.089 114.647 940C108.29 976.463 147.851 1023.3 186 1018.76C251.794 1010.92 307.952 900.646 220 880.225C209.252 877.729 197.992 877.191 187 878.438M132 906C136.703 894.482 152.048 890.056 163 887.149C190.843 879.759 248.174 879.644 260.534 912C275.99 952.46 223.905 1011.47 184 1013.9C142.855 1016.39 109.678 967.863 121.914 930C126.637 915.386 135.423 913.263 145.214 903.794C150.043 899.124 133.039 905.693 132 906M1942 958C1920.51 952.063 1900.85 942.211 1878 942C1891.94 934.433 1927.41 927.712 1934 912C1916.07 914.185 1899.26 929.062 1882 934.942C1879.11 935.927 1865.73 937.99 1867.11 942.672C1868.63 947.876 1904.59 950.668 1911 952.459C1953.94 964.452 1984.5 997.401 2030 967.546C2050.89 953.837 2082.87 918.577 2060.56 892.285C2048.44 878.002 2019.53 883.298 2004 886.13C1995.61 887.661 1987.42 885.34 1979 888.383C1949.24 899.139 1933.72 927.844 1942 958M1744 936C1728.52 938.076 1715.68 944.593 1701 949.151C1699.02 949.767 1687.31 952.328 1688.76 955.656C1690.42 959.452 1699.6 954.324 1702 953.6C1715.63 949.489 1727.83 942.996 1742 940.492C1744.31 940.084 1757.3 939.547 1756.68 936.174C1755.97 932.37 1745.97 931.312 1743 930.527C1728.16 926.597 1713.61 921.774 1699.01 917.083C1687.59 913.415 1687.8 899.893 1678.92 893.328C1663.22 881.719 1629.15 881.87 1611.02 886.915C1576.35 896.563 1554.34 954.182 1593.04 974.212C1624.96 990.732 1666.32 976.641 1687.38 949.981C1691.17 945.178 1692.96 923.251 1695.78 921.732C1697.41 920.854 1704.95 924.526 1707 925.005C1718.41 927.656 1734.2 929.589 1744 936M2047 894C2053.39 890.015 2061.34 900.172 2062.55 907.011C2064.64 918.75 2057.78 935.876 2050.82 945C2043 955.257 2032.57 962.784 2021 968.334C2011.32 972.979 2002.54 974.366 1992 975.562C1984.02 976.467 1975.86 976.162 1968 974.517C1911.16 962.625 1963.39 867.915 2009 894C2007.89 881.682 2044.21 886.67 2047 894M1681 910L1684 908C1705.19 949.95 1660.21 975 1624 975C1609.17 975 1592.22 974.509 1583.85 959.997C1549.59 900.61 1651.05 859.255 1681 910M1635 894L1642 894C1639.95 889.571 1637.55 890.264 1635 894M1680 903C1676.41 901.009 1674.34 898.908 1673 895C1677.17 896.559 1678.86 898.722 1680 903M1936 908C1940.43 906.784 1943.59 904.005 1947 901C1941.47 900.396 1937.93 902.831 1936 908M1269 972C1261.09 988.247 1251.87 1003.77 1246 1021C1231.59 1008.59 1220.23 993.473 1215 975C1231.26 973.644 1252.93 971.05 1269 972M895 1035C893.104 1029.38 890.328 1024.34 887.803 1019C886.101 1015.4 884.519 1011.72 883.093 1008C882.467 1006.37 876.103 991.347 872.614 996.216C871.071 998.37 876.303 1006.71 877.217 1009C881.288 1019.22 888.692 1043.13 901 1044L898 1038C906.731 1034.44 912.566 1005.06 918.788 996.003C919.752 994.598 928.082 985.952 925.895 984.577C921.973 982.112 915.554 991.562 914.044 994.008C906.626 1006.02 903.921 1024.91 895 1035M799 1320C802.947 1313.21 811.669 1310.69 818 1306.41C833.812 1295.73 849.949 1285.32 866 1275C848.006 1339.68 947.515 1357.47 979.43 1310.02C991.646 1291.86 986.683 1270.25 971 1256.16C967.174 1252.73 956.992 1250.56 954.822 1246.5C949.473 1236.5 954.621 1213.06 955.494 1202C955.765 1198.57 958.391 1188.06 952.97 1187.32C948.965 1186.78 945.757 1194.23 944.295 1197C938.075 1208.77 932.132 1220.81 923.989 1231.44C919.626 1237.13 915.541 1246.56 909.765 1250.68C900.031 1257.63 888.165 1256.2 878.32 1262.06C857.768 1274.29 837.735 1287.57 817.864 1300.94C813.968 1303.56 782.787 1320.2 783.323 1322.86C784.268 1327.53 800.699 1322.95 804 1323.04C821.484 1323.52 841.717 1327.61 859 1330.31C861.06 1330.64 876.914 1334.16 875.677 1328.14C874.881 1324.27 860.916 1326 858 1326C840.063 1326 815.511 1314.11 799 1320M670 1299C663.899 1283.71 627.03 1279.76 614.217 1270.2C605.568 1263.75 584.661 1256.27 578.814 1248.66C573.072 1241.18 571.462 1224.23 569.82 1215C569.222 1211.64 564.328 1188.06 562.632 1187.96C544.355 1186.94 531.799 1229.26 525.197 1240.93C519.295 1251.37 501.365 1249.11 493.768 1261.02C477.025 1287.27 501.161 1337.53 532 1340.84C581.659 1346.15 622.48 1305.57 670 1299M2020 1378C2017.34 1351.87 2046.96 1335.11 2065 1321.25C2072.61 1315.41 2079.33 1306.63 2089 1304.23C2100.54 1301.36 2112.2 1299.44 2124 1297.96C2126.31 1297.67 2135 1299.25 2135 1295.66C2135 1290.55 2127.49 1289.03 2124 1287.28C2111.28 1280.91 2098.63 1274.55 2086 1268C2086.14 1283.05 2117.15 1285.38 2126 1294C2110.17 1294.56 2093.92 1297.86 2079 1303C2089.4 1274.86 2060.39 1272.17 2051.19 1253.95C2044.45 1240.61 2044.81 1227.26 2043.85 1213C2043.63 1209.76 2043.89 1199.42 2040.64 1197.79C2036.06 1195.49 2030.7 1207.17 2028.94 1210C2020.29 1223.92 2013.5 1246.32 2001.46 1257.32C1995.4 1262.86 1984.93 1264.41 1978.02 1269.29C1959.5 1282.36 1951.42 1308.29 1971.7 1323.76C1979.28 1329.54 1995.25 1327.79 2000.83 1335.42C2009.03 1346.65 2005.95 1371.71 2020 1378M556.07 1198.53C564.855 1197.37 567.916 1230.67 570.129 1237C570.951 1239.35 574.768 1247.31 570.49 1248.28C567.987 1248.86 530.851 1240.66 531.055 1241.16C526.053 1229.03 546.413 1213.79 552.58 1207.93C554.803 1205.81 552.933 1198.94 556.07 1198.53M950 1197C950 1207.83 954.349 1236.66 948.355 1245.4C947.001 1247.38 921.008 1248.59 920.028 1246.17C918.516 1242.44 924.892 1236.63 926.844 1234C935.545 1222.28 941.4 1208.63 950 1197M2007 1257C2010.83 1244.03 2021.64 1232.06 2027.89 1220C2029.47 1216.94 2033.07 1209.38 2037.5 1210.08C2040.87 1210.62 2039.8 1216.82 2039.54 1219C2038.69 1226.08 2047.98 1252.93 2044.65 1256.74C2040.13 1261.94 2014.21 1256.33 2007 1257M1288 1372C1285.35 1371.85 1283.53 1372.2 1281 1373C1289.18 1359.04 1298.68 1323.39 1317 1320C1315.73 1309.69 1326.32 1304.45 1333 1298C1335.63 1305.92 1343.85 1295.64 1348 1293.31C1361.45 1285.75 1379.55 1278.05 1395 1280C1387.44 1263.39 1368 1253.6 1351.79 1249.54C1348.93 1248.82 1344.38 1242.02 1341.67 1243.1C1335.28 1245.66 1357.65 1258.97 1360 1260L1358 1256C1361.79 1257.35 1365.52 1258.9 1369 1260.94C1371.95 1262.67 1384.62 1270.76 1383.57 1274.81C1382.9 1277.43 1373.31 1279.36 1371 1280.19C1357.69 1285 1345.72 1288.79 1334 1297C1354.82 1267.68 1336.18 1237.64 1302 1232.36C1273.42 1227.94 1241.57 1242.18 1225.35 1267.01C1208.2 1293.25 1235.01 1309.91 1248.19 1326.5C1254.55 1334.51 1260.11 1347.71 1265.57 1356.96C1269.71 1363.97 1279.39 1384.49 1288 1372M1320 1242C1319.65 1250.62 1328.5 1250.34 1333.46 1254.57C1339.89 1260.04 1341.08 1270.2 1339.4 1278C1330.78 1318.07 1240.54 1351.16 1227.72 1296.98C1222.01 1272.84 1252.27 1228.47 1278 1247C1276.91 1242.9 1274.63 1240.27 1272 1237C1286.86 1233.81 1306.18 1235.86 1320 1242M526 1254C526.983 1243.73 539.072 1244.39 547 1246.79C562.816 1251.58 601.119 1256.53 608.694 1273.01C614.237 1285.07 605.181 1306.19 596.844 1314.92C576.906 1335.8 531.508 1348.06 509.417 1323.85C497.226 1310.48 489.714 1286.92 494.755 1269C498.106 1257.09 515.365 1243.97 526 1254M941 1250C939.806 1251.78 938.745 1252.71 937 1254C950.671 1254.68 949.219 1275.28 955 1256C960.664 1259.05 971.411 1261.87 975.517 1266.52C988.663 1281.41 979.784 1308.23 966.01 1318.81C946.576 1333.74 912.279 1337.07 890.136 1325.92C862.58 1312.05 856.437 1270 891 1261C888.561 1264.55 885.888 1267.8 883 1271C904.424 1263.47 916.32 1250.23 941 1250M968 1259C964.63 1258.53 962.01 1257.58 959 1256C962.927 1254.8 965.609 1255.69 968 1259M1587 1273C1600.56 1272.3 1578.92 1283.25 1576 1284.81C1563.37 1291.55 1526.08 1302.57 1520 1315C1545.71 1314.41 1564.69 1311.62 1590 1321C1587.63 1307.18 1553.97 1307.55 1543 1308C1559.37 1294.3 1584.99 1285.16 1604 1275C1595.43 1292.02 1583.41 1306.94 1598.68 1324.91C1604.77 1332.08 1613.67 1334.53 1617.15 1344C1620.25 1352.42 1634.91 1381.25 1646.65 1378.68C1648.85 1378.19 1616.87 1347.88 1622.41 1339.83C1624.79 1336.37 1632.68 1339.71 1636 1339.91C1648.68 1340.7 1661.81 1338.3 1674 1335C1669.4 1348.23 1657.24 1362.19 1656 1376C1668.04 1370.8 1672.54 1348.86 1678.27 1338.14C1689.18 1317.76 1714.31 1311.94 1706.42 1283C1699.37 1257.18 1654.72 1251.12 1633 1258.19C1623.78 1261.18 1617.5 1268.64 1609 1272.62C1601.65 1276.06 1592.82 1266.47 1587 1273M43 1326C48.0082 1331.84 59.7962 1331.17 67 1332.06C83.819 1334.13 101.458 1338.64 118 1342.36C129.941 1345.04 136.996 1360.66 148.217 1365.54C176.664 1377.92 240.638 1370.45 242 1329C226.895 1344.16 219.23 1359.16 197 1365.15C165.896 1373.53 135.495 1356.18 119.409 1330C113.146 1319.8 106.463 1305.09 111.468 1293.01C117.151 1279.29 131.566 1276.34 142.826 1270.19C151.55 1265.42 161.427 1263.73 172 1265C167.084 1267.53 162.107 1269.21 159 1274C183.994 1271.93 213.624 1256.32 234.092 1282.15C243.108 1293.52 235.908 1326.54 248.228 1331.11C263.603 1336.81 287.555 1318.22 303 1316C293.142 1299.14 262.071 1298.64 246.316 1290.26C235.174 1284.33 232.299 1270.19 217.997 1265.44C203.519 1260.64 191.577 1264.01 177.078 1263.49C163.753 1263.01 153.948 1257.54 140 1262.99C123.212 1269.54 116.396 1283.98 102.903 1293.82C85.2581 1306.68 62.4781 1316.17 43 1326M2069 1275L2062 1273C2066.06 1276.84 2068.96 1283.23 2075 1283C2085.39 1326.86 2030.21 1333.54 2000 1328.06C1986.61 1325.63 1971.08 1323.54 1965.62 1309C1950.52 1268.77 2008.43 1264.05 2031 1262.4C2044.12 1261.43 2062.45 1261.45 2069 1275M1650 1262.32C1676.51 1259.5 1721.66 1279.2 1698.15 1313C1686.8 1329.33 1668.33 1332.67 1650 1334.68C1616 1338.4 1572.9 1310.46 1609.16 1277.82C1620.26 1267.83 1635.43 1263.87 1650 1262.32M1689.33 1272.67C1689.28 1272.72 1689.22 1273.78 1689.67 1273.33C1689.72 1273.28 1689.78 1272.22 1689.33 1272.67M660 1297C641.883 1305.27 611.245 1322.84 592 1324C599.051 1312.51 607.761 1305.58 611.844 1292C612.872 1288.58 611.495 1278.47 614.822 1276.64C622.858 1272.23 653.072 1292.45 660 1297M294 1312L294 1315C284.76 1315.97 254.959 1335.6 247.26 1326.18C242.105 1319.87 247.106 1302.81 246 1295C262.514 1297.53 277.929 1311.9 294 1312M106 1299C106 1314.61 111.786 1324.16 118 1338C96.2246 1335.08 75.0995 1325.77 53 1327C57.262 1316.68 94.949 1301.94 106 1299M1311 1315C1305.95 1333.1 1284.6 1347.42 1279 1367C1274.3 1364.88 1251.09 1332.04 1255.29 1328.37C1257.77 1326.2 1270.19 1329.21 1274 1328.84C1287.93 1327.51 1298.3 1318.54 1311 1315M2040 1332C2038.12 1337.44 2021.66 1361.76 2015.5 1360.68C2011.21 1359.92 2006.49 1337.2 2006 1333C2018.67 1335.13 2027.83 1337.13 2040 1332M131 1691C107.399 1689.55 86.6293 1688.77 63 1692L105 1664.54C110.453 1660.99 116.06 1654.73 123 1656C121.995 1645.71 114.268 1651.95 109.118 1656.04C94.5915 1667.59 78.2797 1676.17 63 1686.58C60.6649 1688.18 45.003 1696.07 46.7426 1699.54C47.8745 1701.8 65.9121 1696.42 69 1695.78C85.316 1692.39 118.801 1688 133.864 1696.63C141.575 1701.05 165.984 1711.61 170.74 1717.78C176.328 1725.03 175.279 1740.91 180.784 1750C182.31 1752.51 193.387 1771.71 196.222 1769.46C199.114 1767.16 192.062 1759.43 190.76 1757.56C182.079 1745.14 179.087 1732.52 176 1718C188.876 1718.05 200.299 1719.49 213 1716C207.62 1726.08 199.613 1735.38 197.886 1747C197.685 1748.35 193.627 1762.6 199.257 1759.46C202.394 1757.7 202.106 1749.14 202.989 1746C205.383 1737.49 210.486 1728.02 215.828 1721.01C222.514 1712.23 230.703 1714.08 238.326 1708.62C251.858 1698.92 262.135 1677.75 260.854 1661C258.727 1633.22 234.09 1635.51 219.781 1619.42C205.423 1603.27 204.275 1569.2 204 1550C189.515 1555.62 175.697 1591.45 168.503 1605C160.723 1619.65 151.007 1618.25 140.165 1628.38C122.397 1644.99 122.646 1670.55 131 1691M1302.77 1569.43C1295.82 1570.36 1288.43 1585.5 1283.42 1590.16C1273.64 1599.25 1265.62 1612.51 1254.96 1620.22C1239.8 1631.17 1220.39 1631.75 1213.74 1653.02C1207.01 1674.53 1234.73 1705.01 1257.14 1703.25C1290.98 1700.59 1335.22 1675.22 1323.39 1635C1320.98 1626.78 1311.66 1622.79 1307.2 1615.92C1299.88 1604.67 1297.24 1586.82 1303.39 1575.01C1304.12 1573.62 1306.27 1568.96 1302.77 1569.43M196 1570C204.207 1584.36 208.588 1603.3 214 1619C198.323 1618.06 180.105 1620.41 165 1618C174.51 1601.26 187.586 1586.38 196 1570M551 1584C546.87 1595.35 533.854 1620.71 524.377 1628.24C519.526 1632.1 509.216 1630.46 503 1634.05C486.11 1643.82 468.904 1659.28 453.438 1671.47C444.142 1678.8 434.059 1685.3 424.001 1691.55C422.389 1692.56 414.988 1695.69 416.106 1698.41C417.678 1702.24 435.658 1701.22 439.68 1702.66C465.383 1711.91 483.475 1705.13 502.657 1728.9C506.002 1733.04 504.175 1741.65 506.454 1747C511.439 1758.7 526.029 1776.37 537 1783C537.106 1773.28 551.498 1733.92 563 1737C561.577 1733.18 559.757 1731.55 556 1730C575.218 1714.66 598.487 1695.79 599 1669C610.319 1676.62 624.016 1689.57 633 1700C625.268 1700.62 617.252 1704.05 610 1706.75C604.61 1708.75 599.588 1710.75 594 1712.21C591.653 1712.82 571.612 1718.71 574.106 1720.86C580.017 1725.96 616.403 1709.64 623.96 1707.24C627.297 1706.18 638.985 1704.19 638.998 1699.97C639.011 1695.51 630.007 1689.64 626.981 1686.94C616.667 1677.76 601.415 1669.28 600 1654C576.792 1654.64 560.045 1620.36 554.388 1602C552.394 1595.53 557.284 1589.15 551 1584M1656 1747C1652.68 1736.93 1654.53 1715.89 1665.32 1709.6C1676.7 1702.98 1690.06 1705.26 1698.06 1692C1702.23 1685.08 1697.61 1672.37 1695.94 1665C1691.9 1647.18 1690.72 1629.37 1688.14 1611C1687.37 1605.48 1691.32 1591.42 1687.94 1587.65C1683.86 1583.11 1667.19 1610.55 1663.92 1614C1642.56 1636.55 1593.54 1644.84 1592.96 1683C1592.56 1709.42 1617.38 1709 1636 1709C1639.97 1709 1653.17 1706.91 1655.52 1710.82C1660.85 1719.71 1637.23 1741.73 1656 1747M1302 1618C1288.52 1615.41 1278.29 1615.6 1265 1619C1266.79 1613.37 1287.88 1584.49 1294.2 1588.5C1296.14 1589.74 1300.95 1614.17 1302 1618M1653 1632C1662.13 1621.94 1674.64 1612.81 1680 1600C1683.49 1602.39 1690.66 1639.15 1686.31 1640.92C1683.5 1642.06 1658.42 1632.89 1653 1632M567 1637C554.184 1634.09 542.258 1631.25 529 1631C532.198 1625.4 540.43 1603.33 547.249 1602.43C551.403 1601.87 565.455 1632.52 567 1637M902 1614.84C885.814 1615.88 847.586 1638.4 842.748 1654C834.953 1679.13 851.875 1720.11 882 1718.6C906.563 1717.36 957.736 1694.5 965.933 1670C974.362 1644.8 924.228 1613.4 902 1614.84M925 1629C908.595 1627.47 894.178 1630.19 878 1632C884.995 1619.6 918.599 1612.6 925 1629M230 1631L221 1630C227.642 1634.81 240.909 1642.95 249 1641C282.642 1705.31 178.208 1738.93 139.375 1695.84C122.592 1677.22 127.322 1623.38 161 1635C157.479 1631.85 152.904 1629.68 150 1626C167.146 1620.63 217.483 1614.65 230 1631M930 1627.33C930.889 1627.33 930.889 1628.67 930 1628.67C929.111 1628.67 929.111 1627.33 930 1627.33M1253 1627.33C1253.89 1627.33 1253.89 1628.67 1253 1628.67C1252.11 1628.67 1252.11 1627.33 1253 1627.33M206 1628C207.94 1629.04 208.778 1629.13 211 1629C209.25 1628.36 207.873 1628.14 206 1628M212 1628C213.363 1629.48 213.973 1629.64 216 1630C214.457 1628.73 213.952 1628.51 212 1628M1250 1629L1249 1630L1250 1629M1307 1640C1302.71 1637.36 1300.87 1633.9 1300 1629C1305.14 1631.01 1305.97 1634.92 1307 1640M1307 1629C1317.12 1633.62 1321.14 1645.87 1311 1654C1310.92 1644.93 1307.87 1637.38 1307 1629M2022 1706C2015.2 1716.39 2009.95 1728.21 2006.09 1740C2005.35 1742.25 2001.26 1750.82 2005.84 1751.68C2008.92 1752.26 2010.08 1744.9 2010.51 1743C2012.95 1732.28 2019.35 1722.19 2023.56 1712C2028.55 1699.89 2041.86 1695.12 2049.54 1684.99C2061.56 1669.14 2055.65 1640.02 2037 1631.54C2009.71 1619.12 1969.17 1647.97 1957 1671C1949.3 1685.58 1954.24 1709.53 1972 1713.28C1986.95 1716.43 2007.16 1708.55 2022 1706M238 1635C235.536 1634.41 234.536 1633.99 233 1632C235.598 1632.5 236.474 1632.86 238 1635M1246 1632C1241.73 1639.92 1231.61 1652.22 1224 1657C1226.77 1646.83 1235.56 1634.89 1246 1632M922 1634C920.309 1634.65 918.813 1634.84 917 1635L917 1633C918.873 1633.14 920.25 1633.36 922 1634M1254.67 1633.67C1254.72 1633.72 1254.78 1634.78 1254.33 1634.33C1254.28 1634.28 1254.22 1633.22 1254.67 1633.67M2050 1653C2045.09 1649.92 2030.44 1638.21 2029 1633C2039.15 1634.52 2046.84 1643.6 2050 1653M522 1635C520.612 1638.48 519.711 1641.24 520 1645C527.474 1635.6 531.482 1630.55 543 1639C544.999 1630.52 567.517 1641.57 573 1644C566.183 1645.98 559.715 1641.7 553 1641C566.298 1648.29 590.18 1649.01 594.898 1665C605.148 1699.74 544.712 1743.53 514 1730.71C497.512 1723.83 476.516 1698.69 476.299 1680C476.042 1657.75 498.558 1629.97 522 1635M1691 1658C1681.67 1654.37 1666.11 1643.92 1660 1636C1671.66 1637.22 1688.73 1646 1691 1658M2016 1636C2013 1639.4 2009.3 1638.99 2005 1639C2008.01 1636.02 2011.93 1636.08 2016 1636M882 1637.33C882.773 1637.33 882.16 1637.83 881.667 1637.67L882 1637.33M1647 1637.33L1647.33 1637.67C1646.84 1637.83 1646.23 1637.33 1647 1637.33M2020 1638.33C2020.77 1638.33 2020.16 1638.83 2019.67 1638.67L2020 1638.33M1289 1639C1288.23 1640.18 1288.18 1640.23 1287 1641C1287.55 1639.36 1287.36 1639.55 1289 1639M1636 1639.33C1636.89 1639.33 1636.89 1640.67 1636 1640.67C1635.11 1640.67 1635.11 1639.33 1636 1639.33M549.667 1640.33C549.222 1640.78 550.278 1640.72 550.333 1640.67C550.778 1640.22 549.722 1640.28 549.667 1640.33M1247 1640.33C1247.89 1640.33 1247.89 1641.67 1247 1641.67C1246.11 1641.67 1246.11 1640.33 1247 1640.33M2002 1640L2002 1642L1999 1642L1999 1640L2002 1640M1285 1641C1282.55 1644.99 1279.22 1647.08 1275 1649C1276.82 1644.03 1279.9 1642.03 1285 1641M910 1643L910 1645L907 1645L907 1643L910 1643M917 1643C915.474 1645.14 914.598 1645.5 912 1646C913.532 1644.15 914.675 1643.69 917 1643M1255 1643C1254.74 1646.96 1253.33 1648.87 1250 1651C1251.23 1647.74 1252.5 1645.44 1255 1643M1292 1658C1292 1636.81 1300.67 1651 1292 1658M858 1644C856.352 1648.25 854.246 1652.04 850 1654C852.161 1649.85 853.998 1646.55 858 1644M935 1656C930.252 1653.4 926.568 1649.77 924 1645C930.747 1644.41 934.015 1649.9 935 1656M941 1660L935 1645C943.376 1644.07 945.801 1654.27 941 1660M1245 1646C1243.8 1656.72 1245.32 1664.42 1246 1675C1237.78 1666.69 1237.01 1654.77 1245 1646M1320 1647C1324.48 1656.24 1315.15 1669.11 1309.56 1676.07C1294.54 1694.77 1247.59 1710.92 1231 1686C1242.59 1687.51 1258.49 1692.79 1270 1691.14C1292.82 1687.86 1309.71 1664.31 1320 1647M2004 1647C1994.9 1666.68 1963.56 1673.5 1985 1700C1971.36 1702.22 1969.08 1686.73 1972.05 1677C1976.91 1661.01 1987.21 1649.89 2004 1647M2026 1692C2033.43 1670.95 2036.84 1666.57 2024 1647C2051.36 1651.15 2053.76 1683.49 2026 1692M1263 1648C1260.66 1651.43 1258.42 1654.61 1255 1657C1256.67 1652.67 1258.72 1649.91 1263 1648M1284.85 1649.19C1293.5 1648.58 1287.35 1669.11 1279.1 1670.05C1267.96 1671.32 1275.25 1649.86 1284.85 1649.19M1305 1648C1306.14 1655.24 1303.44 1666.11 1295 1667C1298.24 1660.91 1300.28 1652.97 1305 1648M1628 1648L1627 1649L1628 1648M919 1663C901.875 1648.51 890.065 1657.01 874 1669C875.905 1648.78 924.234 1641.95 919 1663M949 1650C954.096 1656.21 952.925 1667.62 946 1672C946.419 1665.17 946.819 1656.43 949 1650M1272 1650C1270.38 1653.03 1265.84 1667.44 1262.03 1667.36C1252.9 1667.17 1267.06 1651.06 1272 1650M958 1651C967.784 1659.38 962.371 1669.58 957 1679C955.808 1674.12 956.77 1656.01 958 1651M1235 1651.33C1235.89 1651.33 1235.89 1652.67 1235 1652.67C1234.11 1652.67 1234.11 1651.33 1235 1651.33M1646 1652C1642.56 1654.38 1638.99 1655.79 1635 1657C1638.02 1652.8 1640.85 1651.52 1646 1652M2012 1652C1999.06 1668.86 1982.76 1672.99 1991 1697C1966.92 1687.05 1995.43 1653.07 2012 1652M1619 1653C1618.52 1655.36 1618.36 1655.52 1616 1656C1616.9 1653.88 1616.88 1653.9 1619 1653M1235 1654C1231.47 1668.13 1239.52 1671.94 1246 1683C1230.16 1682.41 1217.26 1663.95 1235 1654M1668 1679C1667.11 1668.08 1671.3 1661.99 1658 1658C1668.68 1643.23 1676.53 1667.74 1668 1679M870 1655C869.098 1657.67 868.421 1658.55 866 1660L868 1655L870 1655M925 1656C926.679 1658.01 927.36 1659.45 928 1662C924.891 1660.91 923.896 1659.17 925 1656M1616 1657C1614.75 1660.9 1612.91 1664.39 1611 1668C1609.47 1662.99 1611.68 1659.54 1616 1657M1653 1658.33C1653.89 1658.33 1653.89 1659.67 1653 1659.67C1652.11 1659.67 1652.11 1658.33 1653 1658.33M2003 1684C2009.52 1675.21 2021.84 1673.58 2017 1660C2034.48 1658.26 2016.98 1683.85 2003 1684M908 1661C905.523 1664.59 888.876 1681 884.309 1675.99C874.636 1665.39 903.292 1660.73 908 1661M1676 1684C1678.72 1675.72 1681.99 1669.99 1682 1661C1695.23 1663.87 1683.91 1681.13 1676 1684M1644 1662C1642.06 1663.99 1640.58 1664.97 1638 1666C1639.94 1664.01 1641.42 1663.03 1644 1662M2015 1662C2014.59 1666.86 2004.89 1686.19 1997.89 1679.11C1991.64 1672.78 2010.71 1663.15 2015 1662M475 1663C470.931 1679.9 474.123 1688.46 481 1704C462.37 1703.34 444.232 1696.37 426 1696C434.848 1684.61 461.293 1667.51 475 1663M1605 1663C1602.67 1682.4 1606.02 1687.35 1613 1705C1597.72 1698.6 1595.16 1674.84 1605 1663M915 1686C918.198 1679.25 922.436 1673.67 923 1666C934.226 1670.59 922.381 1684.09 915 1686M1219.67 1666.67C1219.72 1666.72 1219.78 1667.78 1219.33 1667.33C1219.28 1667.28 1219.22 1666.22 1219.67 1666.67M1630 1666C1629.1 1668.91 1628.29 1670.98 1626 1673C1626.69 1669.81 1627.63 1668.24 1630 1666M1658 1666C1656.01 1675.81 1649.05 1678.15 1640 1679C1641.71 1670.07 1649.52 1666.2 1658 1666M1636 1667L1636 1670C1635.3 1668.45 1635.3 1668.55 1636 1667M1271 1674C1265.08 1671.22 1270.05 1667.15 1271 1674M1965 1669L1964 1670L1965 1669M911 1670C912.956 1681.87 901.415 1676.09 911 1670M1257 1670C1257.99 1671.48 1258 1671.2 1258 1673C1256.23 1672.02 1256.04 1671.78 1257 1670M1694 1671C1693.83 1690.52 1688.48 1703.11 1666 1704C1670.59 1692.39 1687.36 1686.81 1692 1671L1694 1671M1963 1672C1962.04 1688.06 1965.75 1695.98 1975 1709C1958.34 1707.99 1955.45 1683.78 1963 1672M1286 1673C1286.99 1674.48 1287 1674.2 1287 1676C1285.23 1675.02 1285.04 1674.78 1286 1673M878 1676C878.851 1678.35 879.578 1680.54 880 1683C876.287 1681.5 875.772 1679.3 878 1676M950.667 1676.67C950.722 1676.72 950.778 1677.78 950.333 1677.33C950.278 1677.28 950.222 1676.22 950.667 1676.67M1634 1676C1633.62 1679.28 1633.19 1680.88 1630 1682C1631 1679.49 1632.05 1677.88 1634 1676M2048 1676C2045.91 1682.64 2042.15 1688.64 2035 1690C2038.34 1685.04 2042.87 1681.21 2046 1676L2048 1676M857 1677C857.21 1678.87 857.214 1680.13 857 1682C855.956 1679.83 855.939 1679.16 857 1677M893 1686C896.226 1675.36 904.988 1682.32 893 1686M1257.67 1679.67C1257.72 1679.72 1257.78 1680.78 1257.33 1680.33C1257.28 1680.28 1257.22 1679.22 1257.67 1679.67M888 1680C887.594 1682.09 887.783 1682.02 886 1683L888 1680M1650 1680C1648.76 1683.54 1646.57 1683.8 1643 1684C1644.98 1681.35 1646.78 1680.66 1650 1680M1664 1680.33C1664.89 1680.33 1664.89 1681.67 1664 1681.67C1663.11 1681.67 1663.11 1680.33 1664 1680.33M1641 1683L1640 1684L1641 1683M2025 1683C2022.95 1693.9 2010.37 1700.49 2000 1701C2005.18 1694.28 2017.87 1688.26 2025 1683M2010 1688L2009 1689L2010 1688M874 1691C871.907 1690.59 871.98 1690.78 871 1689L874 1691M937 1689L936 1690L937 1689M1612 1689.33C1612.89 1689.33 1612.89 1690.67 1612 1690.67C1611.11 1690.67 1611.11 1689.33 1612 1689.33M1678 1689C1675 1694.38 1670.2 1697.64 1664 1698C1667.19 1693.49 1672.79 1690.61 1678 1689M851 1690.33C851.773 1690.33 851.16 1690.83 850.667 1690.67L851 1690.33M852 1692C858.99 1697.37 864.492 1705.21 873.003 1708.49C888.131 1714.33 903.329 1702.84 918 1702C905.291 1715.32 849.454 1721.78 852 1692M907 1698L906 1699L907 1698M1986.67 1704.67C1986.72 1704.72 1986.78 1705.78 1986.33 1705.33C1986.28 1705.28 1986.22 1704.22 1986.67 1704.67M1617 1715C1622.08 1723.65 1641.04 1762.89 1654 1753C1642.71 1746.26 1628.19 1713.98 1617 1715M1998 1754C1982.92 1757.39 1986.6 1720.33 1973.79 1718.32C1972.19 1718.06 1985.25 1752.83 1988.84 1757.99C1995.05 1766.92 2000.47 1763.79 1998 1754M555 1730C550.846 1744.58 540.084 1758.87 534 1773C528.229 1769.76 503.671 1744.39 513 1740C511.211 1737.7 509.912 1735.76 509 1733C527.598 1738.85 536.924 1735.7 555 1730M1622 2000C1636.34 1994.72 1654.22 1924.58 1663.68 1966C1664.73 1970.62 1665.29 1975.45 1666.54 1980C1668.18 1986.01 1672.35 1990.95 1674 1997C1648.94 1991.27 1618.31 1999.91 1600.24 2019.06C1584.7 2035.54 1596.18 2067.03 1617 2072.44C1636.8 2077.58 1689.37 2060.51 1691.86 2037C1694.1 2015.77 1680.64 2000.63 1673.14 1982C1668.91 1971.48 1670.99 1952.84 1659.63 1946.26C1652.3 1942.02 1647.79 1951.26 1644.36 1956C1635.77 1967.9 1623.25 1984.99 1622 2000M1285 1950C1272.85 1958.06 1263.84 1975.17 1254.9 1986.56C1246.16 1997.68 1238.28 2009.22 1229.37 2020.22C1217.31 2035.1 1231.46 2070.07 1250 2073.65C1274.72 2078.43 1305.21 2059.84 1327 2050.43C1330.85 2048.76 1359.31 2038.52 1358.68 2035.3C1358.37 2033.75 1344.38 2030.03 1342 2028.24C1326.68 2016.74 1308.2 2005.94 1294.5 1993.15C1286.68 1985.84 1287.55 1960.23 1285 1950M464 1960C466.241 1960.7 467.982 1961.8 470 1963C469.138 1958.59 465.23 1951.62 464 1960M809 1955L808 1959C810.697 1958.42 810.789 1957.74 811 1955L809 1955M1281 1964C1283.12 1970.4 1290.13 1984.94 1287.1 1991.5C1285.08 1995.85 1258.32 1998.58 1253 1999C1258.63 1987.04 1270.01 1971.5 1281 1964M2031 1975C2031.68 1994.73 2075.44 2006.25 2091 2012C2091.7 2003.93 2084.03 2003.51 2078 2001.1C2060.11 1993.93 2046.68 1985.08 2031 1975M2014 2044C2011.42 2051.69 1986.65 2077.46 1992.4 2085.07C1996.09 2089.97 2001.8 2074.88 2002.8 2073C2016.41 2047.39 2031.63 2043.42 2055 2030.15C2057.94 2028.48 2081.75 2015.3 2079.59 2013.06C2077.15 2010.53 2071.13 2015.26 2069 2016.44C2058.78 2022.13 2050.75 2029.64 2039 2032C2049.93 2013.58 2038.64 1986.44 2018 1979.84C1998.6 1973.64 1976.48 1978.96 1959.22 1988.66C1939.38 1999.8 1927.26 2031.11 1952 2044.21C1968.15 2052.77 1997.29 2049.3 2014 2044M1989 1987C1985.96 1990.78 1981.61 1991.34 1977 1992C1980.1 1988.87 1984.81 1988.03 1989 1987M2003 1993C1994.93 1992.38 2000.89 1987 2003 1993M2034 2001L2030 1999C2038.03 2013.35 2029.51 2028.61 2014 2032C2026.13 2016.66 2026.58 2008.28 2023 1989C2029.3 1990.41 2032.83 1994.75 2034 2001M2021 2000C2017.78 1997.06 2016.03 1994.25 2015 1990C2019.64 1991.89 2020.11 1995.39 2021 2000M1995 1995C1993.09 2001.52 1978 2004.36 1973 2010C1971.56 1998.62 1986.36 1995.09 1995 1995M1973 1998L1970 1999L1973 1998M2014 2000C2017.44 2005.91 2018.44 2009.86 2015 2016C2013.42 2011.35 2012.52 2004.71 2014 2000M1288 2004C1260.94 2003.91 1252.18 2023.63 1238 2041C1233.48 2022.33 1253.58 2010.35 1268 2005.29C1273.74 2003.28 1283.11 1998.16 1288 2004M1969 2001C1966.67 2011.96 1966.9 2019.3 1969 2030C1953.58 2027.72 1956.6 2005.69 1969 2001M796 2063C815.096 2062.82 832.287 2061.47 851 2066.98C885.926 2077.25 903.893 2096.73 941 2078.03C964.174 2066.35 993.743 2056.76 976 2026C990.756 2031.22 1014.49 2044.52 1026 2055C1000.81 2060.89 976.813 2069.14 952 2076C955.705 2084.01 967.599 2075.99 974 2073.88C996.414 2066.48 1017.01 2057.36 1039.99 2065.54C1042.01 2066.25 1046.1 2066.32 1044.68 2062.97C1039.64 2051.08 1012.02 2039.39 1001 2033.75C967.003 2016.35 939.558 1990.64 899 2009.6C885.177 2016.06 878.417 2028.71 864 2033.87C847.358 2039.83 830.449 2045.43 814 2051.92C807.919 2054.32 798.697 2056.56 796 2063M1298 2004C1295.95 2004.75 1295.4 2004.66 1294 2003L1298 2004M1994.97 2003.55C2005.65 2002.08 1984.36 2015.94 1980.16 2016.11C1971.77 2016.45 1990.6 2004.15 1994.97 2003.55M1255 2004C1253.03 2005.79 1251.61 2006.47 1249 2007C1250.92 2005.76 1252.9 2004.9 1255 2004M1635 2005C1624.29 2015.34 1611.39 2024.73 1607.35 2040C1606.12 2044.65 1613.87 2061.54 1614.03 2061.45C1604.61 2067.08 1601.11 2044.63 1601.02 2040C1600.72 2024.63 1619.62 2006.36 1635 2005M570 2005.5C538.437 2008.63 514.289 2035.09 488 2050.15C484.255 2052.29 461.535 2062.81 463.106 2067.57C464.247 2071.03 481.347 2068.87 485 2069.14C507.317 2070.75 533.308 2083.19 555 2080.91C571.935 2079.14 598.193 2064.23 605.502 2048.68C617.062 2024.08 594.32 2003.08 570 2005.5M1665 2010C1662.82 2009.26 1662.28 2008.9 1661 2007C1663.74 2007.21 1664.42 2007.3 1665 2010M1675 2016C1672.05 2013.56 1670.56 2010.46 1669 2007C1674.5 2007.76 1675.74 2010.73 1675 2016M1615 2065C1646.91 2063.39 1688.42 2043.82 1678 2007C1689.34 2011.13 1691.06 2031.1 1686.46 2040.96C1678.62 2057.75 1652.76 2062.44 1637 2067.22C1630.39 2069.23 1619.61 2071.39 1615 2065M928 2009C920.526 2013.92 903.923 2018.26 895 2019C900.396 2010.31 918.543 2006.64 928 2009M948 2013C955.57 2011.92 961.448 2015.83 964 2023C955.757 2021.75 935.238 2014.26 930 2008C934.451 2008 948.772 2006.32 948 2013M1655 2009C1668.98 2015.33 1662.4 2033.04 1654.68 2041.44C1653.54 2042.69 1646.67 2051.97 1644.6 2048.19C1643 2045.26 1654.36 2035.89 1655.97 2033C1660.32 2025.2 1657.05 2016.85 1655 2009M2008.67 2009.67C2008.72 2009.72 2008.78 2010.78 2008.33 2010.33C2008.28 2010.28 2008.22 2009.22 2008.67 2009.67M242 2069C261.084 2070.25 258.949 2074.48 248 2057C252.079 2055.75 253.992 2054.2 255 2050C217.531 2056.5 209.173 2016.15 176 2010.52C140.452 2004.49 69.3019 2057.47 114.003 2090.32C123.008 2096.94 131.971 2093.96 142 2093.14C167.149 2091.11 190.713 2080.48 214 2070.43C219.74 2067.95 249.169 2052.57 242 2069M1284 2011C1281.18 2012.91 1279.78 2012.98 1277 2011C1279.53 2010.64 1281.48 2010.59 1284 2011M1290 2013C1287.82 2012.26 1287.28 2011.9 1286 2010C1288.74 2010.21 1289.42 2010.3 1290 2013M1666 2011C1676.91 2023.82 1668.48 2037.9 1657 2046L1656 2045C1667.5 2033.02 1665.71 2025.9 1666 2011M2040 2012C2039.99 2036.95 2019.94 2039.98 1999 2042.32C1992.46 2043.05 1981.97 2046.6 1977 2041C1990.1 2043.28 2016.76 2038.64 2026.99 2029.76C2032.4 2025.07 2033.83 2014.37 2040 2012M1637 2018C1647.94 2007.81 1661.12 2017.92 1637 2018M2003 2013C2000.37 2020.07 1992.33 2024.02 1985 2023C1989.48 2017.36 1995.81 2013.76 2003 2013M2008 2013C2008.91 2014.38 2009.4 2015.44 2010 2017C2008 2015.76 2007.44 2015.31 2008 2013M566 2014C558.779 2022.97 544.922 2028 534 2031C538.317 2020.52 555.629 2015.53 566 2014M1299 2039C1305.74 2029.69 1306.65 2024.6 1302 2014C1319.18 2014.27 1312.13 2039.69 1299 2039M588 2021C578.607 2030.33 559.285 2016.53 575 2019L572 2016C577.221 2015.27 583.152 2019.12 588 2021M1301 2032C1296.47 2028.84 1295.72 2021.28 1295 2016C1302.37 2018.84 1300.95 2025.31 1301 2032M1239 2017L1237 2020L1237 2017L1239 2017M967.556 2019.31C969.584 2018.93 970.63 2022.19 968.596 2022.91C966.243 2023.74 965.225 2019.74 967.556 2019.31M1273 2018C1266.31 2026.48 1263.95 2032.79 1261 2043C1248.65 2033.11 1262.53 2021.2 1273 2018M1286 2018L1286 2020L1282 2020L1282 2018L1286 2018M1345 2038C1334.34 2040.51 1325.14 2047.01 1315 2051C1314.95 2038.44 1320.07 2031.51 1317 2018C1326.27 2020.64 1340.05 2029.65 1345 2038M148 2019C144.169 2028.29 130.183 2030.71 123 2037C122.562 2028.15 140.859 2020.54 148 2019M200 2043C194.267 2041.46 175.562 2024.68 173 2019C189.201 2021.75 196.813 2026.78 200 2043M939 2019L938 2020L939 2019M1954 2032C1943.76 2026.14 1951.55 2014.05 1954 2032M1972 2019C1973.63 2020.61 1974.77 2022.06 1976 2024L1975 2025C1973 2023.01 1971.98 2021.84 1972 2019M2018.67 2019.67C2018.72 2019.72 2018.78 2020.78 2018.33 2020.33C2018.28 2020.28 2018.22 2019.22 2018.67 2019.67M891.667 2020.67C891.722 2020.72 891.778 2021.78 891.333 2021.33C891.278 2021.28 891.222 2020.22 891.667 2020.67M1235 2022C1234.49 2029.2 1232.01 2035.66 1232 2043C1225.11 2037.22 1229.65 2027.17 1235 2022M1645 2025C1636.37 2027.75 1627.41 2032.98 1628 2043C1613.28 2039.79 1636.16 2015.22 1645 2025M1650 2024.33C1650.89 2024.33 1650.89 2025.67 1650 2025.67C1649.11 2025.67 1649.11 2024.33 1650 2024.33M888 2025L888 2028L886 2028L886 2025L888 2025M1281 2025C1279.73 2030.11 1271.48 2037.25 1267 2040C1268.1 2032.43 1273.65 2026.92 1281 2025M1614 2074C1588.56 2073.9 1566.78 2068.43 1541 2073C1554.71 2056.42 1586.21 2046.45 1593 2025C1583.14 2025.72 1574.23 2039.29 1566.97 2045.14C1561.15 2049.83 1555.03 2054.27 1549 2058.69C1546.06 2060.85 1526.14 2075.76 1529.72 2079.28C1531.78 2081.3 1541.75 2076.19 1545 2075.97C1561.52 2074.86 1576.46 2074.92 1593 2076.03C1598.25 2076.38 1612.34 2081.77 1614 2074M559.667 2026.67C559.722 2026.72 559.778 2027.78 559.333 2027.33C559.278 2027.28 559.222 2026.22 559.667 2026.67M1653 2026C1652.23 2027.18 1652.18 2027.23 1651 2028C1651.55 2026.36 1651.36 2026.55 1653 2026M1995.67 2027.67C1995.72 2027.72 1995.78 2028.78 1995.33 2028.33C1995.28 2028.28 1995.22 2027.22 1995.67 2027.67M1999 2027.33C1999.77 2027.33 1999.16 2027.83 1998.67 2027.67L1999 2027.33M894 2028L892 2031L894 2028M903 2028C892.826 2047.04 886.681 2047.55 891 2070C866.281 2065.66 892.821 2034.28 903 2028M974 2035C971.134 2033.02 970.292 2031.46 970 2028C972.697 2030.11 973.545 2031.61 974 2035M1993.67 2028.67C1993.72 2028.72 1993.78 2029.78 1993.33 2029.33C1993.28 2029.28 1993.22 2028.22 1993.67 2028.67M550 2029C544.281 2035.56 534.765 2041.18 528 2047C528.952 2035.8 539.907 2030.81 550 2029M584 2032C589.167 2027.67 591.105 2033.37 584 2032M884 2029.33C884.889 2029.33 884.889 2030.67 884 2030.67C883.111 2030.67 883.111 2029.33 884 2029.33M1289 2029C1289.79 2038.13 1280.99 2043.26 1273 2045C1274.33 2035.52 1280.36 2031.5 1289 2029M1992 2029C1990.64 2030.48 1990.03 2030.64 1988 2031C1989.46 2029.92 1990.25 2029.56 1992 2029M1649 2034C1644.93 2035.39 1641.35 2037.45 1637 2037C1639.5 2033.42 1646.76 2026.12 1649 2034M148 2031C143.678 2037.64 133.865 2044.15 127 2048C128.277 2038.35 139.748 2033.74 148 2031M574 2031C572.601 2036.25 561.622 2055.51 553.825 2049.04C542.263 2039.44 568.301 2031 574 2031M1987 2031C1984.52 2034.01 1981.75 2033.94 1978 2034C1980.48 2030.99 1983.25 2031.06 1987 2031M2004 2033C2001.91 2032.59 2001.98 2032.78 2001 2031L2004 2033M1249 2032C1250.47 2034.98 1251.42 2037.73 1252 2041C1248.95 2038.54 1247.95 2035.81 1249 2032M966 2033L968 2036C965.749 2035.53 964.882 2035.14 966 2033M1972 2033C1968.13 2035.42 1964.32 2035.09 1960 2034C1963.87 2032.69 1967.94 2033 1972 2033M156 2035C154.181 2037.83 135.828 2055.02 133.922 2053.46C128.416 2048.93 152.53 2035.83 156 2035M178 2064C180.864 2050.58 186.169 2048.56 176 2036C191.749 2033.91 188.019 2058.26 178 2064M905 2035L902 2037L905 2035M938 2035C936.412 2039.05 934.234 2040.3 930 2041C932.041 2037.42 933.97 2035.9 938 2035M1315 2035C1313.35 2057.15 1256.51 2083.54 1242 2062C1270.24 2062.52 1296.2 2056.53 1315 2035M180 2054C167.52 2045.45 161.584 2048 147 2051C157.01 2037.62 178.887 2030.21 180 2054M875 2068C855.882 2069.62 834.204 2059 814 2059C821.082 2049.5 845.86 2045.37 857 2041.32C859.381 2040.46 868.839 2035.82 870.999 2037.51C873.093 2039.16 873.101 2063.04 875 2068M886 2036.33L886.333 2036.67C885.84 2036.83 885.227 2036.33 886 2036.33M915 2036.33L915.333 2036.67C914.84 2036.83 914.227 2036.33 915 2036.33M974 2037C978.307 2044.24 972.049 2053.47 965 2056L974 2037M122 2038C120.783 2042.8 118.692 2046.14 114 2048C115.473 2044.27 117.713 2041.28 120 2038L122 2038M544 2039C539.918 2066.38 525.332 2049.24 544 2039M592 2039L592 2041L589 2041L589 2039L592 2039M899 2039.33C899.889 2039.33 899.889 2040.67 899 2040.67C898.111 2040.67 898.111 2039.33 899 2039.33M209 2040C216.325 2043.87 230.631 2050.16 234 2058C219.743 2061.27 206.772 2072.64 192 2073C200.735 2060.45 205.119 2054.83 209 2040M524 2042L524 2055C520.166 2051.6 520.835 2046.61 522 2042L524 2042M947 2042C945.154 2045.52 942.856 2048.24 940 2051C932.911 2042.07 938.022 2042.52 947 2042M1973 2042L1970 2044L1973 2042M955.667 2043.67C955.722 2043.72 955.778 2044.78 955.333 2044.33C955.278 2044.28 955.222 2043.22 955.667 2043.67M965 2044C963.198 2046.39 961.888 2047.21 959 2048C960.397 2044.93 961.681 2044.36 965 2044M1246 2044C1250.33 2047.3 1255.13 2050.31 1258 2055C1252.04 2054.29 1244.19 2051.34 1246 2044M508 2046C506.279 2057.79 513.916 2059.94 517 2070C510.139 2068.41 481.912 2067.84 478.106 2063.8C474.583 2060.06 504.1 2046.97 508 2046M931 2046C929.366 2048.86 927.828 2050.31 925 2052C926.69 2049.17 928.141 2047.63 931 2046M203 2047C204.306 2051.58 202.721 2055.2 199 2058C199.823 2054.12 201.16 2050.52 203 2047M895 2048L893 2053C892.938 2050.66 893.499 2049.82 895 2048M1238 2050L1235 2048L1238 2050M567 2050C564.539 2053.34 562.07 2054.41 558 2055C560.346 2051.51 562.793 2050.1 567 2050M918 2049C916.195 2054.07 913.07 2057.19 908 2059C909.889 2054.2 913.686 2051.62 918 2049M1633 2049L1630 2051L1633 2049M543 2056C544.597 2048.63 549.296 2053.1 543 2056M122 2051C121.905 2058.2 120.57 2064.74 121 2072C113.339 2066.53 115.667 2056.59 122 2051M195 2051L194 2052L195 2051M170 2059C167.891 2057.05 166.952 2055.71 166 2053C170.056 2053.6 170.784 2055.04 170 2059M934 2053C931.939 2056.47 929.626 2058.27 926 2060C925.964 2054.5 928.931 2053.39 934 2053M109 2054C109.074 2072.53 119.102 2082.64 136 2088C118.106 2099.2 97.1015 2068.07 109 2054M156.979 2054.43C162.539 2054.04 165.899 2060.45 158.929 2060.92C149.575 2061.56 145.642 2055.22 156.979 2054.43M1242 2055L1240 2058L1242 2055M1636 2055L1635 2056L1636 2055M1939 2070C1950.78 2047.31 1970.98 2092.37 1989.85 2094.79C1998.57 2095.91 1986.49 2082.47 1984 2081L1986 2087C1972.39 2079.12 1963.22 2064.27 1949.9 2056.69C1940.12 2051.12 1935.44 2062.31 1939 2070M581 2056C575.811 2064 561.061 2067.86 552 2069C559.189 2062.2 571.266 2057.44 581 2056M552 2060C549.555 2060.24 547.435 2060.3 545 2060C547.745 2057.7 549.549 2057.15 552 2060M133 2064C132.465 2058.39 138.013 2060.54 133 2064M158 2066C150.425 2071.43 137.189 2063.86 142.689 2062.08C146.256 2060.92 154.119 2065.23 158 2066M556 2061C553.774 2063 551.84 2064.04 549 2065C550.956 2062.11 552.561 2061.44 556 2061M956 2061C952.183 2067.67 944.218 2071.86 937 2074C941.014 2067.53 948.617 2062.64 956 2061M538 2063L538 2065L535 2065L535 2063L538 2063M175 2064C173.727 2065.75 173.026 2066.18 171 2067C172.273 2065.25 172.974 2064.82 175 2064M575 2067.33C575.773 2067.33 575.16 2067.83 574.667 2067.67L575 2067.33M573 2068C570.636 2072.53 564.75 2073.99 560 2075C563.147 2071.02 568.149 2069.13 573 2068M165 2070C156.56 2081.32 136.505 2081.58 128 2071C141.188 2071.01 151.406 2071.4 165 2070M923 2074C921.168 2076.12 919.767 2076.56 917 2077C919.014 2075.32 920.454 2074.64 923 2074M553 2075.33C553.773 2075.33 553.16 2075.83 552.667 2075.67L553 2075.33M170 2082C167.467 2084.37 165.41 2085.37 162 2086C164.52 2083.49 166.493 2082.56 170 2082M152 2085L149 2086L152 2085z"/>
</svg>
